<?xml version="1.0" encoding="utf-8"?>
<!-- Generator: Adobe Illustrator 25.1.0, SVG Export Plug-In . SVG Version: 6.00 Build 0)  -->
<svg version="1.1" id="레이어_1" xmlns="http://www.w3.org/2000/svg" xmlns:xlink="http://www.w3.org/1999/xlink" x="0px"
	 y="0px" viewBox="0 0 921 427.5" style="enable-background:new 0 0 921 427.5;" xml:space="preserve">
<style type="text/css">
	.st0{enable-background:new    ;}
	.st1{fill:#3AA25C;}
	.st2{opacity:0.416;fill:none;stroke:#94989E;enable-background:new    ;}
	.st3{fill:#929397;}
	.st4{fill:#E2E2E2;}
	.st5{fill:#42454A;}
	.st6{fill:#FFFFFF;}
	.st7{fill:#A3A3A3;}
	.st8{fill:#3E3E3E;}
</style>
<g id="그룹_5511" transform="translate(-740 -2737)">
	<g class="st0">
		<path class="st1" d="M761,2756.3v2.5h-20v-2.5h8.4v-1.8c-3.9-0.4-6.4-2-6.4-4.5c0-2.8,3.2-4.6,8-4.6c4.8,0,8,1.8,8,4.6
			c0,2.5-2.5,4.2-6.5,4.5v1.8H761z M746.6,2764.2h12.1v2.5h-15.3v-6.4h3.2V2764.2z M751,2752.1c3,0,4.8-0.7,4.8-2
			c0-1.3-1.8-2.1-4.8-2.1c-3,0-4.7,0.7-4.7,2.1C746.3,2751.4,748.1,2752.1,751,2752.1z"/>
		<path class="st1" d="M775.2,2755.9c-2.5-0.7-4.2-2.3-5.2-4.2c-1,2.1-2.8,3.8-5.4,4.6l-1.5-2.5c3.7-1.1,5.3-3.9,5.3-6.6v-1.7h3.2
			v1.7c0,2.6,1.6,5.2,5.2,6.2L775.2,2755.9z M782,2764.4v2.4h-15.3v-6.1h11.6v-1.3h-11.6v-2.4h14.7v6h-11.6v1.4H782z M781.4,2756.1
			h-3.2V2745h3.2V2756.1z"/>
		<path class="st1" d="M796.6,2747.2c0,6.6-2.5,12.3-9.9,16l-1.8-2.4c5.1-2.6,7.9-6.1,8.4-11h-7.2v-2.6H796.6z M805.6,2756h-3.1v11
			h-3.2v-22.1h3.2v8.4h3.1V2756z"/>
		<path class="st1" d="M827.3,2761.8v2.6h-20v-2.6H827.3z M825.2,2758c-3.8-0.8-6.7-2.9-8.1-5.7c-1.4,2.8-4.2,5-8.1,5.7l-1.3-2.7
			c5-0.8,7.7-4.3,7.7-7.5v-1.6h3.4v1.6c0,3.2,2.7,6.7,7.7,7.5L825.2,2758z"/>
		<path class="st1" d="M846.1,2746.2c0,5.9-3.7,9.9-10.3,11.6l-1.2-2.5c4.9-1.2,7.6-3.6,8.1-6.6h-7v-2.5H846.1z M837.9,2758.2h14.3
			v8.6h-14.3V2758.2z M841,2764.3h8.1v-3.7H841V2764.3z M855.1,2752.4h-2.9v4.9H849V2745h3.2v4.8h2.9V2752.4z"/>
		<path class="st1" d="M868.4,2758.4v1.9h6v6.8h-3.2v-4.3h-12.2v-2.5h6.2v-1.9h-8.4v-2.5h20v2.5H868.4z M857.7,2752.7
			c4.8-0.3,7-1.7,7.3-3.3h-6.3v-2.4h6.5v-2h3.2v2h6.5v2.4h-6.3c0.4,1.5,2.5,3,7.3,3.3l-0.9,2.4c-4.1-0.3-6.8-1.4-8.2-3.2
			c-1.4,1.8-4.2,2.9-8.2,3.2L857.7,2752.7z"/>
		<path class="st1" d="M896.5,2755.9c-2.5-0.7-4.2-2.3-5.2-4.2c-1,2.1-2.8,3.8-5.4,4.6l-1.5-2.5c3.7-1.1,5.3-3.9,5.3-6.6v-1.7h3.2
			v1.7c0,2.6,1.6,5.2,5.2,6.2L896.5,2755.9z M903.3,2764.4v2.4h-15.3v-6.1h11.6v-1.3H888v-2.4h14.7v6h-11.6v1.4H903.3z
			 M902.7,2756.1h-3.2V2745h3.2V2756.1z"/>
		<path class="st1" d="M918.3,2757.5c-2.4-0.8-4.1-2.4-5-4.3c-1,2.2-2.7,3.9-5.3,4.8l-1.6-2.5c3.6-1.2,5.2-4,5.2-6.7h-4.3v-2.5h11.9
			v2.5h-4.3c0,2.5,1.6,5.2,5,6.3L918.3,2757.5z M909.9,2759.1H925v8h-3.2v-5.5h-11.9V2759.1z M925,2745v13.1h-3.2v-5.3h-3.3v-2.5
			h3.3v-5.3H925z"/>
	</g>
	<path id="패스_3031" class="st2" d="M1660.5,2808.5v356"/>
	<path id="패스_1860" class="st2" d="M1200.5,2808.5v356"/>
	<path id="패스_2333" class="st2" d="M740.5,2808.5v356"/>
	<g class="st0">
		<path class="st3" d="M934.9,2850.7c-1.7,0.3-3.2,0.4-5.8,0.4h-1v-5.8h5.6v0.9h-4.4v3.9c2.5,0,3.9-0.1,5.5-0.4L934.9,2850.7z
			 M930.6,2855.6h7.2v0.9h-8.4v-4.1h1.1V2855.6z M939.1,2848v1h-1.9v4.4h-1.1v-9.1h1.1v3.7H939.1z"/>
		<path class="st3" d="M948.8,2851.5c-1.2,0.2-2.4,0.4-3.6,0.4v4.5H944v-4.5c-1.2,0.1-2.4,0.1-3.5,0.1l-0.2-1c2.3,0,5.5,0,8.3-0.4
			L948.8,2851.5z M941.3,2847.5c0-1.5,1.3-2.6,3.2-2.6c1.9,0,3.2,1,3.2,2.6c0,1.5-1.3,2.6-3.2,2.6
			C942.7,2850,941.3,2849,941.3,2847.5z M942.4,2847.5c0,1,0.9,1.6,2.1,1.6c1.2,0,2.1-0.7,2.1-1.6s-0.9-1.6-2.1-1.6
			C943.3,2845.8,942.4,2846.5,942.4,2847.5z M950.7,2844.3v12.6h-1.1v-12.6H950.7z"/>
		<path class="st3" d="M956.7,2849.4c0-0.6,0.4-1,0.9-1c0.5,0,0.9,0.4,0.9,1c0,0.6-0.4,1-0.9,1
			C957.1,2850.3,956.7,2849.9,956.7,2849.4z M956.7,2855c0-0.6,0.4-1,0.9-1c0.5,0,0.9,0.4,0.9,1s-0.4,1-0.9,1
			C957.1,2856,956.7,2855.6,956.7,2855z"/>
	</g>
	<g class="st0">
		<path class="st3" d="M964.2,2853.4v-4.2h-1.1v-1l1.2-0.1l0.2-2.1h1.1v2.1h2.1v1h-2.1v4.2c0,0.9,0.3,1.5,1.2,1.5
			c0.3,0,0.6-0.1,0.9-0.2l0.3,1c-0.4,0.1-0.9,0.3-1.4,0.3C964.8,2856,964.2,2855,964.2,2853.4z"/>
		<path class="st3" d="M968.8,2850.7c0-3.3,1.9-5.3,4.6-5.3c1.2,0,2.2,0.6,2.8,1.3l-0.7,0.8c-0.5-0.6-1.2-1-2.1-1
			c-1.9,0-3.2,1.6-3.2,4.2c0,2.6,1.2,4.2,3.2,4.2c1,0,1.7-0.4,2.4-1.1l0.7,0.8c-0.8,0.9-1.8,1.5-3.2,1.5
			C970.7,2856,968.8,2854,968.8,2850.7z"/>
		<path class="st3" d="M977.3,2850.6c0-3.3,1.8-5.3,4.4-5.3c2.6,0,4.4,2,4.4,5.3s-1.8,5.4-4.4,5.4
			C979.1,2856,977.3,2853.9,977.3,2850.6z M984.7,2850.6c0-2.6-1.2-4.2-3.1-4.2c-1.8,0-3.1,1.6-3.1,4.2c0,2.6,1.2,4.2,3.1,4.2
			C983.5,2854.8,984.7,2853.2,984.7,2850.6z"/>
	</g>
	<g class="st0">
		<path class="st3" d="M987.2,2860c1.9-1.6,2.7-2.8,2.7-3.9c0-0.7-0.4-1.2-1.1-1.2c-0.5,0-0.9,0.3-1.2,0.7l-0.4-0.4
			c0.5-0.5,1-0.9,1.8-0.9c1.1,0,1.7,0.7,1.7,1.8c0,1.2-0.9,2.4-2.3,3.7c0.3,0,0.7-0.1,1-0.1h1.7v0.6h-3.8V2860z"/>
	</g>
	<g class="st0">
		<path class="st3" d="M992,2851.4h3.6v1H992V2851.4z"/>
		<path class="st3" d="M997,2852c0-2.5,1.7-4,3.4-4c1.9,0,3,1.4,3,3.6c0,0.3,0,0.5-0.1,0.7h-5.1c0.1,1.6,1.1,2.7,2.5,2.7
			c0.7,0,1.3-0.2,1.9-0.6l0.5,0.8c-0.7,0.4-1.5,0.8-2.5,0.8C998.6,2856,997,2854.5,997,2852z M1002.3,2851.4c0-1.5-0.7-2.4-1.9-2.4
			c-1.1,0-2,0.9-2.2,2.4H1002.3z"/>
		<path class="st3" d="M1010.1,2856.3l0.1-1.4c-0.6,0.6-1.4,1.1-2.3,1.1c-1.9,0-3.1-1.4-3.1-4c0-2.5,1.6-4,3.3-4
			c0.9,0,1.5,0.3,2.2,0.9h0l0.1-0.7h1v10.8h-1.3V2856.3z M1010.1,2853.9v-4c-0.6-0.6-1.2-0.8-1.8-0.8c-1.2,0-2.2,1.2-2.2,2.9
			c0,1.8,0.8,2.9,2.1,2.9C1008.9,2854.9,1009.5,2854.6,1010.1,2853.9z"/>
	</g>
	<path id="패스_3033" class="st4" d="M843,3164.4h60v-179.5h-60V3164.4z"/>
	<path id="패스_3034" class="st4" d="M940,3164.4h60v-230.1h-60V3164.4z"/>
	<path id="패스_3035" class="st1" d="M1037,3164.5h60v-87.1h-60V3164.5z"/>
	<g class="st0">
		<path class="st5" d="M860.3,3148.6c0.8-0.7,1.5-1.3,2-1.8c0.5-0.5,0.9-0.9,1.2-1.5c0.3-0.5,0.5-1,0.5-1.5c0-0.5-0.1-0.9-0.4-1.2
			s-0.6-0.4-1.2-0.4c-0.5,0-0.9,0.2-1.2,0.5c-0.3,0.3-0.4,0.8-0.4,1.3h-1.4c0-1,0.3-1.7,0.9-2.3c0.6-0.5,1.3-0.8,2.2-0.8
			c0.9,0,1.7,0.3,2.2,0.8c0.5,0.5,0.8,1.2,0.8,2.1c0,0.6-0.2,1.2-0.5,1.8c-0.3,0.6-0.7,1.1-1.1,1.5c-0.4,0.5-1,1-1.7,1.6l-0.6,0.5
			h4.1v1.2h-6.3v-1.1L860.3,3148.6z"/>
		<path class="st5" d="M867.7,3142.2c0.5-0.8,1.4-1.3,2.6-1.3c1.2,0,2.1,0.4,2.6,1.3c0.5,0.8,0.8,2,0.8,3.5c0,1.5-0.3,2.7-0.8,3.6
			c-0.5,0.9-1.4,1.3-2.6,1.3c-1.2,0-2.1-0.4-2.6-1.3s-0.8-2-0.8-3.6C866.9,3144.2,867.2,3143.1,867.7,3142.2z M872.1,3144
			c-0.1-0.5-0.3-0.9-0.6-1.2s-0.7-0.5-1.2-0.5c-0.5,0-1,0.2-1.2,0.5s-0.5,0.7-0.6,1.2s-0.1,1.1-0.1,1.8c0,0.7,0,1.3,0.1,1.8
			c0.1,0.5,0.3,0.9,0.6,1.2s0.7,0.5,1.2,0.5c0.5,0,1-0.2,1.2-0.5s0.5-0.7,0.6-1.2c0.1-0.5,0.1-1.1,0.1-1.8
			C872.2,3145,872.2,3144.5,872.1,3144z"/>
		<path class="st5" d="M875.1,3142.5v-1.4h2.7v9.5h-1.5v-8.1H875.1z"/>
		<path class="st5" d="M880.1,3143.5c0-0.5,0.1-0.9,0.4-1.3s0.6-0.7,1.1-0.9c0.5-0.2,1-0.3,1.7-0.3c0.7,0,1.2,0.1,1.7,0.3
			c0.5,0.2,0.8,0.5,1.1,0.9s0.4,0.8,0.4,1.3c0,0.5-0.1,0.9-0.4,1.3c-0.2,0.4-0.6,0.7-1,0.9c0.5,0.2,0.9,0.5,1.2,0.9
			c0.3,0.4,0.4,0.9,0.4,1.4c0,0.6-0.1,1.1-0.4,1.5c-0.3,0.4-0.7,0.8-1.2,1c-0.5,0.2-1.1,0.4-1.7,0.4s-1.2-0.1-1.7-0.4
			c-0.5-0.2-0.9-0.6-1.2-1c-0.3-0.4-0.4-0.9-0.4-1.5c0-0.6,0.1-1,0.4-1.5c0.3-0.4,0.7-0.7,1.2-0.9
			C880.5,3145.2,880.1,3144.5,880.1,3143.5z M881.8,3146.7c-0.4,0.3-0.5,0.7-0.5,1.2c0,0.5,0.2,0.9,0.5,1.2c0.3,0.3,0.8,0.5,1.4,0.5
			c0.6,0,1.1-0.2,1.4-0.5c0.3-0.3,0.5-0.7,0.5-1.2c0-0.5-0.2-0.9-0.5-1.2c-0.4-0.3-0.8-0.4-1.4-0.4
			C882.6,3146.3,882.2,3146.4,881.8,3146.7z M884.4,3142.6c-0.3-0.3-0.7-0.4-1.2-0.4c-0.5,0-0.9,0.1-1.2,0.4
			c-0.3,0.3-0.5,0.6-0.5,1.1c0,0.4,0.2,0.8,0.5,1.1c0.3,0.3,0.7,0.4,1.2,0.4s0.9-0.1,1.2-0.4c0.3-0.3,0.5-0.6,0.5-1.1
			C884.9,3143.2,884.7,3142.8,884.4,3142.6z"/>
	</g>
	<g class="st0">
		<path class="st5" d="M957.3,3148.6c0.8-0.7,1.5-1.3,2-1.8c0.5-0.5,0.9-0.9,1.2-1.5c0.3-0.5,0.5-1,0.5-1.5c0-0.5-0.1-0.9-0.4-1.2
			s-0.6-0.4-1.2-0.4c-0.5,0-0.9,0.2-1.2,0.5c-0.3,0.3-0.4,0.8-0.4,1.3h-1.4c0-1,0.3-1.7,0.9-2.3c0.6-0.5,1.3-0.8,2.2-0.8
			c0.9,0,1.7,0.3,2.2,0.8c0.5,0.5,0.8,1.2,0.8,2.1c0,0.6-0.2,1.2-0.5,1.8c-0.3,0.6-0.7,1.1-1.1,1.5c-0.4,0.5-1,1-1.7,1.6l-0.6,0.5
			h4.1v1.2h-6.3v-1.1L957.3,3148.6z"/>
		<path class="st5" d="M964.7,3142.2c0.5-0.8,1.4-1.3,2.6-1.3c1.2,0,2.1,0.4,2.6,1.3c0.5,0.8,0.8,2,0.8,3.5c0,1.5-0.3,2.7-0.8,3.6
			c-0.5,0.9-1.4,1.3-2.6,1.3c-1.2,0-2.1-0.4-2.6-1.3s-0.8-2-0.8-3.6C964,3144.2,964.2,3143.1,964.7,3142.2z M969.1,3144
			c-0.1-0.5-0.3-0.9-0.6-1.2s-0.7-0.5-1.2-0.5c-0.5,0-1,0.2-1.2,0.5s-0.5,0.7-0.6,1.2s-0.1,1.1-0.1,1.8c0,0.7,0,1.3,0.1,1.8
			c0.1,0.5,0.3,0.9,0.6,1.2s0.7,0.5,1.2,0.5c0.5,0,1-0.2,1.2-0.5s0.5-0.7,0.6-1.2c0.1-0.5,0.1-1.1,0.1-1.8
			C969.3,3145,969.2,3144.5,969.1,3144z"/>
		<path class="st5" d="M972.1,3142.5v-1.4h2.7v9.5h-1.5v-8.1H972.1z"/>
		<path class="st5" d="M979.2,3149c0.3,0.2,0.7,0.3,1.2,0.3c0.6,0,1.1-0.2,1.4-0.7c0.3-0.5,0.4-1.3,0.4-2.5
			c-0.2,0.3-0.5,0.5-0.9,0.7s-0.8,0.2-1.2,0.2c-0.6,0-1.1-0.1-1.5-0.3c-0.5-0.2-0.8-0.6-1.1-1c-0.3-0.5-0.4-1-0.4-1.7
			c0-1,0.3-1.7,0.8-2.3c0.6-0.6,1.3-0.9,2.3-0.9c1.2,0,2,0.4,2.5,1.2c0.5,0.8,0.7,2,0.7,3.6c0,1.1-0.1,2-0.3,2.7s-0.5,1.2-1,1.6
			c-0.5,0.4-1.1,0.5-1.9,0.5c-0.9,0-1.6-0.2-2.1-0.7c-0.5-0.5-0.8-1.1-0.8-1.8h1.4C978.8,3148.5,979,3148.8,979.2,3149z
			 M981.6,3145.3c0.3-0.3,0.4-0.8,0.4-1.3c0-0.6-0.2-1.1-0.5-1.4c-0.3-0.3-0.7-0.5-1.3-0.5s-1,0.2-1.3,0.5c-0.3,0.3-0.5,0.8-0.5,1.3
			c0,0.5,0.2,1,0.5,1.3c0.3,0.3,0.8,0.5,1.4,0.5C980.9,3145.8,981.3,3145.7,981.6,3145.3z"/>
	</g>
	<g class="st0">
		<path class="st6" d="M1052.4,3148.6c0.8-0.7,1.5-1.3,2-1.7c0.5-0.5,0.9-0.9,1.2-1.5c0.3-0.5,0.5-1,0.5-1.5c0-0.4-0.1-0.8-0.3-1
			c-0.2-0.3-0.5-0.4-1-0.4c-0.4,0-0.8,0.1-1,0.4c-0.2,0.3-0.4,0.7-0.4,1.2h-1.8c0-1,0.3-1.8,0.9-2.4s1.3-0.8,2.2-0.8
			c1,0,1.7,0.3,2.3,0.8s0.8,1.2,0.8,2.1c0,0.7-0.2,1.3-0.5,1.9c-0.4,0.6-0.8,1.2-1.2,1.6c-0.5,0.5-1.1,1-1.8,1.6h3.8v1.5h-6.4v-1.4
			L1052.4,3148.6z"/>
		<path class="st6" d="M1060.1,3142.2c0.5-0.8,1.4-1.3,2.7-1.3c1.3,0,2.2,0.4,2.7,1.3s0.8,2,0.8,3.5c0,1.5-0.3,2.7-0.8,3.5
			c-0.5,0.9-1.4,1.3-2.7,1.3c-1.3,0-2.2-0.4-2.7-1.3c-0.5-0.9-0.8-2-0.8-3.5C1059.3,3144.2,1059.6,3143.1,1060.1,3142.2z
			 M1064.4,3144.1c-0.1-0.4-0.2-0.8-0.5-1.1s-0.6-0.4-1.1-0.4c-0.5,0-0.9,0.1-1.1,0.4s-0.4,0.6-0.5,1.1s-0.1,1-0.1,1.6
			c0,0.7,0,1.2,0.1,1.7s0.2,0.8,0.5,1.1c0.3,0.3,0.6,0.4,1.1,0.4c0.5,0,0.9-0.1,1.1-0.4c0.3-0.3,0.4-0.6,0.5-1.1
			c0.1-0.4,0.1-1,0.1-1.7C1064.5,3145.1,1064.5,3144.6,1064.4,3144.1z"/>
		<path class="st6" d="M1068.3,3148.6c0.8-0.7,1.5-1.3,2-1.7c0.5-0.5,0.9-0.9,1.2-1.5c0.3-0.5,0.5-1,0.5-1.5c0-0.4-0.1-0.8-0.3-1
			c-0.2-0.3-0.5-0.4-1-0.4c-0.4,0-0.8,0.1-1,0.4c-0.2,0.3-0.4,0.7-0.4,1.2h-1.8c0-1,0.3-1.8,0.9-2.4s1.3-0.8,2.2-0.8
			c1,0,1.7,0.3,2.3,0.8s0.8,1.2,0.8,2.1c0,0.7-0.2,1.3-0.5,1.9c-0.4,0.6-0.8,1.2-1.2,1.6c-0.5,0.5-1.1,1-1.8,1.6h3.8v1.5h-6.4v-1.4
			L1068.3,3148.6z"/>
		<path class="st6" d="M1076,3142.2c0.5-0.8,1.4-1.3,2.7-1.3c1.3,0,2.2,0.4,2.7,1.3s0.8,2,0.8,3.5c0,1.5-0.3,2.7-0.8,3.5
			c-0.5,0.9-1.4,1.3-2.7,1.3c-1.3,0-2.2-0.4-2.7-1.3c-0.5-0.9-0.8-2-0.8-3.5C1075.2,3144.2,1075.4,3143.1,1076,3142.2z
			 M1080.3,3144.1c-0.1-0.4-0.2-0.8-0.5-1.1s-0.6-0.4-1.1-0.4c-0.5,0-0.9,0.1-1.1,0.4s-0.4,0.6-0.5,1.1s-0.1,1-0.1,1.6
			c0,0.7,0,1.2,0.1,1.7s0.2,0.8,0.5,1.1c0.3,0.3,0.6,0.4,1.1,0.4c0.5,0,0.9-0.1,1.1-0.4c0.3-0.3,0.4-0.6,0.5-1.1
			c0.1-0.4,0.1-1,0.1-1.7C1080.4,3145.1,1080.3,3144.6,1080.3,3144.1z"/>
	</g>
	<g id="그룹_5351" transform="translate(10 -19.548)">
		<g class="st0">
			<path class="st7" d="M843.3,2985.7c1.2-1,2.1-1.8,2.7-2.5c0.7-0.6,1.2-1.3,1.7-2s0.7-1.4,0.7-2.1c0-0.7-0.2-1.3-0.5-1.7
				c-0.3-0.4-0.9-0.6-1.6-0.6c-0.7,0-1.3,0.2-1.6,0.7c-0.4,0.4-0.6,1.1-0.6,1.8h-2c0-1.4,0.4-2.4,1.2-3.1c0.8-0.7,1.8-1.1,3-1.1
				c1.3,0,2.3,0.4,3.1,1.1c0.7,0.7,1.1,1.7,1.1,2.9c0,0.9-0.2,1.7-0.7,2.5c-0.4,0.8-1,1.5-1.6,2.1s-1.4,1.4-2.3,2.2l-0.8,0.7h5.7
				v1.7H842v-1.5L843.3,2985.7z"/>
			<path class="st7" d="M855.1,2986l-2.2,5h-1.3l1.3-5H855.1z"/>
			<path class="st7" d="M862.9,2977.2c-0.3-0.3-0.8-0.4-1.5-0.4c-0.9,0-1.7,0.4-2.1,1.1c-0.5,0.7-0.7,1.9-0.7,3.6
				c0.3-0.5,0.8-0.9,1.4-1.2s1.2-0.4,1.9-0.4c0.8,0,1.5,0.2,2.1,0.5c0.6,0.3,1.1,0.8,1.4,1.5c0.3,0.6,0.5,1.4,0.5,2.3
				c0,0.8-0.2,1.6-0.5,2.2s-0.8,1.2-1.5,1.6s-1.4,0.6-2.3,0.6c-1.2,0-2.2-0.3-2.9-0.8c-0.7-0.5-1.2-1.3-1.5-2.3s-0.4-2.2-0.4-3.7
				c0-4.4,1.5-6.6,4.6-6.6c1.2,0,2.1,0.3,2.8,1c0.7,0.6,1.1,1.4,1.2,2.4h-1.9C863.5,2977.8,863.3,2977.4,862.9,2977.2z
				 M859.6,2982.2c-0.5,0.4-0.8,1.1-0.8,1.9s0.2,1.5,0.7,2c0.5,0.5,1.1,0.7,2,0.7c0.8,0,1.4-0.2,1.8-0.7s0.7-1.1,0.7-1.9
				c0-0.8-0.2-1.5-0.6-2c-0.4-0.5-1.1-0.7-1.9-0.7C860.7,2981.5,860.1,2981.7,859.6,2982.2z"/>
			<path class="st7" d="M874.5,2977.2c-0.3-0.3-0.8-0.4-1.5-0.4c-0.9,0-1.7,0.4-2.1,1.1c-0.5,0.7-0.7,1.9-0.7,3.6
				c0.3-0.5,0.8-0.9,1.4-1.2s1.2-0.4,1.9-0.4c0.8,0,1.5,0.2,2.1,0.5c0.6,0.3,1.1,0.8,1.4,1.5c0.3,0.6,0.5,1.4,0.5,2.3
				c0,0.8-0.2,1.6-0.5,2.2s-0.8,1.2-1.5,1.6s-1.4,0.6-2.3,0.6c-1.2,0-2.2-0.3-2.9-0.8c-0.7-0.5-1.2-1.3-1.5-2.3s-0.4-2.2-0.4-3.7
				c0-4.4,1.5-6.6,4.6-6.6c1.2,0,2.1,0.3,2.8,1c0.7,0.6,1.1,1.4,1.2,2.4h-1.9C875.1,2977.8,874.8,2977.4,874.5,2977.2z
				 M871.2,2982.2c-0.5,0.4-0.8,1.1-0.8,1.9s0.2,1.5,0.7,2c0.5,0.5,1.1,0.7,2,0.7c0.8,0,1.4-0.2,1.8-0.7s0.7-1.1,0.7-1.9
				c0-0.8-0.2-1.5-0.6-2c-0.4-0.5-1.1-0.7-1.9-0.7C872.3,2981.5,871.7,2981.7,871.2,2982.2z"/>
			<path class="st7" d="M879.4,2977.2v-1.9h3.7v13.1h-2.1v-11.2H879.4z"/>
		</g>
	</g>
	<g id="그룹_5350" transform="translate(0.236 -102.457)">
		<g class="st0">
			<path class="st7" d="M950,3008.3c0.8-0.6,1.8-0.9,3-0.9c0.8,0,1.6,0.2,2.2,0.5c0.6,0.3,1.1,0.7,1.4,1.2c0.3,0.5,0.5,1.1,0.5,1.7
				c0,0.7-0.2,1.4-0.6,1.9c-0.4,0.5-0.9,0.9-1.4,1.1v0.1c0.7,0.2,1.3,0.6,1.7,1.2c0.4,0.6,0.6,1.3,0.6,2.2c0,0.7-0.2,1.3-0.5,1.9
				s-0.8,1-1.4,1.3c-0.6,0.3-1.4,0.5-2.3,0.5c-1.3,0-2.4-0.3-3.2-1c-0.8-0.7-1.3-1.6-1.3-2.9h2c0,0.6,0.3,1.2,0.7,1.6
				c0.4,0.4,1,0.6,1.8,0.6c0.7,0,1.3-0.2,1.7-0.6c0.4-0.4,0.6-0.9,0.6-1.6c0-0.8-0.3-1.4-0.8-1.8c-0.5-0.4-1.4-0.5-2.5-0.5h-0.5
				v-1.7h0.5c1,0,1.7-0.2,2.2-0.5s0.8-0.8,0.8-1.5c0-0.6-0.2-1-0.6-1.4c-0.4-0.3-0.9-0.5-1.6-0.5c-0.7,0-1.2,0.2-1.6,0.5
				c-0.4,0.3-0.6,0.8-0.7,1.3h-2C948.8,3009.8,949.2,3008.9,950,3008.3z"/>
			<path class="st7" d="M961.9,3018.3l-2.2,5h-1.3l1.3-5H961.9z"/>
			<path class="st7" d="M963.2,3018v-1.5l6-8.7h2.5v8.4h1.7v1.8h-1.7v2.7h-2v-2.7H963.2z M969.8,3009.9l-4.2,6.4h4.2V3009.9z"/>
			<path class="st7" d="M974.8,3009.5v-1.9h3.7v13.1h-2.1v-11.2H974.8z"/>
			<path class="st7" d="M982.5,3009.2c0.7-1.2,1.9-1.8,3.6-1.8c1.7,0,2.9,0.6,3.6,1.8c0.7,1.2,1.1,2.8,1.1,4.9
				c0,2.1-0.4,3.7-1.1,4.9c-0.7,1.2-1.9,1.8-3.6,1.8c-1.7,0-2.9-0.6-3.6-1.8c-0.7-1.2-1.1-2.8-1.1-4.9
				C981.4,3012,981.8,3010.3,982.5,3009.2z M988.6,3011.6c-0.1-0.7-0.4-1.2-0.8-1.6c-0.4-0.4-1-0.6-1.7-0.6c-0.8,0-1.3,0.2-1.7,0.6
				c-0.4,0.4-0.6,1-0.8,1.6c-0.1,0.7-0.2,1.5-0.2,2.5c0,1,0.1,1.9,0.2,2.5c0.1,0.7,0.4,1.2,0.8,1.7c0.4,0.4,1,0.6,1.7,0.6
				c0.8,0,1.3-0.2,1.7-0.6c0.4-0.4,0.6-1,0.8-1.7c0.1-0.7,0.2-1.5,0.2-2.5C988.8,3013.1,988.7,3012.2,988.6,3011.6z"/>
		</g>
	</g>
	<g id="그룹_5352" transform="translate(-10.707 5.485)">
		<g class="st0">
			<path class="st1" d="M1057.4,3044.7v-1.9h3.7v13.1h-2.1v-11.2H1057.4z"/>
			<path class="st1" d="M1066.5,3053.4l-2.2,5h-1.3l1.3-5H1066.5z"/>
			<path class="st1" d="M1069.1,3053.1c1.2-1,2.1-1.8,2.7-2.5c0.7-0.6,1.2-1.3,1.7-2s0.7-1.4,0.7-2.1c0-0.7-0.2-1.3-0.5-1.7
				c-0.3-0.4-0.9-0.6-1.6-0.6c-0.7,0-1.3,0.2-1.6,0.7c-0.4,0.4-0.6,1.1-0.6,1.8h-2c0-1.4,0.4-2.4,1.2-3.1c0.8-0.7,1.8-1.1,3-1.1
				c1.3,0,2.3,0.4,3.1,1.1c0.7,0.7,1.1,1.7,1.1,2.9c0,0.9-0.2,1.7-0.7,2.5c-0.4,0.8-1,1.5-1.6,2.1s-1.4,1.4-2.3,2.2l-0.8,0.7h5.7
				v1.7h-8.7v-1.5L1069.1,3053.1z"/>
			<path class="st1" d="M1081.7,3053.7c0.4,0.3,0.9,0.5,1.6,0.5c0.9,0,1.5-0.3,1.9-1c0.4-0.7,0.6-1.8,0.6-3.4
				c-0.3,0.4-0.7,0.7-1.2,0.9c-0.5,0.2-1.1,0.3-1.7,0.3c-0.8,0-1.5-0.2-2.1-0.5c-0.6-0.3-1.1-0.8-1.5-1.4c-0.4-0.6-0.5-1.4-0.5-2.3
				c0-1.3,0.4-2.4,1.2-3.2s1.8-1.2,3.2-1.2c1.6,0,2.8,0.5,3.5,1.6c0.7,1.1,1,2.8,1,5c0,1.5-0.1,2.8-0.4,3.8c-0.3,1-0.7,1.7-1.3,2.2
				c-0.6,0.5-1.5,0.8-2.6,0.8c-1.3,0-2.3-0.3-3-1c-0.7-0.7-1.1-1.5-1.2-2.5h1.9C1081.1,3052.9,1081.3,3053.4,1081.7,3053.7z
				 M1084.9,3048.6c0.4-0.5,0.6-1,0.6-1.8c0-0.8-0.2-1.5-0.7-1.9c-0.4-0.5-1-0.7-1.8-0.7s-1.4,0.2-1.8,0.7s-0.7,1.1-0.7,1.9
				c0,0.7,0.2,1.3,0.6,1.8c0.4,0.5,1.1,0.7,1.9,0.7C1084,3049.3,1084.5,3049.1,1084.9,3048.6z"/>
			<path class="st1" d="M1098.1,3044.4l-5,11.5h-2.1l5.1-11.3h-6.7v-1.7h8.7V3044.4z"/>
		</g>
	</g>
	<path id="패스_3033-2" class="st4" d="M1303,3164.4h60v-206.7h-60V3164.4z"/>
	<path id="패스_3034-2" class="st4" d="M1400,3164.4h60v-208.6h-60V3164.4z"/>
	<path id="패스_3035-2" class="st1" d="M1497,3164.5h60v-37.1h-60V3164.5z"/>
	<g class="st0">
		<path class="st5" d="M1320.3,3148.6c0.8-0.7,1.5-1.3,2-1.8c0.5-0.5,0.9-0.9,1.2-1.5c0.3-0.5,0.5-1,0.5-1.5c0-0.5-0.1-0.9-0.4-1.2
			s-0.6-0.4-1.2-0.4c-0.5,0-0.9,0.2-1.2,0.5c-0.3,0.3-0.4,0.8-0.4,1.3h-1.4c0-1,0.3-1.7,0.9-2.3s1.3-0.8,2.2-0.8
			c0.9,0,1.7,0.3,2.2,0.8c0.5,0.5,0.8,1.2,0.8,2.1c0,0.6-0.2,1.2-0.5,1.8c-0.3,0.6-0.7,1.1-1.1,1.5s-1,1-1.7,1.6l-0.6,0.5h4.1v1.2
			h-6.3v-1.1L1320.3,3148.6z"/>
		<path class="st5" d="M1327.7,3142.2c0.5-0.8,1.4-1.3,2.6-1.3c1.2,0,2.1,0.4,2.6,1.3c0.5,0.8,0.8,2,0.8,3.5c0,1.5-0.3,2.7-0.8,3.6
			s-1.4,1.3-2.6,1.3c-1.2,0-2.1-0.4-2.6-1.3s-0.8-2-0.8-3.6C1326.9,3144.2,1327.2,3143.1,1327.7,3142.2z M1332.1,3144
			c-0.1-0.5-0.3-0.9-0.6-1.2s-0.7-0.5-1.2-0.5c-0.5,0-1,0.2-1.2,0.5s-0.5,0.7-0.6,1.2s-0.1,1.1-0.1,1.8c0,0.7,0,1.3,0.1,1.8
			c0.1,0.5,0.3,0.9,0.6,1.2c0.3,0.3,0.7,0.5,1.2,0.5c0.5,0,1-0.2,1.2-0.5c0.3-0.3,0.5-0.7,0.6-1.2c0.1-0.5,0.1-1.1,0.1-1.8
			C1332.2,3145,1332.2,3144.5,1332.1,3144z"/>
		<path class="st5" d="M1335.1,3142.5v-1.4h2.7v9.5h-1.5v-8.1H1335.1z"/>
		<path class="st5" d="M1340.1,3143.5c0-0.5,0.1-0.9,0.4-1.3c0.2-0.4,0.6-0.7,1.1-0.9c0.5-0.2,1-0.3,1.7-0.3c0.7,0,1.2,0.1,1.7,0.3
			c0.5,0.2,0.8,0.5,1.1,0.9c0.2,0.4,0.4,0.8,0.4,1.3c0,0.5-0.1,0.9-0.4,1.3c-0.2,0.4-0.6,0.7-1,0.9c0.5,0.2,0.9,0.5,1.2,0.9
			c0.3,0.4,0.4,0.9,0.4,1.4c0,0.6-0.1,1.1-0.4,1.5c-0.3,0.4-0.7,0.8-1.2,1c-0.5,0.2-1.1,0.4-1.7,0.4c-0.6,0-1.2-0.1-1.7-0.4
			c-0.5-0.2-0.9-0.6-1.2-1c-0.3-0.4-0.4-0.9-0.4-1.5c0-0.6,0.1-1,0.4-1.5c0.3-0.4,0.7-0.7,1.2-0.9
			C1340.5,3145.2,1340.1,3144.5,1340.1,3143.5z M1341.8,3146.7c-0.4,0.3-0.5,0.7-0.5,1.2c0,0.5,0.2,0.9,0.5,1.2
			c0.3,0.3,0.8,0.5,1.4,0.5c0.6,0,1.1-0.2,1.4-0.5c0.3-0.3,0.5-0.7,0.5-1.2c0-0.5-0.2-0.9-0.5-1.2s-0.8-0.4-1.4-0.4
			C1342.6,3146.3,1342.2,3146.4,1341.8,3146.7z M1344.4,3142.6c-0.3-0.3-0.7-0.4-1.2-0.4c-0.5,0-0.9,0.1-1.2,0.4
			c-0.3,0.3-0.5,0.6-0.5,1.1c0,0.4,0.2,0.8,0.5,1.1c0.3,0.3,0.7,0.4,1.2,0.4s0.9-0.1,1.2-0.4c0.3-0.3,0.5-0.6,0.5-1.1
			C1344.9,3143.2,1344.7,3142.8,1344.4,3142.6z"/>
	</g>
	<g class="st0">
		<path class="st5" d="M1417.3,3148.6c0.8-0.7,1.5-1.3,2-1.8c0.5-0.5,0.9-0.9,1.2-1.5c0.3-0.5,0.5-1,0.5-1.5c0-0.5-0.1-0.9-0.4-1.2
			s-0.6-0.4-1.2-0.4c-0.5,0-0.9,0.2-1.2,0.5c-0.3,0.3-0.4,0.8-0.4,1.3h-1.4c0-1,0.3-1.7,0.9-2.3c0.6-0.5,1.3-0.8,2.2-0.8
			c0.9,0,1.7,0.3,2.2,0.8c0.5,0.5,0.8,1.2,0.8,2.1c0,0.6-0.2,1.2-0.5,1.8c-0.3,0.6-0.7,1.1-1.1,1.5c-0.4,0.5-1,1-1.7,1.6l-0.6,0.5
			h4.1v1.2h-6.3v-1.1L1417.3,3148.6z"/>
		<path class="st5" d="M1424.7,3142.2c0.5-0.8,1.4-1.3,2.6-1.3s2.1,0.4,2.6,1.3c0.5,0.8,0.8,2,0.8,3.5c0,1.5-0.3,2.7-0.8,3.6
			c-0.5,0.9-1.4,1.3-2.6,1.3s-2.1-0.4-2.6-1.3s-0.8-2-0.8-3.6C1424,3144.2,1424.2,3143.1,1424.7,3142.2z M1429.1,3144
			c-0.1-0.5-0.3-0.9-0.6-1.2s-0.7-0.5-1.2-0.5s-1,0.2-1.2,0.5s-0.5,0.7-0.6,1.2s-0.1,1.1-0.1,1.8c0,0.7,0,1.3,0.1,1.8
			s0.3,0.9,0.6,1.2c0.3,0.3,0.7,0.5,1.2,0.5s1-0.2,1.2-0.5c0.3-0.3,0.5-0.7,0.6-1.2s0.1-1.1,0.1-1.8
			C1429.3,3145,1429.2,3144.5,1429.1,3144z"/>
		<path class="st5" d="M1432.1,3142.5v-1.4h2.7v9.5h-1.5v-8.1H1432.1z"/>
		<path class="st5" d="M1439.2,3149c0.3,0.2,0.7,0.3,1.2,0.3c0.6,0,1.1-0.2,1.4-0.7s0.4-1.3,0.4-2.5c-0.2,0.3-0.5,0.5-0.9,0.7
			s-0.8,0.2-1.2,0.2c-0.6,0-1.1-0.1-1.5-0.3c-0.5-0.2-0.8-0.6-1.1-1s-0.4-1-0.4-1.7c0-1,0.3-1.7,0.8-2.3c0.6-0.6,1.3-0.9,2.3-0.9
			c1.2,0,2,0.4,2.5,1.2c0.5,0.8,0.7,2,0.7,3.6c0,1.1-0.1,2-0.3,2.7s-0.5,1.2-1,1.6c-0.5,0.4-1.1,0.5-1.9,0.5c-0.9,0-1.6-0.2-2.1-0.7
			c-0.5-0.5-0.8-1.1-0.8-1.8h1.4C1438.8,3148.5,1439,3148.8,1439.2,3149z M1441.6,3145.3c0.3-0.3,0.4-0.8,0.4-1.3
			c0-0.6-0.2-1.1-0.5-1.4c-0.3-0.3-0.7-0.5-1.3-0.5s-1,0.2-1.3,0.5c-0.3,0.3-0.5,0.8-0.5,1.3c0,0.5,0.2,1,0.5,1.3
			c0.3,0.3,0.8,0.5,1.4,0.5C1440.9,3145.8,1441.3,3145.7,1441.6,3145.3z"/>
	</g>
	<g class="st0">
		<path class="st6" d="M1512.4,3148.6c0.8-0.7,1.5-1.3,2-1.7c0.5-0.5,0.9-0.9,1.2-1.5c0.3-0.5,0.5-1,0.5-1.5c0-0.4-0.1-0.8-0.3-1
			c-0.2-0.3-0.5-0.4-1-0.4s-0.8,0.1-1,0.4c-0.2,0.3-0.4,0.7-0.4,1.2h-1.8c0-1,0.3-1.8,0.9-2.4s1.3-0.8,2.2-0.8c1,0,1.7,0.3,2.3,0.8
			c0.5,0.5,0.8,1.2,0.8,2.1c0,0.7-0.2,1.3-0.5,1.9c-0.4,0.6-0.8,1.2-1.2,1.6c-0.5,0.5-1.1,1-1.8,1.6h3.8v1.5h-6.4v-1.4
			L1512.4,3148.6z"/>
		<path class="st6" d="M1520.1,3142.2c0.5-0.8,1.4-1.3,2.7-1.3s2.2,0.4,2.7,1.3c0.5,0.8,0.8,2,0.8,3.5c0,1.5-0.3,2.7-0.8,3.5
			c-0.5,0.9-1.4,1.3-2.7,1.3s-2.2-0.4-2.7-1.3c-0.5-0.9-0.8-2-0.8-3.5C1519.3,3144.2,1519.6,3143.1,1520.1,3142.2z M1524.4,3144.1
			c-0.1-0.4-0.2-0.8-0.5-1.1s-0.6-0.4-1.1-0.4s-0.9,0.1-1.1,0.4s-0.4,0.6-0.5,1.1c-0.1,0.4-0.1,1-0.1,1.6c0,0.7,0,1.2,0.1,1.7
			s0.2,0.8,0.5,1.1c0.3,0.3,0.6,0.4,1.1,0.4s0.9-0.1,1.1-0.4c0.3-0.3,0.4-0.6,0.5-1.1c0.1-0.4,0.1-1,0.1-1.7
			C1524.5,3145.1,1524.5,3144.6,1524.4,3144.1z"/>
		<path class="st6" d="M1528.3,3148.6c0.8-0.7,1.5-1.3,2-1.7c0.5-0.5,0.9-0.9,1.2-1.5c0.3-0.5,0.5-1,0.5-1.5c0-0.4-0.1-0.8-0.3-1
			c-0.2-0.3-0.5-0.4-1-0.4c-0.4,0-0.8,0.1-1,0.4c-0.2,0.3-0.4,0.7-0.4,1.2h-1.8c0-1,0.3-1.8,0.9-2.4s1.3-0.8,2.2-0.8
			c1,0,1.7,0.3,2.3,0.8c0.5,0.5,0.8,1.2,0.8,2.1c0,0.7-0.2,1.3-0.5,1.9s-0.8,1.2-1.2,1.6s-1.1,1-1.8,1.6h3.8v1.5h-6.4v-1.4
			L1528.3,3148.6z"/>
		<path class="st6" d="M1536,3142.2c0.5-0.8,1.4-1.3,2.7-1.3c1.3,0,2.2,0.4,2.7,1.3c0.5,0.8,0.8,2,0.8,3.5c0,1.5-0.3,2.7-0.8,3.5
			c-0.5,0.9-1.4,1.3-2.7,1.3c-1.3,0-2.2-0.4-2.7-1.3c-0.5-0.9-0.8-2-0.8-3.5C1535.2,3144.2,1535.4,3143.1,1536,3142.2z
			 M1540.3,3144.1c-0.1-0.4-0.2-0.8-0.5-1.1s-0.6-0.4-1.1-0.4c-0.5,0-0.9,0.1-1.1,0.4s-0.4,0.6-0.5,1.1c-0.1,0.4-0.1,1-0.1,1.6
			c0,0.7,0,1.2,0.1,1.7s0.2,0.8,0.5,1.1c0.3,0.3,0.6,0.4,1.1,0.4c0.5,0,0.9-0.1,1.1-0.4c0.3-0.3,0.4-0.6,0.5-1.1s0.1-1,0.1-1.7
			C1540.4,3145.1,1540.3,3144.6,1540.3,3144.1z"/>
	</g>
	<g id="그룹_5351-2" transform="translate(470 -46.766)">
		<g class="st0">
			<path class="st7" d="M828.3,2985.7v-1.5l6-8.7h2.5v8.4h1.7v1.8h-1.7v2.7h-2v-2.7H828.3z M835,2977.6l-4.2,6.4h4.2V2977.6z"/>
			<path class="st7" d="M841.5,2976c0.8-0.6,1.8-0.9,3-0.9c0.8,0,1.6,0.2,2.2,0.5c0.6,0.3,1.1,0.7,1.4,1.2c0.3,0.5,0.5,1.1,0.5,1.7
				c0,0.7-0.2,1.4-0.6,1.9c-0.4,0.5-0.9,0.9-1.4,1.1v0.1c0.7,0.2,1.3,0.6,1.7,1.2c0.4,0.6,0.6,1.3,0.6,2.2c0,0.7-0.2,1.3-0.5,1.9
				s-0.8,1-1.4,1.3c-0.6,0.3-1.4,0.5-2.3,0.5c-1.3,0-2.4-0.3-3.2-1s-1.3-1.6-1.3-2.9h2c0,0.6,0.3,1.2,0.7,1.6c0.4,0.4,1,0.6,1.8,0.6
				c0.7,0,1.3-0.2,1.7-0.6c0.4-0.4,0.6-0.9,0.6-1.6c0-0.8-0.3-1.4-0.8-1.8c-0.5-0.4-1.4-0.5-2.5-0.5h-0.5v-1.7h0.5
				c1,0,1.7-0.2,2.2-0.5c0.5-0.3,0.8-0.8,0.8-1.5c0-0.6-0.2-1-0.6-1.4c-0.4-0.3-0.9-0.5-1.6-0.5c-0.7,0-1.2,0.2-1.6,0.5
				c-0.4,0.3-0.6,0.8-0.7,1.3h-2C840.3,2977.5,840.7,2976.6,841.5,2976z"/>
			<path class="st7" d="M859.4,2977.1h-6v3.6c0.3-0.3,0.6-0.6,1.1-0.8c0.5-0.2,1-0.3,1.6-0.3c1,0,1.8,0.2,2.5,0.6
				c0.6,0.4,1.1,1,1.3,1.6c0.3,0.7,0.4,1.4,0.4,2.1c0,0.9-0.2,1.7-0.5,2.4c-0.3,0.7-0.9,1.2-1.5,1.6c-0.7,0.4-1.5,0.6-2.5,0.6
				c-1.3,0-2.4-0.3-3.2-1c-0.8-0.6-1.3-1.5-1.4-2.6h2c0.1,0.6,0.4,1,0.9,1.3c0.5,0.3,1,0.5,1.7,0.5c0.9,0,1.5-0.3,1.9-0.8
				c0.4-0.5,0.6-1.2,0.6-2.1c0-0.9-0.2-1.5-0.6-2c-0.4-0.5-1.1-0.7-1.9-0.7c-0.6,0-1.1,0.1-1.5,0.4c-0.4,0.3-0.7,0.7-0.9,1.2h-1.9
				v-7.6h7.9V2977.1z"/>
			<path class="st7" d="M865,2986l-2.2,5h-1.3l1.3-5H865z"/>
			<path class="st7" d="M872.8,2977.2c-0.3-0.3-0.8-0.4-1.5-0.4c-0.9,0-1.7,0.4-2.1,1.1c-0.5,0.7-0.7,1.9-0.7,3.6
				c0.3-0.5,0.8-0.9,1.4-1.2s1.2-0.4,1.9-0.4c0.8,0,1.5,0.2,2.1,0.5c0.6,0.3,1.1,0.8,1.4,1.5c0.3,0.6,0.5,1.4,0.5,2.3
				c0,0.8-0.2,1.6-0.5,2.2s-0.8,1.2-1.5,1.6c-0.6,0.4-1.4,0.6-2.3,0.6c-1.2,0-2.2-0.3-2.9-0.8c-0.7-0.5-1.2-1.3-1.5-2.3
				s-0.4-2.2-0.4-3.7c0-4.4,1.5-6.6,4.6-6.6c1.2,0,2.1,0.3,2.8,1c0.7,0.6,1.1,1.4,1.2,2.4h-1.9
				C873.4,2977.8,873.2,2977.4,872.8,2977.2z M869.5,2982.2c-0.5,0.4-0.8,1.1-0.8,1.9s0.2,1.5,0.7,2c0.5,0.5,1.1,0.7,2,0.7
				c0.8,0,1.4-0.2,1.8-0.7c0.4-0.5,0.7-1.1,0.7-1.9c0-0.8-0.2-1.5-0.6-2c-0.4-0.5-1.1-0.7-1.9-0.7
				C870.6,2981.5,870,2981.7,869.5,2982.2z"/>
			<path class="st7" d="M886.4,2976.9l-5,11.5h-2.1l5.1-11.3h-6.7v-1.7h8.7V2976.9z"/>
			<path class="st7" d="M891.5,2986.3c0.4,0.3,0.9,0.5,1.6,0.5c0.9,0,1.5-0.3,1.9-1c0.4-0.7,0.6-1.8,0.6-3.4
				c-0.3,0.4-0.7,0.7-1.2,0.9c-0.5,0.2-1.1,0.3-1.7,0.3c-0.8,0-1.5-0.2-2.1-0.5c-0.6-0.3-1.1-0.8-1.5-1.4c-0.4-0.6-0.5-1.4-0.5-2.3
				c0-1.3,0.4-2.4,1.2-3.2c0.8-0.8,1.8-1.2,3.2-1.2c1.6,0,2.8,0.5,3.5,1.6s1,2.8,1,5c0,1.5-0.1,2.8-0.4,3.8s-0.7,1.7-1.3,2.2
				c-0.6,0.5-1.5,0.8-2.6,0.8c-1.3,0-2.3-0.3-3-1c-0.7-0.7-1.1-1.5-1.2-2.5h1.9C890.8,2985.5,891.1,2986,891.5,2986.3z
				 M894.7,2981.2c0.4-0.5,0.6-1,0.6-1.8c0-0.8-0.2-1.5-0.7-1.9c-0.4-0.5-1-0.7-1.8-0.7s-1.4,0.2-1.8,0.7c-0.4,0.5-0.7,1.1-0.7,1.9
				c0,0.7,0.2,1.3,0.6,1.8c0.4,0.5,1.1,0.7,1.9,0.7C893.7,2981.9,894.3,2981.6,894.7,2981.2z"/>
		</g>
	</g>
	<g id="그룹_5350-2" transform="translate(460.236 -80.972)">
		<g class="st0">
			<path class="st7" d="M934.4,3018v-1.5l6-8.7h2.5v8.4h1.7v1.8h-1.7v2.7h-2v-2.7H934.4z M941,3009.9l-4.2,6.4h4.2V3009.9z"/>
			<path class="st7" d="M947.5,3008.3c0.8-0.6,1.8-0.9,3-0.9c0.8,0,1.6,0.2,2.2,0.5c0.6,0.3,1.1,0.7,1.4,1.2
				c0.3,0.5,0.5,1.1,0.5,1.7c0,0.7-0.2,1.4-0.6,1.9c-0.4,0.5-0.9,0.9-1.4,1.1v0.1c0.7,0.2,1.3,0.6,1.7,1.2c0.4,0.6,0.6,1.3,0.6,2.2
				c0,0.7-0.2,1.3-0.5,1.9s-0.8,1-1.4,1.3c-0.6,0.3-1.4,0.5-2.3,0.5c-1.3,0-2.4-0.3-3.2-1c-0.8-0.7-1.3-1.6-1.3-2.9h2
				c0,0.6,0.3,1.2,0.7,1.6c0.4,0.4,1,0.6,1.8,0.6c0.7,0,1.3-0.2,1.7-0.6c0.4-0.4,0.6-0.9,0.6-1.6c0-0.8-0.3-1.4-0.8-1.8
				c-0.5-0.4-1.4-0.5-2.5-0.5h-0.5v-1.7h0.5c1,0,1.7-0.2,2.2-0.5s0.8-0.8,0.8-1.5c0-0.6-0.2-1-0.6-1.4c-0.4-0.3-0.9-0.5-1.6-0.5
				c-0.7,0-1.2,0.2-1.6,0.5c-0.4,0.3-0.6,0.8-0.7,1.3h-2C946.3,3009.8,946.7,3008.9,947.5,3008.3z"/>
			<path class="st7" d="M960.3,3018.6c0.4,0.3,0.9,0.5,1.6,0.5c0.9,0,1.5-0.3,1.9-1c0.4-0.7,0.6-1.8,0.6-3.4
				c-0.3,0.4-0.7,0.7-1.2,0.9c-0.5,0.2-1.1,0.3-1.7,0.3c-0.8,0-1.5-0.2-2.1-0.5c-0.6-0.3-1.1-0.8-1.5-1.4c-0.4-0.6-0.5-1.4-0.5-2.3
				c0-1.3,0.4-2.4,1.2-3.2s1.8-1.2,3.2-1.2c1.6,0,2.8,0.5,3.5,1.6c0.7,1.1,1,2.8,1,5c0,1.5-0.1,2.8-0.4,3.8s-0.7,1.7-1.3,2.2
				c-0.6,0.5-1.5,0.8-2.6,0.8c-1.3,0-2.3-0.3-3-1c-0.7-0.7-1.1-1.5-1.2-2.5h1.9C959.7,3017.8,959.9,3018.3,960.3,3018.6z
				 M963.5,3013.5c0.4-0.5,0.6-1,0.6-1.8c0-0.8-0.2-1.5-0.7-1.9c-0.4-0.5-1-0.7-1.8-0.7s-1.4,0.2-1.8,0.7s-0.7,1.1-0.7,1.9
				c0,0.7,0.2,1.3,0.6,1.8c0.4,0.5,1.1,0.7,1.9,0.7C962.5,3014.1,963.1,3013.9,963.5,3013.5z"/>
			<path class="st7" d="M970.9,3018.3l-2.2,5h-1.3l1.3-5H970.9z"/>
			<path class="st7" d="M980.9,3009.4h-6v3.6c0.3-0.3,0.6-0.6,1.1-0.8c0.5-0.2,1-0.3,1.6-0.3c1,0,1.8,0.2,2.5,0.6
				c0.6,0.4,1.1,1,1.4,1.6s0.4,1.4,0.4,2.1c0,0.9-0.2,1.7-0.5,2.4c-0.3,0.7-0.9,1.2-1.5,1.6c-0.7,0.4-1.5,0.6-2.5,0.6
				c-1.3,0-2.4-0.3-3.1-1c-0.8-0.6-1.3-1.5-1.4-2.6h2c0.1,0.6,0.4,1,0.9,1.3s1,0.5,1.7,0.5c0.9,0,1.5-0.3,1.9-0.8
				c0.4-0.5,0.6-1.2,0.6-2.1c0-0.9-0.2-1.5-0.6-2c-0.4-0.5-1.1-0.7-1.9-0.7c-0.6,0-1.1,0.1-1.5,0.4c-0.4,0.3-0.7,0.7-0.9,1.2H973
				v-7.6h7.9V3009.4z"/>
			<path class="st7" d="M985,3009.2c0.7-1.2,1.9-1.8,3.6-1.8s2.9,0.6,3.6,1.8c0.7,1.2,1.1,2.8,1.1,4.9c0,2.1-0.4,3.7-1.1,4.9
				c-0.7,1.2-1.9,1.8-3.6,1.8s-2.9-0.6-3.6-1.8c-0.7-1.2-1.1-2.8-1.1-4.9C984,3012,984.3,3010.3,985,3009.2z M991.1,3011.6
				c-0.1-0.7-0.4-1.2-0.8-1.6c-0.4-0.4-1-0.6-1.7-0.6c-0.8,0-1.3,0.2-1.7,0.6c-0.4,0.4-0.6,1-0.8,1.6c-0.1,0.7-0.2,1.5-0.2,2.5
				c0,1,0.1,1.9,0.2,2.5c0.1,0.7,0.4,1.2,0.8,1.7s1,0.6,1.7,0.6c0.8,0,1.3-0.2,1.7-0.6c0.4-0.4,0.6-1,0.8-1.7
				c0.1-0.7,0.2-1.5,0.2-2.5C991.3,3013.1,991.2,3012.2,991.1,3011.6z"/>
			<path class="st7" d="M1001.8,3009.4c-0.3-0.3-0.8-0.4-1.5-0.4c-0.9,0-1.7,0.4-2.1,1.1c-0.5,0.7-0.7,1.9-0.7,3.6
				c0.3-0.5,0.8-0.9,1.4-1.2c0.6-0.3,1.2-0.4,1.9-0.4c0.8,0,1.5,0.2,2.1,0.5c0.6,0.3,1.1,0.8,1.4,1.5c0.3,0.6,0.5,1.4,0.5,2.3
				c0,0.8-0.2,1.6-0.5,2.2s-0.8,1.2-1.5,1.6s-1.4,0.6-2.3,0.6c-1.2,0-2.2-0.3-2.9-0.8c-0.7-0.5-1.2-1.3-1.5-2.3
				c-0.3-1-0.4-2.2-0.4-3.7c0-4.4,1.5-6.6,4.6-6.6c1.2,0,2.1,0.3,2.8,1c0.7,0.6,1.1,1.4,1.2,2.4h-1.9
				C1002.4,3010.1,1002.2,3009.7,1001.8,3009.4z M998.5,3014.5c-0.5,0.4-0.8,1.1-0.8,1.9s0.2,1.5,0.7,2c0.5,0.5,1.1,0.7,2,0.7
				c0.8,0,1.4-0.2,1.8-0.7s0.7-1.1,0.7-1.9c0-0.8-0.2-1.5-0.6-2c-0.4-0.5-1.1-0.7-1.9-0.7C999.6,3013.8,999,3014,998.5,3014.5z"/>
		</g>
	</g>
	<g id="그룹_5352-2" transform="translate(449.293 55.478)">
		<g class="st0">
			<path class="st1" d="M1058.6,3044.4l-5,11.5h-2.1l5.1-11.3h-6.7v-1.7h8.7V3044.4z"/>
			<path class="st1" d="M1060.7,3046.1c0-0.6,0.2-1.2,0.5-1.8s0.8-1,1.5-1.3s1.4-0.5,2.4-0.5c0.9,0,1.7,0.2,2.4,0.5
				c0.7,0.3,1.1,0.7,1.5,1.3s0.5,1.1,0.5,1.8c0,0.7-0.2,1.3-0.5,1.8c-0.3,0.5-0.8,0.9-1.4,1.2c0.7,0.3,1.2,0.7,1.6,1.2
				c0.4,0.6,0.6,1.2,0.6,2c0,0.8-0.2,1.5-0.6,2.1c-0.4,0.6-0.9,1.1-1.7,1.4s-1.5,0.5-2.4,0.5s-1.7-0.2-2.4-0.5
				c-0.7-0.3-1.3-0.8-1.6-1.4c-0.4-0.6-0.6-1.3-0.6-2.1c0-0.8,0.2-1.5,0.6-2c0.4-0.6,0.9-1,1.6-1.2
				C1061.3,3048.4,1060.7,3047.4,1060.7,3046.1z M1063.1,3050.5c-0.5,0.4-0.7,1-0.7,1.7c0,0.7,0.2,1.2,0.7,1.7
				c0.5,0.4,1.1,0.6,2,0.6c0.8,0,1.5-0.2,1.9-0.6c0.5-0.4,0.7-1,0.7-1.7c0-0.7-0.2-1.3-0.7-1.7c-0.5-0.4-1.1-0.6-1.9-0.6
				S1063.6,3050.1,1063.1,3050.5z M1066.7,3044.8c-0.4-0.4-1-0.5-1.7-0.5c-0.7,0-1.3,0.2-1.7,0.5c-0.4,0.4-0.6,0.9-0.6,1.6
				c0,0.6,0.2,1.1,0.7,1.5c0.4,0.4,1,0.6,1.7,0.6s1.2-0.2,1.7-0.6c0.4-0.4,0.7-0.9,0.7-1.5
				C1067.3,3045.7,1067.1,3045.2,1066.7,3044.8z"/>
			<path class="st1" d="M1074.3,3053.4l-2.2,5h-1.3l1.3-5H1074.3z"/>
			<path class="st1" d="M1077.1,3043.4c0.8-0.6,1.8-0.9,3-0.9c0.8,0,1.6,0.2,2.2,0.5s1.1,0.7,1.4,1.2c0.3,0.5,0.5,1.1,0.5,1.7
				c0,0.7-0.2,1.4-0.6,1.9c-0.4,0.5-0.9,0.9-1.4,1.1v0.1c0.7,0.2,1.3,0.6,1.7,1.2c0.4,0.6,0.6,1.3,0.6,2.2c0,0.7-0.2,1.3-0.5,1.9
				s-0.8,1-1.4,1.3c-0.6,0.3-1.4,0.5-2.3,0.5c-1.3,0-2.4-0.3-3.2-1s-1.3-1.6-1.3-2.9h2c0,0.6,0.3,1.2,0.7,1.6c0.4,0.4,1,0.6,1.8,0.6
				c0.7,0,1.3-0.2,1.7-0.6c0.4-0.4,0.6-0.9,0.6-1.6c0-0.8-0.3-1.4-0.8-1.8s-1.4-0.5-2.5-0.5h-0.5v-1.7h0.5c1,0,1.7-0.2,2.2-0.5
				c0.5-0.3,0.8-0.8,0.8-1.5c0-0.6-0.2-1-0.6-1.4c-0.4-0.3-0.9-0.5-1.6-0.5c-0.7,0-1.2,0.2-1.6,0.5c-0.4,0.3-0.6,0.8-0.7,1.3h-2
				C1075.9,3044.9,1076.3,3044,1077.1,3043.4z"/>
			<path class="st1" d="M1094.9,3044.4l-5,11.5h-2.1l5.1-11.3h-6.7v-1.7h8.7V3044.4z"/>
			<path class="st1" d="M1097.9,3043.4c0.8-0.6,1.8-0.9,3-0.9c0.8,0,1.6,0.2,2.2,0.5c0.6,0.3,1.1,0.7,1.4,1.2
				c0.3,0.5,0.5,1.1,0.5,1.7c0,0.7-0.2,1.4-0.6,1.9c-0.4,0.5-0.9,0.9-1.4,1.1v0.1c0.7,0.2,1.3,0.6,1.7,1.2c0.4,0.6,0.6,1.3,0.6,2.2
				c0,0.7-0.2,1.3-0.5,1.9s-0.8,1-1.4,1.3c-0.6,0.3-1.4,0.5-2.3,0.5c-1.3,0-2.4-0.3-3.2-1c-0.8-0.7-1.3-1.6-1.3-2.9h2
				c0,0.6,0.3,1.2,0.7,1.6c0.4,0.4,1,0.6,1.8,0.6c0.7,0,1.3-0.2,1.7-0.6c0.4-0.4,0.6-0.9,0.6-1.6c0-0.8-0.3-1.4-0.8-1.8
				c-0.5-0.4-1.4-0.5-2.5-0.5h-0.5v-1.7h0.5c1,0,1.7-0.2,2.2-0.5c0.5-0.3,0.8-0.8,0.8-1.5c0-0.6-0.2-1-0.6-1.4
				c-0.4-0.3-0.9-0.5-1.6-0.5c-0.7,0-1.2,0.2-1.6,0.5c-0.4,0.3-0.6,0.8-0.7,1.3h-2C1096.7,3044.9,1097.1,3044,1097.9,3043.4z"/>
		</g>
	</g>
	<g class="st0">
		<path class="st8" d="M938,2826.7c-0.7-0.3-1.2-0.7-1.6-1.3c-0.4-0.5-0.6-1.2-0.6-1.9h2.2c0,0.5,0.3,1,0.6,1.3
			c0.4,0.3,0.9,0.5,1.6,0.5c0.7,0,1.3-0.2,1.7-0.5s0.6-0.8,0.6-1.3c0-0.4-0.1-0.8-0.4-1c-0.2-0.3-0.6-0.5-0.9-0.6
			c-0.4-0.1-0.9-0.3-1.5-0.5c-0.8-0.2-1.5-0.4-2-0.7c-0.5-0.2-0.9-0.6-1.3-1c-0.4-0.5-0.5-1.1-0.5-1.9c0-0.7,0.2-1.3,0.5-1.9
			c0.4-0.5,0.9-1,1.5-1.2s1.4-0.4,2.2-0.4c1.2,0,2.2,0.3,3,0.9c0.8,0.6,1.2,1.4,1.3,2.5h-2.3c0-0.5-0.3-0.8-0.6-1.2
			c-0.4-0.3-0.9-0.5-1.6-0.5c-0.6,0-1.1,0.2-1.4,0.5c-0.4,0.3-0.6,0.7-0.6,1.3c0,0.4,0.1,0.7,0.4,0.9c0.2,0.2,0.5,0.4,0.9,0.6
			c0.4,0.1,0.9,0.3,1.5,0.5c0.8,0.2,1.5,0.5,2,0.7c0.5,0.2,1,0.6,1.3,1.1c0.4,0.5,0.5,1.1,0.5,1.9c0,0.6-0.2,1.2-0.5,1.8
			c-0.3,0.6-0.8,1-1.5,1.4c-0.7,0.3-1.4,0.5-2.3,0.5C939.5,2827.1,938.7,2827,938,2826.7z"/>
		<path class="st8" d="M947.2,2817.4c0.6-1,1.3-1.7,2.3-2.3s2-0.8,3.2-0.8c1.3,0,2.5,0.3,3.6,1c1,0.7,1.8,1.6,2.3,2.8h-2.5
			c-0.3-0.7-0.8-1.2-1.3-1.5c-0.6-0.3-1.2-0.5-2-0.5c-0.8,0-1.6,0.2-2.2,0.6c-0.6,0.4-1.2,0.9-1.5,1.6s-0.5,1.5-0.5,2.4
			c0,0.9,0.2,1.7,0.5,2.4c0.4,0.7,0.9,1.2,1.5,1.6c0.6,0.4,1.4,0.6,2.2,0.6c0.8,0,1.4-0.2,2-0.5c0.6-0.3,1-0.8,1.3-1.5h2.5
			c-0.5,1.2-1.2,2.1-2.3,2.8c-1,0.6-2.2,1-3.6,1c-1.2,0-2.2-0.3-3.2-0.8s-1.7-1.3-2.3-2.3c-0.6-1-0.9-2.1-0.9-3.3
			C946.4,2819.5,946.7,2818.4,947.2,2817.4z"/>
		<path class="st8" d="M963.5,2826.3c-1-0.5-1.8-1.3-2.3-2.3c-0.6-1-0.9-2.1-0.9-3.3c0-1.2,0.3-2.3,0.9-3.3c0.6-1,1.3-1.7,2.3-2.3
			s2-0.8,3.2-0.8c1.2,0,2.3,0.3,3.2,0.8c1,0.5,1.7,1.3,2.3,2.3c0.6,1,0.8,2.1,0.8,3.3c0,1.2-0.3,2.3-0.8,3.3c-0.6,1-1.3,1.7-2.3,2.3
			c-1,0.5-2.1,0.8-3.2,0.8C965.5,2827.1,964.5,2826.9,963.5,2826.3z M968.9,2824.8c0.6-0.4,1.2-0.9,1.5-1.6c0.4-0.7,0.5-1.5,0.5-2.4
			c0-0.9-0.2-1.7-0.5-2.4c-0.4-0.7-0.9-1.2-1.5-1.6c-0.6-0.4-1.4-0.6-2.2-0.6c-0.8,0-1.6,0.2-2.2,0.6c-0.6,0.4-1.2,0.9-1.5,1.6
			s-0.5,1.5-0.5,2.4c0,0.9,0.2,1.7,0.5,2.4s0.9,1.2,1.5,1.6c0.6,0.4,1.4,0.6,2.2,0.6C967.5,2825.3,968.3,2825.2,968.9,2824.8z"/>
		<path class="st8" d="M983.4,2820c-0.3,0.6-0.8,1-1.4,1.4c-0.7,0.4-1.5,0.5-2.5,0.5h-2.3v5.1h-2.1v-12.5h4.3c1,0,1.8,0.2,2.4,0.5
			s1.2,0.8,1.5,1.3s0.5,1.2,0.5,1.9C983.8,2818.9,983.7,2819.5,983.4,2820z M981.2,2819.7c0.4-0.4,0.6-0.9,0.6-1.5
			c0-1.4-0.8-2.1-2.3-2.1h-2.3v4.1h2.3C980.2,2820.3,980.8,2820.1,981.2,2819.7z"/>
		<path class="st8" d="M987.9,2816.1v3.7h4.3v1.7h-4.3v3.8h4.9v1.7h-6.9v-12.5h6.9v1.7H987.9z"/>
		<path class="st8" d="M999.4,2815.8v-1.9h3.7v13.1h-2.1v-11.2H999.4z"/>
	</g>
	<g class="st0">
		<path class="st3" d="M1395.2,2850.7c-1.7,0.3-3.2,0.4-5.8,0.4h-1v-5.8h5.6v0.9h-4.4v3.9c2.5,0,3.9-0.1,5.5-0.4L1395.2,2850.7z
			 M1390.9,2855.6h7.2v0.9h-8.4v-4.1h1.1V2855.6z M1399.4,2848v1h-1.9v4.4h-1.1v-9.1h1.1v3.7H1399.4z"/>
		<path class="st3" d="M1409,2851.5c-1.2,0.2-2.4,0.4-3.6,0.4v4.5h-1.1v-4.5c-1.2,0.1-2.4,0.1-3.5,0.1l-0.2-1c2.3,0,5.5,0,8.3-0.4
			L1409,2851.5z M1401.6,2847.5c0-1.5,1.3-2.6,3.2-2.6c1.9,0,3.2,1,3.2,2.6c0,1.5-1.3,2.6-3.2,2.6
			C1402.9,2850,1401.6,2849,1401.6,2847.5z M1402.7,2847.5c0,1,0.9,1.6,2.1,1.6c1.2,0,2.1-0.7,2.1-1.6s-0.9-1.6-2.1-1.6
			C1403.6,2845.8,1402.7,2846.5,1402.7,2847.5z M1411,2844.3v12.6h-1.1v-12.6H1411z"/>
		<path class="st3" d="M1417,2849.4c0-0.6,0.4-1,0.9-1c0.5,0,0.9,0.4,0.9,1c0,0.6-0.4,1-0.9,1
			C1417.4,2850.3,1417,2849.9,1417,2849.4z M1417,2855c0-0.6,0.4-1,0.9-1c0.5,0,0.9,0.4,0.9,1s-0.4,1-0.9,1
			C1417.4,2856,1417,2855.6,1417,2855z"/>
	</g>
	<g class="st0">
		<path class="st3" d="M1424.5,2853.4v-4.2h-1.1v-1l1.2-0.1l0.2-2.1h1.1v2.1h2.1v1h-2.1v4.2c0,0.9,0.3,1.5,1.2,1.5
			c0.3,0,0.6-0.1,0.9-0.2l0.3,1c-0.4,0.1-0.9,0.3-1.4,0.3C1425,2856,1424.5,2855,1424.5,2853.4z"/>
		<path class="st3" d="M1429.1,2850.7c0-3.3,1.9-5.3,4.6-5.3c1.2,0,2.2,0.6,2.8,1.3l-0.7,0.8c-0.5-0.6-1.2-1-2.1-1
			c-1.9,0-3.2,1.6-3.2,4.2c0,2.6,1.2,4.2,3.2,4.2c1,0,1.7-0.4,2.4-1.1l0.7,0.8c-0.8,0.9-1.8,1.5-3.2,1.5
			C1431,2856,1429.1,2854,1429.1,2850.7z"/>
		<path class="st3" d="M1437.5,2850.6c0-3.3,1.8-5.3,4.4-5.3s4.4,2,4.4,5.3s-1.8,5.4-4.4,5.4S1437.5,2853.9,1437.5,2850.6z
			 M1445,2850.6c0-2.6-1.2-4.2-3.1-4.2c-1.8,0-3.1,1.6-3.1,4.2c0,2.6,1.2,4.2,3.1,4.2C1443.8,2854.8,1445,2853.2,1445,2850.6z"/>
	</g>
	<g class="st0">
		<path class="st3" d="M1447.5,2860c1.9-1.6,2.7-2.8,2.7-3.9c0-0.7-0.4-1.2-1.1-1.2c-0.5,0-0.9,0.3-1.2,0.7l-0.4-0.4
			c0.5-0.5,1-0.9,1.8-0.9c1.1,0,1.7,0.7,1.7,1.8c0,1.2-0.9,2.4-2.3,3.7c0.3,0,0.7-0.1,1-0.1h1.7v0.6h-3.8V2860z"/>
	</g>
	<g class="st0">
		<path class="st3" d="M1452.3,2851.4h3.6v1h-3.6V2851.4z"/>
		<path class="st3" d="M1457.2,2852c0-2.5,1.7-4,3.4-4c1.9,0,3,1.4,3,3.6c0,0.3,0,0.5-0.1,0.7h-5.1c0.1,1.6,1.1,2.7,2.5,2.7
			c0.7,0,1.3-0.2,1.9-0.6l0.5,0.8c-0.7,0.4-1.5,0.8-2.5,0.8C1458.9,2856,1457.2,2854.5,1457.2,2852z M1462.6,2851.4
			c0-1.5-0.7-2.4-1.9-2.4c-1.1,0-2,0.9-2.2,2.4H1462.6z"/>
		<path class="st3" d="M1470.4,2856.3l0.1-1.4c-0.6,0.6-1.4,1.1-2.3,1.1c-1.9,0-3.1-1.4-3.1-4c0-2.5,1.6-4,3.3-4
			c0.9,0,1.5,0.3,2.2,0.9h0l0.1-0.7h1v10.8h-1.3V2856.3z M1470.4,2853.9v-4c-0.6-0.6-1.2-0.8-1.8-0.8c-1.2,0-2.2,1.2-2.2,2.9
			c0,1.8,0.8,2.9,2.1,2.9C1469.1,2854.9,1469.7,2854.6,1470.4,2853.9z"/>
	</g>
	<g class="st0">
		<path class="st8" d="M1396.2,2826.7c-0.7-0.3-1.2-0.7-1.6-1.3c-0.4-0.5-0.6-1.2-0.6-1.9h2.2c0,0.5,0.3,1,0.6,1.3
			c0.4,0.3,0.9,0.5,1.6,0.5c0.7,0,1.3-0.2,1.7-0.5c0.4-0.3,0.6-0.8,0.6-1.3c0-0.4-0.1-0.8-0.4-1s-0.6-0.5-0.9-0.6
			c-0.4-0.1-0.9-0.3-1.5-0.5c-0.8-0.2-1.5-0.4-2-0.7c-0.5-0.2-0.9-0.6-1.3-1c-0.4-0.5-0.5-1.1-0.5-1.9c0-0.7,0.2-1.3,0.5-1.9
			c0.4-0.5,0.9-1,1.5-1.2c0.6-0.3,1.4-0.4,2.2-0.4c1.2,0,2.2,0.3,3,0.9c0.8,0.6,1.2,1.4,1.3,2.5h-2.3c0-0.5-0.3-0.8-0.6-1.2
			c-0.4-0.3-0.9-0.5-1.6-0.5c-0.6,0-1.1,0.2-1.4,0.5s-0.6,0.7-0.6,1.3c0,0.4,0.1,0.7,0.4,0.9c0.2,0.2,0.5,0.4,0.9,0.6
			c0.4,0.1,0.9,0.3,1.5,0.5c0.8,0.2,1.5,0.5,2,0.7c0.5,0.2,1,0.6,1.3,1.1c0.4,0.5,0.5,1.1,0.5,1.9c0,0.6-0.2,1.2-0.5,1.8
			c-0.3,0.6-0.8,1-1.5,1.4c-0.7,0.3-1.4,0.5-2.3,0.5C1397.6,2827.1,1396.8,2827,1396.2,2826.7z"/>
		<path class="st8" d="M1405.3,2817.4c0.6-1,1.3-1.7,2.3-2.3c1-0.5,2-0.8,3.2-0.8c1.3,0,2.5,0.3,3.6,1c1,0.7,1.8,1.6,2.3,2.8h-2.5
			c-0.3-0.7-0.8-1.2-1.3-1.5c-0.6-0.3-1.2-0.5-2-0.5c-0.8,0-1.6,0.2-2.2,0.6c-0.6,0.4-1.2,0.9-1.5,1.6s-0.5,1.5-0.5,2.4
			c0,0.9,0.2,1.7,0.5,2.4c0.4,0.7,0.9,1.2,1.5,1.6c0.6,0.4,1.4,0.6,2.2,0.6c0.8,0,1.4-0.2,2-0.5c0.6-0.3,1-0.8,1.3-1.5h2.5
			c-0.5,1.2-1.2,2.1-2.3,2.8c-1,0.6-2.2,1-3.6,1c-1.2,0-2.2-0.3-3.2-0.8c-1-0.5-1.7-1.3-2.3-2.3c-0.6-1-0.9-2.1-0.9-3.3
			C1404.5,2819.5,1404.8,2818.4,1405.3,2817.4z"/>
		<path class="st8" d="M1421.6,2826.3c-1-0.5-1.8-1.3-2.3-2.3c-0.6-1-0.9-2.1-0.9-3.3c0-1.2,0.3-2.3,0.9-3.3c0.6-1,1.3-1.7,2.3-2.3
			c1-0.5,2-0.8,3.2-0.8c1.2,0,2.3,0.3,3.2,0.8s1.7,1.3,2.3,2.3c0.6,1,0.8,2.1,0.8,3.3c0,1.2-0.3,2.3-0.8,3.3c-0.6,1-1.3,1.7-2.3,2.3
			c-1,0.5-2.1,0.8-3.2,0.8C1423.6,2827.1,1422.6,2826.9,1421.6,2826.3z M1427,2824.8c0.6-0.4,1.2-0.9,1.5-1.6s0.5-1.5,0.5-2.4
			c0-0.9-0.2-1.7-0.5-2.4s-0.9-1.2-1.5-1.6c-0.6-0.4-1.4-0.6-2.2-0.6c-0.8,0-1.6,0.2-2.2,0.6c-0.6,0.4-1.2,0.9-1.5,1.6
			s-0.5,1.5-0.5,2.4c0,0.9,0.2,1.7,0.5,2.4s0.9,1.2,1.5,1.6c0.6,0.4,1.4,0.6,2.2,0.6C1425.6,2825.3,1426.4,2825.2,1427,2824.8z"/>
		<path class="st8" d="M1441.5,2820c-0.3,0.6-0.8,1-1.4,1.4c-0.7,0.4-1.5,0.5-2.5,0.5h-2.3v5.1h-2.1v-12.5h4.3c1,0,1.8,0.2,2.4,0.5
			s1.2,0.8,1.5,1.3s0.5,1.2,0.5,1.9C1441.9,2818.9,1441.8,2819.5,1441.5,2820z M1439.3,2819.7c0.4-0.4,0.6-0.9,0.6-1.5
			c0-1.4-0.8-2.1-2.3-2.1h-2.3v4.1h2.3C1438.3,2820.3,1438.9,2820.1,1439.3,2819.7z"/>
		<path class="st8" d="M1446,2816.1v3.7h4.3v1.7h-4.3v3.8h4.9v1.7h-6.9v-12.5h6.9v1.7H1446z"/>
		<path class="st8" d="M1458.9,2824.2c1.2-1,2.1-1.8,2.7-2.5c0.7-0.6,1.2-1.3,1.7-2c0.4-0.7,0.7-1.4,0.7-2.1c0-0.7-0.2-1.3-0.5-1.7
			c-0.3-0.4-0.9-0.6-1.6-0.6c-0.7,0-1.3,0.2-1.6,0.7c-0.4,0.4-0.6,1.1-0.6,1.8h-2c0-1.4,0.4-2.4,1.2-3.1c0.8-0.7,1.8-1.1,3-1.1
			c1.3,0,2.3,0.4,3.1,1.1c0.7,0.7,1.1,1.7,1.1,2.9c0,0.9-0.2,1.7-0.7,2.5c-0.4,0.8-1,1.5-1.6,2.1c-0.6,0.6-1.4,1.4-2.3,2.2l-0.8,0.7
			h5.7v1.7h-8.7v-1.5L1458.9,2824.2z"/>
	</g>
</g>
</svg>
