<?xml version="1.0" encoding="utf-8"?>
<!-- Generator: Adobe Illustrator 25.1.0, SVG Export Plug-In . SVG Version: 6.00 Build 0)  -->
<svg version="1.1" id="레이어_1" xmlns="http://www.w3.org/2000/svg" xmlns:xlink="http://www.w3.org/1999/xlink" x="0px"
	 y="0px" viewBox="0 0 335 253.7" style="enable-background:new 0 0 335 253.7;" xml:space="preserve">
<style type="text/css">
	.st0{enable-background:new    ;}
	.st1{fill:#3AA25C;}
	.st2{fill:none;stroke:#96C4A5;}
	.st3{fill:#E2F5E8;}
	.st4{fill:#FFFFFF;}
</style>
<g id="그룹_5894" transform="translate(-20 -1456.167)">
	<g class="st0">
		<path class="st1" d="M28.6,1468.7c-2.7,0.5-5.7,0.6-7.9,0.6l-0.2-1.4c0.9,0,2,0,3.1,0v-0.7c-1.4-0.2-2.2-0.9-2.2-1.9
			c0-1.2,1.2-2,3.2-2c1.9,0,3.1,0.8,3.1,2c0,1-0.9,1.7-2.2,1.9v0.7c1.1-0.1,2.1-0.2,3.1-0.3L28.6,1468.7z M28.1,1462.8h-7.3v-1.3
			h2.7v-1.1h1.8v1.1h2.7V1462.8z M24.1,1471.7h7.2v1.5h-9v-3.2h1.8V1471.7z M24.4,1465.9c0.9,0,1.4-0.3,1.4-0.8
			c0-0.5-0.5-0.8-1.4-0.8s-1.4,0.3-1.4,0.8C23,1465.7,23.6,1465.9,24.4,1465.9z M32.5,1464.7v1.5h-1.6v4.3H29v-10.1h1.8v4.2H32.5z"
			/>
		<path class="st1" d="M39.7,1464c-0.8,2-2.6,3.4-5.4,4.2l-0.7-1.5c2.9-0.8,4.4-2.2,4.6-3.9h-3.9v-1.5h5.9c0,0.4,0,0.8-0.1,1.2h2.3
			v-2h1.8v7.4h-1.8v-1.2h-2.8v-1.5h2.8v-1.2H39.7z M44.4,1470.7c0,1.6-1.7,2.6-4.3,2.6c-2.6,0-4.4-1-4.4-2.6c0-1.6,1.7-2.6,4.4-2.6
			C42.6,1468.1,44.4,1469.1,44.4,1470.7z M42.5,1470.7c0-0.8-0.9-1.2-2.5-1.2c-1.6,0-2.5,0.4-2.5,1.2c0,0.8,0.9,1.2,2.5,1.2
			C41.6,1471.9,42.5,1471.5,42.5,1470.7z"/>
		<path class="st1" d="M50,1467.9c-2,0-3.5-1.4-3.5-3.3c0-1.9,1.5-3.3,3.5-3.3c2,0,3.5,1.4,3.5,3.3
			C53.4,1466.5,51.9,1467.9,50,1467.9z M50,1471.7H57v1.5h-8.8v-4.3H50V1471.7z M50,1466.3c1,0,1.7-0.6,1.7-1.7
			c0-1.1-0.7-1.7-1.7-1.7c-1,0-1.7,0.6-1.7,1.7C48.3,1465.6,49,1466.3,50,1466.3z M58.2,1464.2v1.5h-1.7v4.2h-1.8v-9.4h1.8v3.7H58.2
			z"/>
		<path class="st1" d="M66.1,1468.2c-1.4-0.5-2.4-1.4-2.9-2.5c-0.6,1.3-1.6,2.3-3.1,2.8l-0.9-1.5c2.1-0.7,3-2.4,3-4v-0.2h-2.5v-1.5
			h6.9v1.5h-2.5v0.2c0,1.5,0.9,3.1,2.9,3.8L66.1,1468.2z M70.3,1471.7v1.5h-8.8v-4h1.8v2.6H70.3z M68.2,1463.8v-3.3H70v9.4h-1.8
			v-4.6h-2v-1.5H68.2z"/>
		<path class="st1" d="M83.8,1470.4v1.5H72.1v-1.5H77v-2.4h-3.7v-6.7h1.8v2h5.5v-2h1.8v6.7h-3.7v2.4H83.8z M75.2,1466.5h5.5v-1.8
			h-5.5V1466.5z"/>
		<path class="st1" d="M91.8,1461.4c0,3.5-2.2,6-5.9,7.2l-0.8-1.5c2.7-0.8,4.4-2.4,4.7-4.3h-4v-1.5H91.8z M96.1,1471.7v1.5h-8.8
			v-4.2h1.8v2.7H96.1z M93.9,1464.2v-3.8h1.8v9.4h-1.8v-4.2h-2.2v-1.5H93.9z"/>
		<path class="st1" d="M104.1,1464c-0.8,2-2.6,3.4-5.4,4.2l-0.7-1.5c2.9-0.8,4.4-2.2,4.6-3.9h-3.9v-1.5h5.9c0,0.4,0,0.8-0.1,1.2h2.3
			v-2h1.8v7.4h-1.8v-1.2H104v-1.5h2.8v-1.2H104.1z M108.8,1470.7c0,1.6-1.7,2.6-4.3,2.6c-2.6,0-4.4-1-4.4-2.6c0-1.6,1.7-2.6,4.4-2.6
			C107,1468.1,108.8,1469.1,108.8,1470.7z M106.9,1470.7c0-0.8-0.9-1.2-2.5-1.2c-1.6,0-2.5,0.4-2.5,1.2c0,0.8,0.9,1.2,2.5,1.2
			C106,1471.9,106.9,1471.5,106.9,1470.7z"/>
		<path class="st1" d="M116.8,1466.5c-0.6,0.6-1.5,1-2.5,1c-1.9,0-3.4-1.3-3.4-3.2c0-1.8,1.5-3.2,3.4-3.2c1,0,1.9,0.4,2.5,1h2.8
			v-1.7h1.8v7.6h-1.8v-1.5H116.8z M114.3,1465.9c1,0,1.7-0.6,1.7-1.6c0-1-0.7-1.6-1.7-1.6s-1.6,0.6-1.6,1.6
			C112.7,1465.3,113.4,1465.9,114.3,1465.9z M121.6,1470.8c0,1.6-1.7,2.5-4.4,2.5c-2.7,0-4.4-0.9-4.4-2.5c0-1.6,1.7-2.5,4.4-2.5
			C119.9,1468.3,121.6,1469.2,121.6,1470.8z M119.8,1470.8c0-0.8-0.9-1.1-2.6-1.1c-1.7,0-2.6,0.4-2.6,1.1c0,0.8,0.9,1.1,2.6,1.1
			C118.9,1472,119.8,1471.6,119.8,1470.8z M117.7,1463.6c0,0.2,0.1,0.4,0.1,0.7c0,0.2,0,0.5-0.1,0.7h2.1v-1.4H117.7z"/>
		<path class="st1" d="M138.5,1470.4v1.5h-11.7v-1.5h4.9v-2.8h1.8v2.8H138.5z M127.3,1466.6c2.7-0.4,4.2-2,4.4-3.7h-3.9v-1.5h9.7
			v1.5h-3.9c0.2,1.7,1.7,3.2,4.4,3.6l-0.7,1.5c-2.3-0.4-3.9-1.5-4.7-3c-0.8,1.5-2.4,2.7-4.7,3.1L127.3,1466.6z"/>
		<path class="st1" d="M146.8,1467.8c-1.4-0.4-2.4-1.4-3-2.5c-0.6,1.3-1.6,2.3-3.1,2.8l-0.9-1.4c2.1-0.7,3.1-2.3,3.1-3.9h-2.6v-1.5
			h7v1.5h-2.5c0,1.5,1,3,3,3.7L146.8,1467.8z M141.6,1468.8h8.8v4.6h-1.9v-3.1h-6.9V1468.8z M150.4,1460.5v7.8h-1.9v-7.8H150.4z"/>
		<path class="st1" d="M159.8,1464.4c0,1.9,0.7,3.9,2.5,4.9l-1,1.4c-1.1-0.6-1.9-1.6-2.3-2.9c-0.4,1.3-1.2,2.5-2.4,3.2l-1-1.4
			c1.8-1.1,2.5-3.2,2.5-5.2v-0.3h-2v-1.5h2v-1.7h1.8v1.7h2v1.5h-2V1464.4z M162.5,1460.7h1.7v12.1h-1.7v-5.9H161v-1.5h1.5V1460.7z
			 M166.8,1460.5v12.9h-1.8v-12.9H166.8z"/>
		<path class="st1" d="M175.3,1460.8h1.7v12.1h-1.7v-4.2h-1.8v-1.5h1.8v-1.8h-1.6c-0.6,2.1-1.9,3.9-4.3,5.4l-1.1-1.3
			c2.5-1.6,3.7-3.4,3.9-5.9h-3.2v-1.5h5c0,0.7,0,1.3-0.1,1.9h1.2V1460.8z M179.7,1460.5v12.9H178v-12.9H179.7z"/>
	</g>
	<path id="패스_3164" class="st2" d="M20.6,1672.2v-33.4h333.7v33.4"/>
	<path id="패스_3164-2" class="st2" d="M106.6,1546.7v-13.9h162v13.9"/>
	<line id="선_392" class="st2" x1="187.6" y1="1638.8" x2="187.6" y2="1625.6"/>
	<path id="패스_3164-3" class="st2" d="M106.6,1611.8v13.9h162v-13.9"/>
	<line id="선_236" class="st2" x1="187.5" y1="1517.7" x2="187.5" y2="1533"/>
	<path id="패스_3162" class="st1" d="M152.6,1486.2h69.7v32h-69.7V1486.2z"/>
	<rect id="사각형_272" x="20" y="1546.7" class="st3" width="166" height="65.1"/>
	<rect id="사각형_274" x="20" y="1675.9" class="st3" width="53" height="34"/>
	<g class="st0">
		<path class="st1" d="M46.3,1691.8v0.9h-4.7v2.8h-1.1v-2.8h-4.8v-0.9h7.9c0.3-1.5,0.3-2.6,0.3-3.6v-0.1h-6.8v-0.9h7.9v0.9
			c0,1,0,2.1-0.3,3.6H46.3z M38.1,1697.2h7.1v0.9h-8.1v-3.6h1.1V1697.2z"/>
		<path class="st1" d="M54,1693.4c-1.3-0.5-2.3-1.5-2.8-2.7c-0.5,1.4-1.5,2.4-2.9,3l-0.6-0.8c1.8-0.6,2.9-2.2,2.9-4v-1.4h1.1v1.5
			c0,1.6,1.2,3.1,2.9,3.7L54,1693.4z M50.6,1697.2h6.7v0.9h-7.7v-3.6h1.1V1697.2z M58.5,1690.2v0.9h-1.7v4.1h-1.1v-8.6h1.1v3.6H58.5
			z"/>
	</g>
	<g class="st0">
		<path class="st1" d="M92.2,1562.3c2.3,0,4.2,1.2,4.9,3.4h-2.4c-0.5-1-1.4-1.5-2.5-1.5c-1.8,0-3.1,1.3-3.1,3.5
			c0,2.1,1.3,3.5,3.1,3.5c1.1,0,2-0.5,2.5-1.5h2.4c-0.7,2.2-2.6,3.4-4.9,3.4c-3,0-5.3-2.2-5.3-5.3S89.2,1562.3,92.2,1562.3z"/>
		<path class="st1" d="M98.5,1562.4h7.7v1.7h-2.8v8.8h-2.1v-8.8h-2.8V1562.4z"/>
		<path class="st1" d="M112.7,1573c-3,0-5.4-2.2-5.4-5.4c0-3.1,2.4-5.4,5.4-5.4c3,0,5.4,2.2,5.4,5.4
			C118.1,1570.8,115.7,1573,112.7,1573z M112.7,1571.1c1.9,0,3.2-1.4,3.2-3.5s-1.3-3.5-3.2-3.5c-1.9,0-3.2,1.3-3.2,3.5
			S110.8,1571.1,112.7,1571.1z"/>
	</g>
	<g class="st0">
		<path class="st1" d="M38.2,1591c-1.7,0-3-1.2-3-2.9c0-1.7,1.3-2.9,3-2.9s3,1.2,3,2.9C41.3,1589.8,40,1591,38.2,1591z M38.2,1590.1
			c1.1,0,2-0.8,2-1.9c0-1.1-0.9-2-2-2s-2,0.8-2,2C36.2,1589.3,37.1,1590.1,38.2,1590.1z M37.8,1595h6.7v0.9h-7.8v-3.7h1.1V1595z
			 M45.7,1588v0.9H44v4.1h-1.1v-8.6H44v3.5H45.7z"/>
		<path class="st1" d="M53.1,1591.2c-1.3-0.5-2.3-1.4-2.8-2.6c-0.5,1.3-1.6,2.4-2.9,2.9l-0.6-0.8c1.7-0.6,2.9-2.2,2.9-3.8v-0.6h-2.6
			v-0.9h6.2v0.9h-2.6v0.6c0,1.5,1.1,3,2.8,3.6L53.1,1591.2z M56.6,1595v0.9h-7.8v-3.6h1.1v2.7H56.6z M55.2,1587.7v-3.2h1.1v8.5h-1.1
			v-4.5h-2.3v-0.9H55.2z"/>
		<path class="st1" d="M60.5,1590.4c0-0.5,0.4-0.9,0.9-0.9c0.5,0,0.9,0.4,0.9,0.9c0,0.5-0.4,0.9-0.9,0.9
			C60.9,1591.3,60.5,1590.9,60.5,1590.4z"/>
		<path class="st1" d="M76.1,1593.7v0.9H65.6v-0.9h4.7v-2.5h-3.5v-6h1.1v2.1h6v-2.1h1v6h-3.5v2.5H76.1z M67.9,1590.4h6v-2.1h-6
			V1590.4z"/>
		<path class="st1" d="M83.4,1585.3c0,3-2.1,5.3-5.4,6.4l-0.5-0.9c2.7-0.9,4.5-2.5,4.7-4.6h-4.1v-0.9H83.4z M87.2,1595v0.9h-7.7
			v-3.7h1.1v2.8H87.2z M85.9,1588v-3.6H87v8.6h-1.1v-4.1h-2.5v-0.9H85.9z"/>
		<path class="st1" d="M91.1,1590.4c0-0.5,0.4-0.9,0.9-0.9c0.5,0,0.9,0.4,0.9,0.9c0,0.5-0.4,0.9-0.9,0.9
			C91.5,1591.3,91.1,1590.9,91.1,1590.4z"/>
		<path class="st1" d="M103.6,1591.7c-2.5,0.5-5.3,0.5-7.3,0.5l-0.1-0.9c0.9,0,2,0,3.1-0.1v-0.9c-1.3-0.1-2.2-0.8-2.2-1.8
			c0-1.1,1.1-1.8,2.7-1.8c1.6,0,2.7,0.7,2.7,1.8c0,1-0.8,1.6-2.2,1.8v0.8c1.1-0.1,2.2-0.1,3.2-0.3L103.6,1591.7z M103.1,1586.4h-6.7
			v-0.8h2.8v-1.2h1.1v1.2h2.8V1586.4z M98.9,1595h6.7v0.9h-7.8v-2.9h1.1V1595z M99.8,1589.7c1,0,1.7-0.4,1.7-1c0-0.6-0.7-1-1.7-1
			c-1.1,0-1.7,0.4-1.7,1C98.1,1589.3,98.7,1589.7,99.8,1589.7z M106.9,1588.5v0.9h-1.7v4.2h-1.1v-9.1h1.1v4.1H106.9z"/>
		<path class="st1" d="M113.6,1587.4c-0.8,1.9-2.5,3.2-5,4l-0.4-0.8c2.8-0.8,4.5-2.4,4.7-4.4h-4.1v-0.9h5.3c0,0.4-0.1,0.9-0.1,1.3
			h2.6v-2.1h1.1v7h-1.1v-1.5h-3.1v-0.9h3.1v-1.6H113.6z M117.6,1593.8c0,1.4-1.5,2.2-3.9,2.2s-3.9-0.8-3.9-2.2s1.5-2.2,3.9-2.2
			S117.6,1592.4,117.6,1593.8z M116.6,1593.8c0-0.9-1.1-1.4-2.8-1.4c-1.7,0-2.8,0.5-2.8,1.4c0,0.9,1.1,1.4,2.8,1.4
			C115.5,1595.2,116.6,1594.7,116.6,1593.8z"/>
		<path class="st1" d="M128.8,1591.2c-1.3-0.5-2.3-1.4-2.8-2.6c-0.5,1.3-1.6,2.4-2.9,2.9l-0.6-0.8c1.7-0.6,2.9-2.2,2.9-3.8v-0.6
			h-2.6v-0.9h6.2v0.9h-2.6v0.6c0,1.5,1.1,3,2.8,3.6L128.8,1591.2z M132.4,1595v0.9h-7.8v-3.6h1.1v2.7H132.4z M131,1587.7v-3.2h1.1
			v8.5H131v-4.5h-2.3v-0.9H131z"/>
		<path class="st1" d="M141.1,1590c-1.6,0.3-3,0.4-5.4,0.4h-0.9v-5.2h5.1v0.9h-4.1v3.4c2.3,0,3.6-0.1,5.1-0.4L141.1,1590z
			 M135.9,1591.7h7.3v4.3h-7.3V1591.7z M137,1595.1h5.2v-2.6H137V1595.1z M145,1588.2h-1.7v2.9h-1.1v-6.6h1.1v2.9h1.7V1588.2z"/>
		<path class="st1" d="M159.3,1593.7v0.9h-10.6v-0.9h4.8v-2.8h1.1v2.8H159.3z M149.2,1590.4c2-0.3,4.2-2,4.2-3.8v-0.2h-3.9v-0.9h8.8
			v0.9h-3.9v0.2c0,1.9,2.2,3.5,4.3,3.8l-0.4,0.9c-1.8-0.4-3.6-1.5-4.4-3.1c-0.7,1.6-2.6,2.8-4.3,3.1L149.2,1590.4z"/>
		<path class="st1" d="M167.1,1591c-1.3-0.5-2.4-1.4-2.9-2.7c-0.5,1.3-1.6,2.4-3,2.9l-0.6-0.8c1.8-0.6,3-2.1,3-3.8v-0.5h-2.7v-0.9
			h6.4v0.9h-2.6v0.5c0,1.6,1.2,3,2.9,3.5L167.1,1591z M162.2,1592.1h7.8v4H169v-3.1h-6.7V1592.1z M170,1584.4v7.1H169v-7.1H170z"/>
	</g>
	<rect id="사각형_275" x="76" y="1675.9" class="st3" width="53" height="34"/>
	<g class="st0">
		<path class="st1" d="M102.3,1696v0.9H91.7v-0.9h4.7v-2.7h-3.8v-0.9h1.8v-3.8h-1.8v-0.9h8.6v0.9h-1.8v3.8h1.8v0.9h-3.8v2.7H102.3z
			 M95.5,1692.4h2.9v-3.8h-2.9V1692.4z"/>
		<path class="st1" d="M110.6,1688.8h-6.9v-0.9h2.9v-1.4h1.1v1.4h2.9V1688.8z M107.2,1693.5c-1.7,0-2.8-0.8-2.8-2.1
			c0-1.2,1.1-2.1,2.8-2.1s2.8,0.8,2.8,2.1C110,1692.7,108.8,1693.5,107.2,1693.5z M112.9,1696.3c0,1.3-1.5,2-3.8,2
			c-2.4,0-3.8-0.7-3.8-2c0-1.3,1.4-2,3.8-2C111.4,1694.3,112.9,1695,112.9,1696.3z M107.2,1692.7c1.1,0,1.8-0.5,1.8-1.3
			c0-0.8-0.7-1.2-1.8-1.2s-1.8,0.5-1.8,1.2C105.4,1692.2,106.1,1692.7,107.2,1692.7z M111.8,1696.3c0-0.8-1-1.2-2.7-1.2
			c-1.7,0-2.7,0.4-2.7,1.2s1,1.2,2.7,1.2C110.8,1697.5,111.8,1697,111.8,1696.3z M114.5,1689.9v0.9h-1.7v3.4h-1.1v-7.5h1.1v3.2
			H114.5z"/>
	</g>
	<rect id="사각형_276" x="133" y="1675.9" class="st3" width="53" height="34"/>
	<g class="st0">
		<path class="st4" d="M176.2,1496.6c2.3,0,4.2,1.2,4.9,3.4h-2.4c-0.5-1-1.4-1.5-2.5-1.5c-1.8,0-3.1,1.3-3.1,3.5
			c0,2.1,1.3,3.5,3.1,3.5c1.1,0,2-0.5,2.5-1.5h2.4c-0.7,2.2-2.6,3.4-4.9,3.4c-3,0-5.3-2.2-5.3-5.3S173.2,1496.6,176.2,1496.6z"/>
		<path class="st4" d="M189.3,1498.4h-4v2.6h3.5v1.7h-3.5v2.8h4v1.7h-6.1v-10.5h6.1V1498.4z"/>
		<path class="st4" d="M196.4,1507.3c-3,0-5.4-2.2-5.4-5.4c0-3.1,2.4-5.4,5.4-5.4c3,0,5.4,2.2,5.4,5.4
			C201.7,1505.1,199.3,1507.3,196.4,1507.3z M196.4,1505.4c1.9,0,3.2-1.4,3.2-3.5s-1.3-3.5-3.2-3.5c-1.9,0-3.2,1.3-3.2,3.5
			S194.4,1505.4,196.4,1505.4z"/>
	</g>
	<path id="패스_3161" class="st3" d="M189,1546.7h166v65.1H189V1546.7z"/>
	<g class="st0">
		<path class="st1" d="M172.2,1651.7c0,2.4,1.3,4.9,3.3,5.9l-0.9,1.2c-1.5-0.8-2.5-2.2-3.1-4c-0.6,1.9-1.7,3.4-3.3,4.2l-0.9-1.2
			c2.1-1,3.4-3.6,3.4-6.1v-2.2h1.5V1651.7z M180,1655h-2.1v6.9h-1.5v-13.5h1.5v5.4h2.1V1655z"/>
		<path class="st1" d="M192.6,1648.3v7.3H191v-2.9h-2.5c-0.3,1.5-1.6,2.6-3.4,2.6c-2,0-3.5-1.3-3.5-3.2c0-1.9,1.5-3.2,3.5-3.2
			c1.8,0,3.1,1,3.4,2.5h2.5v-3.1H192.6z M187.1,1652.1c0-1.2-0.9-1.9-2-1.9c-1.2,0-2.1,0.7-2.1,1.9c0,1.1,0.9,1.9,2.1,1.9
			C186.2,1654,187.1,1653.2,187.1,1652.1z M191,1656.2h1.5v5.5h-8.8v-5.5h1.5v1.5h5.7V1656.2z M191,1659h-5.7v1.5h5.7V1659z"/>
		<path class="st1" d="M202.5,1655.9c-1.5-0.5-2.6-1.5-3.2-2.7c-0.6,1.4-1.7,2.6-3.4,3.1l-0.8-1.2c2.1-0.7,3.3-2.5,3.3-4.3v-0.3
			h-2.9v-1.2h7.3v1.2H200v0.3c0,1.7,1.1,3.3,3.2,3.9L202.5,1655.9z M206,1659.3c0,1.6-1.7,2.6-4.5,2.6s-4.5-1-4.5-2.6
			c0-1.6,1.7-2.6,4.5-2.6S206,1657.7,206,1659.3z M204.5,1659.3c0-0.9-1.1-1.3-3-1.3s-3,0.5-3,1.3c0,0.9,1.1,1.4,3,1.4
			S204.5,1660.2,204.5,1659.3z M207.8,1651.6v1.3h-1.9v3.5h-1.5v-8.1h1.5v3.3H207.8z"/>
	</g>
	<g class="st0">
		<path class="st1" d="M156,1692.7c-2.4,0.4-5.2,0.4-7.3,0.4l-0.1-0.9c0.7,0,1.6,0,2.5,0v-2.3h1.1v2.3c1.3-0.1,2.6-0.1,3.8-0.3
			L156,1692.7z M153.8,1691.1c0.3-1.2,0.3-2.1,0.3-2.8h-4.7v-0.9h5.8v0.6c0,0.7,0,1.8-0.3,3.2L153.8,1691.1z M157.9,1696.2
			c0,1.4-1.5,2.1-3.9,2.1s-3.9-0.8-3.9-2.1c0-1.3,1.5-2.1,3.9-2.1S157.9,1694.8,157.9,1696.2z M156.8,1696.2c0-0.8-1.1-1.3-2.8-1.3
			s-2.8,0.5-2.8,1.3c0,0.8,1.1,1.3,2.8,1.3S156.8,1697,156.8,1696.2z M159.5,1689.8v0.9h-1.7v3.2h-1.1v-7.3h1.1v3.2H159.5z"/>
		<path class="st1" d="M164,1692.8c-1.8,0-3-1.1-3-2.8c0-1.6,1.3-2.7,3-2.7c1.8,0,3,1.1,3,2.7C167,1691.7,165.7,1692.8,164,1692.8z
			 M164,1691.9c1.2,0,2-0.8,2-1.9c0-1.1-0.8-1.8-2-1.8c-1.2,0-2,0.8-2,1.8C162,1691.2,162.8,1691.9,164,1691.9z M169.9,1696.1
			c0,1.4-1.5,2.2-3.8,2.2c-2.4,0-3.8-0.8-3.8-2.2c0-1.4,1.5-2.2,3.8-2.2C168.4,1693.9,169.9,1694.7,169.9,1696.1z M168.8,1696.1
			c0-0.8-1.1-1.3-2.8-1.3c-1.7,0-2.8,0.5-2.8,1.3c0,0.8,1.1,1.3,2.8,1.3C167.7,1697.4,168.8,1696.9,168.8,1696.1z M169.8,1689.3v1.6
			h1.7v0.9h-1.7v1.8h-1.1v-6.9h1.1v1.7h1.7v0.9H169.8z"/>
	</g>
	<rect id="사각형_277" x="189" y="1675.9" class="st3" width="53" height="34"/>
	<g class="st0">
		<path class="st1" d="M211.1,1690.1c0,1.6-1.3,2.8-3,2.8c-1.8,0-3-1.1-3-2.8s1.3-2.8,3-2.8C209.8,1687.3,211.1,1688.5,211.1,1690.1
			z M206,1690.1c0,1.1,0.8,1.9,2,1.9c1.2,0,2-0.8,2-1.9s-0.8-1.9-2-1.9C206.9,1688.2,206,1689,206,1690.1z M214.3,1694.2v4.1h-1.1
			v-3.2h-6.7v-0.9H214.3z M214.3,1686.7v6.9h-1.1v-6.9H214.3z"/>
		<path class="st1" d="M223,1693.4c-1.3-0.5-2.3-1.5-2.8-2.7c-0.5,1.4-1.5,2.4-2.9,3l-0.6-0.8c1.8-0.6,2.9-2.2,2.9-4v-1.4h1.1v1.5
			c0,1.6,1.2,3.1,2.9,3.7L223,1693.4z M219.6,1697.2h6.7v0.9h-7.7v-3.6h1.1V1697.2z M227.5,1690.2v0.9h-1.7v4.1h-1.1v-8.6h1.1v3.6
			H227.5z"/>
	</g>
	<g class="st0">
		<path class="st1" d="M258.4,1562.3c2.3,0,4.2,1.2,4.9,3.4h-2.4c-0.5-1-1.4-1.5-2.5-1.5c-1.8,0-3.1,1.3-3.1,3.5
			c0,2.1,1.3,3.5,3.1,3.5c1.1,0,2-0.5,2.5-1.5h2.4c-0.7,2.2-2.6,3.4-4.9,3.4c-3,0-5.3-2.2-5.3-5.3S255.4,1562.3,258.4,1562.3z"/>
		<path class="st1" d="M265.3,1562.4h2.4l3.3,7.8l3.3-7.8h2.4v10.5h-2.1v-6.8l-2.8,6.8h-1.6l-2.8-6.8v6.8h-2.1V1562.4z"/>
		<path class="st1" d="M283.7,1573c-3,0-5.4-2.2-5.4-5.4c0-3.1,2.4-5.4,5.4-5.4c3,0,5.4,2.2,5.4,5.4
			C289.1,1570.8,286.7,1573,283.7,1573z M283.7,1571.1c1.9,0,3.2-1.4,3.2-3.5s-1.3-3.5-3.2-3.5c-1.9,0-3.2,1.3-3.2,3.5
			S281.8,1571.1,283.7,1571.1z"/>
	</g>
	<g class="st0">
		<path class="st1" d="M208.2,1584.7h1v10.8h-1v-5.7h-1.5c-0.1,2.3-1,3.7-2.5,3.7c-1.5,0-2.5-1.6-2.5-4.1c0-2.5,1-4,2.5-4
			c1.4,0,2.3,1.4,2.5,3.6h1.5V1584.7z M205.8,1589.4c0-1.9-0.6-3.1-1.5-3.1c-0.9,0-1.5,1.2-1.5,3.1c0,1.9,0.6,3.1,1.5,3.1
			C205.2,1592.5,205.8,1591.4,205.8,1589.4z M211.5,1584.4v11.7h-1v-11.7H211.5z"/>
		<path class="st1" d="M215.1,1592.4c1.7,0,3.3-0.1,5-0.5l0.1,0.9c-1.8,0.4-3.5,0.5-5.3,0.5H214v-7.6h1.1V1592.4z M223,1584.4v11.7
			h-1.1v-7h-3.6v-0.9h3.6v-3.8H223z"/>
		<path class="st1" d="M229.3,1588c0,2,1.4,4,3.1,4.7l-0.6,0.9c-1.4-0.6-2.5-2-3.1-3.6c-0.5,1.7-1.7,3.2-3,3.8l-0.6-0.9
			c1.7-0.8,3.1-3,3.1-5v-1.5h-2.7v-0.9h6.5v0.9h-2.7V1588z M234.7,1584.4v11.6h-1.1v-11.6H234.7z"/>
		<path class="st1" d="M239,1590.4c0-0.5,0.4-0.9,0.9-0.9c0.5,0,0.9,0.4,0.9,0.9c0,0.5-0.4,0.9-0.9,0.9
			C239.3,1591.3,239,1590.9,239,1590.4z"/>
		<path class="st1" d="M254.5,1590.6v0.9H244v-0.9h4.7v-1.2c-2.2-0.1-3.6-0.9-3.6-2.3c0-1.5,1.6-2.3,4.1-2.3c2.5,0,4.1,0.9,4.1,2.3
			c0,1.3-1.4,2.2-3.5,2.3v1.2H254.5z M246.4,1595h7v0.9h-8v-3.4h1.1V1595z M249.3,1588.6c1.8,0,3-0.5,3-1.5s-1.2-1.5-3-1.5
			c-1.8,0-3,0.5-3,1.5S247.4,1588.6,249.3,1588.6z"/>
		<path class="st1" d="M262.3,1590.1c-1.3-0.5-2.4-1.4-2.9-2.7c-0.5,1.3-1.6,2.4-3,2.9l-0.5-0.8c1.8-0.6,3-2.2,3-3.9v-0.9h1.1v0.9
			c0,1.6,1.2,3.1,3,3.6L262.3,1590.1z M265.7,1595.1v0.8h-7.9v-2.9h6.5v-1.2h-6.5v-0.8h7.6v2.8h-6.5v1.2H265.7z M265.3,1590.5h-1.1
			v-6h1.1V1590.5z"/>
		<path class="st1" d="M273.5,1585.7c0,3.3-1.5,6.3-5.3,8.2l-0.6-0.8c3-1.5,4.6-3.7,4.8-6.5h-4.3v-0.9H273.5z M278.4,1590h-1.9v6
			h-1.1v-11.7h1.1v4.7h1.9V1590z"/>
		<path class="st1" d="M289.9,1593.6v0.9h-10.6v-0.9H289.9z M288.9,1591.2c-1.8-0.4-3.6-1.7-4.3-3.4c-0.7,1.7-2.6,3-4.3,3.4
			l-0.5-0.9c2-0.4,4.2-2.2,4.2-4.1v-0.9h1.1v0.9c0,2,2.2,3.8,4.3,4.1L288.9,1591.2z"/>
		<path class="st1" d="M300.1,1591.2c-1.3-0.5-2.3-1.4-2.8-2.6c-0.5,1.3-1.6,2.4-2.9,2.9l-0.6-0.8c1.7-0.6,2.9-2.2,2.9-3.8v-0.6
			h-2.6v-0.9h6.2v0.9h-2.6v0.6c0,1.5,1.1,3,2.8,3.6L300.1,1591.2z M303.7,1595v0.9h-7.8v-3.6h1.1v2.7H303.7z M302.3,1587.7v-3.2h1.1
			v8.5h-1.1v-4.5H300v-0.9H302.3z"/>
		<path class="st1" d="M312.4,1590c-1.6,0.3-3,0.4-5.4,0.4h-0.9v-5.2h5.1v0.9h-4.1v3.4c2.3,0,3.6-0.1,5.1-0.4L312.4,1590z
			 M307.3,1591.7h7.3v4.3h-7.3V1591.7z M308.3,1595.1h5.2v-2.6h-5.2V1595.1z M316.3,1588.2h-1.7v2.9h-1.1v-6.6h1.1v2.9h1.7V1588.2z"
			/>
		<path class="st1" d="M330.6,1593.7v0.9H320v-0.9h4.8v-2.8h1.1v2.8H330.6z M320.5,1590.4c2-0.3,4.2-2,4.2-3.8v-0.2h-3.9v-0.9h8.8
			v0.9h-3.9v0.2c0,1.9,2.2,3.5,4.3,3.8l-0.4,0.9c-1.8-0.4-3.6-1.5-4.4-3.1c-0.7,1.6-2.6,2.8-4.3,3.1L320.5,1590.4z"/>
		<path class="st1" d="M338.4,1591c-1.3-0.5-2.4-1.4-2.9-2.7c-0.5,1.3-1.6,2.4-3,2.9l-0.6-0.8c1.8-0.6,3-2.1,3-3.8v-0.5h-2.7v-0.9
			h6.4v0.9H336v0.5c0,1.6,1.2,3,2.9,3.5L338.4,1591z M333.6,1592.1h7.8v4h-1.1v-3.1h-6.7V1592.1z M341.4,1584.4v7.1h-1.1v-7.1H341.4
			z"/>
	</g>
	<rect id="사각형_278" x="246" y="1675.9" class="st3" width="53" height="34"/>
	<g class="st0">
		<path class="st1" d="M257.2,1690.1c0,1.6-1.3,2.8-3,2.8c-1.8,0-3-1.1-3-2.8s1.3-2.8,3-2.8C255.9,1687.3,257.2,1688.5,257.2,1690.1
			z M252.1,1690.1c0,1.1,0.8,1.9,2,1.9c1.2,0,2-0.8,2-1.9s-0.8-1.9-2-1.9C253,1688.2,252.1,1689,252.1,1690.1z M260.4,1694.2v4.1
			h-1.1v-3.2h-6.7v-0.9H260.4z M260.4,1686.7v6.9h-1.1v-6.9H260.4z"/>
		<path class="st1" d="M268.7,1693.4c-1.3-0.5-2.3-1.5-2.8-2.7c-0.5,1.4-1.5,2.4-2.9,3l-0.6-0.8c1.8-0.6,2.9-2.2,2.9-4v-1.4h1.1v1.5
			c0,1.6,1.2,3.1,2.9,3.7L268.7,1693.4z M265.4,1697.2h6.7v0.9h-7.7v-3.6h1.1V1697.2z M273.2,1690.2v0.9h-1.7v4.1h-1.1v-8.6h1.1v3.6
			H273.2z"/>
	</g>
	<g class="st0">
		<path class="st1" d="M276,1687.8h1.3l1.5,5.2c0.3,1.1,0.6,2,0.9,3.1h0.1c0.4-1.1,0.6-2,0.9-3.1l1.5-5.2h1.2l-3,9.5h-1.4
			L276,1687.8z"/>
		<path class="st1" d="M284.5,1687.8h1.2v9.5h-1.2V1687.8z"/>
		<path class="st1" d="M287.9,1687.8h2.7c2.1,0,3.6,0.7,3.6,2.8c0,2-1.4,3-3.5,3h-1.6v3.8h-1.2V1687.8z M290.6,1692.6
			c1.7,0,2.5-0.6,2.5-2c0-1.4-0.8-1.8-2.5-1.8h-1.4v3.8H290.6z"/>
	</g>
	<rect id="사각형_279" x="302" y="1675.9" class="st3" width="53" height="34"/>
	<g class="st0">
		<path class="st1" d="M317.3,1692.1c-0.5,0.7-1.4,1.1-2.4,1.1c-1.7,0-3-1.2-3-2.9s1.3-2.9,3-2.9c1,0,1.8,0.4,2.4,1.1h3v-1.8h1.1
			v8.6h-1.1v-3.1H317.3z M314.9,1692.3c1.1,0,2-0.8,2-2s-0.8-2-2-2c-1.1,0-2,0.8-2,2S313.8,1692.3,314.9,1692.3z M321.7,1697.2v0.9
			h-7.8v-3.7h1.1v2.8H321.7z M317.8,1689.3c0.1,0.3,0.2,0.6,0.2,1c0,0.3-0.1,0.7-0.2,1h2.5v-1.9H317.8z"/>
		<path class="st1" d="M334.3,1693.3h-4.8v5h-1.1v-5h-4.7v-0.9h7.7c0.4-1.7,0.4-2.9,0.4-4v-0.2H325v-0.9h7.8v1c0,1.1,0,2.3-0.3,4
			h1.7V1693.3z"/>
		<path class="st1" d="M346.3,1695.9v0.9h-10.6v-0.9h4.7v-2.8h1.1v2.8H346.3z M345.3,1693.2c-1.8-0.4-3.6-1.6-4.4-3.2
			c-0.8,1.7-2.6,2.9-4.4,3.2l-0.4-0.9c2-0.4,4.3-2.1,4.3-4v-0.9h1.1v0.9c0,1.9,2.2,3.7,4.3,4L345.3,1693.2z"/>
	</g>
</g>
</svg>
