<?xml version="1.0" encoding="utf-8"?>
<!-- Generator: Adobe Illustrator 25.1.0, SVG Export Plug-In . SVG Version: 6.00 Build 0)  -->
<svg version="1.1" id="레이어_1" xmlns="http://www.w3.org/2000/svg" xmlns:xlink="http://www.w3.org/1999/xlink" x="0px"
	 y="0px" viewBox="0 0 921 427.5" style="enable-background:new 0 0 921 427.5;" xml:space="preserve">
<style type="text/css">
	.st0{opacity:0.416;fill:none;stroke:#94989E;enable-background:new    ;}
	.st1{fill:#3AA25C;}
	.st2{enable-background:new    ;}
	.st3{fill:#929397;}
	.st4{fill:#E2E2E2;}
	.st5{fill:#42454A;}
	.st6{fill:#FFFFFF;}
	.st7{fill:#A3A3A3;}
	.st8{fill:#3E3E3E;}
</style>
<g id="그룹_5513" transform="translate(-740 -3801.922)">
	<path id="패스_3178" class="st0" d="M740.5,3873.4v356"/>
	<path id="패스_3185" class="st1" d="M1497,4229.4h60v-125.6h-60V4229.4z"/>
	<g class="st2">
		<path class="st1" d="M761,3821.3v2.5h-20v-2.5h8.4v-1.8c-3.9-0.4-6.4-2-6.4-4.5c0-2.8,3.2-4.6,8-4.6c4.8,0,8,1.8,8,4.6
			c0,2.5-2.5,4.2-6.5,4.5v1.8H761z M746.6,3829.1h12.1v2.5h-15.3v-6.4h3.2V3829.1z M751,3817c3,0,4.8-0.7,4.8-2
			c0-1.3-1.8-2.1-4.8-2.1c-3,0-4.7,0.7-4.7,2.1C746.3,3816.4,748.1,3817,751,3817z"/>
		<path class="st1" d="M775.2,3820.8c-2.5-0.7-4.2-2.3-5.2-4.2c-1,2.1-2.8,3.8-5.4,4.6l-1.5-2.5c3.7-1.1,5.3-3.9,5.3-6.6v-1.7h3.2
			v1.7c0,2.6,1.6,5.2,5.2,6.2L775.2,3820.8z M782,3829.4v2.4h-15.3v-6.1h11.6v-1.3h-11.6v-2.4h14.7v6h-11.6v1.4H782z M781.4,3821
			h-3.2v-11.1h3.2V3821z"/>
		<path class="st1" d="M796.6,3812.1c0,6.6-2.5,12.3-9.9,16l-1.8-2.4c5.1-2.6,7.9-6.1,8.4-11h-7.2v-2.6H796.6z M805.6,3820.9h-3.1
			v11h-3.2v-22.1h3.2v8.4h3.1V3820.9z"/>
		<path class="st1" d="M827.3,3826.7v2.6h-20v-2.6H827.3z M825.2,3822.9c-3.8-0.8-6.7-2.9-8.1-5.7c-1.4,2.8-4.2,5-8.1,5.7l-1.3-2.7
			c5-0.8,7.7-4.3,7.7-7.5v-1.6h3.4v1.6c0,3.2,2.7,6.7,7.7,7.5L825.2,3822.9z"/>
		<path class="st1" d="M847,3821.6c-2.5-0.7-4.2-2.2-5.2-4.1c-1,2.1-2.8,3.7-5.4,4.5l-1.6-2.5c3.5-1,5.1-3.4,5.3-5.9h-4.4v-2.5h12
			v2.5h-4.3c0.2,2.3,1.8,4.6,5.2,5.6L847,3821.6z M850,3822.8h3.1v8.9h-14.7v-8.9h3.1v2h8.4V3822.8z M850,3827.3h-8.4v1.9h8.4
			V3827.3z M853.2,3809.9v12H850v-12H853.2z"/>
		<path class="st1" d="M863,3821.9c-3.4,0-6-2.3-6-5.4s2.6-5.4,6-5.4c3.4,0,6,2.3,6,5.4S866.4,3821.9,863,3821.9z M859.5,3823.8
			h14.7v8.2h-3.2v-5.7h-11.6V3823.8z M863,3819.2c1.7,0,2.9-1,2.9-2.7c0-1.7-1.2-2.7-2.9-2.7c-1.7,0-2.9,1-2.9,2.7
			C860.1,3818.2,861.4,3819.2,863,3819.2z M874.3,3815.3v2.2h2.8v2.6h-2.8v2.8h-3.2v-13h3.2v2.9h2.8v2.6H874.3z"/>
		<path class="st1" d="M899,3826.9v2.6h-20v-2.6h8.4v-4.6h-6.1v-10.9h15.4v2.5h-12.2v5.8h12.4v2.5h-6.3v4.6H899z"/>
	</g>
	<path id="패스_3186" class="st0" d="M1660.5,3873.4v356"/>
	<path id="패스_3180" class="st0" d="M1200.5,3873.4v356"/>
	<g class="st2">
		<path class="st3" d="M908.2,3915.6c-1.7,0.3-3.2,0.4-5.8,0.4h-1v-5.8h5.6v0.9h-4.4v3.9c2.5,0,3.9-0.1,5.5-0.4L908.2,3915.6z
			 M903.9,3920.5h7.2v0.9h-8.4v-4.1h1.1V3920.5z M912.4,3912.9v1h-1.9v4.4h-1.1v-9.1h1.1v3.7H912.4z"/>
		<path class="st3" d="M922,3916.4c-1.2,0.2-2.4,0.4-3.6,0.4v4.5h-1.1v-4.5c-1.2,0.1-2.4,0.1-3.5,0.1l-0.2-1c2.3,0,5.5,0,8.3-0.4
			L922,3916.4z M914.6,3912.4c0-1.5,1.3-2.6,3.2-2.6c1.9,0,3.2,1,3.2,2.6c0,1.5-1.3,2.6-3.2,2.6
			C915.9,3915,914.6,3913.9,914.6,3912.4z M915.7,3912.4c0,1,0.9,1.6,2.1,1.6c1.2,0,2.1-0.7,2.1-1.6s-0.9-1.6-2.1-1.6
			C916.5,3910.7,915.7,3911.4,915.7,3912.4z M924,3909.2v12.6h-1.1v-12.6H924z"/>
		<path class="st3" d="M929.9,3914.3c0-0.6,0.4-1,0.9-1c0.5,0,0.9,0.4,0.9,1c0,0.6-0.4,1-0.9,1
			C930.4,3915.3,929.9,3914.9,929.9,3914.3z M929.9,3919.9c0-0.6,0.4-1,0.9-1c0.5,0,0.9,0.4,0.9,1s-0.4,1-0.9,1
			C930.4,3920.9,929.9,3920.5,929.9,3919.9z"/>
	</g>
	<g class="st2">
		<path class="st3" d="M937.5,3918.4v-4.2h-1.1v-1l1.2-0.1l0.2-2.1h1.1v2.1h2.1v1h-2.1v4.2c0,0.9,0.3,1.5,1.2,1.5
			c0.3,0,0.6-0.1,0.9-0.2l0.3,1c-0.4,0.1-0.9,0.3-1.4,0.3C938,3920.9,937.5,3919.9,937.5,3918.4z"/>
		<path class="st3" d="M942,3915.6c0-3.3,1.9-5.3,4.6-5.3c1.2,0,2.2,0.6,2.8,1.3l-0.7,0.8c-0.5-0.6-1.2-1-2.1-1
			c-1.9,0-3.2,1.6-3.2,4.2c0,2.6,1.2,4.2,3.2,4.2c1,0,1.7-0.4,2.4-1.1l0.7,0.8c-0.8,0.9-1.8,1.5-3.2,1.5
			C944,3920.9,942,3918.9,942,3915.6z"/>
		<path class="st3" d="M950.5,3915.6c0-3.3,1.8-5.3,4.4-5.3c2.6,0,4.4,2,4.4,5.3s-1.8,5.4-4.4,5.4
			C952.3,3920.9,950.5,3918.8,950.5,3915.6z M958,3915.6c0-2.6-1.2-4.2-3.1-4.2c-1.8,0-3.1,1.6-3.1,4.2c0,2.6,1.2,4.2,3.1,4.2
			C956.7,3919.8,958,3918.1,958,3915.6z"/>
	</g>
	<g class="st2">
		<path class="st3" d="M960.5,3924.9c1.9-1.6,2.7-2.8,2.7-3.9c0-0.7-0.4-1.2-1.1-1.2c-0.5,0-0.9,0.3-1.2,0.7l-0.4-0.4
			c0.5-0.5,1-0.9,1.8-0.9c1.1,0,1.7,0.7,1.7,1.8c0,1.2-0.9,2.4-2.3,3.7c0.3,0,0.7-0.1,1-0.1h1.7v0.6h-3.8V3924.9z"/>
	</g>
	<g class="st2">
		<path class="st3" d="M965.3,3916.3h3.6v1h-3.6V3916.3z"/>
		<path class="st3" d="M970.2,3916.9c0-2.5,1.7-4,3.4-4c1.9,0,3,1.4,3,3.6c0,0.3,0,0.5-0.1,0.7h-5.1c0.1,1.6,1.1,2.7,2.5,2.7
			c0.7,0,1.3-0.2,1.9-0.6l0.5,0.8c-0.7,0.4-1.5,0.8-2.5,0.8C971.8,3920.9,970.2,3919.4,970.2,3916.9z M975.5,3916.3
			c0-1.5-0.7-2.4-1.9-2.4c-1.1,0-2,0.9-2.2,2.4H975.5z"/>
		<path class="st3" d="M983.4,3921.2l0.1-1.4c-0.6,0.6-1.4,1.1-2.3,1.1c-1.9,0-3.1-1.4-3.1-4c0-2.5,1.6-4,3.3-4
			c0.9,0,1.5,0.3,2.2,0.9h0l0.1-0.7h1v10.8h-1.3V3921.2z M983.4,3918.8v-4c-0.6-0.6-1.2-0.8-1.8-0.8c-1.2,0-2.2,1.2-2.2,2.9
			c0,1.8,0.8,2.9,2.1,2.9C982.1,3919.8,982.7,3919.5,983.4,3918.8z"/>
		<path class="st3" d="M993.4,3909.6h0.9l-4.2,13.6h-0.9L993.4,3909.6z"/>
	</g>
	<g class="st2">
		<path class="st3" d="M1005.5,3915.6c-1.4-0.5-2.6-1.5-3.2-2.9c-0.5,1.4-1.7,2.6-3.2,3.1l-0.6-0.9c1.9-0.7,3.2-2.3,3.2-4.1v-1.2
			h1.1v1.2c0,1.7,1.3,3.3,3.2,3.9L1005.5,3915.6z M1007.6,3916.6h1.1v5h-8.1v-5h1.1v1.5h5.8V3916.6z M1007.6,3919h-5.8v1.7h5.8V3919
			z M1008.7,3909.2v6.7h-1.1v-6.7H1008.7z"/>
		<path class="st3" d="M1021.7,3909.2v7.4h-1.2v-3.2h-2.6c-0.2,1.5-1.5,2.6-3.2,2.6c-1.9,0-3.2-1.2-3.2-3c0-1.8,1.4-3,3.2-3
			c1.7,0,3,1,3.2,2.5h2.6v-3.2H1021.7z M1016.9,3912.9c0-1.2-0.9-2-2.1-2c-1.2,0-2.1,0.9-2.1,2c0,1.2,0.9,2.1,2.1,2.1
			C1016,3915,1016.9,3914.1,1016.9,3912.9z M1013.3,3917.3h8.4v4.5h-1.2v-3.5h-7.2V3917.3z"/>
		<path class="st3" d="M1030.9,3915.9c-1.2,0.1-2.5,0.1-3.5,0.1l-0.2-1c2.3,0,5.4,0,8.1-0.4l0.1,0.8c-1.1,0.2-2.3,0.3-3.4,0.4v2.5
			h-1.1V3915.9z M1028.2,3911.9c0-1.3,1.3-2.2,3.1-2.2s3.1,0.9,3.1,2.2c0,1.3-1.3,2.2-3.1,2.2S1028.2,3913.2,1028.2,3911.9z
			 M1037.9,3920.5v0.9h-8.9v-3.7h1.1v2.7H1037.9z M1029.3,3911.9c0,0.8,0.8,1.3,2,1.3c1.2,0,2-0.5,2-1.3c0-0.8-0.8-1.3-2-1.3
			C1030.2,3910.6,1029.3,3911.1,1029.3,3911.9z M1036.5,3916.6v-7.4h1.1v9.6h-1.1v-1.3h-2.5v-0.9H1036.5z"/>
	</g>
	<path id="패스_3179" class="st4" d="M843,4229.3h60v-179.4h-60V4229.3z"/>
	<path id="패스_3181" class="st4" d="M940,4229.3h60v-192.8h-60V4229.3z"/>
	<path id="패스_3182" class="st1" d="M1037,4229.4h60v-229.9h-60V4229.4z"/>
	<g class="st2">
		<path class="st5" d="M860.3,4213.5c0.8-0.7,1.5-1.3,2-1.8c0.5-0.5,0.9-0.9,1.2-1.5c0.3-0.5,0.5-1,0.5-1.5c0-0.5-0.1-0.9-0.4-1.2
			s-0.6-0.4-1.2-0.4c-0.5,0-0.9,0.2-1.2,0.5c-0.3,0.3-0.4,0.8-0.4,1.3h-1.4c0-1,0.3-1.7,0.9-2.3c0.6-0.5,1.3-0.8,2.2-0.8
			c0.9,0,1.7,0.3,2.2,0.8c0.5,0.5,0.8,1.2,0.8,2.1c0,0.6-0.2,1.2-0.5,1.8c-0.3,0.6-0.7,1.1-1.1,1.5c-0.4,0.5-1,1-1.7,1.6l-0.6,0.5
			h4.1v1.2h-6.3v-1.1L860.3,4213.5z"/>
		<path class="st5" d="M867.7,4207.2c0.5-0.8,1.4-1.3,2.6-1.3c1.2,0,2.1,0.4,2.6,1.3c0.5,0.8,0.8,2,0.8,3.5c0,1.5-0.3,2.7-0.8,3.6
			c-0.5,0.9-1.4,1.3-2.6,1.3c-1.2,0-2.1-0.4-2.6-1.3s-0.8-2-0.8-3.6C866.9,4209.2,867.2,4208,867.7,4207.2z M872.1,4208.9
			c-0.1-0.5-0.3-0.9-0.6-1.2s-0.7-0.5-1.2-0.5c-0.5,0-1,0.2-1.2,0.5s-0.5,0.7-0.6,1.2s-0.1,1.1-0.1,1.8c0,0.7,0,1.3,0.1,1.8
			c0.1,0.5,0.3,0.9,0.6,1.2s0.7,0.5,1.2,0.5c0.5,0,1-0.2,1.2-0.5s0.5-0.7,0.6-1.2c0.1-0.5,0.1-1.1,0.1-1.8
			C872.2,4210,872.2,4209.4,872.1,4208.9z"/>
		<path class="st5" d="M875.1,4207.4v-1.4h2.7v9.5h-1.5v-8.1H875.1z"/>
		<path class="st5" d="M880.1,4208.4c0-0.5,0.1-0.9,0.4-1.3s0.6-0.7,1.1-0.9c0.5-0.2,1-0.3,1.7-0.3c0.7,0,1.2,0.1,1.7,0.3
			c0.5,0.2,0.8,0.5,1.1,0.9s0.4,0.8,0.4,1.3c0,0.5-0.1,0.9-0.4,1.3c-0.2,0.4-0.6,0.7-1,0.9c0.5,0.2,0.9,0.5,1.2,0.9
			c0.3,0.4,0.4,0.9,0.4,1.4c0,0.6-0.1,1.1-0.4,1.5c-0.3,0.4-0.7,0.8-1.2,1c-0.5,0.2-1.1,0.4-1.7,0.4s-1.2-0.1-1.7-0.4
			c-0.5-0.2-0.9-0.6-1.2-1c-0.3-0.4-0.4-0.9-0.4-1.5c0-0.6,0.1-1,0.4-1.5c0.3-0.4,0.7-0.7,1.2-0.9
			C880.5,4210.1,880.1,4209.4,880.1,4208.4z M881.8,4211.6c-0.4,0.3-0.5,0.7-0.5,1.2c0,0.5,0.2,0.9,0.5,1.2c0.3,0.3,0.8,0.5,1.4,0.5
			c0.6,0,1.1-0.2,1.4-0.5c0.3-0.3,0.5-0.7,0.5-1.2c0-0.5-0.2-0.9-0.5-1.2c-0.4-0.3-0.8-0.4-1.4-0.4
			C882.6,4211.2,882.2,4211.4,881.8,4211.6z M884.4,4207.5c-0.3-0.3-0.7-0.4-1.2-0.4c-0.5,0-0.9,0.1-1.2,0.4
			c-0.3,0.3-0.5,0.6-0.5,1.1c0,0.4,0.2,0.8,0.5,1.1c0.3,0.3,0.7,0.4,1.2,0.4s0.9-0.1,1.2-0.4c0.3-0.3,0.5-0.6,0.5-1.1
			C884.9,4208.1,884.7,4207.8,884.4,4207.5z"/>
	</g>
	<g class="st2">
		<path class="st5" d="M957.3,4213.5c0.8-0.7,1.5-1.3,2-1.8c0.5-0.5,0.9-0.9,1.2-1.5c0.3-0.5,0.5-1,0.5-1.5c0-0.5-0.1-0.9-0.4-1.2
			s-0.6-0.4-1.2-0.4c-0.5,0-0.9,0.2-1.2,0.5c-0.3,0.3-0.4,0.8-0.4,1.3h-1.4c0-1,0.3-1.7,0.9-2.3c0.6-0.5,1.3-0.8,2.2-0.8
			c0.9,0,1.7,0.3,2.2,0.8c0.5,0.5,0.8,1.2,0.8,2.1c0,0.6-0.2,1.2-0.5,1.8c-0.3,0.6-0.7,1.1-1.1,1.5c-0.4,0.5-1,1-1.7,1.6l-0.6,0.5
			h4.1v1.2h-6.3v-1.1L957.3,4213.5z"/>
		<path class="st5" d="M964.7,4207.2c0.5-0.8,1.4-1.3,2.6-1.3c1.2,0,2.1,0.4,2.6,1.3c0.5,0.8,0.8,2,0.8,3.5c0,1.5-0.3,2.7-0.8,3.6
			c-0.5,0.9-1.4,1.3-2.6,1.3c-1.2,0-2.1-0.4-2.6-1.3s-0.8-2-0.8-3.6C964,4209.2,964.2,4208,964.7,4207.2z M969.1,4208.9
			c-0.1-0.5-0.3-0.9-0.6-1.2s-0.7-0.5-1.2-0.5c-0.5,0-1,0.2-1.2,0.5s-0.5,0.7-0.6,1.2s-0.1,1.1-0.1,1.8c0,0.7,0,1.3,0.1,1.8
			c0.1,0.5,0.3,0.9,0.6,1.2s0.7,0.5,1.2,0.5c0.5,0,1-0.2,1.2-0.5s0.5-0.7,0.6-1.2c0.1-0.5,0.1-1.1,0.1-1.8
			C969.3,4210,969.2,4209.4,969.1,4208.9z"/>
		<path class="st5" d="M972.1,4207.4v-1.4h2.7v9.5h-1.5v-8.1H972.1z"/>
		<path class="st5" d="M979.2,4213.9c0.3,0.2,0.7,0.3,1.2,0.3c0.6,0,1.1-0.2,1.4-0.7c0.3-0.5,0.4-1.3,0.4-2.5
			c-0.2,0.3-0.5,0.5-0.9,0.7s-0.8,0.2-1.2,0.2c-0.6,0-1.1-0.1-1.5-0.3c-0.5-0.2-0.8-0.6-1.1-1c-0.3-0.5-0.4-1-0.4-1.7
			c0-1,0.3-1.7,0.8-2.3c0.6-0.6,1.3-0.9,2.3-0.9c1.2,0,2,0.4,2.5,1.2c0.5,0.8,0.7,2,0.7,3.6c0,1.1-0.1,2-0.3,2.7s-0.5,1.2-1,1.6
			c-0.5,0.4-1.1,0.5-1.9,0.5c-0.9,0-1.6-0.2-2.1-0.7c-0.5-0.5-0.8-1.1-0.8-1.8h1.4C978.8,4213.4,979,4213.7,979.2,4213.9z
			 M981.6,4210.3c0.3-0.3,0.4-0.8,0.4-1.3c0-0.6-0.2-1.1-0.5-1.4c-0.3-0.3-0.7-0.5-1.3-0.5s-1,0.2-1.3,0.5c-0.3,0.3-0.5,0.8-0.5,1.3
			c0,0.5,0.2,1,0.5,1.3c0.3,0.3,0.8,0.5,1.4,0.5C980.9,4210.7,981.3,4210.6,981.6,4210.3z"/>
	</g>
	<g class="st2">
		<path class="st6" d="M1052.4,4213.5c0.8-0.7,1.5-1.3,2-1.7c0.5-0.5,0.9-0.9,1.2-1.5c0.3-0.5,0.5-1,0.5-1.5c0-0.4-0.1-0.8-0.3-1
			c-0.2-0.3-0.5-0.4-1-0.4c-0.4,0-0.8,0.1-1,0.4c-0.2,0.3-0.4,0.7-0.4,1.2h-1.8c0-1,0.3-1.8,0.9-2.4s1.3-0.8,2.2-0.8
			c1,0,1.7,0.3,2.3,0.8s0.8,1.2,0.8,2.1c0,0.7-0.2,1.3-0.5,1.9c-0.4,0.6-0.8,1.2-1.2,1.6c-0.5,0.5-1.1,1-1.8,1.6h3.8v1.5h-6.4v-1.4
			L1052.4,4213.5z"/>
		<path class="st6" d="M1060.1,4207.1c0.5-0.8,1.4-1.3,2.7-1.3c1.3,0,2.2,0.4,2.7,1.3s0.8,2,0.8,3.5c0,1.5-0.3,2.7-0.8,3.5
			c-0.5,0.9-1.4,1.3-2.7,1.3c-1.3,0-2.2-0.4-2.7-1.3c-0.5-0.9-0.8-2-0.8-3.5C1059.3,4209.2,1059.6,4208,1060.1,4207.1z
			 M1064.4,4209.1c-0.1-0.4-0.2-0.8-0.5-1.1s-0.6-0.4-1.1-0.4c-0.5,0-0.9,0.1-1.1,0.4s-0.4,0.6-0.5,1.1s-0.1,1-0.1,1.6
			c0,0.7,0,1.2,0.1,1.7s0.2,0.8,0.5,1.1c0.3,0.3,0.6,0.4,1.1,0.4c0.5,0,0.9-0.1,1.1-0.4c0.3-0.3,0.4-0.6,0.5-1.1
			c0.1-0.4,0.1-1,0.1-1.7C1064.5,4210,1064.5,4209.5,1064.4,4209.1z"/>
		<path class="st6" d="M1068.3,4213.5c0.8-0.7,1.5-1.3,2-1.7c0.5-0.5,0.9-0.9,1.2-1.5c0.3-0.5,0.5-1,0.5-1.5c0-0.4-0.1-0.8-0.3-1
			c-0.2-0.3-0.5-0.4-1-0.4c-0.4,0-0.8,0.1-1,0.4c-0.2,0.3-0.4,0.7-0.4,1.2h-1.8c0-1,0.3-1.8,0.9-2.4s1.3-0.8,2.2-0.8
			c1,0,1.7,0.3,2.3,0.8s0.8,1.2,0.8,2.1c0,0.7-0.2,1.3-0.5,1.9c-0.4,0.6-0.8,1.2-1.2,1.6c-0.5,0.5-1.1,1-1.8,1.6h3.8v1.5h-6.4v-1.4
			L1068.3,4213.5z"/>
		<path class="st6" d="M1076,4207.1c0.5-0.8,1.4-1.3,2.7-1.3c1.3,0,2.2,0.4,2.7,1.3s0.8,2,0.8,3.5c0,1.5-0.3,2.7-0.8,3.5
			c-0.5,0.9-1.4,1.3-2.7,1.3c-1.3,0-2.2-0.4-2.7-1.3c-0.5-0.9-0.8-2-0.8-3.5C1075.2,4209.2,1075.4,4208,1076,4207.1z M1080.3,4209.1
			c-0.1-0.4-0.2-0.8-0.5-1.1s-0.6-0.4-1.1-0.4c-0.5,0-0.9,0.1-1.1,0.4s-0.4,0.6-0.5,1.1s-0.1,1-0.1,1.6c0,0.7,0,1.2,0.1,1.7
			s0.2,0.8,0.5,1.1c0.3,0.3,0.6,0.4,1.1,0.4c0.5,0,0.9-0.1,1.1-0.4c0.3-0.3,0.4-0.6,0.5-1.1c0.1-0.4,0.1-1,0.1-1.7
			C1080.4,4210,1080.3,4209.5,1080.3,4209.1z"/>
	</g>
	<path id="패스_3183" class="st4" d="M1303,4229.3h60V4033h-60V4229.3z"/>
	<path id="패스_3184" class="st4" d="M1400,4229.3h60v-223h-60V4229.3z"/>
	<g class="st2">
		<path class="st5" d="M1320.3,4213.5c0.8-0.7,1.5-1.3,2-1.8c0.5-0.5,0.9-0.9,1.2-1.5c0.3-0.5,0.5-1,0.5-1.5c0-0.5-0.1-0.9-0.4-1.2
			s-0.6-0.4-1.2-0.4c-0.5,0-0.9,0.2-1.2,0.5c-0.3,0.3-0.4,0.8-0.4,1.3h-1.4c0-1,0.3-1.7,0.9-2.3s1.3-0.8,2.2-0.8
			c0.9,0,1.7,0.3,2.2,0.8c0.5,0.5,0.8,1.2,0.8,2.1c0,0.6-0.2,1.2-0.5,1.8c-0.3,0.6-0.7,1.1-1.1,1.5s-1,1-1.7,1.6l-0.6,0.5h4.1v1.2
			h-6.3v-1.1L1320.3,4213.5z"/>
		<path class="st5" d="M1327.7,4207.2c0.5-0.8,1.4-1.3,2.6-1.3c1.2,0,2.1,0.4,2.6,1.3c0.5,0.8,0.8,2,0.8,3.5c0,1.5-0.3,2.7-0.8,3.6
			s-1.4,1.3-2.6,1.3c-1.2,0-2.1-0.4-2.6-1.3s-0.8-2-0.8-3.6C1326.9,4209.2,1327.2,4208,1327.7,4207.2z M1332.1,4208.9
			c-0.1-0.5-0.3-0.9-0.6-1.2s-0.7-0.5-1.2-0.5c-0.5,0-1,0.2-1.2,0.5s-0.5,0.7-0.6,1.2s-0.1,1.1-0.1,1.8c0,0.7,0,1.3,0.1,1.8
			c0.1,0.5,0.3,0.9,0.6,1.2c0.3,0.3,0.7,0.5,1.2,0.5c0.5,0,1-0.2,1.2-0.5c0.3-0.3,0.5-0.7,0.6-1.2c0.1-0.5,0.1-1.1,0.1-1.8
			C1332.2,4210,1332.2,4209.4,1332.1,4208.9z"/>
		<path class="st5" d="M1335.1,4207.4v-1.4h2.7v9.5h-1.5v-8.1H1335.1z"/>
		<path class="st5" d="M1340.1,4208.4c0-0.5,0.1-0.9,0.4-1.3c0.2-0.4,0.6-0.7,1.1-0.9c0.5-0.2,1-0.3,1.7-0.3c0.7,0,1.2,0.1,1.7,0.3
			c0.5,0.2,0.8,0.5,1.1,0.9c0.2,0.4,0.4,0.8,0.4,1.3c0,0.5-0.1,0.9-0.4,1.3c-0.2,0.4-0.6,0.7-1,0.9c0.5,0.2,0.9,0.5,1.2,0.9
			c0.3,0.4,0.4,0.9,0.4,1.4c0,0.6-0.1,1.1-0.4,1.5c-0.3,0.4-0.7,0.8-1.2,1c-0.5,0.2-1.1,0.4-1.7,0.4c-0.6,0-1.2-0.1-1.7-0.4
			c-0.5-0.2-0.9-0.6-1.2-1c-0.3-0.4-0.4-0.9-0.4-1.5c0-0.6,0.1-1,0.4-1.5c0.3-0.4,0.7-0.7,1.2-0.9
			C1340.5,4210.1,1340.1,4209.4,1340.1,4208.4z M1341.8,4211.6c-0.4,0.3-0.5,0.7-0.5,1.2c0,0.5,0.2,0.9,0.5,1.2
			c0.3,0.3,0.8,0.5,1.4,0.5c0.6,0,1.1-0.2,1.4-0.5c0.3-0.3,0.5-0.7,0.5-1.2c0-0.5-0.2-0.9-0.5-1.2s-0.8-0.4-1.4-0.4
			C1342.6,4211.2,1342.2,4211.4,1341.8,4211.6z M1344.4,4207.5c-0.3-0.3-0.7-0.4-1.2-0.4c-0.5,0-0.9,0.1-1.2,0.4
			c-0.3,0.3-0.5,0.6-0.5,1.1c0,0.4,0.2,0.8,0.5,1.1c0.3,0.3,0.7,0.4,1.2,0.4s0.9-0.1,1.2-0.4c0.3-0.3,0.5-0.6,0.5-1.1
			C1344.9,4208.1,1344.7,4207.8,1344.4,4207.5z"/>
	</g>
	<g class="st2">
		<path class="st5" d="M1417.3,4213.5c0.8-0.7,1.5-1.3,2-1.8c0.5-0.5,0.9-0.9,1.2-1.5c0.3-0.5,0.5-1,0.5-1.5c0-0.5-0.1-0.9-0.4-1.2
			s-0.6-0.4-1.2-0.4c-0.5,0-0.9,0.2-1.2,0.5c-0.3,0.3-0.4,0.8-0.4,1.3h-1.4c0-1,0.3-1.7,0.9-2.3c0.6-0.5,1.3-0.8,2.2-0.8
			c0.9,0,1.7,0.3,2.2,0.8c0.5,0.5,0.8,1.2,0.8,2.1c0,0.6-0.2,1.2-0.5,1.8c-0.3,0.6-0.7,1.1-1.1,1.5c-0.4,0.5-1,1-1.7,1.6l-0.6,0.5
			h4.1v1.2h-6.3v-1.1L1417.3,4213.5z"/>
		<path class="st5" d="M1424.7,4207.2c0.5-0.8,1.4-1.3,2.6-1.3s2.1,0.4,2.6,1.3c0.5,0.8,0.8,2,0.8,3.5c0,1.5-0.3,2.7-0.8,3.6
			c-0.5,0.9-1.4,1.3-2.6,1.3s-2.1-0.4-2.6-1.3s-0.8-2-0.8-3.6C1424,4209.2,1424.2,4208,1424.7,4207.2z M1429.1,4208.9
			c-0.1-0.5-0.3-0.9-0.6-1.2s-0.7-0.5-1.2-0.5s-1,0.2-1.2,0.5s-0.5,0.7-0.6,1.2s-0.1,1.1-0.1,1.8c0,0.7,0,1.3,0.1,1.8
			s0.3,0.9,0.6,1.2c0.3,0.3,0.7,0.5,1.2,0.5s1-0.2,1.2-0.5c0.3-0.3,0.5-0.7,0.6-1.2s0.1-1.1,0.1-1.8
			C1429.3,4210,1429.2,4209.4,1429.1,4208.9z"/>
		<path class="st5" d="M1432.1,4207.4v-1.4h2.7v9.5h-1.5v-8.1H1432.1z"/>
		<path class="st5" d="M1439.2,4213.9c0.3,0.2,0.7,0.3,1.2,0.3c0.6,0,1.1-0.2,1.4-0.7s0.4-1.3,0.4-2.5c-0.2,0.3-0.5,0.5-0.9,0.7
			s-0.8,0.2-1.2,0.2c-0.6,0-1.1-0.1-1.5-0.3c-0.5-0.2-0.8-0.6-1.1-1s-0.4-1-0.4-1.7c0-1,0.3-1.7,0.8-2.3c0.6-0.6,1.3-0.9,2.3-0.9
			c1.2,0,2,0.4,2.5,1.2c0.5,0.8,0.7,2,0.7,3.6c0,1.1-0.1,2-0.3,2.7s-0.5,1.2-1,1.6c-0.5,0.4-1.1,0.5-1.9,0.5c-0.9,0-1.6-0.2-2.1-0.7
			c-0.5-0.5-0.8-1.1-0.8-1.8h1.4C1438.8,4213.4,1439,4213.7,1439.2,4213.9z M1441.6,4210.3c0.3-0.3,0.4-0.8,0.4-1.3
			c0-0.6-0.2-1.1-0.5-1.4c-0.3-0.3-0.7-0.5-1.3-0.5s-1,0.2-1.3,0.5c-0.3,0.3-0.5,0.8-0.5,1.3c0,0.5,0.2,1,0.5,1.3
			c0.3,0.3,0.8,0.5,1.4,0.5C1440.9,4210.7,1441.3,4210.6,1441.6,4210.3z"/>
	</g>
	<g class="st2">
		<path class="st6" d="M1512.4,4213.5c0.8-0.7,1.5-1.3,2-1.7c0.5-0.5,0.9-0.9,1.2-1.5c0.3-0.5,0.5-1,0.5-1.5c0-0.4-0.1-0.8-0.3-1
			c-0.2-0.3-0.5-0.4-1-0.4s-0.8,0.1-1,0.4c-0.2,0.3-0.4,0.7-0.4,1.2h-1.8c0-1,0.3-1.8,0.9-2.4s1.3-0.8,2.2-0.8c1,0,1.7,0.3,2.3,0.8
			c0.5,0.5,0.8,1.2,0.8,2.1c0,0.7-0.2,1.3-0.5,1.9c-0.4,0.6-0.8,1.2-1.2,1.6c-0.5,0.5-1.1,1-1.8,1.6h3.8v1.5h-6.4v-1.4
			L1512.4,4213.5z"/>
		<path class="st6" d="M1520.1,4207.1c0.5-0.8,1.4-1.3,2.7-1.3s2.2,0.4,2.7,1.3c0.5,0.8,0.8,2,0.8,3.5c0,1.5-0.3,2.7-0.8,3.5
			c-0.5,0.9-1.4,1.3-2.7,1.3s-2.2-0.4-2.7-1.3c-0.5-0.9-0.8-2-0.8-3.5C1519.3,4209.2,1519.6,4208,1520.1,4207.1z M1524.4,4209.1
			c-0.1-0.4-0.2-0.8-0.5-1.1s-0.6-0.4-1.1-0.4s-0.9,0.1-1.1,0.4s-0.4,0.6-0.5,1.1c-0.1,0.4-0.1,1-0.1,1.6c0,0.7,0,1.2,0.1,1.7
			s0.2,0.8,0.5,1.1c0.3,0.3,0.6,0.4,1.1,0.4s0.9-0.1,1.1-0.4c0.3-0.3,0.4-0.6,0.5-1.1c0.1-0.4,0.1-1,0.1-1.7
			C1524.5,4210,1524.5,4209.5,1524.4,4209.1z"/>
		<path class="st6" d="M1528.3,4213.5c0.8-0.7,1.5-1.3,2-1.7c0.5-0.5,0.9-0.9,1.2-1.5c0.3-0.5,0.5-1,0.5-1.5c0-0.4-0.1-0.8-0.3-1
			c-0.2-0.3-0.5-0.4-1-0.4c-0.4,0-0.8,0.1-1,0.4c-0.2,0.3-0.4,0.7-0.4,1.2h-1.8c0-1,0.3-1.8,0.9-2.4s1.3-0.8,2.2-0.8
			c1,0,1.7,0.3,2.3,0.8c0.5,0.5,0.8,1.2,0.8,2.1c0,0.7-0.2,1.3-0.5,1.9s-0.8,1.2-1.2,1.6s-1.1,1-1.8,1.6h3.8v1.5h-6.4v-1.4
			L1528.3,4213.5z"/>
		<path class="st6" d="M1536,4207.1c0.5-0.8,1.4-1.3,2.7-1.3c1.3,0,2.2,0.4,2.7,1.3c0.5,0.8,0.8,2,0.8,3.5c0,1.5-0.3,2.7-0.8,3.5
			c-0.5,0.9-1.4,1.3-2.7,1.3c-1.3,0-2.2-0.4-2.7-1.3c-0.5-0.9-0.8-2-0.8-3.5C1535.2,4209.2,1535.4,4208,1536,4207.1z M1540.3,4209.1
			c-0.1-0.4-0.2-0.8-0.5-1.1s-0.6-0.4-1.1-0.4c-0.5,0-0.9,0.1-1.1,0.4s-0.4,0.6-0.5,1.1c-0.1,0.4-0.1,1-0.1,1.6c0,0.7,0,1.2,0.1,1.7
			s0.2,0.8,0.5,1.1c0.3,0.3,0.6,0.4,1.1,0.4c0.5,0,0.9-0.1,1.1-0.4c0.3-0.3,0.4-0.6,0.5-1.1s0.1-1,0.1-1.7
			C1540.4,4210,1540.3,4209.5,1540.3,4209.1z"/>
	</g>
	<g class="st2">
		<path class="st7" d="M1308.7,4015.3v-1.5l6-8.7h2.5v8.4h1.7v1.8h-1.7v2.7h-2v-2.7H1308.7z M1315.3,4007.2l-4.2,6.4h4.2V4007.2z"/>
		<path class="st7" d="M1323.9,4015.8c0.4,0.3,0.9,0.5,1.6,0.5c0.9,0,1.5-0.3,1.9-1c0.4-0.7,0.6-1.8,0.6-3.4
			c-0.3,0.4-0.7,0.7-1.2,0.9c-0.5,0.2-1.1,0.3-1.7,0.3c-0.8,0-1.5-0.2-2.1-0.5c-0.6-0.3-1.1-0.8-1.5-1.4s-0.5-1.4-0.5-2.3
			c0-1.3,0.4-2.4,1.2-3.2c0.8-0.8,1.8-1.2,3.2-1.2c1.6,0,2.8,0.5,3.5,1.6s1,2.8,1,5c0,1.5-0.1,2.8-0.4,3.8c-0.3,1-0.7,1.7-1.3,2.2
			c-0.6,0.5-1.5,0.8-2.6,0.8c-1.3,0-2.3-0.3-3-1c-0.7-0.7-1.1-1.5-1.2-2.5h1.9C1323.2,4015.1,1323.5,4015.5,1323.9,4015.8z
			 M1327.1,4010.7c0.4-0.5,0.6-1,0.6-1.8c0-0.8-0.2-1.5-0.7-1.9c-0.4-0.5-1-0.7-1.8-0.7s-1.4,0.2-1.8,0.7c-0.4,0.5-0.7,1.1-0.7,1.9
			c0,0.7,0.2,1.3,0.6,1.8c0.4,0.5,1.1,0.7,1.9,0.7C1326.1,4011.4,1326.7,4011.2,1327.1,4010.7z"/>
		<path class="st7" d="M1332.3,4008.2c0-0.6,0.2-1.2,0.5-1.8c0.3-0.5,0.8-1,1.5-1.3c0.6-0.3,1.4-0.5,2.4-0.5c0.9,0,1.7,0.2,2.4,0.5
			s1.1,0.7,1.5,1.3c0.3,0.5,0.5,1.1,0.5,1.8c0,0.7-0.2,1.3-0.5,1.8c-0.3,0.5-0.8,0.9-1.4,1.2c0.7,0.3,1.2,0.7,1.6,1.2
			c0.4,0.6,0.6,1.2,0.6,2c0,0.8-0.2,1.5-0.6,2.1c-0.4,0.6-0.9,1.1-1.7,1.4s-1.5,0.5-2.4,0.5c-0.9,0-1.7-0.2-2.4-0.5
			s-1.3-0.8-1.6-1.4c-0.4-0.6-0.6-1.3-0.6-2.1c0-0.8,0.2-1.5,0.6-2c0.4-0.6,0.9-1,1.6-1.2C1333,4010.6,1332.3,4009.6,1332.3,4008.2z
			 M1334.7,4012.7c-0.5,0.4-0.7,1-0.7,1.7c0,0.7,0.2,1.2,0.7,1.7c0.5,0.4,1.1,0.6,2,0.6c0.8,0,1.5-0.2,1.9-0.6
			c0.5-0.4,0.7-1,0.7-1.7c0-0.7-0.2-1.3-0.7-1.7c-0.5-0.4-1.1-0.6-1.9-0.6S1335.2,4012.3,1334.7,4012.7z M1338.4,4006.9
			c-0.4-0.4-1-0.5-1.7-0.5c-0.7,0-1.3,0.2-1.7,0.5c-0.4,0.4-0.6,0.9-0.6,1.6c0,0.6,0.2,1.1,0.7,1.5s1,0.6,1.7,0.6
			c0.7,0,1.2-0.2,1.7-0.6s0.7-0.9,0.7-1.5C1339,4007.8,1338.8,4007.3,1338.4,4006.9z"/>
		<path class="st7" d="M1343.6,4017.8c-0.3-0.3-0.4-0.6-0.4-0.9c0-0.4,0.1-0.7,0.4-0.9s0.6-0.4,0.9-0.4c0.4,0,0.7,0.1,0.9,0.4
			s0.4,0.6,0.4,0.9c0,0.4-0.1,0.7-0.4,0.9s-0.6,0.4-0.9,0.4C1344.2,4018.2,1343.9,4018,1343.6,4017.8z"/>
		<path class="st7" d="M1351.1,4015.8c0.4,0.3,0.9,0.5,1.6,0.5c0.9,0,1.5-0.3,1.9-1c0.4-0.7,0.6-1.8,0.6-3.4
			c-0.3,0.4-0.7,0.7-1.2,0.9c-0.5,0.2-1.1,0.3-1.7,0.3c-0.8,0-1.5-0.2-2.1-0.5c-0.6-0.3-1.1-0.8-1.5-1.4c-0.4-0.6-0.5-1.4-0.5-2.3
			c0-1.3,0.4-2.4,1.2-3.2c0.8-0.8,1.8-1.2,3.2-1.2c1.6,0,2.8,0.5,3.5,1.6c0.7,1.1,1,2.8,1,5c0,1.5-0.1,2.8-0.4,3.8s-0.7,1.7-1.3,2.2
			c-0.6,0.5-1.5,0.8-2.6,0.8c-1.3,0-2.3-0.3-3-1c-0.7-0.7-1.1-1.5-1.2-2.5h1.9C1350.5,4015.1,1350.7,4015.5,1351.1,4015.8z
			 M1354.4,4010.7c0.4-0.5,0.6-1,0.6-1.8c0-0.8-0.2-1.5-0.7-1.9c-0.4-0.5-1-0.7-1.8-0.7s-1.4,0.2-1.8,0.7c-0.4,0.5-0.7,1.1-0.7,1.9
			c0,0.7,0.2,1.3,0.6,1.8c0.4,0.5,1.1,0.7,1.9,0.7C1353.4,4011.4,1353.9,4011.2,1354.4,4010.7z"/>
	</g>
	<g class="st2">
		<path class="st7" d="M1415.1,3979h-6v3.6c0.3-0.3,0.6-0.6,1.1-0.8c0.5-0.2,1-0.3,1.6-0.3c1,0,1.8,0.2,2.5,0.6
			c0.6,0.4,1.1,1,1.3,1.6c0.3,0.7,0.4,1.4,0.4,2.1c0,0.9-0.2,1.7-0.5,2.4c-0.3,0.7-0.9,1.2-1.5,1.6c-0.7,0.4-1.5,0.6-2.5,0.6
			c-1.3,0-2.4-0.3-3.2-1c-0.8-0.6-1.3-1.5-1.4-2.6h2c0.1,0.6,0.4,1,0.9,1.3c0.5,0.3,1,0.5,1.7,0.5c0.9,0,1.5-0.3,1.9-0.8
			c0.4-0.5,0.6-1.2,0.6-2.1c0-0.9-0.2-1.5-0.6-2c-0.4-0.5-1.1-0.7-1.9-0.7c-0.6,0-1.1,0.1-1.5,0.4c-0.4,0.3-0.7,0.7-0.9,1.2h-1.9
			v-7.6h7.9V3979z"/>
		<path class="st7" d="M1424.4,3979.1c-0.3-0.3-0.8-0.4-1.5-0.4c-0.9,0-1.7,0.4-2.1,1.1c-0.5,0.7-0.7,1.9-0.7,3.6
			c0.3-0.5,0.8-0.9,1.4-1.2c0.6-0.3,1.2-0.4,1.9-0.4c0.8,0,1.5,0.2,2.1,0.5c0.6,0.3,1.1,0.8,1.4,1.5c0.3,0.6,0.5,1.4,0.5,2.3
			c0,0.8-0.2,1.6-0.5,2.2s-0.8,1.2-1.5,1.6s-1.4,0.6-2.3,0.6c-1.2,0-2.2-0.3-2.9-0.8c-0.7-0.5-1.2-1.3-1.5-2.3
			c-0.3-1-0.4-2.2-0.4-3.7c0-4.4,1.5-6.6,4.6-6.6c1.2,0,2.1,0.3,2.8,1c0.7,0.6,1.1,1.4,1.2,2.4h-1.9
			C1425,3979.8,1424.8,3979.4,1424.4,3979.1z M1421.1,3984.1c-0.5,0.4-0.8,1.1-0.8,1.9s0.2,1.5,0.7,2c0.5,0.5,1.1,0.7,2,0.7
			c0.8,0,1.4-0.2,1.8-0.7s0.7-1.1,0.7-1.9c0-0.8-0.2-1.5-0.6-2c-0.4-0.5-1.1-0.7-1.9-0.7C1422.2,3983.4,1421.6,3983.7,1421.1,3984.1
			z"/>
		<path class="st7" d="M1438,3978.9l-5,11.5h-2.1l5.1-11.3h-6.7v-1.7h8.7V3978.9z"/>
		<path class="st7" d="M1439.9,3990.2c-0.3-0.3-0.4-0.6-0.4-0.9c0-0.4,0.1-0.7,0.4-0.9s0.6-0.4,0.9-0.4c0.4,0,0.7,0.1,0.9,0.4
			s0.4,0.6,0.4,0.9c0,0.4-0.1,0.7-0.4,0.9s-0.6,0.4-0.9,0.4C1440.5,3990.5,1440.2,3990.4,1439.9,3990.2z"/>
		<path class="st7" d="M1444.4,3980.6c0-0.6,0.2-1.2,0.5-1.8c0.3-0.5,0.8-1,1.5-1.3s1.4-0.5,2.4-0.5c0.9,0,1.7,0.2,2.4,0.5
			c0.7,0.3,1.1,0.7,1.5,1.3c0.3,0.5,0.5,1.1,0.5,1.8c0,0.7-0.2,1.3-0.5,1.8c-0.3,0.5-0.8,0.9-1.4,1.2c0.7,0.3,1.2,0.7,1.6,1.2
			c0.4,0.6,0.6,1.2,0.6,2c0,0.8-0.2,1.5-0.6,2.1s-0.9,1.1-1.7,1.4s-1.5,0.5-2.4,0.5c-0.9,0-1.7-0.2-2.4-0.5
			c-0.7-0.3-1.2-0.8-1.6-1.4s-0.6-1.3-0.6-2.1c0-0.8,0.2-1.5,0.6-2s0.9-1,1.6-1.2C1445,3982.9,1444.4,3981.9,1444.4,3980.6z
			 M1446.8,3985c-0.5,0.4-0.7,1-0.7,1.7c0,0.7,0.2,1.2,0.7,1.7c0.5,0.4,1.1,0.6,2,0.6c0.8,0,1.5-0.2,1.9-0.6c0.5-0.4,0.7-1,0.7-1.7
			c0-0.7-0.2-1.3-0.7-1.7c-0.5-0.4-1.1-0.6-1.9-0.6C1447.9,3984.4,1447.3,3984.6,1446.8,3985z M1450.5,3979.3
			c-0.4-0.4-1-0.5-1.7-0.5c-0.7,0-1.3,0.2-1.7,0.5c-0.4,0.4-0.6,0.9-0.6,1.6c0,0.6,0.2,1.1,0.7,1.5c0.4,0.4,1,0.6,1.7,0.6
			c0.7,0,1.2-0.2,1.7-0.6c0.4-0.4,0.7-0.9,0.7-1.5C1451.1,3980.2,1450.9,3979.7,1450.5,3979.3z"/>
	</g>
	<g class="st2">
		<path class="st1" d="M1507.8,4076.3c0.8-0.6,1.8-0.9,3-0.9c0.8,0,1.6,0.2,2.2,0.5s1.1,0.7,1.4,1.2c0.3,0.5,0.5,1.1,0.5,1.7
			c0,0.7-0.2,1.4-0.6,1.9c-0.4,0.5-0.9,0.9-1.4,1.1v0.1c0.7,0.2,1.3,0.6,1.7,1.2c0.4,0.6,0.6,1.3,0.6,2.2c0,0.7-0.2,1.3-0.5,1.9
			s-0.8,1-1.4,1.3c-0.6,0.3-1.4,0.5-2.3,0.5c-1.3,0-2.4-0.3-3.2-1s-1.3-1.6-1.3-2.9h2c0,0.6,0.3,1.2,0.7,1.6c0.4,0.4,1,0.6,1.8,0.6
			c0.7,0,1.3-0.2,1.7-0.6c0.4-0.4,0.6-0.9,0.6-1.6c0-0.8-0.3-1.4-0.8-1.8s-1.4-0.5-2.5-0.5h-0.5v-1.7h0.5c1,0,1.7-0.2,2.2-0.5
			c0.5-0.3,0.8-0.8,0.8-1.5c0-0.6-0.2-1-0.6-1.4c-0.4-0.3-0.9-0.5-1.6-0.5c-0.7,0-1.2,0.2-1.6,0.5c-0.4,0.3-0.6,0.8-0.7,1.3h-2
			C1506.5,4077.8,1507,4076.9,1507.8,4076.3z"/>
		<path class="st1" d="M1516.9,4077.5v-1.9h3.7v13.1h-2.1v-11.2H1516.9z"/>
		<path class="st1" d="M1526.8,4086.6c0.4,0.3,0.9,0.5,1.6,0.5c0.9,0,1.5-0.3,1.9-1c0.4-0.7,0.6-1.8,0.6-3.4
			c-0.3,0.4-0.7,0.7-1.2,0.9c-0.5,0.2-1.1,0.3-1.7,0.3c-0.8,0-1.5-0.2-2.1-0.5c-0.6-0.3-1.1-0.8-1.5-1.4s-0.5-1.4-0.5-2.3
			c0-1.3,0.4-2.4,1.2-3.2c0.8-0.8,1.8-1.2,3.2-1.2c1.6,0,2.8,0.5,3.5,1.6s1,2.8,1,5c0,1.5-0.1,2.8-0.4,3.8c-0.3,1-0.7,1.7-1.3,2.2
			c-0.6,0.5-1.5,0.8-2.6,0.8c-1.3,0-2.3-0.3-3-1c-0.7-0.7-1.1-1.5-1.2-2.5h1.9C1526.2,4085.8,1526.4,4086.2,1526.8,4086.6z
			 M1530,4081.4c0.4-0.5,0.6-1,0.6-1.8c0-0.8-0.2-1.5-0.7-1.9c-0.4-0.5-1-0.7-1.8-0.7s-1.4,0.2-1.8,0.7c-0.4,0.5-0.7,1.1-0.7,1.9
			c0,0.7,0.2,1.3,0.6,1.8c0.4,0.5,1.1,0.7,1.9,0.7C1529.1,4082.1,1529.6,4081.9,1530,4081.4z"/>
		<path class="st1" d="M1535.1,4088.5c-0.3-0.3-0.4-0.6-0.4-0.9c0-0.4,0.1-0.7,0.4-0.9s0.6-0.4,0.9-0.4c0.4,0,0.7,0.1,0.9,0.4
			s0.4,0.6,0.4,0.9c0,0.4-0.1,0.7-0.4,0.9s-0.6,0.4-0.9,0.4C1535.7,4088.9,1535.3,4088.7,1535.1,4088.5z"/>
		<path class="st1" d="M1540.4,4086c1.2-1,2.1-1.8,2.7-2.5c0.7-0.6,1.2-1.3,1.7-2c0.4-0.7,0.7-1.4,0.7-2.1c0-0.7-0.2-1.3-0.5-1.7
			c-0.3-0.4-0.9-0.6-1.6-0.6c-0.7,0-1.3,0.2-1.6,0.7c-0.4,0.4-0.6,1.1-0.6,1.8h-2c0-1.4,0.4-2.4,1.2-3.1c0.8-0.7,1.8-1.1,3-1.1
			c1.3,0,2.3,0.4,3.1,1.1c0.7,0.7,1.1,1.7,1.1,2.9c0,0.9-0.2,1.7-0.7,2.5c-0.4,0.8-1,1.5-1.6,2.1c-0.6,0.6-1.4,1.4-2.3,2.2l-0.8,0.7
			h5.7v1.7h-8.7v-1.5L1540.4,4086z"/>
	</g>
	<g class="st2">
		<path class="st8" d="M938,3891.6c-0.7-0.3-1.2-0.7-1.6-1.3c-0.4-0.5-0.6-1.2-0.6-1.9h2.2c0,0.5,0.3,1,0.6,1.3
			c0.4,0.3,0.9,0.5,1.6,0.5c0.7,0,1.3-0.2,1.7-0.5s0.6-0.8,0.6-1.3c0-0.4-0.1-0.8-0.4-1c-0.2-0.3-0.6-0.5-0.9-0.6
			c-0.4-0.1-0.9-0.3-1.5-0.5c-0.8-0.2-1.5-0.4-2-0.7c-0.5-0.2-0.9-0.6-1.3-1c-0.4-0.5-0.5-1.1-0.5-1.9c0-0.7,0.2-1.3,0.5-1.9
			c0.4-0.5,0.9-1,1.5-1.2s1.4-0.4,2.2-0.4c1.2,0,2.2,0.3,3,0.9c0.8,0.6,1.2,1.4,1.3,2.5h-2.3c0-0.5-0.3-0.8-0.6-1.2
			c-0.4-0.3-0.9-0.5-1.6-0.5c-0.6,0-1.1,0.2-1.4,0.5c-0.4,0.3-0.6,0.7-0.6,1.3c0,0.4,0.1,0.7,0.4,0.9c0.2,0.2,0.5,0.4,0.9,0.6
			c0.4,0.1,0.9,0.3,1.5,0.5c0.8,0.2,1.5,0.5,2,0.7c0.5,0.2,1,0.6,1.3,1.1c0.4,0.5,0.5,1.1,0.5,1.9c0,0.6-0.2,1.2-0.5,1.8
			c-0.3,0.6-0.8,1-1.5,1.4c-0.7,0.3-1.4,0.5-2.3,0.5C939.5,3892,938.7,3891.9,938,3891.6z"/>
		<path class="st8" d="M947.2,3882.3c0.6-1,1.3-1.7,2.3-2.3s2-0.8,3.2-0.8c1.3,0,2.5,0.3,3.6,1c1,0.7,1.8,1.6,2.3,2.8h-2.5
			c-0.3-0.7-0.8-1.2-1.3-1.5c-0.6-0.3-1.2-0.5-2-0.5c-0.8,0-1.6,0.2-2.2,0.6c-0.6,0.4-1.2,0.9-1.5,1.6s-0.5,1.5-0.5,2.4
			c0,0.9,0.2,1.7,0.5,2.4c0.4,0.7,0.9,1.2,1.5,1.6c0.6,0.4,1.4,0.6,2.2,0.6c0.8,0,1.4-0.2,2-0.5c0.6-0.3,1-0.8,1.3-1.5h2.5
			c-0.5,1.2-1.2,2.1-2.3,2.8c-1,0.6-2.2,1-3.6,1c-1.2,0-2.2-0.3-3.2-0.8s-1.7-1.3-2.3-2.3c-0.6-1-0.9-2.1-0.9-3.3
			C946.4,3884.4,946.7,3883.3,947.2,3882.3z"/>
		<path class="st8" d="M963.5,3891.2c-1-0.5-1.8-1.3-2.3-2.3c-0.6-1-0.9-2.1-0.9-3.3c0-1.2,0.3-2.3,0.9-3.3c0.6-1,1.3-1.7,2.3-2.3
			s2-0.8,3.2-0.8c1.2,0,2.3,0.3,3.2,0.8c1,0.5,1.7,1.3,2.3,2.3c0.6,1,0.8,2.1,0.8,3.3c0,1.2-0.3,2.3-0.8,3.3c-0.6,1-1.3,1.7-2.3,2.3
			c-1,0.5-2.1,0.8-3.2,0.8C965.5,3892,964.5,3891.8,963.5,3891.2z M968.9,3889.7c0.6-0.4,1.2-0.9,1.5-1.6c0.4-0.7,0.5-1.5,0.5-2.4
			c0-0.9-0.2-1.7-0.5-2.4c-0.4-0.7-0.9-1.2-1.5-1.6c-0.6-0.4-1.4-0.6-2.2-0.6c-0.8,0-1.6,0.2-2.2,0.6c-0.6,0.4-1.2,0.9-1.5,1.6
			s-0.5,1.5-0.5,2.4c0,0.9,0.2,1.7,0.5,2.4s0.9,1.2,1.5,1.6c0.6,0.4,1.4,0.6,2.2,0.6C967.5,3890.3,968.3,3890.1,968.9,3889.7z"/>
		<path class="st8" d="M983.4,3884.9c-0.3,0.6-0.8,1-1.4,1.4c-0.7,0.4-1.5,0.5-2.5,0.5h-2.3v5.1h-2.1v-12.5h4.3c1,0,1.8,0.2,2.4,0.5
			s1.2,0.8,1.5,1.3s0.5,1.2,0.5,1.9C983.8,3883.8,983.7,3884.4,983.4,3884.9z M981.2,3884.6c0.4-0.4,0.6-0.9,0.6-1.5
			c0-1.4-0.8-2.1-2.3-2.1h-2.3v4.1h2.3C980.2,3885.2,980.8,3885,981.2,3884.6z"/>
		<path class="st8" d="M987.9,3881.1v3.7h4.3v1.7h-4.3v3.8h4.9v1.7h-6.9v-12.5h6.9v1.7H987.9z"/>
		<path class="st8" d="M999.4,3880.7v-1.9h3.7v13.1h-2.1v-11.2H999.4z"/>
	</g>
	<g class="st2">
		<path class="st3" d="M1368.4,3915.6c-1.7,0.3-3.2,0.4-5.8,0.4h-1v-5.8h5.6v0.9h-4.4v3.9c2.5,0,3.9-0.1,5.5-0.4L1368.4,3915.6z
			 M1364.1,3920.5h7.2v0.9h-8.4v-4.1h1.1V3920.5z M1372.6,3912.9v1h-1.9v4.4h-1.1v-9.1h1.1v3.7H1372.6z"/>
		<path class="st3" d="M1382.3,3916.4c-1.2,0.2-2.4,0.4-3.6,0.4v4.5h-1.1v-4.5c-1.2,0.1-2.4,0.1-3.5,0.1l-0.2-1c2.3,0,5.5,0,8.3-0.4
			L1382.3,3916.4z M1374.8,3912.4c0-1.5,1.3-2.6,3.2-2.6c1.9,0,3.2,1,3.2,2.6c0,1.5-1.3,2.6-3.2,2.6
			C1376.1,3915,1374.8,3913.9,1374.8,3912.4z M1375.9,3912.4c0,1,0.9,1.6,2.1,1.6c1.2,0,2.1-0.7,2.1-1.6s-0.9-1.6-2.1-1.6
			C1376.8,3910.7,1375.9,3911.4,1375.9,3912.4z M1384.2,3909.2v12.6h-1.1v-12.6H1384.2z"/>
		<path class="st3" d="M1390.2,3914.3c0-0.6,0.4-1,0.9-1s0.9,0.4,0.9,1c0,0.6-0.4,1-0.9,1S1390.2,3914.9,1390.2,3914.3z
			 M1390.2,3919.9c0-0.6,0.4-1,0.9-1s0.9,0.4,0.9,1s-0.4,1-0.9,1S1390.2,3920.5,1390.2,3919.9z"/>
	</g>
	<g class="st2">
		<path class="st3" d="M1397.7,3918.4v-4.2h-1.1v-1l1.2-0.1l0.2-2.1h1.1v2.1h2.1v1h-2.1v4.2c0,0.9,0.3,1.5,1.2,1.5
			c0.3,0,0.6-0.1,0.9-0.2l0.3,1c-0.4,0.1-0.9,0.3-1.4,0.3C1398.3,3920.9,1397.7,3919.9,1397.7,3918.4z"/>
		<path class="st3" d="M1402.3,3915.6c0-3.3,1.9-5.3,4.6-5.3c1.2,0,2.2,0.6,2.8,1.3l-0.7,0.8c-0.5-0.6-1.2-1-2.1-1
			c-1.9,0-3.2,1.6-3.2,4.2c0,2.6,1.2,4.2,3.2,4.2c1,0,1.7-0.4,2.4-1.1l0.7,0.8c-0.8,0.9-1.8,1.5-3.2,1.5
			C1404.2,3920.9,1402.3,3918.9,1402.3,3915.6z"/>
		<path class="st3" d="M1410.8,3915.6c0-3.3,1.8-5.3,4.4-5.3c2.6,0,4.4,2,4.4,5.3s-1.8,5.4-4.4,5.4
			C1412.6,3920.9,1410.8,3918.8,1410.8,3915.6z M1418.2,3915.6c0-2.6-1.2-4.2-3.1-4.2c-1.8,0-3.1,1.6-3.1,4.2c0,2.6,1.2,4.2,3.1,4.2
			C1417,3919.8,1418.2,3918.1,1418.2,3915.6z"/>
	</g>
	<g class="st2">
		<path class="st3" d="M1420.7,3924.9c1.9-1.6,2.7-2.8,2.7-3.9c0-0.7-0.4-1.2-1.1-1.2c-0.5,0-0.9,0.3-1.2,0.7l-0.4-0.4
			c0.5-0.5,1-0.9,1.8-0.9c1.1,0,1.7,0.7,1.7,1.8c0,1.2-0.9,2.4-2.3,3.7c0.3,0,0.7-0.1,1-0.1h1.7v0.6h-3.8V3924.9z"/>
	</g>
	<g class="st2">
		<path class="st3" d="M1425.5,3916.3h3.6v1h-3.6V3916.3z"/>
		<path class="st3" d="M1430.5,3916.9c0-2.5,1.7-4,3.4-4c1.9,0,3,1.4,3,3.6c0,0.3,0,0.5-0.1,0.7h-5.1c0.1,1.6,1.1,2.7,2.5,2.7
			c0.7,0,1.3-0.2,1.9-0.6l0.5,0.8c-0.7,0.4-1.5,0.8-2.5,0.8C1432.1,3920.9,1430.5,3919.4,1430.5,3916.9z M1435.8,3916.3
			c0-1.5-0.7-2.4-1.9-2.4c-1.1,0-2,0.9-2.2,2.4H1435.8z"/>
		<path class="st3" d="M1443.6,3921.2l0.1-1.4c-0.6,0.6-1.4,1.1-2.3,1.1c-1.9,0-3.1-1.4-3.1-4c0-2.5,1.6-4,3.3-4
			c0.9,0,1.5,0.3,2.2,0.9h0l0.1-0.7h1v10.8h-1.3V3921.2z M1443.6,3918.8v-4c-0.6-0.6-1.2-0.8-1.8-0.8c-1.2,0-2.2,1.2-2.2,2.9
			c0,1.8,0.8,2.9,2.1,2.9C1442.4,3919.8,1443,3919.5,1443.6,3918.8z"/>
		<path class="st3" d="M1453.7,3909.6h0.9l-4.2,13.6h-0.9L1453.7,3909.6z"/>
	</g>
	<g class="st2">
		<path class="st3" d="M1465.7,3915.6c-1.4-0.5-2.6-1.5-3.2-2.9c-0.5,1.4-1.7,2.6-3.2,3.1l-0.6-0.9c1.9-0.7,3.2-2.3,3.2-4.1v-1.2
			h1.1v1.2c0,1.7,1.3,3.3,3.2,3.9L1465.7,3915.6z M1467.9,3916.6h1.1v5h-8.1v-5h1.1v1.5h5.8V3916.6z M1467.9,3919h-5.8v1.7h5.8V3919
			z M1469,3909.2v6.7h-1.1v-6.7H1469z"/>
		<path class="st3" d="M1481.9,3909.2v7.4h-1.2v-3.2h-2.6c-0.2,1.5-1.5,2.6-3.2,2.6c-1.9,0-3.2-1.2-3.2-3c0-1.8,1.4-3,3.2-3
			c1.7,0,3,1,3.2,2.5h2.6v-3.2H1481.9z M1477.1,3912.9c0-1.2-0.9-2-2.1-2c-1.2,0-2.1,0.9-2.1,2c0,1.2,0.9,2.1,2.1,2.1
			C1476.2,3915,1477.1,3914.1,1477.1,3912.9z M1473.5,3917.3h8.4v4.5h-1.2v-3.5h-7.2V3917.3z"/>
		<path class="st3" d="M1491.2,3915.9c-1.2,0.1-2.5,0.1-3.5,0.1l-0.2-1c2.3,0,5.4,0,8.1-0.4l0.1,0.8c-1.1,0.2-2.3,0.3-3.4,0.4v2.5
			h-1.1V3915.9z M1488.5,3911.9c0-1.3,1.3-2.2,3.1-2.2s3.1,0.9,3.1,2.2c0,1.3-1.3,2.2-3.1,2.2S1488.5,3913.2,1488.5,3911.9z
			 M1498.2,3920.5v0.9h-8.9v-3.7h1.1v2.7H1498.2z M1489.6,3911.9c0,0.8,0.8,1.3,2,1.3s2-0.5,2-1.3c0-0.8-0.8-1.3-2-1.3
			S1489.6,3911.1,1489.6,3911.9z M1496.7,3916.6v-7.4h1.1v9.6h-1.1v-1.3h-2.5v-0.9H1496.7z"/>
	</g>
	<g class="st2">
		<path class="st8" d="M1396.2,3891.6c-0.7-0.3-1.2-0.7-1.6-1.3c-0.4-0.5-0.6-1.2-0.6-1.9h2.2c0,0.5,0.3,1,0.6,1.3
			c0.4,0.3,0.9,0.5,1.6,0.5c0.7,0,1.3-0.2,1.7-0.5c0.4-0.3,0.6-0.8,0.6-1.3c0-0.4-0.1-0.8-0.4-1s-0.6-0.5-0.9-0.6
			c-0.4-0.1-0.9-0.3-1.5-0.5c-0.8-0.2-1.5-0.4-2-0.7c-0.5-0.2-0.9-0.6-1.3-1c-0.4-0.5-0.5-1.1-0.5-1.9c0-0.7,0.2-1.3,0.5-1.9
			c0.4-0.5,0.9-1,1.5-1.2c0.6-0.3,1.4-0.4,2.2-0.4c1.2,0,2.2,0.3,3,0.9c0.8,0.6,1.2,1.4,1.3,2.5h-2.3c0-0.5-0.3-0.8-0.6-1.2
			c-0.4-0.3-0.9-0.5-1.6-0.5c-0.6,0-1.1,0.2-1.4,0.5s-0.6,0.7-0.6,1.3c0,0.4,0.1,0.7,0.4,0.9c0.2,0.2,0.5,0.4,0.9,0.6
			c0.4,0.1,0.9,0.3,1.5,0.5c0.8,0.2,1.5,0.5,2,0.7c0.5,0.2,1,0.6,1.3,1.1c0.4,0.5,0.5,1.1,0.5,1.9c0,0.6-0.2,1.2-0.5,1.8
			c-0.3,0.6-0.8,1-1.5,1.4c-0.7,0.3-1.4,0.5-2.3,0.5C1397.6,3892,1396.8,3891.9,1396.2,3891.6z"/>
		<path class="st8" d="M1405.3,3882.3c0.6-1,1.3-1.7,2.3-2.3c1-0.5,2-0.8,3.2-0.8c1.3,0,2.5,0.3,3.6,1c1,0.7,1.8,1.6,2.3,2.8h-2.5
			c-0.3-0.7-0.8-1.2-1.3-1.5c-0.6-0.3-1.2-0.5-2-0.5c-0.8,0-1.6,0.2-2.2,0.6c-0.6,0.4-1.2,0.9-1.5,1.6s-0.5,1.5-0.5,2.4
			c0,0.9,0.2,1.7,0.5,2.4c0.4,0.7,0.9,1.2,1.5,1.6c0.6,0.4,1.4,0.6,2.2,0.6c0.8,0,1.4-0.2,2-0.5c0.6-0.3,1-0.8,1.3-1.5h2.5
			c-0.5,1.2-1.2,2.1-2.3,2.8c-1,0.6-2.2,1-3.6,1c-1.2,0-2.2-0.3-3.2-0.8c-1-0.5-1.7-1.3-2.3-2.3c-0.6-1-0.9-2.1-0.9-3.3
			C1404.5,3884.4,1404.8,3883.3,1405.3,3882.3z"/>
		<path class="st8" d="M1421.6,3891.2c-1-0.5-1.8-1.3-2.3-2.3c-0.6-1-0.9-2.1-0.9-3.3c0-1.2,0.3-2.3,0.9-3.3c0.6-1,1.3-1.7,2.3-2.3
			c1-0.5,2-0.8,3.2-0.8c1.2,0,2.3,0.3,3.2,0.8s1.7,1.3,2.3,2.3c0.6,1,0.8,2.1,0.8,3.3c0,1.2-0.3,2.3-0.8,3.3c-0.6,1-1.3,1.7-2.3,2.3
			c-1,0.5-2.1,0.8-3.2,0.8C1423.6,3892,1422.6,3891.8,1421.6,3891.2z M1427,3889.7c0.6-0.4,1.2-0.9,1.5-1.6s0.5-1.5,0.5-2.4
			c0-0.9-0.2-1.7-0.5-2.4s-0.9-1.2-1.5-1.6c-0.6-0.4-1.4-0.6-2.2-0.6c-0.8,0-1.6,0.2-2.2,0.6c-0.6,0.4-1.2,0.9-1.5,1.6
			s-0.5,1.5-0.5,2.4c0,0.9,0.2,1.7,0.5,2.4s0.9,1.2,1.5,1.6c0.6,0.4,1.4,0.6,2.2,0.6C1425.6,3890.3,1426.4,3890.1,1427,3889.7z"/>
		<path class="st8" d="M1441.5,3884.9c-0.3,0.6-0.8,1-1.4,1.4c-0.7,0.4-1.5,0.5-2.5,0.5h-2.3v5.1h-2.1v-12.5h4.3
			c1,0,1.8,0.2,2.4,0.5s1.2,0.8,1.5,1.3s0.5,1.2,0.5,1.9C1441.9,3883.8,1441.8,3884.4,1441.5,3884.9z M1439.3,3884.6
			c0.4-0.4,0.6-0.9,0.6-1.5c0-1.4-0.8-2.1-2.3-2.1h-2.3v4.1h2.3C1438.3,3885.2,1438.9,3885,1439.3,3884.6z"/>
		<path class="st8" d="M1446,3881.1v3.7h4.3v1.7h-4.3v3.8h4.9v1.7h-6.9v-12.5h6.9v1.7H1446z"/>
		<path class="st8" d="M1458.9,3889.1c1.2-1,2.1-1.8,2.7-2.5c0.7-0.6,1.2-1.3,1.7-2c0.4-0.7,0.7-1.4,0.7-2.1c0-0.7-0.2-1.3-0.5-1.7
			c-0.3-0.4-0.9-0.6-1.6-0.6c-0.7,0-1.3,0.2-1.6,0.7c-0.4,0.4-0.6,1.1-0.6,1.8h-2c0-1.4,0.4-2.4,1.2-3.1c0.8-0.7,1.8-1.1,3-1.1
			c1.3,0,2.3,0.4,3.1,1.1c0.7,0.7,1.1,1.7,1.1,2.9c0,0.9-0.2,1.7-0.7,2.5c-0.4,0.8-1,1.5-1.6,2.1c-0.6,0.6-1.4,1.4-2.3,2.2l-0.8,0.7
			h5.7v1.7h-8.7v-1.5L1458.9,3889.1z"/>
	</g>
	<g class="st2">
		<path class="st7" d="M850.6,4032.1c1.2-1,2.1-1.8,2.7-2.5c0.7-0.6,1.2-1.3,1.7-2s0.7-1.4,0.7-2.1c0-0.7-0.2-1.3-0.5-1.7
			c-0.3-0.4-0.9-0.6-1.6-0.6c-0.7,0-1.3,0.2-1.6,0.7c-0.4,0.4-0.6,1.1-0.6,1.8h-2c0-1.4,0.4-2.4,1.2-3.1c0.8-0.7,1.8-1.1,3-1.1
			c1.3,0,2.3,0.4,3.1,1.1c0.7,0.7,1.1,1.7,1.1,2.9c0,0.9-0.2,1.7-0.7,2.5c-0.4,0.8-1,1.5-1.6,2.1s-1.4,1.4-2.3,2.2l-0.8,0.7h5.7v1.7
			h-8.7v-1.5L850.6,4032.1z"/>
		<path class="st7" d="M860.2,4025.1c0-0.6,0.2-1.2,0.5-1.8c0.3-0.5,0.8-1,1.5-1.3c0.6-0.3,1.4-0.5,2.4-0.5c0.9,0,1.7,0.2,2.4,0.5
			c0.7,0.3,1.1,0.7,1.5,1.3c0.3,0.5,0.5,1.1,0.5,1.8c0,0.7-0.2,1.3-0.5,1.8c-0.3,0.5-0.8,0.9-1.4,1.2c0.7,0.3,1.2,0.7,1.6,1.2
			c0.4,0.6,0.6,1.2,0.6,2c0,0.8-0.2,1.5-0.6,2.1s-0.9,1.1-1.7,1.4s-1.5,0.5-2.4,0.5c-0.9,0-1.7-0.2-2.4-0.5
			c-0.7-0.3-1.3-0.8-1.6-1.4s-0.6-1.3-0.6-2.1c0-0.8,0.2-1.5,0.6-2s0.9-1,1.6-1.2C860.8,4027.4,860.2,4026.4,860.2,4025.1z
			 M862.6,4029.5c-0.5,0.4-0.7,1-0.7,1.7c0,0.7,0.2,1.2,0.7,1.7c0.5,0.4,1.1,0.6,2,0.6c0.8,0,1.5-0.2,1.9-0.6c0.5-0.4,0.7-1,0.7-1.7
			c0-0.7-0.2-1.3-0.7-1.7c-0.5-0.4-1.1-0.6-1.9-0.6S863.1,4029.1,862.6,4029.5z M866.2,4023.8c-0.4-0.4-1-0.5-1.7-0.5
			c-0.7,0-1.3,0.2-1.7,0.5c-0.4,0.4-0.6,0.9-0.6,1.6c0,0.6,0.2,1.1,0.7,1.5c0.4,0.4,1,0.6,1.7,0.6c0.7,0,1.2-0.2,1.7-0.6
			c0.4-0.4,0.7-0.9,0.7-1.5C866.9,4024.7,866.7,4024.2,866.2,4023.8z"/>
		<path class="st7" d="M871.7,4025.1c0-0.6,0.2-1.2,0.5-1.8c0.3-0.5,0.8-1,1.5-1.3c0.6-0.3,1.4-0.5,2.4-0.5c0.9,0,1.7,0.2,2.4,0.5
			c0.7,0.3,1.1,0.7,1.5,1.3c0.3,0.5,0.5,1.1,0.5,1.8c0,0.7-0.2,1.3-0.5,1.8c-0.3,0.5-0.8,0.9-1.4,1.2c0.7,0.3,1.2,0.7,1.6,1.2
			c0.4,0.6,0.6,1.2,0.6,2c0,0.8-0.2,1.5-0.6,2.1s-0.9,1.1-1.7,1.4s-1.5,0.5-2.4,0.5c-0.9,0-1.7-0.2-2.4-0.5
			c-0.7-0.3-1.3-0.8-1.6-1.4s-0.6-1.3-0.6-2.1c0-0.8,0.2-1.5,0.6-2s0.9-1,1.6-1.2C872.3,4027.4,871.7,4026.4,871.7,4025.1z
			 M874.1,4029.5c-0.5,0.4-0.7,1-0.7,1.7c0,0.7,0.2,1.2,0.7,1.7c0.5,0.4,1.1,0.6,2,0.6c0.8,0,1.5-0.2,1.9-0.6c0.5-0.4,0.7-1,0.7-1.7
			c0-0.7-0.2-1.3-0.7-1.7c-0.5-0.4-1.1-0.6-1.9-0.6S874.6,4029.1,874.1,4029.5z M877.7,4023.8c-0.4-0.4-1-0.5-1.7-0.5
			c-0.7,0-1.3,0.2-1.7,0.5c-0.4,0.4-0.6,0.9-0.6,1.6c0,0.6,0.2,1.1,0.7,1.5c0.4,0.4,1,0.6,1.7,0.6c0.7,0,1.2-0.2,1.7-0.6
			c0.4-0.4,0.7-0.9,0.7-1.5C878.4,4024.7,878.1,4024.2,877.7,4023.8z"/>
		<path class="st7" d="M883,4034.6c-0.3-0.3-0.4-0.6-0.4-0.9c0-0.4,0.1-0.7,0.4-0.9s0.6-0.4,0.9-0.4c0.4,0,0.7,0.1,0.9,0.4
			s0.4,0.6,0.4,0.9c0,0.4-0.1,0.7-0.4,0.9s-0.6,0.4-0.9,0.4C883.5,4035,883.2,4034.9,883,4034.6z"/>
		<path class="st7" d="M888.2,4023.3c0.7-1.2,1.9-1.8,3.6-1.8c1.7,0,2.9,0.6,3.6,1.8c0.7,1.2,1.1,2.8,1.1,4.9c0,2.1-0.4,3.7-1.1,4.9
			c-0.7,1.2-1.9,1.8-3.6,1.8c-1.7,0-2.9-0.6-3.6-1.8c-0.7-1.2-1.1-2.8-1.1-4.9C887.2,4026.1,887.5,4024.5,888.2,4023.3z
			 M894.3,4025.7c-0.1-0.7-0.4-1.2-0.8-1.6c-0.4-0.4-1-0.6-1.7-0.6c-0.8,0-1.3,0.2-1.7,0.6c-0.4,0.4-0.6,1-0.8,1.6
			c-0.1,0.7-0.2,1.5-0.2,2.5c0,1,0.1,1.9,0.2,2.5c0.1,0.7,0.4,1.2,0.8,1.7c0.4,0.4,1,0.6,1.7,0.6c0.8,0,1.3-0.2,1.7-0.6
			c0.4-0.4,0.6-1,0.8-1.7c0.1-0.7,0.2-1.5,0.2-2.5C894.5,4027.2,894.4,4026.4,894.3,4025.7z"/>
	</g>
	<g class="st2">
		<path class="st7" d="M947.4,4017.7c1.2-1,2.1-1.8,2.7-2.5c0.7-0.6,1.2-1.3,1.7-2s0.7-1.4,0.7-2.1c0-0.7-0.2-1.3-0.5-1.7
			c-0.3-0.4-0.9-0.6-1.6-0.6c-0.7,0-1.3,0.2-1.6,0.7c-0.4,0.4-0.6,1.1-0.6,1.8h-2c0-1.4,0.4-2.4,1.2-3.1c0.8-0.7,1.8-1.1,3-1.1
			c1.3,0,2.3,0.4,3.1,1.1c0.7,0.7,1.1,1.7,1.1,2.9c0,0.9-0.2,1.7-0.7,2.5c-0.4,0.8-1,1.5-1.6,2.1s-1.4,1.4-2.3,2.2l-0.8,0.7h5.7v1.7
			h-8.7v-1.5L947.4,4017.7z"/>
		<path class="st7" d="M956.4,4017.8v-1.5l6-8.7h2.5v8.4h1.7v1.8H965v2.7h-2v-2.7H956.4z M963,4009.6l-4.2,6.4h4.2V4009.6z"/>
		<path class="st7" d="M968.1,4017.8v-1.5l6-8.7h2.5v8.4h1.7v1.8h-1.7v2.7h-2v-2.7H968.1z M974.7,4009.6l-4.2,6.4h4.2V4009.6z"/>
		<path class="st7" d="M980.1,4020.3c-0.3-0.3-0.4-0.6-0.4-0.9c0-0.4,0.1-0.7,0.4-0.9s0.6-0.4,0.9-0.4c0.4,0,0.7,0.1,0.9,0.4
			s0.4,0.6,0.4,0.9c0,0.4-0.1,0.7-0.4,0.9s-0.6,0.4-0.9,0.4C980.7,4020.6,980.4,4020.5,980.1,4020.3z"/>
		<path class="st7" d="M990.6,4009.2c-0.3-0.3-0.8-0.4-1.5-0.4c-0.9,0-1.7,0.4-2.1,1.1c-0.5,0.7-0.7,1.9-0.7,3.6
			c0.3-0.5,0.8-0.9,1.4-1.2s1.2-0.4,1.9-0.4c0.8,0,1.5,0.2,2.1,0.5c0.6,0.3,1.1,0.8,1.4,1.5c0.3,0.6,0.5,1.4,0.5,2.3
			c0,0.8-0.2,1.6-0.5,2.2s-0.8,1.2-1.5,1.6s-1.4,0.6-2.3,0.6c-1.2,0-2.2-0.3-2.9-0.8c-0.7-0.5-1.2-1.3-1.5-2.3s-0.4-2.2-0.4-3.7
			c0-4.4,1.5-6.6,4.6-6.6c1.2,0,2.1,0.3,2.8,1c0.7,0.6,1.1,1.4,1.2,2.4h-1.9C991.2,4009.9,991,4009.5,990.6,4009.2z M987.3,4014.2
			c-0.5,0.4-0.8,1.1-0.8,1.9s0.2,1.5,0.7,2c0.5,0.5,1.1,0.7,2,0.7c0.8,0,1.4-0.2,1.8-0.7s0.7-1.1,0.7-1.9c0-0.8-0.2-1.5-0.6-2
			c-0.4-0.5-1.1-0.7-1.9-0.7C988.5,4013.6,987.8,4013.8,987.3,4014.2z"/>
	</g>
	<g class="st2">
		<path class="st1" d="M1047.2,3981.7c1.2-1,2.1-1.8,2.7-2.5c0.7-0.6,1.2-1.3,1.7-2s0.7-1.4,0.7-2.1c0-0.7-0.2-1.3-0.5-1.7
			c-0.3-0.4-0.9-0.6-1.6-0.6c-0.7,0-1.3,0.2-1.6,0.7c-0.4,0.4-0.6,1.1-0.6,1.8h-2c0-1.4,0.4-2.4,1.2-3.1c0.8-0.7,1.8-1.1,3-1.1
			c1.3,0,2.3,0.4,3.1,1.1c0.7,0.7,1.1,1.7,1.1,2.9c0,0.9-0.2,1.7-0.7,2.5c-0.4,0.8-1,1.5-1.6,2.1s-1.4,1.4-2.3,2.2l-0.8,0.7h5.7v1.7
			h-8.7v-1.5L1047.2,3981.7z"/>
		<path class="st1" d="M1059.8,3982.3c0.4,0.3,0.9,0.5,1.6,0.5c0.9,0,1.5-0.3,1.9-1c0.4-0.7,0.6-1.8,0.6-3.4
			c-0.3,0.4-0.7,0.7-1.2,0.9c-0.5,0.2-1.1,0.3-1.7,0.3c-0.8,0-1.5-0.2-2.1-0.5c-0.6-0.3-1.1-0.8-1.5-1.4c-0.4-0.6-0.5-1.4-0.5-2.3
			c0-1.3,0.4-2.4,1.2-3.2s1.8-1.2,3.2-1.2c1.6,0,2.8,0.5,3.5,1.6c0.7,1.1,1,2.8,1,5c0,1.5-0.1,2.8-0.4,3.8c-0.3,1-0.7,1.7-1.3,2.2
			c-0.6,0.5-1.5,0.8-2.6,0.8c-1.3,0-2.3-0.3-3-1c-0.7-0.7-1.1-1.5-1.2-2.5h1.9C1059.1,3981.6,1059.4,3982,1059.8,3982.3z
			 M1063,3977.2c0.4-0.5,0.6-1,0.6-1.8c0-0.8-0.2-1.5-0.7-1.9c-0.4-0.5-1-0.7-1.8-0.7s-1.4,0.2-1.8,0.7s-0.7,1.1-0.7,1.9
			c0,0.7,0.2,1.3,0.6,1.8c0.4,0.5,1.1,0.7,1.9,0.7C1062,3977.9,1062.6,3977.7,1063,3977.2z"/>
		<path class="st1" d="M1067.6,3973.3v-1.9h3.7v13.1h-2.1v-11.2H1067.6z"/>
		<path class="st1" d="M1074.4,3984.3c-0.3-0.3-0.4-0.6-0.4-0.9c0-0.4,0.1-0.7,0.4-0.9s0.6-0.4,0.9-0.4c0.4,0,0.7,0.1,0.9,0.4
			s0.4,0.6,0.4,0.9c0,0.4-0.1,0.7-0.4,0.9s-0.6,0.4-0.9,0.4C1074.9,3984.6,1074.6,3984.5,1074.4,3984.3z"/>
		<path class="st1" d="M1084.9,3973.2c-0.3-0.3-0.8-0.4-1.5-0.4c-0.9,0-1.7,0.4-2.1,1.1c-0.5,0.7-0.7,1.9-0.7,3.6
			c0.3-0.5,0.8-0.9,1.4-1.2s1.2-0.4,1.9-0.4c0.8,0,1.5,0.2,2.1,0.5c0.6,0.3,1.1,0.8,1.4,1.5c0.3,0.6,0.5,1.4,0.5,2.3
			c0,0.8-0.2,1.6-0.5,2.2s-0.8,1.2-1.5,1.6s-1.4,0.6-2.3,0.6c-1.2,0-2.2-0.3-2.9-0.8c-0.7-0.5-1.2-1.3-1.5-2.3s-0.4-2.2-0.4-3.7
			c0-4.4,1.5-6.6,4.6-6.6c1.2,0,2.1,0.3,2.8,1c0.7,0.6,1.1,1.4,1.2,2.4h-1.9C1085.5,3973.9,1085.2,3973.5,1084.9,3973.2z
			 M1081.5,3978.2c-0.5,0.4-0.8,1.1-0.8,1.9s0.2,1.5,0.7,2c0.5,0.5,1.1,0.7,2,0.7c0.8,0,1.4-0.2,1.8-0.7s0.7-1.1,0.7-1.9
			c0-0.8-0.2-1.5-0.6-2c-0.4-0.5-1.1-0.7-1.9-0.7C1082.7,3977.6,1082.1,3977.8,1081.5,3978.2z"/>
	</g>
</g>
</svg>
