<?xml version="1.0" encoding="utf-8"?>
<!-- Generator: Adobe Illustrator 25.1.0, SVG Export Plug-In . SVG Version: 6.00 Build 0)  -->
<svg version="1.1" id="레이어_1" xmlns="http://www.w3.org/2000/svg" xmlns:xlink="http://www.w3.org/1999/xlink" x="0px"
	 y="0px" viewBox="0 0 920 380.1" style="enable-background:new 0 0 920 380.1;" xml:space="preserve">
<style type="text/css">
	.st0{fill:#FFFFFF;}
	.st1{fill:#3AA25C;}
	.st2{enable-background:new    ;}
	.st3{opacity:0.466;fill:none;stroke:#3AA25C;enable-background:new    ;}
	.st4{fill:#555555;}
</style>
<g id="그룹_5514" transform="translate(-740 -1243.945)">
	<rect id="사각형_256" x="1397" y="1333.9" class="st0" width="263" height="116"/>
	<rect id="사각형_263" x="1397" y="1459.9" class="st0" width="263" height="164.1"/>
	<rect id="사각형_253" x="1397" y="1243.9" class="st1" width="263" height="80"/>
	<g class="st2">
		<path class="st0" d="M1488,1266.9h1.9v10h-5.8v-10h2v3.3h1.9V1266.9z M1488,1271.9h-1.9v3.3h1.9V1271.9z M1496.4,1265.6v14.7h-2
			v-7.4h-1.2v6.8h-2v-13.9h2v5.4h1.2v-5.6H1496.4z"/>
		<path class="st0" d="M1506.1,1273.4v0.9h4v3.6h-8.1v0.8h8.5v1.5H1500v-3.7h8.1v-0.7h-8.1v-1.5h4.1v-0.9h-5.6v-1.6h13.3v1.6
			L1506.1,1273.4L1506.1,1273.4z M1499,1269.9c3-0.1,4.4-0.8,4.8-1.7h-4.1v-1.5h4.3v-1.2h2.1v1.2h4.3v1.5h-4.1
			c0.4,0.8,1.9,1.5,4.8,1.7l-0.6,1.6c-2.7-0.1-4.6-0.8-5.5-1.9c-0.9,1.1-2.8,1.8-5.5,1.9L1499,1269.9z"/>
		<path class="st0" d="M1526,1278.4v1.7h-10.9v-4.5h1.9v-2.8c-1.3,0.1-2.5,0.1-3.6,0.1l-0.3-1.7c1.7,0,3.8,0,6-0.1
			c0.2-1.2,0.3-2.2,0.3-3h-4.9v-1.7h7v0.5c0,0.8,0,2.1-0.3,4c0.5,0,0.9-0.1,1.4-0.2l0.1,1.5c-1.2,0.2-2.4,0.4-3.7,0.5v3.2h-1.8v2.6
			L1526,1278.4L1526,1278.4z M1523.6,1273.4v-7.9h2.1v11.1h-2.1v-1.6h-2.8v-1.6H1523.6z"/>
		<path class="st0" d="M1539,1267.1c0,4.5-1.4,8.1-6.5,10.7l-1.1-1.6c3.7-1.9,5.2-4.1,5.5-7.4h-4.8v-1.7H1539z M1543.8,1265.6v14.7
			h-2.1v-7.4h-2.8v-1.7h2.8v-5.7L1543.8,1265.6L1543.8,1265.6z"/>
		<path class="st0" d="M1548.7,1275.3c1.3,0,2.6-0.1,4.1-0.3l0.2,1.7c-1.9,0.3-3.5,0.4-5.3,0.4h-1v-6h3.5v-2.4h-3.5v-1.7h5.6v5.7
			h-3.5L1548.7,1275.3L1548.7,1275.3z M1558.9,1265.6v14.7h-2v-7.5h-1.3v6.8h-2v-13.8h2v5.3h1.3v-5.6L1558.9,1265.6L1558.9,1265.6z"
			/>
		<path class="st0" d="M1565.6,1269.5c0,2.5,0.7,4.9,2.8,6.2l-1.2,1.5c-1.3-0.8-2.1-2-2.6-3.6c-0.5,1.7-1.4,3.1-2.7,4l-1.2-1.6
			c2.1-1.4,2.9-4,2.9-6.5v-0.7h-2.4v-1.7h6.6v1.7h-2.1v0.7H1565.6z M1568.6,1265.8h2v13.8h-2v-7.3h-1.9v-1.7h1.9V1265.8z
			 M1573.6,1265.6v14.7h-2v-14.7H1573.6z"/>
	</g>
	<g class="st2">
		<path class="st0" d="M1487.9,1301.5l1.1-1.5c0.7,0.7,1.6,1.2,2.6,1.2c1.2,0,2-0.6,2-1.6c0-1.1-0.7-1.8-3.3-1.8v-1.7
			c2.2,0,2.9-0.7,2.9-1.7c0-0.9-0.6-1.4-1.6-1.4c-0.8,0-1.5,0.4-2.2,1.1l-1.2-1.4c1-0.9,2.2-1.5,3.6-1.5c2.3,0,3.8,1.1,3.8,3.1
			c0,1.2-0.7,2.1-2,2.6v0.1c1.3,0.4,2.4,1.3,2.4,2.8c0,2.1-1.9,3.3-4.2,3.3C1490,1303.2,1488.7,1302.5,1487.9,1301.5z"/>
		<path class="st0" d="M1502.9,1294.2c0,2.1,1,4.5,3.3,5.6l-1.1,1.6c-1.6-0.7-2.6-2.1-3.2-3.7c-0.6,1.8-1.8,3.2-3.4,4l-1.1-1.6
			c2.4-1.1,3.5-3.6,3.5-5.8v-0.5h-3v-1.7h3v-2h2.1v2h2.9v1.7h-2.9v0.4H1502.9z M1511.3,1297.1h-2.1v7.3h-2.1v-14.7h2.1v5.7h2.1
			V1297.1z"/>
		<path class="st0" d="M1520,1289.9h2v13.8h-2v-4.8h-2v-1.7h2v-2h-1.8c-0.7,2.4-2.1,4.5-4.9,6.1l-1.2-1.5c2.9-1.8,4.2-3.9,4.5-6.8
			h-3.6v-1.7h5.7c0,0.8,0,1.5-0.1,2.1h1.4V1289.9z M1525,1289.6v14.8h-2v-14.8H1525z"/>
		<path class="st0" d="M1536.5,1298.7c-3.1,0.5-6.5,0.6-9.1,0.6l-0.3-1.6c1.1,0,2.4,0,3.7,0v-0.8c-1.6-0.2-2.6-1-2.6-2.1
			c0-1.3,1.5-2.2,3.7-2.2s3.6,0.8,3.6,2.2c0,1.1-1,1.9-2.6,2.1v0.7c1.2-0.1,2.3-0.2,3.4-0.3L1536.5,1298.7z M1536.2,1292.2h-8.6
			v-1.5h3.3v-1.2h2.1v1.2h3.2V1292.2z M1529.1,1300.1h10.2v4.2h-2.1v-2.6h-8.1V1300.1z M1531.9,1295.6c1,0,1.6-0.3,1.6-0.8
			s-0.6-0.8-1.6-0.8s-1.6,0.3-1.6,0.8C1530.2,1295.3,1530.9,1295.6,1531.9,1295.6z M1539.3,1289.6v10h-2.1v-10H1539.3z"/>
		<path class="st0" d="M1549.7,1291.1c0,4.5-1.5,8.2-6.8,10.7l-1.1-1.7c3.8-1.8,5.4-4.1,5.7-7.4h-4.9v-1.7L1549.7,1291.1
			L1549.7,1291.1z M1554,1289.6v14.7h-2.1v-14.7H1554z"/>
		<path class="st0" d="M1564.1,1290.7c0,4-2.5,6.8-6.9,8l-0.9-1.7c3.3-0.9,5.1-2.6,5.4-4.7h-4.8v-1.7L1564.1,1290.7L1564.1,1290.7z
			 M1560.7,1302.4h7.9v1.7h-10v-5h2.1V1302.4z M1570,1293.7v1.7h-2v4.7h-2.1v-10.5h2.1v4.1L1570,1293.7L1570,1293.7z"/>
	</g>
	<g class="st2">
		<path d="M742.9,1269.7c-0.6-0.3-1.1-0.7-1.5-1.2s-0.5-1.1-0.6-1.8h2.4c0,0.5,0.2,0.8,0.5,1.1c0.3,0.3,0.7,0.4,1.2,0.4
			s0.9-0.1,1.2-0.4s0.4-0.6,0.4-1c0-0.3-0.1-0.6-0.3-0.8c-0.2-0.2-0.5-0.4-0.8-0.5s-0.7-0.3-1.3-0.4c-0.7-0.2-1.3-0.4-1.8-0.6
			s-0.8-0.5-1.2-0.9c-0.3-0.4-0.5-1-0.5-1.7s0.2-1.2,0.5-1.7s0.8-0.9,1.4-1.1c0.6-0.3,1.3-0.4,2-0.4c1.2,0,2.1,0.3,2.8,0.8
			c0.7,0.6,1.1,1.3,1.2,2.3H746c0-0.4-0.2-0.7-0.5-1s-0.7-0.4-1.2-0.4c-0.4,0-0.8,0.1-1,0.3c-0.3,0.2-0.4,0.5-0.4,1
			c0,0.3,0.1,0.5,0.3,0.7s0.4,0.4,0.7,0.5s0.7,0.3,1.2,0.4c0.7,0.2,1.3,0.4,1.8,0.6s0.9,0.5,1.2,1s0.5,1,0.5,1.7
			c0,0.6-0.2,1.2-0.5,1.7s-0.8,0.9-1.4,1.2c-0.6,0.3-1.3,0.5-2.1,0.5C744.2,1270.1,743.5,1269.9,742.9,1269.7z"/>
		<path d="M758.4,1258.8v1.8h-3v9.4h-2.2v-9.4h-3v-1.8H758.4z"/>
		<path d="M762.3,1260.6v2.8h3.8v1.8h-3.8v3h4.2v1.8H760v-11.2h6.5v1.8L762.3,1260.6L762.3,1260.6z"/>
		<path d="M776.3,1263.9c-0.3,0.5-0.7,0.9-1.3,1.3c-0.6,0.3-1.4,0.5-2.3,0.5h-1.9v4.3h-2.2v-11.2h4.1c0.9,0,1.6,0.1,2.2,0.4
			c0.6,0.3,1.1,0.7,1.4,1.2c0.3,0.5,0.5,1.1,0.5,1.8C776.7,1262.8,776.6,1263.4,776.3,1263.9z M774,1263.4c0.3-0.3,0.4-0.7,0.4-1.2
			c0-1.1-0.6-1.6-1.8-1.6h-1.8v3.2h1.8C773.2,1263.8,773.7,1263.7,774,1263.4z"/>
	</g>
	<g class="st2">
		<path d="M748.2,1350.4c0,3.9-2.5,6.6-6.9,7.7l-0.8-1.7c3.3-0.8,5.1-2.4,5.4-4.4h-4.7v-1.7L748.2,1350.4L748.2,1350.4z
			 M742.7,1358.4h9.6v5.8h-9.6V1358.4z M744.8,1362.5h5.4v-2.4h-5.4V1362.5z M754.2,1354.5h-2v3.3h-2.1v-8.2h2.1v3.2h2V1354.5z"/>
		<path d="M763.1,1358.5v1.3h4v4.5H765v-2.9h-8.1v-1.7h4.1v-1.3h-5.6v-1.7h13.3v1.7L763.1,1358.5L763.1,1358.5z M756,1354.7
			c3.2-0.2,4.6-1.2,4.9-2.2h-4.2v-1.6h4.3v-1.3h2.1v1.3h4.3v1.6h-4.2c0.2,1,1.7,2,4.9,2.2l-0.6,1.6c-2.7-0.2-4.5-1-5.4-2.1
			c-0.9,1.2-2.8,1.9-5.5,2.1L756,1354.7z"/>
		<path d="M787.4,1356.8v1.7h-13.3v-1.7h5.6v-1.4h-4v-5.2h10v5.2h-3.9v1.4H787.4z M775.6,1359.5h10.2v4.8h-2.1v-3.2h-8.1
			L775.6,1359.5L775.6,1359.5z M777.8,1353.7h5.8v-1.9h-5.8V1353.7z"/>
		<path d="M802.2,1361v1.7h-13.4v-1.7h3.3v-2.8H790v-1.7h1.9v-4.1h-2v-1.7h11.2v1.7h-2v4.1h2v1.7h-2.2v2.8H802.2z M794,1356.6h3
			v-4.1h-3V1356.6z M794.2,1361h2.5v-2.8h-2.5V1361z"/>
	</g>
	<g class="st2">
		<path d="M748.2,1478.4c0,3.9-2.5,6.6-6.9,7.7l-0.8-1.7c3.3-0.8,5.1-2.4,5.4-4.4h-4.7v-1.7L748.2,1478.4L748.2,1478.4z
			 M742.7,1486.4h9.6v5.8h-9.6V1486.4z M744.8,1490.5h5.4v-2.4h-5.4V1490.5z M754.2,1482.5h-2v3.3h-2.1v-8.2h2.1v3.2h2V1482.5z"/>
		<path d="M763.1,1486.5v1.3h4v4.5H765v-2.9h-8.1v-1.7h4.1v-1.3h-5.6v-1.7h13.3v1.7L763.1,1486.5L763.1,1486.5z M756,1482.7
			c3.2-0.2,4.6-1.2,4.9-2.2h-4.2v-1.6h4.3v-1.3h2.1v1.3h4.3v1.6h-4.2c0.2,1,1.7,2,4.9,2.2l-0.6,1.6c-2.7-0.2-4.5-1-5.4-2.1
			c-0.9,1.2-2.8,1.9-5.5,2.1L756,1482.7z"/>
		<path d="M781.6,1486.4c-1.6-0.5-2.7-1.6-3.3-2.9c-0.7,1.5-1.8,2.6-3.5,3.2l-1.1-1.7c2.4-0.8,3.5-2.7,3.5-4.6v-0.2h-2.9v-1.7h7.9
			v1.7h-2.9v0.2c0,1.7,1,3.6,3.3,4.3L781.6,1486.4z M786.4,1490.4v1.7h-10.1v-4.6h2.1v2.9H786.4z M784,1481.4v-3.8h2.1v10.8H784
			v-5.2h-2.3v-1.7h2.3V1481.4z"/>
		<path d="M793.6,1481.4v-1.3H789v-1.7h6.7v4.5h-4.6v1.4c2.4,0,4-0.1,5.9-0.4l0.2,1.7c-2,0.4-3.9,0.4-6.9,0.4H789v-4.7L793.6,1481.4
			L793.6,1481.4z M790.3,1487.2h9.8v5.1H798v-3.4h-7.7V1487.2z M800.1,1481.3v1.4h1.9v1.7h-1.9v2.1H798v-9h2.1v2h1.9v1.7h-1.9
			V1481.3z"/>
	</g>
	<path id="패스_1689" class="st3" d="M740,1244.4h101"/>
	<path id="패스_1690" class="st3" d="M740,1334.4h101"/>
	<path id="패스_1691" class="st3" d="M740.5,1460.4h101"/>
	<rect id="사각형_254" x="851" y="1334" class="st0" width="263" height="116"/>
	<rect id="사각형_261" x="851" y="1459.9" class="st0" width="263" height="164.1"/>
	<path id="패스_3187" class="st1" d="M851,1243.9h263v80H851V1243.9z"/>
	<g class="st2">
		<path class="st0" d="M942,1266.9h1.9v10h-5.8v-10h2v3.3h1.9L942,1266.9L942,1266.9z M942,1271.9h-1.9v3.3h1.9V1271.9z
			 M950.4,1265.6v14.7h-2v-7.4h-1.2v6.8h-2v-13.9h2v5.4h1.2v-5.6H950.4z"/>
		<path class="st0" d="M960.1,1273.4v0.9h4v3.6H956v0.8h8.5v1.5H954v-3.7h8.1v-0.7H954v-1.5h4.1v-0.9h-5.6v-1.6h13.3v1.6
			L960.1,1273.4L960.1,1273.4z M953,1269.9c3-0.1,4.4-0.8,4.8-1.7h-4.1v-1.5h4.3v-1.2h2.1v1.2h4.3v1.5h-4.1c0.4,0.8,1.9,1.5,4.8,1.7
			l-0.6,1.6c-2.7-0.1-4.6-0.8-5.5-1.9c-0.9,1.1-2.8,1.8-5.5,1.9L953,1269.9z"/>
		<path class="st0" d="M980,1278.4v1.7h-10.9v-4.5h1.9v-2.8c-1.3,0.1-2.5,0.1-3.6,0.1l-0.3-1.7c1.7,0,3.8,0,6-0.1
			c0.2-1.2,0.3-2.2,0.3-3h-4.9v-1.7h7v0.5c0,0.8,0,2.1-0.3,4c0.5,0,0.9-0.1,1.4-0.2l0.1,1.5c-1.2,0.2-2.4,0.4-3.7,0.5v3.2h-1.8v2.6
			L980,1278.4L980,1278.4z M977.6,1273.4v-7.9h2.1v11.1h-2.1v-1.6h-2.8v-1.6H977.6z"/>
		<path class="st0" d="M993,1267.1c0,4.5-1.4,8.1-6.5,10.7l-1.1-1.6c3.7-1.9,5.2-4.1,5.5-7.4H986v-1.7H993z M997.8,1265.6v14.7h-2.1
			v-7.4h-2.8v-1.7h2.8v-5.7L997.8,1265.6L997.8,1265.6z"/>
		<path class="st0" d="M1002.7,1275.3c1.3,0,2.6-0.1,4.1-0.3l0.2,1.7c-1.9,0.3-3.5,0.4-5.3,0.4h-1v-6h3.5v-2.4h-3.5v-1.7h5.6v5.7
			h-3.5L1002.7,1275.3L1002.7,1275.3z M1012.9,1265.6v14.7h-2v-7.5h-1.3v6.8h-2v-13.8h2v5.3h1.3v-5.6L1012.9,1265.6L1012.9,1265.6z"
			/>
		<path class="st0" d="M1019.6,1269.5c0,2.5,0.7,4.9,2.8,6.2l-1.2,1.5c-1.3-0.8-2.1-2-2.6-3.6c-0.5,1.7-1.4,3.1-2.7,4l-1.2-1.6
			c2.1-1.4,2.9-4,2.9-6.5v-0.7h-2.4v-1.7h6.6v1.7h-2.1L1019.6,1269.5L1019.6,1269.5z M1022.6,1265.8h2v13.8h-2v-7.3h-1.9v-1.7h1.9
			V1265.8z M1027.6,1265.6v14.7h-2v-14.7H1027.6z"/>
	</g>
	<g class="st2">
		<path class="st0" d="M942.8,1301h2.5v-7.2h-2.1v-1.5c1.2-0.2,2-0.5,2.8-1h1.7v9.6h2.2v1.9h-7.1L942.8,1301L942.8,1301z"/>
		<path class="st0" d="M956.9,1294.2c0,2.1,1,4.5,3.3,5.6l-1.1,1.6c-1.6-0.7-2.6-2.1-3.2-3.7c-0.6,1.8-1.8,3.2-3.4,4l-1.1-1.6
			c2.4-1.1,3.5-3.6,3.5-5.8v-0.5h-3v-1.7h3v-2h2.1v2h2.9v1.7H957L956.9,1294.2L956.9,1294.2z M965.3,1297.1h-2.1v7.3H961v-14.7h2.1
			v5.7h2.1v1.7H965.3z"/>
		<path class="st0" d="M974,1289.9h2v13.8h-2v-4.8h-2v-1.7h2v-2h-1.8c-0.7,2.4-2.1,4.5-4.9,6.1l-1.2-1.5c2.9-1.8,4.2-3.9,4.5-6.8
			H967v-1.7h5.7c0,0.8,0,1.5-0.1,2.1h1.4L974,1289.9L974,1289.9z M979,1289.6v14.8h-2v-14.8H979z"/>
		<path class="st0" d="M990.5,1298.7c-3.1,0.5-6.5,0.6-9.1,0.6l-0.3-1.6c1.1,0,2.4,0,3.7,0v-0.8c-1.6-0.2-2.6-1-2.6-2.1
			c0-1.3,1.5-2.2,3.7-2.2s3.6,0.8,3.6,2.2c0,1.1-1,1.9-2.6,2.1v0.7c1.2-0.1,2.3-0.2,3.4-0.3L990.5,1298.7z M990.2,1292.2h-8.6v-1.5
			h3.3v-1.2h2.1v1.2h3.2V1292.2z M983.1,1300.1h10.2v4.2h-2.1v-2.6h-8.1L983.1,1300.1L983.1,1300.1z M985.9,1295.6
			c1,0,1.6-0.3,1.6-0.8s-0.6-0.8-1.6-0.8s-1.6,0.3-1.6,0.8C984.2,1295.3,984.9,1295.6,985.9,1295.6z M993.3,1289.6v10h-2.1v-10
			H993.3z"/>
		<path class="st0" d="M1003.7,1291.1c0,4.5-1.5,8.2-6.8,10.7l-1.1-1.7c3.8-1.8,5.4-4.1,5.7-7.4h-4.9v-1.7L1003.7,1291.1
			L1003.7,1291.1z M1008,1289.6v14.7h-2.1v-14.7H1008z"/>
		<path class="st0" d="M1018.1,1290.7c0,4-2.5,6.8-6.9,8l-0.9-1.7c3.3-0.9,5.1-2.6,5.4-4.7h-4.8v-1.7L1018.1,1290.7L1018.1,1290.7z
			 M1014.7,1302.4h7.9v1.7h-10v-5h2.1V1302.4z M1024,1293.7v1.7h-2v4.7h-2.1v-10.5h2.1v4.1L1024,1293.7L1024,1293.7z"/>
	</g>
	<rect id="사각형_255" x="1124" y="1333.9" class="st0" width="263" height="116"/>
	<rect id="사각형_262" x="1124" y="1459.9" class="st0" width="263" height="164.1"/>
	<rect id="사각형_252" x="1124" y="1243.9" class="st1" width="263" height="80"/>
	<g class="st2">
		<path class="st0" d="M1215,1266.9h1.9v10h-5.8v-10h2v3.3h1.9V1266.9z M1215,1271.9h-1.9v3.3h1.9V1271.9z M1223.4,1265.6v14.7h-2
			v-7.4h-1.2v6.8h-2v-13.9h2v5.4h1.2v-5.6H1223.4z"/>
		<path class="st0" d="M1233.1,1273.4v0.9h4v3.6h-8.1v0.8h8.5v1.5H1227v-3.7h8.1v-0.7h-8.1v-1.5h4.1v-0.9h-5.6v-1.6h13.3v1.6
			L1233.1,1273.4L1233.1,1273.4z M1226,1269.9c3-0.1,4.4-0.8,4.8-1.7h-4.1v-1.5h4.3v-1.2h2.1v1.2h4.3v1.5h-4.1
			c0.4,0.8,1.9,1.5,4.8,1.7l-0.6,1.6c-2.7-0.1-4.6-0.8-5.5-1.9c-0.9,1.1-2.8,1.8-5.5,1.9L1226,1269.9z"/>
		<path class="st0" d="M1253,1278.4v1.7h-10.9v-4.5h1.9v-2.8c-1.3,0.1-2.5,0.1-3.6,0.1l-0.3-1.7c1.7,0,3.8,0,6-0.1
			c0.2-1.2,0.3-2.2,0.3-3h-4.9v-1.7h7v0.5c0,0.8,0,2.1-0.3,4c0.5,0,0.9-0.1,1.4-0.2l0.1,1.5c-1.2,0.2-2.4,0.4-3.7,0.5v3.2h-1.8v2.6
			L1253,1278.4L1253,1278.4z M1250.6,1273.4v-7.9h2.1v11.1h-2.1v-1.6h-2.8v-1.6H1250.6z"/>
		<path class="st0" d="M1266,1267.1c0,4.5-1.4,8.1-6.5,10.7l-1.1-1.6c3.7-1.9,5.2-4.1,5.5-7.4h-4.8v-1.7H1266z M1270.8,1265.6v14.7
			h-2.1v-7.4h-2.8v-1.7h2.8v-5.7L1270.8,1265.6L1270.8,1265.6z"/>
		<path class="st0" d="M1275.7,1275.3c1.3,0,2.6-0.1,4.1-0.3l0.2,1.7c-1.9,0.3-3.5,0.4-5.3,0.4h-1v-6h3.5v-2.4h-3.5v-1.7h5.6v5.7
			h-3.5L1275.7,1275.3L1275.7,1275.3z M1285.9,1265.6v14.7h-2v-7.5h-1.3v6.8h-2v-13.8h2v5.3h1.3v-5.6L1285.9,1265.6L1285.9,1265.6z"
			/>
		<path class="st0" d="M1292.6,1269.5c0,2.5,0.7,4.9,2.8,6.2l-1.2,1.5c-1.3-0.8-2.1-2-2.6-3.6c-0.5,1.7-1.4,3.1-2.7,4l-1.2-1.6
			c2.1-1.4,2.9-4,2.9-6.5v-0.7h-2.4v-1.7h6.6v1.7h-2.1v0.7H1292.6z M1295.6,1265.8h2v13.8h-2v-7.3h-1.9v-1.7h1.9V1265.8z
			 M1300.6,1265.6v14.7h-2v-14.7H1300.6z"/>
	</g>
	<g class="st2">
		<path class="st0" d="M1215.2,1301.6c3.1-2.9,5.1-5,5.1-6.7c0-1.2-0.6-1.9-1.8-1.9c-0.9,0-1.6,0.6-2.2,1.2l-1.3-1.3
			c1.1-1.2,2.1-1.8,3.8-1.8c2.2,0,3.7,1.4,3.7,3.6c0,2-1.9,4.1-4,6.3c0.6-0.1,1.4-0.1,1.9-0.1h2.6v2h-7.9v-1.3H1215.2z"/>
		<path class="st0" d="M1229.9,1294.2c0,2.1,1,4.5,3.3,5.6l-1.1,1.6c-1.6-0.7-2.6-2.1-3.2-3.7c-0.6,1.8-1.8,3.2-3.4,4l-1.1-1.6
			c2.4-1.1,3.5-3.6,3.5-5.8v-0.5h-3v-1.7h3v-2h2.1v2h2.9v1.7h-2.9v0.4H1229.9z M1238.3,1297.1h-2.1v7.3h-2.1v-14.7h2.1v5.7h2.1
			V1297.1z"/>
		<path class="st0" d="M1247,1289.9h2v13.8h-2v-4.8h-2v-1.7h2v-2h-1.8c-0.7,2.4-2.1,4.5-4.9,6.1l-1.2-1.5c2.9-1.8,4.2-3.9,4.5-6.8
			h-3.6v-1.7h5.7c0,0.8,0,1.5-0.1,2.1h1.4V1289.9z M1252,1289.6v14.8h-2v-14.8H1252z"/>
		<path class="st0" d="M1263.5,1298.7c-3.1,0.5-6.5,0.6-9.1,0.6l-0.3-1.6c1.1,0,2.4,0,3.7,0v-0.8c-1.6-0.2-2.6-1-2.6-2.1
			c0-1.3,1.5-2.2,3.7-2.2s3.6,0.8,3.6,2.2c0,1.1-1,1.9-2.6,2.1v0.7c1.2-0.1,2.3-0.2,3.4-0.3L1263.5,1298.7z M1263.2,1292.2h-8.6
			v-1.5h3.3v-1.2h2.1v1.2h3.2V1292.2z M1256.1,1300.1h10.2v4.2h-2.1v-2.6h-8.1V1300.1z M1258.9,1295.6c1,0,1.6-0.3,1.6-0.8
			s-0.6-0.8-1.6-0.8s-1.6,0.3-1.6,0.8C1257.2,1295.3,1257.9,1295.6,1258.9,1295.6z M1266.3,1289.6v10h-2.1v-10H1266.3z"/>
		<path class="st0" d="M1276.7,1291.1c0,4.5-1.5,8.2-6.8,10.7l-1.1-1.7c3.8-1.8,5.4-4.1,5.7-7.4h-4.9v-1.7L1276.7,1291.1
			L1276.7,1291.1z M1281,1289.6v14.7h-2.1v-14.7H1281z"/>
		<path class="st0" d="M1291.1,1290.7c0,4-2.5,6.8-6.9,8l-0.9-1.7c3.3-0.9,5.1-2.6,5.4-4.7h-4.8v-1.7L1291.1,1290.7L1291.1,1290.7z
			 M1287.7,1302.4h7.9v1.7h-10v-5h2.1V1302.4z M1297,1293.7v1.7h-2v4.7h-2.1v-10.5h2.1v4.1L1297,1293.7L1297,1293.7z"/>
	</g>
	<g class="st2">
		<path class="st4" d="M876.6,1365.9c0-1.1,0.8-1.9,1.8-1.9c0.9,0,1.8,0.8,1.8,1.9s-0.8,1.9-1.8,1.9
			C877.4,1367.8,876.6,1367,876.6,1365.9z"/>
	</g>
	<g class="st2">
		<path class="st4" d="M876.6,1389.9c0-1.1,0.8-1.9,1.8-1.9c0.9,0,1.8,0.8,1.8,1.9s-0.8,1.9-1.8,1.9
			C877.4,1391.8,876.6,1391,876.6,1389.9z"/>
	</g>
	<g class="st2">
		<path class="st4" d="M876.6,1413.9c0-1.1,0.8-1.9,1.8-1.9c0.9,0,1.8,0.8,1.8,1.9s-0.8,1.9-1.8,1.9
			C877.4,1415.8,876.6,1415,876.6,1413.9z"/>
	</g>
	<g class="st2">
		<path class="st4" d="M1149.6,1365.9c0-1.1,0.8-1.9,1.8-1.9c0.9,0,1.8,0.8,1.8,1.9s-0.8,1.9-1.8,1.9S1149.6,1367,1149.6,1365.9z"/>
	</g>
	<g class="st2">
		<path class="st4" d="M1149.6,1389.9c0-1.1,0.8-1.9,1.8-1.9c0.9,0,1.8,0.8,1.8,1.9s-0.8,1.9-1.8,1.9S1149.6,1391,1149.6,1389.9z"/>
	</g>
	<g class="st2">
		<path class="st4" d="M1422.6,1365.9c0-1.1,0.8-1.9,1.8-1.9c0.9,0,1.8,0.8,1.8,1.9s-0.8,1.9-1.8,1.9S1422.6,1367,1422.6,1365.9z"/>
	</g>
	<g class="st2">
		<path class="st4" d="M1422.6,1389.9c0-1.1,0.8-1.9,1.8-1.9c0.9,0,1.8,0.8,1.8,1.9s-0.8,1.9-1.8,1.9S1422.6,1391,1422.6,1389.9z"/>
	</g>
	<g class="st2">
		<path class="st4" d="M876.6,1491.9c0-1.1,0.8-1.9,1.8-1.9c0.9,0,1.8,0.8,1.8,1.9s-0.8,1.9-1.8,1.9
			C877.4,1493.8,876.6,1493,876.6,1491.9z"/>
	</g>
	<g class="st2">
		<path class="st4" d="M876.6,1515.9c0-1.1,0.8-1.9,1.8-1.9c0.9,0,1.8,0.8,1.8,1.9s-0.8,1.9-1.8,1.9
			C877.4,1517.8,876.6,1517,876.6,1515.9z"/>
	</g>
	<g class="st2">
		<path class="st4" d="M876.6,1539.9c0-1.1,0.8-1.9,1.8-1.9c0.9,0,1.8,0.8,1.8,1.9s-0.8,1.9-1.8,1.9
			C877.4,1541.8,876.6,1541,876.6,1539.9z"/>
	</g>
	<g class="st2">
		<path class="st4" d="M876.6,1563.9c0-1.1,0.8-1.9,1.8-1.9c0.9,0,1.8,0.8,1.8,1.9s-0.8,1.9-1.8,1.9
			C877.4,1565.8,876.6,1565,876.6,1563.9z"/>
	</g>
	<g class="st2">
		<path class="st4" d="M876.6,1587.9c0-1.1,0.8-1.9,1.8-1.9c0.9,0,1.8,0.8,1.8,1.9s-0.8,1.9-1.8,1.9
			C877.4,1589.8,876.6,1589,876.6,1587.9z"/>
	</g>
	<g class="st2">
		<path class="st4" d="M1149.6,1491.9c0-1.1,0.8-1.9,1.8-1.9c0.9,0,1.8,0.8,1.8,1.9s-0.8,1.9-1.8,1.9S1149.6,1493,1149.6,1491.9z"/>
	</g>
	<g class="st2">
		<path class="st4" d="M1149.6,1515.9c0-1.1,0.8-1.9,1.8-1.9c0.9,0,1.8,0.8,1.8,1.9s-0.8,1.9-1.8,1.9S1149.6,1517,1149.6,1515.9z"/>
	</g>
	<g class="st2">
		<path class="st4" d="M1149.6,1539.9c0-1.1,0.8-1.9,1.8-1.9c0.9,0,1.8,0.8,1.8,1.9s-0.8,1.9-1.8,1.9S1149.6,1541,1149.6,1539.9z"/>
	</g>
	<g class="st2">
		<path class="st4" d="M1149.6,1563.9c0-1.1,0.8-1.9,1.8-1.9c0.9,0,1.8,0.8,1.8,1.9s-0.8,1.9-1.8,1.9S1149.6,1565,1149.6,1563.9z"/>
	</g>
	<g class="st2">
		<path class="st4" d="M1149.6,1587.9c0-1.1,0.8-1.9,1.8-1.9c0.9,0,1.8,0.8,1.8,1.9s-0.8,1.9-1.8,1.9S1149.6,1589,1149.6,1587.9z"/>
	</g>
	<g class="st2">
		<path class="st4" d="M1422.6,1491.9c0-1.1,0.8-1.9,1.8-1.9c0.9,0,1.8,0.8,1.8,1.9s-0.8,1.9-1.8,1.9S1422.6,1493,1422.6,1491.9z"/>
	</g>
	<g class="st2">
		<path class="st4" d="M1422.6,1515.9c0-1.1,0.8-1.9,1.8-1.9c0.9,0,1.8,0.8,1.8,1.9s-0.8,1.9-1.8,1.9S1422.6,1517,1422.6,1515.9z"/>
	</g>
	<g class="st2">
		<path class="st4" d="M1422.6,1563.9c0-1.1,0.8-1.9,1.8-1.9c0.9,0,1.8,0.8,1.8,1.9s-0.8,1.9-1.8,1.9S1422.6,1565,1422.6,1563.9z"/>
	</g>
	<g class="st2">
		<path class="st4" d="M893.6,1365.5c-1.4-0.5-2.5-1.5-3-2.8c-0.5,1.5-1.7,2.6-3.2,3.2l-0.6-0.9c1.9-0.7,3.2-2.4,3.2-4.2v-0.4h-2.8
			v-0.9h6.7v0.9h-2.8v0.4c0,1.6,1.2,3.2,3.1,3.8L893.6,1365.5z M897.1,1368.7c0,1.5-1.6,2.3-4.2,2.3s-4.2-0.9-4.2-2.3
			s1.6-2.3,4.2-2.3S897.1,1367.2,897.1,1368.7z M896,1368.7c0-0.9-1.1-1.5-3-1.5s-3,0.5-3,1.5s1.1,1.4,3,1.4S896,1369.6,896,1368.7z
			 M895.9,1361.7v-3.2h1.2v7.5h-1.2v-3.3h-2.5v-0.9L895.9,1361.7L895.9,1361.7z"/>
		<path class="st4" d="M911,1366.8h-5.2v4.2h-1.1v-4.2h-5.1v-0.9H911V1366.8z M909.6,1364.4h-8.5v-5.4h1.1v1.7h6.2v-1.7h1.1v5.4
			H909.6z M908.4,1361.6h-6.2v1.8h6.2V1361.6z"/>
		<path class="st4" d="M920,1360.5h-7.4v-0.9h3.1v-1.3h1.1v1.3h3.1v0.9H920z M916.2,1365.2c-1.8,0-3-0.8-3-2.1s1.2-2.1,3-2.1
			s3,0.8,3,2.1S918.1,1365.2,916.2,1365.2z M915.4,1370h7.3v0.9h-8.4v-2.9h6.8v-1.1h-6.8v-0.9h8v2.8h-6.8L915.4,1370L915.4,1370z
			 M916.2,1364.3c1.2,0,1.9-0.4,1.9-1.2c0-0.8-0.8-1.2-1.9-1.2s-1.9,0.4-1.9,1.2S915.1,1364.3,916.2,1364.3z M924.1,1361.5v1h-1.9v3
			h-1.1v-6.9h1.1v3L924.1,1361.5L924.1,1361.5z"/>
		<path class="st4" d="M932.8,1364.5c-1.7,0.4-3.2,0.4-5.9,0.4h-1v-5.5h5.5v0.9H927v3.6c2.5,0,3.9-0.1,5.6-0.4L932.8,1364.5z
			 M935.3,1368.6c0,1.5-1.6,2.4-4.1,2.4s-4.1-0.9-4.1-2.4s1.6-2.4,4.1-2.4S935.3,1367.1,935.3,1368.6z M934.1,1368.6
			c0-0.9-1.1-1.5-3-1.5s-3,0.6-3,1.5s1.1,1.5,3,1.5S934.1,1369.5,934.1,1368.6z M937,1361.7v1h-1.8v3.3H934v-7.5h1.2v3.3h1.8V1361.7
			z"/>
		<path class="st4" d="M952.8,1364.8v0.9h-11.4v-0.9h5.1v-1.6h-3.7v-4.3h8.4v4.3h-3.6v1.6H952.8z M942.7,1367.1h8.7v4h-1.1v-3.1
			h-7.6L942.7,1367.1L942.7,1367.1z M944,1362.3h6.2v-2.4H944V1362.3z"/>
		<path class="st4" d="M965.7,1368.6v0.9h-11.4v-0.9h3.2v-3h-2.1v-0.9h1.9v-4.1h-1.9v-0.9h9.3v0.9h-1.9v4.1h1.9v0.9h-2.1v3H965.7z
			 M958.4,1364.7h3.1v-4.1h-3.1V1364.7z M958.6,1368.6h2.7v-3h-2.7V1368.6z"/>
		<path class="st4" d="M977.7,1363.9c-1.8,0.4-3.3,0.4-5.9,0.4h-1v-5.1h5.5v0.9H972v3.3c2.4,0,3.9-0.1,5.6-0.4L977.7,1363.9z
			 M973.2,1369.9h7.3v0.9h-8.4v-3.2h6.8v-1.3h-6.8v-0.9h8v3.1h-6.8L973.2,1369.9L973.2,1369.9z M981.9,1361.1v0.9H980v2.7h-1.1v-6.3
			h1.1v2.6h1.9V1361.1z"/>
		<path class="st4" d="M989.9,1365.3c-1.4-0.5-2.4-1.5-3-2.8c-0.5,1.5-1.7,2.6-3.2,3.2l-0.6-0.9c1.9-0.7,3.2-2.4,3.2-4.3v-1.3h1.1
			v1.2c0,1.8,1.2,3.3,3.1,4L989.9,1365.3z M993.6,1368.7c0,1.5-1.6,2.4-4.2,2.4s-4.2-0.9-4.2-2.4s1.6-2.4,4.2-2.4
			S993.6,1367.1,993.6,1368.7z M992.4,1368.7c0-0.9-1.1-1.5-3-1.5s-3,0.5-3,1.5c0,0.9,1.1,1.5,3,1.5S992.4,1369.6,992.4,1368.7z
			 M992.4,1362.1h-2.7v-0.9h2.7v-2.7h1.2v7.4h-1.2V1362.1z"/>
	</g>
	<g class="st2">
		<path class="st4" d="M893,1388.5v2.3h3.7v4.2h-1.1v-3.3H888v-0.9h3.9v-2.3h-5.1v-0.9h8.5c0.3-1.5,0.3-2.6,0.3-3.6h-7.3v-0.9h8.5
			v0.9c0,0.9,0,2.1-0.3,3.6h1.8v0.9L893,1388.5L893,1388.5z"/>
		<path class="st4" d="M901.4,1390.8c1.2,0,2.5-0.1,4-0.4l0.1,1c-1.7,0.3-3.1,0.4-4.5,0.4h-0.8v-7.8h1.1v6.8H901.4z M910.3,1382.5
			v12.6h-1.1v-6.5h-1.8v5.9h-1.1v-11.6h1.1v4.8h1.8v-5.1h1.1V1382.5z"/>
		<path class="st4" d="M922.3,1389.3c-1.4-0.5-2.4-1.5-3-2.8c-0.5,1.5-1.6,2.6-3.1,3.2l-0.6-0.9c1.9-0.7,3.1-2.4,3.1-4.3v-1.3h1.1
			v1.4c0,1.7,1.2,3.3,3,3.9L922.3,1389.3z M925.5,1392.7c0,1.5-1.6,2.3-4.1,2.3c-2.6,0-4.1-0.8-4.1-2.3s1.6-2.3,4.1-2.3
			C923.9,1390.4,925.5,1391.3,925.5,1392.7z M924.4,1392.7c0-0.9-1.1-1.4-3-1.4s-3,0.5-3,1.4s1.1,1.4,3,1.4
			C923.2,1394.1,924.4,1393.6,924.4,1392.7z M927.3,1385.7v1h-1.9v3.4h-1.1v-7.6h1.1v3.2H927.3z"/>
		<path class="st4" d="M932.3,1391.2c0.9,0,1.8-0.1,2.6-0.2l0.1,0.9c-2.1,0.4-4.7,0.4-6.4,0.4l-0.2-1c0.8,0,1.8,0,2.8,0v-2.6h1.1
			L932.3,1391.2L932.3,1391.2z M934.3,1388.7c-1.2-0.5-2.1-1.3-2.5-2.4c-0.4,1.2-1.4,2.2-2.7,2.7l-0.6-0.9c1.7-0.6,2.7-2,2.7-3.6
			v-1.1h1.1v1.1c0,1.4,1,2.7,2.6,3.3L934.3,1388.7z M939.1,1382.5v12.6H938v-6.4h-1.5v5.8h-1.1v-11.6h1.1v4.9h1.5v-5.2h1.1V1382.5z"
			/>
		<path class="st4" d="M948.7,1383.7h1.1v8.2H945v-8.2h1.1v3.1h2.6L948.7,1383.7L948.7,1383.7z M948.7,1387.6h-2.6v3.3h2.6V1387.6z
			 M955.2,1382.5v12.6h-1.1v-6.7h-1.7v6h-1.1v-11.7h1.1v4.7h1.7v-5L955.2,1382.5L955.2,1382.5z"/>
		<path class="st4" d="M963.7,1388.9v1.2h3.6v2.7h-7.4v1.2h7.8v0.9h-8.9v-2.9h7.4v-1.1h-7.4v-0.9h3.7v-1.2h-5.1v-0.9h11.3v0.9h-5
			V1388.9z M958,1386.6c2.3-0.2,4.2-0.9,4.4-2.2h-3.9v-0.9h3.9v-1.2h1.1v1.2h3.9v0.9h-3.9c0.2,1.2,2.1,2,4.4,2.2l-0.4,0.9
			c-2.1-0.2-4-0.8-4.7-2c-0.8,1.2-2.6,1.8-4.7,2L958,1386.6z"/>
		<path class="st4" d="M973.7,1388.3c-1.2,0.1-2.4,0.1-3.4,0.1l-0.2-0.9c1.6,0,3.6,0,5.6-0.2c0.3-1.4,0.3-2.4,0.3-3.1h-4.7v-0.9h5.9
			v0.5c0,0.7,0,1.9-0.3,3.5c0.5,0,1-0.1,1.4-0.2l0.1,0.8c-1.1,0.2-2.4,0.3-3.5,0.4v2.9h-1.1L973.7,1388.3L973.7,1388.3z
			 M980.9,1393.8v0.9H972v-3.8h1.1v2.9H980.9z M979.5,1389.3v-6.8h1.1v9.5h-1.1v-1.7h-2.7v-0.9L979.5,1389.3L979.5,1389.3z"/>
		<path class="st4" d="M992.6,1388.5h-5.8v-5.5h1.1v1.8h3.6v-1.8h1.1L992.6,1388.5L992.6,1388.5z M991.5,1385.7H988v1.9h3.6
			L991.5,1385.7L991.5,1385.7z M989.2,1394h7.3v0.9h-8.4v-3.1h6.8v-1.3h-6.8v-0.9h8v3.1h-6.8L989.2,1394L989.2,1394z M997.9,1385.2
			v1H996v2.8h-1.1v-6.5h1.1v2.7H997.9z"/>
		<path class="st4" d="M1005.5,1387.9v1.6h3.7v3h-7.5v1.4h7.8v0.9h-8.9v-3.1h7.4v-1.3h-7.5v-0.9h3.8v-1.6h-5.1v-0.9h8.5
			c0.3-1.3,0.3-2.3,0.3-3.1h-7.3v-0.9h8.5v0.8c0,0.8,0,1.9-0.3,3.2h1.7v0.9H1005.5z"/>
	</g>
	<g class="st2">
		<path class="st4" d="M890.9,1407.7h1.1v8.2h-4.8v-8.2h1.1v3.1h2.6L890.9,1407.7L890.9,1407.7z M890.9,1411.6h-2.6v3.3h2.6V1411.6z
			 M897.4,1406.5v12.6h-1.1v-6.7h-1.7v6h-1.1v-11.7h1.1v4.7h1.7v-5L897.4,1406.5L897.4,1406.5z"/>
		<path class="st4" d="M905.9,1412.9v1.2h3.6v2.7h-7.4v1.2h7.8v0.9H901v-2.9h7.4v-1.1H901v-0.9h3.7v-1.2h-5.1v-0.9H911v0.9h-5.1
			V1412.9z M900.2,1410.6c2.3-0.2,4.2-0.9,4.4-2.2h-3.9v-0.9h3.9v-1.2h1.1v1.2h3.9v0.9H906c0.2,1.2,2.1,2,4.4,2.2l-0.4,0.9
			c-2.1-0.2-4-0.8-4.7-2c-0.8,1.2-2.6,1.8-4.7,2L900.2,1410.6z"/>
		<path class="st4" d="M915.9,1412.3c-1.2,0.1-2.4,0.1-3.4,0.1l-0.2-0.9c1.6,0,3.6,0,5.6-0.2c0.3-1.4,0.3-2.4,0.3-3.1h-4.7v-0.9h5.9
			v0.5c0,0.7,0,1.9-0.3,3.5c0.5,0,1-0.1,1.4-0.2l0.1,0.8c-1.1,0.2-2.4,0.3-3.5,0.4v2.9H916L915.9,1412.3L915.9,1412.3z
			 M923.1,1417.8v0.9h-8.9v-3.8h1.1v2.9H923.1z M921.7,1413.3v-6.8h1.1v9.5h-1.1v-1.7H919v-0.9L921.7,1413.3L921.7,1413.3z"/>
		<path class="st4" d="M934.8,1407.8c0,3.6-1.5,6.8-5.7,8.8l-0.6-0.9c3.4-1.7,4.9-4,5.1-7H929v-0.9H934.8z M938.9,1406.5v12.6h-1.1
			v-6.6h-2.9v-0.9h2.9v-5L938.9,1406.5L938.9,1406.5z"/>
		<path class="st4" d="M942.9,1415.1c1.4,0,2.7-0.1,4.3-0.3l0.1,1c-1.7,0.3-3.2,0.4-4.7,0.4h-0.8v-4.7h3.6v-2.5h-3.6v-0.9h4.7v4.4
			h-3.6V1415.1z M952.1,1406.5v12.6H951v-6.7h-1.8v6h-1.1v-11.6h1.1v4.7h1.8v-5H952.1z"/>
		<path class="st4" d="M961.6,1409.8c0,2.2,1.4,4.5,3.2,5.4l-0.7,0.9c-1.3-0.7-2.5-2.2-3-3.9c-0.5,1.8-1.7,3.4-3.1,4.2l-0.7-0.9
			c1.8-0.9,3.2-3.3,3.2-5.6v-2.3h1.1V1409.8z M969.2,1412.5h-2.1v6.5H966v-12.6h1.1v5.1h2.1V1412.5z"/>
		<path class="st4" d="M972.1,1414.8c1.2,0,2.5-0.1,4-0.4l0.1,1c-1.7,0.3-3.1,0.4-4.5,0.4h-0.8v-7.8h1.1v6.8H972.1z M981,1406.5
			v12.6h-1.1v-6.5h-1.8v5.9H977v-11.6h1.1v4.8h1.8v-5.1h1.1V1406.5z"/>
		<path class="st4" d="M992.9,1407.8c0,3.6-1.7,6.8-5.8,8.9l-0.6-0.9c3.4-1.6,5.1-4,5.3-7h-4.7v-0.9L992.9,1407.8L992.9,1407.8z
			 M996.6,1406.5v12.6h-1.1v-12.6H996.6z"/>
		<path class="st4" d="M1010.6,1412.9v0.9h-5v2.5h-1.1v-2.5h-5.2v-0.9H1010.6z M999.9,1411.1c2.2-0.3,4.3-1.5,4.3-3.1l0,0h-3.9v-0.9
			h9.3v0.9h-3.9l0,0c0,1.5,2,2.8,4.2,3.1l-0.4,0.9c-2-0.3-3.9-1.3-4.6-2.8c-0.7,1.5-2.5,2.5-4.6,2.8L999.9,1411.1z M1001.8,1417.8
			h7.5v0.9h-8.7v-3.6h1.1v2.7H1001.8z"/>
		<path class="st4" d="M1012.6,1407.7h5.8v8.1h-5.8V1407.7z M1013.7,1414.9h3.5v-6.3h-3.5V1414.9z M1023.8,1412.5h-2.1v6.6h-1.1
			v-12.6h1.1v5h2.1V1412.5z"/>
		<path class="st4" d="M1031.7,1413.7c-1.6,0.3-2.9,0.3-5.3,0.3h-0.9v-3.9h4.2v-1.8h-4.3v-0.9h5.4v3.7h-4.3v2.1c2.2,0,3.5-0.1,5-0.3
			L1031.7,1413.7z M1035.7,1417.8v0.9h-8.5v-3.7h1.1v2.7L1035.7,1417.8L1035.7,1417.8z M1034.1,1412.3h-2.4v-0.9h2.4v-1.9h-2.4v-0.9
			h2.4v-2.1h1.2v9.2h-1.2V1412.3z"/>
	</g>
	<g class="st2">
		<path class="st4" d="M1166.6,1365.5c-1.4-0.5-2.5-1.5-3-2.8c-0.5,1.5-1.7,2.6-3.2,3.2l-0.6-0.9c1.9-0.7,3.2-2.4,3.2-4.2v-0.4h-2.8
			v-0.9h6.7v0.9h-2.8v0.4c0,1.6,1.2,3.2,3.1,3.8L1166.6,1365.5z M1170.1,1368.7c0,1.5-1.6,2.3-4.2,2.3s-4.2-0.9-4.2-2.3
			s1.6-2.3,4.2-2.3S1170.1,1367.2,1170.1,1368.7z M1169,1368.7c0-0.9-1.1-1.5-3-1.5s-3,0.5-3,1.5s1.1,1.4,3,1.4
			S1169,1369.6,1169,1368.7z M1168.9,1361.7v-3.2h1.2v7.5h-1.2v-3.3h-2.5v-0.9L1168.9,1361.7L1168.9,1361.7z"/>
		<path class="st4" d="M1184,1366.8h-5.2v4.2h-1.1v-4.2h-5.1v-0.9h11.4L1184,1366.8L1184,1366.8z M1182.6,1364.4h-8.5v-5.4h1.1v1.7
			h6.2v-1.7h1.1v5.4H1182.6z M1181.4,1361.6h-6.2v1.8h6.2V1361.6z"/>
		<path class="st4" d="M1193,1360.5h-7.4v-0.9h3.1v-1.3h1.1v1.3h3.1v0.9H1193z M1189.2,1365.2c-1.8,0-3-0.8-3-2.1s1.2-2.1,3-2.1
			s3,0.8,3,2.1S1191.1,1365.2,1189.2,1365.2z M1188.4,1370h7.3v0.9h-8.4v-2.9h6.8v-1.1h-6.8v-0.9h8v2.8h-6.8L1188.4,1370
			L1188.4,1370z M1189.2,1364.3c1.2,0,1.9-0.4,1.9-1.2c0-0.8-0.8-1.2-1.9-1.2s-1.9,0.4-1.9,1.2
			C1187.3,1363.9,1188.1,1364.3,1189.2,1364.3z M1197.1,1361.5v1h-1.9v3h-1.1v-6.9h1.1v3L1197.1,1361.5L1197.1,1361.5z"/>
		<path class="st4" d="M1205.8,1364.5c-1.7,0.4-3.2,0.4-5.9,0.4h-1v-5.5h5.5v0.9h-4.4v3.6c2.5,0,3.9-0.1,5.6-0.4L1205.8,1364.5z
			 M1208.3,1368.6c0,1.5-1.6,2.4-4.1,2.4s-4.1-0.9-4.1-2.4s1.6-2.4,4.1-2.4C1206.7,1366.2,1208.3,1367.1,1208.3,1368.6z
			 M1207.1,1368.6c0-0.9-1.1-1.5-3-1.5s-3,0.6-3,1.5s1.1,1.5,3,1.5S1207.1,1369.5,1207.1,1368.6z M1210,1361.7v1h-1.8v3.3h-1.2v-7.5
			h1.2v3.3h1.8V1361.7z"/>
		<path class="st4" d="M1225.8,1364.8v0.9h-11.4v-0.9h5.1v-1.6h-3.7v-4.3h8.4v4.3h-3.6v1.6H1225.8z M1215.7,1367.1h8.7v4h-1.1v-3.1
			h-7.6V1367.1z M1217,1362.3h6.2v-2.4h-6.2V1362.3z"/>
		<path class="st4" d="M1238.7,1368.6v0.9h-11.4v-0.9h3.2v-3h-2.1v-0.9h1.9v-4.1h-1.9v-0.9h9.3v0.9h-1.9v4.1h1.9v0.9h-2.1v3H1238.7z
			 M1231.4,1364.7h3.1v-4.1h-3.1V1364.7z M1231.6,1368.6h2.7v-3h-2.7V1368.6z"/>
		<path class="st4" d="M1250.7,1363.9c-1.8,0.4-3.3,0.4-5.9,0.4h-1v-5.1h5.5v0.9h-4.4v3.3c2.4,0,3.9-0.1,5.6-0.4L1250.7,1363.9z
			 M1246.2,1369.9h7.3v0.9h-8.4v-3.2h6.8v-1.3h-6.8v-0.9h8v3.1h-6.8L1246.2,1369.9L1246.2,1369.9z M1254.9,1361.1v0.9h-1.9v2.7h-1.1
			v-6.3h1.1v2.6h1.9V1361.1z"/>
		<path class="st4" d="M1262.9,1365.3c-1.4-0.5-2.4-1.5-3-2.8c-0.5,1.5-1.7,2.6-3.2,3.2l-0.6-0.9c1.9-0.7,3.2-2.4,3.2-4.3v-1.3h1.1
			v1.2c0,1.8,1.2,3.3,3.1,4L1262.9,1365.3z M1266.6,1368.7c0,1.5-1.6,2.4-4.2,2.4s-4.2-0.9-4.2-2.4s1.6-2.4,4.2-2.4
			C1265,1366.3,1266.6,1367.1,1266.6,1368.7z M1265.4,1368.7c0-0.9-1.1-1.5-3-1.5s-3,0.5-3,1.5c0,0.9,1.1,1.5,3,1.5
			C1264.3,1370.1,1265.4,1369.6,1265.4,1368.7z M1265.4,1362.1h-2.7v-0.9h2.7v-2.7h1.2v7.4h-1.2V1362.1z"/>
	</g>
	<g class="st2">
		<path class="st4" d="M1166,1388.5v2.3h3.7v4.2h-1.1v-3.3h-7.6v-0.9h3.9v-2.3h-5.1v-0.9h8.5c0.3-1.5,0.3-2.6,0.3-3.6h-7.3v-0.9h8.5
			v0.9c0,0.9,0,2.1-0.3,3.6h1.8v0.9L1166,1388.5L1166,1388.5z"/>
		<path class="st4" d="M1174.4,1390.8c1.2,0,2.5-0.1,4-0.4l0.1,1c-1.7,0.3-3.1,0.4-4.5,0.4h-0.8v-7.8h1.1v6.8H1174.4z
			 M1183.3,1382.5v12.6h-1.1v-6.5h-1.8v5.9h-1.1v-11.6h1.1v4.8h1.8v-5.1h1.1V1382.5z"/>
		<path class="st4" d="M1187.7,1388.9c0-0.6,0.4-1,0.9-1s0.9,0.4,0.9,1s-0.4,1-0.9,1S1187.7,1389.5,1187.7,1388.9z"/>
		<path class="st4" d="M1198,1391.3c1.2-0.1,2.5-0.2,3.6-0.3l0.1,0.9c-2.8,0.5-5.9,0.5-8.1,0.5l-0.1-1c1,0,2.2,0,3.4,0v-2.2
			c-1.6-0.2-2.8-1.3-2.8-2.9c0-1.8,1.4-2.9,3.3-2.9c2,0,3.4,1.2,3.4,2.9c0,1.6-1.1,2.7-2.8,2.9V1391.3z M1197.4,1388.2
			c1.3,0,2.3-0.8,2.3-2s-0.9-2-2.3-2c-1.3,0-2.2,0.8-2.2,2C1195.2,1387.4,1196.1,1388.2,1197.4,1388.2z M1203.6,1382.5v12.6h-1.1
			v-12.6H1203.6z"/>
		<path class="st4" d="M1216,1389.3c-1.4-0.5-2.4-1.5-3-2.8c-0.5,1.5-1.6,2.6-3.1,3.2l-0.6-0.9c1.9-0.7,3.1-2.4,3.1-4.3v-1.3h1.1
			v1.4c0,1.7,1.2,3.3,3,3.9L1216,1389.3z M1219.3,1392.7c0,1.5-1.6,2.3-4.1,2.3c-2.6,0-4.1-0.8-4.1-2.3s1.6-2.3,4.1-2.3
			C1217.7,1390.4,1219.3,1391.3,1219.3,1392.7z M1218.1,1392.7c0-0.9-1.1-1.4-3-1.4s-3,0.5-3,1.4s1.1,1.4,3,1.4
			S1218.1,1393.6,1218.1,1392.7z M1221,1385.7v1h-1.9v3.4h-1.1v-7.6h1.1v3.2H1221z"/>
		<path class="st4" d="M1226,1391.2c0.9,0,1.8-0.1,2.6-0.2l0.1,0.9c-2.1,0.4-4.7,0.4-6.4,0.4l-0.2-1c0.8,0,1.8,0,2.8,0v-2.6h1.1
			V1391.2z M1228,1388.7c-1.2-0.5-2.1-1.3-2.5-2.4c-0.4,1.2-1.4,2.2-2.7,2.7l-0.6-0.9c1.7-0.6,2.7-2,2.7-3.6v-1.1h1.1v1.1
			c0,1.4,1,2.7,2.6,3.3L1228,1388.7z M1232.8,1382.5v12.6h-1.1v-6.4h-1.5v5.8h-1.1v-11.6h1.1v4.9h1.5v-5.2h1.1V1382.5z"/>
		<path class="st4" d="M1242.4,1383.7h1.1v8.2h-4.8v-8.2h1.1v3.1h2.6L1242.4,1383.7L1242.4,1383.7z M1242.4,1387.6h-2.6v3.3h2.6
			V1387.6z M1248.9,1382.5v12.6h-1.1v-6.7h-1.7v6h-1.1v-11.7h1.1v4.7h1.7v-5L1248.9,1382.5L1248.9,1382.5z"/>
		<path class="st4" d="M1257.4,1388.9v1.2h3.6v2.7h-7.4v1.2h7.8v0.9h-8.9v-2.9h7.4v-1.1h-7.4v-0.9h3.7v-1.2h-5.1v-0.9h11.3v0.9h-5
			V1388.9z M1251.8,1386.6c2.3-0.2,4.2-0.9,4.4-2.2h-3.9v-0.9h4v-1.2h1.1v1.2h3.9v0.9h-3.9c0.2,1.2,2.1,2,4.4,2.2l-0.4,0.9
			c-2.1-0.2-4-0.8-4.7-2c-0.8,1.2-2.6,1.8-4.7,2L1251.8,1386.6z"/>
		<path class="st4" d="M1267.5,1388.3c-1.2,0.1-2.4,0.1-3.4,0.1l-0.2-0.9c1.6,0,3.6,0,5.6-0.2c0.3-1.4,0.3-2.4,0.3-3.1h-4.7v-0.9
			h5.9v0.5c0,0.7,0,1.9-0.3,3.5c0.5,0,1-0.1,1.4-0.2l0.1,0.8c-1.1,0.2-2.4,0.3-3.5,0.4v2.9h-1.1v-2.9H1267.5z M1274.7,1393.8v0.9
			h-8.9v-3.8h1.1v2.9H1274.7z M1273.2,1389.3v-6.8h1.1v9.5h-1.1v-1.7h-2.7v-0.9L1273.2,1389.3L1273.2,1389.3z"/>
		<path class="st4" d="M1286.4,1388.5h-5.8v-5.5h1.1v1.8h3.6v-1.8h1.1L1286.4,1388.5L1286.4,1388.5z M1285.3,1385.7h-3.6v1.9h3.6
			V1385.7z M1283,1394h7.3v0.9h-8.4v-3.1h6.8v-1.3h-6.8v-0.9h8v3.1h-6.8L1283,1394L1283,1394z M1291.7,1385.2v1h-1.9v2.8h-1.1v-6.5
			h1.1v2.7H1291.7z"/>
		<path class="st4" d="M1299.2,1387.9v1.6h3.7v3h-7.5v1.4h7.8v0.9h-8.9v-3.1h7.4v-1.3h-7.5v-0.9h3.8v-1.6h-5.1v-0.9h8.5
			c0.3-1.3,0.3-2.3,0.3-3.1h-7.3v-0.9h8.5v0.8c0,0.8,0,1.9-0.3,3.2h1.7v0.9H1299.2z"/>
	</g>
	<g class="st2">
		<path class="st4" d="M1439.6,1365.5c-1.4-0.5-2.5-1.5-3-2.8c-0.5,1.5-1.7,2.6-3.2,3.2l-0.6-0.9c1.9-0.7,3.2-2.4,3.2-4.2v-0.4h-2.8
			v-0.9h6.7v0.9h-2.8v0.4c0,1.6,1.2,3.2,3.1,3.8L1439.6,1365.5z M1443.1,1368.7c0,1.5-1.6,2.3-4.2,2.3s-4.2-0.9-4.2-2.3
			s1.6-2.3,4.2-2.3C1441.5,1366.4,1443.1,1367.2,1443.1,1368.7z M1442,1368.7c0-0.9-1.1-1.5-3-1.5s-3,0.5-3,1.5s1.1,1.4,3,1.4
			C1440.8,1370.1,1442,1369.6,1442,1368.7z M1441.9,1361.7v-3.2h1.2v7.5h-1.2v-3.3h-2.5v-0.9L1441.9,1361.7L1441.9,1361.7z"/>
		<path class="st4" d="M1457,1366.8h-5.2v4.2h-1.1v-4.2h-5.1v-0.9h11.4L1457,1366.8L1457,1366.8z M1455.6,1364.4h-8.5v-5.4h1.1v1.7
			h6.2v-1.7h1.1v5.4H1455.6z M1454.4,1361.6h-6.2v1.8h6.2V1361.6z"/>
		<path class="st4" d="M1466,1360.5h-7.4v-0.9h3.1v-1.3h1.1v1.3h3.1v0.9H1466z M1462.2,1365.2c-1.8,0-3-0.8-3-2.1s1.2-2.1,3-2.1
			s3,0.8,3,2.1S1464.1,1365.2,1462.2,1365.2z M1461.4,1370h7.3v0.9h-8.4v-2.9h6.8v-1.1h-6.8v-0.9h8v2.8h-6.8L1461.4,1370
			L1461.4,1370z M1462.2,1364.3c1.2,0,1.9-0.4,1.9-1.2c0-0.8-0.8-1.2-1.9-1.2s-1.9,0.4-1.9,1.2
			C1460.3,1363.9,1461.1,1364.3,1462.2,1364.3z M1470.1,1361.5v1h-1.9v3h-1.1v-6.9h1.1v3L1470.1,1361.5L1470.1,1361.5z"/>
		<path class="st4" d="M1478.8,1364.5c-1.7,0.4-3.2,0.4-5.9,0.4h-1v-5.5h5.5v0.9h-4.4v3.6c2.5,0,3.9-0.1,5.6-0.4L1478.8,1364.5z
			 M1481.3,1368.6c0,1.5-1.6,2.4-4.1,2.4s-4.1-0.9-4.1-2.4s1.6-2.4,4.1-2.4C1479.7,1366.2,1481.3,1367.1,1481.3,1368.6z
			 M1480.1,1368.6c0-0.9-1.1-1.5-3-1.5s-3,0.6-3,1.5s1.1,1.5,3,1.5S1480.1,1369.5,1480.1,1368.6z M1483,1361.7v1h-1.8v3.3h-1.2v-7.5
			h1.2v3.3h1.8V1361.7z"/>
		<path class="st4" d="M1498.8,1364.8v0.9h-11.4v-0.9h5.1v-1.6h-3.7v-4.3h8.4v4.3h-3.6v1.6H1498.8z M1488.7,1367.1h8.7v4h-1.1v-3.1
			h-7.6V1367.1z M1490,1362.3h6.2v-2.4h-6.2V1362.3z"/>
		<path class="st4" d="M1511.7,1368.6v0.9h-11.4v-0.9h3.2v-3h-2.1v-0.9h1.9v-4.1h-1.9v-0.9h9.3v0.9h-1.9v4.1h1.9v0.9h-2.1v3H1511.7z
			 M1504.4,1364.7h3.1v-4.1h-3.1V1364.7z M1504.6,1368.6h2.7v-3h-2.7V1368.6z"/>
		<path class="st4" d="M1527.7,1368.5v1h-11.4v-1h5.1v-2.9h1.2v2.9H1527.7z M1516.9,1365.2c2.4-0.4,4.5-1.9,4.5-3.8h-4v-0.9h4v-1.7
			h1.2v1.7h4v0.9h-4c0,1.9,2,3.4,4.5,3.8l-0.4,0.9c-2-0.4-3.8-1.4-4.6-2.9c-0.8,1.5-2.6,2.5-4.6,2.9L1516.9,1365.2z"/>
		<path class="st4" d="M1532.8,1367.3c1.4-0.1,2.8-0.1,4-0.3l0.1,0.8c-2.6,0.4-5.6,0.5-7.8,0.5l-0.1-1c0.8,0,1.7,0,2.7,0v-3.9h1.1
			L1532.8,1367.3L1532.8,1367.3z M1534.6,1365.4c0.4-2.1,0.4-3.6,0.4-4.6h-5.2v-0.9h6.3v0.7c0,1,0,2.6-0.4,5L1534.6,1365.4z
			 M1540.8,1364.7h-2v6.3h-1.1v-12.6h1.1v5.3h2V1364.7z"/>
		<path class="st4" d="M1552.6,1363.9c-1.8,0.4-3.3,0.4-5.9,0.4h-1v-5.1h5.5v0.9h-4.4v3.3c2.4,0,3.9-0.1,5.6-0.4L1552.6,1363.9z
			 M1548.1,1369.9h7.3v0.9h-8.4v-3.2h6.8v-1.3h-6.8v-0.9h8v3.1h-6.8L1548.1,1369.9L1548.1,1369.9z M1556.8,1361.1v0.9h-1.9v2.7h-1.1
			v-6.3h1.1v2.6h1.9V1361.1z"/>
		<path class="st4" d="M1564.8,1365.3c-1.4-0.5-2.4-1.5-3-2.8c-0.5,1.5-1.7,2.6-3.2,3.2l-0.6-0.9c1.9-0.7,3.2-2.4,3.2-4.3v-1.3h1.1
			v1.2c0,1.8,1.2,3.3,3.1,4L1564.8,1365.3z M1568.4,1368.7c0,1.5-1.6,2.4-4.2,2.4s-4.2-0.9-4.2-2.4s1.6-2.4,4.2-2.4
			S1568.4,1367.1,1568.4,1368.7z M1567.3,1368.7c0-0.9-1.1-1.5-3-1.5s-3,0.5-3,1.5c0,0.9,1.1,1.5,3,1.5S1567.3,1369.6,1567.3,1368.7
			z M1567.3,1362.1h-2.7v-0.9h2.7v-2.7h1.2v7.4h-1.2V1362.1z"/>
	</g>
	<g class="st2">
		<path class="st4" d="M1436.4,1386c0,2.2,0.9,4.4,2.7,5.4l-0.7,0.8c-1.2-0.7-2.1-2.1-2.5-3.7c-0.4,1.7-1.3,3.2-2.6,4l-0.7-0.9
			c1.8-1.1,2.7-3.3,2.7-5.6v-1.1h-2.4v-0.9h5.7v0.9h-2.2V1386z M1439.8,1382.8h1.1v11.6h-1.1v-6.5h-2.1v-0.9h2.1V1382.8z
			 M1443.4,1382.5v12.6h-1.1v-12.6H1443.4z"/>
		<path class="st4" d="M1451.9,1389.5v1.5h3.7v3.9h-8.6v-3.9h3.7v-1.5h-5.1v-0.9h11.4v0.9H1451.9z M1448.6,1383.8h-1.9v-0.9h9.2v0.9
			h-1.9v2.6h1.8v0.9h-9.1v-0.9h1.8L1448.6,1383.8L1448.6,1383.8z M1454.5,1391.9h-6.3v2.1h6.3V1391.9z M1452.8,1383.8h-3.1v2.6h3.1
			V1383.8z"/>
		<path class="st4" d="M1464.8,1388.5h-5.7v-5.5h1.1v1.8h3.4v-1.8h1.1v1.2h2.9v-1.8h1.1v6.6h-1.1v-1.6h-2.9L1464.8,1388.5
			L1464.8,1388.5z M1463.7,1385.7h-3.4v1.9h3.4V1385.7z M1469.3,1394v0.9h-8.5v-3.1h6.9v-1.2h-7v-0.9h8.1v3h-6.9v1.3L1469.3,1394
			L1469.3,1394z M1464.8,1385.2v1.4h2.9v-1.4H1464.8z"/>
		<path class="st4" d="M1478.7,1383.7h1.1v8.2h-4.8v-8.2h1.1v3.1h2.6L1478.7,1383.7L1478.7,1383.7z M1478.7,1387.6h-2.6v3.3h2.6
			V1387.6z M1485.2,1382.5v12.6h-1.1v-6.7h-1.7v6h-1.1v-11.7h1.1v4.7h1.7v-5L1485.2,1382.5L1485.2,1382.5z"/>
		<path class="st4" d="M1493.7,1388.9v1.2h3.6v2.7h-7.4v1.2h7.8v0.9h-8.9v-2.9h7.4v-1.1h-7.4v-0.9h3.7v-1.2h-5.1v-0.9h11.3v0.9h-5
			V1388.9z M1488,1386.6c2.3-0.2,4.2-0.9,4.4-2.2h-3.9v-0.9h4v-1.2h1.1v1.2h3.9v0.9h-3.9c0.2,1.2,2.1,2,4.4,2.2l-0.4,0.9
			c-2.1-0.2-4-0.8-4.7-2c-0.8,1.2-2.6,1.8-4.7,2L1488,1386.6z"/>
		<path class="st4" d="M1507,1389.2c-1.2,0.1-2.5,0.1-3.5,0.1l-0.2-1c2.3,0,5.4,0,8.1-0.4l0.1,0.8c-1.1,0.2-2.3,0.3-3.4,0.4v2.5
			h-1.1V1389.2z M1504.3,1385.2c0-1.3,1.3-2.2,3.1-2.2s3.1,0.9,3.1,2.2c0,1.3-1.3,2.2-3.1,2.2S1504.3,1386.5,1504.3,1385.2z
			 M1514,1393.8v0.9h-8.9v-3.7h1.1v2.7L1514,1393.8L1514,1393.8z M1505.4,1385.2c0,0.8,0.8,1.3,2,1.3s2-0.5,2-1.3s-0.8-1.3-2-1.3
			S1505.4,1384.4,1505.4,1385.2z M1512.5,1389.9v-7.4h1.1v9.6h-1.1v-1.3h-2.5v-0.9L1512.5,1389.9L1512.5,1389.9z"/>
		<path class="st4" d="M1523.7,1388.9c-1.7,0.3-3.2,0.4-5.8,0.4h-1v-5.8h5.6v0.9h-4.4v3.9c2.5,0,3.9-0.1,5.5-0.4L1523.7,1388.9z
			 M1519.4,1393.8h7.2v0.9h-8.4v-4.1h1.1v3.2H1519.4z M1527.9,1386.2v1h-1.9v4.4h-1.1v-9.1h1.1v3.7H1527.9z"/>
		<path class="st4" d="M1537.5,1389.7c-1.2,0.2-2.4,0.4-3.6,0.4v4.5h-1.1v-4.5c-1.2,0.1-2.4,0.1-3.5,0.1l-0.2-1c2.3,0,5.5,0,8.3-0.4
			L1537.5,1389.7z M1530.1,1385.7c0-1.5,1.3-2.6,3.2-2.6c1.9,0,3.2,1,3.2,2.6c0,1.5-1.3,2.6-3.2,2.6
			C1531.4,1388.2,1530.1,1387.2,1530.1,1385.7z M1531.2,1385.7c0,1,0.9,1.6,2.1,1.6s2.1-0.7,2.1-1.6s-0.9-1.6-2.1-1.6
			C1532.1,1384,1531.2,1384.7,1531.2,1385.7z M1539.5,1382.5v12.6h-1.1v-12.6H1539.5z"/>
		<path class="st4" d="M1549.5,1386.2c0,2.1,1.5,4.4,3.3,5.2l-0.7,0.9c-1.4-0.7-2.6-2.2-3.2-4c-0.5,1.8-1.8,3.5-3.2,4.2l-0.7-0.9
			c1.8-0.9,3.3-3.3,3.3-5.5v-1.5h-2.8v-0.9h6.8v0.9h-2.9L1549.5,1386.2L1549.5,1386.2z M1555.5,1382.5v12.6h-1.1v-7.1h-2.7v-0.9h2.7
			v-4.6H1555.5z"/>
		<path class="st4" d="M1564.4,1383.3c0,3.2-2.2,5.4-5.9,6.5l-0.4-0.9c3.1-0.8,4.9-2.5,5.1-4.6h-4.6v-0.9L1564.4,1383.3
			L1564.4,1383.3z M1559.9,1390.2h7.9v4.7h-7.9V1390.2z M1561,1393.9h5.6v-2.8h-5.6V1393.9z M1569.7,1386.5h-1.9v3.1h-1.1v-7.1h1.1
			v3.1h1.9V1386.5z"/>
	</g>
	<g class="st2">
		<path class="st4" d="M890.9,1485.7h1.1v8.2h-4.8v-8.2h1.1v3.1h2.6L890.9,1485.7L890.9,1485.7z M890.9,1489.6h-2.6v3.3h2.6V1489.6z
			 M897.4,1484.5v12.6h-1.1v-6.7h-1.7v6h-1.1v-11.7h1.1v4.7h1.7v-5L897.4,1484.5L897.4,1484.5z"/>
		<path class="st4" d="M905.9,1490.9v1.2h3.6v2.7h-7.4v1.2h7.8v0.9H901v-2.9h7.4v-1.1H901v-0.9h3.7v-1.2h-5.1v-0.9H911v0.9h-5.1
			V1490.9z M900.2,1488.6c2.3-0.2,4.2-0.9,4.4-2.2h-3.9v-0.9h3.9v-1.2h1.1v1.2h3.9v0.9H906c0.2,1.2,2.1,2,4.4,2.2l-0.4,0.9
			c-2.1-0.2-4-0.8-4.7-2c-0.8,1.2-2.6,1.8-4.7,2L900.2,1488.6z"/>
		<path class="st4" d="M915.9,1490.3c-1.2,0.1-2.4,0.1-3.4,0.1l-0.2-0.9c1.6,0,3.6,0,5.6-0.2c0.3-1.4,0.3-2.4,0.3-3.1h-4.7v-0.9h5.9
			v0.5c0,0.7,0,1.9-0.3,3.5c0.5,0,1-0.1,1.4-0.2l0.1,0.8c-1.1,0.2-2.4,0.3-3.5,0.4v2.9H916L915.9,1490.3L915.9,1490.3z
			 M923.1,1495.8v0.9h-8.9v-3.8h1.1v2.9H923.1z M921.7,1491.3v-6.8h1.1v9.5h-1.1v-1.7H919v-0.9L921.7,1491.3L921.7,1491.3z"/>
		<path class="st4" d="M931.7,1485.8c0,3.6-1.5,6.8-5.7,8.8l-0.6-0.9c3.4-1.7,4.9-4,5.1-7h-4.6v-0.9H931.7z M935.7,1484.5v12.6h-1.1
			v-6.6h-2.9v-0.9h2.9v-5L935.7,1484.5L935.7,1484.5z"/>
		<path class="st4" d="M939.8,1493.1c1.4,0,2.7-0.1,4.3-0.3l0.1,1c-1.7,0.3-3.2,0.4-4.7,0.4h-0.8v-4.7h3.6v-2.5h-3.6v-0.9h4.7v4.4
			h-3.6V1493.1z M948.9,1484.5v12.6h-1.1v-6.7H946v6h-1v-11.6h1.1v4.7h1.8v-5H948.9z"/>
		<path class="st4" d="M954.8,1488c0,2.2,0.9,4.4,2.7,5.4l-0.7,0.8c-1.2-0.7-2.1-2.1-2.5-3.7c-0.4,1.7-1.3,3.2-2.6,4l-0.7-0.9
			c1.8-1.1,2.7-3.3,2.7-5.6v-1.1h-2.4v-0.9h5.7v0.9h-2.2V1488z M958.2,1484.8h1.1v11.6h-1.1v-6.5h-2.1v-0.9h2.1V1484.8z
			 M961.8,1484.5v12.6h-1.1v-12.6H961.8z"/>
		<path class="st4" d="M968.7,1493c1.7,0,2.9-0.1,4.2-0.4l0.1,1c-1.5,0.3-2.8,0.4-4.7,0.4h-0.8v-7.9h4.7v0.9h-3.5V1493z
			 M977.8,1484.5v12.6h-1.1v-6.6h-1.8v6h-1.1v-11.7h1.1v4.8h1.8v-5h1.1V1484.5z"/>
		<path class="st4" d="M981.9,1485.5v3.3h3.6v-3.3h1.1v8.5h-5.9v-8.5H981.9z M981.9,1493.1h3.6v-3.3h-3.6V1493.1z M990.3,1484.5
			v12.6h-1.1v-12.6H990.3z"/>
		<path class="st4" d="M1002.9,1491.8c-1.4-0.5-2.5-1.6-3-2.8c-0.5,1.4-1.7,2.6-3.2,3.1l-0.6-0.9c1.9-0.7,3.2-2.3,3.2-4.1v-0.6h-2.8
			v-0.9h6.7v0.9h-2.8v0.6c0,1.6,1.2,3.2,3.1,3.9L1002.9,1491.8z M1006.8,1495.8v0.9h-8.4v-3.9h1.2v2.9L1006.8,1495.8L1006.8,1495.8z
			 M1005.2,1487.9v-3.5h1.2v9.2h-1.2v-4.8h-2.5v-0.9L1005.2,1487.9L1005.2,1487.9z"/>
		<path class="st4" d="M1016.4,1491c-2,0.3-3.6,0.4-6,0.4h-1v-3.6h4.5v-1.7h-4.5v-0.9h5.7v3.5h-4.5v1.8c2.2,0,3.8-0.1,5.7-0.4
			L1016.4,1491z M1010.5,1492.8h8.2v4.2h-1.1v-3.3h-7v-0.9H1010.5z M1018.7,1487.4v1.7h1.9v1h-1.9v2.1h-1.1v-7.6h1.1v2h1.9v1h-1.9
			V1487.4z"/>
		<path class="st4" d="M1036.3,1492.5h-5.1v4.6h-1.1v-4.6h-5.1v-1h11.3L1036.3,1492.5z M1035.3,1490.2c-1.9-0.3-3.8-1.4-4.7-2.9
			c-0.8,1.5-2.7,2.6-4.6,2.9l-0.5-0.9c2.3-0.3,4.5-1.8,4.5-3.6v-0.7h1.2v0.7c0,1.8,2.2,3.3,4.5,3.6L1035.3,1490.2z"/>
		<path class="st4" d="M1045.6,1490.7c-2.1,0.3-3.8,0.4-6.1,0.4h-1v-3.5h4.5v-1.6h-4.6v-0.9h5.7v3.4h-4.6v1.7c2.2,0,3.9-0.1,5.9-0.4
			L1045.6,1490.7z M1047,1492h1.1v4.9h-8.1v-4.9h1.1v1.5h5.9V1492z M1047,1494.4h-5.9v1.5h5.9V1494.4z M1048.1,1484.5v6.9h-1.1v-6.9
			H1048.1z"/>
	</g>
	<g class="st2">
		<path class="st4" d="M898.1,1515.2v0.9h-11.3v-0.9h5.1v-1.3c-2.4-0.1-3.9-1-3.9-2.5c0-1.6,1.7-2.5,4.4-2.5s4.4,0.9,4.4,2.5
			c0,1.4-1.5,2.4-3.8,2.5v1.3H898.1z M889.3,1519.8h7.5v0.9h-8.6v-3.6h1.1V1519.8z M892.4,1512.9c2,0,3.2-0.6,3.2-1.6
			s-1.3-1.6-3.2-1.6c-2,0-3.2,0.6-3.2,1.6S890.4,1512.9,892.4,1512.9z"/>
		<path class="st4" d="M906.7,1514.6c-1.4-0.5-2.6-1.6-3.2-2.9c-0.5,1.4-1.7,2.6-3.2,3.1l-0.6-0.9c1.9-0.7,3.2-2.3,3.2-4.2v-1h1.1v1
			c0,1.7,1.3,3.3,3.2,3.9L906.7,1514.6z M910.4,1520v0.9h-8.5v-3.1h7v-1.2h-7v-0.9h8.1v3h-7v1.3L910.4,1520L910.4,1520z M909.9,1515
			h-1.1v-6.5h1.1V1515z"/>
		<path class="st4" d="M918.9,1509.8c0,3.6-1.6,6.8-5.7,8.8l-0.6-0.9c3.2-1.6,4.9-4,5.2-7h-4.6v-1L918.9,1509.8L918.9,1509.8z
			 M924.2,1514.5h-2v6.5H921v-12.6h1.1v5.1h2v1H924.2z"/>
		<path class="st4" d="M936.8,1518.4v1h-11.4v-1H936.8z M935.7,1515.7c-1.9-0.4-3.9-1.8-4.7-3.6c-0.8,1.8-2.8,3.2-4.7,3.6l-0.5-1
			c2.2-0.4,4.6-2.3,4.6-4.5v-1h1.2v1c0,2.1,2.4,4,4.6,4.5L935.7,1515.7z"/>
		<path class="st4" d="M947.7,1509.3c0,3.2-2.2,5.4-5.9,6.5l-0.4-0.9c3.1-0.8,4.9-2.5,5.1-4.6h-4.6v-0.9L947.7,1509.3L947.7,1509.3z
			 M943.2,1516.2h7.9v4.7h-7.9V1516.2z M944.4,1519.9h5.6v-2.8h-5.6V1519.9z M953,1512.5h-1.9v3.1H950v-7.1h1.1v3.1h1.9V1512.5z"/>
		<path class="st4" d="M960.5,1515.7v1.4h3.7v3.8h-1.1v-2.9h-7.6v-0.9h3.9v-1.4h-5.1v-0.9h11.4v0.9H960.5z M955,1513.2
			c2.4-0.2,4.3-1.2,4.4-2.6h-3.9v-0.9h3.9v-1.3h1.1v1.3h3.9v0.9h-3.9c0.1,1.4,2,2.4,4.4,2.6l-0.4,0.9c-2.1-0.2-3.9-1-4.6-2.2
			c-0.8,1.3-2.6,2-4.7,2.2L955,1513.2z"/>
		<path class="st4" d="M981.7,1518.5v1h-11.4v-1h2.8v-3.4c-1.1-0.5-1.7-1.5-1.7-2.6c0-2,1.9-3.2,4.6-3.2c2.7,0,4.6,1.3,4.6,3.2
			c0,1.1-0.6,2-1.7,2.6v3.4H981.7z M972.5,1512.5c0,1.4,1.4,2.3,3.5,2.3s3.5-0.9,3.5-2.3s-1.5-2.3-3.5-2.3
			S972.5,1511.1,972.5,1512.5z M974.2,1518.5h3.5v-3c-0.5,0.1-1.1,0.2-1.8,0.2c-0.6,0-1.2-0.1-1.7-0.2V1518.5z"/>
		<path class="st4" d="M994.6,1518.5v0.9h-11.4v-0.9h5.1v-3.1h1.1v3.1H994.6z M993.5,1515.6c-1.9-0.4-3.9-1.7-4.7-3.5
			c-0.8,1.8-2.8,3.1-4.7,3.5l-0.5-1c2.2-0.4,4.6-2.2,4.6-4.3v-1h1.2v1c0,2.1,2.4,3.9,4.6,4.3L993.5,1515.6z"/>
		<path class="st4" d="M1005.5,1514.5h-5.8v-5.5h1.1v1.8h3.6v-1.8h1.1L1005.5,1514.5L1005.5,1514.5z M1004.4,1511.7h-3.6v1.9h3.6
			V1511.7z M1002.1,1520h7.3v0.9h-8.4v-3.1h6.8v-1.3h-6.8v-0.9h8v3.1h-6.8L1002.1,1520L1002.1,1520z M1010.8,1511.2v1h-1.9v2.8h-1.1
			v-6.5h1.1v2.7H1010.8z"/>
		<path class="st4" d="M1018.3,1513.9v1.6h3.7v3h-7.5v1.4h7.8v0.9h-8.9v-3.1h7.4v-1.3h-7.5v-0.9h3.8v-1.6h-5.1v-0.9h8.5
			c0.3-1.3,0.3-2.3,0.3-3.1h-7.3v-0.9h8.5v0.8c0,0.8,0,1.9-0.3,3.2h1.7v0.9H1018.3z"/>
	</g>
	<g class="st2">
		<path class="st4" d="M891,1535.8c0,2.2,1.4,4.5,3.2,5.4l-0.7,0.9c-1.3-0.7-2.5-2.2-3-3.9c-0.5,1.8-1.7,3.4-3.1,4.2l-0.7-0.9
			c1.8-0.9,3.2-3.3,3.2-5.6v-2.3h1.1V1535.8z M898.5,1538.5h-2.1v6.5h-1.1v-12.6h1.1v5.1h2.1V1538.5z"/>
		<path class="st4" d="M910,1532.5v6.7h-1.2v-2.8h-2.5c-0.2,1.5-1.5,2.5-3.2,2.5c-1.9,0-3.2-1.2-3.2-2.9c0-1.7,1.4-2.9,3.2-2.9
			c1.7,0,3,1,3.2,2.4h2.6v-3L910,1532.5L910,1532.5z M905.2,1536c0-1.1-0.9-1.9-2.1-1.9s-2.1,0.8-2.1,1.9s0.9,2,2.1,2
			S905.2,1537.1,905.2,1536z M908.8,1539.8h1.1v5h-8v-5h1.1v1.6h5.8L908.8,1539.8L908.8,1539.8z M908.8,1542.3H903v1.6h5.8V1542.3z"
			/>
		<path class="st4" d="M919.2,1539.4c-1.4-0.5-2.5-1.5-3-2.7c-0.5,1.4-1.7,2.5-3.2,3.1l-0.6-0.9c1.9-0.7,3.2-2.3,3.2-4.1v-0.5h-2.8
			v-0.9h6.7v0.9h-2.8v0.5c0,1.6,1.2,3.1,3,3.7L919.2,1539.4z M922.4,1542.7c0,1.5-1.6,2.3-4.1,2.3c-2.6,0-4.1-0.9-4.1-2.3
			c0-1.5,1.6-2.3,4.1-2.3C920.8,1540.4,922.4,1541.2,922.4,1542.7z M921.2,1542.7c0-0.9-1.1-1.4-3-1.4s-3,0.5-3,1.4s1.1,1.4,3,1.4
			C920.1,1544.1,921.2,1543.6,921.2,1542.7z M924.1,1535.7v1h-1.9v3.4h-1.1v-7.6h1.1v3.2H924.1z"/>
		<path class="st4" d="M931.7,1538.5H926v-5.5h1.1v1.8h3.4v-1.8h1.1v1.2h2.9v-1.8h1.1v6.6h-1.1v-1.6h-2.9v1.1H931.7z M930.5,1535.7
			h-3.4v1.9h3.4V1535.7z M936.2,1544v0.9h-8.5v-3.1h6.9v-1.2h-7v-0.9h8.1v3h-6.9v1.3L936.2,1544L936.2,1544z M931.7,1535.2v1.4h2.9
			v-1.4H931.7z"/>
		<path class="st4" d="M947.7,1533.3c0,3.2-2.2,5.4-5.9,6.5l-0.4-0.9c3.1-0.8,4.9-2.5,5.1-4.6h-4.6v-0.9L947.7,1533.3L947.7,1533.3z
			 M943.2,1540.2h7.9v4.7h-7.9V1540.2z M944.4,1543.9h5.6v-2.8h-5.6V1543.9z M953,1536.5h-1.9v3.1H950v-7.1h1.1v3.1h1.9V1536.5z"/>
		<path class="st4" d="M960.5,1539.7v1.4h3.7v3.8h-1.1v-2.9h-7.6v-0.9h3.9v-1.4h-5.1v-0.9h11.4v0.9H960.5z M955,1537.2
			c2.4-0.2,4.3-1.2,4.4-2.6h-3.9v-0.9h3.9v-1.3h1.1v1.3h3.9v0.9h-3.9c0.1,1.4,2,2.4,4.4,2.6l-0.4,0.9c-2.1-0.2-3.9-1-4.6-2.2
			c-0.8,1.3-2.6,2-4.7,2.2L955,1537.2z"/>
		<path class="st4" d="M981.7,1538.8v0.9h-11.4v-0.9h5.1v-1.6h-3.7v-4.3h8.4v4.3h-3.6v1.6H981.7z M971.6,1541.1h8.7v4h-1.1v-3.1
			h-7.6L971.6,1541.1L971.6,1541.1z M972.9,1536.3h6.2v-2.4h-6.2V1536.3z"/>
		<path class="st4" d="M994.6,1542.6v0.9h-11.4v-0.9h3.2v-3h-2.1v-0.9h1.9v-4.1h-1.9v-0.9h9.3v0.9h-1.9v4.1h1.9v0.9h-2.1v3H994.6z
			 M987.3,1538.7h3.1v-4.1h-3.1V1538.7z M987.5,1542.6h2.7v-3h-2.7V1542.6z"/>
		<path class="st4" d="M1006,1537.8c0,2.7-1.3,4.4-3.2,4.4s-3.2-1.7-3.2-4.4c0-2.7,1.3-4.4,3.2-4.4S1006,1535.1,1006,1537.8z
			 M1000.7,1537.8c0,2,0.9,3.4,2.1,3.4c1.2,0,2.1-1.3,2.1-3.4c0-2-0.9-3.3-2.1-3.3C1001.6,1534.5,1000.7,1535.8,1000.7,1537.8z
			 M1009.5,1532.5v12.6h-1.1v-12.6H1009.5z"/>
		<path class="st4" d="M1018.4,1534.9h-6.4v-0.9h2.6v-1.4h1.1v1.4h2.6v0.9H1018.4z M1015.2,1539.8c-1.6,0-2.7-0.8-2.7-2.2
			c0-1.3,1.1-2.1,2.7-2.1c1.6,0,2.7,0.9,2.7,2.1C1017.9,1539,1016.8,1539.8,1015.2,1539.8z M1015.2,1539c1,0,1.7-0.5,1.7-1.3
			s-0.7-1.3-1.7-1.3s-1.7,0.5-1.7,1.3C1013.6,1538.5,1014.2,1539,1015.2,1539z M1022.7,1542.8c0,1.4-1.6,2.2-4.2,2.2
			s-4.2-0.8-4.2-2.2c0-1.4,1.6-2.2,4.2-2.2S1022.7,1541.4,1022.7,1542.8z M1021.6,1542.8c0-0.8-1.1-1.3-3.1-1.3
			c-1.9,0-3.1,0.5-3.1,1.3s1.1,1.3,3.1,1.3C1020.4,1544.1,1021.6,1543.7,1021.6,1542.8z M1020,1540h-1.1v-7.3h1.1v3.2h1.6v-3.4h1.1
			v8h-1.1v-3.6h-1.6V1540z"/>
	</g>
	<g class="st2">
		<path class="st4" d="M893.1,1557.3c0,3.2-2.2,5.4-5.9,6.5l-0.4-0.9c3.1-0.8,4.9-2.5,5.1-4.6h-4.6v-0.9L893.1,1557.3L893.1,1557.3z
			 M888.6,1564.2h7.9v4.7h-7.9V1564.2z M889.7,1567.9h5.6v-2.8h-5.6V1567.9z M898.4,1560.5h-1.9v3.1h-1.1v-7.1h1.1v3.1h1.9V1560.5z"
			/>
		<path class="st4" d="M905.9,1563.7v1.4h3.7v3.8h-1.1v-2.9h-7.6v-0.9h3.9v-1.4h-5.1v-0.9H911v0.9H905.9z M900.3,1561.2
			c2.4-0.2,4.3-1.2,4.4-2.6h-3.9v-0.9h3.9v-1.3h1.1v1.3h3.9v0.9h-3.9c0.1,1.4,2,2.4,4.4,2.6l-0.4,0.9c-2.1-0.2-3.9-1-4.6-2.2
			c-0.8,1.3-2.6,2-4.7,2.2L900.3,1561.2z"/>
		<path class="st4" d="M922.3,1557.8c0,3.6-1.7,6.8-5.8,8.9l-0.6-0.9c3.4-1.6,5.1-4,5.3-7h-4.7v-0.9L922.3,1557.8L922.3,1557.8z
			 M925.9,1556.5v12.6h-1.1v-12.6H925.9z"/>
		<path class="st4" d="M934.8,1562.6v1.2h3.7v2.9H931v1.2h7.8v0.9h-8.9v-3h7.4v-1.1h-7.4v-0.9h3.7v-1.2h-5.1v-0.9h11.4v0.9H934.8z
			 M938.9,1560.9c-2-0.3-3.9-1.1-4.7-2.5c-0.8,1.3-2.7,2.2-4.7,2.5l-0.4-0.9c2.3-0.3,4.5-1.5,4.5-3v-0.5h1.2v0.5
			c0,1.5,2.2,2.8,4.5,3L938.9,1560.9z"/>
		<path class="st4" d="M951.4,1563.5c-1.4-0.5-2.5-1.5-3-2.8c-0.5,1.4-1.7,2.6-3.2,3.1l-0.6-0.9c1.9-0.7,3.2-2.3,3.2-4.1v-0.5H945
			v-0.9h6.7v0.9h-2.8v0.5c0,1.6,1.2,3.2,3.1,3.8L951.4,1563.5z M946.5,1564.7h8.4v4.4h-1.1v-3.4h-7.2v-1H946.5z M954.9,1556.5v7.5
			h-1.1v-3.3h-2.5v-0.9h2.5v-3.3L954.9,1556.5L954.9,1556.5z"/>
		<path class="st4" d="M968.8,1562.7v0.9h-11.4v-0.9h2.8v-1.8c-1-0.4-1.5-1-1.5-1.9c0-1.5,1.7-2.3,4.4-2.3s4.4,0.9,4.4,2.3
			c0,0.8-0.6,1.5-1.5,1.9v1.8H968.8z M967.4,1566.8c0,1.4-1.6,2.2-4.3,2.2s-4.3-0.8-4.3-2.2c0-1.4,1.6-2.2,4.3-2.2
			C965.8,1564.6,967.4,1565.4,967.4,1566.8z M963.1,1560.5c2,0,3.2-0.5,3.2-1.4s-1.2-1.4-3.2-1.4s-3.2,0.5-3.2,1.4
			C959.9,1559.9,961.1,1560.5,963.1,1560.5z M966.2,1566.8c0-0.9-1.2-1.3-3.1-1.3c-2,0-3.1,0.5-3.1,1.3s1.2,1.3,3.1,1.3
			C965,1568.1,966.2,1567.6,966.2,1566.8z M961.4,1562.7h3.5v-1.5c-0.5,0.1-1.1,0.1-1.8,0.1c-0.6,0-1.2-0.1-1.7-0.1V1562.7z"/>
		<path class="st4" d="M979.8,1563.1H974v-5.8h1.1v1.9h3.6v-1.9h1.1L979.8,1563.1L979.8,1563.1z M983.3,1566.7
			c0,1.5-1.6,2.3-4.1,2.3c-2.6,0-4.1-0.9-4.1-2.3s1.6-2.3,4.1-2.3C981.7,1564.4,983.3,1565.2,983.3,1566.7z M978.6,1560.1H975v2.1
			h3.6V1560.1z M982.2,1566.7c0-0.9-1.1-1.4-3-1.4s-3,0.5-3,1.4s1.1,1.4,3,1.4C981,1568.1,982.2,1567.6,982.2,1566.7z M985,1559.6v1
			h-1.9v3.4H982v-7.6h1.1v3.2H985z"/>
		<path class="st4" d="M989.8,1563.5c-1.9,0-3.3-1.3-3.3-3.1c0-1.8,1.4-3.1,3.3-3.1s3.3,1.3,3.3,3.1
			C993.1,1562.3,991.7,1563.5,989.8,1563.5z M989.8,1562.6c1.2,0,2.2-0.9,2.2-2.1s-0.9-2.1-2.2-2.1s-2.2,0.9-2.2,2.1
			C987.7,1561.7,988.6,1562.6,989.8,1562.6z M989.4,1567.8h7.2v0.9h-8.4v-4h1.1v3.1H989.4z M997.9,1560.3v1H996v4.5h-1.1v-9.2h1.1
			v3.8h1.9V1560.3z"/>
		<path class="st4" d="M1008.3,1562.4c-0.6,0.7-1.5,1.2-2.6,1.2c-1.8,0-3.2-1.3-3.2-3.2s1.4-3.2,3.2-3.2c1.1,0,2,0.4,2.6,1.2h3.2v-2
			h1.2v9.3h-1.2v-3.4L1008.3,1562.4L1008.3,1562.4z M1005.8,1562.6c1.2,0,2.1-0.9,2.1-2.1s-0.9-2.1-2.1-2.1c-1.2,0-2.1,0.9-2.1,2.1
			S1004.5,1562.6,1005.8,1562.6z M1013,1567.8v0.9h-8.4v-4h1.2v3L1013,1567.8L1013,1567.8z M1008.8,1559.4c0.1,0.3,0.2,0.7,0.2,1.1
			s-0.1,0.7-0.2,1h2.7v-2.1H1008.8z"/>
		<path class="st4" d="M1026.6,1563.6h-5.1v5.4h-1.2v-5.4h-5.1v-0.9h8.3c0.4-1.8,0.4-3.1,0.4-4.3v-0.2h-7.3v-0.9h8.4v1.1
			c0,1.2,0,2.5-0.4,4.3h1.9L1026.6,1563.6L1026.6,1563.6z"/>
	</g>
	<g class="st2">
		<path class="st4" d="M898.1,1587.2v0.9h-11.3v-0.9h5.1v-1.3c-2.4-0.1-3.9-1-3.9-2.5c0-1.6,1.7-2.5,4.4-2.5s4.4,0.9,4.4,2.5
			c0,1.4-1.5,2.4-3.8,2.5v1.3H898.1z M889.3,1591.8h7.5v0.9h-8.6v-3.6h1.1V1591.8z M892.4,1584.9c2,0,3.2-0.6,3.2-1.6
			s-1.3-1.6-3.2-1.6c-2,0-3.2,0.6-3.2,1.6S890.4,1584.9,892.4,1584.9z"/>
		<path class="st4" d="M906.7,1586.6c-1.4-0.5-2.6-1.6-3.2-2.9c-0.5,1.4-1.7,2.6-3.2,3.1l-0.6-0.9c1.9-0.7,3.2-2.3,3.2-4.2v-1h1.1v1
			c0,1.7,1.3,3.3,3.2,3.9L906.7,1586.6z M910.4,1592v0.9h-8.5v-3.1h7v-1.2h-7v-0.9h8.1v3h-7v1.3L910.4,1592L910.4,1592z M909.9,1587
			h-1.1v-6.5h1.1V1587z"/>
		<path class="st4" d="M918.9,1581.8c0,3.6-1.6,6.8-5.7,8.8l-0.6-0.9c3.2-1.6,4.9-4,5.2-7h-4.6v-1L918.9,1581.8L918.9,1581.8z
			 M924.2,1586.5h-2v6.5H921v-12.6h1.1v5.1h2v1H924.2z"/>
		<path class="st4" d="M936.8,1590.4v1h-11.4v-1H936.8z M935.7,1587.7c-1.9-0.4-3.9-1.8-4.7-3.6c-0.8,1.8-2.8,3.2-4.7,3.6l-0.5-1
			c2.2-0.4,4.6-2.3,4.6-4.5v-1h1.2v1c0,2.1,2.4,4,4.6,4.5L935.7,1587.7z"/>
		<path class="st4" d="M952.8,1590.5v1h-11.4v-1h5.1v-3.1h-3.8v-5.9h8.7v5.9h-3.7v3.1H952.8z M943.8,1586.5h6.4v-4.1h-6.4V1586.5z"
			/>
		<path class="st4" d="M956.2,1588.8c1.9,0,3.8-0.2,5.9-0.6l0.1,1c-2.2,0.4-4.2,0.6-6.2,0.6h-1v-8.1h1.1v7.1H956.2z M964.6,1580.5
			v12.6h-1.1v-12.6H964.6z"/>
		<path class="st4" d="M968.9,1589.1c2.3,0,3.7-0.1,5.4-0.4l0.1,0.9c-1.8,0.3-3.3,0.4-5.7,0.4h-1v-8.4h5.8v1h-4.7v2.6h4.1v0.9h-4.1
			v3H968.9z M977.5,1580.5v12.6h-1.1v-6.9h-2.6v-1h2.6v-4.7H977.5z"/>
		<path class="st4" d="M987.8,1587c-2.1,0.3-3.8,0.4-6.1,0.4h-1v-3.6h4.5v-1.7h-4.6v-0.9h5.7v3.5h-4.6v1.8c2.2,0,3.9-0.1,5.9-0.4
			L987.8,1587z M990.4,1590.7c0,1.5-1.6,2.3-4.2,2.3c-2.6,0-4.2-0.8-4.2-2.3c0-1.4,1.6-2.3,4.2-2.3
			C988.8,1588.5,990.4,1589.3,990.4,1590.7z M989.3,1590.7c0-0.9-1.1-1.4-3.1-1.4c-1.9,0-3.1,0.5-3.1,1.4s1.1,1.4,3.1,1.4
			C988.1,1592.1,989.3,1591.6,989.3,1590.7z M990.3,1588.2h-1.1v-7.7h1.1V1588.2z"/>
		<path class="st4" d="M999.7,1584.3c0,2,1,4.1,2.7,5l-0.7,0.9c-1.2-0.7-2.1-2-2.6-3.5c-0.4,1.6-1.3,3-2.5,3.7l-0.7-0.9
			c1.7-1,2.7-3.2,2.7-5.3v-0.6h-2.3v-1h2.3v-1.9h1.1v1.9h2.3v1h-2.3V1584.3z M1003.1,1580.8h1.1v11.6h-1.1v-6h-1.9v-1h1.9V1580.8z
			 M1006.7,1580.5v12.6h-1.1v-12.6H1006.7z"/>
		<path class="st4" d="M1016,1580.8h1.1v11.6h-1.1v-4.3h-2.3v-0.9h2.3v-2.2h-2.1c-0.6,2.1-1.9,4-4.3,5.4l-0.7-0.8
			c2.7-1.6,4-3.9,4.2-6.5h-3.7v-0.9h4.8c0,0.6-0.1,1.3-0.2,1.9h1.9L1016,1580.8L1016,1580.8z M1019.6,1580.5v12.6h-1.1v-12.6H1019.6
			z"/>
		<path class="st4" d="M1036.3,1587.6h-5.1v5.4h-1.2v-5.4h-5.1v-0.9h8.3c0.4-1.8,0.4-3.1,0.4-4.3v-0.2h-7.3v-0.9h8.4v1.1
			c0,1.2,0,2.5-0.4,4.3h1.9L1036.3,1587.6L1036.3,1587.6z"/>
		<path class="st4" d="M1044.1,1587.7v1.4h3.7v3.8h-1.1v-2.9h-7.6v-0.9h3.9v-1.4h-5.1v-0.9h11.4v0.9H1044.1z M1038.5,1585.2
			c2.4-0.2,4.3-1.2,4.4-2.6h-3.9v-0.9h3.9v-1.3h1.1v1.3h3.9v0.9h-3.9c0.1,1.4,2,2.4,4.4,2.6l-0.4,0.9c-2.1-0.2-3.9-1-4.6-2.2
			c-0.8,1.3-2.6,2-4.7,2.2L1038.5,1585.2z"/>
	</g>
	<g class="st2">
		<path class="st4" d="M1166.4,1491.3c-1.4-0.5-2.4-1.5-3-2.8c-0.5,1.5-1.6,2.6-3.1,3.2l-0.6-0.9c1.9-0.7,3.1-2.4,3.1-4.3v-1.3h1.1
			v1.4c0,1.7,1.2,3.3,3,3.9L1166.4,1491.3z M1169.6,1494.7c0,1.5-1.6,2.3-4.1,2.3c-2.6,0-4.1-0.8-4.1-2.3s1.6-2.3,4.1-2.3
			C1168,1492.4,1169.6,1493.3,1169.6,1494.7z M1168.5,1494.7c0-0.9-1.1-1.4-3-1.4s-3,0.5-3,1.4s1.1,1.4,3,1.4
			C1167.3,1496.1,1168.5,1495.6,1168.5,1494.7z M1171.4,1487.7v1h-1.9v3.4h-1.1v-7.6h1.1v3.2H1171.4z"/>
		<path class="st4" d="M1176.4,1493.2c0.9,0,1.8-0.1,2.6-0.2l0.1,0.9c-2.1,0.4-4.7,0.4-6.4,0.4l-0.2-1c0.8,0,1.8,0,2.8,0v-2.6h1.1
			V1493.2z M1178.4,1490.7c-1.2-0.5-2.1-1.3-2.5-2.4c-0.4,1.2-1.4,2.2-2.7,2.7l-0.6-0.9c1.7-0.6,2.7-2,2.7-3.6v-1.1h1.1v1.1
			c0,1.4,1,2.7,2.6,3.3L1178.4,1490.7z M1183.2,1484.5v12.6h-1.1v-6.4h-1.5v5.8h-1.1v-11.6h1.1v4.9h1.5v-5.2h1.1V1484.5z"/>
		<path class="st4" d="M1192.8,1485.7h1.1v8.2h-4.8v-8.2h1.1v3.1h2.6L1192.8,1485.7L1192.8,1485.7z M1192.8,1489.6h-2.6v3.3h2.6
			V1489.6z M1199.3,1484.5v12.6h-1.1v-6.7h-1.7v6h-1.1v-11.7h1.1v4.7h1.7v-5L1199.3,1484.5L1199.3,1484.5z"/>
		<path class="st4" d="M1207.8,1490.9v1.2h3.6v2.7h-7.4v1.2h7.8v0.9h-8.9v-2.9h7.4v-1.1h-7.4v-0.9h3.7v-1.2h-5.1v-0.9h11.3v0.9h-5
			V1490.9z M1202.1,1488.6c2.3-0.2,4.2-0.9,4.4-2.2h-3.9v-0.9h4v-1.2h1.1v1.2h3.9v0.9h-3.9c0.2,1.2,2.1,2,4.4,2.2l-0.3,0.9
			c-2.1-0.2-4-0.8-4.7-2c-0.8,1.2-2.6,1.8-4.7,2L1202.1,1488.6z"/>
		<path class="st4" d="M1217.8,1490.3c-1.2,0.1-2.4,0.1-3.4,0.1l-0.2-0.9c1.6,0,3.6,0,5.6-0.2c0.3-1.4,0.3-2.4,0.3-3.1h-4.7v-0.9
			h5.9v0.5c0,0.7,0,1.9-0.3,3.5c0.5,0,1-0.1,1.4-0.2l0.1,0.8c-1.1,0.2-2.4,0.3-3.5,0.4v2.9h-1.1v-2.9H1217.8z M1225,1495.8v0.9h-8.9
			v-3.8h1.1v2.9H1225z M1223.6,1491.3v-6.8h1.1v9.5h-1.1v-1.7h-2.7v-0.9L1223.6,1491.3L1223.6,1491.3z"/>
		<path class="st4" d="M1238.8,1492c-1.2,0.2-2.4,0.3-3.6,0.4v4.3h-1.1v-4.2c-1.2,0-2.4,0.1-3.5,0.1l-0.2-1c2.4,0,5.5,0,8.3-0.4
			L1238.8,1492z M1231,1489.8c1.8-0.4,3-1.6,3-2.9l0,0h-2.8v-0.9h2.8v-1.4h1.1v1.4h2.8v0.9h-2.8l0,0c0,1.3,1.2,2.3,3,2.7l-0.5,0.9
			c-1.4-0.4-2.5-1.1-3.1-2.1c-0.5,1.1-1.7,1.9-3.1,2.3L1231,1489.8z M1240.7,1484.5v12.6h-1.1v-12.6H1240.7z"/>
		<path class="st4" d="M1254.7,1490.6v0.9h-11.4v-0.9H1254.7z M1244.6,1493h8.7v4.1h-1.2v-3.2h-7.6L1244.6,1493L1244.6,1493z
			 M1253.4,1489.2h-8.6v-4.2h8.5v0.9h-7.4v2.4h7.5V1489.2z"/>
		<path class="st4" d="M1270.7,1494.5v1h-11.4v-1H1270.7z M1262.3,1486.7h-1.9v-0.9h9.3v0.9h-1.9v4.4h1.9v0.9h-9.3v-0.9h1.9V1486.7z
			 M1266.5,1486.7h-3.1v4.4h3.1V1486.7z"/>
		<path class="st4" d="M1283.6,1494.5v0.9h-11.4v-0.9h5.1v-2.4h-3.7v-3.9h7.5v-2h-7.5v-0.9h8.6v3.8h-7.4v2h7.7v0.9h-4v2.4
			L1283.6,1494.5L1283.6,1494.5z"/>
		<path class="st4" d="M1290.7,1491.6c-1.1-0.5-2-1.4-2.4-2.5c-0.4,1.2-1.3,2.3-2.5,2.8l-0.6-0.9c1.6-0.7,2.5-2.3,2.5-3.8v-0.7h-2.3
			v-0.9h5.6v0.9h-2.2v0.7c0,1.4,0.9,2.9,2.5,3.5L1290.7,1491.6z M1287.2,1492.7h8.4v4.3h-1.1v-3.4h-7.3V1492.7z M1292.1,1487.7v-3
			h1.1v7.3h-1.1v-3.4h-1.9v-0.9H1292.1z M1295.7,1484.5v7.7h-1.1v-7.7H1295.7z"/>
		<path class="st4" d="M1309.3,1494.5v0.9h-11.4v-0.9H1309.3z M1308,1492.2h-8.6v-6.6h8.5v0.9h-7.3v1.9h7.1v0.9h-7.1v2h7.5
			L1308,1492.2L1308,1492.2z"/>
	</g>
	<g class="st2">
		<path class="st4" d="M1166.7,1515.6c-1.4-0.5-2.5-1.7-3.1-3.1c-0.5,1.5-1.7,2.7-3.1,3.4l-0.6-0.9c1.9-0.7,3.2-2.5,3.2-4.5v-1.3
			h1.1v1.3c0,1.9,1.3,3.6,3.1,4.3L1166.7,1515.6z M1170.4,1519.8v0.9h-8.5v-3.9h1.1v3H1170.4z M1170.1,1517.7h-1.1v-9.2h1.1V1517.7z
			"/>
		<path class="st4" d="M1179.2,1509.8c0,3.6-1.7,6.8-5.8,8.9l-0.6-0.9c3.4-1.6,5.1-4,5.3-7h-4.7v-0.9L1179.2,1509.8L1179.2,1509.8z
			 M1182.9,1508.5v12.6h-1.1v-12.6H1182.9z"/>
		<path class="st4" d="M1191.7,1514.6v1.2h3.7v2.9h-7.4v1.2h7.8v0.9h-8.9v-3h7.4v-1.1h-7.4v-0.9h3.7v-1.2h-5.1v-0.9h11.4v0.9H1191.7
			z M1195.9,1512.9c-2-0.3-3.9-1.1-4.7-2.5c-0.8,1.3-2.7,2.2-4.7,2.5l-0.4-0.9c2.3-0.3,4.5-1.5,4.5-3v-0.5h1.2v0.5
			c0,1.5,2.2,2.8,4.5,3L1195.9,1512.9z"/>
		<path class="st4" d="M1208.4,1515.5c-1.4-0.5-2.5-1.5-3-2.8c-0.5,1.4-1.7,2.6-3.2,3.1l-0.6-0.9c1.9-0.7,3.2-2.3,3.2-4.1v-0.5h-2.8
			v-0.9h6.7v0.9h-2.8v0.5c0,1.6,1.2,3.2,3.1,3.8L1208.4,1515.5z M1203.5,1516.7h8.4v4.4h-1.1v-3.4h-7.2v-1H1203.5z M1211.9,1508.5
			v7.5h-1.1v-3.3h-2.5v-0.9h2.5v-3.3L1211.9,1508.5L1211.9,1508.5z"/>
		<path class="st4" d="M1225.8,1514.7v0.9h-11.4v-0.9h2.8v-1.8c-1-0.4-1.5-1-1.5-1.9c0-1.5,1.7-2.3,4.4-2.3c2.7,0,4.4,0.9,4.4,2.3
			c0,0.8-0.6,1.5-1.5,1.9v1.8H1225.8z M1224.4,1518.8c0,1.4-1.6,2.2-4.3,2.2c-2.7,0-4.3-0.8-4.3-2.2c0-1.4,1.6-2.2,4.3-2.2
			C1222.8,1516.6,1224.4,1517.4,1224.4,1518.8z M1220.1,1512.5c2,0,3.2-0.5,3.2-1.4s-1.2-1.4-3.2-1.4s-3.2,0.5-3.2,1.4
			C1216.8,1511.9,1218.1,1512.5,1220.1,1512.5z M1223.2,1518.8c0-0.9-1.2-1.3-3.1-1.3c-2,0-3.1,0.5-3.1,1.3s1.2,1.3,3.1,1.3
			C1222,1520.1,1223.2,1519.6,1223.2,1518.8z M1218.3,1514.7h3.5v-1.5c-0.5,0.1-1.1,0.1-1.8,0.1c-0.6,0-1.2-0.1-1.7-0.1V1514.7z"/>
		<path class="st4" d="M1241.7,1514.3v0.9h-11.3v-0.9h4.6v-2.4h1.1v2.4H1241.7z M1240.4,1518.7c0,1.4-1.7,2.3-4.4,2.3
			c-2.7,0-4.4-0.9-4.4-2.3c0-1.5,1.7-2.3,4.4-2.3C1238.7,1516.4,1240.4,1517.3,1240.4,1518.7z M1239.2,1510h-7.4v-0.9h8.6v1.1
			c0,1,0,2-0.4,3.3l-1.1-0.1c0.3-1.3,0.3-2.2,0.3-3.2V1510z M1239.3,1518.7c0-0.9-1.3-1.4-3.2-1.4c-2,0-3.2,0.5-3.2,1.4
			s1.3,1.4,3.2,1.4S1239.3,1519.6,1239.3,1518.7z"/>
		<path class="st4" d="M1250.1,1515.5c-1.4-0.5-2.5-1.5-3-2.8c-0.5,1.5-1.7,2.6-3.2,3.2l-0.6-0.9c1.9-0.7,3.2-2.4,3.2-4.2v-0.4h-2.8
			v-0.9h6.7v0.9h-2.8v0.4c0,1.6,1.2,3.2,3.1,3.8L1250.1,1515.5z M1253.7,1518.7c0,1.5-1.6,2.3-4.2,2.3s-4.2-0.9-4.2-2.3
			s1.6-2.3,4.2-2.3C1252.1,1516.4,1253.7,1517.2,1253.7,1518.7z M1252.5,1518.7c0-0.9-1.1-1.5-3-1.5s-3,0.5-3,1.5s1.1,1.4,3,1.4
			S1252.5,1519.6,1252.5,1518.7z M1252.5,1511.7v-3.2h1.2v7.5h-1.2v-3.3h-2.5v-0.9L1252.5,1511.7L1252.5,1511.7z"/>
		<path class="st4" d="M1265.6,1514.5h-5.8v-5.5h1.1v1.8h3.6v-1.8h1.1L1265.6,1514.5L1265.6,1514.5z M1264.5,1511.7h-3.6v1.9h3.6
			V1511.7z M1262.2,1520h7.3v0.9h-8.4v-3.1h6.8v-1.3h-6.8v-0.9h8v3.1h-6.8L1262.2,1520L1262.2,1520z M1270.9,1511.2v1h-1.9v2.8h-1.1
			v-6.5h1.1v2.7H1270.9z"/>
		<path class="st4" d="M1278.5,1513.9v1.6h3.7v3h-7.5v1.4h7.8v0.9h-8.9v-3.1h7.4v-1.3h-7.5v-0.9h3.8v-1.6h-5.1v-0.9h8.5
			c0.3-1.3,0.3-2.3,0.3-3.1h-7.3v-0.9h8.5v0.8c0,0.8,0,1.9-0.3,3.2h1.7v0.9H1278.5z"/>
	</g>
	<g class="st2">
		<path class="st4" d="M1164,1535.8c0,2.2,1.4,4.5,3.2,5.4l-0.7,0.9c-1.3-0.7-2.5-2.2-3-3.9c-0.5,1.8-1.7,3.4-3.1,4.2l-0.7-0.9
			c1.8-0.9,3.2-3.3,3.2-5.6v-2.3h1.1V1535.8z M1171.5,1538.5h-2.1v6.5h-1.1v-12.6h1.1v5.1h2.1V1538.5z"/>
		<path class="st4" d="M1183,1532.5v6.7h-1.2v-2.8h-2.5c-0.2,1.5-1.5,2.5-3.2,2.5c-1.9,0-3.2-1.2-3.2-2.9c0-1.7,1.4-2.9,3.2-2.9
			c1.7,0,3,1,3.2,2.4h2.6v-3L1183,1532.5L1183,1532.5z M1178.2,1536c0-1.1-0.9-1.9-2.1-1.9s-2.1,0.8-2.1,1.9s0.9,2,2.1,2
			S1178.2,1537.1,1178.2,1536z M1181.8,1539.8h1.1v5h-8v-5h1.1v1.6h5.8V1539.8z M1181.8,1542.3h-5.8v1.6h5.8V1542.3z"/>
		<path class="st4" d="M1192.2,1539.4c-1.4-0.5-2.5-1.5-3-2.7c-0.5,1.4-1.7,2.5-3.2,3.1l-0.6-0.9c1.9-0.7,3.2-2.3,3.2-4.1v-0.5h-2.8
			v-0.9h6.7v0.9h-2.8v0.5c0,1.6,1.2,3.1,3,3.7L1192.2,1539.4z M1195.4,1542.7c0,1.5-1.6,2.3-4.1,2.3c-2.6,0-4.1-0.9-4.1-2.3
			c0-1.5,1.6-2.3,4.1-2.3C1193.8,1540.4,1195.4,1541.2,1195.4,1542.7z M1194.2,1542.7c0-0.9-1.1-1.4-3-1.4s-3,0.5-3,1.4
			s1.1,1.4,3,1.4S1194.2,1543.6,1194.2,1542.7z M1197.1,1535.7v1h-1.9v3.4h-1.1v-7.6h1.1v3.2H1197.1z"/>
		<path class="st4" d="M1204.7,1538.5h-5.7v-5.5h1.1v1.8h3.4v-1.8h1.1v1.2h2.9v-1.8h1.1v6.6h-1.1v-1.6h-2.9L1204.7,1538.5
			L1204.7,1538.5z M1203.5,1535.7h-3.4v1.9h3.4V1535.7z M1209.2,1544v0.9h-8.5v-3.1h6.9v-1.2h-7v-0.9h8.1v3h-6.9v1.3L1209.2,1544
			L1209.2,1544z M1204.7,1535.2v1.4h2.9v-1.4H1204.7z"/>
		<path class="st4" d="M1220.7,1533.3c0,3.2-2.2,5.4-5.9,6.5l-0.4-0.9c3.1-0.8,4.9-2.5,5.1-4.6h-4.6v-0.9L1220.7,1533.3
			L1220.7,1533.3z M1216.2,1540.2h7.9v4.7h-7.9V1540.2z M1217.4,1543.9h5.6v-2.8h-5.6V1543.9z M1226,1536.5h-1.9v3.1h-1.1v-7.1h1.1
			v3.1h1.9V1536.5z"/>
		<path class="st4" d="M1233.5,1539.7v1.4h3.7v3.8h-1.1v-2.9h-7.5v-0.9h3.9v-1.4h-5.1v-0.9h11.4v0.9H1233.5z M1228,1537.2
			c2.4-0.2,4.3-1.2,4.4-2.6h-3.9v-0.9h3.9v-1.3h1.1v1.3h3.9v0.9h-3.9c0.1,1.4,2,2.4,4.4,2.6l-0.4,0.9c-2.1-0.2-3.9-1-4.6-2.2
			c-0.8,1.3-2.6,2-4.7,2.2L1228,1537.2z"/>
		<path class="st4" d="M1254.7,1538.8v0.9h-11.4v-0.9h5.1v-1.6h-3.7v-4.3h8.4v4.3h-3.6v1.6H1254.7z M1244.6,1541.1h8.7v4h-1.1v-3.1
			h-7.6V1541.1z M1245.9,1536.3h6.2v-2.4h-6.2V1536.3z"/>
		<path class="st4" d="M1267.6,1542.6v0.9h-11.4v-0.9h3.2v-3h-2.1v-0.9h1.9v-4.1h-1.9v-0.9h9.3v0.9h-1.9v4.1h1.9v0.9h-2.1v3H1267.6z
			 M1260.3,1538.7h3.1v-4.1h-3.1V1538.7z M1260.5,1542.6h2.7v-3h-2.7V1542.6z"/>
		<path class="st4" d="M1279,1537.8c0,2.7-1.3,4.4-3.2,4.4s-3.2-1.7-3.2-4.4c0-2.7,1.3-4.4,3.2-4.4S1279,1535.1,1279,1537.8z
			 M1273.7,1537.8c0,2,0.9,3.4,2.1,3.4s2.1-1.3,2.1-3.4c0-2-0.9-3.3-2.1-3.3S1273.7,1535.8,1273.7,1537.8z M1282.5,1532.5v12.6h-1.1
			v-12.6H1282.5z"/>
		<path class="st4" d="M1291.4,1534.9h-6.4v-0.9h2.6v-1.4h1.1v1.4h2.6v0.9H1291.4z M1288.2,1539.8c-1.6,0-2.7-0.8-2.7-2.2
			c0-1.3,1.1-2.1,2.7-2.1s2.7,0.9,2.7,2.1C1290.9,1539,1289.8,1539.8,1288.2,1539.8z M1288.2,1539c1,0,1.7-0.5,1.7-1.3
			s-0.7-1.3-1.7-1.3s-1.7,0.5-1.7,1.3C1286.6,1538.5,1287.2,1539,1288.2,1539z M1295.7,1542.8c0,1.4-1.6,2.2-4.2,2.2
			s-4.2-0.8-4.2-2.2c0-1.4,1.6-2.2,4.2-2.2C1294.2,1540.6,1295.7,1541.4,1295.7,1542.8z M1294.6,1542.8c0-0.8-1.1-1.3-3.1-1.3
			c-1.9,0-3.1,0.5-3.1,1.3s1.1,1.3,3.1,1.3C1293.4,1544.1,1294.6,1543.7,1294.6,1542.8z M1293,1540h-1.1v-7.3h1.1v3.2h1.6v-3.4h1.1
			v8h-1.1v-3.6h-1.6V1540z"/>
	</g>
	<g class="st2">
		<path class="st4" d="M1166.7,1563.6c-1.4-0.5-2.5-1.7-3.1-3.1c-0.5,1.5-1.7,2.7-3.1,3.4l-0.6-0.9c1.9-0.7,3.2-2.5,3.2-4.5v-1.3
			h1.1v1.3c0,1.9,1.3,3.6,3.1,4.3L1166.7,1563.6z M1170.4,1567.8v0.9h-8.5v-3.9h1.1v3H1170.4z M1170.1,1565.7h-1.1v-9.2h1.1V1565.7z
			"/>
		<path class="st4" d="M1179.2,1557.8c0,3.6-1.7,6.8-5.8,8.9l-0.6-0.9c3.4-1.6,5.1-4,5.3-7h-4.7v-0.9L1179.2,1557.8L1179.2,1557.8z
			 M1182.9,1556.5v12.6h-1.1v-12.6H1182.9z"/>
		<path class="st4" d="M1191.7,1562.6v1.2h3.7v2.9h-7.4v1.2h7.8v0.9h-8.9v-3h7.4v-1.1h-7.4v-0.9h3.7v-1.2h-5.1v-0.9h11.4v0.9H1191.7
			z M1195.9,1560.9c-2-0.3-3.9-1.1-4.7-2.5c-0.8,1.3-2.7,2.2-4.7,2.5l-0.4-0.9c2.3-0.3,4.5-1.5,4.5-3v-0.5h1.2v0.5
			c0,1.5,2.2,2.8,4.5,3L1195.9,1560.9z"/>
		<path class="st4" d="M1208.4,1563.5c-1.4-0.5-2.5-1.5-3-2.8c-0.5,1.4-1.7,2.6-3.2,3.1l-0.6-0.9c1.9-0.7,3.2-2.3,3.2-4.1v-0.5h-2.8
			v-0.9h6.7v0.9h-2.8v0.5c0,1.6,1.2,3.2,3.1,3.8L1208.4,1563.5z M1203.5,1564.7h8.4v4.4h-1.1v-3.4h-7.2v-1H1203.5z M1211.9,1556.5
			v7.5h-1.1v-3.3h-2.5v-0.9h2.5v-3.3L1211.9,1556.5L1211.9,1556.5z"/>
		<path class="st4" d="M1225.8,1562.7v0.9h-11.4v-0.9h2.8v-1.8c-1-0.4-1.5-1-1.5-1.9c0-1.5,1.7-2.3,4.4-2.3c2.7,0,4.4,0.9,4.4,2.3
			c0,0.8-0.6,1.5-1.5,1.9v1.8H1225.8z M1224.4,1566.8c0,1.4-1.6,2.2-4.3,2.2c-2.7,0-4.3-0.8-4.3-2.2c0-1.4,1.6-2.2,4.3-2.2
			C1222.8,1564.6,1224.4,1565.4,1224.4,1566.8z M1220.1,1560.5c2,0,3.2-0.5,3.2-1.4s-1.2-1.4-3.2-1.4s-3.2,0.5-3.2,1.4
			C1216.8,1559.9,1218.1,1560.5,1220.1,1560.5z M1223.2,1566.8c0-0.9-1.2-1.3-3.1-1.3c-2,0-3.1,0.5-3.1,1.3s1.2,1.3,3.1,1.3
			C1222,1568.1,1223.2,1567.6,1223.2,1566.8z M1218.3,1562.7h3.5v-1.5c-0.5,0.1-1.1,0.1-1.8,0.1c-0.6,0-1.2-0.1-1.7-0.1V1562.7z"/>
		<path class="st4" d="M1236.9,1562.4h-5.9v-5.1h5.9V1562.4z M1237.3,1565.4c0,1.2,2,2.4,4.1,2.7l-0.4,0.9c-1.9-0.3-3.6-1.1-4.3-2.3
			c-0.8,1.2-2.5,2-4.4,2.3l-0.4-0.9c2.1-0.3,4.1-1.4,4.2-2.7h-3.7v-0.9h3.7v-1.2h1.2v1.2h3.7v0.9H1237.3z M1235.8,1558.2h-3.6v3.3
			h3.6V1558.2z M1240.7,1563.7h-1.1v-7.2h1.1V1563.7z"/>
		<path class="st4" d="M1251.8,1558.1c0,3.2-1.1,6.2-4.7,8.2l-0.7-0.8c2.9-1.6,4.1-3.9,4.2-6.5h-3.8v-0.9L1251.8,1558.1
			L1251.8,1558.1z M1257.1,1556.5v12.6h-1.1v-6.6h-1.7v5.9h-1.1v-11.6h1.1v4.7h1.7v-5.1L1257.1,1556.5L1257.1,1556.5z"/>
		<path class="st4" d="M1265.6,1562.5h-5.8v-5.5h1.1v1.8h3.6v-1.8h1.1L1265.6,1562.5L1265.6,1562.5z M1264.5,1559.7h-3.6v1.9h3.6
			V1559.7z M1262.2,1568h7.3v0.9h-8.4v-3.1h6.8v-1.3h-6.8v-0.9h8v3.1h-6.8L1262.2,1568L1262.2,1568z M1270.9,1559.2v1h-1.9v2.8h-1.1
			v-6.5h1.1v2.7H1270.9z"/>
	</g>
	<g class="st2">
		<path class="st4" d="M1171.1,1587.2v0.9h-11.3v-0.9h5.1v-1.3c-2.4-0.1-3.9-1-3.9-2.5c0-1.6,1.7-2.5,4.4-2.5c2.7,0,4.4,0.9,4.4,2.5
			c0,1.4-1.5,2.4-3.8,2.5v1.3H1171.1z M1162.3,1591.8h7.5v0.9h-8.6v-3.6h1.1V1591.8z M1165.4,1584.9c2,0,3.2-0.6,3.2-1.6
			s-1.3-1.6-3.2-1.6c-2,0-3.2,0.6-3.2,1.6S1163.4,1584.9,1165.4,1584.9z"/>
		<path class="st4" d="M1179.7,1586.6c-1.4-0.5-2.6-1.6-3.2-2.9c-0.5,1.4-1.7,2.6-3.2,3.1l-0.6-0.9c1.9-0.7,3.2-2.3,3.2-4.2v-1h1.1
			v1c0,1.7,1.3,3.3,3.2,3.9L1179.7,1586.6z M1183.4,1592v0.9h-8.5v-3.1h7v-1.2h-7v-0.9h8.1v3h-7v1.3L1183.4,1592L1183.4,1592z
			 M1182.9,1587h-1.1v-6.5h1.1V1587z"/>
		<path class="st4" d="M1191.9,1581.8c0,3.6-1.6,6.8-5.7,8.8l-0.6-0.9c3.2-1.6,4.9-4,5.2-7h-4.6v-1L1191.9,1581.8L1191.9,1581.8z
			 M1197.2,1586.5h-2v6.5h-1.1v-12.6h1.1v5.1h2V1586.5z"/>
		<path class="st4" d="M1209.8,1590.4v1h-11.4v-1H1209.8z M1208.7,1587.7c-1.9-0.4-3.9-1.8-4.7-3.6c-0.8,1.8-2.8,3.2-4.7,3.6l-0.5-1
			c2.2-0.4,4.6-2.3,4.6-4.5v-1h1.2v1c0,2.1,2.4,4,4.6,4.5L1208.7,1587.7z"/>
		<path class="st4" d="M1218.6,1581.7h1.1v8.2h-4.8v-8.2h1.1v3.1h2.6L1218.6,1581.7L1218.6,1581.7z M1218.6,1585.6h-2.6v3.3h2.6
			V1585.6z M1225.1,1580.5v12.6h-1.1v-6.7h-1.7v6h-1.1v-11.7h1.1v4.7h1.7v-5L1225.1,1580.5L1225.1,1580.5z"/>
		<path class="st4" d="M1233.5,1586.9v1.2h3.6v2.7h-7.4v1.2h7.8v0.9h-8.9v-2.9h7.4v-1.1h-7.4v-0.9h3.7v-1.2h-5.1v-0.9h11.3v0.9h-5
			V1586.9z M1227.9,1584.6c2.3-0.2,4.2-0.9,4.4-2.2h-3.9v-0.9h4v-1.2h1.1v1.2h3.9v0.9h-3.9c0.2,1.2,2.1,2,4.4,2.2l-0.3,0.9
			c-2.1-0.2-4-0.8-4.7-2c-0.8,1.2-2.6,1.8-4.7,2L1227.9,1584.6z"/>
		<path class="st4" d="M1247.7,1586.9c-2,0.3-3.6,0.4-6,0.4h-1v-3.6h4.5v-1.6h-4.5v-0.9h5.7v3.4h-4.5v1.7c2.2,0,3.8-0.1,5.7-0.4
			L1247.7,1586.9z M1250,1590.7c0,1.5-1.6,2.3-4.1,2.3c-2.6,0-4.1-0.8-4.1-2.3s1.6-2.3,4.1-2.3
			C1248.5,1588.4,1250,1589.3,1250,1590.7z M1248.9,1590.7c0-0.9-1.1-1.4-3-1.4s-3,0.5-3,1.4s1.1,1.4,3,1.4
			S1248.9,1591.6,1248.9,1590.7z M1249.9,1583.4v1.7h1.9v1h-1.9v2h-1.1v-7.6h1.1v1.9h1.9v1H1249.9z"/>
		<path class="st4" d="M1262.9,1587.7c-1.4-0.5-2.5-1.6-3.1-2.9c-0.5,1.5-1.6,2.6-3.1,3.2l-0.6-0.9c1.9-0.7,3.1-2.4,3.1-4.3v-1.6
			h1.1v1.6c0,1.7,1.2,3.3,3.1,4L1262.9,1587.7z M1259.3,1591.8h7.2v0.9h-8.3v-3.9h1.1L1259.3,1591.8L1259.3,1591.8z M1267.8,1584.3
			v1h-1.9v4.5h-1.1v-9.3h1.1v3.9L1267.8,1584.3L1267.8,1584.3z"/>
		<path class="st4" d="M1275.9,1587.5c-1.4-0.5-2.5-1.5-3-2.8c-0.5,1.5-1.7,2.6-3.2,3.2l-0.6-0.9c1.9-0.7,3.2-2.4,3.2-4.2v-0.4h-2.8
			v-0.9h6.7v0.9h-2.8v0.4c0,1.6,1.2,3.2,3.1,3.8L1275.9,1587.5z M1279.4,1590.7c0,1.5-1.6,2.3-4.2,2.3s-4.2-0.9-4.2-2.3
			s1.6-2.3,4.2-2.3C1277.8,1588.4,1279.4,1589.2,1279.4,1590.7z M1278.3,1590.7c0-0.9-1.1-1.5-3-1.5s-3,0.5-3,1.5s1.1,1.4,3,1.4
			C1277.2,1592.1,1278.3,1591.6,1278.3,1590.7z M1278.2,1583.7v-3.2h1.2v7.5h-1.2v-3.3h-2.5v-0.9L1278.2,1583.7L1278.2,1583.7z"/>
		<path class="st4" d="M1291.7,1581.8c0,3.6-1.7,6.8-5.8,8.9l-0.6-0.9c3.4-1.6,5.1-4,5.3-7h-4.7v-0.9L1291.7,1581.8L1291.7,1581.8z
			 M1295.4,1580.5v12.6h-1.1v-12.6H1295.4z"/>
		<path class="st4" d="M1309.3,1586.9v0.9h-5v2.5h-1.1v-2.5h-5.2v-0.9H1309.3z M1298.6,1585.1c2.2-0.3,4.3-1.5,4.3-3.1l0,0h-3.9
			v-0.9h9.3v0.9h-3.9l0,0c0,1.5,2,2.8,4.2,3.1l-0.4,0.9c-2-0.3-3.9-1.3-4.6-2.8c-0.7,1.5-2.5,2.5-4.6,2.8L1298.6,1585.1z
			 M1300.5,1591.8h7.5v0.9h-8.7v-3.6h1.1L1300.5,1591.8L1300.5,1591.8z"/>
		<path class="st4" d="M1314.5,1581.7h5.8v8.1h-5.8V1581.7z M1315.6,1588.9h3.5v-6.3h-3.5V1588.9z M1325.7,1586.5h-2.1v6.6h-1.1
			v-12.6h1.1v5h2.1V1586.5z"/>
		<path class="st4" d="M1333.6,1587.7c-1.6,0.3-2.9,0.3-5.3,0.3h-0.9v-3.9h4.2v-1.8h-4.3v-0.9h5.4v3.7h-4.3v2.1c2.2,0,3.5-0.1,5-0.3
			L1333.6,1587.7z M1337.6,1591.8v0.9h-8.5v-3.7h1.1v2.7L1337.6,1591.8L1337.6,1591.8z M1336,1586.3h-2.4v-0.9h2.4v-1.9h-2.4v-0.9
			h2.4v-2.1h1.2v9.2h-1.2V1586.3z"/>
	</g>
	<g class="st2">
		<path class="st4" d="M1444.1,1491.2v0.9h-11.3v-0.9h5.1v-1.3c-2.4-0.1-3.9-1-3.9-2.5c0-1.6,1.7-2.5,4.4-2.5c2.7,0,4.4,0.9,4.4,2.5
			c0,1.4-1.5,2.4-3.8,2.5v1.3H1444.1z M1435.3,1495.8h7.5v0.9h-8.6v-3.6h1.1V1495.8z M1438.4,1488.9c2,0,3.2-0.6,3.2-1.6
			s-1.3-1.6-3.2-1.6c-2,0-3.2,0.6-3.2,1.6S1436.4,1488.9,1438.4,1488.9z"/>
		<path class="st4" d="M1452.7,1490.6c-1.4-0.5-2.6-1.6-3.2-2.9c-0.5,1.4-1.7,2.6-3.2,3.1l-0.6-0.9c1.9-0.7,3.2-2.3,3.2-4.2v-1h1.1
			v1c0,1.7,1.3,3.3,3.2,3.9L1452.7,1490.6z M1456.4,1496v0.9h-8.5v-3.1h7v-1.2h-7v-0.9h8.1v3h-7v1.3L1456.4,1496L1456.4,1496z
			 M1455.9,1491h-1.1v-6.5h1.1V1491z"/>
		<path class="st4" d="M1464.9,1485.8c0,3.6-1.6,6.8-5.7,8.8l-0.6-0.9c3.2-1.6,4.9-4,5.2-7h-4.6v-1L1464.9,1485.8L1464.9,1485.8z
			 M1470.2,1490.5h-2v6.5h-1.1v-12.6h1.1v5.1h2V1490.5z"/>
		<path class="st4" d="M1482.8,1494.4v1h-11.4v-1H1482.8z M1481.7,1491.7c-1.9-0.4-3.9-1.8-4.7-3.6c-0.8,1.8-2.8,3.2-4.7,3.6l-0.5-1
			c2.2-0.4,4.6-2.3,4.6-4.5v-1h1.2v1c0,2.1,2.4,4,4.6,4.5L1481.7,1491.7z"/>
		<path class="st4" d="M1493.7,1485.3c0,3.2-2.2,5.4-5.9,6.5l-0.4-0.9c3.1-0.8,4.9-2.5,5.1-4.6h-4.6v-0.9L1493.7,1485.3
			L1493.7,1485.3z M1489.2,1492.2h7.9v4.7h-7.9V1492.2z M1490.4,1495.9h5.6v-2.8h-5.6V1495.9z M1499,1488.5h-1.9v3.1h-1.1v-7.1h1.1
			v3.1h1.9V1488.5z"/>
		<path class="st4" d="M1506.5,1491.7v1.4h3.7v3.8h-1.1v-2.9h-7.5v-0.9h3.9v-1.4h-5.1v-0.9h11.4v0.9H1506.5z M1501,1489.2
			c2.4-0.2,4.3-1.2,4.4-2.6h-3.9v-0.9h3.9v-1.3h1.1v1.3h3.9v0.9h-3.9c0.1,1.4,2,2.4,4.4,2.6l-0.4,0.9c-2.1-0.2-3.9-1-4.6-2.2
			c-0.8,1.3-2.6,2-4.7,2.2L1501,1489.2z"/>
		<path class="st4" d="M1522.9,1485.8c0,3.6-1.7,6.8-5.8,8.9l-0.6-0.9c3.4-1.6,5.1-4,5.3-7h-4.7v-0.9L1522.9,1485.8L1522.9,1485.8z
			 M1526.6,1484.5v12.6h-1.1v-12.6H1526.6z"/>
		<path class="st4" d="M1535.4,1490.6v1.2h3.7v2.9h-7.4v1.2h7.8v0.9h-8.9v-3h7.4v-1.1h-7.4v-0.9h3.7v-1.2h-5.1v-0.9h11.4v0.9H1535.4
			z M1539.5,1488.9c-2-0.3-3.9-1.1-4.7-2.5c-0.8,1.3-2.7,2.2-4.7,2.5l-0.4-0.9c2.3-0.3,4.5-1.5,4.5-3v-0.5h1.2v0.5
			c0,1.5,2.2,2.8,4.5,3L1539.5,1488.9z"/>
		<path class="st4" d="M1544.3,1490.9c0-0.6,0.4-1,0.9-1s0.9,0.4,0.9,1s-0.4,1-0.9,1S1544.3,1491.5,1544.3,1490.9z"/>
		<path class="st4" d="M1556.7,1490.7c-1.4-0.5-2.5-1.5-3-2.8c-0.5,1.4-1.7,2.5-3.1,3.1l-0.6-0.9c1.9-0.6,3.1-2.2,3.1-4v-1.2h1.1
			v1.2c0,1.6,1.3,3.2,3.1,3.8L1556.7,1490.7z M1560.7,1496v0.9h-8.5v-3.1h6.9v-1.2h-7v-0.9h8.1v3h-6.9v1.3L1560.7,1496L1560.7,1496z
			 M1559.1,1487.7h-2.7v-0.9h2.7v-2.3h1.2v6.5h-1.2V1487.7z"/>
		<path class="st4" d="M1564.6,1485.5v3.3h3.6v-3.3h1.1v8.5h-5.9v-8.5H1564.6z M1564.6,1493.1h3.6v-3.3h-3.6V1493.1z M1573.1,1484.5
			v12.6h-1.1v-12.6H1573.1z"/>
		<path class="st4" d="M1585.1,1490.5h-5.8v-5.5h1.1v1.8h3.6v-1.8h1.1L1585.1,1490.5L1585.1,1490.5z M1584,1487.7h-3.6v1.9h3.6
			V1487.7z M1581.7,1496h7.3v0.9h-8.4v-3.1h6.8v-1.3h-6.8v-0.9h8v3.1h-6.8L1581.7,1496L1581.7,1496z M1590.4,1487.2v1h-1.9v2.8h-1.1
			v-6.5h1.1v2.7H1590.4z"/>
		<path class="st4" d="M1597.9,1489.9v1.6h3.7v3h-7.5v1.4h7.8v0.9h-8.9v-3.1h7.4v-1.3h-7.5v-0.9h3.8v-1.6h-5.1v-0.9h8.5
			c0.3-1.3,0.3-2.3,0.3-3.1h-7.3v-0.9h8.5v0.8c0,0.8,0,1.9-0.3,3.2h1.7v0.9H1597.9z"/>
	</g>
	<g class="st2">
		<path class="st4" d="M1439.7,1515.6c-1.4-0.5-2.5-1.7-3.1-3.1c-0.5,1.5-1.7,2.7-3.1,3.4l-0.6-0.9c1.9-0.7,3.2-2.5,3.2-4.5v-1.3
			h1.1v1.3c0,1.9,1.3,3.6,3.1,4.3L1439.7,1515.6z M1443.4,1519.8v0.9h-8.5v-3.9h1.1v3H1443.4z M1443.1,1517.7h-1.1v-9.2h1.1V1517.7z
			"/>
		<path class="st4" d="M1457,1515.7h-3v5.3h-1.1v-5.3h-3.2v5.3h-1.1v-5.3h-2.9v-0.9h8.3c0.4-2,0.4-3.4,0.4-4.5h-7.2v-1h8.4v0.9
			c0,1.1,0,2.6-0.4,4.6h1.9v0.9H1457z"/>
		<path class="st4" d="M1473,1518.5v1h-11.4v-1H1473z M1464.6,1510.7h-1.9v-0.9h9.3v0.9h-1.9v4.4h1.9v0.9h-9.3v-0.9h1.9V1510.7z
			 M1468.9,1510.7h-3.1v4.4h3.1V1510.7z"/>
		<path class="st4" d="M1485.9,1518.5v0.9h-11.4v-0.9h5.1v-2.4h-3.7v-3.9h7.5v-2h-7.5v-0.9h8.6v3.8h-7.4v2h7.7v0.9h-4v2.4
			L1485.9,1518.5L1485.9,1518.5z"/>
		<path class="st4" d="M1493,1515.6c-1.1-0.5-2-1.4-2.4-2.5c-0.4,1.2-1.3,2.3-2.5,2.8l-0.6-0.9c1.6-0.7,2.5-2.3,2.5-3.8v-0.7h-2.3
			v-0.9h5.6v0.9h-2.2v0.7c0,1.4,0.9,2.9,2.5,3.5L1493,1515.6z M1489.6,1516.7h8.4v4.3h-1.1v-3.4h-7.3V1516.7z M1494.5,1511.7v-3h1.1
			v7.3h-1.1v-3.4h-1.9v-0.9H1494.5z M1498,1508.5v7.7h-1.1v-7.7H1498z"/>
		<path class="st4" d="M1511.7,1518.5v0.9h-11.4v-0.9H1511.7z M1510.4,1516.2h-8.6v-6.6h8.5v0.9h-7.3v1.9h7.1v0.9h-7.1v2h7.5
			L1510.4,1516.2L1510.4,1516.2z"/>
		<path class="st4" d="M1513.2,1517.3c2.3,0,5.4,0,8.2-0.4l0.1,0.9c-2.8,0.5-5.9,0.5-8.1,0.5L1513.2,1517.3z M1520.6,1512.4
			c0,1.8-1.4,3-3.4,3c-1.9,0-3.4-1.2-3.4-3s1.4-3,3.4-3S1520.6,1510.6,1520.6,1512.4z M1515,1512.4c0,1.2,0.9,2,2.2,2s2.2-0.8,2.2-2
			s-0.9-2-2.2-2S1515,1511.2,1515,1512.4z M1523.4,1508.5v12.6h-1.1v-12.6H1523.4z"/>
		<path class="st4" d="M1540.5,1515.2v0.9h-11.3v-0.9h5.1v-1.3c-2.4-0.1-3.9-1-3.9-2.5c0-1.6,1.7-2.5,4.4-2.5c2.7,0,4.4,0.9,4.4,2.5
			c0,1.4-1.5,2.4-3.8,2.5v1.3H1540.5z M1531.8,1519.8h7.5v0.9h-8.6v-3.6h1.1V1519.8z M1534.9,1512.9c2,0,3.2-0.6,3.2-1.6
			s-1.3-1.6-3.2-1.6c-2,0-3.2,0.6-3.2,1.6S1532.9,1512.9,1534.9,1512.9z"/>
		<path class="st4" d="M1549.1,1514.6c-1.4-0.5-2.6-1.6-3.2-2.9c-0.5,1.4-1.7,2.6-3.2,3.1l-0.6-0.9c1.9-0.7,3.2-2.3,3.2-4.2v-1h1.1
			v1c0,1.7,1.3,3.3,3.2,3.9L1549.1,1514.6z M1552.8,1520v0.9h-8.5v-3.1h7v-1.2h-7v-0.9h8.1v3h-7v1.3L1552.8,1520L1552.8,1520z
			 M1552.3,1515h-1.1v-6.5h1.1V1515z"/>
		<path class="st4" d="M1561.3,1509.8c0,3.6-1.6,6.8-5.7,8.8l-0.6-0.9c3.2-1.6,4.9-4,5.2-7h-4.6v-1L1561.3,1509.8L1561.3,1509.8z
			 M1566.6,1514.5h-2v6.5h-1.1v-12.6h1.1v5.1h2V1514.5z"/>
		<path class="st4" d="M1579.2,1518.4v1h-11.4v-1H1579.2z M1578.1,1515.7c-1.9-0.4-3.9-1.8-4.7-3.6c-0.8,1.8-2.8,3.2-4.7,3.6l-0.5-1
			c2.2-0.4,4.6-2.3,4.6-4.5v-1h1.2v1c0,2.1,2.4,4,4.6,4.5L1578.1,1515.7z"/>
	</g>
	<g class="st2">
		<path class="st4" d="M1438.7,1538.1c-0.6,0.7-1.5,1.1-2.5,1.1c-1.9,0-3.2-1.2-3.2-3s1.4-3,3.2-3c1.1,0,2,0.4,2.5,1h3.2v-1.8h1.2
			v7.4h-1.2v-1.8h-3.2V1538.1z M1436.2,1538.2c1.2,0,2.1-0.8,2.1-2s-0.9-2-2.1-2s-2.1,0.8-2.1,2
			C1434,1537.4,1435,1538.2,1436.2,1538.2z M1443.1,1542.6c0,1.5-1.6,2.4-4.2,2.4s-4.2-0.9-4.2-2.4s1.6-2.4,4.2-2.4
			S1443.1,1541.1,1443.1,1542.6z M1442,1542.6c0-1-1.1-1.5-3.1-1.5c-1.9,0-3,0.6-3,1.5s1.1,1.5,3,1.5
			C1440.9,1544.1,1442,1543.6,1442,1542.6z M1439.2,1535.2c0.1,0.3,0.2,0.6,0.2,1c0,0.3-0.1,0.7-0.2,1h2.7v-2H1439.2z"/>
		<path class="st4" d="M1453.1,1534.8h-7.4v-0.9h3.1v-1.5h1.1v1.5h3.1v0.9H1453.1z M1449.4,1539.9c-1.8,0-3-0.9-3-2.2
			c0-1.3,1.2-2.2,3-2.2s3,0.9,3,2.2S1451.2,1539.9,1449.4,1539.9z M1455.5,1542.9c0,1.4-1.6,2.2-4.1,2.2s-4.1-0.8-4.1-2.2
			c0-1.4,1.6-2.2,4.1-2.2C1454,1540.7,1455.5,1541.5,1455.5,1542.9z M1449.4,1539c1.1,0,1.9-0.5,1.9-1.4c0-0.8-0.8-1.3-1.9-1.3
			s-1.9,0.5-1.9,1.3C1447.5,1538.5,1448.2,1539,1449.4,1539z M1454.4,1542.9c0-0.8-1.1-1.3-3-1.3s-3,0.5-3,1.3s1.1,1.3,3,1.3
			S1454.4,1543.7,1454.4,1542.9z M1455.4,1535.6v1.7h1.8v1h-1.8v2.3h-1.1v-8.1h1.1v2.2h1.8v0.9H1455.4z"/>
		<path class="st4" d="M1473,1539.1v0.9h-5v2.4h-1.1v-2.4h-5.2v-0.9H1473z M1464.2,1543.8h7.6v0.9h-8.7v-3.4h1.1V1543.8z
			 M1471.5,1537.9h-8.4v-5h1.1v1.6h6.1v-1.6h1.1v5H1471.5z M1470.4,1535.4h-6.1v1.6h6.1V1535.4z"/>
		<path class="st4" d="M1481.2,1539.4c-1.4-0.5-2.5-1.6-3-2.9c-0.5,1.5-1.6,2.6-3.1,3.2l-0.6-0.9c1.9-0.7,3.1-2.4,3.1-4.3v-1.3h1.1
			v1.4c0,1.7,1.2,3.3,3.1,4L1481.2,1539.4z M1476.5,1540.6h8.4v4.5h-1.2v-3.5h-7.3L1476.5,1540.6L1476.5,1540.6z M1484.9,1532.5v7.4
			h-1.2v-3.9h-2.7v-0.9h2.7v-2.6H1484.9z"/>
	</g>
	<g class="st2">
		<path class="st4" d="M1439,1562.5v2.3h3.7v4.2h-1.1v-3.3h-7.6v-0.9h3.9v-2.3h-5.1v-0.9h8.5c0.3-1.5,0.3-2.6,0.3-3.6h-7.3v-0.9h8.5
			v0.9c0,0.9,0,2.1-0.3,3.6h1.8v0.9L1439,1562.5L1439,1562.5z"/>
		<path class="st4" d="M1447.4,1564.8c1.2,0,2.5-0.1,4-0.4l0.1,1c-1.7,0.3-3.1,0.4-4.5,0.4h-0.8v-7.8h1.1v6.8H1447.4z
			 M1456.3,1556.5v12.6h-1.1v-6.5h-1.8v5.9h-1.1v-11.6h1.1v4.8h1.8v-5.1h1.1V1556.5z"/>
		<path class="st4" d="M1460.7,1562.9c0-0.6,0.4-1,0.9-1s0.9,0.4,0.9,1s-0.4,1-0.9,1S1460.7,1563.5,1460.7,1562.9z"/>
		<path class="st4" d="M1471,1565.3c1.2-0.1,2.5-0.2,3.6-0.3l0.1,0.9c-2.8,0.5-5.9,0.5-8.1,0.5l-0.1-1c1,0,2.2,0,3.4,0v-2.2
			c-1.6-0.2-2.8-1.3-2.8-2.9c0-1.8,1.4-2.9,3.3-2.9c2,0,3.4,1.2,3.4,2.9c0,1.6-1.1,2.7-2.8,2.9V1565.3z M1470.4,1562.2
			c1.3,0,2.3-0.8,2.3-2s-0.9-2-2.3-2c-1.3,0-2.2,0.8-2.2,2C1468.2,1561.4,1469.1,1562.2,1470.4,1562.2z M1476.6,1556.5v12.6h-1.1
			v-12.6H1476.6z"/>
		<path class="st4" d="M1487,1565.3c1.2-0.1,2.5-0.2,3.6-0.3l0.1,0.9c-2.8,0.5-5.9,0.5-8.1,0.5l-0.1-1c1,0,2.2,0,3.4,0v-2.2
			c-1.6-0.2-2.8-1.3-2.8-2.9c0-1.8,1.4-2.9,3.3-2.9c2,0,3.4,1.2,3.4,2.9c0,1.6-1.1,2.7-2.8,2.9V1565.3z M1486.4,1562.2
			c1.3,0,2.3-0.8,2.3-2s-0.9-2-2.3-2c-1.3,0-2.2,0.8-2.2,2C1484.2,1561.4,1485.1,1562.2,1486.4,1562.2z M1492.6,1556.5v12.6h-1.1
			v-12.6H1492.6z"/>
		<path class="st4" d="M1506.6,1564.8h-5.2v4.2h-1.1v-4.2h-5.1v-0.9h11.4L1506.6,1564.8L1506.6,1564.8z M1505.2,1562.4h-8.5v-5.4
			h1.1v1.7h6.2v-1.7h1.1v5.4H1505.2z M1504,1559.6h-6.2v1.8h6.2V1559.6z"/>
		<path class="st4" d="M1514.5,1557.3c0,3.2-2.2,5.4-5.9,6.5l-0.4-0.9c3.1-0.8,4.9-2.5,5.1-4.6h-4.6v-0.9L1514.5,1557.3
			L1514.5,1557.3z M1510,1564.2h7.9v4.7h-7.9V1564.2z M1511.1,1567.9h5.6v-2.8h-5.6V1567.9z M1519.7,1560.5h-1.9v3.1h-1.1v-7.1h1.1
			v3.1h1.9V1560.5z"/>
		<path class="st4" d="M1527.3,1563.7v1.4h3.7v3.8h-1.1v-2.9h-7.5v-0.9h3.9v-1.4h-5.1v-0.9h11.4v0.9H1527.3z M1521.7,1561.2
			c2.4-0.2,4.3-1.2,4.4-2.6h-3.9v-0.9h3.9v-1.3h1.1v1.3h3.9v0.9h-3.9c0.1,1.4,2,2.4,4.4,2.6l-0.4,0.9c-2.1-0.2-3.9-1-4.6-2.2
			c-0.8,1.3-2.6,2-4.7,2.2L1521.7,1561.2z"/>
		<path class="st4" d="M1538.1,1559.8c0,2.2,1.4,4.5,3.2,5.4l-0.7,0.9c-1.3-0.7-2.5-2.2-3-3.9c-0.5,1.8-1.7,3.4-3.1,4.2l-0.7-0.9
			c1.8-0.9,3.2-3.3,3.2-5.6v-2.3h1.1V1559.8z M1545.6,1562.5h-2.1v6.5h-1.1v-12.6h1.1v5.1h2.1V1562.5z"/>
		<path class="st4" d="M1557.1,1556.5v6.7h-1.2v-2.8h-2.5c-0.2,1.5-1.5,2.5-3.2,2.5c-1.9,0-3.2-1.2-3.2-2.9c0-1.7,1.4-2.9,3.2-2.9
			c1.7,0,3,1,3.2,2.4h2.6v-3L1557.1,1556.5L1557.1,1556.5z M1552.3,1560c0-1.1-0.9-1.9-2.1-1.9s-2.1,0.8-2.1,1.9s0.9,2,2.1,2
			S1552.3,1561.1,1552.3,1560z M1556,1563.8h1.1v5h-8v-5h1.1v1.6h5.8V1563.8z M1556,1566.3h-5.8v1.6h5.8V1566.3z"/>
		<path class="st4" d="M1569.6,1563.4c-1.4-0.4-2.5-1.4-3.1-2.6c-0.5,1.3-1.7,2.3-3.2,2.8l-0.6-0.9c1.9-0.6,3.1-2,3.1-3.7v-0.2h-2.8
			v-0.9h2.8v-1.5h1.1v1.5h2.8v0.9h-2.8v0.2c0,1.5,1.2,2.9,3.1,3.5L1569.6,1563.4z M1564.7,1564.5h7.9v4.4h-7.9V1564.5z
			 M1565.8,1567.9h5.6v-2.5h-5.6V1567.9z M1574.4,1560.6h-1.9v3.3h-1.1v-7.4h1.1v3.2h1.9V1560.6z"/>
		<path class="st4" d="M1586,1556.5v12.6h-1.1v-4.9h-3.1c-0.5,1.3-1.5,2-2.7,2c-1.8,0-3.1-1.7-3.1-4.4c0-2.7,1.3-4.4,3.1-4.4
			c1.2,0,2.1,0.7,2.6,1.8h3.2v-2.8h1.1V1556.5z M1581.1,1561.8c0-2-0.9-3.3-2-3.3c-1.2,0-2,1.3-2,3.3s0.8,3.4,2,3.4
			C1580.2,1565.2,1581.1,1563.9,1581.1,1561.8z M1584.9,1563.3v-3h-2.9c0.1,0.5,0.2,1,0.2,1.6c0,0.5-0.1,1-0.1,1.4H1584.9z"/>
		<path class="st4" d="M1599.9,1562.3v0.9h-11.4v-0.9H1599.9z M1591.1,1568h7.8v0.8h-9v-2.8h7.5v-1.1h-7.5v-0.8h8.6v2.7h-7.5
			L1591.1,1568L1591.1,1568z M1597.3,1557.6h-7.4v-0.8h8.5v2.6h-7.3v1.1h7.6v0.8h-8.7v-2.7h7.3V1557.6z"/>
	</g>
	<g class="st2">
		<path class="st4" d="M1444.1,1587.1v0.9h-11.4v-0.9h5.1v-1.2h-3.6v-5.1h8.5v0.9h-7.3v1.2h7v0.9h-7v1.2h7.4v0.9h-3.8v1.2H1444.1z
			 M1442.7,1591c0,1.3-1.6,2-4.3,2c-2.7,0-4.3-0.7-4.3-2s1.6-2,4.3-2S1442.7,1589.7,1442.7,1591z M1441.6,1591
			c0-0.7-1.1-1.1-3.2-1.1c-2,0-3.2,0.4-3.2,1.1c0,0.8,1.1,1.1,3.2,1.1C1440.4,1592.2,1441.6,1591.8,1441.6,1591z"/>
		<path class="st4" d="M1453.1,1582.9h-7.4v-0.9h3.1v-1.5h1.1v1.5h3.1v0.9H1453.1z M1449.4,1588.3c-1.8,0-3-0.9-3-2.3s1.2-2.3,3-2.3
			s3,0.9,3,2.3S1451.1,1588.3,1449.4,1588.3z M1449.4,1587.4c1.1,0,1.9-0.6,1.9-1.4c0-0.9-0.8-1.4-1.9-1.4s-1.9,0.6-1.9,1.4
			S1448.2,1587.4,1449.4,1587.4z M1448.7,1591.8h7.2v0.9h-8.4v-3.6h1.1v2.7H1448.7z M1457.2,1584.6v1h-1.9v4.3h-1.1v-9.4h1.1v4.1
			H1457.2z"/>
		<path class="st4" d="M1473,1589h-5.1v4h-1.1v-4h-5.1v-0.9h11.4v0.9H1473z M1462.4,1586.2c2.3-0.3,4.4-1.7,4.4-3.2h-4v-0.9h4v-1.5
			h1.1v1.5h4v0.9h-4c0,1.5,2.1,2.9,4.4,3.2l-0.4,0.9c-1.9-0.3-3.7-1.3-4.5-2.6c-0.8,1.4-2.6,2.3-4.6,2.6L1462.4,1586.2z"/>
		<path class="st4" d="M1480.9,1581.8c0,3.6-1.6,6.8-5.7,8.8l-0.6-0.9c3.2-1.6,4.9-4,5.2-7h-4.6v-1L1480.9,1581.8L1480.9,1581.8z
			 M1486.2,1586.5h-2v6.5h-1.1v-12.6h1.1v5.1h2V1586.5z"/>
		<path class="st4" d="M1496.9,1581.3c0,3.2-2.2,5.4-5.9,6.5l-0.4-0.9c3.1-0.8,4.9-2.5,5.1-4.6h-4.6v-0.9L1496.9,1581.3
			L1496.9,1581.3z M1492.4,1588.2h7.9v4.7h-7.9V1588.2z M1493.5,1591.9h5.6v-2.8h-5.6V1591.9z M1502.1,1584.5h-1.9v3.1h-1.1v-7.1
			h1.1v3.1h1.9V1584.5z"/>
		<path class="st4" d="M1509.7,1587.7v1.4h3.7v3.8h-1.1v-2.9h-7.5v-0.9h3.9v-1.4h-5.1v-0.9h11.4v0.9H1509.7z M1504.1,1585.2
			c2.4-0.2,4.3-1.2,4.4-2.6h-3.9v-0.9h3.9v-1.3h1.1v1.3h3.9v0.9h-3.9c0.1,1.4,2,2.4,4.4,2.6l-0.4,0.9c-2.1-0.2-3.9-1-4.6-2.2
			c-0.8,1.3-2.6,2-4.7,2.2L1504.1,1585.2z"/>
	</g>
</g>
</svg>
