<?xml version="1.0" encoding="utf-8"?>
<!-- Generator: Adobe Illustrator 25.1.0, SVG Export Plug-In . SVG Version: 6.00 Build 0)  -->
<svg version="1.1" id="레이어_1" xmlns="http://www.w3.org/2000/svg" xmlns:xlink="http://www.w3.org/1999/xlink" x="0px"
	 y="0px" viewBox="0 0 335 378.9" style="enable-background:new 0 0 335 378.9;" xml:space="preserve">
<style type="text/css">
	.st0{enable-background:new    ;}
	.st1{fill:#3AA25C;}
	.st2{fill:#929397;}
	.st3{fill:#E2E2E2;}
	.st4{fill:#808080;}
	.st5{fill:#A3A3A3;}
	.st6{fill:#FFFFFF;}
	.st7{fill:#3E3E3E;}
	.st8{fill:none;stroke:#3AA25C;}
	.st9{opacity:0.416;fill:none;stroke:#94989E;enable-background:new    ;}
</style>
<g id="그룹_5743" transform="translate(-20 -2744.255)">
	<g class="st0">
		<path class="st1" d="M32.3,2755.2v1.5H20.6v-1.5h4.9v-1c-2.3-0.2-3.7-1.2-3.7-2.6c0-1.6,1.9-2.7,4.7-2.7c2.8,0,4.7,1,4.7,2.7
			c0,1.4-1.5,2.4-3.8,2.6v1H32.3z M23.9,2759.8H31v1.5H22v-3.7h1.8V2759.8z M26.4,2752.7c1.7,0,2.8-0.4,2.8-1.2c0-0.8-1-1.2-2.8-1.2
			c-1.7,0-2.8,0.4-2.8,1.2C23.7,2752.3,24.7,2752.7,26.4,2752.7z"/>
		<path class="st1" d="M40.5,2754.9c-1.5-0.4-2.5-1.3-3-2.5c-0.6,1.2-1.6,2.2-3.2,2.7l-0.9-1.4c2.1-0.7,3.1-2.3,3.1-3.9v-1h1.9v1
			c0,1.5,0.9,3,3,3.6L40.5,2754.9z M44.5,2759.9v1.4h-8.9v-3.5h6.8v-0.8h-6.8v-1.4h8.6v3.5h-6.8v0.8H44.5z M44.2,2755.1h-1.8v-6.5
			h1.8V2755.1z"/>
		<path class="st1" d="M53,2749.9c0,3.9-1.5,7.2-5.8,9.4l-1-1.4c3-1.5,4.6-3.6,4.9-6.4H47v-1.5H53z M58.3,2755h-1.8v6.4h-1.8v-12.9
			h1.8v4.9h1.8V2755z"/>
		<path class="st1" d="M70.9,2758.4v1.5H59.2v-1.5H70.9z M69.7,2756.2c-2.2-0.4-3.9-1.7-4.7-3.3c-0.8,1.6-2.5,2.9-4.7,3.3l-0.8-1.6
			c2.9-0.5,4.5-2.5,4.5-4.4v-0.9h2v0.9c0,1.9,1.6,3.9,4.5,4.4L69.7,2756.2z"/>
		<path class="st1" d="M82.4,2755.4c-1.5-0.4-2.5-1.3-3-2.4c-0.6,1.2-1.6,2.2-3.1,2.6l-0.9-1.5c2-0.6,3-2,3.1-3.5h-2.6v-1.5h7v1.5
			h-2.5c0.1,1.4,1.1,2.7,3,3.3L82.4,2755.4z M84.2,2756.1H86v5.2h-8.6v-5.2h1.8v1.2h4.9V2756.1z M84.2,2758.7h-4.9v1.1h4.9V2758.7z
			 M86,2748.6v7h-1.9v-7H86z"/>
		<path class="st1" d="M91.8,2755.6c-2,0-3.5-1.3-3.5-3.2s1.5-3.2,3.5-3.2c2,0,3.5,1.3,3.5,3.2S93.8,2755.6,91.8,2755.6z
			 M89.7,2756.7h8.6v4.8h-1.8v-3.3h-6.8V2756.7z M91.8,2754c1,0,1.7-0.6,1.7-1.6c0-1-0.7-1.6-1.7-1.6c-1,0-1.7,0.6-1.7,1.6
			C90.1,2753.4,90.8,2754,91.8,2754z M98.3,2751.7v1.3h1.7v1.5h-1.7v1.6h-1.8v-7.6h1.8v1.7h1.7v1.5H98.3z"/>
		<path class="st1" d="M112.7,2758.5v1.5h-11.7v-1.5h4.9v-2.7h-3.5v-6.4h9v1.5h-7.1v3.4h7.2v1.5h-3.7v2.7H112.7z"/>
	</g>
	<g class="st0">
		<path class="st2" d="M25.9,2809.5c-1.2,0.2-2.3,0.3-4.2,0.3H21v-4.1h4v0.7h-3.1v2.8c1.8,0,2.8-0.1,4-0.3L25.9,2809.5z M22.8,2813
			H28v0.7h-6v-2.9h0.8V2813z M28.9,2807.6v0.7h-1.3v3.1h-0.8v-6.5h0.8v2.7H28.9z"/>
		<path class="st2" d="M35.8,2810.1c-0.8,0.2-1.7,0.2-2.6,0.3v3.2h-0.8v-3.2c-0.9,0-1.7,0-2.5,0l-0.1-0.7c1.7,0,3.9,0,5.9-0.3
			L35.8,2810.1z M30.5,2807.2c0-1.1,0.9-1.8,2.3-1.8c1.3,0,2.3,0.8,2.3,1.8c0,1.1-0.9,1.8-2.3,1.8
			C31.4,2809,30.5,2808.3,30.5,2807.2z M31.3,2807.2c0,0.7,0.6,1.2,1.5,1.2c0.9,0,1.5-0.5,1.5-1.2c0-0.7-0.6-1.2-1.5-1.2
			C31.9,2806,31.3,2806.5,31.3,2807.2z M37.2,2804.9v9h-0.8v-9H37.2z"/>
		<path class="st2" d="M41.5,2808.6c0-0.4,0.3-0.7,0.7-0.7s0.7,0.3,0.7,0.7c0,0.4-0.3,0.7-0.7,0.7S41.5,2809,41.5,2808.6z
			 M41.5,2812.6c0-0.4,0.3-0.7,0.7-0.7s0.7,0.3,0.7,0.7c0,0.4-0.3,0.7-0.7,0.7S41.5,2813,41.5,2812.6z"/>
	</g>
	<g class="st0">
		<path class="st2" d="M46.8,2811.5v-3H46v-0.7l0.8,0l0.1-1.5h0.8v1.5h1.5v0.7h-1.5v3c0,0.7,0.2,1,0.8,1c0.2,0,0.4-0.1,0.6-0.1
			l0.2,0.7c-0.3,0.1-0.7,0.2-1,0.2C47.2,2813.3,46.8,2812.6,46.8,2811.5z"/>
		<path class="st2" d="M50.1,2809.5c0-2.4,1.4-3.8,3.2-3.8c0.9,0,1.6,0.4,2,0.9l-0.5,0.6c-0.4-0.4-0.9-0.7-1.5-0.7
			c-1.4,0-2.3,1.1-2.3,3c0,1.8,0.9,3,2.3,3c0.7,0,1.2-0.3,1.7-0.8l0.5,0.6c-0.6,0.7-1.3,1-2.2,1
			C51.5,2813.3,50.1,2811.9,50.1,2809.5z"/>
		<path class="st2" d="M56.2,2809.5c0-2.3,1.3-3.8,3.1-3.8s3.1,1.4,3.1,3.8c0,2.3-1.3,3.8-3.1,3.8S56.2,2811.8,56.2,2809.5z
			 M61.5,2809.5c0-1.8-0.9-3-2.2-3c-1.3,0-2.2,1.1-2.2,3c0,1.8,0.9,3,2.2,3C60.6,2812.5,61.5,2811.3,61.5,2809.5z"/>
	</g>
	<g class="st0">
		<path class="st2" d="M63.3,2816.2c1.3-1.2,2-2,2-2.8c0-0.5-0.3-0.8-0.8-0.8c-0.4,0-0.7,0.2-0.9,0.5l-0.3-0.3
			c0.3-0.4,0.7-0.6,1.3-0.6c0.8,0,1.2,0.5,1.2,1.3c0,0.9-0.7,1.7-1.7,2.7c0.2,0,0.5,0,0.7,0h1.2v0.5h-2.7V2816.2z"/>
	</g>
	<g class="st0">
		<path class="st2" d="M66.7,2810h2.6v0.7h-2.6V2810z"/>
		<path class="st2" d="M70.2,2810.4c0-1.8,1.2-2.9,2.4-2.9c1.4,0,2.2,1,2.2,2.5c0,0.2,0,0.4,0,0.5h-3.7c0.1,1.2,0.8,1.9,1.8,1.9
			c0.5,0,1-0.2,1.4-0.4l0.3,0.6c-0.5,0.3-1.1,0.6-1.8,0.6C71.4,2813.3,70.2,2812.2,70.2,2810.4z M74,2810c0-1.1-0.5-1.7-1.3-1.7
			c-0.8,0-1.4,0.6-1.6,1.7H74z"/>
		<path class="st2" d="M79.6,2813.5l0.1-1c-0.4,0.4-1,0.8-1.6,0.8c-1.4,0-2.2-1-2.2-2.8c0-1.8,1.1-2.9,2.3-2.9
			c0.6,0,1.1,0.2,1.5,0.7h0l0.1-0.5h0.7v7.7h-0.9V2813.5z M79.6,2811.8v-2.8c-0.5-0.4-0.9-0.6-1.3-0.6c-0.9,0-1.6,0.8-1.6,2.1
			c0,1.3,0.5,2.1,1.5,2.1C78.7,2812.5,79.2,2812.3,79.6,2811.8z"/>
		<path class="st2" d="M86.8,2805.2h0.7l-3,9.7h-0.7L86.8,2805.2z"/>
	</g>
	<g class="st0">
		<path class="st2" d="M95.4,2809.5c-1-0.3-1.9-1.1-2.3-2c-0.4,1-1.2,1.8-2.3,2.2l-0.4-0.6c1.4-0.5,2.3-1.7,2.3-2.9v-0.8h0.8v0.8
			c0,1.2,0.9,2.3,2.3,2.8L95.4,2809.5z M96.9,2810.2h0.8v3.6H92v-3.6h0.8v1.1h4.2V2810.2z M96.9,2811.9h-4.2v1.2h4.2V2811.9z
			 M97.7,2804.9v4.8h-0.8v-4.8H97.7z"/>
		<path class="st2" d="M107,2804.9v5.3h-0.8v-2.3h-1.8c-0.1,1.1-1.1,1.8-2.3,1.8c-1.3,0-2.3-0.9-2.3-2.2c0-1.3,1-2.1,2.3-2.1
			c1.2,0,2.1,0.7,2.3,1.8h1.8v-2.3H107z M103.6,2807.6c0-0.8-0.7-1.4-1.5-1.4c-0.9,0-1.5,0.6-1.5,1.4c0,0.9,0.6,1.5,1.5,1.5
			C102.9,2809,103.6,2808.4,103.6,2807.6z M101,2810.7h6v3.2h-0.8v-2.5H101V2810.7z"/>
		<path class="st2" d="M113.6,2809.7c-0.9,0-1.7,0-2.5,0l-0.1-0.7c1.7,0,3.9,0,5.8-0.3l0.1,0.6c-0.8,0.1-1.6,0.2-2.4,0.3v1.8h-0.8
			V2809.7z M111.7,2806.8c0-0.9,0.9-1.6,2.2-1.6c1.3,0,2.2,0.6,2.2,1.6c0,1-0.9,1.6-2.2,1.6C112.6,2808.4,111.7,2807.8,111.7,2806.8
			z M118.6,2813v0.7h-6.3v-2.6h0.8v1.9H118.6z M112.5,2806.8c0,0.6,0.6,1,1.4,1c0.8,0,1.4-0.4,1.4-1c0-0.6-0.6-0.9-1.4-0.9
			C113,2805.9,112.5,2806.3,112.5,2806.8z M117.5,2810.2v-5.3h0.8v6.8h-0.8v-0.9h-1.8v-0.6H117.5z"/>
	</g>
	<g class="st0">
		<path class="st2" d="M25.9,2984.9c-1.2,0.2-2.3,0.3-4.2,0.3H21v-4.1h4v0.7h-3.1v2.8c1.8,0,2.8-0.1,4-0.3L25.9,2984.9z
			 M22.8,2988.4H28v0.7h-6v-2.9h0.8V2988.4z M28.9,2983v0.7h-1.3v3.1h-0.8v-6.5h0.8v2.7H28.9z"/>
		<path class="st2" d="M35.8,2985.5c-0.8,0.2-1.7,0.2-2.6,0.3v3.2h-0.8v-3.2c-0.9,0-1.7,0.1-2.5,0.1l-0.1-0.7c1.7,0,3.9,0,5.9-0.3
			L35.8,2985.5z M30.5,2982.6c0-1.1,0.9-1.8,2.3-1.8c1.3,0,2.3,0.8,2.3,1.8c0,1.1-0.9,1.8-2.3,1.8
			C31.4,2984.4,30.5,2983.7,30.5,2982.6z M31.3,2982.6c0,0.7,0.6,1.2,1.5,1.2c0.9,0,1.5-0.5,1.5-1.2c0-0.7-0.6-1.2-1.5-1.2
			C31.9,2981.4,31.3,2981.9,31.3,2982.6z M37.2,2980.3v9h-0.8v-9H37.2z"/>
		<path class="st2" d="M41.5,2984c0-0.4,0.3-0.7,0.7-0.7s0.7,0.3,0.7,0.7c0,0.4-0.3,0.7-0.7,0.7S41.5,2984.4,41.5,2984z M41.5,2988
			c0-0.4,0.3-0.7,0.7-0.7s0.7,0.3,0.7,0.7c0,0.4-0.3,0.7-0.7,0.7S41.5,2988.4,41.5,2988z"/>
	</g>
	<g class="st0">
		<path class="st2" d="M46.8,2986.9v-3H46v-0.7l0.8,0l0.1-1.5h0.8v1.5h1.5v0.7h-1.5v3c0,0.7,0.2,1,0.8,1c0.2,0,0.4-0.1,0.6-0.1
			l0.2,0.7c-0.3,0.1-0.7,0.2-1,0.2C47.2,2988.7,46.8,2988,46.8,2986.9z"/>
		<path class="st2" d="M50.1,2984.9c0-2.4,1.4-3.8,3.2-3.8c0.9,0,1.6,0.4,2,0.9l-0.5,0.6c-0.4-0.4-0.9-0.7-1.5-0.7
			c-1.4,0-2.3,1.1-2.3,3c0,1.8,0.9,3,2.3,3c0.7,0,1.2-0.3,1.7-0.8l0.5,0.6c-0.6,0.7-1.3,1.1-2.2,1.1
			C51.5,2988.7,50.1,2987.3,50.1,2984.9z"/>
		<path class="st2" d="M56.2,2984.9c0-2.3,1.3-3.8,3.1-3.8s3.1,1.4,3.1,3.8s-1.3,3.8-3.1,3.8S56.2,2987.2,56.2,2984.9z M61.5,2984.9
			c0-1.8-0.9-3-2.2-3c-1.3,0-2.2,1.1-2.2,3c0,1.8,0.9,3,2.2,3C60.6,2987.9,61.5,2986.7,61.5,2984.9z"/>
		<path class="st2" d="M63.4,2988c2.3-2,3.4-3.5,3.4-4.7c0-0.8-0.4-1.4-1.3-1.4c-0.6,0-1.1,0.4-1.5,0.8l-0.5-0.5
			c0.6-0.6,1.2-1.1,2.2-1.1c1.3,0,2.1,0.9,2.1,2.2c0,1.5-1.1,2.9-2.9,4.6c0.4,0,0.8-0.1,1.2-0.1h2v0.8h-4.6V2988z"/>
		<path class="st2" d="M69,2985.4h2.6v0.7H69V2985.4z"/>
		<path class="st2" d="M72.5,2985.9c0-1.8,1.2-2.9,2.4-2.9c1.4,0,2.2,1,2.2,2.5c0,0.2,0,0.4,0,0.5h-3.7c0.1,1.2,0.8,1.9,1.8,1.9
			c0.5,0,1-0.2,1.4-0.4l0.3,0.6c-0.5,0.3-1.1,0.6-1.8,0.6C73.7,2988.7,72.5,2987.6,72.5,2985.9z M76.3,2985.4c0-1.1-0.5-1.7-1.3-1.7
			c-0.8,0-1.4,0.6-1.6,1.7H76.3z"/>
		<path class="st2" d="M81.9,2988.9l0.1-1c-0.4,0.4-1,0.8-1.6,0.8c-1.4,0-2.2-1-2.2-2.8c0-1.8,1.1-2.9,2.3-2.9
			c0.6,0,1.1,0.2,1.5,0.7h0l0.1-0.5h0.7v7.7h-0.9V2988.9z M81.9,2987.2v-2.8c-0.5-0.4-0.9-0.6-1.3-0.6c-0.9,0-1.6,0.8-1.6,2.1
			c0,1.3,0.5,2.1,1.5,2.1C81,2987.9,81.5,2987.7,81.9,2987.2z"/>
		<path class="st2" d="M89.1,2980.6h0.7l-3,9.7h-0.7L89.1,2980.6z"/>
	</g>
	<g class="st0">
		<path class="st2" d="M97.7,2984.9c-1-0.3-1.9-1.1-2.3-2c-0.4,1-1.2,1.8-2.3,2.2l-0.4-0.6c1.4-0.5,2.3-1.7,2.3-2.9v-0.8h0.8v0.8
			c0,1.2,0.9,2.3,2.3,2.8L97.7,2984.9z M99.2,2985.6h0.8v3.6h-5.8v-3.6h0.8v1.1h4.2V2985.6z M99.2,2987.3h-4.2v1.2h4.2V2987.3z
			 M100,2980.3v4.8h-0.8v-4.8H100z"/>
		<path class="st2" d="M109.3,2980.3v5.3h-0.8v-2.3h-1.8c-0.1,1.1-1.1,1.8-2.3,1.8c-1.3,0-2.3-0.9-2.3-2.2c0-1.3,1-2.1,2.3-2.1
			c1.2,0,2.1,0.7,2.3,1.8h1.8v-2.3H109.3z M105.9,2983c0-0.8-0.7-1.4-1.5-1.4c-0.9,0-1.5,0.6-1.5,1.4c0,0.9,0.6,1.5,1.5,1.5
			C105.2,2984.5,105.9,2983.8,105.9,2983z M103.3,2986.1h6v3.2h-0.8v-2.5h-5.2V2986.1z"/>
		<path class="st2" d="M115.9,2985.1c-0.9,0-1.7,0-2.5,0l-0.1-0.7c1.7,0,3.9,0,5.8-0.3l0.1,0.6c-0.8,0.1-1.6,0.2-2.4,0.3v1.8h-0.8
			V2985.1z M114,2982.3c0-0.9,0.9-1.6,2.2-1.6c1.3,0,2.2,0.6,2.2,1.6c0,1-0.9,1.6-2.2,1.6C114.9,2983.8,114,2983.2,114,2982.3z
			 M120.9,2988.4v0.7h-6.3v-2.6h0.8v1.9H120.9z M114.8,2982.3c0,0.6,0.6,1,1.4,1c0.8,0,1.4-0.4,1.4-1c0-0.6-0.6-0.9-1.4-0.9
			C115.3,2981.3,114.8,2981.7,114.8,2982.3z M119.8,2985.6v-5.3h0.8v6.8h-0.8v-0.9H118v-0.6H119.8z"/>
	</g>
	<path id="패스_3536" class="st3" d="M134,2947h52v-83.7h-52V2947z"/>
	<path id="패스_3537" class="st3" d="M134,3122.5h52v-93.1h-52V3122.5z"/>
	<g class="st0">
		<path class="st4" d="M149.5,2938.1c1.7-1.5,3.5-2.8,3.5-4.3c0-0.8-0.3-1.3-1.2-1.3c-0.8,0-1.2,0.6-1.3,1.4h-1.1
			c0-1.6,1.1-2.3,2.3-2.3c1.5,0,2.3,0.9,2.3,2.2c0,1.8-1.8,3.1-3,4.2h3.2v0.9h-4.9V2938.1z"/>
		<path class="st4" d="M157.9,2931.6c2,0,2.6,1.6,2.6,3.7c0,2.1-0.6,3.7-2.6,3.7s-2.6-1.6-2.6-3.7
			C155.3,2933.2,155.9,2931.6,157.9,2931.6z M157.9,2932.6c-1.3,0-1.5,1.3-1.5,2.6c0,1.4,0.1,2.7,1.5,2.7s1.5-1.2,1.5-2.7
			C159.4,2933.9,159.3,2932.6,157.9,2932.6z"/>
		<path class="st4" d="M162.5,2932.8h-0.9v-1h2.1v7.3h-1.1V2932.8z"/>
		<path class="st4" d="M165.4,2933.6c0-1.1,0.8-2,2.4-2c1.6,0,2.4,0.9,2.4,2c0,0.8-0.4,1.3-1,1.6c0.7,0.3,1.2,0.9,1.2,1.8
			c0,1.3-1.1,2.2-2.6,2.2c-1.5,0-2.6-0.9-2.6-2.2c0-0.9,0.5-1.5,1.2-1.8C165.9,2934.9,165.4,2934.4,165.4,2933.6z M166.3,2937
			c0,0.7,0.6,1.3,1.5,1.3c0.9,0,1.5-0.5,1.5-1.3c0-0.8-0.6-1.3-1.5-1.3C167,2935.7,166.3,2936.1,166.3,2937z M169.1,2933.7
			c0-0.7-0.5-1.2-1.3-1.2c-0.8,0-1.3,0.4-1.3,1.2c0,0.7,0.5,1.1,1.3,1.1C168.6,2934.8,169.1,2934.4,169.1,2933.7z"/>
	</g>
	<g class="st0">
		<path class="st5" d="M141.6,2854c2.4-2.1,4.9-4,4.9-6c0-1.1-0.5-1.8-1.7-1.8c-1.1,0-1.7,0.8-1.8,1.9h-1.5c0.1-2.2,1.5-3.3,3.3-3.3
			c2.1,0,3.2,1.2,3.2,3.1c0,2.5-2.5,4.4-4.2,5.9h4.4v1.3h-6.8V2854z"/>
		<path class="st5" d="M150,2847.7c0-1.5,1.1-2.8,3.4-2.8c2.3,0,3.4,1.3,3.4,2.8c0,1.1-0.6,1.9-1.5,2.3c1,0.4,1.7,1.3,1.7,2.5
			c0,1.9-1.5,3.1-3.6,3.1c-2.1,0-3.6-1.2-3.6-3.1c0-1.2,0.7-2.1,1.7-2.5C150.6,2849.5,150,2848.8,150,2847.7z M151.3,2852.4
			c0,1,0.8,1.8,2.1,1.8c1.3,0,2.1-0.8,2.1-1.8c0-1.1-0.9-1.8-2.1-1.8C152.2,2850.7,151.3,2851.2,151.3,2852.4z M155.2,2847.9
			c0-1-0.7-1.6-1.8-1.6c-1.1,0-1.8,0.6-1.8,1.6c0,0.9,0.8,1.6,1.8,1.6C154.5,2849.5,155.2,2848.8,155.2,2847.9z"/>
		<path class="st5" d="M159,2847.7c0-1.5,1.1-2.8,3.4-2.8c2.3,0,3.4,1.3,3.4,2.8c0,1.1-0.6,1.9-1.5,2.3c1,0.4,1.7,1.3,1.7,2.5
			c0,1.9-1.5,3.1-3.6,3.1c-2.1,0-3.6-1.2-3.6-3.1c0-1.2,0.7-2.1,1.7-2.5C159.6,2849.5,159,2848.8,159,2847.7z M160.2,2852.4
			c0,1,0.8,1.8,2.1,1.8c1.3,0,2.1-0.8,2.1-1.8c0-1.1-0.9-1.8-2.1-1.8C161.2,2850.7,160.2,2851.2,160.2,2852.4z M164.2,2847.9
			c0-1-0.7-1.6-1.8-1.6c-1.1,0-1.8,0.6-1.8,1.6c0,0.9,0.8,1.6,1.8,1.6C163.4,2849.5,164.2,2848.8,164.2,2847.9z"/>
		<path class="st5" d="M168.5,2855.4c-0.6,0-1-0.4-1-1s0.4-1,1-1c0.6,0,1,0.4,1,1S169.1,2855.4,168.5,2855.4z"/>
		<path class="st5" d="M174.7,2844.9c2.9,0,3.6,2.2,3.6,5.2c0,3-0.8,5.2-3.6,5.2s-3.6-2.2-3.6-5.2
			C171,2847.2,171.8,2844.9,174.7,2844.9z M174.7,2846.4c-1.9,0-2.1,1.8-2.1,3.7c0,2,0.2,3.8,2.1,3.8s2.1-1.8,2.1-3.8
			C176.7,2848.2,176.5,2846.4,174.7,2846.4z"/>
	</g>
	<g class="st0">
		<path class="st5" d="M146.1,3018.9h-5.1v-1.2l4.7-6.8h1.9v6.6h1.3v1.4h-1.3v2.1h-1.6V3018.9z M146.2,3017.5v-4.9l-3.3,4.9H146.2z"
			/>
		<path class="st5" d="M152.3,3018.2c0.2,0.9,0.8,1.4,1.8,1.4c1.3,0,1.9-0.9,1.9-3.5c-0.5,0.6-1.3,1-2.3,1c-1.8,0-3.2-1.1-3.2-3.3
			c0-2,1.2-3.4,3.4-3.4c2.6,0,3.5,1.8,3.5,5.2c0,3.4-0.7,5.3-3.4,5.3c-2.1,0-3.1-1.3-3.2-2.8H152.3z M155.9,3013.9
			c0-1.3-0.7-2-1.9-2c-1.2,0-1.9,0.8-1.9,2c0,1.1,0.6,2,2,2C155.2,3015.8,155.9,3015.1,155.9,3013.9z"/>
		<path class="st5" d="M159.5,3013.4c0-1.5,1.1-2.8,3.4-2.8c2.3,0,3.4,1.3,3.4,2.8c0,1.1-0.6,1.9-1.5,2.3c1,0.4,1.7,1.3,1.7,2.5
			c0,1.9-1.5,3.1-3.6,3.1c-2.1,0-3.6-1.2-3.6-3.1c0-1.2,0.7-2.1,1.7-2.5C160.1,3015.2,159.5,3014.5,159.5,3013.4z M160.8,3018.1
			c0,1,0.8,1.8,2.1,1.8c1.3,0,2.1-0.8,2.1-1.8c0-1.1-0.9-1.8-2.1-1.8C161.7,3016.4,160.8,3016.9,160.8,3018.1z M164.7,3013.6
			c0-1-0.7-1.6-1.8-1.6c-1.1,0-1.8,0.6-1.8,1.6c0,0.9,0.8,1.6,1.8,1.6C163.9,3015.2,164.7,3014.5,164.7,3013.6z"/>
		<path class="st5" d="M169,3021.1c-0.6,0-1-0.4-1-1s0.4-1,1-1c0.6,0,1,0.4,1,1S169.6,3021.1,169,3021.1z"/>
		<path class="st5" d="M173.5,3018.2c0.2,0.9,0.8,1.4,1.8,1.4c1.3,0,1.9-0.9,1.9-3.5c-0.5,0.6-1.3,1-2.3,1c-1.8,0-3.2-1.1-3.2-3.3
			c0-2,1.2-3.4,3.4-3.4c2.6,0,3.5,1.8,3.5,5.2c0,3.4-0.7,5.3-3.4,5.3c-2.1,0-3.1-1.3-3.2-2.8H173.5z M177.1,3013.9
			c0-1.3-0.7-2-1.9-2c-1.2,0-1.9,0.8-1.9,2c0,1.1,0.6,2,2,2C176.4,3015.8,177.1,3015.1,177.1,3013.9z"/>
	</g>
	<path id="패스_3538" class="st3" d="M206,2947h52v-90h-52V2947z"/>
	<path id="패스_3539" class="st3" d="M206,3122.9h52v-106.1h-52V3122.9z"/>
	<g class="st0">
		<path class="st4" d="M221.5,2938.1c1.7-1.5,3.5-2.8,3.5-4.3c0-0.8-0.3-1.3-1.2-1.3c-0.8,0-1.2,0.6-1.3,1.4h-1.1
			c0-1.6,1.1-2.3,2.3-2.3c1.5,0,2.3,0.9,2.3,2.2c0,1.8-1.8,3.1-3,4.2h3.2v0.9h-4.9V2938.1z"/>
		<path class="st4" d="M230,2931.6c2,0,2.6,1.6,2.6,3.7c0,2.1-0.6,3.7-2.6,3.7s-2.6-1.6-2.6-3.7
			C227.4,2933.2,227.9,2931.6,230,2931.6z M230,2932.6c-1.3,0-1.5,1.3-1.5,2.6c0,1.4,0.1,2.7,1.5,2.7s1.5-1.2,1.5-2.7
			C231.4,2933.9,231.3,2932.6,230,2932.6z"/>
		<path class="st4" d="M234.5,2932.8h-0.9v-1h2.1v7.3h-1.1V2932.8z"/>
		<path class="st4" d="M238.7,2937c0.1,0.7,0.6,1,1.3,1c0.9,0,1.4-0.6,1.4-2.5c-0.3,0.5-1,0.7-1.6,0.7c-1.3,0-2.3-0.8-2.3-2.3
			c0-1.4,0.9-2.4,2.4-2.4c1.9,0,2.5,1.3,2.5,3.7c0,2.5-0.5,3.8-2.4,3.8c-1.5,0-2.2-0.9-2.3-2H238.7z M241.2,2934
			c0-0.9-0.5-1.5-1.4-1.5c-0.8,0-1.4,0.6-1.4,1.4c0,0.8,0.4,1.4,1.4,1.4C240.8,2935.3,241.2,2934.8,241.2,2934z"/>
	</g>
	<g class="st0">
		<path class="st5" d="M213.4,2847.5c2.4-2.1,4.9-4,4.9-6c0-1.1-0.5-1.8-1.7-1.8c-1.1,0-1.7,0.8-1.8,1.9h-1.5
			c0.1-2.2,1.5-3.3,3.3-3.3c2.1,0,3.2,1.2,3.2,3.1c0,2.5-2.5,4.4-4.2,5.9h4.4v1.3h-6.8V2847.5z"/>
		<path class="st5" d="M226.5,2846.6h-5.1v-1.2l4.7-6.8h1.9v6.6h1.3v1.4h-1.3v2.1h-1.6V2846.6z M226.6,2845.2v-4.9l-3.3,4.9H226.6z"
			/>
		<path class="st5" d="M235.6,2846.6h-5.1v-1.2l4.7-6.8h1.9v6.6h1.3v1.4h-1.3v2.1h-1.6V2846.6z M235.6,2845.2v-4.9l-3.3,4.9H235.6z"
			/>
		<path class="st5" d="M240.6,2848.9c-0.6,0-1-0.4-1-1s0.4-1,1-1c0.6,0,1,0.4,1,1S241.2,2848.9,240.6,2848.9z"/>
		<path class="st5" d="M248.6,2840.9c-0.2-0.8-0.7-1.3-1.7-1.3c-1.4,0-2.2,1-2.2,3.7c0.5-0.8,1.5-1.3,2.6-1.3c1.8,0,3.1,1.2,3.1,3.4
			c0,1.9-1.2,3.4-3.3,3.4c-3,0-3.7-2.1-3.7-5.3c0-3.2,1.1-5.1,3.6-5.1c2,0,3,1.3,3.2,2.6H248.6z M244.9,2845.3
			c0,1.3,0.7,2.1,2.1,2.1c1.2,0,1.9-0.8,1.9-2c0-1.2-0.6-2.1-2-2.1C245.9,2843.3,244.9,2844,244.9,2845.3z"/>
	</g>
	<g class="st0">
		<path class="st5" d="M220.4,2998.5v1.4h-4.7v2.8c0.4-0.5,1.2-0.9,2.1-0.9c2.5,0,3.3,1.9,3.3,3.4c0,2-1.2,3.6-3.5,3.6
			c-2.1,0-3.3-1.2-3.6-2.8h1.6c0.2,0.9,0.9,1.4,2,1.4c1.4,0,2-0.9,2-2.2c0-1.3-0.7-2.1-2-2.1c-0.9,0-1.6,0.5-1.8,1.3h-1.5v-5.9
			H220.4z"/>
		<path class="st5" d="M228.2,3000.9c-0.2-0.8-0.7-1.3-1.7-1.3c-1.4,0-2.2,1-2.2,3.7c0.5-0.8,1.5-1.3,2.6-1.3c1.8,0,3.1,1.2,3.1,3.4
			c0,1.9-1.2,3.4-3.3,3.4c-3,0-3.7-2.1-3.7-5.3c0-3.2,1.1-5.1,3.6-5.1c2,0,3,1.3,3.2,2.6H228.2z M224.5,3005.3
			c0,1.3,0.7,2.1,2.1,2.1c1.2,0,1.9-0.8,1.9-2c0-1.2-0.6-2.1-2-2.1C225.5,3003.3,224.5,3004,224.5,3005.3z"/>
		<path class="st5" d="M238.2,2998.6v1.2l-3.9,9h-1.6l3.9-8.8h-5.2v-1.4H238.2z"/>
		<path class="st5" d="M240.4,3008.8c-0.6,0-1-0.4-1-1s0.4-1,1-1c0.6,0,1,0.4,1,1S241,3008.8,240.4,3008.8z"/>
		<path class="st5" d="M243.2,3001.1c0-1.5,1.1-2.8,3.4-2.8c2.3,0,3.4,1.3,3.4,2.8c0,1.1-0.6,1.9-1.5,2.3c1,0.4,1.7,1.3,1.7,2.5
			c0,1.9-1.5,3.1-3.6,3.1c-2.1,0-3.6-1.2-3.6-3.1c0-1.2,0.7-2.1,1.7-2.5C243.8,3003,243.2,3002.2,243.2,3001.1z M244.5,3005.9
			c0,1,0.8,1.8,2.1,1.8c1.3,0,2.1-0.8,2.1-1.8c0-1.1-0.9-1.8-2.1-1.8C245.4,3004.1,244.5,3004.7,244.5,3005.9z M248.4,3001.3
			c0-1-0.7-1.6-1.8-1.6c-1.1,0-1.8,0.6-1.8,1.6c0,0.9,0.8,1.6,1.8,1.6C247.6,3002.9,248.4,3002.2,248.4,3001.3z"/>
	</g>
	<path id="패스_3540" class="st1" d="M278,2947.1h52v-107.5h-52V2947.1z"/>
	<path id="패스_3541" class="st1" d="M278,3122.5h52v-59.7h-52V3122.5z"/>
	<g class="st0">
		<path class="st6" d="M292.2,2937.9c1.6-1.4,3.4-2.7,3.4-4c0-0.6-0.3-1.1-1-1.1c-0.7,0-1,0.5-1,1.3h-1.4c0-1.7,1.1-2.4,2.4-2.4
			c1.6,0,2.4,0.9,2.4,2.2c0,1.7-1.6,3-2.8,4h2.9v1.2h-4.9V2937.9z"/>
		<path class="st6" d="M300.8,2931.6c2.1,0,2.7,1.6,2.7,3.7c0,2.1-0.6,3.7-2.7,3.7c-2.1,0-2.7-1.6-2.7-3.7
			C298.1,2933.2,298.7,2931.6,300.8,2931.6z M300.8,2932.9c-1.2,0-1.3,1.1-1.3,2.4c0,1.3,0.1,2.4,1.3,2.4c1.2,0,1.3-1.1,1.3-2.4
			C302.1,2934,301.9,2932.9,300.8,2932.9z"/>
		<path class="st6" d="M304.4,2937.9c1.6-1.4,3.4-2.7,3.4-4c0-0.6-0.3-1.1-1-1.1c-0.7,0-1,0.5-1,1.3h-1.4c0-1.7,1.1-2.4,2.4-2.4
			c1.6,0,2.4,0.9,2.4,2.2c0,1.7-1.6,3-2.8,4h2.9v1.2h-4.9V2937.9z"/>
		<path class="st6" d="M313,2931.6c2.1,0,2.7,1.6,2.7,3.7c0,2.1-0.6,3.7-2.7,3.7c-2.1,0-2.7-1.6-2.7-3.7
			C310.3,2933.2,310.9,2931.6,313,2931.6z M313,2932.9c-1.2,0-1.3,1.1-1.3,2.4c0,1.3,0.1,2.4,1.3,2.4c1.2,0,1.3-1.1,1.3-2.4
			C314.3,2934,314.1,2932.9,313,2932.9z"/>
	</g>
	<g class="st0">
		<path class="st1" d="M287.6,2830.2c2.4-2.1,4.9-4,4.9-6c0-1.1-0.5-1.8-1.7-1.8c-1.1,0-1.7,0.8-1.8,1.9h-1.5
			c0.1-2.2,1.5-3.3,3.3-3.3c2.1,0,3.2,1.2,3.2,3.1c0,2.5-2.5,4.4-4.2,5.9h4.4v1.3h-6.8V2830.2z"/>
		<path class="st1" d="M297.8,2828.8c0.2,0.9,0.8,1.4,1.8,1.4c1.3,0,1.9-0.9,1.9-3.5c-0.5,0.6-1.3,1-2.3,1c-1.8,0-3.2-1.1-3.2-3.3
			c0-2,1.2-3.4,3.4-3.4c2.6,0,3.5,1.8,3.5,5.2c0,3.4-0.7,5.3-3.4,5.3c-2.1,0-3.1-1.3-3.2-2.8H297.8z M301.4,2824.5
			c0-1.3-0.7-2-1.9-2c-1.2,0-1.9,0.8-1.9,2c0,1.1,0.6,2,2,2C300.7,2826.4,301.4,2825.6,301.4,2824.5z"/>
		<path class="st1" d="M305.8,2822.8h-1.3v-1.5h2.9v10.2h-1.6V2822.8z"/>
		<path class="st1" d="M310.4,2831.6c-0.6,0-1-0.4-1-1s0.4-1,1-1c0.6,0,1,0.4,1,1S311,2831.6,310.4,2831.6z"/>
		<path class="st1" d="M318.5,2823.7c-0.2-0.8-0.7-1.3-1.7-1.3c-1.4,0-2.2,1-2.2,3.7c0.5-0.8,1.5-1.3,2.6-1.3c1.8,0,3.1,1.2,3.1,3.4
			c0,1.9-1.2,3.4-3.3,3.4c-3,0-3.7-2.1-3.7-5.3c0-3.2,1.1-5.1,3.6-5.1c2,0,3,1.3,3.2,2.6H318.5z M314.7,2828.1
			c0,1.3,0.7,2.1,2.1,2.1c1.2,0,1.9-0.8,1.9-2c0-1.2-0.6-2.1-2-2.1C315.7,2826.1,314.7,2826.7,314.7,2828.1z"/>
	</g>
	<g class="st0">
		<path class="st1" d="M291.4,3044.3c2,0,3.1,1.2,3.1,2.7c0,1.2-0.8,2-1.6,2.3v0.1c1.1,0.3,1.8,1.2,1.8,2.6c0,1.6-1.1,2.9-3.3,2.9
			c-1.9,0-3.4-1-3.5-3h1.5c0.1,1,0.8,1.7,2,1.7c1.2,0,1.8-0.7,1.8-1.7c0-1.3-0.9-1.8-2.5-1.8h-0.4v-1.3h0.4c1.4,0,2.3-0.4,2.3-1.5
			c0-0.9-0.6-1.5-1.7-1.5c-1.1,0-1.6,0.7-1.7,1.4H288C288.1,3045.3,289.5,3044.3,291.4,3044.3z"/>
		<path class="st1" d="M297.5,3046h-1.3v-1.5h2.9v10.2h-1.6V3046z"/>
		<path class="st1" d="M303.3,3051.9c0.2,0.9,0.8,1.4,1.8,1.4c1.3,0,1.9-0.9,1.9-3.5c-0.5,0.6-1.3,1-2.3,1c-1.8,0-3.2-1.1-3.2-3.3
			c0-2,1.2-3.4,3.4-3.4c2.6,0,3.5,1.8,3.5,5.2c0,3.4-0.7,5.3-3.4,5.3c-2.1,0-3.1-1.3-3.2-2.8H303.3z M306.9,3047.6
			c0-1.3-0.7-2-1.9-2c-1.2,0-1.9,0.8-1.9,2c0,1.1,0.6,2,2,2C306.2,3049.6,306.9,3048.8,306.9,3047.6z"/>
		<path class="st1" d="M311,3054.8c-0.6,0-1-0.4-1-1s0.4-1,1-1c0.6,0,1,0.4,1,1S311.6,3054.8,311,3054.8z"/>
		<path class="st1" d="M313.4,3053.4c2.4-2.1,4.9-4,4.9-6c0-1.1-0.5-1.8-1.7-1.8c-1.1,0-1.7,0.8-1.8,1.9h-1.5
			c0.1-2.2,1.5-3.3,3.3-3.3c2.1,0,3.2,1.2,3.2,3.1c0,2.5-2.5,4.4-4.2,5.9h4.4v1.3h-6.8V3053.4z"/>
	</g>
	<g class="st0">
		<path class="st7" d="M24.3,2794.4c-1.9,0-3.4-1.1-3.4-2.8h1.7c0.1,0.8,0.6,1.4,1.7,1.4c1.1,0,1.8-0.6,1.8-1.4
			c0-2.4-5.2-0.8-5.2-4.4c0-1.7,1.4-2.8,3.3-2.8c1.9,0,3.2,1,3.3,2.6h-1.8c-0.1-0.7-0.6-1.3-1.6-1.3c-0.9,0-1.6,0.4-1.6,1.4
			c0,2.2,5.2,0.8,5.2,4.4C27.6,2793,26.4,2794.4,24.3,2794.4z"/>
		<path class="st7" d="M33.9,2784.4c2,0,3.8,1,4.5,2.9h-1.9c-0.5-1-1.4-1.5-2.6-1.5c-1.9,0-3.3,1.4-3.3,3.6s1.4,3.6,3.3,3.6
			c1.2,0,2.1-0.5,2.6-1.5h1.9c-0.7,1.9-2.5,2.9-4.5,2.9c-2.7,0-5-2-5-5C29,2786.5,31.2,2784.4,33.9,2784.4z"/>
		<path class="st7" d="M44.8,2794.4c-2.7,0-5-2.1-5-5c0-2.9,2.2-5,5-5c2.8,0,5,2.1,5,5C49.7,2792.3,47.5,2794.4,44.8,2794.4z
			 M44.8,2793c1.9,0,3.3-1.4,3.3-3.6s-1.4-3.6-3.3-3.6c-1.9,0-3.3,1.4-3.3,3.6S42.8,2793,44.8,2793z"/>
		<path class="st7" d="M54.7,2790.3h-1.8v4h-1.6v-9.7h3.4c2.3,0,3.4,1.3,3.4,2.9C58.1,2788.8,57.2,2790.3,54.7,2790.3z M54.7,2789
			c1.2,0,1.8-0.6,1.8-1.6c0-1-0.6-1.6-1.8-1.6h-1.8v3.2H54.7z"/>
		<path class="st7" d="M65,2785.8h-3.8v2.9h3.4v1.3h-3.4v3H65v1.3h-5.4v-9.7H65V2785.8z"/>
		<path class="st7" d="M71.5,2785.5h-1.3v-1.5h2.9v10.2h-1.6V2785.5z"/>
	</g>
	<g class="st0">
		<path class="st7" d="M24.3,2969.8c-1.9,0-3.4-1.1-3.4-2.8h1.7c0.1,0.8,0.6,1.4,1.7,1.4c1.1,0,1.8-0.6,1.8-1.4
			c0-2.4-5.2-0.8-5.2-4.4c0-1.7,1.4-2.8,3.3-2.8c1.9,0,3.2,1,3.3,2.6h-1.8c-0.1-0.7-0.6-1.3-1.6-1.3c-0.9,0-1.6,0.4-1.6,1.4
			c0,2.2,5.2,0.8,5.2,4.4C27.6,2968.4,26.4,2969.8,24.3,2969.8z"/>
		<path class="st7" d="M33.9,2959.8c2,0,3.8,1,4.5,2.9h-1.9c-0.5-1-1.4-1.5-2.6-1.5c-1.9,0-3.3,1.4-3.3,3.6s1.4,3.6,3.3,3.6
			c1.2,0,2.1-0.5,2.6-1.5h1.9c-0.7,1.9-2.5,2.9-4.5,2.9c-2.7,0-5-2-5-5C29,2961.9,31.2,2959.8,33.9,2959.8z"/>
		<path class="st7" d="M44.8,2969.8c-2.7,0-5-2.1-5-5c0-2.9,2.2-5,5-5c2.8,0,5,2.1,5,5C49.7,2967.7,47.5,2969.8,44.8,2969.8z
			 M44.8,2968.4c1.9,0,3.3-1.4,3.3-3.6s-1.4-3.6-3.3-3.6c-1.9,0-3.3,1.4-3.3,3.6S42.8,2968.4,44.8,2968.4z"/>
		<path class="st7" d="M54.7,2965.7h-1.8v4h-1.6v-9.7h3.4c2.3,0,3.4,1.3,3.4,2.9C58.1,2964.2,57.2,2965.7,54.7,2965.7z M54.7,2964.4
			c1.2,0,1.8-0.6,1.8-1.6c0-1-0.6-1.6-1.8-1.6h-1.8v3.2H54.7z"/>
		<path class="st7" d="M65,2961.2h-3.8v2.9h3.4v1.3h-3.4v3H65v1.3h-5.4v-9.7H65V2961.2z"/>
		<path class="st7" d="M70.3,2968.4c2.4-2.1,4.9-4,4.9-6c0-1.1-0.5-1.8-1.7-1.8c-1.1,0-1.7,0.8-1.8,1.9h-1.5
			c0.1-2.2,1.5-3.3,3.3-3.3c2.1,0,3.2,1.2,3.2,3.1c0,2.5-2.5,4.4-4.2,5.9h4.4v1.3h-6.8V2968.4z"/>
	</g>
	<path id="패스_3535" class="st8" d="M20,2771.8h335"/>
	<path id="패스_3542" class="st9" d="M20,2947.3h335"/>
	<g class="st0">
		<path class="st4" d="M149.5,3113.5c1.7-1.5,3.5-2.8,3.5-4.3c0-0.8-0.3-1.3-1.2-1.3c-0.8,0-1.2,0.6-1.3,1.4h-1.1
			c0-1.6,1.1-2.3,2.3-2.3c1.5,0,2.3,0.9,2.3,2.2c0,1.8-1.8,3.1-3,4.2h3.2v1h-4.9V3113.5z"/>
		<path class="st4" d="M157.9,3107c2,0,2.6,1.6,2.6,3.7c0,2.1-0.6,3.7-2.6,3.7s-2.6-1.6-2.6-3.7C155.3,3108.6,155.9,3107,157.9,3107
			z M157.9,3108.1c-1.3,0-1.5,1.3-1.5,2.6c0,1.4,0.1,2.7,1.5,2.7s1.5-1.2,1.5-2.7C159.4,3109.3,159.3,3108.1,157.9,3108.1z"/>
		<path class="st4" d="M162.5,3108.2h-0.9v-1h2.1v7.3h-1.1V3108.2z"/>
		<path class="st4" d="M165.4,3109c0-1.1,0.8-2,2.4-2c1.6,0,2.4,0.9,2.4,2c0,0.8-0.4,1.3-1,1.6c0.7,0.3,1.2,0.9,1.2,1.8
			c0,1.3-1.1,2.2-2.6,2.2c-1.5,0-2.6-0.9-2.6-2.2c0-0.9,0.5-1.5,1.2-1.8C165.9,3110.3,165.4,3109.8,165.4,3109z M166.3,3112.4
			c0,0.7,0.6,1.3,1.5,1.3c0.9,0,1.5-0.5,1.5-1.3c0-0.8-0.6-1.3-1.5-1.3C167,3111.1,166.3,3111.5,166.3,3112.4z M169.1,3109.1
			c0-0.8-0.5-1.2-1.3-1.2c-0.8,0-1.3,0.4-1.3,1.2c0,0.7,0.5,1.1,1.3,1.1C168.6,3110.3,169.1,3109.8,169.1,3109.1z"/>
	</g>
	<g class="st0">
		<path class="st4" d="M221.5,3113.5c1.7-1.5,3.5-2.8,3.5-4.3c0-0.8-0.3-1.3-1.2-1.3c-0.8,0-1.2,0.6-1.3,1.4h-1.1
			c0-1.6,1.1-2.3,2.3-2.3c1.5,0,2.3,0.9,2.3,2.2c0,1.8-1.8,3.1-3,4.2h3.2v1h-4.9V3113.5z"/>
		<path class="st4" d="M230,3107c2,0,2.6,1.6,2.6,3.7c0,2.1-0.6,3.7-2.6,3.7s-2.6-1.6-2.6-3.7C227.4,3108.6,227.9,3107,230,3107z
			 M230,3108.1c-1.3,0-1.5,1.3-1.5,2.6c0,1.4,0.1,2.7,1.5,2.7s1.5-1.2,1.5-2.7C231.4,3109.3,231.3,3108.1,230,3108.1z"/>
		<path class="st4" d="M234.5,3108.2h-0.9v-1h2.1v7.3h-1.1V3108.2z"/>
		<path class="st4" d="M238.7,3112.4c0.1,0.6,0.6,1,1.3,1c0.9,0,1.4-0.6,1.4-2.5c-0.3,0.5-1,0.7-1.6,0.7c-1.3,0-2.3-0.8-2.3-2.3
			c0-1.4,0.9-2.4,2.4-2.4c1.9,0,2.5,1.3,2.5,3.7c0,2.5-0.5,3.8-2.4,3.8c-1.5,0-2.2-0.9-2.3-2H238.7z M241.2,3109.4
			c0-0.9-0.5-1.5-1.4-1.5c-0.8,0-1.4,0.6-1.4,1.4c0,0.8,0.4,1.4,1.4,1.4C240.8,3110.8,241.2,3110.2,241.2,3109.4z"/>
	</g>
	<g class="st0">
		<path class="st6" d="M292.2,3113.3c1.6-1.4,3.4-2.7,3.4-4c0-0.6-0.3-1.1-1-1.1c-0.7,0-1,0.5-1,1.2h-1.4c0-1.7,1.1-2.4,2.4-2.4
			c1.6,0,2.4,0.9,2.4,2.2c0,1.7-1.6,3-2.8,4h2.9v1.2h-4.9V3113.3z"/>
		<path class="st6" d="M300.8,3107c2.1,0,2.7,1.6,2.7,3.7c0,2.1-0.6,3.7-2.7,3.7c-2.1,0-2.7-1.6-2.7-3.7
			C298.1,3108.6,298.7,3107,300.8,3107z M300.8,3108.3c-1.2,0-1.3,1.1-1.3,2.4c0,1.3,0.1,2.4,1.3,2.4c1.2,0,1.3-1.1,1.3-2.4
			C302.1,3109.4,301.9,3108.3,300.8,3108.3z"/>
		<path class="st6" d="M304.4,3113.3c1.6-1.4,3.4-2.7,3.4-4c0-0.6-0.3-1.1-1-1.1c-0.7,0-1,0.5-1,1.2h-1.4c0-1.7,1.1-2.4,2.4-2.4
			c1.6,0,2.4,0.9,2.4,2.2c0,1.7-1.6,3-2.8,4h2.9v1.2h-4.9V3113.3z"/>
		<path class="st6" d="M313,3107c2.1,0,2.7,1.6,2.7,3.7c0,2.1-0.6,3.7-2.7,3.7c-2.1,0-2.7-1.6-2.7-3.7
			C310.3,3108.6,310.9,3107,313,3107z M313,3108.3c-1.2,0-1.3,1.1-1.3,2.4c0,1.3,0.1,2.4,1.3,2.4c1.2,0,1.3-1.1,1.3-2.4
			C314.3,3109.4,314.1,3108.3,313,3108.3z"/>
	</g>
	<path id="패스_3543" class="st9" d="M20,3122.6h335"/>
</g>
</svg>
