<?xml version="1.0" encoding="utf-8"?>
<!-- Generator: Adobe Illustrator 25.1.0, SVG Export Plug-In . SVG Version: 6.00 Build 0)  -->
<svg version="1.1" id="레이어_1" xmlns="http://www.w3.org/2000/svg" xmlns:xlink="http://www.w3.org/1999/xlink" x="0px"
	 y="0px" viewBox="0 0 812 328.1" style="enable-background:new 0 0 812 328.1;" xml:space="preserve">
<style type="text/css">
	.st0{fill:#FFFFFF;}
	.st1{fill:#3AA25C;}
	.st2{enable-background:new    ;}
	.st3{opacity:0.466;fill:none;stroke:#3AA25C;enable-background:new    ;}
	.st4{fill:#555555;}
</style>
<g id="그룹_5514" transform="translate(-740 -1243.945)">
	<rect id="사각형_256" x="1301" y="1319.9" class="st0" width="251" height="96"/>
	<rect id="사각형_263" x="1301" y="1421.9" class="st0" width="251" height="150.1"/>
	<rect id="사각형_253" x="1301" y="1243.9" class="st1" width="251" height="70"/>
	<g>
		<g class="st2">
			<path class="st0" d="M1383,1260.2h2v10.7h-6.2v-10.7h2.1v3.5h2L1383,1260.2L1383,1260.2z M1383,1265.6h-2v3.5h2V1265.6z
				 M1392,1258.8v15.8h-2.1v-7.9h-1.3v7.3h-2.1v-15h2.1v5.8h1.3v-6H1392z"/>
			<path class="st0" d="M1402.4,1267.2v1h4.3v3.9h-8.7v0.9h9.1v1.6h-11.3v-4h8.7v-0.8h-8.7v-1.6h4.4v-1h-6v-1.7h14.3v1.7H1402.4
				L1402.4,1267.2z M1394.8,1263.4c3.2-0.1,4.7-0.9,5.1-1.8h-4.4v-1.6h4.6v-1.3h2.3v1.3h4.6v1.6h-4.4c0.4,0.9,2,1.6,5.1,1.8
				l-0.6,1.7c-2.9-0.1-4.9-0.9-5.9-2c-1,1.2-3,1.9-5.9,2L1394.8,1263.4z"/>
			<path class="st0" d="M1423.8,1272.5v1.8h-11.7v-4.8h2v-3c-1.4,0.1-2.7,0.1-3.9,0.1l-0.3-1.8c1.8,0,4.1,0,6.4-0.1
				c0.2-1.3,0.3-2.4,0.3-3.2h-5.3v-1.8h7.5v0.5c0,0.9,0,2.3-0.3,4.3c0.5,0,1-0.1,1.5-0.2l0.1,1.6c-1.3,0.2-2.6,0.4-4,0.5v3.4h-1.9
				v2.8h9.4v-0.1H1423.8z M1421.2,1267.2v-8.5h2.3v11.9h-2.3v-1.7h-3v-1.7L1421.2,1267.2L1421.2,1267.2z"/>
			<path class="st0" d="M1437.7,1260.4c0,4.8-1.5,8.7-7,11.5l-1.2-1.7c4-2,5.6-4.4,5.9-7.9h-5.1v-1.8L1437.7,1260.4L1437.7,1260.4z
				 M1442.9,1258.8v15.8h-2.3v-7.9h-3v-1.8h3v-6.1H1442.9L1442.9,1258.8z"/>
			<path class="st0" d="M1448.1,1269.2c1.4,0,2.8-0.1,4.4-0.3l0.2,1.8c-2,0.3-3.8,0.4-5.7,0.4h-1.1v-6.4h3.8v-2.6h-3.8v-1.8h6v6.1
				h-3.8V1269.2L1448.1,1269.2z M1459.1,1258.8v15.8h-2.1v-8h-1.4v7.3h-2.1V1259h2.1v5.7h1.4v-6h2.1V1258.8z"/>
			<path class="st0" d="M1466.3,1263c0,2.7,0.8,5.3,3,6.7l-1.3,1.6c-1.4-0.9-2.3-2.1-2.8-3.9c-0.5,1.8-1.5,3.3-2.9,4.3l-1.3-1.7
				c2.3-1.5,3.1-4.3,3.1-7v-0.8h-2.6v-1.8h7.1v1.8h-2.3L1466.3,1263L1466.3,1263z M1469.5,1259h2.1v14.8h-2.1v-7.8h-2v-1.8h2V1259z
				 M1474.8,1258.8v15.8h-2.1v-15.8H1474.8z"/>
		</g>
		<g class="st2">
			<path class="st0" d="M1382.9,1297.3l1.2-1.6c0.8,0.8,1.7,1.3,2.8,1.3c1.3,0,2.1-0.6,2.1-1.7c0-1.2-0.8-1.9-3.5-1.9v-1.8
				c2.4,0,3.1-0.8,3.1-1.8s-0.6-1.5-1.7-1.5c-0.9,0-1.6,0.4-2.4,1.2l-1.3-1.5c1.1-1,2.4-1.6,3.9-1.6c2.5,0,4.1,1.2,4.1,3.3
				c0,1.3-0.8,2.3-2.1,2.8v0.1c1.4,0.4,2.6,1.4,2.6,3c0,2.3-2,3.5-4.5,3.5C1385.2,1299.1,1383.8,1298.4,1382.9,1297.3z"/>
			<path class="st0" d="M1399,1289.5c0,2.3,1.1,4.8,3.5,6l-1.2,1.7c-1.7-0.8-2.8-2.3-3.4-4c-0.6,1.9-1.9,3.4-3.6,4.3l-1.2-1.7
				c2.6-1.2,3.8-3.9,3.8-6.2v-0.5h-3.2v-1.8h3.2v-2.1h2.3v2.1h3.1v1.8h-3.1v0.4L1399,1289.5L1399,1289.5z M1408,1292.6h-2.3v7.8
				h-2.3v-15.8h2.3v6.1h2.3V1292.6z"/>
			<path class="st0" d="M1417.4,1284.9h2.1v14.8h-2.1v-5.1h-2.1v-1.8h2.1v-2.1h-1.9c-0.8,2.6-2.3,4.8-5.3,6.5l-1.3-1.6
				c3.1-1.9,4.5-4.2,4.8-7.3h-3.9v-1.8h6.1c0,0.9,0,1.6-0.1,2.3h1.5v-3.9H1417.4z M1422.7,1284.6v15.9h-2.1v-15.9H1422.7z"/>
			<path class="st0" d="M1435,1294.3c-3.3,0.5-7,0.6-9.8,0.6l-0.3-1.7c1.2,0,2.6,0,4,0v-0.9c-1.7-0.2-2.8-1.1-2.8-2.3
				c0-1.4,1.6-2.4,4-2.4s3.9,0.9,3.9,2.4c0,1.2-1.1,2-2.8,2.3v0.8c1.3-0.1,2.5-0.2,3.6-0.3L1435,1294.3z M1434.7,1287.3h-9.2v-1.6
				h3.5v-1.3h2.3v1.3h3.4L1434.7,1287.3L1434.7,1287.3z M1427.1,1295.8h10.9v4.5h-2.3v-2.8h-8.7L1427.1,1295.8L1427.1,1295.8z
				 M1430.1,1291c1.1,0,1.7-0.3,1.7-0.9s-0.6-0.9-1.7-0.9s-1.7,0.3-1.7,0.9C1428.3,1290.7,1429,1291,1430.1,1291z M1438.1,1284.6
				v10.7h-2.3v-10.7H1438.1z"/>
			<path class="st0" d="M1449.2,1286.2c0,4.8-1.6,8.8-7.3,11.5l-1.2-1.8c4.1-1.9,5.8-4.4,6.1-7.9h-5.3v-1.8h7.6v0H1449.2z
				 M1453.8,1284.6v15.8h-2.3v-15.8H1453.8z"/>
			<path class="st0" d="M1464.7,1285.7c0,4.3-2.7,7.3-7.4,8.6l-1-1.8c3.5-1,5.5-2.8,5.8-5h-5.1v-1.8L1464.7,1285.7L1464.7,1285.7z
				 M1461,1298.3h8.5v1.8h-10.7v-5.4h2.3v3.6H1461z M1471,1288.9v1.8h-2.1v5h-2.3v-11.3h2.3v4.4L1471,1288.9L1471,1288.9z"/>
		</g>
	</g>
	<g class="st2">
		<path d="M742.9,1269.7c-0.6-0.3-1.1-0.7-1.5-1.2s-0.5-1.1-0.6-1.8h2.4c0,0.5,0.2,0.8,0.5,1.1c0.3,0.3,0.7,0.4,1.2,0.4
			s0.9-0.1,1.2-0.4s0.4-0.6,0.4-1c0-0.3-0.1-0.6-0.3-0.8c-0.2-0.2-0.5-0.4-0.8-0.5s-0.7-0.3-1.3-0.4c-0.7-0.2-1.3-0.4-1.8-0.6
			s-0.8-0.5-1.2-0.9c-0.3-0.4-0.5-1-0.5-1.7s0.2-1.2,0.5-1.7s0.8-0.9,1.4-1.1c0.6-0.3,1.3-0.4,2-0.4c1.2,0,2.1,0.3,2.8,0.8
			c0.7,0.6,1.1,1.3,1.2,2.3H746c0-0.4-0.2-0.7-0.5-1s-0.7-0.4-1.2-0.4c-0.4,0-0.8,0.1-1,0.3c-0.3,0.2-0.4,0.5-0.4,1
			c0,0.3,0.1,0.5,0.3,0.7s0.4,0.4,0.7,0.5s0.7,0.3,1.2,0.4c0.7,0.2,1.3,0.4,1.8,0.6s0.9,0.5,1.2,1s0.5,1,0.5,1.7
			c0,0.6-0.2,1.2-0.5,1.7s-0.8,0.9-1.4,1.2c-0.6,0.3-1.3,0.5-2.1,0.5C744.2,1270.1,743.5,1269.9,742.9,1269.7z"/>
		<path d="M758.4,1258.8v1.8h-3v9.4h-2.2v-9.4h-3v-1.8H758.4z"/>
		<path d="M762.3,1260.6v2.8h3.8v1.8h-3.8v3h4.2v1.8H760v-11.2h6.5v1.8L762.3,1260.6L762.3,1260.6z"/>
		<path d="M776.3,1263.9c-0.3,0.5-0.7,0.9-1.3,1.3c-0.6,0.3-1.4,0.5-2.3,0.5h-1.9v4.3h-2.2v-11.2h4.1c0.9,0,1.6,0.1,2.2,0.4
			c0.6,0.3,1.1,0.7,1.4,1.2c0.3,0.5,0.5,1.1,0.5,1.8C776.7,1262.8,776.6,1263.4,776.3,1263.9z M774,1263.4c0.3-0.3,0.4-0.7,0.4-1.2
			c0-1.1-0.6-1.6-1.8-1.6h-1.8v3.2h1.8C773.2,1263.8,773.7,1263.7,774,1263.4z"/>
	</g>
	<g class="st2">
		<path d="M748.2,1336.4c0,3.9-2.5,6.6-6.9,7.7l-0.8-1.7c3.3-0.8,5.1-2.4,5.4-4.4h-4.7v-1.7L748.2,1336.4L748.2,1336.4z
			 M742.7,1344.4h9.6v5.8h-9.6V1344.4z M744.8,1348.5h5.4v-2.4h-5.4V1348.5z M754.2,1340.5h-2v3.3h-2.1v-8.2h2.1v3.2h2V1340.5z"/>
		<path d="M763.1,1344.5v1.3h4v4.5H765v-2.9h-8.1v-1.7h4.1v-1.3h-5.6v-1.7h13.3v1.7L763.1,1344.5L763.1,1344.5z M756,1340.7
			c3.2-0.2,4.6-1.2,4.9-2.2h-4.2v-1.6h4.3v-1.3h2.1v1.3h4.3v1.6h-4.2c0.2,1,1.7,2,4.9,2.2l-0.6,1.6c-2.7-0.2-4.5-1-5.4-2.1
			c-0.9,1.2-2.8,1.9-5.5,2.1L756,1340.7z"/>
		<path d="M754.2,1362.6v1.7h-13.3v-1.7h5.6v-1.4h-4v-5.2h10v5.2h-3.9v1.4H754.2z M742.4,1365.3h10.2v4.8h-2.1v-3.2h-8.1
			L742.4,1365.3L742.4,1365.3z M744.6,1359.5h5.8v-1.9h-5.8V1359.5z"/>
		<path d="M769,1366.8v1.7h-13.4v-1.7h3.3v-2.8h-2.1v-1.7h1.9v-4.1h-2v-1.7h11.2v1.7h-2v4.1h2v1.7h-2.2v2.8H769z M760.8,1362.4h3
			v-4.1h-3V1362.4z M761,1366.8h2.5v-2.8H761V1366.8z"/>
	</g>
	<g class="st2">
		<path d="M748.2,1440.4c0,3.9-2.5,6.6-6.9,7.7l-0.8-1.7c3.3-0.8,5.1-2.4,5.4-4.4h-4.7v-1.7L748.2,1440.4L748.2,1440.4z
			 M742.7,1448.4h9.6v5.8h-9.6V1448.4z M744.8,1452.5h5.4v-2.4h-5.4V1452.5z M754.2,1444.5h-2v3.3h-2.1v-8.2h2.1v3.2h2V1444.5z"/>
		<path d="M763.1,1448.5v1.3h4v4.5H765v-2.9h-8.1v-1.7h4.1v-1.3h-5.6v-1.7h13.3v1.7L763.1,1448.5L763.1,1448.5z M756,1444.7
			c3.2-0.2,4.6-1.2,4.9-2.2h-4.2v-1.6h4.3v-1.3h2.1v1.3h4.3v1.6h-4.2c0.2,1,1.7,2,4.9,2.2l-0.6,1.6c-2.7-0.2-4.5-1-5.4-2.1
			c-0.9,1.2-2.8,1.9-5.5,2.1L756,1444.7z"/>
		<path d="M748.4,1468.2c-1.6-0.5-2.7-1.6-3.3-2.9c-0.7,1.5-1.8,2.6-3.5,3.2l-1.1-1.7c2.4-0.8,3.5-2.7,3.5-4.6v-0.2h-2.9v-1.7h7.9
			v1.7h-2.9v0.2c0,1.7,1,3.6,3.3,4.3L748.4,1468.2z M753.2,1472.2v1.7h-10.1v-4.6h2.1v2.9H753.2z M750.8,1463.2v-3.8h2.1v10.8h-2.1
			v-5.2h-2.3v-1.7h2.3V1463.2z"/>
		<path d="M760.4,1463.2v-1.3h-4.6v-1.7h6.7v4.5h-4.6v1.4c2.4,0,4-0.1,5.9-0.4l0.2,1.7c-2,0.4-3.9,0.4-6.9,0.4h-1.3v-4.7
			L760.4,1463.2L760.4,1463.2z M757.1,1469h9.8v5.1h-2.1v-3.4h-7.7V1469z M766.9,1463.1v1.4h1.9v1.7h-1.9v2.1h-2.1v-9h2.1v2h1.9v1.7
			h-1.9V1463.1z"/>
	</g>
	<path id="패스_1689" class="st3" d="M740,1244.4h41"/>
	<path id="패스_1690" class="st3" d="M740,1320.4h41"/>
	<path id="패스_1691" class="st3" d="M740.5,1422.4h41"/>
	<rect id="사각형_254" x="787" y="1320" class="st0" width="251" height="96"/>
	<rect id="사각형_261" x="787" y="1421.9" class="st0" width="251" height="150.1"/>
	<path id="패스_3187" class="st1" d="M787,1243.9h251v70H787V1243.9z"/>
	<g>
		<g class="st2">
			<path class="st0" d="M869,1260.2h2v10.7h-6.2v-10.7h2.1v3.5h2L869,1260.2L869,1260.2z M869,1265.6h-2v3.5h2V1265.6z M878,1258.8
				v15.8h-2.1v-7.9h-1.3v7.3h-2.1v-15h2.1v5.8h1.3v-6H878z"/>
			<path class="st0" d="M888.4,1267.2v1h4.3v3.9H884v0.9h9.1v1.6h-11.3v-4h8.7v-0.8h-8.7v-1.6h4.4v-1h-6v-1.7h14.3v1.7H888.4
				L888.4,1267.2z M880.8,1263.4c3.2-0.1,4.7-0.9,5.1-1.8h-4.4v-1.6h4.6v-1.3h2.3v1.3h4.6v1.6h-4.4c0.4,0.9,2,1.6,5.1,1.8l-0.6,1.7
				c-2.9-0.1-4.9-0.9-5.9-2c-1,1.2-3,1.9-5.9,2L880.8,1263.4z"/>
			<path class="st0" d="M909.8,1272.5v1.8h-11.7v-4.8h2v-3c-1.4,0.1-2.7,0.1-3.9,0.1l-0.3-1.8c1.8,0,4.1,0,6.4-0.1
				c0.2-1.3,0.3-2.4,0.3-3.2h-5.3v-1.8h7.5v0.5c0,0.9,0,2.3-0.3,4.3c0.5,0,1-0.1,1.5-0.2l0.1,1.6c-1.3,0.2-2.6,0.4-4,0.5v3.4h-1.9
				v2.8h9.4v-0.1H909.8z M907.2,1267.2v-8.5h2.3v11.9h-2.3v-1.7h-3v-1.7L907.2,1267.2L907.2,1267.2z"/>
			<path class="st0" d="M923.7,1260.4c0,4.8-1.5,8.7-7,11.5l-1.2-1.7c4-2,5.6-4.4,5.9-7.9h-5.3v-1.8L923.7,1260.4L923.7,1260.4z
				 M928.9,1258.8v15.8h-2.3v-7.9h-3v-1.8h3v-6.1H928.9L928.9,1258.8z"/>
			<path class="st0" d="M934.1,1269.2c1.4,0,2.8-0.1,4.4-0.3l0.2,1.8c-2,0.3-3.8,0.4-5.7,0.4h-1v-6.4h3.8v-2.6H932v-1.8h6v6.1h-3.8
				v2.8H934.1z M945.1,1258.8v15.8H943v-8h-1.4v7.3h-2.1V1259h2.1v5.7h1.4v-6h2.1V1258.8z"/>
			<path class="st0" d="M952.3,1263c0,2.7,0.8,5.3,3,6.7l-1.3,1.6c-1.4-0.9-2.3-2.1-2.8-3.9c-0.5,1.8-1.5,3.3-2.9,4.3l-1.3-1.7
				c2.3-1.5,3.1-4.3,3.1-7v-0.8h-2.6v-1.8h7.1v1.8h-2.3V1263L952.3,1263z M955.5,1259h2.1v14.8h-2.1v-7.8h-2v-1.8h2V1259z
				 M960.8,1258.8v15.8h-2.1v-15.8H960.8z"/>
		</g>
		<g class="st2">
			<path class="st0" d="M869.9,1296.8h2.7v-7.7h-2.3v-1.6c1.3-0.2,2.1-0.5,3-1.1h1.8v10.3h2.4v2h-7.6L869.9,1296.8L869.9,1296.8z"/>
			<path class="st0" d="M885,1289.5c0,2.3,1.1,4.8,3.5,6l-1.2,1.7c-1.7-0.8-2.8-2.3-3.4-4c-0.6,1.9-1.9,3.4-3.6,4.3l-1.2-1.7
				c2.6-1.2,3.8-3.9,3.8-6.2v-0.5h-3.2v-1.8h3.2v-2.1h2.3v2.1h3.1v1.8h-3.1v0.4L885,1289.5L885,1289.5z M894,1292.6h-2.3v7.8h-2.4
				v-15.8h2.3v6.1h2.3v1.8L894,1292.6L894,1292.6z"/>
			<path class="st0" d="M903.4,1284.9h2.1v14.8h-2.1v-5.1h-2.1v-1.8h2.1v-2.1h-1.9c-0.8,2.6-2.3,4.8-5.3,6.5l-1.3-1.6
				c3.1-1.9,4.5-4.2,4.8-7.3h-3.9v-1.8h6.1c0,0.9,0,1.6-0.1,2.3h1.5L903.4,1284.9L903.4,1284.9z M908.7,1284.6v15.9h-2.1v-15.9
				H908.7z"/>
			<path class="st0" d="M921.1,1294.3c-3.3,0.5-7,0.6-9.8,0.6l-0.3-1.7c1.2,0,2.6,0,4,0v-0.9c-1.7-0.2-2.8-1.1-2.8-2.3
				c0-1.4,1.6-2.4,4-2.4s3.9,0.9,3.9,2.4c0,1.2-1.1,2-2.8,2.3v0.8c1.3-0.1,2.5-0.2,3.6-0.3L921.1,1294.3z M920.7,1287.3h-9.2v-1.6
				h3.5v-1.3h2.3v1.3h3.4V1287.3z M913.1,1295.8H924v4.5h-2.3v-2.8H913L913.1,1295.8L913.1,1295.8z M916.1,1291
				c1.1,0,1.7-0.3,1.7-0.9c0-0.5-0.6-0.9-1.7-0.9s-1.7,0.3-1.7,0.9C914.3,1290.7,915,1291,916.1,1291z M924.1,1284.6v10.7h-2.3
				v-10.7H924.1z"/>
			<path class="st0" d="M935.2,1286.2c0,4.8-1.6,8.8-7.3,11.5l-1.2-1.8c4.1-1.9,5.8-4.4,6.1-7.9h-5.3v-1.8h7.6v0H935.2z
				 M939.8,1284.6v15.8h-2.3v-15.8H939.8z"/>
			<path class="st0" d="M950.7,1285.7c0,4.3-2.7,7.3-7.4,8.6l-1-1.8c3.5-1,5.5-2.8,5.8-5H943v-1.8L950.7,1285.7L950.7,1285.7z
				 M947,1298.3h8.5v1.8h-10.7v-5.4h2.3L947,1298.3L947,1298.3z M957,1288.9v1.8h-2.1v5h-2.3v-11.3h2.3v4.4L957,1288.9L957,1288.9z"
				/>
		</g>
	</g>
	<rect id="사각형_255" x="1044" y="1319.9" class="st0" width="251" height="96"/>
	<rect id="사각형_262" x="1044" y="1421.9" class="st0" width="251" height="150.1"/>
	<rect id="사각형_252" x="1044" y="1243.9" class="st1" width="251" height="70"/>
	<g>
		<g class="st2">
			<path class="st0" d="M1126,1260.2h2v10.7h-6.2v-10.7h2.1v3.5h2L1126,1260.2L1126,1260.2z M1126,1265.6h-2v3.5h2V1265.6z
				 M1135,1258.8v15.8h-2.1v-7.9h-1.3v7.3h-2.1v-15h2.1v5.8h1.3v-6H1135z"/>
			<path class="st0" d="M1145.4,1267.2v1h4.3v3.9h-8.7v0.9h9.1v1.6h-11.3v-4h8.7v-0.8h-8.7v-1.6h4.4v-1h-6v-1.7h14.3v1.7H1145.4
				L1145.4,1267.2z M1137.8,1263.4c3.2-0.1,4.7-0.9,5.1-1.8h-4.4v-1.6h4.6v-1.3h2.3v1.3h4.6v1.6h-4.4c0.4,0.9,2,1.6,5.1,1.8
				l-0.6,1.7c-2.9-0.1-4.9-0.9-5.9-2c-1,1.2-3,1.9-5.9,2L1137.8,1263.4z"/>
			<path class="st0" d="M1166.8,1272.5v1.8h-11.7v-4.8h2v-3c-1.4,0.1-2.7,0.1-3.9,0.1l-0.3-1.8c1.8,0,4.1,0,6.4-0.1
				c0.2-1.3,0.3-2.4,0.3-3.2h-5.3v-1.8h7.5v0.5c0,0.9,0,2.3-0.3,4.3c0.5,0,1-0.1,1.5-0.2l0.1,1.6c-1.3,0.2-2.6,0.4-4,0.5v3.4h-1.9
				v2.8h9.4v-0.1H1166.8z M1164.2,1267.2v-8.5h2.3v11.9h-2.3v-1.7h-3v-1.7L1164.2,1267.2L1164.2,1267.2z"/>
			<path class="st0" d="M1180.7,1260.4c0,4.8-1.5,8.7-7,11.5l-1.2-1.7c4-2,5.6-4.4,5.9-7.9h-5.1v-1.8L1180.7,1260.4L1180.7,1260.4z
				 M1185.9,1258.8v15.8h-2.3v-7.9h-3v-1.8h3v-6.1H1185.9L1185.9,1258.8z"/>
			<path class="st0" d="M1191.1,1269.2c1.4,0,2.8-0.1,4.4-0.3l0.2,1.8c-2,0.3-3.8,0.4-5.7,0.4h-1.1v-6.4h3.8v-2.6h-3.8v-1.8h6v6.1
				h-3.8V1269.2L1191.1,1269.2z M1202.1,1258.8v15.8h-2.1v-8h-1.4v7.3h-2.1V1259h2.1v5.7h1.4v-6h2.1V1258.8z"/>
			<path class="st0" d="M1209.3,1263c0,2.7,0.8,5.3,3,6.7l-1.3,1.6c-1.4-0.9-2.3-2.1-2.8-3.9c-0.5,1.8-1.5,3.3-2.9,4.3l-1.3-1.7
				c2.3-1.5,3.1-4.3,3.1-7v-0.8h-2.6v-1.8h7.1v1.8h-2.3L1209.3,1263L1209.3,1263z M1212.5,1259h2.1v14.8h-2.1v-7.8h-2v-1.8h2V1259z
				 M1217.8,1258.8v15.8h-2.1v-15.8H1217.8z"/>
		</g>
		<g class="st2">
			<path class="st0" d="M1126.2,1297.4c3.3-3.1,5.5-5.4,5.5-7.2c0-1.3-0.6-2-1.9-2c-1,0-1.7,0.6-2.4,1.3l-1.4-1.4
				c1.2-1.3,2.3-1.9,4.1-1.9c2.4,0,4,1.5,4,3.9c0,2.1-2,4.4-4.3,6.8c0.6-0.1,1.5-0.1,2-0.1h2.8v2.1h-8.5v-1.4h0.1V1297.4z"/>
			<path class="st0" d="M1142,1289.5c0,2.3,1.1,4.8,3.5,6l-1.2,1.7c-1.7-0.8-2.8-2.3-3.4-4c-0.6,1.9-1.9,3.4-3.6,4.3l-1.2-1.7
				c2.6-1.2,3.8-3.9,3.8-6.2v-0.5h-3.2v-1.8h3.2v-2.1h2.3v2.1h3.1v1.8h-3.1v0.4L1142,1289.5L1142,1289.5z M1151,1292.6h-2.3v7.8
				h-2.3v-15.8h2.3v6.1h2.3V1292.6z"/>
			<path class="st0" d="M1160.4,1284.9h2.1v14.8h-2.1v-5.1h-2.1v-1.8h2.1v-2.1h-1.9c-0.8,2.6-2.3,4.8-5.3,6.5l-1.3-1.6
				c3.1-1.9,4.5-4.2,4.8-7.3h-3.9v-1.8h6.1c0,0.9,0,1.6-0.1,2.3h1.5v-3.9H1160.4z M1165.7,1284.6v15.9h-2.1v-15.9H1165.7z"/>
			<path class="st0" d="M1178.1,1294.3c-3.3,0.5-7,0.6-9.8,0.6l-0.3-1.7c1.2,0,2.6,0,4,0v-0.9c-1.7-0.2-2.8-1.1-2.8-2.3
				c0-1.4,1.6-2.4,4-2.4s3.9,0.9,3.9,2.4c0,1.2-1.1,2-2.8,2.3v0.8c1.3-0.1,2.5-0.2,3.6-0.3L1178.1,1294.3z M1177.7,1287.3h-9.2v-1.6
				h3.5v-1.3h2.3v1.3h3.4L1177.7,1287.3L1177.7,1287.3z M1170.1,1295.8h10.9v4.5h-2.3v-2.8h-8.7L1170.1,1295.8L1170.1,1295.8z
				 M1173.1,1291c1.1,0,1.7-0.3,1.7-0.9s-0.6-0.9-1.7-0.9s-1.7,0.3-1.7,0.9C1171.3,1290.7,1172,1291,1173.1,1291z M1181.1,1284.6
				v10.7h-2.3v-10.7H1181.1z"/>
			<path class="st0" d="M1192.2,1286.2c0,4.8-1.6,8.8-7.3,11.5l-1.2-1.8c4.1-1.9,5.8-4.4,6.1-7.9h-5.3v-1.8h7.6v0H1192.2z
				 M1196.8,1284.6v15.8h-2.3v-15.8H1196.8z"/>
			<path class="st0" d="M1207.7,1285.7c0,4.3-2.7,7.3-7.4,8.6l-1-1.8c3.5-1,5.5-2.8,5.8-5h-5.1v-1.8L1207.7,1285.7L1207.7,1285.7z
				 M1204,1298.3h8.5v1.8h-10.7v-5.4h2.3v3.6H1204z M1214,1288.9v1.8h-2.1v5h-2.3v-11.3h2.3v4.4L1214,1288.9L1214,1288.9z"/>
		</g>
	</g>
	<g>
		<g class="st2">
			<path class="st4" d="M806.6,1344.1c0-1.2,0.9-2.1,2-2.1c1,0,2,0.9,2,2.1s-0.9,2.1-2,2.1S806.6,1345.3,806.6,1344.1z"/>
		</g>
		<g class="st2">
			<path class="st4" d="M806.6,1368.9c0-1.2,0.9-2.1,2-2.1c1,0,2,0.9,2,2.1s-0.9,2.1-2,2.1S806.6,1370.2,806.6,1368.9z"/>
		</g>
		<g class="st2">
			<path class="st4" d="M806.6,1393.8c0-1.2,0.9-2.1,2-2.1c1,0,2,0.9,2,2.1s-0.9,2.1-2,2.1S806.6,1395,806.6,1393.8z"/>
		</g>
		<g class="st2">
			<path class="st4" d="M825.6,1343.6c-1.6-0.6-2.8-1.7-3.4-3.1c-0.6,1.7-1.9,2.9-3.6,3.6l-0.7-1c2.1-0.8,3.6-2.7,3.6-4.7v-0.4h-3.1
				v-1h7.5v1h-3.1v0.4c0,1.8,1.3,3.6,3.5,4.2L825.6,1343.6z M829.5,1347.2c0,1.7-1.8,2.6-4.7,2.6s-4.7-1-4.7-2.6s1.8-2.6,4.7-2.6
				S829.5,1345.5,829.5,1347.2z M828.3,1347.2c0-1-1.2-1.7-3.4-1.7c-2.1,0-3.4,0.6-3.4,1.7s1.2,1.6,3.4,1.6
				C827.1,1348.8,828.3,1348.2,828.3,1347.2z M828.2,1339.4v-3.6h1.3v8.4h-1.3v-3.7h-2.8v-1h2.8V1339.4z"/>
			<path class="st4" d="M845.1,1345.1h-5.8v4.7H838v-4.7h-5.7v-1H845L845.1,1345.1L845.1,1345.1z M843.5,1342.4H834v-6h1.2v1.9h6.9
				v-1.9h1.2v6H843.5z M842.1,1339.3h-6.9v2h6.9V1339.3z"/>
			<path class="st4" d="M855.1,1338.1h-8.3v-1h3.5v-1.5h1.2v1.5h3.5L855.1,1338.1L855.1,1338.1z M850.9,1343.3c-2,0-3.4-0.9-3.4-2.3
				c0-1.5,1.3-2.3,3.4-2.3c2,0,3.4,0.9,3.4,2.3C854.2,1342.4,853,1343.3,850.9,1343.3z M850,1348.7h8.2v1h-9.4v-3.2h7.6v-1.2h-7.6
				v-1h8.9v3.1h-7.6v1.3L850,1348.7L850,1348.7z M850.9,1342.3c1.3,0,2.1-0.4,2.1-1.3s-0.9-1.3-2.1-1.3s-2.1,0.4-2.1,1.3
				C848.7,1341.9,849.6,1342.3,850.9,1342.3z M859.7,1339.2v1.1h-2.1v3.4h-1.2v-7.7h1.2v3.4h2.1V1339.2z"/>
			<path class="st4" d="M869.4,1342.5c-1.9,0.4-3.6,0.4-6.6,0.4h-1.1v-6.1h6.1v1h-4.9v4c2.8,0,4.4-0.1,6.3-0.4L869.4,1342.5z
				 M872.2,1347.1c0,1.7-1.8,2.7-4.6,2.7s-4.6-1-4.6-2.7s1.8-2.7,4.6-2.7S872.2,1345.4,872.2,1347.1z M870.9,1347.1
				c0-1-1.2-1.7-3.4-1.7c-2.1,0-3.4,0.7-3.4,1.7s1.2,1.7,3.4,1.7C869.6,1348.8,870.9,1348.1,870.9,1347.1z M874.1,1339.4v1.1h-2v3.7
				h-1.3v-8.4h1.3v3.7L874.1,1339.4L874.1,1339.4z"/>
			<path class="st4" d="M891.8,1342.9v1H879v-1h5.7v-1.8h-4.1v-4.8h9.4v4.8h-4v1.8H891.8z M880.5,1345.4h9.7v4.5H889v-3.5h-8.5
				V1345.4L880.5,1345.4z M881.9,1340.1h6.9v-2.7h-6.9V1340.1z"/>
			<path class="st4" d="M906.2,1347.1v1h-12.7v-1h3.6v-3.4h-2.3v-1h2.1v-4.6h-2.1v-1h10.4v1H903v4.6h2.1v1h-2.3v3.4H906.2z
				 M898,1342.8h3.5v-4.6H898V1342.8z M898.3,1347.1h3v-3.4h-3V1347.1z"/>
			<path class="st4" d="M919.6,1341.9c-2,0.4-3.7,0.4-6.6,0.4h-1.1v-5.7h6.1v1h-4.8v3.7c2.7,0,4.4-0.1,6.3-0.4L919.6,1341.9z
				 M914.6,1348.6h8.2v1h-9.4v-3.6h7.6v-1.5h-7.6v-1h8.9v3.5h-7.6v1.6H914.6z M924.3,1338.7v1h-2.1v3H921v-7h1.2v2.9L924.3,1338.7
				L924.3,1338.7z"/>
			<path class="st4" d="M933.3,1343.4c-1.6-0.6-2.7-1.7-3.4-3.1c-0.6,1.7-1.9,2.9-3.6,3.6l-0.7-1c2.1-0.8,3.6-2.7,3.6-4.8v-1.5h1.2
				v1.3c0,2,1.3,3.7,3.5,4.5L933.3,1343.4z M937.4,1347.2c0,1.7-1.8,2.7-4.7,2.7s-4.7-1-4.7-2.7s1.8-2.7,4.7-2.7
				C935.6,1344.5,937.4,1345.4,937.4,1347.2z M936,1347.2c0-1-1.2-1.7-3.4-1.7c-2.1,0-3.4,0.6-3.4,1.7c0,1,1.2,1.7,3.4,1.7
				C934.8,1348.9,936,1348.2,936,1347.2z M936,1339.8h-3v-1h3v-3h1.3v8.3H936V1339.8z"/>
		</g>
		<g class="st2">
			<path class="st4" d="M824.9,1367.4v2.6h4.1v4.7h-1.2v-3.7h-8.5v-1h4.4v-2.6H818v-1h9.5c0.3-1.7,0.3-2.9,0.3-4h-8.2v-1h9.5v1
				c0,1,0,2.3-0.3,4h2v1H824.9L824.9,1367.4z"/>
			<path class="st4" d="M834.3,1369.9c1.3,0,2.8-0.1,4.5-0.4l0.1,1.1c-1.9,0.3-3.5,0.4-5,0.4H833v-8.7h1.2L834.3,1369.9
				L834.3,1369.9z M844.3,1360.7v14.1H843v-7.3h-2v6.6h-1.2v-13h1.2v5.4h2v-5.7L844.3,1360.7L844.3,1360.7L844.3,1360.7z"/>
			<path class="st4" d="M857.7,1368.3c-1.6-0.6-2.7-1.7-3.4-3.1c-0.6,1.7-1.8,2.9-3.5,3.6l-0.7-1c2.1-0.8,3.5-2.7,3.5-4.8v-1.5h1.2
				v1.6c0,1.9,1.3,3.7,3.4,4.4L857.7,1368.3z M861.3,1372.1c0,1.7-1.8,2.6-4.6,2.6c-2.9,0-4.6-0.9-4.6-2.6s1.8-2.6,4.6-2.6
				S861.3,1370.5,861.3,1372.1z M860,1372.1c0-1-1.2-1.6-3.4-1.6c-2.1,0-3.4,0.6-3.4,1.6s1.2,1.6,3.4,1.6
				C858.7,1373.6,860,1373.1,860,1372.1z M863.3,1364.2v1.1h-2.1v3.8H860v-8.5h1.2v3.6H863.3z"/>
			<path class="st4" d="M868.9,1370.4c1,0,2-0.1,2.9-0.2l0.1,1c-2.3,0.4-5.3,0.4-7.2,0.4l-0.2-1.1c0.9,0,2,0,3.1,0v-2.9h1.2
				L868.9,1370.4L868.9,1370.4z M871.1,1367.6c-1.3-0.6-2.3-1.5-2.8-2.7c-0.4,1.3-1.6,2.5-3,3l-0.7-1c1.9-0.7,3-2.2,3-4v-1.2h1.2
				v1.2c0,1.6,1.1,3,2.9,3.7L871.1,1367.6z M876.5,1360.7v14.1h-1.2v-7.2h-1.7v6.5h-1.2v-13h1.2v5.5h1.7v-5.8L876.5,1360.7
				L876.5,1360.7z"/>
			<path class="st4" d="M887.2,1362h1.2v9.2H883v-9.2h1.2v3.5h2.9L887.2,1362L887.2,1362z M887.2,1366.4h-2.9v3.7h2.9V1366.4z
				 M894.5,1360.7v14.1h-1.2v-7.5h-1.9v6.7h-1.2v-13.1h1.2v5.3h1.9v-5.6L894.5,1360.7L894.5,1360.7z"/>
			<path class="st4" d="M904,1367.8v1.3h4v3h-8.3v1.3h8.7v1h-9.9v-3.2h8.3v-1.2h-8.3v-1h4.1v-1.3h-5.7v-1h12.6v1L904,1367.8
				L904,1367.8z M897.6,1365.2c2.6-0.2,4.7-1,4.9-2.5h-4.4v-1h4.4v-1.3h1.2v1.3h4.4v1h-4.4c0.2,1.3,2.3,2.2,4.9,2.5l-0.4,1
				c-2.3-0.2-4.5-0.9-5.3-2.2c-0.9,1.3-2.9,2-5.3,2.2L897.6,1365.2z"/>
			<path class="st4" d="M915.1,1367.1c-1.3,0.1-2.7,0.1-3.8,0.1l-0.2-1c1.8,0,4,0,6.3-0.2c0.3-1.6,0.3-2.7,0.3-3.5h-5.3v-1h6.6v0.6
				c0,0.8,0,2.1-0.3,3.9c0.6,0,1.1-0.1,1.6-0.2l0.1,0.9c-1.2,0.2-2.7,0.3-3.9,0.4v3.2h-1.2v-3.2L915.1,1367.1L915.1,1367.1z
				 M923.2,1373.3v1h-9.9v-4.2h1.2v3.2H923.2z M921.6,1368.3v-7.6h1.2v10.6h-1.2v-1.9h-3v-1L921.6,1368.3L921.6,1368.3z"/>
			<path class="st4" d="M936.3,1367.4h-6.5v-6.1h1.2v2h4v-2h1.2L936.3,1367.4L936.3,1367.4z M935,1364.2h-3.9v2.1h4L935,1364.2
				L935,1364.2z M932.5,1373.5h8.2v1h-9.4v-3.5h7.6v-1.5h-7.6v-1h8.9v3.5h-7.6v1.5H932.5z M942.2,1363.7v1.1h-2.1v3.1h-1.2v-7.3h1.2
				v3h2.1V1363.7z"/>
			<path class="st4" d="M950.7,1366.7v1.8h4.1v3.4h-8.4v1.6h8.7v1h-9.9v-3.5h8.3v-1.5h-8.4v-1h4.2v-1.8h-5.7v-1h9.5
				c0.3-1.5,0.3-2.6,0.3-3.5h-8.2v-1h9.5v0.9c0,0.9,0,2.1-0.3,3.6h1.9v1H950.7z"/>
		</g>
		<g class="st2">
			<path class="st4" d="M822.6,1386.8h1.2v9.2h-5.4v-9.2h1.2v3.5h2.9L822.6,1386.8L822.6,1386.8z M822.6,1391.2h-2.9v3.7h2.9V1391.2
				z M829.8,1385.5v14.1h-1.2v-7.5h-1.9v6.7h-1.2v-13.1h1.2v5.3h1.9v-5.6L829.8,1385.5L829.8,1385.5z"/>
			<path class="st4" d="M839.4,1392.6v1.3h4v3h-8.3v1.3h8.7v1h-9.9v-3.2h8.3v-1.2h-8.3v-1h4.1v-1.3h-5.7v-1H845v1h-5.7v0.1H839.4z
				 M833,1390.1c2.6-0.2,4.7-1,4.9-2.5h-4.4v-1h4.4v-1.3h1.2v1.3h4.4v1h-4c0.2,1.3,2.3,2.2,4.9,2.5l-0.4,1c-2.3-0.2-4.5-0.9-5.3-2.2
				c-0.9,1.3-2.9,2-5.3,2.2L833,1390.1z"/>
			<path class="st4" d="M850.5,1392c-1.3,0.1-2.7,0.1-3.8,0.1l-0.2-1c1.8,0,4,0,6.3-0.2c0.3-1.6,0.3-2.7,0.3-3.5h-5.3v-1h6.6v0.6
				c0,0.8,0,2.1-0.3,3.9c0.6,0,1.1-0.1,1.6-0.2l0.1,0.9c-1.2,0.2-2.7,0.3-3.9,0.4v3.2h-1.2v-3.2L850.5,1392L850.5,1392z
				 M858.6,1398.1v1h-9.9v-4.2h1.2v3.2H858.6z M857,1393.1v-7.6h1.2v10.6H857v-1.9h-3v-1L857,1393.1L857,1393.1z"/>
			<path class="st4" d="M871.7,1386.9c0,4-1.7,7.6-6.4,9.8l-0.7-1c3.8-1.9,5.5-4.5,5.7-7.8h-5.1v-1H871.7z M876.2,1385.5v14.1H875
				v-7.4h-3.2v-1h3.2v-5.6L876.2,1385.5L876.2,1385.5z"/>
			<path class="st4" d="M880.7,1395.1c1.6,0,3-0.1,4.8-0.3l0.1,1.1c-1.9,0.3-3.6,0.4-5.3,0.4h-0.9v-5.3h4v-2.8h-4v-1h5.3v4.9h-4
				L880.7,1395.1L880.7,1395.1z M891,1385.5v14.1h-1.2v-7.5h-2v6.7h-1.2v-13h1.2v5.3h2v-5.6H891z"/>
			<path class="st4" d="M901.6,1389.2c0,2.5,1.6,5,3.6,6l-0.8,1c-1.5-0.8-2.8-2.5-3.4-4.4c-0.6,2-1.9,3.8-3.5,4.7l-0.8-1
				c2-1,3.6-3.7,3.6-6.3v-2.6h1.2v2.6H901.6z M910.1,1392.2h-2.3v7.3h-1.2v-14.1h1.2v5.7h2.3V1392.2z"/>
			<path class="st4" d="M913.4,1394.8c1.3,0,2.8-0.1,4.5-0.4l0.1,1.1c-1.9,0.3-3.5,0.4-5,0.4h-1v-8.7h1.2v7.6H913.4z M923.3,1385.5
				v14.1h-1.2v-7.3h-2v6.6h-1.2v-13h1.2v5.4h2v-5.7L923.3,1385.5L923.3,1385.5z"/>
			<path class="st4" d="M936.6,1386.9c0,4-1.9,7.6-6.5,9.9l-0.7-1c3.8-1.8,5.7-4.5,5.9-7.8H930v-1L936.6,1386.9L936.6,1386.9
				L936.6,1386.9z M940.7,1385.5v14.1h-1.2v-14.1H940.7z"/>
			<path class="st4" d="M956.4,1392.6v1h-5.6v2.8h-1.2v-2.8h-5.8v-1H956.4z M944.4,1390.6c2.5-0.3,4.8-1.7,4.8-3.5l0,0h-4.4v-1h10.4
				v1h-4.4l0,0c0,1.7,2.2,3.1,4.7,3.5l-0.4,1c-2.2-0.3-4.4-1.5-5.1-3.1c-0.8,1.7-2.8,2.8-5.1,3.1L944.4,1390.6z M946.6,1398.1h8.4v1
				h-9.7v-4h1.2L946.6,1398.1L946.6,1398.1z"/>
			<path class="st4" d="M958.6,1386.8h6.5v9.1h-6.5V1386.8z M959.9,1394.9h3.9v-7h-3.9V1394.9z M971.2,1392.2h-2.3v7.4h-1.2v-14.1
				h1.2v5.6h2.3V1392.2z"/>
			<path class="st4" d="M980,1393.5c-1.8,0.3-3.2,0.3-5.9,0.3h-1v-4.4h4.7v-2H973v-1h6v4.1h-4.8v2.3c2.5,0,3.9-0.1,5.6-0.3
				L980,1393.5z M984.5,1398.1v1H975v-4.1h1.2v3L984.5,1398.1L984.5,1398.1z M982.7,1392H980v-1h2.7v-2.1H980v-1h2.7v-2.3h1.3v10.3
				h-1.3V1392z"/>
		</g>
	</g>
	<g>
		<g class="st2">
			<path class="st4" d="M1063.6,1344.1c0-1.2,0.9-2.1,2-2.1c1,0,2,0.9,2,2.1s-0.9,2.1-2,2.1S1063.6,1345.3,1063.6,1344.1z"/>
		</g>
		<g class="st2">
			<path class="st4" d="M1063.6,1368.9c0-1.2,0.9-2.1,2-2.1c1,0,2,0.9,2,2.1s-0.9,2.1-2,2.1S1063.6,1370.2,1063.6,1368.9z"/>
		</g>
		<g class="st2">
			<path class="st4" d="M1082.6,1343.6c-1.6-0.6-2.8-1.7-3.4-3.1c-0.6,1.7-1.9,2.9-3.6,3.6l-0.7-1c2.1-0.8,3.6-2.7,3.6-4.7v-0.4
				h-3.1v-1h7.5v1h-3.1v0.4c0,1.8,1.3,3.6,3.5,4.2L1082.6,1343.6z M1086.5,1347.2c0,1.7-1.8,2.6-4.7,2.6c-2.9,0-4.7-1-4.7-2.6
				s1.8-2.6,4.7-2.6C1084.7,1344.7,1086.5,1345.5,1086.5,1347.2z M1085.3,1347.2c0-1-1.2-1.7-3.4-1.7s-3.4,0.6-3.4,1.7
				s1.2,1.6,3.4,1.6S1085.3,1348.2,1085.3,1347.2z M1085.2,1339.4v-3.6h1.3v8.4h-1.3v-3.7h-2.8v-1h2.8V1339.4z"/>
			<path class="st4" d="M1102.1,1345.1h-5.8v4.7h-1.2v-4.7h-5.7v-1h12.7V1345.1L1102.1,1345.1z M1100.5,1342.4h-9.5v-6h1.2v1.9h6.9
				v-1.9h1.2v6H1100.5z M1099.1,1339.3h-6.9v2h6.9V1339.3z"/>
			<path class="st4" d="M1112.1,1338.1h-8.3v-1h3.5v-1.5h1.2v1.5h3.5v1H1112.1z M1107.9,1343.3c-2,0-3.4-0.9-3.4-2.3
				c0-1.5,1.3-2.3,3.4-2.3c2,0,3.4,0.9,3.4,2.3C1111.2,1342.4,1110,1343.3,1107.9,1343.3z M1107,1348.7h8.2v1h-9.4v-3.2h7.6v-1.2
				h-7.6v-1h8.9v3.1h-7.6L1107,1348.7L1107,1348.7L1107,1348.7z M1107.9,1342.3c1.3,0,2.1-0.4,2.1-1.3s-0.9-1.3-2.1-1.3
				s-2.1,0.4-2.1,1.3C1105.7,1341.9,1106.6,1342.3,1107.9,1342.3z M1116.7,1339.2v1.1h-2.1v3.4h-1.2v-7.7h1.2v3.4h2.1V1339.2z"/>
			<path class="st4" d="M1126.4,1342.5c-1.9,0.4-3.6,0.4-6.6,0.4h-1.1v-6.1h6.1v1h-4.9v4c2.8,0,4.4-0.1,6.3-0.4L1126.4,1342.5z
				 M1129.2,1347.1c0,1.7-1.8,2.7-4.6,2.7s-4.6-1-4.6-2.7s1.8-2.7,4.6-2.7C1127.4,1344.4,1129.2,1345.4,1129.2,1347.1z
				 M1127.9,1347.1c0-1-1.2-1.7-3.4-1.7s-3.4,0.7-3.4,1.7s1.2,1.7,3.4,1.7S1127.9,1348.1,1127.9,1347.1z M1131.1,1339.4v1.1h-2v3.7
				h-1.3v-8.4h1.3v3.7L1131.1,1339.4L1131.1,1339.4z"/>
			<path class="st4" d="M1148.8,1342.9v1H1136v-1h5.7v-1.8h-4.1v-4.8h9.4v4.8h-4v1.8H1148.8z M1137.5,1345.4h9.7v4.5h-1.2v-3.5h-8.5
				V1345.4z M1138.9,1340.1h6.9v-2.7h-6.9V1340.1z"/>
			<path class="st4" d="M1163.2,1347.1v1h-12.7v-1h3.6v-3.4h-2.3v-1h2.1v-4.6h-2.1v-1h10.4v1h-2.1v4.6h2.1v1h-2.3v3.4H1163.2z
				 M1155,1342.8h3.5v-4.6h-3.5V1342.8z M1155.3,1347.1h3v-3.4h-3V1347.1z"/>
			<path class="st4" d="M1176.6,1341.9c-2,0.4-3.7,0.4-6.6,0.4h-1.1v-5.7h6.1v1h-4.9v3.7c2.7,0,4.4-0.1,6.3-0.4L1176.6,1341.9z
				 M1171.6,1348.6h8.2v1h-9.4v-3.6h7.6v-1.5h-7.6v-1h8.9v3.5h-7.6L1171.6,1348.6L1171.6,1348.6z M1181.3,1338.7v1h-2.1v3h-1.2v-7
				h1.2v2.9L1181.3,1338.7L1181.3,1338.7z"/>
			<path class="st4" d="M1190.3,1343.4c-1.6-0.6-2.7-1.7-3.4-3.1c-0.6,1.7-1.9,2.9-3.6,3.6l-0.7-1c2.1-0.8,3.6-2.7,3.6-4.8v-1.5h1.2
				v1.3c0,2,1.3,3.7,3.5,4.5L1190.3,1343.4z M1194.4,1347.2c0,1.7-1.8,2.7-4.7,2.7s-4.7-1-4.7-2.7s1.8-2.7,4.7-2.7
				S1194.4,1345.4,1194.4,1347.2z M1193,1347.2c0-1-1.2-1.7-3.4-1.7s-3.4,0.6-3.4,1.7c0,1,1.2,1.7,3.4,1.7
				C1191.8,1348.8,1193,1348.2,1193,1347.2z M1193,1339.8h-3v-1h3v-3h1.3v8.3h-1.3V1339.8z"/>
		</g>
		<g class="st2">
			<path class="st4" d="M1081.9,1367.4v2.6h4.1v4.7h-1.2v-3.7h-8.5v-1h4.4v-2.6h-5.7v-1h9.5c0.3-1.7,0.3-2.9,0.3-4h-8.2v-1h9.5v1
				c0,1,0,2.3-0.3,4h2v1H1081.9L1081.9,1367.4z"/>
			<path class="st4" d="M1091.3,1369.9c1.3,0,2.8-0.1,4.5-0.4l0.1,1.1c-1.9,0.3-3.5,0.4-5,0.4h-0.9v-8.7h1.2v7.6H1091.3z
				 M1101.3,1360.7v14.1h-1.2v-7.3h-2v6.6h-1.2v-13h1.2v5.4h2v-5.7L1101.3,1360.7L1101.3,1360.7z"/>
			<path class="st4" d="M1106.2,1367.8c0-0.7,0.4-1.1,1-1.1s1,0.4,1,1.1s-0.4,1.1-1,1.1S1106.2,1368.5,1106.2,1367.8z"/>
			<path class="st4" d="M1117.7,1370.5c1.3-0.1,2.8-0.2,4-0.3l0.1,1c-3.1,0.6-6.6,0.6-9.1,0.6l-0.1-1.1c1.1,0,2.5,0,3.8,0v-2.5
				c-1.8-0.2-3.1-1.5-3.1-3.2c0-2,1.6-3.2,3.7-3.2c2.2,0,3.8,1.3,3.8,3.2c0,1.8-1.2,3-3.1,3.2L1117.7,1370.5L1117.7,1370.5z
				 M1117,1367c1.5,0,2.6-0.9,2.6-2.2s-1-2.2-2.6-2.2c-1.5,0-2.5,0.9-2.5,2.2C1114.6,1366.1,1115.6,1367,1117,1367z M1124,1360.7
				v14.1h-1.2v-14.1H1124z"/>
			<path class="st4" d="M1137.8,1368.3c-1.6-0.6-2.7-1.7-3.4-3.1c-0.6,1.7-1.8,2.9-3.5,3.6l-0.7-1c2.1-0.8,3.5-2.7,3.5-4.8v-1.5h1.2
				v1.6c0,1.9,1.3,3.7,3.4,4.4L1137.8,1368.3z M1141.5,1372.1c0,1.7-1.8,2.6-4.6,2.6c-2.9,0-4.6-0.9-4.6-2.6s1.8-2.6,4.6-2.6
				S1141.5,1370.5,1141.5,1372.1z M1140.2,1372.1c0-1-1.2-1.6-3.4-1.6c-2.1,0-3.4,0.6-3.4,1.6s1.2,1.6,3.4,1.6
				C1138.9,1373.6,1140.2,1373.1,1140.2,1372.1z M1143.4,1364.2v1.1h-2.1v3.8h-1.2v-8.5h1.2v3.6H1143.4z"/>
			<path class="st4" d="M1149,1370.4c1,0,2-0.1,2.9-0.2l0.1,1c-2.3,0.4-5.3,0.4-7.2,0.4l-0.2-1.1c0.9,0,2,0,3.1,0v-2.9h1.2
				L1149,1370.4L1149,1370.4z M1151.2,1367.6c-1.3-0.6-2.3-1.5-2.8-2.7c-0.4,1.3-1.6,2.5-3,3l-0.7-1c1.9-0.7,3-2.2,3-4v-1.2h1.2v1.2
				c0,1.6,1.1,3,2.9,3.7L1151.2,1367.6z M1156.6,1360.7v14.1h-1.2v-7.2h-1.7v6.5h-1.2v-13h1.2v5.5h1.7v-5.8L1156.6,1360.7
				L1156.6,1360.7z"/>
			<path class="st4" d="M1167.3,1362h1.2v9.2h-5.4v-9.2h1.2v3.5h2.9L1167.3,1362L1167.3,1362z M1167.3,1366.4h-2.9v3.7h2.9V1366.4z
				 M1174.6,1360.7v14.1h-1.2v-7.5h-1.9v6.7h-1.2v-13.1h1.2v5.3h1.9v-5.6L1174.6,1360.7L1174.6,1360.7z"/>
			<path class="st4" d="M1184.1,1367.8v1.3h4v3h-8.3v1.3h8.7v1h-9.9v-3.2h8.3v-1.2h-8.3v-1h4.1v-1.3h-5.7v-1h12.6v1h-5.6v0.1H1184.1
				z M1177.8,1365.2c2.6-0.2,4.7-1,4.9-2.5h-4.4v-1h4.5v-1.3h1.2v1.3h4.4v1h-4.4c0.2,1.3,2.3,2.2,4.9,2.5l-0.4,1
				c-2.3-0.2-4.5-0.9-5.3-2.2c-0.9,1.3-2.9,2-5.3,2.2L1177.8,1365.2z"/>
			<path class="st4" d="M1195.4,1367.1c-1.3,0.1-2.7,0.1-3.8,0.1l-0.2-1c1.8,0,4,0,6.3-0.2c0.3-1.6,0.3-2.7,0.3-3.5h-5.3v-1h6.6v0.6
				c0,0.8,0,2.1-0.3,3.9c0.6,0,1.1-0.1,1.6-0.2l0.1,0.9c-1.2,0.2-2.7,0.3-3.9,0.4v3.2h-1.2v-3.2L1195.4,1367.1L1195.4,1367.1z
				 M1203.4,1373.3v1h-9.9v-4.2h1.2v3.2H1203.4z M1201.8,1368.3v-7.6h1.2v10.6h-1.2v-1.9h-3v-1L1201.8,1368.3L1201.8,1368.3z"/>
			<path class="st4" d="M1216.5,1367.4h-6.5v-6.1h1.2v2h4v-2h1.2L1216.5,1367.4L1216.5,1367.4z M1215.3,1364.2h-4v2.1h4V1364.2z
				 M1212.7,1373.5h8.2v1h-9.4v-3.5h7.6v-1.5h-7.6v-1h8.9v3.5h-7.6L1212.7,1373.5L1212.7,1373.5z M1222.4,1363.7v1.1h-2.1v3.1h-1.2
				v-7.3h1.2v3h2.1V1363.7z"/>
			<path class="st4" d="M1230.8,1366.7v1.8h4.1v3.4h-8.4v1.6h8.7v1h-9.9v-3.5h8.3v-1.5h-8.4v-1h4.2v-1.8h-5.7v-1h9.5
				c0.3-1.5,0.3-2.6,0.3-3.5h-8.2v-1h9.5v0.9c0,0.9,0,2.1-0.3,3.6h1.9v1H1230.8z"/>
		</g>
	</g>
	<g>
		<g class="st2">
			<path class="st4" d="M1320.6,1344.1c0-1.2,0.9-2.1,2-2.1c1,0,2,0.9,2,2.1s-0.9,2.1-2,2.1S1320.6,1345.3,1320.6,1344.1z"/>
		</g>
		<g class="st2">
			<path class="st4" d="M1320.6,1368.9c0-1.2,0.9-2.1,2-2.1c1,0,2,0.9,2,2.1s-0.9,2.1-2,2.1S1320.6,1370.2,1320.6,1368.9z"/>
		</g>
		<g class="st2">
			<path class="st4" d="M1339.6,1343.6c-1.6-0.6-2.8-1.7-3.4-3.1c-0.6,1.7-1.9,2.9-3.6,3.6l-0.7-1c2.1-0.8,3.6-2.7,3.6-4.7v-0.4
				h-3.1v-1h7.5v1h-3.1v0.4c0,1.8,1.3,3.6,3.5,4.2L1339.6,1343.6z M1343.5,1347.2c0,1.7-1.8,2.6-4.7,2.6c-2.9,0-4.7-1-4.7-2.6
				s1.8-2.6,4.7-2.6C1341.7,1344.7,1343.5,1345.5,1343.5,1347.2z M1342.3,1347.2c0-1-1.2-1.7-3.4-1.7c-2.1,0-3.4,0.6-3.4,1.7
				s1.2,1.6,3.4,1.6C1340.9,1348.8,1342.3,1348.2,1342.3,1347.2z M1342.2,1339.4v-3.6h1.3v8.4h-1.3v-3.7h-2.8v-1h2.8V1339.4z"/>
			<path class="st4" d="M1359,1345.1h-5.8v4.7h-1.2v-4.7h-5.7v-1h12.7V1345.1L1359,1345.1z M1357.5,1342.4h-9.5v-6h1.2v1.9h6.9v-1.9
				h1.2v6H1357.5z M1356.1,1339.3h-6.9v2h6.9V1339.3z"/>
			<path class="st4" d="M1369.1,1338.1h-8.3v-1h3.5v-1.5h1.2v1.5h3.5v1H1369.1z M1364.9,1343.3c-2,0-3.4-0.9-3.4-2.3
				c0-1.5,1.3-2.3,3.4-2.3c2,0,3.4,0.9,3.4,2.3C1368.2,1342.4,1367,1343.3,1364.9,1343.3z M1364,1348.7h8.2v1h-9.4v-3.2h7.6v-1.2
				h-7.6v-1h8.9v3.1h-7.6L1364,1348.7L1364,1348.7L1364,1348.7z M1364.9,1342.3c1.3,0,2.1-0.4,2.1-1.3s-0.9-1.3-2.1-1.3
				s-2.1,0.4-2.1,1.3C1362.7,1341.9,1363.6,1342.3,1364.9,1342.3z M1373.7,1339.2v1.1h-2.1v3.4h-1.2v-7.7h1.2v3.4h2.1V1339.2z"/>
			<path class="st4" d="M1383.4,1342.5c-1.9,0.4-3.6,0.4-6.6,0.4h-1.1v-6.1h6.1v1h-4.9v4c2.8,0,4.4-0.1,6.3-0.4L1383.4,1342.5z
				 M1386.2,1347.1c0,1.7-1.8,2.7-4.6,2.7c-2.8,0-4.6-1-4.6-2.7s1.8-2.7,4.6-2.7S1386.2,1345.4,1386.2,1347.1z M1384.9,1347.1
				c0-1-1.2-1.7-3.4-1.7c-2.1,0-3.4,0.7-3.4,1.7s1.2,1.7,3.4,1.7C1383.6,1348.8,1384.9,1348.1,1384.9,1347.1z M1388.1,1339.4v1.1h-2
				v3.7h-1.3v-8.4h1.3v3.7L1388.1,1339.4L1388.1,1339.4z"/>
			<path class="st4" d="M1405.8,1342.9v1H1393v-1h5.7v-1.8h-4.1v-4.8h9.4v4.8h-4v1.8H1405.8z M1394.5,1345.4h9.7v4.5h-1.2v-3.5h-8.5
				V1345.4z M1395.9,1340.1h6.9v-2.7h-6.9V1340.1z"/>
			<path class="st4" d="M1420.2,1347.1v1h-12.7v-1h3.6v-3.4h-2.3v-1h2.1v-4.6h-2.1v-1h10.4v1h-2.1v4.6h2.1v1h-2.3v3.4H1420.2z
				 M1412,1342.8h3.5v-4.6h-3.5V1342.8z M1412.3,1347.1h3v-3.4h-3V1347.1z"/>
			<path class="st4" d="M1438.1,1347v1.1h-12.7v-1.1h5.7v-3.2h1.3v3.2H1438.1z M1426,1343.3c2.7-0.4,5-2.1,5-4.2h-4.5v-1h4.5v-1.9
				h1.3v1.9h4.5v1h-4.5c0,2.1,2.2,3.8,5,4.2l-0.4,1c-2.2-0.4-4.2-1.6-5.1-3.2c-0.9,1.7-2.9,2.8-5.1,3.2L1426,1343.3z"/>
			<path class="st4" d="M1443.8,1345.7c1.6-0.1,3.1-0.1,4.5-0.3l0.1,0.9c-2.9,0.4-6.3,0.6-8.7,0.6l-0.1-1.1c0.9,0,1.9,0,3,0v-4.4
				h1.2V1345.7L1443.8,1345.7z M1445.8,1343.5c0.4-2.3,0.4-4,0.4-5.1h-5.8v-1h7v0.8c0,1.1,0,2.9-0.4,5.6L1445.8,1343.5z
				 M1452.7,1342.8h-2.2v7h-1.2v-14.1h1.2v5.9h2.2V1342.8z"/>
			<path class="st4" d="M1465.9,1341.9c-2,0.4-3.7,0.4-6.6,0.4h-1.1v-5.7h6.1v1h-4.9v3.7c2.7,0,4.4-0.1,6.3-0.4L1465.9,1341.9z
				 M1460.9,1348.6h8.2v1h-9.4v-3.6h7.6v-1.5h-7.6v-1h8.9v3.5h-7.6L1460.9,1348.6L1460.9,1348.6z M1470.6,1338.7v1h-2.1v3h-1.2v-7
				h1.2v2.9L1470.6,1338.7L1470.6,1338.7z"/>
			<path class="st4" d="M1479.6,1343.4c-1.6-0.6-2.7-1.7-3.4-3.1c-0.6,1.7-1.9,2.9-3.6,3.6l-0.7-1c2.1-0.8,3.6-2.7,3.6-4.8v-1.5h1.2
				v1.3c0,2,1.3,3.7,3.5,4.5L1479.6,1343.4z M1483.6,1347.2c0,1.7-1.8,2.7-4.7,2.7c-2.9,0-4.7-1-4.7-2.7s1.8-2.7,4.7-2.7
				C1481.8,1344.5,1483.6,1345.4,1483.6,1347.2z M1482.4,1347.2c0-1-1.2-1.7-3.4-1.7c-2.1,0-3.4,0.6-3.4,1.7c0,1,1.2,1.7,3.4,1.7
				C1481.1,1348.9,1482.4,1348.2,1482.4,1347.2z M1482.4,1339.8h-3v-1h3v-3h1.3v8.3h-1.3V1339.8z"/>
		</g>
		<g class="st2">
			<path class="st4" d="M1336,1364.6c0,2.5,1,4.9,3,6l-0.8,0.9c-1.3-0.8-2.3-2.3-2.8-4.1c-0.4,1.9-1.5,3.6-2.9,4.5l-0.8-1
				c2-1.2,3-3.7,3-6.3v-1.2h-2.7v-1h6.4v1h-2.5v1.2H1336z M1339.8,1361h1.2v13h-1.2v-7.3h-2.3v-1h2.3V1361z M1343.8,1360.7v14.1
				h-1.2v-14.1H1343.8z"/>
			<path class="st4" d="M1353.3,1368.5v1.7h4.1v4.4h-9.6v-4.4h4.1v-1.7h-5.7v-1h12.7v1H1353.3z M1349.7,1362.1h-2.1v-1h10.3v1h-2.1
				v2.9h2v1h-10.2v-1h2L1349.7,1362.1L1349.7,1362.1z M1356.3,1371.2h-7v2.3h7V1371.2z M1354.4,1362.1h-3.5v2.9h3.5V1362.1z"/>
			<path class="st4" d="M1367.8,1367.4h-6.4v-6.1h1.2v2h3.8v-2h1.2v1.3h3.2v-2h1.2v7.4h-1.2v-1.8h-3.2v1.2H1367.8z M1366.5,1364.2
				h-3.8v2.1h3.8V1364.2z M1372.8,1373.5v1h-9.5v-3.5h7.7v-1.3h-7.8v-1h9.1v3.4h-7.7v1.5L1372.8,1373.5L1372.8,1373.5z
				 M1367.8,1363.7v1.6h3.2v-1.6H1367.8z"/>
			<path class="st4" d="M1383.3,1362h1.2v9.2h-5.4v-9.2h1.2v3.5h2.9L1383.3,1362L1383.3,1362z M1383.3,1366.4h-2.9v3.7h2.9V1366.4z
				 M1390.6,1360.7v14.1h-1.2v-7.5h-1.9v6.7h-1.2v-13.1h1.2v5.3h1.9v-5.6L1390.6,1360.7L1390.6,1360.7z"/>
			<path class="st4" d="M1400.1,1367.8v1.3h4v3h-8.3v1.3h8.7v1h-9.9v-3.2h8.3v-1.2h-8.3v-1h4.1v-1.3h-5.7v-1h12.6v1h-5.6v0.1H1400.1
				z M1393.7,1365.2c2.6-0.2,4.7-1,4.9-2.5h-4.4v-1h4.5v-1.3h1.2v1.3h4.4v1h-4.4c0.2,1.3,2.3,2.2,4.9,2.5l-0.4,1
				c-2.3-0.2-4.5-0.9-5.3-2.2c-0.9,1.3-2.9,2-5.3,2.2L1393.7,1365.2z"/>
			<path class="st4" d="M1414.9,1368.1c-1.3,0.1-2.8,0.1-3.9,0.1l-0.2-1.1c2.6,0,6,0,9.1-0.4l0.1,0.9c-1.2,0.2-2.6,0.3-3.8,0.4v2.8
				h-1.2L1414.9,1368.1L1414.9,1368.1z M1411.9,1363.7c0-1.5,1.5-2.5,3.5-2.5s3.5,1,3.5,2.5s-1.5,2.5-3.5,2.5
				C1413.4,1366.1,1411.9,1365.1,1411.9,1363.7z M1422.8,1373.3v1h-9.9v-4.1h1.2v3L1422.8,1373.3L1422.8,1373.3L1422.8,1373.3z
				 M1413.2,1363.7c0,0.9,0.9,1.5,2.2,1.5s2.2-0.6,2.2-1.5s-0.9-1.5-2.2-1.5S1413.2,1362.8,1413.2,1363.7z M1421.1,1368.9v-8.3h1.2
				v10.7h-1.2v-1.5h-2.8v-1L1421.1,1368.9L1421.1,1368.9z"/>
			<path class="st4" d="M1433.6,1367.8c-1.9,0.3-3.6,0.4-6.5,0.4h-1.1v-6.5h6.3v1h-4.9v4.4c2.8,0,4.4-0.1,6.1-0.4L1433.6,1367.8z
				 M1428.8,1373.3h8v1h-9.4v-4.6h1.2v3.6H1428.8z M1438.3,1364.8v1.1h-2.1v4.9h-1.2v-10.2h1.2v4.1L1438.3,1364.8L1438.3,1364.8z"/>
			<path class="st4" d="M1449,1368.7c-1.3,0.2-2.7,0.4-4,0.4v5h-1.2v-5c-1.3,0.1-2.7,0.1-3.9,0.1l-0.2-1.1c2.6,0,6.1,0,9.3-0.4
				L1449,1368.7z M1440.8,1364.2c0-1.7,1.5-2.9,3.6-2.9s3.6,1.1,3.6,2.9c0,1.7-1.5,2.9-3.6,2.9
				C1442.2,1367,1440.8,1365.9,1440.8,1364.2z M1442,1364.2c0,1.1,1,1.8,2.3,1.8s2.3-0.8,2.3-1.8s-1-1.8-2.3-1.8
				C1443,1362.3,1442,1363.1,1442,1364.2z M1451.3,1360.7v14.1h-1.2v-14.1H1451.3z"/>
			<path class="st4" d="M1462.5,1364.8c0,2.3,1.7,4.9,3.7,5.8l-0.8,1c-1.6-0.8-2.9-2.5-3.6-4.5c-0.6,2-2,3.9-3.6,4.7l-0.8-1
				c2-1,3.7-3.7,3.7-6.1v-1.7h-3.1v-1h7.6v1h-3.2v1.8L1462.5,1364.8L1462.5,1364.8z M1469.2,1360.7v14.1h-1.2v-7.9h-3v-1h3v-5.1
				L1469.2,1360.7L1469.2,1360.7z"/>
			<path class="st4" d="M1479.1,1361.5c0,3.6-2.5,6-6.6,7.3l-0.4-1c3.5-0.9,5.5-2.8,5.7-5.1h-5.1v-1h6.5L1479.1,1361.5
				L1479.1,1361.5z M1474.1,1369.3h8.8v5.3h-8.8V1369.3z M1475.3,1373.4h6.3v-3.1h-6.3V1373.4z M1485,1365.1h-2.1v3.5h-1.2v-7.9h1.2
				v3.5h2.1V1365.1z"/>
		</g>
	</g>
	<g>
		<g class="st2">
			<path class="st4" d="M806.6,1448c0-1.2,0.9-2.1,2-2.1c1,0,2,0.9,2,2.1s-0.9,2.1-2,2.1S806.6,1449.2,806.6,1448z"/>
		</g>
		<g class="st2">
			<path class="st4" d="M806.6,1472.8c0-1.2,0.9-2.1,2-2.1c1,0,2,0.9,2,2.1s-0.9,2.1-2,2.1S806.6,1474.1,806.6,1472.8z"/>
		</g>
		<g class="st2">
			<path class="st4" d="M806.6,1497.7c0-1.2,0.9-2.1,2-2.1c1,0,2,0.9,2,2.1s-0.9,2.1-2,2.1C807.5,1499.8,806.6,1498.9,806.6,1497.7z
				"/>
		</g>
		<g class="st2">
			<path class="st4" d="M806.6,1522.5c0-1.2,0.9-2.1,2-2.1c1,0,2,0.9,2,2.1s-0.9,2.1-2,2.1S806.6,1523.7,806.6,1522.5z"/>
		</g>
		<g class="st2">
			<path class="st4" d="M806.6,1547.3c0-1.2,0.9-2.1,2-2.1c1,0,2,0.9,2,2.1s-0.9,2.1-2,2.1S806.6,1548.5,806.6,1547.3z"/>
		</g>
		<g class="st2">
			<path class="st4" d="M822.6,1441.1h1.2v9.2h-5.4v-9.2h1.2v3.5h2.9L822.6,1441.1L822.6,1441.1z M822.6,1445.4h-2.9v3.7h2.9V1445.4
				z M829.8,1439.7v14.1h-1.2v-7.5h-1.9v6.7h-1.2v-13.1h1.2v5.3h1.9v-5.6L829.8,1439.7L829.8,1439.7z"/>
			<path class="st4" d="M839.4,1446.9v1.3h4v3h-8.3v1.3h8.7v1h-9.9v-3.2h8.3v-1.2h-8.3v-1h4.1v-1.3h-5.7v-1H845v1h-5.7v0.1H839.4z
				 M833,1444.3c2.6-0.2,4.7-1,4.9-2.5h-4.4v-1h4.4v-1.3h1.2v1.3h4.4v1h-4c0.2,1.3,2.3,2.2,4.9,2.5l-0.4,1c-2.3-0.2-4.5-0.9-5.3-2.2
				c-0.9,1.3-2.9,2-5.3,2.2L833,1444.3z"/>
			<path class="st4" d="M850.5,1446.2c-1.3,0.1-2.7,0.1-3.8,0.1l-0.2-1c1.8,0,4,0,6.3-0.2c0.3-1.6,0.3-2.7,0.3-3.5h-5.3v-1h6.6v0.6
				c0,0.8,0,2.1-0.3,3.9c0.6,0,1.1-0.1,1.6-0.2l0.1,0.9c-1.2,0.2-2.7,0.3-3.9,0.4v3.2h-1.2v-3.2L850.5,1446.2L850.5,1446.2z
				 M858.6,1452.4v1h-9.9v-4.2h1.2v3.2H858.6z M857,1447.3v-7.6h1.2v10.6H857v-1.9h-3v-1L857,1447.3L857,1447.3z"/>
			<path class="st4" d="M868.2,1441.2c0,4-1.7,7.6-6.4,9.8l-0.7-1c3.8-1.9,5.5-4.5,5.7-7.8h-5.1v-1H868.2z M872.7,1439.7v14.1h-1.2
				v-7.4h-3.2v-1h3.2v-5.6L872.7,1439.7L872.7,1439.7z"/>
			<path class="st4" d="M877.2,1449.3c1.6,0,3-0.1,4.8-0.3l0.1,1.1c-1.9,0.3-3.6,0.4-5.3,0.4H876v-5.3h4v-2.8h-4v-1h5.3v4.9h-4
				L877.2,1449.3L877.2,1449.3z M887.4,1439.7v14.1h-1.2v-7.5h-2v6.7h-1.1v-13h1.2v5.3h2v-5.6H887.4z"/>
			<path class="st4" d="M894,1443.6c0,2.5,1,4.9,3,6l-0.8,0.9c-1.3-0.8-2.3-2.3-2.8-4.1c-0.4,1.9-1.5,3.6-2.9,4.5l-0.8-1
				c2-1.2,3-3.7,3-6.3v-1.2H890v-1h6.4v1H894V1443.6z M897.8,1440.1h1.2v13h-1.2v-7.3h-2.3v-1h2.3V1440.1z M901.8,1439.7v14.1h-1.2
				v-14.1H901.8z"/>
			<path class="st4" d="M909.6,1449.2c1.9,0,3.2-0.1,4.7-0.4l0.1,1.1c-1.7,0.3-3.1,0.4-5.3,0.4h-0.9v-8.8h5.3v1h-3.9L909.6,1449.2
				L909.6,1449.2z M919.7,1439.7v14.1h-1.2v-7.4h-2v6.7h-1.2V1440h1.2v5.4h2v-5.6L919.7,1439.7L919.7,1439.7z"/>
			<path class="st4" d="M924.3,1440.8v3.7h4v-3.7h1.2v9.5H923v-9.5H924.3z M924.3,1449.3h4v-3.7h-4V1449.3z M933.7,1439.7v14.1h-1.2
				v-14.1H933.7z"/>
			<path class="st4" d="M947.8,1447.9c-1.6-0.6-2.8-1.8-3.4-3.1c-0.6,1.6-1.9,2.9-3.6,3.5l-0.7-1c2.1-0.8,3.6-2.6,3.6-4.6v-0.7h-3.1
				v-1h7.5v1H945v0.7c0,1.8,1.3,3.6,3.5,4.4L947.8,1447.9z M952.1,1452.4v1h-9.4v-4.4h1.3v3.2h8v0.2H952.1z M950.4,1443.5v-3.9h1.3
				v10.3h-1.3v-5.4h-2.8v-1H950.4L950.4,1443.5z"/>
			<path class="st4" d="M962.9,1447c-2.2,0.3-4,0.4-6.7,0.4h-1.1v-4h5v-1.9h-5v-1h6.4v3.9h-5v2c2.5,0,4.2-0.1,6.4-0.4L962.9,1447z
				 M956.3,1449h9.2v4.7h-1.2v-3.7h-7.8v-1H956.3z M965.5,1443v1.9h2.1v1.1h-2.1v2.3h-1.2v-8.5h1.2v2.2h2.1v1.1L965.5,1443
				L965.5,1443z"/>
			<path class="st4" d="M985.1,1448.7h-5.7v5.1h-1.2v-5.1h-5.7v-1.1h12.6L985.1,1448.7z M984,1446.1c-2.1-0.3-4.2-1.6-5.3-3.2
				c-0.9,1.7-3,2.9-5.1,3.2l-0.6-1c2.6-0.3,5-2,5-4v-0.8h1.3v0.8c0,2,2.5,3.7,5,4L984,1446.1z"/>
			<path class="st4" d="M995.5,1446.7c-2.3,0.3-4.2,0.4-6.8,0.4h-1.1v-3.9h5v-1.8h-5.1v-1h6.4v3.8h-5.1v1.9c2.5,0,4.4-0.1,6.6-0.4
				L995.5,1446.7z M997.1,1448.1h1.2v5.5h-9.1v-5.5h1.2v1.7h6.6L997.1,1448.1L997.1,1448.1z M997.1,1450.8h-6.6v1.7h6.6V1450.8z
				 M998.3,1439.7v7.7h-1.2v-7.7H998.3z"/>
		</g>
		<g class="st2">
			<path class="st4" d="M830.6,1472v1H818v-1h5.7v-1.5c-2.7-0.1-4.4-1.1-4.4-2.8c0-1.8,1.9-2.8,4.9-2.8s4.9,1,4.9,2.8
				c0,1.6-1.7,2.7-4.2,2.8v1.5H830.6z M820.8,1477.2h8.4v1h-9.6v-4h1.2L820.8,1477.2L820.8,1477.2z M824.3,1469.5
				c2.2,0,3.6-0.7,3.6-1.8s-1.5-1.8-3.6-1.8c-2.2,0-3.6,0.7-3.6,1.8S822,1469.5,824.3,1469.5z"/>
			<path class="st4" d="M840.2,1471.4c-1.6-0.6-2.9-1.8-3.6-3.2c-0.6,1.6-1.9,2.9-3.6,3.5l-0.7-1c2.1-0.8,3.6-2.6,3.6-4.7v-1.1h1.2
				v1.1c0,1.9,1.5,3.7,3.6,4.4L840.2,1471.4z M844.4,1477.4v1h-9.5v-3.5h7.8v-1.3h-7.8v-1h9.1v3.4h-7.8v1.5L844.4,1477.4
				L844.4,1477.4z M843.8,1471.8h-1.2v-7.3h1.2V1471.8z"/>
			<path class="st4" d="M853.9,1466c0,4-1.8,7.6-6.4,9.8l-0.7-1c3.6-1.8,5.5-4.5,5.8-7.8h-5.1v-1.1L853.9,1466L853.9,1466z
				 M859.8,1471.3h-2.2v7.3h-1.3v-14.1h1.2v5.7h2.2L859.8,1471.3L859.8,1471.3z"/>
			<path class="st4" d="M873.9,1475.6v1.1h-12.7v-1.1H873.9z M872.7,1472.6c-2.1-0.4-4.4-2-5.3-4c-0.9,2-3.1,3.6-5.3,4l-0.6-1.1
				c2.5-0.4,5.1-2.6,5.1-5v-1.1h1.3v1.1c0,2.3,2.7,4.5,5.1,5L872.7,1472.6z"/>
			<path class="st4" d="M886.1,1465.4c0,3.6-2.5,6-6.6,7.3l-0.4-1c3.5-0.9,5.5-2.8,5.7-5.1h-5.1v-1h6.5v-0.2H886.1z M881,1473.2h8.8
				v5.3H881V1473.2z M882.4,1477.3h6.3v-3.1h-6.3V1477.3z M892,1469h-2.1v3.5h-1.2v-7.9h1.2v3.5h2.1V1469z"/>
			<path class="st4" d="M900.4,1472.6v1.6h4.1v4.2h-1.2v-3.2h-8.5v-1h4.4v-1.6h-5.7v-1h12.7v1H900.4z M894.2,1469.8
				c2.7-0.2,4.8-1.3,4.9-2.9h-4.4v-1h4.4v-1.5h1.2v1.5h4.4v1h-4.4c0.1,1.6,2.2,2.7,4.9,2.9l-0.4,1c-2.3-0.2-4.4-1.1-5.1-2.5
				c-0.9,1.5-2.9,2.2-5.3,2.5L894.2,1469.8z"/>
			<path class="st4" d="M924.1,1475.7v1.1h-12.7v-1.1h3.1v-3.8c-1.2-0.6-1.9-1.7-1.9-2.9c0-2.2,2.1-3.6,5.1-3.6s5.1,1.5,5.1,3.6
				c0,1.2-0.7,2.2-1.9,2.9v3.8H924.1z M913.8,1469c0,1.6,1.6,2.6,3.9,2.6c2.3,0,3.9-1,3.9-2.6s-1.7-2.6-3.9-2.6
				C915.5,1466.5,913.8,1467.5,913.8,1469z M915.7,1475.7h3.9v-3.4c-0.6,0.1-1.2,0.2-2,0.2c-0.7,0-1.3-0.1-1.9-0.2V1475.7z"/>
			<path class="st4" d="M938.5,1475.7v1h-12.7v-1h5.7v-3.5h1.2v3.5H938.5z M937.3,1472.5c-2.1-0.4-4.4-1.9-5.3-3.9
				c-0.9,2-3.1,3.5-5.3,3.9l-0.6-1.1c2.5-0.4,5.1-2.5,5.1-4.8v-1.1h1.3v1.1c0,2.3,2.7,4.4,5.1,4.8L937.3,1472.5z"/>
			<path class="st4" d="M950.7,1471.3h-6.5v-6.1h1.2v2h4v-2h1.2L950.7,1471.3L950.7,1471.3z M949.5,1468.1h-4v2.1h4V1468.1z
				 M946.9,1477.4h8.2v1h-9.4v-3.5h7.6v-1.5h-7.6v-1h8.9v3.5H947L946.9,1477.4L946.9,1477.4z M956.6,1467.6v1.1h-2.1v3.1h-1.2v-7.3
				h1.2v3h2.1V1467.6z"/>
			<path class="st4" d="M965,1470.6v1.8h4.1v3.4h-8.4v1.6h8.7v1h-9.9v-3.5h8.3v-1.5h-8.4v-1h4.2v-1.8H958v-1h9.5
				c0.3-1.5,0.3-2.6,0.3-3.5h-8.2v-1h9.5v0.9c0,0.9,0,2.1-0.3,3.6h1.9v1H965z"/>
		</g>
		<g class="st2">
			<path class="st4" d="M822.7,1493.1c0,2.5,1.6,5,3.6,6l-0.8,1c-1.5-0.8-2.8-2.5-3.4-4.4c-0.6,2-1.9,3.8-3.5,4.7l-0.8-1
				c2-1,3.6-3.7,3.6-6.3v-2.6h1.2v2.6H822.7z M831.1,1496.1h-2.3v7.3h-1.2v-14.1h1.2v5.7h2.3V1496.1z"/>
			<path class="st4" d="M843.9,1489.4v7.5h-1.3v-3.1h-2.8c-0.2,1.7-1.7,2.8-3.6,2.8c-2.1,0-3.6-1.3-3.6-3.2c0-1.9,1.6-3.2,3.6-3.2
				c1.9,0,3.4,1.1,3.6,2.7h2.9v-3.4L843.9,1489.4L843.9,1489.4z M838.6,1493.3c0-1.2-1-2.1-2.3-2.1s-2.3,0.9-2.3,2.1s1,2.2,2.3,2.2
				S838.6,1494.5,838.6,1493.3z M842.6,1497.5h1.2v5.6h-8.9v-5.6h1.2v1.8h6.5V1497.5L842.6,1497.5z M842.6,1500.3h-6.5v1.8h6.5
				V1500.3z"/>
			<path class="st4" d="M854.2,1497.1c-1.6-0.6-2.8-1.7-3.4-3c-0.6,1.6-1.9,2.8-3.6,3.5l-0.7-1c2.1-0.8,3.6-2.6,3.6-4.6v-0.6H847v-1
				h7.5v1h-3.1v0.6c0,1.8,1.3,3.5,3.4,4.1L854.2,1497.1z M857.8,1500.8c0,1.7-1.8,2.6-4.6,2.6c-2.9,0-4.6-1-4.6-2.6
				c0-1.7,1.8-2.6,4.6-2.6C856,1498.2,857.8,1499.1,857.8,1500.8z M856.5,1500.8c0-1-1.2-1.6-3.4-1.6c-2.1,0-3.4,0.6-3.4,1.6
				s1.2,1.6,3.4,1.6C855.2,1502.3,856.5,1501.8,856.5,1500.8z M859.7,1493v1.1h-2.1v3.8h-1.2v-8.5h1.2v3.6H859.7z"/>
			<path class="st4" d="M868.2,1496.1h-6.4v-6.1h1.2v2h3.8v-2h1.2v1.3h3.2v-2h1.2v7.4h-1.2v-1.8H868v1.2H868.2z M866.9,1493h-3.8
				v2.1h3.8V1493z M873.2,1502.2v1h-9.5v-3.5h7.7v-1.3h-7.8v-1h9.1v3.4H865v1.5L873.2,1502.2L873.2,1502.2z M868.2,1492.4v1.6h3.2
				v-1.6H868.2z"/>
			<path class="st4" d="M886.1,1490.3c0,3.6-2.5,6-6.6,7.3l-0.4-1c3.5-0.9,5.5-2.8,5.7-5.1h-5.1v-1h6.5v-0.2H886.1z M881,1498h8.8
				v5.3H881V1498z M882.4,1502.1h6.3v-3.1h-6.3V1502.1z M892,1493.9h-2.1v3.5h-1.2v-7.9h1.2v3.5h2.1V1493.9z"/>
			<path class="st4" d="M900.4,1497.4v1.6h4.1v4.2h-1.2v-3.2h-8.5v-1h4.4v-1.6h-5.7v-1h12.7v1H900.4z M894.2,1494.6
				c2.7-0.2,4.8-1.3,4.9-2.9h-4.4v-1h4.4v-1.5h1.2v1.5h4.4v1h-4.4c0.1,1.6,2.2,2.7,4.9,2.9l-0.4,1c-2.3-0.2-4.4-1.1-5.1-2.5
				c-0.9,1.5-2.9,2.2-5.3,2.5L894.2,1494.6z"/>
			<path class="st4" d="M924.1,1496.4v1h-12.7v-1h5.7v-1.8H913v-4.8h9.4v4.8h-4v1.8H924.1z M912.8,1499h9.7v4.5h-1.2v-3.5h-8.5V1499
				L912.8,1499z M914.3,1493.6h6.9v-2.7h-6.9V1493.6z"/>
			<path class="st4" d="M938.5,1500.7v1h-12.7v-1h3.6v-3.4H927v-1h2.1v-4.6H927v-1h10.4v1h-2.1v4.6h2.1v1H935v3.4H938.5z
				 M930.3,1496.3h3.5v-4.6h-3.5V1496.3z M930.6,1500.7h3v-3.4h-3V1500.7z"/>
			<path class="st4" d="M951.3,1495.3c0,3-1.5,4.9-3.6,4.9s-3.6-1.9-3.6-4.9s1.5-4.9,3.6-4.9S951.3,1492.3,951.3,1495.3z
				 M945.3,1495.3c0,2.2,1,3.8,2.3,3.8s2.3-1.5,2.3-3.8c0-2.2-1-3.7-2.3-3.7C946.3,1491.6,945.3,1493.1,945.3,1495.3z M955.2,1489.4
				v14.1H954v-14.1H955.2z"/>
			<path class="st4" d="M965.1,1492.1H958v-1h2.9v-1.6h1.2v1.6h2.9L965.1,1492.1L965.1,1492.1z M961.5,1497.5c-1.8,0-3-0.9-3-2.5
				c0-1.5,1.2-2.3,3-2.3s3,1,3,2.3C964.6,1496.6,963.3,1497.5,961.5,1497.5z M961.5,1496.6c1.1,0,1.9-0.6,1.9-1.5s-0.8-1.5-1.9-1.5
				s-1.9,0.6-1.9,1.5C959.7,1496.1,960.4,1496.6,961.5,1496.6z M969.9,1500.9c0,1.6-1.8,2.5-4.7,2.5s-4.7-0.9-4.7-2.5
				s1.8-2.5,4.7-2.5S969.9,1499.3,969.9,1500.9z M968.7,1500.9c0-0.9-1.2-1.5-3.5-1.5c-2.1,0-3.5,0.6-3.5,1.5s1.2,1.5,3.5,1.5
				C967.4,1502.3,968.7,1501.9,968.7,1500.9z M966.9,1497.8h-1.2v-8.2h1.2v3.6h1.8v-3.8h1.2v8.9h-1.2v-4h-1.8V1497.8z"/>
		</g>
		<g class="st2">
			<path class="st4" d="M825,1515.1c0,3.6-2.5,6-6.6,7.3l-0.4-1c3.5-0.9,5.5-2.8,5.7-5.1h-5.1v-1h6.5v-0.2H825z M820,1522.8h8.8v5.3
				H820V1522.8z M821.2,1527h6.3v-3.1h-6.3V1527z M831,1518.7h-2.1v3.5h-1.2v-7.9h1.2v3.5h2.1V1518.7z"/>
			<path class="st4" d="M839.4,1522.3v1.6h4.1v4.2h-1.2v-3.2h-8.5v-1h4.4v-1.6h-5.7v-1h12.6v1H839.4z M833.1,1519.5
				c2.7-0.2,4.8-1.3,4.9-2.9h-4.4v-1h4.4v-1.5h1.2v1.5h4.4v1h-4.4c0.1,1.6,2.2,2.7,4.9,2.9l-0.4,1c-2.3-0.2-4.4-1.1-5.1-2.5
				c-0.9,1.5-2.9,2.2-5.3,2.5L833.1,1519.5z"/>
			<path class="st4" d="M857.7,1515.7c0,4-1.9,7.6-6.5,9.9l-0.7-1c3.8-1.8,5.7-4.5,5.9-7.8h-5.3v-1L857.7,1515.7L857.7,1515.7
				L857.7,1515.7z M861.7,1514.2v14.1h-1.2v-14.1H861.7z"/>
			<path class="st4" d="M871.7,1521v1.3h4.1v3.2h-8.4v1.3h8.7v1h-9.9v-3.4h8.3v-1.2h-8.3v-1h4.1v-1.3h-5.7v-1h12.7v1L871.7,1521
				L871.7,1521z M876.2,1519.1c-2.2-0.3-4.4-1.2-5.3-2.8c-0.9,1.5-3,2.5-5.3,2.8l-0.4-1c2.6-0.3,5-1.7,5-3.4v-0.6h1.3v0.6
				c0,1.7,2.5,3.1,5,3.4L876.2,1519.1z"/>
			<path class="st4" d="M890.2,1522c-1.6-0.6-2.8-1.7-3.4-3.1c-0.6,1.6-1.9,2.9-3.6,3.5l-0.7-1c2.1-0.8,3.6-2.6,3.6-4.6v-0.6H883v-1
				h7.5v1h-3.1v0.6c0,1.8,1.3,3.6,3.5,4.2L890.2,1522z M884.7,1523.4h9.4v4.9h-1.2v-3.8h-8v-1.1H884.7z M894.1,1514.2v8.4h-1.2v-3.7
				h-2.8v-1h2.8v-3.7L894.1,1514.2L894.1,1514.2z"/>
			<path class="st4" d="M909.7,1521.1v1H897v-1h3.1v-2c-1.1-0.4-1.7-1.1-1.7-2.1c0-1.7,1.9-2.6,4.9-2.6s4.9,1,4.9,2.6
				c0,0.9-0.7,1.7-1.7,2.1v2H909.7z M908.1,1525.7c0,1.6-1.8,2.5-4.8,2.5s-4.8-0.9-4.8-2.5s1.8-2.5,4.8-2.5
				C906.3,1523.3,908.1,1524.2,908.1,1525.7z M903.3,1518.7c2.2,0,3.6-0.6,3.6-1.6s-1.3-1.6-3.6-1.6c-2.2,0-3.6,0.6-3.6,1.6
				C899.7,1518,901.1,1518.7,903.3,1518.7z M906.8,1525.7c0-1-1.3-1.5-3.5-1.5s-3.5,0.6-3.5,1.5s1.3,1.5,3.5,1.5
				C905.4,1527.2,906.8,1526.6,906.8,1525.7z M901.4,1521.1h3.9v-1.7c-0.6,0.1-1.2,0.1-2,0.1c-0.7,0-1.3-0.1-1.9-0.1V1521.1z"/>
			<path class="st4" d="M922,1521.6h-6.5v-6.5h1.2v2.1h4v-2.1h1.2L922,1521.6L922,1521.6z M925.9,1525.6c0,1.7-1.8,2.6-4.6,2.6
				c-2.9,0-4.6-1-4.6-2.6s1.8-2.6,4.6-2.6C924.1,1523,925.9,1523.9,925.9,1525.6z M920.6,1518.2h-4v2.3h4V1518.2z M924.6,1525.6
				c0-1-1.2-1.6-3.4-1.6c-2.1,0-3.4,0.6-3.4,1.6s1.2,1.6,3.4,1.6C923.3,1527.2,924.6,1526.6,924.6,1525.6z M927.8,1517.7v1.1h-2.1
				v3.8h-1.2v-8.5h1.2v3.6H927.8z"/>
			<path class="st4" d="M933.1,1522c-2.1,0-3.7-1.5-3.7-3.5s1.6-3.5,3.7-3.5c2.1,0,3.7,1.5,3.7,3.5
				C936.8,1520.7,935.3,1522,933.1,1522z M933.1,1521c1.3,0,2.5-1,2.5-2.3s-1-2.3-2.5-2.3s-2.5,1-2.5,2.3
				C930.8,1520,931.8,1521,933.1,1521z M932.7,1526.8h8v1h-9.4v-4.5h1.2v3.5H932.7z M942.2,1518.5v1.1h-2.1v5h-1.2v-10.3h1.2v4.2
				L942.2,1518.5L942.2,1518.5z"/>
			<path class="st4" d="M953.8,1520.8c-0.7,0.8-1.7,1.3-2.9,1.3c-2,0-3.6-1.5-3.6-3.6s1.6-3.6,3.6-3.6c1.2,0,2.2,0.4,2.9,1.3h3.6
				v-2.2h1.3v10.4h-1.3v-3.8h-3.6V1520.8z M951,1521c1.3,0,2.3-1,2.3-2.3s-1-2.3-2.3-2.3s-2.3,1-2.3,2.3S949.6,1521,951,1521z
				 M959.1,1526.8v1h-9.4v-4.5h1.3v3.4h8v0.1H959.1z M954.4,1517.5c0.1,0.3,0.2,0.8,0.2,1.2s-0.1,0.8-0.2,1.1h3v-2.3L954.4,1517.5
				L954.4,1517.5z"/>
			<path class="st4" d="M974.3,1522.1h-5.7v6h-1.3v-6h-5.7v-1h9.3c0.4-2,0.4-3.5,0.4-4.8v-0.2h-8.2v-1h9.4v1.2c0,1.3,0,2.8-0.4,4.8
				h2.1v1H974.3z"/>
		</g>
		<g class="st2">
			<path class="st4" d="M830.6,1546.5v1H818v-1h5.7v-1.5c-2.7-0.1-4.4-1.1-4.4-2.8c0-1.8,1.9-2.8,4.9-2.8s4.9,1,4.9,2.8
				c0,1.6-1.7,2.7-4.2,2.8v1.5H830.6z M820.8,1551.7h8.4v1h-9.6v-4h1.2L820.8,1551.7L820.8,1551.7z M824.3,1544
				c2.2,0,3.6-0.7,3.6-1.8s-1.5-1.8-3.6-1.8c-2.2,0-3.6,0.7-3.6,1.8S822,1544,824.3,1544z"/>
			<path class="st4" d="M840.2,1545.9c-1.6-0.6-2.9-1.8-3.6-3.2c-0.6,1.6-1.9,2.9-3.6,3.5l-0.7-1c2.1-0.8,3.6-2.6,3.6-4.7v-1.1h1.2
				v1.1c0,1.9,1.5,3.7,3.6,4.4L840.2,1545.9z M844.4,1551.9v1h-9.5v-3.5h7.8v-1.3h-7.8v-1h9.1v3.4h-7.8v1.5L844.4,1551.9
				L844.4,1551.9z M843.8,1546.3h-1.2v-7.3h1.2V1546.3z"/>
			<path class="st4" d="M853.9,1540.5c0,4-1.8,7.6-6.4,9.8l-0.7-1c3.6-1.8,5.5-4.5,5.8-7.8h-5.1v-1.1L853.9,1540.5L853.9,1540.5z
				 M859.8,1545.7h-2.2v7.3h-1.3v-14.1h1.2v5.7h2.2L859.8,1545.7L859.8,1545.7z"/>
			<path class="st4" d="M873.9,1550.1v1.1h-12.7v-1.1H873.9z M872.7,1547.1c-2.1-0.4-4.4-2-5.3-4c-0.9,2-3.1,3.6-5.3,4l-0.6-1.1
				c2.5-0.4,5.1-2.6,5.1-5v-1.1h1.3v1.1c0,2.3,2.7,4.5,5.1,5L872.7,1547.1z"/>
			<path class="st4" d="M891.8,1550.2v1.1H879v-1.1h5.7v-3.5h-4.2v-6.6h9.7v6.6h-4.1v3.5H891.8z M881.7,1545.7h7.2v-4.6h-7.2V1545.7
				z"/>
			<path class="st4" d="M895.6,1548.3c2.1,0,4.2-0.2,6.6-0.7l0.1,1.1c-2.5,0.4-4.7,0.7-6.9,0.7h-1.1v-9.1h1.2v7.9L895.6,1548.3
				L895.6,1548.3z M905,1539v14.1h-1.2V1539H905z"/>
			<path class="st4" d="M909.8,1548.7c2.6,0,4.1-0.1,6-0.4l0.1,1c-2,0.3-3.7,0.4-6.4,0.4h-1.1v-9.4h6.5v1.1h-5.3v2.9h4.6v1h-4.6v3.4
				H909.8z M919.4,1539v14.1h-1.2v-7.7h-2.9v-1.1h2.9v-5.3H919.4z"/>
			<path class="st4" d="M930.9,1546.3c-2.3,0.3-4.2,0.4-6.8,0.4H923v-4h5v-1.9h-5.1v-1h6.4v3.9h-5.1v2c2.5,0,4.4-0.1,6.6-0.4
				L930.9,1546.3z M933.8,1550.4c0,1.7-1.8,2.6-4.7,2.6s-4.7-0.9-4.7-2.6c0-1.6,1.8-2.6,4.7-2.6C932,1548,933.8,1548.9,933.8,1550.4
				z M932.6,1550.4c0-1-1.2-1.6-3.5-1.6c-2.1,0-3.5,0.6-3.5,1.6s1.2,1.6,3.5,1.6C931.2,1552,932.6,1551.4,932.6,1550.4z
				 M933.7,1547.6h-1.2v-8.6h1.2V1547.6z"/>
			<path class="st4" d="M944.2,1543.3c0,2.2,1.1,4.6,3,5.6l-0.8,1c-1.3-0.8-2.3-2.2-2.9-3.9c-0.4,1.8-1.5,3.4-2.8,4.1l-0.8-1
				c1.9-1.1,3-3.6,3-5.9v-0.7h-2.6v-1.1h2.6v-2.1h1.2v2.1h2.6v1.1h-2.6L944.2,1543.3L944.2,1543.3z M948,1539.4h1.2v13H948v-6.7
				h-2.1v-1.1h2.1V1539.4z M952,1539v14.1h-1.2V1539H952z"/>
			<path class="st4" d="M962.4,1539.4h1.2v13h-1.2v-4.8h-2.6v-1h2.6v-2.5h-2.3c-0.7,2.3-2.1,4.5-4.8,6l-0.8-0.9
				c3-1.8,4.5-4.4,4.7-7.3h-4.1v-1h5.4c0,0.7-0.1,1.5-0.2,2.1h2.1v-3.7h0V1539.4z M966.5,1539v14.1h-1.2V1539H966.5z"/>
			<path class="st4" d="M985.1,1547h-5.7v6h-1.3v-6h-5.7v-1h9.3c0.4-2,0.4-3.5,0.4-4.8v-0.2h-8.2v-1h9.4v1.2c0,1.3,0,2.8-0.4,4.8
				h2.1v1H985.1z"/>
			<path class="st4" d="M993.8,1547.1v1.6h4.1v4.2h-1.2v-3.2h-8.5v-1h4.4v-1.6h-5.7v-1h12.7v1H993.8z M987.6,1544.3
				c2.7-0.2,4.8-1.3,4.9-2.9h-4.4v-1h4.4v-1.5h1.2v1.5h4.4v1h-4.4c0.1,1.6,2.2,2.7,4.9,2.9l-0.4,1c-2.3-0.2-4.4-1.1-5.1-2.5
				c-0.9,1.5-2.9,2.2-5.3,2.5L987.6,1544.3z"/>
		</g>
	</g>
	<g>
		<g class="st2">
			<path class="st4" d="M1063.6,1448c0-1.2,0.9-2.1,2-2.1c1,0,2,0.9,2,2.1s-0.9,2.1-2,2.1S1063.6,1449.2,1063.6,1448z"/>
		</g>
		<g class="st2">
			<path class="st4" d="M1063.6,1472.8c0-1.2,0.9-2.1,2-2.1c1,0,2,0.9,2,2.1s-0.9,2.1-2,2.1S1063.6,1474.1,1063.6,1472.8z"/>
		</g>
		<g class="st2">
			<path class="st4" d="M1063.6,1497.7c0-1.2,0.9-2.1,2-2.1c1,0,2,0.9,2,2.1s-0.9,2.1-2,2.1S1063.6,1498.9,1063.6,1497.7z"/>
		</g>
		<g class="st2">
			<path class="st4" d="M1063.6,1522.5c0-1.2,0.9-2.1,2-2.1c1,0,2,0.9,2,2.1s-0.9,2.1-2,2.1S1063.6,1523.7,1063.6,1522.5z"/>
		</g>
		<g class="st2">
			<path class="st4" d="M1063.6,1547.3c0-1.2,0.9-2.1,2-2.1c1,0,2,0.9,2,2.1s-0.9,2.1-2,2.1S1063.6,1548.5,1063.6,1547.3z"/>
		</g>
		<g class="st2">
			<path class="st4" d="M1082.4,1447.3c-1.6-0.6-2.7-1.7-3.4-3.1c-0.6,1.7-1.8,2.9-3.5,3.6l-0.7-1c2.1-0.8,3.5-2.7,3.5-4.8v-1.5h1.2
				v1.6c0,1.9,1.3,3.7,3.4,4.4L1082.4,1447.3z M1086,1451.1c0,1.7-1.8,2.6-4.6,2.6c-2.9,0-4.6-0.9-4.6-2.6s1.8-2.6,4.6-2.6
				C1084.2,1448.6,1086,1449.6,1086,1451.1z M1084.7,1451.1c0-1-1.2-1.6-3.4-1.6s-3.4,0.6-3.4,1.6s1.2,1.6,3.4,1.6
				C1083.4,1452.7,1084.7,1452.1,1084.7,1451.1z M1088,1443.3v1.1h-2.1v3.8h-1.2v-8.5h1.2v3.6H1088z"/>
			<path class="st4" d="M1093.6,1449.4c1,0,2-0.1,2.9-0.2l0.1,1c-2.3,0.4-5.3,0.4-7.2,0.4l-0.2-1.1c0.9,0,2,0,3.1,0v-2.9h1.2
				L1093.6,1449.4L1093.6,1449.4z M1095.8,1446.7c-1.3-0.6-2.3-1.5-2.8-2.7c-0.4,1.3-1.6,2.5-3,3l-0.7-1c1.9-0.7,3-2.2,3-4v-1.2h1.2
				v1.2c0,1.6,1.1,3,2.9,3.7L1095.8,1446.7z M1101.2,1439.7v14.1h-1.2v-7.2h-1.7v6.5h-1.2v-13h1.2v5.5h1.7v-5.8L1101.2,1439.7
				L1101.2,1439.7z"/>
			<path class="st4" d="M1111.9,1441.1h1.2v9.2h-5.4v-9.2h1.2v3.5h2.9L1111.9,1441.1L1111.9,1441.1z M1111.9,1445.4h-2.9v3.7h2.9
				V1445.4z M1119.2,1439.7v14.1h-1.2v-7.5h-1.9v6.7h-1.2v-13.1h1.2v5.3h1.9v-5.6L1119.2,1439.7L1119.2,1439.7z"/>
			<path class="st4" d="M1128.7,1446.9v1.3h4v3h-8.3v1.3h8.7v1h-9.9v-3.2h8.3v-1.2h-8.3v-1h4.1v-1.3h-5.7v-1h12.6v1h-5.6v0.1H1128.7
				z M1122.3,1444.3c2.6-0.2,4.7-1,4.9-2.5h-4.4v-1h4.5v-1.3h1.2v1.3h4.4v1h-4.4c0.2,1.3,2.3,2.2,4.9,2.5l-0.3,1
				c-2.3-0.2-4.5-0.9-5.3-2.2c-0.9,1.3-2.9,2-5.3,2.2L1122.3,1444.3z"/>
			<path class="st4" d="M1139.8,1446.2c-1.3,0.1-2.7,0.1-3.8,0.1l-0.2-1c1.8,0,4,0,6.3-0.2c0.3-1.6,0.3-2.7,0.3-3.5h-5.3v-1h6.6v0.6
				c0,0.8,0,2.1-0.3,3.9c0.6,0,1.1-0.1,1.6-0.2l0.1,0.9c-1.2,0.2-2.7,0.3-3.9,0.4v3.2h-1.2v-3.2L1139.8,1446.2L1139.8,1446.2z
				 M1147.9,1452.4v1h-9.9v-4.2h1.2v3.2H1147.9z M1146.3,1447.3v-7.6h1.2v10.6h-1.2v-1.9h-3v-1L1146.3,1447.3L1146.3,1447.3z"/>
			<path class="st4" d="M1163.3,1448.1c-1.3,0.2-2.7,0.3-4,0.4v4.8h-1.2v-4.7c-1.3,0-2.7,0.1-3.9,0.1l-0.2-1.1c2.7,0,6.1,0,9.3-0.4
				L1163.3,1448.1z M1154.6,1445.6c2-0.4,3.4-1.8,3.4-3.2l0,0h-3.1v-1h3.1v-1.6h1.2v1.6h3.1v1h-3.1l0,0c0,1.5,1.3,2.6,3.4,3l-0.6,1
				c-1.6-0.4-2.8-1.2-3.5-2.3c-0.6,1.2-1.9,2.1-3.5,2.6L1154.6,1445.6z M1165.4,1439.7v14.1h-1.2v-14.1H1165.4z"/>
			<path class="st4" d="M1181.1,1446.5v1h-12.7v-1H1181.1z M1169.8,1449.2h9.7v4.6h-1.3v-3.6h-8.5v-1H1169.8z M1179.6,1445h-9.6
				v-4.7h9.5v1h-8.3v2.7h8.4V1445z"/>
			<path class="st4" d="M1199,1450.9v1.1h-12.7v-1.1H1199z M1189.6,1442.2h-2.1v-1h10.4v1h-2.1v4.9h2.1v1h-10.4v-1h2.1V1442.2z
				 M1194.3,1442.2h-3.5v4.9h3.5V1442.2z"/>
			<path class="st4" d="M1213.4,1450.9v1h-12.7v-1h5.7v-2.7h-4.1v-4.4h8.4v-2.2h-8.4v-1h9.6v4.2h-8.3v2.2h8.6v1h-4.5v2.7h5.7
				L1213.4,1450.9L1213.4,1450.9z"/>
			<path class="st4" d="M1221.3,1447.7c-1.2-0.6-2.2-1.6-2.7-2.8c-0.4,1.3-1.5,2.6-2.8,3.1l-0.7-1c1.8-0.8,2.8-2.6,2.8-4.2v-0.8
				h-2.6v-1h6.3v1h-2.5v0.8c0,1.6,1,3.2,2.8,3.9L1221.3,1447.7z M1217.4,1448.9h9.4v4.8h-1.2v-3.8h-8.2L1217.4,1448.9L1217.4,1448.9
				z M1222.9,1443.3v-3.4h1.2v8.2h-1.2v-3.8h-2.1v-1L1222.9,1443.3L1222.9,1443.3z M1226.9,1439.7v8.6h-1.2v-8.6H1226.9z"/>
			<path class="st4" d="M1242.1,1450.9v1h-12.7v-1H1242.1z M1240.7,1448.3h-9.6v-7.4h9.5v1h-8.2v2.1h7.9v1h-7.9v2.2h8.4v1h-0.1
				V1448.3z"/>
		</g>
		<g class="st2">
			<path class="st4" d="M1082.7,1472.5c-1.6-0.6-2.8-1.9-3.5-3.5c-0.6,1.7-1.9,3-3.5,3.8l-0.7-1c2.1-0.8,3.6-2.8,3.6-5v-1.5h1.2v1.5
				c0,2.1,1.5,4,3.5,4.8L1082.7,1472.5z M1086.8,1477.2v1h-9.5v-4.4h1.2v3.4H1086.8z M1086.5,1474.8h-1.2v-10.3h1.2V1474.8z"/>
			<path class="st4" d="M1096.7,1466c0,4-1.9,7.6-6.5,9.9l-0.7-1c3.8-1.8,5.7-4.5,5.9-7.8h-5.3v-1L1096.7,1466L1096.7,1466
				L1096.7,1466z M1100.8,1464.6v14.1h-1.2v-14.1H1100.8z"/>
			<path class="st4" d="M1110.7,1471.4v1.3h4.1v3.2h-8.3v1.3h8.7v1h-9.9v-3.4h8.3v-1.2h-8.3v-1h4.1v-1.3h-5.7v-1h12.7v1
				L1110.7,1471.4L1110.7,1471.4z M1115.4,1469.5c-2.2-0.3-4.4-1.2-5.3-2.8c-0.9,1.5-3,2.5-5.3,2.8l-0.4-1c2.6-0.3,5-1.7,5-3.4v-0.6
				h1.3v0.6c0,1.7,2.5,3.1,5,3.4L1115.4,1469.5z"/>
			<path class="st4" d="M1129.3,1472.4c-1.6-0.6-2.8-1.7-3.4-3.1c-0.6,1.6-1.9,2.9-3.6,3.5l-0.7-1c2.1-0.8,3.6-2.6,3.6-4.6v-0.6
				h-3.1v-1h7.5v1h-3.1v0.6c0,1.8,1.3,3.6,3.5,4.2L1129.3,1472.4z M1123.8,1473.7h9.4v4.9h-1.2v-3.8h-8v-1.1H1123.8z M1133.2,1464.6
				v8.4h-1.2v-3.7h-2.8v-1h2.8v-3.7L1133.2,1464.6L1133.2,1464.6z"/>
			<path class="st4" d="M1148.8,1471.5v1H1136v-1h3.1v-2c-1.1-0.4-1.7-1.1-1.7-2.1c0-1.7,1.9-2.6,4.9-2.6s4.9,1,4.9,2.6
				c0,0.9-0.7,1.7-1.7,2.1v2H1148.8z M1147.2,1476.1c0,1.6-1.8,2.5-4.8,2.5s-4.8-0.9-4.8-2.5s1.8-2.5,4.8-2.5
				C1145.4,1473.6,1147.2,1474.5,1147.2,1476.1z M1142.4,1469c2.2,0,3.6-0.6,3.6-1.6s-1.3-1.6-3.6-1.6s-3.6,0.6-3.6,1.6
				C1138.7,1468.4,1140.2,1469,1142.4,1469z M1145.9,1476.1c0-1-1.3-1.5-3.5-1.5s-3.5,0.6-3.5,1.5s1.3,1.5,3.5,1.5
				C1144.5,1477.5,1145.9,1477,1145.9,1476.1z M1140.4,1471.5h3.9v-1.7c-0.6,0.1-1.2,0.1-2,0.1c-0.7,0-1.3-0.1-1.9-0.1V1471.5z"/>
			<path class="st4" d="M1166.6,1471v1H1154v-1h5.1v-2.7h1.2v2.7H1166.6z M1165.1,1476c0,1.6-1.9,2.6-4.9,2.6s-4.9-1-4.9-2.6
				c0-1.7,1.9-2.6,4.9-2.6S1165.1,1474.4,1165.1,1476z M1163.8,1466.2h-8.3v-1h9.6v1.2c0,1.1,0,2.2-0.4,3.7l-1.2-0.1
				c0.3-1.5,0.3-2.5,0.3-3.6V1466.2z M1163.9,1476c0-1-1.5-1.6-3.6-1.6c-2.2,0-3.6,0.6-3.6,1.6s1.5,1.6,3.6,1.6
				S1163.9,1477,1163.9,1476z"/>
			<path class="st4" d="M1175.9,1472.4c-1.6-0.6-2.8-1.7-3.4-3.1c-0.6,1.7-1.9,2.9-3.6,3.6l-0.7-1c2.1-0.8,3.6-2.7,3.6-4.7v-0.4
				h-3.1v-1h7.5v1h-3.1v0.4c0,1.8,1.3,3.6,3.5,4.2L1175.9,1472.4z M1180,1476c0,1.7-1.8,2.6-4.7,2.6c-2.9,0-4.7-1-4.7-2.6
				s1.8-2.6,4.7-2.6S1180,1474.3,1180,1476z M1178.6,1476c0-1-1.2-1.7-3.4-1.7c-2.1,0-3.4,0.6-3.4,1.7s1.2,1.6,3.4,1.6
				C1177.4,1477.5,1178.6,1477,1178.6,1476z M1178.6,1468.1v-3.6h1.3v8.4h-1.3v-3.7h-2.8v-1h2.8V1468.1z"/>
			<path class="st4" d="M1193.3,1471.3h-6.5v-6.1h1.2v2h4v-2h1.2L1193.3,1471.3L1193.3,1471.3z M1192,1468.1h-4v2.1h4V1468.1z
				 M1189.5,1477.4h8.2v1h-9.4v-3.5h7.6v-1.5h-7.6v-1h8.9v3.5h-7.6L1189.5,1477.4L1189.5,1477.4z M1199.2,1467.6v1.1h-2.1v3.1h-1.2
				v-7.3h1.2v3h2.1V1467.6z"/>
			<path class="st4" d="M1207.7,1470.6v1.8h4.1v3.4h-8.4v1.6h8.7v1h-9.9v-3.5h8.3v-1.5h-8.4v-1h4.2v-1.8h-5.7v-1h9.5
				c0.3-1.5,0.3-2.6,0.3-3.5h-8.2v-1h9.5v0.9c0,0.9,0,2.1-0.3,3.6h1.9v1H1207.7z"/>
		</g>
		<g class="st2">
			<path class="st4" d="M1079.7,1493.1c0,2.5,1.6,5,3.6,6l-0.8,1c-1.5-0.8-2.8-2.5-3.4-4.4c-0.6,2-1.9,3.8-3.5,4.7l-0.8-1
				c2-1,3.6-3.7,3.6-6.3v-2.6h1.2v2.6H1079.7z M1088.1,1496.1h-2.3v7.3h-1.2v-14.1h1.2v5.7h2.3V1496.1z"/>
			<path class="st4" d="M1100.9,1489.4v7.5h-1.3v-3.1h-2.8c-0.2,1.7-1.7,2.8-3.6,2.8c-2.1,0-3.6-1.3-3.6-3.2c0-1.9,1.6-3.2,3.6-3.2
				c1.9,0,3.4,1.1,3.6,2.7h2.9v-3.4L1100.9,1489.4L1100.9,1489.4z M1095.6,1493.3c0-1.2-1-2.1-2.3-2.1s-2.3,0.9-2.3,2.1
				s1,2.2,2.3,2.2S1095.6,1494.5,1095.6,1493.3z M1099.6,1497.5h1.2v5.6h-8.9v-5.6h1.2v1.8h6.5L1099.6,1497.5L1099.6,1497.5z
				 M1099.6,1500.3h-6.5v1.8h6.5V1500.3z"/>
			<path class="st4" d="M1111.2,1497.1c-1.6-0.6-2.8-1.7-3.4-3c-0.6,1.6-1.9,2.8-3.6,3.5l-0.7-1c2.1-0.8,3.6-2.6,3.6-4.6v-0.6h-3.1
				v-1h7.5v1h-3.1v0.6c0,1.8,1.3,3.5,3.4,4.1L1111.2,1497.1z M1114.8,1500.8c0,1.7-1.8,2.6-4.6,2.6c-2.9,0-4.6-1-4.6-2.6
				c0-1.7,1.8-2.6,4.6-2.6C1113,1498.2,1114.8,1499.1,1114.8,1500.8z M1113.5,1500.8c0-1-1.2-1.6-3.4-1.6c-2.1,0-3.4,0.6-3.4,1.6
				s1.2,1.6,3.4,1.6C1112.2,1502.3,1113.5,1501.8,1113.5,1500.8z M1116.7,1493v1.1h-2.1v3.8h-1.2v-8.5h1.2v3.6H1116.7z"/>
			<path class="st4" d="M1125.2,1496.1h-6.4v-6.1h1.2v2h3.8v-2h1.2v1.3h3.2v-2h1.2v7.4h-1.2v-1.8h-3.2v1.2H1125.2z M1123.8,1493
				h-3.8v2.1h3.8V1493z M1130.2,1502.2v1h-9.5v-3.5h7.7v-1.3h-7.8v-1h9.1v3.4h-7.7v1.5L1130.2,1502.2L1130.2,1502.2z M1125.2,1492.4
				v1.6h3.2v-1.6H1125.2z"/>
			<path class="st4" d="M1143.1,1490.3c0,3.6-2.5,6-6.6,7.3l-0.4-1c3.5-0.9,5.5-2.8,5.7-5.1h-5.1v-1h6.5L1143.1,1490.3
				L1143.1,1490.3z M1138,1498h8.8v5.3h-8.8V1498z M1139.4,1502.1h6.3v-3.1h-6.3V1502.1z M1149,1493.9h-2.1v3.5h-1.2v-7.9h1.2v3.5
				h2.1V1493.9z"/>
			<path class="st4" d="M1157.4,1497.4v1.6h4.1v4.2h-1.2v-3.2h-8.4v-1h4.4v-1.6h-5.7v-1h12.7v1H1157.4z M1151.2,1494.6
				c2.7-0.2,4.8-1.3,4.9-2.9h-4.4v-1h4.4v-1.5h1.2v1.5h4.4v1h-4.4c0.1,1.6,2.2,2.7,4.9,2.9l-0.4,1c-2.3-0.2-4.4-1.1-5.1-2.5
				c-0.9,1.5-2.9,2.2-5.3,2.5L1151.2,1494.6z"/>
			<path class="st4" d="M1181.1,1496.4v1h-12.7v-1h5.7v-1.8h-4.1v-4.8h9.4v4.8h-4v1.8H1181.1z M1169.8,1499h9.7v4.5h-1.2v-3.5h-8.5
				V1499z M1171.2,1493.6h6.9v-2.7h-6.9V1493.6z"/>
			<path class="st4" d="M1195.5,1500.7v1h-12.7v-1h3.6v-3.4h-2.3v-1h2.1v-4.6h-2.1v-1h10.4v1h-2.1v4.6h2.1v1h-2.3v3.4H1195.5z
				 M1187.3,1496.3h3.5v-4.6h-3.5V1496.3z M1187.6,1500.7h3v-3.4h-3V1500.7z"/>
			<path class="st4" d="M1208.3,1495.3c0,3-1.5,4.9-3.6,4.9s-3.6-1.9-3.6-4.9s1.5-4.9,3.6-4.9S1208.3,1492.3,1208.3,1495.3z
				 M1202.3,1495.3c0,2.2,1,3.8,2.3,3.8s2.3-1.5,2.3-3.8c0-2.2-1-3.7-2.3-3.7C1203.3,1491.6,1202.3,1493.1,1202.3,1495.3z
				 M1212.2,1489.4v14.1h-1.2v-14.1H1212.2z"/>
			<path class="st4" d="M1222.1,1492.1h-7.2v-1h2.9v-1.6h1.2v1.6h2.9v1H1222.1z M1218.5,1497.5c-1.8,0-3-0.9-3-2.5
				c0-1.5,1.2-2.3,3-2.3s3,1,3,2.3C1221.6,1496.6,1220.3,1497.5,1218.5,1497.5z M1218.5,1496.6c1.1,0,1.9-0.6,1.9-1.5
				s-0.8-1.5-1.9-1.5s-1.9,0.6-1.9,1.5C1216.7,1496.1,1217.4,1496.6,1218.5,1496.6z M1226.9,1500.9c0,1.6-1.8,2.5-4.7,2.5
				c-2.9,0-4.7-0.9-4.7-2.5s1.8-2.5,4.7-2.5C1225.2,1498.4,1226.9,1499.3,1226.9,1500.9z M1225.7,1500.9c0-0.9-1.2-1.5-3.5-1.5
				c-2.1,0-3.5,0.6-3.5,1.5s1.2,1.5,3.5,1.5C1224.4,1502.3,1225.7,1501.9,1225.7,1500.9z M1223.9,1497.8h-1.2v-8.2h1.2v3.6h1.8v-3.8
				h1.2v8.9h-1.2v-4h-1.8V1497.8z"/>
		</g>
		<g class="st2">
			<path class="st4" d="M1082.7,1522.1c-1.6-0.6-2.8-1.9-3.5-3.5c-0.6,1.7-1.9,3-3.5,3.8l-0.7-1c2.1-0.8,3.6-2.8,3.6-5v-1.5h1.2v1.5
				c0,2.1,1.5,4,3.5,4.8L1082.7,1522.1z M1086.8,1526.8v1h-9.5v-4.4h1.2v3.4H1086.8z M1086.5,1524.5h-1.2v-10.3h1.2V1524.5z"/>
			<path class="st4" d="M1096.7,1515.7c0,4-1.9,7.6-6.5,9.9l-0.7-1c3.8-1.8,5.7-4.5,5.9-7.8h-5.3v-1L1096.7,1515.7L1096.7,1515.7
				L1096.7,1515.7z M1100.8,1514.2v14.1h-1.2v-14.1H1100.8z"/>
			<path class="st4" d="M1110.7,1521v1.3h4.1v3.2h-8.3v1.3h8.7v1h-9.9v-3.4h8.3v-1.2h-8.3v-1h4.1v-1.3h-5.7v-1h12.7v1L1110.7,1521
				L1110.7,1521z M1115.4,1519.1c-2.2-0.3-4.4-1.2-5.3-2.8c-0.9,1.5-3,2.5-5.3,2.8l-0.4-1c2.6-0.3,5-1.7,5-3.4v-0.6h1.3v0.6
				c0,1.7,2.5,3.1,5,3.4L1115.4,1519.1z"/>
			<path class="st4" d="M1129.3,1522c-1.6-0.6-2.8-1.7-3.4-3.1c-0.6,1.6-1.9,2.9-3.6,3.5l-0.7-1c2.1-0.8,3.6-2.6,3.6-4.6v-0.6h-3.1
				v-1h7.5v1h-3.1v0.6c0,1.8,1.3,3.6,3.5,4.2L1129.3,1522z M1123.8,1523.4h9.4v4.9h-1.2v-3.8h-8v-1.1H1123.8z M1133.2,1514.2v8.4
				h-1.2v-3.7h-2.8v-1h2.8v-3.7L1133.2,1514.2L1133.2,1514.2z"/>
			<path class="st4" d="M1148.8,1521.1v1H1136v-1h3.1v-2c-1.1-0.4-1.7-1.1-1.7-2.1c0-1.7,1.9-2.6,4.9-2.6s4.9,1,4.9,2.6
				c0,0.9-0.7,1.7-1.7,2.1v2H1148.8z M1147.2,1525.7c0,1.6-1.8,2.5-4.8,2.5s-4.8-0.9-4.8-2.5s1.8-2.5,4.8-2.5
				C1145.4,1523.3,1147.2,1524.2,1147.2,1525.7z M1142.4,1518.7c2.2,0,3.6-0.6,3.6-1.6s-1.3-1.6-3.6-1.6s-3.6,0.6-3.6,1.6
				C1138.7,1518,1140.2,1518.7,1142.4,1518.7z M1145.9,1525.7c0-1-1.3-1.5-3.5-1.5s-3.5,0.6-3.5,1.5s1.3,1.5,3.5,1.5
				C1144.5,1527.2,1145.9,1526.6,1145.9,1525.7z M1140.4,1521.1h3.9v-1.7c-0.6,0.1-1.2,0.1-2,0.1c-0.7,0-1.3-0.1-1.9-0.1V1521.1z"/>
			<path class="st4" d="M1161.2,1520.8h-6.6v-5.7h6.6V1520.8z M1161.6,1524.2c0,1.3,2.2,2.7,4.6,3l-0.4,1c-2.1-0.3-4-1.2-4.8-2.6
				c-0.9,1.3-2.8,2.2-4.9,2.6l-0.4-1c2.3-0.3,4.6-1.6,4.7-3h-4.1v-1h4.1v-1.3h1.3v1.3h4.1v1H1161.6z M1160,1516.1h-4v3.7h4V1516.1z
				 M1165.4,1522.3h-1.2v-8h1.2V1522.3z"/>
			<path class="st4" d="M1177.8,1516c0,3.6-1.2,6.9-5.3,9.2l-0.8-0.9c3.2-1.8,4.6-4.4,4.7-7.3h-4.2v-1L1177.8,1516L1177.8,1516z
				 M1183.8,1514.2v14.1h-1.2v-7.4h-1.9v6.6h-1.2v-13h1.2v5.3h1.9v-5.7L1183.8,1514.2L1183.8,1514.2z"/>
			<path class="st4" d="M1193.3,1520.9h-6.5v-6.1h1.2v2h4v-2h1.2L1193.3,1520.9L1193.3,1520.9z M1192,1517.8h-4v2.1h4V1517.8z
				 M1189.5,1527.1h8.2v1h-9.4v-3.5h7.6v-1.5h-7.6v-1h8.9v3.5h-7.6L1189.5,1527.1L1189.5,1527.1z M1199.2,1517.2v1.1h-2.1v3.1h-1.2
				v-7.3h1.2v3h2.1V1517.2z"/>
		</g>
		<g class="st2">
			<path class="st4" d="M1087.6,1546.5v1H1075v-1h5.7v-1.5c-2.7-0.1-4.4-1.1-4.4-2.8c0-1.8,1.9-2.8,4.9-2.8s4.9,1,4.9,2.8
				c0,1.6-1.7,2.7-4.2,2.8v1.5H1087.6z M1077.8,1551.7h8.4v1h-9.6v-4h1.2V1551.7z M1081.3,1544c2.2,0,3.6-0.7,3.6-1.8
				s-1.5-1.8-3.6-1.8c-2.2,0-3.6,0.7-3.6,1.8S1079,1544,1081.3,1544z"/>
			<path class="st4" d="M1097.2,1545.9c-1.6-0.6-2.9-1.8-3.6-3.2c-0.6,1.6-1.9,2.9-3.6,3.5l-0.7-1c2.1-0.8,3.6-2.6,3.6-4.7v-1.1h1.2
				v1.1c0,1.9,1.5,3.7,3.6,4.4L1097.2,1545.9z M1101.4,1551.9v1h-9.5v-3.5h7.8v-1.3h-7.8v-1h9.1v3.4h-7.8v1.5L1101.4,1551.9
				L1101.4,1551.9z M1100.8,1546.3h-1.2v-7.3h1.2V1546.3z"/>
			<path class="st4" d="M1110.9,1540.5c0,4-1.8,7.6-6.4,9.8l-0.7-1c3.6-1.8,5.5-4.5,5.8-7.8h-5.1v-1.1L1110.9,1540.5L1110.9,1540.5
				L1110.9,1540.5z M1116.8,1545.7h-2.2v7.3h-1.2v-14.1h1.2v5.7h2.2V1545.7z"/>
			<path class="st4" d="M1130.9,1550.1v1.1h-12.7v-1.1H1130.9z M1129.7,1547.1c-2.1-0.4-4.4-2-5.3-4c-0.9,2-3.1,3.6-5.3,4l-0.6-1.1
				c2.5-0.4,5.1-2.6,5.1-5v-1.1h1.3v1.1c0,2.3,2.7,4.5,5.1,5L1129.7,1547.1z"/>
			<path class="st4" d="M1140.7,1540.4h1.2v9.2h-5.4v-9.2h1.2v3.5h2.9L1140.7,1540.4L1140.7,1540.4z M1140.7,1544.7h-2.9v3.7h2.9
				V1544.7z M1148,1539v14.1h-1.2v-7.5h-1.9v6.7h-1.2v-13.1h1.2v5.3h1.9v-5.6L1148,1539L1148,1539z"/>
			<path class="st4" d="M1157.4,1546.2v1.3h4v3h-8.3v1.3h8.7v1h-9.9v-3.2h8.3v-1.2h-8.3v-1h4.1v-1.3h-5.7v-1h12.6v1h-5.6v0.1H1157.4
				z M1151.1,1543.6c2.6-0.2,4.7-1,4.9-2.5h-4.4v-1h4.5v-1.3h1.2v1.3h4.4v1h-4.4c0.2,1.3,2.3,2.2,4.9,2.5l-0.3,1
				c-2.3-0.2-4.5-0.9-5.3-2.2c-0.9,1.3-2.9,2-5.3,2.2L1151.1,1543.6z"/>
			<path class="st4" d="M1173.3,1546.2c-2.2,0.3-4,0.4-6.7,0.4h-1.1v-4h5v-1.8h-5v-1h6.4v3.8h-5v1.9c2.5,0,4.2-0.1,6.4-0.4
				L1173.3,1546.2z M1175.8,1550.4c0,1.7-1.8,2.6-4.6,2.6c-2.9,0-4.6-0.9-4.6-2.6s1.8-2.6,4.6-2.6
				C1174.2,1547.9,1175.8,1548.9,1175.8,1550.4z M1174.6,1550.4c0-1-1.2-1.6-3.4-1.6s-3.4,0.6-3.4,1.6s1.2,1.6,3.4,1.6
				S1174.6,1551.4,1174.6,1550.4z M1175.7,1542.3v1.9h2.1v1.1h-2.1v2.2h-1.2v-8.5h1.2v2.1h2.1v1.1h-2.1V1542.3z"/>
			<path class="st4" d="M1190.3,1547.1c-1.6-0.6-2.8-1.8-3.5-3.2c-0.6,1.7-1.8,2.9-3.5,3.6l-0.7-1c2.1-0.8,3.5-2.7,3.5-4.8v-1.8h1.2
				v1.8c0,1.9,1.3,3.7,3.5,4.5L1190.3,1547.1z M1186.2,1551.7h8v1h-9.3v-4.4h1.2L1186.2,1551.7L1186.2,1551.7z M1195.7,1543.3v1.1
				h-2.1v5h-1.2V1539h1.2v4.4L1195.7,1543.3L1195.7,1543.3z"/>
			<path class="st4" d="M1204.8,1546.9c-1.6-0.6-2.8-1.7-3.4-3.1c-0.6,1.7-1.9,2.9-3.6,3.6l-0.7-1c2.1-0.8,3.6-2.7,3.6-4.7v-0.4
				h-3.1v-1h7.5v1h-3.1v0.4c0,1.8,1.3,3.6,3.5,4.2L1204.8,1546.9z M1208.7,1550.4c0,1.7-1.8,2.6-4.7,2.6s-4.7-1-4.7-2.6
				s1.8-2.6,4.7-2.6C1206.9,1547.9,1208.7,1548.8,1208.7,1550.4z M1207.5,1550.4c0-1-1.2-1.7-3.4-1.7c-2.1,0-3.4,0.6-3.4,1.7
				s1.2,1.6,3.4,1.6C1206.2,1552,1207.5,1551.4,1207.5,1550.4z M1207.4,1542.6v-3.6h1.3v8.4h-1.3v-3.7h-2.8v-1h2.8V1542.6z"/>
			<path class="st4" d="M1222.4,1540.5c0,4-1.9,7.6-6.5,9.9l-0.7-1c3.8-1.8,5.7-4.5,5.9-7.8h-5.3v-1L1222.4,1540.5L1222.4,1540.5
				L1222.4,1540.5z M1226.6,1539v14.1h-1.2V1539H1226.6z"/>
			<path class="st4" d="M1242.1,1546.2v1h-5.6v2.8h-1.2v-2.8h-5.8v-1H1242.1z M1230.2,1544.2c2.5-0.3,4.8-1.7,4.8-3.5l0,0h-4.4v-1
				h10.4v1h-4.4l0,0c0,1.7,2.2,3.1,4.7,3.5l-0.4,1c-2.2-0.3-4.4-1.5-5.1-3.1c-0.8,1.7-2.8,2.8-5.1,3.1L1230.2,1544.2z
				 M1232.3,1551.7h8.4v1h-9.7v-4h1.2L1232.3,1551.7L1232.3,1551.7z"/>
			<path class="st4" d="M1247.9,1540.4h6.5v9.1h-6.5V1540.4z M1249.2,1548.4h3.9v-7h-3.9V1548.4z M1260.5,1545.7h-2.3v7.4h-1.2V1539
				h1.2v5.6h2.3V1545.7z"/>
			<path class="st4" d="M1269.3,1547.1c-1.8,0.3-3.2,0.3-5.9,0.3h-1v-4.4h4.7v-2h-4.8v-1h6v4.1h-4.8v2.3c2.5,0,3.9-0.1,5.6-0.3
				L1269.3,1547.1z M1273.8,1551.7v1h-9.5v-4.1h1.2v3L1273.8,1551.7L1273.8,1551.7z M1272,1545.5h-2.7v-1h2.7v-2.1h-2.7v-1h2.7v-2.3
				h1.3v10.3h-1.3V1545.5z"/>
		</g>
	</g>
	<g>
		<g class="st2">
			<path class="st4" d="M1320.6,1447.9c0-1.2,0.9-2.1,2-2.1c1,0,2,0.9,2,2.1s-0.9,2.1-2,2.1S1320.6,1449.1,1320.6,1447.9z"/>
		</g>
		<g class="st2">
			<path class="st4" d="M1320.6,1472.7c0-1.2,0.9-2.1,2-2.1c1,0,2,0.9,2,2.1s-0.9,2.1-2,2.1S1320.6,1473.9,1320.6,1472.7z"/>
		</g>
		<g class="st2">
			<path class="st4" d="M1320.6,1522.4c0-1.2,0.9-2.1,2-2.1c1,0,2,0.9,2,2.1s-0.9,2.1-2,2.1S1320.6,1523.6,1320.6,1522.4z"/>
		</g>
		<g class="st2">
			<path class="st4" d="M1344.6,1447.1v1H1332v-1h5.7v-1.5c-2.7-0.1-4.4-1.1-4.4-2.8c0-1.8,1.9-2.8,4.9-2.8s4.9,1,4.9,2.8
				c0,1.6-1.7,2.7-4.2,2.8v1.5H1344.6z M1334.8,1452.2h8.4v1h-9.6v-4h1.2V1452.2z M1338.3,1444.5c2.2,0,3.6-0.7,3.6-1.8
				s-1.5-1.8-3.6-1.8c-2.2,0-3.6,0.7-3.6,1.8S1336,1444.5,1338.3,1444.5z"/>
			<path class="st4" d="M1354.2,1446.4c-1.6-0.6-2.9-1.8-3.6-3.2c-0.6,1.6-1.9,2.9-3.6,3.5l-0.7-1c2.1-0.8,3.6-2.6,3.6-4.7v-1.1h1.2
				v1.1c0,1.9,1.5,3.7,3.6,4.4L1354.2,1446.4z M1358.4,1452.5v1h-9.5v-3.5h7.8v-1.3h-7.8v-1h9.1v3.4h-7.8v1.5L1358.4,1452.5
				L1358.4,1452.5z M1357.8,1446.9h-1.2v-7.3h1.2V1446.9z"/>
			<path class="st4" d="M1367.9,1441.1c0,4-1.8,7.6-6.4,9.8l-0.7-1c3.6-1.8,5.5-4.5,5.8-7.8h-5.1v-1.1L1367.9,1441.1L1367.9,1441.1
				L1367.9,1441.1z M1373.8,1446.3h-2.2v7.3h-1.2v-14.1h1.2v5.7h2.2V1446.3z"/>
			<path class="st4" d="M1387.9,1450.7v1.1h-12.7v-1.1H1387.9z M1386.7,1447.7c-2.1-0.4-4.4-2-5.3-4c-0.9,2-3.1,3.6-5.3,4l-0.6-1.1
				c2.5-0.4,5.1-2.6,5.1-5v-1.1h1.3v1.1c0,2.3,2.7,4.5,5.1,5L1386.7,1447.7z"/>
			<path class="st4" d="M1400.1,1440.5c0,3.6-2.5,6-6.6,7.3l-0.4-1c3.5-0.9,5.5-2.8,5.7-5.1h-5.1v-1h6.5L1400.1,1440.5
				L1400.1,1440.5z M1395,1448.2h8.8v5.3h-8.8V1448.2z M1396.4,1452.4h6.3v-3.1h-6.3V1452.4z M1406,1444.1h-2.1v3.5h-1.2v-7.9h1.2
				v3.5h2.1V1444.1z"/>
			<path class="st4" d="M1414.4,1447.7v1.6h4.1v4.2h-1.2v-3.2h-8.4v-1h4.4v-1.6h-5.7v-1h12.7v1H1414.4z M1408.2,1444.9
				c2.7-0.2,4.8-1.3,4.9-2.9h-4.4v-1h4.4v-1.5h1.2v1.5h4.4v1h-4.4c0.1,1.6,2.2,2.7,4.9,2.9l-0.4,1c-2.3-0.2-4.4-1.1-5.1-2.5
				c-0.9,1.5-2.9,2.2-5.3,2.5L1408.2,1444.9z"/>
			<path class="st4" d="M1432.7,1441.1c0,4-1.9,7.6-6.5,9.9l-0.7-1c3.8-1.8,5.7-4.5,5.9-7.8h-5.3v-1L1432.7,1441.1L1432.7,1441.1
				L1432.7,1441.1z M1436.9,1439.6v14.1h-1.2v-14.1H1436.9z"/>
			<path class="st4" d="M1446.7,1446.4v1.3h4.1v3.2h-8.3v1.3h8.7v1h-9.9v-3.4h8.3v-1.2h-8.3v-1h4.1v-1.3h-5.7v-1h12.7v1
				L1446.7,1446.4L1446.7,1446.4z M1451.3,1444.5c-2.2-0.3-4.4-1.2-5.3-2.8c-0.9,1.5-3,2.5-5.3,2.8l-0.4-1c2.6-0.3,5-1.7,5-3.4v-0.6
				h1.3v0.6c0,1.7,2.5,3.1,5,3.4L1451.3,1444.5z"/>
			<path class="st4" d="M1456.6,1446.8c0-0.7,0.4-1.1,1-1.1s1,0.4,1,1.1s-0.4,1.1-1,1.1S1456.6,1447.4,1456.6,1446.8z"/>
			<path class="st4" d="M1470.5,1446.5c-1.6-0.6-2.8-1.7-3.4-3.1c-0.6,1.6-1.9,2.8-3.5,3.5l-0.7-1c2.1-0.7,3.5-2.5,3.5-4.5v-1.3h1.2
				v1.3c0,1.8,1.5,3.6,3.5,4.2L1470.5,1446.5z M1475,1452.5v1h-9.5v-3.5h7.7v-1.3h-7.8v-1h9.1v3.4h-7.7v1.5L1475,1452.5L1475,1452.5
				z M1473.2,1443.2h-3v-1h3v-2.6h1.3v7.3h-1.3V1443.2z"/>
			<path class="st4" d="M1479.3,1440.7v3.7h4v-3.7h1.2v9.5h-6.6v-9.5H1479.3z M1479.3,1449.2h4v-3.7h-4V1449.2z M1488.8,1439.6v14.1
				h-1.2v-14.1H1488.8z"/>
			<path class="st4" d="M1502.3,1446.3h-6.5v-6.1h1.2v2h4v-2h1.2L1502.3,1446.3L1502.3,1446.3z M1501,1443.2h-4v2.1h4V1443.2z
				 M1498.5,1452.5h8.2v1h-9.4v-3.5h7.6v-1.5h-7.6v-1h8.9v3.5h-7.6L1498.5,1452.5L1498.5,1452.5z M1508.2,1442.6v1.1h-2.1v3.1h-1.2
				v-7.3h1.2v3h2.1V1442.6z"/>
			<path class="st4" d="M1516.6,1445.6v1.8h4.1v3.4h-8.4v1.6h8.7v1h-9.9v-3.5h8.3v-1.5h-8.4v-1h4.2v-1.8h-5.7v-1h9.5
				c0.3-1.5,0.3-2.6,0.3-3.5h-8.2v-1h9.5v0.9c0,0.9,0,2.1-0.3,3.6h1.9v1H1516.6z"/>
		</g>
		<g class="st2">
			<path class="st4" d="M1339.7,1472.4c-1.6-0.6-2.8-1.9-3.5-3.5c-0.6,1.7-1.9,3-3.5,3.8l-0.7-1c2.1-0.8,3.6-2.8,3.6-5v-1.5h1.2v1.5
				c0,2.1,1.5,4,3.5,4.8L1339.7,1472.4z M1343.8,1477.1v1h-9.5v-4.4h1.2v3.4H1343.8z M1343.5,1474.7h-1.2v-10.3h1.2V1474.7z"/>
			<path class="st4" d="M1359,1472.5h-3.4v5.9h-1.2v-5.9h-3.6v5.9h-1.2v-5.9h-3.2v-1h9.3c0.4-2.2,0.4-3.8,0.4-5h-8v-1.1h9.4v1
				c0,1.2,0,2.9-0.4,5.1h2.1v1H1359z"/>
			<path class="st4" d="M1376.9,1475.6v1.1h-12.7v-1.1H1376.9z M1367.5,1466.9h-2.1v-1h10.4v1h-2.1v4.9h2.1v1h-10.4v-1h2.1V1466.9z
				 M1372.4,1466.9h-3.5v4.9h3.5V1466.9z"/>
			<path class="st4" d="M1391.4,1475.6v1h-12.7v-1h5.7v-2.7h-4.1v-4.4h8.4v-2.2h-8.4v-1h9.6v4.2h-8.3v2.2h8.6v1h-4.5v2.7h5.7
				L1391.4,1475.6L1391.4,1475.6z"/>
			<path class="st4" d="M1399.3,1472.4c-1.2-0.6-2.2-1.6-2.7-2.8c-0.4,1.3-1.5,2.6-2.8,3.1l-0.7-1c1.8-0.8,2.8-2.6,2.8-4.2v-0.8
				h-2.6v-1h6.3v1h-2.5v0.8c0,1.6,1,3.2,2.8,3.9L1399.3,1472.4z M1395.5,1473.6h9.4v4.8h-1.2v-3.8h-8.2L1395.5,1473.6L1395.5,1473.6
				z M1401,1468v-3.4h1.2v8.2h-1.2v-3.8h-2.1v-1L1401,1468L1401,1468z M1404.9,1464.4v8.6h-1.2v-8.6H1404.9z"/>
			<path class="st4" d="M1420.2,1475.6v1h-12.7v-1H1420.2z M1418.7,1473h-9.6v-7.4h9.5v1h-8.2v2.1h7.9v1h-7.9v2.2h8.4v1h-0.1V1473z"
				/>
			<path class="st4" d="M1421.9,1474.3c2.6,0,6,0,9.2-0.4l0.1,1c-3.1,0.6-6.6,0.6-9.1,0.6L1421.9,1474.3z M1430.1,1468.8
				c0,2-1.6,3.4-3.8,3.4c-2.1,0-3.8-1.3-3.8-3.4s1.6-3.4,3.8-3.4S1430.1,1466.8,1430.1,1468.8z M1423.9,1468.8c0,1.3,1,2.2,2.5,2.2
				s2.5-0.9,2.5-2.2s-1-2.2-2.5-2.2C1424.9,1466.6,1423.9,1467.5,1423.9,1468.8z M1433.3,1464.4v14.1h-1.2v-14.1H1433.3z"/>
			<path class="st4" d="M1452.4,1471.9v1h-12.6v-1h5.7v-1.5c-2.7-0.1-4.4-1.1-4.4-2.8c0-1.8,1.9-2.8,4.9-2.8s4.9,1,4.9,2.8
				c0,1.6-1.7,2.7-4.2,2.8v1.5H1452.4z M1442.7,1477.1h8.4v1h-9.6v-4h1.2V1477.1z M1446.1,1469.4c2.2,0,3.6-0.7,3.6-1.8
				s-1.5-1.8-3.6-1.8c-2.2,0-3.6,0.7-3.6,1.8S1443.9,1469.4,1446.1,1469.4z"/>
			<path class="st4" d="M1462,1471.3c-1.6-0.6-2.9-1.8-3.6-3.2c-0.6,1.6-1.9,2.9-3.6,3.5l-0.7-1c2.1-0.8,3.6-2.6,3.6-4.7v-1.1h1.2
				v1.1c0,1.9,1.5,3.7,3.6,4.4L1462,1471.3z M1466.1,1477.3v1h-9.5v-3.5h7.8v-1.3h-7.8v-1h9.1v3.4h-7.8v1.5L1466.1,1477.3
				L1466.1,1477.3z M1465.6,1471.7h-1.2v-7.3h1.2V1471.7z"/>
			<path class="st4" d="M1475.6,1465.9c0,4-1.8,7.6-6.4,9.8l-0.7-1c3.6-1.8,5.5-4.5,5.8-7.8h-5.1v-1.1L1475.6,1465.9L1475.6,1465.9
				L1475.6,1465.9z M1481.6,1471.1h-2.2v7.3h-1.2v-14.1h1.2v5.7h2.2V1471.1z"/>
			<path class="st4" d="M1495.7,1475.5v1.1H1483v-1.1H1495.7z M1494.4,1472.5c-2.1-0.4-4.4-2-5.3-4c-0.9,2-3.1,3.6-5.3,4l-0.6-1.1
				c2.5-0.4,5.1-2.6,5.1-5v-1.1h1.3v1.1c0,2.3,2.7,4.5,5.1,5L1494.4,1472.5z"/>
		</g>
		<g class="st2">
			<path class="st4" d="M1338.6,1495.5c-0.7,0.8-1.7,1.2-2.8,1.2c-2.1,0-3.6-1.3-3.6-3.4c0-2,1.6-3.4,3.6-3.4c1.2,0,2.2,0.4,2.8,1.1
				h3.6v-2h1.3v8.3h-1.3v-2h-3.6V1495.5z M1335.8,1495.6c1.3,0,2.3-0.9,2.3-2.2s-1-2.2-2.3-2.2s-2.3,0.9-2.3,2.2
				C1333.3,1494.7,1334.5,1495.6,1335.8,1495.6z M1343.5,1500.6c0,1.7-1.8,2.7-4.7,2.7c-2.9,0-4.7-1-4.7-2.7s1.8-2.7,4.7-2.7
				S1343.5,1498.9,1343.5,1500.6z M1342.3,1500.6c0-1.1-1.2-1.7-3.5-1.7c-2.1,0-3.4,0.7-3.4,1.7s1.2,1.7,3.4,1.7
				C1341.1,1502.2,1342.3,1501.7,1342.3,1500.6z M1339.2,1492.3c0.1,0.3,0.2,0.7,0.2,1.1c0,0.3-0.1,0.8-0.2,1.1h3v-2.2H1339.2z"/>
			<path class="st4" d="M1354.7,1491.8h-8.3v-1h3.5v-1.7h1.2v1.7h3.5v1H1354.7z M1350.6,1497.5c-2,0-3.4-1-3.4-2.5s1.3-2.5,3.4-2.5
				c2,0,3.4,1,3.4,2.5C1353.9,1496.5,1352.6,1497.5,1350.6,1497.5z M1357.4,1500.9c0,1.6-1.8,2.5-4.6,2.5s-4.6-0.9-4.6-2.5
				s1.8-2.5,4.6-2.5C1355.7,1498.4,1357.4,1499.3,1357.4,1500.9z M1350.6,1496.5c1.2,0,2.1-0.6,2.1-1.6c0-0.9-0.9-1.5-2.1-1.5
				s-2.1,0.6-2.1,1.5C1348.4,1496,1349.2,1496.5,1350.6,1496.5z M1356.1,1500.9c0-0.9-1.2-1.5-3.4-1.5c-2.1,0-3.4,0.6-3.4,1.5
				s1.2,1.5,3.4,1.5C1354.9,1502.3,1356.1,1501.8,1356.1,1500.9z M1357.3,1492.7v1.9h2v1.1h-2v2.6h-1.2v-9.1h1.2v2.5h2v1H1357.3z"/>
			<path class="st4" d="M1376.9,1496.6v1h-5.6v2.7h-1.2v-2.7h-5.8v-1H1376.9z M1367.1,1501.9h8.5v1h-9.7v-3.8h1.2V1501.9z
				 M1375.3,1495.3h-9.4v-5.6h1.2v1.8h6.8v-1.8h1.2v5.6H1375.3z M1374,1492.5h-6.8v1.8h6.8V1492.5z"/>
			<path class="st4" d="M1386.1,1497c-1.6-0.6-2.8-1.8-3.4-3.2c-0.6,1.7-1.8,2.9-3.5,3.6l-0.7-1c2.1-0.8,3.5-2.7,3.5-4.8v-1.5h1.2
				v1.6c0,1.9,1.3,3.7,3.5,4.5L1386.1,1497z M1380.8,1498.3h9.4v5h-1.3v-3.9h-8.2L1380.8,1498.3L1380.8,1498.3z M1390.2,1489.3v8.3
				h-1.3v-4.4h-3v-1h3v-2.9H1390.2z"/>
		</g>
		<g class="st2">
			<path class="st4" d="M1338.9,1520.8v2.6h4.1v4.7h-1.2v-3.7h-8.5v-1h4.4v-2.6h-5.7v-1h9.5c0.3-1.7,0.3-2.9,0.3-4h-8.2v-1h9.5v1
				c0,1,0,2.3-0.3,4h2v1H1338.9L1338.9,1520.8z"/>
			<path class="st4" d="M1348.3,1523.4c1.3,0,2.8-0.1,4.5-0.4l0.1,1.1c-1.9,0.3-3.5,0.4-5,0.4h-0.9v-8.7h1.2v7.6H1348.3z
				 M1358.3,1514.1v14.1h-1.2v-7.3h-2v6.6h-1.2v-13h1.2v5.4h2v-5.7L1358.3,1514.1L1358.3,1514.1z"/>
			<path class="st4" d="M1363.2,1521.3c0-0.7,0.4-1.1,1-1.1s1,0.4,1,1.1s-0.4,1.1-1,1.1S1363.2,1521.9,1363.2,1521.3z"/>
			<path class="st4" d="M1374.7,1523.9c1.3-0.1,2.8-0.2,4-0.3l0.1,1c-3.1,0.6-6.6,0.6-9.1,0.6l-0.1-1.1c1.1,0,2.5,0,3.8,0v-2.5
				c-1.8-0.2-3.1-1.5-3.1-3.2c0-2,1.6-3.2,3.7-3.2c2.2,0,3.8,1.3,3.8,3.2c0,1.8-1.2,3-3.1,3.2L1374.7,1523.9L1374.7,1523.9z
				 M1374,1520.5c1.5,0,2.6-0.9,2.6-2.2s-1-2.2-2.6-2.2c-1.5,0-2.5,0.9-2.5,2.2C1371.6,1519.6,1372.6,1520.5,1374,1520.5z
				 M1381,1514.1v14.1h-1.2v-14.1H1381z"/>
			<path class="st4" d="M1392.6,1523.9c1.3-0.1,2.8-0.2,4-0.3l0.1,1c-3.1,0.6-6.6,0.6-9.1,0.6l-0.1-1.1c1.1,0,2.5,0,3.8,0v-2.5
				c-1.8-0.2-3.1-1.5-3.1-3.2c0-2,1.6-3.2,3.7-3.2c2.2,0,3.8,1.3,3.8,3.2c0,1.8-1.2,3-3.1,3.2L1392.6,1523.9L1392.6,1523.9z
				 M1391.9,1520.5c1.5,0,2.6-0.9,2.6-2.2s-1-2.2-2.6-2.2c-1.5,0-2.5,0.9-2.5,2.2C1389.5,1519.6,1390.5,1520.5,1391.9,1520.5z
				 M1398.8,1514.1v14.1h-1.2v-14.1H1398.8z"/>
			<path class="st4" d="M1414.5,1523.4h-5.8v4.7h-1.2v-4.7h-5.7v-1h12.7V1523.4L1414.5,1523.4z M1412.9,1520.7h-9.5v-6h1.2v1.9h6.9
				v-1.9h1.2v6H1412.9z M1411.6,1517.6h-6.9v2h6.9V1517.6z"/>
			<path class="st4" d="M1423.3,1515c0,3.6-2.5,6-6.6,7.3l-0.4-1c3.5-0.9,5.5-2.8,5.7-5.1h-5.1v-1h6.5L1423.3,1515L1423.3,1515z
				 M1418.3,1522.7h8.8v5.3h-8.8V1522.7z M1419.5,1526.8h6.3v-3.1h-6.3V1526.8z M1429.1,1518.6h-2.1v3.5h-1.2v-7.9h1.2v3.5h2.1
				V1518.6z"/>
			<path class="st4" d="M1437.6,1522.1v1.6h4.1v4.2h-1.2v-3.2h-8.4v-1h4.4v-1.6h-5.7v-1h12.7v1H1437.6z M1431.4,1519.4
				c2.7-0.2,4.8-1.3,4.9-2.9h-4.4v-1h4.4v-1.5h1.2v1.5h4.4v1h-4.4c0.1,1.6,2.2,2.7,4.9,2.9l-0.4,1c-2.3-0.2-4.4-1.1-5.1-2.5
				c-0.9,1.5-2.9,2.2-5.3,2.5L1431.4,1519.4z"/>
			<path class="st4" d="M1449.7,1517.8c0,2.5,1.6,5,3.6,6l-0.8,1c-1.5-0.8-2.8-2.5-3.4-4.4c-0.6,2-1.9,3.8-3.5,4.7l-0.8-1
				c2-1,3.6-3.7,3.6-6.3v-2.6h1.2v2.6H1449.7z M1458.1,1520.8h-2.3v7.3h-1.2V1514h1.2v5.7h2.3V1520.8z"/>
			<path class="st4" d="M1471,1514.1v7.5h-1.3v-3.1h-2.8c-0.2,1.7-1.7,2.8-3.6,2.8c-2.1,0-3.6-1.3-3.6-3.2s1.6-3.2,3.6-3.2
				c1.9,0,3.4,1.1,3.6,2.7h2.9v-3.4L1471,1514.1L1471,1514.1z M1465.6,1518c0-1.2-1-2.1-2.3-2.1s-2.3,0.9-2.3,2.1s1,2.2,2.3,2.2
				S1465.6,1519.2,1465.6,1518z M1469.7,1522.3h1.2v5.6h-8.9v-5.6h1.2v1.8h6.5L1469.7,1522.3L1469.7,1522.3z M1469.7,1525.1h-6.5
				v1.8h6.5V1525.1z"/>
			<path class="st4" d="M1484.9,1521.8c-1.6-0.4-2.8-1.6-3.5-2.9c-0.6,1.5-1.9,2.6-3.6,3.1l-0.7-1c2.1-0.7,3.5-2.2,3.5-4.1v-0.2
				h-3.1v-1h3.1v-1.7h1.2v1.7h3.1v1h-3.1v0.2c0,1.7,1.3,3.2,3.5,3.9L1484.9,1521.8z M1479.4,1523h8.8v4.9h-8.8V1523z M1480.7,1526.8
				h6.3v-2.8h-6.3V1526.8z M1490.3,1518.7h-2.1v3.7h-1.2v-8.3h1.2v3.6h2.1V1518.7z"/>
			<path class="st4" d="M1503.3,1514.1v14.1h-1.2v-5.5h-3.5c-0.6,1.5-1.7,2.2-3,2.2c-2,0-3.5-1.9-3.5-4.9s1.5-4.9,3.5-4.9
				c1.3,0,2.3,0.8,2.9,2h3.6v-3.1h1.2V1514.1z M1497.8,1520c0-2.2-1-3.7-2.2-3.7c-1.3,0-2.2,1.5-2.2,3.7s0.9,3.8,2.2,3.8
				C1496.8,1523.8,1497.8,1522.4,1497.8,1520z M1502,1521.7v-3.4h-3.2c0.1,0.6,0.2,1.1,0.2,1.8c0,0.6-0.1,1.1-0.1,1.6H1502z"/>
			<path class="st4" d="M1518.8,1520.6v1h-12.7v-1H1518.8z M1509,1527h8.7v0.9h-10.1v-3.1h8.4v-1.2h-8.4v-0.9h9.6v3h-8.4v1.3
				L1509,1527L1509,1527z M1515.9,1515.3h-8.3v-0.9h9.5v2.9h-8.2v1.2h8.5v0.9h-9.7v-3h8.2V1515.3z"/>
		</g>
		<g class="st2">
			<path class="st4" d="M1344.6,1546.3v1h-12.7v-1h5.7v-1.3h-4v-5.7h9.5v1h-8.2v1.3h7.8v1h-7.8v1.3h8.3v1h-4.2v1.3L1344.6,1546.3
				L1344.6,1546.3z M1343.1,1550.7c0,1.5-1.8,2.2-4.8,2.2s-4.8-0.8-4.8-2.2c0-1.5,1.8-2.2,4.8-2.2S1343.1,1549.2,1343.1,1550.7z
				 M1341.8,1550.7c0-0.8-1.2-1.2-3.6-1.2c-2.2,0-3.6,0.4-3.6,1.2c0,0.9,1.2,1.2,3.6,1.2C1340.5,1552,1341.8,1551.6,1341.8,1550.7z"
				/>
			<path class="st4" d="M1354.7,1541.6h-8.3v-1h3.5v-1.7h1.2v1.7h3.5v1H1354.7z M1350.6,1547.6c-2,0-3.4-1-3.4-2.6s1.3-2.6,3.4-2.6
				c2,0,3.4,1,3.4,2.6S1352.5,1547.6,1350.6,1547.6z M1350.6,1546.6c1.2,0,2.1-0.7,2.1-1.6c0-1-0.9-1.6-2.1-1.6s-2.1,0.7-2.1,1.6
				S1349.2,1546.6,1350.6,1546.6z M1349.8,1551.6h8v1h-9.4v-4h1.2v3H1349.8z M1359.3,1543.5v1.1h-2.1v4.8h-1.2v-10.5h1.2v4.6H1359.3
				z"/>
			<path class="st4" d="M1376.9,1548.4h-5.7v4.5h-1.2v-4.5h-5.7v-1h12.7v1H1376.9z M1365.1,1545.3c2.6-0.3,4.9-1.9,4.9-3.6h-4.5v-1
				h4.5v-1.7h1.2v1.7h4.5v1h-4.5c0,1.7,2.3,3.2,4.9,3.6l-0.4,1c-2.1-0.3-4.1-1.5-5-2.9c-0.9,1.6-2.9,2.6-5.1,2.9L1365.1,1545.3z"/>
			<path class="st4" d="M1385.8,1540.4c0,4-1.8,7.6-6.4,9.8l-0.7-1c3.6-1.8,5.5-4.5,5.8-7.8h-5.1v-1.1L1385.8,1540.4L1385.8,1540.4
				L1385.8,1540.4z M1391.7,1545.6h-2.2v7.3h-1.2v-14.1h1.2v5.7h2.2V1545.6z"/>
			<path class="st4" d="M1403.7,1539.8c0,3.6-2.5,6-6.6,7.3l-0.4-1c3.5-0.9,5.5-2.8,5.7-5.1h-5.1v-1h6.5L1403.7,1539.8
				L1403.7,1539.8z M1398.6,1547.5h8.8v5.3h-8.8V1547.5z M1399.9,1551.7h6.3v-3.1h-6.3V1551.7z M1409.5,1543.4h-2.1v3.5h-1.2v-7.9
				h1.2v3.5h2.1V1543.4z"/>
			<path class="st4" d="M1418,1547v1.6h4.1v4.2h-1.2v-3.2h-8.4v-1h4.4v-1.6h-5.7v-1h12.7v1H1418z M1411.7,1544.2
				c2.7-0.2,4.8-1.3,4.9-2.9h-4.4v-1h4.4v-1.5h1.2v1.5h4.4v1h-4.4c0.1,1.6,2.2,2.7,4.9,2.9l-0.4,1c-2.3-0.2-4.4-1.1-5.1-2.5
				c-0.9,1.5-2.9,2.2-5.3,2.5L1411.7,1544.2z"/>
		</g>
	</g>
</g>
</svg>
