<?xml version="1.0" encoding="utf-8"?>
<!-- Generator: Adobe Illustrator 25.1.0, SVG Export Plug-In . SVG Version: 6.00 Build 0)  -->
<svg version="1.1" id="레이어_1" xmlns="http://www.w3.org/2000/svg" xmlns:xlink="http://www.w3.org/1999/xlink" x="0px"
	 y="0px" viewBox="0 0 335 379.9" style="enable-background:new 0 0 335 379.9;" xml:space="preserve">
<style type="text/css">
	.st0{enable-background:new    ;}
	.st1{fill:#3AA25C;}
	.st2{fill:#929397;}
	.st3{fill:#3E3E3E;}
	.st4{fill:#E2E2E2;}
	.st5{fill:#808080;}
	.st6{fill:#A3A3A3;}
	.st7{fill:#FFFFFF;}
	.st8{fill:none;stroke:#3AA25C;}
	.st9{opacity:0.416;fill:none;stroke:#94989E;enable-background:new    ;}
</style>
<g id="그룹_5742" transform="translate(-20 -2334.631)">
	<g class="st0">
		<path class="st1" d="M33.1,2346.2v1.6H20.6v-1.6h5.2v-1.1c-2.4-0.2-4-1.3-4-2.8c0-1.8,2-2.8,5-2.8c3,0,5,1.1,5,2.8
			c0,1.5-1.6,2.6-4,2.8v1.1H33.1z M24.1,2351.1h7.6v1.6h-9.6v-4h2V2351.1z M26.9,2343.6c1.9,0,3-0.4,3-1.3c0-0.8-1.1-1.3-3-1.3
			c-1.8,0-3,0.4-3,1.3C23.9,2343.2,25,2343.6,26.9,2343.6z"/>
		<path class="st1" d="M42,2345.9c-1.6-0.5-2.6-1.4-3.3-2.6c-0.6,1.3-1.8,2.4-3.4,2.8l-1-1.5c2.3-0.7,3.3-2.4,3.3-4.1v-1h2v1
			c0,1.6,1,3.2,3.2,3.9L42,2345.9z M46.3,2351.3v1.5h-9.5v-3.8H44v-0.8h-7.2v-1.5h9.2v3.7h-7.2v0.9H46.3z M45.9,2346.1h-2v-7h2
			V2346.1z"/>
		<path class="st1" d="M55.4,2340.5c0,4.1-1.6,7.7-6.2,10l-1.1-1.5c3.2-1.6,4.9-3.8,5.3-6.9h-4.5v-1.6H55.4z M61,2346h-1.9v6.9h-2
			v-13.8h2v5.3H61V2346z"/>
		<path class="st1" d="M74.6,2349.6v1.6H62v-1.6H74.6z M73.3,2347.3c-2.4-0.5-4.2-1.8-5.1-3.6c-0.9,1.8-2.6,3.1-5,3.6l-0.8-1.7
			c3.1-0.5,4.8-2.7,4.8-4.7v-1h2.1v1c0,2,1.7,4.2,4.8,4.7L73.3,2347.3z"/>
		<path class="st1" d="M83.3,2340.3h1.8v9.3h-5.4v-9.3h1.9v3.1h1.8V2340.3z M83.3,2345h-1.8v3.1h1.8V2345z M91.1,2339.1v13.8h-1.9
			v-6.9h-1.2v6.3h-1.8v-13h1.8v5.1h1.2v-5.3H91.1z"/>
		<path class="st1" d="M100.3,2346.4v0.8h3.7v3.4h-7.6v0.7h7.9v1.4h-9.9v-3.5h7.6v-0.7h-7.6v-1.4h3.8v-0.8h-5.2v-1.5h12.4v1.5H100.3
			z M93.6,2343.2c2.8-0.1,4.1-0.8,4.5-1.6h-3.8v-1.4h4v-1.1h2v1.1h4.1v1.4h-3.8c0.4,0.8,1.7,1.4,4.5,1.6l-0.6,1.5
			c-2.6-0.1-4.3-0.8-5.2-1.8c-0.9,1-2.6,1.7-5.2,1.8L93.6,2343.2z"/>
		<path class="st1" d="M111.7,2342.6v-1.1h-4.3v-1.6h6.3v4.2h-4.3v1.2c2.2,0,3.8-0.1,5.5-0.4l0.2,1.6c-1.9,0.4-3.7,0.4-6.4,0.4h-1.2
			v-4.3H111.7z M117.9,2350.3c0,1.7-1.8,2.6-4.7,2.6s-4.7-1-4.7-2.6c0-1.7,1.8-2.6,4.7-2.6S117.9,2348.6,117.9,2350.3z
			 M115.9,2350.3c0-0.8-0.9-1.1-2.7-1.1s-2.7,0.3-2.7,1.1c0,0.8,0.9,1.1,2.7,1.1S115.9,2351.1,115.9,2350.3z M117.7,2342.6v1.3h1.8
			v1.6h-1.8v1.9h-2v-8.3h2v1.9h1.8v1.6H117.7z"/>
	</g>
	<g class="st0">
		<path class="st2" d="M25.9,2400.9c-1.2,0.2-2.3,0.3-4.2,0.3H21v-4.1h4v0.7h-3.1v2.8c1.8,0,2.8-0.1,4-0.3L25.9,2400.9z
			 M22.8,2404.4H28v0.7h-6v-2.9h0.8V2404.4z M28.9,2399v0.7h-1.3v3.1h-0.8v-6.5h0.8v2.7H28.9z"/>
		<path class="st2" d="M35.8,2401.5c-0.8,0.2-1.7,0.2-2.6,0.3v3.2h-0.8v-3.2c-0.9,0-1.7,0-2.5,0l-0.1-0.7c1.7,0,3.9,0,5.9-0.3
			L35.8,2401.5z M30.5,2398.6c0-1.1,0.9-1.8,2.3-1.8c1.3,0,2.3,0.8,2.3,1.8c0,1.1-0.9,1.8-2.3,1.8
			C31.4,2400.4,30.5,2399.7,30.5,2398.6z M31.3,2398.6c0,0.7,0.6,1.2,1.5,1.2c0.9,0,1.5-0.5,1.5-1.2c0-0.7-0.6-1.2-1.5-1.2
			C31.9,2397.4,31.3,2397.9,31.3,2398.6z M37.2,2396.3v9h-0.8v-9H37.2z"/>
		<path class="st2" d="M41.5,2399.9c0-0.4,0.3-0.7,0.7-0.7s0.7,0.3,0.7,0.7c0,0.4-0.3,0.7-0.7,0.7S41.5,2400.3,41.5,2399.9z
			 M41.5,2404c0-0.4,0.3-0.7,0.7-0.7s0.7,0.3,0.7,0.7c0,0.4-0.3,0.7-0.7,0.7S41.5,2404.4,41.5,2404z"/>
	</g>
	<g class="st0">
		<path class="st2" d="M46.8,2402.8v-3H46v-0.7l0.8,0l0.1-1.5h0.8v1.5h1.5v0.7h-1.5v3c0,0.7,0.2,1,0.8,1c0.2,0,0.4-0.1,0.6-0.1
			l0.2,0.7c-0.3,0.1-0.7,0.2-1,0.2C47.2,2404.7,46.8,2403.9,46.8,2402.8z"/>
		<path class="st2" d="M50.1,2400.9c0-2.4,1.4-3.8,3.2-3.8c0.9,0,1.6,0.4,2,0.9l-0.5,0.6c-0.4-0.4-0.9-0.7-1.5-0.7
			c-1.4,0-2.3,1.1-2.3,3c0,1.8,0.9,3,2.3,3c0.7,0,1.2-0.3,1.7-0.8l0.5,0.6c-0.6,0.7-1.3,1-2.2,1
			C51.5,2404.7,50.1,2403.2,50.1,2400.9z"/>
		<path class="st2" d="M56.2,2400.8c0-2.3,1.3-3.8,3.1-3.8s3.1,1.4,3.1,3.8c0,2.3-1.3,3.8-3.1,3.8S56.2,2403.2,56.2,2400.8z
			 M61.5,2400.8c0-1.8-0.9-3-2.2-3c-1.3,0-2.2,1.1-2.2,3c0,1.8,0.9,3,2.2,3C60.6,2403.8,61.5,2402.7,61.5,2400.8z"/>
	</g>
	<g class="st0">
		<path class="st2" d="M63.3,2407.5c1.3-1.2,2-2,2-2.8c0-0.5-0.3-0.8-0.8-0.8c-0.4,0-0.7,0.2-0.9,0.5l-0.3-0.3
			c0.3-0.4,0.7-0.6,1.3-0.6c0.8,0,1.2,0.5,1.2,1.3c0,0.9-0.7,1.7-1.7,2.7c0.2,0,0.5,0,0.7,0h1.2v0.5h-2.7V2407.5z"/>
	</g>
	<g class="st0">
		<path class="st2" d="M66.7,2401.4h2.6v0.7h-2.6V2401.4z"/>
		<path class="st2" d="M70.2,2401.8c0-1.8,1.2-2.9,2.4-2.9c1.4,0,2.2,1,2.2,2.5c0,0.2,0,0.4,0,0.5h-3.7c0.1,1.2,0.8,1.9,1.8,1.9
			c0.5,0,1-0.2,1.4-0.4l0.3,0.6c-0.5,0.3-1.1,0.6-1.8,0.6C71.4,2404.7,70.2,2403.6,70.2,2401.8z M74,2401.4c0-1.1-0.5-1.7-1.3-1.7
			c-0.8,0-1.4,0.6-1.6,1.7H74z"/>
		<path class="st2" d="M79.6,2404.9l0.1-1c-0.4,0.4-1,0.8-1.6,0.8c-1.4,0-2.2-1-2.2-2.8c0-1.8,1.1-2.9,2.3-2.9
			c0.6,0,1.1,0.2,1.5,0.7h0l0.1-0.5h0.7v7.7h-0.9V2404.9z M79.6,2403.1v-2.8c-0.5-0.4-0.9-0.6-1.3-0.6c-0.9,0-1.6,0.8-1.6,2.1
			c0,1.3,0.5,2.1,1.5,2.1C78.7,2403.9,79.2,2403.6,79.6,2403.1z"/>
	</g>
	<g class="st0">
		<path class="st2" d="M25.9,2576.3c-1.2,0.2-2.3,0.3-4.2,0.3H21v-4.1h4v0.7h-3.1v2.8c1.8,0,2.8-0.1,4-0.3L25.9,2576.3z
			 M22.8,2579.8H28v0.7h-6v-2.9h0.8V2579.8z M28.9,2574.4v0.7h-1.3v3.1h-0.8v-6.5h0.8v2.7H28.9z"/>
		<path class="st2" d="M35.8,2576.9c-0.8,0.2-1.7,0.2-2.6,0.3v3.2h-0.8v-3.2c-0.9,0-1.7,0-2.5,0l-0.1-0.7c1.7,0,3.9,0,5.9-0.3
			L35.8,2576.9z M30.5,2574c0-1.1,0.9-1.8,2.3-1.8c1.3,0,2.3,0.8,2.3,1.8c0,1.1-0.9,1.8-2.3,1.8C31.4,2575.8,30.5,2575.1,30.5,2574z
			 M31.3,2574c0,0.7,0.6,1.2,1.5,1.2c0.9,0,1.5-0.5,1.5-1.2c0-0.7-0.6-1.2-1.5-1.2C31.9,2572.8,31.3,2573.3,31.3,2574z M37.2,2571.7
			v9h-0.8v-9H37.2z"/>
		<path class="st2" d="M41.5,2575.3c0-0.4,0.3-0.7,0.7-0.7s0.7,0.3,0.7,0.7c0,0.4-0.3,0.7-0.7,0.7S41.5,2575.7,41.5,2575.3z
			 M41.5,2579.4c0-0.4,0.3-0.7,0.7-0.7s0.7,0.3,0.7,0.7c0,0.4-0.3,0.7-0.7,0.7S41.5,2579.8,41.5,2579.4z"/>
	</g>
	<g class="st0">
		<path class="st2" d="M46.8,2578.3v-3H46v-0.7l0.8,0l0.1-1.5h0.8v1.5h1.5v0.7h-1.5v3c0,0.7,0.2,1,0.8,1c0.2,0,0.4-0.1,0.6-0.1
			l0.2,0.7c-0.3,0.1-0.7,0.2-1,0.2C47.2,2580.1,46.8,2579.3,46.8,2578.3z"/>
		<path class="st2" d="M50.1,2576.3c0-2.4,1.4-3.8,3.2-3.8c0.9,0,1.6,0.4,2,0.9l-0.5,0.6c-0.4-0.4-0.9-0.7-1.5-0.7
			c-1.4,0-2.3,1.1-2.3,3c0,1.8,0.9,3,2.3,3c0.7,0,1.2-0.3,1.7-0.8l0.5,0.6c-0.6,0.7-1.3,1-2.2,1
			C51.5,2580.1,50.1,2578.7,50.1,2576.3z"/>
		<path class="st2" d="M56.2,2576.2c0-2.3,1.3-3.8,3.1-3.8s3.1,1.4,3.1,3.8c0,2.3-1.3,3.8-3.1,3.8S56.2,2578.6,56.2,2576.2z
			 M61.5,2576.2c0-1.8-0.9-3-2.2-3c-1.3,0-2.2,1.1-2.2,3c0,1.8,0.9,3,2.2,3C60.6,2579.3,61.5,2578.1,61.5,2576.2z"/>
	</g>
	<g class="st0">
		<path class="st2" d="M63.3,2583c1.3-1.2,2-2,2-2.8c0-0.5-0.3-0.8-0.8-0.8c-0.4,0-0.7,0.2-0.9,0.5l-0.3-0.3
			c0.3-0.4,0.7-0.6,1.3-0.6c0.8,0,1.2,0.5,1.2,1.3c0,0.9-0.7,1.7-1.7,2.7c0.2,0,0.5,0,0.7,0h1.2v0.5h-2.7V2583z"/>
	</g>
	<g class="st0">
		<path class="st2" d="M66.7,2576.8h2.6v0.7h-2.6V2576.8z"/>
		<path class="st2" d="M70.2,2577.2c0-1.8,1.2-2.9,2.4-2.9c1.4,0,2.2,1,2.2,2.5c0,0.2,0,0.4,0,0.5h-3.7c0.1,1.2,0.8,1.9,1.8,1.9
			c0.5,0,1-0.2,1.4-0.4l0.3,0.6c-0.5,0.3-1.1,0.6-1.8,0.6C71.4,2580.1,70.2,2579,70.2,2577.2z M74,2576.8c0-1.1-0.5-1.7-1.3-1.7
			c-0.8,0-1.4,0.6-1.6,1.7H74z"/>
		<path class="st2" d="M79.6,2580.3l0.1-1c-0.4,0.4-1,0.8-1.6,0.8c-1.4,0-2.2-1-2.2-2.8c0-1.8,1.1-2.9,2.3-2.9
			c0.6,0,1.1,0.2,1.5,0.7h0l0.1-0.5h0.7v7.7h-0.9V2580.3z M79.6,2578.6v-2.8c-0.5-0.4-0.9-0.6-1.3-0.6c-0.9,0-1.6,0.8-1.6,2.1
			c0,1.3,0.5,2.1,1.5,2.1C78.7,2579.3,79.2,2579.1,79.6,2578.6z"/>
	</g>
	<g class="st0">
		<path class="st3" d="M24.3,2385.7c-1.9,0-3.4-1.1-3.4-2.8h1.7c0.1,0.8,0.6,1.4,1.7,1.4c1.1,0,1.8-0.6,1.8-1.4
			c0-2.4-5.2-0.8-5.2-4.4c0-1.7,1.4-2.8,3.3-2.8c1.9,0,3.2,1,3.3,2.6h-1.8c-0.1-0.7-0.6-1.3-1.6-1.3c-0.9,0-1.6,0.4-1.6,1.4
			c0,2.2,5.2,0.8,5.2,4.4C27.6,2384.3,26.4,2385.7,24.3,2385.7z"/>
		<path class="st3" d="M33.9,2375.8c2,0,3.8,1,4.5,2.9h-1.9c-0.5-1-1.4-1.5-2.6-1.5c-1.9,0-3.3,1.4-3.3,3.6s1.4,3.6,3.3,3.6
			c1.2,0,2.1-0.5,2.6-1.5h1.9c-0.7,1.9-2.5,2.9-4.5,2.9c-2.7,0-5-2-5-5C29,2377.8,31.2,2375.8,33.9,2375.8z"/>
		<path class="st3" d="M44.8,2385.7c-2.7,0-5-2.1-5-5c0-2.9,2.2-5,5-5c2.8,0,5,2.1,5,5C49.7,2383.7,47.5,2385.7,44.8,2385.7z
			 M44.8,2384.3c1.9,0,3.3-1.4,3.3-3.6s-1.4-3.6-3.3-3.6c-1.9,0-3.3,1.4-3.3,3.6S42.8,2384.3,44.8,2384.3z"/>
		<path class="st3" d="M54.7,2381.7h-1.8v4h-1.6v-9.7h3.4c2.3,0,3.4,1.3,3.4,2.9C58.1,2380.2,57.2,2381.7,54.7,2381.7z M54.7,2380.4
			c1.2,0,1.8-0.6,1.8-1.6c0-1-0.6-1.6-1.8-1.6h-1.8v3.2H54.7z"/>
		<path class="st3" d="M65,2377.2h-3.8v2.9h3.4v1.3h-3.4v3H65v1.3h-5.4v-9.7H65V2377.2z"/>
		<path class="st3" d="M71.5,2376.9h-1.3v-1.5h2.9v10.2h-1.6V2376.9z"/>
	</g>
	<g class="st0">
		<path class="st3" d="M24.3,2561.1c-1.9,0-3.4-1.1-3.4-2.8h1.7c0.1,0.8,0.6,1.4,1.7,1.4c1.1,0,1.8-0.6,1.8-1.4
			c0-2.4-5.2-0.8-5.2-4.4c0-1.7,1.4-2.8,3.3-2.8c1.9,0,3.2,1,3.3,2.6h-1.8c-0.1-0.7-0.6-1.3-1.6-1.3c-0.9,0-1.6,0.4-1.6,1.4
			c0,2.2,5.2,0.8,5.2,4.4C27.6,2559.7,26.4,2561.1,24.3,2561.1z"/>
		<path class="st3" d="M33.9,2551.2c2,0,3.8,1,4.5,2.9h-1.9c-0.5-1-1.4-1.5-2.6-1.5c-1.9,0-3.3,1.4-3.3,3.6s1.4,3.6,3.3,3.6
			c1.2,0,2.1-0.5,2.6-1.5h1.9c-0.7,1.9-2.5,2.9-4.5,2.9c-2.7,0-5-2-5-5C29,2553.2,31.2,2551.2,33.9,2551.2z"/>
		<path class="st3" d="M44.8,2561.1c-2.7,0-5-2.1-5-5c0-2.9,2.2-5,5-5c2.8,0,5,2.1,5,5C49.7,2559.1,47.5,2561.1,44.8,2561.1z
			 M44.8,2559.8c1.9,0,3.3-1.4,3.3-3.6s-1.4-3.6-3.3-3.6c-1.9,0-3.3,1.4-3.3,3.6S42.8,2559.8,44.8,2559.8z"/>
		<path class="st3" d="M54.7,2557.1h-1.8v4h-1.6v-9.7h3.4c2.3,0,3.4,1.3,3.4,2.9C58.1,2555.6,57.2,2557.1,54.7,2557.1z M54.7,2555.8
			c1.2,0,1.8-0.6,1.8-1.6c0-1-0.6-1.6-1.8-1.6h-1.8v3.2H54.7z"/>
		<path class="st3" d="M65,2552.6h-3.8v2.9h3.4v1.3h-3.4v3H65v1.3h-5.4v-9.7H65V2552.6z"/>
		<path class="st3" d="M70.3,2559.7c2.4-2.1,4.9-4,4.9-6c0-1.1-0.5-1.8-1.7-1.8c-1.1,0-1.7,0.8-1.8,1.9h-1.5
			c0.1-2.2,1.5-3.3,3.3-3.3c2.1,0,3.2,1.2,3.2,3.1c0,2.5-2.5,4.4-4.2,5.9h4.4v1.3h-6.8V2559.7z"/>
	</g>
	<path id="패스_3527" class="st4" d="M134,2538.4h52v-93.7h-52V2538.4z"/>
	<path id="패스_3528" class="st4" d="M134,2713.8h52v-96.7h-52V2713.8z"/>
	<g class="st0">
		<path class="st5" d="M149.5,2529.5c1.7-1.5,3.5-2.8,3.5-4.3c0-0.8-0.3-1.3-1.2-1.3c-0.8,0-1.2,0.6-1.3,1.4h-1.1
			c0-1.6,1.1-2.3,2.3-2.3c1.5,0,2.3,0.9,2.3,2.2c0,1.8-1.8,3.1-3,4.2h3.2v1h-4.9V2529.5z"/>
		<path class="st5" d="M157.9,2523c2,0,2.6,1.6,2.6,3.7c0,2.1-0.6,3.7-2.6,3.7s-2.6-1.6-2.6-3.7C155.3,2524.6,155.9,2523,157.9,2523
			z M157.9,2524c-1.3,0-1.5,1.3-1.5,2.6c0,1.4,0.1,2.7,1.5,2.7s1.5-1.2,1.5-2.7C159.4,2525.3,159.3,2524,157.9,2524z"/>
		<path class="st5" d="M162.5,2524.1h-0.9v-1h2.1v7.3h-1.1V2524.1z"/>
		<path class="st5" d="M165.4,2524.9c0-1.1,0.8-2,2.4-2c1.6,0,2.4,0.9,2.4,2c0,0.8-0.4,1.3-1,1.6c0.7,0.3,1.2,0.9,1.2,1.8
			c0,1.3-1.1,2.2-2.6,2.2c-1.5,0-2.6-0.9-2.6-2.2c0-0.9,0.5-1.5,1.2-1.8C165.9,2526.3,165.4,2525.8,165.4,2524.9z M166.3,2528.3
			c0,0.7,0.6,1.3,1.5,1.3c0.9,0,1.5-0.5,1.5-1.3c0-0.8-0.6-1.3-1.5-1.3C167,2527.1,166.3,2527.5,166.3,2528.3z M169.1,2525.1
			c0-0.8-0.5-1.2-1.3-1.2c-0.8,0-1.3,0.4-1.3,1.2c0,0.7,0.5,1.1,1.3,1.1C168.6,2526.2,169.1,2525.7,169.1,2525.1z"/>
	</g>
	<g class="st0">
		<path class="st5" d="M149.5,2704.9c1.7-1.5,3.5-2.8,3.5-4.3c0-0.8-0.3-1.3-1.2-1.3c-0.8,0-1.2,0.6-1.3,1.4h-1.1
			c0-1.6,1.1-2.3,2.3-2.3c1.5,0,2.3,0.9,2.3,2.2c0,1.8-1.8,3.1-3,4.2h3.2v1h-4.9V2704.9z"/>
		<path class="st5" d="M157.9,2698.4c2,0,2.6,1.6,2.6,3.7c0,2.1-0.6,3.7-2.6,3.7s-2.6-1.6-2.6-3.7
			C155.3,2700,155.9,2698.4,157.9,2698.4z M157.9,2699.4c-1.3,0-1.5,1.3-1.5,2.6c0,1.4,0.1,2.7,1.5,2.7s1.5-1.2,1.5-2.7
			C159.4,2700.7,159.3,2699.4,157.9,2699.4z"/>
		<path class="st5" d="M162.5,2699.6h-0.9v-1h2.1v7.3h-1.1V2699.6z"/>
		<path class="st5" d="M165.4,2700.4c0-1.1,0.8-2,2.4-2c1.6,0,2.4,0.9,2.4,2c0,0.8-0.4,1.3-1,1.6c0.7,0.3,1.2,0.9,1.2,1.8
			c0,1.3-1.1,2.2-2.6,2.2c-1.5,0-2.6-0.9-2.6-2.2c0-0.9,0.5-1.5,1.2-1.8C165.9,2701.7,165.4,2701.2,165.4,2700.4z M166.3,2703.8
			c0,0.7,0.6,1.3,1.5,1.3c0.9,0,1.5-0.5,1.5-1.3c0-0.8-0.6-1.3-1.5-1.3C167,2702.5,166.3,2702.9,166.3,2703.8z M169.1,2700.5
			c0-0.8-0.5-1.2-1.3-1.2c-0.8,0-1.3,0.4-1.3,1.2c0,0.7,0.5,1.1,1.3,1.1C168.6,2701.6,169.1,2701.2,169.1,2700.5z"/>
	</g>
	<g class="st0">
		<path class="st6" d="M139.4,2426.8v1.2l-3.9,9h-1.6l3.9-8.8h-5.2v-1.4H139.4z"/>
		<path class="st6" d="M144.4,2426.6c2.9,0,3.6,2.2,3.6,5.2c0,3-0.8,5.2-3.6,5.2s-3.6-2.2-3.6-5.2
			C140.8,2428.8,141.6,2426.6,144.4,2426.6z M144.4,2428c-1.9,0-2.1,1.8-2.1,3.7c0,2,0.2,3.8,2.1,3.8s2.1-1.8,2.1-3.8
			C146.5,2429.8,146.3,2428,144.4,2428z"/>
		<path class="st6" d="M151.8,2434.2c0.2,0.9,0.8,1.4,1.8,1.4c1.3,0,1.9-0.9,1.9-3.5c-0.5,0.6-1.3,1-2.3,1c-1.8,0-3.2-1.1-3.2-3.3
			c0-2,1.2-3.4,3.4-3.4c2.6,0,3.5,1.8,3.5,5.2c0,3.4-0.7,5.3-3.4,5.3c-2.1,0-3.1-1.3-3.2-2.8H151.8z M155.3,2429.9
			c0-1.3-0.7-2-1.9-2c-1.2,0-1.9,0.8-1.9,2c0,1.1,0.6,2,2,2C154.7,2431.8,155.3,2431,155.3,2429.9z"/>
		<path class="st6" d="M158.9,2435h1.7l-1.7,3.9h-1L158.9,2435z"/>
		<path class="st6" d="M168.4,2426.7v1.4h-4.7v2.8c0.4-0.5,1.2-0.9,2.1-0.9c2.5,0,3.3,1.9,3.3,3.4c0,2-1.2,3.6-3.5,3.6
			c-2.1,0-3.3-1.2-3.6-2.8h1.6c0.2,0.9,0.9,1.4,2,1.4c1.4,0,2-0.9,2-2.2c0-1.3-0.7-2.1-2-2.1c-0.9,0-1.6,0.5-1.8,1.3h-1.5v-5.9
			H168.4z"/>
		<path class="st6" d="M176.2,2429.1c-0.2-0.8-0.7-1.3-1.7-1.3c-1.4,0-2.2,1-2.2,3.7c0.5-0.8,1.5-1.3,2.6-1.3c1.8,0,3.1,1.2,3.1,3.4
			c0,1.9-1.2,3.4-3.3,3.4c-3,0-3.7-2.1-3.7-5.3c0-3.2,1.1-5.1,3.6-5.1c2,0,3,1.3,3.2,2.6H176.2z M172.5,2433.5
			c0,1.3,0.7,2.1,2.1,2.1c1.2,0,1.9-0.8,1.9-2c0-1.2-0.6-2.1-2-2.1C173.5,2431.5,172.5,2432.2,172.5,2433.5z"/>
		<path class="st6" d="M183.4,2426.6c2.9,0,3.6,2.2,3.6,5.2c0,3-0.8,5.2-3.6,5.2s-3.6-2.2-3.6-5.2
			C179.7,2428.8,180.5,2426.6,183.4,2426.6z M183.4,2428c-1.9,0-2.1,1.8-2.1,3.7c0,2,0.2,3.8,2.1,3.8s2.1-1.8,2.1-3.8
			C185.5,2429.8,185.3,2428,183.4,2428z"/>
	</g>
	<g class="st0">
		<path class="st6" d="M130.2,2600.6h-1.3v-1.5h2.9v10.2h-1.6V2600.6z"/>
		<path class="st6" d="M134.3,2607.5h1.7l-1.7,3.9h-1L134.3,2607.5z"/>
		<path class="st6" d="M143.8,2599.1v1.4h-4.7v2.8c0.4-0.5,1.2-0.9,2.1-0.9c2.5,0,3.3,1.9,3.3,3.4c0,2-1.2,3.6-3.5,3.6
			c-2.1,0-3.3-1.2-3.6-2.8h1.6c0.2,0.9,0.9,1.4,2,1.4c1.4,0,2-0.9,2-2.2c0-1.3-0.7-2.1-2-2.1c-0.9,0-1.6,0.5-1.8,1.3h-1.5v-5.9
			H143.8z"/>
		<path class="st6" d="M152.7,2599.1v1.4H148v2.8c0.4-0.5,1.2-0.9,2.1-0.9c2.5,0,3.3,1.9,3.3,3.4c0,2-1.2,3.6-3.5,3.6
			c-2.1,0-3.3-1.2-3.6-2.8h1.6c0.2,0.9,0.9,1.4,2,1.4c1.4,0,2-0.9,2-2.2c0-1.3-0.7-2.1-2-2.1c-0.9,0-1.6,0.5-1.8,1.3h-1.5v-5.9
			H152.7z"/>
		<path class="st6" d="M155,2608.1c2.4-2.1,4.9-4,4.9-6c0-1.1-0.5-1.8-1.7-1.8c-1.1,0-1.7,0.8-1.8,1.9H155c0.1-2.2,1.5-3.3,3.3-3.3
			c2.1,0,3.2,1.2,3.2,3.1c0,2.5-2.5,4.4-4.2,5.9h4.4v1.3H155V2608.1z"/>
		<path class="st6" d="M163.4,2607.5h1.7l-1.7,3.9h-1L163.4,2607.5z"/>
		<path class="st6" d="M172.9,2599.1v1.4h-4.7v2.8c0.4-0.5,1.2-0.9,2.1-0.9c2.5,0,3.3,1.9,3.3,3.4c0,2-1.2,3.6-3.5,3.6
			c-2.1,0-3.3-1.2-3.6-2.8h1.6c0.2,0.9,0.9,1.4,2,1.4c1.4,0,2-0.9,2-2.2c0-1.3-0.7-2.1-2-2.1c-0.9,0-1.6,0.5-1.8,1.3h-1.5v-5.9
			H172.9z"/>
		<path class="st6" d="M181.9,2599.1v1.4h-4.7v2.8c0.4-0.5,1.2-0.9,2.1-0.9c2.5,0,3.3,1.9,3.3,3.4c0,2-1.2,3.6-3.5,3.6
			c-2.1,0-3.3-1.2-3.6-2.8h1.6c0.2,0.9,0.9,1.4,2,1.4c1.4,0,2-0.9,2-2.2c0-1.3-0.7-2.1-2-2.1c-0.9,0-1.6,0.5-1.8,1.3h-1.5v-5.9
			H181.9z"/>
		<path class="st6" d="M187.5,2598.9c2,0,3.1,1.2,3.1,2.7c0,1.2-0.8,2-1.6,2.3v0.1c1.1,0.3,1.8,1.2,1.8,2.6c0,1.6-1.1,2.9-3.3,2.9
			c-1.9,0-3.4-1-3.5-3h1.5c0.1,1,0.8,1.7,2,1.7c1.2,0,1.8-0.7,1.8-1.7c0-1.3-0.9-1.8-2.5-1.8h-0.4v-1.3h0.4c1.4,0,2.3-0.4,2.3-1.5
			c0-0.9-0.6-1.5-1.7-1.5c-1.1,0-1.6,0.7-1.7,1.4h-1.6C184.3,2599.9,185.7,2598.9,187.5,2598.9z"/>
	</g>
	<path id="패스_3529" class="st4" d="M206,2538.4h52v-83.9h-52V2538.4z"/>
	<path id="패스_3530" class="st4" d="M206,2714.3h52v-92.8h-52V2714.3z"/>
	<g class="st0">
		<path class="st5" d="M221.5,2529.5c1.7-1.5,3.5-2.8,3.5-4.3c0-0.8-0.3-1.3-1.2-1.3c-0.8,0-1.2,0.6-1.3,1.4h-1.1
			c0-1.6,1.1-2.3,2.3-2.3c1.5,0,2.3,0.9,2.3,2.2c0,1.8-1.8,3.1-3,4.2h3.2v1h-4.9V2529.5z"/>
		<path class="st5" d="M230,2523c2,0,2.6,1.6,2.6,3.7c0,2.1-0.6,3.7-2.6,3.7s-2.6-1.6-2.6-3.7C227.4,2524.6,227.9,2523,230,2523z
			 M230,2524c-1.3,0-1.5,1.3-1.5,2.6c0,1.4,0.1,2.7,1.5,2.7s1.5-1.2,1.5-2.7C231.4,2525.3,231.3,2524,230,2524z"/>
		<path class="st5" d="M234.5,2524.1h-0.9v-1h2.1v7.3h-1.1V2524.1z"/>
		<path class="st5" d="M238.7,2528.4c0.1,0.6,0.6,1,1.3,1c0.9,0,1.4-0.6,1.4-2.5c-0.3,0.5-1,0.7-1.6,0.7c-1.3,0-2.3-0.8-2.3-2.3
			c0-1.4,0.9-2.4,2.4-2.4c1.9,0,2.5,1.3,2.5,3.7c0,2.5-0.5,3.8-2.4,3.8c-1.5,0-2.2-0.9-2.3-2H238.7z M241.2,2525.3
			c0-0.9-0.5-1.5-1.4-1.5c-0.8,0-1.4,0.6-1.4,1.4c0,0.8,0.4,1.4,1.4,1.4C240.8,2526.7,241.2,2526.2,241.2,2525.3z"/>
	</g>
	<g class="st0">
		<path class="st5" d="M221.5,2704.9c1.7-1.5,3.5-2.8,3.5-4.3c0-0.8-0.3-1.3-1.2-1.3c-0.8,0-1.2,0.6-1.3,1.4h-1.1
			c0-1.6,1.1-2.3,2.3-2.3c1.5,0,2.3,0.9,2.3,2.2c0,1.8-1.8,3.1-3,4.2h3.2v1h-4.9V2704.9z"/>
		<path class="st5" d="M230,2698.4c2,0,2.6,1.6,2.6,3.7c0,2.1-0.6,3.7-2.6,3.7s-2.6-1.6-2.6-3.7C227.4,2700,227.9,2698.4,230,2698.4
			z M230,2699.4c-1.3,0-1.5,1.3-1.5,2.6c0,1.4,0.1,2.7,1.5,2.7s1.5-1.2,1.5-2.7C231.4,2700.7,231.3,2699.4,230,2699.4z"/>
		<path class="st5" d="M234.5,2699.6h-0.9v-1h2.1v7.3h-1.1V2699.6z"/>
		<path class="st5" d="M238.7,2703.8c0.1,0.6,0.6,1,1.3,1c0.9,0,1.4-0.6,1.4-2.5c-0.3,0.5-1,0.7-1.6,0.7c-1.3,0-2.3-0.8-2.3-2.3
			c0-1.4,0.9-2.4,2.4-2.4c1.9,0,2.5,1.3,2.5,3.7c0,2.5-0.5,3.8-2.4,3.8c-1.5,0-2.2-0.9-2.3-2H238.7z M241.2,2700.8
			c0-0.9-0.5-1.5-1.4-1.5c-0.8,0-1.4,0.6-1.4,1.4c0,0.8,0.4,1.4,1.4,1.4C240.8,2702.1,241.2,2701.6,241.2,2700.8z"/>
	</g>
	<g class="st0">
		<path class="st6" d="M214.3,2439.3c-0.2-0.8-0.7-1.3-1.7-1.3c-1.4,0-2.2,1-2.2,3.7c0.5-0.8,1.5-1.3,2.6-1.3c1.8,0,3.1,1.2,3.1,3.4
			c0,1.9-1.2,3.4-3.3,3.4c-3,0-3.7-2.1-3.7-5.3c0-3.2,1.1-5.1,3.6-5.1c2,0,3,1.3,3.2,2.6H214.3z M210.5,2443.7
			c0,1.3,0.7,2.1,2.1,2.1c1.2,0,1.9-0.8,1.9-2c0-1.2-0.6-2.1-2-2.1C211.5,2441.7,210.5,2442.3,210.5,2443.7z"/>
		<path class="st6" d="M221.1,2436.7c2,0,3.1,1.2,3.1,2.7c0,1.2-0.8,2-1.6,2.3v0.1c1.1,0.3,1.8,1.2,1.8,2.6c0,1.6-1.1,2.9-3.3,2.9
			c-1.9,0-3.4-1-3.5-3h1.5c0.1,1,0.8,1.7,2,1.7c1.2,0,1.8-0.7,1.8-1.7c0-1.3-0.9-1.8-2.5-1.8H220v-1.3h0.4c1.4,0,2.3-0.4,2.3-1.5
			c0-0.9-0.6-1.5-1.7-1.5c-1.1,0-1.6,0.7-1.7,1.4h-1.6C217.8,2437.7,219.2,2436.7,221.1,2436.7z"/>
		<path class="st6" d="M231.6,2439.3c-0.2-0.8-0.7-1.3-1.7-1.3c-1.4,0-2.2,1-2.2,3.7c0.5-0.8,1.5-1.3,2.6-1.3c1.8,0,3.1,1.2,3.1,3.4
			c0,1.9-1.2,3.4-3.3,3.4c-3,0-3.7-2.1-3.7-5.3c0-3.2,1.1-5.1,3.6-5.1c2,0,3,1.3,3.2,2.6H231.6z M227.8,2443.7
			c0,1.3,0.7,2.1,2.1,2.1c1.2,0,1.9-0.8,1.9-2c0-1.2-0.6-2.1-2-2.1C228.8,2441.7,227.8,2442.3,227.8,2443.7z"/>
		<path class="st6" d="M235.3,2445.2h1.7l-1.7,3.9h-1L235.3,2445.2z"/>
		<path class="st6" d="M240.2,2444.4c0.2,0.9,0.8,1.4,1.8,1.4c1.3,0,1.9-0.9,1.9-3.5c-0.5,0.6-1.3,1-2.3,1c-1.8,0-3.2-1.1-3.2-3.3
			c0-2,1.2-3.4,3.4-3.4c2.6,0,3.5,1.8,3.5,5.2c0,3.4-0.7,5.3-3.4,5.3c-2.1,0-3.1-1.3-3.2-2.8H240.2z M243.8,2440.1
			c0-1.3-0.7-2-1.9-2c-1.2,0-1.9,0.8-1.9,2c0,1.1,0.6,2,2,2C243.1,2442,243.8,2441.2,243.8,2440.1z"/>
		<path class="st6" d="M248.2,2438.4h-1.3v-1.5h2.9v10.2h-1.6V2438.4z"/>
		<path class="st6" d="M253.1,2438.4h-1.3v-1.5h2.9v10.2h-1.6V2438.4z"/>
	</g>
	<g class="st0">
		<path class="st6" d="M202.3,2604.6H201v-1.5h2.9v10.2h-1.6V2604.6z"/>
		<path class="st6" d="M206.4,2611.5h1.7l-1.7,3.9h-1L206.4,2611.5z"/>
		<path class="st6" d="M214.2,2611.2h-5.1v-1.2l4.7-6.8h1.9v6.6h1.3v1.4h-1.3v2.1h-1.6V2611.2z M214.2,2609.9v-4.9l-3.3,4.9H214.2z"
			/>
		<path class="st6" d="M224.8,2603.2v1.2l-3.9,9h-1.6l3.9-8.8h-5.2v-1.4H224.8z"/>
		<path class="st6" d="M228.2,2610.6c0.2,0.9,0.8,1.4,1.8,1.4c1.3,0,1.9-0.9,1.9-3.5c-0.5,0.6-1.3,1-2.3,1c-1.8,0-3.2-1.1-3.2-3.3
			c0-2,1.2-3.4,3.4-3.4c2.6,0,3.5,1.8,3.5,5.2c0,3.4-0.7,5.3-3.4,5.3c-2.1,0-3.1-1.3-3.2-2.8H228.2z M231.8,2606.3
			c0-1.3-0.7-2-1.9-2c-1.2,0-1.9,0.8-1.9,2c0,1.1,0.6,2,2,2C231.1,2608.2,231.8,2607.5,231.8,2606.3z"/>
		<path class="st6" d="M235.3,2611.5h1.7l-1.7,3.9h-1L235.3,2611.5z"/>
		<path class="st6" d="M241.5,2602.9c2,0,3.1,1.2,3.1,2.7c0,1.2-0.8,2-1.6,2.3v0.1c1.1,0.3,1.8,1.2,1.8,2.6c0,1.6-1.1,2.9-3.3,2.9
			c-1.9,0-3.4-1-3.5-3h1.5c0.1,1,0.8,1.7,2,1.7c1.2,0,1.8-0.7,1.8-1.7c0-1.3-0.9-1.8-2.5-1.8h-0.4v-1.3h0.4c1.4,0,2.3-0.4,2.3-1.5
			c0-0.9-0.6-1.5-1.7-1.5c-1.1,0-1.6,0.7-1.7,1.4h-1.6C238.3,2603.9,239.7,2602.9,241.5,2602.9z"/>
		<path class="st6" d="M246.8,2605.7c0-1.5,1.1-2.8,3.4-2.8c2.3,0,3.4,1.3,3.4,2.8c0,1.1-0.6,1.9-1.5,2.3c1,0.4,1.7,1.3,1.7,2.5
			c0,1.9-1.5,3.1-3.6,3.1c-2.1,0-3.6-1.2-3.6-3.1c0-1.2,0.7-2.1,1.7-2.5C247.4,2607.6,246.8,2606.9,246.8,2605.7z M248.1,2610.5
			c0,1,0.8,1.8,2.1,1.8c1.3,0,2.1-0.8,2.1-1.8c0-1.1-0.9-1.8-2.1-1.8C249,2608.7,248.1,2609.3,248.1,2610.5z M252,2605.9
			c0-1-0.7-1.6-1.8-1.6c-1.1,0-1.8,0.6-1.8,1.6c0,0.9,0.8,1.6,1.8,1.6C251.2,2607.5,252,2606.9,252,2605.9z"/>
		<path class="st6" d="M259.1,2603c2.9,0,3.6,2.2,3.6,5.2c0,3-0.8,5.2-3.6,5.2s-3.6-2.2-3.6-5.2C255.5,2605.2,256.3,2603,259.1,2603
			z M259.1,2604.4c-1.9,0-2.1,1.8-2.1,3.7c0,2,0.2,3.8,2.1,3.8c1.9,0,2.1-1.8,2.1-3.8C261.2,2606.2,261,2604.4,259.1,2604.4z"/>
	</g>
	<path id="패스_3531" class="st1" d="M278,2538.4h52v-76.3h-52V2538.4z"/>
	<path id="패스_3525" class="st1" d="M278,2713.8h52v-39.5h-52V2713.8z"/>
	<g class="st0">
		<path class="st7" d="M292.2,2529.3c1.6-1.4,3.4-2.7,3.4-4c0-0.6-0.3-1.1-1-1.1c-0.7,0-1,0.5-1,1.2h-1.4c0-1.7,1.1-2.4,2.4-2.4
			c1.6,0,2.4,0.9,2.4,2.2c0,1.7-1.6,3-2.8,4h2.9v1.2h-4.9V2529.3z"/>
		<path class="st7" d="M300.8,2523c2.1,0,2.7,1.6,2.7,3.7c0,2.1-0.6,3.7-2.7,3.7c-2.1,0-2.7-1.6-2.7-3.7
			C298.1,2524.5,298.7,2523,300.8,2523z M300.8,2524.3c-1.2,0-1.3,1.1-1.3,2.4c0,1.3,0.1,2.4,1.3,2.4c1.2,0,1.3-1.1,1.3-2.4
			C302.1,2525.4,301.9,2524.3,300.8,2524.3z"/>
		<path class="st7" d="M304.4,2529.3c1.6-1.4,3.4-2.7,3.4-4c0-0.6-0.3-1.1-1-1.1c-0.7,0-1,0.5-1,1.2h-1.4c0-1.7,1.1-2.4,2.4-2.4
			c1.6,0,2.4,0.9,2.4,2.2c0,1.7-1.6,3-2.8,4h2.9v1.2h-4.9V2529.3z"/>
		<path class="st7" d="M313,2523c2.1,0,2.7,1.6,2.7,3.7c0,2.1-0.6,3.7-2.7,3.7c-2.1,0-2.7-1.6-2.7-3.7
			C310.3,2524.5,310.9,2523,313,2523z M313,2524.3c-1.2,0-1.3,1.1-1.3,2.4c0,1.3,0.1,2.4,1.3,2.4c1.2,0,1.3-1.1,1.3-2.4
			C314.3,2525.4,314.1,2524.3,313,2524.3z"/>
	</g>
	<g class="st0">
		<path class="st7" d="M292.2,2704.7c1.6-1.4,3.4-2.7,3.4-4c0-0.6-0.3-1.1-1-1.1c-0.7,0-1,0.5-1,1.2h-1.4c0-1.7,1.1-2.4,2.4-2.4
			c1.6,0,2.4,0.9,2.4,2.2c0,1.7-1.6,3-2.8,4h2.9v1.2h-4.9V2704.7z"/>
		<path class="st7" d="M300.8,2698.4c2.1,0,2.7,1.6,2.7,3.7c0,2.1-0.6,3.7-2.7,3.7c-2.1,0-2.7-1.6-2.7-3.7
			C298.1,2700,298.7,2698.4,300.8,2698.4z M300.8,2699.7c-1.2,0-1.3,1.1-1.3,2.4c0,1.3,0.1,2.4,1.3,2.4c1.2,0,1.3-1.1,1.3-2.4
			C302.1,2700.8,301.9,2699.7,300.8,2699.7z"/>
		<path class="st7" d="M304.4,2704.7c1.6-1.4,3.4-2.7,3.4-4c0-0.6-0.3-1.1-1-1.1c-0.7,0-1,0.5-1,1.2h-1.4c0-1.7,1.1-2.4,2.4-2.4
			c1.6,0,2.4,0.9,2.4,2.2c0,1.7-1.6,3-2.8,4h2.9v1.2h-4.9V2704.7z"/>
		<path class="st7" d="M313,2698.4c2.1,0,2.7,1.6,2.7,3.7c0,2.1-0.6,3.7-2.7,3.7c-2.1,0-2.7-1.6-2.7-3.7
			C310.3,2700,310.9,2698.4,313,2698.4z M313,2699.7c-1.2,0-1.3,1.1-1.3,2.4c0,1.3,0.1,2.4,1.3,2.4c1.2,0,1.3-1.1,1.3-2.4
			C314.3,2700.8,314.1,2699.7,313,2699.7z"/>
	</g>
	<g class="st0">
		<path class="st1" d="M285.9,2443.9v1.4h-4.7v2.8c0.4-0.5,1.2-0.9,2.1-0.9c2.5,0,3.3,1.9,3.3,3.4c0,2-1.2,3.6-3.5,3.6
			c-2.1,0-3.3-1.2-3.6-2.8h1.6c0.2,0.9,0.9,1.4,2,1.4c1.4,0,2-0.9,2-2.2c0-1.3-0.7-2.1-2-2.1c-0.9,0-1.6,0.5-1.8,1.3h-1.5v-5.9
			H285.9z"/>
		<path class="st1" d="M288.5,2446.5c0-1.5,1.1-2.8,3.4-2.8c2.3,0,3.4,1.3,3.4,2.8c0,1.1-0.6,1.9-1.5,2.3c1,0.4,1.7,1.3,1.7,2.5
			c0,1.9-1.5,3.1-3.6,3.1c-2.1,0-3.6-1.2-3.6-3.1c0-1.2,0.7-2.1,1.7-2.5C289.1,2448.4,288.5,2447.6,288.5,2446.5z M289.8,2451.3
			c0,1,0.8,1.8,2.1,1.8c1.3,0,2.1-0.8,2.1-1.8c0-1.1-0.9-1.8-2.1-1.8C290.7,2449.5,289.8,2450.1,289.8,2451.3z M293.7,2446.7
			c0-1-0.7-1.6-1.8-1.6c-1.1,0-1.8,0.6-1.8,1.6c0,0.9,0.8,1.6,1.8,1.6C292.9,2448.3,293.7,2447.6,293.7,2446.7z"/>
		<path class="st1" d="M302,2452H297v-1.2l4.7-6.8h1.9v6.6h1.3v1.4h-1.3v2.1H302V2452z M302.1,2450.6v-4.9l-3.3,4.9H302.1z"/>
		<path class="st1" d="M306.4,2452.2h1.7l-1.7,3.9h-1L306.4,2452.2z"/>
		<path class="st1" d="M310.4,2445.4h-1.3v-1.5h2.9v10.2h-1.6V2445.4z"/>
		<path class="st1" d="M317.6,2443.7c2,0,3.1,1.2,3.1,2.7c0,1.2-0.8,2-1.6,2.3v0.1c1.1,0.3,1.8,1.2,1.8,2.6c0,1.6-1.1,2.9-3.3,2.9
			c-1.9,0-3.4-1-3.5-3h1.5c0.1,1,0.8,1.7,2,1.7c1.2,0,1.8-0.7,1.8-1.7c0-1.3-0.9-1.8-2.5-1.8h-0.4v-1.3h0.4c1.4,0,2.3-0.4,2.3-1.5
			c0-0.9-0.6-1.5-1.7-1.5c-1.1,0-1.6,0.7-1.7,1.4h-1.6C314.3,2444.7,315.7,2443.7,317.6,2443.7z"/>
		<path class="st1" d="M329,2444v1.2l-3.9,9h-1.6l3.9-8.8h-5.2v-1.4H329z"/>
	</g>
	<g class="st0">
		<path class="st1" d="M282.2,2658.5c-0.2-0.8-0.7-1.3-1.7-1.3c-1.4,0-2.2,1-2.2,3.7c0.5-0.8,1.5-1.3,2.6-1.3c1.8,0,3.1,1.2,3.1,3.4
			c0,1.9-1.2,3.4-3.3,3.4c-3,0-3.7-2.1-3.7-5.3c0-3.2,1.1-5.1,3.6-5.1c2,0,3,1.3,3.2,2.6H282.2z M278.4,2662.9
			c0,1.3,0.7,2.1,2.1,2.1c1.2,0,1.9-0.8,1.9-2c0-1.2-0.6-2.1-2-2.1C279.4,2660.9,278.4,2661.6,278.4,2662.9z"/>
		<path class="st1" d="M289,2655.9c2,0,3.1,1.2,3.1,2.7c0,1.2-0.8,2-1.6,2.3v0.1c1.1,0.3,1.8,1.2,1.8,2.6c0,1.6-1.1,2.9-3.3,2.9
			c-1.9,0-3.4-1-3.5-3h1.5c0.1,1,0.8,1.7,2,1.7c1.2,0,1.8-0.7,1.8-1.7c0-1.3-0.9-1.8-2.5-1.8h-0.4v-1.3h0.4c1.4,0,2.3-0.4,2.3-1.5
			c0-0.9-0.6-1.5-1.7-1.5c-1.1,0-1.6,0.7-1.7,1.4h-1.6C285.7,2656.9,287.1,2655.9,289,2655.9z"/>
		<path class="st1" d="M296,2663.6c0.2,0.9,0.8,1.4,1.8,1.4c1.3,0,1.9-0.9,1.9-3.5c-0.5,0.6-1.3,1-2.3,1c-1.8,0-3.2-1.1-3.2-3.3
			c0-2,1.2-3.4,3.4-3.4c2.6,0,3.5,1.8,3.5,5.2c0,3.4-0.7,5.3-3.4,5.3c-2.1,0-3.1-1.3-3.2-2.8H296z M299.5,2659.3c0-1.3-0.7-2-1.9-2
			c-1.2,0-1.9,0.8-1.9,2c0,1.1,0.6,2,2,2C298.9,2661.2,299.5,2660.4,299.5,2659.3z"/>
		<path class="st1" d="M303.1,2664.4h1.7l-1.7,3.9h-1L303.1,2664.4z"/>
		<path class="st1" d="M310.9,2664.2h-5.1v-1.2l4.7-6.8h1.9v6.6h1.3v1.4h-1.3v2.1h-1.6V2664.2z M311,2662.9v-4.9l-3.3,4.9H311z"/>
		<path class="st1" d="M318.7,2656c2.9,0,3.6,2.2,3.6,5.2c0,3-0.8,5.2-3.6,5.2s-3.6-2.2-3.6-5.2C315.1,2658.2,315.9,2656,318.7,2656
			z M318.7,2657.4c-1.9,0-2.1,1.8-2.1,3.7c0,2,0.2,3.8,2.1,3.8c1.9,0,2.1-1.8,2.1-3.8C320.8,2659.2,320.6,2657.4,318.7,2657.4z"/>
		<path class="st1" d="M327.7,2656c2.9,0,3.6,2.2,3.6,5.2c0,3-0.8,5.2-3.6,5.2s-3.6-2.2-3.6-5.2C324,2658.2,324.8,2656,327.7,2656z
			 M327.7,2657.4c-1.9,0-2.1,1.8-2.1,3.7c0,2,0.2,3.8,2.1,3.8c1.9,0,2.1-1.8,2.1-3.8C329.8,2659.2,329.5,2657.4,327.7,2657.4z"/>
	</g>
	<path id="패스_3532" class="st8" d="M20,2363.2h335"/>
	<path id="패스_3526" class="st9" d="M20,2538.6h335"/>
	<path id="패스_3534" class="st9" d="M20,2714h335"/>
</g>
</svg>
