<?xml version="1.0" encoding="utf-8"?>
<!-- Generator: Adobe Illustrator 25.1.0, SVG Export Plug-In . SVG Version: 6.00 Build 0)  -->
<svg version="1.1" id="레이어_1" xmlns="http://www.w3.org/2000/svg" xmlns:xlink="http://www.w3.org/1999/xlink" x="0px"
	 y="0px" viewBox="0 0 920 400.7" style="enable-background:new 0 0 920 400.7;" xml:space="preserve">
<style type="text/css">
	.st0{fill:#3AA25C;}
	.st1{enable-background:new    ;}
	.st2{fill:#FFFFFF;}
	.st3{fill:#E2F5E8;}
	.st4{fill:none;stroke:#3AA25C;stroke-width:0.75;}
</style>
<path id="패스_3162" class="st0" d="M372.6,0h174.9v59.9H372.6V0z"/>
<g class="st1">
	<path class="st2" d="M444.5,21.4c3.4,0,6.2,1.8,7.2,5h-3.5c-0.7-1.5-2-2.2-3.7-2.2c-2.7,0-4.6,2-4.6,5.1s1.9,5.1,4.6,5.1
		c1.7,0,3-0.7,3.7-2.2h3.5c-1,3.2-3.8,5-7.2,5c-4.4,0-7.8-3.2-7.8-7.8S440.1,21.4,444.5,21.4z"/>
	<path class="st2" d="M463.3,24.1h-5.8V28h5.2v2.4h-5.2v4.1h5.8V37h-8.9V21.6h8.9V24.1z"/>
	<path class="st2" d="M473.2,37.1c-4.3,0-7.9-3.3-7.9-7.9s3.5-7.9,7.9-7.9s7.9,3.3,7.9,7.9C481.1,33.9,477.6,37.1,473.2,37.1z
		 M473.2,34.4c2.8,0,4.7-2,4.7-5.1s-1.9-5.1-4.7-5.1c-2.8,0-4.7,2-4.7,5.1S470.4,34.4,473.2,34.4z"/>
</g>
<rect id="사각형_272" y="108.4" class="st3" width="456.9" height="116.7"/>
<path id="패스_3161" class="st3" d="M463.1,108.4H920v116.7H463.1V108.4z"/>
<g class="st1">
	<path class="st0" d="M212.8,140.3c3.4,0,6.2,1.8,7.2,5h-3.5c-0.7-1.5-2-2.2-3.7-2.2c-2.7,0-4.6,2-4.6,5.1s1.9,5.1,4.6,5.1
		c1.7,0,3-0.7,3.7-2.2h3.5c-1,3.2-3.8,5-7.2,5c-4.4,0-7.8-3.2-7.8-7.8S208.4,140.3,212.8,140.3z"/>
	<path class="st0" d="M222.3,140.5h11.3v2.5h-4.1v12.9h-3.1V143h-4.1L222.3,140.5L222.3,140.5z"/>
	<path class="st0" d="M243.4,156.1c-4.3,0-7.9-3.3-7.9-7.9c0-4.6,3.5-7.9,7.9-7.9s7.9,3.3,7.9,7.9
		C251.2,152.8,247.7,156.1,243.4,156.1z M243.4,153.3c2.8,0,4.7-2,4.7-5.1s-1.9-5.1-4.7-5.1s-4.7,2-4.7,5.1S240.6,153.3,243.4,153.3
		z"/>
</g>
<g class="st1">
	<path class="st0" d="M133.6,181c-2.4,0-4.2-1.6-4.2-4s1.8-4,4.2-4s4.2,1.6,4.2,4S136,181,133.6,181z M133.6,179.7
		c1.6,0,2.8-1.1,2.8-2.7c0-1.6-1.2-2.7-2.8-2.7s-2.8,1.1-2.8,2.7S132,179.7,133.6,179.7z M133,186.5h9.3v1.2h-10.8v-5.1h1.5V186.5z
		 M144,176.8v1.2h-2.4v5.7h-1.5v-11.9h1.5v4.9h2.4V176.8z"/>
	<path class="st0" d="M154.4,181.3c-1.8-0.6-3.2-2-3.9-3.7c-0.7,1.8-2.2,3.3-4.1,4l-0.8-1.2c2.4-0.9,4.1-3,4.1-5.3v-0.8h-3.6v-1.2
		h8.6v1.2h-3.5v0.8c0,2.1,1.6,4.1,3.9,5L154.4,181.3z M159.4,186.5v1.2h-10.8v-5h1.5v3.8H159.4z M157.4,176.3v-4.4h1.5v11.8h-1.5
		v-6.2h-3.2v-1.2L157.4,176.3L157.4,176.3z"/>
	<path class="st0" d="M165,180.2c0-0.8,0.5-1.3,1.2-1.3c0.6,0,1.2,0.5,1.2,1.3c0,0.7-0.5,1.2-1.2,1.2
		C165.6,181.4,165,180.9,165,180.2z"/>
	<path class="st0" d="M186.9,184.8v1.2h-14.6v-1.2h6.6v-3.5H174v-8.2h1.5v2.9h8.2v-2.9h1.4v8.2h-4.8v3.5H186.9z M175.5,180.1h8.2v-3
		h-8.2V180.1z"/>
	<path class="st0" d="M197.2,173.1c0,4.2-2.9,7.3-7.5,8.8l-0.6-1.2c3.7-1.2,6.2-3.5,6.6-6.4H190v-1.2L197.2,173.1L197.2,173.1z
		 M202.6,186.5v1.2H192v-5.1h1.5v3.9L202.6,186.5L202.6,186.5z M200.7,176.9v-5h1.5v11.9h-1.5v-5.7h-3.5v-1.2H200.7z"/>
	<path class="st0" d="M208.2,180.2c0-0.8,0.5-1.3,1.2-1.3c0.6,0,1.2,0.5,1.2,1.3c0,0.7-0.5,1.2-1.2,1.2
		C208.8,181.4,208.2,180.9,208.2,180.2z"/>
	<path class="st0" d="M225.7,182c-3.4,0.6-7.3,0.7-10.1,0.7l-0.2-1.2c1.3,0,2.8,0,4.3-0.1v-1.2c-1.9-0.2-3-1.1-3-2.5
		c0-1.5,1.5-2.5,3.8-2.5c2.2,0,3.8,0.9,3.8,2.5c0,1.4-1.2,2.3-3,2.5v1.2c1.5-0.1,3-0.2,4.4-0.4V182z M225.1,174.6h-9.3v-1.1h3.9
		v-1.6h1.5v1.6h3.9L225.1,174.6L225.1,174.6z M219.3,186.5h9.3v1.2h-10.8v-4h1.5V186.5z M220.5,179.2c1.4,0,2.4-0.5,2.4-1.4
		s-0.9-1.4-2.4-1.4s-2.4,0.6-2.4,1.4S219,179.2,220.5,179.2z M230.4,177.5v1.2H228v5.8h-1.5v-12.6h1.5v5.6H230.4z"/>
	<path class="st0" d="M239.8,176.1c-1,2.6-3.5,4.5-7,5.5l-0.6-1.2c3.9-1.2,6.2-3.3,6.5-6.1H233v-1.2h7.3c0,0.6-0.1,1.2-0.2,1.7h3.7
		v-3h1.5v9.7h-1.5v-2.1h-4.2v-1.2h4.2V176h-4V176.1z M245.4,184.8c0,1.9-2.1,3.1-5.3,3.1c-3.3,0-5.3-1.2-5.3-3.1s2.1-3.1,5.3-3.1
		C243.4,181.7,245.4,182.9,245.4,184.8z M244,184.8c0-1.2-1.5-1.9-3.9-1.9s-3.9,0.7-3.9,1.9s1.5,2,3.9,2S244,186.1,244,184.8z"/>
	<path class="st0" d="M261.4,181.3c-1.8-0.6-3.2-2-3.9-3.7c-0.7,1.8-2.2,3.3-4.1,4l-0.8-1.2c2.4-0.9,4.1-3,4.1-5.3v-0.8h-3.6v-1.2
		h8.6v1.2h-3.5v0.8c0,2.1,1.6,4.1,3.9,5L261.4,181.3z M266.4,186.5v1.2h-10.8v-5h1.5v3.8H266.4z M264.5,176.3v-4.4h1.5v11.8h-1.5
		v-6.2h-3.2v-1.2L264.5,176.3L264.5,176.3z"/>
	<path class="st0" d="M278.7,179.6c-2.2,0.5-4.1,0.6-7.5,0.6h-1.3V173h7.1v1.2h-5.6v4.8c3.2,0,5-0.1,7.1-0.5L278.7,179.6z
		 M271.6,181.9h10.1v5.9h-10.1V181.9z M273.1,186.6h7.2v-3.5h-7.2V186.6z M284.1,177h-2.4v4h-1.5v-9.2h1.5v4h2.4V177z"/>
	<path class="st0" d="M304.5,184.7v1.2h-14.7v-1.2h6.6v-3.9h1.5v3.9H304.5z M290.5,180.2c2.8-0.5,5.9-2.7,5.9-5.3v-0.3h-5.3v-1.2
		h12.2v1.2H298v0.3c0,2.6,3.1,4.8,5.9,5.2l-0.6,1.2c-2.5-0.5-5-2.1-6-4.3c-1,2.2-3.6,3.8-6,4.4L290.5,180.2z"/>
	<path class="st0" d="M315.5,180.9c-1.9-0.6-3.3-2-4.1-3.7c-0.7,1.8-2.2,3.3-4.1,4l-0.8-1.2c2.4-0.9,4.1-3,4.1-5.2v-0.6h-3.7V173
		h8.9v1.2h-3.7v0.6c0,2.2,1.7,4.1,4.1,4.9L315.5,180.9z M308.8,182.5h10.8v5.5h-1.5v-4.3h-9.3V182.5z M319.6,171.9v9.8h-1.5v-9.8
		H319.6z"/>
</g>
<g class="st1">
	<path class="st0" d="M672.4,140.3c3.4,0,6.2,1.8,7.2,5h-3.5c-0.7-1.5-2-2.2-3.7-2.2c-2.7,0-4.6,2-4.6,5.1s1.9,5.1,4.6,5.1
		c1.7,0,3-0.7,3.7-2.2h3.5c-1,3.2-3.8,5-7.2,5c-4.4,0-7.8-3.2-7.8-7.8S668,140.3,672.4,140.3z"/>
	<path class="st0" d="M682.7,140.5h3.5l4.9,11.4l4.9-11.4h3.5v15.4h-3.1v-10l-4.1,10H690l-4.1-10v10h-3.1v-15.4H682.7z"/>
	<path class="st0" d="M710.1,156.1c-4.3,0-7.9-3.3-7.9-7.9c0-4.6,3.5-7.9,7.9-7.9s7.9,3.3,7.9,7.9
		C717.9,152.8,714.4,156.1,710.1,156.1z M710.1,153.3c2.8,0,4.7-2,4.7-5.1s-1.9-5.1-4.7-5.1c-2.8,0-4.7,2-4.7,5.1
		S707.3,153.3,710.1,153.3z"/>
</g>
<g class="st1">
	<path class="st0" d="M438.3,298.8c0,3.2,1.7,6.5,4.4,7.8l-1.3,1.6c-1.9-1-3.4-3-4.2-5.3c-0.8,2.5-2.3,4.6-4.4,5.7l-1.3-1.7
		c2.8-1.4,4.6-4.8,4.6-8.1v-3h2.1v3H438.3z M448.8,303.2H446v9.2h-2.1v-18.1h2.1v7.2h2.8V303.2z"/>
	<path class="st0" d="M465.5,294.3v9.7h-2.1v-3.8h-3.3c-0.4,2-2.2,3.4-4.6,3.4c-2.7,0-4.7-1.7-4.7-4.2s2-4.2,4.7-4.2
		c2.4,0,4.2,1.3,4.6,3.4h3.3v-4.2L465.5,294.3L465.5,294.3z M458.2,299.3c0-1.5-1.2-2.5-2.7-2.5c-1.6,0-2.7,1-2.7,2.5
		s1.1,2.5,2.7,2.5C457,301.9,458.2,300.9,458.2,299.3z M463.5,304.9h2v7.3h-11.7v-7.3h2v2h7.7V304.9z M463.5,308.5h-7.7v2h7.7V308.5
		z"/>
	<path class="st0" d="M478.7,304.4c-2-0.6-3.5-1.9-4.2-3.6c-0.8,1.9-2.3,3.5-4.5,4.2l-1-1.6c2.8-1,4.4-3.3,4.4-5.8v-0.4h-3.8v-1.7
		h9.7v1.7h-3.8v0.3c0,2.2,1.5,4.3,4.3,5.2L478.7,304.4z M483.4,309c0,2.1-2.3,3.4-6,3.4s-6-1.3-6-3.4c0-2.2,2.3-3.4,6-3.4
		C481.1,305.5,483.4,306.8,483.4,309z M481.4,309c0-1.2-1.5-1.8-4-1.8s-4,0.6-4,1.8s1.5,1.8,4,1.8S481.4,310.1,481.4,309z
		 M485.8,298.7v1.7h-2.6v4.7h-2.1v-10.8h2.1v4.4L485.8,298.7L485.8,298.7z"/>
</g>
<g class="st1">
	<path class="st0" d="M597.9,172.2h1.4v15h-1.4v-7.9h-2c-0.1,3.2-1.4,5.1-3.4,5.1c-2.1,0-3.5-2.2-3.5-5.7c0-3.4,1.4-5.6,3.5-5.6
		c1.9,0,3.2,1.9,3.4,4.9h2V172.2z M594.6,178.8c0-2.6-0.8-4.2-2.1-4.2c-1.3,0-2.1,1.6-2.1,4.2c0,2.6,0.8,4.3,2.1,4.3
		C593.8,183.1,594.6,181.5,594.6,178.8z M602.6,171.9v16.2h-1.4v-16.2H602.6z"/>
	<path class="st0" d="M607.8,182.9c2.4,0,4.6-0.2,7-0.7l0.2,1.3c-2.6,0.5-4.8,0.6-7.4,0.6h-1.3v-10.4h1.5L607.8,182.9L607.8,182.9z
		 M618.7,171.9v16.2h-1.5v-9.6h-5v-1.2h5V172L618.7,171.9L618.7,171.9z"/>
	<path class="st0" d="M627.7,176.8c0,2.7,1.9,5.5,4.3,6.5l-0.8,1.2c-1.9-0.9-3.5-2.7-4.2-4.9c-0.7,2.4-2.3,4.4-4.2,5.3l-0.9-1.2
		c2.3-1.1,4.3-4.1,4.3-6.9v-2.1h-3.7v-1.2h9v1.2h-3.8L627.7,176.8L627.7,176.8z M635.2,171.9V188h-1.5v-16.1H635.2z"/>
	<path class="st0" d="M641.3,180.2c0-0.8,0.5-1.3,1.2-1.3s1.2,0.5,1.2,1.3c0,0.7-0.5,1.2-1.2,1.2S641.3,180.9,641.3,180.2z"/>
	<path class="st0" d="M663.2,180.5v1.2h-14.6v-1.2h6.6v-1.7c-3-0.2-5-1.3-5-3.2c0-2,2.2-3.2,5.7-3.2c3.4,0,5.7,1.2,5.7,3.2
		c0,1.9-1.9,3-4.9,3.2v1.7H663.2z M652,186.5h9.6v1.2h-11.1V183h1.5V186.5z M655.9,177.6c2.5,0,4.1-0.7,4.1-2s-1.6-2-4.1-2
		c-2.6,0-4.2,0.8-4.2,2S653.4,177.6,655.9,177.6z"/>
	<path class="st0" d="M674.2,179.8c-1.9-0.6-3.3-2-4.1-3.7c-0.7,1.9-2.2,3.3-4.1,4l-0.8-1.2c2.4-0.8,4.1-3,4.1-5.3v-1.2h1.5v1.2
		c0,2.2,1.7,4.2,4.1,5L674.2,179.8z M679,186.7v1.2h-11v-4h9v-1.6h-9v-1.2h10.5v3.9h-9v1.7L679,186.7L679,186.7z M678.4,180.3h-1.5
		v-8.4h1.5V180.3z"/>
	<path class="st0" d="M690,173.6c0,4.6-2.1,8.8-7.3,11.4l-0.8-1.2c4.1-2.1,6.3-5.2,6.7-9h-5.9v-1.2H690z M696.8,179.7h-2.6v8.4h-1.5
		v-16.2h1.5v6.6h2.6V179.7z"/>
	<path class="st0" d="M712.9,184.6v1.2h-14.6v-1.2H712.9z M711.5,181.2c-2.4-0.6-5-2.3-6-4.7c-1,2.4-3.5,4.1-6,4.7l-0.7-1.2
		c2.8-0.6,5.9-3,5.9-5.7v-1.2h1.5v1.2c0,2.8,3.1,5.2,5.9,5.7L711.5,181.2z"/>
	<path class="st0" d="M727.7,181.3c-1.8-0.6-3.2-2-3.9-3.7c-0.7,1.8-2.2,3.3-4.1,4l-0.8-1.2c2.4-0.9,4.1-3,4.1-5.3v-0.8h-3.6v-1.2
		h8.6v1.2h-3.5v0.8c0,2.1,1.6,4.1,3.9,5L727.7,181.3z M732.6,186.5v1.2h-10.8v-5h1.5v3.8H732.6z M730.7,176.3v-4.4h1.5v11.8h-1.5
		v-6.2h-3.2v-1.2L730.7,176.3L730.7,176.3z"/>
	<path class="st0" d="M745,179.6c-2.2,0.5-4.1,0.6-7.5,0.6h-1.3V173h7.1v1.2h-5.6v4.8c3.2,0,5-0.1,7.1-0.5L745,179.6z M737.8,181.9
		h10.1v5.9h-10.1V181.9z M739.3,186.6h7.2v-3.5h-7.2V186.6z M750.4,177H748v4h-1.5v-9.2h1.5v4h2.4V177z"/>
	<path class="st0" d="M770.7,184.7v1.2H756v-1.2h6.6v-3.9h1.5v3.9H770.7z M756.7,180.2c2.8-0.5,5.9-2.7,5.9-5.3v-0.3h-5.3v-1.2h12.2
		v1.2h-5.3v0.3c0,2.6,3.1,4.8,5.9,5.2l-0.6,1.2c-2.5-0.5-5-2.1-6-4.3c-1,2.2-3.6,3.8-6,4.4L756.7,180.2z"/>
	<path class="st0" d="M781.7,180.9c-1.9-0.6-3.3-2-4.1-3.7c-0.7,1.8-2.2,3.3-4.1,4l-0.8-1.2c2.4-0.9,4.1-3,4.1-5.2v-0.6h-3.7V173
		h8.9v1.2h-3.7v0.6c0,2.2,1.7,4.1,4.1,4.9L781.7,180.9z M775,182.5h10.8v5.5h-1.5v-4.3H775V182.5z M785.9,171.9v9.8h-1.5v-9.8H785.9
		z"/>
</g>
<rect id="사각형_274" y="340.7" class="st3" width="146" height="60"/>
<g class="st1">
	<path class="st0" d="M71.1,371v1.2h-6.5v3.9H63v-3.9h-6.7V371h10.9c0.4-2.1,0.4-3.6,0.4-5v-0.1h-9.5v-1.2H69v1.3c0,1.4,0,2.9-0.4,5
		H71.1z M59.7,378.5h9.8v1.2H58.2v-5h1.5V378.5z"/>
	<path class="st0" d="M81.6,373.2c-1.8-0.7-3.2-2-3.9-3.7c-0.7,1.9-2.1,3.4-4,4.1l-0.8-1.2c2.5-0.9,4-3,4-5.5v-2h1.5v2
		c0,2.2,1.6,4.3,4,5.1L81.6,373.2z M77,378.5h9.2v1.2H75.5v-5H77V378.5z M87.9,368.8v1.2h-2.4v5.7H84v-11.9h1.5v5H87.9z"/>
</g>
<rect id="사각형_275" x="155" y="340.7" class="st3" width="146" height="60"/>
<g class="st1">
	<path class="st0" d="M226,376.8v1.2h-14.6v-1.2h6.5v-3.7h-5.2v-1.2h2.5v-5.3h-2.5v-1.2h12v1.2h-2.5v5.3h2.5v1.2h-5.2v3.7H226z
		 M216.7,371.9h4v-5.3h-4V371.9z"/>
	<path class="st0" d="M237.5,366.9H228v-1.2h4v-2h1.5v2h4V366.9z M232.8,373.4c-2.3,0-3.9-1.1-3.9-2.9c0-1.7,1.5-2.8,3.9-2.8
		s3.9,1.1,3.9,2.8C236.6,372.3,235.1,373.4,232.8,373.4z M240.7,377.2c0,1.8-2,2.8-5.3,2.8s-5.3-1-5.3-2.8s2-2.8,5.3-2.8
		S240.7,375.4,240.7,377.2z M232.8,372.3c1.5,0,2.5-0.7,2.5-1.7s-1-1.7-2.5-1.7s-2.4,0.7-2.4,1.7
		C230.3,371.6,231.3,372.3,232.8,372.3z M239.2,377.2c0-1-1.4-1.7-3.8-1.7c-2.4,0-3.8,0.6-3.8,1.7c0,1,1.4,1.7,3.8,1.7
		S239.2,378.3,239.2,377.2z M242.9,368.4v1.2h-2.4v4.7H239v-10.4h1.5v4.5H242.9z"/>
</g>
<rect id="사각형_276" x="309" y="340.7" class="st3" width="147" height="60"/>
<g class="st1">
	<path class="st0" d="M376.5,372.2c-3.3,0.5-7.2,0.6-10.1,0.6l-0.2-1.2c1,0,2.2,0,3.4,0v-3.2h1.5v3.2c1.8-0.1,3.6-0.2,5.2-0.4
		L376.5,372.2z M373.4,370c0.4-1.7,0.4-3,0.4-3.9h-6.6v-1.2h8v0.9c0,1,0,2.5-0.4,4.4L373.4,370z M379.1,377.1c0,1.9-2.1,2.9-5.4,2.9
		s-5.4-1.1-5.4-2.9c0-1.8,2.1-2.9,5.4-2.9S379.1,375.2,379.1,377.1z M377.6,377.1c0-1.1-1.5-1.7-3.9-1.7s-3.9,0.6-3.9,1.7
		c0,1.1,1.5,1.8,3.9,1.8C376.2,378.8,377.6,378.2,377.6,377.1z M381.2,368.3v1.2h-2.3v4.4h-1.5v-10.1h1.5v4.4h2.3V368.3z"/>
	<path class="st0" d="M387.5,372.5c-2.4,0-4.2-1.6-4.2-3.8s1.8-3.8,4.2-3.8c2.4,0,4.2,1.5,4.2,3.8
		C391.7,370.9,389.9,372.5,387.5,372.5z M387.5,371.2c1.6,0,2.8-1.1,2.8-2.6s-1.2-2.6-2.8-2.6c-1.6,0-2.8,1-2.8,2.6
		C384.7,370.1,385.9,371.2,387.5,371.2z M395.7,377c0,1.9-2.1,3-5.3,3c-3.3,0-5.3-1.1-5.3-3s2.1-3,5.3-3S395.7,375.1,395.7,377z
		 M394.2,377c0-1.2-1.5-1.9-3.8-1.9c-2.4,0-3.9,0.7-3.9,1.9s1.5,1.9,3.9,1.9C392.7,378.8,394.2,378.1,394.2,377z M395.5,367.5v2.2
		h2.3v1.2h-2.3v2.5H394v-9.6h1.5v2.4h2.3v1.2h-2.3V367.5z"/>
</g>
<rect id="사각형_277" x="463" y="340.7" class="st3" width="146" height="60"/>
<g class="st1">
	<path class="st0" d="M529.2,368.7c0,2.3-1.8,3.8-4.2,3.8c-2.4,0-4.2-1.5-4.2-3.8s1.8-3.8,4.2-3.8
		C527.4,364.9,529.2,366.4,529.2,368.7z M522.2,368.7c0,1.5,1.2,2.6,2.8,2.6c1.6,0,2.8-1.1,2.8-2.6s-1.2-2.6-2.8-2.6
		C523.4,366.1,522.2,367.2,522.2,368.7z M533.6,374.4v5.7h-1.5v-4.5h-9.3v-1.2H533.6z M533.6,363.9v9.6h-1.5v-9.6H533.6z"/>
	<path class="st0" d="M545.6,373.2c-1.8-0.7-3.2-2-3.9-3.7c-0.7,1.9-2.1,3.4-4,4.1l-0.8-1.2c2.5-0.9,4-3,4-5.5v-2h1.5v2
		c0,2.2,1.6,4.3,4,5.1L545.6,373.2z M541,378.5h9.2v1.2h-10.7v-5h1.5V378.5z M551.9,368.8v1.2h-2.4v5.7H548v-11.9h1.5v5H551.9z"/>
</g>
<rect id="사각형_278" x="618" y="340.7" class="st3" width="147" height="60"/>
<g class="st1">
	<path class="st0" d="M667.7,368.7c0,2.3-1.8,3.8-4.2,3.8c-2.4,0-4.2-1.5-4.2-3.8s1.8-3.8,4.2-3.8
		C665.9,364.9,667.7,366.4,667.7,368.7z M660.7,368.7c0,1.5,1.2,2.6,2.8,2.6c1.6,0,2.8-1.1,2.8-2.6s-1.2-2.6-2.8-2.6
		C661.8,366.1,660.7,367.2,660.7,368.7z M672.1,374.4v5.7h-1.5v-4.5h-9.3v-1.2H672.1z M672.1,363.9v9.6h-1.5v-9.6H672.1z"/>
	<path class="st0" d="M684.1,373.2c-1.8-0.7-3.2-2-3.9-3.7c-0.7,1.9-2.1,3.4-4,4.1l-0.8-1.2c2.5-0.9,4-3,4-5.5v-2h1.5v2
		c0,2.2,1.6,4.3,4,5.1L684.1,373.2z M679.4,378.5h9.2v1.2H678v-5h1.5L679.4,378.5L679.4,378.5z M690.3,368.8v1.2h-2.4v5.7h-1.5
		v-11.9h1.5v5H690.3z"/>
</g>
<g class="st1">
	<path class="st0" d="M695.1,365.5h1.7l2.1,7.2c0.5,1.5,0.8,2.8,1.3,4.4h0.1c0.5-1.5,0.8-2.8,1.3-4.4l2.1-7.2h1.7l-4.2,13.2h-1.9
		L695.1,365.5z"/>
	<path class="st0" d="M707.2,365.5h1.7v13.2h-1.7V365.5z"/>
	<path class="st0" d="M712.5,365.5h3.8c3,0,4.9,1,4.9,3.9c0,2.8-2,4.1-4.9,4.1h-2.2v5.2h-1.7L712.5,365.5L712.5,365.5z M716.1,372.1
		c2.3,0,3.4-0.8,3.4-2.7s-1.2-2.5-3.5-2.5h-1.9v5.3h2V372.1z"/>
</g>
<rect id="사각형_279" x="774" y="340.7" class="st3" width="146" height="60"/>
<g class="st1">
	<path class="st0" d="M829.8,371.5c-0.8,1-1.9,1.5-3.3,1.5c-2.4,0-4.2-1.7-4.2-4.1c0-2.4,1.8-4.1,4.2-4.1c1.4,0,2.5,0.6,3.3,1.5h4.1
		v-2.5h1.5v11.9h-1.5v-4.3h-4.1V371.5z M826.5,371.7c1.6,0,2.7-1.2,2.7-2.8s-1.2-2.8-2.7-2.8c-1.6,0-2.8,1.2-2.8,2.8
		S824.9,371.7,826.5,371.7z M835.9,378.5v1.2h-10.8v-5.1h1.5v3.9L835.9,378.5L835.9,378.5z M830.5,367.6c0.1,0.4,0.2,0.9,0.2,1.4
		s-0.1,0.9-0.2,1.3h3.5v-2.7H830.5z"/>
	<path class="st0" d="M853.3,373.1h-6.6v7h-1.5v-7h-6.5v-1.2h10.7c0.5-2.3,0.5-4,0.5-5.5v-0.2h-9.4V365h10.8v1.4
		c0,1.5,0,3.2-0.4,5.5h2.4V373.1z"/>
	<path class="st0" d="M869.9,376.7v1.2h-14.7v-1.2h6.5v-3.9h1.5v3.9H869.9z M868.5,373c-2.5-0.5-5-2.2-6-4.5c-1,2.3-3.6,4-6,4.5
		l-0.6-1.2c2.8-0.5,5.9-2.9,5.9-5.6V365h1.5v1.2c0,2.7,3.1,5.1,5.9,5.6L868.5,373z"/>
</g>
<line id="선_392" class="st4" x1="460.6" y1="273.4" x2="460.6" y2="249.6"/>
<polyline class="st4" points="682.1,225.1 682.1,249.6 238.7,249.6 238.7,225.1 "/>
<polyline class="st4" points="0.5,332.7 0.5,273.4 919.5,273.4 919.5,332.7 "/>
<g>
	<line id="선_392_1_" class="st4" x1="460.2" y1="60.1" x2="460.2" y2="83.9"/>
	<polyline class="st4" points="238.7,108.4 238.7,83.9 682.1,83.9 682.1,108.4 	"/>
</g>
</svg>
