<?xml version="1.0" encoding="utf-8"?>
<!-- Generator: Adobe Illustrator 25.1.0, SVG Export Plug-In . SVG Version: 6.00 Build 0)  -->
<svg version="1.1" id="레이어_1" xmlns="http://www.w3.org/2000/svg" xmlns:xlink="http://www.w3.org/1999/xlink" x="0px"
	 y="0px" viewBox="0 0 921 470.5" style="enable-background:new 0 0 921 470.5;" xml:space="preserve">
<style type="text/css">
	.st0{enable-background:new    ;}
	.st1{fill:#3AA25C;}
	.st2{opacity:0.416;fill:none;stroke:#94989E;enable-background:new    ;}
	.st3{fill:#929397;}
	.st4{fill:#E2E2E2;}
	.st5{fill:#42454A;}
	.st6{fill:#FFFFFF;}
	.st7{fill:#A3A3A3;}
	.st8{fill:#3E3E3E;}
</style>
<g id="그룹_5512" transform="translate(-740 -3249.461)">
	<g class="st0">
		<path class="st1" d="M761,3268.8v2.5h-20v-2.5h8.4v-1.8c-3.9-0.4-6.4-2-6.4-4.5c0-2.8,3.2-4.6,8-4.6c4.8,0,8,1.8,8,4.6
			c0,2.5-2.5,4.2-6.5,4.5v1.8H761z M746.6,3276.6h12.1v2.5h-15.3v-6.4h3.2V3276.6z M751,3264.6c3,0,4.8-0.7,4.8-2
			c0-1.3-1.8-2.1-4.8-2.1c-3,0-4.7,0.7-4.7,2.1C746.3,3263.9,748.1,3264.6,751,3264.6z"/>
		<path class="st1" d="M775.2,3268.3c-2.5-0.7-4.2-2.3-5.2-4.2c-1,2.1-2.8,3.8-5.4,4.6l-1.5-2.5c3.7-1.1,5.3-3.9,5.3-6.6v-1.7h3.2
			v1.7c0,2.6,1.6,5.2,5.2,6.2L775.2,3268.3z M782,3276.9v2.4h-15.3v-6.1h11.6v-1.3h-11.6v-2.4h14.7v6h-11.6v1.4H782z M781.4,3268.6
			h-3.2v-11.1h3.2V3268.6z"/>
		<path class="st1" d="M796.6,3259.7c0,6.6-2.5,12.3-9.9,16l-1.8-2.4c5.1-2.6,7.9-6.1,8.4-11h-7.2v-2.6H796.6z M805.6,3268.5h-3.1
			v11h-3.2v-22.1h3.2v8.4h3.1V3268.5z"/>
		<path class="st1" d="M827.3,3274.3v2.6h-20v-2.6H827.3z M825.2,3270.5c-3.8-0.8-6.7-2.9-8.1-5.7c-1.4,2.8-4.2,5-8.1,5.7l-1.3-2.7
			c5-0.8,7.7-4.3,7.7-7.5v-1.6h3.4v1.6c0,3.2,2.7,6.7,7.7,7.5L825.2,3270.5z"/>
		<path class="st1" d="M841.2,3259.4h2.9v14.9h-8.7v-14.9h3v5h2.8V3259.4z M841.2,3266.8h-2.8v4.9h2.8V3266.8z M853.8,3257.4v22.1
			h-3v-11.1h-1.8v10.2h-3v-20.8h3v8.1h1.8v-8.4H853.8z"/>
		<path class="st1" d="M868.4,3269.1v1.3h6v5.5h-12.1v1.2H875v2.3h-15.8v-5.6h12.1v-1.1h-12.1v-2.3h6.1v-1.3h-8.4v-2.3h19.9v2.3
			H868.4z M857.7,3263.9c4.4-0.2,6.6-1.2,7.2-2.5h-6.1v-2.3h6.5v-1.8h3.2v1.8h6.5v2.3h-6.1c0.6,1.2,2.8,2.3,7.2,2.5l-0.9,2.3
			c-4.1-0.2-6.9-1.2-8.3-2.9c-1.4,1.6-4.2,2.6-8.3,2.9L857.7,3263.9z"/>
		<path class="st1" d="M886.7,3263v-1.8h-7v-2.5h10.1v6.6h-6.9v1.9c3.6,0,6-0.2,8.8-0.7l0.3,2.5c-3.1,0.6-5.9,0.7-10.3,0.7h-1.9
			v-6.8H886.7z M896.6,3275.3c0,2.6-2.9,4.2-7.5,4.2s-7.5-1.6-7.5-4.2c0-2.7,2.9-4.2,7.5-4.2S896.6,3272.7,896.6,3275.3z
			 M893.5,3275.3c0-1.2-1.5-1.8-4.4-1.8c-2.9,0-4.4,0.6-4.4,1.8c0,1.2,1.5,1.8,4.4,1.8C892,3277.1,893.5,3276.6,893.5,3275.3z
			 M896.4,3263v2.1h2.9v2.6h-2.9v3.1h-3.2v-13.3h3.2v3h2.9v2.6H896.4z"/>
	</g>
	<path id="패스_3166" class="st2" d="M1660.5,3321v356"/>
	<path id="패스_3168" class="st2" d="M1200.5,3321v356"/>
	<path id="패스_3174" class="st2" d="M740.5,3321v356"/>
	<g class="st0">
		<path class="st3" d="M934.9,3363.2c-1.7,0.3-3.2,0.4-5.8,0.4h-1v-5.8h5.6v0.9h-4.4v3.9c2.5,0,3.9-0.1,5.5-0.4L934.9,3363.2z
			 M930.6,3368.1h7.2v0.9h-8.4v-4.1h1.1V3368.1z M939.1,3360.5v1h-1.9v4.4h-1.1v-9.1h1.1v3.7H939.1z"/>
		<path class="st3" d="M948.8,3364c-1.2,0.2-2.4,0.4-3.6,0.4v4.5H944v-4.5c-1.2,0.1-2.4,0.1-3.5,0.1l-0.2-1c2.3,0,5.5,0,8.3-0.4
			L948.8,3364z M941.3,3359.9c0-1.5,1.3-2.6,3.2-2.6c1.9,0,3.2,1,3.2,2.6c0,1.5-1.3,2.6-3.2,2.6
			C942.7,3362.5,941.3,3361.4,941.3,3359.9z M942.4,3359.9c0,1,0.9,1.6,2.1,1.6c1.2,0,2.1-0.7,2.1-1.6s-0.9-1.6-2.1-1.6
			C943.3,3358.3,942.4,3358.9,942.4,3359.9z M950.7,3356.7v12.6h-1.1v-12.6H950.7z"/>
		<path class="st3" d="M956.7,3361.8c0-0.6,0.4-1,0.9-1c0.5,0,0.9,0.4,0.9,1c0,0.6-0.4,1-0.9,1
			C957.1,3362.8,956.7,3362.4,956.7,3361.8z M956.7,3367.5c0-0.6,0.4-1,0.9-1c0.5,0,0.9,0.4,0.9,1s-0.4,1-0.9,1
			C957.1,3368.4,956.7,3368.1,956.7,3367.5z"/>
	</g>
	<g class="st0">
		<path class="st3" d="M964.2,3365.9v-4.2h-1.1v-1l1.2-0.1l0.2-2.1h1.1v2.1h2.1v1h-2.1v4.2c0,0.9,0.3,1.5,1.2,1.5
			c0.3,0,0.6-0.1,0.9-0.2l0.3,1c-0.4,0.1-0.9,0.3-1.4,0.3C964.8,3368.4,964.2,3367.4,964.2,3365.9z"/>
		<path class="st3" d="M968.8,3363.1c0-3.3,1.9-5.3,4.6-5.3c1.2,0,2.2,0.6,2.8,1.3l-0.7,0.8c-0.5-0.6-1.2-1-2.1-1
			c-1.9,0-3.2,1.6-3.2,4.2c0,2.6,1.2,4.2,3.2,4.2c1,0,1.7-0.4,2.4-1.1l0.7,0.8c-0.8,0.9-1.8,1.5-3.2,1.5
			C970.7,3368.4,968.8,3366.5,968.8,3363.1z"/>
		<path class="st3" d="M977.3,3363.1c0-3.3,1.8-5.3,4.4-5.3c2.6,0,4.4,2,4.4,5.3s-1.8,5.4-4.4,5.4
			C979.1,3368.4,977.3,3366.4,977.3,3363.1z M984.7,3363.1c0-2.6-1.2-4.2-3.1-4.2c-1.8,0-3.1,1.6-3.1,4.2c0,2.6,1.2,4.2,3.1,4.2
			C983.5,3367.3,984.7,3365.7,984.7,3363.1z"/>
	</g>
	<g class="st0">
		<path class="st3" d="M987.2,3372.5c1.9-1.6,2.7-2.8,2.7-3.9c0-0.7-0.4-1.2-1.1-1.2c-0.5,0-0.9,0.3-1.2,0.7l-0.4-0.4
			c0.5-0.5,1-0.9,1.8-0.9c1.1,0,1.7,0.7,1.7,1.8c0,1.2-0.9,2.4-2.3,3.7c0.3,0,0.7-0.1,1-0.1h1.7v0.6h-3.8V3372.5z"/>
	</g>
	<g class="st0">
		<path class="st3" d="M992,3363.8h3.6v1H992V3363.8z"/>
		<path class="st3" d="M997,3364.5c0-2.5,1.7-4,3.4-4c1.9,0,3,1.4,3,3.6c0,0.3,0,0.5-0.1,0.7h-5.1c0.1,1.6,1.1,2.7,2.5,2.7
			c0.7,0,1.3-0.2,1.9-0.6l0.5,0.8c-0.7,0.4-1.5,0.8-2.5,0.8C998.6,3368.4,997,3367,997,3364.5z M1002.3,3363.8
			c0-1.5-0.7-2.4-1.9-2.4c-1.1,0-2,0.9-2.2,2.4H1002.3z"/>
		<path class="st3" d="M1010.1,3368.8l0.1-1.4c-0.6,0.6-1.4,1.1-2.3,1.1c-1.9,0-3.1-1.4-3.1-4c0-2.5,1.6-4,3.3-4
			c0.9,0,1.5,0.3,2.2,0.9h0l0.1-0.7h1v10.8h-1.3V3368.8z M1010.1,3366.3v-4c-0.6-0.6-1.2-0.8-1.8-0.8c-1.2,0-2.2,1.2-2.2,2.9
			c0,1.8,0.8,2.9,2.1,2.9C1008.9,3367.4,1009.5,3367,1010.1,3366.3z"/>
	</g>
	<path id="패스_3173" class="st4" d="M843,3676.9h60v-197.4h-60V3676.9z"/>
	<path id="패스_3171" class="st4" d="M940,3676.9h60v-176.5h-60V3676.9z"/>
	<path id="패스_3170" class="st1" d="M1037,3676.9h60v-160.5h-60V3676.9z"/>
	<g class="st0">
		<path class="st5" d="M860.3,3661.1c0.8-0.7,1.5-1.3,2-1.8c0.5-0.5,0.9-0.9,1.2-1.5c0.3-0.5,0.5-1,0.5-1.5c0-0.5-0.1-0.9-0.4-1.2
			s-0.6-0.4-1.2-0.4c-0.5,0-0.9,0.2-1.2,0.5c-0.3,0.3-0.4,0.8-0.4,1.3h-1.4c0-1,0.3-1.7,0.9-2.3c0.6-0.5,1.3-0.8,2.2-0.8
			c0.9,0,1.7,0.3,2.2,0.8c0.5,0.5,0.8,1.2,0.8,2.1c0,0.6-0.2,1.2-0.5,1.8c-0.3,0.6-0.7,1.1-1.1,1.5c-0.4,0.5-1,1-1.7,1.6l-0.6,0.5
			h4.1v1.2h-6.3v-1.1L860.3,3661.1z"/>
		<path class="st5" d="M867.7,3654.7c0.5-0.8,1.4-1.3,2.6-1.3c1.2,0,2.1,0.4,2.6,1.3c0.5,0.8,0.8,2,0.8,3.5c0,1.5-0.3,2.7-0.8,3.6
			c-0.5,0.9-1.4,1.3-2.6,1.3c-1.2,0-2.1-0.4-2.6-1.3s-0.8-2-0.8-3.6C866.9,3656.7,867.2,3655.5,867.7,3654.7z M872.1,3656.4
			c-0.1-0.5-0.3-0.9-0.6-1.2s-0.7-0.5-1.2-0.5c-0.5,0-1,0.2-1.2,0.5s-0.5,0.7-0.6,1.2s-0.1,1.1-0.1,1.8c0,0.7,0,1.3,0.1,1.8
			c0.1,0.5,0.3,0.9,0.6,1.2s0.7,0.5,1.2,0.5c0.5,0,1-0.2,1.2-0.5s0.5-0.7,0.6-1.2c0.1-0.5,0.1-1.1,0.1-1.8
			C872.2,3657.5,872.2,3656.9,872.1,3656.4z"/>
		<path class="st5" d="M875.1,3654.9v-1.4h2.7v9.5h-1.5v-8.1H875.1z"/>
		<path class="st5" d="M880.1,3656c0-0.5,0.1-0.9,0.4-1.3s0.6-0.7,1.1-0.9c0.5-0.2,1-0.3,1.7-0.3c0.7,0,1.2,0.1,1.7,0.3
			c0.5,0.2,0.8,0.5,1.1,0.9s0.4,0.8,0.4,1.3c0,0.5-0.1,0.9-0.4,1.3c-0.2,0.4-0.6,0.7-1,0.9c0.5,0.2,0.9,0.5,1.2,0.9
			c0.3,0.4,0.4,0.9,0.4,1.4c0,0.6-0.1,1.1-0.4,1.5c-0.3,0.4-0.7,0.8-1.2,1c-0.5,0.2-1.1,0.4-1.7,0.4s-1.2-0.1-1.7-0.4
			c-0.5-0.2-0.9-0.6-1.2-1c-0.3-0.4-0.4-0.9-0.4-1.5c0-0.6,0.1-1,0.4-1.5c0.3-0.4,0.7-0.7,1.2-0.9
			C880.5,3657.7,880.1,3657,880.1,3656z M881.8,3659.2c-0.4,0.3-0.5,0.7-0.5,1.2c0,0.5,0.2,0.9,0.5,1.2c0.3,0.3,0.8,0.5,1.4,0.5
			c0.6,0,1.1-0.2,1.4-0.5c0.3-0.3,0.5-0.7,0.5-1.2c0-0.5-0.2-0.9-0.5-1.2c-0.4-0.3-0.8-0.4-1.4-0.4
			C882.6,3658.8,882.2,3658.9,881.8,3659.2z M884.4,3655c-0.3-0.3-0.7-0.4-1.2-0.4c-0.5,0-0.9,0.1-1.2,0.4c-0.3,0.3-0.5,0.6-0.5,1.1
			c0,0.4,0.2,0.8,0.5,1.1c0.3,0.3,0.7,0.4,1.2,0.4s0.9-0.1,1.2-0.4c0.3-0.3,0.5-0.6,0.5-1.1C884.9,3655.7,884.7,3655.3,884.4,3655z"
			/>
	</g>
	<g class="st0">
		<path class="st5" d="M957.3,3661.1c0.8-0.7,1.5-1.3,2-1.8c0.5-0.5,0.9-0.9,1.2-1.5c0.3-0.5,0.5-1,0.5-1.5c0-0.5-0.1-0.9-0.4-1.2
			s-0.6-0.4-1.2-0.4c-0.5,0-0.9,0.2-1.2,0.5c-0.3,0.3-0.4,0.8-0.4,1.3h-1.4c0-1,0.3-1.7,0.9-2.3c0.6-0.5,1.3-0.8,2.2-0.8
			c0.9,0,1.7,0.3,2.2,0.8c0.5,0.5,0.8,1.2,0.8,2.1c0,0.6-0.2,1.2-0.5,1.8c-0.3,0.6-0.7,1.1-1.1,1.5c-0.4,0.5-1,1-1.7,1.6l-0.6,0.5
			h4.1v1.2h-6.3v-1.1L957.3,3661.1z"/>
		<path class="st5" d="M964.7,3654.7c0.5-0.8,1.4-1.3,2.6-1.3c1.2,0,2.1,0.4,2.6,1.3c0.5,0.8,0.8,2,0.8,3.5c0,1.5-0.3,2.7-0.8,3.6
			c-0.5,0.9-1.4,1.3-2.6,1.3c-1.2,0-2.1-0.4-2.6-1.3s-0.8-2-0.8-3.6C964,3656.7,964.2,3655.5,964.7,3654.7z M969.1,3656.4
			c-0.1-0.5-0.3-0.9-0.6-1.2s-0.7-0.5-1.2-0.5c-0.5,0-1,0.2-1.2,0.5s-0.5,0.7-0.6,1.2s-0.1,1.1-0.1,1.8c0,0.7,0,1.3,0.1,1.8
			c0.1,0.5,0.3,0.9,0.6,1.2s0.7,0.5,1.2,0.5c0.5,0,1-0.2,1.2-0.5s0.5-0.7,0.6-1.2c0.1-0.5,0.1-1.1,0.1-1.8
			C969.3,3657.5,969.2,3656.9,969.1,3656.4z"/>
		<path class="st5" d="M972.1,3654.9v-1.4h2.7v9.5h-1.5v-8.1H972.1z"/>
		<path class="st5" d="M979.2,3661.5c0.3,0.2,0.7,0.3,1.2,0.3c0.6,0,1.1-0.2,1.4-0.7c0.3-0.5,0.4-1.3,0.4-2.5
			c-0.2,0.3-0.5,0.5-0.9,0.7s-0.8,0.2-1.2,0.2c-0.6,0-1.1-0.1-1.5-0.3c-0.5-0.2-0.8-0.6-1.1-1c-0.3-0.5-0.4-1-0.4-1.7
			c0-1,0.3-1.7,0.8-2.3c0.6-0.6,1.3-0.9,2.3-0.9c1.2,0,2,0.4,2.5,1.2c0.5,0.8,0.7,2,0.7,3.6c0,1.1-0.1,2-0.3,2.7s-0.5,1.2-1,1.6
			c-0.5,0.4-1.1,0.5-1.9,0.5c-0.9,0-1.6-0.2-2.1-0.7c-0.5-0.5-0.8-1.1-0.8-1.8h1.4C978.8,3660.9,979,3661.3,979.2,3661.5z
			 M981.6,3657.8c0.3-0.3,0.4-0.8,0.4-1.3c0-0.6-0.2-1.1-0.5-1.4c-0.3-0.3-0.7-0.5-1.3-0.5s-1,0.2-1.3,0.5c-0.3,0.3-0.5,0.8-0.5,1.3
			c0,0.5,0.2,1,0.5,1.3c0.3,0.3,0.8,0.5,1.4,0.5C980.9,3658.3,981.3,3658.1,981.6,3657.8z"/>
	</g>
	<g class="st0">
		<path class="st6" d="M1052.4,3661c0.8-0.7,1.5-1.3,2-1.7c0.5-0.5,0.9-0.9,1.2-1.5c0.3-0.5,0.5-1,0.5-1.5c0-0.4-0.1-0.8-0.3-1
			c-0.2-0.3-0.5-0.4-1-0.4c-0.4,0-0.8,0.1-1,0.4c-0.2,0.3-0.4,0.7-0.4,1.2h-1.8c0-1,0.3-1.8,0.9-2.4s1.3-0.8,2.2-0.8
			c1,0,1.7,0.3,2.3,0.8s0.8,1.2,0.8,2.1c0,0.7-0.2,1.3-0.5,1.9c-0.4,0.6-0.8,1.2-1.2,1.6c-0.5,0.5-1.1,1-1.8,1.6h3.8v1.5h-6.4v-1.4
			L1052.4,3661z"/>
		<path class="st6" d="M1060.1,3654.7c0.5-0.8,1.4-1.3,2.7-1.3c1.3,0,2.2,0.4,2.7,1.3s0.8,2,0.8,3.5c0,1.5-0.3,2.7-0.8,3.5
			c-0.5,0.9-1.4,1.3-2.7,1.3c-1.3,0-2.2-0.4-2.7-1.3c-0.5-0.9-0.8-2-0.8-3.5C1059.3,3656.7,1059.6,3655.5,1060.1,3654.7z
			 M1064.4,3656.6c-0.1-0.4-0.2-0.8-0.5-1.1s-0.6-0.4-1.1-0.4c-0.5,0-0.9,0.1-1.1,0.4s-0.4,0.6-0.5,1.1s-0.1,1-0.1,1.6
			c0,0.7,0,1.2,0.1,1.7s0.2,0.8,0.5,1.1c0.3,0.3,0.6,0.4,1.1,0.4c0.5,0,0.9-0.1,1.1-0.4c0.3-0.3,0.4-0.6,0.5-1.1
			c0.1-0.4,0.1-1,0.1-1.7C1064.5,3657.6,1064.5,3657,1064.4,3656.6z"/>
		<path class="st6" d="M1068.3,3661c0.8-0.7,1.5-1.3,2-1.7c0.5-0.5,0.9-0.9,1.2-1.5c0.3-0.5,0.5-1,0.5-1.5c0-0.4-0.1-0.8-0.3-1
			c-0.2-0.3-0.5-0.4-1-0.4c-0.4,0-0.8,0.1-1,0.4c-0.2,0.3-0.4,0.7-0.4,1.2h-1.8c0-1,0.3-1.8,0.9-2.4s1.3-0.8,2.2-0.8
			c1,0,1.7,0.3,2.3,0.8s0.8,1.2,0.8,2.1c0,0.7-0.2,1.3-0.5,1.9c-0.4,0.6-0.8,1.2-1.2,1.6c-0.5,0.5-1.1,1-1.8,1.6h3.8v1.5h-6.4v-1.4
			L1068.3,3661z"/>
		<path class="st6" d="M1076,3654.7c0.5-0.8,1.4-1.3,2.7-1.3c1.3,0,2.2,0.4,2.7,1.3s0.8,2,0.8,3.5c0,1.5-0.3,2.7-0.8,3.5
			c-0.5,0.9-1.4,1.3-2.7,1.3c-1.3,0-2.2-0.4-2.7-1.3c-0.5-0.9-0.8-2-0.8-3.5C1075.2,3656.7,1075.4,3655.5,1076,3654.7z
			 M1080.3,3656.6c-0.1-0.4-0.2-0.8-0.5-1.1s-0.6-0.4-1.1-0.4c-0.5,0-0.9,0.1-1.1,0.4s-0.4,0.6-0.5,1.1s-0.1,1-0.1,1.6
			c0,0.7,0,1.2,0.1,1.7s0.2,0.8,0.5,1.1c0.3,0.3,0.6,0.4,1.1,0.4c0.5,0,0.9-0.1,1.1-0.4c0.3-0.3,0.4-0.6,0.5-1.1
			c0.1-0.4,0.1-1,0.1-1.7C1080.4,3657.6,1080.3,3657,1080.3,3656.6z"/>
	</g>
	<g id="그룹_5359" transform="translate(10 476.03)">
		<g class="st0">
			<path class="st7" d="M836.5,2976.9l-5,11.5h-2.1l5.1-11.3h-6.7v-1.7h8.7V2976.9z"/>
			<path class="st7" d="M839.4,2976.9c0.7-1.2,1.9-1.8,3.6-1.8c1.7,0,2.9,0.6,3.6,1.8c0.7,1.2,1.1,2.8,1.1,4.9
				c0,2.1-0.4,3.7-1.1,4.9c-0.7,1.2-1.9,1.8-3.6,1.8c-1.7,0-2.9-0.6-3.6-1.8c-0.7-1.2-1.1-2.8-1.1-4.9
				C838.3,2979.7,838.7,2978,839.4,2976.9z M845.5,2979.3c-0.1-0.7-0.4-1.2-0.8-1.6c-0.4-0.4-1-0.6-1.7-0.6c-0.8,0-1.3,0.2-1.7,0.6
				c-0.4,0.4-0.6,1-0.8,1.6c-0.1,0.7-0.2,1.5-0.2,2.5c0,1,0.1,1.9,0.2,2.5c0.1,0.7,0.4,1.2,0.8,1.7c0.4,0.4,1,0.6,1.7,0.6
				c0.8,0,1.3-0.2,1.7-0.6c0.4-0.4,0.6-1,0.8-1.7c0.1-0.7,0.2-1.5,0.2-2.5C845.7,2980.8,845.6,2980,845.5,2979.3z"/>
			<path class="st7" d="M853.2,2986.3c0.4,0.3,0.9,0.5,1.6,0.5c0.9,0,1.5-0.3,1.9-1c0.4-0.7,0.6-1.8,0.6-3.4
				c-0.3,0.4-0.7,0.7-1.2,0.9c-0.5,0.2-1.1,0.3-1.7,0.3c-0.8,0-1.5-0.2-2.1-0.5c-0.6-0.3-1.1-0.8-1.5-1.4c-0.4-0.6-0.5-1.4-0.5-2.3
				c0-1.3,0.4-2.4,1.2-3.2s1.8-1.2,3.2-1.2c1.6,0,2.8,0.5,3.5,1.6c0.7,1.1,1,2.8,1,5c0,1.5-0.1,2.8-0.4,3.8c-0.3,1-0.7,1.7-1.3,2.2
				c-0.6,0.5-1.5,0.8-2.6,0.8c-1.3,0-2.3-0.3-3-1c-0.7-0.7-1.1-1.5-1.2-2.5h1.9C852.5,2985.5,852.8,2986,853.2,2986.3z
				 M856.4,2981.2c0.4-0.5,0.6-1,0.6-1.8c0-0.8-0.2-1.5-0.7-1.9c-0.4-0.5-1-0.7-1.8-0.7s-1.4,0.2-1.8,0.7s-0.7,1.1-0.7,1.9
				c0,0.7,0.2,1.3,0.6,1.8c0.4,0.5,1.1,0.7,1.9,0.7C855.4,2981.9,856,2981.6,856.4,2981.2z"/>
			<path class="st7" d="M863.8,2986l-2.2,5h-1.3l1.3-5H863.8z"/>
			<path class="st7" d="M873.8,2977.1h-6v3.6c0.3-0.3,0.6-0.6,1.1-0.8c0.5-0.2,1-0.3,1.6-0.3c1,0,1.8,0.2,2.5,0.6
				c0.6,0.4,1.1,1,1.4,1.6s0.4,1.4,0.4,2.1c0,0.9-0.2,1.7-0.5,2.4c-0.3,0.7-0.9,1.2-1.5,1.6c-0.7,0.4-1.5,0.6-2.5,0.6
				c-1.3,0-2.4-0.3-3.1-1c-0.8-0.6-1.3-1.5-1.4-2.6h2c0.1,0.6,0.4,1,0.9,1.3s1,0.5,1.7,0.5c0.9,0,1.5-0.3,1.9-0.8
				c0.4-0.5,0.6-1.2,0.6-2.1c0-0.9-0.2-1.5-0.6-2c-0.4-0.5-1.1-0.7-1.9-0.7c-0.6,0-1.1,0.1-1.5,0.4c-0.4,0.3-0.7,0.7-0.9,1.2h-1.9
				v-7.6h7.9V2977.1z"/>
			<path class="st7" d="M883.2,2977.2c-0.3-0.3-0.8-0.4-1.5-0.4c-0.9,0-1.7,0.4-2.1,1.1c-0.5,0.7-0.7,1.9-0.7,3.6
				c0.3-0.5,0.8-0.9,1.4-1.2s1.2-0.4,1.9-0.4c0.8,0,1.5,0.2,2.1,0.5c0.6,0.3,1.1,0.8,1.4,1.5c0.3,0.6,0.5,1.4,0.5,2.3
				c0,0.8-0.2,1.6-0.5,2.2s-0.8,1.2-1.5,1.6s-1.4,0.6-2.3,0.6c-1.2,0-2.2-0.3-2.9-0.8c-0.7-0.5-1.2-1.3-1.5-2.3s-0.4-2.2-0.4-3.7
				c0-4.4,1.5-6.6,4.6-6.6c1.2,0,2.1,0.3,2.8,1c0.7,0.6,1.1,1.4,1.2,2.4h-1.9C883.8,2977.8,883.5,2977.4,883.2,2977.2z
				 M879.8,2982.2c-0.5,0.4-0.8,1.1-0.8,1.9s0.2,1.5,0.7,2c0.5,0.5,1.1,0.7,2,0.7c0.8,0,1.4-0.2,1.8-0.7s0.7-1.1,0.7-1.9
				c0-0.8-0.2-1.5-0.6-2c-0.4-0.5-1.1-0.7-1.9-0.7C881,2981.5,880.4,2981.7,879.8,2982.2z"/>
			<path class="st7" d="M889.4,2976.9c0.7-1.2,1.9-1.8,3.6-1.8c1.7,0,2.9,0.6,3.6,1.8c0.7,1.2,1.1,2.8,1.1,4.9
				c0,2.1-0.4,3.7-1.1,4.9c-0.7,1.2-1.9,1.8-3.6,1.8c-1.7,0-2.9-0.6-3.6-1.8c-0.7-1.2-1.1-2.8-1.1-4.9
				C888.4,2979.7,888.7,2978,889.4,2976.9z M895.5,2979.3c-0.1-0.7-0.4-1.2-0.8-1.6c-0.4-0.4-1-0.6-1.7-0.6c-0.8,0-1.3,0.2-1.7,0.6
				c-0.4,0.4-0.6,1-0.8,1.6c-0.1,0.7-0.2,1.5-0.2,2.5c0,1,0.1,1.9,0.2,2.5c0.1,0.7,0.4,1.2,0.8,1.7c0.4,0.4,1,0.6,1.7,0.6
				c0.8,0,1.3-0.2,1.7-0.6c0.4-0.4,0.6-1,0.8-1.7c0.1-0.7,0.2-1.5,0.2-2.5C895.7,2980.8,895.7,2980,895.5,2979.3z"/>
		</g>
	</g>
	<g id="그룹_5358" transform="translate(0.236 464.578)">
		<g class="st0">
			<path class="st7" d="M946.2,3009.4c-0.3-0.3-0.8-0.4-1.5-0.4c-0.9,0-1.7,0.4-2.1,1.1c-0.5,0.7-0.7,1.9-0.7,3.6
				c0.3-0.5,0.8-0.9,1.4-1.2s1.2-0.4,1.9-0.4c0.8,0,1.5,0.2,2.1,0.5c0.6,0.3,1.1,0.8,1.4,1.5c0.3,0.6,0.5,1.4,0.5,2.3
				c0,0.8-0.2,1.6-0.5,2.2s-0.8,1.2-1.5,1.6s-1.4,0.6-2.3,0.6c-1.2,0-2.2-0.3-2.9-0.8c-0.7-0.5-1.2-1.3-1.5-2.3s-0.4-2.2-0.4-3.7
				c0-4.4,1.5-6.6,4.6-6.6c1.2,0,2.1,0.3,2.8,1c0.7,0.6,1.1,1.4,1.2,2.4H947C946.8,3010.1,946.6,3009.7,946.2,3009.4z M942.9,3014.5
				c-0.5,0.4-0.8,1.1-0.8,1.9s0.2,1.5,0.7,2c0.5,0.5,1.1,0.7,2,0.7c0.8,0,1.4-0.2,1.8-0.7s0.7-1.1,0.7-1.9c0-0.8-0.2-1.5-0.6-2
				c-0.4-0.5-1.1-0.7-1.9-0.7C944,3013.8,943.4,3014,942.9,3014.5z"/>
			<path class="st7" d="M952.7,3008.3c0.8-0.6,1.8-0.9,3-0.9c0.8,0,1.6,0.2,2.2,0.5c0.6,0.3,1.1,0.7,1.4,1.2
				c0.3,0.5,0.5,1.1,0.5,1.7c0,0.7-0.2,1.4-0.6,1.9c-0.4,0.5-0.9,0.9-1.4,1.1v0.1c0.7,0.2,1.3,0.6,1.7,1.2c0.4,0.6,0.6,1.3,0.6,2.2
				c0,0.7-0.2,1.3-0.5,1.9s-0.8,1-1.4,1.3c-0.6,0.3-1.4,0.5-2.3,0.5c-1.3,0-2.4-0.3-3.2-1c-0.8-0.7-1.3-1.6-1.3-2.9h2
				c0,0.6,0.3,1.2,0.7,1.6c0.4,0.4,1,0.6,1.8,0.6c0.7,0,1.3-0.2,1.7-0.6c0.4-0.4,0.6-0.9,0.6-1.6c0-0.8-0.3-1.4-0.8-1.8
				c-0.5-0.4-1.4-0.5-2.5-0.5h-0.5v-1.7h0.5c1,0,1.7-0.2,2.2-0.5s0.8-0.8,0.8-1.5c0-0.6-0.2-1-0.6-1.4c-0.4-0.3-0.9-0.5-1.6-0.5
				c-0.7,0-1.2,0.2-1.6,0.5c-0.4,0.3-0.6,0.8-0.7,1.3h-2C951.5,3009.8,951.9,3008.9,952.7,3008.3z"/>
			<path class="st7" d="M968.5,3009.4c-0.3-0.3-0.8-0.4-1.5-0.4c-0.9,0-1.7,0.4-2.1,1.1c-0.5,0.7-0.7,1.9-0.7,3.6
				c0.3-0.5,0.8-0.9,1.4-1.2s1.2-0.4,1.9-0.4c0.8,0,1.5,0.2,2.1,0.5c0.6,0.3,1.1,0.8,1.4,1.5c0.3,0.6,0.5,1.4,0.5,2.3
				c0,0.8-0.2,1.6-0.5,2.2s-0.8,1.2-1.5,1.6s-1.4,0.6-2.3,0.6c-1.2,0-2.2-0.3-2.9-0.8c-0.7-0.5-1.2-1.3-1.5-2.3s-0.4-2.2-0.4-3.7
				c0-4.4,1.5-6.6,4.6-6.6c1.2,0,2.1,0.3,2.8,1c0.7,0.6,1.1,1.4,1.2,2.4h-1.9C969.1,3010.1,968.8,3009.7,968.5,3009.4z
				 M965.2,3014.5c-0.5,0.4-0.8,1.1-0.8,1.9s0.2,1.5,0.7,2c0.5,0.5,1.1,0.7,2,0.7c0.8,0,1.4-0.2,1.8-0.7s0.7-1.1,0.7-1.9
				c0-0.8-0.2-1.5-0.6-2c-0.4-0.5-1.1-0.7-1.9-0.7C966.3,3013.8,965.7,3014,965.2,3014.5z"/>
			<path class="st7" d="M976.2,3018.3l-2.2,5h-1.3l1.3-5H976.2z"/>
			<path class="st7" d="M981.1,3018.6c0.4,0.3,0.9,0.5,1.6,0.5c0.9,0,1.5-0.3,1.9-1c0.4-0.7,0.6-1.8,0.6-3.4
				c-0.3,0.4-0.7,0.7-1.2,0.9c-0.5,0.2-1.1,0.3-1.7,0.3c-0.8,0-1.5-0.2-2.1-0.5c-0.6-0.3-1.1-0.8-1.5-1.4c-0.4-0.6-0.5-1.4-0.5-2.3
				c0-1.3,0.4-2.4,1.2-3.2s1.8-1.2,3.2-1.2c1.6,0,2.8,0.5,3.5,1.6c0.7,1.1,1,2.8,1,5c0,1.5-0.1,2.8-0.4,3.8c-0.3,1-0.7,1.7-1.3,2.2
				c-0.6,0.5-1.5,0.8-2.6,0.8c-1.3,0-2.3-0.3-3-1c-0.7-0.7-1.1-1.5-1.2-2.5h1.9C980.4,3017.8,980.7,3018.3,981.1,3018.6z
				 M984.3,3013.5c0.4-0.5,0.6-1,0.6-1.8c0-0.8-0.2-1.5-0.7-1.9c-0.4-0.5-1-0.7-1.8-0.7s-1.4,0.2-1.8,0.7s-0.7,1.1-0.7,1.9
				c0,0.7,0.2,1.3,0.6,1.8c0.4,0.5,1.1,0.7,1.9,0.7C983.3,3014.1,983.9,3013.9,984.3,3013.5z"/>
			<path class="st7" d="M988.9,3009.5v-1.9h3.7v13.1h-2.1v-11.2H988.9z"/>
			<path class="st7" d="M995.2,3009.5v-1.9h3.7v13.1h-2.1v-11.2H995.2z"/>
		</g>
	</g>
	<g id="그룹_5356" transform="translate(-10.707 445.6)">
		<g class="st0">
			<path class="st1" d="M1054.4,3044.6h-6v3.6c0.3-0.3,0.6-0.6,1.1-0.8c0.5-0.2,1-0.3,1.6-0.3c1,0,1.8,0.2,2.5,0.6
				c0.6,0.4,1.1,1,1.4,1.6s0.4,1.4,0.4,2.1c0,0.9-0.2,1.7-0.5,2.4c-0.3,0.7-0.9,1.2-1.5,1.6c-0.7,0.4-1.5,0.6-2.5,0.6
				c-1.3,0-2.4-0.3-3.1-1c-0.8-0.6-1.3-1.5-1.4-2.6h2c0.1,0.6,0.4,1,0.9,1.3s1,0.5,1.7,0.5c0.9,0,1.5-0.3,1.9-0.8
				c0.4-0.5,0.6-1.2,0.6-2.1c0-0.9-0.2-1.5-0.6-2c-0.4-0.5-1.1-0.7-1.9-0.7c-0.6,0-1.1,0.1-1.5,0.4c-0.4,0.3-0.7,0.7-0.9,1.2h-1.9
				v-7.6h7.9V3044.6z"/>
			<path class="st1" d="M1057.8,3046.1c0-0.6,0.2-1.2,0.5-1.8c0.3-0.5,0.8-1,1.5-1.3c0.6-0.3,1.4-0.5,2.4-0.5c0.9,0,1.7,0.2,2.4,0.5
				c0.7,0.3,1.1,0.7,1.5,1.3c0.3,0.5,0.5,1.1,0.5,1.8c0,0.7-0.2,1.3-0.5,1.8c-0.3,0.5-0.8,0.9-1.4,1.2c0.7,0.3,1.2,0.7,1.6,1.2
				c0.4,0.6,0.6,1.2,0.6,2c0,0.8-0.2,1.5-0.6,2.1s-0.9,1.1-1.7,1.4s-1.5,0.5-2.4,0.5c-0.9,0-1.7-0.2-2.4-0.5
				c-0.7-0.3-1.3-0.8-1.6-1.4s-0.6-1.3-0.6-2.1c0-0.8,0.2-1.5,0.6-2s0.9-1,1.6-1.2C1058.4,3048.4,1057.8,3047.4,1057.8,3046.1z
				 M1060.1,3050.5c-0.5,0.4-0.7,1-0.7,1.7c0,0.7,0.2,1.2,0.7,1.7c0.5,0.4,1.1,0.6,2,0.6c0.8,0,1.5-0.2,1.9-0.6
				c0.5-0.4,0.7-1,0.7-1.7c0-0.7-0.2-1.3-0.7-1.7c-0.5-0.4-1.1-0.6-1.9-0.6S1060.6,3050.1,1060.1,3050.5z M1063.8,3044.8
				c-0.4-0.4-1-0.5-1.7-0.5c-0.7,0-1.3,0.2-1.7,0.5c-0.4,0.4-0.6,0.9-0.6,1.6c0,0.6,0.2,1.1,0.7,1.5c0.4,0.4,1,0.6,1.7,0.6
				c0.7,0,1.2-0.2,1.7-0.6c0.4-0.4,0.7-0.9,0.7-1.5C1064.4,3045.7,1064.2,3045.2,1063.8,3044.8z"/>
			<path class="st1" d="M1068.6,3053.2v-1.5l6-8.7h2.5v8.4h1.7v1.8h-1.7v2.7h-2v-2.7H1068.6z M1075.2,3045l-4.2,6.4h4.2V3045z"/>
			<path class="st1" d="M1083.1,3053.4l-2.2,5h-1.3l1.3-5H1083.1z"/>
			<path class="st1" d="M1084.3,3044.7v-1.9h3.7v13.1h-2.1v-11.2H1084.3z"/>
			<path class="st1" d="M1092.1,3043.4c0.8-0.6,1.8-0.9,3-0.9c0.8,0,1.6,0.2,2.2,0.5c0.6,0.3,1.1,0.7,1.4,1.2
				c0.3,0.5,0.5,1.1,0.5,1.7c0,0.7-0.2,1.4-0.6,1.9c-0.4,0.5-0.9,0.9-1.4,1.1v0.1c0.7,0.2,1.3,0.6,1.7,1.2c0.4,0.6,0.6,1.3,0.6,2.2
				c0,0.7-0.2,1.3-0.5,1.9s-0.8,1-1.4,1.3c-0.6,0.3-1.4,0.5-2.3,0.5c-1.3,0-2.4-0.3-3.2-1c-0.8-0.7-1.3-1.6-1.3-2.9h2
				c0,0.6,0.3,1.2,0.7,1.6c0.4,0.4,1,0.6,1.8,0.6c0.7,0,1.3-0.2,1.7-0.6c0.4-0.4,0.6-0.9,0.6-1.6c0-0.8-0.3-1.4-0.8-1.8
				c-0.5-0.4-1.4-0.5-2.5-0.5h-0.5v-1.7h0.5c1,0,1.7-0.2,2.2-0.5s0.8-0.8,0.8-1.5c0-0.6-0.2-1-0.6-1.4c-0.4-0.3-0.9-0.5-1.6-0.5
				c-0.7,0-1.2,0.2-1.6,0.5c-0.4,0.3-0.6,0.8-0.7,1.3h-2C1090.9,3044.9,1091.4,3044,1092.1,3043.4z"/>
			<path class="st1" d="M1109.9,3044.4l-5,11.5h-2.1l5.1-11.3h-6.7v-1.7h8.7V3044.4z"/>
		</g>
	</g>
	<path id="패스_3167" class="st4" d="M1303,3676.9h60v-206.7h-60V3676.9z"/>
	<path id="패스_3169" class="st4" d="M1400,3676.9h60v-197.4h-60V3676.9z"/>
	<path id="패스_3172" class="st1" d="M1497,3676.9h60v-85.4h-60V3676.9z"/>
	<g class="st0">
		<path class="st5" d="M1320.3,3661.1c0.8-0.7,1.5-1.3,2-1.8c0.5-0.5,0.9-0.9,1.2-1.5c0.3-0.5,0.5-1,0.5-1.5c0-0.5-0.1-0.9-0.4-1.2
			s-0.6-0.4-1.2-0.4c-0.5,0-0.9,0.2-1.2,0.5c-0.3,0.3-0.4,0.8-0.4,1.3h-1.4c0-1,0.3-1.7,0.9-2.3s1.3-0.8,2.2-0.8
			c0.9,0,1.7,0.3,2.2,0.8c0.5,0.5,0.8,1.2,0.8,2.1c0,0.6-0.2,1.2-0.5,1.8c-0.3,0.6-0.7,1.1-1.1,1.5s-1,1-1.7,1.6l-0.6,0.5h4.1v1.2
			h-6.3v-1.1L1320.3,3661.1z"/>
		<path class="st5" d="M1327.7,3654.7c0.5-0.8,1.4-1.3,2.6-1.3c1.2,0,2.1,0.4,2.6,1.3c0.5,0.8,0.8,2,0.8,3.5c0,1.5-0.3,2.7-0.8,3.6
			s-1.4,1.3-2.6,1.3c-1.2,0-2.1-0.4-2.6-1.3s-0.8-2-0.8-3.6C1326.9,3656.7,1327.2,3655.5,1327.7,3654.7z M1332.1,3656.4
			c-0.1-0.5-0.3-0.9-0.6-1.2s-0.7-0.5-1.2-0.5c-0.5,0-1,0.2-1.2,0.5s-0.5,0.7-0.6,1.2s-0.1,1.1-0.1,1.8c0,0.7,0,1.3,0.1,1.8
			c0.1,0.5,0.3,0.9,0.6,1.2c0.3,0.3,0.7,0.5,1.2,0.5c0.5,0,1-0.2,1.2-0.5c0.3-0.3,0.5-0.7,0.6-1.2c0.1-0.5,0.1-1.1,0.1-1.8
			C1332.2,3657.5,1332.2,3656.9,1332.1,3656.4z"/>
		<path class="st5" d="M1335.1,3654.9v-1.4h2.7v9.5h-1.5v-8.1H1335.1z"/>
		<path class="st5" d="M1340.1,3656c0-0.5,0.1-0.9,0.4-1.3c0.2-0.4,0.6-0.7,1.1-0.9c0.5-0.2,1-0.3,1.7-0.3c0.7,0,1.2,0.1,1.7,0.3
			c0.5,0.2,0.8,0.5,1.1,0.9c0.2,0.4,0.4,0.8,0.4,1.3c0,0.5-0.1,0.9-0.4,1.3c-0.2,0.4-0.6,0.7-1,0.9c0.5,0.2,0.9,0.5,1.2,0.9
			c0.3,0.4,0.4,0.9,0.4,1.4c0,0.6-0.1,1.1-0.4,1.5c-0.3,0.4-0.7,0.8-1.2,1c-0.5,0.2-1.1,0.4-1.7,0.4c-0.6,0-1.2-0.1-1.7-0.4
			c-0.5-0.2-0.9-0.6-1.2-1c-0.3-0.4-0.4-0.9-0.4-1.5c0-0.6,0.1-1,0.4-1.5c0.3-0.4,0.7-0.7,1.2-0.9
			C1340.5,3657.7,1340.1,3657,1340.1,3656z M1341.8,3659.2c-0.4,0.3-0.5,0.7-0.5,1.2c0,0.5,0.2,0.9,0.5,1.2c0.3,0.3,0.8,0.5,1.4,0.5
			c0.6,0,1.1-0.2,1.4-0.5c0.3-0.3,0.5-0.7,0.5-1.2c0-0.5-0.2-0.9-0.5-1.2s-0.8-0.4-1.4-0.4
			C1342.6,3658.8,1342.2,3658.9,1341.8,3659.2z M1344.4,3655c-0.3-0.3-0.7-0.4-1.2-0.4c-0.5,0-0.9,0.1-1.2,0.4
			c-0.3,0.3-0.5,0.6-0.5,1.1c0,0.4,0.2,0.8,0.5,1.1c0.3,0.3,0.7,0.4,1.2,0.4s0.9-0.1,1.2-0.4c0.3-0.3,0.5-0.6,0.5-1.1
			C1344.9,3655.7,1344.7,3655.3,1344.4,3655z"/>
	</g>
	<g class="st0">
		<path class="st5" d="M1417.3,3661.1c0.8-0.7,1.5-1.3,2-1.8c0.5-0.5,0.9-0.9,1.2-1.5c0.3-0.5,0.5-1,0.5-1.5c0-0.5-0.1-0.9-0.4-1.2
			s-0.6-0.4-1.2-0.4c-0.5,0-0.9,0.2-1.2,0.5c-0.3,0.3-0.4,0.8-0.4,1.3h-1.4c0-1,0.3-1.7,0.9-2.3c0.6-0.5,1.3-0.8,2.2-0.8
			c0.9,0,1.7,0.3,2.2,0.8c0.5,0.5,0.8,1.2,0.8,2.1c0,0.6-0.2,1.2-0.5,1.8c-0.3,0.6-0.7,1.1-1.1,1.5c-0.4,0.5-1,1-1.7,1.6l-0.6,0.5
			h4.1v1.2h-6.3v-1.1L1417.3,3661.1z"/>
		<path class="st5" d="M1424.7,3654.7c0.5-0.8,1.4-1.3,2.6-1.3s2.1,0.4,2.6,1.3c0.5,0.8,0.8,2,0.8,3.5c0,1.5-0.3,2.7-0.8,3.6
			c-0.5,0.9-1.4,1.3-2.6,1.3s-2.1-0.4-2.6-1.3s-0.8-2-0.8-3.6C1424,3656.7,1424.2,3655.5,1424.7,3654.7z M1429.1,3656.4
			c-0.1-0.5-0.3-0.9-0.6-1.2s-0.7-0.5-1.2-0.5s-1,0.2-1.2,0.5s-0.5,0.7-0.6,1.2s-0.1,1.1-0.1,1.8c0,0.7,0,1.3,0.1,1.8
			s0.3,0.9,0.6,1.2c0.3,0.3,0.7,0.5,1.2,0.5s1-0.2,1.2-0.5c0.3-0.3,0.5-0.7,0.6-1.2s0.1-1.1,0.1-1.8
			C1429.3,3657.5,1429.2,3656.9,1429.1,3656.4z"/>
		<path class="st5" d="M1432.1,3654.9v-1.4h2.7v9.5h-1.5v-8.1H1432.1z"/>
		<path class="st5" d="M1439.2,3661.5c0.3,0.2,0.7,0.3,1.2,0.3c0.6,0,1.1-0.2,1.4-0.7s0.4-1.3,0.4-2.5c-0.2,0.3-0.5,0.5-0.9,0.7
			s-0.8,0.2-1.2,0.2c-0.6,0-1.1-0.1-1.5-0.3c-0.5-0.2-0.8-0.6-1.1-1s-0.4-1-0.4-1.7c0-1,0.3-1.7,0.8-2.3c0.6-0.6,1.3-0.9,2.3-0.9
			c1.2,0,2,0.4,2.5,1.2c0.5,0.8,0.7,2,0.7,3.6c0,1.1-0.1,2-0.3,2.7s-0.5,1.2-1,1.6c-0.5,0.4-1.1,0.5-1.9,0.5c-0.9,0-1.6-0.2-2.1-0.7
			c-0.5-0.5-0.8-1.1-0.8-1.8h1.4C1438.8,3660.9,1439,3661.3,1439.2,3661.5z M1441.6,3657.8c0.3-0.3,0.4-0.8,0.4-1.3
			c0-0.6-0.2-1.1-0.5-1.4c-0.3-0.3-0.7-0.5-1.3-0.5s-1,0.2-1.3,0.5c-0.3,0.3-0.5,0.8-0.5,1.3c0,0.5,0.2,1,0.5,1.3
			c0.3,0.3,0.8,0.5,1.4,0.5C1440.9,3658.3,1441.3,3658.1,1441.6,3657.8z"/>
	</g>
	<g class="st0">
		<path class="st6" d="M1512.4,3661c0.8-0.7,1.5-1.3,2-1.7c0.5-0.5,0.9-0.9,1.2-1.5c0.3-0.5,0.5-1,0.5-1.5c0-0.4-0.1-0.8-0.3-1
			c-0.2-0.3-0.5-0.4-1-0.4s-0.8,0.1-1,0.4c-0.2,0.3-0.4,0.7-0.4,1.2h-1.8c0-1,0.3-1.8,0.9-2.4s1.3-0.8,2.2-0.8c1,0,1.7,0.3,2.3,0.8
			c0.5,0.5,0.8,1.2,0.8,2.1c0,0.7-0.2,1.3-0.5,1.9c-0.4,0.6-0.8,1.2-1.2,1.6c-0.5,0.5-1.1,1-1.8,1.6h3.8v1.5h-6.4v-1.4L1512.4,3661z
			"/>
		<path class="st6" d="M1520.1,3654.7c0.5-0.8,1.4-1.3,2.7-1.3s2.2,0.4,2.7,1.3c0.5,0.8,0.8,2,0.8,3.5c0,1.5-0.3,2.7-0.8,3.5
			c-0.5,0.9-1.4,1.3-2.7,1.3s-2.2-0.4-2.7-1.3c-0.5-0.9-0.8-2-0.8-3.5C1519.3,3656.7,1519.6,3655.5,1520.1,3654.7z M1524.4,3656.6
			c-0.1-0.4-0.2-0.8-0.5-1.1s-0.6-0.4-1.1-0.4s-0.9,0.1-1.1,0.4s-0.4,0.6-0.5,1.1c-0.1,0.4-0.1,1-0.1,1.6c0,0.7,0,1.2,0.1,1.7
			s0.2,0.8,0.5,1.1c0.3,0.3,0.6,0.4,1.1,0.4s0.9-0.1,1.1-0.4c0.3-0.3,0.4-0.6,0.5-1.1c0.1-0.4,0.1-1,0.1-1.7
			C1524.5,3657.6,1524.5,3657,1524.4,3656.6z"/>
		<path class="st6" d="M1528.3,3661c0.8-0.7,1.5-1.3,2-1.7c0.5-0.5,0.9-0.9,1.2-1.5c0.3-0.5,0.5-1,0.5-1.5c0-0.4-0.1-0.8-0.3-1
			c-0.2-0.3-0.5-0.4-1-0.4c-0.4,0-0.8,0.1-1,0.4c-0.2,0.3-0.4,0.7-0.4,1.2h-1.8c0-1,0.3-1.8,0.9-2.4s1.3-0.8,2.2-0.8
			c1,0,1.7,0.3,2.3,0.8c0.5,0.5,0.8,1.2,0.8,2.1c0,0.7-0.2,1.3-0.5,1.9s-0.8,1.2-1.2,1.6s-1.1,1-1.8,1.6h3.8v1.5h-6.4v-1.4
			L1528.3,3661z"/>
		<path class="st6" d="M1536,3654.7c0.5-0.8,1.4-1.3,2.7-1.3c1.3,0,2.2,0.4,2.7,1.3c0.5,0.8,0.8,2,0.8,3.5c0,1.5-0.3,2.7-0.8,3.5
			c-0.5,0.9-1.4,1.3-2.7,1.3c-1.3,0-2.2-0.4-2.7-1.3c-0.5-0.9-0.8-2-0.8-3.5C1535.2,3656.7,1535.4,3655.5,1536,3654.7z
			 M1540.3,3656.6c-0.1-0.4-0.2-0.8-0.5-1.1s-0.6-0.4-1.1-0.4c-0.5,0-0.9,0.1-1.1,0.4s-0.4,0.6-0.5,1.1c-0.1,0.4-0.1,1-0.1,1.6
			c0,0.7,0,1.2,0.1,1.7s0.2,0.8,0.5,1.1c0.3,0.3,0.6,0.4,1.1,0.4c0.5,0,0.9-0.1,1.1-0.4c0.3-0.3,0.4-0.6,0.5-1.1s0.1-1,0.1-1.7
			C1540.4,3657.6,1540.3,3657,1540.3,3656.6z"/>
	</g>
	<g class="st0">
		<path class="st7" d="M1293.1,3443.9v-1.9h3.7v13.1h-2.1v-11.2H1293.1z"/>
		<path class="st7" d="M1302.2,3452.7l-2.2,5h-1.3l1.3-5H1302.2z"/>
		<path class="st7" d="M1312.1,3443.8h-6v3.6c0.3-0.3,0.6-0.6,1.1-0.8c0.5-0.2,1-0.3,1.6-0.3c1,0,1.8,0.2,2.5,0.6
			c0.6,0.4,1.1,1,1.3,1.6c0.3,0.7,0.4,1.4,0.4,2.1c0,0.9-0.2,1.7-0.5,2.4c-0.3,0.7-0.9,1.2-1.5,1.6c-0.7,0.4-1.5,0.6-2.5,0.6
			c-1.3,0-2.4-0.3-3.2-1c-0.8-0.6-1.3-1.5-1.4-2.6h2c0.1,0.6,0.4,1,0.9,1.3s1,0.5,1.7,0.5c0.9,0,1.5-0.3,1.9-0.8
			c0.4-0.5,0.6-1.2,0.6-2.1c0-0.9-0.2-1.5-0.6-2c-0.4-0.5-1.1-0.7-1.9-0.7c-0.6,0-1.1,0.1-1.5,0.4c-0.4,0.3-0.7,0.7-0.9,1.2h-1.9
			v-7.6h7.9V3443.8z"/>
		<path class="st7" d="M1323.6,3443.8h-6v3.6c0.3-0.3,0.6-0.6,1.1-0.8c0.5-0.2,1-0.3,1.6-0.3c1,0,1.8,0.2,2.5,0.6
			c0.6,0.4,1.1,1,1.3,1.6c0.3,0.7,0.4,1.4,0.4,2.1c0,0.9-0.2,1.7-0.5,2.4c-0.3,0.7-0.9,1.2-1.5,1.6c-0.7,0.4-1.5,0.6-2.5,0.6
			c-1.3,0-2.4-0.3-3.2-1c-0.8-0.6-1.3-1.5-1.4-2.6h2c0.1,0.6,0.4,1,0.9,1.3s1,0.5,1.7,0.5c0.9,0,1.5-0.3,1.9-0.8
			c0.4-0.5,0.6-1.2,0.6-2.1c0-0.9-0.2-1.5-0.6-2c-0.4-0.5-1.1-0.7-1.9-0.7c-0.6,0-1.1,0.1-1.5,0.4c-0.4,0.3-0.7,0.7-0.9,1.2h-1.9
			v-7.6h7.9V3443.8z"/>
		<path class="st7" d="M1327.8,3452.4c1.2-1,2.1-1.8,2.7-2.5c0.7-0.6,1.2-1.3,1.7-2c0.4-0.7,0.7-1.4,0.7-2.1c0-0.7-0.2-1.3-0.5-1.7
			c-0.3-0.4-0.9-0.6-1.6-0.6c-0.7,0-1.3,0.2-1.6,0.7c-0.4,0.4-0.6,1.1-0.6,1.8h-2c0-1.4,0.4-2.4,1.2-3.1c0.8-0.7,1.8-1.1,3-1.1
			c1.3,0,2.3,0.4,3.1,1.1c0.7,0.7,1.1,1.7,1.1,2.9c0,0.9-0.2,1.7-0.7,2.5c-0.4,0.8-1,1.5-1.6,2.1c-0.6,0.6-1.4,1.4-2.3,2.2l-0.8,0.7
			h5.7v1.7h-8.7v-1.5L1327.8,3452.4z"/>
		<path class="st7" d="M1339.6,3452.7l-2.2,5h-1.3l1.3-5H1339.6z"/>
		<path class="st7" d="M1349.6,3443.8h-6v3.6c0.3-0.3,0.6-0.6,1.1-0.8c0.5-0.2,1-0.3,1.6-0.3c1,0,1.8,0.2,2.5,0.6
			c0.6,0.4,1.1,1,1.3,1.6c0.3,0.7,0.4,1.4,0.4,2.1c0,0.9-0.2,1.7-0.5,2.4c-0.3,0.7-0.9,1.2-1.5,1.6c-0.7,0.4-1.5,0.6-2.5,0.6
			c-1.3,0-2.4-0.3-3.2-1c-0.8-0.6-1.3-1.5-1.4-2.6h2c0.1,0.6,0.4,1,0.9,1.3s1,0.5,1.7,0.5c0.9,0,1.5-0.3,1.9-0.8
			c0.4-0.5,0.6-1.2,0.6-2.1c0-0.9-0.2-1.5-0.6-2c-0.4-0.5-1.1-0.7-1.9-0.7c-0.6,0-1.1,0.1-1.5,0.4c-0.4,0.3-0.7,0.7-0.9,1.2h-1.9
			v-7.6h7.9V3443.8z"/>
		<path class="st7" d="M1361.1,3443.8h-6v3.6c0.3-0.3,0.6-0.6,1.1-0.8c0.5-0.2,1-0.3,1.6-0.3c1,0,1.8,0.2,2.5,0.6
			c0.6,0.4,1.1,1,1.3,1.6c0.3,0.7,0.4,1.4,0.4,2.1c0,0.9-0.2,1.7-0.5,2.4c-0.3,0.7-0.9,1.2-1.5,1.6c-0.7,0.4-1.5,0.6-2.5,0.6
			c-1.3,0-2.4-0.3-3.2-1c-0.8-0.6-1.3-1.5-1.4-2.6h2c0.1,0.6,0.4,1,0.9,1.3s1,0.5,1.7,0.5c0.9,0,1.5-0.3,1.9-0.8
			c0.4-0.5,0.6-1.2,0.6-2.1c0-0.9-0.2-1.5-0.6-2c-0.4-0.5-1.1-0.7-1.9-0.7c-0.6,0-1.1,0.1-1.5,0.4c-0.4,0.3-0.7,0.7-0.9,1.2h-1.9
			v-7.6h7.9V3443.8z"/>
		<path class="st7" d="M1365.4,3442.7c0.8-0.6,1.8-0.9,3-0.9c0.8,0,1.6,0.2,2.2,0.5s1.1,0.7,1.4,1.2c0.3,0.5,0.5,1.1,0.5,1.7
			c0,0.7-0.2,1.4-0.6,1.9c-0.4,0.5-0.9,0.9-1.4,1.1v0.1c0.7,0.2,1.3,0.6,1.7,1.2c0.4,0.6,0.6,1.3,0.6,2.2c0,0.7-0.2,1.3-0.5,1.9
			s-0.8,1-1.4,1.3c-0.6,0.3-1.4,0.5-2.3,0.5c-1.3,0-2.4-0.3-3.2-1s-1.3-1.6-1.3-2.9h2c0,0.6,0.3,1.2,0.7,1.6c0.4,0.4,1,0.6,1.8,0.6
			c0.7,0,1.3-0.2,1.7-0.6c0.4-0.4,0.6-0.9,0.6-1.6c0-0.8-0.3-1.4-0.8-1.8s-1.4-0.5-2.5-0.5h-0.5v-1.7h0.5c1,0,1.7-0.2,2.2-0.5
			c0.5-0.3,0.8-0.8,0.8-1.5c0-0.6-0.2-1-0.6-1.4c-0.4-0.3-0.9-0.5-1.6-0.5c-0.7,0-1.2,0.2-1.6,0.5c-0.4,0.3-0.6,0.8-0.7,1.3h-2
			C1364.2,3444.2,1364.6,3443.3,1365.4,3442.7z"/>
	</g>
	<g id="그룹_5355" transform="translate(460.236 443.739)">
		<g class="st0">
			<path class="st7" d="M929.9,3009.5v-1.9h3.7v13.1h-2.1v-11.2H929.9z"/>
			<path class="st7" d="M939,3018.3l-2.2,5h-1.3l1.3-5H939z"/>
			<path class="st7" d="M940.3,3018v-1.5l6-8.7h2.5v8.4h1.7v1.8h-1.7v2.7h-2v-2.7H940.3z M946.9,3009.9l-4.2,6.4h4.2V3009.9z"/>
			<path class="st7" d="M960.5,3009.2l-5,11.5h-2.1l5.1-11.3h-6.7v-1.7h8.7V3009.2z"/>
			<path class="st7" d="M965.6,3018.6c0.4,0.3,0.9,0.5,1.6,0.5c0.9,0,1.5-0.3,1.9-1c0.4-0.7,0.6-1.8,0.6-3.4
				c-0.3,0.4-0.7,0.7-1.2,0.9c-0.5,0.2-1.1,0.3-1.7,0.3c-0.8,0-1.5-0.2-2.1-0.5c-0.6-0.3-1.1-0.8-1.5-1.4s-0.5-1.4-0.5-2.3
				c0-1.3,0.4-2.4,1.2-3.2c0.8-0.8,1.8-1.2,3.2-1.2c1.6,0,2.8,0.5,3.5,1.6s1,2.8,1,5c0,1.5-0.1,2.8-0.4,3.8c-0.3,1-0.7,1.7-1.3,2.2
				c-0.6,0.5-1.5,0.8-2.6,0.8c-1.3,0-2.3-0.3-3-1c-0.7-0.7-1.1-1.5-1.2-2.5h1.9C965,3017.8,965.2,3018.3,965.6,3018.6z
				 M968.8,3013.5c0.4-0.5,0.6-1,0.6-1.8c0-0.8-0.2-1.5-0.7-1.9c-0.4-0.5-1-0.7-1.8-0.7s-1.4,0.2-1.8,0.7c-0.4,0.5-0.7,1.1-0.7,1.9
				c0,0.7,0.2,1.3,0.6,1.8c0.4,0.5,1.1,0.7,1.9,0.7C967.8,3014.1,968.4,3013.9,968.8,3013.5z"/>
			<path class="st7" d="M976.2,3018.3l-2.2,5h-1.3l1.3-5H976.2z"/>
			<path class="st7" d="M979,3008.3c0.8-0.6,1.8-0.9,3-0.9c0.8,0,1.6,0.2,2.2,0.5s1.1,0.7,1.4,1.2c0.3,0.5,0.5,1.1,0.5,1.7
				c0,0.7-0.2,1.4-0.6,1.9c-0.4,0.5-0.9,0.9-1.4,1.1v0.1c0.7,0.2,1.3,0.6,1.7,1.2c0.4,0.6,0.6,1.3,0.6,2.2c0,0.7-0.2,1.3-0.5,1.9
				s-0.8,1-1.4,1.3c-0.6,0.3-1.4,0.5-2.3,0.5c-1.3,0-2.4-0.3-3.2-1s-1.3-1.6-1.3-2.9h2c0,0.6,0.3,1.2,0.7,1.6c0.4,0.4,1,0.6,1.8,0.6
				c0.7,0,1.3-0.2,1.7-0.6c0.4-0.4,0.6-0.9,0.6-1.6c0-0.8-0.3-1.4-0.8-1.8s-1.4-0.5-2.5-0.5h-0.5v-1.7h0.5c1,0,1.7-0.2,2.2-0.5
				c0.5-0.3,0.8-0.8,0.8-1.5c0-0.6-0.2-1-0.6-1.4c-0.4-0.3-0.9-0.5-1.6-0.5c-0.7,0-1.2,0.2-1.6,0.5c-0.4,0.3-0.6,0.8-0.7,1.3h-2
				C977.8,3009.8,978.2,3008.9,979,3008.3z"/>
			<path class="st7" d="M988.8,3011c0-0.6,0.2-1.2,0.5-1.8c0.3-0.5,0.8-1,1.5-1.3c0.6-0.3,1.4-0.5,2.4-0.5c0.9,0,1.7,0.2,2.4,0.5
				s1.1,0.7,1.5,1.3c0.3,0.5,0.5,1.1,0.5,1.8c0,0.7-0.2,1.3-0.5,1.8c-0.3,0.5-0.8,0.9-1.4,1.2c0.7,0.3,1.2,0.7,1.6,1.2
				c0.4,0.6,0.6,1.2,0.6,2c0,0.8-0.2,1.5-0.6,2.1c-0.4,0.6-0.9,1.1-1.7,1.4s-1.5,0.5-2.4,0.5c-0.9,0-1.7-0.2-2.4-0.5
				s-1.3-0.8-1.6-1.4c-0.4-0.6-0.6-1.3-0.6-2.1c0-0.8,0.2-1.5,0.6-2c0.4-0.6,0.9-1,1.6-1.2C989.4,3013.3,988.8,3012.3,988.8,3011z
				 M991.2,3015.4c-0.5,0.4-0.7,1-0.7,1.7c0,0.7,0.2,1.2,0.7,1.7c0.5,0.4,1.1,0.6,2,0.6c0.8,0,1.5-0.2,1.9-0.6
				c0.5-0.4,0.7-1,0.7-1.7c0-0.7-0.2-1.3-0.7-1.7c-0.5-0.4-1.1-0.6-1.9-0.6S991.7,3015,991.2,3015.4z M994.8,3009.7
				c-0.4-0.4-1-0.5-1.7-0.5c-0.7,0-1.3,0.2-1.7,0.5c-0.4,0.4-0.6,0.9-0.6,1.6c0,0.6,0.2,1.1,0.7,1.5s1,0.6,1.7,0.6
				c0.7,0,1.2-0.2,1.7-0.6s0.7-0.9,0.7-1.5C995.5,3010.5,995.3,3010,994.8,3009.7z"/>
			<path class="st7" d="M1001,3009.2c0.7-1.2,1.9-1.8,3.6-1.8c1.7,0,2.9,0.6,3.6,1.8c0.7,1.2,1.1,2.8,1.1,4.9c0,2.1-0.4,3.7-1.1,4.9
				c-0.7,1.2-1.9,1.8-3.6,1.8c-1.7,0-2.9-0.6-3.6-1.8c-0.7-1.2-1.1-2.8-1.1-4.9C999.9,3012,1000.3,3010.3,1001,3009.2z
				 M1007.1,3011.6c-0.1-0.7-0.4-1.2-0.8-1.6c-0.4-0.4-1-0.6-1.7-0.6c-0.8,0-1.3,0.2-1.7,0.6c-0.4,0.4-0.6,1-0.8,1.6
				c-0.1,0.7-0.2,1.5-0.2,2.5c0,1,0.1,1.9,0.2,2.5c0.1,0.7,0.4,1.2,0.8,1.7s1,0.6,1.7,0.6c0.8,0,1.3-0.2,1.7-0.6
				c0.4-0.4,0.6-1,0.8-1.7c0.1-0.7,0.2-1.5,0.2-2.5C1007.3,3013.1,1007.2,3012.2,1007.1,3011.6z"/>
		</g>
	</g>
	<g id="그룹_5357" transform="translate(449.293 520.618)">
		<g class="st0">
			<path class="st1" d="M1048.9,3044.6c-0.3-0.3-0.8-0.4-1.5-0.4c-0.9,0-1.7,0.4-2.1,1.1c-0.5,0.7-0.7,1.9-0.7,3.6
				c0.3-0.5,0.8-0.9,1.4-1.2c0.6-0.3,1.2-0.4,1.9-0.4c0.8,0,1.5,0.2,2.1,0.5c0.6,0.3,1.1,0.8,1.4,1.5c0.3,0.6,0.5,1.4,0.5,2.3
				c0,0.8-0.2,1.6-0.5,2.2s-0.8,1.2-1.5,1.6c-0.6,0.4-1.4,0.6-2.3,0.6c-1.2,0-2.2-0.3-2.9-0.8c-0.7-0.5-1.2-1.3-1.5-2.3
				c-0.3-1-0.4-2.2-0.4-3.7c0-4.4,1.5-6.6,4.6-6.6c1.2,0,2.1,0.3,2.8,1c0.7,0.6,1.1,1.4,1.2,2.4h-1.9
				C1049.5,3045.3,1049.2,3044.9,1048.9,3044.6z M1045.6,3049.6c-0.5,0.4-0.8,1.1-0.8,1.9s0.2,1.5,0.7,2c0.5,0.5,1.1,0.7,2,0.7
				c0.8,0,1.4-0.2,1.8-0.7c0.4-0.5,0.7-1.1,0.7-1.9c0-0.8-0.2-1.5-0.6-2c-0.4-0.5-1.1-0.7-1.9-0.7
				C1046.7,3048.9,1046.1,3049.2,1045.6,3049.6z"/>
			<path class="st1" d="M1055.4,3043.4c0.8-0.6,1.8-0.9,3-0.9c0.8,0,1.6,0.2,2.2,0.5s1.1,0.7,1.4,1.2c0.3,0.5,0.5,1.1,0.5,1.7
				c0,0.7-0.2,1.4-0.6,1.9c-0.4,0.5-0.9,0.9-1.4,1.1v0.1c0.7,0.2,1.3,0.6,1.7,1.2c0.4,0.6,0.6,1.3,0.6,2.2c0,0.7-0.2,1.3-0.5,1.9
				s-0.8,1-1.4,1.3c-0.6,0.3-1.4,0.5-2.3,0.5c-1.3,0-2.4-0.3-3.2-1s-1.3-1.6-1.3-2.9h2c0,0.6,0.3,1.2,0.7,1.6c0.4,0.4,1,0.6,1.8,0.6
				c0.7,0,1.3-0.2,1.7-0.6c0.4-0.4,0.6-0.9,0.6-1.6c0-0.8-0.3-1.4-0.8-1.8s-1.4-0.5-2.5-0.5h-0.5v-1.7h0.5c1,0,1.7-0.2,2.2-0.5
				c0.5-0.3,0.8-0.8,0.8-1.5c0-0.6-0.2-1-0.6-1.4c-0.4-0.3-0.9-0.5-1.6-0.5c-0.7,0-1.2,0.2-1.6,0.5c-0.4,0.3-0.6,0.8-0.7,1.3h-2
				C1054.2,3044.9,1054.6,3044,1055.4,3043.4z"/>
			<path class="st1" d="M1068.1,3053.7c0.4,0.3,0.9,0.5,1.6,0.5c0.9,0,1.5-0.3,1.9-1c0.4-0.7,0.6-1.8,0.6-3.4
				c-0.3,0.4-0.7,0.7-1.2,0.9c-0.5,0.2-1.1,0.3-1.7,0.3c-0.8,0-1.5-0.2-2.1-0.5c-0.6-0.3-1.1-0.8-1.5-1.4s-0.5-1.4-0.5-2.3
				c0-1.3,0.4-2.4,1.2-3.2c0.8-0.8,1.8-1.2,3.2-1.2c1.6,0,2.8,0.5,3.5,1.6s1,2.8,1,5c0,1.5-0.1,2.8-0.4,3.8c-0.3,1-0.7,1.7-1.3,2.2
				c-0.6,0.5-1.5,0.8-2.6,0.8c-1.3,0-2.3-0.3-3-1c-0.7-0.7-1.1-1.5-1.2-2.5h1.9C1067.5,3052.9,1067.7,3053.4,1068.1,3053.7z
				 M1071.4,3048.6c0.4-0.5,0.6-1,0.6-1.8c0-0.8-0.2-1.5-0.7-1.9c-0.4-0.5-1-0.7-1.8-0.7s-1.4,0.2-1.8,0.7c-0.4,0.5-0.7,1.1-0.7,1.9
				c0,0.7,0.2,1.3,0.6,1.8c0.4,0.5,1.1,0.7,1.9,0.7C1070.4,3049.3,1070.9,3049.1,1071.4,3048.6z"/>
			<path class="st1" d="M1078.8,3053.4l-2.2,5h-1.3l1.3-5H1078.8z"/>
			<path class="st1" d="M1080,3053.2v-1.5l6-8.7h2.5v8.4h1.7v1.8h-1.7v2.7h-2v-2.7H1080z M1086.6,3045l-4.2,6.4h4.2V3045z"/>
			<path class="st1" d="M1093,3044.3c0.7-1.2,1.9-1.8,3.6-1.8c1.7,0,2.9,0.6,3.6,1.8c0.7,1.2,1.1,2.8,1.1,4.9c0,2.1-0.4,3.7-1.1,4.9
				c-0.7,1.2-1.9,1.8-3.6,1.8c-1.7,0-2.9-0.6-3.6-1.8c-0.7-1.2-1.1-2.8-1.1-4.9C1091.9,3047.1,1092.3,3045.5,1093,3044.3z
				 M1099.1,3046.7c-0.1-0.7-0.4-1.2-0.8-1.6c-0.4-0.4-1-0.6-1.7-0.6c-0.8,0-1.3,0.2-1.7,0.6c-0.4,0.4-0.6,1-0.8,1.6
				c-0.1,0.7-0.2,1.5-0.2,2.5c0,1,0.1,1.9,0.2,2.5c0.1,0.7,0.4,1.2,0.8,1.7s1,0.6,1.7,0.6c0.8,0,1.3-0.2,1.7-0.6
				c0.4-0.4,0.6-1,0.8-1.7c0.1-0.7,0.2-1.5,0.2-2.5C1099.3,3048.2,1099.2,3047.4,1099.1,3046.7z"/>
			<path class="st1" d="M1104.5,3044.3c0.7-1.2,1.9-1.8,3.6-1.8s2.9,0.6,3.6,1.8c0.7,1.2,1.1,2.8,1.1,4.9c0,2.1-0.4,3.7-1.1,4.9
				c-0.7,1.2-1.9,1.8-3.6,1.8s-2.9-0.6-3.6-1.8c-0.7-1.2-1.1-2.8-1.1-4.9C1103.5,3047.1,1103.8,3045.5,1104.5,3044.3z
				 M1110.6,3046.7c-0.1-0.7-0.4-1.2-0.8-1.6s-1-0.6-1.7-0.6s-1.3,0.2-1.7,0.6s-0.6,1-0.8,1.6c-0.1,0.7-0.2,1.5-0.2,2.5
				c0,1,0.1,1.9,0.2,2.5c0.1,0.7,0.4,1.2,0.8,1.7c0.4,0.4,1,0.6,1.7,0.6s1.3-0.2,1.7-0.6s0.6-1,0.8-1.7c0.1-0.7,0.2-1.5,0.2-2.5
				C1110.8,3048.2,1110.8,3047.4,1110.6,3046.7z"/>
		</g>
	</g>
	<g class="st0">
		<path class="st8" d="M938,3339.1c-0.7-0.3-1.2-0.7-1.6-1.3c-0.4-0.5-0.6-1.2-0.6-1.9h2.2c0,0.5,0.3,1,0.6,1.3
			c0.4,0.3,0.9,0.5,1.6,0.5c0.7,0,1.3-0.2,1.7-0.5s0.6-0.8,0.6-1.3c0-0.4-0.1-0.8-0.4-1c-0.2-0.3-0.6-0.5-0.9-0.6
			c-0.4-0.1-0.9-0.3-1.5-0.5c-0.8-0.2-1.5-0.4-2-0.7c-0.5-0.2-0.9-0.6-1.3-1c-0.4-0.5-0.5-1.1-0.5-1.9c0-0.7,0.2-1.3,0.5-1.9
			c0.4-0.5,0.9-1,1.5-1.2s1.4-0.4,2.2-0.4c1.2,0,2.2,0.3,3,0.9c0.8,0.6,1.2,1.4,1.3,2.5h-2.3c0-0.5-0.3-0.8-0.6-1.2
			c-0.4-0.3-0.9-0.5-1.6-0.5c-0.6,0-1.1,0.2-1.4,0.5c-0.4,0.3-0.6,0.7-0.6,1.3c0,0.4,0.1,0.7,0.4,0.9c0.2,0.2,0.5,0.4,0.9,0.6
			c0.4,0.1,0.9,0.3,1.5,0.5c0.8,0.2,1.5,0.5,2,0.7c0.5,0.2,1,0.6,1.3,1.1c0.4,0.5,0.5,1.1,0.5,1.9c0,0.6-0.2,1.2-0.5,1.8
			c-0.3,0.6-0.8,1-1.5,1.4c-0.7,0.3-1.4,0.5-2.3,0.5C939.5,3339.6,938.7,3339.4,938,3339.1z"/>
		<path class="st8" d="M947.2,3329.9c0.6-1,1.3-1.7,2.3-2.3s2-0.8,3.2-0.8c1.3,0,2.5,0.3,3.6,1c1,0.7,1.8,1.6,2.3,2.8h-2.5
			c-0.3-0.7-0.8-1.2-1.3-1.5c-0.6-0.3-1.2-0.5-2-0.5c-0.8,0-1.6,0.2-2.2,0.6c-0.6,0.4-1.2,0.9-1.5,1.6s-0.5,1.5-0.5,2.4
			c0,0.9,0.2,1.7,0.5,2.4c0.4,0.7,0.9,1.2,1.5,1.6c0.6,0.4,1.4,0.6,2.2,0.6c0.8,0,1.4-0.2,2-0.5c0.6-0.3,1-0.8,1.3-1.5h2.5
			c-0.5,1.2-1.2,2.1-2.3,2.8c-1,0.6-2.2,1-3.6,1c-1.2,0-2.2-0.3-3.2-0.8s-1.7-1.3-2.3-2.3c-0.6-1-0.9-2.1-0.9-3.3
			C946.4,3332,946.7,3330.9,947.2,3329.9z"/>
		<path class="st8" d="M963.5,3338.8c-1-0.5-1.8-1.3-2.3-2.3c-0.6-1-0.9-2.1-0.9-3.3c0-1.2,0.3-2.3,0.9-3.3c0.6-1,1.3-1.7,2.3-2.3
			s2-0.8,3.2-0.8c1.2,0,2.3,0.3,3.2,0.8c1,0.5,1.7,1.3,2.3,2.3c0.6,1,0.8,2.1,0.8,3.3c0,1.2-0.3,2.3-0.8,3.3c-0.6,1-1.3,1.7-2.3,2.3
			c-1,0.5-2.1,0.8-3.2,0.8C965.5,3339.6,964.5,3339.3,963.5,3338.8z M968.9,3337.2c0.6-0.4,1.2-0.9,1.5-1.6c0.4-0.7,0.5-1.5,0.5-2.4
			c0-0.9-0.2-1.7-0.5-2.4c-0.4-0.7-0.9-1.2-1.5-1.6c-0.6-0.4-1.4-0.6-2.2-0.6c-0.8,0-1.6,0.2-2.2,0.6c-0.6,0.4-1.2,0.9-1.5,1.6
			s-0.5,1.5-0.5,2.4c0,0.9,0.2,1.7,0.5,2.4s0.9,1.2,1.5,1.6c0.6,0.4,1.4,0.6,2.2,0.6C967.5,3337.8,968.3,3337.6,968.9,3337.2z"/>
		<path class="st8" d="M983.4,3332.5c-0.3,0.6-0.8,1-1.4,1.4c-0.7,0.4-1.5,0.5-2.5,0.5h-2.3v5.1h-2.1V3327h4.3c1,0,1.8,0.2,2.4,0.5
			s1.2,0.8,1.5,1.3s0.5,1.2,0.5,1.9C983.8,3331.3,983.7,3331.9,983.4,3332.5z M981.2,3332.2c0.4-0.4,0.6-0.9,0.6-1.5
			c0-1.4-0.8-2.1-2.3-2.1h-2.3v4.1h2.3C980.2,3332.7,980.8,3332.5,981.2,3332.2z"/>
		<path class="st8" d="M987.9,3328.6v3.7h4.3v1.7h-4.3v3.8h4.9v1.7h-6.9v-12.5h6.9v1.7H987.9z"/>
		<path class="st8" d="M999.4,3328.2v-1.9h3.7v13.1h-2.1v-11.2H999.4z"/>
	</g>
	<g class="st0">
		<path class="st3" d="M1395.2,3363.2c-1.7,0.3-3.2,0.4-5.8,0.4h-1v-5.8h5.6v0.9h-4.4v3.9c2.5,0,3.9-0.1,5.5-0.4L1395.2,3363.2z
			 M1390.9,3368.1h7.2v0.9h-8.4v-4.1h1.1V3368.1z M1399.4,3360.5v1h-1.9v4.4h-1.1v-9.1h1.1v3.7H1399.4z"/>
		<path class="st3" d="M1409,3364c-1.2,0.2-2.4,0.4-3.6,0.4v4.5h-1.1v-4.5c-1.2,0.1-2.4,0.1-3.5,0.1l-0.2-1c2.3,0,5.5,0,8.3-0.4
			L1409,3364z M1401.6,3359.9c0-1.5,1.3-2.6,3.2-2.6c1.9,0,3.2,1,3.2,2.6c0,1.5-1.3,2.6-3.2,2.6
			C1402.9,3362.5,1401.6,3361.4,1401.6,3359.9z M1402.7,3359.9c0,1,0.9,1.6,2.1,1.6c1.2,0,2.1-0.7,2.1-1.6s-0.9-1.6-2.1-1.6
			C1403.6,3358.3,1402.7,3358.9,1402.7,3359.9z M1411,3356.7v12.6h-1.1v-12.6H1411z"/>
		<path class="st3" d="M1417,3361.8c0-0.6,0.4-1,0.9-1c0.5,0,0.9,0.4,0.9,1c0,0.6-0.4,1-0.9,1
			C1417.4,3362.8,1417,3362.4,1417,3361.8z M1417,3367.5c0-0.6,0.4-1,0.9-1c0.5,0,0.9,0.4,0.9,1s-0.4,1-0.9,1
			C1417.4,3368.4,1417,3368.1,1417,3367.5z"/>
	</g>
	<g class="st0">
		<path class="st3" d="M1424.5,3365.9v-4.2h-1.1v-1l1.2-0.1l0.2-2.1h1.1v2.1h2.1v1h-2.1v4.2c0,0.9,0.3,1.5,1.2,1.5
			c0.3,0,0.6-0.1,0.9-0.2l0.3,1c-0.4,0.1-0.9,0.3-1.4,0.3C1425,3368.4,1424.5,3367.4,1424.5,3365.9z"/>
		<path class="st3" d="M1429.1,3363.1c0-3.3,1.9-5.3,4.6-5.3c1.2,0,2.2,0.6,2.8,1.3l-0.7,0.8c-0.5-0.6-1.2-1-2.1-1
			c-1.9,0-3.2,1.6-3.2,4.2c0,2.6,1.2,4.2,3.2,4.2c1,0,1.7-0.4,2.4-1.1l0.7,0.8c-0.8,0.9-1.8,1.5-3.2,1.5
			C1431,3368.4,1429.1,3366.5,1429.1,3363.1z"/>
		<path class="st3" d="M1437.5,3363.1c0-3.3,1.8-5.3,4.4-5.3s4.4,2,4.4,5.3s-1.8,5.4-4.4,5.4S1437.5,3366.4,1437.5,3363.1z
			 M1445,3363.1c0-2.6-1.2-4.2-3.1-4.2c-1.8,0-3.1,1.6-3.1,4.2c0,2.6,1.2,4.2,3.1,4.2C1443.8,3367.3,1445,3365.7,1445,3363.1z"/>
	</g>
	<g class="st0">
		<path class="st3" d="M1447.5,3372.5c1.9-1.6,2.7-2.8,2.7-3.9c0-0.7-0.4-1.2-1.1-1.2c-0.5,0-0.9,0.3-1.2,0.7l-0.4-0.4
			c0.5-0.5,1-0.9,1.8-0.9c1.1,0,1.7,0.7,1.7,1.8c0,1.2-0.9,2.4-2.3,3.7c0.3,0,0.7-0.1,1-0.1h1.7v0.6h-3.8V3372.5z"/>
	</g>
	<g class="st0">
		<path class="st3" d="M1452.3,3363.8h3.6v1h-3.6V3363.8z"/>
		<path class="st3" d="M1457.2,3364.5c0-2.5,1.7-4,3.4-4c1.9,0,3,1.4,3,3.6c0,0.3,0,0.5-0.1,0.7h-5.1c0.1,1.6,1.1,2.7,2.5,2.7
			c0.7,0,1.3-0.2,1.9-0.6l0.5,0.8c-0.7,0.4-1.5,0.8-2.5,0.8C1458.9,3368.4,1457.2,3367,1457.2,3364.5z M1462.6,3363.8
			c0-1.5-0.7-2.4-1.9-2.4c-1.1,0-2,0.9-2.2,2.4H1462.6z"/>
		<path class="st3" d="M1470.4,3368.8l0.1-1.4c-0.6,0.6-1.4,1.1-2.3,1.1c-1.9,0-3.1-1.4-3.1-4c0-2.5,1.6-4,3.3-4
			c0.9,0,1.5,0.3,2.2,0.9h0l0.1-0.7h1v10.8h-1.3V3368.8z M1470.4,3366.3v-4c-0.6-0.6-1.2-0.8-1.8-0.8c-1.2,0-2.2,1.2-2.2,2.9
			c0,1.8,0.8,2.9,2.1,2.9C1469.1,3367.4,1469.7,3367,1470.4,3366.3z"/>
	</g>
	<g class="st0">
		<path class="st8" d="M1396.2,3339.1c-0.7-0.3-1.2-0.7-1.6-1.3c-0.4-0.5-0.6-1.2-0.6-1.9h2.2c0,0.5,0.3,1,0.6,1.3
			c0.4,0.3,0.9,0.5,1.6,0.5c0.7,0,1.3-0.2,1.7-0.5c0.4-0.3,0.6-0.8,0.6-1.3c0-0.4-0.1-0.8-0.4-1s-0.6-0.5-0.9-0.6
			c-0.4-0.1-0.9-0.3-1.5-0.5c-0.8-0.2-1.5-0.4-2-0.7c-0.5-0.2-0.9-0.6-1.3-1c-0.4-0.5-0.5-1.1-0.5-1.9c0-0.7,0.2-1.3,0.5-1.9
			c0.4-0.5,0.9-1,1.5-1.2c0.6-0.3,1.4-0.4,2.2-0.4c1.2,0,2.2,0.3,3,0.9c0.8,0.6,1.2,1.4,1.3,2.5h-2.3c0-0.5-0.3-0.8-0.6-1.2
			c-0.4-0.3-0.9-0.5-1.6-0.5c-0.6,0-1.1,0.2-1.4,0.5s-0.6,0.7-0.6,1.3c0,0.4,0.1,0.7,0.4,0.9c0.2,0.2,0.5,0.4,0.9,0.6
			c0.4,0.1,0.9,0.3,1.5,0.5c0.8,0.2,1.5,0.5,2,0.7c0.5,0.2,1,0.6,1.3,1.1c0.4,0.5,0.5,1.1,0.5,1.9c0,0.6-0.2,1.2-0.5,1.8
			c-0.3,0.6-0.8,1-1.5,1.4c-0.7,0.3-1.4,0.5-2.3,0.5C1397.6,3339.6,1396.8,3339.4,1396.2,3339.1z"/>
		<path class="st8" d="M1405.3,3329.9c0.6-1,1.3-1.7,2.3-2.3c1-0.5,2-0.8,3.2-0.8c1.3,0,2.5,0.3,3.6,1c1,0.7,1.8,1.6,2.3,2.8h-2.5
			c-0.3-0.7-0.8-1.2-1.3-1.5c-0.6-0.3-1.2-0.5-2-0.5c-0.8,0-1.6,0.2-2.2,0.6c-0.6,0.4-1.2,0.9-1.5,1.6s-0.5,1.5-0.5,2.4
			c0,0.9,0.2,1.7,0.5,2.4c0.4,0.7,0.9,1.2,1.5,1.6c0.6,0.4,1.4,0.6,2.2,0.6c0.8,0,1.4-0.2,2-0.5c0.6-0.3,1-0.8,1.3-1.5h2.5
			c-0.5,1.2-1.2,2.1-2.3,2.8c-1,0.6-2.2,1-3.6,1c-1.2,0-2.2-0.3-3.2-0.8c-1-0.5-1.7-1.3-2.3-2.3c-0.6-1-0.9-2.1-0.9-3.3
			C1404.5,3332,1404.8,3330.9,1405.3,3329.9z"/>
		<path class="st8" d="M1421.6,3338.8c-1-0.5-1.8-1.3-2.3-2.3c-0.6-1-0.9-2.1-0.9-3.3c0-1.2,0.3-2.3,0.9-3.3c0.6-1,1.3-1.7,2.3-2.3
			c1-0.5,2-0.8,3.2-0.8c1.2,0,2.3,0.3,3.2,0.8s1.7,1.3,2.3,2.3c0.6,1,0.8,2.1,0.8,3.3c0,1.2-0.3,2.3-0.8,3.3c-0.6,1-1.3,1.7-2.3,2.3
			c-1,0.5-2.1,0.8-3.2,0.8C1423.6,3339.6,1422.6,3339.3,1421.6,3338.8z M1427,3337.2c0.6-0.4,1.2-0.9,1.5-1.6s0.5-1.5,0.5-2.4
			c0-0.9-0.2-1.7-0.5-2.4s-0.9-1.2-1.5-1.6c-0.6-0.4-1.4-0.6-2.2-0.6c-0.8,0-1.6,0.2-2.2,0.6c-0.6,0.4-1.2,0.9-1.5,1.6
			s-0.5,1.5-0.5,2.4c0,0.9,0.2,1.7,0.5,2.4s0.9,1.2,1.5,1.6c0.6,0.4,1.4,0.6,2.2,0.6C1425.6,3337.8,1426.4,3337.6,1427,3337.2z"/>
		<path class="st8" d="M1441.5,3332.5c-0.3,0.6-0.8,1-1.4,1.4c-0.7,0.4-1.5,0.5-2.5,0.5h-2.3v5.1h-2.1V3327h4.3c1,0,1.8,0.2,2.4,0.5
			s1.2,0.8,1.5,1.3s0.5,1.2,0.5,1.9C1441.9,3331.3,1441.8,3331.9,1441.5,3332.5z M1439.3,3332.2c0.4-0.4,0.6-0.9,0.6-1.5
			c0-1.4-0.8-2.1-2.3-2.1h-2.3v4.1h2.3C1438.3,3332.7,1438.9,3332.5,1439.3,3332.2z"/>
		<path class="st8" d="M1446,3328.6v3.7h4.3v1.7h-4.3v3.8h4.9v1.7h-6.9v-12.5h6.9v1.7H1446z"/>
		<path class="st8" d="M1458.9,3336.7c1.2-1,2.1-1.8,2.7-2.5c0.7-0.6,1.2-1.3,1.7-2c0.4-0.7,0.7-1.4,0.7-2.1c0-0.7-0.2-1.3-0.5-1.7
			c-0.3-0.4-0.9-0.6-1.6-0.6c-0.7,0-1.3,0.2-1.6,0.7c-0.4,0.4-0.6,1.1-0.6,1.8h-2c0-1.4,0.4-2.4,1.2-3.1c0.8-0.7,1.8-1.1,3-1.1
			c1.3,0,2.3,0.4,3.1,1.1c0.7,0.7,1.1,1.7,1.1,2.9c0,0.9-0.2,1.7-0.7,2.5c-0.4,0.8-1,1.5-1.6,2.1c-0.6,0.6-1.4,1.4-2.3,2.2l-0.8,0.7
			h5.7v1.7h-8.7v-1.5L1458.9,3336.7z"/>
	</g>
	<g class="st0">
		<path class="st3" d="M741.5,3709l0.9-1.5l-1.5-0.6l0.3-0.7l1.6,0.4l0.1-1.7h0.8l0.1,1.7l1.6-0.4l0.2,0.7l-1.5,0.6l0.9,1.5
			l-0.6,0.4l-1.1-1.3l-1.1,1.3L741.5,3709z"/>
		<path class="st3" d="M761.8,3710.2v0.9h-11.4v-0.9h5.1v-1.2h-4v-0.9h1.9v-2.4h-1.9v-0.9h9.2v0.9h-1.9v2.4h1.8v0.9h-4v1.2H761.8z
			 M752.9,3716h7.8v0.9h-8.9v-2.9h7.4v-1h-7.4v-0.9h8.5v2.7h-7.4V3716z M754.5,3708.1h3.1v-2.4h-3.1V3708.1z"/>
		<path class="st3" d="M765.2,3713.1c2.1,0,3.9-0.1,6.1-0.4l0.1,0.9c-2.3,0.4-4.2,0.5-6.3,0.5h-1v-4.8h4.6v-2.6H764v-0.9h5.8v4.5
			h-4.6V3713.1z M773.6,3704.5v12.6h-1.1v-12.6H773.6z"/>
		<path class="st3" d="M783.2,3710.6c-1.4-0.5-2.6-1.6-3.2-2.9c-0.5,1.4-1.7,2.6-3.2,3.1l-0.6-0.9c1.9-0.7,3.2-2.3,3.2-4.2v-1h1.1v1
			c0,1.7,1.3,3.3,3.2,3.9L783.2,3710.6z M786.9,3716v0.9h-8.5v-3.1h7v-1.2h-7v-0.9h8.1v3h-7v1.3H786.9z M786.5,3711h-1.1v-6.5h1.1
			V3711z"/>
		<path class="st3" d="M790.9,3713.1c2.1,0,3.9-0.1,6.1-0.4l0.1,0.9c-2.3,0.4-4.2,0.5-6.3,0.5h-1v-4.8h4.6v-2.6h-4.7v-0.9h5.8v4.5
			h-4.6V3713.1z M799.4,3704.5v12.6h-1.1v-12.6H799.4z"/>
		<path class="st3" d="M813.3,3711.1v0.9H802v-0.9h4.6v-1.8h1.1v1.8H813.3z M810.7,3707.4c0-0.4,0-0.8,0-1.2v-0.1h-7.5v-0.9h8.6v1.1
			c0,1.2,0,2.4-0.4,4.1l-1.1-0.1c0.2-0.7,0.2-1.4,0.3-2l-7.5,0.3l-0.2-1L810.7,3707.4z M804.5,3715.9h7.6v0.9h-8.8v-3.7h1.1V3715.9z
			"/>
	</g>
	<g class="st0">
		<path class="st3" d="M818.6,3705.7h2.9c2.3,0,3.9,0.8,3.9,3c0,2.2-1.5,3.2-3.8,3.2h-1.7v4.1h-1.3V3705.7z M821.4,3710.9
			c1.8,0,2.7-0.7,2.7-2.1c0-1.5-0.9-2-2.7-2h-1.5v4.1H821.4z"/>
		<path class="st3" d="M826.7,3715.2c3.2-2.8,4.7-4.9,4.7-6.6c0-1.2-0.6-2-1.9-2c-0.8,0-1.6,0.5-2.1,1.2l-0.7-0.7
			c0.8-0.9,1.7-1.5,3-1.5c1.8,0,3,1.2,3,3c0,2-1.6,4.1-4,6.4c0.5,0,1.2-0.1,1.7-0.1h2.8v1.1h-6.5V3715.2z"/>
		<path class="st3" d="M834.6,3717.9c0.9-0.4,1.4-1.1,1.4-1.9c-0.1,0-0.1,0-0.2,0c-0.5,0-0.9-0.3-0.9-0.9c0-0.5,0.4-0.9,1-0.9
			c0.7,0,1.1,0.6,1.1,1.5c0,1.3-0.8,2.4-2,2.9L834.6,3717.9z"/>
		<path class="st3" d="M841.3,3714.8l0.6-0.8c0.6,0.6,1.4,1.2,2.5,1.2c1.2,0,2.1-0.7,2.1-1.9c0-1.2-0.8-2.1-3.2-2.1v-1
			c2.1,0,2.8-0.9,2.8-2c0-1-0.7-1.6-1.7-1.7c-0.8,0-1.6,0.4-2.1,1l-0.7-0.8c0.8-0.7,1.7-1.2,2.9-1.2c1.7,0,3,0.9,3,2.6
			c0,1.2-0.7,2.1-1.8,2.5v0.1c1.2,0.3,2.2,1.2,2.2,2.6c0,1.8-1.5,2.9-3.3,2.9C842.9,3716.2,841.9,3715.5,841.3,3714.8z"/>
	</g>
	<g class="st0">
		<path class="st3" d="M863.8,3710.3v0.9h-11.3v-0.9h4.6v-2.4h1.1v2.4H863.8z M862.5,3714.7c0,1.4-1.7,2.3-4.4,2.3s-4.4-0.9-4.4-2.3
			c0-1.5,1.7-2.3,4.4-2.3S862.5,3713.3,862.5,3714.7z M861.3,3706h-7.4v-0.9h8.6v1.1c0,1,0,2-0.4,3.3l-1.1-0.1
			c0.3-1.3,0.3-2.2,0.3-3.2V3706z M861.4,3714.7c0-0.9-1.3-1.4-3.2-1.4c-2,0-3.2,0.5-3.2,1.4c0,0.9,1.3,1.4,3.2,1.4
			C860.1,3716.1,861.4,3715.6,861.4,3714.7z"/>
		<path class="st3" d="M872.1,3711.4c-1.4-0.5-2.5-1.5-3-2.7c-0.5,1.4-1.7,2.5-3.2,3.1l-0.6-0.9c1.9-0.7,3.2-2.3,3.2-4.1v-0.5h-2.8
			v-0.9h6.7v0.9h-2.8v0.5c0,1.6,1.2,3.1,3,3.7L872.1,3711.4z M875.3,3714.7c0,1.5-1.6,2.3-4.1,2.3c-2.6,0-4.1-0.9-4.1-2.3
			c0-1.5,1.6-2.3,4.1-2.3C873.7,3712.4,875.3,3713.2,875.3,3714.7z M874.1,3714.7c0-0.9-1.1-1.4-3-1.4c-1.9,0-3,0.5-3,1.4
			c0,0.9,1.1,1.4,3,1.4C873,3716.1,874.1,3715.6,874.1,3714.7z M877,3707.7v1h-1.9v3.4H874v-7.6h1.1v3.2H877z"/>
		<path class="st3" d="M878.3,3713.3c2.3,0,5.4,0,8.2-0.4l0.1,0.9c-2.8,0.5-5.9,0.5-8.1,0.5L878.3,3713.3z M885.7,3708.4
			c0,1.8-1.4,3-3.4,3c-1.9,0-3.4-1.2-3.4-3c0-1.8,1.4-3,3.4-3C884.3,3705.4,885.7,3706.6,885.7,3708.4z M880.1,3708.4
			c0,1.2,0.9,2,2.2,2c1.3,0,2.2-0.8,2.2-2c0-1.2-0.9-2-2.2-2C881,3706.4,880.1,3707.2,880.1,3708.4z M888.5,3704.5v12.6h-1.1v-12.6
			H888.5z"/>
		<path class="st3" d="M900.7,3705.8c0,3.6-1.6,6.8-5.7,8.8l-0.6-0.9c3.2-1.6,4.9-4,5.2-7H895v-1H900.7z M906,3710.5h-2v6.5h-1.1
			v-12.6h1.1v5.1h2V3710.5z"/>
		<path class="st3" d="M918.5,3710.7v0.9h-11.4v-0.9h5.1v-1.5h-3.7v-4.2h8.5v0.9h-7.4v2.3h7.5v0.9h-3.8v1.5H918.5z M917.1,3714.8
			c0,1.5-1.6,2.3-4.3,2.3c-2.7,0-4.3-0.8-4.3-2.3s1.6-2.3,4.3-2.3C915.5,3712.5,917.1,3713.3,917.1,3714.8z M916,3714.8
			c0-0.9-1.2-1.4-3.1-1.4c-2,0-3.2,0.5-3.2,1.4c0,0.9,1.2,1.4,3.2,1.4C914.8,3716.1,916,3715.6,916,3714.8z"/>
		<path class="st3" d="M926.3,3711.3v1.3c2.3,0.1,3.7,0.9,3.7,2.2c0,1.4-1.6,2.2-4.3,2.2c-2.7,0-4.3-0.8-4.3-2.2
			c0-1.3,1.4-2.1,3.7-2.2v-1.3H920v-0.9h11.4v0.9H926.3z M920.7,3708.7c2.2-0.3,4.2-1.3,4.3-2.7h-3.9v-0.9h9.3v0.9h-3.9
			c0.1,1.4,2.1,2.5,4.3,2.7l-0.4,0.9c-2.1-0.3-3.9-1.2-4.6-2.6c-0.7,1.4-2.6,2.3-4.6,2.6L920.7,3708.7z M925.7,3713.5
			c-2,0-3.1,0.5-3.1,1.3c0,0.8,1.2,1.3,3.1,1.3c2,0,3.1-0.5,3.1-1.3C928.9,3714,927.7,3713.5,925.7,3713.5z"/>
		<path class="st3" d="M937.4,3708.3c0,2.1,1.5,4.3,3.4,5.1l-0.6,0.9c-1.5-0.7-2.7-2.1-3.3-3.8c-0.6,1.8-1.8,3.4-3.2,4.1l-0.7-0.9
			c1.8-0.9,3.3-3.2,3.3-5.4v-1.6h-2.9v-1h7v1h-3V3708.3z M943.2,3704.5v12.6h-1.1v-12.6H943.2z"/>
		<path class="st3" d="M957.2,3714.5v0.9h-11.4v-0.9h5.1v-2.4h-3.7v-3.9h7.5v-2h-7.5v-0.9h8.6v3.8h-7.4v2h7.7v0.9h-4v2.4H957.2z"/>
		<path class="st3" d="M968.2,3705.5c0,3.2-2.3,5.6-5.9,6.8l-0.5-0.9c3-0.9,4.9-2.7,5.1-4.9h-4.6v-0.9H968.2z M964.9,3715.8h7.2v0.9
			h-8.4v-4h1.1V3715.8z M973.4,3708.3v1h-1.9v4.4h-1.1v-9.2h1.1v3.8H973.4z"/>
		<path class="st3" d="M981.5,3711.2c-1.4-0.5-2.5-1.6-3-2.8c-0.5,1.4-1.7,2.6-3.2,3.1l-0.6-0.9c1.9-0.7,3.2-2.3,3.2-4.1v-0.3h-2.8
			v-0.9h6.7v0.9h-2.8v0.3c0,1.6,1.2,3.2,3.1,3.8L981.5,3711.2z M983.9,3711.9h1.1v5h-8v-5h1.1v1.5h5.8V3711.9z M983.9,3714.3h-5.8
			v1.6h5.8V3714.3z M985,3704.5v6.8h-1.1v-2.8h-2.5v-0.9h2.5v-3H985z"/>
		<path class="st3" d="M1002.1,3711.2v0.9h-11.3v-0.9h5.1v-1.3c-2.4-0.1-3.9-1-3.9-2.5c0-1.6,1.7-2.5,4.4-2.5c2.7,0,4.4,0.9,4.4,2.5
			c0,1.4-1.5,2.4-3.8,2.5v1.3H1002.1z M993.3,3715.8h7.5v0.9h-8.6v-3.6h1.1V3715.8z M996.4,3708.9c2,0,3.2-0.6,3.2-1.6
			s-1.3-1.6-3.2-1.6c-2,0-3.2,0.6-3.2,1.6S994.4,3708.9,996.4,3708.9z"/>
		<path class="st3" d="M1010.6,3710.6c-1.4-0.5-2.6-1.6-3.2-2.9c-0.5,1.4-1.7,2.6-3.2,3.1l-0.6-0.9c1.9-0.7,3.2-2.3,3.2-4.2v-1h1.1
			v1c0,1.7,1.3,3.3,3.2,3.9L1010.6,3710.6z M1014.3,3716v0.9h-8.5v-3.1h7v-1.2h-7v-0.9h8.1v3h-7v1.3H1014.3z M1013.9,3711h-1.1v-6.5
			h1.1V3711z"/>
		<path class="st3" d="M1022.9,3705.8c0,3.6-1.6,6.8-5.7,8.8l-0.6-0.9c3.2-1.6,4.9-4,5.2-7h-4.6v-1H1022.9z M1028.2,3710.5h-2v6.5
			h-1.1v-12.6h1.1v5.1h2V3710.5z"/>
		<path class="st3" d="M1040.7,3714.4v1h-11.4v-1H1040.7z M1039.7,3711.7c-1.9-0.4-3.9-1.8-4.7-3.6c-0.8,1.8-2.8,3.2-4.7,3.6l-0.5-1
			c2.2-0.4,4.6-2.3,4.6-4.5v-1h1.2v1c0,2.1,2.4,4,4.6,4.5L1039.7,3711.7z"/>
		<path class="st3" d="M1049.5,3705.7h1.1v8.2h-4.8v-8.2h1.1v3.1h2.6V3705.7z M1049.5,3709.6h-2.6v3.3h2.6V3709.6z M1056,3704.5
			v12.6h-1.1v-6.7h-1.7v6h-1.1v-11.7h1.1v4.7h1.7v-5H1056z"/>
		<path class="st3" d="M1064.5,3710.9v1.2h3.6v2.7h-7.4v1.2h7.8v0.9h-8.9v-2.9h7.4v-1.1h-7.4v-0.9h3.7v-1.2h-5.1v-0.9h11.3v0.9
			H1064.5z M1058.8,3708.6c2.3-0.2,4.2-0.9,4.4-2.2h-3.9v-0.9h4v-1.2h1.1v1.2h3.9v0.9h-3.9c0.2,1.2,2.1,2,4.4,2.2l-0.4,0.9
			c-2.1-0.2-4-0.8-4.7-2c-0.8,1.2-2.6,1.8-4.7,2L1058.8,3708.6z"/>
		<path class="st3" d="M1078.6,3710.9c-2,0.3-3.6,0.4-6,0.4h-1v-3.6h4.5v-1.6h-4.5v-0.9h5.7v3.4h-4.5v1.7c2.2,0,3.8-0.1,5.7-0.4
			L1078.6,3710.9z M1081,3714.7c0,1.5-1.6,2.3-4.1,2.3c-2.6,0-4.1-0.8-4.1-2.3s1.6-2.3,4.1-2.3
			C1079.4,3712.4,1081,3713.3,1081,3714.7z M1079.9,3714.7c0-0.9-1.1-1.4-3-1.4s-3,0.5-3,1.4s1.1,1.4,3,1.4
			S1079.9,3715.6,1079.9,3714.7z M1080.9,3707.4v1.7h1.9v1h-1.9v2h-1.1v-7.6h1.1v1.9h1.9v1H1080.9z"/>
		<path class="st3" d="M1090.9,3709.8c0,2.7-1.3,4.4-3.2,4.4c-1.9,0-3.2-1.7-3.2-4.4c0-2.7,1.3-4.4,3.2-4.4
			C1089.5,3705.4,1090.9,3707.1,1090.9,3709.8z M1085.6,3709.8c0,2,0.9,3.4,2.1,3.4c1.2,0,2.1-1.3,2.1-3.4c0-2-0.9-3.3-2.1-3.3
			C1086.4,3706.5,1085.6,3707.8,1085.6,3709.8z M1094.3,3704.5v12.6h-1.1v-12.6H1094.3z"/>
		<path class="st3" d="M1106.4,3705.3c0,3.2-2.2,5.4-5.9,6.5l-0.4-0.9c3.1-0.8,4.9-2.5,5.1-4.6h-4.6v-0.9H1106.4z M1101.9,3712.2
			h7.9v4.7h-7.9V3712.2z M1103,3715.9h5.6v-2.8h-5.6V3715.9z M1111.6,3708.5h-1.9v3.1h-1.1v-7.1h1.1v3.1h1.9V3708.5z"/>
		<path class="st3" d="M1124.3,3714.5v0.9h-11.4v-0.9h5.1v-3.1h1.1v3.1H1124.3z M1123.3,3711.6c-1.9-0.4-3.9-1.7-4.7-3.5
			c-0.8,1.8-2.8,3.1-4.7,3.5l-0.5-1c2.2-0.4,4.6-2.2,4.6-4.3v-1h1.2v1c0,2.1,2.4,3.9,4.6,4.3L1123.3,3711.6z"/>
		<path class="st3" d="M1130,3706.5h3.1v0.9h-7.4v-0.9h3.2v-1.9h1.1V3706.5z M1132.5,3711.3c0,1.7-1.3,2.9-3.1,2.9
			c-1.8,0-3-1.2-3-2.9c0-1.7,1.3-2.9,3-2.9C1131.3,3708.5,1132.5,3709.7,1132.5,3711.3z M1131.4,3711.3c0-1.1-0.8-1.9-2-1.9
			c-1.1,0-2,0.8-2,1.9c0,1.1,0.8,1.9,2,1.9C1130.6,3713.3,1131.4,3712.5,1131.4,3711.3z M1137.5,3710.6h-2.1v6.4h-1.1v-12.6h1.1v5.2
			h2.1V3710.6z"/>
		<path class="st3" d="M1144.7,3710c-0.6,0.7-1.5,1.1-2.6,1.1c-1.8,0-3.2-1.2-3.2-3c0-1.7,1.4-3,3.2-3c1.1,0,2,0.4,2.5,1.1h3.2v-1.7
			h1.2v7.1h-1.2v-1.7H1144.7z M1147.6,3712.9c0,1.3,0.9,2.6,2.5,3.2l-0.6,0.9c-1.2-0.5-2.1-1.3-2.5-2.4c-0.4,1-1.1,2-2.3,2.5
			c-1.2-0.5-2-1.4-2.3-2.4c-0.4,1-1.3,1.9-2.5,2.3l-0.6-0.9c1.6-0.6,2.5-1.9,2.5-3.2v-0.8h1.1v0.8c0,1.1,0.6,2.3,1.8,3
			c1.2-0.8,1.8-2,1.8-3v-0.8h1.1V3712.9z M1140,3708.1c0,1.2,0.9,2,2.1,2c1.2,0,2.1-0.8,2.1-2c0-1.2-0.9-2-2.1-2
			C1140.9,3706.1,1140,3707,1140,3708.1z M1145.1,3707.2c0.1,0.3,0.2,0.6,0.2,1c0,0.3-0.1,0.6-0.1,0.9h2.7v-1.9H1145.1z"/>
		<path class="st3" d="M1162.9,3710.6v0.9h-11.4v-0.9H1162.9z M1161.6,3707.1c0,1.5-1.7,2.4-4.4,2.4c-2.7,0-4.4-0.9-4.4-2.4
			c0-1.5,1.7-2.4,4.4-2.4C1159.9,3704.8,1161.6,3705.6,1161.6,3707.1z M1161.5,3712.7v4.1h-8.6v-4.1H1161.5z M1154,3707.1
			c0,0.9,1.2,1.5,3.2,1.5c2,0,3.2-0.5,3.2-1.5c0-0.9-1.2-1.5-3.2-1.5C1155.2,3705.7,1154,3706.2,1154,3707.1z M1154.1,3713.6v2.3
			h6.3v-2.3H1154.1z"/>
	</g>
</g>
</svg>
