<?xml version="1.0" encoding="utf-8"?>
<!-- Generator: Adobe Illustrator 25.1.0, SVG Export Plug-In . SVG Version: 6.00 Build 0)  -->
<svg version="1.1" id="레이어_1" xmlns="http://www.w3.org/2000/svg" xmlns:xlink="http://www.w3.org/1999/xlink" x="0px"
	 y="0px" viewBox="0 0 335 380.3" style="enable-background:new 0 0 335 380.3;" xml:space="preserve">
<style type="text/css">
	.st0{enable-background:new    ;}
	.st1{fill:#3AA25C;}
	.st2{fill:#929397;}
	.st3{fill:#3E3E3E;}
	.st4{fill:#E2E2E2;}
	.st5{fill:#808080;}
	.st6{fill:#A3A3A3;}
	.st7{fill:#FFFFFF;}
	.st8{fill:none;stroke:#3AA25C;}
	.st9{opacity:0.416;fill:none;stroke:#94989E;enable-background:new    ;}
</style>
<g id="그룹_5895" transform="translate(-20 -1924.87)">
	<g class="st0">
		<path class="st1" d="M33.1,1936.5v1.6H20.6v-1.6h5.2v-1.1c-2.4-0.2-4-1.3-4-2.8c0-1.8,2-2.8,5-2.8c3,0,5,1.1,5,2.8
			c0,1.5-1.6,2.6-4,2.8v1.1H33.1z M24.1,1941.3h7.6v1.6h-9.6v-4h2V1941.3z M26.9,1933.8c1.9,0,3-0.4,3-1.3c0-0.8-1.1-1.3-3-1.3
			c-1.8,0-3,0.4-3,1.3C23.9,1933.4,25,1933.8,26.9,1933.8z"/>
		<path class="st1" d="M42,1936.2c-1.6-0.5-2.6-1.4-3.3-2.6c-0.6,1.3-1.8,2.4-3.4,2.8l-1-1.5c2.3-0.7,3.3-2.4,3.3-4.1v-1h2v1
			c0,1.6,1,3.2,3.2,3.9L42,1936.2z M46.3,1941.5v1.5h-9.5v-3.8H44v-0.8h-7.2v-1.5h9.2v3.7h-7.2v0.9H46.3z M45.9,1936.3h-2v-7h2
			V1936.3z"/>
		<path class="st1" d="M55.4,1930.8c0,4.1-1.6,7.7-6.2,10l-1.1-1.5c3.2-1.6,4.9-3.8,5.3-6.9h-4.5v-1.6H55.4z M61,1936.2h-1.9v6.9h-2
			v-13.8h2v5.3H61V1936.2z"/>
		<path class="st1" d="M74.6,1939.9v1.6H62v-1.6H74.6z M73.3,1937.5c-2.4-0.5-4.2-1.8-5.1-3.6c-0.9,1.8-2.6,3.1-5,3.6l-0.8-1.7
			c3.1-0.5,4.8-2.7,4.8-4.7v-1h2.1v1c0,2,1.7,4.2,4.8,4.7L73.3,1937.5z"/>
		<path class="st1" d="M86.3,1930.1c0,3.7-2.3,6.2-6.4,7.2l-0.8-1.6c3.1-0.8,4.8-2.3,5-4.1h-4.4v-1.6H86.3z M81.2,1937.6h9v5.4h-9
			V1937.6z M83.1,1941.5h5.1v-2.3h-5.1V1941.5z M92,1934h-1.8v3.1h-2v-7.7h2v3H92V1934z"/>
		<path class="st1" d="M100.3,1937.7v1.2h3.8v4.2h-2v-2.7h-7.6v-1.6h3.9v-1.2H93v-1.6h12.5v1.6H100.3z M93.6,1934.2
			c3-0.2,4.4-1.1,4.6-2h-3.9v-1.5h4v-1.2h2v1.2h4.1v1.5h-3.9c0.2,1,1.6,1.8,4.6,2l-0.6,1.5c-2.5-0.2-4.2-0.9-5.1-2
			c-0.9,1.1-2.6,1.8-5.1,2L93.6,1934.2z"/>
		<path class="st1" d="M117.8,1936.2c-1.6-0.5-2.6-1.4-3.3-2.6c-0.6,1.3-1.8,2.4-3.4,2.8l-1-1.5c2.3-0.7,3.3-2.4,3.3-4.1v-1h2v1
			c0,1.6,1,3.2,3.2,3.9L117.8,1936.2z M122.1,1941.5v1.5h-9.5v-3.8h7.2v-0.8h-7.2v-1.5h9.2v3.7h-7.2v0.9H122.1z M121.7,1936.3h-2v-7
			h2V1936.3z"/>
		<path class="st1" d="M131.4,1937.2c-1.5-0.5-2.5-1.5-3.1-2.7c-0.6,1.3-1.7,2.5-3.3,3l-1-1.6c2.2-0.8,3.2-2.5,3.3-4.2h-2.7v-1.6
			h7.4v1.6h-2.7c0,1.6,1,3.2,3.1,4L131.4,1937.2z M126.2,1938.2h9.4v5h-2v-3.4h-7.4V1938.2z M135.6,1929.4v8.2h-2v-3.3h-2v-1.6h2
			v-3.3H135.6z"/>
	</g>
	<g class="st0">
		<path class="st2" d="M25.9,1991.1c-1.2,0.2-2.3,0.3-4.2,0.3H21v-4.1h4v0.7h-3.1v2.8c1.8,0,2.8-0.1,4-0.3L25.9,1991.1z
			 M22.8,1994.6H28v0.7h-6v-2.9h0.8V1994.6z M28.9,1989.2v0.7h-1.3v3.1h-0.8v-6.5h0.8v2.7H28.9z"/>
		<path class="st2" d="M35.8,1991.7c-0.8,0.2-1.7,0.2-2.6,0.3v3.2h-0.8v-3.2c-0.9,0-1.7,0-2.5,0l-0.1-0.7c1.7,0,3.9,0,5.9-0.3
			L35.8,1991.7z M30.5,1988.8c0-1.1,0.9-1.8,2.3-1.8c1.3,0,2.3,0.8,2.3,1.8c0,1.1-0.9,1.8-2.3,1.8
			C31.4,1990.6,30.5,1989.9,30.5,1988.8z M31.3,1988.8c0,0.7,0.6,1.2,1.5,1.2c0.9,0,1.5-0.5,1.5-1.2c0-0.7-0.6-1.2-1.5-1.2
			C31.9,1987.6,31.3,1988.1,31.3,1988.8z M37.2,1986.5v9h-0.8v-9H37.2z"/>
		<path class="st2" d="M41.5,1990.2c0-0.4,0.3-0.7,0.7-0.7s0.7,0.3,0.7,0.7c0,0.4-0.3,0.7-0.7,0.7S41.5,1990.6,41.5,1990.2z
			 M41.5,1994.2c0-0.4,0.3-0.7,0.7-0.7s0.7,0.3,0.7,0.7c0,0.4-0.3,0.7-0.7,0.7S41.5,1994.6,41.5,1994.2z"/>
	</g>
	<g class="st0">
		<path class="st2" d="M46.8,1993.1v-3H46v-0.7l0.8,0l0.1-1.5h0.8v1.5h1.5v0.7h-1.5v3c0,0.7,0.2,1,0.8,1c0.2,0,0.4-0.1,0.6-0.1
			l0.2,0.7c-0.3,0.1-0.7,0.2-1,0.2C47.2,1994.9,46.8,1994.2,46.8,1993.1z"/>
		<path class="st2" d="M50.1,1991.1c0-2.4,1.4-3.8,3.2-3.8c0.9,0,1.6,0.4,2,0.9l-0.5,0.6c-0.4-0.4-0.9-0.7-1.5-0.7
			c-1.4,0-2.3,1.1-2.3,3c0,1.8,0.9,3,2.3,3c0.7,0,1.2-0.3,1.7-0.8l0.5,0.6c-0.6,0.7-1.3,1-2.2,1
			C51.5,1994.9,50.1,1993.5,50.1,1991.1z"/>
		<path class="st2" d="M56.2,1991.1c0-2.3,1.3-3.8,3.1-3.8s3.1,1.4,3.1,3.8c0,2.3-1.3,3.8-3.1,3.8S56.2,1993.4,56.2,1991.1z
			 M61.5,1991.1c0-1.8-0.9-3-2.2-3c-1.3,0-2.2,1.1-2.2,3c0,1.8,0.9,3,2.2,3C60.6,1994.1,61.5,1992.9,61.5,1991.1z"/>
	</g>
	<g class="st0">
		<path class="st2" d="M63.3,1997.8c1.3-1.2,2-2,2-2.8c0-0.5-0.3-0.8-0.8-0.8c-0.4,0-0.7,0.2-0.9,0.5l-0.3-0.3
			c0.3-0.4,0.7-0.6,1.3-0.6c0.8,0,1.2,0.5,1.2,1.3c0,0.9-0.7,1.7-1.7,2.7c0.2,0,0.5,0,0.7,0h1.2v0.5h-2.7V1997.8z"/>
	</g>
	<g class="st0">
		<path class="st2" d="M66.7,1991.6h2.6v0.7h-2.6V1991.6z"/>
		<path class="st2" d="M70.2,1992.1c0-1.8,1.2-2.9,2.4-2.9c1.4,0,2.2,1,2.2,2.5c0,0.2,0,0.4,0,0.5h-3.7c0.1,1.2,0.8,1.9,1.8,1.9
			c0.5,0,1-0.2,1.4-0.4l0.3,0.6c-0.5,0.3-1.1,0.6-1.8,0.6C71.4,1994.9,70.2,1993.8,70.2,1992.1z M74,1991.6c0-1.1-0.5-1.7-1.3-1.7
			c-0.8,0-1.4,0.6-1.6,1.7H74z"/>
		<path class="st2" d="M79.6,1995.1l0.1-1c-0.4,0.4-1,0.8-1.6,0.8c-1.4,0-2.2-1-2.2-2.8c0-1.8,1.1-2.9,2.3-2.9
			c0.6,0,1.1,0.2,1.5,0.7h0l0.1-0.5h0.7v7.7h-0.9V1995.1z M79.6,1993.4v-2.8c-0.5-0.4-0.9-0.6-1.3-0.6c-0.9,0-1.6,0.8-1.6,2.1
			c0,1.3,0.5,2.1,1.5,2.1C78.7,1994.1,79.2,1993.9,79.6,1993.4z"/>
	</g>
	<g class="st0">
		<path class="st2" d="M25.9,2166.5c-1.2,0.2-2.3,0.3-4.2,0.3H21v-4.1h4v0.7h-3.1v2.8c1.8,0,2.8-0.1,4-0.3L25.9,2166.5z M22.8,2170
			H28v0.7h-6v-2.9h0.8V2170z M28.9,2164.6v0.7h-1.3v3.1h-0.8v-6.5h0.8v2.7H28.9z"/>
		<path class="st2" d="M35.8,2167.1c-0.8,0.2-1.7,0.2-2.6,0.3v3.2h-0.8v-3.2c-0.9,0-1.7,0-2.5,0l-0.1-0.7c1.7,0,3.9,0,5.9-0.3
			L35.8,2167.1z M30.5,2164.2c0-1.1,0.9-1.8,2.3-1.8c1.3,0,2.3,0.8,2.3,1.8c0,1.1-0.9,1.8-2.3,1.8
			C31.4,2166.1,30.5,2165.3,30.5,2164.2z M31.3,2164.2c0,0.7,0.6,1.2,1.5,1.2c0.9,0,1.5-0.5,1.5-1.2c0-0.7-0.6-1.2-1.5-1.2
			C31.9,2163,31.3,2163.5,31.3,2164.2z M37.2,2162v9h-0.8v-9H37.2z"/>
		<path class="st2" d="M41.5,2165.6c0-0.4,0.3-0.7,0.7-0.7s0.7,0.3,0.7,0.7c0,0.4-0.3,0.7-0.7,0.7S41.5,2166,41.5,2165.6z
			 M41.5,2169.6c0-0.4,0.3-0.7,0.7-0.7s0.7,0.3,0.7,0.7c0,0.4-0.3,0.7-0.7,0.7S41.5,2170,41.5,2169.6z"/>
	</g>
	<g class="st0">
		<path class="st2" d="M46.8,2168.5v-3H46v-0.7l0.8,0l0.1-1.5h0.8v1.5h1.5v0.7h-1.5v3c0,0.7,0.2,1,0.8,1c0.2,0,0.4-0.1,0.6-0.1
			l0.2,0.7c-0.3,0.1-0.7,0.2-1,0.2C47.2,2170.3,46.8,2169.6,46.8,2168.5z"/>
		<path class="st2" d="M50.1,2166.5c0-2.4,1.4-3.8,3.2-3.8c0.9,0,1.6,0.4,2,0.9l-0.5,0.6c-0.4-0.4-0.9-0.7-1.5-0.7
			c-1.4,0-2.3,1.1-2.3,3c0,1.8,0.9,3,2.3,3c0.7,0,1.2-0.3,1.7-0.8l0.5,0.6c-0.6,0.7-1.3,1-2.2,1
			C51.5,2170.3,50.1,2168.9,50.1,2166.5z"/>
		<path class="st2" d="M56.2,2166.5c0-2.3,1.3-3.8,3.1-3.8s3.1,1.4,3.1,3.8c0,2.3-1.3,3.8-3.1,3.8S56.2,2168.8,56.2,2166.5z
			 M61.5,2166.5c0-1.8-0.9-3-2.2-3c-1.3,0-2.2,1.1-2.2,3c0,1.8,0.9,3,2.2,3C60.6,2169.5,61.5,2168.3,61.5,2166.5z"/>
	</g>
	<g class="st0">
		<path class="st2" d="M63.3,2173.2c1.3-1.2,2-2,2-2.8c0-0.5-0.3-0.8-0.8-0.8c-0.4,0-0.7,0.2-0.9,0.5l-0.3-0.3
			c0.3-0.4,0.7-0.6,1.3-0.6c0.8,0,1.2,0.5,1.2,1.3c0,0.9-0.7,1.7-1.7,2.7c0.2,0,0.5,0,0.7,0h1.2v0.5h-2.7V2173.2z"/>
	</g>
	<g class="st0">
		<path class="st2" d="M66.7,2167h2.6v0.7h-2.6V2167z"/>
		<path class="st2" d="M70.2,2167.5c0-1.8,1.2-2.9,2.4-2.9c1.4,0,2.2,1,2.2,2.5c0,0.2,0,0.4,0,0.5h-3.7c0.1,1.2,0.8,1.9,1.8,1.9
			c0.5,0,1-0.2,1.4-0.4l0.3,0.6c-0.5,0.3-1.1,0.6-1.8,0.6C71.4,2170.3,70.2,2169.3,70.2,2167.5z M74,2167c0-1.1-0.5-1.7-1.3-1.7
			c-0.8,0-1.4,0.6-1.6,1.7H74z"/>
		<path class="st2" d="M79.6,2170.5l0.1-1c-0.4,0.4-1,0.8-1.6,0.8c-1.4,0-2.2-1-2.2-2.8c0-1.8,1.1-2.9,2.3-2.9
			c0.6,0,1.1,0.2,1.5,0.7h0l0.1-0.5h0.7v7.7h-0.9V2170.5z M79.6,2168.8v-2.8c-0.5-0.4-0.9-0.6-1.3-0.6c-0.9,0-1.6,0.8-1.6,2.1
			c0,1.3,0.5,2.1,1.5,2.1C78.7,2169.5,79.2,2169.3,79.6,2168.8z"/>
	</g>
	<g class="st0">
		<path class="st3" d="M24.3,1976c-1.9,0-3.4-1.1-3.4-2.8h1.7c0.1,0.8,0.6,1.4,1.7,1.4c1.1,0,1.8-0.6,1.8-1.4c0-2.4-5.2-0.8-5.2-4.4
			c0-1.7,1.4-2.8,3.3-2.8c1.9,0,3.2,1,3.3,2.6h-1.8c-0.1-0.7-0.6-1.3-1.6-1.3c-0.9,0-1.6,0.4-1.6,1.4c0,2.2,5.2,0.8,5.2,4.4
			C27.6,1974.6,26.4,1976,24.3,1976z"/>
		<path class="st3" d="M33.9,1966c2,0,3.8,1,4.5,2.9h-1.9c-0.5-1-1.4-1.5-2.6-1.5c-1.9,0-3.3,1.4-3.3,3.6s1.4,3.6,3.3,3.6
			c1.2,0,2.1-0.5,2.6-1.5h1.9c-0.7,1.9-2.5,2.9-4.5,2.9c-2.7,0-5-2-5-5C29,1968.1,31.2,1966,33.9,1966z"/>
		<path class="st3" d="M44.8,1976c-2.7,0-5-2.1-5-5c0-2.9,2.2-5,5-5c2.8,0,5,2.1,5,5C49.7,1973.9,47.5,1976,44.8,1976z M44.8,1974.6
			c1.9,0,3.3-1.4,3.3-3.6s-1.4-3.6-3.3-3.6c-1.9,0-3.3,1.4-3.3,3.6S42.8,1974.6,44.8,1974.6z"/>
		<path class="st3" d="M54.7,1971.9h-1.8v4h-1.6v-9.7h3.4c2.3,0,3.4,1.3,3.4,2.9C58.1,1970.4,57.2,1971.9,54.7,1971.9z M54.7,1970.6
			c1.2,0,1.8-0.6,1.8-1.6c0-1-0.6-1.6-1.8-1.6h-1.8v3.2H54.7z"/>
		<path class="st3" d="M65,1967.4h-3.8v2.9h3.4v1.3h-3.4v3H65v1.3h-5.4v-9.7H65V1967.4z"/>
		<path class="st3" d="M71.5,1967.1h-1.3v-1.5h2.9v10.2h-1.6V1967.1z"/>
	</g>
	<g class="st0">
		<path class="st3" d="M24.3,2151.4c-1.9,0-3.4-1.1-3.4-2.8h1.7c0.1,0.8,0.6,1.4,1.7,1.4c1.1,0,1.8-0.6,1.8-1.4
			c0-2.4-5.2-0.8-5.2-4.4c0-1.7,1.4-2.8,3.3-2.8c1.9,0,3.2,1,3.3,2.6h-1.8c-0.1-0.7-0.6-1.3-1.6-1.3c-0.9,0-1.6,0.4-1.6,1.4
			c0,2.2,5.2,0.8,5.2,4.4C27.6,2150,26.4,2151.4,24.3,2151.4z"/>
		<path class="st3" d="M33.9,2141.4c2,0,3.8,1,4.5,2.9h-1.9c-0.5-1-1.4-1.5-2.6-1.5c-1.9,0-3.3,1.4-3.3,3.6s1.4,3.6,3.3,3.6
			c1.2,0,2.1-0.5,2.6-1.5h1.9c-0.7,1.9-2.5,2.9-4.5,2.9c-2.7,0-5-2-5-5C29,2143.5,31.2,2141.4,33.9,2141.4z"/>
		<path class="st3" d="M44.8,2151.4c-2.7,0-5-2.1-5-5c0-2.9,2.2-5,5-5c2.8,0,5,2.1,5,5C49.7,2149.3,47.5,2151.4,44.8,2151.4z
			 M44.8,2150c1.9,0,3.3-1.4,3.3-3.6s-1.4-3.6-3.3-3.6c-1.9,0-3.3,1.4-3.3,3.6S42.8,2150,44.8,2150z"/>
		<path class="st3" d="M54.7,2147.3h-1.8v4h-1.6v-9.7h3.4c2.3,0,3.4,1.3,3.4,2.9C58.1,2145.8,57.2,2147.3,54.7,2147.3z M54.7,2146
			c1.2,0,1.8-0.6,1.8-1.6c0-1-0.6-1.6-1.8-1.6h-1.8v3.2H54.7z"/>
		<path class="st3" d="M65,2142.8h-3.8v2.9h3.4v1.3h-3.4v3H65v1.3h-5.4v-9.7H65V2142.8z"/>
		<path class="st3" d="M70.3,2150c2.4-2.1,4.9-4,4.9-6c0-1.1-0.5-1.8-1.7-1.8c-1.1,0-1.7,0.8-1.8,1.9h-1.5c0.1-2.2,1.5-3.3,3.3-3.3
			c2.1,0,3.2,1.2,3.2,3.1c0,2.5-2.5,4.4-4.2,5.9h4.4v1.3h-6.8V2150z"/>
	</g>
	<path id="패스_3033" class="st4" d="M134,2128.7h52v-84.1h-52V2128.7z"/>
	<path id="패스_3523" class="st4" d="M134,2304.1h52V2199h-52V2304.1z"/>
	<g class="st0">
		<path class="st5" d="M149.5,2119.7c1.7-1.5,3.5-2.8,3.5-4.3c0-0.8-0.3-1.3-1.2-1.3c-0.8,0-1.2,0.6-1.3,1.4h-1.1
			c0-1.6,1.1-2.3,2.3-2.3c1.5,0,2.3,0.9,2.3,2.2c0,1.8-1.8,3.1-3,4.2h3.2v1h-4.9V2119.7z"/>
		<path class="st5" d="M157.9,2113.2c2,0,2.6,1.6,2.6,3.7c0,2.1-0.6,3.7-2.6,3.7s-2.6-1.6-2.6-3.7
			C155.3,2114.8,155.9,2113.2,157.9,2113.2z M157.9,2114.3c-1.3,0-1.5,1.3-1.5,2.6c0,1.4,0.1,2.7,1.5,2.7s1.5-1.2,1.5-2.7
			C159.4,2115.5,159.3,2114.3,157.9,2114.3z"/>
		<path class="st5" d="M162.5,2114.4h-0.9v-1h2.1v7.3h-1.1V2114.4z"/>
		<path class="st5" d="M165.4,2115.2c0-1.1,0.8-2,2.4-2c1.6,0,2.4,0.9,2.4,2c0,0.8-0.4,1.3-1,1.6c0.7,0.3,1.2,0.9,1.2,1.8
			c0,1.3-1.1,2.2-2.6,2.2c-1.5,0-2.6-0.9-2.6-2.2c0-0.9,0.5-1.5,1.2-1.8C165.9,2116.5,165.4,2116,165.4,2115.2z M166.3,2118.6
			c0,0.7,0.6,1.3,1.5,1.3c0.9,0,1.5-0.5,1.5-1.3c0-0.8-0.6-1.3-1.5-1.3C167,2117.3,166.3,2117.7,166.3,2118.6z M169.1,2115.3
			c0-0.7-0.5-1.2-1.3-1.2c-0.8,0-1.3,0.4-1.3,1.2c0,0.7,0.5,1.1,1.3,1.1C168.6,2116.5,169.1,2116,169.1,2115.3z"/>
	</g>
	<g class="st0">
		<path class="st5" d="M149.5,2295.1c1.7-1.5,3.5-2.8,3.5-4.3c0-0.8-0.3-1.3-1.2-1.3c-0.8,0-1.2,0.6-1.3,1.4h-1.1
			c0-1.6,1.1-2.3,2.3-2.3c1.5,0,2.3,0.9,2.3,2.2c0,1.8-1.8,3.1-3,4.2h3.2v1h-4.9V2295.1z"/>
		<path class="st5" d="M157.9,2288.6c2,0,2.6,1.6,2.6,3.7c0,2.1-0.6,3.7-2.6,3.7s-2.6-1.6-2.6-3.7
			C155.3,2290.2,155.9,2288.6,157.9,2288.6z M157.9,2289.7c-1.3,0-1.5,1.3-1.5,2.6c0,1.4,0.1,2.7,1.5,2.7s1.5-1.2,1.5-2.7
			C159.4,2290.9,159.3,2289.7,157.9,2289.7z"/>
		<path class="st5" d="M162.5,2289.8h-0.9v-1h2.1v7.3h-1.1V2289.8z"/>
		<path class="st5" d="M165.4,2290.6c0-1.1,0.8-2,2.4-2c1.6,0,2.4,0.9,2.4,2c0,0.8-0.4,1.3-1,1.6c0.7,0.3,1.2,0.9,1.2,1.8
			c0,1.3-1.1,2.2-2.6,2.2c-1.5,0-2.6-0.9-2.6-2.2c0-0.9,0.5-1.5,1.2-1.8C165.9,2291.9,165.4,2291.4,165.4,2290.6z M166.3,2294
			c0,0.7,0.6,1.3,1.5,1.3c0.9,0,1.5-0.5,1.5-1.3c0-0.8-0.6-1.3-1.5-1.3C167,2292.7,166.3,2293.1,166.3,2294z M169.1,2290.7
			c0-0.8-0.5-1.2-1.3-1.2c-0.8,0-1.3,0.4-1.3,1.2c0,0.7,0.5,1.1,1.3,1.1C168.6,2291.9,169.1,2291.4,169.1,2290.7z"/>
	</g>
	<g class="st0">
		<path class="st6" d="M143.7,2035.3c2.4-2.1,4.9-4,4.9-6c0-1.1-0.5-1.8-1.7-1.8c-1.1,0-1.7,0.8-1.8,1.9h-1.5
			c0.1-2.2,1.5-3.3,3.3-3.3c2.1,0,3.2,1.2,3.2,3.1c0,2.5-2.5,4.4-4.2,5.9h4.4v1.3h-6.8V2035.3z"/>
		<path class="st6" d="M152.1,2034.7h1.7l-1.7,3.9h-1L152.1,2034.7z"/>
		<path class="st6" d="M160.5,2028.7c-0.2-0.8-0.7-1.3-1.7-1.3c-1.4,0-2.2,1-2.2,3.7c0.5-0.8,1.5-1.3,2.6-1.3c1.8,0,3.1,1.2,3.1,3.4
			c0,1.9-1.2,3.4-3.3,3.4c-3,0-3.7-2.1-3.7-5.3c0-3.2,1.1-5.1,3.6-5.1c2,0,3,1.3,3.2,2.6H160.5z M156.8,2033.1
			c0,1.3,0.7,2.1,2.1,2.1c1.2,0,1.9-0.8,1.9-2c0-1.2-0.6-2.1-2-2.1C157.8,2031.2,156.8,2031.8,156.8,2033.1z"/>
		<path class="st6" d="M169.5,2028.7c-0.2-0.8-0.7-1.3-1.7-1.3c-1.4,0-2.2,1-2.2,3.7c0.5-0.8,1.5-1.3,2.6-1.3c1.8,0,3.1,1.2,3.1,3.4
			c0,1.9-1.2,3.4-3.3,3.4c-3,0-3.7-2.1-3.7-5.3c0-3.2,1.1-5.1,3.6-5.1c2,0,3,1.3,3.2,2.6H169.5z M165.8,2033.1
			c0,1.3,0.7,2.1,2.1,2.1c1.2,0,1.9-0.8,1.9-2c0-1.2-0.6-2.1-2-2.1C166.8,2031.2,165.8,2031.8,165.8,2033.1z"/>
		<path class="st6" d="M174.1,2027.8h-1.3v-1.5h2.9v10.2h-1.6V2027.8z"/>
	</g>
	<g class="st0">
		<path class="st6" d="M138.1,2188.9h-5.1v-1.2l4.7-6.8h1.9v6.6h1.3v1.4h-1.3v2.1h-1.6V2188.9z M138.2,2187.5v-4.9l-3.3,4.9H138.2z"
			/>
		<path class="st6" d="M145.6,2180.5c2,0,3.1,1.2,3.1,2.7c0,1.2-0.8,2-1.6,2.3v0.1c1.1,0.3,1.8,1.2,1.8,2.6c0,1.6-1.1,2.9-3.3,2.9
			c-1.9,0-3.4-1-3.5-3h1.5c0.1,1,0.8,1.7,2,1.7c1.2,0,1.8-0.7,1.8-1.7c0-1.3-0.9-1.8-2.5-1.8h-0.4v-1.3h0.4c1.4,0,2.3-0.4,2.3-1.5
			c0-0.9-0.6-1.5-1.7-1.5c-1.1,0-1.6,0.7-1.7,1.4h-1.6C142.4,2181.5,143.8,2180.5,145.6,2180.5z"/>
		<path class="st6" d="M157.2,2180.7v1.4h-4.7v2.8c0.4-0.5,1.2-0.9,2.1-0.9c2.5,0,3.3,1.9,3.3,3.4c0,2-1.2,3.6-3.5,3.6
			c-2.1,0-3.3-1.2-3.6-2.8h1.6c0.2,0.9,0.9,1.4,2,1.4c1.4,0,2-0.9,2-2.2c0-1.3-0.7-2.1-2-2.1c-0.9,0-1.6,0.5-1.8,1.3H151v-5.9H157.2
			z"/>
		<path class="st6" d="M159.8,2189.1h1.7l-1.7,3.9h-1L159.8,2189.1z"/>
		<path class="st6" d="M168.2,2183.1c-0.2-0.8-0.7-1.3-1.7-1.3c-1.4,0-2.2,1-2.2,3.7c0.5-0.8,1.5-1.3,2.6-1.3c1.8,0,3.1,1.2,3.1,3.4
			c0,1.9-1.2,3.4-3.3,3.4c-3,0-3.7-2.1-3.7-5.3c0-3.2,1.1-5.1,3.6-5.1c2,0,3,1.3,3.2,2.6H168.2z M164.5,2187.6
			c0,1.3,0.7,2.1,2.1,2.1c1.2,0,1.9-0.8,1.9-2c0-1.2-0.6-2.1-2-2.1C165.5,2185.6,164.5,2186.2,164.5,2187.6z"/>
		<path class="st6" d="M178.2,2180.8v1.2l-3.9,9h-1.6l3.9-8.8h-5.2v-1.4H178.2z"/>
		<path class="st6" d="M181.5,2188.2c0.2,0.9,0.8,1.4,1.8,1.4c1.3,0,1.9-0.9,1.9-3.5c-0.5,0.6-1.3,1-2.3,1c-1.8,0-3.2-1.1-3.2-3.3
			c0-2,1.2-3.4,3.4-3.4c2.6,0,3.5,1.8,3.5,5.2c0,3.4-0.7,5.3-3.4,5.3c-2.1,0-3.1-1.3-3.2-2.8H181.5z M185.1,2183.9
			c0-1.3-0.7-2-1.9-2c-1.2,0-1.9,0.8-1.9,2c0,1.1,0.6,2,2,2C184.4,2185.8,185.1,2185.1,185.1,2183.9z"/>
	</g>
	<path id="패스_3034" class="st4" d="M206,2128.7h52v-107.8h-52V2128.7z"/>
	<path id="패스_3522" class="st4" d="M206,2304.1h52v-107.8h-52V2304.1z"/>
	<g class="st0">
		<path class="st5" d="M221.5,2119.7c1.7-1.5,3.5-2.8,3.5-4.3c0-0.8-0.3-1.3-1.2-1.3c-0.8,0-1.2,0.6-1.3,1.4h-1.1
			c0-1.6,1.1-2.3,2.3-2.3c1.5,0,2.3,0.9,2.3,2.2c0,1.8-1.8,3.1-3,4.2h3.2v1h-4.9V2119.7z"/>
		<path class="st5" d="M230,2113.2c2,0,2.6,1.6,2.6,3.7c0,2.1-0.6,3.7-2.6,3.7s-2.6-1.6-2.6-3.7
			C227.4,2114.8,227.9,2113.2,230,2113.2z M230,2114.3c-1.3,0-1.5,1.3-1.5,2.6c0,1.4,0.1,2.7,1.5,2.7s1.5-1.2,1.5-2.7
			C231.4,2115.5,231.3,2114.3,230,2114.3z"/>
		<path class="st5" d="M234.5,2114.4h-0.9v-1h2.1v7.3h-1.1V2114.4z"/>
		<path class="st5" d="M238.7,2118.7c0.1,0.6,0.6,1,1.3,1c0.9,0,1.4-0.6,1.4-2.5c-0.3,0.5-1,0.7-1.6,0.7c-1.3,0-2.3-0.8-2.3-2.3
			c0-1.4,0.9-2.4,2.4-2.4c1.9,0,2.5,1.3,2.5,3.7c0,2.5-0.5,3.8-2.4,3.8c-1.5,0-2.2-0.9-2.3-2H238.7z M241.2,2115.6
			c0-0.9-0.5-1.5-1.4-1.5c-0.8,0-1.4,0.6-1.4,1.4c0,0.8,0.4,1.4,1.4,1.4C240.8,2117,241.2,2116.4,241.2,2115.6z"/>
	</g>
	<g class="st0">
		<path class="st5" d="M221.5,2295.1c1.7-1.5,3.5-2.8,3.5-4.3c0-0.8-0.3-1.3-1.2-1.3c-0.8,0-1.2,0.6-1.3,1.4h-1.1
			c0-1.6,1.1-2.3,2.3-2.3c1.5,0,2.3,0.9,2.3,2.2c0,1.8-1.8,3.1-3,4.2h3.2v1h-4.9V2295.1z"/>
		<path class="st5" d="M230,2288.6c2,0,2.6,1.6,2.6,3.7c0,2.1-0.6,3.7-2.6,3.7s-2.6-1.6-2.6-3.7
			C227.4,2290.2,227.9,2288.6,230,2288.6z M230,2289.7c-1.3,0-1.5,1.3-1.5,2.6c0,1.4,0.1,2.7,1.5,2.7s1.5-1.2,1.5-2.7
			C231.4,2290.9,231.3,2289.7,230,2289.7z"/>
		<path class="st5" d="M234.5,2289.8h-0.9v-1h2.1v7.3h-1.1V2289.8z"/>
		<path class="st5" d="M238.7,2294.1c0.1,0.6,0.6,1,1.3,1c0.9,0,1.4-0.6,1.4-2.5c-0.3,0.5-1,0.7-1.6,0.7c-1.3,0-2.3-0.8-2.3-2.3
			c0-1.4,0.9-2.4,2.4-2.4c1.9,0,2.5,1.3,2.5,3.7c0,2.5-0.5,3.8-2.4,3.8c-1.5,0-2.2-0.9-2.3-2H238.7z M241.2,2291
			c0-0.9-0.5-1.5-1.4-1.5c-0.8,0-1.4,0.6-1.4,1.4c0,0.8,0.4,1.4,1.4,1.4C240.8,2292.4,241.2,2291.8,241.2,2291z"/>
	</g>
	<g class="st0">
		<path class="st6" d="M219,2002.4c2,0,3.1,1.2,3.1,2.7c0,1.2-0.8,2-1.6,2.3v0.1c1.1,0.3,1.8,1.2,1.8,2.6c0,1.6-1.1,2.9-3.3,2.9
			c-1.9,0-3.4-1-3.5-3h1.5c0.1,1,0.8,1.7,2,1.7c1.2,0,1.8-0.7,1.8-1.7c0-1.3-0.9-1.8-2.5-1.8h-0.4v-1.3h0.4c1.4,0,2.3-0.4,2.3-1.5
			c0-0.9-0.6-1.5-1.7-1.5c-1.1,0-1.6,0.7-1.7,1.4h-1.6C215.7,2003.4,217.1,2002.4,219,2002.4z"/>
		<path class="st6" d="M224.2,2011h1.7l-1.7,3.9h-1L224.2,2011z"/>
		<path class="st6" d="M232,2010.7h-5.1v-1.2l4.7-6.8h1.9v6.6h1.3v1.4h-1.3v2.1H232V2010.7z M232.1,2009.4v-4.9l-3.3,4.9H232.1z"/>
		<path class="st6" d="M237.3,2004.1H236v-1.5h2.9v10.2h-1.6V2004.1z"/>
		<path class="st6" d="M244.7,2002.5c2.9,0,3.6,2.2,3.6,5.2c0,3-0.8,5.2-3.6,5.2s-3.6-2.2-3.6-5.2
			C241.1,2004.7,241.8,2002.5,244.7,2002.5z M244.7,2003.9c-1.9,0-2.1,1.8-2.1,3.7c0,2,0.2,3.8,2.1,3.8c1.9,0,2.1-1.8,2.1-3.8
			C246.8,2005.7,246.6,2003.9,244.7,2003.9z"/>
	</g>
	<g class="st0">
		<path class="st6" d="M209.6,2186.2h-5.1v-1.2l4.7-6.8h1.9v6.6h1.3v1.4h-1.3v2.1h-1.6V2186.2z M209.6,2184.8v-4.9l-3.3,4.9H209.6z"
			/>
		<path class="st6" d="M217.1,2177.8c2,0,3.1,1.2,3.1,2.7c0,1.2-0.8,2-1.6,2.3v0.1c1.1,0.3,1.8,1.2,1.8,2.6c0,1.6-1.1,2.9-3.3,2.9
			c-1.9,0-3.4-1-3.5-3h1.5c0.1,1,0.8,1.7,2,1.7c1.2,0,1.8-0.7,1.8-1.7c0-1.3-0.9-1.8-2.5-1.8H216v-1.3h0.4c1.4,0,2.3-0.4,2.3-1.5
			c0-0.9-0.6-1.5-1.7-1.5c-1.1,0-1.6,0.7-1.7,1.4h-1.6C213.8,2178.8,215.2,2177.8,217.1,2177.8z"/>
		<path class="st6" d="M224,2185.5c0.2,0.9,0.8,1.4,1.8,1.4c1.3,0,1.9-0.9,1.9-3.5c-0.5,0.6-1.3,1-2.3,1c-1.8,0-3.2-1.1-3.2-3.3
			c0-2,1.2-3.4,3.4-3.4c2.6,0,3.5,1.8,3.5,5.2c0,3.4-0.7,5.3-3.4,5.3c-2.1,0-3.1-1.3-3.2-2.8H224z M227.6,2181.2c0-1.3-0.7-2-1.9-2
			c-1.2,0-1.9,0.8-1.9,2c0,1.1,0.6,2,2,2C227,2183.1,227.6,2182.4,227.6,2181.2z"/>
		<path class="st6" d="M231.2,2186.4h1.7l-1.7,3.9h-1L231.2,2186.4z"/>
		<path class="st6" d="M240.7,2178v1.4H236v2.8c0.4-0.5,1.2-0.9,2.1-0.9c2.5,0,3.3,1.9,3.3,3.4c0,2-1.2,3.6-3.5,3.6
			c-2.1,0-3.3-1.2-3.6-2.8h1.6c0.2,0.9,0.9,1.4,2,1.4c1.4,0,2-0.9,2-2.2c0-1.3-0.7-2.1-2-2.1c-0.9,0-1.6,0.5-1.8,1.3h-1.5v-5.9
			H240.7z"/>
		<path class="st6" d="M246.7,2177.9c2.9,0,3.6,2.2,3.6,5.2c0,3-0.8,5.2-3.6,5.2s-3.6-2.2-3.6-5.2
			C243,2180.1,243.8,2177.9,246.7,2177.9z M246.7,2179.3c-1.9,0-2.1,1.8-2.1,3.7c0,2,0.2,3.8,2.1,3.8c1.9,0,2.1-1.8,2.1-3.8
			C248.8,2181.1,248.5,2179.3,246.7,2179.3z"/>
		<path class="st6" d="M257.5,2180.4c-0.2-0.8-0.7-1.3-1.7-1.3c-1.4,0-2.2,1-2.2,3.7c0.5-0.8,1.5-1.3,2.6-1.3c1.8,0,3.1,1.2,3.1,3.4
			c0,1.9-1.2,3.4-3.3,3.4c-3,0-3.7-2.1-3.7-5.3c0-3.2,1.1-5.1,3.6-5.1c2,0,3,1.3,3.2,2.6H257.5z M253.8,2184.8
			c0,1.3,0.7,2.1,2.1,2.1c1.2,0,1.9-0.8,1.9-2c0-1.2-0.6-2.1-2-2.1C254.8,2182.9,253.8,2183.5,253.8,2184.8z"/>
	</g>
	<path id="패스_3035" class="st1" d="M278,2128.7h52v-40.8h-52V2128.7z"/>
	<path id="패스_3524" class="st1" d="M278,2304.1h52v-25h-52V2304.1z"/>
	<g class="st0">
		<path class="st7" d="M292.2,2119.5c1.6-1.4,3.4-2.7,3.4-4c0-0.6-0.3-1.1-1-1.1c-0.7,0-1,0.5-1,1.2h-1.4c0-1.7,1.1-2.4,2.4-2.4
			c1.6,0,2.4,0.9,2.4,2.2c0,1.7-1.6,3-2.8,4h2.9v1.2h-4.9V2119.5z"/>
		<path class="st7" d="M300.8,2113.2c2.1,0,2.7,1.6,2.7,3.7c0,2.1-0.6,3.7-2.7,3.7c-2.1,0-2.7-1.6-2.7-3.7
			C298.1,2114.8,298.7,2113.2,300.8,2113.2z M300.8,2114.5c-1.2,0-1.3,1.1-1.3,2.4c0,1.3,0.1,2.4,1.3,2.4c1.2,0,1.3-1.1,1.3-2.4
			C302.1,2115.6,301.9,2114.5,300.8,2114.5z"/>
		<path class="st7" d="M304.4,2119.5c1.6-1.4,3.4-2.7,3.4-4c0-0.6-0.3-1.1-1-1.1c-0.7,0-1,0.5-1,1.2h-1.4c0-1.7,1.1-2.4,2.4-2.4
			c1.6,0,2.4,0.9,2.4,2.2c0,1.7-1.6,3-2.8,4h2.9v1.2h-4.9V2119.5z"/>
		<path class="st7" d="M313,2113.2c2.1,0,2.7,1.6,2.7,3.7c0,2.1-0.6,3.7-2.7,3.7c-2.1,0-2.7-1.6-2.7-3.7
			C310.3,2114.8,310.9,2113.2,313,2113.2z M313,2114.5c-1.2,0-1.3,1.1-1.3,2.4c0,1.3,0.1,2.4,1.3,2.4c1.2,0,1.3-1.1,1.3-2.4
			C314.3,2115.6,314.1,2114.5,313,2114.5z"/>
	</g>
	<g class="st0">
		<path class="st7" d="M292.2,2294.9c1.6-1.4,3.4-2.7,3.4-4c0-0.6-0.3-1.1-1-1.1c-0.7,0-1,0.5-1,1.2h-1.4c0-1.7,1.1-2.4,2.4-2.4
			c1.6,0,2.4,0.9,2.4,2.2c0,1.7-1.6,3-2.8,4h2.9v1.2h-4.9V2294.9z"/>
		<path class="st7" d="M300.8,2288.6c2.1,0,2.7,1.6,2.7,3.7c0,2.1-0.6,3.7-2.7,3.7c-2.1,0-2.7-1.6-2.7-3.7
			C298.1,2290.2,298.7,2288.6,300.8,2288.6z M300.8,2289.9c-1.2,0-1.3,1.1-1.3,2.4c0,1.3,0.1,2.4,1.3,2.4c1.2,0,1.3-1.1,1.3-2.4
			C302.1,2291.1,301.9,2289.9,300.8,2289.9z"/>
		<path class="st7" d="M304.4,2294.9c1.6-1.4,3.4-2.7,3.4-4c0-0.6-0.3-1.1-1-1.1c-0.7,0-1,0.5-1,1.2h-1.4c0-1.7,1.1-2.4,2.4-2.4
			c1.6,0,2.4,0.9,2.4,2.2c0,1.7-1.6,3-2.8,4h2.9v1.2h-4.9V2294.9z"/>
		<path class="st7" d="M313,2288.6c2.1,0,2.7,1.6,2.7,3.7c0,2.1-0.6,3.7-2.7,3.7c-2.1,0-2.7-1.6-2.7-3.7
			C310.3,2290.2,310.9,2288.6,313,2288.6z M313,2289.9c-1.2,0-1.3,1.1-1.3,2.4c0,1.3,0.1,2.4,1.3,2.4c1.2,0,1.3-1.1,1.3-2.4
			C314.3,2291.1,314.1,2289.9,313,2289.9z"/>
	</g>
	<g class="st0">
		<path class="st1" d="M289.5,2071.1h-1.3v-1.5h2.9v10.2h-1.6V2071.1z"/>
		<path class="st1" d="M293.5,2078h1.7l-1.7,3.9h-1L293.5,2078z"/>
		<path class="st1" d="M296.3,2078.6c2.4-2.1,4.9-4,4.9-6c0-1.1-0.5-1.8-1.7-1.8c-1.1,0-1.7,0.8-1.8,1.9h-1.5
			c0.1-2.2,1.5-3.3,3.3-3.3c2.1,0,3.2,1.2,3.2,3.1c0,2.5-2.5,4.4-4.2,5.9h4.4v1.3h-6.8V2078.6z"/>
		<path class="st1" d="M306.5,2077.1c0.2,0.9,0.8,1.4,1.8,1.4c1.3,0,1.9-0.9,1.9-3.5c-0.5,0.6-1.3,1-2.3,1c-1.8,0-3.2-1.1-3.2-3.3
			c0-2,1.2-3.4,3.4-3.4c2.6,0,3.5,1.8,3.5,5.2c0,3.4-0.7,5.3-3.4,5.3c-2.1,0-3.1-1.3-3.2-2.8H306.5z M310.1,2072.8
			c0-1.3-0.7-2-1.9-2c-1.2,0-1.9,0.8-1.9,2c0,1.1,0.6,2,2,2C309.4,2074.7,310.1,2074,310.1,2072.8z"/>
		<path class="st1" d="M319.9,2069.7v1.2l-3.9,9h-1.6l3.9-8.8h-5.2v-1.4H319.9z"/>
	</g>
	<g class="st0">
		<path class="st1" d="M289.1,2260.9v1.2l-3.9,9h-1.6l3.9-8.8h-5.2v-1.4H289.1z"/>
		<path class="st1" d="M290.7,2263.4c0-1.5,1.1-2.8,3.4-2.8s3.4,1.3,3.4,2.8c0,1.1-0.6,1.9-1.5,2.3c1,0.4,1.7,1.3,1.7,2.5
			c0,1.9-1.5,3.1-3.6,3.1c-2.1,0-3.6-1.2-3.6-3.1c0-1.2,0.7-2.1,1.7-2.5C291.3,2265.3,290.7,2264.5,290.7,2263.4z M292,2268.2
			c0,1,0.8,1.8,2.1,1.8c1.3,0,2.1-0.8,2.1-1.8c0-1.1-0.9-1.8-2.1-1.8C292.9,2266.4,292,2267,292,2268.2z M295.9,2263.6
			c0-1-0.7-1.6-1.8-1.6c-1.1,0-1.8,0.6-1.8,1.6c0,0.9,0.8,1.6,1.8,1.6S295.9,2264.5,295.9,2263.6z"/>
		<path class="st1" d="M299.6,2269.1h1.7l-1.7,3.9h-1L299.6,2269.1z"/>
		<path class="st1" d="M305.9,2260.6c2,0,3.1,1.2,3.1,2.7c0,1.2-0.8,2-1.6,2.3v0.1c1.1,0.3,1.8,1.2,1.8,2.6c0,1.6-1.1,2.9-3.3,2.9
			c-1.9,0-3.4-1-3.5-3h1.5c0.1,1,0.8,1.7,2,1.7c1.2,0,1.8-0.7,1.8-1.7c0-1.3-0.9-1.8-2.5-1.8h-0.4v-1.3h0.4c1.4,0,2.3-0.4,2.3-1.5
			c0-0.9-0.6-1.5-1.7-1.5c-1.1,0-1.6,0.7-1.7,1.4h-1.6C302.6,2261.6,304,2260.6,305.9,2260.6z"/>
		<path class="st1" d="M317.4,2260.9v1.2l-3.9,9h-1.6l3.9-8.8h-5.2v-1.4H317.4z"/>
		<path class="st1" d="M322,2260.6c2,0,3.1,1.2,3.1,2.7c0,1.2-0.8,2-1.6,2.3v0.1c1.1,0.3,1.8,1.2,1.8,2.6c0,1.6-1.1,2.9-3.3,2.9
			c-1.9,0-3.4-1-3.5-3h1.5c0.1,1,0.8,1.7,2,1.7c1.2,0,1.8-0.7,1.8-1.7c0-1.3-0.9-1.8-2.5-1.8h-0.4v-1.3h0.4c1.4,0,2.3-0.4,2.3-1.5
			c0-0.9-0.6-1.5-1.7-1.5c-1.1,0-1.6,0.7-1.7,1.4h-1.6C318.8,2261.6,320.2,2260.6,322,2260.6z"/>
	</g>
	<path id="패스_2333" class="st8" d="M20,1953.5h335"/>
	<path id="패스_3521" class="st9" d="M20,2128.9h335"/>
	<path id="패스_3533" class="st9" d="M20,2304.6h335"/>
</g>
</svg>
