<?xml version="1.0" encoding="utf-8"?>
<!-- Generator: Adobe Illustrator 25.3.1, SVG Export Plug-In . SVG Version: 6.00 Build 0)  -->
<svg version="1.1" id="레이어_1" xmlns="http://www.w3.org/2000/svg" xmlns:xlink="http://www.w3.org/1999/xlink" x="0px"
	 y="0px" viewBox="0 0 335 367.8" style="enable-background:new 0 0 335 367.8;" xml:space="preserve">
<style type="text/css">
	.st0{enable-background:new    ;}
	.st1{fill:#3AA25C;}
	.st2{fill:#929397;}
	.st3{fill:#E2E2E2;}
	.st4{fill:#808080;}
	.st5{fill:#A3A3A3;}
	.st6{fill:#FFFFFF;}
	.st7{fill:none;stroke:#D5D5D5;}
	.st8{fill:none;}
</style>
<g id="그룹_5868" transform="translate(-19.75 -3560.938)">
	<g id="그룹_5794" transform="translate(0 -23)">
		<g class="st0">
			<path class="st1" d="M25.5,3596.6c0.4,0,0.7-0.1,1-0.1l0.1,1.3c-2,0.4-4.5,0.4-6.2,0.4l-0.2-1.5h1v-5.6h-0.8v-1.5h5.9v1.5h-0.8
				V3596.6z M22.9,3596.7c0.3,0,0.6,0,1,0v-5.5h-1V3596.7z M27.2,3588.5H29v12h-1.7v-4.7H26v-1.5h1.2v-1.1H26v-1.5h1.2V3588.5z
				 M31.5,3588.2v12.9h-1.8v-12.9H31.5z"/>
			<path class="st1" d="M40.1,3589.6c0,4-1.3,7.2-5.9,9.4l-1-1.5c3.3-1.6,4.7-3.6,5-6.5h-4.3v-1.5H40.1z M44,3588.2v12.9h-1.9v-12.9
				H44z"/>
			<path class="st1" d="M52.8,3594.8v0.8h3.5v3.3h-7.1v0.7h7.4v1.4h-9.2v-3.4h7.1v-0.7h-7.1v-1.4H51v-0.8h-4.9v-1.5h11.7v1.5H52.8z
				 M56.3,3592.7h-8.7v-4h8.7V3592.7z M54.5,3590h-5.1v1.2h5.1V3590z"/>
			<path class="st1" d="M65.9,3589.4h1.7v8.7h-5.1v-8.7h1.7v2.9h1.7V3589.4z M65.9,3593.7h-1.7v2.9h1.7V3593.7z M73.2,3588.2v12.9
				h-1.8v-6.5h-1.1v5.9h-1.7v-12.1h1.7v4.7h1.1v-4.9H73.2z"/>
			<path class="st1" d="M81.8,3595.1v0.8h3.5v3.2h-7.1v0.7h7.4v1.3h-9.2v-3.2h7.1v-0.6h-7.1v-1.3H80v-0.8h-4.9v-1.4h11.6v1.4H81.8z
				 M75.5,3592c2.6-0.1,3.9-0.7,4.2-1.5h-3.6v-1.3h3.8v-1h1.8v1h3.8v1.3H82c0.4,0.7,1.6,1.3,4.2,1.5l-0.5,1.4
				c-2.4-0.1-4-0.7-4.8-1.7c-0.8,1-2.4,1.5-4.8,1.7L75.5,3592z"/>
			<path class="st1" d="M92.4,3591.5v-1h-4.1v-1.5h5.9v3.9h-4v1.1c2.1,0,3.5-0.1,5.1-0.4l0.2,1.5c-1.8,0.3-3.4,0.4-6,0.4h-1.1v-4
				H92.4z M98.2,3598.7c0,1.5-1.7,2.5-4.4,2.5s-4.4-0.9-4.4-2.5c0-1.6,1.7-2.5,4.4-2.5S98.2,3597.2,98.2,3598.7z M96.4,3598.7
				c0-0.7-0.9-1-2.5-1c-1.7,0-2.5,0.3-2.5,1c0,0.7,0.9,1,2.5,1C95.5,3599.7,96.4,3599.4,96.4,3598.7z M98.1,3591.5v1.2h1.7v1.5h-1.7
				v1.8h-1.8v-7.8h1.8v1.7h1.7v1.5H98.1z"/>
		</g>
		<g class="st0">
			<path class="st2" d="M25.6,3617.3c-1.2,0.2-2.3,0.3-4.2,0.3h-0.7v-4.1h4v0.7h-3.1v2.8c1.8,0,2.8-0.1,4-0.3L25.6,3617.3z
				 M22.5,3620.8h5.2v0.7h-6v-2.9h0.8V3620.8z M28.6,3615.3v0.7h-1.3v3.1h-0.8v-6.5h0.8v2.7H28.6z"/>
			<path class="st2" d="M35.4,3617.8c-0.8,0.2-1.7,0.2-2.6,0.3v3.2H32v-3.2c-0.9,0-1.7,0-2.5,0l-0.1-0.7c1.7,0,3.9,0,5.9-0.3
				L35.4,3617.8z M30.1,3614.9c0-1.1,0.9-1.8,2.3-1.8c1.3,0,2.3,0.8,2.3,1.8c0,1.1-0.9,1.8-2.3,1.8
				C31.1,3616.8,30.1,3616,30.1,3614.9z M30.9,3614.9c0,0.7,0.6,1.2,1.5,1.2c0.9,0,1.5-0.5,1.5-1.2c0-0.7-0.6-1.2-1.5-1.2
				C31.5,3613.8,30.9,3614.2,30.9,3614.9z M36.8,3612.7v9H36v-9H36.8z"/>
			<path class="st2" d="M41.1,3616.3c0-0.4,0.3-0.7,0.7-0.7s0.7,0.3,0.7,0.7c0,0.4-0.3,0.7-0.7,0.7S41.1,3616.7,41.1,3616.3z
				 M41.1,3620.3c0-0.4,0.3-0.7,0.7-0.7s0.7,0.3,0.7,0.7c0,0.4-0.3,0.7-0.7,0.7S41.1,3620.7,41.1,3620.3z"/>
			<path class="st2" d="M54,3617.7v0.7h-8.1v-0.7h3.6v-0.9H47v-3.8h6v0.6h-5.2v0.9h5v0.6h-5v1h5.3v0.6h-2.7v0.9H54z M47.8,3620.8
				h5.4v0.7H47v-2.4h0.8V3620.8z"/>
		</g>
		<path id="패스_4980" class="st3" d="M135,3751.7h52V3652h-52V3751.7z"/>
		<g class="st0">
			<path class="st4" d="M151,3742.1c0.6-0.6,1.1-1,1.5-1.4s0.7-0.7,0.9-1.1c0.2-0.4,0.4-0.8,0.4-1.2c0-0.4-0.1-0.7-0.3-0.9
				c-0.2-0.2-0.5-0.3-0.9-0.3c-0.4,0-0.7,0.1-0.9,0.4s-0.3,0.6-0.3,1h-1.1c0-0.8,0.2-1.3,0.7-1.7c0.4-0.4,1-0.6,1.7-0.6
				c0.7,0,1.3,0.2,1.7,0.6c0.4,0.4,0.6,0.9,0.6,1.6c0,0.5-0.1,0.9-0.4,1.4c-0.2,0.4-0.5,0.8-0.9,1.2c-0.3,0.3-0.8,0.8-1.3,1.2
				l-0.5,0.4h3.2v1h-4.9v-0.8L151,3742.1z"/>
			<path class="st4" d="M156.7,3737.3c0.4-0.6,1.1-1,2-1c1,0,1.6,0.3,2,1c0.4,0.7,0.6,1.6,0.6,2.7c0,1.2-0.2,2.1-0.6,2.7s-1.1,1-2,1
				c-1,0-1.6-0.3-2-1c-0.4-0.7-0.6-1.6-0.6-2.7C156.1,3738.8,156.3,3737.9,156.7,3737.3z M160.1,3738.6c-0.1-0.4-0.2-0.7-0.4-0.9
				c-0.2-0.2-0.5-0.4-0.9-0.4c-0.4,0-0.7,0.1-1,0.4c-0.2,0.2-0.4,0.5-0.4,0.9c-0.1,0.4-0.1,0.8-0.1,1.4c0,0.6,0,1,0.1,1.4
				c0.1,0.4,0.2,0.7,0.4,0.9c0.2,0.2,0.5,0.4,1,0.4c0.4,0,0.7-0.1,1-0.4c0.2-0.2,0.4-0.5,0.4-0.9c0.1-0.4,0.1-0.8,0.1-1.4
				C160.2,3739.4,160.1,3739,160.1,3738.6z"/>
			<path class="st4" d="M162.3,3737.4v-1h2.1v7.3h-1.2v-6.2H162.3z"/>
			<path class="st4" d="M166.2,3738.2c0-0.4,0.1-0.7,0.3-1c0.2-0.3,0.4-0.5,0.8-0.7s0.8-0.3,1.3-0.3c0.5,0,1,0.1,1.3,0.3
				s0.6,0.4,0.8,0.7c0.2,0.3,0.3,0.6,0.3,1c0,0.4-0.1,0.7-0.3,1c-0.2,0.3-0.4,0.5-0.8,0.7c0.4,0.1,0.7,0.4,0.9,0.7s0.3,0.7,0.3,1.1
				c0,0.4-0.1,0.8-0.3,1.1c-0.2,0.3-0.5,0.6-0.9,0.8s-0.8,0.3-1.3,0.3s-0.9-0.1-1.3-0.3c-0.4-0.2-0.7-0.4-0.9-0.8
				c-0.2-0.3-0.3-0.7-0.3-1.1s0.1-0.8,0.3-1.1s0.5-0.5,0.9-0.7C166.5,3739.5,166.2,3739,166.2,3738.2z M167.5,3740.7
				c-0.3,0.2-0.4,0.5-0.4,0.9c0,0.4,0.1,0.7,0.4,0.9s0.6,0.4,1.1,0.4c0.5,0,0.8-0.1,1.1-0.4c0.3-0.2,0.4-0.5,0.4-0.9
				c0-0.4-0.1-0.7-0.4-0.9c-0.3-0.2-0.6-0.3-1.1-0.3C168.1,3740.4,167.8,3740.5,167.5,3740.7z M169.5,3737.5c-0.2-0.2-0.6-0.3-1-0.3
				c-0.4,0-0.7,0.1-1,0.3s-0.3,0.5-0.3,0.9c0,0.3,0.1,0.6,0.4,0.8s0.6,0.3,0.9,0.3s0.7-0.1,0.9-0.3c0.2-0.2,0.4-0.5,0.4-0.8
				C169.9,3738,169.8,3737.7,169.5,3737.5z"/>
		</g>
		<g class="st0">
			<path class="st5" d="M139.7,3641.8v-1.2l4.7-6.7h1.9v6.6h1.3v1.4h-1.3v2.1h-1.6v-2.1H139.7z M144.8,3635.4l-3.3,4.9h3.3V3635.4z"
				/>
			<path class="st5" d="M149.8,3634.9c0.5-0.9,1.5-1.4,2.8-1.4c1.3,0,2.3,0.5,2.8,1.4c0.5,0.9,0.8,2.2,0.8,3.8
				c0,1.6-0.3,2.9-0.8,3.8c-0.5,0.9-1.5,1.4-2.8,1.4c-1.3,0-2.3-0.5-2.8-1.4c-0.5-0.9-0.8-2.2-0.8-3.8
				C148.9,3637,149.2,3635.8,149.8,3634.9z M154.5,3636.7c-0.1-0.5-0.3-0.9-0.6-1.3c-0.3-0.3-0.7-0.5-1.3-0.5s-1,0.2-1.3,0.5
				c-0.3,0.3-0.5,0.8-0.6,1.3c-0.1,0.5-0.1,1.2-0.1,1.9c0,0.8,0,1.4,0.1,2c0.1,0.5,0.3,1,0.6,1.3c0.3,0.3,0.7,0.5,1.3,0.5
				s1-0.2,1.3-0.5c0.3-0.3,0.5-0.8,0.6-1.3c0.1-0.5,0.1-1.2,0.1-2C154.7,3637.9,154.6,3637.3,154.5,3636.7z"/>
			<path class="st5" d="M159.9,3642l-1.7,3.9h-1l1-3.9H159.9z"/>
			<path class="st5" d="M160.9,3635.1v-1.5h2.9v10.2h-1.6v-8.8H160.9z"/>
			<path class="st5" d="M172.5,3635.1h-4.7v2.8c0.2-0.3,0.5-0.5,0.9-0.7c0.4-0.2,0.8-0.3,1.2-0.3c0.8,0,1.4,0.2,1.9,0.5
				c0.5,0.3,0.8,0.8,1.1,1.3c0.2,0.5,0.3,1.1,0.3,1.6c0,0.7-0.1,1.3-0.4,1.8c-0.3,0.5-0.7,1-1.2,1.3s-1.2,0.5-1.9,0.5
				c-1,0-1.8-0.3-2.4-0.8c-0.6-0.5-1-1.2-1.1-2h1.6c0.1,0.4,0.3,0.8,0.7,1s0.8,0.4,1.3,0.4c0.7,0,1.2-0.2,1.5-0.6
				c0.3-0.4,0.5-0.9,0.5-1.6c0-0.7-0.2-1.2-0.5-1.5s-0.8-0.5-1.5-0.5c-0.5,0-0.8,0.1-1.2,0.3c-0.3,0.2-0.5,0.5-0.7,0.9h-1.5v-5.9
				h6.2V3635.1z"/>
			<path class="st5" d="M177.5,3642.2c0.3,0.2,0.7,0.4,1.2,0.4c0.7,0,1.1-0.3,1.5-0.8c0.3-0.5,0.5-1.4,0.5-2.7
				c-0.2,0.3-0.5,0.6-0.9,0.7c-0.4,0.2-0.8,0.3-1.3,0.3c-0.6,0-1.2-0.1-1.7-0.4s-0.9-0.6-1.2-1.1s-0.4-1.1-0.4-1.8
				c0-1,0.3-1.8,0.9-2.5s1.4-0.9,2.5-0.9c1.3,0,2.2,0.4,2.7,1.3s0.8,2.1,0.8,3.9c0,1.2-0.1,2.2-0.3,3c-0.2,0.8-0.5,1.3-1,1.7
				c-0.5,0.4-1.2,0.6-2.1,0.6c-1,0-1.8-0.3-2.3-0.8c-0.5-0.5-0.8-1.2-0.9-2h1.5C177,3641.6,177.2,3641.9,177.5,3642.2z M180,3638.2
				c0.3-0.4,0.5-0.8,0.5-1.4c0-0.6-0.2-1.1-0.5-1.5s-0.8-0.5-1.4-0.5c-0.6,0-1.1,0.2-1.4,0.6c-0.3,0.4-0.5,0.9-0.5,1.4
				c0,0.6,0.2,1,0.5,1.4c0.3,0.4,0.8,0.6,1.5,0.6C179.2,3638.7,179.7,3638.6,180,3638.2z"/>
		</g>
		<path id="패스_4982" class="st3" d="M206,3751.7h52v-110.6h-52V3751.7z"/>
		<g class="st0">
			<path class="st4" d="M222,3742.1c0.6-0.6,1.1-1,1.5-1.4s0.7-0.7,0.9-1.1c0.2-0.4,0.4-0.8,0.4-1.2c0-0.4-0.1-0.7-0.3-0.9
				c-0.2-0.2-0.5-0.3-0.9-0.3c-0.4,0-0.7,0.1-0.9,0.4c-0.2,0.2-0.3,0.6-0.3,1h-1.1c0-0.8,0.2-1.3,0.7-1.7s1-0.6,1.7-0.6
				c0.7,0,1.3,0.2,1.7,0.6c0.4,0.4,0.6,0.9,0.6,1.6c0,0.5-0.1,0.9-0.4,1.4c-0.2,0.4-0.5,0.8-0.9,1.2s-0.8,0.8-1.3,1.2l-0.4,0.4h3.2
				v1h-4.9v-0.8L222,3742.1z"/>
			<path class="st4" d="M227.7,3737.3c0.4-0.6,1.1-1,2-1s1.6,0.3,2,1c0.4,0.7,0.6,1.6,0.6,2.7c0,1.2-0.2,2.1-0.6,2.7
				c-0.4,0.7-1.1,1-2,1s-1.6-0.3-2-1c-0.4-0.7-0.6-1.6-0.6-2.7C227.1,3738.8,227.3,3737.9,227.7,3737.3z M231.1,3738.6
				c-0.1-0.4-0.2-0.7-0.4-0.9c-0.2-0.2-0.5-0.4-1-0.4s-0.7,0.1-1,0.4c-0.2,0.2-0.4,0.5-0.4,0.9c-0.1,0.4-0.1,0.8-0.1,1.4
				c0,0.6,0,1,0.1,1.4s0.2,0.7,0.4,0.9s0.5,0.4,1,0.4s0.7-0.1,1-0.4s0.4-0.5,0.4-0.9s0.1-0.8,0.1-1.4
				C231.2,3739.4,231.2,3739,231.1,3738.6z"/>
			<path class="st4" d="M233.4,3737.4v-1h2.1v7.3h-1.1v-6.2H233.4z"/>
			<path class="st4" d="M238.9,3742.5c0.2,0.2,0.5,0.3,0.9,0.3c0.5,0,0.8-0.2,1-0.6c0.2-0.4,0.3-1,0.3-1.9c-0.2,0.2-0.4,0.4-0.7,0.5
				c-0.3,0.1-0.6,0.2-0.9,0.2c-0.4,0-0.8-0.1-1.2-0.3c-0.4-0.2-0.6-0.4-0.8-0.8c-0.2-0.3-0.3-0.8-0.3-1.3c0-0.7,0.2-1.3,0.6-1.8
				c0.4-0.4,1-0.7,1.8-0.7c0.9,0,1.6,0.3,1.9,0.9c0.4,0.6,0.6,1.5,0.6,2.8c0,0.9-0.1,1.6-0.2,2.1c-0.1,0.5-0.4,1-0.7,1.2
				c-0.4,0.3-0.8,0.4-1.5,0.4c-0.7,0-1.3-0.2-1.6-0.6c-0.4-0.4-0.6-0.8-0.7-1.4h1C238.5,3742.1,238.6,3742.3,238.9,3742.5z
				 M240.6,3739.6c0.2-0.2,0.3-0.6,0.3-1c0-0.5-0.1-0.8-0.4-1.1s-0.6-0.4-1-0.4s-0.8,0.1-1,0.4c-0.2,0.3-0.4,0.6-0.4,1
				c0,0.4,0.1,0.7,0.4,1c0.2,0.3,0.6,0.4,1.1,0.4C240.1,3740,240.4,3739.9,240.6,3739.6z"/>
		</g>
		<g class="st0">
			<path class="st5" d="M209.1,3630.8v-1.2l4.7-6.7h1.9v6.6h1.3v1.4h-1.3v2.1h-1.6v-2.1H209.1z M214.2,3624.4l-3.3,4.9h3.3V3624.4z"
				/>
			<path class="st5" d="M219.2,3630.7c0.9-0.8,1.6-1.4,2.1-1.9s0.9-1,1.3-1.6c0.3-0.5,0.5-1.1,0.5-1.6c0-0.6-0.1-1-0.4-1.3
				s-0.7-0.5-1.3-0.5c-0.6,0-1,0.2-1.3,0.5c-0.3,0.4-0.5,0.8-0.5,1.4h-1.5c0-1.1,0.3-1.9,1-2.4c0.6-0.6,1.4-0.8,2.3-0.8
				c1,0,1.8,0.3,2.4,0.8c0.6,0.6,0.9,1.3,0.9,2.2c0,0.7-0.2,1.3-0.5,1.9c-0.3,0.6-0.7,1.2-1.2,1.7c-0.5,0.5-1.1,1.1-1.8,1.7
				l-0.6,0.6h4.4v1.3h-6.8v-1.2L219.2,3630.7z"/>
			<path class="st5" d="M228.4,3631l-1.7,3.9h-1l1-3.9H228.4z"/>
			<path class="st5" d="M230.4,3623.9c0.5-0.9,1.5-1.4,2.8-1.4c1.3,0,2.3,0.5,2.8,1.4c0.5,0.9,0.8,2.2,0.8,3.8
				c0,1.6-0.3,2.9-0.8,3.8c-0.5,0.9-1.5,1.4-2.8,1.4c-1.3,0-2.3-0.5-2.8-1.4c-0.5-0.9-0.8-2.2-0.8-3.8
				C229.6,3626,229.9,3624.8,230.4,3623.9z M235.1,3625.7c-0.1-0.5-0.3-0.9-0.6-1.3c-0.3-0.3-0.7-0.5-1.3-0.5s-1,0.2-1.3,0.5
				c-0.3,0.3-0.5,0.8-0.6,1.3c-0.1,0.5-0.1,1.2-0.1,1.9c0,0.8,0,1.4,0.1,2c0.1,0.5,0.3,1,0.6,1.3c0.3,0.3,0.7,0.5,1.3,0.5
				s1-0.2,1.3-0.5c0.3-0.3,0.5-0.8,0.6-1.3c0.1-0.5,0.1-1.2,0.1-2C235.3,3626.9,235.2,3626.3,235.1,3625.7z"/>
			<path class="st5" d="M241.1,3631.2c0.3,0.2,0.7,0.4,1.2,0.4c0.7,0,1.1-0.3,1.5-0.8s0.5-1.4,0.5-2.7c-0.2,0.3-0.5,0.6-0.9,0.7
				c-0.4,0.2-0.8,0.3-1.3,0.3c-0.6,0-1.2-0.1-1.7-0.4s-0.9-0.6-1.2-1.1s-0.4-1.1-0.4-1.8c0-1,0.3-1.8,0.9-2.5
				c0.6-0.6,1.4-0.9,2.5-0.9c1.3,0,2.2,0.4,2.7,1.3s0.8,2.1,0.8,3.9c0,1.2-0.1,2.2-0.3,3c-0.2,0.8-0.5,1.3-1,1.7
				c-0.5,0.4-1.2,0.6-2.1,0.6c-1,0-1.8-0.3-2.3-0.8s-0.8-1.2-0.9-2h1.5C240.6,3630.6,240.8,3630.9,241.1,3631.2z M243.6,3627.2
				c0.3-0.4,0.5-0.8,0.5-1.4c0-0.6-0.2-1.1-0.5-1.5c-0.3-0.4-0.8-0.5-1.4-0.5s-1.1,0.2-1.4,0.6c-0.3,0.4-0.5,0.9-0.5,1.4
				c0,0.6,0.2,1,0.5,1.4c0.3,0.4,0.8,0.6,1.5,0.6C242.9,3627.7,243.3,3627.6,243.6,3627.2z"/>
			<path class="st5" d="M247.7,3625.3c0-0.5,0.1-1,0.4-1.4s0.6-0.8,1.1-1c0.5-0.2,1.1-0.4,1.8-0.4c0.7,0,1.3,0.1,1.8,0.4
				c0.5,0.2,0.9,0.6,1.1,1s0.4,0.9,0.4,1.4c0,0.5-0.1,1-0.4,1.4s-0.6,0.7-1.1,0.9c0.5,0.2,1,0.5,1.3,1s0.5,1,0.5,1.6
				c0,0.6-0.2,1.1-0.5,1.6s-0.7,0.8-1.3,1.1s-1.2,0.4-1.9,0.4c-0.7,0-1.3-0.1-1.9-0.4c-0.5-0.3-1-0.6-1.3-1.1
				c-0.3-0.5-0.5-1-0.5-1.6c0-0.6,0.2-1.1,0.5-1.6c0.3-0.4,0.7-0.8,1.2-1C248.2,3627.1,247.7,3626.3,247.7,3625.3z M249.6,3628.7
				c-0.4,0.3-0.6,0.7-0.6,1.3c0,0.5,0.2,1,0.6,1.3c0.4,0.3,0.9,0.5,1.5,0.5c0.6,0,1.1-0.2,1.5-0.5c0.4-0.3,0.6-0.8,0.6-1.3
				c0-0.6-0.2-1-0.6-1.3c-0.4-0.3-0.9-0.5-1.5-0.5C250.5,3628.3,250,3628.4,249.6,3628.7z M252.4,3624.3c-0.3-0.3-0.8-0.4-1.3-0.4
				c-0.6,0-1,0.1-1.3,0.4c-0.3,0.3-0.5,0.7-0.5,1.2c0,0.5,0.2,0.8,0.5,1.1c0.3,0.3,0.8,0.4,1.3,0.4c0.5,0,1-0.1,1.3-0.4
				c0.3-0.3,0.5-0.7,0.5-1.1C252.9,3624.9,252.7,3624.5,252.4,3624.3z"/>
		</g>
		<path id="패스_4984" class="st1" d="M277,3751.7h52v-72.8h-52V3751.7z"/>
		<g class="st0">
			<path class="st6" d="M291.5,3742.1c0.6-0.5,1.1-1,1.5-1.3s0.7-0.7,1-1.1s0.4-0.8,0.4-1.1c0-0.3-0.1-0.6-0.2-0.8
				c-0.2-0.2-0.4-0.3-0.7-0.3c-0.3,0-0.6,0.1-0.8,0.3s-0.3,0.5-0.3,0.9H291c0-0.8,0.3-1.4,0.7-1.8s1-0.6,1.7-0.6
				c0.8,0,1.3,0.2,1.8,0.6s0.6,0.9,0.6,1.6c0,0.5-0.1,1-0.4,1.5c-0.3,0.5-0.6,0.9-1,1.2c-0.4,0.4-0.8,0.8-1.4,1.3h3v1.2H291v-1
				L291.5,3742.1z"/>
			<path class="st6" d="M297.4,3737.2c0.4-0.7,1.1-1,2.1-1s1.7,0.3,2.1,1s0.6,1.6,0.6,2.7c0,1.2-0.2,2.1-0.6,2.7s-1.1,1-2.1,1
				s-1.7-0.3-2.1-1c-0.4-0.7-0.6-1.6-0.6-2.7C296.8,3738.8,297,3737.9,297.4,3737.2z M300.7,3738.7c-0.1-0.3-0.2-0.6-0.4-0.8
				c-0.2-0.2-0.5-0.3-0.8-0.3c-0.4,0-0.7,0.1-0.8,0.3c-0.2,0.2-0.3,0.5-0.4,0.8c-0.1,0.3-0.1,0.8-0.1,1.2c0,0.5,0,0.9,0.1,1.3
				c0.1,0.3,0.2,0.6,0.4,0.8s0.5,0.3,0.8,0.3c0.4,0,0.7-0.1,0.9-0.3s0.3-0.5,0.4-0.8c0.1-0.3,0.1-0.8,0.1-1.3
				C300.8,3739.5,300.8,3739.1,300.7,3738.7z"/>
			<path class="st6" d="M303.7,3742.1c0.6-0.5,1.2-1,1.5-1.3s0.7-0.7,1-1.1c0.3-0.4,0.4-0.8,0.4-1.1c0-0.3-0.1-0.6-0.2-0.8
				s-0.4-0.3-0.7-0.3s-0.6,0.1-0.8,0.3c-0.2,0.2-0.3,0.5-0.3,0.9h-1.4c0-0.8,0.3-1.4,0.7-1.8c0.5-0.4,1-0.6,1.7-0.6
				c0.8,0,1.3,0.2,1.8,0.6c0.4,0.4,0.6,0.9,0.6,1.6c0,0.5-0.1,1-0.4,1.5s-0.6,0.9-1,1.2c-0.4,0.4-0.8,0.8-1.4,1.3h3v1.2h-4.9v-1
				L303.7,3742.1z"/>
			<path class="st6" d="M309.6,3737.2c0.4-0.7,1.1-1,2.1-1s1.7,0.3,2.1,1s0.6,1.6,0.6,2.7c0,1.2-0.2,2.1-0.6,2.7s-1.1,1-2.1,1
				s-1.7-0.3-2.1-1c-0.4-0.7-0.6-1.6-0.6-2.7C309,3738.8,309.2,3737.9,309.6,3737.2z M312.9,3738.7c-0.1-0.3-0.2-0.6-0.4-0.8
				c-0.2-0.2-0.5-0.3-0.8-0.3c-0.4,0-0.7,0.1-0.8,0.3c-0.2,0.2-0.3,0.5-0.4,0.8c-0.1,0.3-0.1,0.8-0.1,1.2c0,0.5,0,0.9,0.1,1.3
				c0.1,0.3,0.2,0.6,0.4,0.8s0.5,0.3,0.8,0.3c0.4,0,0.7-0.1,0.9-0.3s0.3-0.5,0.4-0.8c0.1-0.3,0.1-0.8,0.1-1.3
				C313,3739.5,313,3739.1,312.9,3738.7z"/>
		</g>
		<g class="st0">
			<path class="st1" d="M281.6,3668.8c0.9-0.8,1.6-1.4,2.1-1.9s0.9-1,1.3-1.6c0.3-0.5,0.5-1.1,0.5-1.6c0-0.6-0.1-1-0.4-1.3
				s-0.7-0.5-1.3-0.5c-0.6,0-1,0.2-1.3,0.5c-0.3,0.4-0.5,0.8-0.5,1.4h-1.5c0-1.1,0.3-1.9,1-2.4c0.6-0.6,1.4-0.8,2.3-0.8
				c1,0,1.8,0.3,2.4,0.8c0.6,0.6,0.9,1.3,0.9,2.2c0,0.7-0.2,1.3-0.5,1.9c-0.3,0.6-0.7,1.2-1.2,1.7c-0.5,0.5-1.1,1.1-1.8,1.7
				l-0.6,0.6h4.4v1.3h-6.8v-1.2L281.6,3668.8z"/>
			<path class="st1" d="M293.7,3662.1c-0.3-0.2-0.6-0.3-1.1-0.3c-0.7,0-1.3,0.3-1.7,0.8c-0.4,0.6-0.6,1.5-0.6,2.8
				c0.2-0.4,0.6-0.7,1.1-1c0.5-0.2,1-0.3,1.5-0.3c0.6,0,1.2,0.1,1.6,0.4c0.5,0.3,0.8,0.7,1.1,1.2c0.3,0.5,0.4,1.1,0.4,1.8
				c0,0.7-0.1,1.2-0.4,1.8c-0.3,0.5-0.6,0.9-1.1,1.2c-0.5,0.3-1.1,0.4-1.8,0.4c-1,0-1.7-0.2-2.3-0.6c-0.5-0.4-0.9-1-1.1-1.8
				c-0.2-0.8-0.3-1.7-0.3-2.9c0-3.4,1.2-5.1,3.6-5.1c0.9,0,1.7,0.3,2.2,0.8c0.5,0.5,0.9,1.1,0.9,1.9h-1.5
				C294.1,3662.7,294,3662.3,293.7,3662.1z M291.1,3666c-0.4,0.3-0.6,0.8-0.6,1.5c0,0.6,0.2,1.2,0.6,1.5c0.4,0.4,0.9,0.6,1.5,0.6
				c0.6,0,1.1-0.2,1.4-0.5s0.5-0.8,0.5-1.5c0-0.6-0.2-1.1-0.5-1.5c-0.3-0.4-0.8-0.6-1.5-0.6C292,3665.5,291.5,3665.7,291.1,3666z"/>
			<path class="st1" d="M299.7,3669l-1.7,3.9h-1l1-3.9H299.7z"/>
			<path class="st1" d="M301.7,3661.9c0.5-0.9,1.5-1.4,2.8-1.4c1.3,0,2.3,0.5,2.8,1.4c0.5,0.9,0.8,2.2,0.8,3.8
				c0,1.6-0.3,2.9-0.8,3.8c-0.5,0.9-1.5,1.4-2.8,1.4c-1.3,0-2.3-0.5-2.8-1.4c-0.5-0.9-0.8-2.2-0.8-3.8
				C300.9,3664.1,301.2,3662.8,301.7,3661.9z M306.5,3663.8c-0.1-0.5-0.3-0.9-0.6-1.3c-0.3-0.3-0.7-0.5-1.3-0.5s-1,0.2-1.3,0.5
				c-0.3,0.3-0.5,0.8-0.6,1.3c-0.1,0.5-0.1,1.2-0.1,1.9c0,0.8,0,1.4,0.1,2c0.1,0.5,0.3,1,0.6,1.3c0.3,0.3,0.8,0.5,1.3,0.5
				s1-0.2,1.3-0.5c0.3-0.3,0.5-0.8,0.6-1.3c0.1-0.5,0.1-1.2,0.1-2C306.6,3664.9,306.6,3664.3,306.5,3663.8z"/>
			<path class="st1" d="M309.7,3668.8v-1.2l4.7-6.7h1.9v6.6h1.3v1.4h-1.3v2.1h-1.6v-2.1H309.7z M314.8,3662.5l-3.3,4.9h3.3V3662.5z"
				/>
			<path class="st1" d="M319.8,3668.8c0.9-0.8,1.6-1.4,2.1-1.9s0.9-1,1.3-1.6c0.3-0.5,0.5-1.1,0.5-1.6c0-0.6-0.1-1-0.4-1.3
				s-0.7-0.5-1.3-0.5c-0.6,0-1,0.2-1.3,0.5c-0.3,0.4-0.5,0.8-0.5,1.4h-1.5c0-1.1,0.3-1.9,1-2.4c0.6-0.6,1.4-0.8,2.3-0.8
				c1,0,1.8,0.3,2.4,0.8c0.6,0.6,0.9,1.3,0.9,2.2c0,0.7-0.2,1.3-0.5,1.9c-0.3,0.6-0.7,1.2-1.2,1.7c-0.5,0.5-1.1,1.1-1.8,1.7
				l-0.6,0.6h4.4v1.3h-6.8v-1.2L319.8,3668.8z"/>
		</g>
		<path id="패스_4987" class="st7" d="M19.8,3751.9h335"/>
	</g>
	<g id="그룹_5795" transform="translate(0 -23)">
		<path id="패스_5007" class="st3" d="M135,3929.9h52v-64h-52V3929.9z"/>
		<path id="패스_5008" class="st3" d="M206,3929.9h52v-45.5h-52V3929.9z"/>
		<path id="패스_5009" class="st1" d="M277,3929.9h52v-58.7h-52V3929.9z"/>
		<g class="st0">
			<path class="st1" d="M25.5,3774.4c0.4,0,0.7-0.1,1-0.1l0.1,1.3c-2,0.4-4.5,0.4-6.2,0.4l-0.2-1.5h1v-5.6h-0.8v-1.5h5.9v1.5h-0.8
				V3774.4z M22.9,3774.5c0.3,0,0.6,0,1,0v-5.5h-1V3774.5z M27.2,3766.3H29v12h-1.7v-4.7H26v-1.5h1.2v-1.1H26v-1.5h1.2V3766.3z
				 M31.5,3766v12.9h-1.8V3766H31.5z"/>
			<path class="st1" d="M40.1,3767.3c0,4-1.3,7.2-5.9,9.4l-1-1.5c3.3-1.6,4.7-3.6,5-6.5h-4.3v-1.5H40.1z M44,3766v12.9h-1.9V3766H44
				z"/>
			<path class="st1" d="M52.8,3772.6v0.8h3.5v3.3h-7.1v0.7h7.4v1.4h-9.2v-3.4h7.1v-0.7h-7.1v-1.4H51v-0.8h-4.9v-1.5h11.7v1.5H52.8z
				 M56.3,3770.4h-8.7v-4h8.7V3770.4z M54.5,3767.8h-5.1v1.2h5.1V3767.8z"/>
			<path class="st1" d="M73.3,3766v12.9h-1.8v-6.4h-1.1v5.9h-1.7v-3.7l-1,1.4c-1.1-0.6-1.9-1.7-2.4-2.9c-0.4,1.5-1.2,2.7-2.4,3.4
				l-1.1-1.4c1.9-1.1,2.5-3.4,2.5-5.9v-0.3h-2.1v-1.5h5.8v1.5h-1.9v0.3c0,2.3,0.6,4.4,2.5,5.4v-8.3h1.7v4.7h1.1v-4.9H73.3z"/>
			<path class="st1" d="M83,3773c-2.7,0.5-5.7,0.5-7.9,0.5l-0.2-1.3c0.9,0,2,0,3.1,0v-0.6c-1.4-0.2-2.2-0.8-2.2-1.6
				c0-1.1,1.2-1.7,3.2-1.7s3.1,0.6,3.1,1.7c0,0.9-0.8,1.5-2.2,1.6v0.5c1-0.1,2.1-0.1,3.1-0.3L83,3773z M82.5,3768h-7.3v-1.2H78v-0.9
				h1.8v0.9h2.7V3768z M78.5,3777.6h7.3v1.2h-9.1v-3h6.8v-0.6h-6.8v-1.2h8.7v2.9h-6.8V3777.6z M78.9,3770.5c0.9,0,1.4-0.2,1.4-0.6
				c0-0.4-0.5-0.5-1.4-0.5s-1.4,0.2-1.4,0.5C77.5,3770.3,78,3770.5,78.9,3770.5z M86.9,3769v1.5h-1.6v3h-1.8v-7.6h1.8v3.1H86.9z"/>
			<path class="st1" d="M99.6,3772.1v1.5H87.9v-1.5h2.6v-1.6c-0.9-0.4-1.5-1.1-1.5-1.9c0-1.5,1.8-2.5,4.7-2.5c2.9,0,4.7,0.9,4.7,2.5
				c0,0.8-0.5,1.5-1.5,1.9v1.5H99.6z M98.2,3776.6c0,1.5-1.7,2.4-4.5,2.4s-4.5-0.9-4.5-2.4s1.7-2.3,4.5-2.3S98.2,3775.1,98.2,3776.6
				z M91,3768.7c0,0.7,1,1.1,2.8,1.1c1.8,0,2.8-0.4,2.8-1.1c0-0.7-1-1.1-2.8-1.1C92,3767.6,91,3768,91,3768.7z M96.3,3776.6
				c0-0.7-0.9-0.9-2.6-0.9c-1.7,0-2.6,0.3-2.6,0.9s0.9,1,2.6,1C95.5,3777.5,96.3,3777.2,96.3,3776.6z M92.4,3772.1h2.7v-1.1
				c-0.4,0-0.9,0.1-1.3,0.1c-0.5,0-0.9,0-1.4-0.1V3772.1z"/>
			<path class="st1" d="M106.5,3767v3.1h2.7v-3.1h1.8v8.9h-6.4v-8.9H106.5z M106.5,3774.4h2.7v-2.9h-2.7V3774.4z M114.7,3766v12.9
				h-1.8V3766H114.7z"/>
			<path class="st1" d="M125.7,3772.5v0.9h1.5v3.3H120v0.7h7.4v1.4h-9.2v-3.4h7.1v-0.7h-7.1v-1.4h1.6v-0.9h-2.9v-1.5h11.7v1.5H125.7
				z M118,3768.3c0-1.4,1.7-2.2,4.7-2.2c3,0,4.7,0.8,4.7,2.2c0,1.4-1.7,2.2-4.7,2.2C119.8,3770.5,118,3769.7,118,3768.3z
				 M119.9,3768.3c0,0.6,0.9,0.9,2.7,0.9c1.9,0,2.8-0.3,2.8-0.9c0-0.6-0.9-0.8-2.8-0.8C120.8,3767.5,119.9,3767.7,119.9,3768.3z
				 M123.8,3772.5h-2.2v0.9h2.2V3772.5z"/>
			<path class="st1" d="M130.6,3771.2l0.9-1.6l-1.7-0.7l0.3-1l1.8,0.4l0.2-1.8h1.1l0.2,1.8l1.8-0.4l0.3,1l-1.7,0.7l1,1.6l-0.9,0.6
				l-1.2-1.4l-1.2,1.4L130.6,3771.2z"/>
		</g>
		<g class="st0">
			<path class="st2" d="M25.6,3795.1c-1.2,0.2-2.3,0.3-4.2,0.3h-0.7v-4.1h4v0.7h-3.1v2.8c1.8,0,2.8-0.1,4-0.3L25.6,3795.1z
				 M22.5,3798.6h5.2v0.7h-6v-2.9h0.8V3798.6z M28.6,3793.1v0.7h-1.3v3.1h-0.8v-6.5h0.8v2.7H28.6z"/>
			<path class="st2" d="M35.4,3795.6c-0.8,0.2-1.7,0.2-2.6,0.3v3.2H32v-3.2c-0.9,0-1.7,0-2.5,0l-0.1-0.7c1.7,0,3.9,0,5.9-0.3
				L35.4,3795.6z M30.1,3792.7c0-1.1,0.9-1.8,2.3-1.8c1.3,0,2.3,0.8,2.3,1.8c0,1.1-0.9,1.8-2.3,1.8
				C31.1,3794.6,30.1,3793.8,30.1,3792.7z M30.9,3792.7c0,0.7,0.6,1.2,1.5,1.2c0.9,0,1.5-0.5,1.5-1.2c0-0.7-0.6-1.2-1.5-1.2
				C31.5,3791.6,30.9,3792,30.9,3792.7z M36.8,3790.5v9H36v-9H36.8z"/>
			<path class="st2" d="M41.1,3794.1c0-0.4,0.3-0.7,0.7-0.7s0.7,0.3,0.7,0.7c0,0.4-0.3,0.7-0.7,0.7S41.1,3794.5,41.1,3794.1z
				 M41.1,3798.1c0-0.4,0.3-0.7,0.7-0.7s0.7,0.3,0.7,0.7c0,0.4-0.3,0.7-0.7,0.7S41.1,3798.5,41.1,3798.1z"/>
			<path class="st2" d="M45.8,3793.5c0-1.5,0.7-2.3,1.7-2.3c1,0,1.7,0.8,1.7,2.3c0,1.5-0.7,2.3-1.7,2.3
				C46.5,3795.9,45.8,3795,45.8,3793.5z M48.4,3793.5c0-1.2-0.4-1.7-1-1.7c-0.6,0-1,0.6-1,1.7c0,1.2,0.4,1.8,1,1.8
				C48,3795.3,48.4,3794.7,48.4,3793.5z M51.7,3791.2h0.6l-4,7.6h-0.6L51.7,3791.2z M50.9,3796.5c0-1.5,0.7-2.3,1.7-2.3
				c1,0,1.7,0.8,1.7,2.3c0,1.5-0.7,2.3-1.7,2.3C51.6,3798.8,50.9,3798,50.9,3796.5z M53.5,3796.5c0-1.2-0.4-1.7-1-1.7
				c-0.6,0-1,0.6-1,1.7c0,1.2,0.4,1.8,1,1.8C53.1,3798.3,53.5,3797.7,53.5,3796.5z"/>
		</g>
		<g id="패스_4981" transform="translate(126.298 3870.442)">
			<path class="st8" d="M8.7,59h52V-50.8h-52V59z"/>
			<path class="st3" d="M58.7,57V-48.8h-48V57H58.7 M60.7,59h-52V-50.8h52V59z"/>
		</g>
		<g class="st0">
			<path class="st4" d="M151,3919.9c0.6-0.6,1.1-1,1.5-1.4c0.4-0.4,0.7-0.7,0.9-1.1c0.2-0.4,0.4-0.8,0.4-1.2c0-0.4-0.1-0.7-0.3-0.9
				c-0.2-0.2-0.5-0.3-0.9-0.3c-0.4,0-0.7,0.1-0.9,0.4s-0.3,0.6-0.3,1h-1.1c0-0.8,0.2-1.3,0.7-1.7c0.4-0.4,1-0.6,1.7-0.6
				c0.7,0,1.3,0.2,1.7,0.6c0.4,0.4,0.6,0.9,0.6,1.6c0,0.5-0.1,0.9-0.4,1.4c-0.2,0.4-0.5,0.8-0.9,1.2c-0.3,0.3-0.8,0.8-1.3,1.2
				l-0.5,0.4h3.2v0.9h-4.9v-0.8L151,3919.9z"/>
			<path class="st4" d="M156.7,3915c0.4-0.6,1.1-1,2-1c1,0,1.6,0.3,2,1c0.4,0.7,0.6,1.6,0.6,2.7c0,1.2-0.2,2.1-0.6,2.7s-1.1,1-2,1
				c-1,0-1.6-0.3-2-1c-0.4-0.7-0.6-1.6-0.6-2.7C156.1,3916.6,156.3,3915.7,156.7,3915z M160.1,3916.4c-0.1-0.4-0.2-0.7-0.4-0.9
				c-0.2-0.2-0.5-0.4-0.9-0.4c-0.4,0-0.7,0.1-1,0.4c-0.2,0.2-0.4,0.5-0.4,0.9c-0.1,0.4-0.1,0.8-0.1,1.4c0,0.6,0,1,0.1,1.4
				c0.1,0.4,0.2,0.7,0.4,0.9c0.2,0.2,0.5,0.4,1,0.4c0.4,0,0.7-0.1,1-0.4c0.2-0.2,0.4-0.5,0.4-0.9c0.1-0.4,0.1-0.8,0.1-1.4
				C160.2,3917.2,160.1,3916.7,160.1,3916.4z"/>
			<path class="st4" d="M162.3,3915.2v-1h2.1v7.3h-1.2v-6.2H162.3z"/>
			<path class="st4" d="M166.2,3916c0-0.4,0.1-0.7,0.3-1c0.2-0.3,0.4-0.5,0.8-0.7c0.4-0.2,0.8-0.3,1.3-0.3c0.5,0,1,0.1,1.3,0.3
				c0.4,0.2,0.6,0.4,0.8,0.7s0.3,0.6,0.3,1c0,0.4-0.1,0.7-0.3,1c-0.2,0.3-0.4,0.5-0.8,0.7c0.4,0.1,0.7,0.4,0.9,0.7s0.3,0.7,0.3,1.1
				c0,0.4-0.1,0.8-0.3,1.2s-0.5,0.6-0.9,0.8s-0.8,0.3-1.3,0.3s-0.9-0.1-1.3-0.3c-0.4-0.2-0.7-0.4-0.9-0.8s-0.3-0.7-0.3-1.2
				s0.1-0.8,0.3-1.1c0.2-0.3,0.5-0.5,0.9-0.7C166.5,3917.3,166.2,3916.8,166.2,3916z M167.5,3918.5c-0.3,0.2-0.4,0.5-0.4,0.9
				c0,0.4,0.1,0.7,0.4,0.9s0.6,0.4,1.1,0.4c0.5,0,0.8-0.1,1.1-0.4c0.3-0.2,0.4-0.5,0.4-0.9c0-0.4-0.1-0.7-0.4-0.9
				c-0.3-0.2-0.6-0.3-1.1-0.3C168.1,3918.2,167.8,3918.3,167.5,3918.5z M169.5,3915.3c-0.2-0.2-0.6-0.3-1-0.3c-0.4,0-0.7,0.1-1,0.3
				c-0.2,0.2-0.3,0.5-0.3,0.9c0,0.3,0.1,0.6,0.4,0.8c0.2,0.2,0.6,0.3,0.9,0.3s0.7-0.1,0.9-0.3c0.2-0.2,0.4-0.5,0.4-0.8
				C169.9,3915.8,169.8,3915.5,169.5,3915.3z"/>
		</g>
		<g class="st0">
			<path class="st5" d="M155.4,3802.4h-4.7v2.8c0.2-0.3,0.5-0.5,0.9-0.7c0.4-0.2,0.8-0.3,1.2-0.3c0.8,0,1.4,0.2,1.9,0.5
				s0.8,0.8,1,1.3c0.2,0.5,0.3,1.1,0.3,1.6c0,0.7-0.1,1.3-0.4,1.8c-0.3,0.5-0.7,1-1.2,1.3s-1.2,0.5-1.9,0.5c-1,0-1.8-0.3-2.5-0.8
				s-1-1.2-1.1-2h1.6c0.1,0.4,0.3,0.8,0.7,1s0.8,0.4,1.3,0.4c0.7,0,1.2-0.2,1.5-0.6s0.5-0.9,0.5-1.6c0-0.7-0.2-1.2-0.5-1.5
				s-0.8-0.5-1.5-0.5c-0.5,0-0.8,0.1-1.2,0.3c-0.3,0.2-0.5,0.5-0.7,0.9h-1.5v-5.9h6.2V3802.4z"/>
			<path class="st5" d="M160.3,3809.6c0.3,0.2,0.7,0.4,1.2,0.4c0.7,0,1.1-0.3,1.5-0.8c0.3-0.5,0.5-1.4,0.5-2.7
				c-0.2,0.3-0.5,0.6-0.9,0.7c-0.4,0.2-0.8,0.3-1.3,0.3c-0.6,0-1.2-0.1-1.7-0.4c-0.5-0.2-0.9-0.6-1.2-1.1c-0.3-0.5-0.4-1.1-0.4-1.8
				c0-1,0.3-1.8,0.9-2.5c0.6-0.6,1.4-0.9,2.5-0.9c1.3,0,2.2,0.4,2.7,1.3c0.5,0.8,0.8,2.1,0.8,3.9c0,1.2-0.1,2.2-0.3,3
				c-0.2,0.8-0.5,1.3-1,1.7c-0.5,0.4-1.2,0.6-2.1,0.6c-1,0-1.8-0.3-2.3-0.8c-0.5-0.5-0.8-1.2-0.9-2h1.5
				C159.8,3809,160,3809.3,160.3,3809.6z M162.8,3805.6c0.3-0.4,0.5-0.8,0.5-1.4c0-0.6-0.2-1.1-0.5-1.5s-0.8-0.5-1.4-0.5
				c-0.6,0-1.1,0.2-1.4,0.6c-0.3,0.4-0.5,0.9-0.5,1.4c0,0.6,0.2,1,0.5,1.4c0.3,0.4,0.8,0.6,1.5,0.6
				C162.1,3806.1,162.5,3806,162.8,3805.6z"/>
			<path class="st5" d="M166.7,3811.1c-0.2-0.2-0.3-0.4-0.3-0.7s0.1-0.5,0.3-0.7c0.2-0.2,0.4-0.3,0.7-0.3c0.3,0,0.5,0.1,0.7,0.3
				c0.2,0.2,0.3,0.4,0.3,0.7s-0.1,0.5-0.3,0.7c-0.2,0.2-0.4,0.3-0.7,0.3C167.2,3811.4,166.9,3811.3,166.7,3811.1z"/>
			<path class="st5" d="M169.8,3802.5v-1.5h2.9v10.2h-1.6v-8.8H169.8z"/>
		</g>
		<g id="패스_4983" transform="translate(177.428 3862.925)">
			<path class="st8" d="M28.6,67h52V-43.6h-52L28.6,67z"/>
			<path class="st3" d="M78.6,65V-41.6h-48V65H78.6 M80.6,67h-52V-43.6h52V67z"/>
		</g>
		<g class="st0">
			<path class="st4" d="M222,3919.9c0.6-0.6,1.1-1,1.5-1.4c0.4-0.4,0.7-0.7,0.9-1.1c0.2-0.4,0.4-0.8,0.4-1.2c0-0.4-0.1-0.7-0.3-0.9
				c-0.2-0.2-0.5-0.3-0.9-0.3c-0.4,0-0.7,0.1-0.9,0.4c-0.2,0.2-0.3,0.6-0.3,1h-1.1c0-0.8,0.2-1.3,0.7-1.7c0.4-0.4,1-0.6,1.7-0.6
				c0.7,0,1.3,0.2,1.7,0.6s0.6,0.9,0.6,1.6c0,0.5-0.1,0.9-0.4,1.4c-0.2,0.4-0.5,0.8-0.9,1.2s-0.8,0.8-1.3,1.2l-0.4,0.4h3.2v0.9h-4.9
				v-0.8L222,3919.9z"/>
			<path class="st4" d="M227.7,3915c0.4-0.6,1.1-1,2-1s1.6,0.3,2,1c0.4,0.7,0.6,1.6,0.6,2.7c0,1.2-0.2,2.1-0.6,2.7
				c-0.4,0.7-1.1,1-2,1s-1.6-0.3-2-1c-0.4-0.7-0.6-1.6-0.6-2.7C227.1,3916.6,227.3,3915.7,227.7,3915z M231.1,3916.4
				c-0.1-0.4-0.2-0.7-0.4-0.9c-0.2-0.2-0.5-0.4-1-0.4s-0.7,0.1-1,0.4c-0.2,0.2-0.4,0.5-0.4,0.9s-0.1,0.8-0.1,1.4c0,0.6,0,1,0.1,1.4
				c0.1,0.4,0.2,0.7,0.4,0.9c0.2,0.2,0.5,0.4,1,0.4s0.7-0.1,1-0.4c0.2-0.2,0.4-0.5,0.4-0.9c0.1-0.4,0.1-0.8,0.1-1.4
				C231.2,3917.2,231.2,3916.7,231.1,3916.4z"/>
			<path class="st4" d="M233.4,3915.2v-1h2.1v7.3h-1.1v-6.2H233.4z"/>
			<path class="st4" d="M238.9,3920.2c0.2,0.2,0.5,0.3,0.9,0.3c0.5,0,0.8-0.2,1-0.6s0.3-1,0.3-1.9c-0.2,0.2-0.4,0.4-0.7,0.5
				s-0.6,0.2-0.9,0.2c-0.4,0-0.8-0.1-1.2-0.3c-0.4-0.2-0.6-0.4-0.8-0.8c-0.2-0.3-0.3-0.8-0.3-1.3c0-0.7,0.2-1.3,0.6-1.8
				c0.4-0.4,1-0.7,1.8-0.7c0.9,0,1.6,0.3,1.9,0.9c0.4,0.6,0.6,1.5,0.6,2.8c0,0.9-0.1,1.6-0.2,2.1c-0.1,0.5-0.4,1-0.7,1.2
				c-0.4,0.3-0.8,0.4-1.5,0.4c-0.7,0-1.3-0.2-1.6-0.6c-0.4-0.4-0.6-0.8-0.7-1.4h1C238.5,3919.8,238.6,3920.1,238.9,3920.2z
				 M240.6,3917.4c0.2-0.2,0.3-0.6,0.3-1c0-0.5-0.1-0.8-0.4-1.1c-0.2-0.3-0.6-0.4-1-0.4s-0.8,0.1-1,0.4c-0.2,0.3-0.4,0.6-0.4,1
				c0,0.4,0.1,0.7,0.4,1s0.6,0.4,1.1,0.4C240.1,3917.8,240.4,3917.7,240.6,3917.4z"/>
		</g>
		<g class="st0">
			<path class="st5" d="M218.6,3809.2v-1.2l4.7-6.7h1.9v6.6h1.3v1.4h-1.3v2.1h-1.6v-2.1H218.6z M223.7,3802.8l-3.3,4.9h3.3V3802.8z"
				/>
			<path class="st5" d="M234.3,3802.3l-3.9,9h-1.6l3.9-8.8h-5.2v-1.4h6.7V3802.3z"/>
			<path class="st5" d="M235.8,3811.1c-0.2-0.2-0.3-0.4-0.3-0.7s0.1-0.5,0.3-0.7c0.2-0.2,0.4-0.3,0.7-0.3c0.3,0,0.5,0.1,0.7,0.3
				c0.2,0.2,0.3,0.4,0.3,0.7s-0.1,0.5-0.3,0.7c-0.2,0.2-0.4,0.3-0.7,0.3C236.2,3811.4,236,3811.3,235.8,3811.1z"/>
			<path class="st5" d="M245.5,3802.3l-3.9,9H240l3.9-8.8h-5.2v-1.4h6.7V3802.3z"/>
		</g>
		<g id="패스_4985" transform="translate(228.558 3855.131)">
			<path class="st8" d="M48.4,74.4h52V-35.8h-52V74.4z"/>
			<path class="st1" d="M98.4,72.4V-33.8h-48V72.4H98.4 M100.4,74.4h-52V-35.8h52V74.4z"/>
		</g>
		<g class="st0">
			<path class="st6" d="M291.5,3919.9c0.6-0.5,1.1-1,1.5-1.3c0.4-0.4,0.7-0.7,1-1.1s0.4-0.8,0.4-1.1c0-0.3-0.1-0.6-0.2-0.8
				c-0.2-0.2-0.4-0.3-0.7-0.3c-0.3,0-0.6,0.1-0.8,0.3c-0.2,0.2-0.3,0.5-0.3,0.9H291c0-0.8,0.3-1.4,0.7-1.8c0.5-0.4,1-0.6,1.7-0.6
				c0.8,0,1.3,0.2,1.8,0.6c0.4,0.4,0.6,0.9,0.6,1.6c0,0.5-0.1,1-0.4,1.5c-0.3,0.5-0.6,0.9-1,1.2c-0.4,0.4-0.8,0.8-1.4,1.3h3v1.2H291
				v-1L291.5,3919.9z"/>
			<path class="st6" d="M297.4,3915c0.4-0.7,1.1-1,2.1-1s1.7,0.3,2.1,1c0.4,0.7,0.6,1.6,0.6,2.7c0,1.2-0.2,2.1-0.6,2.7s-1.1,1-2.1,1
				s-1.7-0.3-2.1-1c-0.4-0.7-0.6-1.6-0.6-2.7C296.8,3916.6,297,3915.7,297.4,3915z M300.7,3916.5c-0.1-0.3-0.2-0.6-0.4-0.8
				c-0.2-0.2-0.5-0.3-0.8-0.3c-0.4,0-0.7,0.1-0.8,0.3c-0.2,0.2-0.3,0.5-0.4,0.8s-0.1,0.8-0.1,1.2c0,0.5,0,0.9,0.1,1.3
				c0.1,0.3,0.2,0.6,0.4,0.8c0.2,0.2,0.5,0.3,0.8,0.3c0.4,0,0.7-0.1,0.9-0.3c0.2-0.2,0.3-0.5,0.4-0.8c0.1-0.3,0.1-0.8,0.1-1.3
				C300.8,3917.2,300.8,3916.8,300.7,3916.5z"/>
			<path class="st6" d="M303.7,3919.9c0.6-0.5,1.2-1,1.5-1.3c0.4-0.4,0.7-0.7,1-1.1c0.3-0.4,0.4-0.8,0.4-1.1c0-0.3-0.1-0.6-0.2-0.8
				s-0.4-0.3-0.7-0.3s-0.6,0.1-0.8,0.3c-0.2,0.2-0.3,0.5-0.3,0.9h-1.4c0-0.8,0.3-1.4,0.7-1.8c0.5-0.4,1-0.6,1.7-0.6
				c0.8,0,1.3,0.2,1.8,0.6c0.4,0.4,0.6,0.9,0.6,1.6c0,0.5-0.1,1-0.4,1.5c-0.3,0.5-0.6,0.9-1,1.2c-0.4,0.4-0.8,0.8-1.4,1.3h3v1.2
				h-4.9v-1L303.7,3919.9z"/>
			<path class="st6" d="M309.6,3915c0.4-0.7,1.1-1,2.1-1s1.7,0.3,2.1,1c0.4,0.7,0.6,1.6,0.6,2.7c0,1.2-0.2,2.1-0.6,2.7s-1.1,1-2.1,1
				s-1.7-0.3-2.1-1c-0.4-0.7-0.6-1.6-0.6-2.7C309,3916.6,309.2,3915.7,309.6,3915z M312.9,3916.5c-0.1-0.3-0.2-0.6-0.4-0.8
				c-0.2-0.2-0.5-0.3-0.8-0.3c-0.4,0-0.7,0.1-0.8,0.3c-0.2,0.2-0.3,0.5-0.4,0.8s-0.1,0.8-0.1,1.2c0,0.5,0,0.9,0.1,1.3
				c0.1,0.3,0.2,0.6,0.4,0.8c0.2,0.2,0.5,0.3,0.8,0.3c0.4,0,0.7-0.1,0.9-0.3c0.2-0.2,0.3-0.5,0.4-0.8c0.1-0.3,0.1-0.8,0.1-1.3
				C313,3917.2,313,3916.8,312.9,3916.5z"/>
		</g>
		<g class="st0">
			<path class="st1" d="M297.3,3802.4h-4.7v2.8c0.2-0.3,0.5-0.5,0.9-0.7c0.4-0.2,0.8-0.3,1.2-0.3c0.8,0,1.4,0.2,1.9,0.5
				c0.5,0.3,0.8,0.8,1.1,1.3c0.2,0.5,0.3,1.1,0.3,1.6c0,0.7-0.1,1.3-0.4,1.8c-0.3,0.5-0.7,1-1.2,1.3s-1.2,0.5-1.9,0.5
				c-1,0-1.8-0.3-2.5-0.8s-1-1.2-1.1-2h1.6c0.1,0.4,0.3,0.8,0.7,1s0.8,0.4,1.3,0.4c0.7,0,1.2-0.2,1.5-0.6s0.5-0.9,0.5-1.6
				c0-0.7-0.2-1.2-0.5-1.5s-0.8-0.5-1.5-0.5c-0.5,0-0.8,0.1-1.2,0.3c-0.3,0.2-0.5,0.5-0.7,0.9h-1.5v-5.9h6.2V3802.4z"/>
			<path class="st1" d="M299.5,3802.5v-1.5h2.9v10.2h-1.6v-8.8H299.5z"/>
			<path class="st1" d="M304.7,3811.1c-0.2-0.2-0.3-0.4-0.3-0.7s0.1-0.5,0.3-0.7c0.2-0.2,0.4-0.3,0.7-0.3c0.3,0,0.5,0.1,0.7,0.3
				c0.2,0.2,0.3,0.4,0.3,0.7s-0.1,0.5-0.3,0.7c-0.2,0.2-0.4,0.3-0.7,0.3C305.1,3811.4,304.9,3811.3,304.7,3811.1z"/>
			<path class="st1" d="M312.9,3802.5c-0.3-0.2-0.6-0.3-1.1-0.3c-0.7,0-1.3,0.3-1.7,0.8c-0.4,0.6-0.6,1.5-0.6,2.8
				c0.2-0.4,0.6-0.7,1.1-1c0.5-0.2,1-0.3,1.5-0.3c0.6,0,1.2,0.1,1.6,0.4c0.5,0.3,0.8,0.7,1.1,1.2c0.3,0.5,0.4,1.1,0.4,1.8
				c0,0.7-0.1,1.2-0.4,1.8c-0.3,0.5-0.6,0.9-1.1,1.2c-0.5,0.3-1.1,0.4-1.8,0.4c-1,0-1.7-0.2-2.3-0.6c-0.5-0.4-0.9-1-1.1-1.8
				c-0.2-0.8-0.3-1.7-0.3-2.9c0-3.4,1.2-5.1,3.6-5.1c0.9,0,1.7,0.3,2.2,0.8s0.9,1.1,0.9,1.9h-1.5
				C313.3,3803,313.2,3802.7,312.9,3802.5z M310.3,3806.4c-0.4,0.3-0.6,0.8-0.6,1.5c0,0.6,0.2,1.2,0.6,1.5c0.4,0.4,0.9,0.6,1.5,0.6
				c0.6,0,1.1-0.2,1.4-0.5c0.3-0.4,0.5-0.8,0.5-1.5c0-0.6-0.2-1.1-0.5-1.5c-0.3-0.4-0.8-0.6-1.5-0.6
				C311.2,3805.9,310.7,3806,310.3,3806.4z"/>
		</g>
		<path id="패스_4988" class="st7" d="M19.8,3929.6h335"/>
		<g class="st0">
			<path class="st2" d="M20.8,3943.7l0.6-1l-1.1-0.5l0.2-0.5l1.1,0.3l0.1-1.2h0.5l0.1,1.2l1.1-0.3l0.2,0.5l-1.1,0.5l0.6,1l-0.4,0.3
				l-0.8-1l-0.8,1L20.8,3943.7z"/>
			<path class="st2" d="M35.3,3944.4v0.7h-3.6v2.2h-0.8v-2.2h-3.7v-0.7h6c0.2-1.2,0.2-2,0.2-2.8v0h-5.2v-0.7h6.1v0.7
				c0,0.8,0,1.6-0.2,2.8H35.3z M29,3948.6h5.4v0.7h-6.2v-2.8H29V3948.6z"/>
			<path class="st2" d="M41.2,3945.6c-1-0.4-1.8-1.1-2.2-2.1c-0.4,1.1-1.2,1.9-2.2,2.3l-0.4-0.6c1.4-0.5,2.2-1.7,2.2-3.1v-1.1h0.8
				v1.1c0,1.2,0.9,2.4,2.2,2.8L41.2,3945.6z M38.6,3948.6h5.1v0.7h-5.9v-2.8h0.8V3948.6z M44.7,3943.2v0.7h-1.3v3.2h-0.8v-6.6h0.8
				v2.8H44.7z"/>
			<path class="st2" d="M45.6,3950.1c0.6-0.3,1-0.8,1-1.4c0,0-0.1,0-0.1,0c-0.4,0-0.7-0.2-0.7-0.6c0-0.4,0.3-0.6,0.7-0.6
				c0.5,0,0.8,0.4,0.8,1.1c0,1-0.6,1.7-1.5,2.1L45.6,3950.1z"/>
			<path class="st2" d="M58.7,3947.7v0.7h-8.1v-0.7h3.6v-2.1h-2.9v-0.7h1.4v-2.9h-1.4v-0.7H58v0.7h-1.4v2.9H58v0.7h-2.9v2.1H58.7z
				 M53.5,3944.9h2.2v-2.9h-2.2V3944.9z"/>
			<path class="st2" d="M65.1,3942.2h-5.3v-0.7h2.2v-1.1h0.8v1.1h2.2V3942.2z M62.5,3945.8c-1.3,0-2.1-0.6-2.1-1.6
				c0-1,0.9-1.6,2.1-1.6s2.1,0.6,2.1,1.6C64.6,3945.2,63.8,3945.8,62.5,3945.8z M66.9,3947.9c0,1-1.1,1.5-2.9,1.5
				c-1.8,0-2.9-0.6-2.9-1.5c0-1,1.1-1.5,2.9-1.5C65.8,3946.3,66.9,3946.9,66.9,3947.9z M62.5,3945.2c0.8,0,1.4-0.4,1.4-1
				c0-0.6-0.5-1-1.4-1s-1.4,0.4-1.4,1C61.1,3944.8,61.7,3945.2,62.5,3945.2z M66.1,3947.9c0-0.6-0.8-0.9-2.1-0.9
				c-1.3,0-2.1,0.3-2.1,0.9s0.8,0.9,2.1,0.9C65.3,3948.8,66.1,3948.5,66.1,3947.9z M68.1,3943v0.7h-1.3v2.6h-0.8v-5.8h0.8v2.5H68.1z
				"/>
			<path class="st2" d="M69,3950.1c0.6-0.3,1-0.8,1-1.4c0,0-0.1,0-0.1,0c-0.4,0-0.7-0.2-0.7-0.6c0-0.4,0.3-0.6,0.7-0.6
				c0.5,0,0.8,0.4,0.8,1.1c0,1-0.6,1.7-1.5,2.1L69,3950.1z"/>
			<path class="st2" d="M79.6,3945.1c-1.9,0.3-4,0.3-5.6,0.3l-0.1-0.7c0.6,0,1.2,0,1.9,0v-1.8h0.8v1.7c1,0,2-0.1,2.9-0.2
				L79.6,3945.1z M77.9,3943.9c0.2-0.9,0.2-1.6,0.2-2.2h-3.6v-0.7H79v0.5c0,0.6,0,1.4-0.2,2.4L77.9,3943.9z M81.1,3947.8
				c0,1-1.1,1.6-3,1.6c-1.8,0-3-0.6-3-1.6c0-1,1.1-1.6,3-1.6C80,3946.2,81.1,3946.8,81.1,3947.8z M80.3,3947.8c0-0.6-0.8-1-2.1-1
				c-1.3,0-2.1,0.4-2.1,1c0,0.6,0.8,1,2.1,1C79.4,3948.8,80.3,3948.4,80.3,3947.8z M82.3,3942.9v0.7H81v2.5h-0.8v-5.6H81v2.5H82.3z"
				/>
			<path class="st2" d="M85.7,3945.2c-1.4,0-2.3-0.9-2.3-2.1c0-1.2,1-2.1,2.3-2.1c1.3,0,2.3,0.9,2.3,2.1
				C88.1,3944.4,87.1,3945.2,85.7,3945.2z M85.7,3944.6c0.9,0,1.5-0.6,1.5-1.4s-0.6-1.4-1.5-1.4c-0.9,0-1.5,0.6-1.5,1.4
				S84.8,3944.6,85.7,3944.6z M90.3,3947.8c0,1.1-1.1,1.7-2.9,1.7c-1.8,0-3-0.6-3-1.7c0-1.1,1.1-1.7,3-1.7
				C89.1,3946.1,90.3,3946.7,90.3,3947.8z M89.5,3947.8c0-0.7-0.8-1-2.1-1c-1.3,0-2.1,0.4-2.1,1c0,0.6,0.8,1,2.1,1
				C88.7,3948.8,89.5,3948.4,89.5,3947.8z M90.2,3942.5v1.2h1.3v0.7h-1.3v1.4h-0.8v-5.3h0.8v1.3h1.3v0.7H90.2z"/>
			<path class="st2" d="M92.4,3950.1c0.6-0.3,1-0.8,1-1.4c0,0-0.1,0-0.1,0c-0.4,0-0.7-0.2-0.7-0.6c0-0.4,0.3-0.6,0.7-0.6
				c0.5,0,0.8,0.4,0.8,1.1c0,1-0.6,1.7-1.5,2.1L92.4,3950.1z"/>
			<path class="st2" d="M102.3,3943.1c0,1.3-1,2.1-2.3,2.1c-1.4,0-2.3-0.9-2.3-2.1c0-1.3,1-2.1,2.3-2.1
				C101.3,3941,102.3,3941.9,102.3,3943.1z M98.5,3943.1c0,0.8,0.6,1.4,1.5,1.4c0.9,0,1.5-0.6,1.5-1.4c0-0.8-0.6-1.4-1.5-1.4
				C99.1,3941.7,98.5,3942.3,98.5,3943.1z M104.8,3946.3v3.1H104v-2.5h-5.2v-0.7H104.8z M104.8,3940.5v5.3H104v-5.3H104.8z"/>
			<path class="st2" d="M111.5,3945.6c-1-0.4-1.8-1.1-2.2-2.1c-0.4,1.1-1.2,1.9-2.2,2.3l-0.4-0.6c1.4-0.5,2.2-1.7,2.2-3.1v-1.1h0.8
				v1.1c0,1.2,0.9,2.4,2.2,2.8L111.5,3945.6z M108.9,3948.6h5.1v0.7H108v-2.8h0.8V3948.6z M114.9,3943.2v0.7h-1.3v3.2h-0.8v-6.6h0.8
				v2.8H114.9z"/>
			<path class="st2" d="M123.9,3944.7v0.7h-8.1v-0.7h3.3v-1.7h0.8v1.7H123.9z M123,3947.8c0,1-1.2,1.6-3.1,1.6
				c-1.9,0-3.1-0.6-3.1-1.6c0-1,1.2-1.6,3.1-1.6C121.8,3946.2,123,3946.8,123,3947.8z M122.1,3941.6h-5.3v-0.7h6.1v0.8
				c0,0.7,0,1.4-0.2,2.4l-0.8-0.1c0.2-0.9,0.2-1.6,0.2-2.3V3941.6z M122.2,3947.8c0-0.6-0.9-1-2.3-1c-1.4,0-2.3,0.4-2.3,1
				c0,0.6,0.9,1,2.3,1C121.3,3948.8,122.2,3948.4,122.2,3947.8z"/>
			<path class="st2" d="M129.9,3945.5c-1-0.3-1.8-1-2.2-1.9c-0.4,1-1.2,1.8-2.3,2.2l-0.4-0.7c1.3-0.5,2.2-1.6,2.2-2.9v-0.3h-2v-0.7
				h4.8v0.7h-2v0.3c0,1.2,0.8,2.2,2.2,2.7L129.9,3945.5z M132.1,3947.8c0,1-1.1,1.7-2.9,1.7c-1.8,0-3-0.6-3-1.7c0-1,1.1-1.6,3-1.6
				C131,3946.1,132.1,3946.7,132.1,3947.8z M131.3,3947.8c0-0.6-0.8-1-2.1-1c-1.3,0-2.1,0.4-2.1,1c0,0.6,0.8,1,2.1,1
				C130.5,3948.8,131.3,3948.4,131.3,3947.8z M133.3,3942.8v0.7H132v2.5h-0.8v-5.4h0.8v2.3H133.3z"/>
			<path class="st2" d="M137.6,3946.6c1.3,0,2.1,0,3-0.2l0.1,0.7c-1,0.2-1.9,0.3-3.3,0.3h-0.6v-5.7h3.4v0.7h-2.6V3946.6z
				 M141.5,3940.7h0.8v8.3h-0.8v-4.4h-1.9v-0.7h1.9V3940.7z M144.1,3940.5v9h-0.8v-9H144.1z"/>
			<path class="st2" d="M150.6,3944.3c0,1.9-0.9,3.1-2.3,3.1c-1.3,0-2.3-1.2-2.3-3.1s0.9-3.1,2.3-3.1
				C149.6,3941.2,150.6,3942.4,150.6,3944.3z M146.8,3944.3c0,1.5,0.6,2.4,1.5,2.4c0.9,0,1.5-0.9,1.5-2.4c0-1.4-0.6-2.4-1.5-2.4
				C147.4,3941.9,146.8,3942.9,146.8,3944.3z M153,3940.5v9h-0.8v-9H153z"/>
			<path class="st2" d="M156.1,3946.6c1.6,0,2.7-0.1,3.9-0.3l0.1,0.7c-1.3,0.2-2.4,0.3-4.1,0.3h-0.7v-6h4.1v0.7h-3.3v1.8h2.9v0.7
				h-2.9V3946.6z M162.3,3940.5v9h-0.8v-4.9h-1.8v-0.7h1.8v-3.4H162.3z"/>
			<path class="st2" d="M174.5,3947.7v0.7h-8.1v-0.7h3.6v-2.1h-2.9v-0.7h1.4v-2.9H167v-0.7h6.6v0.7h-1.4v2.9h1.4v0.7h-2.9v2.1H174.5
				z M169.3,3944.9h2.2v-2.9h-2.2V3944.9z"/>
			<path class="st2" d="M180.8,3942.1h-5.3v-0.7h2.2v-1h0.8v1h2.2V3942.1z M178.2,3945.7c-1.3,0-2.1-0.6-2.1-1.6
				c0-1,0.9-1.6,2.1-1.6s2.1,0.6,2.1,1.6C180.3,3945.1,179.5,3945.7,178.2,3945.7z M178.2,3945.1c0.8,0,1.4-0.4,1.4-1s-0.5-1-1.4-1
				s-1.4,0.4-1.4,1S177.4,3945.1,178.2,3945.1z M176.9,3946.4h5.6v2.9h-5.6V3946.4z M177.7,3948.7h4v-1.6h-4V3948.7z M183.8,3943.6
				h-1.3v2.3h-0.8v-5.4h0.8v2.4h1.3V3943.6z"/>
		</g>
	</g>
</g>
</svg>
