<?xml version="1.0" encoding="utf-8"?>
<!-- Generator: Adobe Illustrator 25.1.0, SVG Export Plug-In . SVG Version: 6.00 Build 0)  -->
<svg version="1.1" id="레이어_1" xmlns="http://www.w3.org/2000/svg" xmlns:xlink="http://www.w3.org/1999/xlink" x="0px"
	 y="0px" viewBox="0 0 921 401.8" style="enable-background:new 0 0 921 401.8;" xml:space="preserve">
<style type="text/css">
	.st0{opacity:0.416;fill:none;stroke:#94989E;enable-background:new    ;}
	.st1{enable-background:new    ;}
	.st2{fill:#929397;}
	.st3{fill:#E2E2E2;}
	.st4{fill:#3AA25C;}
	.st5{fill:#42454A;}
	.st6{fill:#FFFFFF;}
	.st7{fill:#A3A3A3;}
	.st8{fill:none;}
</style>
<g id="그룹_5531" transform="translate(-739.5 -4122.213)">
	<path id="패스_3188" class="st0" d="M1660,4125.2v356"/>
	<path id="패스_3189" class="st0" d="M1200,4125.2v356"/>
	<path id="패스_3196" class="st0" d="M740,4125.2v356"/>
	<g class="st1">
		<path class="st2" d="M953,4167.4c-1.7,0.3-3.2,0.4-5.8,0.4h-1v-5.8h5.6v0.9h-4.4v3.9c2.5,0,3.9-0.1,5.5-0.4L953,4167.4z
			 M948.7,4172.3h7.2v0.9h-8.4v-4.1h1.1V4172.3z M957.2,4164.7v1h-1.9v4.4h-1.1v-9.1h1.1v3.7H957.2z"/>
		<path class="st2" d="M966.8,4168.2c-1.2,0.2-2.4,0.4-3.6,0.4v4.5h-1.1v-4.5c-1.2,0.1-2.4,0.1-3.5,0.1l-0.2-1c2.3,0,5.5,0,8.3-0.4
			L966.8,4168.2z M959.4,4164.2c0-1.5,1.3-2.6,3.2-2.6c1.9,0,3.2,1,3.2,2.6c0,1.5-1.3,2.6-3.2,2.6
			C960.7,4166.7,959.4,4165.7,959.4,4164.2z M960.5,4164.2c0,1,0.9,1.6,2.1,1.6c1.2,0,2.1-0.7,2.1-1.6s-0.9-1.6-2.1-1.6
			C961.4,4162.5,960.5,4163.2,960.5,4164.2z M968.8,4161v12.6h-1.1V4161H968.8z"/>
		<path class="st2" d="M974.8,4166.1c0-0.6,0.4-1,0.9-1c0.5,0,0.9,0.4,0.9,1c0,0.6-0.4,1-0.9,1
			C975.2,4167,974.8,4166.6,974.8,4166.1z M974.8,4171.7c0-0.6,0.4-1,0.9-1c0.5,0,0.9,0.4,0.9,1s-0.4,1-0.9,1
			C975.2,4172.7,974.8,4172.3,974.8,4171.7z"/>
		<path class="st2" d="M992.9,4168.1v0.9h-11.4v-0.9h5.1v-1.3H983v-5.3h8.5v0.9h-7.3v1.3h7v0.9h-7v1.3h7.4v0.9h-3.8v1.3H992.9z
			 M984.1,4172.3h7.6v0.9H983v-3.4h1.1V4172.3z"/>
	</g>
	<path id="패스_3193" class="st3" d="M842.5,4481.1h60v-215.3h-60V4481.1z"/>
	<path id="패스_3194" class="st3" d="M939.5,4481.1h60v-227.4h-60V4481.1z"/>
	<path id="패스_3190" class="st4" d="M1036.5,4481.2h60v-140h-60V4481.2z"/>
	<g class="st1">
		<path class="st5" d="M859.8,4465.3c0.8-0.7,1.5-1.3,2-1.8c0.5-0.5,0.9-0.9,1.2-1.5c0.3-0.5,0.5-1,0.5-1.5c0-0.5-0.1-0.9-0.4-1.2
			s-0.6-0.4-1.2-0.4c-0.5,0-0.9,0.2-1.2,0.5c-0.3,0.3-0.4,0.8-0.4,1.3h-1.4c0-1,0.3-1.7,0.9-2.3c0.6-0.5,1.3-0.8,2.2-0.8
			c0.9,0,1.7,0.3,2.2,0.8c0.5,0.5,0.8,1.2,0.8,2.1c0,0.6-0.2,1.2-0.5,1.8c-0.3,0.6-0.7,1.1-1.1,1.5c-0.4,0.5-1,1-1.7,1.6l-0.6,0.5
			h4.1v1.2h-6.3v-1.1L859.8,4465.3z"/>
		<path class="st5" d="M867.2,4458.9c0.5-0.8,1.4-1.3,2.6-1.3c1.2,0,2.1,0.4,2.6,1.3c0.5,0.8,0.8,2,0.8,3.5c0,1.5-0.3,2.7-0.8,3.6
			c-0.5,0.9-1.4,1.3-2.6,1.3c-1.2,0-2.1-0.4-2.6-1.3s-0.8-2-0.8-3.6C866.4,4461,866.7,4459.8,867.2,4458.9z M871.6,4460.7
			c-0.1-0.5-0.3-0.9-0.6-1.2s-0.7-0.5-1.2-0.5c-0.5,0-1,0.2-1.2,0.5s-0.5,0.7-0.6,1.2s-0.1,1.1-0.1,1.8c0,0.7,0,1.3,0.1,1.8
			c0.1,0.5,0.3,0.9,0.6,1.2s0.7,0.5,1.2,0.5c0.5,0,1-0.2,1.2-0.5s0.5-0.7,0.6-1.2c0.1-0.5,0.1-1.1,0.1-1.8
			C871.7,4461.8,871.7,4461.2,871.6,4460.7z"/>
		<path class="st5" d="M874.6,4459.2v-1.4h2.7v9.5h-1.5v-8.1H874.6z"/>
		<path class="st5" d="M879.6,4460.2c0-0.5,0.1-0.9,0.4-1.3s0.6-0.7,1.1-0.9c0.5-0.2,1-0.3,1.7-0.3c0.7,0,1.2,0.1,1.7,0.3
			c0.5,0.2,0.8,0.5,1.1,0.9s0.4,0.8,0.4,1.3c0,0.5-0.1,0.9-0.4,1.3c-0.2,0.4-0.6,0.7-1,0.9c0.5,0.2,0.9,0.5,1.2,0.9
			c0.3,0.4,0.4,0.9,0.4,1.4c0,0.6-0.1,1.1-0.4,1.5c-0.3,0.4-0.7,0.8-1.2,1c-0.5,0.2-1.1,0.4-1.7,0.4s-1.2-0.1-1.7-0.4
			c-0.5-0.2-0.9-0.6-1.2-1c-0.3-0.4-0.4-0.9-0.4-1.5c0-0.6,0.1-1,0.4-1.5c0.3-0.4,0.7-0.7,1.2-0.9
			C880,4461.9,879.6,4461.2,879.6,4460.2z M881.3,4463.4c-0.4,0.3-0.5,0.7-0.5,1.2c0,0.5,0.2,0.9,0.5,1.2c0.3,0.3,0.8,0.5,1.4,0.5
			c0.6,0,1.1-0.2,1.4-0.5c0.3-0.3,0.5-0.7,0.5-1.2c0-0.5-0.2-0.9-0.5-1.2c-0.4-0.3-0.8-0.4-1.4-0.4
			C882.1,4463,881.7,4463.2,881.3,4463.4z M883.9,4459.3c-0.3-0.3-0.7-0.4-1.2-0.4c-0.5,0-0.9,0.1-1.2,0.4c-0.3,0.3-0.5,0.6-0.5,1.1
			c0,0.4,0.2,0.8,0.5,1.1c0.3,0.3,0.7,0.4,1.2,0.4s0.9-0.1,1.2-0.4c0.3-0.3,0.5-0.6,0.5-1.1C884.4,4459.9,884.2,4459.6,883.9,4459.3
			z"/>
	</g>
	<g class="st1">
		<path class="st5" d="M956.8,4465.3c0.8-0.7,1.5-1.3,2-1.8c0.5-0.5,0.9-0.9,1.2-1.5c0.3-0.5,0.5-1,0.5-1.5c0-0.5-0.1-0.9-0.4-1.2
			s-0.6-0.4-1.2-0.4c-0.5,0-0.9,0.2-1.2,0.5c-0.3,0.3-0.4,0.8-0.4,1.3h-1.4c0-1,0.3-1.7,0.9-2.3c0.6-0.5,1.3-0.8,2.2-0.8
			c0.9,0,1.7,0.3,2.2,0.8c0.5,0.5,0.8,1.2,0.8,2.1c0,0.6-0.2,1.2-0.5,1.8c-0.3,0.6-0.7,1.1-1.1,1.5c-0.4,0.5-1,1-1.7,1.6l-0.6,0.5
			h4.1v1.2h-6.3v-1.1L956.8,4465.3z"/>
		<path class="st5" d="M964.2,4458.9c0.5-0.8,1.4-1.3,2.6-1.3c1.2,0,2.1,0.4,2.6,1.3c0.5,0.8,0.8,2,0.8,3.5c0,1.5-0.3,2.7-0.8,3.6
			c-0.5,0.9-1.4,1.3-2.6,1.3c-1.2,0-2.1-0.4-2.6-1.3s-0.8-2-0.8-3.6C963.5,4461,963.7,4459.8,964.2,4458.9z M968.6,4460.7
			c-0.1-0.5-0.3-0.9-0.6-1.2s-0.7-0.5-1.2-0.5c-0.5,0-1,0.2-1.2,0.5s-0.5,0.7-0.6,1.2s-0.1,1.1-0.1,1.8c0,0.7,0,1.3,0.1,1.8
			c0.1,0.5,0.3,0.9,0.6,1.2s0.7,0.5,1.2,0.5c0.5,0,1-0.2,1.2-0.5s0.5-0.7,0.6-1.2c0.1-0.5,0.1-1.1,0.1-1.8
			C968.8,4461.8,968.7,4461.2,968.6,4460.7z"/>
		<path class="st5" d="M971.6,4459.2v-1.4h2.7v9.5h-1.5v-8.1H971.6z"/>
		<path class="st5" d="M978.8,4465.7c0.3,0.2,0.7,0.3,1.2,0.3c0.6,0,1.1-0.2,1.4-0.7c0.3-0.5,0.4-1.3,0.4-2.5
			c-0.2,0.3-0.5,0.5-0.9,0.7s-0.8,0.2-1.2,0.2c-0.6,0-1.1-0.1-1.5-0.3c-0.5-0.2-0.8-0.6-1.1-1c-0.3-0.5-0.4-1-0.4-1.7
			c0-1,0.3-1.7,0.8-2.3c0.6-0.6,1.3-0.9,2.3-0.9c1.2,0,2,0.4,2.5,1.2c0.5,0.8,0.7,2,0.7,3.6c0,1.1-0.1,2-0.3,2.7s-0.5,1.2-1,1.6
			c-0.5,0.4-1.1,0.5-1.9,0.5c-0.9,0-1.6-0.2-2.1-0.7c-0.5-0.5-0.8-1.1-0.8-1.8h1.4C978.3,4465.2,978.5,4465.5,978.8,4465.7z
			 M981.1,4462c0.3-0.3,0.4-0.8,0.4-1.3c0-0.6-0.2-1.1-0.5-1.4c-0.3-0.3-0.7-0.5-1.3-0.5s-1,0.2-1.3,0.5c-0.3,0.3-0.5,0.8-0.5,1.3
			c0,0.5,0.2,1,0.5,1.3c0.3,0.3,0.8,0.5,1.4,0.5C980.4,4462.5,980.8,4462.4,981.1,4462z"/>
	</g>
	<g class="st1">
		<path class="st6" d="M1051.9,4465.3c0.8-0.7,1.5-1.3,2-1.7c0.5-0.5,0.9-0.9,1.2-1.5c0.3-0.5,0.5-1,0.5-1.5c0-0.4-0.1-0.8-0.3-1
			c-0.2-0.3-0.5-0.4-1-0.4c-0.4,0-0.8,0.1-1,0.4c-0.2,0.3-0.4,0.7-0.4,1.2h-1.8c0-1,0.3-1.8,0.9-2.4s1.3-0.8,2.2-0.8
			c1,0,1.7,0.3,2.3,0.8s0.8,1.2,0.8,2.1c0,0.7-0.2,1.3-0.5,1.9c-0.4,0.6-0.8,1.2-1.2,1.6c-0.5,0.5-1.1,1-1.8,1.6h3.8v1.5h-6.4v-1.4
			L1051.9,4465.3z"/>
		<path class="st6" d="M1059.6,4458.9c0.5-0.8,1.4-1.3,2.7-1.3c1.3,0,2.2,0.4,2.7,1.3s0.8,2,0.8,3.5c0,1.5-0.3,2.7-0.8,3.5
			c-0.5,0.9-1.4,1.3-2.7,1.3c-1.3,0-2.2-0.4-2.7-1.3c-0.5-0.9-0.8-2-0.8-3.5C1058.8,4461,1059.1,4459.8,1059.6,4458.9z
			 M1063.9,4460.8c-0.1-0.4-0.2-0.8-0.5-1.1s-0.6-0.4-1.1-0.4c-0.5,0-0.9,0.1-1.1,0.4s-0.4,0.6-0.5,1.1s-0.1,1-0.1,1.6
			c0,0.7,0,1.2,0.1,1.7s0.2,0.8,0.5,1.1c0.3,0.3,0.6,0.4,1.1,0.4c0.5,0,0.9-0.1,1.1-0.4c0.3-0.3,0.4-0.6,0.5-1.1
			c0.1-0.4,0.1-1,0.1-1.7C1064,4461.8,1064,4461.3,1063.9,4460.8z"/>
		<path class="st6" d="M1067.8,4465.3c0.8-0.7,1.5-1.3,2-1.7c0.5-0.5,0.9-0.9,1.2-1.5c0.3-0.5,0.5-1,0.5-1.5c0-0.4-0.1-0.8-0.3-1
			c-0.2-0.3-0.5-0.4-1-0.4c-0.4,0-0.8,0.1-1,0.4c-0.2,0.3-0.4,0.7-0.4,1.2h-1.8c0-1,0.3-1.8,0.9-2.4s1.3-0.8,2.2-0.8
			c1,0,1.7,0.3,2.3,0.8s0.8,1.2,0.8,2.1c0,0.7-0.2,1.3-0.5,1.9c-0.4,0.6-0.8,1.2-1.2,1.6c-0.5,0.5-1.1,1-1.8,1.6h3.8v1.5h-6.4v-1.4
			L1067.8,4465.3z"/>
		<path class="st6" d="M1075.5,4458.9c0.5-0.8,1.4-1.3,2.7-1.3c1.3,0,2.2,0.4,2.7,1.3s0.8,2,0.8,3.5c0,1.5-0.3,2.7-0.8,3.5
			c-0.5,0.9-1.4,1.3-2.7,1.3c-1.3,0-2.2-0.4-2.7-1.3c-0.5-0.9-0.8-2-0.8-3.5C1074.7,4461,1074.9,4459.8,1075.5,4458.9z
			 M1079.8,4460.8c-0.1-0.4-0.2-0.8-0.5-1.1s-0.6-0.4-1.1-0.4c-0.5,0-0.9,0.1-1.1,0.4s-0.4,0.6-0.5,1.1s-0.1,1-0.1,1.6
			c0,0.7,0,1.2,0.1,1.7s0.2,0.8,0.5,1.1c0.3,0.3,0.6,0.4,1.1,0.4c0.5,0,0.9-0.1,1.1-0.4c0.3-0.3,0.4-0.6,0.5-1.1
			c0.1-0.4,0.1-1,0.1-1.7C1079.9,4461.8,1079.8,4461.3,1079.8,4460.8z"/>
	</g>
	<g class="st1">
		<path class="st7" d="M845.1,4248.8v-1.5l6-8.7h2.5v8.4h1.7v1.8h-1.7v2.7h-2v-2.7H845.1z M851.7,4240.6l-4.2,6.4h4.2V4240.6z"/>
		<path class="st7" d="M858,4239.9c0.7-1.2,1.9-1.8,3.6-1.8c1.7,0,2.9,0.6,3.6,1.8c0.7,1.2,1.1,2.8,1.1,4.9c0,2.1-0.4,3.7-1.1,4.9
			c-0.7,1.2-1.9,1.8-3.6,1.8c-1.7,0-2.9-0.6-3.6-1.8c-0.7-1.2-1.1-2.8-1.1-4.9C857,4242.7,857.3,4241.1,858,4239.9z M864.1,4242.3
			c-0.1-0.7-0.4-1.2-0.8-1.6c-0.4-0.4-1-0.6-1.7-0.6c-0.8,0-1.3,0.2-1.7,0.6c-0.4,0.4-0.6,1-0.8,1.6c-0.1,0.7-0.2,1.5-0.2,2.5
			c0,1,0.1,1.9,0.2,2.5c0.1,0.7,0.4,1.2,0.8,1.7c0.4,0.4,1,0.6,1.7,0.6c0.8,0,1.3-0.2,1.7-0.6c0.4-0.4,0.6-1,0.8-1.7
			c0.1-0.7,0.2-1.5,0.2-2.5C864.3,4243.8,864.3,4243,864.1,4242.3z"/>
		<path class="st7" d="M871.1,4249l-2.2,5h-1.3l1.3-5H871.1z"/>
		<path class="st7" d="M872.3,4240.3v-1.9h3.7v13.1H874v-11.2H872.3z"/>
		<path class="st7" d="M887.3,4240.2h-6v3.6c0.3-0.3,0.6-0.6,1.1-0.8c0.5-0.2,1-0.3,1.6-0.3c1,0,1.8,0.2,2.5,0.6
			c0.6,0.4,1.1,1,1.4,1.6s0.4,1.4,0.4,2.1c0,0.9-0.2,1.7-0.5,2.4c-0.3,0.7-0.9,1.2-1.5,1.6c-0.7,0.4-1.5,0.6-2.5,0.6
			c-1.3,0-2.4-0.3-3.1-1c-0.8-0.6-1.3-1.5-1.4-2.6h2c0.1,0.6,0.4,1,0.9,1.3s1,0.5,1.7,0.5c0.9,0,1.5-0.3,1.9-0.8
			c0.4-0.5,0.6-1.2,0.6-2.1c0-0.9-0.2-1.5-0.6-2c-0.4-0.5-1.1-0.7-1.9-0.7c-0.6,0-1.1,0.1-1.5,0.4c-0.4,0.3-0.7,0.7-0.9,1.2h-1.9
			v-7.6h7.9V4240.2z"/>
		<path class="st7" d="M893.7,4249.3c0.4,0.3,0.9,0.5,1.6,0.5c0.9,0,1.5-0.3,1.9-1c0.4-0.7,0.6-1.8,0.6-3.4
			c-0.3,0.4-0.7,0.7-1.2,0.9c-0.5,0.2-1.1,0.3-1.7,0.3c-0.8,0-1.5-0.2-2.1-0.5c-0.6-0.3-1.1-0.8-1.5-1.4c-0.4-0.6-0.5-1.4-0.5-2.3
			c0-1.3,0.4-2.4,1.2-3.2s1.8-1.2,3.2-1.2c1.6,0,2.8,0.5,3.5,1.6c0.7,1.1,1,2.8,1,5c0,1.5-0.1,2.8-0.4,3.8c-0.3,1-0.7,1.7-1.3,2.2
			c-0.6,0.5-1.5,0.8-2.6,0.8c-1.3,0-2.3-0.3-3-1c-0.7-0.7-1.1-1.5-1.2-2.5h1.9C893.1,4248.5,893.3,4249,893.7,4249.3z M896.9,4244.2
			c0.4-0.5,0.6-1,0.6-1.8c0-0.8-0.2-1.5-0.7-1.9c-0.4-0.5-1-0.7-1.8-0.7s-1.4,0.2-1.8,0.7s-0.7,1.1-0.7,1.9c0,0.7,0.2,1.3,0.6,1.8
			c0.4,0.5,1.1,0.7,1.9,0.7C895.9,4244.9,896.5,4244.7,896.9,4244.2z"/>
	</g>
	<g class="st1">
		<path class="st7" d="M940.1,4236.8v-1.5l6-8.7h2.5v8.4h1.7v1.8h-1.7v2.7h-2v-2.7H940.1z M946.7,4228.6l-4.2,6.4h4.2V4228.6z"/>
		<path class="st7" d="M953.1,4236.7c1.2-1,2.1-1.8,2.7-2.5c0.7-0.6,1.2-1.3,1.7-2s0.7-1.4,0.7-2.1c0-0.7-0.2-1.3-0.5-1.7
			c-0.3-0.4-0.9-0.6-1.6-0.6c-0.7,0-1.3,0.2-1.6,0.7c-0.4,0.4-0.6,1.1-0.6,1.8h-2c0-1.4,0.4-2.4,1.2-3.1c0.8-0.7,1.8-1.1,3-1.1
			c1.3,0,2.3,0.4,3.1,1.1c0.7,0.7,1.1,1.7,1.1,2.9c0,0.9-0.2,1.7-0.7,2.5c-0.4,0.8-1,1.5-1.6,2.1s-1.4,1.4-2.3,2.2l-0.8,0.7h5.7v1.7
			h-8.7v-1.5L953.1,4236.7z"/>
		<path class="st7" d="M964.9,4237l-2.2,5h-1.3l1.3-5H964.9z"/>
		<path class="st7" d="M967.4,4227.9c0.7-1.2,1.9-1.8,3.6-1.8c1.7,0,2.9,0.6,3.6,1.8c0.7,1.2,1.1,2.8,1.1,4.9c0,2.1-0.4,3.7-1.1,4.9
			c-0.7,1.2-1.9,1.8-3.6,1.8c-1.7,0-2.9-0.6-3.6-1.8c-0.7-1.2-1.1-2.8-1.1-4.9C966.4,4230.7,966.7,4229.1,967.4,4227.9z
			 M973.5,4230.3c-0.1-0.7-0.4-1.2-0.8-1.6c-0.4-0.4-1-0.6-1.7-0.6c-0.8,0-1.3,0.2-1.7,0.6c-0.4,0.4-0.6,1-0.8,1.6
			c-0.1,0.7-0.2,1.5-0.2,2.5c0,1,0.1,1.9,0.2,2.5c0.1,0.7,0.4,1.2,0.8,1.7c0.4,0.4,1,0.6,1.7,0.6c0.8,0,1.3-0.2,1.7-0.6
			c0.4-0.4,0.6-1,0.8-1.7c0.1-0.7,0.2-1.5,0.2-2.5C973.7,4231.8,973.7,4231,973.5,4230.3z"/>
		<path class="st7" d="M981.3,4237.3c0.4,0.3,0.9,0.5,1.6,0.5c0.9,0,1.5-0.3,1.9-1c0.4-0.7,0.6-1.8,0.6-3.4
			c-0.3,0.4-0.7,0.7-1.2,0.9c-0.5,0.2-1.1,0.3-1.7,0.3c-0.8,0-1.5-0.2-2.1-0.5c-0.6-0.3-1.1-0.8-1.5-1.4c-0.4-0.6-0.5-1.4-0.5-2.3
			c0-1.3,0.4-2.4,1.2-3.2s1.8-1.2,3.2-1.2c1.6,0,2.8,0.5,3.5,1.6c0.7,1.1,1,2.8,1,5c0,1.5-0.1,2.8-0.4,3.8c-0.3,1-0.7,1.7-1.3,2.2
			c-0.6,0.5-1.5,0.8-2.6,0.8c-1.3,0-2.3-0.3-3-1c-0.7-0.7-1.1-1.5-1.2-2.5h1.9C980.6,4236.5,980.9,4237,981.3,4237.3z M984.5,4232.2
			c0.4-0.5,0.6-1,0.6-1.8c0-0.8-0.2-1.5-0.7-1.9c-0.4-0.5-1-0.7-1.8-0.7s-1.4,0.2-1.8,0.7s-0.7,1.1-0.7,1.9c0,0.7,0.2,1.3,0.6,1.8
			c0.4,0.5,1.1,0.7,1.9,0.7C983.5,4232.9,984.1,4232.7,984.5,4232.2z"/>
		<path class="st7" d="M989.7,4229.7c0-0.6,0.2-1.2,0.5-1.8c0.3-0.5,0.8-1,1.5-1.3c0.6-0.3,1.4-0.5,2.4-0.5c0.9,0,1.7,0.2,2.4,0.5
			c0.7,0.3,1.1,0.7,1.5,1.3c0.3,0.5,0.5,1.1,0.5,1.8c0,0.7-0.2,1.3-0.5,1.8c-0.3,0.5-0.8,0.9-1.4,1.2c0.7,0.3,1.2,0.7,1.6,1.2
			c0.4,0.6,0.6,1.2,0.6,2c0,0.8-0.2,1.5-0.6,2.1s-0.9,1.1-1.7,1.4s-1.5,0.5-2.4,0.5c-0.9,0-1.7-0.2-2.4-0.5
			c-0.7-0.3-1.3-0.8-1.6-1.4s-0.6-1.3-0.6-2.1c0-0.8,0.2-1.5,0.6-2s0.9-1,1.6-1.2C990.3,4232,989.7,4231,989.7,4229.7z
			 M992.1,4234.1c-0.5,0.4-0.7,1-0.7,1.7c0,0.7,0.2,1.2,0.7,1.7c0.5,0.4,1.1,0.6,2,0.6c0.8,0,1.5-0.2,1.9-0.6c0.5-0.4,0.7-1,0.7-1.7
			c0-0.7-0.2-1.3-0.7-1.7c-0.5-0.4-1.1-0.6-1.9-0.6S992.6,4233.7,992.1,4234.1z M995.8,4228.4c-0.4-0.4-1-0.5-1.7-0.5
			c-0.7,0-1.3,0.2-1.7,0.5c-0.4,0.4-0.6,0.9-0.6,1.6c0,0.6,0.2,1.1,0.7,1.5c0.4,0.4,1,0.6,1.7,0.6c0.7,0,1.2-0.2,1.7-0.6
			c0.4-0.4,0.7-0.9,0.7-1.5C996.4,4229.3,996.2,4228.8,995.8,4228.4z"/>
	</g>
	<g class="st1">
		<path class="st4" d="M1038.9,4324.4c1.2-1,2.1-1.8,2.7-2.5c0.7-0.6,1.2-1.3,1.7-2c0.4-0.7,0.7-1.4,0.7-2.1c0-0.7-0.2-1.3-0.5-1.7
			c-0.3-0.4-0.9-0.6-1.6-0.6c-0.7,0-1.3,0.2-1.6,0.7c-0.4,0.4-0.6,1.1-0.6,1.8h-2c0-1.4,0.4-2.4,1.2-3.1c0.8-0.7,1.8-1.1,3-1.1
			c1.3,0,2.3,0.4,3.1,1.1c0.7,0.7,1.1,1.7,1.1,2.9c0,0.9-0.2,1.7-0.7,2.5c-0.4,0.8-1,1.5-1.6,2.1c-0.6,0.6-1.4,1.4-2.3,2.2l-0.8,0.7
			h5.7v1.7h-8.7v-1.5L1038.9,4324.4z"/>
		<path class="st4" d="M1054.5,4315.9c-0.3-0.3-0.8-0.4-1.5-0.4c-0.9,0-1.7,0.4-2.1,1.1c-0.5,0.7-0.7,1.9-0.7,3.6
			c0.3-0.5,0.8-0.9,1.4-1.2c0.6-0.3,1.2-0.4,1.9-0.4c0.8,0,1.5,0.2,2.1,0.5c0.6,0.3,1.1,0.8,1.4,1.5c0.3,0.6,0.5,1.4,0.5,2.3
			c0,0.8-0.2,1.6-0.5,2.2s-0.8,1.2-1.5,1.6c-0.6,0.4-1.4,0.6-2.3,0.6c-1.2,0-2.2-0.3-2.9-0.8c-0.7-0.5-1.2-1.3-1.5-2.3
			c-0.3-1-0.4-2.2-0.4-3.7c0-4.4,1.5-6.6,4.6-6.6c1.2,0,2.1,0.3,2.8,1c0.7,0.6,1.1,1.4,1.2,2.4h-1.9
			C1055.1,4316.6,1054.9,4316.1,1054.5,4315.9z M1051.2,4320.9c-0.5,0.4-0.8,1.1-0.8,1.9s0.2,1.5,0.7,2c0.5,0.5,1.1,0.7,2,0.7
			c0.8,0,1.4-0.2,1.8-0.7c0.4-0.5,0.7-1.1,0.7-1.9c0-0.8-0.2-1.5-0.6-2c-0.4-0.5-1.1-0.7-1.9-0.7
			C1052.3,4320.2,1051.7,4320.4,1051.2,4320.9z"/>
		<path class="st4" d="M1062.3,4324.7l-2.2,5h-1.3l1.3-5H1062.3z"/>
		<path class="st4" d="M1064.8,4315.6c0.7-1.2,1.9-1.8,3.6-1.8s2.9,0.6,3.6,1.8c0.7,1.2,1.1,2.8,1.1,4.9c0,2.1-0.4,3.7-1.1,4.9
			c-0.7,1.2-1.9,1.8-3.6,1.8s-2.9-0.6-3.6-1.8c-0.7-1.2-1.1-2.8-1.1-4.9C1063.8,4318.4,1064.1,4316.8,1064.8,4315.6z M1070.9,4318
			c-0.1-0.7-0.4-1.2-0.8-1.6s-1-0.6-1.7-0.6s-1.3,0.2-1.7,0.6s-0.6,1-0.8,1.6c-0.1,0.7-0.2,1.5-0.2,2.5c0,1,0.1,1.9,0.2,2.5
			c0.1,0.7,0.4,1.2,0.8,1.7c0.4,0.4,1,0.6,1.7,0.6s1.3-0.2,1.7-0.6s0.6-1,0.8-1.7c0.1-0.7,0.2-1.5,0.2-2.5
			C1071.1,4319.5,1071.1,4318.7,1070.9,4318z"/>
		<path class="st4" d="M1075.1,4324.4v-1.5l6-8.7h2.5v8.4h1.7v1.8h-1.7v2.7h-2v-2.7H1075.1z M1081.7,4316.3l-4.2,6.4h4.2V4316.3z"/>
		<path class="st4" d="M1088.1,4324.4c1.2-1,2.1-1.8,2.7-2.5c0.7-0.6,1.2-1.3,1.7-2c0.4-0.7,0.7-1.4,0.7-2.1c0-0.7-0.2-1.3-0.5-1.7
			c-0.3-0.4-0.9-0.6-1.6-0.6c-0.7,0-1.3,0.2-1.6,0.7c-0.4,0.4-0.6,1.1-0.6,1.8h-2c0-1.4,0.4-2.4,1.2-3.1c0.8-0.7,1.8-1.1,3-1.1
			c1.3,0,2.3,0.4,3.1,1.1c0.7,0.7,1.1,1.7,1.1,2.9c0,0.9-0.2,1.7-0.7,2.5c-0.4,0.8-1,1.5-1.6,2.1c-0.6,0.6-1.4,1.4-2.3,2.2l-0.8,0.7
			h5.7v1.7h-8.7v-1.5L1088.1,4324.4z"/>
	</g>
	<g id="패스_3191" transform="translate(1293.798 4320.965)">
		<path class="st8" d="M8.7,159.9h60V-50.8h-60V159.9z"/>
		<path class="st3" d="M66.7,157.9V-48.8h-56v206.6H66.7 M68.7,159.9h-60V-50.8h60V159.9z"/>
	</g>
	<path id="패스_3202" class="st3" d="M1302.5,4480.8h60v-126.3h-60V4480.8z"/>
	<g id="패스_3192" transform="translate(1370.928 4314.654)">
		<path class="st8" d="M28.6,166.5h60V-43.6h-60L28.6,166.5z"/>
		<path class="st3" d="M86.6,164.5V-41.6h-56v206.1H86.6 M88.6,166.5h-60V-43.6h60V166.5z"/>
	</g>
	<path id="패스_3201" class="st3" d="M1399.5,4480.3h60v-97.8h-60V4480.3z"/>
	<g id="패스_3195" transform="translate(1448.058 4306.861)">
		<path class="st8" d="M48.4,174.3h60V-35.8h-60V174.3z"/>
		<path class="st4" d="M106.4,172.3V-33.8h-56v206.2H106.4 M108.4,174.3h-60V-35.8h60V174.3z"/>
	</g>
	<path id="패스_3200" class="st4" d="M1496.5,4480.4h60v-113.1h-60V4480.4z"/>
	<g class="st1">
		<path class="st5" d="M1319.8,4465.3c0.8-0.7,1.5-1.3,2-1.8c0.5-0.5,0.9-0.9,1.2-1.5c0.3-0.5,0.5-1,0.5-1.5c0-0.5-0.1-0.9-0.4-1.2
			s-0.6-0.4-1.2-0.4c-0.5,0-0.9,0.2-1.2,0.5c-0.3,0.3-0.4,0.8-0.4,1.3h-1.4c0-1,0.3-1.7,0.9-2.3s1.3-0.8,2.2-0.8
			c0.9,0,1.7,0.3,2.2,0.8c0.5,0.5,0.8,1.2,0.8,2.1c0,0.6-0.2,1.2-0.5,1.8c-0.3,0.6-0.7,1.1-1.1,1.5s-1,1-1.7,1.6l-0.6,0.5h4.1v1.2
			h-6.3v-1.1L1319.8,4465.3z"/>
		<path class="st5" d="M1327.2,4458.9c0.5-0.8,1.4-1.3,2.6-1.3c1.2,0,2.1,0.4,2.6,1.3c0.5,0.8,0.8,2,0.8,3.5c0,1.5-0.3,2.7-0.8,3.6
			s-1.4,1.3-2.6,1.3c-1.2,0-2.1-0.4-2.6-1.3s-0.8-2-0.8-3.6C1326.4,4461,1326.7,4459.8,1327.2,4458.9z M1331.6,4460.7
			c-0.1-0.5-0.3-0.9-0.6-1.2s-0.7-0.5-1.2-0.5c-0.5,0-1,0.2-1.2,0.5s-0.5,0.7-0.6,1.2s-0.1,1.1-0.1,1.8c0,0.7,0,1.3,0.1,1.8
			c0.1,0.5,0.3,0.9,0.6,1.2c0.3,0.3,0.7,0.5,1.2,0.5c0.5,0,1-0.2,1.2-0.5c0.3-0.3,0.5-0.7,0.6-1.2c0.1-0.5,0.1-1.1,0.1-1.8
			C1331.7,4461.8,1331.7,4461.2,1331.6,4460.7z"/>
		<path class="st5" d="M1334.6,4459.2v-1.4h2.7v9.5h-1.5v-8.1H1334.6z"/>
		<path class="st5" d="M1339.6,4460.2c0-0.5,0.1-0.9,0.4-1.3c0.2-0.4,0.6-0.7,1.1-0.9c0.5-0.2,1-0.3,1.7-0.3c0.7,0,1.2,0.1,1.7,0.3
			c0.5,0.2,0.8,0.5,1.1,0.9c0.2,0.4,0.4,0.8,0.4,1.3c0,0.5-0.1,0.9-0.4,1.3c-0.2,0.4-0.6,0.7-1,0.9c0.5,0.2,0.9,0.5,1.2,0.9
			c0.3,0.4,0.4,0.9,0.4,1.4c0,0.6-0.1,1.1-0.4,1.5c-0.3,0.4-0.7,0.8-1.2,1c-0.5,0.2-1.1,0.4-1.7,0.4c-0.6,0-1.2-0.1-1.7-0.4
			c-0.5-0.2-0.9-0.6-1.2-1c-0.3-0.4-0.4-0.9-0.4-1.5c0-0.6,0.1-1,0.4-1.5c0.3-0.4,0.7-0.7,1.2-0.9
			C1340,4461.9,1339.6,4461.2,1339.6,4460.2z M1341.3,4463.4c-0.4,0.3-0.5,0.7-0.5,1.2c0,0.5,0.2,0.9,0.5,1.2
			c0.3,0.3,0.8,0.5,1.4,0.5c0.6,0,1.1-0.2,1.4-0.5c0.3-0.3,0.5-0.7,0.5-1.2c0-0.5-0.2-0.9-0.5-1.2s-0.8-0.4-1.4-0.4
			C1342.1,4463,1341.7,4463.2,1341.3,4463.4z M1343.9,4459.3c-0.3-0.3-0.7-0.4-1.2-0.4c-0.5,0-0.9,0.1-1.2,0.4
			c-0.3,0.3-0.5,0.6-0.5,1.1c0,0.4,0.2,0.8,0.5,1.1c0.3,0.3,0.7,0.4,1.2,0.4s0.9-0.1,1.2-0.4c0.3-0.3,0.5-0.6,0.5-1.1
			C1344.4,4459.9,1344.2,4459.6,1343.9,4459.3z"/>
	</g>
	<g class="st1">
		<path class="st5" d="M1416.8,4465.3c0.8-0.7,1.5-1.3,2-1.8c0.5-0.5,0.9-0.9,1.2-1.5c0.3-0.5,0.5-1,0.5-1.5c0-0.5-0.1-0.9-0.4-1.2
			s-0.6-0.4-1.2-0.4c-0.5,0-0.9,0.2-1.2,0.5c-0.3,0.3-0.4,0.8-0.4,1.3h-1.4c0-1,0.3-1.7,0.9-2.3c0.6-0.5,1.3-0.8,2.2-0.8
			c0.9,0,1.7,0.3,2.2,0.8c0.5,0.5,0.8,1.2,0.8,2.1c0,0.6-0.2,1.2-0.5,1.8c-0.3,0.6-0.7,1.1-1.1,1.5c-0.4,0.5-1,1-1.7,1.6l-0.6,0.5
			h4.1v1.2h-6.3v-1.1L1416.8,4465.3z"/>
		<path class="st5" d="M1424.2,4458.9c0.5-0.8,1.4-1.3,2.6-1.3s2.1,0.4,2.6,1.3c0.5,0.8,0.8,2,0.8,3.5c0,1.5-0.3,2.7-0.8,3.6
			c-0.5,0.9-1.4,1.3-2.6,1.3s-2.1-0.4-2.6-1.3s-0.8-2-0.8-3.6C1423.5,4461,1423.7,4459.8,1424.2,4458.9z M1428.6,4460.7
			c-0.1-0.5-0.3-0.9-0.6-1.2s-0.7-0.5-1.2-0.5s-1,0.2-1.2,0.5s-0.5,0.7-0.6,1.2s-0.1,1.1-0.1,1.8c0,0.7,0,1.3,0.1,1.8
			s0.3,0.9,0.6,1.2c0.3,0.3,0.7,0.5,1.2,0.5s1-0.2,1.2-0.5c0.3-0.3,0.5-0.7,0.6-1.2s0.1-1.1,0.1-1.8
			C1428.8,4461.8,1428.7,4461.2,1428.6,4460.7z"/>
		<path class="st5" d="M1431.6,4459.2v-1.4h2.7v9.5h-1.5v-8.1H1431.6z"/>
		<path class="st5" d="M1438.8,4465.7c0.3,0.2,0.7,0.3,1.2,0.3c0.6,0,1.1-0.2,1.4-0.7s0.4-1.3,0.4-2.5c-0.2,0.3-0.5,0.5-0.9,0.7
			s-0.8,0.2-1.2,0.2c-0.6,0-1.1-0.1-1.5-0.3c-0.5-0.2-0.8-0.6-1.1-1s-0.4-1-0.4-1.7c0-1,0.3-1.7,0.8-2.3c0.6-0.6,1.3-0.9,2.3-0.9
			c1.2,0,2,0.4,2.5,1.2c0.5,0.8,0.7,2,0.7,3.6c0,1.1-0.1,2-0.3,2.7s-0.5,1.2-1,1.6c-0.5,0.4-1.1,0.5-1.9,0.5c-0.9,0-1.6-0.2-2.1-0.7
			c-0.5-0.5-0.8-1.1-0.8-1.8h1.4C1438.3,4465.2,1438.5,4465.5,1438.8,4465.7z M1441.1,4462c0.3-0.3,0.4-0.8,0.4-1.3
			c0-0.6-0.2-1.1-0.5-1.4c-0.3-0.3-0.7-0.5-1.3-0.5s-1,0.2-1.3,0.5c-0.3,0.3-0.5,0.8-0.5,1.3c0,0.5,0.2,1,0.5,1.3
			c0.3,0.3,0.8,0.5,1.4,0.5C1440.4,4462.5,1440.8,4462.4,1441.1,4462z"/>
	</g>
	<g class="st1">
		<path class="st6" d="M1511.9,4465.3c0.8-0.7,1.5-1.3,2-1.7c0.5-0.5,0.9-0.9,1.2-1.5c0.3-0.5,0.5-1,0.5-1.5c0-0.4-0.1-0.8-0.3-1
			c-0.2-0.3-0.5-0.4-1-0.4s-0.8,0.1-1,0.4c-0.2,0.3-0.4,0.7-0.4,1.2h-1.8c0-1,0.3-1.8,0.9-2.4s1.3-0.8,2.2-0.8c1,0,1.7,0.3,2.3,0.8
			c0.5,0.5,0.8,1.2,0.8,2.1c0,0.7-0.2,1.3-0.5,1.9c-0.4,0.6-0.8,1.2-1.2,1.6c-0.5,0.5-1.1,1-1.8,1.6h3.8v1.5h-6.4v-1.4
			L1511.9,4465.3z"/>
		<path class="st6" d="M1519.6,4458.9c0.5-0.8,1.4-1.3,2.7-1.3s2.2,0.4,2.7,1.3c0.5,0.8,0.8,2,0.8,3.5c0,1.5-0.3,2.7-0.8,3.5
			c-0.5,0.9-1.4,1.3-2.7,1.3s-2.2-0.4-2.7-1.3c-0.5-0.9-0.8-2-0.8-3.5C1518.8,4461,1519.1,4459.8,1519.6,4458.9z M1523.9,4460.8
			c-0.1-0.4-0.2-0.8-0.5-1.1s-0.6-0.4-1.1-0.4s-0.9,0.1-1.1,0.4s-0.4,0.6-0.5,1.1c-0.1,0.4-0.1,1-0.1,1.6c0,0.7,0,1.2,0.1,1.7
			s0.2,0.8,0.5,1.1c0.3,0.3,0.6,0.4,1.1,0.4s0.9-0.1,1.1-0.4c0.3-0.3,0.4-0.6,0.5-1.1c0.1-0.4,0.1-1,0.1-1.7
			C1524,4461.8,1524,4461.3,1523.9,4460.8z"/>
		<path class="st6" d="M1527.8,4465.3c0.8-0.7,1.5-1.3,2-1.7c0.5-0.5,0.9-0.9,1.2-1.5c0.3-0.5,0.5-1,0.5-1.5c0-0.4-0.1-0.8-0.3-1
			c-0.2-0.3-0.5-0.4-1-0.4c-0.4,0-0.8,0.1-1,0.4c-0.2,0.3-0.4,0.7-0.4,1.2h-1.8c0-1,0.3-1.8,0.9-2.4s1.3-0.8,2.2-0.8
			c1,0,1.7,0.3,2.3,0.8c0.5,0.5,0.8,1.2,0.8,2.1c0,0.7-0.2,1.3-0.5,1.9s-0.8,1.2-1.2,1.6s-1.1,1-1.8,1.6h3.8v1.5h-6.4v-1.4
			L1527.8,4465.3z"/>
		<path class="st6" d="M1535.5,4458.9c0.5-0.8,1.4-1.3,2.7-1.3c1.3,0,2.2,0.4,2.7,1.3c0.5,0.8,0.8,2,0.8,3.5c0,1.5-0.3,2.7-0.8,3.5
			c-0.5,0.9-1.4,1.3-2.7,1.3c-1.3,0-2.2-0.4-2.7-1.3c-0.5-0.9-0.8-2-0.8-3.5C1534.7,4461,1534.9,4459.8,1535.5,4458.9z
			 M1539.8,4460.8c-0.1-0.4-0.2-0.8-0.5-1.1s-0.6-0.4-1.1-0.4c-0.5,0-0.9,0.1-1.1,0.4s-0.4,0.6-0.5,1.1c-0.1,0.4-0.1,1-0.1,1.6
			c0,0.7,0,1.2,0.1,1.7s0.2,0.8,0.5,1.1c0.3,0.3,0.6,0.4,1.1,0.4c0.5,0,0.9-0.1,1.1-0.4c0.3-0.3,0.4-0.6,0.5-1.1s0.1-1,0.1-1.7
			C1539.9,4461.8,1539.8,4461.3,1539.8,4460.8z"/>
	</g>
	<g class="st1">
		<path class="st7" d="M1325.3,4244.9h-6v3.6c0.3-0.3,0.6-0.6,1.1-0.8c0.5-0.2,1-0.3,1.6-0.3c1,0,1.8,0.2,2.5,0.6
			c0.6,0.4,1.1,1,1.3,1.6c0.3,0.7,0.4,1.4,0.4,2.1c0,0.9-0.2,1.7-0.5,2.4c-0.3,0.7-0.9,1.2-1.5,1.6c-0.7,0.4-1.5,0.6-2.5,0.6
			c-1.3,0-2.4-0.3-3.2-1c-0.8-0.6-1.3-1.5-1.4-2.6h2c0.1,0.6,0.4,1,0.9,1.3s1,0.5,1.7,0.5c0.9,0,1.5-0.3,1.9-0.8
			c0.4-0.5,0.6-1.2,0.6-2.1c0-0.9-0.2-1.5-0.6-2c-0.4-0.5-1.1-0.7-1.9-0.7c-0.6,0-1.1,0.1-1.5,0.4c-0.4,0.3-0.7,0.7-0.9,1.2h-1.9
			v-7.6h7.9V4244.9z"/>
		<path class="st7" d="M1331.6,4254c0.4,0.3,0.9,0.5,1.6,0.5c0.9,0,1.5-0.3,1.9-1c0.4-0.7,0.6-1.8,0.6-3.4c-0.3,0.4-0.7,0.7-1.2,0.9
			c-0.5,0.2-1.1,0.3-1.7,0.3c-0.8,0-1.5-0.2-2.1-0.5c-0.6-0.3-1.1-0.8-1.5-1.4c-0.4-0.6-0.5-1.4-0.5-2.3c0-1.3,0.4-2.4,1.2-3.2
			c0.8-0.8,1.8-1.2,3.2-1.2c1.6,0,2.8,0.5,3.5,1.6c0.7,1.1,1,2.8,1,5c0,1.5-0.1,2.8-0.4,3.8s-0.7,1.7-1.3,2.2
			c-0.6,0.5-1.5,0.8-2.6,0.8c-1.3,0-2.3-0.3-3-1c-0.7-0.7-1.1-1.5-1.2-2.5h1.9C1331,4253.2,1331.2,4253.7,1331.6,4254z
			 M1334.8,4248.9c0.4-0.5,0.6-1,0.6-1.8c0-0.8-0.2-1.5-0.7-1.9c-0.4-0.5-1-0.7-1.8-0.7s-1.4,0.2-1.8,0.7c-0.4,0.5-0.7,1.1-0.7,1.9
			c0,0.7,0.2,1.3,0.6,1.8c0.4,0.5,1.1,0.7,1.9,0.7C1333.9,4249.6,1334.4,4249.4,1334.8,4248.9z"/>
		<path class="st7" d="M1339.9,4256c-0.3-0.3-0.4-0.6-0.4-0.9c0-0.4,0.1-0.7,0.4-0.9s0.6-0.4,0.9-0.4c0.4,0,0.7,0.1,0.9,0.4
			s0.4,0.6,0.4,0.9c0,0.4-0.1,0.7-0.4,0.9s-0.6,0.4-0.9,0.4C1340.5,4256.3,1340.1,4256.2,1339.9,4256z"/>
		<path class="st7" d="M1343.8,4245v-1.9h3.7v13.1h-2.1V4245H1343.8z"/>
	</g>
	<g class="st1">
		<path class="st7" d="M1412.3,4253.5v-1.5l6-8.7h2.5v8.4h1.7v1.8h-1.7v2.7h-2v-2.7H1412.3z M1418.9,4245.3l-4.2,6.4h4.2V4245.3z"/>
		<path class="st7" d="M1432.5,4244.7l-5,11.5h-2.1l5.1-11.3h-6.7v-1.7h8.7V4244.7z"/>
		<path class="st7" d="M1434.4,4256c-0.3-0.3-0.4-0.6-0.4-0.9c0-0.4,0.1-0.7,0.4-0.9s0.6-0.4,0.9-0.4c0.4,0,0.7,0.1,0.9,0.4
			s0.4,0.6,0.4,0.9c0,0.4-0.1,0.7-0.4,0.9s-0.6,0.4-0.9,0.4C1435,4256.3,1434.6,4256.2,1434.4,4256z"/>
		<path class="st7" d="M1446.9,4244.7l-5,11.5h-2.1l5.1-11.3h-6.7v-1.7h8.7V4244.7z"/>
	</g>
	<g class="st1">
		<path class="st4" d="M1519.2,4244.9h-6v3.6c0.3-0.3,0.6-0.6,1.1-0.8c0.5-0.2,1-0.3,1.6-0.3c1,0,1.8,0.2,2.5,0.6
			c0.6,0.4,1.1,1,1.4,1.6c0.3,0.7,0.4,1.4,0.4,2.1c0,0.9-0.2,1.7-0.5,2.4c-0.3,0.7-0.9,1.2-1.5,1.6c-0.7,0.4-1.5,0.6-2.5,0.6
			c-1.3,0-2.4-0.3-3.1-1c-0.8-0.6-1.3-1.5-1.4-2.6h2c0.1,0.6,0.4,1,0.9,1.3s1,0.5,1.7,0.5c0.9,0,1.5-0.3,1.9-0.8
			c0.4-0.5,0.6-1.2,0.6-2.1c0-0.9-0.2-1.5-0.6-2c-0.4-0.5-1.1-0.7-1.9-0.7c-0.6,0-1.1,0.1-1.5,0.4c-0.4,0.3-0.7,0.7-0.9,1.2h-1.9
			v-7.6h7.9V4244.9z"/>
		<path class="st4" d="M1522,4245v-1.9h3.7v13.1h-2.1V4245H1522z"/>
		<path class="st4" d="M1528.7,4256c-0.3-0.3-0.4-0.6-0.4-0.9c0-0.4,0.1-0.7,0.4-0.9s0.6-0.4,0.9-0.4c0.4,0,0.7,0.1,0.9,0.4
			s0.4,0.6,0.4,0.9c0,0.4-0.1,0.7-0.4,0.9s-0.6,0.4-0.9,0.4C1529.3,4256.3,1528.9,4256.2,1528.7,4256z"/>
		<path class="st4" d="M1539.2,4244.9c-0.3-0.3-0.8-0.4-1.5-0.4c-0.9,0-1.7,0.4-2.1,1.1c-0.5,0.7-0.7,1.9-0.7,3.6
			c0.3-0.5,0.8-0.9,1.4-1.2c0.6-0.3,1.2-0.4,1.9-0.4c0.8,0,1.5,0.2,2.1,0.5c0.6,0.3,1.1,0.8,1.4,1.5c0.3,0.6,0.5,1.4,0.5,2.3
			c0,0.8-0.2,1.6-0.5,2.2s-0.8,1.2-1.5,1.6c-0.6,0.4-1.4,0.6-2.3,0.6c-1.2,0-2.2-0.3-2.9-0.8c-0.7-0.5-1.2-1.3-1.5-2.3
			c-0.3-1-0.4-2.2-0.4-3.7c0-4.4,1.5-6.6,4.6-6.6c1.2,0,2.1,0.3,2.8,1c0.7,0.6,1.1,1.4,1.2,2.4h-1.9
			C1539.8,4245.6,1539.6,4245.2,1539.2,4244.9z M1535.9,4249.9c-0.5,0.4-0.8,1.1-0.8,1.9s0.2,1.5,0.7,2c0.5,0.5,1.1,0.7,2,0.7
			c0.8,0,1.4-0.2,1.8-0.7c0.4-0.5,0.7-1.1,0.7-1.9c0-0.8-0.2-1.5-0.6-2c-0.4-0.5-1.1-0.7-1.9-0.7
			C1537,4249.2,1536.4,4249.5,1535.9,4249.9z"/>
	</g>
	<g class="st1">
		<path class="st2" d="M1413.2,4167.4c-1.7,0.3-3.2,0.4-5.8,0.4h-1v-5.8h5.6v0.9h-4.4v3.9c2.5,0,3.9-0.1,5.5-0.4L1413.2,4167.4z
			 M1408.9,4172.3h7.2v0.9h-8.4v-4.1h1.1V4172.3z M1417.4,4164.7v1h-1.9v4.4h-1.1v-9.1h1.1v3.7H1417.4z"/>
		<path class="st2" d="M1427.1,4168.2c-1.2,0.2-2.4,0.4-3.6,0.4v4.5h-1.1v-4.5c-1.2,0.1-2.4,0.1-3.5,0.1l-0.2-1c2.3,0,5.5,0,8.3-0.4
			L1427.1,4168.2z M1419.6,4164.2c0-1.5,1.3-2.6,3.2-2.6c1.9,0,3.2,1,3.2,2.6c0,1.5-1.3,2.6-3.2,2.6
			C1421,4166.7,1419.6,4165.7,1419.6,4164.2z M1420.7,4164.2c0,1,0.9,1.6,2.1,1.6c1.2,0,2.1-0.7,2.1-1.6s-0.9-1.6-2.1-1.6
			C1421.6,4162.5,1420.7,4163.2,1420.7,4164.2z M1429,4161v12.6h-1.1V4161H1429z"/>
		<path class="st2" d="M1435,4166.1c0-0.6,0.4-1,0.9-1c0.5,0,0.9,0.4,0.9,1c0,0.6-0.4,1-0.9,1C1435.4,4167,1435,4166.6,1435,4166.1z
			 M1435,4171.7c0-0.6,0.4-1,0.9-1c0.5,0,0.9,0.4,0.9,1s-0.4,1-0.9,1C1435.4,4172.7,1435,4172.3,1435,4171.7z"/>
		<path class="st2" d="M1441.6,4165.3c0-2.1,0.9-3.2,2.3-3.2c1.4,0,2.3,1.2,2.3,3.2c0,2.1-0.9,3.3-2.3,3.3
			C1442.5,4168.5,1441.6,4167.3,1441.6,4165.3z M1445.3,4165.3c0-1.6-0.6-2.4-1.4-2.4c-0.8,0-1.4,0.8-1.4,2.4s0.6,2.5,1.4,2.5
			C1444.7,4167.7,1445.3,4166.9,1445.3,4165.3z M1449.9,4162h0.9l-5.7,10.6h-0.9L1449.9,4162z M1448.7,4169.4c0-2.1,0.9-3.2,2.3-3.2
			c1.4,0,2.3,1.2,2.3,3.2c0,2.1-0.9,3.2-2.3,3.2C1449.6,4172.7,1448.7,4171.5,1448.7,4169.4z M1452.4,4169.4c0-1.6-0.6-2.4-1.4-2.4
			c-0.8,0-1.4,0.8-1.4,2.4c0,1.6,0.6,2.5,1.4,2.5C1451.8,4171.9,1452.4,4171.1,1452.4,4169.4z"/>
	</g>
	<g class="st1">
		<path class="st4" d="M916.5,4140.9c-0.1-0.7-0.2-1.3-0.3-1.9h1.8c-0.2-2.3-0.3-4.5-0.4-6.8l2.3-0.2c0.1,2.3,0.2,4.6,0.3,7l1.1-0.1
			l0.3-6.9c0.7,0.1,1.5,0.2,2.2,0.2c-0.2,2.2-0.3,4.4-0.5,6.5c0.5,0,1-0.1,1.5-0.2c0.1,0.6,0.1,1.2,0.2,1.8
			C922.6,4140.7,918.9,4140.9,916.5,4140.9z M916.6,4130.9v-1.8h8.2v1.8H916.6z M926.3,4144v-6.4h-1.8v-1.9h1.8v-2.1h-1.8v-1.9h1.8
			v-4.4h2.2v16.7H926.3z M929.5,4144.8V4127h2.2v17.8H929.5z"/>
		<path class="st4" d="M935.2,4141.6l-1.4-1.8c3.9-1.8,6.6-5.5,6.9-9h-5.8v-1.9h8.3C943,4134.2,940.6,4138.6,935.2,4141.6z
			 M946.3,4144.8V4127h2.3v17.8H946.3z"/>
		<path class="st4" d="M953.2,4144.7v-4.6h9.6v-1h-9.7v-1.8h4.9v-1.3h-6.8v-1.8h16.1v1.8h-6.9v1.3h4.8v4.5h-9.6v1h10.2v1.9H953.2z
			 M953.3,4133v-5.7h11.8v5.7H953.3z M962.8,4129.1h-7.1v2h7.1V4129.1z"/>
	</g>
	<g class="st1">
		<path class="st4" d="M973.1,4140.2v-11.4h2.3v4.1h2.5v-4.1h2.3v11.4H973.1z M977.9,4134.7h-2.5v3.6h2.5V4134.7z M985.6,4144.8v-9
			h-1.4v8.2H982v-16.7h2.2v6.7h1.4v-7h2.2v17.8H985.6z"/>
		<path class="st4" d="M991.8,4144.7v-4.2h9.9v-0.8h-9.9v-1.7h5v-0.9H990v-1.7h16.1v1.7h-6.9v0.9h4.9v4.1h-9.9v0.8h10.6v1.7H991.8z
			 M1004.5,4134.9c-2.6-0.2-5.4-1.1-6.5-2.5c-1,1.4-3.6,2.4-6.5,2.5l-0.9-1.8c2.7,0,5.1-0.7,5.9-1.8h-5v-1.8h12.9v1.8h-4.9
			c0.9,1.1,3.3,1.8,5.8,1.8L1004.5,4134.9z M995.1,4127.1h5.9v1.8h-5.9V4127.1z"/>
		<path class="st4" d="M1010.3,4137h-2.4v-5.5h5.6v-1.7h-5.6v-1.8h8v5.3h-5.6v1.9c2.2,0,5.6-0.2,6.9-0.5l0.3,1.8
			C1016,4136.8,1012.7,4137,1010.3,4137z M1015.3,4144.8c-3.9,0-6.1-1.3-6.1-3.4c0-2.1,2.2-3.4,6.1-3.4c3.9,0,6.1,1.3,6.1,3.4
			C1021.5,4143.5,1019.2,4144.8,1015.3,4144.8z M1011.6,4141.4c0,0.9,1.4,1.6,3.7,1.6c2.4,0,3.7-0.6,3.7-1.6c0-0.9-1.3-1.6-3.7-1.6
			C1013,4139.8,1011.6,4140.4,1011.6,4141.4z M1023.5,4135.2h-2.3v2.5h-2.4V4127h2.4v2.5h2.3v1.9h-2.3v2h2.3V4135.2z"/>
	</g>
	<g class="st1">
		<path class="st4" d="M1349.6,4140.9c-0.1-0.7-0.2-1.3-0.3-1.9h1.8c-0.2-2.3-0.3-4.5-0.4-6.8l2.3-0.2c0.1,2.3,0.2,4.6,0.3,7
			l1.1-0.1l0.3-6.9c0.7,0.1,1.5,0.2,2.2,0.2c-0.2,2.2-0.3,4.4-0.5,6.5c0.5,0,1-0.1,1.5-0.2c0.1,0.6,0.1,1.2,0.2,1.8
			C1355.7,4140.7,1352.1,4140.9,1349.6,4140.9z M1349.7,4130.9v-1.8h8.2v1.8H1349.7z M1359.4,4144v-6.4h-1.8v-1.9h1.8v-2.1h-1.8
			v-1.9h1.8v-4.4h2.2v16.7H1359.4z M1362.6,4144.8V4127h2.2v17.8H1362.6z"/>
		<path class="st4" d="M1368.3,4141.6l-1.4-1.8c3.9-1.8,6.6-5.5,6.9-9h-5.8v-1.9h8.3C1376.1,4134.2,1373.7,4138.6,1368.3,4141.6z
			 M1379.4,4144.8V4127h2.3v17.8H1379.4z"/>
		<path class="st4" d="M1386.4,4144.7v-4.6h9.6v-1h-9.7v-1.8h4.9v-1.3h-6.8v-1.8h16.1v1.8h-6.9v1.3h4.8v4.5h-9.6v1h10.2v1.9H1386.4z
			 M1386.4,4133v-5.7h11.8v5.7H1386.4z M1395.9,4129.1h-7.1v2h7.1V4129.1z"/>
	</g>
	<g class="st1">
		<path class="st4" d="M1413.3,4140.7c-1.2-0.7-2.7-2.6-3.1-4.1c-0.4,1.6-1.9,3.7-3.4,4.5l-1.4-1.6c2.5-1.7,3.7-4.2,3.7-7.8v-0.8h-3
			v-1.9h8v1.9h-2.8v0.7c0,3.5,1.1,6,3.3,7.3L1413.3,4140.7z M1418.8,4144.8v-8.9h-1.4v8.1h-2.2v-16.7h2.2v6.7h1.4v-7h2.2v17.8
			H1418.8z"/>
		<path class="st4" d="M1423.1,4138.2l-0.3-1.8c1.5,0,3,0,4.6,0v-0.6c-1.9-0.2-3.1-1-3.1-2.1c0-1.4,1.6-2.3,4.2-2.3
			c2.6,0,4.2,0.9,4.2,2.3c0,1.1-1.1,1.9-3,2.1v0.5c1.5-0.1,2.9-0.2,4.2-0.4l0.1,1.6C1431,4138,1425.6,4138.2,1423.1,4138.2z
			 M1423.5,4131v-1.6h10v1.6H1423.5z M1425.3,4144.9v-3.8h9.6v-0.8h-9.6v-1.6h12v3.8h-9.6v0.8h10.2v1.5H1425.3z M1426.1,4127.1h5
			v1.6h-5V4127.1z M1428.6,4132.9c-1.2,0-1.9,0.3-1.9,0.8c0,0.4,0.7,0.8,1.9,0.8c1.3,0,2-0.3,2-0.8
			C1430.5,4133.2,1429.8,4132.9,1428.6,4132.9z M1437.3,4134v3.9h-2.3v-11h2.3v5.1h2.2v1.9H1437.3z"/>
		<path class="st4" d="M1448.5,4127.4c4,0,6.2,1.5,6.2,3.4c0,1.1-0.7,2-2,2.7v2.1h3.8v1.9h-16.1v-1.9h3.8v-2.2
			c-1.3-0.6-1.9-1.5-1.9-2.6C1442.3,4128.8,1444.5,4127.4,1448.5,4127.4z M1448.5,4144.8c-3.9,0-6.2-1.3-6.2-3.3
			c0-2,2.3-3.3,6.2-3.3c4,0,6.2,1.3,6.2,3.3C1454.7,4143.5,1452.4,4144.8,1448.5,4144.8z M1448.5,4132.4c2.4,0,3.8-0.7,3.8-1.6
			c0-1-1.4-1.7-3.8-1.7c-2.4,0-3.8,0.7-3.8,1.7C1444.7,4131.8,1446.1,4132.4,1448.5,4132.4z M1448.5,4140c-2.3,0-3.8,0.5-3.8,1.5
			c0,0.9,1.5,1.5,3.8,1.5c2.3,0,3.8-0.5,3.8-1.5C1452.3,4140.6,1450.8,4140,1448.5,4140z M1446.5,4134.1v1.5h3.8v-1.5
			c-0.6,0.1-1.2,0.1-1.9,0.1C1447.8,4134.2,1447.1,4134.2,1446.5,4134.1z"/>
	</g>
	<g class="st1">
		<path class="st4" d="M1462.9,4140.4v-12h2.3v4.3h3.7v-4.3h2.4v12H1462.9z M1468.9,4134.5h-3.7v4h3.7V4134.5z M1474.4,4144.8V4127
			h2.3v17.8H1474.4z"/>
		<path class="st4" d="M1481.3,4144.7v-4.4h9.6v-0.9h-9.7v-1.9h2.1v-1.4h-4v-1.8h16.1v1.8h-4.1v1.4h2v4.4h-9.6v0.9h10.2v1.9H1481.3z
			 M1487.4,4127.3c4,0,6.3,1.3,6.3,3.2c0,1.9-2.3,3.2-6.3,3.2c-4,0-6.3-1.3-6.3-3.2C1481.1,4128.5,1483.3,4127.3,1487.4,4127.3z
			 M1487.4,4131.9c2.5,0,3.9-0.6,3.9-1.4c0-0.8-1.4-1.4-3.9-1.4s-3.9,0.6-3.9,1.4C1483.5,4131.3,1484.9,4131.9,1487.4,4131.9z
			 M1485.7,4137.5h3.3v-1.4h-3.3V4137.5z"/>
	</g>
	<g class="st1">
		<path class="st4" d="M1504.1,4129.3l1.1,2l-2.5,0.9l2.5,0.8l-1.2,2.1l-2-1.8l0.5,2.6h-2.3l0.5-2.6l-2,1.8l-1.2-2.2l2.5-0.9
			l-2.4-0.8l1.1-2.1l2.1,1.7l-0.5-2.6h2.4l-0.5,2.6L1504.1,4129.3z"/>
	</g>
	<g class="st1">
		<path class="st2" d="M1303.5,4513l0.9-1.5l-1.5-0.6l0.3-0.7l1.6,0.4l0.1-1.7h0.8l0.1,1.7l1.6-0.4l0.2,0.7l-1.5,0.6l0.9,1.5
			l-0.6,0.4l-1.1-1.3l-1.1,1.3L1303.5,4513z"/>
		<path class="st2" d="M1323.8,4514v0.9h-5.1v3h-1.1v-3h-5.2v-0.9h8.5c0.3-1.6,0.3-2.8,0.3-3.9v-0.1h-7.4v-0.9h8.5v1
			c0,1.1,0,2.3-0.3,3.9H1323.8z M1315,4519.8h7.6v0.9h-8.8v-3.9h1.1V4519.8z"/>
		<path class="st2" d="M1332,4515.7c-1.4-0.5-2.5-1.6-3.1-2.9c-0.5,1.5-1.6,2.6-3.1,3.2l-0.6-0.9c1.9-0.7,3.1-2.4,3.1-4.3v-1.6h1.1
			v1.6c0,1.7,1.2,3.3,3.1,4L1332,4515.7z M1328.4,4519.8h7.2v0.9h-8.3v-3.9h1.1V4519.8z M1336.9,4512.3v1h-1.9v4.5h-1.1v-9.3h1.1
			v3.9H1336.9z"/>
		<path class="st2" d="M1338.2,4521.9c0.9-0.4,1.4-1.1,1.4-1.9c-0.1,0-0.1,0-0.2,0c-0.5,0-0.9-0.3-0.9-0.9c0-0.5,0.4-0.9,1-0.9
			c0.7,0,1.1,0.6,1.1,1.5c0,1.3-0.8,2.4-2,2.9L1338.2,4521.9z"/>
		<path class="st2" d="M1356.6,4518.5v0.9h-11.4v-0.9h5.1v-2.9h-4v-0.9h1.9v-4.1h-1.9v-0.9h9.3v0.9h-1.9v4.1h1.9v0.9h-4v2.9H1356.6z
			 M1349.3,4514.7h3.1v-4.1h-3.1V4514.7z"/>
		<path class="st2" d="M1365.5,4510.8h-7.4v-0.9h3.1v-1.5h1.1v1.5h3.1V4510.8z M1361.8,4515.9c-1.8,0-3-0.9-3-2.2
			c0-1.3,1.2-2.2,3-2.2s3,0.9,3,2.2C1364.8,4515,1363.6,4515.9,1361.8,4515.9z M1368,4518.9c0,1.4-1.6,2.2-4.1,2.2
			c-2.5,0-4.1-0.8-4.1-2.2c0-1.4,1.6-2.2,4.1-2.2C1366.4,4516.7,1368,4517.5,1368,4518.9z M1361.8,4515c1.1,0,1.9-0.5,1.9-1.4
			c0-0.8-0.8-1.3-1.9-1.3c-1.1,0-1.9,0.5-1.9,1.3C1359.9,4514.5,1360.7,4515,1361.8,4515z M1366.9,4518.9c0-0.8-1.1-1.3-3-1.3
			s-3,0.5-3,1.3s1.1,1.3,3,1.3S1366.9,4519.7,1366.9,4518.9z M1369.7,4512v1h-1.9v3.6h-1.1v-8.1h1.1v3.5H1369.7z"/>
		<path class="st2" d="M1371,4521.9c0.9-0.4,1.4-1.1,1.4-1.9c-0.1,0-0.1,0-0.2,0c-0.5,0-0.9-0.3-0.9-0.9c0-0.5,0.4-0.9,1-0.9
			c0.7,0,1.1,0.6,1.1,1.5c0,1.3-0.8,2.4-2,2.9L1371,4521.9z"/>
		<path class="st2" d="M1385.9,4515c-2.6,0.4-5.6,0.5-7.8,0.5l-0.1-1c0.8,0,1.7,0,2.7,0v-2.5h1.1v2.5c1.4-0.1,2.8-0.1,4.1-0.3
			L1385.9,4515z M1383.5,4513.2c0.3-1.3,0.3-2.3,0.3-3.1h-5.1v-0.9h6.2v0.7c0,0.8,0,1.9-0.3,3.4L1383.5,4513.2z M1387.9,4518.7
			c0,1.5-1.6,2.3-4.2,2.3s-4.2-0.8-4.2-2.3c0-1.4,1.6-2.3,4.2-2.3S1387.9,4517.3,1387.9,4518.7z M1386.7,4518.7c0-0.9-1.1-1.4-3-1.4
			c-1.9,0-3,0.5-3,1.4c0,0.9,1.1,1.4,3,1.4C1385.6,4520.1,1386.7,4519.6,1386.7,4518.7z M1389.6,4511.9v1h-1.8v3.4h-1.1v-7.8h1.1
			v3.4H1389.6z"/>
		<path class="st2" d="M1394.4,4515.1c-1.9,0-3.3-1.2-3.3-3c0-1.7,1.4-2.9,3.3-2.9c1.9,0,3.3,1.2,3.3,2.9
			C1397.7,4513.9,1396.3,4515.1,1394.4,4515.1z M1394.4,4514.2c1.2,0,2.2-0.8,2.2-2s-0.9-2-2.2-2c-1.3,0-2.2,0.8-2.2,2
			S1393.1,4514.2,1394.4,4514.2z M1400.8,4518.7c0,1.5-1.6,2.4-4.1,2.4c-2.5,0-4.1-0.9-4.1-2.4c0-1.5,1.6-2.4,4.1-2.4
			C1399.2,4516.3,1400.8,4517.2,1400.8,4518.7z M1399.6,4518.7c0-0.9-1.1-1.4-3-1.4c-1.9,0-3,0.5-3,1.4c0,0.9,1.1,1.4,3,1.4
			C1398.5,4520.1,1399.6,4519.6,1399.6,4518.7z M1400.6,4511.3v1.7h1.8v1h-1.8v1.9h-1.1v-7.4h1.1v1.9h1.8v0.9H1400.6z"/>
		<path class="st2" d="M1403.8,4521.9c0.9-0.4,1.4-1.1,1.4-1.9c-0.1,0-0.1,0-0.2,0c-0.5,0-0.9-0.3-0.9-0.9c0-0.5,0.4-0.9,1-0.9
			c0.7,0,1.1,0.6,1.1,1.5c0,1.3-0.8,2.4-2,2.9L1403.8,4521.9z"/>
		<path class="st2" d="M1417.6,4512.2c0,1.8-1.4,3-3.3,3c-1.9,0-3.3-1.2-3.3-3c0-1.8,1.4-3,3.3-3
			C1416.2,4509.2,1417.6,4510.4,1417.6,4512.2z M1412.2,4512.2c0,1.2,0.9,2,2.2,2c1.2,0,2.2-0.8,2.2-2c0-1.2-0.9-2-2.2-2
			C1413.1,4510.2,1412.2,4511,1412.2,4512.2z M1421.1,4516.6v4.4h-1.1v-3.5h-7.2v-0.9H1421.1z M1421.1,4508.5v7.5h-1.1v-7.5H1421.1z
			"/>
		<path class="st2" d="M1430.4,4515.7c-1.4-0.5-2.5-1.6-3.1-2.9c-0.5,1.5-1.6,2.6-3.1,3.2l-0.6-0.9c1.9-0.7,3.1-2.4,3.1-4.3v-1.6
			h1.1v1.6c0,1.7,1.2,3.3,3.1,4L1430.4,4515.7z M1426.8,4519.8h7.2v0.9h-8.3v-3.9h1.1V4519.8z M1435.3,4512.3v1h-1.9v4.5h-1.1v-9.3
			h1.1v3.9H1435.3z"/>
		<path class="st2" d="M1447.9,4514.3v0.9h-11.3v-0.9h4.6v-2.4h1.1v2.4H1447.9z M1446.6,4518.7c0,1.4-1.7,2.3-4.4,2.3
			c-2.7,0-4.4-0.9-4.4-2.3c0-1.5,1.7-2.3,4.4-2.3C1444.8,4516.4,1446.6,4517.3,1446.6,4518.7z M1445.3,4510h-7.4v-0.9h8.6v1.1
			c0,1,0,2-0.3,3.3l-1.1-0.1c0.3-1.3,0.3-2.2,0.3-3.2V4510z M1445.4,4518.7c0-0.9-1.3-1.4-3.2-1.4c-2,0-3.2,0.5-3.2,1.4
			c0,0.9,1.3,1.4,3.2,1.4C1444.1,4520.1,1445.4,4519.6,1445.4,4518.7z"/>
		<path class="st2" d="M1456.2,4515.4c-1.4-0.5-2.5-1.5-3-2.7c-0.5,1.4-1.7,2.5-3.2,3.1l-0.6-0.9c1.9-0.7,3.2-2.3,3.2-4.1v-0.5h-2.8
			v-0.9h6.7v0.9h-2.8v0.5c0,1.6,1.2,3.1,3,3.7L1456.2,4515.4z M1459.3,4518.7c0,1.5-1.6,2.3-4.1,2.3c-2.6,0-4.1-0.9-4.1-2.3
			c0-1.5,1.6-2.3,4.1-2.3C1457.7,4516.4,1459.3,4517.2,1459.3,4518.7z M1458.2,4518.7c0-0.9-1.1-1.4-3-1.4c-1.9,0-3,0.5-3,1.4
			c0,0.9,1.1,1.4,3,1.4C1457,4520.1,1458.2,4519.6,1458.2,4518.7z M1461,4511.7v1h-1.9v3.4h-1.1v-7.6h1.1v3.2H1461z"/>
		<path class="st2" d="M1467,4517.1c1.8,0,2.9-0.1,4.2-0.4l0.1,0.9c-1.4,0.3-2.6,0.4-4.7,0.4h-0.8v-8h4.7v0.9h-3.6V4517.1z
			 M1472.5,4508.8h1.1v11.6h-1.1v-6.2h-2.7v-1h2.7V4508.8z M1476.1,4508.5v12.6h-1.1v-12.6H1476.1z"/>
		<path class="st2" d="M1485.2,4513.8c0,2.7-1.3,4.4-3.2,4.4c-1.9,0-3.2-1.7-3.2-4.4c0-2.7,1.3-4.4,3.2-4.4
			C1483.8,4509.4,1485.2,4511.1,1485.2,4513.8z M1479.9,4513.8c0,2,0.9,3.4,2.1,3.4c1.2,0,2.1-1.3,2.1-3.4c0-2-0.9-3.3-2.1-3.3
			C1480.7,4510.5,1479.9,4511.8,1479.9,4513.8z M1488.6,4508.5v12.6h-1.1v-12.6H1488.6z"/>
		<path class="st2" d="M1492.9,4517.1c2.3,0,3.7-0.1,5.4-0.4l0.1,0.9c-1.8,0.3-3.3,0.4-5.7,0.4h-1v-8.4h5.8v1h-4.7v2.6h4.1v0.9h-4.1
			V4517.1z M1501.5,4508.5v12.6h-1.1v-6.9h-2.6v-1h2.6v-4.7H1501.5z"/>
		<path class="st2" d="M1518.6,4518.5v0.9h-11.4v-0.9h5.1v-2.9h-4v-0.9h1.9v-4.1h-1.9v-0.9h9.3v0.9h-1.9v4.1h1.9v0.9h-4v2.9H1518.6z
			 M1511.3,4514.7h3.1v-4.1h-3.1V4514.7z"/>
		<path class="st2" d="M1527.5,4510.7h-7.4v-0.9h3.1v-1.4h1.1v1.4h3.1V4510.7z M1523.8,4515.8c-1.8,0-3-0.9-3-2.2
			c0-1.4,1.2-2.2,3-2.2s3,0.9,3,2.2C1526.8,4515,1525.6,4515.8,1523.8,4515.8z M1523.8,4515c1.1,0,1.9-0.5,1.9-1.4s-0.8-1.4-1.9-1.4
			s-1.9,0.5-1.9,1.4S1522.7,4515,1523.8,4515z M1522,4516.8h7.9v4.1h-7.9V4516.8z M1523.1,4519.9h5.6v-2.3h-5.6V4519.9z
			 M1531.7,4512.8h-1.9v3.3h-1.1v-7.6h1.1v3.3h1.9V4512.8z"/>
	</g>
</g>
</svg>
