<?xml version="1.0" encoding="utf-8"?>
<!-- Generator: Adobe Illustrator 25.1.0, SVG Export Plug-In . SVG Version: 6.00 Build 0)  -->
<svg version="1.1" id="레이어_1" xmlns="http://www.w3.org/2000/svg" xmlns:xlink="http://www.w3.org/1999/xlink" x="0px"
	 y="0px" viewBox="0 0 920.5 572.3" style="enable-background:new 0 0 920.5 572.3;" xml:space="preserve">
<style type="text/css">
	.st0{fill:#3AA25C;}
	.st1{fill:#FFFFFF;}
	.st2{enable-background:new    ;}
	.st3{fill:none;stroke:#3AA25C;stroke-width:2;stroke-linecap:round;stroke-miterlimit:10;}
	.st4{fill:none;stroke:#3AA25C;stroke-width:2;stroke-linejoin:round;stroke-miterlimit:10;}
	.st5{fill:none;stroke:#3AA25C;stroke-width:2;stroke-linecap:round;stroke-linejoin:round;stroke-miterlimit:10;}
	.st6{fill:none;stroke:#61C185;stroke-width:0.75;stroke-miterlimit:10;}
	.st7{fill:#555555;}
</style>
<rect id="사각형_281" x="80.2" y="0" class="st0" width="840.1" height="106.2"/>
<path id="패스_1537" class="st1" d="M80.8,372h839.7V116.2H80.8V372z"/>
<g class="st2">
	<path class="st1" d="M443.4,52.4V54h-19.5v-1.6h14.6c0.5-2.4,0.5-4.1,0.5-5.5h-12.6v-1.6h14.5v1.4c0,1.5,0,3.3-0.5,5.7
		C440.4,52.4,443.4,52.4,443.4,52.4z M428.2,64.1h13.3v1.6h-15.2V60H439v-2.4h-12.8V56H441v5.4h-12.8V64.1z"/>
	<path class="st1" d="M465.5,61.6v1.6h-19.6v-1.6h8.8v-4.1h-6.3v-6.6h12.8v-3.4h-12.8v-1.6h14.7v6.6h-12.7V56h13.2v1.6h-6.9v4.1
		L465.5,61.6L465.5,61.6z"/>
	<path class="st1" d="M478.8,54.7h-9.7v-9.3h1.9v3.1h5.8v-3.1h1.9v3.8h5v-4.8h2v11.2h-2v-4.8h-5v3.9H478.8z M476.9,49.9H471v3.2h5.8
		v-3.2H476.9z M486.6,64v1.6H472v-5.3h11.9v-2.1H472v-1.5h13.9v5.1H474V64H486.6z"/>
	<path class="st1" d="M509.1,57.8c-4.6,0.8-9.7,0.9-13.5,0.9l-0.2-1.6c1.7,0,3.7,0,5.7-0.1v-1.6c-2.5-0.2-4.1-1.4-4.1-3.3
		c0-2,2-3.3,5-3.3s5,1.2,5,3.3c0,1.8-1.6,3-4,3.3V57c2-0.1,4-0.3,5.8-0.6L509.1,57.8z M508.3,47.9h-12.4v-1.5h5.2v-2.2h2v2.2h5.2
		L508.3,47.9L508.3,47.9z M500.5,63.8h12.4v1.6h-14.4v-5.3h2L500.5,63.8L500.5,63.8z M502.1,54c1.9,0,3.1-0.7,3.1-1.9
		s-1.2-1.9-3.1-1.9s-3.2,0.7-3.2,1.9S500.2,54,502.1,54z M515.3,51.9v1.6h-3.2v7.7h-2V44.3h2v7.5h3.2V51.9z"/>
	<path class="st1" d="M527.9,49.9c-1.4,3.5-4.7,6-9.3,7.3l-0.8-1.6c5.1-1.5,8.3-4.4,8.7-8.1H519V46h9.7c0,0.8-0.1,1.6-0.2,2.3h4.9
		v-3.9h2v12.9h-2v-2.8h-5.6v-1.6h5.6V50L527.9,49.9L527.9,49.9z M535.4,61.6c0,2.6-2.8,4.2-7.1,4.2s-7.1-1.6-7.1-4.2
		c0-2.6,2.8-4.2,7.1-4.2C532.6,57.5,535.4,59,535.4,61.6z M533.5,61.6c0-1.6-2-2.6-5.2-2.6s-5.2,1-5.2,2.6s2,2.6,5.2,2.6
		C531.4,64.2,533.5,63.3,533.5,61.6z"/>
	<path class="st1" d="M550,49.9c-1.4,3.5-4.7,6-9.3,7.3l-0.8-1.6c5.1-1.5,8.3-4.4,8.7-8.1H541V46h9.7c0,0.8-0.1,1.6-0.2,2.3h4.9
		v-3.9h2v12.9h-2v-2.8h-5.6v-1.6h5.6V50L550,49.9L550,49.9z M557.5,61.6c0,2.6-2.8,4.2-7.1,4.2s-7.1-1.6-7.1-4.2
		c0-2.6,2.8-4.2,7.1-4.2C554.7,57.5,557.5,59,557.5,61.6z M555.5,61.6c0-1.6-2-2.6-5.2-2.6s-5.2,1-5.2,2.6s2,2.6,5.2,2.6
		S555.5,63.3,555.5,61.6z"/>
	<path class="st1" d="M571.9,54c-1,1.2-2.5,1.8-4.3,1.8c-3.2,0-5.5-2.1-5.5-5.1s2.4-5.1,5.5-5.1c1.8,0,3.4,0.7,4.3,1.8h5.5v-3.1h2
		V57h-2v-3H571.9z M567.6,54.2c2.1,0,3.6-1.4,3.6-3.5c0-2-1.5-3.4-3.6-3.4s-3.7,1.4-3.7,3.4C563.9,52.8,565.5,54.2,567.6,54.2z
		 M579.5,61.7c0,2.6-2.8,4.1-7.2,4.1s-7.2-1.5-7.2-4.1s2.7-4.1,7.2-4.1C576.8,57.6,579.5,59.1,579.5,61.7z M577.6,61.7
		c0-1.6-2-2.6-5.3-2.6c-3.2,0-5.2,1-5.2,2.6s2,2.6,5.2,2.6C575.6,64.3,577.6,63.3,577.6,61.7z M572.9,49.1c0.2,0.5,0.3,1.1,0.3,1.7
		c0,0.6-0.1,1.2-0.3,1.7h4.6v-3.4H572.9z"/>
</g>
<g id="그룹_4020" transform="translate(1457 1346.738)">
	<g id="그룹_4007" transform="translate(0 69.152)">
		<path id="패스_1548" class="st3" d="M-713.5-1180.4h44.3 M-673.4-1171.9l-0.7-1.4l-12.5-15.6 M-684.6-1172l-0.7-1.4l-12.5-15.6
			 M-695.7-1172l-0.7-1.4l-12.5-15.6 M-663-1173.4l-12.5-15.6h-43.8v1.5l11.3,15.5h45.1L-663-1173.4L-663-1173.4z"/>
	</g>
	<g id="그룹_4008" transform="translate(0.001)">
		<path id="패스_1549" class="st4" d="M-689.4-1158.3c0,1.5-1.2,2.8-2.8,2.8s-2.8-1.2-2.8-2.8c0-1.5,1.2-2.8,2.8-2.8
			C-690.7-1161-689.4-1159.8-689.4-1158.3L-689.4-1158.3z M-691.8-1161.5v-25.2c0-1.2,1-2.2,2.2-2.2l0,0c1.1,0,2,0.8,2.2,1.8
			l3.7,20.3l-6.4,7.2 M-694.8-1157.3l-21.3,12.4c-1,0.6-2.4,0.2-3-0.8c-0.5-0.9-0.3-2.1,0.5-2.8l15.7-13.3l7.1,2.1 M-689.4-1157.5
			l21.7,12.7c1,0.6,1.4,1.9,0.8,3c-0.5,0.9-1.6,1.3-2.6,1l-19.4-7 M-695-1158.3v34.7 M-689.4-1156.2v32.7 M-655.4-1132.6
			c0,1.5-1.2,2.8-2.8,2.8c-1.5,0-2.8-1.2-2.8-2.8c0-1.5,1.2-2.8,2.8-2.8C-656.6-1135.3-655.4-1134.1-655.4-1132.6L-655.4-1132.6z
			 M-657.2-1136v-23.9c0-1.1,0.9-2.1,2.1-2.1c1,0,1.9,0.7,2,1.7l3.5,19.2l-7.3,6.4 M-683-1123.3l15.4-12.9l7.3,2.9 M-661.3-1131.3
			l-13.5,8"/>
	</g>
	<g id="그룹_4009" transform="translate(64.498 56.489)">
		<path id="패스_1550" class="st5" d="M-719.3-1188.9l20.5,12.2c1,0.6,1.4,1.9,0.8,2.9c-0.5,0.9-1.6,1.3-2.5,0.9l-18.7-6.7"/>
	</g>
	<g id="그룹_4011" transform="translate(56.128 56.809)">
		<path id="패스_1552" class="st4" d="M-717.2-1188.9v25.2 M-711.7-1187.4v23.7 M-719.3-1159.6h22.8"/>
	</g>
</g>
<g id="그룹_4012" transform="translate(1192.066 1353.554)">
	<path id="패스_1553" class="st4" d="M-668.2-1119.4c-0.2-1.4,0.2-2.7,1.2-3.7c1.5-1.5,11.9-13.8,13.4-15.2c1.3-1.3,1.3-16,1.2-18
		c-0.1-1.9-0.4-11.9-1.9-15.6c-1.6-0.2-4.3,0.9-6,3.6c-1.6,2.6-1.4,5.4,0,9.6l-2.6,8.3 M-669.4-1135.1c0,0,6.7-6.8,7.9-8.1
		c4.8-4.8-1.2-10.8-6-6c-1.2,1.2-1.3,1.5-4.6,4.8c-1,1-2.4,0.5-4,2.1c-0.7,0.7-4.5,4.4-6.1,6s-2.4,4.9-2.4,7.2v9.7 M-664.2-1110.9
		v-8.5H-688v8.5 M-682.9-1114.3h3.4 M-714.6-1119.4c0.2-1.4-0.2-2.7-1.2-3.7c-1.5-1.5-11.9-13.8-13.4-15.2c-1.3-1.3-1.3-16-1.2-18
		c0.1-1.9,0.4-11.9,1.9-15.6c1.6-0.2,4.3,0.9,6,3.6c1.6,2.6,1.4,5.4,0,9.6l2.6,8.3 M-713.4-1135.1c0,0-6.7-6.8-7.9-8.1
		c-4.8-4.8,1.2-10.8,6-6c1.2,1.2,1.3,1.5,4.6,4.8c1,1,2.4,0.5,4,2.1c0.7,0.7,4.5,4.4,6.1,6s2.3,4.9,2.4,7.2v9.7 M-718.6-1110.9v-8.5
		h23.8v8.5 M-699.9-1114.3h-3.4 M-694.6-1151.8c-6.7-2.5-10-10.9-8.9-15.4c2.9-12,14.3-13.1,19.1-21.8c7.4,5.4,10.1,16.4,6.8,26.3
		c-2.2,6.7-8.5,8.9-11.9,9.6 M-692.9-1141.5c-5.1-14.6,2.4-25.7,6.7-35.2"/>
</g>
<g id="그룹_4013" transform="translate(915.656 1358.462)">
	<path id="패스_1554" class="st5" d="M-704.1-1180.3c0,0-1.3,5.7,5.5,11.4c9.8,8.3,24.4,1.2,26.9-9.3c0,0-4,1.4-9.4-3.5
		c-4.3-4-10.2-11.3-21.6-4.2 M-707.3-1139l25.2-13.4v12.2l23-12.2v37.9 M-696.7-1123.1h-7.9v-5.5c0-2.2,1.8-3.9,3.9-3.9
		c2.2,0,3.9,1.8,3.9,3.9L-696.7-1123.1z M-681.5-1123.1h-7.9v-5.5c0-2.2,1.8-3.9,3.9-3.9c2.2,0,3.9,1.8,3.9,3.9l0,0L-681.5-1123.1z
		 M-666.4-1123.1h-7.9v-5.5c0-2.2,1.8-3.9,3.9-3.9s3.9,1.8,3.9,3.9l0,0L-666.4-1123.1z M-656-1114.5h-78.1 M-730.4-1114.5l4.5-56.4
		l0,0c3.3-1.5,7.1-1.5,10.4,0l0,0l4.5,56.4 M-719.8-1177.7c3.4-2.6,7.5-4,11.8-4.1c7.5-0.1,12.8,3.1,14,4.1 M-714.9-1164h-6.6"/>
</g>
<g class="st2">
	<path class="st0" d="M17.1,454c-1.4-0.5-2.4-1.5-3-2.7c-0.6,1.4-1.6,2.5-3.1,3l-0.7-1.1c2-0.7,3.1-2.4,3.1-4.1v-0.4h-2.7v-1.2h6.8
		v1.2h-2.6v0.4c0,1.6,1.1,3.1,3,3.8L17.1,454z M21.1,457.7v1.2h-8.5v-4H14v2.8H21.1z M19.3,449.9v-3.4h1.4v9.2h-1.4V451H17v-1.2h2.3
		V449.9z"/>
	<path class="st0" d="M30.7,453.2c-1.9,0.3-3.6,0.4-6,0.4h-1v-3.8H28v-1.4h-4.3v-1.2h5.7v3.7h-4.3v1.5c2.2,0,3.7-0.1,5.4-0.4
		L30.7,453.2z M24.7,454.8H33v4.3h-1.4V456h-6.9V454.8z M33.1,449.6v1.5h1.8v1.2h-1.8v1.9h-1.4v-7.7h1.4v1.9h1.8v1.2H33.1z"/>
	<path class="st0" d="M39.9,455.2c1.3-0.1,2.6-0.1,3.9-0.3l0.1,1.1c-2.6,0.4-5.5,0.5-7.7,0.5l-0.2-1.2c0.8,0,1.6,0,2.5,0v-3.8h1.4
		V455.2z M41.3,453.5c0.3-2,0.4-3.4,0.4-4.5h-5v-1.2H43v0.8c0,1.1,0,2.7-0.4,4.9L41.3,453.5z M47.7,452.9h-1.9v6.2h-1.5v-12.6h1.5
		v5.2h1.9V452.9z"/>
	<path class="st0" d="M52.8,450c0,2.2,0.8,4.3,2.6,5.4l-0.8,1.1c-1.2-0.7-2-1.9-2.4-3.4c-0.4,1.6-1.3,3-2.5,3.7l-0.9-1.1
		c1.8-1.1,2.6-3.4,2.6-5.7v-0.9h-2.2v-1.2h5.7v1.2h-2.1C52.8,449.1,52.8,450,52.8,450z M55.8,446.7h1.4v11.8h-1.4v-6.4H54v-1.2h1.9
		v-4.2H55.8z M59.7,446.5v12.6h-1.4v-12.6H59.7z"/>
</g>
<g id="그룹_4015" transform="translate(740 1622.594)">
	<path id="패스_1556" class="st6" d="M-666.4-1188.9h-73.1v138.1h73.1"/>
</g>
<g class="st2">
	<path class="st0" d="M17.1,404.6c-1.4-0.5-2.4-1.5-3-2.7c-0.6,1.4-1.6,2.5-3.1,3l-0.7-1.1c2-0.7,3.1-2.4,3.1-4.1v-0.4h-2.7v-1.2
		h6.8v1.2h-2.6v0.4c0,1.6,1.1,3.1,3,3.8L17.1,404.6z M21.1,408.4v1.2h-8.5v-4H14v2.8H21.1z M19.3,400.5v-3.4h1.4v9.2h-1.4v-4.7H17
		v-1.2h2.3V400.5z"/>
	<path class="st0" d="M30.7,403.8c-1.9,0.3-3.6,0.4-6,0.4h-1v-3.8H28V399h-4.3v-1.2h5.7v3.7h-4.3v1.5c2.2,0,3.7-0.1,5.4-0.4
		L30.7,403.8z M24.7,405.5H33v4.3h-1.4v-3.2h-6.9V405.5z M33.1,400.2v1.5h1.8v1.2h-1.8v1.9h-1.4v-7.7h1.4v1.9h1.8v1.2H33.1z"/>
	<path class="st0" d="M47.5,403.4v1.2H36.1v-1.2h5V402h-3.5v-4.4H46v4.4h-3.5v1.4H47.5z M37.3,405.7h8.8v4.1h-1.4v-2.9h-7.3
		L37.3,405.7L37.3,405.7z M38.9,400.9h5.7v-2.1h-5.7V400.9z"/>
	<path class="st0" d="M60.4,407.1v1.2H49v-1.2h3v-2.7h-2v-1.2h1.8v-3.9h-1.9v-1.2h9.5v1.2h-1.9v3.9h1.8v1.2h-2v2.7H60.4z
		 M53.2,403.3h2.9v-3.9h-2.9V403.3z M53.4,407.1h2.5v-2.7h-2.5V407.1z"/>
</g>
<g id="그룹_4017" transform="translate(740 1572.089)">
	<path id="패스_1558" class="st6" d="M-666.4-1188.9h-73.1v40.5"/>
</g>
<g class="st2">
	<path class="st0" d="M20.6,137.8c-1.4-0.5-2.4-1.5-3-2.7c-0.6,1.4-1.6,2.5-3.1,3l-0.7-1.1c2-0.7,3.1-2.4,3.1-4.1v-0.4h-2.7v-1.2H21
		v1.2h-2.6v0.4c0,1.6,1.1,3.1,3,3.8L20.6,137.8z M24.6,141.5v1.2h-8.5v-4h1.4v2.8H24.6z M22.8,133.7v-3.4h1.4v9.2h-1.4v-4.7h-2.3
		v-1.2L22.8,133.7L22.8,133.7z"/>
	<path class="st0" d="M34.2,137c-1.9,0.3-3.6,0.4-6,0.4h-1v-3.8h4.3v-1.4h-4.3V131h5.7v3.7h-4.3v1.5c2.2,0,3.7-0.1,5.4-0.4L34.2,137
		z M28.2,138.6h8.3v4.3h-1.4v-3.2h-6.9C28.2,139.7,28.2,138.6,28.2,138.6z M36.6,133.4v1.5h1.8v1.2h-1.8v1.9h-1.4v-7.7h1.4v1.9h1.8
		v1.2L36.6,133.4L36.6,133.4z"/>
	<path class="st0" d="M46,137h-6v-5.9h1.4v1.8h3.1v-1.8H46V137z M49.6,140.6c0,1.5-1.6,2.4-4.2,2.4s-4.2-0.9-4.2-2.4
		s1.6-2.4,4.2-2.4S49.6,139.1,49.6,140.6z M44.5,134h-3.1v1.8h3.1V134z M48.2,140.6c0-0.8-1-1.3-2.8-1.3s-2.8,0.4-2.8,1.3
		c0,0.8,1,1.3,2.8,1.3C47.1,141.8,48.2,141.4,48.2,140.6z M51.2,133.4v1.2h-1.8v3.3H48v-7.5h1.4v3.1h1.8V133.4z"/>
	<path class="st0" d="M59.9,132.8h-7.5v-1.1h3v-1.4h1.4v1.4h3L59.9,132.8L59.9,132.8z M56.2,137.8c-1.8,0-3.1-0.9-3.1-2.2
		c0-1.4,1.2-2.3,3.1-2.3c1.8,0,3.1,0.9,3.1,2.3C59.3,136.9,58,137.8,56.2,137.8z M62.5,140.7c0,1.4-1.6,2.2-4.2,2.2
		c-2.6,0-4.2-0.8-4.2-2.2s1.6-2.2,4.2-2.2S62.5,139.3,62.5,140.7z M56.2,136.7c1,0,1.7-0.5,1.7-1.2s-0.7-1.2-1.7-1.2
		s-1.7,0.4-1.7,1.2S55.2,136.7,56.2,136.7z M61,140.7c0-0.7-1-1.1-2.7-1.1s-2.7,0.4-2.7,1.1c0,0.7,1,1.1,2.7,1.1S61,141.5,61,140.7z
		 M62.3,133.5v1.5h1.8v1.2h-1.8v2.2h-1.4v-8.1h1.4v2h1.8v1.2L62.3,133.5L62.3,133.5z"/>
</g>
<g id="그룹_4019" transform="translate(740 1306.455)">
	<path id="패스_1560" class="st6" d="M-666.4-1188.9h-73.1v255.6"/>
</g>
<g class="st2">
	<path class="st7" d="M184.9,271.3c0,4.1-1.9,7.8-6.7,10.1l-0.7-1.1c3.9-1.8,5.8-4.6,6.1-8h-5.4v-1.1h6.7V271.3z M189.1,269.8v14.4
		h-1.3v-14.4H189.1z"/>
	<path class="st7" d="M205,280.2h-5.9v4h-1.3v-4H192v-1.1h13V280.2z M204.2,272.5h-11.5v-1.1h5.2v-1.7h1.3v1.7h5.1v1.1H204.2z
		 M198.5,273.3c2.9,0,4.6,0.9,4.6,2.4s-1.7,2.4-4.6,2.4c-2.9,0-4.7-0.8-4.7-2.4C193.8,274.2,195.6,273.3,198.5,273.3z M198.5,274.3
		c-2.1,0-3.3,0.5-3.3,1.4s1.2,1.4,3.3,1.4s3.3-0.5,3.3-1.4S200.6,274.3,198.5,274.3z"/>
	<path class="st7" d="M213.9,277.9h-6.5v-7.2h1.3v2.5h3.9v-2.5h1.3v1.7h3.3v-2.6h1.3v10.6h-1.3v-3.8h-3.3V277.9z M212.6,274.3h-3.9
		v2.6h3.9V274.3z M218.9,282.7v1.1h-9.6v-4.5h1.3v3.4H218.9z M213.9,273.5v2h3.3v-2H213.9z"/>
	<path class="st7" d="M226.5,280.2c1.3-0.1,2.6-0.2,3.9-0.4l0.1,1c-3.1,0.5-6.5,0.6-9,0.6l-0.2-1.1c1.2,0,2.5,0,3.9,0v-1.6
		c-1.6-0.2-2.7-1.2-2.7-2.6c0-1.6,1.4-2.7,3.4-2.7s3.4,1,3.4,2.7c0,1.4-1.1,2.4-2.7,2.6L226.5,280.2L226.5,280.2z M230.1,272.5h-8.6
		v-1h3.6v-1.7h1.3v1.7h3.6L230.1,272.5L230.1,272.5z M225.8,277.7c1.3,0,2.1-0.6,2.1-1.6s-0.9-1.6-2.1-1.6c-1.3,0-2.1,0.7-2.1,1.6
		S224.6,277.7,225.8,277.7z M234.8,277h-2.2v7.2h-1.3v-14.4h1.3v6.1h2.2V277z"/>
	<path class="st7" d="M238,279.5c1.9,0,3.3-0.1,4.8-0.4l0.1,1.1c-1.7,0.4-3.2,0.4-5.3,0.4h-0.9v-9.1h5.3v1.1h-4L238,279.5L238,279.5
		z M248.4,269.8v14.4h-1.3v-7.5h-2v6.8h-1.2v-13.3h1.2v5.4h2v-5.8H248.4z"/>
	<path class="st7" d="M263.9,276.7v1.1h-13v-1.1H263.9z M262.4,272.9c0,1.7-1.9,2.7-5,2.7s-5-1-5-2.7s2-2.7,5-2.7
		C260.5,270.1,262.4,271.1,262.4,272.9z M262.3,281.6c0,1.6-1.8,2.6-4.9,2.6s-4.9-0.9-4.9-2.6c0-1.6,1.9-2.6,4.9-2.6
		S262.3,279.9,262.3,281.6z M253.7,272.9c0,1.1,1.4,1.7,3.7,1.7c2.3,0,3.7-0.6,3.7-1.7s-1.4-1.7-3.7-1.7S253.7,271.8,253.7,272.9z
		 M253.8,281.6c0,1,1.3,1.5,3.6,1.5s3.6-0.6,3.6-1.5c0-1-1.3-1.6-3.6-1.6S253.8,280.6,253.8,281.6z"/>
</g>
<g class="st2">
	<path class="st7" d="M173.8,305h-3.4v5.1h-1.3V305h-3.6v5.1h-1.3V305h-3.3v-1.1h13L173.8,305L173.8,305z M162.2,299.5
		c0-1.9,2-3.1,5-3.1s5,1.2,5,3.1s-2,3.1-5,3.1C164.3,302.6,162.2,301.4,162.2,299.5z M163.6,299.5c0,1.3,1.5,2.1,3.7,2.1
		s3.7-0.8,3.7-2.1s-1.5-2.1-3.7-2.1S163.6,298.2,163.6,299.5z"/>
	<path class="st7" d="M179.7,298.2h2.9v1.1h-7.1v-1.1h2.9v-2h1.3L179.7,298.2L179.7,298.2z M182.1,303.5c0,2-1.3,3.3-3.1,3.3
		s-3.1-1.3-3.1-3.3c0-1.9,1.3-3.3,3.1-3.3S182.1,301.6,182.1,303.5z M181,303.5c0-1.2-0.8-2.2-1.9-2.2c-1.1,0-1.9,0.9-1.9,2.2
		c0,1.3,0.8,2.2,1.9,2.2S181,304.8,181,303.5z M187.7,295.7v14.4h-1.3v-7.2h-1.8v6.5h-1.2v-13.3h1.2v5.7h1.8v-6.1H187.7z"/>
	<path class="st7" d="M195.3,306.2c1.3-0.1,2.6-0.2,3.9-0.4l0.1,1c-3.1,0.5-6.5,0.6-9,0.6l-0.2-1.1c1.2,0,2.5,0,3.9,0v-1.6
		c-1.6-0.2-2.7-1.2-2.7-2.6c0-1.6,1.4-2.7,3.4-2.7s3.4,1,3.4,2.7c0,1.4-1.1,2.4-2.7,2.6L195.3,306.2L195.3,306.2z M198.9,298.5h-8.6
		v-1h3.6v-1.7h1.3v1.7h3.6L198.9,298.5L198.9,298.5z M194.6,303.7c1.3,0,2.1-0.6,2.1-1.6s-0.9-1.6-2.1-1.6c-1.3,0-2.1,0.7-2.1,1.6
		S193.3,303.7,194.6,303.7z M203.5,303h-2.2v7.2H200v-14.4h1.3v6.1h2.2V303z"/>
	<path class="st7" d="M213.5,298.3H205v-1.1h3.6v-1.6h1.3v1.6h3.6L213.5,298.3L213.5,298.3z M209.2,304.3c-2,0-3.4-1-3.4-2.6
		s1.4-2.6,3.4-2.6s3.4,1,3.4,2.6C212.7,303.3,211.3,304.3,209.2,304.3z M206.8,305.5h9.3v4.6h-1.3v-3.5h-8V305.5z M209.2,303.3
		c1.3,0,2.2-0.6,2.2-1.6c0-0.9-0.9-1.6-2.2-1.6s-2.2,0.6-2.2,1.6S207.9,303.3,209.2,303.3z M218.2,300.8h-2.1v3.9h-1.3v-9h1.3v4h2.1
		V300.8z"/>
	<path class="st7" d="M226.8,302.9v1.4h4.2v3.2h-8.4v1.4h8.9v1h-10.1v-3.4h8.4v-1.3h-8.5v-1h4.3v-1.4h-5.8v-1.1h13v1.1L226.8,302.9
		L226.8,302.9z M231,300.6h-9.6v-4.4h9.6V300.6z M229.7,297.3h-7v2.3h7V297.3z"/>
	<path class="st7" d="M242.6,302.9c-1.7-0.5-3-1.6-3.7-3.1c-0.6,1.6-2,2.8-3.7,3.4l-0.6-1c2.2-0.7,3.6-2.4,3.6-4.4v-0.2h-3.3v-1.1
		h7.9v1.1h-3.2v0.2c0,1.8,1.5,3.5,3.6,4.1L242.6,302.9z M246.6,308.9v1h-9.7v-3.6h8v-1.4h-8v-1h9.3v3.4h-8v1.6H246.6z M246.1,303.2
		h-1.3v-7.4h1.3V303.2z"/>
	<path class="st7" d="M261.7,303.7c-3,0.5-6.4,0.6-9,0.6l-0.1-1.1c0.9,0,2,0,3,0v-3.1h1.3v3.1c1.6-0.1,3.2-0.2,4.7-0.4L261.7,303.7z
		 M258.9,301.8c0.3-1.6,0.4-2.9,0.4-3.8h-5.9v-1.1h7.1v0.8c0,0.9,0,2.4-0.4,4.3L258.9,301.8z M256.1,308.7h8.2v1.1h-9.5v-4.2h1.3
		V308.7z M265.9,300.4v1.1h-2.1v5.1h-1.3v-10.8h1.3v4.7h2.1V300.4z"/>
	<path class="st7" d="M269.5,305.6c2.4,0,4.5-0.1,7-0.5l0.1,1.1c-2.6,0.4-4.8,0.5-7.2,0.5h-1.2v-5.5h5.3v-3h-5.3v-1.1h6.7v5.1h-5.3
		v3.4H269.5z M279.2,295.7v14.4h-1.3v-14.4H279.2z"/>
</g>
<g class="st2">
	<path class="st7" d="M188.4,331.4c0.5,0,1-0.1,1.5-0.1l0.1,1c-2.2,0.4-5.2,0.4-7.1,0.4l-0.1-1.1c0.4,0,0.9,0,1.5,0v-6.9H183v-1.1
		h6.6v1.1h-1.2L188.4,331.4L188.4,331.4z M185.4,331.5c0.6,0,1.2,0,1.8-0.1v-6.8h-1.8V331.5z M191.1,322.1h1.2v13.3h-1.2V330h-1.9
		v-1.1h1.9v-2h-1.9v-1.1h1.9V322.1z M195.1,321.8v14.3h-1.3v-14.3H195.1z"/>
	<path class="st7" d="M205.2,323.3c0,4.1-1.9,7.8-6.7,10.1l-0.7-1.1c3.9-1.8,5.8-4.6,6.1-8h-5.4v-1.1h6.7V323.3z M209.4,321.8v14.4
		H208v-14.4H209.4z"/>
	<path class="st7" d="M219.4,328.9v1.4h4.2v3.2h-8.4v1.4h8.9v1H214v-3.4h8.4v-1.3h-8.5v-1h4.3v-1.4h-5.8v-1.1h13v1.1L219.4,328.9
		L219.4,328.9z M223.6,326.6H214v-4.4h9.6V326.6z M222.3,323.3h-7v2.3h7V323.3z"/>
	<path class="st7" d="M239.6,329.7c-3,0.5-6.4,0.6-9,0.6l-0.1-1.1c0.9,0,2,0,3,0v-3.1h1.3v3.1c1.6-0.1,3.2-0.2,4.7-0.4L239.6,329.7z
		 M236.8,327.8c0.3-1.6,0.4-2.9,0.4-3.8h-5.9v-1.1h7.1v0.8c0,0.9,0,2.4-0.4,4.3L236.8,327.8z M234,334.7h8.2v1.1h-9.5v-4.2h1.3
		V334.7z M243.8,326.4v1.1h-2.1v5.1h-1.3v-10.8h1.3v4.7h2.1V326.4z"/>
	<path class="st7" d="M247.5,331.6c2.4,0,4.5-0.1,7-0.5l0.1,1.1c-2.6,0.4-4.8,0.5-7.2,0.5h-1.2v-5.5h5.3v-3h-5.3v-1.1h6.7v5.1h-5.3
		v3.4H247.5z M257.1,321.7v14.4h-1.3v-14.4H257.1z"/>
</g>
<g class="st2">
	<path class="st7" d="M449.9,278.7c-3,0.6-6.5,0.6-9,0.6l-0.1-1.1c1.1,0,2.4,0,3.8-0.1V277c-1.6-0.2-2.7-1-2.7-2.2
		c0-1.4,1.3-2.2,3.4-2.2c2,0,3.3,0.8,3.3,2.2c0,1.2-1,2-2.7,2.2v1c1.3-0.1,2.7-0.2,3.9-0.4L449.9,278.7z M449.3,272.2h-8.2v-1h3.5
		v-1.5h1.3v1.5h3.5L449.3,272.2L449.3,272.2z M444.2,282.7h8.3v1.1h-9.6v-3.5h1.3L444.2,282.7L444.2,282.7z M445.2,276.2
		c1.3,0,2.1-0.5,2.1-1.3s-0.8-1.3-2.1-1.3c-1.3,0-2.1,0.5-2.1,1.3C443.1,275.8,443.9,276.2,445.2,276.2z M454.1,274.8v1.1H452v5.1
		h-1.3v-11.2h1.3v5H454.1z"/>
	<path class="st7" d="M462.5,273.5c-0.9,2.3-3.1,4-6.2,4.9l-0.5-1c3.4-1,5.6-2.9,5.8-5.4h-5.1v-1.1h6.5c0,0.5-0.1,1.1-0.2,1.6h3.2
		v-2.6h1.3v8.6H466v-1.9h-3.8v-1.1h3.8v-1.9h-3.5V273.5z M467.4,281.3c0,1.7-1.9,2.8-4.8,2.8s-4.8-1-4.8-2.8s1.9-2.8,4.8-2.8
		C465.6,278.5,467.4,279.6,467.4,281.3z M466.1,281.3c0-1.1-1.3-1.7-3.5-1.7c-2.1,0-3.5,0.7-3.5,1.7c0,1.1,1.3,1.7,3.5,1.7
		C464.8,283,466.1,282.4,466.1,281.3z"/>
	<path class="st7" d="M474.3,277.8c-2.1,0-3.7-1.5-3.7-3.5c0-2.1,1.6-3.5,3.7-3.5s3.7,1.5,3.7,3.5
		C478,276.4,476.4,277.8,474.3,277.8z M474.3,276.7c1.4,0,2.5-1,2.5-2.4s-1.1-2.4-2.5-2.4s-2.5,1-2.5,2.4S472.9,276.7,474.3,276.7z
		 M473.8,282.7h8.3v1.1h-9.6v-4.5h1.3L473.8,282.7L473.8,282.7z M483.5,274.1v1.1h-2.1v5.1h-1.3v-10.6h1.3v4.4H483.5z"/>
	<path class="st7" d="M492.8,278.1c-1.6-0.6-2.8-1.8-3.5-3.2c-0.6,1.6-1.9,3-3.6,3.6l-0.7-1c2.1-0.8,3.6-2.7,3.6-4.7V272h-3.2v-1.1
		h7.7v1.1H490v0.7c0,1.9,1.4,3.7,3.5,4.4L492.8,278.1z M497.2,282.7v1.1h-9.6v-4.4h1.3v3.4h8.3V282.7z M495.5,273.7v-4h1.3v10.5
		h-1.3v-5.5h-2.9v-1.1h2.9V273.7z"/>
	<path class="st7" d="M512.7,281.2v1.1h-13v-1.1h5.8v-3.1h-4.3v-7.3h1.3v2.6h7.3v-2.6h1.3v7.3h-4.3v3.1H512.7z M502.5,277.1h7.3
		v-2.6h-7.3V277.1z"/>
	<path class="st7" d="M521.9,270.9c0,3.7-2.6,6.5-6.7,7.8l-0.6-1.1c3.3-1.1,5.5-3.1,5.8-5.7h-5.1v-1.1h6.6V270.9z M526.6,282.7v1.1
		h-9.4v-4.5h1.3v3.4H526.6z M524.9,274.2v-4.4h1.3v10.6h-1.3v-5.1h-3.1v-1.1H524.9z"/>
	<path class="st7" d="M541.7,277.7c-3,0.5-6.4,0.6-9,0.6l-0.1-1.1c0.9,0,2,0,3,0v-3.1h1.3v3.1c1.6-0.1,3.2-0.2,4.7-0.4L541.7,277.7z
		 M539,275.8c0.3-1.6,0.4-2.9,0.4-3.8h-5.9v-1.1h7.1v0.8c0,0.9,0,2.4-0.4,4.3L539,275.8z M536.1,282.7h8.2v1.1h-9.5v-4.2h1.3V282.7z
		 M546,274.4v1.1h-2.1v5.1h-1.3v-10.8h1.3v4.7h2.1V274.4z"/>
	<path class="st7" d="M549.6,279.6c2.4,0,4.5-0.1,7-0.5l0.1,1.1c-2.6,0.4-4.8,0.5-7.2,0.5h-1.2v-5.5h5.3v-3h-5.3v-1.1h6.7v5.1h-5.3
		L549.6,279.6L549.6,279.6z M559.2,269.7v14.4h-1.3v-14.4H559.2z"/>
</g>
<g class="st2">
	<path class="st7" d="M727.3,278.4c-1.7-0.5-3-1.7-3.6-3.1c-0.6,1.6-1.9,2.8-3.6,3.4l-0.6-1c2.1-0.7,3.6-2.5,3.6-4.5v-0.4h-3.3v-1.1
		h3.3v-1.8h1.3v1.8h3.2v1.1h-3.2v0.4c0,1.9,1.5,3.6,3.6,4.2L727.3,278.4z M731.3,282.7v1.1h-9.7v-4.4h1.3v3.3H731.3z M730.8,280.4
		h-1.3v-10.6h1.3V280.4z"/>
	<path class="st7" d="M742.8,278.7c-3,0.6-6.5,0.6-9,0.6l-0.1-1.1c1.1,0,2.4,0,3.8-0.1V277c-1.6-0.2-2.7-1-2.7-2.2
		c0-1.4,1.3-2.2,3.4-2.2c2,0,3.3,0.8,3.3,2.2c0,1.2-1,2-2.7,2.2v1c1.3-0.1,2.7-0.2,3.9-0.4L742.8,278.7z M742.3,272.2h-8.2v-1h3.5
		v-1.5h1.3v1.5h3.5L742.3,272.2L742.3,272.2z M737.1,282.7h8.3v1.1h-9.6v-3.5h1.3V282.7z M738.2,276.2c1.3,0,2.1-0.5,2.1-1.3
		s-0.8-1.3-2.1-1.3s-2.1,0.5-2.1,1.3C736.1,275.8,736.9,276.2,738.2,276.2z M747,274.8v1.1h-2.1v5.1h-1.3v-11.2h1.3v5H747z"/>
	<path class="st7" d="M755.4,273.5c-0.9,2.3-3.1,4-6.2,4.9l-0.5-1c3.4-1,5.6-2.9,5.8-5.4h-5.1v-1.1h6.5c0,0.5-0.1,1.1-0.2,1.6h3.2
		v-2.6h1.3v8.6H759v-1.9h-3.8v-1.1h3.8v-1.9h-3.6V273.5z M760.4,281.3c0,1.7-1.9,2.8-4.8,2.8s-4.8-1-4.8-2.8s1.9-2.8,4.8-2.8
		S760.4,279.6,760.4,281.3z M759.1,281.3c0-1.1-1.3-1.7-3.5-1.7c-2.1,0-3.5,0.7-3.5,1.7c0,1.1,1.3,1.7,3.5,1.7
		S759.1,282.4,759.1,281.3z"/>
	<path class="st7" d="M771.6,273.6c0,2.5,1.6,5.1,3.6,6.1l-0.8,1c-1.5-0.8-2.8-2.5-3.5-4.5c-0.6,2.1-2,3.9-3.6,4.8l-0.8-1.1
		c2.1-1.1,3.7-3.8,3.7-6.4V271h1.3L771.6,273.6L771.6,273.6z M780.2,276.7h-2.4v7.4h-1.3v-14.3h1.3v5.8h2.4V276.7z"/>
	<path class="st7" d="M793.4,269.8v7.7H792v-3.2h-2.9c-0.3,1.7-1.7,2.8-3.7,2.8c-2.1,0-3.7-1.3-3.7-3.3s1.6-3.3,3.7-3.3
		c1.9,0,3.4,1.1,3.6,2.8h2.9v-3.4h1.5V269.8z M787.9,273.8c0-1.3-1-2.2-2.4-2.2s-2.4,0.9-2.4,2.2s1,2.2,2.4,2.2
		S787.9,275.1,787.9,273.8z M792,278.2h1.3v5.7h-9.2v-5.7h1.3v1.8h6.6L792,278.2L792,278.2z M792,281h-6.6v1.9h6.6V281z"/>
	<path class="st7" d="M803.9,277.7c-1.6-0.5-2.9-1.7-3.5-3.1c-0.6,1.6-1.9,2.9-3.6,3.5l-0.7-1c2.2-0.8,3.6-2.6,3.6-4.7v-0.6h-3.2
		v-1.1h7.7v1.1H801v0.6c0,1.9,1.4,3.6,3.5,4.3L803.9,277.7z M807.5,281.4c0,1.7-1.8,2.7-4.7,2.7s-4.7-1-4.7-2.7s1.8-2.6,4.7-2.6
		S807.5,279.8,807.5,281.4z M806.2,281.4c0-1-1.3-1.6-3.4-1.6c-2.1,0-3.4,0.6-3.4,1.6s1.3,1.6,3.4,1.6
		C804.9,283.1,806.2,282.5,806.2,281.4z M809.5,273.4v1.1h-2.1v3.9h-1.3v-8.7h1.3v3.6h2.1V273.4z"/>
	<path class="st7" d="M827.5,277v1.1h-5.7v2.9h-1.3v-2.9h-6V277H827.5z M816,273c0-1.8,2-2.9,5-2.9s5,1.1,5,2.9s-2,2.9-5,2.9
		S816,274.8,816,273z M817.5,282.7h8.6v1.1h-9.9v-4.2h1.3L817.5,282.7L817.5,282.7z M817.4,273c0,1.1,1.5,1.8,3.6,1.8
		c2.2,0,3.6-0.7,3.6-1.8c0-1.1-1.4-1.8-3.6-1.8C818.8,271.2,817.4,271.9,817.4,273z"/>
	<path class="st7" d="M836.1,276.2c-0.7,0.8-1.7,1.2-2.9,1.2c-2.1,0-3.7-1.4-3.7-3.4s1.6-3.4,3.7-3.4c1.2,0,2.2,0.5,2.9,1.2h3.7
		v-2.1h1.3v8.5h-1.3v-2L836.1,276.2L836.1,276.2z M833.2,276.3c1.4,0,2.4-1,2.4-2.3s-1-2.3-2.4-2.3s-2.4,1-2.4,2.3
		C830.7,275.4,831.8,276.3,833.2,276.3z M841.1,281.4c0,1.7-1.8,2.8-4.8,2.8c-2.9,0-4.8-1-4.8-2.8c0-1.7,1.8-2.8,4.8-2.8
		S841.1,279.6,841.1,281.4z M839.9,281.4c0-1.1-1.3-1.7-3.5-1.7s-3.5,0.6-3.5,1.7s1.3,1.7,3.5,1.7
		C838.5,283.1,839.9,282.4,839.9,281.4z M836.7,272.9c0.1,0.3,0.2,0.7,0.2,1.1s-0.1,0.8-0.2,1.1h3.1v-2.2H836.7z"/>
</g>
<g id="그룹_5199">
	<path id="패스_1546" class="st1" d="M719.8,572.2h200.7V434.1H719.8V572.2z"/>
	<path id="패스_1547" class="st1" d="M719.8,423.7h200.7V383H719.8V423.7z"/>
</g>
<g id="그룹_5196">
	<path id="패스_1541" class="st1" d="M80.5,572.1h200.9V433.6H80.5V572.1z"/>
	<path id="패스_1540" class="st1" d="M80.5,423.8h200.9v-40.7H80.5V423.8z"/>
</g>
<g id="그룹_5197" transform="translate(-0.13)">
	<path id="패스_1542" class="st1" d="M293.9,571.8h200.7V433.6H293.9V571.8z"/>
	<path id="패스_1543" class="st1" d="M293.9,423.8h200.7v-40.7H293.9V423.8z"/>
</g>
<g id="그룹_5198">
	<path id="패스_1544" class="st1" d="M506.8,571.8h200.7V433.6H506.8V571.8z"/>
	<path id="패스_1545" class="st1" d="M506.8,423.7h200.7V383H506.8V423.7z"/>
</g>
<g class="st2">
	<path class="st7" d="M132.1,401.2c-0.3-0.6-0.7-1-1.2-1.3s-1.1-0.5-1.8-0.5s-1.3,0.2-1.8,0.5s-1,0.8-1.3,1.3
		c-0.3,0.6-0.5,1.3-0.5,2s0.2,1.4,0.5,2s0.7,1,1.3,1.3c0.5,0.3,1.2,0.5,1.8,0.5c1,0,1.7-0.3,2.4-0.9s1-1.3,1.1-2.3h-3.9v-1h5.2v1
		c-0.1,0.8-0.3,1.5-0.8,2.2c-0.4,0.7-1,1.2-1.7,1.6s-1.5,0.6-2.3,0.6c-0.9,0-1.7-0.2-2.5-0.6s-1.3-1-1.8-1.8s-0.7-1.6-0.7-2.6
		s0.2-1.8,0.7-2.6s1-1.4,1.8-1.8c0.7-0.4,1.6-0.6,2.5-0.6c1,0,2,0.3,2.8,0.8s1.4,1.2,1.7,2.2L132.1,401.2L132.1,401.2z"/>
	<path class="st7" d="M136.8,397.8v10.4h-1.3v-10.4H136.8z"/>
	<path class="st7" d="M140.4,407.8c-0.6-0.3-1-0.8-1.4-1.4c-0.3-0.6-0.5-1.3-0.5-2.1c0-0.8,0.2-1.5,0.5-2.1s0.8-1.1,1.4-1.4
		c0.6-0.3,1.2-0.5,2-0.5s1.4,0.2,2,0.5s1.1,0.8,1.4,1.4c0.3,0.6,0.5,1.3,0.5,2.1c0,0.8-0.2,1.5-0.5,2.1c-0.4,0.6-0.8,1.1-1.4,1.4
		c-0.6,0.3-1.3,0.5-2,0.5C141.6,408.3,141,408.1,140.4,407.8z M143.6,406.9c0.4-0.2,0.7-0.5,1-1c0.2-0.4,0.4-1,0.4-1.6
		s-0.1-1.1-0.4-1.6s-0.6-0.7-1-1c-0.4-0.2-0.8-0.3-1.3-0.3s-0.9,0.1-1.3,0.3c-0.4,0.2-0.7,0.5-0.9,1s-0.4,1-0.4,1.6s0.1,1.2,0.3,1.6
		s0.5,0.7,0.9,1c0.4,0.2,0.8,0.3,1.3,0.3C142.8,407.2,143.2,407.1,143.6,406.9z"/>
	<path class="st7" d="M150.4,400.8c0.5-0.3,1.1-0.4,1.7-0.4c0.7,0,1.3,0.2,1.9,0.5c0.6,0.3,1,0.8,1.3,1.4s0.5,1.3,0.5,2.1
		c0,0.8-0.2,1.5-0.5,2.1s-0.8,1.1-1.3,1.4c-0.6,0.3-1.2,0.5-1.9,0.5s-1.2-0.1-1.7-0.4s-0.9-0.7-1.1-1.1v1.4H148v-10.4h1.3v4.1
		C149.5,401.5,149.9,401.1,150.4,400.8z M154.1,402.8c-0.2-0.4-0.5-0.8-0.9-1s-0.8-0.3-1.3-0.3s-0.9,0.1-1.3,0.3
		c-0.4,0.2-0.7,0.6-1,1c-0.2,0.4-0.4,0.9-0.4,1.5s0.1,1.1,0.4,1.5s0.6,0.8,1,1s0.8,0.3,1.3,0.3s0.9-0.1,1.3-0.3
		c0.4-0.2,0.7-0.6,0.9-1s0.4-0.9,0.4-1.5C154.4,403.7,154.3,403.2,154.1,402.8z"/>
	<path class="st7" d="M157.4,402.2c0.3-0.6,0.8-1.1,1.3-1.4c0.6-0.3,1.2-0.5,1.9-0.5s1.3,0.1,1.8,0.4s0.9,0.7,1.1,1.1v-1.4h1.3v7.7
		h-1.3v-1.4c-0.3,0.4-0.6,0.8-1.1,1.1c-0.5,0.3-1.1,0.4-1.7,0.4c-0.7,0-1.3-0.2-1.8-0.5s-1-0.8-1.3-1.4s-0.5-1.3-0.5-2.1
		C157,403.5,157.1,402.8,157.4,402.2z M163.1,402.8c-0.2-0.4-0.5-0.8-0.9-1s-0.8-0.3-1.3-0.3s-0.9,0.1-1.3,0.3
		c-0.4,0.2-0.7,0.6-0.9,1s-0.4,0.9-0.4,1.5s0.1,1.1,0.4,1.5s0.5,0.8,0.9,1s0.8,0.3,1.3,0.3s0.9-0.1,1.3-0.3c0.4-0.2,0.7-0.6,0.9-1
		s0.4-0.9,0.4-1.5C163.4,403.7,163.3,403.2,163.1,402.8z"/>
	<path class="st7" d="M168.2,397.8v10.4h-1.3v-10.4H168.2z"/>
	<path class="st7" d="M175.4,407.9c-0.5-0.2-0.9-0.5-1.2-1c-0.3-0.4-0.4-0.9-0.4-1.4h1.4c0,0.5,0.2,0.8,0.6,1.2
		c0.3,0.3,0.8,0.5,1.4,0.5c0.6,0,1.1-0.2,1.4-0.5c0.4-0.3,0.5-0.7,0.5-1.2c0-0.4-0.1-0.7-0.3-0.9c-0.2-0.2-0.5-0.4-0.8-0.5
		s-0.7-0.3-1.2-0.4c-0.6-0.2-1.2-0.3-1.5-0.5c-0.4-0.2-0.7-0.4-1-0.8s-0.4-0.8-0.4-1.4c0-0.5,0.1-1,0.4-1.4c0.3-0.4,0.7-0.7,1.1-1
		c0.5-0.2,1.1-0.3,1.7-0.3c0.9,0,1.7,0.2,2.2,0.7c0.6,0.5,0.9,1.1,1,1.8h-1.4c0-0.4-0.2-0.7-0.6-1c-0.3-0.3-0.8-0.4-1.4-0.4
		c-0.5,0-1,0.1-1.3,0.4s-0.5,0.7-0.5,1.2c0,0.4,0.1,0.6,0.3,0.9c0.2,0.2,0.4,0.4,0.7,0.5s0.7,0.2,1.2,0.4c0.6,0.2,1.2,0.4,1.6,0.5
		c0.4,0.2,0.7,0.4,1,0.8s0.4,0.8,0.4,1.5c0,0.5-0.1,0.9-0.4,1.3s-0.6,0.8-1.1,1s-1.1,0.4-1.8,0.4
		C176.5,408.3,175.9,408.2,175.4,407.9z"/>
	<path class="st7" d="M183.8,401.6v4.5c0,0.4,0.1,0.6,0.2,0.8c0.2,0.2,0.4,0.2,0.8,0.2h0.9v1.1h-1.1c-0.7,0-1.2-0.2-1.6-0.5
		c-0.4-0.3-0.5-0.9-0.5-1.6v-4.5h-1v-1h1v-1.9h1.3v1.9h2v1H183.8z"/>
	<path class="st7" d="M187.4,402.2c0.3-0.6,0.8-1.1,1.3-1.4c0.6-0.3,1.2-0.5,1.9-0.5s1.3,0.1,1.8,0.4s0.9,0.7,1.1,1.1v-1.4h1.3v7.7
		h-1.3v-1.4c-0.3,0.4-0.6,0.8-1.1,1.1c-0.5,0.3-1.1,0.4-1.7,0.4c-0.7,0-1.3-0.2-1.8-0.5s-1-0.8-1.3-1.4s-0.5-1.3-0.5-2.1
		C186.9,403.5,187.1,402.8,187.4,402.2z M193.1,402.8c-0.2-0.4-0.5-0.8-0.9-1s-0.8-0.3-1.3-0.3s-0.9,0.1-1.3,0.3
		c-0.4,0.2-0.7,0.6-0.9,1s-0.4,0.9-0.4,1.5s0.1,1.1,0.4,1.5s0.5,0.8,0.9,1s0.8,0.3,1.3,0.3s0.9-0.1,1.3-0.3c0.4-0.2,0.7-0.6,0.9-1
		s0.4-0.9,0.4-1.5C193.4,403.7,193.3,403.2,193.1,402.8z"/>
	<path class="st7" d="M202.9,401.2c0.6,0.6,0.9,1.4,0.9,2.4v4.5h-1.3v-4.3c0-0.8-0.2-1.4-0.6-1.8c-0.4-0.4-0.9-0.6-1.6-0.6
		c-0.7,0-1.2,0.2-1.6,0.6c-0.4,0.4-0.6,1-0.6,1.8v4.2h-1.3v-7.7h1.3v1.1c0.3-0.4,0.6-0.7,1-0.9s0.9-0.3,1.4-0.3
		C201.5,400.4,202.3,400.6,202.9,401.2z"/>
	<path class="st7" d="M205.8,402.2c0.3-0.6,0.8-1.1,1.3-1.4c0.6-0.3,1.2-0.5,1.9-0.5c0.6,0,1.2,0.1,1.7,0.4s0.9,0.6,1.2,1.1v-4.1
		h1.3v10.4h-1.3v-1.4c-0.3,0.5-0.6,0.8-1.1,1.1s-1.1,0.4-1.7,0.4c-0.7,0-1.3-0.2-1.9-0.5c-0.6-0.3-1-0.8-1.3-1.4s-0.5-1.3-0.5-2.1
		C205.3,403.5,205.5,402.8,205.8,402.2z M211.5,402.8c-0.2-0.4-0.5-0.8-0.9-1s-0.8-0.3-1.3-0.3s-0.9,0.1-1.3,0.3
		c-0.4,0.2-0.7,0.6-0.9,1s-0.4,0.9-0.4,1.5s0.1,1.1,0.4,1.5s0.5,0.8,0.9,1s0.8,0.3,1.3,0.3s0.9-0.1,1.3-0.3c0.4-0.2,0.7-0.6,0.9-1
		s0.4-0.9,0.4-1.5C211.8,403.7,211.7,403.2,211.5,402.8z"/>
	<path class="st7" d="M215.3,402.2c0.3-0.6,0.8-1.1,1.3-1.4c0.6-0.3,1.2-0.5,1.9-0.5s1.3,0.1,1.8,0.4s0.9,0.7,1.1,1.1v-1.4h1.3v7.7
		h-1.3v-1.4c-0.3,0.4-0.6,0.8-1.1,1.1c-0.5,0.3-1.1,0.4-1.7,0.4c-0.7,0-1.3-0.2-1.8-0.5s-1-0.8-1.3-1.4s-0.5-1.3-0.5-2.1
		C214.8,403.5,215,402.8,215.3,402.2z M220.9,402.8c-0.2-0.4-0.5-0.8-0.9-1s-0.8-0.3-1.3-0.3s-0.9,0.1-1.3,0.3
		c-0.4,0.2-0.7,0.6-0.9,1s-0.4,0.9-0.4,1.5s0.1,1.1,0.4,1.5s0.5,0.8,0.9,1s0.8,0.3,1.3,0.3s0.9-0.1,1.3-0.3c0.4-0.2,0.7-0.6,0.9-1
		s0.4-0.9,0.4-1.5C221.3,403.7,221.2,403.2,220.9,402.8z"/>
	<path class="st7" d="M227,400.7c0.4-0.2,0.9-0.4,1.5-0.4v1.3h-0.3c-1.4,0-2.1,0.8-2.1,2.3v4.2h-1.3v-7.7h1.3v1.2
		C226.2,401.3,226.6,401,227,400.7z"/>
	<path class="st7" d="M230,402.2c0.3-0.6,0.8-1.1,1.3-1.4c0.6-0.3,1.2-0.5,1.9-0.5c0.6,0,1.2,0.1,1.7,0.4s0.9,0.6,1.2,1.1v-4.1h1.3
		v10.4H236v-1.4c-0.3,0.5-0.6,0.8-1.1,1.1s-1.1,0.4-1.7,0.4c-0.7,0-1.3-0.2-1.9-0.5c-0.6-0.3-1-0.8-1.3-1.4s-0.5-1.3-0.5-2.1
		C229.5,403.5,229.6,402.8,230,402.2z M235.6,402.8c-0.2-0.4-0.5-0.8-0.9-1s-0.8-0.3-1.3-0.3s-0.9,0.1-1.3,0.3
		c-0.4,0.2-0.7,0.6-0.9,1s-0.4,0.9-0.4,1.5s0.1,1.1,0.4,1.5s0.5,0.8,0.9,1s0.8,0.3,1.3,0.3s0.9-0.1,1.3-0.3c0.4-0.2,0.7-0.6,0.9-1
		s0.4-0.9,0.4-1.5C236,403.7,235.9,403.2,235.6,402.8z"/>
</g>
<g class="st2">
	<path class="st7" d="M337.7,400.7c0.4-0.8,1-1.4,1.8-1.8c0.7-0.4,1.6-0.6,2.5-0.6c1.1,0,2,0.3,2.8,0.8s1.4,1.2,1.7,2.2H345
		c-0.3-0.6-0.7-1-1.2-1.4s-1.1-0.5-1.8-0.5c-0.7,0-1.3,0.2-1.8,0.5s-1,0.8-1.3,1.4s-0.5,1.3-0.5,2.1c0,0.8,0.2,1.5,0.5,2
		c0.3,0.6,0.7,1,1.3,1.4c0.5,0.3,1.2,0.5,1.8,0.5c0.7,0,1.3-0.2,1.8-0.5s0.9-0.8,1.2-1.4h1.5c-0.4,0.9-0.9,1.7-1.7,2.2
		c-0.8,0.5-1.7,0.8-2.8,0.8c-0.9,0-1.7-0.2-2.5-0.6c-0.7-0.4-1.3-1-1.8-1.8c-0.4-0.8-0.6-1.6-0.6-2.6S337.2,401.5,337.7,400.7z"/>
	<path class="st7" d="M349.6,397.8v10.4h-1.3v-10.4H349.6z"/>
	<path class="st7" d="M351.8,399c-0.2-0.2-0.3-0.4-0.3-0.6s0.1-0.4,0.3-0.6s0.4-0.3,0.6-0.3s0.4,0.1,0.6,0.3
		c0.2,0.2,0.2,0.4,0.2,0.6s-0.1,0.4-0.2,0.6c-0.2,0.2-0.4,0.3-0.6,0.3C352.2,399.3,352,399.2,351.8,399z M353,400.5v7.7h-1.3v-7.7
		H353z"/>
	<path class="st7" d="M366,400.7c0.5,0.2,0.8,0.6,1.1,1.1c0.3,0.5,0.4,1.1,0.4,1.8v4.5h-1.3v-4.3c0-0.8-0.2-1.4-0.6-1.8
		s-0.9-0.6-1.5-0.6c-0.7,0-1.2,0.2-1.6,0.6s-0.6,1-0.6,1.8v4.2h-1.3v-4.3c0-0.8-0.2-1.4-0.6-1.8s-0.9-0.6-1.5-0.6
		c-0.7,0-1.2,0.2-1.6,0.6s-0.6,1-0.6,1.8v4.2H355v-7.7h1.3v1.1c0.3-0.4,0.6-0.7,1-0.9c0.4-0.2,0.9-0.3,1.4-0.3
		c0.6,0,1.2,0.1,1.7,0.4s0.9,0.7,1.1,1.3c0.2-0.5,0.6-1,1.1-1.3s1-0.4,1.7-0.4C365,400.4,365.5,400.5,366,400.7z"/>
	<path class="st7" d="M369.6,402.2c0.3-0.6,0.8-1.1,1.3-1.4c0.6-0.3,1.2-0.5,1.9-0.5c0.7,0,1.3,0.1,1.8,0.4s0.9,0.7,1.1,1.1v-1.4
		h1.3v7.7h-1.3v-1.4c-0.3,0.4-0.6,0.8-1.1,1.1c-0.5,0.3-1.1,0.4-1.7,0.4c-0.7,0-1.3-0.2-1.8-0.5s-1-0.8-1.3-1.4s-0.5-1.3-0.5-2.1
		C369.1,403.5,369.3,402.8,369.6,402.2z M375.3,402.8c-0.2-0.4-0.5-0.8-0.9-1s-0.8-0.3-1.3-0.3s-0.9,0.1-1.3,0.3
		c-0.4,0.2-0.7,0.6-0.9,1s-0.4,0.9-0.4,1.5s0.1,1.1,0.4,1.5s0.5,0.8,0.9,1s0.8,0.3,1.3,0.3s0.9-0.1,1.3-0.3c0.4-0.2,0.7-0.6,0.9-1
		c0.2-0.4,0.4-0.9,0.4-1.5C375.6,403.7,375.5,403.2,375.3,402.8z"/>
	<path class="st7" d="M380.6,401.6v4.5c0,0.4,0.1,0.6,0.2,0.8c0.2,0.2,0.4,0.2,0.8,0.2h0.9v1.1h-1.1c-0.7,0-1.2-0.2-1.6-0.5
		s-0.5-0.9-0.5-1.6v-4.5h-1v-1h1v-1.9h1.3v1.9h2v1H380.6z"/>
	<path class="st7" d="M391.1,404.8H385c0,0.8,0.3,1.3,0.8,1.8c0.5,0.4,1,0.6,1.7,0.6c0.6,0,1-0.1,1.4-0.4s0.6-0.6,0.8-1h1.4
		c-0.2,0.7-0.6,1.3-1.2,1.8s-1.4,0.7-2.3,0.7c-0.7,0-1.4-0.2-2-0.5s-1-0.8-1.4-1.4c-0.3-0.6-0.5-1.3-0.5-2.1c0-0.8,0.2-1.5,0.5-2.1
		s0.8-1.1,1.3-1.4c0.6-0.3,1.2-0.5,2-0.5c0.7,0,1.4,0.2,1.9,0.5s1,0.8,1.3,1.3c0.3,0.6,0.5,1.2,0.5,1.9
		C391.2,404.3,391.2,404.5,391.1,404.8z M389.5,402.5c-0.2-0.3-0.5-0.6-0.9-0.8c-0.4-0.2-0.8-0.3-1.2-0.3c-0.6,0-1.2,0.2-1.6,0.6
		c-0.5,0.4-0.7,1-0.8,1.7h4.8C389.9,403.3,389.7,402.9,389.5,402.5z"/>
	<path class="st7" d="M396.8,400.7c0.4-0.8,1-1.4,1.8-1.8c0.7-0.4,1.6-0.6,2.5-0.6c1.1,0,2,0.3,2.8,0.8s1.4,1.2,1.7,2.2H404
		c-0.3-0.6-0.7-1-1.2-1.4s-1.1-0.5-1.8-0.5c-0.7,0-1.3,0.2-1.8,0.5s-1,0.8-1.3,1.4s-0.5,1.3-0.5,2.1c0,0.8,0.2,1.5,0.5,2
		c0.3,0.6,0.7,1,1.3,1.4c0.5,0.3,1.2,0.5,1.8,0.5c0.7,0,1.3-0.2,1.8-0.5s0.9-0.8,1.2-1.4h1.5c-0.4,0.9-0.9,1.7-1.7,2.2
		c-0.8,0.5-1.7,0.8-2.8,0.8c-0.9,0-1.7-0.2-2.5-0.6c-0.7-0.4-1.3-1-1.8-1.8c-0.4-0.8-0.6-1.6-0.6-2.6S396.3,401.5,396.8,400.7z"/>
	<path class="st7" d="M412.8,400.7c0.5,0.2,0.8,0.6,1.1,1.1c0.3,0.5,0.4,1.1,0.4,1.8v4.5H413v-4.3c0-0.8-0.2-1.4-0.6-1.8
		s-0.9-0.6-1.6-0.6s-1.2,0.2-1.6,0.6s-0.6,1-0.6,1.8v4.2h-1.3v-10.4h1.3v3.8c0.3-0.4,0.6-0.7,1-0.9s0.9-0.3,1.5-0.3
		C411.8,400.4,412.3,400.5,412.8,400.7z"/>
	<path class="st7" d="M416.4,402.2c0.3-0.6,0.8-1.1,1.3-1.4c0.6-0.3,1.2-0.5,1.9-0.5c0.7,0,1.3,0.1,1.8,0.4s0.9,0.7,1.1,1.1v-1.4
		h1.3v7.7h-1.3v-1.4c-0.3,0.4-0.6,0.8-1.1,1.1c-0.5,0.3-1.1,0.4-1.7,0.4c-0.7,0-1.3-0.2-1.8-0.5s-1-0.8-1.3-1.4s-0.5-1.3-0.5-2.1
		C415.9,403.5,416,402.8,416.4,402.2z M422,402.8c-0.2-0.4-0.5-0.8-0.9-1s-0.8-0.3-1.3-0.3s-0.9,0.1-1.3,0.3c-0.4,0.2-0.7,0.6-0.9,1
		s-0.4,0.9-0.4,1.5s0.1,1.1,0.4,1.5s0.5,0.8,0.9,1s0.8,0.3,1.3,0.3s0.9-0.1,1.3-0.3c0.4-0.2,0.7-0.6,0.9-1c0.2-0.4,0.4-0.9,0.4-1.5
		C422.4,403.7,422.3,403.2,422,402.8z"/>
	<path class="st7" d="M431.8,401.2c0.6,0.6,0.9,1.4,0.9,2.4v4.5h-1.3v-4.3c0-0.8-0.2-1.4-0.6-1.8s-0.9-0.6-1.6-0.6s-1.2,0.2-1.6,0.6
		s-0.6,1-0.6,1.8v4.2h-1.3v-7.7h1.3v1.1c0.3-0.4,0.6-0.7,1-0.9s0.9-0.3,1.4-0.3C430.5,400.4,431.2,400.6,431.8,401.2z"/>
	<path class="st7" d="M439.7,400.8c0.5,0.3,0.9,0.7,1.1,1.1v-1.4h1.3v7.8c0,0.7-0.1,1.3-0.4,1.9s-0.7,1-1.3,1.3
		c-0.6,0.3-1.2,0.5-1.9,0.5c-1,0-1.8-0.2-2.5-0.7s-1.1-1.1-1.2-1.9h1.3c0.1,0.5,0.4,0.8,0.9,1.1c0.4,0.3,1,0.4,1.6,0.4
		c0.7,0,1.3-0.2,1.7-0.7c0.4-0.4,0.7-1.1,0.7-1.8v-1.6c-0.3,0.4-0.6,0.8-1.1,1.1c-0.5,0.3-1.1,0.4-1.7,0.4c-0.7,0-1.3-0.2-1.9-0.5
		s-1-0.8-1.3-1.4s-0.5-1.3-0.5-2.1c0-0.8,0.2-1.5,0.5-2.1s0.8-1.1,1.3-1.4c0.6-0.3,1.2-0.5,1.9-0.5
		C438.6,400.4,439.2,400.5,439.7,400.8z M440.4,402.8c-0.2-0.4-0.5-0.8-0.9-1s-0.8-0.3-1.3-0.3s-0.9,0.1-1.3,0.3
		c-0.4,0.2-0.7,0.6-0.9,1s-0.4,0.9-0.4,1.5s0.1,1.1,0.4,1.5s0.5,0.8,0.9,1s0.8,0.3,1.3,0.3s0.9-0.1,1.3-0.3c0.4-0.2,0.7-0.6,0.9-1
		c0.2-0.4,0.4-0.9,0.4-1.5C440.8,403.7,440.7,403.2,440.4,402.8z"/>
	<path class="st7" d="M451.2,404.8h-6.1c0,0.8,0.3,1.3,0.8,1.8c0.5,0.4,1,0.6,1.7,0.6c0.6,0,1-0.1,1.4-0.4s0.6-0.6,0.8-1h1.4
		c-0.2,0.7-0.6,1.3-1.2,1.8s-1.4,0.7-2.3,0.7c-0.7,0-1.4-0.2-2-0.5s-1-0.8-1.4-1.4c-0.3-0.6-0.5-1.3-0.5-2.1c0-0.8,0.2-1.5,0.5-2.1
		s0.8-1.1,1.3-1.4c0.6-0.3,1.2-0.5,2-0.5c0.7,0,1.4,0.2,1.9,0.5s1,0.8,1.3,1.3c0.3,0.6,0.5,1.2,0.5,1.9
		C451.2,404.3,451.2,404.5,451.2,404.8z M449.6,402.5c-0.2-0.3-0.5-0.6-0.9-0.8c-0.4-0.2-0.8-0.3-1.2-0.3c-0.6,0-1.2,0.2-1.6,0.6
		c-0.5,0.4-0.7,1-0.8,1.7h4.8C449.9,403.3,449.8,402.9,449.6,402.5z"/>
</g>
<g class="st2">
	<path class="st7" d="M545.4,403.2c-0.6,0.5-1.4,0.8-2.5,0.8H541v4.1h-1.3v-9.8h3.1c1.1,0,1.9,0.3,2.5,0.8s0.9,1.2,0.9,2.1
		C546.2,402,545.9,402.6,545.4,403.2z M544.4,402.5c0.3-0.3,0.5-0.7,0.5-1.3c0-1.2-0.7-1.8-2.1-1.8H541v3.6h1.9
		C543.6,402.9,544.1,402.8,544.4,402.5z"/>
	<path class="st7" d="M549.2,407.7c-0.6-0.3-1-0.8-1.4-1.4c-0.3-0.6-0.5-1.3-0.5-2.1c0-0.8,0.2-1.5,0.5-2.1s0.8-1.1,1.4-1.4
		c0.6-0.3,1.2-0.5,2-0.5c0.7,0,1.4,0.2,2,0.5s1.1,0.8,1.4,1.4c0.3,0.6,0.5,1.3,0.5,2.1c0,0.8-0.2,1.5-0.5,2.1s-0.8,1.1-1.4,1.4
		c-0.6,0.3-1.3,0.5-2,0.5C550.4,408.2,549.8,408,549.2,407.7z M552.4,406.7c0.4-0.2,0.7-0.5,1-1c0.2-0.4,0.4-1,0.4-1.6
		s-0.1-1.1-0.4-1.6c-0.2-0.4-0.6-0.7-1-1s-0.8-0.3-1.3-0.3s-0.9,0.1-1.3,0.3c-0.4,0.2-0.7,0.5-0.9,1s-0.3,1-0.3,1.6s0.1,1.2,0.3,1.6
		s0.5,0.7,0.9,1s0.8,0.3,1.3,0.3C551.6,407.1,552,407,552.4,406.7z"/>
	<path class="st7" d="M558,397.7v10.4h-1.3v-10.4H558z"/>
	<path class="st7" d="M561.5,397.7v10.4h-1.3v-10.4H561.5z"/>
	<path class="st7" d="M570.5,400.4v7.7h-1.3V407c-0.2,0.4-0.6,0.7-1,0.9c-0.4,0.2-0.9,0.3-1.4,0.3c-0.6,0-1.1-0.1-1.6-0.4
		c-0.5-0.2-0.9-0.6-1.1-1.1c-0.3-0.5-0.4-1.1-0.4-1.8v-4.5h1.3v4.3c0,0.8,0.2,1.3,0.6,1.7c0.4,0.4,0.9,0.6,1.6,0.6
		c0.7,0,1.2-0.2,1.6-0.6c0.4-0.4,0.6-1,0.6-1.8v-4.2H570.5z"/>
	<path class="st7" d="M574.2,401.4v4.5c0,0.4,0.1,0.6,0.2,0.8c0.2,0.2,0.4,0.2,0.8,0.2h0.9v1.1H575c-0.7,0-1.2-0.2-1.6-0.5
		c-0.4-0.3-0.5-0.9-0.5-1.6v-4.5h-1v-1h1v-1.9h1.3v1.9h2v1H574.2z"/>
	<path class="st7" d="M577.7,398.9c-0.2-0.2-0.3-0.4-0.3-0.6s0.1-0.4,0.3-0.6s0.4-0.3,0.6-0.3c0.2,0,0.4,0.1,0.6,0.3
		c0.2,0.2,0.2,0.4,0.2,0.6s-0.1,0.4-0.2,0.6c-0.2,0.2-0.4,0.3-0.6,0.3C578.1,399.1,577.9,399.1,577.7,398.9z M579,400.4v7.7h-1.3
		v-7.7H579z"/>
	<path class="st7" d="M582.5,407.7c-0.6-0.3-1-0.8-1.4-1.4c-0.3-0.6-0.5-1.3-0.5-2.1c0-0.8,0.2-1.5,0.5-2.1s0.8-1.1,1.4-1.4
		c0.6-0.3,1.2-0.5,2-0.5c0.7,0,1.4,0.2,2,0.5s1.1,0.8,1.4,1.4c0.3,0.6,0.5,1.3,0.5,2.1c0,0.8-0.2,1.5-0.5,2.1
		c-0.4,0.6-0.8,1.1-1.4,1.4c-0.6,0.3-1.3,0.5-2,0.5S583.1,408,582.5,407.7z M585.8,406.7c0.4-0.2,0.7-0.5,1-1c0.2-0.4,0.4-1,0.4-1.6
		s-0.1-1.1-0.4-1.6c-0.2-0.4-0.6-0.7-1-1c-0.4-0.2-0.8-0.3-1.3-0.3s-0.9,0.1-1.3,0.3s-0.7,0.5-0.9,1s-0.4,1-0.4,1.6s0.1,1.2,0.3,1.6
		s0.5,0.7,0.9,1c0.4,0.2,0.8,0.3,1.3,0.3S585.4,407,585.8,406.7z"/>
	<path class="st7" d="M596.1,401.1c0.6,0.6,0.9,1.4,0.9,2.4v4.5h-1.3v-4.3c0-0.8-0.2-1.4-0.6-1.8c-0.4-0.4-0.9-0.6-1.6-0.6
		c-0.7,0-1.2,0.2-1.6,0.6c-0.4,0.4-0.6,1-0.6,1.8v4.2H590v-7.7h1.3v1.1c0.3-0.4,0.6-0.7,1-0.9c0.4-0.2,0.9-0.3,1.4-0.3
		C594.8,400.2,595.5,400.5,596.1,401.1z"/>
	<path class="st7" d="M608.5,403.2c-0.6,0.5-1.4,0.8-2.5,0.8h-1.9v4.1h-1.3v-9.8h3.1c1.1,0,1.9,0.3,2.5,0.8s0.9,1.2,0.9,2.1
		C609.3,402,609.1,402.6,608.5,403.2z M607.5,402.5c0.3-0.3,0.5-0.7,0.5-1.3c0-1.2-0.7-1.8-2.1-1.8H604v3.6h1.9
		C606.7,402.9,607.2,402.8,607.5,402.5z"/>
	<path class="st7" d="M613.1,400.6c0.4-0.2,0.9-0.4,1.5-0.4v1.3h-0.3c-1.4,0-2.1,0.8-2.1,2.3v4.2h-1.3v-7.7h1.3v1.2
		C612.4,401.2,612.7,400.8,613.1,400.6z"/>
	<path class="st7" d="M623.1,404.7H617c0,0.8,0.3,1.3,0.8,1.8c0.5,0.4,1,0.6,1.7,0.6c0.6,0,1-0.1,1.4-0.4s0.6-0.6,0.8-1h1.4
		c-0.2,0.7-0.6,1.3-1.2,1.8s-1.4,0.7-2.3,0.7c-0.7,0-1.4-0.2-2-0.5s-1-0.8-1.4-1.4c-0.3-0.6-0.5-1.3-0.5-2.1c0-0.8,0.2-1.5,0.5-2.1
		s0.8-1.1,1.3-1.4c0.6-0.3,1.2-0.5,2-0.5c0.7,0,1.4,0.2,1.9,0.5c0.6,0.3,1,0.8,1.3,1.3c0.3,0.6,0.5,1.2,0.5,1.9
		C623.1,404.2,623.1,404.4,623.1,404.7z M621.5,402.4c-0.2-0.3-0.5-0.6-0.9-0.8c-0.4-0.2-0.8-0.3-1.2-0.3c-0.6,0-1.2,0.2-1.6,0.6
		c-0.5,0.4-0.7,1-0.8,1.7h4.8C621.8,403.2,621.7,402.8,621.5,402.4z"/>
	<path class="st7" d="M627.7,406.9l2.4-6.5h1.4l-3,7.7H627l-3-7.7h1.4L627.7,406.9z"/>
	<path class="st7" d="M639.6,404.7h-6.1c0,0.8,0.3,1.3,0.8,1.8s1,0.6,1.7,0.6c0.6,0,1-0.1,1.4-0.4s0.6-0.6,0.8-1h1.4
		c-0.2,0.7-0.6,1.3-1.2,1.8c-0.6,0.5-1.4,0.7-2.3,0.7c-0.7,0-1.4-0.2-2-0.5s-1-0.8-1.4-1.4c-0.3-0.6-0.5-1.3-0.5-2.1
		c0-0.8,0.2-1.5,0.5-2.1s0.8-1.1,1.3-1.4c0.6-0.3,1.2-0.5,2-0.5c0.7,0,1.4,0.2,1.9,0.5c0.6,0.3,1,0.8,1.3,1.3
		c0.3,0.6,0.5,1.2,0.5,1.9C639.7,404.2,639.7,404.4,639.6,404.7z M638,402.4c-0.2-0.3-0.5-0.6-0.9-0.8c-0.4-0.2-0.8-0.3-1.2-0.3
		c-0.6,0-1.2,0.2-1.6,0.6c-0.5,0.4-0.7,1-0.8,1.7h4.8C638.4,403.2,638.2,402.8,638,402.4z"/>
	<path class="st7" d="M647.4,401.1c0.6,0.6,0.9,1.4,0.9,2.4v4.5H647v-4.3c0-0.8-0.2-1.4-0.6-1.8c-0.4-0.4-0.9-0.6-1.6-0.6
		c-0.7,0-1.2,0.2-1.6,0.6s-0.6,1-0.6,1.8v4.2h-1.3v-7.7h1.3v1.1c0.3-0.4,0.6-0.7,1-0.9c0.4-0.2,0.9-0.3,1.4-0.3
		C646,400.2,646.8,400.5,647.4,401.1z"/>
	<path class="st7" d="M651.9,401.4v4.5c0,0.4,0.1,0.6,0.2,0.8c0.2,0.2,0.4,0.2,0.8,0.2h0.9v1.1h-1.1c-0.7,0-1.2-0.2-1.6-0.5
		c-0.4-0.3-0.5-0.9-0.5-1.6v-4.5h-1v-1h1v-1.9h1.3v1.9h2v1H651.9z"/>
	<path class="st7" d="M655.4,398.9c-0.2-0.2-0.3-0.4-0.3-0.6s0.1-0.4,0.3-0.6s0.4-0.3,0.6-0.3c0.2,0,0.4,0.1,0.6,0.3
		s0.2,0.4,0.2,0.6s-0.1,0.4-0.2,0.6s-0.4,0.3-0.6,0.3C655.8,399.1,655.6,399.1,655.4,398.9z M656.7,400.4v7.7h-1.3v-7.7H656.7z"/>
	<path class="st7" d="M660.2,407.7c-0.6-0.3-1-0.8-1.4-1.4c-0.3-0.6-0.5-1.3-0.5-2.1c0-0.8,0.2-1.5,0.5-2.1s0.8-1.1,1.4-1.4
		c0.6-0.3,1.2-0.5,2-0.5c0.7,0,1.4,0.2,2,0.5s1.1,0.8,1.4,1.4c0.3,0.6,0.5,1.3,0.5,2.1c0,0.8-0.2,1.5-0.5,2.1
		c-0.4,0.6-0.8,1.1-1.4,1.4c-0.6,0.3-1.3,0.5-2,0.5S660.8,408,660.2,407.7z M663.5,406.7c0.4-0.2,0.7-0.5,1-1c0.2-0.4,0.4-1,0.4-1.6
		s-0.1-1.1-0.4-1.6c-0.2-0.4-0.6-0.7-1-1c-0.4-0.2-0.8-0.3-1.3-0.3s-0.9,0.1-1.3,0.3s-0.7,0.5-0.9,1s-0.4,1-0.4,1.6s0.1,1.2,0.3,1.6
		s0.5,0.7,0.9,1c0.4,0.2,0.8,0.3,1.3,0.3S663.1,407,663.5,406.7z"/>
	<path class="st7" d="M673.8,401.1c0.6,0.6,0.9,1.4,0.9,2.4v4.5h-1.3v-4.3c0-0.8-0.2-1.4-0.6-1.8c-0.4-0.4-0.9-0.6-1.6-0.6
		c-0.7,0-1.2,0.2-1.6,0.6c-0.4,0.4-0.6,1-0.6,1.8v4.2h-1.3v-7.7h1.3v1.1c0.3-0.4,0.6-0.7,1-0.9c0.4-0.2,0.9-0.3,1.4-0.3
		C672.5,400.2,673.2,400.5,673.8,401.1z"/>
</g>
<g class="st2">
	<path class="st7" d="M774.3,398.3l-2.8,9.8H770l-2.3-7.9l-2.4,7.9h-1.4l-2.7-9.8h1.4l2.1,8.3l2.4-8.3h1.4l2.2,8.2l2.1-8.2H774.3z"
		/>
	<path class="st7" d="M775.7,402.1c0.3-0.6,0.8-1.1,1.3-1.4c0.6-0.3,1.2-0.5,1.9-0.5s1.3,0.1,1.8,0.4s0.9,0.7,1.1,1.1v-1.4h1.3v7.7
		h-1.3v-1.4c-0.3,0.4-0.6,0.8-1.1,1.1s-1.1,0.4-1.7,0.4c-0.7,0-1.3-0.2-1.8-0.5s-1-0.8-1.3-1.4s-0.5-1.3-0.5-2.1
		C775.2,403.4,775.3,402.7,775.7,402.1z M781.3,402.7c-0.2-0.4-0.5-0.8-0.9-1s-0.8-0.3-1.3-0.3s-0.9,0.1-1.3,0.3
		c-0.4,0.2-0.7,0.6-0.9,1s-0.4,0.9-0.4,1.5s0.1,1.1,0.4,1.5s0.5,0.8,0.9,1s0.8,0.3,1.3,0.3s0.9-0.1,1.3-0.3s0.7-0.6,0.9-1
		s0.3-0.9,0.3-1.5C781.7,403.6,781.6,403.1,781.3,402.7z"/>
	<path class="st7" d="M786.3,407.9c-0.5-0.2-0.8-0.5-1.1-0.8s-0.4-0.8-0.4-1.2h1.3c0,0.4,0.2,0.7,0.5,0.9c0.3,0.2,0.7,0.4,1.3,0.4
		c0.5,0,0.9-0.1,1.1-0.3c0.3-0.2,0.4-0.5,0.4-0.8s-0.1-0.6-0.4-0.7s-0.8-0.3-1.4-0.5c-0.6-0.1-1-0.3-1.4-0.5s-0.7-0.4-0.9-0.7
		c-0.3-0.3-0.4-0.7-0.4-1.2c0-0.4,0.1-0.8,0.4-1.1c0.2-0.3,0.6-0.6,1-0.8c0.4-0.2,0.9-0.3,1.5-0.3c0.8,0,1.5,0.2,2.1,0.6
		c0.5,0.4,0.8,1,0.8,1.8h-1.3c0-0.4-0.2-0.7-0.5-1c-0.3-0.2-0.7-0.4-1.2-0.4s-0.8,0.1-1.1,0.3c-0.3,0.2-0.4,0.5-0.4,0.8
		s0.1,0.5,0.2,0.6c0.2,0.2,0.4,0.3,0.6,0.4c0.2,0.1,0.6,0.2,1,0.3c0.6,0.1,1,0.3,1.3,0.4s0.6,0.4,0.9,0.7c0.2,0.3,0.4,0.7,0.4,1.1
		s-0.1,0.8-0.3,1.1c-0.2,0.3-0.6,0.6-1,0.8s-0.9,0.3-1.5,0.3C787.2,408.2,786.7,408.1,786.3,407.9z"/>
	<path class="st7" d="M794,401.4v4.5c0,0.4,0.1,0.6,0.2,0.8c0.2,0.2,0.4,0.2,0.8,0.2h0.9v1.1h-1.1c-0.7,0-1.2-0.2-1.6-0.5
		c-0.4-0.3-0.5-0.9-0.5-1.6v-4.5h-1v-1h1v-1.9h1.3v1.9h2v1H794z"/>
	<path class="st7" d="M804.5,404.7h-6.1c0,0.8,0.3,1.3,0.8,1.8c0.5,0.4,1,0.6,1.7,0.6c0.6,0,1-0.1,1.4-0.4s0.6-0.6,0.8-1h1.4
		c-0.2,0.7-0.6,1.3-1.2,1.8s-1.4,0.7-2.3,0.7c-0.7,0-1.4-0.2-2-0.5s-1-0.8-1.4-1.4c-0.3-0.6-0.5-1.3-0.5-2.1c0-0.8,0.2-1.5,0.5-2.1
		s0.8-1.1,1.3-1.4c0.6-0.3,1.2-0.5,2-0.5c0.7,0,1.4,0.2,1.9,0.5c0.6,0.3,1,0.8,1.3,1.3c0.3,0.6,0.5,1.2,0.5,1.9
		C804.5,404.2,804.5,404.4,804.5,404.7z M802.9,402.4c-0.2-0.3-0.5-0.6-0.9-0.8c-0.4-0.2-0.8-0.3-1.2-0.3c-0.6,0-1.2,0.2-1.6,0.6
		c-0.5,0.4-0.7,1-0.8,1.7h4.8C803.2,403.2,803.1,402.8,802.9,402.4z"/>
	<path class="st7" d="M815.1,408.1l-2.3-4h-1.5v4H810v-9.8h3.2c0.7,0,1.4,0.1,1.9,0.4s0.9,0.6,1.1,1c0.3,0.4,0.4,0.9,0.4,1.5
		c0,0.7-0.2,1.3-0.6,1.8c-0.4,0.5-1,0.9-1.7,1l2.5,4.1H815.1z M811.2,403h1.9c0.7,0,1.2-0.2,1.6-0.5c0.3-0.3,0.5-0.8,0.5-1.4
		s-0.2-1-0.5-1.3s-0.9-0.5-1.6-0.5h-1.9V403z"/>
	<path class="st7" d="M825.4,404.7h-6.1c0,0.8,0.3,1.3,0.8,1.8c0.5,0.4,1,0.6,1.7,0.6c0.6,0,1-0.1,1.4-0.4s0.6-0.6,0.8-1h1.4
		c-0.2,0.7-0.6,1.3-1.2,1.8s-1.4,0.7-2.3,0.7c-0.7,0-1.4-0.2-2-0.5s-1-0.8-1.4-1.4c-0.3-0.6-0.5-1.3-0.5-2.1c0-0.8,0.2-1.5,0.5-2.1
		s0.8-1.1,1.3-1.4c0.6-0.3,1.2-0.5,2-0.5c0.7,0,1.4,0.2,1.9,0.5c0.6,0.3,1,0.8,1.3,1.3c0.3,0.6,0.5,1.2,0.5,1.9
		C825.5,404.2,825.4,404.4,825.4,404.7z M823.8,402.4c-0.2-0.3-0.5-0.6-0.9-0.8c-0.4-0.2-0.8-0.3-1.2-0.3c-0.6,0-1.2,0.2-1.6,0.6
		c-0.5,0.4-0.7,1-0.8,1.7h4.8C824.1,403.2,824,402.8,823.8,402.4z"/>
	<path class="st7" d="M827.1,402.1c0.3-0.6,0.8-1.1,1.3-1.4c0.6-0.3,1.2-0.5,1.9-0.5c0.6,0,1.2,0.1,1.7,0.4s0.9,0.6,1.2,1.1v-4.1
		h1.3V408h-1.3v-1.4c-0.3,0.5-0.6,0.8-1.1,1.1c-0.5,0.3-1.1,0.4-1.7,0.4c-0.7,0-1.3-0.2-1.9-0.5s-1-0.8-1.3-1.4s-0.5-1.3-0.5-2.1
		C826.7,403.4,826.8,402.7,827.1,402.1z M832.8,402.7c-0.2-0.4-0.5-0.8-0.9-1s-0.8-0.3-1.3-0.3s-0.9,0.1-1.3,0.3
		c-0.4,0.2-0.7,0.6-0.9,1s-0.4,0.9-0.4,1.5s0.1,1.1,0.4,1.5s0.5,0.8,0.9,1s0.8,0.3,1.3,0.3s0.9-0.1,1.3-0.3s0.7-0.6,0.9-1
		s0.3-0.9,0.3-1.5C833.2,403.6,833,403.1,832.8,402.7z"/>
	<path class="st7" d="M843.4,400.4v7.7h-1.3V407c-0.2,0.4-0.6,0.7-1,0.9c-0.4,0.2-0.9,0.3-1.4,0.3c-0.6,0-1.1-0.1-1.6-0.4
		c-0.5-0.2-0.9-0.6-1.1-1.1c-0.3-0.5-0.4-1.1-0.4-1.8v-4.5h1.3v4.3c0,0.8,0.2,1.3,0.6,1.7c0.4,0.4,0.9,0.6,1.6,0.6
		c0.7,0,1.2-0.2,1.6-0.6c0.4-0.4,0.6-1,0.6-1.8v-4.2H843.4z"/>
	<path class="st7" d="M845.6,402.1c0.3-0.6,0.8-1.1,1.3-1.4c0.6-0.3,1.2-0.5,1.9-0.5c0.9,0,1.7,0.2,2.3,0.7s1,1.1,1.2,1.9H851
		c-0.1-0.5-0.4-0.8-0.8-1.1c-0.4-0.3-0.8-0.4-1.4-0.4c-0.7,0-1.3,0.2-1.8,0.7c-0.4,0.5-0.7,1.2-0.7,2.1s0.2,1.6,0.7,2.1
		c0.4,0.5,1,0.8,1.8,0.8c0.6,0,1-0.1,1.4-0.4s0.6-0.6,0.8-1.1h1.4c-0.2,0.8-0.6,1.4-1.2,1.9c-0.6,0.5-1.4,0.7-2.3,0.7
		c-0.7,0-1.4-0.2-1.9-0.5c-0.6-0.3-1-0.8-1.3-1.4s-0.5-1.3-0.5-2.1C845.1,403.4,845.2,402.7,845.6,402.1z"/>
	<path class="st7" d="M855.6,401.4v4.5c0,0.4,0.1,0.6,0.2,0.8c0.2,0.2,0.4,0.2,0.8,0.2h0.9v1.1h-1.1c-0.7,0-1.2-0.2-1.6-0.5
		c-0.4-0.3-0.5-0.9-0.5-1.6v-4.5h-1v-1h1v-1.9h1.3v1.9h2v1H855.6z"/>
	<path class="st7" d="M859.2,398.9c-0.2-0.2-0.3-0.4-0.3-0.6s0.1-0.4,0.3-0.6s0.4-0.3,0.6-0.3c0.2,0,0.4,0.1,0.6,0.3
		c0.2,0.2,0.2,0.4,0.2,0.6s-0.1,0.4-0.2,0.6c-0.2,0.2-0.4,0.3-0.6,0.3C859.6,399.1,859.4,399.1,859.2,398.9z M860.4,400.4v7.7h-1.3
		v-7.7H860.4z"/>
	<path class="st7" d="M864,407.7c-0.6-0.3-1-0.8-1.4-1.4c-0.3-0.6-0.5-1.3-0.5-2.1c0-0.8,0.2-1.5,0.5-2.1s0.8-1.1,1.4-1.4
		c0.6-0.3,1.2-0.5,2-0.5c0.7,0,1.4,0.2,2,0.5s1.1,0.8,1.4,1.4c0.3,0.6,0.5,1.3,0.5,2.1c0,0.8-0.2,1.5-0.5,2.1s-0.8,1.1-1.4,1.4
		c-0.6,0.3-1.3,0.5-2,0.5C865.2,408.2,864.6,408,864,407.7z M867.2,406.7c0.4-0.2,0.7-0.5,1-1c0.2-0.4,0.4-1,0.4-1.6
		s-0.1-1.1-0.4-1.6c-0.2-0.4-0.6-0.7-1-1s-0.8-0.3-1.3-0.3s-0.9,0.1-1.3,0.3c-0.4,0.2-0.7,0.5-0.9,1s-0.3,1-0.3,1.6s0.1,1.2,0.3,1.6
		s0.5,0.7,0.9,1s0.8,0.3,1.3,0.3C866.4,407.1,866.8,407,867.2,406.7z"/>
	<path class="st7" d="M877.6,401.1c0.6,0.6,0.9,1.4,0.9,2.4v4.5h-1.3v-4.3c0-0.8-0.2-1.4-0.6-1.8c-0.4-0.4-0.9-0.6-1.6-0.6
		c-0.7,0-1.2,0.2-1.6,0.6s-0.6,1-0.6,1.8v4.2h-1.3v-7.7h1.3v1.1c0.3-0.4,0.6-0.7,1-0.9c0.4-0.2,0.9-0.3,1.4-0.3
		C876.2,400.2,877,400.5,877.6,401.1z"/>
</g>
<g class="st2">
	<path class="st7" d="M100.3,461.9c0-1.1,0.8-1.9,1.8-1.9c0.9,0,1.8,0.8,1.8,1.9s-0.8,1.9-1.8,1.9
		C101.1,463.8,100.3,463.1,100.3,461.9z"/>
	<path class="st7" d="M115.5,462.1c-1.5-0.5-2.6-1.5-3.2-2.7c-0.5,1.4-1.7,2.5-3.2,3l-0.6-0.9c1.9-0.6,3.2-2.2,3.2-4v-0.3h-2.9v-0.9
		h2.9v-1.6h1.1v1.6h2.8v0.9h-2.8v0.3c0,1.7,1.3,3.1,3.2,3.7L115.5,462.1z M119,465.9v0.9h-8.5V463h1.1v2.9H119z M118.6,463.8h-1.1
		v-9.3h1.1V463.8z"/>
	<path class="st7" d="M129.1,462.4c-2.7,0.5-5.7,0.5-7.9,0.5l-0.1-0.9c1,0,2.1,0,3.3-0.1v-1c-1.4-0.1-2.4-0.8-2.4-1.9
		c0-1.2,1.2-1.9,2.9-1.9c1.8,0,2.9,0.7,2.9,1.9c0,1.1-0.9,1.8-2.4,1.9v0.9c1.1-0.1,2.3-0.2,3.4-0.3L129.1,462.4z M128.6,456.6h-7.2
		v-0.9h3v-1.3h1.1v1.3h3v0.9H128.6z M124.1,465.9h7.2v0.9H123v-3.1h1.1V465.9z M125,460.2c1.1,0,1.8-0.4,1.8-1.1s-0.7-1.1-1.8-1.1
		c-1.1,0-1.8,0.4-1.8,1.1C123.2,459.8,123.9,460.2,125,460.2z M132.8,458.9v1H131v4.5h-1.1v-9.8h1.1v4.4h1.8V458.9z"/>
	<path class="st7" d="M140.1,457.8c-0.8,2-2.7,3.5-5.4,4.3l-0.5-0.9c3-0.9,4.9-2.6,5.1-4.7h-4.4v-0.9h5.7c0,0.5-0.1,0.9-0.1,1.4h2.8
		v-2.3h1.2v7.5h-1.2v-1.7H140v-0.9h3.3v-1.7L140.1,457.8L140.1,457.8z M144.5,464.6c0,1.5-1.6,2.4-4.2,2.4c-2.5,0-4.2-0.9-4.2-2.4
		s1.6-2.4,4.2-2.4C142.8,462.2,144.5,463.1,144.5,464.6z M143.3,464.6c0-0.9-1.2-1.5-3-1.5s-3,0.6-3,1.5c0,1,1.2,1.5,3,1.5
		S143.3,465.6,143.3,464.6z"/>
	<path class="st7" d="M153.6,461.6c-1.9,0-3.3-1.3-3.3-3.1c0-1.8,1.4-3.1,3.3-3.1c1.9,0,3.3,1.3,3.3,3.1
		C156.9,460.3,155.5,461.6,153.6,461.6z M153.6,460.6c1.2,0,2.2-0.9,2.2-2.1s-0.9-2.1-2.2-2.1c-1.2,0-2.1,0.9-2.1,2.1
		S152.4,460.6,153.6,460.6z M160.8,465.9v0.9h-8.5v-4h1.1v3.1H160.8z M160.4,463.7h-1.1v-9.2h1.1V463.7z"/>
	<path class="st7" d="M174.3,460.5v0.9h-11.4v-0.9H174.3z M163.6,458.8c2.2-0.2,4.2-1.3,4.3-2.7H164v-0.9h9.3v0.9h-3.9
		c0.1,1.4,2.1,2.5,4.3,2.7l-0.4,0.9c-2.1-0.3-4-1.2-4.6-2.5c-0.7,1.4-2.6,2.3-4.6,2.5L163.6,458.8z M172.9,464.8
		c0,1.5-1.6,2.3-4.3,2.3s-4.3-0.8-4.3-2.3s1.6-2.3,4.3-2.3C171.3,462.5,172.9,463.3,172.9,464.8z M171.8,464.8
		c0-0.9-1.2-1.4-3.1-1.4c-2,0-3.1,0.5-3.1,1.4s1.2,1.4,3.1,1.4C170.6,466.2,171.8,465.7,171.8,464.8z"/>
	<path class="st7" d="M190.3,462.6h-3v4.5h-1.2v-4.5h-3.2v4.5h-1.2v-4.5H179v-0.9h11.4L190.3,462.6L190.3,462.6z M180.2,457.8
		c0-1.7,1.8-2.7,4.4-2.7c2.6,0,4.4,1.1,4.4,2.7c0,1.7-1.8,2.7-4.4,2.7S180.2,459.4,180.2,457.8z M181.4,457.8c0,1.1,1.3,1.8,3.2,1.8
		s3.2-0.7,3.2-1.8c0-1.1-1.3-1.8-3.2-1.8S181.4,456.7,181.4,457.8z"/>
	<path class="st7" d="M196.3,458.4c0,2.1,1.5,4.3,3.4,5.1l-0.6,0.9c-1.5-0.7-2.7-2.1-3.3-3.8c-0.6,1.8-1.8,3.4-3.2,4.1l-0.7-0.9
		c1.8-0.9,3.3-3.2,3.3-5.4v-1.6h-2.9v-1h7v1h-3V458.4z M202.1,454.5v12.6H201v-12.6H202.1z"/>
</g>
<g class="st2">
	<path class="st7" d="M109.3,485.7c0-2.7,0.8-5,2.1-7.1l0.8,0.4c-1.2,2-1.8,4.4-1.8,6.7c0,2.4,0.6,4.7,1.8,6.7l-0.8,0.4
		C110,490.7,109.3,488.5,109.3,485.7z"/>
</g>
<g class="st2">
	<path class="st7" d="M114.1,479.8h1.3v10.3h-1.3V479.8z"/>
	<path class="st7" d="M117.5,488.7l0.8-0.9c0.7,0.8,1.8,1.3,2.8,1.3c1.3,0,2.2-0.7,2.2-1.7s-0.7-1.4-1.7-1.8l-1.5-0.6
		c-1-0.4-2.1-1.1-2.1-2.6c0-1.6,1.4-2.7,3.2-2.7c1.2,0,2.3,0.5,3,1.3l-0.7,0.8c-0.6-0.6-1.4-1-2.3-1c-1.2,0-1.9,0.6-1.9,1.5
		c0,1,0.9,1.4,1.7,1.7l1.5,0.6c1.2,0.5,2.1,1.2,2.1,2.7c0,1.6-1.3,2.9-3.5,2.9C119.6,490.2,118.4,489.6,117.5,488.7z"/>
	<path class="st7" d="M126,484.9c0-3.3,1.8-5.3,4.4-5.3s4.4,2,4.4,5.3s-1.8,5.4-4.4,5.4C127.8,490.2,126,488.2,126,484.9z
		 M133.4,484.9c0-2.6-1.2-4.2-3.1-4.2c-1.8,0-3.1,1.6-3.1,4.2s1.2,4.2,3.1,4.2S133.4,487.5,133.4,484.9z"/>
	<path class="st7" d="M139.9,489h2.3v-7.7h-1.8v-0.8c0.9-0.2,1.6-0.4,2.1-0.7h1v9.2h2.1v1.1h-5.7V489z"/>
	<path class="st7" d="M153.8,487.2h-1.4v2.8h-1.2v-2.8h-4.5v-0.8l4.3-6.6h1.4v6.4h1.4V487.2z M151.2,486.2V483
		c0-0.5,0.1-1.3,0.1-1.9h-0.1c-0.3,0.5-0.5,1-0.8,1.5l-2.3,3.5h3.1V486.2z"/>
	<path class="st7" d="M154.9,484.9c0-3.6,1.2-5.3,3.2-5.3c1.9,0,3.2,1.7,3.2,5.3c0,3.6-1.2,5.4-3.2,5.4
		C156.2,490.2,154.9,488.5,154.9,484.9z M160.1,484.9c0-3-0.8-4.3-1.9-4.3c-1.2,0-2,1.3-2,4.3s0.8,4.3,2,4.3
		C159.3,489.2,160.1,487.9,160.1,484.9z"/>
	<path class="st7" d="M162.7,484.9c0-3.6,1.2-5.3,3.2-5.3c1.9,0,3.2,1.7,3.2,5.3c0,3.6-1.2,5.4-3.2,5.4
		C163.9,490.2,162.7,488.5,162.7,484.9z M167.8,484.9c0-3-0.8-4.3-1.9-4.3c-1.2,0-2,1.3-2,4.3s0.8,4.3,2,4.3
		C167.1,489.2,167.8,487.9,167.8,484.9z"/>
	<path class="st7" d="M171,489h2.3v-7.7h-1.8v-0.8c0.9-0.2,1.6-0.4,2.1-0.7h1v9.2h2.1v1.1h-5.6V489H171z"/>
</g>
<g class="st2">
	<path class="st7" d="M192.8,484.5v1h-11.4v-1H192.8z M191.4,488.8c0,1.5-1.6,2.3-4.3,2.3s-4.3-0.8-4.3-2.3s1.6-2.3,4.3-2.3
		S191.4,487.4,191.4,488.8z M191.5,483.3h-8.6V479h8.5v0.9H184v2.4h7.5V483.3z M190.2,488.8c0-0.9-1.2-1.4-3.1-1.4s-3.1,0.5-3.1,1.4
		s1.2,1.4,3.1,1.4C189.1,490.2,190.2,489.7,190.2,488.8z"/>
	<path class="st7" d="M194.2,492.4c1.2-2,1.8-4.4,1.8-6.7c0-2.4-0.6-4.7-1.8-6.7l0.8-0.4c1.3,2.1,2.1,4.4,2.1,7.1
		c0,2.8-0.8,5-2.1,7.1L194.2,492.4z"/>
</g>
<g class="st2">
	<path class="st7" d="M739.5,461.9c0-1.1,0.8-1.9,1.8-1.9c0.9,0,1.8,0.8,1.8,1.9s-0.8,1.9-1.8,1.9S739.5,463.1,739.5,461.9z"/>
	<path class="st7" d="M752.3,462.9c0.4,0,0.9-0.1,1.3-0.1l0.1,0.8c-1.9,0.3-4.5,0.4-6.2,0.4l-0.1-1c0.4,0,0.8,0,1.3,0v-6h-1.1v-0.9
		h5.8v0.9h-1L752.3,462.9L752.3,462.9z M749.7,463c0.5,0,1,0,1.6-0.1V457h-1.6V463z M754.7,454.8h1.1v11.6h-1.1v-4.7H753v-0.9h1.6
		V459H753v-0.9h1.6v-3.3H754.7z M758.2,454.5v12.6h-1.1v-12.6H758.2z"/>
	<path class="st7" d="M767,455.9c0,3.6-1.7,6.8-5.8,8.9l-0.6-0.9c3.4-1.6,5.1-4,5.3-7h-4.7V456h5.8V455.9z M770.7,454.5v12.6h-1.1
		v-12.6H770.7z"/>
	<path class="st7" d="M779.5,460.7v1.2h3.7v2.8h-7.4v1.2h7.8v0.9h-8.9v-3h7.4v-1.1h-7.4V462h3.7v-1.2h-5.1v-0.9h11.4v0.9
		L779.5,460.7L779.5,460.7z M783.1,458.8h-8.4V455h8.4V458.8z M782,455.9h-6.2v2h6.2V455.9z"/>
	<path class="st7" d="M793.6,458.2c0,2.1,1.5,4.4,3.3,5.2l-0.7,0.9c-1.4-0.7-2.6-2.2-3.2-4c-0.5,1.8-1.8,3.5-3.2,4.2l-0.7-0.9
		c1.8-0.9,3.3-3.3,3.3-5.5v-1.5h-2.8v-0.9h6.8v0.9h-2.9v1.6H793.6z M799.6,454.5v12.6h-1.1V460h-2.7v-0.9h2.7v-4.6H799.6z"/>
	<path class="st7" d="M808.5,455.3c0,3.2-2.2,5.4-5.9,6.5l-0.4-0.9c3.1-0.8,4.9-2.5,5.1-4.6h-4.6v-0.9h5.8V455.3z M804,462.2h7.9
		v4.7H804V462.2z M805.1,466h5.6v-2.8h-5.6V466z M813.7,458.5h-1.9v3.1h-1.1v-7.1h1.1v3.1h1.9V458.5z"/>
	<path class="st7" d="M824.7,460.5h-5.9v-5.1h5.9V460.5z M825.1,463.5c0,1.2,2,2.4,4.1,2.7l-0.4,0.9c-1.9-0.3-3.6-1.1-4.3-2.3
		c-0.8,1.2-2.5,2-4.4,2.3l-0.4-0.9c2.1-0.3,4.1-1.4,4.2-2.7h-3.7v-0.9h3.7v-1.2h1.2v1.2h3.7v0.9H825.1z M823.6,456.3H820v3.3h3.6
		V456.3z M828.4,461.7h-1.1v-7.2h1.1V461.7z"/>
	<path class="st7" d="M837.9,457.9c0,2.3,0.9,4.3,2.7,5.3l-0.7,0.9c-1.2-0.7-2.1-1.9-2.5-3.4c-0.4,1.7-1.3,3.1-2.6,3.8l-0.7-0.9
		c1.8-1,2.7-3.2,2.7-5.7v-1h-2.4V456h5.8v0.9h-2.3V457.9z M844.9,454.5v12.6h-1.1v-6.5h-1.7v5.9H841v-11.7h1.1v4.8h1.7v-5.1
		L844.9,454.5L844.9,454.5z"/>
	<path class="st7" d="M851.3,458.4c0,2,1.4,4.2,3.2,5.1l-0.7,0.9c-1.4-0.7-2.6-2.2-3.2-3.9c-0.6,1.8-1.8,3.4-3.2,4.2l-0.7-0.9
		c1.8-0.9,3.3-3.3,3.3-5.4v-1.6h-2.9v-1h6.8v1h-2.8v1.6H851.3z M858.8,460.6h-2.1v6.5h-1.1v-12.6h1.1v5.1h2.1V460.6z"/>
	<path class="st7" d="M863.5,461.2c-1.2,0.1-2.5,0.1-3.5,0.1l-0.2-1c2.3,0,5.4,0,8.1-0.4l0.1,0.8c-1.1,0.2-2.3,0.3-3.4,0.4v2.5h-1.1
		L863.5,461.2L863.5,461.2z M860.8,457.2c0-1.3,1.3-2.2,3.1-2.2s3.1,0.9,3.1,2.2c0,1.3-1.3,2.2-3.1,2.2S860.8,458.6,860.8,457.2z
		 M870.5,465.9v0.9h-8.9v-3.7h1.1v2.7h7.8V465.9z M861.9,457.2c0,0.8,0.8,1.3,2,1.3s2-0.5,2-1.3s-0.8-1.3-2-1.3
		S861.9,456.4,861.9,457.2z M869.1,462v-7.4h1.1v9.6h-1.1v-1.3h-2.5V462H869.1z"/>
	<path class="st7" d="M877.2,463.7c1.1-0.1,2.3-0.1,3.4-0.3l0.1,0.9c-2.7,0.5-5.6,0.5-7.8,0.5l-0.2-1c1,0,2.2,0,3.4,0v-1.4
		c-1.4-0.2-2.4-1.1-2.4-2.3c0-1.4,1.2-2.3,3-2.3s3,0.9,3,2.3c0,1.2-1,2.1-2.4,2.3L877.2,463.7L877.2,463.7z M880.4,457h-7.5v-0.9
		h3.2v-1.5h1.1v1.5h3.2V457z M876.6,461.5c1.1,0,1.9-0.6,1.9-1.4c0-0.9-0.8-1.4-1.9-1.4c-1.1,0-1.9,0.6-1.9,1.4
		C874.8,460.9,875.5,461.5,876.6,461.5z M884.4,460.8h-2v6.3h-1.1v-12.6h1.1v5.3h2V460.8z"/>
	<path class="st7" d="M897.1,460.4v0.9h-11.4v-0.9H897.1z M888.2,466.1h7.8v0.8h-9v-2.8h7.5V463H887v-0.8h8.6v2.7h-7.5v1.2H888.2z
		 M894.5,455.7h-7.4v-0.8h8.5v2.6h-7.3v1.1h7.6v0.8h-8.7v-2.7h7.3L894.5,455.7L894.5,455.7z"/>
</g>
<g class="st2">
	<path class="st7" d="M756,485.8c-1.2,0.2-2.4,0.4-3.6,0.4v4.5h-1.1v-4.5c-1.2,0.1-2.4,0.1-3.5,0.1l-0.2-1c2.3,0,5.5,0,8.3-0.4
		L756,485.8z M748.6,481.7c0-1.5,1.3-2.6,3.2-2.6s3.2,1,3.2,2.6c0,1.5-1.3,2.6-3.2,2.6C749.9,484.3,748.6,483.2,748.6,481.7z
		 M749.7,481.7c0,1,0.9,1.6,2.1,1.6c1.2,0,2.1-0.7,2.1-1.6s-0.9-1.6-2.1-1.6C750.5,480.1,749.7,480.7,749.7,481.7z M758,478.5v12.6
		h-1.2v-12.6H758z"/>
	<path class="st7" d="M768,481h-7.4v-0.9h3.1v-1.5h1.1v1.5h3.1v0.9H768z M764.3,486.4c-1.8,0-3-0.9-3-2.3s1.2-2.3,3-2.3s3,0.9,3,2.3
		C767.3,485.4,766.1,486.4,764.3,486.4z M764.3,485.5c1.1,0,1.9-0.6,1.9-1.4c0-0.9-0.8-1.4-1.9-1.4c-1.1,0-1.9,0.6-1.9,1.4
		S763.1,485.5,764.3,485.5z M763.6,489.9h7.2v0.9h-8.4v-3.6h1.1v2.7H763.6z M772.2,482.7v1h-1.9v4.3h-1.1v-9.4h1.1v4.1H772.2z"/>
	<path class="st7" d="M784.5,485.2c-2.7,0.5-5.6,0.5-7.8,0.5l-0.1-0.9c1,0,2.1,0,3.3,0V484c-1.5-0.1-2.4-0.7-2.4-1.6
		c0-1,1.1-1.7,2.9-1.7c1.8,0,2.9,0.6,2.9,1.7c0,0.9-0.9,1.5-2.4,1.6v0.7c1.1-0.1,2.3-0.1,3.4-0.3L784.5,485.2z M784,480.3h-7.2v-0.8
		h3v-1.1h1.1v1.1h3v0.8H784z M779.3,490.1h7.5v0.8h-8.6v-2.7h7v-1h-7v-0.8h8.1v2.6h-7V490.1z M780.4,483.3c1.1,0,1.8-0.3,1.8-0.9
		s-0.7-0.9-1.8-0.9s-1.8,0.3-1.8,0.9S779.3,483.3,780.4,483.3z M788.1,481.7v1h-1.8v3.2h-1.1v-7.4h1.1v3.2L788.1,481.7L788.1,481.7z
		"/>
	<path class="st7" d="M800.8,484.7v0.9h-11.4v-0.9h5.1v-1.5h-3.7V479h8.5v0.9h-7.4v2.3h7.5v0.9h-3.8v1.5h5.2V484.7z M799.4,488.8
		c0,1.5-1.6,2.3-4.3,2.3s-4.3-0.8-4.3-2.3s1.6-2.3,4.3-2.3C797.8,486.6,799.4,487.4,799.4,488.8z M798.3,488.8
		c0-0.9-1.2-1.4-3.1-1.4c-2,0-3.2,0.5-3.2,1.4s1.2,1.4,3.2,1.4C797.1,490.2,798.3,489.7,798.3,488.8z"/>
	<path class="st7" d="M812.3,485.9c-1.4-0.5-2.5-1.6-3-2.8c-0.5,1.4-1.7,2.6-3.2,3.1l-0.6-0.9c1.9-0.7,3.2-2.3,3.2-4.1v-0.6h-2.8
		v-0.9h6.7v0.9h-2.8v0.6c0,1.6,1.2,3.2,3.1,3.9L812.3,485.9z M816.2,489.9v0.9h-8.4v-3.9h1.2v2.9h7.2V489.9z M814.6,482v-3.5h1.2
		v9.2h-1.2v-4.8h-2.5V482H814.6z"/>
	<path class="st7" d="M823.7,480.2c0,3.2-1.1,6.2-4.7,8.2l-0.7-0.8c2.9-1.6,4.1-3.9,4.2-6.5h-3.7v-0.9L823.7,480.2L823.7,480.2z
		 M829,478.5v12.6h-1.1v-6.6h-1.7v5.9h-1.1v-11.6h1.1v4.7h1.7v-5.1h1.1V478.5z"/>
</g>
<g>
	<g class="st2">
		<path class="st7" d="M314.1,461.9c0-1.1,0.8-1.9,1.8-1.9c0.9,0,1.8,0.8,1.8,1.9s-0.8,1.9-1.8,1.9S314.1,463.1,314.1,461.9z"/>
		<path class="st7" d="M322,465.3c3.2-2.8,4.7-4.9,4.7-6.6c0-1.2-0.6-2-1.9-2c-0.8,0-1.6,0.5-2.1,1.2l-0.7-0.7
			c0.8-0.9,1.7-1.5,3-1.5c1.8,0,3,1.2,3,3c0,2-1.6,4.1-4,6.4c0.5,0,1.2-0.1,1.7-0.1h2.8v1.1H322V465.3z"/>
		<path class="st7" d="M329.8,460.9c0-3.6,1.2-5.3,3.2-5.3c1.9,0,3.2,1.7,3.2,5.3c0,3.6-1.2,5.4-3.2,5.4
			C331.1,466.2,329.8,464.5,329.8,460.9z M335,460.9c0-3-0.8-4.3-1.9-4.3c-1.2,0-2,1.3-2,4.3s0.8,4.3,2,4.3
			C334.2,465.2,335,463.9,335,460.9z"/>
		<path class="st7" d="M337.5,465.3c3.2-2.8,4.7-4.9,4.7-6.6c0-1.2-0.6-2-1.9-2c-0.8,0-1.6,0.5-2.1,1.2l-0.7-0.7
			c0.8-0.9,1.7-1.5,3-1.5c1.8,0,3,1.2,3,3c0,2-1.6,4.1-4,6.4c0.5,0,1.2-0.1,1.7-0.1h2.8v1.1h-6.5V465.3z"/>
		<path class="st7" d="M345.1,464.9l0.6-0.8c0.6,0.6,1.3,1.1,2.5,1.1s2.2-0.9,2.2-2.4s-0.8-2.3-2.1-2.3c-0.7,0-1.1,0.2-1.7,0.6
			l-0.7-0.4l0.3-4.8h5v1.1h-3.9l-0.3,3c0.4-0.3,0.9-0.4,1.5-0.4c1.7,0,3.1,1,3.1,3.3s-1.6,3.5-3.4,3.5
			C346.7,466.2,345.7,465.6,345.1,464.9z"/>
		<path class="st7" d="M356.4,460.9c0-3.3,2-5.3,4.7-5.3c1.4,0,2.4,0.6,3,1.3l-0.7,0.8c-0.5-0.5-1.2-1-2.2-1c-2.1,0-3.4,1.6-3.4,4.2
			s1.2,4.2,3.4,4.2c0.7,0,1.5-0.2,1.9-0.6v-2.7h-2.2v-1.1h3.4v4.3c-0.7,0.7-1.8,1.2-3.2,1.2C358.3,466.2,356.4,464.3,356.4,460.9z"
			/>
		<path class="st7" d="M366.6,455.8h1.3v4.3h4.8v-4.3h1.3v10.3h-1.3v-4.8h-4.8v4.8h-1.3V455.8z"/>
		<path class="st7" d="M376.2,460.9c0-3.3,2-5.3,4.7-5.3c1.4,0,2.4,0.6,3,1.3l-0.7,0.8c-0.5-0.5-1.2-1-2.2-1c-2.1,0-3.4,1.6-3.4,4.2
			s1.2,4.2,3.4,4.2c0.7,0,1.5-0.2,1.9-0.6v-2.7h-2.2v-1.1h3.4v4.3c-0.7,0.7-1.8,1.2-3.2,1.2C378.1,466.2,376.2,464.3,376.2,460.9z"
			/>
		<path class="st7" d="M389.6,455.8h1.6l2,5.5c0.2,0.7,0.5,1.4,0.7,2.1h0.1c0.2-0.7,0.5-1.4,0.7-2.1l2-5.5h1.6v10.3h-1.2v-5.7
			c0-0.9,0.1-2.1,0.2-3h-0.1l-0.8,2.3l-1.9,5.3h-0.9l-1.9-5.3l-0.8-2.3h-0.1c0.1,0.9,0.2,2.1,0.2,3v5.7h-1.2v-10.3H389.6z"/>
		<path class="st7" d="M400.4,464.1c0-1.7,1.4-2.5,4.7-2.8c0-1-0.3-1.9-1.6-1.9c-0.9,0-1.7,0.4-2.3,0.8l-0.5-0.9c0.7-0.4,1.8-1,3-1
			c1.8,0,2.6,1.2,2.6,3.1v4.7h-1.1l-0.1-0.9l0,0c-0.7,0.6-1.6,1.1-2.5,1.1C401.3,466.2,400.4,465.5,400.4,464.1z M405,464.2v-2.1
			c-2.6,0.3-3.4,0.9-3.4,1.9c0,0.9,0.6,1.2,1.3,1.2C403.7,465.2,404.3,464.9,405,464.2z"/>
		<path class="st7" d="M407.9,465.2l0.6-0.8c0.7,0.5,1.3,0.9,2.3,0.9s1.5-0.5,1.5-1.2c0-0.8-0.9-1.1-1.7-1.4
			c-1.1-0.4-2.3-0.9-2.3-2.2c0-1.2,1-2.2,2.6-2.2c0.9,0,1.8,0.4,2.4,0.9l-0.6,0.8c-0.5-0.4-1.1-0.7-1.8-0.7c-1,0-1.4,0.5-1.4,1.1
			c0,0.7,0.8,1,1.7,1.3c1.1,0.4,2.3,0.9,2.3,2.3c0,1.2-1,2.3-2.8,2.3C409.6,466.2,408.6,465.8,407.9,465.2z"/>
		<path class="st7" d="M415.2,463.7v-4.2h-1.1v-1l1.2-0.1l0.2-2.1h1.1v2.1h2.1v1h-2.1v4.2c0,0.9,0.3,1.5,1.2,1.5
			c0.3,0,0.6-0.1,0.9-0.2l0.3,1c-0.4,0.1-0.9,0.3-1.4,0.3C415.8,466.2,415.2,465.2,415.2,463.7z"/>
		<path class="st7" d="M419.5,462.3c0-2.5,1.7-4,3.4-4c1.9,0,3,1.4,3,3.6c0,0.3,0,0.5-0.1,0.7h-5.1c0.1,1.6,1.1,2.7,2.5,2.7
			c0.7,0,1.3-0.2,1.9-0.6l0.5,0.8c-0.7,0.4-1.5,0.8-2.5,0.8C421.1,466.2,419.5,464.8,419.5,462.3z M424.8,461.6
			c0-1.5-0.7-2.4-1.9-2.4c-1.1,0-2,0.9-2.2,2.4H424.8z"/>
		<path class="st7" d="M427.8,458.4h1.1l0.1,1.4l0,0c0.5-1,1.3-1.6,2.2-1.6c0.3,0,0.6,0,0.8,0.2l-0.2,1.1c-0.3-0.1-0.4-0.1-0.7-0.1
			c-0.6,0-1.4,0.4-1.9,1.8v4.9h-1.3v-7.7H427.8z"/>
		<path class="st7" d="M436.5,455.8h2.9c2.3,0,3.9,0.8,3.9,3s-1.5,3.2-3.8,3.2h-1.7v4.1h-1.3V455.8z M439.3,460.9
			c1.8,0,2.7-0.7,2.7-2.1c0-1.5-0.9-2-2.7-2h-1.5v4.1H439.3z"/>
		<path class="st7" d="M445.2,464.5v-9.6h1.3v9.7c0,0.4,0.2,0.5,0.4,0.5c0.1,0,0.1,0,0.3,0l0.2,1c-0.2,0.1-0.4,0.1-0.7,0.1
			C445.6,466.2,445.2,465.6,445.2,464.5z"/>
		<path class="st7" d="M448.7,464.1c0-1.7,1.4-2.5,4.7-2.8c0-1-0.3-1.9-1.6-1.9c-0.9,0-1.7,0.4-2.3,0.8l-0.5-0.9c0.7-0.4,1.8-1,3-1
			c1.8,0,2.6,1.2,2.6,3.1v4.7h-1.1l-0.1-0.9l0,0c-0.7,0.6-1.6,1.1-2.5,1.1C449.7,466.2,448.7,465.5,448.7,464.1z M453.4,464.2v-2.1
			c-2.6,0.3-3.4,0.9-3.4,1.9c0,0.9,0.6,1.2,1.3,1.2C452.1,465.2,452.7,464.9,453.4,464.2z"/>
		<path class="st7" d="M457.1,458.4h1.1l0.1,1.1l0,0c0.7-0.7,1.5-1.3,2.5-1.3c1.6,0,2.3,1,2.3,3v4.8h-1.3v-4.7c0-1.4-0.4-2-1.4-2
			c-0.8,0-1.3,0.4-2.1,1.2v5.5H457L457.1,458.4L457.1,458.4z"/>
	</g>
	<g class="st2">
		<path class="st7" d="M314.1,488.9c0-1.1,0.8-1.9,1.8-1.9c0.9,0,1.8,0.8,1.8,1.9s-0.8,1.9-1.8,1.9S314.1,490.1,314.1,488.9z"/>
		<path class="st7" d="M326.3,484.9c0,2.2,1.4,4.5,3.2,5.4l-0.7,0.9c-1.3-0.7-2.5-2.2-3-3.9c-0.5,1.8-1.7,3.4-3.1,4.2l-0.7-0.9
			c1.8-0.9,3.2-3.3,3.2-5.6v-2.3h1.1V484.9z M333.8,487.6h-2.1v6.5h-1.1v-12.6h1.1v5.1h2.1V487.6z"/>
		<path class="st7" d="M345.3,481.5v6.7h-1.2v-2.8h-2.5c-0.2,1.5-1.5,2.5-3.2,2.5c-1.9,0-3.2-1.2-3.2-2.9c0-1.7,1.4-2.9,3.2-2.9
			c1.7,0,3,1,3.2,2.4h2.6v-3L345.3,481.5L345.3,481.5z M340.5,485c0-1.1-0.9-1.9-2.1-1.9s-2.1,0.8-2.1,1.9s0.9,2,2.1,2
			S340.5,486.2,340.5,485z M344.2,488.9h1.1v5h-8v-5h1.1v1.6h5.8V488.9z M344.2,491.4h-5.8v1.6h5.8V491.4z"/>
		<path class="st7" d="M354.6,488.5c-1.4-0.5-2.5-1.5-3-2.7c-0.5,1.4-1.7,2.5-3.2,3.1l-0.6-0.9c1.9-0.7,3.2-2.3,3.2-4.1v-0.5h-2.8
			v-0.9h6.7v0.9h-2.8v0.5c0,1.6,1.2,3.1,3,3.7L354.6,488.5z M357.7,491.8c0,1.5-1.6,2.3-4.1,2.3c-2.6,0-4.1-0.9-4.1-2.3
			c0-1.5,1.6-2.3,4.1-2.3C356.2,489.4,357.7,490.3,357.7,491.8z M356.6,491.8c0-0.9-1.1-1.4-3-1.4s-3,0.5-3,1.4s1.1,1.4,3,1.4
			C355.5,493.2,356.6,492.6,356.6,491.8z M359.5,484.7v1h-1.9v3.4h-1.1v-7.6h1.1v3.2H359.5z"/>
		<path class="st7" d="M367,487.6h-5.7v-5.5h1.1v1.8h3.4v-1.8h1.1v1.2h2.9v-1.8h1.1v6.6h-1.1v-1.6H367V487.6z M365.9,484.8h-3.4v1.9
			h3.4V484.8z M371.5,493v0.9H363v-3.1h6.9v-1.2h-7v-0.9h8.1v3h-6.9v1.3L371.5,493L371.5,493z M367,484.2v1.4h2.9v-1.4H367z"/>
		<path class="st7" d="M383.8,481.8h1.1v11.7h-1.1v-6.1h-1.6c-0.1,2.5-1.1,4-2.7,4s-2.7-1.7-2.7-4.4c0-2.7,1.1-4.4,2.7-4.4
			c1.5,0,2.5,1.5,2.7,3.8h1.6V481.8z M381.2,486.9c0-2-0.6-3.3-1.6-3.3s-1.6,1.3-1.6,3.3c0,2.1,0.6,3.3,1.6,3.3
			C380.6,490.3,381.2,489,381.2,486.9z M387.4,481.5v12.6h-1.1v-12.6H387.4z"/>
		<path class="st7" d="M391.5,490.1c1.9,0,3.6-0.1,5.4-0.5l0.2,1c-2,0.4-3.8,0.5-5.7,0.5h-1v-8.2h1.1V490.1z M400,481.5v12.6h-1.1
			v-7.5H395v-1h3.9v-4.1H400z"/>
		<path class="st7" d="M407,485.4c0,2.1,1.5,4.3,3.4,5.1l-0.6,0.9c-1.5-0.7-2.7-2.1-3.3-3.8c-0.6,1.8-1.8,3.4-3.2,4.1l-0.7-0.9
			c1.8-0.9,3.3-3.2,3.3-5.4v-1.6H403v-1h7v1h-3L407,485.4L407,485.4z M412.8,481.5v12.6h-1.1v-12.6H412.8z"/>
		<path class="st7" d="M425.1,487.5h-5.9v-5.1h5.9V487.5z M425.4,490.5c0,1.2,2,2.4,4.1,2.7l-0.4,0.9c-1.9-0.3-3.6-1.1-4.3-2.3
			c-0.8,1.2-2.5,2-4.4,2.3l-0.4-0.9c2.1-0.3,4.1-1.4,4.2-2.7h-3.7v-0.9h3.7v-1.2h1.2v1.2h3.7v0.9H425.4z M423.9,483.2h-3.6v3.3h3.6
			V483.2z M428.8,488.7h-1.1v-7.2h1.1V488.7z"/>
	</g>
	<g class="st2">
		<path class="st7" d="M333.9,512.2v0.9h-11.3v-0.9h5.1v-1.3c-2.4-0.1-3.9-1-3.9-2.5c0-1.6,1.7-2.5,4.4-2.5c2.7,0,4.4,0.9,4.4,2.5
			c0,1.4-1.5,2.4-3.8,2.5v1.3H333.9z M325.1,516.9h7.5v0.9H324v-3.6h1.1V516.9z M328.2,510c2,0,3.2-0.6,3.2-1.6s-1.3-1.6-3.2-1.6
			c-2,0-3.2,0.6-3.2,1.6S326.2,510,328.2,510z"/>
		<path class="st7" d="M342.4,511.7c-1.4-0.5-2.6-1.6-3.2-2.9c-0.5,1.4-1.7,2.6-3.2,3.1l-0.6-0.9c1.9-0.7,3.2-2.3,3.2-4.2v-1h1.1v1
			c0,1.7,1.3,3.3,3.2,3.9L342.4,511.7z M346.1,517v0.9h-8.5v-3.1h7v-1.2h-7v-0.9h8.1v3h-7v1.3H346.1z M345.7,512h-1.1v-6.5h1.1V512z
			"/>
		<path class="st7" d="M354.7,506.9c0,3.6-1.6,6.8-5.7,8.8l-0.6-0.9c3.2-1.6,4.9-4,5.2-7H349v-1h5.7V506.9z M360,511.6h-2v6.5h-1.1
			v-12.6h1.1v5.1h2V511.6z"/>
		<path class="st7" d="M372.5,515.5v1h-11.4v-1H372.5z M371.5,512.8c-1.9-0.4-3.9-1.8-4.7-3.6c-0.8,1.8-2.8,3.2-4.7,3.6l-0.5-1
			c2.2-0.4,4.6-2.3,4.6-4.5v-1h1.2v1c0,2.1,2.4,4,4.6,4.5L371.5,512.8z"/>
		<path class="st7" d="M381.5,509.2c0,2.1,1.5,4.4,3.3,5.2l-0.7,0.9c-1.4-0.7-2.6-2.2-3.2-4c-0.5,1.8-1.8,3.5-3.2,4.2l-0.7-0.9
			c1.8-0.9,3.3-3.3,3.3-5.5v-1.5h-2.8v-0.9h6.8v0.9h-2.9v1.6H381.5z M387.5,505.5v12.6h-1.1V511h-2.7v-0.9h2.7v-4.6H387.5z"/>
		<path class="st7" d="M396.4,506.3c0,3.2-2.2,5.4-5.9,6.5l-0.4-0.9c3.1-0.8,4.9-2.5,5.1-4.6h-4.6v-0.9h5.8V506.3z M391.9,513.2h7.9
			v4.7h-7.9V513.2z M393,517h5.6v-2.8H393V517z M401.7,509.5h-1.9v3.1h-1.1v-7.1h1.1v3.1h1.9V509.5z"/>
		<path class="st7" d="M414.3,514.1h-5.1v4h-1.1v-4h-5.2v-0.9h11.4V514.1z M403.6,511.2c2.3-0.3,4.4-1.7,4.4-3.2h-4v-0.9h4v-1.5h1.1
			v1.5h4v0.9h-4c0,1.5,2.1,2.9,4.4,3.2l-0.4,0.9c-1.9-0.3-3.7-1.3-4.5-2.6c-0.8,1.4-2.6,2.3-4.6,2.6L403.6,511.2z"/>
		<path class="st7" d="M422.9,512.9c-1.4-0.5-2.6-1.5-3.2-2.9c-0.5,1.4-1.7,2.6-3.2,3.1l-0.6-0.9c1.9-0.7,3.2-2.3,3.2-4.1v-0.7h-2.9
			v-0.9h6.9v0.9h-2.8v0.7c0,1.7,1.3,3.2,3.2,3.8L422.9,512.9z M426.5,516.9v0.9H418v-4h1.1v3L426.5,516.9L426.5,516.9z M426.1,514.7
			H425v-9.2h1.1V514.7z"/>
	</g>
</g>
<g>
	<g class="st2">
		<path class="st7" d="M527.1,461.9c0-1.1,0.8-1.9,1.8-1.9c0.9,0,1.8,0.8,1.8,1.9s-0.8,1.9-1.8,1.9
			C527.9,463.8,527.1,463.1,527.1,461.9z"/>
		<path class="st7" d="M546.5,464.6v1h-11.4v-1h5.1V462h-3.7v-6.4h8.5v0.9h-7.4v1.8h7.1v0.9h-7.1v1.9h7.5v0.9h-3.8v2.6L546.5,464.6
			L546.5,464.6z"/>
		<path class="st7" d="M551.5,461.2c-1.9,0-3.3-1.2-3.3-3c0-1.7,1.4-2.9,3.3-2.9c1.9,0,3.3,1.2,3.3,2.9
			C554.7,460,553.4,461.2,551.5,461.2z M551.5,460.2c1.2,0,2.2-0.8,2.2-2s-0.9-2-2.2-2s-2.2,0.8-2.2,2S550.2,460.2,551.5,460.2z
			 M557.8,464.7c0,1.5-1.6,2.4-4.1,2.4s-4.1-0.9-4.1-2.4s1.6-2.4,4.1-2.4C556.2,462.4,557.8,463.2,557.8,464.7z M556.7,464.7
			c0-0.9-1.1-1.4-3-1.4s-3,0.5-3,1.4s1.1,1.4,3,1.4C555.6,466.2,556.7,465.6,556.7,464.7z M557.7,457.3v1.7h1.8v1h-1.8v1.9h-1.1
			v-7.4h1.1v1.9h1.8v0.9H557.7z"/>
		<path class="st7" d="M560.8,468c0.9-0.4,1.4-1.1,1.4-1.9c-0.1,0-0.1,0-0.2,0c-0.5,0-0.9-0.3-0.9-0.9c0-0.5,0.4-0.9,1-0.9
			c0.7,0,1.1,0.6,1.1,1.5c0,1.3-0.8,2.4-2,2.9L560.8,468z"/>
		<path class="st7" d="M579.2,462.6h-5.1v4.6H573v-4.6h-5.1v-1h11.3L579.2,462.6z M578.2,460.2c-1.9-0.3-3.8-1.4-4.7-2.9
			c-0.8,1.5-2.7,2.6-4.6,2.9l-0.5-0.9c2.3-0.3,4.5-1.8,4.5-3.6V455h1.2v0.7c0,1.8,2.2,3.3,4.5,3.6L578.2,460.2z"/>
		<path class="st7" d="M587.9,460.8c-1.5-0.4-2.6-1.4-3.2-2.7c-0.5,1.4-1.7,2.5-3.2,3l-0.5-0.9c1.9-0.6,3.2-2.1,3.2-3.9v-0.1h-2.9
			v-0.9h6.9v0.9h-2.8v0.1c0,1.6,1.3,3.1,3.2,3.6L587.9,460.8z M591.5,466v0.9H583v-3.1h7v-1.3h-7v-0.9h8.1v3h-7v1.4H591.5z
			 M591,461.1h-1.1v-6.5h1.1V461.1z"/>
		<path class="st7" d="M593.6,468c0.9-0.4,1.4-1.1,1.4-1.9c-0.1,0-0.1,0-0.2,0c-0.5,0-0.9-0.3-0.9-0.9c0-0.5,0.4-0.9,1-0.9
			c0.7,0,1.1,0.6,1.1,1.5c0,1.3-0.8,2.4-2,2.9L593.6,468z"/>
		<path class="st7" d="M602.2,463c1.7,0,2.9-0.1,4.2-0.4l0.1,1c-1.5,0.3-2.8,0.4-4.7,0.4H601v-7.9h4.7v0.9h-3.5V463z M611.3,454.5
			v12.6h-1.1v-6.6h-1.8v6h-1.1v-11.7h1.1v4.8h1.8v-5L611.3,454.5L611.3,454.5z"/>
		<path class="st7" d="M620.1,455.9c0,3.6-1.7,6.8-5.8,8.9l-0.6-0.9c3.4-1.6,5.1-4,5.3-7h-4.7V456h5.8V455.9z M623.8,454.5v12.6
			h-1.1v-12.6H623.8z"/>
		<path class="st7" d="M637.8,464.5v1h-11.4v-1h5.1v-2.6c-2.3-0.2-4-1.4-4-3.3c0-2,1.9-3.3,4.6-3.3c2.6,0,4.6,1.3,4.6,3.3
			c0,1.8-1.6,3.1-4,3.3v2.6H637.8z M632.1,461c2,0,3.5-0.9,3.5-2.4c0-1.4-1.5-2.4-3.5-2.4s-3.5,0.9-3.5,2.4S630.1,461,632.1,461z"/>
		<path class="st7" d="M649.6,454.5v7.2h-1.2V460h-3.2c-0.6,0.7-1.5,1.1-2.6,1.1c-1.9,0-3.2-1.2-3.2-3c0-1.7,1.4-2.9,3.2-2.9
			c1.1,0,2,0.4,2.5,1.1h3.2v-1.8L649.6,454.5z M644.8,458.2c0-1.1-0.9-2-2.1-2s-2.1,0.8-2.1,2s0.9,2,2.1,2S644.8,459.4,644.8,458.2z
			 M641.5,462.4h8.2v4.5h-8.2V462.4z M642.6,466h5.9v-2.7h-5.9V466z M648.5,459.2v-1.9h-2.7c0.1,0.3,0.2,0.6,0.2,0.9
			c0,0.4-0.1,0.7-0.2,1H648.5z"/>
	</g>
	<g class="st2">
		<path class="st7" d="M541.4,484.7v1.2h3.7v2.8h-7.4v1.2h7.8v0.9h-8.9v-3h7.4v-1.1h-7.4V486h3.7v-1.2h-5.1v-0.9h11.4v0.9
			L541.4,484.7L541.4,484.7z M545.1,482.8h-8.4V479h8.4V482.8z M543.9,479.9h-6.2v2h6.2V479.9z"/>
		<path class="st7" d="M555.2,484.8c-1.5-0.4-2.6-1.4-3.2-2.7c-0.5,1.4-1.7,2.5-3.2,3l-0.5-0.9c1.9-0.6,3.2-2.1,3.2-3.9v-0.1h-2.9
			v-0.9h6.9v0.9h-2.9v0.1c0,1.6,1.3,3.1,3.2,3.6L555.2,484.8z M558.8,490v0.9h-8.5v-3.1h7v-1.3h-7v-0.9h8.1v3h-7v1.4H558.8z
			 M558.4,485.1h-1.1v-6.5h1.1V485.1z"/>
		<path class="st7" d="M568.8,487.5c1.2-0.1,2.4-0.2,3.5-0.3l0.1,0.9c-2.8,0.5-5.9,0.5-8.1,0.5l-0.2-1c1,0,2.3,0,3.5,0v-2.3h1.1v2.2
			H568.8z M564.5,484.7c1.8-0.6,3.1-1.9,3.2-3.6h-2.9v-0.9h2.9v-1.5h1.1v1.5h2.9v0.9h-2.9c0,1.6,1.3,2.9,3.2,3.5l-0.5,0.9
			c-1.5-0.4-2.6-1.4-3.2-2.6c-0.5,1.3-1.7,2.3-3.2,2.8L564.5,484.7z M574.3,478.5v12.6h-1.1v-12.6H574.3z"/>
		<path class="st7" d="M588.4,488.5v0.9H577v-0.9h5.1v-3.1h1.1v3.1H588.4z M587.3,485.6c-1.9-0.4-3.9-1.7-4.7-3.5
			c-0.8,1.8-2.8,3.1-4.7,3.5l-0.5-1c2.2-0.4,4.6-2.2,4.6-4.3v-1h1.2v1c0,2.1,2.4,3.9,4.6,4.3L587.3,485.6z"/>
		<path class="st7" d="M594.3,487.7c1.1-0.1,2.3-0.1,3.4-0.3l0.1,0.9c-2.7,0.5-5.6,0.5-7.8,0.5l-0.2-1c1,0,2.2,0,3.4,0v-1.4
			c-1.4-0.2-2.4-1.1-2.4-2.3c0-1.4,1.2-2.3,3-2.3s3,0.9,3,2.3c0,1.2-1,2.1-2.4,2.3L594.3,487.7L594.3,487.7z M597.4,481h-7.5v-0.9
			h3.2v-1.5h1.1v1.5h3.2V481z M593.7,485.5c1.1,0,1.9-0.6,1.9-1.4c0-0.9-0.8-1.4-1.9-1.4c-1.1,0-1.9,0.6-1.9,1.4
			C591.8,484.9,592.6,485.5,593.7,485.5z M601.5,484.8h-2v6.3h-1.1v-12.6h1.1v5.3h2V484.8z"/>
	</g>
	<g class="st2">
		<path class="st7" d="M527.1,510.7c0-1.1,0.8-1.9,1.8-1.9c0.9,0,1.8,0.8,1.8,1.9s-0.8,1.9-1.8,1.9
			C527.9,512.5,527.1,511.8,527.1,510.7z"/>
		<path class="st7" d="M539.3,506.6c0,2.2,1.4,4.5,3.2,5.4l-0.7,0.9c-1.3-0.7-2.5-2.2-3-3.9c-0.5,1.8-1.7,3.4-3.1,4.2l-0.7-0.9
			c1.8-0.9,3.2-3.3,3.2-5.6v-2.3h1.1V506.6z M546.8,509.3h-2.1v6.5h-1.1v-12.6h1.1v5.1h2.1V509.3z"/>
		<path class="st7" d="M558.3,503.3v6.7h-1.2v-2.8h-2.5c-0.2,1.5-1.5,2.5-3.2,2.5c-1.9,0-3.2-1.2-3.2-2.9c0-1.7,1.4-2.9,3.2-2.9
			c1.7,0,3,1,3.2,2.4h2.6v-3L558.3,503.3L558.3,503.3z M553.5,506.7c0-1.1-0.9-1.9-2.1-1.9s-2.1,0.8-2.1,1.9s0.9,2,2.1,2
			S553.5,507.9,553.5,506.7z M557.1,510.6h1.1v5h-8v-5h1.1v1.6h5.8L557.1,510.6L557.1,510.6z M557.1,513.1h-5.8v1.6h5.8V513.1z"/>
		<path class="st7" d="M567.6,510.2c-1.4-0.5-2.5-1.5-3-2.7c-0.5,1.4-1.7,2.5-3.2,3.1l-0.6-0.9c1.9-0.7,3.2-2.3,3.2-4.1v-0.5h-2.8
			v-0.9h6.7v0.9h-2.8v0.5c0,1.6,1.2,3.1,3,3.7L567.6,510.2z M570.7,513.5c0,1.5-1.6,2.3-4.1,2.3c-2.6,0-4.1-0.9-4.1-2.3
			c0-1.5,1.6-2.3,4.1-2.3C569.1,511.2,570.7,512,570.7,513.5z M569.6,513.5c0-0.9-1.1-1.4-3-1.4s-3,0.5-3,1.4s1.1,1.4,3,1.4
			C568.4,514.9,569.6,514.4,569.6,513.5z M572.4,506.4v1h-1.9v3.4h-1.1v-7.6h1.1v3.2H572.4z"/>
		<path class="st7" d="M580,509.3h-5.7v-5.5h1.1v1.8h3.4v-1.8h1.1v1.2h2.9v-1.8h1.1v6.6h-1.1v-1.6H580V509.3z M578.9,506.5h-3.4v1.9
			h3.4V506.5z M584.5,514.7v0.9H576v-3.1h6.9v-1.2h-7v-0.9h8.1v3h-6.9v1.3H584.5z M580,505.9v1.4h2.9v-1.4H580z"/>
		<path class="st7" d="M601.1,513.3v1h-11.4v-1h5.1v-2.6c-2.3-0.2-4-1.4-4-3.3c0-2,1.9-3.3,4.6-3.3c2.6,0,4.6,1.3,4.6,3.3
			c0,1.8-1.6,3.1-4,3.3v2.6H601.1z M595.4,509.8c2,0,3.5-0.9,3.5-2.4c0-1.4-1.5-2.4-3.5-2.4s-3.5,0.9-3.5,2.4
			C591.9,508.8,593.4,509.8,595.4,509.8z"/>
		<path class="st7" d="M613,503.3v7.2h-1.2v-1.7h-3.2c-0.6,0.7-1.5,1.1-2.6,1.1c-1.9,0-3.2-1.2-3.2-3c0-1.7,1.4-2.9,3.2-2.9
			c1,0,2,0.4,2.5,1.1h3.2v-1.8L613,503.3z M608.2,506.9c0-1.1-0.9-2-2.1-2c-1.2,0-2.1,0.8-2.1,2s0.9,2,2.1,2
			S608.2,508.1,608.2,506.9z M604.8,511.1h8.2v4.5h-8.2V511.1z M605.9,514.7h5.9V512h-5.9V514.7z M611.8,507.9V506h-2.7
			c0.1,0.3,0.2,0.6,0.2,0.9c0,0.4-0.1,0.7-0.2,1H611.8z"/>
		<path class="st7" d="M621.7,509.5v1.2h3.7v2.8H618v1.2h7.8v0.9h-8.9v-3h7.4v-1.1h-7.4v-0.9h3.7v-1.2h-5.1v-0.9h11.4v0.9
			L621.7,509.5L621.7,509.5z M625.4,507.5H617v-3.8h8.4V507.5z M624.2,504.6H618v2h6.2V504.6z"/>
		<path class="st7" d="M635.5,509.5c-1.5-0.4-2.6-1.4-3.2-2.7c-0.5,1.4-1.7,2.5-3.2,3l-0.5-0.9c1.9-0.6,3.2-2.1,3.2-3.9v-0.1h-2.9
			V504h6.9v0.9H633v0.1c0,1.6,1.3,3.1,3.2,3.6L635.5,509.5z M639.1,514.8v0.9h-8.5v-3.1h7v-1.3h-7v-0.9h8.1v3h-7v1.4L639.1,514.8
			L639.1,514.8z M638.7,509.8h-1.1v-6.5h1.1V509.8z"/>
	</g>
	<g class="st2">
		<path class="st7" d="M539.7,530.9c0,2.1,1.5,4.4,3.3,5.2l-0.7,0.9c-1.4-0.7-2.6-2.2-3.2-4c-0.5,1.8-1.8,3.5-3.2,4.2l-0.7-0.9
			c1.8-0.9,3.3-3.3,3.3-5.5v-1.5h-2.8v-0.9h6.8v0.9h-2.9v1.6H539.7z M545.7,527.3v12.6h-1.1v-7.1h-2.7v-0.9h2.7v-4.6H545.7z"/>
		<path class="st7" d="M554.6,528.1c0,3.2-2.2,5.4-5.9,6.5l-0.4-0.9c3.1-0.8,4.9-2.5,5.1-4.6h-4.6v-0.9L554.6,528.1L554.6,528.1z
			 M550.1,535h7.9v4.7h-7.9V535z M551.2,538.7h5.6v-2.8h-5.6V538.7z M559.9,531.3H558v3.1h-1.1v-7.1h1.1v3.1h1.9V531.3z"/>
		<path class="st7" d="M572.2,533.9c-2.7,0.5-5.6,0.5-7.8,0.5l-0.1-0.9c1,0,2.1,0,3.3,0v-0.8c-1.5-0.1-2.4-0.7-2.4-1.6
			c0-1,1.1-1.7,2.9-1.7c1.8,0,2.9,0.6,2.9,1.7c0,0.9-0.9,1.5-2.4,1.6v0.7c1.1-0.1,2.3-0.1,3.4-0.3L572.2,533.9z M571.8,529h-7.2
			v-0.8h3v-1.1h1.1v1.1h3v0.8H571.8z M567,538.9h7.5v0.8h-8.6V537h7v-1h-7v-0.8h8.1v2.6h-7V538.9z M568.2,532c1.1,0,1.8-0.3,1.8-0.9
			s-0.7-0.9-1.8-0.9s-1.8,0.3-1.8,0.9S567,532,568.2,532z M575.9,530.5v1h-1.8v3.2H573v-7.4h1.1v3.2H575.9z"/>
		<path class="st7" d="M588.5,533.5v0.9h-11.4v-0.9h5.1V532h-3.7v-4.2h8.5v0.9h-7.4v2.3h7.5v0.9h-3.8v1.5L588.5,533.5L588.5,533.5z
			 M587.1,537.6c0,1.5-1.6,2.3-4.3,2.3s-4.3-0.8-4.3-2.3s1.6-2.3,4.3-2.3S587.1,536.1,587.1,537.6z M586,537.6
			c0-0.9-1.2-1.4-3.1-1.4c-2,0-3.2,0.5-3.2,1.4s1.2,1.4,3.2,1.4C584.8,538.9,586,538.4,586,537.6z"/>
		<path class="st7" d="M604.6,535.8h-5.1v4h-1.1v-4h-5.1v-0.9h11.4v0.9H604.6z M593.9,533c2.3-0.3,4.4-1.7,4.4-3.2h-4v-0.9h4v-1.5
			h1.1v1.5h4v0.9h-4c0,1.5,2.1,2.9,4.4,3.2l-0.4,0.9c-1.9-0.3-3.7-1.3-4.5-2.6c-0.8,1.4-2.6,2.3-4.6,2.6L593.9,533z"/>
		<path class="st7" d="M613.2,534.7c-1.4-0.5-2.6-1.5-3.2-2.9c-0.5,1.4-1.7,2.6-3.2,3.1l-0.6-0.9c1.9-0.7,3.2-2.3,3.2-4.1v-0.7h-2.9
			v-0.9h6.9v0.9h-2.8v0.7c0,1.7,1.3,3.2,3.2,3.8L613.2,534.7z M616.8,538.6v0.9h-8.5v-4h1.1v3L616.8,538.6L616.8,538.6z
			 M616.4,536.5h-1.1v-9.2h1.1V536.5z"/>
	</g>
</g>
<g id="그룹_4005" transform="translate(1091.662 1324.572)">
	<path id="패스_1538" class="st6" d="M-730.8-1188.9v210.6"/>
</g>
<g id="그룹_4006" transform="translate(1369.933 1324.572)">
	<path id="패스_1539" class="st6" d="M-729.1-1188.9v210.6"/>
</g>
</svg>
