<?xml version="1.0" encoding="utf-8"?>
<!-- Generator: Adobe Illustrator 25.3.1, SVG Export Plug-In . SVG Version: 6.00 Build 0)  -->
<svg version="1.1" id="레이어_1" xmlns="http://www.w3.org/2000/svg" xmlns:xlink="http://www.w3.org/1999/xlink" x="0px"
	 y="0px" viewBox="0 0 335 452.1" style="enable-background:new 0 0 335 452.1;" xml:space="preserve">
<style type="text/css">
	.st0{enable-background:new    ;}
	.st1{fill:#3AA25C;}
	.st2{fill:#FAFAFA;}
	.st3{fill:#FFFFFF;}
	.st4{fill:#555555;}
</style>
<g id="그룹_5865" transform="translate(-20 -1680.804)">
	<g id="그룹_5800">
		<g class="st0">
			<path class="st1" d="M32.3,1693.8h-2.7v4.2h-1.9v-4.2h-2.6v4.2h-1.9v-4.2h-2.6v-1.5h11.7V1693.8z M21.8,1688.4
				c0-1.8,1.9-2.9,4.7-2.9c2.7,0,4.7,1.1,4.7,2.9c0,1.8-1.9,2.9-4.7,2.9C23.7,1691.3,21.8,1690.2,21.8,1688.4z M23.6,1688.4
				c0,0.9,1.1,1.4,2.8,1.4c1.7,0,2.8-0.5,2.8-1.4c0-0.9-1.1-1.4-2.8-1.4C24.7,1687,23.6,1687.5,23.6,1688.4z"/>
			<path class="st1" d="M37.5,1687.1h2.1v1.5h-6.2v-1.5h2.2v-1.6h1.8V1687.1z M39.4,1692.2c0,1.8-1.2,3.1-2.8,3.1
				c-1.7,0-2.8-1.3-2.8-3.1c0-1.8,1.2-3.1,2.8-3.1C38.2,1689.1,39.4,1690.4,39.4,1692.2z M37.8,1692.2c0-1-0.5-1.5-1.2-1.5
				c-0.7,0-1.2,0.6-1.2,1.5s0.5,1.5,1.2,1.5C37.3,1693.7,37.8,1693.1,37.8,1692.2z M44.5,1685.1v12.9h-1.8v-6.1h-1v5.6h-1.7v-12.1
				h1.7v5h1v-5.3H44.5z"/>
			<path class="st1" d="M51.2,1694.3c1-0.1,2-0.1,2.9-0.3l0.1,1.3c-2.7,0.5-5.6,0.5-7.8,0.5l-0.2-1.5c0.9,0,2,0,3.1,0v-1.1
				c-1.3-0.3-2.2-1.1-2.2-2.3c0-1.4,1.3-2.4,3.2-2.4c1.8,0,3.2,1,3.2,2.4c0,1.2-0.9,2.1-2.2,2.3V1694.3z M54.1,1688h-7.6v-1.5h2.9
				v-1.4h1.8v1.4h2.9V1688z M50.3,1692c0.8,0,1.4-0.4,1.4-1.1c0-0.7-0.6-1-1.4-1c-0.8,0-1.4,0.4-1.4,1
				C48.9,1691.6,49.4,1692,50.3,1692z M58.2,1691.9h-1.6v6.1h-1.8v-12.9h1.8v5.3h1.6V1691.9z"/>
			<path class="st1" d="M66.8,1687.7h-7.6v-1.5h2.9v-1.2H64v1.2h2.9V1687.7z M63,1692.9c-1.8,0-3.2-1-3.2-2.4c0-1.4,1.3-2.4,3.2-2.4
				c1.9,0,3.2,1,3.2,2.4C66.2,1691.9,64.9,1692.9,63,1692.9z M60.8,1693.7h8.6v4.3h-1.8v-2.8h-6.8V1693.7z M63,1691.5
				c0.8,0,1.4-0.3,1.4-1c0-0.6-0.6-1-1.4-1c-0.8,0-1.4,0.3-1.4,1C61.6,1691.1,62.2,1691.5,63,1691.5z M71.1,1690h-1.7v3.2h-1.8v-8.1
				h1.8v3.3h1.7V1690z"/>
			<path class="st1" d="M78.9,1691.7v0.8h3.5v3.3h-7.1v0.7h7.4v1.4h-9.2v-3.4h7.1v-0.7h-7.1v-1.4H77v-0.8h-4.9v-1.5h11.7v1.5H78.9z
				 M82.3,1689.5h-8.7v-4h8.7V1689.5z M80.5,1686.9h-5.1v1.2h5.1V1686.9z"/>
			<path class="st1" d="M92.2,1691.6c-1.5-0.4-2.5-1.2-3.1-2.3c-0.6,1.2-1.7,2.2-3.2,2.6l-0.9-1.4c2-0.6,2.9-1.9,3.1-3.3h-2.6v-1.5
				h7v1.5H90c0.1,1.2,1.1,2.5,3,3L92.2,1691.6z M96,1696.5v1.4h-8.9v-3.5h6.8v-0.8h-6.8v-1.4h8.6v3.5H89v0.8H96z M95.7,1691.7h-1.8
				v-6.6h1.8V1691.7z"/>
			<path class="st1" d="M108.9,1692.5c-2.7,0.5-5.7,0.5-7.9,0.6l-0.2-1.5c0.7,0,1.5,0,2.4,0v-2.5h1.8v2.4c1.3-0.1,2.6-0.2,3.8-0.3
				L108.9,1692.5z M106.1,1690.4c0.2-1.2,0.3-2.1,0.3-2.9h-4.8v-1.5h6.6v0.8c0,0.9,0,2.2-0.3,3.8L106.1,1690.4z M104.6,1696.3h7.2
				v1.5h-9v-3.9h1.8V1696.3z M112.9,1689v1.5h-1.5v4.2h-1.8v-9.7h1.8v3.9H112.9z"/>
			<path class="st1" d="M116.5,1693.5c2,0,3.6-0.1,5.4-0.4l0.2,1.5c-2.1,0.4-4,0.4-6.3,0.4h-1.2v-5.3h4.2v-2.1h-4.2v-1.5h6.1v5h-4.2
				V1693.5z M124.7,1685.1v12.9h-1.8v-12.9H124.7z"/>
		</g>
		<path id="패스_4996" class="st2" d="M20,1848.8h335v-98H20L20,1848.8z"/>
		<path id="패스_4997" class="st2" d="M20,1990.8h335v-98H20L20,1990.8z"/>
		<path id="패스_4998" class="st2" d="M20,2132.9h335v-98H20L20,2132.9z"/>
		<rect id="사각형_504" x="20" y="1710.8" class="st1" width="335" height="40"/>
		<rect id="사각형_505" x="20" y="1852.8" class="st1" width="335" height="40"/>
		<rect id="사각형_506" x="20" y="1994.8" class="st1" width="335" height="40"/>
		<g class="st0">
			<path class="st3" d="M167.6,1728.6c0,2-1.6,3.4-3.8,3.4c-2.2,0-3.8-1.4-3.8-3.4c0-2,1.6-3.4,3.8-3.4
				C165.9,1725.2,167.6,1726.6,167.6,1728.6z M161.5,1728.6c0,1.2,0.9,2,2.2,2c1.3,0,2.2-0.8,2.2-2c0-1.2-0.9-2-2.2-2
				C162.4,1726.6,161.5,1727.4,161.5,1728.6z M163.7,1733v1.6h6.2v-1.6h1.6v5.8h-9.4v-5.8H163.7z M163.7,1737.5h6.2v-1.6h-6.2
				V1737.5z M171.5,1724.6v7.8h-1.6v-7.8H171.5z"/>
			<path class="st3" d="M187.2,1735.8v1.4h-13.1v-1.4h4.9v-5.1h1.7v5.1H187.2z M184.2,1727.3h-8.6v-1.3h10.3v1.4
				c0,1.8,0,3.8-0.6,6.8l-1.7-0.2C184.2,1731.1,184.2,1729.1,184.2,1727.3L184.2,1727.3z"/>
			<path class="st3" d="M197.7,1732.7c-3,0.5-6.4,0.6-8.9,0.6l-0.2-1.3c0.9,0,1.9,0,2.9,0v-3h1.6v2.9c1.5-0.1,3.1-0.2,4.5-0.4
				L197.7,1732.7z M194.8,1730.6c0.3-1.6,0.3-2.7,0.4-3.6h-5.7v-1.3h7.3v0.8c0,1,0,2.4-0.4,4.3L194.8,1730.6z M192.4,1737.4h8.2v1.3
				h-9.8v-4.3h1.7V1737.4z M202,1729.2v1.4h-1.9v4.9h-1.7v-10.9h1.7v4.6H202z"/>
			<path class="st3" d="M205.8,1734.3c2.3,0,4.3-0.1,6.6-0.5l0.2,1.3c-2.5,0.4-4.6,0.5-7.2,0.5h-1.2v-5.7h5v-2.7h-5.1v-1.3h6.7v5.4
				h-5V1734.3z M215.2,1724.6v14.5h-1.7v-14.5H215.2z"/>
		</g>
		<g class="st0">
			<path class="st3" d="M172.7,1877.9v1.4h-13.1v-1.4h5.7v-2.9h-4.2v-7.5h1.6v2.4h6.9v-2.4h1.6v7.5H167v2.9H172.7z M162.7,1873.7
				h6.9v-2.4h-6.9V1873.7z"/>
			<path class="st3" d="M183.1,1874.7c-3,0.5-6.4,0.6-8.9,0.6l-0.2-1.3c0.9,0,1.9,0,2.9,0v-3h1.6v2.9c1.5-0.1,3.1-0.2,4.5-0.4
				L183.1,1874.7z M180.2,1872.6c0.3-1.6,0.3-2.7,0.4-3.6h-5.7v-1.3h7.3v0.8c0,1,0,2.4-0.4,4.3L180.2,1872.6z M177.9,1879.4h8.2v1.3
				h-9.8v-4.3h1.7V1879.4z M187.5,1871.2v1.4h-1.9v4.9h-1.7v-10.9h1.7v4.6H187.5z"/>
			<path class="st3" d="M197.7,1874.7c-3,0.5-6.4,0.6-8.9,0.6l-0.2-1.3c0.9,0,1.9,0,2.9,0v-3h1.6v2.9c1.5-0.1,3.1-0.2,4.5-0.4
				L197.7,1874.7z M194.8,1872.6c0.3-1.6,0.3-2.7,0.4-3.6h-5.7v-1.3h7.3v0.8c0,1,0,2.4-0.4,4.3L194.8,1872.6z M192.4,1879.4h8.2v1.3
				h-9.8v-4.3h1.7V1879.4z M202,1871.2v1.4h-1.9v4.9h-1.7v-10.9h1.7v4.6H202z"/>
			<path class="st3" d="M205.8,1876.3c2.3,0,4.3-0.1,6.6-0.5l0.2,1.3c-2.5,0.4-4.6,0.5-7.2,0.5h-1.2v-5.7h5v-2.7h-5.1v-1.3h6.7v5.4
				h-5V1876.3z M215.2,1866.6v14.5h-1.7v-14.5H215.2z"/>
		</g>
		<g class="st0">
			<path class="st3" d="M167,2016.1v1.1h4.1v3.4h-8.2v1.1h8.6v1.2h-10.3v-3.5h8.2v-1h-8.3v-1.2h4.2v-1.1h-5.7v-1.2h13v1.2H167z
				 M160.2,2013.2c2.8-0.2,4.6-1,4.9-2.1h-4.3v-1.2h4.4v-1.3h1.6v1.3h4.4v1.2h-4.3c0.3,1.1,2.1,1.9,4.9,2.1l-0.4,1.2
				c-2.6-0.2-4.5-0.9-5.5-2.1c-0.9,1.2-2.9,1.9-5.4,2.1L160.2,2013.2z"/>
			<path class="st3" d="M187.2,2019.8v1.4h-13.1v-1.4h4.9v-5.1h1.7v5.1H187.2z M184.2,2011.3h-8.6v-1.3h10.3v1.4
				c0,1.8,0,3.8-0.6,6.8l-1.7-0.2C184.2,2015.2,184.2,2013.1,184.2,2011.3L184.2,2011.3z"/>
			<path class="st3" d="M197.7,2016.7c-3,0.5-6.4,0.6-8.9,0.6l-0.2-1.3c0.9,0,1.9,0,2.9,0v-3h1.6v2.9c1.5-0.1,3.1-0.2,4.5-0.4
				L197.7,2016.7z M194.8,2014.6c0.3-1.6,0.3-2.7,0.4-3.6h-5.7v-1.3h7.3v0.8c0,1,0,2.4-0.4,4.3L194.8,2014.6z M192.4,2021.5h8.2v1.3
				h-9.8v-4.3h1.7V2021.5z M202,2013.2v1.4h-1.9v4.9h-1.7v-10.9h1.7v4.6H202z"/>
			<path class="st3" d="M205.8,2018.3c2.3,0,4.3-0.1,6.6-0.5l0.2,1.3c-2.5,0.4-4.6,0.5-7.2,0.5h-1.2v-5.7h5v-2.7h-5.1v-1.3h6.7v5.4
				h-5V2018.3z M215.2,2008.6v14.5h-1.7v-14.5H215.2z"/>
		</g>
		<g class="st0">
			<path class="st4" d="M33.6,1778c0-1.1,0.8-1.8,1.6-1.8c0.9,0,1.6,0.7,1.6,1.8c0,1-0.8,1.7-1.6,1.7
				C34.3,1779.7,33.6,1779,33.6,1778z"/>
			<path class="st4" d="M54.5,1778.6h-2.8v4.1h-1.1v-4.1h-2.9v4.1h-1.1v-4.1h-2.7v-0.9h10.6V1778.6z M45.1,1774.1
				c0-1.6,1.7-2.5,4.1-2.5c2.4,0,4.1,1,4.1,2.5s-1.7,2.5-4.1,2.5C46.8,1776.7,45.1,1775.7,45.1,1774.1z M46.2,1774.1
				c0,1,1.2,1.7,3,1.7c1.8,0,3-0.7,3-1.7s-1.2-1.7-3-1.7C47.4,1772.4,46.2,1773.1,46.2,1774.1z"/>
			<path class="st4" d="M59.3,1773.1h2.4v0.9h-5.8v-0.9h2.4v-1.7h1.1V1773.1z M61.3,1777.4c0,1.6-1.1,2.7-2.5,2.7s-2.5-1.1-2.5-2.7
				c0-1.6,1.1-2.7,2.5-2.7S61.3,1775.8,61.3,1777.4z M60.3,1777.4c0-1-0.6-1.8-1.5-1.8c-0.9,0-1.5,0.7-1.5,1.8c0,1,0.6,1.8,1.5,1.8
				C59.7,1779.2,60.3,1778.4,60.3,1777.4z M65.8,1771.1v11.7h-1v-5.9h-1.5v5.3h-1v-10.8h1v4.7h1.5v-4.9H65.8z"/>
			<path class="st4" d="M71.9,1779.6c1.1-0.1,2.1-0.1,3.1-0.3l0.1,0.8c-2.5,0.4-5.2,0.5-7.3,0.5l-0.1-0.9c0.9,0,2,0,3.2,0v-1.3
				c-1.3-0.2-2.2-1-2.2-2.1c0-1.3,1.1-2.2,2.8-2.2c1.6,0,2.8,0.8,2.8,2.2c0,1.2-0.9,2-2.2,2.1V1779.6z M74.9,1773.4h-7v-0.8h3v-1.4
				h1.1v1.4h2.9V1773.4z M71.4,1777.5c1,0,1.7-0.5,1.7-1.3c0-0.8-0.7-1.3-1.7-1.3s-1.7,0.5-1.7,1.3
				C69.7,1777,70.4,1777.5,71.4,1777.5z M78.6,1777h-1.8v5.8h-1.1v-11.7h1.1v5h1.8V1777z"/>
			<path class="st4" d="M86.7,1773.2h-6.9v-0.9h2.9v-1.3h1.1v1.3h2.9V1773.2z M83.3,1778c-1.7,0-2.8-0.8-2.8-2.1
				c0-1.3,1.1-2.1,2.8-2.1c1.7,0,2.8,0.8,2.8,2.1C86.1,1777.2,84.9,1778,83.3,1778z M81.3,1779h7.6v3.7h-1.1v-2.9h-6.5V1779z
				 M83.3,1777.2c1.1,0,1.8-0.5,1.8-1.3c0-0.8-0.7-1.3-1.8-1.3s-1.8,0.5-1.8,1.3C81.5,1776.7,82.2,1777.2,83.3,1777.2z M90.6,1775.2
				h-1.7v3.2h-1.1v-7.3h1.1v3.2h1.7V1775.2z"/>
			<path class="st4" d="M97.6,1776.9v1.1h3.4v2.6h-6.9v1.2h7.2v0.8h-8.2v-2.8h6.8v-1H93v-0.8h3.5v-1.1h-4.7v-0.9h10.6v0.9H97.6z
				 M100.9,1775h-7.8v-3.5h7.8V1775z M99.9,1772.3h-5.7v1.9h5.7V1772.3z"/>
			<path class="st4" d="M110.4,1776.9c-1.4-0.4-2.4-1.3-3-2.5c-0.5,1.3-1.6,2.3-3,2.8l-0.5-0.8c1.8-0.6,3-2,3-3.6v-0.1h-2.7v-0.9
				h6.4v0.9h-2.6v0.1c0,1.5,1.2,2.8,2.9,3.3L110.4,1776.9z M113.7,1781.8v0.8h-7.9v-2.9h6.5v-1.2h-6.5v-0.8h7.6v2.8h-6.5v1.3H113.7z
				 M113.3,1777.2h-1.1v-6h1.1V1777.2z"/>
			<path class="st4" d="M122.5,1774.2c0,2.1,1.3,4.2,3,5l-0.7,0.8c-1.2-0.7-2.3-2-2.8-3.6c-0.5,1.7-1.6,3.2-2.9,3.9l-0.6-0.9
				c1.7-0.9,3-3.1,3-5.2v-2.1h1.1V1774.2z M129.5,1776.7h-1.9v6h-1.1v-11.6h1.1v4.7h1.9V1776.7z"/>
			<path class="st4" d="M136.9,1777.9c-1.3-0.5-2.3-1.4-2.8-2.6c-0.5,1.3-1.6,2.4-2.9,2.9l-0.6-0.8c1.7-0.6,2.9-2.2,2.9-3.8v-0.6
				h-2.6v-0.9h6.2v0.9h-2.6v0.6c0,1.5,1.1,3,2.8,3.6L136.9,1777.9z M140.5,1781.6v0.9h-7.8v-3.6h1.1v2.7H140.5z M139.1,1774.3v-3.2
				h1.1v8.5h-1.1v-4.5h-2.3v-0.9H139.1z"/>
			<path class="st4" d="M148.7,1777.7c-1.7,0-3-1.2-3-2.9c0-1.7,1.3-2.9,3-2.9s3,1.2,3,2.9C151.7,1776.5,150.4,1777.7,148.7,1777.7z
				 M148.7,1776.7c1.1,0,2-0.8,2-1.9c0-1.1-0.9-2-2-2s-2,0.8-2,2C146.7,1775.9,147.5,1776.7,148.7,1776.7z M148.3,1781.6h6.7v0.9
				h-7.8v-3.7h1.1V1781.6z M156.2,1774.7v0.9h-1.7v4.1h-1.1v-8.6h1.1v3.5H156.2z"/>
			<path class="st4" d="M163.7,1777.9c-1.3-0.5-2.3-1.4-2.8-2.6c-0.5,1.3-1.6,2.4-2.9,2.9l-0.6-0.8c1.7-0.6,2.9-2.2,2.9-3.8v-0.6
				h-2.6v-0.9h6.2v0.9h-2.6v0.6c0,1.5,1.1,3,2.8,3.6L163.7,1777.9z M167.3,1781.6v0.9h-7.8v-3.6h1.1v2.7H167.3z M165.9,1774.3v-3.2
				h1.1v8.5h-1.1v-4.5h-2.3v-0.9H165.9z"/>
			<path class="st4" d="M175.6,1777.5c-1.3-0.5-2.3-1.4-2.8-2.6c-0.5,1.4-1.5,2.4-3,3l-0.6-0.9c1.8-0.6,3-2.2,3-4v-1.2h1.1v1.2
				c0,1.7,1.1,3.1,2.8,3.7L175.6,1777.5z M179,1780.6c0,1.4-1.5,2.2-3.9,2.2s-3.9-0.8-3.9-2.2c0-1.4,1.5-2.2,3.9-2.2
				S179,1779.2,179,1780.6z M177.9,1780.6c0-0.9-1.1-1.4-2.8-1.4s-2.8,0.5-2.8,1.4c0,0.8,1.1,1.4,2.8,1.4S177.9,1781.4,177.9,1780.6
				z M177.9,1774.5h-2.5v-0.9h2.5v-2.5h1.1v6.9h-1.1V1774.5z"/>
			<path class="st4" d="M191.1,1777.2c-2.2,0.4-4.9,0.4-6.8,0.4l-0.1-0.9c0.4,0,0.9,0,1.5,0v-3.9h-1.2v-0.9h6.1v0.9h-1.2v3.7
				c0.5,0,1-0.1,1.5-0.1L191.1,1777.2z M193.9,1780.6c0,1.4-1.5,2.1-3.9,2.1c-2.4,0-3.9-0.8-3.9-2.1c0-1.3,1.5-2.1,3.9-2.1
				C192.4,1778.5,193.9,1779.3,193.9,1780.6z M186.8,1776.7c0.6,0,1.2,0,1.8-0.1v-3.8h-1.8V1776.7z M192.8,1780.6
				c0-0.8-1.1-1.3-2.8-1.3s-2.8,0.5-2.8,1.3c0,0.8,1.1,1.3,2.8,1.3S192.8,1781.5,192.8,1780.6z M192.7,1776.1h-1.9v-0.9h1.9v-1.2
				h-1.9v-0.9h1.9v-2.1h1.1v7.2h-1.1V1776.1z"/>
			<path class="st4" d="M202.1,1772.4c0,3.3-1.5,6.3-5.3,8.2l-0.6-0.8c3-1.5,4.6-3.7,4.8-6.5h-4.3v-0.9H202.1z M207,1776.7h-1.9v6
				h-1.1v-11.7h1.1v4.7h1.9V1776.7z"/>
		</g>
		<g class="st0">
			<path class="st4" d="M33.6,1799c0-1.1,0.8-1.8,1.6-1.8c0.9,0,1.6,0.7,1.6,1.8c0,1-0.8,1.7-1.6,1.7
				C34.3,1800.7,33.6,1800,33.6,1799z"/>
			<path class="st4" d="M50.3,1798.6c-1.3-0.5-2.3-1.4-2.8-2.6c-0.5,1.3-1.6,2.4-2.9,2.9l-0.6-0.8c1.7-0.6,2.9-2.2,2.9-3.8v-0.5
				h-2.6v-0.9h6.2v0.9H48v0.5c0,1.5,1.1,3,2.8,3.6L50.3,1798.6z M45.7,1799.7h7.8v4.1h-1.1v-3.2h-6.7V1799.7z M53.5,1792.1v7h-1.1
				v-3.1h-2.3v-0.9h2.3v-3H53.5z"/>
			<path class="st4" d="M62.2,1798.6c-1.3-0.5-2.3-1.4-2.8-2.6c-0.5,1.4-1.6,2.4-2.9,3l-0.6-0.8c1.7-0.6,2.9-2.2,2.9-3.9v-0.4h-2.6
				v-0.9h6.2v0.9h-2.6v0.4c0,1.5,1.1,3,2.8,3.6L62.2,1798.6z M65.5,1801.6c0,1.4-1.5,2.2-3.9,2.2s-3.9-0.8-3.9-2.2s1.5-2.2,3.9-2.2
				S65.5,1800.2,65.5,1801.6z M64.5,1801.6c0-0.8-1.1-1.4-2.8-1.4s-2.8,0.5-2.8,1.4s1.1,1.3,2.8,1.3S64.5,1802.4,64.5,1801.6z
				 M64.4,1795.1v-3h1.1v6.9h-1.1v-3.1h-2.3v-0.9H64.4z"/>
			<path class="st4" d="M81.3,1801.4v0.9H70.8v-0.9h4.7v-2.5H72v-6h1.1v2.1h6v-2.1h1v6h-3.5v2.5H81.3z M73.1,1798h6v-2.1h-6V1798z"
				/>
			<path class="st4" d="M90,1798.6c-2.4,0.4-5.2,0.5-7.3,0.5l-0.1-0.9c0.7,0,1.6,0,2.5,0v-2.5h1.1v2.5c1.3-0.1,2.6-0.2,3.8-0.3
				L90,1798.6z M87.8,1797c0.3-1.3,0.3-2.3,0.3-3.1h-4.8v-0.9h5.8v0.6c0,0.8,0,1.9-0.3,3.5L87.8,1797z M85.5,1802.6h6.7v0.9h-7.7
				v-3.4h1.1V1802.6z M93.5,1795.9v0.9h-1.7v4.1h-1.1v-8.8h1.1v3.8H93.5z"/>
			<path class="st4" d="M100.9,1798.6c-1.3-0.4-2.3-1.4-2.8-2.5c-0.5,1.3-1.5,2.4-2.9,2.9l-0.5-0.8c1.8-0.6,2.9-2.1,2.9-3.8v-0.5
				h-2.6v-0.9h6.3v0.9h-2.6v0.5c0,1.5,1.1,2.9,2.8,3.5L100.9,1798.6z M103.9,1801.6c0,1.4-1.5,2.2-3.8,2.2c-2.4,0-3.8-0.8-3.8-2.2
				c0-1.4,1.5-2.1,3.8-2.1C102.4,1799.4,103.9,1800.2,103.9,1801.6z M102.8,1801.6c0-0.8-1.1-1.3-2.8-1.3c-1.7,0-2.8,0.5-2.8,1.3
				c0,0.8,1,1.3,2.8,1.3C101.7,1802.9,102.8,1802.4,102.8,1801.6z M105.4,1795.1v0.9h-1.7v3.2h-1.1v-7h1.1v2.9H105.4z"/>
			<path class="st4" d="M117.2,1801.4v0.9h-10.6v-0.9h4.7v-2.8h1.1v2.8H117.2z M116.2,1798.7c-1.8-0.4-3.6-1.6-4.4-3.2
				c-0.8,1.7-2.6,2.9-4.4,3.2l-0.4-0.9c2-0.4,4.3-2.1,4.3-4v-0.9h1.1v0.9c0,1.9,2.2,3.7,4.3,4L116.2,1798.7z"/>
			<path class="st4" d="M127.8,1798.9c-1.3-0.5-2.3-1.5-2.8-2.8c-0.5,1.4-1.5,2.5-2.9,3l-0.6-0.8c1.7-0.6,2.9-2.3,2.9-4.1v-1.4h1.1
				v1.5c0,1.6,1.1,3.2,2.8,3.8L127.8,1798.9z M131.4,1802.6v0.9h-7.8v-3.6h1.1v2.8H131.4z M130,1795.7h-2.5v-0.9h2.5v-2.7h1.1v8.7
				H130V1795.7z"/>
			<path class="st4" d="M139.8,1798.6c-1.3-0.5-2.3-1.4-2.8-2.6c-0.5,1.4-1.6,2.4-2.9,3l-0.6-0.8c1.7-0.6,2.9-2.2,2.9-3.9v-0.4h-2.6
				v-0.9h6.2v0.9h-2.6v0.4c0,1.5,1.1,3,2.8,3.6L139.8,1798.6z M143.1,1801.6c0,1.4-1.5,2.2-3.9,2.2s-3.9-0.8-3.9-2.2
				s1.5-2.2,3.9-2.2S143.1,1800.2,143.1,1801.6z M142,1801.6c0-0.8-1.1-1.4-2.8-1.4s-2.8,0.5-2.8,1.4s1.1,1.3,2.8,1.3
				S142,1802.4,142,1801.6z M142,1795.1v-3h1.1v6.9H142v-3.1h-2.3v-0.9H142z"/>
			<path class="st4" d="M154.4,1797.6h-5.4v-4.8h5.4V1797.6z M154.8,1800.4c0,1.1,1.8,2.2,3.8,2.5l-0.4,0.8c-1.8-0.2-3.3-1.1-4-2.1
				c-0.7,1.1-2.3,1.9-4.1,2.1l-0.4-0.8c2-0.2,3.8-1.3,3.9-2.5h-3.4v-0.8h3.4v-1.1h1.1v1.1h3.4v0.8H154.8z M153.4,1793.7H150v3.1h3.4
				V1793.7z M157.9,1798.8h-1.1v-6.7h1.1V1798.8z"/>
			<path class="st4" d="M169.6,1795.3c0,1.6-1.3,2.7-3.1,2.7c-1.8,0-3-1.1-3-2.7c0-1.6,1.3-2.7,3-2.7
				C168.3,1792.7,169.6,1793.8,169.6,1795.3z M164.5,1795.3c0,1.1,0.8,1.8,2,1.8c1.2,0,2-0.7,2-1.8c0-1.1-0.8-1.8-2-1.8
				C165.4,1793.5,164.5,1794.3,164.5,1795.3z M166.3,1798.9v1.4h5.4v-1.4h1.1v4.7h-7.5v-4.7H166.3z M166.3,1802.8h5.4v-1.5h-5.4
				V1802.8z M172.8,1792.1v6.3h-1.1v-6.3H172.8z"/>
			<path class="st4" d="M185.7,1801.3v0.9h-10.5v-0.9h4.1v-4.2h1.1v4.2H185.7z M183.4,1794.1h-7.1v-0.9h8.2v1.2c0,1.4,0,3-0.4,5.4
				l-1.1-0.1c0.4-2.2,0.4-3.9,0.4-5.3V1794.1z"/>
		</g>
		<g class="st0">
			<path class="st4" d="M33.6,1820c0-1.1,0.8-1.8,1.6-1.8c0.9,0,1.6,0.7,1.6,1.8c0,1-0.8,1.7-1.6,1.7
				C34.3,1821.7,33.6,1821,33.6,1820z"/>
			<path class="st4" d="M54.5,1820.6h-2.8v4.1h-1.1v-4.1h-2.9v4.1h-1.1v-4.1h-2.7v-0.9h10.6V1820.6z M45.1,1816.1
				c0-1.6,1.7-2.5,4.1-2.5c2.4,0,4.1,1,4.1,2.5s-1.7,2.5-4.1,2.5C46.8,1818.7,45.1,1817.7,45.1,1816.1z M46.2,1816.1
				c0,1,1.2,1.7,3,1.7c1.8,0,3-0.7,3-1.7s-1.2-1.7-3-1.7C47.4,1814.4,46.2,1815.1,46.2,1816.1z"/>
			<path class="st4" d="M59.3,1815.1h2.4v0.9h-5.8v-0.9h2.4v-1.7h1.1V1815.1z M61.3,1819.4c0,1.6-1.1,2.7-2.5,2.7s-2.5-1.1-2.5-2.7
				c0-1.6,1.1-2.7,2.5-2.7S61.3,1817.8,61.3,1819.4z M60.3,1819.4c0-1-0.6-1.8-1.5-1.8c-0.9,0-1.5,0.7-1.5,1.8c0,1,0.6,1.8,1.5,1.8
				C59.7,1821.2,60.3,1820.4,60.3,1819.4z M65.8,1813.1v11.7h-1v-5.9h-1.5v5.3h-1v-10.8h1v4.7h1.5v-4.9H65.8z"/>
			<path class="st4" d="M71.9,1821.6c1.1-0.1,2.1-0.1,3.1-0.3l0.1,0.8c-2.5,0.4-5.2,0.5-7.3,0.5l-0.1-0.9c0.9,0,2,0,3.2,0v-1.3
				c-1.3-0.2-2.2-1-2.2-2.1c0-1.3,1.1-2.2,2.8-2.2c1.6,0,2.8,0.8,2.8,2.2c0,1.2-0.9,2-2.2,2.1V1821.6z M74.9,1815.4h-7v-0.8h3v-1.4
				h1.1v1.4h2.9V1815.4z M71.4,1819.5c1,0,1.7-0.5,1.7-1.3c0-0.8-0.7-1.3-1.7-1.3s-1.7,0.5-1.7,1.3
				C69.7,1819,70.4,1819.5,71.4,1819.5z M78.6,1819h-1.8v5.8h-1.1v-11.7h1.1v5h1.8V1819z"/>
			<path class="st4" d="M86.7,1815.2h-6.9v-0.9h2.9v-1.3h1.1v1.3h2.9V1815.2z M83.3,1820c-1.7,0-2.8-0.8-2.8-2.1
				c0-1.3,1.1-2.1,2.8-2.1c1.7,0,2.8,0.8,2.8,2.1C86.1,1819.2,84.9,1820,83.3,1820z M81.3,1821h7.6v3.7h-1.1v-2.9h-6.5V1821z
				 M83.3,1819.2c1.1,0,1.8-0.5,1.8-1.3c0-0.8-0.7-1.3-1.8-1.3s-1.8,0.5-1.8,1.3C81.5,1818.7,82.2,1819.2,83.3,1819.2z M90.6,1817.2
				h-1.7v3.2h-1.1v-7.3h1.1v3.2h1.7V1817.2z"/>
			<path class="st4" d="M97.6,1818.9v1.1h3.4v2.6h-6.9v1.2h7.2v0.8h-8.2v-2.8h6.8v-1H93v-0.8h3.5v-1.1h-4.7v-0.9h10.6v0.9H97.6z
				 M100.9,1817h-7.8v-3.5h7.8V1817z M99.9,1814.3h-5.7v1.9h5.7V1814.3z"/>
			<path class="st4" d="M110.4,1818.9c-1.4-0.4-2.4-1.3-3-2.5c-0.5,1.3-1.6,2.3-3,2.8l-0.5-0.8c1.8-0.6,3-2,3-3.6v-0.1h-2.7v-0.9
				h6.4v0.9h-2.6v0.1c0,1.5,1.2,2.8,2.9,3.3L110.4,1818.9z M113.7,1823.8v0.8h-7.9v-2.9h6.5v-1.2h-6.5v-0.8h7.6v2.8h-6.5v1.3H113.7z
				 M113.3,1819.2h-1.1v-6h1.1V1819.2z"/>
			<path class="st4" d="M126.3,1820.1c-1.1,0.2-2.2,0.3-3.3,0.4v4h-1.1v-3.9c-1.1,0-2.2,0.1-3.2,0.1l-0.1-0.9c2.2,0,5.1,0,7.7-0.4
				L126.3,1820.1z M119.1,1818c1.7-0.4,2.8-1.5,2.8-2.7v0h-2.6v-0.8h2.6v-1.3h1.1v1.3h2.6v0.8H123v0c0,1.2,1.1,2.2,2.8,2.5l-0.4,0.8
				c-1.3-0.3-2.4-1-2.9-2c-0.5,1-1.5,1.8-2.9,2.1L119.1,1818z M128.2,1813.1v11.7h-1.1v-11.7H128.2z"/>
			<path class="st4" d="M141.1,1817.9v0.9h-10.6v-0.9h7.9c0.3-1.4,0.3-2.5,0.3-3.4h-6.8v-0.9h7.9v0.8c0,0.9,0,1.9-0.3,3.4H141.1z
				 M138.7,1819.8h1.1v4.8h-7.8v-4.8h1.1v1.5h5.7V1819.8z M138.7,1822.2H133v1.6h5.7V1822.2z"/>
			<path class="st4" d="M146.4,1816.7c0,1.9,1.3,3.9,3,4.7l-0.6,0.9c-1.3-0.6-2.4-2-2.9-3.6c-0.5,1.7-1.7,3.2-3,3.9l-0.6-0.8
				c1.7-0.8,3.1-3,3.1-5v-1.5h-2.7v-0.9h6.3v0.9h-2.6V1816.7z M153.4,1818.7h-1.9v6.1h-1.1v-11.6h1.1v4.7h1.9V1818.7z"/>
			<path class="st4" d="M167.9,1822.3v0.9h-10.5v-0.9h2.6v-3.9h1.1v3.9h1.8v-3.9h1.1v3.9H167.9z M165.6,1815.1h-7.1v-0.9h8.2v1.3
				c0,1.5,0,3-0.4,5.2l-1.1-0.1c0.4-2.1,0.4-3.6,0.4-5.1V1815.1z"/>
			<path class="st4" d="M177.1,1819.6v1.5h1.5v3.7h-1.1v-2.9h-7v-0.9h1.6v-1.5h-2.8v-0.9h10.5v0.9H177.1z M170.5,1815.6
				c0-1.4,1.6-2.2,4.1-2.2c2.5,0,4.1,0.8,4.1,2.2s-1.6,2.2-4.1,2.2C172.1,1817.8,170.5,1817,170.5,1815.6z M171.6,1815.6
				c0,0.9,1.2,1.4,3,1.4s3-0.5,3-1.4s-1.2-1.4-3-1.4S171.6,1814.7,171.6,1815.6z M176,1819.6h-2.8v1.5h2.8V1819.6z"/>
		</g>
		<g class="st0">
			<path class="st4" d="M33.6,1920c0-1.1,0.8-1.8,1.6-1.8c0.9,0,1.6,0.7,1.6,1.8c0,1-0.8,1.7-1.6,1.7
				C34.3,1921.7,33.6,1921,33.6,1920z"/>
			<path class="st4" d="M51.6,1920.6h-2.8v4.1h-1.1v-4.1h-2.9v4.1h-1.1v-4.1H41v-0.9h10.6V1920.6z M42.2,1916.1
				c0-1.6,1.7-2.5,4.1-2.5c2.4,0,4.1,1,4.1,2.5c0,1.6-1.7,2.5-4.1,2.5C43.8,1918.7,42.2,1917.7,42.2,1916.1z M43.3,1916.1
				c0,1,1.2,1.7,3,1.7c1.8,0,3-0.7,3-1.7s-1.2-1.7-3-1.7C44.5,1914.5,43.3,1915.1,43.3,1916.1z"/>
			<path class="st4" d="M56.4,1915.1h2.4v0.9H53v-0.9h2.4v-1.7h1.1V1915.1z M58.4,1919.4c0,1.6-1.1,2.7-2.5,2.7s-2.5-1.1-2.5-2.7
				c0-1.6,1.1-2.7,2.5-2.7S58.4,1917.9,58.4,1919.4z M57.4,1919.4c0-1-0.6-1.8-1.5-1.8c-0.9,0-1.5,0.7-1.5,1.8c0,1,0.6,1.8,1.5,1.8
				C56.8,1921.2,57.4,1920.5,57.4,1919.4z M62.8,1913.1v11.7h-1v-5.9h-1.5v5.3h-1v-10.8h1v4.7h1.5v-4.9H62.8z"/>
			<path class="st4" d="M69,1921.6c1.1-0.1,2.1-0.1,3.1-0.3l0.1,0.8c-2.5,0.4-5.2,0.5-7.3,0.5l-0.1-0.9c0.9,0,2,0,3.2,0v-1.3
				c-1.3-0.2-2.2-1-2.2-2.1c0-1.3,1.1-2.2,2.8-2.2c1.6,0,2.8,0.8,2.8,2.2c0,1.2-0.9,2-2.2,2.1V1921.6z M72,1915.4h-7v-0.8h3v-1.4H69
				v1.4H72V1915.4z M68.5,1919.6c1,0,1.7-0.5,1.7-1.3s-0.7-1.3-1.7-1.3s-1.7,0.5-1.7,1.3S67.4,1919.6,68.5,1919.6z M75.7,1919h-1.8
				v5.8h-1.1v-11.7h1.1v5h1.8V1919z"/>
			<path class="st4" d="M83.8,1915.2h-6.9v-0.9h2.9v-1.3h1.1v1.3h2.9V1915.2z M80.4,1920c-1.7,0-2.8-0.8-2.8-2.1
				c0-1.3,1.1-2.1,2.8-2.1c1.7,0,2.8,0.8,2.8,2.1C83.2,1919.2,82,1920,80.4,1920z M78.4,1921.1h7.6v3.7h-1.1v-2.9h-6.5V1921.1z
				 M80.4,1919.2c1.1,0,1.8-0.5,1.8-1.3c0-0.8-0.7-1.3-1.8-1.3s-1.8,0.5-1.8,1.3C78.6,1918.7,79.3,1919.2,80.4,1919.2z M87.7,1917.2
				h-1.7v3.2h-1.1v-7.3h1.1v3.2h1.7V1917.2z"/>
			<path class="st4" d="M94.6,1918.9v1.1H98v2.6h-6.9v1.2h7.2v0.8h-8.2v-2.8H97v-1h-6.9v-0.8h3.5v-1.1h-4.7v-0.9h10.6v0.9H94.6z
				 M98,1917.1h-7.8v-3.5H98V1917.1z M97,1914.4h-5.7v1.9H97V1914.4z"/>
			<path class="st4" d="M107.5,1918.9c-1.4-0.4-2.4-1.3-3-2.5c-0.5,1.3-1.6,2.3-3,2.8l-0.5-0.8c1.8-0.6,3-2,3-3.6v-0.1h-2.7v-0.9
				h6.4v0.9H105v0.1c0,1.5,1.2,2.8,2.9,3.3L107.5,1918.9z M110.8,1923.8v0.8h-7.9v-2.9h6.5v-1.2h-6.5v-0.8h7.6v2.8h-6.5v1.3H110.8z
				 M110.4,1919.2h-1.1v-6h1.1V1919.2z"/>
			<path class="st4" d="M119.7,1916.5c0,1.9,1.4,4.1,3.1,4.9l-0.6,0.8c-1.3-0.7-2.4-2.1-3-3.7c-0.5,1.7-1.6,3.2-3,3.9l-0.6-0.8
				c1.7-0.8,3.1-3,3.1-5.1v-1.4H116v-0.9h6.4v0.9h-2.7V1916.5z M125.3,1913.1v11.7h-1.1v-6.6h-2.5v-0.9h2.5v-4.2H125.3z"/>
			<path class="st4" d="M133.9,1919.6c-1.3-0.4-2.3-1.4-2.8-2.5c-0.5,1.3-1.5,2.4-2.9,2.9l-0.5-0.8c1.8-0.6,2.9-2.1,2.9-3.8v-0.5
				h-2.6v-0.9h6.3v0.9h-2.6v0.5c0,1.5,1.1,2.9,2.8,3.5L133.9,1919.6z M136.8,1922.6c0,1.4-1.5,2.2-3.8,2.2c-2.4,0-3.8-0.8-3.8-2.2
				c0-1.4,1.5-2.1,3.8-2.1C135.3,1920.5,136.8,1921.3,136.8,1922.6z M135.8,1922.6c0-0.8-1.1-1.3-2.8-1.3c-1.7,0-2.8,0.5-2.8,1.3
				c0,0.8,1,1.3,2.8,1.3C134.7,1923.9,135.8,1923.4,135.8,1922.6z M138.4,1916.1v0.9h-1.7v3.2h-1.1v-7h1.1v2.9H138.4z"/>
			<path class="st4" d="M143.7,1916.2c0,2.1,1.4,4.3,3.1,5.1l-0.6,0.9c-1.3-0.7-2.4-2-3-3.7c-0.5,1.8-1.7,3.2-3,3.9l-0.6-0.9
				c1.7-0.8,3.1-3.1,3.1-5.3v-2.1h1.1V1916.2z M149.1,1913.1v11.7h-1.1v-11.7H149.1z"/>
			<path class="st4" d="M157.8,1918.9c-1.3-0.5-2.3-1.4-2.8-2.6c-0.5,1.3-1.5,2.3-2.9,2.8l-0.6-0.8c1.8-0.6,2.9-2.1,2.9-3.8v-1.1
				h1.1v1.1c0,1.5,1.2,2.9,2.9,3.5L157.8,1918.9z M161.6,1923.8v0.8h-7.9v-2.9h6.4v-1.1h-6.5v-0.8h7.5v2.8h-6.4v1.2H161.6z
				 M160.1,1916.1h-2.5v-0.9h2.5v-2.1h1.1v6h-1.1V1916.1z"/>
			<path class="st4" d="M172.8,1919.6c-1.3-0.5-2.3-1.4-2.8-2.6c-0.5,1.4-1.6,2.4-2.9,3l-0.6-0.8c1.7-0.6,2.9-2.2,2.9-3.9v-0.4h-2.6
				v-0.9h6.2v0.9h-2.6v0.4c0,1.5,1.1,3,2.8,3.6L172.8,1919.6z M176.1,1922.6c0,1.4-1.5,2.2-3.9,2.2s-3.9-0.8-3.9-2.2
				c0-1.4,1.5-2.2,3.9-2.2S176.1,1921.2,176.1,1922.6z M175,1922.6c0-0.8-1.1-1.4-2.8-1.4s-2.8,0.5-2.8,1.4c0,0.8,1.1,1.3,2.8,1.3
				S175,1923.5,175,1922.6z M175,1916.2v-3h1.1v6.9H175v-3.1h-2.3v-0.9H175z"/>
			<path class="st4" d="M184.5,1914.4c0,3.4-1.5,6.3-5.4,8.2l-0.6-0.9c3.1-1.5,4.7-3.7,4.9-6.5h-4.4v-0.9H184.5z M188,1913.1v11.7
				h-1.1v-11.7H188z"/>
			<path class="st4" d="M196.7,1919.6c-1.3-0.5-2.3-1.4-2.8-2.6c-0.5,1.3-1.6,2.4-2.9,2.9l-0.6-0.8c1.7-0.6,2.9-2.2,2.9-3.8v-0.4
				h-2.6v-0.9h6.2v0.9h-2.6v0.4c0,1.5,1.1,3,2.8,3.6L196.7,1919.6z M192.4,1920.5h7.6v4.1h-7.6V1920.5z M193.4,1923.8h5.5v-2.4h-5.5
				V1923.8z M200,1913.1v6.8h-1.1v-3h-2.3v-0.9h2.3v-2.9H200z"/>
			<path class="st4" d="M208.3,1913.9c0,3-2.1,5-5.4,6l-0.4-0.8c2.8-0.8,4.5-2.3,4.7-4.3H203v-0.9H208.3z M204.4,1920.3h7.5v4.3
				h-7.5V1920.3z M205.4,1923.8h5.4v-2.6h-5.4V1923.8z M211.9,1913.1v6.7h-1.1v-2.8h-2.5v-0.9h2.5v-3H211.9z"/>
		</g>
		<g class="st0">
			<path class="st4" d="M33.6,1941c0-1.1,0.8-1.8,1.6-1.8c0.9,0,1.6,0.7,1.6,1.8c0,1-0.8,1.7-1.6,1.7
				C34.3,1942.7,33.6,1942,33.6,1941z"/>
			<path class="st4" d="M51.6,1941.5h-4.8v4.3h-1.1v-4.3H41v-0.9h10.6V1941.5z M50.4,1938.9h-8v-4.2h1.1v3.3h6.9V1938.9z"/>
			<path class="st4" d="M58.8,1940.1v1.1h3.4v2.5h-6.9v1.1h7.2v0.8h-8.2v-2.7h6.8v-1h-6.9v-0.8h3.5v-1.1H53v-0.8h10.5v0.8H58.8z
				 M53.5,1938c2.2-0.1,3.9-0.9,4.1-2H54v-0.8h3.7v-1.1h1.1v1.1h3.7v0.8h-3.6c0.2,1.2,1.9,1.9,4.1,2l-0.3,0.8
				c-1.9-0.2-3.7-0.8-4.4-1.8c-0.7,1.1-2.4,1.7-4.4,1.8L53.5,1938z"/>
			<path class="st4" d="M70.8,1940.2h-5.4v-5.4h1.1v1.8h3.3v-1.8h1V1940.2z M74.1,1943.6c0,1.4-1.5,2.2-3.8,2.2
				c-2.4,0-3.8-0.8-3.8-2.2c0-1.4,1.5-2.2,3.8-2.2C72.6,1941.4,74.1,1942.2,74.1,1943.6z M69.8,1937.5h-3.3v1.9h3.3V1937.5z
				 M73,1943.6c0-0.8-1.1-1.3-2.8-1.3c-1.7,0-2.8,0.5-2.8,1.3s1,1.3,2.8,1.3C72,1944.9,73,1944.4,73,1943.6z M75.7,1937.1v0.9H74
				v3.2h-1.1v-7H74v2.9H75.7z"/>
			<path class="st4" d="M81,1937.7c0,2,1.4,4,3.1,4.7l-0.6,0.9c-1.4-0.6-2.5-2-3.1-3.6c-0.5,1.7-1.7,3.2-3,3.8l-0.6-0.9
				c1.7-0.8,3.1-3,3.1-5v-1.5h-2.7v-0.9h6.5v0.9H81V1937.7z M86.4,1934.1v11.6h-1.1v-11.6H86.4z"/>
			<path class="st4" d="M95.9,1937.2c0,2.1,1.4,4.3,3.1,5.1l-0.6,0.9c-1.3-0.7-2.4-2-3-3.7c-0.5,1.8-1.7,3.2-3,3.9l-0.6-0.9
				c1.7-0.8,3.1-3.1,3.1-5.3v-2.1h1.1V1937.2z M101.3,1934.1v11.7h-1.1v-11.7H101.3z"/>
			<path class="st4" d="M110,1939.9c-1.3-0.5-2.3-1.4-2.8-2.6c-0.5,1.3-1.5,2.3-2.9,2.8l-0.6-0.8c1.8-0.6,2.9-2.1,2.9-3.8v-1.1h1.1
				v1.1c0,1.5,1.2,2.9,2.9,3.5L110,1939.9z M113.8,1944.8v0.8h-7.9v-2.9h6.4v-1.1h-6.5v-0.8h7.5v2.8h-6.4v1.2H113.8z M112.2,1937.1
				h-2.5v-0.9h2.5v-2.1h1.1v6h-1.1V1937.1z"/>
			<path class="st4" d="M124.9,1939.9c-1.3-0.5-2.3-1.4-2.8-2.6c-0.5,1.3-1.5,2.3-2.9,2.8l-0.6-0.8c1.8-0.6,2.9-2.1,2.9-3.8v-1.1
				h1.1v1.1c0,1.5,1.2,2.9,2.9,3.5L124.9,1939.9z M128.6,1944.8v0.8h-7.9v-2.9h6.4v-1.1h-6.5v-0.8h7.5v2.8h-6.4v1.2H128.6z
				 M127.1,1937.1h-2.5v-0.9h2.5v-2.1h1.1v6h-1.1V1937.1z"/>
			<path class="st4" d="M134.8,1937.9c0,2,1.3,3.8,3.1,4.6l-0.6,0.8c-1.3-0.6-2.4-1.9-3-3.4c-0.5,1.6-1.6,3-3,3.6l-0.6-0.8
				c1.7-0.8,3-2.8,3-4.8v-0.9h-2.7v-0.9h2.7v-1.8h1.1v1.8h2.7v0.9h-2.7V1937.9z M140.1,1934.1v11.7H139v-11.7H140.1z"/>
			<path class="st4" d="M151.5,1939.6H146v-4.8h5.4V1939.6z M151.8,1942.4c0,1.1,1.8,2.2,3.8,2.5l-0.4,0.8c-1.8-0.2-3.3-1.1-4-2.1
				c-0.7,1.1-2.3,1.9-4.1,2.1l-0.4-0.8c2-0.2,3.8-1.3,3.9-2.5h-3.4v-0.8h3.4v-1.1h1.1v1.1h3.4v0.8H151.8z M150.4,1935.7h-3.4v3.1
				h3.4V1935.7z M155,1940.8h-1.1v-6.7h1.1V1940.8z"/>
			<path class="st4" d="M170.9,1941.5h-4.8v4.3H165v-4.3h-4.7v-0.9h10.6V1941.5z M169.7,1938.9h-8v-4.2h1.1v3.3h6.9V1938.9z"/>
			<path class="st4" d="M178.1,1940.1v1.1h3.4v2.5h-6.9v1.1h7.2v0.8h-8.2v-2.7h6.8v-1h-6.9v-0.8h3.5v-1.1h-4.7v-0.8h10.5v0.8H178.1z
				 M172.8,1938c2.2-0.1,3.9-0.9,4.1-2h-3.6v-0.8h3.7v-1.1h1.1v1.1h3.7v0.8h-3.6c0.2,1.2,1.9,1.9,4.1,2l-0.3,0.8
				c-2-0.2-3.7-0.8-4.4-1.8c-0.7,1.1-2.4,1.7-4.4,1.8L172.8,1938z"/>
			<path class="st4" d="M193,1934.9c0,3-2.1,5.1-5.5,6l-0.4-0.8c2.8-0.8,4.5-2.3,4.8-4.3h-4.2v-0.9H193z M188.8,1941.3h7.3v4.3h-7.3
				V1941.3z M189.9,1944.8h5.2v-2.6h-5.2V1944.8z M197.9,1937.9h-1.7v2.9h-1.1v-6.6h1.1v2.9h1.7V1937.9z"/>
			<path class="st4" d="M203.2,1937.7c0,2,1.4,4,3.1,4.7l-0.6,0.9c-1.4-0.6-2.5-2-3.1-3.6c-0.5,1.7-1.7,3.2-3,3.8l-0.6-0.9
				c1.7-0.8,3.1-3,3.1-5v-1.5h-2.7v-0.9h6.5v0.9h-2.7V1937.7z M208.6,1934.1v11.6h-1.1v-11.6H208.6z"/>
			<path class="st4" d="M220.2,1939.9c-1.3-0.5-2.3-1.4-2.8-2.6c-0.5,1.3-1.5,2.3-2.9,2.8l-0.6-0.8c1.8-0.6,2.9-2.1,2.9-3.8v-1.1
				h1.1v1.1c0,1.5,1.2,2.9,2.9,3.5L220.2,1939.9z M224,1944.8v0.8h-7.9v-2.9h6.4v-1.1h-6.5v-0.8h7.5v2.8h-6.4v1.2H224z
				 M222.5,1937.1H220v-0.9h2.5v-2.1h1.1v6h-1.1V1937.1z"/>
			<path class="st4" d="M227.6,1935.1v3.1h3.4v-3.1h1.1v7.9h-5.5v-7.9H227.6z M227.6,1942.1h3.4v-3.1h-3.4V1942.1z M235.5,1934.1
				v11.7h-1.1v-11.7H235.5z"/>
			<path class="st4" d="M247.1,1939.9c-1.3-0.5-2.3-1.4-2.8-2.6c-0.5,1.3-1.5,2.3-2.9,2.8l-0.6-0.8c1.8-0.6,2.9-2.1,2.9-3.8v-1.1
				h1.1v1.1c0,1.5,1.2,2.9,2.9,3.5L247.1,1939.9z M250.8,1944.8v0.8h-7.9v-2.9h6.4v-1.1h-6.5v-0.8h7.5v2.8H244v1.2H250.8z
				 M249.3,1937.1h-2.5v-0.9h2.5v-2.1h1.1v6h-1.1V1937.1z"/>
			<path class="st4" d="M257,1937.9c0,2,1.3,3.8,3.1,4.6l-0.6,0.8c-1.3-0.6-2.4-1.9-3-3.4c-0.5,1.6-1.6,3-3,3.6l-0.6-0.8
				c1.7-0.8,3-2.8,3-4.8v-0.9h-2.7v-0.9h2.7v-1.8h1.1v1.8h2.7v0.9H257V1937.9z M262.3,1934.1v11.7h-1.1v-11.7H262.3z"/>
		</g>
		<g class="st0">
			<path class="st4" d="M33.6,1962c0-1.1,0.8-1.8,1.6-1.8c0.9,0,1.6,0.7,1.6,1.8c0,1-0.8,1.7-1.6,1.7
				C34.3,1963.7,33.6,1963,33.6,1962z"/>
			<path class="st4" d="M45.1,1963.6c1.1-0.1,2.1-0.1,3.1-0.3l0.1,0.8c-2.5,0.4-5.2,0.5-7.3,0.5l-0.1-0.9c0.9,0,2,0,3.2,0v-1.3
				c-1.3-0.2-2.2-1-2.2-2.1c0-1.3,1.1-2.2,2.8-2.2c1.6,0,2.8,0.8,2.8,2.2c0,1.2-0.9,2-2.2,2.1V1963.6z M48,1957.4h-7v-0.8h3v-1.4
				h1.1v1.4H48V1957.4z M44.6,1961.6c1,0,1.7-0.5,1.7-1.3s-0.7-1.3-1.7-1.3s-1.7,0.5-1.7,1.3S43.5,1961.6,44.6,1961.6z M51.8,1961
				H50v5.8h-1.1v-11.7H50v5h1.8V1961z"/>
			<path class="st4" d="M56.4,1958.3c0,2.1,0.8,4,2.5,4.9l-0.6,0.8c-1.1-0.6-2-1.8-2.4-3.1c-0.4,1.6-1.2,2.8-2.4,3.5l-0.7-0.8
				c1.7-0.9,2.5-2.9,2.5-5.3v-0.9h-2.3v-0.9h5.4v0.9h-2.1V1958.3z M62.9,1955.1v11.7h-1v-6.1h-1.5v5.5h-1v-10.8h1v4.4h1.5v-4.7H62.9
				z"/>
			<path class="st4" d="M67,1961.1c0-0.5,0.4-0.9,0.9-0.9c0.5,0,0.9,0.4,0.9,0.9c0,0.5-0.4,0.9-0.9,0.9
				C67.4,1962,67,1961.6,67,1961.1z"/>
			<path class="st4" d="M82.8,1961.2v0.9H72.2v-0.9H77v-1.4h-3.7v-0.9H75v-2.5h-1.8v-0.9h8.6v0.9H80v2.5h1.7v0.9H78v1.4H82.8z
				 M73.4,1963.2h8.1v3.5h-1.1v-2.7h-7V1963.2z M76,1958.9h2.9v-2.5H76V1958.9z"/>
			<path class="st4" d="M90.1,1960.7h-5.4v-5.1h1.1v1.7H89v-1.7h1V1960.7z M89,1958.1h-3.3v1.7H89V1958.1z M86.9,1965.8h6.8v0.8
				h-7.8v-2.9h6.3v-1.2h-6.4v-0.8h7.4v2.8h-6.3V1965.8z M95,1957.6v0.9h-1.7v2.6h-1.1v-6h1.1v2.5H95z"/>
			<path class="st4" d="M98.2,1961.1c0-0.5,0.4-0.9,0.9-0.9c0.5,0,0.9,0.4,0.9,0.9c0,0.5-0.4,0.9-0.9,0.9
				C98.6,1962,98.2,1961.6,98.2,1961.1z"/>
			<path class="st4" d="M114,1962.5h-4.8v4.3h-1.1v-4.3h-4.7v-0.9H114V1962.5z M112.8,1959.9h-8v-4.2h1.1v3.3h6.9V1959.9z"/>
			<path class="st4" d="M121.2,1961.1v1.1h3.4v2.5h-6.9v1.1h7.2v0.8h-8.2v-2.7h6.8v-1h-6.9v-0.8h3.5v-1.1h-4.7v-0.8h10.5v0.8H121.2z
				 M116,1959c2.2-0.1,3.9-0.9,4.1-2h-3.6v-0.8h3.7v-1.1h1.1v1.1h3.7v0.8h-3.6c0.2,1.2,1.9,1.9,4.1,2l-0.3,0.8
				c-1.9-0.2-3.7-0.8-4.4-1.8c-0.7,1.1-2.4,1.7-4.4,1.8L116,1959z"/>
			<path class="st4" d="M140.8,1960.7v0.9h-10.6v-0.9H140.8z M139.5,1964.7c0,1.4-1.5,2.1-4,2.1c-2.5,0-4-0.8-4-2.1s1.5-2.1,4-2.1
				C138,1962.6,139.5,1963.3,139.5,1964.7z M139.6,1959.6h-8v-4h7.9v0.9h-6.9v2.2h6.9V1959.6z M138.4,1964.7c0-0.8-1.1-1.3-2.9-1.3
				s-2.9,0.5-2.9,1.3c0,0.8,1.1,1.3,2.9,1.3C137.4,1965.9,138.4,1965.5,138.4,1964.7z"/>
			<path class="st4" d="M146.9,1956.1v3.1h3.4v-3.1h1.1v7.9h-5.5v-7.9H146.9z M146.9,1963.1h3.4v-3.1h-3.4V1963.1z M154.7,1955.1
				v11.7h-1.1v-11.7H154.7z"/>
			<path class="st4" d="M163.3,1961.4c-1.3-0.5-2.3-1.4-2.8-2.6c-0.5,1.4-1.5,2.4-2.9,2.9l-0.6-0.8c1.8-0.6,2.9-2.2,2.9-4v-1.2h1.1
				v1.3c0,1.6,1.1,3,2.8,3.6L163.3,1961.4z M166.3,1964.7c0,1.4-1.5,2.1-3.8,2.1c-2.4,0-3.8-0.8-3.8-2.1c0-1.4,1.5-2.1,3.8-2.1
				C164.8,1962.5,166.3,1963.3,166.3,1964.7z M165.2,1964.7c0-0.8-1.1-1.3-2.8-1.3c-1.7,0-2.8,0.5-2.8,1.3c0,0.8,1.1,1.3,2.8,1.3
				C164.2,1965.9,165.2,1965.5,165.2,1964.7z M167.9,1958.1v0.9h-1.7v3.2h-1.1v-7.1h1.1v3H167.9z"/>
			<path class="st4" d="M173,1958.2c0,2.1,1.3,4.2,3,5l-0.7,0.8c-1.2-0.7-2.3-2-2.8-3.6c-0.5,1.7-1.6,3.2-2.9,3.9l-0.6-0.9
				c1.7-0.9,3-3.1,3-5.2v-2.1h1.1V1958.2z M180,1960.7H178v6H177v-11.6h1.1v4.7h1.9V1960.7z"/>
			<path class="st4" d="M182.5,1963c1.7,0,2.7-0.1,4-0.3l0.1,0.9c-1.4,0.3-2.5,0.3-4.4,0.3h-0.8v-7.4h4.6v0.9h-3.6v2.2h3.4v0.8h-3.4
				V1963z M190.9,1955.1v11.7h-1v-6.1h-1.5v5.5h-1v-10.8h1v4.4h1.5v-4.7H190.9z"/>
			<path class="st4" d="M197.4,1963c1.6,0,2.7-0.1,3.9-0.4l0.1,0.9c-1.4,0.3-2.6,0.4-4.3,0.4h-0.8v-7.4h4.3v0.9h-3.3V1963z
				 M205.8,1955.1v11.7h-1v-6.1h-1.7v5.5h-1v-10.8h1v4.4h1.7v-4.7H205.8z"/>
			<path class="st4" d="M218.4,1960.8v0.9h-10.5v-0.9H218.4z M217.2,1957.6c0,1.4-1.6,2.2-4.1,2.2c-2.5,0-4.1-0.8-4.1-2.2
				c0-1.4,1.6-2.2,4.1-2.2C215.6,1955.4,217.2,1956.2,217.2,1957.6z M217.1,1964.7c0,1.3-1.5,2.1-4,2.1c-2.5,0-4-0.8-4-2.1
				c0-1.3,1.5-2.1,4-2.1C215.6,1962.6,217.1,1963.4,217.1,1964.7z M210.1,1957.6c0,0.9,1.2,1.4,3,1.4c1.8,0,3-0.5,3-1.4
				c0-0.9-1.2-1.4-3-1.4C211.3,1956.3,210.1,1956.8,210.1,1957.6z M210.2,1964.7c0,0.8,1.1,1.2,2.9,1.2s2.9-0.5,2.9-1.2
				s-1.1-1.3-2.9-1.3S210.2,1963.9,210.2,1964.7z"/>
			<path class="st4" d="M233.3,1964.4v0.9h-10.6v-0.9h4.8v-2.8h1.1v2.8H233.3z M223.2,1961.1c2-0.3,4.2-2,4.2-3.8v-0.2h-3.9v-0.9
				h8.8v0.9h-3.9v0.2c0,1.9,2.2,3.5,4.3,3.8l-0.4,0.9c-1.8-0.4-3.6-1.5-4.4-3.1c-0.7,1.6-2.6,2.8-4.3,3.1L223.2,1961.1z"/>
			<path class="st4" d="M241.3,1961.7c-1.3-0.5-2.4-1.4-2.9-2.7c-0.5,1.3-1.6,2.4-3,2.9l-0.6-0.8c1.8-0.6,3-2.1,3-3.8v-0.5h-2.7
				v-0.9h6.4v0.9h-2.6v0.5c0,1.6,1.2,3,2.9,3.6L241.3,1961.7z M236.4,1962.8h7.8v4h-1.1v-3.1h-6.7V1962.8z M244.2,1955.1v7.1h-1.1
				v-7.1H244.2z"/>
			<path class="st4" d="M260.1,1961.8h-4.8v5h-1.1v-5h-4.7v-0.9h7.7c0.4-1.7,0.4-2.9,0.4-4v-0.2h-6.8v-0.9h7.8v1c0,1.1,0,2.3-0.3,4
				h1.7V1961.8z"/>
			<path class="st4" d="M267.8,1961.5c-1.3-0.5-2.3-1.4-2.8-2.6c-0.5,1.4-1.5,2.4-3,3l-0.6-0.9c1.8-0.6,3-2.2,3-4v-1.2h1.1v1.2
				c0,1.7,1.1,3.1,2.8,3.7L267.8,1961.5z M271.2,1964.6c0,1.4-1.5,2.2-3.9,2.2s-3.9-0.8-3.9-2.2c0-1.4,1.5-2.2,3.9-2.2
				S271.2,1963.2,271.2,1964.6z M270.1,1964.6c0-0.9-1.1-1.4-2.8-1.4s-2.8,0.5-2.8,1.4c0,0.8,1.1,1.4,2.8,1.4
				S270.1,1965.4,270.1,1964.6z M270,1958.5h-2.5v-0.9h2.5v-2.5h1.1v6.9H270V1958.5z"/>
			<path class="st4" d="M282.4,1960.6H277v-4.8h5.4V1960.6z M282.8,1963.4c0,1.1,1.8,2.2,3.8,2.5l-0.4,0.8c-1.8-0.2-3.3-1.1-4-2.1
				c-0.7,1.1-2.3,1.9-4.1,2.1l-0.4-0.8c2-0.2,3.8-1.3,3.9-2.5h-3.4v-0.8h3.4v-1.1h1.1v1.1h3.4v0.8H282.8z M281.4,1956.7H278v3.1h3.4
				V1956.7z M285.9,1961.8h-1.1v-6.7h1.1V1961.8z"/>
			<path class="st4" d="M301.8,1961.8v0.8h-4.6v1.8h-1.1v-1.8h-4.8v-0.8H301.8z M301.2,1957h-9.4v-0.8h4.2v-1.2h1.1v1.2h4.1V1957z
				 M293.6,1965.7h7v0.8h-8.1v-2.9h1.1V1965.7z M296.5,1957.5c2.4,0,3.8,0.6,3.8,1.8c0,1.2-1.4,1.8-3.8,1.8c-2.4,0-3.8-0.6-3.8-1.8
				C292.8,1958.2,294.1,1957.5,296.5,1957.5z M296.5,1958.3c-1.7,0-2.7,0.3-2.7,1c0,0.6,1,1,2.7,1c1.7,0,2.7-0.3,2.7-1
				C299.2,1958.7,298.3,1958.3,296.5,1958.3z"/>
			<path class="st4" d="M309.5,1961.8c-1.5,0.3-2.7,0.3-5,0.3h-0.8v-3.6h3.9v-1.7h-4v-0.9h5v3.4h-4v1.9c2.1,0,3.2-0.1,4.6-0.3
				L309.5,1961.8z M313.2,1965.6v0.9h-7.9v-3.4h1.1v2.5H313.2z M311.7,1960.6h-2.3v-0.9h2.3v-1.7h-2.3v-0.9h2.3v-2h1.1v8.6h-1.1
				V1960.6z"/>
		</g>
		<g class="st0">
			<path class="st4" d="M33.6,2062c0-1.1,0.8-1.8,1.6-1.8c0.9,0,1.6,0.7,1.6,1.8c0,1-0.8,1.7-1.6,1.7
				C34.3,2063.8,33.6,2063.1,33.6,2062z"/>
			<path class="st4" d="M51.6,2061.1v0.9h-4.7v2.4h-1.1v-2.4H41v-0.9H51.6z M42.2,2057.8c0-1.4,1.6-2.3,4.1-2.3s4.1,0.9,4.1,2.3
				c0,1.4-1.6,2.3-4.1,2.3S42.2,2059.2,42.2,2057.8z M43.4,2065.7h7v0.9h-8.1v-3.4h1.1V2065.7z M43.3,2057.8c0,0.9,1.2,1.5,3,1.5
				c1.8,0,3-0.6,3-1.5c0-0.9-1.2-1.5-3-1.5C44.5,2056.3,43.3,2056.9,43.3,2057.8z"/>
			<path class="st4" d="M63.5,2060.9v0.9H53v-0.9h4.7v-1.7h1.1v1.7H63.5z M62.5,2059.8c-1.8-0.3-3.5-1.2-4.2-2.5
				c-0.7,1.3-2.4,2.2-4.2,2.5l-0.4-0.8c2.1-0.3,4.1-1.6,4.1-3.1v-0.5h1.1v0.5c0,1.5,2,2.8,4.1,3.1L62.5,2059.8z M62.2,2064.8
				c0,1.3-1.5,2-4,2s-4-0.7-4-2c0-1.3,1.5-2,4-2S62.2,2063.5,62.2,2064.8z M61.1,2064.8c0-0.8-1.1-1.2-2.9-1.2s-2.9,0.4-2.9,1.2
				c0,0.8,1.1,1.2,2.9,1.2S61.1,2065.5,61.1,2064.8z"/>
			<path class="st4" d="M72.2,2061.6c-2.4,0.4-5.2,0.5-7.3,0.5l-0.1-0.9c0.7,0,1.6,0,2.5,0v-2.5h1.1v2.5c1.3-0.1,2.6-0.2,3.8-0.3
				L72.2,2061.6z M70,2060c0.3-1.3,0.3-2.3,0.3-3.1h-4.8v-0.9h5.8v0.6c0,0.8,0,1.9-0.3,3.5L70,2060z M67.7,2065.7h6.7v0.9h-7.7v-3.4
				h1.1V2065.7z M75.7,2058.9v0.9H74v4.1h-1.1v-8.8H74v3.8H75.7z"/>
			<path class="st4" d="M78.6,2063.1c1.9,0,3.6-0.1,5.7-0.4l0.1,0.9c-2.1,0.4-3.9,0.4-5.9,0.4h-1v-4.5h4.3v-2.4h-4.3v-0.9h5.4v4.2
				h-4.3V2063.1z M86.5,2055.1v11.7h-1.1v-11.7H86.5z"/>
			<path class="st4" d="M98.1,2061.9c-1.3-0.5-2.3-1.4-2.8-2.6c-0.5,1.3-1.6,2.4-2.9,2.9l-0.6-0.8c1.7-0.6,2.9-2.2,2.9-3.8v-0.6
				h-2.6v-0.9h6.2v0.9h-2.6v0.6c0,1.5,1.1,3,2.8,3.6L98.1,2061.9z M101.7,2065.7v0.9h-7.8v-3.6H95v2.7H101.7z M100.3,2058.4v-3.2
				h1.1v8.5h-1.1v-4.5h-2.3v-0.9H100.3z"/>
			<path class="st4" d="M110,2061.9c-1.3-0.5-2.3-1.5-2.8-2.7c-0.5,1.4-1.5,2.4-2.9,3l-0.6-0.8c1.8-0.6,2.9-2.2,2.9-4v-1.4h1.1v1.5
				c0,1.6,1.2,3.1,2.9,3.7L110,2061.9z M106.6,2065.7h6.7v0.9h-7.7v-3.6h1.1V2065.7z M114.5,2058.7v0.9h-1.7v4.1h-1.1v-8.6h1.1v3.6
				H114.5z"/>
			<path class="st4" d="M119.8,2058.3c0,2.1,1.4,4.3,3.1,5.1l-0.6,0.9c-1.3-0.7-2.4-2-3-3.7c-0.5,1.8-1.7,3.2-3,3.9l-0.6-0.9
				c1.7-0.8,3.1-3.1,3.1-5.3v-2.1h1.1V2058.3z M125.2,2055.1v11.7h-1.1v-11.7H125.2z"/>
			<path class="st4" d="M138.2,2064.4v0.9h-10.6v-0.9H138.2z M137.2,2061.9c-1.8-0.4-3.6-1.7-4.3-3.4c-0.7,1.7-2.6,3-4.3,3.4
				l-0.5-0.9c2-0.4,4.2-2.2,4.2-4.1v-0.9h1.1v0.9c0,2,2.2,3.8,4.3,4.1L137.2,2061.9z"/>
			<path class="st4" d="M145.2,2061.1c-1.3,0.3-2.4,0.3-4.3,0.3h-0.7v-5.6h4.4v0.9h-3.4v1.4h2.9v0.8h-2.9v1.6c1.7,0,2.7-0.1,3.9-0.3
				L145.2,2061.1z M141.8,2062.7h7.7v3.9h-7.7V2062.7z M142.8,2065.8h5.6v-2.2h-5.6V2065.8z M146.2,2058.9h-1.5v-0.9h1.5v-2.7h1v6.7
				h-1V2058.9z M149.4,2055.1v7h-1v-7H149.4z"/>
			<path class="st4" d="M152.1,2061.8c0-2.5,0.7-4.7,1.9-6.6l0.7,0.3c-1.1,1.9-1.7,4-1.7,6.3s0.5,4.4,1.7,6.3l-0.7,0.4
				C152.8,2066.5,152.1,2064.4,152.1,2061.8z"/>
		</g>
		<g class="st0">
			<path class="st4" d="M158.6,2057.3h-2.9v-1h7v1h-2.9v8.5h-1.2V2057.3z"/>
			<path class="st4" d="M164.4,2056.3h1.5l1.8,5.1c0.2,0.7,0.4,1.3,0.7,2h0.1c0.2-0.7,0.4-1.3,0.7-2l1.8-5.1h1.5v9.5h-1.1v-5.3
				c0-0.8,0.1-2,0.2-2.8h-0.1l-0.8,2.2l-1.8,5h-0.8l-1.8-5l-0.8-2.2h-0.1c0.1,0.8,0.1,2,0.1,2.8v5.3h-1.1V2056.3z"/>
			<path class="st4" d="M174.2,2064.6l0.7-0.8c0.7,0.7,1.6,1.2,2.6,1.2c1.2,0,2-0.6,2-1.6c0-1-0.7-1.3-1.6-1.7l-1.4-0.6
				c-0.9-0.4-1.9-1.1-1.9-2.4c0-1.5,1.3-2.5,3-2.5c1.1,0,2.1,0.5,2.8,1.2l-0.6,0.8c-0.6-0.5-1.3-0.9-2.2-0.9c-1.1,0-1.8,0.5-1.8,1.4
				c0,0.9,0.8,1.3,1.6,1.6l1.4,0.6c1.1,0.5,2,1.1,2,2.5c0,1.5-1.2,2.7-3.2,2.7C176.2,2066,175.1,2065.5,174.2,2064.6z"/>
			<path class="st4" d="M181.9,2068.1c1.1-1.8,1.7-4,1.7-6.3s-0.5-4.4-1.7-6.3l0.7-0.3c1.2,1.9,1.9,4,1.9,6.6c0,2.6-0.7,4.7-1.9,6.6
				L181.9,2068.1z"/>
		</g>
		<g class="st0">
			<path class="st4" d="M199.9,2061.8h-4.8v5h-1.1v-5h-4.7v-0.9h7.7c0.4-1.7,0.4-2.9,0.4-4v-0.2h-6.8v-0.9h7.8v1c0,1.1,0,2.3-0.3,4
				h1.7V2061.8z"/>
			<path class="st4" d="M207.1,2061.9v1.3h3.4v3.6h-1.1v-2.7h-7v-0.8h3.6v-1.3h-4.7v-0.9h10.5v0.9H207.1z M202,2059.6
				c2.2-0.2,4-1.1,4.1-2.4h-3.6v-0.8h3.7v-1.2h1.1v1.2h3.7v0.8h-3.6c0.1,1.3,1.9,2.2,4.1,2.4l-0.3,0.8c-1.9-0.2-3.6-0.9-4.3-2.1
				c-0.7,1.2-2.4,1.9-4.3,2.1L202,2059.6z"/>
			<path class="st4" d="M222.3,2060.7h-5.4v-4.8h5.4V2060.7z M222.6,2063.5c0,1.1,1.8,2.2,3.8,2.5l-0.4,0.8c-1.8-0.2-3.3-1.1-4-2.1
				c-0.7,1.1-2.3,1.9-4.1,2.1l-0.4-0.8c2-0.2,3.8-1.3,3.9-2.5h-3.4v-0.8h3.4v-1.1h1.1v1.1h3.4v0.8H222.6z M221.2,2056.7h-3.4v3.1
				h3.4V2056.7z M225.8,2061.8h-1.1v-6.7h1.1V2061.8z"/>
			<path class="st4" d="M241.6,2061.1v0.9H237v2.4h-1.1v-2.4h-4.8v-0.9H241.6z M232.2,2057.8c0-1.4,1.6-2.3,4.1-2.3
				c2.5,0,4.1,0.9,4.1,2.3c0,1.4-1.6,2.3-4.1,2.3C233.9,2060.1,232.2,2059.2,232.2,2057.8z M233.5,2065.7h7v0.9h-8.1v-3.4h1.1
				V2065.7z M233.4,2057.8c0,0.9,1.2,1.5,3,1.5c1.8,0,3-0.6,3-1.5c0-0.9-1.2-1.5-3-1.5C234.6,2056.3,233.4,2056.9,233.4,2057.8z"/>
			<path class="st4" d="M248.6,2060.4c-0.5,0.6-1.4,1-2.4,1c-1.7,0-3-1.1-3-2.8c0-1.6,1.3-2.8,3-2.8c1,0,1.8,0.4,2.4,1h3v-1.7h1.1
				v6.9h-1.1v-1.7H248.6z M246.2,2060.5c1.1,0,2-0.8,2-1.9c0-1.1-0.8-1.9-2-1.9c-1.1,0-2,0.8-2,1.9
				C244.2,2059.7,245.1,2060.5,246.2,2060.5z M252.7,2064.6c0,1.4-1.5,2.2-3.9,2.2c-2.4,0-3.9-0.8-3.9-2.2s1.5-2.2,3.9-2.2
				C251.2,2062.3,252.7,2063.1,252.7,2064.6z M251.6,2064.6c0-0.9-1.1-1.4-2.8-1.4c-1.8,0-2.8,0.5-2.8,1.4c0,0.9,1.1,1.4,2.8,1.4
				C250.6,2065.9,251.6,2065.4,251.6,2064.6z M249.1,2057.7c0.1,0.3,0.1,0.6,0.1,0.9c0,0.3-0.1,0.6-0.2,0.9h2.5v-1.8H249.1z"/>
		</g>
		<g class="st0">
			<path class="st4" d="M33.6,2083c0-1.1,0.8-1.8,1.6-1.8c0.9,0,1.6,0.7,1.6,1.8c0,1-0.8,1.7-1.6,1.7
				C34.3,2084.8,33.6,2084.1,33.6,2083z"/>
			<path class="st4" d="M51.6,2082.1v0.9h-4.7v2.4h-1.1v-2.4H41v-0.9H51.6z M42.2,2078.8c0-1.4,1.6-2.3,4.1-2.3s4.1,0.9,4.1,2.3
				c0,1.4-1.6,2.3-4.1,2.3S42.2,2080.2,42.2,2078.8z M43.4,2086.7h7v0.9h-8.1v-3.4h1.1V2086.7z M43.3,2078.8c0,0.9,1.2,1.5,3,1.5
				c1.8,0,3-0.6,3-1.5c0-0.9-1.2-1.5-3-1.5C44.5,2077.3,43.3,2077.9,43.3,2078.8z"/>
			<path class="st4" d="M63.5,2081.9v0.9H53v-0.9h4.7v-1.7h1.1v1.7H63.5z M62.5,2080.8c-1.8-0.3-3.5-1.2-4.2-2.5
				c-0.7,1.3-2.4,2.2-4.2,2.5l-0.4-0.8c2.1-0.3,4.1-1.6,4.1-3.1v-0.5h1.1v0.5c0,1.5,2,2.8,4.1,3.1L62.5,2080.8z M62.2,2085.8
				c0,1.3-1.5,2-4,2s-4-0.7-4-2c0-1.3,1.5-2,4-2S62.2,2084.5,62.2,2085.8z M61.1,2085.8c0-0.8-1.1-1.2-2.9-1.2s-2.9,0.4-2.9,1.2
				c0,0.8,1.1,1.2,2.9,1.2S61.1,2086.5,61.1,2085.8z"/>
			<path class="st4" d="M68.8,2079.9c0,1.9,1.2,3.8,2.8,4.6l-0.6,0.8c-1.3-0.6-2.3-1.9-2.8-3.4c-0.5,1.6-1.6,3-2.9,3.6l-0.6-0.8
				c1.7-0.8,3-2.8,3-4.8v-0.9h-2.6v-0.9h2.6v-1.8h1.1v1.8h2.6v0.9h-2.6V2079.9z M75.8,2081.8h-1.9v6h-1.1v-11.7h1.1v4.8h1.9V2081.8z
				"/>
			<path class="st4" d="M83.9,2082.1c-1.8,0.3-3.4,0.4-5.5,0.4h-0.9v-3.3h4.2v-1.5h-4.2v-0.9h5.3v3.2h-4.2v1.6c2,0,3.5-0.1,5.3-0.4
				L83.9,2082.1z M86.1,2085.7c0,1.4-1.5,2.1-3.8,2.1c-2.4,0-3.8-0.8-3.8-2.1c0-1.4,1.5-2.1,3.8-2.1
				C84.6,2083.5,86.1,2084.3,86.1,2085.7z M85,2085.7c0-0.8-1-1.3-2.8-1.3c-1.7,0-2.8,0.5-2.8,1.3s1.1,1.3,2.8,1.3
				C84,2087,85,2086.5,85,2085.7z M85.9,2078.8v1.6h1.7v0.9h-1.7v1.9h-1.1v-7h1.1v1.8h1.7v0.9H85.9z"/>
			<path class="st4" d="M95,2081.7c-1.7,0-3-1-3-2.6c0-1.5,1.3-2.6,3-2.6c1.7,0,3,1.1,3,2.6C98.1,2080.7,96.8,2081.7,95,2081.7z
				 M95,2080.9c1.1,0,2-0.7,2-1.7c0-1-0.8-1.7-2-1.7c-1.1,0-2,0.7-2,1.7C93.1,2080.2,93.9,2080.9,95,2080.9z M101.7,2086.8v0.8h-7.9
				v-2.9h6.5v-1.2h-6.5v-0.8h7.6v2.8h-6.5v1.3H101.7z M101.3,2082.1h-1.1v-6h1.1V2082.1z"/>
			<path class="st4" d="M109.9,2082.5c-1.3-0.5-2.3-1.4-2.8-2.6c-0.5,1.4-1.5,2.4-2.9,3l-0.6-0.8c1.8-0.6,2.9-2.2,2.9-4v-1.2h1.1
				v1.3c0,1.6,1.1,3,2.8,3.6L109.9,2082.5z M112.9,2085.7c0,1.4-1.5,2.1-3.8,2.1c-2.4,0-3.8-0.8-3.8-2.1c0-1.4,1.5-2.1,3.8-2.1
				C111.4,2083.5,112.9,2084.3,112.9,2085.7z M111.8,2085.7c0-0.8-1.1-1.3-2.8-1.3c-1.7,0-2.8,0.5-2.8,1.3c0,0.8,1.1,1.3,2.8,1.3
				C110.8,2087,111.8,2086.5,111.8,2085.7z M114.5,2079.2v0.9h-1.7v3.2h-1.1v-7.1h1.1v3H114.5z"/>
			<path class="st4" d="M122,2082.6c-1.3-0.5-2.3-1.4-2.8-2.6c-0.5,1.3-1.6,2.4-2.9,2.9l-0.6-0.8c1.7-0.6,2.9-2.2,2.9-3.8v-0.4h-2.6
				v-0.9h6.2v0.9h-2.6v0.4c0,1.5,1.1,3,2.8,3.6L122,2082.6z M117.7,2083.5h7.6v4.1h-7.6V2083.5z M118.7,2086.8h5.5v-2.4h-5.5V2086.8
				z M125.3,2076.1v6.8h-1.1v-3h-2.3v-0.9h2.3v-2.9H125.3z"/>
			<path class="st4" d="M133.6,2076.9c0,3-2.1,5-5.4,6l-0.4-0.8c2.8-0.8,4.5-2.3,4.7-4.3h-4.1v-0.9H133.6z M129.7,2083.3h7.5v4.3
				h-7.5V2083.3z M130.8,2086.8h5.4v-2.6h-5.4V2086.8z M137.2,2076.1v6.7h-1.1v-2.8h-2.5v-0.9h2.5v-3H137.2z"/>
			<path class="st4" d="M148.6,2081.7h-5.4v-4.8h5.4V2081.7z M148.9,2084.5c0,1.1,1.8,2.2,3.8,2.5l-0.4,0.8c-1.8-0.2-3.3-1.1-4-2.1
				c-0.7,1.1-2.3,1.9-4.1,2.1l-0.4-0.8c2-0.2,3.8-1.3,3.9-2.5h-3.4v-0.8h3.4v-1.1h1.1v1.1h3.4v0.8H148.9z M147.5,2077.7h-3.4v3.1
				h3.4V2077.7z M152.1,2082.8H151v-6.7h1.1V2082.8z"/>
			<path class="st4" d="M167.9,2082.1v0.9h-4.7v2.4h-1.1v-2.4h-4.8v-0.9H167.9z M158.6,2078.8c0-1.4,1.6-2.3,4.1-2.3
				s4.1,0.9,4.1,2.3c0,1.4-1.6,2.3-4.1,2.3S158.6,2080.2,158.6,2078.8z M159.8,2086.7h7v0.9h-8.1v-3.4h1.1V2086.7z M159.7,2078.8
				c0,0.9,1.2,1.5,3,1.5c1.8,0,3-0.6,3-1.5c0-0.9-1.2-1.5-3-1.5C160.9,2077.3,159.7,2077.9,159.7,2078.8z"/>
			<path class="st4" d="M175.7,2082.9c-1.3-0.5-2.3-1.4-2.8-2.6c-0.5,1.3-1.6,2.4-2.9,2.9l-0.6-0.8c1.7-0.6,2.9-2.2,2.9-3.8v-0.6
				h-2.6v-0.9h6.2v0.9h-2.6v0.6c0,1.5,1.1,3,2.8,3.6L175.7,2082.9z M179.3,2086.7v0.9h-7.8v-3.6h1.1v2.7H179.3z M177.9,2079.4v-3.2
				h1.1v8.5h-1.1v-4.5h-2.3v-0.9H177.9z"/>
			<path class="st4" d="M185.2,2079.7c0,1.9,1.3,3.9,3,4.7l-0.6,0.9c-1.3-0.6-2.4-2-2.9-3.6c-0.5,1.7-1.7,3.2-3,3.9l-0.6-0.8
				c1.7-0.8,3.1-3,3.1-5v-1.5h-2.7v-0.9h6.3v0.9h-2.6V2079.7z M192.2,2081.7h-1.9v6.1h-1.1v-11.6h1.1v4.7h1.9V2081.7z"/>
			<path class="st4" d="M206.7,2085.3v0.9h-10.5v-0.9h2.6v-3.9h1.1v3.9h1.8v-3.9h1.1v3.9H206.7z M204.4,2078.2h-7.2v-0.9h8.2v1.3
				c0,1.5,0,3-0.4,5.2l-1.1-0.1c0.4-2.1,0.4-3.6,0.4-5.1V2078.2z"/>
			<path class="st4" d="M215.9,2082.6v1.5h1.5v3.7h-1.1v-2.9h-7v-0.9h1.6v-1.5h-2.8v-0.9h10.5v0.9H215.9z M209.3,2078.7
				c0-1.4,1.6-2.2,4.1-2.2c2.5,0,4.1,0.8,4.1,2.2s-1.6,2.2-4.1,2.2C210.9,2080.9,209.3,2080.1,209.3,2078.7z M210.4,2078.7
				c0,0.9,1.2,1.4,3,1.4s3-0.5,3-1.4s-1.2-1.4-3-1.4S210.4,2077.8,210.4,2078.7z M214.8,2082.6H212v1.5h2.8V2082.6z"/>
		</g>
		<g class="st0">
			<path class="st4" d="M33.6,2104c0-1.1,0.8-1.8,1.6-1.8c0.9,0,1.6,0.7,1.6,1.8c0,1-0.8,1.7-1.6,1.7
				C34.3,2105.8,33.6,2105.1,33.6,2104z"/>
			<path class="st4" d="M51.6,2103.1v0.9h-4.7v2.4h-1.1v-2.4H41v-0.9H51.6z M42.2,2099.8c0-1.4,1.6-2.3,4.1-2.3s4.1,0.9,4.1,2.3
				c0,1.4-1.6,2.3-4.1,2.3S42.2,2101.2,42.2,2099.8z M43.4,2107.7h7v0.9h-8.1v-3.4h1.1V2107.7z M43.3,2099.8c0,0.9,1.2,1.5,3,1.5
				c1.8,0,3-0.6,3-1.5c0-0.9-1.2-1.5-3-1.5C44.5,2098.3,43.3,2098.9,43.3,2099.8z"/>
			<path class="st4" d="M63.5,2102.9v0.9H53v-0.9h4.7v-1.7h1.1v1.7H63.5z M62.5,2101.8c-1.8-0.3-3.5-1.2-4.2-2.5
				c-0.7,1.3-2.4,2.2-4.2,2.5l-0.4-0.8c2.1-0.3,4.1-1.6,4.1-3.1v-0.5h1.1v0.5c0,1.5,2,2.8,4.1,3.1L62.5,2101.8z M62.2,2106.8
				c0,1.3-1.5,2-4,2s-4-0.7-4-2c0-1.3,1.5-2,4-2S62.2,2105.5,62.2,2106.8z M61.1,2106.8c0-0.8-1.1-1.2-2.9-1.2s-2.9,0.4-2.9,1.2
				c0,0.8,1.1,1.2,2.9,1.2S61.1,2107.5,61.1,2106.8z"/>
			<path class="st4" d="M68.8,2100.3c0,2.1,1.3,4.2,3,5l-0.7,0.8c-1.2-0.7-2.3-2-2.8-3.6c-0.5,1.7-1.6,3.2-2.9,3.9l-0.6-0.9
				c1.7-0.9,3-3.1,3-5.2v-2.1h1.1V2100.3z M75.8,2102.8h-1.9v6h-1.1v-11.6h1.1v4.7h1.9V2102.8z"/>
			<path class="st4" d="M87.4,2106.3v0.9H76.9v-0.9H81v-4.2h1.1v4.2H87.4z M85.1,2099.2H78v-0.9h8.2v1.2c0,1.4,0,3-0.4,5.4l-1.1-0.1
				c0.4-2.2,0.4-3.9,0.4-5.3V2099.2z"/>
			<path class="st4" d="M93.2,2105c1.6,0,2.7-0.1,3.9-0.4l0.1,0.9c-1.4,0.3-2.6,0.4-4.3,0.4h-0.8v-7.4h4.3v0.9h-3.3V2105z
				 M101.7,2097.1v11.7h-1v-6.1H99v5.5h-1v-10.8h1v4.4h1.7v-4.7H101.7z"/>
			<path class="st4" d="M105.4,2098.1v3.1h3.4v-3.1h1.1v7.9h-5.5v-7.9H105.4z M105.4,2105.1h3.4v-3.1h-3.4V2105.1z M113.3,2097.1
				v11.7h-1.1v-11.7H113.3z"/>
			<path class="st4" d="M120.3,2098.1v3.1h3.4v-3.1h1.1v7.9h-5.5v-7.9H120.3z M120.3,2105.1h3.4v-3.1h-3.4V2105.1z M128.1,2097.1
				v11.7h-1.1v-11.7H128.1z"/>
			<path class="st4" d="M136.7,2103.5c-1.3-0.5-2.3-1.4-2.8-2.6c-0.5,1.4-1.5,2.4-2.9,3l-0.6-0.8c1.8-0.6,2.9-2.2,2.9-4v-1.2h1.1
				v1.3c0,1.6,1.1,3,2.8,3.6L136.7,2103.5z M139.7,2106.7c0,1.4-1.5,2.1-3.8,2.1c-2.4,0-3.8-0.8-3.8-2.1c0-1.4,1.5-2.1,3.8-2.1
				C138.3,2104.5,139.7,2105.3,139.7,2106.7z M138.7,2106.7c0-0.8-1.1-1.3-2.8-1.3c-1.7,0-2.8,0.5-2.8,1.3c0,0.8,1.1,1.3,2.8,1.3
				C137.6,2108,138.7,2107.5,138.7,2106.7z M141.3,2100.2v0.9h-1.7v3.2h-1.1v-7.1h1.1v3H141.3z"/>
			<path class="st4" d="M153.1,2106.4v0.9h-10.6v-0.9h4.8v-2.8h1.1v2.8H153.1z M143,2103.1c2-0.3,4.2-2,4.2-3.8v-0.2h-3.9v-0.9h8.8
				v0.9h-3.9v0.2c0,1.9,2.2,3.5,4.3,3.8l-0.4,0.9c-1.8-0.4-3.6-1.5-4.4-3.1c-0.7,1.6-2.6,2.8-4.3,3.1L143,2103.1z"/>
			<path class="st4" d="M158.8,2100.9c0,2,1.3,3.8,3.1,4.6l-0.6,0.8c-1.3-0.6-2.4-1.9-3-3.4c-0.5,1.6-1.6,3-3,3.6l-0.6-0.8
				c1.7-0.8,3-2.8,3-4.8v-0.9H155v-0.9h2.7v-1.8h1.1v1.8h2.7v0.9h-2.7V2100.9z M164,2097.1v11.7h-1.1v-11.7H164z"/>
			<path class="st4" d="M177,2103.8v0.8h-4.6v1.8h-1.1v-1.8h-4.8v-0.8H177z M176.4,2099.1H167v-0.8h4.2v-1.2h1.1v1.2h4.1V2099.1z
				 M168.8,2107.7h7v0.8h-8.1v-2.9h1.1V2107.7z M171.7,2099.6c2.4,0,3.8,0.6,3.8,1.8c0,1.2-1.4,1.8-3.8,1.8c-2.4,0-3.8-0.6-3.8-1.8
				C167.9,2100.2,169.3,2099.6,171.7,2099.6z M171.7,2100.3c-1.7,0-2.7,0.4-2.7,1c0,0.6,1,1,2.7,1c1.7,0,2.7-0.4,2.7-1
				C174.4,2100.7,173.4,2100.3,171.7,2100.3z"/>
			<path class="st4" d="M184.7,2103.9c-1.5,0.3-2.7,0.3-5,0.3h-0.8v-3.6h3.9v-1.7h-4v-0.9h5v3.4h-4v1.9c2.1,0,3.2-0.1,4.6-0.3
				L184.7,2103.9z M188.3,2107.6v0.9h-7.9v-3.4h1.1v2.5H188.3z M186.9,2102.6h-2.3v-0.9h2.3v-1.7h-2.3v-0.9h2.3v-2h1.1v8.6h-1.1
				V2102.6z"/>
			<path class="st4" d="M199.8,2102.9c-1.3-0.5-2.4-1.4-2.9-2.7c-0.5,1.3-1.6,2.4-3,2.9l-0.5-0.8c1.8-0.6,3-2.2,3-3.9v-0.9h1.1v0.9
				c0,1.6,1.2,3.1,3,3.6L199.8,2102.9z M203.2,2107.8v0.8h-7.9v-2.9h6.5v-1.2h-6.5v-0.8h7.6v2.8h-6.5v1.2H203.2z M202.8,2103.2h-1.1
				v-6h1.1V2103.2z"/>
			<path class="st4" d="M209.4,2100.3c0,2.1,1.4,4.3,3.1,5.1l-0.6,0.9c-1.3-0.7-2.4-2-3-3.7c-0.5,1.8-1.7,3.2-3,3.9l-0.7-0.9
				c1.7-0.8,3.1-3.1,3.1-5.3v-2.1h1.1V2100.3z M214.8,2097.1v11.7h-1.1v-11.7H214.8z"/>
			<path class="st4" d="M220.6,2103.8c0-2.5,0.7-4.7,1.9-6.6l0.7,0.3c-1.1,1.9-1.7,4-1.7,6.3s0.5,4.4,1.7,6.3l-0.7,0.4
				C221.3,2108.5,220.6,2106.4,220.6,2103.8z"/>
			<path class="st4" d="M235,2103.1v0.9h-4.7v2.4h-1.1v-2.4h-4.8v-0.9H235z M225.7,2099.8c0-1.4,1.6-2.3,4.1-2.3
				c2.5,0,4.1,0.9,4.1,2.3c0,1.4-1.6,2.3-4.1,2.3C227.3,2102.1,225.7,2101.2,225.7,2099.8z M226.9,2107.7h7v0.9h-8.1v-3.4h1.1
				V2107.7z M226.8,2099.8c0,0.9,1.2,1.5,3,1.5c1.8,0,3-0.6,3-1.5c0-0.9-1.2-1.5-3-1.5C228,2098.3,226.8,2098.9,226.8,2099.8z"/>
			<path class="st4" d="M247,2102.9v0.9h-10.5v-0.9h4.7v-1.7h1.1v1.7H247z M246,2101.8c-1.8-0.3-3.5-1.2-4.2-2.5
				c-0.7,1.3-2.4,2.2-4.2,2.5l-0.4-0.8c2.1-0.3,4.1-1.6,4.1-3.1v-0.5h1.1v0.5c0,1.5,2,2.8,4.1,3.1L246,2101.8z M245.7,2106.8
				c0,1.3-1.5,2-4,2s-4-0.7-4-2c0-1.3,1.5-2,4-2S245.7,2105.5,245.7,2106.8z M244.6,2106.8c0-0.8-1.1-1.2-2.9-1.2
				c-1.8,0-2.9,0.4-2.9,1.2c0,0.8,1.1,1.2,2.9,1.2C243.6,2108,244.6,2107.5,244.6,2106.8z"/>
			<path class="st4" d="M252.8,2105.6c1.1-0.1,2.2-0.1,3.3-0.3l0.1,0.8c-2.6,0.4-5.4,0.5-7.6,0.5l-0.2-0.9c1,0,2.1,0,3.3-0.1v-1.2
				c-1.4-0.2-2.3-1-2.3-2.1c0-1.3,1.1-2.2,2.8-2.2s2.8,0.8,2.8,2.2c0,1.2-0.9,2-2.3,2.1V2105.6z M255.8,2099.4h-7.1v-0.9h3v-1.4h1.1
				v1.4h3V2099.4z M252.3,2103.6c1.1,0,1.8-0.5,1.8-1.3c0-0.8-0.7-1.3-1.8-1.3c-1.1,0-1.8,0.5-1.8,1.3
				C250.5,2103.1,251.2,2103.6,252.3,2103.6z M257.9,2097.1v11.7h-1.1v-11.7H257.9z"/>
			<path class="st4" d="M264.3,2100.3c0,2.1,1.3,4.2,3,5l-0.7,0.8c-1.2-0.7-2.3-2-2.8-3.6c-0.5,1.7-1.6,3.2-2.9,3.9l-0.6-0.9
				c1.7-0.9,3-3.1,3-5.2v-2.1h1.1V2100.3z M271.3,2102.8h-1.9v6h-1.1v-11.6h1.1v4.7h1.9V2102.8z"/>
			<path class="st4" d="M281.6,2103.6c-1.3-0.4-2.3-1.3-2.9-2.4c-0.5,1.2-1.6,2.2-2.9,2.6l-0.5-0.8c1.7-0.5,2.9-1.9,2.9-3.4v-0.2
				h-2.6v-0.9h2.6v-1.4h1.1v1.4h2.6v0.9h-2.6v0.2c0,1.4,1.1,2.7,2.8,3.2L281.6,2103.6z M277,2104.6h7.3v4.1H277V2104.6z M278,2107.8
				h5.2v-2.4H278V2107.8z M286,2101h-1.7v3.1h-1.1v-6.9h1.1v3h1.7V2101z"/>
			<path class="st4" d="M296.8,2097.1v11.7h-1.1v-4.5h-2.9c-0.5,1.2-1.4,1.9-2.5,1.9c-1.7,0-2.9-1.6-2.9-4.1s1.2-4.1,2.9-4.1
				c1.1,0,1.9,0.6,2.4,1.7h3v-2.6H296.8z M292.2,2102.1c0-1.9-0.8-3.1-1.9-3.1c-1.1,0-1.9,1.2-1.9,3.1c0,1.9,0.8,3.1,1.9,3.1
				C291.4,2105.2,292.2,2104,292.2,2102.1z M295.7,2103.4v-2.8h-2.7c0.1,0.5,0.2,0.9,0.2,1.5c0,0.5-0.1,0.9-0.1,1.3H295.7z"/>
			<path class="st4" d="M299,2110.1c1.1-1.8,1.7-4,1.7-6.3s-0.5-4.4-1.7-6.3l0.7-0.3c1.2,1.9,1.9,4,1.9,6.6c0,2.6-0.7,4.7-1.9,6.6
				L299,2110.1z"/>
		</g>
	</g>
</g>
</svg>
