<?xml version="1.0" encoding="utf-8"?>
<!-- Generator: Adobe Illustrator 25.1.0, SVG Export Plug-In . SVG Version: 6.00 Build 0)  -->
<svg version="1.1" id="레이어_1" xmlns="http://www.w3.org/2000/svg" xmlns:xlink="http://www.w3.org/1999/xlink" x="0px"
	 y="0px" viewBox="0 0 661.4 384" style="enable-background:new 0 0 661.4 384;" xml:space="preserve">
<style type="text/css">
	.st0{fill:#3AA25C;}
	.st1{fill:#FFFFFF;}
	.st2{fill:none;stroke:#3AA25C;stroke-width:2;stroke-linecap:round;stroke-miterlimit:10;}
	.st3{fill:none;stroke:#3AA25C;stroke-width:2;stroke-linejoin:round;}
	.st4{fill:none;stroke:#3AA25C;stroke-width:2;stroke-linecap:round;stroke-linejoin:round;}
	.st5{fill:#555555;}
	.st6{fill:none;stroke:#61C185;stroke-width:0.75;stroke-miterlimit:10;}
	.st7{enable-background:new    ;}
</style>
<g id="그룹_5797" transform="translate(-861.71 500)">
	<rect id="사각형_281" x="919.4" y="-500" class="st0" width="603.4" height="48.8"/>
	<path id="패스_1537" class="st1" d="M919.7-259.8h603.1v-183.7H919.7V-259.8z"/>
	<g id="그룹_4020" transform="translate(1391.525 -413.665)">
		<g id="그룹_4007" transform="translate(0 49.666)">
			<path id="패스_1548" class="st2" d="M4.2,9.1H36 M33,15.2l-0.5-1L23.5,3 M25,15.2l-0.5-1L15.5,3 M17,15.2l-0.5-1L7.5,3
				 M40.5,14.2L31.5,3H0v1.1l8.1,11.1h32.4V14.2z"/>
		</g>
		<g id="그룹_4008" transform="translate(0.001 0)">
			<path id="패스_1549" class="st3" d="M21.5,25c0,1.1-0.9,2-2,2s-2-0.9-2-2s0.9-2,2-2S21.5,23.9,21.5,25L21.5,25z M19.7,22.7V4.6
				c0-0.9,0.7-1.6,1.6-1.6l0,0c0.8,0,1.4,0.5,1.5,1.3l2.7,14.6L21,24 M17.7,25.7l-15.3,9c-0.8,0.4-1.7,0.2-2.1-0.6
				c-0.4-0.7-0.2-1.5,0.3-2l11.3-9.6L17,24 M21.5,25.6l15.6,9.1c0.8,0.4,1,1.4,0.6,2.1c-0.4,0.7-1.2,0.9-1.9,0.7l-14-5 M17.5,25v25
				 M21.5,26.5V50 M45.9,43.5c0,1.1-0.9,2-2,2s-2-0.9-2-2s0.9-2,2-2S45.9,42.4,45.9,43.5L45.9,43.5z M44.6,41V23.9
				c0-0.8,0.7-1.5,1.5-1.5c0.7,0,1.3,0.5,1.5,1.2l2.5,13.8L44.9,42 M26.1,50.2l11.1-9.3l5.2,2.1 M41.6,44.4l-9.7,5.7"/>
		</g>
		<g id="그룹_4009" transform="translate(46.323 40.571)">
			<path id="패스_1550" class="st4" d="M0,3l14.7,8.7c0.7,0.4,1,1.4,0.6,2.1c-0.4,0.6-1.1,0.9-1.8,0.7L0,9.7"/>
		</g>
		<g id="그룹_4011" transform="translate(40.312 40.801)">
			<path id="패스_1552" class="st3" d="M1.5,3v18.1 M5.5,4.1v17 M0,24.1h16.4"/>
		</g>
	</g>
	<g id="그룹_4012" transform="translate(1193.237 -408.771)">
		<path id="패스_1553" class="st3" d="M44.7,52.9c-0.2-1,0.2-2,0.9-2.7c1.1-1.1,8.6-9.9,9.6-10.9s0.9-11.5,0.9-12.9
			c-0.1-1.4-0.3-8.5-1.4-11.2c-1.8,0-3.5,1-4.3,2.6c-1.2,1.9-1,3.9,0,6.9l-1.9,6 M43.9,41.7c0,0,4.8-4.9,5.7-5.8
			c3.4-3.4-0.9-7.8-4.3-4.3c-0.9,0.9-0.9,1-3.3,3.4c-0.7,0.7-1.7,0.3-2.8,1.5c-0.5,0.5-3.2,3.1-4.4,4.3s-1.7,3.6-1.7,5.2v7 M47.6,59
			v-6.1H30.5V59 M34.2,56.6h2.4 M11.4,52.9c0.2-1-0.2-2-0.9-2.7c-1-1-8.5-9.8-9.6-10.9c-1-1-0.9-11.5-0.9-12.9
			c0.1-1.4,0.3-8.5,1.4-11.2c1.8,0,3.5,1,4.3,2.6c1.2,1.9,1,3.9,0,6.9l1.9,6 M12.3,41.7c0,0-4.8-4.9-5.7-5.8
			c-3.4-3.4,0.9-7.8,4.3-4.3c0.9,0.9,0.9,1,3.3,3.4c0.7,0.7,1.7,0.3,2.8,1.5c0.5,0.5,3.2,3.1,4.4,4.3s1.7,3.6,1.7,5.2v7 M8.5,59
			v-6.1h17.1V59 M22,56.6h-2.4 M25.8,29.7c-4.8-1.8-7.2-7.8-6.4-11C21.5,10.1,29.6,9.3,33.1,3c5.3,3.9,7.3,11.8,4.9,18.9
			c-1.6,4.8-6.1,6.4-8.5,6.9 M27,37.1c-3.6-10.5,1.8-18.4,4.8-25.3"/>
	</g>
	<g id="그룹_4013" transform="translate(992.123 -405.244)">
		<path id="패스_1554" class="st4" d="M21.5,9.2c0,0-0.9,4.1,3.9,8.2c7,5.9,17.5,0.9,19.4-6.7c0,0-2.9,1-6.7-2.5
			c-3.1-2.9-7.3-8.1-15.5-3 M19.3,38.9l18.1-9.6V38l16.5-8.8v27.2 M26.9,50.3h-5.7v-4c0-1.6,1.3-2.8,2.9-2.8c1.5,0,2.7,1.3,2.8,2.8
			V50.3z M37.8,50.3h-5.7v-4c0-1.6,1.3-2.8,2.9-2.8c1.5,0,2.7,1.3,2.8,2.8l0,0V50.3z M48.6,50.3H43v-4c0-1.6,1.3-2.8,2.8-2.8
			s2.8,1.3,2.8,2.8l0,0V50.3z M56.1,56.4H0 M2.7,56.4L5.9,16l0,0c2.4-1.1,5.1-1.1,7.4,0l0,0l3.2,40.5 M10.3,11.1
			c2.4-1.9,5.4-2.9,8.5-3C22.4,8,25.9,9,28.8,11 M13.8,20.9H9"/>
	</g>
	<g>
		<g id="그룹_5683" transform="translate(989.198 -333.303)">
			<path id="패스_3234" class="st5" d="M2.8,0.9c0,3.3-1.5,6.2-5.3,8l-0.6-0.8c3-1.5,4.6-3.6,4.8-6.3h-4.3V0.9H2.8z M6.1-0.3V11
				h-1V-0.3H6.1z"/>
			<path id="패스_3235" class="st5" d="M18.7,7.9h-4.6V11h-1V7.9H8.4V7h10.3V7.9z M18.1,1.8H9V1h4v-1.4h1V1h4L18.1,1.8z M13.6,2.5
				c2.3,0,3.7,0.7,3.7,1.9s-1.4,1.9-3.7,1.9S9.9,5.6,9.9,4.4S11.2,2.5,13.6,2.5L13.6,2.5z M13.6,3.3c-1.7,0-2.6,0.4-2.6,1.1
				s1,1.1,2.6,1.1s2.6-0.4,2.6-1.1S15.2,3.3,13.6,3.3L13.6,3.3z"/>
			<path id="패스_3236" class="st5" d="M25.7,6.1h-5.1V0.4h1v2h3.1v-2h1v1.3h2.6v-2.1h1V8h-1V5h-2.6V6.1z M24.7,3.3h-3.1v2h3.1
				V3.3z M29.7,9.9v0.8h-7.6V7.2h1v2.7H29.7z M25.7,2.6v1.6h2.6V2.6H25.7z"/>
			<path id="패스_3237" class="st5" d="M35.7,7.9c1,0,2-0.1,3-0.3l0.1,0.8c-2.3,0.4-4.7,0.5-7.1,0.5L31.6,8c0.9,0,2,0,3.1,0V6.7
				c-1.2,0-2.1-0.9-2.2-2.1c0-1.3,1.1-2.1,2.7-2.1s2.7,0.8,2.7,2.1c-0.1,1.2-1,2.1-2.2,2.1V7.9z M38.5,1.9h-6.8V1h2.9v-1.4h1V1h2.9
				L38.5,1.9z M35.1,5.9c1,0,1.7-0.5,1.7-1.3s-0.7-1.3-1.7-1.3s-1.7,0.5-1.7,1.3S34.1,5.9,35.1,5.9L35.1,5.9z M42.2,5.4h-1.8V11h-1
				V-0.3h1v4.8h1.8V5.4z"/>
			<path id="패스_3238" class="st5" d="M44.7,7.4c1.3,0,2.6-0.1,3.8-0.3L48.6,8c-1.4,0.3-2.8,0.4-4.2,0.3h-0.7V1.1h4.2v0.8h-3.2
				L44.7,7.4z M52.9-0.3V11h-1V5.1h-1.6v5.4h-1V-0.1h1v4.3h1.6v-4.6L52.9-0.3z"/>
			<path id="패스_3239" class="st5" d="M65.2,5.2V6H54.9V5.2H65.2z M64,2.1c0,1.4-1.5,2.1-4,2.1s-4-0.8-4-2.1s1.5-2.2,4-2.2
				S64,0.8,64,2.1L64,2.1z M63.9,9c0,1.3-1.5,2-3.9,2s-3.9-0.7-3.9-2s1.5-2,3.9-2C62.5,7,63.9,7.7,63.9,9L63.9,9z M57.1,2.1
				c0,0.8,1.1,1.3,2.9,1.3c1.9,0.1,3-0.4,3-1.3s-1.1-1.4-2.9-1.4S57.1,1.3,57.1,2.1L57.1,2.1z M57.2,9c0,0.8,1,1.2,2.8,1.2
				s2.8-0.4,2.8-1.2s-1-1.2-2.8-1.2C58.3,7.8,57.2,8.2,57.2,9L57.2,9z"/>
		</g>
		<g id="그룹_5684" transform="translate(977.2 -314.629)">
			<path id="패스_3240" class="st5" d="M6,6.9H3.3v4h-1v-4h-2.8v4h-1v-4h-2.6V6H6V6.9z M-3.1,2.5C-3.1,1-1.5,0,0.9,0s4,0.9,4,2.5
				S3.3,5,0.9,5S-3.1,4-3.1,2.5L-3.1,2.5z M-2,2.5c0,1,1.2,1.6,2.9,1.6s2.9-0.6,2.9-1.6S2.6,0.8,0.9,0.8S-2,1.5-2,2.5L-2,2.5z"/>
			<path id="패스_3242" class="st5" d="M23,7.8c1,0,2-0.1,3-0.3l0.1,0.8c-2.3,0.4-4.7,0.5-7.1,0.5l-0.1-0.9c0.9,0,2,0,3.1,0V6.6
				c-1.2,0-2.1-0.9-2.2-2.1c0-1.3,1.1-2.1,2.7-2.1s2.7,0.8,2.7,2.1c-0.1,1.2-1,2.1-2.2,2.1V7.8z M25.9,1.7h-6.8V0.9H22v-1.4h1v1.4
				h2.9V1.7z M22.5,5.8c1,0,1.7-0.5,1.7-1.3s-0.7-1.3-1.7-1.3s-1.7,0.5-1.7,1.3S21.5,5.8,22.5,5.8L22.5,5.8z M29.5,5.2h-1.8v5.7h-1
				V-0.5h1v4.8h1.8V5.2z"/>
			<path id="패스_3243" class="st5" d="M37.4,1.6h-6.7V0.7h2.8v-1.3h1v1.3h2.8v0.9H37.4z M34,6.3c-1.6,0-2.7-0.8-2.7-2
				s1.1-2,2.7-2c1.6,0,2.7,0.8,2.7,2.1S35.6,6.3,34,6.3L34,6.3z M32.1,7.3h7.4v3.6h-1V8.1h-6.3V7.3H32.1z M34,5.5
				c1,0,1.7-0.5,1.7-1.3S35,3,34,3s-1.7,0.5-1.7,1.3S33,5.5,34,5.5L34,5.5z M41.1,3.5h-1.7v3.1h-1v-7.1h1v3.1h1.7V3.5z"/>
			<path id="패스_3244" class="st5" d="M47.9,5.2v1.1h3.3v2.6h-6.7V10h7v0.8h-8V8.1h6.7v-1h-6.7V6.3h3.4V5.2h-4.6V4.3h10.3v0.8
				L47.9,5.2L47.9,5.2z M51.2,3.4h-7.6v-3.5h7.6V3.4z M50.2,0.7h-5.6v1.8h5.6V0.7z"/>
			<path id="패스_3245" class="st5" d="M60.4,5.2c-1.3-0.4-2.3-1.3-2.9-2.5c-0.6,1.3-1.6,2.3-3,2.7L54,4.6
				c1.6-0.4,2.8-1.8,2.9-3.5V1h-2.6V0.2h6.2V1H58v0.1c0.1,1.6,1.3,2.9,2.9,3.3L60.4,5.2z M63.6,9.9v0.8h-7.7V7.9h6.3V6.8h-6.3V6h7.4
				v2.7H57v1.2H63.6z M63.2,5.4h-1v-5.9h1V5.4z"/>
			<path id="패스_3246" class="st5" d="M75.5,5.8c-2.3,0.3-4.7,0.5-7.1,0.5l-0.1-0.8c0.7,0,1.5,0,2.4,0V3h1v2.4
				c1.2-0.1,2.5-0.1,3.7-0.3L75.5,5.8z M73.3,4.3c0.2-1,0.3-2,0.3-3H69V0.4h5.6V1c0,1.1-0.1,2.3-0.3,3.4L73.3,4.3z M71,9.8h6.5v0.8
				H70V7.3h1V9.8z M78.8,3.2v0.9h-1.6v4h-1v-8.5h1v3.7h1.6V3.2z"/>
			<path id="패스_3247" class="st5" d="M81.7,7.3c1.8,0,3.7-0.1,5.5-0.4l0.1,0.8c-1.9,0.3-3.8,0.4-5.7,0.4h-0.9V3.8h4.2V1.4h-4.2
				V0.6H86v4.1h-4.2L81.7,7.3z M89.3-0.5v11.4h-1V-0.5H89.3z"/>
			<g>
				<path class="st5" d="M10.7,1.5H13v0.8H7.4V1.5h2.3v-1.6h1V1.5z M12.6,5.7c0,1.5-1,2.6-2.4,2.6S7.8,7.2,7.8,5.7s1-2.6,2.4-2.6
					C11.6,3.1,12.6,4.2,12.6,5.7z M11.7,5.7c0-1-0.6-1.7-1.5-1.7S8.7,4.7,8.7,5.7s0.6,1.7,1.5,1.7C11.1,7.4,11.7,6.7,11.7,5.7z
					 M17-0.5v11.4h-1V5.2h-1.5v5.2h-1V-0.2h1v4.5H16v-4.8H17z"/>
			</g>
		</g>
		<g id="그룹_5685" transform="translate(992.954 -295.91)">
			<path id="패스_3248" class="st5" d="M1.8,6.9c0.4,0,0.8-0.1,1.2-0.1v0.8C1.2,7.9-0.7,8-2.6,7.9L-2.7,7C-2.4,7-2,7-1.5,7V1.6
				h-0.9V0.8h5.2v0.8h-1V6.9z M-0.6,7.1C-0.1,7,0.4,7,0.9,7V1.6h-1.4L-0.6,7.1L-0.6,7.1z M3.9-0.4h1v10.5h-1V5.8H2.5V5H4V3.4H2.5
				V2.6H4L3.9-0.4z M7.1-0.6v11.3h-1V-0.6H7.1z"/>
			<path id="패스_3249" class="st5" d="M15,0.6c0,3.3-1.5,6.2-5.3,8L9.2,7.8c3-1.5,4.6-3.6,4.8-6.3H9.7V0.6H15z M18.4-0.6v11.3h-1
				V-0.6H18.4z"/>
			<path id="패스_3250" class="st5" d="M26.3,5v1.1h3.3v2.6H23v1.1h7v0.8h-8V7.9h6.7v-1H22V6.1h3.4V5h-4.6V4.1h10.3V5H26.3z
				 M29.6,3.2H22v-3.5h7.6V3.2z M28.6,0.6H23v1.8h5.6V0.6z"/>
			<path id="패스_3251" class="st5" d="M42.3,5.7C40,6,37.6,6.2,35.2,6.2l-0.1-0.8c0.7,0,1.5,0,2.4,0V2.8h1v2.4
				c1.2-0.1,2.5-0.1,3.7-0.3L42.3,5.7z M40.1,4.1c0.2-1,0.3-2,0.3-3h-4.6V0.3h5.6v0.6c0,1.1-0.1,2.3-0.3,3.4L40.1,4.1z M37.8,9.6
				h6.5v0.8h-7.5V7.1h1V9.6z M45.6,3.1V4H44v4h-1v-8.5h1v3.7h1.6V3.1z"/>
			<path id="패스_3252" class="st5" d="M48.5,7.1c1.8,0,3.7-0.1,5.5-0.4l0.1,0.8C52.2,7.9,50.3,8,48.4,8h-0.9V3.6h4.2V1.3h-4.2
				V0.4h5.3v4.1h-4.2L48.5,7.1z M56.1-0.6v11.4h-1V-0.6H56.1z"/>
		</g>
	</g>
	<g id="그룹_5686" transform="translate(1178.279 -333.28)">
		<path id="패스_3253" class="st5" d="M3,6.7C0.6,7.1-1.8,7.2-4.1,7.2l-0.1-0.8c0.9,0,1.9,0,3-0.1V5.5c-1.3-0.1-2.1-0.8-2.1-1.7
			C-3.4,2.6-2.3,2-0.7,2s2.6,0.7,2.6,1.7S1.1,5.3-0.2,5.4v0.8c1,0,2.1-0.1,3.1-0.3L3,6.7z M2.5,1.5H-4V0.7h2.8v-1.2h1v1.2h2.7V1.5z
			 M-1.5,9.9H5v0.8h-7.6V7.9h1L-1.5,9.9L-1.5,9.9z M-0.7,4.7c1,0,1.7-0.4,1.7-1s-0.7-1-1.7-1s-1.7,0.4-1.7,1
			C-2.4,4.4-1.7,4.7-0.7,4.7L-0.7,4.7z M6.3,3.6v0.9H4.6v4.1h-1v-8.9h1v4L6.3,3.6z"/>
		<path id="패스_3254" class="st5" d="M12.9,2.6C11.9,4.5,10.1,6,8,6.4L7.6,5.6c2.7-0.8,4.4-2.3,4.6-4.3h-4V0.5h5.1
			c0,0.4,0,0.8-0.1,1.2h2.6v-2.1h1.1v6.8h-1.1V4.9h-3V4.1h3V2.6H12.9z M16.8,8.7c0,1.4-1.5,2.2-3.8,2.2s-3.8-0.8-3.8-2.2
			s1.5-2.2,3.8-2.2S16.8,7.4,16.8,8.7L16.8,8.7z M15.8,8.7c0-0.8-1.1-1.4-2.7-1.4s-2.7,0.5-2.7,1.4s1.1,1.4,2.7,1.4
			S15.8,9.6,15.8,8.7L15.8,8.7z"/>
		<path id="패스_3256" class="st5" d="M36.9,6.2c-1.2-0.4-2.2-1.4-2.7-2.6C33.6,5,32.6,6,31.3,6.5l-0.5-0.8c1.6-0.5,2.8-2,2.9-3.7
			V1.4H31V0.5h6.1v0.8h-2.5V2c0.1,1.6,1.2,3,2.8,3.5L36.9,6.2z M40.3,9.9v0.8h-7.6V7.2h1.1v2.7H40.3z M39,2.8v-3.1h1V8h-1V3.6h-2.3
			V2.8H39z"/>
		<path id="패스_3257" class="st5" d="M52.6,8.7v0.8H42.3V8.7h4.6V6.2h-3.4V0.4h1v2h5.8v-2h1v5.8H48v2.4L52.6,8.7z M44.6,5.4h5.8
			V3.3h-5.8V5.4z"/>
		<path id="패스_3258" class="st5" d="M59.8,0.5c0,2.9-2.1,5.1-5.3,6.2l-0.4-0.8c2.6-0.9,4.4-2.5,4.6-4.5h-4V0.5H59.8z M63.6,9.9
			v0.8h-7.5V7.2h1v2.7H63.6z M62.2,3.1v-3.5h1V8h-1V4h-2.5V3.1H62.2z"/>
		<path id="패스_3259" class="st5" d="M75.5,5.9c-2.3,0.3-4.7,0.5-7.1,0.5l-0.1-0.8c0.7,0,1.5,0,2.4,0V3h1v2.4
			c1.2-0.1,2.5-0.1,3.7-0.3L75.5,5.9z M73.3,4.4c0.2-1,0.3-2,0.3-3H69V0.5h5.6v0.6c0,1.1-0.1,2.3-0.3,3.4L73.3,4.4z M71.1,9.9h6.5
			v0.8h-7.5V7.4h1V9.9z M78.9,3.3v0.9h-1.6v4h-1v-8.5h1v3.7L78.9,3.3z"/>
		<path id="패스_3260" class="st5" d="M81.7,7.4c1.8,0,3.7-0.1,5.5-0.4l0.1,0.8c-1.9,0.3-3.8,0.4-5.7,0.4h-0.9V3.9h4.2V1.5h-4.2
			V0.7H86v4.1h-4.2v2.6H81.7z M89.3-0.4V11h-1V-0.4H89.3z"/>
		<g>
			<path class="st5" d="M22.2,6c-1.7,0-3-1.2-3-2.8s1.3-2.8,3-2.8s3,1.2,3,2.8S23.9,6,22.2,6z M22.2,5.1c1.1,0,2-0.8,2-1.9
				s-0.8-1.9-2-1.9c-1.1,0-2,0.8-2,1.9C20.3,4.3,21.1,5.1,22.2,5.1z M21.8,9.9h6.5v0.8h-7.6V7.1h1v2.8H21.8z M29.5,3.1V4h-1.7v4h-1
				v-8.4h1v3.5C27.8,3.1,29.5,3.1,29.5,3.1z"/>
		</g>
	</g>
	<g id="그룹_5687" transform="translate(1378.382 -333.28)">
		<path id="패스_3261" class="st5" d="M1.9,6.4C0.6,6.1-0.4,5.1-1,3.9c-0.5,1.3-1.6,2.3-2.9,2.7l-0.5-0.8c1.6-0.5,2.8-1.9,2.8-3.6
			V2h-2.6V1.1h2.6v-1.5h1v1.5H2V2h-2.6v0.3c0.1,1.6,1.3,3,2.9,3.4L1.9,6.4z M5,9.9v0.8h-7.6V7.2h1v2.6H5V9.9z M4.7,8h-1v-8.4h1V8z"
			/>
		<path id="패스_3262" class="st5" d="M14.2,6.7c-2.3,0.4-4.7,0.5-7.1,0.5L7,6.4c0.9,0,1.9,0,3-0.1V5.5C8.7,5.3,7.9,4.7,7.9,3.7
			c0-1.1,1-1.7,2.6-1.7s2.6,0.7,2.6,1.7S12.3,5.3,11,5.4v0.8c1,0,2.1-0.1,3.1-0.3L14.2,6.7z M13.8,1.5H7.2V0.7H10v-1.2h1v1.2h2.7
			L13.8,1.5z M9.7,9.9h6.5v0.8H8.6V7.9h1L9.7,9.9L9.7,9.9z M10.5,4.7c1,0,1.7-0.4,1.7-1s-0.7-1-1.7-1s-1.7,0.4-1.7,1
			C8.8,4.4,9.5,4.7,10.5,4.7L10.5,4.7z M17.5,3.6v0.9h-1.7v4.1h-1v-8.9h1v4L17.5,3.6z"/>
		<path id="패스_3263" class="st5" d="M24.1,2.6c-0.9,2-2.8,3.4-4.9,3.9l-0.4-0.8c2.7-0.8,4.4-2.3,4.6-4.3h-4V0.5h5.1
			c0,0.4,0,0.8-0.1,1.2H27v-2.1h1v6.8h-1V4.9h-3V4.1h3V2.6H24.1z M28,8.7c0,1.4-1.5,2.2-3.8,2.2s-3.8-0.8-3.8-2.2s1.5-2.2,3.8-2.2
			S28,7.4,28,8.7L28,8.7z M27,8.7c0-0.8-1.1-1.4-2.7-1.4s-2.7,0.5-2.7,1.4s1.1,1.4,2.7,1.4S27,9.6,27,8.7z"/>
		<path id="패스_3264" class="st5" d="M36.9,2.6c0,2,1.1,3.9,2.9,4.9l-0.6,0.8c-1.3-0.8-2.3-2.1-2.8-3.5C36,6.4,35,7.7,33.6,8.6
			L33,7.7c1.8-1.1,2.9-3,2.9-5.1v-2h1V2.6z M43.7,5.1h-1.9V11h-1V-0.4h1v4.6h1.9V5.1z"/>
		<g>
			<path class="st5" d="M54.1-0.4v6.1H53V3.2h-2.3c-0.2,1.3-1.3,2.2-2.9,2.2c-1.7,0-2.9-1.1-2.9-2.6c0-1.6,1.2-2.6,2.9-2.6
				c1.5,0,2.7,0.9,2.9,2.2H53v-2.7h1.1V-0.4z M49.8,2.8c0-1-0.8-1.8-1.9-1.8C46.8,1,46,1.7,46,2.8s0.8,1.8,1.9,1.8
				S49.8,3.8,49.8,2.8z M53.1,6.3h1v4.6h-7.3V6.3h1v1.4H53L53.1,6.3L53.1,6.3z M53.1,8.5h-5.2V10h5.2V8.5z"/>
		</g>
		<path id="패스_3266" class="st5" d="M62.4,5.9c-1.2-0.4-2.2-1.3-2.7-2.4c-0.5,1.3-1.5,2.3-2.9,2.8l-0.5-0.8
			c1.6-0.5,2.8-2,2.8-3.7V1.3h-2.5V0.5h6.1v0.8h-2.5v0.4c0.1,1.6,1.2,3,2.7,3.4L62.4,5.9z M65.3,8.9c0,1.3-1.4,2.1-3.7,2.1
			s-3.7-0.8-3.7-2.1s1.4-2.1,3.7-2.1C63.9,6.8,65.3,7.5,65.3,8.9L65.3,8.9z M64.3,8.9c0-0.8-1-1.3-2.7-1.3s-2.7,0.5-2.7,1.3
			s1,1.3,2.7,1.3C63.2,10.1,64.3,9.7,64.3,8.9L64.3,8.9z M66.8,2.5v0.9h-1.7v3.1h-1v-6.8h1v2.9L66.8,2.5z"/>
		<path id="패스_3267" class="st5" d="M81.1,5.4v0.8h-4.5v2.3h-1V6.2h-4.7V5.4H81.1z M72,2.2c0-1.4,1.6-2.3,4-2.3s4,0.9,4,2.3
			s-1.6,2.3-4,2.3C73.5,4.5,72,3.6,72,2.2z M73.2,9.9H80v0.9h-7.8V7.4h1V9.9z M73.1,2.2c0,0.9,1.2,1.4,2.9,1.4
			c1.7,0,2.9-0.5,2.9-1.4S77.8,0.8,76,0.8S73.1,1.3,73.1,2.2z"/>
		<path id="패스_3268" class="st5" d="M87.8,4.7c-0.6,0.6-1.4,1-2.3,1c-1.5,0.1-2.8-1-2.9-2.5s1-2.8,2.5-2.9c0.1,0,0.3,0,0.4,0
			c0.9,0,1.7,0.3,2.3,0.9h2.9v-1.6h1v6.7h-1V4.7H87.8z M85.6,4.8c1-0.1,1.8-0.9,1.7-1.9s-0.9-1.8-1.9-1.7c-1,0.1-1.7,0.9-1.7,1.8
			C83.7,4,84.5,4.8,85.6,4.8C85.5,4.8,85.5,4.8,85.6,4.8L85.6,4.8z M91.8,8.8c0,1.4-1.5,2.2-3.8,2.2s-3.8-0.8-3.8-2.2
			s1.4-2.2,3.8-2.2S91.8,7.4,91.8,8.8L91.8,8.8z M90.8,8.8c0-0.9-1-1.4-2.8-1.4c-1.7,0-2.7,0.5-2.7,1.4s1,1.4,2.7,1.4
			C89.8,10.1,90.8,9.6,90.8,8.8L90.8,8.8z M88.3,2.1c0.1,0.3,0.1,0.6,0.1,0.9s0,0.6-0.2,0.9h2.4V2.1H88.3z"/>
	</g>
	<path id="패스_1546" class="st1" d="M1378.7-116h144.1v-99.2h-144.1V-116z"/>
	<path id="패스_1547" class="st1" d="M1379-222.8h144.1V-252H1379V-222.8z"/>
	<path id="패스_1542" class="st1" d="M1072.7-116.3h144.1v-99.2h-144.1V-116.3z"/>
	<path id="패스_1543" class="st1" d="M1072.7-222.6h144.1v-29.2h-144.1V-222.6z"/>
	<path id="패스_1544" class="st1" d="M1225.7-116.3h144.1v-99.2h-144.1V-116.3z"/>
	<path id="패스_1545" class="st1" d="M1225.7-222.7h144.1v-29.2h-144.1V-222.7z"/>
	<g id="그룹_5474" transform="translate(1393.215 -200.577)">
		<path id="패스_3348" class="st5" d="M0,5.5c0-0.7,0.7-1.2,1.4-1.2S2.6,5,2.6,5.7S2,6.9,1.3,6.9C0.6,6.8,0,6.2,0,5.5L0,5.5z"/>
		<path id="패스_3349" class="st5" d="M9.4,6.2c0.3,0,0.6-0.1,0.9-0.1l0.1,0.6C8.9,6.9,7.4,7,5.9,7L5.8,6.3c0.3,0,0.6,0,0.9,0V1.9
			H6V1.2h4.2v0.7H9.4V6.2z M7.5,6.3c0.4,0,0.8,0,1.2-0.1V1.9H7.5V6.3z M11.2,0.2H12v8.5h-0.8V5.3H10V4.6h1.2V3.3H10V2.6h1.2V0.2z
			 M13.8,0v9.2H13V0H13.8z"/>
		<path id="패스_3350" class="st5" d="M20.2,1c0,2.9-1.7,5.4-4.3,6.5l-0.5-0.7c2.5-1.2,3.7-3,3.9-5.1h-3.5V1H20.2z M22.9,0v9.2
			h-0.8V0H22.9z"/>
		<path id="패스_3351" class="st5" d="M29.4,4.6v0.9h2.7v2.1h-5.4v0.9h5.7v0.7h-6.5V7h5.4V6.1h-5.4V5.5h2.8V4.6h-3.8V3.9h8.4v0.7
			H29.4z M32.1,3.1h-6.2V0.3h6.2V3.1z M31.3,1h-4.5v1.5h4.5V1z"/>
		<path id="패스_3352" class="st5" d="M39.8,2.7c0.1,1.6,1,3.1,2.4,3.9l-0.5,0.7c-1.1-0.6-2-1.7-2.3-2.9c-0.4,1.2-1.2,2.3-2.4,3
			l-0.5-0.7c1.5-0.8,2.4-2.4,2.4-4v-1h-2.1V1h5v0.7h-2.1L39.8,2.7z M44.2,0v9.2h-0.8V4.1h-2V3.4h2V0H44.2z"/>
		<path id="패스_3353" class="st5" d="M50.7,0.6c0,2.3-1.6,4-4.3,4.7L46,4.7c2.3-0.6,3.6-1.8,3.8-3.4h-3.4V0.6H50.7z M47.4,5.7
			h5.8v3.4h-5.8V5.7z M48.2,8.4h4.2v-2h-4.2V8.4z M54.6,3h-1.4v2.3h-0.8V0h0.8v2.3h1.4V3z"/>
		<path id="패스_3354" class="st5" d="M62.6,4.4h-4.3V0.6h4.3V4.4z M62.9,6.6c0,0.9,1.5,1.8,3,2l-0.3,0.6
			c-1.2-0.1-2.4-0.7-3.2-1.7c-0.8,1-2,1.6-3.2,1.7L59,8.6c1.6-0.2,3-1.1,3.1-2h-2.7V5.9h2.7V5H63v0.9h2.7v0.6L62.9,6.6L62.9,6.6z
			 M61.8,1.3h-2.7v2.4h2.7V1.3z M65.4,5.3h-0.8V0h0.8V5.3z"/>
		<path id="패스_3355" class="st5" d="M72.3,2.5c-0.1,1.6,0.6,3,2,3.9L73.8,7c-0.9-0.6-1.6-1.4-1.9-2.5C71.7,5.7,71,6.7,70,7.3
			l-0.5-0.6c1.4-0.9,2.1-2.5,2-4.2V1.8h-1.8V1.1H74v0.7h-1.7V2.5z M77.5,0v9.2h-0.8V4.4h-1.2v4.4h-0.8V0.2h0.8v3.5h1.2V0H77.5z"/>
		<path id="패스_3356" class="st5" d="M82.2,2.8c0.1,1.6,1,3,2.4,3.7l-0.5,0.7c-1.1-0.6-1.9-1.6-2.3-2.8c-0.4,1.3-1.2,2.4-2.4,3.1
			l-0.5-0.7c1.4-0.8,2.4-2.3,2.4-4V1.7h-2.1V1h5v0.7h-2V2.8z M87.7,4.4h-1.5v4.8h-0.8V0h0.8v3.7h1.5V4.4z"/>
		<path id="패스_3357" class="st5" d="M91.2,4.9C90.3,5,89.4,5,88.6,5l-0.1-0.7c2,0,4-0.1,6-0.3l0.1,0.6c-0.8,0.1-1.7,0.2-2.5,0.3
			v1.8h-0.8L91.2,4.9z M89.2,2c0-1,0.9-1.6,2.3-1.6S93.8,1,93.8,2s-0.9,1.6-2.3,1.6S89.2,3,89.2,2L89.2,2z M96.3,8.4V9h-6.5V6.4h0.8
			v2H96.3z M90,2c0,0.6,0.6,1,1.5,1S93,2.6,93,2s-0.6-1-1.5-1S90,1.4,90,2L90,2z M95.3,5.5V0h0.8v7h-0.8V6.1h-1.9V5.5H95.3z"/>
		<path id="패스_3358" class="st5" d="M101.3,6.7c0.8,0,1.7-0.1,2.5-0.2l0.1,0.6c-1.9,0.3-3.8,0.4-5.8,0.4L98,6.8
			c0.7,0,1.6,0,2.5,0v-1c-0.9,0-1.7-0.7-1.8-1.7c0-1,0.9-1.7,2.2-1.7S103,3,103,4.1c0,0.9-0.8,1.7-1.8,1.7L101.3,6.7z M103.6,1.8
			h-5.5V1.1h2.3V0h0.8v1.1h2.3L103.6,1.8L103.6,1.8z M100.8,5.1c0.8,0,1.4-0.4,1.4-1S101.7,3,100.8,3s-1.4,0.4-1.4,1.1
			S100,5.1,100.8,5.1z M106.6,4.6h-1.4v4.6h-0.8V0h0.8v3.9h1.4V4.6z"/>
		<path id="패스_3359" class="st5" d="M115.9,4.3v0.6h-8.4V4.3H115.9z M109.3,8.5h5.8v0.6h-6.6v-2h5.5V6.3h-5.5V5.7h6.3v2h-5.5
			L109.3,8.5z M114,0.9h-5.4V0.3h6.2v1.9h-5.4V3h5.6v0.6h-6.4v-2h5.4L114,0.9z"/>
	</g>
	<g id="그룹_5475" transform="translate(1398.965 -183.015)">
		<path id="패스_3360" class="st5" d="M6.2,5.4C5.3,5.6,4.4,5.7,3.5,5.7V9H2.7V5.8c-0.9,0-1.8,0.1-2.6,0.1L0,5.1
			c2,0,4.1-0.1,6.1-0.3L6.2,5.4z M0.7,2.4c0-1.1,1-1.9,2.4-1.9s2.3,0.8,2.3,1.9S4.4,4.3,3,4.3S0.7,3.6,0.7,2.4z M1.5,2.4
			c0,0.7,0.6,1.2,1.5,1.2s1.5-0.5,1.5-1.2S3.9,1.2,3,1.2S1.5,1.7,1.5,2.4L1.5,2.4z M7.6,0.1v9.2H6.8V0.1H7.6z"/>
		<path id="패스_3361" class="st5" d="M15,1.9H9.5V1.2h2.3V0.1h0.8v1.1H15V1.9z M12.2,5.8c-1.3,0-2.2-0.7-2.2-1.7s0.9-1.7,2.2-1.7
			s2.2,0.7,2.2,1.7S13.5,5.8,12.2,5.8L12.2,5.8z M12.2,5.2c0.8,0,1.4-0.4,1.4-1.1S13,3,12.2,3s-1.4,0.4-1.4,1.1S11.4,5.2,12.2,5.2
			L12.2,5.2z M11.8,8.4h5.3v0.7h-6.2V6.5h0.8L11.8,8.4L11.8,8.4z M18,3.1v0.7h-1.4V7h-0.8V0.1h0.8v3H18z"/>
		<path id="패스_3362" class="st5" d="M27.1,5c-1.9,0.3-3.8,0.4-5.8,0.4l-0.1-0.6c0.7,0,1.6,0,2.5,0V4.1C22.6,4,22,3.6,22,2.9
			c0-0.8,0.8-1.2,2.2-1.2c1.3,0,2.2,0.5,2.2,1.2S25.7,4,24.7,4.1v0.5c0.8,0,1.7-0.1,2.5-0.2L27.1,5z M26.8,1.4h-5.3V0.8h2.2V0h0.8
			v0.8h2.2L26.8,1.4z M23.3,8.6h5.5v0.6h-6.3v-2h5.1V6.5h-5.1V5.9h6v1.9h-5.1L23.3,8.6z M24.1,3.6c0.8,0,1.3-0.3,1.3-0.7
			s-0.5-0.7-1.3-0.7s-1.4,0.2-1.4,0.7S23.3,3.6,24.1,3.6z M29.8,2.5v0.7h-1.4v2.4h-0.8V0.1h0.8v2.4H29.8z"/>
		<path id="패스_3363" class="st5" d="M39.1,4.7v0.7h-8.4V4.7h3.8V3.6h-2.7V0.5h6.3v0.7h-5.4v1.7h5.5v0.7h-2.8v1.1L39.1,4.7z
			 M38.1,7.7c0,1.1-1.2,1.7-3.2,1.7s-3.2-0.6-3.2-1.7S32.9,6,34.9,6S38.1,6.6,38.1,7.7L38.1,7.7z M37.2,7.7c0-0.6-0.9-1-2.3-1
			c-1.5,0-2.3,0.4-2.3,1s0.9,1,2.3,1C36.4,8.7,37.2,8.3,37.2,7.7L37.2,7.7z"/>
		<path id="패스_3364" class="st5" d="M47.5,5.5c-1-0.4-1.8-1.1-2.2-2.1C44.9,4.5,44,5.3,43,5.7L42.5,5c1.3-0.4,2.3-1.6,2.3-3V1.5
			h-2.1V0.8h4.9v0.7h-2V2c0.1,1.3,1,2.4,2.2,2.8L47.5,5.5z M50.4,8.4v0.7h-6.2V6.3h0.9v2.2L50.4,8.4z M49.3,2.6V0.1h0.9v6.8h-0.9
			V3.3h-1.9V2.6H49.3z"/>
		<path id="패스_3365" class="st5" d="M55.9,1.3c0.1,2.5-1.2,4.9-3.5,6.1L52,6.7C53.8,5.8,55,4,55.1,2h-2.8V1.3H55.9z M59.8,0.1
			v9.2H59V4.5h-1.3v4.4h-0.8V0.3h0.8v3.5H59V0.1H59.8z"/>
	</g>
	<g id="_2025_GHG_Master_Plan" transform="translate(1087.315 -200.276)">
		<g id="그룹_5476">
			<path id="패스_3366" class="st5" d="M0,5.4c0.1-0.7,0.7-1.3,1.4-1.3s1.3,0.7,1.3,1.4S2.1,6.8,1.3,6.8C0.6,6.9,0,6.2,0,5.4
				C0,5.5,0,5.4,0,5.4z"/>
			<path id="패스_3367" class="st5" d="M6.1,8c2.5-2.2,3.6-3.8,3.6-5.1c0.1-0.8-0.4-1.5-1.2-1.6c-0.1,0-0.2,0-0.3,0
				C7.6,1.4,7,1.7,6.6,2.3L6,1.7C6.6,1,7.4,0.5,8.4,0.5c1.2-0.1,2.2,0.8,2.3,2c0,0.1,0,0.2,0,0.3c0,1.6-1.2,3.2-3.1,5
				c0.4,0,0.9-0.1,1.3-0.1h2.2v0.9h-5L6.1,8z"/>
			<path id="패스_3368" class="st5" d="M12.1,4.6c0-2.8,1-4.1,2.5-4.1s2.5,1.3,2.5,4.1s-1,4.1-2.5,4.1S12.1,7.4,12.1,4.6z
				 M16.1,4.6c0-2.3-0.6-3.3-1.5-3.3s-1.5,1-1.5,3.3C13.1,7,13.7,8,14.6,8S16.1,6.9,16.1,4.6z"/>
			<path id="패스_3369" class="st5" d="M18.1,8c2.5-2.2,3.6-3.8,3.6-5.1c0.1-0.8-0.4-1.5-1.2-1.6c-0.1,0-0.2,0-0.3,0
				c-0.7,0-1.3,0.4-1.6,0.9L18,1.7c0.6-0.7,1.4-1.2,2.3-1.2c1.2-0.1,2.2,0.8,2.3,2c0,0.1,0,0.2,0,0.3c0,1.6-1.2,3.2-3.1,5
				c0.4,0,0.9-0.1,1.3-0.1H23v0.9h-5L18.1,8z"/>
			<path id="패스_3370" class="st5" d="M23.9,7.7L24.4,7c0.5,0.6,1.2,0.9,1.9,0.9c0.9,0,1.7-0.8,1.7-1.7V6.1
				c0.1-0.9-0.5-1.7-1.4-1.8c-0.1,0-0.2,0-0.3,0c-0.5,0-0.9,0.2-1.3,0.5l-0.5-0.3l0.2-3.7h3.9v0.8h-3l-0.2,2.3
				c1.1-0.7,2.6-0.3,3.3,0.9C28.9,5.1,29,5.6,29,6c0.1,1.4-1,2.6-2.4,2.7c-0.1,0-0.1,0-0.2,0C25.5,8.8,24.5,8.4,23.9,7.7z"/>
			<path id="패스_3371" class="st5" d="M32.6,4.6c0-2.6,1.5-4.1,3.6-4.1c0.9,0,1.7,0.3,2.3,1L38,2.2c-0.4-0.5-1.1-0.8-1.7-0.8
				c-1.6,0-2.6,1.2-2.6,3.2s0.9,3.3,2.6,3.3c0.5,0,1-0.1,1.4-0.5V5.3H36V4.5h2.6v3.3c-0.7,0.6-1.5,1-2.5,0.9
				C34.1,8.7,32.6,7.2,32.6,4.6z"/>
			<path id="패스_3372" class="st5" d="M40.5,0.7h1V4h3.7V0.7h1v7.9h-1V4.9h-3.7v3.7h-1V0.7z"/>
			<path id="패스_3373" class="st5" d="M47.9,4.6c0-2.6,1.5-4.1,3.6-4.1c0.9,0,1.7,0.3,2.3,1l-0.5,0.6c-0.4-0.5-1.1-0.8-1.7-0.8
				C50,1.4,49,2.6,49,4.6s0.9,3.3,2.6,3.3c0.5,0,1-0.1,1.4-0.5V5.3h-1.7V4.5H54v3.3c-0.7,0.6-1.5,1-2.5,0.9
				C49.4,8.7,47.9,7.2,47.9,4.6z"/>
			<path id="패스_3374" class="st5" d="M58.2,0.7h1.2L61,4.9c0.2,0.5,0.4,1.1,0.6,1.7h0.1C61.8,6,62,5.5,62.1,4.9l1.5-4.2h1.2v7.9
				h-0.9V4.2c0-0.7,0.1-1.6,0.1-2.3l0,0l-0.6,1.8l-1.5,4.1h-0.7l-1.5-4.1l-0.6-1.8l0,0c0,0.7,0.1,1.7,0.1,2.3v4.4h-0.9L58.2,0.7z"/>
			<path id="패스_3375" class="st5" d="M66.6,7.1c0-1.3,1.1-1.9,3.6-2.2c0-0.8-0.2-1.5-1.2-1.5c-0.6,0-1.3,0.2-1.8,0.6l-0.4-0.7
				c0.7-0.5,1.5-0.7,2.3-0.8c1.4,0,2,1,2,2.4v3.6h-0.8l-0.1-0.7l0,0c-0.5,0.5-1.2,0.8-1.9,0.8C67.4,8.7,66.7,8,66.6,7.1
				C66.6,7.2,66.6,7.1,66.6,7.1z M70.2,7.2V5.5c-2,0.2-2.6,0.7-2.6,1.5c0,0.7,0.5,0.9,1,0.9C69.2,7.9,69.8,7.6,70.2,7.2L70.2,7.2z"
				/>
			<path id="패스_3376" class="st5" d="M72.4,7.9l0.5-0.6c0.4,0.4,1,0.7,1.7,0.7c0.8,0,1.2-0.4,1.2-0.9c0-0.6-0.7-0.9-1.3-1.1
				c-0.8-0.3-1.8-0.7-1.8-1.7c0-0.9,0.7-1.7,2-1.7c0.7,0,1.3,0.2,1.8,0.7L76,3.9c-0.4-0.3-0.9-0.5-1.4-0.5c-0.7,0-1.1,0.4-1.1,0.8
				c0,0.6,0.6,0.8,1.3,1c0.9,0.3,1.8,0.7,1.8,1.8c0,1-0.8,1.7-2.1,1.7C73.8,8.7,73,8.4,72.4,7.9z"/>
			<path id="패스_3377" class="st5" d="M78,6.8V3.5h-0.9V2.8L78,2.7l0.1-1.6H79v1.6h1.6v0.8H79v3.3c0,0.7,0.2,1.1,0.9,1.1
				c0.2,0,0.5-0.1,0.7-0.2l0.2,0.7c-0.3,0.1-0.7,0.2-1.1,0.2C78.4,8.7,78,8,78,6.8z"/>
			<path id="패스_3378" class="st5" d="M81.3,5.7c-0.1-1.6,1-2.9,2.6-3.1H84c1.5,0,2.3,1.1,2.3,2.8c0,0.2,0,0.4,0,0.6h-4
				c-0.1,1.1,0.8,2,1.8,2.1h0.1c0.5,0,1-0.2,1.5-0.5l0.4,0.6c-0.6,0.4-1.3,0.6-1.9,0.6c-1.5,0-2.8-1.2-2.8-2.8
				C81.3,5.9,81.3,5.8,81.3,5.7z M85.4,5.2c0-1.2-0.5-1.8-1.5-1.8c-1,0.1-1.7,0.9-1.7,1.8H85.4z"/>
			<path id="패스_3379" class="st5" d="M87.7,2.7h0.8l0.1,1.1l0,0c0.3-0.7,0.9-1.1,1.7-1.2c0.2,0,0.4,0,0.6,0.1l-0.2,0.9
				c-0.2-0.1-0.4-0.1-0.6-0.1c-0.5,0-1.1,0.3-1.5,1.4v3.8h-1L87.7,2.7z"/>
			<path id="패스_3380" class="st5" d="M94.4,0.7h2.3c1.8,0,3,0.6,3,2.3s-1.2,2.5-2.9,2.5h-1.3v3.1h-1L94.4,0.7z M96.6,4.6
				c1.4,0,2.1-0.5,2.1-1.6S98,1.5,96.6,1.5h-1.1v3.2L96.6,4.6L96.6,4.6z"/>
			<path id="패스_3381" class="st5" d="M101.2,7.4V0h1v7.5c0,0.3,0.1,0.4,0.3,0.4c0.1,0,0.1,0,0.2,0l0.1,0.8
				c-0.2,0.1-0.4,0.1-0.6,0.1C101.5,8.7,101.2,8.3,101.2,7.4z"/>
			<path id="패스_3382" class="st5" d="M103.9,7.1c0-1.3,1.1-1.9,3.6-2.2c0-0.8-0.2-1.5-1.2-1.5c-0.6,0-1.2,0.2-1.8,0.6l-0.4-0.7
				c0.7-0.5,1.5-0.7,2.3-0.8c1.4,0,2,1,2,2.4v3.6h-0.8l-0.1-0.7l0,0c-0.5,0.5-1.2,0.8-1.9,0.8C104.7,8.7,104,8,103.9,7.1
				C103.9,7.2,103.9,7.2,103.9,7.1z M107.5,7.2V5.5c-2,0.2-2.6,0.7-2.6,1.5c0,0.7,0.5,0.9,1,0.9C106.5,7.9,107.1,7.6,107.5,7.2
				L107.5,7.2z"/>
			<path id="패스_3383" class="st5" d="M110.3,2.7h0.8l0.1,0.8l0,0c0.5-0.6,1.2-0.9,2-1c1.2,0,1.8,0.8,1.8,2.3v3.7h-1V5
				c0-1.1-0.3-1.6-1.1-1.6c-0.6,0.1-1.2,0.4-1.6,0.9v4.3h-1L110.3,2.7z"/>
		</g>
	</g>
	<g id="_사업장별_에너지_및_온실가스_저감추진" transform="translate(1087.315 -179.734)">
		<g id="그룹_5477">
			<path id="패스_3384" class="st5" d="M0,5.7C0.1,5,0.7,4.4,1.4,4.5s1.3,0.7,1.3,1.4S2.1,7.2,1.3,7.2C0.6,7.2,0,6.5,0,5.7L0,5.7z
				"/>
			<path id="패스_3385" class="st5" d="M9.4,2.6c0,1.7,1,3.3,2.5,4.1l-0.6,0.7c-1.1-0.7-2-1.8-2.3-3C8.6,5.8,7.8,6.9,6.6,7.6
				L6,6.9C7.6,6,8.5,4.4,8.5,2.6V0.8h0.9V2.6z M15.2,4.7h-1.6v5h-0.9V0h0.9v3.9h1.6V4.7z"/>
			<path id="패스_3387" class="st5" d="M31.2,5.4c-1-0.3-1.9-1.1-2.3-2.1c-0.4,1.1-1.3,2-2.4,2.4L26,5c1.4-0.4,2.4-1.7,2.4-3.2
				V1.4h-2.2V0.7h5.2v0.7h-2.1v0.4c0.1,1.4,1,2.5,2.3,2.9L31.2,5.4z M33.7,7.9c0,1.1-1.2,1.8-3.2,1.8S27.3,9,27.3,7.9
				s1.2-1.8,3.2-1.8C32.5,6.1,33.7,6.8,33.7,7.9L33.7,7.9z M32.8,7.9c0-0.7-0.9-1.1-2.3-1.1s-2.3,0.4-2.3,1.1S29,9,30.5,9
				C31.9,9,32.8,8.6,32.8,7.9L32.8,7.9z M35,2.5v0.7h-1.4v2.7h-0.9V0h0.9v2.4L35,2.5z"/>
			<path id="패스_3388" class="st5" d="M40.8,4.7h-4.4V0.5h0.9v1.4H40V0.5h0.9v0.9h2.2V0H44v5.1h-0.9V3.8h-2.2L40.8,4.7L40.8,4.7z
				 M40,2.5h-2.6V4H40V2.5z M44.3,8.9v0.7h-6.6V7.2h5.4v-1h-5.4V5.5H44v2.3h-5.4v1L44.3,8.9z M40.8,2.1v1.1H43V2.1H40.8z"/>
			<path id="패스_3389" class="st5" d="M53.8,0.2h0.8v9h-0.8V4.5h-1.2c-0.1,1.9-0.9,3.1-2.1,3.1c-1.3,0-2.1-1.3-2.1-3.4
				s0.8-3.4,2.1-3.4c1.2,0,1.9,1.1,2.1,3h1.2V0.2z M51.8,4.2c0-1.6-0.5-2.5-1.3-2.5s-1.3,1-1.3,2.5c0,1.6,0.5,2.6,1.3,2.6
				C51.3,6.7,51.8,5.8,51.8,4.2L51.8,4.2z M56.6,0v9.7h-0.8V0H56.6z"/>
			<path id="패스_3390" class="st5" d="M59.7,6.6c1.4,0,2.8-0.1,4.2-0.4L64,7c-1.5,0.3-2.9,0.4-4.4,0.4h-0.8V1.1h0.9V6.6z M66.3,0
				v9.7h-0.9V3.9h-3V3.2h3V0H66.3z"/>
			<path id="패스_3391" class="st5" d="M71.7,3c0.1,1.7,1.1,3.2,2.6,3.9l-0.5,0.7c-1.2-0.6-2.1-1.7-2.5-3
				c-0.4,1.3-1.3,2.5-2.5,3.2l-0.5-0.7c1.5-0.8,2.5-2.4,2.6-4.2V1.7h-2.2V1H74v0.7h-2.3V3z M76.2,0v9.7h-0.9V0H76.2z"/>
			<path id="패스_3392" class="st5" d="M85.6,4.6h-4.5v-4h4.5V4.6z M85.9,6.9c0,0.9,1.5,1.9,3.2,2.1l-0.3,0.7
				c-1.3-0.1-2.5-0.7-3.3-1.8c-0.8,1-2.1,1.7-3.4,1.8L81.8,9C83.4,8.8,85,7.9,85,6.9h-2.8V6.2H85V5.3h0.9v0.9h2.8v0.7H85.9z
				 M84.7,1.3h-2.8v2.6h2.8V1.3z M88.5,5.6h-0.9V0h0.9V5.6z"/>
			<g>
				<path class="st5" d="M24.1,0v5.2h-0.9V3h-2c-0.2,1.1-1.1,1.9-2.5,1.9S16.2,4,16.2,2.7s1-2.2,2.5-2.2c1.3,0,2.3,0.7,2.5,1.9h2V0
					H24.1z M20.4,2.7c0-0.9-0.7-1.5-1.7-1.5S17,1.8,17,2.7s0.7,1.5,1.7,1.5S20.4,3.6,20.4,2.7z M23.2,5.7h0.9v3.9h-6.2V5.7h0.9v1.2
					h4.4V5.7z M23.2,7.6h-4.4v1.3h4.4V7.6z"/>
			</g>
		</g>
		<g id="그룹_5478" transform="translate(5.803 18.508)">
			<path id="패스_3393" class="st5" d="M8.8,5.2v0.7H0V5.2h3.9v-1C2.1,4.1,1,3.4,1,2.2s1.3-1.9,3.4-1.9S7.8,1,7.8,2.2
				c0,1.1-1.1,1.8-3,1.9v1L8.8,5.2L8.8,5.2z M2,8.8h5.8v0.7H1.1V6.7H2V8.8z M4.4,3.4c1.5,0,2.5-0.4,2.5-1.2S5.9,1,4.4,1
				S1.9,1.5,1.9,2.2S2.9,3.4,4.4,3.4z"/>
			<path id="패스_3394" class="st5" d="M15.4,4.8c-1.1-0.4-2-1.2-2.4-2.2c-0.4,1.1-1.3,2-2.5,2.4L10,4.2c1.4-0.4,2.4-1.7,2.5-3.2
				V0.3h0.9V1c0.1,1.4,1.1,2.6,2.5,3L15.4,4.8z M18.2,8.9v0.7h-6.6V7.2H17v-1h-5.4V5.5h6.3v2.3h-5.4v1L18.2,8.9z M17.9,5H17V0h0.9V5
				z"/>
			<path id="패스_3395" class="st5" d="M24.8,1c0.1,3-1.7,5.6-4.4,6.8l-0.5-0.7c2.2-0.9,3.8-3,4-5.4h-3.6V1H24.8z M28.9,4.7h-1.6
				v5h-0.9V0h0.9v3.9h1.6V4.7z"/>
			<path id="패스_3396" class="st5" d="M38.6,7.7v0.7h-8.8V7.7H38.6z M37.8,5.6c-1.6-0.3-2.9-1.4-3.6-2.8c-0.7,1.4-2,2.5-3.6,2.8
				l-0.4-0.7c1.7-0.3,3.5-1.8,3.5-3.4V0.7h0.9v0.7c0,1.7,1.8,3.1,3.5,3.4L37.8,5.6z"/>
			<path id="패스_3397" class="st5" d="M45.5,2.9c0.1,1.7,1,3.2,2.5,4l-0.5,0.7c-1.2-0.7-2.1-1.8-2.5-3c-0.4,1.4-1.3,2.5-2.5,3.3
				L42,7.2c1.5-0.9,2.5-2.5,2.5-4.2V1.7h-2.2V1h5.3v0.7h-2.2v1.2H45.5z M50.2,0v9.7h-0.9V4.3h-2.1V3.5h2.1V0H50.2z"/>
			<path id="패스_3398" class="st5" d="M57,0.6c0,2.5-1.7,4.2-4.6,5l-0.3-0.7c2.4-0.6,3.8-1.9,4-3.6h-3.5V0.6H57z M53.5,6h6.1v3.6
				h-6.1V6z M54.4,8.9h4.4V6.7h-4.4V8.9z M61.1,3.1h-1.4v2.4h-0.9V0h0.9v2.4h1.4V3.1z"/>
			<path id="패스_3399" class="st5" d="M70.8,6.6h-3.9v3.1H66V6.6h-3.9V5.9h8.8L70.8,6.6L70.8,6.6z M62.6,4.4
				C64.4,4.2,66,3.1,66,1.9h-3.1V1.2H66V0h0.9v1.2H70v0.7h-3.1c0,1.2,1.6,2.3,3.4,2.5L70,5.1c-1.4-0.1-2.7-0.9-3.5-2
				c-0.8,1.1-2.1,1.9-3.5,2L62.6,4.4z"/>
			<path id="패스_3400" class="st5" d="M77.5,5.7c-1.1-0.4-2-1.2-2.4-2.2c-0.4,1.1-1.3,2-2.5,2.4l-0.5-0.7
				c1.4-0.4,2.4-1.7,2.5-3.2V1.5h-2.2V0.8h5.3v0.7h-2.2V2c0.1,1.4,1.1,2.6,2.4,3L77.5,5.7z M80.2,8.8v0.7h-6.5v-3h0.9v2.3H80.2z
				 M79.9,7.1H79V0h0.9V7.1z"/>
		</g>
	</g>
	<g id="_토양_수질_대기오염_물질_최소화_" transform="translate(1240.274 -200.547)">
		<g id="그룹_5480">
			<path id="패스_3401" class="st5" d="M0,5.5c0.1-0.7,0.7-1.3,1.4-1.2C2.1,4.4,2.7,5,2.6,5.7c0,0.7-0.6,1.2-1.3,1.2
				C0.6,6.9,0,6.3,0,5.5L0,5.5z"/>
			<path id="패스_3402" class="st5" d="M14.4,7.5v0.7H5.9V7.5h3.8V5.6H7V0.8h6.3v0.7H7.9v1.3h5.3v0.7H7.9v1.4h5.6v0.7h-2.9v1.9
				H14.4z"/>
			<path id="패스_3404" class="st5" d="M25.1,10c0.6-0.2,1-0.8,1-1.4H26c-0.4,0-0.7-0.2-0.7-0.6c0,0,0,0,0-0.1
				c0-0.4,0.3-0.7,0.7-0.7l0,0c0.5,0,0.8,0.4,0.8,1.1c0,1-0.6,1.8-1.5,2.2L25.1,10z"/>
			<path id="패스_3405" class="st5" d="M38.8,6H35v3.4h-0.9V6h-3.8V5.3h8.4L38.8,6z M38.1,4.3c-1.4-0.2-2.7-1-3.5-2.2
				c-0.8,1.2-2,2-3.5,2.2l-0.3-0.7c1.7-0.3,3.3-1.4,3.3-2.7V0.3H35v0.5c0,1.3,1.7,2.5,3.4,2.7L38.1,4.3z"/>
			<path id="패스_3406" class="st5" d="M45.3,4.7c-1.1-0.3-1.9-1-2.4-2c-0.4,1.1-1.3,1.9-2.4,2.2l-0.4-0.7
				c1.3-0.3,2.3-1.5,2.4-2.9V1.2h-2.1V0.5h5.1v0.7h-2.1v0.1c0.1,1.3,1.1,2.4,2.4,2.7L45.3,4.7z M47.9,8.6v0.7h-6.4V6.9h5.2V6h-5.2
				V5.3h6.1v2.2h-5.2v1h5.5V8.6z M47.6,4.9h-0.9V0h0.9V4.9z"/>
			<path id="패스_3407" class="st5" d="M49.5,10c0.6-0.2,1-0.8,1-1.4h-0.1c-0.4,0-0.7-0.2-0.7-0.6c0,0,0,0,0-0.1
				c0-0.4,0.3-0.7,0.7-0.7l0,0c0.5,0,0.8,0.4,0.8,1.1c0,1-0.6,1.8-1.5,2.2L49.5,10z"/>
			<path id="패스_3408" class="st5" d="M56,6.3c1.1,0,2.1-0.1,3.2-0.3l0.1,0.7C58,7,56.9,7.1,55.7,7h-0.6V1.1h3.5v0.7H56V6.3z
				 M62.7,0v9.4h-0.8V4.5h-1.3v4.4h-0.8V0.2h0.8v3.5h1.3V0H62.7z"/>
			<path id="패스_3409" class="st5" d="M69.3,1c0,2.9-1.7,5.5-4.3,6.6l-0.5-0.7c2.5-1.2,3.8-3,3.9-5.2h-3.5V1H69.3z M72,0v9.4
				h-0.9V0H72z"/>
			<path id="패스_3410" class="st5" d="M82.4,7.4v0.7h-8.5V7.4h3.8v-2c-1.7-0.1-3-1.1-3-2.4c0-1.5,1.4-2.5,3.4-2.5s3.4,1,3.4,2.5
				c0,1.4-1.2,2.3-3,2.4v2H82.4z M78.2,4.8c1.5,0,2.6-0.7,2.6-1.8s-1.1-1.8-2.6-1.8S75.6,2,75.6,3.1S76.7,4.8,78.2,4.8L78.2,4.8z"/>
			<path id="패스_3411" class="st5" d="M91.3,0v5.4h-0.9V4.1H88C87.5,4.7,86.8,5,86.1,5c-1.2,0.1-2.3-0.8-2.4-2s0.8-2.3,2-2.4
				c0.1,0,0.3,0,0.4,0c0.7,0,1.4,0.3,1.9,0.8h2.4V0H91.3z M87.7,2.7c-0.1-0.9-0.9-1.5-1.8-1.4c-0.7,0.1-1.3,0.7-1.4,1.4
				c0,0.9,0.8,1.6,1.7,1.5C87,4.2,87.6,3.5,87.7,2.7z M85.2,5.9h6.1v3.4h-6.1V5.9z M86,8.5h4.4v-2H86V8.5z M90.4,3.4V2h-2
				c0.1,0.2,0.1,0.5,0.1,0.7s0,0.5-0.1,0.7H90.4z"/>
			<g>
				<path class="st5" d="M18.2,5c-1.4,0-2.4-0.9-2.4-2.2s1-2.2,2.4-2.2s2.4,0.9,2.4,2.2S19.6,5,18.2,5z M18.2,4.3
					c0.9,0,1.6-0.6,1.6-1.5s-0.7-1.5-1.6-1.5s-1.6,0.6-1.6,1.5C16.6,3.6,17.2,4.3,18.2,4.3z M22.9,7.6c0,1.1-1.2,1.8-3.1,1.8
					s-3.1-0.6-3.1-1.8c0-1.1,1.2-1.8,3.1-1.8C21.7,5.8,22.9,6.5,22.9,7.6z M22.1,7.6c0-0.7-0.8-1.1-2.2-1.1c-1.4,0-2.2,0.4-2.2,1.1
					s0.8,1.1,2.2,1.1C21.2,8.7,22.1,8.3,22.1,7.6z M22.8,2.1v1.3h1.4v0.7h-1.4v1.4H22V0h0.9v1.4h1.4v0.7H22.8z"/>
			</g>
		</g>
		<g id="그룹_5481" transform="translate(5.74 17.87)">
			<path id="패스_3412" class="st5" d="M4.7,4.6v0.9h2.7v2.1H1.9v0.9h5.8v0.7H1.1V7h5.5V6.2H1V5.5h2.8V4.6H0V3.9h8.5v0.7H4.7z
				 M7.4,3.2H1.1V0.3h6.3V3.2z M6.5,1H1.9v1.5h4.6V1z"/>
			<path id="패스_3413" class="st5" d="M14.9,4.7c-1.1-0.3-1.9-1-2.4-2c-0.4,1.1-1.3,1.9-2.4,2.2L9.7,4.2C11,3.9,12,2.7,12.1,1.3
				V1.2H10V0.5h5.1v0.7H13v0.1c0.1,1.3,1,2.4,2.3,2.7L14.9,4.7z M17.6,8.6v0.7h-6.4V6.9h5.2V6h-5.2V5.3h6.1v2.2h-5.2v1h5.5V8.6z
				 M17.3,4.9h-0.9V0h0.9V4.9z"/>
			<path id="패스_3414" class="st5" d="M25.1,6.6c0.9-0.1,1.8-0.1,2.6-0.2L27.8,7c-2,0.3-4,0.4-6.1,0.4l-0.1-0.7
				c0.8,0,1.7,0,2.6,0V4.9h0.9L25.1,6.6z M21.9,4.6c1.3-0.3,2.2-1.4,2.3-2.7h-2.1V1.2h2.1V0.1h0.9v1.1h2.2v0.7h-2.2
				c0.1,1.3,1.1,2.3,2.4,2.6L27,5.2c-1-0.3-1.9-1-2.4-2c-0.4,1-1.3,1.8-2.4,2.1L21.9,4.6z M29.2,0v9.4h-0.9V0H29.2z"/>
			<path id="패스_3415" class="st5" d="M39.6,7.4v0.7h-8.5V7.4h3.8V5.2h0.9v2.3L39.6,7.4z M38.8,5.3C37.3,5,36,4,35.3,2.7
				c-0.7,1.4-2,2.3-3.5,2.6l-0.4-0.7c1.6-0.3,3.4-1.7,3.4-3.2V0.6h0.9v0.7c0,1.6,1.8,2.9,3.4,3.2L38.8,5.3z"/>
			<path id="패스_3416" class="st5" d="M44,6.8c0.8,0,1.7-0.1,2.5-0.2l0.1,0.6c-1.9,0.3-3.9,0.4-5.8,0.4l-0.1-0.7
				c0.8,0,1.6,0,2.5,0v-1c-1,0-1.7-0.8-1.8-1.7c0-1.1,0.9-1.7,2.2-1.7s2.2,0.7,2.2,1.7S45,5.9,44,5.9L44,6.8z M46.4,1.8h-5.6V1.1
				h2.4V0H44v1.1h2.4V1.8z M43.6,5.2c0.8,0,1.4-0.4,1.4-1.1S44.4,3,43.6,3s-1.4,0.4-1.4,1.1S42.7,5.2,43.6,5.2L43.6,5.2z M49.4,4.7
				h-1.5v4.7H47V0h0.9v4h1.5V4.7z"/>
		</g>
	</g>
	<g id="_사업장별_오염물질_저감_활동_추진" transform="translate(1240.274 -164.262)">
		<g id="그룹_5482">
			<path id="패스_3417" class="st5" d="M0,5.5c0.1-0.7,0.7-1.3,1.4-1.2C2.1,4.4,2.7,5,2.6,5.7c0,0.7-0.6,1.2-1.3,1.2
				C0.6,6.9,0,6.3,0,5.5L0,5.5z"/>
			<path id="패스_3418" class="st5" d="M9.1,2.5c0,1.7,0.9,3.2,2.4,4L11,7.2C9.9,6.5,9,5.5,8.7,4.3C8.3,5.6,7.5,6.7,6.3,7.4
				L5.8,6.7c1.5-0.9,2.4-2.5,2.4-4.2V0.8H9L9.1,2.5z M14.7,4.5h-1.5v4.8h-0.9V0h0.9v3.8h1.5V4.5z"/>
			<path id="패스_3419" class="st5" d="M23.2,0v5h-0.9V2.9h-1.9C20.2,4,19.2,4.8,18,4.7c-1.2,0.1-2.3-0.7-2.4-1.9s0.7-2.3,1.9-2.4
				c0.2,0,0.3,0,0.5,0c1.1-0.1,2.2,0.7,2.4,1.8h1.9V0H23.2z M19.7,2.6c0.1-0.9-0.6-1.7-1.5-1.7c-0.9-0.1-1.7,0.6-1.7,1.5
				C16.4,3.2,17.1,4,18,4.1h0.1c0.8,0.1,1.5-0.5,1.6-1.3C19.7,2.7,19.7,2.6,19.7,2.6L19.7,2.6z M22.4,5.5h0.9v3.7h-6V5.5h0.8v1.2
				h4.3L22.4,5.5z M22.4,7.3h-4.3v1.2h4.3C22.4,8.5,22.4,7.3,22.4,7.3z"/>
			<path id="패스_3420" class="st5" d="M30.1,5.2c-1-0.3-1.8-1-2.3-2c-0.4,1.1-1.3,1.9-2.4,2.3L25,4.8c1.4-0.4,2.3-1.6,2.3-3V1.4
				h-2.1V0.7h5v0.7h-2.1v0.4c0.1,1.3,1,2.4,2.3,2.8L30.1,5.2z M32.5,7.6c0,1.1-1.2,1.7-3.1,1.7s-3.1-0.6-3.1-1.7s1.2-1.7,3.1-1.7
				C31.3,5.9,32.5,6.5,32.5,7.6L32.5,7.6z M31.6,7.6c0-0.7-0.8-1-2.2-1c-1.4,0-2.2,0.4-2.2,1s0.8,1.1,2.2,1.1
				C30.8,8.7,31.6,8.3,31.6,7.6L31.6,7.6z M33.8,2.4v0.7h-1.4v2.6h-0.9V0h0.9v2.4H33.8z"/>
			<path id="패스_3421" class="st5" d="M39.4,4.5h-4.2V0.4H36v1.3h2.5V0.4h0.8v0.9h2.2V0h0.9v4.9h-0.9V3.7h-2.2L39.4,4.5z
				 M38.6,2.4H36v1.4h2.5L38.6,2.4L38.6,2.4z M42.8,8.5v0.7h-6.4V6.9h5.2V6h-5.2V5.3h6v2.2h-5.2v1H42.8z M39.4,2v1h2.2V2H39.4z"/>
			<path id="패스_3422" class="st5" d="M55.1,7.4v0.7h-8.5V7.4h3.8v-2c-1.7-0.1-3-1.1-3-2.4c0-1.5,1.4-2.5,3.4-2.5s3.4,1,3.4,2.5
				c0,1.4-1.2,2.3-3,2.4v2H55.1z M50.9,4.8c1.5,0,2.6-0.7,2.6-1.8s-1.1-1.8-2.6-1.8S48.3,2,48.3,3.1S49.4,4.8,50.9,4.8L50.9,4.8z"/>
			<path id="패스_3423" class="st5" d="M63.9,0v5.4H63V4.1h-2.4C60.2,4.7,59.5,5,58.8,5c-1.2,0.1-2.3-0.8-2.4-2
				c-0.1-1.2,0.8-2.3,2-2.4c0.1,0,0.3,0,0.4,0c0.7,0,1.4,0.3,1.9,0.8h2.4V0H63.9z M60.4,2.7c-0.1-0.9-0.8-1.5-1.7-1.5
				c-0.8,0.1-1.4,0.7-1.5,1.5c0.1,0.9,0.8,1.5,1.7,1.5C59.7,4.2,60.3,3.5,60.4,2.7z M57.9,5.9H64v3.4h-6.1V5.9z M58.7,8.5h4.4v-2
				h-4.4V8.5z M63.1,3.4V2h-2c0.2,0.5,0.2,1,0,1.4H63.1z"/>
			<path id="패스_3424" class="st5" d="M70.5,4.6v0.9h2.7v2.1h-5.5v0.9h5.8v0.7h-6.6V7h5.5V6.2h-5.5V5.6h2.8v-1h-3.8V3.9h8.5v0.7
				H70.5z M73.2,3.2h-6.3V0.3h6.3V3.2z M72.3,1h-4.6v1.5h4.6V1z"/>
			<path id="패스_3425" class="st5" d="M80.7,4.7c-1.1-0.3-1.9-1-2.4-2c-0.4,1-1.3,1.8-2.3,2.2l-0.4-0.7c1.3-0.3,2.3-1.5,2.4-2.9
				V1.2h-2.1V0.5H81v0.7h-2.1v0.1C79,2.6,80,3.7,81.3,4L80.7,4.7z M83.4,8.6v0.7H77V6.9h5.2V6H77V5.3h6.1v2.2h-5.2v1h5.5V8.6z
				 M83.1,4.9h-0.9V0h0.9V4.9z"/>
		</g>
		<g id="그룹_5483" transform="translate(5.526 17.776)">
			<path id="패스_3426" class="st5" d="M3.3,2.8c0.1,1.6,1,3.1,2.5,3.9L5.2,7.4c-1.1-0.6-2-1.7-2.4-2.9C2.5,5.8,1.7,6.9,0.5,7.6
				L0,6.9c1.5-0.8,2.4-2.4,2.4-4.1V1.7H0.3V1h5.1v0.7H3.3V2.8z M7.8,0.1v9.4H6.9V4.2h-2V3.5h2V0.1H7.8z"/>
			<path id="패스_3427" class="st5" d="M14.4,0.7c0,2.4-1.6,4.1-4.4,4.8L9.7,4.8C12,4.2,13.4,3,13.5,1.4h-3.4V0.7H14.4z M11,5.8
				h5.9v3.5H11V5.8z M11.9,8.6h4.2V6.5h-4.2C11.9,6.5,11.9,8.6,11.9,8.6z M18.3,3.1h-1.4v2.3H16V0.1h0.9v2.3h1.4V3.1z"/>
			<path id="패스_3428" class="st5" d="M27.5,5c-1.9,0.3-3.9,0.4-5.8,0.4l-0.1-0.6c0.7,0,1.6,0,2.5,0V4.2C23,4.1,22.3,3.7,22.3,3
				c0-0.8,0.9-1.2,2.2-1.2c1.3,0,2.2,0.5,2.2,1.2S26,4.1,24.9,4.2v0.5c0.9,0,1.7-0.1,2.5-0.2L27.5,5z M27.1,1.4h-5.4V0.8H24V0h0.9
				v0.8h2.3L27.1,1.4z M23.6,8.7h5.5v0.6h-6.4v-2H28V6.6h-5.2V6h6.1v1.9h-5.2L23.6,8.7z M24.5,3.6c0.8,0,1.4-0.3,1.4-0.7
				s-0.5-0.7-1.4-0.7s-1.4,0.2-1.4,0.7S23.6,3.6,24.5,3.6L24.5,3.6z M30.2,2.5v0.7h-1.4v2.4H28V0.1h0.9v2.4H30.2z"/>
			<path id="패스_3429" class="st5" d="M39.6,4.7v0.7h-8.5V4.7H35V3.6h-2.7V0.5h6.4v0.7h-5.5v1.7h5.6v0.7H36v1.1L39.6,4.7z
				 M38.6,7.8c0,1.1-1.2,1.7-3.2,1.7s-3.2-0.6-3.2-1.7s1.2-1.7,3.2-1.7C37.4,6.1,38.6,6.7,38.6,7.8L38.6,7.8z M37.7,7.8
				c0-0.7-0.9-1-2.3-1c-1.5,0-2.3,0.4-2.3,1s0.9,1,2.3,1C36.9,8.8,37.7,8.4,37.7,7.8L37.7,7.8z"/>
			<path id="패스_3430" class="st5" d="M51.6,6.4h-3.8v3h-0.9v-3h-3.8V5.7h8.5V6.4z M43.6,4.3c1.7-0.2,3.3-1.3,3.3-2.4h-3V1.2h3
				V0.1h0.9v1.1h3v0.7h-3c0,1.1,1.6,2.2,3.3,2.4L50.7,5c-1.4-0.1-2.6-0.8-3.4-2c-0.8,1.1-2,1.8-3.4,2L43.6,4.3z"/>
			<path id="패스_3431" class="st5" d="M58,5.6c-1-0.4-1.9-1.1-2.4-2.1c-0.4,1.1-1.3,1.9-2.4,2.3l-0.4-0.7c1.4-0.4,2.3-1.6,2.4-3
				V1.6H53V0.9h5.1v0.7H56v0.5c0.1,1.4,1,2.5,2.3,2.9L58,5.6z M60.6,8.5v0.7h-6.3V6.3h0.9v2.2H60.6z M60.4,6.9h-0.9V0.1h0.9V6.9z"/>
		</g>
	</g>
	<g id="그룹_4005" transform="translate(1120.87 -429.584)">
		<path id="패스_1538" class="st6" d="M0,0v151.2"/>
	</g>
	<g id="그룹_4006" transform="translate(1321.996 -429.584)">
		<path id="패스_1539" class="st6" d="M0,0v151.2"/>
	</g>
	<g id="그룹_4015" transform="translate(862.085 -215.542)">
		<path id="패스_1556" class="st6" d="M52.5,0H0v99.2h52.5"/>
	</g>
	<g id="그룹_4017" transform="translate(862.085 -251.815)">
		<path id="패스_1558" class="st6" d="M52.5,0H0v29.1"/>
	</g>
	<g id="그룹_4019" transform="translate(862.085 -442.596)">
		<path id="패스_1560" class="st6" d="M52.5,0H0v183.6"/>
	</g>
	<path id="패스_1541" class="st1" d="M919.5-116.1h144.3v-99.4H919.5V-116.1z"/>
	<path id="패스_1540" class="st1" d="M920-222.8h144.3V-252H920V-222.8z"/>
	<g id="그룹_5796">
		<g id="그룹_5470" transform="translate(933.906 -200.577)">
			<path id="패스_3329" class="st5" d="M0,6c0.1-0.8,0.7-1.4,1.5-1.3s1.4,0.7,1.3,1.5c0,0.8-0.6,1.3-1.4,1.3S0,6.9,0,6
				C0,6.1,0,6,0,6z"/>
			<path id="패스_3330" class="st5" d="M12.3,6.1C11.1,5.8,10.2,5,9.7,3.9C9.2,5,8.3,5.9,7.1,6.3L6.7,5.6c1.4-0.4,2.5-1.7,2.5-3.2
				V2.1H6.9V1.4h2.3V0.1h0.9v1.3h2.3v0.7h-2.3v0.3c0.1,1.5,1.2,2.7,2.6,3L12.3,6.1z M15.1,9.2V10H8.3V6.9h0.9v2.4h5.9V9.2z
				 M14.8,7.5h-0.9V0h0.9V7.5z"/>
			<path id="패스_3331" class="st5" d="M23.3,6.4c-2.1,0.3-4.2,0.5-6.4,0.4l-0.1-0.7c0.8,0,1.7,0,2.7,0V5.3
				c-1.2-0.1-1.9-0.7-1.9-1.6c0-1,1-1.6,2.4-1.6s2.4,0.6,2.4,1.6c0,0.9-0.7,1.4-1.9,1.6V6c0.9,0,1.8-0.1,2.8-0.3V6.4z M22.9,1.7
				h-5.8V1h2.5V0h0.9v1h2.4L22.9,1.7z M19.3,9.2h5.9V10h-6.8V7.5h0.9L19.3,9.2z M20,4.6c0.9,0,1.5-0.3,1.5-0.9
				c0-0.5-0.6-0.9-1.5-0.9s-1.5,0.4-1.5,0.9C18.5,4.3,19.1,4.6,20,4.6L20,4.6z M26.3,3.6v0.8h-1.5V8h-0.9V0h0.9v3.5L26.3,3.6z"/>
			<path id="패스_3332" class="st5" d="M32.2,2.7c-0.8,1.8-2.5,3-4.4,3.5l-0.4-0.7c2.4-0.7,3.9-2.1,4.1-3.8H28V0.8h4.6
				c0,0.4,0,0.7-0.1,1.1h2.3V0h0.9v6.1h-0.9V4.8h-2.7V4h2.7V2.7H32.2z M35.7,8.2c0,1.2-1.3,2-3.4,2S29,9.4,29,8.2s1.3-2,3.4-2
				S35.7,7,35.7,8.2L35.7,8.2z M34.8,8.2c0-0.8-1-1.2-2.4-1.2S30,7.5,30,8.2s1,1.2,2.4,1.2C33.8,9.4,34.8,9,34.8,8.2L34.8,8.2z"/>
			<path id="패스_3334" class="st5" d="M59.9,4.9v0.7h-9.2V4.9H59.9z M51.2,3.5c1.8-0.2,3.4-1.1,3.5-2.2h-3.2V0.6H59v0.7h-3.2
				c0,1.1,1.7,2,3.5,2.2L59,4.2c-1.7-0.2-3.2-0.9-3.8-2c-0.9,1.2-2.2,2-3.8,2L51.2,3.5z M58.7,8.3c0,1.2-1.3,1.8-3.5,1.8
				s-3.5-0.7-3.5-1.8s1.3-1.8,3.5-1.8S58.7,7.2,58.7,8.3L58.7,8.3z M57.8,8.3c0-0.7-1-1.1-2.5-1.1s-2.5,0.4-2.5,1.1s0.9,1.1,2.5,1.1
				S57.8,9.1,57.8,8.3L57.8,8.3z"/>
			<path id="패스_3335" class="st5" d="M72.8,6.6h-2.4v3.6h-0.9V6.6H67v3.6h-1V6.6h-2.4V5.8h9.2L72.8,6.6z M64.7,2.7
				c0-1.4,1.4-2.2,3.5-2.2s3.6,0.9,3.6,2.2s-1.4,2.2-3.6,2.2S64.7,4,64.7,2.7z M65.6,2.7c0,0.9,1.1,1.5,2.6,1.5s2.6-0.6,2.6-1.5
				s-1.1-1.5-2.6-1.5S65.6,1.8,65.6,2.7L65.6,2.7z"/>
			<path id="패스_3336" class="st5" d="M77.7,3.1c0.1,1.8,1.1,3.4,2.7,4.1L79.9,8c-1.3-0.6-2.2-1.8-2.7-3.1
				c-0.4,1.4-1.3,2.6-2.6,3.4L74,7.5c1.6-0.9,2.6-2.5,2.7-4.4V1.8h-2.4V1.1H80v0.8h-2.4L77.7,3.1z M82.4,0v10.2h-0.9V0H82.4z"/>
			<g>
				<path class="st5" d="M43.1,5.8c-1.5,0-2.6-1-2.6-2.5s1.1-2.5,2.6-2.5s2.7,1,2.7,2.5C45.8,4.7,44.6,5.8,43.1,5.8z M43.1,5
					c1,0,1.8-0.7,1.8-1.7s-0.7-1.7-1.8-1.7c-1,0-1.7,0.7-1.7,1.7C41.4,4.3,42.1,5,43.1,5z M48.9,9.2V10H42V6.7h1v2.5H48.9z
					 M48.6,7.5h-0.9V0h0.9V7.5z"/>
			</g>
		</g>
		<g id="그룹_5471" transform="translate(941.24 -181.074)">
			<path id="패스_3337" class="st5" d="M0,5.7c0-2,0.6-4,1.7-5.7l0.6,0.3c-1.9,3.4-1.9,7.5,0,10.9l-0.6,0.3C0.6,9.8,0,7.8,0,5.7z"
				/>
		</g>
		<g id="그룹_5472" transform="translate(945.157 -180.27)">
			<path id="패스_3338" class="st5" d="M0,0.2h1.1v8.3H0V0.2z"/>
			<path id="패스_3339" class="st5" d="M2.7,7.4l0.6-0.7c0.6,0.6,1.4,1,2.3,1c1.1,0,1.7-0.5,1.7-1.4c0-0.8-0.6-1.1-1.4-1.5
				L4.8,4.3C3.6,4,2.9,2.8,3.2,1.6C3.5,0.5,4.6-0.2,5.7,0c0.9,0,1.8,0.4,2.4,1L7.6,1.7C7.1,1.2,6.4,0.9,5.7,0.9
				c-0.9,0-1.6,0.5-1.6,1.2c0,0.8,0.7,1.1,1.4,1.4L6.7,4c1,0.3,1.7,1.2,1.7,2.2c0,1.3-1.1,2.4-2.8,2.4C4.5,8.6,3.5,8.2,2.7,7.4z"/>
			<path id="패스_3340" class="st5" d="M9.6,4.3c0-2.7,1.5-4.3,3.5-4.3s3.5,1.6,3.5,4.3s-1.5,4.3-3.5,4.3S9.6,6.9,9.6,4.3z
				 M15.6,4.3c0-2.1-1-3.4-2.5-3.4s-2.5,1.3-2.5,3.4s1,3.4,2.5,3.4S15.6,6.4,15.6,4.3L15.6,4.3z"/>
			<path id="패스_3341" class="st5" d="M20.9,7.6h1.8V1.4h-1.5V0.7c0.6-0.1,1.2-0.3,1.7-0.6h0.8v7.4h1.7v0.9h-4.6L20.9,7.6z"/>
			<path id="패스_3342" class="st5" d="M32.1,6.2H31v2.3h-1V6.2h-3.6V5.5l3.5-5.3H31v5.2h1.1V6.2z M30,5.3V2.8
				c0-0.4,0-1.1,0.1-1.5l0,0c-0.2,0.4-0.4,0.8-0.7,1.2l-1.9,2.8H30z"/>
			<path id="패스_3343" class="st5" d="M33,4.3C33,1.4,34,0,35.6,0s2.6,1.4,2.6,4.3s-1,4.3-2.6,4.3S33,7.2,33,4.3z M37.2,4.3
				c0-2.4-0.6-3.4-1.6-3.4S34,1.9,34,4.3s0.6,3.5,1.6,3.5S37.2,6.7,37.2,4.3L37.2,4.3z"/>
			<path id="패스_3344" class="st5" d="M39.3,4.3c0-2.9,1-4.3,2.6-4.3s2.6,1.4,2.6,4.3s-1,4.3-2.6,4.3S39.3,7.2,39.3,4.3z
				 M43.5,4.3c0-2.4-0.6-3.4-1.6-3.4s-1.6,1-1.6,3.4s0.6,3.5,1.6,3.5S43.5,6.7,43.5,4.3z"/>
			<path id="패스_3345" class="st5" d="M46,7.6h1.8V1.4h-1.5V0.7c0.6-0.1,1.2-0.3,1.7-0.6h0.8v7.4h1.7v0.9H46V7.6z"/>
		</g>
		<g id="그룹_5473" transform="translate(999.601 -181.074)">
			<path id="패스_3346" class="st5" d="M9.2,4.8v0.8H0V4.8H9.2z M8.1,8.3c0,1.2-1.3,1.8-3.5,1.8S1.1,9.4,1.1,8.3s1.3-1.8,3.5-1.8
				S8.1,7.1,8.1,8.3L8.1,8.3z M8.1,3.8h-7V0.4H8v0.7H2v2h6L8.1,3.8z M7.1,8.3c0-0.7-0.9-1.1-2.5-1.1S2,7.5,2,8.3s1,1.1,2.6,1.1
				S7.1,9,7.1,8.3L7.1,8.3z"/>
			<path id="패스_3347" class="st5" d="M10.3,11.2c1.9-3.4,1.9-7.5,0-10.9L10.9,0c2.2,3.5,2.2,8,0,11.5L10.3,11.2z"/>
		</g>
	</g>
	<g class="st7">
		<path class="st1" d="M1171.7-478v1.5H1157v-1.5h10.7c0.3-1.5,0.4-2.7,0.4-3.7h-9.2v-1.5h11v1.1c0,1.1,0,2.4-0.3,4.2H1171.7z
			 M1160.6-469.3h9.7v1.5h-11.6v-4.4h9.3v-1.5h-9.4v-1.5h11.2v4.3h-9.3V-469.3z"/>
		<path class="st1" d="M1188.3-471.1v1.5h-14.7v-1.5h6.4v-2.8h-4.6v-5.2h9.4v-2.2h-9.4v-1.5h11.2v5.1h-9.4v2.3h9.7v1.5h-5.1v2.8
			H1188.3z"/>
		<path class="st1" d="M1198.3-476.1h-7.5v-7.1h1.8v2.1h3.8v-2.1h1.8v2.8h3.4v-3.5h1.9v8.4h-1.9v-3.4h-3.4V-476.1z M1196.5-479.6
			h-3.8v2.1h3.8V-479.6z M1204.1-469.3v1.5H1193v-4.2h8.7v-1.3h-8.8v-1.4h10.6v4.1h-8.7v1.4H1204.1z"/>
		<path class="st1" d="M1220.9-473.7c-3.4,0.6-7.3,0.7-10.1,0.7l-0.2-1.5c1.2,0,2.6,0,4.1-0.1v-1.1c-1.8-0.2-3-1.1-3-2.4
			c0-1.5,1.5-2.5,3.9-2.5s3.9,1,3.9,2.5c0,1.3-1.1,2.2-2.9,2.4v1c1.4-0.1,2.8-0.2,4.1-0.4L1220.9-473.7z M1220.3-481.1h-9.3v-1.4
			h3.7v-1.5h1.9v1.5h3.7V-481.1z M1214.8-469.5h9.2v1.5h-11.1v-4.1h1.9V-469.5z M1215.6-476.8c1.3,0,2.1-0.5,2.1-1.2
			c0-0.8-0.8-1.2-2.1-1.2c-1.3,0-2.1,0.5-2.1,1.2C1213.5-477.2,1214.3-476.8,1215.6-476.8z M1225.7-478.4v1.5h-2.2v5.7h-1.9v-12.7
			h1.9v5.5H1225.7z"/>
		<path class="st1" d="M1235.1-479.6c-1,2.6-3.4,4.4-6.9,5.4l-0.7-1.5c3.8-1.1,5.9-3.1,6.2-5.6h-5.4v-1.5h7.4c0,0.6-0.1,1.1-0.1,1.6
			h3.3v-2.8h1.9v9.6h-1.9v-1.9h-3.9v-1.5h3.9v-1.9H1235.1z M1240.8-470.9c0,2-2.1,3.2-5.4,3.2s-5.4-1.2-5.4-3.2c0-2,2.1-3.2,5.4-3.2
			S1240.8-472.9,1240.8-470.9z M1239-470.9c0-1.1-1.4-1.7-3.6-1.7c-2.2,0-3.6,0.6-3.6,1.7c0,1.1,1.4,1.8,3.6,1.8
			C1237.6-469.2,1239-469.8,1239-470.9z"/>
		<path class="st1" d="M1251.7-479.6c-1,2.6-3.4,4.4-6.9,5.4l-0.7-1.5c3.8-1.1,5.9-3.1,6.2-5.6h-5.4v-1.5h7.4c0,0.6-0.1,1.1-0.1,1.6
			h3.3v-2.8h1.9v9.6h-1.9v-1.9h-3.9v-1.5h3.9v-1.9H1251.7z M1257.4-470.9c0,2-2.1,3.2-5.4,3.2s-5.4-1.2-5.4-3.2c0-2,2.1-3.2,5.4-3.2
			S1257.4-472.9,1257.4-470.9z M1255.6-470.9c0-1.1-1.4-1.7-3.6-1.7c-2.2,0-3.6,0.6-3.6,1.7c0,1.1,1.4,1.8,3.6,1.8
			C1254.2-469.2,1255.6-469.8,1255.6-470.9z"/>
		<path class="st1" d="M1268.1-476.5c-0.8,0.8-1.9,1.3-3.2,1.3c-2.4,0-4.2-1.6-4.2-3.9c0-2.3,1.8-3.9,4.2-3.9c1.3,0,2.5,0.5,3.2,1.3
			h3.9v-2.3h1.9v9.6h-1.9v-2.1H1268.1z M1264.9-476.7c1.4,0,2.4-0.9,2.4-2.3c0-1.4-1-2.4-2.4-2.4c-1.4,0-2.5,0.9-2.5,2.4
			C1262.4-477.7,1263.4-476.7,1264.9-476.7z M1273.9-470.8c0,2-2.1,3.2-5.5,3.2c-3.4,0-5.5-1.2-5.5-3.2c0-2,2.1-3.2,5.5-3.2
			C1271.8-474,1273.9-472.8,1273.9-470.8z M1272.1-470.8c0-1.1-1.3-1.7-3.7-1.7c-2.3,0-3.7,0.6-3.7,1.7c0,1.1,1.4,1.7,3.7,1.7
			C1270.8-469.1,1272.1-469.7,1272.1-470.8z M1268.9-480.2c0.1,0.3,0.1,0.7,0.1,1.1c0,0.4-0.1,0.8-0.2,1.1h3.1v-2.2H1268.9z"/>
	</g>
	<g class="st7">
		<path class="st0" d="M875.3-428.4c-1.2-0.4-2-1.2-2.5-2.2c-0.5,1.1-1.4,2-2.6,2.4l-0.8-1.3c1.8-0.6,2.6-2,2.6-3.4v-0.2h-2.2v-1.3
			h5.9v1.3h-2.1v0.1c0,1.3,0.8,2.7,2.5,3.2L875.3-428.4z M878.9-425.4v1.3h-7.5v-3.5h1.6v2.2H878.9z M877.1-432.2v-2.9h1.6v8.1h-1.6
			v-3.9h-1.7v-1.3H877.1z"/>
		<path class="st0" d="M884.3-432.2v-1h-3.5v-1.3h5v3.4h-3.5v1c1.8,0,3-0.1,4.4-0.3l0.1,1.3c-1.5,0.3-2.9,0.3-5.1,0.3h-0.9v-3.5
			H884.3z M881.8-427.8h7.4v3.8h-1.6v-2.6h-5.8V-427.8z M889.2-432.2v1.1h1.5v1.3h-1.5v1.5h-1.6v-6.7h1.6v1.5h1.5v1.3H889.2z"/>
		<path class="st0" d="M897.1-429.1h-5.3v-5.2h1.6v1.4h2.2v-1.4h1.6V-429.1z M900.3-426.1c0,1.3-1.4,2.1-3.7,2.1
			c-2.3,0-3.7-0.8-3.7-2.1c0-1.4,1.4-2.2,3.7-2.2C898.9-428.3,900.3-427.5,900.3-426.1z M895.6-431.7h-2.2v1.4h2.2V-431.7z
			 M898.8-426.1c0-0.6-0.8-0.9-2.2-0.9c-1.4,0-2.2,0.3-2.2,0.9c0,0.6,0.8,0.9,2.2,0.9C898-425.2,898.8-425.5,898.8-426.1z
			 M901.7-432.4v1.3h-1.5v2.6h-1.6v-6.5h1.6v2.6H901.7z"/>
		<path class="st0" d="M909.1-432.7h-6.5v-1.2h2.4v-1.1h1.6v1.1h2.5V-432.7z M905.8-428.4c-1.6,0-2.7-0.8-2.7-2c0-1.2,1.1-2,2.7-2
			c1.6,0,2.7,0.8,2.7,2C908.5-429.2,907.4-428.4,905.8-428.4z M911.4-425.9c0,1.2-1.4,2-3.7,2s-3.7-0.7-3.7-2c0-1.2,1.4-2,3.7-2
			S911.4-427.2,911.4-425.9z M905.8-429.6c0.7,0,1.2-0.3,1.2-0.8c0-0.5-0.5-0.8-1.2-0.8c-0.7,0-1.2,0.3-1.2,0.8
			C904.6-429.8,905.1-429.6,905.8-429.6z M909.8-425.9c0-0.5-0.7-0.8-2.1-0.8s-2.1,0.2-2.1,0.8c0,0.5,0.7,0.8,2.1,0.8
			S909.8-425.4,909.8-425.9z M911.3-432.1v1.1h1.4v1.3h-1.4v1.7h-1.6v-7h1.6v1.6h1.4v1.3H911.3z"/>
	</g>
	<g class="st7">
		<path class="st0" d="M875.3-238.4c-1.2-0.4-2-1.2-2.5-2.2c-0.5,1.1-1.4,2-2.6,2.4l-0.8-1.3c1.8-0.6,2.6-2,2.6-3.4v-0.2h-2.2v-1.3
			h5.9v1.3h-2.1v0.1c0,1.3,0.8,2.7,2.5,3.2L875.3-238.4z M878.9-235.4v1.3h-7.5v-3.5h1.6v2.2H878.9z M877.1-242.2v-2.9h1.6v8.1h-1.6
			v-3.9h-1.7v-1.3H877.1z"/>
		<path class="st0" d="M884.3-242.2v-1h-3.5v-1.3h5v3.4h-3.5v1c1.8,0,3-0.1,4.4-0.3l0.1,1.3c-1.5,0.3-2.9,0.3-5.1,0.3h-0.9v-3.5
			H884.3z M881.8-237.8h7.4v3.8h-1.6v-2.6h-5.8V-237.8z M889.2-242.2v1.1h1.5v1.3h-1.5v1.5h-1.6v-6.7h1.6v1.5h1.5v1.3H889.2z"/>
		<path class="st0" d="M901.5-239.6v1.3h-10v-1.3h4.2v-1h-3v-3.9h7.5v3.9h-3v1H901.5z M892.6-237.6h7.7v3.6h-1.6v-2.4h-6.1V-237.6z
			 M894.3-241.9h4.4v-1.4h-4.4V-241.9z"/>
		<path class="st0" d="M912.6-236.5v1.3h-10v-1.3h2.5v-2.1h-1.6v-1.2h1.4v-3.1h-1.5v-1.3h8.4v1.3h-1.5v3.1h1.5v1.2h-1.6v2.1H912.6z
			 M906.4-239.8h2.3v-3.1h-2.3V-239.8z M906.6-236.5h1.9v-2.1h-1.9V-236.5z"/>
	</g>
	<g class="st7">
		<path class="st0" d="M875.3-201.4c-1.2-0.4-2-1.2-2.5-2.2c-0.5,1.1-1.4,2-2.6,2.4l-0.8-1.3c1.8-0.6,2.6-2,2.6-3.4v-0.2h-2.2v-1.3
			h5.9v1.3h-2.1v0.1c0,1.3,0.8,2.7,2.5,3.2L875.3-201.4z M878.9-198.4v1.3h-7.5v-3.5h1.6v2.2H878.9z M877.1-205.2v-2.9h1.6v8.1h-1.6
			v-3.9h-1.7v-1.3H877.1z"/>
		<path class="st0" d="M884.3-205.2v-1h-3.5v-1.3h5v3.4h-3.5v1c1.8,0,3-0.1,4.4-0.3l0.1,1.3c-1.5,0.3-2.9,0.3-5.1,0.3h-0.9v-3.5
			H884.3z M881.8-200.8h7.4v3.8h-1.6v-2.6h-5.8V-200.8z M889.2-205.2v1.1h1.5v1.3h-1.5v1.5h-1.6v-6.7h1.6v1.5h1.5v1.3H889.2z"/>
		<path class="st0" d="M895-200.5c1.1,0,2.1-0.1,3.2-0.2l0.1,1.1c-2.2,0.4-4.7,0.4-6.6,0.4l-0.1-1.3c0.6,0,1.3,0,2,0v-3.3h1.6
			V-200.5z M895.8-201.9c0.3-1.6,0.3-2.8,0.3-3.7H892v-1.3h5.7v0.9c0,1.1,0,2.4-0.3,4.2L895.8-201.9z M901.7-202.3h-1.5v5.3h-1.6
			v-11h1.6v4.4h1.5V-202.3z"/>
		<path class="st0" d="M906.1-205.1c0,1.8,0.5,3.7,2.1,4.6l-0.9,1.2c-1-0.6-1.6-1.5-2-2.7c-0.4,1.3-1,2.3-2,3l-0.9-1.2
			c1.6-1,2.2-3,2.2-4.9v-0.5h-1.8v-1.3h4.9v1.3h-1.6V-205.1z M908.3-207.8h1.5v10.4h-1.5v-5.5h-1.4v-1.3h1.4V-207.8z M912-208v11
			h-1.5v-11H912z"/>
	</g>
	<g class="st7">
		<path class="st5" d="M950.9-238.9h-1.6c-0.4-0.8-1.2-1.3-2.2-1.3c-1.7,0-2.9,1.2-2.9,3s1.2,3,2.9,3c1.5,0,2.5-0.9,2.7-2.3h-3.1
			v-1.1h4.6v1.1c-0.3,1.9-1.9,3.6-4.1,3.6c-2.4,0-4.3-1.8-4.3-4.3c0-2.5,1.9-4.3,4.3-4.3C948.8-241.4,950.3-240.6,950.9-238.9z"/>
		<path class="st5" d="M952.5-241.9h1.4v8.9h-1.4V-241.9z"/>
		<path class="st5" d="M958.6-232.9c-1.9,0-3.3-1.3-3.3-3.4c0-2.1,1.5-3.4,3.4-3.4c1.9,0,3.4,1.3,3.4,3.4
			C962-234.2,960.4-232.9,958.6-232.9z M958.6-234.1c1,0,2-0.7,2-2.2c0-1.5-1-2.2-2-2.2c-1,0-2,0.7-2,2.2
			C956.6-234.8,957.5-234.1,958.6-234.1z"/>
		<path class="st5" d="M967-239.7c1.8,0,3.1,1.3,3.1,3.4s-1.4,3.4-3.1,3.4c-1.1,0-1.9-0.5-2.3-1.1v1h-1.4v-8.9h1.4v3.2
			C965.1-239.2,966-239.7,967-239.7z M966.7-238.5c-1,0-2,0.8-2,2.2c0,1.4,1,2.2,2,2.2c1,0,2-0.8,2-2.3
			C968.7-237.8,967.7-238.5,966.7-238.5z"/>
		<path class="st5" d="M974.1-239.7c1.1,0,1.9,0.5,2.3,1.1v-1h1.4v6.6h-1.4v-1c-0.4,0.6-1.2,1.1-2.3,1.1c-1.7,0-3.1-1.4-3.1-3.4
			S972.4-239.7,974.1-239.7z M974.4-238.5c-1,0-2,0.8-2,2.2c0,1.4,1,2.3,2,2.3c1,0,2-0.8,2-2.2C976.4-237.7,975.5-238.5,974.4-238.5
			z"/>
		<path class="st5" d="M979.6-241.9h1.4v8.9h-1.4V-241.9z"/>
		<path class="st5" d="M988.6-232.9c-1.7,0-3-0.9-3-2.4h1.5c0.1,0.7,0.5,1.2,1.5,1.2c1,0,1.5-0.5,1.5-1.2c0-2-4.4-0.7-4.4-3.8
			c0-1.5,1.2-2.4,2.9-2.4c1.6,0,2.7,0.8,2.8,2.3h-1.5c0-0.6-0.5-1.1-1.4-1.1c-0.8,0-1.4,0.4-1.4,1.2c0,1.9,4.4,0.7,4.4,3.8
			C991.5-234.1,990.5-232.9,988.6-232.9z"/>
		<path class="st5" d="M993.4-238.5h-0.8v-1.1h0.8v-1.6h1.4v1.6h1.6v1.1h-1.6v3.7c0,0.5,0.2,0.7,0.8,0.7h0.8v1.1h-1.1
			c-1.2,0-1.9-0.5-1.9-1.8V-238.5z"/>
		<path class="st5" d="M1000.3-239.7c1.1,0,1.9,0.5,2.3,1.1v-1h1.4v6.6h-1.4v-1c-0.4,0.6-1.2,1.1-2.3,1.1c-1.7,0-3.1-1.4-3.1-3.4
			S998.5-239.7,1000.3-239.7z M1000.6-238.5c-1,0-2,0.8-2,2.2c0,1.4,1,2.3,2,2.3c1,0,2-0.8,2-2.2
			C1002.6-237.7,1001.6-238.5,1000.6-238.5z"/>
		<path class="st5" d="M1010.4-236.7c0-1.2-0.7-1.8-1.7-1.8c-1,0-1.7,0.6-1.7,1.8v3.7h-1.4v-6.6h1.4v0.8c0.4-0.5,1.2-0.9,2-0.9
			c1.5,0,2.7,1,2.7,2.8v3.9h-1.4V-236.7z"/>
		<path class="st5" d="M1016.2-239.7c0.9,0,1.8,0.4,2.3,1v-3.2h1.4v8.9h-1.4v-1c-0.4,0.6-1.2,1.1-2.3,1.1c-1.7,0-3.1-1.4-3.1-3.4
			S1014.5-239.7,1016.2-239.7z M1016.5-238.5c-1,0-2,0.8-2,2.2c0,1.4,1,2.3,2,2.3c1,0,2-0.8,2-2.2
			C1018.5-237.7,1017.5-238.5,1016.5-238.5z"/>
		<path class="st5" d="M1024.3-239.7c1.1,0,1.9,0.5,2.3,1.1v-1h1.4v6.6h-1.4v-1c-0.4,0.6-1.2,1.1-2.3,1.1c-1.7,0-3.1-1.4-3.1-3.4
			S1022.6-239.7,1024.3-239.7z M1024.6-238.5c-1,0-2,0.8-2,2.2c0,1.4,1,2.3,2,2.3c1,0,2-0.8,2-2.2
			C1026.6-237.7,1025.7-238.5,1024.6-238.5z"/>
		<path class="st5" d="M1031.2-233h-1.4v-6.6h1.4v1c0.4-0.7,1-1.1,2-1.1v1.4h-0.3c-1,0-1.6,0.4-1.6,1.8V-233z"/>
		<path class="st5" d="M1037.1-239.7c0.9,0,1.8,0.4,2.3,1v-3.2h1.4v8.9h-1.4v-1c-0.4,0.6-1.2,1.1-2.3,1.1c-1.7,0-3.1-1.4-3.1-3.4
			S1035.3-239.7,1037.1-239.7z M1037.4-238.5c-1,0-2,0.8-2,2.2c0,1.4,1,2.3,2,2.3c1,0,2-0.8,2-2.2
			C1039.4-237.7,1038.4-238.5,1037.4-238.5z"/>
	</g>
	<g class="st7">
		<path class="st5" d="M1099.8-241.4c1.7,0,3.2,0.9,3.9,2.5h-1.6c-0.4-0.9-1.2-1.3-2.2-1.3c-1.7,0-2.9,1.2-2.9,3.1s1.2,3.1,2.9,3.1
			c1,0,1.8-0.4,2.2-1.3h1.6c-0.6,1.6-2.1,2.5-3.9,2.5c-2.4,0-4.3-1.8-4.3-4.3C1095.6-239.7,1097.5-241.4,1099.8-241.4z"/>
		<path class="st5" d="M1105.3-241.9h1.4v8.9h-1.4V-241.9z"/>
		<path class="st5" d="M1108.3-241.4c0-0.5,0.4-0.9,0.9-0.9c0.5,0,0.9,0.4,0.9,0.9s-0.4,0.9-0.9,0.9
			C1108.7-240.5,1108.3-240.9,1108.3-241.4z M1108.5-239.6h1.4v6.6h-1.4V-239.6z"/>
		<path class="st5" d="M1121-236.7c0-1.2-0.7-1.8-1.7-1.8c-1,0-1.7,0.6-1.7,1.8v3.7h-1.4v-3.7c0-1.2-0.7-1.8-1.7-1.8
			c-1,0-1.7,0.6-1.7,1.8v3.7h-1.4v-6.6h1.4v0.8c0.4-0.5,1.2-0.9,2-0.9c1,0,1.9,0.4,2.4,1.3c0.4-0.8,1.3-1.3,2.3-1.3
			c1.5,0,2.7,1,2.7,2.8v3.9h-1.4V-236.7z"/>
		<path class="st5" d="M1126.8-239.7c1.1,0,1.9,0.5,2.3,1.1v-1h1.4v6.6h-1.4v-1c-0.4,0.6-1.2,1.1-2.3,1.1c-1.7,0-3.1-1.4-3.1-3.4
			S1125-239.7,1126.8-239.7z M1127.1-238.5c-1,0-2,0.8-2,2.2c0,1.4,1,2.3,2,2.3c1,0,2-0.8,2-2.2
			C1129.1-237.7,1128.1-238.5,1127.1-238.5z"/>
		<path class="st5" d="M1132.5-238.5h-0.8v-1.1h0.8v-1.6h1.4v1.6h1.6v1.1h-1.6v3.7c0,0.5,0.2,0.7,0.8,0.7h0.8v1.1h-1.1
			c-1.2,0-1.9-0.5-1.9-1.8V-238.5z"/>
		<path class="st5" d="M1139.6-232.9c-1.9,0-3.3-1.3-3.3-3.4c0-2.1,1.3-3.4,3.3-3.4c1.9,0,3.2,1.3,3.2,3.3c0,0.2,0,0.4,0,0.7h-5
			c0.1,1.1,0.9,1.8,1.9,1.8c0.8,0,1.3-0.4,1.6-0.9h1.5C1142.2-233.8,1141.2-232.9,1139.6-232.9z M1137.7-236.9h3.7
			c0-1-0.8-1.7-1.8-1.7C1138.6-238.6,1137.8-237.9,1137.7-236.9z"/>
		<path class="st5" d="M1151-241.4c1.7,0,3.2,0.9,3.9,2.5h-1.6c-0.4-0.9-1.2-1.3-2.2-1.3c-1.7,0-2.9,1.2-2.9,3.1s1.2,3.1,2.9,3.1
			c1,0,1.8-0.4,2.2-1.3h1.6c-0.6,1.6-2.1,2.5-3.9,2.5c-2.4,0-4.3-1.8-4.3-4.3C1146.8-239.7,1148.7-241.4,1151-241.4z"/>
		<path class="st5" d="M1156.5-241.9h1.4v3c0.5-0.6,1.2-0.9,2.1-0.9c1.5,0,2.6,1,2.6,2.8v3.9h-1.4v-3.7c0-1.2-0.7-1.8-1.7-1.8
			c-1,0-1.7,0.6-1.7,1.8v3.7h-1.4V-241.9z"/>
		<path class="st5" d="M1167-239.7c1.1,0,1.9,0.5,2.3,1.1v-1h1.4v6.6h-1.4v-1c-0.4,0.6-1.2,1.1-2.3,1.1c-1.7,0-3.1-1.4-3.1-3.4
			S1165.2-239.7,1167-239.7z M1167.3-238.5c-1,0-2,0.8-2,2.2c0,1.4,1,2.3,2,2.3c1,0,2-0.8,2-2.2
			C1169.3-237.7,1168.3-238.5,1167.3-238.5z"/>
		<path class="st5" d="M1177.1-236.7c0-1.2-0.7-1.8-1.7-1.8c-1,0-1.7,0.6-1.7,1.8v3.7h-1.4v-6.6h1.4v0.8c0.4-0.5,1.2-0.9,2-0.9
			c1.5,0,2.7,1,2.7,2.8v3.9h-1.4V-236.7z"/>
		<path class="st5" d="M1182.9-239.7c1.1,0,1.9,0.5,2.3,1.1v-1h1.4v6.7c0,1.8-1.2,3.2-3.2,3.2c-1.8,0-3.1-0.9-3.2-2.3h1.4
			c0.2,0.7,0.9,1.2,1.9,1.2c1.1,0,1.8-0.6,1.8-2v-1.1c-0.4,0.6-1.2,1.1-2.3,1.1c-1.7,0-3.1-1.4-3.1-3.4S1181.1-239.7,1182.9-239.7z
			 M1183.2-238.5c-1,0-2,0.8-2,2.2c0,1.4,1,2.3,2,2.3c1,0,2-0.8,2-2.2C1185.2-237.7,1184.2-238.5,1183.2-238.5z"/>
		<path class="st5" d="M1191.2-232.9c-1.9,0-3.3-1.3-3.3-3.4c0-2.1,1.3-3.4,3.3-3.4c1.9,0,3.2,1.3,3.2,3.3c0,0.2,0,0.4,0,0.7h-5
			c0.1,1.1,0.9,1.8,1.9,1.8c0.8,0,1.3-0.4,1.6-0.9h1.5C1193.9-233.8,1192.8-232.9,1191.2-232.9z M1189.3-236.9h3.7
			c0-1-0.8-1.7-1.8-1.7C1190.2-238.6,1189.5-237.9,1189.3-236.9z"/>
	</g>
	<g class="st7">
		<path class="st5" d="M1242.1-236.4h-1.5v3.4h-1.4v-8.3h2.9c2,0,3,1.1,3,2.5C1245-237.7,1244.2-236.4,1242.1-236.4z M1242.1-237.5
			c1.1,0,1.5-0.5,1.5-1.4c0-0.9-0.5-1.4-1.5-1.4h-1.5v2.7H1242.1z"/>
		<path class="st5" d="M1249.2-232.9c-1.9,0-3.3-1.3-3.3-3.4c0-2.1,1.5-3.4,3.4-3.4c1.9,0,3.4,1.3,3.4,3.4
			C1252.6-234.2,1251.1-232.9,1249.2-232.9z M1249.2-234.1c1,0,2-0.7,2-2.2c0-1.5-1-2.2-2-2.2c-1,0-2,0.7-2,2.2
			C1247.3-234.8,1248.2-234.1,1249.2-234.1z"/>
		<path class="st5" d="M1254-241.9h1.4v8.9h-1.4V-241.9z"/>
		<path class="st5" d="M1257.1-241.9h1.4v8.9h-1.4V-241.9z"/>
		<path class="st5" d="M1266.3-233h-1.4v-0.8c-0.4,0.6-1.2,0.9-2,0.9c-1.5,0-2.7-1-2.7-2.8v-3.9h1.4v3.7c0,1.2,0.7,1.8,1.7,1.8
			c1,0,1.7-0.6,1.7-1.8v-3.7h1.4V-233z"/>
		<path class="st5" d="M1268.3-238.5h-0.8v-1.1h0.8v-1.6h1.4v1.6h1.6v1.1h-1.6v3.7c0,0.5,0.2,0.7,0.8,0.7h0.8v1.1h-1.1
			c-1.2,0-1.9-0.5-1.9-1.8V-238.5z"/>
		<path class="st5" d="M1272.4-241.4c0-0.5,0.4-0.9,0.9-0.9c0.5,0,0.9,0.4,0.9,0.9s-0.4,0.9-0.9,0.9
			C1272.8-240.5,1272.4-240.9,1272.4-241.4z M1272.6-239.6h1.4v6.6h-1.4V-239.6z"/>
		<path class="st5" d="M1278.6-232.9c-1.9,0-3.3-1.3-3.3-3.4c0-2.1,1.5-3.4,3.4-3.4s3.4,1.3,3.4,3.4
			C1282-234.2,1280.5-232.9,1278.6-232.9z M1278.6-234.1c1,0,2-0.7,2-2.2c0-1.5-1-2.2-2-2.2c-1,0-2,0.7-2,2.2
			C1276.7-234.8,1277.6-234.1,1278.6-234.1z"/>
		<path class="st5" d="M1288.1-236.7c0-1.2-0.7-1.8-1.7-1.8c-1,0-1.7,0.6-1.7,1.8v3.7h-1.4v-6.6h1.4v0.8c0.4-0.5,1.2-0.9,2-0.9
			c1.5,0,2.7,1,2.7,2.8v3.9h-1.4V-236.7z"/>
		<path class="st5" d="M1297.2-236.4h-1.5v3.4h-1.4v-8.3h2.9c2,0,3,1.1,3,2.5C1300.1-237.7,1299.3-236.4,1297.2-236.4z
			 M1297.2-237.5c1.1,0,1.5-0.5,1.5-1.4c0-0.9-0.5-1.4-1.5-1.4h-1.5v2.7H1297.2z"/>
		<path class="st5" d="M1302.8-233h-1.4v-6.6h1.4v1c0.4-0.7,1-1.1,2-1.1v1.4h-0.3c-1,0-1.6,0.4-1.6,1.8V-233z"/>
		<path class="st5" d="M1308.9-232.9c-1.9,0-3.3-1.3-3.3-3.4c0-2.1,1.3-3.4,3.3-3.4c1.9,0,3.2,1.3,3.2,3.3c0,0.2,0,0.4,0,0.7h-5
			c0.1,1.1,0.9,1.8,1.9,1.8c0.8,0,1.3-0.4,1.6-0.9h1.5C1311.5-233.8,1310.5-232.9,1308.9-232.9z M1307-236.9h3.7
			c0-1-0.8-1.7-1.8-1.7C1307.9-238.6,1307.2-237.9,1307-236.9z"/>
		<path class="st5" d="M1314.1-239.6l1.9,5.4l1.9-5.4h1.5l-2.5,6.6h-1.6l-2.5-6.6H1314.1z"/>
		<path class="st5" d="M1323.2-232.9c-1.9,0-3.3-1.3-3.3-3.4c0-2.1,1.3-3.4,3.3-3.4c1.9,0,3.2,1.3,3.2,3.3c0,0.2,0,0.4,0,0.7h-5
			c0.1,1.1,0.9,1.8,1.9,1.8c0.8,0,1.3-0.4,1.6-0.9h1.5C1325.9-233.8,1324.8-232.9,1323.2-232.9z M1321.3-236.9h3.7
			c0-1-0.8-1.7-1.8-1.7C1322.2-238.6,1321.5-237.9,1321.3-236.9z"/>
		<path class="st5" d="M1332.4-236.7c0-1.2-0.7-1.8-1.7-1.8c-1,0-1.7,0.6-1.7,1.8v3.7h-1.4v-6.6h1.4v0.8c0.4-0.5,1.2-0.9,2-0.9
			c1.5,0,2.7,1,2.7,2.8v3.9h-1.4V-236.7z"/>
		<path class="st5" d="M1335.8-238.5h-0.8v-1.1h0.8v-1.6h1.4v1.6h1.6v1.1h-1.6v3.7c0,0.5,0.2,0.7,0.8,0.7h0.8v1.1h-1.1
			c-1.2,0-1.9-0.5-1.9-1.8V-238.5z"/>
		<path class="st5" d="M1339.8-241.4c0-0.5,0.4-0.9,0.9-0.9c0.5,0,0.9,0.4,0.9,0.9s-0.4,0.9-0.9,0.9
			C1340.2-240.5,1339.8-240.9,1339.8-241.4z M1340-239.6h1.4v6.6h-1.4V-239.6z"/>
		<path class="st5" d="M1346-232.9c-1.9,0-3.3-1.3-3.3-3.4c0-2.1,1.5-3.4,3.4-3.4c1.9,0,3.4,1.3,3.4,3.4
			C1349.5-234.2,1347.9-232.9,1346-232.9z M1346-234.1c1,0,2-0.7,2-2.2c0-1.5-1-2.2-2-2.2c-1,0-2,0.7-2,2.2
			C1344.1-234.8,1345-234.1,1346-234.1z"/>
		<path class="st5" d="M1355.5-236.7c0-1.2-0.7-1.8-1.7-1.8c-1,0-1.7,0.6-1.7,1.8v3.7h-1.4v-6.6h1.4v0.8c0.4-0.5,1.2-0.9,2-0.9
			c1.5,0,2.7,1,2.7,2.8v3.9h-1.4V-236.7z"/>
	</g>
	<g class="st7">
		<path class="st5" d="M1399.9-241.3h1.5l1.7,6.8l1.9-6.8h1.5l1.7,6.8l1.7-6.8h1.5l-2.5,8.3h-1.5l-1.8-6.3l-1.9,6.3l-1.5,0
			L1399.9-241.3z"/>
		<path class="st5" d="M1415.2-239.7c1.1,0,1.9,0.5,2.3,1.1v-1h1.4v6.6h-1.4v-1c-0.4,0.6-1.2,1.1-2.3,1.1c-1.7,0-3.1-1.4-3.1-3.4
			S1413.5-239.7,1415.2-239.7z M1415.5-238.5c-1,0-2,0.8-2,2.2c0,1.4,1,2.3,2,2.3c1,0,2-0.8,2-2.2
			C1417.5-237.7,1416.5-238.5,1415.5-238.5z"/>
		<path class="st5" d="M1423.1-232.9c-1.6,0-2.7-0.9-2.8-2.1h1.4c0,0.5,0.6,1,1.3,1c0.8,0,1.2-0.3,1.2-0.8c0-1.3-3.8-0.6-3.8-3
			c0-1.1,1-1.9,2.5-1.9c1.5,0,2.5,0.8,2.6,2.1h-1.4c0-0.6-0.5-1-1.2-1c-0.7,0-1.1,0.3-1.1,0.7c0,1.3,3.7,0.6,3.8,3
			C1425.6-233.7,1424.6-232.9,1423.1-232.9z"/>
		<path class="st5" d="M1427.3-238.5h-0.8v-1.1h0.8v-1.6h1.4v1.6h1.6v1.1h-1.6v3.7c0,0.5,0.2,0.7,0.8,0.7h0.8v1.1h-1.1
			c-1.2,0-1.9-0.5-1.9-1.8V-238.5z"/>
		<path class="st5" d="M1434.4-232.9c-1.9,0-3.3-1.3-3.3-3.4c0-2.1,1.3-3.4,3.3-3.4c1.9,0,3.2,1.3,3.2,3.3c0,0.2,0,0.4,0,0.7h-5
			c0.1,1.1,0.9,1.8,1.9,1.8c0.8,0,1.3-0.4,1.6-0.9h1.5C1437-233.8,1436-232.9,1434.4-232.9z M1432.5-236.9h3.7c0-1-0.8-1.7-1.8-1.7
			C1433.4-238.6,1432.7-237.9,1432.5-236.9z"/>
		<path class="st5" d="M1444.9-241.3c2,0,3,1.1,3,2.5c0,1-0.5,2-1.9,2.4l2.1,3.5h-1.6l-1.9-3.3h-1v3.3h-1.4v-8.3H1444.9z
			 M1444.9-240.2h-1.5v2.8h1.5c1.1,0,1.5-0.6,1.5-1.4C1446.5-239.7,1446-240.2,1444.9-240.2z"/>
		<path class="st5" d="M1452.5-232.9c-1.9,0-3.3-1.3-3.3-3.4c0-2.1,1.3-3.4,3.3-3.4c1.9,0,3.2,1.3,3.2,3.3c0,0.2,0,0.4,0,0.7h-5
			c0.1,1.1,0.9,1.8,1.9,1.8c0.8,0,1.3-0.4,1.6-0.9h1.5C1455.2-233.8,1454.1-232.9,1452.5-232.9z M1450.6-236.9h3.7
			c0-1-0.8-1.7-1.8-1.7C1451.5-238.6,1450.8-237.9,1450.6-236.9z"/>
		<path class="st5" d="M1459.7-239.7c0.9,0,1.8,0.4,2.3,1v-3.2h1.4v8.9h-1.4v-1c-0.4,0.6-1.2,1.1-2.3,1.1c-1.7,0-3.1-1.4-3.1-3.4
			S1458-239.7,1459.7-239.7z M1460-238.5c-1,0-2,0.8-2,2.2c0,1.4,1,2.3,2,2.3c1,0,2-0.8,2-2.2C1462-237.7,1461-238.5,1460-238.5z"/>
		<path class="st5" d="M1471.2-233h-1.4v-0.8c-0.4,0.6-1.2,0.9-2,0.9c-1.5,0-2.7-1-2.7-2.8v-3.9h1.4v3.7c0,1.2,0.7,1.8,1.7,1.8
			c1,0,1.7-0.6,1.7-1.8v-3.7h1.4V-233z"/>
		<path class="st5" d="M1475.8-239.7c1.6,0,2.7,0.8,3,2.2h-1.5c-0.2-0.6-0.8-1-1.6-1c-1.1,0-1.8,0.8-1.8,2.3c0,1.5,0.7,2.3,1.8,2.3
			c0.8,0,1.3-0.4,1.6-1h1.5c-0.4,1.3-1.4,2.2-3,2.2c-1.9,0-3.2-1.3-3.2-3.4C1472.5-238.4,1473.9-239.7,1475.8-239.7z"/>
		<path class="st5" d="M1480.4-238.5h-0.8v-1.1h0.8v-1.6h1.4v1.6h1.6v1.1h-1.6v3.7c0,0.5,0.2,0.7,0.8,0.7h0.8v1.1h-1.1
			c-1.2,0-1.9-0.5-1.9-1.8V-238.5z"/>
		<path class="st5" d="M1484.5-241.4c0-0.5,0.4-0.9,0.9-0.9c0.5,0,0.9,0.4,0.9,0.9s-0.4,0.9-0.9,0.9
			C1484.8-240.5,1484.5-240.9,1484.5-241.4z M1484.6-239.6h1.4v6.6h-1.4V-239.6z"/>
		<path class="st5" d="M1490.7-232.9c-1.9,0-3.3-1.3-3.3-3.4c0-2.1,1.5-3.4,3.4-3.4s3.4,1.3,3.4,3.4
			C1494.1-234.2,1492.6-232.9,1490.7-232.9z M1490.7-234.1c1,0,2-0.7,2-2.2c0-1.5-1-2.2-2-2.2c-1,0-2,0.7-2,2.2
			C1488.8-234.8,1489.6-234.1,1490.7-234.1z"/>
		<path class="st5" d="M1500.2-236.7c0-1.2-0.7-1.8-1.7-1.8c-1,0-1.7,0.6-1.7,1.8v3.7h-1.4v-6.6h1.4v0.8c0.4-0.5,1.2-0.9,2-0.9
			c1.5,0,2.7,1,2.7,2.8v3.9h-1.4V-236.7z"/>
	</g>
</g>
</svg>
