<?xml version="1.0" encoding="utf-8"?>
<!-- Generator: Adobe Illustrator 25.1.0, SVG Export Plug-In . SVG Version: 6.00 Build 0)  -->
<svg version="1.1" id="레이어_1" xmlns="http://www.w3.org/2000/svg" xmlns:xlink="http://www.w3.org/1999/xlink" x="0px"
	 y="0px" viewBox="0 0 921 359" style="enable-background:new 0 0 921 359;" xml:space="preserve">
<style type="text/css">
	.st0{opacity:0.416;fill:none;stroke:#94989E;enable-background:new    ;}
	.st1{enable-background:new    ;}
	.st2{fill:#929397;}
	.st3{fill:#E2E2E2;}
	.st4{fill:#3AA25C;}
	.st5{fill:#42454A;}
	.st6{fill:#FFFFFF;}
	.st7{fill:#A3A3A3;}
</style>
<g id="그룹_5377" transform="translate(-739.5 -3033)">
	<path id="패스_3188" class="st0" d="M1660,3036v356"/>
	<path id="패스_3189" class="st0" d="M1200,3036v356"/>
	<path id="패스_3196" class="st0" d="M740,3036v356"/>
	<g class="st1">
		<path class="st2" d="M953,3078.2c-1.7,0.3-3.2,0.4-5.8,0.4h-1v-5.8h5.6v0.9h-4.4v3.9c2.5,0,3.9-0.1,5.5-0.4L953,3078.2z
			 M948.7,3083.1h7.2v0.9h-8.4v-4.1h1.1V3083.1z M957.2,3075.5v1h-1.9v4.4h-1.1v-9.1h1.1v3.7H957.2z"/>
		<path class="st2" d="M966.8,3079c-1.2,0.2-2.4,0.4-3.6,0.4v4.5h-1.1v-4.5c-1.2,0.1-2.4,0.1-3.5,0.1l-0.2-1c2.3,0,5.5,0,8.3-0.4
			L966.8,3079z M959.4,3075c0-1.5,1.3-2.6,3.2-2.6c1.9,0,3.2,1,3.2,2.6c0,1.5-1.3,2.6-3.2,2.6C960.7,3077.5,959.4,3076.5,959.4,3075
			z M960.5,3075c0,1,0.9,1.6,2.1,1.6c1.2,0,2.1-0.7,2.1-1.6s-0.9-1.6-2.1-1.6C961.4,3073.3,960.5,3074,960.5,3075z M968.8,3071.8
			v12.6h-1.1v-12.6H968.8z"/>
		<path class="st2" d="M974.8,3076.9c0-0.6,0.4-1,0.9-1c0.5,0,0.9,0.4,0.9,1c0,0.6-0.4,1-0.9,1
			C975.2,3077.8,974.8,3077.4,974.8,3076.9z M974.8,3082.5c0-0.6,0.4-1,0.9-1c0.5,0,0.9,0.4,0.9,1s-0.4,1-0.9,1
			C975.2,3083.5,974.8,3083.1,974.8,3082.5z"/>
		<path class="st2" d="M992.9,3078.9v0.9h-11.4v-0.9h5.1v-1.3H983v-5.3h8.5v0.9h-7.3v1.3h7v0.9h-7v1.3h7.4v0.9h-3.8v1.3H992.9z
			 M984.1,3083.1h7.6v0.9H983v-3.4h1.1V3083.1z"/>
	</g>
	<path id="패스_3193" class="st3" d="M842.5,3391.9h60v-208.6h-60V3391.9z"/>
	<path id="패스_3194" class="st3" d="M939.5,3391.9h60v-227.6h-60V3391.9z"/>
	<path id="패스_3190" class="st4" d="M1036.5,3392h60v-149.2h-60V3392z"/>
	<g class="st1">
		<path class="st5" d="M859.8,3376.1c0.8-0.7,1.5-1.3,2-1.8c0.5-0.5,0.9-0.9,1.2-1.5c0.3-0.5,0.5-1,0.5-1.5c0-0.5-0.1-0.9-0.4-1.2
			s-0.6-0.4-1.2-0.4c-0.5,0-0.9,0.2-1.2,0.5c-0.3,0.3-0.4,0.8-0.4,1.3h-1.4c0-1,0.3-1.7,0.9-2.3c0.6-0.5,1.3-0.8,2.2-0.8
			c0.9,0,1.7,0.3,2.2,0.8c0.5,0.5,0.8,1.2,0.8,2.1c0,0.6-0.2,1.2-0.5,1.8c-0.3,0.6-0.7,1.1-1.1,1.5c-0.4,0.5-1,1-1.7,1.6l-0.6,0.5
			h4.1v1.2h-6.3v-1.1L859.8,3376.1z"/>
		<path class="st5" d="M867.2,3369.7c0.5-0.8,1.4-1.3,2.6-1.3c1.2,0,2.1,0.4,2.6,1.3c0.5,0.8,0.8,2,0.8,3.5c0,1.5-0.3,2.7-0.8,3.6
			c-0.5,0.9-1.4,1.3-2.6,1.3c-1.2,0-2.1-0.4-2.6-1.3s-0.8-2-0.8-3.6C866.4,3371.7,866.7,3370.6,867.2,3369.7z M871.6,3371.5
			c-0.1-0.5-0.3-0.9-0.6-1.2s-0.7-0.5-1.2-0.5c-0.5,0-1,0.2-1.2,0.5s-0.5,0.7-0.6,1.2s-0.1,1.1-0.1,1.8c0,0.7,0,1.3,0.1,1.8
			c0.1,0.5,0.3,0.9,0.6,1.2s0.7,0.5,1.2,0.5c0.5,0,1-0.2,1.2-0.5s0.5-0.7,0.6-1.2c0.1-0.5,0.1-1.1,0.1-1.8
			C871.7,3372.5,871.7,3372,871.6,3371.5z"/>
		<path class="st5" d="M874.6,3370v-1.4h2.7v9.5h-1.5v-8.1H874.6z"/>
		<path class="st5" d="M879.6,3371c0-0.5,0.1-0.9,0.4-1.3s0.6-0.7,1.1-0.9c0.5-0.2,1-0.3,1.7-0.3c0.7,0,1.2,0.1,1.7,0.3
			c0.5,0.2,0.8,0.5,1.1,0.9s0.4,0.8,0.4,1.3c0,0.5-0.1,0.9-0.4,1.3c-0.2,0.4-0.6,0.7-1,0.9c0.5,0.2,0.9,0.5,1.2,0.9
			c0.3,0.4,0.4,0.9,0.4,1.4c0,0.6-0.1,1.1-0.4,1.5c-0.3,0.4-0.7,0.8-1.2,1c-0.5,0.2-1.1,0.4-1.7,0.4s-1.2-0.1-1.7-0.4
			c-0.5-0.2-0.9-0.6-1.2-1c-0.3-0.4-0.4-0.9-0.4-1.5c0-0.6,0.1-1,0.4-1.5c0.3-0.4,0.7-0.7,1.2-0.9C880,3372.7,879.6,3372,879.6,3371
			z M881.3,3374.2c-0.4,0.3-0.5,0.7-0.5,1.2c0,0.5,0.2,0.9,0.5,1.2c0.3,0.3,0.8,0.5,1.4,0.5c0.6,0,1.1-0.2,1.4-0.5
			c0.3-0.3,0.5-0.7,0.5-1.2c0-0.5-0.2-0.9-0.5-1.2c-0.4-0.3-0.8-0.4-1.4-0.4C882.1,3373.8,881.7,3373.9,881.3,3374.2z M883.9,3370.1
			c-0.3-0.3-0.7-0.4-1.2-0.4c-0.5,0-0.9,0.1-1.2,0.4c-0.3,0.3-0.5,0.6-0.5,1.1c0,0.4,0.2,0.8,0.5,1.1c0.3,0.3,0.7,0.4,1.2,0.4
			s0.9-0.1,1.2-0.4c0.3-0.3,0.5-0.6,0.5-1.1C884.4,3370.7,884.2,3370.3,883.9,3370.1z"/>
	</g>
	<g class="st1">
		<path class="st5" d="M956.8,3376.1c0.8-0.7,1.5-1.3,2-1.8c0.5-0.5,0.9-0.9,1.2-1.5c0.3-0.5,0.5-1,0.5-1.5c0-0.5-0.1-0.9-0.4-1.2
			s-0.6-0.4-1.2-0.4c-0.5,0-0.9,0.2-1.2,0.5c-0.3,0.3-0.4,0.8-0.4,1.3h-1.4c0-1,0.3-1.7,0.9-2.3c0.6-0.5,1.3-0.8,2.2-0.8
			c0.9,0,1.7,0.3,2.2,0.8c0.5,0.5,0.8,1.2,0.8,2.1c0,0.6-0.2,1.2-0.5,1.8c-0.3,0.6-0.7,1.1-1.1,1.5c-0.4,0.5-1,1-1.7,1.6l-0.6,0.5
			h4.1v1.2h-6.3v-1.1L956.8,3376.1z"/>
		<path class="st5" d="M964.2,3369.7c0.5-0.8,1.4-1.3,2.6-1.3c1.2,0,2.1,0.4,2.6,1.3c0.5,0.8,0.8,2,0.8,3.5c0,1.5-0.3,2.7-0.8,3.6
			c-0.5,0.9-1.4,1.3-2.6,1.3c-1.2,0-2.1-0.4-2.6-1.3s-0.8-2-0.8-3.6C963.5,3371.7,963.7,3370.6,964.2,3369.7z M968.6,3371.5
			c-0.1-0.5-0.3-0.9-0.6-1.2s-0.7-0.5-1.2-0.5c-0.5,0-1,0.2-1.2,0.5s-0.5,0.7-0.6,1.2s-0.1,1.1-0.1,1.8c0,0.7,0,1.3,0.1,1.8
			c0.1,0.5,0.3,0.9,0.6,1.2s0.7,0.5,1.2,0.5c0.5,0,1-0.2,1.2-0.5s0.5-0.7,0.6-1.2c0.1-0.5,0.1-1.1,0.1-1.8
			C968.8,3372.5,968.7,3372,968.6,3371.5z"/>
		<path class="st5" d="M971.6,3370v-1.4h2.7v9.5h-1.5v-8.1H971.6z"/>
		<path class="st5" d="M978.8,3376.5c0.3,0.2,0.7,0.3,1.2,0.3c0.6,0,1.1-0.2,1.4-0.7c0.3-0.5,0.4-1.3,0.4-2.5
			c-0.2,0.3-0.5,0.5-0.9,0.7s-0.8,0.2-1.2,0.2c-0.6,0-1.1-0.1-1.5-0.3c-0.5-0.2-0.8-0.6-1.1-1c-0.3-0.5-0.4-1-0.4-1.7
			c0-1,0.3-1.7,0.8-2.3c0.6-0.6,1.3-0.9,2.3-0.9c1.2,0,2,0.4,2.5,1.2c0.5,0.8,0.7,2,0.7,3.6c0,1.1-0.1,2-0.3,2.7s-0.5,1.2-1,1.6
			c-0.5,0.4-1.1,0.5-1.9,0.5c-0.9,0-1.6-0.2-2.1-0.7c-0.5-0.5-0.8-1.1-0.8-1.8h1.4C978.3,3376,978.5,3376.3,978.8,3376.5z
			 M981.1,3372.8c0.3-0.3,0.4-0.8,0.4-1.3c0-0.6-0.2-1.1-0.5-1.4c-0.3-0.3-0.7-0.5-1.3-0.5s-1,0.2-1.3,0.5c-0.3,0.3-0.5,0.8-0.5,1.3
			c0,0.5,0.2,1,0.5,1.3c0.3,0.3,0.8,0.5,1.4,0.5C980.4,3373.3,980.8,3373.2,981.1,3372.8z"/>
	</g>
	<g class="st1">
		<path class="st6" d="M1051.9,3376.1c0.8-0.7,1.5-1.3,2-1.7c0.5-0.5,0.9-0.9,1.2-1.5c0.3-0.5,0.5-1,0.5-1.5c0-0.4-0.1-0.8-0.3-1
			c-0.2-0.3-0.5-0.4-1-0.4c-0.4,0-0.8,0.1-1,0.4c-0.2,0.3-0.4,0.7-0.4,1.2h-1.8c0-1,0.3-1.8,0.9-2.4s1.3-0.8,2.2-0.8
			c1,0,1.7,0.3,2.3,0.8s0.8,1.2,0.8,2.1c0,0.7-0.2,1.3-0.5,1.9c-0.4,0.6-0.8,1.2-1.2,1.6c-0.5,0.5-1.1,1-1.8,1.6h3.8v1.5h-6.4v-1.4
			L1051.9,3376.1z"/>
		<path class="st6" d="M1059.6,3369.7c0.5-0.8,1.4-1.3,2.7-1.3c1.3,0,2.2,0.4,2.7,1.3s0.8,2,0.8,3.5c0,1.5-0.3,2.7-0.8,3.5
			c-0.5,0.9-1.4,1.3-2.7,1.3c-1.3,0-2.2-0.4-2.7-1.3c-0.5-0.9-0.8-2-0.8-3.5C1058.8,3371.7,1059.1,3370.6,1059.6,3369.7z
			 M1063.9,3371.6c-0.1-0.4-0.2-0.8-0.5-1.1s-0.6-0.4-1.1-0.4c-0.5,0-0.9,0.1-1.1,0.4s-0.4,0.6-0.5,1.1s-0.1,1-0.1,1.6
			c0,0.7,0,1.2,0.1,1.7s0.2,0.8,0.5,1.1c0.3,0.3,0.6,0.4,1.1,0.4c0.5,0,0.9-0.1,1.1-0.4c0.3-0.3,0.4-0.6,0.5-1.1
			c0.1-0.4,0.1-1,0.1-1.7C1064,3372.6,1064,3372.1,1063.9,3371.6z"/>
		<path class="st6" d="M1067.8,3376.1c0.8-0.7,1.5-1.3,2-1.7c0.5-0.5,0.9-0.9,1.2-1.5c0.3-0.5,0.5-1,0.5-1.5c0-0.4-0.1-0.8-0.3-1
			c-0.2-0.3-0.5-0.4-1-0.4c-0.4,0-0.8,0.1-1,0.4c-0.2,0.3-0.4,0.7-0.4,1.2h-1.8c0-1,0.3-1.8,0.9-2.4s1.3-0.8,2.2-0.8
			c1,0,1.7,0.3,2.3,0.8s0.8,1.2,0.8,2.1c0,0.7-0.2,1.3-0.5,1.9c-0.4,0.6-0.8,1.2-1.2,1.6c-0.5,0.5-1.1,1-1.8,1.6h3.8v1.5h-6.4v-1.4
			L1067.8,3376.1z"/>
		<path class="st6" d="M1075.5,3369.7c0.5-0.8,1.4-1.3,2.7-1.3c1.3,0,2.2,0.4,2.7,1.3s0.8,2,0.8,3.5c0,1.5-0.3,2.7-0.8,3.5
			c-0.5,0.9-1.4,1.3-2.7,1.3c-1.3,0-2.2-0.4-2.7-1.3c-0.5-0.9-0.8-2-0.8-3.5C1074.7,3371.7,1074.9,3370.6,1075.5,3369.7z
			 M1079.8,3371.6c-0.1-0.4-0.2-0.8-0.5-1.1s-0.6-0.4-1.1-0.4c-0.5,0-0.9,0.1-1.1,0.4s-0.4,0.6-0.5,1.1s-0.1,1-0.1,1.6
			c0,0.7,0,1.2,0.1,1.7s0.2,0.8,0.5,1.1c0.3,0.3,0.6,0.4,1.1,0.4c0.5,0,0.9-0.1,1.1-0.4c0.3-0.3,0.4-0.6,0.5-1.1
			c0.1-0.4,0.1-1,0.1-1.7C1079.9,3372.6,1079.8,3372.1,1079.8,3371.6z"/>
	</g>
	<g class="st1">
		<path class="st7" d="M831.9,3157v-1.9h3.7v13.1h-2.1V3157H831.9z"/>
		<path class="st7" d="M839.8,3155.8c0.8-0.6,1.8-0.9,3-0.9c0.8,0,1.6,0.2,2.2,0.5c0.6,0.3,1.1,0.7,1.4,1.2c0.3,0.5,0.5,1.1,0.5,1.7
			c0,0.7-0.2,1.4-0.6,1.9c-0.4,0.5-0.9,0.9-1.4,1.1v0.1c0.7,0.2,1.3,0.6,1.7,1.2c0.4,0.6,0.6,1.3,0.6,2.2c0,0.7-0.2,1.3-0.5,1.9
			s-0.8,1-1.4,1.3c-0.6,0.3-1.4,0.5-2.3,0.5c-1.3,0-2.4-0.3-3.2-1c-0.8-0.7-1.3-1.6-1.3-2.9h2c0,0.6,0.3,1.2,0.7,1.6
			c0.4,0.4,1,0.6,1.8,0.6c0.7,0,1.3-0.2,1.7-0.6c0.4-0.4,0.6-0.9,0.6-1.6c0-0.8-0.3-1.4-0.8-1.8c-0.5-0.4-1.4-0.5-2.5-0.5h-0.5v-1.7
			h0.5c1,0,1.7-0.2,2.2-0.5s0.8-0.8,0.8-1.5c0-0.6-0.2-1-0.6-1.4c-0.4-0.3-0.9-0.5-1.6-0.5c-0.7,0-1.2,0.2-1.6,0.5
			c-0.4,0.3-0.6,0.8-0.7,1.3h-2C838.5,3157.3,839,3156.4,839.8,3155.8z"/>
		<path class="st7" d="M851.7,3165.8l-2.2,5h-1.3l1.3-5H851.7z"/>
		<path class="st7" d="M853,3157v-1.9h3.7v13.1h-2.1V3157H853z"/>
		<path class="st7" d="M859.3,3157v-1.9h3.7v13.1H861V3157H859.3z"/>
		<path class="st7" d="M866.2,3158.5c0-0.6,0.2-1.2,0.5-1.8c0.3-0.5,0.8-1,1.5-1.3c0.6-0.3,1.4-0.5,2.4-0.5c0.9,0,1.7,0.2,2.4,0.5
			c0.7,0.3,1.1,0.7,1.5,1.3c0.3,0.5,0.5,1.1,0.5,1.8c0,0.7-0.2,1.3-0.5,1.8c-0.3,0.5-0.8,0.9-1.4,1.2c0.7,0.3,1.2,0.7,1.6,1.2
			c0.4,0.6,0.6,1.2,0.6,2c0,0.8-0.2,1.5-0.6,2.1s-0.9,1.1-1.7,1.4s-1.5,0.5-2.4,0.5c-0.9,0-1.7-0.2-2.4-0.5
			c-0.7-0.3-1.3-0.8-1.6-1.4s-0.6-1.3-0.6-2.1c0-0.8,0.2-1.5,0.6-2s0.9-1,1.6-1.2C866.8,3160.8,866.2,3159.8,866.2,3158.5z
			 M868.6,3162.9c-0.5,0.4-0.7,1-0.7,1.7c0,0.7,0.2,1.2,0.7,1.7c0.5,0.4,1.1,0.6,2,0.6c0.8,0,1.5-0.2,1.9-0.6c0.5-0.4,0.7-1,0.7-1.7
			c0-0.7-0.2-1.3-0.7-1.7c-0.5-0.4-1.1-0.6-1.9-0.6S869.1,3162.5,868.6,3162.9z M872.2,3157.2c-0.4-0.4-1-0.5-1.7-0.5
			c-0.7,0-1.3,0.2-1.7,0.5c-0.4,0.4-0.6,0.9-0.6,1.6c0,0.6,0.2,1.1,0.7,1.5c0.4,0.4,1,0.6,1.7,0.6c0.7,0,1.2-0.2,1.7-0.6
			c0.4-0.4,0.7-0.9,0.7-1.5C872.9,3158.1,872.7,3157.6,872.2,3157.2z"/>
		<path class="st7" d="M879.9,3165.8l-2.2,5h-1.3l1.3-5H879.9z"/>
		<path class="st7" d="M881.1,3165.6v-1.5l6-8.7h2.5v8.4h1.7v1.8h-1.7v2.7h-2v-2.7H881.1z M887.7,3157.4l-4.2,6.4h4.2V3157.4z"/>
		<path class="st7" d="M894.1,3156.7c0.7-1.2,1.9-1.8,3.6-1.8c1.7,0,2.9,0.6,3.6,1.8c0.7,1.2,1.1,2.8,1.1,4.9c0,2.1-0.4,3.7-1.1,4.9
			c-0.7,1.2-1.9,1.8-3.6,1.8c-1.7,0-2.9-0.6-3.6-1.8c-0.7-1.2-1.1-2.8-1.1-4.9C893,3159.5,893.4,3157.9,894.1,3156.7z M900.2,3159.1
			c-0.1-0.7-0.4-1.2-0.8-1.6c-0.4-0.4-1-0.6-1.7-0.6c-0.8,0-1.3,0.2-1.7,0.6c-0.4,0.4-0.6,1-0.8,1.6c-0.1,0.7-0.2,1.5-0.2,2.5
			c0,1,0.1,1.9,0.2,2.5c0.1,0.7,0.4,1.2,0.8,1.7c0.4,0.4,1,0.6,1.7,0.6c0.8,0,1.3-0.2,1.7-0.6c0.4-0.4,0.6-1,0.8-1.7
			c0.1-0.7,0.2-1.5,0.2-2.5C900.4,3160.6,900.3,3159.8,900.2,3159.1z"/>
		<path class="st7" d="M905.7,3165.5c1.2-1,2.1-1.8,2.7-2.5c0.7-0.6,1.2-1.3,1.7-2s0.7-1.4,0.7-2.1c0-0.7-0.2-1.3-0.5-1.7
			c-0.3-0.4-0.9-0.6-1.6-0.6c-0.7,0-1.3,0.2-1.6,0.7c-0.4,0.4-0.6,1.1-0.6,1.8h-2c0-1.4,0.4-2.4,1.2-3.1c0.8-0.7,1.8-1.1,3-1.1
			c1.3,0,2.3,0.4,3.1,1.1c0.7,0.7,1.1,1.7,1.1,2.9c0,0.9-0.2,1.7-0.7,2.5c-0.4,0.8-1,1.5-1.6,2.1s-1.4,1.4-2.3,2.2l-0.8,0.7h5.7v1.7
			h-8.7v-1.5L905.7,3165.5z"/>
	</g>
	<g class="st1">
		<path class="st7" d="M921,3138v-1.9h3.7v13.1h-2.1V3138H921z"/>
		<path class="st7" d="M928.7,3146.5c1.2-1,2.1-1.8,2.7-2.5c0.7-0.6,1.2-1.3,1.7-2s0.7-1.4,0.7-2.1c0-0.7-0.2-1.3-0.5-1.7
			c-0.3-0.4-0.9-0.6-1.6-0.6c-0.7,0-1.3,0.2-1.6,0.7c-0.4,0.4-0.6,1.1-0.6,1.8h-2c0-1.4,0.4-2.4,1.2-3.1c0.8-0.7,1.8-1.1,3-1.1
			c1.3,0,2.3,0.4,3.1,1.1c0.7,0.7,1.1,1.7,1.1,2.9c0,0.9-0.2,1.7-0.7,2.5c-0.4,0.8-1,1.5-1.6,2.1s-1.4,1.4-2.3,2.2l-0.8,0.7h5.7v1.7
			h-8.7v-1.5L928.7,3146.5z"/>
		<path class="st7" d="M940.5,3146.8l-2.2,5H937l1.3-5H940.5z"/>
		<path class="st7" d="M943.1,3137.7c0.7-1.2,1.9-1.8,3.6-1.8c1.7,0,2.9,0.6,3.6,1.8c0.7,1.2,1.1,2.8,1.1,4.9c0,2.1-0.4,3.7-1.1,4.9
			c-0.7,1.2-1.9,1.8-3.6,1.8c-1.7,0-2.9-0.6-3.6-1.8c-0.7-1.2-1.1-2.8-1.1-4.9C942,3140.5,942.4,3138.9,943.1,3137.7z M949.2,3140.1
			c-0.1-0.7-0.4-1.2-0.8-1.6c-0.4-0.4-1-0.6-1.7-0.6c-0.8,0-1.3,0.2-1.7,0.6c-0.4,0.4-0.6,1-0.8,1.6c-0.1,0.7-0.2,1.5-0.2,2.5
			c0,1,0.1,1.9,0.2,2.5c0.1,0.7,0.4,1.2,0.8,1.7c0.4,0.4,1,0.6,1.7,0.6c0.8,0,1.3-0.2,1.7-0.6c0.4-0.4,0.6-1,0.8-1.7
			c0.1-0.7,0.2-1.5,0.2-2.5C949.4,3141.6,949.3,3140.8,949.2,3140.1z"/>
		<path class="st7" d="M953.9,3139.5c0-0.6,0.2-1.2,0.5-1.8c0.3-0.5,0.8-1,1.5-1.3c0.6-0.3,1.4-0.5,2.4-0.5c0.9,0,1.7,0.2,2.4,0.5
			c0.7,0.3,1.1,0.7,1.5,1.3c0.3,0.5,0.5,1.1,0.5,1.8c0,0.7-0.2,1.3-0.5,1.8c-0.3,0.5-0.8,0.9-1.4,1.2c0.7,0.3,1.2,0.7,1.6,1.2
			c0.4,0.6,0.6,1.2,0.6,2c0,0.8-0.2,1.5-0.6,2.1s-0.9,1.1-1.7,1.4s-1.5,0.5-2.4,0.5c-0.9,0-1.7-0.2-2.4-0.5
			c-0.7-0.3-1.3-0.8-1.6-1.4s-0.6-1.3-0.6-2.1c0-0.8,0.2-1.5,0.6-2s0.9-1,1.6-1.2C954.5,3141.8,953.9,3140.8,953.9,3139.5z
			 M956.3,3143.9c-0.5,0.4-0.7,1-0.7,1.7c0,0.7,0.2,1.2,0.7,1.7c0.5,0.4,1.1,0.6,2,0.6c0.8,0,1.5-0.2,1.9-0.6c0.5-0.4,0.7-1,0.7-1.7
			c0-0.7-0.2-1.3-0.7-1.7c-0.5-0.4-1.1-0.6-1.9-0.6S956.8,3143.5,956.3,3143.9z M960,3138.2c-0.4-0.4-1-0.5-1.7-0.5
			c-0.7,0-1.3,0.2-1.7,0.5c-0.4,0.4-0.6,0.9-0.6,1.6c0,0.6,0.2,1.1,0.7,1.5c0.4,0.4,1,0.6,1.7,0.6c0.7,0,1.2-0.2,1.7-0.6
			c0.4-0.4,0.7-0.9,0.7-1.5C960.6,3139.1,960.4,3138.6,960,3138.2z"/>
		<path class="st7" d="M964.8,3146.6v-1.5l6-8.7h2.5v8.4h1.7v1.8h-1.7v2.7h-2v-2.7H964.8z M971.4,3138.4l-4.2,6.4h4.2V3138.4z"/>
		<path class="st7" d="M979.2,3146.8l-2.2,5h-1.3l1.3-5H979.2z"/>
		<path class="st7" d="M984.1,3147.1c0.4,0.3,0.9,0.5,1.6,0.5c0.9,0,1.5-0.3,1.9-1c0.4-0.7,0.6-1.8,0.6-3.4
			c-0.3,0.4-0.7,0.7-1.2,0.9c-0.5,0.2-1.1,0.3-1.7,0.3c-0.8,0-1.5-0.2-2.1-0.5c-0.6-0.3-1.1-0.8-1.5-1.4c-0.4-0.6-0.5-1.4-0.5-2.3
			c0-1.3,0.4-2.4,1.2-3.2s1.8-1.2,3.2-1.2c1.6,0,2.8,0.5,3.5,1.6c0.7,1.1,1,2.8,1,5c0,1.5-0.1,2.8-0.4,3.8c-0.3,1-0.7,1.7-1.3,2.2
			c-0.6,0.5-1.5,0.8-2.6,0.8c-1.3,0-2.3-0.3-3-1c-0.7-0.7-1.1-1.5-1.2-2.5h1.9C983.4,3146.3,983.7,3146.8,984.1,3147.1z M987.3,3142
			c0.4-0.5,0.6-1,0.6-1.8c0-0.8-0.2-1.5-0.7-1.9c-0.4-0.5-1-0.7-1.8-0.7s-1.4,0.2-1.8,0.7s-0.7,1.1-0.7,1.9c0,0.7,0.2,1.3,0.6,1.8
			c0.4,0.5,1.1,0.7,1.9,0.7C986.3,3142.7,986.9,3142.5,987.3,3142z"/>
		<path class="st7" d="M992.5,3139.5c0-0.6,0.2-1.2,0.5-1.8c0.3-0.5,0.8-1,1.5-1.3c0.6-0.3,1.4-0.5,2.4-0.5c0.9,0,1.7,0.2,2.4,0.5
			c0.7,0.3,1.1,0.7,1.5,1.3c0.3,0.5,0.5,1.1,0.5,1.8c0,0.7-0.2,1.3-0.5,1.8c-0.3,0.5-0.8,0.9-1.4,1.2c0.7,0.3,1.2,0.7,1.6,1.2
			c0.4,0.6,0.6,1.2,0.6,2c0,0.8-0.2,1.5-0.6,2.1s-0.9,1.1-1.7,1.4s-1.5,0.5-2.4,0.5c-0.9,0-1.7-0.2-2.4-0.5
			c-0.7-0.3-1.3-0.8-1.6-1.4s-0.6-1.3-0.6-2.1c0-0.8,0.2-1.5,0.6-2s0.9-1,1.6-1.2C993.2,3141.8,992.5,3140.8,992.5,3139.5z
			 M994.9,3143.9c-0.5,0.4-0.7,1-0.7,1.7c0,0.7,0.2,1.2,0.7,1.7c0.5,0.4,1.1,0.6,2,0.6c0.8,0,1.5-0.2,1.9-0.6c0.5-0.4,0.7-1,0.7-1.7
			c0-0.7-0.2-1.3-0.7-1.7c-0.5-0.4-1.1-0.6-1.9-0.6S995.4,3143.5,994.9,3143.9z M998.6,3138.2c-0.4-0.4-1-0.5-1.7-0.5
			c-0.7,0-1.3,0.2-1.7,0.5c-0.4,0.4-0.6,0.9-0.6,1.6c0,0.6,0.2,1.1,0.7,1.5c0.4,0.4,1,0.6,1.7,0.6c0.7,0,1.2-0.2,1.7-0.6
			c0.4-0.4,0.7-0.9,0.7-1.5C999.2,3139.1,999,3138.6,998.6,3138.2z"/>
		<path class="st7" d="M1012.1,3137.9h-6v3.6c0.3-0.3,0.6-0.6,1.1-0.8c0.5-0.2,1-0.3,1.6-0.3c1,0,1.8,0.2,2.5,0.6
			c0.6,0.4,1.1,1,1.4,1.6s0.4,1.4,0.4,2.1c0,0.9-0.2,1.7-0.5,2.4c-0.3,0.7-0.9,1.2-1.5,1.6c-0.7,0.4-1.5,0.6-2.5,0.6
			c-1.3,0-2.4-0.3-3.1-1c-0.8-0.6-1.3-1.5-1.4-2.6h2c0.1,0.6,0.4,1,0.9,1.3s1,0.5,1.7,0.5c0.9,0,1.5-0.3,1.9-0.8
			c0.4-0.5,0.6-1.2,0.6-2.1c0-0.9-0.2-1.5-0.6-2c-0.4-0.5-1.1-0.7-1.9-0.7c-0.6,0-1.1,0.1-1.5,0.4c-0.4,0.3-0.7,0.7-0.9,1.2h-1.9
			v-7.6h7.9V3137.9z"/>
	</g>
	<g class="st1">
		<path class="st4" d="M1026.7,3218.9c0-0.6,0.2-1.2,0.5-1.8c0.3-0.5,0.8-1,1.5-1.3c0.6-0.3,1.4-0.5,2.4-0.5c0.9,0,1.7,0.2,2.4,0.5
			c0.7,0.3,1.1,0.7,1.5,1.3c0.3,0.5,0.5,1.1,0.5,1.8c0,0.7-0.2,1.3-0.5,1.8c-0.3,0.5-0.8,0.9-1.4,1.2c0.7,0.3,1.2,0.7,1.6,1.2
			c0.4,0.6,0.6,1.2,0.6,2c0,0.8-0.2,1.5-0.6,2.1s-0.9,1.1-1.7,1.4s-1.5,0.5-2.4,0.5c-0.9,0-1.7-0.2-2.4-0.5
			c-0.7-0.3-1.3-0.8-1.6-1.4s-0.6-1.3-0.6-2.1c0-0.8,0.2-1.5,0.6-2s0.9-1,1.6-1.2C1027.4,3221.3,1026.7,3220.3,1026.7,3218.9z
			 M1029.1,3223.4c-0.5,0.4-0.7,1-0.7,1.7c0,0.7,0.2,1.2,0.7,1.7c0.5,0.4,1.1,0.6,2,0.6c0.8,0,1.5-0.2,1.9-0.6
			c0.5-0.4,0.7-1,0.7-1.7c0-0.7-0.2-1.3-0.7-1.7c-0.5-0.4-1.1-0.6-1.9-0.6S1029.6,3223,1029.1,3223.4z M1032.8,3217.6
			c-0.4-0.4-1-0.5-1.7-0.5c-0.7,0-1.3,0.2-1.7,0.5c-0.4,0.4-0.6,0.9-0.6,1.6c0,0.6,0.2,1.1,0.7,1.5c0.4,0.4,1,0.6,1.7,0.6
			c0.7,0,1.2-0.2,1.7-0.6c0.4-0.4,0.7-0.9,0.7-1.5C1033.4,3218.5,1033.2,3218,1032.8,3217.6z"/>
		<path class="st4" d="M1040.4,3226.3l-2.2,5h-1.3l1.3-5H1040.4z"/>
		<path class="st4" d="M1050.4,3217.4h-6v3.6c0.3-0.3,0.6-0.6,1.1-0.8c0.5-0.2,1-0.3,1.6-0.3c1,0,1.8,0.2,2.5,0.6
			c0.6,0.4,1.1,1,1.4,1.6s0.4,1.4,0.4,2.1c0,0.9-0.2,1.7-0.5,2.4c-0.3,0.7-0.9,1.2-1.5,1.6c-0.7,0.4-1.5,0.6-2.5,0.6
			c-1.3,0-2.4-0.3-3.1-1c-0.8-0.6-1.3-1.5-1.4-2.6h2c0.1,0.6,0.4,1,0.9,1.3s1,0.5,1.7,0.5c0.9,0,1.5-0.3,1.9-0.8
			c0.4-0.5,0.6-1.2,0.6-2.1c0-0.9-0.2-1.5-0.6-2c-0.4-0.5-1.1-0.7-1.9-0.7c-0.6,0-1.1,0.1-1.5,0.4c-0.4,0.3-0.7,0.7-0.9,1.2h-1.9
			v-7.6h7.9V3217.4z"/>
		<path class="st4" d="M1061.9,3217.4h-6v3.6c0.3-0.3,0.6-0.6,1.1-0.8c0.5-0.2,1-0.3,1.6-0.3c1,0,1.8,0.2,2.5,0.6
			c0.6,0.4,1.1,1,1.4,1.6s0.4,1.4,0.4,2.1c0,0.9-0.2,1.7-0.5,2.4c-0.3,0.7-0.9,1.2-1.5,1.6c-0.7,0.4-1.5,0.6-2.5,0.6
			c-1.3,0-2.4-0.3-3.1-1c-0.8-0.6-1.3-1.5-1.4-2.6h2c0.1,0.6,0.4,1,0.9,1.3s1,0.5,1.7,0.5c0.9,0,1.5-0.3,1.9-0.8
			c0.4-0.5,0.6-1.2,0.6-2.1c0-0.9-0.2-1.5-0.6-2c-0.4-0.5-1.1-0.7-1.9-0.7c-0.6,0-1.1,0.1-1.5,0.4c-0.4,0.3-0.7,0.7-0.9,1.2h-1.9
			v-7.6h7.9V3217.4z"/>
		<path class="st4" d="M1071.3,3217.4c-0.3-0.3-0.8-0.4-1.5-0.4c-0.9,0-1.7,0.4-2.1,1.1c-0.5,0.7-0.7,1.9-0.7,3.6
			c0.3-0.5,0.8-0.9,1.4-1.2s1.2-0.4,1.9-0.4c0.8,0,1.5,0.2,2.1,0.5c0.6,0.3,1.1,0.8,1.4,1.5c0.3,0.6,0.5,1.4,0.5,2.3
			c0,0.8-0.2,1.6-0.5,2.2s-0.8,1.2-1.5,1.6s-1.4,0.6-2.3,0.6c-1.2,0-2.2-0.3-2.9-0.8c-0.7-0.5-1.2-1.3-1.5-2.3s-0.4-2.2-0.4-3.7
			c0-4.4,1.5-6.6,4.6-6.6c1.2,0,2.1,0.3,2.8,1c0.7,0.6,1.1,1.4,1.2,2.4h-1.9C1071.9,3218.1,1071.6,3217.7,1071.3,3217.4z
			 M1067.9,3222.4c-0.5,0.4-0.8,1.1-0.8,1.9s0.2,1.5,0.7,2c0.5,0.5,1.1,0.7,2,0.7c0.8,0,1.4-0.2,1.8-0.7s0.7-1.1,0.7-1.9
			c0-0.8-0.2-1.5-0.6-2c-0.4-0.5-1.1-0.7-1.9-0.7C1069.1,3221.8,1068.5,3222,1067.9,3222.4z"/>
		<path class="st4" d="M1079,3226.3l-2.2,5h-1.3l1.3-5H1079z"/>
		<path class="st4" d="M1081.6,3217.1c0.7-1.2,1.9-1.8,3.6-1.8c1.7,0,2.9,0.6,3.6,1.8c0.7,1.2,1.1,2.8,1.1,4.9
			c0,2.1-0.4,3.7-1.1,4.9c-0.7,1.2-1.9,1.8-3.6,1.8c-1.7,0-2.9-0.6-3.6-1.8c-0.7-1.2-1.1-2.8-1.1-4.9
			C1080.5,3219.9,1080.9,3218.3,1081.6,3217.1z M1087.7,3219.5c-0.1-0.7-0.4-1.2-0.8-1.6c-0.4-0.4-1-0.6-1.7-0.6
			c-0.8,0-1.3,0.2-1.7,0.6c-0.4,0.4-0.6,1-0.8,1.6c-0.1,0.7-0.2,1.5-0.2,2.5c0,1,0.1,1.9,0.2,2.5c0.1,0.7,0.4,1.2,0.8,1.7
			c0.4,0.4,1,0.6,1.7,0.6c0.8,0,1.3-0.2,1.7-0.6c0.4-0.4,0.6-1,0.8-1.7c0.1-0.7,0.2-1.5,0.2-2.5
			C1087.9,3221,1087.8,3220.2,1087.7,3219.5z"/>
		<path class="st4" d="M1093.2,3225.9c1.2-1,2.1-1.8,2.7-2.5c0.7-0.6,1.2-1.3,1.7-2s0.7-1.4,0.7-2.1c0-0.7-0.2-1.3-0.5-1.7
			c-0.3-0.4-0.9-0.6-1.6-0.6c-0.7,0-1.3,0.2-1.6,0.7c-0.4,0.4-0.6,1.1-0.6,1.8h-2c0-1.4,0.4-2.4,1.2-3.1c0.8-0.7,1.8-1.1,3-1.1
			c1.3,0,2.3,0.4,3.1,1.1c0.7,0.7,1.1,1.7,1.1,2.9c0,0.9-0.2,1.7-0.7,2.5c-0.4,0.8-1,1.5-1.6,2.1s-1.4,1.4-2.3,2.2l-0.8,0.7h5.7v1.7
			h-8.7v-1.5L1093.2,3225.9z"/>
		<path class="st4" d="M1102.2,3217.5v-1.9h3.7v13.1h-2.1v-11.2H1102.2z"/>
	</g>
	<path id="패스_3191" class="st3" d="M1302.5,3391.9h60v-210.6h-60V3391.9z"/>
	<path id="패스_3192" class="st3" d="M1399.5,3391.9h60v-227.1h-60V3391.9z"/>
	<path id="패스_3195" class="st4" d="M1496.5,3392h60v-160h-60V3392z"/>
	<g class="st1">
		<path class="st5" d="M1319.8,3376.1c0.8-0.7,1.5-1.3,2-1.8c0.5-0.5,0.9-0.9,1.2-1.5c0.3-0.5,0.5-1,0.5-1.5c0-0.5-0.1-0.9-0.4-1.2
			s-0.6-0.4-1.2-0.4c-0.5,0-0.9,0.2-1.2,0.5c-0.3,0.3-0.4,0.8-0.4,1.3h-1.4c0-1,0.3-1.7,0.9-2.3s1.3-0.8,2.2-0.8
			c0.9,0,1.7,0.3,2.2,0.8c0.5,0.5,0.8,1.2,0.8,2.1c0,0.6-0.2,1.2-0.5,1.8c-0.3,0.6-0.7,1.1-1.1,1.5s-1,1-1.7,1.6l-0.6,0.5h4.1v1.2
			h-6.3v-1.1L1319.8,3376.1z"/>
		<path class="st5" d="M1327.2,3369.7c0.5-0.8,1.4-1.3,2.6-1.3c1.2,0,2.1,0.4,2.6,1.3c0.5,0.8,0.8,2,0.8,3.5c0,1.5-0.3,2.7-0.8,3.6
			s-1.4,1.3-2.6,1.3c-1.2,0-2.1-0.4-2.6-1.3s-0.8-2-0.8-3.6C1326.4,3371.7,1326.7,3370.6,1327.2,3369.7z M1331.6,3371.5
			c-0.1-0.5-0.3-0.9-0.6-1.2s-0.7-0.5-1.2-0.5c-0.5,0-1,0.2-1.2,0.5s-0.5,0.7-0.6,1.2s-0.1,1.1-0.1,1.8c0,0.7,0,1.3,0.1,1.8
			c0.1,0.5,0.3,0.9,0.6,1.2c0.3,0.3,0.7,0.5,1.2,0.5c0.5,0,1-0.2,1.2-0.5c0.3-0.3,0.5-0.7,0.6-1.2c0.1-0.5,0.1-1.1,0.1-1.8
			C1331.7,3372.5,1331.7,3372,1331.6,3371.5z"/>
		<path class="st5" d="M1334.6,3370v-1.4h2.7v9.5h-1.5v-8.1H1334.6z"/>
		<path class="st5" d="M1339.6,3371c0-0.5,0.1-0.9,0.4-1.3c0.2-0.4,0.6-0.7,1.1-0.9c0.5-0.2,1-0.3,1.7-0.3c0.7,0,1.2,0.1,1.7,0.3
			c0.5,0.2,0.8,0.5,1.1,0.9c0.2,0.4,0.4,0.8,0.4,1.3c0,0.5-0.1,0.9-0.4,1.3c-0.2,0.4-0.6,0.7-1,0.9c0.5,0.2,0.9,0.5,1.2,0.9
			c0.3,0.4,0.4,0.9,0.4,1.4c0,0.6-0.1,1.1-0.4,1.5c-0.3,0.4-0.7,0.8-1.2,1c-0.5,0.2-1.1,0.4-1.7,0.4c-0.6,0-1.2-0.1-1.7-0.4
			c-0.5-0.2-0.9-0.6-1.2-1c-0.3-0.4-0.4-0.9-0.4-1.5c0-0.6,0.1-1,0.4-1.5c0.3-0.4,0.7-0.7,1.2-0.9
			C1340,3372.7,1339.6,3372,1339.6,3371z M1341.3,3374.2c-0.4,0.3-0.5,0.7-0.5,1.2c0,0.5,0.2,0.9,0.5,1.2c0.3,0.3,0.8,0.5,1.4,0.5
			c0.6,0,1.1-0.2,1.4-0.5c0.3-0.3,0.5-0.7,0.5-1.2c0-0.5-0.2-0.9-0.5-1.2s-0.8-0.4-1.4-0.4
			C1342.1,3373.8,1341.7,3373.9,1341.3,3374.2z M1343.9,3370.1c-0.3-0.3-0.7-0.4-1.2-0.4c-0.5,0-0.9,0.1-1.2,0.4
			c-0.3,0.3-0.5,0.6-0.5,1.1c0,0.4,0.2,0.8,0.5,1.1c0.3,0.3,0.7,0.4,1.2,0.4s0.9-0.1,1.2-0.4c0.3-0.3,0.5-0.6,0.5-1.1
			C1344.4,3370.7,1344.2,3370.3,1343.9,3370.1z"/>
	</g>
	<g class="st1">
		<path class="st5" d="M1416.8,3376.1c0.8-0.7,1.5-1.3,2-1.8c0.5-0.5,0.9-0.9,1.2-1.5c0.3-0.5,0.5-1,0.5-1.5c0-0.5-0.1-0.9-0.4-1.2
			s-0.6-0.4-1.2-0.4c-0.5,0-0.9,0.2-1.2,0.5c-0.3,0.3-0.4,0.8-0.4,1.3h-1.4c0-1,0.3-1.7,0.9-2.3c0.6-0.5,1.3-0.8,2.2-0.8
			c0.9,0,1.7,0.3,2.2,0.8c0.5,0.5,0.8,1.2,0.8,2.1c0,0.6-0.2,1.2-0.5,1.8c-0.3,0.6-0.7,1.1-1.1,1.5c-0.4,0.5-1,1-1.7,1.6l-0.6,0.5
			h4.1v1.2h-6.3v-1.1L1416.8,3376.1z"/>
		<path class="st5" d="M1424.2,3369.7c0.5-0.8,1.4-1.3,2.6-1.3s2.1,0.4,2.6,1.3c0.5,0.8,0.8,2,0.8,3.5c0,1.5-0.3,2.7-0.8,3.6
			c-0.5,0.9-1.4,1.3-2.6,1.3s-2.1-0.4-2.6-1.3s-0.8-2-0.8-3.6C1423.5,3371.7,1423.7,3370.6,1424.2,3369.7z M1428.6,3371.5
			c-0.1-0.5-0.3-0.9-0.6-1.2s-0.7-0.5-1.2-0.5s-1,0.2-1.2,0.5s-0.5,0.7-0.6,1.2s-0.1,1.1-0.1,1.8c0,0.7,0,1.3,0.1,1.8
			s0.3,0.9,0.6,1.2c0.3,0.3,0.7,0.5,1.2,0.5s1-0.2,1.2-0.5c0.3-0.3,0.5-0.7,0.6-1.2s0.1-1.1,0.1-1.8
			C1428.8,3372.5,1428.7,3372,1428.6,3371.5z"/>
		<path class="st5" d="M1431.6,3370v-1.4h2.7v9.5h-1.5v-8.1H1431.6z"/>
		<path class="st5" d="M1438.8,3376.5c0.3,0.2,0.7,0.3,1.2,0.3c0.6,0,1.1-0.2,1.4-0.7s0.4-1.3,0.4-2.5c-0.2,0.3-0.5,0.5-0.9,0.7
			s-0.8,0.2-1.2,0.2c-0.6,0-1.1-0.1-1.5-0.3c-0.5-0.2-0.8-0.6-1.1-1s-0.4-1-0.4-1.7c0-1,0.3-1.7,0.8-2.3c0.6-0.6,1.3-0.9,2.3-0.9
			c1.2,0,2,0.4,2.5,1.2c0.5,0.8,0.7,2,0.7,3.6c0,1.1-0.1,2-0.3,2.7s-0.5,1.2-1,1.6c-0.5,0.4-1.1,0.5-1.9,0.5c-0.9,0-1.6-0.2-2.1-0.7
			c-0.5-0.5-0.8-1.1-0.8-1.8h1.4C1438.3,3376,1438.5,3376.3,1438.8,3376.5z M1441.1,3372.8c0.3-0.3,0.4-0.8,0.4-1.3
			c0-0.6-0.2-1.1-0.5-1.4c-0.3-0.3-0.7-0.5-1.3-0.5s-1,0.2-1.3,0.5c-0.3,0.3-0.5,0.8-0.5,1.3c0,0.5,0.2,1,0.5,1.3
			c0.3,0.3,0.8,0.5,1.4,0.5C1440.4,3373.3,1440.8,3373.2,1441.1,3372.8z"/>
	</g>
	<g class="st1">
		<path class="st6" d="M1511.9,3376.1c0.8-0.7,1.5-1.3,2-1.7c0.5-0.5,0.9-0.9,1.2-1.5c0.3-0.5,0.5-1,0.5-1.5c0-0.4-0.1-0.8-0.3-1
			c-0.2-0.3-0.5-0.4-1-0.4s-0.8,0.1-1,0.4c-0.2,0.3-0.4,0.7-0.4,1.2h-1.8c0-1,0.3-1.8,0.9-2.4s1.3-0.8,2.2-0.8c1,0,1.7,0.3,2.3,0.8
			c0.5,0.5,0.8,1.2,0.8,2.1c0,0.7-0.2,1.3-0.5,1.9c-0.4,0.6-0.8,1.2-1.2,1.6c-0.5,0.5-1.1,1-1.8,1.6h3.8v1.5h-6.4v-1.4
			L1511.9,3376.1z"/>
		<path class="st6" d="M1519.6,3369.7c0.5-0.8,1.4-1.3,2.7-1.3s2.2,0.4,2.7,1.3c0.5,0.8,0.8,2,0.8,3.5c0,1.5-0.3,2.7-0.8,3.5
			c-0.5,0.9-1.4,1.3-2.7,1.3s-2.2-0.4-2.7-1.3c-0.5-0.9-0.8-2-0.8-3.5C1518.8,3371.7,1519.1,3370.6,1519.6,3369.7z M1523.9,3371.6
			c-0.1-0.4-0.2-0.8-0.5-1.1s-0.6-0.4-1.1-0.4s-0.9,0.1-1.1,0.4s-0.4,0.6-0.5,1.1c-0.1,0.4-0.1,1-0.1,1.6c0,0.7,0,1.2,0.1,1.7
			s0.2,0.8,0.5,1.1c0.3,0.3,0.6,0.4,1.1,0.4s0.9-0.1,1.1-0.4c0.3-0.3,0.4-0.6,0.5-1.1c0.1-0.4,0.1-1,0.1-1.7
			C1524,3372.6,1524,3372.1,1523.9,3371.6z"/>
		<path class="st6" d="M1527.8,3376.1c0.8-0.7,1.5-1.3,2-1.7c0.5-0.5,0.9-0.9,1.2-1.5c0.3-0.5,0.5-1,0.5-1.5c0-0.4-0.1-0.8-0.3-1
			c-0.2-0.3-0.5-0.4-1-0.4c-0.4,0-0.8,0.1-1,0.4c-0.2,0.3-0.4,0.7-0.4,1.2h-1.8c0-1,0.3-1.8,0.9-2.4s1.3-0.8,2.2-0.8
			c1,0,1.7,0.3,2.3,0.8c0.5,0.5,0.8,1.2,0.8,2.1c0,0.7-0.2,1.3-0.5,1.9s-0.8,1.2-1.2,1.6s-1.1,1-1.8,1.6h3.8v1.5h-6.4v-1.4
			L1527.8,3376.1z"/>
		<path class="st6" d="M1535.5,3369.7c0.5-0.8,1.4-1.3,2.7-1.3c1.3,0,2.2,0.4,2.7,1.3c0.5,0.8,0.8,2,0.8,3.5c0,1.5-0.3,2.7-0.8,3.5
			c-0.5,0.9-1.4,1.3-2.7,1.3c-1.3,0-2.2-0.4-2.7-1.3c-0.5-0.9-0.8-2-0.8-3.5C1534.7,3371.7,1534.9,3370.6,1535.5,3369.7z
			 M1539.8,3371.6c-0.1-0.4-0.2-0.8-0.5-1.1s-0.6-0.4-1.1-0.4c-0.5,0-0.9,0.1-1.1,0.4s-0.4,0.6-0.5,1.1c-0.1,0.4-0.1,1-0.1,1.6
			c0,0.7,0,1.2,0.1,1.7s0.2,0.8,0.5,1.1c0.3,0.3,0.6,0.4,1.1,0.4c0.5,0,0.9-0.1,1.1-0.4c0.3-0.3,0.4-0.6,0.5-1.1s0.1-1,0.1-1.7
			C1539.9,3372.6,1539.8,3372.1,1539.8,3371.6z"/>
	</g>
	<g class="st1">
		<path class="st7" d="M1306.3,3156.5c-0.3-0.3-0.8-0.4-1.5-0.4c-0.9,0-1.7,0.4-2.1,1.1c-0.5,0.7-0.7,1.9-0.7,3.6
			c0.3-0.5,0.8-0.9,1.4-1.2c0.6-0.3,1.2-0.4,1.9-0.4c0.8,0,1.5,0.2,2.1,0.5c0.6,0.3,1.1,0.8,1.4,1.5c0.3,0.6,0.5,1.4,0.5,2.3
			c0,0.8-0.2,1.6-0.5,2.2s-0.8,1.2-1.5,1.6c-0.6,0.4-1.4,0.6-2.3,0.6c-1.2,0-2.2-0.3-2.9-0.8c-0.7-0.5-1.2-1.3-1.5-2.3
			c-0.3-1-0.4-2.2-0.4-3.7c0-4.4,1.5-6.6,4.6-6.6c1.2,0,2.1,0.3,2.8,1c0.7,0.6,1.1,1.4,1.2,2.4h-1.9
			C1306.9,3157.2,1306.6,3156.8,1306.3,3156.5z M1303,3161.5c-0.5,0.4-0.8,1.1-0.8,1.9s0.2,1.5,0.7,2c0.5,0.5,1.1,0.7,2,0.7
			c0.8,0,1.4-0.2,1.8-0.7c0.4-0.5,0.7-1.1,0.7-1.9c0-0.8-0.2-1.5-0.6-2c-0.4-0.5-1.1-0.7-1.9-0.7
			C1304.1,3160.8,1303.5,3161.1,1303,3161.5z"/>
		<path class="st7" d="M1312.5,3156.2c0.7-1.2,1.9-1.8,3.6-1.8c1.7,0,2.9,0.6,3.6,1.8c0.7,1.2,1.1,2.8,1.1,4.9
			c0,2.1-0.4,3.7-1.1,4.9c-0.7,1.2-1.9,1.8-3.6,1.8c-1.7,0-2.9-0.6-3.6-1.8c-0.7-1.2-1.1-2.8-1.1-4.9
			C1311.5,3159,1311.8,3157.4,1312.5,3156.2z M1318.6,3158.6c-0.1-0.7-0.4-1.2-0.8-1.6c-0.4-0.4-1-0.6-1.7-0.6
			c-0.8,0-1.3,0.2-1.7,0.6c-0.4,0.4-0.6,1-0.8,1.6c-0.1,0.7-0.2,1.5-0.2,2.5c0,1,0.1,1.9,0.2,2.5c0.1,0.7,0.4,1.2,0.8,1.7
			s1,0.6,1.7,0.6c0.8,0,1.3-0.2,1.7-0.6c0.4-0.4,0.6-1,0.8-1.7c0.1-0.7,0.2-1.5,0.2-2.5C1318.8,3160.1,1318.8,3159.3,1318.6,3158.6z
			"/>
		<path class="st7" d="M1322.8,3156.5v-1.9h3.7v13.1h-2.1v-11.2H1322.8z"/>
		<path class="st7" d="M1331.9,3165.3l-2.2,5h-1.3l1.3-5H1331.9z"/>
		<path class="st7" d="M1333.1,3165.1v-1.5l6-8.7h2.5v8.4h1.7v1.8h-1.7v2.7h-2v-2.7H1333.1z M1339.7,3156.9l-4.2,6.4h4.2V3156.9z"/>
		<path class="st7" d="M1346.3,3155.3c0.8-0.6,1.8-0.9,3-0.9c0.8,0,1.6,0.2,2.2,0.5s1.1,0.7,1.4,1.2c0.3,0.5,0.5,1.1,0.5,1.7
			c0,0.7-0.2,1.4-0.6,1.9c-0.4,0.5-0.9,0.9-1.4,1.1v0.1c0.7,0.2,1.3,0.6,1.7,1.2c0.4,0.6,0.6,1.3,0.6,2.2c0,0.7-0.2,1.3-0.5,1.9
			s-0.8,1-1.4,1.3c-0.6,0.3-1.4,0.5-2.3,0.5c-1.3,0-2.4-0.3-3.2-1s-1.3-1.6-1.3-2.9h2c0,0.6,0.3,1.2,0.7,1.6c0.4,0.4,1,0.6,1.8,0.6
			c0.7,0,1.3-0.2,1.7-0.6c0.4-0.4,0.6-0.9,0.6-1.6c0-0.8-0.3-1.4-0.8-1.8s-1.4-0.5-2.5-0.5h-0.5v-1.7h0.5c1,0,1.7-0.2,2.2-0.5
			c0.5-0.3,0.8-0.8,0.8-1.5c0-0.6-0.2-1-0.6-1.4c-0.4-0.3-0.9-0.5-1.6-0.5c-0.7,0-1.2,0.2-1.6,0.5c-0.4,0.3-0.6,0.8-0.7,1.3h-2
			C1345.1,3156.8,1345.5,3155.9,1346.3,3155.3z"/>
		<path class="st7" d="M1364.2,3156.4h-6v3.6c0.3-0.3,0.6-0.6,1.1-0.8c0.5-0.2,1-0.3,1.6-0.3c1,0,1.8,0.2,2.5,0.6
			c0.6,0.4,1.1,1,1.4,1.6c0.3,0.7,0.4,1.4,0.4,2.1c0,0.9-0.2,1.7-0.5,2.4c-0.3,0.7-0.9,1.2-1.5,1.6c-0.7,0.4-1.5,0.6-2.5,0.6
			c-1.3,0-2.4-0.3-3.1-1c-0.8-0.6-1.3-1.5-1.4-2.6h2c0.1,0.6,0.4,1,0.9,1.3s1,0.5,1.7,0.5c0.9,0,1.5-0.3,1.9-0.8
			c0.4-0.5,0.6-1.2,0.6-2.1c0-0.9-0.2-1.5-0.6-2c-0.4-0.5-1.1-0.7-1.9-0.7c-0.6,0-1.1,0.1-1.5,0.4c-0.4,0.3-0.7,0.7-0.9,1.2h-1.9
			v-7.6h7.9V3156.4z"/>
	</g>
	<g class="st1">
		<path class="st7" d="M1400.2,3140.5c-0.3-0.3-0.8-0.4-1.5-0.4c-0.9,0-1.7,0.4-2.1,1.1c-0.5,0.7-0.7,1.9-0.7,3.6
			c0.3-0.5,0.8-0.9,1.4-1.2c0.6-0.3,1.2-0.4,1.9-0.4c0.8,0,1.5,0.2,2.1,0.5c0.6,0.3,1.1,0.8,1.4,1.5c0.3,0.6,0.5,1.4,0.5,2.3
			c0,0.8-0.2,1.6-0.5,2.2s-0.8,1.2-1.5,1.6c-0.6,0.4-1.4,0.6-2.3,0.6c-1.2,0-2.2-0.3-2.9-0.8c-0.7-0.5-1.2-1.3-1.5-2.3
			c-0.3-1-0.4-2.2-0.4-3.7c0-4.4,1.5-6.6,4.6-6.6c1.2,0,2.1,0.3,2.8,1c0.7,0.6,1.1,1.4,1.2,2.4h-1.9
			C1400.7,3141.2,1400.5,3140.8,1400.2,3140.5z M1396.8,3145.5c-0.5,0.4-0.8,1.1-0.8,1.9s0.2,1.5,0.7,2c0.5,0.5,1.1,0.7,2,0.7
			c0.8,0,1.4-0.2,1.8-0.7c0.4-0.5,0.7-1.1,0.7-1.9c0-0.8-0.2-1.5-0.6-2c-0.4-0.5-1.1-0.7-1.9-0.7
			C1398,3144.8,1397.3,3145.1,1396.8,3145.5z"/>
		<path class="st7" d="M1405.1,3149.1v-1.5l6-8.7h2.5v8.4h1.7v1.8h-1.7v2.7h-2v-2.7H1405.1z M1411.7,3140.9l-4.2,6.4h4.2V3140.9z"/>
		<path class="st7" d="M1418.1,3140.2c0.7-1.2,1.9-1.8,3.6-1.8c1.7,0,2.9,0.6,3.6,1.8c0.7,1.2,1.1,2.8,1.1,4.9
			c0,2.1-0.4,3.7-1.1,4.9c-0.7,1.2-1.9,1.8-3.6,1.8c-1.7,0-2.9-0.6-3.6-1.8c-0.7-1.2-1.1-2.8-1.1-4.9
			C1417,3143,1417.4,3141.4,1418.1,3140.2z M1424.2,3142.6c-0.1-0.7-0.4-1.2-0.8-1.6c-0.4-0.4-1-0.6-1.7-0.6c-0.8,0-1.3,0.2-1.7,0.6
			c-0.4,0.4-0.6,1-0.8,1.6c-0.1,0.7-0.2,1.5-0.2,2.5c0,1,0.1,1.9,0.2,2.5c0.1,0.7,0.4,1.2,0.8,1.7s1,0.6,1.7,0.6
			c0.8,0,1.3-0.2,1.7-0.6c0.4-0.4,0.6-1,0.8-1.7c0.1-0.7,0.2-1.5,0.2-2.5C1424.4,3144.1,1424.3,3143.3,1424.2,3142.6z"/>
		<path class="st7" d="M1431.1,3149.3l-2.2,5h-1.3l1.3-5H1431.1z"/>
		<path class="st7" d="M1438.9,3140.5c-0.3-0.3-0.8-0.4-1.5-0.4c-0.9,0-1.7,0.4-2.1,1.1c-0.5,0.7-0.7,1.9-0.7,3.6
			c0.3-0.5,0.8-0.9,1.4-1.2c0.6-0.3,1.2-0.4,1.9-0.4c0.8,0,1.5,0.2,2.1,0.5c0.6,0.3,1.1,0.8,1.4,1.5c0.3,0.6,0.5,1.4,0.5,2.3
			c0,0.8-0.2,1.6-0.5,2.2s-0.8,1.2-1.5,1.6c-0.6,0.4-1.4,0.6-2.3,0.6c-1.2,0-2.2-0.3-2.9-0.8c-0.7-0.5-1.2-1.3-1.5-2.3
			c-0.3-1-0.4-2.2-0.4-3.7c0-4.4,1.5-6.6,4.6-6.6c1.2,0,2.1,0.3,2.8,1c0.7,0.6,1.1,1.4,1.2,2.4h-1.9
			C1439.5,3141.2,1439.3,3140.8,1438.9,3140.5z M1435.6,3145.5c-0.5,0.4-0.8,1.1-0.8,1.9s0.2,1.5,0.7,2c0.5,0.5,1.1,0.7,2,0.7
			c0.8,0,1.4-0.2,1.8-0.7c0.4-0.5,0.7-1.1,0.7-1.9c0-0.8-0.2-1.5-0.6-2c-0.4-0.5-1.1-0.7-1.9-0.7
			C1436.8,3144.8,1436.1,3145.1,1435.6,3145.5z"/>
		<path class="st7" d="M1445.2,3140.2c0.7-1.2,1.9-1.8,3.6-1.8c1.7,0,2.9,0.6,3.6,1.8c0.7,1.2,1.1,2.8,1.1,4.9
			c0,2.1-0.4,3.7-1.1,4.9c-0.7,1.2-1.9,1.8-3.6,1.8c-1.7,0-2.9-0.6-3.6-1.8c-0.7-1.2-1.1-2.8-1.1-4.9
			C1444.2,3143,1444.5,3141.4,1445.2,3140.2z M1451.3,3142.6c-0.1-0.7-0.4-1.2-0.8-1.6c-0.4-0.4-1-0.6-1.7-0.6
			c-0.8,0-1.3,0.2-1.7,0.6c-0.4,0.4-0.6,1-0.8,1.6c-0.1,0.7-0.2,1.5-0.2,2.5c0,1,0.1,1.9,0.2,2.5c0.1,0.7,0.4,1.2,0.8,1.7
			s1,0.6,1.7,0.6c0.8,0,1.3-0.2,1.7-0.6c0.4-0.4,0.6-1,0.8-1.7c0.1-0.7,0.2-1.5,0.2-2.5C1451.5,3144.1,1451.4,3143.3,1451.3,3142.6z
			"/>
		<path class="st7" d="M1455.4,3149.1v-1.5l6-8.7h2.5v8.4h1.7v1.8h-1.7v2.7h-2v-2.7H1455.4z M1462.1,3140.9l-4.2,6.4h4.2V3140.9z"/>
	</g>
	<g class="st1">
		<path class="st4" d="M1491.1,3215.2v-1.5l6-8.7h2.5v8.4h1.7v1.8h-1.7v2.7h-2v-2.7H1491.1z M1497.7,3207l-4.2,6.4h4.2V3207z"/>
		<path class="st4" d="M1502.7,3215.2v-1.5l6-8.7h2.5v8.4h1.7v1.8h-1.7v2.7h-2v-2.7H1502.7z M1509.4,3207l-4.2,6.4h4.2V3207z"/>
		<path class="st4" d="M1521,3206.6c-0.3-0.3-0.8-0.4-1.5-0.4c-0.9,0-1.7,0.4-2.1,1.1c-0.5,0.7-0.7,1.9-0.7,3.6
			c0.3-0.5,0.8-0.9,1.4-1.2c0.6-0.3,1.2-0.4,1.9-0.4c0.8,0,1.5,0.2,2.1,0.5c0.6,0.3,1.1,0.8,1.4,1.5c0.3,0.6,0.5,1.4,0.5,2.3
			c0,0.8-0.2,1.6-0.5,2.2s-0.8,1.2-1.5,1.6c-0.6,0.4-1.4,0.6-2.3,0.6c-1.2,0-2.2-0.3-2.9-0.8c-0.7-0.5-1.2-1.3-1.5-2.3
			c-0.3-1-0.4-2.2-0.4-3.7c0-4.4,1.5-6.6,4.6-6.6c1.2,0,2.1,0.3,2.8,1c0.7,0.6,1.1,1.4,1.2,2.4h-1.9
			C1521.6,3207.3,1521.3,3206.9,1521,3206.6z M1517.7,3211.6c-0.5,0.4-0.8,1.1-0.8,1.9s0.2,1.5,0.7,2c0.5,0.5,1.1,0.7,2,0.7
			c0.8,0,1.4-0.2,1.8-0.7c0.4-0.5,0.7-1.1,0.7-1.9c0-0.8-0.2-1.5-0.6-2c-0.4-0.5-1.1-0.7-1.9-0.7
			C1518.8,3211,1518.2,3211.2,1517.7,3211.6z"/>
		<path class="st4" d="M1528.7,3215.5l-2.2,5h-1.3l1.3-5H1528.7z"/>
		<path class="st4" d="M1533.6,3215.7c0.4,0.3,0.9,0.5,1.6,0.5c0.9,0,1.5-0.3,1.9-1c0.4-0.7,0.6-1.8,0.6-3.4
			c-0.3,0.4-0.7,0.7-1.2,0.9c-0.5,0.2-1.1,0.3-1.7,0.3c-0.8,0-1.5-0.2-2.1-0.5c-0.6-0.3-1.1-0.8-1.5-1.4s-0.5-1.4-0.5-2.3
			c0-1.3,0.4-2.4,1.2-3.2c0.8-0.8,1.8-1.2,3.2-1.2c1.6,0,2.8,0.5,3.5,1.6s1,2.8,1,5c0,1.5-0.1,2.8-0.4,3.8c-0.3,1-0.7,1.7-1.3,2.2
			c-0.6,0.5-1.5,0.8-2.6,0.8c-1.3,0-2.3-0.3-3-1c-0.7-0.7-1.1-1.5-1.2-2.5h1.9C1532.9,3215,1533.2,3215.4,1533.6,3215.7z
			 M1536.8,3210.6c0.4-0.5,0.6-1,0.6-1.8c0-0.8-0.2-1.5-0.7-1.9c-0.4-0.5-1-0.7-1.8-0.7s-1.4,0.2-1.8,0.7c-0.4,0.5-0.7,1.1-0.7,1.9
			c0,0.7,0.2,1.3,0.6,1.8c0.4,0.5,1.1,0.7,1.9,0.7C1535.8,3211.3,1536.4,3211.1,1536.8,3210.6z"/>
		<path class="st4" d="M1545,3215.7c0.4,0.3,0.9,0.5,1.6,0.5c0.9,0,1.5-0.3,1.9-1c0.4-0.7,0.6-1.8,0.6-3.4c-0.3,0.4-0.7,0.7-1.2,0.9
			c-0.5,0.2-1.1,0.3-1.7,0.3c-0.8,0-1.5-0.2-2.1-0.5c-0.6-0.3-1.1-0.8-1.5-1.4s-0.5-1.4-0.5-2.3c0-1.3,0.4-2.4,1.2-3.2
			c0.8-0.8,1.8-1.2,3.2-1.2c1.6,0,2.8,0.5,3.5,1.6s1,2.8,1,5c0,1.5-0.1,2.8-0.4,3.8c-0.3,1-0.7,1.7-1.3,2.2
			c-0.6,0.5-1.5,0.8-2.6,0.8c-1.3,0-2.3-0.3-3-1c-0.7-0.7-1.1-1.5-1.2-2.5h1.9C1544.4,3215,1544.6,3215.4,1545,3215.7z
			 M1548.2,3210.6c0.4-0.5,0.6-1,0.6-1.8c0-0.8-0.2-1.5-0.7-1.9c-0.4-0.5-1-0.7-1.8-0.7s-1.4,0.2-1.8,0.7c-0.4,0.5-0.7,1.1-0.7,1.9
			c0,0.7,0.2,1.3,0.6,1.8c0.4,0.5,1.1,0.7,1.9,0.7C1547.2,3211.3,1547.8,3211.1,1548.2,3210.6z"/>
		<path class="st4" d="M1554.4,3205.4c0.8-0.6,1.8-0.9,3-0.9c0.8,0,1.6,0.2,2.2,0.5s1.1,0.7,1.4,1.2c0.3,0.5,0.5,1.1,0.5,1.7
			c0,0.7-0.2,1.4-0.6,1.9c-0.4,0.5-0.9,0.9-1.4,1.1v0.1c0.7,0.2,1.3,0.6,1.7,1.2c0.4,0.6,0.6,1.3,0.6,2.2c0,0.7-0.2,1.3-0.5,1.9
			s-0.8,1-1.4,1.3c-0.6,0.3-1.4,0.5-2.3,0.5c-1.3,0-2.4-0.3-3.2-1s-1.3-1.6-1.3-2.9h2c0,0.6,0.3,1.2,0.7,1.6c0.4,0.4,1,0.6,1.8,0.6
			c0.7,0,1.3-0.2,1.7-0.6c0.4-0.4,0.6-0.9,0.6-1.6c0-0.8-0.3-1.4-0.8-1.8s-1.4-0.5-2.5-0.5h-0.5v-1.7h0.5c1,0,1.7-0.2,2.2-0.5
			c0.5-0.3,0.8-0.8,0.8-1.5c0-0.6-0.2-1-0.6-1.4c-0.4-0.3-0.9-0.5-1.6-0.5c-0.7,0-1.2,0.2-1.6,0.5c-0.4,0.3-0.6,0.8-0.7,1.3h-2
			C1553.1,3206.9,1553.6,3206.1,1554.4,3205.4z"/>
	</g>
	<g class="st1">
		<path class="st2" d="M1413.2,3078.2c-1.7,0.3-3.2,0.4-5.8,0.4h-1v-5.8h5.6v0.9h-4.4v3.9c2.5,0,3.9-0.1,5.5-0.4L1413.2,3078.2z
			 M1408.9,3083.1h7.2v0.9h-8.4v-4.1h1.1V3083.1z M1417.5,3075.5v1h-1.9v4.4h-1.1v-9.1h1.1v3.7H1417.5z"/>
		<path class="st2" d="M1427.1,3079c-1.2,0.2-2.4,0.4-3.6,0.4v4.5h-1.1v-4.5c-1.2,0.1-2.4,0.1-3.5,0.1l-0.2-1c2.3,0,5.5,0,8.3-0.4
			L1427.1,3079z M1419.6,3075c0-1.5,1.3-2.6,3.2-2.6c1.9,0,3.2,1,3.2,2.6c0,1.5-1.3,2.6-3.2,2.6
			C1421,3077.5,1419.6,3076.5,1419.6,3075z M1420.7,3075c0,1,0.9,1.6,2.1,1.6c1.2,0,2.1-0.7,2.1-1.6s-0.9-1.6-2.1-1.6
			C1421.6,3073.3,1420.7,3074,1420.7,3075z M1429,3071.8v12.6h-1.1v-12.6H1429z"/>
		<path class="st2" d="M1435,3076.9c0-0.6,0.4-1,0.9-1c0.5,0,0.9,0.4,0.9,1c0,0.6-0.4,1-0.9,1
			C1435.4,3077.8,1435,3077.4,1435,3076.9z M1435,3082.5c0-0.6,0.4-1,0.9-1c0.5,0,0.9,0.4,0.9,1s-0.4,1-0.9,1
			C1435.4,3083.5,1435,3083.1,1435,3082.5z"/>
		<path class="st2" d="M1453.1,3078.9v0.9h-11.4v-0.9h5.1v-1.3h-3.6v-5.3h8.5v0.9h-7.3v1.3h7v0.9h-7v1.3h7.4v0.9h-3.8v1.3H1453.1z
			 M1444.4,3083.1h7.6v0.9h-8.7v-3.4h1.1V3083.1z"/>
	</g>
	<g class="st1">
		<path class="st4" d="M933.3,3038.2c4,0,6.2,1.5,6.2,3.4c0,1.1-0.7,2-2,2.7v2.1h3.8v1.9h-16.1v-1.9h3.8v-2.2
			c-1.3-0.6-1.9-1.5-1.9-2.6C927.1,3039.6,929.3,3038.2,933.3,3038.2z M933.3,3055.6c-3.9,0-6.2-1.3-6.2-3.3c0-2,2.3-3.3,6.2-3.3
			c4,0,6.2,1.3,6.2,3.3C939.5,3054.3,937.2,3055.6,933.3,3055.6z M933.3,3043.2c2.4,0,3.8-0.7,3.8-1.6c0-1-1.4-1.7-3.8-1.7
			c-2.4,0-3.8,0.7-3.8,1.7C929.5,3042.5,930.9,3043.2,933.3,3043.2z M933.3,3050.8c-2.3,0-3.8,0.5-3.8,1.5c0,0.9,1.5,1.5,3.8,1.5
			c2.3,0,3.8-0.5,3.8-1.5C937.1,3051.4,935.6,3050.8,933.3,3050.8z M931.3,3044.9v1.5h3.8v-1.5c-0.6,0.1-1.2,0.1-1.9,0.1
			C932.6,3045,931.9,3045,931.3,3044.9z"/>
		<path class="st4" d="M949.4,3055.6v-6.3h-6.8v-1.8h16.1v1.8h-6.9v6.3H949.4z M957,3045.9c-2.6-0.4-5.5-2.1-6.4-4.1
			c-0.8,2-3.6,3.6-6.3,4.1l-1-1.9c3.1-0.3,6.1-2.3,6.1-5v-0.9h2.5v0.9c0,2.7,3.3,4.7,6.1,5L957,3045.9z"/>
	</g>
	<g class="st1">
		<path class="st4" d="M973.4,3051.3c-1.5-0.9-3.5-3-4.1-5c-0.6,2-2.4,4.3-4.2,5.3c-0.5-0.6-0.9-1.1-1.4-1.7
			c2.9-1.9,4.4-4.7,4.4-8.3v-2.4h2.4v2.3c0,3.5,1.6,6.3,4.3,8C974.3,3050.2,973.9,3050.7,973.4,3051.3z M978,3044.6h2.6v1.9H978v9
			h-2.3v-17.8h2.3V3044.6z"/>
		<path class="st4" d="M989.4,3038.2c4,0,6.2,1.5,6.2,3.4c0,1.1-0.7,2-2,2.7v2.1h3.8v1.9h-16.1v-1.9h3.8v-2.2
			c-1.3-0.6-1.9-1.5-1.9-2.6C983.2,3039.6,985.4,3038.2,989.4,3038.2z M989.4,3055.6c-3.9,0-6.2-1.3-6.2-3.3c0-2,2.3-3.3,6.2-3.3
			c4,0,6.2,1.3,6.2,3.3C995.6,3054.3,993.4,3055.6,989.4,3055.6z M989.4,3043.2c2.4,0,3.8-0.7,3.8-1.6c0-1-1.4-1.7-3.8-1.7
			c-2.4,0-3.8,0.7-3.8,1.7C985.6,3042.5,987,3043.2,989.4,3043.2z M989.4,3050.8c-2.3,0-3.8,0.5-3.8,1.5c0,0.9,1.5,1.5,3.8,1.5
			c2.3,0,3.8-0.5,3.8-1.5C993.2,3051.4,991.7,3050.8,989.4,3050.8z M987.5,3044.9v1.5h3.8v-1.5c-0.6,0.1-1.2,0.1-1.9,0.1
			C988.7,3045,988.1,3045,987.5,3044.9z"/>
		<path class="st4" d="M1001.7,3047.8h-2.4v-5.5h5.6v-1.7h-5.6v-1.8h8v5.3h-5.6v1.9c2.2,0,5.6-0.2,6.9-0.5l0.3,1.8
			C1007.4,3047.5,1004.1,3047.8,1001.7,3047.8z M1006.7,3055.6c-3.9,0-6.1-1.3-6.1-3.4c0-2.1,2.2-3.4,6.1-3.4c3.9,0,6.1,1.3,6.1,3.4
			C1012.8,3054.3,1010.6,3055.6,1006.7,3055.6z M1003,3052.2c0,0.9,1.4,1.6,3.7,1.6c2.4,0,3.7-0.6,3.7-1.6c0-0.9-1.3-1.6-3.7-1.6
			C1004.4,3050.6,1003,3051.2,1003,3052.2z M1014.9,3046h-2.3v2.5h-2.4v-10.7h2.4v2.5h2.3v1.9h-2.3v2h2.3V3046z"/>
	</g>
	<g class="st1">
		<path class="st4" d="M1384.6,3038.2c4,0,6.2,1.5,6.2,3.4c0,1.1-0.7,2-2,2.7v2.1h3.8v1.9h-16.1v-1.9h3.8v-2.2
			c-1.3-0.6-1.9-1.5-1.9-2.6C1378.4,3039.6,1380.6,3038.2,1384.6,3038.2z M1384.6,3055.6c-3.9,0-6.2-1.3-6.2-3.3
			c0-2,2.3-3.3,6.2-3.3c4,0,6.2,1.3,6.2,3.3C1390.8,3054.3,1388.6,3055.6,1384.6,3055.6z M1384.6,3043.2c2.4,0,3.8-0.7,3.8-1.6
			c0-1-1.4-1.7-3.8-1.7c-2.4,0-3.8,0.7-3.8,1.7C1380.8,3042.5,1382.2,3043.2,1384.6,3043.2z M1384.6,3050.8c-2.3,0-3.8,0.5-3.8,1.5
			c0,0.9,1.5,1.5,3.8,1.5c2.3,0,3.8-0.5,3.8-1.5C1388.4,3051.4,1386.9,3050.8,1384.6,3050.8z M1382.7,3044.9v1.5h3.8v-1.5
			c-0.6,0.1-1.2,0.1-1.9,0.1C1383.9,3045,1383.3,3045,1382.7,3044.9z"/>
		<path class="st4" d="M1400.7,3055.6v-6.3h-6.8v-1.8h16.1v1.8h-6.9v6.3H1400.7z M1408.3,3045.9c-2.6-0.4-5.5-2.1-6.4-4.1
			c-0.8,2-3.6,3.6-6.3,4.1l-1-1.9c3.1-0.3,6.1-2.3,6.1-5v-0.9h2.5v0.9c0,2.7,3.3,4.7,6.1,5L1408.3,3045.9z"/>
	</g>
	<g class="st1">
		<path class="st4" d="M1422.9,3051.5c-1.2-0.7-2.7-2.6-3.1-4.1c-0.4,1.6-1.9,3.7-3.4,4.5l-1.4-1.6c2.5-1.7,3.7-4.2,3.7-7.8v-0.8h-3
			v-1.9h8v1.9h-2.8v0.7c0,3.5,1.1,6,3.3,7.3L1422.9,3051.5z M1428.4,3055.6v-8.9h-1.4v8.1h-2.2v-16.7h2.2v6.7h1.4v-7h2.2v17.8
			H1428.4z"/>
		<path class="st4" d="M1442.1,3051.3c-1.5-0.9-3.5-3-4.1-5c-0.6,2-2.4,4.3-4.2,5.3c-0.5-0.6-0.9-1.1-1.4-1.7
			c2.9-1.9,4.4-4.7,4.4-8.3v-2.4h2.4v2.3c0,3.5,1.6,6.3,4.3,8C1443,3050.2,1442.5,3050.7,1442.1,3051.3z M1446.6,3044.6h2.6v1.9
			h-2.6v9h-2.3v-17.8h2.3V3044.6z"/>
		<path class="st4" d="M1458.1,3038.2c4,0,6.2,1.5,6.2,3.4c0,1.1-0.7,2-2,2.7v2.1h3.8v1.9H1450v-1.9h3.8v-2.2
			c-1.3-0.6-1.9-1.5-1.9-2.6C1451.8,3039.6,1454.1,3038.2,1458.1,3038.2z M1458.1,3055.6c-3.9,0-6.2-1.3-6.2-3.3
			c0-2,2.3-3.3,6.2-3.3c4,0,6.2,1.3,6.2,3.3C1464.3,3054.3,1462,3055.6,1458.1,3055.6z M1458.1,3043.2c2.4,0,3.8-0.7,3.8-1.6
			c0-1-1.4-1.7-3.8-1.7c-2.4,0-3.8,0.7-3.8,1.7C1454.3,3042.5,1455.7,3043.2,1458.1,3043.2z M1458.1,3050.8c-2.3,0-3.8,0.5-3.8,1.5
			c0,0.9,1.5,1.5,3.8,1.5c2.3,0,3.8-0.5,3.8-1.5C1461.9,3051.4,1460.4,3050.8,1458.1,3050.8z M1456.1,3044.9v1.5h3.8v-1.5
			c-0.6,0.1-1.2,0.1-1.9,0.1C1457.4,3045,1456.7,3045,1456.1,3044.9z"/>
		<path class="st4" d="M1470.3,3047.8h-2.4v-5.5h5.6v-1.7h-5.6v-1.8h8v5.3h-5.6v1.9c2.2,0,5.6-0.2,6.9-0.5l0.3,1.8
			C1476,3047.5,1472.7,3047.8,1470.3,3047.8z M1475.3,3055.6c-3.9,0-6.1-1.3-6.1-3.4c0-2.1,2.2-3.4,6.1-3.4c3.9,0,6.1,1.3,6.1,3.4
			C1481.5,3054.3,1479.2,3055.6,1475.3,3055.6z M1471.6,3052.2c0,0.9,1.4,1.6,3.7,1.6c2.4,0,3.7-0.6,3.7-1.6c0-0.9-1.3-1.6-3.7-1.6
			C1473,3050.6,1471.6,3051.2,1471.6,3052.2z M1483.5,3046h-2.3v2.5h-2.4v-10.7h2.4v2.5h2.3v1.9h-2.3v2h2.3V3046z"/>
	</g>
</g>
</svg>
