<?xml version="1.0" encoding="utf-8"?>
<!-- Generator: Adobe Illustrator 25.1.0, SVG Export Plug-In . SVG Version: 6.00 Build 0)  -->
<svg version="1.1" id="레이어_1" xmlns="http://www.w3.org/2000/svg" xmlns:xlink="http://www.w3.org/1999/xlink" x="0px"
	 y="0px" viewBox="0 0 920 266.8" style="enable-background:new 0 0 920 266.8;" xml:space="preserve">
<style type="text/css">
	.st0{enable-background:new    ;}
	.st1{fill:#3AA25C;}
	.st2{fill:#F3F3F3;}
	.st3{fill:#FFFFFF;}
	.st4{fill:#555555;}
</style>
<g id="그룹_5376" transform="translate(-740 -2145)">
	<g id="그룹_5195" transform="translate(40 449.201)">
		<g class="st0">
			<path class="st1" d="M721,1718.6h-4.6v7.2h-3.2v-7.2h-4.4v7.2h-3.2v-7.2H701v-2.6h20V1718.6z M703,1709.4c0-3,3.3-4.9,8-4.9
				c4.7,0,8,1.9,8,4.9c0,3-3.3,4.9-8,4.9C706.3,1714.4,703,1712.5,703,1709.4z M706.2,1709.4c0,1.6,1.8,2.4,4.8,2.4
				c2.9,0,4.7-0.8,4.7-2.4c0-1.6-1.8-2.4-4.7-2.4C708.1,1707,706.2,1707.9,706.2,1709.4z"/>
			<path class="st1" d="M730,1707.1h3.7v2.5h-10.6v-2.5h3.8v-2.7h3.1V1707.1z M733.3,1715.9c0,3.1-2,5.3-4.8,5.3
				c-2.8,0-4.8-2.2-4.8-5.3c0-3.1,2-5.3,4.8-5.3C731.2,1710.6,733.3,1712.8,733.3,1715.9z M730.5,1715.9c0-1.7-0.9-2.6-2.1-2.6
				s-2.1,1-2.1,2.6s0.9,2.6,2.1,2.6S730.5,1717.5,730.5,1715.9z M742.1,1703.7v22.1h-3v-10.5h-1.7v9.6h-3v-20.8h3v8.6h1.7v-9H742.1z
				"/>
			<path class="st1" d="M753.5,1719.5c1.7-0.1,3.4-0.2,5-0.5l0.2,2.3c-4.7,0.9-9.6,0.9-13.4,0.9l-0.4-2.6c1.6,0,3.4,0,5.4,0v-1.9
				c-2.3-0.5-3.8-2-3.8-4c0-2.5,2.2-4.2,5.4-4.2c3.2,0,5.4,1.7,5.4,4.2c0,2-1.5,3.5-3.8,4V1719.5z M758.4,1708.7h-13v-2.5h4.9v-2.3
				h3.2v2.3h4.9V1708.7z M751.9,1715.5c1.4,0,2.4-0.6,2.4-1.8c0-1.1-1-1.8-2.4-1.8c-1.4,0-2.4,0.6-2.4,1.8
				C749.5,1714.9,750.4,1715.5,751.9,1715.5z M765.5,1715.4h-2.8v10.5h-3.2v-22.1h3.2v9h2.8V1715.4z"/>
			<path class="st1" d="M780.3,1708.2h-13v-2.5h4.9v-2.1h3.2v2.1h4.9V1708.2z M773.8,1717c-3.2,0-5.4-1.7-5.4-4.1
				c0-2.4,2.3-4.1,5.4-4.1c3.2,0,5.4,1.7,5.4,4.1C779.2,1715.4,777,1717,773.8,1717z M769.9,1718.5h14.7v7.4h-3.2v-4.8h-11.6V1718.5
				z M773.8,1714.6c1.4,0,2.4-0.6,2.4-1.7c0-1.1-1-1.7-2.4-1.7c-1.4,0-2.4,0.6-2.4,1.7C771.4,1714.1,772.3,1714.6,773.8,1714.6z
				 M787.6,1712.1h-2.9v5.5h-3.2v-13.8h3.2v5.7h2.9V1712.1z"/>
			<path class="st1" d="M800.9,1715v1.4h6v5.7h-12.1v1.2h12.7v2.4h-15.8v-5.8h12.1v-1.2h-12.1v-2.3h6.1v-1.4h-8.4v-2.5h20v2.5H800.9
				z M806.8,1711.3h-15v-6.9h15V1711.3z M803.7,1706.8h-8.8v2.1h8.8V1706.8z"/>
			<path class="st1" d="M823.8,1714.9c-2.5-0.7-4.3-2.1-5.3-4c-1,2.1-2.8,3.7-5.5,4.5l-1.5-2.5c3.4-1,5-3.3,5.3-5.6h-4.4v-2.5h12
				v2.5H820c0.2,2.1,1.8,4.3,5.2,5.2L823.8,1714.9z M830.3,1723.3v2.4h-15.3v-6h11.6v-1.3h-11.6v-2.4h14.7v5.9h-11.6v1.4H830.3z
				 M829.8,1715.1h-3.2v-11.3h3.2V1715.1z"/>
			<path class="st1" d="M852.4,1716.4c-4.6,0.8-9.7,0.9-13.5,1l-0.3-2.5c1.2,0,2.6,0,4,0v-4.3h3.1v4.2c2.2-0.1,4.4-0.3,6.5-0.6
				L852.4,1716.4z M847.7,1712.9c0.4-2.1,0.5-3.7,0.5-5h-8.2v-2.5h11.4v1.4c0,1.5,0,3.7-0.5,6.5L847.7,1712.9z M845,1723h12.3v2.5
				h-15.4v-6.6h3.2V1723z M859.2,1710.5v2.6h-2.6v7.2h-3.2v-16.6h3.2v6.7H859.2z"/>
			<path class="st1" d="M865.5,1718.2c3.4,0,6.1-0.2,9.3-0.7l0.3,2.6c-3.6,0.6-6.8,0.8-10.8,0.8h-2v-9.1h7.2v-3.5h-7.2v-2.5h10.4
				v8.5h-7.2V1718.2z M879.4,1703.7v22.2h-3.2v-22.2H879.4z"/>
		</g>
		<path id="패스_1900" class="st2" d="M700,1962.6h290v-158.8H700V1962.6z"/>
		<rect id="사각형_318" x="700" y="1759.8" class="st1" width="290" height="50"/>
		<g class="st0">
			<path class="st3" d="M822,1782.4c0,2.2-1.8,3.8-4.3,3.8c-2.5,0-4.3-1.5-4.3-3.8c0-2.2,1.8-3.8,4.3-3.8
				C820.2,1778.7,822,1780.2,822,1782.4z M815.2,1782.4c0,1.4,1,2.3,2.5,2.3c1.5,0,2.5-0.9,2.5-2.3c0-1.3-1-2.2-2.5-2.2
				C816.2,1780.2,815.2,1781.1,815.2,1782.4z M817.7,1787.4v1.8h6.9v-1.8h1.8v6.6h-10.6v-6.6H817.7z M817.7,1792.5h6.9v-1.8h-6.9
				V1792.5z M826.5,1777.9v8.7h-1.9v-8.7H826.5z"/>
			<path class="st3" d="M844.2,1790.5v1.5h-14.7v-1.5h5.5v-5.7h1.9v5.7H844.2z M840.7,1781H831v-1.5h11.6v1.6c0,2,0,4.3-0.6,7.6
				l-1.9-0.2C840.7,1785.3,840.7,1783,840.7,1781L840.7,1781z"/>
			<path class="st3" d="M855.9,1787.1c-3.4,0.6-7.2,0.7-10,0.7l-0.2-1.5c1,0,2.1,0,3.2,0v-3.3h1.8v3.3c1.7-0.1,3.4-0.2,5-0.4
				L855.9,1787.1z M852.6,1784.7c0.3-1.7,0.4-3,0.4-4h-6.4v-1.5h8.2v0.9c0,1.1,0,2.7-0.4,4.8L852.6,1784.7z M850,1792.4h9.2v1.5
				h-11.1v-4.8h1.9V1792.4z M860.8,1783.1v1.5h-2.2v5.5h-1.9v-12.2h1.9v5.1H860.8z"/>
			<path class="st3" d="M865.1,1788.8c2.6,0,4.8-0.1,7.4-0.6l0.2,1.5c-2.8,0.5-5.2,0.6-8.1,0.6h-1.4v-6.4h5.7v-3h-5.7v-1.5h7.6v6
				h-5.7V1788.8z M875.7,1777.9v16.3h-1.9v-16.3H875.7z"/>
		</g>
		<g class="st0">
			<path class="st4" d="M735.6,1846.7c0-1.1,0.8-1.9,1.8-1.9c0.9,0,1.8,0.8,1.8,1.9c0,1.1-0.8,1.9-1.8,1.9
				C736.4,1848.6,735.6,1847.8,735.6,1846.7z"/>
			<path class="st4" d="M758.1,1847.4h-3v4.5H754v-4.5h-3.2v4.5h-1.2v-4.5h-2.9v-0.9h11.4V1847.4z M748,1842.5
				c0-1.7,1.8-2.7,4.4-2.7c2.6,0,4.4,1.1,4.4,2.7c0,1.7-1.8,2.7-4.4,2.7C749.8,1845.3,748,1844.2,748,1842.5z M749.2,1842.5
				c0,1.1,1.3,1.8,3.2,1.8c1.9,0,3.2-0.7,3.2-1.8c0-1.1-1.3-1.8-3.2-1.8C750.5,1840.7,749.2,1841.4,749.2,1842.5z"/>
			<path class="st4" d="M763.3,1841.4h2.5v0.9h-6.2v-0.9h2.5v-1.8h1.1V1841.4z M765.4,1846.1c0,1.7-1.1,2.9-2.7,2.9
				s-2.7-1.2-2.7-2.9c0-1.7,1.1-2.9,2.7-2.9S765.4,1844.4,765.4,1846.1z M764.4,1846.1c0-1.1-0.7-1.9-1.7-1.9c-1,0-1.7,0.8-1.7,1.9
				c0,1.1,0.7,1.9,1.7,1.9C763.7,1848,764.4,1847.2,764.4,1846.1z M770.3,1839.3v12.6h-1.1v-6.3h-1.6v5.7h-1.1v-11.7h1.1v5h1.6v-5.3
				H770.3z"/>
			<path class="st4" d="M776.9,1848.4c1.1-0.1,2.3-0.1,3.4-0.3l0.1,0.9c-2.7,0.5-5.6,0.5-7.8,0.5l-0.2-1c1,0,2.2,0,3.4,0v-1.4
				c-1.4-0.2-2.4-1.1-2.4-2.3c0-1.4,1.2-2.3,3-2.3s3,0.9,3,2.3c0,1.2-1,2.1-2.4,2.3V1848.4z M780.1,1841.7h-7.5v-0.9h3.2v-1.5h1.1
				v1.5h3.2V1841.7z M776.4,1846.2c1.1,0,1.9-0.6,1.9-1.4c0-0.9-0.8-1.4-1.9-1.4s-1.9,0.6-1.9,1.4
				C774.5,1845.6,775.2,1846.2,776.4,1846.2z M784.2,1845.6h-2v6.3h-1.1v-12.6h1.1v5.3h2V1845.6z"/>
			<path class="st4" d="M792.9,1841.5h-7.4v-0.9h3.1v-1.4h1.1v1.4h3.1V1841.5z M789.1,1846.7c-1.8,0-3-0.9-3-2.3
				c0-1.4,1.2-2.3,3-2.3c1.8,0,3,0.9,3,2.3C792.2,1845.8,790.9,1846.7,789.1,1846.7z M787,1847.8h8.2v4H794v-3.1h-7V1847.8z
				 M789.1,1845.8c1.1,0,1.9-0.5,1.9-1.4c0-0.8-0.8-1.4-1.9-1.4s-1.9,0.5-1.9,1.4C787.2,1845.3,788,1845.8,789.1,1845.8z
				 M797,1843.7h-1.9v3.4H794v-7.8h1.1v3.5h1.9V1843.7z"/>
			<path class="st4" d="M804.5,1845.5v1.2h3.7v2.8h-7.4v1.2h7.8v0.9h-8.9v-3h7.4v-1.1h-7.4v-0.9h3.7v-1.2h-5.1v-0.9h11.4v0.9H804.5z
				 M808.2,1843.5h-8.4v-3.8h8.4V1843.5z M807,1840.6h-6.2v2h6.2V1840.6z"/>
			<path class="st4" d="M818.3,1845.5c-1.5-0.4-2.6-1.4-3.2-2.7c-0.5,1.4-1.7,2.5-3.2,3l-0.5-0.9c1.9-0.6,3.2-2.1,3.2-3.9v-0.1h-2.9
				v-0.9h6.9v0.9h-2.8v0.1c0,1.6,1.3,3.1,3.2,3.6L818.3,1845.5z M821.9,1850.8v0.9h-8.5v-3.1h7v-1.3h-7v-0.9h8.1v3h-7v1.4H821.9z
				 M821.5,1845.8h-1.1v-6.5h1.1V1845.8z"/>
			<path class="st4" d="M831.4,1842.6c0,2.2,1.4,4.5,3.2,5.4l-0.7,0.9c-1.3-0.7-2.5-2.2-3-3.9c-0.5,1.8-1.7,3.4-3.1,4.2l-0.7-0.9
				c1.8-0.9,3.2-3.3,3.2-5.6v-2.3h1.1V1842.6z M838.9,1845.3h-2.1v6.5h-1.1v-12.6h1.1v5.1h2.1V1845.3z"/>
			<path class="st4" d="M846.9,1846.6c-1.4-0.5-2.5-1.6-3-2.8c-0.5,1.4-1.7,2.6-3.2,3.1l-0.6-0.9c1.9-0.7,3.2-2.3,3.2-4.1v-0.6h-2.8
				v-0.9h6.7v0.9h-2.8v0.6c0,1.6,1.2,3.2,3.1,3.9L846.9,1846.6z M850.8,1850.6v0.9h-8.4v-3.9h1.2v2.9H850.8z M849.2,1842.7v-3.5h1.2
				v9.2h-1.2v-4.8h-2.5v-0.9H849.2z"/>
			<path class="st4" d="M859.6,1846.3c-1.9,0-3.3-1.3-3.3-3.1c0-1.8,1.4-3.1,3.3-3.1s3.3,1.3,3.3,3.1
				C862.9,1845.1,861.5,1846.3,859.6,1846.3z M859.6,1845.3c1.2,0,2.2-0.9,2.2-2.1c0-1.2-0.9-2.1-2.2-2.1s-2.2,0.9-2.2,2.1
				C857.4,1844.5,858.4,1845.3,859.6,1845.3z M859.2,1850.6h7.2v0.9H858v-4h1.1V1850.6z M867.7,1843.1v1h-1.9v4.5h-1.1v-9.2h1.1v3.8
				H867.7z"/>
			<path class="st4" d="M875.8,1846.6c-1.4-0.5-2.5-1.6-3-2.8c-0.5,1.4-1.7,2.6-3.2,3.1l-0.6-0.9c1.9-0.7,3.2-2.3,3.2-4.1v-0.6h-2.8
				v-0.9h6.7v0.9h-2.8v0.6c0,1.6,1.2,3.2,3.1,3.9L875.8,1846.6z M879.7,1850.6v0.9h-8.4v-3.9h1.2v2.9H879.7z M878.1,1842.7v-3.5h1.2
				v9.2h-1.2v-4.8h-2.5v-0.9H878.1z"/>
			<path class="st4" d="M888.6,1846.1c-1.4-0.5-2.4-1.5-3-2.8c-0.5,1.5-1.7,2.6-3.2,3.2l-0.6-0.9c1.9-0.7,3.2-2.4,3.2-4.3v-1.3h1.1
				v1.2c0,1.8,1.2,3.3,3.1,4L888.6,1846.1z M892.2,1849.5c0,1.5-1.6,2.4-4.2,2.4s-4.2-0.9-4.2-2.4c0-1.5,1.6-2.4,4.2-2.4
				S892.2,1847.9,892.2,1849.5z M891.1,1849.5c0-0.9-1.1-1.5-3-1.5s-3,0.5-3,1.5c0,0.9,1.1,1.5,3,1.5S891.1,1850.4,891.1,1849.5z
				 M891,1842.9h-2.7v-0.9h2.7v-2.7h1.2v7.4H891V1842.9z"/>
			<path class="st4" d="M905.3,1845.9c-2.4,0.4-5.3,0.4-7.3,0.4l-0.1-1c0.5,0,1,0,1.6,0v-4.2h-1.2v-0.9h6.6v0.9h-1.2v4
				c0.6,0,1.1-0.1,1.6-0.2L905.3,1845.9z M908.2,1849.5c0,1.5-1.6,2.3-4.2,2.3c-2.6,0-4.2-0.8-4.2-2.3c0-1.4,1.6-2.3,4.2-2.3
				C906.6,1847.3,908.2,1848.1,908.2,1849.5z M900.6,1845.3c0.6,0,1.3,0,1.9-0.1v-4.1h-1.9V1845.3z M907.1,1849.5
				c0-0.9-1.1-1.4-3-1.4s-3,0.5-3,1.4c0,0.9,1.1,1.4,3,1.4S907.1,1850.4,907.1,1849.5z M907,1844.7H905v-0.9h2.1v-1.3H905v-0.9h2.1
				v-2.2h1.2v7.7H907V1844.7z"/>
			<path class="st4" d="M917.1,1840.6c0,3.6-1.6,6.8-5.7,8.8l-0.6-0.9c3.2-1.6,4.9-4,5.2-7h-4.6v-1H917.1z M922.4,1845.3h-2v6.5
				h-1.1v-12.6h1.1v5.1h2V1845.3z"/>
		</g>
		<g class="st0">
			<path class="st4" d="M735.6,1870.7c0-1.1,0.8-1.9,1.8-1.9c0.9,0,1.8,0.8,1.8,1.9c0,1.1-0.8,1.9-1.8,1.9
				C736.4,1872.6,735.6,1871.8,735.6,1870.7z"/>
			<path class="st4" d="M753.6,1870.3c-1.4-0.5-2.5-1.5-3-2.8c-0.5,1.4-1.7,2.6-3.2,3.1l-0.6-0.9c1.9-0.7,3.2-2.3,3.2-4.1v-0.5h-2.8
				v-0.9h6.7v0.9h-2.8v0.5c0,1.6,1.2,3.2,3.1,3.8L753.6,1870.3z M748.7,1871.5h8.4v4.4h-1.1v-3.4h-7.2V1871.5z M757.1,1863.3v7.5
				h-1.1v-3.3h-2.5v-0.9h2.5v-3.3H757.1z"/>
			<path class="st4" d="M766.5,1870.3c-1.4-0.5-2.5-1.5-3-2.8c-0.5,1.5-1.7,2.6-3.2,3.2l-0.6-0.9c1.9-0.7,3.2-2.4,3.2-4.2v-0.4H760
				v-0.9h6.7v0.9H764v0.4c0,1.6,1.2,3.2,3.1,3.8L766.5,1870.3z M770,1873.5c0,1.5-1.6,2.3-4.2,2.3s-4.2-0.9-4.2-2.3s1.6-2.3,4.2-2.3
				S770,1872,770,1873.5z M768.9,1873.5c0-0.9-1.1-1.5-3-1.5s-3,0.5-3,1.5s1.1,1.4,3,1.4S768.9,1874.4,768.9,1873.5z M768.8,1866.5
				v-3.2h1.2v7.5h-1.2v-3.3h-2.5v-0.9H768.8z"/>
			<path class="st4" d="M787,1873.3v0.9h-11.4v-0.9h5.1v-2.7H777v-6.4h1.1v2.2h6.4v-2.2h1.1v6.4h-3.8v2.7H787z M778.1,1869.7h6.4
				v-2.3h-6.4V1869.7z"/>
			<path class="st4" d="M796.4,1870.2c-2.6,0.4-5.6,0.5-7.8,0.5l-0.1-0.9c0.8,0,1.7,0,2.7,0v-2.7h1.1v2.7c1.4-0.1,2.8-0.2,4.1-0.3
				L796.4,1870.2z M794,1868.5c0.3-1.4,0.3-2.5,0.3-3.3h-5.1v-0.9h6.2v0.7c0,0.8,0,2.1-0.3,3.7L794,1868.5z M791.5,1874.6h7.2v0.9
				h-8.3v-3.7h1.1V1874.6z M800.1,1867.4v1h-1.8v4.4h-1.1v-9.5h1.1v4.1H800.1z"/>
			<path class="st4" d="M808.2,1870.2c-1.4-0.5-2.5-1.5-3-2.7c-0.5,1.4-1.7,2.5-3.2,3.1l-0.6-0.9c1.9-0.7,3.2-2.3,3.2-4.1v-0.5h-2.8
				v-0.9h6.7v0.9h-2.8v0.5c0,1.6,1.2,3.1,3,3.7L808.2,1870.2z M811.3,1873.5c0,1.5-1.6,2.3-4.1,2.3c-2.6,0-4.1-0.9-4.1-2.3
				c0-1.5,1.6-2.3,4.1-2.3C809.7,1871.2,811.3,1872,811.3,1873.5z M810.2,1873.5c0-0.9-1.1-1.4-3-1.4c-1.9,0-3,0.5-3,1.4
				c0,0.9,1.1,1.4,3,1.4C809,1874.9,810.2,1874.4,810.2,1873.5z M813,1866.5v1h-1.9v3.4H810v-7.6h1.1v3.2H813z"/>
			<path class="st4" d="M825.7,1873.3v0.9h-11.4v-0.9h5.1v-3.1h1.1v3.1H825.7z M824.6,1870.4c-1.9-0.4-3.9-1.7-4.7-3.5
				c-0.8,1.8-2.8,3.1-4.7,3.5l-0.5-1c2.2-0.4,4.6-2.2,4.6-4.3v-1h1.2v1c0,2.1,2.4,3.9,4.6,4.3L824.6,1870.4z"/>
			<path class="st4" d="M837,1870.6c-1.4-0.5-2.5-1.6-3-3c-0.5,1.5-1.7,2.7-3.1,3.3l-0.6-0.9c1.9-0.7,3.1-2.5,3.1-4.4v-1.6h1.1v1.6
				c0,1.8,1.2,3.4,3,4.1L837,1870.6z M841,1874.6v0.9h-8.4v-3.9h1.1v3H841z M839.5,1867.2h-2.7v-1h2.7v-2.9h1.2v9.4h-1.2V1867.2z"/>
			<path class="st4" d="M850,1870.3c-1.4-0.5-2.5-1.5-3-2.8c-0.5,1.5-1.7,2.6-3.2,3.2l-0.6-0.9c1.9-0.7,3.2-2.4,3.2-4.2v-0.4h-2.8
				v-0.9h6.7v0.9h-2.8v0.4c0,1.6,1.2,3.2,3.1,3.8L850,1870.3z M853.6,1873.5c0,1.5-1.6,2.3-4.2,2.3s-4.2-0.9-4.2-2.3
				s1.6-2.3,4.2-2.3S853.6,1872,853.6,1873.5z M852.4,1873.5c0-0.9-1.1-1.5-3-1.5s-3,0.5-3,1.5s1.1,1.4,3,1.4
				S852.4,1874.4,852.4,1873.5z M852.4,1866.5v-3.2h1.2v7.5h-1.2v-3.3h-2.5v-0.9H852.4z"/>
			<path class="st4" d="M865.7,1869.2h-5.9v-5.1h5.9V1869.2z M866.1,1872.2c0,1.2,2,2.4,4.1,2.7l-0.4,0.9c-1.9-0.3-3.6-1.1-4.3-2.3
				c-0.8,1.2-2.5,2-4.4,2.3l-0.4-0.9c2.1-0.3,4.1-1.4,4.2-2.7h-3.7v-0.9h3.7v-1.2h1.2v1.2h3.7v0.9H866.1z M864.6,1865H861v3.3h3.6
				V1865z M869.5,1870.5h-1.1v-7.2h1.1V1870.5z"/>
			<path class="st4" d="M882.1,1866.8c0,1.7-1.4,2.9-3.3,2.9c-1.9,0-3.3-1.2-3.3-2.9c0-1.7,1.4-2.9,3.3-2.9
				C880.7,1863.9,882.1,1865.1,882.1,1866.8z M876.6,1866.8c0,1.1,0.9,1.9,2.1,1.9c1.3,0,2.2-0.8,2.2-1.9c0-1.1-0.9-1.9-2.2-1.9
				C877.5,1864.8,876.6,1865.6,876.6,1866.8z M878.6,1870.6v1.5h5.8v-1.5h1.1v5h-8.1v-5H878.6z M878.6,1874.7h5.8v-1.7h-5.8V1874.7z
				 M885.5,1863.3v6.7h-1.1v-6.7H885.5z"/>
			<path class="st4" d="M899.5,1873.1v0.9h-11.4v-0.9h4.4v-4.5h1.1v4.5H899.5z M897,1865.5h-7.7v-0.9h8.8v1.2c0,1.6,0,3.3-0.5,5.8
				l-1.1-0.1c0.5-2.4,0.5-4.2,0.5-5.7V1865.5z"/>
		</g>
		<g class="st0">
			<path class="st4" d="M735.6,1894.7c0-1.1,0.8-1.9,1.8-1.9c0.9,0,1.8,0.8,1.8,1.9c0,1.1-0.8,1.9-1.8,1.9
				C736.4,1896.6,735.6,1895.8,735.6,1894.7z"/>
			<path class="st4" d="M758.1,1895.4h-3v4.5H754v-4.5h-3.2v4.5h-1.2v-4.5h-2.9v-0.9h11.4V1895.4z M748,1890.5
				c0-1.7,1.8-2.7,4.4-2.7c2.6,0,4.4,1.1,4.4,2.7c0,1.7-1.8,2.7-4.4,2.7C749.8,1893.3,748,1892.2,748,1890.5z M749.2,1890.5
				c0,1.1,1.3,1.8,3.2,1.8c1.9,0,3.2-0.7,3.2-1.8c0-1.1-1.3-1.8-3.2-1.8C750.5,1888.7,749.2,1889.4,749.2,1890.5z"/>
			<path class="st4" d="M763.3,1889.4h2.5v0.9h-6.2v-0.9h2.5v-1.8h1.1V1889.4z M765.4,1894.1c0,1.7-1.1,2.9-2.7,2.9
				s-2.7-1.2-2.7-2.9c0-1.7,1.1-2.9,2.7-2.9S765.4,1892.4,765.4,1894.1z M764.4,1894.1c0-1.1-0.7-1.9-1.7-1.9c-1,0-1.7,0.8-1.7,1.9
				c0,1.1,0.7,1.9,1.7,1.9C763.7,1896,764.4,1895.2,764.4,1894.1z M770.3,1887.3v12.6h-1.1v-6.3h-1.6v5.7h-1.1v-11.7h1.1v5h1.6v-5.3
				H770.3z"/>
			<path class="st4" d="M776.9,1896.4c1.1-0.1,2.3-0.1,3.4-0.3l0.1,0.9c-2.7,0.5-5.6,0.5-7.8,0.5l-0.2-1c1,0,2.2,0,3.4,0v-1.4
				c-1.4-0.2-2.4-1.1-2.4-2.3c0-1.4,1.2-2.3,3-2.3s3,0.9,3,2.3c0,1.2-1,2.1-2.4,2.3V1896.4z M780.1,1889.7h-7.5v-0.9h3.2v-1.5h1.1
				v1.5h3.2V1889.7z M776.4,1894.2c1.1,0,1.9-0.6,1.9-1.4c0-0.9-0.8-1.4-1.9-1.4s-1.9,0.6-1.9,1.4
				C774.5,1893.6,775.2,1894.2,776.4,1894.2z M784.2,1893.6h-2v6.3h-1.1v-12.6h1.1v5.3h2V1893.6z"/>
			<path class="st4" d="M792.9,1889.5h-7.4v-0.9h3.1v-1.4h1.1v1.4h3.1V1889.5z M789.1,1894.7c-1.8,0-3-0.9-3-2.3
				c0-1.4,1.2-2.3,3-2.3c1.8,0,3,0.9,3,2.3C792.2,1893.8,790.9,1894.7,789.1,1894.7z M787,1895.8h8.2v4H794v-3.1h-7V1895.8z
				 M789.1,1893.8c1.1,0,1.9-0.5,1.9-1.4c0-0.8-0.8-1.4-1.9-1.4s-1.9,0.5-1.9,1.4C787.2,1893.3,788,1893.8,789.1,1893.8z
				 M797,1891.7h-1.9v3.4H794v-7.8h1.1v3.5h1.9V1891.7z"/>
			<path class="st4" d="M804.5,1893.5v1.2h3.7v2.8h-7.4v1.2h7.8v0.9h-8.9v-3h7.4v-1.1h-7.4v-0.9h3.7v-1.2h-5.1v-0.9h11.4v0.9H804.5z
				 M808.2,1891.5h-8.4v-3.8h8.4V1891.5z M807,1888.6h-6.2v2h6.2V1888.6z"/>
			<path class="st4" d="M818.3,1893.5c-1.5-0.4-2.6-1.4-3.2-2.7c-0.5,1.4-1.7,2.5-3.2,3l-0.5-0.9c1.9-0.6,3.2-2.1,3.2-3.9v-0.1h-2.9
				v-0.9h6.9v0.9h-2.8v0.1c0,1.6,1.3,3.1,3.2,3.6L818.3,1893.5z M821.9,1898.8v0.9h-8.5v-3.1h7v-1.3h-7v-0.9h8.1v3h-7v1.4H821.9z
				 M821.5,1893.8h-1.1v-6.5h1.1V1893.8z"/>
			<path class="st4" d="M835.5,1894.8c-1.2,0.2-2.4,0.3-3.6,0.4v4.3h-1.1v-4.2c-1.2,0-2.4,0.1-3.5,0.1l-0.2-1c2.4,0,5.5,0,8.3-0.4
				L835.5,1894.8z M827.7,1892.6c1.8-0.4,3-1.6,3-2.9v0H828v-0.9h2.8v-1.4h1.1v1.4h2.8v0.9h-2.8v0c0,1.3,1.2,2.3,3,2.7l-0.5,0.9
				c-1.4-0.4-2.5-1.1-3.1-2.1c-0.5,1.1-1.7,1.9-3.1,2.3L827.7,1892.6z M837.5,1887.3v12.6h-1.1v-12.6H837.5z"/>
			<path class="st4" d="M851.5,1892.4v0.9H840v-0.9h8.5c0.4-1.5,0.4-2.7,0.4-3.6h-7.4v-0.9h8.5v0.9c0,1,0,2.1-0.3,3.6H851.5z
				 M848.8,1894.5h1.1v5.2h-8.4v-5.2h1.1v1.7h6.2V1894.5z M848.8,1897h-6.2v1.7h6.2V1897z"/>
			<path class="st4" d="M857.2,1891.1c0,2,1.4,4.2,3.2,5.1l-0.7,0.9c-1.4-0.7-2.6-2.2-3.2-3.9c-0.6,1.8-1.8,3.4-3.2,4.2l-0.7-0.9
				c1.8-0.9,3.3-3.3,3.3-5.4v-1.6h-2.9v-1h6.8v1h-2.8V1891.1z M864.7,1893.3h-2.1v6.5h-1.1v-12.6h1.1v5.1h2.1V1893.3z"/>
			<path class="st4" d="M880.3,1897.1v0.9H869v-0.9h2.8v-4.2h1.1v4.2h2v-4.2h1.1v4.2H880.3z M877.8,1889.5h-7.7v-0.9h8.9v1.4
				c0,1.6,0,3.2-0.4,5.6l-1.1-0.1c0.4-2.2,0.4-3.9,0.4-5.4V1889.5z"/>
			<path class="st4" d="M890.2,1894.2v1.6h1.6v4h-1.1v-3.1h-7.6v-0.9h1.7v-1.6h-3v-0.9h11.4v0.9H890.2z M883.1,1890
				c0-1.5,1.7-2.4,4.4-2.4c2.7,0,4.4,0.9,4.4,2.4c0,1.5-1.7,2.4-4.4,2.4C884.8,1892.4,883.1,1891.5,883.1,1890z M884.3,1890
				c0,0.9,1.2,1.5,3.2,1.5s3.2-0.6,3.2-1.5s-1.2-1.5-3.2-1.5S884.3,1889,884.3,1890z M889,1894.2H886v1.6h3.1V1894.2z"/>
		</g>
		<path id="패스_1900-2" class="st2" d="M1015,1962.6h290v-158.8h-290V1962.6z"/>
		<rect id="사각형_318-2" x="1015" y="1759.8" class="st1" width="290" height="50"/>
		<g class="st0">
			<path class="st3" d="M1142.8,1790.7v1.5h-14.7v-1.5h6.4v-3.3h-4.8v-8.4h1.8v2.7h7.7v-2.7h1.8v8.4h-4.8v3.3H1142.8z
				 M1131.6,1785.9h7.7v-2.7h-7.7V1785.9z"/>
			<path class="st3" d="M1154.5,1787.1c-3.4,0.6-7.2,0.7-10,0.7l-0.2-1.5c1,0,2.1,0,3.2,0v-3.3h1.8v3.3c1.7-0.1,3.4-0.2,5-0.4
				L1154.5,1787.1z M1151.2,1784.7c0.3-1.7,0.4-3,0.4-4h-6.4v-1.5h8.2v0.9c0,1.1,0,2.7-0.4,4.8L1151.2,1784.7z M1148.6,1792.4h9.2
				v1.5h-11.1v-4.8h1.9V1792.4z M1159.4,1783.1v1.5h-2.2v5.5h-1.9v-12.2h1.9v5.1H1159.4z"/>
			<path class="st3" d="M1170.9,1787.1c-3.4,0.6-7.2,0.7-10,0.7l-0.2-1.5c1,0,2.1,0,3.2,0v-3.3h1.8v3.3c1.7-0.1,3.4-0.2,5-0.4
				L1170.9,1787.1z M1167.6,1784.7c0.3-1.7,0.4-3,0.4-4h-6.4v-1.5h8.2v0.9c0,1.1,0,2.7-0.4,4.8L1167.6,1784.7z M1165,1792.4h9.2v1.5
				h-11.1v-4.8h1.9V1792.4z M1175.8,1783.1v1.5h-2.2v5.5h-1.9v-12.2h1.9v5.1H1175.8z"/>
			<path class="st3" d="M1180.1,1788.8c2.6,0,4.8-0.1,7.4-0.6l0.2,1.5c-2.8,0.5-5.2,0.6-8.1,0.6h-1.4v-6.4h5.7v-3h-5.7v-1.5h7.6v6
				h-5.7V1788.8z M1190.7,1777.9v16.3h-1.9v-16.3H1190.7z"/>
		</g>
		<g class="st0">
			<path class="st4" d="M1031.6,1846.7c0-1.1,0.8-1.9,1.8-1.9c0.9,0,1.8,0.8,1.8,1.9c0,1.1-0.8,1.9-1.8,1.9
				C1032.4,1848.6,1031.6,1847.8,1031.6,1846.7z"/>
			<path class="st4" d="M1051,1847.4h-3v4.5h-1.2v-4.5h-3.2v4.5h-1.2v-4.5h-2.9v-0.9h11.4V1847.4z M1040.9,1842.5
				c0-1.7,1.8-2.7,4.4-2.7c2.6,0,4.4,1.1,4.4,2.7c0,1.7-1.8,2.7-4.4,2.7C1042.7,1845.3,1040.9,1844.2,1040.9,1842.5z M1042.1,1842.5
				c0,1.1,1.3,1.8,3.2,1.8c1.9,0,3.2-0.7,3.2-1.8c0-1.1-1.3-1.8-3.2-1.8C1043.4,1840.7,1042.1,1841.4,1042.1,1842.5z"/>
			<path class="st4" d="M1056.2,1841.4h2.5v0.9h-6.2v-0.9h2.5v-1.8h1.1V1841.4z M1058.3,1846.1c0,1.7-1.1,2.9-2.7,2.9
				s-2.7-1.2-2.7-2.9c0-1.7,1.1-2.9,2.7-2.9S1058.3,1844.4,1058.3,1846.1z M1057.3,1846.1c0-1.1-0.7-1.9-1.7-1.9
				c-1,0-1.7,0.8-1.7,1.9c0,1.1,0.7,1.9,1.7,1.9C1056.6,1848,1057.3,1847.2,1057.3,1846.1z M1063.1,1839.3v12.6h-1.1v-6.3h-1.6v5.7
				h-1.1v-11.7h1.1v5h1.6v-5.3H1063.1z"/>
			<path class="st4" d="M1069.8,1848.4c1.1-0.1,2.3-0.1,3.4-0.3l0.1,0.9c-2.7,0.5-5.6,0.5-7.8,0.5l-0.2-1c1,0,2.2,0,3.4,0v-1.4
				c-1.4-0.2-2.4-1.1-2.4-2.3c0-1.4,1.2-2.3,3-2.3s3,0.9,3,2.3c0,1.2-1,2.1-2.4,2.3V1848.4z M1073,1841.7h-7.5v-0.9h3.2v-1.5h1.1
				v1.5h3.2V1841.7z M1069.2,1846.2c1.1,0,1.9-0.6,1.9-1.4c0-0.9-0.8-1.4-1.9-1.4s-1.9,0.6-1.9,1.4
				C1067.3,1845.6,1068.1,1846.2,1069.2,1846.2z M1077,1845.6h-2v6.3h-1.1v-12.6h1.1v5.3h2V1845.6z"/>
			<path class="st4" d="M1085.7,1841.5h-7.4v-0.9h3.1v-1.4h1.1v1.4h3.1V1841.5z M1082,1846.7c-1.8,0-3-0.9-3-2.3
				c0-1.4,1.2-2.3,3-2.3c1.8,0,3,0.9,3,2.3C1085,1845.8,1083.8,1846.7,1082,1846.7z M1079.9,1847.8h8.2v4h-1.1v-3.1h-7V1847.8z
				 M1082,1845.8c1.1,0,1.9-0.5,1.9-1.4c0-0.8-0.8-1.4-1.9-1.4s-1.9,0.5-1.9,1.4C1080.1,1845.3,1080.9,1845.8,1082,1845.8z
				 M1089.9,1843.7h-1.9v3.4h-1.1v-7.8h1.1v3.5h1.9V1843.7z"/>
			<path class="st4" d="M1097.4,1845.5v1.2h3.7v2.8h-7.4v1.2h7.8v0.9h-8.9v-3h7.4v-1.1h-7.4v-0.9h3.7v-1.2h-5.1v-0.9h11.4v0.9
				H1097.4z M1101,1843.5h-8.4v-3.8h8.4V1843.5z M1099.9,1840.6h-6.2v2h6.2V1840.6z"/>
			<path class="st4" d="M1111.2,1845.5c-1.5-0.4-2.6-1.4-3.2-2.7c-0.5,1.4-1.7,2.5-3.2,3l-0.5-0.9c1.9-0.6,3.2-2.1,3.2-3.9v-0.1
				h-2.9v-0.9h6.9v0.9h-2.8v0.1c0,1.6,1.3,3.1,3.2,3.6L1111.2,1845.5z M1114.8,1850.8v0.9h-8.5v-3.1h7v-1.3h-7v-0.9h8.1v3h-7v1.4
				H1114.8z M1114.3,1845.8h-1.1v-6.5h1.1V1845.8z"/>
			<path class="st4" d="M1124.4,1843c0,2.1,1.5,4.4,3.3,5.2l-0.7,0.9c-1.4-0.7-2.6-2.2-3.2-4c-0.5,1.8-1.8,3.5-3.2,4.2l-0.7-0.9
				c1.8-0.9,3.3-3.3,3.3-5.5v-1.5h-2.8v-0.9h6.8v0.9h-2.9V1843z M1130.4,1839.3v12.6h-1.1v-7.1h-2.7v-0.9h2.7v-4.6H1130.4z"/>
			<path class="st4" d="M1139.7,1846.2c-1.4-0.5-2.5-1.5-3-2.7c-0.5,1.4-1.7,2.5-3.2,3.1l-0.6-0.9c1.9-0.7,3.2-2.3,3.2-4.1v-0.5
				h-2.8v-0.9h6.7v0.9h-2.8v0.5c0,1.6,1.2,3.1,3,3.7L1139.7,1846.2z M1142.8,1849.5c0,1.5-1.6,2.3-4.1,2.3c-2.6,0-4.1-0.9-4.1-2.3
				c0-1.5,1.6-2.3,4.1-2.3C1141.2,1847.2,1142.8,1848,1142.8,1849.5z M1141.7,1849.5c0-0.9-1.1-1.4-3-1.4c-1.9,0-3,0.5-3,1.4
				c0,0.9,1.1,1.4,3,1.4C1140.5,1850.9,1141.7,1850.4,1141.7,1849.5z M1144.5,1842.5v1h-1.9v3.4h-1.1v-7.6h1.1v3.2H1144.5z"/>
			<path class="st4" d="M1150.3,1842.6c0,2.3,1.5,4.6,3.4,5.4l-0.7,0.9c-1.4-0.7-2.6-2.2-3.2-4c-0.6,1.9-1.8,3.5-3.2,4.2l-0.7-0.9
				c1.8-0.9,3.4-3.3,3.4-5.7v-2.3h1.1V1842.6z M1156.1,1839.3v12.6h-1.1v-12.6H1156.1z"/>
			<path class="st4" d="M1165.4,1845.5c-1.4-0.5-2.5-1.5-3-2.8c-0.5,1.4-1.7,2.5-3.1,3.1l-0.6-0.9c1.9-0.6,3.1-2.2,3.1-4v-1.2h1.1
				v1.2c0,1.6,1.3,3.2,3.1,3.8L1165.4,1845.5z M1169.5,1850.8v0.9h-8.5v-3.1h6.9v-1.2h-7v-0.9h8.1v3h-6.9v1.3H1169.5z
				 M1167.9,1842.5h-2.7v-0.9h2.7v-2.3h1.2v6.5h-1.2V1842.5z"/>
			<path class="st4" d="M1181.5,1846.3c-1.4-0.5-2.5-1.5-3-2.8c-0.5,1.5-1.7,2.6-3.2,3.2l-0.6-0.9c1.9-0.7,3.2-2.4,3.2-4.2v-0.4
				h-2.8v-0.9h6.7v0.9h-2.8v0.4c0,1.6,1.2,3.2,3.1,3.8L1181.5,1846.3z M1185.1,1849.5c0,1.5-1.6,2.3-4.2,2.3s-4.2-0.9-4.2-2.3
				s1.6-2.3,4.2-2.3S1185.1,1848,1185.1,1849.5z M1183.9,1849.5c0-0.9-1.1-1.5-3-1.5s-3,0.5-3,1.5s1.1,1.4,3,1.4
				S1183.9,1850.4,1183.9,1849.5z M1183.9,1842.5v-3.2h1.2v7.5h-1.2v-3.3h-2.5v-0.9H1183.9z"/>
			<path class="st4" d="M1194.2,1840.6c0,3.6-1.7,6.8-5.8,8.9l-0.6-0.9c3.4-1.6,5.1-4,5.3-7h-4.7v-0.9H1194.2z M1197.9,1839.3v12.6
				h-1.1v-12.6H1197.9z"/>
			<path class="st4" d="M1207.3,1846.2c-1.4-0.5-2.5-1.6-3-2.8c-0.5,1.4-1.7,2.6-3.2,3.1l-0.6-0.9c1.9-0.7,3.2-2.3,3.2-4.1v-0.5
				h-2.8v-0.9h6.7v0.9h-2.8v0.5c0,1.6,1.2,3.2,3.1,3.9L1207.3,1846.2z M1202.6,1847.2h8.2v4.4h-8.2V1847.2z M1203.8,1850.7h5.9v-2.6
				h-5.9V1850.7z M1210.8,1839.3v7.4h-1.2v-3.2h-2.5v-1h2.5v-3.2H1210.8z"/>
			<path class="st4" d="M1219.8,1840.1c0,3.2-2.2,5.4-5.8,6.5l-0.5-0.9c3-0.9,4.8-2.5,5.1-4.6h-4.5v-0.9H1219.8z M1215.6,1847h8.1
				v4.7h-8.1V1847z M1216.7,1850.7h5.9v-2.8h-5.9V1850.7z M1223.7,1839.3v7.2h-1.1v-3h-2.7v-0.9h2.7v-3.2H1223.7z"/>
		</g>
		<g class="st0">
			<path class="st4" d="M1031.6,1870.7c0-1.1,0.8-1.9,1.8-1.9c0.9,0,1.8,0.8,1.8,1.9c0,1.1-0.8,1.9-1.8,1.9
				C1032.4,1872.6,1031.6,1871.8,1031.6,1870.7z"/>
			<path class="st4" d="M1051,1871.3h-5.2v4.6h-1.1v-4.6h-5.1v-0.9h11.4V1871.3z M1049.7,1868.4h-8.6v-4.5h1.2v3.6h7.5V1868.4z"/>
			<path class="st4" d="M1058.8,1869.7v1.2h3.6v2.7h-7.4v1.2h7.8v0.9h-8.9v-2.9h7.4v-1.1h-7.4v-0.9h3.7v-1.2h-5.1v-0.9h11.3v0.9
				H1058.8z M1053.1,1867.4c2.3-0.2,4.2-0.9,4.4-2.2h-3.9v-0.9h3.9v-1.2h1.1v1.2h3.9v0.9h-3.9c0.2,1.2,2.1,2,4.4,2.2l-0.4,0.9
				c-2.1-0.2-4-0.8-4.7-2c-0.8,1.2-2.6,1.8-4.7,2L1053.1,1867.4z"/>
			<path class="st4" d="M1071.7,1869.9h-5.8v-5.8h1.1v1.9h3.6v-1.9h1.1V1869.9z M1075.3,1873.5c0,1.5-1.6,2.3-4.1,2.3
				c-2.6,0-4.1-0.9-4.1-2.3s1.6-2.3,4.1-2.3C1073.7,1871.2,1075.3,1872,1075.3,1873.5z M1070.6,1866.9h-3.6v2.1h3.6V1866.9z
				 M1074.1,1873.5c0-0.9-1.1-1.4-3-1.4c-1.9,0-3,0.5-3,1.4s1.1,1.4,3,1.4C1073,1874.9,1074.1,1874.4,1074.1,1873.5z M1077,1866.4v1
				h-1.9v3.4h-1.1v-7.6h1.1v3.2H1077z"/>
			<path class="st4" d="M1082.7,1867.1c0,2.1,1.5,4.3,3.4,5.1l-0.6,0.9c-1.5-0.7-2.7-2.1-3.3-3.8c-0.6,1.8-1.8,3.4-3.2,4.1l-0.7-0.9
				c1.8-0.9,3.3-3.2,3.3-5.4v-1.6h-2.9v-1h7v1h-3V1867.1z M1088.5,1863.3v12.6h-1.1v-12.6H1088.5z"/>
			<path class="st4" d="M1098.7,1866.6c0,2.3,1.5,4.6,3.4,5.4l-0.7,0.9c-1.4-0.7-2.6-2.2-3.2-4c-0.6,1.9-1.8,3.5-3.2,4.2l-0.7-0.9
				c1.8-0.9,3.4-3.3,3.4-5.7v-2.3h1.1V1866.6z M1104.6,1863.3v12.6h-1.1v-12.6H1104.6z"/>
			<path class="st4" d="M1113.9,1869.5c-1.4-0.5-2.5-1.5-3-2.8c-0.5,1.4-1.7,2.5-3.1,3.1l-0.6-0.9c1.9-0.6,3.1-2.2,3.1-4v-1.2h1.1
				v1.2c0,1.6,1.3,3.2,3.1,3.8L1113.9,1869.5z M1118,1874.8v0.9h-8.5v-3.1h6.9v-1.2h-7v-0.9h8.1v3h-6.9v1.3H1118z M1116.3,1866.5
				h-2.7v-0.9h2.7v-2.3h1.2v6.5h-1.2V1866.5z"/>
			<path class="st4" d="M1129.9,1869.5c-1.4-0.5-2.5-1.5-3-2.8c-0.5,1.4-1.7,2.5-3.1,3.1l-0.6-0.9c1.9-0.6,3.1-2.2,3.1-4v-1.2h1.1
				v1.2c0,1.6,1.3,3.2,3.1,3.8L1129.9,1869.5z M1134,1874.8v0.9h-8.5v-3.1h6.9v-1.2h-7v-0.9h8.1v3h-6.9v1.3H1134z M1132.4,1866.5
				h-2.7v-0.9h2.7v-2.3h1.2v6.5h-1.2V1866.5z"/>
			<path class="st4" d="M1140.7,1867.3c0,2.1,1.4,4.1,3.3,5l-0.6,0.9c-1.4-0.7-2.6-2-3.2-3.7c-0.6,1.8-1.8,3.2-3.2,3.9l-0.6-0.9
				c1.9-0.9,3.2-3,3.2-5.2v-1h-2.9v-0.9h2.9v-1.9h1.2v1.9h2.9v0.9h-2.9V1867.3z M1146.4,1863.3v12.6h-1.2v-12.6H1146.4z"/>
			<path class="st4" d="M1158.6,1869.2h-5.9v-5.1h5.9V1869.2z M1159,1872.2c0,1.2,2,2.4,4.1,2.7l-0.4,0.9c-1.9-0.3-3.6-1.1-4.3-2.3
				c-0.8,1.2-2.5,2-4.4,2.3l-0.4-0.9c2.1-0.3,4.1-1.4,4.2-2.7h-3.7v-0.9h3.7v-1.2h1.2v1.2h3.7v0.9H1159z M1157.5,1865h-3.6v3.3h3.6
				V1865z M1162.4,1870.5h-1.1v-7.2h1.1V1870.5z"/>
			<path class="st4" d="M1179.5,1871.3h-5.2v4.6h-1.1v-4.6h-5.1v-0.9h11.4V1871.3z M1178.2,1868.4h-8.6v-4.5h1.2v3.6h7.5V1868.4z"/>
			<path class="st4" d="M1187.2,1869.7v1.2h3.6v2.7h-7.4v1.2h7.8v0.9h-8.9v-2.9h7.4v-1.1h-7.4v-0.9h3.7v-1.2h-5.1v-0.9h11.3v0.9
				H1187.2z M1181.6,1867.4c2.3-0.2,4.2-0.9,4.4-2.2h-3.9v-0.9h3.9v-1.2h1.1v1.2h3.9v0.9h-3.9c0.2,1.2,2.1,2,4.4,2.2l-0.4,0.9
				c-2.1-0.2-3.9-0.8-4.7-2c-0.8,1.2-2.6,1.8-4.7,2L1181.6,1867.4z"/>
			<path class="st4" d="M1203.3,1864.1c0,3.2-2.2,5.4-5.9,6.5l-0.4-0.9c3.1-0.8,4.9-2.5,5.1-4.6h-4.6v-0.9H1203.3z M1198.8,1871h7.9
				v4.7h-7.9V1871z M1200,1874.7h5.6v-2.8h-5.6V1874.7z M1208.6,1867.3h-1.9v3.1h-1.1v-7.1h1.1v3.1h1.9V1867.3z"/>
			<path class="st4" d="M1214.3,1867.1c0,2.1,1.5,4.3,3.4,5.1l-0.6,0.9c-1.5-0.7-2.7-2.1-3.3-3.8c-0.6,1.8-1.8,3.4-3.2,4.1l-0.7-0.9
				c1.8-0.9,3.3-3.2,3.3-5.4v-1.6h-2.9v-1h7v1h-3V1867.1z M1220.1,1863.3v12.6h-1.1v-12.6H1220.1z"/>
			<path class="st4" d="M1232.6,1869.5c-1.4-0.5-2.5-1.5-3-2.8c-0.5,1.4-1.7,2.5-3.1,3.1l-0.6-0.9c1.9-0.6,3.1-2.2,3.1-4v-1.2h1.1
				v1.2c0,1.6,1.3,3.2,3.1,3.8L1232.6,1869.5z M1236.7,1874.8v0.9h-8.5v-3.1h6.9v-1.2h-7v-0.9h8.1v3h-6.9v1.3H1236.7z
				 M1235.1,1866.5h-2.7v-0.9h2.7v-2.3h1.2v6.5h-1.2V1866.5z"/>
			<path class="st4" d="M1240.6,1864.3v3.3h3.6v-3.3h1.1v8.5h-5.9v-8.5H1240.6z M1240.6,1871.9h3.6v-3.3h-3.6V1871.9z M1249,1863.3
				v12.6h-1.1v-12.6H1249z"/>
			<path class="st4" d="M1261.5,1869.5c-1.4-0.5-2.5-1.5-3-2.8c-0.5,1.4-1.7,2.5-3.1,3.1l-0.6-0.9c1.9-0.6,3.1-2.2,3.1-4v-1.2h1.1
				v1.2c0,1.6,1.3,3.2,3.1,3.8L1261.5,1869.5z M1265.6,1874.8v0.9h-8.5v-3.1h6.9v-1.2h-7v-0.9h8.1v3h-6.9v1.3H1265.6z M1264,1866.5
				h-2.7v-0.9h2.7v-2.3h1.2v6.5h-1.2V1866.5z"/>
			<path class="st4" d="M1272.3,1867.3c0,2.1,1.4,4.1,3.3,5l-0.6,0.9c-1.4-0.7-2.6-2-3.2-3.7c-0.6,1.8-1.8,3.2-3.2,3.9l-0.6-0.9
				c1.9-0.9,3.2-3,3.2-5.2v-1h-2.9v-0.9h2.9v-1.9h1.2v1.9h2.9v0.9h-2.9V1867.3z M1278,1863.3v12.6h-1.2v-12.6H1278z"/>
		</g>
		<g class="st0">
			<path class="st4" d="M1031.6,1894.7c0-1.1,0.8-1.9,1.8-1.9c0.9,0,1.8,0.8,1.8,1.9c0,1.1-0.8,1.9-1.8,1.9
				C1032.4,1896.6,1031.6,1895.8,1031.6,1894.7z"/>
			<path class="st4" d="M1044,1896.4c1.1-0.1,2.3-0.1,3.4-0.3l0.1,0.9c-2.7,0.5-5.6,0.5-7.8,0.5l-0.2-1c1,0,2.2,0,3.4,0v-1.4
				c-1.4-0.2-2.4-1.1-2.4-2.3c0-1.4,1.2-2.3,3-2.3s3,0.9,3,2.3c0,1.2-1,2.1-2.4,2.3V1896.4z M1047.2,1889.7h-7.5v-0.9h3.2v-1.5h1.1
				v1.5h3.2V1889.7z M1043.5,1894.2c1.1,0,1.9-0.6,1.9-1.4c0-0.9-0.8-1.4-1.9-1.4s-1.9,0.6-1.9,1.4
				C1041.6,1893.6,1042.3,1894.2,1043.5,1894.2z M1051.3,1893.6h-2v6.3h-1.1v-12.6h1.1v5.3h2V1893.6z"/>
			<path class="st4" d="M1056.2,1890.7c0,2.3,0.9,4.3,2.7,5.3l-0.7,0.9c-1.2-0.7-2.1-1.9-2.5-3.4c-0.4,1.7-1.3,3.1-2.6,3.8l-0.7-0.9
				c1.8-1,2.7-3.2,2.7-5.7v-1h-2.4v-0.9h5.8v0.9h-2.3V1890.7z M1063.2,1887.3v12.6h-1.1v-6.5h-1.7v5.9h-1.1v-11.7h1.1v4.8h1.7v-5.1
				H1063.2z"/>
			<path class="st4" d="M1067.6,1893.7c0-0.6,0.4-1,0.9-1c0.5,0,0.9,0.4,0.9,1c0,0.6-0.4,1-0.9,1
				C1068,1894.7,1067.6,1894.3,1067.6,1893.7z"/>
			<path class="st4" d="M1084.6,1893.8v0.9h-11.4v-0.9h5.1v-1.5h-4v-0.9h1.9v-2.7h-1.9v-0.9h9.2v0.9h-1.9v2.7h1.8v0.9h-4v1.5H1084.6
				z M1074.5,1896h8.7v3.8h-1.1v-2.9h-7.6V1896z M1077.3,1891.4h3.1v-2.7h-3.1V1891.4z"/>
			<path class="st4" d="M1092.4,1893.3h-5.8v-5.5h1.1v1.8h3.6v-1.8h1.1V1893.3z M1091.3,1890.5h-3.6v1.9h3.6V1890.5z M1089,1898.8
				h7.3v0.9h-8.4v-3.1h6.8v-1.3h-6.8v-0.9h8v3.1h-6.8V1898.8z M1097.7,1890v1h-1.9v2.8h-1.1v-6.5h1.1v2.7H1097.7z"/>
			<path class="st4" d="M1101.2,1893.7c0-0.6,0.4-1,0.9-1s0.9,0.4,0.9,1c0,0.6-0.4,1-0.9,1S1101.2,1894.3,1101.2,1893.7z"/>
			<path class="st4" d="M1118.3,1895.3h-5.2v4.6h-1.1v-4.6h-5.1v-0.9h11.4V1895.3z M1116.9,1892.4h-8.6v-4.5h1.2v3.6h7.5V1892.4z"/>
			<path class="st4" d="M1126,1893.7v1.2h3.6v2.7h-7.4v1.2h7.8v0.9h-8.9v-2.9h7.4v-1.1h-7.4v-0.9h3.7v-1.2h-5.1v-0.9h11.3v0.9H1126z
				 M1120.3,1891.4c2.3-0.2,4.2-0.9,4.4-2.2h-3.9v-0.9h3.9v-1.2h1.1v1.2h3.9v0.9h-3.9c0.2,1.2,2.1,2,4.4,2.2l-0.4,0.9
				c-2.1-0.2-4-0.8-4.7-2c-0.8,1.2-2.6,1.8-4.7,2L1120.3,1891.4z"/>
			<path class="st4" d="M1147.1,1893.3v1h-11.4v-1H1147.1z M1145.7,1897.6c0,1.5-1.6,2.3-4.3,2.3s-4.3-0.8-4.3-2.3
				c0-1.5,1.6-2.3,4.3-2.3S1145.7,1896.1,1145.7,1897.6z M1145.8,1892h-8.6v-4.3h8.5v0.9h-7.4v2.4h7.5V1892z M1144.6,1897.6
				c0-0.9-1.2-1.4-3.1-1.4s-3.1,0.5-3.1,1.4c0,0.9,1.2,1.4,3.1,1.4C1143.4,1898.9,1144.6,1898.4,1144.6,1897.6z"/>
			<path class="st4" d="M1153.6,1888.3v3.3h3.6v-3.3h1.1v8.5h-5.9v-8.5H1153.6z M1153.6,1895.9h3.6v-3.3h-3.6V1895.9z M1162,1887.3
				v12.6h-1.1v-12.6H1162z"/>
			<path class="st4" d="M1171.3,1894.1c-1.4-0.5-2.4-1.5-3-2.8c-0.5,1.5-1.6,2.6-3.1,3.2l-0.6-0.9c1.9-0.7,3.1-2.4,3.1-4.3v-1.3h1.1
				v1.4c0,1.7,1.2,3.3,3,3.9L1171.3,1894.1z M1174.5,1897.5c0,1.5-1.6,2.3-4.1,2.3c-2.6,0-4.1-0.8-4.1-2.3c0-1.5,1.6-2.3,4.1-2.3
				C1173,1895.2,1174.5,1896.1,1174.5,1897.5z M1173.4,1897.5c0-0.9-1.1-1.4-3-1.4c-1.9,0-3,0.5-3,1.4c0,0.9,1.1,1.4,3,1.4
				C1172.2,1898.9,1173.4,1898.4,1173.4,1897.5z M1176.3,1890.5v1h-1.9v3.4h-1.1v-7.6h1.1v3.2H1176.3z"/>
			<path class="st4" d="M1181.7,1890.6c0,2.2,1.4,4.5,3.2,5.4l-0.7,0.9c-1.3-0.7-2.5-2.2-3-3.9c-0.5,1.8-1.7,3.4-3.1,4.2l-0.7-0.9
				c1.8-0.9,3.2-3.3,3.2-5.6v-2.3h1.1V1890.6z M1189.3,1893.3h-2.1v6.5h-1.1v-12.6h1.1v5.1h2.1V1893.3z"/>
			<path class="st4" d="M1192,1895.8c1.8,0,3-0.1,4.3-0.3l0.1,1c-1.5,0.3-2.7,0.3-4.7,0.3h-0.8v-8h5v0.9h-3.9v2.4h3.7v0.9h-3.7
				V1895.8z M1201.1,1887.3v12.6h-1.1v-6.6h-1.7v6h-1.1v-11.7h1.1v4.8h1.7v-5H1201.1z"/>
			<path class="st4" d="M1208,1895.8c1.7,0,2.9-0.1,4.2-0.4l0.1,1c-1.5,0.3-2.8,0.4-4.7,0.4h-0.8v-7.9h4.7v0.9h-3.5V1895.8z
				 M1217.1,1887.3v12.6h-1.1v-6.6h-1.8v6h-1.1v-11.7h1.1v4.8h1.8v-5H1217.1z"/>
			<path class="st4" d="M1230.6,1893.4v0.9h-11.3v-0.9H1230.6z M1229.4,1890c0,1.5-1.7,2.4-4.4,2.4c-2.7,0-4.4-0.9-4.4-2.4
				c0-1.5,1.7-2.4,4.4-2.4C1227.7,1887.6,1229.4,1888.5,1229.4,1890z M1229.3,1897.6c0,1.4-1.6,2.2-4.3,2.2c-2.7,0-4.3-0.8-4.3-2.2
				c0-1.4,1.6-2.2,4.3-2.2C1227.7,1895.4,1229.3,1896.2,1229.3,1897.6z M1221.7,1890c0,0.9,1.2,1.5,3.2,1.5s3.2-0.6,3.2-1.5
				c0-0.9-1.2-1.5-3.2-1.5S1221.7,1889.1,1221.7,1890z M1221.8,1897.6c0,0.9,1.2,1.3,3.1,1.3s3.1-0.5,3.1-1.3s-1.2-1.4-3.1-1.4
				S1221.8,1896.7,1221.8,1897.6z"/>
		</g>
		<g class="st0">
			<path class="st4" d="M1050.1,1921.3v1h-11.4v-1h5.1v-3h1.1v3H1050.1z M1039.2,1917.7c2.2-0.4,4.6-2.1,4.6-4.1v-0.3h-4.2v-0.9h9.5
				v0.9h-4.2v0.3c0,2,2.4,3.7,4.6,4.1l-0.5,0.9c-1.9-0.4-3.9-1.6-4.7-3.3c-0.8,1.7-2.8,3-4.7,3.4L1039.2,1917.7z"/>
			<path class="st4" d="M1058.7,1918.3c-1.4-0.5-2.6-1.5-3.2-2.9c-0.5,1.4-1.7,2.5-3.2,3.1l-0.6-0.9c1.9-0.7,3.2-2.3,3.2-4.1v-0.5
				h-2.9v-0.9h6.9v0.9h-2.8v0.5c0,1.7,1.3,3.2,3.2,3.8L1058.7,1918.3z M1053.5,1919.5h8.4v4.3h-1.1v-3.4h-7.3V1919.5z
				 M1061.9,1911.3v7.6h-1.1v-7.6H1061.9z"/>
			<path class="st4" d="M1078.9,1918.4h-5.1v5.4h-1.2v-5.4h-5.1v-0.9h8.3c0.4-1.8,0.4-3.1,0.4-4.3v-0.2h-7.3v-0.9h8.4v1.1
				c0,1.2,0,2.5-0.4,4.3h1.9V1918.4z"/>
			<path class="st4" d="M1087.2,1918.1c-1.4-0.5-2.4-1.5-3-2.8c-0.5,1.5-1.7,2.6-3.2,3.2l-0.6-0.9c1.9-0.7,3.2-2.4,3.2-4.3v-1.3h1.1
				v1.2c0,1.8,1.2,3.3,3.1,4L1087.2,1918.1z M1090.8,1921.5c0,1.5-1.6,2.4-4.2,2.4s-4.2-0.9-4.2-2.4c0-1.5,1.6-2.4,4.2-2.4
				S1090.8,1919.9,1090.8,1921.5z M1089.7,1921.5c0-0.9-1.1-1.5-3-1.5s-3,0.5-3,1.5c0,0.9,1.1,1.5,3,1.5
				S1089.7,1922.4,1089.7,1921.5z M1089.6,1914.9h-2.7v-0.9h2.7v-2.7h1.2v7.4h-1.2V1914.9z"/>
			<path class="st4" d="M1103,1917.2h-5.9v-5.1h5.9V1917.2z M1103.4,1920.2c0,1.2,2,2.4,4.1,2.7l-0.4,0.9c-1.9-0.3-3.6-1.1-4.3-2.3
				c-0.8,1.2-2.5,2-4.4,2.3l-0.4-0.9c2.1-0.3,4.1-1.4,4.2-2.7h-3.7v-0.9h3.7v-1.2h1.2v1.2h3.7v0.9H1103.4z M1101.9,1913h-3.6v3.3
				h3.6V1913z M1106.8,1918.5h-1.1v-7.2h1.1V1918.5z"/>
			<path class="st4" d="M1123.8,1918.5v0.9h-5v1.9h-1.1v-1.9h-5.2v-0.9H1123.8z M1123.2,1913.3h-10.1v-0.9h4.5v-1.3h1.1v1.3h4.4
				V1913.3z M1115.1,1922.6h7.5v0.9h-8.7v-3.1h1.1V1922.6z M1118.2,1913.9c2.5,0,4,0.7,4,1.9c0,1.2-1.5,1.9-4,1.9
				c-2.6,0-4.1-0.7-4.1-1.9C1114.1,1914.5,1115.6,1913.9,1118.2,1913.9z M1118.2,1914.7c-1.9,0-2.9,0.4-2.9,1.1s1,1.1,2.9,1.1
				c1.8,0,2.9-0.4,2.9-1.1S1120,1914.7,1118.2,1914.7z"/>
			<path class="st4" d="M1132.1,1918.5c-1.6,0.3-2.9,0.3-5.3,0.3h-0.9v-3.9h4.2v-1.8h-4.3v-0.9h5.4v3.7h-4.3v2.1
				c2.2,0,3.5-0.1,5-0.3L1132.1,1918.5z M1136.1,1922.6v0.9h-8.5v-3.7h1.1v2.7H1136.1z M1134.6,1917.1h-2.4v-0.9h2.4v-1.9h-2.4v-0.9
				h2.4v-2.1h1.2v9.2h-1.2V1917.1z"/>
		</g>
		<path id="패스_1900-3" class="st2" d="M1330,1962.6h290v-158.8h-290V1962.6z"/>
		<rect id="사각형_318-3" x="1330" y="1759.8" class="st1" width="290" height="50"/>
		<g class="st0">
			<path class="st3" d="M1451.3,1786.4v1.3h4.6v3.8h-9.3v1.2h9.7v1.4h-11.6v-3.9h9.3v-1.1h-9.3v-1.4h4.7v-1.3h-6.4v-1.4h14.7v1.4
				H1451.3z M1443.8,1783c3.2-0.2,5.2-1.1,5.6-2.4h-4.8v-1.4h5v-1.4h1.9v1.4h5v1.4h-4.8c0.4,1.3,2.4,2.2,5.5,2.4l-0.5,1.4
				c-2.9-0.2-5.1-1-6.1-2.4c-1,1.4-3.2,2.2-6.1,2.4L1443.8,1783z"/>
			<path class="st3" d="M1474.2,1790.5v1.5h-14.7v-1.5h5.5v-5.7h1.9v5.7H1474.2z M1470.7,1781h-9.7v-1.5h11.6v1.6c0,2,0,4.3-0.6,7.6
				l-1.9-0.2C1470.7,1785.3,1470.7,1783,1470.7,1781L1470.7,1781z"/>
			<path class="st3" d="M1485.9,1787.1c-3.4,0.6-7.2,0.7-10,0.7l-0.2-1.5c1,0,2.1,0,3.2,0v-3.3h1.8v3.3c1.7-0.1,3.4-0.2,5-0.4
				L1485.9,1787.1z M1482.6,1784.7c0.3-1.7,0.4-3,0.4-4h-6.4v-1.5h8.2v0.9c0,1.1,0,2.7-0.4,4.8L1482.6,1784.7z M1480,1792.4h9.2v1.5
				h-11.1v-4.8h1.9V1792.4z M1490.8,1783.1v1.5h-2.2v5.5h-1.9v-12.2h1.9v5.1H1490.8z"/>
			<path class="st3" d="M1495.1,1788.8c2.6,0,4.8-0.1,7.4-0.6l0.2,1.5c-2.8,0.5-5.2,0.6-8.1,0.6h-1.4v-6.4h5.7v-3h-5.7v-1.5h7.6v6
				h-5.7V1788.8z M1505.7,1777.9v16.3h-1.9v-16.3H1505.7z"/>
		</g>
		<g class="st0">
			<path class="st4" d="M1352.6,1846.7c0-1.1,0.8-1.9,1.8-1.9c0.9,0,1.8,0.8,1.8,1.9c0,1.1-0.8,1.9-1.8,1.9
				C1353.4,1848.6,1352.6,1847.8,1352.6,1846.7z"/>
			<path class="st4" d="M1372,1845.6v0.9h-5v2.5h-1.2v-2.5h-5.2v-0.9H1372z M1361.9,1842.1c0-1.6,1.7-2.5,4.4-2.5
				c2.7,0,4.4,1,4.4,2.5s-1.7,2.5-4.4,2.5C1363.6,1844.6,1361.9,1843.7,1361.9,1842.1z M1363.2,1850.6h7.5v1h-8.7v-3.7h1.1V1850.6z
				 M1363.1,1842.1c0,1,1.3,1.6,3.2,1.6c1.9,0,3.2-0.6,3.2-1.6c0-1-1.3-1.6-3.2-1.6C1364.4,1840.5,1363.1,1841.1,1363.1,1842.1z"/>
			<path class="st4" d="M1384.9,1845.5v0.9h-11.4v-0.9h5.1v-1.8h1.1v1.8H1384.9z M1383.7,1844.3c-1.9-0.3-3.8-1.3-4.6-2.7
				c-0.8,1.4-2.6,2.4-4.6,2.7l-0.4-0.9c2.2-0.3,4.4-1.7,4.4-3.4v-0.6h1.2v0.6c0,1.7,2.2,3.1,4.4,3.4L1383.7,1844.3z M1383.5,1849.7
				c0,1.4-1.6,2.2-4.3,2.2s-4.3-0.8-4.3-2.2c0-1.4,1.6-2.2,4.3-2.2S1383.5,1848.2,1383.5,1849.7z M1382.3,1849.7
				c0-0.8-1.1-1.3-3.1-1.3c-2,0-3.1,0.5-3.1,1.3s1.1,1.3,3.1,1.3C1381.2,1850.9,1382.3,1850.5,1382.3,1849.7z"/>
			<path class="st4" d="M1394.3,1846.2c-2.6,0.4-5.6,0.5-7.8,0.5l-0.1-0.9c0.8,0,1.7,0,2.7,0v-2.7h1.1v2.7c1.4-0.1,2.8-0.2,4.1-0.3
				L1394.3,1846.2z M1391.8,1844.5c0.3-1.4,0.3-2.5,0.3-3.3h-5.1v-0.9h6.2v0.7c0,0.8,0,2.1-0.3,3.7L1391.8,1844.5z M1389.4,1850.6
				h7.2v0.9h-8.3v-3.7h1.1V1850.6z M1398,1843.4v1h-1.8v4.4h-1.1v-9.5h1.1v4.1H1398z"/>
			<path class="st4" d="M1401.1,1847.9c2.1,0,3.9-0.1,6.1-0.4l0.1,0.9c-2.3,0.4-4.2,0.5-6.3,0.5h-1v-4.8h4.6v-2.6h-4.7v-0.9h5.8v4.5
				h-4.6V1847.9z M1409.6,1839.3v12.6h-1.1v-12.6H1409.6z"/>
			<path class="st4" d="M1422.1,1846.6c-1.4-0.5-2.5-1.6-3-2.8c-0.5,1.4-1.7,2.6-3.2,3.1l-0.6-0.9c1.9-0.7,3.2-2.3,3.2-4.1v-0.6
				h-2.8v-0.9h6.7v0.9h-2.8v0.6c0,1.6,1.2,3.2,3.1,3.9L1422.1,1846.6z M1426,1850.6v0.9h-8.4v-3.9h1.2v2.9H1426z M1424.5,1842.7
				v-3.5h1.2v9.2h-1.2v-4.8h-2.5v-0.9H1424.5z"/>
			<path class="st4" d="M1434.9,1846.5c-1.4-0.5-2.5-1.6-3.1-2.9c-0.5,1.5-1.6,2.6-3.1,3.2l-0.6-0.9c1.9-0.7,3.1-2.4,3.1-4.3v-1.6
				h1.1v1.6c0,1.7,1.2,3.3,3.1,4L1434.9,1846.5z M1431.3,1850.6h7.2v0.9h-8.3v-3.9h1.1V1850.6z M1439.8,1843.1v1h-1.9v4.5h-1.1v-9.3
				h1.1v3.9H1439.8z"/>
			<path class="st4" d="M1445.5,1842.6c0,2.3,1.5,4.6,3.4,5.4l-0.7,0.9c-1.4-0.7-2.6-2.2-3.2-4c-0.6,1.9-1.8,3.5-3.2,4.2l-0.7-0.9
				c1.8-0.9,3.4-3.3,3.4-5.7v-2.3h1.1V1842.6z M1451.3,1839.3v12.6h-1.1v-12.6H1451.3z"/>
			<path class="st4" d="M1465.3,1849.2v1h-11.4v-1H1465.3z M1464.2,1846.5c-1.9-0.4-3.9-1.8-4.7-3.6c-0.8,1.8-2.8,3.2-4.7,3.6
				l-0.5-1c2.2-0.4,4.6-2.3,4.6-4.5v-1h1.2v1c0,2.1,2.4,4,4.6,4.5L1464.2,1846.5z"/>
			<path class="st4" d="M1472.8,1845.7c-1.4,0.3-2.6,0.3-4.6,0.3h-0.8v-6h4.7v0.9h-3.6v1.6h3.2v0.9h-3.2v1.7c1.8,0,2.9-0.1,4.2-0.3
				L1472.8,1845.7z M1469.2,1847.4h8.3v4.2h-8.3V1847.4z M1470.3,1850.7h6v-2.4h-6V1850.7z M1473.9,1843.4h-1.7v-0.9h1.7v-3h1.1v7.2
				h-1.1V1843.4z M1477.4,1839.3v7.6h-1.1v-7.6H1477.4z"/>
			<path class="st4" d="M1480.2,1846.4c0-2.7,0.8-5,2.1-7.1l0.8,0.4c-1.2,2-1.8,4.4-1.8,6.7c0,2.4,0.6,4.7,1.8,6.7l-0.8,0.4
				C1481,1851.5,1480.2,1849.2,1480.2,1846.4z"/>
		</g>
		<g class="st0">
			<path class="st4" d="M1487.2,1841.6h-3.1v-1.1h7.5v1.1h-3.1v9.2h-1.3V1841.6z"/>
			<path class="st4" d="M1493.5,1840.5h1.6l2,5.5c0.2,0.7,0.5,1.4,0.7,2.1h0.1c0.2-0.7,0.5-1.4,0.7-2.1l2-5.5h1.6v10.3h-1.2v-5.7
				c0-0.9,0.1-2.1,0.2-3h-0.1l-0.8,2.3l-1.9,5.3h-0.9l-1.9-5.3l-0.8-2.3h-0.1c0.1,0.9,0.2,2.1,0.2,3v5.7h-1.2V1840.5z"/>
			<path class="st4" d="M1504.1,1849.5l0.8-0.9c0.7,0.8,1.8,1.3,2.8,1.3c1.3,0,2.2-0.7,2.2-1.7c0-1-0.7-1.4-1.7-1.8l-1.5-0.6
				c-1-0.4-2.1-1.1-2.1-2.6c0-1.6,1.4-2.7,3.2-2.7c1.2,0,2.3,0.5,3,1.3l-0.7,0.8c-0.6-0.6-1.4-1-2.3-1c-1.2,0-1.9,0.6-1.9,1.5
				c0,1,0.9,1.4,1.7,1.7l1.5,0.6c1.2,0.5,2.1,1.2,2.1,2.7c0,1.6-1.3,2.9-3.5,2.9C1506.2,1851,1505,1850.4,1504.1,1849.5z"/>
			<path class="st4" d="M1512.4,1853.2c1.2-2,1.8-4.4,1.8-6.7c0-2.4-0.6-4.7-1.8-6.7l0.8-0.4c1.3,2.1,2.1,4.4,2.1,7.1
				c0,2.8-0.8,5-2.1,7.1L1512.4,1853.2z"/>
		</g>
		<g class="st0">
			<path class="st4" d="M1531.8,1846.4h-5.1v5.4h-1.2v-5.4h-5.1v-0.9h8.3c0.4-1.8,0.4-3.1,0.4-4.3v-0.2h-7.3v-0.9h8.4v1.1
				c0,1.2,0,2.5-0.4,4.3h1.9V1846.4z"/>
			<path class="st4" d="M1539.5,1846.5v1.4h3.7v3.8h-1.1v-2.9h-7.5v-0.9h3.9v-1.4h-5.1v-0.9h11.4v0.9H1539.5z M1534,1844
				c2.4-0.2,4.3-1.2,4.4-2.6h-3.9v-0.9h3.9v-1.3h1.1v1.3h3.9v0.9h-3.9c0.1,1.4,2,2.4,4.4,2.6l-0.4,0.9c-2.1-0.2-3.9-1-4.6-2.2
				c-0.8,1.3-2.6,2-4.7,2.2L1534,1844z"/>
			<path class="st4" d="M1555.8,1845.2h-5.9v-5.1h5.9V1845.2z M1556.2,1848.2c0,1.2,2,2.4,4.1,2.7l-0.4,0.9
				c-1.9-0.3-3.6-1.1-4.3-2.3c-0.8,1.2-2.5,2-4.4,2.3l-0.4-0.9c2.1-0.3,4.1-1.4,4.2-2.7h-3.7v-0.9h3.7v-1.2h1.2v1.2h3.7v0.9H1556.2z
				 M1554.7,1841h-3.6v3.3h3.6V1841z M1559.6,1846.5h-1.1v-7.2h1.1V1846.5z"/>
			<path class="st4" d="M1576.7,1845.6v0.9h-5v2.5h-1.2v-2.5h-5.2v-0.9H1576.7z M1566.6,1842.1c0-1.6,1.7-2.5,4.4-2.5
				c2.7,0,4.4,1,4.4,2.5s-1.7,2.5-4.4,2.5C1568.3,1844.6,1566.6,1843.7,1566.6,1842.1z M1567.9,1850.6h7.5v1h-8.7v-3.7h1.1V1850.6z
				 M1567.8,1842.1c0,1,1.3,1.6,3.2,1.6c1.9,0,3.2-0.6,3.2-1.6c0-1-1.3-1.6-3.2-1.6C1569.1,1840.5,1567.8,1841.1,1567.8,1842.1z"/>
			<path class="st4" d="M1584.2,1844.9c-0.6,0.7-1.5,1.1-2.5,1.1c-1.9,0-3.2-1.2-3.2-3c0-1.8,1.4-3,3.2-3c1.1,0,2,0.4,2.5,1h3.2
				v-1.8h1.2v7.4h-1.2v-1.8H1584.2z M1581.6,1845c1.2,0,2.1-0.8,2.1-2c0-1.2-0.9-2-2.1-2c-1.2,0-2.1,0.8-2.1,2
				C1579.5,1844.2,1580.4,1845,1581.6,1845z M1588.6,1849.4c0,1.5-1.6,2.4-4.2,2.4c-2.6,0-4.2-0.9-4.2-2.4c0-1.5,1.6-2.4,4.2-2.4
				C1587,1847,1588.6,1847.9,1588.6,1849.4z M1587.4,1849.4c0-1-1.1-1.5-3.1-1.5c-1.9,0-3,0.6-3,1.5c0,0.9,1.1,1.5,3,1.5
				C1586.3,1850.9,1587.4,1850.4,1587.4,1849.4z M1584.7,1842c0.1,0.3,0.2,0.6,0.2,1c0,0.3-0.1,0.7-0.2,1h2.7v-2H1584.7z"/>
		</g>
		<g class="st0">
			<path class="st4" d="M1352.6,1870.7c0-1.1,0.8-1.9,1.8-1.9c0.9,0,1.8,0.8,1.8,1.9c0,1.1-0.8,1.9-1.8,1.9
				C1353.4,1872.6,1352.6,1871.8,1352.6,1870.7z"/>
			<path class="st4" d="M1372,1869.6v0.9h-5v2.5h-1.2v-2.5h-5.2v-0.9H1372z M1361.9,1866.1c0-1.6,1.7-2.5,4.4-2.5
				c2.7,0,4.4,1,4.4,2.5s-1.7,2.5-4.4,2.5C1363.6,1868.6,1361.9,1867.7,1361.9,1866.1z M1363.2,1874.6h7.5v1h-8.7v-3.7h1.1V1874.6z
				 M1363.1,1866.1c0,1,1.3,1.6,3.2,1.6c1.9,0,3.2-0.6,3.2-1.6c0-1-1.3-1.6-3.2-1.6C1364.4,1864.5,1363.1,1865.1,1363.1,1866.1z"/>
			<path class="st4" d="M1384.9,1869.5v0.9h-11.4v-0.9h5.1v-1.8h1.1v1.8H1384.9z M1383.7,1868.3c-1.9-0.3-3.8-1.3-4.6-2.7
				c-0.8,1.4-2.6,2.4-4.6,2.7l-0.4-0.9c2.2-0.3,4.4-1.7,4.4-3.4v-0.6h1.2v0.6c0,1.7,2.2,3.1,4.4,3.4L1383.7,1868.3z M1383.5,1873.7
				c0,1.4-1.6,2.2-4.3,2.2s-4.3-0.8-4.3-2.2c0-1.4,1.6-2.2,4.3-2.2S1383.5,1872.2,1383.5,1873.7z M1382.3,1873.7
				c0-0.8-1.1-1.3-3.1-1.3c-2,0-3.1,0.5-3.1,1.3s1.1,1.3,3.1,1.3C1381.2,1874.9,1382.3,1874.5,1382.3,1873.7z"/>
			<path class="st4" d="M1390.6,1867.3c0,2,1.2,4.1,3.1,4.9l-0.6,0.9c-1.4-0.7-2.4-2-3-3.7c-0.5,1.7-1.7,3.2-3.1,3.9l-0.6-0.9
				c1.8-0.9,3.2-3,3.2-5.2v-1h-2.8v-0.9h2.8v-1.9h1.1v1.9h2.8v0.9h-2.8V1867.3z M1398.1,1869.4h-2.1v6.4h-1.1v-12.6h1.1v5.2h2.1
				V1869.4z"/>
			<path class="st4" d="M1406.8,1869.7c-2,0.3-3.6,0.4-6,0.4h-1v-3.6h4.5v-1.6h-4.5v-0.9h5.7v3.4h-4.5v1.7c2.2,0,3.8-0.1,5.7-0.4
				L1406.8,1869.7z M1409.1,1873.5c0,1.5-1.6,2.3-4.1,2.3c-2.6,0-4.1-0.8-4.1-2.3s1.6-2.3,4.1-2.3
				C1407.6,1871.2,1409.1,1872.1,1409.1,1873.5z M1408,1873.5c0-0.9-1.1-1.4-3-1.4s-3,0.5-3,1.4s1.1,1.4,3,1.4
				S1408,1874.4,1408,1873.5z M1409,1866.2v1.7h1.9v1h-1.9v2h-1.1v-7.6h1.1v1.9h1.9v1H1409z"/>
			<path class="st4" d="M1418.8,1869.3c-1.9,0-3.2-1.1-3.2-2.8c0-1.7,1.4-2.8,3.2-2.8s3.2,1.1,3.2,2.8
				C1422.1,1868.2,1420.7,1869.3,1418.8,1869.3z M1418.8,1868.4c1.2,0,2.1-0.8,2.1-1.8c0-1.1-0.9-1.9-2.1-1.9
				c-1.2,0-2.1,0.8-2.1,1.9C1416.7,1867.6,1417.6,1868.4,1418.8,1868.4z M1426,1874.8v0.9h-8.5v-3.2h7v-1.3h-7v-0.9h8.1v3h-7v1.4
				H1426z M1425.6,1869.7h-1.1v-6.4h1.1V1869.7z"/>
			<path class="st4" d="M1434.8,1870.1c-1.4-0.5-2.4-1.5-3-2.8c-0.5,1.5-1.6,2.6-3.1,3.2l-0.6-0.9c1.9-0.7,3.1-2.4,3.1-4.3v-1.3h1.1
				v1.4c0,1.7,1.2,3.3,3,3.9L1434.8,1870.1z M1438,1873.5c0,1.5-1.6,2.3-4.1,2.3c-2.6,0-4.1-0.8-4.1-2.3c0-1.5,1.6-2.3,4.1-2.3
				C1436.5,1871.2,1438,1872.1,1438,1873.5z M1436.9,1873.5c0-0.9-1.1-1.4-3-1.4c-1.9,0-3,0.5-3,1.4c0,0.9,1.1,1.4,3,1.4
				C1435.8,1874.9,1436.9,1874.4,1436.9,1873.5z M1439.8,1866.5v1h-1.9v3.4h-1.1v-7.6h1.1v3.2H1439.8z"/>
			<path class="st4" d="M1447.9,1870.2c-1.4-0.5-2.5-1.6-3-2.8c-0.5,1.4-1.7,2.6-3.2,3.1l-0.6-0.9c1.9-0.7,3.2-2.3,3.2-4.1v-0.5
				h-2.8v-0.9h6.7v0.9h-2.8v0.5c0,1.6,1.2,3.2,3.1,3.9L1447.9,1870.2z M1443.2,1871.2h8.2v4.4h-8.2V1871.2z M1444.3,1874.7h5.9v-2.6
				h-5.9V1874.7z M1451.4,1863.3v7.4h-1.2v-3.2h-2.5v-1h2.5v-3.2H1451.4z"/>
			<path class="st4" d="M1460.4,1864.1c0,3.2-2.2,5.4-5.8,6.5l-0.5-0.9c3-0.9,4.8-2.5,5.1-4.6h-4.5v-0.9H1460.4z M1456.1,1871h8.1
				v4.7h-8.1V1871z M1457.3,1874.7h5.9v-2.8h-5.9V1874.7z M1464.3,1863.3v7.2h-1.1v-3h-2.7v-0.9h2.7v-3.2H1464.3z"/>
			<path class="st4" d="M1476.5,1869.2h-5.9v-5.1h5.9V1869.2z M1476.8,1872.2c0,1.2,2,2.4,4.1,2.7l-0.4,0.9
				c-1.9-0.3-3.6-1.1-4.3-2.3c-0.8,1.2-2.5,2-4.4,2.3l-0.4-0.9c2.1-0.3,4.1-1.4,4.2-2.7h-3.7v-0.9h3.7v-1.2h1.2v1.2h3.7v0.9H1476.8z
				 M1475.3,1865h-3.6v3.3h3.6V1865z M1480.2,1870.5h-1.1v-7.2h1.1V1870.5z"/>
			<path class="st4" d="M1497.3,1869.6v0.9h-5v2.5h-1.2v-2.5h-5.2v-0.9H1497.3z M1487.2,1866.1c0-1.6,1.7-2.5,4.4-2.5
				c2.7,0,4.4,1,4.4,2.5s-1.7,2.5-4.4,2.5C1489,1868.6,1487.2,1867.7,1487.2,1866.1z M1488.5,1874.6h7.5v1h-8.7v-3.7h1.1V1874.6z
				 M1488.4,1866.1c0,1,1.3,1.6,3.2,1.6c1.9,0,3.2-0.6,3.2-1.6c0-1-1.3-1.6-3.2-1.6C1489.7,1864.5,1488.4,1865.1,1488.4,1866.1z"/>
			<path class="st4" d="M1505.7,1870.6c-1.4-0.5-2.5-1.6-3-2.8c-0.5,1.4-1.7,2.6-3.2,3.1l-0.6-0.9c1.9-0.7,3.2-2.3,3.2-4.1v-0.6
				h-2.8v-0.9h6.7v0.9h-2.8v0.6c0,1.6,1.2,3.2,3.1,3.9L1505.7,1870.6z M1509.5,1874.6v0.9h-8.4v-3.9h1.2v2.9H1509.5z M1508,1866.7
				v-3.5h1.2v9.2h-1.2v-4.8h-2.5v-0.9H1508z"/>
			<path class="st4" d="M1515.9,1867.1c0,2,1.4,4.2,3.2,5.1l-0.7,0.9c-1.4-0.7-2.6-2.2-3.2-3.9c-0.6,1.8-1.8,3.4-3.2,4.2l-0.7-0.9
				c1.8-0.9,3.3-3.3,3.3-5.4v-1.6h-2.9v-1h6.8v1h-2.8V1867.1z M1523.5,1869.3h-2.1v6.5h-1.1v-12.6h1.1v5.1h2.1V1869.3z"/>
			<path class="st4" d="M1539.1,1873.1v0.9h-11.4v-0.9h2.8v-4.2h1.1v4.2h2v-4.2h1.1v4.2H1539.1z M1536.6,1865.5h-7.7v-0.9h8.9v1.4
				c0,1.6,0,3.2-0.4,5.6l-1.1-0.1c0.4-2.2,0.4-3.9,0.4-5.4V1865.5z"/>
			<path class="st4" d="M1549,1870.2v1.6h1.6v4h-1.1v-3.1h-7.5v-0.9h1.7v-1.6h-3v-0.9h11.4v0.9H1549z M1541.9,1866
				c0-1.5,1.7-2.4,4.4-2.4c2.7,0,4.4,0.9,4.4,2.4c0,1.5-1.7,2.4-4.4,2.4C1543.6,1868.4,1541.9,1867.5,1541.9,1866z M1543,1866
				c0,0.9,1.2,1.5,3.2,1.5c2,0,3.2-0.6,3.2-1.5s-1.2-1.5-3.2-1.5C1544.3,1864.5,1543,1865,1543,1866z M1547.8,1870.2h-3.1v1.6h3.1
				V1870.2z"/>
		</g>
		<g class="st0">
			<path class="st4" d="M1352.6,1894.7c0-1.1,0.8-1.9,1.8-1.9c0.9,0,1.8,0.8,1.8,1.9c0,1.1-0.8,1.9-1.8,1.9
				C1353.4,1896.6,1352.6,1895.8,1352.6,1894.7z"/>
			<path class="st4" d="M1372,1893.6v0.9h-5v2.5h-1.2v-2.5h-5.2v-0.9H1372z M1361.9,1890.1c0-1.6,1.7-2.5,4.4-2.5
				c2.7,0,4.4,1,4.4,2.5s-1.7,2.5-4.4,2.5C1363.6,1892.6,1361.9,1891.7,1361.9,1890.1z M1363.2,1898.6h7.5v1h-8.7v-3.7h1.1V1898.6z
				 M1363.1,1890.1c0,1,1.3,1.6,3.2,1.6c1.9,0,3.2-0.6,3.2-1.6c0-1-1.3-1.6-3.2-1.6C1364.4,1888.5,1363.1,1889.1,1363.1,1890.1z"/>
			<path class="st4" d="M1384.9,1893.5v0.9h-11.4v-0.9h5.1v-1.8h1.1v1.8H1384.9z M1383.7,1892.3c-1.9-0.3-3.8-1.3-4.6-2.7
				c-0.8,1.4-2.6,2.4-4.6,2.7l-0.4-0.9c2.2-0.3,4.4-1.7,4.4-3.4v-0.6h1.2v0.6c0,1.7,2.2,3.1,4.4,3.4L1383.7,1892.3z M1383.5,1897.7
				c0,1.4-1.6,2.2-4.3,2.2s-4.3-0.8-4.3-2.2c0-1.4,1.6-2.2,4.3-2.2S1383.5,1896.2,1383.5,1897.7z M1382.3,1897.7
				c0-0.8-1.1-1.3-3.1-1.3c-2,0-3.1,0.5-3.1,1.3s1.1,1.3,3.1,1.3C1381.2,1898.9,1382.3,1898.5,1382.3,1897.7z"/>
			<path class="st4" d="M1390.6,1890.6c0,2.2,1.4,4.5,3.2,5.4l-0.7,0.9c-1.3-0.7-2.5-2.2-3-3.9c-0.5,1.8-1.7,3.4-3.1,4.2l-0.7-0.9
				c1.8-0.9,3.2-3.3,3.2-5.6v-2.3h1.1V1890.6z M1398.1,1893.3h-2.1v6.5h-1.1v-12.6h1.1v5.1h2.1V1893.3z"/>
			<path class="st4" d="M1410.6,1897.1v0.9h-11.4v-0.9h4.4v-4.5h1.1v4.5H1410.6z M1408.1,1889.5h-7.7v-0.9h8.8v1.2
				c0,1.6,0,3.3-0.5,5.8l-1.1-0.1c0.5-2.4,0.5-4.2,0.5-5.7V1889.5z"/>
			<path class="st4" d="M1416.9,1895.8c1.7,0,2.9-0.1,4.2-0.4l0.1,1c-1.5,0.3-2.8,0.4-4.7,0.4h-0.8v-7.9h4.7v0.9h-3.5V1895.8z
				 M1426,1887.3v12.6h-1.1v-6.6h-1.8v6h-1.1v-11.7h1.1v4.8h1.8v-5H1426z"/>
			<path class="st4" d="M1430,1888.3v3.3h3.6v-3.3h1.1v8.5h-5.9v-8.5H1430z M1430,1895.9h3.6v-3.3h-3.6V1895.9z M1438.4,1887.3v12.6
				h-1.1v-12.6H1438.4z"/>
			<path class="st4" d="M1446,1888.3v3.3h3.6v-3.3h1.1v8.5h-5.9v-8.5H1446z M1446,1895.9h3.6v-3.3h-3.6V1895.9z M1454.5,1887.3v12.6
				h-1.1v-12.6H1454.5z"/>
			<path class="st4" d="M1463.7,1894.1c-1.4-0.5-2.4-1.5-3-2.8c-0.5,1.5-1.6,2.6-3.1,3.2l-0.6-0.9c1.9-0.7,3.1-2.4,3.1-4.3v-1.3h1.1
				v1.4c0,1.7,1.2,3.3,3,3.9L1463.7,1894.1z M1466.9,1897.5c0,1.5-1.6,2.3-4.1,2.3c-2.6,0-4.1-0.8-4.1-2.3c0-1.5,1.6-2.3,4.1-2.3
				C1465.4,1895.2,1466.9,1896.1,1466.9,1897.5z M1465.8,1897.5c0-0.9-1.1-1.4-3-1.4c-1.9,0-3,0.5-3,1.4c0,0.9,1.1,1.4,3,1.4
				C1464.7,1898.9,1465.8,1898.4,1465.8,1897.5z M1468.7,1890.5v1h-1.9v3.4h-1.1v-7.6h1.1v3.2H1468.7z"/>
			<path class="st4" d="M1481.3,1897.3v1h-11.4v-1h5.1v-3h1.1v3H1481.3z M1470.5,1893.7c2.2-0.4,4.6-2.1,4.6-4.1v-0.3h-4.2v-0.9h9.5
				v0.9h-4.2v0.3c0,2,2.4,3.7,4.6,4.1l-0.5,0.9c-1.9-0.4-3.9-1.6-4.7-3.3c-0.8,1.7-2.8,3-4.7,3.4L1470.5,1893.7z"/>
			<path class="st4" d="M1487.4,1891.3c0,2.1,1.4,4.1,3.3,5l-0.6,0.9c-1.4-0.7-2.6-2-3.2-3.7c-0.6,1.8-1.8,3.2-3.2,3.9l-0.6-0.9
				c1.9-0.9,3.2-3,3.2-5.2v-1h-2.9v-0.9h2.9v-1.9h1.2v1.9h2.9v0.9h-2.9V1891.3z M1493.1,1887.3v12.6h-1.2v-12.6H1493.1z"/>
			<path class="st4" d="M1507,1894.5v0.9h-5v1.9h-1.1v-1.9h-5.2v-0.9H1507z M1506.4,1889.3h-10.1v-0.9h4.5v-1.3h1.1v1.3h4.4V1889.3z
				 M1498.3,1898.6h7.5v0.9h-8.7v-3.1h1.1V1898.6z M1501.4,1889.9c2.5,0,4,0.7,4,1.9c0,1.2-1.5,1.9-4,1.9c-2.6,0-4.1-0.7-4.1-1.9
				C1497.3,1890.5,1498.8,1889.9,1501.4,1889.9z M1501.4,1890.7c-1.9,0-2.9,0.4-2.9,1.1s1,1.1,2.9,1.1c1.8,0,2.9-0.4,2.9-1.1
				S1503.2,1890.7,1501.4,1890.7z"/>
			<path class="st4" d="M1515.3,1894.5c-1.6,0.3-2.9,0.3-5.3,0.3h-0.9v-3.9h4.2v-1.8h-4.3v-0.9h5.4v3.7h-4.3v2.1
				c2.2,0,3.5-0.1,5-0.3L1515.3,1894.5z M1519.3,1898.6v0.9h-8.5v-3.7h1.1v2.7H1519.3z M1517.8,1893.1h-2.4v-0.9h2.4v-1.9h-2.4v-0.9
				h2.4v-2.1h1.2v9.2h-1.2V1893.1z"/>
			<path class="st4" d="M1531.6,1893.4c-1.4-0.5-2.6-1.6-3.2-2.9c-0.5,1.4-1.7,2.6-3.2,3.1l-0.6-0.9c1.9-0.7,3.2-2.3,3.2-4.2v-1h1.1
				v1c0,1.7,1.3,3.3,3.2,3.9L1531.6,1893.4z M1535.3,1898.8v0.9h-8.5v-3.1h7v-1.2h-7v-0.9h8.1v3h-7v1.3H1535.3z M1534.9,1893.8h-1.1
				v-6.5h1.1V1893.8z"/>
			<path class="st4" d="M1541.9,1890.6c0,2.3,1.5,4.6,3.4,5.4l-0.7,0.9c-1.4-0.7-2.6-2.2-3.2-4c-0.6,1.9-1.8,3.5-3.2,4.2l-0.7-0.9
				c1.8-0.9,3.4-3.3,3.4-5.7v-2.3h1.1V1890.6z M1547.8,1887.3v12.6h-1.1v-12.6H1547.8z"/>
		</g>
		<g class="st0">
			<path class="st4" d="M1359.6,1918.4c0-2.7,0.8-5,2.1-7.1l0.8,0.4c-1.2,2-1.8,4.4-1.8,6.7c0,2.4,0.6,4.7,1.8,6.7l-0.8,0.4
				C1360.3,1923.5,1359.6,1921.2,1359.6,1918.4z"/>
			<path class="st4" d="M1375.1,1917.6v0.9h-5v2.5h-1.2v-2.5h-5.2v-0.9H1375.1z M1365,1914.1c0-1.6,1.7-2.5,4.4-2.5
				c2.7,0,4.4,1,4.4,2.5s-1.7,2.5-4.4,2.5C1366.8,1916.6,1365,1915.7,1365,1914.1z M1366.3,1922.6h7.5v1h-8.7v-3.7h1.1V1922.6z
				 M1366.2,1914.1c0,1,1.3,1.6,3.2,1.6c1.9,0,3.2-0.6,3.2-1.6c0-1-1.3-1.6-3.2-1.6C1367.5,1912.5,1366.2,1913.1,1366.2,1914.1z"/>
			<path class="st4" d="M1388,1917.5v0.9h-11.4v-0.9h5.1v-1.8h1.1v1.8H1388z M1386.9,1916.3c-1.9-0.3-3.8-1.3-4.6-2.7
				c-0.8,1.4-2.6,2.4-4.6,2.7l-0.4-0.9c2.2-0.3,4.4-1.7,4.4-3.4v-0.6h1.2v0.6c0,1.7,2.2,3.1,4.4,3.4L1386.9,1916.3z M1386.6,1921.7
				c0,1.4-1.6,2.2-4.3,2.2s-4.3-0.8-4.3-2.2c0-1.4,1.6-2.2,4.3-2.2S1386.6,1920.2,1386.6,1921.7z M1385.4,1921.7
				c0-0.8-1.1-1.3-3.1-1.3c-2,0-3.1,0.5-3.1,1.3s1.1,1.3,3.1,1.3C1384.3,1922.9,1385.4,1922.5,1385.4,1921.7z"/>
			<path class="st4" d="M1394.2,1920.4c1.2-0.1,2.4-0.1,3.6-0.3l0.1,0.9c-2.8,0.5-5.8,0.5-8.1,0.5l-0.2-1c1.1,0,2.3,0,3.5-0.1v-1.3
				c-1.5-0.2-2.5-1.1-2.5-2.3c0-1.4,1.2-2.3,3-2.3s3,0.9,3,2.3c0,1.2-1,2.1-2.4,2.3V1920.4z M1397.5,1913.7h-7.6v-0.9h3.2v-1.5h1.1
				v1.5h3.2V1913.7z M1393.7,1918.2c1.1,0,1.9-0.6,1.9-1.4c0-0.9-0.8-1.4-1.9-1.4c-1.1,0-1.9,0.6-1.9,1.4
				C1391.7,1917.6,1392.5,1918.2,1393.7,1918.2z M1399.7,1911.3v12.6h-1.1v-12.6H1399.7z"/>
			<path class="st4" d="M1406.6,1914.6c0,2.2,1.4,4.5,3.2,5.4l-0.7,0.9c-1.3-0.7-2.5-2.2-3-3.9c-0.5,1.8-1.7,3.4-3.1,4.2l-0.7-0.9
				c1.8-0.9,3.2-3.3,3.2-5.6v-2.3h1.1V1914.6z M1414.1,1917.3h-2.1v6.5h-1.1v-12.6h1.1v5.1h2.1V1917.3z"/>
			<path class="st4" d="M1425.2,1918.2c-1.4-0.4-2.5-1.4-3.1-2.6c-0.5,1.3-1.7,2.3-3.2,2.8l-0.6-0.9c1.9-0.6,3.1-2,3.1-3.7v-0.2
				h-2.8v-0.9h2.8v-1.5h1.1v1.5h2.8v0.9h-2.8v0.2c0,1.5,1.2,2.9,3.1,3.5L1425.2,1918.2z M1420.3,1919.3h7.9v4.4h-7.9V1919.3z
				 M1421.4,1922.7h5.6v-2.5h-5.6V1922.7z M1430,1915.4h-1.9v3.3h-1.1v-7.4h1.1v3.2h1.9V1915.4z"/>
			<path class="st4" d="M1441.6,1911.3v12.6h-1.1v-4.9h-3.1c-0.5,1.3-1.5,2-2.7,2c-1.8,0-3.1-1.7-3.1-4.4c0-2.7,1.3-4.4,3.1-4.4
				c1.2,0,2.1,0.7,2.6,1.8h3.2v-2.8H1441.6z M1436.7,1916.6c0-2-0.9-3.3-2-3.3c-1.2,0-2,1.3-2,3.3c0,2,0.8,3.4,2,3.4
				C1435.8,1920,1436.7,1918.7,1436.7,1916.6z M1440.5,1918.1v-3h-2.9c0.1,0.5,0.2,1,0.2,1.6c0,0.5-0.1,1-0.1,1.4H1440.5z"/>
			<path class="st4" d="M1444,1925.2c1.2-2,1.8-4.4,1.8-6.7c0-2.4-0.6-4.7-1.8-6.7l0.8-0.4c1.3,2.1,2.1,4.4,2.1,7.1
				c0,2.8-0.8,5-2.1,7.1L1444,1925.2z"/>
		</g>
	</g>
</g>
</svg>
