<?xml version="1.0" encoding="utf-8"?>
<!-- Generator: Adobe Illustrator 25.3.1, SVG Export Plug-In . SVG Version: 6.00 Build 0)  -->
<svg version="1.1" id="레이어_1" xmlns="http://www.w3.org/2000/svg" xmlns:xlink="http://www.w3.org/1999/xlink" x="0px"
	 y="0px" viewBox="0 0 335 346.2" style="enable-background:new 0 0 335 346.2;" xml:space="preserve">
<style type="text/css">
	.st0{enable-background:new    ;}
	.st1{fill:#3AA25C;}
	.st2{fill:#929397;}
	.st3{fill:#E2E2E2;}
	.st4{fill:#808080;}
	.st5{fill:#A3A3A3;}
	.st6{fill:#FFFFFF;}
	.st7{fill:none;stroke:#D5D5D5;}
</style>
<g id="그룹_5867" transform="translate(-19.75 -2944.164)">
	<g id="그룹_5793" transform="translate(0 -23)">
		<g class="st0">
			<path class="st1" d="M32,2977.6v1.5H20.4v-1.5H23v-1.6c-0.9-0.4-1.5-1.1-1.5-1.9c0-1.5,1.8-2.5,4.7-2.5c2.9,0,4.7,0.9,4.7,2.5
				c0,0.8-0.5,1.5-1.5,1.9v1.5H32z M30.6,2982c0,1.5-1.7,2.4-4.5,2.4s-4.5-0.9-4.5-2.4s1.7-2.3,4.5-2.3S30.6,2980.5,30.6,2982z
				 M23.4,2974.1c0,0.7,1,1.1,2.8,1.1c1.8,0,2.8-0.4,2.8-1.1c0-0.7-1-1.1-2.8-1.1C24.4,2973.1,23.4,2973.4,23.4,2974.1z M28.8,2982
				c0-0.7-0.9-0.9-2.6-0.9c-1.7,0-2.6,0.3-2.6,0.9s0.9,1,2.6,1C27.9,2983,28.8,2982.7,28.8,2982z M24.8,2977.6h2.7v-1.1
				c-0.4,0-0.9,0.1-1.3,0.1c-0.5,0-0.9,0-1.4-0.1V2977.6z"/>
			<path class="st1" d="M44.9,2980H40v4.4h-1.8v-4.4h-4.9v-1.5h11.7V2980z M43.8,2977.5c-2.3-0.3-3.9-1.4-4.7-2.8
				c-0.8,1.4-2.5,2.4-4.7,2.8l-0.7-1.5c2.9-0.4,4.4-2.1,4.4-3.6v-0.6h2v0.6c0,1.5,1.5,3.2,4.4,3.6L43.8,2977.5z"/>
			<path class="st1" d="M54,2974.3c0,2.3,0.9,4.7,3,5.7l-1.1,1.5c-1.3-0.7-2.3-1.9-2.8-3.5c-0.6,1.6-1.5,3-3,3.7l-1.1-1.5
				c2.2-1,3.2-3.5,3.2-5.9v-1.9H54V2974.3z M61.3,2978h-1.9v6.4h-1.8v-12.9h1.8v5h1.9V2978z"/>
			<path class="st1" d="M73.8,2977.6v1.5H62.2v-1.5h2.6v-1.6c-0.9-0.4-1.5-1.1-1.5-1.9c0-1.5,1.8-2.5,4.7-2.5c2.9,0,4.7,0.9,4.7,2.5
				c0,0.8-0.5,1.5-1.5,1.9v1.5H73.8z M72.5,2982c0,1.5-1.7,2.4-4.5,2.4s-4.5-0.9-4.5-2.4s1.7-2.3,4.5-2.3S72.5,2980.5,72.5,2982z
				 M65.2,2974.1c0,0.7,1,1.1,2.8,1.1c1.8,0,2.8-0.4,2.8-1.1c0-0.7-1-1.1-2.8-1.1C66.2,2973.1,65.2,2973.4,65.2,2974.1z M70.6,2982
				c0-0.7-0.9-0.9-2.6-0.9c-1.7,0-2.6,0.3-2.6,0.9s0.9,1,2.6,1C69.7,2983,70.6,2982.7,70.6,2982z M66.6,2977.6h2.7v-1.1
				c-0.4,0-0.9,0.1-1.3,0.1c-0.5,0-0.9,0-1.4-0.1V2977.6z"/>
			<path class="st1" d="M79.6,2974.7v-1h-4.1v-1.5h5.9v3.9h-4v1.1c2.1,0,3.5-0.1,5.1-0.4l0.2,1.5c-1.8,0.3-3.4,0.4-6,0.4h-1.1v-4
				H79.6z M85.3,2981.9c0,1.5-1.7,2.5-4.4,2.5s-4.4-0.9-4.4-2.5c0-1.6,1.7-2.5,4.4-2.5S85.3,2980.4,85.3,2981.9z M83.5,2981.9
				c0-0.7-0.9-1-2.5-1c-1.7,0-2.5,0.3-2.5,1c0,0.7,0.9,1,2.5,1C82.6,2983,83.5,2982.6,83.5,2981.9z M85.2,2974.7v1.2h1.7v1.5h-1.7
				v1.8h-1.8v-7.8h1.8v1.7h1.7v1.5H85.2z"/>
		</g>
		<g class="st0">
			<path class="st2" d="M25.6,3000.5c-1.2,0.2-2.3,0.3-4.2,0.3h-0.7v-4.1h4v0.7h-3.1v2.8c1.8,0,2.8-0.1,4-0.3L25.6,3000.5z
				 M22.5,3004h5.2v0.7h-6v-2.9h0.8V3004z M28.6,2998.5v0.7h-1.3v3.1h-0.8v-6.5h0.8v2.7H28.6z"/>
			<path class="st2" d="M35.4,3001c-0.8,0.2-1.7,0.2-2.6,0.3v3.2H32v-3.2c-0.9,0-1.7,0-2.5,0l-0.1-0.7c1.7,0,3.9,0,5.9-0.3
				L35.4,3001z M30.1,2998.2c0-1.1,0.9-1.8,2.3-1.8c1.3,0,2.3,0.8,2.3,1.8c0,1.1-0.9,1.8-2.3,1.8C31.1,3000,30.1,2999.2,30.1,2998.2
				z M30.9,2998.2c0,0.7,0.6,1.2,1.5,1.2c0.9,0,1.5-0.5,1.5-1.2c0-0.7-0.6-1.2-1.5-1.2C31.5,2997,30.9,2997.5,30.9,2998.2z
				 M36.8,2995.9v9H36v-9H36.8z"/>
			<path class="st2" d="M41.1,2999.5c0-0.4,0.3-0.7,0.7-0.7s0.7,0.3,0.7,0.7c0,0.4-0.3,0.7-0.7,0.7S41.1,2999.9,41.1,2999.5z
				 M41.1,3003.6c0-0.4,0.3-0.7,0.7-0.7s0.7,0.3,0.7,0.7c0,0.4-0.3,0.7-0.7,0.7S41.1,3004,41.1,3003.6z"/>
			<path class="st2" d="M54,3001v0.7h-8.1v-0.7h3.6v-0.9H47v-3.8h6v0.6h-5.2v0.9h5v0.6h-5v1h5.3v0.6h-2.7v0.9H54z M47.8,3004h5.4
				v0.7H47v-2.4h0.8V3004z"/>
		</g>
		<path id="패스_4980" class="st3" d="M135,3135h52v-99.7h-52V3135z"/>
		<g class="st0">
			<path class="st4" d="M151.2,3125.4c0.6-0.6,1.1-1,1.5-1.4s0.7-0.7,0.9-1.1c0.2-0.4,0.4-0.8,0.4-1.2c0-0.4-0.1-0.7-0.3-0.9
				c-0.2-0.2-0.5-0.3-0.9-0.3c-0.4,0-0.7,0.1-0.9,0.4s-0.3,0.6-0.3,1h-1.1c0-0.8,0.2-1.3,0.7-1.7c0.4-0.4,1-0.6,1.7-0.6
				c0.7,0,1.3,0.2,1.7,0.6c0.4,0.4,0.6,0.9,0.6,1.6c0,0.5-0.1,0.9-0.4,1.4c-0.2,0.4-0.5,0.8-0.9,1.2c-0.3,0.3-0.8,0.8-1.3,1.2
				l-0.5,0.4h3.2v1h-4.9v-0.8L151.2,3125.4z"/>
			<path class="st4" d="M156.9,3120.5c0.4-0.6,1.1-1,2-1c1,0,1.6,0.3,2,1c0.4,0.7,0.6,1.6,0.6,2.7c0,1.2-0.2,2.1-0.6,2.7s-1.1,1-2,1
				c-1,0-1.6-0.3-2-1c-0.4-0.7-0.6-1.6-0.6-2.7C156.3,3122,156.5,3121.1,156.9,3120.5z M160.3,3121.8c-0.1-0.4-0.2-0.7-0.4-0.9
				c-0.2-0.2-0.5-0.4-0.9-0.4c-0.4,0-0.7,0.1-1,0.4c-0.2,0.2-0.4,0.5-0.4,0.9c-0.1,0.4-0.1,0.8-0.1,1.4c0,0.6,0,1,0.1,1.4
				c0.1,0.4,0.2,0.7,0.4,0.9c0.2,0.2,0.5,0.4,1,0.4c0.4,0,0.7-0.1,1-0.4c0.2-0.2,0.4-0.5,0.4-0.9c0.1-0.4,0.1-0.8,0.1-1.4
				C160.4,3122.6,160.4,3122.2,160.3,3121.8z"/>
			<path class="st4" d="M162.6,3120.7v-1h2.1v7.3h-1.2v-6.2H162.6z"/>
			<path class="st4" d="M166.4,3121.5c0-0.4,0.1-0.7,0.3-1c0.2-0.3,0.4-0.5,0.8-0.7s0.8-0.3,1.3-0.3c0.5,0,1,0.1,1.3,0.3
				s0.6,0.4,0.8,0.7c0.2,0.3,0.3,0.6,0.3,1c0,0.4-0.1,0.7-0.3,1c-0.2,0.3-0.4,0.5-0.8,0.7c0.4,0.1,0.7,0.4,0.9,0.7s0.3,0.7,0.3,1.1
				c0,0.4-0.1,0.8-0.3,1.1c-0.2,0.3-0.5,0.6-0.9,0.8s-0.8,0.3-1.3,0.3s-0.9-0.1-1.3-0.3c-0.4-0.2-0.7-0.4-0.9-0.8
				c-0.2-0.3-0.3-0.7-0.3-1.1s0.1-0.8,0.3-1.1s0.5-0.5,0.9-0.7C166.8,3122.8,166.4,3122.2,166.4,3121.5z M167.8,3123.9
				c-0.3,0.2-0.4,0.5-0.4,0.9c0,0.4,0.1,0.7,0.4,0.9s0.6,0.4,1.1,0.4c0.5,0,0.8-0.1,1.1-0.4c0.3-0.2,0.4-0.5,0.4-0.9
				c0-0.4-0.1-0.7-0.4-0.9c-0.3-0.2-0.6-0.3-1.1-0.3C168.4,3123.6,168,3123.7,167.8,3123.9z M169.8,3120.8c-0.2-0.2-0.6-0.3-1-0.3
				c-0.4,0-0.7,0.1-1,0.3s-0.3,0.5-0.3,0.9c0,0.3,0.1,0.6,0.4,0.8s0.6,0.3,0.9,0.3s0.7-0.1,0.9-0.3c0.2-0.2,0.4-0.5,0.4-0.8
				C170.1,3121.2,170,3121,169.8,3120.8z"/>
		</g>
		<g class="st0">
			<path class="st5" d="M134,3019.6v-1.2h2.5v8.7h-1.4v-7.5H134z"/>
			<path class="st5" d="M139.2,3018.8c0.5-0.4,1.2-0.6,2-0.6c0.6,0,1,0.1,1.5,0.3c0.4,0.2,0.7,0.5,0.9,0.8s0.3,0.7,0.3,1.2
				c0,0.5-0.1,0.9-0.4,1.3c-0.3,0.4-0.6,0.6-0.9,0.7v0c0.5,0.1,0.8,0.4,1.1,0.8c0.3,0.4,0.4,0.9,0.4,1.5c0,0.5-0.1,0.9-0.3,1.3
				s-0.5,0.7-1,0.9c-0.4,0.2-0.9,0.3-1.5,0.3c-0.9,0-1.6-0.2-2.1-0.7c-0.6-0.4-0.9-1.1-0.9-1.9h1.3c0,0.4,0.2,0.8,0.5,1
				c0.3,0.3,0.7,0.4,1.2,0.4c0.5,0,0.9-0.1,1.1-0.4c0.3-0.3,0.4-0.6,0.4-1c0-0.6-0.2-1-0.5-1.2c-0.4-0.2-0.9-0.4-1.6-0.4h-0.3v-1.1
				h0.3c0.6,0,1.1-0.1,1.5-0.3c0.3-0.2,0.5-0.5,0.5-1c0-0.4-0.1-0.7-0.4-0.9c-0.2-0.2-0.6-0.3-1.1-0.3c-0.4,0-0.8,0.1-1,0.3
				c-0.2,0.2-0.4,0.5-0.4,0.8h-1.3C138.4,3019.8,138.6,3019.2,139.2,3018.8z"/>
			<path class="st5" d="M147.1,3025.5l-1.5,3.3h-0.9l0.9-3.3H147.1z"/>
			<path class="st5" d="M148,3019.6v-1.2h2.5v8.7h-1.4v-7.5H148z"/>
			<path class="st5" d="M152.2,3019.6v-1.2h2.5v8.7h-1.4v-7.5H152.2z"/>
			<path class="st5" d="M156.8,3020.6c0-0.4,0.1-0.8,0.3-1.2c0.2-0.4,0.5-0.6,1-0.9c0.4-0.2,1-0.3,1.6-0.3c0.6,0,1.1,0.1,1.6,0.3
				s0.8,0.5,1,0.9c0.2,0.4,0.3,0.8,0.3,1.2c0,0.4-0.1,0.8-0.3,1.2c-0.2,0.3-0.5,0.6-0.9,0.8c0.5,0.2,0.8,0.4,1.1,0.8
				s0.4,0.8,0.4,1.3c0,0.5-0.1,1-0.4,1.4c-0.3,0.4-0.6,0.7-1.1,0.9c-0.5,0.2-1,0.3-1.6,0.3s-1.1-0.1-1.6-0.3
				c-0.5-0.2-0.8-0.5-1.1-0.9c-0.3-0.4-0.4-0.9-0.4-1.4c0-0.5,0.1-1,0.4-1.3s0.6-0.6,1.1-0.8
				C157.2,3022.1,156.8,3021.5,156.8,3020.6z M158.4,3023.5c-0.3,0.3-0.5,0.6-0.5,1.1c0,0.5,0.2,0.8,0.5,1.1
				c0.3,0.3,0.8,0.4,1.3,0.4c0.5,0,1-0.1,1.3-0.4c0.3-0.3,0.5-0.7,0.5-1.1c0-0.5-0.2-0.9-0.5-1.1c-0.3-0.3-0.8-0.4-1.3-0.4
				C159.1,3023.1,158.7,3023.3,158.4,3023.5z M160.8,3019.7c-0.3-0.2-0.7-0.4-1.2-0.4c-0.5,0-0.9,0.1-1.1,0.4
				c-0.3,0.2-0.4,0.6-0.4,1c0,0.4,0.1,0.7,0.4,1s0.7,0.4,1.1,0.4s0.8-0.1,1.1-0.4s0.4-0.6,0.4-1
				C161.2,3020.3,161.1,3020,160.8,3019.7z"/>
			<path class="st5" d="M165.9,3025.5l-1.5,3.3h-0.9l0.9-3.3H165.9z"/>
			<path class="st5" d="M166.8,3025.3v-1l4-5.8h1.7v5.6h1.1v1.2h-1.1v1.8h-1.3v-1.8H166.8z M171.2,3019.9l-2.8,4.2h2.8V3019.9z"/>
			<path class="st5" d="M175.4,3019.4c0.5-0.8,1.3-1.2,2.4-1.2s2,0.4,2.4,1.2c0.5,0.8,0.7,1.9,0.7,3.2c0,1.4-0.2,2.5-0.7,3.3
				c-0.5,0.8-1.3,1.2-2.4,1.2s-1.9-0.4-2.4-1.2c-0.5-0.8-0.7-1.9-0.7-3.3C174.7,3021.2,174.9,3020.2,175.4,3019.4z M179.5,3021
				c-0.1-0.4-0.3-0.8-0.5-1.1c-0.3-0.3-0.6-0.4-1.1-0.4c-0.5,0-0.9,0.1-1.1,0.4c-0.3,0.3-0.4,0.7-0.5,1.1s-0.1,1-0.1,1.6
				c0,0.7,0,1.2,0.1,1.7c0.1,0.5,0.2,0.8,0.5,1.1c0.3,0.3,0.6,0.4,1.1,0.4c0.5,0,0.9-0.1,1.1-0.4c0.3-0.3,0.4-0.6,0.5-1.1
				c0.1-0.5,0.1-1,0.1-1.7C179.6,3022,179.5,3021.4,179.5,3021z"/>
			<path class="st5" d="M183.1,3025.3c0.8-0.7,1.4-1.2,1.8-1.6s0.8-0.9,1.1-1.3s0.4-0.9,0.4-1.4c0-0.5-0.1-0.9-0.3-1.1
				c-0.2-0.3-0.6-0.4-1.1-0.4c-0.5,0-0.8,0.1-1.1,0.4c-0.3,0.3-0.4,0.7-0.4,1.2h-1.3c0-0.9,0.3-1.6,0.8-2.1c0.5-0.5,1.2-0.7,2-0.7
				c0.9,0,1.6,0.2,2,0.7c0.5,0.5,0.7,1.1,0.7,1.9c0,0.6-0.1,1.1-0.4,1.7c-0.3,0.5-0.6,1-1,1.4c-0.4,0.4-0.9,0.9-1.5,1.5l-0.5,0.5
				h3.8v1.1h-5.8v-1L183.1,3025.3z"/>
		</g>
		<path id="패스_4982" class="st3" d="M206,3135h52v-110.6h-52V3135z"/>
		<g class="st0">
			<path class="st4" d="M222.2,3125.4c0.6-0.6,1.1-1,1.5-1.4s0.7-0.7,0.9-1.1c0.2-0.4,0.4-0.8,0.4-1.2c0-0.4-0.1-0.7-0.3-0.9
				c-0.2-0.2-0.5-0.3-0.9-0.3c-0.4,0-0.7,0.1-0.9,0.4c-0.2,0.2-0.3,0.6-0.3,1h-1.1c0-0.8,0.2-1.3,0.7-1.7s1-0.6,1.7-0.6
				c0.7,0,1.3,0.2,1.7,0.6c0.4,0.4,0.6,0.9,0.6,1.6c0,0.5-0.1,0.9-0.4,1.4c-0.2,0.4-0.5,0.8-0.9,1.2s-0.8,0.8-1.3,1.2l-0.4,0.4h3.2
				v1h-4.9v-0.8L222.2,3125.4z"/>
			<path class="st4" d="M227.9,3120.5c0.4-0.6,1.1-1,2-1s1.6,0.3,2,1c0.4,0.7,0.6,1.6,0.6,2.7c0,1.2-0.2,2.1-0.6,2.7
				c-0.4,0.7-1.1,1-2,1s-1.6-0.3-2-1c-0.4-0.7-0.6-1.6-0.6-2.7C227.4,3122,227.5,3121.1,227.9,3120.5z M231.3,3121.8
				c-0.1-0.4-0.2-0.7-0.4-0.9c-0.2-0.2-0.5-0.4-1-0.4s-0.7,0.1-1,0.4c-0.2,0.2-0.4,0.5-0.4,0.9c-0.1,0.4-0.1,0.8-0.1,1.4
				c0,0.6,0,1,0.1,1.4s0.2,0.7,0.4,0.9s0.5,0.4,1,0.4s0.7-0.1,1-0.4s0.4-0.5,0.4-0.9s0.1-0.8,0.1-1.4
				C231.4,3122.6,231.4,3122.2,231.3,3121.8z"/>
			<path class="st4" d="M233.6,3120.7v-1h2.1v7.3h-1.1v-6.2H233.6z"/>
			<path class="st4" d="M239.1,3125.7c0.2,0.2,0.5,0.3,0.9,0.3c0.5,0,0.8-0.2,1-0.6c0.2-0.4,0.3-1,0.3-1.9c-0.2,0.2-0.4,0.4-0.7,0.5
				c-0.3,0.1-0.6,0.2-0.9,0.2c-0.4,0-0.8-0.1-1.2-0.3c-0.4-0.2-0.6-0.4-0.8-0.8c-0.2-0.3-0.3-0.8-0.3-1.3c0-0.7,0.2-1.3,0.6-1.8
				c0.4-0.4,1-0.7,1.8-0.7c0.9,0,1.6,0.3,1.9,0.9c0.4,0.6,0.6,1.5,0.6,2.8c0,0.9-0.1,1.6-0.2,2.1c-0.1,0.5-0.4,1-0.7,1.2
				c-0.4,0.3-0.8,0.4-1.5,0.4c-0.7,0-1.3-0.2-1.6-0.6c-0.4-0.4-0.6-0.8-0.7-1.4h1C238.8,3125.3,238.9,3125.5,239.1,3125.7z
				 M240.9,3122.9c0.2-0.2,0.3-0.6,0.3-1c0-0.5-0.1-0.8-0.4-1.1s-0.6-0.4-1-0.4s-0.8,0.1-1,0.4c-0.2,0.3-0.4,0.6-0.4,1
				c0,0.4,0.1,0.7,0.4,1c0.2,0.3,0.6,0.4,1.1,0.4C240.4,3123.2,240.7,3123.1,240.9,3122.9z"/>
		</g>
		<g class="st0">
			<path class="st5" d="M201.2,3008.6v-1.2h2.5v8.7h-1.4v-7.5H201.2z"/>
			<path class="st5" d="M206.4,3014.3c0.8-0.7,1.4-1.2,1.8-1.6c0.4-0.4,0.8-0.9,1.1-1.3s0.4-0.9,0.4-1.4c0-0.5-0.1-0.9-0.3-1.1
				c-0.2-0.3-0.6-0.4-1.1-0.4c-0.5,0-0.8,0.1-1.1,0.4c-0.3,0.3-0.4,0.7-0.4,1.2h-1.3c0-0.9,0.3-1.6,0.8-2.1c0.5-0.5,1.2-0.7,2-0.7
				c0.9,0,1.6,0.2,2,0.7c0.5,0.5,0.7,1.1,0.7,1.9c0,0.6-0.1,1.1-0.4,1.7c-0.3,0.5-0.6,1-1,1.4c-0.4,0.4-0.9,0.9-1.5,1.5l-0.5,0.5
				h3.8v1.1h-5.8v-1L206.4,3014.3z"/>
			<path class="st5" d="M214.2,3014.5l-1.5,3.3h-0.9l0.9-3.3H214.2z"/>
			<path class="st5" d="M216,3008.4c0.5-0.8,1.3-1.2,2.4-1.2c1.1,0,2,0.4,2.4,1.2c0.5,0.8,0.7,1.9,0.7,3.2c0,1.4-0.2,2.5-0.7,3.3
				c-0.5,0.8-1.3,1.2-2.4,1.2c-1.1,0-1.9-0.4-2.4-1.2c-0.5-0.8-0.7-1.9-0.7-3.3C215.3,3010.2,215.5,3009.2,216,3008.4z M220,3010
				c-0.1-0.4-0.3-0.8-0.5-1.1c-0.3-0.3-0.6-0.4-1.1-0.4c-0.5,0-0.9,0.1-1.1,0.4c-0.3,0.3-0.4,0.7-0.5,1.1s-0.1,1-0.1,1.6
				c0,0.7,0,1.2,0.1,1.7c0.1,0.5,0.2,0.8,0.5,1.1c0.3,0.3,0.6,0.4,1.1,0.4c0.5,0,0.9-0.1,1.1-0.4c0.3-0.3,0.4-0.6,0.5-1.1
				s0.1-1,0.1-1.7C220.2,3011,220.1,3010.4,220,3010z"/>
			<path class="st5" d="M223.2,3009.6c0-0.4,0.1-0.8,0.3-1.2c0.2-0.4,0.5-0.6,1-0.9c0.4-0.2,1-0.3,1.6-0.3c0.6,0,1.1,0.1,1.6,0.3
				c0.4,0.2,0.8,0.5,1,0.9c0.2,0.4,0.3,0.8,0.3,1.2c0,0.4-0.1,0.8-0.3,1.2c-0.2,0.3-0.5,0.6-0.9,0.8c0.5,0.2,0.8,0.4,1.1,0.8
				s0.4,0.8,0.4,1.3c0,0.5-0.1,1-0.4,1.4c-0.3,0.4-0.6,0.7-1.1,0.9c-0.5,0.2-1,0.3-1.6,0.3s-1.1-0.1-1.6-0.3
				c-0.5-0.2-0.8-0.5-1.1-0.9c-0.3-0.4-0.4-0.9-0.4-1.4c0-0.5,0.1-1,0.4-1.3s0.6-0.6,1.1-0.8
				C223.6,3011.1,223.2,3010.5,223.2,3009.6z M224.8,3012.5c-0.3,0.3-0.5,0.6-0.5,1.1c0,0.5,0.2,0.8,0.5,1.1
				c0.3,0.3,0.8,0.4,1.3,0.4c0.5,0,1-0.1,1.3-0.4c0.3-0.3,0.5-0.7,0.5-1.1c0-0.5-0.2-0.9-0.5-1.1c-0.3-0.3-0.8-0.4-1.3-0.4
				S225.1,3012.3,224.8,3012.5z M227.2,3008.7c-0.3-0.2-0.7-0.4-1.2-0.4c-0.5,0-0.9,0.1-1.1,0.4c-0.3,0.2-0.4,0.6-0.4,1
				c0,0.4,0.1,0.7,0.4,1s0.7,0.4,1.1,0.4s0.8-0.1,1.1-0.4s0.4-0.6,0.4-1C227.6,3009.3,227.5,3009,227.2,3008.7z"/>
			<path class="st5" d="M230.4,3014.3v-1l4-5.8h1.7v5.6h1.1v1.2h-1.1v1.8h-1.3v-1.8H230.4z M234.8,3008.9l-2.8,4.2h2.8V3008.9z"/>
			<path class="st5" d="M240,3014.5l-1.5,3.3h-0.9l0.9-3.3H240z"/>
			<path class="st5" d="M243.3,3014.7c0.3,0.2,0.6,0.3,1.1,0.3c0.6,0,1-0.2,1.2-0.7c0.3-0.4,0.4-1.2,0.4-2.3
				c-0.2,0.3-0.5,0.5-0.8,0.6c-0.3,0.1-0.7,0.2-1.1,0.2c-0.5,0-1-0.1-1.4-0.3s-0.8-0.5-1-0.9s-0.4-0.9-0.4-1.5
				c0-0.9,0.3-1.6,0.8-2.1c0.5-0.5,1.2-0.8,2.1-0.8c1.1,0,1.9,0.4,2.3,1.1c0.5,0.7,0.7,1.8,0.7,3.3c0,1-0.1,1.9-0.3,2.5
				c-0.2,0.7-0.5,1.2-0.9,1.5s-1,0.5-1.8,0.5c-0.9,0-1.5-0.2-2-0.7c-0.5-0.4-0.7-1-0.8-1.7h1.3
				C242.8,3014.1,243,3014.4,243.3,3014.7z M245.4,3011.2c0.3-0.3,0.4-0.7,0.4-1.2c0-0.6-0.1-1-0.4-1.3c-0.3-0.3-0.7-0.5-1.2-0.5
				s-0.9,0.2-1.2,0.5c-0.3,0.3-0.4,0.7-0.4,1.2c0,0.5,0.1,0.9,0.4,1.2c0.3,0.3,0.7,0.5,1.3,0.5
				C244.8,3011.7,245.2,3011.5,245.4,3011.2z"/>
			<path class="st5" d="M248.9,3009.6c0-0.4,0.1-0.8,0.3-1.2c0.2-0.4,0.5-0.6,1-0.9s1-0.3,1.6-0.3c0.6,0,1.1,0.1,1.6,0.3
				c0.4,0.2,0.8,0.5,1,0.9c0.2,0.4,0.3,0.8,0.3,1.2c0,0.4-0.1,0.8-0.3,1.2c-0.2,0.3-0.5,0.6-0.9,0.8c0.5,0.2,0.8,0.4,1.1,0.8
				s0.4,0.8,0.4,1.3c0,0.5-0.1,1-0.4,1.4c-0.3,0.4-0.6,0.7-1.1,0.9c-0.5,0.2-1,0.3-1.6,0.3s-1.1-0.1-1.6-0.3
				c-0.5-0.2-0.8-0.5-1.1-0.9c-0.3-0.4-0.4-0.9-0.4-1.4c0-0.5,0.1-1,0.4-1.3s0.6-0.6,1.1-0.8
				C249.3,3011.1,248.9,3010.5,248.9,3009.6z M250.5,3012.5c-0.3,0.3-0.5,0.6-0.5,1.1c0,0.5,0.2,0.8,0.5,1.1
				c0.3,0.3,0.8,0.4,1.3,0.4c0.5,0,1-0.1,1.3-0.4c0.3-0.3,0.5-0.7,0.5-1.1c0-0.5-0.2-0.9-0.5-1.1c-0.3-0.3-0.8-0.4-1.3-0.4
				C251.3,3012.1,250.8,3012.3,250.5,3012.5z M252.9,3008.7c-0.3-0.2-0.7-0.4-1.2-0.4c-0.5,0-0.9,0.1-1.1,0.4
				c-0.3,0.2-0.4,0.6-0.4,1c0,0.4,0.1,0.7,0.4,1s0.7,0.4,1.1,0.4s0.8-0.1,1.1-0.4s0.4-0.6,0.4-1
				C253.4,3009.3,253.2,3009,252.9,3008.7z"/>
			<path class="st5" d="M262,3008.5h-4v2.4c0.2-0.2,0.4-0.4,0.8-0.6c0.3-0.2,0.7-0.2,1.1-0.2c0.7,0,1.2,0.1,1.6,0.4s0.7,0.7,0.9,1.1
				c0.2,0.4,0.3,0.9,0.3,1.4c0,0.6-0.1,1.1-0.3,1.6c-0.2,0.5-0.6,0.8-1,1.1c-0.5,0.3-1,0.4-1.7,0.4c-0.9,0-1.6-0.2-2.1-0.6
				c-0.5-0.4-0.8-1-0.9-1.7h1.3c0.1,0.4,0.3,0.7,0.6,0.9c0.3,0.2,0.7,0.3,1.1,0.3c0.6,0,1-0.2,1.3-0.5c0.3-0.3,0.4-0.8,0.4-1.4
				c0-0.6-0.1-1-0.4-1.3c-0.3-0.3-0.7-0.5-1.3-0.5c-0.4,0-0.7,0.1-1,0.3c-0.3,0.2-0.5,0.5-0.6,0.8h-1.3v-5.1h5.3V3008.5z"/>
		</g>
		<path id="패스_4984" class="st1" d="M277,3135h52v-72.8h-52V3135z"/>
		<g class="st0">
			<path class="st6" d="M291.5,3125.3c0.6-0.5,1.1-1,1.5-1.3s0.7-0.7,1-1.1s0.4-0.8,0.4-1.1c0-0.3-0.1-0.6-0.2-0.8
				c-0.2-0.2-0.4-0.3-0.7-0.3c-0.3,0-0.6,0.1-0.8,0.3s-0.3,0.5-0.3,0.9H291c0-0.8,0.3-1.4,0.7-1.8s1-0.6,1.7-0.6
				c0.8,0,1.3,0.2,1.8,0.6s0.6,0.9,0.6,1.6c0,0.5-0.1,1-0.4,1.5c-0.3,0.5-0.6,0.9-1,1.2c-0.4,0.4-0.8,0.8-1.4,1.3h3v1.2H291v-1
				L291.5,3125.3z"/>
			<path class="st6" d="M297.4,3120.5c0.4-0.7,1.1-1,2.1-1s1.7,0.3,2.1,1s0.6,1.6,0.6,2.7c0,1.2-0.2,2.1-0.6,2.7s-1.1,1-2.1,1
				s-1.7-0.3-2.1-1c-0.4-0.7-0.6-1.6-0.6-2.7C296.8,3122,297,3121.1,297.4,3120.5z M300.7,3121.9c-0.1-0.3-0.2-0.6-0.4-0.8
				c-0.2-0.2-0.5-0.3-0.8-0.3c-0.4,0-0.7,0.1-0.8,0.3c-0.2,0.2-0.3,0.5-0.4,0.8c-0.1,0.3-0.1,0.8-0.1,1.2c0,0.5,0,0.9,0.1,1.3
				c0.1,0.3,0.2,0.6,0.4,0.8s0.5,0.3,0.8,0.3c0.4,0,0.7-0.1,0.9-0.3s0.3-0.5,0.4-0.8c0.1-0.3,0.1-0.8,0.1-1.3
				C300.8,3122.7,300.8,3122.3,300.7,3121.9z"/>
			<path class="st6" d="M303.7,3125.3c0.6-0.5,1.2-1,1.5-1.3s0.7-0.7,1-1.1c0.3-0.4,0.4-0.8,0.4-1.1c0-0.3-0.1-0.6-0.2-0.8
				s-0.4-0.3-0.7-0.3s-0.6,0.1-0.8,0.3c-0.2,0.2-0.3,0.5-0.3,0.9h-1.4c0-0.8,0.3-1.4,0.7-1.8c0.5-0.4,1-0.6,1.7-0.6
				c0.8,0,1.3,0.2,1.8,0.6c0.4,0.4,0.6,0.9,0.6,1.6c0,0.5-0.1,1-0.4,1.5s-0.6,0.9-1,1.2c-0.4,0.4-0.8,0.8-1.4,1.3h3v1.2h-4.9v-1
				L303.7,3125.3z"/>
			<path class="st6" d="M309.6,3120.5c0.4-0.7,1.1-1,2.1-1s1.7,0.3,2.1,1s0.6,1.6,0.6,2.7c0,1.2-0.2,2.1-0.6,2.7s-1.1,1-2.1,1
				s-1.7-0.3-2.1-1c-0.4-0.7-0.6-1.6-0.6-2.7C309,3122,309.2,3121.1,309.6,3120.5z M312.9,3121.9c-0.1-0.3-0.2-0.6-0.4-0.8
				c-0.2-0.2-0.5-0.3-0.8-0.3c-0.4,0-0.7,0.1-0.8,0.3c-0.2,0.2-0.3,0.5-0.4,0.8c-0.1,0.3-0.1,0.8-0.1,1.2c0,0.5,0,0.9,0.1,1.3
				c0.1,0.3,0.2,0.6,0.4,0.8s0.5,0.3,0.8,0.3c0.4,0,0.7-0.1,0.9-0.3s0.3-0.5,0.4-0.8c0.1-0.3,0.1-0.8,0.1-1.3
				C313,3122.7,313,3122.3,312.9,3121.9z"/>
		</g>
		<g class="st0">
			<path class="st1" d="M276.5,3047.6c0-0.4,0.1-0.8,0.3-1.2c0.2-0.4,0.5-0.6,1-0.9c0.4-0.2,1-0.3,1.6-0.3c0.6,0,1.1,0.1,1.6,0.3
				c0.4,0.2,0.8,0.5,1,0.9c0.2,0.4,0.3,0.8,0.3,1.2c0,0.4-0.1,0.8-0.3,1.2c-0.2,0.3-0.5,0.6-0.9,0.8c0.5,0.2,0.8,0.4,1.1,0.8
				s0.4,0.8,0.4,1.3c0,0.5-0.1,1-0.4,1.4c-0.3,0.4-0.6,0.7-1.1,0.9c-0.5,0.2-1,0.3-1.6,0.3s-1.1-0.1-1.6-0.3
				c-0.5-0.2-0.8-0.5-1.1-0.9c-0.3-0.4-0.4-0.9-0.4-1.4c0-0.5,0.1-1,0.4-1.3s0.6-0.6,1.1-0.8
				C276.9,3049.2,276.5,3048.5,276.5,3047.6z M278.1,3050.6c-0.3,0.3-0.5,0.6-0.5,1.1c0,0.5,0.2,0.8,0.5,1.1
				c0.3,0.3,0.8,0.4,1.3,0.4c0.5,0,1-0.1,1.3-0.4c0.3-0.3,0.5-0.7,0.5-1.1c0-0.5-0.2-0.9-0.5-1.1c-0.3-0.3-0.8-0.4-1.3-0.4
				S278.4,3050.3,278.1,3050.6z M280.5,3046.7c-0.3-0.2-0.7-0.4-1.2-0.4c-0.5,0-0.9,0.1-1.1,0.4c-0.3,0.2-0.4,0.6-0.4,1
				c0,0.4,0.1,0.7,0.4,1s0.7,0.4,1.1,0.4s0.8-0.1,1.1-0.4s0.4-0.6,0.4-1C280.9,3047.3,280.8,3047,280.5,3046.7z"/>
			<path class="st1" d="M285.6,3052.5l-1.5,3.3h-0.9l0.9-3.3H285.6z"/>
			<path class="st1" d="M292.3,3046.6h-4v2.4c0.2-0.2,0.4-0.4,0.8-0.6c0.3-0.2,0.7-0.2,1.1-0.2c0.7,0,1.2,0.1,1.6,0.4
				s0.7,0.7,0.9,1.1c0.2,0.4,0.3,0.9,0.3,1.4c0,0.6-0.1,1.1-0.3,1.6c-0.2,0.5-0.6,0.8-1,1.1c-0.5,0.3-1,0.4-1.7,0.4
				c-0.9,0-1.6-0.2-2.1-0.6c-0.5-0.4-0.8-1-0.9-1.7h1.3c0.1,0.4,0.3,0.7,0.6,0.9c0.3,0.2,0.7,0.3,1.1,0.3c0.6,0,1-0.2,1.3-0.5
				c0.3-0.3,0.4-0.8,0.4-1.4c0-0.6-0.1-1-0.4-1.3c-0.3-0.3-0.7-0.5-1.3-0.5c-0.4,0-0.7,0.1-1,0.3c-0.3,0.2-0.5,0.5-0.6,0.8H287v-5.1
				h5.3V3046.6z"/>
			<path class="st1" d="M299.9,3046.6h-4v2.4c0.2-0.2,0.4-0.4,0.8-0.6c0.3-0.2,0.7-0.2,1.1-0.2c0.7,0,1.2,0.1,1.6,0.4
				s0.7,0.7,0.9,1.1c0.2,0.4,0.3,0.9,0.3,1.4c0,0.6-0.1,1.1-0.3,1.6c-0.2,0.5-0.6,0.8-1,1.1c-0.5,0.3-1,0.4-1.7,0.4
				c-0.9,0-1.6-0.2-2.1-0.6c-0.5-0.4-0.8-1-0.9-1.7h1.3c0.1,0.4,0.3,0.7,0.6,0.9c0.3,0.2,0.7,0.3,1.1,0.3c0.6,0,1-0.2,1.3-0.5
				c0.3-0.3,0.4-0.8,0.4-1.4c0-0.6-0.1-1-0.4-1.3c-0.3-0.3-0.7-0.5-1.3-0.5c-0.4,0-0.7,0.1-1,0.3c-0.3,0.2-0.5,0.5-0.6,0.8h-1.3
				v-5.1h5.3V3046.6z"/>
			<path class="st1" d="M306.2,3046.6c-0.2-0.2-0.6-0.3-1-0.3c-0.6,0-1.1,0.2-1.4,0.7c-0.3,0.5-0.5,1.3-0.5,2.4
				c0.2-0.4,0.5-0.6,0.9-0.8c0.4-0.2,0.8-0.3,1.3-0.3c0.5,0,1,0.1,1.4,0.3c0.4,0.2,0.7,0.6,0.9,1c0.2,0.4,0.3,0.9,0.3,1.5
				c0,0.6-0.1,1.1-0.3,1.5c-0.2,0.4-0.5,0.8-1,1c-0.4,0.3-1,0.4-1.6,0.4c-0.8,0-1.5-0.2-1.9-0.5c-0.5-0.4-0.8-0.9-1-1.5
				s-0.3-1.5-0.3-2.5c0-2.9,1-4.4,3.1-4.4c0.8,0,1.4,0.2,1.9,0.6c0.5,0.4,0.7,1,0.8,1.6h-1.3
				C306.6,3047.1,306.4,3046.8,306.2,3046.6z M304,3049.9c-0.3,0.3-0.5,0.7-0.5,1.3c0,0.6,0.2,1,0.5,1.3c0.3,0.3,0.8,0.5,1.3,0.5
				c0.5,0,0.9-0.2,1.2-0.5c0.3-0.3,0.4-0.7,0.4-1.2c0-0.5-0.1-1-0.4-1.3c-0.3-0.3-0.7-0.5-1.3-0.5
				C304.7,3049.5,304.3,3049.7,304,3049.9z"/>
			<path class="st1" d="M311.3,3052.5l-1.5,3.3H309l0.9-3.3H311.3z"/>
			<path class="st1" d="M313.1,3046.4c0.5-0.8,1.3-1.2,2.4-1.2c1.1,0,2,0.4,2.4,1.2c0.5,0.8,0.7,1.9,0.7,3.2c0,1.4-0.2,2.5-0.7,3.3
				c-0.5,0.8-1.3,1.2-2.4,1.2c-1.1,0-1.9-0.4-2.4-1.2c-0.5-0.8-0.7-1.9-0.7-3.3C312.4,3048.3,312.6,3047.2,313.1,3046.4z
				 M317.1,3048c-0.1-0.4-0.3-0.8-0.5-1.1c-0.3-0.3-0.6-0.4-1.1-0.4c-0.5,0-0.9,0.1-1.1,0.4c-0.3,0.3-0.4,0.7-0.5,1.1
				s-0.1,1-0.1,1.6c0,0.7,0,1.2,0.1,1.7c0.1,0.5,0.2,0.8,0.5,1.1c0.3,0.3,0.6,0.4,1.1,0.4c0.5,0,0.9-0.1,1.1-0.4
				c0.3-0.3,0.4-0.6,0.5-1.1s0.1-1,0.1-1.7C317.3,3049,317.2,3048.5,317.1,3048z"/>
			<path class="st1" d="M320.8,3052.3c0.8-0.7,1.4-1.2,1.8-1.6s0.8-0.9,1.1-1.3c0.3-0.5,0.4-0.9,0.4-1.4c0-0.5-0.1-0.9-0.3-1.1
				c-0.2-0.3-0.6-0.4-1.1-0.4c-0.5,0-0.8,0.1-1.1,0.4c-0.3,0.3-0.4,0.7-0.4,1.2h-1.3c0-0.9,0.3-1.6,0.8-2.1c0.5-0.5,1.2-0.7,2-0.7
				c0.9,0,1.6,0.2,2,0.7s0.7,1.1,0.7,1.9c0,0.6-0.1,1.1-0.4,1.7c-0.3,0.5-0.6,1-1,1.4s-0.9,0.9-1.5,1.5l-0.5,0.5h3.8v1.1h-5.8v-1
				L320.8,3052.3z"/>
			<path class="st1" d="M326.8,3046.7v-1.2h2.5v8.7h-1.4v-7.5H326.8z"/>
		</g>
		<path id="패스_4987" class="st7" d="M19.8,3135.2h335"/>
	</g>
	<g id="그룹_5792" transform="translate(0 -23)">
		<g class="st0">
			<path class="st1" d="M32,3155.4v1.5H20.4v-1.5H23v-1.6c-0.9-0.4-1.5-1.1-1.5-1.9c0-1.5,1.8-2.5,4.7-2.5c2.9,0,4.7,0.9,4.7,2.5
				c0,0.8-0.5,1.5-1.5,1.9v1.5H32z M30.6,3159.8c0,1.5-1.7,2.4-4.5,2.4s-4.5-0.9-4.5-2.4s1.7-2.3,4.5-2.3S30.6,3158.3,30.6,3159.8z
				 M23.4,3151.9c0,0.7,1,1.1,2.8,1.1c1.8,0,2.8-0.4,2.8-1.1c0-0.7-1-1.1-2.8-1.1C24.4,3150.8,23.4,3151.2,23.4,3151.9z
				 M28.8,3159.8c0-0.7-0.9-0.9-2.6-0.9c-1.7,0-2.6,0.3-2.6,0.9s0.9,1,2.6,1C27.9,3160.7,28.8,3160.4,28.8,3159.8z M24.8,3155.4h2.7
				v-1.1c-0.4,0-0.9,0.1-1.3,0.1c-0.5,0-0.9,0-1.4-0.1V3155.4z"/>
			<path class="st1" d="M44.9,3157.7H40v4.4h-1.8v-4.4h-4.9v-1.5h11.7V3157.7z M43.8,3155.3c-2.3-0.3-3.9-1.4-4.7-2.8
				c-0.8,1.4-2.5,2.4-4.7,2.8l-0.7-1.5c2.9-0.4,4.4-2.1,4.4-3.6v-0.6h2v0.6c0,1.5,1.5,3.2,4.4,3.6L43.8,3155.3z"/>
			<path class="st1" d="M60.5,3149.2v12.9h-1.8v-6.4h-1.1v5.9h-1.7v-3.7l-1,1.4c-1.1-0.6-1.9-1.7-2.4-2.9c-0.4,1.5-1.2,2.7-2.4,3.4
				l-1.1-1.4c1.9-1.1,2.5-3.4,2.5-5.9v-0.3h-2.1v-1.5h5.8v1.5h-1.9v0.3c0,2.3,0.6,4.4,2.5,5.4v-8.3h1.7v4.7h1.1v-4.9H60.5z"/>
			<path class="st1" d="M66.9,3152.1c0,2.3,0.9,4.7,3,5.7l-1.1,1.5c-1.3-0.7-2.3-1.9-2.8-3.5c-0.6,1.6-1.5,3-3,3.7l-1.1-1.5
				c2.2-1,3.2-3.5,3.2-5.9v-1.9h1.9V3152.1z M74.1,3155.7h-1.9v6.4h-1.8v-12.9h1.8v5h1.9V3155.7z"/>
			<path class="st1" d="M86.7,3155.4v1.5H75.1v-1.5h2.6v-1.6c-0.9-0.4-1.5-1.1-1.5-1.9c0-1.5,1.8-2.5,4.7-2.5c2.9,0,4.7,0.9,4.7,2.5
				c0,0.8-0.5,1.5-1.5,1.9v1.5H86.7z M85.3,3159.8c0,1.5-1.7,2.4-4.5,2.4s-4.5-0.9-4.5-2.4s1.7-2.3,4.5-2.3S85.3,3158.3,85.3,3159.8
				z M78.1,3151.9c0,0.7,1,1.1,2.8,1.1c1.8,0,2.8-0.4,2.8-1.1c0-0.7-1-1.1-2.8-1.1C79.1,3150.8,78.1,3151.2,78.1,3151.9z
				 M83.5,3159.8c0-0.7-0.9-0.9-2.6-0.9c-1.7,0-2.6,0.3-2.6,0.9s0.9,1,2.6,1C82.6,3160.7,83.5,3160.4,83.5,3159.8z M79.5,3155.4h2.7
				v-1.1c-0.4,0-0.9,0.1-1.3,0.1c-0.5,0-0.9,0-1.4-0.1V3155.4z"/>
			<path class="st1" d="M92.4,3152.5v-1h-4.1v-1.5h5.9v3.9h-4v1.1c2.1,0,3.5-0.1,5.1-0.4l0.2,1.5c-1.8,0.3-3.4,0.4-6,0.4h-1.1v-4
				H92.4z M98.2,3159.7c0,1.5-1.7,2.5-4.4,2.5s-4.4-0.9-4.4-2.5c0-1.6,1.7-2.5,4.4-2.5S98.2,3158.1,98.2,3159.7z M96.4,3159.7
				c0-0.7-0.9-1-2.5-1c-1.7,0-2.5,0.3-2.5,1c0,0.7,0.9,1,2.5,1C95.5,3160.7,96.4,3160.4,96.4,3159.7z M98.1,3152.5v1.2h1.7v1.5h-1.7
				v1.8h-1.8v-7.8h1.8v1.7h1.7v1.5H98.1z"/>
		</g>
		<g class="st0">
			<path class="st2" d="M25.6,3178.3c-1.2,0.2-2.3,0.3-4.2,0.3h-0.7v-4.1h4v0.7h-3.1v2.8c1.8,0,2.8-0.1,4-0.3L25.6,3178.3z
				 M22.5,3181.8h5.2v0.7h-6v-2.9h0.8V3181.8z M28.6,3176.4v0.7h-1.3v3.1h-0.8v-6.5h0.8v2.7H28.6z"/>
			<path class="st2" d="M35.4,3178.9c-0.8,0.2-1.7,0.2-2.6,0.3v3.2H32v-3.2c-0.9,0-1.7,0-2.5,0l-0.1-0.7c1.7,0,3.9,0,5.9-0.3
				L35.4,3178.9z M30.1,3176c0-1.1,0.9-1.8,2.3-1.8c1.3,0,2.3,0.8,2.3,1.8c0,1.1-0.9,1.8-2.3,1.8C31.1,3177.8,30.1,3177.1,30.1,3176
				z M30.9,3176c0,0.7,0.6,1.2,1.5,1.2c0.9,0,1.5-0.5,1.5-1.2c0-0.7-0.6-1.2-1.5-1.2C31.5,3174.8,30.9,3175.3,30.9,3176z
				 M36.8,3173.7v9H36v-9H36.8z"/>
			<path class="st2" d="M41.1,3177.3c0-0.4,0.3-0.7,0.7-0.7s0.7,0.3,0.7,0.7c0,0.4-0.3,0.7-0.7,0.7S41.1,3177.7,41.1,3177.3z
				 M41.1,3181.4c0-0.4,0.3-0.7,0.7-0.7s0.7,0.3,0.7,0.7c0,0.4-0.3,0.7-0.7,0.7S41.1,3181.8,41.1,3181.4z"/>
			<path class="st2" d="M54,3178.8v0.7h-8.1v-0.7h3.6v-0.9H47v-3.8h6v0.6h-5.2v0.9h5v0.6h-5v1h5.3v0.6h-2.7v0.9H54z M47.8,3181.8
				h5.4v0.7H47v-2.4h0.8V3181.8z"/>
		</g>
		<path id="패스_4981" class="st3" d="M136,3312.7h52v-104.9h-52V3312.7z"/>
		<g class="st0">
			<path class="st4" d="M152,3303.1c0.6-0.6,1.1-1,1.5-1.4c0.4-0.4,0.7-0.7,0.9-1.1c0.2-0.4,0.4-0.8,0.4-1.2c0-0.4-0.1-0.7-0.3-0.9
				c-0.2-0.2-0.5-0.3-0.9-0.3c-0.4,0-0.7,0.1-0.9,0.4s-0.3,0.6-0.3,1h-1.1c0-0.8,0.2-1.3,0.7-1.7c0.4-0.4,1-0.6,1.7-0.6
				c0.7,0,1.3,0.2,1.7,0.6c0.4,0.4,0.6,0.9,0.6,1.6c0,0.5-0.1,0.9-0.4,1.4c-0.2,0.4-0.5,0.8-0.9,1.2c-0.3,0.3-0.8,0.8-1.3,1.2
				l-0.5,0.4h3.2v0.9h-4.9v-0.8L152,3303.1z"/>
			<path class="st4" d="M157.7,3298.2c0.4-0.6,1.1-1,2-1c1,0,1.6,0.3,2,1c0.4,0.7,0.6,1.6,0.6,2.7c0,1.2-0.2,2.1-0.6,2.7s-1.1,1-2,1
				c-1,0-1.6-0.3-2-1c-0.4-0.7-0.6-1.6-0.6-2.7C157.1,3299.8,157.3,3298.9,157.7,3298.2z M161.1,3299.6c-0.1-0.4-0.2-0.7-0.4-0.9
				c-0.2-0.2-0.5-0.4-0.9-0.4c-0.4,0-0.7,0.1-1,0.4c-0.2,0.2-0.4,0.5-0.4,0.9c-0.1,0.4-0.1,0.8-0.1,1.4c0,0.6,0,1,0.1,1.4
				c0.1,0.4,0.2,0.7,0.4,0.9c0.2,0.2,0.5,0.4,1,0.4c0.4,0,0.7-0.1,1-0.4c0.2-0.2,0.4-0.5,0.4-0.9c0.1-0.4,0.1-0.8,0.1-1.4
				C161.2,3300.4,161.1,3300,161.1,3299.6z"/>
			<path class="st4" d="M163.3,3298.4v-1h2.1v7.3h-1.2v-6.2H163.3z"/>
			<path class="st4" d="M167.2,3299.2c0-0.4,0.1-0.7,0.3-1c0.2-0.3,0.4-0.5,0.8-0.7c0.4-0.2,0.8-0.3,1.3-0.3c0.5,0,1,0.1,1.3,0.3
				c0.4,0.2,0.6,0.4,0.8,0.7s0.3,0.6,0.3,1c0,0.4-0.1,0.7-0.3,1c-0.2,0.3-0.4,0.5-0.8,0.7c0.4,0.1,0.7,0.4,0.9,0.7s0.3,0.7,0.3,1.1
				c0,0.4-0.1,0.8-0.3,1.2s-0.5,0.6-0.9,0.8s-0.8,0.3-1.3,0.3s-0.9-0.1-1.3-0.3c-0.4-0.2-0.7-0.4-0.9-0.8s-0.3-0.7-0.3-1.2
				s0.1-0.8,0.3-1.1c0.2-0.3,0.5-0.5,0.9-0.7C167.5,3300.5,167.2,3300,167.2,3299.2z M168.5,3301.7c-0.3,0.2-0.4,0.5-0.4,0.9
				c0,0.4,0.1,0.7,0.4,0.9s0.6,0.4,1.1,0.4c0.5,0,0.8-0.1,1.1-0.4c0.3-0.2,0.4-0.5,0.4-0.9c0-0.4-0.1-0.7-0.4-0.9
				c-0.3-0.2-0.6-0.3-1.1-0.3C169.1,3301.4,168.8,3301.5,168.5,3301.7z M170.5,3298.5c-0.2-0.2-0.6-0.3-1-0.3c-0.4,0-0.7,0.1-1,0.3
				c-0.2,0.2-0.3,0.5-0.3,0.9c0,0.3,0.1,0.6,0.4,0.8c0.2,0.2,0.6,0.3,0.9,0.3s0.7-0.1,0.9-0.3c0.2-0.2,0.4-0.5,0.4-0.8
				C170.9,3299,170.8,3298.7,170.5,3298.5z"/>
		</g>
		<g class="st0">
			<path class="st5" d="M144.5,3191.9c-0.2-0.2-0.6-0.3-1-0.3c-0.6,0-1.1,0.2-1.4,0.7c-0.3,0.5-0.5,1.3-0.5,2.4
				c0.2-0.4,0.5-0.6,0.9-0.8c0.4-0.2,0.8-0.3,1.3-0.3c0.5,0,1,0.1,1.4,0.3c0.4,0.2,0.7,0.6,0.9,1c0.2,0.4,0.3,0.9,0.3,1.5
				c0,0.6-0.1,1.1-0.3,1.5c-0.2,0.4-0.5,0.8-1,1c-0.4,0.3-1,0.4-1.6,0.4c-0.8,0-1.5-0.2-1.9-0.5c-0.5-0.4-0.8-0.9-1-1.5
				c-0.2-0.7-0.3-1.5-0.3-2.5c0-2.9,1-4.4,3.1-4.4c0.8,0,1.4,0.2,1.9,0.6c0.5,0.4,0.7,1,0.8,1.6H145
				C144.9,3192.3,144.7,3192.1,144.5,3191.9z M142.3,3195.2c-0.3,0.3-0.5,0.7-0.5,1.3c0,0.6,0.2,1,0.5,1.3c0.3,0.3,0.8,0.5,1.3,0.5
				c0.5,0,0.9-0.2,1.2-0.5c0.3-0.3,0.4-0.7,0.4-1.2c0-0.5-0.1-1-0.4-1.3s-0.7-0.5-1.3-0.5C143.1,3194.8,142.6,3194.9,142.3,3195.2z"
				/>
			<path class="st5" d="M148.7,3191.7c0.5-0.8,1.3-1.2,2.4-1.2c1.1,0,2,0.4,2.4,1.2c0.5,0.8,0.7,1.9,0.7,3.2c0,1.4-0.2,2.5-0.7,3.3
				s-1.3,1.2-2.4,1.2c-1.1,0-2-0.4-2.4-1.2s-0.7-1.9-0.7-3.3C148,3193.6,148.2,3192.5,148.7,3191.7z M152.8,3193.3
				c-0.1-0.4-0.3-0.8-0.5-1.1c-0.3-0.3-0.6-0.4-1.1-0.4s-0.9,0.1-1.1,0.4c-0.3,0.3-0.4,0.7-0.5,1.1s-0.1,1-0.1,1.6
				c0,0.7,0,1.2,0.1,1.7s0.2,0.8,0.5,1.1c0.3,0.3,0.6,0.4,1.1,0.4s0.9-0.1,1.1-0.4c0.3-0.3,0.4-0.6,0.5-1.1c0.1-0.5,0.1-1,0.1-1.7
				C152.9,3194.3,152.9,3193.7,152.8,3193.3z"/>
			<path class="st5" d="M155.5,3191.9v-1.2h2.5v8.7h-1.4v-7.5H155.5z"/>
			<path class="st5" d="M161.6,3197.8l-1.5,3.3h-0.9l0.9-3.3H161.6z"/>
			<path class="st5" d="M162.4,3197.6v-1l4-5.8h1.7v5.6h1.1v1.2h-1.1v1.8h-1.3v-1.8H162.4z M166.8,3192.2l-2.8,4.2h2.8V3192.2z"/>
			<path class="st5" d="M171.2,3191.1c0.5-0.4,1.2-0.6,2-0.6c0.6,0,1,0.1,1.5,0.3c0.4,0.2,0.7,0.5,0.9,0.8s0.3,0.7,0.3,1.2
				c0,0.5-0.1,0.9-0.4,1.3c-0.3,0.4-0.6,0.6-0.9,0.7v0c0.5,0.1,0.8,0.4,1.1,0.8c0.3,0.4,0.4,0.9,0.4,1.5c0,0.5-0.1,0.9-0.3,1.3
				s-0.5,0.7-1,0.9c-0.4,0.2-0.9,0.3-1.5,0.3c-0.9,0-1.6-0.2-2.1-0.7c-0.6-0.4-0.9-1.1-0.9-1.9h1.3c0,0.4,0.2,0.8,0.5,1
				c0.3,0.3,0.7,0.4,1.2,0.4c0.5,0,0.9-0.1,1.1-0.4c0.3-0.3,0.4-0.6,0.4-1c0-0.6-0.2-1-0.5-1.2c-0.4-0.2-0.9-0.4-1.6-0.4h-0.3v-1.1
				h0.3c0.6,0,1.1-0.1,1.5-0.3s0.5-0.5,0.5-1c0-0.4-0.1-0.7-0.4-0.9c-0.2-0.2-0.6-0.3-1.1-0.3c-0.4,0-0.8,0.1-1,0.3
				c-0.2,0.2-0.4,0.5-0.4,0.8h-1.3C170.4,3192.1,170.7,3191.5,171.2,3191.1z"/>
			<path class="st5" d="M183.1,3191.9h-4v2.4c0.2-0.2,0.4-0.4,0.8-0.6c0.3-0.2,0.7-0.2,1.1-0.2c0.7,0,1.2,0.1,1.6,0.4
				s0.7,0.7,0.9,1.1c0.2,0.4,0.3,0.9,0.3,1.4c0,0.6-0.1,1.1-0.3,1.6c-0.2,0.5-0.6,0.8-1,1.1c-0.5,0.3-1,0.4-1.7,0.4
				c-0.9,0-1.6-0.2-2.1-0.6c-0.5-0.4-0.8-1-0.9-1.7h1.3c0.1,0.4,0.3,0.7,0.6,0.9s0.7,0.3,1.1,0.3c0.6,0,1-0.2,1.3-0.5
				c0.3-0.3,0.4-0.8,0.4-1.4c0-0.6-0.1-1-0.4-1.3c-0.3-0.3-0.7-0.5-1.3-0.5c-0.4,0-0.7,0.1-1,0.3c-0.3,0.2-0.5,0.5-0.6,0.8h-1.3
				v-5.1h5.3V3191.9z"/>
		</g>
		<path id="패스_4983" class="st3" d="M206,3313.1h52v-108.4h-52V3313.1z"/>
		<g class="st0">
			<path class="st4" d="M222,3303.1c0.6-0.6,1.1-1,1.5-1.4c0.4-0.4,0.7-0.7,0.9-1.1c0.2-0.4,0.4-0.8,0.4-1.2c0-0.4-0.1-0.7-0.3-0.9
				c-0.2-0.2-0.5-0.3-0.9-0.3c-0.4,0-0.7,0.1-0.9,0.4c-0.2,0.2-0.3,0.6-0.3,1h-1.1c0-0.8,0.2-1.3,0.7-1.7c0.4-0.4,1-0.6,1.7-0.6
				c0.7,0,1.3,0.2,1.7,0.6s0.6,0.9,0.6,1.6c0,0.5-0.1,0.9-0.4,1.4c-0.2,0.4-0.5,0.8-0.9,1.2s-0.8,0.8-1.3,1.2l-0.4,0.4h3.2v0.9h-4.9
				v-0.8L222,3303.1z"/>
			<path class="st4" d="M227.7,3298.2c0.4-0.6,1.1-1,2-1s1.6,0.3,2,1c0.4,0.7,0.6,1.6,0.6,2.7c0,1.2-0.2,2.1-0.6,2.7
				c-0.4,0.7-1.1,1-2,1s-1.6-0.3-2-1c-0.4-0.7-0.6-1.6-0.6-2.7C227.1,3299.8,227.3,3298.9,227.7,3298.2z M231.1,3299.6
				c-0.1-0.4-0.2-0.7-0.4-0.9c-0.2-0.2-0.5-0.4-1-0.4s-0.7,0.1-1,0.4c-0.2,0.2-0.4,0.5-0.4,0.9s-0.1,0.8-0.1,1.4c0,0.6,0,1,0.1,1.4
				c0.1,0.4,0.2,0.7,0.4,0.9c0.2,0.2,0.5,0.4,1,0.4s0.7-0.1,1-0.4c0.2-0.2,0.4-0.5,0.4-0.9c0.1-0.4,0.1-0.8,0.1-1.4
				C231.2,3300.4,231.2,3300,231.1,3299.6z"/>
			<path class="st4" d="M233.4,3298.4v-1h2.1v7.3h-1.1v-6.2H233.4z"/>
			<path class="st4" d="M238.9,3303.5c0.2,0.2,0.5,0.3,0.9,0.3c0.5,0,0.8-0.2,1-0.6s0.3-1,0.3-1.9c-0.2,0.2-0.4,0.4-0.7,0.5
				s-0.6,0.2-0.9,0.2c-0.4,0-0.8-0.1-1.2-0.3c-0.4-0.2-0.6-0.4-0.8-0.8c-0.2-0.3-0.3-0.8-0.3-1.3c0-0.7,0.2-1.3,0.6-1.8
				c0.4-0.4,1-0.7,1.8-0.7c0.9,0,1.6,0.3,1.9,0.9c0.4,0.6,0.6,1.5,0.6,2.8c0,0.9-0.1,1.6-0.2,2.1c-0.1,0.5-0.4,1-0.7,1.2
				c-0.4,0.3-0.8,0.4-1.5,0.4c-0.7,0-1.3-0.2-1.6-0.6c-0.4-0.4-0.6-0.8-0.7-1.4h1C238.5,3303,238.6,3303.3,238.9,3303.5z
				 M240.6,3300.6c0.2-0.2,0.3-0.6,0.3-1c0-0.5-0.1-0.8-0.4-1.1c-0.2-0.3-0.6-0.4-1-0.4s-0.8,0.1-1,0.4c-0.2,0.3-0.4,0.6-0.4,1
				c0,0.4,0.1,0.7,0.4,1s0.6,0.4,1.1,0.4C240.1,3301,240.4,3300.9,240.6,3300.6z"/>
		</g>
		<g class="st0">
			<path class="st5" d="M212.4,3189.2c-0.2-0.2-0.6-0.3-1-0.3c-0.6,0-1.1,0.2-1.4,0.7c-0.3,0.5-0.5,1.3-0.5,2.4
				c0.2-0.4,0.5-0.6,0.9-0.8c0.4-0.2,0.8-0.3,1.3-0.3c0.5,0,1,0.1,1.4,0.3c0.4,0.2,0.7,0.6,0.9,1c0.2,0.4,0.3,0.9,0.3,1.5
				c0,0.6-0.1,1.1-0.3,1.5c-0.2,0.4-0.5,0.8-1,1c-0.4,0.3-1,0.4-1.6,0.4c-0.8,0-1.5-0.2-1.9-0.5c-0.5-0.4-0.8-0.9-1-1.5
				c-0.2-0.7-0.3-1.5-0.3-2.5c0-2.9,1-4.4,3.1-4.4c0.8,0,1.4,0.2,1.9,0.6s0.7,1,0.8,1.6h-1.3
				C212.8,3189.7,212.7,3189.4,212.4,3189.2z M210.2,3192.6c-0.3,0.3-0.5,0.7-0.5,1.3c0,0.6,0.2,1,0.5,1.3c0.3,0.3,0.8,0.5,1.3,0.5
				c0.5,0,0.9-0.2,1.2-0.5c0.3-0.3,0.4-0.7,0.4-1.2c0-0.5-0.1-1-0.4-1.3s-0.7-0.5-1.3-0.5C211,3192.1,210.6,3192.3,210.2,3192.6z"/>
			<path class="st5" d="M215.7,3195v-1l4-5.8h1.7v5.6h1.1v1.2h-1.1v1.8h-1.3v-1.8H215.7z M220.2,3189.5l-2.8,4.2h2.8V3189.5z"/>
			<path class="st5" d="M224.4,3189c0.5-0.8,1.3-1.2,2.4-1.2c1.1,0,2,0.4,2.4,1.2s0.7,1.9,0.7,3.2c0,1.4-0.2,2.5-0.7,3.3
				c-0.5,0.8-1.3,1.2-2.4,1.2c-1.1,0-2-0.4-2.4-1.2c-0.5-0.8-0.7-1.9-0.7-3.3C223.7,3190.9,223.9,3189.8,224.4,3189z M228.4,3190.6
				c-0.1-0.4-0.3-0.8-0.5-1.1s-0.6-0.4-1.1-0.4s-0.9,0.1-1.1,0.4c-0.3,0.3-0.4,0.7-0.5,1.1c-0.1,0.4-0.1,1-0.1,1.6
				c0,0.7,0,1.2,0.1,1.7c0.1,0.5,0.2,0.8,0.5,1.1c0.3,0.3,0.6,0.4,1.1,0.4s0.9-0.1,1.1-0.4c0.3-0.3,0.4-0.6,0.5-1.1
				c0.1-0.5,0.1-1,0.1-1.7C228.6,3191.6,228.5,3191.1,228.4,3190.6z"/>
			<path class="st5" d="M233,3195.1l-1.5,3.3h-0.9l0.9-3.3H233z"/>
			<path class="st5" d="M238.3,3189.2c-0.2-0.2-0.6-0.3-1-0.3c-0.6,0-1.1,0.2-1.4,0.7c-0.3,0.5-0.5,1.3-0.5,2.4
				c0.2-0.4,0.5-0.6,0.9-0.8c0.4-0.2,0.8-0.3,1.3-0.3c0.5,0,1,0.1,1.4,0.3c0.4,0.2,0.7,0.6,0.9,1c0.2,0.4,0.3,0.9,0.3,1.5
				c0,0.6-0.1,1.1-0.3,1.5c-0.2,0.4-0.5,0.8-1,1c-0.4,0.3-1,0.4-1.6,0.4c-0.8,0-1.5-0.2-1.9-0.5c-0.5-0.4-0.8-0.9-1-1.5
				c-0.2-0.7-0.3-1.5-0.3-2.5c0-2.9,1-4.4,3.1-4.4c0.8,0,1.4,0.2,1.9,0.6s0.7,1,0.8,1.6h-1.3
				C238.7,3189.7,238.5,3189.4,238.3,3189.2z M236.1,3192.6c-0.3,0.3-0.5,0.7-0.5,1.3c0,0.6,0.2,1,0.5,1.3c0.3,0.3,0.8,0.5,1.3,0.5
				c0.5,0,0.9-0.2,1.2-0.5c0.3-0.3,0.4-0.7,0.4-1.2c0-0.5-0.1-1-0.4-1.3s-0.7-0.5-1.3-0.5C236.8,3192.1,236.4,3192.3,236.1,3192.6z"
				/>
			<path class="st5" d="M242.5,3189c0.5-0.8,1.3-1.2,2.4-1.2c1.1,0,2,0.4,2.4,1.2s0.7,1.9,0.7,3.2c0,1.4-0.2,2.5-0.7,3.3
				c-0.5,0.8-1.3,1.2-2.4,1.2c-1.1,0-2-0.4-2.4-1.2c-0.5-0.8-0.7-1.9-0.7-3.3C241.8,3190.9,242,3189.8,242.5,3189z M246.5,3190.6
				c-0.1-0.4-0.3-0.8-0.5-1.1s-0.6-0.4-1.1-0.4s-0.9,0.1-1.1,0.4c-0.3,0.3-0.4,0.7-0.5,1.1c-0.1,0.4-0.1,1-0.1,1.6
				c0,0.7,0,1.2,0.1,1.7c0.1,0.5,0.2,0.8,0.5,1.1c0.3,0.3,0.6,0.4,1.1,0.4s0.9-0.1,1.1-0.4c0.3-0.3,0.4-0.6,0.5-1.1
				c0.1-0.5,0.1-1,0.1-1.7C246.7,3191.6,246.6,3191.1,246.5,3190.6z"/>
			<path class="st5" d="M249.3,3195v-1l4-5.8h1.7v5.6h1.1v1.2H255v1.8h-1.3v-1.8H249.3z M253.7,3189.5l-2.8,4.2h2.8V3189.5z"/>
		</g>
		<path id="패스_4985" class="st1" d="M277,3312.7h52v-75.9h-52V3312.7z"/>
		<g class="st0">
			<path class="st6" d="M291.5,3303.1c0.6-0.5,1.1-1,1.5-1.3c0.4-0.4,0.7-0.7,1-1.1s0.4-0.8,0.4-1.1c0-0.3-0.1-0.6-0.2-0.8
				c-0.2-0.2-0.4-0.3-0.7-0.3c-0.3,0-0.6,0.1-0.8,0.3c-0.2,0.2-0.3,0.5-0.3,0.9H291c0-0.8,0.3-1.4,0.7-1.8c0.5-0.4,1-0.6,1.7-0.6
				c0.8,0,1.3,0.2,1.8,0.6c0.4,0.4,0.6,0.9,0.6,1.6c0,0.5-0.1,1-0.4,1.5c-0.3,0.5-0.6,0.9-1,1.2c-0.4,0.4-0.8,0.8-1.4,1.3h3v1.2H291
				v-1L291.5,3303.1z"/>
			<path class="st6" d="M297.4,3298.2c0.4-0.7,1.1-1,2.1-1s1.7,0.3,2.1,1c0.4,0.7,0.6,1.6,0.6,2.7c0,1.2-0.2,2.1-0.6,2.7
				s-1.1,1-2.1,1s-1.7-0.3-2.1-1c-0.4-0.7-0.6-1.6-0.6-2.7C296.8,3299.8,297,3298.9,297.4,3298.2z M300.7,3299.7
				c-0.1-0.3-0.2-0.6-0.4-0.8c-0.2-0.2-0.5-0.3-0.8-0.3c-0.4,0-0.7,0.1-0.8,0.3c-0.2,0.2-0.3,0.5-0.4,0.8s-0.1,0.8-0.1,1.2
				c0,0.5,0,0.9,0.1,1.3c0.1,0.3,0.2,0.6,0.4,0.8c0.2,0.2,0.5,0.3,0.8,0.3c0.4,0,0.7-0.1,0.9-0.3c0.2-0.2,0.3-0.5,0.4-0.8
				c0.1-0.3,0.1-0.8,0.1-1.3C300.8,3300.5,300.8,3300,300.7,3299.7z"/>
			<path class="st6" d="M303.7,3303.1c0.6-0.5,1.2-1,1.5-1.3c0.4-0.4,0.7-0.7,1-1.1c0.3-0.4,0.4-0.8,0.4-1.1c0-0.3-0.1-0.6-0.2-0.8
				s-0.4-0.3-0.7-0.3s-0.6,0.1-0.8,0.3c-0.2,0.2-0.3,0.5-0.3,0.9h-1.4c0-0.8,0.3-1.4,0.7-1.8c0.5-0.4,1-0.6,1.7-0.6
				c0.8,0,1.3,0.2,1.8,0.6c0.4,0.4,0.6,0.9,0.6,1.6c0,0.5-0.1,1-0.4,1.5c-0.3,0.5-0.6,0.9-1,1.2c-0.4,0.4-0.8,0.8-1.4,1.3h3v1.2
				h-4.9v-1L303.7,3303.1z"/>
			<path class="st6" d="M309.6,3298.2c0.4-0.7,1.1-1,2.1-1s1.7,0.3,2.1,1c0.4,0.7,0.6,1.6,0.6,2.7c0,1.2-0.2,2.1-0.6,2.7
				s-1.1,1-2.1,1s-1.7-0.3-2.1-1c-0.4-0.7-0.6-1.6-0.6-2.7C309,3299.8,309.2,3298.9,309.6,3298.2z M312.9,3299.7
				c-0.1-0.3-0.2-0.6-0.4-0.8c-0.2-0.2-0.5-0.3-0.8-0.3c-0.4,0-0.7,0.1-0.8,0.3c-0.2,0.2-0.3,0.5-0.4,0.8s-0.1,0.8-0.1,1.2
				c0,0.5,0,0.9,0.1,1.3c0.1,0.3,0.2,0.6,0.4,0.8c0.2,0.2,0.5,0.3,0.8,0.3c0.4,0,0.7-0.1,0.9-0.3c0.2-0.2,0.3-0.5,0.4-0.8
				c0.1-0.3,0.1-0.8,0.1-1.3C313,3300.5,313,3300,312.9,3299.7z"/>
		</g>
		<g class="st0">
			<path class="st1" d="M279.4,3227v-1l4-5.8h1.7v5.6h1.1v1.2h-1.1v1.8h-1.3v-1.8H279.4z M283.8,3221.6l-2.8,4.2h2.8V3221.6z"/>
			<path class="st1" d="M287.2,3227v-1l4-5.8h1.7v5.6h1.1v1.2h-1.1v1.8h-1.3v-1.8H287.2z M291.6,3221.6l-2.8,4.2h2.8V3221.6z"/>
			<path class="st1" d="M299.3,3221.3c-0.2-0.2-0.6-0.3-1-0.3c-0.6,0-1.1,0.2-1.4,0.7c-0.3,0.5-0.5,1.3-0.5,2.4
				c0.2-0.4,0.5-0.6,0.9-0.8s0.8-0.3,1.3-0.3c0.5,0,1,0.1,1.4,0.3s0.7,0.6,0.9,1c0.2,0.4,0.3,0.9,0.3,1.5c0,0.6-0.1,1.1-0.3,1.5
				c-0.2,0.4-0.5,0.8-1,1c-0.4,0.3-1,0.4-1.6,0.4c-0.8,0-1.5-0.2-1.9-0.5c-0.5-0.4-0.8-0.9-1-1.5s-0.3-1.5-0.3-2.5
				c0-2.9,1-4.4,3.1-4.4c0.8,0,1.4,0.2,1.9,0.6c0.5,0.4,0.7,1,0.8,1.6h-1.3C299.7,3221.8,299.6,3221.5,299.3,3221.3z M297.1,3224.6
				c-0.3,0.3-0.5,0.7-0.5,1.3s0.2,1,0.5,1.3c0.3,0.3,0.8,0.5,1.3,0.5c0.5,0,0.9-0.2,1.2-0.5s0.4-0.7,0.4-1.2c0-0.5-0.1-1-0.4-1.3
				c-0.3-0.3-0.7-0.5-1.3-0.5C297.9,3224.2,297.4,3224.4,297.1,3224.6z"/>
			<path class="st1" d="M304.5,3227.2l-1.5,3.3h-0.9l0.9-3.3H304.5z"/>
			<path class="st1" d="M307.7,3227.4c0.3,0.2,0.6,0.3,1.1,0.3c0.6,0,1-0.2,1.2-0.7c0.3-0.4,0.4-1.2,0.4-2.3
				c-0.2,0.3-0.5,0.5-0.8,0.6c-0.3,0.1-0.7,0.2-1.1,0.2c-0.5,0-1-0.1-1.4-0.3c-0.4-0.2-0.8-0.5-1-0.9s-0.4-0.9-0.4-1.5
				c0-0.9,0.3-1.6,0.8-2.1c0.5-0.5,1.2-0.8,2.1-0.8c1.1,0,1.9,0.4,2.3,1.1s0.7,1.8,0.7,3.3c0,1-0.1,1.9-0.3,2.5s-0.5,1.2-0.9,1.5
				c-0.4,0.3-1,0.5-1.8,0.5c-0.9,0-1.5-0.2-2-0.7s-0.7-1-0.8-1.7h1.3C307.3,3226.9,307.5,3227.2,307.7,3227.4z M309.9,3224
				c0.3-0.3,0.4-0.7,0.4-1.2c0-0.6-0.1-1-0.4-1.3s-0.7-0.5-1.2-0.5c-0.5,0-0.9,0.2-1.2,0.5c-0.3,0.3-0.4,0.7-0.4,1.2
				c0,0.5,0.1,0.9,0.4,1.2c0.3,0.3,0.7,0.5,1.3,0.5C309.2,3224.4,309.6,3224.3,309.9,3224z"/>
			<path class="st1" d="M315.3,3227.4c0.3,0.2,0.6,0.3,1.1,0.3c0.6,0,1-0.2,1.2-0.7c0.3-0.4,0.4-1.2,0.4-2.3
				c-0.2,0.3-0.5,0.5-0.8,0.6c-0.3,0.1-0.7,0.2-1.1,0.2c-0.5,0-1-0.1-1.4-0.3c-0.4-0.2-0.8-0.5-1-0.9s-0.4-0.9-0.4-1.5
				c0-0.9,0.3-1.6,0.8-2.1c0.5-0.5,1.2-0.8,2.1-0.8c1.1,0,1.9,0.4,2.3,1.1s0.7,1.8,0.7,3.3c0,1-0.1,1.9-0.3,2.5
				c-0.2,0.7-0.5,1.2-0.9,1.5s-1,0.5-1.8,0.5c-0.9,0-1.5-0.2-2-0.7s-0.7-1-0.8-1.7h1.3C314.9,3226.9,315.1,3227.2,315.3,3227.4z
				 M317.5,3224c0.3-0.3,0.4-0.7,0.4-1.2c0-0.6-0.1-1-0.4-1.3s-0.7-0.5-1.2-0.5s-0.9,0.2-1.2,0.5c-0.3,0.3-0.4,0.7-0.4,1.2
				c0,0.5,0.1,0.9,0.4,1.2c0.3,0.3,0.7,0.5,1.3,0.5C316.8,3224.4,317.2,3224.3,317.5,3224z"/>
			<path class="st1" d="M321.6,3220.5c0.5-0.4,1.2-0.6,2-0.6c0.6,0,1,0.1,1.5,0.3c0.4,0.2,0.7,0.5,0.9,0.8c0.2,0.3,0.3,0.7,0.3,1.2
				c0,0.5-0.1,0.9-0.4,1.3c-0.3,0.4-0.6,0.6-0.9,0.7v0c0.5,0.1,0.8,0.4,1.1,0.8s0.4,0.9,0.4,1.5c0,0.5-0.1,0.9-0.3,1.3
				c-0.2,0.4-0.5,0.7-1,0.9c-0.4,0.2-0.9,0.3-1.5,0.3c-0.9,0-1.6-0.2-2.1-0.7c-0.6-0.4-0.9-1.1-0.9-1.9h1.3c0,0.4,0.2,0.8,0.5,1
				c0.3,0.3,0.7,0.4,1.2,0.4c0.5,0,0.9-0.1,1.1-0.4c0.3-0.3,0.4-0.6,0.4-1c0-0.6-0.2-1-0.5-1.2c-0.4-0.2-0.9-0.4-1.6-0.4h-0.3v-1.1
				h0.3c0.6,0,1.1-0.1,1.5-0.3c0.3-0.2,0.5-0.5,0.5-1c0-0.4-0.1-0.7-0.4-0.9s-0.6-0.3-1.1-0.3c-0.4,0-0.8,0.1-1,0.3
				c-0.2,0.2-0.4,0.5-0.4,0.8h-1.3C320.8,3221.5,321.1,3220.9,321.6,3220.5z"/>
		</g>
		<path id="패스_4988" class="st7" d="M19.8,3312.9h335"/>
	</g>
</g>
</svg>
