<?xml version="1.0" encoding="utf-8"?>
<!-- Generator: Adobe Illustrator 25.1.0, SVG Export Plug-In . SVG Version: 6.00 Build 0)  -->
<svg version="1.1" id="레이어_1" xmlns="http://www.w3.org/2000/svg" xmlns:xlink="http://www.w3.org/1999/xlink" x="0px"
	 y="0px" viewBox="0 0 920 401.7" style="enable-background:new 0 0 920 401.7;" xml:space="preserve">
<style type="text/css">
	.st0{enable-background:new    ;}
	.st1{fill:#2AA6D3;}
	.st2{fill:#E3F4FA;}
	.st3{fill:#FFFFFF;}
	.st4{fill:#363636;}
	.st5{fill:#94989E;}
</style>
<g id="그룹_5508" transform="translate(-740 -1587)">
	<g class="st0">
		<path class="st1" d="M749.2,1599.9c0,4,1.6,8,5.1,9.7l-1.9,2.5c-2.3-1.2-3.9-3.3-4.8-6c-1,2.8-2.6,5.1-5.1,6.4l-1.9-2.6
			c3.7-1.8,5.4-6,5.4-10.1v-3.2h3.2V1599.9z M761.6,1606.1h-3.2v11h-3.2V1595h3.2v8.5h3.2V1606.1z"/>
		<path class="st1" d="M771.8,1609.9c1.8-0.1,3.6-0.3,5.4-0.5l0.2,2.3c-4.8,1-9.9,1-13.8,1l-0.4-2.6c1.6,0,3.5,0,5.4,0v-3.1
			c-2.6-0.6-4.5-2.6-4.5-5.3c0-3.2,2.6-5.4,6.1-5.4c3.5,0,6.1,2.3,6.1,5.4c0,2.7-1.9,4.7-4.5,5.3V1609.9z M770.2,1604.4
			c1.7,0,3-1,3-2.7c0-1.7-1.3-2.7-3-2.7s-3,1-3,2.7C767.2,1603.4,768.5,1604.4,770.2,1604.4z M781.5,1594.9v22.2h-3.2v-22.2H781.5z"
			/>
		<path class="st1" d="M797.4,1604.4c0,4.9-2.5,7.9-5.8,7.9c-3.3,0-5.8-3-5.8-7.9c0-4.8,2.5-7.9,5.8-7.9
			C795,1596.5,797.4,1599.5,797.4,1604.4z M788.9,1604.4c0,3.3,1.1,5,2.8,5c1.6,0,2.8-1.8,2.8-5c0-3.3-1.1-5-2.8-5
			C790,1599.4,788.9,1601.1,788.9,1604.4z M803.5,1594.9v22.2h-3.2v-22.2H803.5z"/>
		<path class="st1" d="M815.4,1599.9c0,4,1.6,8,5.1,9.7l-1.9,2.5c-2.3-1.2-3.9-3.3-4.8-6c-1,2.8-2.6,5.1-5.1,6.4l-1.9-2.6
			c3.7-1.8,5.4-6,5.4-10.1v-3.2h3.2V1599.9z M827.8,1606.1h-3.2v11h-3.2V1595h3.2v8.5h3.2V1606.1z"/>
		<path class="st1" d="M846.3,1608.1c-2.3-0.8-3.9-2.4-4.8-4.5c-0.9,2.3-2.6,4.1-5.2,5l-1.7-2.5c3.6-1.2,5.2-4.3,5.2-7.4v-2.4h3.2
			v2.4c0,2.9,1.5,5.7,4.9,6.9L846.3,1608.1z M853.8,1614.2v2.5h-15.1v-7h3.2v4.5H853.8z M850.1,1602.2h-4.1v-2.6h4.1v-4.7h3.2v16.3
			h-3.2V1602.2z"/>
		<path class="st1" d="M869.2,1601.3c0,3.1-2.6,5.3-6,5.3s-6-2.2-6-5.3c0-3.1,2.6-5.3,6-5.3S869.2,1598.2,869.2,1601.3z
			 M860.3,1601.3c0,1.7,1.2,2.7,2.9,2.7c1.7,0,2.9-1,2.9-2.7c0-1.7-1.2-2.7-2.9-2.7C861.5,1598.6,860.3,1599.6,860.3,1601.3z
			 M875.2,1608.5v8.3h-14.7v-8.3H875.2z M863.6,1610.9v3.4h8.5v-3.4H863.6z M875.2,1595v12.5H872V1595H875.2z"/>
		<path class="st1" d="M896.1,1606.2c-2.4-0.7-4.1-2.1-5.1-4c-1,2-2.8,3.7-5.3,4.4l-1.5-2.5c3.4-1.1,5.1-3.6,5.2-5.9h-4.3v-2.5h11.9
			v2.5h-4.3c0.1,2.2,1.6,4.5,5,5.4L896.1,1606.2z M903.5,1614.4v2.4h-15.2v-6.1h11.4v-1.2h-11.4v-2.4h14.6v6h-11.4v1.3H903.5z
			 M899.7,1599.5v-4.5h3.2v11.2h-3.2v-4.2h-3.4v-2.5H899.7z"/>
		<path class="st1" d="M914.5,1601.8c0,3.1,1.6,6.7,5,8.4l-1.7,2.4c-2.4-1.1-4-3.1-4.9-5.6c-1,2.6-2.7,4.9-5.1,6l-1.7-2.4
			c3.6-1.7,5.2-5.4,5.2-8.7v-0.8h-4.5v-2.5h4.5v-3.1h3.2v3.1h4.4v2.5h-4.4V1601.8z M927,1606.2h-3.2v10.9h-3.2V1595h3.2v8.6h3.2
			V1606.2z"/>
	</g>
	<g id="그룹_5054" transform="translate(0 71)">
		<path id="패스_1786" class="st1" d="M740,1647.7h140.1v-59.5H740V1647.7z"/>
		<path id="패스_1787" class="st2" d="M880,1647.5h780V1588H880V1647.5z"/>
	</g>
	<g class="st0">
		<path class="st3" d="M785.8,1693.9c-0.7-0.3-1.2-0.7-1.6-1.2c-0.4-0.5-0.6-1.2-0.6-1.9h2.9c0,0.4,0.2,0.7,0.4,1
			c0.2,0.2,0.6,0.3,1,0.3c0.4,0,0.7-0.1,1-0.3c0.2-0.2,0.4-0.4,0.4-0.8c0-0.3-0.1-0.5-0.3-0.7c-0.2-0.2-0.4-0.3-0.7-0.4
			c-0.3-0.1-0.7-0.2-1.2-0.4c-0.7-0.2-1.3-0.4-1.8-0.7c-0.5-0.2-0.9-0.6-1.2-1c-0.3-0.4-0.5-1-0.5-1.7c0-1,0.4-1.9,1.1-2.5
			s1.7-0.9,3-0.9c1.2,0,2.2,0.3,3,0.9s1.2,1.4,1.2,2.5h-3c0-0.4-0.2-0.6-0.4-0.9c-0.2-0.2-0.6-0.3-0.9-0.3c-0.3,0-0.6,0.1-0.8,0.3
			c-0.2,0.2-0.3,0.4-0.3,0.8c0,0.4,0.2,0.6,0.5,0.8c0.3,0.2,0.9,0.4,1.6,0.7c0.7,0.2,1.3,0.5,1.8,0.7c0.5,0.2,0.8,0.5,1.2,1
			s0.5,1,0.5,1.6c0,0.6-0.2,1.2-0.5,1.7c-0.3,0.5-0.8,0.9-1.4,1.2c-0.6,0.3-1.3,0.5-2.2,0.5C787.2,1694.3,786.5,1694.2,785.8,1693.9
			z"/>
		<path class="st3" d="M801.9,1683v2.2h-3v9h-2.7v-9h-3v-2.2H801.9z"/>
		<path class="st3" d="M806,1685.1v2.3h3.7v2.1H806v2.5h4.1v2.2h-6.9V1683h6.9v2.2H806z"/>
		<path class="st3" d="M820.1,1688.4c-0.3,0.5-0.8,1-1.4,1.3c-0.6,0.3-1.4,0.5-2.3,0.5h-1.7v4h-2.7V1683h4.4c0.9,0,1.7,0.2,2.3,0.5
			c0.6,0.3,1.1,0.7,1.4,1.3s0.5,1.2,0.5,1.9C820.5,1687.2,820.4,1687.8,820.1,1688.4z M817.3,1687.6c0.3-0.2,0.4-0.6,0.4-1
			s-0.1-0.8-0.4-1c-0.3-0.2-0.6-0.4-1.2-0.4h-1.5v2.8h1.5C816.7,1688,817.1,1687.9,817.3,1687.6z"/>
		<path class="st3" d="M828.2,1685v-2.5h4.4v11.7h-2.8v-9.1H828.2z"/>
	</g>
	<g class="st0">
		<path class="st4" d="M1131.3,1690v1.1h-13v-1.1h5.8v-1.7h-4.2v-4.9h9.7v1.1h-8.4v2.8h8.6v1.1h-4.4v1.7H1131.3z M1119.7,1692.4h10
			v4.9h-1.3v-3.8h-8.6V1692.4z"/>
		<path class="st4" d="M1141.9,1689.9c-2.4,0.4-4.3,0.5-7,0.5h-1.2v-4h5.2v-1.8h-5.2v-1.1h6.5v3.9h-5.2v1.9c2.5,0,4.4-0.1,6.7-0.4
			L1141.9,1689.9z M1143.5,1691.4h1.3v5.6h-9.3v-5.6h1.3v1.7h6.7V1691.4z M1143.5,1694.2h-6.7v1.8h6.7V1694.2z M1144.8,1682.8v7.9
			h-1.3v-7.9H1144.8z"/>
		<path class="st4" d="M1155.4,1690.7c-1.6-0.6-2.8-1.7-3.4-3.2c-0.6,1.7-1.9,3-3.6,3.6l-0.7-1.1c2.2-0.8,3.6-2.7,3.6-4.9v-1.5h1.3
			v1.4c0,2,1.4,3.8,3.5,4.6L1155.4,1690.7z M1159.6,1694.5c0,1.7-1.8,2.7-4.8,2.7c-2.9,0-4.8-1-4.8-2.7c0-1.7,1.8-2.7,4.8-2.7
			C1157.8,1691.8,1159.6,1692.7,1159.6,1694.5z M1158.3,1694.5c0-1.1-1.3-1.7-3.5-1.7c-2.2,0-3.5,0.6-3.5,1.7c0,1,1.3,1.7,3.5,1.7
			C1157,1696.1,1158.3,1695.5,1158.3,1694.5z M1158.2,1687h-3.1v-1.1h3.1v-3h1.3v8.5h-1.3V1687z"/>
		<path class="st4" d="M1173.8,1690.9c-1.6-0.6-2.8-1.8-3.5-3.2c-0.6,1.6-1.9,3-3.6,3.6l-0.7-1c2.1-0.8,3.6-2.7,3.6-4.7v-0.6h-3.2
			v-1.1h7.7v1.1h-3.2v0.6c0,1.8,1.4,3.6,3.5,4.4L1173.8,1690.9z M1168.3,1692.2h9.6v5h-1.3v-3.9h-8.3V1692.2z M1177.9,1682.8v8.6
			h-1.3v-3.8h-2.8v-1.1h2.8v-3.7H1177.9z"/>
		<path class="st4" d="M1192.6,1682.8v8.6h-1.3v-1.9h-3.7v-1.1h3.7v-2h-3.5c-1,2.3-3.2,3.9-6.3,4.8l-0.5-1.1
			c3.5-0.9,5.7-2.8,5.9-5.3h-5.2v-1.1h6.6c0,0.5-0.1,1.1-0.2,1.6h3.2v-2.6H1192.6z M1183,1692h9.6v5.1h-1.3v-4.1h-8.3V1692z"/>
		<path class="st4" d="M1207.1,1690.4c-1.6-0.6-3-1.8-3.6-3.3c-0.6,1.7-2,3-3.6,3.6l-0.7-1c2.2-0.8,3.6-2.7,3.6-4.8v-1.4h1.3v1.4
			c0,2,1.5,3.8,3.6,4.5L1207.1,1690.4z M1201.6,1691.8h9.3v5.2h-9.3V1691.8z M1202.8,1695.9h6.7v-3.1h-6.7V1695.9z M1210.8,1682.8
			v8.2h-1.3v-8.2H1210.8z"/>
		<path class="st4" d="M1218.6,1686.7c0,2.5,1.6,5.1,3.6,6.1l-0.8,1c-1.5-0.8-2.8-2.5-3.5-4.5c-0.6,2.1-2,3.9-3.6,4.8l-0.8-1.1
			c2.1-1.1,3.7-3.8,3.7-6.4v-2.6h1.3V1686.7z M1227.2,1689.7h-2.4v7.4h-1.3v-14.3h1.3v5.8h2.4V1689.7z"/>
		<path class="st4" d="M1239.8,1683.3h1.1l-4.8,15.6h-1.1L1239.8,1683.3z"/>
		<path class="st4" d="M1253.9,1686.7c0,2.5,1.6,5.1,3.6,6.1l-0.8,1c-1.5-0.8-2.8-2.5-3.5-4.5c-0.6,2.1-2,3.9-3.6,4.8l-0.8-1.1
			c2.1-1.1,3.7-3.8,3.7-6.4v-2.6h1.3V1686.7z M1262.5,1689.7h-2.4v7.4h-1.3v-14.3h1.3v5.8h2.4V1689.7z"/>
		<path class="st4" d="M1269.1,1692.9c1.4-0.1,2.8-0.2,4.1-0.4l0.1,1c-3.2,0.6-6.7,0.6-9.3,0.6l-0.2-1.1c1.2,0,2.5,0,3.9,0v-2.5
			c-1.9-0.2-3.2-1.5-3.2-3.3c0-2,1.6-3.4,3.8-3.4c2.3,0,3.9,1.4,3.9,3.4c0,1.8-1.3,3.1-3.2,3.3V1692.9z M1268.5,1689.4
			c1.5,0,2.6-0.9,2.6-2.3c0-1.3-1.1-2.2-2.6-2.2c-1.5,0-2.5,0.9-2.5,2.2C1265.9,1688.5,1267,1689.4,1268.5,1689.4z M1275.5,1682.8
			v14.4h-1.3v-14.4H1275.5z"/>
		<path class="st4" d="M1286.4,1688.9c0,3.1-1.5,5-3.6,5s-3.6-2-3.6-5c0-3.1,1.5-5,3.6-5S1286.4,1685.9,1286.4,1688.9z
			 M1280.3,1688.9c0,2.3,1,3.8,2.4,3.8c1.4,0,2.4-1.5,2.4-3.8c0-2.3-1-3.8-2.4-3.8C1281.3,1685.1,1280.3,1686.6,1280.3,1688.9z
			 M1290.3,1682.8v14.4h-1.3v-14.4H1290.3z"/>
		<path class="st4" d="M1298.1,1686.7c0,2.5,1.6,5.1,3.6,6.1l-0.8,1c-1.5-0.8-2.8-2.5-3.5-4.5c-0.6,2.1-2,3.9-3.6,4.8l-0.8-1.1
			c2.1-1.1,3.7-3.8,3.7-6.4v-2.6h1.3V1686.7z M1306.7,1689.7h-2.4v7.4h-1.3v-14.3h1.3v5.8h2.4V1689.7z"/>
		<path class="st4" d="M1316.4,1687.2c0,2.3,1.6,4.8,3.7,5.8l-0.8,1.1c-1.6-0.8-2.9-2.5-3.6-4.4c-0.7,2.1-2,3.9-3.7,4.8l-0.8-1
			c2-1,3.8-3.7,3.8-6.2v-1.8h-3.3v-1.1h7.8v1.1h-3.2V1687.2z M1325,1689.7h-2.4v7.5h-1.3v-14.3h1.3v5.8h2.4V1689.7z"/>
		<path class="st4" d="M1338.1,1682.8v8.6h-1.3v-1.9h-3.7v-1.1h3.7v-2h-3.5c-1,2.3-3.2,3.9-6.3,4.8l-0.5-1.1
			c3.5-0.9,5.6-2.8,5.9-5.3h-5.2v-1.1h6.6c0,0.5-0.1,1.1-0.2,1.6h3.2v-2.6H1338.1z M1328.5,1692h9.6v5.1h-1.3v-4.1h-8.3V1692z"/>
		<path class="st4" d="M1354,1694.3v1.1h-13v-1.1h3.2v-3.9c-1.2-0.6-1.9-1.7-1.9-3c0-2.2,2.2-3.7,5.2-3.7c3.1,0,5.2,1.4,5.2,3.7
			c0,1.3-0.7,2.3-1.9,2.9v3.9H1354z M1343.5,1687.4c0,1.6,1.6,2.7,4,2.7s4-1.1,4-2.7s-1.7-2.7-4-2.7S1343.5,1685.8,1343.5,1687.4z
			 M1345.5,1694.3h4v-3.4c-0.6,0.1-1.3,0.2-2,0.2c-0.7,0-1.4-0.1-2-0.2V1694.3z"/>
		<path class="st4" d="M1363.2,1683.9c0,3.7-2.6,6.5-6.7,7.8l-0.6-1.1c3.3-1.1,5.5-3.1,5.8-5.7h-5.1v-1.1H1363.2z M1367.9,1695.8
			v1.1h-9.4v-4.5h1.3v3.4H1367.9z M1366.2,1687.3v-4.4h1.3v10.6h-1.3v-5.1h-3.1v-1.1H1366.2z"/>
		<path class="st4" d="M1381.4,1683.7c0,3.6-2.5,6.2-6.7,7.4l-0.5-1c3.4-1,5.5-2.8,5.8-5.3h-5.1v-1.1H1381.4z M1376.6,1691.6h9.3
			v5.3h-9.3V1691.6z M1377.9,1695.9h6.7v-3.2h-6.7V1695.9z M1385.9,1682.8v8.2h-1.3v-3.4h-3.1v-1.1h3.1v-3.7H1385.9z"/>
		<path class="st4" d="M1401.8,1694.3v1.1h-13v-1.1h5.9v-3h-4.2v-7.4h9.7v1.1h-8.4v2h8.1v1h-8.1v2.2h8.5v1.1h-4.4v3H1401.8z"/>
	</g>
	<g id="그룹_5055" transform="translate(0 71)">
		<path id="패스_1786-2" class="st1" d="M740,1737.7h140.1v-59.5H740V1737.7z"/>
		<path id="패스_1787-2" class="st2" d="M880,1737.5h780V1678H880V1737.5z"/>
	</g>
	<g class="st0">
		<path class="st3" d="M785.8,1783.9c-0.7-0.3-1.2-0.7-1.6-1.2c-0.4-0.5-0.6-1.2-0.6-1.9h2.9c0,0.4,0.2,0.7,0.4,1
			c0.2,0.2,0.6,0.3,1,0.3c0.4,0,0.7-0.1,1-0.3c0.2-0.2,0.4-0.4,0.4-0.8c0-0.3-0.1-0.5-0.3-0.7c-0.2-0.2-0.4-0.3-0.7-0.4
			c-0.3-0.1-0.7-0.2-1.2-0.4c-0.7-0.2-1.3-0.4-1.8-0.7c-0.5-0.2-0.9-0.6-1.2-1c-0.3-0.4-0.5-1-0.5-1.7c0-1,0.4-1.9,1.1-2.5
			s1.7-0.9,3-0.9c1.2,0,2.2,0.3,3,0.9s1.2,1.4,1.2,2.5h-3c0-0.4-0.2-0.6-0.4-0.9c-0.2-0.2-0.6-0.3-0.9-0.3c-0.3,0-0.6,0.1-0.8,0.3
			c-0.2,0.2-0.3,0.4-0.3,0.8c0,0.4,0.2,0.6,0.5,0.8c0.3,0.2,0.9,0.4,1.6,0.7c0.7,0.2,1.3,0.5,1.8,0.7c0.5,0.2,0.8,0.5,1.2,1
			s0.5,1,0.5,1.6c0,0.6-0.2,1.2-0.5,1.7c-0.3,0.5-0.8,0.9-1.4,1.2c-0.6,0.3-1.3,0.5-2.2,0.5C787.2,1784.3,786.5,1784.2,785.8,1783.9
			z"/>
		<path class="st3" d="M801.9,1773v2.2h-3v9h-2.7v-9h-3v-2.2H801.9z"/>
		<path class="st3" d="M806,1775.1v2.3h3.7v2.1H806v2.5h4.1v2.2h-6.9V1773h6.9v2.2H806z"/>
		<path class="st3" d="M820.1,1778.4c-0.3,0.5-0.8,1-1.4,1.3c-0.6,0.3-1.4,0.5-2.3,0.5h-1.7v4h-2.7V1773h4.4c0.9,0,1.7,0.2,2.3,0.5
			c0.6,0.3,1.1,0.7,1.4,1.3s0.5,1.2,0.5,1.9C820.5,1777.2,820.4,1777.8,820.1,1778.4z M817.3,1777.6c0.3-0.2,0.4-0.6,0.4-1
			s-0.1-0.8-0.4-1c-0.3-0.2-0.6-0.4-1.2-0.4h-1.5v2.8h1.5C816.7,1778,817.1,1777.9,817.3,1777.6z"/>
		<path class="st3" d="M828.8,1781.6c1-0.9,1.9-1.6,2.5-2.1s1.1-1.1,1.5-1.7c0.4-0.6,0.6-1.2,0.6-1.8c0-0.4-0.1-0.8-0.3-1
			s-0.5-0.4-0.9-0.4s-0.7,0.2-1,0.5c-0.2,0.3-0.3,0.7-0.3,1.3h-2.6c0-0.9,0.2-1.7,0.6-2.3c0.4-0.6,0.9-1.1,1.5-1.3s1.3-0.4,2-0.4
			c1.3,0,2.2,0.3,2.9,1c0.6,0.7,1,1.5,1,2.5c0,1.1-0.4,2.2-1.2,3.2c-0.8,1-1.8,1.9-3,2.9h4.3v2.2h-8v-2
			C828.7,1781.7,828.9,1781.6,828.8,1781.6z"/>
	</g>
	<g class="st0">
		<path class="st4" d="M1098.8,1776.7c0,2.5,1.6,5.1,3.6,6.1l-0.8,1c-1.5-0.8-2.8-2.5-3.5-4.5c-0.6,2.1-2,3.9-3.6,4.8l-0.8-1.1
			c2.1-1.1,3.7-3.8,3.7-6.4v-2.6h1.3V1776.7z M1107.4,1779.7h-2.4v7.4h-1.3v-14.3h1.3v5.8h2.4V1779.7z"/>
		<path class="st4" d="M1114,1782.9c1.4-0.1,2.8-0.2,4.1-0.4l0.1,1c-3.2,0.6-6.7,0.6-9.3,0.6l-0.2-1.1c1.2,0,2.5,0,3.9,0v-2.5
			c-1.9-0.2-3.2-1.5-3.2-3.3c0-2,1.6-3.4,3.8-3.4c2.3,0,3.9,1.4,3.9,3.4c0,1.8-1.3,3.1-3.2,3.3V1782.9z M1113.3,1779.4
			c1.5,0,2.6-0.9,2.6-2.3c0-1.3-1.1-2.2-2.6-2.2c-1.5,0-2.5,0.9-2.5,2.2C1110.8,1778.5,1111.9,1779.4,1113.3,1779.4z M1120.4,1772.8
			v14.4h-1.3v-14.4H1120.4z"/>
		<path class="st4" d="M1131.3,1778.9c0,3.1-1.5,5-3.6,5s-3.6-2-3.6-5c0-3.1,1.5-5,3.6-5S1131.3,1775.9,1131.3,1778.9z
			 M1125.2,1778.9c0,2.3,1,3.8,2.4,3.8c1.4,0,2.4-1.5,2.4-3.8c0-2.3-1-3.8-2.4-3.8C1126.2,1775.1,1125.2,1776.6,1125.2,1778.9z
			 M1135.2,1772.8v14.4h-1.3v-14.4H1135.2z"/>
		<path class="st4" d="M1143,1776.7c0,2.5,1.6,5.1,3.6,6.1l-0.8,1c-1.5-0.8-2.8-2.5-3.5-4.5c-0.6,2.1-2,3.9-3.6,4.8l-0.8-1.1
			c2.1-1.1,3.7-3.8,3.7-6.4v-2.6h1.3V1776.7z M1151.6,1779.7h-2.4v7.4h-1.3v-14.3h1.3v5.8h2.4V1779.7z"/>
		<path class="st4" d="M1169.5,1783.2h-5.9v4h-1.3v-4h-5.8v-1.1h13V1783.2z M1168.7,1775.5h-11.5v-1.1h5.2v-1.7h1.3v1.7h5.1V1775.5z
			 M1162.9,1776.3c2.9,0,4.6,0.9,4.6,2.4c0,1.5-1.7,2.4-4.6,2.4c-2.9,0-4.7-0.8-4.7-2.4C1158.3,1777.2,1160,1776.3,1162.9,1776.3z
			 M1162.9,1777.4c-2.1,0-3.3,0.5-3.3,1.4c0,0.9,1.2,1.4,3.3,1.4c2.1,0,3.3-0.5,3.3-1.4C1166.2,1777.9,1165,1777.4,1162.9,1777.4z"
			/>
		<path class="st4" d="M1184.2,1784.3v1.1h-13v-1.1h5.8v-3.1h-4.3v-7.3h1.3v2.6h7.3v-2.6h1.3v7.3h-4.3v3.1H1184.2z M1174,1780.1h7.3
			v-2.6h-7.3V1780.1z"/>
		<path class="st4" d="M1198.9,1779.2v1.1h-5.8v3.5h-1.3v-3.5h-5.9v-1.1h9.7c0.4-1.9,0.4-3.2,0.4-4.4v-0.1h-8.4v-1.1h9.7v1.1
			c0,1.2,0,2.6-0.4,4.4H1198.9z M1188.8,1785.8h8.7v1.1h-10v-4.5h1.3V1785.8z"/>
		<path class="st4" d="M1212.3,1775.5h-8v-1.1h3.4v-1.7h1.3v1.7h3.3V1775.5z M1208.3,1781.5c-1.9,0-3.2-1.1-3.2-2.7
			c0-1.6,1.3-2.7,3.2-2.7c1.9,0,3.2,1.1,3.2,2.7C1211.5,1780.5,1210.2,1781.5,1208.3,1781.5z M1208.3,1780.5c1.2,0,2-0.7,2-1.7
			c0-1-0.8-1.6-2-1.6s-2,0.7-2,1.6C1206.3,1779.9,1207.1,1780.5,1208.3,1780.5z M1216.1,1784.7c0,1.6-1.8,2.4-4.8,2.4
			c-3,0-4.8-0.9-4.8-2.4c0-1.6,1.8-2.4,4.8-2.4C1214.3,1782.3,1216.1,1783.2,1216.1,1784.7z M1214.7,1784.7c0-0.9-1.3-1.4-3.4-1.4
			c-2.1,0-3.4,0.5-3.4,1.4c0,0.9,1.3,1.4,3.4,1.4C1213.4,1786.2,1214.7,1785.6,1214.7,1784.7z M1214.7,1777.3h-2.4v-1.1h2.4v-3.5
			h1.3v9.3h-1.3v-2h-2.4v-1.1h2.4V1777.3z"/>
		<path class="st4" d="M1226.6,1780.7c-1.6-0.6-2.8-1.7-3.4-3.2c-0.6,1.7-1.9,3-3.6,3.6l-0.7-1.1c2.2-0.8,3.6-2.7,3.6-4.9v-1.5h1.3
			v1.4c0,2,1.4,3.8,3.5,4.6L1226.6,1780.7z M1230.8,1784.5c0,1.7-1.8,2.7-4.8,2.7s-4.8-1-4.8-2.7c0-1.7,1.8-2.7,4.8-2.7
			S1230.8,1782.7,1230.8,1784.5z M1229.5,1784.5c0-1.1-1.3-1.7-3.5-1.7s-3.5,0.6-3.5,1.7c0,1,1.3,1.7,3.5,1.7
			S1229.5,1785.5,1229.5,1784.5z M1229.4,1777h-3.1v-1.1h3.1v-3h1.3v8.5h-1.3V1777z"/>
		<path class="st4" d="M1241.3,1773.3h1.1l-4.8,15.6h-1.1L1241.3,1773.3z"/>
		<path class="st4" d="M1254.9,1781.2c-1.6-0.6-2.8-1.8-3.5-3.2c-0.6,1.6-1.9,3-3.6,3.6l-0.7-1c2.1-0.8,3.6-2.7,3.6-4.7v-0.7h-3.2
			v-1.1h7.7v1.1h-3.2v0.7c0,1.9,1.4,3.7,3.5,4.4L1254.9,1781.2z M1259.3,1785.8v1.1h-9.6v-4.4h1.3v3.4H1259.3z M1257.6,1776.8v-4
			h1.3v10.5h-1.3v-5.5h-2.9v-1.1H1257.6z"/>
		<path class="st4" d="M1274.8,1780.2v1.1h-5.8v2.9h-1.3v-2.9h-6v-1.1H1274.8z M1264.7,1785.8h8.6v1.1h-9.9v-4.1h1.3V1785.8z
			 M1273.1,1778.5h-9.7v-5h9.7V1778.5z M1271.8,1774.6h-7.1v2.9h7.1V1774.6z"/>
		<path class="st4" d="M1284.2,1780.7c-1.6-0.6-2.8-1.7-3.4-3.2c-0.6,1.7-1.9,3-3.6,3.6l-0.7-1.1c2.2-0.8,3.6-2.7,3.6-4.9v-1.5h1.3
			v1.4c0,2,1.4,3.8,3.5,4.6L1284.2,1780.7z M1288.4,1784.5c0,1.7-1.8,2.7-4.8,2.7s-4.8-1-4.8-2.7c0-1.7,1.8-2.7,4.8-2.7
			S1288.4,1782.7,1288.4,1784.5z M1287.1,1784.5c0-1.1-1.3-1.7-3.5-1.7s-3.5,0.6-3.5,1.7c0,1,1.3,1.7,3.5,1.7
			S1287.1,1785.5,1287.1,1784.5z M1287,1777h-3.1v-1.1h3.1v-3h1.3v8.5h-1.3V1777z"/>
		<path class="st4" d="M1291.2,1788.2c1-0.4,1.6-1.2,1.6-2.2c-0.1,0-0.1,0-0.2,0c-0.6,0-1.1-0.4-1.1-1c0-0.6,0.5-1,1.1-1
			c0.8,0,1.2,0.7,1.2,1.7c0,1.5-0.9,2.7-2.3,3.3L1291.2,1788.2z"/>
		<path class="st4" d="M1307,1780.7c-1.6-0.6-2.8-1.7-3.4-3.2c-0.6,1.7-1.9,3-3.6,3.6l-0.7-1.1c2.2-0.8,3.6-2.7,3.6-4.9v-1.5h1.3
			v1.4c0,2,1.4,3.8,3.5,4.6L1307,1780.7z M1311.1,1784.5c0,1.7-1.8,2.7-4.8,2.7s-4.8-1-4.8-2.7c0-1.7,1.8-2.7,4.8-2.7
			S1311.1,1782.7,1311.1,1784.5z M1309.8,1784.5c0-1.1-1.3-1.7-3.5-1.7s-3.5,0.6-3.5,1.7c0,1,1.3,1.7,3.5,1.7
			S1309.8,1785.5,1309.8,1784.5z M1309.8,1777h-3.1v-1.1h3.1v-3h1.3v8.5h-1.3V1777z"/>
		<path class="st4" d="M1321.2,1779.8h-6.5v-6.3h1.3v2h3.9v-2h1.3v1.4h3.3v-2h1.3v7.5h-1.3v-1.8h-3.3V1779.8z M1319.9,1776.6h-3.9
			v2.1h3.9V1776.6z M1326.3,1786v1h-9.8v-3.6h7.9v-1.4h-8v-1h9.3v3.4h-7.9v1.5H1326.3z M1321.2,1775.9v1.6h3.3v-1.6H1321.2z"/>
		<path class="st4" d="M1334.2,1782.5c2.5,0,4.4-0.1,6.5-0.5l0.1,1.1c-2.2,0.4-4.1,0.5-6.8,0.5h-1.1v-9.4h6.7v1.1h-5.4V1782.5z
			 M1345.7,1779.6h-2.4v7.6h-1.3v-14.4h1.3v5.7h2.4V1779.6z"/>
		<path class="st4" d="M1351,1780.4c-2.2,0-3.7-1.4-3.7-3.4c0-2,1.6-3.4,3.7-3.4c2.2,0,3.7,1.4,3.7,3.4
			C1354.8,1779.1,1353.2,1780.4,1351,1780.4z M1351,1779.3c1.4,0,2.5-0.9,2.5-2.3c0-1.3-1-2.3-2.5-2.3c-1.4,0-2.5,0.9-2.5,2.3
			C1348.6,1778.4,1349.6,1779.3,1351,1779.3z M1358.3,1784.5c0,1.7-1.8,2.7-4.7,2.7c-2.9,0-4.7-1-4.7-2.7c0-1.7,1.8-2.7,4.7-2.7
			C1356.5,1781.8,1358.3,1782.8,1358.3,1784.5z M1357,1784.5c0-1-1.3-1.6-3.4-1.6c-2.1,0-3.4,0.6-3.4,1.6c0,1,1.3,1.6,3.4,1.6
			C1355.7,1786.1,1357,1785.5,1357,1784.5z M1358.2,1776v2h2.1v1.1h-2.1v2.2h-1.3v-8.5h1.3v2.1h2.1v1.1H1358.2z"/>
		<path class="st4" d="M1369.4,1780.7c-1.6-0.6-2.8-1.7-3.4-3.2c-0.6,1.7-1.9,3-3.6,3.6l-0.7-1.1c2.2-0.8,3.6-2.7,3.6-4.9v-1.5h1.3
			v1.4c0,2,1.4,3.8,3.5,4.6L1369.4,1780.7z M1373.6,1784.5c0,1.7-1.8,2.7-4.8,2.7s-4.8-1-4.8-2.7c0-1.7,1.8-2.7,4.8-2.7
			S1373.6,1782.7,1373.6,1784.5z M1372.3,1784.5c0-1.1-1.3-1.7-3.5-1.7s-3.5,0.6-3.5,1.7c0,1,1.3,1.7,3.5,1.7
			S1372.3,1785.5,1372.3,1784.5z M1372.2,1777h-3.1v-1.1h3.1v-3h1.3v8.5h-1.3V1777z"/>
		<path class="st4" d="M1393,1779.7v1.1h-13v-1.1H1393z M1391.4,1784.6c0,1.7-1.9,2.6-4.9,2.6c-3.1,0-4.9-0.9-4.9-2.6
			c0-1.7,1.9-2.6,4.9-2.6C1389.6,1782,1391.4,1782.9,1391.4,1784.6z M1391.5,1778.3h-9.8v-4.9h9.7v1.1h-8.4v2.8h8.5V1778.3z
			 M1390.1,1784.6c0-1-1.3-1.6-3.6-1.6s-3.6,0.6-3.6,1.6c0,1,1.3,1.6,3.6,1.6C1388.8,1786.1,1390.1,1785.6,1390.1,1784.6z"/>
		<path class="st4" d="M1411.3,1784.1v1.1h-13v-1.1h5v-5.1h1.3v5.1H1411.3z M1408.5,1775.3h-8.8v-1.1h10.1v1.4c0,1.8,0,3.7-0.5,6.6
			l-1.3-0.1c0.5-2.8,0.5-4.8,0.5-6.5V1775.3z"/>
		<path class="st4" d="M1414.9,1782.8c2.1,0,3.9-0.1,6-0.4l0.1,1.1c-2.3,0.4-4.1,0.4-6.3,0.4h-1.1v-5.7h4.9v-3h-5v-1.1h6.3v5.1h-4.9
			V1782.8z M1424.9,1772.8v14.4h-1.3v-6.1h-2.9v-1.1h2.9v-2.9h-2.8v-1.1h2.8v-3.3H1424.9z"/>
	</g>
	<g id="그룹_5056" transform="translate(0 71)">
		<path id="패스_1786-3" class="st1" d="M740,1827.7h140.1v-59.5H740V1827.7z"/>
		<path id="패스_1787-3" class="st2" d="M880,1827.5h780V1768H880V1827.5z"/>
	</g>
	<g class="st0">
		<path class="st3" d="M785.8,1873.9c-0.7-0.3-1.2-0.7-1.6-1.2c-0.4-0.5-0.6-1.2-0.6-1.9h2.9c0,0.4,0.2,0.7,0.4,1
			c0.2,0.2,0.6,0.3,1,0.3c0.4,0,0.7-0.1,1-0.3c0.2-0.2,0.4-0.4,0.4-0.8c0-0.3-0.1-0.5-0.3-0.7c-0.2-0.2-0.4-0.3-0.7-0.4
			c-0.3-0.1-0.7-0.2-1.2-0.4c-0.7-0.2-1.3-0.4-1.8-0.7c-0.5-0.2-0.9-0.6-1.2-1c-0.3-0.4-0.5-1-0.5-1.7c0-1,0.4-1.9,1.1-2.5
			s1.7-0.9,3-0.9c1.2,0,2.2,0.3,3,0.9s1.2,1.4,1.2,2.5h-3c0-0.4-0.2-0.6-0.4-0.9c-0.2-0.2-0.6-0.3-0.9-0.3c-0.3,0-0.6,0.1-0.8,0.3
			c-0.2,0.2-0.3,0.4-0.3,0.8c0,0.4,0.2,0.6,0.5,0.8c0.3,0.2,0.9,0.4,1.6,0.7c0.7,0.2,1.3,0.5,1.8,0.7c0.5,0.2,0.8,0.5,1.2,1
			s0.5,1,0.5,1.6c0,0.6-0.2,1.2-0.5,1.7c-0.3,0.5-0.8,0.9-1.4,1.2c-0.6,0.3-1.3,0.5-2.2,0.5C787.2,1874.3,786.5,1874.2,785.8,1873.9
			z"/>
		<path class="st3" d="M801.9,1863v2.2h-3v9h-2.7v-9h-3v-2.2H801.9z"/>
		<path class="st3" d="M806,1865.1v2.3h3.7v2.1H806v2.5h4.1v2.2h-6.9V1863h6.9v2.2H806z"/>
		<path class="st3" d="M820.1,1868.4c-0.3,0.5-0.8,1-1.4,1.3c-0.6,0.3-1.4,0.5-2.3,0.5h-1.7v4h-2.7V1863h4.4c0.9,0,1.7,0.2,2.3,0.5
			c0.6,0.3,1.1,0.7,1.4,1.3s0.5,1.2,0.5,1.9C820.5,1867.2,820.4,1867.8,820.1,1868.4z M817.3,1867.6c0.3-0.2,0.4-0.6,0.4-1
			s-0.1-0.8-0.4-1c-0.3-0.2-0.6-0.4-1.2-0.4h-1.5v2.8h1.5C816.7,1868,817.1,1867.9,817.3,1867.6z"/>
		<path class="st3" d="M829.7,1863.2c0.7-0.6,1.7-0.9,2.9-0.9c0.8,0,1.5,0.1,2.1,0.4c0.6,0.3,1,0.7,1.3,1.1c0.3,0.5,0.4,1,0.4,1.6
			c0,0.7-0.2,1.3-0.5,1.7c-0.4,0.4-0.8,0.7-1.2,0.9v0.1c0.6,0.2,1.1,0.5,1.4,1s0.5,1.1,0.5,1.8c0,0.7-0.2,1.2-0.5,1.8
			c-0.3,0.5-0.7,0.9-1.3,1.2c-0.6,0.3-1.3,0.4-2.1,0.4c-1.3,0-2.3-0.3-3.1-0.9c-0.8-0.6-1.2-1.6-1.2-2.8h2.7c0,0.5,0.1,0.8,0.4,1.1
			s0.6,0.4,1.1,0.4c0.4,0,0.7-0.1,1-0.4s0.3-0.6,0.3-1c0-0.5-0.2-0.9-0.5-1.1s-0.8-0.3-1.6-0.3h-0.5v-2.2h0.5c0.5,0,1-0.1,1.3-0.3
			s0.5-0.5,0.5-1c0-0.4-0.1-0.7-0.3-0.9c-0.2-0.2-0.5-0.3-0.9-0.3c-0.4,0-0.7,0.1-0.9,0.4c-0.2,0.2-0.3,0.5-0.3,0.9h-2.7
			C828.6,1864.7,829,1863.8,829.7,1863.2z"/>
	</g>
	<g class="st0">
		<path class="st4" d="M1160.9,1866.7c0,2.5,1.6,5.1,3.6,6.1l-0.8,1c-1.5-0.8-2.8-2.5-3.5-4.5c-0.6,2.1-2,3.9-3.6,4.8l-0.8-1.1
			c2.1-1.1,3.7-3.8,3.7-6.4v-2.6h1.3V1866.7z M1169.5,1869.7h-2.4v7.4h-1.3v-14.3h1.3v5.8h2.4V1869.7z"/>
		<path class="st4" d="M1176.1,1872.9c1.4-0.1,2.8-0.2,4.1-0.4l0.1,1c-3.2,0.6-6.7,0.6-9.3,0.6l-0.2-1.1c1.2,0,2.5,0,3.9,0v-2.5
			c-1.9-0.2-3.2-1.5-3.2-3.3c0-2,1.6-3.4,3.8-3.4c2.3,0,3.9,1.4,3.9,3.4c0,1.8-1.3,3.1-3.2,3.3V1872.9z M1175.4,1869.4
			c1.5,0,2.6-0.9,2.6-2.3c0-1.3-1.1-2.2-2.6-2.2c-1.5,0-2.5,0.9-2.5,2.2C1172.9,1868.5,1174,1869.4,1175.4,1869.4z M1182.5,1862.8
			v14.4h-1.3v-14.4H1182.5z"/>
		<path class="st4" d="M1193.3,1868.9c0,3.1-1.5,5-3.6,5s-3.6-2-3.6-5c0-3.1,1.5-5,3.6-5S1193.3,1865.9,1193.3,1868.9z
			 M1187.3,1868.9c0,2.3,1,3.8,2.4,3.8c1.4,0,2.4-1.5,2.4-3.8c0-2.3-1-3.8-2.4-3.8C1188.3,1865.1,1187.3,1866.6,1187.3,1868.9z
			 M1197.2,1862.8v14.4h-1.3v-14.4H1197.2z"/>
		<path class="st4" d="M1205,1866.7c0,2.5,1.6,5.1,3.6,6.1l-0.8,1c-1.5-0.8-2.8-2.5-3.5-4.5c-0.6,2.1-2,3.9-3.6,4.8l-0.8-1.1
			c2.1-1.1,3.7-3.8,3.7-6.4v-2.6h1.3V1866.7z M1213.6,1869.7h-2.4v7.4h-1.3v-14.3h1.3v5.8h2.4V1869.7z"/>
		<path class="st4" d="M1227.9,1873.2h-5.9v4h-1.3v-4h-5.8v-1.1h13V1873.2z M1227.1,1865.5h-11.5v-1.1h5.2v-1.7h1.3v1.7h5.1V1865.5z
			 M1221.4,1866.3c2.9,0,4.6,0.9,4.6,2.4c0,1.5-1.7,2.4-4.6,2.4c-2.9,0-4.7-0.8-4.7-2.4C1216.8,1867.2,1218.5,1866.3,1221.4,1866.3z
			 M1221.4,1867.4c-2.1,0-3.3,0.5-3.3,1.4c0,0.9,1.2,1.4,3.3,1.4c2.1,0,3.3-0.5,3.3-1.4C1224.7,1867.9,1223.5,1867.4,1221.4,1867.4z
			"/>
		<path class="st4" d="M1242.7,1874.3v1.1h-13v-1.1h5.8v-3.1h-4.3v-7.3h1.3v2.6h7.3v-2.6h1.3v7.3h-4.3v3.1H1242.7z M1232.5,1870.1
			h7.3v-2.6h-7.3V1870.1z"/>
		<path class="st4" d="M1257.4,1872.6h-5.8v4.6h-1.3v-4.6h-5.8v-1.1h13V1872.6z M1245.2,1869.4c2.6-0.4,5-1.9,5-3.7h-4.6v-1.1h4.6
			v-1.8h1.3v1.8h4.6v1.1h-4.6c0,1.8,2.4,3.3,5,3.7l-0.5,1.1c-2.2-0.3-4.3-1.4-5.2-3c-0.9,1.6-3,2.7-5.2,3L1245.2,1869.4z"/>
		<path class="st4" d="M1266.9,1871.5c-1.6-0.5-2.9-1.7-3.6-3.1c-0.6,1.6-1.9,2.8-3.6,3.4l-0.7-1c2.1-0.7,3.6-2.5,3.6-4.5v-0.4h-3.2
			v-1.1h3.2v-1.8h1.3v1.8h3.2v1.1h-3.2v0.4c0,1.9,1.5,3.6,3.6,4.2L1266.9,1871.5z M1271.3,1875.8v1.1h-9.6v-4.3h1.3v3.2H1271.3z
			 M1269.6,1867.2v-4.4h1.3v10.7h-1.3v-5.2h-2.9v-1.1H1269.6z"/>
		<path class="st4" d="M1283.3,1871.1c-1.4,0.2-2.8,0.4-4.1,0.5v5.2h-1.3v-5.1c-1.4,0.1-2.8,0.1-4,0.1l-0.2-1.1c2.7,0,6.3,0,9.5-0.5
			L1283.3,1871.1z M1274.8,1866.5c0-1.8,1.5-3,3.7-3c2.1,0,3.6,1.2,3.6,3c0,1.7-1.5,2.9-3.6,2.9
			C1276.4,1869.4,1274.8,1868.2,1274.8,1866.5z M1276.1,1866.5c0,1.1,1,1.9,2.4,1.9c1.4,0,2.4-0.8,2.4-1.9c0-1.1-1-1.9-2.4-1.9
			C1277.1,1864.6,1276.1,1865.3,1276.1,1866.5z M1285.6,1862.8v14.4h-1.3v-14.4H1285.6z"/>
		<path class="st4" d="M1292.6,1870.5c-1.4,0.1-2.8,0.1-4,0.1l-0.2-1.1c2.7,0,6.2,0,9.3-0.4l0.1,0.9c-1.3,0.2-2.6,0.3-3.9,0.4v2.8
			h-1.3V1870.5z M1289.6,1865.9c0-1.5,1.4-2.5,3.5-2.5s3.5,1,3.5,2.5c0,1.5-1.4,2.5-3.5,2.5S1289.6,1867.4,1289.6,1865.9z
			 M1300.6,1875.8v1.1h-10.1v-4.2h1.3v3.1H1300.6z M1290.8,1865.9c0,0.9,0.9,1.5,2.3,1.5s2.3-0.6,2.3-1.5c0-0.9-0.9-1.5-2.3-1.5
			S1290.8,1865,1290.8,1865.9z M1299,1871.3v-8.5h1.3v10.9h-1.3v-1.5h-2.9v-1H1299z"/>
		<path class="st4" d="M1308.7,1873.2c1.4-0.1,2.8-0.2,4.1-0.3l0.1,1c-3.2,0.5-6.7,0.6-9.3,0.6l-0.2-1.1c1.2,0,2.6,0,4-0.1v-1.5
			c-1.7-0.2-2.8-1.2-2.8-2.6c0-1.6,1.4-2.7,3.5-2.7s3.4,1,3.4,2.7c0,1.4-1.1,2.4-2.8,2.6V1873.2z M1312.4,1865.6h-8.7v-1.1h3.7v-1.8
			h1.3v1.8h3.7V1865.6z M1308,1870.8c1.3,0,2.2-0.6,2.2-1.6c0-1-0.9-1.6-2.2-1.6c-1.3,0-2.2,0.6-2.2,1.6
			C1305.8,1870.1,1306.7,1870.8,1308,1870.8z M1315,1862.8v14.4h-1.3v-14.4H1315z"/>
		<path class="st4" d="M1318.1,1873c2.6,0,6.2,0,9.3-0.5l0.1,1c-3.2,0.6-6.7,0.6-9.3,0.6L1318.1,1873z M1326.5,1867.3
			c0,2-1.6,3.4-3.8,3.4c-2.2,0-3.8-1.4-3.8-3.4c0-2,1.6-3.4,3.8-3.4C1324.9,1863.9,1326.5,1865.2,1326.5,1867.3z M1320.1,1867.3
			c0,1.3,1.1,2.3,2.6,2.3c1.5,0,2.6-0.9,2.6-2.3c0-1.3-1.1-2.3-2.6-2.3C1321.2,1865,1320.1,1865.9,1320.1,1867.3z M1329.7,1862.8
			v14.4h-1.3v-14.4H1329.7z"/>
		<path class="st4" d="M1349.3,1872.6h-5.8v4.6h-1.3v-4.6h-5.8v-1.1h13V1872.6z M1337.1,1869.4c2.6-0.4,5-1.9,5-3.7h-4.6v-1.1h4.6
			v-1.8h1.3v1.8h4.6v1.1h-4.6c0,1.8,2.4,3.3,5,3.7l-0.5,1.1c-2.2-0.3-4.3-1.4-5.2-3c-0.9,1.6-3,2.7-5.2,3L1337.1,1869.4z"/>
		<path class="st4" d="M1358.8,1871.5c-1.6-0.5-2.9-1.7-3.6-3.1c-0.6,1.6-1.9,2.8-3.6,3.4l-0.7-1c2.1-0.7,3.6-2.5,3.6-4.5v-0.4h-3.2
			v-1.1h3.2v-1.8h1.3v1.8h3.2v1.1h-3.2v0.4c0,1.9,1.5,3.6,3.6,4.2L1358.8,1871.5z M1363.2,1875.8v1.1h-9.6v-4.3h1.3v3.2H1363.2z
			 M1361.5,1867.2v-4.4h1.3v10.7h-1.3v-5.2h-2.9v-1.1H1361.5z"/>
	</g>
	<g id="그룹_5057" transform="translate(0 71)">
		<path id="패스_1786-4" class="st1" d="M740,1917.7h140.1v-59.5H740V1917.7z"/>
		<path id="패스_1787-4" class="st2" d="M880,1917.5h780V1858H880V1917.5z"/>
	</g>
	<g class="st0">
		<path class="st3" d="M785.8,1963.9c-0.7-0.3-1.2-0.7-1.6-1.2c-0.4-0.5-0.6-1.2-0.6-1.9h2.9c0,0.4,0.2,0.7,0.4,1
			c0.2,0.2,0.6,0.3,1,0.3c0.4,0,0.7-0.1,1-0.3c0.2-0.2,0.4-0.4,0.4-0.8c0-0.3-0.1-0.5-0.3-0.7c-0.2-0.2-0.4-0.3-0.7-0.4
			c-0.3-0.1-0.7-0.2-1.2-0.4c-0.7-0.2-1.3-0.4-1.8-0.7c-0.5-0.2-0.9-0.6-1.2-1c-0.3-0.4-0.5-1-0.5-1.7c0-1,0.4-1.9,1.1-2.5
			s1.7-0.9,3-0.9c1.2,0,2.2,0.3,3,0.9s1.2,1.4,1.2,2.5h-3c0-0.4-0.2-0.6-0.4-0.9c-0.2-0.2-0.6-0.3-0.9-0.3c-0.3,0-0.6,0.1-0.8,0.3
			c-0.2,0.2-0.3,0.4-0.3,0.8c0,0.4,0.2,0.6,0.5,0.8c0.3,0.2,0.9,0.4,1.6,0.7c0.7,0.2,1.3,0.5,1.8,0.7c0.5,0.2,0.8,0.5,1.2,1
			s0.5,1,0.5,1.6c0,0.6-0.2,1.2-0.5,1.7c-0.3,0.5-0.8,0.9-1.4,1.2c-0.6,0.3-1.3,0.5-2.2,0.5C787.2,1964.3,786.5,1964.2,785.8,1963.9
			z"/>
		<path class="st3" d="M801.9,1953v2.2h-3v9h-2.7v-9h-3v-2.2H801.9z"/>
		<path class="st3" d="M806,1955.1v2.3h3.7v2.1H806v2.5h4.1v2.2h-6.9V1953h6.9v2.2H806z"/>
		<path class="st3" d="M820.1,1958.4c-0.3,0.5-0.8,1-1.4,1.3c-0.6,0.3-1.4,0.5-2.3,0.5h-1.7v4h-2.7V1953h4.4c0.9,0,1.7,0.2,2.3,0.5
			c0.6,0.3,1.1,0.7,1.4,1.3s0.5,1.2,0.5,1.9C820.5,1957.2,820.4,1957.8,820.1,1958.4z M817.3,1957.6c0.3-0.2,0.4-0.6,0.4-1
			s-0.1-0.8-0.4-1c-0.3-0.2-0.6-0.4-1.2-0.4h-1.5v2.8h1.5C816.7,1958,817.1,1957.9,817.3,1957.6z"/>
		<path class="st3" d="M828.5,1962.1v-2.2l5.1-7.2h3.1v7.1h1.3v2.4h-1.3v2.1h-2.7v-2.1H828.5z M834.1,1955.7l-2.7,4.1h2.7V1955.7z"
			/>
	</g>
	<g class="st0">
		<path class="st4" d="M1127.3,1960.8c-1.6-0.6-2.8-1.8-3.5-3.2c-0.6,1.7-1.9,3-3.6,3.6l-0.7-1c2.1-0.8,3.6-2.7,3.6-4.8v-0.5h-3.2
			v-1.1h7.7v1.1h-3.2v0.5c0,1.8,1.4,3.6,3.5,4.4L1127.3,1960.8z M1131.3,1964.5c0,1.7-1.8,2.7-4.8,2.7c-2.9,0-4.8-1-4.8-2.7
			c0-1.7,1.8-2.7,4.8-2.7C1129.5,1961.8,1131.3,1962.8,1131.3,1964.5z M1130,1964.5c0-1-1.3-1.7-3.5-1.7c-2.2,0-3.5,0.6-3.5,1.7
			c0,1,1.3,1.6,3.5,1.6C1128.7,1966.2,1130,1965.6,1130,1964.5z M1129.9,1956.6v-3.7h1.3v8.5h-1.3v-3.8h-2.8v-1.1H1129.9z"/>
		<path class="st4" d="M1141.7,1954.4c0,4.1-1.9,7.8-6.7,10.1l-0.7-1.1c3.9-1.8,5.8-4.6,6.1-8h-5.4v-1.1H1141.7z M1145.9,1952.8
			v14.4h-1.3v-14.4H1145.9z"/>
		<path class="st4" d="M1165.5,1962.1h-5.9v5.1h-1.3v-5.1h-5.8v-1.1h13L1165.5,1962.1z M1153.3,1958.8c2.5-0.4,5-2,5-3.9v-0.1h-4.5
			v-1.1h10.5v1.1h-4.5v0.1c0,1.9,2.5,3.5,5,3.9l-0.5,1c-2.2-0.4-4.4-1.6-5.2-3.3c-0.9,1.7-3,2.9-5.2,3.3L1153.3,1958.8z"/>
		<path class="st4" d="M1180.2,1962.1h-5.9v5.1h-1.3v-5.1h-5.8v-1.1h13L1180.2,1962.1z M1168,1958.8c2.5-0.4,5-2,5-3.9v-0.1h-4.5
			v-1.1h10.5v1.1h-4.5v0.1c0,1.9,2.5,3.5,5,3.9l-0.5,1c-2.2-0.4-4.4-1.6-5.2-3.3c-0.9,1.7-3,2.9-5.2,3.3L1168,1958.8z"/>
		<path class="st4" d="M1194.9,1960.3v1.1h-13v-1.1h5.8v-1.8h1.3v1.8H1194.9z M1182.7,1958.2c2.7-0.2,4.9-1.3,5-2.9h-4.4v-1h4.5
			v-1.5h1.3v1.5h4.5v1h-4.4c0.1,1.6,2.3,2.7,5,2.9l-0.4,1c-2.4-0.3-4.5-1.1-5.3-2.5c-0.9,1.4-3,2.3-5.3,2.5L1182.7,1958.2z
			 M1193.3,1964.8c0,1.6-1.8,2.4-4.9,2.4s-4.9-0.8-4.9-2.4s1.8-2.4,4.9-2.4S1193.3,1963.2,1193.3,1964.8z M1192,1964.8
			c0-0.9-1.3-1.4-3.6-1.4s-3.6,0.5-3.6,1.4s1.3,1.4,3.6,1.4S1192,1965.7,1192,1964.8z"/>
		<path class="st4" d="M1202,1963.2c1.4-0.1,2.8-0.2,4.1-0.3l0.1,1c-3.2,0.5-6.7,0.6-9.3,0.6l-0.2-1.1c1.2,0,2.6,0,4-0.1v-1.5
			c-1.7-0.2-2.8-1.2-2.8-2.6c0-1.6,1.4-2.7,3.5-2.7c2,0,3.4,1,3.4,2.7c0,1.4-1.1,2.4-2.8,2.6V1963.2z M1205.7,1955.6h-8.7v-1.1h3.7
			v-1.8h1.3v1.8h3.7V1955.6z M1201.4,1960.8c1.3,0,2.2-0.6,2.2-1.6c0-1-0.9-1.6-2.2-1.6c-1.3,0-2.2,0.6-2.2,1.6
			C1199.2,1960.1,1200.1,1960.8,1201.4,1960.8z M1208.3,1952.8v14.4h-1.3v-14.4H1208.3z"/>
		<path class="st4" d="M1219.4,1953.1h1.2v13.3h-1.2v-7h-1.8c-0.1,2.8-1.3,4.5-3,4.5c-1.9,0-3.1-1.9-3.1-5c0-3.1,1.2-5,3.1-5
			c1.7,0,2.9,1.7,3,4.4h1.8V1953.1z M1216.5,1959c0-2.3-0.7-3.8-1.9-3.8c-1.2,0-1.9,1.5-1.9,3.8c0,2.4,0.7,3.8,1.9,3.8
			C1215.7,1962.8,1216.5,1961.4,1216.5,1959z M1223.5,1952.8v14.4h-1.2v-14.4H1223.5z"/>
		<path class="st4" d="M1231.1,1956.6c0,2.6,1.6,5.2,3.7,6.2l-0.8,1c-1.6-0.8-2.9-2.5-3.6-4.5c-0.6,2.1-2,3.9-3.6,4.8l-0.8-1
			c2.1-1,3.7-3.8,3.7-6.5v-2.6h1.3V1956.6z M1237.9,1952.8v14.4h-1.3v-8.4h-3.3v-1.1h3.3v-4.9H1237.9z"/>
		<path class="st4" d="M1249.2,1956.7c0,2.5,1.6,5.1,3.6,6.1l-0.8,1c-1.5-0.8-2.8-2.5-3.5-4.5c-0.6,2.1-2,3.9-3.6,4.8l-0.8-1.1
			c2.1-1.1,3.7-3.8,3.7-6.4v-2.6h1.3V1956.7z M1257.8,1959.7h-2.4v7.4h-1.3v-14.3h1.3v5.8h2.4V1959.7z"/>
		<path class="st4" d="M1264.4,1962.9c1.4-0.1,2.8-0.2,4.1-0.4l0.1,1c-3.2,0.6-6.7,0.6-9.3,0.6l-0.2-1.1c1.2,0,2.5,0,3.9,0v-2.5
			c-1.9-0.2-3.2-1.5-3.2-3.3c0-2,1.6-3.4,3.8-3.4c2.3,0,3.9,1.4,3.9,3.4c0,1.8-1.3,3.1-3.2,3.3V1962.9z M1263.7,1959.4
			c1.5,0,2.6-0.9,2.6-2.3c0-1.3-1.1-2.2-2.6-2.2c-1.5,0-2.5,0.9-2.5,2.2C1261.2,1958.5,1262.3,1959.4,1263.7,1959.4z M1270.8,1952.8
			v14.4h-1.3v-14.4H1270.8z"/>
		<path class="st4" d="M1281.6,1958.9c0,3.1-1.5,5-3.6,5s-3.6-2-3.6-5c0-3.1,1.5-5,3.6-5S1281.6,1955.9,1281.6,1958.9z
			 M1275.6,1958.9c0,2.3,1,3.8,2.4,3.8c1.4,0,2.4-1.5,2.4-3.8c0-2.3-1-3.8-2.4-3.8C1276.6,1955.1,1275.6,1956.6,1275.6,1958.9z
			 M1285.6,1952.8v14.4h-1.3v-14.4H1285.6z"/>
		<path class="st4" d="M1293.3,1956.7c0,2.5,1.6,5.1,3.6,6.1l-0.8,1c-1.5-0.8-2.8-2.5-3.5-4.5c-0.6,2.1-2,3.9-3.6,4.8l-0.8-1.1
			c2.1-1.1,3.7-3.8,3.7-6.4v-2.6h1.3V1956.7z M1301.9,1959.7h-2.4v7.4h-1.3v-14.3h1.3v5.8h2.4V1959.7z"/>
		<path class="st4" d="M1319.8,1963.2h-5.9v4h-1.3v-4h-5.8v-1.1h13V1963.2z M1319,1955.5h-11.5v-1.1h5.2v-1.7h1.3v1.7h5.1V1955.5z
			 M1313.3,1956.3c2.9,0,4.6,0.9,4.6,2.4c0,1.5-1.7,2.4-4.6,2.4c-2.9,0-4.7-0.8-4.7-2.4C1308.7,1957.2,1310.4,1956.3,1313.3,1956.3z
			 M1313.3,1957.4c-2.1,0-3.3,0.5-3.3,1.4c0,0.9,1.2,1.4,3.3,1.4c2.1,0,3.3-0.5,3.3-1.4C1316.6,1957.9,1315.4,1957.4,1313.3,1957.4z
			"/>
		<path class="st4" d="M1334.6,1964.3v1.1h-13v-1.1h5.8v-3.1h-4.3v-7.3h1.3v2.6h7.3v-2.6h1.3v7.3h-4.3v3.1H1334.6z M1324.4,1960.1
			h7.3v-2.6h-7.3V1960.1z"/>
		<path class="st4" d="M1347.6,1961.2c-1.6-0.6-2.8-1.9-3.4-3.4c-0.6,1.7-1.9,3.1-3.6,3.7l-0.7-1c2.1-0.8,3.6-2.8,3.6-5v-1.8h1.3
			v1.8c0,2,1.4,3.9,3.5,4.7L1347.6,1961.2z M1352,1965.8v1.1h-9.6v-4.5h1.3v3.4H1352z M1350.4,1957.3h-3.1v-1.1h3.1v-3.4h1.3v10.7
			h-1.3V1957.3z"/>
		<path class="st4" d="M1362.4,1956.9c0,2-1.6,3.3-3.8,3.3c-2.2,0-3.7-1.4-3.7-3.3c0-2,1.6-3.3,3.7-3.3
			C1360.8,1953.6,1362.4,1955,1362.4,1956.9z M1356.2,1956.9c0,1.3,1,2.3,2.4,2.3c1.4,0,2.5-0.9,2.5-2.3c0-1.3-1-2.3-2.5-2.3
			C1357.2,1954.7,1356.2,1955.6,1356.2,1956.9z M1366.4,1961.8v5.2h-9.3v-5.2H1366.4z M1358.4,1962.9v3.1h6.7v-3.1H1358.4z
			 M1366.4,1952.8v8.2h-1.3v-8.2H1366.4z"/>
		<path class="st4" d="M1373,1963c2.6,0,6.2,0,9.3-0.5l0.1,1c-3.2,0.6-6.7,0.6-9.3,0.6L1373,1963z M1381.4,1957.3
			c0,2-1.6,3.4-3.8,3.4c-2.2,0-3.8-1.4-3.8-3.4c0-2,1.6-3.4,3.8-3.4C1379.8,1953.9,1381.4,1955.2,1381.4,1957.3z M1375,1957.3
			c0,1.3,1.1,2.3,2.6,2.3c1.5,0,2.6-0.9,2.6-2.3c0-1.3-1.1-2.3-2.6-2.3C1376.1,1955,1375,1955.9,1375,1957.3z M1384.6,1952.8v14.4
			h-1.3v-14.4H1384.6z"/>
		<path class="st4" d="M1394.6,1955.9c-0.9,2.3-3.1,3.8-6.3,4.5l-0.5-1.1c3.5-0.8,5.5-2.5,5.7-4.8h-5v-1.1h6.4c0,0.5,0,0.9-0.1,1.4
			h3.2v-2.1h1.3v7.3h-1.3v-1.5h-3.7v-1h3.7v-1.7H1394.6z M1399.9,1966v1h-9.7v-3.7h7.9v-1.5h-7.9v-1.1h9.3v3.5h-7.9v1.7H1399.9z"/>
	</g>
	<g id="그룹_4162" transform="translate(1253 1728.693)">
		<path id="패스_1794" class="st5" d="M7,8.1l7-8.1H0L7,8.1z"/>
	</g>
	<g id="그룹_4171" transform="translate(1253 1818.693)">
		<path id="패스_1794-2" class="st5" d="M7,8.1l7-8.1H0L7,8.1z"/>
	</g>
	<g id="그룹_4172" transform="translate(1253 1909.693)">
		<path id="패스_1794-3" class="st5" d="M7,8.1l7-8.1H0L7,8.1z"/>
	</g>
</g>
</svg>
