<?xml version="1.0" encoding="utf-8"?>
<!-- Generator: Adobe Illustrator 25.1.0, SVG Export Plug-In . SVG Version: 6.00 Build 0)  -->
<svg version="1.1" id="레이어_1" xmlns="http://www.w3.org/2000/svg" xmlns:xlink="http://www.w3.org/1999/xlink" x="0px"
	 y="0px" viewBox="0 0 920 235.8" style="enable-background:new 0 0 920 235.8;" xml:space="preserve">
<style type="text/css">
	.st0{fill:#E3F4FA;}
	.st1{enable-background:new    ;}
	.st2{fill:#929397;}
	.st3{fill:#2AA6D3;}
	.st4{fill:#A5A5A5;}
	.st5{fill:#FFFFFF;}
	.st6{fill:#8E8E8E;}
	.st7{fill:#525252;}
</style>
<g id="그룹_5412" transform="translate(-740 -2346)">
	<path id="패스_1787" class="st0" d="M961.8,2581.8H1660V2353H961.8V2581.8z"/>
	<g class="st1">
		<path class="st2" d="M748.1,2401.9c-1.7,0.3-3.2,0.4-5.8,0.4h-1v-5.8h5.6v0.9h-4.4v3.9c2.5,0,3.9-0.1,5.5-0.4L748.1,2401.9z
			 M743.8,2406.8h7.2v0.9h-8.4v-4.1h1.1V2406.8z M752.4,2399.2v1h-1.9v4.4h-1.1v-9.1h1.1v3.7H752.4z"/>
		<path class="st2" d="M762,2402.7c-1.2,0.2-2.4,0.4-3.6,0.4v4.5h-1.1v-4.5c-1.2,0.1-2.4,0.1-3.5,0.1l-0.2-1c2.3,0,5.5,0,8.3-0.4
			L762,2402.7z M754.5,2398.7c0-1.5,1.3-2.6,3.2-2.6c1.9,0,3.2,1,3.2,2.6c0,1.5-1.3,2.6-3.2,2.6
			C755.9,2401.2,754.5,2400.2,754.5,2398.7z M755.6,2398.7c0,1,0.9,1.6,2.1,1.6c1.2,0,2.1-0.7,2.1-1.6s-0.9-1.6-2.1-1.6
			C756.5,2397,755.6,2397.7,755.6,2398.7z M763.9,2395.5v12.6h-1.1v-12.6H763.9z"/>
		<path class="st2" d="M766.8,2400.6c0-0.6,0.4-1,0.9-1c0.5,0,0.9,0.4,0.9,1c0,0.6-0.4,1-0.9,1
			C767.2,2401.5,766.8,2401.1,766.8,2400.6z M766.8,2406.2c0-0.6,0.4-1,0.9-1c0.5,0,0.9,0.4,0.9,1c0,0.6-0.4,1-0.9,1
			C767.2,2407.2,766.8,2406.8,766.8,2406.2z"/>
		<path class="st2" d="M778.3,2404.6c1.2-0.1,2.4-0.1,3.6-0.3l0.1,0.9c-2.8,0.5-5.8,0.5-8.1,0.5l-0.2-1c1.1,0,2.3,0,3.5-0.1v-1.3
			c-1.5-0.2-2.5-1.1-2.5-2.3c0-1.4,1.2-2.3,3-2.3s3,0.9,3,2.3c0,1.2-1,2.1-2.4,2.3V2404.6z M781.5,2397.9h-7.6v-0.9h3.2v-1.5h1.1
			v1.5h3.2V2397.9z M777.7,2402.4c1.1,0,1.9-0.6,1.9-1.4c0-0.9-0.8-1.4-1.9-1.4c-1.1,0-1.9,0.6-1.9,1.4
			C775.8,2401.8,776.5,2402.4,777.7,2402.4z M783.8,2395.5v12.6h-1.1v-12.6H783.8z"/>
	</g>
	<g class="st1">
		<path class="st3" d="M753.3,2363.4c0,4.9-2.5,7.9-5.8,7.9c-3.3,0-5.8-3-5.8-7.9c0-4.8,2.5-7.9,5.8-7.9
			C750.8,2355.5,753.3,2358.5,753.3,2363.4z M744.7,2363.4c0,3.3,1.1,5,2.8,5c1.6,0,2.8-1.8,2.8-5c0-3.3-1.1-5-2.8-5
			C745.8,2358.4,744.7,2360.1,744.7,2363.4z M759.3,2353.9v22.2h-3.2v-22.2H759.3z"/>
		<path class="st3" d="M771.2,2358.9c0,4,1.6,8,5.1,9.7l-1.9,2.5c-2.3-1.2-3.9-3.3-4.8-6c-1,2.8-2.6,5.1-5.1,6.4l-1.9-2.6
			c3.7-1.8,5.4-6,5.4-10.1v-3.2h3.2V2358.9z M783.6,2365.1h-3.2v11h-3.2V2354h3.2v8.5h3.2V2365.1z"/>
		<path class="st3" d="M794,2369.7c1.8-0.1,3.6-0.2,5.3-0.5l0.2,2.3c-4.8,0.9-9.9,0.9-13.8,0.9l-0.4-2.6c1.7,0,3.5,0,5.5,0v-1.9
			c-2.4-0.5-3.9-1.9-3.9-4c0-2.5,2.3-4.2,5.5-4.2c3.2,0,5.5,1.7,5.5,4.2c0,2.1-1.5,3.6-3.9,4V2369.7z M799,2358.9h-13.3v-2.5h5.1
			v-2.4h3.2v2.4h5V2358.9z M792.4,2365.7c1.5,0,2.5-0.6,2.5-1.8c0-1.1-1-1.8-2.5-1.8c-1.5,0-2.5,0.6-2.5,1.8
			C789.9,2365,790.9,2365.7,792.4,2365.7z M803.6,2354v22.1h-3.2V2354H803.6z"/>
		<path class="st3" d="M822.3,2356.7c0,6.2-1.8,11.3-8,14.9l-1.8-2.2c4.4-2.6,6.3-5.8,6.7-10.1h-5.6v-2.5H822.3z M831.7,2354v22.1
			h-3v-11.2h-2v10.3h-3v-20.6h3v7.8h2v-8.3H831.7z"/>
		<path class="st3" d="M843.7,2369.2c1.8-0.1,3.5-0.3,5.2-0.5l0.2,2.3c-4.8,1-10,1-13.8,1l-0.4-2.6c1.6,0,3.6,0,5.6-0.1v-3.4h3.2
			V2369.2z M835.4,2364.2c3.3-0.9,4.8-2.9,5.1-5.1H836v-2.5h4.4v-2.4h3.2v2.4h4.5v2.5h-4.5c0.2,2.1,1.8,4.1,5.1,4.9l-1.4,2.4
			c-2.5-0.6-4.3-2.1-5.3-3.9c-1,1.9-2.7,3.4-5.3,4.1L835.4,2364.2z M853.2,2353.9v22.2h-3.2v-22.2H853.2z"/>
		<path class="st3" d="M874.5,2358.8h-12.1v-2.5h4.6v-2.4h3.2v2.4h4.3V2358.8z M868.6,2368.2c-3,0-5.2-1.8-5.2-4.4
			c0-2.5,2.2-4.3,5.2-4.3c3,0,5.2,1.8,5.2,4.3C873.8,2366.4,871.6,2368.2,868.6,2368.2z M881.3,2373.2v2.5h-15.1v-6.2h3.2v3.7H881.3
			z M868.6,2365.8c1.3,0,2.2-0.7,2.2-1.9c0-1.2-0.9-1.9-2.2-1.9c-1.3,0-2.2,0.7-2.2,1.9C866.4,2365.1,867.3,2365.8,868.6,2365.8z
			 M877.6,2366.7h-2.9v-2.5h2.9v-2.2h-2.9v-2.5h2.9v-5.5h3.2v16.8h-3.2V2366.7z"/>
		<path class="st3" d="M898,2367.4c-4.6,0.8-9.7,0.9-13.5,0.9l-0.3-2.4c1.6,0,3.4,0,5.3,0v-1.2c-2.4-0.4-3.8-1.4-3.8-3.1
			c0-2,2.1-3.2,5.4-3.2c3.3,0,5.4,1.2,5.4,3.2c0,1.6-1.4,2.7-3.8,3v1.2c1.8-0.1,3.6-0.2,5.2-0.4L898,2367.4z M897.2,2357.8h-12.6
			v-2.3h4.7v-1.8h3.2v1.8h4.7V2357.8z M902.1,2372.6c0,2.3-2.8,3.5-7.5,3.5s-7.5-1.2-7.5-3.5c0-2.3,2.8-3.5,7.5-3.5
			S902.1,2370.3,902.1,2372.6z M891,2362.6c1.5,0,2.4-0.4,2.4-1.1s-0.9-1.1-2.4-1.1c-1.5,0-2.4,0.4-2.4,1.1S889.5,2362.6,891,2362.6
			z M898.9,2372.6c0-0.8-1.3-1.2-4.3-1.2c-3,0-4.3,0.4-4.3,1.2c0,0.8,1.3,1.2,4.3,1.2C897.5,2373.8,898.9,2373.4,898.9,2372.6z
			 M904.7,2360.2v2.6h-2.8v6h-3.2V2354h3.2v6.3H904.7z"/>
	</g>
	<g id="그룹_5411" transform="translate(-30.816 32)">
		<g id="그룹_5405" transform="translate(1223.045 2445.078) rotate(-90)">
			<path id="패스_1794" class="st4" d="M10.4,12L20.8,0H0L10.4,12z"/>
		</g>
		<g id="그룹_5410" transform="translate(1448.453 2445.078) rotate(-90)">
			<path id="패스_1794-2" class="st4" d="M10.4,12L20.8,0H0L10.4,12z"/>
		</g>
		<g id="그룹_5407">
			<circle id="타원_116" class="st5" cx="1116.3" cy="2435" r="83.7"/>
			<g class="st1">
				<path class="st6" d="M1100,2419.7v-5.4h10.8v37.9h-6v-32.5H1100z"/>
				<path class="st6" d="M1119.3,2419.7v-5.4h10.8v37.9h-6v-32.5H1119.3z"/>
			</g>
			<g class="st1">
				<path class="st7" d="M1102.7,2476c0.9-0.8,1.6-1.4,2.1-1.9c0.5-0.5,0.9-1,1.3-1.6c0.3-0.5,0.5-1.1,0.5-1.6c0-0.6-0.1-1-0.4-1.3
					c-0.3-0.3-0.7-0.5-1.3-0.5c-0.6,0-1,0.2-1.3,0.5c-0.3,0.4-0.5,0.8-0.5,1.4h-1.5c0-1.1,0.3-1.9,1-2.4c0.6-0.6,1.4-0.8,2.3-0.8
					c1,0,1.8,0.3,2.4,0.8c0.6,0.6,0.9,1.3,0.9,2.2c0,0.7-0.2,1.3-0.5,1.9c-0.3,0.6-0.7,1.2-1.2,1.7c-0.5,0.5-1.1,1.1-1.8,1.7
					l-0.6,0.6h4.4v1.3h-6.8v-1.2L1102.7,2476z"/>
				<path class="st7" d="M1110.7,2469.1c0.5-0.9,1.5-1.4,2.8-1.4c1.3,0,2.3,0.5,2.8,1.4c0.5,0.9,0.8,2.2,0.8,3.8
					c0,1.6-0.3,2.9-0.8,3.8c-0.5,0.9-1.5,1.4-2.8,1.4c-1.3,0-2.3-0.5-2.8-1.4c-0.5-0.9-0.8-2.2-0.8-3.8
					C1109.9,2471.3,1110.2,2470.1,1110.7,2469.1z M1115.5,2471c-0.1-0.5-0.3-0.9-0.6-1.3c-0.3-0.3-0.7-0.5-1.3-0.5s-1,0.2-1.3,0.5
					c-0.3,0.3-0.5,0.8-0.6,1.3c-0.1,0.5-0.1,1.2-0.1,1.9c0,0.8,0,1.4,0.1,2c0.1,0.5,0.3,1,0.6,1.3c0.3,0.3,0.7,0.5,1.3,0.5
					s1-0.2,1.3-0.5c0.3-0.3,0.5-0.8,0.6-1.3c0.1-0.5,0.1-1.2,0.1-2C1115.6,2472.2,1115.6,2471.5,1115.5,2471z"/>
				<path class="st7" d="M1118.7,2469.4v-1.5h2.9v10.2h-1.6v-8.8H1118.7z"/>
				<path class="st7" d="M1124,2470.5c0-0.5,0.1-1,0.4-1.4s0.6-0.8,1.1-1c0.5-0.2,1.1-0.4,1.8-0.4c0.7,0,1.3,0.1,1.8,0.4
					c0.5,0.2,0.9,0.6,1.1,1c0.3,0.4,0.4,0.9,0.4,1.4c0,0.5-0.1,1-0.4,1.4c-0.3,0.4-0.6,0.7-1.1,0.9c0.5,0.2,1,0.5,1.3,1
					s0.5,1,0.5,1.6c0,0.6-0.2,1.1-0.5,1.6s-0.7,0.8-1.3,1.1s-1.2,0.4-1.9,0.4c-0.7,0-1.3-0.1-1.9-0.4c-0.5-0.3-1-0.6-1.3-1.1
					s-0.5-1-0.5-1.6c0-0.6,0.2-1.1,0.5-1.6s0.7-0.8,1.2-1C1124.5,2472.4,1124,2471.6,1124,2470.5z M1125.9,2474
					c-0.4,0.3-0.6,0.7-0.6,1.3c0,0.5,0.2,1,0.6,1.3c0.4,0.3,0.9,0.5,1.5,0.5c0.6,0,1.1-0.2,1.5-0.5c0.4-0.3,0.6-0.8,0.6-1.3
					c0-0.6-0.2-1-0.6-1.3c-0.4-0.3-0.9-0.5-1.5-0.5C1126.8,2473.5,1126.3,2473.7,1125.9,2474z M1128.7,2469.5
					c-0.3-0.3-0.8-0.4-1.3-0.4c-0.6,0-1,0.1-1.3,0.4c-0.3,0.3-0.5,0.7-0.5,1.2c0,0.5,0.2,0.8,0.5,1.1c0.3,0.3,0.8,0.4,1.3,0.4
					c0.5,0,1-0.1,1.3-0.4c0.3-0.3,0.5-0.7,0.5-1.1C1129.2,2470.2,1129.1,2469.8,1128.7,2469.5z"/>
			</g>
		</g>
		<g id="그룹_5408" transform="translate(225.408)">
			<circle id="타원_116-2" class="st5" cx="1116.3" cy="2435" r="83.7"/>
			<g class="st1">
				<path class="st6" d="M1094.1,2419.7v-5.4h10.8v37.9h-6v-32.5H1094.1z"/>
				<path class="st6" d="M1117.4,2444.1c3.3-2.9,6-5.2,7.9-7.1c1.9-1.9,3.5-3.8,4.8-5.8c1.3-2,1.9-4,1.9-6c0-2.1-0.5-3.7-1.5-4.9
					c-1-1.2-2.5-1.8-4.7-1.8c-2,0-3.6,0.6-4.8,1.9c-1.1,1.3-1.7,3-1.8,5.2h-5.7c0.1-4,1.3-7,3.6-9.1c2.3-2.1,5.2-3.1,8.7-3.1
					c3.8,0,6.7,1,8.9,3.1s3.2,4.9,3.2,8.3c0,2.5-0.6,4.9-1.9,7.2c-1.3,2.3-2.8,4.4-4.5,6.2c-1.8,1.8-4,3.9-6.7,6.3l-2.3,2.1h16.5
					v4.9h-25.3v-4.3L1117.4,2444.1z"/>
			</g>
			<g class="st1">
				<path class="st7" d="M1102.7,2476c0.9-0.8,1.6-1.4,2.1-1.9c0.5-0.5,1-1,1.3-1.6c0.3-0.5,0.5-1.1,0.5-1.6c0-0.6-0.1-1-0.4-1.3
					c-0.3-0.3-0.7-0.5-1.3-0.5c-0.6,0-1,0.2-1.3,0.5c-0.3,0.4-0.5,0.8-0.5,1.4h-1.5c0-1.1,0.3-1.9,1-2.4c0.6-0.6,1.4-0.8,2.3-0.8
					c1,0,1.8,0.3,2.4,0.8c0.6,0.6,0.9,1.3,0.9,2.2c0,0.7-0.2,1.3-0.5,1.9c-0.3,0.6-0.7,1.2-1.2,1.7c-0.5,0.5-1.1,1.1-1.8,1.7
					l-0.6,0.6h4.4v1.3h-6.8v-1.2L1102.7,2476z"/>
				<path class="st7" d="M1110.7,2469.1c0.5-0.9,1.5-1.4,2.8-1.4c1.3,0,2.3,0.5,2.8,1.4c0.5,0.9,0.8,2.2,0.8,3.8
					c0,1.6-0.3,2.9-0.8,3.8c-0.5,0.9-1.5,1.4-2.8,1.4c-1.3,0-2.3-0.5-2.8-1.4c-0.5-0.9-0.8-2.2-0.8-3.8
					C1109.9,2471.3,1110.2,2470.1,1110.7,2469.1z M1115.5,2471c-0.1-0.5-0.3-0.9-0.6-1.3c-0.3-0.3-0.7-0.5-1.3-0.5s-1,0.2-1.3,0.5
					c-0.3,0.3-0.5,0.8-0.6,1.3c-0.1,0.5-0.1,1.2-0.1,1.9c0,0.8,0,1.4,0.1,2c0.1,0.5,0.3,1,0.6,1.3c0.3,0.3,0.7,0.5,1.3,0.5
					s1-0.2,1.3-0.5c0.3-0.3,0.5-0.8,0.6-1.3c0.1-0.5,0.1-1.2,0.1-2C1115.6,2472.2,1115.6,2471.5,1115.5,2471z"/>
				<path class="st7" d="M1118.7,2469.4v-1.5h2.9v10.2h-1.6v-8.8H1118.7z"/>
				<path class="st7" d="M1126.4,2476.5c0.3,0.2,0.7,0.4,1.2,0.4c0.7,0,1.1-0.3,1.5-0.8s0.5-1.4,0.5-2.7c-0.2,0.3-0.5,0.6-0.9,0.7
					c-0.4,0.2-0.8,0.3-1.3,0.3c-0.6,0-1.2-0.1-1.7-0.4c-0.5-0.2-0.9-0.6-1.2-1.1c-0.3-0.5-0.4-1.1-0.4-1.8c0-1,0.3-1.8,0.9-2.5
					c0.6-0.6,1.4-0.9,2.5-0.9c1.3,0,2.2,0.4,2.7,1.3c0.5,0.8,0.8,2.1,0.8,3.9c0,1.2-0.1,2.2-0.3,3c-0.2,0.8-0.5,1.3-1,1.7
					c-0.5,0.4-1.2,0.6-2.1,0.6c-1,0-1.8-0.3-2.3-0.8s-0.8-1.2-0.9-2h1.5C1125.9,2475.9,1126.1,2476.2,1126.4,2476.5z M1128.9,2472.5
					c0.3-0.4,0.5-0.8,0.5-1.4c0-0.6-0.2-1.1-0.5-1.5s-0.8-0.5-1.4-0.5s-1.1,0.2-1.4,0.6c-0.3,0.4-0.5,0.9-0.5,1.4
					c0,0.6,0.2,1,0.5,1.4c0.3,0.4,0.8,0.6,1.5,0.6C1128.1,2473,1128.6,2472.8,1128.9,2472.5z"/>
			</g>
		</g>
		<g id="그룹_5409" transform="translate(450.816)">
			<circle id="타원_116-3" class="st5" cx="1116.3" cy="2435" r="83.7"/>
			<g class="st1">
				<path class="st3" d="M1093.7,2419.7v-5.4h10.8v37.9h-6v-32.5H1093.7z"/>
				<path class="st3" d="M1117.3,2416.1c2.3-1.8,5.2-2.7,8.7-2.7c2.4,0,4.5,0.4,6.3,1.3c1.8,0.9,3.1,2,4,3.5c0.9,1.5,1.4,3.2,1.4,5
					c0,2.2-0.6,4-1.7,5.5c-1.1,1.5-2.5,2.5-4.1,3.1v0.2c2,0.6,3.6,1.8,4.8,3.4s1.7,3.8,1.7,6.3c0,2-0.5,3.9-1.4,5.5
					c-0.9,1.6-2.3,2.9-4.2,3.8c-1.8,0.9-4,1.4-6.6,1.4c-3.7,0-6.8-1-9.2-2.9c-2.4-1.9-3.7-4.7-3.9-8.3h5.7c0.1,1.8,0.8,3.3,2.1,4.5
					c1.3,1.2,3,1.7,5.2,1.7c2.1,0,3.7-0.6,4.9-1.7c1.1-1.2,1.7-2.7,1.7-4.5c0-2.4-0.8-4.2-2.3-5.2c-1.5-1-3.9-1.5-7.1-1.5h-1.4v-4.9
					h1.4c2.8,0,4.9-0.5,6.4-1.4s2.2-2.3,2.2-4.3c0-1.7-0.5-3-1.6-4c-1.1-1-2.6-1.5-4.6-1.5c-1.9,0-3.5,0.5-4.5,1.5
					c-1.1,1-1.7,2.2-1.9,3.7h-5.8C1113.8,2420.4,1115.1,2417.9,1117.3,2416.1z"/>
			</g>
			<g class="st1">
				<path class="st7" d="M1101.1,2476c0.9-0.8,1.6-1.4,2.1-1.9s0.9-1,1.3-1.6c0.3-0.5,0.5-1.1,0.5-1.6c0-0.6-0.1-1-0.4-1.3
					s-0.7-0.5-1.3-0.5c-0.6,0-1,0.2-1.3,0.5c-0.3,0.4-0.5,0.8-0.5,1.4h-1.5c0-1.1,0.3-1.9,1-2.4c0.6-0.6,1.4-0.8,2.3-0.8
					c1,0,1.8,0.3,2.4,0.8c0.6,0.6,0.9,1.3,0.9,2.2c0,0.7-0.2,1.3-0.5,1.9c-0.3,0.6-0.7,1.2-1.2,1.7c-0.5,0.5-1.1,1.1-1.8,1.7
					l-0.6,0.6h4.4v1.3h-6.8v-1.2L1101.1,2476z"/>
				<path class="st7" d="M1109.1,2469.1c0.5-0.9,1.5-1.4,2.8-1.4s2.3,0.5,2.8,1.4c0.5,0.9,0.8,2.2,0.8,3.8c0,1.6-0.3,2.9-0.8,3.8
					c-0.5,0.9-1.5,1.4-2.8,1.4s-2.3-0.5-2.8-1.4c-0.5-0.9-0.8-2.2-0.8-3.8C1108.3,2471.3,1108.6,2470.1,1109.1,2469.1z M1113.8,2471
					c-0.1-0.5-0.3-0.9-0.6-1.3c-0.3-0.3-0.7-0.5-1.3-0.5s-1,0.2-1.3,0.5c-0.3,0.3-0.5,0.8-0.6,1.3c-0.1,0.5-0.1,1.2-0.1,1.9
					c0,0.8,0,1.4,0.1,2c0.1,0.5,0.3,1,0.6,1.3c0.3,0.3,0.7,0.5,1.3,0.5s1-0.2,1.3-0.5c0.3-0.3,0.5-0.8,0.6-1.3
					c0.1-0.5,0.1-1.2,0.1-2C1114,2472.2,1113.9,2471.5,1113.8,2471z"/>
				<path class="st7" d="M1118.1,2476c0.9-0.8,1.6-1.4,2.1-1.9s0.9-1,1.3-1.6c0.3-0.5,0.5-1.1,0.5-1.6c0-0.6-0.1-1-0.4-1.3
					s-0.7-0.5-1.3-0.5c-0.6,0-1,0.2-1.3,0.5c-0.3,0.4-0.5,0.8-0.5,1.4h-1.5c0-1.1,0.3-1.9,1-2.4c0.6-0.6,1.4-0.8,2.3-0.8
					c1,0,1.8,0.3,2.4,0.8c0.6,0.6,0.9,1.3,0.9,2.2c0,0.7-0.2,1.3-0.5,1.9c-0.3,0.6-0.7,1.2-1.2,1.7c-0.5,0.5-1.1,1.1-1.8,1.7
					l-0.6,0.6h4.4v1.3h-6.8v-1.2L1118.1,2476z"/>
				<path class="st7" d="M1126.2,2469.1c0.5-0.9,1.5-1.4,2.8-1.4s2.3,0.5,2.8,1.4c0.5,0.9,0.8,2.2,0.8,3.8c0,1.6-0.3,2.9-0.8,3.8
					c-0.5,0.9-1.5,1.4-2.8,1.4s-2.3-0.5-2.8-1.4c-0.5-0.9-0.8-2.2-0.8-3.8C1125.3,2471.3,1125.6,2470.1,1126.2,2469.1z M1130.9,2471
					c-0.1-0.5-0.3-0.9-0.6-1.3c-0.3-0.3-0.7-0.5-1.3-0.5s-1,0.2-1.3,0.5c-0.3,0.3-0.5,0.8-0.6,1.3c-0.1,0.5-0.1,1.2-0.1,1.9
					c0,0.8,0,1.4,0.1,2c0.1,0.5,0.3,1,0.6,1.3c0.3,0.3,0.7,0.5,1.3,0.5s1-0.2,1.3-0.5c0.3-0.3,0.5-0.8,0.6-1.3
					c0.1-0.5,0.1-1.2,0.1-2C1131,2472.2,1131,2471.5,1130.9,2471z"/>
			</g>
		</g>
	</g>
</g>
</svg>
