<?xml version="1.0" encoding="utf-8"?>
<!-- Generator: Adobe Illustrator 25.3.1, SVG Export Plug-In . SVG Version: 6.00 Build 0)  -->
<svg version="1.1" id="레이어_1" xmlns="http://www.w3.org/2000/svg" xmlns:xlink="http://www.w3.org/1999/xlink" x="0px"
	 y="0px" viewBox="0 0 335 236.5" style="enable-background:new 0 0 335 236.5;" xml:space="preserve">
<style type="text/css">
	.st0{enable-background:new    ;}
	.st1{fill:#2AA6D3;}
	.st2{fill:#E3F4FA;}
	.st3{fill:#555555;}
	.st4{fill:#94989E;}
	.st5{fill:#FFFFFF;}
</style>
<g id="그룹_5873" transform="translate(-20 -1196.167)">
	<g id="그룹_5841">
		<g class="st0">
			<path class="st1" d="M25.4,1203.3c0,2.3,0.9,4.7,3,5.7l-1.1,1.5c-1.3-0.7-2.3-1.9-2.8-3.5c-0.6,1.6-1.5,3-3,3.7l-1.1-1.5
				c2.2-1,3.2-3.5,3.2-5.9v-1.9h1.9V1203.3z M32.6,1207h-1.9v6.4h-1.8v-12.9h1.8v5h1.9V1207z"/>
			<path class="st1" d="M38.6,1209.2c1.1-0.1,2.1-0.2,3.1-0.3l0.1,1.3c-2.8,0.6-5.8,0.6-8,0.6l-0.2-1.5c0.9,0,2,0,3.2,0v-1.8
				c-1.5-0.3-2.6-1.5-2.6-3.1c0-1.8,1.5-3.2,3.5-3.2s3.6,1.3,3.6,3.2c0,1.6-1.1,2.7-2.6,3.1V1209.2z M37.6,1206c1,0,1.8-0.6,1.8-1.6
				s-0.8-1.6-1.8-1.6s-1.8,0.6-1.8,1.6S36.6,1206,37.6,1206z M44.2,1200.5v12.9h-1.8v-12.9H44.2z"/>
			<path class="st1" d="M53.5,1206c0,2.8-1.4,4.6-3.4,4.6c-1.9,0-3.4-1.8-3.4-4.6c0-2.8,1.4-4.6,3.4-4.6
				C52.1,1201.4,53.5,1203.1,53.5,1206z M48.5,1206c0,1.9,0.7,2.9,1.6,2.9s1.6-1,1.6-2.9c0-1.9-0.7-2.9-1.6-2.9
				S48.5,1204.1,48.5,1206z M57,1200.5v12.9h-1.8v-12.9H57z"/>
			<path class="st1" d="M64,1203.3c0,2.3,0.9,4.7,3,5.7l-1.1,1.5c-1.3-0.7-2.3-1.9-2.8-3.5c-0.6,1.6-1.5,3-3,3.7l-1.1-1.5
				c2.2-1,3.2-3.5,3.2-5.9v-1.9H64V1203.3z M71.2,1207h-1.9v6.4h-1.8v-12.9h1.8v5h1.9V1207z"/>
			<path class="st1" d="M82,1208.1c-1.3-0.5-2.3-1.4-2.8-2.6c-0.5,1.3-1.5,2.4-3,2.9l-1-1.4c2.1-0.7,3-2.5,3-4.3v-1.4h1.9v1.4
				c0,1.7,0.9,3.3,2.9,4L82,1208.1z M86.4,1211.7v1.5h-8.8v-4.1h1.8v2.6H86.4z M84.2,1204.7h-2.4v-1.5h2.4v-2.7h1.8v9.5h-1.8V1204.7
				z"/>
			<path class="st1" d="M95.4,1204.2c0,1.8-1.5,3.1-3.5,3.1s-3.5-1.3-3.5-3.1c0-1.8,1.5-3.1,3.5-3.1S95.4,1202.3,95.4,1204.2z
				 M90.2,1204.2c0,1,0.7,1.6,1.7,1.6c1,0,1.7-0.6,1.7-1.6c0-1-0.7-1.6-1.7-1.6C90.9,1202.6,90.2,1203.2,90.2,1204.2z M98.9,1208.4
				v4.9h-8.6v-4.9H98.9z M92.1,1209.8v2h5v-2H92.1z M98.9,1200.5v7.3H97v-7.3H98.9z"/>
			<path class="st1" d="M111.1,1207c-1.4-0.4-2.4-1.2-3-2.3c-0.6,1.2-1.6,2.1-3.1,2.6l-0.9-1.4c2-0.6,3-2.1,3-3.4h-2.5v-1.5h6.9v1.5
				H109c0.1,1.3,1,2.6,2.9,3.2L111.1,1207z M115.4,1211.8v1.4h-8.9v-3.5h6.7v-0.7h-6.7v-1.4h8.5v3.5h-6.7v0.8H115.4z M113.2,1203.1
				v-2.6h1.8v6.6h-1.8v-2.5h-2v-1.5H113.2z"/>
			<path class="st1" d="M121.8,1204.5c0,1.8,0.9,3.9,2.9,4.9l-1,1.4c-1.4-0.6-2.3-1.8-2.8-3.3c-0.6,1.5-1.6,2.8-3,3.5l-1-1.4
				c2.1-1,3.1-3.2,3.1-5.1v-0.4h-2.6v-1.5h2.6v-1.8h1.8v1.8h2.5v1.5h-2.6V1204.5z M129.1,1207h-1.9v6.4h-1.8v-12.9h1.8v5h1.9V1207z"
				/>
		</g>
		<path id="패스_1787" class="st2" d="M84,1263.5h271v-37.3H84L84,1263.5z"/>
		<g class="st0">
			<path class="st3" d="M125.7,1245.4v0.8h-9.7v-0.8h4.4v-1.3h-3.2v-3.6h7.3v0.8h-6.3v2.1h6.4v0.8h-3.3v1.3H125.7z M117,1247.3h7.5
				v3.6h-1v-2.8H117V1247.3z"/>
			<path class="st3" d="M133.6,1245.4c-1.8,0.3-3.2,0.3-5.2,0.3h-0.9v-3h3.9v-1.4h-3.9v-0.8h4.9v2.9h-3.9v1.5c1.9,0,3.3-0.1,5-0.3
				L133.6,1245.4z M134.8,1246.5h1v4.2h-7v-4.2h1v1.3h5V1246.5z M134.8,1248.6h-5v1.3h5V1248.6z M135.8,1240.1v5.9h-1v-5.9H135.8z"
				/>
			<path class="st3" d="M143.8,1245.9c-1.2-0.4-2.1-1.3-2.6-2.4c-0.5,1.3-1.4,2.2-2.7,2.7l-0.5-0.8c1.7-0.6,2.7-2,2.7-3.7v-1.1h1
				v1.1c0,1.5,1,2.9,2.6,3.4L143.8,1245.9z M146.9,1248.8c0,1.3-1.4,2-3.6,2c-2.2,0-3.6-0.7-3.6-2c0-1.3,1.4-2,3.6-2
				C145.5,1246.8,146.9,1247.5,146.9,1248.8z M145.9,1248.8c0-0.8-1-1.3-2.6-1.3s-2.6,0.5-2.6,1.3c0,0.8,1,1.2,2.6,1.2
				S145.9,1249.6,145.9,1248.8z M145.9,1243.2h-2.3v-0.8h2.3v-2.3h1v6.4h-1V1243.2z"/>
			<path class="st3" d="M157.6,1246.1c-1.2-0.4-2.1-1.3-2.6-2.4c-0.5,1.2-1.4,2.2-2.7,2.7l-0.5-0.8c1.6-0.6,2.7-2,2.7-3.5v-0.4h-2.4
				v-0.8h5.7v0.8h-2.4v0.4c0,1.4,1.1,2.7,2.6,3.3L157.6,1246.1z M153.4,1247.1h7.2v3.7h-1v-3h-6.2V1247.1z M160.6,1240.1v6.4h-1
				v-2.8h-2.1v-0.8h2.1v-2.8H160.6z"/>
			<path class="st3" d="M171.6,1240.1v6.4h-1v-1.4h-2.8v-0.8h2.8v-1.5H168c-0.7,1.7-2.4,2.9-4.7,3.6l-0.4-0.8c2.6-0.7,4.2-2.1,4.4-4
				h-3.9v-0.8h4.9c0,0.4,0,0.8-0.1,1.2h2.4v-1.9H171.6z M164.4,1247h7.2v3.8h-1v-3h-6.2V1247z"/>
			<path class="st3" d="M182.5,1245.7c-1.2-0.4-2.2-1.3-2.7-2.5c-0.5,1.2-1.5,2.2-2.7,2.7l-0.5-0.8c1.6-0.6,2.7-2,2.7-3.6v-1h1v1
				c0,1.5,1.1,2.9,2.7,3.4L182.5,1245.7z M178.4,1246.8h7v3.9h-7V1246.8z M179.3,1249.9h5v-2.3h-5V1249.9z M185.3,1240.1v6.1h-1
				v-6.1H185.3z"/>
			<path class="st3" d="M191.2,1242.9c0,1.9,1.2,3.8,2.7,4.6l-0.6,0.8c-1.1-0.6-2.1-1.9-2.6-3.3c-0.5,1.6-1.5,2.9-2.7,3.6l-0.6-0.8
				c1.5-0.8,2.8-2.9,2.8-4.8v-1.9h1V1242.9z M197.6,1245.2h-1.8v5.6h-1v-10.7h1v4.4h1.8V1245.2z"/>
			<path class="st3" d="M204.4,1240.4h0.8l-3.6,11.7h-0.8L204.4,1240.4z"/>
			<path class="st3" d="M212.3,1242.9c0,1.9,1.2,3.8,2.7,4.6l-0.6,0.8c-1.1-0.6-2.1-1.9-2.6-3.3c-0.5,1.6-1.5,2.9-2.7,3.6l-0.6-0.8
				c1.5-0.8,2.8-2.9,2.8-4.8v-1.9h1V1242.9z M218.7,1245.2h-1.8v5.6h-1v-10.7h1v4.4h1.8V1245.2z"/>
			<path class="st3" d="M223.7,1247.6c1-0.1,2.1-0.1,3.1-0.3l0.1,0.7c-2.4,0.4-5,0.5-7,0.5l-0.1-0.8c0.9,0,1.9,0,2.9,0v-1.9
				c-1.4-0.2-2.4-1.2-2.4-2.5c0-1.5,1.2-2.5,2.9-2.5c1.7,0,2.9,1,2.9,2.5c0,1.4-1,2.3-2.4,2.5V1247.6z M223.2,1245
				c1.1,0,1.9-0.7,1.9-1.7c0-1-0.8-1.7-1.9-1.7c-1.1,0-1.9,0.7-1.9,1.7C221.3,1244.3,222.1,1245,223.2,1245z M228.5,1240v10.8h-1
				V1240H228.5z"/>
			<path class="st3" d="M236.6,1244.6c0,2.3-1.1,3.8-2.7,3.8s-2.7-1.5-2.7-3.8s1.1-3.8,2.7-3.8S236.6,1242.3,236.6,1244.6z
				 M232.1,1244.6c0,1.8,0.7,2.9,1.8,2.9c1,0,1.8-1.1,1.8-2.9c0-1.7-0.7-2.9-1.8-2.9C232.8,1241.8,232.1,1242.9,232.1,1244.6z
				 M239.5,1240.1v10.8h-1v-10.8H239.5z"/>
			<path class="st3" d="M245.4,1242.9c0,1.9,1.2,3.8,2.7,4.6l-0.6,0.8c-1.1-0.6-2.1-1.9-2.6-3.3c-0.5,1.6-1.5,2.9-2.7,3.6l-0.6-0.8
				c1.5-0.8,2.8-2.9,2.8-4.8v-1.9h1V1242.9z M251.8,1245.2h-1.8v5.6h-1v-10.7h1v4.4h1.8V1245.2z"/>
			<path class="st3" d="M259.1,1243.3c0,1.7,1.2,3.6,2.8,4.4l-0.6,0.8c-1.2-0.6-2.2-1.9-2.7-3.3c-0.5,1.6-1.5,2.9-2.7,3.6l-0.6-0.8
				c1.5-0.8,2.8-2.8,2.8-4.6v-1.4h-2.5v-0.8h5.8v0.8h-2.4V1243.3z M265.6,1245.2h-1.8v5.6h-1v-10.7h1v4.3h1.8V1245.2z"/>
			<path class="st3" d="M275.4,1240.1v6.4h-1v-1.4h-2.8v-0.8h2.8v-1.5h-2.6c-0.7,1.7-2.4,2.9-4.7,3.6l-0.4-0.8
				c2.6-0.7,4.2-2.1,4.4-4h-3.9v-0.8h4.9c0,0.4,0,0.8-0.1,1.2h2.4v-1.9H275.4z M268.2,1247h7.2v3.8h-1v-3h-6.2V1247z"/>
			<path class="st3" d="M287.4,1248.6v0.8h-9.8v-0.8h2.4v-2.9c-0.9-0.5-1.4-1.2-1.4-2.2c0-1.7,1.6-2.8,3.9-2.8
				c2.3,0,3.9,1.1,3.9,2.8c0,1-0.5,1.7-1.4,2.2v2.9H287.4z M279.5,1243.5c0,1.2,1.2,2,3,2c1.7,0,3-0.8,3-2s-1.2-2-3-2
				C280.7,1241.5,279.5,1242.3,279.5,1243.5z M281,1248.6h3v-2.5c-0.5,0.1-1,0.2-1.5,0.2c-0.5,0-1-0.1-1.5-0.2V1248.6z"/>
			<path class="st3" d="M294.2,1240.9c0,2.8-2,4.9-5,5.9l-0.4-0.8c2.5-0.8,4.1-2.4,4.4-4.3h-3.8v-0.8H294.2z M297.8,1249.8v0.8h-7.1
				v-3.4h1v2.6H297.8z M296.5,1243.4v-3.3h1v7.9h-1v-3.8h-2.3v-0.8H296.5z"/>
			<path class="st3" d="M307.9,1240.7c0,2.7-1.9,4.7-5,5.5l-0.4-0.8c2.6-0.7,4.1-2.1,4.4-4H303v-0.8H307.9z M304.3,1246.7h7v4h-7
				V1246.7z M305.2,1249.9h5v-2.4h-5V1249.9z M311.2,1240.1v6.1h-1v-2.6h-2.3v-0.8h2.3v-2.8H311.2z"/>
			<path class="st3" d="M323.2,1248.7v0.8h-9.8v-0.8h4.4v-2.2h-3.1v-5.5h7.3v0.8h-6.3v1.5h6.1v0.8h-6.1v1.6h6.4v0.8h-3.3v2.2H323.2z
				"/>
		</g>
		<path id="패스_1787-2" class="st2" d="M84,1319.9h271v-37.3H84L84,1319.9z"/>
		<g class="st0">
			<path class="st3" d="M98.6,1299c0,1.9,1.2,3.8,2.7,4.6l-0.6,0.8c-1.1-0.6-2.1-1.9-2.6-3.3c-0.5,1.6-1.5,2.9-2.7,3.6l-0.6-0.8
				c1.5-0.8,2.8-2.9,2.8-4.8v-1.9h1V1299z M105.1,1301.4h-1.8v5.6h-1v-10.7h1v4.4h1.8V1301.4z"/>
			<path class="st3" d="M110,1303.7c1-0.1,2.1-0.1,3.1-0.3l0.1,0.7c-2.4,0.4-5,0.5-7,0.5l-0.1-0.8c0.9,0,1.9,0,2.9,0v-1.9
				c-1.4-0.2-2.4-1.2-2.4-2.5c0-1.5,1.2-2.5,2.9-2.5c1.7,0,2.9,1,2.9,2.5c0,1.4-1,2.3-2.4,2.5V1303.7z M109.5,1301.1
				c1.1,0,1.9-0.7,1.9-1.7c0-1-0.8-1.7-1.9-1.7c-1.1,0-1.9,0.7-1.9,1.7C107.6,1300.4,108.4,1301.1,109.5,1301.1z M114.8,1296.2v10.8
				h-1v-10.8H114.8z"/>
			<path class="st3" d="M123,1300.8c0,2.3-1.1,3.8-2.7,3.8c-1.6,0-2.7-1.5-2.7-3.8s1.1-3.8,2.7-3.8
				C121.8,1297,123,1298.5,123,1300.8z M118.4,1300.8c0,1.8,0.7,2.9,1.8,2.9c1,0,1.8-1.1,1.8-2.9c0-1.7-0.7-2.9-1.8-2.9
				C119.2,1297.9,118.4,1299,118.4,1300.8z M125.9,1296.2v10.8h-1v-10.8H125.9z"/>
			<path class="st3" d="M131.7,1299c0,1.9,1.2,3.8,2.7,4.6l-0.6,0.8c-1.1-0.6-2.1-1.9-2.6-3.3c-0.5,1.6-1.5,2.9-2.7,3.6l-0.6-0.8
				c1.5-0.8,2.8-2.9,2.8-4.8v-1.9h1V1299z M138.2,1301.4h-1.8v5.6h-1v-10.7h1v4.4h1.8V1301.4z"/>
			<path class="st3" d="M151.6,1304h-4.4v3h-1v-3h-4.4v-0.8h9.8V1304z M151,1298.2h-8.6v-0.8h3.9v-1.3h1v1.3h3.8V1298.2z
				 M146.7,1298.8c2.2,0,3.5,0.6,3.5,1.8s-1.3,1.8-3.5,1.8c-2.2,0-3.5-0.6-3.5-1.8S144.5,1298.8,146.7,1298.8z M146.7,1299.6
				c-1.6,0-2.5,0.4-2.5,1c0,0.7,0.9,1,2.5,1s2.5-0.4,2.5-1C149.2,1300,148.3,1299.6,146.7,1299.6z"/>
			<path class="st3" d="M162.6,1304.8v0.8h-9.8v-0.8h4.4v-2.3H154v-5.5h1v1.9h5.5v-1.9h1v5.5h-3.2v2.3H162.6z M155,1301.7h5.5v-2
				H155V1301.7z"/>
			<path class="st3" d="M173.7,1300.9v0.8h-4.4v2.6h-1v-2.6h-4.4v-0.8h7.3c0.3-1.4,0.3-2.4,0.3-3.3v-0.1h-6.3v-0.8h7.3v0.9
				c0,0.9,0,1.9-0.3,3.3H173.7z M166.1,1305.9h6.5v0.8h-7.5v-3.4h1V1305.9z"/>
			<path class="st3" d="M183.7,1298.2h-6v-0.8h2.6v-1.3h1v1.3h2.5V1298.2z M180.7,1302.7c-1.4,0-2.4-0.8-2.4-2c0-1.2,1-2,2.4-2
				c1.4,0,2.4,0.8,2.4,2C183.2,1301.9,182.2,1302.7,180.7,1302.7z M180.7,1302c0.9,0,1.5-0.5,1.5-1.2c0-0.7-0.6-1.2-1.5-1.2
				s-1.5,0.5-1.5,1.2C179.2,1301.5,179.8,1302,180.7,1302z M186.6,1305.1c0,1.2-1.4,1.8-3.6,1.8c-2.2,0-3.6-0.7-3.6-1.8
				c0-1.2,1.4-1.8,3.6-1.8C185.2,1303.3,186.6,1303.9,186.6,1305.1z M185.6,1305.1c0-0.7-1-1.1-2.6-1.1s-2.6,0.4-2.6,1.1
				c0,0.7,1,1.1,2.6,1.1S185.6,1305.8,185.6,1305.1z M185.5,1299.6h-1.8v-0.8h1.8v-2.6h1v6.9h-1v-1.5h-1.8v-0.8h1.8V1299.6z"/>
			<path class="st3" d="M194.5,1302c-1.2-0.4-2.1-1.3-2.6-2.4c-0.5,1.3-1.4,2.2-2.7,2.7l-0.5-0.8c1.7-0.6,2.7-2,2.7-3.7v-1.1h1v1.1
				c0,1.5,1,2.9,2.6,3.4L194.5,1302z M197.6,1304.9c0,1.3-1.4,2-3.6,2s-3.6-0.7-3.6-2c0-1.3,1.4-2,3.6-2S197.6,1303.6,197.6,1304.9z
				 M196.6,1304.9c0-0.8-1-1.3-2.6-1.3s-2.6,0.5-2.6,1.3c0,0.8,1,1.2,2.6,1.2S196.6,1305.7,196.6,1304.9z M196.6,1299.3h-2.3v-0.8
				h2.3v-2.3h1v6.4h-1V1299.3z"/>
			<path class="st3" d="M205.5,1296.5h0.8l-3.6,11.7h-0.8L205.5,1296.5z"/>
			<path class="st3" d="M215.7,1302.5c-1.2-0.4-2.1-1.3-2.6-2.4c-0.5,1.2-1.5,2.2-2.7,2.7l-0.5-0.8c1.6-0.6,2.7-2,2.7-3.5v-0.5h-2.4
				v-0.8h5.7v0.8h-2.4v0.5c0,1.4,1.1,2.7,2.6,3.3L215.7,1302.5z M219,1305.9v0.8h-7.2v-3.3h1v2.5H219z M217.7,1299.2v-3h1v7.9h-1
				v-4.1h-2.2v-0.8H217.7z"/>
			<path class="st3" d="M230.6,1301.7v0.8h-4.3v2.2h-1v-2.2h-4.5v-0.8H230.6z M223.1,1305.9h6.5v0.8h-7.4v-3.1h1V1305.9z
				 M229.3,1300.5h-7.2v-3.8h7.2V1300.5z M228.4,1297.5h-5.3v2.2h5.3V1297.5z"/>
			<path class="st3" d="M237.7,1302c-1.2-0.4-2.1-1.3-2.6-2.4c-0.5,1.3-1.4,2.2-2.7,2.7l-0.5-0.8c1.7-0.6,2.7-2,2.7-3.7v-1.1h1v1.1
				c0,1.5,1,2.9,2.6,3.4L237.7,1302z M240.8,1304.9c0,1.3-1.4,2-3.6,2c-2.2,0-3.6-0.7-3.6-2c0-1.3,1.4-2,3.6-2
				C239.4,1302.9,240.8,1303.6,240.8,1304.9z M239.8,1304.9c0-0.8-1-1.3-2.6-1.3s-2.6,0.5-2.6,1.3c0,0.8,1,1.2,2.6,1.2
				S239.8,1305.7,239.8,1304.9z M239.8,1299.3h-2.3v-0.8h2.3v-2.3h1v6.4h-1V1299.3z"/>
			<path class="st3" d="M242.9,1307.7c0.8-0.3,1.2-0.9,1.2-1.6c0,0-0.1,0-0.1,0c-0.4,0-0.8-0.3-0.8-0.8c0-0.5,0.4-0.8,0.8-0.8
				c0.6,0,0.9,0.5,0.9,1.3c0,1.2-0.7,2.1-1.8,2.5L242.9,1307.7z"/>
			<path class="st3" d="M254.8,1302c-1.2-0.4-2.1-1.3-2.6-2.4c-0.5,1.3-1.4,2.2-2.7,2.7l-0.5-0.8c1.7-0.6,2.7-2,2.7-3.7v-1.1h1v1.1
				c0,1.5,1,2.9,2.6,3.4L254.8,1302z M257.9,1304.9c0,1.3-1.4,2-3.6,2s-3.6-0.7-3.6-2c0-1.3,1.4-2,3.6-2S257.9,1303.6,257.9,1304.9z
				 M256.9,1304.9c0-0.8-1-1.3-2.6-1.3s-2.6,0.5-2.6,1.3c0,0.8,1,1.2,2.6,1.2S256.9,1305.7,256.9,1304.9z M256.8,1299.3h-2.3v-0.8
				h2.3v-2.3h1v6.4h-1V1299.3z"/>
			<path class="st3" d="M265.4,1301.4h-4.8v-4.7h1v1.5h2.9v-1.5h1v1h2.5v-1.5h1v5.6h-1v-1.4h-2.5V1301.4z M264.4,1299h-2.9v1.6h2.9
				V1299z M269.3,1306v0.8H262v-2.7h5.9v-1h-6v-0.8h6.9v2.6h-5.9v1.1H269.3z M265.4,1298.5v1.2h2.5v-1.2H265.4z"/>
			<path class="st3" d="M275.2,1303.4c1.9,0,3.3-0.1,4.8-0.4l0.1,0.8c-1.6,0.3-3.1,0.4-5.1,0.4h-0.9v-7.1h5v0.8h-4V1303.4z
				 M283.8,1301.2H282v5.7h-1v-10.8h1v4.2h1.8V1301.2z"/>
			<path class="st3" d="M287.8,1301.9c-1.6,0-2.8-1-2.8-2.5c0-1.5,1.2-2.5,2.8-2.5c1.6,0,2.8,1,2.8,2.5
				C290.6,1300.8,289.4,1301.9,287.8,1301.9z M287.8,1301.1c1.1,0,1.8-0.7,1.8-1.7c0-1-0.8-1.7-1.8-1.7c-1.1,0-1.8,0.7-1.8,1.7
				C285.9,1300.4,286.7,1301.1,287.8,1301.1z M293.2,1304.9c0,1.3-1.4,2-3.5,2c-2.2,0-3.6-0.7-3.6-2c0-1.3,1.4-2,3.6-2
				C291.9,1302.9,293.2,1303.6,293.2,1304.9z M292.3,1304.9c0-0.8-1-1.2-2.6-1.2c-1.6,0-2.6,0.5-2.6,1.2c0,0.8,1,1.2,2.6,1.2
				C291.3,1306.1,292.3,1305.7,292.3,1304.9z M293.1,1298.6v1.5h1.6v0.8h-1.6v1.7h-1v-6.4h1v1.6h1.6v0.8H293.1z"/>
			<path class="st3" d="M301.6,1302c-1.2-0.4-2.1-1.3-2.6-2.4c-0.5,1.3-1.4,2.2-2.7,2.7l-0.5-0.8c1.7-0.6,2.7-2,2.7-3.7v-1.1h1v1.1
				c0,1.5,1,2.9,2.6,3.4L301.6,1302z M304.7,1304.9c0,1.3-1.4,2-3.6,2c-2.2,0-3.6-0.7-3.6-2c0-1.3,1.4-2,3.6-2
				C303.3,1302.9,304.7,1303.6,304.7,1304.9z M303.7,1304.9c0-0.8-1-1.3-2.6-1.3s-2.6,0.5-2.6,1.3c0,0.8,1,1.2,2.6,1.2
				S303.7,1305.7,303.7,1304.9z M303.7,1299.3h-2.3v-0.8h2.3v-2.3h1v6.4h-1V1299.3z"/>
			<path class="st3" d="M319.3,1301.3v0.8h-9.7v-0.8H319.3z M318.1,1305c0,1.2-1.4,1.9-3.7,1.9c-2.3,0-3.7-0.7-3.7-1.9
				s1.4-1.9,3.7-1.9C316.7,1303,318.1,1303.7,318.1,1305z M318.1,1300.3h-7.4v-3.7h7.3v0.8h-6.3v2.1h6.4V1300.3z M317.1,1305
				c0-0.8-1-1.2-2.7-1.2c-1.7,0-2.7,0.4-2.7,1.2s1,1.2,2.7,1.2C316.1,1306.2,317.1,1305.7,317.1,1305z"/>
			<path class="st3" d="M333,1304.6v0.8h-9.7v-0.8h3.8v-3.9h1v3.9H333z M330.9,1298.1h-6.6v-0.8h7.5v1.1c0,1.3,0,2.8-0.4,5l-1-0.1
				c0.4-2.1,0.4-3.6,0.4-4.9V1298.1z"/>
			<path class="st3" d="M335.7,1303.6c1.6,0,2.9-0.1,4.5-0.3l0.1,0.8c-1.7,0.3-3.1,0.3-4.7,0.3h-0.8v-4.2h3.7v-2.3h-3.7v-0.8h4.7
				v3.9h-3.7V1303.6z M343.2,1296.2v10.8h-1v-4.6H340v-0.8h2.2v-2.1h-2.1v-0.8h2.1v-2.5H343.2z"/>
		</g>
		<path id="패스_1787-3" class="st2" d="M84,1376.3h271V1339H84L84,1376.3z"/>
		<g class="st0">
			<path class="st3" d="M145.2,1355c0,1.9,1.2,3.8,2.7,4.6l-0.6,0.8c-1.1-0.6-2.1-1.9-2.6-3.3c-0.5,1.6-1.5,2.9-2.7,3.6l-0.6-0.8
				c1.5-0.8,2.8-2.9,2.8-4.8v-1.9h1V1355z M151.6,1357.4h-1.8v5.6h-1v-10.7h1v4.4h1.8V1357.4z"/>
			<path class="st3" d="M156.6,1359.7c1-0.1,2.1-0.1,3.1-0.3l0.1,0.7c-2.4,0.4-5,0.5-7,0.5l-0.1-0.8c0.9,0,1.9,0,2.9,0v-1.9
				c-1.4-0.2-2.4-1.2-2.4-2.5c0-1.5,1.2-2.5,2.9-2.5c1.7,0,2.9,1,2.9,2.5c0,1.4-1,2.3-2.4,2.5V1359.7z M156.1,1357.1
				c1.1,0,1.9-0.7,1.9-1.7c0-1-0.8-1.7-1.9-1.7c-1.1,0-1.9,0.7-1.9,1.7C154.2,1356.4,155,1357.1,156.1,1357.1z M161.4,1352.2v10.8
				h-1v-10.8H161.4z"/>
			<path class="st3" d="M169.5,1356.8c0,2.3-1.1,3.8-2.7,3.8c-1.6,0-2.7-1.5-2.7-3.8s1.1-3.8,2.7-3.8
				C168.4,1353,169.5,1354.5,169.5,1356.8z M165,1356.8c0,1.8,0.7,2.9,1.8,2.9c1,0,1.8-1.1,1.8-2.9c0-1.7-0.7-2.9-1.8-2.9
				C165.7,1353.9,165,1355,165,1356.8z M172.4,1352.2v10.8h-1v-10.8H172.4z"/>
			<path class="st3" d="M178.3,1355c0,1.9,1.2,3.8,2.7,4.6l-0.6,0.8c-1.1-0.6-2.1-1.9-2.6-3.3c-0.5,1.6-1.5,2.9-2.7,3.6l-0.6-0.8
				c1.5-0.8,2.8-2.9,2.8-4.8v-1.9h1V1355z M184.7,1357.4H183v5.6h-1v-10.7h1v4.4h1.8V1357.4z"/>
			<path class="st3" d="M195.5,1360h-4.4v3h-1v-3h-4.4v-0.8h9.8V1360z M194.9,1354.2h-8.6v-0.8h3.9v-1.3h1v1.3h3.8V1354.2z
				 M190.6,1354.8c2.2,0,3.5,0.6,3.5,1.8s-1.3,1.8-3.5,1.8c-2.2,0-3.5-0.6-3.5-1.8S188.4,1354.8,190.6,1354.8z M190.6,1355.6
				c-1.6,0-2.5,0.4-2.5,1c0,0.7,0.9,1,2.5,1s2.5-0.4,2.5-1C193,1356,192.2,1355.6,190.6,1355.6z"/>
			<path class="st3" d="M206.5,1360.8v0.8h-9.8v-0.8h4.4v-2.3h-3.2v-5.5h1v1.9h5.5v-1.9h1v5.5h-3.2v2.3H206.5z M198.9,1357.7h5.5v-2
				h-5.5V1357.7z"/>
			<path class="st3" d="M217.5,1359.5h-4.4v3.5h-1v-3.5h-4.4v-0.8h9.7V1359.5z M208.4,1357.1c1.9-0.3,3.8-1.4,3.8-2.8h-3.4v-0.8h3.4
				v-1.3h1v1.3h3.4v0.8h-3.4c0,1.3,1.8,2.5,3.7,2.8l-0.3,0.8c-1.7-0.3-3.2-1.1-3.9-2.2c-0.7,1.2-2.2,2-3.9,2.2L208.4,1357.1z"/>
			<path class="st3" d="M224.7,1358.7c-1.2-0.4-2.2-1.3-2.7-2.4c-0.5,1.2-1.4,2.1-2.7,2.5l-0.5-0.8c1.6-0.5,2.7-1.9,2.7-3.4v-0.3
				h-2.4v-0.8h2.4v-1.4h1v1.4h2.4v0.8h-2.4v0.3c0,1.4,1.1,2.7,2.7,3.2L224.7,1358.7z M228,1361.9v0.8h-7.2v-3.2h1v2.4H228z
				 M226.7,1355.5v-3.3h1v8h-1v-3.9h-2.2v-0.8H226.7z"/>
			<path class="st3" d="M237,1358.4c-1,0.2-2.1,0.3-3.1,0.4v3.9h-1v-3.8c-1.1,0-2.1,0.1-3,0.1l-0.1-0.8c2,0,4.7,0,7.1-0.4
				L237,1358.4z M230.7,1354.9c0-1.3,1.1-2.2,2.7-2.2c1.6,0,2.7,0.9,2.7,2.2c0,1.3-1.1,2.2-2.7,2.2
				C231.8,1357.1,230.7,1356.2,230.7,1354.9z M231.6,1354.9c0,0.8,0.7,1.4,1.8,1.4c1,0,1.8-0.6,1.8-1.4c0-0.8-0.7-1.4-1.8-1.4
				C232.3,1353.5,231.6,1354.1,231.6,1354.9z M238.7,1352.2v10.8h-1v-10.8H238.7z"/>
			<path class="st3" d="M244,1357.9c-1.1,0-2.1,0.1-3,0.1l-0.1-0.8c2,0,4.7,0,6.9-0.3l0.1,0.7c-0.9,0.1-1.9,0.3-2.9,0.3v2.1h-1
				V1357.9z M241.7,1354.5c0-1.1,1.1-1.9,2.7-1.9c1.6,0,2.7,0.7,2.7,1.9c0,1.2-1.1,1.9-2.7,1.9
				C242.8,1356.4,241.7,1355.6,241.7,1354.5z M250,1361.9v0.8h-7.6v-3.1h1v2.3H250z M242.6,1354.5c0,0.7,0.7,1.2,1.7,1.2
				s1.7-0.5,1.7-1.2c0-0.7-0.7-1.1-1.7-1.1S242.6,1353.8,242.6,1354.5z M248.7,1358.5v-6.4h1v8.2h-1v-1.1h-2.2v-0.7H248.7z"/>
			<path class="st3" d="M256,1360c1,0,2.1-0.1,3-0.3l0.1,0.7c-2.4,0.4-5,0.4-7,0.4l-0.1-0.8c0.9,0,1.9,0,3,0v-1.2
				c-1.3-0.2-2.1-0.9-2.1-2c0-1.2,1.1-2,2.6-2s2.6,0.8,2.6,2c0,1.1-0.8,1.8-2.1,2V1360z M258.8,1354.3h-6.5v-0.8h2.8v-1.3h1v1.3h2.8
				V1354.3z M255.5,1358.1c1,0,1.6-0.5,1.6-1.2c0-0.8-0.7-1.2-1.6-1.2c-1,0-1.7,0.5-1.7,1.2C253.9,1357.6,254.5,1358.1,255.5,1358.1
				z M260.7,1352.2v10.8h-1v-10.8H260.7z"/>
			<path class="st3" d="M263.1,1359.8c2,0,4.7,0,7-0.4l0.1,0.7c-2.4,0.4-5,0.5-7,0.5L263.1,1359.8z M269.4,1355.5
				c0,1.5-1.2,2.5-2.9,2.5c-1.7,0-2.9-1-2.9-2.5c0-1.5,1.2-2.5,2.9-2.5C268.2,1353,269.4,1354,269.4,1355.5z M264.6,1355.5
				c0,1,0.8,1.7,1.9,1.7c1.1,0,1.9-0.7,1.9-1.7c0-1-0.8-1.7-1.9-1.7C265.4,1353.8,264.6,1354.5,264.6,1355.5z M271.8,1352.2v10.8h-1
				v-10.8H271.8z"/>
			<path class="st3" d="M286.5,1359.5h-4.4v3.5h-1v-3.5h-4.4v-0.8h9.7V1359.5z M277.3,1357.1c1.9-0.3,3.8-1.4,3.8-2.8h-3.4v-0.8h3.4
				v-1.3h1v1.3h3.4v0.8h-3.4c0,1.3,1.8,2.5,3.7,2.8l-0.3,0.8c-1.7-0.3-3.2-1.1-3.9-2.2c-0.7,1.2-2.2,2-3.9,2.2L277.3,1357.1z"/>
			<path class="st3" d="M293.6,1358.7c-1.2-0.4-2.2-1.3-2.7-2.4c-0.5,1.2-1.4,2.1-2.7,2.5l-0.5-0.8c1.6-0.5,2.7-1.9,2.7-3.4v-0.3
				h-2.4v-0.8h2.4v-1.4h1v1.4h2.4v0.8h-2.4v0.3c0,1.4,1.1,2.7,2.7,3.2L293.6,1358.7z M296.9,1361.9v0.8h-7.2v-3.2h1v2.4H296.9z
				 M295.6,1355.5v-3.3h1v8h-1v-3.9h-2.2v-0.8H295.6z"/>
		</g>
		<path id="패스_1787-4" class="st2" d="M84,1432.3h271v-37.3H84L84,1432.3z"/>
		<g class="st0">
			<path class="st3" d="M120,1414.2c-1.2-0.4-2.1-1.3-2.6-2.4c-0.5,1.2-1.5,2.3-2.7,2.7l-0.5-0.8c1.6-0.6,2.7-2,2.7-3.6v-0.4h-2.4
				v-0.8h5.7v0.8h-2.4v0.4c0,1.4,1.1,2.7,2.6,3.3L120,1414.2z M123,1417c0,1.3-1.4,2-3.6,2c-2.2,0-3.6-0.7-3.6-2s1.4-2,3.6-2
				C121.6,1415,123,1415.7,123,1417z M122,1417c0-0.8-1-1.2-2.6-1.2s-2.6,0.5-2.6,1.2s1,1.2,2.6,1.2S122,1417.8,122,1417z M122,1411
				v-2.8h1v6.4h-1v-2.8h-2.1v-0.8H122z"/>
			<path class="st3" d="M130.8,1409.4c0,3.1-1.4,5.8-5,7.6l-0.5-0.8c2.9-1.4,4.3-3.4,4.5-6h-4v-0.8H130.8z M134,1408.2v10.8h-1
				v-10.8H134z"/>
			<path class="st3" d="M148.6,1415.2h-4.4v3.8h-1v-3.8h-4.3v-0.8h9.7L148.6,1415.2z M139.5,1412.7c1.9-0.3,3.7-1.5,3.7-2.9v-0.1
				h-3.4v-0.8h7.9v0.8h-3.4v0.1c0,1.4,1.9,2.7,3.8,2.9l-0.4,0.8c-1.7-0.3-3.3-1.2-3.9-2.5c-0.7,1.3-2.2,2.2-3.9,2.5L139.5,1412.7z"
				/>
			<path class="st3" d="M159.6,1415.2h-4.4v3.8h-1v-3.8h-4.3v-0.8h9.7L159.6,1415.2z M150.5,1412.7c1.9-0.3,3.7-1.5,3.7-2.9v-0.1
				h-3.4v-0.8h7.9v0.8h-3.4v0.1c0,1.4,1.9,2.7,3.8,2.9l-0.4,0.8c-1.7-0.3-3.3-1.2-3.9-2.5c-0.7,1.3-2.2,2.2-3.9,2.5L150.5,1412.7z"
				/>
			<path class="st3" d="M170.7,1413.8v0.8h-9.7v-0.8h4.4v-1.3h1v1.3H170.7z M161.5,1412.2c2-0.2,3.7-1,3.8-2.2H162v-0.8h3.4v-1.1h1
				v1.1h3.4v0.8h-3.3c0.1,1.2,1.7,2,3.8,2.2l-0.3,0.8c-1.8-0.2-3.3-0.8-4-1.9c-0.7,1.1-2.2,1.7-4,1.9L161.5,1412.2z M169.5,1417.2
				c0,1.2-1.4,1.8-3.7,1.8s-3.7-0.6-3.7-1.8c0-1.2,1.4-1.8,3.7-1.8S169.5,1416,169.5,1417.2z M168.5,1417.2c0-0.7-1-1.1-2.7-1.1
				s-2.7,0.4-2.7,1.1c0,0.7,1,1,2.7,1S168.5,1417.9,168.5,1417.2z"/>
			<path class="st3" d="M176,1416c1,0,2.1-0.1,3-0.3l0.1,0.7c-2.4,0.4-5,0.4-7,0.4l-0.1-0.8c0.9,0,1.9,0,3,0v-1.2
				c-1.3-0.2-2.1-0.9-2.1-2c0-1.2,1.1-2,2.6-2s2.6,0.8,2.6,2c0,1.1-0.8,1.8-2.1,2V1416z M178.8,1410.3h-6.5v-0.8h2.8v-1.3h1v1.3h2.8
				V1410.3z M175.6,1414.2c1,0,1.6-0.5,1.6-1.2c0-0.8-0.7-1.2-1.6-1.2c-1,0-1.7,0.5-1.7,1.2C173.9,1413.7,174.6,1414.2,175.6,1414.2
				z M180.8,1408.2v10.8h-1v-10.8H180.8z"/>
			<path class="st3" d="M189.1,1408.5h0.9v10h-0.9v-5.2h-1.4c-0.1,2.1-1,3.4-2.3,3.4c-1.4,0-2.3-1.4-2.3-3.8c0-2.3,0.9-3.7,2.3-3.7
				c1.3,0,2.2,1.3,2.3,3.3h1.4V1408.5z M186.9,1412.9c0-1.7-0.6-2.8-1.4-2.8c-0.9,0-1.4,1.1-1.4,2.8c0,1.8,0.5,2.9,1.4,2.9
				C186.3,1415.7,186.9,1414.6,186.9,1412.9z M192.2,1408.2v10.8h-0.9v-10.8H192.2z"/>
			<path class="st3" d="M197.8,1411.1c0,2,1.2,3.9,2.8,4.7l-0.6,0.8c-1.2-0.6-2.2-1.9-2.7-3.4c-0.5,1.6-1.5,3-2.7,3.6l-0.6-0.8
				c1.6-0.8,2.8-2.9,2.8-4.8v-1.9h1V1411.1z M202.9,1408.2v10.8h-1v-6.3h-2.5v-0.8h2.5v-3.6H202.9z"/>
			<path class="st3" d="M211.4,1411.1c0,1.9,1.2,3.8,2.7,4.6l-0.6,0.8c-1.1-0.6-2.1-1.9-2.6-3.3c-0.5,1.6-1.5,2.9-2.7,3.6l-0.6-0.8
				c1.5-0.8,2.8-2.9,2.8-4.8v-1.9h1V1411.1z M217.8,1413.4h-1.8v5.6h-1v-10.7h1v4.4h1.8V1413.4z"/>
			<path class="st3" d="M222.8,1415.8c1-0.1,2.1-0.1,3.1-0.3l0.1,0.7c-2.4,0.4-5,0.5-7,0.5l-0.1-0.8c0.9,0,1.9,0,2.9,0v-1.9
				c-1.4-0.2-2.4-1.2-2.4-2.5c0-1.5,1.2-2.5,2.9-2.5c1.7,0,2.9,1,2.9,2.5c0,1.4-1,2.3-2.4,2.5V1415.8z M222.3,1413.1
				c1.1,0,1.9-0.7,1.9-1.7c0-1-0.8-1.7-1.9-1.7c-1.1,0-1.9,0.7-1.9,1.7C220.4,1412.4,221.2,1413.1,222.3,1413.1z M227.6,1408.2v10.8
				h-1v-10.8H227.6z"/>
			<path class="st3" d="M235.7,1412.8c0,2.3-1.1,3.8-2.7,3.8s-2.7-1.5-2.7-3.8s1.1-3.8,2.7-3.8S235.7,1410.5,235.7,1412.8z
				 M231.2,1412.8c0,1.8,0.7,2.9,1.8,2.9c1,0,1.8-1.1,1.8-2.9c0-1.7-0.7-2.9-1.8-2.9C232,1409.9,231.2,1411.1,231.2,1412.8z
				 M238.7,1408.2v10.8h-1v-10.8H238.7z"/>
			<path class="st3" d="M244.5,1411.1c0,1.9,1.2,3.8,2.7,4.6l-0.6,0.8c-1.1-0.6-2.1-1.9-2.6-3.3c-0.5,1.6-1.5,2.9-2.7,3.6l-0.6-0.8
				c1.5-0.8,2.8-2.9,2.8-4.8v-1.9h1V1411.1z M251,1413.4h-1.8v5.6h-1v-10.7h1v4.4h1.8V1413.4z"/>
			<path class="st3" d="M264.4,1416H260v3h-1v-3h-4.4v-0.8h9.8V1416z M263.8,1410.2h-8.6v-0.8h3.9v-1.3h1v1.3h3.8V1410.2z
				 M259.5,1410.9c2.2,0,3.5,0.6,3.5,1.8s-1.3,1.8-3.5,1.8c-2.2,0-3.5-0.6-3.5-1.8S257.3,1410.9,259.5,1410.9z M259.5,1411.6
				c-1.6,0-2.5,0.4-2.5,1c0,0.7,0.9,1,2.5,1s2.5-0.4,2.5-1C262,1412,261.1,1411.6,259.5,1411.6z"/>
			<path class="st3" d="M275.4,1416.8v0.8h-9.8v-0.8h4.4v-2.3h-3.2v-5.5h1v1.9h5.5v-1.9h1v5.5H271v2.3H275.4z M267.8,1413.7h5.5v-2
				h-5.5V1413.7z"/>
			<path class="st3" d="M285.2,1414.5c-1.2-0.5-2.1-1.4-2.6-2.6c-0.5,1.3-1.4,2.3-2.7,2.8l-0.5-0.8c1.6-0.6,2.7-2.1,2.7-3.8v-1.3h1
				v1.4c0,1.5,1.1,2.9,2.6,3.5L285.2,1414.5z M288.5,1417.9v0.8h-7.2v-3.4h1v2.6H288.5z M287.3,1411.6h-2.4v-0.8h2.4v-2.5h1v8h-1
				V1411.6z"/>
			<path class="st3" d="M296.3,1411.3c0,1.5-1.2,2.5-2.8,2.5c-1.6,0-2.8-1-2.8-2.5s1.2-2.5,2.8-2.5
				C295.1,1408.8,296.3,1409.8,296.3,1411.3z M291.7,1411.3c0,1,0.8,1.7,1.8,1.7c1.1,0,1.9-0.7,1.9-1.7c0-1-0.8-1.7-1.9-1.7
				C292.4,1409.6,291.7,1410.3,291.7,1411.3z M299.3,1415v3.9h-7v-3.9H299.3z M293.3,1415.7v2.3h5v-2.3H293.3z M299.3,1408.2v6.2h-1
				v-6.2H299.3z"/>
			<path class="st3" d="M304.3,1415.8c2,0,4.7,0,7-0.4l0.1,0.7c-2.4,0.4-5,0.5-7,0.5L304.3,1415.8z M310.5,1411.5
				c0,1.5-1.2,2.5-2.9,2.5c-1.7,0-2.9-1-2.9-2.5c0-1.5,1.2-2.5,2.9-2.5C309.4,1409,310.5,1410,310.5,1411.5z M305.8,1411.5
				c0,1,0.8,1.7,1.9,1.7c1.1,0,1.9-0.7,1.9-1.7c0-1-0.8-1.7-1.9-1.7C306.6,1409.9,305.8,1410.5,305.8,1411.5z M312.9,1408.2v10.8h-1
				v-10.8H312.9z"/>
			<path class="st3" d="M320.4,1410.5c-0.7,1.7-2.3,2.8-4.7,3.4l-0.4-0.8c2.6-0.6,4.1-1.9,4.3-3.6H316v-0.8h4.8c0,0.4,0,0.7-0.1,1
				h2.4v-1.6h1v5.5h-1v-1.1h-2.8v-0.8h2.8v-1.3H320.4z M324.4,1418.1v0.8h-7.3v-2.8h5.9v-1.1h-5.9v-0.8h6.9v2.6h-5.9v1.2H324.4z"/>
		</g>
		<path id="패스_1794" class="st4" d="M217.6,1275.5l3.9-5.8h-7.8L217.6,1275.5z"/>
		<path id="패스_1794-2" class="st4" d="M217.6,1333.5l3.9-5.8h-7.8L217.6,1333.5z"/>
		<path id="패스_1794-3" class="st4" d="M217.6,1388.4l3.9-5.8h-7.8L217.6,1388.4z"/>
		<path id="패스_1786" class="st1" d="M20,1263.5h65v-37.3H20L20,1263.5z"/>
		<g class="st0">
			<path class="st5" d="M34.2,1250.2c-0.5-0.2-1-0.5-1.3-1c-0.3-0.4-0.5-0.9-0.5-1.5h2.4c0,0.3,0.2,0.6,0.4,0.8
				c0.2,0.2,0.5,0.3,0.8,0.3c0.3,0,0.6-0.1,0.8-0.2c0.2-0.2,0.3-0.4,0.3-0.6c0-0.2-0.1-0.4-0.2-0.6c-0.2-0.1-0.3-0.3-0.6-0.4
				c-0.2-0.1-0.5-0.2-0.9-0.3c-0.6-0.2-1.1-0.4-1.4-0.5c-0.4-0.2-0.7-0.5-1-0.8c-0.3-0.4-0.4-0.8-0.4-1.4c0-0.8,0.3-1.5,0.9-2
				c0.6-0.5,1.4-0.7,2.4-0.7c1,0,1.8,0.2,2.4,0.7c0.6,0.5,0.9,1.2,1,2h-2.4c0-0.3-0.1-0.5-0.3-0.7s-0.5-0.3-0.8-0.3
				c-0.3,0-0.5,0.1-0.7,0.2c-0.2,0.1-0.2,0.3-0.2,0.6c0,0.3,0.1,0.5,0.4,0.7c0.3,0.2,0.7,0.3,1.3,0.5c0.6,0.2,1.1,0.4,1.4,0.6
				c0.4,0.2,0.7,0.4,1,0.8s0.4,0.8,0.4,1.3c0,0.5-0.1,1-0.4,1.4c-0.3,0.4-0.6,0.8-1.2,1c-0.5,0.3-1.1,0.4-1.8,0.4
				C35.3,1250.5,34.8,1250.4,34.2,1250.2z"/>
			<path class="st5" d="M47.3,1241.3v1.8h-2.4v7.3h-2.2v-7.3h-2.4v-1.8H47.3z"/>
			<path class="st5" d="M50.6,1243.1v1.8h3v1.7h-3v2H54v1.8h-5.6v-9.1H54v1.8H50.6z"/>
			<path class="st5" d="M62,1245.7c-0.2,0.4-0.6,0.8-1.1,1.1c-0.5,0.3-1.1,0.4-1.9,0.4h-1.4v3.3h-2.2v-9.1H59c0.7,0,1.3,0.1,1.8,0.4
				c0.5,0.3,0.9,0.6,1.1,1c0.3,0.4,0.4,0.9,0.4,1.5C62.4,1244.8,62.3,1245.3,62,1245.7z M59.8,1245.1c0.2-0.2,0.3-0.5,0.3-0.8
				c0-0.4-0.1-0.6-0.3-0.8s-0.5-0.3-0.9-0.3h-1.2v2.3h1.2C59.3,1245.4,59.6,1245.3,59.8,1245.1z"/>
			<path class="st5" d="M68.6,1243v-2.1h3.6v9.5h-2.3v-7.4H68.6z"/>
		</g>
		<path id="패스_1786-2" class="st1" d="M20,1319.9h65v-37.3H20L20,1319.9z"/>
		<g class="st0">
			<path class="st5" d="M33,1306.3c-0.5-0.2-1-0.5-1.3-1c-0.3-0.4-0.5-0.9-0.5-1.5h2.4c0,0.3,0.2,0.6,0.4,0.8
				c0.2,0.2,0.5,0.3,0.8,0.3c0.3,0,0.6-0.1,0.8-0.2c0.2-0.2,0.3-0.4,0.3-0.6c0-0.2-0.1-0.4-0.2-0.6c-0.2-0.1-0.3-0.3-0.6-0.4
				c-0.2-0.1-0.5-0.2-0.9-0.3c-0.6-0.2-1.1-0.4-1.4-0.5c-0.4-0.2-0.7-0.5-1-0.8c-0.3-0.4-0.4-0.8-0.4-1.4c0-0.8,0.3-1.5,0.9-2
				c0.6-0.5,1.4-0.7,2.4-0.7c1,0,1.8,0.2,2.4,0.7c0.6,0.5,0.9,1.2,1,2h-2.4c0-0.3-0.1-0.5-0.3-0.7s-0.5-0.3-0.8-0.3
				c-0.3,0-0.5,0.1-0.7,0.2c-0.2,0.1-0.2,0.3-0.2,0.6c0,0.3,0.1,0.5,0.4,0.7c0.3,0.2,0.7,0.3,1.3,0.5c0.6,0.2,1.1,0.4,1.4,0.6
				c0.4,0.2,0.7,0.4,1,0.8s0.4,0.8,0.4,1.3c0,0.5-0.1,1-0.4,1.4c-0.3,0.4-0.6,0.8-1.2,1c-0.5,0.3-1.1,0.4-1.8,0.4
				C34.1,1306.7,33.5,1306.6,33,1306.3z"/>
			<path class="st5" d="M46,1297.4v1.8h-2.4v7.3h-2.2v-7.3h-2.4v-1.8H46z"/>
			<path class="st5" d="M49.3,1299.2v1.8h3v1.7h-3v2h3.4v1.8h-5.6v-9.1h5.6v1.8H49.3z"/>
			<path class="st5" d="M60.7,1301.8c-0.2,0.4-0.6,0.8-1.1,1.1c-0.5,0.3-1.1,0.4-1.9,0.4h-1.4v3.3h-2.2v-9.1h3.6
				c0.7,0,1.3,0.1,1.8,0.4c0.5,0.3,0.9,0.6,1.1,1c0.3,0.4,0.4,0.9,0.4,1.5C61.1,1300.9,61,1301.4,60.7,1301.8z M58.5,1301.2
				c0.2-0.2,0.3-0.5,0.3-0.8c0-0.4-0.1-0.6-0.3-0.8s-0.5-0.3-0.9-0.3h-1.2v2.3h1.2C58,1301.5,58.3,1301.4,58.5,1301.2z"/>
			<path class="st5" d="M67.9,1304.5c0.8-0.7,1.5-1.3,2-1.7c0.5-0.5,0.9-0.9,1.2-1.4s0.5-1,0.5-1.4c0-0.4-0.1-0.6-0.2-0.8
				c-0.2-0.2-0.4-0.3-0.7-0.3c-0.3,0-0.6,0.1-0.8,0.4c-0.2,0.2-0.3,0.6-0.3,1h-2.1c0-0.7,0.2-1.4,0.5-1.8s0.7-0.9,1.2-1.1
				c0.5-0.2,1-0.4,1.6-0.4c1,0,1.8,0.3,2.3,0.8c0.5,0.5,0.8,1.2,0.8,2.1c0,0.9-0.3,1.8-0.9,2.6s-1.4,1.6-2.4,2.3H74v1.8h-6.5v-1.7
				C67.8,1304.6,67.9,1304.5,67.9,1304.5z"/>
		</g>
		<path id="패스_1786-3" class="st1" d="M20,1376.3h65V1339H20L20,1376.3z"/>
		<g class="st0">
			<path class="st5" d="M32.7,1362.3c-0.5-0.2-1-0.5-1.3-1c-0.3-0.4-0.5-0.9-0.5-1.5h2.4c0,0.3,0.2,0.6,0.4,0.8s0.5,0.3,0.8,0.3
				c0.3,0,0.6-0.1,0.8-0.2c0.2-0.2,0.3-0.4,0.3-0.6c0-0.2-0.1-0.4-0.2-0.6c-0.2-0.1-0.3-0.3-0.6-0.4c-0.2-0.1-0.5-0.2-0.9-0.3
				c-0.6-0.2-1.1-0.4-1.4-0.5c-0.4-0.2-0.7-0.5-1-0.8c-0.3-0.4-0.4-0.8-0.4-1.4c0-0.8,0.3-1.5,0.9-2c0.6-0.5,1.4-0.7,2.4-0.7
				c1,0,1.8,0.2,2.4,0.7c0.6,0.5,0.9,1.2,1,2h-2.4c0-0.3-0.1-0.5-0.3-0.7s-0.5-0.3-0.8-0.3c-0.3,0-0.5,0.1-0.6,0.2
				c-0.2,0.1-0.2,0.3-0.2,0.6c0,0.3,0.1,0.5,0.4,0.7c0.3,0.2,0.7,0.3,1.3,0.5c0.6,0.2,1.1,0.4,1.4,0.6c0.4,0.2,0.7,0.4,1,0.8
				c0.3,0.3,0.4,0.8,0.4,1.3c0,0.5-0.1,1-0.4,1.4s-0.6,0.8-1.2,1c-0.5,0.3-1.1,0.4-1.8,0.4C33.9,1362.7,33.3,1362.6,32.7,1362.3z"/>
			<path class="st5" d="M45.8,1353.4v1.8h-2.4v7.3h-2.2v-7.3h-2.4v-1.8H45.8z"/>
			<path class="st5" d="M49.1,1355.2v1.8h3v1.7h-3v2h3.4v1.8h-5.6v-9.1h5.6v1.8H49.1z"/>
			<path class="st5" d="M60.5,1357.8c-0.2,0.4-0.6,0.8-1.1,1.1s-1.1,0.4-1.9,0.4h-1.4v3.3h-2.2v-9.1h3.6c0.7,0,1.3,0.1,1.8,0.4
				c0.5,0.3,0.9,0.6,1.1,1c0.3,0.4,0.4,0.9,0.4,1.5C60.9,1356.9,60.8,1357.4,60.5,1357.8z M58.3,1357.2c0.2-0.2,0.3-0.5,0.3-0.8
				c0-0.4-0.1-0.6-0.3-0.8s-0.5-0.3-0.9-0.3h-1.2v2.3h1.2C57.8,1357.5,58.1,1357.4,58.3,1357.2z"/>
			<path class="st5" d="M68.3,1353.6c0.6-0.5,1.3-0.8,2.3-0.8c0.7,0,1.2,0.1,1.7,0.3s0.8,0.5,1.1,0.9c0.2,0.4,0.4,0.8,0.4,1.3
				c0,0.6-0.1,1-0.4,1.4s-0.6,0.6-1,0.7v0.1c0.5,0.2,0.9,0.4,1.2,0.8c0.3,0.4,0.4,0.9,0.4,1.5c0,0.5-0.1,1-0.4,1.4
				c-0.2,0.4-0.6,0.7-1.1,1c-0.5,0.2-1,0.4-1.7,0.4c-1,0-1.9-0.3-2.5-0.8c-0.6-0.5-0.9-1.3-1-2.3h2.2c0,0.4,0.1,0.7,0.3,0.9
				s0.5,0.3,0.9,0.3c0.3,0,0.6-0.1,0.8-0.3c0.2-0.2,0.3-0.5,0.3-0.8c0-0.4-0.1-0.7-0.4-0.9c-0.3-0.2-0.7-0.3-1.3-0.3h-0.4v-1.8h0.4
				c0.4,0,0.8-0.1,1.1-0.2c0.3-0.2,0.4-0.4,0.4-0.8c0-0.3-0.1-0.6-0.3-0.7c-0.2-0.2-0.4-0.3-0.7-0.3c-0.3,0-0.6,0.1-0.7,0.3
				s-0.3,0.4-0.3,0.7h-2.2C67.5,1354.8,67.8,1354.1,68.3,1353.6z"/>
		</g>
		<path id="패스_1786-4" class="st1" d="M20,1432.3h65v-37.3H20L20,1432.3z"/>
		<g class="st0">
			<path class="st5" d="M32.3,1418.4c-0.5-0.2-1-0.5-1.3-1c-0.3-0.4-0.5-0.9-0.5-1.5h2.4c0,0.3,0.2,0.6,0.4,0.8
				c0.2,0.2,0.5,0.3,0.8,0.3c0.3,0,0.6-0.1,0.8-0.2c0.2-0.2,0.3-0.4,0.3-0.6c0-0.2-0.1-0.4-0.2-0.6c-0.2-0.1-0.3-0.3-0.6-0.4
				c-0.2-0.1-0.5-0.2-0.9-0.3c-0.6-0.2-1.1-0.4-1.4-0.5c-0.4-0.2-0.7-0.5-1-0.8c-0.3-0.4-0.4-0.8-0.4-1.4c0-0.8,0.3-1.5,0.9-2
				c0.6-0.5,1.4-0.7,2.4-0.7c1,0,1.8,0.2,2.4,0.7c0.6,0.5,0.9,1.2,1,2h-2.4c0-0.3-0.1-0.5-0.3-0.7s-0.5-0.3-0.8-0.3
				c-0.3,0-0.5,0.1-0.6,0.2c-0.2,0.1-0.2,0.3-0.2,0.6c0,0.3,0.1,0.5,0.4,0.7c0.3,0.2,0.7,0.3,1.3,0.5c0.6,0.2,1.1,0.4,1.4,0.6
				c0.4,0.2,0.7,0.4,1,0.8c0.3,0.3,0.4,0.8,0.4,1.3c0,0.5-0.1,1-0.4,1.4c-0.3,0.4-0.6,0.8-1.2,1c-0.5,0.3-1.1,0.4-1.8,0.4
				C33.4,1418.7,32.8,1418.6,32.3,1418.4z"/>
			<path class="st5" d="M45.3,1409.5v1.8h-2.4v7.3h-2.2v-7.3h-2.4v-1.8H45.3z"/>
			<path class="st5" d="M48.7,1411.3v1.8h3v1.7h-3v2H52v1.8h-5.6v-9.1H52v1.8H48.7z"/>
			<path class="st5" d="M60.1,1413.9c-0.2,0.4-0.6,0.8-1.1,1.1c-0.5,0.3-1.1,0.4-1.9,0.4h-1.4v3.3h-2.2v-9.1h3.6
				c0.7,0,1.3,0.1,1.8,0.4c0.5,0.3,0.9,0.6,1.1,1s0.4,0.9,0.4,1.5C60.4,1413,60.3,1413.4,60.1,1413.9z M57.8,1413.3
				c0.2-0.2,0.3-0.5,0.3-0.8c0-0.4-0.1-0.6-0.3-0.8s-0.5-0.3-0.9-0.3h-1.2v2.3h1.2C57.3,1413.6,57.6,1413.5,57.8,1413.3z"/>
			<path class="st5" d="M66.9,1416.9v-1.8l4.1-5.9h2.5v5.7h1.1v1.9h-1.1v1.7h-2.2v-1.7H66.9z M71.4,1411.7l-2.2,3.3h2.2V1411.7z"/>
		</g>
	</g>
</g>
</svg>
