<?xml version="1.0" encoding="utf-8"?>
<!-- Generator: Adobe Illustrator 25.1.0, SVG Export Plug-In . SVG Version: 6.00 Build 0)  -->
<svg version="1.1" id="레이어_1" xmlns="http://www.w3.org/2000/svg" xmlns:xlink="http://www.w3.org/1999/xlink" x="0px"
	 y="0px" viewBox="0 0 921 552" style="enable-background:new 0 0 921 552;" xml:space="preserve">
<style type="text/css">
	.st0{fill:none;stroke:#D6D6D6;}
	.st1{enable-background:new    ;}
	.st2{fill:#2AA6D3;}
	.st3{fill:#555555;}
	.st4{fill:#929397;}
	.st5{fill:none;stroke:#707070;}
</style>
<g id="그룹_5618" transform="translate(-740 -3003)">
	<line id="선_398" class="st0" x1="1009" y1="3063" x2="1009" y2="3520.5"/>
	<line id="선_399" class="st0" x1="1334.1" y1="3063" x2="1334.1" y2="3520.5"/>
	<path id="패스_1677" class="st0" d="M740,3193h920"/>
	<path id="패스_3206" class="st0" d="M740,3388.5h920"/>
	<path id="패스_3655" class="st0" d="M740,3454.5h920"/>
	<path id="패스_2801" class="st0" d="M740,3258.5h920"/>
	<g class="st1">
		<path class="st2" d="M753.3,3020.4c0,4.9-2.5,7.9-5.8,7.9c-3.3,0-5.8-3-5.8-7.9c0-4.8,2.5-7.9,5.8-7.9
			C750.8,3012.5,753.3,3015.5,753.3,3020.4z M744.7,3020.4c0,3.3,1.1,5,2.8,5c1.6,0,2.8-1.8,2.8-5c0-3.3-1.1-5-2.8-5
			C745.8,3015.4,744.7,3017.1,744.7,3020.4z M759.3,3010.9v22.2h-3.2v-22.2H759.3z"/>
		<path class="st2" d="M771.2,3015.9c0,4,1.6,8,5.1,9.7l-1.9,2.5c-2.3-1.2-3.9-3.3-4.8-6c-1,2.8-2.6,5.1-5.1,6.4l-1.9-2.6
			c3.7-1.8,5.4-6,5.4-10.1v-3.2h3.2V3015.9z M783.6,3022.1h-3.2v11h-3.2V3011h3.2v8.5h3.2V3022.1z"/>
		<path class="st2" d="M794,3026.7c1.8-0.1,3.6-0.2,5.3-0.5l0.2,2.3c-4.8,0.9-9.9,0.9-13.8,0.9l-0.4-2.6c1.7,0,3.5,0,5.5,0v-1.9
			c-2.4-0.5-3.9-1.9-3.9-4c0-2.5,2.3-4.2,5.5-4.2c3.2,0,5.5,1.7,5.5,4.2c0,2.1-1.5,3.6-3.9,4V3026.7z M799,3015.9h-13.3v-2.5h5.1
			v-2.4h3.2v2.4h5V3015.9z M792.4,3022.7c1.5,0,2.5-0.6,2.5-1.8c0-1.1-1-1.8-2.5-1.8c-1.5,0-2.5,0.6-2.5,1.8
			C789.9,3022,790.9,3022.7,792.4,3022.7z M803.6,3011v22.1h-3.2V3011H803.6z"/>
		<path class="st2" d="M824.3,3023.9c-2.4-0.8-4-2.4-5-4.4c-1,2.2-2.7,3.9-5.3,4.8l-1.7-2.5c3.7-1.2,5.3-4.2,5.3-7.2v-2.4h3.2v2.4
			c0,2.8,1.5,5.6,5.1,6.7L824.3,3023.9z M819.1,3030.2h11.8v2.5h-15v-7.1h3.2V3030.2z M833,3017.4v2.6h-2.9v7.2H827V3011h3.2v6.4
			H833z"/>
		<path class="st2" d="M842.7,3014.2h4.8v2.5h-12.9v-2.5h4.9v-2.9h3.2V3014.2z M846.8,3023.2c0,3.1-2.4,5.3-5.6,5.3
			c-3.2,0-5.6-2.2-5.6-5.3c0-3.1,2.4-5.3,5.6-5.3C844.4,3018,846.8,3020.2,846.8,3023.2z M843.8,3023.2c0-1.7-1.1-2.7-2.6-2.7
			c-1.5,0-2.6,1-2.6,2.7c0,1.7,1.1,2.7,2.6,2.7C842.7,3026,843.8,3025,843.8,3023.2z M855.3,3022.2h-3.2v10.8H849V3011h3.2v8.6h3.2
			V3022.2z"/>
		<path class="st2" d="M876.6,3024.1c-1.8,0.4-3.6,0.6-5.4,0.7v7.5H868v-7.3c-1.9,0.1-3.7,0.1-5.3,0.1l-0.4-2.6c3.9,0,9.3,0,14-0.7
			L876.6,3024.1z M863.7,3016.6c0-2.8,2.5-4.7,5.8-4.7c3.3,0,5.8,1.9,5.8,4.7c0,2.7-2.4,4.7-5.8,4.7
			C866.2,3021.3,863.7,3019.3,863.7,3016.6z M866.7,3016.6c0,1.3,1.2,2.1,2.8,2.1c1.6,0,2.8-0.8,2.8-2.1c0-1.4-1.1-2.2-2.8-2.2
			C867.9,3014.4,866.7,3015.2,866.7,3016.6z M880.8,3011v22.1h-3.2V3011H880.8z"/>
		<path class="st2" d="M903.5,3030.2v2.5h-16.4v-6.6h3.1v-3c-1.9,0.1-3.8,0.1-5.4,0.1l-0.4-2.5c4,0,9.4-0.1,14.1-0.7l0.2,2.3
			c-1.7,0.3-3.5,0.5-5.3,0.6v4.2h-3v3H903.5z M885.9,3015.7c0-2.4,2.3-4,5.5-4c3.2,0,5.5,1.6,5.5,4c0,2.4-2.3,3.9-5.5,3.9
			C888.2,3019.6,885.9,3018,885.9,3015.7z M888.9,3015.7c0,1.1,1,1.6,2.5,1.6c1.5,0,2.5-0.6,2.5-1.6s-1-1.7-2.5-1.7
			C890,3014,888.9,3014.6,888.9,3015.7z M899.8,3023.8V3011h3.2v16.8h-3.2v-1.8h-4.2v-2.2H899.8z"/>
		<path class="st2" d="M915.3,3026.7c1.8-0.1,3.6-0.2,5.3-0.5l0.2,2.3c-4.8,0.9-9.9,0.9-13.8,0.9l-0.4-2.6c1.7,0,3.5,0,5.5,0v-1.9
			c-2.4-0.5-3.9-1.9-3.9-4c0-2.5,2.3-4.2,5.5-4.2c3.2,0,5.5,1.7,5.5,4.2c0,2.1-1.5,3.6-3.9,4V3026.7z M920.3,3015.9H907v-2.5h5.1
			v-2.4h3.2v2.4h5V3015.9z M913.7,3022.7c1.5,0,2.5-0.6,2.5-1.8c0-1.1-1-1.8-2.5-1.8c-1.5,0-2.5,0.6-2.5,1.8
			C911.2,3022,912.2,3022.7,913.7,3022.7z M924.9,3011v22.1h-3.2V3011H924.9z"/>
		<path class="st2" d="M954,3024.2h-8.5v8.9h-3.2v-8.9H934v-2.5H948c0.6-2.8,0.6-5,0.6-6.9h-12.2v-2.5h15.3v2c0,2.1,0,4.3-0.6,7.4
			h2.9V3024.2z"/>
		<path class="st2" d="M967.7,3023.2c-2.3-0.8-3.9-2.3-4.8-4.3c-1,2.3-2.7,4-5.4,4.9l-1.7-2.5c3.8-1.2,5.3-4.2,5.3-7.2v-2h3.2v1.8
			c0,3,1.4,5.7,4.9,6.8L967.7,3023.2z M974.7,3028.8c0,2.7-2.9,4.3-7.6,4.3c-4.7,0-7.6-1.6-7.6-4.3c0-2.7,2.9-4.3,7.6-4.3
			C971.8,3024.5,974.7,3026.1,974.7,3028.8z M971.5,3028.8c0-1.3-1.5-1.9-4.4-1.9c-2.9,0-4.4,0.6-4.4,1.9c0,1.2,1.5,1.8,4.4,1.8
			C970,3030.6,971.5,3030,971.5,3028.8z M971.4,3017.6h-4v-2.6h4v-4h3.2v13h-3.2V3017.6z"/>
	</g>
	<path id="패스_1678" class="st0" d="M740,3127.5h920"/>
	<path id="패스_3205" class="st0" d="M740,3323h920"/>
	<g class="st1">
		<path d="M1149.4,3093.3c0,2.6,1.3,5.2,3.5,6.3l-1,1.3c-1.6-0.8-2.7-2.4-3.3-4.3c-0.6,2-1.8,3.7-3.5,4.5l-1-1.3
			c2.3-1.1,3.7-3.8,3.7-6.5v-2.4h1.6V3093.3z M1157.8,3096.9h-2.3v7.4h-1.6v-14.5h1.6v5.7h2.3V3096.9z"/>
		<path d="M1161.4,3099.2c1.3,0,2.7-0.1,4.2-0.4l0.2,1.4c-1.9,0.4-3.6,0.4-5.1,0.4h-1v-9.1h1.6V3099.2z M1171.4,3089.8v14.5h-1.6
			v-7.3h-1.7v6.6h-1.6v-13.4h1.6v5.5h1.7v-5.7H1171.4z"/>
		<path d="M1181.7,3095.9c0,3.1-1.6,5.1-3.7,5.1c-2.1,0-3.7-2-3.7-5.1c0-3.1,1.6-5.1,3.7-5.1
			C1180.2,3090.8,1181.7,3092.8,1181.7,3095.9z M1175.9,3095.9c0,2.3,0.9,3.6,2.1,3.6c1.3,0,2.1-1.4,2.1-3.6c0-2.2-0.9-3.6-2.1-3.6
			C1176.8,3092.3,1175.9,3093.7,1175.9,3095.9z M1185.7,3089.8v14.5h-1.7v-14.5H1185.7z"/>
		<path d="M1193.6,3093.3c0,2.6,1.3,5.2,3.5,6.3l-1,1.3c-1.6-0.8-2.7-2.4-3.3-4.3c-0.6,2-1.8,3.7-3.5,4.5l-1-1.3
			c2.3-1.1,3.7-3.8,3.7-6.5v-2.4h1.6V3093.3z M1202,3096.9h-2.3v7.4h-1.6v-14.5h1.6v5.7h2.3V3096.9z"/>
	</g>
	<g class="st1">
		<path class="st3" d="M1156.2,3293.4h-5.6v-6.7h1.2v2.3h3.1v-2.3h1.2V3293.4z M1155,3290.1h-3.1v2.3h3.1V3290.1z M1152.5,3295.3
			h9.7v4.9h-1.3v-3.8h-8.3V3295.3z M1162.1,3285.8v8.6h-1.3v-3.8h-1.8v3.7h-1.2v-8.3h1.2v3.5h1.8v-3.7H1162.1z"/>
		<path class="st3" d="M1177.7,3295.1h-5.9v5.1h-1.3v-5.1h-5.8v-1.1h13V3295.1z M1166.2,3289.5c0-1.9,2-3.1,5-3.1c3,0,5,1.2,5,3.1
			c0,1.9-2,3.2-5,3.2C1168.2,3292.7,1166.2,3291.5,1166.2,3289.5z M1167.6,3289.5c0,1.3,1.5,2.1,3.7,2.1c2.2,0,3.7-0.8,3.7-2.1
			c0-1.3-1.5-2.1-3.7-2.1C1169,3287.5,1167.6,3288.3,1167.6,3289.5z"/>
		<path class="st3" d="M1187.2,3293.7c-1.6-0.6-2.8-1.8-3.4-3.3c-0.6,1.7-1.9,3-3.6,3.6l-0.7-1.1c2.2-0.8,3.6-2.7,3.6-4.9v-1.5h1.3
			v1.6c0,2,1.4,3.8,3.5,4.5L1187.2,3293.7z M1181.7,3295.1h9.6v5.1h-1.3v-4h-8.3V3295.1z M1191.3,3285.8v8.5h-1.3v-4.4h-3.1v-1.1
			h3.1v-3H1191.3z"/>
		<path class="st3" d="M1195.1,3290.9l1-1.7l-1.7-0.7l0.3-0.8l1.8,0.4l0.2-1.9h0.9l0.2,1.9l1.8-0.4l0.3,0.8l-1.7,0.7l1,1.7l-0.7,0.5
			l-1.3-1.5l-1.3,1.5L1195.1,3290.9z"/>
	</g>
	<g class="st1">
		<path class="st3" d="M1157.6,3224.9c0,3.1-1.5,5-3.6,5s-3.6-2-3.6-5c0-3.1,1.5-5,3.6-5S1157.6,3221.9,1157.6,3224.9z
			 M1151.5,3224.9c0,2.3,1,3.8,2.4,3.8c1.4,0,2.4-1.5,2.4-3.8c0-2.3-1-3.8-2.4-3.8C1152.5,3221.1,1151.5,3222.6,1151.5,3224.9z
			 M1161.5,3218.8v14.4h-1.3v-14.4H1161.5z"/>
		<path class="st3" d="M1177.5,3228.1h-5.9v5.1h-1.3v-5.1h-5.8v-1.1h13V3228.1z M1165.9,3222.5c0-1.9,2-3.1,5-3.1c3,0,5,1.2,5,3.1
			c0,1.9-2,3.2-5,3.2C1168,3225.7,1165.9,3224.5,1165.9,3222.5z M1167.3,3222.5c0,1.3,1.5,2.1,3.7,2.1c2.2,0,3.7-0.8,3.7-2.1
			c0-1.3-1.5-2.1-3.7-2.1C1168.8,3220.5,1167.3,3221.3,1167.3,3222.5z"/>
		<path class="st3" d="M1187.3,3221.6h-8v-1.1h3.4v-1.8h1.3v1.8h3.3V3221.6z M1183.3,3227.9c-1.9,0-3.2-1.1-3.2-2.8
			c0-1.6,1.3-2.7,3.2-2.7s3.2,1.1,3.2,2.7C1186.6,3226.8,1185.2,3227.9,1183.3,3227.9z M1183.3,3226.9c1.2,0,2-0.7,2-1.7
			c0-1-0.8-1.7-2-1.7c-1.2,0-2,0.7-2,1.7C1181.3,3226.2,1182.1,3226.9,1183.3,3226.9z M1191.4,3231.8v1.1h-9.6v-4h1.3v2.9H1191.4z
			 M1189.7,3222.7v-3.8h1.3v10.9h-1.3v-3h-2.4v-1.1h2.4v-1.9h-2.4v-1.1H1189.7z"/>
	</g>
	<g class="st1">
		<path d="M1474.4,3093.3c0,2.6,1.3,5.2,3.5,6.3l-1,1.3c-1.6-0.8-2.7-2.4-3.3-4.3c-0.6,2-1.8,3.7-3.5,4.5l-1-1.3
			c2.3-1.1,3.7-3.8,3.7-6.5v-2.4h1.6V3093.3z M1482.8,3096.9h-2.3v7.4h-1.6v-14.5h1.6v5.7h2.3V3096.9z"/>
		<path d="M1489.6,3099.8c1.3-0.1,2.6-0.2,3.9-0.4l0.1,1.2c-3.2,0.6-6.6,0.6-9.2,0.6l-0.2-1.4c1.1,0,2.4,0,3.8,0v-2.3
			c-1.8-0.3-3.1-1.6-3.1-3.4c0-2,1.7-3.5,3.9-3.5s3.9,1.4,3.9,3.5c0,1.8-1.3,3.1-3.1,3.4V3099.8z M1488.8,3096.2
			c1.3,0,2.3-0.8,2.3-2c0-1.3-1-2.1-2.3-2.1c-1.3,0-2.3,0.8-2.3,2.1C1486.4,3095.4,1487.4,3096.2,1488.8,3096.2z M1496,3089.8v14.5
			h-1.7v-14.5H1496z"/>
		<path d="M1506.7,3095.9c0,3.1-1.6,5.1-3.7,5.1c-2.1,0-3.7-2-3.7-5.1c0-3.1,1.6-5.1,3.7-5.1
			C1505.2,3090.8,1506.7,3092.8,1506.7,3095.9z M1500.9,3095.9c0,2.3,0.9,3.6,2.1,3.6c1.3,0,2.1-1.4,2.1-3.6c0-2.2-0.9-3.6-2.1-3.6
			C1501.8,3092.3,1500.9,3093.7,1500.9,3095.9z M1510.7,3089.8v14.5h-1.7v-14.5H1510.7z"/>
		<path d="M1518.6,3093.3c0,2.6,1.3,5.2,3.5,6.3l-1,1.3c-1.6-0.8-2.7-2.4-3.3-4.3c-0.6,2-1.8,3.7-3.5,4.5l-1-1.3
			c2.3-1.1,3.7-3.8,3.7-6.5v-2.4h1.6V3093.3z M1527,3096.9h-2.3v7.4h-1.6v-14.5h1.6v5.7h2.3V3096.9z"/>
	</g>
	<g class="st1">
		<path d="M767.5,3098.2c-1.3,0.3-2.6,0.4-3.9,0.5v5.1H762v-5c-1.4,0-2.6,0.1-3.8,0.1l-0.2-1.4c2.6,0,6.2,0,9.4-0.5L767.5,3098.2z
			 M759,3093.4c0-1.8,1.6-3,3.7-3c2.2,0,3.7,1.2,3.7,3c0,1.8-1.6,3-3.7,3C760.5,3096.5,759,3095.2,759,3093.4z M760.6,3093.4
			c0,1,0.9,1.7,2.1,1.7c1.3,0,2.1-0.7,2.1-1.7c0-1-0.9-1.7-2.1-1.7C761.5,3091.8,760.6,3092.4,760.6,3093.4z M770,3089.8v14.5h-1.6
			v-14.5H770z"/>
		<path d="M776.7,3097.6c-1.4,0.1-2.7,0.1-3.8,0.1l-0.2-1.3c2.7,0,6.2,0,9.3-0.4l0.1,1.2c-1.2,0.2-2.5,0.3-3.7,0.4v2.8h-1.6V3097.6z
			 M773.7,3092.9c0-1.5,1.5-2.5,3.6-2.5c2.1,0,3.6,1,3.6,2.5c0,1.5-1.5,2.5-3.6,2.5C775.2,3095.4,773.7,3094.4,773.7,3092.9z
			 M785,3102.6v1.3h-10.4v-4.3h1.6v2.9H785z M775.3,3092.9c0,0.8,0.8,1.3,2,1.3c1.2,0,2-0.5,2-1.3s-0.8-1.3-2-1.3
			C776.1,3091.5,775.3,3092.1,775.3,3092.9z M783,3098.3v-8.5h1.6v11H783v-1.3h-2.8v-1.2H783z"/>
		<path d="M793,3100.2c1.3-0.1,2.6-0.2,3.8-0.3l0.1,1.2c-3.2,0.5-6.6,0.6-9.2,0.6l-0.2-1.4c1.2,0,2.5,0,3.8,0v-1.4
			c-1.6-0.3-2.7-1.2-2.7-2.6c0-1.6,1.4-2.7,3.5-2.7c2.1,0,3.5,1.1,3.5,2.7c0,1.4-1.1,2.4-2.7,2.6V3100.2z M796.5,3092.8h-8.7v-1.3
			h3.6v-1.6h1.6v1.6h3.5V3092.8z M792.2,3097.6c1.2,0,2-0.5,2-1.4c0-0.9-0.8-1.4-2-1.4c-1.2,0-2,0.5-2,1.4
			C790.2,3097.1,791,3097.6,792.2,3097.6z M799.3,3089.8v14.5h-1.7v-14.5H799.3z"/>
		<path d="M809.5,3097.4h-6.7v-6.5h6.7v1.2h3v-2.2h1.6v8.5h-1.6v-2.1h-3V3097.4z M807.9,3092.2h-3.5v3.9h3.5V3092.2z M814.2,3101.5
			c0,1.7-1.9,2.8-4.9,2.8c-3,0-4.9-1-4.9-2.8c0-1.7,1.9-2.8,4.9-2.8C812.3,3098.7,814.2,3099.7,814.2,3101.5z M812.5,3101.5
			c0-0.9-1.2-1.5-3.2-1.5s-3.2,0.5-3.2,1.5c0,1,1.2,1.5,3.2,1.5S812.5,3102.4,812.5,3101.5z M809.5,3093.3v1.5h3v-1.5H809.5z"/>
	</g>
	<g class="st1">
		<path class="st3" d="M771,3296.8v1.1h-13v-1.1h5.8v-3.1h-4.3v-7.3h1.3v2.6h7.3v-2.6h1.3v7.3h-4.3v3.1H771z M760.9,3292.6h7.3v-2.6
			h-7.3V3292.6z"/>
		<path class="st3" d="M780.4,3293.1c-1.6-0.6-2.8-1.8-3.4-3.2c-0.6,1.7-1.9,3-3.6,3.6l-0.7-1c2.2-0.8,3.6-2.7,3.6-4.9v-1.5h1.3v1.6
			c0,1.9,1.4,3.7,3.5,4.4L780.4,3293.1z M784,3297.1c0,1.7-1.8,2.6-4.7,2.6c-2.9,0-4.7-0.9-4.7-2.6c0-1.7,1.8-2.6,4.7-2.6
			C782.2,3294.4,784,3295.4,784,3297.1z M782.7,3297.1c0-1-1.3-1.6-3.4-1.6c-2.1,0-3.4,0.6-3.4,1.6c0,1,1.3,1.6,3.4,1.6
			C781.4,3298.6,782.7,3298.1,782.7,3297.1z M786,3289v1.1h-2.1v3.9h-1.3v-8.7h1.3v3.7H786z"/>
		<path class="st3" d="M797,3293.6c-1.4,0.2-2.8,0.4-4.1,0.5v5.2h-1.3v-5.1c-1.4,0.1-2.8,0.1-4,0.1l-0.2-1.1c2.7,0,6.3,0,9.5-0.5
			L797,3293.6z M788.5,3289c0-1.8,1.5-3,3.7-3c2.1,0,3.6,1.2,3.6,3c0,1.7-1.5,2.9-3.6,2.9C790,3291.9,788.5,3290.7,788.5,3289z
			 M789.8,3289c0,1.1,1,1.9,2.4,1.9c1.4,0,2.4-0.8,2.4-1.9c0-1.1-1-1.9-2.4-1.9C790.8,3287.1,789.8,3287.8,789.8,3289z
			 M799.2,3285.3v14.4h-1.3v-14.4H799.2z"/>
		<path class="st3" d="M806.3,3293c-1.4,0.1-2.8,0.1-4,0.1l-0.2-1.1c2.7,0,6.2,0,9.3-0.4l0.1,0.9c-1.3,0.2-2.6,0.3-3.9,0.4v2.8h-1.3
			V3293z M803.2,3288.4c0-1.5,1.4-2.5,3.5-2.5c2.1,0,3.5,1,3.5,2.5c0,1.5-1.4,2.5-3.5,2.5C804.7,3290.9,803.2,3289.9,803.2,3288.4z
			 M814.3,3298.3v1.1h-10.1v-4.2h1.3v3.1H814.3z M804.5,3288.4c0,0.9,0.9,1.5,2.3,1.5c1.4,0,2.3-0.6,2.3-1.5c0-0.9-0.9-1.5-2.3-1.5
			C805.4,3286.9,804.5,3287.5,804.5,3288.4z M812.6,3293.8v-8.5h1.3v10.9h-1.3v-1.5h-2.9v-1H812.6z"/>
		<path class="st3" d="M822.3,3295.7c1.4-0.1,2.8-0.2,4.1-0.3l0.1,1c-3.2,0.5-6.7,0.6-9.3,0.6l-0.2-1.1c1.2,0,2.6,0,4-0.1v-1.5
			c-1.7-0.2-2.8-1.2-2.8-2.6c0-1.6,1.4-2.7,3.5-2.7s3.4,1,3.4,2.7c0,1.4-1.1,2.4-2.8,2.6V3295.7z M826,3288.1h-8.7v-1.1h3.7v-1.8
			h1.3v1.8h3.7V3288.1z M821.7,3293.3c1.3,0,2.2-0.6,2.2-1.6c0-1-0.9-1.6-2.2-1.6c-1.3,0-2.2,0.6-2.2,1.6
			C819.5,3292.6,820.4,3293.3,821.7,3293.3z M828.6,3285.3v14.4h-1.3v-14.4H828.6z"/>
	</g>
	<g class="st1">
		<path class="st3" d="M1102.1,3162.4h-5.6v-6.7h1.2v2.3h3.1v-2.3h1.2V3162.4z M1100.8,3159.1h-3.1v2.3h3.1V3159.1z M1098.3,3164.3
			h9.7v4.9h-1.3v-3.8h-8.3V3164.3z M1108,3154.8v8.6h-1.3v-3.8h-1.8v3.7h-1.2v-8.3h1.2v3.5h1.8v-3.7H1108z"/>
		<path class="st3" d="M1123.6,3164.1h-5.9v5.1h-1.3v-5.1h-5.8v-1.1h13V3164.1z M1112,3158.5c0-1.9,2-3.1,5-3.1c3,0,5,1.2,5,3.1
			c0,1.9-2,3.2-5,3.2C1114,3161.7,1112,3160.5,1112,3158.5z M1113.4,3158.5c0,1.3,1.5,2.1,3.7,2.1c2.2,0,3.7-0.8,3.7-2.1
			c0-1.3-1.5-2.1-3.7-2.1C1114.9,3156.5,1113.4,3157.3,1113.4,3158.5z"/>
		<path class="st3" d="M1133,3162.7c-1.6-0.6-2.8-1.8-3.4-3.3c-0.6,1.7-1.9,3-3.6,3.6l-0.7-1.1c2.2-0.8,3.6-2.7,3.6-4.9v-1.5h1.3
			v1.6c0,2,1.4,3.8,3.5,4.5L1133,3162.7z M1127.5,3164.1h9.6v5.1h-1.3v-4h-8.3V3164.1z M1137.1,3154.8v8.5h-1.3v-4.4h-3.1v-1.1h3.1
			v-3H1137.1z"/>
		<path class="st3" d="M1140.9,3159.9l1-1.7l-1.7-0.7l0.3-0.8l1.8,0.4l0.2-1.9h0.9l0.2,1.9l1.8-0.4l0.3,0.8l-1.7,0.7l1,1.7l-0.7,0.5
			l-1.3-1.5l-1.3,1.5L1140.9,3159.9z"/>
		<path class="st3" d="M1147.5,3170.2c1-0.4,1.6-1.2,1.6-2.2c-0.1,0-0.1,0-0.2,0c-0.6,0-1.1-0.4-1.1-1c0-0.6,0.5-1,1.1-1
			c0.8,0,1.2,0.7,1.2,1.7c0,1.5-0.9,2.7-2.3,3.3L1147.5,3170.2z"/>
		<path class="st3" d="M1163.3,3160.9c0,3.1-1.5,5-3.6,5s-3.6-2-3.6-5c0-3.1,1.5-5,3.6-5S1163.3,3157.9,1163.3,3160.9z
			 M1157.3,3160.9c0,2.3,1,3.8,2.4,3.8c1.4,0,2.4-1.5,2.4-3.8c0-2.3-1-3.8-2.4-3.8C1158.3,3157.1,1157.3,3158.6,1157.3,3160.9z
			 M1167.3,3154.8v14.4h-1.3v-14.4H1167.3z"/>
		<path class="st3" d="M1183.2,3164.1h-5.9v5.1h-1.3v-5.1h-5.8v-1.1h13V3164.1z M1171.7,3158.5c0-1.9,2-3.1,5-3.1c3,0,5,1.2,5,3.1
			c0,1.9-2,3.2-5,3.2C1173.7,3161.7,1171.7,3160.5,1171.7,3158.5z M1173,3158.5c0,1.3,1.5,2.1,3.7,2.1c2.2,0,3.7-0.8,3.7-2.1
			c0-1.3-1.5-2.1-3.7-2.1C1174.5,3156.5,1173,3157.3,1173,3158.5z"/>
		<path class="st3" d="M1193,3157.6h-8v-1.1h3.4v-1.8h1.3v1.8h3.3V3157.6z M1189,3163.9c-1.9,0-3.2-1.1-3.2-2.8
			c0-1.6,1.3-2.7,3.2-2.7s3.2,1.1,3.2,2.7C1192.3,3162.8,1190.9,3163.9,1189,3163.9z M1189,3162.9c1.2,0,2-0.7,2-1.7
			c0-1-0.8-1.7-2-1.7c-1.2,0-2,0.7-2,1.7C1187,3162.2,1187.9,3162.9,1189,3162.9z M1197.1,3167.8v1.1h-9.6v-4h1.3v2.9H1197.1z
			 M1195.4,3158.7v-3.8h1.3v10.9h-1.3v-3h-2.4v-1.1h2.4v-1.9h-2.4v-1.1H1195.4z"/>
		<path class="st3" d="M1199.7,3170.2c1-0.4,1.6-1.2,1.6-2.2c-0.1,0-0.1,0-0.2,0c-0.6,0-1.1-0.4-1.1-1c0-0.6,0.5-1,1.1-1
			c0.8,0,1.2,0.7,1.2,1.7c0,1.5-0.9,2.7-2.3,3.3L1199.7,3170.2z"/>
		<path class="st3" d="M1215.2,3155.7c0,3.7-2.6,6.2-6.8,7.3l-0.5-1c3.5-0.9,5.7-2.8,6-5.2h-5.2v-1.1H1215.2z M1210.2,3163.6h9.3
			v5.3h-9.3V3163.6z M1211.5,3167.9h6.7v-3.2h-6.7V3167.9z M1219.5,3154.8v8.1h-1.3v-8.1H1219.5z"/>
		<path class="st3" d="M1229.3,3162.4c-1.6,0.3-3,0.4-5.3,0.4h-0.9v-6.9h5.5v1.1h-4.3v1.8h4.1v1h-4.1v2c2,0,3.3-0.1,4.8-0.4
			L1229.3,3162.4z M1224.9,3164.3h9.7v4.9h-1.3v-3.8h-8.3V3164.3z M1234.5,3154.8v8.7h-1.3v-3.9h-1.9v3.8h-1.2v-8.3h1.2v3.5h1.9
			v-3.7H1234.5z"/>
		<path class="st3" d="M1244.3,3162.6v1.5c2.7,0.1,4.2,1,4.2,2.5c0,1.6-1.8,2.5-4.9,2.5c-3.1,0-4.9-0.9-4.9-2.5
			c0-1.5,1.6-2.4,4.3-2.5v-1.5h-5.8v-1.1h13v1.1H1244.3z M1237.9,3159.6c2.5-0.3,4.8-1.5,4.9-3.1h-4.4v-1.1h10.6v1.1h-4.5
			c0.1,1.6,2.4,2.8,4.9,3.1l-0.5,1c-2.4-0.3-4.5-1.3-5.3-2.9c-0.8,1.6-2.9,2.6-5.3,2.9L1237.9,3159.6z M1243.6,3165.1
			c-2.3,0-3.6,0.5-3.6,1.5c0,1,1.3,1.5,3.6,1.5c2.2,0,3.6-0.6,3.6-1.5C1247.2,3165.7,1245.9,3165.1,1243.6,3165.1z"/>
	</g>
	<g class="st1">
		<path class="st3" d="M1157.6,3480.7c0,3.7-2.6,6.2-6.8,7.3l-0.5-1c3.5-0.9,5.7-2.8,6-5.2h-5.2v-1.1H1157.6z M1152.5,3488.6h9.3
			v5.3h-9.3V3488.6z M1153.8,3492.9h6.7v-3.2h-6.7V3492.9z M1161.8,3479.8v8.1h-1.3v-8.1H1161.8z"/>
		<path class="st3" d="M1171.6,3487.4c-1.6,0.3-3,0.4-5.3,0.4h-0.9v-6.9h5.5v1.1h-4.3v1.8h4.1v1h-4.1v2c2,0,3.3-0.1,4.8-0.4
			L1171.6,3487.4z M1167.2,3489.3h9.7v4.9h-1.3v-3.8h-8.3V3489.3z M1176.9,3479.8v8.7h-1.3v-3.9h-1.9v3.8h-1.2v-8.3h1.2v3.5h1.9
			v-3.7H1176.9z"/>
		<path class="st3" d="M1186.6,3487.6v1.5c2.7,0.1,4.2,1,4.2,2.5c0,1.6-1.8,2.5-4.9,2.5c-3.1,0-4.9-0.9-4.9-2.5
			c0-1.5,1.6-2.4,4.3-2.5v-1.5h-5.8v-1.1h13v1.1H1186.6z M1180.2,3484.6c2.5-0.3,4.8-1.5,4.9-3.1h-4.4v-1.1h10.6v1.1h-4.5
			c0.1,1.6,2.4,2.8,4.9,3.1l-0.5,1c-2.4-0.3-4.5-1.3-5.3-2.9c-0.8,1.6-2.9,2.6-5.3,2.9L1180.2,3484.6z M1186,3490.1
			c-2.3,0-3.6,0.5-3.6,1.5c0,1,1.3,1.5,3.6,1.5c2.2,0,3.6-0.6,3.6-1.5C1189.5,3490.7,1188.2,3490.1,1186,3490.1z"/>
		<path class="st3" d="M1195.1,3484.9l1-1.7l-1.7-0.7l0.3-0.8l1.8,0.4l0.2-1.9h0.9l0.2,1.9l1.8-0.4l0.3,0.8l-1.7,0.7l1,1.7l-0.7,0.5
			l-1.3-1.5l-1.3,1.5L1195.1,3484.9z"/>
	</g>
	<g class="st1">
		<path class="st3" d="M1407,3288.6h-8.5v-1.1h3.6v-1.8h1.3v1.8h3.6V3288.6z M1402.8,3294.8c-2,0-3.4-1.1-3.4-2.7
			c0-1.6,1.4-2.7,3.4-2.7c2,0,3.4,1.1,3.4,2.7C1406.2,3293.7,1404.8,3294.8,1402.8,3294.8z M1402.8,3293.8c1.3,0,2.2-0.6,2.2-1.6
			c0-1-0.9-1.6-2.2-1.6c-1.3,0-2.2,0.6-2.2,1.6C1400.6,3293.1,1401.5,3293.8,1402.8,3293.8z M1402,3298.8h8.3v1.1h-9.6v-4.1h1.3
			V3298.8z M1411.7,3290.6v1.1h-2.1v4.9h-1.3v-10.8h1.3v4.7H1411.7z"/>
		<path class="st3" d="M1426.2,3295.4h-5.9v4.8h-1.3v-4.8h-5.8v-1.1h13V3295.4z M1424.6,3292.6h-9.7v-6.2h1.3v2h7.1v-2h1.3V3292.6z
			 M1423.3,3289.4h-7.1v2.1h7.1V3289.4z"/>
		<path class="st3" d="M1437,3294.8c-3,0.6-6.5,0.6-9,0.6l-0.1-1.1c1.1,0,2.4,0,3.8-0.1v-1.1c-1.6-0.2-2.7-1-2.7-2.2
			c0-1.4,1.3-2.2,3.4-2.2c2,0,3.3,0.8,3.3,2.2c0,1.2-1,2-2.7,2.2v1c1.3-0.1,2.7-0.2,3.9-0.4L1437,3294.8z M1436.5,3288.2h-8.2v-1
			h3.5v-1.5h1.3v1.5h3.5V3288.2z M1431.3,3298.8h8.3v1.1h-9.6v-3.6h1.3V3298.8z M1432.3,3292.3c1.3,0,2.1-0.5,2.1-1.3
			c0-0.8-0.8-1.3-2.1-1.3c-1.3,0-2.1,0.5-2.1,1.3C1430.2,3291.8,1431,3292.3,1432.3,3292.3z M1441.1,3290.8v1.1h-2.1v5.1h-1.3v-11.2
			h1.3v5H1441.1z"/>
		<path class="st3" d="M1442.6,3301.2c1-0.4,1.6-1.2,1.6-2.2c-0.1,0-0.1,0-0.2,0c-0.6,0-1.1-0.4-1.1-1c0-0.6,0.5-1,1.1-1
			c0.8,0,1.2,0.7,1.2,1.7c0,1.5-0.9,2.7-2.3,3.3L1442.6,3301.2z"/>
		<path class="st3" d="M1458.4,3293.8c-1.6-0.5-2.9-1.7-3.5-3.1c-0.6,1.6-1.9,2.9-3.6,3.5l-0.7-1c2.2-0.8,3.6-2.6,3.6-4.7v-0.6h-3.2
			v-1.1h7.7v1.1h-3.2v0.6c0,1.9,1.4,3.6,3.5,4.3L1458.4,3293.8z M1462,3297.5c0,1.7-1.8,2.7-4.7,2.7c-2.9,0-4.7-1-4.7-2.7
			c0-1.7,1.8-2.6,4.7-2.6C1460.2,3294.9,1462,3295.8,1462,3297.5z M1460.7,3297.5c0-1-1.3-1.6-3.4-1.6c-2.1,0-3.4,0.6-3.4,1.6
			c0,1,1.3,1.6,3.4,1.6C1459.4,3299.1,1460.7,3298.5,1460.7,3297.5z M1463.9,3289.5v1.1h-2.1v3.9h-1.3v-8.7h1.3v3.6H1463.9z"/>
		<path class="st3" d="M1472.3,3289.5c-0.9,2.3-3.1,4-6.2,4.9l-0.5-1c3.4-1,5.6-2.9,5.8-5.4h-5.1v-1.1h6.5c0,0.5-0.1,1.1-0.2,1.6
			h3.2v-2.6h1.3v8.6h-1.3v-1.9h-3.8v-1.1h3.8v-1.9H1472.3z M1477.3,3297.4c0,1.7-1.9,2.8-4.8,2.8s-4.8-1-4.8-2.8s1.9-2.8,4.8-2.8
			S1477.3,3295.6,1477.3,3297.4z M1476,3297.4c0-1.1-1.3-1.7-3.5-1.7c-2.1,0-3.5,0.7-3.5,1.7c0,1.1,1.3,1.7,3.5,1.7
			C1474.6,3299.1,1476,3298.4,1476,3297.4z"/>
		<path class="st3" d="M1489.2,3294.8c-3,0.6-6.5,0.6-9,0.6l-0.1-1.1c1.1,0,2.4,0,3.8-0.1v-1.1c-1.6-0.2-2.7-1-2.7-2.2
			c0-1.4,1.3-2.2,3.4-2.2c2,0,3.3,0.8,3.3,2.2c0,1.2-1,2-2.7,2.2v1c1.3-0.1,2.7-0.2,3.9-0.4L1489.2,3294.8z M1488.6,3288.2h-8.2v-1
			h3.5v-1.5h1.3v1.5h3.5V3288.2z M1483.5,3298.8h8.3v1.1h-9.6v-3.6h1.3V3298.8z M1484.5,3292.3c1.3,0,2.1-0.5,2.1-1.3
			c0-0.8-0.8-1.3-2.1-1.3c-1.3,0-2.1,0.5-2.1,1.3C1482.4,3291.8,1483.2,3292.3,1484.5,3292.3z M1493.3,3290.8v1.1h-2.1v5.1h-1.3
			v-11.2h1.3v5H1493.3z"/>
		<path class="st3" d="M1494.8,3301.2c1-0.4,1.6-1.2,1.6-2.2c-0.1,0-0.1,0-0.2,0c-0.6,0-1.1-0.4-1.1-1c0-0.6,0.5-1,1.1-1
			c0.8,0,1.2,0.7,1.2,1.7c0,1.5-0.9,2.7-2.3,3.3L1494.8,3301.2z"/>
		<path class="st3" d="M1506.9,3293.9c-2.1,0-3.7-1.5-3.7-3.5c0-2.1,1.6-3.5,3.7-3.5s3.7,1.5,3.7,3.5
			C1510.6,3292.5,1509,3293.9,1506.9,3293.9z M1506.9,3292.8c1.4,0,2.5-1,2.5-2.4c0-1.4-1.1-2.4-2.5-2.4s-2.5,1-2.5,2.4
			C1504.4,3291.8,1505.5,3292.8,1506.9,3292.8z M1506.4,3298.8h8.3v1.1h-9.6v-4.5h1.3V3298.8z M1516.1,3290.2v1.1h-2.1v5.1h-1.3
			v-10.6h1.3v4.4H1516.1z"/>
		<path class="st3" d="M1525,3287.2v9.3h-6.6v-9.3H1525z M1519.7,3288.3v7.2h4v-7.2H1519.7z M1529.3,3285.8v14.4h-1.3v-14.4H1529.3z
			"/>
		<path class="st3" d="M1540.1,3293.8c-1.6-0.6-2.8-1.8-3.5-3.2c-0.6,1.7-1.9,3-3.6,3.6l-0.7-1c2.1-0.8,3.6-2.7,3.6-4.8v-0.5h-3.2
			v-1.1h7.7v1.1h-3.2v0.5c0,1.8,1.4,3.6,3.5,4.4L1540.1,3293.8z M1544.2,3297.5c0,1.7-1.8,2.7-4.8,2.7c-2.9,0-4.8-1-4.8-2.7
			c0-1.7,1.8-2.7,4.8-2.7C1542.3,3294.8,1544.2,3295.8,1544.2,3297.5z M1542.9,3297.5c0-1-1.3-1.7-3.5-1.7c-2.2,0-3.5,0.6-3.5,1.7
			c0,1,1.3,1.6,3.5,1.6C1541.6,3299.2,1542.9,3298.6,1542.9,3297.5z M1542.8,3289.6v-3.7h1.3v8.5h-1.3v-3.8h-2.8v-1.1H1542.8z"/>
		<path class="st3" d="M1547,3301.2c1-0.4,1.6-1.2,1.6-2.2c-0.1,0-0.1,0-0.2,0c-0.6,0-1.1-0.4-1.1-1c0-0.6,0.5-1,1.1-1
			c0.8,0,1.2,0.7,1.2,1.7c0,1.5-0.9,2.7-2.3,3.3L1547,3301.2z"/>
		<path class="st3" d="M1562.3,3286.9c0,3.6-2.5,6.3-6.7,7.6l-0.5-1.1c3.4-1,5.6-3,5.8-5.4h-5.2v-1.1H1562.3z M1566.4,3297.4
			c0,1.7-1.8,2.8-4.7,2.8c-2.8,0-4.7-1.1-4.7-2.8c0-1.7,1.8-2.8,4.7-2.8C1564.5,3294.6,1566.4,3295.6,1566.4,3297.4z M1565.1,3297.4
			c0-1.1-1.3-1.8-3.4-1.8c-2.1,0-3.4,0.7-3.4,1.8c0,1.1,1.3,1.7,3.4,1.7C1563.8,3299.1,1565.1,3298.5,1565.1,3297.4z M1568.3,3289.5
			v1.1h-2.1v3.8h-1.3v-8.6h1.3v3.7H1568.3z"/>
		<path class="st3" d="M1577.9,3294.3c-1.6-0.6-3-1.8-3.6-3.3c-0.6,1.6-1.9,2.9-3.6,3.5l-0.7-1c2.2-0.8,3.6-2.6,3.6-4.7v-0.8h-3.3
			v-1.1h7.9v1.1h-3.2v0.8c0,1.9,1.5,3.7,3.6,4.4L1577.9,3294.3z M1582,3298.8v1.1h-9.7v-4.5h1.3v3.4H1582z M1581.6,3296.3h-1.3
			v-10.5h1.3V3296.3z"/>
		<path class="st3" d="M1591.9,3291.9c0,3.1-1.5,5-3.6,5c-2.1,0-3.6-2-3.6-5c0-3.1,1.5-5,3.6-5
			C1590.4,3286.9,1591.9,3288.9,1591.9,3291.9z M1590.7,3291.9c0-2.3-1-3.8-2.4-3.8c-1.4,0-2.4,1.5-2.4,3.8c0,2.3,1,3.8,2.4,3.8
			C1589.7,3295.8,1590.7,3294.3,1590.7,3291.9z M1597.9,3292.7h-2.4v7.5h-1.3v-14.3h1.3v5.7h2.4V3292.7z"/>
	</g>
	<g class="st1">
		<path class="st3" d="M1402.4,3358.3c-1.6-0.5-2.9-1.7-3.5-3.1c-0.6,1.6-1.9,2.9-3.6,3.5l-0.7-1c2.2-0.8,3.6-2.6,3.6-4.7v-0.6h-3.2
			v-1.1h7.7v1.1h-3.2v0.6c0,1.9,1.4,3.6,3.5,4.3L1402.4,3358.3z M1406,3362c0,1.7-1.8,2.7-4.7,2.7c-2.9,0-4.7-1-4.7-2.7
			c0-1.7,1.8-2.6,4.7-2.6C1404.2,3359.4,1406,3360.3,1406,3362z M1404.7,3362c0-1-1.3-1.6-3.4-1.6c-2.1,0-3.4,0.6-3.4,1.6
			c0,1,1.3,1.6,3.4,1.6C1403.4,3363.6,1404.7,3363,1404.7,3362z M1408,3354v1.1h-2.1v3.9h-1.3v-8.7h1.3v3.6H1408z"/>
		<path class="st3" d="M1416.4,3354c-0.9,2.3-3.1,4-6.2,4.9l-0.5-1c3.4-1,5.6-2.9,5.8-5.4h-5.1v-1.1h6.5c0,0.5-0.1,1.1-0.2,1.6h3.2
			v-2.6h1.3v8.6h-1.3v-1.9h-3.8v-1.1h3.8v-1.9H1416.4z M1421.4,3361.9c0,1.7-1.9,2.8-4.8,2.8c-2.9,0-4.8-1-4.8-2.8s1.9-2.8,4.8-2.8
			C1419.5,3359.1,1421.4,3360.1,1421.4,3361.9z M1420.1,3361.9c0-1.1-1.3-1.7-3.5-1.7c-2.1,0-3.5,0.7-3.5,1.7c0,1.1,1.3,1.7,3.5,1.7
			C1418.7,3363.6,1420.1,3362.9,1420.1,3361.9z"/>
		<path class="st3" d="M1433.2,3359.3c-3,0.6-6.5,0.6-9,0.6l-0.1-1.1c1.1,0,2.4,0,3.8-0.1v-1.1c-1.6-0.2-2.7-1-2.7-2.2
			c0-1.4,1.3-2.2,3.4-2.2c2,0,3.3,0.8,3.3,2.2c0,1.2-1,2-2.7,2.2v1c1.3-0.1,2.7-0.2,3.9-0.4L1433.2,3359.3z M1432.7,3352.7h-8.2v-1
			h3.5v-1.5h1.3v1.5h3.5V3352.7z M1427.5,3363.3h8.3v1.1h-9.6v-3.6h1.3V3363.3z M1428.6,3356.8c1.3,0,2.1-0.5,2.1-1.3
			c0-0.8-0.8-1.3-2.1-1.3c-1.3,0-2.1,0.5-2.1,1.3C1426.5,3356.3,1427.3,3356.8,1428.6,3356.8z M1437.4,3355.3v1.1h-2.1v5.1h-1.3
			v-11.2h1.3v5H1437.4z"/>
		<path class="st3" d="M1439.8,3355.4l1-1.7l-1.7-0.7l0.3-0.8l1.8,0.4l0.2-1.9h0.9l0.2,1.9l1.8-0.4l0.3,0.8l-1.7,0.7l1,1.7l-0.7,0.5
			l-1.3-1.5l-1.3,1.5L1439.8,3355.4z"/>
		<path class="st3" d="M1446.4,3365.7c1-0.4,1.6-1.2,1.6-2.2c-0.1,0-0.1,0-0.2,0c-0.6,0-1.1-0.4-1.1-1c0-0.6,0.5-1,1.1-1
			c0.8,0,1.2,0.7,1.2,1.7c0,1.5-0.9,2.7-2.3,3.3L1446.4,3365.7z"/>
		<path class="st3" d="M1462.9,3353.1h-8.5v-1.1h3.6v-1.8h1.3v1.8h3.6V3353.1z M1458.7,3359.3c-2,0-3.4-1.1-3.4-2.7
			c0-1.6,1.4-2.7,3.4-2.7c2,0,3.4,1.1,3.4,2.7C1462.1,3358.2,1460.7,3359.3,1458.7,3359.3z M1458.7,3358.3c1.3,0,2.2-0.6,2.2-1.6
			c0-1-0.9-1.6-2.2-1.6c-1.3,0-2.2,0.6-2.2,1.6C1456.5,3357.6,1457.4,3358.3,1458.7,3358.3z M1457.9,3363.3h8.3v1.1h-9.6v-4.1h1.3
			V3363.3z M1467.7,3355.1v1.1h-2.1v4.9h-1.3v-10.8h1.3v4.7H1467.7z"/>
		<path class="st3" d="M1482.1,3359.9h-5.9v4.8h-1.3v-4.8h-5.8v-1.1h13V3359.9z M1480.5,3357.1h-9.7v-6.2h1.3v2h7.1v-2h1.3V3357.1z
			 M1479.2,3353.9h-7.1v2.1h7.1V3353.9z"/>
		<path class="st3" d="M1492.9,3359.3c-3,0.6-6.5,0.6-9,0.6l-0.1-1.1c1.1,0,2.4,0,3.8-0.1v-1.1c-1.6-0.2-2.7-1-2.7-2.2
			c0-1.4,1.3-2.2,3.4-2.2c2,0,3.3,0.8,3.3,2.2c0,1.2-1,2-2.7,2.2v1c1.3-0.1,2.7-0.2,3.9-0.4L1492.9,3359.3z M1492.4,3352.7h-8.2v-1
			h3.5v-1.5h1.3v1.5h3.5V3352.7z M1487.2,3363.3h8.3v1.1h-9.6v-3.6h1.3V3363.3z M1488.3,3356.8c1.3,0,2.1-0.5,2.1-1.3
			c0-0.8-0.8-1.3-2.1-1.3c-1.3,0-2.1,0.5-2.1,1.3C1486.2,3356.3,1487,3356.8,1488.3,3356.8z M1497.1,3355.3v1.1h-2.1v5.1h-1.3v-11.2
			h1.3v5H1497.1z"/>
		<path class="st3" d="M1498.6,3365.7c1-0.4,1.6-1.2,1.6-2.2c-0.1,0-0.1,0-0.2,0c-0.6,0-1.1-0.4-1.1-1c0-0.6,0.5-1,1.1-1
			c0.8,0,1.2,0.7,1.2,1.7c0,1.5-0.9,2.7-2.3,3.3L1498.6,3365.7z"/>
		<path class="st3" d="M1510.6,3358.4c-2.1,0-3.7-1.5-3.7-3.5c0-2.1,1.6-3.5,3.7-3.5s3.7,1.5,3.7,3.5
			C1514.4,3357,1512.8,3358.4,1510.6,3358.4z M1510.6,3357.3c1.4,0,2.5-1,2.5-2.4c0-1.4-1.1-2.4-2.5-2.4s-2.5,1-2.5,2.4
			C1508.2,3356.3,1509.2,3357.3,1510.6,3357.3z M1510.1,3363.3h8.3v1.1h-9.6v-4.5h1.3V3363.3z M1519.9,3354.7v1.1h-2.1v5.1h-1.3
			v-10.6h1.3v4.4H1519.9z"/>
		<path class="st3" d="M1528.7,3351.7v9.3h-6.6v-9.3H1528.7z M1523.4,3352.8v7.2h4v-7.2H1523.4z M1533.1,3350.3v14.4h-1.3v-14.4
			H1533.1z"/>
		<path class="st3" d="M1543.9,3358.3c-1.6-0.6-2.8-1.8-3.5-3.2c-0.6,1.7-1.9,3-3.6,3.6l-0.7-1c2.1-0.8,3.6-2.7,3.6-4.8v-0.5h-3.2
			v-1.1h7.7v1.1h-3.2v0.5c0,1.8,1.4,3.6,3.5,4.4L1543.9,3358.3z M1547.9,3362c0,1.7-1.8,2.7-4.8,2.7s-4.8-1-4.8-2.7
			c0-1.7,1.8-2.7,4.8-2.7S1547.9,3360.3,1547.9,3362z M1546.6,3362c0-1-1.3-1.7-3.5-1.7c-2.2,0-3.5,0.6-3.5,1.7c0,1,1.3,1.6,3.5,1.6
			C1545.3,3363.7,1546.6,3363.1,1546.6,3362z M1546.5,3354.1v-3.7h1.3v8.5h-1.3v-3.8h-2.8v-1.1H1546.5z"/>
		<path class="st3" d="M1550.8,3365.7c1-0.4,1.6-1.2,1.6-2.2c-0.1,0-0.1,0-0.2,0c-0.6,0-1.1-0.4-1.1-1c0-0.6,0.5-1,1.1-1
			c0.8,0,1.2,0.7,1.2,1.7c0,1.5-0.9,2.7-2.3,3.3L1550.8,3365.7z"/>
		<path class="st3" d="M1566.1,3351.4c0,3.6-2.5,6.3-6.7,7.6l-0.5-1.1c3.4-1,5.6-3,5.8-5.4h-5.2v-1.1H1566.1z M1570.1,3361.9
			c0,1.7-1.8,2.8-4.7,2.8c-2.8,0-4.7-1.1-4.7-2.8c0-1.7,1.8-2.8,4.7-2.8C1568.3,3359.1,1570.1,3360.1,1570.1,3361.9z M1568.8,3361.9
			c0-1.1-1.3-1.8-3.4-1.8c-2.1,0-3.4,0.7-3.4,1.8c0,1.1,1.3,1.7,3.4,1.7C1567.5,3363.6,1568.8,3363,1568.8,3361.9z M1572.1,3354v1.1
			h-2.1v3.8h-1.3v-8.6h1.3v3.7H1572.1z"/>
		<path class="st3" d="M1581.6,3358.8c-1.6-0.6-3-1.8-3.6-3.3c-0.6,1.6-1.9,2.9-3.6,3.5l-0.7-1c2.2-0.8,3.6-2.6,3.6-4.7v-0.8h-3.3
			v-1.1h7.9v1.1h-3.2v0.8c0,1.9,1.5,3.7,3.6,4.4L1581.6,3358.8z M1585.7,3363.3v1.1h-9.7v-4.5h1.3v3.4H1585.7z M1585.3,3360.8h-1.3
			v-10.5h1.3V3360.8z"/>
		<path class="st3" d="M1595.7,3356.4c0,3.1-1.5,5-3.6,5c-2.1,0-3.6-2-3.6-5c0-3.1,1.5-5,3.6-5
			C1594.2,3351.4,1595.7,3353.4,1595.7,3356.4z M1594.4,3356.4c0-2.3-1-3.8-2.4-3.8c-1.4,0-2.4,1.5-2.4,3.8c0,2.3,1,3.8,2.4,3.8
			C1593.4,3360.3,1594.4,3358.8,1594.4,3356.4z M1601.6,3357.2h-2.4v7.5h-1.3v-14.3h1.3v5.7h2.4V3357.2z"/>
	</g>
	<g class="st1">
		<path class="st3" d="M1398.8,3228.4c-2.1,0-3.7-1.5-3.7-3.5c0-2.1,1.6-3.5,3.7-3.5s3.7,1.5,3.7,3.5
			C1402.5,3227,1400.9,3228.4,1398.8,3228.4z M1398.8,3227.3c1.4,0,2.5-1,2.5-2.4c0-1.4-1.1-2.4-2.5-2.4s-2.5,1-2.5,2.4
			C1396.3,3226.3,1397.4,3227.3,1398.8,3227.3z M1398.3,3233.3h8.3v1.1h-9.6v-4.5h1.3V3233.3z M1408,3224.7v1.1h-2.1v5.1h-1.3v-10.6
			h1.3v4.4H1408z"/>
		<path class="st3" d="M1416.9,3221.7v9.3h-6.6v-9.3H1416.9z M1411.6,3222.8v7.2h4v-7.2H1411.6z M1421.2,3220.3v14.4h-1.3v-14.4
			H1421.2z"/>
		<path class="st3" d="M1432,3228.3c-1.6-0.6-2.8-1.8-3.5-3.2c-0.6,1.7-1.9,3-3.6,3.6l-0.7-1c2.1-0.8,3.6-2.7,3.6-4.8v-0.5h-3.2
			v-1.1h7.7v1.1h-3.2v0.5c0,1.8,1.4,3.6,3.5,4.4L1432,3228.3z M1436.1,3232c0,1.7-1.8,2.7-4.8,2.7s-4.8-1-4.8-2.7
			c0-1.7,1.8-2.7,4.8-2.7S1436.1,3230.3,1436.1,3232z M1434.7,3232c0-1-1.3-1.7-3.5-1.7c-2.2,0-3.5,0.6-3.5,1.7c0,1,1.3,1.6,3.5,1.6
			C1433.4,3233.7,1434.7,3233.1,1434.7,3232z M1434.7,3224.1v-3.7h1.3v8.5h-1.3v-3.8h-2.8v-1.1H1434.7z"/>
		<path class="st3" d="M1439.8,3225.4l1-1.7l-1.7-0.7l0.3-0.8l1.8,0.4l0.2-1.9h0.9l0.2,1.9l1.8-0.4l0.3,0.8l-1.7,0.7l1,1.7l-0.7,0.5
			l-1.3-1.5l-1.3,1.5L1439.8,3225.4z"/>
		<path class="st3" d="M1446.4,3235.7c1-0.4,1.6-1.2,1.6-2.2c-0.1,0-0.1,0-0.2,0c-0.6,0-1.1-0.4-1.1-1c0-0.6,0.5-1,1.1-1
			c0.8,0,1.2,0.7,1.2,1.7c0,1.5-0.9,2.7-2.3,3.3L1446.4,3235.7z"/>
		<path class="st3" d="M1462.9,3223.1h-8.5v-1.1h3.6v-1.8h1.3v1.8h3.6V3223.1z M1458.7,3229.3c-2,0-3.4-1.1-3.4-2.7
			c0-1.6,1.4-2.7,3.4-2.7c2,0,3.4,1.1,3.4,2.7C1462.1,3228.2,1460.7,3229.3,1458.7,3229.3z M1458.7,3228.3c1.3,0,2.2-0.6,2.2-1.6
			c0-1-0.9-1.6-2.2-1.6c-1.3,0-2.2,0.6-2.2,1.6C1456.5,3227.6,1457.4,3228.3,1458.7,3228.3z M1457.9,3233.3h8.3v1.1h-9.6v-4.1h1.3
			V3233.3z M1467.7,3225.1v1.1h-2.1v4.9h-1.3v-10.8h1.3v4.7H1467.7z"/>
		<path class="st3" d="M1482.1,3229.9h-5.9v4.8h-1.3v-4.8h-5.8v-1.1h13V3229.9z M1480.5,3227.1h-9.7v-6.2h1.3v2h7.1v-2h1.3V3227.1z
			 M1479.2,3223.9h-7.1v2.1h7.1V3223.9z"/>
		<path class="st3" d="M1492.9,3229.3c-3,0.6-6.5,0.6-9,0.6l-0.1-1.1c1.1,0,2.4,0,3.8-0.1v-1.1c-1.6-0.2-2.7-1-2.7-2.2
			c0-1.4,1.3-2.2,3.4-2.2c2,0,3.3,0.8,3.3,2.2c0,1.2-1,2-2.7,2.2v1c1.3-0.1,2.7-0.2,3.9-0.4L1492.9,3229.3z M1492.4,3222.7h-8.2v-1
			h3.5v-1.5h1.3v1.5h3.5V3222.7z M1487.2,3233.3h8.3v1.1h-9.6v-3.6h1.3V3233.3z M1488.3,3226.8c1.3,0,2.1-0.5,2.1-1.3
			c0-0.8-0.8-1.3-2.1-1.3c-1.3,0-2.1,0.5-2.1,1.3C1486.2,3226.3,1487,3226.8,1488.3,3226.8z M1497.1,3225.3v1.1h-2.1v5.1h-1.3v-11.2
			h1.3v5H1497.1z"/>
		<path class="st3" d="M1498.6,3235.7c1-0.4,1.6-1.2,1.6-2.2c-0.1,0-0.1,0-0.2,0c-0.6,0-1.1-0.4-1.1-1c0-0.6,0.5-1,1.1-1
			c0.8,0,1.2,0.7,1.2,1.7c0,1.5-0.9,2.7-2.3,3.3L1498.6,3235.7z"/>
		<path class="st3" d="M1514.3,3228.3c-1.6-0.5-2.9-1.7-3.5-3.1c-0.6,1.6-1.9,2.9-3.6,3.5l-0.7-1c2.2-0.8,3.6-2.6,3.6-4.7v-0.6h-3.2
			v-1.1h7.7v1.1h-3.2v0.6c0,1.9,1.4,3.6,3.5,4.3L1514.3,3228.3z M1517.9,3232c0,1.7-1.8,2.7-4.7,2.7c-2.9,0-4.7-1-4.7-2.7
			c0-1.7,1.8-2.6,4.7-2.6C1516.1,3229.4,1517.9,3230.3,1517.9,3232z M1516.6,3232c0-1-1.3-1.6-3.4-1.6c-2.1,0-3.4,0.6-3.4,1.6
			c0,1,1.3,1.6,3.4,1.6C1515.3,3233.6,1516.6,3233,1516.6,3232z M1519.9,3224v1.1h-2.1v3.9h-1.3v-8.7h1.3v3.6H1519.9z"/>
		<path class="st3" d="M1528.2,3224c-0.9,2.3-3.1,4-6.2,4.9l-0.5-1c3.4-1,5.6-2.9,5.8-5.4h-5.1v-1.1h6.5c0,0.5-0.1,1.1-0.2,1.6h3.2
			v-2.6h1.3v8.6h-1.3v-1.9h-3.8v-1.1h3.8v-1.9H1528.2z M1533.2,3231.9c0,1.7-1.9,2.8-4.8,2.8c-2.9,0-4.8-1-4.8-2.8s1.9-2.8,4.8-2.8
			C1531.4,3229.1,1533.2,3230.1,1533.2,3231.9z M1531.9,3231.9c0-1.1-1.3-1.7-3.5-1.7s-3.5,0.7-3.5,1.7c0,1.1,1.3,1.7,3.5,1.7
			S1531.9,3232.9,1531.9,3231.9z"/>
		<path class="st3" d="M1545.1,3229.3c-3,0.6-6.5,0.6-9,0.6l-0.1-1.1c1.1,0,2.4,0,3.8-0.1v-1.1c-1.6-0.2-2.7-1-2.7-2.2
			c0-1.4,1.3-2.2,3.4-2.2c2,0,3.3,0.8,3.3,2.2c0,1.2-1,2-2.7,2.2v1c1.3-0.1,2.7-0.2,3.9-0.4L1545.1,3229.3z M1544.6,3222.7h-8.2v-1
			h3.5v-1.5h1.3v1.5h3.5V3222.7z M1539.4,3233.3h8.3v1.1h-9.6v-3.6h1.3V3233.3z M1540.5,3226.8c1.3,0,2.1-0.5,2.1-1.3
			c0-0.8-0.8-1.3-2.1-1.3c-1.3,0-2.1,0.5-2.1,1.3C1538.3,3226.3,1539.2,3226.8,1540.5,3226.8z M1549.3,3225.3v1.1h-2.1v5.1h-1.3
			v-11.2h1.3v5H1549.3z"/>
		<path class="st3" d="M1550.8,3235.7c1-0.4,1.6-1.2,1.6-2.2c-0.1,0-0.1,0-0.2,0c-0.6,0-1.1-0.4-1.1-1c0-0.6,0.5-1,1.1-1
			c0.8,0,1.2,0.7,1.2,1.7c0,1.5-0.9,2.7-2.3,3.3L1550.8,3235.7z"/>
		<path class="st3" d="M1566.1,3221.4c0,3.6-2.5,6.3-6.7,7.6l-0.5-1.1c3.4-1,5.6-3,5.8-5.4h-5.2v-1.1H1566.1z M1570.1,3231.9
			c0,1.7-1.8,2.8-4.7,2.8c-2.8,0-4.7-1.1-4.7-2.8c0-1.7,1.8-2.8,4.7-2.8C1568.3,3229.1,1570.1,3230.1,1570.1,3231.9z M1568.8,3231.9
			c0-1.1-1.3-1.8-3.4-1.8c-2.1,0-3.4,0.7-3.4,1.8c0,1.1,1.3,1.7,3.4,1.7C1567.5,3233.6,1568.8,3233,1568.8,3231.9z M1572.1,3224v1.1
			h-2.1v3.8h-1.3v-8.6h1.3v3.7H1572.1z"/>
		<path class="st3" d="M1581.6,3228.8c-1.6-0.6-3-1.8-3.6-3.3c-0.6,1.6-1.9,2.9-3.6,3.5l-0.7-1c2.2-0.8,3.6-2.6,3.6-4.7v-0.8h-3.3
			v-1.1h7.9v1.1h-3.2v0.8c0,1.9,1.5,3.7,3.6,4.4L1581.6,3228.8z M1585.7,3233.3v1.1h-9.7v-4.5h1.3v3.4H1585.7z M1585.3,3230.8h-1.3
			v-10.5h1.3V3230.8z"/>
		<path class="st3" d="M1595.7,3226.4c0,3.1-1.5,5-3.6,5c-2.1,0-3.6-2-3.6-5c0-3.1,1.5-5,3.6-5
			C1594.2,3221.4,1595.7,3223.4,1595.7,3226.4z M1594.4,3226.4c0-2.3-1-3.8-2.4-3.8c-1.4,0-2.4,1.5-2.4,3.8c0,2.3,1,3.8,2.4,3.8
			C1593.4,3230.3,1594.4,3228.8,1594.4,3226.4z M1601.6,3227.2h-2.4v7.5h-1.3v-14.3h1.3v5.7h2.4V3227.2z"/>
	</g>
	<g class="st1">
		<path class="st3" d="M1403.3,3418.6h-8.5v-1.1h3.6v-1.8h1.3v1.8h3.6V3418.6z M1399,3424.8c-2,0-3.4-1.1-3.4-2.7
			c0-1.6,1.4-2.7,3.4-2.7c2,0,3.4,1.1,3.4,2.7C1402.5,3423.7,1401.1,3424.8,1399,3424.8z M1399,3423.8c1.3,0,2.2-0.6,2.2-1.6
			c0-1-0.9-1.6-2.2-1.6c-1.3,0-2.2,0.6-2.2,1.6C1396.8,3423.1,1397.7,3423.8,1399,3423.8z M1398.3,3428.8h8.3v1.1h-9.6v-4.1h1.3
			V3428.8z M1408,3420.6v1.1h-2.1v4.9h-1.3v-10.8h1.3v4.7H1408z"/>
		<path class="st3" d="M1422.5,3425.4h-5.9v4.8h-1.3v-4.8h-5.8v-1.1h13V3425.4z M1420.8,3422.6h-9.7v-6.2h1.3v2h7.1v-2h1.3V3422.6z
			 M1419.5,3419.4h-7.1v2.1h7.1V3419.4z"/>
		<path class="st3" d="M1433.2,3424.8c-3,0.6-6.5,0.6-9,0.6l-0.1-1.1c1.1,0,2.4,0,3.8-0.1v-1.1c-1.6-0.2-2.7-1-2.7-2.2
			c0-1.4,1.3-2.2,3.4-2.2c2,0,3.3,0.8,3.3,2.2c0,1.2-1,2-2.7,2.2v1c1.3-0.1,2.7-0.2,3.9-0.4L1433.2,3424.8z M1432.7,3418.2h-8.2v-1
			h3.5v-1.5h1.3v1.5h3.5V3418.2z M1427.5,3428.8h8.3v1.1h-9.6v-3.6h1.3V3428.8z M1428.6,3422.3c1.3,0,2.1-0.5,2.1-1.3
			c0-0.8-0.8-1.3-2.1-1.3c-1.3,0-2.1,0.5-2.1,1.3C1426.5,3421.8,1427.3,3422.3,1428.6,3422.3z M1437.4,3420.8v1.1h-2.1v5.1h-1.3
			v-11.2h1.3v5H1437.4z"/>
		<path class="st3" d="M1439.8,3420.9l1-1.7l-1.7-0.7l0.3-0.8l1.8,0.4l0.2-1.9h0.9l0.2,1.9l1.8-0.4l0.3,0.8l-1.7,0.7l1,1.7l-0.7,0.5
			l-1.3-1.5l-1.3,1.5L1439.8,3420.9z"/>
		<path class="st3" d="M1446.4,3431.2c1-0.4,1.6-1.2,1.6-2.2c-0.1,0-0.1,0-0.2,0c-0.6,0-1.1-0.4-1.1-1c0-0.6,0.5-1,1.1-1
			c0.8,0,1.2,0.7,1.2,1.7c0,1.5-0.9,2.7-2.3,3.3L1446.4,3431.2z"/>
		<path class="st3" d="M1462.1,3423.8c-1.6-0.5-2.9-1.7-3.5-3.1c-0.6,1.6-1.9,2.9-3.6,3.5l-0.7-1c2.2-0.8,3.6-2.6,3.6-4.7v-0.6h-3.2
			v-1.1h7.7v1.1h-3.2v0.6c0,1.9,1.4,3.6,3.5,4.3L1462.1,3423.8z M1465.7,3427.5c0,1.7-1.8,2.7-4.7,2.7c-2.9,0-4.7-1-4.7-2.7
			c0-1.7,1.8-2.6,4.7-2.6C1463.9,3424.9,1465.7,3425.8,1465.7,3427.5z M1464.4,3427.5c0-1-1.3-1.6-3.4-1.6c-2.1,0-3.4,0.6-3.4,1.6
			c0,1,1.3,1.6,3.4,1.6C1463.1,3429.1,1464.4,3428.5,1464.4,3427.5z M1467.7,3419.5v1.1h-2.1v3.9h-1.3v-8.7h1.3v3.6H1467.7z"/>
		<path class="st3" d="M1476,3419.5c-0.9,2.3-3.1,4-6.2,4.9l-0.5-1c3.4-1,5.6-2.9,5.8-5.4h-5.1v-1.1h6.5c0,0.5-0.1,1.1-0.2,1.6h3.2
			v-2.6h1.3v8.6h-1.3v-1.9h-3.8v-1.1h3.8v-1.9H1476z M1481,3427.4c0,1.7-1.9,2.8-4.8,2.8c-2.9,0-4.8-1-4.8-2.8s1.9-2.8,4.8-2.8
			C1479.2,3424.6,1481,3425.6,1481,3427.4z M1479.7,3427.4c0-1.1-1.3-1.7-3.5-1.7c-2.1,0-3.5,0.7-3.5,1.7c0,1.1,1.3,1.7,3.5,1.7
			C1478.4,3429.1,1479.7,3428.4,1479.7,3427.4z"/>
		<path class="st3" d="M1492.9,3424.8c-3,0.6-6.5,0.6-9,0.6l-0.1-1.1c1.1,0,2.4,0,3.8-0.1v-1.1c-1.6-0.2-2.7-1-2.7-2.2
			c0-1.4,1.3-2.2,3.4-2.2c2,0,3.3,0.8,3.3,2.2c0,1.2-1,2-2.7,2.2v1c1.3-0.1,2.7-0.2,3.9-0.4L1492.9,3424.8z M1492.4,3418.2h-8.2v-1
			h3.5v-1.5h1.3v1.5h3.5V3418.2z M1487.2,3428.8h8.3v1.1h-9.6v-3.6h1.3V3428.8z M1488.3,3422.3c1.3,0,2.1-0.5,2.1-1.3
			c0-0.8-0.8-1.3-2.1-1.3c-1.3,0-2.1,0.5-2.1,1.3C1486.2,3421.8,1487,3422.3,1488.3,3422.3z M1497.1,3420.8v1.1h-2.1v5.1h-1.3v-11.2
			h1.3v5H1497.1z"/>
		<path class="st3" d="M1498.6,3431.2c1-0.4,1.6-1.2,1.6-2.2c-0.1,0-0.1,0-0.2,0c-0.6,0-1.1-0.4-1.1-1c0-0.6,0.5-1,1.1-1
			c0.8,0,1.2,0.7,1.2,1.7c0,1.5-0.9,2.7-2.3,3.3L1498.6,3431.2z"/>
		<path class="st3" d="M1510.6,3423.9c-2.1,0-3.7-1.5-3.7-3.5c0-2.1,1.6-3.5,3.7-3.5s3.7,1.5,3.7,3.5
			C1514.4,3422.5,1512.8,3423.9,1510.6,3423.9z M1510.6,3422.8c1.4,0,2.5-1,2.5-2.4c0-1.4-1.1-2.4-2.5-2.4s-2.5,1-2.5,2.4
			C1508.2,3421.8,1509.2,3422.8,1510.6,3422.8z M1510.1,3428.8h8.3v1.1h-9.6v-4.5h1.3V3428.8z M1519.9,3420.2v1.1h-2.1v5.1h-1.3
			v-10.6h1.3v4.4H1519.9z"/>
		<path class="st3" d="M1528.7,3417.2v9.3h-6.6v-9.3H1528.7z M1523.4,3418.3v7.2h4v-7.2H1523.4z M1533.1,3415.8v14.4h-1.3v-14.4
			H1533.1z"/>
		<path class="st3" d="M1543.9,3423.8c-1.6-0.6-2.8-1.8-3.5-3.2c-0.6,1.7-1.9,3-3.6,3.6l-0.7-1c2.1-0.8,3.6-2.7,3.6-4.8v-0.5h-3.2
			v-1.1h7.7v1.1h-3.2v0.5c0,1.8,1.4,3.6,3.5,4.4L1543.9,3423.8z M1547.9,3427.5c0,1.7-1.8,2.7-4.8,2.7s-4.8-1-4.8-2.7
			c0-1.7,1.8-2.7,4.8-2.7S1547.9,3425.8,1547.9,3427.5z M1546.6,3427.5c0-1-1.3-1.7-3.5-1.7c-2.2,0-3.5,0.6-3.5,1.7
			c0,1,1.3,1.6,3.5,1.6C1545.3,3429.2,1546.6,3428.6,1546.6,3427.5z M1546.5,3419.6v-3.7h1.3v8.5h-1.3v-3.8h-2.8v-1.1H1546.5z"/>
		<path class="st3" d="M1550.8,3431.2c1-0.4,1.6-1.2,1.6-2.2c-0.1,0-0.1,0-0.2,0c-0.6,0-1.1-0.4-1.1-1c0-0.6,0.5-1,1.1-1
			c0.8,0,1.2,0.7,1.2,1.7c0,1.5-0.9,2.7-2.3,3.3L1550.8,3431.2z"/>
		<path class="st3" d="M1566.1,3416.9c0,3.6-2.5,6.3-6.7,7.6l-0.5-1.1c3.4-1,5.6-3,5.8-5.4h-5.2v-1.1H1566.1z M1570.1,3427.4
			c0,1.7-1.8,2.8-4.7,2.8c-2.8,0-4.7-1.1-4.7-2.8c0-1.7,1.8-2.8,4.7-2.8C1568.3,3424.6,1570.1,3425.6,1570.1,3427.4z M1568.8,3427.4
			c0-1.1-1.3-1.8-3.4-1.8c-2.1,0-3.4,0.7-3.4,1.8c0,1.1,1.3,1.7,3.4,1.7C1567.5,3429.1,1568.8,3428.5,1568.8,3427.4z M1572.1,3419.5
			v1.1h-2.1v3.8h-1.3v-8.6h1.3v3.7H1572.1z"/>
		<path class="st3" d="M1581.6,3424.3c-1.6-0.6-3-1.8-3.6-3.3c-0.6,1.6-1.9,2.9-3.6,3.5l-0.7-1c2.2-0.8,3.6-2.6,3.6-4.7v-0.8h-3.3
			v-1.1h7.9v1.1h-3.2v0.8c0,1.9,1.5,3.7,3.6,4.4L1581.6,3424.3z M1585.7,3428.8v1.1h-9.7v-4.5h1.3v3.4H1585.7z M1585.3,3426.3h-1.3
			v-10.5h1.3V3426.3z"/>
		<path class="st3" d="M1595.7,3421.9c0,3.1-1.5,5-3.6,5c-2.1,0-3.6-2-3.6-5c0-3.1,1.5-5,3.6-5
			C1594.2,3416.9,1595.7,3418.9,1595.7,3421.9z M1594.4,3421.9c0-2.3-1-3.8-2.4-3.8c-1.4,0-2.4,1.5-2.4,3.8c0,2.3,1,3.8,2.4,3.8
			C1593.4,3425.8,1594.4,3424.3,1594.4,3421.9z M1601.6,3422.7h-2.4v7.5h-1.3v-14.3h1.3v5.7h2.4V3422.7z"/>
	</g>
	<g class="st1">
		<path class="st3" d="M1407,3482.6h-8.5v-1.1h3.6v-1.8h1.3v1.8h3.6V3482.6z M1402.8,3488.8c-2,0-3.4-1.1-3.4-2.7
			c0-1.6,1.4-2.7,3.4-2.7c2,0,3.4,1.1,3.4,2.7C1406.2,3487.7,1404.8,3488.8,1402.8,3488.8z M1402.8,3487.8c1.3,0,2.2-0.6,2.2-1.6
			c0-1-0.9-1.6-2.2-1.6c-1.3,0-2.2,0.6-2.2,1.6C1400.6,3487.1,1401.5,3487.8,1402.8,3487.8z M1402,3492.8h8.3v1.1h-9.6v-4.1h1.3
			V3492.8z M1411.7,3484.6v1.1h-2.1v4.9h-1.3v-10.8h1.3v4.7H1411.7z"/>
		<path class="st3" d="M1426.2,3489.4h-5.9v4.8h-1.3v-4.8h-5.8v-1.1h13V3489.4z M1424.6,3486.6h-9.7v-6.2h1.3v2h7.1v-2h1.3V3486.6z
			 M1423.3,3483.4h-7.1v2.1h7.1V3483.4z"/>
		<path class="st3" d="M1437,3488.8c-3,0.6-6.5,0.6-9,0.6l-0.1-1.1c1.1,0,2.4,0,3.8-0.1v-1.1c-1.6-0.2-2.7-1-2.7-2.2
			c0-1.4,1.3-2.2,3.4-2.2c2,0,3.3,0.8,3.3,2.2c0,1.2-1,2-2.7,2.2v1c1.3-0.1,2.7-0.2,3.9-0.4L1437,3488.8z M1436.5,3482.2h-8.2v-1
			h3.5v-1.5h1.3v1.5h3.5V3482.2z M1431.3,3492.8h8.3v1.1h-9.6v-3.6h1.3V3492.8z M1432.3,3486.3c1.3,0,2.1-0.5,2.1-1.3
			c0-0.8-0.8-1.3-2.1-1.3c-1.3,0-2.1,0.5-2.1,1.3C1430.2,3485.8,1431,3486.3,1432.3,3486.3z M1441.1,3484.8v1.1h-2.1v5.1h-1.3v-11.2
			h1.3v5H1441.1z"/>
		<path class="st3" d="M1442.6,3495.2c1-0.4,1.6-1.2,1.6-2.2c-0.1,0-0.1,0-0.2,0c-0.6,0-1.1-0.4-1.1-1c0-0.6,0.5-1,1.1-1
			c0.8,0,1.2,0.7,1.2,1.7c0,1.5-0.9,2.7-2.3,3.3L1442.6,3495.2z"/>
		<path class="st3" d="M1458.4,3487.8c-1.6-0.5-2.9-1.7-3.5-3.1c-0.6,1.6-1.9,2.9-3.6,3.5l-0.7-1c2.2-0.8,3.6-2.6,3.6-4.7v-0.6h-3.2
			v-1.1h7.7v1.1h-3.2v0.6c0,1.9,1.4,3.6,3.5,4.3L1458.4,3487.8z M1462,3491.5c0,1.7-1.8,2.7-4.7,2.7c-2.9,0-4.7-1-4.7-2.7
			c0-1.7,1.8-2.6,4.7-2.6C1460.2,3488.9,1462,3489.8,1462,3491.5z M1460.7,3491.5c0-1-1.3-1.6-3.4-1.6c-2.1,0-3.4,0.6-3.4,1.6
			c0,1,1.3,1.6,3.4,1.6C1459.4,3493.1,1460.7,3492.5,1460.7,3491.5z M1463.9,3483.5v1.1h-2.1v3.9h-1.3v-8.7h1.3v3.6H1463.9z"/>
		<path class="st3" d="M1472.3,3483.5c-0.9,2.3-3.1,4-6.2,4.9l-0.5-1c3.4-1,5.6-2.9,5.8-5.4h-5.1v-1.1h6.5c0,0.5-0.1,1.1-0.2,1.6
			h3.2v-2.6h1.3v8.6h-1.3v-1.9h-3.8v-1.1h3.8v-1.9H1472.3z M1477.3,3491.4c0,1.7-1.9,2.8-4.8,2.8s-4.8-1-4.8-2.8s1.9-2.8,4.8-2.8
			S1477.3,3489.6,1477.3,3491.4z M1476,3491.4c0-1.1-1.3-1.7-3.5-1.7c-2.1,0-3.5,0.7-3.5,1.7c0,1.1,1.3,1.7,3.5,1.7
			C1474.6,3493.1,1476,3492.4,1476,3491.4z"/>
		<path class="st3" d="M1489.2,3488.8c-3,0.6-6.5,0.6-9,0.6l-0.1-1.1c1.1,0,2.4,0,3.8-0.1v-1.1c-1.6-0.2-2.7-1-2.7-2.2
			c0-1.4,1.3-2.2,3.4-2.2c2,0,3.3,0.8,3.3,2.2c0,1.2-1,2-2.7,2.2v1c1.3-0.1,2.7-0.2,3.9-0.4L1489.2,3488.8z M1488.6,3482.2h-8.2v-1
			h3.5v-1.5h1.3v1.5h3.5V3482.2z M1483.5,3492.8h8.3v1.1h-9.6v-3.6h1.3V3492.8z M1484.5,3486.3c1.3,0,2.1-0.5,2.1-1.3
			c0-0.8-0.8-1.3-2.1-1.3c-1.3,0-2.1,0.5-2.1,1.3C1482.4,3485.8,1483.2,3486.3,1484.5,3486.3z M1493.3,3484.8v1.1h-2.1v5.1h-1.3
			v-11.2h1.3v5H1493.3z"/>
		<path class="st3" d="M1494.8,3495.2c1-0.4,1.6-1.2,1.6-2.2c-0.1,0-0.1,0-0.2,0c-0.6,0-1.1-0.4-1.1-1c0-0.6,0.5-1,1.1-1
			c0.8,0,1.2,0.7,1.2,1.7c0,1.5-0.9,2.7-2.3,3.3L1494.8,3495.2z"/>
		<path class="st3" d="M1506.9,3487.9c-2.1,0-3.7-1.5-3.7-3.5c0-2.1,1.6-3.5,3.7-3.5s3.7,1.5,3.7,3.5
			C1510.6,3486.5,1509,3487.9,1506.9,3487.9z M1506.9,3486.8c1.4,0,2.5-1,2.5-2.4c0-1.4-1.1-2.4-2.5-2.4s-2.5,1-2.5,2.4
			C1504.4,3485.8,1505.5,3486.8,1506.9,3486.8z M1506.4,3492.8h8.3v1.1h-9.6v-4.5h1.3V3492.8z M1516.1,3484.2v1.1h-2.1v5.1h-1.3
			v-10.6h1.3v4.4H1516.1z"/>
		<path class="st3" d="M1525,3481.2v9.3h-6.6v-9.3H1525z M1519.7,3482.3v7.2h4v-7.2H1519.7z M1529.3,3479.8v14.4h-1.3v-14.4H1529.3z
			"/>
		<path class="st3" d="M1540.1,3487.8c-1.6-0.6-2.8-1.8-3.5-3.2c-0.6,1.7-1.9,3-3.6,3.6l-0.7-1c2.1-0.8,3.6-2.7,3.6-4.8v-0.5h-3.2
			v-1.1h7.7v1.1h-3.2v0.5c0,1.8,1.4,3.6,3.5,4.4L1540.1,3487.8z M1544.2,3491.5c0,1.7-1.8,2.7-4.8,2.7c-2.9,0-4.8-1-4.8-2.7
			c0-1.7,1.8-2.7,4.8-2.7C1542.3,3488.8,1544.2,3489.8,1544.2,3491.5z M1542.9,3491.5c0-1-1.3-1.7-3.5-1.7c-2.2,0-3.5,0.6-3.5,1.7
			c0,1,1.3,1.6,3.5,1.6C1541.6,3493.2,1542.9,3492.6,1542.9,3491.5z M1542.8,3483.6v-3.7h1.3v8.5h-1.3v-3.8h-2.8v-1.1H1542.8z"/>
		<path class="st3" d="M1547,3495.2c1-0.4,1.6-1.2,1.6-2.2c-0.1,0-0.1,0-0.2,0c-0.6,0-1.1-0.4-1.1-1c0-0.6,0.5-1,1.1-1
			c0.8,0,1.2,0.7,1.2,1.7c0,1.5-0.9,2.7-2.3,3.3L1547,3495.2z"/>
		<path class="st3" d="M1562.3,3480.9c0,3.6-2.5,6.3-6.7,7.6l-0.5-1.1c3.4-1,5.6-3,5.8-5.4h-5.2v-1.1H1562.3z M1566.4,3491.4
			c0,1.7-1.8,2.8-4.7,2.8c-2.8,0-4.7-1.1-4.7-2.8c0-1.7,1.8-2.8,4.7-2.8C1564.5,3488.6,1566.4,3489.6,1566.4,3491.4z M1565.1,3491.4
			c0-1.1-1.3-1.8-3.4-1.8c-2.1,0-3.4,0.7-3.4,1.8c0,1.1,1.3,1.7,3.4,1.7C1563.8,3493.1,1565.1,3492.5,1565.1,3491.4z M1568.3,3483.5
			v1.1h-2.1v3.8h-1.3v-8.6h1.3v3.7H1568.3z"/>
		<path class="st3" d="M1577.9,3488.3c-1.6-0.6-3-1.8-3.6-3.3c-0.6,1.6-1.9,2.9-3.6,3.5l-0.7-1c2.2-0.8,3.6-2.6,3.6-4.7v-0.8h-3.3
			v-1.1h7.9v1.1h-3.2v0.8c0,1.9,1.5,3.7,3.6,4.4L1577.9,3488.3z M1582,3492.8v1.1h-9.7v-4.5h1.3v3.4H1582z M1581.6,3490.3h-1.3
			v-10.5h1.3V3490.3z"/>
		<path class="st3" d="M1591.9,3485.9c0,3.1-1.5,5-3.6,5c-2.1,0-3.6-2-3.6-5c0-3.1,1.5-5,3.6-5
			C1590.4,3480.9,1591.9,3482.9,1591.9,3485.9z M1590.7,3485.9c0-2.3-1-3.8-2.4-3.8c-1.4,0-2.4,1.5-2.4,3.8c0,2.3,1,3.8,2.4,3.8
			C1589.7,3489.8,1590.7,3488.3,1590.7,3485.9z M1597.9,3486.7h-2.4v7.5h-1.3v-14.3h1.3v5.7h2.4V3486.7z"/>
	</g>
	<g class="st1">
		<path class="st3" d="M764.9,3156.5c-0.9,2.3-3.1,4-6.2,4.9l-0.5-1c3.4-1,5.6-2.9,5.8-5.4H759v-1.1h6.5c0,0.5-0.1,1.1-0.2,1.6h3.2
			v-2.6h1.3v8.6h-1.3v-1.9h-3.8v-1.1h3.8v-1.9H764.9z M769.9,3164.4c0,1.7-1.9,2.8-4.8,2.8c-2.9,0-4.8-1-4.8-2.8s1.9-2.8,4.8-2.8
			C768.1,3161.6,769.9,3162.6,769.9,3164.4z M768.6,3164.4c0-1.1-1.3-1.7-3.5-1.7s-3.5,0.7-3.5,1.7c0,1.1,1.3,1.7,3.5,1.7
			S768.6,3165.4,768.6,3164.4z"/>
		<path class="st3" d="M779.6,3159.3c-0.7,0.8-1.7,1.2-2.9,1.2c-2.1,0-3.7-1.4-3.7-3.4c0-2,1.6-3.4,3.7-3.4c1.2,0,2.2,0.5,2.9,1.2
			h3.7v-2.1h1.3v8.5h-1.3v-2H779.6z M776.7,3159.4c1.4,0,2.4-1,2.4-2.3c0-1.3-1-2.3-2.4-2.3c-1.4,0-2.4,1-2.4,2.3
			C774.2,3158.4,775.3,3159.4,776.7,3159.4z M784.6,3164.4c0,1.7-1.8,2.8-4.8,2.8c-2.9,0-4.8-1-4.8-2.8c0-1.7,1.8-2.8,4.8-2.8
			C782.8,3161.7,784.6,3162.7,784.6,3164.4z M783.3,3164.4c0-1.1-1.3-1.7-3.5-1.7c-2.2,0-3.5,0.6-3.5,1.7c0,1.1,1.3,1.7,3.5,1.7
			C782,3166.1,783.3,3165.5,783.3,3164.4z M780.2,3156c0.1,0.3,0.2,0.7,0.2,1.1c0,0.4-0.1,0.8-0.2,1.1h3.1v-2.2H780.2z"/>
		<path class="st3" d="M797,3161.1c-1.4,0.2-2.8,0.4-4.1,0.5v5.2h-1.3v-5.1c-1.4,0.1-2.8,0.1-4,0.1l-0.2-1.1c2.7,0,6.3,0,9.5-0.5
			L797,3161.1z M788.5,3156.5c0-1.8,1.5-3,3.7-3c2.1,0,3.6,1.2,3.6,3c0,1.7-1.5,2.9-3.6,2.9C790,3159.4,788.5,3158.2,788.5,3156.5z
			 M789.8,3156.5c0,1.1,1,1.9,2.4,1.9c1.4,0,2.4-0.8,2.4-1.9c0-1.1-1-1.9-2.4-1.9C790.8,3154.6,789.8,3155.3,789.8,3156.5z
			 M799.2,3152.8v14.4h-1.3v-14.4H799.2z"/>
		<path class="st3" d="M806.3,3160.5c-1.4,0.1-2.8,0.1-4,0.1l-0.2-1.1c2.7,0,6.2,0,9.3-0.4l0.1,0.9c-1.3,0.2-2.6,0.3-3.9,0.4v2.8
			h-1.3V3160.5z M803.2,3155.9c0-1.5,1.4-2.5,3.5-2.5c2.1,0,3.5,1,3.5,2.5c0,1.5-1.4,2.5-3.5,2.5
			C804.7,3158.4,803.2,3157.4,803.2,3155.9z M814.3,3165.8v1.1h-10.1v-4.2h1.3v3.1H814.3z M804.5,3155.9c0,0.9,0.9,1.5,2.3,1.5
			c1.4,0,2.3-0.6,2.3-1.5c0-0.9-0.9-1.5-2.3-1.5C805.4,3154.4,804.5,3155,804.5,3155.9z M812.6,3161.3v-8.5h1.3v10.9h-1.3v-1.5h-2.9
			v-1H812.6z"/>
		<path class="st3" d="M822.3,3163.2c1.4-0.1,2.8-0.2,4.1-0.3l0.1,1c-3.2,0.5-6.7,0.6-9.3,0.6l-0.2-1.1c1.2,0,2.6,0,4-0.1v-1.5
			c-1.7-0.2-2.8-1.2-2.8-2.6c0-1.6,1.4-2.7,3.5-2.7s3.4,1,3.4,2.7c0,1.4-1.1,2.4-2.8,2.6V3163.2z M826,3155.6h-8.7v-1.1h3.7v-1.8
			h1.3v1.8h3.7V3155.6z M821.7,3160.8c1.3,0,2.2-0.6,2.2-1.6c0-1-0.9-1.6-2.2-1.6c-1.3,0-2.2,0.6-2.2,1.6
			C819.5,3160.1,820.4,3160.8,821.7,3160.8z M828.6,3152.8v14.4h-1.3v-14.4H828.6z"/>
	</g>
	<g class="st1">
		<path class="st3" d="M765.3,3349.2c0,3.6-2.5,6.2-6.8,7.4l-0.5-1c3.5-0.9,5.6-2.8,5.9-5.3h-5.2v-1.1H765.3z M760.1,3357.1h9v5.3
			h-9V3357.1z M761.4,3361.4h6.5v-3.2h-6.5V3361.4z M771.3,3352.9h-2.1v3.6h-1.3v-8.2h1.3v3.5h2.1V3352.9z"/>
		<path class="st3" d="M777.6,3352.2c0,2.5,1.6,5.1,3.6,6.1l-0.8,1c-1.5-0.8-2.8-2.5-3.5-4.5c-0.6,2.1-2,3.9-3.6,4.8l-0.8-1.1
			c2.1-1.1,3.7-3.8,3.7-6.4v-2.6h1.3V3352.2z M786.2,3355.2h-2.4v7.4h-1.3v-14.3h1.3v5.8h2.4V3355.2z"/>
		<path class="st3" d="M797,3356.6c-1.4,0.2-2.8,0.4-4.1,0.5v5.2h-1.3v-5.1c-1.4,0.1-2.8,0.1-4,0.1l-0.2-1.1c2.7,0,6.3,0,9.5-0.5
			L797,3356.6z M788.5,3352c0-1.8,1.5-3,3.7-3c2.1,0,3.6,1.2,3.6,3c0,1.7-1.5,2.9-3.6,2.9C790,3354.9,788.5,3353.7,788.5,3352z
			 M789.8,3352c0,1.1,1,1.9,2.4,1.9c1.4,0,2.4-0.8,2.4-1.9c0-1.1-1-1.9-2.4-1.9C790.8,3350.1,789.8,3350.8,789.8,3352z
			 M799.2,3348.3v14.4h-1.3v-14.4H799.2z"/>
		<path class="st3" d="M806.3,3356c-1.4,0.1-2.8,0.1-4,0.1l-0.2-1.1c2.7,0,6.2,0,9.3-0.4l0.1,0.9c-1.3,0.2-2.6,0.3-3.9,0.4v2.8h-1.3
			V3356z M803.2,3351.4c0-1.5,1.4-2.5,3.5-2.5c2.1,0,3.5,1,3.5,2.5c0,1.5-1.4,2.5-3.5,2.5C804.7,3353.9,803.2,3352.9,803.2,3351.4z
			 M814.3,3361.3v1.1h-10.1v-4.2h1.3v3.1H814.3z M804.5,3351.4c0,0.9,0.9,1.5,2.3,1.5c1.4,0,2.3-0.6,2.3-1.5c0-0.9-0.9-1.5-2.3-1.5
			C805.4,3349.9,804.5,3350.5,804.5,3351.4z M812.6,3356.8v-8.5h1.3v10.9h-1.3v-1.5h-2.9v-1H812.6z"/>
		<path class="st3" d="M822.3,3358.7c1.4-0.1,2.8-0.2,4.1-0.3l0.1,1c-3.2,0.5-6.7,0.6-9.3,0.6l-0.2-1.1c1.2,0,2.6,0,4-0.1v-1.5
			c-1.7-0.2-2.8-1.2-2.8-2.6c0-1.6,1.4-2.7,3.5-2.7s3.4,1,3.4,2.7c0,1.4-1.1,2.4-2.8,2.6V3358.7z M826,3351.1h-8.7v-1.1h3.7v-1.8
			h1.3v1.8h3.7V3351.1z M821.7,3356.3c1.3,0,2.2-0.6,2.2-1.6c0-1-0.9-1.6-2.2-1.6c-1.3,0-2.2,0.6-2.2,1.6
			C819.5,3355.6,820.4,3356.3,821.7,3356.3z M828.6,3348.3v14.4h-1.3v-14.4H828.6z"/>
	</g>
	<g class="st1">
		<path class="st3" d="M762.8,3222.7c0,2.5,1.6,5.1,3.6,6.1l-0.8,1c-1.5-0.8-2.8-2.5-3.5-4.5c-0.6,2.1-2,3.9-3.6,4.8l-0.8-1.1
			c2.1-1.1,3.7-3.8,3.7-6.4v-2.6h1.3V3222.7z M771.4,3225.7h-2.4v7.4h-1.3v-14.3h1.3v5.8h2.4V3225.7z"/>
		<path class="st3" d="M778,3228.9c1.4-0.1,2.8-0.2,4.1-0.4l0.1,1c-3.2,0.6-6.7,0.6-9.3,0.6l-0.2-1.1c1.2,0,2.5,0,3.9,0v-2.5
			c-1.9-0.2-3.2-1.5-3.2-3.3c0-2,1.6-3.4,3.8-3.4c2.3,0,3.9,1.4,3.9,3.4c0,1.8-1.3,3.1-3.2,3.3V3228.9z M777.4,3225.4
			c1.5,0,2.6-0.9,2.6-2.3c0-1.3-1.1-2.2-2.6-2.2c-1.5,0-2.5,0.9-2.5,2.2C774.8,3224.5,775.9,3225.4,777.4,3225.4z M784.4,3218.8
			v14.4h-1.3v-14.4H784.4z"/>
		<path class="st3" d="M795.3,3224.9c0,3.1-1.5,5-3.6,5s-3.6-2-3.6-5c0-3.1,1.5-5,3.6-5S795.3,3221.9,795.3,3224.9z M789.2,3224.9
			c0,2.3,1,3.8,2.4,3.8c1.4,0,2.4-1.5,2.4-3.8c0-2.3-1-3.8-2.4-3.8C790.2,3221.1,789.2,3222.6,789.2,3224.9z M799.2,3218.8v14.4
			h-1.3v-14.4H799.2z"/>
		<path class="st3" d="M807,3222.7c0,2.5,1.6,5.1,3.6,6.1l-0.8,1c-1.5-0.8-2.8-2.5-3.5-4.5c-0.6,2.1-2,3.9-3.6,4.8l-0.8-1.1
			c2.1-1.1,3.7-3.8,3.7-6.4v-2.6h1.3V3222.7z M815.6,3225.7h-2.4v7.4h-1.3v-14.3h1.3v5.8h2.4V3225.7z"/>
		<path class="st3" d="M829.9,3229.2h-5.9v4h-1.3v-4h-5.8v-1.1h13V3229.2z M829.1,3221.5h-11.5v-1.1h5.2v-1.7h1.3v1.7h5.1V3221.5z
			 M823.4,3222.3c2.9,0,4.6,0.9,4.6,2.4c0,1.5-1.7,2.4-4.6,2.4c-2.9,0-4.7-0.8-4.7-2.4C818.7,3223.2,820.5,3222.3,823.4,3222.3z
			 M823.4,3223.4c-2.1,0-3.3,0.5-3.3,1.4c0,0.9,1.2,1.4,3.3,1.4c2.1,0,3.3-0.5,3.3-1.4C826.7,3223.9,825.5,3223.4,823.4,3223.4z"/>
		<path class="st3" d="M844.6,3230.3v1.1h-13v-1.1h5.8v-3.1h-4.3v-7.3h1.3v2.6h7.3v-2.6h1.3v7.3h-4.3v3.1H844.6z M834.5,3226.1h7.3
			v-2.6h-7.3V3226.1z"/>
		<path class="st3" d="M859.3,3228.6h-5.8v4.6h-1.3v-4.6h-5.8v-1.1h13V3228.6z M847.2,3225.4c2.6-0.4,5-1.9,5-3.7h-4.6v-1.1h4.6
			v-1.8h1.3v1.8h4.6v1.1h-4.6c0,1.8,2.4,3.3,5,3.7l-0.5,1.1c-2.2-0.3-4.3-1.4-5.2-3c-0.9,1.6-3,2.7-5.2,3L847.2,3225.4z"/>
		<path class="st3" d="M868.9,3227.5c-1.6-0.5-2.9-1.7-3.6-3.1c-0.6,1.6-1.9,2.8-3.6,3.4l-0.7-1c2.1-0.7,3.6-2.5,3.6-4.5v-0.4h-3.2
			v-1.1h3.2v-1.8h1.3v1.8h3.2v1.1H866v0.4c0,1.9,1.5,3.6,3.6,4.2L868.9,3227.5z M873.3,3231.8v1.1h-9.6v-4.3h1.3v3.2H873.3z
			 M871.6,3223.2v-4.4h1.3v10.7h-1.3v-5.2h-2.9v-1.1H871.6z"/>
		<path class="st3" d="M885.3,3227.1c-1.4,0.2-2.8,0.4-4.1,0.5v5.2h-1.3v-5.1c-1.4,0.1-2.8,0.1-4,0.1l-0.2-1.1c2.7,0,6.3,0,9.5-0.5
			L885.3,3227.1z M876.8,3222.5c0-1.8,1.5-3,3.7-3c2.1,0,3.6,1.2,3.6,3c0,1.7-1.5,2.9-3.6,2.9
			C878.4,3225.4,876.8,3224.2,876.8,3222.5z M878.1,3222.5c0,1.1,1,1.9,2.4,1.9c1.4,0,2.4-0.8,2.4-1.9c0-1.1-1-1.9-2.4-1.9
			C879.1,3220.6,878.1,3221.3,878.1,3222.5z M887.6,3218.8v14.4h-1.3v-14.4H887.6z"/>
		<path class="st3" d="M894.6,3226.5c-1.4,0.1-2.8,0.1-4,0.1l-0.2-1.1c2.7,0,6.2,0,9.3-0.4l0.1,0.9c-1.3,0.2-2.6,0.3-3.9,0.4v2.8
			h-1.3V3226.5z M891.6,3221.9c0-1.5,1.4-2.5,3.5-2.5c2.1,0,3.5,1,3.5,2.5c0,1.5-1.4,2.5-3.5,2.5
			C893,3224.4,891.6,3223.4,891.6,3221.9z M902.6,3231.8v1.1h-10.1v-4.2h1.3v3.1H902.6z M892.8,3221.9c0,0.9,0.9,1.5,2.3,1.5
			c1.4,0,2.3-0.6,2.3-1.5c0-0.9-0.9-1.5-2.3-1.5C893.7,3220.4,892.8,3221,892.8,3221.9z M900.9,3227.3v-8.5h1.3v10.9h-1.3v-1.5H898
			v-1H900.9z"/>
		<path class="st3" d="M910.6,3229.2c1.4-0.1,2.8-0.2,4.1-0.3l0.1,1c-3.2,0.5-6.7,0.6-9.3,0.6l-0.2-1.1c1.2,0,2.6,0,4-0.1v-1.5
			c-1.7-0.2-2.8-1.2-2.8-2.6c0-1.6,1.4-2.7,3.5-2.7s3.4,1,3.4,2.7c0,1.4-1.1,2.4-2.8,2.6V3229.2z M914.3,3221.6h-8.7v-1.1h3.7v-1.8
			h1.3v1.8h3.7V3221.6z M910,3226.8c1.3,0,2.2-0.6,2.2-1.6c0-1-0.9-1.6-2.2-1.6c-1.3,0-2.2,0.6-2.2,1.6
			C907.8,3226.1,908.7,3226.8,910,3226.8z M916.9,3218.8v14.4h-1.3v-14.4H916.9z"/>
	</g>
	<g class="st1">
		<path class="st3" d="M760,3423.3c1.4,0,2.9-0.1,4.6-0.4l0.1,1.1c-1.9,0.4-3.6,0.4-5.1,0.4h-0.9v-8.9h1.3V3423.3z M770.2,3413.8
			v14.3h-1.3v-7.4h-2v6.7h-1.2v-13.3h1.2v5.5h2v-5.8H770.2z"/>
		<path class="st3" d="M785.8,3423.4h-5.9v4.8h-1.3v-4.8h-5.8v-1.1h13V3423.4z M784.1,3420.6h-9.7v-6.2h1.3v2h7.1v-2h1.3V3420.6z
			 M782.8,3417.4h-7.1v2.1h7.1V3417.4z"/>
		<path class="st3" d="M794.6,3415.4c0,4.1-1.7,7.7-6.5,10.1l-0.7-1c3.9-1.9,5.6-4.6,5.9-8h-5.2v-1.1H794.6z M799.3,3413.8v14.3H798
			v-7.5h-3.4v-1.1h3.4v-5.7H799.3z"/>
		<path class="st3" d="M803.9,3423.7c1.6,0,3.1-0.1,5-0.4l0.1,1.1c-2,0.3-3.6,0.4-5.4,0.4h-0.9v-5.4h4.1v-2.9h-4.1v-1.1h5.4v5h-4.1
			V3423.7z M814.4,3413.8v14.3h-1.3v-7.6h-2v6.9h-1.2v-13.3h1.2v5.3h2v-5.7H814.4z"/>
		<path class="st3" d="M826.4,3422.1c-1.4,0.2-2.8,0.4-4.1,0.5v5.2H821v-5.1c-1.4,0.1-2.8,0.1-4,0.1l-0.2-1.1c2.7,0,6.3,0,9.5-0.5
			L826.4,3422.1z M817.9,3417.5c0-1.8,1.5-3,3.7-3c2.1,0,3.6,1.2,3.6,3c0,1.7-1.5,2.9-3.6,2.9
			C819.5,3420.4,817.9,3419.2,817.9,3417.5z M819.2,3417.5c0,1.1,1,1.9,2.4,1.9c1.4,0,2.4-0.8,2.4-1.9c0-1.1-1-1.9-2.4-1.9
			C820.2,3415.6,819.2,3416.3,819.2,3417.5z M828.7,3413.8v14.4h-1.3v-14.4H828.7z"/>
		<path class="st3" d="M835.7,3421.5c-1.4,0.1-2.8,0.1-4,0.1l-0.2-1.1c2.7,0,6.2,0,9.3-0.4l0.1,0.9c-1.3,0.2-2.6,0.3-3.9,0.4v2.8
			h-1.3V3421.5z M832.7,3416.9c0-1.5,1.4-2.5,3.5-2.5c2.1,0,3.5,1,3.5,2.5c0,1.5-1.4,2.5-3.5,2.5
			C834.1,3419.4,832.7,3418.4,832.7,3416.9z M843.7,3426.8v1.1h-10.1v-4.2h1.3v3.1H843.7z M833.9,3416.9c0,0.9,0.9,1.5,2.3,1.5
			c1.4,0,2.3-0.6,2.3-1.5c0-0.9-0.9-1.5-2.3-1.5C834.9,3415.4,833.9,3416,833.9,3416.9z M842.1,3422.3v-8.5h1.3v10.9h-1.3v-1.5h-2.9
			v-1H842.1z"/>
		<path class="st3" d="M851.8,3424.2c1.4-0.1,2.8-0.2,4.1-0.3l0.1,1c-3.2,0.5-6.7,0.6-9.3,0.6l-0.2-1.1c1.2,0,2.6,0,4-0.1v-1.5
			c-1.7-0.2-2.8-1.2-2.8-2.6c0-1.6,1.4-2.7,3.5-2.7s3.4,1,3.4,2.7c0,1.4-1.1,2.4-2.8,2.6V3424.2z M855.5,3416.6h-8.7v-1.1h3.7v-1.8
			h1.3v1.8h3.7V3416.6z M851.1,3421.8c1.3,0,2.2-0.6,2.2-1.6c0-1-0.9-1.6-2.2-1.6c-1.3,0-2.2,0.6-2.2,1.6
			C848.9,3421.1,849.8,3421.8,851.1,3421.8z M858.1,3413.8v14.4h-1.3v-14.4H858.1z"/>
	</g>
	<g class="st1">
		<path class="st3" d="M758.8,3481.3h6.8v1.3h-5.3v3.7h4.4v1.3h-4.4v4.3h5.5v1.3h-6.9V3481.3z"/>
		<path class="st3" d="M767.3,3491.5l0.9-1c0.8,0.9,2,1.5,3.2,1.5c1.5,0,2.5-0.8,2.5-1.9c0-1.2-0.8-1.6-2-2.1l-1.7-0.7
			c-1.1-0.5-2.4-1.3-2.4-3c0-1.8,1.6-3.1,3.7-3.1c1.4,0,2.6,0.6,3.5,1.5l-0.8,0.9c-0.7-0.7-1.6-1.1-2.7-1.1c-1.3,0-2.2,0.7-2.2,1.7
			c0,1.1,1,1.6,1.9,2l1.7,0.7c1.4,0.6,2.4,1.4,2.4,3.1c0,1.9-1.5,3.3-4,3.3C769.8,3493.2,768.4,3492.5,767.3,3491.5z"/>
		<path class="st3" d="M777.1,3487.1c0-3.8,2.3-6.1,5.4-6.1c1.6,0,2.7,0.7,3.4,1.5l-0.8,1c-0.6-0.6-1.3-1.1-2.5-1.1
			c-2.4,0-3.9,1.8-3.9,4.8c0,3,1.4,4.8,3.9,4.8c0.8,0,1.6-0.3,2.1-0.7v-3.1h-2.5v-1.2h3.8v4.9c-0.8,0.8-2,1.4-3.6,1.4
			C779.3,3493.2,777.1,3491,777.1,3487.1z"/>
	</g>
	<g class="st1">
		<path class="st3" d="M797.6,3488.1c-1.4,0.2-2.8,0.4-4.1,0.5v5.2h-1.3v-5.1c-1.4,0.1-2.8,0.1-4,0.1l-0.2-1.1c2.7,0,6.3,0,9.5-0.5
			L797.6,3488.1z M789.1,3483.5c0-1.8,1.5-3,3.7-3c2.1,0,3.6,1.2,3.6,3c0,1.7-1.5,2.9-3.6,2.9
			C790.6,3486.4,789.1,3485.2,789.1,3483.5z M790.3,3483.5c0,1.1,1,1.9,2.4,1.9c1.4,0,2.4-0.8,2.4-1.9c0-1.1-1-1.9-2.4-1.9
			C791.3,3481.6,790.3,3482.3,790.3,3483.5z M799.8,3479.8v14.4h-1.3v-14.4H799.8z"/>
		<path class="st3" d="M806.8,3487.5c-1.4,0.1-2.8,0.1-4,0.1l-0.2-1.1c2.7,0,6.2,0,9.3-0.4l0.1,0.9c-1.3,0.2-2.6,0.3-3.9,0.4v2.8
			h-1.3V3487.5z M803.8,3482.9c0-1.5,1.4-2.5,3.5-2.5c2.1,0,3.5,1,3.5,2.5c0,1.5-1.4,2.5-3.5,2.5
			C805.2,3485.4,803.8,3484.4,803.8,3482.9z M814.8,3492.8v1.1h-10.1v-4.2h1.3v3.1H814.8z M805,3482.9c0,0.9,0.9,1.5,2.3,1.5
			c1.4,0,2.3-0.6,2.3-1.5c0-0.9-0.9-1.5-2.3-1.5C806,3481.4,805,3482,805,3482.9z M813.2,3488.3v-8.5h1.3v10.9h-1.3v-1.5h-2.9v-1
			H813.2z"/>
		<path class="st3" d="M822.9,3490.2c1.4-0.1,2.8-0.2,4.1-0.3l0.1,1c-3.2,0.5-6.7,0.6-9.3,0.6l-0.2-1.1c1.2,0,2.6,0,4-0.1v-1.5
			c-1.7-0.2-2.8-1.2-2.8-2.6c0-1.6,1.4-2.7,3.5-2.7s3.4,1,3.4,2.7c0,1.4-1.1,2.4-2.8,2.6V3490.2z M826.6,3482.6h-8.7v-1.1h3.7v-1.8
			h1.3v1.8h3.7V3482.6z M822.2,3487.8c1.3,0,2.2-0.6,2.2-1.6c0-1-0.9-1.6-2.2-1.6c-1.3,0-2.2,0.6-2.2,1.6
			C820,3487.1,820.9,3487.8,822.2,3487.8z M829.2,3479.8v14.4h-1.3v-14.4H829.2z"/>
	</g>
	<g class="st1">
		<path class="st4" d="M741.5,3544l0.9-1.5l-1.5-0.6l0.3-0.7l1.6,0.4l0.1-1.7h0.8l0.1,1.7l1.6-0.4l0.2,0.7l-1.5,0.6l0.9,1.5
			l-0.6,0.4l-1.1-1.3l-1.1,1.3L741.5,3544z"/>
		<path class="st4" d="M758.8,3546.7c-1.2,0.2-2.4,0.4-3.6,0.4v4.5H754v-4.5c-1.2,0.1-2.4,0.1-3.5,0.1l-0.2-1c2.3,0,5.5,0,8.3-0.4
			L758.8,3546.7z M751.3,3542.7c0-1.5,1.3-2.6,3.2-2.6c1.9,0,3.2,1,3.2,2.6c0,1.5-1.3,2.6-3.2,2.6
			C752.7,3545.2,751.3,3544.2,751.3,3542.7z M752.4,3542.7c0,1,0.9,1.6,2.1,1.6c1.2,0,2.1-0.7,2.1-1.6s-0.9-1.6-2.1-1.6
			C753.3,3541,752.4,3541.7,752.4,3542.7z M760.7,3539.5v12.6h-1.1v-12.6H760.7z"/>
		<path class="st4" d="M766.9,3546.2c-1.2,0.1-2.5,0.1-3.5,0.1l-0.2-1c2.3,0,5.4,0,8.1-0.4l0.1,0.8c-1.1,0.2-2.3,0.3-3.4,0.4v2.5
			h-1.1V3546.2z M764.2,3542.2c0-1.3,1.3-2.2,3.1-2.2s3.1,0.9,3.1,2.2c0,1.3-1.3,2.2-3.1,2.2S764.2,3543.5,764.2,3542.2z
			 M773.9,3550.8v0.9H765v-3.7h1.1v2.7H773.9z M765.3,3542.2c0,0.8,0.8,1.3,2,1.3c1.2,0,2-0.5,2-1.3c0-0.8-0.8-1.3-2-1.3
			C766.1,3540.8,765.3,3541.4,765.3,3542.2z M772.4,3546.9v-7.4h1.1v9.6h-1.1v-1.3h-2.5v-0.9H772.4z"/>
		<path class="st4" d="M780.9,3548.6c1.2-0.1,2.4-0.1,3.6-0.3l0.1,0.9c-2.8,0.5-5.8,0.5-8.1,0.5l-0.2-1c1.1,0,2.3,0,3.5-0.1v-1.3
			c-1.5-0.2-2.5-1.1-2.5-2.3c0-1.4,1.2-2.3,3-2.3s3,0.9,3,2.3c0,1.2-1,2.1-2.4,2.3V3548.6z M784.1,3541.9h-7.6v-0.9h3.2v-1.5h1.1
			v1.5h3.2V3541.9z M780.3,3546.4c1.1,0,1.9-0.6,1.9-1.4c0-0.9-0.8-1.4-1.9-1.4c-1.1,0-1.9,0.6-1.9,1.4
			C778.4,3545.8,779.2,3546.4,780.3,3546.4z M786.4,3539.5v12.6h-1.1v-12.6H786.4z"/>
		<path class="st4" d="M800.5,3546.7c-1.2,0.2-2.4,0.4-3.6,0.4v4.5h-1.1v-4.5c-1.2,0.1-2.4,0.1-3.5,0.1l-0.2-1c2.3,0,5.5,0,8.3-0.4
			L800.5,3546.7z M793.1,3542.7c0-1.5,1.3-2.6,3.2-2.6c1.9,0,3.2,1,3.2,2.6c0,1.5-1.3,2.6-3.2,2.6
			C794.4,3545.2,793.1,3544.2,793.1,3542.7z M794.2,3542.7c0,1,0.9,1.6,2.1,1.6c1.2,0,2.1-0.7,2.1-1.6s-0.9-1.6-2.1-1.6
			C795.1,3541,794.2,3541.7,794.2,3542.7z M802.5,3539.5v12.6h-1.1v-12.6H802.5z"/>
		<path class="st4" d="M808.6,3546.2c-1.2,0.1-2.5,0.1-3.5,0.1l-0.2-1c2.3,0,5.4,0,8.1-0.4l0.1,0.8c-1.1,0.2-2.3,0.3-3.4,0.4v2.5
			h-1.1V3546.2z M806,3542.2c0-1.3,1.3-2.2,3.1-2.2s3.1,0.9,3.1,2.2c0,1.3-1.3,2.2-3.1,2.2S806,3543.5,806,3542.2z M815.7,3550.8
			v0.9h-8.9v-3.7h1.1v2.7H815.7z M807.1,3542.2c0,0.8,0.8,1.3,2,1.3c1.2,0,2-0.5,2-1.3c0-0.8-0.8-1.3-2-1.3
			C807.9,3540.8,807.1,3541.4,807.1,3542.2z M814.2,3546.9v-7.4h1.1v9.6h-1.1v-1.3h-2.5v-0.9H814.2z"/>
		<path class="st4" d="M824.7,3546.4c-1.4-0.5-2.5-1.5-3-2.7c-0.5,1.4-1.7,2.5-3.2,3.1l-0.6-0.9c1.9-0.7,3.2-2.3,3.2-4.1v-0.5h-2.8
			v-0.9h6.7v0.9h-2.8v0.5c0,1.6,1.2,3.1,3,3.7L824.7,3546.4z M827.8,3549.7c0,1.5-1.6,2.3-4.1,2.3c-2.6,0-4.1-0.9-4.1-2.3
			c0-1.5,1.6-2.3,4.1-2.3C826.3,3547.4,827.8,3548.2,827.8,3549.7z M826.7,3549.7c0-0.9-1.1-1.4-3-1.4c-1.9,0-3,0.5-3,1.4
			c0,0.9,1.1,1.4,3,1.4C825.6,3551.1,826.7,3550.6,826.7,3549.7z M829.6,3542.7v1h-1.9v3.4h-1.1v-7.6h1.1v3.2H829.6z"/>
	</g>
	<path id="패스_3654" class="st5" d="M740,3520.5h920"/>
	<path id="패스_1677-2" class="st5" d="M740,3063h920"/>
	<g class="st1">
		<path class="st4" d="M1555.2,3031.6c0-2.7,0.8-5,2.1-7.1l0.8,0.4c-1.2,2-1.8,4.4-1.8,6.7c0,2.4,0.6,4.7,1.8,6.7l-0.8,0.4
			C1556,3036.7,1555.2,3034.4,1555.2,3031.6z"/>
		<path class="st4" d="M1559.3,3035.2c3.2-2.8,4.7-4.9,4.7-6.6c0-1.2-0.6-2-1.9-2c-0.8,0-1.6,0.5-2.1,1.2l-0.7-0.7
			c0.8-0.9,1.7-1.5,3-1.5c1.8,0,3,1.2,3,3c0,2-1.6,4.1-4,6.4c0.5,0,1.2-0.1,1.7-0.1h2.8v1.1h-6.5V3035.2z"/>
		<path class="st4" d="M1567.1,3030.8c0-3.6,1.2-5.3,3.2-5.3c1.9,0,3.2,1.7,3.2,5.3c0,3.6-1.2,5.4-3.2,5.4
			C1568.4,3036.2,1567.1,3034.4,1567.1,3030.8z M1572.3,3030.8c0-3-0.8-4.3-1.9-4.3c-1.2,0-2,1.3-2,4.3c0,3,0.8,4.3,2,4.3
			C1571.5,3035.2,1572.3,3033.9,1572.3,3030.8z"/>
		<path class="st4" d="M1574.8,3035.2c3.2-2.8,4.7-4.9,4.7-6.6c0-1.2-0.6-2-1.9-2c-0.8,0-1.6,0.5-2.1,1.2l-0.7-0.7
			c0.8-0.9,1.7-1.5,3-1.5c1.8,0,3,1.2,3,3c0,2-1.6,4.1-4,6.4c0.5,0,1.2-0.1,1.7-0.1h2.8v1.1h-6.5V3035.2z"/>
		<path class="st4" d="M1583.2,3034.9h2.3v-7.7h-1.8v-0.8c0.9-0.2,1.6-0.4,2.1-0.7h1v9.2h2.1v1.1h-5.6V3034.9z"/>
		<path class="st4" d="M1597.7,3031.5c-2,0.4-3.7,0.5-5.6,0.5h-1v-6.5h1.1v5.6c1.7,0,3.4-0.1,5.2-0.4L1597.7,3031.5z M1601.2,3035.8
			v0.9h-8.4v-3.8h1.1v2.8H1601.2z M1599.7,3029.4h-3.5v-0.9h3.5v-1.5h-3.5v-0.9h3.5v-1.6h1.2v9.3h-1.2V3029.4z"/>
		<path class="st4" d="M1611.4,3026.8h-5v-1.1h6.4v0.8c-2.4,3.1-2.9,5.5-3,9.5h-1.3C1608.7,3032.1,1609.4,3029.6,1611.4,3026.8z"/>
		<path class="st4" d="M1617.7,3030c-1.2,0-2.3,0-3.3,0l-0.1-0.9c2.4,0,5.5,0,8.2-0.3l0.1,0.8c-1.2,0.2-2.5,0.3-3.7,0.3v1.9h-1.1
			V3030z M1615.2,3026.6c0-1.2,1.2-1.9,3.1-1.9c1.9,0,3.1,0.7,3.1,1.9c0,1.1-1.2,1.9-3.1,1.9
			C1616.4,3028.5,1615.2,3027.8,1615.2,3026.6z M1625,3036.1v0.8h-8.8v-2.7h7.3v-1h-7.3v-0.8h8.4v2.6h-7.3v1.1H1625z M1616.3,3026.6
			c0,0.6,0.8,1.1,2,1.1c1.2,0,2-0.4,2-1.1c0-0.7-0.8-1.1-2-1.1C1617.1,3025.5,1616.3,3025.9,1616.3,3026.6z M1623.4,3030.5v-6h1.1
			v7.4h-1.1v-0.7h-2.5v-0.8H1623.4z"/>
		<path class="st4" d="M1636.9,3025.8c0,3.6-1.7,6.8-5.8,8.9l-0.6-0.9c3.4-1.6,5.1-4,5.3-7h-4.7v-0.9H1636.9z M1640.6,3024.5v12.6
			h-1.1v-12.6H1640.6z"/>
		<path class="st4" d="M1654.6,3030.9v0.9h-5v2.5h-1.1v-2.5h-5.2v-0.9H1654.6z M1643.9,3029.1c2.2-0.3,4.3-1.5,4.3-3.1v0h-3.9v-0.9
			h9.3v0.9h-3.9v0c0,1.5,2,2.8,4.2,3.1l-0.4,0.9c-2-0.3-3.9-1.3-4.6-2.8c-0.7,1.5-2.5,2.5-4.6,2.8L1643.9,3029.1z M1645.8,3035.8
			h7.5v0.9h-8.7v-3.6h1.1V3035.8z"/>
		<path class="st4" d="M1655.9,3038.4c1.2-2,1.8-4.4,1.8-6.7c0-2.4-0.6-4.7-1.8-6.7l0.8-0.4c1.3,2.1,2.1,4.4,2.1,7.1
			c0,2.8-0.8,5-2.1,7.1L1655.9,3038.4z"/>
	</g>
</g>
</svg>
