<?xml version="1.0" encoding="utf-8"?>
<!-- Generator: Adobe Illustrator 25.3.1, SVG Export Plug-In . SVG Version: 6.00 Build 0)  -->
<svg version="1.1" id="레이어_1" xmlns="http://www.w3.org/2000/svg" xmlns:xlink="http://www.w3.org/1999/xlink" x="0px"
	 y="0px" viewBox="0 0 335 383.8" style="enable-background:new 0 0 335 383.8;" xml:space="preserve">
<style type="text/css">
	.st0{fill:none;stroke:#D6D6D6;}
	.st1{enable-background:new    ;}
	.st2{fill:#2AA6D3;}
	.st3{fill:#555555;}
	.st4{fill:#929397;}
	.st5{fill:none;stroke:#707070;}
</style>
<g id="그룹_5844">
	<line id="선_398" class="st0" x1="142.5" y1="30" x2="142.5" y2="361.8"/>
	<line id="선_399" class="st0" x1="239.5" y1="30" x2="239.5" y2="361.8"/>
	<path id="패스_1677" class="st0" d="M0,124.3h335"/>
	<path id="패스_3206" class="st0" d="M0,266h335"/>
	<path id="패스_3655" class="st0" d="M0,313.9h335"/>
	<path id="패스_2801" class="st0" d="M0,171.8h335"/>
	<g class="st1">
		<path class="st2" d="M7.7,9.8c0,2.8-1.4,4.6-3.4,4.6C2.4,14.4,1,12.6,1,9.8C1,7,2.4,5.2,4.4,5.2C6.3,5.2,7.7,7,7.7,9.8z M2.7,9.8
			c0,1.9,0.7,2.9,1.6,2.9S6,11.7,6,9.8c0-1.9-0.7-2.9-1.6-2.9S2.7,7.9,2.7,9.8z M11.3,4.3v12.9H9.4V4.3H11.3z"/>
		<path class="st2" d="M18.2,7.2c0,2.3,0.9,4.7,3,5.7l-1.1,1.5c-1.3-0.7-2.3-1.9-2.8-3.5c-0.6,1.6-1.5,3-3,3.7l-1.1-1.5
			c2.2-1,3.2-3.5,3.2-5.9V5.3h1.9V7.2z M25.5,10.8h-1.9v6.4h-1.8V4.3h1.8v5h1.9V10.8z"/>
		<path class="st2" d="M31.5,13.5c1.1-0.1,2.1-0.1,3.1-0.3l0.1,1.3c-2.8,0.5-5.8,0.5-8.1,0.5l-0.2-1.5c1,0,2.1,0,3.2,0v-1.1
			c-1.4-0.3-2.3-1.1-2.3-2.3c0-1.4,1.3-2.4,3.2-2.4c1.9,0,3.2,1,3.2,2.4c0,1.2-0.9,2.1-2.3,2.3V13.5z M34.4,7.2h-7.7V5.7h3V4.3h1.8
			v1.4h2.9V7.2z M30.6,11.1c0.9,0,1.4-0.4,1.4-1c0-0.7-0.6-1-1.4-1c-0.9,0-1.4,0.4-1.4,1C29.1,10.8,29.7,11.1,30.6,11.1z M37.1,4.3
			v12.9h-1.8V4.3H37.1z"/>
		<path class="st2" d="M49.2,11.9c-1.4-0.5-2.4-1.4-2.9-2.5c-0.6,1.3-1.6,2.3-3.1,2.8l-1-1.4c2.2-0.7,3.1-2.4,3.1-4.2V5.1h1.9v1.4
			c0,1.6,0.9,3.3,3,3.9L49.2,11.9z M46.1,15.5H53V17h-8.8v-4.1h1.8V15.5z M54.3,8v1.5h-1.7v4.2h-1.8V4.3h1.8V8H54.3z"/>
		<path class="st2" d="M59.9,6.2h2.8v1.5h-7.5V6.2h2.9V4.5h1.8V6.2z M62.3,11.5c0,1.8-1.4,3.1-3.2,3.1c-1.9,0-3.3-1.3-3.3-3.1
			c0-1.8,1.4-3.1,3.3-3.1C60.9,8.4,62.3,9.7,62.3,11.5z M60.5,11.5c0-1-0.6-1.6-1.5-1.6c-0.9,0-1.5,0.6-1.5,1.6s0.6,1.6,1.5,1.6
			C59.9,13.1,60.5,12.5,60.5,11.5z M67.3,10.9h-1.8v6.3h-1.8V4.3h1.8v5h1.8V10.9z"/>
		<path class="st2" d="M79.7,12c-1,0.2-2.1,0.3-3.2,0.4v4.4h-1.8v-4.3c-1.1,0-2.2,0.1-3.1,0.1l-0.2-1.5c2.3,0,5.4,0,8.2-0.4L79.7,12
			z M72.2,7.6c0-1.6,1.4-2.8,3.4-2.8c1.9,0,3.4,1.1,3.4,2.8c0,1.6-1.4,2.7-3.4,2.7C73.6,10.3,72.2,9.2,72.2,7.6z M73.9,7.6
			c0,0.8,0.7,1.2,1.6,1.2c1,0,1.6-0.4,1.6-1.2c0-0.8-0.7-1.3-1.6-1.3C74.6,6.3,73.9,6.8,73.9,7.6z M82.2,4.3v12.9h-1.8V4.3H82.2z"/>
		<path class="st2" d="M95.4,15.5V17h-9.6v-3.8h1.8v-1.7c-1.1,0.1-2.2,0.1-3.2,0.1L84.2,10c2.4,0,5.5,0,8.2-0.4l0.1,1.3
			c-1,0.2-2,0.3-3.1,0.4v2.4h-1.8v1.8H95.4z M85.1,7c0-1.4,1.3-2.3,3.2-2.3c1.9,0,3.2,0.9,3.2,2.3c0,1.4-1.3,2.3-3.2,2.3
			C86.5,9.3,85.1,8.4,85.1,7z M86.9,7c0,0.6,0.6,1,1.5,1c0.9,0,1.5-0.3,1.5-1c0-0.6-0.6-1-1.5-1C87.5,6.1,86.9,6.4,86.9,7z
			 M93.2,11.8V4.3h1.8v9.8h-1.8v-1h-2.4v-1.3H93.2z"/>
		<path class="st2" d="M102.2,13.5c1.1-0.1,2.1-0.1,3.1-0.3l0.1,1.3c-2.8,0.5-5.8,0.5-8.1,0.5l-0.2-1.5c1,0,2.1,0,3.2,0v-1.1
			c-1.4-0.3-2.3-1.1-2.3-2.3c0-1.4,1.3-2.4,3.2-2.4c1.9,0,3.2,1,3.2,2.4c0,1.2-0.9,2.1-2.3,2.3V13.5z M105.2,7.2h-7.7V5.7h3V4.3h1.8
			v1.4h2.9V7.2z M101.3,11.1c0.9,0,1.4-0.4,1.4-1c0-0.7-0.6-1-1.4-1c-0.9,0-1.4,0.4-1.4,1C99.9,10.8,100.5,11.1,101.3,11.1z
			 M107.9,4.3v12.9H106V4.3H107.9z"/>
		<path class="st2" d="M124.8,12h-5v5.2H118V12h-4.8v-1.5h8.1c0.3-1.6,0.4-2.9,0.4-4h-7.1V5h9v1.2c0,1.2,0,2.5-0.3,4.3h1.7V12z"/>
		<path class="st2" d="M132.8,11.5c-1.4-0.5-2.3-1.3-2.8-2.5c-0.6,1.3-1.6,2.4-3.1,2.9l-1-1.5c2.2-0.7,3.1-2.5,3.1-4.2V5h1.9V6
			c0,1.7,0.8,3.3,2.9,4L132.8,11.5z M136.9,14.7c0,1.6-1.7,2.5-4.4,2.5c-2.7,0-4.4-0.9-4.4-2.5c0-1.6,1.7-2.5,4.4-2.5
			C135.2,12.2,136.9,13.1,136.9,14.7z M135,14.7c0-0.7-0.9-1.1-2.6-1.1c-1.7,0-2.6,0.3-2.6,1.1c0,0.7,0.9,1.1,2.6,1.1
			C134.2,15.8,135,15.4,135,14.7z M135,8.2h-2.4V6.7h2.4V4.3h1.8v7.6H135V8.2z"/>
	</g>
	<path id="패스_1678" class="st0" d="M0,76.8h335"/>
	<path id="패스_3205" class="st0" d="M0,218.5h335"/>
	<g id="그룹_5882">
		<g class="st1">
			<path d="M172.3,51.3c0,1.9,1,3.9,2.6,4.7l-0.8,1c-1.2-0.6-2-1.8-2.5-3.2c-0.5,1.5-1.4,2.8-2.6,3.4l-0.8-1
				c1.7-0.8,2.7-2.9,2.7-4.9v-1.8h1.2V51.3z M178.6,54h-1.7v5.5h-1.2V48.7h1.2v4.3h1.7V54z"/>
			<path d="M181.3,55.7c1,0,2-0.1,3.2-0.3l0.1,1.1c-1.5,0.3-2.7,0.3-3.8,0.3h-0.7v-6.8h1.2V55.7z M188.8,48.7v10.8h-1.2V54h-1.3v5
				h-1.2V48.9h1.2V53h1.3v-4.3H188.8z"/>
			<path d="M196.5,53.3c0,2.4-1.2,3.8-2.8,3.8c-1.6,0-2.8-1.5-2.8-3.8c0-2.3,1.2-3.8,2.8-3.8C195.4,49.4,196.5,50.9,196.5,53.3z
				 M192.2,53.3c0,1.7,0.7,2.7,1.6,2.7c0.9,0,1.6-1,1.6-2.7c0-1.7-0.7-2.7-1.6-2.7C192.8,50.6,192.2,51.6,192.2,53.3z M199.5,48.6
				v10.9h-1.2V48.6H199.5z"/>
			<path d="M205.4,51.3c0,1.9,1,3.9,2.6,4.7l-0.8,1c-1.2-0.6-2-1.8-2.5-3.2c-0.5,1.5-1.4,2.8-2.6,3.4l-0.8-1
				c1.7-0.8,2.7-2.9,2.7-4.9v-1.8h1.2V51.3z M211.7,54H210v5.5h-1.2V48.7h1.2v4.3h1.7V54z"/>
		</g>
		<g class="st1">
			<path d="M269.3,51.3c0,1.9,1,3.9,2.6,4.7l-0.8,1c-1.2-0.6-2-1.8-2.5-3.2c-0.5,1.5-1.4,2.8-2.6,3.4l-0.8-1
				c1.7-0.8,2.7-2.9,2.7-4.9v-1.8h1.2V51.3z M275.6,54h-1.7v5.5h-1.2V48.7h1.2v4.3h1.7V54z"/>
			<path d="M280.7,56.1c1-0.1,2-0.1,2.9-0.3l0.1,0.9c-2.4,0.5-5,0.5-6.9,0.5l-0.2-1c0.8,0,1.8,0,2.8,0v-1.7
				c-1.4-0.2-2.3-1.2-2.3-2.6c0-1.5,1.2-2.6,2.9-2.6c1.7,0,3,1.1,3,2.6c0,1.3-1,2.3-2.3,2.6V56.1z M280.1,53.5c1,0,1.7-0.6,1.7-1.5
				c0-0.9-0.7-1.5-1.7-1.5c-1,0-1.7,0.6-1.7,1.5C278.3,52.9,279.1,53.5,280.1,53.5z M285.5,48.6v10.9h-1.2V48.6H285.5z"/>
			<path d="M293.5,53.3c0,2.4-1.2,3.8-2.8,3.8c-1.6,0-2.8-1.5-2.8-3.8c0-2.3,1.2-3.8,2.8-3.8C292.4,49.4,293.5,50.9,293.5,53.3z
				 M289.2,53.3c0,1.7,0.7,2.7,1.6,2.7c0.9,0,1.6-1,1.6-2.7c0-1.7-0.7-2.7-1.6-2.7C289.8,50.6,289.2,51.6,289.2,53.3z M296.5,48.6
				v10.9h-1.2V48.6H296.5z"/>
			<path d="M302.4,51.3c0,1.9,1,3.9,2.6,4.7l-0.8,1c-1.2-0.6-2-1.8-2.5-3.2c-0.5,1.5-1.4,2.8-2.6,3.4l-0.8-1
				c1.7-0.8,2.7-2.9,2.7-4.9v-1.8h1.2V51.3z M308.7,54H307v5.5h-1.2V48.7h1.2v4.3h1.7V54z"/>
		</g>
		<g class="st1">
			<path d="M16,55c-0.9,0.2-1.9,0.3-2.9,0.4v3.8h-1.2v-3.7c-1,0-2,0-2.8,0l-0.1-1c2,0,4.7,0,7-0.4L16,55z M9.6,51.4
				c0-1.3,1.2-2.3,2.8-2.3s2.8,0.9,2.8,2.3c0,1.3-1.2,2.3-2.8,2.3S9.6,52.7,9.6,51.4z M10.8,51.4c0,0.8,0.7,1.3,1.6,1.3
				c0.9,0,1.6-0.5,1.6-1.3c0-0.8-0.7-1.2-1.6-1.2C11.5,50.1,10.8,50.6,10.8,51.4z M17.8,48.7v10.8h-1.2V48.7H17.8z"/>
			<path d="M22.9,54.5c-1,0-2,0.1-2.9,0.1l-0.2-1c2,0,4.7,0,6.9-0.3l0.1,0.9c-0.9,0.2-1.9,0.3-2.8,0.3v2.1h-1.2V54.5z M20.7,51
				c0-1.2,1.1-1.9,2.7-1.9c1.6,0,2.7,0.8,2.7,1.9s-1.1,1.9-2.7,1.9C21.8,52.9,20.7,52.1,20.7,51z M29.1,58.3v1h-7.8v-3.2h1.2v2.2
				H29.1z M21.9,51c0,0.6,0.6,1,1.5,1c0.9,0,1.5-0.4,1.5-1s-0.6-1-1.5-1C22.5,50,21.9,50.4,21.9,51z M27.6,55v-6.4h1.2v8.2h-1.2v-1
				h-2.1V55H27.6z"/>
			<path d="M35.1,56.5c1-0.1,2-0.1,2.9-0.3l0.1,0.9c-2.4,0.4-5,0.4-6.9,0.4l-0.2-1c0.9,0,1.9,0,2.9,0v-1.1c-1.2-0.2-2-0.9-2-2
				c0-1.2,1.1-2,2.7-2c1.6,0,2.6,0.8,2.6,2c0,1.1-0.8,1.8-2,2V56.5z M37.8,50.9h-6.5v-1h2.7v-1.2h1.2v1.2h2.7V50.9z M34.5,54.5
				c0.9,0,1.5-0.4,1.5-1.1c0-0.7-0.6-1.1-1.5-1.1c-0.9,0-1.5,0.4-1.5,1.1C33,54.1,33.6,54.5,34.5,54.5z M39.9,48.6v10.8h-1.2V48.6
				H39.9z"/>
			<path d="M47.5,54.3h-5v-4.9h5v0.9h2.3v-1.7H51V55h-1.2v-1.6h-2.3V54.3z M46.3,50.4h-2.6v2.9h2.6V50.4z M51,57.4
				c0,1.3-1.4,2.1-3.7,2.1c-2.3,0-3.6-0.8-3.6-2.1s1.4-2.1,3.6-2.1C49.6,55.3,51,56.1,51,57.4z M49.8,57.4c0-0.7-0.9-1.1-2.4-1.1
				s-2.4,0.4-2.4,1.1c0,0.7,0.9,1.1,2.4,1.1S49.8,58.1,49.8,57.4z M47.5,51.3v1.1h2.3v-1.1H47.5z"/>
		</g>
	</g>
	<g id="그룹_5880">
		<g class="st1">
			<path class="st3" d="M180.4,194.3h-3.8v-4.6h0.9v1.6h2.1v-1.6h0.8V194.3z M179.6,191.9h-2.1v1.6h2.1V191.9z M177.8,195.6h6.6v3.3
				h-0.9v-2.6h-5.7V195.6z M184.5,189.1v5.9h-0.9v-2.6h-1.3v2.6h-0.9v-5.7h0.9v2.4h1.3v-2.6H184.5z"/>
			<path class="st3" d="M195.2,195.4h-4v3.5h-0.9v-3.5h-4v-0.7h8.9V195.4z M187.3,191.6c0-1.3,1.4-2.2,3.4-2.2
				c2.1,0,3.5,0.8,3.5,2.2c0,1.3-1.4,2.2-3.5,2.2C188.7,193.8,187.3,192.9,187.3,191.6z M188.2,191.6c0,0.9,1,1.4,2.5,1.4
				c1.5,0,2.5-0.6,2.5-1.4c0-0.9-1-1.4-2.5-1.4C189.2,190.2,188.2,190.7,188.2,191.6z"/>
			<path class="st3" d="M201.7,194.5c-1.1-0.4-1.9-1.2-2.4-2.3c-0.4,1.2-1.3,2-2.4,2.5l-0.5-0.7c1.5-0.5,2.4-1.9,2.4-3.4v-1h0.9v1.1
				c0,1.4,1,2.6,2.4,3.1L201.7,194.5z M197.9,195.4h6.6v3.5h-0.9v-2.8h-5.7V195.4z M204.5,189.1v5.8h-0.9v-3h-2.1v-0.7h2.1v-2.1
				H204.5z"/>
			<path class="st3" d="M207.1,192.6l0.7-1.1l-1.2-0.5l0.2-0.6l1.3,0.3l0.1-1.3h0.6l0.1,1.3l1.3-0.3l0.2,0.6l-1.2,0.5l0.7,1.1
				l-0.5,0.4l-0.9-1l-0.9,1L207.1,192.6z"/>
		</g>
		<g class="st1">
			<path class="st3" d="M181.5,145.2c0,2.1-1,3.4-2.5,3.4c-1.5,0-2.5-1.3-2.5-3.4s1-3.4,2.5-3.4
				C180.5,141.8,181.5,143.1,181.5,145.2z M177.4,145.2c0,1.6,0.7,2.6,1.7,2.6c1,0,1.6-1,1.6-2.6c0-1.6-0.7-2.6-1.6-2.6
				C178,142.6,177.4,143.7,177.4,145.2z M184.2,141v9.9h-0.9V141H184.2z"/>
			<path class="st3" d="M195.2,147.4h-4v3.5h-0.9v-3.5h-4v-0.7h8.9V147.4z M187.3,143.6c0-1.3,1.4-2.2,3.4-2.2
				c2.1,0,3.5,0.8,3.5,2.2c0,1.3-1.4,2.2-3.5,2.2C188.7,145.8,187.3,144.9,187.3,143.6z M188.2,143.6c0,0.9,1,1.4,2.5,1.4
				c1.5,0,2.5-0.6,2.5-1.4c0-0.9-1-1.4-2.5-1.4C189.2,142.2,188.2,142.7,188.2,143.6z"/>
			<path class="st3" d="M201.9,143h-5.5v-0.7h2.4V141h0.9v1.2h2.3V143z M199.2,147.3c-1.3,0-2.2-0.8-2.2-1.9c0-1.1,0.9-1.9,2.2-1.9
				s2.2,0.7,2.2,1.9C201.4,146.5,200.5,147.3,199.2,147.3z M199.2,146.6c0.8,0,1.4-0.5,1.4-1.2c0-0.7-0.6-1.2-1.4-1.2
				s-1.4,0.5-1.4,1.2C197.8,146.1,198.4,146.6,199.2,146.6z M204.7,150v0.7h-6.6v-2.8h0.9v2H204.7z M203.6,143.7v-2.6h0.9v7.5h-0.9
				v-2.1h-1.7v-0.7h1.7v-1.3h-1.7v-0.7H203.6z"/>
		</g>
		<g class="st1">
			<path class="st3" d="M160.1,92h-3.8v-4.6h0.9V89h2.1v-1.6h0.8V92z M159.2,89.7h-2.1v1.6h2.1V89.7z M157.5,93.3h6.6v3.3h-0.9V94
				h-5.7V93.3z M164.1,86.8v5.9h-0.9v-2.6H162v2.6h-0.9V87h0.9v2.4h1.3v-2.6H164.1z"/>
			<path class="st3" d="M174.9,93.2h-4v3.5h-0.9v-3.5h-4v-0.7h8.9V93.2z M166.9,89.4c0-1.3,1.4-2.2,3.4-2.2c2.1,0,3.5,0.8,3.5,2.2
				c0,1.3-1.4,2.2-3.5,2.2C168.3,91.5,166.9,90.7,166.9,89.4z M167.9,89.4c0,0.9,1,1.4,2.5,1.4c1.5,0,2.5-0.6,2.5-1.4
				c0-0.9-1-1.4-2.5-1.4C168.9,87.9,167.9,88.5,167.9,89.4z"/>
			<path class="st3" d="M181.3,92.2c-1.1-0.4-1.9-1.2-2.4-2.3c-0.4,1.2-1.3,2-2.4,2.5l-0.5-0.7c1.5-0.5,2.4-1.9,2.4-3.4v-1h0.9v1.1
				c0,1.4,1,2.6,2.4,3.1L181.3,92.2z M177.6,93.2h6.6v3.5h-0.9v-2.8h-5.7V93.2z M184.2,86.8v5.8h-0.9v-3h-2.1v-0.7h2.1v-2.1H184.2z"
				/>
			<path class="st3" d="M186.8,90.3l0.7-1.1l-1.2-0.5l0.2-0.6l1.3,0.3l0.1-1.3h0.6l0.1,1.3l1.3-0.3l0.2,0.6l-1.2,0.5l0.7,1.1
				l-0.5,0.4l-0.9-1l-0.9,1L186.8,90.3z"/>
			<path class="st3" d="M191.3,97.4c0.7-0.3,1.1-0.8,1.1-1.5c0,0-0.1,0-0.1,0c-0.4,0-0.7-0.2-0.7-0.7c0-0.4,0.4-0.7,0.8-0.7
				c0.5,0,0.8,0.5,0.8,1.2c0,1.1-0.6,1.9-1.6,2.3L191.3,97.4z"/>
			<path class="st3" d="M202.2,91c0,2.1-1,3.4-2.5,3.4c-1.5,0-2.5-1.3-2.5-3.4s1-3.4,2.5-3.4C201.2,87.6,202.2,88.9,202.2,91z
				 M198.1,91c0,1.6,0.7,2.6,1.7,2.6c1,0,1.6-1,1.6-2.6c0-1.6-0.7-2.6-1.6-2.6C198.7,88.4,198.1,89.4,198.1,91z M204.9,86.8v9.9H204
				v-9.9H204.9z"/>
			<path class="st3" d="M215.9,93.2h-4v3.5h-0.9v-3.5h-4v-0.7h8.9V93.2z M208,89.4c0-1.3,1.4-2.2,3.4-2.2c2.1,0,3.5,0.8,3.5,2.2
				c0,1.3-1.4,2.2-3.5,2.2C209.4,91.5,208,90.7,208,89.4z M208.9,89.4c0,0.9,1,1.4,2.5,1.4c1.5,0,2.5-0.6,2.5-1.4
				c0-0.9-1-1.4-2.5-1.4C209.9,87.9,208.9,88.5,208.9,89.4z"/>
			<path class="st3" d="M222.6,88.7h-5.5V88h2.4v-1.2h0.9V88h2.3V88.7z M219.9,93c-1.3,0-2.2-0.8-2.2-1.9c0-1.1,0.9-1.9,2.2-1.9
				s2.2,0.7,2.2,1.9C222.1,92.3,221.2,93,219.9,93z M219.9,92.3c0.8,0,1.4-0.5,1.4-1.2c0-0.7-0.6-1.2-1.4-1.2s-1.4,0.5-1.4,1.2
				C218.5,91.9,219.1,92.3,219.9,92.3z M225.4,95.7v0.7h-6.6v-2.8h0.9v2H225.4z M224.3,89.4v-2.6h0.9v7.5h-0.9v-2.1h-1.7v-0.7h1.7
				v-1.3h-1.7v-0.7H224.3z"/>
		</g>
		<g class="st1">
			<path class="st3" d="M181.5,105.4c0,2.5-1.8,4.3-4.7,5l-0.4-0.7c2.4-0.6,3.9-1.9,4.1-3.6H177v-0.7H181.5z M178,110.9h6.4v3.7H178
				V110.9z M178.9,113.8h4.6v-2.2h-4.6V113.8z M184.4,104.8v5.6h-0.9v-5.6H184.4z"/>
			<path class="st3" d="M191.2,110c-1.1,0.2-2.1,0.3-3.7,0.3h-0.6v-4.7h3.8v0.7h-2.9v1.2h2.8v0.7h-2.8v1.3c1.4,0,2.3-0.1,3.3-0.3
				L191.2,110z M188.1,111.3h6.6v3.4h-0.9V112h-5.7V111.3z M194.8,104.8v6h-0.9v-2.7h-1.3v2.6h-0.9V105h0.9v2.4h1.3v-2.6H194.8z"/>
			<path class="st3" d="M201.5,110.1v1.1c1.8,0.1,2.9,0.7,2.9,1.7c0,1.1-1.3,1.7-3.4,1.7c-2.1,0-3.4-0.6-3.4-1.7
				c0-1,1.1-1.6,2.9-1.7v-1.1h-4v-0.7h8.9v0.7H201.5z M197.1,108.1c1.7-0.2,3.3-1,3.4-2.1h-3.1v-0.7h7.3v0.7h-3.1
				c0.1,1.1,1.7,1.9,3.4,2.1l-0.3,0.7c-1.6-0.2-3.1-0.9-3.6-2c-0.5,1.1-2,1.8-3.6,2L197.1,108.1z M201,111.9c-1.6,0-2.5,0.4-2.5,1
				s0.9,1,2.5,1c1.5,0,2.5-0.4,2.5-1S202.6,111.9,201,111.9z"/>
		</g>
		<g class="st1">
			<path class="st3" d="M181.3,331.7c0,2.5-1.8,4.3-4.7,5l-0.4-0.7c2.4-0.6,3.9-1.9,4.1-3.6h-3.6v-0.7H181.3z M177.9,337.1h6.4v3.7
				h-6.4V337.1z M178.7,340h4.6v-2.2h-4.6V340z M184.2,331v5.6h-0.9V331H184.2z"/>
			<path class="st3" d="M191,336.2c-1.1,0.2-2.1,0.3-3.7,0.3h-0.6v-4.7h3.8v0.7h-2.9v1.2h2.8v0.7h-2.8v1.3c1.4,0,2.3-0.1,3.3-0.3
				L191,336.2z M188,337.5h6.6v3.4h-0.9v-2.6H188V337.5z M194.6,331.1v6h-0.9v-2.7h-1.3v2.6h-0.9v-5.7h0.9v2.4h1.3v-2.6H194.6z"/>
			<path class="st3" d="M201.3,336.4v1.1c1.8,0.1,2.9,0.7,2.9,1.7c0,1.1-1.3,1.7-3.4,1.7c-2.1,0-3.4-0.6-3.4-1.7
				c0-1,1.1-1.6,2.9-1.7v-1.1h-4v-0.7h8.9v0.7H201.3z M196.9,334.4c1.7-0.2,3.3-1,3.4-2.1h-3.1v-0.7h7.3v0.7h-3.1
				c0.1,1.1,1.7,1.9,3.4,2.1l-0.3,0.7c-1.6-0.2-3.1-0.9-3.6-2c-0.5,1.1-2,1.8-3.6,2L196.9,334.4z M200.8,338.1c-1.6,0-2.5,0.4-2.5,1
				s0.9,1,2.5,1c1.5,0,2.5-0.4,2.5-1S202.4,338.1,200.8,338.1z"/>
			<path class="st3" d="M207.1,334.6l0.7-1.1l-1.2-0.5l0.2-0.6l1.3,0.3l0.1-1.3h0.6l0.1,1.3l1.3-0.3l0.2,0.6l-1.2,0.5l0.7,1.1
				l-0.5,0.4l-0.9-1l-0.9,1L207.1,334.6z"/>
		</g>
	</g>
	<g id="그룹_5879">
		<g class="st1">
			<path class="st3" d="M261.9,183.8h-5.8V183h2.5v-1.2h0.9v1.2h2.5V183.8z M259,188c-1.4,0-2.4-0.7-2.4-1.8c0-1.1,1-1.8,2.4-1.8
				c1.4,0,2.4,0.7,2.4,1.8C261.4,187.2,260.4,188,259,188z M259,187.3c0.9,0,1.5-0.4,1.5-1.1c0-0.7-0.6-1.1-1.5-1.1
				c-0.9,0-1.5,0.4-1.5,1.1C257.5,186.8,258.1,187.3,259,187.3z M258.5,190.7h5.7v0.7h-6.6v-2.8h0.9V190.7z M265.2,185.1v0.8h-1.5
				v3.4h-0.9v-7.4h0.9v3.3H265.2z"/>
			<path class="st3" d="M275.1,188.4h-4v3.3h-0.9v-3.3h-4v-0.7h9V188.4z M274,186.5h-6.7v-4.3h0.9v1.4h4.9v-1.4h0.9V186.5z
				 M273.1,184.3h-4.9v1.5h4.9V184.3z"/>
			<path class="st3" d="M282.5,188c-2.1,0.4-4.5,0.4-6.2,0.4l-0.1-0.7c0.8,0,1.7,0,2.6,0v-0.7c-1.1-0.1-1.9-0.7-1.9-1.5
				c0-0.9,0.9-1.5,2.3-1.5c1.4,0,2.3,0.6,2.3,1.5c0,0.8-0.7,1.4-1.8,1.5v0.7c0.9,0,1.8-0.1,2.7-0.3L282.5,188z M282.2,183.5h-5.7
				v-0.7h2.4v-1h0.9v1h2.4V183.5z M278.6,190.7h5.7v0.7h-6.6V189h0.9V190.7z M279.3,186.3c0.9,0,1.4-0.3,1.4-0.9
				c0-0.5-0.6-0.9-1.4-0.9c-0.9,0-1.5,0.3-1.5,0.9C277.9,185.9,278.5,186.3,279.3,186.3z M285.4,185.3v0.7H284v3.5h-0.9v-7.7h0.9
				v3.4H285.4z"/>
			<path class="st3" d="M286.4,192.4c0.7-0.3,1.1-0.8,1.1-1.5c0,0-0.1,0-0.1,0c-0.4,0-0.7-0.2-0.7-0.7c0-0.4,0.4-0.7,0.8-0.7
				c0.5,0,0.8,0.5,0.8,1.2c0,1.1-0.6,1.9-1.6,2.3L286.4,192.4z"/>
			<path class="st3" d="M297.2,187.3c-1.1-0.4-2-1.1-2.4-2.1c-0.4,1.1-1.3,2-2.5,2.4l-0.5-0.7c1.5-0.5,2.5-1.8,2.5-3.2v-0.4h-2.2
				v-0.7h5.3v0.7h-2.2v0.4c0,1.3,0.9,2.4,2.4,2.9L297.2,187.3z M299.7,189.9c0,1.2-1.2,1.8-3.2,1.8c-2,0-3.3-0.7-3.3-1.8
				c0-1.1,1.2-1.8,3.3-1.8C298.5,188,299.7,188.7,299.7,189.9z M298.8,189.9c0-0.7-0.9-1.1-2.3-1.1c-1.5,0-2.4,0.4-2.4,1.1
				c0,0.7,0.9,1.1,2.4,1.1C297.9,191,298.8,190.6,298.8,189.9z M301.1,184.3v0.8h-1.5v2.7h-0.9v-6h0.9v2.5H301.1z"/>
			<path class="st3" d="M306.8,184.4c-0.6,1.6-2.1,2.7-4.3,3.4l-0.4-0.7c2.4-0.7,3.8-2,4-3.7h-3.5v-0.7h4.5c0,0.4,0,0.7-0.1,1.1h2.2
				v-1.8h0.9v5.9h-0.9v-1.3h-2.6v-0.7h2.6v-1.3H306.8z M310.2,189.7c0,1.2-1.3,1.9-3.3,1.9s-3.3-0.7-3.3-1.9c0-1.2,1.3-1.9,3.3-1.9
				S310.2,188.6,310.2,189.7z M309.4,189.7c0-0.7-0.9-1.2-2.4-1.2s-2.4,0.5-2.4,1.2c0,0.7,0.9,1.2,2.4,1.2S309.4,190.5,309.4,189.7z
				"/>
			<path class="st3" d="M318.4,188c-2.1,0.4-4.5,0.4-6.2,0.4l-0.1-0.7c0.8,0,1.7,0,2.6,0v-0.7c-1.1-0.1-1.9-0.7-1.9-1.5
				c0-0.9,0.9-1.5,2.3-1.5c1.4,0,2.3,0.6,2.3,1.5c0,0.8-0.7,1.4-1.8,1.5v0.7c0.9,0,1.8-0.1,2.7-0.3L318.4,188z M318.1,183.5h-5.7
				v-0.7h2.4v-1h0.9v1h2.4V183.5z M314.5,190.7h5.7v0.7h-6.6V189h0.9V190.7z M315.2,186.3c0.9,0,1.4-0.3,1.4-0.9
				c0-0.5-0.6-0.9-1.4-0.9c-0.9,0-1.5,0.3-1.5,0.9C313.8,185.9,314.3,186.3,315.2,186.3z M321.3,185.3v0.7h-1.4v3.5h-0.9v-7.7h0.9
				v3.4H321.3z"/>
		</g>
		<g class="st1">
			<path class="st3" d="M258.8,205.4c-1.5,0-2.6-1-2.6-2.4c0-1.4,1.1-2.4,2.6-2.4c1.5,0,2.6,1,2.6,2.4
				C261.4,204.4,260.3,205.4,258.8,205.4z M258.8,204.6c1,0,1.7-0.7,1.7-1.7c0-1-0.7-1.7-1.7-1.7c-1,0-1.7,0.7-1.7,1.7
				C257.1,203.9,257.9,204.6,258.8,204.6z M258.5,208.7h5.7v0.7h-6.6v-3.1h0.9V208.7z M265.2,202.8v0.7h-1.5v3.5h-0.9v-7.3h0.9v3
				H265.2z"/>
			<path class="st3" d="M271.3,200.8v6.4h-4.5v-6.4H271.3z M267.6,201.5v5h2.8v-5H267.6z M274.3,199.8v9.9h-0.9v-9.9H274.3z"/>
			<path class="st3" d="M281.7,205.3c-1.1-0.4-1.9-1.2-2.4-2.2c-0.4,1.1-1.3,2.1-2.5,2.5l-0.5-0.7c1.5-0.5,2.5-1.9,2.5-3.3v-0.3
				h-2.2v-0.7h5.3v0.7h-2.2v0.3c0,1.3,1,2.5,2.4,3L281.7,205.3z M284.5,207.9c0,1.2-1.3,1.8-3.3,1.8c-2,0-3.3-0.7-3.3-1.8
				s1.3-1.8,3.3-1.8C283.2,206,284.5,206.7,284.5,207.9z M283.6,207.9c0-0.7-0.9-1.1-2.4-1.1c-1.5,0-2.4,0.4-2.4,1.1
				c0,0.7,0.9,1.1,2.4,1.1C282.7,209,283.6,208.6,283.6,207.9z M283.5,202.4v-2.6h0.9v5.9h-0.9v-2.6h-1.9v-0.7H283.5z"/>
			<path class="st3" d="M286.4,210.4c0.7-0.3,1.1-0.8,1.1-1.5c0,0-0.1,0-0.1,0c-0.4,0-0.7-0.2-0.7-0.7c0-0.4,0.4-0.7,0.8-0.7
				c0.5,0,0.8,0.5,0.8,1.2c0,1.1-0.6,1.9-1.6,2.3L286.4,210.4z"/>
			<path class="st3" d="M296.9,200.6c0,2.5-1.7,4.3-4.6,5.2L292,205c2.3-0.7,3.8-2,4-3.7h-3.6v-0.7H296.9z M299.7,207.8
				c0,1.2-1.3,1.9-3.2,1.9s-3.2-0.7-3.2-1.9c0-1.2,1.3-1.9,3.2-1.9S299.7,206.6,299.7,207.8z M298.8,207.8c0-0.8-0.9-1.2-2.3-1.2
				c-1.4,0-2.3,0.5-2.3,1.2c0,0.7,0.9,1.2,2.3,1.2C297.9,209,298.8,208.5,298.8,207.8z M301.1,202.4v0.7h-1.5v2.6h-0.9v-5.9h0.9v2.6
				H301.1z"/>
			<path class="st3" d="M307.7,205.6c-1.1-0.4-2-1.2-2.5-2.2c-0.4,1.1-1.3,2-2.5,2.4l-0.5-0.7c1.5-0.5,2.5-1.8,2.5-3.2v-0.5h-2.3
				v-0.7h5.4v0.7h-2.2v0.5c0,1.3,1,2.5,2.5,3L307.7,205.6z M310.5,208.7v0.7h-6.6v-3.1h0.9v2.4H310.5z M310.2,207.1h-0.9v-7.2h0.9
				V207.1z"/>
			<path class="st3" d="M317.3,204c0,2.1-1,3.4-2.5,3.4s-2.5-1.3-2.5-3.4s1-3.4,2.5-3.4S317.3,201.9,317.3,204z M316.4,204
				c0-1.6-0.7-2.6-1.6-2.6c-1,0-1.6,1-1.6,2.6c0,1.6,0.7,2.6,1.6,2.6C315.8,206.7,316.4,205.6,316.4,204z M321.4,204.5h-1.6v5.2
				h-0.9v-9.9h0.9v3.9h1.6V204.5z"/>
		</g>
		<g class="st1">
			<path class="st3" d="M256.8,232.6c-1.1-0.4-2-1.1-2.4-2.1c-0.4,1.1-1.3,2-2.5,2.4l-0.5-0.7c1.5-0.5,2.5-1.8,2.5-3.2v-0.4h-2.2
				v-0.7h5.3v0.7h-2.2v0.4c0,1.3,0.9,2.4,2.4,2.9L256.8,232.6z M259.3,235.1c0,1.2-1.2,1.8-3.2,1.8c-2,0-3.3-0.7-3.3-1.8
				c0-1.1,1.2-1.8,3.3-1.8C258,233.3,259.3,234,259.3,235.1z M258.4,235.1c0-0.7-0.9-1.1-2.3-1.1c-1.5,0-2.4,0.4-2.4,1.1
				c0,0.7,0.9,1.1,2.4,1.1C257.5,236.2,258.4,235.8,258.4,235.1z M260.6,229.6v0.8h-1.5v2.7h-0.9v-6h0.9v2.5H260.6z"/>
			<path class="st3" d="M266.4,229.6c-0.6,1.6-2.1,2.7-4.3,3.4l-0.4-0.7c2.4-0.7,3.8-2,4-3.7h-3.5v-0.7h4.5c0,0.4,0,0.7-0.1,1.1h2.2
				v-1.8h0.9v5.9h-0.9v-1.3h-2.6V231h2.6v-1.3H266.4z M269.8,235c0,1.2-1.3,1.9-3.3,1.9c-2,0-3.3-0.7-3.3-1.9c0-1.2,1.3-1.9,3.3-1.9
				C268.5,233.1,269.8,233.8,269.8,235z M268.9,235c0-0.7-0.9-1.2-2.4-1.2c-1.5,0-2.4,0.5-2.4,1.2c0,0.7,0.9,1.2,2.4,1.2
				C268,236.2,268.9,235.8,268.9,235z"/>
			<path class="st3" d="M278,233.2c-2.1,0.4-4.5,0.4-6.2,0.4l-0.1-0.7c0.8,0,1.7,0,2.6,0v-0.7c-1.1-0.1-1.9-0.7-1.9-1.5
				c0-0.9,0.9-1.5,2.3-1.5c1.4,0,2.3,0.6,2.3,1.5c0,0.8-0.7,1.4-1.8,1.5v0.7c0.9,0,1.8-0.1,2.7-0.3L278,233.2z M277.6,228.7h-5.7
				V228h2.4v-1h0.9v1h2.4V228.7z M274.1,236h5.7v0.7h-6.6v-2.4h0.9V236z M274.8,231.5c0.9,0,1.4-0.3,1.4-0.9c0-0.5-0.6-0.9-1.4-0.9
				c-0.9,0-1.5,0.3-1.5,0.9C273.3,231.2,273.9,231.5,274.8,231.5z M280.8,230.5v0.7h-1.4v3.5h-0.9v-7.7h0.9v3.4H280.8z"/>
			<path class="st3" d="M282.5,230.6l0.7-1.1L282,229l0.2-0.6l1.3,0.3l0.1-1.3h0.6l0.1,1.3l1.3-0.3l0.2,0.6l-1.2,0.5l0.7,1.1
				l-0.5,0.4l-0.9-1l-0.9,1L282.5,230.6z"/>
			<path class="st3" d="M287,237.6c0.7-0.3,1.1-0.8,1.1-1.5c0,0-0.1,0-0.1,0c-0.4,0-0.7-0.2-0.7-0.7c0-0.4,0.4-0.7,0.8-0.7
				c0.5,0,0.8,0.5,0.8,1.2c0,1.1-0.6,1.9-1.6,2.3L287,237.6z"/>
			<path class="st3" d="M298.4,229h-5.8v-0.7h2.5v-1.2h0.9v1.2h2.5V229z M295.5,233.2c-1.4,0-2.4-0.7-2.4-1.8c0-1.1,1-1.8,2.4-1.8
				c1.4,0,2.4,0.7,2.4,1.8C297.8,232.5,296.9,233.2,295.5,233.2z M295.5,232.5c0.9,0,1.5-0.4,1.5-1.1c0-0.7-0.6-1.1-1.5-1.1
				c-0.9,0-1.5,0.4-1.5,1.1C294,232.1,294.6,232.5,295.5,232.5z M294.9,236h5.7v0.7H294v-2.8h0.9V236z M301.6,230.3v0.8h-1.5v3.4
				h-0.9v-7.4h0.9v3.3H301.6z"/>
			<path class="st3" d="M311.6,233.7h-4v3.3h-0.9v-3.3h-4v-0.7h9V233.7z M310.4,231.7h-6.7v-4.3h0.9v1.4h4.9v-1.4h0.9V231.7z
				 M309.5,229.6h-4.9v1.5h4.9V229.6z"/>
			<path class="st3" d="M319,233.2c-2.1,0.4-4.5,0.4-6.2,0.4l-0.1-0.7c0.8,0,1.7,0,2.6,0v-0.7c-1.1-0.1-1.9-0.7-1.9-1.5
				c0-0.9,0.9-1.5,2.3-1.5c1.4,0,2.3,0.6,2.3,1.5c0,0.8-0.7,1.4-1.8,1.5v0.7c0.9,0,1.8-0.1,2.7-0.3L319,233.2z M318.6,228.7H313V228
				h2.4v-1h0.9v1h2.4V228.7z M315.1,236h5.7v0.7h-6.6v-2.4h0.9V236z M315.8,231.5c0.9,0,1.4-0.3,1.4-0.9c0-0.5-0.6-0.9-1.4-0.9
				c-0.9,0-1.5,0.3-1.5,0.9C314.3,231.2,314.9,231.5,315.8,231.5z M321.8,230.5v0.7h-1.4v3.5h-0.9v-7.7h0.9v3.4H321.8z"/>
		</g>
		<g class="st1">
			<path class="st3" d="M256.8,250.6c-1.5,0-2.6-1-2.6-2.4c0-1.4,1.1-2.4,2.6-2.4c1.5,0,2.6,1,2.6,2.4
				C259.4,249.6,258.3,250.6,256.8,250.6z M256.8,249.9c1,0,1.7-0.7,1.7-1.7c0-1-0.7-1.7-1.7-1.7c-1,0-1.7,0.7-1.7,1.7
				C255.1,249.2,255.9,249.9,256.8,249.9z M256.5,254h5.7v0.7h-6.6v-3.1h0.9V254z M263.2,248.1v0.7h-1.5v3.5h-0.9v-7.3h0.9v3H263.2z
				"/>
			<path class="st3" d="M269.3,246v6.4h-4.5V246H269.3z M265.6,246.8v5h2.8v-5H265.6z M272.3,245.1v9.9h-0.9v-9.9H272.3z"/>
			<path class="st3" d="M279.7,250.6c-1.1-0.4-1.9-1.2-2.4-2.2c-0.4,1.1-1.3,2.1-2.5,2.5l-0.5-0.7c1.5-0.5,2.5-1.9,2.5-3.3v-0.3
				h-2.2v-0.7h5.3v0.7h-2.2v0.3c0,1.3,1,2.5,2.4,3L279.7,250.6z M282.5,253.1c0,1.2-1.3,1.8-3.3,1.8c-2,0-3.3-0.7-3.3-1.8
				s1.3-1.8,3.3-1.8C281.2,251.3,282.5,251.9,282.5,253.1z M281.6,253.1c0-0.7-0.9-1.1-2.4-1.1c-1.5,0-2.4,0.4-2.4,1.1
				c0,0.7,0.9,1.1,2.4,1.1C280.7,254.2,281.6,253.8,281.6,253.1z M281.5,247.6v-2.6h0.9v5.9h-0.9v-2.6h-1.9v-0.7H281.5z"/>
			<path class="st3" d="M284.4,255.6c0.7-0.3,1.1-0.8,1.1-1.5c0,0-0.1,0-0.1,0c-0.4,0-0.7-0.2-0.7-0.7c0-0.4,0.4-0.7,0.8-0.7
				c0.5,0,0.8,0.5,0.8,1.2c0,1.1-0.6,1.9-1.6,2.3L284.4,255.6z"/>
			<path class="st3" d="M294.9,245.8c0,2.5-1.7,4.3-4.6,5.2l-0.4-0.7c2.3-0.7,3.8-2,4-3.7h-3.6v-0.7H294.9z M297.7,253
				c0,1.2-1.3,1.9-3.2,1.9s-3.2-0.7-3.2-1.9c0-1.2,1.3-1.9,3.2-1.9S297.7,251.8,297.7,253z M296.8,253c0-0.8-0.9-1.2-2.3-1.2
				c-1.4,0-2.3,0.5-2.3,1.2c0,0.7,0.9,1.2,2.3,1.2C295.9,254.2,296.8,253.8,296.8,253z M299.1,247.6v0.7h-1.5v2.6h-0.9v-5.9h0.9v2.6
				H299.1z"/>
			<path class="st3" d="M305.7,250.9c-1.1-0.4-2-1.2-2.5-2.2c-0.4,1.1-1.3,2-2.5,2.4l-0.5-0.7c1.5-0.5,2.5-1.8,2.5-3.2v-0.5h-2.3
				v-0.7h5.4v0.7h-2.2v0.5c0,1.3,1,2.5,2.5,3L305.7,250.9z M308.5,254v0.7h-6.6v-3.1h0.9v2.4H308.5z M308.2,252.3h-0.9v-7.2h0.9
				V252.3z"/>
			<path class="st3" d="M315.3,249.3c0,2.1-1,3.4-2.5,3.4s-2.5-1.3-2.5-3.4s1-3.4,2.5-3.4S315.3,247.2,315.3,249.3z M314.4,249.3
				c0-1.6-0.7-2.6-1.6-2.6c-1,0-1.6,1-1.6,2.6c0,1.6,0.7,2.6,1.6,2.6C313.8,251.9,314.4,250.9,314.4,249.3z M319.4,249.8h-1.6v5.2
				h-0.9v-9.9h0.9v3.9h1.6V249.8z"/>
		</g>
		<g class="st1">
			<path class="st3" d="M254.3,139.4c-1.5,0-2.6-1-2.6-2.4c0-1.4,1.1-2.4,2.6-2.4s2.6,1,2.6,2.4
				C256.8,138.4,255.7,139.4,254.3,139.4z M254.3,138.6c1,0,1.7-0.7,1.7-1.7c0-1-0.7-1.7-1.7-1.7c-1,0-1.7,0.7-1.7,1.7
				C252.6,137.9,253.3,138.6,254.3,138.6z M253.9,142.7h5.7v0.7H253v-3.1h0.9V142.7z M260.6,136.8v0.7h-1.5v3.5h-0.9v-7.3h0.9v3
				H260.6z"/>
			<path class="st3" d="M266.7,134.8v6.4h-4.5v-6.4H266.7z M263.1,135.5v5h2.8v-5H263.1z M269.7,133.8v9.9h-0.9v-9.9H269.7z"/>
			<path class="st3" d="M277.1,139.3c-1.1-0.4-1.9-1.2-2.4-2.2c-0.4,1.1-1.3,2.1-2.5,2.5l-0.5-0.7c1.5-0.5,2.5-1.9,2.5-3.3v-0.3
				h-2.2v-0.7h5.3v0.7h-2.2v0.3c0,1.3,1,2.5,2.4,3L277.1,139.3z M279.9,141.8c0,1.2-1.3,1.8-3.3,1.8c-2,0-3.3-0.7-3.3-1.8
				s1.3-1.8,3.3-1.8C278.6,140,279.9,140.7,279.9,141.8z M279,141.8c0-0.7-0.9-1.1-2.4-1.1c-1.5,0-2.4,0.4-2.4,1.1
				c0,0.7,0.9,1.1,2.4,1.1C278.1,143,279,142.6,279,141.8z M279,136.4v-2.6h0.9v5.9H279v-2.6H277v-0.7H279z"/>
			<path class="st3" d="M282.5,137.3l0.7-1.1l-1.2-0.5l0.2-0.6l1.3,0.3l0.1-1.3h0.6l0.1,1.3l1.3-0.3l0.2,0.6l-1.2,0.5l0.7,1.1
				l-0.5,0.4l-0.9-1l-0.9,1L282.5,137.3z"/>
			<path class="st3" d="M287,144.4c0.7-0.3,1.1-0.8,1.1-1.5c0,0-0.1,0-0.1,0c-0.4,0-0.7-0.2-0.7-0.7c0-0.4,0.4-0.7,0.8-0.7
				c0.5,0,0.8,0.5,0.8,1.2c0,1.1-0.6,1.9-1.6,2.3L287,144.4z"/>
			<path class="st3" d="M298.4,135.7h-5.8V135h2.5v-1.2h0.9v1.2h2.5V135.7z M295.5,140c-1.4,0-2.4-0.7-2.4-1.8c0-1.1,1-1.8,2.4-1.8
				c1.4,0,2.4,0.7,2.4,1.8C297.8,139.2,296.9,140,295.5,140z M295.5,139.3c0.9,0,1.5-0.4,1.5-1.1c0-0.7-0.6-1.1-1.5-1.1
				c-0.9,0-1.5,0.4-1.5,1.1C294,138.8,294.6,139.3,295.5,139.3z M294.9,142.7h5.7v0.7H294v-2.8h0.9V142.7z M301.6,137.1v0.8h-1.5
				v3.4h-0.9v-7.4h0.9v3.3H301.6z"/>
			<path class="st3" d="M311.6,140.4h-4v3.3h-0.9v-3.3h-4v-0.7h9V140.4z M310.4,138.5h-6.7v-4.3h0.9v1.4h4.9v-1.4h0.9V138.5z
				 M309.5,136.3h-4.9v1.5h4.9V136.3z"/>
			<path class="st3" d="M319,140c-2.1,0.4-4.5,0.4-6.2,0.4l-0.1-0.7c0.8,0,1.7,0,2.6,0v-0.7c-1.1-0.1-1.9-0.7-1.9-1.5
				c0-0.9,0.9-1.5,2.3-1.5c1.4,0,2.3,0.6,2.3,1.5c0,0.8-0.7,1.4-1.8,1.5v0.7c0.9,0,1.8-0.1,2.7-0.3L319,140z M318.6,135.5H313v-0.7
				h2.4v-1h0.9v1h2.4V135.5z M315.1,142.7h5.7v0.7h-6.6V141h0.9V142.7z M315.8,138.3c0.9,0,1.4-0.3,1.4-0.9c0-0.5-0.6-0.9-1.4-0.9
				c-0.9,0-1.5,0.3-1.5,0.9C314.3,137.9,314.9,138.3,315.8,138.3z M321.8,137.3v0.7h-1.4v3.5h-0.9v-7.7h0.9v3.4H321.8z"/>
		</g>
		<g class="st1">
			<path class="st3" d="M259.4,157.3c-1.1-0.4-2-1.1-2.4-2.1c-0.4,1.1-1.3,2-2.5,2.4l-0.5-0.7c1.5-0.5,2.5-1.8,2.5-3.2v-0.4h-2.2
				v-0.7h5.3v0.7h-2.2v0.4c0,1.3,0.9,2.4,2.4,2.9L259.4,157.3z M261.8,159.8c0,1.2-1.2,1.8-3.2,1.8c-2,0-3.3-0.7-3.3-1.8
				c0-1.1,1.2-1.8,3.3-1.8C260.6,158,261.8,158.7,261.8,159.8z M260.9,159.8c0-0.7-0.9-1.1-2.3-1.1c-1.5,0-2.4,0.4-2.4,1.1
				c0,0.7,0.9,1.1,2.4,1.1C260,161,260.9,160.5,260.9,159.8z M263.2,154.3v0.8h-1.5v2.7h-0.9v-6h0.9v2.5H263.2z"/>
			<path class="st3" d="M268.9,154.4c-0.6,1.6-2.1,2.7-4.3,3.4l-0.4-0.7c2.4-0.7,3.8-2,4-3.7h-3.5v-0.7h4.5c0,0.4,0,0.7-0.1,1.1h2.2
				v-1.8h0.9v5.9h-0.9v-1.3h-2.6v-0.7h2.6v-1.3H268.9z M272.4,159.7c0,1.2-1.3,1.9-3.3,1.9s-3.3-0.7-3.3-1.9c0-1.2,1.3-1.9,3.3-1.9
				S272.4,158.5,272.4,159.7z M271.5,159.7c0-0.7-0.9-1.2-2.4-1.2s-2.4,0.5-2.4,1.2c0,0.7,0.9,1.2,2.4,1.2S271.5,160.5,271.5,159.7z
				"/>
			<path class="st3" d="M280.5,158c-2.1,0.4-4.5,0.4-6.2,0.4l-0.1-0.7c0.8,0,1.7,0,2.6,0v-0.7c-1.1-0.1-1.9-0.7-1.9-1.5
				c0-0.9,0.9-1.5,2.3-1.5c1.4,0,2.3,0.6,2.3,1.5c0,0.8-0.7,1.4-1.8,1.5v0.7c0.9,0,1.8-0.1,2.7-0.3L280.5,158z M280.2,153.5h-5.7
				v-0.7h2.4v-1h0.9v1h2.4V153.5z M276.6,160.7h5.7v0.7h-6.6V159h0.9V160.7z M277.3,156.3c0.9,0,1.4-0.3,1.4-0.9
				c0-0.5-0.6-0.9-1.4-0.9c-0.9,0-1.5,0.3-1.5,0.9C275.9,155.9,276.5,156.3,277.3,156.3z M283.4,155.3v0.7H282v3.5h-0.9v-7.7h0.9
				v3.4H283.4z"/>
			<path class="st3" d="M284.4,162.4c0.7-0.3,1.1-0.8,1.1-1.5c0,0-0.1,0-0.1,0c-0.4,0-0.7-0.2-0.7-0.7c0-0.4,0.4-0.7,0.8-0.7
				c0.5,0,0.8,0.5,0.8,1.2c0,1.1-0.6,1.9-1.6,2.3L284.4,162.4z"/>
			<path class="st3" d="M294.9,152.5c0,2.5-1.7,4.3-4.6,5.2L290,157c2.3-0.7,3.8-2,4-3.7h-3.6v-0.7H294.9z M297.7,159.8
				c0,1.2-1.3,1.9-3.2,1.9s-3.2-0.7-3.2-1.9c0-1.2,1.3-1.9,3.2-1.9S297.7,158.6,297.7,159.8z M296.8,159.8c0-0.8-0.9-1.2-2.3-1.2
				c-1.4,0-2.3,0.5-2.3,1.2c0,0.7,0.9,1.2,2.3,1.2C295.9,161,296.8,160.5,296.8,159.8z M299.1,154.4v0.7h-1.5v2.6h-0.9v-5.9h0.9v2.6
				H299.1z"/>
			<path class="st3" d="M305.7,157.6c-1.1-0.4-2-1.2-2.5-2.2c-0.4,1.1-1.3,2-2.5,2.4l-0.5-0.7c1.5-0.5,2.5-1.8,2.5-3.2v-0.5h-2.3
				v-0.7h5.4v0.7h-2.2v0.5c0,1.3,1,2.5,2.5,3L305.7,157.6z M308.5,160.7v0.7h-6.6v-3.1h0.9v2.4H308.5z M308.2,159h-0.9v-7.2h0.9V159
				z"/>
			<path class="st3" d="M315.3,156c0,2.1-1,3.4-2.5,3.4s-2.5-1.3-2.5-3.4s1-3.4,2.5-3.4S315.3,153.9,315.3,156z M314.4,156
				c0-1.6-0.7-2.6-1.6-2.6c-1,0-1.6,1-1.6,2.6c0,1.6,0.7,2.6,1.6,2.6C313.8,158.7,314.4,157.6,314.4,156z M319.4,156.5h-1.6v5.2
				h-0.9v-9.9h0.9v3.9h1.6V156.5z"/>
		</g>
		<g class="st1">
			<path class="st3" d="M257.4,276.9h-5.8v-0.7h2.5v-1.2h0.9v1.2h2.5V276.9z M254.4,281.1c-1.4,0-2.4-0.7-2.4-1.8
				c0-1.1,1-1.8,2.4-1.8s2.4,0.7,2.4,1.8C256.8,280.4,255.8,281.1,254.4,281.1z M254.4,280.4c0.9,0,1.5-0.4,1.5-1.1
				c0-0.7-0.6-1.1-1.5-1.1s-1.5,0.4-1.5,1.1C252.9,279.9,253.5,280.4,254.4,280.4z M253.9,283.9h5.7v0.7H253v-2.8h0.9V283.9z
				 M260.6,278.2v0.8h-1.5v3.4h-0.9v-7.4h0.9v3.3H260.6z"/>
			<path class="st3" d="M270.6,281.5h-4v3.3h-0.9v-3.3h-4v-0.7h9V281.5z M269.4,279.6h-6.7v-4.3h0.9v1.4h4.9v-1.4h0.9V279.6z
				 M268.5,277.4h-4.9v1.5h4.9V277.4z"/>
			<path class="st3" d="M278,281.1c-2.1,0.4-4.5,0.4-6.2,0.4l-0.1-0.7c0.8,0,1.7,0,2.6,0V280c-1.1-0.1-1.9-0.7-1.9-1.5
				c0-0.9,0.9-1.5,2.3-1.5c1.4,0,2.3,0.6,2.3,1.5c0,0.8-0.7,1.4-1.8,1.5v0.7c0.9,0,1.8-0.1,2.7-0.3L278,281.1z M277.6,276.6h-5.7
				v-0.7h2.4v-1h0.9v1h2.4V276.6z M274.1,283.9h5.7v0.7h-6.6v-2.4h0.9V283.9z M274.8,279.4c0.9,0,1.4-0.3,1.4-0.9
				c0-0.5-0.6-0.9-1.4-0.9c-0.9,0-1.5,0.3-1.5,0.9C273.3,279.1,273.9,279.4,274.8,279.4z M280.8,278.4v0.7h-1.4v3.5h-0.9v-7.7h0.9
				v3.4H280.8z"/>
			<path class="st3" d="M282.5,278.5l0.7-1.1l-1.2-0.5l0.2-0.6l1.3,0.3l0.1-1.3h0.6l0.1,1.3l1.3-0.3l0.2,0.6l-1.2,0.5l0.7,1.1
				l-0.5,0.4l-0.9-1l-0.9,1L282.5,278.5z"/>
			<path class="st3" d="M287,285.5c0.7-0.3,1.1-0.8,1.1-1.5c0,0-0.1,0-0.1,0c-0.4,0-0.7-0.2-0.7-0.7c0-0.4,0.4-0.7,0.8-0.7
				c0.5,0,0.8,0.5,0.8,1.2c0,1.1-0.6,1.9-1.6,2.3L287,285.5z"/>
			<path class="st3" d="M297.8,280.4c-1.1-0.4-2-1.1-2.4-2.1c-0.4,1.1-1.3,2-2.5,2.4l-0.5-0.7c1.5-0.5,2.5-1.8,2.5-3.2v-0.4h-2.2
				v-0.7h5.3v0.7h-2.2v0.4c0,1.3,0.9,2.4,2.4,2.9L297.8,280.4z M300.3,283c0,1.2-1.2,1.8-3.2,1.8c-2,0-3.3-0.7-3.3-1.8
				c0-1.1,1.2-1.8,3.3-1.8C299,281.2,300.3,281.8,300.3,283z M299.4,283c0-0.7-0.9-1.1-2.3-1.1c-1.5,0-2.4,0.4-2.4,1.1
				c0,0.7,0.9,1.1,2.4,1.1C298.5,284.1,299.4,283.7,299.4,283z M301.6,277.4v0.8h-1.5v2.7h-0.9v-6h0.9v2.5H301.6z"/>
			<path class="st3" d="M307.4,277.5c-0.6,1.6-2.1,2.7-4.3,3.4l-0.4-0.7c2.4-0.7,3.8-2,4-3.7h-3.5v-0.7h4.5c0,0.4,0,0.7-0.1,1.1h2.2
				V275h0.9v5.9h-0.9v-1.3h-2.6v-0.7h2.6v-1.3H307.4z M310.8,282.9c0,1.2-1.3,1.9-3.3,1.9c-2,0-3.3-0.7-3.3-1.9
				c0-1.2,1.3-1.9,3.3-1.9C309.5,281,310.8,281.7,310.8,282.9z M309.9,282.9c0-0.7-0.9-1.2-2.4-1.2c-1.5,0-2.4,0.5-2.4,1.2
				c0,0.7,0.9,1.2,2.4,1.2C309,284.1,309.9,283.6,309.9,282.9z"/>
			<path class="st3" d="M319,281.1c-2.1,0.4-4.5,0.4-6.2,0.4l-0.1-0.7c0.8,0,1.7,0,2.6,0V280c-1.1-0.1-1.9-0.7-1.9-1.5
				c0-0.9,0.9-1.5,2.3-1.5c1.4,0,2.3,0.6,2.3,1.5c0,0.8-0.7,1.4-1.8,1.5v0.7c0.9,0,1.8-0.1,2.7-0.3L319,281.1z M318.6,276.6H313
				v-0.7h2.4v-1h0.9v1h2.4V276.6z M315.1,283.9h5.7v0.7h-6.6v-2.4h0.9V283.9z M315.8,279.4c0.9,0,1.4-0.3,1.4-0.9
				c0-0.5-0.6-0.9-1.4-0.9c-0.9,0-1.5,0.3-1.5,0.9C314.3,279.1,314.9,279.4,315.8,279.4z M321.8,278.4v0.7h-1.4v3.5h-0.9v-7.7h0.9
				v3.4H321.8z"/>
		</g>
		<g class="st1">
			<path class="st3" d="M256.8,298.5c-1.5,0-2.6-1-2.6-2.4c0-1.4,1.1-2.4,2.6-2.4c1.5,0,2.6,1,2.6,2.4
				C259.4,297.5,258.3,298.5,256.8,298.5z M256.8,297.7c1,0,1.7-0.7,1.7-1.7c0-1-0.7-1.7-1.7-1.7c-1,0-1.7,0.7-1.7,1.7
				C255.1,297,255.9,297.7,256.8,297.7z M256.5,301.9h5.7v0.7h-6.6v-3.1h0.9V301.9z M263.2,295.9v0.7h-1.5v3.5h-0.9v-7.3h0.9v3
				H263.2z"/>
			<path class="st3" d="M269.3,293.9v6.4h-4.5v-6.4H269.3z M265.6,294.6v5h2.8v-5H265.6z M272.3,292.9v9.9h-0.9v-9.9H272.3z"/>
			<path class="st3" d="M279.7,298.5c-1.1-0.4-1.9-1.2-2.4-2.2c-0.4,1.1-1.3,2.1-2.5,2.5l-0.5-0.7c1.5-0.5,2.5-1.9,2.5-3.3v-0.3
				h-2.2v-0.7h5.3v0.7h-2.2v0.3c0,1.3,1,2.5,2.4,3L279.7,298.5z M282.5,301c0,1.2-1.3,1.8-3.3,1.8c-2,0-3.3-0.7-3.3-1.8
				s1.3-1.8,3.3-1.8C281.2,299.1,282.5,299.8,282.5,301z M281.6,301c0-0.7-0.9-1.1-2.4-1.1c-1.5,0-2.4,0.4-2.4,1.1
				c0,0.7,0.9,1.1,2.4,1.1C280.7,302.1,281.6,301.7,281.6,301z M281.5,295.5V293h0.9v5.9h-0.9v-2.6h-1.9v-0.7H281.5z"/>
			<path class="st3" d="M284.4,303.5c0.7-0.3,1.1-0.8,1.1-1.5c0,0-0.1,0-0.1,0c-0.4,0-0.7-0.2-0.7-0.7c0-0.4,0.4-0.7,0.8-0.7
				c0.5,0,0.8,0.5,0.8,1.2c0,1.1-0.6,1.9-1.6,2.3L284.4,303.5z"/>
			<path class="st3" d="M294.9,293.7c0,2.5-1.7,4.3-4.6,5.2l-0.4-0.7c2.3-0.7,3.8-2,4-3.7h-3.6v-0.7H294.9z M297.7,300.9
				c0,1.2-1.3,1.9-3.2,1.9s-3.2-0.7-3.2-1.9c0-1.2,1.3-1.9,3.2-1.9S297.7,299.7,297.7,300.9z M296.8,300.9c0-0.8-0.9-1.2-2.3-1.2
				c-1.4,0-2.3,0.5-2.3,1.2c0,0.7,0.9,1.2,2.3,1.2C295.9,302.1,296.8,301.6,296.8,300.9z M299.1,295.5v0.7h-1.5v2.6h-0.9v-5.9h0.9
				v2.6H299.1z"/>
			<path class="st3" d="M305.7,298.8c-1.1-0.4-2-1.2-2.5-2.2c-0.4,1.1-1.3,2-2.5,2.4l-0.5-0.7c1.5-0.5,2.5-1.8,2.5-3.2v-0.5h-2.3
				v-0.7h5.4v0.7h-2.2v0.5c0,1.3,1,2.5,2.5,3L305.7,298.8z M308.5,301.9v0.7h-6.6v-3.1h0.9v2.4H308.5z M308.2,300.2h-0.9V293h0.9
				V300.2z"/>
			<path class="st3" d="M315.3,297.1c0,2.1-1,3.4-2.5,3.4s-2.5-1.3-2.5-3.4s1-3.4,2.5-3.4S315.3,295,315.3,297.1z M314.4,297.1
				c0-1.6-0.7-2.6-1.6-2.6c-1,0-1.6,1-1.6,2.6c0,1.6,0.7,2.6,1.6,2.6C313.8,299.8,314.4,298.7,314.4,297.1z M319.4,297.6h-1.6v5.2
				h-0.9V293h0.9v3.9h1.6V297.6z"/>
		</g>
		<g class="st1">
			<path class="st3" d="M261.9,324.7h-5.8V324h2.5v-1.2h0.9v1.2h2.5V324.7z M259,328.9c-1.4,0-2.4-0.7-2.4-1.8c0-1.1,1-1.8,2.4-1.8
				c1.4,0,2.4,0.7,2.4,1.8C261.4,328.2,260.4,328.9,259,328.9z M259,328.2c0.9,0,1.5-0.4,1.5-1.1c0-0.7-0.6-1.1-1.5-1.1
				c-0.9,0-1.5,0.4-1.5,1.1C257.5,327.8,258.1,328.2,259,328.2z M258.5,331.7h5.7v0.7h-6.6v-2.8h0.9V331.7z M265.2,326.1v0.8h-1.5
				v3.4h-0.9v-7.4h0.9v3.3H265.2z"/>
			<path class="st3" d="M275.1,329.4h-4v3.3h-0.9v-3.3h-4v-0.7h9V329.4z M274,327.5h-6.7v-4.3h0.9v1.4h4.9v-1.4h0.9V327.5z
				 M273.1,325.3h-4.9v1.5h4.9V325.3z"/>
			<path class="st3" d="M282.5,329c-2.1,0.4-4.5,0.4-6.2,0.4l-0.1-0.7c0.8,0,1.7,0,2.6,0v-0.7c-1.1-0.1-1.9-0.7-1.9-1.5
				c0-0.9,0.9-1.5,2.3-1.5c1.4,0,2.3,0.6,2.3,1.5c0,0.8-0.7,1.4-1.8,1.5v0.7c0.9,0,1.8-0.1,2.7-0.3L282.5,329z M282.2,324.4h-5.7
				v-0.7h2.4v-1h0.9v1h2.4V324.4z M278.6,331.7h5.7v0.7h-6.6V330h0.9V331.7z M279.3,327.2c0.9,0,1.4-0.3,1.4-0.9
				c0-0.5-0.6-0.9-1.4-0.9c-0.9,0-1.5,0.3-1.5,0.9C277.9,326.9,278.5,327.2,279.3,327.2z M285.4,326.2v0.7H284v3.5h-0.9v-7.7h0.9
				v3.4H285.4z"/>
			<path class="st3" d="M286.4,333.3c0.7-0.3,1.1-0.8,1.1-1.5c0,0-0.1,0-0.1,0c-0.4,0-0.7-0.2-0.7-0.7c0-0.4,0.4-0.7,0.8-0.7
				c0.5,0,0.8,0.5,0.8,1.2c0,1.1-0.6,1.9-1.6,2.3L286.4,333.3z"/>
			<path class="st3" d="M297.2,328.3c-1.1-0.4-2-1.1-2.4-2.1c-0.4,1.1-1.3,2-2.5,2.4l-0.5-0.7c1.5-0.5,2.5-1.8,2.5-3.2v-0.4h-2.2
				v-0.7h5.3v0.7h-2.2v0.4c0,1.3,0.9,2.4,2.4,2.9L297.2,328.3z M299.7,330.8c0,1.2-1.2,1.8-3.2,1.8c-2,0-3.3-0.7-3.3-1.8
				c0-1.1,1.2-1.8,3.3-1.8C298.5,329,299.7,329.7,299.7,330.8z M298.8,330.8c0-0.7-0.9-1.1-2.3-1.1c-1.5,0-2.4,0.4-2.4,1.1
				c0,0.7,0.9,1.1,2.4,1.1C297.9,331.9,298.8,331.5,298.8,330.8z M301.1,325.3v0.8h-1.5v2.7h-0.9v-6h0.9v2.5H301.1z"/>
			<path class="st3" d="M306.8,325.4c-0.6,1.6-2.1,2.7-4.3,3.4l-0.4-0.7c2.4-0.7,3.8-2,4-3.7h-3.5v-0.7h4.5c0,0.4,0,0.7-0.1,1.1h2.2
				v-1.8h0.9v5.9h-0.9v-1.3h-2.6v-0.7h2.6v-1.3H306.8z M310.2,330.7c0,1.2-1.3,1.9-3.3,1.9s-3.3-0.7-3.3-1.9s1.3-1.9,3.3-1.9
				S310.2,329.5,310.2,330.7z M309.4,330.7c0-0.7-0.9-1.2-2.4-1.2s-2.4,0.5-2.4,1.2c0,0.7,0.9,1.2,2.4,1.2S309.4,331.5,309.4,330.7z
				"/>
			<path class="st3" d="M318.4,329c-2.1,0.4-4.5,0.4-6.2,0.4l-0.1-0.7c0.8,0,1.7,0,2.6,0v-0.7c-1.1-0.1-1.9-0.7-1.9-1.5
				c0-0.9,0.9-1.5,2.3-1.5c1.4,0,2.3,0.6,2.3,1.5c0,0.8-0.7,1.4-1.8,1.5v0.7c0.9,0,1.8-0.1,2.7-0.3L318.4,329z M318.1,324.4h-5.7
				v-0.7h2.4v-1h0.9v1h2.4V324.4z M314.5,331.7h5.7v0.7h-6.6V330h0.9V331.7z M315.2,327.2c0.9,0,1.4-0.3,1.4-0.9
				c0-0.5-0.6-0.9-1.4-0.9c-0.9,0-1.5,0.3-1.5,0.9C313.8,326.9,314.3,327.2,315.2,327.2z M321.3,326.2v0.7h-1.4v3.5h-0.9v-7.7h0.9
				v3.4H321.3z"/>
		</g>
		<g class="st1">
			<path class="st3" d="M258.8,346.4c-1.5,0-2.6-1-2.6-2.4s1.1-2.4,2.6-2.4c1.5,0,2.6,1,2.6,2.4S260.3,346.4,258.8,346.4z
				 M258.8,345.6c1,0,1.7-0.7,1.7-1.7s-0.7-1.7-1.7-1.7c-1,0-1.7,0.7-1.7,1.7S257.9,345.6,258.8,345.6z M258.5,349.7h5.7v0.7h-6.6
				v-3.1h0.9V349.7z M265.2,343.8v0.7h-1.5v3.5h-0.9v-7.3h0.9v3H265.2z"/>
			<path class="st3" d="M271.3,341.8v6.4h-4.5v-6.4H271.3z M267.6,342.5v5h2.8v-5H267.6z M274.3,340.8v9.9h-0.9v-9.9H274.3z"/>
			<path class="st3" d="M281.7,346.3c-1.1-0.4-1.9-1.2-2.4-2.2c-0.4,1.1-1.3,2.1-2.5,2.5l-0.5-0.7c1.5-0.5,2.5-1.9,2.5-3.3v-0.3
				h-2.2v-0.7h5.3v0.7h-2.2v0.3c0,1.3,1,2.5,2.4,3L281.7,346.3z M284.5,348.8c0,1.2-1.3,1.8-3.3,1.8c-2,0-3.3-0.7-3.3-1.8
				s1.3-1.8,3.3-1.8C283.2,347,284.5,347.7,284.5,348.8z M283.6,348.8c0-0.7-0.9-1.1-2.4-1.1c-1.5,0-2.4,0.4-2.4,1.1
				c0,0.7,0.9,1.1,2.4,1.1C282.7,350,283.6,349.5,283.6,348.8z M283.5,343.4v-2.6h0.9v5.9h-0.9v-2.6h-1.9v-0.7H283.5z"/>
			<path class="st3" d="M286.4,351.3c0.7-0.3,1.1-0.8,1.1-1.5c0,0-0.1,0-0.1,0c-0.4,0-0.7-0.2-0.7-0.7c0-0.4,0.4-0.7,0.8-0.7
				c0.5,0,0.8,0.5,0.8,1.2c0,1.1-0.6,1.9-1.6,2.3L286.4,351.3z"/>
			<path class="st3" d="M296.9,341.5c0,2.5-1.7,4.3-4.6,5.2L292,346c2.3-0.7,3.8-2,4-3.7h-3.6v-0.7H296.9z M299.7,348.7
				c0,1.2-1.3,1.9-3.2,1.9s-3.2-0.7-3.2-1.9c0-1.2,1.3-1.9,3.2-1.9S299.7,347.5,299.7,348.7z M298.8,348.7c0-0.8-0.9-1.2-2.3-1.2
				c-1.4,0-2.3,0.5-2.3,1.2c0,0.7,0.9,1.2,2.3,1.2C297.9,349.9,298.8,349.5,298.8,348.7z M301.1,343.4v0.7h-1.5v2.6h-0.9v-5.9h0.9
				v2.6H301.1z"/>
			<path class="st3" d="M307.7,346.6c-1.1-0.4-2-1.2-2.5-2.2c-0.4,1.1-1.3,2-2.5,2.4l-0.5-0.7c1.5-0.5,2.5-1.8,2.5-3.2v-0.5h-2.3
				v-0.7h5.4v0.7h-2.2v0.5c0,1.3,1,2.5,2.5,3L307.7,346.6z M310.5,349.7v0.7h-6.6v-3.1h0.9v2.4H310.5z M310.2,348h-0.9v-7.2h0.9V348
				z"/>
			<path class="st3" d="M317.3,345c0,2.1-1,3.4-2.5,3.4s-2.5-1.3-2.5-3.4s1-3.4,2.5-3.4S317.3,342.9,317.3,345z M316.4,345
				c0-1.6-0.7-2.6-1.6-2.6c-1,0-1.6,1-1.6,2.6c0,1.6,0.7,2.6,1.6,2.6C315.8,347.6,316.4,346.6,316.4,345z M321.4,345.5h-1.6v5.2
				h-0.9v-9.9h0.9v3.9h1.6V345.5z"/>
		</g>
	</g>
	<g id="그룹_5881">
		<g class="st1">
			<path class="st3" d="M18.6,197.6v0.8H8.9v-0.8h4.4v-2.3H10v-5.5h1v1.9h5.5v-1.9h1v5.5h-3.2v2.3H18.6z M11,194.5h5.5v-2H11V194.5z
				"/>
			<path class="st3" d="M25.6,194.8c-1.2-0.4-2.1-1.3-2.6-2.4c-0.4,1.3-1.4,2.2-2.7,2.7l-0.5-0.8c1.6-0.6,2.7-2.1,2.7-3.7v-1.1h1
				v1.2c0,1.5,1.1,2.8,2.6,3.3L25.6,194.8z M28.4,197.8c0,1.2-1.4,2-3.5,2c-2.2,0-3.6-0.7-3.6-2c0-1.3,1.4-2,3.6-2
				C27,195.8,28.4,196.5,28.4,197.8z M27.4,197.8c0-0.8-1-1.2-2.6-1.2c-1.6,0-2.6,0.4-2.6,1.2c0,0.7,1,1.2,2.6,1.2
				C26.4,199,27.4,198.5,27.4,197.8z M29.9,191.8v0.8h-1.6v2.9h-1V189h1v2.8H29.9z"/>
			<path class="st3" d="M38.1,195.2c-1,0.2-2.1,0.3-3.1,0.4v3.9h-1v-3.8c-1.1,0-2.1,0.1-3,0.1l-0.1-0.8c2,0,4.7,0,7.1-0.4
				L38.1,195.2z M31.8,191.7c0-1.3,1.1-2.2,2.7-2.2c1.6,0,2.7,0.9,2.7,2.2c0,1.3-1.1,2.2-2.7,2.2C32.9,193.9,31.8,193,31.8,191.7z
				 M32.7,191.7c0,0.8,0.7,1.4,1.8,1.4c1,0,1.8-0.6,1.8-1.4c0-0.8-0.7-1.4-1.8-1.4C33.4,190.3,32.7,190.9,32.7,191.7z M39.8,189
				v10.8h-1V189H39.8z"/>
			<path class="st3" d="M45.1,194.7c-1.1,0-2.1,0.1-3,0.1L42,194c2,0,4.7,0,6.9-0.3l0.1,0.7c-0.9,0.1-1.9,0.2-2.9,0.3v2.1h-1V194.7z
				 M42.8,191.3c0-1.1,1.1-1.9,2.7-1.9s2.7,0.7,2.7,1.9c0,1.2-1.1,1.9-2.7,1.9S42.8,192.4,42.8,191.3z M51.1,198.7v0.8h-7.6v-3.1h1
				v2.3H51.1z M43.7,191.3c0,0.7,0.7,1.2,1.7,1.2s1.7-0.5,1.7-1.2c0-0.7-0.7-1.1-1.7-1.1S43.7,190.6,43.7,191.3z M49.8,195.3V189h1
				v8.2h-1v-1.1h-2.2v-0.7H49.8z"/>
			<path class="st3" d="M57.1,196.8c1,0,2.1-0.1,3-0.3l0.1,0.7c-2.4,0.4-5,0.4-7,0.4l-0.1-0.8c0.9,0,1.9,0,3,0v-1.2
				c-1.3-0.2-2.1-0.9-2.1-2c0-1.2,1.1-2,2.6-2s2.6,0.8,2.6,2c0,1.1-0.8,1.8-2.1,2V196.8z M59.9,191.1h-6.5v-0.8h2.8V189h1v1.3h2.8
				V191.1z M56.6,194.9c1,0,1.6-0.5,1.6-1.2c0-0.8-0.7-1.2-1.6-1.2c-1,0-1.7,0.5-1.7,1.2C55,194.4,55.6,194.9,56.6,194.9z M61.8,189
				v10.8h-1V189H61.8z"/>
		</g>
		<g class="st1">
			<path class="st3" d="M14.1,98.8c-0.7,1.7-2.3,3-4.6,3.7L9,101.6c2.6-0.8,4.2-2.2,4.3-4.1H9.6v-0.8h4.9c0,0.4,0,0.8-0.1,1.2h2.4
				v-2h1v6.4h-1V101h-2.8v-0.8h2.8v-1.4H14.1z M17.8,104.6c0,1.3-1.4,2.1-3.6,2.1c-2.2,0-3.6-0.8-3.6-2.1s1.4-2.1,3.6-2.1
				C16.4,102.5,17.8,103.3,17.8,104.6z M16.8,104.6c0-0.8-1-1.3-2.6-1.3c-1.6,0-2.6,0.5-2.6,1.3c0,0.8,1,1.3,2.6,1.3
				C15.8,105.9,16.8,105.4,16.8,104.6z"/>
			<path class="st3" d="M25,100.8c-0.5,0.6-1.3,0.9-2.2,0.9c-1.6,0-2.8-1.1-2.8-2.6c0-1.5,1.2-2.5,2.8-2.5c0.9,0,1.7,0.3,2.2,0.9
				h2.8V96h1v6.4h-1v-1.5H25z M22.9,100.9c1.1,0,1.8-0.7,1.8-1.7c0-1-0.8-1.7-1.8-1.7c-1,0-1.8,0.7-1.8,1.7
				C21,100.2,21.8,100.9,22.9,100.9z M28.8,104.7c0,1.3-1.4,2.1-3.6,2.1c-2.2,0-3.6-0.8-3.6-2.1c0-1.3,1.4-2.1,3.6-2.1
				C27.5,102.6,28.8,103.4,28.8,104.7z M27.9,104.7c0-0.8-1-1.3-2.6-1.3c-1.6,0-2.6,0.5-2.6,1.3c0,0.8,1,1.3,2.6,1.3
				C26.9,105.9,27.9,105.5,27.9,104.7z M25.5,98.3c0.1,0.3,0.1,0.5,0.1,0.8c0,0.3,0,0.6-0.1,0.8h2.3v-1.7H25.5z"/>
			<path class="st3" d="M38.1,102.2c-1,0.2-2.1,0.3-3.1,0.4v3.9h-1v-3.8c-1.1,0-2.1,0.1-3,0.1l-0.1-0.8c2,0,4.7,0,7.1-0.4
				L38.1,102.2z M31.8,98.7c0-1.3,1.1-2.2,2.7-2.2c1.6,0,2.7,0.9,2.7,2.2c0,1.3-1.1,2.2-2.7,2.2C32.9,100.9,31.8,100,31.8,98.7z
				 M32.7,98.7c0,0.8,0.7,1.4,1.8,1.4c1,0,1.8-0.6,1.8-1.4c0-0.8-0.7-1.4-1.8-1.4C33.4,97.3,32.7,97.9,32.7,98.7z M39.8,96v10.8h-1
				V96H39.8z"/>
			<path class="st3" d="M45.1,101.7c-1.1,0-2.1,0.1-3,0.1L42,101c2,0,4.7,0,6.9-0.3l0.1,0.7c-0.9,0.1-1.9,0.3-2.9,0.3v2.1h-1V101.7z
				 M42.8,98.3c0-1.1,1.1-1.9,2.7-1.9s2.7,0.7,2.7,1.9c0,1.2-1.1,1.9-2.7,1.9S42.8,99.4,42.8,98.3z M51.1,105.7v0.8h-7.6v-3.1h1v2.3
				H51.1z M43.7,98.3c0,0.7,0.7,1.2,1.7,1.2s1.7-0.5,1.7-1.2c0-0.7-0.7-1.1-1.7-1.1S43.7,97.6,43.7,98.3z M49.8,102.3V96h1v8.2h-1
				v-1.1h-2.2v-0.7H49.8z"/>
			<path class="st3" d="M57.1,103.8c1,0,2.1-0.1,3-0.3l0.1,0.7c-2.4,0.4-5,0.4-7,0.4l-0.1-0.8c0.9,0,1.9,0,3,0v-1.2
				c-1.3-0.2-2.1-0.9-2.1-2c0-1.2,1.1-2,2.6-2s2.6,0.8,2.6,2c0,1.1-0.8,1.8-2.1,2V103.8z M59.9,98.1h-6.5v-0.8h2.8V96h1v1.3h2.8
				V98.1z M56.6,101.9c1,0,1.6-0.5,1.6-1.2c0-0.8-0.7-1.2-1.6-1.2c-1,0-1.7,0.5-1.7,1.2C55,101.4,55.6,101.9,56.6,101.9z M61.8,96
				v10.8h-1V96H61.8z"/>
		</g>
		<g class="st1">
			<path class="st3" d="M14.3,237.6c0,2.7-1.9,4.7-5.1,5.5l-0.4-0.8c2.6-0.7,4.2-2.1,4.4-3.9H9.4v-0.8H14.3z M10.5,243.6h6.8v4h-6.8
				V243.6z M11.4,246.8h4.8v-2.4h-4.8V246.8z M18.8,240.4h-1.6v2.7h-1v-6.1h1v2.6h1.6V240.4z"/>
			<path class="st3" d="M23.5,239.8c0,1.9,1.2,3.8,2.7,4.6l-0.6,0.8c-1.1-0.6-2.1-1.9-2.6-3.3c-0.5,1.6-1.5,2.9-2.7,3.6l-0.6-0.8
				c1.5-0.8,2.8-2.9,2.8-4.8v-1.9h1V239.8z M30,242.1h-1.8v5.6h-1V237h1v4.4H30V242.1z"/>
			<path class="st3" d="M38.1,243.1c-1,0.2-2.1,0.3-3.1,0.4v3.9h-1v-3.8c-1.1,0-2.1,0.1-3,0.1l-0.1-0.8c2,0,4.7,0,7.1-0.4
				L38.1,243.1z M31.8,239.7c0-1.3,1.1-2.2,2.7-2.2c1.6,0,2.7,0.9,2.7,2.2c0,1.3-1.1,2.2-2.7,2.2C32.9,241.9,31.8,241,31.8,239.7z
				 M32.7,239.7c0,0.8,0.7,1.4,1.8,1.4c1,0,1.8-0.6,1.8-1.4c0-0.8-0.7-1.4-1.8-1.4C33.4,238.3,32.7,238.8,32.7,239.7z M39.8,237
				v10.8h-1V237H39.8z"/>
			<path class="st3" d="M45.1,242.7c-1.1,0-2.1,0.1-3,0.1l-0.1-0.8c2,0,4.7,0,6.9-0.3l0.1,0.7c-0.9,0.1-1.9,0.3-2.9,0.3v2.1h-1
				V242.7z M42.8,239.3c0-1.1,1.1-1.9,2.7-1.9s2.7,0.7,2.7,1.9c0,1.2-1.1,1.9-2.7,1.9S42.8,240.4,42.8,239.3z M51.1,246.7v0.8h-7.6
				v-3.1h1v2.3H51.1z M43.7,239.3c0,0.7,0.7,1.2,1.7,1.2s1.7-0.5,1.7-1.2c0-0.7-0.7-1.1-1.7-1.1S43.7,238.6,43.7,239.3z M49.8,243.3
				V237h1v8.2h-1V244h-2.2v-0.7H49.8z"/>
			<path class="st3" d="M57.1,244.8c1,0,2.1-0.1,3-0.3l0.1,0.7c-2.4,0.4-5,0.4-7,0.4l-0.1-0.8c0.9,0,1.9,0,3,0v-1.2
				c-1.3-0.2-2.1-0.9-2.1-2c0-1.2,1.1-2,2.6-2s2.6,0.8,2.6,2c0,1.1-0.8,1.8-2.1,2V244.8z M59.9,239.1h-6.5v-0.8h2.8V237h1v1.3h2.8
				V239.1z M56.6,242.9c1,0,1.6-0.5,1.6-1.2c0-0.8-0.7-1.2-1.6-1.2c-1,0-1.7,0.5-1.7,1.2C55,242.4,55.6,242.9,56.6,242.9z M61.8,237
				v10.8h-1V237H61.8z"/>
		</g>
		<g class="st1">
			<path class="st3" d="M12.5,144.9c0,1.9,1.2,3.8,2.7,4.6l-0.6,0.8c-1.1-0.6-2.1-1.9-2.6-3.3c-0.5,1.6-1.5,2.9-2.7,3.6l-0.6-0.8
				c1.5-0.8,2.8-2.9,2.8-4.8v-1.9h1V144.9z M18.9,147.2h-1.8v5.6h-1V142h1v4.4h1.8V147.2z"/>
			<path class="st3" d="M23.9,149.5c1-0.1,2.1-0.1,3.1-0.3l0.1,0.7c-2.4,0.4-5,0.5-7,0.5l-0.1-0.8c0.9,0,1.9,0,2.9,0v-1.9
				c-1.4-0.2-2.4-1.2-2.4-2.5c0-1.5,1.2-2.5,2.9-2.5c1.7,0,2.9,1,2.9,2.5c0,1.4-1,2.3-2.4,2.5V149.5z M23.4,146.9
				c1.1,0,1.9-0.7,1.9-1.7c0-1-0.8-1.7-1.9-1.7c-1.1,0-1.9,0.7-1.9,1.7C21.5,146.2,22.3,146.9,23.4,146.9z M28.7,142v10.8h-1V142
				H28.7z"/>
			<path class="st3" d="M36.8,146.6c0,2.3-1.1,3.8-2.7,3.8c-1.6,0-2.7-1.5-2.7-3.8s1.1-3.8,2.7-3.8
				C35.7,142.8,36.8,144.3,36.8,146.6z M32.3,146.6c0,1.8,0.7,2.9,1.8,2.9c1,0,1.8-1.1,1.8-2.9c0-1.7-0.7-2.9-1.8-2.9
				C33,143.7,32.3,144.8,32.3,146.6z M39.8,142v10.8h-1V142H39.8z"/>
			<path class="st3" d="M45.6,144.9c0,1.9,1.2,3.8,2.7,4.6l-0.6,0.8c-1.1-0.6-2.1-1.9-2.6-3.3c-0.5,1.6-1.5,2.9-2.7,3.6l-0.6-0.8
				c1.5-0.8,2.8-2.9,2.8-4.8v-1.9h1V144.9z M52.1,147.2h-1.8v5.6h-1V142h1v4.4h1.8V147.2z"/>
			<path class="st3" d="M62.8,149.8h-4.4v3h-1v-3h-4.4V149h9.8V149.8z M62.2,144h-8.6v-0.8h3.9v-1.3h1v1.3h3.8V144z M57.9,144.6
				c2.2,0,3.5,0.6,3.5,1.8s-1.3,1.8-3.5,1.8c-2.2,0-3.5-0.6-3.5-1.8S55.7,144.6,57.9,144.6z M57.9,145.4c-1.6,0-2.5,0.4-2.5,1
				c0,0.7,0.9,1,2.5,1s2.5-0.4,2.5-1C60.4,145.8,59.5,145.4,57.9,145.4z"/>
			<path class="st3" d="M73.8,150.6v0.8h-9.8v-0.8h4.4v-2.3h-3.2v-5.5h1v1.9h5.5v-1.9h1v5.5h-3.2v2.3H73.8z M66.2,147.5h5.5v-2h-5.5
				V147.5z"/>
			<path class="st3" d="M84.9,149.3h-4.4v3.5h-1v-3.5h-4.4v-0.8h9.7V149.3z M75.7,146.9c1.9-0.3,3.8-1.4,3.8-2.8h-3.4v-0.8h3.4V142
				h1v1.3h3.4v0.8h-3.4c0,1.3,1.8,2.5,3.7,2.8l-0.3,0.8c-1.7-0.3-3.2-1.1-3.9-2.2c-0.7,1.2-2.2,2-3.9,2.2L75.7,146.9z"/>
			<path class="st3" d="M92,148.5c-1.2-0.4-2.2-1.3-2.7-2.4c-0.5,1.2-1.4,2.1-2.7,2.5l-0.5-0.8c1.6-0.5,2.7-1.9,2.7-3.4v-0.3h-2.4
				v-0.8h2.4V142h1v1.4h2.4v0.8h-2.4v0.3c0,1.4,1.1,2.7,2.7,3.2L92,148.5z M95.3,151.7v0.8h-7.2v-3.2h1v2.4H95.3z M94,145.3V142h1v8
				h-1v-3.9h-2.2v-0.8H94z"/>
			<path class="st3" d="M104.4,148.2c-1,0.2-2.1,0.3-3.1,0.4v3.9h-1v-3.8c-1.1,0-2.1,0.1-3,0.1l-0.1-0.8c2,0,4.7,0,7.1-0.4
				L104.4,148.2z M98,144.7c0-1.3,1.1-2.2,2.7-2.2c1.6,0,2.7,0.9,2.7,2.2c0,1.3-1.1,2.2-2.7,2.2C99.1,146.9,98,146,98,144.7z
				 M98.9,144.7c0,0.8,0.7,1.4,1.8,1.4c1,0,1.8-0.6,1.8-1.4c0-0.8-0.7-1.4-1.8-1.4C99.7,143.3,98.9,143.9,98.9,144.7z M106,142v10.8
				h-1V142H106z"/>
			<path class="st3" d="M111.3,147.7c-1.1,0-2.1,0.1-3,0.1l-0.1-0.8c2,0,4.7,0,6.9-0.3l0.1,0.7c-0.9,0.1-1.9,0.3-2.9,0.3v2.1h-1
				V147.7z M109,144.3c0-1.1,1.1-1.9,2.7-1.9c1.6,0,2.7,0.7,2.7,1.9c0,1.2-1.1,1.9-2.7,1.9C110.1,146.2,109,145.4,109,144.3z
				 M117.3,151.7v0.8h-7.6v-3.1h1v2.3H117.3z M110,144.3c0,0.7,0.7,1.2,1.7,1.2s1.7-0.5,1.7-1.2c0-0.7-0.7-1.1-1.7-1.1
				S110,143.6,110,144.3z M116.1,148.3V142h1v8.2h-1v-1.1h-2.2v-0.7H116.1z"/>
			<path class="st3" d="M123.3,149.8c1,0,2.1-0.1,3-0.3l0.1,0.7c-2.4,0.4-5,0.4-7,0.4l-0.1-0.8c0.9,0,1.9,0,3,0v-1.2
				c-1.3-0.2-2.1-0.9-2.1-2c0-1.2,1.1-2,2.6-2s2.6,0.8,2.6,2c0,1.1-0.8,1.8-2.1,2V149.8z M126.1,144.1h-6.5v-0.8h2.8V142h1v1.3h2.8
				V144.1z M122.9,147.9c1,0,1.6-0.5,1.6-1.2c0-0.8-0.7-1.2-1.6-1.2c-1,0-1.7,0.5-1.7,1.2C121.2,147.4,121.9,147.9,122.9,147.9z
				 M128.1,142v10.8h-1V142H128.1z"/>
		</g>
		<g class="st1">
			<path class="st3" d="M10.4,290.5c1,0,2.2-0.1,3.5-0.3L14,291c-1.5,0.3-2.7,0.3-3.8,0.3H9.4v-6.7h1V290.5z M18,283.4v10.7h-0.9
				v-5.6h-1.5v5h-0.9v-10h0.9v4.1h1.5v-4.4H18z"/>
			<path class="st3" d="M29.7,290.5h-4.4v3.6h-1v-3.6h-4.4v-0.8h9.8V290.5z M28.4,288.5h-7.3v-4.7h1v1.5h5.3v-1.5h1V288.5z
				 M27.5,286.1h-5.3v1.6h5.3V286.1z"/>
			<path class="st3" d="M36.3,284.5c0,3.1-1.3,5.8-4.8,7.5l-0.5-0.8c2.9-1.4,4.2-3.5,4.4-6h-3.9v-0.8H36.3z M39.8,283.4v10.7h-1
				v-5.6h-2.5v-0.8h2.5v-4.3H39.8z"/>
			<path class="st3" d="M43.3,290.7c1.2,0,2.4-0.1,3.7-0.3l0.1,0.8c-1.5,0.3-2.7,0.3-4,0.3h-0.7v-4h3v-2.2h-3.1v-0.8h4v3.8h-3.1
				V290.7z M51.2,283.4v10.7h-0.9v-5.7h-1.5v5.2h-0.9v-10h0.9v4h1.5v-4.2H51.2z"/>
			<path class="st3" d="M60.2,289.6c-1,0.2-2.1,0.3-3.1,0.4v3.9h-1V290c-1.1,0-2.1,0.1-3,0.1l-0.1-0.8c2,0,4.7,0,7.1-0.4L60.2,289.6
				z M53.8,286.1c0-1.3,1.1-2.2,2.7-2.2c1.6,0,2.7,0.9,2.7,2.2c0,1.3-1.1,2.2-2.7,2.2C55,288.3,53.8,287.4,53.8,286.1z M54.8,286.1
				c0,0.8,0.7,1.4,1.8,1.4c1,0,1.8-0.6,1.8-1.4c0-0.8-0.7-1.4-1.8-1.4C55.5,284.7,54.8,285.3,54.8,286.1z M61.9,283.4v10.8h-1v-10.8
				H61.9z"/>
			<path class="st3" d="M67.1,289.1c-1.1,0-2.1,0.1-3,0.1l-0.1-0.8c2,0,4.7,0,6.9-0.3l0.1,0.7c-0.9,0.1-1.9,0.3-2.9,0.3v2.1h-1
				V289.1z M64.9,285.7c0-1.1,1.1-1.9,2.7-1.9c1.6,0,2.7,0.7,2.7,1.9c0,1.2-1.1,1.9-2.7,1.9C66,287.6,64.9,286.8,64.9,285.7z
				 M73.2,293.1v0.8h-7.6v-3.1h1v2.3H73.2z M65.8,285.7c0,0.7,0.7,1.2,1.7,1.2s1.7-0.5,1.7-1.2c0-0.7-0.7-1.1-1.7-1.1
				S65.8,285,65.8,285.7z M71.9,289.7v-6.4h1v8.2h-1v-1.1h-2.2v-0.7H71.9z"/>
			<path class="st3" d="M79.2,291.2c1,0,2.1-0.1,3-0.3l0.1,0.7c-2.4,0.4-5,0.4-7,0.4l-0.1-0.8c0.9,0,1.9,0,3,0v-1.2
				c-1.3-0.2-2.1-0.9-2.1-2c0-1.2,1.1-2,2.6-2s2.6,0.8,2.6,2c0,1.1-0.8,1.8-2.1,2V291.2z M82,285.5h-6.5v-0.8h2.8v-1.3h1v1.3H82
				V285.5z M78.7,289.3c1,0,1.6-0.5,1.6-1.2c0-0.8-0.7-1.2-1.6-1.2c-1,0-1.7,0.5-1.7,1.2C77,288.8,77.7,289.3,78.7,289.3z
				 M83.9,283.4v10.8h-1v-10.8H83.9z"/>
		</g>
		<g class="st1">
			<path class="st3" d="M9.5,333.1h5.1v0.9h-4v2.8h3.3v0.9h-3.3v3.2h4.1v0.9H9.5V333.1z"/>
			<path class="st3" d="M15.9,340.7l0.7-0.8c0.6,0.7,1.5,1.1,2.4,1.1c1.2,0,1.8-0.6,1.8-1.4c0-0.9-0.6-1.2-1.5-1.6l-1.3-0.6
				c-0.8-0.3-1.8-1-1.8-2.3c0-1.4,1.2-2.3,2.8-2.3c1,0,2,0.4,2.6,1.1l-0.6,0.7c-0.5-0.5-1.2-0.8-2-0.8c-1,0-1.6,0.5-1.6,1.3
				c0,0.9,0.8,1.2,1.5,1.5l1.3,0.5c1,0.4,1.8,1,1.8,2.4c0,1.4-1.2,2.5-3,2.5C17.7,342,16.6,341.5,15.9,340.7z"/>
			<path class="st3" d="M23.2,337.5c0-2.8,1.7-4.6,4-4.6c1.2,0,2,0.6,2.5,1.1l-0.6,0.7c-0.4-0.5-1-0.8-1.9-0.8
				c-1.8,0-2.9,1.4-2.9,3.6c0,2.2,1,3.6,2.9,3.6c0.6,0,1.2-0.2,1.6-0.5v-2.3H27v-0.9h2.9v3.7c-0.6,0.6-1.5,1-2.7,1
				C24.8,342,23.2,340.3,23.2,337.5z"/>
		</g>
		<g class="st1">
			<path class="st3" d="M38.5,338.2c-1,0.2-2.1,0.3-3.1,0.4v3.9h-1v-3.8c-1.1,0-2.1,0.1-3,0.1l-0.1-0.8c2,0,4.7,0,7.1-0.4
				L38.5,338.2z M32.2,334.7c0-1.3,1.1-2.2,2.7-2.2c1.6,0,2.7,0.9,2.7,2.2c0,1.3-1.1,2.2-2.7,2.2C33.3,336.9,32.2,336,32.2,334.7z
				 M33.1,334.7c0,0.8,0.7,1.4,1.8,1.4c1,0,1.8-0.6,1.8-1.4c0-0.8-0.7-1.4-1.8-1.4C33.9,333.3,33.1,333.9,33.1,334.7z M40.2,332
				v10.8h-1V332H40.2z"/>
			<path class="st3" d="M45.5,337.7c-1.1,0-2.1,0.1-3,0.1l-0.1-0.8c2,0,4.7,0,6.9-0.3l0.1,0.7c-0.9,0.1-1.9,0.2-2.9,0.3v2.1h-1
				V337.7z M43.2,334.3c0-1.1,1.1-1.9,2.7-1.9c1.6,0,2.7,0.7,2.7,1.9c0,1.2-1.1,1.9-2.7,1.9C44.3,336.2,43.2,335.4,43.2,334.3z
				 M51.5,341.7v0.8h-7.6v-3.1h1v2.3H51.5z M44.1,334.3c0,0.7,0.7,1.2,1.7,1.2s1.7-0.5,1.7-1.2c0-0.7-0.7-1.1-1.7-1.1
				S44.1,333.6,44.1,334.3z M50.2,338.3V332h1v8.2h-1v-1.1h-2.2v-0.7H50.2z"/>
			<path class="st3" d="M57.5,339.8c1,0,2.1-0.1,3-0.3l0.1,0.7c-2.4,0.4-5,0.4-7,0.4l-0.1-0.8c0.9,0,1.9,0,3,0v-1.2
				c-1.3-0.2-2.1-0.9-2.1-2c0-1.2,1.1-2,2.6-2s2.6,0.8,2.6,2c0,1.1-0.8,1.8-2.1,2V339.8z M60.3,334.1h-6.5v-0.8h2.8V332h1v1.3h2.8
				V334.1z M57,337.9c1,0,1.6-0.5,1.6-1.2c0-0.8-0.7-1.2-1.6-1.2c-1,0-1.7,0.5-1.7,1.2C55.4,337.4,56,337.9,57,337.9z M62.2,332
				v10.8h-1V332H62.2z"/>
		</g>
	</g>
	<g class="st1">
		<path class="st4" d="M1.1,375.7l0.6-1l-1.1-0.5l0.2-0.5L2,374l0.1-1.2h0.5l0.1,1.2l1.1-0.3l0.2,0.5l-1.1,0.5l0.6,1L3.1,376l-0.8-1
			l-0.8,1L1.1,375.7z"/>
		<path class="st4" d="M13.4,377.7c-0.8,0.2-1.7,0.2-2.6,0.3v3.2H10V378c-0.9,0-1.7,0-2.5,0l-0.1-0.7c1.7,0,3.9,0,5.9-0.3
			L13.4,377.7z M8.1,374.8c0-1.1,0.9-1.8,2.3-1.8c1.3,0,2.3,0.8,2.3,1.8c0,1.1-0.9,1.8-2.3,1.8C9,376.6,8.1,375.9,8.1,374.8z
			 M8.9,374.8c0,0.7,0.6,1.2,1.5,1.2c0.9,0,1.5-0.5,1.5-1.2c0-0.7-0.6-1.2-1.5-1.2C9.5,373.6,8.9,374.1,8.9,374.8z M14.8,372.5v9H14
			v-9H14.8z"/>
		<path class="st4" d="M19.2,377.3c-0.9,0-1.7,0-2.5,0l-0.1-0.7c1.7,0,3.9,0,5.8-0.3l0.1,0.6c-0.8,0.1-1.6,0.2-2.4,0.3v1.8h-0.8
			V377.3z M17.3,374.4c0-0.9,0.9-1.6,2.2-1.6c1.3,0,2.2,0.6,2.2,1.6c0,1-0.9,1.6-2.2,1.6C18.2,376,17.3,375.4,17.3,374.4z
			 M24.2,380.6v0.7h-6.3v-2.6h0.8v1.9H24.2z M18.1,374.4c0,0.6,0.6,1,1.4,1c0.8,0,1.4-0.4,1.4-1c0-0.6-0.6-0.9-1.4-0.9
			C18.7,373.5,18.1,373.9,18.1,374.4z M23.2,377.8v-5.3H24v6.8h-0.8v-0.9h-1.8v-0.6H23.2z"/>
		<path class="st4" d="M29.2,379c0.8,0,1.7-0.1,2.5-0.2l0.1,0.6c-2,0.3-4.2,0.4-5.8,0.4l-0.1-0.7c0.8,0,1.6,0,2.5,0v-1
			c-1.1-0.1-1.7-0.8-1.7-1.6c0-1,0.9-1.7,2.2-1.7s2.1,0.7,2.1,1.7c0,0.9-0.7,1.5-1.7,1.6V379z M31.5,374.3h-5.4v-0.7h2.3v-1.1h0.8
			v1.1h2.3V374.3z M28.8,377.5c0.8,0,1.4-0.4,1.4-1c0-0.6-0.6-1-1.4-1c-0.8,0-1.4,0.4-1.4,1C27.4,377.1,28,377.5,28.8,377.5z
			 M33.1,372.5v9h-0.8v-9H33.1z"/>
		<path class="st4" d="M43.2,377.7c-0.8,0.2-1.7,0.2-2.6,0.3v3.2h-0.8V378c-0.9,0-1.7,0-2.5,0l-0.1-0.7c1.7,0,3.9,0,5.9-0.3
			L43.2,377.7z M37.9,374.8c0-1.1,0.9-1.8,2.3-1.8c1.3,0,2.3,0.8,2.3,1.8c0,1.1-0.9,1.8-2.3,1.8C38.9,376.6,37.9,375.9,37.9,374.8z
			 M38.7,374.8c0,0.7,0.6,1.2,1.5,1.2c0.9,0,1.5-0.5,1.5-1.2c0-0.7-0.6-1.2-1.5-1.2C39.3,373.6,38.7,374.1,38.7,374.8z M44.6,372.5
			v9h-0.8v-9H44.6z"/>
		<path class="st4" d="M49,377.3c-0.9,0-1.7,0-2.5,0l-0.1-0.7c1.7,0,3.9,0,5.8-0.3l0.1,0.6c-0.8,0.1-1.6,0.2-2.4,0.3v1.8H49V377.3z
			 M47.1,374.4c0-0.9,0.9-1.6,2.2-1.6c1.3,0,2.2,0.6,2.2,1.6c0,1-0.9,1.6-2.2,1.6C48,376,47.1,375.4,47.1,374.4z M54,380.6v0.7h-6.3
			v-2.6h0.8v1.9H54z M47.9,374.4c0,0.6,0.6,1,1.4,1c0.8,0,1.4-0.4,1.4-1c0-0.6-0.6-0.9-1.4-0.9C48.5,373.5,47.9,373.9,47.9,374.4z
			 M53,377.8v-5.3h0.8v6.8H53v-0.9h-1.8v-0.6H53z"/>
		<path class="st4" d="M60.5,377.5c-1-0.3-1.8-1-2.2-1.9c-0.4,1-1.2,1.8-2.3,2.2l-0.4-0.6c1.3-0.5,2.2-1.6,2.2-2.9v-0.3h-2v-0.7h4.8
			v0.7h-2v0.3c0,1.2,0.8,2.2,2.2,2.7L60.5,377.5z M62.7,379.8c0,1-1.1,1.7-2.9,1.7c-1.8,0-3-0.6-3-1.7c0-1,1.1-1.6,3-1.6
			C61.6,378.2,62.7,378.8,62.7,379.8z M61.9,379.8c0-0.6-0.8-1-2.1-1c-1.3,0-2.1,0.4-2.1,1c0,0.6,0.8,1,2.1,1
			C61.1,380.8,61.9,380.5,61.9,379.8z M64,374.8v0.7h-1.3v2.5h-0.8v-5.4h0.8v2.3H64z"/>
	</g>
	<path id="패스_3654" class="st5" d="M0,361.8h335"/>
	<path id="패스_1677-2" class="st5" d="M0,30h335"/>
	<g class="st1">
		<path class="st4" d="M260,13.9c0-2,0.5-3.6,1.5-5.1l0.6,0.3c-0.9,1.4-1.3,3.1-1.3,4.8s0.4,3.4,1.3,4.8l-0.6,0.3
			C260.6,17.5,260,15.9,260,13.9z"/>
		<path class="st4" d="M262.9,16.5c2.1-2.1,3.4-3.4,3.4-4.6c0-0.8-0.4-1.4-1.3-1.4c-0.6,0-1.1,0.4-1.5,0.8l-0.5-0.5
			c0.6-0.6,1.2-1.1,2.2-1.1c1.3,0,2.1,0.8,2.1,2.1c0,1.3-1.2,2.7-2.9,4.4c0.4,0,0.8-0.1,1.2-0.1h2.1V17h-4.6V16.5z"/>
		<path class="st4" d="M268.5,13.4c0-2.4,0.9-3.7,2.3-3.7c1.4,0,2.3,1.3,2.3,3.7c0,2.4-0.9,3.7-2.3,3.7
			C269.4,17.1,268.5,15.8,268.5,13.4z M272.2,13.4c0-2.1-0.6-2.9-1.4-2.9c-0.8,0-1.4,0.8-1.4,2.9s0.6,3,1.4,3
			C271.6,16.4,272.2,15.5,272.2,13.4z"/>
		<path class="st4" d="M274,16.5c2.1-2.1,3.4-3.4,3.4-4.6c0-0.8-0.4-1.4-1.3-1.4c-0.6,0-1.1,0.4-1.5,0.8l-0.5-0.5
			c0.6-0.6,1.2-1.1,2.2-1.1c1.3,0,2.1,0.8,2.1,2.1c0,1.3-1.2,2.7-2.9,4.4c0.4,0,0.8-0.1,1.2-0.1h2.1V17H274V16.5z"/>
		<path class="st4" d="M280,16.2h1.6V11h-1.3v-0.6c0.7-0.1,1.1-0.3,1.5-0.5h0.7v6.4h1.5V17h-4V16.2z"/>
		<path class="st4" d="M290.4,13.8c-1.4,0.3-2.6,0.3-4,0.3h-0.7V9.4h0.8v4c1.2,0,2.4-0.1,3.7-0.3L290.4,13.8z M292.8,16.9v0.7h-6
			v-2.7h0.8v2H292.8z M291.8,12.3h-2.5v-0.6h2.5v-1.1h-2.5V9.9h2.5V8.8h0.8v6.6h-0.8V12.3z"/>
		<path class="st4" d="M296.4,16.1l0.5-0.6c0.4,0.4,1,0.8,1.8,0.8c0.9,0,1.5-0.5,1.5-1.3c0-0.8-0.6-1.4-2.3-1.4V13
			c1.5,0,2-0.6,2-1.3c0-0.7-0.5-1.1-1.2-1.1c-0.6,0-1.1,0.3-1.5,0.7l-0.5-0.6c0.6-0.5,1.2-0.9,2-0.9c1.2,0,2.1,0.6,2.1,1.8
			c0,0.9-0.5,1.4-1.3,1.7v0c0.9,0.2,1.5,0.8,1.5,1.8c0,1.3-1,2-2.3,2C297.6,17.1,296.9,16.7,296.4,16.1z"/>
		<path class="st4" d="M304.6,12.7c-0.8,0-1.6,0-2.3,0l-0.1-0.6c1.7,0,3.9,0,5.8-0.2l0,0.5c-0.9,0.1-1.8,0.2-2.6,0.2v1.4h-0.8V12.7z
			 M302.9,10.3c0-0.8,0.9-1.3,2.2-1.3c1.3,0,2.2,0.5,2.2,1.3c0,0.8-0.9,1.3-2.2,1.3C303.7,11.6,302.9,11.1,302.9,10.3z M309.8,17
			v0.6h-6.3v-1.9h5.2V15h-5.2v-0.6h6v1.9h-5.2V17H309.8z M303.6,10.3c0,0.5,0.6,0.8,1.4,0.8c0.9,0,1.4-0.3,1.4-0.8
			c0-0.5-0.6-0.8-1.4-0.8C304.2,9.5,303.6,9.8,303.6,10.3z M308.7,13V8.8h0.8v5.3h-0.8v-0.5h-1.8V13H308.7z"/>
		<path class="st4" d="M318.4,9.7c0,2.6-1.2,4.9-4.2,6.3l-0.4-0.7c2.4-1.1,3.6-2.9,3.8-5h-3.4V9.7H318.4z M321,8.8v9h-0.8v-9H321z"
			/>
		<path class="st4" d="M331,13.4v0.7h-3.6v1.8h-0.8v-1.8h-3.7v-0.7H331z M323.3,12.1c1.6-0.2,3-1.1,3-2.2v0h-2.8V9.2h6.6v0.7h-2.8v0
			c0,1.1,1.4,2,3,2.2l-0.3,0.7c-1.5-0.2-2.8-0.9-3.3-2c-0.5,1-1.8,1.8-3.3,2L323.3,12.1z M324.7,16.9h5.4v0.7h-6.2V15h0.8V16.9z"/>
		<path class="st4" d="M331.9,18.7c0.9-1.4,1.3-3.1,1.3-4.8s-0.4-3.4-1.3-4.8l0.6-0.3c0.9,1.5,1.5,3.1,1.5,5.1c0,2-0.5,3.6-1.5,5.1
			L331.9,18.7z"/>
	</g>
</g>
</svg>
