<?xml version="1.0" encoding="utf-8"?>
<!-- Generator: Adobe Illustrator 25.1.0, SVG Export Plug-In . SVG Version: 6.00 Build 0)  -->
<svg version="1.1" id="레이어_1" xmlns="http://www.w3.org/2000/svg" xmlns:xlink="http://www.w3.org/1999/xlink" x="0px"
	 y="0px" viewBox="0 0 335 139.8" style="enable-background:new 0 0 335 139.8;" xml:space="preserve">
<style type="text/css">
	.st0{fill:#E3F4FA;}
	.st1{enable-background:new    ;}
	.st2{fill:#929397;}
	.st3{fill:#2AA6D3;}
	.st4{fill:#A5A5A5;}
	.st5{fill:#FFFFFF;}
	.st6{fill:#8E8E8E;}
	.st7{fill:#555555;}
</style>
<g id="그룹_5874" transform="translate(-20 -1720.713)">
	<g id="그룹_5840" transform="translate(0 -34.713)">
		<path id="패스_1787" class="st0" d="M20,1895.2h335v-109.8H20V1895.2z"/>
		<g class="st1">
			<path class="st2" d="M325.8,1768.8c-1.2,0.2-2.3,0.3-4.2,0.3h-0.7v-4.1h4v0.7h-3.1v2.8c1.8,0,2.8-0.1,4-0.3L325.8,1768.8z
				 M322.7,1772.3h5.2v0.7h-6v-2.9h0.8V1772.3z M328.8,1766.9v0.7h-1.3v3.1h-0.8v-6.5h0.8v2.7L328.8,1766.9L328.8,1766.9z"/>
			<path class="st2" d="M335.7,1769.4c-0.8,0.2-1.7,0.2-2.6,0.3v3.2h-0.8v-3.2c-0.9,0-1.7,0-2.5,0l-0.1-0.7c1.7,0,3.9,0,5.9-0.3
				L335.7,1769.4z M330.4,1766.5c0-1.1,1-1.8,2.3-1.8s2.3,0.8,2.3,1.8c0,1.1-0.9,1.8-2.3,1.8S330.4,1767.6,330.4,1766.5z
				 M331.2,1766.5c0,0.7,0.6,1.2,1.5,1.2s1.5-0.5,1.5-1.2s-0.6-1.2-1.5-1.2C331.8,1765.3,331.2,1765.8,331.2,1766.5z M337.1,1764.2
				v9h-0.8v-9H337.1z"/>
			<path class="st2" d="M341.4,1767.8c0-0.4,0.3-0.7,0.7-0.7s0.7,0.3,0.7,0.7c0,0.4-0.3,0.7-0.7,0.7S341.4,1768.2,341.4,1767.8z
				 M341.4,1771.9c0-0.4,0.3-0.7,0.7-0.7s0.7,0.3,0.7,0.7c0,0.4-0.3,0.7-0.7,0.7S341.4,1772.3,341.4,1771.9z"/>
			<path class="st2" d="M349.6,1770.7c0.8,0,1.7-0.1,2.5-0.2l0.1,0.6c-2,0.3-4.2,0.4-5.8,0.4l-0.1-0.7c0.8,0,1.6,0,2.5,0v-1
				c-1.1-0.1-1.7-0.8-1.7-1.6c0-1,0.9-1.7,2.2-1.7s2.1,0.7,2.1,1.7c0,0.9-0.7,1.5-1.7,1.6v0.9H349.6z M351.9,1766h-5.4v-0.7h2.3
				v-1.1h0.8v1.1h2.3L351.9,1766L351.9,1766z M349.2,1769.1c0.8,0,1.4-0.4,1.4-1s-0.6-1-1.4-1s-1.4,0.4-1.4,1
				C347.8,1768.7,348.3,1769.1,349.2,1769.1z M353.5,1764.2v9h-0.8v-9H353.5z"/>
		</g>
		<g class="st1">
			<path class="st3" d="M29.7,1765.2c0,2.8-1.4,4.6-3.4,4.6c-1.9,0-3.4-1.8-3.4-4.6c0-2.8,1.4-4.6,3.4-4.6S29.7,1762.4,29.7,1765.2z
				 M24.7,1765.2c0,1.9,0.7,2.9,1.6,2.9s1.6-1,1.6-2.9s-0.7-2.9-1.6-2.9S24.7,1763.3,24.7,1765.2z M33.3,1759.7v12.9h-1.8v-12.9
				H33.3z"/>
			<path class="st3" d="M40.2,1762.6c0,2.3,0.9,4.7,3,5.7l-1.1,1.5c-1.3-0.7-2.3-1.9-2.8-3.5c-0.6,1.6-1.5,3-3,3.7l-1.1-1.5
				c2.2-1,3.2-3.5,3.2-5.9v-1.9h1.9v1.9H40.2z M47.5,1766.2h-1.9v6.4h-1.8v-12.9h1.8v5h1.9V1766.2z"/>
			<path class="st3" d="M53.5,1768.9c1.1-0.1,2.1-0.1,3.1-0.3l0.1,1.3c-2.8,0.5-5.8,0.5-8.1,0.5l-0.2-1.5c1,0,2.1,0,3.2,0v-1.1
				c-1.4-0.3-2.3-1.1-2.3-2.3c0-1.4,1.3-2.4,3.2-2.4s3.2,1,3.2,2.4c0,1.2-0.9,2.1-2.3,2.3L53.5,1768.9L53.5,1768.9z M56.4,1762.6
				h-7.7v-1.4h3v-1.4h1.8v1.4h2.9V1762.6z M52.6,1766.6c0.9,0,1.4-0.4,1.4-1c0-0.7-0.6-1-1.4-1c-0.9,0-1.4,0.4-1.4,1
				C51.1,1766.2,51.7,1766.6,52.6,1766.6z M59.1,1759.7v12.9h-1.8v-12.9H59.1z"/>
			<path class="st3" d="M70,1761.3c0,3.6-1.1,6.6-4.7,8.7l-1.1-1.3c2.6-1.5,3.7-3.4,3.9-5.9h-3.3v-1.5L70,1761.3L70,1761.3z
				 M75.5,1759.7v12.9h-1.8v-6.6h-1.1v6h-1.7v-12h1.7v4.5h1.1v-4.9L75.5,1759.7L75.5,1759.7z"/>
			<path class="st3" d="M82.5,1768.6c1-0.1,2.1-0.2,3-0.3l0.1,1.3c-2.8,0.6-5.8,0.6-8,0.6l-0.2-1.5c1,0,2.1,0,3.2,0v-2h1.9V1768.6z
				 M77.6,1765.7c1.9-0.5,2.8-1.7,3-3H78v-1.5h2.6v-1.4h1.9v1.4h2.6v1.5h-2.6c0.1,1.2,1.1,2.4,3,2.9l-0.8,1.4
				c-1.5-0.4-2.5-1.2-3.1-2.3c-0.6,1.1-1.6,2-3.1,2.4L77.6,1765.7z M88.1,1759.7v12.9h-1.8v-12.9H88.1z"/>
			<path class="st3" d="M100.5,1762.5h-7.1v-1.4h2.7v-1.4H98v1.4h2.5V1762.5z M97,1768.1c-1.8,0-3-1.1-3-2.5c0-1.5,1.3-2.5,3-2.5
				c1.8,0,3,1,3,2.5C100,1767,98.8,1768.1,97,1768.1z M104.4,1770.9v1.5h-8.8v-3.6h1.8v2.2L104.4,1770.9L104.4,1770.9z M97,1766.6
				c0.7,0,1.3-0.4,1.3-1.1s-0.5-1.1-1.3-1.1s-1.3,0.4-1.3,1.1S96.3,1766.6,97,1766.6z M102.3,1767.2h-1.7v-1.5h1.7v-1.3h-1.7v-1.5
				h1.7v-3.2h1.8v9.8h-1.8V1767.2z"/>
			<path class="st3" d="M114.2,1767.6c-2.7,0.5-5.6,0.5-7.9,0.5l-0.2-1.4c0.9,0,2,0,3.1,0v-0.7c-1.4-0.2-2.2-0.8-2.2-1.8
				c0-1.2,1.2-1.8,3.2-1.8c1.9,0,3.1,0.7,3.1,1.8c0,0.9-0.8,1.6-2.2,1.8v0.7c1.1-0.1,2.1-0.1,3.1-0.3V1767.6z M113.7,1762h-7.3v-1.3
				h2.7v-1h1.8v1h2.7v1.3H113.7z M116.5,1770.6c0,1.3-1.6,2-4.4,2s-4.4-0.7-4.4-2s1.6-2,4.4-2S116.5,1769.3,116.5,1770.6z
				 M110.1,1764.8c0.9,0,1.4-0.2,1.4-0.6s-0.5-0.7-1.4-0.7s-1.4,0.2-1.4,0.7C108.7,1764.6,109.2,1764.8,110.1,1764.8z M114.7,1770.6
				c0-0.5-0.8-0.7-2.5-0.7s-2.5,0.2-2.5,0.7s0.8,0.7,2.5,0.7C113.9,1771.3,114.7,1771.1,114.7,1770.6z M118.1,1763.4v1.5h-1.6v3.5
				h-1.8v-8.7h1.8v3.7H118.1z"/>
		</g>
		<g id="그룹_5405" transform="translate(129.701 1845.034) rotate(-90)">
			<path id="패스_1794" class="st4" d="M5.1,5.8l5-5.8H0L5.1,5.8z"/>
		</g>
		<g id="그룹_5410" transform="translate(239.463 1845.034) rotate(-90)">
			<path id="패스_1794-2" class="st4" d="M5.1,5.8l5-5.8H0L5.1,5.8z"/>
		</g>
		
			<ellipse id="타원_116" transform="matrix(0.9999 -1.020248e-02 1.020248e-02 0.9999 -18.7696 0.8865)" class="st5" cx="77.5" cy="1840.1" rx="40.7" ry="40.7"/>
		<g class="st1">
			<path class="st6" d="M70.1,1829h-3v-3.3h6.7v23.3h-3.7V1829z"/>
			<path class="st6" d="M81.9,1829h-3v-3.3h6.7v23.3h-3.7V1829z"/>
		</g>
		<g class="st1">
			<path class="st7" d="M66.7,1863.9c1.7-1.5,3.5-2.8,3.5-4.3c0-0.8-0.3-1.3-1.2-1.3c-0.8,0-1.2,0.6-1.3,1.4h-1.1
				c0-1.6,1.1-2.3,2.3-2.3c1.5,0,2.3,0.9,2.3,2.2c0,1.8-1.8,3.1-3,4.2h3.2v1h-4.9v-0.9H66.7z"/>
			<path class="st7" d="M75.2,1857.4c2,0,2.6,1.6,2.6,3.7s-0.6,3.7-2.6,3.7s-2.6-1.6-2.6-3.7S73.1,1857.4,75.2,1857.4z M75.2,1858.4
				c-1.3,0-1.5,1.3-1.5,2.6c0,1.4,0.1,2.7,1.5,2.7s1.5-1.2,1.5-2.7C76.6,1859.7,76.5,1858.4,75.2,1858.4z"/>
			<path class="st7" d="M79.8,1858.6h-0.9v-1H81v7.3h-1.1L79.8,1858.6L79.8,1858.6z"/>
			<path class="st7" d="M82.7,1859.4c0-1.1,0.8-2,2.4-2s2.4,0.9,2.4,2c0,0.8-0.4,1.3-1,1.6c0.7,0.3,1.2,0.9,1.2,1.8
				c0,1.3-1.1,2.2-2.6,2.2s-2.6-0.9-2.6-2.2c0-0.9,0.5-1.5,1.2-1.8C83.1,1860.7,82.7,1860.2,82.7,1859.4z M83.6,1862.8
				c0,0.7,0.6,1.3,1.5,1.3s1.5-0.5,1.5-1.3s-0.6-1.3-1.5-1.3S83.6,1861.9,83.6,1862.8z M86.4,1859.5c0-0.8-0.5-1.2-1.3-1.2
				s-1.3,0.4-1.3,1.2c0,0.7,0.5,1.1,1.3,1.1C85.8,1860.6,86.4,1860.2,86.4,1859.5z"/>
		</g>
		<ellipse id="타원_116-2" class="st5" cx="188.1" cy="1840.1" rx="40.7" ry="40.7"/>
		<g class="st1">
			<path class="st6" d="M178,1829h-3v-3.3h6.7v23.3H178V1829z"/>
			<path class="st6" d="M187.1,1846c5.5-4.8,11.3-9.1,11.3-13.6c0-2.4-1.1-4.1-3.8-4.1c-2.6,0-3.9,1.8-4,4.4h-3.5
				c0.1-5.1,3.4-7.5,7.5-7.5c4.7,0,7.4,2.8,7.4,7c0,5.7-5.8,10-9.5,13.4h10.1v3H187v-2.6H187.1z"/>
		</g>
		<g class="st1">
			<path class="st7" d="M178.3,1863.9c1.7-1.5,3.5-2.8,3.5-4.3c0-0.8-0.3-1.3-1.2-1.3c-0.8,0-1.2,0.6-1.3,1.4h-1.1
				c0-1.6,1.1-2.3,2.3-2.3c1.5,0,2.3,0.9,2.3,2.2c0,1.8-1.8,3.1-3,4.2h3.2v1h-4.9v-0.9H178.3z"/>
			<path class="st7" d="M186.8,1857.4c2,0,2.6,1.6,2.6,3.7s-0.6,3.7-2.6,3.7s-2.6-1.6-2.6-3.7S184.8,1857.4,186.8,1857.4z
				 M186.8,1858.4c-1.3,0-1.5,1.3-1.5,2.6c0,1.4,0.1,2.7,1.5,2.7c1.3,0,1.5-1.2,1.5-2.7C188.3,1859.7,188.1,1858.4,186.8,1858.4z"/>
			<path class="st7" d="M191.4,1858.6h-0.9v-1h2.1v7.3h-1.1v-6.3H191.4z"/>
			<path class="st7" d="M195.5,1862.8c0.1,0.6,0.6,1,1.3,1c0.9,0,1.4-0.6,1.4-2.5c-0.3,0.5-1,0.7-1.6,0.7c-1.3,0-2.3-0.8-2.3-2.3
				c0-1.4,0.9-2.4,2.4-2.4c1.9,0,2.5,1.3,2.5,3.7c0,2.5-0.5,3.8-2.4,3.8c-1.5,0-2.2-0.9-2.3-2L195.5,1862.8L195.5,1862.8z
				 M198.1,1859.8c0-0.9-0.5-1.5-1.4-1.5c-0.8,0-1.4,0.6-1.4,1.4s0.4,1.4,1.4,1.4C197.6,1861.1,198.1,1860.6,198.1,1859.8z"/>
		</g>
		<ellipse id="타원_116-3" class="st5" cx="297.8" cy="1840.1" rx="40.7" ry="40.7"/>
		<g class="st1">
			<path class="st3" d="M286.4,1829h-3v-3.3h6.7v23.3h-3.7V1829z"/>
			<path class="st3" d="M303.3,1825.1c4.6,0,7.2,2.7,7.2,6.1c0,2.8-1.8,4.7-3.6,5.3v0.1c2.4,0.7,4,2.8,4,6c0,3.7-2.6,6.5-7.5,6.5
				c-4.4,0-7.8-2.3-8.1-6.9h3.5c0.2,2.2,1.8,3.8,4.5,3.8s4.1-1.7,4.1-3.8c0-3.1-2-4.1-5.8-4.1h-0.8v-3h0.9c3.3,0,5.3-1,5.3-3.5
				c0-2-1.3-3.4-3.8-3.4c-2.6,0-3.7,1.5-4,3.2h-3.6C295.9,1827.4,299,1825.1,303.3,1825.1z"/>
		</g>
		<g class="st1">
			<path class="st7" d="M286.8,1863.9c1.7-1.5,3.5-2.8,3.5-4.3c0-0.8-0.3-1.3-1.2-1.3c-0.8,0-1.2,0.6-1.3,1.4h-1.1
				c0-1.6,1.1-2.3,2.3-2.3c1.5,0,2.3,0.9,2.3,2.2c0,1.8-1.8,3.1-3,4.2h3.2v1h-4.9v-0.9H286.8z"/>
			<path class="st7" d="M295.2,1857.4c2,0,2.6,1.6,2.6,3.7s-0.6,3.7-2.6,3.7s-2.6-1.6-2.6-3.7S293.2,1857.4,295.2,1857.4z
				 M295.2,1858.4c-1.3,0-1.5,1.3-1.5,2.6c0,1.4,0.2,2.7,1.5,2.7s1.5-1.2,1.5-2.7C296.7,1859.7,296.6,1858.4,295.2,1858.4z"/>
			<path class="st7" d="M299,1863.9c1.7-1.5,3.5-2.8,3.5-4.3c0-0.8-0.3-1.3-1.2-1.3c-0.8,0-1.2,0.6-1.3,1.4h-1.1
				c0-1.6,1.1-2.3,2.3-2.3c1.5,0,2.3,0.9,2.3,2.2c0,1.8-1.8,3.1-3,4.2h3.2v1H299V1863.9z"/>
			<path class="st7" d="M307.4,1857.4c2,0,2.6,1.6,2.6,3.7s-0.6,3.7-2.6,3.7s-2.6-1.6-2.6-3.7S305.4,1857.4,307.4,1857.4z
				 M307.4,1858.4c-1.3,0-1.5,1.3-1.5,2.6c0,1.4,0.2,2.7,1.5,2.7s1.5-1.2,1.5-2.7C308.9,1859.7,308.7,1858.4,307.4,1858.4z"/>
		</g>
	</g>
</g>
</svg>
