<?xml version="1.0" encoding="utf-8"?>
<!-- Generator: Adobe Illustrator 25.1.0, SVG Export Plug-In . SVG Version: 6.00 Build 0)  -->
<svg version="1.1" id="레이어_1" xmlns="http://www.w3.org/2000/svg" xmlns:xlink="http://www.w3.org/1999/xlink" x="0px"
	 y="0px" viewBox="0 0 334.5 405.8" style="enable-background:new 0 0 334.5 405.8;" xml:space="preserve">
<style type="text/css">
	.st0{enable-background:new    ;}
	.st1{fill:#2AA6D3;}
	.st2{fill:#FFFFFF;}
	.st3{clip-path:url(#SVGID_2_);}
	.st4{fill:none;stroke:#2AA6D3;}
	.st5{fill:#555555;}
	.st6{clip-path:url(#SVGID_4_);}
	.st7{fill:none;stroke:#2AA6D3;stroke-linecap:round;stroke-linejoin:round;}
	.st8{clip-path:url(#SVGID_6_);}
	.st9{clip-path:url(#SVGID_8_);}
	.st10{fill:none;stroke:#2AA6D3;stroke-linecap:round;}
	.st11{clip-path:url(#SVGID_10_);}
	.st12{clip-path:url(#SVGID_12_);}
</style>
<g id="그룹_5883" transform="translate(-20 -1139.167)">
	<g class="st0">
		<path class="st1" d="M23.2,1151.9c2,0,3.6-0.1,5.4-0.4l0.2,1.5c-2.1,0.4-4,0.4-6.3,0.4h-1.2v-5.3h4.2v-2.1h-4.2v-1.5h6.1v5h-4.2
			V1151.9z M31.3,1143.5v12.9h-1.8v-12.9H31.3z"/>
		<path class="st1" d="M45.2,1153.3v1.5H33.5v-1.5H45.2z M44,1151.1c-2.2-0.4-3.9-1.7-4.7-3.3c-0.8,1.6-2.5,2.9-4.7,3.3l-0.8-1.6
			c2.9-0.5,4.5-2.5,4.5-4.4v-0.9h2v0.9c0,1.9,1.6,3.9,4.5,4.4L44,1151.1z"/>
		<path class="st1" d="M58,1153.3v1.5H46.4v-1.5H58z M55,1148.1c0-0.7,0-1.4,0-2v0h-7.4v-1.5h9.2v1.5c0,1.9,0,3.7-0.6,6.5l-1.8-0.2
			c0.3-1.1,0.4-2,0.5-2.9l-7.4,0.4l-0.2-1.5L55,1148.1z"/>
		<path class="st1" d="M70.3,1150.8c-2.7,0.5-5.7,0.5-7.9,0.6l-0.2-1.5c0.7,0,1.5,0,2.4,0v-2.5h1.8v2.4c1.3-0.1,2.6-0.2,3.8-0.3
			L70.3,1150.8z M67.5,1148.8c0.2-1.2,0.3-2.1,0.3-2.9H63v-1.5h6.6v0.8c0,0.9,0,2.2-0.3,3.8L67.5,1148.8z M66,1154.7h7.2v1.5h-9
			v-3.9H66V1154.7z M74.3,1147.4v1.5h-1.5v4.2h-1.8v-9.7h1.8v3.9H74.3z"/>
		<path class="st1" d="M77.9,1151.9c2,0,3.6-0.1,5.4-0.4l0.2,1.5c-2.1,0.4-4,0.4-6.3,0.4H76v-5.3h4.2v-2.1H76v-1.5h6.1v5h-4.2
			V1151.9z M86,1143.5v12.9h-1.8v-12.9H86z"/>
		<path class="st1" d="M103,1153.4v1.5H91.4v-1.5H103z M94,1146.1h-1.8v-1.5h9.8v1.5h-1.8v3.9h1.7v1.5h-9.7v-1.5H94V1146.1z
			 M98.5,1146.1h-2.6v3.9h2.6V1146.1z"/>
		<path class="st1" d="M115.9,1153.4v1.5h-11.7v-1.5h4.9v-1.9h-3.6v-4.4h7.2v-1.4h-7.2v-1.5h9v4.3h-7.2v1.4h7.5v1.5H111v1.9H115.9z"
			/>
		<path class="st1" d="M121.2,1146.7c0,2.1,0.6,4.2,2.3,5.4l-1,1.4c-1.1-0.7-1.8-1.8-2.2-3.1c-0.4,1.4-1.2,2.7-2.4,3.4l-1.1-1.4
			c1.9-1.1,2.6-3.5,2.6-5.7v-2.2h1.8V1146.7z M123.8,1143.7h1.7v12.1h-1.7v-6.5h-1.6v-1.5h1.6V1143.7z M128.2,1143.5v12.9h-1.8
			v-12.9H128.2z"/>
		<path class="st1" d="M141.7,1153.3v1.5H130v-1.5H141.7z M140.5,1151.1c-2.2-0.4-3.9-1.7-4.7-3.3c-0.8,1.6-2.5,2.9-4.7,3.3
			l-0.8-1.6c2.9-0.5,4.5-2.5,4.5-4.4v-0.9h2v0.9c0,1.9,1.6,3.9,4.5,4.4L140.5,1151.1z"/>
	</g>
	<g id="그룹_5845" transform="translate(0 -747.012)">
		<g id="그룹_5904" transform="translate(0 -0.078)">
			<rect id="사각형_308" x="200.3" y="1955.7" class="st2" width="154.3" height="137.3"/>
			<rect id="사각형_307" x="200.3" y="1917.1" class="st1" width="154.3" height="38.6"/>
		</g>
		<g id="그룹_5903" transform="translate(-0.295 -0.154)">
			<rect id="사각형_308-2" x="200.3" y="2154.7" class="st2" width="154.3" height="137.3"/>
			<rect id="사각형_307-2" x="200.3" y="2116.2" class="st1" width="154.3" height="38.6"/>
		</g>
		<rect id="사각형_308-3" x="20.7" y="1955.7" class="st2" width="154.3" height="137.3"/>
		<rect id="사각형_308-4" x="21" y="2154.7" class="st2" width="154.3" height="137.3"/>
		<path id="패스_2802" class="st1" d="M20.7,1917.1H175v38.6H20.7V1917.1z"/>
		<rect id="사각형_307-3" x="21" y="2116.2" class="st1" width="154.3" height="38.6"/>
		<g id="그룹_4232" transform="translate(75.429 1981.564)">
			<g>
				<defs>
					<rect id="SVGID_1_" x="0" y="0" width="45.5" height="45.5"/>
				</defs>
				<clipPath id="SVGID_2_">
					<use xlink:href="#SVGID_1_"  style="overflow:visible;"/>
				</clipPath>
				<g id="그룹_4231" transform="translate(0 0)" class="st3">
					<g id="그룹_4229" transform="translate(0 29.864)">
						<path id="패스_1852" class="st4" d="M2.9,15.2h11.5l19.7-4.9l10-6.4c1-0.6,1.2-1.9,0.6-2.9c-0.1-0.1-0.2-0.2-0.3-0.3
							c-0.7-0.7-1.8-0.8-2.7-0.3l-7.4,5h-9.2 M27.7,5.3l7.8-5c0.8-0.6,2-0.4,2.7,0.3c0.3,0.3,0.5,0.7,0.6,1.1 M3.8,6.6h2.1L13.1,2
							c0.8-0.7,1.9-1,2.9-1H29v1.3c0,1.7-1.4,3-3.1,3c0,0,0,0,0,0h-5.4 M0,6.6h3.8v8.5H0"/>
					</g>
					<g id="그룹_4230" transform="translate(5.851 -0.001)">
						<path id="패스_1853" class="st4" d="M25.8,15.3c0,4.8-3.8,8.6-8.6,8.6c0,0,0,0,0,0c-4.8,0-8.6-3.9-8.6-8.6c0,0,0,0,0,0
							c0-4.8,3.8-8.6,8.6-8.6c0,0,0,0,0,0C22,6.7,25.8,10.6,25.8,15.3C25.8,15.3,25.8,15.3,25.8,15.3z M17.3,11.7v7.5 M17.2,3.8V0
							 M13.4,7.7V3.8 M13.4,1.9V0 M21,7.7V3.8 M21,1.9V0 M33.4,23c0,1.1-0.9,1.9-1.9,1.9c-1.1,0-1.9-0.9-1.9-1.9
							c0-1.1,0.9-1.9,1.9-1.9C32.6,21.1,33.4,21.9,33.4,23L33.4,23z M31.5,18.2v-3.8 M31.5,12.4v-1.9 M3.8,23c0,1.1-0.9,1.9-1.9,1.9
							c0,0,0,0,0,0C0.9,24.9,0,24,0,23c0,0,0,0,0,0c0-1.1,0.9-1.9,1.9-1.9C3,21.1,3.8,21.9,3.8,23z M1.9,18.2v-3.8 M1.9,12.4v-1.9"
							/>
					</g>
				</g>
			</g>
		</g>
		<g class="st0">
			<path class="st5" d="M68.8,2059.4c2.1,0,3.9-0.1,6.1-0.4l0.1,0.9c-2.3,0.4-4.2,0.5-6.3,0.5h-1v-4.8h4.6v-2.6h-4.7v-0.9h5.8v4.5
				h-4.6V2059.4z M77.2,2050.8v12.6H76v-12.6H77.2z"/>
			<path class="st5" d="M91,2060.7v1H79.6v-1H91z M89.9,2058c-1.9-0.4-3.9-1.8-4.7-3.6c-0.8,1.8-2.8,3.2-4.7,3.6l-0.5-1
				c2.2-0.4,4.6-2.3,4.6-4.5v-1h1.2v1c0,2.1,2.4,4,4.6,4.5L89.9,2058z"/>
			<path class="st5" d="M103.7,2060.7v0.9H92.4v-0.9H103.7z M101.2,2055.5c0-0.7,0-1.3,0-1.9v-0.6h-7.5v-0.9h8.6v1.5
				c0,1.9,0,3.6-0.5,6.1l-1.1-0.1c0.3-1.2,0.4-2.2,0.5-3.2l-7.6,0.4l-0.2-1L101.2,2055.5z"/>
			<path class="st5" d="M108.7,2057.9c-1.9,0-3.3-1.3-3.3-3.1c0-1.8,1.4-3.1,3.3-3.1c1.9,0,3.3,1.3,3.3,3.1
				C111.9,2056.6,110.5,2057.9,108.7,2057.9z M108.7,2056.9c1.2,0,2.2-0.9,2.2-2.1c0-1.2-0.9-2.1-2.2-2.1c-1.2,0-2.1,0.9-2.1,2.1
				C106.5,2056,107.4,2056.9,108.7,2056.9z M115.8,2062.1v0.9h-8.5v-4h1.1v3.1H115.8z M115.4,2060h-1.1v-9.2h1.1V2060z"/>
			<path class="st5" d="M124.8,2057.6c-1.4-0.5-2.6-1.6-3.1-3c-0.5,1.5-1.7,2.6-3.2,3.2l-0.6-0.9c1.9-0.7,3.2-2.4,3.2-4.3v-1.2h1.1
				v1.2c0,1.8,1.3,3.4,3.2,4.1L124.8,2057.6z M119.7,2059h8.4v4.4H127v-3.4h-7.3V2059z M128.1,2050.8v7.6H127v-7.6H128.1z"/>
		</g>
		<g class="st0">
			<path class="st5" d="M238.8,2049.4c2.1,0,3.9-0.1,6.1-0.4l0.1,0.9c-2.3,0.4-4.2,0.5-6.3,0.5h-1v-4.8h4.6v-2.6h-4.7v-0.9h5.8v4.5
				h-4.6V2049.4z M247.2,2040.8v12.6h-1.1v-12.6H247.2z"/>
			<path class="st5" d="M261,2050.7v1h-11.4v-1H261z M259.9,2048c-1.9-0.4-3.9-1.8-4.7-3.6c-0.8,1.8-2.8,3.2-4.7,3.6l-0.5-1
				c2.2-0.4,4.6-2.3,4.6-4.5v-1h1.2v1c0,2.1,2.4,4,4.6,4.5L259.9,2048z"/>
			<path class="st5" d="M273.7,2050.7v0.9h-11.4v-0.9H273.7z M271.2,2045.5c0-0.7,0-1.3,0-1.9v-0.6h-7.5v-0.9h8.6v1.5
				c0,1.9,0,3.6-0.5,6.1l-1.1-0.1c0.3-1.2,0.4-2.2,0.5-3.2l-7.6,0.4l-0.2-1L271.2,2045.5z"/>
			<path class="st5" d="M289.5,2047.4v0.9h-5v2.4h-1.1v-2.4h-5.2v-0.9H289.5z M280.7,2052.1h7.5v0.9h-8.7v-3.4h1.1V2052.1z
				 M288,2046.2h-8.4v-5h1.1v1.6h6.1v-1.6h1.1V2046.2z M286.9,2043.7h-6.1v1.6h6.1V2043.7z"/>
			<path class="st5" d="M297.6,2047.7c-1.4-0.5-2.5-1.6-3-2.9c-0.5,1.5-1.6,2.6-3.1,3.2l-0.6-0.9c1.9-0.7,3.1-2.4,3.1-4.3v-1.3h1.1
				v1.4c0,1.7,1.2,3.3,3.1,4L297.6,2047.7z M292.8,2048.9h8.4v4.5H300v-3.5h-7.3V2048.9z M301.2,2040.8v7.4H300v-3.9h-2.7v-0.9h2.7
				v-2.6H301.2z"/>
			<path class="st5" d="M313.1,2046.7h-5.9v-5.1h5.9V2046.7z M313.5,2049.7c0,1.2,2,2.4,4.1,2.7l-0.4,0.9c-1.9-0.3-3.6-1.1-4.3-2.3
				c-0.8,1.2-2.5,2-4.4,2.3l-0.4-0.9c2.1-0.3,4.1-1.4,4.2-2.7h-3.7v-0.9h3.7v-1.2h1.2v1.2h3.7v0.9H313.5z M312,2042.5h-3.6v3.3h3.6
				V2042.5z M316.9,2048h-1.1v-7.2h1.1V2048z"/>
		</g>
		<g class="st0">
			<path class="st5" d="M241.9,2068.9h-5.1v4.5h-1.1v-4.5h-5.1v-0.9h11.3L241.9,2068.9z M231.2,2066c2.2-0.3,4.4-1.8,4.4-3.4v-0.1
				h-4v-0.9h9.2v0.9h-3.9v0.1c0,1.7,2.2,3.1,4.4,3.4l-0.4,0.9c-1.9-0.3-3.8-1.4-4.6-2.9c-0.8,1.5-2.6,2.5-4.6,2.9L231.2,2066z"/>
			<path class="st5" d="M254.7,2070.8v1h-11.4v-1h2.8v-3.4c-1.1-0.5-1.7-1.5-1.7-2.6c0-2,1.9-3.2,4.6-3.2c2.7,0,4.6,1.3,4.6,3.2
				c0,1.1-0.6,2-1.7,2.6v3.4H254.7z M245.5,2064.8c0,1.4,1.4,2.3,3.5,2.3s3.5-0.9,3.5-2.3c0-1.4-1.5-2.3-3.5-2.3
				S245.5,2063.4,245.5,2064.8z M247.2,2070.8h3.5v-3c-0.5,0.1-1.1,0.2-1.8,0.2c-0.6,0-1.2-0.1-1.7-0.2V2070.8z"/>
			<path class="st5" d="M260.9,2069.4c2.1,0,3.9-0.1,6.1-0.4l0.1,0.9c-2.3,0.4-4.2,0.5-6.3,0.5h-1v-4.8h4.6v-2.6h-4.7v-0.9h5.8v4.5
				h-4.6V2069.4z M269.3,2060.8v12.6h-1.1v-12.6H269.3z"/>
			<path class="st5" d="M283.1,2070.7v1h-11.4v-1H283.1z M282.1,2068c-1.9-0.4-3.9-1.8-4.7-3.6c-0.8,1.8-2.8,3.2-4.7,3.6l-0.5-1
				c2.2-0.4,4.6-2.3,4.6-4.5v-1h1.2v1c0,2.1,2.4,4,4.6,4.5L282.1,2068z"/>
			<path class="st5" d="M295.9,2070.7v0.9h-11.4v-0.9H295.9z M293.3,2065.5c0-0.7,0-1.3,0-1.9v-0.6h-7.5v-0.9h8.6v1.5
				c0,1.9,0,3.6-0.5,6.1l-1.1-0.1c0.3-1.2,0.4-2.2,0.5-3.2l-7.6,0.4l-0.2-1L293.3,2065.5z"/>
			<path class="st5" d="M311.6,2070.8v1h-11.4v-1h5.1v-3.2h-3.7v-5.8h8.5v0.9h-7.4v3.9h7.5v0.9h-3.8v3.2H311.6z"/>
			<path class="st5" d="M319.2,2067.2v1.2h3.6v2.7h-7.4v1.2h7.8v0.9h-8.9v-2.9h7.4v-1.1h-7.4v-0.9h3.7v-1.2H313v-0.9h11.3v0.9H319.2
				z M313.6,2064.9c2.3-0.2,4.2-0.9,4.4-2.2h-3.9v-0.9h3.9v-1.2h1.1v1.2h3.9v0.9h-3.9c0.2,1.2,2.1,2,4.4,2.2l-0.4,0.9
				c-2.1-0.2-4-0.8-4.7-2c-0.8,1.2-2.6,1.8-4.7,2L313.6,2064.9z"/>
		</g>
		<g class="st0">
			<path class="st5" d="M253.3,2247.1c2.1,0,3.9-0.1,6.1-0.4l0.1,0.9c-2.3,0.4-4.2,0.5-6.3,0.5h-1v-4.8h4.6v-2.6h-4.7v-0.9h5.8v4.5
				h-4.6V2247.1z M261.7,2238.5v12.6h-1.1v-12.6H261.7z"/>
			<path class="st5" d="M275.5,2248.4v1h-11.4v-1H275.5z M274.5,2245.8c-1.9-0.4-3.9-1.8-4.7-3.6c-0.8,1.8-2.8,3.2-4.7,3.6l-0.5-1
				c2.2-0.4,4.6-2.3,4.6-4.5v-1h1.2v1c0,2.1,2.4,4,4.6,4.5L274.5,2245.8z"/>
			<path class="st5" d="M288.3,2248.4v0.9h-11.4v-0.9H288.3z M285.7,2243.2c0-0.7,0-1.3,0-1.9v-0.6h-7.5v-0.9h8.6v1.5
				c0,1.9,0,3.6-0.5,6.1l-1.1-0.1c0.3-1.2,0.4-2.2,0.5-3.2l-7.6,0.4l-0.2-1L285.7,2243.2z"/>
			<path class="st5" d="M298.9,2244.5h-5.7v-5.5h1.1v1.8h3.4v-1.8h1.1v1.2h2.9v-1.8h1.1v6.6h-1.1v-1.6h-2.9V2244.5z M297.8,2241.8
				h-3.4v1.9h3.4V2241.8z M303.4,2250v0.9h-8.5v-3.1h6.9v-1.2h-7v-0.9h8.1v3H296v1.3H303.4z M298.9,2241.2v1.4h2.9v-1.4H298.9z"/>
		</g>
		<g class="st0">
			<path class="st5" d="M245,2265.4c-2.6,0.4-5.6,0.5-7.8,0.5l-0.1-0.9c0.8,0,1.7,0,2.7,0v-2.7h1.1v2.7c1.4-0.1,2.8-0.2,4.1-0.3
				L245,2265.4z M242.6,2263.7c0.3-1.4,0.3-2.5,0.3-3.3h-5.1v-0.9h6.2v0.7c0,0.8,0,2.1-0.3,3.7L242.6,2263.7z M240.2,2269.8h7.2v0.9
				H239v-3.7h1.1V2269.8z M248.7,2262.6v1h-1.8v4.4h-1.1v-9.5h1.1v4.1H248.7z"/>
			<path class="st5" d="M251.8,2267.1c2.1,0,3.9-0.1,6.1-0.4l0.1,0.9c-2.3,0.4-4.2,0.5-6.3,0.5h-1v-4.8h4.6v-2.6h-4.7v-0.9h5.8v4.5
				h-4.6V2267.1z M260.2,2258.5v12.6h-1.1v-12.6H260.2z"/>
			<path class="st5" d="M272,2265.1h-5.8v-5.8h1.1v1.9h3.6v-1.9h1.1V2265.1z M275.5,2268.7c0,1.5-1.6,2.3-4.1,2.3
				c-2.6,0-4.1-0.9-4.1-2.3s1.6-2.3,4.1-2.3C273.9,2266.4,275.5,2267.2,275.5,2268.7z M270.9,2262.1h-3.6v2.1h3.6V2262.1z
				 M274.4,2268.7c0-0.9-1.1-1.4-3-1.4c-1.9,0-3,0.5-3,1.4s1.1,1.4,3,1.4C273.2,2270.1,274.4,2269.6,274.4,2268.7z M277.3,2261.6v1
				h-1.9v3.4h-1.1v-7.6h1.1v3.2H277.3z"/>
			<path class="st5" d="M281.9,2265.6c-1.9,0-3.3-1.3-3.3-3.1c0-1.8,1.4-3.1,3.3-3.1s3.3,1.3,3.3,3.1
				C285.2,2264.3,283.8,2265.6,281.9,2265.6z M281.9,2264.6c1.2,0,2.2-0.9,2.2-2.1c0-1.2-0.9-2.1-2.2-2.1c-1.2,0-2.2,0.9-2.2,2.1
				C279.7,2263.7,280.7,2264.6,281.9,2264.6z M281.5,2269.8h7.2v0.9h-8.4v-4h1.1V2269.8z M290,2262.3v1h-1.8v4.5H287v-9.2h1.1v3.8
				H290z"/>
			<path class="st5" d="M305.5,2266.5h-5.1v4.6h-1.1v-4.6h-5.1v-1h11.3L305.5,2266.5z M304.5,2264.2c-1.9-0.3-3.8-1.4-4.7-2.9
				c-0.8,1.5-2.7,2.6-4.6,2.9l-0.5-0.9c2.3-0.3,4.5-1.8,4.5-3.6v-0.7h1.2v0.7c0,1.8,2.2,3.3,4.5,3.6L304.5,2264.2z"/>
			<path class="st5" d="M314.6,2264.7c-2.1,0.3-3.8,0.4-6.1,0.4h-1v-3.5h4.5v-1.6h-4.6v-0.9h5.7v3.4h-4.6v1.7c2.2,0,3.9-0.1,5.9-0.4
				L314.6,2264.7z M316,2266h1.1v4.9H309v-4.9h1.1v1.5h5.9V2266z M316,2268.4h-5.9v1.5h5.9V2268.4z M317.2,2258.5v6.9H316v-6.9
				H317.2z"/>
		</g>
		<g class="st0">
			<path class="st5" d="M62.4,2258.5v1H51v-1h5.1v-3.1h-3.8v-5.9H61v5.9h-3.7v3.1H62.4z M53.4,2254.5h6.4v-4.1h-6.4V2254.5z"/>
			<path class="st5" d="M65.6,2256.8c1.9,0,3.8-0.2,5.9-0.6l0.1,1c-2.2,0.4-4.2,0.6-6.2,0.6h-1v-8.1h1.1V2256.8z M74,2248.5v12.6
				h-1.1v-12.6H74z"/>
			<path class="st5" d="M78.2,2257.1c2.3,0,3.7-0.1,5.4-0.4l0.1,0.9c-1.8,0.3-3.3,0.4-5.7,0.4h-1v-8.4h5.8v1h-4.7v2.6h4.1v0.9h-4.1
				V2257.1z M86.8,2248.5v12.6h-1.1v-6.9h-2.6v-1h2.6v-4.7H86.8z"/>
			<path class="st5" d="M96.9,2255c-2.1,0.3-3.8,0.4-6.1,0.4h-1v-3.6h4.5v-1.7h-4.6v-0.9h5.7v3.5H91v1.8c2.2,0,3.9-0.1,5.9-0.4
				L96.9,2255z M99.6,2258.8c0,1.5-1.6,2.3-4.2,2.3c-2.6,0-4.2-0.8-4.2-2.3c0-1.4,1.6-2.3,4.2-2.3
				C98,2256.5,99.6,2257.3,99.6,2258.8z M98.4,2258.8c0-0.9-1.1-1.4-3.1-1.4c-1.9,0-3.1,0.5-3.1,1.4c0,0.9,1.1,1.4,3.1,1.4
				C97.3,2260.1,98.4,2259.6,98.4,2258.8z M99.5,2256.2h-1.1v-7.7h1.1V2256.2z"/>
			<path class="st5" d="M111.4,2254.4h-5.9v-5.1h5.9V2254.4z M111.8,2257.4c0,1.2,2,2.4,4.1,2.7l-0.4,0.9c-1.9-0.3-3.6-1.1-4.3-2.3
				c-0.8,1.2-2.5,2-4.4,2.3l-0.4-0.9c2.1-0.3,4.1-1.4,4.2-2.7H107v-0.9h3.7v-1.2h1.2v1.2h3.7v0.9H111.8z M110.3,2250.2h-3.6v3.3h3.6
				V2250.2z M115.2,2255.7h-1.1v-7.2h1.1V2255.7z"/>
			<path class="st5" d="M122.2,2257c1.7,0,2.9-0.1,4.2-0.4l0.1,1c-1.5,0.3-2.8,0.4-4.7,0.4h-0.8v-7.9h4.7v0.9h-3.5V2257z
				 M131.3,2248.5v12.6h-1.1v-6.6h-1.8v6h-1.1v-11.7h1.1v4.8h1.8v-5H131.3z"/>
			<path class="st5" d="M144.7,2254.6v0.9h-11.3v-0.9H144.7z M143.5,2251.2c0,1.5-1.7,2.4-4.4,2.4c-2.7,0-4.4-0.9-4.4-2.4
				c0-1.5,1.7-2.4,4.4-2.4C141.8,2248.8,143.5,2249.7,143.5,2251.2z M143.4,2258.8c0,1.4-1.6,2.2-4.3,2.2c-2.7,0-4.3-0.8-4.3-2.2
				c0-1.4,1.6-2.2,4.3-2.2C141.8,2256.6,143.4,2257.4,143.4,2258.8z M135.8,2251.2c0,0.9,1.2,1.5,3.2,1.5c2,0,3.2-0.6,3.2-1.5
				c0-0.9-1.2-1.5-3.2-1.5C137.1,2249.7,135.8,2250.3,135.8,2251.2z M135.9,2258.8c0,0.9,1.2,1.3,3.1,1.3s3.1-0.5,3.1-1.3
				s-1.2-1.4-3.1-1.4S135.9,2258,135.9,2258.8z"/>
		</g>
		<g id="그룹_4228" transform="translate(257.021 1984.206)">
			<g>
				<defs>
					<rect id="SVGID_3_" x="0" y="0" width="40.7" height="40.8"/>
				</defs>
				<clipPath id="SVGID_4_">
					<use xlink:href="#SVGID_3_"  style="overflow:visible;"/>
				</clipPath>
				<g id="그룹_4224" class="st6">
					<g id="그룹_4223" transform="translate(0.413 0.413)">
						<path id="패스_1847" class="st7" d="M29.5,39.9v-1.3l-5.1-5.1H20v6.4h-0.1v-6.4h-4.4l-5.1,5.1v1.3h-0.1v-1.3l5-5H0V0h39.9
							v33.6H24.6l5,5v1.3H29.5z M0.1,33.4h39.6V2.7H0.1V33.4z M0.1,2.6h39.6V0.1H0.1V2.6z"/>
					</g>
				</g>
			</g>
			<g id="그룹_4225" transform="translate(2.412 8.82)">
				<path id="패스_1849" class="st7" d="M34.4,19.9v-1h-3.8v1h-0.1v-1h-3.8v1h-0.1v-1h-3.8v1h-0.1v-1h-3.8v1h-0.1v-1h-3.8v1h-0.1
					v-1h-3.8v1h-0.1v-1H6.8v1H6.6v-1H2.8v1H2.6v-1H0v-0.1h34.4V0h1.5v0.1h-1.3v3h1.3v0.1h-1.3v3h1.3v0.1h-1.3v3h1.3v0.1h-1.3v3h1.3
					v0.1h-1.3v3h1.3v0.1h-1.3v3h1.3v0.1h-1.3v1L34.4,19.9z"/>
			</g>
			<g>
				<defs>
					<rect id="SVGID_5_" x="0" y="0" width="40.7" height="40.8"/>
				</defs>
				<clipPath id="SVGID_6_">
					<use xlink:href="#SVGID_5_"  style="overflow:visible;"/>
				</clipPath>
				<g id="그룹_4227" class="st8">
					<g id="그룹_4226" transform="translate(4 9.325)">
						<path id="패스_1850" class="st7" d="M1.5,16.4c-0.8,0-1.5-0.7-1.5-1.5s0.7-1.5,1.5-1.5c0.2,0,0.3,0,0.4,0.1l0.4,0.1l2.8-3.9
							L4.9,9.3C4.7,9,4.5,8.7,4.5,8.4c0-0.8,0.7-1.5,1.5-1.5c0,0,0,0,0,0c0.8,0,1.5,0.7,1.5,1.5c0,0.2,0,0.3-0.1,0.5L7.4,9.2
							l2.1,1.8l0.4-0.2c0.2-0.2,0.5-0.2,0.8-0.2c0.2,0,0.4,0,0.5,0.1l0.4,0.1L16,5.2l-0.2-0.3c-0.2-0.2-0.2-0.5-0.2-0.8
							c0-0.8,0.7-1.5,1.5-1.5c0.8,0,1.5,0.7,1.5,1.5l0,0.4l0.4,0.2L22,5.8l0.3-0.3c0.3-0.4,0.7-0.6,1.2-0.6c0.3,0,0.6,0.1,0.8,0.2
							l0.4,0.2l5.2-5.2h-1.8V0H30v2.1h-0.1V0.3l-5.2,5.2l0.1,0.4c0.1,0.2,0.1,0.4,0.1,0.6c0,0.8-0.7,1.5-1.5,1.5
							c-0.8,0-1.5-0.7-1.5-1.5l0-0.4l-0.4-0.2l-3.1-1.1L18.2,5c-0.3,0.4-0.7,0.6-1.2,0.6c-0.2,0-0.4,0-0.6-0.1l-0.4-0.2l-4.4,5.5
							l0.2,0.3c0.2,0.2,0.3,0.5,0.3,0.8c0,0.8-0.7,1.5-1.5,1.5c-0.8,0-1.5-0.7-1.5-1.5c0-0.2,0-0.4,0.1-0.6l0.2-0.4l-2-1.7L7,9.6
							C6.7,9.8,6.4,9.9,6.1,9.9c-0.1,0-0.3,0-0.4-0.1L5.3,9.7l-2.8,4L2.7,14C2.9,14.3,3,14.6,3,14.9C3,15.7,2.4,16.4,1.5,16.4z
							 M1.5,13.5c-0.2,0-0.3,0-0.5,0.1c-0.5,0.2-0.9,0.7-0.9,1.3c0,0.8,0.6,1.4,1.4,1.4c0.8,0,1.4-0.6,1.4-1.4v-0.1l0-0.1
							C2.8,14.1,2.2,13.5,1.5,13.5z M10.6,10.6c-0.8,0-1.4,0.6-1.4,1.4c0,0.1,0,0.2,0.1,0.3c0.1,0.5,0.6,0.9,1.2,1l0.1,0h0.1
							c0.1,0,0.2,0,0.3-0.1c0.6-0.1,1-0.6,1.1-1.2v0V12C12,11.2,11.4,10.6,10.6,10.6z M5.8,7C5.2,7.1,4.7,7.7,4.7,8.3v0.1l0,0.1
							c0.1,0.7,0.7,1.2,1.3,1.2c0.8,0,1.4-0.6,1.4-1.4c0-0.3-0.1-0.7-0.3-0.9L6.9,7.3C6.7,7.1,6.4,7,6.1,7H6L5.8,7z M23.4,5
							c-0.2,0-0.3,0-0.4,0.1c-0.6,0.2-0.9,0.7-0.9,1.3c0,0.3,0.1,0.6,0.3,0.8c0.3,0.4,0.7,0.6,1.1,0.6c0.1,0,0.2,0,0.3,0
							c0.3-0.1,0.5-0.2,0.7-0.4c0.3-0.3,0.4-0.6,0.4-1c0-0.7-0.5-1.3-1.2-1.3l-0.1,0L23.4,5z M17,2.7c-0.7,0-1.3,0.6-1.4,1.3
							c0,0.8,0.5,1.4,1.3,1.5c0,0,0,0,0.1,0c0.1,0,0.2,0,0.3,0c0.6-0.1,1.1-0.7,1.1-1.3c0-0.3-0.1-0.5-0.2-0.8
							C17.9,2.9,17.5,2.7,17,2.7L17,2.7z"/>
					</g>
				</g>
			</g>
		</g>
		<g id="그룹_4215" transform="translate(257.021 2178.595)">
			<g>
				<defs>
					<rect id="SVGID_7_" x="1.5" y="3.1" width="41.2" height="46.5"/>
				</defs>
				<clipPath id="SVGID_8_">
					<use xlink:href="#SVGID_7_"  style="overflow:visible;"/>
				</clipPath>
				<g id="그룹_4210" transform="translate(0 3.085)" class="st9">
					<g id="그룹_4208" transform="translate(10.645 8.474)">
						<path id="패스_1834" class="st4" d="M29.8,38.1v-3.9c0-0.1,0-0.1,0-0.2c1.2-3.4,1.7-6.9,1.7-10.5v-5.1
							c0.1-0.9-0.5-1.8-1.4-2c-1-0.1-1.9,0.6-2,1.6c0,0.1,0,0.2,0,0.3v1.3l0-2.5c0.1-1-0.6-1.8-1.6-2c-1-0.1-1.8,0.7-1.9,1.6
							c0,0.1,0,0.1,0,0.2V17c0-0.8-0.4-1.6-1.2-2c-1-0.2-2,0.3-2.2,1.3c0,0.2-0.1,0.4-0.1,0.5v-5.1c0-0.9-0.5-1.7-1.3-2
							c-1-0.2-1.9,0.3-2.2,1.3c0,0.2-0.1,0.4,0,0.6v7.8c0.1-1.5-1.1-2.8-2.6-2.9h-0.9v7.8c0,1.9,0.5,3.8,1.6,5.3l2.3,3.6
							c0.3,0.3,0.4,0.7,0.4,1.1v3.6 M1.5,0h22.4 M23.9,5.9H4.9 M15.3,12.7H4.9 M11.8,19.5H4.9"/>
					</g>
					<g id="그룹_4209" transform="translate(0.462 0.47)">
						<path id="패스_1835" class="st10" d="M22.5,36.2H3.2c-1,0-1.8-0.9-1.7-1.9V1.9c0-1,0.7-1.9,1.7-1.9h35c1,0,1.8,0.9,1.7,1.9
							V20 M21.6,32.4H5V3.8h31.5V20"/>
					</g>
				</g>
			</g>
			<g id="그룹_4211" transform="translate(7.862 6.863)">
				<path id="패스_1837" class="st4" d="M1.5,0H3"/>
			</g>
			<g>
				<defs>
					<rect id="SVGID_9_" x="1.5" y="0" width="41.2" height="46.5"/>
				</defs>
				<clipPath id="SVGID_10_">
					<use xlink:href="#SVGID_9_"  style="overflow:visible;"/>
				</clipPath>
				<g id="그룹_4214" class="st11">
					<g id="그룹_4212" transform="translate(7.947 12.557)">
						<path id="패스_1838" class="st4" d="M5.5,2c0,1.1-0.9,2-2,2c-1.1,0-2-0.9-2-2c0-1.1,0.9-2,2-2c0,0,0,0,0,0
							C4.6,0,5.5,0.9,5.5,2z"/>
					</g>
					<g id="그룹_4213" transform="translate(7.947 19.24)">
						<path id="패스_1839" class="st4" d="M5.5,2c0,1.1-0.9,2-2,2c-1.1,0-2-0.9-2-2c0-1.1,0.9-2,2-2c0,0,0,0,0,0
							C4.6,0,5.5,0.9,5.5,2z"/>
					</g>
				</g>
			</g>
		</g>
		<g id="그룹_4222" transform="translate(75.7 2182.474)">
			<g>
				<defs>
					<rect id="SVGID_11_" x="0" y="0" width="44.2" height="41.3"/>
				</defs>
				<clipPath id="SVGID_12_">
					<use xlink:href="#SVGID_11_"  style="overflow:visible;"/>
				</clipPath>
				<g id="그룹_4221" transform="translate(0 0)" class="st12">
					<g id="그룹_4216" transform="translate(1.731 0.473)">
						<path id="패스_1841" class="st4" d="M42,14.1v13.2 M0,27.2v-22c0-1,0.8-1.8,1.8-1.8h15.5 M42,29.9v2.6c0,1-0.8,1.8-1.8,1.8
							H1.8c-1,0-1.8-0.8-1.8-1.8v-2.6h17.3 M16.4,34.3v0.9l-0.9,4.4v0.9 M25.5,34.3v0.9l0.9,4.4v0.9 M12.8,40.4h16.4 M29.2,1.8
							C29.2,0.8,30,0,31,0h9.1c1,0,1.8,0.8,1.8,1.8v17.6c0,1-0.8,1.8-1.8,1.8H31c-1,0-1.8-0.8-1.8-1.8V1.8z"/>
					</g>
					<g id="그룹_4217" transform="translate(36.817 16.92)">
						<path id="패스_1842" class="st4" d="M2.1,1c0,0.6-0.5,1-1,1C0.5,2,0,1.6,0,1c0-0.6,0.5-1,1-1C1.6,0,2.1,0.4,2.1,1z"/>
					</g>
					<g id="그룹_4218" transform="translate(22.556 4.128)">
						<path id="패스_1843" class="st4" d="M17.4,19.8v4.3c0,1-0.8,1.7-1.7,1.7H1.7c-1,0-1.7-0.8-1.7-1.7V1.7C0,0.8,0.8,0,1.7,0
							h4.3"/>
					</g>
					<g id="그룹_4219" transform="translate(30.191 26.059)">
						<path id="패스_1844" class="st4" d="M2.1,1c0,0.6-0.5,1-1,1C0.5,2,0,1.6,0,1c0-0.6,0.5-1,1-1C1.6,0,2.1,0.4,2.1,1z"/>
					</g>
					<g id="그룹_4220" transform="translate(0 6.125)">
						<path id="패스_1845" class="st4" d="M0,22.1h4.6l3.7-3.4h1.9l3.7,3.4h1.9L39.9,0 M36.2,0h3.7v3.4"/>
					</g>
				</g>
			</g>
		</g>
		<path id="패스_1855" class="st1" d="M191.7,2004.9l-8.2-4.4l-1-0.5v10.9l1-0.5l8.2-4.4l1.1-0.6L191.7,2004.9z"/>
		<path id="패스_2773" class="st1" d="M278,2109.2l4.4-8.2l0.5-1H272l0.5,1l4.4,8.2l0.6,1.1L278,2109.2z"/>
		<path id="패스_2774" class="st1" d="M183.6,2205l8.2,4.4l1,0.5V2199l-1,0.5l-8.2,4.4l-1.1,0.6L183.6,2205z"/>
		<g class="st0">
			<path class="st2" d="M81,1941.3c-2.1,0-3.8-1-3.8-3h2.5c0.1,0.8,0.5,1.1,1.2,1.1c0.7,0,1.1-0.3,1.1-0.9c0-1.8-4.9-0.8-4.9-4.3
				c0-1.9,1.5-2.9,3.6-2.9c2.1,0,3.6,1.1,3.7,2.9h-2.6c0-0.6-0.5-1-1.1-1c-0.6,0-1,0.3-1,0.9c0,1.7,4.9,0.9,4.9,4.2
				C84.5,1940,83.3,1941.3,81,1941.3z"/>
			<path class="st2" d="M85.5,1931.4h7.6v1.9h-2.6v7.9h-2.4v-7.9h-2.6V1931.4z"/>
			<path class="st2" d="M100.3,1933.3h-3.6v2h3.2v1.8h-3.2v2.2h3.6v1.9h-6v-9.8h6V1933.3z"/>
			<path class="st2" d="M105.7,1937.7h-1.5v3.5h-2.4v-9.8h3.9c2.4,0,3.6,1.4,3.6,3.2C109.4,1936.2,108.2,1937.7,105.7,1937.7z
				 M105.6,1935.8c1,0,1.4-0.5,1.4-1.2c0-0.8-0.4-1.2-1.4-1.2h-1.3v2.5H105.6z"/>
			<path class="st2" d="M114.5,1933.2h-1.4v-2.2h3.9v10.2h-2.5V1933.2z"/>
		</g>
		<g class="st0">
			<path class="st2" d="M259.3,1941.9c-2.1,0-3.8-1-3.8-3h2.5c0.1,0.8,0.5,1.1,1.2,1.1c0.7,0,1.1-0.3,1.1-0.9c0-1.8-4.9-0.8-4.9-4.3
				c0-1.9,1.5-2.9,3.6-2.9c2.1,0,3.6,1.1,3.7,2.9h-2.6c0-0.6-0.5-1-1.1-1c-0.6,0-1,0.3-1,0.9c0,1.7,4.9,0.9,4.9,4.2
				C262.9,1940.5,261.6,1941.9,259.3,1941.9z"/>
			<path class="st2" d="M263.9,1931.9h7.6v1.9h-2.6v7.9h-2.4v-7.9h-2.6V1931.9z"/>
			<path class="st2" d="M278.7,1933.8h-3.6v2h3.2v1.8h-3.2v2.2h3.6v1.9h-6v-9.8h6V1933.8z"/>
			<path class="st2" d="M284.1,1938.2h-1.5v3.5h-2.4v-9.8h3.9c2.4,0,3.6,1.4,3.6,3.2C287.7,1936.7,286.6,1938.2,284.1,1938.2z
				 M283.9,1936.3c1,0,1.4-0.5,1.4-1.2c0-0.8-0.4-1.2-1.4-1.2h-1.3v2.5H283.9z"/>
			<path class="st2" d="M291.6,1939.8c2.2-1.8,4.5-3.6,4.5-5.3c0-0.7-0.3-1.2-1.1-1.2c-0.7,0-1.1,0.6-1.1,1.5h-2.3
				c0.1-2.5,1.7-3.5,3.5-3.5c2.3,0,3.4,1.4,3.4,3.1c0,2.2-2,4-3.6,5.3h3.8v1.9h-7V1939.8z"/>
		</g>
		<g class="st0">
			<path class="st2" d="M259.1,2140.1c-2.1,0-3.8-1-3.8-3h2.5c0.1,0.8,0.5,1.1,1.2,1.1c0.7,0,1.1-0.3,1.1-0.9c0-1.8-4.9-0.8-4.9-4.3
				c0-1.9,1.5-2.9,3.6-2.9c2.1,0,3.6,1.1,3.7,2.9H260c0-0.6-0.5-1-1.1-1c-0.6,0-1,0.3-1,0.9c0,1.7,4.9,0.9,4.9,4.2
				C262.7,2138.8,261.4,2140.1,259.1,2140.1z"/>
			<path class="st2" d="M263.6,2130.2h7.6v1.9h-2.6v7.9h-2.4v-7.9h-2.6V2130.2z"/>
			<path class="st2" d="M278.5,2132.1h-3.6v2h3.2v1.8h-3.2v2.2h3.6v1.9h-6v-9.8h6V2132.1z"/>
			<path class="st2" d="M283.9,2136.5h-1.5v3.5H280v-9.8h3.9c2.4,0,3.6,1.4,3.6,3.2C287.5,2135,286.4,2136.5,283.9,2136.5z
				 M283.7,2134.6c1,0,1.4-0.5,1.4-1.2c0-0.8-0.4-1.2-1.4-1.2h-1.3v2.5H283.7z"/>
			<path class="st2" d="M295,2129.6c2.2,0,3.3,1.2,3.3,2.8c0,1.3-0.8,2.1-1.5,2.3v0.1c1,0.3,1.7,1.1,1.7,2.5c0,1.7-1.2,3-3.4,3
				c-2.1,0-3.7-1-3.7-3.3h2.3c0,0.8,0.4,1.3,1.3,1.3c0.7,0,1.1-0.5,1.1-1.1c0-0.9-0.5-1.3-1.8-1.3H294v-1.9h0.4
				c0.8,0,1.6-0.2,1.6-1.1c0-0.7-0.4-1.1-1.1-1.1c-0.8,0-1.1,0.6-1.1,1.1h-2.3C291.6,2130.7,293,2129.6,295,2129.6z"/>
		</g>
		<g class="st0">
			<path class="st2" d="M79.3,2140.1c-2.1,0-3.8-1-3.8-3H78c0.1,0.8,0.5,1.1,1.2,1.1c0.7,0,1.1-0.3,1.1-0.9c0-1.8-4.9-0.8-4.9-4.3
				c0-1.9,1.5-2.9,3.6-2.9c2.1,0,3.6,1.1,3.7,2.9h-2.6c0-0.6-0.5-1-1.1-1c-0.6,0-1,0.3-1,0.9c0,1.7,4.9,0.9,4.9,4.2
				C82.9,2138.8,81.6,2140.1,79.3,2140.1z"/>
			<path class="st2" d="M83.8,2130.2h7.6v1.9h-2.6v7.9h-2.4v-7.9h-2.6V2130.2z"/>
			<path class="st2" d="M98.6,2132.1H95v2h3.2v1.8H95v2.2h3.6v1.9h-6v-9.8h6V2132.1z"/>
			<path class="st2" d="M104.1,2136.5h-1.5v3.5h-2.4v-9.8h3.9c2.4,0,3.6,1.4,3.6,3.2C107.7,2135,106.6,2136.5,104.1,2136.5z
				 M103.9,2134.6c1,0,1.4-0.5,1.4-1.2c0-0.8-0.4-1.2-1.4-1.2h-1.3v2.5H103.9z"/>
			<path class="st2" d="M116.4,2138.2h-4.7v-1.9l4.4-6.3h2.7v6.2h1.1v2.1h-1.1v1.8h-2.4V2138.2z M116.6,2136.2v-3.6l-2.4,3.6H116.6z
				"/>
		</g>
	</g>
</g>
</svg>
