<?xml version="1.0" encoding="utf-8"?>
<!-- Generator: Adobe Illustrator 25.1.0, SVG Export Plug-In . SVG Version: 6.00 Build 0)  -->
<svg version="1.1" id="레이어_1" xmlns="http://www.w3.org/2000/svg" xmlns:xlink="http://www.w3.org/1999/xlink" x="0px"
	 y="0px" viewBox="0 0 920 542.8" style="enable-background:new 0 0 920 542.8;" xml:space="preserve">
<style type="text/css">
	.st0{enable-background:new    ;}
	.st1{fill:#2AA6D3;}
	.st2{fill:none;}
	.st3{fill:none;stroke:#DBDBDB;}
	.st4{fill:#94989E;}
	.st5{fill:#FFFFFF;}
	.st6{fill:none;stroke:#2AA6D3;}
	.st7{fill:none;stroke:#9F9F9F;}
	.st8{fill:#555555;}
	.st9{fill:none;stroke:#9F9F9F;stroke-dasharray:3,3;}
</style>
<g id="그룹_5456" transform="translate(-740 -1727.945)">
	<g class="st0">
		<path class="st1" d="M745.4,1750.3c3.4,0,6.1-0.2,9.3-0.7l0.3,2.6c-3.6,0.6-6.8,0.8-10.8,0.8h-2v-9.1h7.2v-3.5h-7.2v-2.5h10.4v8.5
			h-7.2V1750.3z M759.4,1735.9v22.2h-3.2v-22.2H759.4z"/>
		<path class="st1" d="M783.1,1752.8v2.6h-20v-2.6H783.1z M781.1,1749c-3.8-0.8-6.7-2.9-8.1-5.7c-1.4,2.8-4.2,5-8.1,5.7l-1.3-2.7
			c5-0.8,7.7-4.3,7.7-7.5v-1.6h3.4v1.6c0,3.2,2.7,6.7,7.7,7.5L781.1,1749z"/>
		<path class="st1" d="M805.2,1752.8v2.6h-20v-2.6H805.2z M800,1743.9c0-1.2,0-2.4,0-3.5v0h-12.6v-2.5h15.7v2.6c0,3.2,0,6.3-1,11.1
			l-3.1-0.3c0.4-1.8,0.7-3.4,0.8-4.9l-12.6,0.6l-0.4-2.6L800,1743.9z"/>
		<path class="st1" d="M826.2,1748.5c-4.6,0.8-9.7,0.9-13.5,1l-0.3-2.5c1.2,0,2.6,0,4,0v-4.3h3.1v4.2c2.2-0.1,4.4-0.3,6.5-0.6
			L826.2,1748.5z M821.4,1745c0.4-2.1,0.5-3.7,0.5-5h-8.2v-2.5H825v1.4c0,1.5,0,3.7-0.5,6.5L821.4,1745z M818.8,1755.1h12.3v2.5
			h-15.4v-6.6h3.2V1755.1z M833,1742.6v2.6h-2.6v7.2h-3.2v-16.6h3.2v6.7H833z"/>
		<path class="st1" d="M839.2,1750.3c3.4,0,6.1-0.2,9.3-0.7l0.3,2.6c-3.6,0.6-6.8,0.8-10.8,0.8h-2v-9.1h7.2v-3.5H836v-2.5h10.4v8.5
			h-7.2V1750.3z M853.2,1735.9v22.2H850v-22.2H853.2z"/>
		<path class="st1" d="M882.3,1752.9v2.6h-20v-2.6h8.4v-4.9h3.2v4.9H882.3z M863.1,1746.5c4.6-0.7,7.2-3.5,7.5-6.4H864v-2.5h16.7
			v2.5H874c0.3,2.9,2.9,5.5,7.6,6.2l-1.2,2.5c-3.9-0.7-6.7-2.5-8.1-5.1c-1.4,2.6-4.2,4.6-8,5.3L863.1,1746.5z"/>
		<path class="st1" d="M896.6,1748.5c-2.4-0.8-4.1-2.4-5.1-4.3c-1,2.2-2.8,3.9-5.3,4.7l-1.6-2.5c3.6-1.2,5.2-4,5.3-6.7h-4.4v-2.5h12
			v2.5H893c0,2.6,1.7,5.2,5.2,6.3L896.6,1748.5z M887.7,1750.2h15v7.8h-3.2v-5.3h-11.9V1750.2z M902.8,1735.9v13.3h-3.2v-13.3H902.8
			z"/>
		<path class="st1" d="M913.4,1742.6c0,3.3,1.1,6.7,4.2,8.4l-1.7,2.4c-1.9-1-3.2-2.8-4-4.9c-0.7,2.3-2,4.3-4,5.4l-1.8-2.4
			c3.1-1.8,4.3-5.5,4.3-8.9v-0.5h-3.5v-2.5h3.5v-3h3v3h3.4v2.5h-3.4V1742.6z M918,1736.3h3v20.7h-3v-10.2h-2.5v-2.6h2.5V1736.3z
			 M925.4,1735.9v22.1h-3v-22.1H925.4z"/>
		<path class="st1" d="M940,1736.4h3v20.7h-3v-7.2H937v-2.5h3.1v-3h-2.7c-1,3.6-3.2,6.7-7.3,9.2l-1.8-2.2c4.4-2.7,6.3-5.9,6.7-10.2
			h-5.4v-2.5h8.6c0,1.1-0.1,2.2-0.2,3.2h2.1V1736.4z M947.6,1735.9v22.1h-3v-22.1H947.6z"/>
	</g>
	<g id="그룹_5414">
		<g id="사각형_467" transform="translate(740.001 1792.945)">
			<rect x="0" class="st2" width="920" height="477.8"/>
			<rect x="0.5" y="0.5" class="st3" width="919" height="476.8"/>
		</g>
		<rect id="사각형_315" x="818.9" y="1815.4" class="st4" width="232.6" height="50"/>
		<rect id="사각형_316" x="1080.5" y="1815.4" class="st4" width="232.6" height="50"/>
		<rect id="사각형_317" x="1341.2" y="1815.4" class="st4" width="232.6" height="50"/>
		<g class="st0">
			<path class="st5" d="M899.8,1837.3c-0.8,2.2-2.8,3.7-5.8,4.5l-0.6-1.2c3.2-0.9,4.9-2.5,5.2-4.7h-4.5v-1.2h6.1
				c0,0.5,0,0.9-0.1,1.3h2.8v-2.3h1.5v8H903v-1.6h-3.3v-1.3h3.3v-1.6H899.8z M904.6,1844.5c0,1.7-1.8,2.7-4.5,2.7
				c-2.7,0-4.5-1-4.5-2.7c0-1.7,1.8-2.7,4.5-2.7C902.8,1841.8,904.6,1842.8,904.6,1844.5z M903.1,1844.5c0-0.9-1.2-1.5-3-1.5
				c-1.8,0-3,0.5-3,1.5c0,0.9,1.2,1.5,3,1.5C901.9,1846,903.1,1845.4,903.1,1844.5z"/>
			<path class="st5" d="M913.5,1839.9c-0.6,0.7-1.6,1.1-2.7,1.1c-2,0-3.5-1.4-3.5-3.3c0-1.9,1.5-3.3,3.5-3.3c1.1,0,2.1,0.4,2.7,1.1
				h3.3v-1.9h1.5v8h-1.5v-1.8H913.5z M910.8,1839.7c1.2,0,2-0.8,2-2c0-1.2-0.9-2-2-2c-1.2,0-2.1,0.8-2.1,2
				C908.8,1838.9,909.6,1839.7,910.8,1839.7z M918.4,1844.6c0,1.7-1.8,2.6-4.6,2.6s-4.6-1-4.6-2.6c0-1.6,1.7-2.6,4.6-2.6
				S918.4,1842.9,918.4,1844.6z M916.9,1844.6c0-0.9-1.1-1.4-3-1.4c-1.9,0-3,0.5-3,1.4c0,0.9,1.1,1.4,3,1.4
				C915.7,1846,916.9,1845.5,916.9,1844.6z M914.2,1836.8c0.1,0.3,0.1,0.6,0.1,0.9s0,0.6-0.1,0.9h2.6v-1.8H914.2z"/>
			<path class="st5" d="M929.3,1841.3c-2.8,0.5-6,0.6-8.4,0.6l-0.2-1.3c0.8,0,1.7,0,2.7,0v-2.8h1.5v2.7c1.4-0.1,2.9-0.2,4.2-0.4
				L929.3,1841.3z M926.5,1839.3c0.3-1.5,0.3-2.5,0.3-3.4h-5.3v-1.3h6.8v0.8c0,0.9,0,2.2-0.3,4L926.5,1839.3z M924.4,1845.7h7.6v1.3
				h-9.2v-4h1.6V1845.7z M933.4,1838v1.3h-1.8v4.6H930v-10.2h1.6v4.3H933.4z"/>
			<path class="st5" d="M937,1842.8c2.1,0,4-0.1,6.2-0.5l0.2,1.3c-2.3,0.4-4.3,0.5-6.7,0.5h-1.2v-5.4h4.7v-2.5h-4.8v-1.3h6.3v5H937
				V1842.8z M945.9,1833.7v13.6h-1.6v-13.6H945.9z"/>
			<path class="st5" d="M960.8,1842.8h-5.4v4.4h-1.5v-4.4h-5.3v-1.2h12.3V1842.8z M959.3,1840.1H950v-5.9h1.5v1.7h6.2v-1.7h1.5
				V1840.1z M957.7,1837.2h-6.2v1.7h6.2V1837.2z"/>
			<path class="st5" d="M974.6,1840.7v1.2h-5.2v2.4h-1.5v-2.4h-5.5v-1.2H974.6z M965.3,1845.7h7.9v1.3h-9.4v-3.7h1.5V1845.7z
				 M973,1839.6h-9.1v-5.5h1.5v1.6h6v-1.6h1.5V1839.6z M971.4,1836.9h-6v1.5h6V1836.9z"/>
		</g>
		<g class="st0">
			<path class="st5" d="M1152.9,1837c0,2.4,1.3,4.9,3.3,5.9l-0.9,1.2c-1.5-0.8-2.5-2.2-3.1-4c-0.6,1.9-1.7,3.4-3.3,4.2l-0.9-1.2
				c2.1-1,3.4-3.6,3.4-6.1v-2.2h1.5V1837z M1160.8,1840.3h-2.1v6.9h-1.5v-13.5h1.5v5.4h2.1V1840.3z"/>
			<path class="st5" d="M1173.2,1833.7v7.3h-1.5v-2.9h-2.5c-0.3,1.5-1.6,2.6-3.4,2.6c-2,0-3.5-1.3-3.5-3.2c0-1.9,1.5-3.2,3.5-3.2
				c1.8,0,3.1,1,3.4,2.5h2.5v-3.1H1173.2z M1167.7,1837.4c0-1.2-0.9-1.9-2-1.9c-1.2,0-2.1,0.7-2.1,1.9c0,1.1,0.9,1.9,2.1,1.9
				C1166.9,1839.4,1167.7,1838.6,1167.7,1837.4z M1171.7,1841.6h1.5v5.5h-8.8v-5.5h1.5v1.5h5.7V1841.6z M1171.7,1844.3h-5.7v1.5h5.7
				V1844.3z"/>
			<path class="st5" d="M1182.7,1834.1h1.2l-4.2,14.7h-1.2L1182.7,1834.1z"/>
			<path class="st5" d="M1194.8,1839.9c-0.6,0.7-1.6,1.1-2.7,1.1c-2,0-3.5-1.4-3.5-3.3c0-1.9,1.5-3.3,3.5-3.3c1.1,0,2.1,0.4,2.7,1.1
				h3.3v-1.9h1.5v8h-1.5v-1.8H1194.8z M1192.1,1839.7c1.2,0,2-0.8,2-2c0-1.2-0.9-2-2-2c-1.2,0-2.1,0.8-2.1,2
				C1190,1838.9,1190.9,1839.7,1192.1,1839.7z M1199.6,1844.6c0,1.7-1.8,2.6-4.6,2.6s-4.6-1-4.6-2.6c0-1.6,1.7-2.6,4.6-2.6
				S1199.6,1842.9,1199.6,1844.6z M1198.1,1844.6c0-0.9-1.1-1.4-3-1.4c-1.9,0-3,0.5-3,1.4c0,0.9,1.1,1.4,3,1.4
				C1197,1846,1198.1,1845.5,1198.1,1844.6z M1195.5,1836.8c0.1,0.3,0.1,0.6,0.1,0.9s0,0.6-0.1,0.9h2.6v-1.8H1195.5z"/>
			<path class="st5" d="M1213.4,1833.7v7.3h-1.5v-2.9h-2.5c-0.3,1.5-1.6,2.6-3.4,2.6c-2,0-3.5-1.3-3.5-3.2c0-1.9,1.5-3.2,3.5-3.2
				c1.8,0,3.1,1,3.4,2.5h2.5v-3.1H1213.4z M1207.9,1837.4c0-1.2-0.9-1.9-2-1.9c-1.2,0-2.1,0.7-2.1,1.9c0,1.1,0.9,1.9,2.1,1.9
				C1207.1,1839.4,1207.9,1838.6,1207.9,1837.4z M1211.9,1841.6h1.5v5.5h-8.8v-5.5h1.5v1.5h5.7V1841.6z M1211.9,1844.3h-5.7v1.5h5.7
				V1844.3z"/>
			<path class="st5" d="M1228.2,1842.8h-5.4v4.4h-1.5v-4.4h-5.3v-1.2h12.3V1842.8z M1226.7,1840.1h-9.3v-5.9h1.5v1.7h6.2v-1.7h1.5
				V1840.1z M1225.2,1837.2h-6.2v1.7h6.2V1837.2z"/>
			<path class="st5" d="M1242,1840.5v1.2h-5.2v2.5h-1.5v-2.5h-5.5v-1.2H1242z M1232.8,1845.7h7.9v1.3h-9.4v-3.9h1.5V1845.7z
				 M1240.4,1839.2h-9.1v-4.9h9.1V1839.2z M1238.9,1835.5h-6.1v2.4h6.1V1835.5z"/>
		</g>
		<g class="st0">
			<path class="st5" d="M1422.6,1841c-1.2-0.5-2-1.4-2.5-2.4c-0.5,1.2-1.4,2.3-2.7,2.9l-0.8-1.2c1.8-0.8,2.7-2.5,2.7-4.1v-1.7h1.5
				v1.7c0,1.5,0.9,3,2.6,3.7L1422.6,1841z M1428.1,1844.8c0,1.5-1.8,2.5-4.6,2.5c-2.8,0-4.6-0.9-4.6-2.5c0-1.6,1.8-2.5,4.6-2.5
				C1426.4,1842.3,1428.1,1843.2,1428.1,1844.8z M1426.6,1844.8c0-0.8-1.1-1.3-3-1.3c-1.9,0-3,0.5-3,1.3c0,0.8,1.1,1.3,3,1.3
				C1425.4,1846,1426.6,1845.6,1426.6,1844.8z M1425.2,1841.6h-1.5v-7.6h1.5v3.2h1.4v-3.5h1.5v8.3h-1.5v-3.6h-1.4V1841.6z"/>
			<path class="st5" d="M1437.6,1841.5c-1.5-0.5-2.6-1.6-3.2-2.9c-0.6,1.5-1.7,2.6-3.3,3.2l-0.8-1.2c2.2-0.7,3.3-2.6,3.3-4.5v-1.6
				h1.6v1.6c0,1.8,1.2,3.5,3.2,4.2L1437.6,1841.5z M1434,1845.7h7.5v1.3h-9.1v-4.3h1.5V1845.7z M1442.9,1837.7v1.3h-1.9v4.6h-1.5
				v-10h1.5v4.1H1442.9z"/>
			<path class="st5" d="M1447.8,1834.1h1.2l-4.2,14.7h-1.2L1447.8,1834.1z"/>
			<path class="st5" d="M1456.5,1840.2c-0.6,0.7-1.6,1.2-2.7,1.2c-2,0-3.5-1.4-3.5-3.4c0-2,1.5-3.4,3.5-3.4c1.1,0,2.1,0.5,2.7,1.2
				h3.3v-2h1.5v10h-1.5v-3.4H1456.5z M1453.8,1840.1c1.2,0,2-0.8,2-2.1c0-1.2-0.9-2.1-2-2.1c-1.2,0-2.1,0.8-2.1,2.1
				C1451.7,1839.2,1452.6,1840.1,1453.8,1840.1z M1461.6,1845.7v1.3h-9.1v-4.3h1.5v3.1H1461.6z M1457.1,1837c0.1,0.3,0.2,0.6,0.2,1
				c0,0.4,0,0.7-0.2,1h2.6v-2H1457.1z"/>
			<path class="st5" d="M1476.1,1841.6h-5.4v5.7h-1.6v-5.7h-5.3v-1.3h8.8c0.4-1.9,0.4-3.3,0.4-4.5h-7.7v-1.2h9.2v1.2
				c0,1.3,0,2.7-0.3,4.6h1.9V1841.6z"/>
			<path class="st5" d="M1489.9,1842.8h-5.4v4.4h-1.5v-4.4h-5.3v-1.2h12.3V1842.8z M1488.4,1840.1h-9.3v-5.9h1.5v1.7h6.2v-1.7h1.5
				V1840.1z M1486.8,1837.2h-6.2v1.7h6.2V1837.2z"/>
			<path class="st5" d="M1503.7,1840.5v1.2h-5.2v2.5h-1.5v-2.5h-5.5v-1.2H1503.7z M1494.5,1845.7h7.9v1.3h-9.4v-3.9h1.5V1845.7z
				 M1502.1,1839.2h-9.1v-4.9h9.1V1839.2z M1500.6,1835.5h-6.1v2.4h6.1V1835.5z"/>
		</g>
		<path id="패스_1877" class="st6" d="M937.1,1869.9v30.3h521.4"/>
		<path id="패스_1878" class="st6" d="M932.4,1874.8l4.7-5.1l4.7,5.1"/>
		<path id="패스_1879" class="st6" d="M1453.8,1874.8l4.7-5.1l4.7,5.1"/>
		<path id="패스_1880" class="st6" d="M1187.4,1900.1v-30.2"/>
		<path id="패스_1880-2" class="st6" d="M1458.5,1992.1v-122.2"/>
		<path id="패스_1881" class="st6" d="M1182.6,1874.8l4.7-5.1l4.7,5.1"/>
		<g class="st0">
			<path class="st1" d="M1208.9,1883.7c-1.6-0.6-2.8-1.8-3.5-3.2c-0.6,1.6-1.9,3-3.6,3.6l-0.7-1c2.1-0.8,3.6-2.7,3.6-4.7v-0.5h-3.2
				v-1.1h7.7v1.1h-3.2v0.5c0,1.9,1.4,3.7,3.5,4.4L1208.9,1883.7z M1203.6,1884.9h9.3v5.1h-9.3V1884.9z M1204.9,1888.9h6.8v-3h-6.8
				V1888.9z M1212.9,1875.8v8.4h-1.3v-3.7h-2.8v-1.1h2.8v-3.6H1212.9z"/>
			<path class="st1" d="M1223.2,1876.7c0,3.6-2.5,6.2-6.7,7.4l-0.5-1c3.4-1,5.5-2.8,5.8-5.3h-5.1v-1.1H1223.2z M1218.4,1884.6h9.3
				v5.3h-9.3V1884.6z M1219.7,1888.9h6.7v-3.2h-6.7V1888.9z M1227.6,1875.8v8.2h-1.3v-3.4h-3.1v-1.1h3.1v-3.7H1227.6z"/>
		</g>
		<g class="st0">
			<path class="st1" d="M1485.2,1882.6v1.1h-13v-1.1H1485.2z M1484,1881.5c-2.2-0.4-4.3-1.5-5.2-3.1c-0.9,1.6-3,2.8-5.2,3.1l-0.5-1
				c2.6-0.4,5.1-1.9,5.1-3.8v-0.6h1.3v0.6c0,1.8,2.5,3.4,5.1,3.8L1484,1881.5z M1483.6,1887.6c0,1.6-1.8,2.6-4.9,2.6
				c-3.1,0-4.9-0.9-4.9-2.6c0-1.6,1.9-2.5,4.9-2.5C1481.8,1885,1483.6,1886,1483.6,1887.6z M1482.3,1887.6c0-1-1.3-1.5-3.6-1.5
				c-2.3,0-3.6,0.6-3.6,1.5c0,1,1.3,1.5,3.6,1.5C1481,1889.1,1482.3,1888.6,1482.3,1887.6z"/>
			<path class="st1" d="M1491,1883.9c-2.1,0-3.7-1.5-3.7-3.6c0-2.1,1.6-3.5,3.7-3.5c2.1,0,3.8,1.5,3.8,3.5
				C1494.8,1882.4,1493.1,1883.9,1491,1883.9z M1491,1882.7c1.4,0,2.5-1,2.5-2.4c0-1.4-1.1-2.4-2.5-2.4c-1.4,0-2.4,1-2.4,2.4
				C1488.6,1881.8,1489.6,1882.7,1491,1882.7z M1499.2,1888.8v1.1h-9.7v-4.6h1.3v3.5H1499.2z M1498.7,1886.3h-1.3v-10.5h1.3V1886.3z
				"/>
		</g>
		<g id="그룹_4268" transform="translate(987.054 1937.375)">
			<path id="패스_1873" class="st7" d="M424,0H0"/>
		</g>
		<g id="그룹_4269" transform="translate(987.054 1932.634)">
			<path id="패스_1874" class="st7" d="M5.1,9.5L0,4.7L5.1,0"/>
		</g>
		<g id="그룹_4270" transform="translate(989.604 1952.538)">
			<path id="패스_1875" class="st7" d="M0,0h423.8"/>
		</g>
		<g id="그룹_4271" transform="translate(1408.332 1947.798)">
			<path id="패스_1876" class="st7" d="M0,0l5.1,4.7L0,9.5"/>
		</g>
		<g class="st0">
			<path class="st8" d="M1193.3,1925.2v1h-12.2v-1h5.5v-2.9h-4v-6.9h1.2v2.4h6.9v-2.4h1.2v6.9h-4v2.9H1193.3z M1183.8,1921.3h6.9
				v-2.5h-6.9V1921.3z"/>
			<path class="st8" d="M1207.1,1925v1H1195v-1h4.7v-4.8h1.2v4.8H1207.1z M1204.4,1916.8h-8.2v-1h9.4v1.3c0,1.7,0,3.5-0.5,6.2
				l-1.2-0.1c0.5-2.6,0.5-4.5,0.5-6.1V1916.8z"/>
		</g>
		<g class="st0">
			<path class="st8" d="M1169.3,1970.8c-1.5-0.5-2.8-1.7-3.4-3.1c-0.6,1.6-1.8,2.8-3.4,3.4l-0.6-1c2-0.7,3.4-2.5,3.4-4.5v-1.3h1.2
				v1.3c0,1.9,1.4,3.6,3.4,4.2L1169.3,1970.8z M1164.1,1972.2h8.7v4.8h-8.7V1972.2z M1165.3,1976.1h6.3v-2.9h-6.3V1976.1z
				 M1172.8,1963.8v7.6h-1.2v-7.6H1172.8z"/>
			<path class="st8" d="M1175.7,1973.3c2.4,0,5.8,0,8.8-0.5l0.1,0.9c-3,0.6-6.3,0.6-8.7,0.6L1175.7,1973.3z M1183.5,1967.9
				c0,1.9-1.5,3.2-3.6,3.2c-2.1,0-3.6-1.3-3.6-3.2c0-1.9,1.5-3.2,3.6-3.2C1182,1964.8,1183.5,1966,1183.5,1967.9z M1177.5,1967.9
				c0,1.2,1,2.1,2.4,2.1c1.4,0,2.4-0.9,2.4-2.1c0-1.3-1-2.1-2.4-2.1C1178.5,1965.8,1177.5,1966.7,1177.5,1967.9z M1186.5,1963.8
				v13.5h-1.2v-13.5H1186.5z"/>
			<path class="st8" d="M1191.7,1970.7c0-0.6,0.5-1.1,1-1.1c0.5,0,1,0.4,1,1.1c0,0.6-0.5,1-1,1
				C1192.2,1971.7,1191.7,1971.3,1191.7,1970.7z"/>
			<path class="st8" d="M1209.9,1970.2v1h-12.2v-1H1209.9z M1208.8,1969.1c-2.1-0.3-4-1.4-4.9-2.9c-0.8,1.5-2.8,2.6-4.9,2.9l-0.4-1
				c2.4-0.3,4.7-1.8,4.7-3.6v-0.6h1.3v0.6c0,1.7,2.4,3.2,4.7,3.6L1208.8,1969.1z M1208.5,1974.8c0,1.5-1.7,2.4-4.6,2.4
				c-2.9,0-4.6-0.9-4.6-2.4c0-1.5,1.7-2.4,4.6-2.4C1206.7,1972.4,1208.5,1973.3,1208.5,1974.8z M1207.2,1974.8
				c0-0.9-1.2-1.4-3.3-1.4c-2.1,0-3.4,0.5-3.4,1.4c0,0.9,1.2,1.4,3.4,1.4C1206,1976.3,1207.2,1975.8,1207.2,1974.8z"/>
			<path class="st8" d="M1215.4,1971.4c-2,0-3.5-1.4-3.5-3.3c0-1.9,1.5-3.3,3.5-3.3c2,0,3.5,1.4,3.5,3.3
				C1218.9,1970,1217.4,1971.4,1215.4,1971.4z M1215.4,1970.3c1.3,0,2.3-0.9,2.3-2.3c0-1.3-1-2.2-2.3-2.2c-1.3,0-2.3,0.9-2.3,2.2
				C1213.1,1969.4,1214.1,1970.3,1215.4,1970.3z M1223,1975.9v1h-9.1v-4.3h1.2v3.3H1223z M1222.6,1973.6h-1.2v-9.8h1.2V1973.6z"/>
		</g>
		<path id="패스_1882" class="st6" d="M1311.7,1993.8V1906"/>
		<g id="그룹_4275" transform="translate(1306.941 1905.99)">
			<path id="패스_1883" class="st6" d="M0,4.9L4.7,0l4.7,4.9"/>
		</g>
		<path id="패스_1885" class="st5" d="M764.2,2247h203.5v-187.7H764.2V2247z"/>
		<path id="패스_1884" class="st1" d="M764,2059.9h203.5v-67.8H764V2059.9z"/>
		<g class="st0">
			<path class="st5" d="M835.2,2029.3c1.3-0.1,2.5-0.2,3.7-0.4l0.1,1.2c-3.2,0.6-6.6,0.7-9.2,0.7l-0.2-1.4c1.1,0,2.5,0,3.9,0v-2.5
				h1.6V2029.3z M830,2026.1c2.1-0.6,3.4-2.1,3.5-3.8h-3.1v-1.3h3.1v-1.7h1.6v1.7h3.2v1.3h-3.2c0.1,1.6,1.4,3.1,3.5,3.6l-0.7,1.3
				c-1.7-0.5-2.9-1.5-3.6-2.8c-0.6,1.4-1.9,2.5-3.6,3L830,2026.1z M841.4,2019.1v14.5h-1.7v-14.5H841.4z"/>
			<path class="st5" d="M857.3,2030.3v1.4h-13.1v-1.4h4.9v-5.1h1.7v5.1H857.3z M854.3,2021.8h-8.6v-1.3h10.3v1.4
				c0,1.8,0,3.8-0.6,6.8l-1.7-0.2C854.3,2025.7,854.3,2023.6,854.3,2021.8L854.3,2021.8z"/>
			<path class="st5" d="M866,2023c-0.9,2.3-3,3.9-6.1,4.8l-0.7-1.3c3.4-0.9,5.3-2.7,5.6-5h-4.8v-1.3h6.6c0,0.5,0,1-0.1,1.4h3v-2.5
				h1.6v8.5h-1.6v-1.7h-3.5v-1.3h3.5v-1.7H866z M871.1,2030.7c0,1.8-1.9,2.9-4.8,2.9s-4.8-1.1-4.8-2.9c0-1.8,1.9-2.8,4.8-2.8
				S871.1,2028.9,871.1,2030.7z M869.4,2030.7c0-1-1.2-1.6-3.2-1.6c-2,0-3.2,0.6-3.2,1.6c0,1,1.2,1.6,3.2,1.6
				C868.2,2032.2,869.4,2031.7,869.4,2030.7z"/>
			<path class="st5" d="M880.6,2025.7c-0.7,0.7-1.7,1.2-2.9,1.2c-2.2,0-3.8-1.4-3.8-3.5c0-2,1.6-3.5,3.8-3.5c1.2,0,2.2,0.4,2.9,1.2
				h3.5v-2h1.6v8.5H884v-1.9H880.6z M877.7,2025.5c1.2,0,2.2-0.8,2.2-2.1c0-1.3-0.9-2.1-2.2-2.1c-1.3,0-2.2,0.8-2.2,2.1
				C875.5,2024.7,876.4,2025.5,877.7,2025.5z M885.8,2030.8c0,1.8-1.9,2.8-4.9,2.8s-4.9-1-4.9-2.8c0-1.8,1.9-2.8,4.9-2.8
				S885.8,2029,885.8,2030.8z M884.1,2030.8c0-1-1.2-1.5-3.2-1.5c-2,0-3.2,0.5-3.2,1.5c0,1,1.2,1.5,3.2,1.5
				C882.9,2032.3,884.1,2031.8,884.1,2030.8z M881.3,2022.5c0.1,0.3,0.1,0.6,0.1,1c0,0.4,0,0.7-0.1,1h2.8v-2H881.3z"/>
			<path class="st5" d="M893.5,2023.3c0,2.2,1.4,4.8,3.6,5.8l-0.9,1.3c-1.6-0.8-2.8-2.4-3.5-4.2c-0.6,2-1.9,3.7-3.6,4.6l-0.9-1.3
				c2.2-1.1,3.7-3.8,3.7-6.2v-1.4h-3.2v-1.4h7.9v1.4h-3.1V2023.3z M901.9,2026.2h-2.3v7.4H898v-14.5h1.6v5.7h2.3V2026.2z"/>
		</g>
		<g class="st0">
			<path class="st8" d="M789,2090.3c0-1.1,0.8-1.9,1.8-1.9c0.9,0,1.8,0.8,1.8,1.9c0,1.1-0.8,1.9-1.8,1.9
				C789.8,2092.2,789,2091.4,789,2090.3z"/>
			<path class="st8" d="M798.9,2091.5c2.1,0,3.9-0.1,6.1-0.4l0.1,0.9c-2.3,0.4-4.2,0.5-6.3,0.5h-1v-4.8h4.6v-2.6h-4.7v-0.9h5.8v4.5
				h-4.6V2091.5z M807.3,2082.9v12.6h-1.1v-12.6H807.3z"/>
			<path class="st8" d="M821.3,2092.8v1h-11.4v-1H821.3z M820.2,2090.1c-1.9-0.4-3.9-1.8-4.7-3.6c-0.8,1.8-2.8,3.2-4.7,3.6l-0.5-1
				c2.2-0.4,4.6-2.3,4.6-4.5v-1h1.2v1c0,2.1,2.4,4,4.6,4.5L820.2,2090.1z"/>
			<path class="st8" d="M834.2,2092.7v0.9h-11.4v-0.9H834.2z M831.6,2087.6c0-0.7,0-1.3,0-1.9v-0.6h-7.5v-0.9h8.6v1.5
				c0,1.9,0,3.6-0.5,6.1l-1.1-0.1c0.3-1.2,0.4-2.2,0.5-3.2l-7.6,0.4l-0.2-1L831.6,2087.6z"/>
			<path class="st8" d="M846.3,2089.5c-2.4,0.4-5.3,0.4-7.3,0.4l-0.1-1c0.5,0,1,0,1.6,0v-4.2h-1.2v-0.9h6.6v0.9h-1.2v4
				c0.6,0,1.1-0.1,1.6-0.2L846.3,2089.5z M849.2,2093.1c0,1.5-1.6,2.3-4.2,2.3c-2.6,0-4.2-0.8-4.2-2.3c0-1.4,1.6-2.3,4.2-2.3
				C847.6,2090.9,849.2,2091.7,849.2,2093.1z M841.5,2088.9c0.6,0,1.3,0,1.9-0.1v-4.1h-1.9V2088.9z M848,2093.1c0-0.9-1.1-1.4-3-1.4
				s-3,0.5-3,1.4c0,0.9,1.1,1.4,3,1.4S848,2094,848,2093.1z M848,2088.3h-2.1v-0.9h2.1v-1.3h-2.1v-0.9h2.1v-2.2h1.2v7.7H848V2088.3z
				"/>
			<path class="st8" d="M858.1,2084.2c0,3.6-1.6,6.8-5.7,8.8l-0.6-0.9c3.2-1.6,4.9-4,5.2-7h-4.6v-1H858.1z M863.4,2088.9h-2v6.5
				h-1.1v-12.6h1.1v5.1h2V2088.9z"/>
			<path class="st8" d="M874.2,2088.8h-5.9v-5.1h5.9V2088.8z M874.6,2091.8c0,1.2,2,2.4,4.1,2.7l-0.4,0.9c-1.9-0.3-3.6-1.1-4.3-2.3
				c-0.8,1.2-2.5,2-4.4,2.3l-0.4-0.9c2.1-0.3,4.1-1.4,4.2-2.7h-3.7v-0.9h3.7v-1.2h1.2v1.2h3.7v0.9H874.6z M873.1,2084.6h-3.6v3.3
				h3.6V2084.6z M878,2090.1h-1.1v-7.2h1.1V2090.1z"/>
			<path class="st8" d="M891.6,2089.8c-2.6,0.4-5.6,0.5-7.8,0.5l-0.1-0.9c0.8,0,1.7,0,2.7,0v-2.7h1.1v2.7c1.4-0.1,2.8-0.2,4.1-0.3
				L891.6,2089.8z M889.2,2088.1c0.3-1.4,0.3-2.5,0.3-3.3h-5.1v-0.9h6.2v0.7c0,0.8,0,2.1-0.3,3.7L889.2,2088.1z M886.7,2094.2h7.2
				v0.9h-8.3v-3.7h1.1V2094.2z M895.3,2087v1h-1.8v4.4h-1.1v-9.5h1.1v4.1H895.3z"/>
			<path class="st8" d="M898.5,2091.5c2.1,0,3.9-0.1,6.1-0.4l0.1,0.9c-2.3,0.4-4.2,0.5-6.3,0.5h-1v-4.8h4.6v-2.6h-4.7v-0.9h5.8v4.5
				h-4.6V2091.5z M906.9,2082.9v12.6h-1.1v-12.6H906.9z"/>
			<path class="st8" d="M920.6,2088.5c-2.5,0.4-5.4,0.5-7.6,0.5l-0.1-1c0.5,0,1,0,1.6,0v-3.4h-1.2v-0.9h6.7v0.9h-1.2v3.2
				c0.6,0,1.2-0.1,1.8-0.2L920.6,2088.5z M923.4,2094.4v0.9h-8.6v-3.1h7v-1.3h-7.1v-0.9h8.2v3h-7v1.4H923.4z M915.5,2088
				c0.7,0,1.4,0,2-0.1v-3.3h-2V2088z M922.9,2089.4h-1.1v-6.5h1.1V2089.4z"/>
			<path class="st8" d="M936.9,2092.9v1h-11.4v-1h2.8v-3.4c-1.1-0.5-1.7-1.5-1.7-2.6c0-2,1.9-3.2,4.6-3.2c2.7,0,4.6,1.3,4.6,3.2
				c0,1.1-0.6,2-1.7,2.6v3.4H936.9z M927.7,2086.9c0,1.4,1.4,2.3,3.5,2.3s3.5-0.9,3.5-2.3c0-1.4-1.5-2.3-3.5-2.3
				S927.7,2085.5,927.7,2086.9z M929.4,2092.9h3.5v-3c-0.5,0.1-1.1,0.2-1.8,0.2c-0.6,0-1.2-0.1-1.7-0.2V2092.9z"/>
		</g>
		<g class="st0">
			<path class="st8" d="M803.9,2111.5h-5.8v-5.8h1.1v1.9h3.6v-1.9h1.1V2111.5z M807.5,2115.1c0,1.5-1.6,2.3-4.1,2.3
				c-2.6,0-4.1-0.9-4.1-2.3s1.6-2.3,4.1-2.3C805.9,2112.8,807.5,2113.6,807.5,2115.1z M802.8,2108.5h-3.6v2.1h3.6V2108.5z
				 M806.3,2115.1c0-0.9-1.1-1.4-3-1.4c-1.9,0-3,0.5-3,1.4s1.1,1.4,3,1.4C805.2,2116.5,806.3,2116,806.3,2115.1z M809.2,2108v1h-1.9
				v3.4h-1.1v-7.6h1.1v3.2H809.2z"/>
			<path class="st8" d="M817.7,2111.9c-1.5-0.4-2.6-1.4-3.2-2.6c-0.5,1.4-1.7,2.4-3.2,2.9l-0.5-0.9c1.9-0.6,3.2-2.1,3.2-3.8v-0.2
				H811v-0.9h2.9v-1.5h1.1v1.5h2.8v0.9H815v0.2c0,1.6,1.3,3,3.2,3.6L817.7,2111.9z M812.6,2113h8.1v4.3h-8.1V2113z M813.8,2116.3
				h5.9v-2.5h-5.9V2116.3z M820.8,2104.9v7.5h-1.1v-7.5H820.8z"/>
			<path class="st8" d="M830.2,2108.4c0,2.2,0.9,4.4,2.7,5.4l-0.7,0.8c-1.2-0.7-2.1-2.1-2.5-3.7c-0.4,1.7-1.3,3.2-2.6,4l-0.7-0.9
				c1.8-1.1,2.7-3.3,2.7-5.6v-1.1h-2.4v-0.9h5.7v0.9h-2.2V2108.4z M833.5,2105.2h1.1v11.6h-1.1v-6.5h-2.1v-0.9h2.1V2105.2z
				 M837.2,2104.9v12.6H836v-12.6H837.2z"/>
			<path class="st8" d="M850.7,2110.7v0.9h-11.3v-0.9h4.6v-2.4h1.1v2.4H850.7z M849.4,2115.1c0,1.4-1.7,2.3-4.4,2.3
				c-2.7,0-4.4-0.9-4.4-2.3c0-1.5,1.7-2.3,4.4-2.3C847.7,2112.8,849.4,2113.7,849.4,2115.1z M848.1,2106.4h-7.4v-0.9h8.6v1.1
				c0,1,0,2-0.4,3.3l-1.1-0.1c0.3-1.3,0.3-2.2,0.3-3.2V2106.4z M848.2,2115.1c0-0.9-1.3-1.4-3.2-1.4c-2,0-3.2,0.5-3.2,1.4
				c0,0.9,1.3,1.4,3.2,1.4C847,2116.5,848.2,2116,848.2,2115.1z"/>
		</g>
		<path id="패스_1886" class="st5" d="M987.1,2247.3h203.5v-187.7H987.1V2247.3z"/>
		<path id="패스_1884-2" class="st4" d="M987.1,2059.9h203.5v-67.8H987.1V2059.9z"/>
		<g class="st0">
			<path class="st5" d="M1037.9,2011.1c0,2.6,1.3,5.2,3.5,6.3l-1,1.3c-1.6-0.8-2.7-2.4-3.3-4.3c-0.6,2-1.8,3.7-3.5,4.5l-1-1.3
				c2.3-1.1,3.7-3.8,3.7-6.5v-2.4h1.6V2011.1z M1046.3,2014.6h-2.3v7.4h-1.6v-14.5h1.6v5.7h2.3V2014.6z"/>
			<path class="st5" d="M1059.5,2007.5v7.7h-1.6v-3.1h-2.7c-0.3,1.6-1.8,2.7-3.7,2.7c-2.2,0-3.8-1.4-3.8-3.4c0-2,1.6-3.4,3.8-3.4
				c1.9,0,3.4,1.1,3.7,2.7h2.7v-3.3H1059.5z M1053.7,2011.5c0-1.2-0.9-2-2.2-2c-1.3,0-2.2,0.8-2.2,2c0,1.2,0.9,2,2.2,2
				C1052.8,2013.6,1053.7,2012.7,1053.7,2011.5z M1057.9,2015.9h1.6v5.8h-9.4v-5.8h1.6v1.6h6.1V2015.9z M1057.9,2018.9h-6.1v1.6h6.1
				V2018.9z"/>
			<path class="st5" d="M1070,2015.6c-1.6-0.5-2.8-1.6-3.4-2.9c-0.6,1.5-1.9,2.8-3.6,3.4l-0.8-1.3c2.3-0.8,3.5-2.6,3.5-4.6v-0.3
				h-3.1v-1.3h7.8v1.3h-3v0.3c0,1.8,1.2,3.5,3.4,4.2L1070,2015.6z M1073.7,2019.2c0,1.7-1.8,2.7-4.8,2.7c-3,0-4.8-1-4.8-2.7
				c0-1.7,1.8-2.7,4.8-2.7C1071.9,2016.5,1073.7,2017.5,1073.7,2019.2z M1072.1,2019.2c0-0.9-1.2-1.4-3.2-1.4c-2,0-3.2,0.5-3.2,1.4
				c0,0.9,1.2,1.4,3.2,1.4C1070.9,2020.7,1072.1,2020.2,1072.1,2019.2z M1075.6,2011v1.4h-2v3.8h-1.6v-8.6h1.6v3.5H1075.6z"/>
			<path class="st5" d="M1084.7,2015.6c-1.6-0.5-2.8-1.6-3.4-2.9c-0.6,1.5-1.9,2.8-3.6,3.4l-0.8-1.3c2.3-0.8,3.5-2.6,3.5-4.6v-0.3
				h-3.1v-1.3h7.8v1.3h-3v0.3c0,1.8,1.2,3.5,3.4,4.2L1084.7,2015.6z M1088.4,2019.2c0,1.7-1.8,2.7-4.8,2.7c-3,0-4.8-1-4.8-2.7
				c0-1.7,1.8-2.7,4.8-2.7C1086.6,2016.5,1088.4,2017.5,1088.4,2019.2z M1086.8,2019.2c0-0.9-1.2-1.4-3.2-1.4c-2,0-3.2,0.5-3.2,1.4
				c0,0.9,1.2,1.4,3.2,1.4C1085.6,2020.7,1086.8,2020.2,1086.8,2019.2z M1090.3,2011v1.4h-2v3.8h-1.6v-8.6h1.6v3.5H1090.3z"/>
			<path class="st5" d="M1092.3,2015.7c0-3.2,0.9-5.8,2.4-8.2l1.2,0.5c-1.4,2.3-2,5-2,7.7c0,2.7,0.6,5.4,2,7.7l-1.2,0.5
				C1093.2,2021.5,1092.3,2018.9,1092.3,2015.7z"/>
			<path class="st5" d="M1102.5,2011.1c0,2.6,1.3,5.2,3.5,6.3l-1,1.3c-1.6-0.8-2.7-2.4-3.3-4.3c-0.6,2-1.8,3.7-3.5,4.5l-1-1.3
				c2.3-1.1,3.7-3.8,3.7-6.5v-2.4h1.6V2011.1z M1110.8,2014.6h-2.3v7.4h-1.6v-14.5h1.6v5.7h2.3V2014.6z"/>
			<path class="st5" d="M1124.1,2007.5v7.7h-1.6v-3.1h-2.7c-0.3,1.6-1.8,2.7-3.7,2.7c-2.2,0-3.8-1.4-3.8-3.4c0-2,1.6-3.4,3.8-3.4
				c1.9,0,3.4,1.1,3.7,2.7h2.7v-3.3H1124.1z M1118.3,2011.5c0-1.2-0.9-2-2.2-2c-1.3,0-2.2,0.8-2.2,2c0,1.2,0.9,2,2.2,2
				C1117.3,2013.6,1118.3,2012.7,1118.3,2011.5z M1122.5,2015.9h1.6v5.8h-9.4v-5.8h1.6v1.6h6.1V2015.9z M1122.5,2018.9h-6.1v1.6h6.1
				V2018.9z"/>
			<path class="st5" d="M1134.5,2015.6c-1.6-0.5-2.8-1.6-3.4-2.9c-0.6,1.5-1.9,2.8-3.6,3.4l-0.8-1.3c2.3-0.8,3.5-2.6,3.5-4.6v-0.3
				h-3.1v-1.3h7.8v1.3h-3v0.3c0,1.8,1.2,3.5,3.4,4.2L1134.5,2015.6z M1138.3,2019.2c0,1.7-1.8,2.7-4.8,2.7c-3,0-4.8-1-4.8-2.7
				c0-1.7,1.8-2.7,4.8-2.7C1136.4,2016.5,1138.3,2017.5,1138.3,2019.2z M1136.7,2019.2c0-0.9-1.2-1.4-3.2-1.4c-2,0-3.2,0.5-3.2,1.4
				c0,0.9,1.2,1.4,3.2,1.4C1135.5,2020.7,1136.7,2020.2,1136.7,2019.2z M1140.2,2011v1.4h-2v3.8h-1.6v-8.6h1.6v3.5H1140.2z"/>
			<path class="st5" d="M1141.5,2023.4c1.4-2.3,2-5,2-7.7c0-2.7-0.6-5.4-2-7.7l1.2-0.5c1.5,2.4,2.4,5,2.4,8.2c0,3.2-0.9,5.8-2.4,8.2
				L1141.5,2023.4z"/>
		</g>
		<g class="st0">
			<path class="st5" d="M1038.4,2040.6c1.3-0.1,2.5-0.2,3.7-0.4l0.1,1.2c-3.2,0.6-6.6,0.7-9.2,0.7l-0.2-1.4c1.1,0,2.5,0,3.9,0v-2.5
				h1.6V2040.6z M1033.3,2037.4c2.1-0.6,3.4-2.1,3.5-3.8h-3.1v-1.3h3.1v-1.7h1.6v1.7h3.2v1.3h-3.2c0.1,1.6,1.4,3.1,3.5,3.6l-0.7,1.3
				c-1.7-0.5-2.9-1.5-3.6-2.8c-0.6,1.4-1.9,2.5-3.6,3L1033.3,2037.4z M1044.7,2030.5v14.5h-1.7v-14.5H1044.7z"/>
			<path class="st5" d="M1060.6,2041.7v1.4h-13.1v-1.4h4.9v-5.1h1.7v5.1H1060.6z M1057.5,2033.2h-8.6v-1.3h10.3v1.4
				c0,1.8,0,3.8-0.6,6.8l-1.7-0.2C1057.5,2037.1,1057.5,2035,1057.5,2033.2L1057.5,2033.2z"/>
			<path class="st5" d="M1069.2,2034.3c-0.9,2.3-3,3.9-6.1,4.8l-0.7-1.3c3.4-0.9,5.3-2.7,5.6-5h-4.8v-1.3h6.6c0,0.5,0,1-0.1,1.4h3
				v-2.5h1.6v8.5h-1.6v-1.7h-3.5v-1.3h3.5v-1.7H1069.2z M1074.4,2042c0,1.8-1.9,2.9-4.8,2.9s-4.8-1.1-4.8-2.9c0-1.8,1.9-2.8,4.8-2.8
				S1074.4,2040.3,1074.4,2042z M1072.7,2042c0-1-1.2-1.6-3.2-1.6c-2,0-3.2,0.6-3.2,1.6c0,1,1.2,1.6,3.2,1.6
				C1071.5,2043.6,1072.7,2043,1072.7,2042z"/>
			<path class="st5" d="M1083.8,2037.1c-0.7,0.7-1.7,1.2-2.9,1.2c-2.2,0-3.8-1.4-3.8-3.5c0-2,1.6-3.5,3.8-3.5c1.2,0,2.2,0.4,2.9,1.2
				h3.5v-2h1.6v8.5h-1.6v-1.9H1083.8z M1081,2036.9c1.2,0,2.2-0.8,2.2-2.1c0-1.3-0.9-2.1-2.2-2.1c-1.3,0-2.2,0.8-2.2,2.1
				C1078.8,2036.1,1079.7,2036.9,1081,2036.9z M1089,2042.1c0,1.8-1.9,2.8-4.9,2.8s-4.9-1-4.9-2.8c0-1.8,1.9-2.8,4.9-2.8
				S1089,2040.4,1089,2042.1z M1087.4,2042.1c0-1-1.2-1.5-3.2-1.5c-2,0-3.2,0.5-3.2,1.5c0,1,1.2,1.5,3.2,1.5
				C1086.2,2043.7,1087.4,2043.1,1087.4,2042.1z M1084.6,2033.8c0.1,0.3,0.1,0.6,0.1,1c0,0.4,0,0.7-0.1,1h2.8v-2H1084.6z"/>
			<path class="st5" d="M1096.8,2034.7c0,2.2,1.4,4.8,3.6,5.8l-0.9,1.3c-1.6-0.8-2.8-2.4-3.5-4.2c-0.6,2-1.9,3.7-3.6,4.6l-0.9-1.3
				c2.2-1.1,3.7-3.8,3.7-6.2v-1.4h-3.2v-1.4h7.9v1.4h-3.1V2034.7z M1105.2,2037.6h-2.3v7.4h-1.6v-14.5h1.6v5.7h2.3V2037.6z"/>
			<path class="st5" d="M1107,2038.7c0-3.2,0.9-5.8,2.4-8.2l1.2,0.5c-1.4,2.3-2,5-2,7.7c0,2.7,0.6,5.4,2,7.7l-1.2,0.5
				C1107.9,2044.5,1107,2041.9,1107,2038.7z"/>
			<path class="st5" d="M1119.9,2039c-1.6-0.5-2.8-1.7-3.4-3.1c-0.6,1.6-1.9,2.8-3.6,3.4l-0.8-1.3c2.2-0.8,3.6-2.7,3.6-4.6v-0.5
				h-3.1v-1.3h7.7v1.3h-3v0.5c0,1.8,1.2,3.6,3.4,4.3L1119.9,2039z M1124.5,2043.3v1.3h-9.7v-4.5h1.6v3.2H1124.5z M1122.4,2034.4
				v-3.9h1.6v10.6h-1.6v-5.3h-2.6v-1.4H1122.4z"/>
			<path class="st5" d="M1131.9,2034.1c0,2.6,1.3,5.2,3.5,6.3l-1,1.3c-1.6-0.8-2.7-2.4-3.3-4.3c-0.6,2-1.8,3.7-3.5,4.5l-1-1.3
				c2.3-1.1,3.7-3.8,3.7-6.5v-2.4h1.6V2034.1z M1140.3,2037.6h-2.3v7.4h-1.6v-14.5h1.6v5.7h2.3V2037.6z"/>
			<path class="st5" d="M1141.5,2046.4c1.4-2.3,2-5,2-7.7c0-2.7-0.6-5.4-2-7.7l1.2-0.5c1.5,2.4,2.4,5,2.4,8.2c0,3.2-0.9,5.8-2.4,8.2
				L1141.5,2046.4z"/>
		</g>
		<g class="st0">
			<path class="st8" d="M1011.9,2090.3c0-1.1,0.8-1.9,1.8-1.9c0.9,0,1.8,0.8,1.8,1.9c0,1.1-0.8,1.9-1.8,1.9
				C1012.7,2092.2,1011.9,2091.4,1011.9,2090.3z"/>
			<path class="st8" d="M1021.8,2091.5c2.1,0,3.9-0.1,6.1-0.4l0.1,0.9c-2.3,0.4-4.2,0.5-6.3,0.5h-1v-4.8h4.6v-2.6h-4.7v-0.9h5.8v4.5
				h-4.6V2091.5z M1030.2,2082.9v12.6h-1.1v-12.6H1030.2z"/>
			<path class="st8" d="M1044.2,2092.8v1h-11.4v-1H1044.2z M1043.1,2090.1c-1.9-0.4-3.9-1.8-4.7-3.6c-0.8,1.8-2.8,3.2-4.7,3.6
				l-0.5-1c2.2-0.4,4.6-2.3,4.6-4.5v-1h1.2v1c0,2.1,2.4,4,4.6,4.5L1043.1,2090.1z"/>
			<path class="st8" d="M1057,2092.7v0.9h-11.4v-0.9H1057z M1054.5,2087.6c0-0.7,0-1.3,0-1.9v-0.6h-7.5v-0.9h8.6v1.5
				c0,1.9,0,3.6-0.5,6.1l-1.1-0.1c0.3-1.2,0.4-2.2,0.5-3.2l-7.6,0.4l-0.2-1L1054.5,2087.6z"/>
			<path class="st8" d="M1067.5,2091.2c0.7,0,1.3-0.1,1.9-0.2l0.1,0.9c-2.6,0.4-5.6,0.5-7.8,0.5l-0.1-1c0.5,0,1.1,0,1.7,0v-6.2h-1.3
				v-0.9h7v0.9h-1.3V2091.2z M1064.3,2091.3c0.7,0,1.4,0,2.1-0.1v-6.1h-2.1V2091.3z M1073.4,2088.9h-2.1v6.6h-1.1v-12.6h1.1v5h2.1
				V2088.9z"/>
			<path class="st8" d="M1078.1,2089.6c-1.9,0-3.3-1.2-3.3-3c0-1.8,1.4-3,3.3-3c1.9,0,3.3,1.2,3.3,3
				C1081.4,2088.4,1080,2089.6,1078.1,2089.6z M1078.1,2088.6c1.2,0,2.2-0.8,2.2-2c0-1.2-0.9-2-2.2-2c-1.3,0-2.2,0.8-2.2,2
				C1075.9,2087.8,1076.8,2088.6,1078.1,2088.6z M1076.1,2090.9h8.2v4.5h-1.1v-3.6h-7V2090.9z M1086.2,2087.1h-1.9v3.2h-1.1v-7.4
				h1.1v3.2h1.9V2087.1z"/>
			<path class="st8" d="M1096.7,2085.6c-0.8,2-2.7,3.3-5.5,4l-0.4-0.9c3.1-0.7,4.8-2.2,5-4.2h-4.4v-0.9h5.6c0,0.4,0,0.8-0.1,1.2h2.8
				v-1.8h1.2v6.4h-1.2v-1.3h-3.3v-0.9h3.3v-1.5H1096.7z M1101.3,2094.4v0.9h-8.5v-3.2h6.9v-1.3h-6.9v-0.9h8.1v3.1h-6.9v1.5H1101.3z"
				/>
			<path class="st8" d="M1107.1,2091.7c1.4-0.1,2.8-0.1,4-0.3l0.1,0.8c-2.6,0.4-5.6,0.5-7.8,0.5l-0.1-1c0.8,0,1.7,0,2.7,0v-3.9h1.1
				V2091.7z M1108.9,2089.8c0.4-2.1,0.4-3.6,0.4-4.6h-5.2v-0.9h6.3v0.7c0,1,0,2.6-0.4,5L1108.9,2089.8z M1115.1,2089.1h-2v6.3h-1.1
				v-12.6h1.1v5.3h2V2089.1z"/>
			<path class="st8" d="M1130.9,2092.9v1h-11.4v-1h5.1v-3.2h-3.7v-5.8h8.5v0.9h-7.4v3.9h7.5v0.9h-3.8v3.2H1130.9z"/>
			<path class="st8" d="M1138.6,2089.3v1.2h3.6v2.7h-7.4v1.2h7.8v0.9h-8.9v-2.9h7.4v-1.1h-7.4v-0.9h3.7v-1.2h-5.1v-0.9h11.3v0.9
				H1138.6z M1133,2087c2.3-0.2,4.2-0.9,4.4-2.2h-3.9v-0.9h4v-1.2h1.1v1.2h3.9v0.9h-3.9c0.2,1.2,2.1,2,4.4,2.2l-0.4,0.9
				c-2.1-0.2-4-0.8-4.7-2c-0.8,1.2-2.6,1.8-4.7,2L1133,2087z"/>
		</g>
		<g class="st0">
			<path class="st8" d="M1011.9,2121.3c0-1.1,0.8-1.9,1.8-1.9c0.9,0,1.8,0.8,1.8,1.9c0,1.1-0.8,1.9-1.8,1.9
				C1012.7,2123.2,1011.9,2122.4,1011.9,2121.3z"/>
			<path class="st8" d="M1021.5,2122.4c1.7,0,2.9-0.1,4.2-0.4l0.1,1c-1.5,0.3-2.8,0.4-4.7,0.4h-0.8v-7.9h4.7v0.9h-3.5V2122.4z
				 M1030.6,2113.9v12.6h-1.1v-6.6h-1.8v6h-1.1v-11.7h1.1v4.8h1.8v-5H1030.6z"/>
			<path class="st8" d="M1044.1,2120v0.9h-11.3v-0.9H1044.1z M1042.9,2116.6c0,1.5-1.7,2.4-4.4,2.4c-2.7,0-4.4-0.9-4.4-2.4
				c0-1.5,1.7-2.4,4.4-2.4C1041.2,2114.2,1042.9,2115.1,1042.9,2116.6z M1042.8,2124.2c0,1.4-1.6,2.2-4.3,2.2
				c-2.7,0-4.3-0.8-4.3-2.2c0-1.4,1.6-2.2,4.3-2.2C1041.1,2122,1042.8,2122.8,1042.8,2124.2z M1035.2,2116.6c0,0.9,1.2,1.5,3.2,1.5
				c2,0,3.2-0.6,3.2-1.5c0-0.9-1.2-1.5-3.2-1.5C1036.5,2115.1,1035.2,2115.7,1035.2,2116.6z M1035.3,2124.2c0,0.9,1.2,1.3,3.1,1.3
				s3.1-0.5,3.1-1.3s-1.2-1.4-3.1-1.4S1035.3,2123.4,1035.3,2124.2z"/>
			<path class="st8" d="M1052,2120.5h-5.8v-5.8h1.1v1.9h3.6v-1.9h1.1V2120.5z M1055.6,2124.1c0,1.5-1.6,2.3-4.1,2.3
				c-2.6,0-4.1-0.9-4.1-2.3s1.6-2.3,4.1-2.3C1054,2121.8,1055.6,2122.6,1055.6,2124.1z M1050.9,2117.5h-3.6v2.1h3.6V2117.5z
				 M1054.4,2124.1c0-0.9-1.1-1.4-3-1.4c-1.9,0-3,0.5-3,1.4s1.1,1.4,3,1.4C1053.3,2125.5,1054.4,2125,1054.4,2124.1z M1057.3,2117v1
				h-1.9v3.4h-1.1v-7.6h1.1v3.2H1057.3z"/>
			<path class="st8" d="M1062.1,2121c-1.9,0-3.3-1.3-3.3-3.1c0-1.8,1.4-3.1,3.3-3.1s3.3,1.3,3.3,3.1
				C1065.3,2119.7,1063.9,2121,1062.1,2121z M1062.1,2120c1.2,0,2.2-0.9,2.2-2.1c0-1.2-0.9-2.1-2.2-2.1s-2.2,0.9-2.2,2.1
				C1059.9,2119.1,1060.8,2120,1062.1,2120z M1061.6,2125.2h7.2v0.9h-8.4v-4h1.1V2125.2z M1070.2,2117.7v1h-1.9v4.5h-1.1v-9.2h1.1
				v3.8H1070.2z"/>
			<path class="st8" d="M1085.9,2119.9v0.9h-11.4v-0.9H1085.9z M1084.8,2118.9c-1.9-0.3-3.8-1.3-4.6-2.7c-0.8,1.4-2.6,2.4-4.6,2.7
				l-0.4-0.9c2.2-0.3,4.4-1.7,4.4-3.3v-0.6h1.2v0.6c0,1.6,2.2,3,4.4,3.3L1084.8,2118.9z M1084.5,2124.2c0,1.4-1.6,2.2-4.3,2.2
				c-2.7,0-4.3-0.8-4.3-2.2c0-1.4,1.6-2.2,4.3-2.2C1082.9,2122,1084.5,2122.8,1084.5,2124.2z M1083.4,2124.2c0-0.9-1.2-1.3-3.1-1.3
				c-2,0-3.2,0.5-3.2,1.3c0,0.9,1.2,1.3,3.2,1.3C1082.2,2125.5,1083.4,2125.1,1083.4,2124.2z"/>
			<path class="st8" d="M1091,2121c-1.9,0-3.3-1.3-3.3-3.1c0-1.8,1.4-3.1,3.3-3.1c1.9,0,3.3,1.3,3.3,3.1
				C1094.3,2119.7,1092.9,2121,1091,2121z M1091,2120c1.2,0,2.2-0.9,2.2-2.1c0-1.2-0.9-2.1-2.2-2.1c-1.2,0-2.1,0.9-2.1,2.1
				C1088.9,2119.1,1089.8,2120,1091,2120z M1098.1,2125.2v0.9h-8.5v-4h1.1v3.1H1098.1z M1097.7,2123.1h-1.1v-9.2h1.1V2123.1z"/>
			<path class="st8" d="M1110,2119.8h-5.9v-5.1h5.9V2119.8z M1110.4,2122.8c0,1.2,2,2.4,4.1,2.7l-0.4,0.9c-1.9-0.3-3.6-1.1-4.3-2.3
				c-0.8,1.2-2.5,2-4.4,2.3l-0.4-0.9c2.1-0.3,4.1-1.4,4.2-2.7h-3.7v-0.9h3.7v-1.2h1.2v1.2h3.7v0.9H1110.4z M1108.9,2115.6h-3.6v3.3
				h3.6V2115.6z M1113.8,2121.1h-1.1v-7.2h1.1V2121.1z"/>
			<path class="st8" d="M1126.5,2120c-1.4-0.5-2.6-1.6-3.2-2.9c-0.5,1.4-1.7,2.6-3.2,3.1l-0.6-0.9c1.9-0.7,3.2-2.3,3.2-4.2v-1h1.1v1
				c0,1.7,1.3,3.3,3.2,3.9L1126.5,2120z M1130.2,2125.4v0.9h-8.5v-3.1h7v-1.2h-7v-0.9h8.1v3h-7v1.3H1130.2z M1129.8,2120.4h-1.1
				v-6.5h1.1V2120.4z"/>
			<path class="st8" d="M1138.7,2116.3h-6.4v-0.9h2.6v-1.4h1.1v1.4h2.6V2116.3z M1135.5,2121.2c-1.6,0-2.7-0.8-2.7-2.2
				c0-1.3,1.1-2.1,2.7-2.1c1.6,0,2.7,0.9,2.7,2.1C1138.2,2120.4,1137.1,2121.2,1135.5,2121.2z M1135.5,2120.4c1,0,1.7-0.5,1.7-1.3
				c0-0.8-0.7-1.3-1.7-1.3c-1,0-1.7,0.5-1.7,1.3C1133.8,2119.9,1134.5,2120.4,1135.5,2120.4z M1143,2124.2c0,1.4-1.6,2.2-4.2,2.2
				s-4.2-0.8-4.2-2.2c0-1.4,1.6-2.2,4.2-2.2S1143,2122.8,1143,2124.2z M1141.9,2124.2c0-0.8-1.1-1.3-3.1-1.3c-1.9,0-3.1,0.5-3.1,1.3
				c0,0.8,1.1,1.3,3.1,1.3C1140.7,2125.5,1141.9,2125.1,1141.9,2124.2z M1140.3,2121.4h-1.1v-7.3h1.1v3.2h1.6v-3.4h1.1v8h-1.1v-3.6
				h-1.6V2121.4z"/>
			<path class="st8" d="M1159.8,2123.9v0.9h-11.4v-0.9h5.1v-2.7h-3.8v-6.4h1.1v2.2h6.4v-2.2h1.1v6.4h-3.8v2.7H1159.8z
				 M1150.8,2120.3h6.4v-2.3h-6.4V2120.3z"/>
			<path class="st8" d="M1168,2120.9c-1.4-0.5-2.5-1.5-3-2.7c-0.5,1.4-1.7,2.5-3.2,3.1l-0.6-0.9c1.9-0.7,3.2-2.3,3.2-4.1v-0.5h-2.8
				v-0.9h6.7v0.9h-2.8v0.5c0,1.6,1.2,3.1,3,3.7L1168,2120.9z M1171.1,2124.1c0,1.5-1.6,2.3-4.1,2.3c-2.6,0-4.1-0.9-4.1-2.3
				c0-1.5,1.6-2.3,4.1-2.3C1169.6,2121.8,1171.1,2122.7,1171.1,2124.1z M1170,2124.1c0-0.9-1.1-1.4-3-1.4c-1.9,0-3,0.5-3,1.4
				c0,0.9,1.1,1.4,3,1.4C1168.9,2125.5,1170,2125,1170,2124.1z M1172.9,2117.1v1h-1.9v3.4h-1.1v-7.6h1.1v3.2H1172.9z"/>
		</g>
		<path id="패스_1888" class="st5" d="M1432.3,2247.3h203.5v-187.7h-203.5V2247.3z"/>
		<path id="패스_1884-3" class="st4" d="M1432.3,2060h203.5v-67.8h-203.5V2060z"/>
		<g class="st0">
			<path class="st5" d="M1520.6,2026.3c-1.7-0.5-2.9-1.6-3.5-3.1c-0.7,1.6-1.9,2.8-3.6,3.3l-0.8-1.3c2.3-0.8,3.6-2.6,3.6-4.6v-1.1
				h1.7v1.1c0,1.9,1.3,3.6,3.5,4.3L1520.6,2026.3z M1525,2032.3v1.3h-9.9v-3.8h7.8v-1.2h-7.8v-1.3h9.5v3.7h-7.8v1.3H1525z
				 M1524.5,2026.6h-1.7v-7.4h1.7V2026.6z"/>
			<path class="st5" d="M1540.4,2028.8h-5.8v4.9h-1.6v-4.9h-5.7v-1.3h13.1V2028.8z M1538.8,2025.7h-9.9v-5.7h9.9V2025.7z
				 M1537.2,2021.3h-6.6v3.1h6.6V2021.3z"/>
			<path class="st5" d="M1547.1,2023.4c0,2.2,1.4,4.8,3.6,5.8l-0.9,1.3c-1.6-0.8-2.8-2.4-3.5-4.2c-0.6,2-1.9,3.7-3.6,4.6l-0.9-1.3
				c2.2-1.1,3.7-3.8,3.7-6.2v-1.4h-3.2v-1.4h7.9v1.4h-3.1V2023.4z M1555.5,2026.3h-2.3v7.4h-1.6v-14.5h1.6v5.7h2.3V2026.3z"/>
		</g>
		<g class="st0">
			<path class="st8" d="M1457.2,2090.3c0-1.1,0.8-1.9,1.8-1.9c0.9,0,1.8,0.8,1.8,1.9c0,1.1-0.8,1.9-1.8,1.9
				C1458,2092.2,1457.2,2091.4,1457.2,2090.3z"/>
			<path class="st8" d="M1466.9,2091.2c1.2,0,2.5-0.1,4-0.4l0.1,1c-1.7,0.3-3.1,0.4-4.5,0.4h-0.8v-7.8h1.1V2091.2z M1475.8,2082.9
				v12.6h-1.1v-6.5h-1.8v5.9h-1.1v-11.6h1.1v4.8h1.8v-5.1H1475.8z"/>
			<path class="st8" d="M1480.3,2089.3c0-0.6,0.4-1,0.9-1s0.9,0.4,0.9,1c0,0.6-0.4,1-0.9,1S1480.3,2089.9,1480.3,2089.3z"/>
			<path class="st8" d="M1490.5,2091.7c1.2-0.1,2.5-0.2,3.6-0.3l0.1,0.9c-2.8,0.5-5.9,0.5-8.1,0.5l-0.1-1c1,0,2.2,0,3.4,0v-2.2
				c-1.6-0.2-2.8-1.3-2.8-2.9c0-1.8,1.4-2.9,3.3-2.9c2,0,3.4,1.2,3.4,2.9c0,1.6-1.1,2.7-2.8,2.9V2091.7z M1490,2088.6
				c1.3,0,2.3-0.8,2.3-2c0-1.2-0.9-2-2.3-2c-1.3,0-2.2,0.8-2.2,2C1487.7,2087.8,1488.7,2088.6,1490,2088.6z M1496.2,2082.9v12.6
				h-1.1v-12.6H1496.2z"/>
			<path class="st8" d="M1510.2,2091.2h-5.2v4.2h-1.1v-4.2h-5.1v-0.9h11.4V2091.2z M1508.7,2088.8h-8.5v-5.4h1.1v1.7h6.2v-1.7h1.1
				V2088.8z M1507.6,2086h-6.2v1.8h6.2V2086z"/>
			<path class="st8" d="M1521.7,2088.2c0,2.7-1.3,4.4-3.2,4.4s-3.2-1.7-3.2-4.4c0-2.7,1.3-4.4,3.2-4.4S1521.7,2085.5,1521.7,2088.2z
				 M1516.4,2088.2c0,2,0.9,3.4,2.1,3.4c1.2,0,2.1-1.3,2.1-3.4c0-2-0.9-3.3-2.1-3.3C1517.2,2084.9,1516.4,2086.2,1516.4,2088.2z
				 M1525.1,2082.9v12.6h-1.1v-12.6H1525.1z"/>
			<path class="st8" d="M1539.1,2091h-2.9v4.5h-1.1v-4.5h-3.3v4.5h-1.1v-4.5h-2.9v-0.9h11.4V2091z M1538,2088.6
				c-2-0.4-3.9-1.5-4.7-3c-0.8,1.5-2.7,2.6-4.7,3l-0.4-0.9c2.3-0.4,4.5-1.9,4.5-3.7v-0.7h1.2v0.7c0,1.8,2.3,3.3,4.5,3.7L1538,2088.6
				z"/>
			<path class="st8" d="M1540.6,2096.3c0.9-0.4,1.4-1.1,1.4-1.9c-0.1,0-0.1,0-0.2,0c-0.5,0-0.9-0.3-0.9-0.9c0-0.5,0.4-0.9,1-0.9
				c0.7,0,1.1,0.6,1.1,1.5c0,1.3-0.8,2.4-2,2.9L1540.6,2096.3z"/>
			<path class="st8" d="M1554.4,2088.2c0,2.7-1.3,4.4-3.2,4.4c-1.9,0-3.2-1.7-3.2-4.4c0-2.7,1.3-4.4,3.2-4.4
				C1553.1,2083.8,1554.4,2085.5,1554.4,2088.2z M1549.1,2088.2c0,2,0.9,3.4,2.1,3.4c1.2,0,2.1-1.3,2.1-3.4c0-2-0.9-3.3-2.1-3.3
				C1550,2084.9,1549.1,2086.2,1549.1,2088.2z M1557.9,2082.9v12.6h-1.1v-12.6H1557.9z"/>
			<path class="st8" d="M1564.1,2085h2.5v0.9h-6.2v-0.9h2.5v-1.8h1.1V2085z M1566.3,2089.7c0,1.7-1.1,2.9-2.7,2.9s-2.7-1.2-2.7-2.9
				c0-1.7,1.1-2.9,2.7-2.9S1566.3,2088,1566.3,2089.7z M1565.3,2089.7c0-1.1-0.7-1.9-1.7-1.9c-1,0-1.7,0.8-1.7,1.9
				c0,1.1,0.7,1.9,1.7,1.9C1564.6,2091.6,1565.3,2090.8,1565.3,2089.7z M1571.1,2082.9v12.6h-1.1v-6.3h-1.6v5.7h-1.1v-11.7h1.1v5
				h1.6v-5.3H1571.1z"/>
			<path class="st8" d="M1581.2,2089.8c-2.6,0.4-5.6,0.5-7.8,0.5l-0.1-0.9c0.8,0,1.7,0,2.7,0v-2.7h1.1v2.7c1.4-0.1,2.8-0.2,4.1-0.3
				L1581.2,2089.8z M1578.8,2088.1c0.3-1.4,0.3-2.5,0.3-3.3h-5.1v-0.9h6.2v0.7c0,0.8,0,2.1-0.3,3.7L1578.8,2088.1z M1576.3,2094.2
				h7.2v0.9h-8.3v-3.7h1.1V2094.2z M1584.9,2087v1h-1.8v4.4h-1.1v-9.5h1.1v4.1H1584.9z"/>
			<path class="st8" d="M1593.3,2083.2h1.1v11.6h-1.1v-4.3h-2.3v-0.9h2.3v-2.2h-2.1c-0.6,2.1-1.9,4-4.3,5.4l-0.7-0.8
				c2.7-1.6,4-3.9,4.2-6.5h-3.7v-0.9h4.8c0,0.6-0.1,1.3-0.2,1.9h1.9V2083.2z M1596.9,2082.9v12.6h-1.1v-12.6H1596.9z"/>
			<path class="st8" d="M1603.3,2086.7c0,2,1.4,4.2,3.2,5.1l-0.7,0.9c-1.4-0.7-2.6-2.2-3.2-3.9c-0.6,1.8-1.8,3.4-3.2,4.2l-0.7-0.9
				c1.8-0.9,3.3-3.3,3.3-5.4v-1.6h-2.9v-1h6.8v1h-2.8V2086.7z M1610.9,2088.9h-2.1v6.5h-1.1v-12.6h1.1v5.1h2.1V2088.9z"/>
		</g>
		<g class="st0">
			<path class="st8" d="M1475.8,2114.9v1h-11.4v-1h2.8v-3.4c-1-0.5-1.7-1.5-1.7-2.6c0-2,1.9-3.2,4.6-3.2c2.7,0,4.6,1.3,4.6,3.2
				c0,1.1-0.6,2-1.7,2.6v3.4H1475.8z M1466.6,2108.9c0,1.4,1.4,2.3,3.5,2.3c2,0,3.5-0.9,3.5-2.3c0-1.4-1.5-2.3-3.5-2.3
				C1468.1,2106.6,1466.6,2107.5,1466.6,2108.9z M1468.3,2114.9h3.5v-3c-0.5,0.1-1.1,0.2-1.8,0.2c-0.6,0-1.2-0.1-1.7-0.2V2114.9z"/>
			<path class="st8" d="M1488.7,2112h-5.1v5.4h-1.2v-5.4h-5.1v-0.9h8.3c0.4-1.8,0.4-3.1,0.4-4.3v-0.2h-7.3v-0.9h8.4v1.1
				c0,1.2,0,2.5-0.4,4.3h1.9V2112z"/>
			<path class="st8" d="M1499.1,2113.2c0.7,0,1.3-0.1,1.9-0.2l0.1,0.9c-2.6,0.4-5.6,0.5-7.8,0.5l-0.1-1c0.5,0,1.1,0,1.7,0v-6.2h-1.3
				v-0.9h7v0.9h-1.3V2113.2z M1495.9,2113.3c0.7,0,1.4,0,2.1-0.1v-6.1h-2.1V2113.3z M1505,2110.9h-2.1v6.6h-1.1v-12.6h1.1v5h2.1
				V2110.9z"/>
			<path class="st8" d="M1509.7,2111.6c-1.9,0-3.3-1.2-3.3-3c0-1.8,1.4-3,3.3-3c1.9,0,3.3,1.2,3.3,3
				C1513,2110.4,1511.6,2111.6,1509.7,2111.6z M1509.7,2110.6c1.2,0,2.2-0.8,2.2-2c0-1.2-0.9-2-2.2-2c-1.3,0-2.2,0.8-2.2,2
				C1507.5,2109.8,1508.4,2110.6,1509.7,2110.6z M1507.8,2112.9h8.2v4.5h-1.1v-3.6h-7V2112.9z M1517.8,2109.1h-1.9v3.2h-1.1v-7.4
				h1.1v3.2h1.9V2109.1z"/>
			<path class="st8" d="M1528.7,2110.8h-5.9v-5.1h5.9V2110.8z M1529.1,2113.8c0,1.2,2,2.4,4.1,2.7l-0.4,0.9
				c-1.9-0.3-3.6-1.1-4.3-2.3c-0.8,1.2-2.5,2-4.4,2.3l-0.4-0.9c2.1-0.3,4.1-1.4,4.2-2.7h-3.7v-0.9h3.7v-1.2h1.2v1.2h3.7v0.9H1529.1z
				 M1527.6,2106.6h-3.6v3.3h3.6V2106.6z M1532.5,2112.1h-1.1v-7.2h1.1V2112.1z"/>
			<path class="st8" d="M1540.1,2113.5c2.1,0,3.9-0.1,6.1-0.4l0.1,0.9c-2.3,0.4-4.2,0.5-6.3,0.5h-1v-4.8h4.6v-2.6h-4.7v-0.9h5.8v4.5
				h-4.6V2113.5z M1548.5,2104.9v12.6h-1.1v-12.6H1548.5z"/>
			<path class="st8" d="M1562.5,2114.8v1h-11.4v-1H1562.5z M1561.4,2112.1c-1.9-0.4-3.9-1.8-4.7-3.6c-0.8,1.8-2.8,3.2-4.7,3.6
				l-0.5-1c2.2-0.4,4.6-2.3,4.6-4.5v-1h1.2v1c0,2.1,2.4,4,4.6,4.5L1561.4,2112.1z"/>
			<path class="st8" d="M1575.3,2114.7v0.9H1564v-0.9H1575.3z M1572.8,2109.6c0-0.7,0-1.3,0-1.9v-0.6h-7.5v-0.9h8.6v1.5
				c0,1.9,0,3.6-0.5,6.1l-1.1-0.1c0.3-1.2,0.4-2.2,0.5-3.2l-7.6,0.4l-0.2-1L1572.8,2109.6z"/>
			<path class="st8" d="M1587.4,2111.5c-2.4,0.4-5.3,0.4-7.3,0.4l-0.1-1c0.5,0,1,0,1.6,0v-4.2h-1.2v-0.9h6.6v0.9h-1.2v4
				c0.6,0,1.1-0.1,1.6-0.2L1587.4,2111.5z M1590.4,2115.1c0,1.5-1.6,2.3-4.2,2.3c-2.6,0-4.2-0.8-4.2-2.3c0-1.4,1.6-2.3,4.2-2.3
				C1588.8,2112.9,1590.4,2113.7,1590.4,2115.1z M1582.7,2110.9c0.6,0,1.3,0,1.9-0.1v-4.1h-1.9V2110.9z M1589.2,2115.1
				c0-0.9-1.1-1.4-3-1.4c-1.9,0-3,0.5-3,1.4c0,0.9,1.1,1.4,3,1.4C1588.1,2116.5,1589.2,2116,1589.2,2115.1z M1589.2,2110.3h-2.1
				v-0.9h2.1v-1.3h-2.1v-0.9h2.1v-2.2h1.2v7.7h-1.2V2110.3z"/>
			<path class="st8" d="M1599.3,2106.2c0,3.6-1.6,6.8-5.7,8.8l-0.6-0.9c3.2-1.6,4.9-4,5.2-7h-4.6v-1H1599.3z M1604.6,2110.9h-2v6.5
				h-1.1v-12.6h1.1v5.1h2V2110.9z"/>
		</g>
		<g class="st0">
			<path class="st8" d="M1457.2,2142.6c0-1.1,0.8-1.9,1.8-1.9c0.9,0,1.8,0.8,1.8,1.9c0,1.1-0.8,1.9-1.8,1.9
				C1458,2144.5,1457.2,2143.7,1457.2,2142.6z"/>
			<path class="st8" d="M1467.1,2143.8c2.1,0,3.9-0.1,6.1-0.4l0.1,0.9c-2.3,0.4-4.2,0.5-6.3,0.5h-1v-4.8h4.6v-2.6h-4.7v-0.9h5.8v4.5
				h-4.6V2143.8z M1475.5,2135.2v12.6h-1.1v-12.6H1475.5z"/>
			<path class="st8" d="M1489.4,2145.1v1h-11.4v-1H1489.4z M1488.4,2142.5c-1.9-0.4-3.9-1.8-4.7-3.6c-0.8,1.8-2.8,3.2-4.7,3.6
				l-0.5-1c2.2-0.4,4.6-2.3,4.6-4.5v-1h1.2v1c0,2.1,2.4,4,4.6,4.5L1488.4,2142.5z"/>
			<path class="st8" d="M1502.3,2145.1v0.9H1491v-0.9H1502.3z M1499.8,2140c0-0.7,0-1.3,0-1.9v-0.6h-7.5v-0.9h8.6v1.5
				c0,1.9,0,3.6-0.5,6.1l-1.1-0.1c0.3-1.2,0.4-2.2,0.5-3.2l-7.6,0.4l-0.2-1L1499.8,2140z"/>
			<path class="st8" d="M1514.4,2141.8c-2.4,0.4-5.3,0.4-7.3,0.4l-0.1-1c0.5,0,1,0,1.6,0v-4.2h-1.2v-0.9h6.6v0.9h-1.2v4
				c0.6,0,1.1-0.1,1.6-0.2L1514.4,2141.8z M1517.3,2145.5c0,1.5-1.6,2.3-4.2,2.3c-2.6,0-4.2-0.8-4.2-2.3c0-1.4,1.6-2.3,4.2-2.3
				C1515.8,2143.2,1517.3,2144,1517.3,2145.5z M1509.7,2141.2c0.6,0,1.3,0,1.9-0.1v-4.1h-1.9V2141.2z M1516.2,2145.5
				c0-0.9-1.1-1.4-3-1.4s-3,0.5-3,1.4c0,0.9,1.1,1.4,3,1.4S1516.2,2146.4,1516.2,2145.5z M1516.1,2140.6h-2.1v-0.9h2.1v-1.3h-2.1
				v-0.9h2.1v-2.2h1.2v7.7h-1.2V2140.6z"/>
			<path class="st8" d="M1526.2,2136.5c0,3.6-1.6,6.8-5.7,8.8l-0.6-0.9c3.2-1.6,4.9-4,5.2-7h-4.6v-1H1526.2z M1531.5,2141.3h-2v6.5
				h-1.1v-12.6h1.1v5.1h2V2141.3z"/>
			<path class="st8" d="M1542.6,2142.2c-1.4-0.5-2.5-1.5-3-2.8c-0.5,1.4-1.7,2.5-3.1,3.1l-0.6-0.9c1.9-0.7,3.2-2.3,3.2-4.1v-0.5
				h-2.8v-0.9h6.7v0.9h-2.8v0.5c0,1.7,1.2,3.2,3.1,3.9L1542.6,2142.2z M1537.4,2143.5h8.2v4.3h-1.1v-3.4h-7V2143.5z M1547.5,2139.5
				h-1.9v3.3h-1.1v-7.6h1.1v3.3h1.9V2139.5z"/>
			<path class="st8" d="M1555.5,2142.1c-1.4-0.5-2.4-1.5-3-2.8c-0.5,1.5-1.7,2.6-3.2,3.2l-0.6-0.9c1.9-0.7,3.2-2.4,3.2-4.3v-1.3h1.1
				v1.2c0,1.8,1.2,3.3,3.1,4L1555.5,2142.1z M1559.1,2145.4c0,1.5-1.6,2.4-4.2,2.4c-2.6,0-4.2-0.9-4.2-2.4c0-1.5,1.6-2.4,4.2-2.4
				C1557.5,2143,1559.1,2143.9,1559.1,2145.4z M1558,2145.4c0-0.9-1.1-1.5-3-1.5c-1.9,0-3,0.5-3,1.5c0,0.9,1.1,1.5,3,1.5
				C1556.8,2146.8,1558,2146.3,1558,2145.4z M1557.9,2138.8h-2.7v-0.9h2.7v-2.7h1.2v7.4h-1.2V2138.8z"/>
			<path class="st8" d="M1565.8,2139c0,2,1.4,4.2,3.2,5.1l-0.7,0.9c-1.4-0.7-2.6-2.2-3.2-3.9c-0.6,1.8-1.8,3.4-3.2,4.2l-0.7-0.9
				c1.8-0.9,3.3-3.3,3.3-5.4v-1.6h-2.9v-1h6.8v1h-2.8V2139z M1573.3,2141.2h-2.1v6.5h-1.1v-12.6h1.1v5.1h2.1V2141.2z"/>
			<path class="st8" d="M1578.1,2135.6h0.9l-4.2,13.6h-0.9L1578.1,2135.6z"/>
			<path class="st8" d="M1586.4,2136c0,3.2-2.2,5.4-5.8,6.5l-0.5-0.9c3-0.9,4.8-2.5,5.1-4.6h-4.5v-0.9H1586.4z M1582.2,2142.9h8.1
				v4.7h-8.1V2142.9z M1583.3,2146.7h5.9v-2.8h-5.9V2146.7z M1590.3,2135.2v7.2h-1.1v-3h-2.7v-0.9h2.7v-3.2H1590.3z"/>
			<path class="st8" d="M1604.3,2145.3v1h-11.4v-1h5.1v-2.6h-3.7v-6.4h8.5v0.9h-7.4v1.8h7.1v0.9h-7.1v1.9h7.5v0.9h-3.8v2.6H1604.3z"
				/>
			<path class="st8" d="M1610,2139c0,2,1.4,4.2,3.2,5.1l-0.7,0.9c-1.4-0.7-2.6-2.2-3.2-3.9c-0.6,1.8-1.8,3.4-3.2,4.2l-0.7-0.9
				c1.8-0.9,3.3-3.3,3.3-5.4v-1.6h-2.9v-1h6.8v1h-2.8V2139z M1617.5,2141.2h-2.1v6.5h-1.1v-12.6h1.1v5.1h2.1V2141.2z"/>
		</g>
		<g class="st0">
			<path class="st8" d="M1469.5,2161c0,2.1,1.5,4.3,3.4,5.1l-0.6,0.9c-1.5-0.7-2.7-2.1-3.3-3.8c-0.6,1.8-1.8,3.4-3.2,4.1l-0.7-0.9
				c1.8-0.9,3.3-3.2,3.3-5.4v-1.6h-2.9v-1h7v1h-3V2161z M1475.3,2157.2v12.6h-1.1v-12.6H1475.3z"/>
			<path class="st8" d="M1484.7,2164.2c-1.4-0.5-2.5-1.5-3-2.8c-0.5,1.5-1.7,2.6-3.2,3.2l-0.6-0.9c1.9-0.7,3.2-2.4,3.2-4.2v-0.4
				h-2.8v-0.9h6.7v0.9h-2.8v0.4c0,1.6,1.2,3.2,3.1,3.8L1484.7,2164.2z M1488.3,2167.4c0,1.5-1.6,2.3-4.2,2.3c-2.6,0-4.2-0.9-4.2-2.3
				s1.6-2.3,4.2-2.3C1486.7,2165.1,1488.3,2165.9,1488.3,2167.4z M1487.1,2167.4c0-0.9-1.1-1.5-3-1.5c-1.9,0-3,0.5-3,1.5
				s1.1,1.4,3,1.4C1486,2168.9,1487.1,2168.3,1487.1,2167.4z M1487.1,2160.5v-3.2h1.2v7.5h-1.2v-3.3h-2.5v-0.9H1487.1z"/>
			<path class="st8" d="M1500.4,2163.2h-5.9v-5.1h5.9V2163.2z M1500.8,2166.2c0,1.2,2,2.4,4.1,2.7l-0.4,0.9
				c-1.9-0.3-3.6-1.1-4.3-2.3c-0.8,1.2-2.5,2-4.4,2.3l-0.4-0.9c2.1-0.3,4.1-1.4,4.2-2.7h-3.7v-0.9h3.7v-1.2h1.2v1.2h3.7v0.9H1500.8z
				 M1499.3,2158.9h-3.6v3.3h3.6V2158.9z M1504.2,2164.4h-1.1v-7.2h1.1V2164.4z"/>
			<path class="st8" d="M1517.4,2163.8c-2.4,0.4-5.3,0.4-7.3,0.4l-0.1-1c0.5,0,1,0,1.6,0v-4.2h-1.2v-0.9h6.6v0.9h-1.2v4
				c0.6,0,1.1-0.1,1.6-0.2L1517.4,2163.8z M1520.3,2167.5c0,1.5-1.6,2.3-4.2,2.3c-2.6,0-4.2-0.8-4.2-2.3c0-1.4,1.6-2.3,4.2-2.3
				C1518.7,2165.2,1520.3,2166,1520.3,2167.5z M1512.6,2163.2c0.6,0,1.3,0,1.9-0.1v-4.1h-1.9V2163.2z M1519.2,2167.5
				c0-0.9-1.1-1.4-3-1.4c-1.9,0-3,0.5-3,1.4c0,0.9,1.1,1.4,3,1.4C1518,2168.9,1519.2,2168.4,1519.2,2167.5z M1519.1,2162.6h-2.1
				v-0.9h2.1v-1.3h-2.1v-0.9h2.1v-2.2h1.2v7.7h-1.2V2162.6z"/>
			<path class="st8" d="M1529.2,2158.5c0,3.6-1.6,6.8-5.7,8.8l-0.6-0.9c3.2-1.6,4.9-4,5.2-7h-4.6v-1H1529.2z M1534.5,2163.3h-2v6.5
				h-1.1v-12.6h1.1v5.1h2V2163.3z"/>
			<path class="st8" d="M1541.8,2159.9c-0.8,2-2.7,3.3-5.5,4l-0.4-0.9c3.1-0.7,4.8-2.2,5-4.2h-4.4v-0.9h5.6c0,0.4,0,0.8-0.1,1.2h2.8
				v-1.8h1.2v6.4h-1.2v-1.3h-3.3v-0.9h3.3v-1.5H1541.8z M1546.4,2168.7v0.9h-8.5v-3.2h6.9v-1.3h-6.9v-0.9h8.1v3.1h-6.9v1.5H1546.4z"
				/>
			<path class="st8" d="M1552.2,2166c1.4-0.1,2.8-0.1,4-0.3l0.1,0.8c-2.6,0.4-5.6,0.5-7.8,0.5l-0.1-1c0.8,0,1.7,0,2.7,0v-3.9h1.1
				V2166z M1554,2164.1c0.4-2.1,0.4-3.6,0.4-4.6h-5.2v-0.9h6.3v0.7c0,1,0,2.6-0.4,5L1554,2164.1z M1560.2,2163.4h-2v6.3h-1.1v-12.6
				h1.1v5.3h2V2163.4z"/>
			<path class="st8" d="M1575.9,2163.2v0.9h-11.4v-0.9H1575.9z M1574.8,2162.2c-1.9-0.3-3.8-1.3-4.6-2.7c-0.8,1.4-2.6,2.4-4.6,2.7
				l-0.4-0.9c2.2-0.3,4.4-1.7,4.4-3.3v-0.6h1.2v0.6c0,1.6,2.2,3,4.4,3.3L1574.8,2162.2z M1574.5,2167.5c0,1.4-1.6,2.2-4.3,2.2
				c-2.7,0-4.3-0.8-4.3-2.2c0-1.4,1.6-2.2,4.3-2.2C1572.9,2165.3,1574.5,2166.1,1574.5,2167.5z M1573.4,2167.5
				c0-0.9-1.2-1.3-3.1-1.3c-2,0-3.2,0.5-3.2,1.3c0,0.9,1.2,1.3,3.2,1.3C1572.2,2168.9,1573.4,2168.4,1573.4,2167.5z"/>
			<path class="st8" d="M1581,2164.3c-1.9,0-3.3-1.3-3.3-3.1c0-1.8,1.4-3.1,3.3-3.1c1.9,0,3.3,1.3,3.3,3.1
				C1584.3,2163,1582.9,2164.3,1581,2164.3z M1581,2163.3c1.2,0,2.2-0.9,2.2-2.1c0-1.2-0.9-2.1-2.2-2.1c-1.2,0-2.1,0.9-2.1,2.1
				C1578.9,2162.4,1579.8,2163.3,1581,2163.3z M1588.1,2168.5v0.9h-8.5v-4h1.1v3.1H1588.1z M1587.8,2166.4h-1.1v-9.2h1.1V2166.4z"/>
		</g>
		<g class="st0">
			<path class="st8" d="M1457.2,2194.9c0-1.1,0.8-1.9,1.8-1.9c0.9,0,1.8,0.8,1.8,1.9c0,1.1-0.8,1.9-1.8,1.9
				C1458,2196.8,1457.2,2196.1,1457.2,2194.9z"/>
			<path class="st8" d="M1473,2194.5c-2.6,0.4-5.6,0.5-7.8,0.5l-0.1-0.9c0.8,0,1.7,0,2.7,0v-2.7h1.1v2.7c1.4-0.1,2.8-0.2,4.1-0.3
				L1473,2194.5z M1470.6,2192.8c0.3-1.4,0.3-2.5,0.3-3.3h-5.1v-0.9h6.2v0.7c0,0.8,0,2.1-0.3,3.7L1470.6,2192.8z M1468.2,2198.9h7.2
				v0.9h-8.3v-3.7h1.1V2198.9z M1476.8,2191.6v1h-1.8v4.4h-1.1v-9.5h1.1v4.1H1476.8z"/>
			<path class="st8" d="M1484.8,2194.8c-1.6,0.3-2.9,0.3-5.3,0.3h-0.9v-3.9h4.2v-1.8h-4.3v-0.9h5.4v3.7h-4.3v2.1
				c2.2,0,3.5-0.1,5-0.3L1484.8,2194.8z M1488.8,2198.8v0.9h-8.5v-3.7h1.1v2.7H1488.8z M1487.2,2193.4h-2.4v-0.9h2.4v-1.9h-2.4v-0.9
				h2.4v-2.1h1.2v9.2h-1.2V2193.4z"/>
			<path class="st8" d="M1505.5,2197.5v1h-11.4v-1h5.1v-3h1.1v3H1505.5z M1494.6,2194c2.2-0.4,4.6-2.1,4.6-4.1v-0.3h-4.2v-0.9h9.5
				v0.9h-4.2v0.3c0,2,2.4,3.7,4.6,4.1l-0.5,0.9c-1.9-0.4-3.9-1.6-4.7-3.3c-0.8,1.7-2.8,3-4.7,3.4L1494.6,2194z"/>
			<path class="st8" d="M1511.6,2191.6c0,2.1,1.4,4.1,3.3,5l-0.6,0.9c-1.4-0.7-2.6-2-3.2-3.7c-0.6,1.8-1.8,3.2-3.2,3.9l-0.6-0.9
				c1.9-0.9,3.2-3,3.2-5.2v-1h-2.9v-0.9h2.9v-1.9h1.2v1.9h2.9v0.9h-2.9V2191.6z M1517.2,2187.5v12.6h-1.2v-12.6H1517.2z"/>
			<path class="st8" d="M1529.5,2193.5h-5.9v-5.1h5.9V2193.5z M1529.9,2196.5c0,1.2,2,2.4,4.1,2.7l-0.4,0.9
				c-1.9-0.3-3.6-1.1-4.3-2.3c-0.8,1.2-2.5,2-4.4,2.3l-0.4-0.9c2.1-0.3,4.1-1.4,4.2-2.7h-3.7v-0.9h3.7v-1.2h1.2v1.2h3.7v0.9H1529.9z
				 M1528.4,2189.3h-3.6v3.3h3.6V2189.3z M1533.3,2194.7h-1.1v-7.2h1.1V2194.7z"/>
			<path class="st8" d="M1545.8,2192.9c0,2.7-1.3,4.4-3.2,4.4s-3.2-1.7-3.2-4.4c0-2.7,1.3-4.4,3.2-4.4S1545.8,2190.2,1545.8,2192.9z
				 M1540.5,2192.9c0,2,0.9,3.4,2.1,3.4c1.2,0,2.1-1.3,2.1-3.4c0-2-0.9-3.3-2.1-3.3C1541.4,2189.5,1540.5,2190.9,1540.5,2192.9z
				 M1549.3,2187.5v12.6h-1.1v-12.6H1549.3z"/>
			<path class="st8" d="M1558.2,2189.9h-6.4v-0.9h2.6v-1.4h1.1v1.4h2.6V2189.9z M1555,2194.9c-1.6,0-2.7-0.8-2.7-2.2
				c0-1.3,1.1-2.1,2.7-2.1s2.7,0.9,2.7,2.1C1557.7,2194.1,1556.6,2194.9,1555,2194.9z M1555,2194c1,0,1.7-0.5,1.7-1.3
				c0-0.8-0.7-1.3-1.7-1.3c-1,0-1.7,0.5-1.7,1.3C1553.3,2193.5,1554,2194,1555,2194z M1562.5,2197.9c0,1.4-1.6,2.2-4.2,2.2
				c-2.6,0-4.2-0.8-4.2-2.2c0-1.4,1.6-2.2,4.2-2.2C1561,2195.7,1562.5,2196.5,1562.5,2197.9z M1561.4,2197.9c0-0.8-1.1-1.3-3.1-1.3
				c-1.9,0-3.1,0.5-3.1,1.3c0,0.8,1.1,1.3,3.1,1.3C1560.2,2199.2,1561.4,2198.7,1561.4,2197.9z M1559.8,2195h-1.1v-7.3h1.1v3.2h1.6
				v-3.4h1.1v8h-1.1v-3.6h-1.6V2195z"/>
			<path class="st8" d="M1569,2190.9c0,2.2,1.4,4.5,3.2,5.4l-0.7,0.9c-1.3-0.7-2.5-2.2-3-3.9c-0.5,1.8-1.7,3.4-3.1,4.2l-0.7-0.9
				c1.8-0.9,3.2-3.3,3.2-5.6v-2.3h1.1V2190.9z M1576.5,2193.6h-2.1v6.5h-1.1v-12.6h1.1v5.1h2.1V2193.6z"/>
			<path class="st8" d="M1585.1,2189.9h-7.4v-0.9h3.1v-1.5h1.1v1.5h3.1V2189.9z M1581.4,2194.9c-1.8,0-3-0.9-3-2.2
				c0-1.3,1.2-2.2,3-2.2s3,0.9,3,2.2C1584.4,2194.1,1583.2,2194.9,1581.4,2194.9z M1587.5,2197.9c0,1.4-1.6,2.2-4.1,2.2
				c-2.5,0-4.1-0.8-4.1-2.2c0-1.4,1.6-2.2,4.1-2.2C1586,2195.7,1587.5,2196.5,1587.5,2197.9z M1581.4,2194.1c1.1,0,1.9-0.5,1.9-1.4
				c0-0.8-0.8-1.3-1.9-1.3c-1.1,0-1.9,0.5-1.9,1.3C1579.5,2193.5,1580.2,2194.1,1581.4,2194.1z M1586.4,2197.9c0-0.8-1.1-1.3-3-1.3
				s-3,0.5-3,1.3s1.1,1.3,3,1.3S1586.4,2198.7,1586.4,2197.9z M1589.2,2191v1h-1.9v3.6h-1.1v-8.1h1.1v3.5H1589.2z"/>
		</g>
		<g class="st0">
			<path class="st8" d="M1472.5,2216.5c-1.4-0.5-2.5-1.5-3-2.8c-0.5,1.5-1.7,2.6-3.2,3.2l-0.6-0.9c1.9-0.7,3.2-2.4,3.2-4.2v-0.4
				h-2.8v-0.9h6.7v0.9h-2.8v0.4c0,1.6,1.2,3.2,3.1,3.8L1472.5,2216.5z M1476.1,2219.8c0,1.5-1.6,2.3-4.2,2.3c-2.6,0-4.2-0.9-4.2-2.3
				s1.6-2.3,4.2-2.3C1474.5,2217.4,1476.1,2218.3,1476.1,2219.8z M1474.9,2219.8c0-0.9-1.1-1.5-3-1.5c-1.9,0-3,0.5-3,1.5
				s1.1,1.4,3,1.4C1473.8,2221.2,1474.9,2220.7,1474.9,2219.8z M1474.9,2212.8v-3.2h1.2v7.5h-1.2v-3.3h-2.5v-0.9H1474.9z"/>
			<path class="st8" d="M1490,2219.5v0.9h-11.4v-0.9h5.1v-2.7h-3.8v-6.4h1.1v2.2h6.4v-2.2h1.1v6.4h-3.8v2.7H1490z M1481.1,2215.9
				h6.4v-2.3h-6.4V2215.9z"/>
			<path class="st8" d="M1506,2219.5v0.9h-11.4v-0.9h5.1v-2.7h-3.8v-6.4h1.1v2.2h6.4v-2.2h1.1v6.4h-3.8v2.7H1506z M1497.1,2215.9
				h6.4v-2.3h-6.4V2215.9z"/>
			<path class="st8" d="M1518.8,2219.4v0.9h-11.4v-0.9h4.4v-4.5h1.1v4.5H1518.8z M1516.3,2211.7h-7.7v-0.9h8.8v1.2
				c0,1.6,0,3.3-0.5,5.8l-1.1-0.1c0.5-2.4,0.5-4.2,0.5-5.7V2211.7z"/>
		</g>
		<path id="패스_1887" class="st5" d="M1209.9,2247.3h203.5v-187.7h-203.5V2247.3z"/>
		<path id="패스_1884-4" class="st4" d="M1209.9,2060h203.5v-67.8h-203.5V2060z"/>
		<g class="st0">
			<path class="st5" d="M1276.3,2017.3c2.3,0,4.3-0.1,6.6-0.5l0.2,1.3c-2.5,0.4-4.6,0.5-7.2,0.5h-1.2v-5.7h5v-2.7h-5.1v-1.3h6.7v5.4
				h-5V2017.3z M1285.7,2007.6v14.5h-1.7v-14.5H1285.7z"/>
			<path class="st5" d="M1301.6,2018.8v1.4h-13.1v-1.4H1301.6z M1300.3,2016c-2.4-0.5-4.4-2-5.3-4c-0.9,2-3,3.5-5.3,4l-0.7-1.4
				c2.8-0.5,5.2-2.8,5.2-5v-1.1h1.7v1.1c0,2.3,2.3,4.5,5.2,5L1300.3,2016z"/>
			<path class="st5" d="M1316.3,2018.8v1.4h-13.1v-1.4H1316.3z M1313.2,2013c0-0.8,0-1.5,0-2.2v-0.4h-8.5v-1.3h10.1v1.7
				c0,2.1,0,4.1-0.6,7.1l-1.6-0.1c0.3-1.3,0.5-2.4,0.5-3.5l-8.5,0.4l-0.2-1.3L1313.2,2013z"/>
			<path class="st5" d="M1329.3,2015.6c-1.6-0.6-2.8-1.7-3.4-3.1c-0.6,1.6-1.9,2.8-3.6,3.4l-0.8-1.3c2.2-0.8,3.6-2.7,3.6-4.7v-0.2
				h-3.1v-1.3h7.7v1.3h-3v0.2c0,1.8,1.2,3.6,3.4,4.4L1329.3,2015.6z M1324,2016.7h9.5v5.2h-9.5V2016.7z M1325.6,2020.6h6.3v-2.6
				h-6.3V2020.6z M1333.5,2007.6v8.4h-1.6v-3.6h-2.6v-1.3h2.6v-3.5H1333.5z"/>
			<path class="st5" d="M1343.7,2008.5c0,3.7-2.5,6.3-6.7,7.5l-0.7-1.3c3.3-0.9,5.3-2.6,5.6-4.9h-4.8v-1.3H1343.7z M1338.8,2016.4
				h9.4v5.5h-9.4V2016.4z M1340.4,2020.5h6.2v-2.9h-6.2V2020.5z M1348.2,2007.6v8.2h-1.6v-3.2h-2.9v-1.4h2.9v-3.6H1348.2z"/>
		</g>
		<g class="st0">
			<path class="st5" d="M1286.8,2040.1h-5.7v5h-1.6v-5h-5.7v-1.3h13.1L1286.8,2040.1z M1274.5,2036.4c2.8-0.4,4.8-2,4.9-3.6h-4.4
				v-1.3h10.6v1.3h-4.4c0.1,1.7,2.1,3.3,4.9,3.6l-0.6,1.3c-2.4-0.4-4.4-1.5-5.2-3.1c-0.9,1.6-2.8,2.8-5.2,3.1L1274.5,2036.4z"/>
			<path class="st5" d="M1297.4,2038.7c-3,0.5-6.4,0.6-8.9,0.6l-0.2-1.3c0.9,0,1.9,0,2.9,0v-3h1.6v2.9c1.5-0.1,3.1-0.2,4.5-0.4
				L1297.4,2038.7z M1294.5,2036.6c0.3-1.6,0.3-2.7,0.4-3.6h-5.7v-1.3h7.3v0.8c0,1,0,2.4-0.4,4.3L1294.5,2036.6z M1292.2,2043.4h8.2
				v1.3h-9.8v-4.3h1.7V2043.4z M1301.8,2035.2v1.4h-1.9v4.9h-1.7v-10.9h1.7v4.6H1301.8z"/>
			<path class="st5" d="M1319.9,2040.4h-5.8v4.7h-1.6v-4.7h-5.7v-1.3h13.1V2040.4z M1318.3,2037.5h-9.9v-6.3h1.6v1.8h6.6v-1.8h1.6
				V2037.5z M1316.6,2034.3h-6.6v1.8h6.6V2034.3z"/>
			<path class="st5" d="M1326.8,2034.1c0,2.7,1.4,5.3,3.6,6.3l-1,1.3c-1.6-0.8-2.8-2.4-3.4-4.3c-0.6,2-1.8,3.7-3.5,4.6l-1-1.3
				c2.3-1.1,3.7-3.9,3.7-6.6v-2.4h1.7V2034.1z M1333.5,2030.6v14.5h-1.7v-8.4h-3.1v-1.3h3.1v-4.8H1333.5z"/>
			<path class="st5" d="M1343.9,2038.7c-1.6-0.5-2.8-1.6-3.4-2.9c-0.6,1.5-1.9,2.8-3.6,3.4l-0.8-1.3c2.3-0.8,3.5-2.6,3.5-4.6v-0.3
				h-3.1v-1.3h7.8v1.3h-3v0.3c0,1.8,1.2,3.5,3.4,4.2L1343.9,2038.7z M1347.7,2042.3c0,1.7-1.8,2.7-4.8,2.7s-4.8-1-4.8-2.7
				c0-1.7,1.8-2.7,4.8-2.7S1347.7,2040.6,1347.7,2042.3z M1346.1,2042.3c0-0.9-1.2-1.4-3.2-1.4s-3.2,0.5-3.2,1.4
				c0,0.9,1.2,1.4,3.2,1.4S1346.1,2043.2,1346.1,2042.3z M1349.6,2034.1v1.4h-2v3.8h-1.6v-8.6h1.6v3.5H1349.6z"/>
		</g>
		<g class="st0">
			<path class="st8" d="M1234.8,2090.3c0-1.1,0.8-1.9,1.8-1.9c0.9,0,1.8,0.8,1.8,1.9c0,1.1-0.8,1.9-1.8,1.9
				C1235.6,2092.2,1234.8,2091.4,1234.8,2090.3z"/>
			<path class="st8" d="M1244.5,2091.2c1.2,0,2.5-0.1,4-0.4l0.1,1c-1.7,0.3-3.1,0.4-4.5,0.4h-0.8v-7.8h1.1V2091.2z M1253.4,2082.9
				v12.6h-1.1v-6.5h-1.8v5.9h-1.1v-11.6h1.1v4.8h1.8v-5.1H1253.4z"/>
			<path class="st8" d="M1267,2091.2h-5.2v4.2h-1.1v-4.2h-5.1v-0.9h11.4V2091.2z M1265.6,2088.8h-8.5v-5.4h1.1v1.7h6.2v-1.7h1.1
				V2088.8z M1264.5,2086h-6.2v1.8h6.2V2086z"/>
			<path class="st8" d="M1275.6,2089.5c-1.4-0.5-2.6-1.6-3.2-2.9c-0.5,1.5-1.7,2.6-3.2,3.2l-0.6-0.9c1.9-0.7,3.2-2.4,3.2-4.2v-1.2
				h1.1v1.2c0,1.8,1.3,3.3,3.2,4L1275.6,2089.5z M1270.7,2090.7h8.1v4.5h-8.1V2090.7z M1271.8,2094.3h5.9v-2.7h-5.9V2094.3z
				 M1278.9,2082.9v7.1h-1.1v-7.1H1278.9z"/>
			<path class="st8" d="M1285.6,2086.2c0,2.2,1.4,4.5,3.2,5.4l-0.7,0.9c-1.3-0.7-2.5-2.2-3-3.9c-0.5,1.8-1.7,3.4-3.1,4.2l-0.7-0.9
				c1.8-0.9,3.2-3.3,3.2-5.6v-2.3h1.1V2086.2z M1293.2,2088.9h-2.1v6.5h-1.1v-12.6h1.1v5.1h2.1V2088.9z"/>
			<path class="st8" d="M1304,2088.8h-5.9v-5.1h5.9V2088.8z M1304.3,2091.8c0,1.2,2,2.4,4.1,2.7l-0.4,0.9c-1.9-0.3-3.6-1.1-4.3-2.3
				c-0.8,1.2-2.5,2-4.4,2.3l-0.4-0.9c2.1-0.3,4.1-1.4,4.2-2.7h-3.7v-0.9h3.7v-1.2h1.2v1.2h3.7v0.9H1304.3z M1302.8,2084.6h-3.6v3.3
				h3.6V2084.6z M1307.7,2090.1h-1.1v-7.2h1.1V2090.1z"/>
			<path class="st8" d="M1319.5,2086.1c-0.8,2-2.7,3.5-5.4,4.3l-0.5-0.9c3-0.9,4.9-2.6,5.1-4.7h-4.4v-0.9h5.7c0,0.5-0.1,0.9-0.1,1.4
				h2.8v-2.3h1.2v7.5h-1.2v-1.7h-3.3v-0.9h3.3v-1.7H1319.5z M1323.9,2093c0,1.5-1.6,2.4-4.2,2.4c-2.5,0-4.2-0.9-4.2-2.4
				c0-1.5,1.6-2.4,4.2-2.4C1322.2,2090.5,1323.9,2091.4,1323.9,2093z M1322.7,2093c0-0.9-1.2-1.5-3-1.5c-1.8,0-3,0.6-3,1.5
				c0,1,1.2,1.5,3,1.5C1321.6,2094.5,1322.7,2093.9,1322.7,2093z"/>
			<path class="st8" d="M1332.3,2088.5c-0.6,0.7-1.5,1.1-2.5,1.1c-1.9,0-3.2-1.2-3.2-3c0-1.8,1.4-3,3.2-3c1.1,0,2,0.4,2.5,1h3.2
				v-1.8h1.2v7.4h-1.2v-1.8H1332.3z M1329.8,2088.6c1.2,0,2.1-0.8,2.1-2c0-1.2-0.9-2-2.1-2c-1.2,0-2.1,0.8-2.1,2
				C1327.6,2087.8,1328.5,2088.6,1329.8,2088.6z M1336.7,2093c0,1.5-1.6,2.4-4.2,2.4c-2.6,0-4.2-0.9-4.2-2.4c0-1.5,1.6-2.4,4.2-2.4
				C1335.1,2090.6,1336.7,2091.5,1336.7,2093z M1335.6,2093c0-1-1.1-1.5-3.1-1.5c-1.9,0-3,0.6-3,1.5c0,0.9,1.1,1.5,3,1.5
				C1334.4,2094.5,1335.6,2094,1335.6,2093z M1332.8,2085.6c0.1,0.3,0.2,0.6,0.2,1c0,0.3-0.1,0.7-0.2,1h2.7v-2H1332.8z"/>
			<path class="st8" d="M1345.7,2083.7c0,3.2-2.2,5.4-5.8,6.5l-0.5-0.9c3-0.9,4.8-2.5,5.1-4.6h-4.5v-0.9H1345.7z M1341.4,2090.6h8.1
				v4.7h-8.1V2090.6z M1342.6,2094.3h5.9v-2.8h-5.9V2094.3z M1349.6,2082.9v7.2h-1.1v-3h-2.7v-0.9h2.7v-3.2H1349.6z"/>
			<path class="st8" d="M1363.5,2092.9v1h-11.4v-1h5.1v-2.6h-3.7v-6.4h8.5v0.9h-7.4v1.8h7.1v0.9h-7.1v1.9h7.5v0.9h-3.8v2.6H1363.5z"
				/>
		</g>
		<g class="st0">
			<path class="st8" d="M1234.8,2121.3c0-1.1,0.8-1.9,1.8-1.9c0.9,0,1.8,0.8,1.8,1.9c0,1.1-0.8,1.9-1.8,1.9
				C1235.6,2123.2,1234.8,2122.4,1234.8,2121.3z"/>
			<path class="st8" d="M1249.6,2119.2c0,2.7-1.3,4.4-3.2,4.4c-1.9,0-3.2-1.7-3.2-4.4c0-2.7,1.3-4.4,3.2-4.4
				C1248.3,2114.8,1249.6,2116.6,1249.6,2119.2z M1244.3,2119.2c0,2,0.9,3.4,2.1,3.4c1.2,0,2.1-1.3,2.1-3.4c0-2-0.9-3.3-2.1-3.3
				C1245.2,2115.9,1244.3,2117.2,1244.3,2119.2z M1253.1,2113.9v12.6h-1.1v-12.6H1253.1z"/>
			<path class="st8" d="M1262,2116.3h-6.4v-0.9h2.6v-1.4h1.1v1.4h2.6V2116.3z M1258.8,2121.3c-1.6,0-2.7-0.8-2.7-2.2
				c0-1.3,1.1-2.1,2.7-2.1s2.7,0.9,2.7,2.1C1261.5,2120.4,1260.4,2121.3,1258.8,2121.3z M1258.8,2120.4c1,0,1.7-0.5,1.7-1.3
				c0-0.8-0.7-1.3-1.7-1.3c-1,0-1.7,0.5-1.7,1.3C1257.1,2119.9,1257.8,2120.4,1258.8,2120.4z M1266.3,2124.2c0,1.4-1.6,2.2-4.2,2.2
				s-4.2-0.8-4.2-2.2c0-1.4,1.6-2.2,4.2-2.2S1266.3,2122.8,1266.3,2124.2z M1265.2,2124.2c0-0.8-1.1-1.3-3.1-1.3
				c-1.9,0-3.1,0.5-3.1,1.3c0,0.8,1.1,1.3,3.1,1.3C1264,2125.6,1265.2,2125.1,1265.2,2124.2z M1263.6,2121.4h-1.1v-7.3h1.1v3.2h1.6
				v-3.4h1.1v8h-1.1v-3.6h-1.6V2121.4z"/>
			<path class="st8" d="M1278.9,2113.9v12.6h-1.1v-4.9h-3.1c-0.5,1.3-1.5,2-2.7,2c-1.8,0-3.1-1.7-3.1-4.4c0-2.7,1.3-4.4,3.1-4.4
				c1.2,0,2.1,0.7,2.6,1.8h3.2v-2.8H1278.9z M1273.9,2119.2c0-2-0.9-3.3-2-3.3c-1.2,0-2,1.3-2,3.3c0,2,0.8,3.4,2,3.4
				C1273.1,2122.6,1273.9,2121.3,1273.9,2119.2z M1277.7,2120.7v-3h-2.9c0.1,0.5,0.2,1,0.2,1.6c0,0.5-0.1,1-0.1,1.4H1277.7z"/>
			<path class="st8" d="M1292.8,2122.3h-5.2v4.2h-1.1v-4.2h-5.1v-0.9h11.4V2122.3z M1291.4,2119.8h-8.5v-5.4h1.1v1.7h6.2v-1.7h1.1
				V2119.8z M1290.2,2117h-6.2v1.8h6.2V2117z"/>
			<path class="st8" d="M1304.3,2120.8c-1.4-0.5-2.5-1.6-3-2.8c-0.5,1.4-1.7,2.6-3.2,3.1l-0.6-0.9c1.9-0.7,3.2-2.3,3.2-4.1v-0.5
				h-2.8v-0.9h6.7v0.9h-2.8v0.5c0,1.6,1.2,3.2,3.1,3.9L1304.3,2120.8z M1299.6,2121.9h8.2v4.4h-8.2V2121.9z M1300.7,2125.4h5.9v-2.6
				h-5.9V2125.4z M1307.8,2113.9v7.4h-1.2v-3.2h-2.5v-1h2.5v-3.2H1307.8z"/>
			<path class="st8" d="M1316.8,2114.7c0,3.2-2.2,5.4-5.8,6.5l-0.5-0.9c3-0.9,4.8-2.5,5.1-4.6h-4.5v-0.9H1316.8z M1312.5,2121.6h8.1
				v4.7h-8.1V2121.6z M1313.7,2125.3h5.9v-2.8h-5.9V2125.3z M1320.7,2113.9v7.2h-1.1v-3h-2.7v-0.9h2.7v-3.2H1320.7z"/>
			<path class="st8" d="M1332.9,2119.8h-5.9v-5.1h5.9V2119.8z M1333.2,2122.8c0,1.2,2,2.4,4.1,2.7l-0.4,0.9
				c-1.9-0.3-3.6-1.1-4.3-2.3c-0.8,1.2-2.5,2-4.4,2.3l-0.4-0.9c2.1-0.3,4.1-1.4,4.2-2.7h-3.7v-0.9h3.7v-1.2h1.2v1.2h3.7v0.9H1333.2z
				 M1331.7,2115.6h-3.6v3.3h3.6V2115.6z M1336.6,2121.1h-1.1v-7.2h1.1V2121.1z"/>
		</g>
		<g class="st0">
			<path class="st8" d="M1247.8,2137.5c0,3.2-1.1,6.2-4.7,8.2l-0.7-0.8c2.9-1.6,4.1-3.9,4.2-6.5h-3.8v-0.9H1247.8z M1253.1,2135.9
				v12.6h-1.1v-6.6h-1.7v5.9h-1.1v-11.6h1.1v4.7h1.7v-5.1H1253.1z"/>
			<path class="st8" d="M1262,2143.2c-1.4-0.5-2.5-1.6-3-3c-0.5,1.5-1.7,2.7-3.1,3.3l-0.6-0.9c1.9-0.7,3.1-2.5,3.1-4.4v-1.6h1.1v1.6
				c0,1.8,1.2,3.4,3,4.1L1262,2143.2z M1266,2147.2v0.9h-8.4v-3.9h1.1v3H1266z M1264.5,2139.8h-2.7v-1h2.7v-2.9h1.2v9.4h-1.2V2139.8
				z"/>
			<path class="st8" d="M1272.4,2139.2c0,2.2,1.4,4.5,3.2,5.4l-0.7,0.9c-1.3-0.7-2.5-2.2-3-3.9c-0.5,1.8-1.7,3.4-3.1,4.2l-0.7-0.9
				c1.8-0.9,3.2-3.3,3.2-5.6v-2.3h1.1V2139.2z M1279.9,2141.9h-2.1v6.5h-1.1v-12.6h1.1v5.1h2.1V2141.9z"/>
			<path class="st8" d="M1288.5,2138.2h-7.4v-0.9h3.1v-1.5h1.1v1.5h3.1V2138.2z M1284.8,2143.3c-1.8,0-3-0.9-3-2.2
				c0-1.3,1.2-2.2,3-2.2s3,0.9,3,2.2C1287.8,2142.4,1286.6,2143.3,1284.8,2143.3z M1291,2146.3c0,1.4-1.6,2.2-4.1,2.2
				c-2.5,0-4.1-0.8-4.1-2.2c0-1.4,1.6-2.2,4.1-2.2C1289.4,2144.1,1291,2144.9,1291,2146.3z M1284.8,2142.4c1.1,0,1.9-0.5,1.9-1.4
				c0-0.8-0.8-1.3-1.9-1.3c-1.1,0-1.9,0.5-1.9,1.3C1282.9,2141.9,1283.7,2142.4,1284.8,2142.4z M1289.8,2146.3c0-0.8-1.1-1.3-3-1.3
				s-3,0.5-3,1.3s1.1,1.3,3,1.3S1289.8,2147.1,1289.8,2146.3z M1292.7,2139.4v1h-1.9v3.6h-1.1v-8.1h1.1v3.5H1292.7z"/>
		</g>
		<g class="st0">
			<path class="st8" d="M1308.9,2145.9v1h-11.4v-1h2.8v-3.4c-1.1-0.5-1.7-1.5-1.7-2.6c0-2,1.9-3.2,4.6-3.2c2.7,0,4.6,1.3,4.6,3.2
				c0,1.1-0.6,2-1.7,2.6v3.4H1308.9z M1299.7,2139.9c0,1.4,1.4,2.3,3.5,2.3c2,0,3.5-0.9,3.5-2.3c0-1.4-1.5-2.3-3.5-2.3
				C1301.2,2137.6,1299.7,2138.5,1299.7,2139.9z M1301.4,2145.9h3.5v-3c-0.5,0.1-1.1,0.2-1.8,0.2c-0.6,0-1.2-0.1-1.7-0.2V2145.9z"/>
			<path class="st8" d="M1321.8,2143h-5.1v5.4h-1.2v-5.4h-5.1v-0.9h8.3c0.4-1.8,0.4-3.1,0.4-4.3v-0.2h-7.3v-0.9h8.4v1.1
				c0,1.2,0,2.5-0.3,4.3h1.9V2143z"/>
		</g>
		<g class="st0">
			<path class="st8" d="M1234.8,2173.6c0-1.1,0.8-1.9,1.8-1.9c0.9,0,1.8,0.8,1.8,1.9c0,1.1-0.8,1.9-1.8,1.9
				C1235.6,2175.5,1234.8,2174.7,1234.8,2173.6z"/>
			<path class="st8" d="M1249.6,2173.2c-1.4-0.5-2.5-1.6-3-2.8c-0.5,1.4-1.7,2.6-3.2,3.1l-0.6-0.9c1.9-0.7,3.2-2.3,3.2-4.1v-0.5
				h-2.8v-0.9h6.7v0.9h-2.8v0.5c0,1.6,1.2,3.2,3.1,3.9L1249.6,2173.2z M1245,2174.2h8.2v4.4h-8.2V2174.2z M1246.1,2177.7h5.9v-2.6
				h-5.9V2177.7z M1253.1,2166.2v7.4h-1.2v-3.2h-2.5v-1h2.5v-3.2H1253.1z"/>
			<path class="st8" d="M1262.1,2167c0,3.2-2.2,5.4-5.8,6.5l-0.5-0.9c3-0.9,4.8-2.5,5.1-4.6h-4.5v-0.9H1262.1z M1257.9,2173.9h8.1
				v4.7h-8.1V2173.9z M1259,2177.7h5.9v-2.8h-5.9V2177.7z M1266,2166.2v7.2h-1.1v-3h-2.7v-0.9h2.7v-3.2H1266z"/>
			<path class="st8" d="M1278.2,2172.2h-5.9v-5.1h5.9V2172.2z M1278.6,2175.2c0,1.2,2,2.4,4.1,2.7l-0.4,0.9
				c-1.9-0.3-3.6-1.1-4.3-2.3c-0.8,1.2-2.5,2-4.4,2.3l-0.4-0.9c2.1-0.3,4.1-1.4,4.2-2.7h-3.7v-0.9h3.7v-1.2h1.2v1.2h3.7v0.9H1278.6z
				 M1277.1,2167.9h-3.6v3.3h3.6V2167.9z M1282,2173.4h-1.1v-7.2h1.1V2173.4z"/>
			<path class="st8" d="M1293.1,2167.8c0,3.2-1.1,6.2-4.7,8.2l-0.7-0.8c2.9-1.6,4.1-3.9,4.2-6.5h-3.8v-0.9H1293.1z M1298.4,2166.2
				v12.6h-1.1v-6.6h-1.7v5.9h-1.1v-11.6h1.1v4.7h1.7v-5.1H1298.4z"/>
			<path class="st8" d="M1307.3,2173.5c-1.4-0.5-2.5-1.6-3-3c-0.5,1.5-1.7,2.7-3.1,3.3l-0.6-0.9c1.9-0.7,3.1-2.5,3.1-4.4v-1.6h1.1
				v1.6c0,1.8,1.2,3.4,3,4.1L1307.3,2173.5z M1311.2,2177.6v0.9h-8.4v-3.9h1.1v3H1311.2z M1309.8,2170.1h-2.7v-1h2.7v-2.9h1.2v9.4
				h-1.2V2170.1z"/>
			<path class="st8" d="M1324.9,2176.2v1h-11.4v-1h2.8v-3.4c-1-0.5-1.7-1.5-1.7-2.6c0-2,1.9-3.2,4.6-3.2c2.7,0,4.6,1.3,4.6,3.2
				c0,1.1-0.6,2-1.7,2.6v3.4H1324.9z M1315.7,2170.2c0,1.4,1.4,2.3,3.5,2.3c2,0,3.5-0.9,3.5-2.3c0-1.4-1.5-2.3-3.5-2.3
				C1317.1,2167.9,1315.7,2168.8,1315.7,2170.2z M1317.4,2176.2h3.5v-3c-0.5,0.1-1.1,0.2-1.8,0.2c-0.6,0-1.2-0.1-1.7-0.2V2176.2z"/>
			<path class="st8" d="M1337.7,2173.4h-5.1v5.4h-1.2v-5.4h-5.1v-0.9h8.3c0.4-1.8,0.4-3.1,0.4-4.3v-0.2h-7.3v-0.9h8.4v1.1
				c0,1.2,0,2.5-0.4,4.3h1.9V2173.4z"/>
			<path class="st8" d="M1339.2,2179.6c0.9-0.4,1.4-1.1,1.4-1.9c-0.1,0-0.1,0-0.2,0c-0.5,0-0.9-0.3-0.9-0.9c0-0.5,0.4-0.9,1-0.9
				c0.7,0,1.1,0.6,1.1,1.5c0,1.3-0.8,2.4-2,2.9L1339.2,2179.6z"/>
		</g>
		<g class="st0">
			<path class="st8" d="M1249,2190.9c-0.8,2-2.7,3.3-5.5,4l-0.4-0.9c3.1-0.7,4.8-2.2,5-4.2h-4.4v-0.9h5.6c0,0.4,0,0.8-0.1,1.2h2.8
				v-1.8h1.2v6.4h-1.2v-1.3h-3.3v-0.9h3.3v-1.5H1249z M1253.7,2199.7v0.9h-8.5v-3.2h6.9v-1.3h-6.9v-0.9h8.1v3.1h-6.9v1.5H1253.7z"/>
			<path class="st8" d="M1259.4,2197c1.4-0.1,2.8-0.1,4-0.3l0.1,0.8c-2.6,0.4-5.6,0.5-7.8,0.5l-0.1-1c0.8,0,1.7,0,2.7,0v-3.9h1.1
				V2197z M1261.2,2195.1c0.4-2.1,0.4-3.6,0.4-4.6h-5.2v-0.9h6.3v0.7c0,1,0,2.6-0.4,5L1261.2,2195.1z M1267.4,2194.4h-2v6.3h-1.1
				v-12.6h1.1v5.3h2V2194.4z"/>
			<path class="st8" d="M1280,2198.2v0.9h-11.4v-0.9h5.1v-2.7h-3.8v-6.4h1.1v2.2h6.4v-2.2h1.1v6.4h-3.8v2.7H1280z M1271.1,2194.6
				h6.4v-2.3h-6.4V2194.6z"/>
			<path class="st8" d="M1292.9,2198.1v0.9h-11.4v-0.9h4.4v-4.5h1.1v4.5H1292.9z M1290.4,2190.4h-7.7v-0.9h8.8v1.2
				c0,1.6,0,3.3-0.5,5.8l-1.1-0.1c0.5-2.4,0.5-4.2,0.5-5.7V2190.4z"/>
		</g>
		<g id="그룹_5391" transform="translate(1423.199 2246.924) rotate(-90)">
			<path id="패스_1873-2" class="st9" d="M313.7,0H0"/>
		</g>
		<g id="그룹_5395" transform="translate(977.926 2246.924) rotate(-90)">
			<path id="패스_1873-3" class="st9" d="M314.9,0H0"/>
		</g>
	</g>
</g>
</svg>
