<?xml version="1.0" encoding="utf-8"?>
<!-- Generator: Adobe Illustrator 25.1.0, SVG Export Plug-In . SVG Version: 6.00 Build 0)  -->
<svg version="1.1" id="레이어_1" xmlns="http://www.w3.org/2000/svg" xmlns:xlink="http://www.w3.org/1999/xlink" x="0px"
	 y="0px" viewBox="0 0 920 293" style="enable-background:new 0 0 920 293;" xml:space="preserve">
<style type="text/css">
	.st0{enable-background:new    ;}
	.st1{fill:#2AA6D3;}
	.st2{fill:#FFFFFF;}
	.st3{clip-path:url(#SVGID_2_);}
	.st4{fill:none;stroke:#2AA6D3;}
	.st5{fill:#555555;}
	.st6{clip-path:url(#SVGID_4_);}
	.st7{fill:none;stroke:#2AA6D3;stroke-linecap:round;stroke-linejoin:round;}
	.st8{clip-path:url(#SVGID_6_);}
	.st9{clip-path:url(#SVGID_8_);}
	.st10{fill:none;stroke:#2AA6D3;stroke-linecap:round;}
	.st11{clip-path:url(#SVGID_10_);}
	.st12{clip-path:url(#SVGID_12_);}
</style>
<g id="그룹_5402" transform="translate(-740 -1374.945)">
	<g class="st0">
		<path class="st1" d="M745.4,1397.3c3.4,0,6.1-0.2,9.3-0.7l0.3,2.6c-3.6,0.6-6.8,0.8-10.8,0.8h-2v-9.1h7.2v-3.5h-7.2v-2.5h10.4v8.5
			h-7.2V1397.3z M759.4,1382.9v22.2h-3.2v-22.2H759.4z"/>
		<path class="st1" d="M783.1,1399.8v2.6h-20v-2.6H783.1z M781.1,1396c-3.8-0.8-6.7-2.9-8.1-5.7c-1.4,2.8-4.2,5-8.1,5.7l-1.3-2.7
			c5-0.8,7.7-4.3,7.7-7.5v-1.6h3.4v1.6c0,3.2,2.7,6.7,7.7,7.5L781.1,1396z"/>
		<path class="st1" d="M805.2,1399.8v2.6h-20v-2.6H805.2z M800,1390.9c0-1.2,0-2.4,0-3.5v0h-12.6v-2.5h15.7v2.6c0,3.2,0,6.3-1,11.1
			l-3.1-0.3c0.4-1.8,0.7-3.4,0.8-4.9l-12.6,0.6l-0.4-2.6L800,1390.9z"/>
		<path class="st1" d="M826.2,1395.5c-4.6,0.8-9.7,0.9-13.5,1l-0.3-2.5c1.2,0,2.6,0,4,0v-4.3h3.1v4.2c2.2-0.1,4.4-0.3,6.5-0.6
			L826.2,1395.5z M821.4,1392c0.4-2.1,0.5-3.7,0.5-5h-8.2v-2.5H825v1.4c0,1.5,0,3.7-0.5,6.5L821.4,1392z M818.8,1402.1h12.3v2.5
			h-15.4v-6.6h3.2V1402.1z M833,1389.6v2.6h-2.6v7.2h-3.2v-16.6h3.2v6.7H833z"/>
		<path class="st1" d="M839.2,1397.3c3.4,0,6.1-0.2,9.3-0.7l0.3,2.6c-3.6,0.6-6.8,0.8-10.8,0.8h-2v-9.1h7.2v-3.5H836v-2.5h10.4v8.5
			h-7.2V1397.3z M853.2,1382.9v22.2H850v-22.2H853.2z"/>
		<path class="st1" d="M882.3,1399.9v2.6h-20v-2.6H882.3z M866.9,1387.3h-3v-2.5h16.8v2.5h-3v6.6h2.9v2.5H864v-2.5h2.9V1387.3z
			 M874.5,1387.3H870v6.6h4.5V1387.3z"/>
		<path class="st1" d="M904.4,1400v2.6h-20v-2.6h8.4v-3.3h-6.1v-7.5H899v-2.4h-12.4v-2.5h15.5v7.4h-12.3v2.5h12.8v2.5H896v3.3H904.4
			z"/>
		<path class="st1" d="M913.5,1388.4c0,3.6,1,7.2,4,9.2l-1.7,2.4c-1.9-1.2-3-3-3.7-5.3c-0.8,2.4-2.1,4.6-4.1,5.8l-1.9-2.4
			c3.2-2,4.4-5.9,4.4-9.7v-3.7h3V1388.4z M918,1383.3h3v20.8h-3v-11.1h-2.8v-2.6h2.8V1383.3z M925.4,1382.9v22.1h-3v-22.1H925.4z"/>
		<path class="st1" d="M948.6,1399.8v2.6h-20v-2.6H948.6z M946.5,1396c-3.8-0.8-6.7-2.9-8.1-5.7c-1.4,2.8-4.2,5-8.1,5.7l-1.3-2.7
			c5-0.8,7.7-4.3,7.7-7.5v-1.6h3.4v1.6c0,3.2,2.7,6.7,7.7,7.5L946.5,1396z"/>
	</g>
	<g id="그룹_5401" transform="translate(0 -10.055)">
		<rect id="사각형_308" x="740" y="1500" class="st2" width="200" height="178"/>
		<rect id="사각형_308-2" x="980" y="1500" class="st2" width="200" height="178"/>
		<rect id="사각형_308-3" x="1221" y="1500" class="st2" width="200" height="178"/>
		<rect id="사각형_308-4" x="1460" y="1500" class="st2" width="200" height="178"/>
		<g id="그룹_4232" transform="translate(811 1531.003)">
			<g>
				<defs>
					<rect id="SVGID_1_" y="0" width="59" height="59"/>
				</defs>
				<clipPath id="SVGID_2_">
					<use xlink:href="#SVGID_1_"  style="overflow:visible;"/>
				</clipPath>
				<g id="그룹_4231" transform="translate(0 0)" class="st3">
					<g id="그룹_4229" transform="translate(-0.001 38.722)">
						<path id="패스_1852" class="st4" d="M3.7,19.7h14.9l25.6-6.4l13-8.3c1.3-0.8,1.6-2.5,0.8-3.8c-0.1-0.2-0.2-0.3-0.4-0.4
							c-0.9-0.9-2.4-1.1-3.5-0.3l-9.6,6.4H32.6 M35.9,6.9l10.1-6.4c1.1-0.7,2.5-0.6,3.5,0.3c0.4,0.4,0.7,0.9,0.8,1.5 M5,8.6h2.7
							L17,2.6c1.1-0.9,2.4-1.3,3.8-1.3h16.8V3c0,2.2-1.8,4-4,3.9c0,0,0,0,0,0h-7 M0.1,8.6H5v11.1H0"/>
					</g>
					<g id="그룹_4230" transform="translate(7.587 -0.001)">
						<path id="패스_1853" class="st4" d="M33.4,19.9c0,6.2-5,11.2-11.1,11.2c0,0,0,0,0,0c-6.2,0-11.2-5-11.2-11.2
							s5-11.2,11.2-11.2C28.5,8.7,33.5,13.7,33.4,19.9C33.4,19.9,33.4,19.9,33.4,19.9z M22.4,15.1v9.7 M22.3,5V0 M17.3,9.9V5
							 M17.3,2.5V0 M27.3,9.9V5 M27.3,2.5V0 M43.4,29.8c0,1.4-1.1,2.5-2.5,2.5c-1.4,0-2.5-1.1-2.5-2.5c0-1.4,1.1-2.5,2.5-2.5
							C42.3,27.3,43.4,28.4,43.4,29.8C43.4,29.8,43.4,29.8,43.4,29.8z M40.9,23.6v-5 M40.9,16.1v-2.5 M5,29.8c0,1.4-1.1,2.5-2.5,2.5
							h0c-1.4,0-2.5-1.1-2.5-2.5v0c0-1.4,1.1-2.5,2.5-2.5c0,0,0,0,0,0C3.8,27.3,5,28.4,5,29.8C5,29.8,5,29.8,5,29.8z M2.5,23.6v-5
							 M2.5,16.1v-2.5"/>
					</g>
				</g>
			</g>
		</g>
		<g class="st0">
			<path class="st5" d="M808.8,1632.4c2.2,0,4.2-0.1,6.5-0.5l0.1,1c-2.4,0.4-4.5,0.5-6.8,0.5h-1.1v-5.2h5v-2.8h-5v-1h6.2v4.8h-5
				V1632.4z M817.8,1623.1v13.5h-1.2v-13.5H817.8z"/>
			<path class="st5" d="M832.8,1633.8v1h-12.2v-1H832.8z M831.6,1630.9c-2-0.5-4.1-1.9-5-3.9c-0.9,2-3,3.4-5,3.9l-0.6-1
				c2.4-0.5,4.9-2.5,4.9-4.8v-1h1.3v1c0,2.3,2.5,4.3,4.9,4.8L831.6,1630.9z"/>
			<path class="st5" d="M846.6,1633.7v1h-12.2v-1H846.6z M843.8,1628.3c0-0.7,0-1.4,0-2.1v-0.6h-8v-1h9.2v1.6c0,2,0,3.8-0.6,6.6
				l-1.2-0.1c0.3-1.3,0.4-2.4,0.5-3.4l-8.1,0.4l-0.2-1L843.8,1628.3z"/>
			<path class="st5" d="M852,1630.7c-2,0-3.5-1.4-3.5-3.3c0-1.9,1.5-3.3,3.5-3.3c2,0,3.5,1.4,3.5,3.3
				C855.5,1629.4,854,1630.7,852,1630.7z M852,1629.7c1.3,0,2.3-0.9,2.3-2.3c0-1.3-1-2.2-2.3-2.2c-1.3,0-2.3,0.9-2.3,2.2
				C849.7,1628.7,850.7,1629.7,852,1629.7z M859.6,1635.3v1h-9.1v-4.3h1.2v3.3H859.6z M859.2,1633H858v-9.8h1.2V1633z"/>
			<path class="st5" d="M869.5,1630.5c-1.5-0.6-2.8-1.7-3.4-3.2c-0.6,1.6-1.8,2.8-3.4,3.4l-0.6-1c2-0.7,3.4-2.6,3.4-4.6v-1.3h1.2
				v1.3c0,1.9,1.4,3.7,3.4,4.4L869.5,1630.5z M864,1631.9h9v4.7h-1.2v-3.7H864V1631.9z M873,1623.2v8.1h-1.2v-8.1H873z"/>
		</g>
		<g class="st0">
			<path class="st5" d="M1036.4,1620.4c2.2,0,4.2-0.1,6.5-0.5l0.1,1c-2.4,0.4-4.5,0.5-6.8,0.5h-1.1v-5.2h5v-2.8h-5v-1h6.2v4.8h-5
				V1620.4z M1045.4,1611.1v13.5h-1.2v-13.5H1045.4z"/>
			<path class="st5" d="M1060.3,1621.8v1h-12.2v-1H1060.3z M1059.2,1618.9c-2-0.5-4.1-1.9-5-3.9c-0.9,2-3,3.4-5,3.9l-0.6-1
				c2.4-0.5,4.9-2.5,4.9-4.8v-1h1.3v1c0,2.3,2.5,4.3,4.9,4.8L1059.2,1618.9z"/>
			<path class="st5" d="M1074.1,1621.7v1H1062v-1H1074.1z M1071.4,1616.3c0-0.7,0-1.4,0-2.1v-0.6h-8v-1h9.2v1.6c0,2,0,3.8-0.6,6.6
				l-1.2-0.1c0.3-1.3,0.4-2.4,0.5-3.4l-8.1,0.4l-0.2-1L1071.4,1616.3z"/>
			<path class="st5" d="M1091.3,1618.3v1h-5.4v2.6h-1.2v-2.6h-5.6v-1H1091.3z M1081.9,1623.3h8.1v1h-9.3v-3.7h1.2V1623.3z
				 M1089.7,1617h-9v-5.4h1.2v1.7h6.5v-1.7h1.2V1617z M1088.5,1614.2h-6.5v1.7h6.5V1614.2z"/>
			<path class="st5" d="M1100.1,1618.5c-1.5-0.6-2.6-1.7-3.2-3.1c-0.6,1.6-1.8,2.8-3.3,3.4l-0.6-1c2-0.7,3.3-2.6,3.3-4.6v-1.4h1.2
				v1.5c0,1.8,1.3,3.6,3.3,4.3L1100.1,1618.5z M1095,1619.9h9v4.8h-1.2v-3.8h-7.8V1619.9z M1104,1611.2v7.9h-1.2v-4.1h-2.9v-1h2.9
				v-2.8H1104z"/>
			<path class="st5" d="M1117.1,1617.5h-6.3v-5.5h6.3V1617.5z M1117.5,1620.7c0,1.3,2.1,2.6,4.4,2.9l-0.4,0.9
				c-2-0.3-3.8-1.2-4.6-2.5c-0.8,1.3-2.7,2.2-4.7,2.5l-0.4-0.9c2.3-0.3,4.4-1.5,4.5-2.9h-3.9v-0.9h3.9v-1.3h1.2v1.3h3.9v0.9H1117.5z
				 M1115.9,1613h-3.9v3.5h3.9V1613z M1121.1,1618.9h-1.2v-7.7h1.2V1618.9z"/>
		</g>
		<g class="st0">
			<path class="st5" d="M1041.3,1643.8h-5.5v4.8h-1.2v-4.8h-5.4v-1h12.1L1041.3,1643.8z M1029.9,1640.7c2.3-0.3,4.7-1.9,4.7-3.7
				v-0.1h-4.2v-1h9.8v1h-4.2v0.1c0,1.8,2.3,3.3,4.7,3.7l-0.5,1c-2.1-0.4-4.1-1.5-4.9-3.1c-0.8,1.6-2.8,2.7-4.9,3.1L1029.9,1640.7z"
				/>
			<path class="st5" d="M1055.1,1645.9v1h-12.2v-1h3v-3.6c-1.1-0.6-1.8-1.6-1.8-2.8c0-2.1,2-3.4,4.9-3.4c2.9,0,4.9,1.3,4.9,3.4
				c0,1.2-0.7,2.2-1.8,2.8v3.6H1055.1z M1045.3,1639.5c0,1.5,1.5,2.5,3.7,2.5c2.2,0,3.7-1,3.7-2.5s-1.6-2.5-3.7-2.5
				C1046.8,1637,1045.3,1638,1045.3,1639.5z M1047.1,1645.9h3.8v-3.2c-0.6,0.1-1.2,0.2-1.9,0.2c-0.7,0-1.3-0.1-1.9-0.2V1645.9z"/>
			<path class="st5" d="M1062.1,1644.4c2.2,0,4.2-0.1,6.5-0.5l0.1,1c-2.4,0.4-4.5,0.5-6.8,0.5h-1.1v-5.2h5v-2.8h-5v-1h6.2v4.8h-5
				V1644.4z M1071.1,1635.1v13.5h-1.2v-13.5H1071.1z"/>
			<path class="st5" d="M1086.1,1645.8v1h-12.2v-1H1086.1z M1084.9,1642.9c-2-0.5-4.1-1.9-5-3.9c-0.9,2-3,3.4-5,3.9l-0.6-1
				c2.4-0.5,4.9-2.5,4.9-4.8v-1h1.3v1c0,2.3,2.5,4.3,4.9,4.8L1084.9,1642.9z"/>
			<path class="st5" d="M1099.9,1645.7v1h-12.2v-1H1099.9z M1097.1,1640.3c0-0.7,0-1.4,0-2.1v-0.6h-8v-1h9.2v1.6c0,2,0,3.8-0.6,6.6
				l-1.2-0.1c0.3-1.3,0.4-2.4,0.5-3.4l-8.1,0.4l-0.2-1L1097.1,1640.3z"/>
			<path class="st5" d="M1117.1,1645.9v1h-12.2v-1h5.5v-3.5h-3.9v-6.2h9.1v1h-7.9v4.2h8v1h-4.1v3.5H1117.1z"/>
			<path class="st5" d="M1125.4,1642.1v1.2h3.9v2.9h-7.9v1.3h8.3v0.9h-9.5v-3.1h7.9v-1.1h-7.9v-0.9h4v-1.2h-5.4v-0.9h12.1v0.9
				H1125.4z M1119.3,1639.6c2.5-0.2,4.5-1,4.8-2.3h-4.2v-0.9h4.2v-1.3h1.2v1.3h4.2v0.9h-4.1c0.2,1.3,2.2,2.2,4.7,2.3l-0.4,0.9
				c-2.2-0.2-4.2-0.9-5.1-2.1c-0.8,1.2-2.8,1.9-5.1,2.1L1119.3,1639.6z"/>
		</g>
		<g class="st0">
			<path class="st5" d="M1292.8,1620.4c2.2,0,4.2-0.1,6.5-0.5l0.1,1c-2.4,0.4-4.5,0.5-6.8,0.5h-1.1v-5.2h5v-2.8h-5v-1h6.2v4.8h-5
				V1620.4z M1301.9,1611.1v13.5h-1.2v-13.5H1301.9z"/>
			<path class="st5" d="M1316.8,1621.8v1h-12.2v-1H1316.8z M1315.7,1618.9c-2-0.5-4.1-1.9-5-3.9c-0.9,2-3,3.4-5,3.9l-0.6-1
				c2.4-0.5,4.9-2.5,4.9-4.8v-1h1.3v1c0,2.3,2.5,4.3,4.9,4.8L1315.7,1618.9z"/>
			<path class="st5" d="M1330.6,1621.7v1h-12.2v-1H1330.6z M1327.9,1616.3c0-0.7,0-1.4,0-2.1v-0.6h-8v-1h9.2v1.6c0,2,0,3.8-0.6,6.6
				l-1.2-0.1c0.3-1.3,0.5-2.4,0.5-3.4l-8.1,0.4l-0.2-1L1327.9,1616.3z"/>
			<path class="st5" d="M1342.3,1617.7h-6.1v-5.9h1.2v1.9h3.6v-1.9h1.2v1.3h3.1v-1.9h1.2v7h-1.2v-1.7h-3.1V1617.7z M1341.1,1614.7
				h-3.6v2h3.6V1614.7z M1347.2,1623.5v1h-9.1v-3.3h7.4v-1.3h-7.5v-1h8.7v3.2h-7.4v1.4H1347.2z M1342.3,1614v1.5h3.1v-1.5H1342.3z"
				/>
		</g>
		<g class="st0">
			<path class="st5" d="M1285.5,1642.6c-2.8,0.5-6,0.5-8.4,0.5l-0.1-1c0.9,0,1.8,0,2.8,0v-2.9h1.2v2.9c1.5-0.1,3-0.2,4.4-0.4
				L1285.5,1642.6z M1282.9,1640.8c0.3-1.5,0.4-2.7,0.4-3.6h-5.5v-1h6.7v0.7c0,0.9,0,2.2-0.3,4L1282.9,1640.8z M1280.2,1647.3h7.7v1
				h-8.9v-3.9h1.2V1647.3z M1289.4,1639.5v1h-1.9v4.7h-1.2v-10.1h1.2v4.4H1289.4z"/>
			<path class="st5" d="M1292.8,1644.4c2.2,0,4.2-0.1,6.5-0.5l0.1,1c-2.4,0.4-4.5,0.5-6.8,0.5h-1.1v-5.2h5v-2.8h-5v-1h6.2v4.8h-5
				V1644.4z M1301.9,1635.1v13.5h-1.2v-13.5H1301.9z"/>
			<path class="st5" d="M1314.8,1642.2h-6.2v-6.2h1.2v2h3.8v-2h1.2V1642.2z M1318.6,1646.1c0,1.6-1.7,2.5-4.4,2.5
				c-2.7,0-4.4-0.9-4.4-2.5c0-1.6,1.7-2.5,4.4-2.5C1316.9,1643.6,1318.6,1644.5,1318.6,1646.1z M1313.6,1639h-3.8v2.2h3.8V1639z
				 M1317.4,1646.1c0-1-1.2-1.5-3.2-1.5c-2,0-3.2,0.6-3.2,1.5s1.2,1.5,3.2,1.5C1316.1,1647.6,1317.4,1647.1,1317.4,1646.1z
				 M1320.4,1638.5v1h-2v3.7h-1.2v-8.1h1.2v3.4H1320.4z"/>
			<path class="st5" d="M1325.6,1642.7c-2,0-3.5-1.4-3.5-3.3c0-1.9,1.5-3.3,3.5-3.3s3.5,1.4,3.5,3.3
				C1329.1,1641.4,1327.6,1642.7,1325.6,1642.7z M1325.6,1641.7c1.3,0,2.3-0.9,2.3-2.2c0-1.3-1-2.2-2.3-2.2s-2.3,0.9-2.3,2.2
				C1323.2,1640.7,1324.2,1641.7,1325.6,1641.7z M1325.1,1647.3h7.7v1h-9v-4.3h1.2V1647.3z M1334.2,1639.3v1h-2v4.8h-1.2v-9.9h1.2
				v4.1H1334.2z"/>
			<path class="st5" d="M1351.1,1643.8h-5.5v4.9h-1.2v-4.9h-5.4v-1h12.1L1351.1,1643.8z M1350,1641.3c-2.1-0.4-4.1-1.5-5-3.2
				c-0.8,1.6-2.9,2.8-5,3.2l-0.5-1c2.4-0.4,4.8-2,4.8-3.9v-0.8h1.3v0.8c0,1.9,2.4,3.5,4.8,3.9L1350,1641.3z"/>
			<path class="st5" d="M1361.1,1641.8c-2.2,0.4-4,0.4-6.5,0.4h-1.1v-3.8h4.9v-1.7h-4.9v-1h6.1v3.6h-4.9v1.8c2.4,0,4.1-0.1,6.3-0.4
				L1361.1,1641.8z M1362.6,1643.2h1.2v5.2h-8.7v-5.2h1.2v1.6h6.3V1643.2z M1362.6,1645.8h-6.3v1.6h6.3V1645.8z M1363.8,1635.2v7.4
				h-1.2v-7.4H1363.8z"/>
		</g>
		<g class="st0">
			<path class="st5" d="M1521.3,1633.9v1h-12.2v-1h5.5v-3.3h-4v-6.3h9.3v6.3h-4v3.3H1521.3z M1511.8,1629.6h6.9v-4.4h-6.9V1629.6z"
				/>
			<path class="st5" d="M1525,1632.1c2,0,4.1-0.2,6.3-0.6l0.1,1c-2.3,0.5-4.5,0.6-6.6,0.6h-1.1v-8.7h1.2V1632.1z M1534,1623.2v13.4
				h-1.2v-13.4H1534z"/>
			<path class="st5" d="M1538.6,1632.4c2.4,0,4-0.1,5.8-0.4l0.1,1c-2,0.3-3.6,0.4-6.2,0.4h-1v-9h6.2v1h-5v2.8h4.4v1h-4.4V1632.4z
				 M1547.8,1623.1v13.5h-1.2v-7.4h-2.8v-1h2.8v-5.1H1547.8z"/>
			<path class="st5" d="M1558.8,1630.2c-2.2,0.4-4,0.4-6.5,0.4h-1.1v-3.8h4.9v-1.8h-4.9v-1h6.1v3.7h-4.9v1.9c2.4,0,4.1-0.1,6.3-0.4
				L1558.8,1630.2z M1561.6,1634.2c0,1.6-1.7,2.4-4.5,2.4c-2.8,0-4.5-0.9-4.5-2.4c0-1.5,1.7-2.4,4.5-2.4
				C1559.9,1631.7,1561.6,1632.6,1561.6,1634.2z M1560.4,1634.2c0-0.9-1.2-1.5-3.3-1.5c-2,0-3.3,0.5-3.3,1.5c0,0.9,1.2,1.5,3.3,1.5
				C1559.2,1635.6,1560.4,1635.1,1560.4,1634.2z M1561.6,1631.4h-1.2v-8.3h1.2V1631.4z"/>
			<path class="st5" d="M1574.7,1629.5h-6.3v-5.5h6.3V1629.5z M1575.1,1632.7c0,1.3,2.1,2.6,4.4,2.9l-0.4,0.9
				c-2-0.3-3.8-1.2-4.6-2.5c-0.8,1.3-2.7,2.2-4.7,2.5l-0.4-0.9c2.3-0.3,4.4-1.5,4.5-2.9h-3.9v-0.9h3.9v-1.3h1.2v1.3h3.9v0.9H1575.1z
				 M1573.5,1625h-3.9v3.5h3.9V1625z M1578.7,1630.9h-1.2v-7.7h1.2V1630.9z"/>
			<path class="st5" d="M1586.5,1632.3c1.8,0,3.1-0.1,4.5-0.4l0.1,1c-1.6,0.3-3,0.4-5,0.4h-0.9v-8.5h5v1h-3.8V1632.3z
				 M1596.3,1623.2v13.5h-1.2v-7h-1.9v6.4h-1.2v-12.5h1.2v5.1h1.9v-5.4H1596.3z"/>
			<path class="st5" d="M1610.8,1629.7v1h-12.1v-1H1610.8z M1609.5,1626.1c0,1.6-1.8,2.5-4.7,2.5c-2.9,0-4.7-0.9-4.7-2.5
				c0-1.6,1.8-2.6,4.7-2.6C1607.6,1623.5,1609.5,1624.4,1609.5,1626.1z M1609.3,1634.2c0,1.5-1.7,2.4-4.6,2.4
				c-2.9,0-4.6-0.9-4.6-2.4c0-1.5,1.7-2.4,4.6-2.4C1607.6,1631.8,1609.3,1632.7,1609.3,1634.2z M1601.3,1626.1c0,1,1.3,1.6,3.5,1.6
				s3.5-0.6,3.5-1.6c0-1-1.3-1.6-3.5-1.6S1601.3,1625.1,1601.3,1626.1z M1601.4,1634.2c0,0.9,1.2,1.4,3.4,1.4c2.1,0,3.4-0.5,3.4-1.4
				s-1.2-1.5-3.4-1.5C1602.6,1632.8,1601.4,1633.3,1601.4,1634.2z"/>
		</g>
		<g id="그룹_4228" transform="translate(1054 1537.021)">
			<g>
				<defs>
					<rect id="SVGID_3_" y="0" width="52.8" height="52.9"/>
				</defs>
				<clipPath id="SVGID_4_">
					<use xlink:href="#SVGID_3_"  style="overflow:visible;"/>
				</clipPath>
				<g id="그룹_4224" class="st6">
					<g id="그룹_4223" transform="translate(0.535 0.536)">
						<path id="패스_1847" class="st7" d="M38.3,51.8v-1.6l-6.6-6.6H26v8.2h-0.2v-8.2h-5.7l-6.6,6.6v1.6h-0.2v-1.7l6.5-6.5H0V0
							h51.7v43.5H31.9l6.5,6.5v1.7L38.3,51.8z M0.2,43.4h51.4V3.5H0.2V43.4z M0.2,3.3h51.4V0.2H0.2V3.3z"/>
					</g>
				</g>
			</g>
			<g id="그룹_4225" transform="translate(3.127 11.436)">
				<path id="패스_1849" class="st7" d="M44.6,25.7v-1.3h-5v1.3h-0.2v-1.3h-5v1.3h-0.2v-1.3h-5v1.3h-0.2v-1.3h-5v1.3H24v-1.3h-5
					v1.3h-0.2v-1.3h-5v1.3h-0.2v-1.3h-5v1.3H8.6v-1.3h-5v1.3H3.4v-1.3H0v-0.2h44.6V0h1.9v0.2h-1.7V4h1.7v0.2h-1.7v3.9h1.7v0.2h-1.7
					v3.9h1.7v0.2h-1.7v3.9h1.7v0.2h-1.7v3.9h1.7v0.2h-1.7v3.9h1.7v0.2h-1.7v1.3H44.6z"/>
			</g>
			<g>
				<defs>
					<rect id="SVGID_5_" y="0" width="52.8" height="52.9"/>
				</defs>
				<clipPath id="SVGID_6_">
					<use xlink:href="#SVGID_5_"  style="overflow:visible;"/>
				</clipPath>
				<g id="그룹_4227" class="st8">
					<g id="그룹_4226" transform="translate(5.186 12.09)">
						<path id="패스_1850" class="st7" d="M2,21.3c-1.1,0-2-0.9-2-2s0.9-2,2-2c0.2,0,0.4,0,0.6,0.1l0.5,0.2l3.6-5.1l-0.3-0.4
							c-0.3-0.3-0.4-0.8-0.5-1.2c0-1.1,0.9-2,2-2c1.1,0,2,0.9,2,2c0,0.2,0,0.4-0.1,0.6l-0.2,0.5l2.7,2.3l0.5-0.3
							c0.5-0.3,1.2-0.4,1.7-0.2l0.5,0.2l5.8-7.1l-0.3-0.4c-0.2-0.3-0.3-0.7-0.3-1.1c0-1.1,0.9-2,2-2c1.1,0,2,0.9,2,2l0,0.5l0.5,0.3
							l4,1.5l0.3-0.4c0.4-0.5,0.9-0.8,1.6-0.8c0.4,0,0.7,0.1,1,0.3l0.5,0.3l6.7-6.8h-2.4V0h2.7v2.7h-0.2V0.3L32,7.1l0.2,0.5
							c0.1,0.2,0.2,0.5,0.2,0.8c0,1.1-0.9,2-2,2c-1.1,0-2-0.9-2-2l0-0.5l-0.5-0.2l-4-1.5l-0.3,0.4c-0.4,0.5-0.9,0.8-1.5,0.8
							c-0.2,0-0.5,0-0.7-0.1l-0.5-0.2L15.1,14l0.3,0.5c0.6,0.9,0.3,2.1-0.6,2.7c-0.9,0.6-2.1,0.3-2.7-0.6c-0.2-0.3-0.3-0.7-0.3-1.1
							c0-0.3,0-0.5,0.1-0.7l0.2-0.5l-2.6-2.3L9,12.4c-0.3,0.2-0.7,0.4-1.2,0.4c-0.2,0-0.4,0-0.5-0.1l-0.5-0.1l-3.6,5.1l0.3,0.4
							c0.3,0.3,0.4,0.8,0.4,1.2C3.9,20.4,3.1,21.3,2,21.3C2,21.3,2,21.3,2,21.3z M2,17.5c-0.2,0-0.4,0-0.6,0.1C0.5,18,0,19,0.3,19.9
							s1.3,1.4,2.3,1.1c0.7-0.3,1.2-0.9,1.2-1.7v-0.1l0-0.1C3.7,18.2,2.9,17.5,2,17.5L2,17.5z M13.8,13.8c-1,0-1.8,0.8-1.8,1.8
							c0,0.2,0,0.3,0.1,0.4c0.2,0.7,0.8,1.2,1.5,1.3l0.1,0h0.1c0.1,0,0.3,0,0.4-0.1c0.7-0.2,1.3-0.8,1.4-1.6l0,0v-0.1
							C15.5,14.6,14.7,13.8,13.8,13.8z M7.6,9.1C6.7,9.2,6.1,10,6.1,10.8v0.1l0,0.2C6.3,12,7,12.6,7.9,12.6c1,0,1.8-0.8,1.8-1.8
							c0-0.4-0.2-0.8-0.5-1.2L8.9,9.4C8.6,9.2,8.3,9,7.9,9H7.8L7.6,9.1z M30.4,6.5c-0.2,0-0.4,0-0.6,0.1c-0.7,0.2-1.2,0.9-1.2,1.7
							c0,0.4,0.1,0.7,0.4,1c0.3,0.5,0.9,0.7,1.4,0.7c0.1,0,0.2,0,0.4-0.1c0.3-0.1,0.6-0.2,0.9-0.5c0.3-0.3,0.5-0.8,0.5-1.3
							c0-0.9-0.7-1.6-1.5-1.8l-0.1,0L30.4,6.5z M22.1,3.5c-0.9,0-1.7,0.7-1.8,1.7C20.2,6.2,21,7,22,7.1c0,0,0.1,0,0.1,0
							c0.1,0,0.2,0,0.4-0.1c0.8-0.2,1.4-0.9,1.4-1.7c0-0.4-0.1-0.7-0.3-1C23.2,3.8,22.7,3.5,22.1,3.5z"/>
					</g>
				</g>
			</g>
		</g>
		<g id="그룹_4215" transform="translate(1294 1530.945)">
			<g>
				<defs>
					<rect id="SVGID_7_" y="4" width="53.5" height="60.4"/>
				</defs>
				<clipPath id="SVGID_8_">
					<use xlink:href="#SVGID_7_"  style="overflow:visible;"/>
				</clipPath>
				<g id="그룹_4210" transform="translate(0 4)" class="st9">
					<g id="그룹_4208" transform="translate(13.802 10.987)">
						<path id="패스_1834" class="st4" d="M36.7,49.4v-5.1c0-0.1,0-0.1,0.1-0.2c1.5-4.4,2.3-9,2.3-13.6v-6.6
							c0.1-1.2-0.7-2.3-1.9-2.6c-1.3-0.1-2.4,0.8-2.6,2.1c0,0.1,0,0.3,0,0.4v1.7l0-3.2c0.1-1.3-0.8-2.4-2-2.6
							c-1.3-0.1-2.4,0.9-2.4,2.1c0,0.1,0,0.1,0,0.2v0.2c0.1-1.1-0.6-2.1-1.6-2.5c-1.3-0.3-2.6,0.5-2.9,1.7c-0.1,0.2-0.1,0.5-0.1,0.7
							v-6.6c0.1-1.1-0.6-2.2-1.7-2.6c-1.2-0.3-2.5,0.4-2.8,1.7c-0.1,0.3-0.1,0.5-0.1,0.8v10.1c0.1-2-1.4-3.7-3.3-3.8h-1.1v10.1
							c0,2.5,0.7,4.9,2.1,6.9l3,4.7c0.3,0.4,0.5,0.9,0.5,1.5v4.7 M0,0h29 M29,7.6H4.5 M17.9,16.5H4.5 M13.4,25.3H4.5"/>
					</g>
					<g id="그룹_4209" transform="translate(0.599 0.609)">
						<path id="패스_1835" class="st10" d="M27.2,46.9H2.3C1,46.8-0.1,45.7,0,44.4v-42C-0.1,1.2,1,0.1,2.3,0h45.3
							c1.3,0.1,2.3,1.2,2.3,2.5v23.5 M26.1,42H4.5v-37h40.8v21"/>
					</g>
				</g>
			</g>
			<g id="그룹_4211" transform="translate(10.194 8.898)">
				<path id="패스_1837" class="st4" d="M0,0h2"/>
			</g>
			<g>
				<defs>
					<rect id="SVGID_9_" y="0" width="53.5" height="60.4"/>
				</defs>
				<clipPath id="SVGID_10_">
					<use xlink:href="#SVGID_9_"  style="overflow:visible;"/>
				</clipPath>
				<g id="그룹_4214" class="st11">
					<g id="그룹_4212" transform="translate(10.304 16.282)">
						<path id="패스_1838" class="st4" d="M5.1,2.6C5.1,4,4,5.1,2.6,5.1C1.1,5.1,0,4,0,2.6C0,1.2,1.1,0,2.6,0C4,0,5.1,1.2,5.1,2.6
							z"/>
					</g>
					<g id="그룹_4213" transform="translate(10.304 24.946)">
						<path id="패스_1839" class="st4" d="M5.1,2.6C5.1,4,4,5.1,2.6,5.1C1.1,5.1,0,4,0,2.6C0,1.2,1.1,0,2.6,0C4,0,5.1,1.2,5.1,2.6
							z"/>
					</g>
				</g>
			</g>
		</g>
		<g id="그룹_4222" transform="translate(1531 1537.271)">
			<g>
				<defs>
					<rect id="SVGID_11_" y="0" width="57.3" height="53.6"/>
				</defs>
				<clipPath id="SVGID_12_">
					<use xlink:href="#SVGID_11_"  style="overflow:visible;"/>
				</clipPath>
				<g id="그룹_4221" transform="translate(0 0)" class="st12">
					<g id="그룹_4216" transform="translate(2.245 0.613)">
						<path id="패스_1841" class="st4" d="M54.4,18.2v17.2 M0,35.3V6.8c0-1.3,1.1-2.3,2.4-2.3h20.1 M54.4,38.7v3.4
							c0,1.3-1.1,2.3-2.4,2.3H2.4c-1.3,0-2.3-1-2.4-2.3v-3.4h22.5 M21.3,44.4v1.1l-1.2,5.7v1.1 M33.1,44.4v1.1l1.2,5.7v1.1
							 M16.6,52.4h21.3 M37.9,2.3C37.9,1,38.9,0,40.2,0h11.8c1.3,0,2.3,1,2.4,2.3v22.8c0,1.3-1.1,2.3-2.4,2.3H40.2
							c-1.3,0-2.3-1-2.4-2.3L37.9,2.3z"/>
					</g>
					<g id="그룹_4217" transform="translate(47.737 21.938)">
						<path id="패스_1842" class="st4" d="M2.7,1.3c0,0.7-0.6,1.3-1.4,1.3c0,0,0,0,0,0C0.6,2.6,0,2.1,0,1.3C0,0.6,0.6,0,1.4,0
							c0,0,0,0,0,0C2.1,0,2.7,0.6,2.7,1.3C2.7,1.3,2.7,1.3,2.7,1.3z"/>
					</g>
					<g id="그룹_4218" transform="translate(29.246 5.352)">
						<path id="패스_1843" class="st4" d="M22.5,25.6v5.6c0,1.2-1,2.2-2.3,2.2h-18c-1.2,0-2.2-1-2.3-2.2v-29C0,1,1,0,2.3,0h5.6"/>
					</g>
					<g id="그룹_4219" transform="translate(39.145 33.788)">
						<path id="패스_1844" class="st4" d="M2.7,1.3c0,0.7-0.6,1.3-1.4,1.3c0,0,0,0,0,0C0.6,2.6,0,2.1,0,1.3C0,0.6,0.6,0,1.4,0
							c0,0,0,0,0,0C2.1,0,2.7,0.6,2.7,1.3C2.7,1.3,2.7,1.3,2.7,1.3z"/>
					</g>
					<g id="그룹_4220" transform="translate(0 7.942)">
						<path id="패스_1845" class="st4" d="M0,28.7h6l4.8-4.4h2.4l4.8,4.4h2.4L51.8,0 M46.9,0h4.8v4.4"/>
					</g>
				</g>
			</g>
		</g>
		<path id="패스_1855" class="st1" d="M965.2,1559.8l-10.6-5.6l-1.3-0.7v14.1l1.2-0.7l10.7-5.6l1.4-0.8L965.2,1559.8z"/>
		<path id="패스_2773" class="st1" d="M1207.2,1559.8l-10.6-5.6l-1.3-0.7v14.1l1.2-0.7l10.7-5.6l1.4-0.8L1207.2,1559.8z"/>
		<path id="패스_2774" class="st1" d="M1447.2,1559.8l-10.6-5.6l-1.3-0.7v14.1l1.2-0.7l10.7-5.6l1.4-0.8L1447.2,1559.8z"/>
		<path id="패스_2802" class="st1" d="M740,1450h200v50H740V1450z"/>
		<rect id="사각형_307" x="980" y="1450" class="st1" width="200" height="50"/>
		<rect id="사각형_307-2" x="1221" y="1450" class="st1" width="200" height="50"/>
		<rect id="사각형_307-3" x="1460" y="1450" class="st1" width="200" height="50"/>
		<g class="st0">
			<path class="st2" d="M819.8,1480.7c-0.7-0.3-1.2-0.7-1.6-1.2c-0.4-0.5-0.6-1.2-0.6-1.9h2.9c0,0.4,0.2,0.7,0.4,1
				c0.2,0.2,0.6,0.3,1,0.3c0.4,0,0.7-0.1,1-0.3c0.2-0.2,0.4-0.4,0.4-0.8c0-0.3-0.1-0.5-0.3-0.7c-0.2-0.2-0.4-0.3-0.7-0.4
				c-0.3-0.1-0.7-0.2-1.2-0.4c-0.7-0.2-1.3-0.4-1.8-0.7c-0.5-0.2-0.9-0.6-1.2-1c-0.3-0.4-0.5-1-0.5-1.7c0-1,0.4-1.9,1.1-2.5
				s1.7-0.9,3-0.9c1.2,0,2.2,0.3,3,0.9s1.2,1.4,1.2,2.5h-3c0-0.4-0.2-0.6-0.4-0.9c-0.2-0.2-0.6-0.3-0.9-0.3c-0.3,0-0.6,0.1-0.8,0.3
				c-0.2,0.2-0.3,0.4-0.3,0.8c0,0.4,0.2,0.6,0.5,0.8c0.3,0.2,0.9,0.4,1.6,0.7c0.7,0.2,1.3,0.5,1.8,0.7c0.5,0.2,0.8,0.5,1.2,1
				s0.5,1,0.5,1.6c0,0.6-0.2,1.2-0.5,1.7c-0.3,0.5-0.8,0.9-1.4,1.2c-0.6,0.3-1.3,0.5-2.2,0.5C821.2,1481.1,820.5,1481,819.8,1480.7z
				"/>
			<path class="st2" d="M835.9,1469.8v2.2h-3v9h-2.7v-9h-3v-2.2H835.9z"/>
			<path class="st2" d="M840,1472v2.3h3.7v2.1H840v2.5h4.1v2.2h-6.9v-11.2h6.9v2.2H840z"/>
			<path class="st2" d="M854.1,1475.2c-0.3,0.5-0.8,1-1.4,1.3c-0.6,0.3-1.4,0.5-2.3,0.5h-1.7v4h-2.7v-11.2h4.4
				c0.9,0,1.7,0.2,2.3,0.5c0.6,0.3,1.1,0.7,1.4,1.3s0.5,1.2,0.5,1.9C854.5,1474,854.4,1474.6,854.1,1475.2z M851.3,1474.4
				c0.3-0.2,0.4-0.6,0.4-1s-0.1-0.8-0.4-1c-0.3-0.2-0.6-0.4-1.2-0.4h-1.5v2.8h1.5C850.7,1474.8,851.1,1474.7,851.3,1474.4z"/>
			<path class="st2" d="M858.8,1471.9v-2.5h4.4v11.7h-2.8v-9.1H858.8z"/>
		</g>
		<g class="st0">
			<path class="st2" d="M1057.8,1480.7c-0.7-0.3-1.2-0.7-1.6-1.2c-0.4-0.5-0.6-1.2-0.6-1.9h2.9c0,0.4,0.2,0.7,0.4,1
				c0.2,0.2,0.6,0.3,1,0.3c0.4,0,0.7-0.1,1-0.3c0.2-0.2,0.4-0.4,0.4-0.8c0-0.3-0.1-0.5-0.3-0.7c-0.2-0.2-0.4-0.3-0.7-0.4
				c-0.3-0.1-0.7-0.2-1.2-0.4c-0.7-0.2-1.3-0.4-1.8-0.7c-0.5-0.2-0.9-0.6-1.2-1c-0.3-0.4-0.5-1-0.5-1.7c0-1,0.4-1.9,1.1-2.5
				s1.7-0.9,3-0.9c1.2,0,2.2,0.3,3,0.9s1.2,1.4,1.2,2.5h-3c0-0.4-0.2-0.6-0.4-0.9c-0.2-0.2-0.6-0.3-0.9-0.3c-0.3,0-0.6,0.1-0.8,0.3
				c-0.2,0.2-0.3,0.4-0.3,0.8c0,0.4,0.2,0.6,0.5,0.8c0.3,0.2,0.9,0.4,1.6,0.7c0.7,0.2,1.3,0.5,1.8,0.7c0.5,0.2,0.8,0.5,1.2,1
				s0.5,1,0.5,1.6c0,0.6-0.2,1.2-0.5,1.7c-0.3,0.5-0.8,0.9-1.4,1.2c-0.6,0.3-1.3,0.5-2.2,0.5
				C1059.2,1481.1,1058.5,1481,1057.8,1480.7z"/>
			<path class="st2" d="M1073.9,1469.8v2.2h-3v9h-2.7v-9h-3v-2.2H1073.9z"/>
			<path class="st2" d="M1078,1472v2.3h3.7v2.1h-3.7v2.5h4.1v2.2h-6.9v-11.2h6.9v2.2H1078z"/>
			<path class="st2" d="M1092.1,1475.2c-0.3,0.5-0.8,1-1.4,1.3c-0.6,0.3-1.4,0.5-2.3,0.5h-1.7v4h-2.7v-11.2h4.4
				c0.9,0,1.7,0.2,2.3,0.5c0.6,0.3,1.1,0.7,1.4,1.3s0.5,1.2,0.5,1.9C1092.5,1474,1092.4,1474.6,1092.1,1475.2z M1089.3,1474.4
				c0.3-0.2,0.4-0.6,0.4-1s-0.1-0.8-0.4-1c-0.3-0.2-0.6-0.4-1.2-0.4h-1.5v2.8h1.5C1088.7,1474.8,1089.1,1474.7,1089.3,1474.4z"/>
			<path class="st2" d="M1097.4,1478.4c1-0.9,1.9-1.6,2.5-2.1s1.1-1.1,1.5-1.7c0.4-0.6,0.6-1.2,0.6-1.8c0-0.4-0.1-0.8-0.3-1
				s-0.5-0.4-0.9-0.4s-0.7,0.2-1,0.5c-0.2,0.3-0.3,0.7-0.3,1.3h-2.6c0-0.9,0.2-1.7,0.6-2.3c0.4-0.6,0.9-1.1,1.5-1.3s1.3-0.4,2-0.4
				c1.3,0,2.2,0.3,2.9,1c0.6,0.7,1,1.5,1,2.5c0,1.1-0.4,2.2-1.2,3.2c-0.8,1-1.8,1.9-3,2.9h4.3v2.2h-8v-2
				C1097.3,1478.5,1097.5,1478.4,1097.4,1478.4z"/>
		</g>
		<g class="st0">
			<path class="st2" d="M1298.8,1480.7c-0.7-0.3-1.2-0.7-1.6-1.2s-0.6-1.2-0.6-1.9h2.9c0,0.4,0.2,0.7,0.4,1c0.2,0.2,0.6,0.3,1,0.3
				c0.4,0,0.7-0.1,1-0.3c0.2-0.2,0.4-0.4,0.4-0.8c0-0.3-0.1-0.5-0.3-0.7c-0.2-0.2-0.4-0.3-0.7-0.4c-0.3-0.1-0.7-0.2-1.2-0.4
				c-0.7-0.2-1.3-0.4-1.8-0.7c-0.5-0.2-0.9-0.6-1.2-1c-0.3-0.4-0.5-1-0.5-1.7c0-1,0.4-1.9,1.1-2.5s1.7-0.9,3-0.9
				c1.2,0,2.2,0.3,3,0.9s1.2,1.4,1.2,2.5h-3c0-0.4-0.2-0.6-0.4-0.9c-0.2-0.2-0.6-0.3-0.9-0.3c-0.3,0-0.6,0.1-0.8,0.3
				c-0.2,0.2-0.3,0.4-0.3,0.8c0,0.4,0.2,0.6,0.5,0.8c0.3,0.2,0.9,0.4,1.6,0.7c0.7,0.2,1.3,0.5,1.8,0.7c0.5,0.2,0.8,0.5,1.2,1
				c0.3,0.4,0.5,1,0.5,1.6c0,0.6-0.2,1.2-0.5,1.7c-0.3,0.5-0.8,0.9-1.4,1.2c-0.6,0.3-1.3,0.5-2.2,0.5
				C1300.2,1481.1,1299.5,1481,1298.8,1480.7z"/>
			<path class="st2" d="M1314.9,1469.8v2.2h-3v9h-2.7v-9h-3v-2.2H1314.9z"/>
			<path class="st2" d="M1319,1472v2.3h3.7v2.1h-3.7v2.5h4.1v2.2h-6.9v-11.2h6.9v2.2H1319z"/>
			<path class="st2" d="M1333.1,1475.2c-0.3,0.5-0.8,1-1.4,1.3c-0.6,0.3-1.4,0.5-2.3,0.5h-1.7v4h-2.7v-11.2h4.4
				c0.9,0,1.7,0.2,2.3,0.5c0.6,0.3,1.1,0.7,1.4,1.3s0.5,1.2,0.5,1.9C1333.5,1474,1333.4,1474.6,1333.1,1475.2z M1330.3,1474.4
				c0.3-0.2,0.4-0.6,0.4-1s-0.1-0.8-0.4-1c-0.3-0.2-0.6-0.4-1.2-0.4h-1.5v2.8h1.5C1329.7,1474.8,1330.1,1474.7,1330.3,1474.4z"/>
			<path class="st2" d="M1339.3,1470c0.7-0.6,1.7-0.9,2.9-0.9c0.8,0,1.5,0.1,2.1,0.4c0.6,0.3,1,0.7,1.3,1.1c0.3,0.5,0.4,1,0.4,1.6
				c0,0.7-0.2,1.3-0.5,1.7c-0.4,0.4-0.8,0.7-1.2,0.9v0.1c0.6,0.2,1.1,0.5,1.4,1c0.4,0.5,0.5,1.1,0.5,1.8c0,0.7-0.2,1.2-0.5,1.8
				c-0.3,0.5-0.7,0.9-1.3,1.2c-0.6,0.3-1.3,0.4-2.1,0.4c-1.3,0-2.3-0.3-3.1-0.9c-0.8-0.6-1.2-1.6-1.2-2.8h2.7c0,0.5,0.1,0.8,0.4,1.1
				s0.6,0.4,1.1,0.4c0.4,0,0.7-0.1,1-0.4c0.2-0.2,0.3-0.6,0.3-1c0-0.5-0.2-0.9-0.5-1.1s-0.8-0.3-1.6-0.3h-0.5v-2.2h0.5
				c0.5,0,1-0.1,1.3-0.3s0.5-0.5,0.5-1c0-0.4-0.1-0.7-0.3-0.9c-0.2-0.2-0.5-0.3-0.9-0.3c-0.4,0-0.7,0.1-0.9,0.4
				c-0.2,0.2-0.3,0.5-0.3,0.9h-2.7C1338.2,1471.5,1338.6,1470.6,1339.3,1470z"/>
		</g>
		<g class="st0">
			<path class="st2" d="M1536.8,1480.7c-0.7-0.3-1.2-0.7-1.6-1.2s-0.6-1.2-0.6-1.9h2.9c0,0.4,0.2,0.7,0.4,1c0.2,0.2,0.6,0.3,1,0.3
				c0.4,0,0.7-0.1,1-0.3c0.2-0.2,0.4-0.4,0.4-0.8c0-0.3-0.1-0.5-0.3-0.7c-0.2-0.2-0.4-0.3-0.7-0.4c-0.3-0.1-0.7-0.2-1.2-0.4
				c-0.7-0.2-1.3-0.4-1.8-0.7c-0.5-0.2-0.9-0.6-1.2-1c-0.3-0.4-0.5-1-0.5-1.7c0-1,0.4-1.9,1.1-2.5s1.7-0.9,3-0.9
				c1.2,0,2.2,0.3,3,0.9s1.2,1.4,1.2,2.5h-3c0-0.4-0.2-0.6-0.4-0.9c-0.2-0.2-0.6-0.3-0.9-0.3c-0.3,0-0.6,0.1-0.8,0.3
				c-0.2,0.2-0.3,0.4-0.3,0.8c0,0.4,0.2,0.6,0.5,0.8c0.3,0.2,0.9,0.4,1.6,0.7c0.7,0.2,1.3,0.5,1.8,0.7c0.5,0.2,0.8,0.5,1.2,1
				c0.3,0.4,0.5,1,0.5,1.6c0,0.6-0.2,1.2-0.5,1.7c-0.3,0.5-0.8,0.9-1.4,1.2c-0.6,0.3-1.3,0.5-2.2,0.5
				C1538.2,1481.1,1537.5,1481,1536.8,1480.7z"/>
			<path class="st2" d="M1552.9,1469.8v2.2h-3v9h-2.7v-9h-3v-2.2H1552.9z"/>
			<path class="st2" d="M1557,1472v2.3h3.7v2.1h-3.7v2.5h4.1v2.2h-6.9v-11.2h6.9v2.2H1557z"/>
			<path class="st2" d="M1571.1,1475.2c-0.3,0.5-0.8,1-1.4,1.3c-0.6,0.3-1.4,0.5-2.3,0.5h-1.7v4h-2.7v-11.2h4.4
				c0.9,0,1.7,0.2,2.3,0.5c0.6,0.3,1.1,0.7,1.4,1.3s0.5,1.2,0.5,1.9C1571.5,1474,1571.4,1474.6,1571.1,1475.2z M1568.3,1474.4
				c0.3-0.2,0.4-0.6,0.4-1s-0.1-0.8-0.4-1c-0.3-0.2-0.6-0.4-1.2-0.4h-1.5v2.8h1.5C1567.7,1474.8,1568.1,1474.7,1568.3,1474.4z"/>
			<path class="st2" d="M1576.1,1478.9v-2.2l5.1-7.2h3.1v7.1h1.3v2.4h-1.3v2.1h-2.7v-2.1H1576.1z M1581.7,1472.5l-2.7,4.1h2.7
				V1472.5z"/>
		</g>
	</g>
</g>
</svg>
