<?xml version="1.0" encoding="utf-8"?>
<!-- Generator: Adobe Illustrator 25.1.0, SVG Export Plug-In . SVG Version: 6.00 Build 0)  -->
<svg version="1.1" id="레이어_1" xmlns="http://www.w3.org/2000/svg" xmlns:xlink="http://www.w3.org/1999/xlink" x="0px"
	 y="0px" viewBox="0 0 864.1 422.7" style="enable-background:new 0 0 864.1 422.7;" xml:space="preserve">
<style type="text/css">
	.st0{fill:none;}
	.st1{fill:#DBDBDB;}
	.st2{fill:#94989E;}
	.st3{enable-background:new    ;}
	.st4{fill:#FFFFFF;}
	.st5{fill:none;stroke:#2AA6D3;}
	.st6{fill:#2AA6D3;}
	.st7{fill:none;stroke:#9F9F9F;}
	.st8{fill:#555555;}
	.st9{fill:none;stroke:#9F9F9F;stroke-dasharray:3,3;}
</style>
<g id="그룹_5884" transform="translate(-20 -1554)">
	<g id="패스_5570" transform="translate(5591.001 -735.609)">
		<path class="st0" d="M-5571,2289.6h864.1v422.7H-5571V2289.6z"/>
		<path class="st1" d="M-5570,2290.6v420.7h862.1v-420.7H-5570 M-5571,2289.6h864.1v422.7H-5571V2289.6z"/>
	</g>
	<rect id="사각형_315" x="94.1" y="1575.7" class="st2" width="218.4" height="41.8"/>
	<rect id="사각형_316" x="339.8" y="1575.7" class="st2" width="218.4" height="41.8"/>
	<rect id="사각형_317" x="584.7" y="1575.7" class="st2" width="218.4" height="41.8"/>
	<g class="st3">
		<path class="st4" d="M170.6,1593.7c-0.7,1.9-2.5,3.2-5,3.9l-0.5-1.1c2.8-0.8,4.3-2.2,4.5-4h-3.9v-1.1h5.3c0,0.4,0,0.8-0.1,1.2h2.4
			v-2h1.3v6.9h-1.3v-1.4h-2.8v-1.1h2.8v-1.4L170.6,1593.7L170.6,1593.7z M174.7,1599.9c0,1.4-1.5,2.3-3.9,2.3s-3.9-0.9-3.9-2.3
			s1.5-2.3,3.9-2.3S174.7,1598.5,174.7,1599.9z M173.4,1599.9c0-0.8-1-1.3-2.6-1.3s-2.6,0.5-2.6,1.3s1,1.3,2.6,1.3
			C172.4,1601.2,173.4,1600.8,173.4,1599.9z"/>
		<path class="st4" d="M182.4,1595.9c-0.5,0.6-1.4,0.9-2.3,0.9c-1.8,0-3.1-1.2-3.1-2.8c0-1.7,1.3-2.8,3.1-2.8c1,0,1.8,0.4,2.3,0.9
			h2.8v-1.6h1.3v6.9h-1.3v-1.5H182.4z M180.1,1595.8c1,0,1.8-0.7,1.8-1.7s-0.8-1.7-1.8-1.7s-1.8,0.7-1.8,1.7
			C178.3,1595.1,179.1,1595.8,180.1,1595.8z M186.7,1600c0,1.4-1.5,2.3-4,2.3c-2.4,0-4-0.8-4-2.3c0-1.4,1.5-2.3,4-2.3
			C185.2,1597.8,186.7,1598.6,186.7,1600z M185.3,1600c0-0.8-1-1.2-2.6-1.2c-1.7,0-2.6,0.4-2.6,1.2c0,0.8,1,1.2,2.6,1.2
			C184.4,1601.3,185.3,1600.8,185.3,1600z M183.1,1593.3c0.1,0.2,0.1,0.5,0.1,0.8s0,0.5-0.1,0.8h2.2v-1.6L183.1,1593.3L183.1,1593.3
			z"/>
		<path class="st4" d="M196.1,1597.2c-2.4,0.4-5.2,0.5-7.3,0.5l-0.1-1.1c0.7,0,1.5,0,2.3,0v-2.4h1.3v2.4c1.2-0.1,2.5-0.1,3.6-0.3
			L196.1,1597.2z M193.7,1595.5c0.2-1.3,0.3-2.2,0.3-2.9h-4.6v-1.1h5.9v0.7c0,0.8,0,2-0.3,3.5L193.7,1595.5z M191.8,1601h6.6v1.1h-8
			v-3.5h1.4V1601z M199.7,1594.3v1.1h-1.6v4h-1.4v-8.8h1.4v3.7L199.7,1594.3L199.7,1594.3z"/>
		<path class="st4" d="M202.8,1598.4c1.9,0,3.5-0.1,5.3-0.4l0.1,1.1c-2,0.4-3.8,0.4-5.8,0.4h-1v-4.7h4.1v-2.2h-4.1v-1.1h5.5v4.4
			h-4.1V1598.4z M210.5,1590.6v11.8h-1.4v-11.8H210.5z"/>
		<path class="st4" d="M223.4,1598.5h-4.7v3.8h-1.3v-3.8h-4.6v-1.1h10.6V1598.5z M222.1,1596.2h-8v-5.1h1.3v1.5h5.4v-1.5h1.3V1596.2
			z M220.8,1593.6h-5.4v1.5h5.4V1593.6z"/>
		<path class="st4" d="M235.4,1596.7v1.1h-4.6v2.1h-1.3v-2.1h-4.8v-1.1H235.4z M227.4,1601h6.8v1.1H226v-3.2h1.3L227.4,1601
			L227.4,1601z M234,1595.7h-7.9v-4.7h1.3v1.4h5.2v-1.4h1.3L234,1595.7L234,1595.7z M232.7,1593.3h-5.2v1.3h5.2V1593.3z"/>
	</g>
	<g class="st3">
		<path class="st4" d="M407.4,1593.5c0,2.1,1.1,4.2,2.9,5.1l-0.8,1.1c-1.3-0.6-2.2-1.9-2.7-3.5c-0.5,1.6-1.5,3-2.8,3.7l-0.8-1.1
			c1.8-0.9,3-3.1,3-5.3v-1.9h1.3v1.9H407.4z M414.2,1596.3h-1.8v6h-1.3v-11.7h1.3v4.7h1.8V1596.3z"/>
		<path class="st4" d="M425,1590.6v6.3h-1.3v-2.5h-2.2c-0.2,1.3-1.4,2.2-3,2.2c-1.8,0-3.1-1.1-3.1-2.8c0-1.6,1.3-2.7,3.1-2.7
			c1.5,0,2.7,0.9,3,2.2h2.2v-2.7H425z M420.3,1593.8c0-1-0.8-1.6-1.8-1.6s-1.8,0.6-1.8,1.6s0.7,1.7,1.8,1.7
			C419.5,1595.5,420.3,1594.8,420.3,1593.8z M423.7,1597.4h1.3v4.7h-7.6v-4.7h1.3v1.3h5L423.7,1597.4L423.7,1597.4z M423.7,1599.8
			h-5v1.3h5V1599.8z"/>
		<path class="st4" d="M433.3,1590.9h1l-3.6,12.7h-1L433.3,1590.9z"/>
		<path class="st4" d="M443.7,1595.9c-0.5,0.6-1.4,0.9-2.3,0.9c-1.8,0-3.1-1.2-3.1-2.8c0-1.7,1.3-2.8,3.1-2.8c1,0,1.8,0.4,2.3,0.9
			h2.8v-1.6h1.3v6.9h-1.3v-1.5H443.7z M441.4,1595.8c1,0,1.8-0.7,1.8-1.7s-0.8-1.7-1.8-1.7s-1.8,0.7-1.8,1.7
			C439.6,1595.1,440.3,1595.8,441.4,1595.8z M447.9,1600c0,1.4-1.5,2.3-4,2.3c-2.4,0-4-0.8-4-2.3c0-1.4,1.5-2.3,4-2.3
			C446.4,1597.8,447.9,1598.6,447.9,1600z M446.6,1600c0-0.8-1-1.2-2.6-1.2c-1.7,0-2.6,0.4-2.6,1.2c0,0.8,1,1.2,2.6,1.2
			C445.6,1601.3,446.6,1600.8,446.6,1600z M444.3,1593.3c0.1,0.2,0.1,0.5,0.1,0.8s0,0.5-0.1,0.8h2.2v-1.6L444.3,1593.3L444.3,1593.3
			z"/>
		<path class="st4" d="M459.8,1590.6v6.3h-1.3v-2.5h-2.2c-0.2,1.3-1.4,2.2-3,2.2c-1.8,0-3.1-1.1-3.1-2.8c0-1.6,1.3-2.7,3.1-2.7
			c1.5,0,2.7,0.9,3,2.2h2.2v-2.7H459.8z M455.1,1593.8c0-1-0.8-1.6-1.8-1.6s-1.8,0.6-1.8,1.6s0.7,1.7,1.8,1.7
			C454.3,1595.5,455.1,1594.8,455.1,1593.8z M458.5,1597.4h1.3v4.7h-7.6v-4.7h1.3v1.3h5L458.5,1597.4L458.5,1597.4z M458.5,1599.8
			h-5v1.3h5V1599.8z"/>
		<path class="st4" d="M472.7,1598.5H468v3.8h-1.3v-3.8h-4.6v-1.1h10.6V1598.5z M471.4,1596.2h-8v-5.1h1.3v1.5h5.4v-1.5h1.3
			L471.4,1596.2L471.4,1596.2z M470.1,1593.6h-5.4v1.5h5.4V1593.6z"/>
		<path class="st4" d="M484.7,1596.5v1.1h-4.6v2.2h-1.3v-2.2H474v-1.1H484.7z M476.7,1601h6.8v1.1h-8.2v-3.4h1.3v2.3H476.7z
			 M483.3,1595.3h-7.9v-4.2h7.9V1595.3z M482,1592.2h-5.3v2.1h5.3V1592.2z"/>
	</g>
	<g class="st3">
		<path class="st4" d="M660.6,1597c-1-0.4-1.8-1.2-2.2-2.1c-0.4,1.1-1.2,2-2.3,2.5l-0.7-1c1.6-0.7,2.4-2.2,2.4-3.5v-1.5h1.3v1.5
			c0,1.3,0.8,2.6,2.3,3.2L660.6,1597z M665.4,1600.2c0,1.3-1.5,2.1-4,2.1c-2.4,0-4-0.8-4-2.1c0-1.4,1.5-2.2,4-2.2
			S665.4,1598.8,665.4,1600.2z M664.1,1600.2c0-0.7-1-1.1-2.6-1.1c-1.7,0-2.6,0.4-2.6,1.1s1,1.1,2.6,1.1
			C663.1,1601.3,664.1,1600.9,664.1,1600.2z M662.8,1597.4h-1.3v-6.6h1.3v2.8h1.2v-3h1.3v7.2H664v-3.1h-1.2V1597.4z"/>
		<path class="st4" d="M673.6,1597.4c-1.3-0.5-2.2-1.4-2.8-2.5c-0.5,1.3-1.5,2.3-2.9,2.8l-0.7-1c1.9-0.6,2.9-2.2,2.9-3.9v-1.4h1.4
			v1.4c0,1.6,1,3,2.8,3.7L673.6,1597.4z M670.5,1601h6.5v1.1h-7.9v-3.7h1.3v2.6H670.5z M678.2,1594.1v1.1h-1.7v4h-1.3v-8.7h1.3v3.5
			L678.2,1594.1L678.2,1594.1z"/>
		<path class="st4" d="M682.4,1590.9h1l-3.6,12.7h-1L682.4,1590.9z"/>
		<path class="st4" d="M690,1596.2c-0.5,0.6-1.4,1-2.3,1c-1.7,0-3.1-1.2-3.1-3c0-1.7,1.3-3,3.1-3c1,0,1.8,0.4,2.3,1h2.8v-1.7h1.3
			v8.6h-1.3v-3L690,1596.2L690,1596.2z M687.6,1596.1c1,0,1.8-0.7,1.8-1.8c0-1.1-0.8-1.8-1.8-1.8s-1.8,0.7-1.8,1.8
			S686.6,1596.1,687.6,1596.1z M694.4,1601v1.1h-7.9v-3.7h1.3v2.7L694.4,1601L694.4,1601z M690.5,1593.4c0.1,0.3,0.1,0.6,0.1,0.9
			s0,0.6-0.1,0.9h2.2v-1.7h-2.2V1593.4z"/>
		<path class="st4" d="M707,1597.4h-4.7v4.9H701v-4.9h-4.6v-1.1h7.6c0.3-1.6,0.3-2.9,0.3-3.9h-6.7v-1.1h8v1c0,1.1,0,2.3-0.3,4h1.6
			v1.1H707z"/>
		<path class="st4" d="M719,1598.5h-4.7v3.8H713v-3.8h-4.6v-1.1H719V1598.5z M717.7,1596.2h-8v-5.1h1.3v1.5h5.4v-1.5h1.3V1596.2z
			 M716.3,1593.6h-5.4v1.5h5.4V1593.6z"/>
		<path class="st4" d="M730.9,1596.5v1.1h-4.5v2.2H725v-2.2h-4.8v-1.1H730.9z M722.9,1601h6.8v1.1h-8.2v-3.4h1.3v2.3H722.9z
			 M729.5,1595.3h-7.9v-4.2h7.9V1595.3z M728.2,1592.2h-5.3v2.1h5.3V1592.2z"/>
	</g>
	<path id="패스_1877" class="st5" d="M205.1,1621.7v28.5h489.7"/>
	<path id="패스_1878" class="st5" d="M200.7,1626.3l4.5-4.8l4.4,4.8"/>
	<path id="패스_1879" class="st5" d="M690.4,1626.3l4.5-4.8l4.4,4.8"/>
	<path id="패스_1880" class="st5" d="M440.2,1650v-28.4"/>
	<path id="패스_1880-2" class="st5" d="M694.8,1736.4v-114.7"/>
	<path id="패스_1881" class="st5" d="M435.7,1626.3l4.5-4.8l4.4,4.8"/>
	<g class="st3">
		<path class="st6" d="M458.8,1634.8c-1.2-0.4-2.1-1.3-2.6-2.4c-0.5,1.2-1.5,2.2-2.7,2.7l-0.5-0.8c1.6-0.6,2.7-2,2.7-3.5v-0.4h-2.4
			v-0.8h5.7v0.8h-2.4v0.4c0,1.4,1.1,2.7,2.6,3.3L458.8,1634.8z M454.8,1635.7h7v3.8h-7V1635.7z M455.7,1638.7h5.1v-2.2h-5.1V1638.7z
			 M461.8,1628.9v6.3h-1v-2.8h-2.1v-0.8h2.1v-2.7H461.8z"/>
		<path class="st6" d="M469.5,1629.5c0,2.7-1.9,4.7-5,5.5l-0.4-0.8c2.6-0.7,4.2-2.1,4.4-4h-3.8v-0.8h4.8V1629.5z M465.9,1635.5h7v4
			h-7V1635.5z M466.8,1638.7h5v-2.4h-5V1638.7z M472.8,1628.9v6.1h-1v-2.6h-2.3v-0.8h2.3v-2.8h1V1628.9z"/>
	</g>
	<g class="st3">
		<path class="st6" d="M717.3,1634v0.8h-9.7v-0.8H717.3z M716.4,1633.1c-1.7-0.3-3.2-1.1-3.9-2.4c-0.7,1.2-2.3,2.1-3.9,2.4l-0.4-0.8
			c1.9-0.3,3.8-1.5,3.8-2.9v-0.5h1v0.5c0,1.4,1.9,2.6,3.8,2.9L716.4,1633.1z M716.1,1637.7c0,1.2-1.4,1.9-3.7,1.9s-3.7-0.7-3.7-1.9
			c0-1.2,1.4-1.9,3.7-1.9C714.7,1635.8,716.1,1636.5,716.1,1637.7z M715.1,1637.7c0-0.7-1-1.2-2.7-1.2s-2.7,0.4-2.7,1.2
			c0,0.7,1,1.2,2.7,1.2C714.1,1638.9,715.1,1638.4,715.1,1637.7z"/>
		<path class="st6" d="M721.7,1634.9c-1.6,0-2.8-1.1-2.8-2.7c0-1.5,1.2-2.6,2.8-2.6s2.8,1.1,2.8,2.6
			C724.5,1633.8,723.3,1634.9,721.7,1634.9z M721.7,1634.1c1.1,0,1.9-0.7,1.9-1.8c0-1-0.8-1.8-1.9-1.8c-1,0-1.8,0.7-1.8,1.8
			C719.8,1633.3,720.6,1634.1,721.7,1634.1z M727.8,1638.6v0.8h-7.2v-3.5h1v2.7H727.8z M727.4,1636.7h-1v-7.9h1V1636.7z"/>
	</g>
	<path id="패스_1873" class="st7" d="M650.3,1685H252"/>
	<path id="패스_1874" class="st7" d="M256.8,1689.5l-4.8-4.5l4.8-4.5"/>
	<path id="패스_1875" class="st7" d="M254.4,1699.3h398.1"/>
	<path id="패스_1876" class="st7" d="M647.7,1694.8l4.8,4.5l-4.8,4.4"/>
	<g class="st3">
		<path class="st8" d="M440,1672.8v0.8h-9.8v-0.8h4.4v-2.3h-3.2v-5.5h1v1.9h5.5v-1.9h1v5.5h-3.2v2.3H440z M432.3,1669.7h5.5v-2h-5.5
			V1669.7z"/>
		<path class="st8" d="M451,1672.7v0.8h-9.7v-0.8h3.8v-3.9h1v3.9H451z M448.9,1666.1h-6.6v-0.8h7.5v1.1c0,1.3,0,2.8-0.4,5l-1-0.1
			c0.4-2.1,0.4-3.6,0.4-4.9v-0.3H448.9z"/>
	</g>
	<g class="st3">
		<path class="st8" d="M422,1715.2c-1.2-0.4-2.2-1.3-2.7-2.5c-0.5,1.2-1.5,2.2-2.7,2.7l-0.5-0.8c1.6-0.6,2.7-2,2.7-3.6v-1h1v1
			c0,1.5,1.1,2.9,2.7,3.4L422,1715.2z M417.9,1716.3h7v3.9h-7V1716.3z M418.9,1719.4h5v-2.3h-5V1719.4z M424.9,1709.6v6.1h-1v-6.1
			H424.9z"/>
		<path class="st8" d="M427.1,1717.2c2,0,4.7,0,7-0.4l0.1,0.7c-2.4,0.4-5,0.5-7,0.5L427.1,1717.2z M433.4,1712.9
			c0,1.5-1.2,2.5-2.9,2.5c-1.7,0-2.9-1-2.9-2.5s1.2-2.5,2.9-2.5C432.2,1710.4,433.4,1711.4,433.4,1712.9z M428.6,1712.9
			c0,1,0.8,1.7,1.9,1.7s1.9-0.7,1.9-1.7s-0.8-1.7-1.9-1.7C429.4,1711.2,428.6,1711.9,428.6,1712.9z M435.8,1709.6v10.8h-1v-10.8
			H435.8z"/>
		<path class="st8" d="M440,1715.1c0-0.5,0.4-0.9,0.8-0.9s0.8,0.3,0.8,0.9c0,0.5-0.4,0.8-0.8,0.8
			C440.3,1715.9,440,1715.6,440,1715.1z"/>
		<path class="st8" d="M454.6,1714.7v0.8h-9.7v-0.8H454.6z M453.6,1713.9c-1.7-0.3-3.2-1.1-3.9-2.4c-0.7,1.2-2.3,2.1-3.9,2.4
			l-0.4-0.8c1.9-0.3,3.8-1.5,3.8-2.9v-0.5h1v0.5c0,1.4,1.9,2.6,3.8,2.9L453.6,1713.9z M453.4,1718.4c0,1.2-1.4,1.9-3.7,1.9
			c-2.3,0-3.7-0.7-3.7-1.9c0-1.2,1.4-1.9,3.7-1.9S453.4,1717.2,453.4,1718.4z M452.4,1718.4c0-0.7-1-1.2-2.7-1.2s-2.7,0.4-2.7,1.2
			c0,0.7,1,1.2,2.7,1.2S452.4,1719.2,452.4,1718.4z"/>
		<path class="st8" d="M458.9,1715.7c-1.6,0-2.8-1.1-2.8-2.7c0-1.5,1.2-2.6,2.8-2.6c1.6,0,2.8,1.1,2.8,2.6
			C461.7,1714.6,460.5,1715.7,458.9,1715.7z M458.9,1714.8c1.1,0,1.9-0.7,1.9-1.8c0-1-0.8-1.8-1.9-1.8c-1,0-1.8,0.7-1.8,1.8
			C457.1,1714.1,457.9,1714.8,458.9,1714.8z M465,1719.3v0.8h-7.2v-3.5h1v2.7H465z M464.7,1717.5h-1v-7.9h1V1717.5z"/>
	</g>
	<path id="패스_1882" class="st5" d="M556.9,1738.1v-82.5"/>
	<path id="패스_1883" class="st5" d="M552.5,1660.2l4.5-4.6l4.4,4.6"/>
	<path id="패스_1885" class="st4" d="M42.7,1954.7h191.1v-162.2H42.7V1954.7z"/>
	<path id="패스_1884" class="st6" d="M42.5,1793h191.1v-56.6H42.5V1793z"/>
	<g class="st3">
		<path class="st4" d="M111.5,1767.5c1.1-0.1,2.2-0.2,3.3-0.3l0.1,1.1c-2.8,0.6-5.8,0.6-8.1,0.6l-0.2-1.2c1,0,2.2,0,3.4,0v-2.2h1.4
			L111.5,1767.5L111.5,1767.5z M107,1764.6c1.9-0.5,3-1.8,3.1-3.3h-2.7v-1.2h2.7v-1.5h1.4v1.5h2.8v1.2h-2.8c0.1,1.4,1.2,2.7,3.1,3.2
			l-0.6,1.1c-1.5-0.4-2.6-1.3-3.1-2.5c-0.5,1.2-1.6,2.2-3.1,2.6L107,1764.6z M117,1758.6v12.7h-1.5v-12.7H117z"/>
		<path class="st4" d="M130.9,1768.4v1.2h-11.4v-1.2h4.3v-4.5h1.5v4.5H130.9z M128.2,1760.9h-7.5v-1.2h9v1.2c0,1.6,0,3.3-0.5,5.9
			l-1.5-0.2C128.2,1764.3,128.2,1762.5,128.2,1760.9L128.2,1760.9z"/>
		<path class="st4" d="M138.5,1761.9c-0.8,2-2.6,3.4-5.4,4.2l-0.6-1.1c3-0.8,4.6-2.4,4.9-4.4h-4.2v-1.2h5.7c0,0.4,0,0.9-0.1,1.3h2.6
			v-2.2h1.4v7.4h-1.4v-1.5h-3.1v-1.2h3.1v-1.5h-2.9V1761.9z M142.9,1768.7c0,1.6-1.7,2.5-4.2,2.5s-4.2-1-4.2-2.5s1.7-2.5,4.2-2.5
			S142.9,1767.1,142.9,1768.7z M141.5,1768.7c0-0.9-1.1-1.4-2.8-1.4s-2.8,0.5-2.8,1.4s1.1,1.4,2.8,1.4S141.5,1769.6,141.5,1768.7z"
			/>
		<path class="st4" d="M151.2,1764.4c-0.6,0.6-1.5,1-2.5,1c-1.9,0-3.3-1.3-3.3-3c0-1.8,1.4-3.1,3.3-3.1c1,0,1.9,0.4,2.5,1h3.1v-1.8
			h1.4v7.5h-1.4v-1.7L151.2,1764.4L151.2,1764.4z M148.7,1764.2c1.1,0,1.9-0.7,1.9-1.8c0-1.1-0.8-1.8-1.9-1.8
			c-1.1,0-1.9,0.7-1.9,1.8S147.6,1764.2,148.7,1764.2z M155.8,1768.8c0,1.6-1.6,2.5-4.3,2.5c-2.6,0-4.3-0.9-4.3-2.5
			c0-1.5,1.6-2.5,4.3-2.5S155.8,1767.2,155.8,1768.8z M154.4,1768.8c0-0.8-1-1.3-2.8-1.3s-2.8,0.5-2.8,1.3c0,0.9,1.1,1.3,2.8,1.3
			C153.3,1770.1,154.4,1769.6,154.4,1768.8z M151.9,1761.5c0.1,0.3,0.1,0.5,0.1,0.9c0,0.3,0,0.6-0.1,0.9h2.4v-1.7h-2.4V1761.5z"/>
		<path class="st4" d="M162.6,1762.3c0,2,1.2,4.2,3.2,5.1l-0.8,1.1c-1.4-0.7-2.5-2.1-3.1-3.7c-0.6,1.8-1.7,3.3-3.1,4l-0.8-1.1
			c1.9-0.9,3.2-3.3,3.2-5.4v-1.2h-2.8v-1.2h6.9v1.2h-2.7L162.6,1762.3L162.6,1762.3z M169.9,1764.8h-2v6.5h-1.4v-12.6h1.4v5h2
			V1764.8z"/>
	</g>
	<g class="st3">
		<path class="st8" d="M66,1819.6c0-1.1,0.8-1.8,1.6-1.8c0.9,0,1.6,0.7,1.6,1.8c0,1-0.8,1.7-1.6,1.7
			C66.8,1821.3,66,1820.6,66,1819.6z"/>
		<path class="st8" d="M75.2,1820.7c1.9,0,3.6-0.1,5.7-0.4l0.1,0.9c-2.1,0.4-3.9,0.4-5.9,0.4h-1v-4.5h4.3v-2.4h-4.3v-0.9h5.4v4.2
			h-4.3C75.2,1818,75.2,1820.7,75.2,1820.7z M83,1812.7v11.7h-1v-11.7H83z"/>
		<path class="st8" d="M96,1821.9v0.9H85.4v-0.9H96z M95,1819.4c-1.8-0.4-3.6-1.7-4.3-3.4c-0.7,1.7-2.6,3-4.3,3.4l-0.5-0.9
			c2-0.4,4.2-2.2,4.2-4.1v-0.9h1.1v0.9c0,2,2.2,3.8,4.3,4.1L95,1819.4z"/>
		<path class="st8" d="M107.9,1821.9v0.9H97.4v-0.9H107.9z M105.6,1817.1c0-0.6,0-1.2,0-1.8v-0.6h-7v-0.9h8v1.4c0,1.7,0,3.3-0.5,5.7
			l-1.1-0.1c0.3-1.1,0.4-2.1,0.5-3l-7,0.4l-0.2-0.9L105.6,1817.1z"/>
		<path class="st8" d="M119.2,1818.8c-2.2,0.3-4.9,0.4-6.8,0.4l-0.1-0.9c0.4,0,0.9,0,1.5,0v-3.9h-1.2v-0.9h6.1v0.9h-1.2v3.7
			c0.5,0,1-0.1,1.5-0.1L119.2,1818.8z M121.9,1822.2c0,1.4-1.5,2.1-3.9,2.1s-3.9-0.8-3.9-2.1c0-1.3,1.5-2.1,3.9-2.1
			S121.9,1820.9,121.9,1822.2z M114.8,1818.3c0.6,0,1.2,0,1.8-0.1v-3.8h-1.8V1818.3z M120.8,1822.2c0-0.8-1.1-1.3-2.8-1.3
			s-2.8,0.5-2.8,1.3s1.1,1.3,2.8,1.3S120.8,1823.1,120.8,1822.2z M120.8,1817.7h-1.9v-0.9h1.9v-1.2h-1.9v-0.9h1.9v-2.1h1.1v7.2h-1.1
			V1817.7z"/>
		<path class="st8" d="M130.2,1813.9c0,3.3-1.5,6.3-5.3,8.2l-0.6-0.8c3-1.5,4.6-3.7,4.8-6.5h-4.3v-0.9L130.2,1813.9L130.2,1813.9z
			 M135.1,1818.3h-1.9v6h-1.1v-11.7h1.1v4.7h1.9V1818.3z"/>
		<path class="st8" d="M145.1,1818.2h-5.4v-4.8h5.4V1818.2z M145.5,1821c0,1.1,1.8,2.2,3.8,2.5l-0.4,0.8c-1.8-0.2-3.3-1.1-4-2.1
			c-0.7,1.1-2.3,1.9-4.1,2.1l-0.4-0.8c2-0.2,3.8-1.3,3.9-2.5H141v-0.8h3.4v-1.1h1.1v1.1h3.4v0.8H145.5z M144.1,1814.3h-3.4v3.1h3.4
			V1814.3z M148.6,1819.4h-1.1v-6.7h1.1V1819.4z"/>
		<path class="st8" d="M161.3,1819.2c-2.4,0.4-5.2,0.5-7.3,0.5l-0.1-0.9c0.7,0,1.6,0,2.5,0v-2.5h1.1v2.5c1.3-0.1,2.6-0.2,3.8-0.3
			V1819.2z M159,1817.6c0.3-1.3,0.3-2.3,0.3-3.1h-4.8v-0.9h5.8v0.6c0,0.8,0,1.9-0.3,3.5L159,1817.6z M156.7,1823.2h6.7v0.9h-7.7
			v-3.4h1.1v2.5H156.7z M164.7,1816.5v0.9H163v4.1h-1v-8.8h1.1v3.8H164.7z"/>
		<path class="st8" d="M167.7,1820.7c1.9,0,3.6-0.1,5.7-0.4l0.1,0.9c-2.1,0.4-3.9,0.4-5.9,0.4h-1v-4.5h4.3v-2.4h-4.3v-0.9h5.4v4.2
			h-4.3V1820.7z M175.5,1812.7v11.7h-1.1v-11.7H175.5z"/>
		<path class="st8" d="M188.2,1817.9c-2.3,0.4-5,0.4-7.1,0.4l-0.1-0.9c0.5,0,0.9,0,1.5,0v-3.1h-1.1v-0.8h6.3v0.8h-1.1v3
			c0.6,0,1.2-0.1,1.7-0.2L188.2,1817.9z M190.8,1823.4v0.8h-8v-2.9h6.5v-1.2h-6.6v-0.8h7.6v2.8h-6.5v1.3L190.8,1823.4L190.8,1823.4z
			 M183.5,1817.4c0.6,0,1.3,0,1.9-0.1v-3h-1.9V1817.4z M190.4,1818.8h-1.1v-6.1h1.1V1818.8z"/>
		<path class="st8" d="M203.3,1822v0.9h-10.6v-0.9h2.6v-3.1c-1-0.5-1.6-1.4-1.6-2.4c0-1.8,1.8-3,4.2-3c2.5,0,4.2,1.2,4.2,3
			c0,1.1-0.6,1.9-1.5,2.4v3.2L203.3,1822L203.3,1822z M194.8,1816.4c0,1.3,1.3,2.2,3.2,2.2s3.2-0.9,3.2-2.2c0-1.3-1.4-2.2-3.2-2.2
			S194.8,1815.1,194.8,1816.4z M196.4,1822h3.2v-2.7c-0.5,0.1-1.1,0.2-1.6,0.2c-0.6,0-1.1-0.1-1.6-0.2L196.4,1822L196.4,1822z"/>
	</g>
	<g class="st3">
		<path class="st8" d="M79.9,1840.8h-5.4v-5.4h1.1v1.8h3.3v-1.8h1V1840.8z M83.2,1844.2c0,1.4-1.5,2.2-3.8,2.2
			c-2.4,0-3.8-0.8-3.8-2.2c0-1.4,1.5-2.2,3.8-2.2S83.2,1842.8,83.2,1844.2z M78.8,1838h-3.3v1.9h3.3V1838z M82.1,1844.2
			c0-0.8-1.1-1.3-2.8-1.3c-1.7,0-2.8,0.5-2.8,1.3s1,1.3,2.8,1.3C81,1845.5,82.1,1845,82.1,1844.2z M84.8,1837.6v0.9H83v3.2h-1v-7h1
			v2.9H84.8z"/>
		<path class="st8" d="M92.7,1841.2c-1.4-0.4-2.4-1.3-3-2.4c-0.5,1.3-1.6,2.2-3,2.7l-0.5-0.8c1.7-0.6,3-2,3-3.5v-0.1h-2.7v-0.9h2.7
			v-1.4h1.1v1.4h2.6v0.9h-2.6v0.1c0,1.5,1.2,2.8,3,3.3L92.7,1841.2z M88,1842.2h7.5v4H88V1842.2z M89,1845.3h5.5v-2.3H89V1845.3z
			 M95.5,1834.7v6.9h-1.1v-6.9H95.5z"/>
		<path class="st8" d="M104.2,1838c0,2,0.9,4.1,2.5,5l-0.6,0.8c-1.1-0.7-1.9-1.9-2.3-3.4c-0.4,1.6-1.2,3-2.4,3.7l-0.7-0.8
			c1.6-1,2.5-3.1,2.5-5.2v-1.1H101v-0.9h5.3v0.9h-2.1C104.2,1837,104.2,1838,104.2,1838z M107.4,1835h1v10.8h-1v-6h-1.9v-0.9h1.9
			V1835z M110.7,1834.7v11.7h-1v-11.7H110.7z"/>
		<path class="st8" d="M123.3,1840.1v0.9h-10.5v-0.9h4.3v-2.2h1.1v2.2H123.3z M122.1,1844.2c0,1.3-1.6,2.1-4.1,2.1s-4.1-0.8-4.1-2.1
			c0-1.4,1.6-2.1,4.1-2.1S122.1,1842.9,122.1,1844.2z M120.9,1836.2H114v-0.9h7.9v1c0,0.9,0,1.9-0.3,3.1l-1-0.1
			C120.9,1838.1,120.9,1837.2,120.9,1836.2L120.9,1836.2z M121,1844.2c0-0.8-1.2-1.3-3-1.3s-3,0.5-3,1.3s1.2,1.3,3,1.3
			S121,1845,121,1844.2z"/>
	</g>
	<path id="패스_1886" class="st4" d="M252,1954.9h191.1v-162.2H252V1954.9z"/>
	<path id="패스_1884-2" class="st2" d="M252,1793h191.1v-56.6H252V1793z"/>
	<g class="st3">
		<path class="st4" d="M302.7,1752c0,2.3,1.2,4.5,3.1,5.5l-0.9,1.1c-1.4-0.7-2.4-2.1-2.9-3.7c-0.5,1.8-1.6,3.2-3.1,4l-0.9-1.2
			c2-1,3.2-3.4,3.2-5.7v-2.1h1.4L302.7,1752L302.7,1752z M310,1755.1h-2v6.4h-1.4v-12.6h1.4v5h2V1755.1z"/>
		<path class="st4" d="M321.6,1748.9v6.8h-1.4v-2.7h-2.3c-0.3,1.4-1.5,2.4-3.2,2.4c-1.9,0-3.3-1.2-3.3-3c0-1.7,1.4-3,3.3-3
			c1.7,0,2.9,0.9,3.2,2.4h2.3v-2.9L321.6,1748.9L321.6,1748.9z M316.5,1752.4c0-1.1-0.8-1.8-1.9-1.8s-1.9,0.7-1.9,1.8
			c0,1.1,0.8,1.8,1.9,1.8C315.7,1754.2,316.5,1753.5,316.5,1752.4z M320.2,1756.3h1.4v5.1h-8.2v-5.1h1.4v1.4h5.4L320.2,1756.3
			L320.2,1756.3z M320.2,1758.8h-5.4v1.4h5.4V1758.8z"/>
		<path class="st4" d="M330.8,1756c-1.4-0.4-2.4-1.4-3-2.5c-0.6,1.3-1.6,2.4-3.1,2.9l-0.7-1.1c2-0.7,3.1-2.3,3.1-4v-0.3h-2.7v-1.2
			h6.8v1.2h-2.6v0.2c0,1.6,1.1,3,3,3.7L330.8,1756z M334,1759.2c0,1.5-1.6,2.4-4.2,2.4s-4.2-0.9-4.2-2.4s1.6-2.4,4.2-2.4
			S334,1757.6,334,1759.2z M332.6,1759.2c0-0.8-1-1.3-2.8-1.3s-2.8,0.4-2.8,1.3c0,0.8,1,1.3,2.8,1.3
			C331.6,1760.4,332.6,1760,332.6,1759.2z M335.7,1752v1.2h-1.8v3.3h-1.4v-7.6h1.4v3.1H335.7z"/>
		<path class="st4" d="M343.6,1756c-1.4-0.4-2.4-1.4-3-2.5c-0.6,1.3-1.6,2.4-3.1,2.9l-0.7-1.1c2-0.7,3.1-2.3,3.1-4v-0.3h-2.7v-1.2
			h6.8v1.2h-2.6v0.2c0,1.6,1.1,3,3,3.7L343.6,1756z M346.9,1759.2c0,1.5-1.6,2.4-4.2,2.4s-4.2-0.9-4.2-2.4s1.6-2.4,4.2-2.4
			S346.9,1757.6,346.9,1759.2z M345.5,1759.2c0-0.8-1-1.3-2.8-1.3s-2.8,0.4-2.8,1.3c0,0.8,1,1.3,2.8,1.3
			C344.5,1760.4,345.5,1760,345.5,1759.2z M348.6,1752v1.2h-1.8v3.3h-1.4v-7.6h1.4v3.1H348.6z"/>
		<path class="st4" d="M350.3,1756.1c0-2.8,0.8-5,2.1-7.2l1,0.4c-1.2,2-1.8,4.4-1.8,6.7c0,2.4,0.6,4.7,1.8,6.7l-1,0.4
			C351.1,1761.1,350.3,1758.9,350.3,1756.1z"/>
		<path class="st4" d="M359.2,1752c0,2.3,1.2,4.5,3.1,5.5l-0.9,1.1c-1.4-0.7-2.4-2.1-2.9-3.7c-0.5,1.8-1.6,3.2-3.1,4l-0.9-1.2
			c2-1,3.2-3.4,3.2-5.7v-2.1h1.4L359.2,1752L359.2,1752z M366.5,1755.1h-2v6.4h-1.4v-12.6h1.4v5h2V1755.1z"/>
		<path class="st4" d="M378.1,1748.9v6.8h-1.4v-2.7h-2.3c-0.3,1.4-1.5,2.4-3.2,2.4c-1.9,0-3.3-1.2-3.3-3c0-1.7,1.4-3,3.3-3
			c1.7,0,2.9,0.9,3.2,2.4h2.3v-2.9L378.1,1748.9L378.1,1748.9z M373,1752.4c0-1.1-0.8-1.8-1.9-1.8s-1.9,0.7-1.9,1.8
			c0,1.1,0.8,1.8,1.9,1.8C372.2,1754.2,373,1753.5,373,1752.4z M376.7,1756.3h1.4v5.1h-8.2v-5.1h1.4v1.4h5.4L376.7,1756.3
			L376.7,1756.3z M376.7,1758.8h-5.4v1.4h5.4V1758.8z"/>
		<path class="st4" d="M387.2,1756c-1.4-0.4-2.4-1.4-3-2.5c-0.6,1.3-1.6,2.4-3.1,2.9l-0.7-1.1c2-0.7,3.1-2.3,3.1-4v-0.3h-2.7v-1.2
			h6.8v1.2H385v0.2c0,1.6,1.1,3,3,3.7L387.2,1756z M390.5,1759.2c0,1.5-1.6,2.4-4.2,2.4s-4.2-0.9-4.2-2.4s1.6-2.4,4.2-2.4
			S390.5,1757.6,390.5,1759.2z M389.1,1759.2c0-0.8-1-1.3-2.8-1.3s-2.8,0.4-2.8,1.3c0,0.8,1,1.3,2.8,1.3
			C388.1,1760.4,389.1,1760,389.1,1759.2z M392.2,1752v1.2h-1.8v3.3H389v-7.6h1.4v3.1H392.2z"/>
		<path class="st4" d="M393.3,1762.8c1.2-2,1.8-4.4,1.8-6.7c0-2.3-0.6-4.7-1.8-6.7l1-0.4c1.3,2.1,2.1,4.4,2.1,7.2
			c0,2.8-0.8,5-2.1,7.2L393.3,1762.8z"/>
	</g>
	<g class="st3">
		<path class="st4" d="M303.2,1776.8c1.1-0.1,2.2-0.2,3.3-0.3l0.1,1.1c-2.8,0.6-5.8,0.6-8.1,0.6l-0.2-1.2c1,0,2.2,0,3.4,0v-2.2h1.4
			v2H303.2z M298.7,1773.9c1.9-0.5,3-1.8,3.1-3.3H299v-1.2h2.7v-1.5h1.4v1.5h2.8v1.2h-2.8c0.1,1.4,1.2,2.7,3.1,3.2l-0.6,1.1
			c-1.5-0.4-2.6-1.3-3.1-2.5c-0.5,1.2-1.6,2.2-3.1,2.6L298.7,1773.9z M308.7,1767.9v12.7h-1.5v-12.7H308.7z"/>
		<path class="st4" d="M322.6,1777.7v1.2h-11.4v-1.2h4.3v-4.5h1.5v4.5H322.6z M319.9,1770.3h-7.5v-1.2h9v1.2c0,1.6,0,3.3-0.5,5.9
			l-1.5-0.2C319.9,1773.6,319.9,1771.8,319.9,1770.3L319.9,1770.3z"/>
		<path class="st4" d="M330.1,1771.2c-0.8,2-2.6,3.4-5.4,4.2l-0.6-1.1c3-0.8,4.6-2.4,4.9-4.4h-4.2v-1.2h5.7c0,0.4,0,0.9-0.1,1.3h2.6
			v-2.2h1.4v7.4H333v-1.5h-3v-1.2h3.1v-1.5h-3V1771.2z M334.6,1778c0,1.6-1.7,2.5-4.2,2.5s-4.2-1-4.2-2.5s1.7-2.5,4.2-2.5
			S334.6,1776.4,334.6,1778z M333.2,1778c0-0.9-1.1-1.4-2.8-1.4c-1.7,0-2.8,0.5-2.8,1.4s1.1,1.4,2.8,1.4S333.2,1778.9,333.2,1778z"
			/>
		<path class="st4" d="M342.9,1773.7c-0.6,0.6-1.5,1-2.5,1c-1.9,0-3.3-1.3-3.3-3c0-1.8,1.4-3.1,3.3-3.1c1,0,1.9,0.4,2.5,1h3.1v-1.8
			h1.4v7.5H346v-1.7L342.9,1773.7L342.9,1773.7z M340.4,1773.5c1.1,0,1.9-0.7,1.9-1.8c0-1.1-0.8-1.8-1.9-1.8s-1.9,0.7-1.9,1.8
			S339.3,1773.5,340.4,1773.5z M347.4,1778.1c0,1.6-1.6,2.5-4.3,2.5c-2.6,0-4.3-0.9-4.3-2.5c0-1.5,1.6-2.5,4.3-2.5
			S347.4,1776.5,347.4,1778.1z M346,1778.1c0-0.8-1-1.3-2.8-1.3s-2.8,0.5-2.8,1.3c0,0.9,1.1,1.3,2.8,1.3
			C345,1779.4,346,1778.9,346,1778.1z M343.6,1770.8c0.1,0.3,0.1,0.5,0.1,0.9c0,0.3,0,0.6-0.1,0.9h2.4v-1.7h-2.4V1770.8z"/>
		<path class="st4" d="M354.2,1771.6c0,2,1.2,4.2,3.2,5.1l-0.8,1.1c-1.4-0.7-2.5-2.1-3.1-3.7c-0.6,1.8-1.7,3.3-3.1,4l-0.8-1.1
			c1.9-0.9,3.2-3.3,3.2-5.4v-1.2H350v-1.2h6.9v1.2h-2.7L354.2,1771.6L354.2,1771.6z M361.6,1774.1h-2v6.5h-1.4V1768h1.4v5h2V1774.1z
			"/>
		<path class="st4" d="M363.2,1775.1c0-2.8,0.8-5,2.1-7.2l1,0.4c-1.2,2-1.8,4.4-1.8,6.7c0,2.4,0.6,4.7,1.8,6.7l-1,0.4
			C364,1780.1,363.2,1777.9,363.2,1775.1z"/>
		<path class="st4" d="M374.4,1775.4c-1.4-0.5-2.4-1.5-3-2.7c-0.6,1.4-1.6,2.5-3.1,3l-0.7-1.1c2-0.7,3.1-2.4,3.1-4.1v-0.4H368v-1.2
			h6.8v1.2h-2.6v0.4c0,1.6,1.1,3.1,3,3.8L374.4,1775.4z M378.4,1779.1v1.2h-8.5v-4h1.4v2.8H378.4z M376.7,1771.3v-3.4h1.4v9.2h-1.4
			v-4.7h-2.3v-1.2L376.7,1771.3L376.7,1771.3z"/>
		<path class="st4" d="M384.9,1771c0,2.3,1.2,4.5,3.1,5.5l-0.9,1.1c-1.4-0.7-2.4-2.1-2.9-3.7c-0.5,1.8-1.6,3.2-3.1,4l-0.9-1.2
			c2-1,3.2-3.4,3.2-5.7v-2.1h1.4L384.9,1771L384.9,1771z M392.3,1774.1h-2v6.4h-1.4v-12.6h1.4v5h2V1774.1z"/>
		<path class="st4" d="M393.3,1781.8c1.2-2,1.8-4.4,1.8-6.7c0-2.3-0.6-4.7-1.8-6.7l1-0.4c1.3,2.1,2.1,4.4,2.1,7.2
			c0,2.8-0.8,5-2.1,7.2L393.3,1781.8z"/>
	</g>
	<g class="st3">
		<path class="st8" d="M275.4,1819.6c0-1.1,0.8-1.8,1.6-1.8c0.9,0,1.6,0.7,1.6,1.8c0,1-0.8,1.7-1.6,1.7
			C276.1,1821.3,275.4,1820.6,275.4,1819.6z"/>
		<path class="st8" d="M284.5,1820.7c1.9,0,3.6-0.1,5.7-0.4l0.1,0.9c-2.1,0.4-3.9,0.4-5.9,0.4h-1v-4.5h4.3v-2.4h-4.3v-0.9h5.4v4.2
			h-4.3L284.5,1820.7L284.5,1820.7z M292.4,1812.7v11.7h-1.1v-11.7H292.4z"/>
		<path class="st8" d="M305.3,1821.9v0.9h-10.6v-0.9H305.3z M304.3,1819.4c-1.8-0.4-3.6-1.7-4.3-3.4c-0.7,1.7-2.6,3-4.3,3.4
			l-0.5-0.9c2-0.4,4.2-2.2,4.2-4.1v-0.9h1.1v0.9c0,2,2.2,3.8,4.3,4.1L304.3,1819.4z"/>
		<path class="st8" d="M317.3,1821.9v0.9h-10.5v-0.9H317.3z M314.9,1817.1c0-0.6,0-1.2,0-1.8v-0.6h-7v-0.9h8v1.4
			c0,1.7,0,3.3-0.5,5.7l-1.1-0.1c0.3-1.1,0.4-2.1,0.5-3l-7,0.4l-0.2-0.9L314.9,1817.1z"/>
		<path class="st8" d="M327,1820.4c0.6,0,1.2-0.1,1.8-0.2l0.1,0.8c-2.4,0.4-5.2,0.4-7.3,0.4l-0.1-0.9c0.5,0,1,0,1.5,0v-5.7h-1.2
			v-0.9h6.5v0.9H327V1820.4z M324,1820.6c0.6,0,1.3,0,1.9-0.1v-5.7H324V1820.6z M332.5,1818.3h-1.9v6.1h-1.1v-11.6h1.1v4.7h1.9
			V1818.3z"/>
		<path class="st8" d="M336.8,1818.9c-1.8,0-3-1.1-3-2.8c0-1.6,1.3-2.7,3-2.7c1.8,0,3,1.1,3,2.7
			C339.9,1817.8,338.6,1818.9,336.8,1818.9z M336.8,1818c1.2,0,2-0.8,2-1.9s-0.8-1.8-2-1.8s-2,0.8-2,1.8
			C334.8,1817.3,335.6,1818,336.8,1818z M335,1820.2h7.6v4.2h-1.1v-3.3H335V1820.2z M344.3,1816.6h-1.7v3h-1.1v-6.9h1.1v3h1.7
			V1816.6z"/>
		<path class="st8" d="M354.1,1815.2c-0.7,1.8-2.5,3.1-5.1,3.7l-0.4-0.9c2.8-0.7,4.5-2.1,4.7-3.9h-4.1v-0.9h5.2c0,0.4,0,0.8-0.1,1.1
			h2.6v-1.7h1.1v6h-1v-1.2h-3v-0.8h3v-1.4L354.1,1815.2L354.1,1815.2z M358.4,1823.4v0.8h-7.9v-3h6.4v-1.2h-6.4v-0.9h7.5v2.9h-6.4
			v1.4L358.4,1823.4L358.4,1823.4z"/>
		<path class="st8" d="M363.8,1820.9c1.3-0.1,2.6-0.1,3.8-0.3l0.1,0.8c-2.4,0.4-5.2,0.4-7.2,0.4l-0.1-0.9c0.7,0,1.6,0,2.5,0v-3.6
			h1.1v3.6H363.8z M365.4,1819.1c0.3-1.9,0.4-3.4,0.4-4.3H361v-0.9h5.9v0.6c0,0.9,0,2.5-0.3,4.6L365.4,1819.1z M371.2,1818.5h-1.9
			v5.9h-1.1v-11.7h1.1v4.9h1.9V1818.5z"/>
		<path class="st8" d="M385.8,1822v0.9h-10.6v-0.9h4.7v-3h-3.4v-5.4h7.9v0.9h-6.8v3.7h7v0.9h-3.5v3L385.8,1822L385.8,1822z"/>
		<path class="st8" d="M393,1818.7v1.1h3.4v2.5h-6.9v1.1h7.2v0.8h-8.2v-2.7h6.8v-1h-6.9v-0.8h3.5v-1.1h-4.7v-0.8h10.5v0.8
			L393,1818.7L393,1818.7z M387.8,1816.5c2.2-0.1,3.9-0.9,4.1-2h-3.6v-0.8h3.7v-1.1h1.1v1.1h3.7v0.8h-3.6c0.2,1.2,1.9,1.9,4.1,2
			l-0.3,0.8c-2-0.2-3.7-0.8-4.4-1.8c-0.7,1.1-2.4,1.7-4.4,1.8L387.8,1816.5z"/>
	</g>
	<g class="st3">
		<path class="st8" d="M275.4,1845.4c0-1.1,0.8-1.8,1.6-1.8c0.9,0,1.6,0.7,1.6,1.8c0,1-0.8,1.7-1.6,1.7
			C276.1,1847.2,275.4,1846.5,275.4,1845.4z"/>
		<path class="st8" d="M284.3,1846.5c1.6,0,2.7-0.1,3.9-0.4l0.1,0.9c-1.4,0.3-2.6,0.4-4.3,0.4h-0.8v-7.4h4.3v0.9h-3.3L284.3,1846.5
			L284.3,1846.5z M292.7,1838.6v11.7h-1v-6.1H290v5.5h-1v-10.8h1v4.4h1.7v-4.7H292.7z"/>
		<path class="st8" d="M305.3,1844.2v0.9h-10.5v-0.9H305.3z M304.1,1841.1c0,1.4-1.6,2.2-4.1,2.2s-4.1-0.8-4.1-2.2
			c0-1.4,1.6-2.2,4.1-2.2S304.1,1839.7,304.1,1841.1z M304,1848.1c0,1.3-1.5,2.1-4,2.1s-4-0.8-4-2.1c0-1.3,1.5-2.1,4-2.1
			C302.5,1846.1,304,1846.8,304,1848.1z M297,1841.1c0,0.9,1.2,1.4,3,1.4s3-0.5,3-1.4s-1.2-1.4-3-1.4S297,1840.2,297,1841.1z
			 M297.1,1848.1c0,0.8,1.1,1.2,2.9,1.2s2.9-0.5,2.9-1.2s-1.1-1.3-2.9-1.3S297.1,1847.3,297.1,1848.1z"/>
		<path class="st8" d="M312.6,1844.7h-5.4v-5.4h1.1v1.8h3.3v-1.8h1V1844.7z M315.9,1848c0,1.4-1.5,2.2-3.8,2.2
			c-2.4,0-3.8-0.8-3.8-2.2s1.5-2.2,3.8-2.2C314.4,1845.9,315.9,1846.7,315.9,1848z M311.6,1841.9h-3.3v1.9h3.3V1841.9z M314.8,1848
			c0-0.8-1.1-1.3-2.8-1.3c-1.7,0-2.8,0.5-2.8,1.3s1,1.3,2.8,1.3C313.8,1849.4,314.8,1848.9,314.8,1848z M317.5,1841.5v0.9h-1.7v3.2
			h-1.1v-7h1.1v2.9H317.5z"/>
		<path class="st8" d="M321.9,1845.1c-1.7,0-3-1.2-3-2.9c0-1.7,1.3-2.9,3-2.9s3,1.2,3,2.9C325,1843.9,323.7,1845.1,321.9,1845.1z
			 M321.9,1844.2c1.1,0,2-0.8,2-1.9s-0.9-2-2-2s-2,0.8-2,2C319.9,1843.4,320.8,1844.2,321.9,1844.2z M321.5,1849.1h6.7v0.9h-7.8
			v-3.7h1.1L321.5,1849.1L321.5,1849.1z M329.4,1842.1v0.9h-1.7v4.1h-1.1v-8.6h1.1v3.5L329.4,1842.1L329.4,1842.1z"/>
		<path class="st8" d="M344.1,1844.1v0.9h-10.5v-0.9H344.1z M343.1,1843.2c-1.8-0.3-3.5-1.2-4.3-2.5c-0.7,1.3-2.5,2.3-4.3,2.5
			l-0.4-0.8c2.1-0.3,4.1-1.6,4.1-3.1v-0.5h1.1v0.5c0,1.5,2,2.8,4.1,3.1L343.1,1843.2z M342.8,1848.1c0,1.3-1.5,2.1-4,2.1
			s-4-0.7-4-2.1c0-1.3,1.5-2.1,4-2.1C341.3,1846.1,342.8,1846.8,342.8,1848.1z M341.7,1848.1c0-0.8-1.1-1.2-2.9-1.2
			s-2.9,0.5-2.9,1.2c0,0.8,1.1,1.2,2.9,1.2C340.7,1849.4,341.7,1848.9,341.7,1848.1z"/>
		<path class="st8" d="M348.8,1845.1c-1.7,0-3-1.2-3-2.9c0-1.7,1.3-2.9,3-2.9s3.1,1.2,3.1,2.9S350.6,1845.1,348.8,1845.1z
			 M348.8,1844.2c1.2,0,2-0.8,2-2c0-1.1-0.9-1.9-2-1.9s-2,0.8-2,1.9C346.8,1843.4,347.7,1844.2,348.8,1844.2z M355.4,1849.1v0.9
			h-7.9v-3.7h1.1v2.9h6.8V1849.1z M355.1,1847.1H354v-8.5h1.1V1847.1z"/>
		<path class="st8" d="M366.4,1844.1H361v-4.8h5.4V1844.1z M366.8,1846.9c0,1.1,1.8,2.2,3.8,2.5l-0.4,0.8c-1.8-0.2-3.3-1.1-4-2.1
			c-0.7,1.1-2.3,1.9-4.1,2.1l-0.4-0.8c2-0.2,3.8-1.3,3.9-2.5h-3.4v-0.8h3.4v-1.1h1.1v1.1h3.4v0.8H366.8z M365.4,1840.2H362v3.1h3.4
			V1840.2z M369.9,1845.3h-1.1v-6.7h1.1V1845.3z"/>
		<path class="st8" d="M381.8,1844.3c-1.3-0.5-2.4-1.4-2.9-2.7c-0.5,1.3-1.6,2.4-3,2.9l-0.5-0.8c1.8-0.6,3-2.2,3-3.9v-0.9h1.1v0.9
			c0,1.6,1.2,3.1,3,3.6L381.8,1844.3z M385.2,1849.2v0.8h-7.9v-2.9h6.5v-1.2h-6.5v-0.8h7.6v2.8h-6.5v1.2L385.2,1849.2L385.2,1849.2z
			 M384.8,1844.6h-1.1v-6h1.1V1844.6z"/>
		<path class="st8" d="M393.1,1840.8h-5.9v-0.8h2.4v-1.3h1.1v1.3h2.4V1840.8z M390.1,1845.4c-1.5,0-2.5-0.8-2.5-2s1-2,2.5-2
			s2.5,0.8,2.5,2S391.6,1845.4,390.1,1845.4z M390.1,1844.6c0.9,0,1.5-0.5,1.5-1.2s-0.6-1.2-1.5-1.2s-1.5,0.5-1.5,1.2
			S389.2,1844.6,390.1,1844.6z M397.1,1848.2c0,1.3-1.5,2-3.9,2s-3.9-0.7-3.9-2s1.5-2,3.9-2S397.1,1846.9,397.1,1848.2z
			 M396.1,1848.2c0-0.8-1.1-1.2-2.8-1.2c-1.8,0-2.8,0.4-2.8,1.2c0,0.8,1.1,1.2,2.8,1.2C395,1849.4,396.1,1848.9,396.1,1848.2z
			 M394.6,1845.5h-1v-6.7h1v3h1.5v-3.2h1v7.4h-1v-3.3h-1.5V1845.5z"/>
		<path class="st8" d="M412.7,1847.9v0.9h-10.6v-0.9h4.7v-2.5h-3.5v-6h1.1v2.1h6v-2.1h1v6h-3.5v2.5H412.7z M404.4,1844.5h6v-2.1h-6
			V1844.5z"/>
		<path class="st8" d="M420.3,1845c-1.3-0.4-2.3-1.4-2.8-2.5c-0.5,1.3-1.5,2.4-2.9,2.9l-0.5-0.8c1.8-0.6,2.9-2.1,2.9-3.8v-0.5h-2.6
			v-0.9h6.3v0.9H418v0.5c0,1.5,1.1,2.9,2.8,3.5L420.3,1845z M423.2,1848c0,1.4-1.5,2.2-3.8,2.2c-2.4,0-3.8-0.8-3.8-2.2
			c0-1.4,1.5-2.1,3.8-2.1C421.8,1845.9,423.2,1846.7,423.2,1848z M422.2,1848c0-0.8-1.1-1.3-2.8-1.3c-1.7,0-2.8,0.5-2.8,1.3
			s1,1.3,2.8,1.3C421.1,1849.4,422.2,1848.9,422.2,1848z M424.8,1841.5v0.9h-1.7v3.2H422v-7h1.1v2.9H424.8z"/>
	</g>
	<path id="패스_1888" class="st4" d="M670.3,1954.9h191.1v-162.2H670.3V1954.9z"/>
	<path id="패스_1884-3" class="st2" d="M670.3,1793.1h191.1v-56.6H670.3V1793.1z"/>
	<g class="st3">
		<path class="st4" d="M754.2,1764.9c-1.5-0.5-2.5-1.4-3.1-2.7c-0.6,1.4-1.7,2.4-3.2,2.9l-0.7-1.1c2-0.7,3.1-2.3,3.1-4v-1h1.5v1
			c0,1.6,1.1,3.2,3.1,3.8L754.2,1764.9z M758,1770.1v1.1h-8.6v-3.3h6.8v-1h-6.9v-1.1h8.3v3.2h-6.8v1.1L758,1770.1L758,1770.1z
			 M757.6,1765.2h-1.5v-6.5h1.5V1765.2z"/>
		<path class="st4" d="M771.6,1767.1h-5.1v4.3h-1.4v-4.3h-5v-1.2h11.5V1767.1z M770.1,1764.3h-8.6v-5h8.6V1764.3z M768.7,1760.5
			h-5.8v2.7h5.8V1760.5z"/>
		<path class="st4" d="M777.4,1762.3c0,2,1.2,4.2,3.2,5.1l-0.8,1.1c-1.4-0.7-2.5-2.1-3.1-3.7c-0.6,1.8-1.7,3.3-3.1,4l-0.8-1.1
			c1.9-0.9,3.2-3.3,3.2-5.4v-1.2h-2.8v-1.2h6.9v1.2h-2.7L777.4,1762.3L777.4,1762.3z M784.7,1764.8h-2v6.5h-1.4v-12.6h1.4v5h2
			V1764.8z"/>
	</g>
	<g class="st3">
		<path class="st8" d="M693.6,1819.6c0-1.1,0.8-1.8,1.6-1.8c0.9,0,1.6,0.7,1.6,1.8c0,1-0.8,1.7-1.6,1.7
			C694.4,1821.3,693.6,1820.6,693.6,1819.6z"/>
		<path class="st8" d="M702.7,1820.4c1.1,0,2.4-0.1,3.7-0.4l0.1,0.9c-1.6,0.3-2.9,0.4-4.2,0.4h-0.7v-7.2h1.1L702.7,1820.4
			L702.7,1820.4z M710.9,1812.7v11.6h-1v-6h-1.7v5.4h-1V1813h1v4.5h1.7v-4.7h1V1812.7z"/>
		<path class="st8" d="M715,1818.7c0-0.5,0.4-0.9,0.9-0.9s0.9,0.4,0.9,0.9s-0.4,0.9-0.9,0.9S715,1819.2,715,1818.7z"/>
		<path class="st8" d="M724.6,1820.9c1.1-0.1,2.3-0.2,3.4-0.3l0.1,0.8c-2.6,0.5-5.4,0.5-7.6,0.5l-0.1-0.9c0.9,0,2,0,3.2,0v-2
			c-1.5-0.2-2.6-1.2-2.6-2.7c0-1.6,1.3-2.7,3.1-2.7s3.1,1.1,3.1,2.7c0,1.5-1.1,2.5-2.6,2.7L724.6,1820.9L724.6,1820.9z M724,1818
			c1.2,0,2.1-0.8,2.1-1.8c0-1.1-0.9-1.8-2.1-1.8c-1.2,0-2.1,0.7-2.1,1.8C722,1817.3,722.9,1818,724,1818z M729.8,1812.7v11.7h-1.1
			v-11.7H729.8z"/>
		<path class="st8" d="M742.8,1820.5H738v3.9h-1v-3.9h-4.7v-0.9h10.6L742.8,1820.5L742.8,1820.5z M741.5,1818.2h-7.9v-5h1.1v1.6h5.8
			v-1.6h1.1L741.5,1818.2L741.5,1818.2z M740.4,1815.6h-5.8v1.7h5.8V1815.6z"/>
		<path class="st8" d="M753.5,1817.7c0,2.5-1.2,4.1-3,4.1s-3-1.6-3-4.1s1.2-4.1,3-4.1S753.5,1815.2,753.5,1817.7z M748.6,1817.7
			c0,1.9,0.8,3.1,1.9,3.1c1.1,0,1.9-1.2,1.9-3.1s-0.8-3.1-1.9-3.1C749.4,1814.6,748.6,1815.8,748.6,1817.7z M756.6,1812.7v11.7h-1.1
			v-11.7H756.6z"/>
		<path class="st8" d="M769.6,1820.2H767v4.2h-1.1v-4.2h-3.1v4.2h-1.1v-4.2H759v-0.9h10.6L769.6,1820.2L769.6,1820.2z M768.7,1818.1
			c-1.8-0.3-3.6-1.4-4.3-2.8c-0.7,1.4-2.5,2.4-4.3,2.8l-0.4-0.9c2.1-0.3,4.2-1.7,4.2-3.4v-0.7h1.1v0.7c0,1.7,2.1,3.1,4.2,3.4
			L768.7,1818.1z"/>
		<path class="st8" d="M771,1825.2c0.8-0.4,1.3-1,1.3-1.8c-0.1,0-0.1,0-0.1,0c-0.5,0-0.9-0.3-0.9-0.8s0.4-0.8,0.9-0.8
			c0.6,0,1,0.5,1,1.4c0,1.2-0.7,2.2-1.9,2.7L771,1825.2z"/>
		<path class="st8" d="M783.9,1817.7c0,2.5-1.2,4.1-3,4.1c-1.7,0-3-1.6-3-4.1s1.2-4.1,3-4.1S783.9,1815.2,783.9,1817.7z M779,1817.7
			c0,1.9,0.8,3.1,1.9,3.1c1.1,0,1.9-1.2,1.9-3.1s-0.8-3.1-1.9-3.1S779,1815.8,779,1817.7z M787.1,1812.7v11.7H786v-11.7H787.1z"/>
		<path class="st8" d="M792.9,1814.7h2.4v0.9h-5.8v-0.9h2.4v-1.7h1.1v1.7H792.9z M794.9,1819c0,1.6-1.1,2.7-2.5,2.7
			s-2.5-1.1-2.5-2.7s1.1-2.7,2.5-2.7S794.9,1817.4,794.9,1819z M793.9,1819c0-1-0.6-1.8-1.5-1.8s-1.5,0.7-1.5,1.8
			c0,1,0.6,1.8,1.5,1.8C793.3,1820.8,793.9,1820,793.9,1819z M799.4,1812.7v11.7h-1v-5.9h-1.5v5.3h-1V1813h1v4.7h1.5v-4.9
			L799.4,1812.7L799.4,1812.7z"/>
		<path class="st8" d="M808.8,1819.2c-2.4,0.4-5.2,0.5-7.3,0.5l-0.1-0.9c0.7,0,1.6,0,2.5,0v-2.5h1.1v2.5c1.3-0.1,2.6-0.2,3.8-0.3
			V1819.2z M806.5,1817.6c0.3-1.3,0.3-2.3,0.3-3.1H802v-0.9h5.8v0.6c0,0.8,0,1.9-0.3,3.5L806.5,1817.6z M804.2,1823.2h6.7v0.9h-7.7
			v-3.4h1.1L804.2,1823.2L804.2,1823.2z M812.2,1816.5v0.9h-1.7v4.1h-1.1v-8.8h1.1v3.8H812.2z"/>
		<path class="st8" d="M820,1813h1v10.8h-1v-4h-2.1v-0.9h2.1v-2.1h-1.9c-0.5,2-1.8,3.7-4,5l-0.6-0.8c2.5-1.5,3.8-3.6,3.9-6H814v-0.9
			h4.5c0,0.6-0.1,1.2-0.2,1.8h1.7V1813z M823.3,1812.7v11.6h-1v-11.6H823.3z"/>
		<path class="st8" d="M829.3,1816.3c0,1.9,1.3,3.9,3,4.7l-0.6,0.9c-1.3-0.6-2.4-2-2.9-3.6c-0.5,1.7-1.7,3.2-3,3.9l-0.6-0.8
			c1.7-0.8,3.1-3,3.1-5v-1.5h-2.7v-0.9h6.3v0.9h-2.6V1816.3z M836.3,1818.3h-1.9v6.1h-1.1v-11.6h1.1v4.7h1.9V1818.3z"/>
	</g>
	<g class="st3">
		<path class="st8" d="M710.9,1844v0.9h-10.6v-0.9h2.6v-3.1c-1-0.5-1.6-1.4-1.6-2.4c0-1.8,1.8-3,4.2-3c2.5,0,4.2,1.2,4.2,3
			c0,1.1-0.6,1.9-1.5,2.4v3.2L710.9,1844L710.9,1844z M702.4,1838.4c0,1.3,1.3,2.2,3.2,2.2s3.2-0.9,3.2-2.2c0-1.3-1.4-2.2-3.2-2.2
			S702.4,1837.1,702.4,1838.4z M704,1844h3.2v-2.7c-0.5,0.1-1.1,0.2-1.6,0.2c-0.6,0-1.1-0.1-1.6-0.2L704,1844L704,1844z"/>
		<path class="st8" d="M722.8,1841.3H718v5h-1v-5h-4.7v-0.9h7.7c0.4-1.7,0.4-2.9,0.4-4v-0.2h-6.8v-0.9h7.8v1c0,1.1,0,2.3-0.3,4h1.7
			L722.8,1841.3L722.8,1841.3z"/>
		<path class="st8" d="M732.5,1842.4c0.6,0,1.2-0.1,1.8-0.2l0.1,0.8c-2.4,0.4-5.2,0.4-7.3,0.4l-0.1-0.9c0.5,0,1,0,1.5,0v-5.7h-1.2
			v-0.9h6.5v0.9h-1.2L732.5,1842.4L732.5,1842.4z M729.6,1842.6c0.6,0,1.3,0,1.9-0.1v-5.7h-1.9V1842.6z M738,1840.3h-1.9v6.1H735
			v-11.6h1.1v4.7h1.9V1840.3z"/>
		<path class="st8" d="M742.4,1840.9c-1.8,0-3-1.1-3-2.8c0-1.6,1.3-2.7,3-2.7c1.8,0,3,1.1,3,2.7
			C745.4,1839.8,744.1,1840.9,742.4,1840.9z M742.4,1840c1.2,0,2-0.8,2-1.9s-0.8-1.8-2-1.8s-2,0.8-2,1.8
			C740.4,1839.3,741.2,1840,742.4,1840z M740.6,1842.2h7.6v4.2h-1.1v-3.3h-6.5V1842.2z M749.9,1838.6h-1.7v3h-1.1v-6.9h1.1v3h1.7
			V1838.6z"/>
		<path class="st8" d="M760,1840.2h-5.4v-4.8h5.4V1840.2z M760.4,1843c0,1.1,1.8,2.2,3.8,2.5l-0.4,0.8c-1.8-0.2-3.3-1.1-4-2.1
			c-0.7,1.1-2.3,1.9-4.1,2.1l-0.4-0.8c2-0.2,3.8-1.3,3.9-2.5h-3.4v-0.8h3.4v-1.1h1.1v1.1h3.4v0.8H760.4z M759,1836.3h-3.4v3.1h3.4
			V1836.3z M763.5,1841.4h-1.1v-6.7h1.1V1841.4z"/>
		<path class="st8" d="M770.6,1842.7c1.9,0,3.6-0.1,5.7-0.4l0.1,0.9c-2.1,0.4-3.9,0.4-5.9,0.4h-1v-4.5h4.3v-2.4h-4.3v-0.9h5.4v4.2
			h-4.3V1842.7z M778.4,1834.7v11.7h-1.1v-11.7H778.4z"/>
		<path class="st8" d="M791.4,1843.9v0.9h-10.6v-0.9H791.4z M790.4,1841.4c-1.8-0.4-3.6-1.7-4.3-3.4c-0.7,1.7-2.6,3-4.3,3.4
			l-0.5-0.9c2-0.4,4.2-2.2,4.2-4.1v-0.9h1.1v0.9c0,2,2.2,3.8,4.2,4.1L790.4,1841.4z"/>
		<path class="st8" d="M803.3,1843.9v0.9h-10.5v-0.9H803.3z M801,1839.1c0-0.6,0-1.2,0-1.8v-0.6h-7v-0.9h8v1.4c0,1.7,0,3.3-0.5,5.7
			l-1.1-0.1c0.3-1.1,0.4-2.1,0.5-3l-7,0.4l-0.2-0.9L801,1839.1z"/>
		<path class="st8" d="M814.6,1840.8c-2.2,0.3-4.9,0.4-6.8,0.4l-0.1-0.9c0.4,0,0.9,0,1.5,0v-3.9H808v-0.9h6.1v0.9H813v3.7
			c0.5,0,1-0.1,1.5-0.1L814.6,1840.8z M817.3,1844.2c0,1.4-1.5,2.1-3.9,2.1s-3.9-0.8-3.9-2.1c0-1.3,1.5-2.1,3.9-2.1
			S817.3,1842.9,817.3,1844.2z M810.2,1840.3c0.6,0,1.2,0,1.8-0.1v-3.8h-1.8V1840.3z M816.2,1844.2c0-0.8-1.1-1.3-2.8-1.3
			c-1.8,0-2.8,0.5-2.8,1.3s1.1,1.3,2.8,1.3C815.2,1845.5,816.2,1845.1,816.2,1844.2z M816.2,1839.7h-1.9v-0.9h1.9v-1.2h-1.9v-0.9
			h1.9v-2.1h1.1v7.2h-1.1V1839.7z"/>
		<path class="st8" d="M825.5,1835.9c0,3.3-1.5,6.3-5.3,8.2l-0.6-0.8c3-1.5,4.6-3.7,4.8-6.5h-4.3v-0.9L825.5,1835.9L825.5,1835.9z
			 M830.4,1840.3h-1.9v6h-1.1v-11.7h1.1v4.7h1.9V1840.3z"/>
	</g>
	<g class="st3">
		<path class="st8" d="M693.6,1863.2c0-1.1,0.8-1.8,1.6-1.8c0.9,0,1.6,0.7,1.6,1.8c0,1-0.8,1.7-1.6,1.7
			C694.4,1865,693.6,1864.3,693.6,1863.2z"/>
		<path class="st8" d="M702.8,1864.3c1.9,0,3.6-0.1,5.7-0.4l0.1,0.9c-2.1,0.4-3.9,0.4-5.9,0.4h-1v-4.5h4.3v-2.4h-4.3v-0.9h5.4v4.2
			h-4.3V1864.3z M710.6,1856.3v11.7h-1.1v-11.7H710.6z"/>
		<path class="st8" d="M723.6,1865.6v0.9H713v-0.9H723.6z M722.6,1863.1c-1.8-0.4-3.6-1.7-4.3-3.4c-0.7,1.7-2.6,3-4.3,3.4l-0.5-0.9
			c2-0.4,4.2-2.2,4.2-4.1v-0.9h1.1v0.9c0,2,2.2,3.8,4.3,4.1L722.6,1863.1z"/>
		<path class="st8" d="M735.5,1865.5v0.9H725v-0.9H735.5z M733.1,1860.8c0-0.6,0-1.2,0-1.8v-0.6h-7v-0.9h8v1.4c0,1.7,0,3.3-0.5,5.7
			l-1.1-0.1c0.3-1.1,0.4-2.1,0.5-3l-7,0.4l-0.2-0.9L733.1,1860.8z"/>
		<path class="st8" d="M746.7,1862.4c-2.2,0.4-4.9,0.4-6.8,0.4l-0.1-0.9c0.4,0,0.9,0,1.5,0v-3.9h-1.2v-0.9h6.1v0.9H745v3.7
			c0.5,0,1-0.1,1.5-0.1L746.7,1862.4z M749.5,1865.9c0,1.4-1.5,2.1-3.9,2.1s-3.9-0.8-3.9-2.1c0-1.3,1.5-2.1,3.9-2.1
			S749.5,1864.5,749.5,1865.9z M742.3,1861.9c0.6,0,1.2,0,1.8-0.1v-3.8h-1.8V1861.9z M748.4,1865.9c0-0.8-1.1-1.3-2.8-1.3
			s-2.8,0.5-2.8,1.3s1.1,1.3,2.8,1.3S748.4,1866.7,748.4,1865.9z M748.3,1861.4h-1.9v-0.9h1.9v-1.2h-1.9v-0.9h1.9v-2.1h1.1v7.2h-1.1
			V1861.4z"/>
		<path class="st8" d="M757.7,1857.6c0,3.3-1.5,6.3-5.3,8.2l-0.6-0.8c3-1.5,4.6-3.7,4.8-6.5h-4.3v-0.9L757.7,1857.6L757.7,1857.6z
			 M762.6,1862h-1.9v6h-1.1v-11.7h1.1v4.7h1.9V1862z"/>
		<path class="st8" d="M772.9,1862.9c-1.3-0.5-2.3-1.4-2.8-2.6c-0.5,1.3-1.5,2.3-2.9,2.8l-0.6-0.8c1.8-0.6,2.9-2.1,2.9-3.8v-0.5
			h-2.6v-0.9h6.3v0.9h-2.6v0.5c0,1.5,1.1,3,2.8,3.6L772.9,1862.9z M768.1,1864h7.6v4h-1.1v-3.2h-6.5V1864z M777.4,1860.3h-1.7v3.1
			h-1.1v-7h1.1v3.1h1.7V1860.3z"/>
		<path class="st8" d="M784.9,1862.7c-1.3-0.5-2.3-1.4-2.8-2.6c-0.5,1.4-1.5,2.4-3,3l-0.6-0.9c1.8-0.6,3-2.2,3-4v-1.2h1.1v1.2
			c0,1.7,1.1,3.1,2.8,3.7L784.9,1862.7z M788.3,1865.8c0,1.4-1.5,2.2-3.9,2.2s-3.9-0.8-3.9-2.2c0-1.4,1.5-2.2,3.9-2.2
			S788.3,1864.4,788.3,1865.8z M787.2,1865.8c0-0.9-1.1-1.4-2.8-1.4s-2.8,0.5-2.8,1.4c0,0.8,1.1,1.4,2.8,1.4
			S787.2,1866.6,787.2,1865.8z M787.1,1859.7h-2.5v-0.9h2.5v-2.5h1.1v6.9h-1.1V1859.7z"/>
		<path class="st8" d="M794.5,1859.9c0,1.9,1.3,3.9,3,4.7l-0.6,0.9c-1.3-0.6-2.4-2-2.9-3.6c-0.5,1.7-1.7,3.2-3,3.9l-0.6-0.8
			c1.7-0.8,3.1-3,3.1-5v-1.5h-2.7v-0.9h6.3v0.9h-2.6V1859.9z M801.5,1861.9h-1.9v6.1h-1.1v-11.6h1.1v4.7h1.9V1861.9z"/>
		<path class="st8" d="M805.9,1856.7h0.9l-3.9,12.6H802L805.9,1856.7z"/>
		<path class="st8" d="M813.6,1857.1c0,3-2.1,5-5.4,6l-0.4-0.8c2.8-0.8,4.5-2.3,4.7-4.3h-4.1v-0.9L813.6,1857.1L813.6,1857.1z
			 M809.7,1863.5h7.5v4.3h-7.5V1863.5z M810.7,1867h5.4v-2.6h-5.4V1867z M817.2,1856.3v6.7h-1.1v-2.8h-2.5v-0.9h2.5v-3L817.2,1856.3
			L817.2,1856.3z"/>
		<path class="st8" d="M830.2,1865.7v0.9h-10.6v-0.9h4.8v-2.4H821v-6h7.9v0.9H822v1.6h6.6v0.8H822v1.8h6.9v0.9h-3.6v2.4
			L830.2,1865.7L830.2,1865.7z"/>
		<path class="st8" d="M835.5,1859.9c0,1.9,1.3,3.9,3,4.7l-0.6,0.9c-1.3-0.6-2.4-2-2.9-3.6c-0.5,1.7-1.7,3.2-3,3.9l-0.6-0.8
			c1.7-0.8,3.1-3,3.1-5v-1.5h-2.7v-0.9h6.3v0.9h-2.6V1859.9z M842.4,1861.9h-1.9v6.1h-1.1v-11.6h1.1v4.7h1.9V1861.9z"/>
	</g>
	<g class="st3">
		<path class="st8" d="M705,1881.9c0,2,1.4,4,3.1,4.7l-0.6,0.9c-1.4-0.6-2.5-2-3.1-3.6c-0.5,1.7-1.7,3.2-3,3.8l-0.6-0.9
			c1.7-0.8,3.1-3,3.1-5v-1.5h-2.7v-0.9h6.5v0.9H705V1881.9z M710.4,1878.3v11.6h-1.1v-11.6H710.4z"/>
		<path class="st8" d="M719.2,1884.8c-1.3-0.5-2.3-1.4-2.8-2.6c-0.5,1.4-1.6,2.4-2.9,3l-0.6-0.8c1.7-0.6,2.9-2.2,2.9-3.9v-0.4h-2.6
			v-0.9h6.2v0.9h-2.6v0.4c0,1.5,1.1,3,2.8,3.6L719.2,1884.8z M722.5,1887.8c0,1.4-1.5,2.2-3.9,2.2s-3.9-0.8-3.9-2.2s1.5-2.2,3.9-2.2
			S722.5,1886.4,722.5,1887.8z M721.4,1887.8c0-0.8-1.1-1.4-2.8-1.4s-2.8,0.5-2.8,1.4s1.1,1.3,2.8,1.3S721.4,1888.7,721.4,1887.8z
			 M721.3,1881.4v-3h1.1v6.9h-1.1v-3.1H719v-0.9L721.3,1881.4L721.3,1881.4z"/>
		<path class="st8" d="M733.7,1883.9h-5.4v-4.8h5.4V1883.9z M734.1,1886.6c0,1.1,1.8,2.2,3.8,2.5l-0.4,0.8c-1.8-0.2-3.3-1.1-4-2.1
			c-0.7,1.1-2.3,1.9-4.1,2.1l-0.4-0.8c2-0.2,3.8-1.3,3.9-2.5h-3.4v-0.8h3.4v-1.1h1.1v1.1h3.4v0.8H734.1z M732.7,1879.9h-3.4v3.1h3.4
			V1879.9z M737.2,1885h-1.1v-6.7h1.1V1885z"/>
		<path class="st8" d="M749.5,1884.4c-2.2,0.4-4.9,0.4-6.8,0.4l-0.1-0.9c0.4,0,0.9,0,1.5,0v-3.9h-1.2v-0.9h6.1v0.9h-1.2v3.7
			c0.5,0,1-0.1,1.5-0.1L749.5,1884.4z M752.2,1887.9c0,1.4-1.5,2.1-3.9,2.1s-3.9-0.8-3.9-2.1c0-1.3,1.5-2.1,3.9-2.1
			S752.2,1886.5,752.2,1887.9z M745.1,1883.9c0.6,0,1.2,0,1.8-0.1v-3.8h-1.8V1883.9z M751.1,1887.9c0-0.8-1.1-1.3-2.8-1.3
			s-2.8,0.5-2.8,1.3s1.1,1.3,2.8,1.3S751.1,1888.7,751.1,1887.9z M751.1,1883.4h-1.9v-0.9h1.9v-1.2h-1.9v-0.9h1.9v-2.1h1.1v7.2h-1.1
			V1883.4z"/>
		<path class="st8" d="M760.5,1879.6c0,3.3-1.5,6.3-5.3,8.2l-0.6-0.8c3-1.5,4.6-3.7,4.8-6.5h-4.3v-0.9L760.5,1879.6L760.5,1879.6z
			 M765.4,1884h-1.9v6h-1.1v-11.7h1.1v4.7h1.9V1884z"/>
		<path class="st8" d="M772.1,1880.9c-0.7,1.8-2.5,3.1-5.1,3.7l-0.4-0.9c2.8-0.7,4.5-2.1,4.7-3.9h-4.1v-0.9h5.2c0,0.4,0,0.8-0.1,1.1
			h2.6v-1.7h1.1v6h-1v-1.2h-3v-0.8h3v-1.4L772.1,1880.9L772.1,1880.9z M776.5,1889v0.8h-7.9v-3h6.4v-1.2h-6.4v-0.9h7.5v2.9h-6.4v1.4
			L776.5,1889L776.5,1889z"/>
		<path class="st8" d="M781.8,1886.5c1.3-0.1,2.6-0.1,3.8-0.3l0.1,0.8c-2.4,0.4-5.2,0.4-7.2,0.4l-0.1-0.9c0.7,0,1.6,0,2.5,0v-3.6
			h1.1v3.6H781.8z M783.5,1884.8c0.3-1.9,0.4-3.4,0.4-4.3H779v-0.9h5.9v0.6c0,0.9,0,2.5-0.3,4.6L783.5,1884.8z M789.2,1884.1h-1.9
			v5.9h-1.1v-11.7h1.1v4.9h1.9V1884.1z"/>
		<path class="st8" d="M803.9,1883.9v0.9h-10.5v-0.9H803.9z M802.8,1883c-1.8-0.3-3.5-1.2-4.3-2.5c-0.7,1.3-2.5,2.3-4.3,2.5
			l-0.4-0.8c2.1-0.3,4.1-1.6,4.1-3.1v-0.5h1.1v0.5c0,1.5,2,2.8,4.1,3.1L802.8,1883z M802.6,1887.9c0,1.3-1.5,2.1-4,2.1s-4-0.7-4-2.1
			c0-1.3,1.5-2.1,4-2.1S802.6,1886.6,802.6,1887.9z M801.5,1887.9c0-0.8-1.1-1.2-2.9-1.2c-1.8,0-2.9,0.5-2.9,1.2
			c0,0.8,1.1,1.2,2.9,1.2C800.4,1889.2,801.5,1888.7,801.5,1887.9z"/>
		<path class="st8" d="M808.6,1884.9c-1.7,0-3-1.2-3-2.9c0-1.7,1.3-2.9,3-2.9s3.1,1.2,3.1,2.9
			C811.6,1883.7,810.3,1884.9,808.6,1884.9z M808.6,1884c1.2,0,2-0.8,2-2c0-1.1-0.9-1.9-2-1.9s-2,0.8-2,1.9
			C806.6,1883.2,807.4,1884,808.6,1884z M815.2,1888.9v0.9h-7.9v-3.7h1.1v2.9h6.8V1888.9z M814.8,1886.9h-1.1v-8.5h1.1V1886.9z"/>
	</g>
	<g class="st3">
		<path class="st8" d="M693.6,1906.8c0-1.1,0.8-1.8,1.6-1.8c0.9,0,1.6,0.7,1.6,1.8c0,1-0.8,1.7-1.6,1.7
			C694.4,1908.6,693.6,1907.9,693.6,1906.8z"/>
		<path class="st8" d="M708.3,1906.4c-2.4,0.4-5.2,0.5-7.3,0.5l-0.1-0.9c0.7,0,1.6,0,2.5,0v-2.5h1.1v2.5c1.3-0.1,2.6-0.2,3.8-0.3
			V1906.4z M706.1,1904.8c0.3-1.3,0.3-2.3,0.3-3.1h-4.8v-0.9h5.8v0.6c0,0.8,0,1.9-0.3,3.5L706.1,1904.8z M703.8,1910.5h6.7v0.9h-7.7
			v-3.4h1.1L703.8,1910.5L703.8,1910.5z M711.8,1903.8v0.9h-1.7v4.1H709v-8.8h1.1v3.8H711.8z"/>
		<path class="st8" d="M719.3,1906.7c-1.5,0.3-2.7,0.3-5,0.3h-0.8v-3.6h3.9v-1.7h-4v-0.9h5v3.4h-4v1.9c2.1,0,3.2-0.1,4.6-0.3
			L719.3,1906.7z M722.9,1910.5v0.9H715v-3.4h1.1v2.5H722.9z M721.5,1905.4h-2.3v-0.9h2.3v-1.7h-2.3v-0.9h2.3v-2h1.1v8.6h-1.1
			V1905.4z"/>
		<path class="st8" d="M738.4,1909.3v0.9h-10.6v-0.9h4.8v-2.8h1.1v2.8H738.4z M728.4,1906c2-0.3,4.2-2,4.2-3.8v-0.2h-3.9v-0.9h8.8
			v0.9h-3.9v0.2c0,1.9,2.2,3.5,4.3,3.8l-0.4,0.9c-1.8-0.4-3.6-1.5-4.4-3.1c-0.7,1.6-2.6,2.8-4.3,3.1L728.4,1906z"/>
		<path class="st8" d="M744.1,1903.7c0,2,1.3,3.8,3.1,4.6l-0.6,0.8c-1.3-0.6-2.4-1.9-3-3.4c-0.5,1.6-1.6,3-3,3.6l-0.6-0.8
			c1.7-0.8,3-2.8,3-4.8v-0.9h-2.7v-0.9h2.7v-1.8h1.1v1.8h2.7v0.9h-2.7V1903.7z M749.4,1900v11.7h-1.1V1900H749.4z"/>
		<path class="st8" d="M760.7,1905.5h-5.4v-4.8h5.4V1905.5z M761.1,1908.3c0,1.1,1.8,2.2,3.8,2.5l-0.4,0.8c-1.8-0.2-3.3-1.1-4-2.1
			c-0.7,1.1-2.3,1.9-4.1,2.1l-0.4-0.8c2-0.2,3.8-1.3,3.9-2.5h-3.4v-0.8h3.4v-1.1h1.1v1.1h3.4v0.8H761.1z M759.7,1901.6h-3.4v3.1h3.4
			V1901.6z M764.2,1906.7h-1.1v-6.7h1.1V1906.7z"/>
		<path class="st8" d="M775.9,1904.9c0,2.5-1.2,4.1-3,4.1c-1.7,0-3-1.6-3-4.1s1.2-4.1,3-4.1C774.7,1900.9,775.9,1902.5,775.9,1904.9
			z M771,1904.9c0,1.9,0.8,3.1,2,3.1c1.1,0,1.9-1.2,1.9-3.1s-0.8-3.1-1.9-3.1C771.8,1901.8,771,1903.1,771,1904.9z M779.1,1900v11.7
			H778V1900H779.1z"/>
		<path class="st8" d="M787.4,1902.2h-5.9v-0.8h2.4v-1.3h1.1v1.3h2.4V1902.2z M784.4,1906.8c-1.5,0-2.5-0.8-2.5-2s1-2,2.5-2
			s2.5,0.8,2.5,2S785.9,1906.8,784.4,1906.8z M784.4,1906c0.9,0,1.5-0.5,1.5-1.2s-0.6-1.2-1.5-1.2s-1.5,0.5-1.5,1.2
			S783.5,1906,784.4,1906z M791.4,1909.6c0,1.3-1.5,2-3.9,2s-3.9-0.7-3.9-2s1.5-2,3.9-2C790,1907.5,791.4,1908.3,791.4,1909.6z
			 M790.4,1909.6c0-0.8-1.1-1.2-2.8-1.2c-1.8,0-2.8,0.4-2.8,1.2c0,0.8,1.1,1.2,2.8,1.2C789.3,1910.8,790.4,1910.4,790.4,1909.6z
			 M788.8,1906.9h-1v-6.7h1v3h1.5v-3.2h1v7.4h-1v-3.3h-1.5V1906.9z"/>
		<path class="st8" d="M797.4,1903.1c0,2.1,1.3,4.2,3,5l-0.7,0.8c-1.2-0.7-2.3-2-2.8-3.6c-0.5,1.7-1.6,3.2-2.9,3.9l-0.6-0.9
			c1.7-0.9,3-3.1,3-5.2v-2.1h1.1L797.4,1903.1L797.4,1903.1z M804.4,1905.6h-1.9v6h-1.1V1900h1.1v4.7h1.9V1905.6z"/>
		<path class="st8" d="M812.4,1902.1h-6.9v-0.9h2.9v-1.4h1.1v1.4h2.9V1902.1z M808.9,1906.8c-1.7,0-2.8-0.8-2.8-2.1
			c0-1.2,1.1-2.1,2.8-2.1s2.8,0.8,2.8,2.1S810.6,1906.8,808.9,1906.8z M814.6,1909.6c0,1.3-1.5,2-3.8,2c-2.4,0-3.8-0.7-3.8-2
			s1.4-2,3.8-2C813.2,1907.6,814.6,1908.3,814.6,1909.6z M808.9,1906c1.1,0,1.8-0.5,1.8-1.3s-0.7-1.2-1.8-1.2s-1.8,0.5-1.8,1.2
			C807.1,1905.5,807.8,1906,808.9,1906z M813.6,1909.6c0-0.8-1-1.2-2.7-1.2s-2.7,0.4-2.7,1.2s1,1.2,2.7,1.2
			C812.5,1910.8,813.6,1910.4,813.6,1909.6z M816.2,1903.2v0.9h-1.7v3.4h-1.1v-7.5h1.1v3.2H816.2z"/>
	</g>
	<g class="st3">
		<path class="st8" d="M707.8,1928.5c-1.3-0.5-2.3-1.4-2.8-2.6c-0.5,1.4-1.6,2.4-2.9,3l-0.6-0.8c1.7-0.6,2.9-2.2,2.9-3.9v-0.4h-2.6
			v-0.9h6.2v0.9h-2.6v0.4c0,1.5,1.1,3,2.8,3.6L707.8,1928.5z M711.1,1931.5c0,1.4-1.5,2.2-3.9,2.2s-3.9-0.8-3.9-2.2s1.5-2.2,3.9-2.2
			C709.7,1929.3,711.1,1930.1,711.1,1931.5z M710.1,1931.5c0-0.8-1.1-1.4-2.8-1.4s-2.8,0.5-2.8,1.4s1.1,1.3,2.8,1.3
			S710.1,1932.3,710.1,1931.5z M710,1925v-3h1.1v6.9H710v-3.1h-2.3v-0.9L710,1925L710,1925z"/>
		<path class="st8" d="M724,1931.3v0.9h-10.6v-0.9h4.7v-2.5h-3.5v-6h1.1v2.1h6v-2.1h1v6h-3.5v2.5H724z M715.8,1927.9h6v-2.1h-6
			V1927.9z"/>
		<path class="st8" d="M738.9,1931.3v0.9h-10.6v-0.9h4.7v-2.5h-3.5v-6h1.1v2.1h6v-2.1h1v6h-3.5v2.5H738.9z M730.6,1927.9h6v-2.1h-6
			V1927.9z"/>
		<path class="st8" d="M750.9,1931.1v0.9h-10.5v-0.9h4.1v-4.2h1.1v4.2H750.9z M748.5,1924h-7.1v-0.9h8.2v1.2c0,1.4,0,3-0.4,5.4
			l-1.1-0.1c0.4-2.2,0.4-3.9,0.4-5.3L748.5,1924L748.5,1924z"/>
	</g>
	<path id="패스_1887" class="st4" d="M461.4,1954.9h191.1v-162.2H461.4V1954.9z"/>
	<path id="패스_1884-4" class="st2" d="M461.4,1793.1h191.1v-56.6H461.4V1793.1z"/>
	<g class="st3">
		<path class="st4" d="M526.1,1757.4c2,0,3.8-0.1,5.8-0.4l0.2,1.2c-2.2,0.4-4.1,0.4-6.3,0.4h-1.1v-5h4.4v-2.4h-4.4v-1.2h5.9v4.7
			h-4.4v2.7H526.1z M534.3,1748.9v12.7h-1.5v-12.7H534.3z"/>
		<path class="st4" d="M548.2,1758.8v1.2h-11.5v-1.2H548.2z M547.1,1756.3c-2.1-0.4-3.8-1.7-4.7-3.5c-0.8,1.7-2.6,3.1-4.7,3.5
			l-0.6-1.2c2.5-0.5,4.5-2.4,4.5-4.4v-1h1.5v1c0,2,2,4,4.5,4.4L547.1,1756.3z"/>
		<path class="st4" d="M561.1,1758.8v1.2h-11.4v-1.2H561.1z M558.3,1753.7c0-0.7,0-1.3,0-2v-0.4H551v-1.2h8.8v1.5
			c0,1.8,0,3.6-0.6,6.2l-1.4-0.1c0.3-1.1,0.4-2.1,0.5-3.1l-7.5,0.4l-0.2-1.2L558.3,1753.7z"/>
		<path class="st4" d="M572.5,1756c-1.4-0.5-2.4-1.5-3-2.7c-0.6,1.4-1.6,2.5-3.1,3l-0.7-1.1c2-0.7,3.1-2.4,3.1-4.1v-0.2h-2.7v-1.2
			h6.8v1.2h-2.6v0.2c0,1.6,1.1,3.2,3,3.8L572.5,1756z M567.8,1756.9h8.3v4.6h-8.3V1756.9z M569.3,1760.3h5.5v-2.3h-5.5V1760.3z
			 M576.2,1749v7.4h-1.4v-3.1h-2.2v-1.2h2.2v-3.1L576.2,1749L576.2,1749z"/>
		<path class="st4" d="M585.1,1749.7c0,3.3-2.2,5.5-5.8,6.6l-0.6-1.1c2.9-0.8,4.6-2.3,4.9-4.3h-4.2v-1.2H585.1z M580.8,1756.6h8.2
			v4.8h-8.2V1756.6z M582.2,1760.3h5.4v-2.5h-5.4V1760.3z M589,1749v7.2h-1.4v-2.8h-2.5v-1.2h2.5v-3.2H589z"/>
	</g>
	<g class="st3">
		<path class="st4" d="M535.3,1776.2h-5v4.4h-1.4v-4.4h-5v-1.2h11.4V1776.2z M524.5,1773c2.4-0.3,4.2-1.7,4.3-3.2h-3.9v-1.2h9.3v1.2
			h-3.8c0.1,1.5,1.9,2.9,4.3,3.2l-0.5,1.1c-2.1-0.3-3.8-1.3-4.6-2.7c-0.8,1.4-2.5,2.4-4.6,2.7L524.5,1773z"/>
		<path class="st4" d="M544.6,1775.1c-2.6,0.5-5.6,0.5-7.8,0.5l-0.2-1.2c0.8,0,1.6,0,2.5,0v-2.6h1.4v2.5c1.3-0.1,2.7-0.1,3.9-0.3
			L544.6,1775.1z M542,1773.2c0.3-1.4,0.3-2.4,0.3-3.1h-4.9v-1.2h6.4v0.7c0,0.9,0,2.1-0.3,3.7L542,1773.2z M540,1779.2h7.1v1.2h-8.6
			v-3.8h1.5V1779.2z M548.4,1772v1.2h-1.7v4.3h-1.5v-9.5h1.5v4H548.4z"/>
		<path class="st4" d="M564.3,1776.5h-5.1v4.1h-1.4v-4.1h-5v-1.2h11.5V1776.5z M562.8,1774h-8.7v-5.5h1.4v1.6h5.8v-1.6h1.4
			L562.8,1774L562.8,1774z M561.4,1771.2h-5.8v1.6h5.8V1771.2z"/>
		<path class="st4" d="M570.3,1771.1c0,2.4,1.2,4.7,3.1,5.5l-0.9,1.2c-1.4-0.7-2.5-2.1-3-3.8c-0.6,1.8-1.6,3.3-3,4l-0.9-1.1
			c2-1,3.2-3.4,3.2-5.8v-2.1h1.5L570.3,1771.1L570.3,1771.1z M576.2,1767.9v12.7h-1.5v-7.4H572v-1.2h2.7v-4.2L576.2,1767.9
			L576.2,1767.9z"/>
		<path class="st4" d="M585.3,1775c-1.4-0.4-2.4-1.4-3-2.5c-0.6,1.3-1.6,2.4-3.1,2.9l-0.7-1.1c2-0.7,3.1-2.3,3.1-4v-0.3h-2.7v-1.2
			h6.8v1.2H583v0.2c0,1.6,1.1,3,3,3.7L585.3,1775z M588.6,1778.2c0,1.5-1.6,2.4-4.2,2.4s-4.2-0.9-4.2-2.4s1.6-2.4,4.2-2.4
			S588.6,1776.7,588.6,1778.2z M587.1,1778.2c0-0.8-1-1.3-2.8-1.3s-2.8,0.4-2.8,1.3c0,0.8,1,1.3,2.8,1.3S587.1,1779,587.1,1778.2z
			 M590.2,1771.1v1.2h-1.8v3.3H587v-7.6h1.4v3.1H590.2z"/>
	</g>
	<g class="st3">
		<path class="st8" d="M484.7,1819.6c0-1.1,0.8-1.8,1.6-1.8c0.9,0,1.6,0.7,1.6,1.8c0,1-0.8,1.7-1.6,1.7
			C485.5,1821.3,484.7,1820.6,484.7,1819.6z"/>
		<path class="st8" d="M493.8,1820.4c1.1,0,2.4-0.1,3.7-0.4l0.1,0.9c-1.6,0.3-2.9,0.4-4.2,0.4h-0.7v-7.2h1.1V1820.4z M502,1812.7
			v11.6h-1v-6h-1.7v5.4h-1V1813h1v4.5h1.7v-4.7h1V1812.7z"/>
		<path class="st8" d="M514.7,1820.5h-4.8v3.9h-1.1v-3.9h-4.7v-0.9h10.6V1820.5z M513.3,1818.2h-7.9v-5h1.1v1.6h5.8v-1.6h1.1
			L513.3,1818.2L513.3,1818.2z M512.3,1815.6h-5.8v1.7h5.8V1815.6z"/>
		<path class="st8" d="M522.6,1818.8c-1.3-0.5-2.4-1.5-2.9-2.7c-0.5,1.4-1.6,2.4-3,2.9l-0.5-0.8c1.8-0.6,3-2.2,3-3.9v-1.1h1.1v1.1
			c0,1.7,1.2,3.1,3,3.7L522.6,1818.8z M518.1,1820h7.5v4.2h-7.5V1820z M519.1,1823.3h5.5v-2.5h-5.5V1823.3z M525.6,1812.7v6.6h-1.1
			v-6.6H525.6z"/>
		<path class="st8" d="M531.9,1815.8c0,2.1,1.3,4.2,3,5l-0.7,0.8c-1.2-0.7-2.3-2-2.8-3.6c-0.5,1.7-1.6,3.2-2.9,3.9l-0.6-0.9
			c1.7-0.9,3-3.1,3-5.2v-2.1h1.1L531.9,1815.8L531.9,1815.8z M538.9,1818.3H537v6h-1.1v-11.6h1.1v4.7h1.9V1818.3z"/>
		<path class="st8" d="M548.9,1818.2h-5.4v-4.8h5.4V1818.2z M549.3,1821c0,1.1,1.8,2.2,3.8,2.5l-0.4,0.8c-1.8-0.2-3.3-1.1-4-2.1
			c-0.7,1.1-2.3,1.9-4.1,2.1l-0.4-0.8c2-0.2,3.8-1.3,3.9-2.5h-3.4v-0.8h3.4v-1.1h1.1v1.1h3.4v0.8H549.3z M547.9,1814.3h-3.4v3.1h3.4
			V1814.3z M552.4,1819.4h-1.1v-6.7h1.1V1819.4z"/>
		<path class="st8" d="M563.4,1815.7c-0.8,1.9-2.5,3.2-5,4l-0.4-0.8c2.8-0.8,4.5-2.4,4.7-4.4h-4.1v-0.9h5.3c0,0.4-0.1,0.9-0.1,1.3
			h2.6v-2.1h1.1v7h-1.1v-1.5h-3.1v-0.9h3.1v-1.6L563.4,1815.7L563.4,1815.7z M567.4,1822.1c0,1.4-1.5,2.2-3.9,2.2s-3.9-0.8-3.9-2.2
			s1.5-2.2,3.9-2.2C565.9,1819.8,567.4,1820.7,567.4,1822.1z M566.4,1822.1c0-0.9-1.1-1.4-2.8-1.4s-2.8,0.5-2.8,1.4s1.1,1.4,2.8,1.4
			C565.3,1823.5,566.4,1822.9,566.4,1822.1z"/>
		<path class="st8" d="M575.3,1817.9c-0.5,0.6-1.4,1-2.4,1c-1.7,0-3-1.1-3-2.8c0-1.6,1.3-2.8,3-2.8c1,0,1.8,0.4,2.4,1h3v-1.7h1.1
			v6.9h-1.1v-1.7L575.3,1817.9L575.3,1817.9z M572.9,1818c1.1,0,2-0.8,2-1.9s-0.8-1.9-2-1.9c-1.1,0-2,0.8-2,1.9
			C570.9,1817.3,571.8,1818,572.9,1818z M579.4,1822.1c0,1.4-1.5,2.2-3.9,2.2s-3.9-0.8-3.9-2.2c0-1.4,1.5-2.2,3.9-2.2
			S579.4,1820.7,579.4,1822.1z M578.3,1822.1c0-0.9-1.1-1.4-2.8-1.4c-1.8,0-2.8,0.5-2.8,1.4s1.1,1.4,2.8,1.4
			C577.3,1823.5,578.3,1823,578.3,1822.1z M575.8,1815.2c0.1,0.3,0.1,0.6,0.1,0.9s-0.1,0.6-0.2,0.9h2.5v-1.8H575.8z"/>
		<path class="st8" d="M587.7,1813.4c0,3-2.1,5-5.4,6l-0.4-0.8c2.8-0.8,4.5-2.3,4.7-4.3h-4.1v-0.9L587.7,1813.4L587.7,1813.4z
			 M583.8,1819.9h7.5v4.3h-7.5V1819.9z M584.8,1823.3h5.4v-2.6h-5.4V1823.3z M591.3,1812.7v6.7h-1.1v-2.8h-2.5v-0.9h2.5v-3
			L591.3,1812.7L591.3,1812.7z"/>
		<path class="st8" d="M604.2,1822v0.9h-10.6v-0.9h4.8v-2.4H595v-6h7.9v0.9h-6.8v1.6h6.6v0.8h-6.6v1.8h6.9v0.9h-3.6v2.4L604.2,1822
			L604.2,1822z"/>
	</g>
	<g class="st3">
		<path class="st8" d="M484.7,1845.4c0-1.1,0.8-1.8,1.6-1.8c0.9,0,1.6,0.7,1.6,1.8c0,1-0.8,1.7-1.6,1.7
			C485.5,1847.2,484.7,1846.5,484.7,1845.4z"/>
		<path class="st8" d="M498.5,1843.5c0,2.5-1.2,4.1-3,4.1c-1.7,0-3-1.6-3-4.1s1.2-4.1,3-4.1C497.3,1839.5,498.5,1841,498.5,1843.5z
			 M493.6,1843.5c0,1.9,0.8,3.1,2,3.1c1.1,0,1.9-1.2,1.9-3.1s-0.8-3.1-1.9-3.1C494.4,1840.4,493.6,1841.6,493.6,1843.5z
			 M501.7,1838.6v11.7h-1.1v-11.7H501.7z"/>
		<path class="st8" d="M510,1840.8h-6v-0.8h2.4v-1.3h1.1v1.3h2.4L510,1840.8z M507,1845.4c-1.5,0-2.5-0.8-2.5-2s1-2,2.5-2
			s2.5,0.8,2.5,2S508.5,1845.4,507,1845.4z M507,1844.6c0.9,0,1.5-0.5,1.5-1.2s-0.6-1.2-1.5-1.2s-1.5,0.5-1.5,1.2
			S506.1,1844.6,507,1844.6z M514,1848.2c0,1.3-1.5,2-3.9,2s-3.9-0.7-3.9-2s1.5-2,3.9-2C512.5,1846.1,514,1846.9,514,1848.2z
			 M512.9,1848.2c0-0.8-1.1-1.2-2.8-1.2c-1.8,0-2.8,0.4-2.8,1.2c0,0.8,1.1,1.2,2.8,1.2C511.9,1849.4,512.9,1848.9,512.9,1848.2z
			 M511.4,1845.5h-1v-6.7h1v3h1.5v-3.2h1v7.4h-1v-3.3h-1.5L511.4,1845.5L511.4,1845.5z"/>
		<path class="st8" d="M525.7,1838.6v11.7h-1.1v-4.5h-2.9c-0.5,1.2-1.4,1.9-2.5,1.9c-1.7,0-2.9-1.6-2.9-4.1s1.2-4.1,2.9-4.1
			c1.1,0,1.9,0.6,2.4,1.7h3v-2.6H525.7z M521.1,1843.5c0-1.9-0.8-3.1-1.9-3.1c-1.1,0-1.9,1.2-1.9,3.1s0.8,3.1,1.9,3.1
			S521.1,1845.4,521.1,1843.5z M524.6,1844.9v-2.8h-2.7c0.1,0.5,0.2,0.9,0.2,1.5c0,0.5-0.1,0.9-0.1,1.3H524.6z"/>
		<path class="st8" d="M538.6,1846.3h-4.8v3.9h-1.1v-3.9H528v-0.9h10.6V1846.3z M537.2,1844.1h-7.9v-5h1.1v1.6h5.8v-1.6h1.1
			L537.2,1844.1L537.2,1844.1z M536.2,1841.5h-5.8v1.7h5.8V1841.5z"/>
		<path class="st8" d="M549.2,1845c-1.3-0.5-2.3-1.4-2.8-2.6c-0.5,1.3-1.6,2.4-2.9,2.9l-0.6-0.8c1.7-0.6,2.9-2.2,2.9-3.8v-0.4h-2.6
			v-0.9h6.2v0.9h-2.6v0.4c0,1.5,1.1,3,2.8,3.6L549.2,1845z M544.9,1846h7.6v4.1h-7.6V1846z M546,1849.2h5.5v-2.4H546V1849.2z
			 M552.5,1838.6v6.8h-1.1v-3h-2.3v-0.9h2.3v-2.9H552.5z"/>
		<path class="st8" d="M560.8,1839.3c0,3-2.1,5-5.4,6l-0.4-0.8c2.8-0.8,4.5-2.3,4.7-4.3h-4.1v-0.9L560.8,1839.3L560.8,1839.3z
			 M556.9,1845.7h7.5v4.3h-7.5V1845.7z M558,1849.2h5.4v-2.6H558V1849.2z M564.5,1838.6v6.7h-1.1v-2.8h-2.5v-0.9h2.5v-3
			L564.5,1838.6L564.5,1838.6z"/>
		<path class="st8" d="M575.8,1844.1h-5.4v-4.8h5.4V1844.1z M576.1,1846.9c0,1.1,1.8,2.2,3.8,2.5l-0.4,0.8c-1.8-0.2-3.3-1.1-4-2.1
			c-0.7,1.1-2.3,1.9-4.1,2.1l-0.4-0.8c2-0.2,3.8-1.3,3.9-2.5h-3.4v-0.8h3.4v-1.1h1.1v1.1h3.4v0.8H576.1z M574.7,1840.2h-3.4v3.1h3.4
			V1840.2z M579.3,1845.3h-1.1v-6.7h1.1V1845.3z"/>
	</g>
	<g class="st3">
		<path class="st8" d="M496.8,1862.1c0,3-1.1,5.8-4.4,7.7l-0.6-0.8c2.7-1.5,3.8-3.6,3.9-6h-3.5v-0.9L496.8,1862.1L496.8,1862.1z
			 M501.7,1860.6v11.7h-1v-6.1h-1.6v5.5h-1v-10.8h1v4.4h1.6v-4.7H501.7z"/>
		<path class="st8" d="M510,1867.3c-1.3-0.5-2.3-1.5-2.8-2.8c-0.5,1.4-1.5,2.5-2.9,3l-0.6-0.8c1.7-0.6,2.9-2.3,2.9-4.1v-1.4h1.1v1.5
			c0,1.6,1.1,3.2,2.8,3.8L510,1867.3z M513.7,1871.1v0.9h-7.8v-3.6h1.1v2.8h6.7V1871.1z M512.3,1864.2h-2.5v-0.9h2.5v-2.7h1.1v8.7
			h-1.1V1864.2z"/>
		<path class="st8" d="M519.6,1863.7c0,2.1,1.3,4.2,3,5l-0.7,0.8c-1.2-0.7-2.3-2-2.8-3.6c-0.5,1.7-1.6,3.2-2.9,3.9l-0.6-0.9
			c1.7-0.9,3-3.1,3-5.2v-2.1h1.1L519.6,1863.7L519.6,1863.7z M526.6,1866.2h-1.9v6h-1.1v-11.6h1.1v4.7h1.9V1866.2z"/>
		<path class="st8" d="M534.6,1862.7h-6.9v-0.9h2.9v-1.4h1.1v1.4h2.9V1862.7z M531.2,1867.4c-1.7,0-2.8-0.8-2.8-2.1
			c0-1.2,1.1-2.1,2.8-2.1s2.8,0.8,2.8,2.1S532.8,1867.4,531.2,1867.4z M536.9,1870.2c0,1.3-1.5,2-3.8,2c-2.4,0-3.8-0.7-3.8-2
			s1.4-2,3.8-2C535.4,1868.2,536.9,1868.9,536.9,1870.2z M531.2,1866.6c1.1,0,1.8-0.5,1.8-1.3s-0.7-1.2-1.8-1.2s-1.8,0.5-1.8,1.2
			C529.4,1866.1,530.1,1866.6,531.2,1866.6z M535.8,1870.2c0-0.8-1-1.2-2.7-1.2s-2.7,0.4-2.7,1.2s1,1.2,2.7,1.2
			S535.8,1870.9,535.8,1870.2z M538.5,1863.8v0.9h-1.7v3.4h-1.1v-7.5h1.1v3.2H538.5z"/>
	</g>
	<g class="st3">
		<path class="st8" d="M553.5,1869.8v0.9h-10.6v-0.9h2.6v-3.1c-1-0.5-1.6-1.4-1.6-2.4c0-1.8,1.8-3,4.2-3c2.5,0,4.2,1.2,4.2,3
			c0,1.1-0.6,1.9-1.5,2.4v3.2L553.5,1869.8L553.5,1869.8z M545,1864.3c0,1.3,1.3,2.2,3.2,2.2s3.2-0.9,3.2-2.2c0-1.3-1.4-2.2-3.2-2.2
			S545,1863,545,1864.3z M546.6,1869.8h3.2v-2.7c-0.5,0.1-1.1,0.2-1.6,0.2c-0.6,0-1.1-0.1-1.6-0.2L546.6,1869.8L546.6,1869.8z"/>
		<path class="st8" d="M565.5,1867.2h-4.8v5h-1.1v-5h-4.7v-0.9h7.7c0.4-1.7,0.4-2.9,0.4-4v-0.2h-6.8v-0.9h7.8v1c0,1.1,0,2.3-0.3,4
			h1.7L565.5,1867.2L565.5,1867.2z"/>
	</g>
	<g class="st3">
		<path class="st8" d="M484.7,1889.1c0-1.1,0.8-1.8,1.6-1.8c0.9,0,1.6,0.7,1.6,1.8c0,1-0.8,1.7-1.6,1.7
			C485.5,1890.8,484.7,1890.1,484.7,1889.1z"/>
		<path class="st8" d="M498.5,1888.6c-1.3-0.5-2.3-1.4-2.8-2.6c-0.5,1.3-1.6,2.4-2.9,2.9l-0.6-0.8c1.7-0.6,2.9-2.2,2.9-3.8v-0.4
			h-2.6v-0.9h6.2v0.9h-2.6v0.4c0,1.5,1.1,3,2.8,3.6L498.5,1888.6z M494.2,1889.6h7.6v4.1h-7.6V1889.6z M495.2,1892.8h5.5v-2.4h-5.5
			V1892.8z M501.7,1882.2v6.8h-1.1v-3h-2.3v-0.9h2.3v-2.9H501.7z"/>
		<path class="st8" d="M510.1,1882.9c0,3-2.1,5-5.4,6l-0.4-0.8c2.8-0.8,4.5-2.3,4.7-4.3h-4.1v-0.9L510.1,1882.9L510.1,1882.9z
			 M506.2,1889.3h7.5v4.3h-7.5V1889.3z M507.2,1892.8h5.4v-2.6h-5.4L507.2,1892.8L507.2,1892.8z M513.7,1882.2v6.7h-1.1v-2.8h-2.5
			v-0.9h2.5v-3L513.7,1882.2L513.7,1882.2z"/>
		<path class="st8" d="M525,1887.7h-5.4v-4.8h5.4V1887.7z M525.4,1890.5c0,1.1,1.8,2.2,3.8,2.5l-0.4,0.8c-1.8-0.2-3.3-1.1-4-2.1
			c-0.7,1.1-2.3,1.9-4.1,2.1l-0.4-0.8c2-0.2,3.8-1.3,3.9-2.5h-3.4v-0.8h3.4v-1.1h1.1v1.1h3.4v0.8H525.4z M524,1883.8h-3.4v3.1h3.4
			V1883.8z M528.5,1888.9h-1.1v-6.7h1.1V1888.9z"/>
		<path class="st8" d="M538.8,1883.7c0,3-1.1,5.8-4.4,7.7l-0.6-0.8c2.7-1.5,3.8-3.6,3.9-6h-3.5v-0.9L538.8,1883.7L538.8,1883.7z
			 M543.7,1882.2v11.7h-1v-6.1h-1.6v5.5h-1v-10.8h1v4.4h1.6v-4.7H543.7z"/>
		<path class="st8" d="M552.1,1889c-1.3-0.5-2.3-1.5-2.8-2.8c-0.5,1.4-1.5,2.5-2.9,3l-0.6-0.8c1.7-0.6,2.9-2.3,2.9-4.1v-1.4h1.1v1.5
			c0,1.6,1.1,3.2,2.8,3.8L552.1,1889z M555.7,1892.7v0.9h-7.8v-3.6h1.1v2.8h6.7V1892.7z M554.3,1885.8h-2.5v-0.9h2.5v-2.7h1.1v8.7
			h-1.1V1885.8z"/>
		<path class="st8" d="M568.3,1891.5v0.9h-10.6v-0.9h2.6v-3.1c-1-0.5-1.6-1.4-1.6-2.4c0-1.8,1.8-3,4.2-3c2.5,0,4.2,1.2,4.2,3
			c0,1.1-0.6,1.9-1.5,2.4v3.2L568.3,1891.5L568.3,1891.5z M559.8,1885.9c0,1.3,1.3,2.2,3.2,2.2s3.2-0.9,3.2-2.2
			c0-1.3-1.4-2.2-3.2-2.2C561.2,1883.8,559.8,1884.6,559.8,1885.9z M561.4,1891.5h3.2v-2.7c-0.5,0.1-1.1,0.2-1.6,0.2
			c-0.6,0-1.1-0.1-1.6-0.2L561.4,1891.5L561.4,1891.5z"/>
		<path class="st8" d="M580.3,1888.8h-4.8v5h-1.1v-5h-4.7v-0.9h7.7c0.4-1.7,0.4-2.9,0.4-4v-0.2H571v-0.9h7.8v1c0,1.1,0,2.3-0.3,4
			h1.7L580.3,1888.8L580.3,1888.8z"/>
		<path class="st8" d="M581.7,1894.7c0.8-0.4,1.3-1,1.3-1.8c-0.1,0-0.1,0-0.1,0c-0.5,0-0.9-0.3-0.9-0.8s0.4-0.8,0.9-0.8
			c0.6,0,1,0.5,1,1.4c0,1.2-0.7,2.2-1.9,2.7L581.7,1894.7z"/>
	</g>
	<g class="st3">
		<path class="st8" d="M497.9,1906.7c-0.7,1.8-2.5,3.1-5.1,3.7l-0.4-0.9c2.8-0.7,4.5-2.1,4.7-3.9H493v-0.9h5.2c0,0.4,0,0.8-0.1,1.1
			h2.6v-1.7h1.1v6h-1.1v-1.2h-3v-0.8h3v-1.4L497.9,1906.7L497.9,1906.7z M502.2,1914.9v0.8h-7.9v-3h6.4v-1.2h-6.4v-0.9h7.5v2.9h-6.4
			v1.4L502.2,1914.9L502.2,1914.9z"/>
		<path class="st8" d="M507.6,1912.4c1.3-0.1,2.6-0.1,3.8-0.3l0.1,0.8c-2.4,0.4-5.2,0.4-7.2,0.4l-0.1-0.9c0.7,0,1.6,0,2.5,0v-3.6
			h1.1v3.6H507.6z M509.2,1910.6c0.3-1.9,0.4-3.4,0.4-4.3h-4.8v-0.9h5.9v0.6c0,0.9,0,2.5-0.3,4.6L509.2,1910.6z M515,1910h-1.9v5.9
			H512v-11.7h1.1v4.9h1.9V1910z"/>
		<path class="st8" d="M526.7,1913.5v0.9h-10.6v-0.9h4.7v-2.5h-3.5v-6h1.1v2.1h6v-2.1h1v6H522v2.5H526.7z M518.5,1910.1h6v-2.1h-6
			V1910.1z"/>
		<path class="st8" d="M538.7,1913.3v0.9h-10.5v-0.9h4.1v-4.2h1.1v4.2H538.7z M536.3,1906.2h-7.1v-0.9h8.2v1.2c0,1.4,0,3-0.4,5.4
			l-1.1-0.1c0.4-2.2,0.4-3.9,0.4-5.3L536.3,1906.2L536.3,1906.2z"/>
	</g>
	<path id="패스_1873-2" class="st9" d="M661.7,1686.1V1955"/>
	<path id="패스_1873-3" class="st9" d="M243.5,1685v269.7"/>
</g>
</svg>
