<?xml version="1.0" encoding="utf-8"?>
<!-- Generator: Adobe Illustrator 25.3.1, SVG Export Plug-In . SVG Version: 6.00 Build 0)  -->
<svg version="1.1" id="레이어_1" xmlns="http://www.w3.org/2000/svg" xmlns:xlink="http://www.w3.org/1999/xlink" x="0px"
	 y="0px" viewBox="0 0 335.1 250" style="enable-background:new 0 0 335.1 250;" xml:space="preserve">
<style type="text/css">
	.st0{fill:#E3F4FA;}
	.st1{fill:#F5F5F5;}
	.st2{fill:#2AA6D3;}
	.st3{fill:none;stroke:#C7C7C7;}
	.st4{enable-background:new    ;}
	.st5{fill:#42454A;}
	.st6{fill:#FFFFFF;}
	.st7{fill:#555555;}
	.st8{display:none;}
	.st9{display:inline;fill:#E3F4FA;}
	.st10{display:inline;fill:#F5F5F5;}
	.st11{display:inline;fill:#2AA6D3;}
	.st12{display:inline;fill:none;stroke:#C7C7C7;}
	.st13{display:inline;enable-background:new    ;}
</style>
<g id="그룹_5772" transform="translate(-20 -1036)">
	<path id="패스_2823" class="st0" d="M125.9,1080H355v-44H125.9V1080z"/>
	<path id="패스_2826" class="st1" d="M126,1183h229.1v-44H126V1183z"/>
	<path id="패스_2829" class="st1" d="M126,1234h229.1v-44H126V1234z"/>
	<path id="패스_2832" class="st1" d="M126,1286h229.1v-44H126V1286z"/>
	<path id="패스_2835" class="st2" d="M125.9,1131.8h72.9v-44h-72.9V1131.8z"/>
	<path id="패스_2838" class="st2" d="M203.8,1131.8h72.9v-44h-72.9V1131.8z"/>
	<path id="패스_2844" class="st3" d="M93.6,1097.9V1070"/>
	<path id="패스_2845" class="st3" d="M100.2,1091.1l-6.6,6.8l-6.6-6.8"/>
	<path id="패스_2846" class="st3" d="M93.6,1284v-59.5"/>
	<path id="패스_3204" class="st3" d="M93.6,1197v-26.4"/>
	<path id="패스_2847" class="st3" d="M100.2,1277.3l-6.6,6.8l-6.6-6.8"/>
	<path id="패스_2848" class="st3" d="M99.5,1120.6v26.7"/>
	<path id="패스_2849" class="st3" d="M92.9,1127.3l6.6-6.8l6.6,6.8"/>
	<path id="패스_2850" class="st3" d="M87.7,1147.3v-27.1"/>
	<path id="패스_2851" class="st3" d="M94.3,1140.5l-6.6,6.8l-6.6-6.8"/>
	<g class="st4">
		<path class="st5" d="M26.4,1129.6c-1.9,0.3-4.1,0.3-5.7,0.3l-0.1-0.7c0.4,0,0.8,0,1.2,0v-3.3h-1v-0.7h5.2v0.7h-1v3.1
			c0.4,0,0.9-0.1,1.3-0.1L26.4,1129.6z M28.7,1132.5c0,1.1-1.3,1.8-3.3,1.8c-2,0-3.3-0.6-3.3-1.8c0-1.1,1.2-1.8,3.3-1.8
			C27.5,1130.7,28.7,1131.4,28.7,1132.5z M22.7,1129.2c0.5,0,1,0,1.5-0.1v-3.2h-1.5V1129.2z M27.8,1132.5c0-0.7-0.9-1.1-2.4-1.1
			c-1.5,0-2.4,0.4-2.4,1.1c0,0.7,0.9,1.1,2.4,1.1C27,1133.6,27.8,1133.2,27.8,1132.5z M27.8,1128.7h-1.6v-0.7h1.6v-1h-1.6v-0.7h1.6
			v-1.7h0.9v6.1h-0.9V1128.7z"/>
		<path class="st5" d="M35.7,1125.5c0,2.8-1.3,5.3-4.5,6.9l-0.5-0.7c2.5-1.3,3.9-3.2,4.1-5.5h-3.6v-0.7H35.7z M39.9,1129.2h-1.6v5.1
			h-0.9v-9.9h0.9v4h1.6V1129.2z"/>
		<path class="st5" d="M48.4,1129.1h-4.6v-4h4.6V1129.1z M48.7,1131.5c0,0.9,1.5,1.9,3.2,2.1l-0.3,0.7c-1.5-0.2-2.8-0.9-3.4-1.8
			c-0.6,0.9-2,1.6-3.4,1.8l-0.3-0.7c1.7-0.2,3.3-1.1,3.3-2.1h-2.9v-0.7h2.9v-1h0.9v1h2.9v0.7H48.7z M47.5,1125.8h-2.8v2.6h2.8
			V1125.8z M51.4,1130.1h-0.9v-5.7h0.9V1130.1z"/>
		<path class="st5" d="M64.8,1129.1v0.7h-8.9v-0.7H64.8z M63.9,1128.4c-1.5-0.2-3-1-3.6-2.2c-0.6,1.1-2.1,1.9-3.6,2.2l-0.3-0.7
			c1.8-0.3,3.5-1.3,3.5-2.6v-0.4h0.9v0.4c0,1.3,1.7,2.4,3.5,2.6L63.9,1128.4z M63.7,1132.5c0,1.1-1.3,1.8-3.4,1.8
			c-2.1,0-3.4-0.6-3.4-1.8c0-1.1,1.3-1.7,3.4-1.7C62.4,1130.8,63.7,1131.4,63.7,1132.5z M62.8,1132.5c0-0.7-0.9-1.1-2.5-1.1
			c-1.6,0-2.5,0.4-2.5,1.1c0,0.7,0.9,1.1,2.5,1.1C61.9,1133.6,62.8,1133.2,62.8,1132.5z"/>
		<path class="st5" d="M68.8,1130c-1.5,0-2.6-1-2.6-2.4c0-1.4,1.1-2.4,2.6-2.4c1.5,0,2.6,1,2.6,2.4C71.4,1129,70.3,1130,68.8,1130z
			 M68.8,1129.2c1,0,1.7-0.7,1.7-1.7c0-1-0.7-1.6-1.7-1.6c-1,0-1.7,0.7-1.7,1.6C67.1,1128.5,67.8,1129.2,68.8,1129.2z M74.4,1133.4
			v0.7h-6.6v-3.2h0.9v2.4H74.4z M74.1,1131.7h-0.9v-7.2h0.9V1131.7z"/>
	</g>
	<g class="st4">
		<path class="st5" d="M92.8,1112.2v0.8h-9.8v-0.8h4.4v-2.3h-3.2v-5.5h1v1.9h5.5v-1.9h1v5.5h-3.2v2.3H92.8z M85.2,1109.1h5.5v-2
			h-5.5V1109.1z"/>
		<path class="st5" d="M103.9,1112v0.8h-9.7v-0.8h3.8v-3.9h1v3.9H103.9z M101.7,1105.5h-6.6v-0.8h7.5v1.1c0,1.3,0,2.8-0.4,5l-1-0.1
			c0.4-2.1,0.4-3.6,0.4-4.9V1105.5z"/>
	</g>
	<g class="st4">
		<path class="st5" d="M92.8,1162.8v0.8h-9.8v-0.8h4.4v-2.3h-3.2v-5.5h1v1.9h5.5v-1.9h1v5.5h-3.2v2.3H92.8z M85.2,1159.7h5.5v-2
			h-5.5V1159.7z"/>
		<path class="st5" d="M103.9,1162.7v0.8h-9.7v-0.8h3.8v-3.9h1v3.9H103.9z M101.7,1156.1h-6.6v-0.8h7.5v1.1c0,1.3,0,2.8-0.4,5
			l-1-0.1c0.4-2.1,0.4-3.6,0.4-4.9V1156.1z"/>
	</g>
	<g class="st4">
		<path class="st5" d="M92.8,1214.2v0.8h-9.8v-0.8h4.4v-2.3h-3.2v-5.5h1v1.9h5.5v-1.9h1v5.5h-3.2v2.3H92.8z M85.2,1211.1h5.5v-2
			h-5.5V1211.1z"/>
		<path class="st5" d="M103.9,1214.1v0.8h-9.7v-0.8h3.8v-3.9h1v3.9H103.9z M101.7,1207.5h-6.6v-0.8h7.5v1.1c0,1.3,0,2.8-0.4,5
			l-1-0.1c0.4-2.1,0.4-3.6,0.4-4.9V1207.5z"/>
	</g>
	<g class="st4">
		<path class="st5" d="M66.1,1061c1.8,0,3.3-0.1,5.2-0.4l0.1,0.8c-1.9,0.3-3.6,0.4-5.4,0.4h-0.9v-4.1h4v-2.2h-4v-0.8h5v3.8h-4V1061z
			 M73.3,1053.7v10.8h-1v-10.8H73.3z"/>
		<path class="st5" d="M85.3,1062.2v0.8h-9.8v-0.8H85.3z M84.4,1059.9c-1.6-0.4-3.3-1.5-4-3.1c-0.7,1.6-2.4,2.7-4,3.1l-0.4-0.8
			c1.9-0.4,3.9-2,3.9-3.8v-0.8h1v0.8c0,1.8,2,3.5,3.9,3.8L84.4,1059.9z"/>
		<path class="st5" d="M96.3,1062.1v0.8h-9.7v-0.8H96.3z M94.1,1057.8c0-0.6,0-1.1,0-1.7v-0.5h-6.4v-0.8h7.4v1.3c0,1.6,0,3-0.5,5.3
			l-1-0.1c0.2-1,0.4-1.9,0.4-2.7l-6.5,0.4l-0.1-0.8L94.1,1057.8z"/>
		<path class="st5" d="M103.4,1059.7c-1.6,0-2.8-1.1-2.8-2.7c0-1.5,1.2-2.6,2.8-2.6c1.6,0,2.8,1.1,2.8,2.6
			C106.2,1058.6,105,1059.7,103.4,1059.7z M103.4,1058.9c1.1,0,1.9-0.7,1.9-1.8c0-1-0.8-1.8-1.9-1.8c-1,0-1.8,0.7-1.8,1.8
			C101.5,1058.2,102.3,1058.9,103.4,1058.9z M109.5,1063.4v0.8h-7.2v-3.5h1v2.7H109.5z M109.1,1061.6h-1v-7.9h1V1061.6z"/>
		<path class="st5" d="M115.2,1057c0,1.8,1.3,3.7,2.9,4.4l-0.6,0.8c-1.2-0.6-2.3-1.8-2.8-3.3c-0.5,1.6-1.5,2.9-2.8,3.5l-0.6-0.8
			c1.5-0.7,2.9-2.8,2.9-4.6v-1.4h-2.5v-0.8h6v0.8h-2.5V1057z M120.2,1053.7v10.7h-1v-10.7H120.2z"/>
	</g>
	<g class="st4">
		<path class="st2" d="M215.8,1059.6c-1.5-0.5-2.5-1.4-3.1-2.7c-0.6,1.4-1.7,2.4-3.2,2.9l-0.7-1.1c2-0.7,3.1-2.3,3.1-4v-1h1.5v1
			c0,1.6,1.1,3.2,3.1,3.8L215.8,1059.6z M219.6,1064.8v1.1h-8.6v-3.3h6.8v-1h-6.9v-1.1h8.3v3.2h-6.9v1.1H219.6z M219.2,1059.9h-1.5
			v-6.5h1.5V1059.9z"/>
		<path class="st2" d="M233.2,1061.8h-5.1v4.3h-1.4v-4.3h-5v-1.2h11.5V1061.8z M231.7,1059.1h-8.6v-5h8.6V1059.1z M230.3,1055.3
			h-5.8v2.7h5.8V1055.3z"/>
		<path class="st2" d="M242.1,1059.6c-1.6,0.4-3.1,0.4-5.8,0.4h-1v-5.7h5.6v1.2h-4.2v3.4c2.4,0,3.8-0.1,5.3-0.4L242.1,1059.6z
			 M236.5,1061.2h8.1v4.7h-8.1V1061.2z M237.9,1064.8h5.2v-2.4h-5.2V1064.8z M246.3,1057.6h-1.8v3h-1.4v-7.1h1.4v3h1.8V1057.6z"/>
		<path class="st2" d="M255,1059.6c-1.7,0.3-3.2,0.4-5.9,0.4h-1v-5.7h5.6v1.2h-4.2v3.3c2.4,0,3.8-0.1,5.3-0.4L255,1059.6z
			 M257.6,1063.6c0,1.6-1.6,2.5-4.2,2.5c-2.6,0-4.2-1-4.2-2.5c0-1.5,1.6-2.5,4.2-2.5C256,1061.1,257.6,1062,257.6,1063.6z
			 M256.2,1063.6c0-0.9-1-1.3-2.8-1.3c-1.8,0-2.8,0.5-2.8,1.3s1,1.3,2.8,1.3C255.2,1064.9,256.2,1064.4,256.2,1063.6z M259.3,1056.6
			v1.2h-1.8v3.1h-1.5v-7.4h1.5v3.2H259.3z"/>
		<path class="st2" d="M265,1057.1c0,2,1.2,4.2,3.2,5.1l-0.8,1.1c-1.4-0.7-2.5-2.1-3.1-3.7c-0.6,1.8-1.7,3.3-3.1,4l-0.8-1.1
			c1.9-0.9,3.2-3.3,3.2-5.4v-1.2h-2.8v-1.2h6.9v1.2H265V1057.1z M272.3,1059.6h-2v6.5h-1.4v-12.6h1.4v5h2V1059.6z"/>
	</g>
	<g class="st4">
		<path class="st6" d="M142.1,1105.4c1,0,2-0.1,3.2-0.3l0.1,1.1c-1.5,0.3-2.7,0.3-3.8,0.3h-0.7v-6.8h1.2V1105.4z M149.6,1098.4v10.8
			h-1.2v-5.5h-1.3v5H146v-10.1h1.2v4.1h1.3v-4.3H149.6z"/>
		<path class="st6" d="M161.3,1105.7H157v3.5h-1.2v-3.5h-4.3v-1h9.8V1105.7z M160.1,1103.6h-7.4v-4.7h1.2v1.4h5v-1.4h1.2V1103.6z
			 M158.9,1101.2h-5v1.4h5V1101.2z"/>
		<path class="st6" d="M166.8,1106.2c1-0.1,2-0.1,2.9-0.3l0.1,0.9c-2.4,0.4-5,0.4-6.9,0.4l-0.2-1c0.9,0,1.9,0,2.9,0v-1.1
			c-1.2-0.2-2-0.9-2-2c0-1.2,1.1-2,2.7-2c1.6,0,2.6,0.8,2.6,2c0,1.1-0.8,1.8-2,2V1106.2z M169.4,1100.7h-6.5v-1h2.7v-1.2h1.2v1.2
			h2.7V1100.7z M166.2,1104.3c0.9,0,1.5-0.4,1.5-1.1c0-0.7-0.6-1.1-1.5-1.1c-0.9,0-1.5,0.4-1.5,1.1
			C164.7,1103.9,165.3,1104.3,166.2,1104.3z M171.5,1098.4v10.8h-1.2v-10.8H171.5z"/>
		<path class="st6" d="M179.6,1098.7h1.2v10h-1.2v-3.6h-1.8v-1h1.8v-1.7H178c-0.5,1.8-1.6,3.4-3.7,4.6l-0.7-0.9
			c2.2-1.4,3.3-3.1,3.5-5.3h-3v-1h4.2c0,0.6,0,1.1-0.1,1.6h1.4V1098.7z M183,1098.4v10.8h-1.2v-10.8H183z"/>
	</g>
	<g class="st4">
		<path class="st6" d="M152.7,1118.5c-2.3,0.4-4.8,0.5-6.7,0.5l-0.1-1c0.6,0,1.4,0,2.2,0v-2.2h1.2v2.2c1.1,0,2.3-0.1,3.4-0.3
			L152.7,1118.5z M150.5,1116.9c0.2-1.2,0.3-2,0.3-2.7h-4.2v-1h5.4v0.6c0,0.7,0,1.8-0.3,3.2L150.5,1116.9z M148.7,1122h6.1v1h-7.4
			v-3.2h1.2V1122z M155.9,1115.8v1h-1.4v3.7h-1.2v-8.1h1.2v3.4H155.9z"/>
		<path class="st6" d="M158.9,1119.7c1.7,0,3.2-0.1,4.9-0.4l0.1,1c-1.9,0.3-3.5,0.4-5.4,0.4h-0.9v-4.3h3.8v-2h-3.8v-1h5v4h-3.8
			V1119.7z M166,1112.4v10.9h-1.2v-10.9H166z"/>
		<path class="st6" d="M172,1115.5c0,1.7,1.1,3.6,2.7,4.4l-0.7,1c-1.2-0.6-2.1-1.8-2.6-3.1c-0.5,1.5-1.4,2.8-2.7,3.4l-0.7-1
			c1.7-0.8,2.8-2.8,2.8-4.6v-1h-2.4v-1h5.9v1H172V1115.5z M178.2,1117.7h-1.7v5.5h-1.2v-10.8h1.2v4.3h1.7V1117.7z"/>
	</g>
	<g class="st4">
		<path class="st6" d="M231.4,1105.3c1.2,0,2.2-0.1,3.3-0.3l0.1,1c-1.3,0.3-2.4,0.3-3.9,0.3h-0.7v-7h4v1h-2.8V1105.3z M239,1098.1
			v10.8h-1.2v-5.5h-1.3v5h-1.2v-10.1h1.2v4.1h1.3v-4.3H239z"/>
		<path class="st6" d="M250.7,1106.7v1h-9.8v-1h2.6v-2.3h-1.7v-1h1.6v-3.3h-1.6v-1h8.1v1h-1.6v3.3h1.6v1h-1.7v2.3H250.7z
			 M244.5,1103.3h2.5v-3.3h-2.5V1103.3z M244.7,1106.7h2.1v-2.3h-2.1V1106.7z"/>
	</g>
	<g class="st4">
		<path class="st6" d="M235.7,1116.7c0,2.4-1.2,3.8-2.8,3.8c-1.6,0-2.8-1.5-2.8-3.8c0-2.3,1.2-3.8,2.8-3.8
			C234.5,1112.9,235.7,1114.4,235.7,1116.7z M231.3,1116.7c0,1.7,0.7,2.7,1.6,2.7c0.9,0,1.6-1,1.6-2.7c0-1.7-0.7-2.7-1.6-2.7
			C232,1114,231.3,1115,231.3,1116.7z M238.7,1112.1v10.9h-1.2v-10.9H238.7z"/>
		<path class="st6" d="M244.7,1114.8c0,1.9,1,3.9,2.6,4.7l-0.8,1c-1.2-0.6-2-1.8-2.5-3.2c-0.5,1.5-1.4,2.8-2.6,3.4l-0.8-1
			c1.7-0.8,2.7-2.9,2.7-4.9v-1.8h1.2V1114.8z M251,1117.4h-1.7v5.5H248v-10.8h1.2v4.3h1.7V1117.4z"/>
	</g>
	<g class="st4">
		<path class="st7" d="M218.9,1157.8c0,2.7-1.9,4.7-5.1,5.5l-0.4-0.8c2.6-0.7,4.2-2.1,4.4-3.9h-3.9v-0.8H218.9z M215,1163.7h6.8v4
			H215V1163.7z M216,1166.9h4.8v-2.4H216V1166.9z M223.4,1160.6h-1.6v2.7h-1v-6.1h1v2.6h1.6V1160.6z"/>
		<path class="st7" d="M228.2,1160c0,1.9,1.2,3.8,2.7,4.6l-0.6,0.8c-1.1-0.6-2.1-1.9-2.6-3.3c-0.5,1.6-1.5,2.9-2.7,3.6l-0.6-0.8
			c1.5-0.8,2.8-2.9,2.8-4.8v-1.9h1V1160z M234.6,1162.3h-1.8v5.6h-1v-10.7h1v4.4h1.8V1162.3z"/>
		<path class="st7" d="M242.8,1163.3c-1,0.2-2.1,0.3-3.1,0.4v3.9h-1v-3.8c-1.1,0-2.1,0.1-3,0.1l-0.1-0.8c2,0,4.7,0,7.1-0.4
			L242.8,1163.3z M236.4,1159.9c0-1.3,1.1-2.2,2.7-2.2c1.6,0,2.7,0.9,2.7,2.2c0,1.3-1.1,2.2-2.7,2.2
			C237.6,1162.1,236.4,1161.2,236.4,1159.9z M237.4,1159.9c0,0.8,0.7,1.4,1.8,1.4c1,0,1.8-0.6,1.8-1.4c0-0.8-0.7-1.4-1.8-1.4
			C238.1,1158.4,237.4,1159,237.4,1159.9z M244.5,1157.1v10.8h-1v-10.8H244.5z"/>
		<path class="st7" d="M249.8,1162.9c-1.1,0-2.1,0.1-3,0.1l-0.1-0.8c2,0,4.7,0,6.9-0.3l0.1,0.7c-0.9,0.1-1.9,0.3-2.9,0.3v2.1h-1
			V1162.9z M247.5,1159.4c0-1.1,1.1-1.9,2.7-1.9c1.6,0,2.7,0.7,2.7,1.9c0,1.2-1.1,1.9-2.7,1.9
			C248.6,1161.3,247.5,1160.6,247.5,1159.4z M255.8,1166.8v0.8h-7.6v-3.1h1v2.3H255.8z M248.5,1159.4c0,0.7,0.7,1.2,1.7,1.2
			s1.7-0.5,1.7-1.2c0-0.7-0.7-1.1-1.7-1.1S248.5,1158.7,248.5,1159.4z M254.6,1163.5v-6.4h1v8.2h-1v-1.1h-2.2v-0.7H254.6z"/>
		<path class="st7" d="M261.9,1164.9c1,0,2.1-0.1,3-0.3l0.1,0.7c-2.4,0.4-5,0.4-7,0.4l-0.1-0.8c0.9,0,1.9,0,3,0v-1.2
			c-1.3-0.2-2.1-0.9-2.1-2c0-1.2,1.1-2,2.6-2s2.6,0.8,2.6,2c0,1.1-0.8,1.8-2.1,2V1164.9z M264.7,1159.2h-6.5v-0.8h2.8v-1.3h1v1.3
			h2.8V1159.2z M261.4,1163.1c1,0,1.6-0.5,1.6-1.2c0-0.8-0.7-1.2-1.6-1.2c-1,0-1.7,0.5-1.7,1.2
			C259.8,1162.6,260.4,1163.1,261.4,1163.1z M266.6,1157.1v10.8h-1v-10.8H266.6z"/>
	</g>
	<g class="st4">
		<path class="st7" d="M228.7,1266.1h-4.4v3.8h-1v-3.8H219v-0.8h9.7L228.7,1266.1z M219.6,1263.6c1.9-0.3,3.7-1.5,3.7-2.9v-0.1h-3.4
			v-0.8h7.9v0.8h-3.4v0.1c0,1.4,1.9,2.7,3.8,2.9l-0.4,0.8c-1.7-0.3-3.3-1.2-3.9-2.5c-0.7,1.3-2.2,2.2-3.9,2.5L219.6,1263.6z"/>
		<path class="st7" d="M239.8,1266.1h-4.4v3.8h-1v-3.8h-4.3v-0.8h9.7L239.8,1266.1z M230.7,1263.6c1.9-0.3,3.7-1.5,3.7-2.9v-0.1H231
			v-0.8h7.9v0.8h-3.4v0.1c0,1.4,1.9,2.7,3.8,2.9l-0.4,0.8c-1.7-0.3-3.3-1.2-3.9-2.5c-0.7,1.3-2.2,2.2-3.9,2.5L230.7,1263.6z"/>
		<path class="st7" d="M250.9,1264.7v0.8h-9.7v-0.8h4.4v-1.3h1v1.3H250.9z M241.8,1263.1c2-0.2,3.7-1,3.8-2.2h-3.3v-0.8h3.4v-1.1h1
			v1.1h3.4v0.8h-3.3c0.1,1.2,1.7,2,3.8,2.2l-0.3,0.8c-1.8-0.2-3.3-0.8-4-1.9c-0.7,1.1-2.2,1.7-4,1.9L241.8,1263.1z M249.7,1268.1
			c0,1.2-1.4,1.8-3.7,1.8s-3.7-0.6-3.7-1.8c0-1.2,1.4-1.8,3.7-1.8S249.7,1266.9,249.7,1268.1z M248.7,1268.1c0-0.7-1-1.1-2.7-1.1
			s-2.7,0.4-2.7,1.1c0,0.7,1,1,2.7,1S248.7,1268.8,248.7,1268.1z"/>
		<path class="st7" d="M256.3,1266.9c1,0,2.1-0.1,3-0.3l0.1,0.7c-2.4,0.4-5,0.4-7,0.4l-0.1-0.8c0.9,0,1.9,0,3,0v-1.2
			c-1.3-0.2-2.1-0.9-2.1-2c0-1.2,1.1-2,2.6-2s2.6,0.8,2.6,2c0,1.1-0.8,1.8-2.1,2V1266.9z M259.1,1261.2h-6.5v-0.8h2.8v-1.3h1v1.3
			h2.8V1261.2z M255.9,1265.1c1,0,1.6-0.5,1.6-1.2c0-0.8-0.7-1.2-1.6-1.2c-1,0-1.7,0.5-1.7,1.2
			C254.2,1264.6,254.9,1265.1,255.9,1265.1z M261.1,1259.1v10.8h-1v-10.8H261.1z"/>
	</g>
	<path id="패스_2841" class="st2" d="M282.1,1131.8H355v-44h-72.9V1131.8z"/>
	<g class="st4">
		<path class="st6" d="M317.9,1103.6v1h-4.2v2h-1.2v-2h-4.4v-1H317.9z M308.6,1101.9c2-0.2,3.4-1.2,3.5-2.4H309v-1h8v1h-3.2
			c0.1,1.1,1.5,2.1,3.6,2.4l-0.5,1c-1.9-0.2-3.3-1.1-3.9-2.3c-0.6,1.2-2,2.1-3.9,2.3L308.6,1101.9z M310.5,1107.7h6.3v1h-7.5v-3.1
			h1.2V1107.7z"/>
		<path class="st6" d="M328.2,1098.1v5.9h-1.2v-2.4h-2.3v2h-5v-5h1.2v1.5h2.6v-1.5h1.2v2h2.3v-2.6L328.2,1098.1z M323.5,1101.1h-2.6
			v1.5h2.6V1101.1z M326.9,1104.5h1.2v4.3h-7v-4.3h1.2v1.2h4.6V1104.5z M326.9,1106.6h-4.6v1.1h4.6V1106.6z"/>
	</g>
	<g class="st4">
		<path class="st6" d="M306.5,1115.2c0,1.8,1.1,3.7,2.8,4.4l-0.7,1c-1.3-0.6-2.2-1.7-2.7-3.1c-0.5,1.5-1.5,2.8-2.7,3.4l-0.7-1
			c1.7-0.8,2.8-2.8,2.8-4.7v-1h-2.4v-1h6.1v1h-2.4V1115.2z M311.4,1112.1v10.8h-1.2v-10.8H311.4z"/>
		<path class="st6" d="M316.6,1118c-1,0-2,0.1-2.9,0.1l-0.2-1c2,0,4.7,0,6.9-0.3l0.1,0.9c-0.9,0.2-1.9,0.3-2.8,0.3v2.1h-1.2V1118z
			 M314.4,1114.4c0-1.2,1.1-1.9,2.7-1.9c1.6,0,2.7,0.8,2.7,1.9s-1.1,1.9-2.7,1.9C315.5,1116.3,314.4,1115.6,314.4,1114.4z
			 M322.9,1121.7v1H315v-3.2h1.2v2.2H322.9z M315.6,1114.4c0,0.6,0.6,1,1.5,1c0.9,0,1.5-0.4,1.5-1s-0.6-1-1.5-1
			C316.2,1113.4,315.6,1113.8,315.6,1114.4z M321.4,1118.5v-6.4h1.2v8.2h-1.2v-1h-2.1v-0.9H321.4z"/>
		<path class="st6" d="M327.8,1118.2c-1.6,0-2.9-1.1-2.9-2.7c0-1.6,1.2-2.7,2.9-2.7c1.6,0,2.9,1.1,2.9,2.7
			C330.7,1117.1,329.4,1118.2,327.8,1118.2z M327.8,1117.2c0.9,0,1.7-0.7,1.7-1.6c0-1-0.7-1.6-1.7-1.6c-1,0-1.7,0.6-1.7,1.6
			C326.1,1116.5,326.9,1117.2,327.8,1117.2z M334,1121.7v1h-7.4v-3.5h1.2v2.5H334z M333.7,1120h-1.2v-7.9h1.2V1120z"/>
	</g>
	<g class="st4">
		<path d="M230.4,1212.7c0,2.3-1.1,3.8-2.7,3.8c-1.6,0-2.7-1.5-2.7-3.8s1.1-3.8,2.7-3.8C229.3,1209,230.4,1210.4,230.4,1212.7z
			 M225.9,1212.7c0,1.8,0.7,2.9,1.8,2.9c1,0,1.8-1.1,1.8-2.9c0-1.7-0.7-2.9-1.8-2.9C226.6,1209.8,225.9,1211,225.9,1212.7z
			 M233.3,1208.1v10.8h-1v-10.8H233.3z"/>
		<path d="M239.3,1211c0,1.9,1.2,3.8,2.7,4.6l-0.6,0.8c-1.1-0.6-2.1-1.9-2.6-3.3c-0.5,1.6-1.5,2.9-2.7,3.6l-0.6-0.8
			c1.5-0.8,2.8-2.9,2.8-4.8v-1.9h1V1211z M245.7,1213.3h-1.8v5.6h-1v-10.7h1v4.4h1.8V1213.3z"/>
		<path d="M250.8,1215.9c1,0,2.1-0.1,3-0.3l0.1,0.7c-2.4,0.4-5,0.4-7,0.4l-0.1-0.8c0.9,0,1.9,0,3,0v-1.2c-1.3-0.2-2.1-0.9-2.1-2
			c0-1.2,1.1-2,2.6-2s2.6,0.8,2.6,2c0,1.1-0.8,1.8-2.1,2V1215.9z M253.6,1210.2H247v-0.8h2.8v-1.3h1v1.3h2.8V1210.2z M250.3,1214.1
			c1,0,1.6-0.5,1.6-1.2c0-0.8-0.7-1.2-1.6-1.2c-1,0-1.7,0.5-1.7,1.2C248.7,1213.6,249.3,1214.1,250.3,1214.1z M255.5,1208.1v10.8h-1
			v-10.8H255.5z"/>
	</g>
</g>
<g id="그룹_5772_1_" transform="translate(-20 -1036)" class="st8">
	<path id="패스_2823_1_" class="st9" d="M125.9,1080H355v-44H125.9V1080z"/>
	<path id="패스_2826_1_" class="st10" d="M126,1183h229.1v-44H126V1183z"/>
	<path id="패스_2829_1_" class="st10" d="M126,1234h229.1v-44H126V1234z"/>
	<path id="패스_2832_1_" class="st10" d="M126,1286h229.1v-44H126V1286z"/>
	<path id="패스_2835_1_" class="st11" d="M125.9,1131.8h72.9v-44h-72.9V1131.8z"/>
	<path id="패스_2838_1_" class="st11" d="M203.8,1131.8h72.9v-44h-72.9V1131.8z"/>
	<path id="패스_2844_1_" class="st12" d="M93.6,1097.9V1070"/>
	<path id="패스_2845_1_" class="st12" d="M100.2,1091.1l-6.6,6.8l-6.6-6.8"/>
	<path id="패스_2846_1_" class="st12" d="M93.6,1284v-59.5"/>
	<path id="패스_3204_1_" class="st12" d="M93.6,1197v-26.4"/>
	<path id="패스_2847_1_" class="st12" d="M100.2,1277.3l-6.6,6.8l-6.6-6.8"/>
	<path id="패스_2848_1_" class="st12" d="M99.5,1120.6v26.7"/>
	<path id="패스_2849_1_" class="st12" d="M92.9,1127.3l6.6-6.8l6.6,6.8"/>
	<path id="패스_2850_1_" class="st12" d="M87.7,1147.3v-27.1"/>
	<path id="패스_2851_1_" class="st12" d="M94.3,1140.5l-6.6,6.8l-6.6-6.8"/>
	<g class="st13">
		<path class="st5" d="M26.4,1129.6c-1.9,0.3-4.1,0.3-5.7,0.3l-0.1-0.7c0.4,0,0.8,0,1.2,0v-3.3h-1v-0.7h5.2v0.7h-1v3.1
			c0.4,0,0.9-0.1,1.3-0.1L26.4,1129.6z M28.7,1132.5c0,1.1-1.3,1.8-3.3,1.8c-2,0-3.3-0.6-3.3-1.8c0-1.1,1.2-1.8,3.3-1.8
			C27.5,1130.7,28.7,1131.4,28.7,1132.5z M22.7,1129.2c0.5,0,1,0,1.5-0.1v-3.2h-1.5V1129.2z M27.8,1132.5c0-0.7-0.9-1.1-2.4-1.1
			c-1.5,0-2.4,0.4-2.4,1.1c0,0.7,0.9,1.1,2.4,1.1C27,1133.6,27.8,1133.2,27.8,1132.5z M27.8,1128.7h-1.6v-0.7h1.6v-1h-1.6v-0.7h1.6
			v-1.7h0.9v6.1h-0.9V1128.7z"/>
		<path class="st5" d="M35.7,1125.5c0,2.8-1.3,5.3-4.5,6.9l-0.5-0.7c2.5-1.3,3.9-3.2,4.1-5.5h-3.6v-0.7H35.7z M39.9,1129.2h-1.6v5.1
			h-0.9v-9.9h0.9v4h1.6V1129.2z"/>
		<path class="st5" d="M48.4,1129.1h-4.6v-4h4.6V1129.1z M48.7,1131.5c0,0.9,1.5,1.9,3.2,2.1l-0.3,0.7c-1.5-0.2-2.8-0.9-3.4-1.8
			c-0.6,0.9-2,1.6-3.4,1.8l-0.3-0.7c1.7-0.2,3.3-1.1,3.3-2.1h-2.9v-0.7h2.9v-1h0.9v1h2.9v0.7H48.7z M47.5,1125.8h-2.8v2.6h2.8
			V1125.8z M51.4,1130.1h-0.9v-5.7h0.9V1130.1z"/>
		<path class="st5" d="M64.8,1129.1v0.7h-8.9v-0.7H64.8z M63.9,1128.4c-1.5-0.2-3-1-3.6-2.2c-0.6,1.1-2.1,1.9-3.6,2.2l-0.3-0.7
			c1.8-0.3,3.5-1.3,3.5-2.6v-0.4h0.9v0.4c0,1.3,1.7,2.4,3.5,2.6L63.9,1128.4z M63.7,1132.5c0,1.1-1.3,1.8-3.4,1.8
			c-2.1,0-3.4-0.6-3.4-1.8c0-1.1,1.3-1.7,3.4-1.7C62.4,1130.8,63.7,1131.4,63.7,1132.5z M62.8,1132.5c0-0.7-0.9-1.1-2.5-1.1
			c-1.6,0-2.5,0.4-2.5,1.1c0,0.7,0.9,1.1,2.5,1.1C61.9,1133.6,62.8,1133.2,62.8,1132.5z"/>
		<path class="st5" d="M68.8,1130c-1.5,0-2.6-1-2.6-2.4c0-1.4,1.1-2.4,2.6-2.4c1.5,0,2.6,1,2.6,2.4C71.4,1129,70.3,1130,68.8,1130z
			 M68.8,1129.2c1,0,1.7-0.7,1.7-1.7c0-1-0.7-1.6-1.7-1.6c-1,0-1.7,0.7-1.7,1.6C67.1,1128.5,67.8,1129.2,68.8,1129.2z M74.4,1133.4
			v0.7h-6.6v-3.2h0.9v2.4H74.4z M74.1,1131.7h-0.9v-7.2h0.9V1131.7z"/>
	</g>
	<g class="st13">
		<path class="st5" d="M92.8,1112.2v0.8h-9.8v-0.8h4.4v-2.3h-3.2v-5.5h1v1.9h5.5v-1.9h1v5.5h-3.2v2.3H92.8z M85.2,1109.1h5.5v-2
			h-5.5V1109.1z"/>
		<path class="st5" d="M103.9,1112v0.8h-9.7v-0.8h3.8v-3.9h1v3.9H103.9z M101.7,1105.5h-6.6v-0.8h7.5v1.1c0,1.3,0,2.8-0.4,5l-1-0.1
			c0.4-2.1,0.4-3.6,0.4-4.9V1105.5z"/>
	</g>
	<g class="st13">
		<path class="st5" d="M92.8,1162.8v0.8h-9.8v-0.8h4.4v-2.3h-3.2v-5.5h1v1.9h5.5v-1.9h1v5.5h-3.2v2.3H92.8z M85.2,1159.7h5.5v-2
			h-5.5V1159.7z"/>
		<path class="st5" d="M103.9,1162.7v0.8h-9.7v-0.8h3.8v-3.9h1v3.9H103.9z M101.7,1156.1h-6.6v-0.8h7.5v1.1c0,1.3,0,2.8-0.4,5
			l-1-0.1c0.4-2.1,0.4-3.6,0.4-4.9V1156.1z"/>
	</g>
	<g class="st13">
		<path class="st5" d="M92.8,1214.2v0.8h-9.8v-0.8h4.4v-2.3h-3.2v-5.5h1v1.9h5.5v-1.9h1v5.5h-3.2v2.3H92.8z M85.2,1211.1h5.5v-2
			h-5.5V1211.1z"/>
		<path class="st5" d="M103.9,1214.1v0.8h-9.7v-0.8h3.8v-3.9h1v3.9H103.9z M101.7,1207.5h-6.6v-0.8h7.5v1.1c0,1.3,0,2.8-0.4,5
			l-1-0.1c0.4-2.1,0.4-3.6,0.4-4.9V1207.5z"/>
	</g>
	<g class="st13">
		<path class="st5" d="M66.1,1061c1.8,0,3.3-0.1,5.2-0.4l0.1,0.8c-1.9,0.3-3.6,0.4-5.4,0.4h-0.9v-4.1h4v-2.2h-4v-0.8h5v3.8h-4V1061z
			 M73.3,1053.7v10.8h-1v-10.8H73.3z"/>
		<path class="st5" d="M85.3,1062.2v0.8h-9.8v-0.8H85.3z M84.4,1059.9c-1.6-0.4-3.3-1.5-4-3.1c-0.7,1.6-2.4,2.7-4,3.1l-0.4-0.8
			c1.9-0.4,3.9-2,3.9-3.8v-0.8h1v0.8c0,1.8,2,3.5,3.9,3.8L84.4,1059.9z"/>
		<path class="st5" d="M96.3,1062.1v0.8h-9.7v-0.8H96.3z M94.1,1057.8c0-0.6,0-1.1,0-1.7v-0.5h-6.4v-0.8h7.4v1.3c0,1.6,0,3-0.5,5.3
			l-1-0.1c0.2-1,0.4-1.9,0.4-2.7l-6.5,0.4l-0.1-0.8L94.1,1057.8z"/>
		<path class="st5" d="M103.4,1059.7c-1.6,0-2.8-1.1-2.8-2.7c0-1.5,1.2-2.6,2.8-2.6c1.6,0,2.8,1.1,2.8,2.6
			C106.2,1058.6,105,1059.7,103.4,1059.7z M103.4,1058.9c1.1,0,1.9-0.7,1.9-1.8c0-1-0.8-1.8-1.9-1.8c-1,0-1.8,0.7-1.8,1.8
			C101.5,1058.2,102.3,1058.9,103.4,1058.9z M109.5,1063.4v0.8h-7.2v-3.5h1v2.7H109.5z M109.1,1061.6h-1v-7.9h1V1061.6z"/>
		<path class="st5" d="M115.2,1057c0,1.8,1.3,3.7,2.9,4.4l-0.6,0.8c-1.2-0.6-2.3-1.8-2.8-3.3c-0.5,1.6-1.5,2.9-2.8,3.5l-0.6-0.8
			c1.5-0.7,2.9-2.8,2.9-4.6v-1.4h-2.5v-0.8h6v0.8h-2.5V1057z M120.2,1053.7v10.7h-1v-10.7H120.2z"/>
	</g>
	<g class="st13">
		<path class="st2" d="M215.8,1059.6c-1.5-0.5-2.5-1.4-3.1-2.7c-0.6,1.4-1.7,2.4-3.2,2.9l-0.7-1.1c2-0.7,3.1-2.3,3.1-4v-1h1.5v1
			c0,1.6,1.1,3.2,3.1,3.8L215.8,1059.6z M219.6,1064.8v1.1h-8.6v-3.3h6.8v-1h-6.9v-1.1h8.3v3.2h-6.9v1.1H219.6z M219.2,1059.9h-1.5
			v-6.5h1.5V1059.9z"/>
		<path class="st2" d="M233.2,1061.8h-5.1v4.3h-1.4v-4.3h-5v-1.2h11.5V1061.8z M231.7,1059.1h-8.6v-5h8.6V1059.1z M230.3,1055.3
			h-5.8v2.7h5.8V1055.3z"/>
		<path class="st2" d="M242.1,1059.6c-1.6,0.4-3.1,0.4-5.8,0.4h-1v-5.7h5.6v1.2h-4.2v3.4c2.4,0,3.8-0.1,5.3-0.4L242.1,1059.6z
			 M236.5,1061.2h8.1v4.7h-8.1V1061.2z M237.9,1064.8h5.2v-2.4h-5.2V1064.8z M246.3,1057.6h-1.8v3h-1.4v-7.1h1.4v3h1.8V1057.6z"/>
		<path class="st2" d="M255,1059.6c-1.7,0.3-3.2,0.4-5.9,0.4h-1v-5.7h5.6v1.2h-4.2v3.3c2.4,0,3.8-0.1,5.3-0.4L255,1059.6z
			 M257.6,1063.6c0,1.6-1.6,2.5-4.2,2.5c-2.6,0-4.2-1-4.2-2.5c0-1.5,1.6-2.5,4.2-2.5C256,1061.1,257.6,1062,257.6,1063.6z
			 M256.2,1063.6c0-0.9-1-1.3-2.8-1.3c-1.8,0-2.8,0.5-2.8,1.3s1,1.3,2.8,1.3C255.2,1064.9,256.2,1064.4,256.2,1063.6z M259.3,1056.6
			v1.2h-1.8v3.1h-1.5v-7.4h1.5v3.2H259.3z"/>
		<path class="st2" d="M265,1057.1c0,2,1.2,4.2,3.2,5.1l-0.8,1.1c-1.4-0.7-2.5-2.1-3.1-3.7c-0.6,1.8-1.7,3.3-3.1,4l-0.8-1.1
			c1.9-0.9,3.2-3.3,3.2-5.4v-1.2h-2.8v-1.2h6.9v1.2H265V1057.1z M272.3,1059.6h-2v6.5h-1.4v-12.6h1.4v5h2V1059.6z"/>
	</g>
	<g class="st13">
		<path class="st6" d="M142.1,1105.4c1,0,2-0.1,3.2-0.3l0.1,1.1c-1.5,0.3-2.7,0.3-3.8,0.3h-0.7v-6.8h1.2V1105.4z M149.6,1098.4v10.8
			h-1.2v-5.5h-1.3v5H146v-10.1h1.2v4.1h1.3v-4.3H149.6z"/>
		<path class="st6" d="M161.3,1105.7H157v3.5h-1.2v-3.5h-4.3v-1h9.8V1105.7z M160.1,1103.6h-7.4v-4.7h1.2v1.4h5v-1.4h1.2V1103.6z
			 M158.9,1101.2h-5v1.4h5V1101.2z"/>
		<path class="st6" d="M166.8,1106.2c1-0.1,2-0.1,2.9-0.3l0.1,0.9c-2.4,0.4-5,0.4-6.9,0.4l-0.2-1c0.9,0,1.9,0,2.9,0v-1.1
			c-1.2-0.2-2-0.9-2-2c0-1.2,1.1-2,2.7-2c1.6,0,2.6,0.8,2.6,2c0,1.1-0.8,1.8-2,2V1106.2z M169.4,1100.7h-6.5v-1h2.7v-1.2h1.2v1.2
			h2.7V1100.7z M166.2,1104.3c0.9,0,1.5-0.4,1.5-1.1c0-0.7-0.6-1.1-1.5-1.1c-0.9,0-1.5,0.4-1.5,1.1
			C164.7,1103.9,165.3,1104.3,166.2,1104.3z M171.5,1098.4v10.8h-1.2v-10.8H171.5z"/>
		<path class="st6" d="M179.6,1098.7h1.2v10h-1.2v-3.6h-1.8v-1h1.8v-1.7H178c-0.5,1.8-1.6,3.4-3.7,4.6l-0.7-0.9
			c2.2-1.4,3.3-3.1,3.5-5.3h-3v-1h4.2c0,0.6,0,1.1-0.1,1.6h1.4V1098.7z M183,1098.4v10.8h-1.2v-10.8H183z"/>
	</g>
	<g class="st13">
		<path class="st6" d="M152.7,1118.5c-2.3,0.4-4.8,0.5-6.7,0.5l-0.1-1c0.6,0,1.4,0,2.2,0v-2.2h1.2v2.2c1.1,0,2.3-0.1,3.4-0.3
			L152.7,1118.5z M150.5,1116.9c0.2-1.2,0.3-2,0.3-2.7h-4.2v-1h5.4v0.6c0,0.7,0,1.8-0.3,3.2L150.5,1116.9z M148.7,1122h6.1v1h-7.4
			v-3.2h1.2V1122z M155.9,1115.8v1h-1.4v3.7h-1.2v-8.1h1.2v3.4H155.9z"/>
		<path class="st6" d="M158.9,1119.7c1.7,0,3.2-0.1,4.9-0.4l0.1,1c-1.9,0.3-3.5,0.4-5.4,0.4h-0.9v-4.3h3.8v-2h-3.8v-1h5v4h-3.8
			V1119.7z M166,1112.4v10.9h-1.2v-10.9H166z"/>
		<path class="st6" d="M172,1115.5c0,1.7,1.1,3.6,2.7,4.4l-0.7,1c-1.2-0.6-2.1-1.8-2.6-3.1c-0.5,1.5-1.4,2.8-2.7,3.4l-0.7-1
			c1.7-0.8,2.8-2.8,2.8-4.6v-1h-2.4v-1h5.9v1H172V1115.5z M178.2,1117.7h-1.7v5.5h-1.2v-10.8h1.2v4.3h1.7V1117.7z"/>
	</g>
	<g class="st13">
		<path class="st6" d="M231.4,1105.3c1.2,0,2.2-0.1,3.3-0.3l0.1,1c-1.3,0.3-2.4,0.3-3.9,0.3h-0.7v-7h4v1h-2.8V1105.3z M239,1098.1
			v10.8h-1.2v-5.5h-1.3v5h-1.2v-10.1h1.2v4.1h1.3v-4.3H239z"/>
		<path class="st6" d="M250.7,1106.7v1h-9.8v-1h2.6v-2.3h-1.7v-1h1.6v-3.3h-1.6v-1h8.1v1h-1.6v3.3h1.6v1h-1.7v2.3H250.7z
			 M244.5,1103.3h2.5v-3.3h-2.5V1103.3z M244.7,1106.7h2.1v-2.3h-2.1V1106.7z"/>
	</g>
	<g class="st13">
		<path class="st6" d="M235.7,1116.7c0,2.4-1.2,3.8-2.8,3.8c-1.6,0-2.8-1.5-2.8-3.8c0-2.3,1.2-3.8,2.8-3.8
			C234.5,1112.9,235.7,1114.4,235.7,1116.7z M231.3,1116.7c0,1.7,0.7,2.7,1.6,2.7c0.9,0,1.6-1,1.6-2.7c0-1.7-0.7-2.7-1.6-2.7
			C232,1114,231.3,1115,231.3,1116.7z M238.7,1112.1v10.9h-1.2v-10.9H238.7z"/>
		<path class="st6" d="M244.7,1114.8c0,1.9,1,3.9,2.6,4.7l-0.8,1c-1.2-0.6-2-1.8-2.5-3.2c-0.5,1.5-1.4,2.8-2.6,3.4l-0.8-1
			c1.7-0.8,2.7-2.9,2.7-4.9v-1.8h1.2V1114.8z M251,1117.4h-1.7v5.5H248v-10.8h1.2v4.3h1.7V1117.4z"/>
	</g>
	<g class="st13">
		<path class="st7" d="M218.9,1157.8c0,2.7-1.9,4.7-5.1,5.5l-0.4-0.8c2.6-0.7,4.2-2.1,4.4-3.9h-3.9v-0.8H218.9z M215,1163.7h6.8v4
			H215V1163.7z M216,1166.9h4.8v-2.4H216V1166.9z M223.4,1160.6h-1.6v2.7h-1v-6.1h1v2.6h1.6V1160.6z"/>
		<path class="st7" d="M228.2,1160c0,1.9,1.2,3.8,2.7,4.6l-0.6,0.8c-1.1-0.6-2.1-1.9-2.6-3.3c-0.5,1.6-1.5,2.9-2.7,3.6l-0.6-0.8
			c1.5-0.8,2.8-2.9,2.8-4.8v-1.9h1V1160z M234.6,1162.3h-1.8v5.6h-1v-10.7h1v4.4h1.8V1162.3z"/>
		<path class="st7" d="M242.8,1163.3c-1,0.2-2.1,0.3-3.1,0.4v3.9h-1v-3.8c-1.1,0-2.1,0.1-3,0.1l-0.1-0.8c2,0,4.7,0,7.1-0.4
			L242.8,1163.3z M236.4,1159.9c0-1.3,1.1-2.2,2.7-2.2c1.6,0,2.7,0.9,2.7,2.2c0,1.3-1.1,2.2-2.7,2.2
			C237.6,1162.1,236.4,1161.2,236.4,1159.9z M237.4,1159.9c0,0.8,0.7,1.4,1.8,1.4c1,0,1.8-0.6,1.8-1.4c0-0.8-0.7-1.4-1.8-1.4
			C238.1,1158.4,237.4,1159,237.4,1159.9z M244.5,1157.1v10.8h-1v-10.8H244.5z"/>
		<path class="st7" d="M249.8,1162.9c-1.1,0-2.1,0.1-3,0.1l-0.1-0.8c2,0,4.7,0,6.9-0.3l0.1,0.7c-0.9,0.1-1.9,0.3-2.9,0.3v2.1h-1
			V1162.9z M247.5,1159.4c0-1.1,1.1-1.9,2.7-1.9c1.6,0,2.7,0.7,2.7,1.9c0,1.2-1.1,1.9-2.7,1.9
			C248.6,1161.3,247.5,1160.6,247.5,1159.4z M255.8,1166.8v0.8h-7.6v-3.1h1v2.3H255.8z M248.5,1159.4c0,0.7,0.7,1.2,1.7,1.2
			s1.7-0.5,1.7-1.2c0-0.7-0.7-1.1-1.7-1.1S248.5,1158.7,248.5,1159.4z M254.6,1163.5v-6.4h1v8.2h-1v-1.1h-2.2v-0.7H254.6z"/>
		<path class="st7" d="M261.9,1164.9c1,0,2.1-0.1,3-0.3l0.1,0.7c-2.4,0.4-5,0.4-7,0.4l-0.1-0.8c0.9,0,1.9,0,3,0v-1.2
			c-1.3-0.2-2.1-0.9-2.1-2c0-1.2,1.1-2,2.6-2s2.6,0.8,2.6,2c0,1.1-0.8,1.8-2.1,2V1164.9z M264.7,1159.2h-6.5v-0.8h2.8v-1.3h1v1.3
			h2.8V1159.2z M261.4,1163.1c1,0,1.6-0.5,1.6-1.2c0-0.8-0.7-1.2-1.6-1.2c-1,0-1.7,0.5-1.7,1.2
			C259.8,1162.6,260.4,1163.1,261.4,1163.1z M266.6,1157.1v10.8h-1v-10.8H266.6z"/>
	</g>
	<g class="st13">
		<path class="st7" d="M228.7,1266.1h-4.4v3.8h-1v-3.8H219v-0.8h9.7L228.7,1266.1z M219.6,1263.6c1.9-0.3,3.7-1.5,3.7-2.9v-0.1h-3.4
			v-0.8h7.9v0.8h-3.4v0.1c0,1.4,1.9,2.7,3.8,2.9l-0.4,0.8c-1.7-0.3-3.3-1.2-3.9-2.5c-0.7,1.3-2.2,2.2-3.9,2.5L219.6,1263.6z"/>
		<path class="st7" d="M239.8,1266.1h-4.4v3.8h-1v-3.8h-4.3v-0.8h9.7L239.8,1266.1z M230.7,1263.6c1.9-0.3,3.7-1.5,3.7-2.9v-0.1H231
			v-0.8h7.9v0.8h-3.4v0.1c0,1.4,1.9,2.7,3.8,2.9l-0.4,0.8c-1.7-0.3-3.3-1.2-3.9-2.5c-0.7,1.3-2.2,2.2-3.9,2.5L230.7,1263.6z"/>
		<path class="st7" d="M250.9,1264.7v0.8h-9.7v-0.8h4.4v-1.3h1v1.3H250.9z M241.8,1263.1c2-0.2,3.7-1,3.8-2.2h-3.3v-0.8h3.4v-1.1h1
			v1.1h3.4v0.8h-3.3c0.1,1.2,1.7,2,3.8,2.2l-0.3,0.8c-1.8-0.2-3.3-0.8-4-1.9c-0.7,1.1-2.2,1.7-4,1.9L241.8,1263.1z M249.7,1268.1
			c0,1.2-1.4,1.8-3.7,1.8s-3.7-0.6-3.7-1.8c0-1.2,1.4-1.8,3.7-1.8S249.7,1266.9,249.7,1268.1z M248.7,1268.1c0-0.7-1-1.1-2.7-1.1
			s-2.7,0.4-2.7,1.1c0,0.7,1,1,2.7,1S248.7,1268.8,248.7,1268.1z"/>
		<path class="st7" d="M256.3,1266.9c1,0,2.1-0.1,3-0.3l0.1,0.7c-2.4,0.4-5,0.4-7,0.4l-0.1-0.8c0.9,0,1.9,0,3,0v-1.2
			c-1.3-0.2-2.1-0.9-2.1-2c0-1.2,1.1-2,2.6-2s2.6,0.8,2.6,2c0,1.1-0.8,1.8-2.1,2V1266.9z M259.1,1261.2h-6.5v-0.8h2.8v-1.3h1v1.3
			h2.8V1261.2z M255.9,1265.1c1,0,1.6-0.5,1.6-1.2c0-0.8-0.7-1.2-1.6-1.2c-1,0-1.7,0.5-1.7,1.2
			C254.2,1264.6,254.9,1265.1,255.9,1265.1z M261.1,1259.1v10.8h-1v-10.8H261.1z"/>
	</g>
	<path id="패스_2841_1_" class="st11" d="M282.1,1131.8H355v-44h-72.9V1131.8z"/>
	<g class="st13">
		<path class="st6" d="M317.9,1103.6v1h-4.2v2h-1.2v-2h-4.4v-1H317.9z M308.6,1101.9c2-0.2,3.4-1.2,3.5-2.4H309v-1h8v1h-3.2
			c0.1,1.1,1.5,2.1,3.6,2.4l-0.5,1c-1.9-0.2-3.3-1.1-3.9-2.3c-0.6,1.2-2,2.1-3.9,2.3L308.6,1101.9z M310.5,1107.7h6.3v1h-7.5v-3.1
			h1.2V1107.7z"/>
		<path class="st6" d="M328.2,1098.1v5.9h-1.2v-2.4h-2.3v2h-5v-5h1.2v1.5h2.6v-1.5h1.2v2h2.3v-2.6L328.2,1098.1z M323.5,1101.1h-2.6
			v1.5h2.6V1101.1z M326.9,1104.5h1.2v4.3h-7v-4.3h1.2v1.2h4.6V1104.5z M326.9,1106.6h-4.6v1.1h4.6V1106.6z"/>
	</g>
	<g class="st13">
		<path class="st6" d="M306.5,1115.2c0,1.8,1.1,3.7,2.8,4.4l-0.7,1c-1.3-0.6-2.2-1.7-2.7-3.1c-0.5,1.5-1.5,2.8-2.7,3.4l-0.7-1
			c1.7-0.8,2.8-2.8,2.8-4.7v-1h-2.4v-1h6.1v1h-2.4V1115.2z M311.4,1112.1v10.8h-1.2v-10.8H311.4z"/>
		<path class="st6" d="M316.6,1118c-1,0-2,0.1-2.9,0.1l-0.2-1c2,0,4.7,0,6.9-0.3l0.1,0.9c-0.9,0.2-1.9,0.3-2.8,0.3v2.1h-1.2V1118z
			 M314.4,1114.4c0-1.2,1.1-1.9,2.7-1.9c1.6,0,2.7,0.8,2.7,1.9s-1.1,1.9-2.7,1.9C315.5,1116.3,314.4,1115.6,314.4,1114.4z
			 M322.9,1121.7v1H315v-3.2h1.2v2.2H322.9z M315.6,1114.4c0,0.6,0.6,1,1.5,1c0.9,0,1.5-0.4,1.5-1s-0.6-1-1.5-1
			C316.2,1113.4,315.6,1113.8,315.6,1114.4z M321.4,1118.5v-6.4h1.2v8.2h-1.2v-1h-2.1v-0.9H321.4z"/>
		<path class="st6" d="M327.8,1118.2c-1.6,0-2.9-1.1-2.9-2.7c0-1.6,1.2-2.7,2.9-2.7c1.6,0,2.9,1.1,2.9,2.7
			C330.7,1117.1,329.4,1118.2,327.8,1118.2z M327.8,1117.2c0.9,0,1.7-0.7,1.7-1.6c0-1-0.7-1.6-1.7-1.6c-1,0-1.7,0.6-1.7,1.6
			C326.1,1116.5,326.9,1117.2,327.8,1117.2z M334,1121.7v1h-7.4v-3.5h1.2v2.5H334z M333.7,1120h-1.2v-7.9h1.2V1120z"/>
	</g>
	<g class="st13">
		<path d="M230.4,1212.7c0,2.3-1.1,3.8-2.7,3.8c-1.6,0-2.7-1.5-2.7-3.8s1.1-3.8,2.7-3.8C229.3,1209,230.4,1210.4,230.4,1212.7z
			 M225.9,1212.7c0,1.8,0.7,2.9,1.8,2.9c1,0,1.8-1.1,1.8-2.9c0-1.7-0.7-2.9-1.8-2.9C226.6,1209.8,225.9,1211,225.9,1212.7z
			 M233.3,1208.1v10.8h-1v-10.8H233.3z"/>
		<path d="M239.3,1211c0,1.9,1.2,3.8,2.7,4.6l-0.6,0.8c-1.1-0.6-2.1-1.9-2.6-3.3c-0.5,1.6-1.5,2.9-2.7,3.6l-0.6-0.8
			c1.5-0.8,2.8-2.9,2.8-4.8v-1.9h1V1211z M245.7,1213.3h-1.8v5.6h-1v-10.7h1v4.4h1.8V1213.3z"/>
		<path d="M250.8,1215.9c1,0,2.1-0.1,3-0.3l0.1,0.7c-2.4,0.4-5,0.4-7,0.4l-0.1-0.8c0.9,0,1.9,0,3,0v-1.2c-1.3-0.2-2.1-0.9-2.1-2
			c0-1.2,1.1-2,2.6-2s2.6,0.8,2.6,2c0,1.1-0.8,1.8-2.1,2V1215.9z M253.6,1210.2H247v-0.8h2.8v-1.3h1v1.3h2.8V1210.2z M250.3,1214.1
			c1,0,1.6-0.5,1.6-1.2c0-0.8-0.7-1.2-1.6-1.2c-1,0-1.7,0.5-1.7,1.2C248.7,1213.6,249.3,1214.1,250.3,1214.1z M255.5,1208.1v10.8h-1
			v-10.8H255.5z"/>
	</g>
</g>
</svg>
