<?xml version="1.0" encoding="utf-8"?>
<!-- Generator: Adobe Illustrator 25.1.0, SVG Export Plug-In . SVG Version: 6.00 Build 0)  -->
<svg version="1.1" id="레이어_1" xmlns="http://www.w3.org/2000/svg" xmlns:xlink="http://www.w3.org/1999/xlink" x="0px"
	 y="0px" viewBox="0 0 335 177" style="enable-background:new 0 0 335 177;" xml:space="preserve">
<style type="text/css">
	.st0{enable-background:new    ;}
	.st1{fill:#2AA6D3;}
	.st2{fill:none;stroke:#D6D6D6;}
	.st3{fill:none;stroke:#707070;}
	.st4{fill:#555555;}
	.st5{fill:#929397;}
</style>
<g id="그룹_5850" transform="translate(-20 -1715)">
	<g class="st0">
		<path class="st1" d="M27.8,1723c0,1.8-1.5,3.1-3.5,3.1s-3.5-1.3-3.5-3.1c0-1.8,1.5-3.1,3.5-3.1S27.8,1721.2,27.8,1723z M22.6,1723
			c0,1,0.7,1.6,1.7,1.6c1,0,1.7-0.6,1.7-1.6c0-1-0.7-1.6-1.7-1.6C23.3,1721.4,22.6,1722,22.6,1723z M31.3,1727.2v4.9h-8.6v-4.9H31.3
			z M24.6,1728.6v2h5v-2H24.6z M31.3,1719.3v7.3h-1.9v-7.3H31.3z"/>
		<path class="st1" d="M40.6,1726.6c-1.4-0.4-2.4-1.4-3-2.5c-0.6,1.3-1.6,2.3-3.1,2.8l-0.9-1.4c2.1-0.7,3.1-2.3,3.1-3.9H34v-1.5h7
			v1.5h-2.5c0,1.5,1,3,3,3.7L40.6,1726.6z M35.4,1727.7h8.8v4.6h-1.9v-3.1h-6.9V1727.7z M44.2,1719.3v7.8h-1.9v-7.8H44.2z"/>
		<path class="st1" d="M57.5,1730.5v1.5h-9.6v-3.8h1.8v-1.7c-1.1,0.1-2.2,0.1-3.2,0.1l-0.2-1.5c2.4,0,5.5,0,8.2-0.4l0.1,1.3
			c-1,0.2-2,0.3-3.1,0.4v2.4h-1.8v1.8H57.5z M47.3,1722c0-1.4,1.3-2.3,3.2-2.3c1.9,0,3.2,0.9,3.2,2.3c0,1.4-1.3,2.3-3.2,2.3
			C48.6,1724.3,47.3,1723.4,47.3,1722z M49,1722c0,0.6,0.6,1,1.5,1c0.9,0,1.5-0.3,1.5-1c0-0.6-0.6-1-1.5-1
			C49.6,1721.1,49,1721.4,49,1722z M55.4,1726.8v-7.5h1.8v9.8h-1.8v-1h-2.4v-1.3H55.4z"/>
		<path class="st1" d="M74.1,1725.5v1.5h-2.7v2.3h-1.8v-2.3h-1.3v2.3h-1.8v-2.3h-4v-1.5H74.1z M63.6,1722.2c0-1.6,1.9-2.7,4.6-2.7
			c2.8,0,4.6,1.1,4.6,2.7c0,1.6-1.8,2.7-4.6,2.7C65.5,1724.9,63.6,1723.8,63.6,1722.2z M65.6,1730.5H73v1.5h-9.2v-3.8h1.8V1730.5z
			 M65.6,1722.2c0,0.8,1,1.2,2.6,1.2c1.6,0,2.6-0.4,2.6-1.2c0-0.8-1-1.2-2.6-1.2C66.6,1721,65.6,1721.4,65.6,1722.2z"/>
		<path class="st1" d="M77.9,1727.7c2,0,3.6-0.1,5.4-0.4l0.2,1.5c-2.1,0.4-4,0.4-6.3,0.4H76v-5.3h4.2v-2.1H76v-1.5h6.1v5h-4.2
			V1727.7z M86,1719.3v12.9h-1.8v-12.9H86z"/>
		<path class="st1" d="M99.9,1729.2v1.5H88.2v-1.5h2.5v-4.1h1.8v4.1h1.4v-4.1h1.8v4.1H99.9z M96.5,1727.4c0.4-2.3,0.4-4.1,0.4-5.6
			h-7.6v-1.5h9.5v1.2c0,1.6,0,3.4-0.4,6L96.5,1727.4z"/>
		<path class="st1" d="M109.9,1726.8v1.2h1.4v4.2h-1.8v-2.8h-7.1v-1.4h1.5v-1.2h-2.7v-1.5h11.7v1.5H109.9z M102.2,1722.1
			c0-1.6,1.8-2.5,4.7-2.5c2.8,0,4.7,1,4.7,2.5c0,1.6-1.8,2.5-4.7,2.5C104.1,1724.6,102.2,1723.7,102.2,1722.1z M104.1,1722.1
			c0,0.8,1,1.1,2.8,1.1c1.8,0,2.8-0.4,2.8-1.1c0-0.7-1-1.1-2.8-1.1C105.1,1721,104.1,1721.4,104.1,1722.1z M108.1,1726.8h-2.5v1.2
			h2.5V1726.8z"/>
		<path class="st1" d="M124.1,1725.7c-1.5-0.4-2.5-1.3-3-2.5c-0.6,1.2-1.6,2.2-3.2,2.7l-0.9-1.4c2.1-0.7,3.1-2.3,3.1-3.9v-1h1.9v1
			c0,1.5,0.9,3,3,3.6L124.1,1725.7z M128.2,1730.7v1.4h-8.9v-3.5h6.8v-0.8h-6.8v-1.4h8.6v3.5h-6.8v0.8H128.2z M127.8,1725.8H126
			v-6.5h1.8V1725.8z"/>
		<path class="st1" d="M135,1722.2c0,2.4,1,4.7,3.2,5.7l-1.1,1.5c-1.5-0.7-2.5-1.9-3.1-3.5c-0.6,1.7-1.6,3.1-3.2,3.8l-1.1-1.5
			c2.3-1,3.3-3.5,3.3-6v-1.9h1.8V1722.2z M140.7,1719.3v12.9h-1.8v-12.9H140.7z"/>
		<path class="st1" d="M153.2,1722.1h-7.1v-1.4h2.7v-1.4h1.8v1.4h2.5V1722.1z M149.7,1727.6c-1.8,0-3-1.1-3-2.5c0-1.5,1.3-2.5,3-2.5
			c1.8,0,3,1,3,2.5C152.7,1726.6,151.5,1727.6,149.7,1727.6z M157.1,1730.5v1.5h-8.8v-3.6h1.8v2.2H157.1z M149.7,1726.2
			c0.7,0,1.3-0.4,1.3-1.1c0-0.7-0.5-1.1-1.3-1.1c-0.8,0-1.3,0.4-1.3,1.1C148.4,1725.8,149,1726.2,149.7,1726.2z M155,1726.7h-1.7
			v-1.5h1.7v-1.3h-1.7v-1.5h1.7v-3.2h1.8v9.8H155V1726.7z"/>
		<path class="st1" d="M166.9,1727.2c-2.7,0.5-5.6,0.5-7.9,0.5l-0.2-1.4c0.9,0,2,0,3.1,0v-0.7c-1.4-0.2-2.2-0.8-2.2-1.8
			c0-1.2,1.2-1.8,3.2-1.8c1.9,0,3.1,0.7,3.1,1.8c0,0.9-0.8,1.6-2.2,1.8v0.7c1.1-0.1,2.1-0.1,3.1-0.3L166.9,1727.2z M166.4,1721.6
			h-7.3v-1.3h2.7v-1h1.8v1h2.7V1721.6z M169.2,1730.2c0,1.3-1.6,2-4.4,2s-4.4-0.7-4.4-2s1.6-2,4.4-2S169.2,1728.9,169.2,1730.2z
			 M162.8,1724.4c0.9,0,1.4-0.2,1.4-0.6c0-0.4-0.5-0.7-1.4-0.7s-1.4,0.2-1.4,0.7C161.4,1724.2,161.9,1724.4,162.8,1724.4z
			 M167.4,1730.2c0-0.5-0.8-0.7-2.5-0.7s-2.5,0.2-2.5,0.7s0.8,0.7,2.5,0.7C166.6,1730.9,167.4,1730.7,167.4,1730.2z M170.8,1723v1.5
			h-1.6v3.5h-1.8v-8.7h1.8v3.7H170.8z"/>
	</g>
	<line id="선_398" class="st2" x1="220.5" y1="1745" x2="220.5" y2="1871"/>
	<line id="선_399" class="st2" x1="287.5" y1="1745" x2="287.5" y2="1871"/>
	<line id="선_400" class="st2" x1="152.5" y1="1745" x2="152.5" y2="1871"/>
	<path id="패스_1677" class="st2" d="M20.2,1824.5H355"/>
	<path id="패스_2801" class="st3" d="M20.2,1870.5H355"/>
	<path id="패스_1677-2" class="st3" d="M20.2,1745H355"/>
	<path id="패스_1678" class="st2" d="M20.2,1777.5H355"/>
	<g class="st0">
		<path d="M172.5,1766c2.5-2.4,3.9-3.9,3.9-5.3c0-0.9-0.5-1.6-1.5-1.6c-0.7,0-1.3,0.4-1.7,1l-0.8-0.8c0.8-0.8,1.5-1.3,2.7-1.3
			c1.6,0,2.7,1,2.7,2.6c0,1.6-1.4,3.2-3.3,5.1c0.4,0,1-0.1,1.4-0.1h2.2v1.2h-5.7V1766z"/>
		<path d="M179.4,1762.5c0-2.9,1.1-4.4,2.9-4.4c1.8,0,2.9,1.5,2.9,4.4c0,2.9-1.1,4.5-2.9,4.5C180.5,1767,179.4,1765.4,179.4,1762.5z
			 M183.8,1762.5c0-2.5-0.6-3.3-1.5-3.3s-1.5,0.9-1.5,3.3c0,2.5,0.6,3.4,1.5,3.4S183.8,1764.9,183.8,1762.5z"/>
		<path d="M186.7,1765.7h1.9v-5.9h-1.6v-0.9c0.8-0.1,1.4-0.4,1.9-0.7h1v7.4h1.7v1.1h-5V1765.7z"/>
		<path d="M193.1,1764.6c0-1.1,0.8-1.8,1.6-2.3v0c-0.7-0.5-1.2-1.1-1.2-2c0-1.4,1.1-2.3,2.5-2.3c1.5,0,2.5,0.9,2.5,2.3
			c0,0.9-0.6,1.6-1.2,2v0.1c0.8,0.5,1.5,1.1,1.5,2.2c0,1.3-1.2,2.3-2.9,2.3C194.3,1767,193.1,1766,193.1,1764.6z M197.5,1764.6
			c0-1-1-1.4-2.2-1.9c-0.6,0.4-1,1-1,1.7c0,0.9,0.7,1.5,1.7,1.5C196.9,1766,197.5,1765.4,197.5,1764.6z M197.3,1760.4
			c0-0.8-0.5-1.4-1.4-1.4c-0.7,0-1.3,0.5-1.3,1.3c0,0.9,0.8,1.3,1.8,1.7C197,1761.5,197.3,1761,197.3,1760.4z"/>
	</g>
	<g class="st0">
		<path d="M240.5,1766c2.5-2.4,3.9-3.9,3.9-5.3c0-0.9-0.5-1.6-1.5-1.6c-0.7,0-1.3,0.4-1.7,1l-0.8-0.8c0.8-0.8,1.5-1.3,2.7-1.3
			c1.6,0,2.7,1,2.7,2.6c0,1.6-1.4,3.2-3.3,5.1c0.4,0,1-0.1,1.4-0.1h2.2v1.2h-5.7V1766z"/>
		<path d="M247.4,1762.5c0-2.9,1.1-4.4,2.9-4.4c1.8,0,2.9,1.5,2.9,4.4c0,2.9-1.1,4.5-2.9,4.5C248.5,1767,247.4,1765.4,247.4,1762.5z
			 M251.8,1762.5c0-2.5-0.6-3.3-1.5-3.3s-1.5,0.9-1.5,3.3c0,2.5,0.6,3.4,1.5,3.4S251.8,1764.9,251.8,1762.5z"/>
		<path d="M254.7,1765.7h1.9v-5.9h-1.6v-0.9c0.8-0.1,1.4-0.4,1.9-0.7h1v7.4h1.7v1.1h-5V1765.7z"/>
		<path d="M261.2,1766l0.8-0.9c0.3,0.4,0.9,0.7,1.4,0.7c1.1,0,2.1-0.9,2.1-3.4c-0.5,0.7-1.3,1-1.9,1c-1.5,0-2.5-0.9-2.5-2.7
			c0-1.7,1.2-2.8,2.6-2.8c1.7,0,3.1,1.3,3.1,4.2c0,3.4-1.6,4.7-3.3,4.7C262.4,1767,261.7,1766.5,261.2,1766z M263.8,1762.5
			c0.5,0,1.2-0.3,1.7-1.1c-0.2-1.6-0.8-2.3-1.7-2.3c-0.8,0-1.4,0.6-1.4,1.7C262.3,1761.9,262.8,1762.5,263.8,1762.5z"/>
	</g>
	<g class="st0">
		<path d="M307.5,1766c2.5-2.4,3.9-3.9,3.9-5.3c0-0.9-0.5-1.6-1.5-1.6c-0.7,0-1.3,0.4-1.7,1l-0.8-0.8c0.8-0.8,1.5-1.3,2.7-1.3
			c1.6,0,2.7,1,2.7,2.6c0,1.6-1.4,3.2-3.3,5.1c0.4,0,1-0.1,1.4-0.1h2.2v1.2h-5.7V1766z"/>
		<path d="M314.4,1762.5c0-2.9,1.1-4.4,2.9-4.4c1.8,0,2.9,1.5,2.9,4.4c0,2.9-1.1,4.5-2.9,4.5C315.5,1767,314.4,1765.4,314.4,1762.5z
			 M318.8,1762.5c0-2.5-0.6-3.3-1.5-3.3s-1.5,0.9-1.5,3.3c0,2.5,0.6,3.4,1.5,3.4S318.8,1764.9,318.8,1762.5z"/>
		<path d="M321.2,1766c2.5-2.4,3.9-3.9,3.9-5.3c0-0.9-0.5-1.6-1.5-1.6c-0.7,0-1.3,0.4-1.7,1l-0.8-0.8c0.8-0.8,1.5-1.3,2.7-1.3
			c1.6,0,2.7,1,2.7,2.6c0,1.6-1.4,3.2-3.3,5.1c0.4,0,1-0.1,1.4-0.1h2.2v1.2h-5.7V1766z"/>
		<path d="M328.1,1762.5c0-2.9,1.1-4.4,2.9-4.4c1.8,0,2.9,1.5,2.9,4.4c0,2.9-1.1,4.5-2.9,4.5C329.2,1767,328.1,1765.4,328.1,1762.5z
			 M332.5,1762.5c0-2.5-0.6-3.3-1.5-3.3s-1.5,0.9-1.5,3.3c0,2.5,0.6,3.4,1.5,3.4S332.5,1764.9,332.5,1762.5z"/>
		<path d="M335.6,1761l0.8-1.3l-1.4-0.6l0.2-0.7l1.4,0.3l0.1-1.5h0.8l0.1,1.5l1.4-0.3l0.2,0.7l-1.4,0.6l0.8,1.3l-0.6,0.5l-1-1.2
			l-1,1.2L335.6,1761z"/>
	</g>
	<g class="st0">
		<path d="M40.4,1763.4h-4.3v4.5h-1.2v-4.5h-4.2v-1h7c0.3-1.5,0.3-2.6,0.3-3.6h-6.2v-1h7.4v0.9c0,1,0,2.1-0.3,3.7h1.5V1763.4z"/>
		<path d="M51.5,1762.7v1h-4.2v1.9H46v-1.9h-4.4v-1H51.5z M44.1,1766.7h6.3v1h-7.5v-3h1.2V1766.7z M50.2,1761.8h-7.3v-4.4h1.2v1.2
			H49v-1.2h1.2V1761.8z M49,1759.6h-4.8v1.2H49V1759.6z"/>
	</g>
	<g class="st0">
		<path class="st4" d="M165.5,1805.2c2.6-2.6,4-4.1,4-5.5c0-1-0.5-1.7-1.6-1.7c-0.7,0-1.3,0.5-1.8,1l-0.6-0.6
			c0.7-0.8,1.5-1.3,2.6-1.3c1.6,0,2.6,1,2.6,2.5c0,1.6-1.5,3.2-3.5,5.3c0.5,0,1-0.1,1.4-0.1h2.5v0.9h-5.5V1805.2z"/>
		<path class="st4" d="M172.3,1807.4c0.8-0.3,1.2-0.9,1.2-1.6c0,0-0.1,0-0.1,0c-0.4,0-0.8-0.3-0.8-0.8c0-0.5,0.4-0.8,0.8-0.8
			c0.6,0,0.9,0.5,0.9,1.3c0,1.2-0.7,2.1-1.8,2.5L172.3,1807.4z"/>
		<path class="st4" d="M175.3,1804.8l0.6-0.7c0.5,0.5,1.2,1,2.2,1c1,0,1.8-0.6,1.8-1.6c0-1-0.7-1.7-2.7-1.7v-0.8
			c1.8,0,2.4-0.7,2.4-1.6c0-0.8-0.6-1.4-1.5-1.4c-0.7,0-1.3,0.4-1.8,0.9l-0.6-0.7c0.7-0.6,1.4-1.1,2.5-1.1c1.5,0,2.6,0.8,2.6,2.2
			c0,1-0.6,1.7-1.6,2v0c1,0.3,1.9,1,1.9,2.2c0,1.5-1.3,2.4-2.8,2.4C176.8,1806,175.9,1805.4,175.3,1804.8z"/>
		<path class="st4" d="M182.7,1804.9h2v-6.3h-1.6v-0.7c0.8-0.1,1.3-0.3,1.8-0.6h0.8v7.6h1.8v0.9h-4.8V1804.9z"/>
		<path class="st4" d="M189.4,1804.9h2v-6.3h-1.6v-0.7c0.8-0.1,1.3-0.3,1.8-0.6h0.8v7.6h1.8v0.9h-4.8V1804.9z"/>
		<path class="st4" d="M201,1801.5h-4.9v-4.8h4.9v0.9h2.5v-1.7h1v6.4h-1v-1.7H201V1801.5z M200,1797.5h-3v3.2h3V1797.5z
			 M204.5,1804.6c0,1.3-1.4,2-3.6,2c-2.2,0-3.6-0.7-3.6-2c0-1.3,1.4-2,3.6-2C203.1,1802.6,204.5,1803.4,204.5,1804.6z M203.5,1804.6
			c0-0.8-1-1.3-2.6-1.3c-1.6,0-2.6,0.5-2.6,1.3s1,1.3,2.6,1.3C202.5,1805.9,203.5,1805.4,203.5,1804.6z M201,1798.5v1.3h2.5v-1.3
			H201z"/>
	</g>
	<g class="st0">
		<path class="st4" d="M178.1,1849.9h-3.8v-0.7l3.7-5.5h1.2v5.3h1.2v0.9h-1.2v2.4h-1V1849.9z M178.1,1849v-2.5c0-0.4,0-1.2,0.1-1.6
			h0c-0.2,0.4-0.5,0.8-0.7,1.2l-2,2.9H178.1z"/>
		<path class="st4" d="M185.5,1844.7h-4.3v-0.9h5.5v0.7c-2,2.6-2.4,4.5-2.6,7.9H183C183.2,1849.1,183.8,1847,185.5,1844.7z"/>
		<path class="st4" d="M193.4,1848h-4.9v-4.8h4.9v0.9h2.5v-1.7h1v6.4h-1v-1.7h-2.5V1848z M192.4,1844h-3v3.2h3V1844z M196.9,1851.1
			c0,1.3-1.4,2-3.6,2c-2.2,0-3.6-0.7-3.6-2c0-1.3,1.4-2,3.6-2C195.5,1849.1,196.9,1849.8,196.9,1851.1z M195.9,1851.1
			c0-0.8-1-1.3-2.6-1.3c-1.6,0-2.6,0.5-2.6,1.3s1,1.3,2.6,1.3C194.9,1852.4,195.9,1851.9,195.9,1851.1z M193.4,1845v1.3h2.5v-1.3
			H193.4z"/>
	</g>
	<g class="st0">
		<path class="st4" d="M233.5,1805.2c2.6-2.6,4-4.1,4-5.5c0-1-0.5-1.7-1.6-1.7c-0.7,0-1.3,0.5-1.8,1l-0.6-0.6
			c0.7-0.8,1.5-1.3,2.6-1.3c1.6,0,2.6,1,2.6,2.5c0,1.6-1.5,3.2-3.5,5.3c0.5,0,1-0.1,1.4-0.1h2.5v0.9h-5.5V1805.2z"/>
		<path class="st4" d="M240.3,1807.4c0.8-0.3,1.2-0.9,1.2-1.6c0,0-0.1,0-0.1,0c-0.4,0-0.8-0.3-0.8-0.8c0-0.5,0.4-0.8,0.8-0.8
			c0.6,0,0.9,0.5,0.9,1.3c0,1.2-0.7,2.1-1.8,2.5L240.3,1807.4z"/>
		<path class="st4" d="M244.1,1804.9h2v-6.3h-1.6v-0.7c0.8-0.1,1.3-0.3,1.8-0.6h0.8v7.6h1.8v0.9h-4.8V1804.9z"/>
		<path class="st4" d="M250.2,1803.6c0-1.1,0.8-1.9,1.6-2.3v0c-0.6-0.4-1.2-1.1-1.2-2c0-1.3,1-2.2,2.4-2.2c1.5,0,2.4,0.9,2.4,2.3
			c0,0.9-0.7,1.7-1.2,2.1v0.1c0.8,0.5,1.5,1.1,1.5,2.2c0,1.3-1.1,2.3-2.8,2.3C251.4,1806,250.2,1805,250.2,1803.6z M254.7,1803.7
			c0-1.1-1.1-1.5-2.3-2c-0.7,0.4-1.2,1.1-1.2,1.9c0,0.9,0.8,1.6,1.8,1.6C254,1805.1,254.7,1804.5,254.7,1803.7z M254.5,1799.4
			c0-0.8-0.5-1.5-1.5-1.5c-0.8,0-1.4,0.5-1.4,1.4c0,1,0.9,1.5,2,1.9C254.2,1800.6,254.5,1800.1,254.5,1799.4z"/>
		<path class="st4" d="M256.7,1804.8l0.6-0.7c0.5,0.5,1.2,1,2.2,1c1,0,1.8-0.6,1.8-1.6c0-1-0.7-1.7-2.7-1.7v-0.8
			c1.8,0,2.4-0.7,2.4-1.6c0-0.8-0.6-1.4-1.5-1.4c-0.7,0-1.3,0.4-1.8,0.9l-0.6-0.7c0.7-0.6,1.4-1.1,2.5-1.1c1.5,0,2.6,0.8,2.6,2.2
			c0,1-0.6,1.7-1.6,2v0c1,0.3,1.9,1,1.9,2.2c0,1.5-1.3,2.4-2.8,2.4C258.1,1806,257.2,1805.4,256.7,1804.8z"/>
		<path class="st4" d="M269,1801.5h-4.9v-4.8h4.9v0.9h2.5v-1.7h1v6.4h-1v-1.7H269V1801.5z M268,1797.5h-3v3.2h3V1797.5z
			 M272.5,1804.6c0,1.3-1.4,2-3.6,2c-2.2,0-3.6-0.7-3.6-2c0-1.3,1.4-2,3.6-2C271.1,1802.6,272.5,1803.4,272.5,1804.6z M271.5,1804.6
			c0-0.8-1-1.3-2.6-1.3c-1.6,0-2.6,0.5-2.6,1.3s1,1.3,2.6,1.3C270.5,1805.9,271.5,1805.4,271.5,1804.6z M269,1798.5v1.3h2.5v-1.3
			H269z"/>
	</g>
	<g class="st0">
		<path class="st4" d="M246.8,1844.7h-4.3v-0.9h5.5v0.7c-2,2.6-2.4,4.5-2.6,7.9h-1.1C244.5,1849.1,245.2,1847,246.8,1844.7z"/>
		<path class="st4" d="M249,1851.3l0.5-0.7c0.5,0.5,1.1,1,2.2,1c1,0,1.9-0.8,1.9-1.9s-0.7-1.9-1.8-1.9c-0.6,0-1,0.2-1.5,0.5
			l-0.6-0.4l0.3-4.1h4.3v0.9h-3.3l-0.2,2.6c0.4-0.2,0.8-0.4,1.3-0.4c1.5,0,2.7,0.8,2.7,2.7s-1.4,2.9-2.9,2.9
			C250.4,1852.4,249.6,1851.9,249,1851.3z"/>
		<path class="st4" d="M261.4,1848h-4.9v-4.8h4.9v0.9h2.5v-1.7h1v6.4h-1v-1.7h-2.5V1848z M260.4,1844h-3v3.2h3V1844z M264.9,1851.1
			c0,1.3-1.4,2-3.6,2c-2.2,0-3.6-0.7-3.6-2c0-1.3,1.4-2,3.6-2C263.5,1849.1,264.9,1849.8,264.9,1851.1z M263.9,1851.1
			c0-0.8-1-1.3-2.6-1.3c-1.6,0-2.6,0.5-2.6,1.3s1,1.3,2.6,1.3C262.9,1852.4,263.9,1851.9,263.9,1851.1z M261.4,1845v1.3h2.5v-1.3
			H261.4z"/>
	</g>
	<g class="st0">
		<path class="st4" d="M304.1,1804.9h2v-6.3h-1.6v-0.7c0.8-0.1,1.3-0.3,1.8-0.6h0.8v7.6h1.8v0.9h-4.8V1804.9z"/>
		<path class="st4" d="M310.3,1807.4c0.8-0.3,1.2-0.9,1.2-1.6c0,0-0.1,0-0.1,0c-0.4,0-0.8-0.3-0.8-0.8c0-0.5,0.4-0.8,0.8-0.8
			c0.6,0,0.9,0.5,0.9,1.3c0,1.2-0.7,2.1-1.8,2.5L310.3,1807.4z"/>
		<path class="st4" d="M313.6,1801.9c0-3.4,1.5-4.8,3.3-4.8c0.9,0,1.6,0.4,2.1,0.9l-0.6,0.7c-0.3-0.4-0.9-0.7-1.4-0.7
			c-1.2,0-2.2,0.9-2.3,3.6c0.6-0.7,1.3-1.1,2-1.1c1.5,0,2.4,0.9,2.4,2.6c0,1.6-1.2,2.7-2.5,2.7
			C314.9,1806,313.6,1804.6,313.6,1801.9z M314.7,1802.5c0.1,1.7,0.8,2.6,1.9,2.6c0.9,0,1.5-0.8,1.5-1.9c0-1.1-0.5-1.8-1.6-1.8
			C315.9,1801.4,315.3,1801.7,314.7,1802.5z"/>
		<path class="st4" d="M320.4,1805.1l0.6-0.7c0.3,0.4,0.9,0.7,1.4,0.7c1.2,0,2.2-0.9,2.3-3.7c-0.6,0.7-1.3,1.1-2,1.1
			c-1.5,0-2.4-0.9-2.4-2.7c0-1.6,1.2-2.7,2.5-2.7c1.7,0,3,1.4,3,4.1c0,3.4-1.5,4.8-3.2,4.8C321.5,1806,320.8,1805.6,320.4,1805.1z
			 M322.8,1801.7c0.6,0,1.2-0.3,1.8-1.2c-0.1-1.7-0.8-2.5-1.9-2.5c-0.8,0-1.5,0.7-1.5,1.9C321.2,1800.9,321.7,1801.7,322.8,1801.7z"
			/>
		<path class="st4" d="M326.8,1805.2c2.6-2.6,4-4.1,4-5.5c0-1-0.5-1.7-1.6-1.7c-0.7,0-1.3,0.5-1.8,1l-0.6-0.6
			c0.7-0.8,1.5-1.3,2.6-1.3c1.6,0,2.6,1,2.6,2.5c0,1.6-1.5,3.2-3.5,5.3c0.5,0,1-0.1,1.4-0.1h2.5v0.9h-5.5V1805.2z"/>
		<path class="st4" d="M339,1801.5h-4.9v-4.8h4.9v0.9h2.5v-1.7h1v6.4h-1v-1.7H339V1801.5z M338,1797.5h-3v3.2h3V1797.5z
			 M342.5,1804.6c0,1.3-1.4,2-3.6,2c-2.2,0-3.6-0.7-3.6-2c0-1.3,1.4-2,3.6-2C341.1,1802.6,342.5,1803.4,342.5,1804.6z M341.5,1804.6
			c0-0.8-1-1.3-2.6-1.3c-1.6,0-2.6,0.5-2.6,1.3s1,1.3,2.6,1.3C340.5,1805.9,341.5,1805.4,341.5,1804.6z M339,1798.5v1.3h2.5v-1.3
			H339z"/>
	</g>
	<g class="st0">
		<path class="st4" d="M304.1,1851.4h2v-6.3h-1.6v-0.7c0.8-0.1,1.3-0.3,1.8-0.6h0.8v7.6h1.8v0.9h-4.8V1851.4z"/>
		<path class="st4" d="M310.3,1853.9c0.8-0.3,1.2-0.9,1.2-1.6c0,0-0.1,0-0.1,0c-0.4,0-0.8-0.3-0.8-0.8c0-0.5,0.4-0.8,0.8-0.8
			c0.6,0,0.9,0.5,0.9,1.3c0,1.2-0.7,2.1-1.8,2.5L310.3,1853.9z"/>
		<path class="st4" d="M313.6,1848.3c0-3.4,1.5-4.8,3.3-4.8c0.9,0,1.6,0.4,2.1,0.9l-0.6,0.7c-0.3-0.4-0.9-0.7-1.4-0.7
			c-1.2,0-2.2,0.9-2.3,3.6c0.6-0.7,1.3-1.1,2-1.1c1.5,0,2.4,0.9,2.4,2.6c0,1.6-1.2,2.7-2.5,2.7
			C314.9,1852.4,313.6,1851.1,313.6,1848.3z M314.7,1849c0.1,1.7,0.8,2.6,1.9,2.6c0.9,0,1.5-0.8,1.5-1.9c0-1.1-0.5-1.8-1.6-1.8
			C315.9,1847.9,315.3,1848.2,314.7,1849z"/>
		<path class="st4" d="M320,1851.2l0.6-0.7c0.5,0.5,1.2,1,2.2,1c1,0,1.8-0.6,1.8-1.6c0-1-0.7-1.7-2.7-1.7v-0.8
			c1.8,0,2.4-0.7,2.4-1.6c0-0.8-0.6-1.4-1.5-1.4c-0.7,0-1.3,0.4-1.8,0.9l-0.6-0.7c0.7-0.6,1.4-1.1,2.5-1.1c1.5,0,2.6,0.8,2.6,2.2
			c0,1-0.6,1.7-1.6,2v0c1,0.3,1.9,1,1.9,2.2c0,1.5-1.3,2.4-2.8,2.4C321.4,1852.4,320.6,1851.9,320,1851.2z"/>
		<path class="st4" d="M326.9,1850.1c0-1.1,0.8-1.9,1.6-2.3v0c-0.6-0.4-1.2-1.1-1.2-2c0-1.3,1-2.2,2.4-2.2c1.5,0,2.4,0.9,2.4,2.3
			c0,0.9-0.7,1.7-1.2,2.1v0.1c0.8,0.5,1.5,1.1,1.5,2.2c0,1.3-1.1,2.3-2.8,2.3C328,1852.4,326.9,1851.5,326.9,1850.1z M331.4,1850.1
			c0-1.1-1.1-1.5-2.3-2c-0.7,0.4-1.2,1.1-1.2,1.9c0,0.9,0.8,1.6,1.8,1.6C330.7,1851.6,331.4,1851,331.4,1850.1z M331.2,1845.9
			c0-0.8-0.5-1.5-1.5-1.5c-0.8,0-1.4,0.5-1.4,1.4c0,1,0.9,1.5,2,1.9C330.8,1847.1,331.2,1846.5,331.2,1845.9z"/>
		<path class="st4" d="M339,1848h-4.9v-4.8h4.9v0.9h2.5v-1.7h1v6.4h-1v-1.7H339V1848z M338,1844h-3v3.2h3V1844z M342.5,1851.1
			c0,1.3-1.4,2-3.6,2c-2.2,0-3.6-0.7-3.6-2c0-1.3,1.4-2,3.6-2C341.1,1849.1,342.5,1849.8,342.5,1851.1z M341.5,1851.1
			c0-0.8-1-1.3-2.6-1.3c-1.6,0-2.6,0.5-2.6,1.3s1,1.3,2.6,1.3C340.5,1852.4,341.5,1851.9,341.5,1851.1z M339,1845v1.3h2.5v-1.3H339z
			"/>
	</g>
	<g class="st0">
		<path class="st4" d="M31.2,1788.2h2.2c2.7,0,4.1,1.6,4.1,4.4c0,2.8-1.5,4.4-4.1,4.4h-2.3V1788.2z M33.3,1796.1
			c2.1,0,3.1-1.3,3.1-3.5c0-2.2-1-3.5-3.1-3.5h-1v7H33.3z"/>
		<path class="st4" d="M39.2,1788.4c0-0.4,0.3-0.7,0.7-0.7c0.4,0,0.7,0.3,0.7,0.7c0,0.4-0.3,0.7-0.7,0.7
			C39.5,1789.1,39.2,1788.9,39.2,1788.4z M39.3,1790.5h1.1v6.5h-1.1V1790.5z"/>
		<path class="st4" d="M41.7,1790.5h1.1l1.2,3.7c0.2,0.6,0.4,1.3,0.6,1.9h0c0.2-0.6,0.4-1.3,0.6-1.9l1.2-3.7h1.1l-2.3,6.5h-1.3
			L41.7,1790.5z"/>
		<path class="st4" d="M48.4,1793.8c0-2.1,1.4-3.4,2.9-3.4c1.7,0,2.6,1.2,2.6,3.1c0,0.2,0,0.5,0,0.6h-4.4c0.1,1.4,0.9,2.3,2.2,2.3
			c0.6,0,1.2-0.2,1.6-0.5l0.4,0.7c-0.6,0.4-1.3,0.7-2.2,0.7C49.8,1797.2,48.4,1795.9,48.4,1793.8z M52.9,1793.2c0-1.3-0.6-2-1.6-2
			c-0.9,0-1.7,0.7-1.9,2H52.9z"/>
		<path class="st4" d="M55.5,1790.5h0.9l0.1,1.2h0c0.5-0.8,1.1-1.4,1.8-1.4c0.3,0,0.5,0,0.7,0.1l-0.2,1c-0.2-0.1-0.4-0.1-0.6-0.1
			c-0.5,0-1.2,0.4-1.6,1.5v4.2h-1.1V1790.5z"/>
		<path class="st4" d="M59.4,1796.3l0.5-0.7c0.6,0.5,1.2,0.8,1.9,0.8c0.9,0,1.3-0.5,1.3-1c0-0.7-0.8-1-1.5-1.2
			c-0.9-0.3-1.9-0.8-1.9-1.9c0-1,0.8-1.8,2.3-1.8c0.8,0,1.5,0.3,2,0.7l-0.5,0.7c-0.4-0.3-0.9-0.6-1.5-0.6c-0.8,0-1.2,0.4-1.2,0.9
			c0,0.6,0.7,0.9,1.4,1.1c0.9,0.4,2,0.7,2,2c0,1.1-0.8,1.9-2.4,1.9C60.9,1797.2,60,1796.8,59.4,1796.3z"/>
		<path class="st4" d="M65.5,1788.4c0-0.4,0.3-0.7,0.7-0.7c0.4,0,0.7,0.3,0.7,0.7c0,0.4-0.3,0.7-0.7,0.7
			C65.8,1789.1,65.5,1788.9,65.5,1788.4z M65.7,1790.5h1.1v6.5h-1.1V1790.5z"/>
		<path class="st4" d="M69.2,1795v-3.6h-1v-0.8l1-0.1l0.1-1.8h0.9v1.8h1.8v0.9h-1.8v3.6c0,0.8,0.3,1.3,1,1.3c0.2,0,0.5-0.1,0.7-0.2
			l0.2,0.8c-0.4,0.1-0.8,0.2-1.2,0.2C69.7,1797.2,69.2,1796.3,69.2,1795z"/>
		<path class="st4" d="M72.9,1799.7l0.2-0.9c0.1,0,0.3,0.1,0.5,0.1c0.7,0,1.2-0.6,1.5-1.4l0.1-0.5l-2.6-6.5h1.1l1.3,3.6
			c0.2,0.6,0.4,1.2,0.6,1.8h0.1c0.2-0.6,0.4-1.2,0.6-1.8l1.2-3.6h1.1l-2.5,7.1c-0.4,1.3-1.1,2.3-2.4,2.3
			C73.3,1799.8,73.1,1799.8,72.9,1799.7z"/>
		<path class="st4" d="M81.8,1794.7c0-1.2,0.8-1.9,1.7-2.5c-0.4-0.7-0.6-1.4-0.6-2.1c0-1.2,0.8-2.1,2-2.1c1.1,0,1.7,0.7,1.7,1.7
			c0,1.2-1,1.9-2,2.6c0.6,0.9,1.4,1.8,2.2,2.5c0.6-0.7,1-1.6,1.2-2.6h1c-0.3,1.2-0.8,2.2-1.5,3.1c0.6,0.4,1.2,0.7,1.6,0.8l-0.3,0.9
			c-0.6-0.2-1.3-0.5-2-1c-0.7,0.6-1.5,1-2.5,1C82.9,1797.2,81.8,1796.1,81.8,1794.7z M84.6,1796.3c0.6,0,1.2-0.3,1.7-0.7
			c-0.9-0.8-1.7-1.7-2.3-2.6c-0.6,0.5-1.1,1-1.1,1.7C82.9,1795.6,83.6,1796.3,84.6,1796.3z M84.3,1791.7c0.8-0.5,1.5-1.1,1.5-1.9
			c0-0.5-0.2-1-0.8-1c-0.7,0-1.1,0.6-1.1,1.3C83.9,1790.6,84.1,1791.1,84.3,1791.7z"/>
		<path class="st4" d="M92.9,1792.6c0-2.8,1.7-4.6,4-4.6c1.2,0,2,0.6,2.5,1.1l-0.6,0.7c-0.4-0.5-1-0.8-1.9-0.8
			c-1.8,0-2.9,1.4-2.9,3.6c0,2.2,1,3.6,2.9,3.6c0.6,0,1.2-0.2,1.6-0.5v-2.3h-1.9v-0.9h2.9v3.7c-0.6,0.6-1.5,1-2.7,1
			C94.6,1797.2,92.9,1795.5,92.9,1792.6z"/>
		<path class="st4" d="M101.1,1793.8c0-2.1,1.4-3.4,2.9-3.4c1.7,0,2.6,1.2,2.6,3.1c0,0.2,0,0.5,0,0.6h-4.4c0.1,1.4,0.9,2.3,2.2,2.3
			c0.6,0,1.2-0.2,1.6-0.5l0.4,0.7c-0.6,0.4-1.3,0.7-2.2,0.7C102.5,1797.2,101.1,1795.9,101.1,1793.8z M105.7,1793.2
			c0-1.3-0.6-2-1.6-2c-0.9,0-1.7,0.7-1.9,2H105.7z"/>
		<path class="st4" d="M108.3,1790.5h0.9l0.1,0.9h0c0.6-0.6,1.3-1.1,2.2-1.1c1.4,0,2,0.9,2,2.6v4.1h-1.1v-4c0-1.2-0.4-1.7-1.2-1.7
			c-0.7,0-1.1,0.3-1.8,1v4.7h-1.1V1790.5z"/>
		<path class="st4" d="M115.1,1793.8c0-2.1,1.3-3.4,2.8-3.4c0.8,0,1.3,0.3,1.8,0.8l0-1.1v-2.5h1.1v9.5h-0.9l-0.1-0.8h0
			c-0.5,0.5-1.2,0.9-2,0.9C116.2,1797.2,115.1,1795.9,115.1,1793.8z M119.7,1795.3v-3.4c-0.6-0.5-1.1-0.7-1.6-0.7
			c-1.1,0-1.9,1-1.9,2.5c0,1.6,0.6,2.5,1.8,2.5C118.6,1796.2,119.2,1795.9,119.7,1795.3z"/>
		<path class="st4" d="M122.5,1793.8c0-2.1,1.4-3.4,2.9-3.4c1.7,0,2.6,1.2,2.6,3.1c0,0.2,0,0.5,0,0.6h-4.4c0.1,1.4,0.9,2.3,2.2,2.3
			c0.6,0,1.2-0.2,1.6-0.5l0.4,0.7c-0.6,0.4-1.3,0.7-2.2,0.7C123.9,1797.2,122.5,1795.9,122.5,1793.8z M127.1,1793.2
			c0-1.3-0.6-2-1.6-2c-0.9,0-1.7,0.7-1.9,2H127.1z"/>
		<path class="st4" d="M129.7,1790.5h0.9l0.1,1.2h0c0.5-0.8,1.1-1.4,1.8-1.4c0.3,0,0.5,0,0.7,0.1l-0.2,1c-0.2-0.1-0.4-0.1-0.6-0.1
			c-0.5,0-1.2,0.4-1.6,1.5v4.2h-1.1V1790.5z"/>
	</g>
	<g class="st0">
		<path class="st4" d="M31.2,1805.2h5.1v0.9h-4v2.8h3.3v0.9h-3.3v3.2h4.1v0.9h-5.2V1805.2z"/>
		<path class="st4" d="M42.2,1814.4l0-1.2c-0.5,0.5-1.2,0.9-2,0.9c-1.6,0-2.7-1.2-2.7-3.4c0-2.1,1.3-3.4,2.8-3.4
			c0.8,0,1.3,0.3,1.9,0.8h0l0.1-0.6h0.9v9.3h-1.1V1814.4z M42.2,1812.3v-3.4c-0.6-0.5-1.1-0.7-1.6-0.7c-1.1,0-1.9,1-1.9,2.5
			c0,1.6,0.6,2.5,1.8,2.5C41.1,1813.2,41.6,1812.9,42.2,1812.3z"/>
		<path class="st4" d="M45.4,1811.6v-4.1h1.1v4c0,1.2,0.4,1.7,1.2,1.7c0.7,0,1.1-0.3,1.8-1.1v-4.6h1.1v6.5h-0.9l-0.1-1h0
			c-0.6,0.7-1.3,1.2-2.2,1.2C46,1814.2,45.4,1813.3,45.4,1811.6z"/>
		<path class="st4" d="M52.3,1812.3c0-1.4,1.2-2.1,4-2.4c0-0.8-0.3-1.6-1.3-1.6c-0.8,0-1.4,0.3-2,0.7l-0.4-0.8
			c0.6-0.4,1.5-0.9,2.6-0.9c1.6,0,2.3,1.1,2.3,2.7v4h-0.9l-0.1-0.8h0c-0.6,0.5-1.4,0.9-2.2,0.9C53.2,1814.2,52.3,1813.5,52.3,1812.3
			z M56.3,1812.4v-1.8c-2.2,0.3-2.9,0.8-2.9,1.6c0,0.7,0.5,1,1.2,1C55.2,1813.3,55.7,1813,56.3,1812.4z"/>
		<path class="st4" d="M59.5,1812.7v-8.3h1.1v8.3c0,0.3,0.1,0.5,0.3,0.5c0.1,0,0.1,0,0.2,0l0.2,0.8c-0.2,0.1-0.3,0.1-0.6,0.1
			C59.9,1814.2,59.5,1813.6,59.5,1812.7z"/>
		<path class="st4" d="M62.8,1805.4c0-0.4,0.3-0.7,0.7-0.7c0.4,0,0.7,0.3,0.7,0.7c0,0.4-0.3,0.7-0.7,0.7
			C63.1,1806.1,62.8,1805.9,62.8,1805.4z M62.9,1807.5H64v6.5h-1.1V1807.5z"/>
		<path class="st4" d="M66.4,1812v-3.6h-1v-0.8l1-0.1l0.1-1.8h0.9v1.8h1.8v0.9h-1.8v3.6c0,0.8,0.3,1.3,1,1.3c0.2,0,0.5-0.1,0.7-0.2
			l0.2,0.8c-0.4,0.1-0.8,0.2-1.2,0.2C66.9,1814.2,66.4,1813.3,66.4,1812z"/>
		<path class="st4" d="M70.1,1816.7l0.2-0.9c0.1,0,0.3,0.1,0.5,0.1c0.7,0,1.2-0.6,1.5-1.4l0.1-0.5l-2.6-6.5H71l1.3,3.6
			c0.2,0.6,0.4,1.2,0.6,1.8H73c0.2-0.6,0.4-1.2,0.6-1.8l1.2-3.6h1.1l-2.5,7.1c-0.4,1.3-1.1,2.3-2.4,2.3
			C70.6,1816.8,70.3,1816.8,70.1,1816.7z"/>
	</g>
	<g class="st0">
		<path class="st4" d="M89,1812.6v0.8h-9.7v-0.8h2.4v-3.6h1v3.6h1.7v-3.6h1v3.6H89z M86.8,1806h-6.6v-0.8h7.6v1.2
			c0,1.4,0,2.8-0.4,4.8l-1-0.1c0.4-1.9,0.4-3.3,0.4-4.7V1806z"/>
		<path class="st4" d="M97.4,1810.1v1.4h1.4v3.4h-1v-2.6h-6.5v-0.8h1.5v-1.4h-2.6v-0.8h9.7v0.8H97.4z M91.4,1806.4
			c0-1.3,1.5-2.1,3.8-2.1c2.3,0,3.8,0.8,3.8,2.1c0,1.3-1.5,2.1-3.8,2.1C92.8,1808.5,91.4,1807.7,91.4,1806.4z M92.4,1806.4
			c0,0.8,1.1,1.3,2.8,1.3s2.8-0.5,2.8-1.3s-1.1-1.3-2.8-1.3S92.4,1805.6,92.4,1806.4z M96.5,1810.1h-2.6v1.4h2.6V1810.1z"/>
	</g>
	<g class="st0">
		<path class="st4" d="M31.2,1843.4h2.6c1.8,0,3,0.6,3,2.2c0,0.9-0.5,1.6-1.3,1.9v0.1c1,0.2,1.8,0.9,1.8,2.1c0,1.7-1.4,2.6-3.3,2.6
			h-2.8V1843.4z M33.6,1847.2c1.5,0,2.1-0.6,2.1-1.5c0-1-0.7-1.4-2.1-1.4h-1.4v2.9H33.6z M33.9,1851.3c1.5,0,2.4-0.5,2.4-1.7
			c0-1.1-0.9-1.6-2.4-1.6h-1.5v3.3H33.9z"/>
		<path class="st4" d="M38.9,1849.8v-4.1H40v4c0,1.2,0.4,1.7,1.2,1.7c0.7,0,1.1-0.3,1.8-1.1v-4.6h1.1v6.5h-0.9l-0.1-1h0
			c-0.6,0.7-1.3,1.2-2.2,1.2C39.5,1852.4,38.9,1851.5,38.9,1849.8z"/>
		<path class="st4" d="M45.5,1851.5l0.5-0.7c0.6,0.5,1.2,0.8,1.9,0.8c0.9,0,1.3-0.5,1.3-1c0-0.7-0.8-1-1.5-1.2
			c-0.9-0.3-1.9-0.8-1.9-1.9c0-1,0.8-1.8,2.3-1.8c0.8,0,1.5,0.3,2,0.7l-0.5,0.7c-0.4-0.3-0.9-0.6-1.5-0.6c-0.8,0-1.2,0.4-1.2,0.9
			c0,0.6,0.7,0.9,1.4,1.1c0.9,0.4,2,0.7,2,2c0,1.1-0.8,1.9-2.4,1.9C47.1,1852.4,46.2,1852,45.5,1851.5z"/>
		<path class="st4" d="M51.7,1843.6c0-0.4,0.3-0.7,0.7-0.7c0.4,0,0.7,0.3,0.7,0.7c0,0.4-0.3,0.7-0.7,0.7
			C52,1844.3,51.7,1844.1,51.7,1843.6z M51.9,1845.7H53v6.5h-1.1V1845.7z"/>
		<path class="st4" d="M55.2,1845.7h0.9l0.1,0.9h0c0.6-0.6,1.3-1.1,2.2-1.1c1.4,0,2,0.9,2,2.6v4.1h-1.1v-4c0-1.2-0.4-1.7-1.2-1.7
			c-0.7,0-1.1,0.3-1.8,1v4.7h-1.1V1845.7z"/>
		<path class="st4" d="M62,1849c0-2.1,1.4-3.4,2.9-3.4c1.7,0,2.6,1.2,2.6,3.1c0,0.2,0,0.5,0,0.6h-4.4c0.1,1.4,0.9,2.3,2.2,2.3
			c0.6,0,1.2-0.2,1.6-0.5l0.4,0.7c-0.6,0.4-1.3,0.7-2.2,0.7C63.4,1852.4,62,1851.1,62,1849z M66.6,1848.4c0-1.3-0.6-2-1.6-2
			c-0.9,0-1.7,0.7-1.9,2H66.6z"/>
		<path class="st4" d="M68.4,1851.5l0.5-0.7c0.6,0.5,1.2,0.8,1.9,0.8c0.9,0,1.3-0.5,1.3-1c0-0.7-0.8-1-1.5-1.2
			c-0.9-0.3-1.9-0.8-1.9-1.9c0-1,0.8-1.8,2.3-1.8c0.8,0,1.5,0.3,2,0.7l-0.5,0.7c-0.4-0.3-0.9-0.6-1.5-0.6c-0.8,0-1.2,0.4-1.2,0.9
			c0,0.6,0.7,0.9,1.4,1.1c0.9,0.4,2,0.7,2,2c0,1.1-0.8,1.9-2.4,1.9C69.9,1852.4,69.1,1852,68.4,1851.5z"/>
		<path class="st4" d="M74.1,1851.5l0.5-0.7c0.6,0.5,1.2,0.8,1.9,0.8c0.9,0,1.3-0.5,1.3-1c0-0.7-0.8-1-1.5-1.2
			c-0.9-0.3-1.9-0.8-1.9-1.9c0-1,0.8-1.8,2.3-1.8c0.8,0,1.5,0.3,2,0.7l-0.5,0.7c-0.4-0.3-0.9-0.6-1.5-0.6c-0.8,0-1.2,0.4-1.2,0.9
			c0,0.6,0.7,0.9,1.4,1.1c0.9,0.4,2,0.7,2,2c0,1.1-0.8,1.9-2.4,1.9C75.6,1852.4,74.7,1852,74.1,1851.5z"/>
		<path class="st4" d="M83.2,1843.4h5.1v0.9h-4v2.8h3.3v0.9h-3.3v3.2h4.1v0.9h-5.2V1843.4z"/>
		<path class="st4" d="M90,1850.2v-3.6h-1v-0.8l1-0.1l0.1-1.8h0.9v1.8h1.8v0.9h-1.8v3.6c0,0.8,0.3,1.3,1,1.3c0.2,0,0.5-0.1,0.7-0.2
			l0.2,0.8c-0.4,0.1-0.8,0.2-1.2,0.2C90.5,1852.4,90,1851.5,90,1850.2z"/>
		<path class="st4" d="M94.3,1842.7h1.1v2.6l0,1.3c0.6-0.6,1.3-1.1,2.2-1.1c1.4,0,2,0.9,2,2.6v4.1h-1.1v-4c0-1.2-0.4-1.7-1.2-1.7
			c-0.7,0-1.1,0.3-1.8,1v4.7h-1.1V1842.7z"/>
		<path class="st4" d="M101.4,1843.6c0-0.4,0.3-0.7,0.7-0.7c0.4,0,0.7,0.3,0.7,0.7c0,0.4-0.3,0.7-0.7,0.7
			C101.7,1844.3,101.4,1844.1,101.4,1843.6z M101.6,1845.7h1.1v6.5h-1.1V1845.7z"/>
		<path class="st4" d="M104.4,1849c0-2.2,1.5-3.4,3.1-3.4c0.9,0,1.4,0.4,1.9,0.8l-0.6,0.7c-0.4-0.3-0.8-0.6-1.3-0.6
			c-1.2,0-2.1,1-2.1,2.5s0.8,2.5,2,2.5c0.6,0,1.1-0.3,1.5-0.6l0.5,0.7c-0.6,0.5-1.3,0.8-2.1,0.8
			C105.8,1852.4,104.4,1851.1,104.4,1849z"/>
		<path class="st4" d="M110.3,1851.5l0.5-0.7c0.6,0.5,1.2,0.8,1.9,0.8c0.9,0,1.3-0.5,1.3-1c0-0.7-0.8-1-1.5-1.2
			c-0.9-0.3-1.9-0.8-1.9-1.9c0-1,0.8-1.8,2.3-1.8c0.8,0,1.5,0.3,2,0.7l-0.5,0.7c-0.4-0.3-0.9-0.6-1.5-0.6c-0.8,0-1.2,0.4-1.2,0.9
			c0,0.6,0.7,0.9,1.4,1.1c0.9,0.4,2,0.7,2,2c0,1.1-0.8,1.9-2.4,1.9C111.8,1852.4,110.9,1852,110.3,1851.5z"/>
	</g>
	<g class="st0">
		<path class="st4" d="M128.6,1850.8v0.8h-9.7v-0.8h2.4v-3.6h1v3.6h1.7v-3.6h1v3.6H128.6z M126.5,1844.2h-6.6v-0.8h7.6v1.2
			c0,1.4,0,2.8-0.4,4.8l-1-0.1c0.4-1.9,0.4-3.3,0.4-4.7V1844.2z"/>
		<path class="st4" d="M137.1,1848.3v1.4h1.4v3.4h-1v-2.6H131v-0.8h1.5v-1.4h-2.6v-0.8h9.7v0.8H137.1z M131,1844.6
			c0-1.3,1.5-2.1,3.8-2.1c2.3,0,3.8,0.8,3.8,2.1c0,1.3-1.5,2.1-3.8,2.1C132.5,1846.7,131,1845.9,131,1844.6z M132,1844.6
			c0,0.8,1.1,1.3,2.8,1.3s2.8-0.5,2.8-1.3s-1.1-1.3-2.8-1.3S132,1843.8,132,1844.6z M136.1,1848.3h-2.6v1.4h2.6V1848.3z"/>
	</g>
	<g class="st0">
		<path class="st5" d="M21.1,1884l0.6-1l-1.1-0.5l0.2-0.5l1.1,0.3l0.1-1.2h0.5l0.1,1.2l1.1-0.3l0.2,0.5l-1.1,0.5l0.6,1l-0.4,0.3
			l-0.8-1l-0.8,1L21.1,1884z"/>
		<path class="st5" d="M35.5,1887.9v0.7h-8.1v-0.7h3.2v-2.3h0.8v2.3H35.5z M33.7,1883.8c0-0.5,0-0.9,0-1.3v-0.2h-5.4v-0.7h6.2v0.8
			c0,1.1,0,2.3-0.4,4.2l-0.8-0.1c0.2-0.8,0.3-1.5,0.3-2.1l-5.4,0.3l-0.1-0.7L33.7,1883.8z"/>
		<path class="st5" d="M44.8,1888v0.7h-8.1v-0.7h3.6v-1.7h-2.6v-2.8H43v-1.4h-5.3v-0.7h6.1v2.7h-5.3v1.4H44v0.7h-2.9v1.7H44.8z"/>
		<path class="st5" d="M47,1886.8c1.3,0,2.6-0.1,4.1-0.4l0.1,0.7c-1.5,0.3-2.9,0.4-4.3,0.4h-0.7v-5.8H47V1886.8z M54.2,1885h-1.4
			v4.7h-0.8v-9h0.8v3.6h1.4V1885z"/>
		<path class="st5" d="M55.4,1888.2H57v-5.3h-1.3v-0.6c0.6-0.1,1.1-0.3,1.5-0.5h0.7v6.4h1.5v0.8h-4V1888.2z"/>
		<path class="st5" d="M60.6,1888.4l0.5-0.6c0.3,0.3,0.7,0.6,1.2,0.6c1,0,1.8-0.8,1.9-3.1c-0.5,0.6-1.1,0.9-1.7,0.9
			c-1.2,0-2-0.7-2-2.2c0-1.4,1-2.3,2.1-2.3c1.4,0,2.5,1.1,2.5,3.4c0,2.9-1.3,4-2.7,4C61.6,1889.1,61,1888.8,60.6,1888.4z
			 M62.7,1885.6c0.5,0,1-0.3,1.5-1c-0.1-1.4-0.7-2.1-1.6-2.1c-0.7,0-1.2,0.6-1.2,1.6C61.4,1885,61.8,1885.6,62.7,1885.6z"/>
		<path class="st5" d="M74,1886.2c-1.9,0.3-4,0.3-5.6,0.3l-0.1-0.7c0.7,0,1.5,0,2.4,0v-0.6c-1-0.1-1.7-0.6-1.7-1.3
			c0-0.8,0.8-1.3,2.1-1.3c1.2,0,2.1,0.5,2.1,1.3c0,0.7-0.6,1.2-1.7,1.3v0.6c0.8,0,1.6-0.1,2.4-0.2L74,1886.2z M73.7,1882.2h-5.1
			v-0.6h2.2v-0.9h0.8v0.9h2.2V1882.2z M69.4,1887.2h5.9v2.5h-0.8v-1.8h-5.1V1887.2z M71.1,1884.6c0.8,0,1.3-0.3,1.3-0.8
			s-0.5-0.8-1.3-0.8c-0.8,0-1.3,0.3-1.3,0.8S70.3,1884.6,71.1,1884.6z M76.6,1884.2h-1.3v2.6h-0.8v-6h0.8v2.7h1.3V1884.2z"/>
		<path class="st5" d="M82.4,1885.9c-1-0.4-1.8-1.1-2.2-2.1c-0.4,1.1-1.2,1.9-2.2,2.3l-0.4-0.6c1.4-0.5,2.2-1.7,2.2-3.1v-1.1h0.8
			v1.1c0,1.2,0.9,2.4,2.2,2.8L82.4,1885.9z M79.8,1888.9h5.1v0.7H79v-2.8h0.8V1888.9z M85.9,1883.5v0.7h-1.3v3.2h-0.8v-6.6h0.8v2.8
			H85.9z"/>
		<path class="st5" d="M94.9,1887.9v0.7h-8.1v-0.7H94.9z M94.1,1883.8c0,1.5-1.4,2.5-3.3,2.5c-1.9,0-3.3-1-3.3-2.5
			c0-1.5,1.4-2.5,3.3-2.5C92.7,1881.3,94.1,1882.3,94.1,1883.8z M88.3,1883.8c0,1.1,1.1,1.8,2.5,1.8c1.4,0,2.5-0.7,2.5-1.8
			c0-1.1-1.1-1.8-2.5-1.8C89.4,1882,88.3,1882.7,88.3,1883.8z"/>
		<path class="st5" d="M104.1,1888v0.7H96v-0.7h3.6v-1.7H97v-2.8h5.3v-1.4H97v-0.7h6.1v2.7h-5.3v1.4h5.5v0.7h-2.9v1.7H104.1z"/>
		<path class="st5" d="M110,1885.8c-1.3,0-2.3-0.9-2.3-2.2c0-1.3,1-2.2,2.3-2.2c1.3,0,2.3,0.9,2.3,2.2
			C112.3,1884.9,111.3,1885.8,110,1885.8z M110,1885.1c0.9,0,1.5-0.6,1.5-1.5c0-0.9-0.7-1.5-1.5-1.5c-0.9,0-1.5,0.6-1.5,1.5
			C108.4,1884.5,109.1,1885.1,110,1885.1z M115,1888.9v0.7h-6v-2.9h0.8v2.2H115z M114.8,1887.3H114v-6.5h0.8V1887.3z"/>
		<path class="st5" d="M119.2,1882.3h1.8v0.7h-4.4v-0.7h1.8v-1.3h0.8V1882.3z M120.8,1885.6c0,1.2-0.8,2-1.9,2s-1.9-0.8-1.9-2
			c0-1.2,0.8-2,1.9-2S120.8,1884.4,120.8,1885.6z M120,1885.6c0-0.8-0.5-1.3-1.2-1.3c-0.7,0-1.2,0.6-1.2,1.3c0,0.8,0.5,1.4,1.2,1.4
			C119.5,1887,120,1886.4,120,1885.6z M124.2,1880.8v9h-0.8v-4.5h-1.1v4.1h-0.8v-8.3h0.8v3.6h1.1v-3.8H124.2z"/>
		<path class="st5" d="M129.4,1881.5v2.4h2.6v-2.4h0.8v6h-4.2v-6H129.4z M129.4,1886.9h2.6v-2.4h-2.6V1886.9z M135.4,1880.8v9h-0.8
			v-9H135.4z"/>
		<path class="st5" d="M138.4,1886.9c1.2,0,2-0.1,3-0.3l0.1,0.7c-1.1,0.2-2,0.3-3.3,0.3h-0.6v-5.7h3.3v0.7h-2.5V1886.9z
			 M144.9,1880.8v9h-0.8v-4.7h-1.3v4.2H142v-8.3h0.8v3.4h1.3v-3.6H144.9z"/>
		<path class="st5" d="M151,1885.7h-4.1v-4.2h4.1v0.8h2.1v-1.6h0.8v6.5H153v-2.4H151V1885.7z M150.2,1882.2h-2.5v2.9h2.5V1882.2z
			 M154.1,1888.9v0.7h-6v-2.8h0.8v2.1H154.1z M151,1883v1.2h2.1v-1.2H151z"/>
		<path class="st5" d="M166,1885.5v0.7h-8.1v-0.7h3.6v-0.9c-1.7-0.1-2.7-0.7-2.7-1.8c0-1.1,1.2-1.8,3.2-1.8c1.9,0,3.1,0.7,3.1,1.8
			c0,1-1.1,1.7-2.7,1.8v0.9H166z M159.8,1888.9h5.3v0.7h-6.2v-2.6h0.8V1888.9z M162,1884c1.4,0,2.3-0.4,2.3-1.1
			c0-0.7-0.9-1.1-2.3-1.1c-1.4,0-2.3,0.4-2.3,1.1C159.6,1883.5,160.5,1884,162,1884z"/>
		<path class="st5" d="M168.3,1886.9c1.6,0,2.8-0.1,4.1-0.3l0.1,0.7c-1.4,0.2-2.6,0.3-4.3,0.3h-0.7v-3.4h3.2v-1.9h-3.2v-0.7h4.1v3.2
			h-3.2V1886.9z M175.5,1885H174v4.7h-0.8v-9h0.8v3.6h1.5V1885z"/>
		<path class="st5" d="M178.8,1885.8c-1.3,0-2.3-0.9-2.3-2.2c0-1.3,1-2.2,2.3-2.2c1.3,0,2.3,0.9,2.3,2.2
			C181.2,1884.9,180.2,1885.8,178.8,1885.8z M178.8,1885.1c0.9,0,1.5-0.6,1.5-1.5c0-0.9-0.7-1.5-1.5-1.5c-0.9,0-1.5,0.6-1.5,1.5
			C177.3,1884.5,178,1885.1,178.8,1885.1z M183.9,1888.9v0.7h-6v-2.9h0.8v2.2H183.9z M183.7,1887.3h-0.8v-6.5h0.8V1887.3z"/>
		<path class="st5" d="M192.3,1881.4c0,2.3-1.6,3.9-4.2,4.7l-0.3-0.7c2.1-0.6,3.5-1.8,3.6-3.4h-3.2v-0.7H192.3z M194.8,1888
			c0,1.1-1.1,1.7-2.9,1.7s-2.9-0.7-2.9-1.7c0-1.1,1.1-1.7,2.9-1.7S194.8,1886.9,194.8,1888z M194,1888c0-0.7-0.8-1.1-2.1-1.1
			s-2.1,0.4-2.1,1.1c0,0.7,0.8,1.1,2.1,1.1S194,1888.7,194,1888z M196,1883.1v0.7h-1.3v2.4h-0.8v-5.4h0.8v2.3H196z"/>
		<path class="st5" d="M197,1887.1c1.6,0,3.9,0,5.8-0.3l0.1,0.6c-2,0.4-4.2,0.4-5.8,0.4L197,1887.1z M202.2,1883.5
			c0,1.2-1,2.1-2.4,2.1c-1.4,0-2.4-0.9-2.4-2.1c0-1.3,1-2.1,2.4-2.1C201.2,1881.4,202.2,1882.3,202.2,1883.5z M198.2,1883.5
			c0,0.8,0.7,1.4,1.6,1.4c0.9,0,1.6-0.6,1.6-1.4c0-0.8-0.7-1.4-1.6-1.4C198.9,1882.1,198.2,1882.7,198.2,1883.5z M204.2,1880.8v9
			h-0.8v-9H204.2z"/>
		<path class="st5" d="M211.6,1883.2c0,1.6,1.1,3.3,2.4,3.9l-0.5,0.7c-1-0.5-1.9-1.6-2.3-2.8c-0.4,1.3-1.3,2.5-2.3,3l-0.5-0.7
			c1.3-0.6,2.4-2.3,2.4-4v-1.6h0.8V1883.2z M215.7,1880.8v9h-0.8v-9H215.7z"/>
		<path class="st5" d="M222.1,1882.5h-4.6v-0.6h1.9v-1h0.8v1h1.9L222.1,1882.5z M219.8,1886c-1.1,0-1.9-0.6-1.9-1.5
			c0-0.9,0.8-1.5,1.9-1.5c1.1,0,1.9,0.6,1.9,1.5C221.7,1885.4,220.9,1886,219.8,1886z M219.8,1885.4c0.7,0,1.2-0.4,1.2-0.9
			c0-0.5-0.5-0.9-1.2-0.9c-0.7,0-1.2,0.4-1.2,0.9C218.6,1885.1,219.1,1885.4,219.8,1885.4z M225.2,1888.2c0,1-1.1,1.6-3,1.6
			s-3-0.6-3-1.6c0-1,1.1-1.6,3-1.6S225.2,1887.2,225.2,1888.2z M224.4,1888.2c0-0.6-0.8-0.9-2.2-0.9c-1.4,0-2.2,0.3-2.2,0.9
			c0,0.6,0.8,0.9,2.2,0.9C223.6,1889.1,224.4,1888.8,224.4,1888.2z M223.2,1886.1h-0.8v-5.2h0.8v2.3h1.1v-2.4h0.8v5.7h-0.8v-2.6
			h-1.1V1886.1z"/>
		<path class="st5" d="M237.1,1886.9h-3.6v2.9h-0.8v-2.9H229v-0.7h8.1V1886.9z M229.5,1884.9c1.6-0.2,3.1-1.2,3.1-2.3h-2.8v-0.7h2.9
			v-1.1h0.8v1.1h2.9v0.7h-2.9c0,1.1,1.5,2.1,3.1,2.3l-0.3,0.7c-1.4-0.2-2.7-0.9-3.2-1.9c-0.6,1-1.9,1.7-3.2,1.9L229.5,1884.9z"/>
		<path class="st5" d="M242.8,1881.7c0,2.5-1.2,4.9-4.1,6.3l-0.4-0.6c2.3-1.1,3.5-2.9,3.7-5h-3.3v-0.7H242.8z M246.6,1885.1h-1.4
			v4.6h-0.8v-9h0.8v3.6h1.4V1885.1z"/>
	</g>
</g>
</svg>
