<?xml version="1.0" encoding="utf-8"?>
<!-- Generator: Adobe Illustrator 25.1.0, SVG Export Plug-In . SVG Version: 6.00 Build 0)  -->
<svg version="1.1" id="레이어_1" xmlns="http://www.w3.org/2000/svg" xmlns:xlink="http://www.w3.org/1999/xlink" x="0px"
	 y="0px" viewBox="0 0 920 238" style="enable-background:new 0 0 920 238;" xml:space="preserve">
<style type="text/css">
	.st0{fill:none;stroke:#D6D6D6;}
	.st1{fill:none;stroke:#707070;}
	.st2{enable-background:new    ;}
	.st3{fill:#2AA6D3;}
	.st4{fill:#555555;}
	.st5{fill:#929397;}
</style>
<g id="그룹_5619" transform="translate(-740 -2156)">
	<line id="선_398" class="st0" x1="1368" y1="2164" x2="1368" y2="2360"/>
	<line id="선_399" class="st0" x1="1514" y1="2164" x2="1514" y2="2360"/>
	<line id="선_400" class="st0" x1="1222" y1="2164" x2="1222" y2="2360"/>
	<path id="패스_1677" class="st0" d="M985.3,2294H1660"/>
	<path id="패스_2801" class="st1" d="M985.3,2359.5H1660"/>
	<g class="st2">
		<path class="st3" d="M753.4,2170.3c0,3.1-2.6,5.3-6,5.3s-6-2.2-6-5.3c0-3.1,2.6-5.3,6-5.3S753.4,2167.2,753.4,2170.3z
			 M744.4,2170.3c0,1.7,1.2,2.7,2.9,2.7c1.7,0,2.9-1,2.9-2.7c0-1.7-1.2-2.7-2.9-2.7C745.7,2167.6,744.4,2168.6,744.4,2170.3z
			 M759.4,2177.5v8.3h-14.7v-8.3H759.4z M747.8,2179.9v3.4h8.5v-3.4H747.8z M759.4,2164v12.5h-3.2V2164H759.4z"/>
		<path class="st3" d="M775.3,2176.5c-2.4-0.8-4.1-2.4-5.1-4.3c-1,2.2-2.8,3.9-5.3,4.7l-1.6-2.5c3.6-1.2,5.2-4,5.3-6.7H764v-2.5h12
			v2.5h-4.4c0,2.6,1.7,5.2,5.2,6.3L775.3,2176.5z M766.4,2178.3h15v7.8h-3.2v-5.3h-11.9V2178.3z M781.5,2164v13.3h-3.2V2164H781.5z"
			/>
		<path class="st3" d="M804.3,2183.2v2.5h-16.4v-6.6h3.1v-3c-1.9,0.1-3.8,0.1-5.4,0.1l-0.4-2.5c4,0,9.4-0.1,14.1-0.7l0.2,2.3
			c-1.7,0.3-3.5,0.5-5.3,0.6v4.2h-3v3H804.3z M786.7,2168.7c0-2.4,2.3-4,5.5-4c3.2,0,5.5,1.6,5.5,4c0,2.4-2.3,3.9-5.5,3.9
			C789,2172.6,786.7,2171,786.7,2168.7z M789.7,2168.7c0,1.1,1,1.6,2.5,1.6c1.5,0,2.5-0.6,2.5-1.6s-1-1.7-2.5-1.7
			C790.7,2167,789.7,2167.6,789.7,2168.7z M800.6,2176.8V2164h3.2v16.8h-3.2v-1.8h-4.2v-2.2H800.6z"/>
		<path class="st3" d="M832.7,2174.6v2.5h-4.7v4h-3.2v-4h-2.2v3.9h-3.1v-3.9h-6.8v-2.5H832.7z M814.8,2169c0-2.8,3.2-4.6,7.9-4.6
			c4.8,0,7.9,1.8,7.9,4.6c0,2.8-3.2,4.6-7.9,4.6C818,2173.5,814.8,2171.7,814.8,2169z M818.1,2183.2h12.6v2.5H815v-6.5h3.1V2183.2z
			 M818.2,2169c0,1.3,1.8,2,4.5,2c2.8,0,4.5-0.7,4.5-2c0-1.4-1.8-2.1-4.5-2.1C819.9,2166.9,818.2,2167.6,818.2,2169z"/>
		<path class="st3" d="M839.2,2178.4c3.4,0,6.1-0.2,9.3-0.7l0.3,2.6c-3.6,0.6-6.8,0.8-10.8,0.8h-2v-9.1h7.2v-3.5H836v-2.5h10.4v8.5
			h-7.2V2178.4z M853.2,2163.9v22.2H850v-22.2H853.2z"/>
		<path class="st3" d="M876.9,2180.9v2.5h-20v-2.5h4.2v-7h3.1v7h2.4v-7h3.1v7H876.9z M871.2,2177.9c0.7-4,0.7-7,0.7-9.5h-13.1v-2.5
			h16.2v2.1c0,2.7,0,5.8-0.7,10.2L871.2,2177.9z"/>
		<path class="st3" d="M894.2,2176.8v2h2.4v7.3h-3.2v-4.8h-12.2v-2.5h2.5v-2H879v-2.5h20v2.5H894.2z M881,2168.7
			c0-2.7,3.1-4.3,8-4.3c4.9,0,8,1.7,8,4.3c0,2.7-3.1,4.4-8,4.4C884.1,2173.1,881,2171.4,881,2168.7z M884.2,2168.7
			c0,1.3,1.7,1.9,4.7,1.9c3,0,4.8-0.6,4.8-1.9c0-1.2-1.7-1.9-4.8-1.9C885.9,2166.8,884.2,2167.5,884.2,2168.7z M891,2176.8h-4.2v2
			h4.2V2176.8z"/>
	</g>
	<g class="st2">
		<path class="st3" d="M753.1,2209.9c-2.5-0.7-4.2-2.3-5.2-4.2c-1,2.1-2.8,3.8-5.4,4.6l-1.5-2.5c3.7-1.1,5.3-3.9,5.3-6.6v-1.7h3.2
			v1.7c0,2.6,1.6,5.2,5.2,6.2L753.1,2209.9z M759.9,2218.4v2.4h-15.3v-6.1h11.6v-1.3h-11.6v-2.4h14.7v6h-11.6v1.4H759.9z
			 M759.4,2210.1h-3.2V2199h3.2V2210.1z"/>
		<path class="st3" d="M771.7,2203.9c0,4.1,1.8,8.1,5.5,9.7l-1.8,2.6c-2.5-1.2-4.2-3.3-5.2-6c-1,3-2.8,5.3-5.4,6.6l-1.9-2.6
			c3.9-1.7,5.7-5.9,5.7-10.2v-3.2h3.2V2203.9z M781.4,2198.9v22.2h-3.2v-22.2H781.4z"/>
		<path class="st3" d="M802.8,2203.8h-12.1v-2.5h4.6v-2.4h3.2v2.4h4.3V2203.8z M796.9,2213.2c-3,0-5.2-1.8-5.2-4.4
			c0-2.5,2.2-4.3,5.2-4.3c3,0,5.2,1.8,5.2,4.3C802.1,2211.4,799.9,2213.2,796.9,2213.2z M809.6,2218.2v2.5h-15.1v-6.2h3.2v3.7H809.6
			z M796.9,2210.8c1.3,0,2.2-0.7,2.2-1.9c0-1.2-0.9-1.9-2.2-1.9c-1.3,0-2.2,0.7-2.2,1.9C794.7,2210.1,795.6,2210.8,796.9,2210.8z
			 M806,2211.7h-2.9v-2.5h2.9v-2.2h-2.9v-2.5h2.9v-5.5h3.2v16.8H806V2211.7z"/>
		<path class="st3" d="M826.3,2212.4c-4.6,0.8-9.7,0.9-13.5,0.9l-0.3-2.4c1.6,0,3.4,0,5.3,0v-1.2c-2.4-0.4-3.8-1.4-3.8-3.1
			c0-2,2.1-3.2,5.4-3.2c3.3,0,5.4,1.2,5.4,3.2c0,1.6-1.4,2.7-3.8,3v1.2c1.8-0.1,3.6-0.2,5.2-0.4L826.3,2212.4z M825.6,2202.8H813
			v-2.3h4.7v-1.8h3.2v1.8h4.7V2202.8z M830.4,2217.6c0,2.3-2.8,3.5-7.5,3.5s-7.5-1.2-7.5-3.5c0-2.3,2.8-3.5,7.5-3.5
			S830.4,2215.3,830.4,2217.6z M819.3,2207.6c1.5,0,2.4-0.4,2.4-1.1s-0.9-1.1-2.4-1.1c-1.5,0-2.4,0.4-2.4,1.1
			S817.8,2207.6,819.3,2207.6z M827.2,2217.6c0-0.8-1.3-1.2-4.3-1.2c-3,0-4.3,0.4-4.3,1.2c0,0.8,1.3,1.2,4.3,1.2
			C825.8,2218.8,827.2,2218.4,827.2,2217.6z M833,2205.2v2.6h-2.8v6h-3.2V2199h3.2v6.3H833z"/>
	</g>
	<path id="패스_1677-2" class="st1" d="M985.3,2164H1660"/>
	<path id="패스_1678" class="st0" d="M985.3,2228.5H1660"/>
	<g class="st2">
		<path d="M1277.7,2202.9c3.3-3.2,5.3-5.3,5.3-7.1c0-1.2-0.7-2.1-2-2.1c-0.9,0-1.7,0.6-2.3,1.3l-1-1c1-1.1,2-1.8,3.6-1.8
			c2.2,0,3.6,1.4,3.6,3.5c0,2.1-1.9,4.2-4.4,6.8c0.6-0.1,1.3-0.1,1.9-0.1h3v1.6h-7.6V2202.9z"/>
		<path d="M1286.9,2198.2c0-3.9,1.5-5.9,3.8-5.9c2.4,0,3.8,2.1,3.8,5.9c0,3.9-1.5,6-3.8,6
			C1288.3,2204.2,1286.9,2202.1,1286.9,2198.2z M1292.7,2198.2c0-3.3-0.8-4.5-2-4.5c-1.2,0-2,1.2-2,4.5s0.8,4.5,2,4.5
			C1291.9,2202.8,1292.7,2201.5,1292.7,2198.2z"/>
		<path d="M1296.6,2202.5h2.6v-7.9h-2.1v-1.2c1.1-0.2,1.9-0.5,2.6-0.9h1.4v9.9h2.3v1.5h-6.7V2202.5z"/>
		<path d="M1305.1,2201.1c0-1.5,1-2.4,2.1-3v-0.1c-0.9-0.6-1.6-1.5-1.6-2.7c0-1.8,1.4-3,3.4-3c2,0,3.3,1.3,3.3,3.1
			c0,1.2-0.8,2.2-1.6,2.7v0.1c1,0.6,2,1.4,2,3c0,1.7-1.5,3.1-3.8,3.1C1306.7,2204.2,1305.1,2202.9,1305.1,2201.1z M1311,2201.1
			c0-1.4-1.3-1.8-2.9-2.5c-0.8,0.6-1.4,1.3-1.4,2.3c0,1.2,1,2,2.2,2C1310.2,2202.9,1311,2202.2,1311,2201.1z M1310.8,2195.5
			c0-1.1-0.7-1.9-1.8-1.9c-1,0-1.7,0.6-1.7,1.7c0,1.2,1.1,1.8,2.4,2.3C1310.4,2197,1310.8,2196.3,1310.8,2195.5z"/>
	</g>
	<g class="st2">
		<path d="M1425.7,2202.9c3.3-3.2,5.3-5.3,5.3-7.1c0-1.2-0.7-2.1-2-2.1c-0.9,0-1.7,0.6-2.3,1.3l-1-1c1-1.1,2-1.8,3.6-1.8
			c2.2,0,3.6,1.4,3.6,3.5c0,2.1-1.9,4.2-4.4,6.8c0.6-0.1,1.3-0.1,1.9-0.1h3v1.6h-7.6V2202.9z"/>
		<path d="M1434.9,2198.2c0-3.9,1.5-5.9,3.8-5.9c2.4,0,3.8,2.1,3.8,5.9c0,3.9-1.5,6-3.8,6
			C1436.3,2204.2,1434.9,2202.1,1434.9,2198.2z M1440.7,2198.2c0-3.3-0.8-4.5-2-4.5c-1.2,0-2,1.2-2,4.5s0.8,4.5,2,4.5
			C1439.9,2202.8,1440.7,2201.5,1440.7,2198.2z"/>
		<path d="M1444.6,2202.5h2.6v-7.9h-2.1v-1.2c1.1-0.2,1.9-0.5,2.6-0.9h1.4v9.9h2.3v1.5h-6.7V2202.5z"/>
		<path d="M1453.2,2203l1-1.1c0.4,0.5,1.2,0.9,1.8,0.9c1.5,0,2.8-1.2,2.8-4.5c-0.7,0.9-1.7,1.4-2.6,1.4c-2,0-3.3-1.2-3.3-3.5
			c0-2.3,1.6-3.7,3.5-3.7c2.3,0,4.1,1.8,4.1,5.6c0,4.5-2.1,6.3-4.4,6.3C1454.9,2204.2,1453.9,2203.7,1453.2,2203z M1456.7,2198.3
			c0.7,0,1.6-0.4,2.2-1.4c-0.2-2.1-1.1-3.1-2.3-3.1c-1,0-1.8,0.8-1.8,2.3C1454.8,2197.5,1455.4,2198.3,1456.7,2198.3z"/>
	</g>
	<g class="st2">
		<path d="M1571.7,2202.9c3.3-3.2,5.3-5.3,5.3-7.1c0-1.2-0.7-2.1-2-2.1c-0.9,0-1.7,0.6-2.3,1.3l-1-1c1-1.1,2-1.8,3.6-1.8
			c2.2,0,3.6,1.4,3.6,3.5c0,2.1-1.9,4.2-4.4,6.8c0.6-0.1,1.3-0.1,1.9-0.1h3v1.6h-7.6V2202.9z"/>
		<path d="M1580.9,2198.2c0-3.9,1.5-5.9,3.8-5.9c2.4,0,3.8,2.1,3.8,5.9c0,3.9-1.5,6-3.8,6
			C1582.3,2204.2,1580.9,2202.1,1580.9,2198.2z M1586.7,2198.2c0-3.3-0.8-4.5-2-4.5c-1.2,0-2,1.2-2,4.5s0.8,4.5,2,4.5
			C1585.9,2202.8,1586.7,2201.5,1586.7,2198.2z"/>
		<path d="M1589.9,2202.9c3.3-3.2,5.3-5.3,5.3-7.1c0-1.2-0.7-2.1-2-2.1c-0.9,0-1.7,0.6-2.3,1.3l-1-1c1-1.1,2-1.8,3.6-1.8
			c2.2,0,3.6,1.4,3.6,3.5c0,2.1-1.9,4.2-4.4,6.8c0.6-0.1,1.3-0.1,1.9-0.1h3v1.6h-7.6V2202.9z"/>
		<path d="M1599.1,2198.2c0-3.9,1.5-5.9,3.8-5.9c2.4,0,3.8,2.1,3.8,5.9c0,3.9-1.5,6-3.8,6
			C1600.6,2204.2,1599.1,2202.1,1599.1,2198.2z M1605,2198.2c0-3.3-0.8-4.5-2-4.5c-1.2,0-2,1.2-2,4.5s0.8,4.5,2,4.5
			C1604.1,2202.8,1605,2201.5,1605,2198.2z"/>
		<path d="M1609.2,2196.2l1-1.7l-1.8-0.8l0.3-1l1.9,0.4l0.2-2h1l0.2,2l1.9-0.4l0.3,1l-1.8,0.8l1,1.7l-0.8,0.6l-1.3-1.6l-1.3,1.6
			L1609.2,2196.2z"/>
	</g>
	<g class="st2">
		<path d="M1020.9,2199.2h-5.8v6h-1.7v-6h-5.7v-1.4h9.4c0.4-2,0.4-3.5,0.4-4.9h-8.2v-1.3h9.9v1.3c0,1.4,0,2.9-0.4,4.9h2V2199.2z"/>
		<path d="M1035.6,2198.3v1.3h-5.6v2.6h-1.6v-2.6h-5.9v-1.3H1035.6z M1025.8,2203.6h8.4v1.3h-10.1v-4h1.6V2203.6z M1033.9,2197.1
			h-9.7v-5.8h1.6v1.7h6.4v-1.7h1.6V2197.1z M1032.3,2194.2h-6.4v1.6h6.4V2194.2z"/>
	</g>
	<g class="st2">
		<path class="st4" d="M1268.7,2268.1c3.4-3.4,5.4-5.5,5.4-7.3c0-1.3-0.7-2.2-2.2-2.2c-1,0-1.8,0.6-2.4,1.4l-0.8-0.8
			c1-1,2-1.7,3.5-1.7c2.1,0,3.4,1.3,3.4,3.3c0,2.1-2,4.3-4.7,7.1c0.6,0,1.3-0.1,1.9-0.1h3.3v1.3h-7.4V2268.1z"/>
		<path class="st4" d="M1277.7,2271.2c1-0.4,1.6-1.2,1.6-2.2c-0.1,0-0.1,0-0.2,0c-0.6,0-1.1-0.4-1.1-1c0-0.6,0.5-1,1.1-1
			c0.8,0,1.2,0.7,1.2,1.7c0,1.5-0.9,2.7-2.3,3.3L1277.7,2271.2z"/>
		<path class="st4" d="M1281.8,2267.6l0.7-1c0.7,0.7,1.6,1.3,2.9,1.3c1.4,0,2.4-0.8,2.4-2.1c0-1.4-0.9-2.3-3.6-2.3v-1.1
			c2.4,0,3.2-0.9,3.2-2.1c0-1.1-0.8-1.8-2-1.8c-0.9,0-1.8,0.5-2.4,1.2l-0.8-0.9c0.9-0.8,1.9-1.4,3.3-1.4c2,0,3.4,1,3.4,2.9
			c0,1.4-0.8,2.3-2.1,2.7v0.1c1.4,0.3,2.5,1.3,2.5,2.9c0,2-1.7,3.2-3.8,3.2C1283.7,2269.2,1282.6,2268.4,1281.8,2267.6z"/>
		<path class="st4" d="M1291.6,2267.8h2.6v-8.4h-2.1v-0.9c1-0.2,1.8-0.4,2.4-0.8h1.1v10.2h2.4v1.2h-6.4V2267.8z"/>
		<path class="st4" d="M1300.5,2267.8h2.6v-8.4h-2.1v-0.9c1-0.2,1.8-0.4,2.4-0.8h1.1v10.2h2.4v1.2h-6.4V2267.8z"/>
		<path class="st4" d="M1316,2263.3h-6.5v-6.4h6.5v1.2h3.3v-2.3h1.3v8.5h-1.3v-2.3h-3.3V2263.3z M1314.7,2258h-4v4.3h4V2258z
			 M1320.7,2267.5c0,1.7-1.8,2.7-4.8,2.7c-2.9,0-4.8-1-4.8-2.7c0-1.7,1.8-2.7,4.8-2.7C1318.9,2264.8,1320.7,2265.7,1320.7,2267.5z
			 M1319.4,2267.5c0-1.1-1.3-1.7-3.5-1.7c-2.1,0-3.5,0.6-3.5,1.7c0,1.1,1.3,1.7,3.5,1.7C1318.1,2269.1,1319.4,2268.5,1319.4,2267.5z
			 M1316,2259.2v1.8h3.3v-1.8H1316z"/>
	</g>
	<g class="st2">
		<path class="st4" d="M1284.4,2331.3h-5.1v-1l4.9-7.3h1.6v7.1h1.6v1.2h-1.6v3.2h-1.4V2331.3z M1284.4,2330.2v-3.3
			c0-0.6,0-1.6,0.1-2.2h-0.1c-0.3,0.5-0.6,1-0.9,1.6l-2.7,3.9H1284.4z"/>
		<path class="st4" d="M1294.3,2324.3h-5.7v-1.2h7.3v0.9c-2.7,3.5-3.3,6.1-3.4,10.5h-1.5C1291.2,2330.2,1292.1,2327.5,1294.3,2324.3
			z"/>
		<path class="st4" d="M1304.8,2328.8h-6.5v-6.4h6.5v1.2h3.3v-2.3h1.3v8.5h-1.3v-2.3h-3.3V2328.8z M1303.5,2323.5h-4v4.3h4V2323.5z
			 M1309.5,2333c0,1.7-1.8,2.7-4.8,2.7c-2.9,0-4.8-1-4.8-2.7c0-1.7,1.8-2.7,4.8-2.7C1307.6,2330.3,1309.5,2331.2,1309.5,2333z
			 M1308.2,2333c0-1.1-1.3-1.7-3.5-1.7c-2.1,0-3.5,0.6-3.5,1.7c0,1.1,1.3,1.7,3.5,1.7C1306.9,2334.6,1308.2,2334,1308.2,2333z
			 M1304.8,2324.7v1.8h3.3v-1.8H1304.8z"/>
	</g>
	<g class="st2">
		<path class="st4" d="M1416.7,2268.1c3.4-3.4,5.4-5.5,5.4-7.3c0-1.3-0.7-2.2-2.2-2.2c-1,0-1.8,0.6-2.4,1.4l-0.8-0.8
			c1-1,2-1.7,3.5-1.7c2.1,0,3.4,1.3,3.4,3.3c0,2.1-2,4.3-4.7,7.1c0.6,0,1.3-0.1,1.9-0.1h3.3v1.3h-7.4V2268.1z"/>
		<path class="st4" d="M1425.7,2271.2c1-0.4,1.6-1.2,1.6-2.2c-0.1,0-0.1,0-0.2,0c-0.6,0-1.1-0.4-1.1-1c0-0.6,0.5-1,1.1-1
			c0.8,0,1.2,0.7,1.2,1.7c0,1.5-0.9,2.7-2.3,3.3L1425.7,2271.2z"/>
		<path class="st4" d="M1430.7,2267.8h2.6v-8.4h-2.1v-0.9c1-0.2,1.8-0.4,2.4-0.8h1.1v10.2h2.4v1.2h-6.4V2267.8z"/>
		<path class="st4" d="M1438.9,2266.1c0-1.5,1.1-2.5,2.2-3.1v-0.1c-0.8-0.6-1.6-1.4-1.6-2.6c0-1.7,1.4-2.9,3.2-2.9
			c2,0,3.2,1.2,3.2,3c0,1.2-0.9,2.2-1.6,2.8v0.1c1,0.6,2,1.4,2,2.9c0,1.7-1.5,3-3.7,3C1440.5,2269.2,1438.9,2267.9,1438.9,2266.1z
			 M1445,2266.1c0-1.5-1.4-2-3.1-2.7c-0.9,0.6-1.6,1.4-1.6,2.5c0,1.2,1,2.2,2.4,2.2C1444.1,2268.1,1445,2267.3,1445,2266.1z
			 M1444.7,2260.5c0-1.1-0.7-2-2-2c-1.1,0-1.9,0.7-1.9,1.8c0,1.4,1.3,2,2.6,2.5C1444.3,2262.1,1444.7,2261.3,1444.7,2260.5z"/>
		<path class="st4" d="M1447.6,2267.6l0.7-1c0.7,0.7,1.6,1.3,2.9,1.3c1.4,0,2.4-0.8,2.4-2.1c0-1.4-0.9-2.3-3.6-2.3v-1.1
			c2.4,0,3.2-0.9,3.2-2.1c0-1.1-0.8-1.8-2-1.8c-0.9,0-1.8,0.5-2.4,1.2l-0.8-0.9c0.9-0.8,1.9-1.4,3.3-1.4c2,0,3.4,1,3.4,2.9
			c0,1.4-0.8,2.3-2.1,2.7v0.1c1.4,0.3,2.5,1.3,2.5,2.9c0,2-1.7,3.2-3.8,3.2C1449.5,2269.2,1448.3,2268.4,1447.6,2267.6z"/>
		<path class="st4" d="M1464,2263.3h-6.5v-6.4h6.5v1.2h3.3v-2.3h1.3v8.5h-1.3v-2.3h-3.3V2263.3z M1462.7,2258h-4v4.3h4V2258z
			 M1468.7,2267.5c0,1.7-1.8,2.7-4.8,2.7c-2.9,0-4.8-1-4.8-2.7c0-1.7,1.8-2.7,4.8-2.7C1466.9,2264.8,1468.7,2265.7,1468.7,2267.5z
			 M1467.4,2267.5c0-1.1-1.3-1.7-3.5-1.7c-2.1,0-3.5,0.6-3.5,1.7c0,1.1,1.3,1.7,3.5,1.7C1466.1,2269.1,1467.4,2268.5,1467.4,2267.5z
			 M1464,2259.2v1.8h3.3v-1.8H1464z"/>
	</g>
	<g class="st2">
		<path class="st4" d="M1433.5,2324.3h-5.7v-1.2h7.3v0.9c-2.7,3.5-3.3,6.1-3.4,10.5h-1.5C1430.4,2330.2,1431.2,2327.5,1433.5,2324.3
			z"/>
		<path class="st4" d="M1436.3,2333.2l0.7-1c0.7,0.7,1.5,1.3,2.9,1.3c1.4,0,2.5-1,2.5-2.6s-1-2.5-2.4-2.5c-0.8,0-1.3,0.3-2,0.7
			l-0.8-0.5l0.4-5.5h5.7v1.2h-4.4l-0.3,3.4c0.5-0.3,1-0.5,1.7-0.5c2,0,3.5,1.1,3.5,3.6s-1.9,3.9-3.8,3.9
			C1438.2,2334.7,1437.1,2333.9,1436.3,2333.2z"/>
		<path class="st4" d="M1452.8,2328.8h-6.5v-6.4h6.5v1.2h3.3v-2.3h1.3v8.5h-1.3v-2.3h-3.3V2328.8z M1451.5,2323.5h-4v4.3h4V2323.5z
			 M1457.5,2333c0,1.7-1.8,2.7-4.8,2.7c-2.9,0-4.8-1-4.8-2.7c0-1.7,1.8-2.7,4.8-2.7C1455.6,2330.3,1457.5,2331.2,1457.5,2333z
			 M1456.2,2333c0-1.1-1.3-1.7-3.5-1.7c-2.1,0-3.5,0.6-3.5,1.7c0,1.1,1.3,1.7,3.5,1.7C1454.9,2334.6,1456.2,2334,1456.2,2333z
			 M1452.8,2324.7v1.8h3.3v-1.8H1452.8z"/>
	</g>
	<g class="st2">
		<path class="st4" d="M1563.4,2267.8h2.6v-8.4h-2.1v-0.9c1-0.2,1.8-0.4,2.4-0.8h1.1v10.2h2.4v1.2h-6.4V2267.8z"/>
		<path class="st4" d="M1571.7,2271.2c1-0.4,1.6-1.2,1.6-2.2c-0.1,0-0.1,0-0.2,0c-0.6,0-1.1-0.4-1.1-1c0-0.6,0.5-1,1.1-1
			c0.8,0,1.2,0.7,1.2,1.7c0,1.5-0.9,2.7-2.3,3.3L1571.7,2271.2z"/>
		<path class="st4" d="M1576.2,2263.7c0-4.6,2.1-6.4,4.4-6.4c1.2,0,2.1,0.5,2.7,1.2l-0.8,0.9c-0.5-0.6-1.2-0.9-1.9-0.9
			c-1.6,0-3,1.2-3,4.9c0.7-0.9,1.7-1.4,2.7-1.4c2,0,3.2,1.2,3.2,3.5c0,2.2-1.5,3.7-3.4,3.7
			C1577.9,2269.2,1576.2,2267.4,1576.2,2263.7z M1577.6,2264.6c0.2,2.2,1.1,3.4,2.5,3.4c1.1,0,2-1,2-2.5c0-1.5-0.7-2.4-2.1-2.4
			C1579.3,2263.1,1578.4,2263.5,1577.6,2264.6z"/>
		<path class="st4" d="M1585.1,2268l0.8-0.9c0.4,0.6,1.2,0.9,1.9,0.9c1.6,0,3-1.2,3-4.9c-0.7,0.9-1.7,1.5-2.7,1.5
			c-2,0-3.3-1.2-3.3-3.5c0-2.2,1.5-3.6,3.4-3.6c2.3,0,3.9,1.8,3.9,5.5c0,4.6-2.1,6.3-4.3,6.3
			C1586.7,2269.2,1585.8,2268.7,1585.1,2268z M1588.4,2263.5c0.7,0,1.7-0.5,2.4-1.6c-0.2-2.2-1.1-3.4-2.5-3.4c-1.1,0-2,1-2,2.5
			C1586.3,2262.5,1587,2263.5,1588.4,2263.5z"/>
		<path class="st4" d="M1593.8,2268.1c3.4-3.4,5.4-5.5,5.4-7.3c0-1.3-0.7-2.2-2.2-2.2c-1,0-1.8,0.6-2.4,1.4l-0.8-0.8
			c1-1,2-1.7,3.5-1.7c2.1,0,3.4,1.3,3.4,3.3c0,2.1-2,4.3-4.7,7.1c0.6,0,1.3-0.1,1.9-0.1h3.3v1.3h-7.4V2268.1z"/>
		<path class="st4" d="M1610,2263.3h-6.5v-6.4h6.5v1.2h3.3v-2.3h1.3v8.5h-1.3v-2.3h-3.3V2263.3z M1608.7,2258h-4v4.3h4V2258z
			 M1614.7,2267.5c0,1.7-1.8,2.7-4.8,2.7c-2.9,0-4.8-1-4.8-2.7c0-1.7,1.8-2.7,4.8-2.7C1612.9,2264.8,1614.7,2265.7,1614.7,2267.5z
			 M1613.4,2267.5c0-1.1-1.3-1.7-3.5-1.7c-2.1,0-3.5,0.6-3.5,1.7c0,1.1,1.3,1.7,3.5,1.7C1612.1,2269.1,1613.4,2268.5,1613.4,2267.5z
			 M1610,2259.2v1.8h3.3v-1.8H1610z"/>
	</g>
	<g class="st2">
		<path class="st4" d="M1563.4,2333.3h2.6v-8.4h-2.1v-0.9c1-0.2,1.8-0.4,2.4-0.8h1.1v10.2h2.4v1.2h-6.4V2333.3z"/>
		<path class="st4" d="M1571.7,2336.7c1-0.4,1.6-1.2,1.6-2.2c-0.1,0-0.1,0-0.2,0c-0.6,0-1.1-0.4-1.1-1c0-0.6,0.5-1,1.1-1
			c0.8,0,1.2,0.7,1.2,1.7c0,1.5-0.9,2.7-2.3,3.3L1571.7,2336.7z"/>
		<path class="st4" d="M1576.2,2329.2c0-4.6,2.1-6.4,4.4-6.4c1.2,0,2.1,0.5,2.7,1.2l-0.8,0.9c-0.5-0.6-1.2-0.9-1.9-0.9
			c-1.6,0-3,1.2-3,4.9c0.7-0.9,1.7-1.4,2.7-1.4c2,0,3.2,1.2,3.2,3.5c0,2.2-1.5,3.7-3.4,3.7
			C1577.9,2334.7,1576.2,2332.9,1576.2,2329.2z M1577.6,2330.1c0.2,2.2,1.1,3.4,2.5,3.4c1.1,0,2-1,2-2.5c0-1.5-0.7-2.4-2.1-2.4
			C1579.3,2328.6,1578.4,2329,1577.6,2330.1z"/>
		<path class="st4" d="M1584.7,2333.1l0.7-1c0.7,0.7,1.6,1.3,2.9,1.3c1.4,0,2.4-0.8,2.4-2.1c0-1.4-0.9-2.3-3.7-2.3v-1.1
			c2.4,0,3.2-0.9,3.2-2.1c0-1.1-0.8-1.8-2-1.8c-0.9,0-1.8,0.5-2.4,1.2l-0.8-0.9c0.9-0.8,1.9-1.4,3.3-1.4c2,0,3.4,1,3.4,2.9
			c0,1.4-0.8,2.3-2.1,2.7v0.1c1.4,0.3,2.5,1.3,2.5,2.9c0,2-1.7,3.2-3.8,3.2C1586.6,2334.7,1585.4,2333.9,1584.7,2333.1z"/>
		<path class="st4" d="M1593.8,2331.6c0-1.5,1.1-2.5,2.2-3.1v-0.1c-0.8-0.6-1.6-1.4-1.6-2.6c0-1.7,1.4-2.9,3.2-2.9
			c2,0,3.2,1.2,3.2,3c0,1.2-0.9,2.2-1.6,2.8v0.1c1,0.6,2,1.4,2,2.9c0,1.7-1.5,3-3.7,3C1595.4,2334.7,1593.8,2333.4,1593.8,2331.6z
			 M1599.8,2331.6c0-1.5-1.4-2-3.1-2.7c-0.9,0.6-1.6,1.4-1.6,2.5c0,1.2,1,2.2,2.4,2.2C1598.9,2333.6,1599.8,2332.8,1599.8,2331.6z
			 M1599.6,2326c0-1.1-0.7-2-2-2c-1.1,0-1.9,0.7-1.9,1.8c0,1.4,1.3,2,2.6,2.5C1599.1,2327.6,1599.6,2326.8,1599.6,2326z"/>
		<path class="st4" d="M1610,2328.8h-6.5v-6.4h6.5v1.2h3.3v-2.3h1.3v8.5h-1.3v-2.3h-3.3V2328.8z M1608.7,2323.5h-4v4.3h4V2323.5z
			 M1614.7,2333c0,1.7-1.8,2.7-4.8,2.7c-2.9,0-4.8-1-4.8-2.7c0-1.7,1.8-2.7,4.8-2.7C1612.9,2330.3,1614.7,2331.2,1614.7,2333z
			 M1613.4,2333c0-1.1-1.3-1.7-3.5-1.7c-2.1,0-3.5,0.6-3.5,1.7c0,1.1,1.3,1.7,3.5,1.7C1612.1,2334.6,1613.4,2334,1613.4,2333z
			 M1610,2324.7v1.8h3.3v-1.8H1610z"/>
	</g>
	<g class="st2">
		<path class="st4" d="M1008.6,2246.3h2.9c3.6,0,5.5,2.1,5.5,5.8c0,3.7-1.9,5.9-5.5,5.9h-3V2246.3z M1011.4,2256.8
			c2.8,0,4.1-1.7,4.1-4.7c0-3-1.4-4.6-4.1-4.6h-1.3v9.3H1011.4z"/>
		<path class="st4" d="M1019.2,2246.5c0-0.6,0.4-0.9,1-0.9s1,0.4,1,0.9c0,0.6-0.4,1-1,1S1019.2,2247.1,1019.2,2246.5z
			 M1019.5,2249.3h1.5v8.7h-1.5V2249.3z"/>
		<path class="st4" d="M1022.6,2249.3h1.5l1.6,4.9c0.3,0.8,0.5,1.7,0.8,2.6h0.1c0.3-0.8,0.5-1.7,0.8-2.6l1.6-4.9h1.4l-3.1,8.7h-1.7
			L1022.6,2249.3z"/>
		<path class="st4" d="M1031.5,2253.7c0-2.8,1.9-4.6,3.9-4.6c2.2,0,3.5,1.6,3.5,4.1c0,0.3,0,0.6-0.1,0.8h-5.9c0.1,1.9,1.2,3,2.9,3
			c0.8,0,1.5-0.3,2.2-0.7l0.5,1c-0.8,0.5-1.7,0.9-2.9,0.9C1033.3,2258.2,1031.5,2256.5,1031.5,2253.7z M1037.6,2252.9
			c0-1.7-0.8-2.7-2.2-2.7c-1.2,0-2.3,1-2.5,2.7H1037.6z"/>
		<path class="st4" d="M1041,2249.3h1.2l0.1,1.6h0c0.6-1.1,1.5-1.8,2.5-1.8c0.4,0,0.7,0,0.9,0.2l-0.3,1.3c-0.3-0.1-0.5-0.1-0.8-0.1
			c-0.7,0-1.6,0.5-2.2,2v5.6h-1.5V2249.3z"/>
		<path class="st4" d="M1046.2,2257l0.7-1c0.8,0.6,1.5,1,2.6,1c1.2,0,1.7-0.6,1.7-1.4c0-0.9-1-1.3-2-1.6c-1.2-0.4-2.5-1-2.5-2.5
			c0-1.4,1.1-2.5,3-2.5c1.1,0,2,0.4,2.7,1l-0.7,0.9c-0.6-0.4-1.2-0.8-2-0.8c-1.1,0-1.6,0.6-1.6,1.2c0,0.8,0.9,1.1,1.9,1.5
			c1.3,0.5,2.7,1,2.7,2.6c0,1.4-1.1,2.6-3.2,2.6C1048.2,2258.2,1047,2257.7,1046.2,2257z"/>
		<path class="st4" d="M1054.4,2246.5c0-0.6,0.4-0.9,1-0.9s1,0.4,1,0.9c0,0.6-0.4,1-1,1S1054.4,2247.1,1054.4,2246.5z
			 M1054.6,2249.3h1.5v8.7h-1.5V2249.3z"/>
		<path class="st4" d="M1059.3,2255.3v-4.8h-1.3v-1.1l1.4-0.1l0.2-2.4h1.2v2.4h2.4v1.2h-2.4v4.8c0,1.1,0.3,1.7,1.3,1.7
			c0.3,0,0.7-0.1,1-0.2l0.3,1.1c-0.5,0.2-1.1,0.3-1.6,0.3C1059.9,2258.2,1059.3,2257,1059.3,2255.3z"/>
		<path class="st4" d="M1064.2,2261.6l0.3-1.2c0.2,0.1,0.4,0.1,0.7,0.1c1,0,1.6-0.8,2-1.9l0.2-0.7l-3.5-8.7h1.5l1.8,4.8
			c0.3,0.8,0.6,1.6,0.8,2.4h0.1c0.2-0.8,0.5-1.7,0.7-2.4l1.6-4.8h1.4l-3.3,9.4c-0.6,1.7-1.5,3-3.2,3
			C1064.8,2261.7,1064.5,2261.7,1064.2,2261.6z"/>
		<path class="st4" d="M1076.1,2255c0-1.6,1.1-2.6,2.3-3.4c-0.5-0.9-0.8-1.9-0.8-2.7c0-1.6,1.1-2.8,2.7-2.8c1.5,0,2.3,1,2.3,2.3
			c0,1.5-1.3,2.5-2.6,3.5c0.8,1.2,1.9,2.4,3,3.3c0.7-1,1.3-2.1,1.7-3.5h1.3c-0.4,1.6-1.1,3-2,4.2c0.8,0.6,1.5,0.9,2.2,1.1l-0.4,1.2
			c-0.8-0.2-1.7-0.7-2.7-1.3c-0.9,0.8-2,1.3-3.4,1.3C1077.5,2258.2,1076.1,2256.8,1076.1,2255z M1079.8,2257c0.8,0,1.6-0.4,2.2-0.9
			c-1.2-1-2.3-2.2-3.1-3.5c-0.8,0.7-1.5,1.4-1.5,2.3C1077.5,2256.2,1078.5,2257,1079.8,2257z M1079.4,2250.9c1.1-0.7,2-1.4,2-2.5
			c0-0.7-0.3-1.3-1.1-1.3c-0.9,0-1.5,0.7-1.5,1.7C1078.9,2249.4,1079.1,2250.2,1079.4,2250.9z"/>
		<path class="st4" d="M1090.9,2252.1c0-3.8,2.3-6.1,5.4-6.1c1.6,0,2.7,0.7,3.4,1.5l-0.8,1c-0.6-0.6-1.3-1.1-2.5-1.1
			c-2.4,0-3.9,1.8-3.9,4.8c0,3,1.4,4.8,3.9,4.8c0.8,0,1.6-0.3,2.1-0.7v-3.1h-2.5v-1.2h3.8v4.9c-0.8,0.8-2,1.4-3.6,1.4
			C1093.1,2258.2,1090.9,2256,1090.9,2252.1z"/>
		<path class="st4" d="M1101.8,2253.7c0-2.8,1.9-4.6,3.9-4.6c2.2,0,3.5,1.6,3.5,4.1c0,0.3,0,0.6-0.1,0.8h-5.9c0.1,1.9,1.2,3,2.9,3
			c0.8,0,1.5-0.3,2.2-0.7l0.5,1c-0.8,0.5-1.7,0.9-2.9,0.9C1103.7,2258.2,1101.8,2256.5,1101.8,2253.7z M1107.9,2252.9
			c0-1.7-0.8-2.7-2.2-2.7c-1.2,0-2.3,1-2.5,2.7H1107.9z"/>
		<path class="st4" d="M1111.3,2249.3h1.2l0.1,1.2h0c0.8-0.8,1.7-1.5,2.9-1.5c1.8,0,2.7,1.2,2.7,3.4v5.5h-1.5v-5.3
			c0-1.6-0.5-2.3-1.6-2.3c-0.9,0-1.5,0.4-2.4,1.3v6.3h-1.5V2249.3z"/>
		<path class="st4" d="M1120.5,2253.7c0-2.8,1.8-4.6,3.8-4.6c1,0,1.7,0.4,2.4,1l-0.1-1.5v-3.3h1.4v12.7h-1.2l-0.1-1h0
			c-0.7,0.7-1.6,1.2-2.6,1.2C1121.9,2258.2,1120.5,2256.6,1120.5,2253.7z M1126.6,2255.8v-4.6c-0.8-0.7-1.4-0.9-2.1-0.9
			c-1.4,0-2.5,1.3-2.5,3.3c0,2.1,0.9,3.3,2.4,3.3C1125.2,2257,1125.9,2256.6,1126.6,2255.8z"/>
		<path class="st4" d="M1130.4,2253.7c0-2.8,1.9-4.6,3.9-4.6c2.2,0,3.5,1.6,3.5,4.1c0,0.3,0,0.6-0.1,0.8h-5.9c0.1,1.9,1.2,3,2.9,3
			c0.8,0,1.5-0.3,2.2-0.7l0.5,1c-0.8,0.5-1.7,0.9-2.9,0.9C1132.2,2258.2,1130.4,2256.5,1130.4,2253.7z M1136.5,2252.9
			c0-1.7-0.8-2.7-2.2-2.7c-1.2,0-2.3,1-2.5,2.7H1136.5z"/>
		<path class="st4" d="M1139.9,2249.3h1.2l0.1,1.6h0c0.6-1.1,1.5-1.8,2.5-1.8c0.4,0,0.7,0,0.9,0.2l-0.3,1.3
			c-0.3-0.1-0.5-0.1-0.8-0.1c-0.7,0-1.6,0.5-2.2,2v5.6h-1.5V2249.3z"/>
	</g>
	<g class="st2">
		<path class="st4" d="M1008.6,2268.3h6.8v1.3h-5.3v3.7h4.4v1.3h-4.4v4.3h5.5v1.3h-6.9V2268.3z"/>
		<path class="st4" d="M1023.2,2280.6l0.1-1.6c-0.7,0.7-1.6,1.2-2.6,1.2c-2.2,0-3.6-1.6-3.6-4.5c0-2.8,1.8-4.6,3.8-4.6
			c1,0,1.7,0.4,2.5,1.1h0l0.1-0.8h1.2v12.4h-1.4V2280.6z M1023.2,2277.8v-4.6c-0.8-0.7-1.4-0.9-2.1-0.9c-1.4,0-2.5,1.3-2.5,3.3
			c0,2.1,0.9,3.3,2.4,3.3C1021.8,2279,1022.5,2278.6,1023.2,2277.8z"/>
		<path class="st4" d="M1027.5,2276.8v-5.5h1.5v5.3c0,1.6,0.5,2.3,1.6,2.3c0.9,0,1.5-0.4,2.4-1.5v-6.2h1.5v8.7h-1.2l-0.1-1.4h0
			c-0.8,0.9-1.7,1.6-2.9,1.6C1028.3,2280.2,1027.5,2279,1027.5,2276.8z"/>
		<path class="st4" d="M1036.8,2277.7c0-1.9,1.6-2.8,5.3-3.2c0-1.1-0.4-2.2-1.8-2.2c-1,0-1.9,0.5-2.6,0.9l-0.6-1
			c0.8-0.5,2-1.1,3.4-1.1c2.1,0,3,1.4,3,3.6v5.3h-1.2l-0.1-1h0c-0.8,0.7-1.8,1.2-2.9,1.2C1037.9,2280.2,1036.8,2279.3,1036.8,2277.7
			z M1042.1,2277.9v-2.4c-2.9,0.4-3.9,1.1-3.9,2.2c0,1,0.7,1.4,1.5,1.4C1040.6,2279,1041.3,2278.6,1042.1,2277.9z"/>
		<path class="st4" d="M1046.4,2278.3v-11h1.5v11.1c0,0.4,0.2,0.6,0.4,0.6c0.1,0,0.1,0,0.3,0l0.2,1.1c-0.2,0.1-0.4,0.1-0.8,0.1
			C1046.8,2280.2,1046.4,2279.5,1046.4,2278.3z"/>
		<path class="st4" d="M1050.7,2268.5c0-0.6,0.4-0.9,1-0.9s1,0.4,1,0.9c0,0.6-0.4,1-1,1S1050.7,2269.1,1050.7,2268.5z
			 M1050.9,2271.3h1.5v8.7h-1.5V2271.3z"/>
		<path class="st4" d="M1055.6,2277.3v-4.8h-1.3v-1.1l1.4-0.1l0.2-2.4h1.2v2.4h2.4v1.2h-2.4v4.8c0,1.1,0.3,1.7,1.3,1.7
			c0.3,0,0.7-0.1,1-0.2l0.3,1.1c-0.5,0.2-1.1,0.3-1.6,0.3C1056.2,2280.2,1055.6,2279,1055.6,2277.3z"/>
		<path class="st4" d="M1060.5,2283.6l0.3-1.2c0.2,0.1,0.4,0.1,0.7,0.1c1,0,1.6-0.8,2-1.9l0.2-0.7l-3.5-8.7h1.5l1.8,4.8
			c0.3,0.8,0.6,1.6,0.8,2.4h0.1c0.2-0.8,0.5-1.7,0.7-2.4l1.6-4.8h1.4l-3.3,9.4c-0.6,1.7-1.5,3-3.2,3
			C1061.1,2283.7,1060.7,2283.7,1060.5,2283.6z"/>
	</g>
	<g class="st2">
		<path class="st4" d="M1085.6,2278.1v1.1h-13v-1.1h3.2v-4.8h1.3v4.8h2.3v-4.8h1.3v4.8H1085.6z M1082.8,2269.3h-8.8v-1.1h10.1v1.6
			c0,1.8,0,3.7-0.5,6.4l-1.3-0.2c0.5-2.6,0.5-4.4,0.5-6.2V2269.3z"/>
		<path class="st4" d="M1096.9,2274.8v1.8h1.8v4.6h-1.3v-3.5h-8.6v-1.1h2v-1.8h-3.4v-1.1h13v1.1H1096.9z M1088.8,2269.9
			c0-1.7,2-2.8,5-2.8c3.1,0,5,1,5,2.8s-1.9,2.7-5,2.7C1090.8,2272.7,1088.8,2271.6,1088.8,2269.9z M1090.2,2269.9
			c0,1.1,1.4,1.7,3.7,1.7c2.3,0,3.7-0.6,3.7-1.7s-1.4-1.7-3.7-1.7C1091.6,2268.2,1090.2,2268.8,1090.2,2269.9z M1095.6,2274.8h-3.5
			v1.8h3.5V2274.8z"/>
	</g>
	<g class="st2">
		<path class="st4" d="M1008.6,2320.8h3.5c2.4,0,4,0.8,4,2.9c0,1.2-0.6,2.2-1.7,2.5v0.1c1.4,0.3,2.4,1.2,2.4,2.8
			c0,2.3-1.8,3.4-4.4,3.4h-3.7V2320.8z M1011.8,2325.8c2,0,2.8-0.8,2.8-1.9c0-1.4-0.9-1.9-2.8-1.9h-1.8v3.8H1011.8z M1012.1,2331.3
			c2,0,3.2-0.7,3.2-2.3c0-1.5-1.2-2.1-3.2-2.1h-2v4.4H1012.1z"/>
		<path class="st4" d="M1018.9,2329.3v-5.5h1.5v5.3c0,1.6,0.5,2.3,1.6,2.3c0.9,0,1.5-0.4,2.4-1.5v-6.2h1.5v8.7h-1.2l-0.1-1.4h0
			c-0.8,0.9-1.7,1.6-2.9,1.6C1019.7,2332.7,1018.9,2331.5,1018.9,2329.3z"/>
		<path class="st4" d="M1027.7,2331.5l0.7-1c0.8,0.6,1.5,1,2.6,1c1.2,0,1.7-0.6,1.7-1.4c0-0.9-1-1.3-2-1.6c-1.2-0.4-2.5-1-2.5-2.5
			c0-1.4,1.1-2.5,3-2.5c1.1,0,2,0.4,2.7,1l-0.7,0.9c-0.6-0.4-1.2-0.8-2-0.8c-1.1,0-1.6,0.6-1.6,1.2c0,0.8,0.9,1.1,1.9,1.5
			c1.3,0.5,2.7,1,2.7,2.6c0,1.4-1.1,2.6-3.2,2.6C1029.7,2332.7,1028.6,2332.2,1027.7,2331.5z"/>
		<path class="st4" d="M1035.9,2321c0-0.6,0.4-0.9,1-0.9s1,0.4,1,0.9c0,0.6-0.4,1-1,1S1035.9,2321.6,1035.9,2321z M1036.2,2323.8
			h1.5v8.7h-1.5V2323.8z"/>
		<path class="st4" d="M1040.6,2323.8h1.2l0.1,1.2h0c0.8-0.8,1.7-1.5,2.9-1.5c1.8,0,2.7,1.2,2.7,3.4v5.5h-1.5v-5.3
			c0-1.6-0.5-2.3-1.6-2.3c-0.9,0-1.5,0.4-2.4,1.3v6.3h-1.5V2323.8z"/>
		<path class="st4" d="M1049.7,2328.2c0-2.8,1.9-4.6,3.9-4.6c2.2,0,3.5,1.6,3.5,4.1c0,0.3,0,0.6-0.1,0.8h-5.9c0.1,1.9,1.2,3,2.9,3
			c0.8,0,1.5-0.3,2.2-0.7l0.5,1c-0.8,0.5-1.7,0.9-2.9,0.9C1051.6,2332.7,1049.7,2331,1049.7,2328.2z M1055.8,2327.4
			c0-1.7-0.8-2.7-2.2-2.7c-1.2,0-2.3,1-2.5,2.7H1055.8z"/>
		<path class="st4" d="M1058.2,2331.5l0.7-1c0.8,0.6,1.5,1,2.6,1c1.2,0,1.7-0.6,1.7-1.4c0-0.9-1-1.3-2-1.6c-1.2-0.4-2.5-1-2.5-2.5
			c0-1.4,1.1-2.5,3-2.5c1.1,0,2,0.4,2.7,1l-0.7,0.9c-0.6-0.4-1.2-0.8-2-0.8c-1.1,0-1.6,0.6-1.6,1.2c0,0.8,0.9,1.1,1.9,1.5
			c1.3,0.5,2.7,1,2.7,2.6c0,1.4-1.1,2.6-3.2,2.6C1060.3,2332.7,1059.1,2332.2,1058.2,2331.5z"/>
		<path class="st4" d="M1065.7,2331.5l0.7-1c0.8,0.6,1.5,1,2.6,1c1.2,0,1.7-0.6,1.7-1.4c0-0.9-1-1.3-2-1.6c-1.2-0.4-2.5-1-2.5-2.5
			c0-1.4,1.1-2.5,3-2.5c1.1,0,2,0.4,2.7,1l-0.7,0.9c-0.6-0.4-1.2-0.8-2-0.8c-1.1,0-1.6,0.6-1.6,1.2c0,0.8,0.9,1.1,1.9,1.5
			c1.3,0.5,2.7,1,2.7,2.6c0,1.4-1.1,2.6-3.2,2.6C1067.8,2332.7,1066.6,2332.2,1065.7,2331.5z"/>
		<path class="st4" d="M1077.9,2320.8h6.8v1.3h-5.3v3.7h4.4v1.3h-4.4v4.3h5.5v1.3h-6.9V2320.8z"/>
		<path class="st4" d="M1087,2329.8v-4.8h-1.3v-1.1l1.4-0.1l0.2-2.4h1.2v2.4h2.4v1.2h-2.4v4.8c0,1.1,0.3,1.7,1.3,1.7
			c0.3,0,0.7-0.1,1-0.2l0.3,1.1c-0.5,0.2-1.1,0.3-1.6,0.3C1087.6,2332.7,1087,2331.5,1087,2329.8z"/>
		<path class="st4" d="M1092.8,2319.8h1.5v3.5l0,1.8c0.8-0.8,1.7-1.5,2.9-1.5c1.8,0,2.7,1.2,2.7,3.4v5.5h-1.5v-5.3
			c0-1.6-0.5-2.3-1.6-2.3c-0.9,0-1.5,0.4-2.4,1.3v6.3h-1.5V2319.8z"/>
		<path class="st4" d="M1102.3,2321c0-0.6,0.4-0.9,1-0.9s1,0.4,1,0.9c0,0.6-0.4,1-1,1S1102.3,2321.6,1102.3,2321z M1102.5,2323.8
			h1.5v8.7h-1.5V2323.8z"/>
		<path class="st4" d="M1106.2,2328.2c0-2.9,2-4.6,4.2-4.6c1.1,0,1.9,0.5,2.5,1l-0.8,1c-0.5-0.4-1-0.8-1.7-0.8
			c-1.6,0-2.7,1.4-2.7,3.4s1.1,3.3,2.7,3.3c0.8,0,1.5-0.4,2-0.9l0.6,1c-0.8,0.7-1.8,1.1-2.8,1.1
			C1108,2332.7,1106.2,2331,1106.2,2328.2z"/>
		<path class="st4" d="M1114.1,2331.5l0.7-1c0.8,0.6,1.5,1,2.6,1c1.2,0,1.7-0.6,1.7-1.4c0-0.9-1-1.3-2-1.6c-1.2-0.4-2.5-1-2.5-2.5
			c0-1.4,1.1-2.5,3-2.5c1.1,0,2,0.4,2.7,1l-0.7,0.9c-0.6-0.4-1.2-0.8-2-0.8c-1.1,0-1.6,0.6-1.6,1.2c0,0.8,0.9,1.1,1.9,1.5
			c1.3,0.5,2.7,1,2.7,2.6c0,1.4-1.1,2.6-3.2,2.6C1116.1,2332.7,1114.9,2332.2,1114.1,2331.5z"/>
	</g>
	<g class="st2">
		<path class="st4" d="M1138.5,2330.6v1.1h-13v-1.1h3.2v-4.8h1.3v4.8h2.3v-4.8h1.3v4.8H1138.5z M1135.6,2321.8h-8.8v-1.1h10.1v1.6
			c0,1.8,0,3.7-0.5,6.4l-1.3-0.2c0.5-2.6,0.5-4.4,0.5-6.2V2321.8z"/>
		<path class="st4" d="M1149.8,2327.3v1.8h1.8v4.6h-1.3v-3.5h-8.6v-1.1h2v-1.8h-3.4v-1.1h13v1.1H1149.8z M1141.7,2322.4
			c0-1.7,2-2.8,5-2.8c3.1,0,5,1,5,2.8s-1.9,2.7-5,2.7C1143.6,2325.2,1141.7,2324.1,1141.7,2322.4z M1143,2322.4
			c0,1.1,1.4,1.7,3.7,1.7c2.3,0,3.7-0.6,3.7-1.7s-1.4-1.7-3.7-1.7C1144.4,2320.7,1143,2321.3,1143,2322.4z M1148.5,2327.3h-3.5v1.8
			h3.5V2327.3z"/>
	</g>
	<g class="st2">
		<path class="st5" d="M986.5,2383l0.9-1.5l-1.5-0.6l0.3-0.7l1.6,0.4l0.1-1.7h0.8l0.1,1.7l1.6-0.4l0.2,0.7l-1.5,0.6l0.9,1.5
			l-0.6,0.4l-1.1-1.3l-1.1,1.3L986.5,2383z"/>
		<path class="st5" d="M1006.8,2388.4v0.9h-11.4v-0.9h4.4v-3.3h1.1v3.3H1006.8z M1004.3,2382.7c0-0.7,0-1.3,0-1.8v-0.3h-7.5v-0.9h8
			l0.7,0v1.2c0,1.5,0,3.3-0.5,5.8l-1.1-0.1c0.2-1.1,0.4-2.1,0.4-3l-7.6,0.4l-0.2-1L1004.3,2382.7z"/>
		<path class="st5" d="M1019.7,2388.5v0.9h-11.4v-0.9h5.1v-2.4h-3.7v-3.9h7.5v-2h-7.5v-0.9h8.6v3.8h-7.4v2h7.7v0.9h-4v2.4H1019.7z"
			/>
		<path class="st5" d="M1022.8,2386.9c1.8,0,3.7-0.2,5.7-0.6l0.1,1c-2.1,0.4-4.1,0.6-6,0.6h-1v-8.2h1.1V2386.9z M1032.9,2384.4h-2
			v6.6h-1.1v-12.6h1.1v5h2V2384.4z"/>
		<path class="st5" d="M1034.5,2388.9h2.3v-7.7h-1.8v-0.8c0.9-0.2,1.6-0.4,2.1-0.7h1v9.2h2.1v1.1h-5.6V2388.9z"/>
		<path class="st5" d="M1042.6,2388.3c0.4,0.5,1.1,0.8,1.7,0.8c1.3,0,2.5-1.1,2.6-4.3c-0.6,0.8-1.5,1.3-2.4,1.3
			c-1.7,0-2.8-1.1-2.8-3.2c0-2,1.3-3.3,2.9-3.3c2,0,3.4,1.6,3.4,4.9c0,4.2-1.8,5.8-3.7,5.8c-1.1,0-1.9-0.4-2.5-1L1042.6,2388.3z
			 M1046.9,2383.8c-0.1-2.1-0.9-3.2-2.2-3.2c-1,0-1.7,0.9-1.7,2.3c0,1.4,0.6,2.3,1.8,2.3C1045.4,2385.2,1046.2,2384.8,1046.9,2383.8
			z"/>
		<path class="st5" d="M1060.7,2386.1c-2.7,0.5-5.7,0.5-7.9,0.5l-0.1-0.9c1,0,2.1,0,3.3,0v-0.9c-1.5-0.1-2.4-0.8-2.4-1.8
			c0-1.1,1.2-1.9,2.9-1.9c1.8,0,2.9,0.7,2.9,1.9c0,1-0.9,1.7-2.4,1.8v0.9c1.1-0.1,2.3-0.1,3.4-0.3L1060.7,2386.1z M1060.2,2380.5
			h-7.2v-0.9h3v-1.2h1.1v1.2h3V2380.5z M1054.2,2387.5h8.3v3.5h-1.1v-2.6h-7.1V2387.5z M1056.6,2383.9c1.1,0,1.8-0.4,1.8-1.1
			s-0.7-1.1-1.8-1.1c-1.1,0-1.8,0.4-1.8,1.1S1055.5,2383.9,1056.6,2383.9z M1064.3,2383.2h-1.8v3.7h-1.1v-8.4h1.1v3.8h1.8V2383.2z"
			/>
		<path class="st5" d="M1072.4,2385.7c-1.4-0.5-2.5-1.6-3.1-2.9c-0.5,1.5-1.6,2.6-3.1,3.2l-0.6-0.9c1.9-0.7,3.1-2.4,3.1-4.3v-1.6
			h1.1v1.6c0,1.7,1.2,3.3,3.1,4L1072.4,2385.7z M1068.7,2389.8h7.2v0.9h-8.3v-3.9h1.1V2389.8z M1077.2,2382.3v1h-1.9v4.5h-1.1v-9.3
			h1.1v3.9H1077.2z"/>
		<path class="st5" d="M1089.9,2388.4v1h-11.4v-1H1089.9z M1088.7,2382.7c0,2.1-2,3.5-4.6,3.5s-4.6-1.4-4.6-3.5c0-2.1,2-3.5,4.6-3.5
			S1088.7,2380.6,1088.7,2382.7z M1080.7,2382.7c0,1.5,1.5,2.5,3.5,2.5c2,0,3.5-1,3.5-2.5c0-1.5-1.5-2.5-3.5-2.5
			C1082.2,2380.2,1080.7,2381.2,1080.7,2382.7z"/>
		<path class="st5" d="M1102.8,2388.5v0.9h-11.4v-0.9h5.1v-2.4h-3.7v-3.9h7.5v-2h-7.5v-0.9h8.6v3.8h-7.4v2h7.7v0.9h-4v2.4H1102.8z"
			/>
		<path class="st5" d="M1110.9,2385.5c-1.9,0-3.3-1.3-3.3-3.1c0-1.8,1.4-3.1,3.3-3.1c1.9,0,3.3,1.3,3.3,3.1
			C1114.2,2384.3,1112.8,2385.5,1110.9,2385.5z M1110.9,2384.6c1.2,0,2.2-0.9,2.2-2.1c0-1.2-0.9-2.1-2.2-2.1c-1.2,0-2.1,0.9-2.1,2.1
			C1108.8,2383.7,1109.7,2384.6,1110.9,2384.6z M1118.1,2389.8v0.9h-8.5v-4h1.1v3.1H1118.1z M1117.7,2387.7h-1.1v-9.2h1.1V2387.7z"
			/>
		<path class="st5" d="M1123.9,2380.6h2.5v0.9h-6.2v-0.9h2.5v-1.8h1.1V2380.6z M1126.1,2385.3c0,1.7-1.1,2.9-2.7,2.9
			s-2.7-1.2-2.7-2.9c0-1.7,1.1-2.9,2.7-2.9S1126.1,2383.6,1126.1,2385.3z M1125,2385.3c0-1.1-0.7-1.9-1.7-1.9c-1,0-1.7,0.8-1.7,1.9
			c0,1.1,0.7,1.9,1.7,1.9C1124.3,2387.2,1125,2386.4,1125,2385.3z M1130.9,2378.5v12.6h-1.1v-6.3h-1.6v5.7h-1.1v-11.7h1.1v5h1.6
			v-5.3H1130.9z"/>
		<path class="st5" d="M1138.1,2379.5v3.3h3.6v-3.3h1.1v8.5h-5.9v-8.5H1138.1z M1138.1,2387.1h3.6v-3.3h-3.6V2387.1z M1146.6,2378.5
			v12.6h-1.1v-12.6H1146.6z"/>
		<path class="st5" d="M1150.7,2387c1.7,0,2.9-0.1,4.2-0.4l0.1,1c-1.5,0.3-2.8,0.4-4.7,0.4h-0.8v-7.9h4.7v0.9h-3.5V2387z
			 M1159.8,2378.5v12.6h-1.1v-6.6h-1.8v6h-1.1v-11.7h1.1v4.8h1.8v-5H1159.8z"/>
		<path class="st5" d="M1168.3,2385.4h-5.7v-5.9h5.7v1.1h2.9v-2.2h1.2v9.2h-1.2v-3.3h-2.9V2385.4z M1167.2,2380.5h-3.5v4h3.5V2380.5
			z M1172.7,2389.8v0.9h-8.4v-3.9h1.1v3H1172.7z M1168.3,2381.6v1.8h2.9v-1.8H1168.3z"/>
		<path class="st5" d="M1189.4,2385.2v0.9h-11.3v-0.9h5.1v-1.3c-2.4-0.1-3.9-1-3.9-2.5c0-1.6,1.7-2.5,4.4-2.5c2.7,0,4.4,0.9,4.4,2.5
			c0,1.4-1.5,2.4-3.8,2.5v1.3H1189.4z M1180.7,2389.8h7.5v0.9h-8.6v-3.6h1.1V2389.8z M1183.7,2382.9c2,0,3.2-0.6,3.2-1.6
			s-1.3-1.6-3.2-1.6c-2,0-3.2,0.6-3.2,1.6S1181.8,2382.9,1183.7,2382.9z"/>
		<path class="st5" d="M1192.6,2387.1c2.3,0,3.9-0.1,5.8-0.4l0.1,1c-2,0.4-3.6,0.4-6,0.4h-1v-4.8h4.5v-2.6h-4.6v-0.9h5.7v4.5h-4.5
			V2387.1z M1202.7,2384.4h-2.1v6.6h-1.1v-12.6h1.1v5h2.1V2384.4z"/>
		<path class="st5" d="M1207.4,2385.5c-1.9,0-3.3-1.3-3.3-3.1c0-1.8,1.4-3.1,3.3-3.1c1.9,0,3.3,1.3,3.3,3.1
			C1210.7,2384.3,1209.3,2385.5,1207.4,2385.5z M1207.4,2384.6c1.2,0,2.2-0.9,2.2-2.1c0-1.2-0.9-2.1-2.2-2.1c-1.2,0-2.1,0.9-2.1,2.1
			C1205.2,2383.7,1206.2,2384.6,1207.4,2384.6z M1214.5,2389.8v0.9h-8.5v-4h1.1v3.1H1214.5z M1214.1,2387.7h-1.1v-9.2h1.1V2387.7z"
			/>
		<path class="st5" d="M1226.2,2379.4c0,3.2-2.2,5.5-5.9,6.6l-0.5-0.9c3-0.9,4.9-2.6,5.1-4.8h-4.6v-0.9H1226.2z M1229.7,2388.6
			c0,1.5-1.6,2.4-4.1,2.4c-2.5,0-4.1-0.9-4.1-2.4c0-1.5,1.6-2.4,4.1-2.4C1228.1,2386.1,1229.7,2387.1,1229.7,2388.6z M1228.6,2388.6
			c0-1-1.1-1.5-3-1.5s-3,0.6-3,1.5c0,1,1.1,1.5,3,1.5S1228.6,2389.5,1228.6,2388.6z M1231.4,2381.7v1h-1.9v3.3h-1.1v-7.5h1.1v3.2
			H1231.4z"/>
		<path class="st5" d="M1232.8,2387.3c2.3,0,5.4,0,8.2-0.4l0.1,0.9c-2.8,0.5-5.9,0.5-8.1,0.5L1232.8,2387.3z M1240.2,2382.4
			c0,1.8-1.4,3-3.4,3c-1.9,0-3.4-1.2-3.4-3c0-1.8,1.4-3,3.4-3C1238.8,2379.4,1240.2,2380.6,1240.2,2382.4z M1234.6,2382.4
			c0,1.2,0.9,2,2.2,2c1.3,0,2.2-0.8,2.2-2c0-1.2-0.9-2-2.2-2C1235.5,2380.4,1234.6,2381.2,1234.6,2382.4z M1243,2378.5v12.6h-1.1
			v-12.6H1243z"/>
		<path class="st5" d="M1253.2,2381.8c0,2.3,1.5,4.6,3.4,5.4l-0.7,0.9c-1.4-0.7-2.6-2.2-3.2-4c-0.6,1.9-1.8,3.5-3.2,4.2l-0.7-0.9
			c1.8-0.9,3.4-3.3,3.4-5.7v-2.3h1.1V2381.8z M1259,2378.5v12.6h-1.1v-12.6H1259z"/>
		<path class="st5" d="M1267.9,2380.9h-6.4v-0.9h2.6v-1.4h1.1v1.4h2.6V2380.9z M1264.7,2385.8c-1.6,0-2.7-0.8-2.7-2.2
			c0-1.3,1.1-2.1,2.7-2.1s2.7,0.9,2.7,2.1C1267.4,2385,1266.3,2385.8,1264.7,2385.8z M1264.7,2385c1,0,1.7-0.5,1.7-1.3
			c0-0.8-0.7-1.3-1.7-1.3c-1,0-1.7,0.5-1.7,1.3C1263.1,2384.5,1263.8,2385,1264.7,2385z M1272.3,2388.8c0,1.4-1.6,2.2-4.2,2.2
			c-2.6,0-4.2-0.8-4.2-2.2c0-1.4,1.6-2.2,4.2-2.2C1270.7,2386.6,1272.3,2387.4,1272.3,2388.8z M1271.1,2388.8c0-0.8-1.1-1.3-3.1-1.3
			c-1.9,0-3.1,0.5-3.1,1.3c0,0.8,1.1,1.3,3.1,1.3C1270,2390.1,1271.1,2389.7,1271.1,2388.8z M1269.5,2386h-1.1v-7.3h1.1v3.2h1.6
			v-3.4h1.1v8h-1.1v-3.6h-1.6V2386z"/>
		<path class="st5" d="M1289,2387h-5.1v4h-1.1v-4h-5.1v-0.9h11.4V2387z M1278.3,2384.2c2.3-0.3,4.4-1.7,4.4-3.2h-4v-0.9h4v-1.5h1.1
			v1.5h4v0.9h-4c0,1.5,2.1,2.9,4.4,3.2l-0.4,0.9c-1.9-0.3-3.7-1.3-4.5-2.6c-0.8,1.4-2.6,2.3-4.6,2.6L1278.3,2384.2z"/>
		<path class="st5" d="M1296.9,2379.8c0,3.6-1.6,6.8-5.7,8.8l-0.6-0.9c3.2-1.6,4.9-4,5.2-7h-4.6v-1H1296.9z M1302.2,2384.5h-2v6.5
			h-1.1v-12.6h1.1v5.1h2V2384.5z"/>
	</g>
</g>
</svg>
