<?xml version="1.0" encoding="utf-8"?>
<!-- Generator: Adobe Illustrator 25.1.0, SVG Export Plug-In . SVG Version: 6.00 Build 0)  -->
<svg version="1.1" id="레이어_1" xmlns="http://www.w3.org/2000/svg" xmlns:xlink="http://www.w3.org/1999/xlink" x="0px"
	 y="0px" viewBox="0 0 920 269.1" style="enable-background:new 0 0 920 269.1;" xml:space="preserve">
<style type="text/css">
	.st0{fill:none;stroke:#D6D6D6;}
	.st1{fill:none;stroke:#707070;}
	.st2{enable-background:new    ;}
	.st3{fill:#2AA6D3;}
	.st4{fill:#555555;}
</style>
<g id="그룹_5380" transform="translate(-740 -1246.945)">
	<line id="선_396" class="st0" x1="1368" y1="1255" x2="1368" y2="1516"/>
	<line id="선_394" class="st0" x1="1514" y1="1255" x2="1514" y2="1516"/>
	<line id="선_395" class="st0" x1="1222" y1="1255" x2="1222" y2="1516"/>
	<g id="그룹_5382">
		<path id="패스_1677" class="st0" d="M985.3,1384.9H1660"/>
		<path id="패스_2801" class="st0" d="M985.3,1450.4H1660"/>
		<path id="패스_2802" class="st1" d="M985.3,1515.4H1660"/>
		<g class="st2">
			<path class="st3" d="M761,1265.6v2.5h-4.7v4h-3.2v-4H751v3.9h-3.1v-3.9h-6.8v-2.5H761z M743.1,1259.9c0-2.8,3.2-4.6,7.9-4.6
				c4.8,0,7.9,1.8,7.9,4.6c0,2.8-3.2,4.6-7.9,4.6C746.3,1264.5,743.1,1262.7,743.1,1259.9z M746.5,1274.1h12.6v2.5h-15.8v-6.5h3.1
				V1274.1z M746.5,1259.9c0,1.3,1.8,2,4.5,2c2.8,0,4.5-0.7,4.5-2c0-1.4-1.8-2.1-4.5-2.1C748.3,1257.8,746.5,1258.5,746.5,1259.9z"
				/>
			<path class="st3" d="M767.5,1269.3c3.4,0,6.1-0.2,9.3-0.7l0.3,2.6c-3.6,0.6-6.8,0.8-10.8,0.8h-2v-9.1h7.2v-3.5h-7.2v-2.5h10.4
				v8.5h-7.2V1269.3z M781.5,1254.9v22.2h-3.2v-22.2H781.5z"/>
			<path class="st3" d="M796.5,1256.2c0,5.9-3.7,9.9-10.3,11.6l-1.2-2.5c4.9-1.2,7.6-3.6,8.1-6.6h-7v-2.5H796.5z M788.3,1268.1h14.3
				v8.6h-14.3V1268.1z M791.4,1274.3h8.1v-3.7h-8.1V1274.3z M805.5,1262.3h-2.9v4.9h-3.2v-12.3h3.2v4.8h2.9V1262.3z"/>
			<path class="st3" d="M815.4,1259.8c0,4,1.6,8,5.1,9.7l-1.9,2.5c-2.3-1.2-3.9-3.3-4.8-6c-1,2.8-2.6,5.1-5.1,6.4l-1.9-2.6
				c3.7-1.8,5.4-6,5.4-10.1v-3.2h3.2V1259.8z M827.8,1266h-3.2v11h-3.2v-22.1h3.2v8.5h3.2V1266z"/>
			<path class="st3" d="M841.4,1265.8c-2.5-0.7-4.2-2.3-5.2-4.2c-1,2.1-2.8,3.8-5.4,4.6l-1.5-2.5c3.7-1.1,5.3-3.9,5.3-6.6v-1.7h3.2
				v1.7c0,2.6,1.6,5.2,5.2,6.2L841.4,1265.8z M848.3,1274.4v2.4H833v-6.1h11.6v-1.3H833v-2.4h14.7v6h-11.6v1.4H848.3z M847.7,1266.1
				h-3.2v-11.1h3.2V1266.1z"/>
			<path class="st3" d="M860,1259.8c0,4.1,1.8,8.1,5.5,9.7l-1.8,2.6c-2.5-1.2-4.2-3.3-5.2-6c-1,3-2.8,5.3-5.4,6.6l-1.9-2.6
				c3.9-1.7,5.7-5.9,5.7-10.2v-3.2h3.2V1259.8z M869.7,1254.9v22.2h-3.2v-22.2H869.7z"/>
		</g>
		<path id="패스_1677-2" class="st1" d="M985.3,1254.9H1660"/>
		<path id="패스_1678" class="st0" d="M985.3,1319.4H1660"/>
		<g class="st2">
			<path d="M1276.7,1293.9c3.3-3.2,5.3-5.3,5.3-7.1c0-1.2-0.7-2.1-2-2.1c-0.9,0-1.7,0.6-2.3,1.3l-1-1c1-1.1,2-1.8,3.6-1.8
				c2.2,0,3.6,1.4,3.6,3.5c0,2.1-1.9,4.2-4.4,6.8c0.6-0.1,1.3-0.1,1.9-0.1h3v1.6h-7.6V1293.9z"/>
			<path d="M1285.9,1289.2c0-3.9,1.5-5.9,3.8-5.9c2.4,0,3.8,2.1,3.8,5.9c0,3.9-1.5,6-3.8,6C1287.3,1295.2,1285.9,1293,1285.9,1289.2
				z M1291.7,1289.2c0-3.3-0.8-4.5-2-4.5c-1.2,0-2,1.2-2,4.5s0.8,4.5,2,4.5C1290.9,1293.7,1291.7,1292.5,1291.7,1289.2z"/>
			<path d="M1295.6,1293.4h2.6v-7.9h-2.1v-1.2c1.1-0.2,1.9-0.5,2.6-0.9h1.4v9.9h2.3v1.5h-6.7V1293.4z"/>
			<path d="M1304.1,1292c0-1.5,1-2.4,2.1-3v-0.1c-0.9-0.6-1.6-1.5-1.6-2.7c0-1.8,1.4-3,3.4-3c2,0,3.3,1.3,3.3,3.1
				c0,1.2-0.8,2.2-1.6,2.7v0.1c1,0.6,2,1.4,2,3c0,1.7-1.5,3.1-3.8,3.1C1305.7,1295.2,1304.1,1293.8,1304.1,1292z M1310,1292
				c0-1.4-1.3-1.8-2.9-2.5c-0.8,0.6-1.4,1.3-1.4,2.3c0,1.2,1,2,2.2,2C1309.2,1293.8,1310,1293.1,1310,1292z M1309.8,1286.4
				c0-1.1-0.7-1.9-1.8-1.9c-1,0-1.7,0.6-1.7,1.7c0,1.2,1.1,1.8,2.4,2.3C1309.4,1287.9,1309.8,1287.2,1309.8,1286.4z"/>
		</g>
		<g class="st2">
			<path d="M1422.7,1293.9c3.3-3.2,5.3-5.3,5.3-7.1c0-1.2-0.7-2.1-2-2.1c-0.9,0-1.7,0.6-2.3,1.3l-1-1c1-1.1,2-1.8,3.6-1.8
				c2.2,0,3.6,1.4,3.6,3.5c0,2.1-1.9,4.2-4.4,6.8c0.6-0.1,1.3-0.1,1.9-0.1h3v1.6h-7.6V1293.9z"/>
			<path d="M1431.9,1289.2c0-3.9,1.5-5.9,3.8-5.9c2.4,0,3.8,2.1,3.8,5.9c0,3.9-1.5,6-3.8,6C1433.3,1295.2,1431.9,1293,1431.9,1289.2
				z M1437.7,1289.2c0-3.3-0.8-4.5-2-4.5c-1.2,0-2,1.2-2,4.5s0.8,4.5,2,4.5C1436.9,1293.7,1437.7,1292.5,1437.7,1289.2z"/>
			<path d="M1441.6,1293.4h2.6v-7.9h-2.1v-1.2c1.1-0.2,1.9-0.5,2.6-0.9h1.4v9.9h2.3v1.5h-6.7V1293.4z"/>
			<path d="M1450.2,1293.9l1-1.1c0.4,0.5,1.2,0.9,1.8,0.9c1.5,0,2.8-1.2,2.8-4.5c-0.7,0.9-1.7,1.4-2.6,1.4c-2,0-3.3-1.2-3.3-3.5
				c0-2.3,1.6-3.7,3.5-3.7c2.3,0,4.1,1.8,4.1,5.6c0,4.5-2.1,6.3-4.4,6.3C1451.9,1295.2,1450.9,1294.6,1450.2,1293.9z M1453.7,1289.2
				c0.7,0,1.6-0.4,2.2-1.4c-0.2-2.1-1.1-3.1-2.3-3.1c-1,0-1.8,0.8-1.8,2.3C1451.8,1288.4,1452.4,1289.2,1453.7,1289.2z"/>
		</g>
		<g class="st2">
			<path d="M1568.7,1293.9c3.3-3.2,5.3-5.3,5.3-7.1c0-1.2-0.7-2.1-2-2.1c-0.9,0-1.7,0.6-2.3,1.3l-1-1c1-1.1,2-1.8,3.6-1.8
				c2.2,0,3.6,1.4,3.6,3.5c0,2.1-1.9,4.2-4.4,6.8c0.6-0.1,1.3-0.1,1.9-0.1h3v1.6h-7.6V1293.9z"/>
			<path d="M1577.9,1289.2c0-3.9,1.5-5.9,3.8-5.9c2.4,0,3.8,2.1,3.8,5.9c0,3.9-1.5,6-3.8,6C1579.3,1295.2,1577.9,1293,1577.9,1289.2
				z M1583.7,1289.2c0-3.3-0.8-4.5-2-4.5c-1.2,0-2,1.2-2,4.5s0.8,4.5,2,4.5C1582.9,1293.7,1583.7,1292.5,1583.7,1289.2z"/>
			<path d="M1586.9,1293.9c3.3-3.2,5.3-5.3,5.3-7.1c0-1.2-0.7-2.1-2-2.1c-0.9,0-1.7,0.6-2.3,1.3l-1-1c1-1.1,2-1.8,3.6-1.8
				c2.2,0,3.6,1.4,3.6,3.5c0,2.1-1.9,4.2-4.4,6.8c0.6-0.1,1.3-0.1,1.9-0.1h3v1.6h-7.6V1293.9z"/>
			<path d="M1596.1,1289.2c0-3.9,1.5-5.9,3.8-5.9c2.4,0,3.8,2.1,3.8,5.9c0,3.9-1.5,6-3.8,6C1597.6,1295.2,1596.1,1293,1596.1,1289.2
				z M1602,1289.2c0-3.3-0.8-4.5-2-4.5c-1.2,0-2,1.2-2,4.5s0.8,4.5,2,4.5C1601.1,1293.7,1602,1292.5,1602,1289.2z"/>
		</g>
		<g class="st2">
			<path d="M1020.9,1290.1h-5.8v6h-1.7v-6h-5.7v-1.4h9.4c0.4-2,0.4-3.5,0.4-4.9h-8.2v-1.3h9.9v1.3c0,1.4,0,2.9-0.4,4.9h2V1290.1z"/>
			<path d="M1035.6,1289.2v1.3h-5.6v2.6h-1.6v-2.6h-5.9v-1.3H1035.6z M1025.8,1294.6h8.4v1.3h-10.1v-4h1.6V1294.6z M1033.9,1288
				h-9.7v-5.8h1.6v1.7h6.4v-1.7h1.6V1288z M1032.3,1285.1h-6.4v1.6h6.4V1285.1z"/>
		</g>
		<g class="st2">
			<path class="st4" d="M1286.4,1358.6l0.7-1c0.7,0.7,1.5,1.3,2.9,1.3c1.4,0,2.5-1,2.5-2.6s-1-2.5-2.4-2.5c-0.8,0-1.3,0.3-2,0.7
				l-0.8-0.5l0.4-5.5h5.7v1.2h-4.4l-0.3,3.4c0.5-0.3,1-0.5,1.7-0.5c2,0,3.5,1.1,3.5,3.6s-1.9,3.9-3.8,3.9
				C1288.4,1360.2,1287.2,1359.4,1286.4,1358.6z"/>
			<path class="st4" d="M1301.1,1357.2c1.4-0.1,2.8-0.2,4.1-0.3l0.1,1c-3.2,0.5-6.7,0.6-9.3,0.6l-0.2-1.1c1.2,0,2.6,0,4-0.1v-1.5
				c-1.7-0.2-2.8-1.2-2.8-2.6c0-1.6,1.4-2.7,3.5-2.7s3.4,1,3.4,2.7c0,1.4-1.1,2.4-2.8,2.6V1357.2z M1304.8,1349.6h-8.7v-1.1h3.7
				v-1.8h1.3v1.8h3.7V1349.6z M1300.5,1354.7c1.3,0,2.2-0.6,2.2-1.6c0-1-0.9-1.6-2.2-1.6c-1.3,0-2.2,0.6-2.2,1.6
				C1298.3,1354.1,1299.2,1354.7,1300.5,1354.7z M1307.4,1346.8v14.4h-1.3v-14.4H1307.4z"/>
		</g>
		<g class="st2">
			<path class="st4" d="M1286.4,1424.1l0.7-1c0.7,0.7,1.5,1.3,2.9,1.3c1.4,0,2.5-1,2.5-2.6s-1-2.5-2.4-2.5c-0.8,0-1.3,0.3-2,0.7
				l-0.8-0.5l0.4-5.5h5.7v1.2h-4.4l-0.3,3.4c0.5-0.3,1-0.5,1.7-0.5c2,0,3.5,1.1,3.5,3.6s-1.9,3.9-3.8,3.9
				C1288.4,1425.7,1287.2,1424.9,1286.4,1424.1z"/>
			<path class="st4" d="M1301.1,1422.7c1.4-0.1,2.8-0.2,4.1-0.3l0.1,1c-3.2,0.5-6.7,0.6-9.3,0.6l-0.2-1.1c1.2,0,2.6,0,4-0.1v-1.5
				c-1.7-0.2-2.8-1.2-2.8-2.6c0-1.6,1.4-2.7,3.5-2.7s3.4,1,3.4,2.7c0,1.4-1.1,2.4-2.8,2.6V1422.7z M1304.8,1415.1h-8.7v-1.1h3.7
				v-1.8h1.3v1.8h3.7V1415.1z M1300.5,1420.2c1.3,0,2.2-0.6,2.2-1.6c0-1-0.9-1.6-2.2-1.6c-1.3,0-2.2,0.6-2.2,1.6
				C1298.3,1419.6,1299.2,1420.2,1300.5,1420.2z M1307.4,1412.3v14.4h-1.3v-14.4H1307.4z"/>
		</g>
		<g class="st2">
			<path class="st4" d="M1287.4,1489.2h2.6v-8.4h-2.1v-0.9c1-0.2,1.8-0.4,2.4-0.8h1.1v10.2h2.4v1.2h-6.4V1489.2z"/>
			<path class="st4" d="M1301.1,1487.7c1.4-0.1,2.8-0.2,4.1-0.3l0.1,1c-3.2,0.5-6.7,0.6-9.3,0.6l-0.2-1.1c1.2,0,2.6,0,4-0.1v-1.5
				c-1.7-0.2-2.8-1.2-2.8-2.6c0-1.6,1.4-2.7,3.5-2.7s3.4,1,3.4,2.7c0,1.4-1.1,2.4-2.8,2.6V1487.7z M1304.8,1480.1h-8.7v-1.1h3.7
				v-1.8h1.3v1.8h3.7V1480.1z M1300.5,1485.2c1.3,0,2.2-0.6,2.2-1.6c0-1-0.9-1.6-2.2-1.6c-1.3,0-2.2,0.6-2.2,1.6
				C1298.3,1484.6,1299.2,1485.2,1300.5,1485.2z M1307.4,1477.3v14.4h-1.3v-14.4H1307.4z"/>
		</g>
		<g class="st2">
			<path class="st4" d="M1437.4,1356.8h-5.1v-1l4.9-7.3h1.6v7.1h1.6v1.2h-1.6v3.2h-1.4V1356.8z M1437.4,1355.6v-3.3
				c0-0.6,0-1.6,0.1-2.2h-0.1c-0.3,0.5-0.6,1-0.9,1.6l-2.7,3.9H1437.4z"/>
			<path class="st4" d="M1447.1,1357.2c1.4-0.1,2.8-0.2,4.1-0.3l0.1,1c-3.2,0.5-6.7,0.6-9.3,0.6l-0.2-1.1c1.2,0,2.6,0,4-0.1v-1.5
				c-1.7-0.2-2.8-1.2-2.8-2.6c0-1.6,1.4-2.7,3.5-2.7s3.4,1,3.4,2.7c0,1.4-1.1,2.4-2.8,2.6V1357.2z M1450.8,1349.6h-8.7v-1.1h3.7
				v-1.8h1.3v1.8h3.7V1349.6z M1446.5,1354.7c1.3,0,2.2-0.6,2.2-1.6c0-1-0.9-1.6-2.2-1.6c-1.3,0-2.2,0.6-2.2,1.6
				C1444.3,1354.1,1445.2,1354.7,1446.5,1354.7z M1453.4,1346.8v14.4h-1.3v-14.4H1453.4z"/>
		</g>
		<g class="st2">
			<path class="st4" d="M1432.5,1424.1l0.7-1c0.7,0.7,1.6,1.3,2.9,1.3c1.4,0,2.4-0.8,2.4-2.1c0-1.4-0.9-2.3-3.6-2.3v-1.1
				c2.4,0,3.2-0.9,3.2-2.1c0-1.1-0.8-1.8-2-1.8c-0.9,0-1.8,0.5-2.4,1.2l-0.8-0.9c0.9-0.8,1.9-1.4,3.3-1.4c2,0,3.4,1,3.4,2.9
				c0,1.4-0.8,2.3-2.1,2.7v0.1c1.4,0.3,2.5,1.3,2.5,2.9c0,2-1.7,3.2-3.8,3.2C1434.4,1425.7,1433.2,1424.9,1432.5,1424.1z"/>
			<path class="st4" d="M1447.1,1422.7c1.4-0.1,2.8-0.2,4.1-0.3l0.1,1c-3.2,0.5-6.7,0.6-9.3,0.6l-0.2-1.1c1.2,0,2.6,0,4-0.1v-1.5
				c-1.7-0.2-2.8-1.2-2.8-2.6c0-1.6,1.4-2.7,3.5-2.7s3.4,1,3.4,2.7c0,1.4-1.1,2.4-2.8,2.6V1422.7z M1450.8,1415.1h-8.7v-1.1h3.7
				v-1.8h1.3v1.8h3.7V1415.1z M1446.5,1420.2c1.3,0,2.2-0.6,2.2-1.6c0-1-0.9-1.6-2.2-1.6c-1.3,0-2.2,0.6-2.2,1.6
				C1444.3,1419.6,1445.2,1420.2,1446.5,1420.2z M1453.4,1412.3v14.4h-1.3v-14.4H1453.4z"/>
		</g>
		<g class="st2">
			<path class="st4" d="M1432.8,1484.7c0-3.8,1.4-5.9,3.7-5.9c2.3,0,3.7,2.1,3.7,5.9c0,3.8-1.4,6-3.7,6
				C1434.2,1490.7,1432.8,1488.5,1432.8,1484.7z M1438.7,1484.7c0-3.3-0.9-4.7-2.2-4.7c-1.3,0-2.2,1.4-2.2,4.7
				c0,3.3,0.9,4.8,2.2,4.8C1437.8,1489.5,1438.7,1488,1438.7,1484.7z"/>
			<path class="st4" d="M1447.1,1487.7c1.4-0.1,2.8-0.2,4.1-0.3l0.1,1c-3.2,0.5-6.7,0.6-9.3,0.6l-0.2-1.1c1.2,0,2.6,0,4-0.1v-1.5
				c-1.7-0.2-2.8-1.2-2.8-2.6c0-1.6,1.4-2.7,3.5-2.7s3.4,1,3.4,2.7c0,1.4-1.1,2.4-2.8,2.6V1487.7z M1450.8,1480.1h-8.7v-1.1h3.7
				v-1.8h1.3v1.8h3.7V1480.1z M1446.5,1485.2c1.3,0,2.2-0.6,2.2-1.6c0-1-0.9-1.6-2.2-1.6c-1.3,0-2.2,0.6-2.2,1.6
				C1444.3,1484.6,1445.2,1485.2,1446.5,1485.2z M1453.4,1477.3v14.4h-1.3v-14.4H1453.4z"/>
		</g>
		<g class="st2">
			<path class="st4" d="M1578.4,1358.6l0.7-1c0.7,0.7,1.5,1.3,2.9,1.3c1.4,0,2.5-1,2.5-2.6s-1-2.5-2.4-2.5c-0.8,0-1.3,0.3-2,0.7
				l-0.8-0.5l0.4-5.5h5.7v1.2h-4.4l-0.3,3.4c0.5-0.3,1-0.5,1.7-0.5c2,0,3.5,1.1,3.5,3.6s-1.9,3.9-3.8,3.9
				C1580.4,1360.2,1579.2,1359.4,1578.4,1358.6z"/>
			<path class="st4" d="M1593.1,1357.2c1.4-0.1,2.8-0.2,4.1-0.3l0.1,1c-3.2,0.5-6.7,0.6-9.3,0.6l-0.2-1.1c1.2,0,2.6,0,4-0.1v-1.5
				c-1.7-0.2-2.8-1.2-2.8-2.6c0-1.6,1.4-2.7,3.5-2.7s3.4,1,3.4,2.7c0,1.4-1.1,2.4-2.8,2.6V1357.2z M1596.8,1349.6h-8.7v-1.1h3.7
				v-1.8h1.3v1.8h3.7V1349.6z M1592.5,1354.7c1.3,0,2.2-0.6,2.2-1.6c0-1-0.9-1.6-2.2-1.6c-1.3,0-2.2,0.6-2.2,1.6
				C1590.3,1354.1,1591.2,1354.7,1592.5,1354.7z M1599.4,1346.8v14.4h-1.3v-14.4H1599.4z"/>
		</g>
		<g class="st2">
			<path class="st4" d="M1583.4,1422.3h-5.1v-1l4.9-7.3h1.6v7.1h1.6v1.2h-1.6v3.2h-1.4V1422.3z M1583.4,1421.1v-3.3
				c0-0.6,0-1.6,0.1-2.2h-0.1c-0.3,0.5-0.6,1-0.9,1.6l-2.7,3.9H1583.4z"/>
			<path class="st4" d="M1593.1,1422.7c1.4-0.1,2.8-0.2,4.1-0.3l0.1,1c-3.2,0.5-6.7,0.6-9.3,0.6l-0.2-1.1c1.2,0,2.6,0,4-0.1v-1.5
				c-1.7-0.2-2.8-1.2-2.8-2.6c0-1.6,1.4-2.7,3.5-2.7s3.4,1,3.4,2.7c0,1.4-1.1,2.4-2.8,2.6V1422.7z M1596.8,1415.1h-8.7v-1.1h3.7
				v-1.8h1.3v1.8h3.7V1415.1z M1592.5,1420.2c1.3,0,2.2-0.6,2.2-1.6c0-1-0.9-1.6-2.2-1.6c-1.3,0-2.2,0.6-2.2,1.6
				C1590.3,1419.6,1591.2,1420.2,1592.5,1420.2z M1599.4,1412.3v14.4h-1.3v-14.4H1599.4z"/>
		</g>
		<g class="st2">
			<path class="st4" d="M1578.4,1489.1l0.7-1c0.7,0.7,1.5,1.3,2.9,1.3c1.4,0,2.5-1,2.5-2.6s-1-2.5-2.4-2.5c-0.8,0-1.3,0.3-2,0.7
				l-0.8-0.5l0.4-5.5h5.7v1.2h-4.4l-0.3,3.4c0.5-0.3,1-0.5,1.7-0.5c2,0,3.5,1.1,3.5,3.6s-1.9,3.9-3.8,3.9
				C1580.4,1490.7,1579.2,1489.9,1578.4,1489.1z"/>
			<path class="st4" d="M1593.1,1487.7c1.4-0.1,2.8-0.2,4.1-0.3l0.1,1c-3.2,0.5-6.7,0.6-9.3,0.6l-0.2-1.1c1.2,0,2.6,0,4-0.1v-1.5
				c-1.7-0.2-2.8-1.2-2.8-2.6c0-1.6,1.4-2.7,3.5-2.7s3.4,1,3.4,2.7c0,1.4-1.1,2.4-2.8,2.6V1487.7z M1596.8,1480.1h-8.7v-1.1h3.7
				v-1.8h1.3v1.8h3.7V1480.1z M1592.5,1485.2c1.3,0,2.2-0.6,2.2-1.6c0-1-0.9-1.6-2.2-1.6c-1.3,0-2.2,0.6-2.2,1.6
				C1590.3,1484.6,1591.2,1485.2,1592.5,1485.2z M1599.4,1477.3v14.4h-1.3v-14.4H1599.4z"/>
		</g>
		<g class="st2">
			<path class="st4" d="M1018.7,1354.8c-1.6-0.6-2.8-1.8-3.5-3.2c-0.6,1.7-1.9,3-3.6,3.6l-0.7-1c2.1-0.8,3.6-2.7,3.6-4.8v-0.5h-3.2
				v-1.1h7.7v1.1h-3.2v0.5c0,1.8,1.4,3.6,3.5,4.4L1018.7,1354.8z M1022.7,1358.5c0,1.7-1.8,2.7-4.8,2.7c-2.9,0-4.8-1-4.8-2.7
				c0-1.7,1.8-2.7,4.8-2.7C1020.9,1355.8,1022.7,1356.8,1022.7,1358.5z M1021.4,1358.5c0-1-1.3-1.7-3.5-1.7c-2.2,0-3.5,0.6-3.5,1.7
				c0,1,1.3,1.6,3.5,1.6C1020.1,1360.1,1021.4,1359.5,1021.4,1358.5z M1021.3,1350.5v-3.7h1.3v8.5h-1.3v-3.8h-2.8v-1.1H1021.3z"/>
			<path class="st4" d="M1033.1,1348.3c0,4.1-1.9,7.8-6.7,10.1l-0.7-1.1c3.9-1.8,5.8-4.6,6.1-8h-5.4v-1.1H1033.1z M1037.3,1346.8
				v14.4h-1.3v-14.4H1037.3z"/>
			<path class="st4" d="M1052.1,1346.8v7.7h-1.3v-3.2h-2.9c-0.3,1.7-1.7,2.8-3.7,2.8c-2.1,0-3.7-1.3-3.7-3.3c0-2,1.6-3.3,3.7-3.3
				c1.9,0,3.4,1.1,3.6,2.8h2.9v-3.4H1052.1z M1046.7,1350.8c0-1.3-1-2.2-2.4-2.2c-1.4,0-2.4,0.9-2.4,2.2s1,2.2,2.4,2.2
				C1045.6,1353,1046.7,1352.1,1046.7,1350.8z M1050.8,1355.2h1.3v5.8h-9.2v-5.8h1.3v1.8h6.6V1355.2z M1050.8,1358h-6.6v1.9h6.6
				V1358z"/>
			<path class="st4" d="M1068,1356.2h-5.9v4.9h-1.3v-4.9h-5.8v-1.1h13V1356.2z M1066.4,1353.2h-9.7v-5.6h9.7V1353.2z M1065.1,1348.6
				h-7.1v3.5h7.1V1348.6z"/>
			<path class="st4" d="M1077,1347.7c0,3.6-2.5,6.2-6.8,7.4l-0.5-1c3.5-0.9,5.6-2.8,5.9-5.3h-5.2v-1.1H1077z M1071.8,1355.6h9v5.3
				h-9V1355.6z M1073.1,1359.9h6.5v-3.2h-6.5V1359.9z M1083,1351.4h-2.1v3.6h-1.3v-8.2h1.3v3.5h2.1V1351.4z"/>
			<path class="st4" d="M1089.3,1350.6c0,2.5,1.6,5.1,3.6,6.1l-0.8,1c-1.5-0.8-2.8-2.5-3.5-4.5c-0.6,2.1-2,3.9-3.6,4.8l-0.8-1.1
				c2.1-1.1,3.7-3.8,3.7-6.4v-2.6h1.3V1350.6z M1097.9,1353.7h-2.4v7.4h-1.3v-14.3h1.3v5.8h2.4V1353.7z"/>
		</g>
		<g class="st2">
			<path class="st4" d="M1018.4,1413.8c0,4.1-1.9,7.8-6.7,10.1l-0.7-1.1c3.9-1.8,5.8-4.6,6.1-8h-5.4v-1.1H1018.4z M1022.6,1412.3
				v14.4h-1.3v-14.4H1022.6z"/>
			<path class="st4" d="M1034.9,1420.9c-3.1,0.5-6.5,0.6-9.1,0.6l-0.2-1c1.2,0,2.6,0,4,0v-1c-1.7-0.2-2.7-1-2.7-2.1
				c0-1.3,1.4-2.1,3.4-2.1c2.1,0,3.4,0.8,3.4,2.1c0,1.2-1.1,2-2.8,2.1v0.9c1.3-0.1,2.7-0.2,3.9-0.3L1034.9,1420.9z M1034.5,1414.6
				h-8.4v-1h3.5v-1.4h1.3v1.4h3.6V1414.6z M1027.7,1422.6h9.6v4.1h-1.3v-3h-8.3V1422.6z M1030.3,1418.5c1.3,0,2.2-0.5,2.2-1.2
				c0-0.8-0.8-1.2-2.2-1.2c-1.3,0-2.2,0.5-2.2,1.2C1028.1,1418,1029,1418.5,1030.3,1418.5z M1037.3,1412.3v9.6h-1.3v-9.6H1037.3z"/>
			<path class="st4" d="M1047.5,1413.2c0,3.6-2.5,6.2-6.8,7.4l-0.5-1c3.5-0.9,5.6-2.8,5.9-5.3h-5.2v-1.1H1047.5z M1042.4,1421.1h9
				v5.3h-9V1421.1z M1043.7,1425.4h6.5v-3.2h-6.5V1425.4z M1053.6,1416.9h-2.1v3.6h-1.3v-8.2h1.3v3.5h2.1V1416.9z"/>
			<path class="st4" d="M1059.8,1416.1c0,2.5,1.6,5.1,3.6,6.1l-0.8,1c-1.5-0.8-2.8-2.5-3.5-4.5c-0.6,2.1-2,3.9-3.6,4.8l-0.8-1.1
				c2.1-1.1,3.7-3.8,3.7-6.4v-2.6h1.3V1416.1z M1068.4,1419.2h-2.4v7.4h-1.3v-14.3h1.3v5.8h2.4V1419.2z"/>
		</g>
		<g class="st2">
			<path class="st4" d="M1023.8,1484.9v1.1h-13v-1.1H1023.8z M1012.3,1487.3h9.9v4.3h-1.3v-3.3h-8.5V1487.3z M1022.3,1483.5h-9.8
				v-5.8h9.7v1h-8.4v1.4h8v1h-8v1.4h8.5V1483.5z"/>
			<path class="st4" d="M1032.8,1484.2h-6.5v-6.3h1.3v2h3.9v-2h1.3v1.4h3.3v-2h1.3v7.5h-1.3v-1.8h-3.3V1484.2z M1031.5,1481h-3.9
				v2.1h3.9V1481z M1037.9,1490.4v1h-9.8v-3.6h7.9v-1.4h-8v-1h9.3v3.4h-7.9v1.5H1037.9z M1032.8,1480.3v1.6h3.3v-1.6H1032.8z"/>
			<path class="st4" d="M1047.5,1478.2c0,3.6-2.5,6.2-6.8,7.4l-0.5-1c3.5-0.9,5.6-2.8,5.9-5.3h-5.2v-1.1H1047.5z M1042.4,1486.1h9
				v5.3h-9V1486.1z M1043.7,1490.4h6.5v-3.2h-6.5V1490.4z M1053.6,1481.9h-2.1v3.6h-1.3v-8.2h1.3v3.5h2.1V1481.9z"/>
			<path class="st4" d="M1059.8,1481.1c0,2.5,1.6,5.1,3.6,6.1l-0.8,1c-1.5-0.8-2.8-2.5-3.5-4.5c-0.6,2.1-2,3.9-3.6,4.8l-0.8-1.1
				c2.1-1.1,3.7-3.8,3.7-6.4v-2.6h1.3V1481.1z M1068.4,1484.2h-2.4v7.4h-1.3v-14.3h1.3v5.8h2.4V1484.2z"/>
		</g>
	</g>
</g>
</svg>
