<svg xmlns="http://www.w3.org/2000/svg" width="856.643" height="350.925" viewBox="0 0 856.643 350.925">
  <g id="그룹_5162" data-name="그룹 5162" transform="translate(-772 -2686)">
    <path id="패스_2823" data-name="패스 2823" d="M64.113-70.543H768.721v-61.143H64.113Z" transform="translate(859.887 2817.686)" fill="#c9e1ea"/>
    <path id="패스_2826" data-name="패스 2826" d="M64.113-20.2H768.721V-80.625H64.113Z" transform="translate(859.887 2914.125)" fill="#f5f5f5"/>
    <path id="패스_2829" data-name="패스 2829" d="M64.113,4.557H768.721V-55.867H64.113Z" transform="translate(859.887 2960.367)" fill="#f5f5f5"/>
    <path id="패스_2832" data-name="패스 2832" d="M64.113,29.316H768.721V-31.108H64.113Z" transform="translate(859.887 3007.608)" fill="#f5f5f5"/>
    <path id="패스_2835" data-name="패스 2835" d="M64.113-41.709H290.756V-106.93H64.113Z" transform="translate(859.887 2864.93)" fill="#2aa6d3"/>
    <path id="패스_2838" data-name="패스 2838" d="M147.21-41.709H373.853V-106.93H147.21Z" transform="translate(1016.16 2864.93)" fill="#2aa6d3"/>
    <path id="패스_2841" data-name="패스 2841" d="M230.307-41.709H456.95V-106.93H230.307Z" transform="translate(1171.693 2864.93)" fill="#2aa6d3"/>
    <path id="패스_2844" data-name="패스 2844" d="M0,24.729V-13.182" transform="translate(850.365 2747.446)" fill="none" stroke="#5d5f64" stroke-width="0.25"/>
    <path id="패스_2845" data-name="패스 2845" d="M11.156,0,2.606,9.2-5.947,0" transform="translate(847.758 2762.978)" fill="none" stroke="#5d5f64" stroke-width="0.25"/>
    <path id="패스_2846" data-name="패스 2846" d="M0,96.426V-51.4" transform="translate(850.365 2938.139)" fill="none" stroke="#5d5f64" stroke-width="0.25"/>
    <g id="그룹_5132" data-name="그룹 5132" transform="translate(841.811 3025.367)">
      <path id="패스_2847" data-name="패스 2847" d="M11.156,0,2.606,9.2-5.947,0" transform="translate(5.947)" fill="none" stroke="#5d5f64" stroke-width="0.25"/>
    </g>
    <path id="패스_2848" data-name="패스 2848" d="M0,0V39.947" transform="translate(857.999 2809.258)" fill="none" stroke="#5d5f64" stroke-width="0.25"/>
    <path id="패스_2849" data-name="패스 2849" d="M0,6,8.55-3.2,17.1,6" transform="translate(849.449 2812.458)" fill="none" stroke="#5d5f64" stroke-width="0.25"/>
    <path id="패스_2850" data-name="패스 2850" d="M0,26.057V-13.89" transform="translate(842.731 2822.62)" fill="none" stroke="#5d5f64" stroke-width="0.25"/>
    <path id="패스_2851" data-name="패스 2851" d="M11.156,0,2.606,9.2-5.947,0" transform="translate(840.125 2839.48)" fill="none" stroke="#5d5f64" stroke-width="0.25"/>
    <text id="평가_및승인" data-name="평가 및승인" transform="translate(772 2806)" fill="#42454a" font-size="16" font-family="NotoSansKR-Regular, Noto Sans KR"><tspan x="0" y="19">평가 및</tspan><tspan x="0" y="41">승인</tspan></text>
    <text id="보고" transform="translate(836 2776)" fill="#42454a" font-size="16" font-family="NotoSansKR-Regular, Noto Sans KR"><tspan x="0" y="19">보고</tspan></text>
    <text id="보고-2" data-name="보고" transform="translate(836 2857)" fill="#42454a" font-size="16" font-family="NotoSansKR-Regular, Noto Sans KR"><tspan x="0" y="19">보고</tspan></text>
    <text id="리스크_인지" data-name="리스크 인지" transform="translate(812 2704)" fill="#42454a" font-size="16" font-family="NotoSansKR-Regular, Noto Sans KR"><tspan x="0" y="19">리스크 인지</tspan></text>
    <text id="실무담당자" transform="translate(1221 2699)" fill="#42454a" font-size="24" font-family="NotoSansKR-Bold, Noto Sans KR" font-weight="700"><tspan x="0" y="28">실무담당자</tspan></text>
    <text id="내부회계_관리자" data-name="내부회계 관리자" transform="translate(957 2774)" fill="#fff" font-size="22" font-family="NotoSansKR-Bold, Noto Sans KR" font-weight="700"><tspan x="0" y="26">내부회계 관리자</tspan></text>
    <text id="대표이사" transform="translate(1235 2774)" fill="#fff" font-size="22" font-family="NotoSansKR-Bold, Noto Sans KR" font-weight="700"><tspan x="0" y="26">대표이사</tspan></text>
    <text id="준법지원인" transform="translate(1464 2774)" fill="#fff" font-size="22" font-family="NotoSansKR-Bold, Noto Sans KR" font-weight="700"><tspan x="0" y="26">준법지원인</tspan></text>
    <text id="감사위원회" transform="translate(1229 2849.5)" fill="#42454a" font-size="20" font-family="NotoSansKR-Medium, Noto Sans KR" font-weight="500"><tspan x="0" y="23">감사위원회</tspan></text>
    <text id="이사회" transform="translate(1248 2919.5)" fill="#42454a" font-size="20" font-family="NotoSansKR-Medium, Noto Sans KR" font-weight="500"><tspan x="0" y="23">이사회</tspan></text>
    <text id="주주총회" transform="translate(1239 2991.5)" fill="#42454a" font-size="20" font-family="NotoSansKR-Medium, Noto Sans KR" font-weight="500"><tspan x="0" y="23">주주총회</tspan></text>
  </g>
</svg>
