<?xml version="1.0" encoding="utf-8"?>
<!-- Generator: Adobe Illustrator 25.1.0, SVG Export Plug-In . SVG Version: 6.00 Build 0)  -->
<svg version="1.1" id="레이어_1" xmlns="http://www.w3.org/2000/svg" xmlns:xlink="http://www.w3.org/1999/xlink" x="0px"
	 y="0px" viewBox="0 0 335.3 197" style="enable-background:new 0 0 335.3 197;" xml:space="preserve">
<style type="text/css">
	.st0{fill:none;stroke:#D6D6D6;}
	.st1{enable-background:new    ;}
	.st2{fill:#2AA6D3;}
	.st3{fill:#555555;}
	.st4{fill:none;stroke:#707070;}
</style>
<g id="그룹_5849" transform="translate(-19.669 -877.762)">
	<line id="선_395" class="st0" x1="137.7" y1="907.8" x2="137.7" y2="1074.6"/>
	<path id="패스_1677" class="st0" d="M20.3,990.8H355"/>
	<path id="패스_2801" class="st0" d="M20.3,1032.7H355"/>
	<g class="st1">
		<path class="st2" d="M32,888.3v1.5h-2.7v2.3h-1.8v-2.3h-1.3v2.3h-1.8v-2.3h-4v-1.5H32z M21.5,885c0-1.6,1.9-2.7,4.6-2.7
			c2.8,0,4.6,1.1,4.6,2.7c0,1.6-1.8,2.7-4.6,2.7C23.3,887.6,21.5,886.6,21.5,885z M23.4,893.3h7.4v1.5h-9.2V891h1.8V893.3z
			 M23.5,885c0,0.8,1,1.2,2.6,1.2c1.6,0,2.6-0.4,2.6-1.2c0-0.8-1-1.2-2.6-1.2C24.5,883.8,23.5,884.2,23.5,885z"/>
		<path class="st2" d="M35.7,890.5c2,0,3.6-0.1,5.4-0.4l0.2,1.5c-2.1,0.4-4,0.4-6.3,0.4h-1.2v-5.3H38v-2.1h-4.2v-1.5h6.1v5h-4.2
			V890.5z M43.9,882.1V895H42v-12.9H43.9z"/>
		<path class="st2" d="M52.6,882.8c0,3.4-2.2,5.8-6,6.8l-0.7-1.5c2.9-0.7,4.4-2.1,4.7-3.8h-4.1v-1.5H52.6z M47.8,889.8h8.4v5h-8.4
			V889.8z M49.6,893.4h4.7v-2.1h-4.7V893.4z M57.9,886.4h-1.7v2.9h-1.8v-7.2h1.8v2.8h1.7V886.4z"/>
		<path class="st2" d="M63.7,884.9c0,2.3,0.9,4.7,3,5.7l-1.1,1.5c-1.3-0.7-2.3-1.9-2.8-3.5c-0.6,1.6-1.5,3-3,3.7l-1.1-1.5
			c2.2-1,3.2-3.5,3.2-5.9v-1.9h1.9V884.9z M70.9,888.6H69v6.4h-1.8v-12.9H69v5h1.9V888.6z"/>
		<path class="st2" d="M78.8,888.4c-1.5-0.4-2.5-1.3-3-2.5c-0.6,1.2-1.6,2.2-3.2,2.7l-0.9-1.4c2.1-0.7,3.1-2.3,3.1-3.9v-1h1.9v1
			c0,1.5,0.9,3,3,3.6L78.8,888.4z M82.8,893.4v1.4h-8.9v-3.5h6.8v-0.8h-6.8v-1.4h8.6v3.5h-6.8v0.8H82.8z M82.5,888.6h-1.8v-6.5h1.8
			V888.6z"/>
		<path class="st2" d="M89.7,884.9c0,2.4,1,4.7,3.2,5.7l-1.1,1.5c-1.5-0.7-2.5-1.9-3.1-3.5c-0.6,1.7-1.6,3.1-3.2,3.8l-1.1-1.5
			c2.3-1,3.3-3.5,3.3-6v-1.9h1.8V884.9z M95.4,882.1V895h-1.8v-12.9H95.4z"/>
	</g>
	<path id="패스_1678" class="st0" d="M20.3,949H355"/>
	<g class="st1">
		<path d="M160.5,932.2c2.5-2.4,3.9-3.9,3.9-5.3c0-0.9-0.5-1.6-1.5-1.6c-0.7,0-1.3,0.4-1.7,1l-0.8-0.8c0.8-0.8,1.5-1.3,2.7-1.3
			c1.6,0,2.7,1,2.7,2.6c0,1.6-1.4,3.2-3.3,5.1c0.4,0,1-0.1,1.4-0.1h2.2v1.2h-5.7V932.2z"/>
		<path d="M167.4,928.7c0-2.9,1.1-4.4,2.9-4.4c1.8,0,2.9,1.5,2.9,4.4c0,2.9-1.1,4.5-2.9,4.5C168.5,933.2,167.4,931.6,167.4,928.7z
			 M171.8,928.7c0-2.5-0.6-3.3-1.5-3.3s-1.5,0.9-1.5,3.3c0,2.5,0.6,3.4,1.5,3.4S171.8,931.1,171.8,928.7z"/>
		<path d="M174.7,931.9h1.9V926h-1.6v-0.9c0.8-0.1,1.4-0.4,1.9-0.7h1v7.4h1.7v1.1h-5V931.9z"/>
		<path d="M181.1,930.8c0-1.1,0.8-1.8,1.6-2.3v0c-0.7-0.5-1.2-1.1-1.2-2c0-1.4,1.1-2.3,2.5-2.3c1.5,0,2.5,0.9,2.5,2.3
			c0,0.9-0.6,1.6-1.2,2v0.1c0.8,0.5,1.5,1.1,1.5,2.2c0,1.3-1.2,2.3-2.9,2.3C182.3,933.2,181.1,932.2,181.1,930.8z M185.5,930.8
			c0-1-1-1.4-2.2-1.9c-0.6,0.4-1,1-1,1.7c0,0.9,0.7,1.5,1.7,1.5C184.9,932.2,185.5,931.6,185.5,930.8z M185.3,926.6
			c0-0.8-0.5-1.4-1.4-1.4c-0.7,0-1.3,0.5-1.3,1.3c0,0.9,0.8,1.3,1.8,1.7C185,927.7,185.3,927.2,185.3,926.6z"/>
	</g>
	<g class="st1">
		<path d="M233.5,932.2c2.5-2.4,3.9-3.9,3.9-5.3c0-0.9-0.5-1.6-1.5-1.6c-0.7,0-1.3,0.4-1.7,1l-0.8-0.8c0.8-0.8,1.5-1.3,2.7-1.3
			c1.6,0,2.7,1,2.7,2.6c0,1.6-1.4,3.2-3.3,5.1c0.4,0,1-0.1,1.4-0.1h2.2v1.2h-5.7V932.2z"/>
		<path d="M240.4,928.7c0-2.9,1.1-4.4,2.9-4.4c1.8,0,2.9,1.5,2.9,4.4c0,2.9-1.1,4.5-2.9,4.5C241.5,933.2,240.4,931.6,240.4,928.7z
			 M244.8,928.7c0-2.5-0.6-3.3-1.5-3.3s-1.5,0.9-1.5,3.3c0,2.5,0.6,3.4,1.5,3.4S244.8,931.1,244.8,928.7z"/>
		<path d="M247.7,931.9h1.9V926h-1.6v-0.9c0.8-0.1,1.4-0.4,1.9-0.7h1v7.4h1.7v1.1h-5V931.9z"/>
		<path d="M254.2,932.2l0.8-0.9c0.3,0.4,0.9,0.7,1.4,0.7c1.1,0,2.1-0.9,2.1-3.4c-0.5,0.7-1.3,1-1.9,1c-1.5,0-2.5-0.9-2.5-2.7
			c0-1.7,1.2-2.8,2.6-2.8c1.7,0,3.1,1.3,3.1,4.2c0,3.4-1.6,4.7-3.3,4.7C255.4,933.2,254.7,932.7,254.2,932.2z M256.8,928.7
			c0.5,0,1.2-0.3,1.7-1.1c-0.2-1.6-0.8-2.3-1.7-2.3c-0.8,0-1.4,0.6-1.4,1.7C255.3,928.1,255.8,928.7,256.8,928.7z"/>
	</g>
	<g class="st1">
		<path d="M306.5,932.2c2.5-2.4,3.9-3.9,3.9-5.3c0-0.9-0.5-1.6-1.5-1.6c-0.7,0-1.3,0.4-1.7,1l-0.8-0.8c0.8-0.8,1.5-1.3,2.7-1.3
			c1.6,0,2.7,1,2.7,2.6c0,1.6-1.4,3.2-3.3,5.1c0.4,0,1-0.1,1.4-0.1h2.2v1.2h-5.7V932.2z"/>
		<path d="M313.4,928.7c0-2.9,1.1-4.4,2.9-4.4c1.8,0,2.9,1.5,2.9,4.4c0,2.9-1.1,4.5-2.9,4.5C314.5,933.2,313.4,931.6,313.4,928.7z
			 M317.8,928.7c0-2.5-0.6-3.3-1.5-3.3s-1.5,0.9-1.5,3.3c0,2.5,0.6,3.4,1.5,3.4S317.8,931.1,317.8,928.7z"/>
		<path d="M320.2,932.2c2.5-2.4,3.9-3.9,3.9-5.3c0-0.9-0.5-1.6-1.5-1.6c-0.7,0-1.3,0.4-1.7,1l-0.8-0.8c0.8-0.8,1.5-1.3,2.7-1.3
			c1.6,0,2.7,1,2.7,2.6c0,1.6-1.4,3.2-3.3,5.1c0.4,0,1-0.1,1.4-0.1h2.2v1.2h-5.7V932.2z"/>
		<path d="M327.1,928.7c0-2.9,1.1-4.4,2.9-4.4c1.8,0,2.9,1.5,2.9,4.4c0,2.9-1.1,4.5-2.9,4.5C328.2,933.2,327.1,931.6,327.1,928.7z
			 M331.5,928.7c0-2.5-0.6-3.3-1.5-3.3s-1.5,0.9-1.5,3.3c0,2.5,0.6,3.4,1.5,3.4S331.5,931.1,331.5,928.7z"/>
	</g>
	<g class="st1">
		<path d="M41.4,929.4h-4.3v4.5h-1.2v-4.5h-4.2v-1h7c0.3-1.5,0.3-2.6,0.3-3.6h-6.2v-1h7.4v0.9c0,1,0,2.1-0.3,3.7h1.5V929.4z"/>
		<path d="M52.5,928.7v1h-4.2v1.9H47v-1.9h-4.4v-1H52.5z M45.1,932.7h6.3v1h-7.5v-3h1.2V932.7z M51.2,927.8h-7.3v-4.4h1.2v1.2H50
			v-1.2h1.2V927.8z M50,925.6h-4.8v1.2H50V925.6z"/>
	</g>
	<g class="st1">
		<path class="st3" d="M165.3,973l0.5-0.7c0.5,0.5,1.1,1,2.2,1c1,0,1.9-0.8,1.9-1.9s-0.7-1.9-1.8-1.9c-0.6,0-1,0.2-1.5,0.5l-0.6-0.4
			l0.3-4.1h4.3v0.9h-3.3l-0.2,2.6c0.4-0.2,0.8-0.4,1.3-0.4c1.5,0,2.7,0.8,2.7,2.7s-1.4,2.9-2.9,2.9
			C166.8,974.2,165.9,973.6,165.3,973z"/>
		<path class="st3" d="M176.3,971.9c1,0,2.1-0.1,3-0.3l0.1,0.7c-2.4,0.4-5,0.4-7,0.4l-0.1-0.8c0.9,0,1.9,0,3,0v-1.2
			c-1.3-0.2-2.1-0.9-2.1-2c0-1.2,1.1-2,2.6-2s2.6,0.8,2.6,2c0,1.1-0.8,1.8-2.1,2V971.9z M179.1,966.2h-6.5v-0.8h2.8v-1.3h1v1.3h2.8
			V966.2z M175.9,970.1c1,0,1.6-0.5,1.6-1.2c0-0.8-0.7-1.2-1.6-1.2c-1,0-1.7,0.5-1.7,1.2C174.2,969.6,174.9,970.1,175.9,970.1z
			 M181.1,964.1v10.8h-1v-10.8H181.1z"/>
	</g>
	<g class="st1">
		<path class="st3" d="M165.3,1016l0.5-0.7c0.5,0.5,1.1,1,2.2,1c1,0,1.9-0.8,1.9-1.9s-0.7-1.9-1.8-1.9c-0.6,0-1,0.2-1.5,0.5
			l-0.6-0.4l0.3-4.1h4.3v0.9h-3.3l-0.2,2.6c0.4-0.2,0.8-0.4,1.3-0.4c1.5,0,2.7,0.8,2.7,2.7s-1.4,2.9-2.9,2.9
			C166.8,1017.2,165.9,1016.6,165.3,1016z"/>
		<path class="st3" d="M176.3,1014.9c1,0,2.1-0.1,3-0.3l0.1,0.7c-2.4,0.4-5,0.4-7,0.4l-0.1-0.8c0.9,0,1.9,0,3,0v-1.2
			c-1.3-0.2-2.1-0.9-2.1-2c0-1.2,1.1-2,2.6-2s2.6,0.8,2.6,2c0,1.1-0.8,1.8-2.1,2V1014.9z M179.1,1009.2h-6.5v-0.8h2.8v-1.3h1v1.3
			h2.8V1009.2z M175.9,1013.1c1,0,1.6-0.5,1.6-1.2c0-0.8-0.7-1.2-1.6-1.2c-1,0-1.7,0.5-1.7,1.2
			C174.2,1012.6,174.9,1013.1,175.9,1013.1z M181.1,1007.1v10.8h-1v-10.8H181.1z"/>
	</g>
	<g class="st1">
		<path class="st3" d="M166.1,1057.1h2v-6.3h-1.6v-0.7c0.8-0.1,1.3-0.3,1.8-0.6h0.8v7.6h1.8v0.9h-4.8V1057.1z"/>
		<path class="st3" d="M176.3,1055.9c1,0,2.1-0.1,3-0.3l0.1,0.7c-2.4,0.4-5,0.4-7,0.4l-0.1-0.8c0.9,0,1.9,0,3,0v-1.2
			c-1.3-0.2-2.1-0.9-2.1-2c0-1.2,1.1-2,2.6-2s2.6,0.8,2.6,2c0,1.1-0.8,1.8-2.1,2V1055.9z M179.1,1050.2h-6.5v-0.8h2.8v-1.3h1v1.3
			h2.8V1050.2z M175.9,1054.1c1,0,1.6-0.5,1.6-1.2c0-0.8-0.7-1.2-1.6-1.2c-1,0-1.7,0.5-1.7,1.2
			C174.2,1053.6,174.9,1054.1,175.9,1054.1z M181.1,1048.1v10.8h-1v-10.8H181.1z"/>
	</g>
	<g class="st1">
		<path class="st3" d="M242.1,971.6h-3.8v-0.7l3.7-5.5h1.2v5.3h1.2v0.9h-1.2v2.4h-1V971.6z M242.1,970.8v-2.5c0-0.4,0-1.2,0.1-1.6h0
			c-0.2,0.4-0.5,0.8-0.7,1.2l-2,2.9H242.1z"/>
		<path class="st3" d="M249.3,971.9c1,0,2.1-0.1,3-0.3l0.1,0.7c-2.4,0.4-5,0.4-7,0.4l-0.1-0.8c0.9,0,1.9,0,3,0v-1.2
			c-1.3-0.2-2.1-0.9-2.1-2c0-1.2,1.1-2,2.6-2s2.6,0.8,2.6,2c0,1.1-0.8,1.8-2.1,2V971.9z M252.1,966.2h-6.5v-0.8h2.8v-1.3h1v1.3h2.8
			V966.2z M248.9,970.1c1,0,1.6-0.5,1.6-1.2c0-0.8-0.7-1.2-1.6-1.2c-1,0-1.7,0.5-1.7,1.2C247.2,969.6,247.9,970.1,248.9,970.1z
			 M254.1,964.1v10.8h-1v-10.8H254.1z"/>
	</g>
	<g class="st1">
		<path class="st3" d="M238.3,1016l0.6-0.7c0.5,0.5,1.2,1,2.2,1c1,0,1.8-0.6,1.8-1.6c0-1-0.7-1.7-2.7-1.7v-0.8
			c1.8,0,2.4-0.7,2.4-1.6c0-0.8-0.6-1.4-1.5-1.4c-0.7,0-1.3,0.4-1.8,0.9l-0.6-0.7c0.7-0.6,1.4-1.1,2.5-1.1c1.5,0,2.6,0.8,2.6,2.2
			c0,1-0.6,1.7-1.6,2v0c1,0.3,1.9,1,1.9,2.2c0,1.5-1.3,2.4-2.8,2.4C239.8,1017.2,238.9,1016.6,238.3,1016z"/>
		<path class="st3" d="M249.3,1014.9c1,0,2.1-0.1,3-0.3l0.1,0.7c-2.4,0.4-5,0.4-7,0.4l-0.1-0.8c0.9,0,1.9,0,3,0v-1.2
			c-1.3-0.2-2.1-0.9-2.1-2c0-1.2,1.1-2,2.6-2s2.6,0.8,2.6,2c0,1.1-0.8,1.8-2.1,2V1014.9z M252.1,1009.2h-6.5v-0.8h2.8v-1.3h1v1.3
			h2.8V1009.2z M248.9,1013.1c1,0,1.6-0.5,1.6-1.2c0-0.8-0.7-1.2-1.6-1.2c-1,0-1.7,0.5-1.7,1.2
			C247.2,1012.6,247.9,1013.1,248.9,1013.1z M254.1,1007.1v10.8h-1v-10.8H254.1z"/>
	</g>
	<g class="st1">
		<path class="st3" d="M238.6,1053.7c0-2.9,1-4.4,2.7-4.4s2.7,1.5,2.7,4.4c0,2.9-1,4.5-2.7,4.5S238.6,1056.6,238.6,1053.7z
			 M243,1053.7c0-2.5-0.7-3.5-1.7-3.5c-1,0-1.7,1-1.7,3.5s0.7,3.6,1.7,3.6C242.3,1057.3,243,1056.2,243,1053.7z"/>
		<path class="st3" d="M249.3,1055.9c1,0,2.1-0.1,3-0.3l0.1,0.7c-2.4,0.4-5,0.4-7,0.4l-0.1-0.8c0.9,0,1.9,0,3,0v-1.2
			c-1.3-0.2-2.1-0.9-2.1-2c0-1.2,1.1-2,2.6-2s2.6,0.8,2.6,2c0,1.1-0.8,1.8-2.1,2V1055.9z M252.1,1050.2h-6.5v-0.8h2.8v-1.3h1v1.3
			h2.8V1050.2z M248.9,1054.1c1,0,1.6-0.5,1.6-1.2c0-0.8-0.7-1.2-1.6-1.2c-1,0-1.7,0.5-1.7,1.2
			C247.2,1053.6,247.9,1054.1,248.9,1054.1z M254.1,1048.1v10.8h-1v-10.8H254.1z"/>
	</g>
	<g class="st1">
		<path class="st3" d="M311.3,973l0.5-0.7c0.5,0.5,1.1,1,2.2,1c1,0,1.9-0.8,1.9-1.9s-0.7-1.9-1.8-1.9c-0.6,0-1,0.2-1.5,0.5l-0.6-0.4
			l0.3-4.1h4.3v0.9h-3.3l-0.2,2.6c0.4-0.2,0.8-0.4,1.3-0.4c1.5,0,2.7,0.8,2.7,2.7s-1.4,2.9-2.9,2.9
			C312.8,974.2,311.9,973.6,311.3,973z"/>
		<path class="st3" d="M322.3,971.9c1,0,2.1-0.1,3-0.3l0.1,0.7c-2.4,0.4-5,0.4-7,0.4l-0.1-0.8c0.9,0,1.9,0,3,0v-1.2
			c-1.3-0.2-2.1-0.9-2.1-2c0-1.2,1.1-2,2.6-2s2.6,0.8,2.6,2c0,1.1-0.8,1.8-2.1,2V971.9z M325.1,966.2h-6.5v-0.8h2.8v-1.3h1v1.3h2.8
			V966.2z M321.9,970.1c1,0,1.6-0.5,1.6-1.2c0-0.8-0.7-1.2-1.6-1.2c-1,0-1.7,0.5-1.7,1.2C320.2,969.6,320.9,970.1,321.9,970.1z
			 M327.1,964.1v10.8h-1v-10.8H327.1z"/>
	</g>
	<g class="st1">
		<path class="st3" d="M315.1,1014.6h-3.8v-0.7l3.7-5.5h1.2v5.3h1.2v0.9h-1.2v2.4h-1V1014.6z M315.1,1013.8v-2.5
			c0-0.4,0-1.2,0.1-1.6h0c-0.2,0.4-0.5,0.8-0.7,1.2l-2,2.9H315.1z"/>
		<path class="st3" d="M322.3,1014.9c1,0,2.1-0.1,3-0.3l0.1,0.7c-2.4,0.4-5,0.4-7,0.4l-0.1-0.8c0.9,0,1.9,0,3,0v-1.2
			c-1.3-0.2-2.1-0.9-2.1-2c0-1.2,1.1-2,2.6-2s2.6,0.8,2.6,2c0,1.1-0.8,1.8-2.1,2V1014.9z M325.1,1009.2h-6.5v-0.8h2.8v-1.3h1v1.3
			h2.8V1009.2z M321.9,1013.1c1,0,1.6-0.5,1.6-1.2c0-0.8-0.7-1.2-1.6-1.2c-1,0-1.7,0.5-1.7,1.2
			C320.2,1012.6,320.9,1013.1,321.9,1013.1z M327.1,1007.1v10.8h-1v-10.8H327.1z"/>
	</g>
	<g class="st1">
		<path class="st3" d="M311.3,1057l0.5-0.7c0.5,0.5,1.1,1,2.2,1c1,0,1.9-0.8,1.9-1.9s-0.7-1.9-1.8-1.9c-0.6,0-1,0.2-1.5,0.5
			l-0.6-0.4l0.3-4.1h4.3v0.9h-3.3l-0.2,2.6c0.4-0.2,0.8-0.4,1.3-0.4c1.5,0,2.7,0.8,2.7,2.7s-1.4,2.9-2.9,2.9
			C312.8,1058.2,311.9,1057.6,311.3,1057z"/>
		<path class="st3" d="M322.3,1055.9c1,0,2.1-0.1,3-0.3l0.1,0.7c-2.4,0.4-5,0.4-7,0.4l-0.1-0.8c0.9,0,1.9,0,3,0v-1.2
			c-1.3-0.2-2.1-0.9-2.1-2c0-1.2,1.1-2,2.6-2s2.6,0.8,2.6,2c0,1.1-0.8,1.8-2.1,2V1055.9z M325.1,1050.2h-6.5v-0.8h2.8v-1.3h1v1.3
			h2.8V1050.2z M321.9,1054.1c1,0,1.6-0.5,1.6-1.2c0-0.8-0.7-1.2-1.6-1.2c-1,0-1.7,0.5-1.7,1.2
			C320.2,1053.6,320.9,1054.1,321.9,1054.1z M327.1,1048.1v10.8h-1v-10.8H327.1z"/>
	</g>
	<g class="st1">
		<path class="st3" d="M37.5,970.1c-1.2-0.4-2.1-1.3-2.6-2.4c-0.5,1.2-1.5,2.3-2.7,2.7l-0.5-0.8c1.6-0.6,2.7-2,2.7-3.6v-0.4H32v-0.8
			h5.7v0.8h-2.4v0.4c0,1.4,1.1,2.7,2.6,3.3L37.5,970.1z M40.5,972.9c0,1.3-1.4,2-3.6,2s-3.6-0.7-3.6-2s1.4-2,3.6-2
			S40.5,971.6,40.5,972.9z M39.6,972.9c0-0.8-1-1.2-2.6-1.2s-2.6,0.5-2.6,1.2s1,1.2,2.6,1.2S39.6,973.7,39.6,972.9z M39.5,966.9
			v-2.8h1v6.4h-1v-2.8h-2.1v-0.8H39.5z"/>
		<path class="st3" d="M48.3,965.3c0,3.1-1.4,5.8-5,7.6l-0.5-0.8c2.9-1.4,4.3-3.4,4.5-6h-4v-0.8H48.3z M51.5,964.1v10.8h-1v-10.8
			H51.5z"/>
		<path class="st3" d="M62.6,964.1v5.8h-1v-2.4h-2.2c-0.2,1.3-1.3,2.1-2.7,2.1c-1.6,0-2.8-1-2.8-2.5c0-1.5,1.2-2.5,2.8-2.5
			c1.5,0,2.5,0.8,2.7,2.1h2.2v-2.6H62.6z M58.5,967.1c0-1-0.8-1.7-1.8-1.7s-1.8,0.7-1.8,1.7s0.8,1.7,1.8,1.7S58.5,968.1,58.5,967.1z
			 M61.6,970.4h1v4.3h-6.9v-4.3h1v1.4h4.9V970.4z M61.6,972.6h-4.9v1.4h4.9V972.6z"/>
		<path class="st3" d="M74.5,971.2h-4.4v3.7h-1v-3.7h-4.4v-0.8h9.8V971.2z M73.3,968.9H66v-4.2h7.3V968.9z M72.3,965.5H67v2.6h5.3
			V965.5z"/>
		<path class="st3" d="M81.2,964.8c0,2.7-1.9,4.7-5.1,5.5l-0.4-0.8c2.6-0.7,4.2-2.1,4.4-3.9h-3.9v-0.8H81.2z M77.4,970.7h6.8v4h-6.8
			V970.7z M78.3,973.9h4.8v-2.4h-4.8V973.9z M85.7,967.6h-1.6v2.7h-1v-6.1h1v2.6h1.6V967.6z"/>
		<path class="st3" d="M90.4,967c0,1.9,1.2,3.8,2.7,4.6l-0.6,0.8c-1.1-0.6-2.1-1.9-2.6-3.3c-0.5,1.6-1.5,2.9-2.7,3.6l-0.6-0.8
			c1.5-0.8,2.8-2.9,2.8-4.8v-1.9h1V967z M96.9,969.3h-1.8v5.6h-1v-10.7h1v4.4h1.8V969.3z"/>
	</g>
	<g class="st1">
		<path class="st3" d="M37.3,1008.3c0,3.1-1.4,5.8-5,7.6l-0.5-0.8c2.9-1.4,4.3-3.4,4.5-6h-4v-0.8H37.3z M40.5,1007.1v10.8h-1v-10.8
			H40.5z"/>
		<path class="st3" d="M49.7,1013.6c-2.3,0.4-4.9,0.4-6.8,0.4l-0.1-0.8c0.9,0,1.9,0,3,0v-0.7c-1.3-0.1-2.1-0.7-2.1-1.6
			c0-1,1-1.6,2.5-1.6c1.5,0,2.6,0.6,2.6,1.6c0,0.9-0.8,1.5-2.1,1.6v0.7c1,0,2-0.1,2.9-0.3L49.7,1013.6z M49.4,1008.9h-6.3v-0.7h2.7
			v-1h1v1h2.7V1008.9z M44.3,1014.8h7.2v3h-1v-2.3h-6.2V1014.8z M46.2,1011.8c1,0,1.6-0.4,1.6-0.9c0-0.6-0.6-0.9-1.6-0.9
			c-1,0-1.6,0.3-1.6,0.9C44.6,1011.4,45.3,1011.8,46.2,1011.8z M51.5,1007.2v7.2h-1v-7.2H51.5z"/>
		<path class="st3" d="M59.1,1007.8c0,2.7-1.9,4.7-5.1,5.5l-0.4-0.8c2.6-0.7,4.2-2.1,4.4-3.9h-3.9v-0.8H59.1z M55.3,1013.7h6.8v4
			h-6.8V1013.7z M56.3,1016.9h4.8v-2.4h-4.8V1016.9z M63.7,1010.6h-1.6v2.7h-1v-6.1h1v2.6h1.6V1010.6z"/>
		<path class="st3" d="M68.4,1010c0,1.9,1.2,3.8,2.7,4.6l-0.6,0.8c-1.1-0.6-2.1-1.9-2.6-3.3c-0.5,1.6-1.5,2.9-2.7,3.6l-0.6-0.8
			c1.5-0.8,2.8-2.9,2.8-4.8v-1.9h1V1010z M74.8,1012.3H73v5.6h-1v-10.7h1v4.4h1.8V1012.3z"/>
	</g>
	<g class="st1">
		<path class="st3" d="M41.4,1053.8v0.8h-9.7v-0.8H41.4z M32.7,1055.6h7.4v3.2h-1v-2.5h-6.4V1055.6z M40.2,1052.8h-7.3v-4.4h7.3v0.8
			h-6.3v1h6v0.7h-6v1.1h6.3V1052.8z"/>
		<path class="st3" d="M48.1,1053.3h-4.8v-4.7h1v1.5h2.9v-1.5h1v1h2.5v-1.5h1v5.6h-1v-1.4h-2.5V1053.3z M47.1,1050.9h-2.9v1.6h2.9
			V1050.9z M51.9,1058v0.8h-7.3v-2.7h5.9v-1h-6v-0.8h6.9v2.6h-5.9v1.1H51.9z M48.1,1050.4v1.2h2.5v-1.2H48.1z"/>
		<path class="st3" d="M59.1,1048.8c0,2.7-1.9,4.7-5.1,5.5l-0.4-0.8c2.6-0.7,4.2-2.1,4.4-3.9h-3.9v-0.8H59.1z M55.3,1054.7h6.8v4
			h-6.8V1054.7z M56.3,1057.9h4.8v-2.4h-4.8V1057.9z M63.7,1051.6h-1.6v2.7h-1v-6.1h1v2.6h1.6V1051.6z"/>
		<path class="st3" d="M68.4,1051c0,1.9,1.2,3.8,2.7,4.6l-0.6,0.8c-1.1-0.6-2.1-1.9-2.6-3.3c-0.5,1.6-1.5,2.9-2.7,3.6l-0.6-0.8
			c1.5-0.8,2.8-2.9,2.8-4.8v-1.9h1V1051z M74.8,1053.3H73v5.6h-1v-10.7h1v4.4h1.8V1053.3z"/>
	</g>
	<line id="선_396" class="st0" x1="210.2" y1="907.8" x2="210.2" y2="1074.6"/>
	<line id="선_394" class="st0" x1="282.6" y1="907.8" x2="282.6" y2="1074.6"/>
	<path id="패스_1677-2" class="st4" d="M20.3,907.8H355"/>
	<path id="패스_2802" class="st4" d="M20.3,1074.2H355"/>
</g>
</svg>
