<?xml version="1.0" encoding="utf-8"?>
<!-- Generator: Adobe Illustrator 25.1.0, SVG Export Plug-In . SVG Version: 6.00 Build 0)  -->
<svg version="1.1" id="레이어_1" xmlns="http://www.w3.org/2000/svg" xmlns:xlink="http://www.w3.org/1999/xlink" x="0px"
	 y="0px" viewBox="0 0 920.1 457.6" style="enable-background:new 0 0 920.1 457.6;" xml:space="preserve">
<style type="text/css">
	.st0{fill:none;}
	.st1{fill:none;stroke:#DBDBDB;}
	.st2{fill:#E3F4FA;}
	.st3{fill:#F5F5F5;}
	.st4{fill:#2AA6D3;}
	.st5{fill:none;stroke:#C7C7C7;}
	.st6{enable-background:new    ;}
	.st7{fill:#42454A;}
	.st8{fill:#FFFFFF;}
	.st9{fill:#2F2F2F;}
</style>
<rect y="0" class="st0" width="920.1" height="457.6"/>
<rect x="0.5" y="0.5" class="st1" width="919.1" height="456.6"/>
<path id="패스_2823" class="st2" d="M220,119h642V59H220V119z"/>
<path id="패스_2826" class="st3" d="M220,259h642v-60H220V259z"/>
<path id="패스_2829" class="st3" d="M220,329h642v-60H220V329z"/>
<path id="패스_2832" class="st3" d="M220,399h642v-60H220V399z"/>
<path id="패스_2835" class="st4" d="M220,189h208v-60H220V189z"/>
<path id="패스_2838" class="st4" d="M436.6,189h208v-60h-208L436.6,189L436.6,189z"/>
<path id="패스_2841" class="st4" d="M654.1,189h208v-60h-208V189z"/>
<path id="패스_2844" class="st5" d="M158.4,142.8v-37.9"/>
<path id="패스_2845" class="st5" d="M166.9,133.6l-8.6,9.2l-8.6-9.2"/>
<path id="패스_2846" class="st5" d="M158.4,400.6v-85.2"/>
<path id="패스_3204" class="st5" d="M158.4,277.9v-36"/>
<path id="패스_2847" class="st5" d="M166.9,391.4l-8.6,9.2l-8.6-9.2"/>
<path id="패스_2848" class="st5" d="M166,173.7v36.4"/>
<path id="패스_2849" class="st5" d="M157.4,182.9l8.6-9.2l8.6,9.2"/>
<path id="패스_2850" class="st5" d="M150.7,210.1v-36.9"/>
<path id="패스_2851" class="st5" d="M159.3,200.9l-8.6,9.2l-8.6-9.2"/>
<g class="st6">
	<path class="st7" d="M65.2,188.3c-2.8,0.4-6,0.5-8.3,0.5l-0.1-1.1c0.5,0,1.2,0,1.8,0V183h-1.4v-1.1h7.6v1.1h-1.4v4.6
		c0.6,0,1.3-0.1,1.9-0.2L65.2,188.3z M68.6,192.6c0,1.7-1.8,2.6-4.8,2.6c-3,0-4.8-0.9-4.8-2.6c0-1.6,1.8-2.6,4.8-2.6
		C66.7,190,68.6,190.9,68.6,192.6z M59.8,187.7c0.7,0,1.4,0,2.2-0.1V183h-2.2V187.7z M67.3,192.6c0-1-1.3-1.6-3.5-1.6
		c-2.2,0-3.5,0.6-3.5,1.6c0,1,1.3,1.6,3.5,1.6C66,194.1,67.3,193.6,67.3,192.6z M67.2,187h-2.4V186h2.4v-1.5h-2.4v-1.1h2.4v-2.5h1.3
		v8.8h-1.3V187z"/>
	<path class="st7" d="M78.7,182.4c0,4.1-1.9,7.8-6.5,10.1l-0.7-1c3.7-1.8,5.6-4.6,5.9-8h-5.3v-1.1H78.7z M84.8,187.7h-2.3v7.4h-1.3
		v-14.4h1.3v5.8h2.3V187.7z"/>
	<path class="st7" d="M97.2,187.6h-6.7v-5.9h6.7V187.6z M97.6,191.1c0,1.4,2.2,2.8,4.7,3.1l-0.4,1c-2.2-0.3-4.1-1.3-4.9-2.6
		c-0.9,1.4-2.8,2.3-5,2.6l-0.4-1c2.4-0.3,4.7-1.6,4.8-3.1h-4.2v-1h4.2v-1.4h1.3v1.4h4.2v1H97.6z M95.9,182.8h-4.1v3.8h4.1V182.8z
		 M101.5,189.1h-1.3v-8.2h1.3V189.1z"/>
	<path class="st7" d="M121,187.7v1.1h-13v-1.1H121z M119.8,186.5c-2.2-0.4-4.3-1.5-5.2-3.1c-0.9,1.6-3,2.8-5.3,3.1l-0.5-1
		c2.6-0.4,5.1-1.9,5.1-3.8v-0.6h1.3v0.6c0,1.8,2.5,3.4,5.1,3.8L119.8,186.5z M119.4,192.6c0,1.6-1.8,2.6-4.9,2.6
		c-3.1,0-4.9-0.9-4.9-2.6c0-1.6,1.9-2.5,4.9-2.5C117.6,190.1,119.4,191,119.4,192.6z M118.1,192.6c0-1-1.3-1.5-3.6-1.5
		c-2.3,0-3.6,0.6-3.6,1.5c0,1,1.3,1.5,3.6,1.5C116.8,194.2,118.1,193.6,118.1,192.6z"/>
	<path class="st7" d="M126.8,188.9c-2.1,0-3.7-1.5-3.7-3.6c0-2.1,1.6-3.5,3.7-3.5c2.1,0,3.8,1.5,3.8,3.5
		C130.6,187.4,128.9,188.9,126.8,188.9z M126.8,187.8c1.4,0,2.5-1,2.5-2.4c0-1.4-1.1-2.4-2.5-2.4c-1.4,0-2.4,1-2.4,2.4
		C124.4,186.8,125.4,187.8,126.8,187.8z M135,193.8v1.1h-9.7v-4.6h1.3v3.5H135z M134.5,191.3h-1.3v-10.5h1.3V191.3z"/>
</g>
<g class="st6">
	<path class="st7" d="M158.4,162.3v1.1h-13v-1.1h5.8v-3.1h-4.3v-7.3h1.3v2.6h7.3v-2.6h1.3v7.3h-4.3v3.1H158.4z M148.2,158.1h7.3
		v-2.6h-7.3V158.1z"/>
	<path class="st7" d="M173.1,162.1v1.1h-13v-1.1h5V157h1.3v5.1H173.1z M170.3,153.3h-8.8v-1.1h10.1v1.4c0,1.8,0,3.7-0.5,6.6
		l-1.3-0.1c0.5-2.8,0.5-4.8,0.5-6.5V153.3z"/>
</g>
<g class="st6">
	<path class="st7" d="M158.4,231.3v1.1h-13v-1.1h5.8v-3.1h-4.3v-7.3h1.3v2.6h7.3v-2.6h1.3v7.3h-4.3v3.1H158.4z M148.2,227.1h7.3
		v-2.6h-7.3V227.1z"/>
	<path class="st7" d="M173.1,231.1v1.1h-13v-1.1h5V226h1.3v5.1H173.1z M170.3,222.3h-8.8v-1.1h10.1v1.4c0,1.8,0,3.7-0.5,6.6
		l-1.3-0.1c0.5-2.8,0.5-4.8,0.5-6.5V222.3z"/>
</g>
<g class="st6">
	<path class="st7" d="M158.4,301.3v1.1h-13v-1.1h5.8v-3.1h-4.3v-7.3h1.3v2.6h7.3v-2.6h1.3v7.3h-4.3v3.1H158.4z M148.2,297.1h7.3
		v-2.6h-7.3V297.1z"/>
	<path class="st7" d="M173.1,301.1v1.1h-13v-1.1h5V296h1.3v5.1H173.1z M170.3,292.3h-8.8v-1.1h10.1v1.4c0,1.8,0,3.7-0.5,6.6
		l-1.3-0.1c0.5-2.8,0.5-4.8,0.5-6.5V292.3z"/>
</g>
<g class="st6">
	<path class="st7" d="M123.7,92.6c2.4,0,4.5-0.1,7-0.5l0.1,1.1c-2.6,0.4-4.8,0.5-7.2,0.5h-1.2v-5.5h5.3v-3h-5.3v-1.1h6.7v5.1h-5.3
		V92.6z M133.3,82.8v14.4H132V82.8H133.3z"/>
	<path class="st7" d="M149.3,94.2v1.1h-13v-1.1H149.3z M148,91.1c-2.2-0.5-4.4-2-5.3-4.1c-0.9,2.1-3.2,3.6-5.3,4.1l-0.6-1.1
		c2.5-0.5,5.2-2.7,5.2-5.1v-1.1h1.4v1.1c0,2.4,2.7,4.6,5.2,5.1L148,91.1z"/>
	<path class="st7" d="M164,94.1v1.1h-13v-1.1H164z M161.1,88.3c0-0.8,0-1.5,0-2.2v-0.7h-8.6v-1.1h9.8V86c0,2.1,0,4.1-0.6,7l-1.3-0.1
		c0.3-1.4,0.5-2.6,0.6-3.7l-8.7,0.5l-0.2-1.1L161.1,88.3z"/>
	<path class="st7" d="M173.3,90.9c-2.1,0-3.7-1.5-3.7-3.6c0-2.1,1.6-3.5,3.7-3.5c2.1,0,3.8,1.5,3.8,3.5
		C177.1,89.4,175.5,90.9,173.3,90.9z M173.3,89.8c1.4,0,2.5-1,2.5-2.4c0-1.4-1.1-2.4-2.5-2.4c-1.4,0-2.4,1-2.4,2.4
		C170.9,88.8,172,89.8,173.3,89.8z M181.5,95.8v1.1h-9.7v-4.6h1.3v3.5H181.5z M181.1,93.3h-1.3V82.8h1.3V93.3z"/>
	<path class="st7" d="M189.1,87.2c0,2.4,1.7,4.9,3.8,5.8l-0.7,1.1c-1.7-0.8-3.1-2.4-3.8-4.4c-0.7,2.1-2.1,3.9-3.7,4.7l-0.8-1.1
		c2.1-1,3.8-3.7,3.8-6.2v-1.8h-3.3v-1.1h8v1.1h-3.4V87.2z M195.8,82.8v14.3h-1.3V82.8H195.8z"/>
</g>
<g class="st6">
	<path class="st4" d="M512.8,86.8c-1.7-0.5-2.9-1.6-3.5-3.1c-0.7,1.6-1.9,2.8-3.6,3.3l-0.8-1.3c2.3-0.8,3.6-2.6,3.6-4.6v-1.1h1.7
		v1.1c0,1.9,1.3,3.6,3.5,4.3L512.8,86.8z M517.2,92.8v1.3h-9.9v-3.8h7.8v-1.2h-7.8v-1.3h9.5v3.7h-7.8v1.3H517.2z M516.7,87.2h-1.7
		v-7.4h1.7V87.2z"/>
	<path class="st4" d="M532.6,89.3h-5.8v4.9h-1.6v-4.9h-5.7V88h13.1V89.3z M531,86.2h-9.9v-5.7h9.9V86.2z M529.4,81.8h-6.6v3.1h6.6
		V81.8z"/>
	<path class="st4" d="M542.7,86.8c-1.9,0.4-3.6,0.5-6.7,0.5h-1.2v-6.5h6.4V82h-4.8v3.9c2.7,0,4.3-0.1,6-0.5L542.7,86.8z M536.3,88.6
		h9.2V94h-9.2V88.6z M538,92.7h6v-2.8h-6V92.7z M547.6,84.5h-2v3.4h-1.6v-8.2h1.6v3.4h2V84.5z"/>
	<path class="st4" d="M557.5,86.8c-1.9,0.4-3.6,0.5-6.7,0.5h-1.2v-6.5h6.4v1.3h-4.8v3.8c2.8,0,4.3-0.1,6.1-0.5L557.5,86.8z
		 M560.4,91.4c0,1.8-1.9,2.9-4.8,2.9c-3,0-4.8-1.1-4.8-2.9c0-1.8,1.9-2.8,4.8-2.8C558.6,88.5,560.4,89.6,560.4,91.4z M558.8,91.4
		c0-1-1.2-1.5-3.2-1.5c-2,0-3.2,0.5-3.2,1.5c0,1,1.2,1.5,3.2,1.5C557.6,92.9,558.8,92.3,558.8,91.4z M562.3,83.4v1.4h-2v3.5h-1.7
		v-8.5h1.7v3.6H562.3z"/>
	<path class="st4" d="M568.8,84c0,2.2,1.4,4.8,3.6,5.8l-0.9,1.3c-1.6-0.8-2.8-2.4-3.5-4.2c-0.6,2-1.9,3.7-3.6,4.6l-0.9-1.3
		c2.2-1.1,3.7-3.8,3.7-6.2v-1.4H564v-1.4h7.9v1.4h-3.1V84z M577.2,86.8h-2.3v7.4h-1.6V79.8h1.6v5.7h2.3V86.8z"/>
</g>
<g class="st6">
	<path class="st8" d="M273.5,159.2c1.3,0,2.7-0.1,4.2-0.4l0.2,1.4c-1.9,0.4-3.6,0.4-5.1,0.4h-1v-9.1h1.6V159.2z M283.5,149.8v14.5
		h-1.6v-7.3h-1.7v6.6h-1.6v-13.4h1.6v5.5h1.7v-5.7H283.5z"/>
	<path class="st8" d="M299,159.6h-5.8v4.7h-1.6v-4.7h-5.7v-1.3H299V159.6z M297.4,156.7h-9.9v-6.3h1.6v1.8h6.6v-1.8h1.6V156.7z
		 M295.7,153.5h-6.6v1.8h6.6V153.5z"/>
	<path class="st8" d="M306.2,160.2c1.3-0.1,2.6-0.2,3.8-0.3l0.1,1.2c-3.2,0.5-6.6,0.6-9.2,0.6l-0.2-1.4c1.2,0,2.5,0,3.8,0v-1.4
		c-1.6-0.3-2.7-1.2-2.7-2.6c0-1.6,1.4-2.7,3.5-2.7c2.1,0,3.5,1.1,3.5,2.7c0,1.4-1.1,2.4-2.7,2.6V160.2z M309.7,152.8H301v-1.3h3.6
		v-1.6h1.6v1.6h3.5V152.8z M305.4,157.6c1.2,0,2-0.5,2-1.4c0-0.9-0.8-1.4-2-1.4c-1.2,0-2,0.5-2,1.4
		C303.4,157.1,304.2,157.6,305.4,157.6z M312.5,149.8v14.5h-1.7v-14.5H312.5z"/>
	<path class="st8" d="M323.2,150.1h1.5v13.4h-1.5v-4.9h-2.4v-1.3h2.4V155h-2.1c-0.7,2.4-2.2,4.5-4.9,6.1l-0.9-1.2
		c3-1.8,4.4-4.2,4.7-7.1h-4v-1.3h5.6c0,0.7,0,1.5-0.2,2.1h1.8V150.1z M327.7,149.8v14.5h-1.6v-14.5H327.7z"/>
	<path class="st8" d="M342.6,157.9c-3,0.5-6.4,0.6-8.9,0.6l-0.2-1.3c0.9,0,1.9,0,2.9,0v-3h1.6v2.9c1.5-0.1,3.1-0.2,4.5-0.4
		L342.6,157.9z M339.7,155.8c0.3-1.6,0.3-2.7,0.4-3.6h-5.7v-1.3h7.3v0.8c0,1,0,2.4-0.4,4.3L339.7,155.8z M337.3,162.6h8.2v1.3h-9.8
		v-4.3h1.7V162.6z M347,154.4v1.4H345v4.9h-1.7v-10.9h1.7v4.6H347z"/>
	<path class="st8" d="M350.9,159.5c2.3,0,4.3-0.1,6.6-0.5l0.2,1.3c-2.5,0.4-4.6,0.5-7.2,0.5h-1.2v-5.7h5v-2.7h-5.1v-1.3h6.7v5.4h-5
		V159.5z M360.3,149.7v14.5h-1.7v-14.5H360.3z"/>
	<path class="st8" d="M368.1,154c0,2.2,1.4,4.8,3.6,5.8l-0.9,1.3c-1.6-0.8-2.8-2.4-3.5-4.2c-0.6,2-1.9,3.7-3.6,4.6l-0.9-1.3
		c2.2-1.1,3.7-3.8,3.7-6.2v-1.4h-3.2v-1.4h7.9v1.4h-3.1V154z M376.5,156.8h-2.3v7.4h-1.6v-14.5h1.6v5.7h2.3V156.8z"/>
</g>
<g class="st6">
	<path class="st8" d="M513.9,159.4c1.7,0,3-0.1,4.5-0.4l0.1,1.4c-1.7,0.3-3.2,0.4-5.3,0.4h-1v-9.3h5.3v1.3h-3.7V159.4z M524.1,149.8
		v14.5h-1.6v-7.4h-1.7v6.7h-1.6v-13.4h1.6v5.4h1.7v-5.7H524.1z"/>
	<path class="st8" d="M539.6,161.2v1.4h-13.1v-1.4h3.4v-3.1h-2.3v-1.3h2.1v-4.4h-2.1V151h10.9v1.3h-2.1v4.4h2.1v1.3h-2.3v3.1H539.6z
		 M531.4,156.8h3.3v-4.4h-3.3V156.8z M531.6,161.2h2.8v-3.1h-2.8V161.2z"/>
	<path class="st8" d="M549.2,155.9c0,3.1-1.6,5.1-3.7,5.1c-2.1,0-3.7-2-3.7-5.1c0-3.1,1.6-5.1,3.7-5.1
		C547.6,150.8,549.2,152.8,549.2,155.9z M543.3,155.9c0,2.3,0.9,3.6,2.1,3.6c1.3,0,2.1-1.4,2.1-3.6c0-2.2-0.9-3.6-2.1-3.6
		C544.2,152.3,543.3,153.7,543.3,155.9z M553.1,149.8v14.5h-1.7v-14.5H553.1z"/>
	<path class="st8" d="M561,153.3c0,2.6,1.3,5.2,3.5,6.3l-1,1.3c-1.6-0.8-2.7-2.4-3.3-4.3c-0.6,2-1.8,3.7-3.5,4.5l-1-1.3
		c2.3-1.1,3.7-3.8,3.7-6.5V151h1.6V153.3z M569.4,156.9h-2.3v7.4h-1.6v-14.5h1.6v5.7h2.3V156.9z"/>
</g>
<g class="st6">
	<path class="st8" d="M735,157.1v1.3h-5.6v2.7h-1.6v-2.7h-5.9v-1.3H735z M722.6,154.9c2.7-0.3,4.6-1.7,4.7-3.1h-4.2v-1.3h10.7v1.3
		h-4.2c0.1,1.5,2,2.8,4.7,3.1l-0.6,1.3c-2.5-0.3-4.5-1.5-5.2-3.1c-0.8,1.6-2.7,2.8-5.2,3.1L722.6,154.9z M725.1,162.6h8.4v1.3h-10.1
		v-4.1h1.6V162.6z"/>
	<path class="st8" d="M748.6,149.8v7.9h-1.6v-3.1h-3v2.6h-6.7v-6.7h1.6v2h3.4v-2h1.6v2.7h3v-3.5L748.6,149.8z M742.3,153.8h-3.4v2
		h3.4V153.8z M746.9,158.4h1.6v5.7h-9.4v-5.7h1.6v1.5h6.1V158.4z M746.9,161.2h-6.1v1.5h6.1V161.2z"/>
	<path class="st8" d="M756.7,154c0,2.4,1.5,4.9,3.7,5.9l-0.9,1.3c-1.7-0.7-3-2.3-3.6-4.2c-0.6,2-1.9,3.7-3.6,4.5l-0.9-1.3
		c2.2-1,3.7-3.7,3.7-6.2v-1.4h-3.2v-1.4h8.1v1.4h-3.2V154z M763.2,149.8v14.5h-1.7v-14.5H763.2z"/>
	<path class="st8" d="M770,157.6c-1.4,0.1-2.7,0.1-3.8,0.1l-0.2-1.3c2.7,0,6.2,0,9.3-0.4l0.1,1.2c-1.2,0.2-2.5,0.3-3.7,0.4v2.8H770
		V157.6z M767.1,152.9c0-1.5,1.5-2.5,3.6-2.5c2.1,0,3.6,1,3.6,2.5c0,1.5-1.5,2.5-3.6,2.5C768.5,155.4,767.1,154.4,767.1,152.9z
		 M778.4,162.6v1.3h-10.4v-4.3h1.6v2.9H778.4z M768.6,152.9c0,0.8,0.8,1.3,2,1.3c1.2,0,2-0.5,2-1.3s-0.8-1.3-2-1.3
		C769.5,151.5,768.6,152.1,768.6,152.9z M776.4,158.3v-8.5h1.6v11h-1.6v-1.3h-2.8v-1.2H776.4z"/>
	<path class="st8" d="M784.9,158c-2.2,0-3.8-1.5-3.8-3.6c0-2.1,1.7-3.6,3.8-3.6c2.2,0,3.8,1.5,3.8,3.6
		C788.7,156.5,787.1,158,784.9,158z M784.9,156.5c1.3,0,2.2-0.9,2.2-2.2c0-1.3-1-2.2-2.2-2.2c-1.3,0-2.2,0.9-2.2,2.2
		C782.7,155.7,783.6,156.5,784.9,156.5z M793.1,162.6v1.3h-9.9v-4.7h1.7v3.4H793.1z M792.7,160.3H791v-10.5h1.6V160.3z"/>
</g>
<g class="st6">
	<path class="st9" d="M512.1,219.7c0,3.6-2.5,6.2-6.8,7.4l-0.5-1c3.5-0.9,5.6-2.8,5.9-5.3h-5.2v-1.1H512.1z M507,227.6h9v5.3h-9
		V227.6z M508.3,231.9h6.5v-3.2h-6.5V231.9z M518.1,223.4H516v3.6h-1.3v-8.2h1.3v3.5h2.1V223.4z"/>
	<path class="st9" d="M524.4,222.7c0,2.5,1.6,5.1,3.6,6.1l-0.8,1c-1.5-0.8-2.8-2.5-3.5-4.5c-0.6,2.1-2,3.9-3.6,4.8l-0.8-1.1
		c2.1-1.1,3.7-3.8,3.7-6.4v-2.6h1.3V222.7z M533,225.7h-2.4v7.4h-1.3v-14.3h1.3v5.8h2.4V225.7z"/>
	<path class="st9" d="M543.8,227.1c-1.4,0.2-2.8,0.4-4.1,0.5v5.2h-1.3v-5.1c-1.4,0.1-2.8,0.1-4,0.1l-0.2-1.1c2.7,0,6.3,0,9.5-0.5
		L543.8,227.1z M535.3,222.5c0-1.8,1.5-3,3.7-3c2.1,0,3.6,1.2,3.6,3c0,1.7-1.5,2.9-3.6,2.9C536.9,225.4,535.3,224.2,535.3,222.5z
		 M536.6,222.5c0,1.1,1,1.9,2.4,1.9c1.4,0,2.4-0.8,2.4-1.9c0-1.1-1-1.9-2.4-1.9C537.6,220.6,536.6,221.3,536.6,222.5z M546.1,218.8
		v14.4h-1.3v-14.4H546.1z"/>
	<path class="st9" d="M553.1,226.5c-1.4,0.1-2.8,0.1-4,0.1l-0.2-1.1c2.7,0,6.2,0,9.3-0.4l0.1,0.9c-1.3,0.2-2.6,0.3-3.9,0.4v2.8h-1.3
		V226.5z M550.1,221.9c0-1.5,1.4-2.5,3.5-2.5c2.1,0,3.5,1,3.5,2.5c0,1.5-1.4,2.5-3.5,2.5C551.5,224.4,550.1,223.4,550.1,221.9z
		 M561.1,231.8v1.1H551v-4.2h1.3v3.1H561.1z M551.3,221.9c0,0.9,0.9,1.5,2.3,1.5c1.4,0,2.3-0.6,2.3-1.5c0-0.9-0.9-1.5-2.3-1.5
		C552.3,220.4,551.3,221,551.3,221.9z M559.5,227.3v-8.5h1.3v10.9h-1.3v-1.5h-2.9v-1H559.5z"/>
	<path class="st9" d="M569.2,229.2c1.4-0.1,2.8-0.2,4.1-0.3l0.1,1c-3.2,0.5-6.7,0.6-9.3,0.6l-0.2-1.1c1.2,0,2.6,0,4-0.1v-1.5
		c-1.7-0.2-2.8-1.2-2.8-2.6c0-1.6,1.4-2.7,3.5-2.7s3.4,1,3.4,2.7c0,1.4-1.1,2.4-2.8,2.6V229.2z M572.9,221.6h-8.7v-1.1h3.7v-1.8h1.3
		v1.8h3.7V221.6z M568.5,226.8c1.3,0,2.2-0.6,2.2-1.6c0-1-0.9-1.6-2.2-1.6c-1.3,0-2.2,0.6-2.2,1.6
		C566.3,226.1,567.2,226.8,568.5,226.8z M575.4,218.8v14.4h-1.3v-14.4H575.4z"/>
</g>
<g class="st6">
	<path class="st9" d="M527.5,294.9c0,3.1-1.5,5-3.6,5s-3.6-2-3.6-5c0-3.1,1.5-5,3.6-5S527.5,291.9,527.5,294.9z M521.4,294.9
		c0,2.3,1,3.8,2.4,3.8c1.4,0,2.4-1.5,2.4-3.8c0-2.3-1-3.8-2.4-3.8C522.4,291.1,521.4,292.6,521.4,294.9z M531.4,288.8v14.4h-1.3
		v-14.4H531.4z"/>
	<path class="st9" d="M539.2,292.7c0,2.5,1.6,5.1,3.6,6.1l-0.8,1c-1.5-0.8-2.8-2.5-3.5-4.5c-0.6,2.1-2,3.9-3.6,4.8l-0.8-1.1
		c2.1-1.1,3.7-3.8,3.7-6.4v-2.6h1.3V292.7z M547.8,295.7h-2.4v7.4h-1.3v-14.3h1.3v5.8h2.4V295.7z"/>
	<path class="st9" d="M554.5,299.2c1.4-0.1,2.8-0.2,4.1-0.3l0.1,1c-3.2,0.5-6.7,0.6-9.3,0.6l-0.2-1.1c1.2,0,2.6,0,4-0.1v-1.5
		c-1.7-0.2-2.8-1.2-2.8-2.6c0-1.6,1.4-2.7,3.5-2.7s3.4,1,3.4,2.7c0,1.4-1.1,2.4-2.8,2.6V299.2z M558.2,291.6h-8.7v-1.1h3.7v-1.8h1.3
		v1.8h3.7V291.6z M553.9,296.8c1.3,0,2.2-0.6,2.2-1.6c0-1-0.9-1.6-2.2-1.6c-1.3,0-2.2,0.6-2.2,1.6
		C551.6,296.1,552.5,296.8,553.9,296.8z M560.8,288.8v14.4h-1.3v-14.4H560.8z"/>
</g>
<g class="st6">
	<path class="st9" d="M525.3,368.1h-5.9v5.1h-1.3v-5.1h-5.8V367h13L525.3,368.1z M513,364.8c2.5-0.4,5-2,5-3.9v-0.1h-4.5v-1.1H524
		v1.1h-4.5v0.1c0,1.9,2.5,3.5,5,3.9l-0.5,1c-2.2-0.4-4.4-1.6-5.2-3.3c-0.9,1.7-3,2.9-5.2,3.3L513,364.8z"/>
	<path class="st9" d="M540,368.1h-5.9v5.1h-1.3v-5.1H527V367h13L540,368.1z M527.8,364.8c2.5-0.4,5-2,5-3.9v-0.1h-4.5v-1.1h10.5v1.1
		h-4.5v0.1c0,1.9,2.5,3.5,5,3.9l-0.5,1c-2.2-0.4-4.4-1.6-5.2-3.3c-0.9,1.7-3,2.9-5.2,3.3L527.8,364.8z"/>
	<path class="st9" d="M554.7,366.3v1.1h-13v-1.1h5.8v-1.8h1.3v1.8H554.7z M542.5,364.2c2.7-0.2,4.9-1.3,5-2.9H543v-1h4.5v-1.5h1.3
		v1.5h4.5v1h-4.4c0.1,1.6,2.3,2.7,5,2.9l-0.4,1c-2.4-0.3-4.5-1.1-5.3-2.5c-0.9,1.4-3,2.3-5.3,2.5L542.5,364.2z M553.1,370.8
		c0,1.6-1.8,2.4-4.9,2.4c-3.1,0-4.9-0.8-4.9-2.4s1.8-2.4,4.9-2.4C551.3,368.4,553.1,369.2,553.1,370.8z M551.8,370.8
		c0-0.9-1.3-1.4-3.6-1.4c-2.3,0-3.6,0.5-3.6,1.4s1.3,1.4,3.6,1.4C550.5,372.2,551.8,371.7,551.8,370.8z"/>
	<path class="st9" d="M561.8,369.2c1.4-0.1,2.8-0.2,4.1-0.3l0.1,1c-3.2,0.5-6.7,0.6-9.3,0.6l-0.2-1.1c1.2,0,2.6,0,4-0.1v-1.5
		c-1.7-0.2-2.8-1.2-2.8-2.6c0-1.6,1.4-2.7,3.5-2.7s3.4,1,3.4,2.7c0,1.4-1.1,2.4-2.8,2.6V369.2z M565.5,361.6h-8.7v-1.1h3.7v-1.8h1.3
		v1.8h3.7V361.6z M561.2,366.8c1.3,0,2.2-0.6,2.2-1.6c0-1-0.9-1.6-2.2-1.6c-1.3,0-2.2,0.6-2.2,1.6
		C559,366.1,559.9,366.8,561.2,366.8z M568.1,358.8v14.4h-1.3v-14.4H568.1z"/>
</g>
</svg>
