<?xml version="1.0" encoding="utf-8"?>
<!-- Generator: Adobe Illustrator 25.1.0, SVG Export Plug-In . SVG Version: 6.00 Build 0)  -->
<svg version="1.1" id="레이어_1" xmlns="http://www.w3.org/2000/svg" xmlns:xlink="http://www.w3.org/1999/xlink" x="0px"
	 y="0px" viewBox="0 0 924 523.1" style="enable-background:new 0 0 924 523.1;" xml:space="preserve">
<style type="text/css">
	.st0{fill:#E3F4FA;}
	.st1{fill:#FFFFFF;}
	.st2{fill:none;stroke:#2AA6D3;stroke-linecap:round;stroke-linejoin:round;stroke-dasharray:0,1.101;}
	.st3{fill:#2AA6D3;}
	.st4{enable-background:new    ;}
	.st5{fill:#434343;}
</style>
<g id="그룹_5372" transform="translate(-740 -1228)">
	<path id="패스_2891" class="st0" d="M740,1427.1h924v-90H740V1427.1z"/>
	<path id="패스_2891-2" class="st0" d="M740,1535.1h924v-90H740V1535.1z"/>
	<path id="패스_2891-3" class="st0" d="M740,1643.1h924v-90H740V1643.1z"/>
	<path id="패스_2891-4" class="st0" d="M740,1751.1h924v-90H740V1751.1z"/>
	<path id="패스_2891-5" class="st0" d="M740,1318h924v-90H740V1318z"/>
	<path id="패스_2865" class="st1" d="M772.1,1265.9h4.5v-1h-2.7l1-0.9c1.1-1,1.6-1.7,1.6-2.8c0-1-0.7-2-2.4-2
		c-0.7,0-1.4,0.2-2,0.5l0.4,0.9c0.4-0.2,0.8-0.4,1.3-0.4c0.8,0,1.3,0.3,1.3,1.1c0,0.7-0.3,1.2-1.3,2.1l-1.8,1.7V1265.9z"/>
	<path id="패스_2871" class="st1" d="M783.4,1374.8l1.6-2.2v2.2H783.4z M785,1377h1.3v-1.2h0.9v-1h-0.9v-4.4h-0.9l-3.4,4.6v0.8h3
		V1377z"/>
	<path id="패스_2876" class="st2" d="M785.5,1289.3v408"/>
	<path id="패스_2878" class="st3" d="M770,1289.1h30v-30h-30V1289.1z"/>
	<g class="st4">
		<path class="st5" d="M828.9,1261.1c0-3.8,2.1-6.1,5-6.1s5,2.3,5,6.1s-2.1,6.1-5,6.1S828.9,1264.9,828.9,1261.1z M837.4,1261.1
			c0-2.9-1.4-4.8-3.5-4.8c-2.1,0-3.5,1.8-3.5,4.8c0,2.9,1.4,4.8,3.5,4.8C836,1265.9,837.4,1264,837.4,1261.1z"/>
		<path class="st5" d="M840.8,1261.1c0-3.8,2.2-6.1,5.2-6.1c1.4,0,2.5,0.7,3.2,1.5l-0.8,1c-0.6-0.7-1.4-1.1-2.4-1.1
			c-2.2,0-3.7,1.8-3.7,4.8c0,3,1.4,4.8,3.6,4.8c1.1,0,2-0.5,2.7-1.3l0.8,0.9c-0.9,1.1-2.1,1.7-3.6,1.7
			C843,1267.2,840.8,1265,840.8,1261.1z"/>
		<path class="st5" d="M851.7,1255.3h1.5v11.7h-1.5V1255.3z"/>
	</g>
	<g class="st4">
		<path class="st5" d="M862.9,1255.4c0,4.1-1.9,7.8-6.5,10.1l-0.7-1c3.7-1.8,5.6-4.6,5.9-8h-5.3v-1.1H862.9z M869,1260.7h-2.3v7.4
			h-1.3v-14.4h1.3v5.8h2.3V1260.7z"/>
		<path class="st5" d="M878.7,1257.7c0,2.5,1.6,5.1,3.6,6.1l-0.8,1c-1.5-0.8-2.8-2.5-3.5-4.5c-0.6,2.1-2,3.9-3.6,4.8l-0.8-1.1
			c2.1-1.1,3.7-3.8,3.7-6.4v-2.6h1.3V1257.7z M887.3,1260.7H885v7.4h-1.3v-14.3h1.3v5.8h2.4V1260.7z"/>
		<path class="st5" d="M900.5,1253.8v7.7h-1.3v-3.2h-2.9c-0.3,1.7-1.7,2.8-3.7,2.8c-2.1,0-3.7-1.3-3.7-3.3c0-2,1.6-3.3,3.7-3.3
			c1.9,0,3.4,1.1,3.6,2.8h2.9v-3.4H900.5z M895,1257.8c0-1.3-1-2.2-2.4-2.2c-1.4,0-2.4,0.9-2.4,2.2s1,2.2,2.4,2.2
			C894,1260.1,895,1259.1,895,1257.8z M899.2,1262.2h1.3v5.7h-9.2v-5.7h1.3v1.8h6.6V1262.2z M899.2,1265.1h-6.6v1.9h6.6V1265.1z"/>
		<path class="st5" d="M916.3,1260v1.1h-13v-1.1H916.3z M904.8,1256.6c0-1.6,1.9-2.5,5-2.5s5,0.9,5,2.5c0,1.6-1.9,2.5-5,2.5
			S904.8,1258.2,904.8,1256.6z M906.2,1267h8.9v1H905v-3.4h8.4v-1.3h-8.5v-1h9.8v3.2h-8.4V1267z M906.1,1256.6c0,1,1.3,1.5,3.7,1.5
			s3.7-0.5,3.7-1.5c0-1-1.3-1.5-3.7-1.5S906.1,1255.6,906.1,1256.6z"/>
		<path class="st5" d="M928.5,1260.3c-0.7,0.8-1.7,1.2-2.9,1.2c-2.1,0-3.7-1.4-3.7-3.4c0-2,1.6-3.4,3.7-3.4c1.2,0,2.2,0.5,2.9,1.2
			h3.7v-2.1h1.3v8.5h-1.3v-2H928.5z M925.6,1260.4c1.4,0,2.4-1,2.4-2.3c0-1.3-1-2.3-2.4-2.3c-1.4,0-2.4,1-2.4,2.3
			C923.1,1259.4,924.2,1260.4,925.6,1260.4z M933.5,1265.4c0,1.7-1.8,2.8-4.8,2.8c-2.9,0-4.8-1-4.8-2.8c0-1.7,1.8-2.8,4.8-2.8
			C931.7,1262.7,933.5,1263.7,933.5,1265.4z M932.2,1265.4c0-1.1-1.3-1.7-3.5-1.7c-2.2,0-3.5,0.6-3.5,1.7c0,1.1,1.3,1.7,3.5,1.7
			C930.9,1267.1,932.2,1266.5,932.2,1265.4z M929.1,1257c0.1,0.3,0.2,0.7,0.2,1.1c0,0.4-0.1,0.8-0.2,1.1h3.1v-2.2H929.1z"/>
		<path class="st5" d="M945.9,1262.1c-1.4,0.2-2.8,0.4-4.1,0.5v5.2h-1.3v-5.1c-1.4,0.1-2.8,0.1-4,0.1l-0.2-1.1c2.7,0,6.3,0,9.5-0.5
			L945.9,1262.1z M937.4,1257.5c0-1.8,1.5-3,3.7-3c2.1,0,3.6,1.2,3.6,3c0,1.7-1.5,2.9-3.6,2.9
			C938.9,1260.4,937.4,1259.2,937.4,1257.5z M938.7,1257.5c0,1.1,1,1.9,2.4,1.9c1.4,0,2.4-0.8,2.4-1.9c0-1.1-1-1.9-2.4-1.9
			C939.7,1255.6,938.7,1256.3,938.7,1257.5z M948.2,1253.8v14.4h-1.3v-14.4H948.2z"/>
		<path class="st5" d="M959.6,1256.4h-8.5v-1.1h3.6v-1.6h1.3v1.6h3.6V1256.4z M955.4,1262.2c-2,0-3.4-1-3.4-2.5
			c0-1.6,1.4-2.6,3.4-2.6s3.4,1,3.4,2.6C958.8,1261.2,957.4,1262.2,955.4,1262.2z M955.4,1261.3c1.3,0,2.2-0.6,2.2-1.6
			c0-0.9-0.9-1.6-2.2-1.6s-2.2,0.6-2.2,1.6C953.2,1260.6,954.1,1261.3,955.4,1261.3z M953.2,1263.3h9v4.7h-9V1263.3z M954.5,1266.9
			h6.4v-2.6h-6.4V1266.9z M964.4,1258.7h-2.1v3.7h-1.3v-8.6h1.3v3.8h2.1V1258.7z"/>
		<path class="st5" d="M973.9,1254.1h1.2v13.3h-1.2v-7h-1.8c-0.1,2.8-1.3,4.5-3,4.5c-1.9,0-3.1-1.9-3.1-5c0-3.1,1.2-5,3.1-5
			c1.7,0,2.9,1.7,3,4.4h1.8V1254.1z M970.9,1260c0-2.3-0.7-3.8-1.9-3.8c-1.2,0-1.9,1.5-1.9,3.8c0,2.4,0.7,3.8,1.9,3.8
			C970.2,1263.8,970.9,1262.4,970.9,1260z M978,1253.8v14.4h-1.2v-14.4H978z"/>
		<path class="st5" d="M984.5,1258c0-2,1.6-3.3,3.7-3.3c2.2,0,3.8,1.4,3.8,3.3c0,2-1.6,3.3-3.8,3.3
			C986,1261.4,984.5,1260,984.5,1258z M994.3,1263.4c0,1.5,1.1,3,2.9,3.6l-0.7,1c-1.4-0.5-2.4-1.5-2.9-2.7c-0.4,1.2-1.3,2.3-2.7,2.8
			c-1.4-0.5-2.2-1.6-2.7-2.8c-0.5,1.2-1.5,2.1-2.8,2.7l-0.7-1c1.8-0.6,2.9-2.2,2.9-3.6v-0.8h1.3v0.8c0,1.3,0.7,2.6,2,3.4
			c1.4-0.8,2.1-2.3,2.1-3.4v-0.8h1.3V1263.4z M985.7,1258c0,1.3,1,2.3,2.4,2.3c1.4,0,2.5-0.9,2.5-2.3c0-1.3-1.1-2.3-2.5-2.3
			C986.8,1255.8,985.7,1256.7,985.7,1258z M995.9,1262h-1.3v-8.2h1.3V1262z"/>
		<path class="st5" d="M1010.7,1253.8v14.4h-1.3v-7.8h-3.1c-0.1,2.8-1.6,4.6-3.6,4.6c-2.1,0-3.6-2-3.6-5c0-3.1,1.5-5,3.6-5
			c1.9,0,3.3,1.7,3.6,4.4h3.1v-5.5H1010.7z M1005,1259.9c0-2.3-1-3.8-2.3-3.8c-1.4,0-2.3,1.5-2.3,3.8c0,2.3,1,3.8,2.3,3.8
			C1004,1263.8,1005,1262.3,1005,1259.9z"/>
		<path class="st5" d="M1021.2,1261.9c-2.1,0-3.7-1.5-3.7-3.6c0-2.1,1.6-3.5,3.7-3.5c2.1,0,3.8,1.5,3.8,3.5
			C1025,1260.4,1023.4,1261.9,1021.2,1261.9z M1021.2,1260.8c1.4,0,2.5-1,2.5-2.4c0-1.4-1.1-2.4-2.5-2.4c-1.4,0-2.4,1-2.4,2.4
			C1018.8,1259.8,1019.8,1260.8,1021.2,1260.8z M1029.4,1266.8v1.1h-9.7v-4.6h1.3v3.5H1029.4z M1028.9,1264.3h-1.3v-10.5h1.3V1264.3
			z"/>
		<path class="st5" d="M1035.8,1260.5c-1.4,0.1-2.7,0.1-3.9,0.1l-0.2-1.1c1.8,0,4.1,0,6.4-0.2c0.3-1.6,0.3-2.7,0.4-3.6h-5.4v-1.1
			h6.7v0.5c0,0.8,0,2.1-0.3,4c0.5,0,1.1-0.1,1.6-0.2l0.1,0.9c-1.3,0.2-2.7,0.4-4,0.5v3.3h-1.3V1260.5z M1044,1266.8v1.1h-10.1v-4.4
			h1.3v3.3H1044z M1042.4,1261.7v-7.8h1.3v10.8h-1.3v-2h-3.1v-1H1042.4z"/>
		<path class="st5" d="M1059.6,1265.3v1.1h-13v-1.1h5.8v-3.1h-4.3v-7.3h1.3v2.6h7.3v-2.6h1.3v7.3h-4.3v3.1H1059.6z M1049.4,1261.1
			h7.3v-2.6h-7.3V1261.1z"/>
		<path class="st5" d="M1074.3,1265.4v1.1h-13v-1.1h5.8v-2c-2.5-0.1-4.1-1.1-4.1-2.7c0-1.7,1.8-2.7,4.7-2.7c2.9,0,4.7,1,4.7,2.7
			c0,1.6-1.5,2.6-4,2.7v2H1074.3z M1073.6,1257H1062v-1.1h5.2v-1.9h1.3v1.9h5.1V1257z M1067.8,1262.4c2.1,0,3.3-0.6,3.3-1.7
			c0-1.1-1.3-1.7-3.3-1.7c-2.1,0-3.4,0.6-3.4,1.7C1064.4,1261.8,1065.7,1262.4,1067.8,1262.4z"/>
		<path class="st5" d="M1089,1260.5v1h-13v-1H1089z M1078.9,1267h9v0.9h-10.3v-3.2h8.5v-1.2h-8.5v-0.9h9.8v3.1h-8.5V1267z
			 M1086.1,1255.2h-8.4v-0.9h9.7v3h-8.4v1.2h8.6v0.9h-9.9v-3.1h8.4V1255.2z"/>
		<path class="st5" d="M1101.7,1255.4c0,4.1-1.9,7.8-6.5,10.1l-0.7-1c3.7-1.8,5.6-4.6,5.9-8h-5.3v-1.1H1101.7z M1107.7,1260.7h-2.3
			v7.4h-1.3v-14.4h1.3v5.8h2.3V1260.7z"/>
		<path class="st5" d="M1116.8,1261.8c-1.6-0.5-2.9-1.7-3.5-3.1c-0.6,1.6-1.9,2.9-3.6,3.5l-0.7-1c2.2-0.8,3.6-2.6,3.6-4.7v-0.6h-3.2
			v-1.1h7.7v1.1h-3.2v0.6c0,1.9,1.4,3.6,3.5,4.3L1116.8,1261.8z M1120.4,1265.5c0,1.7-1.8,2.7-4.7,2.7c-2.9,0-4.7-1-4.7-2.7
			c0-1.7,1.8-2.6,4.7-2.6C1118.5,1262.9,1120.4,1263.8,1120.4,1265.5z M1119,1265.5c0-1-1.3-1.6-3.4-1.6c-2.1,0-3.4,0.6-3.4,1.6
			c0,1,1.3,1.6,3.4,1.6C1117.7,1267.1,1119,1266.5,1119,1265.5z M1122.3,1257.5v1.1h-2.1v3.9h-1.3v-8.7h1.3v3.6H1122.3z"/>
		<path class="st5" d="M1134.9,1255.4c0,4.1-1.9,7.8-6.7,10.1l-0.7-1.1c3.9-1.8,5.8-4.6,6.1-8h-5.4v-1.1H1134.9z M1139.1,1253.8
			v14.4h-1.3v-14.4H1139.1z"/>
		<path class="st5" d="M1155.1,1261.7v1.1h-13v-1.1h5.9v-1.5h-4.1v-5.7h1.3v1.8h7v-1.8h1.3v5.7h-4.1v1.5H1155.1z M1145.1,1266.8h8.6
			v1.1h-9.9v-4h1.3V1266.8z M1145.1,1259.1h7v-1.8h-7V1259.1z"/>
		<path class="st5" d="M1164.6,1261.9c-1.6-0.6-2.8-1.8-3.5-3.2c-0.6,1.6-1.9,3-3.6,3.6l-0.7-1c2.1-0.8,3.6-2.7,3.6-4.7v-0.6h-3.2
			v-1.1h7.7v1.1h-3.2v0.6c0,1.8,1.4,3.6,3.5,4.4L1164.6,1261.9z M1159,1263.2h9.6v5h-1.3v-3.9h-8.3V1263.2z M1168.6,1253.8v8.6h-1.3
			v-3.8h-2.8v-1.1h2.8v-3.7H1168.6z"/>
		<path class="st5" d="M1175.6,1261.9c-2.1,0-3.7-1.5-3.7-3.6c0-2.1,1.6-3.5,3.7-3.5c2.1,0,3.8,1.5,3.8,3.5
			C1179.3,1260.4,1177.7,1261.9,1175.6,1261.9z M1175.6,1260.8c1.4,0,2.5-1,2.5-2.4c0-1.4-1.1-2.4-2.5-2.4c-1.4,0-2.4,1-2.4,2.4
			C1173.1,1259.8,1174.2,1260.8,1175.6,1260.8z M1183.7,1266.8v1.1h-9.7v-4.6h1.3v3.5H1183.7z M1183.3,1264.3h-1.3v-10.5h1.3V1264.3
			z"/>
		<path class="st5" d="M1196.4,1262c-1.4-0.6-2.4-1.6-2.9-2.9c-0.5,1.4-1.5,2.6-2.9,3.2l-0.6-1c1.8-0.8,2.9-2.5,2.9-4.3v-0.2h-2.6
			v-1.1h2.6v-1.7h1.2v1.7h2.6v1.1h-2.6v0.2c0,1.7,1.1,3.3,2.9,4L1196.4,1262z M1192.3,1263.4h9.7v4.8h-1.3v-3.7h-8.3V1263.4z
			 M1201.9,1253.8v8.8h-1.3v-3.9h-1.8v3.8h-1.2v-8.5h1.2v3.6h1.8v-3.8H1201.9z"/>
		<path class="st5" d="M1212.4,1257.9c0,2-1.6,3.3-3.8,3.3c-2.2,0-3.7-1.4-3.7-3.3c0-2,1.6-3.3,3.7-3.3
			C1210.8,1254.6,1212.4,1256,1212.4,1257.9z M1206.2,1257.9c0,1.3,1,2.3,2.4,2.3c1.4,0,2.5-0.9,2.5-2.3c0-1.3-1-2.3-2.5-2.3
			C1207.2,1255.7,1206.2,1256.6,1206.2,1257.9z M1216.3,1262.8v5.2h-9.3v-5.2H1216.3z M1208.3,1263.9v3.1h6.7v-3.1H1208.3z
			 M1216.3,1253.8v8.2h-1.3v-8.2H1216.3z"/>
		<path class="st5" d="M1232.3,1265.2v1.1h-13v-1.1H1232.3z M1231,1258.7c0,2.4-2.2,4-5.2,4s-5.2-1.6-5.2-4c0-2.4,2.2-4,5.2-4
			S1231,1256.3,1231,1258.7z M1221.8,1258.7c0,1.7,1.7,2.9,4,2.9c2.3,0,4-1.2,4-2.9c0-1.7-1.7-2.9-4-2.9
			C1223.5,1255.8,1221.8,1257,1221.8,1258.7z"/>
		<path class="st5" d="M1247,1265.3v1.1h-13v-1.1h5.8v-2.7h-4.2v-4.4h8.5v-2.2h-8.5v-1.1h9.8v4.4h-8.5v2.3h8.8v1.1h-4.6v2.7H1247z"
			/>
		<path class="st5" d="M1264.1,1253.8v14.4h-1.3v-5.6h-3.6c-0.6,1.5-1.7,2.3-3.1,2.3c-2.1,0-3.6-2-3.6-5c0-3.1,1.5-5,3.6-5
			c1.3,0,2.4,0.8,3,2.1h3.7v-3.2H1264.1z M1258.5,1259.9c0-2.3-1-3.8-2.3-3.8c-1.4,0-2.3,1.5-2.3,3.8c0,2.3,1,3.8,2.3,3.8
			C1257.5,1263.8,1258.5,1262.3,1258.5,1259.9z M1262.8,1261.6v-3.5h-3.3c0.1,0.6,0.2,1.2,0.2,1.8c0,0.6-0.1,1.1-0.2,1.6H1262.8z"/>
		<path class="st5" d="M1274.6,1255.4c0,4.1-1.9,7.8-6.7,10.1l-0.7-1.1c3.9-1.8,5.8-4.6,6.1-8h-5.4v-1.1H1274.6z M1278.8,1253.8
			v14.4h-1.3v-14.4H1278.8z"/>
		<path class="st5" d="M1294.7,1265.1v1.1h-13v-1.1h5v-5.1h1.3v5.1H1294.7z M1291.9,1256.3h-8.8v-1.1h10.1v1.4c0,1.8,0,3.7-0.5,6.6
			l-1.3-0.1c0.5-2.8,0.5-4.8,0.5-6.5V1256.3z"/>
		<path class="st5" d="M1300.4,1258c0-2,1.6-3.3,3.7-3.3c2.2,0,3.8,1.4,3.8,3.3c0,2-1.6,3.3-3.8,3.3
			C1301.9,1261.4,1300.4,1260,1300.4,1258z M1310.2,1263.4c0,1.5,1.1,3,2.9,3.6l-0.7,1c-1.4-0.5-2.4-1.5-2.9-2.7
			c-0.4,1.2-1.3,2.3-2.7,2.8c-1.4-0.5-2.2-1.6-2.7-2.8c-0.5,1.2-1.5,2.1-2.8,2.7l-0.7-1c1.8-0.6,2.9-2.2,2.9-3.6v-0.8h1.3v0.8
			c0,1.3,0.7,2.6,2,3.4c1.4-0.8,2.1-2.3,2.1-3.4v-0.8h1.3V1263.4z M1301.6,1258c0,1.3,1,2.3,2.4,2.3s2.5-0.9,2.5-2.3
			c0-1.3-1.1-2.3-2.5-2.3S1301.6,1256.7,1301.6,1258z M1311.8,1262h-1.3v-8.2h1.3V1262z"/>
		<path class="st5" d="M1327.8,1265.2v1.1h-13v-1.1H1327.8z M1326.5,1258.7c0,2.4-2.2,4-5.2,4s-5.2-1.6-5.2-4c0-2.4,2.2-4,5.2-4
			S1326.5,1256.3,1326.5,1258.7z M1317.3,1258.7c0,1.7,1.7,2.9,4,2.9c2.3,0,4-1.2,4-2.9c0-1.7-1.7-2.9-4-2.9
			C1319,1255.8,1317.3,1257,1317.3,1258.7z"/>
		<path class="st5" d="M1341.3,1253.8v14.4h-1.3v-5.9h-3.4v2.3h-6.5v-9.3h6.5v2h3.4v-3.4H1341.3z M1335.3,1256.3h-4v7.2h4V1256.3z
			 M1340,1261.2v-2.9h-3.4v2.9H1340z"/>
		<path class="st5" d="M1344.2,1269.2c1-0.4,1.6-1.2,1.6-2.2c-0.1,0-0.1,0-0.2,0c-0.6,0-1.1-0.4-1.1-1c0-0.6,0.5-1,1.1-1
			c0.8,0,1.2,0.7,1.2,1.7c0,1.5-0.9,2.7-2.3,3.3L1344.2,1269.2z"/>
	</g>
	<g class="st4">
		<path class="st5" d="M837.3,1286.7c-2,0.4-3.7,0.5-6.7,0.5h-1.1v-6.3h6.3v1.1h-5v4.2c2.8,0,4.5-0.1,6.4-0.5L837.3,1286.7z
			 M840.1,1291.4c0,1.7-1.8,2.8-4.7,2.8c-2.9,0-4.7-1-4.7-2.8c0-1.7,1.8-2.8,4.7-2.8C838.3,1288.7,840.1,1289.7,840.1,1291.4z
			 M838.9,1291.4c0-1.1-1.3-1.7-3.4-1.7c-2.1,0-3.4,0.6-3.4,1.7c0,1.1,1.3,1.7,3.4,1.7C837.5,1293.1,838.9,1292.5,838.9,1291.4z
			 M842.1,1283.6v1.1H840v3.7h-1.3v-8.5h1.3v3.7H842.1z"/>
		<path class="st5" d="M848.4,1283.7c0,2.5,1.6,5.1,3.6,6.1l-0.8,1c-1.5-0.8-2.8-2.5-3.5-4.5c-0.6,2.1-2,3.9-3.6,4.8l-0.8-1.1
			c2.1-1.1,3.7-3.8,3.7-6.4v-2.6h1.3V1283.7z M857,1286.7h-2.4v7.4h-1.3v-14.3h1.3v5.8h2.4V1286.7z"/>
		<path class="st5" d="M858.4,1290c2.6,0,6.2,0,9.3-0.5l0.1,1c-3.2,0.6-6.7,0.6-9.3,0.6L858.4,1290z M866.8,1284.3
			c0,2-1.6,3.4-3.8,3.4c-2.2,0-3.8-1.4-3.8-3.4c0-2,1.6-3.4,3.8-3.4C865.2,1280.9,866.8,1282.2,866.8,1284.3z M860.4,1284.3
			c0,1.3,1.1,2.3,2.6,2.3c1.5,0,2.6-0.9,2.6-2.3c0-1.3-1.1-2.3-2.6-2.3C861.5,1282,860.4,1282.9,860.4,1284.3z M870,1279.8v14.4
			h-1.3v-14.4H870z"/>
		<path class="st5" d="M881.4,1283.7c0,2.5,1.6,5.1,3.6,6.1l-0.8,1c-1.5-0.8-2.8-2.5-3.5-4.5c-0.6,2.1-2,3.9-3.6,4.8l-0.8-1.1
			c2.1-1.1,3.7-3.8,3.7-6.4v-2.6h1.3V1283.7z M890,1286.7h-2.4v7.4h-1.3v-14.3h1.3v5.8h2.4V1286.7z"/>
		<path class="st5" d="M903.1,1279.8v7.7h-1.3v-3.2h-2.9c-0.3,1.7-1.7,2.8-3.7,2.8c-2.1,0-3.7-1.3-3.7-3.3c0-2,1.6-3.3,3.7-3.3
			c1.9,0,3.4,1.1,3.6,2.8h2.9v-3.4H903.1z M897.7,1283.8c0-1.3-1-2.2-2.4-2.2c-1.4,0-2.4,0.9-2.4,2.2s1,2.2,2.4,2.2
			C896.7,1286.1,897.7,1285.1,897.7,1283.8z M901.8,1288.2h1.3v5.7H894v-5.7h1.3v1.8h6.6V1288.2z M901.8,1291.1h-6.6v1.9h6.6V1291.1
			z"/>
		<path class="st5" d="M913.7,1287.8c-1.6-0.5-2.9-1.7-3.5-3.1c-0.6,1.6-1.9,2.9-3.6,3.5l-0.7-1c2.2-0.8,3.6-2.6,3.6-4.7v-0.6h-3.2
			v-1.1h7.7v1.1h-3.2v0.6c0,1.9,1.4,3.6,3.5,4.3L913.7,1287.8z M917.3,1291.5c0,1.7-1.8,2.7-4.7,2.7c-2.9,0-4.7-1-4.7-2.7
			c0-1.7,1.8-2.6,4.7-2.6C915.5,1288.9,917.3,1289.8,917.3,1291.5z M916,1291.5c0-1-1.3-1.6-3.4-1.6c-2.1,0-3.4,0.6-3.4,1.6
			c0,1,1.3,1.6,3.4,1.6C914.7,1293.1,916,1292.5,916,1291.5z M919.3,1283.5v1.1h-2.1v3.9h-1.3v-8.7h1.3v3.6H919.3z"/>
		<path class="st5" d="M926.4,1289.3c1.4,0,2.9-0.1,4.6-0.4l0.1,1.1c-1.9,0.4-3.6,0.4-5.1,0.4H925v-8.9h1.3V1289.3z M936.5,1279.8
			v14.3h-1.3v-7.4h-2v6.7H932v-13.3h1.2v5.5h2v-5.8H936.5z"/>
		<path class="st5" d="M950.5,1283.9c0,2-1.6,3.3-3.8,3.3c-2.2,0-3.7-1.4-3.7-3.3c0-2,1.6-3.3,3.7-3.3
			C948.9,1280.6,950.5,1282,950.5,1283.9z M944.3,1283.9c0,1.3,1,2.3,2.4,2.3c1.4,0,2.5-0.9,2.5-2.3c0-1.3-1-2.3-2.5-2.3
			C945.3,1281.7,944.3,1282.6,944.3,1283.9z M954.4,1288.8v5.2h-9.3v-5.2H954.4z M946.4,1289.9v3.1h6.7v-3.1H946.4z M954.4,1279.8
			v8.2h-1.3v-8.2H954.4z"/>
		<path class="st5" d="M965.5,1287.9c-1.6-0.6-3-1.8-3.6-3.3c-0.6,1.6-1.9,2.9-3.6,3.5l-0.7-1c2.2-0.8,3.6-2.6,3.6-4.7v-0.6h-3.3
			v-1.1h7.9v1.1h-3.2v0.6c0,1.9,1.5,3.7,3.6,4.4L965.5,1287.9z M959.5,1289.3h9.6v4.9h-1.3v-3.9h-8.3V1289.3z M969.1,1279.8v8.7
			h-1.3v-8.7H969.1z"/>
		<path class="st5" d="M976.2,1287.5c-1.4,0.1-2.8,0.1-4,0.1l-0.2-1.1c2.7,0,6.2,0,9.3-0.4l0.1,0.9c-1.3,0.2-2.6,0.3-3.9,0.4v2.8
			h-1.3V1287.5z M973.1,1282.9c0-1.5,1.4-2.5,3.5-2.5c2.1,0,3.5,1,3.5,2.5c0,1.5-1.4,2.5-3.5,2.5
			C974.6,1285.4,973.1,1284.4,973.1,1282.9z M984.2,1292.8v1.1H974v-4.2h1.3v3.1H984.2z M974.4,1282.9c0,0.9,0.9,1.5,2.3,1.5
			c1.4,0,2.3-0.6,2.3-1.5c0-0.9-0.9-1.5-2.3-1.5C975.3,1281.4,974.4,1282,974.4,1282.9z M982.5,1288.3v-8.5h1.3v10.9h-1.3v-1.5h-2.9
			v-1H982.5z"/>
		<path class="st5" d="M999.8,1287.5v1.1h-5.7v2.8h-1.3v-2.8h-6v-1.1H999.8z M992.8,1286.1H988v-5.8h1.2v1.8h2.3v-1.8h1.2V1286.1z
			 M989.7,1292.9h8.6v1.1h-9.9v-3.9h1.3V1292.9z M991.5,1283.1h-2.3v1.9h2.3V1283.1z M998.6,1286.1h-4.8v-5.8h1.2v1.8h2.3v-1.8h1.2
			V1286.1z M997.3,1283.1h-2.3v1.9h2.3V1283.1z"/>
		<path class="st5" d="M1008.7,1287.8h-6.6v-6.6h6.6V1287.8z M1007.4,1282.2h-4v4.5h4V1282.2z M1005,1292.8h8.3v1.1h-9.6v-4.5h1.3
			V1292.8z M1014.8,1284.2v1.1h-2.1v5h-1.3v-10.5h1.3v4.4H1014.8z"/>
		<path class="st5" d="M1027.3,1285.9c0,3.1-1.5,5-3.6,5s-3.6-2-3.6-5c0-3.1,1.5-5,3.6-5S1027.3,1282.9,1027.3,1285.9z M1026,1285.9
			c0-2.3-1-3.8-2.4-3.8c-1.4,0-2.4,1.5-2.4,3.8c0,2.3,1,3.8,2.4,3.8C1025,1289.8,1026,1288.3,1026,1285.9z M1033.2,1286.7h-2.4v7.5
			h-1.3v-14.3h1.3v5.7h2.4V1286.7z"/>
		<path class="st5" d="M1036.8,1289.4c2.2,0,4.4-0.2,6.8-0.7l0.1,1.1c-2.5,0.5-4.8,0.7-7,0.7h-1.2v-9.3h1.3V1289.4z M1046.3,1279.8
			v14.3h-1.3v-14.3H1046.3z"/>
		<path class="st5" d="M1051.1,1289.6c2.6,0,4.5-0.1,6.6-0.5l0.1,1.1c-2.2,0.4-4.2,0.5-6.9,0.5h-1.1v-5.5h5.2v-3h-5.2v-1.1h6.5v5.2
			h-5.2V1289.6z M1062.7,1286.6h-2.4v7.6h-1.3v-14.4h1.3v5.7h2.4V1286.6z"/>
		<path class="st5" d="M1064,1295.2c1-0.4,1.6-1.2,1.6-2.2c-0.1,0-0.1,0-0.2,0c-0.6,0-1.1-0.4-1.1-1c0-0.6,0.5-1,1.1-1
			c0.8,0,1.2,0.7,1.2,1.7c0,1.5-0.9,2.7-2.3,3.3L1064,1295.2z"/>
		<path class="st5" d="M1085,1291.1v1.1h-13v-1.1h5v-5.1h1.3v5.1H1085z M1082.1,1282.3h-8.8v-1.1h10.1v1.4c0,1.8,0,3.7-0.5,6.6
			l-1.3-0.1c0.5-2.8,0.5-4.8,0.5-6.5V1282.3z"/>
		<path class="st5" d="M1093,1280.9c0,3.4-1.9,6-5.5,7.5l-0.6-1c2.9-1.2,4.6-3.1,4.8-5.5h-4.3v-1.1H1093z M1089.2,1289h9.7v5.2h-1.3
			v-4.1h-8.3V1289z M1098.9,1279.8v8.4h-1.3v-3.8h-1.9v3.7h-1.2v-8.1h1.2v3.3h1.9v-3.6H1098.9z"/>
		<path class="st5" d="M1101.5,1295.2c1-0.4,1.6-1.2,1.6-2.2c-0.1,0-0.1,0-0.2,0c-0.6,0-1.1-0.4-1.1-1c0-0.6,0.5-1,1.1-1
			c0.8,0,1.2,0.7,1.2,1.7c0,1.5-0.9,2.7-2.3,3.3L1101.5,1295.2z"/>
		<path class="st5" d="M1117.6,1282.3h-8v-1.1h3.4v-1.6h1.3v1.6h3.3V1282.3z M1113.6,1288.2c-1.9,0-3.2-1-3.2-2.6s1.3-2.6,3.2-2.6
			c1.9,0,3.2,1,3.2,2.6S1115.5,1288.2,1113.6,1288.2z M1113.6,1287.2c1.2,0,2-0.6,2-1.6c0-1-0.8-1.6-2-1.6c-1.2,0-2,0.6-2,1.6
			C1111.6,1286.6,1112.4,1287.2,1113.6,1287.2z M1120,1289h1.3v5h-9.3v-5h1.3v1.5h6.7V1289z M1120,1291.4h-6.7v1.5h6.7V1291.4z
			 M1121.3,1279.8v8.5h-1.3v-1.3h-2.4v-1.1h2.4v-1.7h-2.4v-1.1h2.4v-3.3H1121.3z"/>
		<path class="st5" d="M1131.9,1287.7c-1.8,0.3-3.2,0.4-6.1,0.4h-1v-4.3h4.9v-2h-4.9v-1.1h6.2v4.1h-4.9v2.2c2.7,0,4-0.1,5.7-0.3
			L1131.9,1287.7z M1126.4,1289.4h9.6v4.8h-1.3v-3.7h-8.3V1289.4z M1136,1279.8v8.8h-1.3v-2.7h-2.8v-1.1h2.8v-1.9h-2.8v-1.1h2.8
			v-2.1H1136z"/>
		<path class="st5" d="M1144.3,1290.2c1.4-0.1,2.8-0.2,4.1-0.3l0.1,1c-3.2,0.5-6.7,0.6-9.3,0.6l-0.2-1.1c1.2,0,2.6,0,4-0.1v-1.5
			c-1.7-0.2-2.8-1.2-2.8-2.6c0-1.6,1.4-2.7,3.5-2.7s3.4,1,3.4,2.7c0,1.4-1.1,2.4-2.8,2.6V1290.2z M1148,1282.6h-8.7v-1.1h3.7v-1.7
			h1.3v1.7h3.7V1282.6z M1143.7,1287.8c1.3,0,2.2-0.6,2.2-1.6c0-1-0.9-1.6-2.2-1.6c-1.3,0-2.2,0.6-2.2,1.6
			C1141.5,1287.1,1142.4,1287.8,1143.7,1287.8z M1150.6,1279.8v14.3h-1.3v-14.3H1150.6z"/>
		<path class="st5" d="M1158.5,1283.7c0,2.5,1.6,5.1,3.6,6.1l-0.8,1c-1.5-0.8-2.8-2.5-3.5-4.5c-0.6,2.1-2,3.9-3.6,4.8l-0.8-1.1
			c2.1-1.1,3.7-3.8,3.7-6.4v-2.6h1.3V1283.7z M1167.1,1286.7h-2.4v7.4h-1.3v-14.3h1.3v5.8h2.4V1286.7z"/>
		<path class="st5" d="M1179.4,1286.6h-6.7v-5.9h6.7V1286.6z M1179.8,1290.1c0,1.4,2.3,2.8,4.7,3.1l-0.4,1c-2.2-0.3-4.1-1.3-4.9-2.6
			c-0.9,1.4-2.8,2.3-5,2.6l-0.4-1c2.4-0.3,4.7-1.6,4.8-3.1h-4.2v-1h4.2v-1.4h1.3v1.4h4.2v1H1179.8z M1178.1,1281.8h-4.1v3.8h4.1
			V1281.8z M1183.7,1288.1h-1.3v-8.2h1.3V1288.1z"/>
		<path class="st5" d="M1195.4,1284.2c0,2.4,1.7,4.9,3.8,5.8l-0.7,1.1c-1.7-0.8-3.1-2.4-3.8-4.4c-0.7,2.1-2.1,3.9-3.7,4.7l-0.8-1.1
			c2.1-1,3.8-3.7,3.8-6.2v-1.8h-3.3v-1.1h8v1.1h-3.4V1284.2z M1202,1279.8v14.3h-1.3v-14.3H1202z"/>
		<path class="st5" d="M1216.8,1279.8v8.5h-1.3v-2.1h-3.6c-0.7,0.8-1.7,1.3-3,1.3c-2.1,0-3.7-1.4-3.7-3.5c0-2,1.6-3.4,3.7-3.4
			c1.2,0,2.3,0.5,3,1.3h3.6v-2.1L1216.8,1279.8z M1211.3,1284.1c0-1.3-1-2.3-2.4-2.3c-1.4,0-2.4,1-2.4,2.3c0,1.4,1,2.4,2.4,2.4
			C1210.3,1286.4,1211.3,1285.4,1211.3,1284.1z M1207.2,1289.1h9.6v5.1h-1.3v-4h-8.3V1289.1z M1215.5,1285.2v-2.2h-3.1
			c0.1,0.3,0.2,0.7,0.2,1.1c0,0.4-0.1,0.8-0.2,1.1H1215.5z"/>
		<path class="st5" d="M1224.5,1283.7c0,2.5,1.6,5.1,3.6,6.1l-0.8,1c-1.5-0.8-2.8-2.5-3.5-4.5c-0.6,2.1-2,3.9-3.6,4.8l-0.8-1.1
			c2.1-1.1,3.7-3.8,3.7-6.4v-2.6h1.3V1283.7z M1233.1,1286.7h-2.4v7.4h-1.3v-14.3h1.3v5.8h2.4V1286.7z"/>
		<path class="st5" d="M1239.8,1290.2c1.4-0.1,2.8-0.2,4.1-0.3l0.1,1c-3.2,0.5-6.7,0.6-9.3,0.6l-0.2-1.1c1.2,0,2.6,0,4-0.1v-1.5
			c-1.7-0.2-2.8-1.2-2.8-2.6c0-1.6,1.4-2.7,3.5-2.7s3.4,1,3.4,2.7c0,1.4-1.1,2.4-2.8,2.6V1290.2z M1243.5,1282.6h-8.7v-1.1h3.7v-1.7
			h1.3v1.7h3.7V1282.6z M1239.2,1287.8c1.3,0,2.2-0.6,2.2-1.6c0-1-0.9-1.6-2.2-1.6c-1.3,0-2.2,0.6-2.2,1.6
			C1237,1287.1,1237.9,1287.8,1239.2,1287.8z M1246.1,1279.8v14.3h-1.3v-14.3H1246.1z"/>
		<path class="st5" d="M1257.2,1280.1h1.2v13.3h-1.2v-7h-1.8c-0.1,2.8-1.3,4.5-3,4.5c-1.9,0-3.1-1.9-3.1-5c0-3.1,1.2-5,3.1-5
			c1.7,0,2.9,1.7,3,4.4h1.8V1280.1z M1254.2,1286c0-2.3-0.7-3.8-1.9-3.8c-1.2,0-1.9,1.5-1.9,3.8c0,2.4,0.7,3.8,1.9,3.8
			C1253.5,1289.8,1254.2,1288.4,1254.2,1286z M1261.3,1279.8v14.4h-1.2v-14.4H1261.3z"/>
		<path class="st5" d="M1269.2,1289.6c1.9,0,3.3-0.1,4.8-0.4l0.1,1.1c-1.7,0.4-3.2,0.4-5.3,0.4h-0.9v-9.1h5.3v1.1h-4V1289.6z
			 M1279.6,1279.8v14.4h-1.3v-7.5h-2v6.8h-1.2v-13.3h1.2v5.4h2v-5.8H1279.6z"/>
		<path class="st5" d="M1286.4,1282.3h2.9v1.1h-7.1v-1.1h2.9v-2h1.3V1282.3z M1288.8,1287.6c0,2-1.3,3.3-3.1,3.3
			c-1.8,0-3.1-1.3-3.1-3.3c0-1.9,1.3-3.3,3.1-3.3C1287.5,1284.3,1288.8,1285.7,1288.8,1287.6z M1287.6,1287.6c0-1.2-0.8-2.2-1.9-2.2
			c-1.1,0-1.9,0.9-1.9,2.2c0,1.3,0.8,2.2,1.9,2.2C1286.8,1289.8,1287.6,1288.9,1287.6,1287.6z M1294.3,1279.8v14.4h-1.3v-7.2h-1.8
			v6.5h-1.2v-13.3h1.2v5.7h1.8v-6.1H1294.3z"/>
		<path class="st5" d="M1301.9,1283.6c0,2.6,1.6,5.2,3.7,6.2l-0.8,1c-1.6-0.8-2.9-2.5-3.6-4.5c-0.6,2.1-2,3.9-3.6,4.8l-0.8-1
			c2.1-1,3.7-3.8,3.7-6.5v-2.6h1.3V1283.6z M1308.7,1279.8v14.4h-1.3v-8.4h-3.3v-1.1h3.3v-4.9H1308.7z"/>
		<path class="st5" d="M1324.6,1291.3v1.1h-13v-1.1h5.8v-3.7h-4.2v-6.6h9.7v1.1h-8.4v4.5h8.6v1.1h-4.4v3.7H1324.6z"/>
		<path class="st5" d="M1342.9,1286.9v1.1h-13v-1.1h5.8v-1.7h-4.2v-4.8h9.7v1.1h-8.4v2.7h8.5v1.1h-4.3v1.7H1342.9z M1341.3,1291.6
			c0,1.7-1.9,2.6-4.9,2.6c-3.1,0-4.9-0.9-4.9-2.6c0-1.7,1.9-2.6,4.9-2.6C1339.4,1289,1341.3,1289.9,1341.3,1291.6z M1340,1291.6
			c0-1-1.3-1.6-3.6-1.6c-2.3,0-3.6,0.6-3.6,1.6c0,1,1.3,1.6,3.6,1.6C1338.6,1293.2,1340,1292.6,1340,1291.6z"/>
		<path class="st5" d="M1357.6,1286.7v1.1h-13v-1.1H1357.6z M1356,1291.6c0,1.7-1.9,2.6-4.9,2.6s-4.9-0.9-4.9-2.6
			c0-1.7,1.9-2.6,4.9-2.6S1356,1289.9,1356,1291.6z M1356.1,1285.3h-9.8v-4.9h9.7v1.1h-8.4v2.8h8.5V1285.3z M1354.7,1291.6
			c0-1-1.3-1.6-3.6-1.6s-3.6,0.6-3.6,1.6c0,1,1.3,1.6,3.6,1.6C1353.3,1293.1,1354.7,1292.6,1354.7,1291.6z"/>
		<path class="st5" d="M1364.2,1282.1h3.5v1.1h-8.5v-1.1h3.6v-2.1h1.3V1282.1z M1367.1,1287.7c0,2-1.5,3.3-3.5,3.3
			c-2,0-3.5-1.3-3.5-3.3c0-1.9,1.5-3.3,3.5-3.3C1365.6,1284.4,1367.1,1285.7,1367.1,1287.7z M1365.8,1287.7c0-1.3-0.9-2.2-2.3-2.2
			c-1.3,0-2.2,0.9-2.2,2.2c0,1.3,0.9,2.2,2.2,2.2C1364.9,1289.9,1365.8,1289,1365.8,1287.7z M1372.8,1286.8h-2.4v7.3h-1.3v-14.3h1.3
			v5.9h2.4V1286.8z"/>
		<path class="st5" d="M1382,1280.2h1.2v13.3h-1.2v-6.7h-2.9c-0.9,1.7-2.2,3.2-4.2,4.3l-0.8-0.9c3.1-1.8,4.6-4.4,4.8-7.4h-4.2v-1.1
			h5.5c0,1.4-0.2,2.8-0.7,4h2.5V1280.2z M1386.3,1279.8v14.4h-1.2v-14.4H1386.3z"/>
		<path class="st5" d="M1400.2,1285.9c0,3.1-1.5,5-3.6,5s-3.6-2-3.6-5c0-3.1,1.5-5,3.6-5S1400.2,1282.9,1400.2,1285.9z
			 M1394.1,1285.9c0,2.3,1,3.8,2.4,3.8c1.4,0,2.4-1.5,2.4-3.8c0-2.3-1-3.8-2.4-3.8C1395.1,1282.1,1394.1,1283.6,1394.1,1285.9z
			 M1404.1,1279.8v14.4h-1.3v-14.4H1404.1z"/>
		<path class="st5" d="M1420.1,1286.5v1h-13v-1H1420.1z M1410,1293h9v0.9h-10.3v-3.2h8.5v-1.2h-8.5v-0.9h9.8v3.1h-8.5V1293z
			 M1417.1,1281.2h-8.4v-0.9h9.7v3h-8.4v1.2h8.6v0.9h-9.9v-3.1h8.4V1281.2z"/>
		<path class="st5" d="M1433.2,1287.9c-1.6-0.6-2.8-1.8-3.5-3.2c-0.6,1.6-1.9,3-3.6,3.6l-0.7-1c2.1-0.8,3.6-2.7,3.6-4.7v-0.6h-3.2
			v-1.1h7.7v1.1h-3.2v0.6c0,1.8,1.4,3.6,3.5,4.4L1433.2,1287.9z M1427.6,1289.2h9.6v5h-1.3v-3.9h-8.3V1289.2z M1437.2,1279.8v8.6
			h-1.3v-3.8h-2.8v-1.1h2.8v-3.7H1437.2z"/>
		<path class="st5" d="M1453.1,1286.9v1.1h-13v-1.1h3.2v-2c-1.1-0.5-1.8-1.2-1.8-2.2c0-1.7,1.9-2.7,5-2.7c3.1,0,5,1,5,2.7
			c0,1-0.6,1.7-1.7,2.1v2H1453.1z M1451.5,1291.6c0,1.6-1.8,2.5-4.9,2.5c-3.1,0-4.9-0.9-4.9-2.5c0-1.6,1.8-2.6,4.9-2.6
			C1449.7,1289.1,1451.5,1290,1451.5,1291.6z M1446.6,1284.4c2.3,0,3.7-0.6,3.7-1.6c0-1-1.4-1.6-3.7-1.6s-3.7,0.6-3.7,1.6
			C1442.9,1283.8,1444.3,1284.4,1446.6,1284.4z M1450.2,1291.6c0-1-1.3-1.5-3.6-1.5c-2.3,0-3.6,0.6-3.6,1.5c0,1,1.3,1.5,3.6,1.5
			C1448.8,1293.2,1450.2,1292.6,1450.2,1291.6z M1444.6,1286.9h4v-1.7c-0.6,0.1-1.3,0.2-2,0.2c-0.7,0-1.4-0.1-2-0.2V1286.9z"/>
		<path class="st5" d="M1463.3,1282.4h-8.5v-1.1h3.6v-1.6h1.3v1.6h3.6V1282.4z M1459.1,1288.1c-2,0-3.4-1-3.4-2.5
			c0-1.5,1.4-2.5,3.4-2.5s3.4,1,3.4,2.5C1462.5,1287.1,1461.2,1288.1,1459.1,1288.1z M1459.1,1287.1c1.3,0,2.2-0.6,2.2-1.5
			c0-0.9-0.9-1.5-2.2-1.5s-2.2,0.6-2.2,1.5C1456.9,1286.5,1457.8,1287.1,1459.1,1287.1z M1464.7,1288.8h1.3v5.2h-9v-5.2h1.3v1.5h6.4
			V1288.8z M1464.7,1291.4h-6.4v1.6h6.4V1291.4z M1468.1,1284.6h-2.1v3.6h-1.3v-8.3h1.3v3.6h2.1V1284.6z"/>
		<path class="st5" d="M1471.8,1289.4c2.2,0,4.4-0.2,6.8-0.7l0.1,1.1c-2.5,0.5-4.8,0.7-7,0.7h-1.2v-9.3h1.3V1289.4z M1481.3,1279.8
			v14.3h-1.3v-14.3H1481.3z"/>
		<path class="st5" d="M1486.2,1289.5c2.5,0,4.4-0.1,6.5-0.5l0.1,1.1c-2.2,0.4-4.1,0.5-6.8,0.5h-1.1v-9.4h6.7v1.1h-5.4V1289.5z
			 M1497.7,1286.6h-2.4v7.6h-1.3v-14.4h1.3v5.7h2.4V1286.6z"/>
		<path class="st5" d="M1499.3,1292.1c0-0.7,0.5-1.1,1.1-1.1s1.1,0.5,1.1,1.1s-0.5,1.1-1.1,1.1S1499.3,1292.8,1499.3,1292.1z"/>
	</g>
	<g class="st4">
		<path class="st1" d="M782.4,1271v-2.5h4.4v11.7H784v-9.1H782.4z"/>
	</g>
	<path id="패스_2878-2" class="st3" d="M770,1397.1h30v-30h-30V1397.1z"/>
	<g class="st4">
		<path class="st5" d="M828.9,1383.2c0-3.8,2.1-6.1,5-6.1s5,2.3,5,6.1s-2.1,6.1-5,6.1S828.9,1387,828.9,1383.2z M837.4,1383.2
			c0-2.9-1.4-4.8-3.5-4.8c-2.1,0-3.5,1.8-3.5,4.8c0,2.9,1.4,4.8,3.5,4.8C836,1388,837.4,1386.1,837.4,1383.2z"/>
		<path class="st5" d="M840.8,1383.3c0-3.8,2.2-6.1,5.2-6.1c1.4,0,2.5,0.7,3.2,1.5l-0.8,1c-0.6-0.7-1.4-1.1-2.4-1.1
			c-2.2,0-3.7,1.8-3.7,4.8c0,3,1.4,4.8,3.6,4.8c1.1,0,2-0.5,2.7-1.3l0.8,0.9c-0.9,1.1-2.1,1.7-3.6,1.7
			C843,1389.3,840.8,1387.1,840.8,1383.3z"/>
		<path class="st5" d="M851.7,1377.4h1.5v11.7h-1.5V1377.4z"/>
	</g>
	<g class="st4">
		<path class="st5" d="M868.6,1383.3v1.1h-13v-1.1H868.6z M858.6,1388.9h8.6v1.1h-9.9v-4.2h1.3V1388.9z M867.1,1381.3h-9.8v-4.9h1.3
			v3.8h8.5V1381.3z"/>
		<path class="st5" d="M878.7,1379.8c0,2.5,1.6,5.1,3.6,6.1l-0.8,1c-1.5-0.8-2.8-2.5-3.5-4.5c-0.6,2.1-2,3.9-3.6,4.8l-0.8-1.1
			c2.1-1.1,3.7-3.8,3.7-6.4v-2.6h1.3V1379.8z M887.3,1382.9H885v7.4h-1.3V1376h1.3v5.8h2.4V1382.9z"/>
		<path class="st5" d="M900.5,1376v7.7h-1.3v-3.2h-2.9c-0.3,1.7-1.7,2.8-3.7,2.8c-2.1,0-3.7-1.3-3.7-3.3c0-2,1.6-3.3,3.7-3.3
			c1.9,0,3.4,1.1,3.6,2.8h2.9v-3.4H900.5z M895,1379.9c0-1.3-1-2.2-2.4-2.2c-1.4,0-2.4,0.9-2.4,2.2s1,2.2,2.4,2.2
			C894,1382.2,895,1381.2,895,1379.9z M899.2,1384.4h1.3v5.7h-9.2v-5.7h1.3v1.8h6.6V1384.4z M899.2,1387.2h-6.6v1.9h6.6V1387.2z"/>
		<path class="st5" d="M916.3,1382.1v1.1h-13v-1.1H916.3z M904.8,1378.7c0-1.6,1.9-2.5,5-2.5s5,0.9,5,2.5c0,1.6-1.9,2.5-5,2.5
			S904.8,1380.3,904.8,1378.7z M906.2,1389.1h8.9v1H905v-3.4h8.4v-1.3h-8.5v-1h9.8v3.2h-8.4V1389.1z M906.1,1378.7
			c0,1,1.3,1.5,3.7,1.5s3.7-0.5,3.7-1.5c0-1-1.3-1.5-3.7-1.5S906.1,1377.7,906.1,1378.7z"/>
		<path class="st5" d="M928.5,1382.4c-0.7,0.8-1.7,1.2-2.9,1.2c-2.1,0-3.7-1.4-3.7-3.4c0-2,1.6-3.4,3.7-3.4c1.2,0,2.2,0.5,2.9,1.2
			h3.7v-2.1h1.3v8.5h-1.3v-2H928.5z M925.6,1382.5c1.4,0,2.4-1,2.4-2.3c0-1.3-1-2.3-2.4-2.3c-1.4,0-2.4,1-2.4,2.3
			C923.1,1381.6,924.2,1382.5,925.6,1382.5z M933.5,1387.5c0,1.7-1.8,2.8-4.8,2.8c-2.9,0-4.8-1-4.8-2.8c0-1.7,1.8-2.8,4.8-2.8
			C931.7,1384.8,933.5,1385.8,933.5,1387.5z M932.2,1387.5c0-1.1-1.3-1.7-3.5-1.7c-2.2,0-3.5,0.6-3.5,1.7c0,1.1,1.3,1.7,3.5,1.7
			C930.9,1389.3,932.2,1388.6,932.2,1387.5z M929.1,1379.1c0.1,0.3,0.2,0.7,0.2,1.1c0,0.4-0.1,0.8-0.2,1.1h3.1v-2.2H929.1z"/>
		<path class="st5" d="M945.9,1384.2c-1.4,0.2-2.8,0.4-4.1,0.5v5.2h-1.3v-5.1c-1.4,0.1-2.8,0.1-4,0.1l-0.2-1.1c2.7,0,6.3,0,9.5-0.5
			L945.9,1384.2z M937.4,1379.6c0-1.8,1.5-3,3.7-3c2.1,0,3.6,1.2,3.6,3c0,1.7-1.5,2.9-3.6,2.9
			C938.9,1382.5,937.4,1381.3,937.4,1379.6z M938.7,1379.6c0,1.1,1,1.9,2.4,1.9c1.4,0,2.4-0.8,2.4-1.9c0-1.1-1-1.9-2.4-1.9
			C939.7,1377.7,938.7,1378.5,938.7,1379.6z M948.2,1376v14.4h-1.3V1376H948.2z"/>
		<path class="st5" d="M956,1378.3h3.5v1.1H951v-1.1h3.6v-2.1h1.3V1378.3z M958.8,1383.8c0,2-1.5,3.3-3.5,3.3c-2,0-3.5-1.3-3.5-3.3
			c0-1.9,1.5-3.3,3.5-3.3C957.4,1380.5,958.8,1381.9,958.8,1383.8z M957.6,1383.8c0-1.3-0.9-2.2-2.3-2.2c-1.3,0-2.2,0.9-2.2,2.2
			c0,1.3,0.9,2.2,2.2,2.2C956.6,1386,957.6,1385.1,957.6,1383.8z M964.5,1383h-2.4v7.3h-1.3V1376h1.3v5.9h2.4V1383z"/>
		<path class="st5" d="M978.8,1387.2v1.1h-13v-1.1h5v-5.1h1.3v5.1H978.8z M976,1378.5h-8.8v-1.1h10.1v1.4c0,1.8,0,3.7-0.5,6.6
			l-1.3-0.1c0.5-2.8,0.5-4.8,0.5-6.5V1378.5z"/>
		<path class="st5" d="M984.5,1380.1c0-2,1.6-3.3,3.7-3.3c2.2,0,3.8,1.4,3.8,3.3c0,2-1.6,3.3-3.8,3.3
			C986,1383.5,984.5,1382.1,984.5,1380.1z M994.3,1385.6c0,1.5,1.1,3,2.9,3.6l-0.7,1c-1.4-0.5-2.4-1.5-2.9-2.7
			c-0.4,1.2-1.3,2.3-2.7,2.8c-1.4-0.5-2.2-1.6-2.7-2.8c-0.5,1.2-1.5,2.1-2.8,2.7l-0.7-1c1.8-0.6,2.9-2.2,2.9-3.6v-0.8h1.3v0.8
			c0,1.3,0.7,2.6,2,3.4c1.4-0.8,2.1-2.3,2.1-3.4v-0.8h1.3V1385.6z M985.7,1380.1c0,1.3,1,2.3,2.4,2.3c1.4,0,2.5-0.9,2.5-2.3
			c0-1.3-1.1-2.3-2.5-2.3C986.8,1377.9,985.7,1378.8,985.7,1380.1z M995.9,1384.2h-1.3v-8.2h1.3V1384.2z"/>
		<path class="st5" d="M1011.8,1383.3v1.1h-13v-1.1H1011.8z M1001.8,1388.9h8.6v1.1h-9.9v-4.2h1.3V1388.9z M1010.4,1381.3h-9.8v-4.9
			h1.3v3.8h8.5V1381.3z"/>
		<path class="st5" d="M1030.2,1387.4v1.1h-13v-1.1h5.8v-3.5h-4.3v-6.7h9.9v6.7h-4.3v3.5H1030.2z M1020,1382.8h7.3v-4.7h-7.3V1382.8
			z"/>
		<path class="st5" d="M1044.9,1383.2v1.1h-13v-1.1H1044.9z M1043.4,1381.6h-9.9v-5.1h9.7v1.1h-8.4v2.9h8.5V1381.6z M1034.8,1388.9
			h8.6v1.1h-10v-4.2h1.3V1388.9z"/>
		<path class="st5" d="M1057.3,1382.8v2.6h4.3v4.8h-1.3v-3.8h-8.7v-1.1h4.5v-2.6h-5.8v-1.1h9.7c0.4-1.7,0.4-3,0.4-4.1h-8.4v-1.1h9.7
			v1c0,1.1,0,2.4-0.4,4.1h2v1.1H1057.3z"/>
		<path class="st5" d="M1072.2,1377.5c0,4.1-1.9,7.8-6.5,10.1l-0.7-1c3.7-1.8,5.6-4.6,5.9-8h-5.3v-1.1H1072.2z M1078.2,1382.9h-2.3
			v7.4h-1.3V1376h1.3v5.8h2.3V1382.9z"/>
		<path class="st5" d="M1090.7,1382.8h-6.7v-5.9h6.7V1382.8z M1091.1,1386.2c0,1.4,2.3,2.8,4.7,3.1l-0.4,1c-2.2-0.3-4.1-1.3-4.9-2.6
			c-0.9,1.4-2.8,2.3-5,2.6l-0.4-1c2.4-0.3,4.7-1.6,4.8-3.1h-4.2v-1h4.2v-1.4h1.3v1.4h4.2v1H1091.1z M1089.4,1377.9h-4.1v3.8h4.1
			V1377.9z M1095,1384.2h-1.3v-8.2h1.3V1384.2z"/>
		<path class="st5" d="M1106.6,1380.3c0,2.4,1.7,4.9,3.8,5.8l-0.7,1.1c-1.7-0.8-3.1-2.4-3.8-4.4c-0.7,2.1-2.1,3.9-3.7,4.7l-0.8-1.1
			c2.1-1,3.8-3.7,3.8-6.2v-1.8h-3.3v-1.1h8v1.1h-3.4V1380.3z M1113.3,1376v14.3h-1.3V1376H1113.3z"/>
		<path class="st5" d="M1128.1,1376v8.5h-1.3v-2.1h-3.6c-0.7,0.8-1.7,1.3-3,1.3c-2.1,0-3.7-1.4-3.7-3.5c0-2,1.6-3.4,3.7-3.4
			c1.2,0,2.3,0.5,3,1.3h3.6v-2.1L1128.1,1376z M1122.6,1380.2c0-1.3-1-2.3-2.4-2.3c-1.4,0-2.4,1-2.4,2.3c0,1.4,1,2.4,2.4,2.4
			C1121.5,1382.5,1122.6,1381.6,1122.6,1380.2z M1118.4,1385.2h9.6v5.1h-1.3v-4h-8.3V1385.2z M1126.7,1381.3v-2.2h-3.1
			c0.1,0.3,0.2,0.7,0.2,1.1c0,0.4-0.1,0.8-0.2,1.1H1126.7z"/>
		<path class="st5" d="M1139,1376.3h1.2v13.3h-1.2v-7h-1.8c-0.1,2.8-1.3,4.5-3,4.5c-1.9,0-3.1-1.9-3.1-5c0-3.1,1.2-5,3.1-5
			c1.7,0,2.9,1.7,3,4.4h1.8V1376.3z M1136,1382.1c0-2.3-0.7-3.8-1.9-3.8c-1.2,0-1.9,1.5-1.9,3.8c0,2.4,0.7,3.8,1.9,3.8
			C1135.3,1385.9,1136,1384.5,1136,1382.1z M1143.1,1376v14.4h-1.2V1376H1143.1z"/>
		<path class="st5" d="M1150.7,1379.8c0,2.6,1.6,5.2,3.7,6.2l-0.8,1c-1.6-0.8-2.9-2.5-3.6-4.5c-0.6,2.1-2,3.9-3.6,4.8l-0.8-1
			c2.1-1,3.7-3.8,3.7-6.5v-2.6h1.3V1379.8z M1157.5,1376v14.4h-1.3v-8.4h-3.3v-1.1h3.3v-4.9H1157.5z"/>
		<path class="st5" d="M1177,1387.4v1.1h-13v-1.1h3.2v-3.9c-1.2-0.6-1.9-1.7-1.9-3c0-2.2,2.2-3.7,5.2-3.7c3.1,0,5.2,1.4,5.2,3.7
			c0,1.3-0.7,2.3-1.9,2.9v3.9H1177z M1166.5,1380.5c0,1.6,1.6,2.7,4,2.7s4-1.1,4-2.7s-1.7-2.7-4-2.7S1166.5,1378.9,1166.5,1380.5z
			 M1168.5,1387.4h4v-3.4c-0.6,0.1-1.3,0.2-2,0.2c-0.7,0-1.4-0.1-2-0.2V1387.4z"/>
		<path class="st5" d="M1191.7,1384.1h-5.9v6.2h-1.3v-6.2h-5.8v-1.1h9.5c0.4-2.1,0.4-3.6,0.4-4.9v-0.2h-8.4v-1.1h9.6v1.2
			c0,1.3,0,2.9-0.4,4.9h2.1V1384.1z"/>
		<path class="st5" d="M1198.8,1386c1.4-0.1,2.8-0.1,4-0.3l0.1,1c-3.1,0.5-6.6,0.5-9.3,0.5l-0.2-1.1c1.2,0,2.6,0,4,0v-2.8h-2.9v-5.9
			h7.3v1.1h-6v3.8h6v1.1h-3.1V1386z M1205.1,1375.9v14.4h-1.3v-14.4H1205.1z"/>
		<path class="st5" d="M1221.1,1383.3v1.1h-13v-1.1H1221.1z M1211.1,1388.9h8.6v1.1h-9.9v-4.2h1.3V1388.9z M1219.6,1381.3h-9.8v-4.9
			h1.3v3.8h8.5V1381.3z"/>
		<path class="st5" d="M1239.5,1387.4v1.1h-13v-1.1h5.9v-3.8h-4.3v-6.4h1.3v5.3h8.6v1.1h-4.4v3.8H1239.5z"/>
		<path class="st5" d="M1254.1,1383v1.1h-13v-1.1h5.8v-1.7h-4.2v-4.8h9.7v1.1h-8.4v2.7h8.5v1.1h-4.3v1.7H1254.1z M1252.5,1387.7
			c0,1.7-1.9,2.6-4.9,2.6c-3.1,0-4.9-0.9-4.9-2.6c0-1.7,1.9-2.6,4.9-2.6C1250.7,1385.1,1252.5,1386.1,1252.5,1387.7z M1251.2,1387.7
			c0-1-1.3-1.6-3.6-1.6c-2.3,0-3.6,0.6-3.6,1.6c0,1,1.3,1.6,3.6,1.6C1249.9,1389.3,1251.2,1388.7,1251.2,1387.7z"/>
		<path class="st5" d="M1264.9,1383.9c-3,0.5-6.4,0.6-9,0.6l-0.1-1.1c0.9,0,2,0,3,0v-3.1h1.3v3.1c1.6-0.1,3.2-0.2,4.7-0.4
			L1264.9,1383.9z M1262.1,1381.9c0.3-1.6,0.4-2.9,0.4-3.8h-5.9v-1.1h7.1v0.8c0,0.9,0,2.4-0.4,4.3L1262.1,1381.9z M1259.3,1388.9
			h8.2v1.1h-9.5v-4.2h1.3V1388.9z M1269.1,1380.6v1.1h-2.1v5.1h-1.3V1376h1.3v4.7H1269.1z"/>
		<path class="st5" d="M1278.7,1376.3h1.2v13.2h-1.2v-5h-2.6v-1.1h2.6v-2.5h-2.4c-0.7,2.4-2.2,4.6-4.9,6.2l-0.8-0.9
			c3.1-1.8,4.6-4.4,4.9-7.4h-4.2v-1.1h5.5c0,0.7-0.1,1.5-0.2,2.2h2.1V1376.3z M1282.8,1376v14.3h-1.2V1376H1282.8z"/>
		<path class="st5" d="M1300.7,1376v7.8h-1.3v-3.2h-3.3v2.7h-6.5v-6.6h1.3v2.2h3.9v-2.2h1.3v2.8h3.3v-3.5H1300.7z M1294.8,1379.9
			h-3.9v2.3h3.9V1379.9z M1299.4,1384.5h1.3v5.6h-9.2v-5.6h1.3v1.7h6.6V1384.5z M1299.4,1387.3h-6.6v1.8h6.6V1387.3z"/>
		<path class="st5" d="M1316.6,1384.2h-3.4v6.1h-1.3v-6.1h-3.6v6.1h-1.3v-6.1h-3.3v-1.1h9.4c0.4-2.3,0.4-3.9,0.4-5.2h-8.3v-1.1h9.6
			v1.1c0,1.3,0,2.9-0.4,5.2h2.2V1384.2z"/>
		<path class="st5" d="M1331.3,1382.6v1h-13v-1H1331.3z M1321.2,1389.2h9v0.9h-10.3v-3.2h8.5v-1.2h-8.5v-0.9h9.8v3.1h-8.5V1389.2z
			 M1328.4,1377.3h-8.4v-0.9h9.7v3h-8.4v1.2h8.6v0.9h-9.9v-3.1h8.4V1377.3z"/>
		<path class="st5" d="M1349.6,1383.3v1.1h-5.7v2.9h-1.3v-2.9h-6v-1.1H1349.6z M1337.4,1381.2c2.5-0.3,4.9-1.8,4.9-3.5v0h-4.5v-1.1
			h10.6v1.1h-4.5v0c0,1.7,2.3,3.2,4.8,3.5l-0.5,1.1c-2.3-0.4-4.5-1.5-5.2-3.2c-0.8,1.7-2.9,2.8-5.2,3.2L1337.4,1381.2z
			 M1339.6,1388.9h8.6v1.1h-9.9v-4.1h1.3V1388.9z"/>
		<path class="st5" d="M1364.4,1385.1h-5.9v5.2h-1.3v-5.2h-5.8v-1.1h13L1364.4,1385.1z M1363.2,1382.5c-2.2-0.4-4.4-1.6-5.3-3.4
			c-0.9,1.7-3.1,3-5.3,3.4l-0.5-1.1c2.6-0.4,5.1-2.1,5.1-4.2v-0.8h1.4v0.8c0,2,2.6,3.8,5.2,4.2L1363.2,1382.5z"/>
		<path class="st5" d="M1374.6,1378.5h-8.5v-1.1h3.6v-1.6h1.3v1.6h3.6V1378.5z M1370.4,1384.2c-2,0-3.4-1-3.4-2.5
			c0-1.5,1.4-2.5,3.4-2.5s3.4,1,3.4,2.5C1373.8,1383.2,1372.4,1384.2,1370.4,1384.2z M1370.4,1383.2c1.3,0,2.2-0.6,2.2-1.5
			c0-0.9-0.9-1.5-2.2-1.5s-2.2,0.6-2.2,1.5C1368.2,1382.6,1369,1383.2,1370.4,1383.2z M1375.9,1384.9h1.3v5.2h-9v-5.2h1.3v1.5h6.4
			V1384.9z M1375.9,1387.5h-6.4v1.6h6.4V1387.5z M1379.3,1380.7h-2.1v3.6h-1.3v-8.3h1.3v3.6h2.1V1380.7z"/>
		<path class="st5" d="M1383,1385.5c2.2,0,4.4-0.2,6.8-0.7l0.1,1.1c-2.5,0.5-4.8,0.7-7,0.7h-1.2v-9.3h1.3V1385.5z M1392.6,1376v14.3
			h-1.3V1376H1392.6z"/>
		<path class="st5" d="M1397.4,1385.6c2.5,0,4.4-0.1,6.5-0.5l0.1,1.1c-2.2,0.4-4.1,0.5-6.8,0.5h-1.1v-9.4h6.7v1.1h-5.4V1385.6z
			 M1408.9,1382.7h-2.4v7.6h-1.3V1376h1.3v5.7h2.4V1382.7z"/>
		<path class="st5" d="M1410.6,1388.2c0-0.7,0.5-1.1,1.1-1.1s1.1,0.5,1.1,1.1s-0.5,1.1-1.1,1.1S1410.6,1388.9,1410.6,1388.2z"/>
	</g>
	<g class="st4">
		<path class="st1" d="M782.1,1385.5c1-0.9,1.9-1.6,2.5-2.1s1.1-1.1,1.5-1.7c0.4-0.6,0.6-1.2,0.6-1.8c0-0.4-0.1-0.8-0.3-1
			s-0.5-0.4-0.9-0.4s-0.7,0.2-1,0.5c-0.2,0.3-0.3,0.7-0.3,1.3h-2.6c0-0.9,0.2-1.7,0.6-2.3c0.4-0.6,0.9-1.1,1.5-1.3s1.3-0.4,2-0.4
			c1.3,0,2.2,0.3,2.9,1c0.6,0.7,1,1.5,1,2.5c0,1.1-0.4,2.2-1.2,3.2c-0.8,1-1.8,1.9-3,2.9h4.3v2.2h-8v-2
			C781.9,1385.6,782.1,1385.5,782.1,1385.5z"/>
	</g>
	<path id="패스_2878-3" class="st3" d="M770,1505.1h30v-30h-30V1505.1z"/>
	<g class="st4">
		<path class="st5" d="M828.9,1491.2c0-3.8,2.1-6.1,5-6.1s5,2.3,5,6.1s-2.1,6.1-5,6.1S828.9,1495,828.9,1491.2z M837.4,1491.2
			c0-2.9-1.4-4.8-3.5-4.8c-2.1,0-3.5,1.8-3.5,4.8c0,2.9,1.4,4.8,3.5,4.8C836,1496,837.4,1494.1,837.4,1491.2z"/>
		<path class="st5" d="M840.8,1491.3c0-3.8,2.2-6.1,5.2-6.1c1.4,0,2.5,0.7,3.2,1.5l-0.8,1c-0.6-0.7-1.4-1.1-2.4-1.1
			c-2.2,0-3.7,1.8-3.7,4.8c0,3,1.4,4.8,3.6,4.8c1.1,0,2-0.5,2.7-1.3l0.8,0.9c-0.9,1.1-2.1,1.7-3.6,1.7
			C843,1497.3,840.8,1495.1,840.8,1491.3z"/>
		<path class="st5" d="M851.7,1485.4h1.5v11.7h-1.5V1485.4z"/>
	</g>
	<g class="st4">
		<path class="st5" d="M868.6,1491.3v1.1h-13v-1.1H868.6z M858.6,1496.9h8.6v1.1h-9.9v-4.2h1.3V1496.9z M867.1,1489.3h-9.8v-4.9h1.3
			v3.8h8.5V1489.3z"/>
		<path class="st5" d="M881.7,1488.1c0,2-1.6,3.3-3.8,3.3c-2.2,0-3.7-1.4-3.7-3.3c0-2,1.6-3.3,3.7-3.3
			C880.2,1484.7,881.7,1486.1,881.7,1488.1z M875.5,1488.1c0,1.3,1,2.3,2.4,2.3c1.4,0,2.5-0.9,2.5-2.3c0-1.3-1-2.3-2.5-2.3
			C876.6,1485.8,875.5,1486.8,875.5,1488.1z M885.7,1492.9v5.2h-9.3v-5.2H885.7z M877.7,1494v3.1h6.7v-3.1H877.7z M885.7,1484v8.2
			h-1.3v-8.2H885.7z"/>
		<path class="st5" d="M896.8,1492c-1.6-0.6-3-1.8-3.6-3.3c-0.6,1.6-1.9,2.9-3.6,3.5l-0.7-1c2.2-0.8,3.6-2.6,3.6-4.7v-0.6h-3.3v-1.1
			h7.9v1.1h-3.2v0.6c0,1.9,1.5,3.7,3.6,4.4L896.8,1492z M890.8,1493.4h9.6v4.9h-1.3v-3.9h-8.3V1493.4z M900.4,1484v8.7h-1.3v-8.7
			H900.4z"/>
		<path class="st5" d="M907.4,1491.6c-1.4,0.1-2.8,0.1-4,0.1l-0.2-1.1c2.7,0,6.2,0,9.3-0.4l0.1,0.9c-1.3,0.2-2.6,0.3-3.9,0.4v2.8
			h-1.3V1491.6z M904.4,1487c0-1.5,1.4-2.5,3.5-2.5c2.1,0,3.5,1,3.5,2.5c0,1.5-1.4,2.5-3.5,2.5
			C905.9,1489.5,904.4,1488.6,904.4,1487z M915.5,1496.9v1.1h-10.1v-4.2h1.3v3.1H915.5z M905.7,1487c0,0.9,0.9,1.5,2.3,1.5
			c1.4,0,2.3-0.6,2.3-1.5c0-0.9-0.9-1.5-2.3-1.5C906.6,1485.5,905.7,1486.1,905.7,1487z M913.8,1492.4v-8.5h1.3v10.9h-1.3v-1.5h-2.9
			v-1H913.8z"/>
		<path class="st5" d="M918.2,1494.1c2.6,0,6.2,0,9.3-0.5l0.1,1c-3.2,0.6-6.7,0.6-9.3,0.6L918.2,1494.1z M926.6,1488.4
			c0,2-1.6,3.4-3.8,3.4c-2.2,0-3.8-1.4-3.8-3.4c0-2,1.6-3.4,3.8-3.4C925,1485,926.6,1486.4,926.6,1488.4z M920.2,1488.4
			c0,1.3,1.1,2.3,2.6,2.3c1.5,0,2.6-0.9,2.6-2.3c0-1.3-1.1-2.3-2.6-2.3C921.2,1486.1,920.2,1487,920.2,1488.4z M929.8,1484v14.4
			h-1.3V1484H929.8z"/>
		<path class="st5" d="M940.4,1492c-2.1,0-3.7-1.5-3.7-3.5c0-2.1,1.6-3.5,3.7-3.5c2.1,0,3.7,1.5,3.7,3.5
			C944.1,1490.6,942.5,1492,940.4,1492z M940.4,1490.9c1.4,0,2.5-1,2.5-2.4c0-1.4-1.1-2.4-2.5-2.4c-1.4,0-2.5,1-2.5,2.4
			C937.9,1489.9,939,1490.9,940.4,1490.9z M939.9,1496.9h8.3v1.1h-9.6v-4.5h1.3V1496.9z M949.7,1488.3v1.1h-2.1v5.1h-1.3V1484h1.3
			v4.4H949.7z"/>
		<path class="st5" d="M958.9,1492c-1.6-0.6-2.8-1.8-3.5-3.2c-0.6,1.7-1.9,3-3.6,3.6l-0.7-1c2.1-0.8,3.6-2.7,3.6-4.8v-0.5h-3.2v-1.1
			h7.7v1.1h-3.2v0.5c0,1.8,1.4,3.6,3.5,4.4L958.9,1492z M963,1495.6c0,1.7-1.8,2.7-4.8,2.7c-2.9,0-4.8-1-4.8-2.7
			c0-1.7,1.8-2.7,4.8-2.7C961.1,1493,963,1493.9,963,1495.6z M961.7,1495.6c0-1-1.3-1.7-3.5-1.7c-2.2,0-3.5,0.6-3.5,1.7
			c0,1,1.3,1.6,3.5,1.6C960.4,1497.3,961.7,1496.7,961.7,1495.6z M961.6,1487.7v-3.7h1.3v8.5h-1.3v-3.8h-2.8v-1.1H961.6z"/>
		<path class="st5" d="M973.6,1492c-1.6-0.6-2.8-1.8-3.5-3.2c-0.6,1.6-1.9,3-3.6,3.6l-0.7-1c2.1-0.8,3.6-2.7,3.6-4.7v-0.6h-3.2v-1.1
			h7.7v1.1h-3.2v0.6c0,1.8,1.4,3.6,3.5,4.4L973.6,1492z M968,1493.3h9.6v5h-1.3v-3.9H968V1493.3z M977.6,1484v8.6h-1.3v-3.8h-2.8
			v-1.1h2.8v-3.7H977.6z"/>
		<path class="st5" d="M984.6,1492c-2.1,0-3.7-1.5-3.7-3.6c0-2.1,1.6-3.5,3.7-3.5c2.1,0,3.8,1.5,3.8,3.5
			C988.4,1490.6,986.8,1492,984.6,1492z M984.6,1490.9c1.4,0,2.5-1,2.5-2.4c0-1.4-1.1-2.4-2.5-2.4c-1.4,0-2.4,1-2.4,2.4
			C982.2,1489.9,983.2,1490.9,984.6,1490.9z M992.8,1496.9v1.1h-9.7v-4.6h1.3v3.5H992.8z M992.3,1494.5H991V1484h1.3V1494.5z"/>
		<path class="st5" d="M1011.8,1495.2v1.1h-13v-1.1h5v-5.1h1.3v5.1H1011.8z M1009,1486.5h-8.8v-1.1h10.1v1.4c0,1.8,0,3.7-0.5,6.6
			l-1.3-0.1c0.5-2.8,0.5-4.8,0.5-6.5V1486.5z"/>
		<path class="st5" d="M1026.5,1491.1v1.1h-13v-1.1h3.2v-2c-1.1-0.5-1.8-1.2-1.8-2.2c0-1.7,1.9-2.7,5-2.7c3.1,0,5,1,5,2.7
			c0,1-0.6,1.7-1.7,2.1v2H1026.5z M1025,1495.7c0,1.6-1.8,2.5-4.9,2.5c-3.1,0-4.9-0.9-4.9-2.5c0-1.6,1.8-2.6,4.9-2.6
			C1023.1,1493.2,1025,1494.1,1025,1495.7z M1020.1,1488.5c2.3,0,3.7-0.6,3.7-1.6c0-1-1.4-1.6-3.7-1.6s-3.7,0.6-3.7,1.6
			C1016.4,1487.9,1017.8,1488.5,1020.1,1488.5z M1023.6,1495.7c0-1-1.3-1.5-3.6-1.5c-2.3,0-3.6,0.6-3.6,1.5c0,1,1.3,1.5,3.6,1.5
			C1022.3,1497.3,1023.6,1496.7,1023.6,1495.7z M1018.1,1491.1h4v-1.7c-0.6,0.1-1.3,0.2-2,0.2c-0.7,0-1.4-0.1-2-0.2V1491.1z"/>
		<path class="st5" d="M1032.5,1494c1.6-0.1,3.2-0.1,4.6-0.3l0.1,1c-3,0.5-6.4,0.5-8.9,0.5l-0.1-1.1c0.9,0,2,0,3,0v-4.4h1.3V1494z
			 M1034.5,1491.9c0.4-2.4,0.4-4.1,0.4-5.3h-6v-1.1h7.3v0.8c0,1.2,0,3-0.4,5.7L1034.5,1491.9z M1041.6,1491.1h-2.3v7.3h-1.3V1484
			h1.3v6h2.3V1491.1z"/>
		<path class="st5" d="M1054.4,1492c-1.6-0.6-2.8-1.8-3.5-3.2c-0.6,1.6-1.9,3-3.6,3.6l-0.7-1c2.1-0.8,3.6-2.7,3.6-4.7v-0.6h-3.2
			v-1.1h7.7v1.1h-3.2v0.6c0,1.8,1.4,3.6,3.5,4.4L1054.4,1492z M1048.8,1493.3h9.6v5h-1.3v-3.9h-8.3V1493.3z M1058.4,1484v8.6h-1.3
			v-3.8h-2.8v-1.1h2.8v-3.7H1058.4z"/>
		<path class="st5" d="M1069.1,1492c-1.6-0.6-2.8-1.8-3.5-3.2c-0.6,1.7-1.9,3-3.6,3.6l-0.7-1c2.1-0.8,3.6-2.7,3.6-4.8v-0.5h-3.2
			v-1.1h7.7v1.1h-3.2v0.5c0,1.8,1.4,3.6,3.5,4.4L1069.1,1492z M1073.2,1495.6c0,1.7-1.8,2.7-4.8,2.7c-2.9,0-4.8-1-4.8-2.7
			c0-1.7,1.8-2.7,4.8-2.7C1071.3,1493,1073.2,1493.9,1073.2,1495.6z M1071.9,1495.6c0-1-1.3-1.7-3.5-1.7c-2.2,0-3.5,0.6-3.5,1.7
			c0,1,1.3,1.6,3.5,1.6C1070.6,1497.3,1071.9,1496.7,1071.9,1495.6z M1071.8,1487.7v-3.7h1.3v8.5h-1.3v-3.8h-2.8v-1.1H1071.8z"/>
		<path class="st5" d="M1087.4,1488.1c0,2-1.6,3.3-3.8,3.3c-2.2,0-3.7-1.4-3.7-3.3c0-2,1.6-3.3,3.7-3.3
			C1085.9,1484.7,1087.4,1486.1,1087.4,1488.1z M1081.2,1488.1c0,1.3,1,2.3,2.4,2.3c1.4,0,2.5-0.9,2.5-2.3c0-1.3-1-2.3-2.5-2.3
			C1082.3,1485.8,1081.2,1486.8,1081.2,1488.1z M1091.4,1492.9v5.2h-9.3v-5.2H1091.4z M1083.4,1494v3.1h6.7v-3.1H1083.4z
			 M1091.4,1484v8.2h-1.3v-8.2H1091.4z"/>
		<path class="st5" d="M1107.4,1490v1.1h-13v-1.1h9.7c0.4-1.8,0.4-3.1,0.4-4.2h-8.4v-1.1h9.7v1.1c0,1.1,0,2.4-0.4,4.2H1107.4z
			 M1095.9,1493h9.8v5.1h-9.8V1493z M1097.2,1497.1h7.2v-3h-7.2V1497.1z"/>
		<path class="st5" d="M1122,1490.1v1.1h-13v-1.1H1122z M1110.5,1486.7c0-1.6,1.9-2.5,5-2.5s5,0.9,5,2.5c0,1.6-1.9,2.5-5,2.5
			S1110.5,1488.3,1110.5,1486.7z M1111.9,1497.1h8.9v1h-10.1v-3.4h8.4v-1.3h-8.5v-1h9.8v3.2h-8.4V1497.1z M1111.8,1486.7
			c0,1,1.3,1.5,3.7,1.5s3.7-0.5,3.7-1.5c0-1-1.3-1.5-3.7-1.5S1111.8,1485.7,1111.8,1486.7z"/>
		<path class="st5" d="M1140.4,1495.4v1.1h-13v-1.1h5.8v-3.1h-4.3v-7.3h1.3v2.6h7.3v-2.6h1.3v7.3h-4.3v3.1H1140.4z M1130.2,1491.3
			h7.3v-2.6h-7.3V1491.3z"/>
		<path class="st5" d="M1149.8,1491.9c-1.6-0.5-2.9-1.7-3.5-3.1c-0.6,1.6-1.9,2.9-3.6,3.5l-0.7-1c2.2-0.8,3.6-2.6,3.6-4.7v-0.6h-3.2
			v-1.1h7.7v1.1h-3.2v0.6c0,1.9,1.4,3.6,3.5,4.3L1149.8,1491.9z M1153.4,1495.6c0,1.7-1.8,2.7-4.7,2.7c-2.9,0-4.7-1-4.7-2.7
			c0-1.7,1.8-2.6,4.7-2.6C1151.6,1493,1153.4,1494,1153.4,1495.6z M1152.1,1495.6c0-1-1.3-1.6-3.4-1.6c-2.1,0-3.4,0.6-3.4,1.6
			c0,1,1.3,1.6,3.4,1.6C1150.8,1497.3,1152.1,1496.7,1152.1,1495.6z M1155.3,1487.6v1.1h-2.1v3.9h-1.3v-8.7h1.3v3.6H1155.3z"/>
		<path class="st5" d="M1161.6,1486.3h3.5v1.1h-8.5v-1.1h3.6v-2.1h1.3V1486.3z M1164.5,1491.8c0,2-1.5,3.3-3.5,3.3
			c-2,0-3.5-1.3-3.5-3.3c0-1.9,1.5-3.3,3.5-3.3C1163.1,1488.5,1164.5,1489.9,1164.5,1491.8z M1163.3,1491.8c0-1.3-0.9-2.2-2.3-2.2
			c-1.3,0-2.2,0.9-2.2,2.2c0,1.3,0.9,2.2,2.2,2.2C1162.3,1494,1163.3,1493.1,1163.3,1491.8z M1170.2,1491h-2.4v7.3h-1.3V1484h1.3
			v5.9h2.4V1491z"/>
		<path class="st5" d="M1184.5,1495.2v1.1h-13v-1.1h5v-5.1h1.3v5.1H1184.5z M1181.7,1486.5h-8.8v-1.1h10.1v1.4c0,1.8,0,3.7-0.5,6.6
			l-1.3-0.1c0.5-2.8,0.5-4.8,0.5-6.5V1486.5z"/>
		<path class="st5" d="M1186.2,1499.3c1-0.4,1.6-1.2,1.6-2.2c-0.1,0-0.1,0-0.2,0c-0.6,0-1.1-0.4-1.1-1c0-0.6,0.5-1,1.1-1
			c0.8,0,1.2,0.7,1.2,1.7c0,1.5-0.9,2.7-2.3,3.3L1186.2,1499.3z"/>
		<path class="st5" d="M1198.3,1490.8c-2.1,0-3.7-1.3-3.7-3.2c0-1.9,1.6-3.2,3.7-3.2s3.7,1.3,3.7,3.2
			C1202,1489.6,1200.4,1490.8,1198.3,1490.8z M1198.3,1489.8c1.4,0,2.4-0.9,2.4-2.1c0-1.2-1-2.1-2.4-2.1c-1.4,0-2.4,0.9-2.4,2.1
			C1195.9,1488.9,1196.9,1489.8,1198.3,1489.8z M1206.5,1497.1v1h-9.7v-3.6h8v-1.5h-8v-1h9.3v3.5h-8v1.6H1206.5z M1206.1,1491.3
			h-1.3v-7.4h1.3V1491.3z"/>
		<path class="st5" d="M1213.8,1486.3h3.5v1.1h-8.5v-1.1h3.6v-2.1h1.3V1486.3z M1216.7,1491.8c0,2-1.5,3.3-3.5,3.3
			c-2,0-3.5-1.3-3.5-3.3c0-1.9,1.5-3.3,3.5-3.3C1215.2,1488.5,1216.7,1489.9,1216.7,1491.8z M1215.5,1491.8c0-1.3-0.9-2.2-2.3-2.2
			c-1.3,0-2.2,0.9-2.2,2.2c0,1.3,0.9,2.2,2.2,2.2C1214.5,1494,1215.5,1493.1,1215.5,1491.8z M1222.4,1491h-2.4v7.3h-1.3V1484h1.3
			v5.9h2.4V1491z"/>
		<path class="st5" d="M1231.3,1485.5c0,4.1-1.9,7.8-6.7,10.1l-0.7-1.1c3.9-1.8,5.8-4.6,6.1-8h-5.4v-1.1H1231.3z M1235.5,1484v14.4
			h-1.3V1484H1235.5z"/>
		<path class="st5" d="M1255,1489.9v1.1h-13v-1.1h5.8v-1.7h1.3v1.7H1255z M1242.7,1488.1c2.5-0.2,4.8-1.2,4.9-2.7h-4.4v-1h10.6v1
			h-4.4c0.2,1.4,2.4,2.5,4.9,2.7l-0.4,1c-2.4-0.2-4.6-1.2-5.4-2.6c-0.8,1.5-3,2.4-5.4,2.6L1242.7,1488.1z M1249.2,1492.9h4.6v1
			h-10.6v-1h4.6v-1.3h1.3V1492.9z M1252.8,1496.5c0,1.2-1.6,1.9-4.3,1.9c-2.8,0-4.3-0.6-4.3-1.9c0-1.3,1.5-1.9,4.3-1.9
			C1251.3,1494.6,1252.8,1495.3,1252.8,1496.5z M1251.5,1496.5c0-0.7-1.1-1-3-1c-1.9,0-3,0.3-3,1c0,0.6,1.1,1,3,1
			C1250.4,1497.5,1251.5,1497.2,1251.5,1496.5z"/>
		<path class="st5" d="M1269.7,1491.5v1.1h-13v-1.1H1269.7z M1258.2,1487.3c0-1.8,2-2.9,5-2.9s5,1.1,5,2.9c0,1.8-2,2.8-5,2.8
			S1258.2,1489.1,1258.2,1487.3z M1259.7,1496.9h8.6v1.1h-9.9v-4.2h1.3V1496.9z M1259.5,1487.3c0,1.1,1.4,1.8,3.7,1.8
			s3.7-0.7,3.7-1.8c0-1.1-1.4-1.8-3.7-1.8S1259.5,1486.2,1259.5,1487.3z"/>
		<path class="st5" d="M1288.1,1490.6v1.1h-13v-1.1h9.7c0.4-2,0.4-3.4,0.4-4.6v0h-8.4v-1.1h9.7v1.1c0,1.2,0,2.7-0.4,4.6H1288.1z
			 M1278,1496.9h8.8v1.1h-10.1v-4.7h1.3V1496.9z"/>
		<path class="st5" d="M1302.8,1493.4h-5.9v4.9h-1.3v-4.9h-5.8v-1.1h13V1493.4z M1301.1,1490.3h-9.7v-5.6h9.7V1490.3z
			 M1299.8,1485.8h-7.1v3.5h7.1V1485.8z"/>
		<path class="st5" d="M1313.5,1492.9c-3,0.6-6.5,0.6-9,0.6l-0.1-1.1c1.1,0,2.4,0,3.8-0.1v-1.1c-1.6-0.2-2.7-1-2.7-2.2
			c0-1.4,1.3-2.2,3.4-2.2c2,0,3.3,0.8,3.3,2.2c0,1.2-1,2-2.7,2.2v1c1.3-0.1,2.7-0.2,3.9-0.4L1313.5,1492.9z M1313,1486.3h-8.2v-1
			h3.5v-1.5h1.3v1.5h3.5V1486.3z M1307.8,1496.9h8.3v1.1h-9.6v-3.5h1.3V1496.9z M1308.9,1490.4c1.3,0,2.1-0.5,2.1-1.3
			c0-0.8-0.8-1.3-2.1-1.3c-1.3,0-2.1,0.5-2.1,1.3C1306.8,1489.9,1307.6,1490.4,1308.9,1490.4z M1317.7,1489v1.1h-2.1v5.1h-1.3V1484
			h1.3v5H1317.7z"/>
		<path class="st5" d="M1326.1,1487.7c-0.9,2.3-3.1,4-6.2,4.9l-0.5-1c3.4-1,5.6-2.9,5.8-5.4h-5.1v-1.1h6.5c0,0.5-0.1,1.1-0.2,1.6
			h3.2v-2.6h1.3v8.6h-1.3v-1.9h-3.8v-1.1h3.8v-1.9H1326.1z M1331.1,1495.5c0,1.7-1.9,2.8-4.8,2.8s-4.8-1-4.8-2.8s1.9-2.8,4.8-2.8
			S1331.1,1493.7,1331.1,1495.5z M1329.8,1495.5c0-1.1-1.3-1.7-3.5-1.7c-2.1,0-3.5,0.7-3.5,1.7c0,1.1,1.3,1.7,3.5,1.7
			C1328.5,1497.2,1329.8,1496.6,1329.8,1495.5z"/>
		<path class="st5" d="M1346.9,1490.1v1.1h-13v-1.1H1346.9z M1335.4,1486.7c0-1.6,1.9-2.5,5-2.5s5,0.9,5,2.5c0,1.6-1.9,2.5-5,2.5
			S1335.4,1488.3,1335.4,1486.7z M1336.8,1497.1h8.9v1h-10.1v-3.4h8.4v-1.3h-8.5v-1h9.8v3.2h-8.4V1497.1z M1336.7,1486.7
			c0,1,1.3,1.5,3.7,1.5c2.4,0,3.7-0.5,3.7-1.5c0-1-1.3-1.5-3.7-1.5C1338,1485.2,1336.7,1485.7,1336.7,1486.7z"/>
		<path class="st5" d="M1356.4,1488c0,2.5,1.1,5,3.1,6.1l-0.8,1c-1.4-0.8-2.4-2.4-2.9-4.2c-0.5,2-1.5,3.6-3,4.5l-0.8-1
			c2-1.2,3.1-3.8,3.1-6.5v-1.3h-2.7v-1.1h6.5v1.1h-2.6V1488z M1360.3,1484.3h1.2v13.3h-1.2v-7.4h-2.4v-1.1h2.4V1484.3z
			 M1364.4,1483.9v14.4h-1.3v-14.4H1364.4z"/>
		<path class="st5" d="M1379.9,1490.6v1.1H1367v-1.1h5.3v-2.8h1.3v2.8H1379.9z M1378.4,1495.7c0,1.6-2,2.6-5,2.6c-3.1,0-5-1-5-2.6
			c0-1.7,1.9-2.6,5-2.6C1376.4,1493,1378.4,1494,1378.4,1495.7z M1377,1485.7h-8.5v-1.1h9.8v1.2c0,1.2,0,2.3-0.4,3.8l-1.3-0.1
			c0.4-1.5,0.4-2.5,0.4-3.6V1485.7z M1377.1,1495.7c0-1-1.4-1.6-3.7-1.6c-2.2,0-3.7,0.6-3.7,1.6c0,1,1.4,1.6,3.7,1.6
			C1375.6,1497.3,1377.1,1496.7,1377.1,1495.7z"/>
		<path class="st5" d="M1386.5,1486.3h3.5v1.1h-8.5v-1.1h3.6v-2.1h1.3V1486.3z M1389.4,1491.8c0,2-1.5,3.3-3.5,3.3
			c-2,0-3.5-1.3-3.5-3.3c0-1.9,1.5-3.3,3.5-3.3C1387.9,1488.5,1389.4,1489.9,1389.4,1491.8z M1388.1,1491.8c0-1.3-0.9-2.2-2.3-2.2
			c-1.3,0-2.2,0.9-2.2,2.2c0,1.3,0.9,2.2,2.2,2.2C1387.2,1494,1388.1,1493.1,1388.1,1491.8z M1395.1,1491h-2.4v7.3h-1.3V1484h1.3
			v5.9h2.4V1491z"/>
		<path class="st5" d="M1404,1485.5c0,4.1-1.9,7.8-6.7,10.1l-0.7-1.1c3.9-1.8,5.8-4.6,6.1-8h-5.4v-1.1H1404z M1408.2,1484v14.4h-1.3
			V1484H1408.2z"/>
		<path class="st5" d="M1424.2,1492.2c-1.4,0.2-2.8,0.4-4.1,0.5v5.2h-1.3v-5.1c-1.4,0.1-2.8,0.1-4,0.1l-0.2-1.1c2.7,0,6.3,0,9.5-0.5
			L1424.2,1492.2z M1415.7,1487.6c0-1.8,1.5-3,3.7-3c2.1,0,3.6,1.2,3.6,3c0,1.7-1.5,2.9-3.6,2.9
			C1417.2,1490.5,1415.7,1489.3,1415.7,1487.6z M1417,1487.6c0,1.1,1,1.9,2.4,1.9c1.4,0,2.4-0.8,2.4-1.9c0-1.1-1-1.9-2.4-1.9
			C1418,1485.7,1417,1486.5,1417,1487.6z M1426.5,1484v14.4h-1.3V1484H1426.5z"/>
		<path class="st5" d="M1433.6,1486.4h2.9v1.1h-7.1v-1.1h2.9v-2h1.3V1486.4z M1436,1491.7c0,2-1.3,3.3-3.1,3.3
			c-1.8,0-3.1-1.3-3.1-3.3c0-1.9,1.3-3.3,3.1-3.3C1434.7,1488.4,1436,1489.8,1436,1491.7z M1434.9,1491.7c0-1.2-0.8-2.2-1.9-2.2
			c-1.1,0-1.9,0.9-1.9,2.2c0,1.3,0.8,2.2,1.9,2.2C1434.1,1493.9,1434.9,1493,1434.9,1491.7z M1441.6,1483.9v14.4h-1.3v-7.2h-1.8v6.5
			h-1.2v-13.3h1.2v5.7h1.8v-6.1H1441.6z"/>
		<path class="st5" d="M1453.1,1494.1c1.3-0.1,2.7-0.2,4-0.4l0.1,1c-3.2,0.6-6.7,0.6-9.3,0.6l-0.2-1.1c1.2,0,2.6,0,4,0v-2.7h1.3
			V1494.1z M1448.2,1491c2.1-0.6,3.6-2.2,3.6-4.1h-3.3v-1.1h3.3v-1.8h1.3v1.8h3.3v1.1h-3.3c0,1.8,1.5,3.3,3.6,4l-0.6,1
			c-1.7-0.5-3-1.6-3.7-3c-0.6,1.5-2,2.6-3.7,3.2L1448.2,1491z M1459.4,1484v14.4h-1.3V1484H1459.4z"/>
		<path class="st5" d="M1470.1,1492.3c-1.6-0.6-2.8-1.9-3.4-3.4c-0.6,1.7-1.9,3.1-3.6,3.7l-0.7-1c2.1-0.8,3.6-2.8,3.6-5v-1.8h1.3
			v1.8c0,2,1.4,3.9,3.5,4.7L1470.1,1492.3z M1474.6,1496.9v1.1h-9.6v-4.5h1.3v3.4H1474.6z M1472.9,1488.4h-3.1v-1.1h3.1v-3.4h1.3
			v10.7h-1.3V1488.4z"/>
		<path class="st5" d="M1490.1,1490.1v1.1h-13v-1.1H1490.1z M1478.6,1486.7c0-1.6,1.9-2.5,5-2.5s5,0.9,5,2.5c0,1.6-1.9,2.5-5,2.5
			S1478.6,1488.3,1478.6,1486.7z M1480,1497.1h8.9v1h-10.1v-3.4h8.4v-1.3h-8.5v-1h9.8v3.2h-8.4V1497.1z M1479.9,1486.7
			c0,1,1.3,1.5,3.7,1.5c2.4,0,3.7-0.5,3.7-1.5c0-1-1.3-1.5-3.7-1.5C1481.3,1485.2,1479.9,1485.7,1479.9,1486.7z"/>
		<path class="st5" d="M1497.4,1493.6c2.5,0,4.4-0.1,6.5-0.5l0.1,1.1c-2.2,0.4-4.1,0.5-6.8,0.5h-1.1v-9.4h6.7v1.1h-5.4V1493.6z
			 M1508.9,1490.7h-2.4v7.6h-1.3V1484h1.3v5.7h2.4V1490.7z"/>
		<path class="st5" d="M1518.7,1486.5h-8.5v-1.1h3.6v-1.6h1.3v1.6h3.6V1486.5z M1514.4,1492.2c-2,0-3.4-1-3.4-2.5
			c0-1.5,1.4-2.5,3.4-2.5s3.4,1,3.4,2.5C1517.9,1491.2,1516.5,1492.2,1514.4,1492.2z M1514.4,1491.2c1.3,0,2.2-0.6,2.2-1.5
			c0-0.9-0.9-1.5-2.2-1.5s-2.2,0.6-2.2,1.5C1512.3,1490.6,1513.1,1491.2,1514.4,1491.2z M1520,1492.9h1.3v5.2h-9v-5.2h1.3v1.5h6.4
			V1492.9z M1520,1495.5h-6.4v1.6h6.4V1495.5z M1523.4,1488.7h-2.1v3.6h-1.3v-8.3h1.3v3.6h2.1V1488.7z"/>
		<path class="st5" d="M1527.1,1493.5c2.2,0,4.4-0.2,6.8-0.7l0.1,1.1c-2.5,0.5-4.8,0.7-7,0.7h-1.2v-9.3h1.3V1493.5z M1536.7,1484
			v14.3h-1.3V1484H1536.7z"/>
		<path class="st5" d="M1541.5,1493.6c2.5,0,4.4-0.1,6.5-0.5l0.1,1.1c-2.2,0.4-4.1,0.5-6.8,0.5h-1.1v-9.4h6.7v1.1h-5.4V1493.6z
			 M1553,1490.7h-2.4v7.6h-1.3V1484h1.3v5.7h2.4V1490.7z"/>
		<path class="st5" d="M1554.7,1496.2c0-0.7,0.5-1.1,1.1-1.1s1.1,0.5,1.1,1.1s-0.5,1.1-1.1,1.1S1554.7,1496.9,1554.7,1496.2z"/>
	</g>
	<g class="st4">
		<path class="st1" d="M781.9,1485.1c0.7-0.6,1.7-0.9,2.9-0.9c0.8,0,1.5,0.1,2.1,0.4c0.6,0.3,1,0.7,1.3,1.1c0.3,0.5,0.4,1,0.4,1.6
			c0,0.7-0.2,1.3-0.5,1.7c-0.4,0.4-0.8,0.7-1.2,0.9v0.1c0.6,0.2,1.1,0.5,1.4,1s0.5,1.1,0.5,1.8c0,0.7-0.2,1.2-0.5,1.8
			c-0.3,0.5-0.7,0.9-1.3,1.2c-0.6,0.3-1.3,0.4-2.1,0.4c-1.3,0-2.3-0.3-3.1-0.9c-0.8-0.6-1.2-1.6-1.2-2.8h2.7c0,0.5,0.1,0.8,0.4,1.1
			s0.6,0.4,1.1,0.4c0.4,0,0.7-0.1,1-0.4s0.3-0.6,0.3-1c0-0.5-0.2-0.9-0.5-1.1s-0.8-0.3-1.6-0.3h-0.5v-2.2h0.5c0.5,0,1-0.1,1.3-0.3
			s0.5-0.5,0.5-1c0-0.4-0.1-0.7-0.3-0.9c-0.2-0.2-0.5-0.3-0.9-0.3c-0.4,0-0.7,0.1-0.9,0.4c-0.2,0.2-0.3,0.5-0.3,0.9h-2.7
			C780.8,1486.6,781.2,1485.7,781.9,1485.1z"/>
	</g>
	<path id="패스_2878-4" class="st3" d="M770,1613.1h30v-30h-30V1613.1z"/>
	<g class="st4">
		<path class="st5" d="M828.9,1599.2c0-3.8,2.1-6.1,5-6.1s5,2.3,5,6.1s-2.1,6.1-5,6.1S828.9,1603,828.9,1599.2z M837.4,1599.2
			c0-2.9-1.4-4.8-3.5-4.8c-2.1,0-3.5,1.8-3.5,4.8c0,2.9,1.4,4.8,3.5,4.8C836,1604,837.4,1602.1,837.4,1599.2z"/>
		<path class="st5" d="M840.8,1599.3c0-3.8,2.2-6.1,5.2-6.1c1.4,0,2.5,0.7,3.2,1.5l-0.8,1c-0.6-0.7-1.4-1.1-2.4-1.1
			c-2.2,0-3.7,1.8-3.7,4.8c0,3,1.4,4.8,3.6,4.8c1.1,0,2-0.5,2.7-1.3l0.8,0.9c-0.9,1.1-2.1,1.7-3.6,1.7
			C843,1605.3,840.8,1603.1,840.8,1599.3z"/>
		<path class="st5" d="M851.7,1593.4h1.5v11.7h-1.5V1593.4z"/>
	</g>
	<g class="st4">
		<path class="st5" d="M868.6,1599.3v1.1h-13v-1.1H868.6z M858.6,1604.9h8.6v1.1h-9.9v-4.2h1.3V1604.9z M867.1,1597.3h-9.8v-4.9h1.3
			v3.8h8.5V1597.3z"/>
		<path class="st5" d="M881.7,1596.1c0,2-1.6,3.3-3.8,3.3c-2.2,0-3.7-1.4-3.7-3.3c0-2,1.6-3.3,3.7-3.3
			C880.2,1592.7,881.7,1594.1,881.7,1596.1z M875.5,1596.1c0,1.3,1,2.3,2.4,2.3c1.4,0,2.5-0.9,2.5-2.3c0-1.3-1-2.3-2.5-2.3
			C876.6,1593.8,875.5,1594.8,875.5,1596.1z M885.7,1600.9v5.2h-9.3v-5.2H885.7z M877.7,1602v3.1h6.7v-3.1H877.7z M885.7,1592v8.2
			h-1.3v-8.2H885.7z"/>
		<path class="st5" d="M896.8,1600c-1.6-0.6-3-1.8-3.6-3.3c-0.6,1.6-1.9,2.9-3.6,3.5l-0.7-1c2.2-0.8,3.6-2.6,3.6-4.7v-0.6h-3.3v-1.1
			h7.9v1.1h-3.2v0.6c0,1.9,1.5,3.7,3.6,4.4L896.8,1600z M890.8,1601.4h9.6v4.9h-1.3v-3.9h-8.3V1601.4z M900.4,1592v8.7h-1.3v-8.7
			H900.4z"/>
		<path class="st5" d="M907.4,1599.6c-1.4,0.1-2.8,0.1-4,0.1l-0.2-1.1c2.7,0,6.2,0,9.3-0.4l0.1,0.9c-1.3,0.2-2.6,0.3-3.9,0.4v2.8
			h-1.3V1599.6z M904.4,1595c0-1.5,1.4-2.5,3.5-2.5c2.1,0,3.5,1,3.5,2.5c0,1.5-1.4,2.5-3.5,2.5
			C905.9,1597.5,904.4,1596.6,904.4,1595z M915.5,1604.9v1.1h-10.1v-4.2h1.3v3.1H915.5z M905.7,1595c0,0.9,0.9,1.5,2.3,1.5
			c1.4,0,2.3-0.6,2.3-1.5c0-0.9-0.9-1.5-2.3-1.5C906.6,1593.5,905.7,1594.1,905.7,1595z M913.8,1600.4v-8.5h1.3v10.9h-1.3v-1.5h-2.9
			v-1H913.8z"/>
		<path class="st5" d="M918.2,1602.1c2.6,0,6.2,0,9.3-0.5l0.1,1c-3.2,0.6-6.7,0.6-9.3,0.6L918.2,1602.1z M926.6,1596.4
			c0,2-1.6,3.4-3.8,3.4c-2.2,0-3.8-1.4-3.8-3.4c0-2,1.6-3.4,3.8-3.4C925,1593,926.6,1594.4,926.6,1596.4z M920.2,1596.4
			c0,1.3,1.1,2.3,2.6,2.3c1.5,0,2.6-0.9,2.6-2.3c0-1.3-1.1-2.3-2.6-2.3C921.2,1594.1,920.2,1595,920.2,1596.4z M929.8,1592v14.4
			h-1.3V1592H929.8z"/>
		<path class="st5" d="M940.4,1600c-2.1,0-3.7-1.5-3.7-3.6c0-2.1,1.6-3.5,3.7-3.5c2.1,0,3.8,1.5,3.8,3.5
			C944.2,1598.6,942.6,1600,940.4,1600z M940.4,1598.9c1.4,0,2.5-1,2.5-2.4c0-1.4-1.1-2.4-2.5-2.4c-1.4,0-2.4,1-2.4,2.4
			C938,1597.9,939.1,1598.9,940.4,1598.9z M948.6,1604.9v1.1h-9.7v-4.6h1.3v3.5H948.6z M948.2,1602.5h-1.3V1592h1.3V1602.5z"/>
		<path class="st5" d="M955,1598.6c-1.4,0.1-2.7,0.1-3.9,0.1l-0.2-1.1c1.8,0,4.1,0,6.4-0.2c0.3-1.6,0.3-2.7,0.4-3.6h-5.4v-1.1h6.7
			v0.5c0,0.8,0,2.1-0.3,4c0.5,0,1.1-0.1,1.6-0.2l0.1,0.9c-1.3,0.2-2.7,0.4-4,0.5v3.3H955V1598.6z M963.3,1604.9v1.1h-10.1v-4.4h1.3
			v3.3H963.3z M961.6,1599.8v-7.8h1.3v10.8h-1.3v-2h-3.1v-1H961.6z"/>
		<path class="st5" d="M974.1,1599.9c-1.7-0.5-3-1.6-3.7-3c-0.6,1.6-2,2.8-3.7,3.3l-0.6-1c2.1-0.7,3.6-2.4,3.6-4.4v-0.2h-3.3v-1.1
			h3.3v-1.8h1.3v1.8h3.2v1.1H971v0.2c0,1.8,1.5,3.4,3.7,4.1L974.1,1599.9z M968.3,1601.2h9.3v4.9h-9.3V1601.2z M969.6,1605.1h6.7
			v-2.8h-6.7V1605.1z M977.6,1592v8.5h-1.3v-8.5H977.6z"/>
		<path class="st5" d="M984.7,1594.4h2.9v1.1h-7.1v-1.1h2.9v-2h1.3V1594.4z M987.2,1599.7c0,2-1.3,3.3-3.1,3.3s-3.1-1.3-3.1-3.3
			c0-1.9,1.3-3.3,3.1-3.3S987.2,1597.8,987.2,1599.7z M986,1599.7c0-1.2-0.8-2.2-1.9-2.2c-1.1,0-1.9,0.9-1.9,2.2
			c0,1.3,0.8,2.2,1.9,2.2C985.2,1601.9,986,1601,986,1599.7z M992.7,1591.9v14.4h-1.3v-7.2h-1.8v6.5h-1.2v-13.3h1.2v5.7h1.8v-6.1
			H992.7z"/>
		<path class="st5" d="M1008.3,1598.6v1h-13v-1H1008.3z M998.1,1605.2h9v0.9h-10.3v-3.2h8.5v-1.2h-8.5v-0.9h9.8v3.1h-8.5V1605.2z
			 M1005.3,1593.3h-8.4v-0.9h9.7v3h-8.4v1.2h8.6v0.9h-9.9v-3.1h8.4V1593.3z"/>
		<path class="st5" d="M1018.4,1595.8c0,2.5,1.6,5.1,3.6,6.1l-0.8,1c-1.5-0.8-2.8-2.5-3.5-4.5c-0.6,2.1-2,3.9-3.6,4.8l-0.8-1.1
			c2.1-1.1,3.7-3.8,3.7-6.4v-2.6h1.3V1595.8z M1027,1598.9h-2.4v7.4h-1.3V1592h1.3v5.8h2.4V1598.9z"/>
		<path class="st5" d="M1036.1,1600.3c-1.6-0.6-2.8-1.8-3.5-3.2c-0.6,1.6-1.9,3-3.6,3.6l-0.7-1c2.1-0.8,3.6-2.7,3.6-4.7v-0.7h-3.2
			v-1.1h7.7v1.1h-3.2v0.7c0,1.9,1.4,3.7,3.5,4.4L1036.1,1600.3z M1040.5,1604.9v1.1h-9.6v-4.4h1.3v3.4H1040.5z M1038.8,1595.9v-4
			h1.3v10.5h-1.3v-5.5h-2.9v-1.1H1038.8z"/>
		<path class="st5" d="M1051.1,1592.3h1.2v13.3h-1.2v-7h-1.8c-0.1,2.8-1.3,4.5-3,4.5c-1.9,0-3.1-1.9-3.1-5c0-3.1,1.2-5,3.1-5
			c1.7,0,2.9,1.7,3,4.4h1.8V1592.3z M1048.1,1598.1c0-2.3-0.7-3.8-1.9-3.8c-1.2,0-1.9,1.5-1.9,3.8c0,2.4,0.7,3.8,1.9,3.8
			C1047.4,1601.9,1048.1,1600.5,1048.1,1598.1z M1055.2,1592v14.4h-1.2V1592H1055.2z"/>
		<path class="st5" d="M1069.4,1592.3h1.2v13.3h-1.2v-4.7h-2.2c-0.5,1.4-1.4,2.3-2.7,2.3c-1.9,0-3.1-1.9-3.1-5c0-3.1,1.2-5,3.1-5
			c1.2,0,2.2,0.8,2.7,2.3h2.2V1592.3z M1066.4,1598.1c0-2.3-0.7-3.8-1.9-3.8c-1.1,0-1.9,1.5-1.9,3.8c0,2.3,0.7,3.8,1.9,3.8
			C1065.7,1601.9,1066.4,1600.5,1066.4,1598.1z M1069.4,1599.8v-3.3h-2c0.1,0.5,0.1,1,0.1,1.6s0,1.1-0.1,1.6H1069.4z M1073.5,1592
			v14.4h-1.2V1592H1073.5z"/>
		<path class="st5" d="M1083.3,1599.5h-6.6v-6.6h1.3v2.2h4.1v-2.2h1.3V1599.5z M1087.3,1603.6c0,1.7-1.8,2.7-4.7,2.7
			c-2.9,0-4.7-1-4.7-2.7c0-1.7,1.8-2.7,4.7-2.7C1085.5,1601,1087.3,1601.9,1087.3,1603.6z M1082,1596h-4.1v2.4h4.1V1596z
			 M1086,1603.6c0-1-1.3-1.6-3.4-1.6c-2.1,0-3.4,0.6-3.4,1.6s1.3,1.6,3.4,1.6C1084.7,1605.3,1086,1604.7,1086,1603.6z
			 M1089.3,1595.6v1.1h-2.1v3.9h-1.3v-8.6h1.3v3.6H1089.3z"/>
		<path class="st5" d="M1095.6,1594.3h3.5v1.1h-8.5v-1.1h3.6v-2.1h1.3V1594.3z M1098.5,1599.8c0,2-1.5,3.3-3.5,3.3
			c-2,0-3.5-1.3-3.5-3.3c0-1.9,1.5-3.3,3.5-3.3C1097,1596.5,1098.5,1597.9,1098.5,1599.8z M1097.2,1599.8c0-1.3-0.9-2.2-2.3-2.2
			c-1.3,0-2.2,0.9-2.2,2.2c0,1.3,0.9,2.2,2.2,2.2C1096.3,1602,1097.2,1601.1,1097.2,1599.8z M1104.2,1599h-2.4v7.3h-1.3V1592h1.3
			v5.9h2.4V1599z"/>
		<path class="st5" d="M1113,1593.5c0,4.1-1.9,7.8-6.7,10.1l-0.7-1.1c3.9-1.8,5.8-4.6,6.1-8h-5.4v-1.1H1113z M1117.3,1592v14.4h-1.3
			V1592H1117.3z"/>
		<path class="st5" d="M1133.3,1600.2c-1.4,0.2-2.8,0.4-4.1,0.5v5.2h-1.3v-5.1c-1.4,0.1-2.8,0.1-4,0.1l-0.2-1.1c2.7,0,6.3,0,9.5-0.5
			L1133.3,1600.2z M1124.8,1595.6c0-1.8,1.5-3,3.7-3c2.1,0,3.6,1.2,3.6,3c0,1.7-1.5,2.9-3.6,2.9
			C1126.3,1598.5,1124.8,1597.3,1124.8,1595.6z M1126.1,1595.6c0,1.1,1,1.9,2.4,1.9c1.4,0,2.4-0.8,2.4-1.9c0-1.1-1-1.9-2.4-1.9
			C1127.1,1593.7,1126.1,1594.5,1126.1,1595.6z M1135.6,1592v14.4h-1.3V1592H1135.6z"/>
		<path class="st5" d="M1142.7,1594.4h2.9v1.1h-7.1v-1.1h2.9v-2h1.3V1594.4z M1145.1,1599.7c0,2-1.3,3.3-3.1,3.3s-3.1-1.3-3.1-3.3
			c0-1.9,1.3-3.3,3.1-3.3S1145.1,1597.8,1145.1,1599.7z M1144,1599.7c0-1.2-0.8-2.2-1.9-2.2c-1.1,0-1.9,0.9-1.9,2.2
			c0,1.3,0.8,2.2,1.9,2.2C1143.2,1601.9,1144,1601,1144,1599.7z M1150.7,1591.9v14.4h-1.3v-7.2h-1.8v6.5h-1.2v-13.3h1.2v5.7h1.8
			v-6.1H1150.7z"/>
		<path class="st5" d="M1164.6,1600c-1.6-0.6-2.8-1.8-3.5-3.2c-0.6,1.7-1.9,3-3.6,3.6l-0.7-1c2.1-0.8,3.6-2.7,3.6-4.8v-0.5h-3.2
			v-1.1h7.7v1.1h-3.2v0.5c0,1.8,1.4,3.6,3.5,4.4L1164.6,1600z M1168.7,1603.6c0,1.7-1.8,2.7-4.8,2.7s-4.8-1-4.8-2.7
			c0-1.7,1.8-2.7,4.8-2.7S1168.7,1601.9,1168.7,1603.6z M1167.4,1603.6c0-1-1.3-1.7-3.5-1.7c-2.2,0-3.5,0.6-3.5,1.7
			c0,1,1.3,1.6,3.5,1.6C1166.1,1605.3,1167.4,1604.7,1167.4,1603.6z M1167.3,1595.7v-3.7h1.3v8.5h-1.3v-3.8h-2.8v-1.1H1167.3z"/>
		<path class="st5" d="M1179.1,1593.5c0,4.1-1.9,7.8-6.7,10.1l-0.7-1.1c3.9-1.8,5.8-4.6,6.1-8h-5.4v-1.1H1179.1z M1183.3,1592v14.4
			h-1.3V1592H1183.3z"/>
		<path class="st5" d="M1194,1600c-1.6-0.6-2.8-1.8-3.5-3.2c-0.6,1.6-1.9,3-3.6,3.6l-0.7-1c2.1-0.8,3.6-2.7,3.6-4.7v-0.6h-3.2v-1.1
			h7.7v1.1h-3.2v0.6c0,1.8,1.4,3.6,3.5,4.4L1194,1600z M1188.5,1601.3h9.6v5h-1.3v-3.9h-8.3V1601.3z M1198.1,1592v8.6h-1.3v-3.8
			h-2.8v-1.1h2.8v-3.7H1198.1z"/>
		<path class="st5" d="M1205,1600c-2.1,0-3.7-1.5-3.7-3.6c0-2.1,1.6-3.5,3.7-3.5c2.1,0,3.8,1.5,3.8,3.5
			C1208.8,1598.6,1207.2,1600,1205,1600z M1205,1598.9c1.4,0,2.5-1,2.5-2.4c0-1.4-1.1-2.4-2.5-2.4c-1.4,0-2.4,1-2.4,2.4
			C1202.6,1597.9,1203.6,1598.9,1205,1598.9z M1213.2,1604.9v1.1h-9.7v-4.6h1.3v3.5H1213.2z M1212.7,1602.5h-1.3V1592h1.3V1602.5z"
			/>
		<path class="st5" d="M1232.2,1603.2v1.1h-13v-1.1h3.2v-4.8h1.3v4.8h2.3v-4.8h1.3v4.8H1232.2z M1229.4,1594.5h-8.8v-1.1h10.1v1.6
			c0,1.8,0,3.7-0.5,6.4l-1.3-0.2c0.5-2.6,0.5-4.4,0.5-6.2V1594.5z"/>
		<path class="st5" d="M1243.5,1599.9v1.8h1.8v4.6h-1.3v-3.5h-8.6v-1.1h2v-1.8h-3.4v-1.1h13v1.1H1243.5z M1235.4,1595
			c0-1.7,2-2.8,5-2.8c3.1,0,5,1,5,2.8s-1.9,2.7-5,2.7C1237.4,1597.8,1235.4,1596.8,1235.4,1595z M1236.8,1595c0,1.1,1.4,1.7,3.7,1.7
			c2.3,0,3.7-0.6,3.7-1.7s-1.4-1.7-3.7-1.7C1238.2,1593.3,1236.8,1594,1236.8,1595z M1242.2,1599.9h-3.5v1.8h3.5V1599.9z"/>
		<path class="st5" d="M1261.7,1598.1v1.1h-13v-1.1H1261.7z M1250.1,1594.7c0-1.6,1.9-2.5,5-2.5s5,0.9,5,2.5c0,1.6-1.9,2.5-5,2.5
			S1250.1,1596.3,1250.1,1594.7z M1251.6,1605.1h8.9v1h-10.1v-3.4h8.4v-1.3h-8.5v-1h9.8v3.2h-8.4V1605.1z M1251.5,1594.7
			c0,1,1.3,1.5,3.7,1.5c2.4,0,3.7-0.5,3.7-1.5c0-1-1.3-1.5-3.7-1.5C1252.8,1593.2,1251.5,1593.7,1251.5,1594.7z"/>
		<path class="st5" d="M1275,1599c-1.6-0.6-3-1.8-3.6-3.3c-0.6,1.6-2,3-3.7,3.6l-0.7-1c2.2-0.8,3.6-2.7,3.6-4.8v-1.1h1.3v1.1
			c0,2,1.5,3.8,3.6,4.5L1275,1599z M1279.3,1605.1v1h-9.7v-3.6h8v-1.4h-8v-1h9.3v3.5h-8v1.5H1279.3z M1278.8,1599.4h-1.3v-7.4h1.3
			V1599.4z"/>
		<path class="st5" d="M1286.8,1595.8c0,2.6,1.7,5.3,3.8,6.2l-0.8,1.1c-1.6-0.8-3-2.5-3.7-4.5c-0.7,2.2-2,4-3.7,4.8l-0.8-1.1
			c2.1-1,3.9-3.8,3.9-6.5v-2.6h1.3V1595.8z M1293.5,1592v14.4h-1.3V1592H1293.5z"/>
		<path class="st5" d="M1305,1594.5h-8.5v-1.1h3.6v-1.6h1.3v1.6h3.6V1594.5z M1300.7,1600.4c-2,0-3.4-1-3.4-2.5
			c0-1.6,1.4-2.6,3.4-2.6s3.4,1,3.4,2.6C1304.2,1599.4,1302.8,1600.4,1300.7,1600.4z M1300.7,1599.4c1.3,0,2.2-0.6,2.2-1.6
			c0-0.9-0.9-1.6-2.2-1.6s-2.2,0.6-2.2,1.6C1298.5,1598.8,1299.4,1599.4,1300.7,1599.4z M1298.6,1601.4h9v4.7h-9V1601.4z
			 M1299.9,1605.1h6.4v-2.6h-6.4V1605.1z M1309.7,1596.9h-2.1v3.7h-1.3v-8.6h1.3v3.8h2.1V1596.9z"/>
		<path class="st5" d="M1324.2,1603.3v1.1h-13v-1.1H1324.2z M1322.9,1596.8c0,2.4-2.2,4-5.2,4s-5.2-1.6-5.2-4c0-2.4,2.2-4,5.2-4
			S1322.9,1594.4,1322.9,1596.8z M1313.7,1596.8c0,1.7,1.7,2.9,4,2.9c2.3,0,4-1.2,4-2.9c0-1.7-1.7-2.9-4-2.9
			C1315.4,1593.9,1313.7,1595.1,1313.7,1596.8z"/>
		<path class="st5" d="M1338.9,1603.5v1.1h-13v-1.1h5.8v-2.7h-4.2v-4.4h8.5v-2.2h-8.5v-1.1h9.8v4.4h-8.5v2.3h8.8v1.1h-4.6v2.7
			H1338.9z"/>
		<path class="st5" d="M1347.9,1596.4c0,1.9,0.5,4.4,2.2,5.6l-0.8,1c-1-0.8-1.7-2-2-3.4c-0.3,1.4-0.9,2.8-2,3.6
			c-1.1-0.8-1.7-2.2-2-3.6c-0.4,1.3-1,2.6-2,3.4l-0.8-0.9c1.7-1.3,2.2-3.8,2.2-5.6v-3.2h1.2v3.2c0,1.5,0.2,3.6,1.4,5
			c1.1-1.4,1.4-3.5,1.4-5v-3.2h1.2V1596.4z M1352.6,1592v14.3h-1.3v-8h-2.5v-1.1h2.5v-5.2H1352.6z"/>
		<path class="st5" d="M1363,1600c-2.1,0-3.7-1.5-3.7-3.6c0-2.1,1.6-3.5,3.7-3.5c2.1,0,3.8,1.5,3.8,3.5
			C1366.7,1598.6,1365.1,1600,1363,1600z M1363,1598.9c1.4,0,2.5-1,2.5-2.4c0-1.4-1.1-2.4-2.5-2.4c-1.4,0-2.4,1-2.4,2.4
			C1360.5,1597.9,1361.6,1598.9,1363,1598.9z M1371.1,1604.9v1.1h-9.7v-4.6h1.3v3.5H1371.1z M1370.7,1602.5h-1.3V1592h1.3V1602.5z"
			/>
		<path class="st5" d="M1377.6,1598.6c-1.4,0.1-2.7,0.1-3.9,0.1l-0.2-1.1c1.8,0,4.1,0,6.4-0.2c0.3-1.6,0.3-2.7,0.4-3.6h-5.4v-1.1
			h6.7v0.5c0,0.8,0,2.1-0.3,4c0.5,0,1.1-0.1,1.6-0.2l0.1,0.9c-1.3,0.2-2.7,0.4-4,0.5v3.3h-1.3V1598.6z M1385.8,1604.9v1.1h-10.1
			v-4.4h1.3v3.3H1385.8z M1384.1,1599.8v-7.8h1.3v10.8h-1.3v-2h-3.1v-1H1384.1z"/>
		<path class="st5" d="M1396.4,1592.3h1.2v13.3h-1.2v-7h-1.8c-0.1,2.8-1.3,4.5-3,4.5c-1.9,0-3.1-1.9-3.1-5c0-3.1,1.2-5,3.1-5
			c1.7,0,2.9,1.7,3,4.4h1.8V1592.3z M1393.5,1598.1c0-2.3-0.7-3.8-1.9-3.8c-1.2,0-1.9,1.5-1.9,3.8c0,2.4,0.7,3.8,1.9,3.8
			C1392.7,1601.9,1393.5,1600.5,1393.5,1598.1z M1400.5,1592v14.4h-1.2V1592H1400.5z"/>
		<path class="st5" d="M1408.5,1601.7c1.9,0,3.3-0.1,4.8-0.4l0.1,1.1c-1.7,0.4-3.2,0.4-5.3,0.4h-0.9v-9.1h5.3v1.1h-4V1601.7z
			 M1418.9,1592v14.4h-1.3v-7.5h-2v6.8h-1.2v-13.3h1.2v5.4h2v-5.8H1418.9z"/>
		<path class="st5" d="M1429.9,1594.8h-8.5v-1.1h3.6v-1.7h1.3v1.7h3.6V1594.8z M1425.6,1600.9c-2,0-3.4-1.1-3.4-2.7
			c0-1.6,1.4-2.7,3.4-2.7s3.4,1.1,3.4,2.7C1429.1,1599.8,1427.7,1600.9,1425.6,1600.9z M1425.6,1599.9c1.3,0,2.2-0.6,2.2-1.6
			c0-1-0.9-1.6-2.2-1.6c-1.3,0-2.2,0.6-2.2,1.6C1423.5,1599.2,1424.3,1599.9,1425.6,1599.9z M1424.9,1604.9h8.3v1.1h-9.6v-4.1h1.3
			V1604.9z M1434.6,1596.7v1.1h-2.1v4.9h-1.3V1592h1.3v4.7H1434.6z"/>
		<path class="st5" d="M1443.7,1600c-2.1,0-3.7-1.5-3.7-3.6c0-2.1,1.6-3.5,3.7-3.5c2.1,0,3.8,1.5,3.8,3.5
			C1447.5,1598.6,1445.9,1600,1443.7,1600z M1443.7,1598.9c1.4,0,2.5-1,2.5-2.4c0-1.4-1.1-2.4-2.5-2.4c-1.4,0-2.4,1-2.4,2.4
			C1441.3,1597.9,1442.4,1598.9,1443.7,1598.9z M1451.9,1604.9v1.1h-9.7v-4.6h1.3v3.5H1451.9z M1451.5,1602.5h-1.3V1592h1.3V1602.5z
			"/>
		<path class="st5" d="M1462.4,1599.7c-1.6-0.6-2.9-1.8-3.6-3.4c-0.6,1.7-1.9,3-3.6,3.7l-0.7-1c2.2-0.8,3.6-2.8,3.6-4.9v-1.4h1.3
			v1.4c0,2.1,1.5,3.9,3.6,4.7L1462.4,1599.7z M1456.6,1601.3h9.6v5h-1.3v-3.9h-8.3V1601.3z M1466.2,1592v8.6h-1.3v-8.6H1466.2z"/>
		<path class="st5" d="M1478.8,1593.8c0,3.7-1.3,7.1-5.4,9.4l-0.8-0.9c3.3-1.8,4.7-4.4,4.8-7.4h-4.3v-1.1H1478.8z M1484.9,1592v14.4
			h-1.3v-7.5h-2v6.8h-1.2v-13.3h1.2v5.4h2v-5.8H1484.9z"/>
		<path class="st5" d="M1495.1,1600.3c-1.6-0.6-2.8-1.9-3.4-3.4c-0.6,1.7-1.9,3.1-3.6,3.7l-0.7-1c2.1-0.8,3.6-2.8,3.6-5v-1.8h1.3
			v1.8c0,2,1.4,3.9,3.5,4.7L1495.1,1600.3z M1499.6,1604.9v1.1h-9.6v-4.5h1.3v3.4H1499.6z M1497.9,1596.4h-3.1v-1.1h3.1v-3.4h1.3
			v10.7h-1.3V1596.4z"/>
		<path class="st5" d="M1515.1,1598.1v1.1h-13v-1.1H1515.1z M1503.6,1594.7c0-1.6,1.9-2.5,5-2.5s5,0.9,5,2.5c0,1.6-1.9,2.5-5,2.5
			S1503.6,1596.3,1503.6,1594.7z M1505,1605.1h8.9v1h-10.1v-3.4h8.4v-1.3h-8.5v-1h9.8v3.2h-8.4V1605.1z M1504.9,1594.7
			c0,1,1.3,1.5,3.7,1.5c2.4,0,3.7-0.5,3.7-1.5c0-1-1.3-1.5-3.7-1.5C1506.3,1593.2,1504.9,1593.7,1504.9,1594.7z"/>
		<path class="st5" d="M1528.3,1598.1c0,3.1-1.5,5-3.6,5s-3.6-2-3.6-5c0-3.1,1.5-5,3.6-5S1528.3,1595,1528.3,1598.1z M1522.2,1598.1
			c0,2.3,1,3.8,2.4,3.8c1.4,0,2.4-1.5,2.4-3.8c0-2.3-1-3.8-2.4-3.8C1523.2,1594.2,1522.2,1595.7,1522.2,1598.1z M1532.2,1592v14.4
			h-1.3V1592H1532.2z"/>
		<path class="st5" d="M1542.4,1594.7h-7.3v-1h3v-1.6h1.3v1.6h3V1594.7z M1538.8,1600.4c-1.8,0-3.1-1-3.1-2.5c0-1.5,1.3-2.4,3.1-2.4
			s3.1,1,3.1,2.4C1541.8,1599.4,1540.6,1600.4,1538.8,1600.4z M1538.8,1599.4c1.1,0,1.9-0.6,1.9-1.5c0-0.9-0.8-1.5-1.9-1.5
			c-1.1,0-1.9,0.6-1.9,1.5C1536.9,1598.8,1537.6,1599.4,1538.8,1599.4z M1547.4,1603.8c0,1.6-1.8,2.5-4.8,2.5s-4.8-0.9-4.8-2.5
			c0-1.6,1.8-2.5,4.8-2.5S1547.4,1602.2,1547.4,1603.8z M1546.1,1603.8c0-1-1.3-1.5-3.5-1.5c-2.2,0-3.5,0.5-3.5,1.5
			c0,0.9,1.3,1.5,3.5,1.5C1544.7,1605.3,1546.1,1604.7,1546.1,1603.8z M1544.2,1600.5h-1.2v-8.3h1.2v3.6h1.8v-3.9h1.3v9.1h-1.3v-4.1
			h-1.8V1600.5z"/>
		<path class="st5" d="M1558.4,1594.5h-8.5v-1.1h3.6v-1.6h1.3v1.6h3.6V1594.5z M1554.2,1600.2c-2,0-3.4-1-3.4-2.5
			c0-1.5,1.4-2.5,3.4-2.5s3.4,1,3.4,2.5C1557.6,1599.2,1556.2,1600.2,1554.2,1600.2z M1554.2,1599.2c1.3,0,2.2-0.6,2.2-1.5
			c0-0.9-0.9-1.5-2.2-1.5s-2.2,0.6-2.2,1.5C1552,1598.6,1552.8,1599.2,1554.2,1599.2z M1559.7,1600.9h1.3v5.2h-9v-5.2h1.3v1.5h6.4
			V1600.9z M1559.7,1603.5h-6.4v1.6h6.4V1603.5z M1563.2,1596.7h-2.1v3.6h-1.3v-8.3h1.3v3.6h2.1V1596.7z"/>
		<path class="st5" d="M1566.8,1601.5c2.2,0,4.4-0.2,6.8-0.7l0.1,1.1c-2.5,0.5-4.8,0.7-7,0.7h-1.2v-9.3h1.3V1601.5z M1576.4,1592
			v14.3h-1.3V1592H1576.4z"/>
		<path class="st5" d="M1581.2,1601.6c2.5,0,4.4-0.1,6.5-0.5l0.1,1.1c-2.2,0.4-4.1,0.5-6.8,0.5h-1.1v-9.4h6.7v1.1h-5.4V1601.6z
			 M1592.7,1598.7h-2.4v7.6h-1.3V1592h1.3v5.7h2.4V1598.7z"/>
		<path class="st5" d="M1594.4,1604.2c0-0.7,0.5-1.1,1.1-1.1s1.1,0.5,1.1,1.1s-0.5,1.1-1.1,1.1S1594.4,1604.9,1594.4,1604.2z"/>
	</g>
	<g class="st4">
		<path class="st1" d="M780.7,1602v-2.2l5.1-7.2h3.1v7.1h1.3v2.4h-1.3v2.1h-2.7v-2.1H780.7z M786.3,1595.6l-2.7,4.1h2.7V1595.6z"/>
	</g>
	<path id="패스_2878-5" class="st3" d="M770,1721.1h30v-30h-30V1721.1z"/>
	<g class="st4">
		<path class="st5" d="M828.9,1694.2c0-3.8,2.1-6.1,5-6.1s5,2.3,5,6.1s-2.1,6.1-5,6.1S828.9,1698,828.9,1694.2z M837.4,1694.2
			c0-2.9-1.4-4.8-3.5-4.8c-2.1,0-3.5,1.8-3.5,4.8c0,2.9,1.4,4.8,3.5,4.8C836,1699,837.4,1697.1,837.4,1694.2z"/>
		<path class="st5" d="M840.8,1694.3c0-3.8,2.2-6.1,5.2-6.1c1.4,0,2.5,0.7,3.2,1.5l-0.8,1c-0.6-0.7-1.4-1.1-2.4-1.1
			c-2.2,0-3.7,1.8-3.7,4.8c0,3,1.4,4.8,3.6,4.8c1.1,0,2-0.5,2.7-1.3l0.8,0.9c-0.9,1.1-2.1,1.7-3.6,1.7
			C843,1700.3,840.8,1698.1,840.8,1694.3z"/>
		<path class="st5" d="M851.7,1688.4h1.5v11.7h-1.5V1688.4z"/>
	</g>
	<g class="st4">
		<path class="st5" d="M868.6,1694.3v1.1h-13v-1.1H868.6z M858.6,1699.9h8.6v1.1h-9.9v-4.2h1.3V1699.9z M867.1,1692.3h-9.8v-4.9h1.3
			v3.8h8.5V1692.3z"/>
		<path class="st5" d="M878,1695c-2.1,0-3.7-1.5-3.7-3.6c0-2.1,1.6-3.5,3.7-3.5c2.1,0,3.8,1.5,3.8,3.5
			C881.7,1693.6,880.1,1695,878,1695z M878,1693.9c1.4,0,2.5-1,2.5-2.4c0-1.4-1.1-2.4-2.5-2.4c-1.4,0-2.4,1-2.4,2.4
			C875.5,1692.9,876.6,1693.9,878,1693.9z M886.1,1699.9v1.1h-9.7v-4.6h1.3v3.5H886.1z M885.7,1697.5h-1.3V1687h1.3V1697.5z"/>
		<path class="st5" d="M892.6,1693.6c-1.4,0.1-2.7,0.1-3.9,0.1l-0.2-1.1c1.8,0,4.1,0,6.4-0.2c0.3-1.6,0.3-2.7,0.4-3.6h-5.4v-1.1h6.7
			v0.5c0,0.8,0,2.1-0.3,4c0.5,0,1.1-0.1,1.6-0.2l0.1,0.9c-1.3,0.2-2.7,0.4-4,0.5v3.3h-1.3V1693.6z M900.8,1699.9v1.1h-10.1v-4.4h1.3
			v3.3H900.8z M899.1,1694.8v-7.8h1.3v10.8h-1.3v-2H896v-1H899.1z"/>
		<path class="st5" d="M911.2,1695c-1.6-0.6-2.8-1.8-3.5-3.2c-0.6,1.7-1.9,3-3.6,3.6l-0.7-1c2.1-0.8,3.6-2.7,3.6-4.8v-0.5h-3.2v-1.1
			h7.7v1.1h-3.2v0.5c0,1.8,1.4,3.6,3.5,4.4L911.2,1695z M915.2,1698.6c0,1.7-1.8,2.7-4.8,2.7c-2.9,0-4.8-1-4.8-2.7
			c0-1.7,1.8-2.7,4.8-2.7C913.4,1696,915.2,1696.9,915.2,1698.6z M913.9,1698.6c0-1-1.3-1.7-3.5-1.7c-2.2,0-3.5,0.6-3.5,1.7
			c0,1,1.3,1.6,3.5,1.6C912.6,1700.3,913.9,1699.7,913.9,1698.6z M913.9,1690.7v-3.7h1.3v8.5h-1.3v-3.8H911v-1.1H913.9z"/>
		<path class="st5" d="M924.6,1695.1c-1.4-0.6-2.4-1.6-2.9-2.9c-0.5,1.4-1.5,2.6-2.9,3.2l-0.6-1c1.8-0.8,2.9-2.5,2.9-4.3v-0.2h-2.6
			v-1.1h2.6v-1.7h1.2v1.7h2.6v1.1h-2.6v0.2c0,1.7,1.1,3.3,2.9,4L924.6,1695.1z M920.5,1696.5h9.7v4.8h-1.3v-3.7h-8.3V1696.5z
			 M930.2,1687v8.8h-1.3v-3.9h-1.8v3.8h-1.2v-8.5h1.2v3.6h1.8v-3.8H930.2z"/>
		<path class="st5" d="M940.6,1693.1c0,3.1-1.5,5-3.6,5s-3.6-2-3.6-5c0-3.1,1.5-5,3.6-5S940.6,1690,940.6,1693.1z M934.6,1693.1
			c0,2.3,1,3.8,2.4,3.8c1.4,0,2.4-1.5,2.4-3.8c0-2.3-1-3.8-2.4-3.8C935.6,1689.2,934.6,1690.7,934.6,1693.1z M944.5,1687v14.4h-1.3
			V1687H944.5z"/>
		<path class="st5" d="M964.1,1694.3v1.1h-5.7v2.9H957v-2.9h-6v-1.1H964.1z M951.9,1692.2c2.5-0.3,4.9-1.8,4.9-3.5v0h-4.5v-1.1h10.6
			v1.1h-4.5v0c0,1.7,2.3,3.2,4.9,3.5l-0.5,1.1c-2.3-0.4-4.4-1.5-5.2-3.2c-0.8,1.7-2.9,2.8-5.2,3.2L951.9,1692.2z M954,1699.9h8.6
			v1.1h-9.9v-4.1h1.3V1699.9z"/>
		<path class="st5" d="M978.8,1696.1h-5.9v5.2h-1.3v-5.2h-5.8v-1.1h13L978.8,1696.1z M977.6,1693.5c-2.2-0.4-4.4-1.6-5.3-3.4
			c-0.9,1.7-3.1,3-5.3,3.4l-0.5-1.1c2.6-0.4,5.1-2.1,5.1-4.2v-0.8h1.4v0.8c0,2,2.6,3.8,5.2,4.2L977.6,1693.5z"/>
		<path class="st5" d="M985.9,1697c1.4-0.1,2.8-0.1,4-0.3l0.1,1c-3.1,0.5-6.6,0.5-9.3,0.5l-0.2-1.1c1.2,0,2.6,0,4,0v-2.8h-2.9v-5.9
			h7.3v1.1h-6v3.8h6v1.1h-3.1V1697z M992.2,1686.9v14.4h-1.3v-14.4H992.2z"/>
		<path class="st5" d="M1008.3,1698.2v1.1h-13v-1.1h5v-5.1h1.3v5.1H1008.3z M1005.4,1689.5h-8.8v-1.1h10.1v1.4c0,1.8,0,3.7-0.5,6.6
			l-1.3-0.1c0.5-2.8,0.5-4.8,0.5-6.5V1689.5z"/>
		<path class="st5" d="M1013.9,1691.1c0-2,1.6-3.3,3.7-3.3c2.2,0,3.8,1.4,3.8,3.3c0,2-1.6,3.3-3.8,3.3
			C1015.5,1694.5,1013.9,1693.1,1013.9,1691.1z M1023.7,1696.6c0,1.5,1.1,3,2.9,3.6l-0.7,1c-1.4-0.5-2.4-1.5-2.9-2.7
			c-0.4,1.2-1.3,2.3-2.7,2.8c-1.4-0.5-2.2-1.6-2.7-2.8c-0.5,1.2-1.5,2.1-2.8,2.7l-0.7-1c1.8-0.6,2.9-2.2,2.9-3.6v-0.8h1.3v0.8
			c0,1.3,0.7,2.6,2,3.4c1.4-0.8,2.1-2.3,2.1-3.4v-0.8h1.3V1696.6z M1015.2,1691.1c0,1.3,1,2.3,2.4,2.3c1.4,0,2.5-0.9,2.5-2.3
			c0-1.3-1.1-2.3-2.5-2.3C1016.2,1688.9,1015.2,1689.8,1015.2,1691.1z M1025.3,1695.2h-1.3v-8.2h1.3V1695.2z"/>
		<path class="st5" d="M1041.3,1694.3v1.1h-13v-1.1H1041.3z M1031.2,1699.9h8.6v1.1h-9.9v-4.2h1.3V1699.9z M1039.8,1692.3h-9.8v-4.9
			h1.3v3.8h8.5V1692.3z"/>
		<path class="st5" d="M1048.1,1691.3c0,2.4,1.7,4.9,3.8,5.8l-0.7,1.1c-1.7-0.8-3.1-2.4-3.8-4.4c-0.7,2.1-2.1,3.9-3.7,4.7l-0.8-1.1
			c2.1-1,3.8-3.7,3.8-6.2v-1.8h-3.3v-1.1h8v1.1h-3.4V1691.3z M1054.8,1687v14.3h-1.3V1687H1054.8z"/>
		<path class="st5" d="M1068,1696.5c0.8,0,1.5-0.1,2.2-0.2l0.1,1c-3,0.5-6.4,0.5-8.9,0.5l-0.2-1.1c0.6,0,1.2,0,1.9,0v-7.1h-1.5v-1.1
			h8v1.1h-1.5V1696.5z M1064.3,1696.6c0.8,0,1.6,0,2.4-0.1v-7h-2.4V1696.6z M1074.7,1693.8h-2.4v7.5h-1.3V1687h1.3v5.7h2.4V1693.8z"
			/>
		<path class="st5" d="M1080,1694.6c-2.2,0-3.7-1.4-3.7-3.4c0-2,1.6-3.4,3.7-3.4c2.2,0,3.7,1.4,3.7,3.4
			C1083.8,1693.2,1082.2,1694.6,1080,1694.6z M1080,1693.5c1.4,0,2.5-0.9,2.5-2.3c0-1.3-1-2.3-2.5-2.3c-1.4,0-2.5,0.9-2.5,2.3
			C1077.6,1692.6,1078.6,1693.5,1080,1693.5z M1077.8,1696.1h9.3v5.2h-1.3v-4.1h-8V1696.1z M1089.3,1691.7h-2.1v3.7h-1.3v-8.4h1.3
			v3.7h2.1V1691.7z"/>
		<path class="st5" d="M1095.6,1689.3h3.5v1.1h-8.5v-1.1h3.6v-2.1h1.3V1689.3z M1098.5,1694.8c0,2-1.5,3.3-3.5,3.3
			c-2,0-3.5-1.3-3.5-3.3c0-1.9,1.5-3.3,3.5-3.3C1097,1691.5,1098.5,1692.9,1098.5,1694.8z M1097.2,1694.8c0-1.3-0.9-2.2-2.3-2.2
			c-1.3,0-2.2,0.9-2.2,2.2c0,1.3,0.9,2.2,2.2,2.2C1096.3,1697,1097.2,1696.1,1097.2,1694.8z M1104.2,1694h-2.4v7.3h-1.3V1687h1.3
			v5.9h2.4V1694z"/>
		<path class="st5" d="M1113,1688.5c0,4.1-1.9,7.8-6.7,10.1l-0.7-1.1c3.9-1.8,5.8-4.6,6.1-8h-5.4v-1.1H1113z M1117.3,1687v14.4h-1.3
			V1687H1117.3z"/>
		<path class="st5" d="M1133.3,1695.2c-1.4,0.2-2.8,0.4-4.1,0.5v5.2h-1.3v-5.1c-1.4,0.1-2.8,0.1-4,0.1l-0.2-1.1c2.7,0,6.3,0,9.5-0.5
			L1133.3,1695.2z M1124.8,1690.6c0-1.8,1.5-3,3.7-3c2.1,0,3.6,1.2,3.6,3c0,1.7-1.5,2.9-3.6,2.9
			C1126.3,1693.5,1124.8,1692.3,1124.8,1690.6z M1126.1,1690.6c0,1.1,1,1.9,2.4,1.9c1.4,0,2.4-0.8,2.4-1.9c0-1.1-1-1.9-2.4-1.9
			C1127.1,1688.7,1126.1,1689.5,1126.1,1690.6z M1135.6,1687v14.4h-1.3V1687H1135.6z"/>
		<path class="st5" d="M1142.7,1689.4h2.9v1.1h-7.1v-1.1h2.9v-2h1.3V1689.4z M1145.1,1694.7c0,2-1.3,3.3-3.1,3.3s-3.1-1.3-3.1-3.3
			c0-1.9,1.3-3.3,3.1-3.3S1145.1,1692.8,1145.1,1694.7z M1144,1694.7c0-1.2-0.8-2.2-1.9-2.2c-1.1,0-1.9,0.9-1.9,2.2
			c0,1.3,0.8,2.2,1.9,2.2C1143.2,1696.9,1144,1696,1144,1694.7z M1150.7,1686.9v14.4h-1.3v-7.2h-1.8v6.5h-1.2v-13.3h1.2v5.7h1.8
			v-6.1H1150.7z"/>
		<path class="st5" d="M1164.6,1695c-1.6-0.6-2.8-1.8-3.5-3.2c-0.6,1.7-1.9,3-3.6,3.6l-0.7-1c2.1-0.8,3.6-2.7,3.6-4.8v-0.5h-3.2
			v-1.1h7.7v1.1h-3.2v0.5c0,1.8,1.4,3.6,3.5,4.4L1164.6,1695z M1168.7,1698.6c0,1.7-1.8,2.7-4.8,2.7s-4.8-1-4.8-2.7
			c0-1.7,1.8-2.7,4.8-2.7S1168.7,1696.9,1168.7,1698.6z M1167.4,1698.6c0-1-1.3-1.7-3.5-1.7c-2.2,0-3.5,0.6-3.5,1.7
			c0,1,1.3,1.6,3.5,1.6C1166.1,1700.3,1167.4,1699.7,1167.4,1698.6z M1167.3,1690.7v-3.7h1.3v8.5h-1.3v-3.8h-2.8v-1.1H1167.3z"/>
		<path class="st5" d="M1179.1,1688.5c0,4.1-1.9,7.8-6.7,10.1l-0.7-1.1c3.9-1.8,5.8-4.6,6.1-8h-5.4v-1.1H1179.1z M1183.3,1687v14.4
			h-1.3V1687H1183.3z"/>
		<path class="st5" d="M1191.8,1696.4c1.4,0,2.9-0.1,4.6-0.4l0.1,1.1c-1.9,0.4-3.6,0.4-5.1,0.4h-0.9v-8.9h1.3V1696.4z M1202,1687
			v14.3h-1.3v-7.4h-2v6.7h-1.2v-13.3h1.2v5.5h2v-5.8H1202z"/>
		<path class="st5" d="M1217.6,1696.5h-5.9v4.8h-1.3v-4.8h-5.8v-1.1h13V1696.5z M1215.9,1693.7h-9.7v-6.2h1.3v2h7.1v-2h1.3V1693.7z
			 M1214.6,1690.6h-7.1v2.1h7.1V1690.6z"/>
		<path class="st5" d="M1226.5,1687.9c0,3.6-2.5,6.2-6.8,7.4l-0.5-1c3.5-0.9,5.6-2.8,5.9-5.3h-5.2v-1.1H1226.5z M1221.4,1695.8h9
			v5.3h-9V1695.8z M1222.7,1700h6.5v-3.2h-6.5V1700z M1232.5,1691.5h-2.1v3.6h-1.3v-8.2h1.3v3.5h2.1V1691.5z"/>
		<path class="st5" d="M1238.8,1690.8c0,2.5,1.6,5.1,3.6,6.1l-0.8,1c-1.5-0.8-2.8-2.5-3.5-4.5c-0.6,2.1-2,3.9-3.6,4.8l-0.8-1.1
			c2.1-1.1,3.7-3.8,3.7-6.4v-2.6h1.3V1690.8z M1247.4,1693.9h-2.4v7.4h-1.3V1687h1.3v5.8h2.4V1693.9z"/>
		<path class="st5" d="M1261.7,1693.6v1h-13v-1H1261.7z M1251.6,1700.2h9v0.9h-10.3v-3.2h8.5v-1.2h-8.5v-0.9h9.8v3.1h-8.5V1700.2z
			 M1258.8,1688.3h-8.4v-0.9h9.7v3h-8.4v1.2h8.6v0.9h-9.9v-3.1h8.4V1688.3z"/>
		<path class="st5" d="M1275.1,1695.4c-1.6-0.6-3-1.8-3.6-3.3c-0.6,1.6-1.9,2.9-3.6,3.5l-0.7-1c2.2-0.8,3.6-2.6,3.6-4.7v-0.8h-3.3
			v-1.1h7.9v1.1h-3.2v0.8c0,1.9,1.5,3.7,3.6,4.4L1275.1,1695.4z M1279.2,1699.9v1.1h-9.7v-4.5h1.3v3.4H1279.2z M1278.8,1697.5h-1.3
			V1687h1.3V1697.5z"/>
		<path class="st5" d="M1288.9,1689.7h-7.3v-1h3v-1.6h1.3v1.6h3V1689.7z M1285.3,1695.4c-1.8,0-3.1-1-3.1-2.5c0-1.5,1.3-2.4,3.1-2.4
			s3.1,1,3.1,2.4C1288.4,1694.4,1287.1,1695.4,1285.3,1695.4z M1285.3,1694.4c1.1,0,1.9-0.6,1.9-1.5c0-0.9-0.8-1.5-1.9-1.5
			c-1.1,0-1.9,0.6-1.9,1.5C1283.4,1693.8,1284.2,1694.4,1285.3,1694.4z M1293.9,1698.8c0,1.6-1.8,2.5-4.8,2.5s-4.8-0.9-4.8-2.5
			c0-1.6,1.8-2.5,4.8-2.5S1293.9,1697.2,1293.9,1698.8z M1292.6,1698.8c0-1-1.3-1.5-3.5-1.5c-2.2,0-3.5,0.5-3.5,1.5
			c0,0.9,1.3,1.5,3.5,1.5C1291.3,1700.3,1292.6,1699.7,1292.6,1698.8z M1290.8,1695.5h-1.2v-8.3h1.2v3.6h1.8v-3.9h1.3v9.1h-1.3v-4.1
			h-1.8V1695.5z"/>
		<path class="st5" d="M1301.3,1689.3h3.5v1.1h-8.5v-1.1h3.6v-2.1h1.3V1689.3z M1304.2,1694.8c0,2-1.5,3.3-3.5,3.3
			c-2,0-3.5-1.3-3.5-3.3c0-1.9,1.5-3.3,3.5-3.3C1302.7,1691.5,1304.2,1692.9,1304.2,1694.8z M1302.9,1694.8c0-1.3-0.9-2.2-2.3-2.2
			c-1.3,0-2.2,0.9-2.2,2.2c0,1.3,0.9,2.2,2.2,2.2C1302,1697,1302.9,1696.1,1302.9,1694.8z M1309.9,1694h-2.4v7.3h-1.3V1687h1.3v5.9
			h2.4V1694z"/>
		<path class="st5" d="M1324.2,1698.2v1.1h-13v-1.1h5v-5.1h1.3v5.1H1324.2z M1321.3,1689.5h-8.8v-1.1h10.1v1.4c0,1.8,0,3.7-0.5,6.6
			l-1.3-0.1c0.5-2.8,0.5-4.8,0.5-6.5V1689.5z"/>
		<path class="st5" d="M1329.8,1691.1c0-2,1.6-3.3,3.7-3.3c2.2,0,3.8,1.4,3.8,3.3c0,2-1.6,3.3-3.8,3.3
			C1331.4,1694.5,1329.8,1693.1,1329.8,1691.1z M1339.7,1696.6c0,1.5,1.1,3,2.9,3.6l-0.7,1c-1.4-0.5-2.4-1.5-2.9-2.7
			c-0.4,1.2-1.3,2.3-2.7,2.8c-1.4-0.5-2.2-1.6-2.7-2.8c-0.5,1.2-1.5,2.1-2.8,2.7l-0.7-1c1.8-0.6,2.9-2.2,2.9-3.6v-0.8h1.3v0.8
			c0,1.3,0.7,2.6,2,3.4c1.4-0.8,2.1-2.3,2.1-3.4v-0.8h1.3V1696.6z M1331.1,1691.1c0,1.3,1,2.3,2.4,2.3s2.5-0.9,2.5-2.3
			c0-1.3-1.1-2.3-2.5-2.3S1331.1,1689.8,1331.1,1691.1z M1341.3,1695.2h-1.3v-8.2h1.3V1695.2z"/>
		<path class="st5" d="M1357.2,1698.3v1.1h-13v-1.1H1357.2z M1355.9,1691.8c0,2.4-2.2,4-5.2,4s-5.2-1.6-5.2-4c0-2.4,2.2-4,5.2-4
			S1355.9,1689.4,1355.9,1691.8z M1346.7,1691.8c0,1.7,1.7,2.9,4,2.9c2.3,0,4-1.2,4-2.9c0-1.7-1.7-2.9-4-2.9
			C1348.4,1688.9,1346.7,1690.1,1346.7,1691.8z"/>
		<path class="st5" d="M1370.7,1687v14.4h-1.3v-5.9h-3.4v2.3h-6.5v-9.3h6.5v2h3.4v-3.4H1370.7z M1364.7,1689.4h-4v7.2h4V1689.4z
			 M1369.4,1694.3v-2.9h-3.4v2.9H1369.4z"/>
		<path class="st5" d="M1373.6,1702.3c1-0.4,1.6-1.2,1.6-2.2c-0.1,0-0.1,0-0.2,0c-0.6,0-1.1-0.4-1.1-1c0-0.6,0.5-1,1.1-1
			c0.8,0,1.2,0.7,1.2,1.7c0,1.5-0.9,2.7-2.3,3.3L1373.6,1702.3z"/>
		<path class="st5" d="M1385.7,1695c-2.1,0-3.7-1.5-3.7-3.6c0-2.1,1.6-3.5,3.7-3.5c2.1,0,3.8,1.5,3.8,3.5
			C1389.5,1693.6,1387.9,1695,1385.7,1695z M1385.7,1693.9c1.4,0,2.5-1,2.5-2.4c0-1.4-1.1-2.4-2.5-2.4c-1.4,0-2.4,1-2.4,2.4
			C1383.3,1692.9,1384.3,1693.9,1385.7,1693.9z M1393.9,1699.9v1.1h-9.7v-4.6h1.3v3.5H1393.9z M1393.4,1697.5h-1.3V1687h1.3V1697.5z
			"/>
		<path class="st5" d="M1400.3,1693.6c-1.4,0.1-2.7,0.1-3.9,0.1l-0.2-1.1c1.8,0,4.1,0,6.4-0.2c0.3-1.6,0.3-2.7,0.4-3.6h-5.4v-1.1
			h6.7v0.5c0,0.8,0,2.1-0.3,4c0.5,0,1.1-0.1,1.6-0.2l0.1,0.9c-1.3,0.2-2.7,0.4-4,0.5v3.3h-1.3V1693.6z M1408.5,1699.9v1.1h-10.1
			v-4.4h1.3v3.3H1408.5z M1406.9,1694.8v-7.8h1.3v10.8h-1.3v-2h-3.1v-1H1406.9z"/>
		<path class="st5" d="M1422.5,1693.1c0,3.1-1.5,5-3.6,5s-3.6-2-3.6-5c0-3.1,1.5-5,3.6-5S1422.5,1690,1422.5,1693.1z M1416.5,1693.1
			c0,2.3,1,3.8,2.4,3.8c1.4,0,2.4-1.5,2.4-3.8c0-2.3-1-3.8-2.4-3.8C1417.5,1689.2,1416.5,1690.7,1416.5,1693.1z M1426.4,1687v14.4
			h-1.3V1687H1426.4z"/>
		<path class="st5" d="M1442.4,1696.2h-3.3v5.2h-1.3v-5.2h-3.8v5.2h-1.3v-5.2h-3.3v-1.1h13V1696.2z M1441.2,1693.5
			c-2.2-0.4-4.4-1.7-5.3-3.4c-0.9,1.8-3,3-5.3,3.4l-0.5-1.1c2.6-0.4,5.1-2.1,5.1-4.2v-0.8h1.4v0.8c0,2,2.6,3.8,5.1,4.2
			L1441.2,1693.5z"/>
		<path class="st5" d="M1451.5,1688.5c0,4.1-1.9,7.8-6.5,10.1l-0.7-1c3.7-1.8,5.6-4.6,5.9-8h-5.3v-1.1H1451.5z M1457.5,1693.9h-2.3
			v7.4h-1.3V1687h1.3v5.8h2.3V1693.9z"/>
		<path class="st5" d="M1469.7,1693.8h-6.6v-6.3h1.3v2.1h4.1v-2.1h1.3V1693.8z M1468.4,1690.6h-4.1v2.1h4.1V1690.6z M1465.8,1700.1
			h8.3v1h-9.6v-3.6h7.8v-1.5h-7.8v-1h9.1v3.5h-7.8V1700.1z M1475.7,1690v1.1h-2.1v3.2h-1.3v-7.4h1.3v3.1H1475.7z"/>
		<path class="st5" d="M1483.6,1694.7c-1.3-0.5-2.3-1.6-2.8-2.8c-0.5,1.3-1.5,2.6-2.9,3.2l-0.7-1c1.9-0.8,3-2.7,3-4.3v-1.9h1.3v1.9
			c0,1.6,1.1,3.2,2.9,3.9L1483.6,1694.7z M1489.3,1698.7c0,1.6-1.8,2.6-4.8,2.6c-2.9,0-4.8-0.9-4.8-2.6c0-1.6,1.8-2.6,4.8-2.6
			C1487.5,1696.1,1489.3,1697.1,1489.3,1698.7z M1488,1698.7c0-1-1.3-1.6-3.5-1.6c-2.1,0-3.5,0.6-3.5,1.6c0,1,1.3,1.6,3.5,1.6
			C1486.7,1700.3,1488,1699.7,1488,1698.7z M1486.2,1695.4h-1.2v-8.1h1.2v3.6h1.8v-3.8h1.3v8.9h-1.3v-3.9h-1.8V1695.4z"/>
		<path class="st5" d="M1496.7,1689.3h3.5v1.1h-8.5v-1.1h3.6v-2.1h1.3V1689.3z M1499.6,1694.8c0,2-1.5,3.3-3.5,3.3
			c-2,0-3.5-1.3-3.5-3.3c0-1.9,1.5-3.3,3.5-3.3C1498.1,1691.5,1499.6,1692.9,1499.6,1694.8z M1498.3,1694.8c0-1.3-0.9-2.2-2.3-2.2
			c-1.3,0-2.2,0.9-2.2,2.2c0,1.3,0.9,2.2,2.2,2.2C1497.4,1697,1498.3,1696.1,1498.3,1694.8z M1505.3,1694h-2.4v7.3h-1.3V1687h1.3
			v5.9h2.4V1694z"/>
		<path class="st5" d="M1513.4,1693.2c-0.7,0.8-1.7,1.3-2.9,1.3c-2.1,0-3.7-1.4-3.7-3.4c0-2,1.6-3.4,3.7-3.4c1.2,0,2.2,0.5,2.9,1.2
			h3.7v-2h1.3v8.2h-1.3v-1.9H1513.4z M1516.9,1696.5c0,1.5,1.1,3,2.9,3.6l-0.7,1c-1.4-0.5-2.4-1.5-2.9-2.7c-0.4,1.2-1.3,2.3-2.6,2.8
			c-1.4-0.5-2.2-1.6-2.7-2.8c-0.5,1.2-1.5,2.1-2.8,2.7l-0.7-1c1.8-0.7,2.9-2.2,2.9-3.6v-0.9h1.3v0.9c0,1.3,0.7,2.7,2,3.5
			c1.4-0.9,2-2.3,2-3.5v-0.9h1.3V1696.5z M1508.1,1691.1c0,1.3,1,2.3,2.4,2.3c1.4,0,2.4-1,2.4-2.3s-1-2.3-2.4-2.3
			C1509.1,1688.8,1508.1,1689.8,1508.1,1691.1z M1514,1690c0.1,0.3,0.2,0.7,0.2,1.1s-0.1,0.7-0.2,1.1h3.1v-2.1H1514z"/>
		<path class="st5" d="M1534.3,1693.1v1.1h-13v-1.1H1534.3z M1522.8,1689.7c0-1.6,1.9-2.5,5-2.5s5,0.9,5,2.5c0,1.6-1.9,2.5-5,2.5
			S1522.8,1691.3,1522.8,1689.7z M1524.2,1700.1h8.9v1h-10.1v-3.4h8.4v-1.3h-8.5v-1h9.8v3.2h-8.4V1700.1z M1524.1,1689.7
			c0,1,1.3,1.5,3.7,1.5c2.4,0,3.7-0.5,3.7-1.5c0-1-1.3-1.5-3.7-1.5C1525.4,1688.2,1524.1,1688.7,1524.1,1689.7z"/>
		<path class="st5" d="M1546.5,1690.7c-0.9,2.3-3.1,4-6.2,4.9l-0.5-1c3.4-1,5.6-2.9,5.8-5.4h-5.1v-1.1h6.5c0,0.5-0.1,1.1-0.2,1.6
			h3.2v-2.6h1.3v8.6h-1.3v-1.9h-3.8v-1.1h3.8v-1.9H1546.5z M1551.5,1698.5c0,1.7-1.9,2.8-4.8,2.8s-4.8-1-4.8-2.8s1.9-2.8,4.8-2.8
			S1551.5,1696.7,1551.5,1698.5z M1550.2,1698.5c0-1.1-1.3-1.7-3.5-1.7c-2.1,0-3.5,0.7-3.5,1.7c0,1.1,1.3,1.7,3.5,1.7
			C1548.9,1700.2,1550.2,1699.6,1550.2,1698.5z"/>
		<path class="st5" d="M1567.3,1696.3h-5.9v5.1h-1.3v-5.1h-5.8v-1.1h13V1696.3z M1555.8,1690.7c0-1.9,2-3.1,5-3.1c3,0,5,1.2,5,3.1
			c0,1.9-2,3.2-5,3.2C1557.8,1693.8,1555.8,1692.6,1555.8,1690.7z M1557.1,1690.7c0,1.3,1.5,2.1,3.7,2.1c2.2,0,3.7-0.8,3.7-2.1
			c0-1.3-1.5-2.1-3.7-2.1C1558.6,1688.6,1557.1,1689.4,1557.1,1690.7z"/>
	</g>
	<g class="st4">
		<path class="st5" d="M836.7,1721c-1.6-0.6-2.8-1.8-3.5-3.2c-0.6,1.7-1.9,3-3.6,3.6l-0.7-1c2.1-0.8,3.6-2.7,3.6-4.8v-0.5h-3.2v-1.1
			h7.7v1.1h-3.2v0.5c0,1.8,1.4,3.6,3.5,4.4L836.7,1721z M840.7,1724.6c0,1.7-1.8,2.7-4.8,2.7c-2.9,0-4.8-1-4.8-2.7
			c0-1.7,1.8-2.7,4.8-2.7C838.9,1722,840.7,1722.9,840.7,1724.6z M839.4,1724.6c0-1-1.3-1.7-3.5-1.7c-2.2,0-3.5,0.6-3.5,1.7
			c0,1,1.3,1.6,3.5,1.6C838.1,1726.3,839.4,1725.7,839.4,1724.6z M839.3,1716.7v-3.7h1.3v8.5h-1.3v-3.8h-2.8v-1.1H839.3z"/>
		<path class="st5" d="M847.8,1715.4h2.9v1.1h-7.1v-1.1h2.9v-2h1.3V1715.4z M850.2,1720.7c0,2-1.3,3.3-3.1,3.3s-3.1-1.3-3.1-3.3
			c0-1.9,1.3-3.3,3.1-3.3S850.2,1718.8,850.2,1720.7z M849,1720.7c0-1.2-0.8-2.2-1.9-2.2c-1.1,0-1.9,0.9-1.9,2.2
			c0,1.3,0.8,2.2,1.9,2.2C848.2,1722.9,849,1722,849,1720.7z M855.7,1712.9v14.4h-1.3v-7.2h-1.8v6.5h-1.2v-13.3h1.2v5.7h1.8v-6.1
			H855.7z"/>
		<path class="st5" d="M866.4,1721.4c-1.6-0.6-3-1.8-3.6-3.3c-0.6,1.6-1.9,2.9-3.6,3.5l-0.7-1c2.2-0.8,3.6-2.6,3.6-4.7v-0.8h-3.3
			v-1.1h7.9v1.1h-3.2v0.8c0,1.9,1.5,3.7,3.6,4.4L866.4,1721.4z M870.5,1725.9v1.1h-9.7v-4.5h1.3v3.4H870.5z M870.1,1723.5h-1.3V1713
			h1.3V1723.5z"/>
		<path class="st5" d="M884.4,1720.2c-1.6-0.5-2.9-1.6-3.5-3c-0.6,1.5-1.9,2.8-3.6,3.4l-0.7-1c2.1-0.7,3.6-2.5,3.6-4.4v-0.4H877
			v-1.1h7.7v1.1h-3.2v0.4c0,1.7,1.4,3.4,3.5,4L884.4,1720.2z M888.9,1726.1v1h-9.8v-3.6h7.9v-1.4h-8v-1h9.3v3.4h-7.9v1.6H888.9z
			 M887.1,1716.2v-3.2h1.3v7.4h-1.3v-3.2h-2.8v-1.1H887.1z"/>
		<path class="st5" d="M896.1,1717.6c0,2.3,1.4,4.7,3.5,5.7l-0.7,1c-1.6-0.8-2.8-2.3-3.4-4.2c-0.6,2-1.9,3.6-3.6,4.4l-0.7-1
			c2.1-1,3.6-3.5,3.6-5.9v-1.1h-3.2v-1.1h3.2v-2.2h1.3v2.2h3.2v1.1h-3.2V1717.6z M904.7,1719.9h-2.4v7.4H901V1713h1.3v5.9h2.4
			V1719.9z"/>
		<path class="st5" d="M914.1,1713.3h1.2v13.3h-1.2v-7h-1.8c-0.1,2.8-1.3,4.5-3,4.5c-1.9,0-3.1-1.9-3.1-5c0-3.1,1.2-5,3.1-5
			c1.7,0,2.9,1.7,3,4.4h1.8V1713.3z M911.1,1719.1c0-2.3-0.7-3.8-1.9-3.8c-1.2,0-1.9,1.5-1.9,3.8c0,2.4,0.7,3.8,1.9,3.8
			C910.4,1722.9,911.1,1721.5,911.1,1719.1z M918.2,1713v14.4H917V1713H918.2z"/>
		<path class="st5" d="M926.1,1722.4c0.7,0,1.5-0.1,2.5-0.3l0.1,1.1c-1.3,0.3-2.4,0.3-3.3,0.3h-0.6v-9.1h3.6v1.1h-2.3V1722.4z
			 M930.5,1722.5c1.1,0,2-0.1,2.9-0.3l0.1,1.1c-1.2,0.3-2.2,0.3-3.7,0.3h-0.7v-9.1h3.8v1.1h-2.5V1722.5z M937.7,1719.7h-2.1v7.6
			h-1.3v-14.4h1.3v5.7h2.1V1719.7z"/>
		<path class="st5" d="M940.9,1722.8c2.6,0,4.5-0.1,6.6-0.5l0.1,1.1c-2.2,0.4-4.2,0.5-6.9,0.5h-1.1v-5.5h5.2v-3h-5.2v-1.1h6.5v5.2
			h-5.2V1722.8z M952.5,1719.8h-2.4v7.6h-1.3v-14.4h1.3v5.7h2.4V1719.8z"/>
		<path class="st5" d="M965.3,1721.1c-1.6-0.6-2.9-1.9-3.5-3.6c-0.6,1.7-1.9,3.1-3.6,3.8l-0.7-1.1c2.2-0.8,3.6-2.9,3.6-5.2v-1.5h1.3
			v1.5c0,2.2,1.5,4.1,3.6,4.9L965.3,1721.1z M969.6,1725.9v1.1h-9.7v-4.5h1.3v3.4H969.6z M969.1,1723.5h-1.3V1713h1.3V1723.5z"/>
		<path class="st5" d="M985.1,1724.2v1.1h-13v-1.1h5v-5.1h1.3v5.1H985.1z M982.2,1715.5h-8.8v-1.1h10.1v1.4c0,1.8,0,3.7-0.5,6.6
			l-1.3-0.1c0.5-2.8,0.5-4.8,0.5-6.5V1715.5z"/>
		<path class="st5" d="M995.3,1715.3h-8.5v-1h3.6v-1.5h1.3v1.5h3.6V1715.3z M991.1,1720.6c-2.1,0-3.4-0.9-3.4-2.4
			c0-1.5,1.4-2.4,3.4-2.4c2.1,0,3.4,0.9,3.4,2.4C994.5,1719.7,993.2,1720.6,991.1,1720.6z M990.1,1726.1h8.3v1h-9.6v-3.3h7.8v-1.2
			h-7.8v-1h9.1v3.2h-7.8V1726.1z M991.1,1719.6c1.3,0,2.2-0.5,2.2-1.4s-0.9-1.4-2.2-1.4s-2.2,0.5-2.2,1.4S989.7,1719.6,991.1,1719.6
			z M1000.1,1716.4v1.1h-2.1v3.4h-1.3v-7.9h1.3v3.5H1000.1z"/>
		<path class="st5" d="M1018.1,1722.1h-5.9v5.2h-1.3v-5.2h-5.8v-1.1h13L1018.1,1722.1z M1016.9,1719.5c-2.2-0.4-4.4-1.6-5.3-3.4
			c-0.9,1.7-3.1,3-5.3,3.4l-0.5-1.1c2.6-0.4,5.1-2.1,5.1-4.2v-0.8h1.4v0.8c0,2,2.6,3.8,5.2,4.2L1016.9,1719.5z"/>
		<path class="st5" d="M1023.7,1717.1c0-2,1.6-3.3,3.7-3.3c2.2,0,3.8,1.4,3.8,3.3c0,2-1.6,3.3-3.8,3.3
			C1025.3,1720.5,1023.7,1719.1,1023.7,1717.1z M1033.6,1722.6c0,1.5,1.1,3,2.9,3.6l-0.7,1c-1.4-0.5-2.4-1.5-2.9-2.7
			c-0.4,1.2-1.3,2.3-2.7,2.8c-1.4-0.5-2.2-1.6-2.7-2.8c-0.5,1.2-1.5,2.1-2.8,2.7l-0.7-1c1.8-0.6,2.9-2.2,2.9-3.6v-0.8h1.3v0.8
			c0,1.3,0.7,2.6,2,3.4c1.4-0.8,2.1-2.3,2.1-3.4v-0.8h1.3V1722.6z M1025,1717.1c0,1.3,1,2.3,2.4,2.3c1.4,0,2.5-0.9,2.5-2.3
			c0-1.3-1.1-2.3-2.5-2.3C1026,1714.9,1025,1715.8,1025,1717.1z M1035.2,1721.2h-1.3v-8.2h1.3V1721.2z"/>
		<path class="st5" d="M1051.1,1720.3v1.1h-13v-1.1H1051.1z M1041.1,1725.9h8.6v1.1h-9.9v-4.2h1.3V1725.9z M1049.6,1718.3h-9.8v-4.9
			h1.3v3.8h8.5V1718.3z"/>
		<path class="st5" d="M1060.6,1717.4c0,2.3,1.2,4.6,3.1,5.7l-0.8,1c-1.4-0.8-2.4-2.2-2.9-3.9c-0.5,1.8-1.5,3.4-2.9,4.3l-0.8-1
			c1.9-1.1,3.1-3.6,3.1-6v-0.7h-2.7v-1.1h2.7v-2.1h1.3v2.1h2.7v1.1h-2.7V1717.4z M1068.7,1713v14.4h-1.3v-7.5h-1.9v6.8h-1.2v-13.3
			h1.2v5.5h1.9v-5.8H1068.7z"/>
		<path class="st5" d="M1079.6,1719.2c-2.2,0.4-4.2,0.6-6.5,0.6h-1.1v-6.1h1.3v5c2.2,0,4.1-0.1,6.2-0.5L1079.6,1719.2z
			 M1083.5,1726.1v1.1h-9.7v-3.6h7.9v-1.4h-7.9v-1.1h9.3v3.5h-7.9v1.6H1083.5z M1081.7,1716.4h-4.1v-1.1h4.1v-2.4h1.3v7.4h-1.3
			V1716.4z"/>
		<path class="st5" d="M1098.9,1719.1v1.1h-13v-1.1H1098.9z M1087.3,1715.7c0-1.6,1.9-2.5,5-2.5s5,0.9,5,2.5c0,1.6-1.9,2.5-5,2.5
			S1087.3,1717.3,1087.3,1715.7z M1088.8,1726.1h8.9v1h-10.1v-3.4h8.4v-1.3h-8.5v-1h9.8v3.2h-8.4V1726.1z M1088.7,1715.7
			c0,1,1.3,1.5,3.7,1.5s3.7-0.5,3.7-1.5c0-1-1.3-1.5-3.7-1.5S1088.7,1714.7,1088.7,1715.7z"/>
		<path class="st5" d="M1117.2,1720.2v1.1h-5.7v2.9h-1.3v-2.9h-6v-1.1H1117.2z M1105.6,1716.2c0-1.8,2-2.9,5-2.9c3,0,5,1.1,5,2.9
			c0,1.8-2,2.9-5,2.9C1107.6,1719.1,1105.6,1718,1105.6,1716.2z M1107.1,1725.9h8.6v1.1h-9.9v-4.2h1.3V1725.9z M1107,1716.2
			c0,1.1,1.5,1.8,3.6,1.8c2.2,0,3.6-0.7,3.6-1.8c0-1.1-1.4-1.8-3.6-1.8C1108.5,1714.4,1107,1715.1,1107,1716.2z"/>
		<path class="st5" d="M1125.7,1719.4c-0.7,0.8-1.7,1.2-2.9,1.2c-2.1,0-3.7-1.4-3.7-3.4c0-2,1.6-3.4,3.7-3.4c1.2,0,2.2,0.5,2.9,1.2
			h3.7v-2.1h1.3v8.5h-1.3v-2H1125.7z M1122.8,1719.5c1.4,0,2.4-1,2.4-2.3c0-1.3-1-2.3-2.4-2.3c-1.4,0-2.4,1-2.4,2.3
			C1120.4,1718.6,1121.4,1719.5,1122.8,1719.5z M1130.8,1724.5c0,1.7-1.8,2.8-4.8,2.8c-2.9,0-4.8-1-4.8-2.8c0-1.7,1.8-2.8,4.8-2.8
			C1128.9,1721.8,1130.8,1722.8,1130.8,1724.5z M1129.5,1724.5c0-1.1-1.3-1.7-3.5-1.7c-2.2,0-3.5,0.6-3.5,1.7c0,1.1,1.3,1.7,3.5,1.7
			C1128.2,1726.3,1129.5,1725.6,1129.5,1724.5z M1126.3,1716.1c0.1,0.3,0.2,0.7,0.2,1.1c0,0.4-0.1,0.8-0.2,1.1h3.1v-2.2H1126.3z"/>
		<path class="st5" d="M1142.1,1715.5h-8.5v-1.1h3.6v-1.6h1.3v1.6h3.6V1715.5z M1137.9,1721.2c-2,0-3.4-1-3.4-2.5
			c0-1.5,1.4-2.5,3.4-2.5s3.4,1,3.4,2.5C1141.3,1720.2,1139.9,1721.2,1137.9,1721.2z M1137.9,1720.2c1.3,0,2.2-0.6,2.2-1.5
			c0-0.9-0.9-1.5-2.2-1.5s-2.2,0.6-2.2,1.5C1135.7,1719.6,1136.6,1720.2,1137.9,1720.2z M1143.5,1721.9h1.3v5.2h-9v-5.2h1.3v1.5h6.4
			V1721.9z M1143.5,1724.5h-6.4v1.6h6.4V1724.5z M1146.9,1717.7h-2.1v3.6h-1.3v-8.3h1.3v3.6h2.1V1717.7z"/>
		<path class="st5" d="M1150.5,1722.5c2.2,0,4.4-0.2,6.8-0.7l0.1,1.1c-2.5,0.5-4.8,0.7-7,0.7h-1.2v-9.3h1.3V1722.5z M1160.1,1713
			v14.3h-1.3V1713H1160.1z"/>
		<path class="st5" d="M1165,1722.6c2.5,0,4.4-0.1,6.5-0.5l0.1,1.1c-2.2,0.4-4.1,0.5-6.8,0.5h-1.1v-9.4h6.7v1.1h-5.4V1722.6z
			 M1176.5,1719.7h-2.4v7.6h-1.3V1713h1.3v5.7h2.4V1719.7z"/>
		<path class="st5" d="M1178.1,1725.2c0-0.7,0.5-1.1,1.1-1.1s1.1,0.5,1.1,1.1s-0.5,1.1-1.1,1.1S1178.1,1725.9,1178.1,1725.2z"/>
	</g>
	<g class="st4">
		<path class="st1" d="M788.9,1702.8h-5v2.2c0.2-0.2,0.5-0.4,0.9-0.6c0.4-0.1,0.8-0.2,1.2-0.2c0.8,0,1.5,0.2,2,0.5
			c0.5,0.4,0.9,0.8,1.2,1.4c0.2,0.6,0.4,1.2,0.4,1.9c0,1.2-0.4,2.2-1.1,3s-1.7,1.1-3,1.1c-0.9,0-1.6-0.1-2.2-0.4
			c-0.6-0.3-1.1-0.7-1.5-1.2s-0.5-1.1-0.6-1.8h2.7c0.1,0.3,0.2,0.6,0.5,0.8c0.2,0.2,0.6,0.3,1,0.3c0.5,0,0.9-0.2,1.1-0.5
			c0.2-0.3,0.4-0.7,0.4-1.3c0-0.5-0.1-0.9-0.4-1.2c-0.3-0.3-0.6-0.4-1.1-0.4c-0.4,0-0.7,0.1-0.9,0.3c-0.2,0.2-0.4,0.4-0.5,0.7h-2.6
			v-7h7.5V1702.8z"/>
	</g>
</g>
</svg>
