<?xml version="1.0" encoding="utf-8"?>
<!-- Generator: Adobe Illustrator 25.1.0, SVG Export Plug-In . SVG Version: 6.00 Build 0)  -->
<svg version="1.1" id="레이어_1" xmlns="http://www.w3.org/2000/svg" xmlns:xlink="http://www.w3.org/1999/xlink" x="0px"
	 y="0px" viewBox="0 0 335.2 509.6" style="enable-background:new 0 0 335.2 509.6;" xml:space="preserve">
<style type="text/css">
	.st0{fill:#E3F4FA;}
	.st1{fill:none;stroke:#2AA6D3;stroke-linecap:round;stroke-linejoin:round;stroke-dasharray:0,1.101;}
	.st2{enable-background:new    ;}
	.st3{fill:#555555;}
	.st4{fill:#2AA6D3;}
	.st5{fill:#FFFFFF;}
</style>
<g id="그룹_5776" transform="translate(-20 -1772)">
	<path id="패스_2891" class="st0" d="M20,1865.6h335.2V1772H20V1865.6z"/>
	<path id="패스_5571" class="st0" d="M20,1969.6h335.2V1876H20V1969.6z"/>
	<path id="패스_5573" class="st0" d="M20,2073.6h335.2V1980H20V2073.6z"/>
	<path id="패스_5575" class="st0" d="M20,2177.6h335.2V2084H20V2177.6z"/>
	<path id="패스_5577" class="st0" d="M20,2281.6h335.2V2188H20V2281.6z"/>
	<path id="패스_2876" class="st1" d="M51.7,1827.9v398.8"/>
	<g class="st2">
		<path class="st3" d="M84.7,1793.6c0-2.8,1.5-4.5,3.8-4.5c2.2,0,3.8,1.7,3.8,4.5s-1.5,4.6-3.8,4.6S84.7,1796.4,84.7,1793.6z
			 M91.1,1793.6c0-2.2-1-3.6-2.6-3.6s-2.6,1.4-2.6,3.6s1,3.6,2.6,3.6C90,1797.2,91.1,1795.8,91.1,1793.6z"/>
		<path class="st3" d="M93.6,1793.6c0-2.8,1.7-4.6,3.9-4.6c1.1,0,1.9,0.5,2.4,1.1l-0.6,0.7c-0.5-0.5-1-0.8-1.8-0.8
			c-1.7,0-2.8,1.4-2.8,3.6s1.1,3.6,2.7,3.6c0.8,0,1.5-0.4,2-1l0.6,0.7c-0.7,0.8-1.6,1.3-2.7,1.3
			C95.2,1798.2,93.6,1796.5,93.6,1793.6z"/>
		<path class="st3" d="M101.8,1789.2h1.1v8.8h-1.1V1789.2z"/>
	</g>
	<g class="st2">
		<path class="st3" d="M110.2,1789.3c0,3.1-1.4,5.8-4.9,7.6l-0.5-0.8c2.7-1.4,4.2-3.4,4.4-6h-3.9v-0.8L110.2,1789.3L110.2,1789.3z
			 M114.7,1793.3H113v5.6h-1v-10.8h1v4.4h1.7V1793.3z"/>
		<path class="st3" d="M122,1791c0,1.9,1.2,3.8,2.7,4.6l-0.6,0.8c-1.1-0.6-2.1-1.9-2.6-3.3c-0.5,1.6-1.5,2.9-2.7,3.6l-0.6-0.8
			c1.5-0.8,2.8-2.9,2.8-4.8v-1.9h1V1791z M128.5,1793.3h-1.8v5.6h-1v-10.7h1v4.4h1.8V1793.3z"/>
		<path class="st3" d="M138.3,1788.1v5.8h-1v-2.4h-2.2c-0.2,1.3-1.3,2.1-2.7,2.1c-1.6,0-2.8-1-2.8-2.5s1.2-2.5,2.8-2.5
			c1.5,0,2.5,0.8,2.7,2.1h2.2v-2.6H138.3z M134.3,1791.1c0-1-0.8-1.7-1.8-1.7s-1.8,0.7-1.8,1.7s0.8,1.7,1.8,1.7
			S134.3,1792.1,134.3,1791.1z M137.4,1794.4h1v4.3h-6.9v-4.3h1v1.4h4.9V1794.4z M137.4,1796.6h-4.9v1.4h4.9V1796.6z"/>
		<path class="st3" d="M150.2,1792.8v0.8h-9.7v-0.8H150.2z M141.6,1790.2c0-1.2,1.4-1.9,3.8-1.9c2.4,0,3.8,0.7,3.8,1.9
			c0,1.2-1.4,1.9-3.8,1.9C143,1792,141.6,1791.4,141.6,1790.2z M142.7,1798h6.6v0.8h-7.6v-2.6h6.3v-1h-6.3v-0.7h7.3v2.4h-6.3V1798z
			 M142.6,1790.2c0,0.7,1,1.1,2.8,1.1s2.8-0.4,2.8-1.1s-1-1.1-2.8-1.1S142.6,1789.5,142.6,1790.2z"/>
		<path class="st3" d="M159.4,1793c-0.5,0.6-1.3,0.9-2.2,0.9c-1.6,0-2.8-1.1-2.8-2.6s1.2-2.5,2.8-2.5c0.9,0,1.7,0.3,2.2,0.9h2.8
			v-1.5h1v6.4h-1v-1.5h-2.8V1793z M157.2,1793c1.1,0,1.8-0.7,1.8-1.7s-0.8-1.7-1.8-1.7s-1.8,0.7-1.8,1.7S156.1,1793,157.2,1793z
			 M163.1,1796.8c0,1.3-1.4,2.1-3.6,2.1c-2.2,0-3.6-0.8-3.6-2.1c0-1.3,1.4-2.1,3.6-2.1C161.8,1794.8,163.1,1795.5,163.1,1796.8z
			 M162.2,1796.8c0-0.8-1-1.3-2.6-1.3s-2.6,0.5-2.6,1.3s1,1.3,2.6,1.3C161.2,1798.1,162.2,1797.6,162.2,1796.8z M159.8,1790.5
			c0.1,0.3,0.1,0.5,0.1,0.8s0,0.6-0.1,0.8h2.3v-1.7L159.8,1790.5L159.8,1790.5z"/>
		<path class="st3" d="M172.4,1794.3c-1,0.2-2.1,0.3-3.1,0.4v3.9h-1v-3.8c-1.1,0-2.1,0.1-3,0.1l-0.1-0.8c2,0,4.7,0,7.1-0.4
			L172.4,1794.3z M166.1,1790.9c0-1.3,1.1-2.2,2.7-2.2c1.6,0,2.7,0.9,2.7,2.2c0,1.3-1.1,2.2-2.7,2.2
			C167.2,1793.1,166.1,1792.2,166.1,1790.9z M167,1790.9c0,0.8,0.7,1.4,1.8,1.4c1,0,1.8-0.6,1.8-1.4s-0.7-1.4-1.8-1.4
			C167.8,1789.4,167,1790,167,1790.9z M174.1,1788.1v10.8h-1v-10.8H174.1z"/>
		<path class="st3" d="M182.7,1790.1h-6.3v-0.8h2.7v-1.2h1v1.2h2.7L182.7,1790.1L182.7,1790.1z M179.5,1794.4
			c-1.5,0-2.6-0.7-2.6-1.9c0-1.2,1-1.9,2.6-1.9s2.6,0.7,2.6,1.9C182.1,1793.7,181.1,1794.4,179.5,1794.4z M179.5,1793.7
			c1,0,1.6-0.5,1.6-1.2s-0.7-1.2-1.6-1.2s-1.6,0.5-1.6,1.2S178.5,1793.7,179.5,1793.7z M177.9,1795.2h6.8v3.5h-6.8V1795.2z
			 M178.9,1798h4.8v-2h-4.8V1798z M186.3,1791.8h-1.6v2.8h-1v-6.5h1v2.9h1.6V1791.8z"/>
		<path class="st3" d="M193.4,1788.4h0.9v10h-0.9v-5.2H192c-0.1,2.1-1,3.4-2.3,3.4c-1.4,0-2.3-1.4-2.3-3.8c0-2.3,0.9-3.7,2.3-3.7
			c1.3,0,2.2,1.3,2.3,3.3h1.4V1788.4z M191.2,1792.8c0-1.7-0.6-2.8-1.4-2.8c-0.9,0-1.4,1.1-1.4,2.8c0,1.8,0.5,2.9,1.4,2.9
			C190.6,1795.6,191.2,1794.5,191.2,1792.8z M196.5,1788.1v10.8h-0.9v-10.8H196.5z"/>
		<path class="st3" d="M201.3,1791.3c0-1.5,1.2-2.5,2.8-2.5s2.8,1,2.8,2.5s-1.2,2.5-2.8,2.5S201.3,1792.8,201.3,1791.3z
			 M208.7,1795.3c0,1.1,0.8,2.2,2.2,2.7l-0.5,0.7c-1.1-0.4-1.8-1.1-2.2-2c-0.3,0.9-1,1.7-2,2.1c-1-0.4-1.7-1.2-2-2.1
			c-0.4,0.9-1.1,1.6-2.1,2l-0.5-0.7c1.4-0.5,2.2-1.6,2.2-2.7v-0.6h0.9v0.6c0,0.9,0.5,2,1.5,2.6c1-0.6,1.5-1.7,1.5-2.6v-0.6h1
			L208.7,1795.3L208.7,1795.3z M202.3,1791.3c0,1,0.8,1.7,1.8,1.7s1.9-0.7,1.9-1.7s-0.8-1.7-1.9-1.7S202.3,1790.3,202.3,1791.3z
			 M209.9,1794.3h-1v-6.1h1V1794.3z"/>
		<path class="st3" d="M221,1788.1v10.8h-1v-5.9h-2.3c-0.1,2.1-1.2,3.4-2.7,3.4c-1.6,0-2.7-1.5-2.7-3.8s1.1-3.8,2.7-3.8
			c1.5,0,2.5,1.3,2.7,3.3h2.3v-4.1L221,1788.1L221,1788.1z M216.8,1792.7c0-1.7-0.7-2.9-1.7-2.9s-1.8,1.1-1.8,2.9s0.7,2.9,1.8,2.9
			C216,1795.6,216.8,1794.5,216.8,1792.7z"/>
		<path class="st3" d="M228.9,1794.2c-1.6,0-2.8-1.1-2.8-2.7c0-1.5,1.2-2.6,2.8-2.6s2.8,1.1,2.8,2.6
			C231.7,1793.1,230.5,1794.2,228.9,1794.2z M228.9,1793.3c1.1,0,1.9-0.7,1.9-1.8c0-1-0.8-1.8-1.9-1.8c-1,0-1.8,0.7-1.8,1.8
			C227.1,1792.6,227.9,1793.3,228.9,1793.3z M235,1797.8v0.8h-7.2v-3.5h1v2.7H235z M234.7,1796h-1v-7.9h1V1796z"/>
		<path class="st3" d="M239.9,1793.1c-1,0-2,0.1-2.9,0.1l-0.1-0.8c1.4,0,3.1,0,4.8-0.1c0.2-1.2,0.3-2.1,0.3-2.7h-4.1v-0.8h5v0.4
			c0,0.6,0,1.6-0.2,3c0.4,0,0.8-0.1,1.2-0.1l0.1,0.7c-1,0.2-2,0.3-3,0.3v2.5h-1v-2.5H239.9z M246,1797.8v0.8h-7.6v-3.3h1v2.5H246z
			 M244.8,1794v-5.9h1v8.1h-1v-1.5h-2.3v-0.8h2.3V1794z"/>
		<path class="st3" d="M257.7,1796.7v0.8h-9.8v-0.8h4.4v-2.3h-3.2v-5.5h1v1.9h5.5v-1.9h1v5.5h-3.2v2.3H257.7z M250.1,1793.6h5.5v-2
			h-5.5V1793.6z"/>
		<path class="st3" d="M268.7,1796.8v0.8H259v-0.8h4.4v-1.5c-1.9-0.1-3-0.8-3-2c0-1.3,1.4-2,3.5-2s3.5,0.7,3.5,2c0,1.2-1.1,1.9-3,2
			v1.5H268.7z M268.2,1790.5h-8.7v-0.8h3.9v-1.4h1v1.4h3.8L268.2,1790.5L268.2,1790.5z M263.9,1794.6c1.5,0,2.5-0.5,2.5-1.3
			s-1-1.3-2.5-1.3c-1.6,0-2.5,0.5-2.5,1.3C261.3,1794.1,262.3,1794.6,263.9,1794.6z"/>
		<path class="st3" d="M279.8,1793.1v0.7H270v-0.7H279.8z M272.2,1798h6.7v0.7h-7.7v-2.4h6.4v-0.9h-6.4v-0.7h7.4v2.3h-6.4V1798z
			 M277.6,1789.1h-6.3v-0.7h7.3v2.2h-6.3v0.9h6.5v0.7h-7.4v-2.3h6.3v-0.8H277.6z"/>
		<path class="st3" d="M289.2,1789.3c0,3.1-1.4,5.8-4.9,7.6l-0.5-0.8c2.7-1.4,4.2-3.4,4.5-6h-3.9v-0.8L289.2,1789.3L289.2,1789.3z
			 M293.8,1793.3H292v5.6h-1v-10.8h1v4.4h1.7L293.8,1793.3L293.8,1793.3z"/>
		<path class="st3" d="M300.6,1794.1c-1.2-0.4-2.1-1.2-2.6-2.3c-0.5,1.2-1.4,2.2-2.7,2.6l-0.5-0.8c1.6-0.6,2.7-2,2.7-3.5v-0.4H295
			v-0.8h5.8v0.8h-2.4v0.4c0,1.4,1,2.7,2.6,3.2L300.6,1794.1z M303.3,1796.9c0,1.3-1.4,2-3.5,2c-2.2,0-3.6-0.7-3.6-2
			c0-1.2,1.3-2,3.6-2C301.9,1794.9,303.3,1795.6,303.3,1796.9z M302.3,1796.9c0-0.8-1-1.2-2.6-1.2s-2.6,0.4-2.6,1.2
			c0,0.8,1,1.2,2.6,1.2S302.3,1797.7,302.3,1796.9z M304.7,1790.9v0.8h-1.6v3h-1v-6.5h1v2.7H304.7z"/>
	</g>
	<g class="st2">
		<path class="st3" d="M90.3,1806.3c0,3.1-1.4,5.8-5,7.6l-0.5-0.8c2.9-1.4,4.3-3.4,4.5-6h-4v-0.8L90.3,1806.3L90.3,1806.3z
			 M93.5,1805.1v10.8h-1v-10.8H93.5z"/>
		<path class="st3" d="M105.4,1811v0.8h-9.7v-0.8h4.4v-1.2H97v-4.3h1v1.4h5.2v-1.4h1v4.3H101v1.2H105.4z M97.9,1814.8h6.4v0.8h-7.4
			v-3h1V1814.8z M97.9,1809.1h5.2v-1.4h-5.2V1809.1z"/>
		<path class="st3" d="M112.6,1811.2c-1.2-0.4-2.1-1.3-2.6-2.4c-0.5,1.2-1.4,2.2-2.7,2.7l-0.5-0.8c1.6-0.6,2.7-2,2.7-3.5v-0.4h-2.4
			v-0.8h5.7v0.8h-2.4v0.4c0,1.4,1.1,2.7,2.6,3.3L112.6,1811.2z M108.4,1812.2h7.2v3.7h-1v-3h-6.2V1812.2z M115.6,1805.1v6.4h-1v-2.8
			h-2.1v-0.8h2.1v-2.8L115.6,1805.1L115.6,1805.1z"/>
		<path class="st3" d="M120.8,1811.2c-1.6,0-2.8-1.1-2.8-2.7c0-1.5,1.2-2.6,2.8-2.6c1.6,0,2.8,1.1,2.8,2.6
			C123.6,1810.1,122.4,1811.2,120.8,1811.2z M120.8,1810.3c1.1,0,1.9-0.7,1.9-1.8c0-1-0.8-1.8-1.9-1.8c-1,0-1.8,0.7-1.8,1.8
			C119,1809.6,119.8,1810.3,120.8,1810.3z M126.9,1814.8v0.8h-7.2v-3.5h1v2.7H126.9z M126.6,1813h-1v-7.9h1V1813z"/>
		<path class="st3" d="M136.4,1811.2c-1-0.4-1.8-1.2-2.2-2.2c-0.3,1.1-1.1,1.9-2.2,2.4l-0.5-0.7c1.4-0.6,2.2-1.9,2.2-3.2v-0.1h-1.9
			v-0.8h1.9v-1.3h0.9v1.3h1.9v0.8h-1.9v0.1c0,1.3,0.8,2.5,2.2,3L136.4,1811.2z M133.3,1812.3h7.2v3.6h-1v-2.8h-6.2V1812.3z
			 M140.6,1805.1v6.6h-0.9v-2.9h-1.4v2.9h-0.9v-6.3h0.9v2.7h1.4v-2.9L140.6,1805.1L140.6,1805.1z"/>
		<path class="st3" d="M148.4,1808.2c0,1.5-1.2,2.5-2.8,2.5s-2.8-1-2.8-2.5s1.2-2.5,2.8-2.5S148.4,1806.7,148.4,1808.2z
			 M143.7,1808.2c0,1,0.8,1.7,1.8,1.7c1.1,0,1.9-0.7,1.9-1.7s-0.8-1.7-1.9-1.7C144.5,1806.5,143.7,1807.2,143.7,1808.2z
			 M151.4,1811.9v3.9h-7v-3.9H151.4z M145.4,1812.6v2.3h5v-2.3H145.4z M151.4,1805.1v6.2h-1v-6.2H151.4z"/>
		<path class="st3" d="M163.3,1813.6v0.8h-9.8v-0.8H163.3z M162.3,1808.8c0,1.8-1.7,3-3.9,3s-3.9-1.2-3.9-3s1.7-3,3.9-3
			C160.7,1805.8,162.3,1807,162.3,1808.8z M155.4,1808.8c0,1.3,1.3,2.2,3,2.2s3-0.9,3-2.2c0-1.3-1.3-2.2-3-2.2
			C156.7,1806.6,155.4,1807.5,155.4,1808.8z"/>
		<path class="st3" d="M174.4,1813.8v0.8h-9.8v-0.8h4.4v-2h-3.2v-3.3h6.4v-1.7h-6.4v-0.8h7.4v3.3h-6.4v1.7h6.6v0.8H170v2H174.4z"/>
		<path class="st3" d="M187.2,1805.1v10.8h-1v-4.2h-2.7c-0.4,1.1-1.3,1.7-2.3,1.7c-1.6,0-2.7-1.5-2.7-3.8s1.1-3.8,2.7-3.8
			c1,0,1.8,0.6,2.2,1.6h2.8v-2.4h1V1805.1z M183,1809.7c0-1.7-0.7-2.9-1.8-2.9c-1,0-1.8,1.1-1.8,2.9s0.7,2.9,1.8,2.9
			C182.2,1812.6,183,1811.5,183,1809.7z M186.2,1810.9v-2.6h-2.5c0.1,0.4,0.2,0.9,0.2,1.4c0,0.4,0,0.9-0.1,1.2H186.2z"/>
		<path class="st3" d="M195,1806.3c0,3.1-1.4,5.8-5,7.6l-0.5-0.8c2.9-1.4,4.3-3.4,4.5-6h-4v-0.8L195,1806.3L195,1806.3z
			 M198.2,1805.1v10.8h-1v-10.8H198.2z"/>
		<path class="st3" d="M210.2,1813.6v0.8h-9.7v-0.8h3.8v-3.9h1v3.9H210.2z M208,1807h-6.6v-0.8h7.5v1.1c0,1.3,0,2.8-0.4,5l-1-0.1
			c0.4-2.1,0.4-3.6,0.4-4.9v-0.3H208z"/>
		<path class="st3" d="M214.4,1808.3c0-1.5,1.2-2.5,2.8-2.5s2.8,1,2.8,2.5s-1.2,2.5-2.8,2.5C215.6,1810.8,214.4,1809.8,214.4,1808.3
			z M221.8,1812.3c0,1.1,0.8,2.2,2.2,2.7l-0.5,0.7c-1.1-0.4-1.8-1.1-2.2-2c-0.3,0.9-1,1.7-2,2.1c-1-0.4-1.7-1.2-2-2.1
			c-0.4,0.9-1.1,1.6-2.1,2l-0.5-0.7c1.4-0.5,2.2-1.6,2.2-2.7v-0.6h0.9v0.6c0,0.9,0.5,2,1.5,2.6c1-0.6,1.5-1.7,1.5-2.6v-0.6h1
			L221.8,1812.3L221.8,1812.3z M215.4,1808.3c0,1,0.8,1.7,1.8,1.7c1.1,0,1.9-0.7,1.9-1.7s-0.8-1.7-1.9-1.7
			C216.1,1806.6,215.4,1807.3,215.4,1808.3z M223,1811.3h-1v-6.1h1V1811.3z"/>
		<path class="st3" d="M234.9,1813.6v0.8h-9.8v-0.8H234.9z M233.9,1808.8c0,1.8-1.7,3-3.9,3s-3.9-1.2-3.9-3s1.7-3,3.9-3
			S233.9,1807,233.9,1808.8z M227.1,1808.8c0,1.3,1.3,2.2,3,2.2s3-0.9,3-2.2c0-1.3-1.3-2.2-3-2.2
			C228.3,1806.6,227.1,1807.5,227.1,1808.8z"/>
		<path class="st3" d="M245.1,1805.1v10.8h-1v-4.4h-2.6v1.7h-4.9v-7h4.9v1.5h2.6v-2.6H245.1z M240.6,1807h-3v5.4h3V1807z
			 M244.1,1810.7v-2.2h-2.6v2.2H244.1z"/>
		<path class="st3" d="M247.3,1816.6c0.8-0.3,1.2-0.9,1.2-1.6h-0.1c-0.4,0-0.8-0.3-0.8-0.8s0.4-0.8,0.8-0.8c0.6,0,0.9,0.5,0.9,1.3
			c0,1.2-0.7,2.1-1.8,2.5L247.3,1816.6z"/>
		<path class="st3" d="M259.6,1810.3c-1.5,0.3-2.8,0.4-5,0.4h-0.8v-4.7h4.7v0.8h-3.8v3.1c2.1,0,3.4-0.1,4.8-0.4L259.6,1810.3z
			 M261.8,1813.8c0,1.3-1.4,2.1-3.5,2.1c-2.2,0-3.6-0.8-3.6-2.1c0-1.3,1.4-2.1,3.6-2.1C260.4,1811.8,261.8,1812.5,261.8,1813.8z
			 M260.8,1813.8c0-0.8-1-1.3-2.6-1.3s-2.6,0.5-2.6,1.3s1,1.3,2.6,1.3C259.8,1815.1,260.8,1814.6,260.8,1813.8z M263.2,1807.9v0.8
			h-1.6v2.8h-1v-6.4h1v2.8L263.2,1807.9L263.2,1807.9z"/>
		<path class="st3" d="M267.9,1808c0,1.9,1.2,3.8,2.7,4.6l-0.6,0.8c-1.1-0.6-2.1-1.9-2.6-3.3c-0.5,1.6-1.5,2.9-2.7,3.6l-0.6-0.8
			c1.5-0.8,2.8-2.9,2.8-4.8v-1.9h1L267.9,1808L267.9,1808z M274.4,1810.3h-1.8v5.6h-1v-10.7h1v4.4h1.8V1810.3z"/>
		<path class="st3" d="M275.4,1812.7c2,0,4.7,0,7-0.4l0.1,0.7c-2.4,0.4-5,0.5-7,0.5L275.4,1812.7z M281.7,1808.5
			c0,1.5-1.2,2.5-2.9,2.5c-1.7,0-2.9-1-2.9-2.5s1.2-2.5,2.9-2.5C280.5,1805.9,281.7,1806.9,281.7,1808.5z M276.9,1808.5
			c0,1,0.8,1.7,1.9,1.7s1.9-0.7,1.9-1.7s-0.8-1.7-1.9-1.7C277.8,1806.8,276.9,1807.4,276.9,1808.5z M284.1,1805.1v10.8h-1v-10.8
			H284.1z"/>
		<path class="st3" d="M292.7,1808c0,1.9,1.2,3.8,2.7,4.6l-0.6,0.8c-1.1-0.6-2.1-1.9-2.6-3.3c-0.5,1.6-1.5,2.9-2.7,3.6l-0.6-0.8
			c1.5-0.8,2.8-2.9,2.8-4.8v-1.9h1L292.7,1808L292.7,1808z M299.1,1810.3h-1.8v5.6h-1v-10.7h1v4.4h1.8V1810.3z"/>
		<path class="st3" d="M309,1805.1v5.8h-1v-2.4h-2.2c-0.2,1.3-1.3,2.1-2.7,2.1c-1.6,0-2.8-1-2.8-2.5s1.2-2.5,2.8-2.5
			c1.5,0,2.5,0.8,2.7,2.1h2.2v-2.6H309z M304.9,1808.1c0-1-0.8-1.7-1.8-1.7c-1.1,0-1.8,0.7-1.8,1.7s0.8,1.7,1.8,1.7
			C304.1,1809.8,304.9,1809.1,304.9,1808.1z M308,1811.4h1v4.3h-6.9v-4.3h1v1.4h4.9V1811.4z M308,1813.6h-4.9v1.4h4.9V1813.6z"/>
		<path class="st3" d="M316.9,1811.1c-1.2-0.4-2.1-1.2-2.6-2.3c-0.5,1.2-1.4,2.2-2.7,2.6l-0.5-0.8c1.6-0.6,2.7-2,2.7-3.5v-0.4h-2.4
			v-0.8h5.8v0.8h-2.4v0.4c0,1.4,1,2.7,2.6,3.2L316.9,1811.1z M319.6,1813.9c0,1.3-1.4,2-3.5,2c-2.2,0-3.5-0.7-3.5-2
			c0-1.2,1.3-2,3.5-2C318.3,1811.9,319.6,1812.6,319.6,1813.9z M318.7,1813.9c0-0.8-1-1.2-2.6-1.2s-2.6,0.4-2.6,1.2
			c0,0.8,1,1.2,2.6,1.2S318.7,1814.7,318.7,1813.9z M321.1,1807.9v0.8h-1.6v3h-1v-6.5h1v2.7H321.1z"/>
	</g>
	<g class="st2">
		<path class="st3" d="M86.1,1829.2c1,0,2.2-0.1,3.5-0.3l0.1,0.9c-1.5,0.3-2.7,0.3-3.8,0.3h-0.7v-6.7h1L86.1,1829.2L86.1,1829.2z
			 M93.8,1822.1v10.7h-0.9v-5.6h-1.5v5h-0.9v-10h0.9v4.1h1.5v-4.4h0.9V1822.1z"/>
		<path class="st3" d="M104.2,1825.2c0,1.5-1.2,2.5-2.8,2.5c-1.6,0-2.8-1-2.8-2.5s1.2-2.5,2.8-2.5S104.2,1823.7,104.2,1825.2z
			 M99.6,1825.2c0,1,0.8,1.7,1.8,1.7c1.1,0,1.9-0.7,1.9-1.7s-0.8-1.7-1.9-1.7S99.6,1824.2,99.6,1825.2z M107.2,1828.9v3.9h-7v-3.9
			H107.2z M101.2,1829.6v2.3h5v-2.3H101.2z M107.2,1822.1v6.2h-1v-6.2H107.2z"/>
		<path class="st3" d="M115.5,1828.2c-1.2-0.4-2.2-1.3-2.7-2.4c-0.5,1.2-1.5,2.2-2.7,2.7l-0.5-0.8c1.6-0.6,2.7-2,2.7-3.5v-0.4h-2.5
			v-0.8h5.9v0.8h-2.4v0.4c0,1.4,1.1,2.7,2.7,3.3L115.5,1828.2z M111,1829.2h7.2v3.7h-1v-2.9H111V1829.2z M118.2,1822.1v6.5h-1v-6.5
			H118.2z"/>
		<path class="st3" d="M123.5,1827.9c-1.1,0-2.1,0.1-3,0.1l-0.1-0.8c2,0,4.7,0,6.9-0.3l0.1,0.7c-0.9,0.1-1.9,0.3-2.9,0.3v2.1h-1
			L123.5,1827.9L123.5,1827.9z M121.2,1824.4c0-1.1,1.1-1.9,2.7-1.9c1.6,0,2.7,0.7,2.7,1.9c0,1.2-1.1,1.9-2.7,1.9
			S121.2,1825.6,121.2,1824.4z M129.5,1831.8v0.8h-7.6v-3.1h1v2.3L129.5,1831.8L129.5,1831.8z M122.2,1824.4c0,0.7,0.7,1.2,1.7,1.2
			s1.7-0.5,1.7-1.2s-0.7-1.1-1.7-1.1S122.2,1823.7,122.2,1824.4z M128.3,1828.5v-6.4h1v8.2h-1v-1.1h-2.2v-0.7H128.3z"/>
		<path class="st3" d="M141.2,1827.9v0.8h-4.3v2.1h-1v-2.1h-4.5v-0.8H141.2z M135.9,1826.8h-3.6v-4.3h0.9v1.4h1.7v-1.4h0.9v4.3
			H135.9z M133.7,1831.9h6.5v0.8h-7.4v-2.9h1v2.1H133.7z M135,1824.6h-1.7v1.4h1.7V1824.6z M140.3,1826.8h-3.6v-4.3h0.9v1.4h1.7
			v-1.4h0.9v4.3H140.3z M139.4,1824.6h-1.7v1.4h1.7V1824.6z"/>
		<path class="st3" d="M147.9,1828.1H143v-5h4.9V1828.1z M146.9,1823.9h-3v3.4h3V1823.9z M145.2,1831.8h6.2v0.8h-7.2v-3.4h1V1831.8z
			 M152.5,1825.4v0.8h-1.6v3.8h-1v-7.9h1v3.3L152.5,1825.4L152.5,1825.4z"/>
		<path class="st3" d="M161.8,1826.7c0,2.3-1.1,3.8-2.7,3.8c-1.6,0-2.7-1.5-2.7-3.8s1.1-3.8,2.7-3.8
			C160.7,1823,161.8,1824.4,161.8,1826.7z M160.9,1826.7c0-1.7-0.7-2.9-1.8-2.9c-1,0-1.8,1.1-1.8,2.9s0.7,2.9,1.8,2.9
			C160.1,1829.6,160.9,1828.5,160.9,1826.7z M166.3,1827.3h-1.8v5.6h-1v-10.7h1v4.3h1.8V1827.3z"/>
		<path class="st3" d="M168.9,1829.3c1.6,0,3.3-0.1,5.1-0.5l0.1,0.8c-1.9,0.4-3.6,0.5-5.3,0.5H168v-6.9h1v6.1H168.9z M176.1,1822.1
			v10.7h-1v-10.7H176.1z"/>
		<path class="st3" d="M179.7,1829.5c2,0,3.3-0.1,5-0.4l0.1,0.8c-1.7,0.3-3.1,0.4-5.2,0.4h-0.9v-4.1h3.9v-2.3h-3.9v-0.8h4.9v3.9
			h-3.9L179.7,1829.5L179.7,1829.5z M188.4,1827.2h-1.8v5.7h-1v-10.8h1v4.3h1.8V1827.2z"/>
		<path class="st3" d="M189.4,1833.6c0.8-0.3,1.2-0.9,1.2-1.6h-0.1c-0.4,0-0.8-0.3-0.8-0.8s0.4-0.8,0.8-0.8c0.6,0,0.9,0.5,0.9,1.3
			c0,1.2-0.7,2.1-1.8,2.5L189.4,1833.6z"/>
		<path class="st3" d="M205.1,1830.6v0.8h-9.7v-0.8h3.8v-3.9h1v3.9H205.1z M203,1824h-6.6v-0.8h7.5v1.1c0,1.3,0,2.8-0.4,5l-1-0.1
			c0.4-2.1,0.4-3.6,0.4-4.9v-0.3H203z"/>
		<path class="st3" d="M211.1,1822.9c0,2.6-1.4,4.5-4.1,5.6l-0.5-0.7c2.2-0.9,3.4-2.4,3.6-4.1h-3.2v-0.8H211.1z M208.3,1829h7.2v3.9
			h-1v-3.1h-6.2V1829z M215.5,1822.1v6.3h-0.9v-2.8h-1.4v2.8h-0.9v-6.1h0.9v2.5h1.4v-2.7L215.5,1822.1L215.5,1822.1z"/>
		<path class="st3" d="M217.5,1833.6c0.8-0.3,1.2-0.9,1.2-1.6h-0.1c-0.4,0-0.8-0.3-0.8-0.8s0.4-0.8,0.8-0.8c0.6,0,0.9,0.5,0.9,1.3
			c0,1.2-0.7,2.1-1.8,2.5L217.5,1833.6z"/>
		<path class="st3" d="M229.5,1824h-6v-0.8h2.6v-1.2h1v1.2h2.5v0.8H229.5z M226.6,1828.4c-1.4,0-2.4-0.8-2.4-1.9
			c0-1.2,1-1.9,2.4-1.9s2.4,0.8,2.4,1.9S228,1828.4,226.6,1828.4z M226.6,1827.7c0.9,0,1.5-0.5,1.5-1.2s-0.6-1.2-1.5-1.2
			s-1.5,0.5-1.5,1.2S225.7,1827.7,226.6,1827.7z M231.4,1829h1v3.8h-7v-3.8h1v1.1h5V1829z M231.4,1830.8h-5v1.1h5V1830.8z
			 M232.4,1822.1v6.3h-1v-0.9h-1.8v-0.8h1.8v-1.3h-1.8v-0.8h1.8v-2.5L232.4,1822.1L232.4,1822.1z"/>
		<path class="st3" d="M240.3,1828c-1.3,0.2-2.4,0.3-4.6,0.3H235v-3.2h3.6v-1.5H235v-0.8h4.6v3H236v1.6c2,0,3,0,4.3-0.3V1828z
			 M236.2,1829.3h7.2v3.6h-1v-2.8h-6.2V1829.3z M243.4,1822.1v6.6h-1v-2h-2.1v-0.8h2.1v-1.4h-2.1v-0.8h2.1v-1.6L243.4,1822.1
			L243.4,1822.1z"/>
		<path class="st3" d="M249.6,1829.9c1,0,2.1-0.1,3-0.3l0.1,0.7c-2.4,0.4-5,0.4-7,0.4l-0.1-0.8c0.9,0,1.9,0,3,0v-1.2
			c-1.3-0.2-2.1-0.9-2.1-2c0-1.2,1.1-2,2.6-2s2.6,0.8,2.6,2c0,1.1-0.8,1.8-2.1,2V1829.9z M252.4,1824.2h-6.5v-0.8h2.8v-1.3h1v1.3
			h2.8v0.8H252.4z M249.1,1828.1c1,0,1.6-0.5,1.6-1.2c0-0.8-0.7-1.2-1.6-1.2c-1,0-1.7,0.5-1.7,1.2
			C247.5,1827.6,248.2,1828.1,249.1,1828.1z M254.3,1822.1v10.8h-1v-10.8H254.3z"/>
		<path class="st3" d="M260.2,1825c0,1.9,1.2,3.8,2.7,4.6l-0.6,0.8c-1.1-0.6-2.1-1.9-2.6-3.3c-0.5,1.6-1.5,2.9-2.7,3.6l-0.6-0.8
			c1.5-0.8,2.8-2.9,2.8-4.8v-1.9h1L260.2,1825L260.2,1825z M266.7,1827.3h-1.8v5.6h-1v-10.7h1v4.4h1.8V1827.3z"/>
		<path class="st3" d="M275.9,1827.2h-5v-4.4h5V1827.2z M276.3,1829.8c0,1,1.7,2.1,3.5,2.3l-0.3,0.8c-1.6-0.2-3.1-1-3.7-2
			c-0.6,1-2.1,1.7-3.8,2l-0.3-0.8c1.8-0.2,3.5-1.2,3.6-2.3h-3.1v-0.8h3.2v-1h1v1h3.2v0.8H276.3z M275,1823.6h-3.1v2.8h3.1V1823.6z
			 M279.2,1828.3h-1v-6.2h1V1828.3z"/>
		<path class="st3" d="M287.9,1825.4c0,1.8,1.3,3.7,2.9,4.4l-0.6,0.8c-1.2-0.6-2.3-1.8-2.8-3.3c-0.5,1.6-1.5,2.9-2.8,3.5l-0.6-0.8
			c1.5-0.7,2.9-2.8,2.9-4.6v-1.4h-2.5v-0.8h6v0.8h-2.5V1825.4z M292.9,1822.1v10.7h-1v-10.7H292.9z"/>
		<path class="st3" d="M304,1822.1v6.3h-1v-1.5h-2.7c-0.5,0.6-1.3,1-2.2,1c-1.6,0-2.8-1.1-2.8-2.6s1.2-2.6,2.8-2.6
			c0.9,0,1.7,0.4,2.2,1h2.7v-1.6L304,1822.1z M299.9,1825.3c0-1-0.8-1.7-1.8-1.7s-1.8,0.7-1.8,1.7s0.8,1.8,1.8,1.8
			C299.1,1827.1,299.9,1826.3,299.9,1825.3z M296.8,1829.1h7.2v3.8h-1v-3h-6.2V1829.1z M303,1826.1v-1.6h-2.3
			c0.1,0.3,0.1,0.5,0.1,0.8s0,0.6-0.1,0.8L303,1826.1L303,1826.1z"/>
		<path class="st3" d="M309.8,1825c0,1.9,1.2,3.8,2.7,4.6l-0.6,0.8c-1.1-0.6-2.1-1.9-2.6-3.3c-0.5,1.6-1.5,2.9-2.7,3.6l-0.6-0.8
			c1.5-0.8,2.8-2.9,2.8-4.8v-1.9h1L309.8,1825L309.8,1825z M316.2,1827.3h-1.8v5.6h-1v-10.7h1v4.4h1.8V1827.3z"/>
		<path class="st3" d="M321.2,1829.9c1,0,2.1-0.1,3-0.3l0.1,0.7c-2.4,0.4-5,0.4-7,0.4l-0.1-0.8c0.9,0,1.9,0,3,0v-1.2
			c-1.3-0.2-2.1-0.9-2.1-2c0-1.2,1.1-2,2.6-2s2.6,0.8,2.6,2c0,1.1-0.8,1.8-2.1,2V1829.9z M324,1824.2h-6.5v-0.8h2.8v-1.3h1v1.3h2.8
			L324,1824.2L324,1824.2z M320.8,1828.1c1,0,1.6-0.5,1.6-1.2c0-0.8-0.7-1.2-1.6-1.2c-1,0-1.7,0.5-1.7,1.2
			C319.1,1827.6,319.8,1828.1,320.8,1828.1z M326,1822.1v10.8h-1v-10.8H326z"/>
		<path class="st3" d="M334.3,1822.4h0.9v10h-0.9v-5.2h-1.4c-0.1,2.1-1,3.4-2.3,3.4c-1.4,0-2.3-1.4-2.3-3.8c0-2.3,0.9-3.7,2.3-3.7
			c1.3,0,2.2,1.3,2.3,3.3h1.4V1822.4z M332.1,1826.8c0-1.7-0.6-2.8-1.4-2.8c-0.9,0-1.4,1.1-1.4,2.8c0,1.8,0.5,2.9,1.4,2.9
			C331.5,1829.6,332.1,1828.5,332.1,1826.8z M337.4,1822.1v10.8h-0.9v-10.8H337.4z"/>
	</g>
	<g class="st2">
		<path class="st3" d="M86,1846.4c1.4,0,2.5-0.1,3.6-0.3l0.1,0.8c-1.3,0.3-2.4,0.3-4,0.3H85v-6.8h4v0.8h-3V1846.4z M93.8,1839.1
			v10.8h-0.9v-5.6h-1.5v5.1h-0.9v-10h0.9v4.1h1.5v-4.3L93.8,1839.1L93.8,1839.1z"/>
		<path class="st3" d="M98.8,1841h2.2v0.8h-5.3v-0.8h2.2v-1.5h1L98.8,1841L98.8,1841z M100.6,1844.9c0,1.5-1,2.5-2.3,2.5
			s-2.3-1-2.3-2.5c0-1.4,1-2.4,2.3-2.4C99.7,1842.5,100.6,1843.5,100.6,1844.9z M99.8,1844.9c0-0.9-0.6-1.6-1.4-1.6
			s-1.4,0.7-1.4,1.6c0,1,0.6,1.6,1.4,1.6C99.2,1846.6,99.8,1845.9,99.8,1844.9z M104.8,1839.1v10.8h-0.9v-5.4h-1.4v4.9h-0.9v-10h0.9
			v4.3h1.4v-4.5h0.9V1839.1z"/>
		<path class="st3" d="M110.5,1842c0,2,1.2,3.9,2.8,4.7l-0.6,0.8c-1.2-0.6-2.2-1.9-2.7-3.4c-0.5,1.6-1.5,3-2.7,3.6l-0.6-0.8
			c1.6-0.8,2.8-2.9,2.8-4.8v-1.9h1L110.5,1842L110.5,1842z M115.6,1839.1v10.8h-1v-6.3h-2.5v-0.8h2.5v-3.6L115.6,1839.1
			L115.6,1839.1z"/>
		<path class="st3" d="M127.5,1847.7v0.8h-9.8v-0.8h4.4v-2.8H119v-5h7.3v0.8H120v3.4h6.4v0.8h-3.3v2.8L127.5,1847.7L127.5,1847.7z"
			/>
		<path class="st3" d="M141.2,1844.4v0.8h-9.7v-0.8h4.4v-1.2h-3.2v-3.6h7.3v0.8h-6.3v2h6.4v0.8h-3.2v1.2L141.2,1844.4L141.2,1844.4z
			 M140,1847.9c0,1.2-1.4,1.9-3.7,1.9s-3.7-0.7-3.7-1.9s1.4-1.9,3.7-1.9S140,1846.7,140,1847.9z M139,1847.9c0-0.8-1-1.2-2.7-1.2
			s-2.7,0.4-2.7,1.2c0,0.8,1,1.2,2.7,1.2S139,1848.7,139,1847.9z"/>
		<path class="st3" d="M152.3,1844.3v0.8h-9.7v-0.8H152.3z M151.1,1847.9c0,1.2-1.4,1.9-3.7,1.9s-3.7-0.7-3.7-1.9s1.4-1.9,3.7-1.9
			C149.7,1846,151.1,1846.7,151.1,1847.9z M151.1,1843.2h-7.4v-3.7h7.3v0.8h-6.3v2.1h6.4V1843.2z M150.1,1847.9c0-0.8-1-1.2-2.7-1.2
			s-2.7,0.4-2.7,1.2s1,1.2,2.7,1.2S150.1,1848.7,150.1,1847.9z"/>
		<path class="st3" d="M157.2,1840.9h2.7v0.8h-6.3v-0.8h2.7v-1.6h1L157.2,1840.9L157.2,1840.9z M159.3,1845c0,1.5-1.1,2.5-2.6,2.5
			s-2.6-1-2.6-2.5s1.1-2.5,2.6-2.5C158.3,1842.5,159.3,1843.6,159.3,1845z M158.4,1845c0-1-0.7-1.7-1.7-1.7s-1.7,0.7-1.7,1.7
			s0.7,1.7,1.7,1.7S158.4,1846,158.4,1845z M163.6,1844.4h-1.8v5.5h-1v-10.7h1v4.4h1.8V1844.4z"/>
		<path class="st3" d="M170.6,1839.4h0.9v9.9h-0.9v-5h-2.2c-0.6,1.2-1.7,2.4-3.2,3.3l-0.6-0.7c2.3-1.4,3.5-3.3,3.6-5.6H165v-0.8h4.1
			c0,1.1-0.2,2.1-0.5,3h1.9L170.6,1839.4L170.6,1839.4z M173.7,1839.1v10.8h-0.9v-10.8H173.7z"/>
		<path class="st3" d="M184.2,1843.7c0,2.3-1.1,3.8-2.7,3.8c-1.6,0-2.7-1.5-2.7-3.8s1.1-3.8,2.7-3.8
			C183.1,1840,184.2,1841.4,184.2,1843.7z M179.7,1843.7c0,1.8,0.7,2.9,1.8,2.9c1,0,1.8-1.1,1.8-2.9c0-1.7-0.7-2.9-1.8-2.9
			C180.4,1840.8,179.7,1842,179.7,1843.7z M187.1,1839.1v10.8h-1v-10.8H187.1z"/>
		<path class="st3" d="M199.1,1844.1v0.7h-9.8v-0.7H199.1z M191.5,1849h6.7v0.7h-7.7v-2.4h6.4v-0.9h-6.4v-0.7h7.4v2.3h-6.4V1849z
			 M196.9,1840.1h-6.3v-0.7h7.3v2.2h-6.3v0.9h6.5v0.7h-7.4v-2.3h6.3v-0.8H196.9z"/>
		<path class="st3" d="M209,1845.2c-1.2-0.4-2.1-1.3-2.6-2.4c-0.5,1.2-1.4,2.2-2.7,2.7l-0.5-0.8c1.6-0.6,2.7-2,2.7-3.5v-0.4h-2.4
			v-0.8h5.7v0.8h-2.4v0.4c0,1.4,1.1,2.7,2.6,3.3L209,1845.2z M204.8,1846.2h7.2v3.7h-1v-3h-6.2V1846.2z M212,1839.1v6.4h-1v-2.8
			h-2.1v-0.8h2.1v-2.8L212,1839.1L212,1839.1z"/>
		<path class="st3" d="M223.9,1844.5v0.8h-9.7v-0.8h2.4v-1.5c-0.9-0.3-1.3-0.9-1.3-1.6c0-1.3,1.5-2,3.8-2s3.8,0.7,3.8,2
			c0,0.7-0.5,1.3-1.3,1.6v1.5H223.9z M222.7,1848c0,1.2-1.4,1.9-3.7,1.9s-3.7-0.7-3.7-1.9s1.4-1.9,3.7-1.9
			C221.3,1846,222.7,1846.7,222.7,1848z M219,1842.6c1.7,0,2.8-0.5,2.8-1.2c0-0.8-1.1-1.2-2.8-1.2s-2.8,0.5-2.8,1.2
			S217.3,1842.6,219,1842.6z M221.7,1848c0-0.7-1-1.2-2.7-1.2s-2.7,0.4-2.7,1.2s1,1.2,2.7,1.2C220.7,1849.1,221.7,1848.7,221.7,1848
			z M217.5,1844.5h3v-1.3c-0.4,0.1-0.9,0.1-1.5,0.1c-0.5,0-1,0-1.5-0.1V1844.5z"/>
		<path class="st3" d="M231.6,1841h-6.3v-0.8h2.7v-1.2h1v1.2h2.7L231.6,1841L231.6,1841z M228.4,1845.3c-1.5,0-2.6-0.7-2.6-1.9
			c0-1.1,1-1.9,2.6-1.9s2.6,0.7,2.6,1.9C231,1844.6,229.9,1845.3,228.4,1845.3z M228.4,1844.6c1,0,1.6-0.4,1.6-1.1s-0.7-1.1-1.6-1.1
			s-1.6,0.4-1.6,1.1C226.8,1844.1,227.4,1844.6,228.4,1844.6z M232.6,1845.9h1v3.9h-6.8v-3.9h1v1.1h4.8V1845.9z M232.6,1847.8h-4.8
			v1.2h4.8V1847.8z M235.1,1842.7h-1.6v2.7h-1v-6.2h1v2.7h1.6V1842.7z"/>
		<path class="st3" d="M237.9,1846.3c1.6,0,3.3-0.1,5.1-0.5l0.1,0.8c-1.9,0.4-3.6,0.5-5.3,0.5h-0.9v-6.9h1L237.9,1846.3
			L237.9,1846.3z M245,1839.1v10.7h-1v-10.7H245z"/>
		<path class="st3" d="M248.7,1846.4c1.9,0,3.3-0.1,4.8-0.4l0.1,0.8c-1.6,0.3-3.1,0.4-5.1,0.4h-0.9v-7.1h5v0.8h-4L248.7,1846.4
			L248.7,1846.4z M257.3,1844.2h-1.8v5.7h-1v-10.8h1v4.2h1.8V1844.2z"/>
		<path class="st3" d="M258.5,1848.3c0-0.5,0.4-0.9,0.8-0.9s0.8,0.3,0.8,0.9c0,0.5-0.4,0.8-0.8,0.8S258.5,1848.8,258.5,1848.3z"/>
	</g>
	<g class="st2">
		<path class="st3" d="M84.7,1912.6c0-2.8,1.5-4.5,3.8-4.5c2.2,0,3.8,1.7,3.8,4.5s-1.5,4.6-3.8,4.6S84.7,1915.4,84.7,1912.6z
			 M91.1,1912.6c0-2.2-1-3.6-2.6-3.6s-2.6,1.4-2.6,3.6s1,3.6,2.6,3.6C90,1916.2,91.1,1914.8,91.1,1912.6z"/>
		<path class="st3" d="M93.6,1912.6c0-2.8,1.7-4.6,3.9-4.6c1.1,0,1.9,0.5,2.4,1.1l-0.6,0.7c-0.5-0.5-1-0.8-1.8-0.8
			c-1.7,0-2.8,1.4-2.8,3.6s1.1,3.6,2.7,3.6c0.8,0,1.5-0.4,2-1l0.6,0.7c-0.7,0.8-1.6,1.3-2.7,1.3
			C95.2,1917.2,93.6,1915.5,93.6,1912.6z"/>
		<path class="st3" d="M101.8,1908.2h1.1v8.8h-1.1V1908.2z"/>
	</g>
	<g class="st2">
		<path class="st3" d="M114.5,1912.6v0.8h-9.8v-0.8H114.5z M106.9,1916.8h6.5v0.8H106v-3.1h1L106.9,1916.8L106.9,1916.8z
			 M113.3,1911.2H106v-3.6h1v2.8h6.3V1911.2z"/>
		<path class="st3" d="M122,1910c0,1.9,1.2,3.8,2.7,4.6l-0.6,0.8c-1.1-0.6-2.1-1.9-2.6-3.3c-0.5,1.6-1.5,2.9-2.7,3.6l-0.6-0.8
			c1.5-0.8,2.8-2.9,2.8-4.8v-1.9h1V1910z M128.5,1912.3h-1.8v5.6h-1v-10.7h1v4.4h1.8V1912.3z"/>
		<path class="st3" d="M138.3,1907.1v5.8h-1v-2.4h-2.2c-0.2,1.3-1.3,2.1-2.7,2.1c-1.6,0-2.8-1-2.8-2.5s1.2-2.5,2.8-2.5
			c1.5,0,2.5,0.8,2.7,2.1h2.2v-2.6H138.3z M134.3,1910.1c0-1-0.8-1.7-1.8-1.7s-1.8,0.7-1.8,1.7s0.8,1.7,1.8,1.7
			S134.3,1911.1,134.3,1910.1z M137.4,1913.4h1v4.3h-6.9v-4.3h1v1.4h4.9V1913.4z M137.4,1915.6h-4.9v1.4h4.9V1915.6z"/>
		<path class="st3" d="M150.2,1911.8v0.8h-9.7v-0.8H150.2z M141.6,1909.2c0-1.2,1.4-1.9,3.8-1.9c2.4,0,3.8,0.7,3.8,1.9
			c0,1.2-1.4,1.9-3.8,1.9C143,1911,141.6,1910.4,141.6,1909.2z M142.7,1917h6.6v0.8h-7.6v-2.6h6.3v-1h-6.3v-0.7h7.3v2.4h-6.3V1917z
			 M142.6,1909.2c0,0.7,1,1.1,2.8,1.1s2.8-0.4,2.8-1.1s-1-1.1-2.8-1.1S142.6,1908.5,142.6,1909.2z"/>
		<path class="st3" d="M159.4,1912c-0.5,0.6-1.3,0.9-2.2,0.9c-1.6,0-2.8-1.1-2.8-2.6s1.2-2.5,2.8-2.5c0.9,0,1.7,0.3,2.2,0.9h2.8
			v-1.5h1v6.4h-1v-1.5h-2.8V1912z M157.2,1912c1.1,0,1.8-0.7,1.8-1.7s-0.8-1.7-1.8-1.7s-1.8,0.7-1.8,1.7S156.1,1912,157.2,1912z
			 M163.1,1915.8c0,1.3-1.4,2.1-3.6,2.1c-2.2,0-3.6-0.8-3.6-2.1c0-1.3,1.4-2.1,3.6-2.1C161.8,1913.8,163.1,1914.5,163.1,1915.8z
			 M162.2,1915.8c0-0.8-1-1.3-2.6-1.3s-2.6,0.5-2.6,1.3s1,1.3,2.6,1.3C161.2,1917.1,162.2,1916.6,162.2,1915.8z M159.8,1909.5
			c0.1,0.3,0.1,0.5,0.1,0.8s0,0.6-0.1,0.8h2.3v-1.7L159.8,1909.5L159.8,1909.5z"/>
		<path class="st3" d="M172.4,1913.3c-1,0.2-2.1,0.3-3.1,0.4v3.9h-1v-3.8c-1.1,0-2.1,0.1-3,0.1l-0.1-0.8c2,0,4.7,0,7.1-0.4
			L172.4,1913.3z M166.1,1909.9c0-1.3,1.1-2.2,2.7-2.2c1.6,0,2.7,0.9,2.7,2.2c0,1.3-1.1,2.2-2.7,2.2
			C167.2,1912.1,166.1,1911.2,166.1,1909.9z M167,1909.9c0,0.8,0.7,1.4,1.8,1.4c1,0,1.8-0.6,1.8-1.4s-0.7-1.4-1.8-1.4
			C167.8,1908.4,167,1909,167,1909.9z M174.1,1907.1v10.8h-1v-10.8H174.1z"/>
		<path class="st3" d="M180,1908.9h2.7v0.8h-6.3v-0.8h2.7v-1.6h1L180,1908.9L180,1908.9z M182.1,1913c0,1.5-1.1,2.5-2.6,2.5
			s-2.6-1-2.6-2.5s1.1-2.5,2.6-2.5S182.1,1911.6,182.1,1913z M181.2,1913c0-1-0.7-1.7-1.7-1.7s-1.7,0.7-1.7,1.7s0.7,1.7,1.7,1.7
			S181.2,1914,181.2,1913z M186.4,1912.4h-1.8v5.5h-1v-10.7h1v4.4h1.8V1912.4z"/>
		<path class="st3" d="M197.1,1915.6v0.8h-9.7v-0.8h3.8v-3.9h1v3.9H197.1z M195,1909h-6.6v-0.8h7.5v1.1c0,1.3,0,2.8-0.4,5l-1-0.1
			c0.4-2.1,0.4-3.6,0.4-4.9v-0.3H195z"/>
		<path class="st3" d="M201.3,1910.3c0-1.5,1.2-2.5,2.8-2.5s2.8,1,2.8,2.5s-1.2,2.5-2.8,2.5S201.3,1911.8,201.3,1910.3z
			 M208.7,1914.3c0,1.1,0.8,2.2,2.2,2.7l-0.5,0.7c-1.1-0.4-1.8-1.1-2.2-2c-0.3,0.9-1,1.7-2,2.1c-1-0.4-1.7-1.2-2-2.1
			c-0.4,0.9-1.1,1.6-2.1,2l-0.5-0.7c1.4-0.5,2.2-1.6,2.2-2.7v-0.6h0.9v0.6c0,0.9,0.5,2,1.5,2.6c1-0.6,1.5-1.7,1.5-2.6v-0.6h1
			L208.7,1914.3L208.7,1914.3z M202.3,1910.3c0,1,0.8,1.7,1.8,1.7s1.9-0.7,1.9-1.7s-0.8-1.7-1.9-1.7S202.3,1909.3,202.3,1910.3z
			 M209.9,1913.3h-1v-6.1h1V1913.3z"/>
		<path class="st3" d="M221.9,1912.6v0.8h-9.8v-0.8H221.9z M214.4,1916.8h6.5v0.8h-7.4v-3.1h1v2.3H214.4z M220.8,1911.2h-7.3v-3.6h1
			v2.8h6.3V1911.2z"/>
		<path class="st3" d="M235.6,1915.7v0.8h-9.8v-0.8h4.4v-2.6H227v-5h7.4v5h-3.2v2.6H235.6z M228,1912.3h5.5v-3.5H228V1912.3z"/>
		<path class="st3" d="M246.6,1912.6v0.8h-9.7v-0.8H246.6z M245.5,1911.4h-7.4v-3.8h7.3v0.8h-6.3v2.2h6.4V1911.4z M239.1,1916.8h6.5
			v0.8h-7.5v-3.1h1V1916.8z"/>
		<path class="st3" d="M256,1912.3v2h3.2v3.6h-1v-2.8h-6.5v-0.8h3.3v-2h-4.4v-0.8h7.2c0.3-1.3,0.3-2.2,0.3-3h-6.3v-0.8h7.3v0.8
			c0,0.8,0,1.8-0.3,3.1h1.5v0.8L256,1912.3L256,1912.3z"/>
		<path class="st3" d="M267.2,1908.3c0,3.1-1.4,5.8-4.9,7.6l-0.5-0.8c2.7-1.4,4.2-3.4,4.5-6h-3.9v-0.8L267.2,1908.3L267.2,1908.3z
			 M271.7,1912.3H270v5.6h-1v-10.8h1v4.4h1.7V1912.3z"/>
		<path class="st3" d="M281,1912.2h-5v-4.4h5V1912.2z M281.3,1914.8c0,1,1.7,2.1,3.5,2.3l-0.3,0.8c-1.6-0.2-3.1-1-3.7-2
			c-0.6,1-2.1,1.7-3.8,2l-0.3-0.8c1.8-0.2,3.5-1.2,3.6-2.3h-3.1v-0.8h3.2v-1h1v1h3.2v0.8H281.3z M280,1908.6h-3.1v2.8h3.1V1908.6z
			 M284.2,1913.3h-1v-6.2h1V1913.3z"/>
		<path class="st3" d="M293,1910.4c0,1.8,1.3,3.7,2.9,4.4l-0.6,0.8c-1.2-0.6-2.3-1.8-2.8-3.3c-0.5,1.6-1.5,2.9-2.8,3.5l-0.6-0.8
			c1.5-0.7,2.9-2.8,2.9-4.6v-1.4h-2.5v-0.8h6v0.8H293V1910.4z M297.9,1907.1v10.7h-1v-10.7H297.9z"/>
		<path class="st3" d="M309,1907.1v6.3h-1v-1.5h-2.7c-0.5,0.6-1.3,1-2.2,1c-1.6,0-2.8-1.1-2.8-2.6s1.2-2.6,2.8-2.6
			c0.9,0,1.7,0.4,2.2,1h2.7v-1.6L309,1907.1z M304.9,1910.3c0-1-0.8-1.7-1.8-1.7s-1.8,0.7-1.8,1.7s0.8,1.8,1.8,1.8
			C304.1,1912.1,304.9,1911.3,304.9,1910.3z M301.8,1914.1h7.2v3.8h-1v-3h-6.2V1914.1z M308,1911.1v-1.6h-2.3
			c0.1,0.3,0.1,0.5,0.1,0.8s0,0.6-0.1,0.8L308,1911.1L308,1911.1z"/>
		<path class="st3" d="M317.3,1907.4h0.9v10h-0.9v-5.2h-1.4c-0.1,2.1-1,3.4-2.3,3.4c-1.4,0-2.3-1.4-2.3-3.8c0-2.3,0.9-3.7,2.3-3.7
			c1.3,0,2.2,1.3,2.3,3.3h1.4V1907.4z M315,1911.8c0-1.7-0.6-2.8-1.4-2.8c-0.9,0-1.4,1.1-1.4,2.8c0,1.8,0.5,2.9,1.4,2.9
			C314.5,1914.6,315,1913.5,315,1911.8z M320.3,1907.1v10.8h-0.9v-10.8H320.3z"/>
		<path class="st3" d="M326,1910c0,2,1.2,3.9,2.8,4.7l-0.6,0.8c-1.2-0.6-2.2-1.9-2.7-3.4c-0.5,1.6-1.5,3-2.7,3.6l-0.6-0.8
			c1.6-0.8,2.8-2.9,2.8-4.8v-1.9h1L326,1910L326,1910z M331.1,1907.1v10.8h-1v-6.3h-2.5v-0.8h2.5v-3.6L331.1,1907.1L331.1,1907.1z"
			/>
	</g>
	<g class="st2">
		<path class="st3" d="M94.4,1932.7v0.8h-9.8v-0.8H87v-2.9c-0.9-0.5-1.4-1.2-1.4-2.2c0-1.7,1.6-2.8,3.9-2.8s3.9,1.1,3.9,2.8
			c0,1-0.5,1.7-1.4,2.2v2.9H94.4z M86.5,1927.6c0,1.2,1.2,2,3,2s3-0.8,3-2s-1.2-2-3-2S86.5,1926.4,86.5,1927.6z M88,1932.7h3v-2.5
			c-0.5,0.1-1,0.2-1.5,0.2s-1-0.1-1.5-0.2V1932.7z"/>
		<path class="st3" d="M105.4,1930.3H101v4.6h-1v-4.6h-4.3v-0.8h7.1c0.3-1.5,0.3-2.7,0.3-3.7v-0.1h-6.3v-0.8h7.2v0.9
			c0,1,0,2.1-0.3,3.7h1.6v0.8H105.4z"/>
		<path class="st3" d="M110.8,1931.7c1,0,2.1-0.1,3-0.2l0.1,0.7c-2.4,0.4-4.9,0.4-7,0.4l-0.1-0.8c0.9,0,1.9,0,3,0v-2.1h-2.2v-4.4
			h5.4v0.8h-4.5v2.8h4.5v0.8h-2.3L110.8,1931.7L110.8,1931.7z M115.5,1924.1v10.8h-1v-10.8H115.5z"/>
		<path class="st3" d="M127.5,1929.6v0.8h-9.8v-0.8H127.5z M120,1933.8h6.5v0.8H119v-3.1h1V1933.8z M126.4,1928.2h-7.3v-3.6h1v2.8
			h6.3V1928.2z"/>
		<path class="st3" d="M141.2,1932.7v0.8h-9.8v-0.8h4.4v-2.9h-3.2v-4.8h1v4h6.5v0.8h-3.3v2.9H141.2z"/>
		<path class="st3" d="M152.3,1929.4v0.8h-9.7v-0.8h4.4v-1.2h-3.2v-3.6h7.3v0.8h-6.3v2h6.4v0.8H148v1.2L152.3,1929.4L152.3,1929.4z
			 M151.1,1932.9c0,1.2-1.4,1.9-3.7,1.9s-3.7-0.7-3.7-1.9s1.4-1.9,3.7-1.9C149.7,1931,151.1,1931.7,151.1,1932.9z M150.1,1932.9
			c0-0.8-1-1.2-2.7-1.2s-2.7,0.4-2.7,1.2c0,0.8,1,1.2,2.7,1.2S150.1,1933.7,150.1,1932.9z"/>
		<path class="st3" d="M160.3,1930.1c-2.2,0.4-4.8,0.4-6.7,0.4l-0.1-0.8c0.7,0,1.5,0,2.3,0v-2.3h1v2.3c1.2,0,2.4-0.1,3.5-0.3V1930.1
			z M158.2,1928.6c0.3-1.2,0.3-2.2,0.3-2.8h-4.4v-0.8h5.3v0.6c0,0.7,0,1.8-0.3,3.2L158.2,1928.6z M156.1,1933.8h6.2v0.8h-7.1v-3.2h1
			L156.1,1933.8L156.1,1933.8z M163.5,1927.6v0.8H162v3.8h-1v-8.1h1v3.5L163.5,1927.6L163.5,1927.6z"/>
		<path class="st3" d="M170.6,1924.4h0.9v9.9h-0.9v-3.7h-1.9v-0.8h1.9v-1.9h-1.8c-0.5,1.8-1.7,3.4-3.7,4.6l-0.6-0.7
			c2.3-1.4,3.5-3.3,3.6-5.6h-3.2v-0.8h4.1c0,0.6,0,1.1-0.1,1.6h1.6L170.6,1924.4L170.6,1924.4z M173.7,1924.1v10.7h-0.9v-10.7H173.7
			z"/>
		<path class="st3" d="M187.2,1924.1v5.9h-1v-2.4h-2.5v2h-4.8v-4.9h1v1.6h2.9v-1.6h1v2.1h2.5v-2.6L187.2,1924.1L187.2,1924.1z
			 M182.7,1927.1h-2.9v1.7h2.9V1927.1z M186.2,1930.5h1v4.2h-6.9v-4.2h1v1.3h4.9V1930.5z M186.2,1932.6h-4.9v1.3h4.9V1932.6z"/>
		<path class="st3" d="M199.1,1930.3h-2.6v4.6h-1v-4.6h-2.7v4.6h-1v-4.6h-2.5v-0.8h7.1c0.3-1.7,0.3-2.9,0.3-3.9h-6.2v-0.8h7.2v0.8
			c0,1,0,2.2-0.3,3.9h1.7V1930.3z"/>
		<path class="st3" d="M210.2,1929.1v0.7h-9.8v-0.7H210.2z M202.6,1934h6.7v0.7h-7.7v-2.4h6.4v-0.9h-6.4v-0.7h7.4v2.3h-6.4V1934z
			 M207.9,1925.1h-6.3v-0.7h7.3v2.2h-6.3v0.9h6.5v0.7h-7.4v-2.3h6.3v-0.8H207.9z"/>
		<path class="st3" d="M223.9,1929.7v0.8h-4.3v2.2h-1v-2.2h-4.5v-0.8H223.9z M214.7,1928.1c1.9-0.3,3.6-1.3,3.6-2.6l0,0H215v-0.8h8
			v0.8h-3.3l0,0c0,1.3,1.7,2.4,3.6,2.6l-0.4,0.8c-1.8-0.3-3.3-1.1-3.9-2.4c-0.6,1.2-2.2,2.1-3.9,2.4L214.7,1928.1z M216.3,1933.8
			h6.5v0.8h-7.4v-3h1v2.2H216.3z"/>
		<path class="st3" d="M234.9,1931h-4.4v3.9h-1v-3.9h-4.3v-0.8h9.7V1931z M234,1929c-1.7-0.3-3.3-1.2-4-2.5c-0.7,1.3-2.3,2.2-4,2.5
			l-0.4-0.8c2-0.3,3.8-1.6,3.8-3.1v-0.6h1v0.6c0,1.5,1.9,2.8,3.9,3.1L234,1929z"/>
		<path class="st3" d="M242.6,1926h-6.3v-0.8h2.7v-1.2h1v1.2h2.7L242.6,1926L242.6,1926z M239.4,1930.3c-1.5,0-2.6-0.7-2.6-1.9
			c0-1.1,1-1.9,2.6-1.9s2.6,0.7,2.6,1.9C242,1929.6,241,1930.3,239.4,1930.3z M239.4,1929.6c1,0,1.6-0.4,1.6-1.1s-0.7-1.1-1.6-1.1
			c-1,0-1.6,0.4-1.6,1.1C237.8,1929.1,238.4,1929.6,239.4,1929.6z M243.6,1930.9h1v3.9h-6.8v-3.9h1v1.1h4.8V1930.9z M243.6,1932.8
			h-4.8v1.2h4.8V1932.8z M246.2,1927.7h-1.6v2.7h-1v-6.2h1v2.7h1.6V1927.7z"/>
		<path class="st3" d="M248.9,1931.3c1.6,0,3.3-0.1,5.1-0.5l0.1,0.8c-1.9,0.4-3.6,0.5-5.3,0.5h-0.9v-6.9h1L248.9,1931.3
			L248.9,1931.3z M256.1,1924.1v10.7h-1v-10.7H256.1z"/>
		<path class="st3" d="M259.7,1931.4c1.9,0,3.3-0.1,4.8-0.4l0.1,0.8c-1.6,0.3-3.1,0.4-5.1,0.4h-0.9v-7.1h5v0.8h-4v5.5H259.7z
			 M268.3,1929.2h-1.8v5.7h-1v-10.8h1v4.2h1.8V1929.2z"/>
		<path class="st3" d="M269.6,1933.3c0-0.5,0.4-0.9,0.8-0.9s0.8,0.3,0.8,0.9c0,0.5-0.4,0.8-0.8,0.8S269.6,1933.8,269.6,1933.3z"/>
	</g>
	<g class="st2">
		<path class="st3" d="M84.7,2010.6c0-2.8,1.5-4.5,3.8-4.5c2.2,0,3.8,1.7,3.8,4.5s-1.5,4.6-3.8,4.6S84.7,2013.4,84.7,2010.6z
			 M91.1,2010.6c0-2.2-1-3.6-2.6-3.6s-2.6,1.4-2.6,3.6s1,3.6,2.6,3.6C90,2014.2,91.1,2012.8,91.1,2010.6z"/>
		<path class="st3" d="M93.6,2010.6c0-2.8,1.7-4.6,3.9-4.6c1.1,0,1.9,0.5,2.4,1.1l-0.6,0.7c-0.5-0.5-1-0.8-1.8-0.8
			c-1.7,0-2.8,1.4-2.8,3.6s1.1,3.6,2.7,3.6c0.8,0,1.5-0.4,2-1l0.6,0.7c-0.7,0.8-1.6,1.3-2.7,1.3
			C95.2,2015.2,93.6,2013.5,93.6,2010.6z"/>
		<path class="st3" d="M101.8,2006.2h1.1v8.8h-1.1V2006.2z"/>
	</g>
	<g class="st2">
		<path class="st3" d="M114.5,2010.6v0.8h-9.8v-0.8H114.5z M106.9,2014.8h6.5v0.8H106v-3.1h1L106.9,2014.8L106.9,2014.8z
			 M113.3,2009.2H106v-3.6h1v2.8h6.3V2009.2z"/>
		<path class="st3" d="M124.3,2008.2c0,1.5-1.2,2.5-2.8,2.5c-1.6,0-2.8-1-2.8-2.5s1.2-2.5,2.8-2.5
			C123.1,2005.7,124.3,2006.7,124.3,2008.2z M119.7,2008.2c0,1,0.8,1.7,1.8,1.7c1.1,0,1.9-0.7,1.9-1.7s-0.8-1.7-1.9-1.7
			S119.7,2007.2,119.7,2008.2z M127.3,2011.9v3.9h-7v-3.9H127.3z M121.3,2012.6v2.3h5v-2.3H121.3z M127.3,2005.1v6.2h-1v-6.2H127.3z
			"/>
		<path class="st3" d="M135.6,2011.2c-1.2-0.4-2.2-1.3-2.7-2.4c-0.5,1.2-1.5,2.2-2.7,2.7l-0.5-0.8c1.6-0.6,2.7-2,2.7-3.5v-0.4h-2.5
			v-0.8h5.9v0.8h-2.4v0.4c0,1.4,1.1,2.7,2.7,3.3L135.6,2011.2z M131.1,2012.2h7.2v3.7h-1v-2.9h-6.2V2012.2z M138.3,2005.1v6.5h-1
			v-6.5H138.3z"/>
		<path class="st3" d="M143.6,2010.9c-1.1,0-2.1,0.1-3,0.1l-0.1-0.8c2,0,4.7,0,6.9-0.3l0.1,0.7c-0.9,0.1-1.9,0.3-2.9,0.3v2.1h-1
			V2010.9z M141.3,2007.4c0-1.1,1.1-1.9,2.7-1.9c1.6,0,2.7,0.7,2.7,1.9c0,1.2-1.1,1.9-2.7,1.9
			C142.4,2009.3,141.3,2008.6,141.3,2007.4z M149.6,2014.8v0.8H142v-3.1h1v2.3L149.6,2014.8L149.6,2014.8z M142.2,2007.4
			c0,0.7,0.7,1.2,1.7,1.2s1.7-0.5,1.7-1.2s-0.7-1.1-1.7-1.1S142.2,2006.7,142.2,2007.4z M148.3,2011.5v-6.4h1v8.2h-1v-1.1h-2.2v-0.7
			H148.3z"/>
		<path class="st3" d="M151.6,2012.7c2,0,4.7,0,7-0.4l0.1,0.7c-2.4,0.4-5,0.5-7,0.5L151.6,2012.7z M157.9,2008.5
			c0,1.5-1.2,2.5-2.9,2.5s-2.9-1-2.9-2.5s1.2-2.5,2.9-2.5C156.7,2005.9,157.9,2006.9,157.9,2008.5z M153.1,2008.5
			c0,1,0.8,1.7,1.9,1.7c1.1,0,1.9-0.7,1.9-1.7s-0.8-1.7-1.9-1.7C153.9,2006.8,153.1,2007.4,153.1,2008.5z M160.3,2005.1v10.8h-1
			v-10.8H160.3z"/>
		<path class="st3" d="M168.3,2011.2c-1.6,0-2.8-1.1-2.8-2.7s1.2-2.7,2.8-2.7s2.8,1.1,2.8,2.7S169.9,2011.2,168.3,2011.2z
			 M168.3,2010.3c1.1,0,1.8-0.7,1.8-1.8c0-1.1-0.8-1.8-1.8-1.8s-1.8,0.7-1.8,1.8C166.5,2009.6,167.2,2010.3,168.3,2010.3z
			 M167.9,2014.8h6.2v0.8h-7.2v-3.4h1V2014.8z M175.2,2008.4v0.8h-1.6v3.8h-1v-7.9h1v3.3L175.2,2008.4L175.2,2008.4z"/>
		<path class="st3" d="M182.2,2011.1c-1.2-0.4-2.1-1.3-2.6-2.4c-0.5,1.2-1.5,2.3-2.7,2.7l-0.5-0.8c1.6-0.6,2.7-2,2.7-3.6v-0.4h-2.4
			v-0.8h5.7v0.8H180v0.4c0,1.4,1.1,2.7,2.6,3.3L182.2,2011.1z M185.2,2013.9c0,1.3-1.4,2-3.6,2s-3.6-0.7-3.6-2s1.4-2,3.6-2
			S185.2,2012.6,185.2,2013.9z M184.2,2013.9c0-0.8-1-1.2-2.6-1.2s-2.6,0.5-2.6,1.2s1,1.2,2.6,1.2S184.2,2014.7,184.2,2013.9z
			 M184.2,2007.9v-2.8h1v6.4h-1v-2.8h-2.1v-0.8L184.2,2007.9L184.2,2007.9z"/>
		<path class="st3" d="M193.2,2011.2c-1.2-0.4-2.1-1.3-2.6-2.4c-0.5,1.2-1.4,2.2-2.7,2.7l-0.5-0.8c1.6-0.6,2.7-2,2.7-3.5v-0.4h-2.4
			v-0.8h5.7v0.8H191v0.4c0,1.4,1.1,2.7,2.6,3.3L193.2,2011.2z M189,2012.2h7.2v3.7h-1v-3H189V2012.2z M196.2,2005.1v6.4h-1v-2.8
			h-2.1v-0.8h2.1v-2.8L196.2,2005.1L196.2,2005.1z"/>
		<path class="st3" d="M201.5,2011.2c-1.6,0-2.8-1.1-2.8-2.7c0-1.5,1.2-2.6,2.8-2.6s2.8,1.1,2.8,2.6
			C204.3,2010.1,203.1,2011.2,201.5,2011.2z M201.5,2010.3c1.1,0,1.9-0.7,1.9-1.8c0-1-0.8-1.8-1.9-1.8c-1,0-1.8,0.7-1.8,1.8
			C199.6,2009.6,200.4,2010.3,201.5,2010.3z M207.6,2014.8v0.8h-7.2v-3.5h1v2.7H207.6z M207.2,2013h-1v-7.9h1V2013z"/>
		<path class="st3" d="M221.9,2013.6v0.8h-9.7v-0.8h3.8v-3.9h1v3.9H221.9z M219.7,2007h-6.6v-0.8h7.5v1.1c0,1.3,0,2.8-0.4,5l-1-0.1
			c0.4-2.1,0.4-3.6,0.4-4.9v-0.3H219.7z"/>
		<path class="st3" d="M232.9,2010.5v0.8h-9.7v-0.8h2.4v-1.5c-0.9-0.3-1.3-0.9-1.3-1.6c0-1.3,1.5-2,3.8-2s3.8,0.7,3.8,2
			c0,0.7-0.5,1.3-1.3,1.6v1.5H232.9z M231.7,2014c0,1.2-1.4,1.9-3.7,1.9s-3.7-0.7-3.7-1.9s1.4-1.9,3.7-1.9
			C230.3,2012,231.7,2012.7,231.7,2014z M228,2008.6c1.7,0,2.8-0.5,2.8-1.2c0-0.8-1.1-1.2-2.8-1.2s-2.8,0.5-2.8,1.2
			C225.3,2008.1,226.3,2008.6,228,2008.6z M230.7,2014c0-0.7-1-1.2-2.7-1.2s-2.7,0.4-2.7,1.2s1,1.2,2.7,1.2
			C229.7,2015.1,230.7,2014.7,230.7,2014z M226.5,2010.5h3v-1.3c-0.4,0.1-0.9,0.1-1.5,0.1c-0.5,0-1,0-1.5-0.1V2010.5z"/>
		<path class="st3" d="M237.4,2012.7c1.2,0,2.4-0.1,3.5-0.3l0.1,0.7c-2.2,0.4-4.8,0.4-6.7,0.4l-0.1-0.8c0.7,0,1.5,0,2.3,0v-3.3h1
			v3.3H237.4z M238.8,2011.1c0.3-1.8,0.3-3.1,0.3-4h-4.5v-0.8h5.4v0.6c0,0.9,0,2.3-0.3,4.3L238.8,2011.1z M244.2,2010.5h-1.7v5.4h-1
			v-10.8h1v4.5h1.7V2010.5z"/>
		<path class="st3" d="M253.8,2011.2c-1.2-0.4-2.1-1.3-2.6-2.4c-0.5,1.2-1.4,2.2-2.7,2.7l-0.5-0.8c1.6-0.6,2.7-2,2.7-3.5v-0.4h-2.4
			v-0.8h5.7v0.8h-2.4v0.4c0,1.4,1.1,2.7,2.6,3.3L253.8,2011.2z M249.6,2012.2h7.2v3.7h-1v-3h-6.2L249.6,2012.2L249.6,2012.2z
			 M256.8,2005.1v6.4h-1v-2.8h-2.1v-0.8h2.1v-2.8L256.8,2005.1L256.8,2005.1z"/>
		<path class="st3" d="M264.8,2011.1c-1.2-0.4-2.1-1.3-2.6-2.4c-0.5,1.2-1.5,2.3-2.7,2.7l-0.5-0.8c1.6-0.6,2.7-2,2.7-3.6v-0.4h-2.4
			v-0.8h5.7v0.8h-2.4v0.4c0,1.4,1.1,2.7,2.6,3.3L264.8,2011.1z M267.9,2013.9c0,1.3-1.4,2-3.6,2s-3.6-0.7-3.6-2s1.4-2,3.6-2
			S267.9,2012.6,267.9,2013.9z M266.9,2013.9c0-0.8-1-1.2-2.6-1.2s-2.6,0.5-2.6,1.2s1,1.2,2.6,1.2S266.9,2014.7,266.9,2013.9z
			 M266.9,2007.9v-2.8h1v6.4h-1v-2.8h-2.1v-0.8L266.9,2007.9L266.9,2007.9z"/>
		<path class="st3" d="M278.6,2008.2c0,1.5-1.2,2.5-2.8,2.5c-1.6,0-2.8-1-2.8-2.5s1.2-2.5,2.8-2.5S278.6,2006.7,278.6,2008.2z
			 M273.9,2008.2c0,1,0.8,1.7,1.8,1.7c1.1,0,1.9-0.7,1.9-1.7s-0.8-1.7-1.9-1.7C274.7,2006.5,273.9,2007.2,273.9,2008.2z
			 M281.5,2011.9v3.9h-7v-3.9H281.5z M275.5,2012.6v2.3h5v-2.3H275.5z M281.5,2005.1v6.2h-1v-6.2H281.5z"/>
		<path class="st3" d="M293.5,2009.7v0.8h-9.8v-0.8h7.2c0.3-1.3,0.3-2.3,0.3-3.2H285v-0.8h7.3v0.8c0,0.8,0,1.8-0.3,3.2H293.5z
			 M285,2011.9h7.3v3.8H285V2011.9z M285.9,2015h5.4v-2.2h-5.4V2015z"/>
		<path class="st3" d="M304.5,2009.8v0.8h-9.7v-0.8H304.5z M295.9,2007.2c0-1.2,1.4-1.9,3.8-1.9s3.8,0.7,3.8,1.9
			c0,1.2-1.4,1.9-3.8,1.9C297.3,2009,295.9,2008.4,295.9,2007.2z M296.9,2015h6.6v0.8H296v-2.6h6.3v-1H296v-0.7h7.3v2.4H297v1.1
			H296.9z M296.9,2007.2c0,0.7,1,1.1,2.8,1.1s2.8-0.4,2.8-1.1s-1-1.1-2.8-1.1S296.9,2006.5,296.9,2007.2z"/>
		<path class="st3" d="M318.3,2013.7v0.8h-9.8v-0.8h4.4v-2.3h-3.2v-5.5h1v1.9h5.5v-1.9h1v5.5H314v2.3H318.3z M310.6,2010.6h5.5v-2
			h-5.5V2010.6z"/>
		<path class="st3" d="M325.3,2011.1c-1.2-0.4-2.1-1.2-2.6-2.3c-0.5,1.2-1.4,2.2-2.7,2.6l-0.5-0.8c1.6-0.6,2.7-2,2.7-3.5v-0.4h-2.4
			v-0.8h5.8v0.8h-2.4v0.4c0,1.4,1,2.7,2.6,3.2L325.3,2011.1z M328,2013.9c0,1.3-1.4,2-3.5,2c-2.2,0-3.6-0.7-3.6-2c0-1.2,1.3-2,3.6-2
			C326.7,2011.9,328,2012.6,328,2013.9z M327,2013.9c0-0.8-1-1.2-2.6-1.2s-2.6,0.4-2.6,1.2c0,0.8,1,1.2,2.6,1.2
			C326.1,2015.1,327,2014.7,327,2013.9z M329.5,2007.9v0.8h-1.6v3h-1v-6.5h1v2.7H329.5z"/>
	</g>
	<g class="st2">
		<path class="st3" d="M88.3,2023.9H91v0.8h-6.3v-0.8h2.7v-1.6h1L88.3,2023.9L88.3,2023.9z M90.4,2028c0,1.5-1.1,2.5-2.6,2.5
			s-2.6-1-2.6-2.5s1.1-2.5,2.6-2.5S90.4,2026.6,90.4,2028z M89.5,2028c0-1-0.7-1.7-1.7-1.7s-1.7,0.7-1.7,1.7s0.7,1.7,1.7,1.7
			S89.5,2029,89.5,2028z M94.7,2027.4h-1.8v5.5h-1v-10.7h1v4.4h1.8V2027.4z"/>
		<path class="st3" d="M105.4,2030.6v0.8h-9.7v-0.8h3.8v-3.9h1v3.9H105.4z M103.3,2024h-6.6v-0.8h7.5v1.1c0,1.3,0,2.8-0.4,5l-1-0.1
			c0.4-2.1,0.4-3.6,0.4-4.9L103.3,2024L103.3,2024z"/>
		<path class="st3" d="M106.7,2033.6c0.8-0.3,1.2-0.9,1.2-1.6h-0.1c-0.4,0-0.8-0.3-0.8-0.8s0.4-0.8,0.8-0.8c0.6,0,0.9,0.5,0.9,1.3
			c0,1.2-0.7,2.1-1.8,2.5L106.7,2033.6z"/>
		<path class="st3" d="M115.8,2027.3c-1.6,0-2.8-1-2.8-2.4s1.2-2.4,2.8-2.4c1.6,0,2.8,1,2.8,2.4
			C118.5,2026.3,117.4,2027.3,115.8,2027.3z M115.8,2026.5c1.1,0,1.8-0.7,1.8-1.6s-0.8-1.6-1.8-1.6s-1.8,0.7-1.8,1.6
			C113.9,2025.8,114.7,2026.5,115.8,2026.5z M121.9,2032v0.8h-7.3v-2.7h6v-1.1h-6v-0.8h7v2.6h-6v1.2H121.9z M121.6,2027.6h-1v-5.5h1
			V2027.6z"/>
		<path class="st3" d="M127.4,2023.9h2.7v0.8h-6.3v-0.8h2.7v-1.6h1L127.4,2023.9L127.4,2023.9z M129.6,2028c0,1.5-1.1,2.5-2.6,2.5
			c-1.5,0-2.6-1-2.6-2.5s1.1-2.5,2.6-2.5C128.5,2025.5,129.6,2026.6,129.6,2028z M128.6,2028c0-1-0.7-1.7-1.7-1.7s-1.7,0.7-1.7,1.7
			s0.7,1.7,1.7,1.7C127.9,2029.7,128.6,2029,128.6,2028z M133.8,2027.4H132v5.5h-1v-10.7h1v4.4h1.8V2027.4z"/>
		<path class="st3" d="M140.5,2023.3c0,3.1-1.4,5.8-5,7.6l-0.5-0.8c2.9-1.4,4.3-3.4,4.5-6h-4v-0.8L140.5,2023.3L140.5,2023.3z
			 M143.6,2022.1v10.8h-1v-10.8H143.6z"/>
		<path class="st3" d="M158.3,2026.6v0.8h-9.7v-0.8h4.4v-1.3h1v1.3H158.3z M149.1,2025.2c1.9-0.1,3.6-0.9,3.7-2h-3.3v-0.8h7.9v0.8
			h-3.3c0.1,1.1,1.8,1.8,3.7,2l-0.3,0.8c-1.8-0.2-3.4-0.9-4-2c-0.6,1.1-2.2,1.8-4,2L149.1,2025.2z M153.9,2028.8h3.5v0.8h-7.9v-0.8
			h3.5v-1h1v1H153.9z M156.6,2031.5c0,0.9-1.2,1.4-3.2,1.4c-2.1,0-3.2-0.5-3.2-1.4s1.2-1.4,3.2-1.4
			C155.5,2030.1,156.6,2030.6,156.6,2031.5z M155.6,2031.5c0-0.5-0.8-0.7-2.2-0.7s-2.2,0.2-2.2,0.7s0.8,0.7,2.2,0.7
			S155.6,2032,155.6,2031.5z"/>
		<path class="st3" d="M169.3,2027.8v0.8h-9.7v-0.8H169.3z M160.7,2024.6c0-1.3,1.5-2.1,3.8-2.1s3.8,0.8,3.8,2.1
			c0,1.3-1.5,2.1-3.8,2.1S160.7,2026,160.7,2024.6z M161.8,2031.8h6.4v0.8h-7.4v-3.1h1V2031.8z M161.7,2024.6c0,0.9,1.1,1.3,2.8,1.3
			s2.8-0.5,2.8-1.3s-1.1-1.4-2.8-1.4C162.8,2023.3,161.7,2023.8,161.7,2024.6z"/>
		<path class="st3" d="M183.1,2027.1v0.8h-9.8v-0.8h7.2c0.3-1.5,0.3-2.5,0.3-3.5l0,0h-6.3v-0.8h7.3v0.8c0,0.9,0,2-0.3,3.5H183.1z
			 M175.6,2031.8h6.6v0.8h-7.5v-3.5h1v2.7H175.6z"/>
		<path class="st3" d="M194.1,2029.2h-4.4v3.7h-1v-3.7h-4.4v-0.8h9.8L194.1,2029.2L194.1,2029.2z M192.9,2026.9h-7.3v-4.2h7.3
			V2026.9z M191.9,2023.5h-5.3v2.6h5.3V2023.5z"/>
		<path class="st3" d="M202.2,2028.8c-2.3,0.4-4.9,0.5-6.7,0.5l-0.1-0.8c0.8,0,1.8,0,2.9,0v-0.8c-1.2-0.1-2-0.7-2-1.6
			c0-1,1-1.6,2.5-1.6s2.5,0.6,2.5,1.6c0,0.9-0.8,1.5-2,1.6v0.8c1,0,2-0.1,2.9-0.3L202.2,2028.8z M201.8,2023.9h-6.2v-0.7h2.6v-1.1h1
			v1.1h2.6L201.8,2023.9L201.8,2023.9z M197.9,2031.8h6.2v0.8h-7.2v-2.7h1V2031.8z M198.7,2027c0.9,0,1.6-0.4,1.6-1
			s-0.6-0.9-1.6-0.9s-1.6,0.4-1.6,0.9C197.1,2026.6,197.7,2027,198.7,2027z M205.3,2025.9v0.8h-1.6v3.8h-1v-8.4h1v3.8L205.3,2025.9
			L205.3,2025.9z"/>
		<path class="st3" d="M211.6,2024.9c-0.7,1.7-2.3,3-4.6,3.7l-0.4-0.8c2.6-0.8,4.2-2.2,4.3-4.1h-3.8v-0.8h4.9c0,0.4,0,0.8-0.1,1.2
			h2.4v-2h1v6.4h-1v-1.4h-2.8v-0.8h2.8v-1.4L211.6,2024.9L211.6,2024.9z M215.3,2030.8c0,1.3-1.4,2.1-3.6,2.1
			c-2.2,0-3.6-0.8-3.6-2.1s1.4-2.1,3.6-2.1C214,2028.7,215.3,2029.5,215.3,2030.8z M214.4,2030.8c0-0.8-1-1.3-2.6-1.3
			s-2.6,0.5-2.6,1.3s1,1.3,2.6,1.3C213.4,2032.1,214.4,2031.6,214.4,2030.8z"/>
		<path class="st3" d="M227.2,2026.8v0.8h-9.7v-0.8H227.2z M218.6,2024.2c0-1.2,1.4-1.9,3.8-1.9s3.8,0.7,3.8,1.9
			c0,1.2-1.4,1.9-3.8,1.9S218.6,2025.4,218.6,2024.2z M219.6,2032h6.6v0.8h-7.6v-2.6h6.3v-1h-6.3v-0.7h7.3v2.4h-6.3V2032z
			 M219.6,2024.2c0,0.7,1,1.1,2.8,1.1s2.8-0.4,2.8-1.1s-1-1.1-2.8-1.1S219.6,2023.5,219.6,2024.2z"/>
		<path class="st3" d="M234.4,2025.2c0,1.9,0.8,3.7,2.3,4.6l-0.6,0.7c-1-0.6-1.8-1.8-2.2-3.1c-0.4,1.5-1.2,2.7-2.2,3.4l-0.6-0.7
			c1.5-0.9,2.3-2.9,2.3-4.8v-1h-2v-0.8h4.9v0.8h-1.9V2025.2z M237.2,2022.4h0.9v10h-0.9v-5.5h-1.8v-0.8h1.8V2022.4z M240.3,2022.1
			v10.8h-0.9v-10.8H240.3z"/>
		<path class="st3" d="M251.9,2027.1v0.8h-9.7v-0.8h4v-2.1h1v2.1H251.9z M250.8,2030.9c0,1.2-1.5,2-3.8,2s-3.7-0.7-3.7-2
			c0-1.2,1.5-2,3.7-2S250.8,2029.7,250.8,2030.9z M249.8,2023.5h-6.4v-0.8h7.3v0.9c0,0.9,0,1.7-0.3,2.8l-1-0.1
			c0.3-1.1,0.3-1.9,0.3-2.7L249.8,2023.5L249.8,2023.5z M249.8,2030.9c0-0.8-1.1-1.2-2.8-1.2s-2.8,0.5-2.8,1.2s1.1,1.2,2.8,1.2
			C248.8,2032.1,249.8,2031.7,249.8,2030.9z"/>
		<path class="st3" d="M256.9,2023.9h2.7v0.8h-6.3v-0.8h2.7v-1.6h1v1.6H256.9z M259.1,2028c0,1.5-1.1,2.5-2.6,2.5
			c-1.5,0-2.6-1-2.6-2.5s1.1-2.5,2.6-2.5C258,2025.5,259.1,2026.6,259.1,2028z M258.1,2028c0-1-0.7-1.7-1.7-1.7
			c-1,0-1.7,0.7-1.7,1.7s0.7,1.7,1.7,1.7C257.4,2029.7,258.1,2029,258.1,2028z M263.3,2027.4h-1.8v5.5h-1v-10.7h1v4.4h1.8V2027.4z"
			/>
		<path class="st3" d="M270,2023.3c0,3.1-1.4,5.8-5,7.6l-0.5-0.8c2.9-1.4,4.3-3.4,4.5-6h-4v-0.8L270,2023.3L270,2023.3z
			 M273.2,2022.1v10.8h-1v-10.8H273.2z"/>
		<path class="st3" d="M285.2,2028.3c-1,0.2-2.1,0.3-3.1,0.4v3.9h-1v-3.8c-1.1,0-2.1,0.1-3,0.1l-0.1-0.8c2,0,4.7,0,7.1-0.4
			L285.2,2028.3z M278.8,2024.9c0-1.3,1.1-2.2,2.7-2.2s2.7,0.9,2.7,2.2c0,1.3-1.1,2.2-2.7,2.2C280,2027.1,278.8,2026.2,278.8,2024.9
			z M279.8,2024.9c0,0.8,0.7,1.4,1.8,1.4c1,0,1.8-0.6,1.8-1.4s-0.7-1.4-1.8-1.4C280.5,2023.4,279.8,2024,279.8,2024.9z
			 M286.9,2022.1v10.8h-1v-10.8H286.9z"/>
		<path class="st3" d="M292.2,2024h2.2v0.8h-5.3v-0.8h2.2v-1.5h1v1.5H292.2z M294.1,2027.9c0,1.5-1,2.5-2.3,2.5s-2.3-1-2.3-2.5
			c0-1.4,1-2.4,2.3-2.4S294.1,2026.5,294.1,2027.9z M293.2,2027.9c0-0.9-0.6-1.6-1.4-1.6s-1.4,0.7-1.4,1.6c0,1,0.6,1.6,1.4,1.6
			C292.6,2029.6,293.2,2028.9,293.2,2027.9z M298.2,2022.1v10.8h-0.9v-5.4h-1.4v4.9H295v-10h0.9v4.3h1.4v-4.5h0.9V2022.1z"/>
		<path class="st3" d="M306.9,2029.8c1-0.1,2.1-0.1,3-0.3l0.1,0.7c-2.4,0.4-5,0.5-7,0.5l-0.1-0.8c0.9,0,1.9,0,3,0v-2h1V2029.8z
			 M303.2,2027.4c1.6-0.5,2.7-1.7,2.7-3.1h-2.4v-0.8h2.4v-1.3h1v1.3h2.5v0.8h-2.5c0,1.4,1.2,2.5,2.7,3l-0.5,0.8
			c-1.3-0.4-2.3-1.2-2.7-2.3c-0.5,1.1-1.5,2-2.7,2.4L303.2,2027.4z M311.6,2022.1v10.8h-1v-10.8H311.6z"/>
		<path class="st3" d="M319.6,2028.4c-1.2-0.5-2.1-1.4-2.6-2.6c-0.5,1.3-1.4,2.3-2.7,2.8l-0.5-0.8c1.6-0.6,2.7-2.1,2.7-3.8v-1.3h1
			v1.4c0,1.5,1.1,2.9,2.6,3.5L319.6,2028.4z M323,2031.8v0.8h-7.2v-3.4h1v2.6H323z M321.7,2025.5h-2.3v-0.8h2.3v-2.5h1v8h-1V2025.5z
			"/>
		<path class="st3" d="M334.6,2026.8v0.8h-9.7v-0.8H334.6z M326,2024.2c0-1.2,1.4-1.9,3.8-1.9s3.8,0.7,3.8,1.9
			c0,1.2-1.4,1.9-3.8,1.9S326,2025.4,326,2024.2z M327.1,2032h6.6v0.8h-7.6v-2.6h6.3v-1h-6.3v-0.7h7.3v2.4h-6.3V2032z M327,2024.2
			c0,0.7,1,1.1,2.8,1.1s2.8-0.4,2.8-1.1s-1-1.1-2.8-1.1S327,2023.5,327,2024.2z"/>
	</g>
	<g class="st2">
		<path class="st3" d="M86.1,2046.4c1.9,0,3.3-0.1,4.8-0.4l0.1,0.8c-1.6,0.3-3.1,0.4-5.1,0.4H85v-7.1h5v0.8h-4L86.1,2046.4
			L86.1,2046.4z M94.7,2044.2h-1.8v5.7h-1v-10.8h1v4.2h1.8V2044.2z"/>
		<path class="st3" d="M102.1,2041h-6.3v-0.8h2.7v-1.2h1v1.2h2.7L102.1,2041L102.1,2041z M98.9,2045.3c-1.5,0-2.6-0.7-2.6-1.9
			c0-1.1,1-1.9,2.6-1.9s2.6,0.7,2.6,1.9C101.5,2044.6,100.4,2045.3,98.9,2045.3z M98.9,2044.6c1,0,1.6-0.4,1.6-1.1s-0.7-1.1-1.6-1.1
			s-1.6,0.4-1.6,1.1C97.2,2044.1,97.9,2044.6,98.9,2044.6z M103.1,2045.9h1v3.9h-6.8v-3.9h1v1.1h4.8V2045.9z M103.1,2047.8h-4.8v1.2
			h4.8V2047.8z M105.6,2042.7H104v2.7h-1v-6.2h1v2.7h1.6V2042.7z"/>
		<path class="st3" d="M108.4,2046.3c1.6,0,3.3-0.1,5.1-0.5l0.1,0.8c-1.9,0.4-3.6,0.5-5.3,0.5h-0.9v-6.9h1
			C108.4,2040.2,108.4,2046.3,108.4,2046.3z M115.5,2039.1v10.7h-1v-10.7L115.5,2039.1L115.5,2039.1z"/>
		<path class="st3" d="M119.2,2046.4c1.9,0,3.3-0.1,4.8-0.4l0.1,0.8c-1.6,0.3-3.1,0.4-5.1,0.4h-0.9v-7.1h5v0.8h-4L119.2,2046.4
			L119.2,2046.4z M127.8,2044.2H126v5.7h-1v-10.8h1v4.2h1.8V2044.2z"/>
		<path class="st3" d="M129,2048.3c0-0.5,0.4-0.9,0.8-0.9s0.8,0.3,0.8,0.9c0,0.5-0.4,0.8-0.8,0.8S129,2048.8,129,2048.3z"/>
	</g>
	<g class="st2">
		<path class="st3" d="M84.7,2114.6c0-2.8,1.5-4.5,3.8-4.5c2.2,0,3.8,1.7,3.8,4.5s-1.5,4.6-3.8,4.6
			C86.2,2119.2,84.7,2117.4,84.7,2114.6z M91.1,2114.6c0-2.2-1-3.6-2.6-3.6s-2.6,1.4-2.6,3.6c0,2.2,1,3.6,2.6,3.6
			C90,2118.2,91.1,2116.8,91.1,2114.6z"/>
		<path class="st3" d="M93.6,2114.6c0-2.8,1.7-4.6,3.9-4.6c1.1,0,1.9,0.5,2.4,1.1l-0.6,0.7c-0.5-0.5-1-0.8-1.8-0.8
			c-1.7,0-2.8,1.4-2.8,3.6c0,2.2,1.1,3.6,2.7,3.6c0.8,0,1.5-0.4,2-1l0.6,0.7c-0.7,0.8-1.6,1.3-2.7,1.3
			C95.2,2119.2,93.6,2117.5,93.6,2114.6z"/>
		<path class="st3" d="M101.8,2110.2h1.1v8.8h-1.1V2110.2z"/>
	</g>
	<g class="st2">
		<path class="st3" d="M114.5,2114.6v0.8h-9.8v-0.8H114.5z M106.9,2118.8h6.5v0.8H106v-3.1h1L106.9,2118.8L106.9,2118.8z
			 M113.3,2113.2H106v-3.6h1v2.8h6.3V2113.2z"/>
		<path class="st3" d="M124.3,2112.2c0,1.5-1.2,2.5-2.8,2.5c-1.6,0-2.8-1-2.8-2.5s1.2-2.5,2.8-2.5
			C123.1,2109.7,124.3,2110.7,124.3,2112.2z M119.7,2112.2c0,1,0.8,1.7,1.8,1.7c1.1,0,1.9-0.7,1.9-1.7s-0.8-1.7-1.9-1.7
			S119.7,2111.2,119.7,2112.2z M127.3,2115.9v3.9h-7v-3.9H127.3z M121.3,2116.6v2.3h5v-2.3H121.3z M127.3,2109.1v6.2h-1v-6.2H127.3z
			"/>
		<path class="st3" d="M135.6,2115.2c-1.2-0.4-2.2-1.3-2.7-2.4c-0.5,1.2-1.5,2.2-2.7,2.7l-0.5-0.8c1.6-0.6,2.7-2,2.7-3.5v-0.4h-2.5
			v-0.8h5.9v0.8h-2.4v0.4c0,1.4,1.1,2.7,2.7,3.3L135.6,2115.2z M131.1,2116.2h7.2v3.7h-1v-2.9h-6.2V2116.2z M138.3,2109.1v6.5h-1
			v-6.5H138.3z"/>
		<path class="st3" d="M143.6,2114.9c-1.1,0-2.1,0.1-3,0.1l-0.1-0.8c2,0,4.7,0,6.9-0.3l0.1,0.7c-0.9,0.1-1.9,0.3-2.9,0.3v2.1h-1
			V2114.9z M141.3,2111.4c0-1.1,1.1-1.9,2.7-1.9c1.6,0,2.7,0.7,2.7,1.9s-1.1,1.9-2.7,1.9C142.4,2113.3,141.3,2112.6,141.3,2111.4z
			 M149.6,2118.8v0.8H142v-3.1h1v2.3H149.6z M142.2,2111.4c0,0.7,0.7,1.2,1.7,1.2s1.7-0.5,1.7-1.2s-0.7-1.1-1.7-1.1
			S142.2,2110.7,142.2,2111.4z M148.3,2115.5v-6.4h1v8.2h-1v-1.1h-2.2v-0.7H148.3z"/>
		<path class="st3" d="M151.6,2116.7c2,0,4.7,0,7-0.4l0.1,0.7c-2.4,0.4-5,0.5-7,0.5L151.6,2116.7z M157.9,2112.5
			c0,1.5-1.2,2.5-2.9,2.5s-2.9-1-2.9-2.5s1.2-2.5,2.9-2.5C156.7,2109.9,157.9,2110.9,157.9,2112.5z M153.1,2112.5
			c0,1,0.8,1.7,1.9,1.7c1.1,0,1.9-0.7,1.9-1.7s-0.8-1.7-1.9-1.7C153.9,2110.8,153.1,2111.4,153.1,2112.5z M160.3,2109.1v10.8h-1
			v-10.8H160.3z"/>
		<path class="st3" d="M168.3,2115.2c-1.6,0-2.8-1.1-2.8-2.7c0-1.5,1.2-2.6,2.8-2.6s2.8,1.1,2.8,2.6
			C171.2,2114.1,169.9,2115.2,168.3,2115.2z M168.3,2114.3c1.1,0,1.9-0.7,1.9-1.8c0-1-0.8-1.8-1.9-1.8c-1,0-1.8,0.7-1.8,1.8
			S167.3,2114.3,168.3,2114.3z M174.4,2118.8v0.8h-7.2v-3.5h1v2.7H174.4z M174.1,2117h-1v-7.9h1V2117z"/>
		<path class="st3" d="M179.3,2114.1c-1,0-2,0.1-2.9,0.1l-0.1-0.8c1.4,0,3.1,0,4.8-0.1c0.2-1.2,0.3-2.1,0.3-2.7h-4.1v-0.8h5v0.4
			c0,0.6,0,1.6-0.2,3c0.4,0,0.8-0.1,1.2-0.1l0.1,0.7c-1,0.2-2,0.3-3,0.3v2.5h-1v-2.5H179.3z M185.4,2118.8v0.8h-7.6v-3.3h1v2.5
			H185.4z M184.2,2115v-5.9h1v8.1h-1v-1.5h-2.3v-0.8L184.2,2115L184.2,2115z"/>
		<path class="st3" d="M193.6,2115.1c-1.3-0.4-2.3-1.2-2.8-2.3c-0.5,1.2-1.5,2.1-2.8,2.5l-0.5-0.8c1.6-0.5,2.7-1.8,2.7-3.3v-0.1
			h-2.4v-0.8h2.4v-1.3h1v1.3h2.4v0.8h-2.4v0.1c0,1.4,1.2,2.6,2.7,3L193.6,2115.1z M189.2,2116.1h7v3.7h-7V2116.1z M190.2,2119h5
			v-2.1h-5V2119z M196.2,2109.1v6.4h-1v-6.4H196.2z"/>
		<path class="st3" d="M201.5,2111h2.2v0.8h-5.3v-0.8h2.2v-1.5h1L201.5,2111L201.5,2111z M203.4,2114.9c0,1.5-1,2.5-2.3,2.5
			s-2.3-1-2.3-2.5c0-1.4,1-2.4,2.3-2.4S203.4,2113.5,203.4,2114.9z M202.5,2114.9c0-0.9-0.6-1.6-1.4-1.6c-0.8,0-1.4,0.7-1.4,1.6
			c0,1,0.6,1.6,1.4,1.6C201.9,2116.6,202.5,2115.9,202.5,2114.9z M207.5,2109.1v10.8h-0.9v-5.4h-1.4v4.9h-0.9v-10h0.9v4.3h1.4v-4.5
			h0.9V2109.1z"/>
		<path class="st3" d="M219.2,2114.1v0.7h-9.8v-0.7H219.2z M211.6,2119h6.7v0.7h-7.7v-2.4h6.4v-0.9h-6.4v-0.7h7.4v2.3h-6.4V2119z
			 M217,2110.1h-6.3v-0.7h7.3v2.2h-6.3v0.9h6.5v0.7h-7.4v-2.3h6.3v-0.8H217z"/>
		<path class="st3" d="M226.8,2112c0,1.9,1.2,3.8,2.7,4.6l-0.6,0.8c-1.1-0.6-2.1-1.9-2.6-3.3c-0.5,1.6-1.5,2.9-2.7,3.6l-0.6-0.8
			c1.5-0.8,2.8-2.9,2.8-4.8v-1.9h1L226.8,2112L226.8,2112z M233.2,2114.3h-1.8v5.6h-1v-10.7h1v4.4h1.8V2114.3z"/>
		<path class="st3" d="M240.1,2115.4c-1.2-0.4-2.1-1.3-2.6-2.4c-0.5,1.2-1.5,2.2-2.7,2.7l-0.5-0.8c1.6-0.6,2.7-2,2.7-3.5v-0.5h-2.4
			v-0.8h5.7v0.8h-2.4v0.5c0,1.4,1.1,2.7,2.6,3.3L240.1,2115.4z M243.4,2118.8v0.8h-7.2v-3.3h1v2.5H243.4z M242.1,2112.1v-3h1v7.9h-1
			v-4.1h-2.2v-0.8L242.1,2112.1L242.1,2112.1z"/>
		<path class="st3" d="M251.3,2109.4h0.9v10h-0.9v-5.2H250c-0.1,2.1-1,3.4-2.3,3.4c-1.4,0-2.3-1.4-2.3-3.8c0-2.3,0.9-3.7,2.3-3.7
			c1.3,0,2.2,1.3,2.3,3.3h1.4L251.3,2109.4L251.3,2109.4z M249.1,2113.8c0-1.7-0.6-2.8-1.4-2.8c-0.9,0-1.4,1.1-1.4,2.8
			c0,1.8,0.5,2.9,1.4,2.9C248.5,2116.6,249.1,2115.5,249.1,2113.8z M254.4,2109.1v10.8h-0.9v-10.8H254.4z"/>
		<path class="st3" d="M265.1,2109.4h0.9v10h-0.9v-3.5h-1.7c-0.4,1.1-1.1,1.7-2,1.7c-1.4,0-2.3-1.4-2.3-3.8c0-2.3,0.9-3.7,2.3-3.7
			c0.9,0,1.6,0.6,2,1.7h1.7V2109.4z M262.8,2113.8c0-1.7-0.5-2.8-1.4-2.8s-1.4,1.1-1.4,2.8c0,1.8,0.6,2.8,1.4,2.8
			C262.3,2116.6,262.8,2115.5,262.8,2113.8z M265.1,2115v-2.5h-1.5c0.1,0.4,0.1,0.8,0.1,1.2c0,0.5,0,0.9-0.1,1.2h1.5V2115z
			 M268.1,2109.1v10.8h-0.9v-10.8H268.1z"/>
		<path class="st3" d="M275.4,2114.8h-5v-5h1v1.6h3v-1.6h1V2114.8z M278.5,2117.9c0,1.3-1.4,2-3.5,2c-2.2,0-3.5-0.7-3.5-2
			s1.4-2,3.5-2S278.5,2116.6,278.5,2117.9z M274.5,2112.2h-3v1.8h3V2112.2z M277.5,2117.9c0-0.8-1-1.2-2.6-1.2s-2.6,0.4-2.6,1.2
			s1,1.2,2.6,1.2C276.5,2119.1,277.5,2118.7,277.5,2117.9z M280,2111.8v0.8h-1.6v3h-1v-6.5h1v2.7H280z"/>
		<path class="st3" d="M284.7,2110.9h2.7v0.8H281v-0.8h2.7v-1.6h1V2110.9z M286.8,2115c0,1.5-1.1,2.5-2.6,2.5s-2.6-1-2.6-2.5
			s1.1-2.5,2.6-2.5C285.8,2112.5,286.8,2113.6,286.8,2115z M285.9,2115c0-1-0.7-1.7-1.7-1.7s-1.7,0.7-1.7,1.7s0.7,1.7,1.7,1.7
			C285.2,2116.7,285.9,2116,285.9,2115z M291.1,2114.4h-1.8v5.5h-1v-10.7h1v4.4h1.8V2114.4z"/>
		<path class="st3" d="M297.8,2110.3c0,3.1-1.4,5.8-5,7.6l-0.5-0.8c2.9-1.4,4.3-3.4,4.5-6h-4v-0.8H297.8z M300.9,2109.1v10.8h-1
			v-10.8H300.9z"/>
		<path class="st3" d="M313,2115.3c-1,0.2-2.1,0.3-3.1,0.4v3.9h-1v-3.8c-1.1,0-2.1,0.1-3,0.1l-0.1-0.8c2,0,4.7,0,7.1-0.4L313,2115.3
			z M306.6,2111.9c0-1.3,1.1-2.2,2.7-2.2s2.7,0.9,2.7,2.2s-1.1,2.2-2.7,2.2C307.8,2114.1,306.6,2113.2,306.6,2111.9z M307.6,2111.9
			c0,0.8,0.7,1.4,1.8,1.4c1,0,1.8-0.6,1.8-1.4c0-0.8-0.7-1.4-1.8-1.4C308.3,2110.4,307.6,2111,307.6,2111.9z M314.7,2109.1v10.8h-1
			v-10.8H314.7z"/>
		<path class="st3" d="M320,2111h2.2v0.8h-5.3v-0.8h2.2v-1.5h1v1.5H320z M321.8,2114.9c0,1.5-1,2.5-2.3,2.5s-2.3-1-2.3-2.5
			c0-1.4,1-2.4,2.3-2.4C320.9,2112.5,321.8,2113.5,321.8,2114.9z M321,2114.9c0-0.9-0.6-1.6-1.4-1.6s-1.4,0.7-1.4,1.6
			c0,1,0.6,1.6,1.4,1.6C320.4,2116.6,321,2115.9,321,2114.9z M326,2109.1v10.8h-1v-5.4h-1.4v4.9h-0.9v-10h0.9v4.3h1.4v-4.5h1V2109.1
			z"/>
	</g>
	<g class="st2">
		<path class="st3" d="M90.5,2132.1c-1.2-0.4-2.1-1.3-2.6-2.4c-0.5,1.2-1.5,2.3-2.7,2.7l-0.5-0.8c1.6-0.6,2.7-2,2.7-3.6v-0.4H85
			v-0.8h5.7v0.8h-2.4v0.4c0,1.4,1.1,2.7,2.6,3.3L90.5,2132.1z M93.5,2134.9c0,1.3-1.4,2-3.6,2s-3.6-0.7-3.6-2s1.4-2,3.6-2
			S93.5,2133.6,93.5,2134.9z M92.6,2134.9c0-0.8-1-1.2-2.6-1.2s-2.6,0.5-2.6,1.2s1,1.2,2.6,1.2S92.6,2135.7,92.6,2134.9z
			 M92.5,2128.9v-2.8h1v6.4h-1v-2.8h-2.1v-0.8L92.5,2128.9L92.5,2128.9z"/>
		<path class="st3" d="M101.3,2127.3c0,3.1-1.4,5.8-5,7.6l-0.5-0.8c2.9-1.4,4.3-3.4,4.5-6h-4v-0.8H101.3z M104.5,2126.1v10.8h-1
			v-10.8H104.5z"/>
		<path class="st3" d="M112.6,2132.2c-1.2-0.4-2.1-1.3-2.6-2.4c-0.5,1.2-1.4,2.2-2.7,2.7l-0.5-0.8c1.6-0.6,2.7-2,2.7-3.5v-0.4h-2.4
			v-0.8h5.7v0.8h-2.4v0.4c0,1.4,1.1,2.7,2.6,3.3L112.6,2132.2z M108.4,2133.2h7.2v3.7h-1v-3h-6.2V2133.2z M115.6,2126.1v6.4h-1v-2.8
			h-2.1v-0.8h2.1v-2.8L115.6,2126.1L115.6,2126.1z"/>
		<path class="st3" d="M120.8,2132.2c-1.6,0-2.8-1.1-2.8-2.7c0-1.5,1.2-2.6,2.8-2.6c1.6,0,2.8,1.1,2.8,2.6
			C123.6,2131.1,122.4,2132.2,120.8,2132.2z M120.8,2131.3c1.1,0,1.9-0.7,1.9-1.8c0-1-0.8-1.8-1.9-1.8c-1,0-1.8,0.7-1.8,1.8
			S119.8,2131.3,120.8,2131.3z M126.9,2135.8v0.8h-7.2v-3.5h1v2.7H126.9z M126.6,2134h-1v-7.9h1V2134z"/>
		<path class="st3" d="M141.2,2134.6v0.8h-9.7v-0.8h2.4v-3.6h1v3.6h1.7v-3.6h1v3.6H141.2z M139.1,2128h-6.6v-0.8h7.6v1.2
			c0,1.4,0,2.8-0.4,4.8l-1-0.1c0.4-1.9,0.4-3.3,0.4-4.7V2128z"/>
		<path class="st3" d="M149.7,2132.1v1.4h1.4v3.4h-1v-2.6h-6.5v-0.8h1.5v-1.4h-2.6v-0.8h9.7v0.8L149.7,2132.1L149.7,2132.1z
			 M143.6,2128.4c0-1.3,1.5-2.1,3.8-2.1s3.8,0.8,3.8,2.1s-1.5,2.1-3.8,2.1S143.6,2129.7,143.6,2128.4z M144.6,2128.4
			c0,0.8,1.1,1.3,2.8,1.3s2.8-0.5,2.8-1.3s-1.1-1.3-2.8-1.3S144.6,2127.6,144.6,2128.4z M148.7,2132.1h-2.6v1.4h2.6V2132.1z"/>
		<path class="st3" d="M163.3,2130.8v0.8h-9.7v-0.8H163.3z M154.6,2128.2c0-1.2,1.4-1.9,3.8-1.9c2.4,0,3.8,0.7,3.8,1.9
			s-1.4,1.9-3.8,1.9C156.1,2130,154.6,2129.4,154.6,2128.2z M155.7,2136h6.6v0.8h-7.6v-2.6h6.3v-1h-6.3v-0.7h7.3v2.4h-6.3V2136z
			 M155.7,2128.2c0,0.7,1,1.1,2.8,1.1s2.8-0.4,2.8-1.1s-1-1.1-2.8-1.1C156.7,2127.1,155.7,2127.5,155.7,2128.2z"/>
		<path class="st3" d="M173.3,2131.4c-1.2-0.4-2.2-1.3-2.7-2.5c-0.5,1.2-1.5,2.2-2.7,2.7l-0.5-0.8c1.6-0.6,2.7-2,2.7-3.6v-0.8h1v0.8
			c0,1.5,1.1,2.8,2.7,3.4L173.3,2131.4z M176.5,2136v0.8h-7.3v-2.7h6v-1.1h-6v-0.8h7v2.6h-6v1.2H176.5z M176.1,2131.7h-1v-5.6h1
			V2131.7z"/>
		<path class="st3" d="M182.1,2129c0,2,1.3,3.9,2.9,4.7l-0.6,0.8c-1.2-0.6-2.3-1.9-2.8-3.4c-0.5,1.6-1.5,3-2.8,3.6l-0.6-0.8
			c1.6-0.8,2.9-2.8,2.9-4.9v-1.9h1L182.1,2129L182.1,2129z M187.1,2126.1v10.8h-1v-10.8H187.1z"/>
		<path class="st3" d="M195.8,2128.1h-6.3v-0.8h2.7v-1.2h1v1.2h2.7L195.8,2128.1L195.8,2128.1z M192.6,2132.4
			c-1.5,0-2.6-0.7-2.6-1.9s1-1.9,2.6-1.9s2.6,0.7,2.6,1.9C195.2,2131.7,194.1,2132.4,192.6,2132.4z M192.6,2131.7
			c1,0,1.6-0.5,1.6-1.2s-0.7-1.2-1.6-1.2c-1,0-1.6,0.5-1.6,1.2C190.9,2131.2,191.6,2131.7,192.6,2131.7z M191,2133.2h6.8v3.5H191
			V2133.2z M191.9,2136h4.8v-2h-4.8V2136z M199.3,2129.8h-1.6v2.8h-1v-6.5h1v2.9h1.6V2129.8z"/>
		<path class="st3" d="M210.2,2134.6v0.8h-9.8v-0.8H210.2z M209.2,2129.8c0,1.8-1.7,3-3.9,3s-3.9-1.2-3.9-3s1.7-3,3.9-3
			S209.2,2128,209.2,2129.8z M202.3,2129.8c0,1.3,1.3,2.2,3,2.2s3-0.9,3-2.2s-1.3-2.2-3-2.2S202.3,2128.5,202.3,2129.8z"/>
		<path class="st3" d="M221.2,2134.8v0.8h-9.8v-0.8h4.4v-2h-3.2v-3.3h6.4v-1.7h-6.4v-0.8h7.4v3.3h-6.4v1.7h6.6v0.8h-3.4v2H221.2z"/>
		<path class="st3" d="M227.9,2129.5c0,1.4,0.3,3.3,1.7,4.2l-0.6,0.7c-0.8-0.6-1.2-1.5-1.5-2.6c-0.2,1.1-0.7,2.1-1.5,2.7
			c-0.8-0.6-1.3-1.6-1.5-2.7c-0.3,1-0.7,2-1.5,2.5l-0.6-0.7c1.3-1,1.7-2.8,1.7-4.2v-2.4h0.9v2.4c0,1.1,0.2,2.7,1,3.8
			c0.9-1.1,1-2.6,1-3.8v-2.4h0.9L227.9,2129.5L227.9,2129.5z M231.5,2126.1v10.7h-1v-6h-1.9v-0.8h1.9v-3.9H231.5z"/>
		<path class="st3" d="M239.3,2132.2c-1.6,0-2.8-1.1-2.8-2.7c0-1.5,1.2-2.6,2.8-2.6s2.8,1.1,2.8,2.6
			C242.1,2131.1,240.9,2132.2,239.3,2132.2z M239.3,2131.3c1.1,0,1.9-0.7,1.9-1.8c0-1-0.8-1.8-1.9-1.8c-1,0-1.8,0.7-1.8,1.8
			C237.4,2130.6,238.2,2131.3,239.3,2131.3z M245.4,2135.8v0.8h-7.2v-3.5h1v2.7H245.4z M245,2134h-1v-7.9h1V2134z"/>
		<path class="st3" d="M250.2,2131.1c-1,0-2,0.1-2.9,0.1l-0.1-0.8c1.4,0,3.1,0,4.8-0.1c0.2-1.2,0.3-2.1,0.3-2.7h-4.1v-0.8h5v0.4
			c0,0.6,0,1.6-0.2,3c0.4,0,0.8-0.1,1.2-0.1l0.1,0.7c-1,0.2-2,0.3-3,0.3v2.5h-1L250.2,2131.1L250.2,2131.1z M256.4,2135.8v0.8h-7.6
			v-3.3h1v2.5H256.4z M255.1,2132v-5.9h1v8.1h-1v-1.5h-2.3v-0.8L255.1,2132L255.1,2132z"/>
		<path class="st3" d="M264.4,2126.4h0.9v10h-0.9v-5.2H263c-0.1,2.1-1,3.4-2.3,3.4c-1.4,0-2.3-1.4-2.3-3.8c0-2.3,0.9-3.7,2.3-3.7
			c1.3,0,2.2,1.3,2.3,3.3h1.4V2126.4z M262.1,2130.8c0-1.7-0.6-2.8-1.4-2.8c-0.9,0-1.4,1.1-1.4,2.8c0,1.8,0.5,2.9,1.4,2.9
			C261.6,2133.6,262.1,2132.5,262.1,2130.8z M267.4,2126.1v10.8h-0.9v-10.8H267.4z"/>
		<path class="st3" d="M273.4,2133.4c1.4,0,2.5-0.1,3.6-0.3l0.1,0.8c-1.3,0.3-2.4,0.3-4,0.3h-0.7v-6.8h4v0.8h-3V2133.4z
			 M281.2,2126.1v10.8h-0.9v-5.6h-1.5v5.1h-0.9v-10h0.9v4.1h1.5v-4.3h0.9V2126.1z"/>
		<path class="st3" d="M289.4,2128.2h-6.3v-0.8h2.7v-1.3h1v1.3h2.7v0.8H289.4z M286.3,2132.8c-1.5,0-2.6-0.8-2.6-2s1-2,2.6-2
			s2.6,0.8,2.6,2C288.8,2132,287.8,2132.8,286.3,2132.8z M286.3,2132.1c1,0,1.6-0.5,1.6-1.2s-0.7-1.2-1.6-1.2s-1.6,0.5-1.6,1.2
			C284.6,2131.6,285.3,2132.1,286.3,2132.1z M285.7,2135.8h6.2v0.8h-7.2v-3.1h1V2135.8z M293,2129.7v0.8h-1.6v3.7h-1v-8.1h1v3.5h1.6
			V2129.7z"/>
		<path class="st3" d="M299.8,2132.2c-1.6,0-2.8-1.1-2.8-2.7c0-1.5,1.2-2.6,2.8-2.6c1.6,0,2.8,1.1,2.8,2.6
			C302.7,2131.1,301.4,2132.2,299.8,2132.2z M299.8,2131.3c1.1,0,1.9-0.7,1.9-1.8c0-1-0.8-1.8-1.9-1.8c-1,0-1.8,0.7-1.8,1.8
			S298.8,2131.3,299.8,2131.3z M305.9,2135.8v0.8h-7.2v-3.5h1v2.7H305.9z M305.6,2134h-1v-7.9h1V2134z"/>
		<path class="st3" d="M313.8,2132c-1.2-0.4-2.2-1.4-2.7-2.6c-0.5,1.3-1.5,2.3-2.7,2.7l-0.5-0.8c1.6-0.6,2.7-2.1,2.7-3.7v-1.1h1v1.1
			c0,1.5,1.1,3,2.7,3.5L313.8,2132z M309.5,2133.2h7.2v3.7h-1v-3h-6.2V2133.2z M316.7,2126.1v6.5h-1v-6.5H316.7z"/>
	</g>
	<g class="st2">
		<path class="st3" d="M89.2,2144.5c0,2.8-1,5.3-4,7.1l-0.6-0.7c2.5-1.4,3.5-3.3,3.6-5.6H85v-0.8H89.2z M93.8,2143.1v10.8h-0.9v-5.6
			h-1.5v5.1h-0.9v-9.9h0.9v4h1.5v-4.3h0.9V2143.1z"/>
		<path class="st3" d="M101.4,2149.4c-1.2-0.5-2.1-1.4-2.6-2.6c-0.5,1.3-1.4,2.3-2.7,2.8l-0.5-0.8c1.6-0.6,2.7-2.1,2.7-3.8v-1.3h1
			v1.4c0,1.5,1.1,2.9,2.6,3.5L101.4,2149.4z M104.8,2152.8v0.8h-7.2v-3.4h1v2.6L104.8,2152.8L104.8,2152.8z M103.5,2146.5h-2.4v-0.8
			h2.4v-2.5h1v8h-1V2146.5z"/>
		<path class="st3" d="M116.4,2147.8v0.8h-9.7v-0.8H116.4z M107.8,2145.2c0-1.2,1.4-1.9,3.8-1.9s3.8,0.7,3.8,1.9s-1.4,1.9-3.8,1.9
			C109.2,2147,107.8,2146.4,107.8,2145.2z M108.9,2153h6.6v0.8h-7.6v-2.6h6.3v-1h-6.3v-0.7h7.3v2.4h-6.3V2153z M108.8,2145.2
			c0,0.7,1,1.1,2.8,1.1s2.8-0.4,2.8-1.1s-1-1.1-2.8-1.1C109.8,2144.1,108.8,2144.5,108.8,2145.2z"/>
		<path class="st3" d="M126.3,2147.7c0,2.3-1.1,3.8-2.7,3.8c-1.6,0-2.7-1.5-2.7-3.8s1.1-3.8,2.7-3.8
			C125.2,2144,126.3,2145.4,126.3,2147.7z M121.8,2147.7c0,1.8,0.7,2.9,1.8,2.9c1,0,1.8-1.1,1.8-2.9c0-1.7-0.7-2.9-1.8-2.9
			S121.8,2146,121.8,2147.7z M129.2,2143.1v10.8h-1v-10.8H129.2z"/>
		<path class="st3" d="M136.9,2145.2h-5.5v-0.8h2.3v-1.2h1v1.2h2.2V2145.2z M134.2,2149.4c-1.4,0-2.3-0.7-2.3-1.8s0.9-1.8,2.3-1.8
			c1.4,0,2.3,0.7,2.3,1.8S135.5,2149.4,134.2,2149.4z M134.2,2148.7c0.8,0,1.4-0.4,1.4-1.1c0-0.7-0.6-1.1-1.4-1.1
			c-0.9,0-1.4,0.4-1.4,1.1S133.3,2148.7,134.2,2148.7z M140.6,2152c0,1.2-1.4,1.9-3.6,1.9c-2.2,0-3.6-0.7-3.6-1.9s1.4-1.9,3.6-1.9
			C139.3,2150.1,140.6,2150.8,140.6,2152z M139.6,2152c0-0.7-1-1.1-2.6-1.1s-2.6,0.4-2.6,1.1c0,0.7,1,1.1,2.6,1.1
			C138.7,2153.1,139.6,2152.7,139.6,2152z M138.2,2149.5h-0.9v-6.2h0.9v2.7h1.4v-2.9h0.9v6.8h-0.9v-3.1h-1.4V2149.5z"/>
		<path class="st3" d="M148.9,2145h-6.3v-0.8h2.7v-1.2h1v1.2h2.7L148.9,2145L148.9,2145z M145.7,2149.3c-1.5,0-2.6-0.7-2.6-1.9
			c0-1.1,1-1.9,2.6-1.9s2.6,0.7,2.6,1.9S147.3,2149.3,145.7,2149.3z M145.7,2148.6c1,0,1.6-0.4,1.6-1.1c0-0.7-0.7-1.1-1.6-1.1
			s-1.6,0.4-1.6,1.1C144.1,2148.1,144.7,2148.6,145.7,2148.6z M149.9,2149.9h1v3.9h-6.8v-3.9h1v1.1h4.8V2149.9z M149.9,2151.8h-4.8
			v1.2h4.8V2151.8z M152.5,2146.7h-1.6v2.7h-1v-6.2h1v2.7h1.6V2146.7z"/>
		<path class="st3" d="M155.2,2150.3c1.6,0,3.3-0.1,5.1-0.5l0.1,0.8c-1.9,0.4-3.6,0.5-5.3,0.5h-0.9v-6.9h1L155.2,2150.3
			L155.2,2150.3z M162.4,2143.1v10.7h-1v-10.7H162.4z"/>
		<path class="st3" d="M166,2150.4c1.9,0,3.3-0.1,4.8-0.4l0.1,0.8c-1.6,0.3-3.1,0.4-5.1,0.4h-0.9v-7.1h5v0.8h-4L166,2150.4
			L166,2150.4z M174.7,2148.2h-1.8v5.7h-1v-10.8h1v4.2h1.8V2148.2z"/>
		<path class="st3" d="M175.9,2152.3c0-0.5,0.4-0.9,0.8-0.9s0.8,0.3,0.8,0.9c0,0.5-0.4,0.8-0.8,0.8S175.9,2152.8,175.9,2152.3z"/>
	</g>
	<g class="st2">
		<path class="st3" d="M84.7,2209.6c0-2.8,1.5-4.5,3.8-4.5c2.2,0,3.8,1.7,3.8,4.5s-1.5,4.6-3.8,4.6
			C86.2,2214.2,84.7,2212.4,84.7,2209.6z M91.1,2209.6c0-2.2-1-3.6-2.6-3.6s-2.6,1.4-2.6,3.6c0,2.2,1,3.6,2.6,3.6
			C90,2213.2,91.1,2211.8,91.1,2209.6z"/>
		<path class="st3" d="M93.6,2209.6c0-2.8,1.7-4.6,3.9-4.6c1.1,0,1.9,0.5,2.4,1.1l-0.6,0.7c-0.5-0.5-1-0.8-1.8-0.8
			c-1.7,0-2.8,1.4-2.8,3.6c0,2.2,1.1,3.6,2.7,3.6c0.8,0,1.5-0.4,2-1l0.6,0.7c-0.7,0.8-1.6,1.3-2.7,1.3
			C95.2,2214.2,93.6,2212.5,93.6,2209.6z"/>
		<path class="st3" d="M101.8,2205.2h1.1v8.8h-1.1V2205.2z"/>
	</g>
	<g class="st2">
		<path class="st3" d="M114.5,2209.6v0.8h-9.8v-0.8H114.5z M106.9,2213.8h6.5v0.8H106v-3.1h1L106.9,2213.8L106.9,2213.8z
			 M113.3,2208.2H106v-3.6h1v2.8h6.3V2208.2z"/>
		<path class="st3" d="M121.5,2210.2c-1.6,0-2.8-1.1-2.8-2.7c0-1.5,1.2-2.6,2.8-2.6c1.6,0,2.8,1.1,2.8,2.6
			C124.3,2209.1,123.1,2210.2,121.5,2210.2z M121.5,2209.3c1.1,0,1.9-0.7,1.9-1.8c0-1-0.8-1.8-1.9-1.8c-1,0-1.8,0.7-1.8,1.8
			S120.4,2209.3,121.5,2209.3z M127.6,2213.8v0.8h-7.2v-3.5h1v2.7H127.6z M127.3,2212h-1v-7.9h1V2212z"/>
		<path class="st3" d="M132.4,2209.1c-1,0-2,0.1-2.9,0.1l-0.1-0.8c1.4,0,3.1,0,4.8-0.1c0.2-1.2,0.3-2.1,0.3-2.7h-4.1v-0.8h5v0.4
			c0,0.6,0,1.6-0.2,3c0.4,0,0.8-0.1,1.2-0.1l0.1,0.7c-1,0.2-2,0.3-3,0.3v2.5h-1v-2.5H132.4z M138.6,2213.8v0.8H131v-3.3h1v2.5H138.6
			z M137.3,2210v-5.9h1v8.1h-1v-1.5H135v-0.8L137.3,2210L137.3,2210z"/>
		<path class="st3" d="M146.4,2210.1c-1.2-0.4-2.1-1.3-2.6-2.4c-0.5,1.2-1.5,2.3-2.7,2.7l-0.5-0.8c1.6-0.6,2.7-2,2.7-3.6v-0.4h-2.4
			v-0.8h5.7v0.8h-2.4v0.4c0,1.4,1.1,2.7,2.6,3.3L146.4,2210.1z M149.4,2212.9c0,1.3-1.4,2-3.6,2s-3.6-0.7-3.6-2s1.4-2,3.6-2
			S149.4,2211.6,149.4,2212.9z M148.4,2212.9c0-0.8-1-1.2-2.6-1.2s-2.6,0.5-2.6,1.2s1,1.2,2.6,1.2S148.4,2213.7,148.4,2212.9z
			 M148.4,2206.9v-2.8h1v6.4h-1v-2.8h-2.1v-0.8L148.4,2206.9L148.4,2206.9z"/>
		<path class="st3" d="M156.5,2210.2c-1-0.4-1.8-1.2-2.2-2.2c-0.3,1.1-1.1,1.9-2.2,2.4l-0.5-0.7c1.4-0.6,2.2-1.9,2.2-3.2v-0.1h-1.9
			v-0.8h1.9v-1.3h0.9v1.3h1.9v0.8h-1.9v0.1c0,1.3,0.8,2.5,2.2,3L156.5,2210.2z M153.4,2211.3h7.2v3.6h-1v-2.8h-6.2V2211.3z
			 M160.6,2204.1v6.6h-0.9v-2.9h-1.4v2.9h-0.9v-6.3h0.9v2.7h1.4v-2.9h0.9V2204.1z"/>
		<path class="st3" d="M168.5,2208.7c0,2.3-1.1,3.8-2.7,3.8c-1.6,0-2.7-1.5-2.7-3.8s1.1-3.8,2.7-3.8
			C167.3,2205,168.5,2206.4,168.5,2208.7z M163.9,2208.7c0,1.8,0.7,2.9,1.8,2.9c1,0,1.8-1.1,1.8-2.9c0-1.7-0.7-2.9-1.8-2.9
			C164.7,2205.8,163.9,2207,163.9,2208.7z M171.4,2204.1v10.8h-1v-10.8H171.4z"/>
		<path class="st3" d="M186.1,2209.7v0.8h-4.3v2.2h-1v-2.2h-4.5v-0.8H186.1z M176.9,2208.1c1.9-0.3,3.6-1.3,3.6-2.6l0,0h-3.3v-0.8h8
			v0.8h-3.3l0,0c0,1.3,1.7,2.4,3.6,2.6l-0.4,0.8c-1.8-0.3-3.3-1.1-3.9-2.4c-0.6,1.2-2.2,2.1-3.9,2.4L176.9,2208.1z M178.5,2213.8
			h6.5v0.8h-7.4v-3h1v2.2H178.5z"/>
		<path class="st3" d="M197.1,2211h-4.4v3.9h-1v-3.9h-4.3v-0.8h9.7V2211z M196.2,2209c-1.7-0.3-3.3-1.2-4-2.5
			c-0.7,1.3-2.3,2.2-4,2.5l-0.4-0.8c2-0.3,3.8-1.6,3.8-3.1v-0.6h1v0.6c0,1.5,1.9,2.8,3.9,3.1L196.2,2209z"/>
		<path class="st3" d="M202.4,2211.7c1,0,2.1-0.1,3-0.2l0.1,0.7c-2.4,0.4-4.9,0.4-7,0.4l-0.1-0.8c0.9,0,1.9,0,3,0v-2.1h-2.2v-4.4
			h5.4v0.8h-4.5v2.8h4.5v0.8h-2.3v2H202.4z M207.2,2204.1v10.8h-1v-10.8H207.2z"/>
		<path class="st3" d="M219.2,2212.6v0.8h-9.7v-0.8h3.8v-3.9h1v3.9H219.2z M217,2206h-6.6v-0.8h7.5v1.1c0,1.3,0,2.8-0.4,5l-1-0.1
			c0.4-2.1,0.4-3.6,0.4-4.9v-0.3H217z"/>
		<path class="st3" d="M223.4,2207.3c0-1.5,1.2-2.5,2.8-2.5s2.8,1,2.8,2.5s-1.2,2.5-2.8,2.5C224.6,2209.8,223.4,2208.8,223.4,2207.3
			z M230.8,2211.3c0,1.1,0.8,2.2,2.2,2.7l-0.5,0.7c-1.1-0.4-1.8-1.1-2.2-2c-0.3,0.9-1,1.7-2,2.1c-1-0.4-1.7-1.2-2-2.1
			c-0.4,0.9-1.1,1.6-2.1,2l-0.5-0.7c1.4-0.5,2.2-1.6,2.2-2.7v-0.6h0.9v0.6c0,0.9,0.5,2,1.5,2.6c1-0.6,1.5-1.7,1.5-2.6v-0.6h1
			L230.8,2211.3L230.8,2211.3z M224.4,2207.3c0,1,0.8,1.7,1.8,1.7s1.9-0.7,1.9-1.7s-0.8-1.7-1.9-1.7S224.4,2206.3,224.4,2207.3z
			 M232,2210.3h-1v-6.1h1V2210.3z"/>
		<path class="st3" d="M244,2209.6v0.8h-9.8v-0.8H244z M236.4,2213.8h6.5v0.8h-7.4v-3.1h1v2.3H236.4z M242.8,2208.2h-7.3v-3.6h1v2.8
			h6.3V2208.2z"/>
		<path class="st3" d="M249.1,2207.4c0,1.8,1.3,3.7,2.9,4.4l-0.6,0.8c-1.2-0.6-2.3-1.8-2.8-3.3c-0.5,1.6-1.5,2.9-2.8,3.5l-0.6-0.8
			c1.5-0.7,2.9-2.8,2.9-4.6v-1.4h-2.5v-0.8h6v0.8h-2.5L249.1,2207.4L249.1,2207.4z M254.1,2204.1v10.7h-1v-10.7H254.1z"/>
		<path class="st3" d="M264,2211.3c0.6,0,1.1-0.1,1.6-0.2l0.1,0.7c-2.3,0.4-4.8,0.4-6.7,0.4l-0.1-0.8c0.4,0,0.9,0,1.4,0v-5.3h-1.2
			v-0.8h6v0.8H264V2211.3z M261.2,2211.4c0.6,0,1.2,0,1.8-0.1v-5.2h-1.8V2211.4z M269,2209.3h-1.8v5.6h-1v-10.7h1v4.3h1.8V2209.3z"
			/>
		<path class="st3" d="M273,2209.9c-1.6,0-2.8-1-2.8-2.6c0-1.5,1.2-2.5,2.8-2.5c1.6,0,2.8,1,2.8,2.5
			C275.8,2208.8,274.7,2209.9,273,2209.9z M273,2209c1.1,0,1.8-0.7,1.8-1.7s-0.8-1.7-1.8-1.7c-1.1,0-1.8,0.7-1.8,1.7
			S272,2209,273,2209z M271.4,2211h7v3.9h-1v-3.1h-6V2211z M280,2207.7h-1.6v2.7h-1v-6.3h1v2.8h1.6V2207.7z"/>
		<path class="st3" d="M284.7,2205.9h2.7v0.8H281v-0.8h2.7v-1.6h1V2205.9z M286.8,2210c0,1.5-1.1,2.5-2.6,2.5s-2.6-1-2.6-2.5
			s1.1-2.5,2.6-2.5C285.8,2207.5,286.8,2208.6,286.8,2210z M285.9,2210c0-1-0.7-1.7-1.7-1.7s-1.7,0.7-1.7,1.7s0.7,1.7,1.7,1.7
			C285.2,2211.7,285.9,2211,285.9,2210z M291.1,2209.4h-1.8v5.5h-1v-10.7h1v4.4h1.8V2209.4z"/>
		<path class="st3" d="M297.8,2205.3c0,3.1-1.4,5.8-5,7.6l-0.5-0.8c2.9-1.4,4.3-3.4,4.5-6h-4v-0.8H297.8z M300.9,2204.1v10.8h-1
			v-10.8H300.9z"/>
		<path class="st3" d="M313,2210.3c-1,0.2-2.1,0.3-3.1,0.4v3.9h-1v-3.8c-1.1,0-2.1,0.1-3,0.1l-0.1-0.8c2,0,4.7,0,7.1-0.4L313,2210.3
			z M306.6,2206.9c0-1.3,1.1-2.2,2.7-2.2s2.7,0.9,2.7,2.2s-1.1,2.2-2.7,2.2C307.8,2209.1,306.6,2208.2,306.6,2206.9z M307.6,2206.9
			c0,0.8,0.7,1.4,1.8,1.4c1,0,1.8-0.6,1.8-1.4c0-0.8-0.7-1.4-1.8-1.4C308.3,2205.4,307.6,2206,307.6,2206.9z M314.7,2204.1v10.8h-1
			v-10.8H314.7z"/>
		<path class="st3" d="M320,2206h2.2v0.8h-5.3v-0.8h2.2v-1.5h1v1.5H320z M321.8,2209.9c0,1.5-1,2.5-2.3,2.5s-2.3-1-2.3-2.5
			c0-1.4,1-2.4,2.3-2.4C320.9,2207.5,321.8,2208.5,321.8,2209.9z M321,2209.9c0-0.9-0.6-1.6-1.4-1.6s-1.4,0.7-1.4,1.6
			c0,1,0.6,1.6,1.4,1.6C320.4,2211.6,321,2210.9,321,2209.9z M326,2204.1v10.8h-1v-5.4h-1.4v4.9h-0.9v-10h0.9v4.3h1.4v-4.5h1V2204.1
			z"/>
	</g>
	<g class="st2">
		<path class="st3" d="M90.5,2227.1c-1.2-0.4-2.1-1.3-2.6-2.4c-0.5,1.2-1.5,2.3-2.7,2.7l-0.5-0.8c1.6-0.6,2.7-2,2.7-3.6v-0.4H85
			v-0.8h5.7v0.8h-2.4v0.4c0,1.4,1.1,2.7,2.6,3.3L90.5,2227.1z M93.5,2229.9c0,1.3-1.4,2-3.6,2s-3.6-0.7-3.6-2s1.4-2,3.6-2
			S93.5,2228.6,93.5,2229.9z M92.6,2229.9c0-0.8-1-1.2-2.6-1.2s-2.6,0.5-2.6,1.2s1,1.2,2.6,1.2S92.6,2230.7,92.6,2229.9z
			 M92.5,2223.9v-2.8h1v6.4h-1v-2.8h-2.1v-0.8L92.5,2223.9L92.5,2223.9z"/>
		<path class="st3" d="M101.3,2222.3c0,3.1-1.4,5.8-5,7.6l-0.5-0.8c2.9-1.4,4.3-3.4,4.5-6h-4v-0.8H101.3z M104.5,2221.1v10.8h-1
			v-10.8H104.5z"/>
		<path class="st3" d="M110.9,2228.2c1,0,2.2-0.1,3.5-0.3l0.1,0.9c-1.5,0.3-2.7,0.3-3.8,0.3H110v-6.7h1L110.9,2228.2L110.9,2228.2z
			 M118.5,2221.1v10.7h-0.9v-5.6h-1.5v5h-0.9v-10h0.9v4.1h1.5v-4.4h0.9V2221.1z"/>
		<path class="st3" d="M130.2,2228.3h-4.4v3.6h-1v-3.6h-4.4v-0.8h9.8V2228.3z M129,2226.2h-7.3v-4.7h1v1.5h5.3v-1.5h1V2226.2z
			 M128,2223.8h-5.3v1.6h5.3V2223.8z"/>
		<path class="st3" d="M136.9,2221.8c0,2.7-1.9,4.7-5.1,5.5l-0.4-0.8c2.6-0.7,4.2-2.1,4.4-3.9H132v-0.8H136.9z M133.1,2227.7h6.8v4
			h-6.8V2227.7z M134,2230.9h4.8v-2.4H134V2230.9z M141.4,2224.6h-1.6v2.7h-1v-6.1h1v2.6h1.6V2224.6z"/>
		<path class="st3" d="M146.1,2224c0,1.9,1.2,3.8,2.7,4.6l-0.6,0.8c-1.1-0.6-2.1-1.9-2.6-3.3c-0.5,1.6-1.5,2.9-2.7,3.6l-0.6-0.8
			c1.5-0.8,2.8-2.9,2.8-4.8v-1.9h1L146.1,2224L146.1,2224z M152.6,2226.3h-1.8v5.6h-1v-10.7h1v4.4h1.8V2226.3z"/>
		<path class="st3" d="M163.3,2226.1v0.7h-9.8v-0.7H163.3z M155.7,2231h6.7v0.7h-7.7v-2.4h6.4v-0.9h-6.4v-0.7h7.4v2.3h-6.4V2231z
			 M161.1,2222.1h-6.3v-0.7h7.3v2.2h-6.3v0.9h6.5v0.7h-7.4v-2.3h6.3v-0.8H161.1z"/>
		<path class="st3" d="M173.4,2227.5c-1.2-0.4-2.2-1.3-2.7-2.4c-0.5,1.2-1.5,2.2-2.7,2.7l-0.5-0.8c1.6-0.6,2.7-2,2.7-3.5v-0.6h-2.5
			v-0.8h5.9v0.8h-2.4v0.6c0,1.5,1.1,2.8,2.7,3.3L173.4,2227.5z M176.4,2230.8v0.8h-7.2v-3.4h1v2.6L176.4,2230.8L176.4,2230.8z
			 M176.1,2229h-1v-7.9h1V2229z"/>
		<path class="st3" d="M183.7,2223.2h-5.5v-0.8h2.3v-1.2h1v1.2h2.2V2223.2z M181,2227.4c-1.4,0-2.3-0.7-2.3-1.8s0.9-1.8,2.3-1.8
			c1.4,0,2.3,0.7,2.3,1.8S182.4,2227.4,181,2227.4z M181,2226.7c0.8,0,1.4-0.4,1.4-1.1c0-0.7-0.6-1.1-1.4-1.1
			c-0.9,0-1.4,0.4-1.4,1.1S180.2,2226.7,181,2226.7z M187.5,2230c0,1.2-1.4,1.9-3.6,1.9s-3.6-0.7-3.6-1.9s1.4-1.9,3.6-1.9
			S187.5,2228.8,187.5,2230z M186.5,2230c0-0.7-1-1.1-2.6-1.1s-2.6,0.4-2.6,1.1c0,0.7,1,1.1,2.6,1.1S186.5,2230.7,186.5,2230z
			 M185.1,2227.5h-0.9v-6.2h0.9v2.7h1.4v-2.9h0.9v6.8h-0.9v-3.1h-1.4V2227.5z"/>
		<path class="st3" d="M193,2222.9h2.7v0.8h-6.3v-0.8h2.7v-1.6h1L193,2222.9L193,2222.9z M195.2,2227c0,1.5-1.1,2.5-2.6,2.5
			s-2.6-1-2.6-2.5s1.1-2.5,2.6-2.5C194.1,2224.5,195.2,2225.6,195.2,2227z M194.2,2227c0-1-0.7-1.7-1.7-1.7s-1.7,0.7-1.7,1.7
			s0.7,1.7,1.7,1.7S194.2,2228,194.2,2227z M199.4,2226.4h-1.8v5.5h-1v-10.7h1v4.4h1.8V2226.4z"/>
		<path class="st3" d="M210.2,2229.6v0.8h-9.7v-0.8h3.8v-3.9h1v3.9H210.2z M208,2223h-6.6v-0.8h7.5v1.1c0,1.3,0,2.8-0.4,5l-1-0.1
			c0.4-2.1,0.4-3.6,0.4-4.9v-0.3H208z"/>
		<path class="st3" d="M214.4,2224.3c0-1.5,1.2-2.5,2.8-2.5s2.8,1,2.8,2.5s-1.2,2.5-2.8,2.5C215.6,2226.8,214.4,2225.8,214.4,2224.3
			z M221.8,2228.3c0,1.1,0.8,2.2,2.2,2.7l-0.5,0.7c-1.1-0.4-1.8-1.1-2.2-2c-0.3,0.9-1,1.7-2,2.1c-1-0.4-1.7-1.2-2-2.1
			c-0.4,0.9-1.1,1.6-2.1,2l-0.5-0.7c1.4-0.5,2.2-1.6,2.2-2.7v-0.6h0.9v0.6c0,0.9,0.5,2,1.5,2.6c1-0.6,1.5-1.7,1.5-2.6v-0.6h1
			L221.8,2228.3L221.8,2228.3z M215.4,2224.3c0,1,0.8,1.7,1.8,1.7c1.1,0,1.9-0.7,1.9-1.7s-0.8-1.7-1.9-1.7
			S215.4,2223.3,215.4,2224.3z M223,2227.3h-1v-6.1h1V2227.3z"/>
		<path class="st3" d="M234.9,2229.6v0.8h-9.8v-0.8H234.9z M233.9,2224.8c0,1.8-1.7,3-3.9,3s-3.9-1.2-3.9-3s1.7-3,3.9-3
			S233.9,2223,233.9,2224.8z M227.1,2224.8c0,1.3,1.3,2.2,3,2.2s3-0.9,3-2.2s-1.3-2.2-3-2.2C228.3,2222.6,227.1,2223.5,227.1,2224.8
			z"/>
		<path class="st3" d="M245.1,2221.1v10.8h-1v-4.4h-2.6v1.7h-4.9v-7h4.9v1.5h2.6v-2.6H245.1z M240.6,2223h-3v5.4h3V2223z
			 M244.1,2226.7v-2.2h-2.6v2.2H244.1z"/>
		<path class="st3" d="M247.3,2232.6c0.8-0.3,1.2-0.9,1.2-1.6h-0.1c-0.4,0-0.8-0.3-0.8-0.8s0.4-0.8,0.8-0.8c0.6,0,0.9,0.5,0.9,1.3
			c0,1.2-0.7,2.1-1.8,2.5L247.3,2232.6z"/>
		<path class="st3" d="M256.3,2227.2c-1.6,0-2.8-1.1-2.8-2.7c0-1.5,1.2-2.6,2.8-2.6c1.6,0,2.8,1.1,2.8,2.6
			C259.1,2226.1,257.9,2227.2,256.3,2227.2z M256.3,2226.3c1.1,0,1.9-0.7,1.9-1.8c0-1-0.8-1.8-1.9-1.8c-1,0-1.8,0.7-1.8,1.8
			S255.3,2226.3,256.3,2226.3z M262.4,2230.8v0.8h-7.2v-3.5h1v2.7H262.4z M262.1,2229h-1v-7.9h1V2229z"/>
		<path class="st3" d="M267.3,2226.1c-1,0-2,0.1-2.9,0.1l-0.1-0.8c1.4,0,3.1,0,4.8-0.1c0.2-1.2,0.3-2.1,0.3-2.7h-4.1v-0.8h5v0.4
			c0,0.6,0,1.6-0.2,3c0.4,0,0.8-0.1,1.2-0.1l0.1,0.7c-1,0.2-2,0.3-3,0.3v2.5h-1L267.3,2226.1L267.3,2226.1z M273.4,2230.8v0.8h-7.6
			v-3.3h1v2.5H273.4z M272.2,2227v-5.9h1v8.1h-1v-1.5h-2.3v-0.8L272.2,2227L272.2,2227z"/>
		<path class="st3" d="M283.9,2225.7c0,2.3-1.1,3.8-2.7,3.8s-2.7-1.5-2.7-3.8s1.1-3.8,2.7-3.8C282.8,2222,283.9,2223.4,283.9,2225.7
			z M279.4,2225.7c0,1.8,0.7,2.9,1.8,2.9c1,0,1.8-1.1,1.8-2.9c0-1.7-0.7-2.9-1.8-2.9S279.4,2224,279.4,2225.7z M286.9,2221.1v10.8
			h-1v-10.8H286.9z"/>
		<path class="st3" d="M298.8,2228.1h-2.5v3.9h-1v-3.9h-2.8v3.9h-1v-3.9H289v-0.8h9.8V2228.1z M297.9,2226.1c-1.7-0.3-3.3-1.2-4-2.6
			c-0.7,1.3-2.3,2.3-4,2.6l-0.4-0.8c2-0.3,3.9-1.6,3.9-3.1v-0.6h1v0.6c0,1.5,1.9,2.9,3.8,3.1L297.9,2226.1z"/>
		<path class="st3" d="M305.6,2222.3c0,3.1-1.4,5.8-4.9,7.6l-0.5-0.8c2.7-1.4,4.2-3.4,4.4-6h-3.9v-0.8H305.6z M310.1,2226.3h-1.7
			v5.6h-1v-10.8h1v4.4h1.7V2226.3z"/>
	</g>
	<g class="st2">
		<path class="st3" d="M90.1,2243.3h-5v-4.7h1v1.5h3v-1.5h1V2243.3z M89.1,2240.9h-3v1.6h3V2240.9z M87.1,2248h6.2v0.8h-7.2v-2.7H92
			v-1.1h-5.9v-0.8H93v2.6h-5.8L87.1,2248L87.1,2248z M94.6,2240.4v0.8H93v2.4h-1v-5.6h1v2.3h1.6V2240.4z"/>
		<path class="st3" d="M100.5,2243.9c-1-0.4-1.7-1.2-2.1-2.1c-0.4,1-1.2,1.9-2.2,2.4l-0.5-0.8c1.4-0.6,2.2-2,2.2-3.2v-1.5h0.9v1.5
			c0,1.2,0.8,2.4,2.2,2.9L100.5,2243.9z M104.8,2246.9c0,1.2-1.4,1.9-3.6,1.9s-3.6-0.7-3.6-1.9s1.4-1.9,3.6-1.9
			S104.8,2245.7,104.8,2246.9z M103.8,2246.9c0-0.7-1-1.2-2.6-1.2s-2.6,0.4-2.6,1.2c0,0.7,1,1.2,2.6,1.2
			C102.8,2248.1,103.8,2247.7,103.8,2246.9z M102.4,2244.4h-0.9v-6.1h0.9v2.7h1.4v-2.9h0.9v6.6h-0.9v-3h-1.4V2244.4z"/>
		<path class="st3" d="M110.3,2239.9h2.7v0.8h-6.3v-0.8h2.7v-1.6h1L110.3,2239.9L110.3,2239.9z M112.5,2244c0,1.5-1.1,2.5-2.6,2.5
			s-2.6-1-2.6-2.5s1.1-2.5,2.6-2.5S112.5,2242.6,112.5,2244z M111.6,2244c0-1-0.7-1.7-1.7-1.7s-1.7,0.7-1.7,1.7s0.7,1.7,1.7,1.7
			S111.6,2245,111.6,2244z M116.8,2243.4H115v5.5h-1v-10.7h1v4.4h1.8V2243.4z"/>
		<path class="st3" d="M122.9,2242.8c-0.5,0.6-1.3,0.9-2.2,0.9c-1.6,0-2.7-1.1-2.7-2.5s1.2-2.5,2.7-2.5c0.9,0,1.7,0.3,2.2,0.9h2.8
			v-1.5h1v6.1h-1v-1.4H122.9z M125.4,2245.3c0,1.1,0.8,2.3,2.2,2.7l-0.5,0.7c-1-0.4-1.8-1.1-2.2-2c-0.3,0.9-1,1.7-2,2.1
			c-1-0.4-1.7-1.2-2-2.1c-0.4,0.9-1.1,1.6-2.1,2l-0.5-0.7c1.4-0.5,2.2-1.7,2.2-2.7v-0.7h0.9v0.7c0,1,0.5,2,1.5,2.6
			c1-0.6,1.5-1.7,1.5-2.6v-0.7h1V2245.3z M118.9,2241.2c0,1,0.8,1.7,1.8,1.7c1.1,0,1.8-0.7,1.8-1.7s-0.8-1.7-1.8-1.7
			C119.6,2239.5,118.9,2240.3,118.9,2241.2z M123.3,2240.4c0.1,0.3,0.1,0.5,0.1,0.8s0,0.6-0.1,0.8h2.3v-1.6H123.3z"/>
		<path class="st3" d="M138.5,2242.8v0.8h-9.7v-0.8H138.5z M129.9,2240.2c0-1.2,1.4-1.9,3.8-1.9c2.4,0,3.8,0.7,3.8,1.9
			s-1.4,1.9-3.8,1.9C131.3,2242,129.9,2241.4,129.9,2240.2z M131,2248h6.6v0.8H130v-2.6h6.3v-1H130v-0.7h7.3v2.4H131V2248z
			 M130.9,2240.2c0,0.7,1,1.1,2.8,1.1s2.8-0.4,2.8-1.1s-1-1.1-2.8-1.1C131.9,2239.1,130.9,2239.5,130.9,2240.2z"/>
		<path class="st3" d="M147.7,2240.9c-0.7,1.7-2.3,3-4.6,3.7l-0.4-0.8c2.6-0.8,4.2-2.2,4.3-4.1h-3.8v-0.8h4.9c0,0.4,0,0.8-0.1,1.2
			h2.4v-2h1v6.4h-1v-1.4h-2.8v-0.8h2.8v-1.4L147.7,2240.9L147.7,2240.9z M151.4,2246.8c0,1.3-1.4,2.1-3.6,2.1
			c-2.2,0-3.6-0.8-3.6-2.1s1.4-2.1,3.6-2.1S151.4,2245.5,151.4,2246.8z M150.5,2246.8c0-0.8-1-1.3-2.6-1.3s-2.6,0.5-2.6,1.3
			s1,1.3,2.6,1.3S150.5,2247.6,150.5,2246.8z"/>
		<path class="st3" d="M163.3,2245.1h-4.4v3.8h-1v-3.8h-4.4v-0.8h9.7L163.3,2245.1L163.3,2245.1z M154.7,2240.9
			c0-1.4,1.5-2.4,3.8-2.4c2.2,0,3.8,0.9,3.8,2.4s-1.5,2.4-3.8,2.4C156.2,2243.3,154.7,2242.4,154.7,2240.9z M155.7,2240.9
			c0,1,1.1,1.6,2.7,1.6c1.6,0,2.8-0.6,2.8-1.6c0-0.9-1.1-1.6-2.8-1.6C156.8,2239.4,155.7,2240,155.7,2240.9z"/>
		<path class="st3" d="M173.1,2244.1c-1.2-0.4-2.1-1.3-2.6-2.4c-0.5,1.2-1.5,2.3-2.7,2.7l-0.5-0.8c1.6-0.6,2.7-2,2.7-3.6v-0.4h-2.4
			v-0.8h5.7v0.8H171v0.4c0,1.4,1.1,2.7,2.6,3.3L173.1,2244.1z M176.2,2246.9c0,1.3-1.4,2-3.6,2s-3.6-0.7-3.6-2s1.4-2,3.6-2
			S176.2,2245.6,176.2,2246.9z M175.2,2246.9c0-0.8-1-1.2-2.6-1.2s-2.6,0.5-2.6,1.2s1,1.2,2.6,1.2S175.2,2247.7,175.2,2246.9z
			 M175.2,2240.9v-2.8h1v6.4h-1v-2.8H173v-0.8L175.2,2240.9L175.2,2240.9z"/>
		<path class="st3" d="M181.5,2240h2.2v0.8h-5.3v-0.8h2.2v-1.5h1L181.5,2240L181.5,2240z M183.3,2243.9c0,1.5-1,2.5-2.3,2.5
			s-2.3-1-2.3-2.5c0-1.4,1-2.4,2.3-2.4S183.3,2242.5,183.3,2243.9z M182.4,2243.9c0-0.9-0.6-1.6-1.4-1.6c-0.8,0-1.4,0.7-1.4,1.6
			c0,1,0.6,1.6,1.4,1.6C181.8,2245.6,182.4,2244.9,182.4,2243.9z M187.4,2238.1v10.8h-0.9v-5.4h-1.4v4.9h-0.9v-10h0.9v4.3h1.4v-4.5
			h0.9V2238.1z"/>
		<path class="st3" d="M195.5,2244.5c-1.2-0.4-2.2-1.3-2.7-2.4c-0.5,1.2-1.5,2.2-2.7,2.7l-0.5-0.8c1.6-0.6,2.7-2,2.7-3.5v-0.6h-2.5
			v-0.8h5.9v0.8h-2.4v0.6c0,1.5,1.1,2.8,2.7,3.3L195.5,2244.5z M198.5,2247.8v0.8h-7.2v-3.4h1v2.6L198.5,2247.8L198.5,2247.8z
			 M198.2,2246h-1v-7.9h1V2246z"/>
		<path class="st3" d="M208.9,2243.6c-1.2-0.4-2.1-1.2-2.6-2.3c-0.5,1.2-1.4,2.1-2.7,2.5l-0.5-0.8c1.6-0.5,2.7-1.9,2.7-3.3v-0.3
			h-2.4v-0.8h5.8v0.8h-2.4v0.3c0,1.3,1.1,2.5,2.6,3L208.9,2243.6z M212.4,2248v0.8H205v-2.7h5.9v-1.1h-6v-0.8h6.9v2.6H206v1.2H212.4
			z M211,2240.5v-2.4h1v5.6h-1v-2.4h-2.1v-0.8L211,2240.5L211,2240.5z"/>
		<path class="st3" d="M217.7,2241.6c0,1.7,1.1,3.5,2.6,4.2l-0.6,0.8c-1.2-0.6-2.1-1.8-2.5-3.1c-0.5,1.5-1.4,2.7-2.7,3.3l-0.6-0.7
			c1.6-0.8,2.7-2.6,2.7-4.5v-0.8h-2.4v-0.8h2.4v-1.7h1v1.7h2.4v0.8h-2.4v0.8H217.7z M224.2,2243.4h-1.8v5.5h-1v-10.8h1v4.4h1.8
			V2243.4z"/>
		<path class="st3" d="M231.2,2238.4h0.9v10h-0.9v-5.2h-1.4c-0.1,2.1-1,3.4-2.3,3.4c-1.4,0-2.3-1.4-2.3-3.8c0-2.3,0.9-3.7,2.3-3.7
			c1.3,0,2.2,1.3,2.3,3.3h1.4V2238.4z M229,2242.8c0-1.7-0.6-2.8-1.4-2.8c-0.9,0-1.4,1.1-1.4,2.8c0,1.8,0.5,2.9,1.4,2.9
			C228.5,2245.6,229,2244.5,229,2242.8z M234.3,2238.1v10.8h-0.9v-10.8H234.3z"/>
		<path class="st3" d="M240.2,2245.2c0.5,0,1.2-0.1,1.8-0.2l0.1,0.8c-1,0.2-1.8,0.2-2.4,0.2h-0.5v-6.8h2.7v0.8h-1.7L240.2,2245.2
			L240.2,2245.2z M243.5,2245.3c0.8,0,1.5-0.1,2.2-0.3l0.1,0.8c-0.9,0.2-1.7,0.3-2.8,0.3h-0.5v-6.8h2.9v0.8h-1.9V2245.3z
			 M248.9,2243.2h-1.5v5.7h-1v-10.8h1v4.2h1.5V2243.2z"/>
		<path class="st3" d="M251.4,2245.5c2,0,3.3-0.1,5-0.4l0.1,0.8c-1.7,0.3-3.1,0.4-5.2,0.4h-0.9v-4.1h3.9v-2.3h-3.9v-0.8h4.9v3.9
			h-3.9L251.4,2245.5L251.4,2245.5z M260,2243.2h-1.8v5.7h-1v-10.8h1v4.3h1.8V2243.2z"/>
		<path class="st3" d="M269.6,2244.3c-1.2-0.5-2.2-1.4-2.7-2.7c-0.5,1.3-1.4,2.4-2.7,2.9l-0.5-0.8c1.6-0.6,2.7-2.2,2.7-3.9v-1.1h1
			v1.1c0,1.6,1.1,3.1,2.7,3.7L269.6,2244.3z M272.8,2247.8v0.8h-7.2v-3.4h1v2.6L272.8,2247.8L272.8,2247.8z M272.5,2246h-1v-7.9h1
			V2246z"/>
		<path class="st3" d="M284.5,2246.6v0.8h-9.7v-0.8h3.8v-3.9h1v3.9H284.5z M282.3,2240h-6.6v-0.8h7.5v1.1c0,1.3,0,2.8-0.4,5l-1-0.1
			c0.4-2.1,0.4-3.6,0.4-4.9v-0.3H282.3z"/>
		<path class="st3" d="M292.1,2239.9h-6.3v-0.8h2.7v-1.1h1v1.1h2.7v0.8H292.1z M289,2243.9c-1.5,0-2.6-0.7-2.6-1.8s1-1.8,2.6-1.8
			s2.6,0.7,2.6,1.8S290.5,2243.9,289,2243.9z M288.3,2248h6.2v0.8h-7.2v-2.5h5.8v-0.9h-5.9v-0.7h6.8v2.4h-5.8v0.9H288.3z
			 M289,2243.1c1,0,1.6-0.4,1.6-1s-0.6-1-1.6-1s-1.6,0.4-1.6,1C287.3,2242.7,288,2243.1,289,2243.1z M295.7,2240.7v0.8h-1.6v2.5h-1
			v-5.9h1v2.6L295.7,2240.7L295.7,2240.7z"/>
		<path class="st3" d="M309.2,2245h-4.4v3.9h-1v-3.9h-4.3v-0.8h9.7L309.2,2245z M308.3,2243c-1.7-0.3-3.3-1.2-4-2.5
			c-0.7,1.3-2.3,2.2-4,2.5l-0.4-0.8c2-0.3,3.9-1.6,3.9-3.1v-0.6h1v0.6c0,1.5,1.9,2.8,3.9,3.1L308.3,2243z"/>
		<path class="st3" d="M313.5,2241.3c0-1.5,1.2-2.5,2.8-2.5c1.6,0,2.8,1,2.8,2.5s-1.2,2.5-2.8,2.5
			C314.6,2243.8,313.5,2242.8,313.5,2241.3z M320.8,2245.3c0,1.1,0.8,2.2,2.2,2.7l-0.5,0.7c-1.1-0.4-1.8-1.1-2.2-2
			c-0.3,0.9-1,1.7-2,2.1c-1-0.4-1.7-1.2-2-2.1c-0.4,0.9-1.1,1.6-2.1,2l-0.5-0.7c1.4-0.5,2.2-1.6,2.2-2.7v-0.6h0.9v0.6
			c0,0.9,0.5,2,1.5,2.6c1-0.6,1.5-1.7,1.5-2.6v-0.6h1V2245.3z M314.4,2241.3c0,1,0.8,1.7,1.8,1.7s1.9-0.7,1.9-1.7s-0.8-1.7-1.9-1.7
			S314.4,2240.3,314.4,2241.3z M322,2244.3h-1v-6.1h1V2244.3z"/>
		<path class="st3" d="M334,2243.6v0.8h-9.8v-0.8H334z M326.5,2247.8h6.5v0.8h-7.4v-3.1h1v2.3H326.5z M332.9,2242.2h-7.3v-3.6h1v2.8
			h6.3V2242.2z"/>
	</g>
	<g class="st2">
		<path class="st3" d="M87.8,2258.4c0,1.7,0.9,3.5,2.3,4.3l-0.6,0.7c-1.1-0.6-1.8-1.7-2.2-3c-0.4,1.4-1.1,2.6-2.2,3.2l-0.6-0.7
			c1.5-0.9,2.3-2.7,2.3-4.5v-0.5h-2v-0.8h2v-1.6h0.9v1.6h2v0.8h-2L87.8,2258.4L87.8,2258.4z M93.8,2255.1v10.8h-0.9v-5.6h-1.4v5.1
			h-0.9v-10h0.9v4.1h1.4v-4.3h0.9V2255.1z"/>
		<path class="st3" d="M102,2259.8c-1.7,0.3-3.1,0.4-4.9,0.4h-0.8v-4.6h1v3.8c1.6,0,3.1-0.1,4.6-0.4L102,2259.8z M104.9,2265v0.8
			h-7.3v-2.7h5.9v-1h-5.9v-0.8h6.9v2.6h-5.9v1.2h6.3V2265z M103.5,2257.7h-3v-0.8h3v-1.8h1v5.6h-1V2257.7z"/>
		<path class="st3" d="M116.4,2259.8v0.8h-9.7v-0.8H116.4z M107.8,2257.2c0-1.2,1.4-1.9,3.8-1.9s3.8,0.7,3.8,1.9s-1.4,1.9-3.8,1.9
			C109.2,2259,107.8,2258.4,107.8,2257.2z M108.9,2265h6.6v0.8h-7.6v-2.6h6.3v-1h-6.3v-0.7h7.3v2.4h-6.3V2265z M108.8,2257.2
			c0,0.7,1,1.1,2.8,1.1s2.8-0.4,2.8-1.1s-1-1.1-2.8-1.1C109.8,2256.1,108.8,2256.5,108.8,2257.2z"/>
		<path class="st3" d="M130.2,2260.6v0.8h-4.3v2.2h-1v-2.2h-4.5v-0.8H130.2z M121.5,2257.6c0-1.3,1.5-2.2,3.8-2.2s3.8,0.8,3.8,2.2
			c0,1.3-1.5,2.2-3.8,2.2S121.5,2258.9,121.5,2257.6z M122.7,2264.8h6.5v0.8h-7.4v-3.1h1L122.7,2264.8L122.7,2264.8z M122.6,2257.6
			c0,0.8,1.1,1.4,2.7,1.4c1.7,0,2.7-0.5,2.7-1.4s-1.1-1.4-2.7-1.4C123.7,2256.2,122.6,2256.7,122.6,2257.6z"/>
		<path class="st3" d="M136.6,2260c-0.5,0.6-1.3,0.9-2.2,0.9c-1.6,0-2.8-1.1-2.8-2.6s1.2-2.5,2.8-2.5c0.9,0,1.7,0.3,2.2,0.9h2.8
			v-1.5h1v6.4h-1v-1.5L136.6,2260L136.6,2260z M134.4,2260c1.1,0,1.8-0.7,1.8-1.7s-0.8-1.7-1.8-1.7s-1.8,0.7-1.8,1.7
			C132.6,2259.3,133.4,2260,134.4,2260z M140.4,2263.8c0,1.3-1.4,2.1-3.6,2.1c-2.2,0-3.6-0.8-3.6-2.1s1.4-2.1,3.6-2.1
			C139,2261.8,140.4,2262.5,140.4,2263.8z M139.4,2263.8c0-0.8-1-1.3-2.6-1.3s-2.6,0.5-2.6,1.3s1,1.3,2.6,1.3
			S139.4,2264.6,139.4,2263.8z M137,2257.5c0.1,0.3,0.1,0.5,0.1,0.8s0,0.6-0.1,0.8h2.3v-1.7L137,2257.5L137,2257.5z"/>
		<path class="st3" d="M148.9,2257h-6.3v-0.8h2.7v-1.2h1v1.2h2.7L148.9,2257L148.9,2257z M145.7,2261.3c-1.5,0-2.6-0.7-2.6-1.9
			c0-1.1,1-1.9,2.6-1.9s2.6,0.7,2.6,1.9S147.3,2261.3,145.7,2261.3z M145.7,2260.6c1,0,1.6-0.4,1.6-1.1c0-0.7-0.7-1.1-1.6-1.1
			s-1.6,0.4-1.6,1.1C144.1,2260.1,144.7,2260.6,145.7,2260.6z M149.9,2261.9h1v3.9h-6.8v-3.9h1v1.1h4.8V2261.9z M149.9,2263.8h-4.8
			v1.2h4.8V2263.8z M152.5,2258.7h-1.6v2.7h-1v-6.2h1v2.7h1.6V2258.7z"/>
		<path class="st3" d="M155.2,2262.3c1.6,0,3.3-0.1,5.1-0.5l0.1,0.8c-1.9,0.4-3.6,0.5-5.3,0.5h-0.9v-6.9h1L155.2,2262.3
			L155.2,2262.3z M162.4,2255.1v10.7h-1v-10.7H162.4z"/>
		<path class="st3" d="M166,2262.4c1.9,0,3.3-0.1,4.8-0.4l0.1,0.8c-1.6,0.3-3.1,0.4-5.1,0.4h-0.9v-7.1h5v0.8h-4L166,2262.4
			L166,2262.4z M174.7,2260.2h-1.8v5.7h-1v-10.8h1v4.2h1.8V2260.2z"/>
		<path class="st3" d="M175.9,2264.3c0-0.5,0.4-0.9,0.8-0.9s0.8,0.3,0.8,0.9c0,0.5-0.4,0.8-0.8,0.8S175.9,2264.8,175.9,2264.3z"/>
	</g>
	<g>
		<path id="패스_2878" class="st4" d="M36.7,1831h30v-30h-30C36.7,1801,36.7,1831,36.7,1831z"/>
		<g class="st2">
			<path class="st5" d="M49.1,1812.7v-2.6h4.5v11.9h-2.9v-9.3L49.1,1812.7L49.1,1812.7z"/>
		</g>
	</g>
	<g>
		<path id="패스_5572" class="st4" d="M36.5,1936h30v-30h-30V1936z"/>
		<g class="st2">
			<path class="st5" d="M47.9,1924.3c1-0.9,1.9-1.6,2.5-2.1c0.6-0.6,1.1-1.1,1.5-1.8c0.4-0.6,0.6-1.2,0.6-1.8c0-0.4-0.1-0.8-0.3-1
				c-0.2-0.3-0.5-0.3-0.9-0.3c-0.4,0-0.8,0.2-0.9,0.4c-0.3,0.3-0.3,0.8-0.3,1.3h-2.7c0-0.9,0.3-1.7,0.6-2.3c0.3-0.6,0.9-1.1,1.5-1.4
				c0.6-0.3,1.3-0.4,2.1-0.4c1.3,0,2.2,0.3,2.9,1c0.7,0.7,0.9,1.5,0.9,2.6c0,1.2-0.4,2.2-1.2,3.3c-0.8,1-1.8,2-3,2.9h4.4v2.2h-8.1
				v-2.1C47.8,1924.5,48,1924.3,47.9,1924.3z"/>
		</g>
	</g>
	<g>
		<path id="패스_5574" class="st4" d="M36.5,2040h30v-30h-30V2040z"/>
		<g class="st2">
			<path class="st5" d="M48.8,2019.8c0.7-0.6,1.7-0.9,2.9-0.9c0.8,0,1.5,0.2,2.1,0.4c0.6,0.3,1,0.7,1.3,1.1c0.3,0.5,0.4,1,0.4,1.6
				c0,0.7-0.2,1.3-0.5,1.7c-0.3,0.4-0.8,0.8-1.3,0.9v0.1c0.6,0.2,1.1,0.5,1.5,1s0.5,1.1,0.5,1.8c0,0.7-0.2,1.3-0.4,1.8
				c-0.3,0.5-0.8,0.9-1.4,1.2c-0.6,0.3-1.3,0.4-2.1,0.4c-1.3,0-2.3-0.3-3.1-0.9s-1.2-1.6-1.2-2.9h2.8c0,0.5,0.2,0.9,0.4,1.1
				c0.3,0.3,0.6,0.4,1.1,0.4c0.4,0,0.8-0.1,0.9-0.3c0.3-0.3,0.3-0.6,0.3-0.9c0-0.5-0.2-0.9-0.5-1.1c-0.3-0.3-0.9-0.3-1.6-0.3h-0.5
				v-2.2h0.5c0.5,0,1-0.1,1.4-0.3c0.3-0.2,0.5-0.5,0.5-1c0-0.4-0.1-0.7-0.3-0.9c-0.3-0.3-0.5-0.3-0.9-0.3c-0.4,0-0.7,0.1-0.9,0.3
				c-0.2,0.3-0.3,0.6-0.3,0.9h-2.7C47.6,2021.3,48.1,2020.4,48.8,2019.8z"/>
		</g>
	</g>
	<g>
		<path id="패스_5576" class="st4" d="M36.5,2144h30v-30h-30V2144z"/>
		<g class="st2">
			<path class="st5" d="M46.7,2132.9v-2.2l5.1-7.4h3.1v7.2h1.4v2.4h-1.4v2.1h-2.7v-2.1L46.7,2132.9L46.7,2132.9z M52.4,2126.3
				l-2.7,4.1h2.7V2126.3z"/>
		</g>
	</g>
	<g>
		<path id="패스_5578" class="st4" d="M36.5,2248h30v-30h-30V2248z"/>
		<g class="st2">
			<path class="st5" d="M55.9,2229.6h-5.1v2.2c0.3-0.3,0.5-0.4,0.9-0.6c0.4-0.2,0.9-0.3,1.3-0.3c0.9,0,1.5,0.2,2.1,0.5
				c0.6,0.3,0.9,0.9,1.2,1.5c0.3,0.6,0.3,1.2,0.3,1.9c0,1.3-0.3,2.3-1.1,3c-0.7,0.8-1.7,1.1-3,1.1c-0.9,0-1.6-0.2-2.2-0.4
				s-1.1-0.7-1.5-1.3c-0.3-0.5-0.5-1.1-0.6-1.8H51c0.1,0.3,0.3,0.6,0.5,0.9c0.3,0.3,0.6,0.3,1,0.3c0.5,0,0.9-0.2,1.1-0.5
				c0.3-0.3,0.3-0.8,0.3-1.3s-0.2-0.9-0.4-1.2c-0.3-0.3-0.6-0.4-1.1-0.4c-0.3,0-0.7,0.1-0.9,0.3c-0.3,0.2-0.4,0.4-0.5,0.7h-2.7v-7.1
				H56L55.9,2229.6L55.9,2229.6z"/>
		</g>
	</g>
</g>
</svg>
