<svg xmlns="http://www.w3.org/2000/svg" xmlns:xlink="http://www.w3.org/1999/xlink" width="48.252" height="53.618" viewBox="0 0 48.252 53.618">
  <defs>
    <clipPath id="clip-path">
      <path id="패스_1928" data-name="패스 1928" d="M0,15.4H48.252V-38.213H0Z" transform="translate(0 38.213)" fill="none"/>
    </clipPath>
  </defs>
  <g id="그룹_4383" data-name="그룹 4383" transform="translate(0 38.213)">
    <g id="그룹_4370" data-name="그룹 4370" transform="translate(6.693 -31.519)">
      <path id="패스_1916" data-name="패스 1916" d="M0,0,11.75,20.212" fill="none" stroke="#1e47b9" stroke-width="2"/>
    </g>
    <g id="그룹_4371" data-name="그룹 4371" transform="translate(18.251 -11.501)">
      <path id="패스_1917" data-name="패스 1917" d="M0,.056,23.31-.138" transform="translate(0 0.138)" fill="none" stroke="#1e47b9" stroke-width="2"/>
    </g>
    <g id="그룹_4372" data-name="그룹 4372" transform="translate(6.694 -11.5)">
      <path id="패스_1918" data-name="패스 1918" d="M3.376,0-8.374,20.212" transform="translate(8.374)" fill="none" stroke="#1e47b9" stroke-width="2"/>
    </g>
    <g id="그룹_4382" data-name="그룹 4382" transform="translate(0 -38.213)" clip-path="url(#clip-path)">
      <g id="그룹_4373" data-name="그룹 4373" transform="translate(36.076 21.424)">
        <path id="패스_1919" data-name="패스 1919" d="M2.887.773A5.381,5.381,0,0,1,.916,8.13,5.381,5.381,0,0,1-6.438,6.16,5.38,5.38,0,0,1-4.468-1.2,5.381,5.381,0,0,1,2.887.773" transform="translate(7.162 1.919)" fill="#fff" stroke="#1e47b9" stroke-width="2"/>
      </g>
      <g id="그룹_4374" data-name="그룹 4374" transform="translate(36.569 21.917)">
        <path id="패스_1920" data-name="패스 1920" d="M2.623.7A4.89,4.89,0,0,1,.833,7.387,4.891,4.891,0,0,1-5.849,5.6a4.889,4.889,0,0,1,1.79-6.683A4.89,4.89,0,0,1,2.623.7" transform="translate(6.507 1.743)" fill="#fff"/>
      </g>
      <g id="그룹_4375" data-name="그룹 4375" transform="translate(36.569 21.917)">
        <path id="패스_1921" data-name="패스 1921" d="M2.623.7A4.89,4.89,0,0,1,.833,7.387,4.891,4.891,0,0,1-5.849,5.6a4.889,4.889,0,0,1,1.79-6.683A4.89,4.89,0,0,1,2.623.7Z" transform="translate(6.507 1.743)" fill="none" stroke="#1e47b9" stroke-width="2"/>
      </g>
      <g id="그룹_4376" data-name="그룹 4376" transform="translate(1.403 41.441)">
        <path id="패스_1922" data-name="패스 1922" d="M2.887.773A5.386,5.386,0,0,1,.916,8.133,5.388,5.388,0,0,1-6.442,6.16,5.388,5.388,0,0,1-4.468-1.2,5.383,5.383,0,0,1,2.887.773" transform="translate(7.162 1.919)" fill="#fff" stroke="#1e47b9" stroke-width="2"/>
      </g>
      <g id="그룹_4377" data-name="그룹 4377" transform="translate(1.897 41.935)">
        <path id="패스_1923" data-name="패스 1923" d="M2.623.7A4.891,4.891,0,0,1,.832,7.387,4.893,4.893,0,0,1-5.852,5.6a4.893,4.893,0,0,1,1.793-6.68A4.89,4.89,0,0,1,2.623.7" transform="translate(6.506 1.743)" fill="#fff"/>
      </g>
      <g id="그룹_4378" data-name="그룹 4378" transform="translate(1.897 41.935)">
        <path id="패스_1924" data-name="패스 1924" d="M2.623.7A4.891,4.891,0,0,1,.832,7.387,4.893,4.893,0,0,1-5.852,5.6a4.893,4.893,0,0,1,1.793-6.68A4.89,4.89,0,0,1,2.623.7Z" transform="translate(6.506 1.743)" fill="none" stroke="#1e47b9" stroke-width="2"/>
      </g>
      <g id="그룹_4379" data-name="그룹 4379" transform="translate(1.405 1.404)">
        <path id="패스_1925" data-name="패스 1925" d="M2.887.774A5.384,5.384,0,0,1,.916,8.131,5.382,5.382,0,0,1-6.438,6.158,5.384,5.384,0,0,1-4.468-1.2,5.383,5.383,0,0,1,2.887.774" transform="translate(7.161 1.92)" fill="#fff" stroke="#1e47b9" stroke-width="2"/>
      </g>
      <g id="그룹_4380" data-name="그룹 4380" transform="translate(1.898 1.897)">
        <path id="패스_1926" data-name="패스 1926" d="M2.623.7A4.892,4.892,0,0,1,.832,7.386a4.89,4.89,0,0,1-6.68-1.792A4.89,4.89,0,0,1-4.059-1.087,4.89,4.89,0,0,1,2.623.7" transform="translate(6.505 1.744)" fill="#fff"/>
      </g>
      <g id="그룹_4381" data-name="그룹 4381" transform="translate(1.898 1.897)">
        <path id="패스_1927" data-name="패스 1927" d="M2.623.7A4.892,4.892,0,0,1,.832,7.386a4.89,4.89,0,0,1-6.68-1.792A4.89,4.89,0,0,1-4.059-1.087,4.89,4.89,0,0,1,2.623.7Z" transform="translate(6.505 1.744)" fill="none" stroke="#1e47b9" stroke-width="2"/>
      </g>
    </g>
  </g>
</svg>
