<svg xmlns="http://www.w3.org/2000/svg" xmlns:xlink="http://www.w3.org/1999/xlink" width="51.182" height="51.18" viewBox="0 0 51.182 51.18">
  <defs>
    <clipPath id="clip-path">
      <path id="패스_2733" data-name="패스 2733" d="M0,18.067H51.182v-51.18H0Z" transform="translate(0 33.113)" fill="none"/>
    </clipPath>
  </defs>
  <g id="그룹_5034" data-name="그룹 5034" transform="translate(0 33.113)">
    <g id="그룹_5026" data-name="그룹 5026" transform="translate(6.937 -26.178)">
      <path id="패스_2726" data-name="패스 2726" d="M0,13.171,18.654-5.483,37.308-24.139" transform="translate(0 24.139)" fill="#fff" stroke="#1e47b9" stroke-width="2"/>
    </g>
    <g id="그룹_5033" data-name="그룹 5033" transform="translate(0 -33.113)" clip-path="url(#clip-path)">
      <g id="그룹_5027" data-name="그룹 5027" transform="translate(1.546 38.854)">
        <path id="패스_2727" data-name="패스 2727" d="M3.55.951A5.386,5.386,0,0,1,1.578,8.314a5.386,5.386,0,0,1-7.36-1.972A5.386,5.386,0,0,1-3.81-1.02,5.386,5.386,0,0,1,3.55.951" transform="translate(6.507 1.743)" fill="#fff"/>
      </g>
      <g id="그룹_5028" data-name="그룹 5028" transform="translate(1.546 38.854)">
        <path id="패스_2728" data-name="패스 2728" d="M3.55.951A5.386,5.386,0,0,1,1.578,8.314a5.386,5.386,0,0,1-7.36-1.972A5.386,5.386,0,0,1-3.81-1.02,5.386,5.386,0,0,1,3.55.951Z" transform="translate(6.507 1.743)" fill="none" stroke="#1e47b9" stroke-width="2"/>
      </g>
      <g id="그룹_5029" data-name="그룹 5029" transform="translate(20.2 20.2)">
        <path id="패스_2729" data-name="패스 2729" d="M3.55.951A5.386,5.386,0,0,1,1.578,8.314a5.386,5.386,0,0,1-7.36-1.972A5.386,5.386,0,0,1-3.81-1.02,5.386,5.386,0,0,1,3.55.951" transform="translate(6.507 1.743)" fill="#fff"/>
      </g>
      <g id="그룹_5030" data-name="그룹 5030" transform="translate(20.2 20.2)">
        <path id="패스_2730" data-name="패스 2730" d="M3.55.951A5.386,5.386,0,0,1,1.578,8.314a5.386,5.386,0,0,1-7.36-1.972A5.386,5.386,0,0,1-3.81-1.02,5.386,5.386,0,0,1,3.55.951Z" transform="translate(6.507 1.743)" fill="none" stroke="#1e47b9" stroke-width="2"/>
      </g>
      <g id="그룹_5031" data-name="그룹 5031" transform="translate(38.855 1.546)">
        <path id="패스_2731" data-name="패스 2731" d="M3.55.951A5.386,5.386,0,0,1,1.578,8.314a5.388,5.388,0,0,1-7.36-1.972A5.386,5.386,0,0,1-3.81-1.02,5.386,5.386,0,0,1,3.55.951" transform="translate(6.507 1.743)" fill="#fff"/>
      </g>
      <g id="그룹_5032" data-name="그룹 5032" transform="translate(38.855 1.546)">
        <path id="패스_2732" data-name="패스 2732" d="M3.55.951A5.386,5.386,0,0,1,1.578,8.314a5.388,5.388,0,0,1-7.36-1.972A5.386,5.386,0,0,1-3.81-1.02,5.386,5.386,0,0,1,3.55.951Z" transform="translate(6.507 1.743)" fill="none" stroke="#1e47b9" stroke-width="2"/>
      </g>
    </g>
  </g>
</svg>
