<?xml version="1.0" encoding="utf-8"?>
<!-- Generator: Adobe Illustrator 25.1.0, SVG Export Plug-In . SVG Version: 6.00 Build 0)  -->
<svg version="1.1" id="레이어_1" xmlns="http://www.w3.org/2000/svg" xmlns:xlink="http://www.w3.org/1999/xlink" x="0px"
	 y="0px" viewBox="0 0 52.9 19" style="enable-background:new 0 0 52.9 19;" xml:space="preserve">
<style type="text/css">
	.st0{enable-background:new    ;}
	.st1{fill:#919191;}
</style>
<g id="그룹_3823" transform="translate(-1795 -549)">
	<g class="st0">
		<path class="st1" d="M1797.2,562.8c-0.5-0.2-0.8-0.5-1.1-0.9c-0.3-0.4-0.4-0.8-0.4-1.2h1c0,0.4,0.2,0.8,0.6,1.2
			c0.3,0.3,0.9,0.5,1.5,0.5c0.6,0,1.1-0.2,1.5-0.5c0.4-0.3,0.5-0.7,0.5-1.2c0-0.4-0.1-0.7-0.3-0.9c-0.2-0.2-0.4-0.4-0.7-0.5
			c-0.3-0.1-0.7-0.2-1.2-0.4c-0.6-0.2-1.1-0.3-1.4-0.5c-0.4-0.2-0.7-0.4-0.9-0.7c-0.3-0.3-0.4-0.8-0.4-1.3c0-0.5,0.1-0.9,0.4-1.3
			s0.6-0.7,1-0.9c0.4-0.2,0.9-0.3,1.5-0.3c0.8,0,1.5,0.2,2,0.6c0.5,0.4,0.8,0.9,0.9,1.6h-1c-0.1-0.4-0.3-0.7-0.6-1
			c-0.3-0.3-0.8-0.4-1.4-0.4c-0.5,0-1,0.1-1.4,0.4c-0.4,0.3-0.5,0.7-0.5,1.2c0,0.4,0.1,0.7,0.3,0.9c0.2,0.2,0.4,0.4,0.7,0.5
			c0.3,0.1,0.7,0.3,1.2,0.4c0.6,0.2,1.1,0.3,1.4,0.5c0.4,0.2,0.7,0.4,0.9,0.7c0.3,0.3,0.4,0.8,0.4,1.3c0,0.4-0.1,0.8-0.3,1.2
			c-0.2,0.4-0.6,0.7-1,0.9c-0.4,0.2-1,0.4-1.6,0.4C1798.2,563.1,1797.7,563,1797.2,562.8z"/>
		<path class="st1" d="M1803.7,557.5c0.3-0.5,0.7-1,1.2-1.3c0.5-0.3,1.1-0.4,1.8-0.4c0.9,0,1.6,0.2,2.2,0.7s0.9,1,1.1,1.8h-1
			c-0.1-0.5-0.4-0.9-0.8-1.2c-0.4-0.3-0.9-0.4-1.5-0.4c-0.5,0-0.9,0.1-1.3,0.3c-0.4,0.2-0.7,0.5-0.9,1c-0.2,0.4-0.3,1-0.3,1.6
			s0.1,1.2,0.3,1.6c0.2,0.4,0.5,0.8,0.9,1c0.4,0.2,0.8,0.3,1.3,0.3c0.6,0,1.1-0.1,1.5-0.4c0.4-0.3,0.7-0.7,0.8-1.2h1
			c-0.2,0.7-0.5,1.3-1.1,1.8c-0.6,0.4-1.3,0.7-2.2,0.7c-0.7,0-1.3-0.1-1.8-0.4s-0.9-0.7-1.2-1.3c-0.3-0.6-0.4-1.2-0.4-1.9
			S1803.4,558.1,1803.7,557.5z"/>
		<path class="st1" d="M1813.7,556.1c0.4-0.2,0.9-0.4,1.5-0.4v0.9h-0.2c-0.7,0-1.2,0.2-1.6,0.5s-0.6,0.9-0.6,1.8v4h-0.9v-7.1h0.9
			v1.3C1812.9,556.7,1813.2,556.4,1813.7,556.1z"/>
		<path class="st1" d="M1818,562.7c-0.5-0.3-1-0.7-1.3-1.3c-0.3-0.6-0.5-1.2-0.5-1.9s0.2-1.4,0.5-1.9c0.3-0.5,0.7-1,1.3-1.3
			c0.5-0.3,1.1-0.4,1.8-0.4s1.3,0.1,1.8,0.4c0.5,0.3,1,0.7,1.3,1.3c0.3,0.6,0.5,1.2,0.5,1.9c0,0.7-0.2,1.4-0.5,1.9
			c-0.3,0.6-0.7,1-1.3,1.3c-0.5,0.3-1.2,0.4-1.8,0.4S1818.6,563,1818,562.7z M1821.1,562c0.4-0.2,0.7-0.5,1-1c0.2-0.4,0.4-1,0.4-1.6
			s-0.1-1.2-0.4-1.6c-0.2-0.4-0.6-0.7-1-1c-0.4-0.2-0.8-0.3-1.3-0.3c-0.5,0-0.9,0.1-1.3,0.3c-0.4,0.2-0.7,0.5-1,1
			c-0.2,0.4-0.4,1-0.4,1.6s0.1,1.2,0.4,1.6c0.2,0.4,0.6,0.8,0.9,1c0.4,0.2,0.8,0.3,1.3,0.3C1820.3,562.3,1820.7,562.2,1821.1,562z"
			/>
		<path class="st1" d="M1826.2,553.4v9.6h-0.9v-9.6H1826.2z"/>
		<path class="st1" d="M1829.4,553.4v9.6h-0.9v-9.6H1829.4z"/>
	</g>
	<g id="그룹_3822" transform="translate(1840.939 551.829)">
		
			<rect id="사각형_405" x="3.1" y="-1" transform="matrix(0.7071 -0.7071 0.7071 0.7071 -1.4435 3.4853)" class="st1" width="0.9" height="9"/>
		
			<rect id="사각형_406" x="-1" y="8.8" transform="matrix(0.7071 -0.7071 0.7071 0.7071 -5.5021 5.1664)" class="st1" width="9" height="0.9"/>
	</g>
</g>
</svg>
