<svg xmlns="http://www.w3.org/2000/svg" width="606.043" height="212.64" viewBox="0 0 606.043 212.64">
  <g id="레이어_2" data-name="레이어 2" transform="translate(-1057.328 -464)">
    <path id="패스_4625" data-name="패스 4625" d="M604.459,160.89C526.761,172.8,430.7,191.843,322.53,190.16,217.572,188.527,113.358,167.883-.05,157.315" transform="translate(1058.32 464)" fill="none" stroke="#c4c4c4" stroke-miterlimit="10" stroke-width="1.6"/>
    <path id="패스_4623" data-name="패스 4623" d="M604.863,137.281C445.139,142.349,301.472,174.79,108.19,174.79c-42.661,0-78.132-.115-108.8-.468" transform="translate(1058.32 464)" fill="none" stroke="#c4c4c4" stroke-miterlimit="10" stroke-width="1.6"/>
    <path id="패스_4624" data-name="패스 4624" d="M604.774,118.856c-14.7-1.089-29.967-1.8-46.114-2.076-95.584-1.617-173.52,20.4-256.4,42.161-77.973,20.473-160.335,40.72-265.88,40.769-13.275.006-25.6-.007-37.371-.042" transform="translate(1058.32 464)" fill="none" stroke="#56b760" stroke-miterlimit="10" stroke-width="2"/>
    <path id="패스_5004" data-name="패스 5004" d="M465.48,116.75a45.82,45.82,0,1,0-74.06,11.17" transform="translate(1058.32 464)" fill="none" stroke="#bdbfc1" stroke-linecap="round" stroke-linejoin="round" stroke-width="1.6"/>
    <path id="패스_5005" data-name="패스 5005" d="M512.35,100c0,3.38,2.15,6,4.21,6s4.69-2.74,4.69-6.12-2.64-10-4.69-10S512.35,96.63,512.35,100Z" transform="translate(1058.32 464)" fill="none" stroke="#bdbfc1" stroke-linecap="round" stroke-linejoin="round" stroke-width="1.6"/>
    <line id="선_400" data-name="선 400" y1="9.51" transform="translate(1574.98 566.42)" fill="none" stroke="#bdbfc1" stroke-linecap="round" stroke-linejoin="round" stroke-width="1.6"/>
    <path id="패스_5006" data-name="패스 5006" d="M526.52,103.47c0,2.15,1.57,3.8,3.08,3.8a4,4,0,0,0,3.43-3.9c0-2.15-1.93-6.4-3.43-6.4S526.52,101.32,526.52,103.47Z" transform="translate(1058.32 464)" fill="none" stroke="#bdbfc1" stroke-linecap="round" stroke-linejoin="round" stroke-width="1.6"/>
    <line id="선_401" data-name="선 401" y1="5.69" transform="translate(1588.05 569.27)" fill="none" stroke="#bdbfc1" stroke-linecap="round" stroke-linejoin="round" stroke-width="1.6"/>
    <path id="패스_5007" data-name="패스 5007" d="M1259.64,133.01h30.92l-5.07-18.9h-30.91Z" transform="translate(122 464)" fill="none" stroke="#56b760" stroke-linecap="round" stroke-linejoin="round" stroke-width="1.6"/>
    <path id="패스_5008" data-name="패스 5008" d="M1257.99,126.83h30.91l-1.7-6.34h-30.91Z" transform="translate(122 464)" fill="none" stroke="#56b760" stroke-linecap="round" stroke-linejoin="round" stroke-width="1.6"/>
    <path id="패스_5009" data-name="패스 5009" d="M1278.11,133.01h6.21l-5.06-18.9h-6.22Z" transform="translate(122 464)" fill="none" stroke="#56b760" stroke-linecap="round" stroke-linejoin="round" stroke-width="1.6"/>
    <path id="패스_5010" data-name="패스 5010" d="M1265.67,133.01h6.22l-5.07-18.9h-6.21Z" transform="translate(122 464)" fill="none" stroke="#56b760" stroke-linecap="round" stroke-linejoin="round" stroke-width="1.6"/>
    <path id="패스_5011" data-name="패스 5011" d="M1253.65,123.56h-18.27l5.06,18.9h24.68" transform="translate(122 464)" fill="none" stroke="#56b760" stroke-linecap="round" stroke-linejoin="round" stroke-width="1.6"/>
    <path id="패스_5012" data-name="패스 5012" d="M1255.43,129.95h-18.34l1.7,6.33h24.57" transform="translate(122 464)" fill="none" stroke="#56b760" stroke-linecap="round" stroke-linejoin="round" stroke-width="1.6"/>
    <path id="패스_5013" data-name="패스 5013" d="M1253.65,123.56l5.26,18.9h6.21l-1.76-6.18" transform="translate(122 464)" fill="none" stroke="#56b760" stroke-linecap="round" stroke-linejoin="round" stroke-width="1.6"/>
    <path id="패스_5014" data-name="패스 5014" d="M1246.47,142.46h6.22l-5.07-18.9h-6.22Z" transform="translate(122 464)" fill="none" stroke="#56b760" stroke-linecap="round" stroke-linejoin="round" stroke-width="1.6"/>
    <line id="선_402" data-name="선 402" y2="7.53" transform="translate(1374.69 606.38)" fill="none" stroke="#56b760" stroke-linecap="round" stroke-linejoin="round" stroke-width="1.6"/>
    <line id="선_403" data-name="선 403" y2="10.2" transform="translate(1397.09 597.43)" fill="none" stroke="#56b760" stroke-linecap="round" stroke-linejoin="round" stroke-width="1.6"/>
    <path id="패스_5015" data-name="패스 5015" d="M446.52,108.65s-1.57,3.91-7,9.56c-3.76,3.91-7.65,3.54-7.65,3.54" transform="translate(1058.32 464)" fill="none" stroke="#56b760" stroke-linecap="round" stroke-linejoin="round" stroke-width="1.6"/>
    <path id="패스_5016" data-name="패스 5016" d="M401.47,99.4a34,34,0,0,1,3,4.72c1.6,2.94,4.1,4,5.63,6.48a7.57,7.57,0,0,1,1,5.56c-.9,3.22-4.43,3.08-7,2.24-7.32-2.36-7.64-10.68-4.35-16.47.26-.46.54-.9.84-1.33A8.557,8.557,0,0,1,401.47,99.4Z" transform="translate(1058.32 464)" fill="none" stroke="#56b760" stroke-linecap="round" stroke-linejoin="round" stroke-width="1.6"/>
    <path id="패스_5017" data-name="패스 5017" d="M402.49,108.65s1.57,3.91,7,9.56c3.76,3.91,7.64,3.54,7.64,3.54" transform="translate(1058.32 464)" fill="none" stroke="#56b760" stroke-linecap="round" stroke-linejoin="round" stroke-width="1.6"/>
    <ellipse id="타원_74" data-name="타원 74" cx="12.52" cy="22.59" rx="12.52" ry="22.59" transform="translate(1470.3 533)" fill="none" stroke="#56b760" stroke-linecap="round" stroke-linejoin="round" stroke-width="1.6"/>
    <line id="선_404" data-name="선 404" x1="30.22" transform="translate(1460.23 555.59)" fill="none" stroke="#56b760" stroke-linecap="round" stroke-linejoin="round" stroke-width="1.6"/>
    <line id="선_405" data-name="선 405" y2="32.6" transform="translate(1482.82 533)" fill="none" stroke="#56b760" stroke-linecap="round" stroke-linejoin="round" stroke-width="1.6"/>
    <path id="패스_5018" data-name="패스 5018" d="M439.16,74.41a22.55,22.55,0,0,1-29.31,0" transform="translate(1058.32 464)" fill="none" stroke="#56b760" stroke-linecap="round" stroke-linejoin="round" stroke-width="1.6"/>
    <path id="패스_5019" data-name="패스 5019" d="M449.13,101.75l.11.18c3.29,5.79,3,14.11-4.35,16.47-2.6.84-6.14,1-7-2.24a5.53,5.53,0,0,1-.19-1.42" transform="translate(1058.32 464)" fill="none" stroke="#56b760" stroke-linecap="round" stroke-linejoin="round" stroke-width="1.6"/>
    <path id="패스_5020" data-name="패스 5020" d="M412.43,106.86a22.57,22.57,0,0,1,26.73,1.91" transform="translate(1058.32 464)" fill="none" stroke="#56b760" stroke-linecap="round" stroke-linejoin="round" stroke-width="1.6"/>
    <path id="패스_5021" data-name="패스 5021" d="M402,93.11c0-.5-.05-1-.05-1.52a22.61,22.61,0,1,1,13.16,20.52" transform="translate(1058.32 464)" fill="none" stroke="#56b760" stroke-linecap="round" stroke-linejoin="round" stroke-width="1.6"/>
    <line id="선_406" data-name="선 406" x1="14.96" transform="translate(1490.45 555.59)" fill="none" stroke="#56b760" stroke-linecap="round" stroke-linejoin="round" stroke-width="1.6"/>
    <line id="선_407" data-name="선 407" y2="12.58" transform="translate(1482.82 565.6)" fill="none" stroke="#56b760" stroke-linecap="round" stroke-linejoin="round" stroke-width="1.6"/>
    <line id="선_408" data-name="선 408" x2="13.95" transform="translate(1531.62 525.59)" fill="none" stroke="#56b760" stroke-linecap="round" stroke-linejoin="round" stroke-width="1.6"/>
    <line id="선_409" data-name="선 409" y1="13.95" transform="translate(1538.61 518.6)" fill="none" stroke="#56b760" stroke-linecap="round" stroke-linejoin="round" stroke-width="1.6"/>
    <line id="선_410" data-name="선 410" x1="10.89" transform="translate(1391.16 560.82)" fill="none" stroke="#bdbfc1" stroke-linecap="round" stroke-linejoin="round" stroke-width="1.6"/>
    <line id="선_411" data-name="선 411" y2="10.89" transform="translate(1396.54 555.32)" fill="none" stroke="#bdbfc1" stroke-linecap="round" stroke-linejoin="round" stroke-width="1.6"/>
    <line id="선_412" data-name="선 412" x1="6.69" transform="translate(1410.55 570.84)" fill="none" stroke="#bdbfc1" stroke-linecap="round" stroke-linejoin="round" stroke-width="1.6"/>
    <line id="선_413" data-name="선 413" y2="6.69" transform="translate(1413.86 567.46)" fill="none" stroke="#bdbfc1" stroke-linecap="round" stroke-linejoin="round" stroke-width="1.6"/>
    <line id="선_414" data-name="선 414" x2="9.9" transform="translate(1516.88 511.1)" fill="none" stroke="#56b760" stroke-linecap="round" stroke-linejoin="round" stroke-width="1.6"/>
    <line id="선_415" data-name="선 415" y1="9.9" transform="translate(1521.86 506.13)" fill="none" stroke="#56b760" stroke-linecap="round" stroke-linejoin="round" stroke-width="1.6"/>
    <line id="선_416" data-name="선 416" x2="6.56" transform="translate(1543.99 511.1)" fill="none" stroke="#56b760" stroke-linecap="round" stroke-linejoin="round" stroke-width="1.6"/>
    <line id="선_417" data-name="선 417" y1="6.56" transform="translate(1547.29 507.8)" fill="none" stroke="#56b760" stroke-linecap="round" stroke-linejoin="round" stroke-width="1.6"/>
    <path id="패스_5022" data-name="패스 5022" d="M358.35,69.73v3.63m0,12.26v3.63m9.54-9.76h-3.6m-12.05,0h-3.6" transform="translate(1058.32 464)" fill="none" stroke="#bdbfc1" stroke-linecap="round" stroke-linejoin="round" stroke-width="1.6"/>
    <ellipse id="타원_75" data-name="타원 75" cx="4.2" cy="4.26" rx="4.2" ry="4.26" transform="translate(1412.38 539.23)" fill="none" stroke="#bdbfc1" stroke-linecap="round" stroke-linejoin="round" stroke-width="1.6"/>
    <path id="패스_5023" data-name="패스 5023" d="M351.43,72.53l.31.32L354,75.09m8.67,8.67.32.32,2.25,2.25m-.16-13.65-.31.32-2.23,2.23M354,83.75l-.31.32-2.23,2.23" transform="translate(1058.32 464)" fill="none" stroke="#bdbfc1" stroke-linecap="round" stroke-linejoin="round" stroke-width="1.6"/>
    <path id="패스_5024" data-name="패스 5024" d="M494.41,88.25a1.76,1.76,0,1,1,1.75-1.75,1.76,1.76,0,0,1-1.75,1.75" transform="translate(1058.32 464)" fill="none" stroke="#56b760" stroke-linecap="round" stroke-linejoin="round" stroke-width="1.6"/>
    <line id="선_418" data-name="선 418" x1="0.55" y1="16.71" transform="translate(1554.34 560.84)" fill="none" stroke="#56b760" stroke-linecap="round" stroke-linejoin="round" stroke-width="1.6"/>
    <path id="패스_5025" data-name="패스 5025" d="M1427.52,87.69l-13.74,1.37-.31-2.11,14.72-4.05.61.76" transform="translate(122 464)" fill="none" stroke="#56b760" stroke-linecap="round" stroke-linejoin="round" stroke-width="1.6"/>
    <path id="패스_5026" data-name="패스 5026" d="M1431.28,82.9,1438,70.69l1.92.94-5,14.43-.85.08" transform="translate(122 464)" fill="none" stroke="#56b760" stroke-linecap="round" stroke-linejoin="round" stroke-width="1.6"/>
    <path id="패스_5027" data-name="패스 5027" d="M1433.57,88.58l7.08,11.48-1.76,1.2L1428.8,89.81l.18-.39" transform="translate(122 464)" fill="none" stroke="#56b760" stroke-linecap="round" stroke-linejoin="round" stroke-width="1.6"/>
    <line id="선_419" data-name="선 419" x1="0.69" y2="19.88" transform="translate(1550.44 557.95)" fill="none" stroke="#56b760" stroke-linecap="round" stroke-linejoin="round" stroke-width="1.6"/>
    <rect id="사각형_539" data-name="사각형 539" width="605.05" height="212.64" transform="translate(1058.32 464)" fill="none"/>
  </g>
</svg>
