<svg xmlns="http://www.w3.org/2000/svg" xmlns:xlink="http://www.w3.org/1999/xlink" viewBox="0 0 1937.27 212.64"><defs><style>.cls-1{fill:#fff;}.cls-2,.cls-3,.cls-4,.cls-5,.cls-6{fill:none;}.cls-2,.cls-3,.cls-4{stroke-miterlimit:10;}.cls-2,.cls-3,.cls-5,.cls-6{stroke-width:1.6px;}.cls-2{stroke:url(#무제_그라디언트_22);}.cls-3{stroke:url(#무제_그라디언트_22-2);}.cls-4{stroke-width:2px;stroke:url(#무제_그라디언트_60);}.cls-5{stroke:#bdbfc1;}.cls-5,.cls-6{stroke-linecap:round;stroke-linejoin:round;}.cls-6{stroke:#e37e28;}</style><linearGradient id="무제_그라디언트_22" x1="0.16" y1="148.02" x2="1929.81" y2="148.02" gradientUnits="userSpaceOnUse"><stop offset="0" stop-color="#fff"/><stop offset="0.1" stop-color="#f0f0f0"/><stop offset="0.24" stop-color="#e0e0e0"/><stop offset="0.35" stop-color="#dadada"/><stop offset="0.71" stop-color="#dadada"/><stop offset="0.8" stop-color="#e0e0e0"/><stop offset="0.93" stop-color="#f2f2f2"/><stop offset="1" stop-color="#fff"/></linearGradient><linearGradient id="무제_그라디언트_22-2" x1="0.05" y1="145.56" x2="1937.27" y2="145.56" xlink:href="#무제_그라디언트_22"/><linearGradient id="무제_그라디언트_60" y1="150.93" x2="1922.23" y2="150.93" gradientUnits="userSpaceOnUse"><stop offset="0" stop-color="#fff"/><stop offset="0.03" stop-color="#fcf2ea"/><stop offset="0.13" stop-color="#f5cfaf"/><stop offset="0.22" stop-color="#eeb27f"/><stop offset="0.31" stop-color="#e99c59"/><stop offset="0.39" stop-color="#e68b3e"/><stop offset="0.46" stop-color="#e4812e"/><stop offset="0.52" stop-color="#e37e28"/><stop offset="0.56" stop-color="#e48330"/><stop offset="0.63" stop-color="#e78f44"/><stop offset="0.72" stop-color="#eba467"/><stop offset="0.82" stop-color="#f1c096"/><stop offset="0.93" stop-color="#f9e4d2"/><stop offset="1" stop-color="#fff"/></linearGradient></defs><g id="레이어_2" data-name="레이어 2"><g id="레이어_1-2" data-name="레이어 1"><rect class="cls-1" width="1937.27" height="212.64"/><path id="패스_4624" data-name="패스 4624" class="cls-2" d="M.16,161.31c187.92,0,256.53-61.39,442.13-64.53S709.86,199.23,927.48,199.32s218.17-24.44,392.17-46.86,289.65-2.73,347.29,4.83c61.84,8.12,123.36,3.63,174.25,3.63h88.62"/><path id="패스_4623" data-name="패스 4623" class="cls-3" d="M.05,161.26c187.92,0,149.12-41.33,334.72-44.47S638,174.35,855.63,174.45s285.24-22.6,459.25-45,306.8.43,351.06,17.49,74.27,25.59,103.87,25.89c33.21.34,67.69-11.89,112.62-11.89h54.84"/><path id="패스_4625" data-name="패스 4625" class="cls-4" d="M0,161.27c187.92,0,222.24-31.37,309.47-29.59s216,40.85,369,38.48,267.25-25.57,447.07-18.59,332.54-45.25,517-3.55c9.7,2.54,88.23,22.24,129.58,19.54,26.48.17,59.06-6.48,93.89-6.64,15.08-.08,56.19,0,56.19,0"/><path class="cls-5" d="M999.12,144.88a42.3,42.3,0,1,0-59.65,2.73"/><line class="cls-5" x1="993.8" y1="57.72" x2="979.85" y2="57.72"/><line class="cls-5" x1="986.81" y1="64.68" x2="986.81" y2="50.73"/><line class="cls-5" x1="1010.42" y1="47.37" x2="1001.8" y2="47.37"/><line class="cls-5" x1="1006.09" y1="52.29" x2="1006.09" y2="42.39"/><line class="cls-5" x1="894.04" y1="110.83" x2="884.57" y2="110.83"/><line class="cls-5" x1="889.28" y1="115.54" x2="889.28" y2="106.07"/><line class="cls-5" x1="877.98" y1="119.89" x2="870.53" y2="119.89"/><line class="cls-5" x1="874.24" y1="123.59" x2="874.24" y2="116.15"/><path class="cls-6" d="M973.35,97.79a3.71,3.71,0,0,0-3.94-3.49h-3.12a3.71,3.71,0,0,0-3.93,3.49l-.06.5a3.78,3.78,0,0,1,4-4h3.12c2.46,0,4,1.61,4,4.23Zm-11.06.77v0h11.14v0l0,0Z"/><path class="cls-6" d="M967.86,86.33c-1.35,0-2.23,1.06-2.23,2.7s.88,2.69,2.23,2.69,2.23-1.06,2.23-2.69S969.22,86.33,967.86,86.33Zm0,5.43c-1.38,0-2.27-1.07-2.27-2.73s.89-2.74,2.27-2.74,2.28,1.08,2.28,2.74S969.24,91.76,967.86,91.76Z"/><path class="cls-6" d="M997.88,121.6a3.72,3.72,0,0,0-3.94-3.5h-3.12a3.71,3.71,0,0,0-3.93,3.49l-.06.5a3.79,3.79,0,0,1,4-4h3.12c2.46,0,4,1.62,4,4.23Zm-11.06.77v0H998v0l0,0Z"/><path class="cls-6" d="M992.39,110.14c-1.35,0-2.23,1-2.23,2.69s.88,2.69,2.23,2.69,2.24-1.06,2.24-2.69S993.75,110.14,992.39,110.14Zm0,5.42c-1.38,0-2.27-1.07-2.27-2.73s.89-2.73,2.27-2.73,2.28,1.07,2.28,2.73S993.78,115.56,992.39,115.56Z"/><path class="cls-6" d="M949,121.6a3.72,3.72,0,0,0-3.93-3.5h-3.12a3.72,3.72,0,0,0-3.94,3.49l-.06.5a3.8,3.8,0,0,1,4-4H945c2.46,0,4,1.62,4,4.23Zm-11.05.77v0h11.14v0l0,0Z"/><path class="cls-6" d="M943.48,110.14c-1.36,0-2.23,1-2.23,2.69s.87,2.69,2.23,2.69,2.23-1.06,2.23-2.69S944.84,110.14,943.48,110.14Zm0,5.42c-1.38,0-2.27-1.07-2.27-2.73s.89-2.73,2.27-2.73,2.27,1.07,2.27,2.73S944.86,115.56,943.48,115.56Z"/><path class="cls-6" d="M973.35,145.4a3.72,3.72,0,0,0-3.94-3.5h-3.12a3.72,3.72,0,0,0-3.93,3.5l-.06.49a3.79,3.79,0,0,1,4-4h3.12c2.46,0,4,1.62,4,4.23Zm-11.06.77v0h11.14v0l0,0Z"/><path class="cls-6" d="M967.86,133.94c-1.35,0-2.23,1.06-2.23,2.69s.88,2.69,2.23,2.69,2.23-1,2.23-2.69S969.22,133.94,967.86,133.94Zm0,5.42c-1.38,0-2.27-1.07-2.27-2.73s.89-2.73,2.27-2.73,2.28,1.07,2.28,2.73S969.24,139.36,967.86,139.36Z"/><path class="cls-6" d="M966.92,104a12.11,12.11,0,0,0-3,.61l-.37.13-.15.35a35,35,0,0,0-1.57,4.94l-.2.81.81.21a22.43,22.43,0,0,0,4.5.74l.9,0v-7.91Zm1,7.84.9,0a22.43,22.43,0,0,0,4.5-.74l.81-.21-.19-.81a36.15,36.15,0,0,0-1.59-4.94l-.15-.36-.37-.12a12.13,12.13,0,0,0-3-.61l-.92-.07Zm-6.43,0a23.3,23.3,0,0,0,0,8.86l.16.9.89-.23a23,23,0,0,1,4.5-.71l.82,0v-8.7l-.82,0a22.31,22.31,0,0,1-4.51-.72l-.89-.23Zm11.77-.68a22.39,22.39,0,0,1-4.53.72l-.81,0v8.7l.81,0a22.79,22.79,0,0,1,4.55.72l.89.23.16-.9a24.39,24.39,0,0,0,.41-4.45,25.09,25.09,0,0,0-.43-4.42l-.16-.91Zm-16-1.07a12.21,12.21,0,0,0,0,12.36l.38.65.69-.3c.81-.35,1.67-.67,2.54-1l.71-.23-.14-.74a26.75,26.75,0,0,1-.45-4.57,25.91,25.91,0,0,1,.45-4.66l.13-.74-.71-.23c-.87-.28-1.72-.6-2.53-1l-.69-.29Zm20.13-.36c-.55.24-1.43.6-2.51,1l-.72.23.14.74a23.43,23.43,0,0,1,0,9.24l-.13.74.71.23c.86.28,1.7.6,2.49.94l.7.3.38-.65a12.21,12.21,0,0,0,0-12.36l-.39-.65Zm-10.45,11a22.73,22.73,0,0,0-4.49.72l-.81.21.2.82a33.55,33.55,0,0,0,1.59,5l.15.36.37.12a11.87,11.87,0,0,0,3,.6l.92.07v-7.91Zm.95,7.86.92-.07a12.34,12.34,0,0,0,3.06-.63l.36-.13.15-.36a36.18,36.18,0,0,0,1.56-4.92l.19-.81-.81-.21a22.43,22.43,0,0,0-4.53-.73l-.9,0Zm0,0a12.42,12.42,0,0,1-4.41-.81l-.71-2c-.36-1-.68-2.12-.93-3.18l-.22-.9-.88.29c-.7.23-1.38.48-2,.75l-1,.44.72.89a12.27,12.27,0,0,0,3.14,2.72l1.09.66a12.33,12.33,0,0,1,0-22.29l-1.09.67a12.06,12.06,0,0,0-3.11,2.7l-.73.89,1.06.43q1,.4,2,.75l.88.29.22-.9c.25-1.05.56-2.12.92-3.16l.7-2a12.4,12.4,0,0,1,8.87,0l.71,2c.37,1,.68,2.12.94,3.16l.22.9.87-.29q1-.35,2-.75l1.06-.43-.73-.89a12.34,12.34,0,0,0-3.12-2.71l-1.09-.67a12.35,12.35,0,0,1,.08,22.26l1.07-.67a12.29,12.29,0,0,0,3.06-2.67l.73-.89-1.06-.44c-.62-.26-1.29-.51-2-.74l-.88-.29-.22.9c-.24,1-.55,2.09-.9,3.13l-.7,2.06A12.41,12.41,0,0,1,967.86,128.58Z"/><path class="cls-6" d="M975.25,140.73a0,0,0,0,1,0,0,25.67,25.67,0,0,0,15.41-13,25.38,25.38,0,0,1-15.38,13Z"/><path class="cls-6" d="M960,140.59a25.72,25.72,0,0,1-15-13A25.89,25.89,0,0,0,960,140.54Z"/><path class="cls-6" d="M944.87,105.11a25.3,25.3,0,0,1,17.25-13.79,25.9,25.9,0,0,0-17.21,13.78Z"/><path class="cls-6" d="M990.47,104.36h0a25.46,25.46,0,0,0-16.93-13,25.32,25.32,0,0,1,17,13Z"/><ellipse class="cls-6" cx="1049.47" cy="112.98" rx="3.85" ry="3.83"/><path class="cls-6" d="M1055.63,123.8v-.86c0-4.6-2.82-6.13-5.54-6.13h-1.23c-2.72,0-5.55,1.53-5.55,6.13v.86"/><circle class="cls-6" cx="1049.47" cy="116.23" r="12.72"/><ellipse class="cls-6" cx="1029.67" cy="59.83" rx="2.13" ry="2.12"/><path class="cls-6" d="M1033.09,65.83v-.47c0-2.55-1.57-3.4-3.07-3.4h-.69c-1.51,0-3.07.85-3.07,3.4v.47"/><circle class="cls-6" cx="1029.67" cy="61.64" r="7.06"/><ellipse class="cls-6" cx="927.71" cy="44.05" rx="1.73" ry="1.72"/><path class="cls-6" d="M930.48,48.91v-.39A2.41,2.41,0,0,0,928,45.77h-.55c-1.23,0-2.49.69-2.49,2.75v.39"/><circle class="cls-6" cx="927.71" cy="45.51" r="5.72"/><ellipse class="cls-6" cx="869.51" cy="83.77" rx="3.2" ry="3.19"/><path class="cls-6" d="M874.63,92.78v-.72c0-3.82-2.35-5.1-4.61-5.1h-1c-2.26,0-4.61,1.28-4.61,5.1v.72"/><circle class="cls-6" cx="869.51" cy="86.48" r="10.59"/><ellipse class="cls-6" cx="894.71" cy="136.65" rx="2.4" ry="2.39"/><path class="cls-6" d="M898.55,143.4v-.54c0-2.86-1.76-3.82-3.45-3.82h-.77c-1.7,0-3.46,1-3.46,3.82v.54"/><circle class="cls-6" cx="894.71" cy="138.68" r="7.94"/><line class="cls-6" x1="884.31" y1="90.64" x2="923.31" y2="102.21"/><line class="cls-6" x1="906.44" y1="134.65" x2="923.15" y2="130.09"/><line class="cls-6" x1="931.58" y1="54.58" x2="944.24" y2="75.89"/><line class="cls-6" x1="1021.64" y1="68.83" x2="1002.94" y2="85.48"/><line class="cls-6" x1="1031.81" y1="116.23" x2="1013.94" y2="116.23"/><line class="cls-6" x1="922.49" y1="77.19" x2="910.45" y2="77.19"/><line class="cls-6" x1="916.44" y1="83.17" x2="916.44" y2="71.13"/><line class="cls-6" x1="1032.49" y1="89.9" x2="1022.59" y2="89.9"/><line class="cls-6" x1="1027.51" y1="94.82" x2="1027.51" y2="84.92"/><line class="cls-6" x1="910.83" y1="64.23" x2="904.27" y2="64.23"/><line class="cls-6" x1="907.53" y1="67.49" x2="907.53" y2="60.93"/></g></g></svg>