<svg xmlns="http://www.w3.org/2000/svg" xmlns:xlink="http://www.w3.org/1999/xlink" viewBox="0 0 1937.27 212.64"><defs><style>.cls-1{fill:#fff;}.cls-2,.cls-3,.cls-4,.cls-5,.cls-6{fill:none;stroke-width:1.6px;}.cls-2,.cls-3,.cls-4{stroke-miterlimit:10;}.cls-2{stroke:url(#무제_그라디언트_22);}.cls-3{stroke:url(#무제_그라디언트_22-2);}.cls-4{stroke:url(#무제_그라디언트_38);}.cls-5{stroke:#bdbfc1;}.cls-5,.cls-6{stroke-linecap:round;stroke-linejoin:round;}.cls-6{stroke:#2aa6d3;}</style><linearGradient id="무제_그라디언트_22" y1="150.93" x2="1922.23" y2="150.93" gradientUnits="userSpaceOnUse"><stop offset="0" stop-color="#fff"/><stop offset="0.1" stop-color="#f0f0f0"/><stop offset="0.24" stop-color="#e0e0e0"/><stop offset="0.35" stop-color="#dadada"/><stop offset="0.71" stop-color="#dadada"/><stop offset="0.8" stop-color="#e0e0e0"/><stop offset="0.93" stop-color="#f2f2f2"/><stop offset="1" stop-color="#fff"/></linearGradient><linearGradient id="무제_그라디언트_22-2" x1="0.16" y1="148.02" x2="1929.81" y2="148.02" xlink:href="#무제_그라디언트_22"/><linearGradient id="무제_그라디언트_38" x1="0.05" y1="145.56" x2="1937.27" y2="145.56" gradientUnits="userSpaceOnUse"><stop offset="0" stop-color="#fff"/><stop offset="0.07" stop-color="#cae9f4"/><stop offset="0.15" stop-color="#9ad5ea"/><stop offset="0.22" stop-color="#72c4e2"/><stop offset="0.3" stop-color="#52b7db"/><stop offset="0.37" stop-color="#3caed7"/><stop offset="0.44" stop-color="#2fa8d4"/><stop offset="0.5" stop-color="#2aa6d3"/><stop offset="0.59" stop-color="#2da7d4"/><stop offset="0.66" stop-color="#37abd6"/><stop offset="0.72" stop-color="#47b2d9"/><stop offset="0.78" stop-color="#5ebcde"/><stop offset="0.84" stop-color="#7cc8e4"/><stop offset="0.89" stop-color="#a1d8ec"/><stop offset="0.94" stop-color="#cceaf4"/><stop offset="0.99" stop-color="#fdfeff"/><stop offset="1" stop-color="#fff"/></linearGradient></defs><g id="레이어_2" data-name="레이어 2"><g id="레이어_1-2" data-name="레이어 1"><rect class="cls-1" width="1937.27" height="212.64"/><path id="패스_4625" data-name="패스 4625" class="cls-2" d="M0,161.27c187.92,0,222.24-31.37,309.47-29.59s216,40.85,369,38.48,267.25-25.57,447.07-18.59,332.54-45.25,517-3.55c9.7,2.54,88.23,22.24,129.58,19.54,26.48.17,59.06-6.48,93.89-6.64,15.08-.08,56.19,0,56.19,0"/><path id="패스_4624" data-name="패스 4624" class="cls-3" d="M.16,161.31c187.92,0,256.53-61.39,442.13-64.53S709.86,199.23,927.48,199.32s218.17-24.44,392.17-46.86,289.65-2.73,347.29,4.83c61.84,8.12,123.36,3.63,174.25,3.63h88.62"/><path id="패스_4623" data-name="패스 4623" class="cls-4" d="M.05,161.26c187.92,0,149.12-41.33,334.72-44.47S638,174.35,855.63,174.45s285.24-22.6,459.25-45,306.8.43,351.06,17.49,74.27,25.59,103.87,25.89c33.21.34,67.69-11.89,112.62-11.89h54.84"/><path class="cls-5" d="M1391.74,117.85a42.3,42.3,0,1,0-59.64,2.73"/><line class="cls-5" x1="1312.17" y1="61.82" x2="1300.67" y2="61.82"/><line class="cls-5" x1="1306.38" y1="67.54" x2="1306.38" y2="56.04"/><line class="cls-5" x1="1279.33" y1="109.17" x2="1272" y2="109.17"/><line class="cls-5" x1="1286.67" y1="104.43" x2="1272" y2="104.43"/><line class="cls-5" x1="1286.67" y1="99.69" x2="1279.33" y2="99.69"/><line class="cls-5" x1="1279.33" y1="113.91" x2="1272" y2="113.91"/><path class="cls-5" d="M1293.11,94.25h10.05a5.81,5.81,0,0,0-11.62,0v9.25"/><line class="cls-5" x1="1267.12" y1="103.5" x2="1267.12" y2="119.26"/><path class="cls-5" d="M1281.64,88.44h-8.7a5.82,5.82,0,0,0-5.82,5.81v4"/><line class="cls-5" x1="1297.35" y1="88.44" x2="1287.92" y2="88.44"/><path class="cls-5" d="M1278.39,119.26H1255.5a5.81,5.81,0,0,0,5.81,5.81h17.08"/><path class="cls-5" d="M1420.64,40.16l1.77.47a1.28,1.28,0,0,0,1.57-.9l.52-2a1.28,1.28,0,0,0-.9-1.57l-1.77-.47a8.69,8.69,0,0,0-1.16-4.3l1.3-1.3a1.28,1.28,0,0,0,0-1.81l-1.43-1.43a1.28,1.28,0,0,0-1.81,0l-1.3,1.29a8.79,8.79,0,0,0-4.3-1.15l-.47-1.77a1.28,1.28,0,0,0-1.57-.9l-2,.52a1.29,1.29,0,0,0-.91,1.57l.48,1.77a8.81,8.81,0,0,0-3.15,3.15l-1.77-.48a1.29,1.29,0,0,0-1.57.91l-.52,2a1.27,1.27,0,0,0,.9,1.56l1.77.48a8.72,8.72,0,0,0,1.16,4.3l-1.3,1.29a1.29,1.29,0,0,0,0,1.82l1.43,1.43a1.28,1.28,0,0,0,1.81,0l1.3-1.3a8.69,8.69,0,0,0,4.3,1.16l.47,1.76a1.29,1.29,0,0,0,1.57.91l2-.52a1.29,1.29,0,0,0,.91-1.57l-.48-1.78A8.78,8.78,0,0,0,1420.64,40.16Z"/><circle class="cls-5" cx="1413.1" cy="35.76" r="4.02" transform="translate(388.6 1009.68) rotate(-45)"/><line class="cls-6" x1="1294.58" y1="50.37" x2="1277.37" y2="50.37"/><line class="cls-6" x1="1285.93" y1="58.92" x2="1285.93" y2="41.71"/><line class="cls-6" x1="1320.34" y1="39.82" x2="1311.49" y2="39.82"/><line class="cls-6" x1="1315.89" y1="44.22" x2="1315.89" y2="35.36"/><line class="cls-6" x1="1443.02" y1="49.84" x2="1431.09" y2="49.84"/><line class="cls-6" x1="1437.02" y1="55.77" x2="1437.02" y2="43.84"/><path class="cls-6" d="M1360.6,68.76V64.54m-4.65,0h8.73m-15,29.89-8.39-17.55m-8.38,16.93,8.38-16.93,38.57-6.59m-29.55,24c0,3.81-4,6.9-9,6.9s-9-3.09-9-6.9Zm21.17-6.47,8.38-17.55m8.38,16.92-8.38-16.92m-9,17.45c0,3.81,4,6.89,9,6.89s9-3.08,9-6.89Zm-5.45-14.17a4.82,4.82,0,1,0-4.82,4.81A4.82,4.82,0,0,0,1365.38,73.57Zm-4.82,36.37V78.32M1372,116.11h0c0-2.93-1.76-5.33-3.92-5.33h-14.88c-2.16,0-3.93,2.4-3.93,5.33h0"/><polyline class="cls-6" points="1290.83 77.34 1295.97 77.34 1295.97 82.48"/><polyline class="cls-6" points="1295.97 77.34 1270.26 103.06 1260.86 96.5 1251.38 107.99"/><ellipse class="cls-6" cx="1292.74" cy="109.13" rx="9.74" ry="2.18"/><path class="cls-6" d="M1283,122.21c0,1.21,4.36,2.18,9.74,2.18s9.75-1,9.75-2.18v-4.36c0,1.2-4.37,2.18-9.75,2.18s-9.74-1-9.74-2.18Z"/><path class="cls-6" d="M1283,117.85c0,1.2,4.36,2.18,9.74,2.18s9.75-1,9.75-2.18v-4.36c0,1.2-4.37,2.18-9.75,2.18s-9.74-1-9.74-2.18Z"/><path class="cls-6" d="M1283,113.49c0,1.2,4.36,2.18,9.74,2.18s9.75-1,9.75-2.18v-4.36c0,1.2-4.37,2.18-9.75,2.18s-9.74-1-9.74-2.18Z"/><path class="cls-6" d="M1304.06,116.94c1,.07,2,.11,3,.11,5.39,0,9.75-1,9.75-2.18s-4.36-2.18-9.75-2.18c-1,0-2,0-3,.1"/><path class="cls-6" d="M1304.06,121.31c1,.06,2,.1,3,.1,5.39,0,9.75-1,9.75-2.18v-4.36c0,1.2-4.36,2.18-9.75,2.18-1,0-2,0-3-.11"/><path class="cls-6" d="M1397.55,33.65l.9-1a1,1,0,0,0-.11-1.36l-1.16-1a1,1,0,0,0-1.36.1l-.89,1.05a6.61,6.61,0,0,0-3.29-.61l-.46-1.3a1,1,0,0,0-1.23-.58l-1.44.5a1,1,0,0,0-.58,1.23l.46,1.3a6.54,6.54,0,0,0-2.18,2.55l-1.35-.25a1,1,0,0,0-1.13.77l-.27,1.5a1,1,0,0,0,.77,1.12l1.35.25A6.62,6.62,0,0,0,1386.7,41l-.9,1.05a1,1,0,0,0,.11,1.36l1.16,1a1,1,0,0,0,1.36-.11l.89-1a6.47,6.47,0,0,0,3.29.6l.46,1.3a1,1,0,0,0,1.23.59l1.44-.51a1,1,0,0,0,.58-1.23l-.46-1.3A6.44,6.44,0,0,0,1398,40.2l1.35.25a1,1,0,0,0,1.12-.77l.28-1.5a1,1,0,0,0-.77-1.12l-1.36-.25A6.64,6.64,0,0,0,1397.55,33.65Z"/><path class="cls-6" d="M1393.88,35.59a2.49,2.49,0,1,0,0,3.52A2.48,2.48,0,0,0,1393.88,35.59Z"/><path class="cls-6" d="M1417.23,60.2l1.33.35a1,1,0,0,0,1.18-.68l.4-1.47a1,1,0,0,0-.68-1.18l-1.33-.36a6.69,6.69,0,0,0-.87-3.23l1-1a1,1,0,0,0,0-1.36l-1.07-1.08a1,1,0,0,0-1.37,0l-1,1a6.66,6.66,0,0,0-3.23-.87l-.36-1.32a1,1,0,0,0-1.18-.69l-1.47.4a1,1,0,0,0-.68,1.18l.36,1.33a6.57,6.57,0,0,0-2.37,2.37l-1.33-.36a1,1,0,0,0-1.18.68l-.4,1.47a1,1,0,0,0,.68,1.18l1.33.36a6.66,6.66,0,0,0,.87,3.23l-1,1a1,1,0,0,0,0,1.37l1.08,1.07a1,1,0,0,0,1.36,0l1-1a6.69,6.69,0,0,0,3.23.87l.36,1.33a1,1,0,0,0,1.18.68l1.47-.4a1,1,0,0,0,.68-1.18l-.35-1.33A6.67,6.67,0,0,0,1417.23,60.2Z"/><path class="cls-6" d="M1413.32,55.13a2.49,2.49,0,1,0,0,3.52A2.49,2.49,0,0,0,1413.32,55.13Z"/><path class="cls-6" d="M1429.25,85.73a.2.2,0,0,0-.2-.2.2.2,0,0,0,0,.4A.2.2,0,0,0,1429.25,85.73Z"/><path class="cls-6" d="M1452.41,86a.2.2,0,1,0-.2.2A.2.2,0,0,0,1452.41,86Z"/><circle class="cls-6" cx="1429.05" cy="85.73" r="3.04" transform="translate(805.71 1374.52) rotate(-67.62)"/><circle class="cls-6" cx="1452.21" cy="85.99" r="3.04" transform="translate(4.91 233.11) rotate(-9.19)"/><circle class="cls-6" cx="1440.63" cy="92.32" r="1.83"/><path class="cls-6" d="M1419.3,93.1a1.83,1.83,0,1,0-1.82,1.82A1.83,1.83,0,0,0,1419.3,93.1Z"/><line class="cls-6" x1="1418.84" y1="91.89" x2="1426.44" y2="87.28"/><line class="cls-6" x1="1431.85" y1="86.91" x2="1438.81" y2="91.27"/><line class="cls-6" x1="1442.24" y1="91.45" x2="1449.47" y2="87.3"/><polyline class="cls-5" points="1421.17 113.71 1421.17 100.01 1413.79 100.01 1413.79 113.71"/><polyline class="cls-5" points="1455.9 113.71 1455.9 92.9 1448.52 92.9 1448.52 113.71"/><polyline class="cls-5" points="1432.74 113.71 1432.74 92.64 1425.36 92.64 1425.36 113.71"/><polyline class="cls-5" points="1444.32 113.71 1444.32 99.23 1436.94 99.23 1436.94 113.71"/></g></g></svg>