<svg xmlns="http://www.w3.org/2000/svg" xmlns:xlink="http://www.w3.org/1999/xlink" viewBox="0 0 1937.27 212.64"><defs><style>.cls-1{fill:#fff;}.cls-2,.cls-3,.cls-4,.cls-5,.cls-6{fill:none;}.cls-2,.cls-3,.cls-4{stroke-miterlimit:10;}.cls-2,.cls-3,.cls-5,.cls-6{stroke-width:1.6px;}.cls-2{stroke:url(#무제_그라디언트_22);}.cls-3{stroke:url(#무제_그라디언트_22-2);}.cls-4{stroke-width:2px;stroke:url(#무제_그라디언트_49);}.cls-5{stroke:#bdbfc1;}.cls-5,.cls-6{stroke-linecap:round;stroke-linejoin:round;}.cls-6{stroke:#56b760;}</style><linearGradient id="무제_그라디언트_22" y1="150.93" x2="1922.23" y2="150.93" gradientUnits="userSpaceOnUse"><stop offset="0" stop-color="#fff"/><stop offset="0.1" stop-color="#f0f0f0"/><stop offset="0.24" stop-color="#e0e0e0"/><stop offset="0.35" stop-color="#dadada"/><stop offset="0.71" stop-color="#dadada"/><stop offset="0.8" stop-color="#e0e0e0"/><stop offset="0.93" stop-color="#f2f2f2"/><stop offset="1" stop-color="#fff"/></linearGradient><linearGradient id="무제_그라디언트_22-2" x1="0.05" y1="145.56" x2="1937.27" y2="145.56" xlink:href="#무제_그라디언트_22"/><linearGradient id="무제_그라디언트_49" x1="0.16" y1="148.02" x2="1929.81" y2="148.02" gradientUnits="userSpaceOnUse"><stop offset="0" stop-color="#fff"/><stop offset="0.07" stop-color="#dbf0dd"/><stop offset="0.17" stop-color="#acdcb1"/><stop offset="0.27" stop-color="#87cc8e"/><stop offset="0.36" stop-color="#6cc075"/><stop offset="0.44" stop-color="#5cb965"/><stop offset="0.51" stop-color="#56b760"/><stop offset="0.58" stop-color="#5ab964"/><stop offset="0.66" stop-color="#66be6f"/><stop offset="0.73" stop-color="#7ac682"/><stop offset="0.81" stop-color="#96d29c"/><stop offset="0.89" stop-color="#bae2be"/><stop offset="0.96" stop-color="#e6f4e7"/><stop offset="1" stop-color="#fff"/></linearGradient></defs><g id="레이어_2" data-name="레이어 2"><g id="레이어_1-2" data-name="레이어 1"><rect class="cls-1" width="1937.27" height="212.64"/><path id="패스_4625" data-name="패스 4625" class="cls-2" d="M0,161.27c187.92,0,222.24-31.37,309.47-29.59s216,40.85,369,38.48,267.25-25.57,447.07-18.59,332.54-45.25,517-3.55c9.7,2.54,88.23,22.24,129.58,19.54,26.48.17,59.06-6.48,93.89-6.64,15.08-.08,56.19,0,56.19,0"/><path id="패스_4623" data-name="패스 4623" class="cls-3" d="M.05,161.26c187.92,0,149.12-41.33,334.72-44.47S638,174.35,855.63,174.45s285.24-22.6,459.25-45,306.8.43,351.06,17.49,74.27,25.59,103.87,25.89c33.21.34,67.69-11.89,112.62-11.89h54.84"/><path id="패스_4624" data-name="패스 4624" class="cls-4" d="M.16,161.31c187.92,0,256.53-61.39,442.13-64.53S709.86,199.23,927.48,199.32s218.17-24.44,392.17-46.86,289.65-2.73,347.29,4.83c61.84,8.12,123.36,3.63,174.25,3.63h88.62"/><path class="cls-5" d="M535.48,96.75A45.82,45.82,0,1,1,600.81,115"/><path class="cls-5" d="M490,78.32c0,3.38-2.15,6-4.21,6s-4.68-2.74-4.68-6.12,2.63-10,4.68-10S490,74.94,490,78.32Z"/><line class="cls-5" x1="485.71" y1="90.25" x2="485.71" y2="80.74"/><path class="cls-5" d="M475.86,81.78c0,2.15-1.58,3.8-3.08,3.8a4,4,0,0,1-3.44-3.9c0-2.15,1.93-6.39,3.44-6.39S475.86,79.63,475.86,81.78Z"/><line class="cls-5" x1="472.64" y1="89.28" x2="472.64" y2="83.58"/><polygon class="cls-6" points="656.03 119.94 625.12 119.94 630.19 101.03 661.1 101.03 656.03 119.94"/><polygon class="cls-6" points="657.69 113.75 626.78 113.75 628.48 107.42 659.39 107.42 657.69 113.75"/><polygon class="cls-6" points="637.57 119.94 631.35 119.94 636.42 101.03 642.64 101.03 637.57 119.94"/><polygon class="cls-6" points="650.01 119.94 643.79 119.94 648.86 101.03 655.07 101.03 650.01 119.94"/><polyline class="cls-6" points="662.02 110.48 680.3 110.48 675.23 129.39 650.55 129.39"/><polyline class="cls-6" points="660.25 116.87 678.59 116.87 676.89 123.2 652.32 123.2"/><polyline class="cls-6" points="662.02 110.48 656.77 129.39 650.55 129.39 652.32 123.2"/><polygon class="cls-6" points="669.21 129.39 662.99 129.39 668.05 110.48 674.27 110.48 669.21 129.39"/><line class="cls-6" x1="662.99" y1="129.3" x2="662.99" y2="136.84"/><line class="cls-6" x1="640.59" y1="120.36" x2="640.59" y2="128.77"/><path class="cls-6" d="M554.44,88.65s1.56,3.91,7,9.56c3.75,3.91,7.64,3.54,7.64,3.54"/><path class="cls-6" d="M599.48,79.4a34.36,34.36,0,0,0-3.05,4.72c-1.6,2.94-4.09,4-5.62,6.48a7.52,7.52,0,0,0-1,5.56c.89,3.22,4.43,3.08,7,2.24,7.32-2.36,7.64-10.68,4.34-16.47-.26-.46-.53-.9-.83-1.33A8.36,8.36,0,0,0,599.48,79.4Z"/><path class="cls-6" d="M598.46,88.65s-1.56,3.91-7,9.56c-3.75,3.91-7.64,3.54-7.64,3.54"/><ellipse class="cls-6" cx="576.45" cy="71.59" rx="12.52" ry="22.59"/><line class="cls-6" x1="568.82" y1="71.59" x2="599.04" y2="71.59"/><line class="cls-6" x1="576.45" y1="49" x2="576.45" y2="81.6"/><path class="cls-6" d="M561.79,54.41a22.57,22.57,0,0,0,29.32,0"/><path class="cls-6" d="M551.82,81.75l-.1.18c-3.29,5.79-3,14.11,4.35,16.47,2.59.84,6.13,1,7-2.24a5.53,5.53,0,0,0,.18-1.42"/><path class="cls-6" d="M588.52,86.86a22.57,22.57,0,0,0-26.73,1.91"/><path class="cls-6" d="M599,73.11c0-.51.06-1,.06-1.52a22.61,22.61,0,1,0-13.16,20.52"/><line class="cls-6" x1="553.86" y1="71.59" x2="568.82" y2="71.59"/><line class="cls-6" x1="576.45" y1="81.6" x2="576.45" y2="94.18"/><line class="cls-6" x1="527.65" y1="41.59" x2="513.7" y2="41.59"/><line class="cls-6" x1="520.66" y1="48.55" x2="520.66" y2="34.6"/><line class="cls-5" x1="657.22" y1="76.82" x2="668.11" y2="76.82"/><line class="cls-5" x1="662.73" y1="71.32" x2="662.73" y2="82.21"/><line class="cls-5" x1="642.03" y1="86.83" x2="648.72" y2="86.83"/><line class="cls-5" x1="645.41" y1="83.46" x2="645.41" y2="90.15"/><line class="cls-6" x1="542.39" y1="27.1" x2="532.49" y2="27.1"/><line class="cls-6" x1="537.41" y1="32.03" x2="537.41" y2="22.12"/><line class="cls-6" x1="527.1" y1="16.81" x2="520.54" y2="16.81"/><line class="cls-6" x1="523.8" y1="20.07" x2="523.8" y2="13.51"/><path class="cls-5" d="M642.6,53.36V49.73m0,19.52V65.62m-5.94-6.13h-3.6m19.26,0h-3.6"/><ellipse class="cls-5" cx="642.69" cy="59.49" rx="4.2" ry="4.26"/><path class="cls-5" d="M647,55.09l2.24-2.24.32-.32m-13.8,13.8L638,64.08l.32-.32m.14-8.53L636.2,53l-.32-.32M649.5,66.3l-2.23-2.23-.32-.32"/><path class="cls-6" d="M508,66.56a1.75,1.75,0,1,0-1.75-1.75A1.75,1.75,0,0,0,508,66.56"/><line class="cls-6" x1="505.79" y1="91.86" x2="506.34" y2="75.15"/><polyline class="cls-6" points="511.17 66.01 524.91 67.37 525.22 65.26 510.5 61.21 509.89 61.97"/><polyline class="cls-6" points="507.4 61.21 500.68 49 498.77 49.95 503.77 64.37 504.62 64.45"/><polyline class="cls-6" points="505.12 66.9 498.04 78.37 499.8 79.57 509.89 68.12 509.71 67.73"/><line class="cls-6" x1="509.55" y1="72.26" x2="510.25" y2="92.14"/></g></g></svg>