<svg xmlns="http://www.w3.org/2000/svg" xmlns:xlink="http://www.w3.org/1999/xlink" width="1937.271" height="119.186" viewBox="0 0 1937.271 119.186">
  <defs>
    <linearGradient id="linear-gradient" y1="0.5" x2="1" y2="0.5" gradientUnits="objectBoundingBox">
      <stop offset="0" stop-color="#b6b6b6"/>
      <stop offset="0.059" stop-color="#99b2bb"/>
      <stop offset="0.153" stop-color="#71aec4"/>
      <stop offset="0.245" stop-color="#52aaca"/>
      <stop offset="0.335" stop-color="#3ba8cf"/>
      <stop offset="0.421" stop-color="#2ea6d2"/>
      <stop offset="0.497" stop-color="#2aa6d3"/>
      <stop offset="0.606" stop-color="#2da6d2"/>
      <stop offset="0.689" stop-color="#36a7d0"/>
      <stop offset="0.764" stop-color="#47a9cc"/>
      <stop offset="0.834" stop-color="#5eabc8"/>
      <stop offset="0.9" stop-color="#7bafc2"/>
      <stop offset="0.963" stop-color="#a0b3ba"/>
      <stop offset="0.996" stop-color="#b6b6b6"/>
    </linearGradient>
  </defs>
  <g id="그룹_3826" data-name="그룹 3826" transform="translate(16972 -3539.621)">
    <g id="그룹_3821" data-name="그룹 3821" transform="translate(-14599.689 4146.611)">
      <g id="패스_4625" data-name="패스 4625">
        <path id="패스_4962" data-name="패스 4962" d="M-619.569-514.313c-15.781,0-42.793-8.427-59.112-13.518-4.323-1.348-7.737-2.414-9.772-2.946-144.957-37.992-260.024-26.221-371.3-14.839-63.121,6.457-122.737,12.557-187.006,10.062-107.287-4.166-192.035,2.478-273.994,8.9-54.737,4.29-111.337,8.726-173.051,9.684-91.465,1.418-172.855-11.734-244.673-23.338-47.912-7.742-89.29-14.428-124.375-15.144-36.4-.743-62.954,4.182-96.585,10.417-46.078,8.543-103.424,19.175-212.873,19.175v-1.2c109.339,0,166.624-10.621,212.654-19.155,33.7-6.247,60.309-11.18,96.828-10.437,35.169.717,76.586,7.41,124.543,15.159,71.77,11.6,153.1,24.749,244.462,23.323,61.676-.957,118.257-5.391,172.976-9.68,81.993-6.427,166.777-13.074,274.135-8.9,64.183,2.489,123.76-3.6,186.837-10.056,111.385-11.394,226.563-23.175,371.728,14.871,2.061.54,5.486,1.609,9.824,2.962,15.615,4.871,44.721,13.952,60.053,13.442,12.548.042,28.446-2.555,45.295-5.346,19.122-3.167,38.9-6.443,57.248-6.532,14.916-.071,65.138,0,65.643,0l0,1.2c-.505,0-50.722-.072-65.635,0-18.258.088-37.982,3.355-57.058,6.515-16.646,2.757-32.383,5.364-44.9,5.364l-.57,0Q-618.9-514.313-619.569-514.313Z" fill="#b6b6b6"/>
      </g>
      <g id="패스_4624" data-name="패스 4624">
        <path id="패스_4963" data-name="패스 4963" d="M-1443.568-487.8h-1.262c-111.989-.05-187.642-27.843-260.8-54.722-69.069-25.374-134.314-49.356-224.374-47.818-90.8,1.536-154.478,17.246-216.064,32.438-63.952,15.776-130.082,32.089-226.076,32.089v-1.2c95.849,0,161.906-16.295,225.789-32.054,61.651-15.208,125.4-30.934,216.33-32.472,90.284-1.516,155.633,22.477,224.808,47.891,73.063,26.842,148.615,54.6,260.39,54.648h1.263c139.805,0,190.314-10.375,254.213-23.5,35.244-7.239,75.191-15.444,136.618-23.358a1301.712,1301.712,0,0,1,233.006-8.533c65.721,3.568,115.14,11.57,139.475,17.869,44.674,11.562,87.6,5.558,116.012,1.584,9.854-1.378,17.637-2.467,23.061-2.467h98.68v1.2h-98.68c-5.341,0-13.087,1.083-22.9,2.455-28.5,3.987-71.575,10.01-116.479-1.611-24.278-6.284-73.607-14.269-139.239-17.833a1301.75,1301.75,0,0,0-232.787,8.526c-61.383,7.908-101.307,16.108-136.531,23.342C-1253.075-498.19-1303.662-487.8-1443.568-487.8Z" fill="#b6b6b6"/>
      </g>
      <g id="패스_4623" data-name="패스 4623">
        <path id="패스_4964" data-name="패스 4964" d="M-1515.3-512.682h-1.389c-110.756-.049-195.118-15.692-276.7-30.821-78.691-14.592-153.016-28.38-244.147-26.833-91.037,1.54-128.292,12.351-164.32,22.806-38.4,11.142-74.661,21.667-170.409,21.667v-1.2c95.577,0,131.764-10.5,170.074-21.619,36.1-10.477,73.438-21.312,164.636-22.854,91.252-1.535,165.633,12.25,244.385,26.853,81.532,15.119,165.839,30.752,276.484,30.8h1.39c158.646,0,237.131-12.121,336.442-27.457,36.849-5.69,74.951-11.574,121.342-17.551,76.34-9.835,153.9-11.931,224.313-6.063,52.612,4.385,100.1,13.2,127.044,23.582,44.636,17.2,63.272,18.993,92.537,18.768a248.372,248.372,0,0,0,29.995-2.057,370.85,370.85,0,0,1,49.019-2.747h99.564v1.2H-534.6a369.915,369.915,0,0,0-48.882,2.738,249.213,249.213,0,0,1-30.123,2.065c-29.4.21-48.148-1.573-92.977-18.847-33.884-13.059-162.953-41.648-350.773-17.449-46.375,5.974-84.471,11.857-121.312,17.546C-1278.026-524.809-1356.577-512.682-1515.3-512.682Z" fill="url(#linear-gradient)"/>
      </g>
    </g>
    <g id="그룹_3805" data-name="그룹 3805" transform="translate(-14965.212 4151.557)">
      <g id="그룹_3808" data-name="그룹 3808">
        <g id="그룹_2949" data-name="그룹 2949">
          <g id="패스_697" data-name="패스 697">
            <path id="패스_4949" data-name="패스 4949" d="M-1032.152-592.432c-.434,0-.855,0-1.269-.01l.019-1.3c.406.006.822.011,1.25.011Z" fill="#2aa6d3"/>
          </g>
          <g id="패스_698" data-name="패스 698">
            <path id="패스_4950" data-name="패스 4950" d="M-1038.282-592.71c-9.377-.959-11.26-4.337-11.26-9.476s1.331-9.75,17.4-9.75v1.3c-16.095,0-16.095,4.685-16.095,8.45,0,3.912.759,7.229,10.093,8.183Z" fill="#2aa6d3"/>
          </g>
          <g id="패스_699" data-name="패스 699">
            <path id="패스_4951" data-name="패스 4951" d="M-1032.141-592.432l-.02-1.3c8.467-.125,13.271-1.3,15.117-3.694,1.508-1.958,1.19-4.818.13-9.1l1.261-.312c.962,3.879,1.658,7.579-.362,10.2C-1018.151-593.859-1023.124-592.564-1032.141-592.432Z" fill="#2aa6d3"/>
          </g>
          <g id="패스_700" data-name="패스 700">
            <path id="패스_4952" data-name="패스 4952" d="M-1016.854-606.364c-1-1.834-3.683-4.272-15.3-4.272v-1.3c9.494,0,14.564,1.526,16.438,4.948Z" fill="#2aa6d3"/>
          </g>
          <g id="패스_701" data-name="패스 701">
            <path id="패스_4953" data-name="패스 4953" d="M-1021.859-585.882l-7.1-3.707.6-1.152,4.061,2.119-.555-1.446,1.215-.465Z" fill="#2aa6d3"/>
          </g>
          <g id="패스_702" data-name="패스 702">
            <path id="패스_4954" data-name="패스 4954" d="M-1024.2-589.657l-.086-1.3c10.842-.716,11.724-4.19,11.724-8.317,0-3.231-.649-5.382-3.972-6.808l.513-1.194c4.392,1.885,4.76,5.119,4.76,8C-1011.266-593.863-1013.431-590.368-1024.2-589.657Z" fill="#2aa6d3"/>
          </g>
          <g id="패스_703" data-name="패스 703">
            <path id="패스_4955" data-name="패스 4955" d="M-1041.144-587.943l2.324-5.658,1.2.494-.891,2.167,4.775-2.718.643,1.13Z" fill="#2aa6d3"/>
          </g>
          <g id="패스_704" data-name="패스 704">
            <path id="패스_4956" data-name="패스 4956" d="M-1043.03-578.447a4.8,4.8,0,0,1-2.409-.631,4.009,4.009,0,0,1-2-3.682,4,4,0,0,1,2-3.663,4.911,4.911,0,0,1,4.818,0,4,4,0,0,1,2,3.672,4.006,4.006,0,0,1-2,3.672A4.792,4.792,0,0,1-1043.03-578.447Zm0-7.3a3.509,3.509,0,0,0-1.754.452,2.706,2.706,0,0,0-1.351,2.54,2.717,2.717,0,0,0,1.35,2.559,3.628,3.628,0,0,0,3.508,0,2.707,2.707,0,0,0,1.351-2.54v-.019a2.71,2.71,0,0,0-1.35-2.54A3.509,3.509,0,0,0-1043.029-585.752Z" fill="#2aa6d3"/>
          </g>
          <g id="패스_705" data-name="패스 705">
            <path id="패스_4957" data-name="패스 4957" d="M-1052.035-563.178l-1.291-.159c.062-.5,1.554-12.244,5.7-15.47a3.7,3.7,0,0,1,2.8-.835c3.855.041,4.842,3.448,5.563,5.936.146.505.288,1,.447,1.443.282.364,1.38.426,2.268.477,1.67.1,3.957.225,3.93,2.466a1.917,1.917,0,0,1-.562,1.487c-1.029,1.009-3.133.872-4.993.752a8.919,8.919,0,0,0-1.847-.022l-.11.018c-2.741.213-3.718-2.722-4.432-4.863a15.285,15.285,0,0,0-.56-1.516l1.178-.552a16.115,16.115,0,0,1,.615,1.657c.77,2.307,1.49,4.062,3.053,3.981a9.214,9.214,0,0,1,2.188,0c1.348.088,3.383.221,4-.382a.634.634,0,0,0,.174-.536c.009-.886-.7-1.077-2.7-1.191-1.354-.077-2.753-.157-3.339-1.152l-.052-.108c-.178-.492-.336-1.035-.5-1.6-.708-2.442-1.44-4.967-4.4-5a2.47,2.47,0,0,0-1.912.566C-1050.549-574.886-1052.021-563.294-1052.035-563.178Z" fill="#2aa6d3"/>
          </g>
          <g id="선_93" data-name="선 93">
            <rect id="사각형_421" data-name="사각형 421" width="4.567" height="1.301" transform="matrix(0.164, -0.987, 0.987, 0.164, -1044.419, -564.835)" fill="#2aa6d3"/>
          </g>
          <g id="선_94" data-name="선 94">
            <rect id="사각형_422" data-name="사각형 422" width="1.3" height="3.336" transform="translate(-1018.306 -569.104) rotate(-11.566)" fill="#2aa6d3"/>
          </g>
          <g id="선_95" data-name="선 95">
            <rect id="사각형_423" data-name="사각형 423" width="7.881" height="1.3" transform="translate(-1037.743 -568.568)" fill="#2aa6d3"/>
          </g>
          <g id="패스_706" data-name="패스 706">
            <path id="패스_4958" data-name="패스 4958" d="M-1017.5-578.447a4.8,4.8,0,0,1-2.409-.631,4.007,4.007,0,0,1-2-3.672,4.006,4.006,0,0,1,1.993-3.672,4.911,4.911,0,0,1,4.818,0,4.01,4.01,0,0,1,2,3.683,4,4,0,0,1-2,3.663A4.8,4.8,0,0,1-1017.5-578.447Zm0-7.3a3.508,3.508,0,0,0-1.755.452,2.707,2.707,0,0,0-1.348,2.54v.019a2.708,2.708,0,0,0,1.351,2.54,3.626,3.626,0,0,0,3.507,0,2.708,2.708,0,0,0,1.351-2.54,2.723,2.723,0,0,0-1.354-2.56A3.5,3.5,0,0,0-1017.5-585.752Z" fill="#2aa6d3"/>
          </g>
          <g id="패스_707" data-name="패스 707">
            <path id="패스_4959" data-name="패스 4959" d="M-1030.26-578.447a4.788,4.788,0,0,1-2.408-.631,4,4,0,0,1-2-3.672,4,4,0,0,1,1.993-3.672,4.909,4.909,0,0,1,4.817,0,4.008,4.008,0,0,1,2,3.683,4,4,0,0,1-1.995,3.663A4.808,4.808,0,0,1-1030.26-578.447Zm0-7.3a3.507,3.507,0,0,0-1.754.452,2.706,2.706,0,0,0-1.349,2.54v.019a2.706,2.706,0,0,0,1.352,2.54,3.624,3.624,0,0,0,3.506,0,2.705,2.705,0,0,0,1.35-2.54,2.721,2.721,0,0,0-1.353-2.56A3.512,3.512,0,0,0-1030.262-585.752Z" fill="#2aa6d3"/>
          </g>
          <g id="패스_708" data-name="패스 708">
            <path id="패스_4960" data-name="패스 4960" d="M-1024.266-567a4.4,4.4,0,0,1-3.082-.835,1.946,1.946,0,0,1-.562-1.526c-.028-2.2,2.259-2.332,3.93-2.427.888-.051,1.985-.113,2.268-.476.158-.447.3-.938.446-1.443.721-2.488,1.708-5.9,5.637-5.942a4.08,4.08,0,0,1,3.157.956c3.541,2.862,4.29,11.2,4.32,11.55l-1.3.111c-.007-.082-.732-8.137-3.842-10.651a2.853,2.853,0,0,0-2.25-.671c-3.04.04-3.771,2.565-4.478,5.008-.163.561-.32,1.1-.5,1.595l-.052.109c-.586.995-1.986,1.075-3.34,1.152-2,.114-2.714.3-2.7,1.152a.674.674,0,0,0,.173.575c.613.6,2.649.47,4,.382a9.055,9.055,0,0,1,2.188,0c1.575.087,2.283-1.675,3.052-3.983a16.274,16.274,0,0,1,.615-1.655l1.177.552a15.238,15.238,0,0,0-.558,1.514c-.714,2.142-1.707,5.077-4.432,4.865l-.11-.018a8.92,8.92,0,0,0-1.847.022C-1022.981-567.041-1023.635-567-1024.266-567Z" fill="#2aa6d3"/>
          </g>
          <g id="선_96" data-name="선 96">
            <rect id="사각형_424" data-name="사각형 424" width="7.094" height="1.3" transform="translate(-1029.862 -568.568)" fill="#2aa6d3"/>
          </g>
          <g id="패스_709" data-name="패스 709">
            <path id="패스_4961" data-name="패스 4961" d="M-1023.615-571.381l-1.283-.213c.424-2.549-.332-4.6-2.129-5.773a6.161,6.161,0,0,0-6.472,0c-1.8,1.173-2.554,3.224-2.13,5.775l-1.284.213c-.5-3.047.481-5.626,2.7-7.076a7.411,7.411,0,0,1,7.894,0C-1024.094-577-1023.11-574.426-1023.615-571.381Z" fill="#2aa6d3"/>
          </g>
        </g>
      </g>
    </g>
  </g>
</svg>
