<svg xmlns="http://www.w3.org/2000/svg" xmlns:xlink="http://www.w3.org/1999/xlink" viewBox="0 0 1937.27 103.81"><defs><style>.cls-1,.cls-2,.cls-3{fill:none;stroke-miterlimit:10;stroke-width:1.2px;}.cls-1{stroke:url(#무제_그라디언트_73);}.cls-2{stroke:url(#무제_그라디언트_69);}.cls-3{stroke:url(#무제_그라디언트_78);}</style><linearGradient id="무제_그라디언트_73" y1="55.49" x2="1922.23" y2="55.49" gradientUnits="userSpaceOnUse"><stop offset="0" stop-color="#b6b6b6"/><stop offset="0.02" stop-color="#b8b3af"/><stop offset="0.14" stop-color="#c7a07f"/><stop offset="0.25" stop-color="#d39159"/><stop offset="0.35" stop-color="#dc873e"/><stop offset="0.45" stop-color="#e1802e"/><stop offset="0.52" stop-color="#e37e28"/><stop offset="0.58" stop-color="#e18130"/><stop offset="0.67" stop-color="#da8944"/><stop offset="0.79" stop-color="#cf9767"/><stop offset="0.92" stop-color="#c0a996"/><stop offset="1" stop-color="#b6b6b6"/></linearGradient><linearGradient id="무제_그라디언트_69" x1="0.16" y1="51.9" x2="1929.81" y2="51.9" gradientUnits="userSpaceOnUse"><stop offset="0" stop-color="#b6b6b6"/><stop offset="0.03" stop-color="#acb6ad"/><stop offset="0.17" stop-color="#87b68c"/><stop offset="0.3" stop-color="#6cb774"/><stop offset="0.42" stop-color="#5cb765"/><stop offset="0.51" stop-color="#56b760"/><stop offset="0.61" stop-color="#5ab764"/><stop offset="0.71" stop-color="#66b76e"/><stop offset="0.81" stop-color="#7ab780"/><stop offset="0.91" stop-color="#96b699"/><stop offset="1" stop-color="#b6b6b6"/></linearGradient><linearGradient id="무제_그라디언트_78" x1="0.05" y1="49.44" x2="1937.27" y2="49.44" gradientUnits="userSpaceOnUse"><stop offset="0" stop-color="#b6b6b6"/><stop offset="0.06" stop-color="#99b3bc"/><stop offset="0.15" stop-color="#71aec4"/><stop offset="0.25" stop-color="#52abcb"/><stop offset="0.34" stop-color="#3ca8cf"/><stop offset="0.42" stop-color="#2fa7d2"/><stop offset="0.5" stop-color="#2aa6d3"/><stop offset="0.61" stop-color="#2da6d2"/><stop offset="0.69" stop-color="#37a7d0"/><stop offset="0.76" stop-color="#47a9cd"/><stop offset="0.83" stop-color="#5eacc8"/><stop offset="0.9" stop-color="#7cafc2"/><stop offset="0.96" stop-color="#a0b3bb"/><stop offset="1" stop-color="#b6b6b6"/></linearGradient></defs><g id="레이어_2" data-name="레이어 2"><g id="레이어_1-2" data-name="레이어 1"><path id="패스_4625" data-name="패스 4625" class="cls-1" d="M0,65.15c187.92,0,222.24-31.37,309.47-29.59s216,40.86,369,38.48,267.25-25.56,447.07-18.58S1458.36,1.11,1684,60.25c9.7,2.55,50.43,17.06,70,16.43,26.48.17,67.71-11.71,102.53-11.88,15.08-.07,65.63,0,65.63,0"/><path id="패스_4624" data-name="패스 4624" class="cls-2" d="M.16,65.19C188.08,65.19,256.69,3.81,442.29.67S709.86,103.11,927.48,103.21s218.17-24.45,392.17-46.86,323-3.44,372.25,9.32c60.38,15.63,118.38-.87,139.23-.87h98.68"/><path id="패스_4623" data-name="패스 4623" class="cls-3" d="M.05,65.15c187.92,0,149.12-41.33,334.72-44.47S638,78.23,855.63,78.33s285.24-22.59,459.25-45,306.8.43,351.06,17.48,63.16,19,92.76,18.81,34.07-4.8,79-4.8h99.56"/></g></g></svg>