<svg xmlns="http://www.w3.org/2000/svg" width="66.118" height="95.188" viewBox="0 0 66.118 95.188">
  <g id="그룹_3817" data-name="그룹 3817" transform="translate(61.074 2384.353)">
    <path id="패스_4966" data-name="패스 4966" d="M-17.645-2351.325v-23.532a4.123,4.123,0,0,0,4.123-4.123,4.123,4.123,0,0,0-4.123-4.123H-38.486a4.123,4.123,0,0,0-4.124,4.123,4.123,4.123,0,0,0,4.124,4.123v23.532a31.353,31.353,0,0,0-20.925,29.565,31.345,31.345,0,0,0,31.345,31.345A31.345,31.345,0,0,0,3.279-2321.76,31.354,31.354,0,0,0-17.645-2351.325Z" fill="#fff" stroke="#df1c2f" stroke-linecap="round" stroke-linejoin="round" stroke-width="2.5"/>
    <path id="패스_4967" data-name="패스 4967" d="M-59.317-2319.341a13.219,13.219,0,0,1,7.4-4.162c7.066-1.34,8.816,3.921,15.471,3.6,5.728-.276,7.141-6.761,15.039-6.262s9.04,7.77,16.544,7.815a11.537,11.537,0,0,0,8.147-3.412" fill="#fff" stroke="#df1c2f" stroke-linecap="round" stroke-linejoin="round" stroke-width="2.5"/>
    <circle id="타원_71" data-name="타원 71" cx="2.851" cy="2.851" r="2.851" transform="translate(-49.618 -2315.493)" fill="#fff" stroke="#df1c2f" stroke-linecap="round" stroke-linejoin="round" stroke-width="2.5"/>
    <circle id="타원_72" data-name="타원 72" cx="4.269" cy="4.269" r="4.269" transform="translate(-34.468 -2308.184)" fill="#fff" stroke="#df1c2f" stroke-linecap="round" stroke-linejoin="round" stroke-width="2.5"/>
    <circle id="타원_73" data-name="타원 73" cx="2.846" cy="2.846" r="2.846" transform="translate(-15.056 -2311.735)" fill="#fff" stroke="#df1c2f" stroke-linecap="round" stroke-linejoin="round" stroke-width="2.5"/>
  </g>
</svg>
