<svg xmlns="http://www.w3.org/2000/svg" xmlns:xlink="http://www.w3.org/1999/xlink" width="1937.271" height="133.345" viewBox="0 0 1937.271 133.345">
  <defs>
    <linearGradient id="linear-gradient" y1="0.5" x2="1" y2="0.5" gradientUnits="objectBoundingBox">
      <stop offset="0" stop-color="#b6b6b6"/>
      <stop offset="0.017" stop-color="#b8b3ae"/>
      <stop offset="0.136" stop-color="#c7a07e"/>
      <stop offset="0.249" stop-color="#d39159"/>
      <stop offset="0.354" stop-color="#db863e"/>
      <stop offset="0.446" stop-color="#e1802d"/>
      <stop offset="0.517" stop-color="#e37e28"/>
      <stop offset="0.58" stop-color="#e0802f"/>
      <stop offset="0.674" stop-color="#d98944"/>
      <stop offset="0.789" stop-color="#cf9666"/>
      <stop offset="0.919" stop-color="#c0a995"/>
      <stop offset="0.999" stop-color="#b6b6b6"/>
    </linearGradient>
  </defs>
  <g id="그룹_3825" data-name="그룹 3825" transform="translate(16688 -3309.463)">
    <g id="그룹_3820" data-name="그룹 3820" transform="translate(-14315.689 3930.611)">
      <g id="패스_4625" data-name="패스 4625">
        <path id="패스_4962" data-name="패스 4962" d="M-619.569-514.313c-15.781,0-42.793-8.427-59.112-13.518-4.323-1.348-7.737-2.414-9.772-2.946-144.957-37.992-260.024-26.221-371.3-14.839-63.121,6.457-122.737,12.557-187.006,10.062-107.287-4.166-192.035,2.478-273.994,8.9-54.737,4.29-111.337,8.726-173.051,9.684-91.465,1.418-172.855-11.734-244.673-23.338-47.912-7.742-89.29-14.428-124.375-15.144-36.4-.743-62.954,4.182-96.585,10.417-46.078,8.543-103.424,19.175-212.873,19.175v-1.2c109.339,0,166.624-10.621,212.654-19.155,33.7-6.247,60.309-11.18,96.828-10.437,35.169.717,76.586,7.41,124.543,15.159,71.77,11.6,153.1,24.749,244.462,23.323,61.676-.957,118.257-5.391,172.976-9.68,81.993-6.427,166.777-13.074,274.135-8.9,64.183,2.489,123.76-3.6,186.837-10.056,111.385-11.394,226.563-23.175,371.728,14.871,2.061.54,5.486,1.609,9.824,2.962,15.615,4.871,44.721,13.952,60.053,13.442,12.548.042,28.446-2.555,45.295-5.346,19.122-3.167,38.9-6.443,57.248-6.532,14.916-.071,65.138,0,65.643,0l0,1.2c-.505,0-50.722-.072-65.635,0-18.258.088-37.982,3.355-57.058,6.515-16.646,2.757-32.383,5.364-44.9,5.364l-.57,0Q-618.9-514.313-619.569-514.313Z" fill="url(#linear-gradient)"/>
      </g>
      <g id="패스_4624" data-name="패스 4624">
        <path id="패스_4963" data-name="패스 4963" d="M-1443.568-487.8h-1.262c-111.989-.05-187.642-27.843-260.8-54.722-69.069-25.374-134.314-49.356-224.374-47.818-90.8,1.536-154.478,17.246-216.064,32.438-63.952,15.776-130.082,32.089-226.076,32.089v-1.2c95.849,0,161.906-16.295,225.789-32.054,61.651-15.208,125.4-30.934,216.33-32.472,90.284-1.516,155.633,22.477,224.808,47.891,73.063,26.842,148.615,54.6,260.39,54.648h1.263c139.805,0,190.314-10.375,254.213-23.5,35.244-7.239,75.191-15.444,136.618-23.358a1301.712,1301.712,0,0,1,233.006-8.533c65.721,3.568,115.14,11.57,139.475,17.869,44.674,11.562,87.6,5.558,116.012,1.584,9.854-1.378,17.637-2.467,23.061-2.467h98.68v1.2h-98.68c-5.341,0-13.087,1.083-22.9,2.455-28.5,3.987-71.575,10.01-116.479-1.611-24.278-6.284-73.607-14.269-139.239-17.833a1301.75,1301.75,0,0,0-232.787,8.526c-61.383,7.908-101.307,16.108-136.531,23.342C-1253.075-498.19-1303.662-487.8-1443.568-487.8Z" fill="#b6b6b6"/>
      </g>
      <g id="패스_4623" data-name="패스 4623">
        <path id="패스_4964" data-name="패스 4964" d="M-1515.3-512.682h-1.389c-110.756-.049-195.118-15.692-276.7-30.821-78.691-14.592-153.016-28.38-244.147-26.833-91.037,1.54-128.292,12.351-164.32,22.806-38.4,11.142-74.661,21.667-170.409,21.667v-1.2c95.577,0,131.764-10.5,170.074-21.619,36.1-10.477,73.438-21.312,164.636-22.854,91.252-1.535,165.633,12.25,244.385,26.853,81.532,15.119,165.839,30.752,276.484,30.8h1.39c158.646,0,237.131-12.121,336.442-27.457,36.849-5.69,74.951-11.574,121.342-17.551,76.34-9.835,153.9-11.931,224.313-6.063,52.612,4.385,100.1,13.2,127.044,23.582,44.636,17.2,63.272,18.993,92.537,18.768a248.372,248.372,0,0,0,29.995-2.057,370.85,370.85,0,0,1,49.019-2.747h99.564v1.2H-534.6a369.915,369.915,0,0,0-48.882,2.738,249.213,249.213,0,0,1-30.123,2.065c-29.4.21-48.148-1.573-92.977-18.847-33.884-13.059-162.953-41.648-350.773-17.449-46.375,5.974-84.471,11.857-121.312,17.546C-1278.026-524.809-1356.577-512.682-1515.3-512.682Z" fill="#cbcbcb"/>
      </g>
    </g>
    <g id="그룹_3824" data-name="그룹 3824" transform="translate(-13842.46 3885.935)">
      <g id="그룹_2952" data-name="그룹 2952">
        <g id="그룹_2951" data-name="그룹 2951">
          <g id="타원_59" data-name="타원 59">
            <path id="패스_4941" data-name="패스 4941" d="M-1438.078-566.233a5.136,5.136,0,0,1-5.141-5.119,5.136,5.136,0,0,1,5.141-5.12,5.136,5.136,0,0,1,5.142,5.12A5.137,5.137,0,0,1-1438.078-566.233Zm0-8.939a3.834,3.834,0,0,0-3.84,3.82,3.833,3.833,0,0,0,3.84,3.819,3.833,3.833,0,0,0,3.841-3.819A3.834,3.834,0,0,0-1438.078-575.172Z" fill="#e37e28"/>
          </g>
          <g id="선_97" data-name="선 97">
            <rect id="사각형_416" data-name="사각형 416" width="1.301" height="21.307" transform="translate(-1433.488 -560.321)" fill="#e37e28"/>
          </g>
          <g id="선_98" data-name="선 98">
            <rect id="사각형_417" data-name="사각형 417" width="1.301" height="22.693" transform="translate(-1443.898 -560.321)" fill="#e37e28"/>
          </g>
          <g id="선_99" data-name="선 99">
            <rect id="사각형_418" data-name="사각형 418" width="1.301" height="23.387" transform="translate(-1455.817 -560.321)" fill="#e37e28"/>
          </g>
          <g id="선_100" data-name="선 100">
            <rect id="사각형_419" data-name="사각형 419" width="1.301" height="11.418" transform="translate(-1438.728 -549.75)" fill="#e37e28"/>
          </g>
          <g id="선_101" data-name="선 101">
            <path id="패스_4942" data-name="패스 4942" d="M-1432.837-549.75" fill="#e37e28"/>
          </g>
          <g id="패스_710" data-name="패스 710">
            <path id="패스_4943" data-name="패스 4943" d="M-1444.005-548.355a3.621,3.621,0,0,1-3.616-3.6v-7.377c0-5.364,2.542-8.2,7.354-8.2h2.235v1.3h-2.235c-4.074,0-6.054,2.256-6.054,6.9v7.374a2.32,2.32,0,0,0,2.318,2.306h.757v1.3h-.759Z" fill="#e37e28"/>
          </g>
          <g id="타원_60" data-name="타원 60">
            <path id="패스_4944" data-name="패스 4944" d="M-1450-566.233a5.137,5.137,0,0,1-5.142-5.119,5.136,5.136,0,0,1,5.142-5.12,5.136,5.136,0,0,1,5.141,5.12A5.137,5.137,0,0,1-1450-566.233Zm0-8.939a3.834,3.834,0,0,0-3.841,3.82,3.834,3.834,0,0,0,3.841,3.819,3.833,3.833,0,0,0,3.84-3.819A3.834,3.834,0,0,0-1450-575.172Z" fill="#e37e28"/>
          </g>
          <g id="패스_711" data-name="패스 711">
            <path id="패스_4945" data-name="패스 4945" d="M-1455.924-548.355a3.621,3.621,0,0,1-3.616-3.6v-7.377c0-5.364,2.544-8.2,7.355-8.2h2.234v1.3h-2.234c-4.074,0-6.055,2.256-6.055,6.9v7.374a2.32,2.32,0,0,0,2.318,2.306h.758v1.3h-.76Z" fill="#e37e28"/>
          </g>
          <g id="선_102" data-name="선 102">
            <rect id="사각형_420" data-name="사각형 420" width="1.301" height="20.613" transform="translate(-1421.55 -560.321)" fill="#e37e28"/>
          </g>
          <g id="타원_61" data-name="타원 61">
            <path id="패스_4946" data-name="패스 4946" d="M-1426.07-566.233a5.137,5.137,0,0,1-5.142-5.119,5.137,5.137,0,0,1,5.142-5.12,5.136,5.136,0,0,1,5.142,5.12A5.137,5.137,0,0,1-1426.07-566.233Zm0-8.939a3.835,3.835,0,0,0-3.842,3.82,3.835,3.835,0,0,0,3.842,3.819,3.834,3.834,0,0,0,3.841-3.819A3.834,3.834,0,0,0-1426.07-575.172Z" fill="#e37e28"/>
          </g>
          <g id="패스_712" data-name="패스 712">
            <path id="패스_4947" data-name="패스 4947" d="M-1420.142-548.355h-.758v-1.3h.754a2.3,2.3,0,0,0,1.636-.673,2.3,2.3,0,0,0,.684-1.635v-7.372c0-4.642-1.979-6.9-6.053-6.9h-2.236v-1.3h2.236c4.811,0,7.354,2.834,7.354,8.2v7.374a3.6,3.6,0,0,1-1.069,2.556A3.592,3.592,0,0,1-1420.142-548.355Z" fill="#e37e28"/>
          </g>
          <g id="패스_713" data-name="패스 713">
            <path id="패스_4948" data-name="패스 4948" d="M-1432.061-548.355h-.758v-1.3h.754a2.32,2.32,0,0,0,2.321-2.309v-7.371c0-4.642-1.98-6.9-6.054-6.9h-2.236v-1.3h2.236c4.811,0,7.355,2.834,7.355,8.2v7.374A3.624,3.624,0,0,1-1432.061-548.355Z" fill="#e37e28"/>
          </g>
        </g>
      </g>
    </g>
  </g>
</svg>
