<svg xmlns="http://www.w3.org/2000/svg" viewBox="0 0 87.18 89.34"><defs><style>.cls-1{fill:none;stroke:#df1c2f;stroke-linecap:round;stroke-linejoin:round;stroke-width:2.5px;}</style></defs><g id="레이어_2" data-name="레이어 2"><g id="레이어_1-2" data-name="레이어 1"><polygon class="cls-1" points="58.44 28.8 48.63 28.8 48.63 18.99 39.54 18.99 39.54 28.8 29.73 28.8 29.73 37.89 39.54 37.89 39.54 47.7 48.63 47.7 48.63 37.89 58.44 37.89 58.44 28.8"/><path class="cls-1" d="M15.18,29.65a28.4,28.4,0,0,1,56.8,0"/><path class="cls-1" d="M9.49,43.16V33.79a4.12,4.12,0,0,0-8.24,0V53.63c0,2.66.35,5.1,2.45,7.2s8.1,7.87,9.87,9.76,2.58,3.88,2.58,8.09"/><polyline class="cls-1" points="33.97 88.09 33.97 78.68 13.57 78.68 13.57 88.09"/><path class="cls-1" d="M31.19,78.68V69.26c0-5-1.24-7.46-5.07-11.17-2.76-2.68-8.52-8.47-10.55-10.39-.93-.87-3.23-.88-4.58.22-1.59,1.3-2.13,3.92-1.18,4.91,1.77,1.82,8.84,9,8.84,9"/><path class="cls-1" d="M77.69,43.16V33.79a4.12,4.12,0,0,1,8.24,0V53.63c0,2.66-.35,5.1-2.46,7.2s-8.09,7.87-9.86,9.76S71,74.47,71,78.68"/><polyline class="cls-1" points="53.21 88.09 53.21 78.68 73.61 78.68 73.61 88.09"/><path class="cls-1" d="M56,78.68V69.26c0-5,1.25-7.46,5.08-11.17,2.76-2.68,8.51-8.47,10.55-10.39.92-.87,3.23-.88,4.58.22,1.59,1.3,2.13,3.92,1.17,4.91-1.76,1.82-8.83,9-8.83,9"/><line class="cls-1" x1="15.18" y1="35.3" x2="15.18" y2="39.74"/><line class="cls-1" x1="71.98" y1="35.3" x2="71.98" y2="36.74"/></g></g></svg>