<svg xmlns="http://www.w3.org/2000/svg" xmlns:xlink="http://www.w3.org/1999/xlink" width="1937.271" height="156.315" viewBox="0 0 1937.271 156.315">
  <defs>
    <linearGradient id="linear-gradient" y1="0.5" x2="1" y2="0.5" gradientUnits="objectBoundingBox">
      <stop offset="0" stop-color="#b6b6b6"/>
      <stop offset="0.035" stop-color="#abb6ac"/>
      <stop offset="0.174" stop-color="#86b68b"/>
      <stop offset="0.303" stop-color="#6bb673"/>
      <stop offset="0.418" stop-color="#5bb665"/>
      <stop offset="0.507" stop-color="#56b760"/>
      <stop offset="0.607" stop-color="#59b663"/>
      <stop offset="0.708" stop-color="#65b66e"/>
      <stop offset="0.808" stop-color="#79b680"/>
      <stop offset="0.908" stop-color="#95b699"/>
      <stop offset="0.998" stop-color="#b6b6b6"/>
    </linearGradient>
  </defs>
  <g id="그룹_3827" data-name="그룹 3827" transform="translate(16942 -3634.493)">
    <g id="그룹_3822" data-name="그룹 3822" transform="translate(-14569.689 4278.611)">
      <g id="패스_4625" data-name="패스 4625">
        <path id="패스_4962" data-name="패스 4962" d="M-619.569-514.313c-15.781,0-42.793-8.427-59.112-13.518-4.323-1.348-7.737-2.414-9.772-2.946-144.957-37.992-260.024-26.221-371.3-14.839-63.121,6.457-122.737,12.557-187.006,10.062-107.287-4.166-192.035,2.478-273.994,8.9-54.737,4.29-111.337,8.726-173.051,9.684-91.465,1.418-172.855-11.734-244.673-23.338-47.912-7.742-89.29-14.428-124.375-15.144-36.4-.743-62.954,4.182-96.585,10.417-46.078,8.543-103.424,19.175-212.873,19.175v-1.2c109.339,0,166.624-10.621,212.654-19.155,33.7-6.247,60.309-11.18,96.828-10.437,35.169.717,76.586,7.41,124.543,15.159,71.77,11.6,153.1,24.749,244.462,23.323,61.676-.957,118.257-5.391,172.976-9.68,81.993-6.427,166.777-13.074,274.135-8.9,64.183,2.489,123.76-3.6,186.837-10.056,111.385-11.394,226.563-23.175,371.728,14.871,2.061.54,5.486,1.609,9.824,2.962,15.615,4.871,44.721,13.952,60.053,13.442,12.548.042,28.446-2.555,45.295-5.346,19.122-3.167,38.9-6.443,57.248-6.532,14.916-.071,65.138,0,65.643,0l0,1.2c-.505,0-50.722-.072-65.635,0-18.258.088-37.982,3.355-57.058,6.515-16.646,2.757-32.383,5.364-44.9,5.364l-.57,0Q-618.9-514.313-619.569-514.313Z" fill="#b6b6b6"/>
      </g>
      <g id="패스_4624" data-name="패스 4624">
        <path id="패스_4963" data-name="패스 4963" d="M-1443.568-487.8h-1.262c-111.989-.05-187.642-27.843-260.8-54.722-69.069-25.374-134.314-49.356-224.374-47.818-90.8,1.536-154.478,17.246-216.064,32.438-63.952,15.776-130.082,32.089-226.076,32.089v-1.2c95.849,0,161.906-16.295,225.789-32.054,61.651-15.208,125.4-30.934,216.33-32.472,90.284-1.516,155.633,22.477,224.808,47.891,73.063,26.842,148.615,54.6,260.39,54.648h1.263c139.805,0,190.314-10.375,254.213-23.5,35.244-7.239,75.191-15.444,136.618-23.358a1301.712,1301.712,0,0,1,233.006-8.533c65.721,3.568,115.14,11.57,139.475,17.869,44.674,11.562,87.6,5.558,116.012,1.584,9.854-1.378,17.637-2.467,23.061-2.467h98.68v1.2h-98.68c-5.341,0-13.087,1.083-22.9,2.455-28.5,3.987-71.575,10.01-116.479-1.611-24.278-6.284-73.607-14.269-139.239-17.833a1301.75,1301.75,0,0,0-232.787,8.526c-61.383,7.908-101.307,16.108-136.531,23.342C-1253.075-498.19-1303.662-487.8-1443.568-487.8Z" fill="url(#linear-gradient)"/>
      </g>
      <g id="패스_4623" data-name="패스 4623">
        <path id="패스_4964" data-name="패스 4964" d="M-1515.3-512.682h-1.389c-110.756-.049-195.118-15.692-276.7-30.821-78.691-14.592-153.016-28.38-244.147-26.833-91.037,1.54-128.292,12.351-164.32,22.806-38.4,11.142-74.661,21.667-170.409,21.667v-1.2c95.577,0,131.764-10.5,170.074-21.619,36.1-10.477,73.438-21.312,164.636-22.854,91.252-1.535,165.633,12.25,244.385,26.853,81.532,15.119,165.839,30.752,276.484,30.8h1.39c158.646,0,237.131-12.121,336.442-27.457,36.849-5.69,74.951-11.574,121.342-17.551,76.34-9.835,153.9-11.931,224.313-6.063,52.612,4.385,100.1,13.2,127.044,23.582,44.636,17.2,63.272,18.993,92.537,18.768a248.372,248.372,0,0,0,29.995-2.057,370.85,370.85,0,0,1,49.019-2.747h99.564v1.2H-534.6a369.915,369.915,0,0,0-48.882,2.738,249.213,249.213,0,0,1-30.123,2.065c-29.4.21-48.148-1.573-92.977-18.847-33.884-13.059-162.953-41.648-350.773-17.449-46.375,5.974-84.471,11.857-121.312,17.546C-1278.026-524.809-1356.577-512.682-1515.3-512.682Z" fill="#b6b6b6"/>
      </g>
    </g>
    <g id="그룹_3823" data-name="그룹 3823" transform="translate(-14687.127 4268.846)">
      <g id="타원_58" data-name="타원 58">
        <path id="패스_4936" data-name="패스 4936" d="M-1812.291-604.6a4.025,4.025,0,0,1-4.021-4.02,4.026,4.026,0,0,1,4.021-4.02,4.025,4.025,0,0,1,4.02,4.02A4.025,4.025,0,0,1-1812.291-604.6Zm0-6.74a2.723,2.723,0,0,0-2.72,2.72,2.723,2.723,0,0,0,2.72,2.72,2.722,2.722,0,0,0,2.719-2.72A2.723,2.723,0,0,0-1812.291-611.342Z" fill="#56b760"/>
      </g>
      <g id="패스_693" data-name="패스 693">
        <path id="패스_4937" data-name="패스 4937" d="M-1814.366-611.472c-.148-.111-3.63-2.8-3.63-9.787s6.714-12.1,7-12.315l1.041-.779v22.361h-1.3v-19.649c-1.831,1.7-5.44,5.636-5.44,10.382,0,6.289,3.081,8.725,3.113,8.749Z" fill="#56b760"/>
      </g>
      <g id="패스_694" data-name="패스 694">
        <path id="패스_4938" data-name="패스 4938" d="M-1791.174-593.733l-19.366-11.182.65-1.126,17.017,9.826c-.553-2.434-2.163-7.529-6.272-9.9-5.444-3.144-9.1-1.694-9.134-1.679l-.507-1.2c.169-.073,4.244-1.742,10.291,1.75s7.123,11.865,7.166,12.22Z" fill="#56b760"/>
      </g>
      <g id="패스_695" data-name="패스 695">
        <path id="패스_4939" data-name="패스 4939" d="M-1826.914-595.754a21.391,21.391,0,0,1-7.633-1.514l-1.2-.51,19.367-11.182.65,1.126-17.017,9.825c2.382.738,7.6,1.893,11.71-.481,5.446-3.144,6.016-7.031,6.022-7.07l1.29.159c-.023.184-.613,4.545-6.661,8.037A12.961,12.961,0,0,1-1826.914-595.754Z" fill="#56b760"/>
      </g>
      <g id="선_88" data-name="선 88">
        <rect id="사각형_411" data-name="사각형 411" width="1.301" height="12.637" transform="translate(-1815.47 -596.828)" fill="#56b760"/>
      </g>
      <g id="선_89" data-name="선 89">
        <rect id="사각형_412" data-name="사각형 412" width="1.301" height="22.564" transform="translate(-1810.414 -604.41)" fill="#56b760"/>
      </g>
      <g id="선_90" data-name="선 90">
        <rect id="사각형_413" data-name="사각형 413" width="12.637" height="1.3" transform="translate(-1802.182 -622.752)" fill="#56b760"/>
      </g>
      <g id="패스_696" data-name="패스 696">
        <path id="패스_4940" data-name="패스 4940" d="M-1802.183-621.452a3.993,3.993,0,0,1-2.841-1.182,3.989,3.989,0,0,1-1.173-2.845,4.029,4.029,0,0,1,4.014-4.013l0,1.3a2.725,2.725,0,0,0-2.715,2.716,2.693,2.693,0,0,0,.793,1.924,2.7,2.7,0,0,0,1.922.8Z" fill="#56b760"/>
      </g>
      <g id="선_91" data-name="선 91">
        <rect id="사각형_414" data-name="사각형 414" width="16.849" height="1.3" transform="translate(-1805.551 -617.697)" fill="#56b760"/>
      </g>
      <g id="선_92" data-name="선 92">
        <rect id="사각형_415" data-name="사각형 415" width="11.697" height="1.3" transform="translate(-1798.812 -612.641)" fill="#56b760"/>
      </g>
    </g>
  </g>
</svg>
