<svg xmlns="http://www.w3.org/2000/svg" viewBox="0 0 78.16 8.57"><defs><style>.cls-1{fill:#fff;}</style></defs><g id="레이어_2" data-name="레이어 2"><g id="레이어_1-2" data-name="레이어 1"><polygon class="cls-1" points="3.61 7.18 1.34 0.82 0 0.82 2.88 8.47 4.33 8.47 7.21 0.82 5.89 0.82 3.61 7.18"/><path class="cls-1" d="M9,0a.8.8,0,0,0-.81.8A.81.81,0,0,0,9,1.61.8.8,0,0,0,9.79.8.79.79,0,0,0,9,0Z"/><rect class="cls-1" x="8.36" y="2.41" width="1.25" height="6.06"/><path class="cls-1" d="M14,2.31a2.9,2.9,0,0,0-3,3.13,2.93,2.93,0,0,0,3,3.13,2.77,2.77,0,0,0,2.78-1.9H15.41A1.47,1.47,0,0,1,14,7.51a1.67,1.67,0,0,1-1.73-1.6h4.64a4.3,4.3,0,0,0,0-.62A2.83,2.83,0,0,0,14,2.31ZM12.27,4.9a1.65,1.65,0,0,1,1.66-1.53A1.57,1.57,0,0,1,15.62,4.9Z"/><polygon class="cls-1" points="23.93 7.26 22.69 2.41 21.38 2.41 20.1 7.28 18.83 2.41 17.56 2.41 19.45 8.47 20.77 8.47 21.99 3.99 23.21 8.47 24.53 8.47 26.41 2.41 25.18 2.41 23.93 7.26"/><polygon class="cls-1" points="34.46 6.82 31.78 0.82 30.43 0.82 30.43 8.47 31.68 8.47 31.68 3.23 34.02 8.47 34.89 8.47 37.23 3.23 37.23 8.47 38.48 8.47 38.48 0.82 37.14 0.82 34.46 6.82"/><path class="cls-1" d="M42.92,2.31a3,3,0,0,0-3.09,3.13,3,3,0,0,0,3,3.13A3,3,0,0,0,46,5.44,3,3,0,0,0,42.92,2.31Zm-.05,5.17a1.79,1.79,0,0,1-1.76-2,1.8,1.8,0,0,1,1.79-2,1.84,1.84,0,0,1,1.83,2A1.87,1.87,0,0,1,42.87,7.48Z"/><path class="cls-1" d="M48.62,3.29V2.41H47.37V8.47h1.25V5.28c0-1.29.57-1.67,1.5-1.67h.31V2.31A2,2,0,0,0,48.62,3.29Z"/><path class="cls-1" d="M54.31,2.31a2.9,2.9,0,0,0-3,3.13,2.94,2.94,0,0,0,3,3.13,2.77,2.77,0,0,0,2.78-1.9H55.74a1.47,1.47,0,0,1-1.43.84,1.66,1.66,0,0,1-1.73-1.6h4.63a4.3,4.3,0,0,0,0-.62A2.82,2.82,0,0,0,54.31,2.31ZM52.59,4.9a1.65,1.65,0,0,1,1.66-1.53A1.58,1.58,0,0,1,56,4.9Z"/><polygon class="cls-1" points="73.61 0.9 72.96 1.66 76.03 4.15 62.86 4.15 62.86 5.15 76.04 5.15 72.96 7.64 73.61 8.4 78.16 4.65 73.61 0.9"/></g></g></svg>