<svg xmlns="http://www.w3.org/2000/svg" width="78" height="8.558" viewBox="0 0 78 8.558">
  <g id="그룹_5764" data-name="그룹 5764" transform="translate(-31.82 -428)" opacity="0.7">
    <g id="레이어_2" data-name="레이어 2" transform="translate(31.82 428)">
      <g id="레이어_1" data-name="레이어 1" transform="translate(0 0)">
        <path id="패스_5004" data-name="패스 5004" d="M3.61,7.165,1.34.82H0L2.88,8.452H4.33L7.21.82H5.89Z" transform="translate(0 0)" fill="#aaa7a7"/>
        <path id="패스_5005" data-name="패스 5005" d="M9,0a.8.8,0,0,0-.81.8A.81.81,0,0,0,9,1.61.8.8,0,0,0,9.79.8.79.79,0,0,0,9,0Z" transform="translate(0 0)" fill="#aaa7a7"/>
        <rect id="사각형_555" data-name="사각형 555" width="1.25" height="6.06" transform="translate(8.36 2.393)" fill="#aaa7a7"/>
        <path id="패스_5006" data-name="패스 5006" d="M14,2.31a2.9,2.9,0,0,0-3,3.13,2.93,2.93,0,0,0,3,3.13,2.77,2.77,0,0,0,2.78-1.9H15.41A1.47,1.47,0,0,1,14,7.51a1.67,1.67,0,0,1-1.73-1.6h4.64a4.3,4.3,0,0,0,0-.62A2.83,2.83,0,0,0,14,2.31ZM12.27,4.9a1.65,1.65,0,0,1,1.66-1.53A1.57,1.57,0,0,1,15.62,4.9Z" transform="translate(0 -0.017)" fill="#aaa7a7"/>
        <path id="패스_5007" data-name="패스 5007" d="M23.93,7.26,22.69,2.41H21.38L20.1,7.28,18.83,2.41H17.56l1.89,6.06h1.32l1.22-4.48,1.22,4.48h1.32l1.88-6.06H25.18Z" transform="translate(-0.041 -0.017)" fill="#aaa7a7"/>
        <path id="패스_5008" data-name="패스 5008" d="M34.46,6.806,31.78.82H30.43V8.452h1.25V3.224l2.34,5.228h.87l2.34-5.228V8.452h1.25V.82H37.14Z" transform="translate(-0.069 0)" fill="#aaa7a7"/>
        <path id="패스_5009" data-name="패스 5009" d="M42.92,2.31a3,3,0,0,0-3.09,3.13,3.087,3.087,0,1,0,6.17,0,3,3,0,0,0-3.08-3.13Zm-.05,5.17a1.79,1.79,0,0,1-1.76-2,1.8,1.8,0,0,1,1.79-2,1.84,1.84,0,0,1,1.83,2,1.87,1.87,0,0,1-1.86,2Z" transform="translate(-0.089 -0.017)" fill="#aaa7a7"/>
        <path id="패스_5010" data-name="패스 5010" d="M48.62,3.29V2.41H47.37V8.47h1.25V5.28c0-1.29.57-1.67,1.5-1.67h.31V2.31a2,2,0,0,0-1.81.98Z" transform="translate(-0.101 -0.017)" fill="#aaa7a7"/>
        <path id="패스_5011" data-name="패스 5011" d="M54.31,2.31a2.9,2.9,0,0,0-3,3.13,2.94,2.94,0,0,0,3,3.13,2.77,2.77,0,0,0,2.78-1.9H55.74a1.47,1.47,0,0,1-1.43.84,1.66,1.66,0,0,1-1.73-1.6h4.63a4.3,4.3,0,0,0,0-.62,2.82,2.82,0,0,0-2.9-2.98ZM52.59,4.9a1.65,1.65,0,0,1,1.66-1.53A1.58,1.58,0,0,1,56,4.9Z" transform="translate(-0.114 -0.017)" fill="#aaa7a7"/>
        <path id="패스_5012" data-name="패스 5012" d="M73.61.9l-.65.758,3.07,2.484H62.86v1H76.04L72.96,7.624l.65.758,4.55-3.741Z" transform="translate(-0.16 0)" fill="#aaa7a7"/>
      </g>
    </g>
  </g>
</svg>
