<?xml version="1.0" encoding="utf-8"?>
<!-- Generator: Adobe Illustrator 25.1.0, SVG Export Plug-In . SVG Version: 6.00 Build 0)  -->
<svg version="1.1" id="레이어_1" xmlns="http://www.w3.org/2000/svg" xmlns:xlink="http://www.w3.org/1999/xlink" x="0px"
	 y="0px" viewBox="0 0 920 455" style="enable-background:new 0 0 920 455;" xml:space="preserve">
<style type="text/css">
	.st0{fill:#FAFAFA;}
	.st1{fill:none;stroke:#717171;}
	.st2{fill:none;stroke:#D6D6D6;}
	.st3{enable-background:new    ;}
</style>
<g id="그룹_5682" transform="translate(-740 -3059.811)">
	<rect id="사각형_375" x="740" y="3060" class="st0" width="920" height="64"/>
	<line id="선_347" class="st1" x1="740.4" y1="3060.3" x2="1659.5" y2="3060.3"/>
	<line id="선_348" class="st2" x1="740.4" y1="3124.3" x2="1659.5" y2="3124.3"/>
	<line id="선_348-2" class="st2" x1="740.4" y1="3189.3" x2="1659.5" y2="3189.3"/>
	<line id="선_348-3" class="st2" x1="740.4" y1="3254.3" x2="1659.5" y2="3254.3"/>
	<line id="선_348-4" class="st2" x1="740.4" y1="3319.3" x2="1659.5" y2="3319.3"/>
	<line id="선_348-5" class="st2" x1="740.4" y1="3384.3" x2="1659.5" y2="3384.3"/>
	<line id="선_348-6" class="st2" x1="740.4" y1="3449.3" x2="1659.5" y2="3449.3"/>
	<g class="st3">
		<path d="M894.3,3088.5c0,2.9,1.5,5.8,4,7l-1.1,1.5c-1.7-0.9-3-2.7-3.7-4.8c-0.7,2.2-2.1,4.1-3.9,5.1l-1.1-1.5
			c2.5-1.2,4.1-4.3,4.1-7.3v-2.7h1.9V3088.5z M903.7,3092.4h-2.5v8.3h-1.9v-16.3h1.9v6.4h2.5V3092.4z"/>
		<path d="M918.6,3084.4v8.7h-1.9v-3.5h-3c-0.3,1.8-2,3.1-4.1,3.1c-2.4,0-4.2-1.6-4.2-3.8c0-2.2,1.8-3.8,4.2-3.8
			c2.1,0,3.8,1.2,4.1,3h3v-3.7H918.6z M912.1,3089c0-1.4-1-2.3-2.4-2.3c-1.4,0-2.5,0.9-2.5,2.3c0,1.4,1,2.3,2.5,2.3
			C911,3091.2,912.1,3090.3,912.1,3089z M916.8,3093.9h1.8v6.6h-10.6v-6.6h1.8v1.8h6.9V3093.9z M916.8,3097.2h-6.9v1.8h6.9V3097.2z"
			/>
		<path d="M930.4,3093.5c-1.8-0.6-3.1-1.7-3.8-3.3c-0.7,1.7-2.1,3.1-4,3.8l-0.9-1.5c2.6-0.9,4-3,4-5.2v-0.3h-3.5v-1.5h8.7v1.5h-3.4
			v0.3c0,2,1.4,3.9,3.8,4.7L930.4,3093.5z M934.6,3097.6c0,1.9-2.1,3.1-5.4,3.1s-5.4-1.2-5.4-3.1c0-1.9,2.1-3.1,5.4-3.1
			S934.6,3095.7,934.6,3097.6z M932.8,3097.6c0-1.1-1.3-1.6-3.6-1.6s-3.6,0.6-3.6,1.6c0,1,1.3,1.6,3.6,1.6
			S932.8,3098.7,932.8,3097.6z M936.7,3088.4v1.5h-2.3v4.2h-1.9v-9.7h1.9v4H936.7z"/>
	</g>
	<g class="st3">
		<path d="M912.8,3158.5v0.8h-14.5v-0.8h6.8v-1.9h-4.8v-6.3h1v2.3h8.7v-2.3h1v6.3h-4.8v1.9H912.8z M901.3,3164.4h10v0.8h-10.9v-4.4
			h1V3164.4z M901.3,3155.8h8.7v-2.4h-8.7V3155.8z"/>
		<path d="M920,3154.2c0,2.8,2.2,5.7,4.3,6.8l-0.6,0.7c-1.7-0.9-3.4-3-4.1-5.3c-0.7,2.5-2.4,4.6-4.2,5.6l-0.6-0.8
			c2.1-1.1,4.3-4.2,4.3-7.1v-3.2h0.9V3154.2z M929.9,3157.1h-2.8v8.5h-1v-16h1v6.7h2.8V3157.1z"/>
	</g>
	<g class="st3">
		<path d="M912.9,3221.8v0.8h-6.7v4.1h-1v-4.1h-6.8v-0.8h11.1c0.5-2.2,0.5-3.8,0.5-5.1v-0.4h-9.7v-0.8h10.7v1.2c0,1.3,0,2.9-0.5,5.1
			H912.9z M901.2,3229.4h10v0.8h-11v-4.9h1V3229.4z"/>
		<path d="M923.6,3223.7c-1.8-0.7-3.4-2.2-4.1-4c-0.6,2.1-2.2,3.7-4.1,4.4l-0.5-0.8c2.3-0.9,4.1-3,4.1-5.7v-2.1h0.9v2.2
			c0,2.3,1.9,4.4,4.1,5.2L923.6,3223.7z M918.5,3229.4h9.5v0.8h-10.5v-4.9h1V3229.4z M929.8,3219.6v0.8h-2.5v6h-1v-11.9h1v5.1H929.8
			z"/>
	</g>
	<g class="st3">
		<path d="M912.9,3292.7v0.8h-14.5v-0.8h6.7v-4.1h-5.3v-0.8h2.7v-5.7h-2.7v-0.8h11.7v0.8h-2.7v5.7h2.7v0.8H906v4.1H912.9z
			 M903.3,3287.7h4.4v-5.7h-4.4V3287.7z"/>
		<path d="M924.5,3282.3H915v-0.8h4.3v-2.1h1v2.1h4.2V3282.3z M919.7,3288.9c-2.3,0-3.8-1.1-3.8-2.8s1.5-2.8,3.8-2.8
			c2.3,0,3.8,1.1,3.8,2.8S922,3288.9,919.7,3288.9z M919.7,3288.2c1.7,0,2.9-0.8,2.9-2s-1.2-2-2.9-2c-1.7,0-2.9,0.8-2.9,2
			S918,3288.2,919.7,3288.2z M927.4,3292.8c0,1.7-1.9,2.7-5.1,2.7c-3.2,0-5.1-1-5.1-2.7c0-1.7,1.9-2.7,5.1-2.7
			C925.5,3290.1,927.4,3291.1,927.4,3292.8z M926.5,3292.8c0-1.2-1.6-1.9-4.2-1.9c-2.5,0-4.2,0.7-4.2,1.9c0,1.2,1.6,1.9,4.2,1.9
			C924.9,3294.7,926.5,3294,926.5,3292.8z M929.8,3284.2v0.8h-2.5v4.9h-1v-10.4h1v4.7H929.8z"/>
	</g>
	<g class="st3">
		<path d="M908.5,3352.7c-3.3,0.5-7.2,0.6-10,0.6l-0.1-0.8c1.1,0,2.3,0,3.7,0v-3.4h1v3.3c1.9-0.1,3.8-0.2,5.5-0.4L908.5,3352.7z
			 M905.7,3350.7c0.5-1.9,0.5-3.3,0.5-4.2h-6.8v-0.8h7.7v0.8c0,1,0,2.4-0.4,4.4L905.7,3350.7z M910.8,3357.7c0,1.8-1.9,2.8-5.2,2.8
			c-3.2,0-5.1-1-5.1-2.8s1.9-2.8,5.1-2.8C908.8,3354.9,910.8,3355.9,910.8,3357.7z M909.8,3357.7c0-1.3-1.6-2-4.2-2
			c-2.6,0-4.2,0.8-4.2,2s1.7,2,4.2,2C908.2,3359.7,909.8,3359,909.8,3357.7z M913.1,3349.2v0.8h-2.5v4.7h-1v-10.1h1v4.6H913.1z"/>
		<path d="M919.4,3353c-2.4,0-4.1-1.5-4.1-3.7c0-2.2,1.7-3.7,4.1-3.7c2.4,0,4.1,1.5,4.1,3.7C923.5,3351.5,921.8,3353,919.4,3353z
			 M919.4,3352.1c1.8,0,3.1-1.2,3.1-2.9c0-1.7-1.3-2.9-3.1-2.9c-1.8,0-3.2,1.2-3.2,2.9C916.3,3350.9,917.6,3352.1,919.4,3352.1z
			 M927.4,3357.6c0,1.9-2,2.9-5.2,2.9c-3.2,0-5.1-1-5.1-2.9c0-1.8,2-2.9,5.1-2.9C925.4,3354.7,927.4,3355.8,927.4,3357.6z
			 M926.4,3357.6c0-1.3-1.7-2.1-4.2-2.1c-2.6,0-4.2,0.8-4.2,2.1c0,1.3,1.7,2.1,4.2,2.1C924.8,3359.7,926.4,3358.9,926.4,3357.6z
			 M927.3,3348v2.6h2.5v0.8h-2.5v2.7h-1v-9.6h1v2.7h2.5v0.8H927.3z"/>
	</g>
	<g class="st3">
		<path d="M906.9,3414.3c0,2.2-1.7,3.7-4.1,3.7c-2.4,0-4.1-1.5-4.1-3.7c0-2.2,1.7-3.7,4.1-3.7C905.3,3410.6,906.9,3412,906.9,3414.3
			z M899.7,3414.3c0,1.7,1.3,2.9,3.1,2.9c1.8,0,3.1-1.2,3.1-2.9c0-1.7-1.3-2.9-3.1-2.9C901.1,3411.4,899.7,3412.6,899.7,3414.3z
			 M911.4,3420.1v5.5h-1v-4.6h-9.6v-0.8H911.4z M911.4,3409.6v9.6h-1v-9.6H911.4z"/>
		<path d="M923.6,3418.7c-1.8-0.7-3.4-2.2-4.1-4c-0.6,2.1-2.2,3.7-4.1,4.4l-0.5-0.8c2.3-0.9,4.1-3,4.1-5.7v-2.1h0.9v2.2
			c0,2.3,1.9,4.4,4.1,5.2L923.6,3418.7z M918.5,3424.4h9.5v0.8h-10.5v-4.9h1V3424.4z M929.8,3414.6v0.8h-2.5v6h-1v-11.9h1v5.1H929.8
			z"/>
	</g>
	<g class="st3">
		<path d="M891.9,3479.3c0,2.2-1.7,3.7-4.1,3.7c-2.4,0-4.1-1.5-4.1-3.7c0-2.2,1.7-3.7,4.1-3.7C890.3,3475.6,891.9,3477,891.9,3479.3
			z M884.7,3479.3c0,1.7,1.3,2.9,3.1,2.9c1.8,0,3.1-1.2,3.1-2.9c0-1.7-1.3-2.9-3.1-2.9C886.1,3476.4,884.7,3477.6,884.7,3479.3z
			 M896.4,3485.1v5.5h-1v-4.6h-9.6v-0.8H896.4z M896.4,3474.6v9.6h-1v-9.6H896.4z"/>
		<path d="M908.6,3483.7c-1.8-0.7-3.4-2.2-4.1-4c-0.6,2.1-2.2,3.7-4.1,4.4l-0.5-0.8c2.3-0.9,4.1-3,4.1-5.7v-2.1h0.9v2.2
			c0,2.3,1.9,4.4,4.1,5.2L908.6,3483.7z M903.5,3489.4h9.5v0.8h-10.5v-4.9h1V3489.4z M914.8,3479.6v0.8h-2.5v6h-1v-11.9h1v5.1H914.8
			z"/>
		<path d="M919.5,3476.2h1.2l2.4,7.5c0.5,1.6,0.8,2.8,1.4,4.4h0.1c0.5-1.6,0.9-2.8,1.4-4.4l2.3-7.5h1.1l-4.3,13.1h-1.2L919.5,3476.2
			z"/>
		<path d="M931.3,3476.2h1.1v13.1h-1.1V3476.2z"/>
		<path d="M936.2,3476.2h3.4c3,0,4.8,1,4.8,3.7c0,2.6-1.8,3.9-4.7,3.9h-2.4v5.5h-1.1V3476.2z M939.4,3482.9c2.6,0,3.8-0.9,3.8-3
			c0-2.1-1.3-2.8-3.9-2.8h-2.1v5.8H939.4z"/>
	</g>
	<g class="st3">
		<path d="M1344.8,3088.5c0,3,1.7,6,4.2,7.1l-1.1,1.5c-1.9-0.9-3.3-2.7-4-4.9c-0.7,2.4-2.2,4.3-4.1,5.2l-1.1-1.5
			c2.6-1.2,4.3-4.3,4.3-7.4v-2.7h1.9V3088.5z M1352.1,3084.4v16.3h-1.9v-16.3H1352.1z"/>
		<path d="M1370.1,3097.1v1.5h-14.7v-1.5H1370.1z M1368.6,3093.9c-2.6-0.5-4.9-2.2-6-4.5c-1.1,2.2-3.3,3.9-6,4.5l-0.8-1.5
			c3.2-0.6,5.8-3.1,5.8-5.7v-1.2h2v1.2c0,2.6,2.6,5.1,5.8,5.7L1368.6,3093.9z"/>
		<path d="M1379.6,3093c-1.9,0.3-3.4,0.4-5.9,0.4h-1.1v-7.9h6.1v1.5h-4.3v1.7h3.7v1.4h-3.7v1.8c2.1,0,3.4-0.1,5-0.4L1379.6,3093z
			 M1374.8,3094.9h10.8v5.6h-10.8V3094.9z M1376.7,3099h7.2v-2.6h-7.2V3099z M1380.7,3089.9h-1.9v-1.5h1.9v-3.7h1.7v9.4h-1.7V3089.9
			z M1385.6,3084.4v9.8h-1.8v-9.8H1385.6z"/>
		<path d="M1397.1,3093.7c-2.4,0-4.3-1.7-4.3-4.1c0-2.4,1.9-4.1,4.3-4.1c2.4,0,4.3,1.7,4.3,4.1
			C1401.4,3091.9,1399.6,3093.7,1397.1,3093.7z M1397.1,3092.1c1.4,0,2.5-1,2.5-2.5c0-1.5-1.1-2.5-2.5-2.5c-1.4,0-2.5,1-2.5,2.5
			C1394.6,3091.1,1395.7,3092.1,1397.1,3092.1z M1406.4,3098.9v1.5h-11.1v-5.3h1.9v3.8H1406.4z M1405.9,3096.3h-1.9v-11.8h1.9
			V3096.3z"/>
		<path d="M1423.8,3092.1v1.5H1409v-1.5H1423.8z M1409.8,3089.8c3-0.3,5.1-1.6,5.4-3.1h-4.7v-1.5h12v1.5h-4.8
			c0.2,1.5,2.3,2.8,5.4,3.1l-0.6,1.4c-2.9-0.3-5.1-1.5-6-3.2c-0.9,1.7-3.1,2.8-6,3.2L1409.8,3089.8z M1422,3097.7c0,1.9-2.1,3-5.6,3
			c-3.5,0-5.6-1.1-5.6-3c0-1.9,2.1-3,5.6-3C1419.9,3094.7,1422,3095.8,1422,3097.7z M1420.1,3097.7c0-1-1.4-1.5-3.7-1.5
			c-2.4,0-3.7,0.5-3.7,1.5c0,1,1.3,1.5,3.7,1.5C1418.7,3099.2,1420.1,3098.7,1420.1,3097.7z"/>
	</g>
	<g class="st3">
		<path d="M1305.7,3151.2h1.1v13.1h-1.1V3151.2z"/>
		<path d="M1309.6,3162.6l0.7-0.8c1,1.1,2.3,1.7,3.8,1.7c1.9,0,3.2-1,3.2-2.5c0-1.6-1-2.1-2.3-2.7l-2-0.9c-1.2-0.5-2.7-1.4-2.7-3.3
			c0-1.9,1.7-3.3,3.9-3.3c1.6,0,2.9,0.7,3.7,1.6l-0.6,0.7c-0.8-0.8-1.8-1.3-3.1-1.3c-1.7,0-2.8,0.9-2.8,2.2c0,1.5,1.3,2.1,2.2,2.5
			l2,0.9c1.5,0.7,2.8,1.5,2.8,3.5c0,2-1.7,3.6-4.2,3.6C1312.1,3164.5,1310.6,3163.8,1309.6,3162.6z"/>
		<path d="M1320.2,3157.7c0-4.2,2.3-6.8,5.4-6.8c3.2,0,5.5,2.6,5.5,6.8c0,4.2-2.3,6.8-5.5,6.8
			C1322.4,3164.5,1320.2,3161.9,1320.2,3157.7z M1329.9,3157.7c0-3.6-1.7-5.8-4.3-5.8c-2.6,0-4.3,2.2-4.3,5.8c0,3.6,1.7,5.9,4.3,5.9
			C1328.2,3163.6,1329.9,3161.3,1329.9,3157.7z"/>
		<path d="M1337.2,3163.3l0.6-0.7c0.5,0.7,1.3,1,2.1,1c2,0,3.7-1.6,3.7-6.1c-0.9,1.1-2,1.7-3.2,1.7c-2.2,0-3.6-1.4-3.6-3.9
			c0-2.4,1.6-4,3.5-4c2.5,0,4.2,2.1,4.2,6c0,5.3-2.2,7.2-4.7,7.2C1338.8,3164.5,1337.9,3164,1337.2,3163.3z M1340.7,3158.4
			c0.9,0,2.1-0.5,3-1.9c-0.2-2.6-1.2-4.3-3.2-4.3c-1.4,0-2.5,1.3-2.5,3.1C1338,3157.1,1338.8,3158.4,1340.7,3158.4z"/>
		<path d="M1346.7,3157.9c0-4.2,1.4-6.6,3.9-6.6c2.4,0,3.9,2.3,3.9,6.6s-1.4,6.6-3.9,6.6C1348.1,3164.5,1346.7,3162.1,1346.7,3157.9
			z M1353.4,3157.9c0-3.9-1.1-5.7-2.8-5.7c-1.7,0-2.8,1.8-2.8,5.7c0,3.9,1.1,5.8,2.8,5.8C1352.3,3163.7,1353.4,3161.8,1353.4,3157.9
			z"/>
		<path d="M1356.4,3157.9c0-4.2,1.4-6.6,3.9-6.6c2.4,0,3.9,2.3,3.9,6.6s-1.4,6.6-3.9,6.6C1357.8,3164.5,1356.4,3162.1,1356.4,3157.9
			z M1363,3157.9c0-3.9-1.1-5.7-2.8-5.7c-1.7,0-2.8,1.8-2.8,5.7c0,3.9,1.1,5.8,2.8,5.8C1361.9,3163.7,1363,3161.8,1363,3157.9z"/>
		<path d="M1366.7,3163.4h3v-10.3h-2.3v-0.7c1.1-0.2,1.9-0.5,2.5-0.8h0.8v11.8h2.7v0.9h-6.8V3163.4z"/>
		<path d="M1375.6,3166.8c1-0.5,1.6-1.3,1.6-2.4c-0.1,0-0.1,0-0.2,0c-0.5,0-0.9-0.3-0.9-0.9c0-0.6,0.5-0.9,1-0.9
			c0.6,0,1.1,0.6,1.1,1.5c0,1.5-0.9,2.7-2.2,3.3L1375.6,3166.8z"/>
		<path d="M1385.1,3151.2h1.1v13.1h-1.1V3151.2z"/>
		<path d="M1392.8,3151.2h1.1l4.6,13.1h-1.2l-1.5-4.4h-5.1l-1.5,4.4h-1.1L1392.8,3151.2z M1391.1,3159h4.5l-0.8-2.4
			c-0.5-1.5-1-2.9-1.4-4.5h-0.1c-0.5,1.6-0.9,3-1.4,4.5L1391.1,3159z"/>
		<path d="M1402.4,3152.1h-4.1v-0.9h9.4v0.9h-4.1v12.2h-1.1V3152.1z"/>
		<path d="M1410.1,3151.2h7.2v0.9h-6.2v5.1h5.2v0.9h-5.2v6.2h-1.1V3151.2z"/>
		<path d="M1423.5,3163.4h3v-10.3h-2.3v-0.7c1.1-0.2,1.9-0.5,2.5-0.8h0.8v11.8h2.7v0.9h-6.8V3163.4z"/>
		<path d="M1432.5,3158.5c0-5.3,2.2-7.2,4.7-7.2c1.2,0,2.1,0.5,2.8,1.3l-0.6,0.7c-0.5-0.7-1.3-1-2.2-1c-1.9,0-3.6,1.5-3.7,6.1
			c0.9-1,2-1.7,3.2-1.7c2.2,0,3.6,1.4,3.6,3.9c0,2.4-1.6,4-3.5,4C1434.1,3164.5,1432.5,3162.4,1432.5,3158.5z M1433.5,3159.3
			c0.2,2.6,1.2,4.3,3.2,4.3c1.4,0,2.5-1.3,2.5-3.1c0-1.8-0.8-3.1-2.7-3.1C1435.6,3157.5,1434.5,3158,1433.5,3159.3z"/>
		<path d="M1442.2,3163.3l0.6-0.7c0.5,0.7,1.3,1,2.1,1c2,0,3.7-1.6,3.7-6.1c-0.9,1.1-2,1.7-3.2,1.7c-2.2,0-3.6-1.4-3.6-3.9
			c0-2.4,1.6-4,3.5-4c2.5,0,4.2,2.1,4.2,6c0,5.3-2.3,7.2-4.7,7.2C1443.7,3164.5,1442.8,3164,1442.2,3163.3z M1445.6,3158.4
			c0.9,0,2.1-0.5,3-1.9c-0.2-2.6-1.2-4.3-3.2-4.3c-1.4,0-2.5,1.3-2.5,3.1C1442.9,3157.1,1443.7,3158.4,1445.6,3158.4z"/>
		<path d="M1456.8,3160.6h-5.8v-0.6l5.8-8.4h1v8.1h1.9v0.9h-1.9v3.7h-1V3160.6z M1456.8,3159.7v-4.5c0-0.6,0-1.6,0.1-2.3h-0.1
			c-0.3,0.5-0.7,1-1,1.6l-3.6,5.1H1456.8z"/>
		<path d="M1461.4,3163.3l0.6-0.7c0.5,0.7,1.3,1,2.1,1c2,0,3.7-1.6,3.7-6.1c-0.9,1.1-2,1.7-3.2,1.7c-2.2,0-3.6-1.4-3.6-3.9
			c0-2.4,1.6-4,3.5-4c2.5,0,4.2,2.1,4.2,6c0,5.3-2.2,7.2-4.7,7.2C1463,3164.5,1462.1,3164,1461.4,3163.3z M1464.8,3158.4
			c0.9,0,2.1-0.5,3-1.9c-0.2-2.6-1.2-4.3-3.2-4.3c-1.4,0-2.5,1.3-2.5,3.1C1462.2,3157.1,1463,3158.4,1464.8,3158.4z"/>
	</g>
	<g class="st3">
		<path d="M1305.7,3216.2h1.1v13.1h-1.1V3216.2z"/>
		<path d="M1309.6,3227.6l0.7-0.8c1,1.1,2.3,1.7,3.8,1.7c1.9,0,3.2-1,3.2-2.5c0-1.6-1-2.1-2.3-2.7l-2-0.9c-1.2-0.5-2.7-1.4-2.7-3.3
			c0-1.9,1.7-3.3,3.9-3.3c1.6,0,2.9,0.7,3.7,1.6l-0.6,0.7c-0.8-0.8-1.8-1.3-3.1-1.3c-1.7,0-2.8,0.9-2.8,2.2c0,1.5,1.3,2.1,2.2,2.5
			l2,0.9c1.5,0.7,2.8,1.5,2.8,3.5c0,2-1.7,3.6-4.2,3.6C1312.1,3229.5,1310.6,3228.8,1309.6,3227.6z"/>
		<path d="M1320.2,3222.7c0-4.2,2.3-6.8,5.4-6.8c3.2,0,5.5,2.6,5.5,6.8c0,4.2-2.3,6.8-5.5,6.8
			C1322.4,3229.5,1320.2,3226.9,1320.2,3222.7z M1329.9,3222.7c0-3.6-1.7-5.8-4.3-5.8c-2.6,0-4.3,2.2-4.3,5.8c0,3.6,1.7,5.9,4.3,5.9
			C1328.2,3228.6,1329.9,3226.3,1329.9,3222.7z"/>
		<path d="M1337.2,3228.3l0.6-0.7c0.5,0.7,1.3,1,2.1,1c2,0,3.7-1.6,3.7-6.1c-0.9,1.1-2,1.7-3.2,1.7c-2.2,0-3.6-1.4-3.6-3.9
			c0-2.4,1.6-4,3.5-4c2.5,0,4.2,2.1,4.2,6c0,5.3-2.2,7.2-4.7,7.2C1338.8,3229.5,1337.9,3229,1337.2,3228.3z M1340.7,3223.4
			c0.9,0,2.1-0.5,3-1.9c-0.2-2.6-1.2-4.3-3.2-4.3c-1.4,0-2.5,1.3-2.5,3.1C1338,3222.1,1338.8,3223.4,1340.7,3223.4z"/>
		<path d="M1346.7,3222.9c0-4.2,1.4-6.6,3.9-6.6c2.4,0,3.9,2.3,3.9,6.6s-1.4,6.6-3.9,6.6C1348.1,3229.5,1346.7,3227.1,1346.7,3222.9
			z M1353.4,3222.9c0-3.9-1.1-5.7-2.8-5.7c-1.7,0-2.8,1.8-2.8,5.7c0,3.9,1.1,5.8,2.8,5.8C1352.3,3228.7,1353.4,3226.8,1353.4,3222.9
			z"/>
		<path d="M1356.4,3222.9c0-4.2,1.4-6.6,3.9-6.6c2.4,0,3.9,2.3,3.9,6.6s-1.4,6.6-3.9,6.6C1357.8,3229.5,1356.4,3227.1,1356.4,3222.9
			z M1363,3222.9c0-3.9-1.1-5.7-2.8-5.7c-1.7,0-2.8,1.8-2.8,5.7c0,3.9,1.1,5.8,2.8,5.8C1361.9,3228.7,1363,3226.8,1363,3222.9z"/>
		<path d="M1366.7,3228.4h3v-10.3h-2.3v-0.7c1.1-0.2,1.9-0.5,2.5-0.8h0.8v11.8h2.7v0.9h-6.8V3228.4z"/>
		<path d="M1375.6,3231.8c1-0.5,1.6-1.3,1.6-2.4c-0.1,0-0.1,0-0.2,0c-0.5,0-0.9-0.3-0.9-0.9c0-0.6,0.5-0.9,1-0.9
			c0.6,0,1.1,0.6,1.1,1.5c0,1.5-0.9,2.7-2.2,3.3L1375.6,3231.8z"/>
		<path d="M1385.1,3216.2h1.1v13.1h-1.1V3216.2z"/>
		<path d="M1392.8,3216.2h1.1l4.6,13.1h-1.2l-1.5-4.4h-5.1l-1.5,4.4h-1.1L1392.8,3216.2z M1391.1,3224h4.5l-0.8-2.4
			c-0.5-1.5-1-2.9-1.4-4.5h-0.1c-0.5,1.6-0.9,3-1.4,4.5L1391.1,3224z"/>
		<path d="M1402.4,3217.1h-4.1v-0.9h9.4v0.9h-4.1v12.2h-1.1V3217.1z"/>
		<path d="M1410.1,3216.2h7.2v0.9h-6.2v5.1h5.2v0.9h-5.2v6.2h-1.1V3216.2z"/>
		<path d="M1423.5,3228.4h3v-10.3h-2.3v-0.7c1.1-0.2,1.9-0.5,2.5-0.8h0.8v11.8h2.7v0.9h-6.8V3228.4z"/>
		<path d="M1432.5,3223.5c0-5.3,2.2-7.2,4.7-7.2c1.2,0,2.1,0.5,2.8,1.3l-0.6,0.7c-0.5-0.7-1.3-1-2.2-1c-1.9,0-3.6,1.5-3.7,6.1
			c0.9-1,2-1.7,3.2-1.7c2.2,0,3.6,1.4,3.6,3.9c0,2.4-1.6,4-3.5,4C1434.1,3229.5,1432.5,3227.4,1432.5,3223.5z M1433.5,3224.3
			c0.2,2.6,1.2,4.3,3.2,4.3c1.4,0,2.5-1.3,2.5-3.1c0-1.8-0.8-3.1-2.7-3.1C1435.6,3222.5,1434.5,3223,1433.5,3224.3z"/>
		<path d="M1442.2,3228.3l0.6-0.7c0.5,0.7,1.3,1,2.1,1c2,0,3.7-1.6,3.7-6.1c-0.9,1.1-2,1.7-3.2,1.7c-2.2,0-3.6-1.4-3.6-3.9
			c0-2.4,1.6-4,3.5-4c2.5,0,4.2,2.1,4.2,6c0,5.3-2.3,7.2-4.7,7.2C1443.7,3229.5,1442.8,3229,1442.2,3228.3z M1445.6,3223.4
			c0.9,0,2.1-0.5,3-1.9c-0.2-2.6-1.2-4.3-3.2-4.3c-1.4,0-2.5,1.3-2.5,3.1C1442.9,3222.1,1443.7,3223.4,1445.6,3223.4z"/>
		<path d="M1456.8,3225.6h-5.8v-0.6l5.8-8.4h1v8.1h1.9v0.9h-1.9v3.7h-1V3225.6z M1456.8,3224.7v-4.5c0-0.6,0-1.6,0.1-2.3h-0.1
			c-0.3,0.5-0.7,1-1,1.6l-3.6,5.1H1456.8z"/>
		<path d="M1461.4,3228.3l0.6-0.7c0.5,0.7,1.3,1,2.1,1c2,0,3.7-1.6,3.7-6.1c-0.9,1.1-2,1.7-3.2,1.7c-2.2,0-3.6-1.4-3.6-3.9
			c0-2.4,1.6-4,3.5-4c2.5,0,4.2,2.1,4.2,6c0,5.3-2.2,7.2-4.7,7.2C1463,3229.5,1462.1,3229,1461.4,3228.3z M1464.8,3223.4
			c0.9,0,2.1-0.5,3-1.9c-0.2-2.6-1.2-4.3-3.2-4.3c-1.4,0-2.5,1.3-2.5,3.1C1462.2,3222.1,1463,3223.4,1464.8,3223.4z"/>
	</g>
	<g class="st3">
		<path d="M1305.7,3281.2h1.1v13.1h-1.1V3281.2z"/>
		<path d="M1309.6,3292.6l0.7-0.8c1,1.1,2.3,1.7,3.8,1.7c1.9,0,3.2-1,3.2-2.5c0-1.6-1-2.1-2.3-2.7l-2-0.9c-1.2-0.5-2.7-1.4-2.7-3.3
			c0-1.9,1.7-3.3,3.9-3.3c1.6,0,2.9,0.7,3.7,1.6l-0.6,0.7c-0.8-0.8-1.8-1.3-3.1-1.3c-1.7,0-2.8,0.9-2.8,2.2c0,1.5,1.3,2.1,2.2,2.5
			l2,0.9c1.5,0.7,2.8,1.5,2.8,3.5c0,2-1.7,3.6-4.2,3.6C1312.1,3294.5,1310.6,3293.8,1309.6,3292.6z"/>
		<path d="M1320.2,3287.7c0-4.2,2.3-6.8,5.4-6.8c3.2,0,5.5,2.6,5.5,6.8c0,4.2-2.3,6.8-5.5,6.8
			C1322.4,3294.5,1320.2,3291.9,1320.2,3287.7z M1329.9,3287.7c0-3.6-1.7-5.8-4.3-5.8c-2.6,0-4.3,2.2-4.3,5.8c0,3.6,1.7,5.9,4.3,5.9
			C1328.2,3293.6,1329.9,3291.3,1329.9,3287.7z"/>
		<path d="M1337.2,3293.3l0.6-0.7c0.5,0.7,1.3,1,2.1,1c2,0,3.7-1.6,3.7-6.1c-0.9,1.1-2,1.7-3.2,1.7c-2.2,0-3.6-1.4-3.6-3.9
			c0-2.4,1.6-4,3.5-4c2.5,0,4.2,2.1,4.2,6c0,5.3-2.2,7.2-4.7,7.2C1338.8,3294.5,1337.9,3294,1337.2,3293.3z M1340.7,3288.4
			c0.9,0,2.1-0.5,3-1.9c-0.2-2.6-1.2-4.3-3.2-4.3c-1.4,0-2.5,1.3-2.5,3.1C1338,3287.1,1338.8,3288.4,1340.7,3288.4z"/>
		<path d="M1346.7,3287.9c0-4.2,1.4-6.6,3.9-6.6c2.4,0,3.9,2.3,3.9,6.6s-1.4,6.6-3.9,6.6C1348.1,3294.5,1346.7,3292.1,1346.7,3287.9
			z M1353.4,3287.9c0-3.9-1.1-5.7-2.8-5.7c-1.7,0-2.8,1.8-2.8,5.7c0,3.9,1.1,5.8,2.8,5.8C1352.3,3293.7,1353.4,3291.8,1353.4,3287.9
			z"/>
		<path d="M1356.4,3287.9c0-4.2,1.4-6.6,3.9-6.6c2.4,0,3.9,2.3,3.9,6.6s-1.4,6.6-3.9,6.6C1357.8,3294.5,1356.4,3292.1,1356.4,3287.9
			z M1363,3287.9c0-3.9-1.1-5.7-2.8-5.7c-1.7,0-2.8,1.8-2.8,5.7c0,3.9,1.1,5.8,2.8,5.8C1361.9,3293.7,1363,3291.8,1363,3287.9z"/>
		<path d="M1366.7,3293.4h3v-10.3h-2.3v-0.7c1.1-0.2,1.9-0.5,2.5-0.8h0.8v11.8h2.7v0.9h-6.8V3293.4z"/>
		<path d="M1375.6,3296.8c1-0.5,1.6-1.3,1.6-2.4c-0.1,0-0.1,0-0.2,0c-0.5,0-0.9-0.3-0.9-0.9c0-0.6,0.5-0.9,1-0.9
			c0.6,0,1.1,0.6,1.1,1.5c0,1.5-0.9,2.7-2.2,3.3L1375.6,3296.8z"/>
		<path d="M1385.1,3281.2h1.1v13.1h-1.1V3281.2z"/>
		<path d="M1392.8,3281.2h1.1l4.6,13.1h-1.2l-1.5-4.4h-5.1l-1.5,4.4h-1.1L1392.8,3281.2z M1391.1,3289h4.5l-0.8-2.4
			c-0.5-1.5-1-2.9-1.4-4.5h-0.1c-0.5,1.6-0.9,3-1.4,4.5L1391.1,3289z"/>
		<path d="M1402.4,3282.1h-4.1v-0.9h9.4v0.9h-4.1v12.2h-1.1V3282.1z"/>
		<path d="M1410.1,3281.2h7.2v0.9h-6.2v5.1h5.2v0.9h-5.2v6.2h-1.1V3281.2z"/>
		<path d="M1423.5,3293.4h3v-10.3h-2.3v-0.7c1.1-0.2,1.9-0.5,2.5-0.8h0.8v11.8h2.7v0.9h-6.8V3293.4z"/>
		<path d="M1432.5,3288.5c0-5.3,2.2-7.2,4.7-7.2c1.2,0,2.1,0.5,2.8,1.3l-0.6,0.7c-0.5-0.7-1.3-1-2.2-1c-1.9,0-3.6,1.5-3.7,6.1
			c0.9-1,2-1.7,3.2-1.7c2.2,0,3.6,1.4,3.6,3.9c0,2.4-1.6,4-3.5,4C1434.1,3294.5,1432.5,3292.4,1432.5,3288.5z M1433.5,3289.3
			c0.2,2.6,1.2,4.3,3.2,4.3c1.4,0,2.5-1.3,2.5-3.1c0-1.8-0.8-3.1-2.7-3.1C1435.6,3287.5,1434.5,3288,1433.5,3289.3z"/>
		<path d="M1442.2,3293.3l0.6-0.7c0.5,0.7,1.3,1,2.1,1c2,0,3.7-1.6,3.7-6.1c-0.9,1.1-2,1.7-3.2,1.7c-2.2,0-3.6-1.4-3.6-3.9
			c0-2.4,1.6-4,3.5-4c2.5,0,4.2,2.1,4.2,6c0,5.3-2.3,7.2-4.7,7.2C1443.7,3294.5,1442.8,3294,1442.2,3293.3z M1445.6,3288.4
			c0.9,0,2.1-0.5,3-1.9c-0.2-2.6-1.2-4.3-3.2-4.3c-1.4,0-2.5,1.3-2.5,3.1C1442.9,3287.1,1443.7,3288.4,1445.6,3288.4z"/>
		<path d="M1456.8,3290.6h-5.8v-0.6l5.8-8.4h1v8.1h1.9v0.9h-1.9v3.7h-1V3290.6z M1456.8,3289.7v-4.5c0-0.6,0-1.6,0.1-2.3h-0.1
			c-0.3,0.5-0.7,1-1,1.6l-3.6,5.1H1456.8z"/>
		<path d="M1461.4,3293.3l0.6-0.7c0.5,0.7,1.3,1,2.1,1c2,0,3.7-1.6,3.7-6.1c-0.9,1.1-2,1.7-3.2,1.7c-2.2,0-3.6-1.4-3.6-3.9
			c0-2.4,1.6-4,3.5-4c2.5,0,4.2,2.1,4.2,6c0,5.3-2.2,7.2-4.7,7.2C1463,3294.5,1462.1,3294,1461.4,3293.3z M1464.8,3288.4
			c0.9,0,2.1-0.5,3-1.9c-0.2-2.6-1.2-4.3-3.2-4.3c-1.4,0-2.5,1.3-2.5,3.1C1462.2,3287.1,1463,3288.4,1464.8,3288.4z"/>
	</g>
	<g class="st3">
		<path d="M1305.7,3346.2h1.1v13.1h-1.1V3346.2z"/>
		<path d="M1309.6,3357.6l0.7-0.8c1,1.1,2.3,1.7,3.8,1.7c1.9,0,3.2-1,3.2-2.5c0-1.6-1-2.1-2.3-2.7l-2-0.9c-1.2-0.5-2.7-1.4-2.7-3.3
			c0-1.9,1.7-3.3,3.9-3.3c1.6,0,2.9,0.7,3.7,1.6l-0.6,0.7c-0.8-0.8-1.8-1.3-3.1-1.3c-1.7,0-2.8,0.9-2.8,2.2c0,1.5,1.3,2.1,2.2,2.5
			l2,0.9c1.5,0.7,2.8,1.5,2.8,3.5c0,2-1.7,3.6-4.2,3.6C1312.1,3359.5,1310.6,3358.8,1309.6,3357.6z"/>
		<path d="M1320.2,3352.7c0-4.2,2.3-6.8,5.4-6.8c3.2,0,5.5,2.6,5.5,6.8c0,4.2-2.3,6.8-5.5,6.8
			C1322.4,3359.5,1320.2,3356.9,1320.2,3352.7z M1329.9,3352.7c0-3.6-1.7-5.8-4.3-5.8c-2.6,0-4.3,2.2-4.3,5.8c0,3.6,1.7,5.9,4.3,5.9
			C1328.2,3358.6,1329.9,3356.3,1329.9,3352.7z"/>
		<path d="M1337.2,3358.3l0.6-0.7c0.5,0.7,1.3,1,2.1,1c2,0,3.7-1.6,3.7-6.1c-0.9,1.1-2,1.7-3.2,1.7c-2.2,0-3.6-1.4-3.6-3.9
			c0-2.4,1.6-4,3.5-4c2.5,0,4.2,2.1,4.2,6c0,5.3-2.2,7.2-4.7,7.2C1338.8,3359.5,1337.9,3359,1337.2,3358.3z M1340.7,3353.4
			c0.9,0,2.1-0.5,3-1.9c-0.2-2.6-1.2-4.3-3.2-4.3c-1.4,0-2.5,1.3-2.5,3.1C1338,3352.1,1338.8,3353.4,1340.7,3353.4z"/>
		<path d="M1346.7,3352.9c0-4.2,1.4-6.6,3.9-6.6c2.4,0,3.9,2.3,3.9,6.6s-1.4,6.6-3.9,6.6C1348.1,3359.5,1346.7,3357.1,1346.7,3352.9
			z M1353.4,3352.9c0-3.9-1.1-5.7-2.8-5.7c-1.7,0-2.8,1.8-2.8,5.7c0,3.9,1.1,5.8,2.8,5.8C1352.3,3358.7,1353.4,3356.8,1353.4,3352.9
			z"/>
		<path d="M1356.4,3352.9c0-4.2,1.4-6.6,3.9-6.6c2.4,0,3.9,2.3,3.9,6.6s-1.4,6.6-3.9,6.6C1357.8,3359.5,1356.4,3357.1,1356.4,3352.9
			z M1363,3352.9c0-3.9-1.1-5.7-2.8-5.7c-1.7,0-2.8,1.8-2.8,5.7c0,3.9,1.1,5.8,2.8,5.8C1361.9,3358.7,1363,3356.8,1363,3352.9z"/>
		<path d="M1366.7,3358.4h3v-10.3h-2.3v-0.7c1.1-0.2,1.9-0.5,2.5-0.8h0.8v11.8h2.7v0.9h-6.8V3358.4z"/>
		<path d="M1375.6,3361.8c1-0.5,1.6-1.3,1.6-2.4c-0.1,0-0.1,0-0.2,0c-0.5,0-0.9-0.3-0.9-0.9c0-0.6,0.5-0.9,1-0.9
			c0.6,0,1.1,0.6,1.1,1.5c0,1.5-0.9,2.7-2.2,3.3L1375.6,3361.8z"/>
		<path d="M1385.1,3346.2h1.1v13.1h-1.1V3346.2z"/>
		<path d="M1392.8,3346.2h1.1l4.6,13.1h-1.2l-1.5-4.4h-5.1l-1.5,4.4h-1.1L1392.8,3346.2z M1391.1,3354h4.5l-0.8-2.4
			c-0.5-1.5-1-2.9-1.4-4.5h-0.1c-0.5,1.6-0.9,3-1.4,4.5L1391.1,3354z"/>
		<path d="M1402.4,3347.1h-4.1v-0.9h9.4v0.9h-4.1v12.2h-1.1V3347.1z"/>
		<path d="M1410.1,3346.2h7.2v0.9h-6.2v5.1h5.2v0.9h-5.2v6.2h-1.1V3346.2z"/>
		<path d="M1423.5,3358.4h3v-10.3h-2.3v-0.7c1.1-0.2,1.9-0.5,2.5-0.8h0.8v11.8h2.7v0.9h-6.8V3358.4z"/>
		<path d="M1432.5,3353.5c0-5.3,2.2-7.2,4.7-7.2c1.2,0,2.1,0.5,2.8,1.3l-0.6,0.7c-0.5-0.7-1.3-1-2.2-1c-1.9,0-3.6,1.5-3.7,6.1
			c0.9-1,2-1.7,3.2-1.7c2.2,0,3.6,1.4,3.6,3.9c0,2.4-1.6,4-3.5,4C1434.1,3359.5,1432.5,3357.4,1432.5,3353.5z M1433.5,3354.3
			c0.2,2.6,1.2,4.3,3.2,4.3c1.4,0,2.5-1.3,2.5-3.1c0-1.8-0.8-3.1-2.7-3.1C1435.6,3352.5,1434.5,3353,1433.5,3354.3z"/>
		<path d="M1442.2,3358.3l0.6-0.7c0.5,0.7,1.3,1,2.1,1c2,0,3.7-1.6,3.7-6.1c-0.9,1.1-2,1.7-3.2,1.7c-2.2,0-3.6-1.4-3.6-3.9
			c0-2.4,1.6-4,3.5-4c2.5,0,4.2,2.1,4.2,6c0,5.3-2.3,7.2-4.7,7.2C1443.7,3359.5,1442.8,3359,1442.2,3358.3z M1445.6,3353.4
			c0.9,0,2.1-0.5,3-1.9c-0.2-2.6-1.2-4.3-3.2-4.3c-1.4,0-2.5,1.3-2.5,3.1C1442.9,3352.1,1443.7,3353.4,1445.6,3353.4z"/>
		<path d="M1456.8,3355.6h-5.8v-0.6l5.8-8.4h1v8.1h1.9v0.9h-1.9v3.7h-1V3355.6z M1456.8,3354.7v-4.5c0-0.6,0-1.6,0.1-2.3h-0.1
			c-0.3,0.5-0.7,1-1,1.6l-3.6,5.1H1456.8z"/>
		<path d="M1461.4,3358.3l0.6-0.7c0.5,0.7,1.3,1,2.1,1c2,0,3.7-1.6,3.7-6.1c-0.9,1.1-2,1.7-3.2,1.7c-2.2,0-3.6-1.4-3.6-3.9
			c0-2.4,1.6-4,3.5-4c2.5,0,4.2,2.1,4.2,6c0,5.3-2.2,7.2-4.7,7.2C1463,3359.5,1462.1,3359,1461.4,3358.3z M1464.8,3353.4
			c0.9,0,2.1-0.5,3-1.9c-0.2-2.6-1.2-4.3-3.2-4.3c-1.4,0-2.5,1.3-2.5,3.1C1462.2,3352.1,1463,3353.4,1464.8,3353.4z"/>
	</g>
	<g class="st3">
		<path d="M1306.3,3411.2h1.1v13.1h-1.1V3411.2z"/>
		<path d="M1310.2,3422.6l0.7-0.8c1,1.1,2.3,1.7,3.8,1.7c1.9,0,3.2-1,3.2-2.5c0-1.6-1-2.1-2.3-2.7l-2-0.9c-1.2-0.5-2.7-1.4-2.7-3.3
			c0-1.9,1.7-3.3,3.9-3.3c1.6,0,2.9,0.7,3.7,1.6l-0.6,0.7c-0.8-0.8-1.8-1.3-3.1-1.3c-1.7,0-2.8,0.9-2.8,2.2c0,1.5,1.3,2.1,2.2,2.5
			l2,0.9c1.5,0.7,2.8,1.5,2.8,3.5c0,2-1.7,3.6-4.2,3.6C1312.7,3424.5,1311.2,3423.8,1310.2,3422.6z"/>
		<path d="M1320.8,3417.7c0-4.2,2.3-6.8,5.4-6.8c3.2,0,5.5,2.6,5.5,6.8c0,4.2-2.3,6.8-5.5,6.8
			C1323.1,3424.5,1320.8,3421.9,1320.8,3417.7z M1330.6,3417.7c0-3.6-1.7-5.8-4.3-5.8c-2.6,0-4.3,2.2-4.3,5.8c0,3.6,1.7,5.9,4.3,5.9
			C1328.8,3423.6,1330.6,3421.3,1330.6,3417.7z"/>
		<path d="M1337.9,3423.3l0.6-0.7c0.5,0.7,1.3,1,2.1,1c2,0,3.7-1.6,3.7-6.1c-0.9,1.1-2,1.7-3.2,1.7c-2.2,0-3.6-1.4-3.6-3.9
			c0-2.4,1.6-4,3.5-4c2.5,0,4.2,2.1,4.2,6c0,5.3-2.3,7.2-4.7,7.2C1339.4,3424.5,1338.5,3424,1337.9,3423.3z M1341.3,3418.4
			c0.9,0,2.1-0.5,3-1.9c-0.2-2.6-1.2-4.3-3.2-4.3c-1.4,0-2.5,1.3-2.5,3.1C1338.7,3417.1,1339.5,3418.4,1341.3,3418.4z"/>
		<path d="M1347.4,3417.9c0-4.2,1.4-6.6,3.9-6.6c2.4,0,3.9,2.3,3.9,6.6s-1.4,6.6-3.9,6.6C1348.8,3424.5,1347.4,3422.1,1347.4,3417.9
			z M1354,3417.9c0-3.9-1.1-5.7-2.8-5.7c-1.7,0-2.8,1.8-2.8,5.7c0,3.9,1.1,5.8,2.8,5.8C1352.9,3423.7,1354,3421.8,1354,3417.9z"/>
		<path d="M1357,3417.9c0-4.2,1.4-6.6,3.9-6.6c2.4,0,3.9,2.3,3.9,6.6s-1.4,6.6-3.9,6.6C1358.4,3424.5,1357,3422.1,1357,3417.9z
			 M1363.7,3417.9c0-3.9-1.1-5.7-2.8-5.7c-1.7,0-2.8,1.8-2.8,5.7c0,3.9,1.1,5.8,2.8,5.8C1362.6,3423.7,1363.7,3421.8,1363.7,3417.9z
			"/>
		<path d="M1367.3,3423.4h3v-10.3h-2.3v-0.7c1.1-0.2,1.9-0.5,2.5-0.8h0.8v11.8h2.7v0.9h-6.8V3423.4z"/>
		<path d="M1376.2,3426.8c1-0.5,1.6-1.3,1.6-2.4c-0.1,0-0.1,0-0.2,0c-0.5,0-0.9-0.3-0.9-0.9c0-0.6,0.5-0.9,1-0.9
			c0.6,0,1.1,0.6,1.1,1.5c0,1.5-0.9,2.7-2.2,3.3L1376.2,3426.8z"/>
		<path d="M1385.7,3411.2h1.1v7.1h0l6.2-7.1h1.3l-4.2,4.9l4.8,8.2h-1.2l-4.2-7.4l-2.6,3v4.4h-1.1V3411.2z"/>
		<path d="M1395.9,3422.6l0.7-0.8c1,1.1,2.3,1.7,3.8,1.7c1.9,0,3.2-1,3.2-2.5c0-1.6-1-2.1-2.3-2.7l-2-0.9c-1.2-0.5-2.7-1.4-2.7-3.3
			c0-1.9,1.7-3.3,3.9-3.3c1.6,0,2.9,0.7,3.7,1.6l-0.6,0.7c-0.8-0.8-1.8-1.3-3.1-1.3c-1.7,0-2.8,0.9-2.8,2.2c0,1.5,1.3,2.1,2.2,2.5
			l2,0.9c1.5,0.7,2.8,1.5,2.8,3.5c0,2-1.7,3.6-4.2,3.6C1398.4,3424.5,1396.9,3423.8,1395.9,3422.6z"/>
		<path d="M1411.3,3411.2h1.4l2.7,7.5c0.3,1,0.7,1.9,1,2.9h0.1c0.3-1,0.6-1.9,1-2.9l2.7-7.5h1.4v13.1h-1v-8.3c0-1.1,0.1-2.5,0.1-3.6
			h-0.1l-1,2.9l-2.8,7.6h-0.9l-2.8-7.6l-1-2.9h-0.1c0.1,1.1,0.1,2.5,0.1,3.6v8.3h-1V3411.2z"/>
		<path d="M1429.2,3423.4h3v-10.3h-2.3v-0.7c1.1-0.2,1.9-0.5,2.5-0.8h0.8v11.8h2.7v0.9h-6.8V3423.4z"/>
		<path d="M1438.8,3423.4h3v-10.3h-2.3v-0.7c1.1-0.2,1.9-0.5,2.5-0.8h0.8v11.8h2.7v0.9h-6.8V3423.4z"/>
		<path d="M1448.4,3423.4h3v-10.3h-2.3v-0.7c1.1-0.2,1.9-0.5,2.5-0.8h0.8v11.8h2.7v0.9h-6.8V3423.4z"/>
		<path d="M1457.2,3423.7c4.1-4.2,6.2-6.5,6.2-8.7c0-1.5-0.8-2.7-2.7-2.7c-1.1,0-2.2,0.7-2.9,1.6l-0.7-0.6c1-1.1,2.1-1.9,3.7-1.9
			c2.3,0,3.6,1.4,3.6,3.6c0,2.5-2.3,4.9-5.7,8.6c0.7-0.1,1.5-0.1,2.2-0.1h4.2v0.9h-7.9V3423.7z"/>
	</g>
	<g class="st3">
		<path d="M1346.8,3476.2h1.1v13.1h-1.1V3476.2z"/>
		<path d="M1350.7,3487.6l0.7-0.8c1,1.1,2.3,1.7,3.8,1.7c1.9,0,3.2-1,3.2-2.5c0-1.6-1-2.1-2.3-2.7l-2-0.9c-1.2-0.5-2.7-1.4-2.7-3.3
			c0-1.9,1.7-3.3,3.9-3.3c1.6,0,2.9,0.7,3.7,1.6l-0.6,0.7c-0.8-0.8-1.8-1.3-3.1-1.3c-1.7,0-2.8,0.9-2.8,2.2c0,1.5,1.3,2.1,2.2,2.5
			l2,0.9c1.5,0.7,2.8,1.5,2.8,3.5c0,2-1.7,3.6-4.2,3.6C1353.2,3489.5,1351.7,3488.8,1350.7,3487.6z"/>
		<path d="M1361.3,3482.7c0-4.2,2.3-6.8,5.4-6.8c3.2,0,5.5,2.6,5.5,6.8c0,4.2-2.2,6.8-5.5,6.8
			C1363.5,3489.5,1361.3,3486.9,1361.3,3482.7z M1371.1,3482.7c0-3.6-1.7-5.8-4.3-5.8c-2.6,0-4.3,2.2-4.3,5.8c0,3.6,1.7,5.9,4.3,5.9
			C1369.3,3488.6,1371.1,3486.3,1371.1,3482.7z"/>
		<path d="M1378.4,3488.3l0.6-0.7c0.5,0.7,1.3,1,2.1,1c2,0,3.7-1.6,3.7-6.1c-0.9,1.1-2,1.7-3.2,1.7c-2.2,0-3.6-1.4-3.6-3.9
			c0-2.4,1.6-4,3.5-4c2.5,0,4.2,2.1,4.2,6c0,5.3-2.3,7.2-4.7,7.2C1379.9,3489.5,1379,3489,1378.4,3488.3z M1381.8,3483.4
			c0.9,0,2.1-0.5,3-1.9c-0.2-2.6-1.2-4.3-3.2-4.3c-1.4,0-2.5,1.3-2.5,3.1C1379.1,3482.1,1379.9,3483.4,1381.8,3483.4z"/>
		<path d="M1387.8,3482.9c0-4.2,1.4-6.6,3.9-6.6c2.4,0,3.9,2.3,3.9,6.6s-1.4,6.6-3.9,6.6C1389.2,3489.5,1387.8,3487.1,1387.8,3482.9
			z M1394.5,3482.9c0-3.9-1.1-5.7-2.8-5.7c-1.7,0-2.8,1.8-2.8,5.7c0,3.9,1.1,5.8,2.8,5.8C1393.4,3488.7,1394.5,3486.8,1394.5,3482.9
			z"/>
		<path d="M1397.5,3482.9c0-4.2,1.4-6.6,3.9-6.6c2.4,0,3.9,2.3,3.9,6.6s-1.4,6.6-3.9,6.6C1398.9,3489.5,1397.5,3487.1,1397.5,3482.9
			z M1404.2,3482.9c0-3.9-1.1-5.7-2.8-5.7c-1.7,0-2.8,1.8-2.8,5.7c0,3.9,1.1,5.8,2.8,5.8C1403,3488.7,1404.2,3486.8,1404.2,3482.9z"
			/>
		<path d="M1407.8,3488.4h3v-10.3h-2.3v-0.7c1.1-0.2,1.9-0.5,2.5-0.8h0.8v11.8h2.7v0.9h-6.8V3488.4z"/>
	</g>
	<line id="선_381" class="st2" x1="1093.8" y1="3060.3" x2="1093.8" y2="3514.5"/>
	<line id="선_348-7" class="st1" x1="740.4" y1="3514.3" x2="1659.5" y2="3514.3"/>
</g>
</svg>
