<?xml version="1.0" encoding="utf-8"?>
<!-- Generator: Adobe Illustrator 25.1.0, SVG Export Plug-In . SVG Version: 6.00 Build 0)  -->
<svg version="1.1" id="레이어_1" xmlns="http://www.w3.org/2000/svg" xmlns:xlink="http://www.w3.org/1999/xlink" x="0px"
	 y="0px" viewBox="0 0 208 333" style="enable-background:new 0 0 208 333;" xml:space="preserve">
<style type="text/css">
	.st0{enable-background:new    ;}
	.st1{fill:#DF1C2F;}
	.st2{fill:#929397;}
	.st3{fill:#A3A3A3;}
	.st4{fill:#E2E2E2;}
	.st5{fill:#42454A;}
	.st6{fill:#FFFFFF;}
</style>
<g id="그룹_5020" transform="translate(-1096 -2156.799)">
	<g class="st0">
		<path class="st1" d="M1149.5,2179.8l-3-5.6h-2.1v5.6h-3V2165h5.2c3.1,0,5.6,1.1,5.6,4.5c0,2.2-1.1,3.6-2.8,4.3l3.5,6.1H1149.5z
			 M1144.4,2171.9h1.9c1.9,0,2.9-0.8,2.9-2.4c0-1.6-1-2.1-2.9-2.1h-1.9V2171.9z"/>
		<path class="st1" d="M1166.9,2180.1c-1.2-0.3-2.4-0.8-3.7-1.6c-1.2,1-2.7,1.6-4.5,1.6c-3.1,0-4.8-1.9-4.8-4.2
			c0-2.1,1.3-3.3,2.8-4.2c-0.6-1.1-0.9-2.2-0.9-3.2c0-2.1,1.5-3.8,3.9-3.8c2.1,0,3.4,1.3,3.4,3.2c0,2-1.6,3.2-3.2,4.3
			c0.9,1.1,2,2.2,3.2,3.1c0.8-1,1.4-2.3,1.8-3.8h2.7c-0.5,1.8-1.4,3.5-2.5,5.1c1,0.5,1.9,0.9,2.6,1.1L1166.9,2180.1z M1159,2177.8
			c0.7,0,1.5-0.3,2.2-0.7c-1.3-1-2.4-2.2-3.3-3.5c-0.7,0.6-1.2,1.3-1.2,2.1C1156.6,2177,1157.6,2177.8,1159,2177.8z M1158.6,2170.5
			c1.2-0.7,2.1-1.4,2.1-2.5c0-0.7-0.3-1.3-1.1-1.3c-0.9,0-1.5,0.7-1.5,1.8C1158.1,2169.1,1158.3,2169.8,1158.6,2170.5z"/>
		<path class="st1" d="M1169.8,2165h4.1c4.5,0,7.3,2.3,7.3,7.3c0,5-2.8,7.5-7.2,7.5h-4.2V2165z M1173.7,2177.4
			c2.8,0,4.5-1.5,4.5-5.1c0-3.6-1.7-5-4.5-5h-0.9v10.1H1173.7z"/>
		<path class="st1" d="M1199.8,2176.2h-7v5.4h-2.6v-5.4h-7v-2.1h16.7V2176.2z M1198.1,2172.7h-12.9v-8.9h12.7v2.1h-10.1v1.3h9.7v2
			h-9.7v1.4h10.2V2172.7z"/>
		<path class="st1" d="M1208.3,2168.1c0,2.8,1.5,6.1,4.5,7.5l-1.5,2.1c-2-0.9-3.5-2.8-4.3-5c-0.8,2.4-2.3,4.4-4.4,5.4l-1.5-2.1
			c3-1.4,4.5-4.9,4.5-7.9v-1h-3.8v-2.2h10.1v2.2h-3.7V2168.1z M1218.6,2172.3h-2.7v9.2h-2.6v-18.4h2.6v7h2.7V2172.3z"/>
		<path class="st1" d="M1236.6,2170.6v2.1h-16.7v-2.1h11.7c0.4-1.8,0.4-3.3,0.4-4.5H1222v-2.1h12.7v1.5c0,1.5,0,3-0.4,5.2H1236.6z
			 M1221.9,2174.6h12.7v6.7h-12.7V2174.6z M1224.5,2179.2h7.5v-2.6h-7.5V2179.2z"/>
		<path class="st1" d="M1242.6,2173.2c-2.4,0-4.2-1.8-4.2-4.5c0-2.6,1.8-4.5,4.2-4.5s4.2,1.9,4.2,4.5
			C1246.8,2171.4,1245.1,2173.2,1242.6,2173.2z M1242.6,2171c1.1,0,1.8-0.8,1.8-2.3c0-1.4-0.8-2.3-1.8-2.3s-1.8,0.9-1.8,2.3
			C1240.8,2170.2,1241.5,2171,1242.6,2171z M1241.4,2174.9h12.7v6.6h-2.6v-4.5h-10V2174.9z M1254,2163.1v11h-2.5v-4.4h-1.4v4.4h-2.5
			v-10.6h2.5v4.1h1.4v-4.5H1254z"/>
	</g>
	<g class="st0">
		<path class="st2" d="M1175.7,2203.5c-1.7,0.3-3.2,0.4-5.8,0.4h-1v-5.8h5.6v0.9h-4.4v3.9c2.5,0,3.9-0.1,5.5-0.4L1175.7,2203.5z
			 M1171.4,2208.4h7.2v0.9h-8.4v-4.1h1.1V2208.4z M1179.9,2200.8v1h-1.9v4.4h-1.1v-9.1h1.1v3.7H1179.9z"/>
		<path class="st2" d="M1189.6,2204.3c-1.2,0.2-2.4,0.4-3.6,0.4v4.5h-1.1v-4.5c-1.2,0.1-2.4,0.1-3.5,0.1l-0.2-1c2.3,0,5.5,0,8.3-0.4
			L1189.6,2204.3z M1182.1,2200.3c0-1.5,1.3-2.6,3.2-2.6c1.9,0,3.2,1,3.2,2.6c0,1.5-1.3,2.6-3.2,2.6
			C1183.5,2202.8,1182.1,2201.8,1182.1,2200.3z M1183.2,2200.3c0,1,0.9,1.6,2.1,1.6c1.2,0,2.1-0.7,2.1-1.6s-0.9-1.6-2.1-1.6
			C1184.1,2198.6,1183.2,2199.3,1183.2,2200.3z M1191.5,2197.1v12.6h-1.1v-12.6H1191.5z"/>
		<path class="st2" d="M1197.5,2202.2c0-0.6,0.4-1,0.9-1c0.5,0,0.9,0.4,0.9,1c0,0.6-0.4,1-0.9,1
			C1197.9,2203.1,1197.5,2202.7,1197.5,2202.2z M1197.5,2207.8c0-0.6,0.4-1,0.9-1c0.5,0,0.9,0.4,0.9,1s-0.4,1-0.9,1
			C1197.9,2208.8,1197.5,2208.4,1197.5,2207.8z"/>
		<path class="st2" d="M1214.6,2197.1v7.4h-1.2v-3.2h-2.6c-0.2,1.5-1.5,2.6-3.2,2.6c-1.9,0-3.2-1.2-3.2-3c0-1.8,1.4-3,3.2-3
			c1.7,0,3,1,3.2,2.5h2.6v-3.2H1214.6z M1209.8,2200.8c0-1.2-0.9-2-2.1-2c-1.2,0-2.1,0.9-2.1,2c0,1.2,0.9,2.1,2.1,2.1
			C1208.9,2202.8,1209.8,2202,1209.8,2200.8z M1206.2,2205.2h8.4v4.5h-1.2v-3.5h-7.2V2205.2z"/>
		<path class="st2" d="M1223.8,2203.8c-1.2,0.1-2.5,0.1-3.5,0.1l-0.2-1c2.3,0,5.4,0,8.1-0.4l0.1,0.8c-1.1,0.2-2.3,0.3-3.4,0.4v2.5
			h-1.1V2203.8z M1221.2,2199.8c0-1.3,1.3-2.2,3.1-2.2s3.1,0.9,3.1,2.2c0,1.3-1.3,2.2-3.1,2.2S1221.2,2201.1,1221.2,2199.8z
			 M1230.9,2208.4v0.9h-8.9v-3.7h1.1v2.7H1230.9z M1222.3,2199.8c0,0.8,0.8,1.3,2,1.3c1.2,0,2-0.5,2-1.3c0-0.8-0.8-1.3-2-1.3
			C1223.1,2198.4,1222.3,2199,1222.3,2199.8z M1229.4,2204.5v-7.4h1.1v9.6h-1.1v-1.3h-2.5v-0.9H1229.4z"/>
	</g>
	<g class="st0">
		<path class="st3" d="M1109.1,2356.9h-2v-2.3h4.6v16h-2.5V2356.9z"/>
		<path class="st3" d="M1118.2,2366.3c0.3,1.4,1.2,2.2,2.9,2.2c2,0,3-1.3,3-5.4c-0.7,1-2.1,1.6-3.6,1.6c-2.8,0-5.1-1.7-5.1-5.1
			c0-3.2,2-5.3,5.3-5.3c4.1,0,5.5,2.8,5.5,8.1c0,5.4-1.1,8.3-5.3,8.3c-3.3,0-4.9-2-5.1-4.3H1118.2z M1123.8,2359.6
			c0-2-1.2-3.2-3-3.2c-1.9,0-3,1.3-3,3.1c0,1.7,0.9,3.1,3.1,3.1C1122.8,2362.6,1123.8,2361.4,1123.8,2359.6z"/>
		<path class="st3" d="M1136.7,2367.3h-8v-1.9l7.4-10.6h3v10.3h2v2.2h-2v3.3h-2.5V2367.3z M1136.8,2365.2v-7.8l-5.2,7.8H1136.8z"/>
	</g>
	<g class="st0">
		<path class="st3" d="M1181.3,2340.9c3.8-3.3,7.8-6.2,7.8-9.4c0-1.7-0.7-2.8-2.6-2.8c-1.8,0-2.7,1.2-2.8,3h-2.4
			c0.1-3.5,2.3-5.2,5.2-5.2c3.3,0,5.1,2,5.1,4.8c0,3.9-4,6.9-6.5,9.2h7v2.1h-10.7V2340.9z"/>
		<path class="st3" d="M1199.4,2326.5c3.2,0,4.9,1.8,4.9,4.2c0,1.9-1.2,3.2-2.5,3.6v0.1c1.7,0.5,2.8,1.9,2.8,4.1
			c0,2.6-1.8,4.5-5.1,4.5c-3,0-5.4-1.6-5.5-4.7h2.4c0.1,1.5,1.2,2.6,3.1,2.6c1.9,0,2.8-1.1,2.8-2.6c0-2.1-1.4-2.8-4-2.8h-0.6v-2.1
			h0.6c2.3,0,3.7-0.7,3.7-2.4c0-1.4-0.9-2.3-2.6-2.3c-1.8,0-2.6,1.1-2.7,2.2h-2.4C1194.3,2328.1,1196.4,2326.5,1199.4,2326.5z"/>
		<path class="st3" d="M1210.3,2338.6c0.3,1.4,1.2,2.2,2.9,2.2c2,0,3-1.3,3-5.4c-0.7,1-2.1,1.6-3.6,1.6c-2.8,0-5.1-1.7-5.1-5.1
			c0-3.2,2-5.3,5.3-5.3c4.1,0,5.5,2.8,5.5,8.1c0,5.4-1.1,8.3-5.3,8.3c-3.3,0-4.9-2-5.1-4.3H1210.3z M1216,2331.8c0-2-1.2-3.2-3-3.2
			c-1.9,0-3,1.3-3,3.1c0,1.7,0.9,3.1,3.1,3.1C1214.9,2334.8,1216,2333.6,1216,2331.8z"/>
	</g>
	<g class="st0">
		<path class="st1" d="M1257.3,2348.2c3.6-3.1,7.4-5.9,7.4-8.9c0-1.4-0.6-2.4-2.2-2.4c-1.5,0-2.3,1.1-2.3,2.8h-3
			c0.1-3.7,2.5-5.4,5.3-5.4c3.5,0,5.2,2,5.2,4.8c0,3.7-3.6,6.6-6.1,8.8h6.5v2.6h-10.9V2348.2z"/>
		<path class="st1" d="M1270,2348.2c3.6-3.1,7.4-5.9,7.4-8.9c0-1.4-0.6-2.4-2.2-2.4c-1.5,0-2.3,1.1-2.3,2.8h-3
			c0.1-3.7,2.5-5.4,5.3-5.4c3.5,0,5.2,2,5.2,4.8c0,3.7-3.6,6.6-6.1,8.8h6.5v2.6H1270V2348.2z"/>
		<path class="st1" d="M1291.1,2338.7c-0.3-1.2-0.9-1.8-2.3-1.8c-2,0-2.9,1.5-3,5.2c0.7-1.2,2.2-1.9,3.7-1.9c2.9,0,4.9,1.9,4.9,5.2
			c0,3.1-1.9,5.4-5.3,5.4c-4.8,0-5.9-3.3-5.9-8.3c0-5.2,1.7-8.1,5.8-8.1c3.3,0,4.8,2.1,5.1,4.4H1291.1z M1286.1,2345.3
			c0,1.7,1,2.8,2.8,2.8c1.6,0,2.6-1,2.6-2.7s-0.9-2.8-2.6-2.8C1287.4,2342.7,1286.1,2343.5,1286.1,2345.3z"/>
	</g>
	<path id="패스_2700" class="st4" d="M1096,2489.8h56v-99.5h-56V2489.8z"/>
	<path id="패스_2701" class="st4" d="M1172,2489.8h56v-127.3h-56V2489.8z"/>
	<path id="패스_2702" class="st1" d="M1248,2489.8h56v-119h-56V2489.8z"/>
	<g class="st0">
		<path class="st5" d="M1110.3,2474.8c2.2-2,4.6-3.7,4.6-5.5c0-1-0.4-1.7-1.5-1.7c-1,0-1.6,0.7-1.6,1.8h-1.4
			c0.1-2.1,1.4-3.1,3.1-3.1c1.9,0,3,1.2,3,2.9c0,2.3-2.3,4.1-3.9,5.4h4.1v1.2h-6.3V2474.8z"/>
		<path class="st5" d="M1121.3,2466.4c2.7,0,3.4,2.1,3.4,4.8c0,2.8-0.7,4.8-3.4,4.8s-3.4-2.1-3.4-4.8
			C1117.9,2468.4,1118.7,2466.4,1121.3,2466.4z M1121.3,2467.7c-1.7,0-1.9,1.7-1.9,3.4c0,1.9,0.2,3.5,1.9,3.5s1.9-1.6,1.9-3.5
			C1123.2,2469.4,1123.1,2467.7,1121.3,2467.7z"/>
		<path class="st5" d="M1127.3,2467.9h-1.2v-1.4h2.7v9.5h-1.5V2467.9z"/>
		<path class="st5" d="M1131.1,2468.9c0-1.4,1-2.6,3.1-2.6c2.1,0,3.1,1.2,3.1,2.6c0,1-0.6,1.8-1.4,2.1c1,0.4,1.6,1.2,1.6,2.3
			c0,1.7-1.4,2.8-3.4,2.8c-1.9,0-3.4-1.1-3.4-2.8c0-1.1,0.6-2,1.6-2.3C1131.6,2470.6,1131.1,2470,1131.1,2468.9z M1132.3,2473.3
			c0,1,0.7,1.7,1.9,1.7c1.2,0,1.9-0.7,1.9-1.7c0-1.1-0.8-1.6-1.9-1.6C1133.1,2471.7,1132.3,2472.2,1132.3,2473.3z M1135.9,2469.1
			c0-1-0.7-1.5-1.7-1.5c-1,0-1.7,0.5-1.7,1.5c0,0.9,0.7,1.5,1.7,1.5C1135.2,2470.6,1135.9,2470,1135.9,2469.1z"/>
	</g>
	<g class="st0">
		<path class="st5" d="M1186.3,2474.8c2.2-2,4.6-3.7,4.6-5.5c0-1-0.4-1.7-1.5-1.7c-1,0-1.6,0.7-1.6,1.8h-1.4
			c0.1-2.1,1.4-3.1,3.1-3.1c1.9,0,3,1.2,3,2.9c0,2.3-2.3,4.1-3.9,5.4h4.1v1.2h-6.3V2474.8z"/>
		<path class="st5" d="M1197.3,2466.4c2.7,0,3.4,2.1,3.4,4.8c0,2.8-0.7,4.8-3.4,4.8s-3.4-2.1-3.4-4.8
			C1194,2468.4,1194.7,2466.4,1197.3,2466.4z M1197.3,2467.7c-1.7,0-1.9,1.7-1.9,3.4c0,1.9,0.2,3.5,1.9,3.5s1.9-1.6,1.9-3.5
			C1199.3,2469.4,1199.1,2467.7,1197.3,2467.7z"/>
		<path class="st5" d="M1203.3,2467.9h-1.2v-1.4h2.7v9.5h-1.5V2467.9z"/>
		<path class="st5" d="M1208.7,2473.4c0.2,0.8,0.7,1.3,1.7,1.3c1.2,0,1.8-0.8,1.8-3.2c-0.4,0.6-1.2,0.9-2.1,0.9c-1.7,0-3-1-3-3
			c0-1.9,1.2-3.1,3.1-3.1c2.4,0,3.3,1.7,3.3,4.8c0,3.2-0.7,4.9-3.2,4.9c-2,0-2.9-1.2-3-2.6H1208.7z M1212,2469.4
			c0-1.2-0.7-1.9-1.8-1.9c-1.1,0-1.8,0.8-1.8,1.9c0,1,0.5,1.8,1.9,1.8C1211.4,2471.2,1212,2470.5,1212,2469.4z"/>
	</g>
	<g class="st0">
		<path class="st6" d="M1260.7,2474.5c2.1-1.8,4.4-3.5,4.4-5.2c0-0.8-0.4-1.4-1.3-1.4c-0.9,0-1.4,0.6-1.4,1.6h-1.8
			c0.1-2.2,1.5-3.2,3.2-3.2c2,0,3.1,1.2,3.1,2.9c0,2.2-2.1,3.9-3.6,5.2h3.8v1.5h-6.4V2474.5z"/>
		<path class="st6" d="M1271.8,2466.3c2.7,0,3.5,2.1,3.5,4.8c0,2.8-0.8,4.8-3.5,4.8c-2.7,0-3.5-2.1-3.5-4.8
			C1268.3,2468.4,1269.1,2466.3,1271.8,2466.3z M1271.8,2468c-1.5,0-1.7,1.5-1.7,3.1c0,1.7,0.2,3.1,1.7,3.1s1.7-1.5,1.7-3.1
			C1273.5,2469.5,1273.3,2468,1271.8,2468z"/>
		<path class="st6" d="M1276.6,2474.5c2.1-1.8,4.4-3.5,4.4-5.2c0-0.8-0.4-1.4-1.3-1.4c-0.9,0-1.4,0.6-1.4,1.6h-1.8
			c0.1-2.2,1.5-3.2,3.2-3.2c2,0,3.1,1.2,3.1,2.9c0,2.2-2.1,3.9-3.6,5.2h3.8v1.5h-6.4V2474.5z"/>
		<path class="st6" d="M1287.7,2466.3c2.7,0,3.5,2.1,3.5,4.8c0,2.8-0.8,4.8-3.5,4.8c-2.7,0-3.5-2.1-3.5-4.8
			C1284.2,2468.4,1285,2466.3,1287.7,2466.3z M1287.7,2468c-1.5,0-1.7,1.5-1.7,3.1c0,1.7,0.2,3.1,1.7,3.1s1.7-1.5,1.7-3.1
			C1289.4,2469.5,1289.2,2468,1287.7,2468z"/>
	</g>
</g>
</svg>
