<?xml version="1.0" encoding="utf-8"?>
<!-- Generator: Adobe Illustrator 25.1.0, SVG Export Plug-In . SVG Version: 6.00 Build 0)  -->
<svg version="1.1" id="레이어_1" xmlns="http://www.w3.org/2000/svg" xmlns:xlink="http://www.w3.org/1999/xlink" x="0px"
	 y="0px" viewBox="0 0 335 168.5" style="enable-background:new 0 0 335 168.5;" xml:space="preserve">
<style type="text/css">
	.st0{enable-background:new    ;}
	.st1{fill:#DF1C2F;}
	.st2{fill:#929397;}
	.st3{fill:#E2E2E2;}
	.st4{fill:#808080;}
	.st5{fill:#A3A3A3;}
	.st6{fill:#FFFFFF;}
	.st7{fill:none;stroke:#D5D5D5;}
</style>
<g id="그룹_5715" transform="translate(-20 -1355.269)">
	<g id="그룹_5693" transform="translate(0 -31.561)">
		<g class="st0">
			<path class="st1" d="M25.4,1394c0,2.3,0.9,4.7,3,5.7l-1.1,1.5c-1.3-0.7-2.3-1.9-2.8-3.5c-0.6,1.6-1.5,3-3,3.7l-1.1-1.5
				c2.2-1,3.2-3.5,3.2-5.9v-1.9h1.9V1394z M32.6,1397.6h-1.9v6.4h-1.8v-12.9h1.8v5h1.9V1397.6z"/>
			<path class="st1" d="M44.3,1391.1v6.9h-1.8v-2.6h-2c-0.4,1.4-1.7,2.4-3.3,2.4c-1.9,0-3.4-1.3-3.4-3.1s1.5-3.1,3.4-3.1
				c1.6,0,3,0.9,3.3,2.3h2.1v-2.8H44.3z M38.7,1394.7c0-1-0.7-1.5-1.6-1.5c-0.9,0-1.6,0.6-1.6,1.5c0,1,0.7,1.5,1.6,1.5
				C38,1396.3,38.7,1395.7,38.7,1394.7z M42.4,1398.6h1.8v5.3h-8.5v-5.3h1.8v1.2h4.9V1398.6z M42.4,1401.3h-4.9v1.1h4.9V1401.3z"/>
			<path class="st1" d="M58,1400h-5v4h-1.8v-4h-4.9v-1.5H58V1400z M56.7,1397.3h-9v-5.7h1.8v1.5h5.3v-1.5h1.8V1397.3z M54.8,1394.5
				h-5.3v1.3h5.3V1394.5z"/>
			<path class="st1" d="M70.9,1397.5v1.5h-4.7v2.2h-1.8v-2.2h-5.1v-1.5H70.9z M62.4,1402.3h7.2v1.5h-9v-3.7h1.8V1402.3z
				 M69.4,1396.5h-8.8v-4.8h8.8V1396.5z M67.6,1393.1h-5.1v1.9h5.1V1393.1z"/>
			<path class="st1" d="M78.8,1397.4h-6.1v-5.7h1.8v1.5H77v-1.5h1.8v1.1h2.3v-1.6h1.8v6.6h-1.8v-1.2h-2.3V1397.4z M83.3,1402.5v1.4
				h-8.9v-3.5h6.7v-0.7h-6.7v-1.4h8.5v3.4h-6.7v0.8H83.3z M77,1394.6h-2.5v1.4H77V1394.6z M78.8,1394.2v1h2.3v-1H78.8z"/>
			<path class="st1" d="M99.8,1397.6v1.4H88.2v-1.4h4.9v-1.2h1.8v1.2H99.8z M88.7,1395.6c2.8-0.2,4-1,4.3-1.8h-3.6v-1.4h3.8v-1.1
				h1.8v1.1h3.8v1.4h-3.6c0.2,0.9,1.5,1.7,4.3,1.8l-0.5,1.4c-2.4-0.2-4-0.8-4.8-1.8c-0.8,1-2.4,1.7-4.8,1.8L88.7,1395.6z
				 M98.5,1401.8c0,1.4-1.7,2.2-4.5,2.2s-4.5-0.8-4.5-2.2s1.7-2.2,4.5-2.2S98.5,1400.4,98.5,1401.8z M96.6,1401.8
				c0-0.6-0.9-0.8-2.6-0.8s-2.6,0.2-2.6,0.8c0,0.6,0.9,0.8,2.6,0.8S96.6,1402.4,96.6,1401.8z"/>
			<path class="st1" d="M104.6,1392.5h5.1v8.4h-5.1V1392.5z M106.3,1399.4h1.7v-5.5h-1.7V1399.4z M115.3,1391.1v12.9h-1.8v-6.5h-1.1
				v5.9h-1.7v-12.1h1.7v4.7h1.1v-4.9H115.3z"/>
			<path class="st1" d="M123.9,1398v0.8h3.5v3.2h-7.1v0.7h7.4v1.3h-9.2v-3.2h7.1v-0.6h-7.1v-1.3h3.6v-0.8h-4.9v-1.4h11.6v1.4H123.9z
				 M117.6,1394.9c2.6-0.1,3.9-0.7,4.2-1.5h-3.6v-1.3h3.8v-1h1.8v1h3.8v1.3h-3.6c0.4,0.7,1.6,1.3,4.2,1.5l-0.5,1.4
				c-2.4-0.1-4-0.7-4.8-1.7c-0.8,1-2.4,1.5-4.8,1.7L117.6,1394.9z"/>
			<path class="st1" d="M133,1398.2c-1.7,0-3-1.3-3-3.2c0-1.8,1.2-3.2,3-3.2s2.9,1.3,2.9,3.2C135.9,1396.9,134.7,1398.2,133,1398.2z
				 M133,1396.7c0.8,0,1.3-0.6,1.3-1.6c0-1-0.5-1.6-1.3-1.6s-1.3,0.6-1.3,1.6C131.7,1396.1,132.2,1396.7,133,1396.7z M132.1,1399.4
				h8.9v4.6h-1.8v-3.2h-7V1399.4z M141,1391.1v7.7h-1.8v-3.1h-1v3.1h-1.7v-7.4h1.7v2.9h1v-3.1H141z"/>
		</g>
		<g class="st0">
			<path class="st2" d="M26.4,1419.8c-1.4,0.3-2.5,0.3-4.6,0.3H21v-4.5h4.4v0.7h-3.5v3.1c1.9,0,3.1-0.1,4.4-0.3L26.4,1419.8z
				 M23,1423.6h5.7v0.7h-6.6v-3.2H23V1423.6z M29.7,1417.7v0.7h-1.5v3.5h-0.9v-7.1h0.9v2.9H29.7z"/>
			<path class="st2" d="M37.3,1420.4c-0.9,0.2-1.9,0.3-2.8,0.3v3.6h-0.9v-3.5c-1,0-1.9,0.1-2.7,0.1l-0.1-0.8c1.8,0,4.3,0,6.5-0.4
				L37.3,1420.4z M31.4,1417.2c0-1.2,1-2,2.5-2c1.5,0,2.5,0.8,2.5,2c0,1.2-1,2-2.5,2C32.5,1419.2,31.4,1418.4,31.4,1417.2z
				 M32.3,1417.2c0,0.8,0.7,1.3,1.6,1.3c1,0,1.6-0.5,1.6-1.3c0-0.8-0.7-1.3-1.6-1.3C33,1415.9,32.3,1416.5,32.3,1417.2z
				 M38.8,1414.7v9.9h-0.9v-9.9H38.8z"/>
			<path class="st2" d="M43.5,1418.7c0-0.5,0.3-0.8,0.7-0.8s0.7,0.3,0.7,0.8c0,0.4-0.3,0.8-0.7,0.8S43.5,1419.2,43.5,1418.7z
				 M43.5,1423.2c0-0.5,0.3-0.8,0.7-0.8s0.7,0.3,0.7,0.8s-0.3,0.8-0.7,0.8S43.5,1423.6,43.5,1423.2z"/>
			<path class="st2" d="M54.3,1419.7c-1.1-0.4-2-1.2-2.5-2.3c-0.4,1.1-1.3,2-2.5,2.5l-0.5-0.7c1.5-0.5,2.5-1.8,2.5-3.2v-0.9h0.9v0.9
				c0,1.4,1,2.6,2.5,3.1L54.3,1419.7z M56,1420.5h0.9v3.9h-6.4v-3.9h0.9v1.2H56V1420.5z M56,1422.4h-4.6v1.3H56V1422.4z
				 M56.9,1414.7v5.3H56v-5.3H56.9z"/>
			<path class="st2" d="M67.1,1414.7v5.8h-0.9v-2.5h-2c-0.2,1.2-1.2,2-2.5,2c-1.5,0-2.5-1-2.5-2.4c0-1.4,1.1-2.4,2.5-2.4
				c1.3,0,2.3,0.8,2.5,2h2v-2.5H67.1z M63.3,1417.6c0-0.9-0.7-1.6-1.7-1.6c-1,0-1.7,0.7-1.7,1.6c0,0.9,0.7,1.6,1.7,1.6
				C62.6,1419.3,63.3,1418.6,63.3,1417.6z M60.5,1421.1h6.6v3.5h-0.9v-2.8h-5.7V1421.1z"/>
			<path class="st2" d="M74.3,1420c-1,0-1.9,0.1-2.7,0.1l-0.1-0.7c1.8,0,4.3,0,6.4-0.3l0.1,0.6c-0.9,0.1-1.8,0.2-2.7,0.3v1.9h-0.9
				V1420z M72.2,1416.8c0-1,1-1.7,2.4-1.7c1.4,0,2.4,0.7,2.4,1.7c0,1.1-1,1.7-2.4,1.7C73.2,1418.6,72.2,1417.9,72.2,1416.8z
				 M79.8,1423.6v0.7h-7v-2.9h0.9v2.1H79.8z M73.1,1416.8c0,0.6,0.6,1.1,1.6,1.1c0.9,0,1.6-0.4,1.6-1.1c0-0.6-0.6-1-1.6-1
				C73.7,1415.8,73.1,1416.2,73.1,1416.8z M78.7,1420.6v-5.8h0.9v7.5h-0.9v-1h-2v-0.7H78.7z"/>
		</g>
		<path id="패스_4980" class="st3" d="M148,1554.6h46v-110h-46V1554.6z"/>
		<g class="st0">
			<path class="st4" d="M160.5,1545.7c1.7-1.5,3.5-2.8,3.5-4.3c0-0.8-0.3-1.3-1.2-1.3c-0.8,0-1.2,0.6-1.3,1.4h-1.1
				c0-1.6,1.1-2.3,2.3-2.3c1.5,0,2.3,0.9,2.3,2.2c0,1.8-1.8,3.1-3,4.2h3.2v1h-4.9V1545.7z"/>
			<path class="st4" d="M168.9,1539.2c2,0,2.6,1.6,2.6,3.7c0,2.1-0.6,3.7-2.6,3.7s-2.6-1.6-2.6-3.7
				C166.3,1540.8,166.9,1539.2,168.9,1539.2z M168.9,1540.2c-1.3,0-1.5,1.3-1.5,2.6c0,1.4,0.1,2.7,1.5,2.7s1.5-1.2,1.5-2.7
				C170.4,1541.5,170.3,1540.2,168.9,1540.2z"/>
			<path class="st4" d="M173.5,1540.3h-0.9v-1h2.1v7.3h-1.1V1540.3z"/>
			<path class="st4" d="M176.4,1541.1c0-1.1,0.8-2,2.4-2c1.6,0,2.4,0.9,2.4,2c0,0.8-0.4,1.3-1,1.6c0.7,0.3,1.2,0.9,1.2,1.8
				c0,1.3-1.1,2.2-2.6,2.2c-1.5,0-2.6-0.9-2.6-2.2c0-0.9,0.5-1.5,1.2-1.8C176.9,1542.5,176.4,1542,176.4,1541.1z M177.3,1544.5
				c0,0.7,0.6,1.3,1.5,1.3c0.9,0,1.5-0.5,1.5-1.3c0-0.8-0.6-1.3-1.5-1.3C178,1543.3,177.3,1543.7,177.3,1544.5z M180.1,1541.3
				c0-0.8-0.5-1.2-1.3-1.2c-0.8,0-1.3,0.4-1.3,1.2c0,0.7,0.5,1.1,1.3,1.1C179.6,1542.4,180.1,1541.9,180.1,1541.3z"/>
		</g>
		<g class="st0">
			<path class="st5" d="M159,1424.4c2.3,0,3.6,1.3,3.6,3c0,1.4-0.9,2.3-1.8,2.6v0.1c1.2,0.4,2,1.4,2,3c0,1.9-1.3,3.3-3.7,3.3
				c-2.2,0-3.9-1.2-4-3.4h1.8c0.1,1.1,0.9,1.9,2.3,1.9c1.4,0,2-0.8,2-1.9c0-1.5-1-2.1-2.9-2.1h-0.4v-1.5h0.4c1.6,0,2.7-0.5,2.7-1.7
				c0-1-0.7-1.7-1.9-1.7c-1.3,0-1.9,0.8-2,1.6h-1.8C155.3,1425.6,156.9,1424.4,159,1424.4z"/>
			<path class="st5" d="M165,1434.2h2l-1.9,4.4h-1.2L165,1434.2z"/>
			<path class="st5" d="M169.5,1426.4h-1.5v-1.7h3.3v11.7h-1.8V1426.4z"/>
			<path class="st5" d="M175.1,1426.4h-1.5v-1.7h3.3v11.7h-1.8V1426.4z"/>
			<path class="st5" d="M179.4,1434.9c2.8-2.4,5.7-4.5,5.7-6.8c0-1.2-0.5-2-1.9-2c-1.3,0-2,0.9-2,2.2h-1.8c0.1-2.5,1.7-3.8,3.8-3.8
				c2.4,0,3.7,1.4,3.7,3.5c0,2.8-2.9,5-4.8,6.7h5.1v1.5h-7.8V1434.9z"/>
		</g>
		<path id="패스_4982" class="st3" d="M218,1554.6h46v-89.4h-46V1554.6z"/>
		<g class="st0">
			<path class="st4" d="M230.5,1545.7c1.7-1.5,3.5-2.8,3.5-4.3c0-0.8-0.3-1.3-1.2-1.3c-0.8,0-1.2,0.6-1.3,1.4h-1.1
				c0-1.6,1.1-2.3,2.3-2.3c1.5,0,2.3,0.9,2.3,2.2c0,1.8-1.8,3.1-3,4.2h3.2v1h-4.9V1545.7z"/>
			<path class="st4" d="M239,1539.2c2,0,2.6,1.6,2.6,3.7c0,2.1-0.6,3.7-2.6,3.7s-2.6-1.6-2.6-3.7
				C236.4,1540.8,236.9,1539.2,239,1539.2z M239,1540.2c-1.3,0-1.5,1.3-1.5,2.6c0,1.4,0.1,2.7,1.5,2.7s1.5-1.2,1.5-2.7
				C240.4,1541.5,240.3,1540.2,239,1540.2z"/>
			<path class="st4" d="M243.5,1540.3h-0.9v-1h2.1v7.3h-1.1V1540.3z"/>
			<path class="st4" d="M247.7,1544.6c0.1,0.6,0.6,1,1.3,1c0.9,0,1.4-0.6,1.4-2.5c-0.3,0.5-1,0.7-1.6,0.7c-1.3,0-2.3-0.8-2.3-2.3
				c0-1.4,0.9-2.4,2.4-2.4c1.9,0,2.5,1.3,2.5,3.7c0,2.5-0.5,3.8-2.4,3.8c-1.5,0-2.2-0.9-2.3-2H247.7z M250.2,1541.5
				c0-0.9-0.5-1.5-1.4-1.5c-0.8,0-1.4,0.6-1.4,1.4c0,0.8,0.4,1.4,1.4,1.4C249.8,1542.9,250.2,1542.4,250.2,1541.5z"/>
		</g>
		<g class="st0">
			<path class="st5" d="M220,1455.5c2.8-2.4,5.7-4.5,5.7-6.8c0-1.2-0.5-2-1.9-2c-1.3,0-2,0.9-2,2.2H220c0.1-2.5,1.7-3.8,3.8-3.8
				c2.4,0,3.7,1.4,3.7,3.5c0,2.8-2.9,5-4.8,6.7h5.1v1.5H220V1455.5z"/>
			<path class="st5" d="M229.7,1454.8h2l-1.9,4.4h-1.2L229.7,1454.8z"/>
			<path class="st5" d="M239.3,1448c-0.2-0.9-0.8-1.5-1.9-1.5c-1.6,0-2.5,1.1-2.5,4.2c0.6-1,1.7-1.5,2.9-1.5c2.1,0,3.6,1.4,3.6,3.8
				c0,2.2-1.3,3.9-3.8,3.9c-3.4,0-4.3-2.4-4.3-6.1c0-3.6,1.2-5.9,4.1-5.9c2.3,0,3.4,1.4,3.6,3H239.3z M235,1453.1
				c0,1.4,0.8,2.4,2.4,2.4c1.3,0,2.2-0.9,2.2-2.3c0-1.4-0.7-2.4-2.2-2.4C236.1,1450.8,235,1451.5,235,1453.1z"/>
			<path class="st5" d="M247.4,1445.1c3.3,0,4.2,2.6,4.2,5.9c0,3.4-0.9,6-4.2,6s-4.2-2.6-4.2-6
				C243.3,1447.7,244.2,1445.1,247.4,1445.1z M247.4,1446.8c-2.1,0-2.4,2-2.4,4.2c0,2.3,0.2,4.3,2.4,4.3s2.4-2,2.4-4.3
				C249.8,1448.8,249.6,1446.8,247.4,1446.8z"/>
			<path class="st5" d="M261.1,1445.3v1.6h-5.4v3.2c0.4-0.6,1.4-1.1,2.4-1.1c2.9,0,3.7,2.1,3.7,3.9c0,2.3-1.3,4.1-4,4.1
				c-2.4,0-3.8-1.3-4.1-3.2h1.8c0.2,1,1.1,1.6,2.3,1.6c1.6,0,2.3-1.1,2.3-2.5c0-1.5-0.8-2.4-2.3-2.4c-1.1,0-1.8,0.6-2.1,1.5H254
				v-6.7H261.1z"/>
		</g>
		<path id="패스_4984" class="st1" d="M284,1554.6h46v-72.8h-46V1554.6z"/>
		<g class="st0">
			<path class="st6" d="M295.2,1545.5c1.6-1.4,3.4-2.7,3.4-4c0-0.6-0.3-1.1-1-1.1c-0.7,0-1,0.5-1,1.2h-1.4c0-1.7,1.1-2.4,2.4-2.4
				c1.6,0,2.4,0.9,2.4,2.2c0,1.7-1.6,3-2.8,4h2.9v1.2h-4.9V1545.5z"/>
			<path class="st6" d="M303.8,1539.2c2.1,0,2.7,1.6,2.7,3.7c0,2.1-0.6,3.7-2.7,3.7c-2.1,0-2.7-1.6-2.7-3.7
				C301.1,1540.7,301.7,1539.2,303.8,1539.2z M303.8,1540.5c-1.2,0-1.3,1.1-1.3,2.4c0,1.3,0.1,2.4,1.3,2.4c1.2,0,1.3-1.1,1.3-2.4
				C305.1,1541.6,304.9,1540.5,303.8,1540.5z"/>
			<path class="st6" d="M307.4,1545.5c1.6-1.4,3.4-2.7,3.4-4c0-0.6-0.3-1.1-1-1.1c-0.7,0-1,0.5-1,1.2h-1.4c0-1.7,1.1-2.4,2.4-2.4
				c1.6,0,2.4,0.9,2.4,2.2c0,1.7-1.6,3-2.8,4h2.9v1.2h-4.9V1545.5z"/>
			<path class="st6" d="M316,1539.2c2.1,0,2.7,1.6,2.7,3.7c0,2.1-0.6,3.7-2.7,3.7c-2.1,0-2.7-1.6-2.7-3.7
				C313.3,1540.7,313.9,1539.2,316,1539.2z M316,1540.5c-1.2,0-1.3,1.1-1.3,2.4c0,1.3,0.1,2.4,1.3,2.4c1.2,0,1.3-1.1,1.3-2.4
				C317.3,1541.6,317.1,1540.5,316,1540.5z"/>
		</g>
		<g class="st0">
			<path class="st1" d="M286,1467.8c2.6-2.2,5.4-4.3,5.4-6.5c0-1-0.5-1.7-1.6-1.7c-1.1,0-1.7,0.8-1.7,2h-2.2
				c0.1-2.7,1.8-3.9,3.9-3.9c2.5,0,3.8,1.5,3.8,3.5c0,2.7-2.6,4.8-4.5,6.4h4.7v1.9H286V1467.8z"/>
			<path class="st1" d="M295.7,1467.1h2.4l-2,4.8h-1.5L295.7,1467.1z"/>
			<path class="st1" d="M303.7,1457.7c3.3,0,4.3,2.5,4.3,5.9c0,3.4-1,6-4.3,6c-3.3,0-4.3-2.5-4.3-6
				C299.4,1460.2,300.4,1457.7,303.7,1457.7z M303.7,1459.8c-1.9,0-2.1,1.8-2.1,3.8c0,2.1,0.2,3.9,2.1,3.9s2.1-1.8,2.1-3.9
				C305.8,1461.6,305.6,1459.8,303.7,1459.8z"/>
			<path class="st1" d="M314,1457.7c3.3,0,4.3,2.5,4.3,5.9c0,3.4-1,6-4.3,6c-3.3,0-4.3-2.5-4.3-6
				C309.7,1460.2,310.7,1457.7,314,1457.7z M314,1459.8c-1.9,0-2.1,1.8-2.1,3.8c0,2.1,0.2,3.9,2.1,3.9s2.1-1.8,2.1-3.9
				C316.1,1461.6,315.9,1459.8,314,1459.8z"/>
			<path class="st1" d="M323.9,1457.6c2.4,0,3.7,1.4,3.7,3.1c0,1.5-0.9,2.4-1.8,2.6v0.1c1.2,0.4,2,1.3,2,2.9c0,1.9-1.3,3.3-3.8,3.3
				c-2.3,0-4-1.2-4.1-3.6h2.2c0,1,0.7,1.7,1.9,1.7c1.1,0,1.7-0.7,1.7-1.6c0-1.3-0.8-1.8-2.5-1.8h-0.5v-1.8h0.5
				c1.3,0,2.3-0.4,2.3-1.5c0-0.9-0.6-1.5-1.6-1.5c-1.1,0-1.6,0.7-1.6,1.4h-2.2C320.2,1458.8,321.7,1457.6,323.9,1457.6z"/>
		</g>
		<path id="패스_4987" class="st7" d="M20,1554.8h335"/>
	</g>
</g>
</svg>
