<?xml version="1.0" encoding="utf-8"?>
<!-- Generator: Adobe Illustrator 25.1.0, SVG Export Plug-In . SVG Version: 6.00 Build 0)  -->
<svg version="1.1" id="레이어_1" xmlns="http://www.w3.org/2000/svg" xmlns:xlink="http://www.w3.org/1999/xlink" x="0px"
	 y="0px" viewBox="0 0 457 197" style="enable-background:new 0 0 457 197;" xml:space="preserve">
<style type="text/css">
	.st0{fill:none;}
	.st1{fill:none;stroke:#D5D5D5;}
	.st2{enable-background:new    ;}
	.st3{fill:#FFF8F8;}
	.st4{fill:#DF1C2F;}
</style>
<g id="그룹_5885" transform="translate(-1203 -2306.23)">
	<g id="사각형_331" transform="translate(1203 2306.23)">
		<rect y="0" class="st0" width="457" height="197"/>
		<rect x="0.5" y="0.5" class="st1" width="456" height="196"/>
	</g>
	<g class="st2">
		<path d="M1233.7,2395.6c0-1.2,0.9-2,1.8-2c0.9,0,1.8,0.8,1.8,2s-0.9,2-1.8,2C1234.6,2397.5,1233.7,2396.8,1233.7,2395.6z"/>
		<path d="M1249.7,2395.1h-6.4v-6.9h0.8v2.6h4.8v-2.6h0.8V2395.1z M1248.8,2391.4h-4.8v2.9h4.8V2391.4z M1245.7,2400.3h8.5v0.7h-9.4
			v-4.4h0.8V2400.3z M1255.7,2391.6v0.7h-2.2v5.2h-0.8v-10.4h0.8v4.5H1255.7z"/>
		<path d="M1270.1,2398.7v0.7h-12.9v-0.7h6v-4h-4.3v-6.3h9.5v0.7h-8.6v4.9h8.8v0.7h-4.5v4H1270.1z"/>
		<path d="M1275.9,2391.5c0,2.3,1.4,4.8,3.2,5.8l-0.5,0.7c-1.4-0.8-2.6-2.5-3.1-4.4c-0.5,2-1.6,3.8-3.1,4.7l-0.5-0.6
			c1.9-1.1,3.2-3.7,3.2-6.1v-0.9h-2.9v-0.7h2.9v-2.2h0.8v2.2h2.9v0.7h-2.9V2391.5z M1280.3,2387.5h0.8v13.1h-0.8v-7h-2.5v-0.7h2.5
			V2387.5z M1284,2387.1v14.2h-0.8v-14.2H1284z"/>
		<path d="M1299.5,2394.3v0.7h-12.8v-0.7h3.3v-2.2c-1.2-0.4-1.8-1.2-1.8-2.1c0-1.6,1.9-2.6,4.9-2.6c3.1,0,4.9,0.9,4.9,2.6
			c0,1-0.6,1.7-1.8,2.1v2.2H1299.5z M1297.9,2398.8c0,1.6-1.8,2.5-4.8,2.5c-3,0-4.8-0.9-4.8-2.5s1.8-2.5,4.8-2.5
			C1296.1,2396.3,1297.9,2397.2,1297.9,2398.8z M1293.1,2391.9c2.5,0,4.1-0.7,4.1-1.9c0-1.2-1.6-1.9-4.1-1.9c-2.4,0-4,0.7-4,1.9
			C1289.1,2391.2,1290.6,2391.9,1293.1,2391.9z M1297.1,2398.8c0-1.1-1.6-1.8-4-1.8s-4,0.7-4,1.8c0,1.1,1.6,1.8,4,1.8
			S1297.1,2400,1297.1,2398.8z M1290.9,2394.3h4.5v-1.9c-0.7,0.1-1.4,0.2-2.3,0.2c-0.8,0-1.6-0.1-2.2-0.2V2394.3z"/>
		<path d="M1317.8,2393.8v0.7H1305v-0.7h6v-1.7h-4.7v-0.7h2.3v-3.2h-2.4v-0.7h10.3v0.7h-2.4v3.2h2.3v0.7h-4.7v1.7H1317.8z
			 M1307.4,2400.5h9.1v0.7h-10v-3.1h8.7v-1.5h-8.7v-0.7h9.5v2.8h-8.7V2400.5z M1309.4,2391.5h4v-3.2h-4V2391.5z"/>
		<path d="M1321.7,2397.1c2.3,0,4.5-0.1,7.2-0.5l0.1,0.7c-2.7,0.4-4.9,0.5-7.3,0.5h-1.1v-5.2h5.6v-3.4h-5.7v-0.7h6.5v4.8h-5.6v3.8
			H1321.7z M1331.2,2387.1v14.2h-0.8v-14.2H1331.2z"/>
		<path d="M1342.5,2394.1c-1.6-0.6-3.1-1.9-3.7-3.6c-0.6,1.8-2,3.2-3.7,3.9l-0.4-0.7c2-0.8,3.7-2.7,3.7-5v-1.1h0.8v1.1
			c0,2.2,1.8,4,3.8,4.7L1342.5,2394.1z M1346.5,2400.4v0.7h-9.5v-3.3h8.1v-1.8h-8.2v-0.7h9v3.2h-8.1v1.9H1346.5z M1345.9,2394.6
			h-0.8v-7.5h0.8V2394.6z"/>
		<path d="M1351.1,2397.1c2.3,0,4.5-0.1,7.2-0.5l0.1,0.7c-2.7,0.4-4.9,0.5-7.3,0.5h-1.1v-5.2h5.6v-3.4h-5.7v-0.7h6.5v4.8h-5.6v3.8
			H1351.1z M1360.7,2387.1v14.2h-0.8v-14.2H1360.7z"/>
		<path d="M1376.7,2394.8v0.7h-12.8v-0.7h5.5v-2.2h0.8v2.2H1376.7z M1374.2,2390.5c0-0.5,0-1,0-1.5v-0.4h-8.8v-0.7h9.6v1.1
			c0,1.3,0,2.7-0.4,4.7l-0.8-0.1c0.2-1,0.3-1.8,0.4-2.5l-8.9,0.4l-0.2-0.8L1374.2,2390.5z M1366.4,2400.4h9v0.7h-9.8v-4.2h0.8
			V2400.4z"/>
		<path d="M1386.6,2391.3c0,2.5,2,5,3.8,6l-0.5,0.7c-1.5-0.8-3.1-2.6-3.7-4.7c-0.6,2.2-2.1,4.1-3.7,5l-0.5-0.7
			c1.9-1,3.8-3.7,3.8-6.3v-2.8h0.8V2391.3z M1395.4,2393.8h-2.5v7.6h-0.8v-14.2h0.8v5.9h2.5V2393.8z"/>
		<path d="M1408.4,2387.1v7.6h-0.8v-3.4h-3.3c-0.2,1.7-1.6,2.9-3.6,2.9c-2.1,0-3.6-1.3-3.6-3.2c0-1.9,1.5-3.2,3.6-3.2
			c2,0,3.4,1.1,3.6,2.8h3.3v-3.5H1408.4z M1403.5,2391.1c0-1.5-1.2-2.5-2.8-2.5s-2.8,1.1-2.8,2.5c0,1.4,1.2,2.5,2.8,2.5
			S1403.5,2392.5,1403.5,2391.1z M1407.6,2395.5h0.8v5.6h-8.9v-5.6h0.8v2.1h7.2V2395.5z M1407.6,2398.3h-7.2v2.1h7.2V2398.3z"/>
		<path d="M1424.2,2395.5c-3.1,0.6-6.5,0.6-9,0.6l-0.1-0.7c1.2,0,2.6,0,4,0v-1.2c-1.7-0.1-2.8-0.8-2.8-2.1c0-1.3,1.3-2.1,3.2-2.1
			c1.9,0,3.2,0.8,3.2,2.1c0,1.2-1.1,2-2.8,2.1v1.2c1.4-0.1,2.8-0.2,4.2-0.4L1424.2,2395.5z M1423.7,2389.2h-8.3v-0.7h3.7v-1.6h0.8
			v1.6h3.7V2389.2z M1416.8,2397.4h9.2v4h-0.8v-3.3h-8.3V2397.4z M1419.5,2393.5c1.5,0,2.4-0.6,2.4-1.5c0-0.9-1-1.5-2.4-1.5
			s-2.4,0.6-2.4,1.5C1417.1,2392.9,1418.1,2393.5,1419.5,2393.5z M1428.2,2392.3h-2.3v4.3h-0.8v-9.4h0.8v4.4h2.3V2392.3z"/>
		<path d="M1431.3,2396.9c2.3,0,3.7-0.1,5.3-0.4l0.1,0.7c-1.7,0.4-3.1,0.4-5.4,0.4h-0.9v-8.8h5.3v0.7h-4.5L1431.3,2396.9
			L1431.3,2396.9z M1441.8,2387.1v14.2h-0.8v-7.6h-2.4v6.9h-0.8v-13.1h0.8v5.5h2.4v-5.8H1441.8z"/>
	</g>
	<g class="st2">
		<path d="M1233.7,2425.6c0-1.2,0.9-2,1.8-2c0.9,0,1.8,0.8,1.8,2s-0.9,2-1.8,2C1234.6,2427.5,1233.7,2426.8,1233.7,2425.6z"/>
		<path d="M1255.4,2422.6v0.7h-12.9v-0.7h10c0.4-1.7,0.4-3,0.4-4v-0.2h-8.6v-0.7h9.5v0.9c0,1,0,2.3-0.3,4H1255.4z M1245,2430.4h9.1
			v0.7h-10v-3.5h8.8v-2h-8.8v-0.7h9.7v3.3h-8.8V2430.4z"/>
		<path d="M1270.2,2428.8v0.7h-12.9v-0.7h6v-3h-4.3v-4.2h8.7v-2.6h-8.7v-0.7h9.6v4h-8.7v2.7h9v0.7h-4.7v3H1270.2z"/>
		<path d="M1279,2423.9h-6.2v-6.1h0.8v2.3h4.5v-2.3h0.8v2.6h3.7v-3.3h0.8v7.5h-0.8v-3.4h-3.7V2423.9z M1278.1,2420.8h-4.5v2.4h4.5
			V2420.8z M1284.1,2430.4v0.7h-9.6v-3.3h8.1v-1.7h-8.2v-0.7h9v3.1h-8.1v1.9H1284.1z"/>
		<path d="M1294.7,2421.3c0,2.5,2,5,3.8,6l-0.5,0.7c-1.5-0.8-3.1-2.6-3.7-4.7c-0.6,2.2-2.1,4.1-3.7,5l-0.5-0.7
			c1.9-1,3.8-3.7,3.8-6.3v-2.8h0.8V2421.3z M1303.5,2423.8h-2.5v7.6h-0.8v-14.2h0.8v5.9h2.5V2423.8z"/>
		<path d="M1316.5,2417.1v7.6h-0.8v-3.4h-3.3c-0.2,1.7-1.6,2.9-3.6,2.9c-2.1,0-3.6-1.3-3.6-3.2c0-1.9,1.5-3.2,3.6-3.2
			c2,0,3.4,1.1,3.6,2.8h3.3v-3.5H1316.5z M1311.6,2421.1c0-1.5-1.2-2.5-2.8-2.5s-2.8,1.1-2.8,2.5c0,1.4,1.2,2.5,2.8,2.5
			S1311.6,2422.5,1311.6,2421.1z M1315.7,2425.5h0.8v5.6h-8.9v-5.6h0.8v2.1h7.2V2425.5z M1315.7,2428.3h-7.2v2.1h7.2V2428.3z"/>
		<path d="M1327.1,2418.7c0,4-2.1,7.6-6.7,9.8l-0.5-0.7c3.9-1.9,6.1-4.9,6.3-8.4h-5.7v-0.7H1327.1z M1331.2,2417.1v14.2h-0.8v-14.2
			H1331.2z"/>
		<path d="M1341.5,2425.1h-6.4v-6.9h0.8v2.6h4.8v-2.6h0.8V2425.1z M1340.7,2421.4h-4.8v2.9h4.8V2421.4z M1337.5,2430.3h8.5v0.7h-9.4
			v-4.4h0.8V2430.3z M1347.6,2421.6v0.7h-2.2v5.2h-0.8v-10.4h0.8v4.5H1347.6z"/>
		<path d="M1359.5,2420.7c-0.9,2.3-3.2,4-6.2,5l-0.4-0.7c3.5-1.1,5.9-3.2,6.1-6h-5.4v-0.7h6.4c0,0.6-0.1,1.2-0.2,1.7h3.7v-2.8h0.8
			v8.7h-0.8v-2.2h-4.1v-0.7h4.1v-2.3H1359.5z M1364.3,2428.6c0,1.7-1.8,2.7-4.6,2.7c-2.9,0-4.7-1-4.7-2.7c0-1.6,1.8-2.6,4.7-2.6
			C1362.5,2426,1364.3,2427,1364.3,2428.6z M1363.5,2428.6c0-1.2-1.5-1.9-3.8-1.9c-2.3,0-3.8,0.8-3.8,1.9c0,1.2,1.5,2,3.8,2
			C1362,2430.6,1363.5,2429.8,1363.5,2428.6z"/>
		<path d="M1373.9,2424.9c-1.4-0.6-2.4-1.7-2.9-3.1c-0.5,1.5-1.5,2.8-2.9,3.5l-0.5-0.7c1.8-0.8,3-2.7,3-4.5v-1h-2.8v-0.7h6.4v0.7
			h-2.7v1c0,1.8,1.1,3.5,2.9,4.2L1373.9,2424.9z M1379.4,2428.8c0,1.6-1.8,2.5-4.7,2.5c-2.9,0-4.7-0.9-4.7-2.5s1.8-2.5,4.7-2.5
			C1377.6,2426.3,1379.4,2427.2,1379.4,2428.8z M1378.5,2428.8c0-1.1-1.5-1.8-3.8-1.8c-2.3,0-3.8,0.7-3.8,1.8c0,1.1,1.5,1.8,3.8,1.8
			C1377.1,2430.6,1378.5,2429.9,1378.5,2428.8z M1376.2,2425.4h-0.8v-8h0.8v3.7h2.2v-4h0.8v8.8h-0.8v-4h-2.2V2425.4z"/>
		<path d="M1389.9,2424.7c-1.8,0.3-3.2,0.4-6.1,0.4h-1v-4h5.2v-2.3h-5.2v-0.7h6.1v3.7h-5.2v2.6h0.2c2.9,0,4.3,0,6-0.4L1389.9,2424.7
			z M1384.3,2426.7h9.4v4.7h-0.8v-4h-8.5V2426.7z M1393.7,2417.1v8.7h-0.8v-2.9h-3.1v-0.7h3.1v-2.2h-3.1v-0.7h3.1v-2.2H1393.7z"/>
		<path d="M1407.5,2418.3c0,3.5-2.6,6.2-6.7,7.4l-0.4-0.7c3.6-1.1,5.9-3.2,6.1-6h-5.6v-0.7H1407.5z M1411.5,2428.6
			c0,1.7-1.8,2.6-4.6,2.6c-2.8,0-4.5-1-4.5-2.6c0-1.7,1.8-2.7,4.5-2.7C1409.7,2426,1411.5,2427,1411.5,2428.6z M1410.7,2428.6
			c0-1.2-1.5-2-3.7-2c-2.2,0-3.7,0.8-3.7,2c0,1.2,1.5,2,3.7,2C1409.2,2430.6,1410.7,2429.8,1410.7,2428.6z M1413.6,2421v0.7h-2.2v4
			h-0.8v-8.7h0.8v3.9H1413.6z"/>
		<path d="M1419.9,2427.6c1.4-0.1,2.9-0.2,4.2-0.4l0.1,0.7c-3.1,0.5-6.5,0.6-9,0.6l-0.2-0.7c1.2,0,2.6,0,4.1-0.1v-1.8
			c-1.7-0.1-2.8-1.1-2.8-2.6c0-1.6,1.3-2.6,3.3-2.6c2,0,3.3,1,3.3,2.6c0,1.5-1.1,2.4-2.9,2.6V2427.6z M1423.7,2419.7h-8.6v-0.7h3.9
			v-1.8h0.8v1.8h3.9V2419.7z M1419.5,2425.2c1.5,0,2.5-0.8,2.5-1.9c0-1.1-1-1.9-2.5-1.9c-1.5,0-2.5,0.8-2.5,1.9
			C1417,2424.4,1418,2425.2,1419.5,2425.2z M1428.3,2424.1h-2.4v7.3h-0.8v-14.2h0.8v6.2h2.4V2424.1z"/>
	</g>
	<g class="st2">
		<path d="M1233.7,2455.6c0-1.2,0.9-2,1.8-2c0.9,0,1.8,0.8,1.8,2s-0.9,2-1.8,2C1234.6,2457.5,1233.7,2456.8,1233.7,2455.6z"/>
		<path d="M1249.9,2449.6h-7.4v-0.7h3.3v-1.8h0.8v1.8h3.3V2449.6z M1246.2,2455.5c-1.8,0-3-1-3-2.5c0-1.5,1.2-2.5,3-2.5
			c1.8,0,3,1,3,2.5C1249.2,2454.5,1248,2455.5,1246.2,2455.5z M1246.2,2454.8c1.3,0,2.2-0.8,2.2-1.8c0-1.1-0.9-1.8-2.2-1.8
			c-1.3,0-2.2,0.8-2.2,1.8C1243.9,2454.1,1244.8,2454.8,1246.2,2454.8z M1245,2456.9h9.4v4.5h-0.8v-3.7h-8.5V2456.9z M1254.4,2447.2
			v8.8h-0.8v-4h-2.2v3.9h-0.8v-8.5h0.8v3.9h2.2v-4.1H1254.4z"/>
		<path d="M1265.3,2454.5c-1.6-0.6-3.1-2-3.7-3.7c-0.6,1.8-2,3.2-3.7,3.9l-0.4-0.7c2-0.8,3.7-2.8,3.7-5v-1.4h0.8v1.4
			c0,2.2,1.8,4,3.8,4.8L1265.3,2454.5z M1259.8,2456.1h9v5h-9V2456.1z M1260.6,2460.4h7.4v-3.6h-7.4V2460.4z M1268.8,2447.1v8.1
			h-0.8v-8.1H1268.8z"/>
		<path d="M1282.4,2453.6c-0.6,0.9-1.7,1.4-3,1.4c-2.1,0-3.6-1.4-3.6-3.5c0-2,1.5-3.5,3.6-3.5c1.3,0,2.3,0.5,3,1.4h3.9v-2.4h0.8
			v10.6h-0.8v-4.1H1282.4z M1279.4,2454.3c1.6,0,2.8-1.2,2.8-2.8c0-1.5-1.2-2.7-2.8-2.7s-2.8,1.2-2.8,2.7
			C1276.6,2453.1,1277.8,2454.3,1279.4,2454.3z M1287.5,2460.3v0.7h-9.3v-4.4h0.8v3.7H1287.5z M1282.7,2450.2
			c0.1,0.4,0.2,0.9,0.2,1.3c0,0.5-0.1,0.9-0.2,1.3h3.5v-2.7H1282.7z"/>
		<path d="M1303.1,2455h-6v6.4h-0.8v-6.4h-6v-0.7h9.7c0.5-2.1,0.5-3.6,0.5-4.9v-0.5h-8.5v-0.7h9.3v1.2c0,1.3,0,2.8-0.4,4.9h2.2V2455
			z"/>
		<path d="M1309,2455.1c-2.1,0-3.6-1.4-3.6-3.5c0-2,1.5-3.4,3.6-3.4c2.1,0,3.6,1.4,3.6,3.4C1312.6,2453.6,1311,2455.1,1309,2455.1z
			 M1309,2454.3c1.6,0,2.8-1.2,2.8-2.7c0-1.5-1.2-2.7-2.8-2.7s-2.8,1.2-2.8,2.7C1306.2,2453.1,1307.4,2454.3,1309,2454.3z
			 M1317,2460.3v0.7h-9.4v-4.5h0.8v3.7H1317z M1316.5,2457.6h-0.8v-10.5h0.8V2457.6z"/>
		<path d="M1327.4,2454.7c-1.8,0.3-3.2,0.4-6.1,0.4h-1v-4h5.2v-2.3h-5.2v-0.7h6.1v3.7h-5.2v2.6h0.2c2.9,0,4.3,0,6-0.4L1327.4,2454.7
			z M1321.9,2456.7h9.4v4.7h-0.8v-4h-8.5V2456.7z M1331.3,2447.1v8.7h-0.8v-2.9h-3.1v-0.7h3.1v-2.2h-3.1v-0.7h3.1v-2.2H1331.3z"/>
		<path d="M1345.2,2453.8h-6.5v-5.7h6.5V2453.8z M1344.4,2448.8h-4.8v4.3h4.8V2448.8z M1345.6,2457.3c0,1.6,2.7,3,4.8,3.3l-0.3,0.7
			c-2-0.3-4.1-1.4-4.9-2.8c-0.8,1.5-3,2.5-5,2.8l-0.3-0.7c2.1-0.3,4.9-1.7,4.9-3.3v-0.1h-4.3v-0.7h4.3v-1.5h0.9v1.5h4.3v0.7h-4.3
			V2457.3z M1349.5,2455.3h-0.8v-8.2h0.8V2455.3z"/>
		<path d="M1363.6,2448.7c0,4-2.1,7.6-6.7,9.8l-0.5-0.7c3.9-1.9,6.1-4.9,6.3-8.4h-5.7v-0.7H1363.6z M1367.8,2447.1v14.2h-0.8v-14.2
			H1367.8z"/>
		<path d="M1377.8,2454v1.7h4.3v3h-8.7v1.8h9.1v0.7h-10v-3.1h8.7v-1.6h-8.7v-0.7h4.4v-1.7h-6v-0.7h12.9v0.7H1377.8z M1382.7,2452.1
			c-2-0.3-4.5-1.3-5.4-3c-0.8,1.7-3.3,2.7-5.4,3l-0.3-0.7c2.2-0.3,5.3-1.6,5.3-3.6v-0.7h0.9v0.7c0,2,3.1,3.3,5.2,3.6L1382.7,2452.1z
			"/>
		<path d="M1398.3,2455.5c-3.1,0.6-6.5,0.6-9,0.6l-0.1-0.7c1.2,0,2.6,0,4,0v-1.2c-1.7-0.1-2.8-0.8-2.8-2.1c0-1.3,1.3-2.1,3.2-2.1
			c1.9,0,3.2,0.8,3.2,2.1c0,1.2-1.1,2-2.8,2.1v1.2c1.4-0.1,2.8-0.2,4.2-0.4L1398.3,2455.5z M1397.8,2449.2h-8.3v-0.7h3.7v-1.6h0.8
			v1.6h3.7V2449.2z M1390.9,2457.4h9.2v4h-0.8v-3.3h-8.3V2457.4z M1393.7,2453.5c1.5,0,2.4-0.6,2.4-1.5c0-0.9-1-1.5-2.4-1.5
			s-2.4,0.6-2.4,1.5C1391.2,2452.9,1392.2,2453.5,1393.7,2453.5z M1402.3,2452.3h-2.3v4.3h-0.8v-9.4h0.8v4.4h2.3V2452.3z"/>
		<path d="M1416.8,2458.7v0.7h-12.9v-0.7h6v-3.3h-4.4v-7.2h0.8v2.8h8v-2.8h0.8v7.2h-4.4v3.3H1416.8z M1406.4,2454.7h8v-3h-8V2454.7z
			"/>
	</g>
	<g id="사각형_374" transform="translate(1203 2306.23)">
		<rect y="0" class="st3" width="457" height="50"/>
		<rect x="0.5" y="0.5" class="st1" width="456" height="49"/>
	</g>
	<g class="st2">
		<path class="st4" d="M1375.3,2326.6h-9.8v-1.9h3.7v-1.7h2.4v1.7h3.7V2326.6z M1370.4,2333.1c-2.4,0-4.1-1.2-4.1-3
			c0-1.8,1.7-3,4.1-3c2.4,0,4.1,1.2,4.1,3C1374.5,2331.9,1372.8,2333.1,1370.4,2333.1z M1378.7,2336.8c0,1.8-2.1,2.9-5.6,2.9
			c-3.4,0-5.6-1.1-5.6-2.9c0-1.9,2.1-3,5.6-3C1376.6,2333.9,1378.7,2335,1378.7,2336.8z M1370.4,2331.4c1.1,0,1.8-0.4,1.8-1.2
			c0-0.8-0.7-1.2-1.8-1.2c-1.1,0-1.8,0.4-1.8,1.2C1368.6,2331,1369.3,2331.4,1370.4,2331.4z M1376.4,2336.8c0-0.8-1.1-1.2-3.2-1.2
			c-2.1,0-3.2,0.4-3.2,1.2c0,0.8,1.1,1.2,3.2,1.2C1375.3,2338,1376.4,2337.6,1376.4,2336.8z M1378.6,2327.5v1.7h2.1v1.9h-2.1v2.6
			h-2.4v-10.5h2.4v2.4h2.1v1.9H1378.6z"/>
		<path class="st4" d="M1397.7,2335.8h-6.3v4h-2.4v-4h-6.3v-1.9h15V2335.8z M1396.9,2326.8h-13.5v-1.9h5.6v-1.7h2.4v1.7h5.5V2326.8z
			 M1390.2,2327.4c3.5,0,5.7,1,5.7,2.9c0,1.8-2.1,2.8-5.7,2.8c-3.5,0-5.7-1-5.7-2.8C1384.5,2328.5,1386.6,2327.4,1390.2,2327.4z
			 M1390.2,2329.2c-2.2,0-3.2,0.3-3.2,1.1c0,0.7,1,1.1,3.2,1.1s3.2-0.3,3.2-1.1C1393.4,2329.5,1392.3,2329.2,1390.2,2329.2z"/>
		<path class="st4" d="M1413.1,2323.6h2.2v15.5h-2.2v-5.4h-2.3v-1.9h2.3v-2.3h-2c-0.7,2.7-2.4,5-5.5,6.9l-1.4-1.7
			c3.3-2,4.7-4.4,5-7.6h-4.1v-1.9h6.4c0,0.8-0.1,1.6-0.1,2.4h1.6V2323.6z M1418.8,2323.2v16.6h-2.3v-16.6H1418.8z"/>
		<path class="st4" d="M1432.3,2333.5c-3.5,0.6-7.3,0.6-10.2,0.6l-0.3-1.8c1.3,0,2.7,0,4.2,0v-0.9c-1.8-0.3-2.9-1.2-2.9-2.4
			c0-1.5,1.7-2.5,4.1-2.5c2.4,0,4.1,1,4.1,2.5c0,1.3-1.1,2.1-2.9,2.4v0.8c1.3-0.1,2.6-0.2,3.8-0.3L1432.3,2333.5z M1431.9,2326.1
			h-9.7v-1.7h3.7v-1.3h2.4v1.3h3.7V2326.1z M1424,2335.1h11.5v4.7h-2.4v-2.9h-9.1V2335.1z M1427.1,2329.9c1.1,0,1.8-0.3,1.8-0.9
			c0-0.6-0.7-0.9-1.8-0.9c-1.1,0-1.9,0.3-1.9,0.9C1425.2,2329.6,1426,2329.9,1427.1,2329.9z M1435.5,2323.2v11.2h-2.4v-11.2H1435.5z
			"/>
		<path class="st4" d="M1452.4,2331.2h-8v-7h8V2331.2z M1452.9,2335.3c0.3,1.1,1.9,2.4,5.2,2.7l-0.8,1.8c-2.8-0.2-4.7-1.2-5.7-2.5
			c-1,1.3-3,2.3-5.7,2.5l-0.7-1.8c3.3-0.3,5-1.5,5.2-2.7h-4.6v-1.8h4.6v-1.4h2.4v1.4h4.6v1.8H1452.9z M1450,2326.1h-3.4v3.3h3.4
			V2326.1z M1457.2,2332.6h-2.4v-9.4h2.4V2332.6z"/>
		<path class="st4" d="M1480.3,2331.3v1.9h-15v-1.9h6.3v-1.5h-4.4v-5.9h11.3v5.9h-4.4v1.5H1480.3z M1467,2334.3h11.5v5.5h-2.4v-3.6
			h-9.1V2334.3z M1469.5,2327.8h6.6v-2.1h-6.6V2327.8z"/>
		<path class="st4" d="M1497.5,2336.1v1.9h-15v-1.9h3.7v-3.1h-2.4v-1.9h2.2v-4.7h-2.3v-1.9h12.6v1.9h-2.3v4.7h2.2v1.9h-2.5v3.1
			H1497.5z M1488.3,2331.1h3.4v-4.7h-3.4V2331.1z M1488.5,2336.1h2.9v-3.1h-2.9V2336.1z"/>
	</g>
</g>
</svg>
