<?xml version="1.0" encoding="utf-8"?>
<!-- Generator: Adobe Illustrator 25.1.0, SVG Export Plug-In . SVG Version: 6.00 Build 0)  -->
<svg version="1.1" id="레이어_1" xmlns="http://www.w3.org/2000/svg" xmlns:xlink="http://www.w3.org/1999/xlink" x="0px"
	 y="0px" viewBox="0 0 439 339" style="enable-background:new 0 0 439 339;" xml:space="preserve">
<style type="text/css">
	.st0{enable-background:new    ;}
	.st1{fill:#FAFAFA;}
	.st2{fill:#070203;}
	.st3{fill:none;stroke:#D6D6D6;stroke-miterlimit:10;}
	.st4{fill:none;stroke:#717171;stroke-miterlimit:10;}
</style>
<g id="그룹_5874" transform="translate(-1221 -1181)">
	<g id="그룹_4965" transform="translate(481 -1823)">
		<g class="st0">
			<path d="M751.1,3018.1c0,4.1-2.1,6.6-4.8,6.6c-2.8,0-4.8-2.5-4.8-6.6c0-4,2.1-6.6,4.8-6.6C749,3011.6,751.1,3014.1,751.1,3018.1z
				 M743.9,3018.1c0,2.7,0.9,4.2,2.3,4.2s2.3-1.5,2.3-4.2c0-2.7-0.9-4.2-2.3-4.2S743.9,3015.4,743.9,3018.1z M756.1,3010.3v18.5
				h-2.6v-18.5H756.1z"/>
			<path d="M775.9,3022.6h-3.7v6.2h-2.6v-6.2h-3.9v6.2h-2.6v-6.2h-3.8v-2.1h16.7V3022.6z M774.3,3019.1c-3.2-0.5-5.5-2-6.7-4
				c-1.2,2-3.5,3.5-6.7,4l-1-2.1c4.2-0.6,6.3-3,6.3-5.2v-0.9h2.8v0.9c0,2.2,2.1,4.6,6.3,5.2L774.3,3019.1z"/>
			<path d="M777.7,3022.9c3.2,0,7.8,0,11.6-0.6l0.2,1.9c-4,0.8-8.3,0.8-11.5,0.8L777.7,3022.9z M788.7,3016.1c0,2.7-2.2,4.5-5.1,4.5
				c-2.9,0-5.1-1.9-5.1-4.5c0-2.6,2.2-4.5,5.1-4.5C786.5,3011.5,788.7,3013.4,788.7,3016.1z M781.1,3016.1c0,1.4,1.1,2.3,2.5,2.3
				c1.4,0,2.5-0.8,2.5-2.3s-1.1-2.3-2.5-2.3C782.2,3013.8,781.1,3014.6,781.1,3016.1z M793,3010.3v18.5h-2.6v-18.5H793z"/>
			<path d="M809.3,3018.9c-0.9,0.9-2.1,1.4-3.6,1.4c-2.7,0-4.8-1.9-4.8-4.5c0-2.6,2.1-4.5,4.8-4.5c1.5,0,2.7,0.5,3.6,1.4h4.1v-2.4
				h2.6v10.8h-2.6v-2.2H809.3z M805.7,3018.1c1.4,0,2.4-0.9,2.4-2.3c0-1.4-1-2.3-2.4-2.3s-2.3,0.8-2.3,2.3
				C803.3,3017.2,804.3,3018.1,805.7,3018.1z M816.1,3025.1c0,2.3-2.4,3.6-6.3,3.6c-3.9,0-6.3-1.3-6.3-3.6c0-2.3,2.4-3.6,6.3-3.6
				C813.7,3021.5,816.1,3022.8,816.1,3025.1z M813.5,3025.1c0-1.1-1.3-1.6-3.7-1.6c-2.4,0-3.7,0.5-3.7,1.6s1.3,1.6,3.7,1.6
				C812.2,3026.7,813.5,3026.2,813.5,3025.1z M810.4,3014.8c0.1,0.3,0.1,0.6,0.1,1c0,0.3,0,0.7-0.1,1h2.9v-2H810.4z"/>
			<path d="M829.8,3014.1H819v-2.1h4.1v-1.9h2.7v1.9h4.1V3014.1z M824.4,3021.3c-2.7,0-4.5-1.3-4.5-3.3c0-2,1.9-3.3,4.5-3.3
				s4.5,1.3,4.5,3.3C828.9,3020,827.1,3021.3,824.4,3021.3z M833.7,3025.5c0,2-2.4,3.3-6.2,3.3s-6.2-1.2-6.2-3.3
				c0-2.1,2.4-3.3,6.2-3.3S833.7,3023.4,833.7,3025.5z M824.4,3019.4c1.2,0,2-0.5,2-1.4c0-0.9-0.8-1.4-2-1.4s-2,0.5-2,1.4
				C822.4,3018.9,823.2,3019.4,824.4,3019.4z M831.1,3025.5c0-0.9-1.2-1.3-3.6-1.3c-2.3,0-3.6,0.4-3.6,1.3c0,0.9,1.2,1.3,3.6,1.3
				C829.8,3026.8,831.1,3026.3,831.1,3025.5z M833.5,3015.1v1.9h2.4v2.1h-2.4v2.9h-2.6v-11.7h2.6v2.6h2.4v2.2H833.5z"/>
		</g>
	</g>
	<rect id="사각형_388" x="1221" y="1225" class="st1" width="166" height="294.5"/>
	<g class="st0">
		<path class="st2" d="M1440.9,1262.1c-0.9,2.2-2.9,3.7-5.8,4.6l-0.5-1c3.2-1,5.2-2.7,5.4-5.1h-4.7v-1h6.1c0,0.5-0.1,1-0.1,1.5h3
			v-2.5h1.2v8h-1.2v-1.8h-3.5v-1h3.5v-1.8H1440.9z M1445.6,1269.5c0,1.6-1.7,2.6-4.5,2.6c-2.7,0-4.5-1-4.5-2.6s1.7-2.6,4.5-2.6
			C1443.8,1266.9,1445.6,1267.8,1445.6,1269.5z M1444.3,1269.5c0-1-1.3-1.6-3.2-1.6c-2,0-3.2,0.6-3.2,1.6c0,1,1.3,1.6,3.2,1.6
			C1443.1,1271.1,1444.3,1270.5,1444.3,1269.5z"/>
		<path class="st2" d="M1452.2,1262.5c0,2.3,1,4.7,2.9,5.7l-0.8,0.9c-1.3-0.8-2.2-2.2-2.7-3.9c-0.5,1.8-1.4,3.4-2.8,4.3l-0.8-0.9
			c1.9-1.1,2.9-3.6,2.9-6v-1.2h-2.5v-1h6.1v1h-2.4V1262.5z M1455.8,1259h1.2v12.5h-1.2v-6.9h-2.2v-1h2.2V1259z M1459.6,1258.6v13.5
			h-1.2v-13.5H1459.6z"/>
		<path class="st2" d="M1469.3,1266.2c-1.5-0.5-2.7-1.7-3.3-3c-0.6,1.5-1.8,2.8-3.4,3.4l-0.6-1c2-0.7,3.4-2.5,3.4-4.4v-0.5h-3v-1
			h7.2v1h-3v0.5c0,1.7,1.3,3.4,3.3,4.1L1469.3,1266.2z M1464.1,1267.4h9v4.7h-1.2v-3.7h-7.8V1267.4z M1473.1,1258.7v8.1h-1.2v-3.5
			h-2.6v-1h2.6v-3.5H1473.1z"/>
	</g>
	<g class="st0">
		<path class="st2" d="M1439.7,1289.2h-5.5v4.9h-1.2v-4.9h-5.4v-1h12.1L1439.7,1289.2z M1438.6,1286.8c-2.1-0.4-4.1-1.5-5-3.2
			c-0.8,1.6-2.9,2.8-5,3.2l-0.5-1c2.4-0.4,4.8-2,4.8-3.9v-0.8h1.3v0.8c0,1.9,2.4,3.5,4.8,3.9L1438.6,1286.8z"/>
		<path class="st2" d="M1448.6,1284.6c0,1.9-1.5,3.2-3.5,3.2c-2,0-3.5-1.3-3.5-3.2s1.5-3.2,3.5-3.2
			C1447.2,1281.5,1448.6,1282.8,1448.6,1284.6z M1442.8,1284.6c0,1.3,1,2.1,2.3,2.1c1.3,0,2.3-0.9,2.3-2.1s-1-2.1-2.3-2.1
			C1443.8,1282.5,1442.8,1283.4,1442.8,1284.6z M1452.4,1289.4v4.7h-1.2v-3.7h-7.8v-1H1452.4z M1452.4,1280.7v8h-1.2v-8H1452.4z"/>
		<path class="st2" d="M1462.4,1288.2c-1.5-0.5-2.7-1.5-3.3-2.7c-0.6,1.4-1.8,2.5-3.4,3.1l-0.6-1c2-0.6,3.3-2.2,3.3-4v-0.3h-3v-1h3
			v-1.7h1.2v1.7h3v1h-3v0.3c0,1.6,1.3,3.1,3.3,3.7L1462.4,1288.2z M1465.7,1291.7c0,1.5-1.7,2.4-4.4,2.4c-2.8,0-4.4-0.9-4.4-2.4
			c0-1.6,1.7-2.4,4.4-2.4C1464,1289.2,1465.7,1290.1,1465.7,1291.7z M1464.5,1291.7c0-0.9-1.2-1.5-3.2-1.5c-2,0-3.2,0.5-3.2,1.5
			s1.2,1.5,3.2,1.5C1463.3,1293.1,1464.5,1292.6,1464.5,1291.7z M1467.5,1284.1v1h-2v3.8h-1.2v-8.2h1.2v3.5H1467.5z"/>
		<path class="st2" d="M1475.6,1287.6v1.2h3.9v2.9h-7.9v1.3h8.3v0.9h-9.5v-3.1h7.9v-1.1h-7.9v-0.9h4v-1.2h-5.4v-0.9h12.1v0.9H1475.6
			z M1469.6,1285.1c2.5-0.2,4.5-1,4.8-2.3h-4.2v-0.9h4.2v-1.3h1.2v1.3h4.2v0.9h-4.1c0.2,1.3,2.2,2.2,4.7,2.3l-0.4,0.9
			c-2.2-0.2-4.2-0.9-5.1-2.1c-0.8,1.2-2.8,1.9-5.1,2.1L1469.6,1285.1z"/>
	</g>
	<g class="st0">
		<path class="st2" d="M1449.8,1303.7c0,3.4-2.4,5.9-6.3,7.1l-0.5-1c3.2-0.9,5.2-2.8,5.4-5.1h-4.9v-1H1449.8z M1453.6,1313.5
			c0,1.6-1.7,2.6-4.4,2.6s-4.4-1-4.4-2.6c0-1.6,1.7-2.6,4.4-2.6S1453.6,1311.9,1453.6,1313.5z M1452.4,1313.5c0-1-1.2-1.7-3.2-1.7
			s-3.2,0.6-3.2,1.7c0,1,1.2,1.6,3.2,1.6S1452.4,1314.5,1452.4,1313.5z M1455.4,1306.1v1h-2v3.5h-1.2v-8h1.2v3.5H1455.4z"/>
		<path class="st2" d="M1461.5,1312.4c1.2-0.1,2.5-0.2,3.6-0.3l0.1,0.9c-2.9,0.5-6,0.5-8.4,0.5l-0.2-1c1.1,0,2.3,0,3.6,0v-1.5
			c-1.5-0.2-2.6-1.1-2.6-2.5c0-1.5,1.3-2.5,3.2-2.5s3.2,1,3.2,2.5c0,1.3-1,2.3-2.6,2.5V1312.4z M1464.9,1305.3h-8v-1h3.4v-1.6h1.2
			v1.6h3.4V1305.3z M1460.9,1310.1c1.2,0,2-0.6,2-1.5c0-0.9-0.8-1.5-2-1.5c-1.2,0-2,0.6-2,1.5
			C1458.9,1309.5,1459.7,1310.1,1460.9,1310.1z M1469.3,1309.4h-2.1v6.7h-1.2v-13.5h1.2v5.7h2.1V1309.4z"/>
	</g>
	<g class="st0">
		<path class="st2" d="M1333,1374.8v3.6h3.9v-3.6h1.2v9.1h-6.3v-9.1H1333z M1333,1382.9h3.9v-3.5h-3.9V1382.9z M1342,1373.7v13.5
			h-1.2v-13.5H1342z"/>
		<path class="st2" d="M1357,1380.3v1h-12.2v-1h3v-1.9c-1.1-0.4-1.6-1.1-1.6-2c0-1.6,1.8-2.5,4.7-2.5c2.9,0,4.7,0.9,4.7,2.5
			c0,0.9-0.6,1.6-1.6,2v1.9H1357z M1355.5,1384.7c0,1.5-1.7,2.4-4.6,2.4c-2.9,0-4.6-0.8-4.6-2.4s1.7-2.4,4.6-2.4
			C1353.8,1382.3,1355.5,1383.2,1355.5,1384.7z M1350.9,1377.9c2.1,0,3.5-0.6,3.5-1.5c0-1-1.3-1.5-3.5-1.5s-3.5,0.6-3.5,1.5
			C1347.4,1377.4,1348.7,1377.9,1350.9,1377.9z M1354.2,1384.7c0-0.9-1.3-1.4-3.4-1.4c-2.1,0-3.4,0.5-3.4,1.4s1.2,1.4,3.4,1.4
			C1353,1386.2,1354.2,1385.6,1354.2,1384.7z M1349,1380.3h3.7v-1.6c-0.6,0.1-1.2,0.2-1.9,0.2c-0.7,0-1.3-0.1-1.9-0.2V1380.3z"/>
	</g>
	<g class="st0">
		<path class="st2" d="M1343.2,1437.2h-5.5v4.9h-1.2v-4.9h-5.4v-1h12.1L1343.2,1437.2z M1342.1,1434.8c-2.1-0.4-4.1-1.5-5-3.2
			c-0.8,1.6-2.9,2.8-5,3.2l-0.5-1c2.4-0.4,4.8-2,4.8-3.9v-0.8h1.3v0.8c0,1.9,2.4,3.5,4.8,3.9L1342.1,1434.8z"/>
		<path class="st2" d="M1352.1,1432.6c0,1.9-1.5,3.2-3.5,3.2c-2,0-3.5-1.3-3.5-3.2s1.5-3.2,3.5-3.2
			C1350.6,1429.5,1352.1,1430.8,1352.1,1432.6z M1346.3,1432.6c0,1.3,1,2.1,2.3,2.1c1.3,0,2.3-0.9,2.3-2.1s-1-2.1-2.3-2.1
			C1347.3,1430.5,1346.3,1431.4,1346.3,1432.6z M1355.8,1437.4v4.7h-1.2v-3.7h-7.8v-1H1355.8z M1355.8,1428.7v8h-1.2v-8H1355.8z"/>
	</g>
	<g class="st0">
		<path class="st2" d="M1326.1,1492.9c2.2,0,4.2-0.1,6.5-0.5l0.1,1c-2.4,0.4-4.5,0.5-6.8,0.5h-1.1v-5.2h5v-2.8h-5v-1h6.2v4.8h-5
			V1492.9z M1335.1,1483.6v13.5h-1.2v-13.5H1335.1z"/>
		<path class="st2" d="M1350.1,1494.3v1h-12.2v-1H1350.1z M1348.9,1491.4c-2-0.5-4.1-1.9-5-3.9c-0.9,2-3,3.4-5,3.9l-0.6-1
			c2.4-0.5,4.9-2.5,4.9-4.8v-1h1.3v1c0,2.3,2.5,4.3,4.9,4.8L1348.9,1491.4z"/>
		<path class="st2" d="M1363.9,1494.2v1h-12.2v-1H1363.9z M1361.1,1488.8c0-0.7,0-1.4,0-2.1v-0.6h-8v-1h9.2v1.6c0,2,0,3.8-0.6,6.6
			l-1.2-0.1c0.3-1.3,0.4-2.4,0.5-3.4l-8.1,0.4l-0.2-1L1361.1,1488.8z"/>
	</g>
	<line id="선_387" class="st3" x1="1300.5" y1="1351.5" x2="1300.5" y2="1518.9"/>
	<line id="선_388" class="st3" x1="1387.5" y1="1224.5" x2="1387.5" y2="1519.1"/>
	<line id="선_389" class="st3" x1="1523" y1="1224.5" x2="1523" y2="1519.1"/>
	<g class="st0">
		<path class="st2" d="M1573.9,1265c-0.6,0.8-1.6,1.3-2.8,1.3c-2,0-3.5-1.4-3.5-3.4c0-2,1.5-3.4,3.5-3.4c1.2,0,2.1,0.5,2.7,1.3h3.4
			v-2.1h1.2v9.9h-1.2v-3.6H1573.9z M1571.2,1265.2c1.3,0,2.3-1,2.3-2.3s-1-2.3-2.3-2.3c-1.3,0-2.3,1-2.3,2.3
			S1569.9,1265.2,1571.2,1265.2z M1579,1270.8v1h-9v-4.2h1.2v3.2H1579z M1574.5,1261.8c0.1,0.3,0.2,0.7,0.2,1.1
			c0,0.4-0.1,0.8-0.2,1.1h2.9v-2.2H1574.5z"/>
		<path class="st2" d="M1593.5,1266.3h-5.5v5.8h-1.2v-5.8h-5.4v-1h8.9c0.4-1.9,0.4-3.4,0.4-4.6v-0.2h-7.8v-1h9v1.2
			c0,1.3,0,2.7-0.4,4.6h2V1266.3z"/>
		<path class="st2" d="M1600.9,1260.4c0,3.5-1.2,6.7-5,8.8l-0.7-0.9c3.1-1.7,4.4-4.2,4.5-6.9h-4v-1H1600.9z M1606.5,1258.7v13.5
			h-1.2v-7h-1.8v6.4h-1.2V1259h1.2v5.1h1.8v-5.4H1606.5z"/>
		<path class="st2" d="M1615.7,1265.1h-6.2v-5.9h1.2v1.9h3.8v-1.9h1.2V1265.1z M1614.5,1262.1h-3.8v2h3.8V1262.1z M1612,1271h7.8v1
			h-9v-3.4h7.3v-1.4h-7.3v-1h8.5v3.3h-7.3V1271z M1621.3,1261.6v1h-2v3h-1.2v-6.9h1.2v2.9H1621.3z"/>
	</g>
	<g class="st0">
		<path class="st2" d="M1568.3,1280.7v7.9h-1.2v-1.9h-3.4c-0.6,0.8-1.6,1.2-2.8,1.2c-2,0-3.5-1.3-3.5-3.3c0-1.9,1.5-3.2,3.5-3.2
			c1.2,0,2.2,0.5,2.8,1.2h3.4v-2L1568.3,1280.7z M1563.2,1284.6c0-1.3-1-2.2-2.3-2.2c-1.3,0-2.3,0.9-2.3,2.2c0,1.3,1,2.2,2.3,2.2
			C1562.2,1286.8,1563.2,1285.9,1563.2,1284.6z M1559.3,1289.3h9v4.8h-1.2v-3.8h-7.8V1289.3z M1567.1,1285.7v-2h-2.9
			c0.1,0.3,0.2,0.6,0.2,1c0,0.4-0.1,0.7-0.2,1H1567.1z"/>
		<path class="st2" d="M1579.1,1287.6c-2.1,0.4-3.9,0.4-6.4,0.4h-1.1v-3.8h4.8v-1.7h-4.8v-1h6.1v3.6h-4.8v1.9c2.4,0,4.1-0.1,6.1-0.4
			L1579.1,1287.6z M1581.6,1291.7c0,1.6-1.7,2.4-4.4,2.4c-2.7,0-4.4-0.9-4.4-2.4c0-1.6,1.7-2.5,4.4-2.5
			C1579.9,1289.2,1581.6,1290.1,1581.6,1291.7z M1580.4,1291.7c0-0.9-1.2-1.5-3.2-1.5c-2,0-3.2,0.6-3.2,1.5c0,0.9,1.2,1.5,3.2,1.5
			C1579.2,1293.2,1580.4,1292.6,1580.4,1291.7z M1581.5,1283.8v1.8h2v1h-2v2.2h-1.2v-8.1h1.2v2.1h2v1H1581.5z"/>
		<path class="st2" d="M1596.7,1288.8c-2.9,0.5-6.1,0.5-8.4,0.5l-0.1-1c1.1,0,2.3,0,3.6,0v-1c-1.6-0.2-2.5-0.9-2.5-2
			c0-1.2,1.2-2,3.1-2c1.9,0,3.1,0.8,3.1,2c0,1.1-1,1.8-2.5,2v0.9c1.2-0.1,2.5-0.1,3.6-0.3L1596.7,1288.8z M1596.2,1282.8h-7.7v-0.9
			h3.3v-1.3h1.2v1.3h3.2V1282.8z M1589.8,1290.4h8.8v3.8h-1.2v-2.8h-7.6V1290.4z M1592.4,1286.5c1.2,0,2-0.4,2-1.2s-0.8-1.1-2-1.1
			c-1.2,0-2,0.4-2,1.1S1591.1,1286.5,1592.4,1286.5z M1600.6,1285.8h-2v3.9h-1.2v-9h1.2v4.1h2V1285.8z"/>
		<path class="st2" d="M1603.7,1289.8c1.8,0,3.1-0.1,4.5-0.4l0.1,1c-1.6,0.3-3,0.4-5,0.4h-0.9v-8.5h5v1h-3.8V1289.8z M1613.4,1280.7
			v13.5h-1.2v-7h-1.9v6.4h-1.2V1281h1.2v5.1h1.9v-5.4H1613.4z"/>
		<path class="st2" d="M1626.2,1287h-6.3v-5.5h6.3V1287z M1626.6,1290.2c0,1.3,2.1,2.6,4.4,2.9l-0.4,0.9c-2-0.3-3.8-1.2-4.6-2.5
			c-0.8,1.3-2.7,2.2-4.7,2.5l-0.4-0.9c2.3-0.3,4.4-1.5,4.5-2.9h-3.9v-0.9h3.9v-1.3h1.2v1.3h3.9v0.9H1626.6z M1625,1282.5h-3.9v3.5
			h3.9V1282.5z M1630.2,1288.4h-1.2v-7.7h1.2V1288.4z"/>
	</g>
	<g class="st0">
		<path class="st2" d="M1551,1305h-7.5v-1h3.2v-1.5h1.2v1.5h3.1V1305z M1547.3,1310.8c-1.8,0-3-1-3-2.5s1.3-2.5,3-2.5
			c1.8,0,3,1,3,2.5S1549.1,1310.8,1547.3,1310.8z M1547.3,1309.8c1.1,0,1.9-0.6,1.9-1.6c0-0.9-0.8-1.6-1.9-1.6
			c-1.1,0-1.9,0.6-1.9,1.6C1545.4,1309.2,1546.2,1309.8,1547.3,1309.8z M1545.6,1312h9v4.1h-1.2v-3.2h-7.7V1312z M1554.5,1302.7v8.5
			h-1.2v-1.7h-2.3v-1h2.3v-1.5h-2.3v-1h2.3v-3.3H1554.5z"/>
		<path class="st2" d="M1564.7,1310.3c-1.5-0.6-2.7-1.8-3.3-3.3c-0.6,1.6-1.8,2.9-3.4,3.6l-0.6-1c2-0.8,3.4-2.7,3.4-4.8v-1.4h1.2
			v1.4c0,2,1.4,3.9,3.4,4.6L1564.7,1310.3z M1568.7,1314.8v1h-9.1v-4.2h1.2v3.2H1568.7z M1568.3,1312.5h-1.2v-9.9h1.2V1312.5z"/>
		<path class="st2" d="M1580.9,1306.1c-0.9,2.2-2.9,3.7-5.8,4.6l-0.5-1c3.2-1,5.2-2.7,5.4-5.1h-4.7v-1h6.1c0,0.5-0.1,1-0.1,1.5h3
			v-2.5h1.2v8h-1.2v-1.8h-3.5v-1h3.5v-1.8H1580.9z M1585.6,1313.5c0,1.6-1.7,2.6-4.5,2.6s-4.5-1-4.5-2.6s1.7-2.6,4.5-2.6
			S1585.6,1311.8,1585.6,1313.5z M1584.3,1313.5c0-1-1.3-1.6-3.2-1.6c-2,0-3.2,0.6-3.2,1.6c0,1,1.3,1.6,3.2,1.6
			C1583.1,1315.1,1584.3,1314.5,1584.3,1313.5z"/>
		<path class="st2" d="M1594.2,1310.1c-1.2-0.5-2.1-1.4-2.5-2.6c-0.5,1.3-1.4,2.4-2.7,3l-0.7-0.9c1.8-0.8,2.7-2.4,2.7-4.1v-0.6h-2.5
			v-1h6v1h-2.4v0.6c0,1.7,0.9,3.1,2.6,3.8L1594.2,1310.1z M1599.6,1313.7c0,1.5-1.7,2.4-4.5,2.4c-2.8,0-4.5-0.9-4.5-2.4
			s1.7-2.4,4.5-2.4C1597.9,1311.2,1599.6,1312.1,1599.6,1313.7z M1598.4,1313.7c0-0.9-1.2-1.5-3.3-1.5c-2,0-3.3,0.5-3.3,1.5
			c0,0.9,1.3,1.5,3.3,1.5C1597.2,1315.1,1598.4,1314.6,1598.4,1313.7z M1596.7,1310.5h-1.2v-7.5h1.2v3.3h1.7v-3.6h1.2v8.2h-1.2v-3.7
			h-1.7V1310.5z"/>
		<path class="st2" d="M1609.2,1310c-1.7,0.3-3,0.3-5.7,0.3h-1v-4h4.6v-1.9h-4.6v-1h5.8v3.8h-4.6v2c2.5,0,3.8-0.1,5.3-0.3
			L1609.2,1310z M1604.1,1311.7h9v4.5h-1.2v-3.5h-7.8V1311.7z M1613.1,1302.7v8.3h-1.2v-2.5h-2.6v-1h2.6v-1.8h-2.6v-1h2.6v-2H1613.1
			z"/>
		<path class="st2" d="M1626,1303.7c0,3.4-2.4,5.9-6.3,7.1l-0.5-1c3.2-0.9,5.2-2.8,5.4-5.1h-4.9v-1H1626z M1629.8,1313.5
			c0,1.6-1.7,2.6-4.4,2.6s-4.4-1-4.4-2.6c0-1.6,1.7-2.6,4.4-2.6S1629.8,1311.9,1629.8,1313.5z M1628.6,1313.5c0-1-1.2-1.7-3.2-1.7
			s-3.2,0.6-3.2,1.7c0,1,1.2,1.6,3.2,1.6S1628.6,1314.5,1628.6,1313.5z M1631.6,1306.1v1h-2v3.5h-1.2v-8h1.2v3.5H1631.6z"/>
		<path class="st2" d="M1637.7,1312.4c1.2-0.1,2.5-0.2,3.6-0.3l0.1,0.9c-2.9,0.5-6,0.5-8.4,0.5l-0.2-1c1.1,0,2.3,0,3.6,0v-1.5
			c-1.5-0.2-2.6-1.1-2.6-2.5c0-1.5,1.3-2.5,3.2-2.5s3.2,1,3.2,2.5c0,1.3-1,2.3-2.6,2.5V1312.4z M1641.1,1305.3h-8v-1h3.4v-1.6h1.2
			v1.6h3.4V1305.3z M1637.1,1310.1c1.2,0,2-0.6,2-1.5c0-0.9-0.8-1.5-2-1.5s-2,0.6-2,1.5C1635.1,1309.5,1635.9,1310.1,1637.1,1310.1z
			 M1645.4,1309.4h-2.1v6.7h-1.2v-13.5h1.2v5.7h2.1V1309.4z"/>
	</g>
	<ellipse id="타원_9" class="st2" cx="1456" cy="1379" rx="6" ry="6"/>
	<ellipse id="타원_10" class="st2" cx="1596" cy="1434" rx="6" ry="6"/>
	<g class="st0">
		<path d="M1282.4,1283.3h-6.7v-1.2h2.6v-1.4h1.5v1.4h2.6V1283.3z M1279.1,1288.7c-1.7,0-2.9-1-2.9-2.4c0-1.5,1.2-2.4,2.9-2.4
			c1.7,0,2.9,1,2.9,2.4C1282,1287.7,1280.8,1288.7,1279.1,1288.7z M1279.1,1287.6c0.9,0,1.5-0.5,1.5-1.3c0-0.8-0.6-1.3-1.5-1.3
			c-0.9,0-1.5,0.5-1.5,1.3C1277.6,1287.1,1278.2,1287.6,1279.1,1287.6z M1278,1289.8h9.2v4.4h-1.5v-3.1h-7.6V1289.8z M1287.2,1280.6
			v8.4h-1.5v-3.5h-1.4v3.4h-1.5v-8.1h1.5v3.5h1.4v-3.7H1287.2z"/>
		<path d="M1297,1287.8c-1.6-0.5-2.7-1.5-3.3-2.9c-0.6,1.5-1.8,2.6-3.4,3.2l-0.8-1.2c2.1-0.7,3.3-2.5,3.3-4.3v-1.3h1.6v1.3
			c0,1.8,1.2,3.5,3.3,4.1L1297,1287.8z M1291.9,1289h8.9v5h-8.9V1289z M1293.4,1292.8h5.8v-2.5h-5.8V1292.8z M1300.7,1280.6v7.7
			h-1.5v-7.7H1300.7z"/>
		<path d="M1310.8,1286.4c0,2.9-1.5,4.8-3.5,4.8c-2,0-3.5-1.8-3.5-4.8c0-2.9,1.5-4.8,3.5-4.8
			C1309.3,1281.6,1310.8,1283.5,1310.8,1286.4z M1305.3,1286.4c0,2.1,0.8,3.4,2,3.4c1.2,0,2-1.3,2-3.4c0-2.1-0.8-3.4-2-3.4
			C1306.1,1283,1305.3,1284.3,1305.3,1286.4z M1314.5,1280.6v13.6h-1.6v-13.6H1314.5z"/>
		<path d="M1329.4,1289.5h-3v4.8h-1.5v-4.8h-3.2v4.8h-1.5v-4.8h-3v-1.3h12.3V1289.5z M1328.3,1286.9c-2.2-0.4-4.1-1.5-5-3.1
			c-0.9,1.6-2.7,2.7-5,3.1l-0.6-1.3c2.7-0.4,4.7-2.1,4.7-3.9v-0.7h1.6v0.7c0,1.8,2,3.5,4.8,3.9L1328.3,1286.9z"/>
	</g>
	<g class="st0">
		<path d="M1253.2,1419.8c-0.6,0.7-1.6,1.1-2.7,1.1c-2,0-3.5-1.4-3.5-3.3c0-1.9,1.5-3.3,3.5-3.3c1.1,0,2.1,0.4,2.7,1.1h3.3v-1.9h1.5
			v8h-1.5v-1.8H1253.2z M1250.5,1419.6c1.2,0,2-0.8,2-2c0-1.2-0.9-2-2-2c-1.2,0-2.1,0.8-2.1,2
			C1248.4,1418.8,1249.3,1419.6,1250.5,1419.6z M1258,1424.5c0,1.7-1.8,2.6-4.6,2.6s-4.6-1-4.6-2.6c0-1.6,1.7-2.6,4.6-2.6
			S1258,1422.9,1258,1424.5z M1256.5,1424.5c0-0.9-1.1-1.4-3-1.4c-1.9,0-3,0.5-3,1.4c0,0.9,1.1,1.4,3,1.4
			C1255.4,1425.9,1256.5,1425.4,1256.5,1424.5z M1253.9,1416.7c0.1,0.3,0.1,0.6,0.1,0.9s0,0.6-0.1,0.9h2.6v-1.8H1253.9z"/>
		<path d="M1268.6,1416.3h-8v-1.2h3.2v-1.5h1.5v1.5h3.2V1416.3z M1264.6,1421.7c-2,0-3.3-0.9-3.3-2.4c0-1.5,1.3-2.4,3.3-2.4
			c2,0,3.3,0.9,3.3,2.4C1267.9,1420.7,1266.5,1421.7,1264.6,1421.7z M1271.3,1424.8c0,1.5-1.7,2.4-4.5,2.4c-2.8,0-4.5-0.9-4.5-2.4
			c0-1.5,1.7-2.4,4.5-2.4C1269.6,1422.4,1271.3,1423.3,1271.3,1424.8z M1264.6,1420.5c1.1,0,1.8-0.5,1.8-1.3c0-0.8-0.7-1.3-1.8-1.3
			c-1.1,0-1.8,0.5-1.8,1.3C1262.8,1420,1263.5,1420.5,1264.6,1420.5z M1269.8,1424.8c0-0.8-1.1-1.2-2.9-1.2c-1.9,0-2.9,0.4-2.9,1.2
			c0,0.8,1.1,1.2,2.9,1.2C1268.7,1426,1269.8,1425.6,1269.8,1424.8z M1271.1,1417.1v1.6h1.9v1.3h-1.9v2.3h-1.5v-8.7h1.5v2.2h1.9v1.3
			H1271.1z"/>
	</g>
	<g class="st0">
		<path d="M1254.7,1442.8c-2.5,0.4-5.5,0.5-7.7,0.5l-0.2-1.3c0.5,0,1,0,1.6,0v-4.2h-1.2v-1.3h7.1v1.3h-1.2v4c0.5,0,1-0.1,1.5-0.1
			L1254.7,1442.8z M1258,1446.7c0,1.6-1.7,2.5-4.6,2.5s-4.6-0.9-4.6-2.5c0-1.6,1.7-2.5,4.6-2.5S1258,1445.1,1258,1446.7z
			 M1249.8,1442c0.6,0,1.1,0,1.7-0.1v-4.1h-1.7V1442z M1256.5,1446.7c0-0.9-1.1-1.3-3-1.3s-3,0.5-3,1.3c0,0.8,1.1,1.3,3,1.3
			S1256.5,1447.5,1256.5,1446.7z M1256.4,1441.6h-2v-1.2h2v-1.2h-2v-1.2h2v-2.3h1.5v8.3h-1.5V1441.6z"/>
		<path d="M1267.5,1437c0,3.9-1.7,7.4-6.1,9.6l-0.9-1.2c3.3-1.7,5.1-4.1,5.4-7.2h-4.7v-1.3H1267.5z M1273.1,1442.2h-2.1v6.9h-1.5
			v-13.5h1.5v5.4h2.1V1442.2z"/>
	</g>
	<line id="선_385" class="st4" x1="1221" y1="1224.5" x2="1660" y2="1224.5"/>
	<line id="선_394" class="st3" x1="1221" y1="1351.5" x2="1660" y2="1351.5"/>
	<line id="선_395" class="st3" x1="1300.5" y1="1407.5" x2="1660" y2="1407.5"/>
	<line id="선_396" class="st3" x1="1300.5" y1="1463.5" x2="1660" y2="1463.5"/>
	<line id="선_393" class="st4" x1="1221" y1="1519.5" x2="1660" y2="1519.5"/>
</g>
</svg>
