<?xml version="1.0" encoding="utf-8"?>
<!-- Generator: Adobe Illustrator 25.1.0, SVG Export Plug-In . SVG Version: 6.00 Build 0)  -->
<svg version="1.1" id="레이어_1" xmlns="http://www.w3.org/2000/svg" xmlns:xlink="http://www.w3.org/1999/xlink" x="0px"
	 y="0px" viewBox="0 0 335 139.6" style="enable-background:new 0 0 335 139.6;" xml:space="preserve">
<style type="text/css">
	.st0{fill:none;}
	.st1{fill:none;stroke:#D5D5D5;}
	.st2{enable-background:new    ;}
	.st3{fill:#555555;}
	.st4{fill:#FFF8F8;}
	.st5{fill:#DF1C2F;}
</style>
<g id="그룹_5694" transform="translate(-20 -2351.725)">
	<g id="사각형_515" transform="translate(20 2351.725)">
		<rect y="0" class="st0" width="335" height="139.6"/>
		<rect x="0.5" y="0.5" class="st1" width="334" height="138.6"/>
	</g>
	<g class="st2">
		<path class="st3" d="M43.6,2418.5c0-1.1,0.8-1.8,1.6-1.8c0.9,0,1.6,0.7,1.6,1.8c0,1-0.8,1.7-1.6,1.7
			C44.3,2420.2,43.6,2419.5,43.6,2418.5z"/>
		<path class="st3" d="M57.7,2418.2h-5.4v-5.8h1.1v2h3.3v-2h1V2418.2z M56.7,2415.2h-3.3v2.1h3.3V2415.2z M54.7,2422.1h6.7v0.9h-7.8
			v-3.7h1.1V2422.1z M62.6,2415.1v0.9h-1.7v4.1h-1.1v-8.6h1.1v3.5H62.6z"/>
		<path class="st3" d="M74.8,2420.9v0.9H64.2v-0.9H69v-3h-3.4v-5.4h7.9v0.9h-6.8v3.7h7v0.9h-3.5v3H74.8z"/>
		<path class="st3" d="M80,2415.2c0,1.9,0.9,3.8,2.5,4.6l-0.6,0.8c-1.1-0.6-2-1.8-2.4-3.2c-0.4,1.5-1.2,2.8-2.4,3.5l-0.6-0.8
			c1.6-0.9,2.5-3,2.5-4.9v-0.6h-2.2v-0.9H79v-1.7h1v1.7h2.1v0.9H80V2415.2z M83.2,2411.9h1v10.8h-1v-5.6h-1.8v-0.9h1.8V2411.9z
			 M86.5,2411.6v11.6h-1v-11.6H86.5z"/>
		<path class="st3" d="M99.6,2417.4v0.9H89v-0.9h2.6v-1.6c-0.9-0.4-1.4-1-1.4-1.8c0-1.4,1.6-2.2,4.1-2.2c2.5,0,4.1,0.8,4.1,2.2
			c0,0.8-0.5,1.4-1.4,1.7v1.7H99.6z M98.3,2421.2c0,1.3-1.5,2.1-4,2.1c-2.5,0-4-0.7-4-2.1s1.5-2.1,4-2.1
			C96.8,2419.1,98.3,2419.8,98.3,2421.2z M94.3,2415.3c1.9,0,3-0.5,3-1.3c0-0.8-1.1-1.3-3-1.3c-1.9,0-3,0.5-3,1.3
			C91.3,2414.8,92.4,2415.3,94.3,2415.3z M97.2,2421.2c0-0.8-1.1-1.2-2.9-1.2c-1.8,0-2.9,0.5-2.9,1.2s1.1,1.2,2.9,1.2
			C96.1,2422.4,97.2,2422,97.2,2421.2z M92.7,2417.4h3.2v-1.4c-0.5,0.1-1,0.1-1.6,0.1c-0.6,0-1.1-0.1-1.6-0.1V2417.4z"/>
		<path class="st3" d="M115.3,2416.9v0.9h-10.5v-0.9h4.7v-1.1h-3.7v-0.8h1.7v-2.2h-1.8v-0.8h8.6v0.8h-1.8v2.2h1.7v0.8h-3.7v1.1
			H115.3z M107.1,2422.3h7.2v0.8h-8.2v-2.7h6.8v-1H106v-0.8h7.9v2.5h-6.9V2422.3z M108.6,2415h2.9v-2.2h-2.9V2415z"/>
		<path class="st3" d="M118.9,2419.6c1.9,0,3.6-0.1,5.7-0.4l0.1,0.9c-2.1,0.4-3.9,0.4-5.9,0.4h-1v-4.5h4.3v-2.4h-4.3v-0.9h5.4v4.2
			h-4.3V2419.6z M126.7,2411.6v11.7h-1.1v-11.7H126.7z"/>
		<path class="st3" d="M136.1,2417.3c-1.3-0.5-2.4-1.4-2.9-2.7c-0.5,1.3-1.6,2.4-3,2.9l-0.5-0.8c1.8-0.6,3-2.2,3-3.9v-0.9h1.1v0.9
			c0,1.6,1.2,3.1,3,3.6L136.1,2417.3z M139.5,2422.3v0.8h-7.9v-2.9h6.5v-1.2h-6.5v-0.8h7.6v2.8h-6.5v1.2H139.5z M139.1,2417.7H138
			v-6h1.1V2417.7z"/>
		<path class="st3" d="M143.7,2419.6c1.9,0,3.6-0.1,5.7-0.4l0.1,0.9c-2.1,0.4-3.9,0.4-5.9,0.4h-1v-4.5h4.3v-2.4h-4.3v-0.9h5.4v4.2
			h-4.3V2419.6z M151.5,2411.6v11.7h-1.1v-11.7H151.5z"/>
		<path class="st3" d="M164.8,2417.8v0.9h-10.5v-0.9h4.3v-1.7h1.1v1.7H164.8z M162.5,2414.3c0-0.4,0-0.8,0-1.1v-0.1h-6.9v-0.9h8v1
			c0,1.1,0,2.2-0.3,3.8l-1.1-0.1c0.1-0.7,0.2-1.3,0.3-1.8l-7,0.3l-0.2-0.9L162.5,2414.3z M156.7,2422.2h7.1v0.9h-8.2v-3.4h1.1
			V2422.2z"/>
		<path class="st3" d="M174,2414.7c0,2.1,1.3,4.2,3,5l-0.7,0.8c-1.2-0.7-2.3-2-2.8-3.6c-0.5,1.7-1.6,3.2-2.9,3.9l-0.6-0.9
			c1.7-0.9,3-3.1,3-5.2v-2.1h1.1V2414.7z M180.9,2417.2H179v6h-1.1v-11.6h1.1v4.7h1.9V2417.2z"/>
		<path class="st3" d="M192,2411.6v6.3H191v-2.6h-2.4c-0.2,1.4-1.4,2.3-3,2.3c-1.7,0-3-1.1-3-2.7c0-1.6,1.3-2.7,3-2.7
			c1.6,0,2.7,0.9,3,2.2h2.4v-2.8H192z M187.6,2414.8c0-1.1-0.8-1.8-2-1.8c-1.2,0-2,0.7-2,1.8c0,1.1,0.8,1.8,2,1.8
			C186.8,2416.7,187.6,2415.9,187.6,2414.8z M191,2418.4h1.1v4.7h-7.5v-4.7h1.1v1.5h5.3V2418.4z M191,2420.7h-5.3v1.5h5.3V2420.7z"
			/>
		<path class="st3" d="M205.5,2418.6c-2.5,0.4-5.3,0.4-7.3,0.5l-0.1-0.9c0.9,0,2,0,3.1,0v-0.8c-1.4-0.1-2.2-0.8-2.2-1.7
			c0-1.1,1.1-1.7,2.7-1.7c1.6,0,2.7,0.7,2.7,1.7c0,0.9-0.8,1.6-2.2,1.7v0.8c1.1-0.1,2.1-0.1,3.2-0.3L205.5,2418.6z M205.1,2413.5
			h-6.7v-0.8h2.8v-1.1h1.1v1.1h2.8V2413.5z M199.5,2420h7.7v3.2h-1.1v-2.4h-6.6V2420z M201.7,2416.6c1,0,1.7-0.4,1.7-1
			c0-0.6-0.7-1-1.7-1c-1.1,0-1.7,0.4-1.7,1C200,2416.2,200.7,2416.6,201.7,2416.6z M208.9,2416h-1.7v3.4h-1.1v-7.8h1.1v3.5h1.7V2416
			z"/>
		<path class="st3" d="M212,2419.5c1.6,0,2.7-0.1,3.9-0.4l0.1,0.9c-1.4,0.3-2.6,0.4-4.3,0.4H211v-7.4h4.3v0.9H212V2419.5z
			 M220.5,2411.6v11.7h-1v-6.1h-1.7v5.5h-1v-10.8h1v4.4h1.7v-4.7H220.5z"/>
	</g>
	<g class="st2">
		<path class="st3" d="M43.6,2439.5c0-1.1,0.8-1.8,1.6-1.8c0.9,0,1.6,0.7,1.6,1.8c0,1-0.8,1.7-1.6,1.7
			C44.3,2441.2,43.6,2440.5,43.6,2439.5z"/>
		<path class="st3" d="M62.4,2436.9v0.9H51.9v-0.9h7.9c0.3-1.3,0.3-2.2,0.3-3h-6.8v-0.9h7.9v0.7c0,0.8,0,1.8-0.3,3.1H62.4z
			 M54.2,2443.3h7.2v0.8h-8.3v-3H60v-1.3h-6.9v-0.8h8v2.9h-6.9V2443.3z"/>
		<path class="st3" d="M74.8,2442v0.9H64.2v-0.9H69v-2.2h-3.4v-3.6h6.9v-1.8h-6.9v-0.9h8v3.5h-6.9v1.9h7.2v0.9h-3.7v2.2H74.8z"/>
		<path class="st3" d="M82.5,2438.2h-5.3v-5.1h1.1v1.7h3.1v-1.7h1.1v2.1h2.7v-2.6h1.1v6.1h-1.1v-2.6h-2.7V2438.2z M81.4,2435.6h-3.1
			v1.7h3.1V2435.6z M86.7,2443.3v0.8h-7.9v-2.9h6.4v-1.1h-6.5v-0.8h7.5v2.8h-6.4v1.2H86.7z"/>
		<path class="st3" d="M96.3,2435.7c0,2.1,1.3,4.2,3,5l-0.7,0.8c-1.2-0.7-2.3-2-2.8-3.6c-0.5,1.7-1.6,3.2-2.9,3.9l-0.6-0.9
			c1.7-0.9,3-3.1,3-5.2v-2.1h1.1V2435.7z M103.3,2438.2h-1.9v6h-1.1v-11.6h1.1v4.7h1.9V2438.2z"/>
		<path class="st3" d="M114.4,2432.6v6.3h-1.1v-2.6h-2.4c-0.2,1.4-1.4,2.3-3,2.3c-1.7,0-3-1.1-3-2.7c0-1.6,1.3-2.7,3-2.7
			c1.6,0,2.7,0.9,3,2.2h2.4v-2.8H114.4z M109.9,2435.8c0-1.1-0.8-1.8-2-1.8c-1.2,0-2,0.7-2,1.8c0,1.1,0.8,1.8,2,1.8
			C109.1,2437.7,109.9,2436.9,109.9,2435.8z M113.3,2439.4h1.1v4.7h-7.5v-4.7h1.1v1.5h5.3V2439.4z M113.3,2441.7H108v1.5h5.3V2441.7
			z"/>
		<path class="st3" d="M123.3,2433.9c0,3.4-1.5,6.3-5.4,8.2l-0.6-0.9c3.1-1.5,4.7-3.7,4.9-6.5h-4.4v-0.9H123.3z M126.7,2432.6v11.7
			h-1.1v-11.7H126.7z"/>
		<path class="st3" d="M135.4,2439.2H130v-5.8h1.1v2h3.3v-2h1V2439.2z M134.4,2436.2h-3.3v2.1h3.3V2436.2z M132.4,2443.1h6.7v0.9
			h-7.8v-3.7h1.1V2443.1z M140.3,2436.1v0.9h-1.7v4.1h-1.1v-8.6h1.1v3.5H140.3z"/>
		<path class="st3" d="M150.9,2435.6c-0.8,1.9-2.5,3.2-5,4l-0.4-0.8c2.8-0.8,4.5-2.4,4.7-4.4H146v-0.9h5.3c0,0.4-0.1,0.9-0.1,1.3
			h2.6v-2.1h1.1v7h-1.1v-1.5h-3.1v-0.9h3.1v-1.6H150.9z M154.9,2442c0,1.4-1.5,2.2-3.9,2.2s-3.9-0.8-3.9-2.2s1.5-2.2,3.9-2.2
			S154.9,2440.6,154.9,2442z M153.9,2442c0-0.9-1.1-1.4-2.8-1.4c-1.7,0-2.8,0.5-2.8,1.4c0,0.9,1.1,1.4,2.8,1.4
			C152.8,2443.4,153.9,2442.9,153.9,2442z"/>
		<path class="st3" d="M162.8,2439c-1.1-0.4-1.8-1.2-2.2-2.2c-0.4,1.1-1.2,2.1-2.3,2.6l-0.6-0.8c1.5-0.6,2.4-2.1,2.4-3.6v-0.5h-2.1
			v-0.9h5.2v0.9h-2.1v0.5c0,1.4,0.8,2.7,2.3,3.3L162.8,2439z M167.5,2442.1c0,1.3-1.5,2.1-3.9,2.1c-2.4,0-3.9-0.8-3.9-2.1
			s1.5-2.1,3.9-2.1C166,2440,167.5,2440.8,167.5,2442.1z M166.5,2442.1c0-0.8-1.1-1.3-2.8-1.3c-1.7,0-2.8,0.5-2.8,1.3
			c0,0.8,1.1,1.3,2.8,1.3C165.4,2443.4,166.5,2443,166.5,2442.1z M165,2439.4h-1v-6.5h1v2.9h1.5v-3.1h1v7.1h-1v-3.2H165V2439.4z"/>
		<path class="st3" d="M176.3,2439c-1.4,0.2-2.6,0.3-4.9,0.3h-0.8v-3.5h4v-1.6h-4v-0.9h5v3.3h-4v1.8c2.2,0,3.3-0.1,4.6-0.3
			L176.3,2439z M171.8,2440.4h7.8v3.9h-1.1v-3h-6.7V2440.4z M179.6,2432.6v7.2h-1.1v-2.2h-2.3v-0.9h2.3v-1.6h-2.3v-0.9h2.3v-1.7
			H179.6z"/>
		<path class="st3" d="M191.7,2433.5c0,3-2.1,5.1-5.4,6.1l-0.4-0.9c2.8-0.8,4.5-2.4,4.7-4.4h-4.2v-0.9H191.7z M195,2442
			c0,1.4-1.5,2.3-3.8,2.3c-2.3,0-3.8-0.9-3.8-2.3c0-1.4,1.5-2.3,3.8-2.3C193.5,2439.7,195,2440.6,195,2442z M193.9,2442
			c0-0.9-1.1-1.4-2.7-1.4c-1.7,0-2.7,0.5-2.7,1.4c0,0.9,1.1,1.4,2.7,1.4C192.8,2443.4,193.9,2442.9,193.9,2442z M196.5,2435.6v0.9
			h-1.7v3.1h-1.1v-7h1.1v3H196.5z"/>
		<path class="st3" d="M202.3,2441.1c1.1-0.1,2.1-0.1,3.1-0.3l0.1,0.8c-2.5,0.4-5.2,0.5-7.3,0.5l-0.1-0.9c0.9,0,2,0,3.2,0v-1.3
			c-1.3-0.2-2.2-1-2.2-2.1c0-1.3,1.1-2.2,2.8-2.2s2.8,0.8,2.8,2.2c0,1.2-0.9,2-2.2,2.1V2441.1z M205.2,2434.9h-7v-0.8h3v-1.4h1.1
			v1.4h2.9V2434.9z M201.7,2439c1,0,1.7-0.5,1.7-1.3c0-0.8-0.7-1.3-1.7-1.3s-1.7,0.5-1.7,1.3C200,2438.5,200.7,2439,201.7,2439z
			 M209,2438.5h-1.8v5.8h-1.1v-11.7h1.1v5h1.8V2438.5z"/>
	</g>
	<g class="st2">
		<path class="st3" d="M43.6,2460.5c0-1.1,0.8-1.8,1.6-1.8c0.9,0,1.6,0.7,1.6,1.8c0,1-0.8,1.7-1.6,1.7
			C44.3,2462.2,43.6,2461.5,43.6,2460.5z"/>
		<path class="st3" d="M57.7,2455.8h-5.9v-0.8h2.4v-1.3h1.1v1.3h2.4V2455.8z M54.8,2460.5c-1.5,0-2.5-0.8-2.5-2.1
			c0-1.2,1-2.1,2.5-2.1s2.5,0.8,2.5,2.1C57.3,2459.7,56.2,2460.5,54.8,2460.5z M54.8,2459.7c0.9,0,1.5-0.5,1.5-1.3s-0.6-1.2-1.5-1.2
			c-0.9,0-1.5,0.5-1.5,1.2S53.8,2459.7,54.8,2459.7z M53.9,2461.6h7.8v3.7h-1.1v-2.9h-6.8V2461.6z M61.7,2453.6v7.3h-1v-3.1h-1.5v3
			h-1v-7h1v3.1h1.5v-3.3H61.7z"/>
		<path class="st3" d="M70.8,2459.7c-1.3-0.5-2.4-1.5-2.9-2.7c-0.5,1.4-1.6,2.4-3,2.9l-0.5-0.8c1.8-0.6,3-2.2,3-3.9v-1.1h1.1v1.1
			c0,1.7,1.2,3.1,3,3.7L70.8,2459.7z M66.3,2460.9h7.5v4.2h-7.5V2460.9z M67.3,2464.3h5.5v-2.5h-5.5V2464.3z M73.8,2453.6v6.6h-1.1
			v-6.6H73.8z"/>
		<path class="st3" d="M85.6,2459.1c-0.5,0.7-1.4,1.1-2.4,1.1c-1.7,0-3-1.2-3-2.9s1.3-2.9,3-2.9c1,0,1.8,0.4,2.4,1.1h3v-1.8h1.1v8.6
			h-1.1v-3.1H85.6z M83.2,2459.3c1.1,0,2-0.8,2-2s-0.8-2-2-2c-1.1,0-2,0.8-2,2S82,2459.3,83.2,2459.3z M89.9,2464.1v0.9h-7.8v-3.7
			h1.1v2.8H89.9z M86,2456.3c0.1,0.3,0.2,0.6,0.2,1c0,0.3-0.1,0.7-0.2,1h2.5v-1.9H86z"/>
		<path class="st3" d="M102.9,2460.2h-4.8v5h-1.1v-5h-4.7v-0.9h7.7c0.4-1.7,0.4-2.9,0.4-4v-0.2h-6.8v-0.9h7.8v1c0,1.1,0,2.3-0.3,4
			h1.7V2460.2z"/>
		<path class="st3" d="M108.1,2460.2c-1.7,0-3-1.2-3-2.9c0-1.7,1.3-2.9,3-2.9c1.7,0,3.1,1.2,3.1,2.9
			C111.1,2459,109.8,2460.2,108.1,2460.2z M108.1,2459.2c1.2,0,2-0.8,2-2c0-1.1-0.9-1.9-2-1.9c-1.1,0-2,0.8-2,1.9
			C106.1,2458.4,106.9,2459.2,108.1,2459.2z M114.7,2464.1v0.9h-7.9v-3.7h1.1v2.9H114.7z M114.3,2462.1h-1.1v-8.5h1.1V2462.1z"/>
		<path class="st3" d="M123.4,2460c-1.4,0.2-2.6,0.3-4.9,0.3h-0.8v-3.5h4v-1.6h-4v-0.9h5v3.3h-4v1.8c2.2,0,3.3-0.1,4.6-0.3
			L123.4,2460z M118.9,2461.4h7.8v3.9h-1.1v-3h-6.7V2461.4z M126.8,2453.6v7.2h-1.1v-2.2h-2.3v-0.9h2.3v-1.6h-2.3v-0.9h2.3v-1.7
			H126.8z"/>
		<path class="st3" d="M138.9,2459.1h-5.4v-4.8h5.4V2459.1z M139.3,2461.9c0,1.1,1.8,2.2,3.8,2.5l-0.4,0.8c-1.8-0.2-3.3-1.1-4-2.1
			c-0.7,1.1-2.3,1.9-4.1,2.1l-0.4-0.8c2-0.2,3.8-1.3,3.9-2.5h-3.4v-0.8h3.4v-1.1h1.1v1.1h3.4v0.8H139.3z M137.9,2455.2h-3.4v3.1h3.4
			V2455.2z M142.4,2460.3h-1.1v-6.7h1.1V2460.3z"/>
		<path class="st3" d="M154.8,2454.9c0,3.4-1.5,6.3-5.4,8.2l-0.6-0.9c3.1-1.5,4.7-3.7,4.9-6.5h-4.4v-0.9H154.8z M158.2,2453.6v11.7
			h-1.1v-11.7H158.2z"/>
		<path class="st3" d="M166.8,2459.3v1.2h3.4v2.7h-6.9v1.2h7.2v0.8h-8.2v-2.8h6.8v-1.1h-6.9v-0.8h3.5v-1.2H161v-0.9h10.6v0.9H166.8z
			 M170.6,2457.7c-1.8-0.2-3.6-1.1-4.3-2.3c-0.7,1.2-2.5,2.1-4.4,2.3l-0.4-0.8c2.1-0.2,4.2-1.4,4.2-2.8v-0.4h1.1v0.4
			c0,1.4,2,2.6,4.1,2.8L170.6,2457.7z"/>
		<path class="st3" d="M184.1,2460.6c-2.5,0.4-5.3,0.4-7.3,0.5l-0.1-0.9c0.9,0,2,0,3.1,0v-0.8c-1.4-0.1-2.2-0.8-2.2-1.7
			c0-1.1,1.1-1.7,2.7-1.7c1.6,0,2.7,0.7,2.7,1.7c0,0.9-0.8,1.6-2.2,1.7v0.8c1.1-0.1,2.1-0.1,3.2-0.3L184.1,2460.6z M183.7,2455.5
			H177v-0.8h2.8v-1.1h1.1v1.1h2.8V2455.5z M178.1,2462h7.7v3.2h-1.1v-2.4h-6.6V2462z M180.3,2458.6c1,0,1.7-0.4,1.7-1
			c0-0.6-0.7-1-1.7-1c-1.1,0-1.7,0.4-1.7,1C178.6,2458.2,179.3,2458.6,180.3,2458.6z M187.5,2458h-1.7v3.4h-1.1v-7.8h1.1v3.5h1.7
			V2458z"/>
		<path class="st3" d="M199.7,2462.9v0.9h-10.6v-0.9h4.7v-2.5h-3.5v-6h1.1v2.1h6v-2.1h1v6h-3.5v2.5H199.7z M191.4,2459.5h6v-2.1h-6
			V2459.5z"/>
	</g>
	<g id="사각형_516" transform="translate(20 2351.725)">
		<rect y="0" class="st4" width="335" height="37.7"/>
		<rect x="0.5" y="0.5" class="st1" width="334" height="36.7"/>
	</g>
	<g class="st2">
		<path class="st5" d="M143.8,2367h-7.6v-1.4h2.9v-1.3h1.9v1.3h2.9V2367z M140,2372c-1.9,0-3.2-0.9-3.2-2.3c0-1.4,1.3-2.3,3.2-2.3
			c1.9,0,3.2,0.9,3.2,2.3C143.1,2371.1,141.8,2372,140,2372z M146.5,2374.9c0,1.4-1.7,2.3-4.3,2.3c-2.7,0-4.3-0.9-4.3-2.3
			c0-1.4,1.7-2.3,4.3-2.3C144.8,2372.6,146.5,2373.5,146.5,2374.9z M140,2370.7c0.8,0,1.4-0.3,1.4-1c0-0.6-0.6-1-1.4-1
			c-0.8,0-1.4,0.3-1.4,1C138.6,2370.4,139.1,2370.7,140,2370.7z M144.6,2374.9c0-0.6-0.9-0.9-2.5-0.9s-2.5,0.3-2.5,0.9
			c0,0.6,0.9,0.9,2.5,0.9S144.6,2375.6,144.6,2374.9z M146.3,2367.7v1.3h1.7v1.5h-1.7v2h-1.8v-8.2h1.8v1.8h1.7v1.5H146.3z"/>
		<path class="st5" d="M161.2,2374.2h-4.9v3.1h-1.8v-3.1h-4.9v-1.5h11.7V2374.2z M160.6,2367.1h-10.5v-1.4h4.3v-1.4h1.8v1.4h4.3
			V2367.1z M155.3,2367.6c2.8,0,4.4,0.8,4.4,2.2c0,1.4-1.7,2.2-4.4,2.2c-2.8,0-4.4-0.8-4.4-2.2
			C150.9,2368.4,152.6,2367.6,155.3,2367.6z M155.3,2369c-1.7,0-2.5,0.3-2.5,0.9c0,0.6,0.8,0.8,2.5,0.8c1.7,0,2.5-0.3,2.5-0.8
			C157.8,2369.2,157,2369,155.3,2369z"/>
		<path class="st5" d="M173.2,2364.6h1.7v12.1h-1.7v-4.2h-1.8v-1.5h1.8v-1.8h-1.6c-0.6,2.1-1.9,3.9-4.3,5.4l-1.1-1.3
			c2.5-1.6,3.7-3.4,3.9-5.9H167v-1.5h5c0,0.7,0,1.3-0.1,1.9h1.2V2364.6z M177.6,2364.3v12.9h-1.8v-12.9H177.6z"/>
		<path class="st5" d="M188.1,2372.3c-2.7,0.5-5.7,0.5-7.9,0.5l-0.2-1.4c1,0,2.1,0,3.2,0v-0.7c-1.4-0.2-2.3-0.9-2.3-1.9
			c0-1.2,1.3-1.9,3.2-1.9c1.9,0,3.2,0.7,3.2,1.9c0,1-0.9,1.7-2.3,1.9v0.6c1-0.1,2-0.1,3-0.3L188.1,2372.3z M187.8,2366.6h-7.6v-1.3
			h2.9v-1h1.8v1h2.8V2366.6z M181.7,2373.6h8.9v3.7h-1.9v-2.2h-7V2373.6z M184.1,2369.6c0.9,0,1.4-0.3,1.4-0.7
			c0-0.5-0.5-0.7-1.4-0.7c-0.9,0-1.4,0.2-1.4,0.7C182.6,2369.3,183.2,2369.6,184.1,2369.6z M190.6,2364.3v8.7h-1.9v-8.7H190.6z"/>
		<path class="st5" d="M203.7,2370.6h-6.3v-5.5h6.3V2370.6z M204.2,2373.7c0.2,0.9,1.5,1.9,4,2.1l-0.6,1.4c-2.1-0.2-3.6-1-4.4-1.9
			c-0.8,1-2.3,1.8-4.5,1.9l-0.6-1.4c2.6-0.2,3.9-1.2,4.1-2.1h-3.6v-1.4h3.6v-1.1h1.9v1.1h3.6v1.4H204.2z M201.9,2366.6h-2.6v2.6h2.6
			V2366.6z M207.5,2371.7h-1.8v-7.3h1.8V2371.7z"/>
		<path class="st5" d="M225.5,2370.6v1.5h-11.7v-1.5h4.9v-1.2h-3.5v-4.6h8.8v4.6h-3.4v1.2H225.5z M215.1,2373h9v4.2h-1.8v-2.8h-7.1
			V2373z M217.1,2367.9h5.1v-1.7h-5.1V2367.9z"/>
		<path class="st5" d="M238.8,2374.3v1.5h-11.7v-1.5h2.9v-2.4h-1.9v-1.5h1.7v-3.6h-1.8v-1.5h9.8v1.5h-1.8v3.6h1.7v1.5h-1.9v2.4
			H238.8z M231.6,2370.4h2.6v-3.6h-2.6V2370.4z M231.9,2374.3h2.2v-2.4h-2.2V2374.3z"/>
	</g>
</g>
</svg>
