<?xml version="1.0" encoding="utf-8"?>
<!-- Generator: Adobe Illustrator 25.1.0, SVG Export Plug-In . SVG Version: 6.00 Build 0)  -->
<svg version="1.1" id="레이어_1" xmlns="http://www.w3.org/2000/svg" xmlns:xlink="http://www.w3.org/1999/xlink" x="0px"
	 y="0px" viewBox="0 0 335 168.4" style="enable-background:new 0 0 335 168.4;" xml:space="preserve">
<style type="text/css">
	.st0{enable-background:new    ;}
	.st1{fill:#DF1C2F;}
	.st2{fill:#929397;}
	.st3{fill:#E2E2E2;}
	.st4{fill:#808080;}
	.st5{fill:#A3A3A3;}
	.st6{fill:#FFFFFF;}
	.st7{fill:none;stroke:#D5D5D5;}
</style>
<g id="그룹_5717" transform="translate(-20 -1710.745)">
	<g id="그룹_5691" transform="translate(0 -31.561)">
		<g class="st0">
			<path class="st1" d="M26.7,1753c-0.6,0.7-1.5,1.1-2.5,1.1c-1.9,0-3.4-1.4-3.4-3.3c0-1.9,1.5-3.3,3.4-3.3c1,0,1.9,0.4,2.5,1h2.9
				v-1.8h1.8v9.4h-1.8v-3H26.7z M24.2,1752.5c1,0,1.7-0.7,1.7-1.7c0-1.1-0.7-1.7-1.7-1.7c-0.9,0-1.6,0.7-1.6,1.7
				C22.5,1751.8,23.2,1752.5,24.2,1752.5z M31.7,1757.8v1.5h-8.8v-4.2h1.8v2.7H31.7z M27.5,1749.9c0.1,0.3,0.1,0.5,0.1,0.8
				c0,0.3,0,0.6-0.1,0.8h2.1v-1.7H27.5z"/>
			<path class="st1" d="M45.2,1754.3h-5v5.2h-1.9v-5.2h-4.8v-1.5h8.1c0.3-1.6,0.4-2.9,0.4-4h-7.1v-1.5h9v1.2c0,1.2,0,2.5-0.3,4.3
				h1.7V1754.3z"/>
			<path class="st1" d="M51.9,1748.2c0,3.6-1.1,6.6-4.7,8.7l-1.1-1.3c2.6-1.5,3.7-3.4,3.9-5.9h-3.3v-1.5H51.9z M57.4,1746.6v12.9
				h-1.8v-6.6h-1.1v6h-1.7v-12h1.7v4.5h1.1v-4.9H57.4z"/>
			<path class="st1" d="M65.8,1752.8h-6.2v-5.7h1.8v1.5H64v-1.5h1.8V1752.8z M62.7,1758h7v1.4h-8.9v-3.6h6.7v-0.8h-6.7v-1.4h8.5v3.5
				h-6.7V1758z M64,1750.1h-2.5v1.3H64V1750.1z M71.1,1749.1v1.5h-1.7v2.6h-1.8v-6.6h1.8v2.5H71.1z"/>
			<path class="st1" d="M79,1754c-2,0-3.5-1.4-3.5-3.3c0-1.9,1.5-3.3,3.5-3.3s3.5,1.4,3.5,3.3C82.5,1752.6,81,1754,79,1754z
				 M79,1752.4c1,0,1.7-0.6,1.7-1.7c0-1.1-0.7-1.7-1.7-1.7c-1,0-1.7,0.6-1.7,1.7C77.3,1751.8,78,1752.4,79,1752.4z M86.3,1757.8v1.5
				h-8.9v-4.3h1.8v2.8H86.3z M86,1755.9h-1.9v-9.3H86V1755.9z"/>
			<path class="st1" d="M94.9,1753.9c-1.5,0.3-2.8,0.3-5.3,0.3h-1v-4.2h3.8v-1.2h-3.8v-1.5h5.6v4.1h-3.8v1.3c1.8,0,3-0.1,4.3-0.3
				L94.9,1753.9z M90.1,1755.1H99v4.4h-1.8v-2.9h-7V1755.1z M99,1746.6v8h-1.8v-1.9H95v-1.5h2.1v-1.3H95v-1.5h2.1v-1.8L99,1746.6z"
				/>
		</g>
		<g class="st0">
			<path class="st2" d="M26.4,1775.3c-1.4,0.3-2.5,0.3-4.6,0.3H21v-4.5h4.4v0.7h-3.5v3.1c1.9,0,3.1-0.1,4.4-0.3L26.4,1775.3z
				 M23,1779.2h5.7v0.7h-6.6v-3.2H23V1779.2z M29.7,1773.2v0.7h-1.5v3.5h-0.9v-7.1h0.9v2.9H29.7z"/>
			<path class="st2" d="M37.3,1775.9c-0.9,0.2-1.9,0.3-2.8,0.3v3.6h-0.9v-3.5c-1,0-1.9,0.1-2.7,0.1l-0.1-0.8c1.8,0,4.3,0,6.5-0.4
				L37.3,1775.9z M31.4,1772.7c0-1.2,1-2,2.5-2c1.5,0,2.5,0.8,2.5,2c0,1.2-1,2-2.5,2C32.5,1774.8,31.4,1773.9,31.4,1772.7z
				 M32.3,1772.7c0,0.8,0.7,1.3,1.6,1.3c1,0,1.6-0.5,1.6-1.3c0-0.8-0.7-1.3-1.6-1.3C33,1771.5,32.3,1772,32.3,1772.7z M38.8,1770.3
				v9.9h-0.9v-9.9H38.8z"/>
			<path class="st2" d="M43.5,1774.3c0-0.5,0.3-0.8,0.7-0.8s0.7,0.3,0.7,0.8c0,0.4-0.3,0.8-0.7,0.8S43.5,1774.7,43.5,1774.3z
				 M43.5,1778.7c0-0.5,0.3-0.8,0.7-0.8s0.7,0.3,0.7,0.8s-0.3,0.8-0.7,0.8S43.5,1779.1,43.5,1778.7z"/>
			<path class="st2" d="M53.8,1775.4h-4.5v-4.4h4.5v0.9H56v-1.6h0.9v5.8H56v-1.6h-2.3V1775.4z M52.9,1771.7h-2.7v2.9h2.7V1771.7z
				 M57,1778.2c0,1.2-1.3,1.9-3.3,1.9c-2,0-3.3-0.7-3.3-1.9c0-1.2,1.3-1.9,3.3-1.9C55.7,1776.4,57,1777.1,57,1778.2z M56.1,1778.2
				c0-0.7-0.9-1.2-2.4-1.2c-1.5,0-2.4,0.4-2.4,1.2c0,0.7,0.9,1.2,2.4,1.2C55.2,1779.4,56.1,1779,56.1,1778.2z M53.8,1772.6v1.2H56
				v-1.2H53.8z"/>
		</g>
		<path id="패스_4992" class="st3" d="M148,1910.1h46v-80.9h-46V1910.1z"/>
		<g class="st0">
			<path class="st4" d="M160.5,1901.1c1.7-1.5,3.5-2.8,3.5-4.3c0-0.8-0.3-1.3-1.2-1.3c-0.8,0-1.2,0.6-1.3,1.4h-1.1
				c0-1.6,1.1-2.3,2.3-2.3c1.5,0,2.3,0.9,2.3,2.2c0,1.8-1.8,3.1-3,4.2h3.2v1h-4.9V1901.1z"/>
			<path class="st4" d="M168.9,1894.7c2,0,2.6,1.6,2.6,3.7c0,2.1-0.6,3.7-2.6,3.7s-2.6-1.6-2.6-3.7
				C166.3,1896.3,166.9,1894.7,168.9,1894.7z M168.9,1895.7c-1.3,0-1.5,1.3-1.5,2.6c0,1.4,0.1,2.7,1.5,2.7s1.5-1.2,1.5-2.7
				C170.4,1897,170.3,1895.7,168.9,1895.7z"/>
			<path class="st4" d="M173.5,1895.8h-0.9v-1h2.1v7.3h-1.1V1895.8z"/>
			<path class="st4" d="M176.4,1896.6c0-1.1,0.8-2,2.4-2c1.6,0,2.4,0.9,2.4,2c0,0.8-0.4,1.3-1,1.6c0.7,0.3,1.2,0.9,1.2,1.8
				c0,1.3-1.1,2.2-2.6,2.2c-1.5,0-2.6-0.9-2.6-2.2c0-0.9,0.5-1.5,1.2-1.8C176.9,1898,176.4,1897.4,176.4,1896.6z M177.3,1900
				c0,0.7,0.6,1.3,1.5,1.3c0.9,0,1.5-0.5,1.5-1.3c0-0.8-0.6-1.3-1.5-1.3C178,1898.8,177.3,1899.2,177.3,1900z M180.1,1896.8
				c0-0.8-0.5-1.2-1.3-1.2c-0.8,0-1.3,0.4-1.3,1.2c0,0.7,0.5,1.1,1.3,1.1C179.6,1897.9,180.1,1897.4,180.1,1896.8z"/>
		</g>
		<g class="st0">
			<path class="st5" d="M162.4,1811.2h-1.5v-1.7h3.3v11.7h-1.8V1811.2z"/>
			<path class="st5" d="M168,1811.2h-1.5v-1.7h3.3v11.7H168V1811.2z"/>
			<path class="st5" d="M178,1818.7h-5.8v-1.4l5.4-7.7h2.2v7.5h1.5v1.6h-1.5v2.4H178V1818.7z M178,1817.1v-5.7l-3.8,5.7H178z"/>
		</g>
		<path id="패스_4991" class="st3" d="M218,1910.5h46V1813h-46V1910.5z"/>
		<g class="st0">
			<path class="st4" d="M230.5,1901.1c1.7-1.5,3.5-2.8,3.5-4.3c0-0.8-0.3-1.3-1.2-1.3c-0.8,0-1.2,0.6-1.3,1.4h-1.1
				c0-1.6,1.1-2.3,2.3-2.3c1.5,0,2.3,0.9,2.3,2.2c0,1.8-1.8,3.1-3,4.2h3.2v1h-4.9V1901.1z"/>
			<path class="st4" d="M239,1894.7c2,0,2.6,1.6,2.6,3.7c0,2.1-0.6,3.7-2.6,3.7s-2.6-1.6-2.6-3.7
				C236.4,1896.3,236.9,1894.7,239,1894.7z M239,1895.7c-1.3,0-1.5,1.3-1.5,2.6c0,1.4,0.1,2.7,1.5,2.7s1.5-1.2,1.5-2.7
				C240.4,1897,240.3,1895.7,239,1895.7z"/>
			<path class="st4" d="M243.5,1895.8h-0.9v-1h2.1v7.3h-1.1V1895.8z"/>
			<path class="st4" d="M247.7,1900.1c0.1,0.6,0.6,1,1.3,1c0.9,0,1.4-0.6,1.4-2.5c-0.3,0.5-1,0.7-1.6,0.7c-1.3,0-2.3-0.8-2.3-2.3
				c0-1.4,0.9-2.4,2.4-2.4c1.9,0,2.5,1.3,2.5,3.7c0,2.5-0.5,3.8-2.4,3.8c-1.5,0-2.2-0.9-2.3-2H247.7z M250.2,1897
				c0-0.9-0.5-1.5-1.4-1.5c-0.8,0-1.4,0.6-1.4,1.4c0,0.8,0.4,1.4,1.4,1.4C249.8,1898.4,250.2,1897.8,250.2,1897z"/>
		</g>
		<g class="st0">
			<path class="st5" d="M230.5,1795h-1.5v-1.7h3.3v11.7h-1.8V1795z"/>
			<path class="st5" d="M238.7,1793.1c2.3,0,3.6,1.3,3.6,3c0,1.4-0.9,2.3-1.8,2.6v0.1c1.2,0.4,2,1.4,2,3c0,1.9-1.3,3.3-3.7,3.3
				c-2.2,0-3.9-1.2-4-3.4h1.8c0.1,1.1,0.9,1.9,2.3,1.9c1.4,0,2-0.8,2-1.9c0-1.5-1-2.1-2.9-2.1h-0.4v-1.5h0.4c1.6,0,2.7-0.5,2.7-1.7
				c0-1-0.7-1.7-1.9-1.7c-1.3,0-1.9,0.8-2,1.6h-1.8C235,1794.2,236.6,1793.1,238.7,1793.1z"/>
			<path class="st5" d="M251.9,1793.3v1.6h-5.4v3.2c0.4-0.6,1.4-1.1,2.4-1.1c2.9,0,3.7,2.1,3.7,3.9c0,2.3-1.3,4.1-4,4.1
				c-2.4,0-3.8-1.3-4.1-3.2h1.8c0.2,1,1.1,1.6,2.3,1.6c1.6,0,2.3-1.1,2.3-2.5c0-1.5-0.8-2.4-2.3-2.4c-1.1,0-1.8,0.6-2.1,1.5h-1.7
				v-6.7H251.9z"/>
		</g>
		<path id="패스_4989" class="st1" d="M284,1910.1h46v-73.8h-46V1910.1z"/>
		<g class="st0">
			<path class="st6" d="M295.2,1900.9c1.6-1.4,3.4-2.7,3.4-4c0-0.6-0.3-1.1-1-1.1c-0.7,0-1,0.5-1,1.2h-1.4c0-1.7,1.1-2.4,2.4-2.4
				c1.6,0,2.4,0.9,2.4,2.2c0,1.7-1.6,3-2.8,4h2.9v1.2h-4.9V1900.9z"/>
			<path class="st6" d="M303.8,1894.6c2.1,0,2.7,1.6,2.7,3.7c0,2.1-0.6,3.7-2.7,3.7c-2.1,0-2.7-1.6-2.7-3.7
				C301.1,1896.2,301.7,1894.6,303.8,1894.6z M303.8,1895.9c-1.2,0-1.3,1.1-1.3,2.4c0,1.3,0.1,2.4,1.3,2.4c1.2,0,1.3-1.1,1.3-2.4
				C305.1,1897.1,304.9,1895.9,303.8,1895.9z"/>
			<path class="st6" d="M307.4,1900.9c1.6-1.4,3.4-2.7,3.4-4c0-0.6-0.3-1.1-1-1.1c-0.7,0-1,0.5-1,1.2h-1.4c0-1.7,1.1-2.4,2.4-2.4
				c1.6,0,2.4,0.9,2.4,2.2c0,1.7-1.6,3-2.8,4h2.9v1.2h-4.9V1900.9z"/>
			<path class="st6" d="M316,1894.6c2.1,0,2.7,1.6,2.7,3.7c0,2.1-0.6,3.7-2.7,3.7c-2.1,0-2.7-1.6-2.7-3.7
				C313.3,1896.2,313.9,1894.6,316,1894.6z M316,1895.9c-1.2,0-1.3,1.1-1.3,2.4c0,1.3,0.1,2.4,1.3,2.4c1.2,0,1.3-1.1,1.3-2.4
				C317.3,1897.1,317.1,1895.9,316,1895.9z"/>
		</g>
		<g class="st0">
			<path class="st1" d="M300.3,1825c0.2,0.9,0.8,1.5,1.8,1.5c1.3,0,1.9-1,1.9-3.6c-0.5,0.7-1.4,1.1-2.5,1.1c-2,0-3.6-1.3-3.6-3.7
				c0-2.3,1.5-3.9,3.9-3.9c3.2,0,4.1,2.1,4.1,5.8c0,4-0.9,6.1-4,6.1c-2.5,0-3.7-1.6-3.8-3.3H300.3z M303.8,1820.3c0-1.3-0.7-2-1.9-2
				c-1.2,0-1.9,0.8-1.9,2c0,1.1,0.6,1.9,2,1.9C303.1,1822.2,303.8,1821.4,303.8,1820.3z"/>
			<path class="st1" d="M312,1816.4c3.3,0,4.3,2.5,4.3,5.9c0,3.4-1,6-4.3,6c-3.3,0-4.3-2.5-4.3-6
				C307.7,1819,308.7,1816.4,312,1816.4z M312,1818.5c-1.9,0-2.1,1.8-2.1,3.8c0,2.1,0.2,3.9,2.1,3.9s2.1-1.8,2.1-3.9
				C314.1,1820.3,313.9,1818.5,312,1818.5z"/>
		</g>
		<path id="패스_4990" class="st7" d="M20,1910.2h335"/>
	</g>
</g>
</svg>
