<?xml version="1.0" encoding="utf-8"?>
<!-- Generator: Adobe Illustrator 25.1.0, SVG Export Plug-In . SVG Version: 6.00 Build 0)  -->
<svg version="1.1" id="레이어_1" xmlns="http://www.w3.org/2000/svg" xmlns:xlink="http://www.w3.org/1999/xlink" x="0px"
	 y="0px" viewBox="0 0 335 139.6" style="enable-background:new 0 0 335 139.6;" xml:space="preserve">
<style type="text/css">
	.st0{fill:none;}
	.st1{fill:none;stroke:#D5D5D5;}
	.st2{enable-background:new    ;}
	.st3{fill:#555555;}
	.st4{fill:#FFF8F8;}
	.st5{fill:#DF1C2F;}
</style>
<g id="그룹_5695" transform="translate(-20 -2200.361)">
	<g id="사각형_330" transform="translate(20 2200.361)">
		<rect y="0" class="st0" width="335" height="139.6"/>
		<rect x="0.5" y="0.5" class="st1" width="334" height="138.6"/>
	</g>
	<g class="st2">
		<path class="st3" d="M43.6,2268.1c0-1.1,0.8-1.8,1.6-1.8c0.9,0,1.6,0.7,1.6,1.8c0,1-0.8,1.7-1.6,1.7
			C44.3,2269.9,43.6,2269.2,43.6,2268.1z"/>
		<path class="st3" d="M62.4,2266.5v0.9H51.8v-0.9h4.7v-1.1h-3.7v-0.8h1.7v-2.2h-1.8v-0.8h8.6v0.8h-1.8v2.2h1.7v0.8h-3.7v1.1H62.4z
			 M54.2,2272h7.2v0.8h-8.2v-2.7H60v-1h-6.9v-0.8H61v2.5h-6.9V2272z M55.7,2264.6h2.9v-2.2h-2.9V2264.6z"/>
		<path class="st3" d="M66,2269.2c1.9,0,3.6-0.1,5.7-0.4l0.1,0.9c-2.1,0.4-3.9,0.4-5.9,0.4h-1v-4.5h4.3v-2.4h-4.3v-0.9h5.4v4.2H66
			V2269.2z M73.8,2261.2v11.7h-1.1v-11.7H73.8z"/>
		<path class="st3" d="M83.2,2266.9c-1.3-0.5-2.4-1.4-2.9-2.7c-0.5,1.3-1.6,2.4-3,2.9l-0.5-0.8c1.8-0.6,3-2.2,3-3.9v-0.9h1.1v0.9
			c0,1.6,1.2,3.1,3,3.6L83.2,2266.9z M86.6,2271.9v0.8h-7.9v-2.9h6.5v-1.2h-6.5v-0.8h7.6v2.8h-6.5v1.2H86.6z M86.2,2267.3h-1.1v-6
			h1.1V2267.3z"/>
		<path class="st3" d="M90.8,2269.2c1.9,0,3.6-0.1,5.7-0.4l0.1,0.9c-2.1,0.4-3.9,0.4-5.9,0.4h-1v-4.5H94v-2.4h-4.3v-0.9h5.4v4.2
			h-4.3V2269.2z M98.6,2261.2v11.7h-1.1v-11.7H98.6z"/>
		<path class="st3" d="M111.9,2267.4v0.9h-10.5v-0.9h4.3v-1.7h1.1v1.7H111.9z M109.6,2263.9c0-0.4,0-0.8,0-1.1v-0.1h-6.9v-0.9h8v1
			c0,1.1,0,2.2-0.3,3.8l-1.1-0.1c0.1-0.7,0.2-1.3,0.3-1.8l-7,0.3l-0.2-0.9L109.6,2263.9z M103.8,2271.9h7.1v0.9h-8.2v-3.4h1.1
			V2271.9z"/>
		<path class="st3" d="M122.4,2267.5c-1.1-0.4-1.9-1.3-2.3-2.3c-0.4,1.1-1.2,2.1-2.4,2.6l-0.6-0.8c1.5-0.7,2.4-2.2,2.4-3.5v-1.6h1
			v1.6c0,1.3,0.9,2.6,2.4,3.2L122.4,2267.5z M127,2270.8c0,1.3-1.5,2.1-3.9,2.1c-2.4,0-3.9-0.8-3.9-2.1c0-1.3,1.5-2.1,3.9-2.1
			C125.5,2268.7,127,2269.5,127,2270.8z M126,2270.8c0-0.8-1.1-1.3-2.8-1.3c-1.7,0-2.8,0.5-2.8,1.3c0,0.8,1.1,1.3,2.8,1.3
			C124.9,2272.1,126,2271.6,126,2270.8z M124.5,2268.1h-1v-6.6h1v2.9h1.5v-3.1h1v7.2h-1v-3.2h-1.5V2268.1z"/>
		<path class="st3" d="M135.8,2268c-1.3-0.5-2.3-1.5-2.8-2.7c-0.5,1.4-1.5,2.4-2.9,3l-0.6-0.8c1.8-0.6,2.9-2.2,2.9-4v-1.4h1.1v1.5
			c0,1.6,1.2,3.1,2.9,3.7L135.8,2268z M132.4,2271.8h6.7v0.9h-7.7v-3.6h1.1V2271.8z M140.3,2264.8v0.9h-1.7v4.1h-1.1v-8.6h1.1v3.6
			H140.3z"/>
		<path class="st3" d="M152.5,2266.7v0.9h-10.5v-0.9H152.5z M151.2,2270.7c0,1.4-1.5,2.1-4,2.1c-2.5,0-4-0.8-4-2.1
			c0-1.4,1.5-2.1,4-2.1C149.7,2268.6,151.2,2269.4,151.2,2270.7z M151.3,2265.4h-7.9v-3.9h1.1v3h6.9V2265.4z M150.1,2270.7
			c0-0.8-1.1-1.3-2.9-1.3s-2.9,0.5-2.9,1.3c0,0.8,1.1,1.3,2.9,1.3C149,2272,150.1,2271.6,150.1,2270.7z"/>
		<path class="st3" d="M160.6,2267.6c-1.4,0.2-2.6,0.3-4.9,0.3h-0.8v-3.5h4v-1.6h-4v-0.9h5v3.3h-4v1.8c2.2,0,3.3-0.1,4.6-0.3
			L160.6,2267.6z M156.1,2269h7.8v3.9h-1.1v-3h-6.7V2269z M163.9,2261.3v7.2h-1.1v-2.2h-2.3v-0.9h2.3v-1.6h-2.3v-0.9h2.3v-1.7H163.9
			z"/>
		<path class="st3" d="M177.4,2268.3c-2.5,0.4-5.3,0.4-7.3,0.5l-0.1-0.9c0.9,0,2,0,3.1,0v-0.8c-1.4-0.1-2.2-0.8-2.2-1.7
			c0-1.1,1.1-1.7,2.7-1.7c1.6,0,2.7,0.7,2.7,1.7c0,0.9-0.8,1.6-2.2,1.7v0.8c1.1-0.1,2.1-0.1,3.2-0.3L177.4,2268.3z M177,2263.1h-6.7
			v-0.8h2.8v-1.1h1.1v1.1h2.8V2263.1z M171.4,2269.7h7.7v3.2H178v-2.4h-6.6V2269.7z M173.6,2266.3c1,0,1.7-0.4,1.7-1
			c0-0.6-0.7-1-1.7-1c-1.1,0-1.7,0.4-1.7,1C171.9,2265.9,172.6,2266.3,173.6,2266.3z M180.8,2265.7h-1.7v3.4H178v-7.8h1.1v3.5h1.7
			V2265.7z"/>
		<path class="st3" d="M183.9,2269.1c1.6,0,2.7-0.1,3.9-0.4l0.1,0.9c-1.4,0.3-2.6,0.4-4.3,0.4h-0.8v-7.4h4.3v0.9h-3.3V2269.1z
			 M192.3,2261.2v11.7h-1v-6.1h-1.7v5.5h-1v-10.8h1v4.4h1.7v-4.7H192.3z"/>
		<path class="st3" d="M208.7,2266.8v0.9h-10.6v-0.9H208.7z M207.4,2270.8c0,1.4-1.5,2.1-4,2.1s-4-0.8-4-2.1c0-1.4,1.5-2.1,4-2.1
			S207.4,2269.4,207.4,2270.8z M207.5,2265.7h-8v-4h7.9v0.9h-6.9v2.2h6.9V2265.7z M206.3,2270.8c0-0.8-1.1-1.3-2.9-1.3
			s-2.9,0.5-2.9,1.3s1.1,1.3,2.9,1.3C205.2,2272.1,206.3,2271.6,206.3,2270.8z"/>
		<path class="st3" d="M217.8,2264.4c0,2.1,1.3,4.2,3,5l-0.7,0.8c-1.2-0.7-2.3-2-2.8-3.6c-0.5,1.7-1.6,3.2-2.9,3.9l-0.6-0.9
			c1.7-0.9,3-3.1,3-5.2v-2.1h1.1V2264.4z M224.8,2266.9h-1.9v6h-1.1v-11.6h1.1v4.7h1.9V2266.9z"/>
		<path class="st3" d="M235.9,2261.3v6.3h-1.1v-2.6h-2.4c-0.2,1.4-1.4,2.3-3,2.3c-1.7,0-3-1.1-3-2.7c0-1.6,1.3-2.7,3-2.7
			c1.6,0,2.7,0.9,3,2.2h2.4v-2.8H235.9z M231.5,2264.5c0-1.1-0.8-1.8-2-1.8s-2,0.7-2,1.8c0,1.1,0.8,1.8,2,1.8
			S231.5,2265.5,231.5,2264.5z M234.8,2268.1h1.1v4.7h-7.5v-4.7h1.1v1.5h5.3V2268.1z M234.8,2270.4h-5.3v1.5h5.3V2270.4z"/>
		<path class="st3" d="M244.3,2264.3c-0.8,1.9-2.5,3.2-5,4l-0.4-0.8c2.8-0.8,4.5-2.4,4.7-4.4h-4.1v-0.9h5.3c0,0.4-0.1,0.9-0.1,1.3
			h2.6v-2.1h1.1v7h-1.1v-1.5h-3.1v-0.9h3.1v-1.6H244.3z M248.3,2270.6c0,1.4-1.5,2.2-3.9,2.2c-2.4,0-3.9-0.8-3.9-2.2
			s1.5-2.2,3.9-2.2C246.8,2268.4,248.3,2269.2,248.3,2270.6z M247.3,2270.6c0-0.9-1.1-1.4-2.8-1.4c-1.7,0-2.8,0.5-2.8,1.4
			c0,0.9,1.1,1.4,2.8,1.4C246.2,2272,247.3,2271.5,247.3,2270.6z"/>
		<path class="st3" d="M256.2,2267.7c-1.1-0.4-1.8-1.2-2.2-2.2c-0.4,1.1-1.2,2.1-2.3,2.6l-0.6-0.8c1.5-0.6,2.4-2.1,2.4-3.6v-0.5
			h-2.1v-0.9h5.2v0.9h-2.1v0.5c0,1.4,0.8,2.7,2.3,3.3L256.2,2267.7z M260.9,2270.8c0,1.3-1.5,2.1-3.9,2.1c-2.4,0-3.9-0.8-3.9-2.1
			s1.5-2.1,3.9-2.1C259.5,2268.7,260.9,2269.4,260.9,2270.8z M259.9,2270.8c0-0.8-1.1-1.3-2.8-1.3c-1.7,0-2.8,0.5-2.8,1.3
			c0,0.8,1.1,1.3,2.8,1.3C258.8,2272.1,259.9,2271.6,259.9,2270.8z M258.4,2268h-1v-6.5h1v2.9h1.5v-3.1h1v7.1h-1v-3.2h-1.5V2268z"/>
		<path class="st3" d="M269.7,2267.6c-1.4,0.2-2.6,0.3-4.9,0.3h-0.8v-3.5h4v-1.6h-4v-0.9h5v3.3h-4v1.8c2.2,0,3.3-0.1,4.6-0.3
			L269.7,2267.6z M265.2,2269h7.8v3.9H272v-3h-6.7V2269z M273.1,2261.3v7.2H272v-2.2h-2.3v-0.9h2.3v-1.6h-2.3v-0.9h2.3v-1.7H273.1z"
			/>
		<path class="st3" d="M285.1,2262.1c0,3-2.1,5.1-5.4,6.1l-0.4-0.9c2.8-0.8,4.5-2.4,4.7-4.4h-4.2v-0.9H285.1z M288.4,2270.6
			c0,1.4-1.5,2.3-3.8,2.3s-3.8-0.9-3.8-2.3c0-1.4,1.5-2.3,3.8-2.3S288.4,2269.2,288.4,2270.6z M287.3,2270.6c0-0.9-1.1-1.4-2.7-1.4
			s-2.7,0.5-2.7,1.4c0,0.9,1.1,1.4,2.7,1.4S287.3,2271.5,287.3,2270.6z M290,2264.3v0.9h-1.7v3.1h-1.1v-7h1.1v3H290z"/>
		<path class="st3" d="M295.7,2269.7c1.1-0.1,2.1-0.1,3.1-0.3l0.1,0.8c-2.5,0.4-5.2,0.5-7.3,0.5l-0.1-0.9c0.9,0,2,0,3.2,0v-1.3
			c-1.3-0.2-2.2-1-2.2-2.1c0-1.3,1.1-2.2,2.8-2.2c1.6,0,2.8,0.8,2.8,2.2c0,1.2-0.9,2-2.2,2.1V2269.7z M298.6,2263.5h-7v-0.8h3v-1.4
			h1.1v1.4h2.9V2263.5z M295.1,2267.7c1,0,1.7-0.5,1.7-1.3c0-0.8-0.7-1.3-1.7-1.3s-1.7,0.5-1.7,1.3
			C293.4,2267.2,294.1,2267.7,295.1,2267.7z M302.4,2267.1h-1.8v5.8h-1.1v-11.7h1.1v5h1.8V2267.1z"/>
	</g>
	<g class="st2">
		<path class="st3" d="M43.6,2289.1c0-1.1,0.8-1.8,1.6-1.8c0.9,0,1.6,0.7,1.6,1.8c0,1-0.8,1.7-1.6,1.7
			C44.3,2290.9,43.6,2290.2,43.6,2289.1z"/>
		<path class="st3" d="M62.4,2291.4v0.9H51.9v-0.9H56v-4.2H57v4.2H62.4z M60.1,2284.3H53v-0.9h8.2v1.2c0,1.4,0,3-0.4,5.4l-1.1-0.1
			c0.4-2.2,0.4-3.9,0.4-5.3V2284.3z"/>
		<path class="st3" d="M74.8,2290H70v3.9H69v-3.9h-4.7v-0.9h10.6V2290z M73.5,2287.8h-7.9v-5h1.1v1.6h5.8v-1.6h1.1V2287.8z
			 M72.4,2285.2h-5.8v1.7h5.8V2285.2z"/>
		<path class="st3" d="M82.6,2283.5c0,3.3-1.5,6.3-5.3,8.2l-0.6-0.8c3-1.5,4.6-3.7,4.8-6.5h-4.3v-0.9H82.6z M87.5,2287.9h-1.9v6
			h-1.1v-11.7h1.1v4.7h1.9V2287.9z"/>
		<path class="st3" d="M95,2283.5c0,3.3-1.5,6.3-5.3,8.2l-0.6-0.8c3-1.5,4.6-3.7,4.8-6.5h-4.3v-0.9H95z M99.9,2287.9H98v6h-1.1
			v-11.7H98v4.7h1.9V2287.9z"/>
		<path class="st3" d="M105.7,2286c0,2,1.3,3.8,3.1,4.6l-0.6,0.8c-1.3-0.6-2.4-1.9-3-3.4c-0.5,1.6-1.6,3-3,3.6l-0.6-0.8
			c1.7-0.8,3-2.8,3-4.8v-0.9h-2.7v-0.9h2.7v-1.8h1.1v1.8h2.7v0.9h-2.7V2286z M111,2282.2v11.7h-1.1v-11.7H111z"/>
		<path class="st3" d="M121.1,2285.4c0,2.1,1.3,4.2,3,5l-0.7,0.8c-1.2-0.7-2.3-2-2.8-3.6c-0.5,1.7-1.6,3.2-2.9,3.9l-0.6-0.9
			c1.7-0.9,3-3.1,3-5.2v-2.1h1.1V2285.4z M128,2287.9h-1.9v6H125v-11.6h1.1v4.7h1.9V2287.9z"/>
		<path class="st3" d="M139.1,2282.3v6.3h-1.1v-2.6h-2.4c-0.2,1.4-1.4,2.3-3,2.3c-1.7,0-3-1.1-3-2.7c0-1.6,1.3-2.7,3-2.7
			c1.6,0,2.7,0.9,3,2.2h2.4v-2.8H139.1z M134.7,2285.5c0-1.1-0.8-1.8-2-1.8c-1.2,0-2,0.7-2,1.8c0,1.1,0.8,1.8,2,1.8
			C133.9,2287.3,134.7,2286.5,134.7,2285.5z M138.1,2289.1h1.1v4.7h-7.5v-4.7h1.1v1.5h5.3V2289.1z M138.1,2291.4h-5.3v1.5h5.3
			V2291.4z"/>
		<path class="st3" d="M151.1,2287.8h-5.4v-5.1h1.1v1.7h3.3v-1.7h1V2287.8z M150.1,2285.2h-3.3v1.7h3.3V2285.2z M148,2292.9h6.8v0.8
			h-7.8v-2.9h6.3v-1.2h-6.4v-0.8h7.4v2.8H148V2292.9z M156,2284.8v0.9h-1.7v2.6h-1.1v-6h1.1v2.5H156z"/>
		<path class="st3" d="M163.5,2287.3v1.5h3.4v2.8H160v1.3h7.2v0.8h-8.3v-2.9h6.9v-1.2h-6.9v-0.8h3.5v-1.5h-4.7v-0.9h7.9
			c0.2-1.2,0.3-2.1,0.3-2.9H159v-0.8h7.9v0.7c0,0.8,0,1.8-0.2,3h1.6v0.9H163.5z"/>
		<path class="st3" d="M179.4,2287.8H174v-4.8h5.4V2287.8z M179.8,2290.5c0,1.1,1.8,2.2,3.8,2.5l-0.4,0.8c-1.8-0.2-3.3-1.1-4-2.1
			c-0.7,1.1-2.3,1.9-4.1,2.1l-0.4-0.8c2-0.2,3.8-1.3,3.9-2.5h-3.4v-0.8h3.4v-1.1h1.1v1.1h3.4v0.8H179.8z M178.4,2283.8H175v3.1h3.4
			V2283.8z M182.9,2288.9h-1.1v-6.7h1.1V2288.9z"/>
		<path class="st3" d="M194,2283.2h1v7.9h-5.4v-7.9h1.1v3.1h3.3V2283.2z M194,2287.2h-3.3v3.1h3.3V2287.2z M200,2287.7h-1.9v6.2H197
			v-11.6h1.1v4.6h1.9V2287.7z"/>
		<path class="st3" d="M207.9,2287.2c0,2.5-1.2,4.1-3,4.1c-1.7,0-3-1.6-3-4.1s1.2-4.1,3-4.1C206.6,2283.1,207.9,2284.7,207.9,2287.2
			z M202.9,2287.2c0,1.9,0.8,3.1,2,3.1c1.1,0,1.9-1.2,1.9-3.1c0-1.9-0.8-3.1-1.9-3.1C203.7,2284.1,202.9,2285.3,202.9,2287.2z
			 M211,2282.2v11.7H210v-11.7H211z"/>
		<path class="st3" d="M224.5,2291.5v0.9h-10.6v-0.9h4.7v-2.4c-2.2-0.2-3.7-1.3-3.7-3c0-1.9,1.8-3.1,4.3-3.1c2.5,0,4.2,1.2,4.2,3.1
			c0,1.7-1.5,2.9-3.7,3v2.4H224.5z M219.2,2288.3c1.9,0,3.2-0.9,3.2-2.2c0-1.3-1.4-2.2-3.2-2.2c-1.9,0-3.2,0.9-3.2,2.2
			C215.9,2287.4,217.3,2288.3,219.2,2288.3z"/>
		<path class="st3" d="M240.2,2290.2h-4.8v3.7h-1.1v-3.7h-4.8v-0.9h10.6V2290.2z M239,2288.1h-8v-5.3h7.9v0.9h-6.8v1.4h6.5v0.8h-6.5
			v1.4h6.9V2288.1z"/>
		<path class="st3" d="M245.9,2285.8c0,1.9,1.3,3.9,3,4.7l-0.6,0.9c-1.3-0.6-2.4-2-2.9-3.6c-0.5,1.7-1.7,3.2-3,3.9l-0.6-0.8
			c1.7-0.8,3.1-3,3.1-5v-1.5h-2.7v-0.9h6.3v0.9h-2.6V2285.8z M252.9,2287.8H251v6.1h-1.1v-11.6h1.1v4.7h1.9V2287.8z"/>
		<path class="st3" d="M258.3,2285.4c0,2.1,1.3,4.2,3,5l-0.7,0.8c-1.2-0.7-2.3-2-2.8-3.6c-0.5,1.7-1.6,3.2-2.9,3.9l-0.6-0.9
			c1.7-0.9,3-3.1,3-5.2v-2.1h1.1V2285.4z M265.3,2287.9h-1.9v6h-1.1v-11.6h1.1v4.7h1.9V2287.9z"/>
		<path class="st3" d="M276.4,2282.3v6.3h-1.1v-2.6h-2.4c-0.2,1.4-1.4,2.3-3,2.3c-1.7,0-3-1.1-3-2.7c0-1.6,1.3-2.7,3-2.7
			c1.6,0,2.7,0.9,3,2.2h2.4v-2.8H276.4z M272,2285.5c0-1.1-0.8-1.8-2-1.8s-2,0.7-2,1.8c0,1.1,0.8,1.8,2,1.8S272,2286.5,272,2285.5z
			 M275.3,2289.1h1.1v4.7h-7.5v-4.7h1.1v1.5h5.3V2289.1z M275.3,2291.4H270v1.5h5.3V2291.4z"/>
	</g>
	<g class="st2">
		<path class="st3" d="M43.6,2310.1c0-1.1,0.8-1.8,1.6-1.8c0.9,0,1.6,0.7,1.6,1.8c0,1-0.8,1.7-1.6,1.7
			C44.3,2311.9,43.6,2311.2,43.6,2310.1z"/>
		<path class="st3" d="M58.1,2310c-1.3-0.5-2.3-1.5-2.8-2.7c-0.5,1.4-1.5,2.4-2.9,3l-0.6-0.8c1.8-0.6,2.9-2.2,2.9-4v-1.4h1.1v1.5
			c0,1.6,1.2,3.1,2.9,3.7L58.1,2310z M54.7,2313.8h6.7v0.9h-7.7v-3.6h1.1V2313.8z M62.6,2306.8v0.9h-1.7v4.1h-1.1v-8.6h1.1v3.6H62.6
			z"/>
		<path class="st3" d="M73.9,2303.3v6.3h-1.1v-2.6h-2.4c-0.2,1.4-1.4,2.3-3,2.3c-1.7,0-3-1.1-3-2.7c0-1.6,1.3-2.7,3-2.7
			c1.6,0,2.7,0.9,3,2.2h2.4v-2.8H73.9z M69.4,2306.5c0-1.1-0.8-1.8-2-1.8c-1.2,0-2,0.7-2,1.8c0,1.1,0.8,1.8,2,1.8
			C68.6,2308.3,69.4,2307.5,69.4,2306.5z M72.8,2310.1h1.1v4.7h-7.5v-4.7h1.1v1.5h5.3V2310.1z M72.8,2312.4h-5.3v1.5h5.3V2312.4z"/>
		<path class="st3" d="M82.8,2304.5c0,3.4-1.5,6.3-5.4,8.2l-0.6-0.9c3.1-1.5,4.7-3.7,4.9-6.5h-4.4v-0.9H82.8z M86.2,2303.2v11.7
			h-1.1v-11.7H86.2z"/>
		<path class="st3" d="M94.8,2309v1.2h3.4v2.7h-6.9v1.2h7.2v0.8h-8.2v-2.8h6.8v-1.1h-6.9v-0.8h3.5v-1.2H89v-0.9h10.6v0.9H94.8z
			 M98.6,2307.3c-1.8-0.2-3.6-1.1-4.3-2.3c-0.7,1.2-2.5,2.1-4.4,2.3l-0.4-0.8c2.1-0.2,4.2-1.4,4.2-2.8v-0.4h1.1v0.4
			c0,1.4,2,2.6,4.1,2.8L98.6,2307.3z"/>
		<path class="st3" d="M110.3,2308.7c-0.5,0.7-1.4,1.1-2.4,1.1c-1.7,0-3-1.2-3-2.9s1.3-2.9,3-2.9c1,0,1.8,0.4,2.4,1.1h3v-1.8h1.1
			v8.6h-1.1v-3.1H110.3z M107.9,2308.9c1.1,0,2-0.8,2-2s-0.8-2-2-2c-1.1,0-2,0.8-2,2S106.8,2308.9,107.9,2308.9z M114.7,2313.8v0.9
			h-7.8v-3.7h1.1v2.8H114.7z M110.8,2305.9c0.1,0.3,0.2,0.6,0.2,1c0,0.3-0.1,0.7-0.2,1h2.5v-1.9H110.8z"/>
		<path class="st3" d="M127.7,2309.9h-4.8v5h-1.1v-5h-4.7v-0.9h7.7c0.4-1.7,0.4-2.9,0.4-4v-0.2h-6.8v-0.9h7.8v1c0,1.1,0,2.3-0.3,4
			h1.7V2309.9z"/>
		<path class="st3" d="M134.5,2304.8c0,3-1.1,5.8-4.4,7.7l-0.6-0.8c2.7-1.5,3.8-3.6,3.9-6H130v-0.9H134.5z M139.4,2303.2v11.7h-1
			v-6.1h-1.6v5.5h-1v-10.8h1v4.4h1.6v-4.7H139.4z"/>
		<path class="st3" d="M147.8,2308.8h-5.4v-5.1h1.1v1.7h3.3v-1.7h1V2308.8z M146.8,2306.2h-3.3v1.7h3.3V2306.2z M144.6,2313.9h6.8
			v0.8h-7.8v-2.9h6.3v-1.2h-6.4v-0.8h7.4v2.8h-6.3V2313.9z M152.7,2305.8v0.9H151v2.6h-1.1v-6h1.1v2.5H152.7z"/>
		<path class="st3" d="M163.6,2304.1c0,3-2.1,5.1-5.4,6.1l-0.4-0.9c2.8-0.8,4.5-2.4,4.7-4.4h-4.2v-0.9H163.6z M166.8,2312.6
			c0,1.4-1.5,2.3-3.8,2.3c-2.3,0-3.8-0.9-3.8-2.3c0-1.4,1.5-2.3,3.8-2.3C165.3,2310.4,166.8,2311.2,166.8,2312.6z M165.8,2312.6
			c0-0.9-1.1-1.4-2.7-1.4c-1.7,0-2.7,0.5-2.7,1.4c0,0.9,1.1,1.4,2.7,1.4C164.7,2314,165.8,2313.5,165.8,2312.6z M168.4,2306.3v0.9
			h-1.7v3.1h-1.1v-7h1.1v3H168.4z"/>
		<path class="st3" d="M174.1,2311.7c1.1-0.1,2.1-0.1,3.1-0.3l0.1,0.8c-2.5,0.4-5.2,0.5-7.3,0.5l-0.1-0.9c0.9,0,2,0,3.2,0v-1.3
			c-1.3-0.2-2.2-1-2.2-2.1c0-1.3,1.1-2.2,2.8-2.2s2.8,0.8,2.8,2.2c0,1.2-0.9,2-2.2,2.1V2311.7z M177.1,2305.5h-7v-0.8h3v-1.4h1.1
			v1.4h2.9V2305.5z M173.6,2309.7c1,0,1.7-0.5,1.7-1.3c0-0.8-0.7-1.3-1.7-1.3s-1.7,0.5-1.7,1.3
			C171.9,2309.2,172.6,2309.7,173.6,2309.7z M180.8,2309.1H179v5.8H178v-11.7h1.1v5h1.8V2309.1z"/>
	</g>
	<g id="사각형_373" transform="translate(20 2200.361)">
		<rect y="0" class="st4" width="335" height="37.7"/>
		<rect x="0.5" y="0.5" class="st1" width="334" height="36.7"/>
	</g>
	<g class="st2">
		<path class="st5" d="M153.6,2219.4c0-3.4,1.9-5.3,4.6-5.3c2.7,0,4.6,2,4.6,5.3c0,3.4-1.9,5.4-4.6,5.4
			C155.5,2224.9,153.6,2222.8,153.6,2219.4z M160.7,2219.4c0-2.2-1-3.6-2.5-3.6c-1.5,0-2.5,1.3-2.5,3.6c0,2.2,1,3.6,2.5,3.6
			C159.8,2223.1,160.7,2221.6,160.7,2219.4z"/>
		<path class="st5" d="M164.8,2219.5c0-3.4,2.2-5.4,4.8-5.4c1.3,0,2.4,0.6,3,1.3l-1.1,1.3c-0.5-0.5-1.1-0.9-1.9-0.9
			c-1.6,0-2.7,1.3-2.7,3.6c0,2.3,1.1,3.6,2.7,3.6c0.9,0,1.6-0.4,2.1-1l1.1,1.3c-0.9,1-2,1.5-3.3,1.5
			C167,2224.9,164.8,2223,164.8,2219.5z"/>
		<path class="st5" d="M175,2214.3h2.1v10.4H175V2214.3z"/>
	</g>
	<g class="st2">
		<path class="st5" d="M179.5,2221.8c2.3,0,5.4,0,8.2-0.4l0.1,1.3c-2.8,0.6-5.8,0.6-8,0.6L179.5,2221.8z M187.1,2217
			c0,1.9-1.5,3.2-3.6,3.2s-3.5-1.3-3.5-3.2c0-1.8,1.5-3.2,3.5-3.2S187.1,2215.1,187.1,2217z M181.8,2217c0,1,0.8,1.6,1.8,1.6
			s1.8-0.6,1.8-1.6s-0.8-1.6-1.8-1.6S181.8,2216,181.8,2217z M190.2,2212.9v12.9h-1.8v-12.9H190.2z"/>
		<path class="st5" d="M204.3,2219.9c-2.7,0.5-5.7,0.5-7.9,0.5l-0.2-1.3c0.9,0,2,0,3.1,0v-0.6c-1.4-0.2-2.2-0.8-2.2-1.6
			c0-1.1,1.2-1.7,3.2-1.7s3.1,0.6,3.1,1.7c0,0.9-0.8,1.5-2.2,1.6v0.5c1-0.1,2.1-0.1,3.1-0.3L204.3,2219.9z M203.9,2215h-7.3v-1.2
			h2.7v-0.9h1.8v0.9h2.7V2215z M199.8,2224.5h7.3v1.2H198v-3h6.8v-0.6h-6.8v-1.2h8.7v2.9h-6.8V2224.5z M200.2,2217.5
			c0.9,0,1.4-0.2,1.4-0.6c0-0.4-0.5-0.5-1.4-0.5s-1.4,0.2-1.4,0.5C198.8,2217.3,199.3,2217.5,200.2,2217.5z M208.2,2216v1.5h-1.6v3
			h-1.8v-7.6h1.8v3.1H208.2z"/>
		<path class="st5" d="M221.4,2219v1.5h-11.7v-1.5h4.9v-1.1h-3.5v-4.5h8.9v1.5h-7v1.5h7.1v1.5h-3.6v1.1H221.4z M220,2223.5
			c0,1.5-1.7,2.4-4.5,2.4s-4.5-0.9-4.5-2.4c0-1.5,1.7-2.4,4.5-2.4S220,2222,220,2223.5z M218.1,2223.5c0-0.7-0.9-1-2.6-1
			c-1.7,0-2.6,0.3-2.6,1c0,0.7,0.9,1,2.6,1C217.3,2224.5,218.1,2224.2,218.1,2223.5z"/>
	</g>
</g>
</svg>
