<?xml version="1.0" encoding="utf-8"?>
<!-- Generator: Adobe Illustrator 25.1.0, SVG Export Plug-In . SVG Version: 6.00 Build 0)  -->
<svg version="1.1" id="레이어_1" xmlns="http://www.w3.org/2000/svg" xmlns:xlink="http://www.w3.org/1999/xlink" x="0px"
	 y="0px" viewBox="0 0 208 332.7" style="enable-background:new 0 0 208 332.7;" xml:space="preserve">
<style type="text/css">
	.st0{enable-background:new    ;}
	.st1{fill:#A3A3A3;}
	.st2{fill:#DF1C2F;}
	.st3{fill:#929397;}
	.st4{fill:#E2E2E2;}
	.st5{fill:#42454A;}
	.st6{fill:#FFFFFF;}
</style>
<g id="그룹_5021" transform="translate(-1403 -2156.799)">
	<g class="st0">
		<path class="st1" d="M1419.2,2336h-2v-2.3h4.6v16h-2.5V2336z"/>
		<path class="st1" d="M1426.9,2336h-2v-2.3h4.6v16h-2.5V2336z"/>
		<path class="st1" d="M1440.6,2346.4h-8v-1.9l7.4-10.6h3v10.3h2v2.2h-2v3.3h-2.5V2346.4z M1440.7,2344.2v-7.8l-5.2,7.8H1440.7z"/>
	</g>
	<g class="st0">
		<path class="st1" d="M1492.6,2302.9h-2v-2.3h4.6v16h-2.5V2302.9z"/>
		<path class="st1" d="M1503.8,2300.3c3.2,0,4.9,1.8,4.9,4.2c0,1.9-1.2,3.2-2.5,3.6v0.1c1.7,0.5,2.8,1.9,2.8,4.1
			c0,2.6-1.8,4.5-5.1,4.5c-3,0-5.4-1.6-5.5-4.7h2.4c0.1,1.5,1.2,2.6,3.1,2.6c1.9,0,2.8-1.1,2.8-2.6c0-2.1-1.4-2.8-4-2.8h-0.6v-2.1
			h0.6c2.3,0,3.7-0.7,3.7-2.4c0-1.4-0.9-2.3-2.6-2.3c-1.8,0-2.6,1.1-2.7,2.2h-2.4C1498.7,2301.8,1500.9,2300.3,1503.8,2300.3z"/>
		<path class="st1" d="M1522,2300.6v2.2h-7.4v4.4c0.6-0.8,1.9-1.5,3.3-1.5c3.9,0,5.1,2.9,5.1,5.3c0,3.2-1.8,5.6-5.5,5.6
			c-3.3,0-5.2-1.8-5.6-4.3h2.4c0.3,1.4,1.5,2.2,3.2,2.2c2.2,0,3.1-1.5,3.1-3.5c0-2.1-1-3.3-3.1-3.3c-1.5,0-2.5,0.8-2.9,2h-2.4v-9.3
			H1522z"/>
	</g>
	<g class="st0">
		<path class="st2" d="M1573.7,2359.2c0.2,1.3,1.1,2,2.5,2c1.8,0,2.6-1.3,2.6-5c-0.7,0.9-2,1.5-3.4,1.5c-2.8,0-5-1.7-5-5.1
			c0-3.2,2-5.3,5.4-5.3c4.4,0,5.7,2.9,5.7,8c0,5.5-1.2,8.4-5.5,8.4c-3.4,0-5-2.2-5.2-4.5H1573.7z M1578.5,2352.6
			c0-1.8-1-2.7-2.6-2.7c-1.6,0-2.6,1.1-2.6,2.7c0,1.5,0.8,2.6,2.7,2.6C1577.6,2355.2,1578.5,2354.2,1578.5,2352.6z"/>
		<path class="st2" d="M1589.9,2347.3c4.5,0,5.9,3.5,5.9,8.1c0,4.7-1.4,8.2-5.9,8.2c-4.5,0-5.9-3.5-5.9-8.2
			C1583.9,2350.8,1585.4,2347.3,1589.9,2347.3z M1589.9,2350.2c-2.6,0-2.9,2.5-2.9,5.3c0,2.9,0.3,5.3,2.9,5.3c2.6,0,2.9-2.5,2.9-5.3
			C1592.8,2352.7,1592.5,2350.2,1589.9,2350.2z"/>
	</g>
	<g class="st0">
		<path class="st3" d="M1490.7,2203.5c-1.7,0.3-3.2,0.4-5.8,0.4h-1v-5.8h5.6v0.9h-4.4v3.9c2.5,0,3.9-0.1,5.5-0.4L1490.7,2203.5z
			 M1486.4,2208.4h7.2v0.9h-8.4v-4.1h1.1V2208.4z M1495,2200.8v1h-1.9v4.4h-1.1v-9.1h1.1v3.7H1495z"/>
		<path class="st3" d="M1504.6,2204.3c-1.2,0.2-2.4,0.4-3.6,0.4v4.5h-1.1v-4.5c-1.2,0.1-2.4,0.1-3.5,0.1l-0.2-1c2.3,0,5.5,0,8.3-0.4
			L1504.6,2204.3z M1497.1,2200.3c0-1.5,1.3-2.6,3.2-2.6c1.9,0,3.2,1,3.2,2.6c0,1.5-1.3,2.6-3.2,2.6
			C1498.5,2202.8,1497.1,2201.8,1497.1,2200.3z M1498.2,2200.3c0,1,0.9,1.6,2.1,1.6c1.2,0,2.1-0.7,2.1-1.6s-0.9-1.6-2.1-1.6
			C1499.1,2198.6,1498.2,2199.3,1498.2,2200.3z M1506.5,2197.1v12.6h-1.1v-12.6H1506.5z"/>
		<path class="st3" d="M1512.5,2202.2c0-0.6,0.4-1,0.9-1c0.5,0,0.9,0.4,0.9,1c0,0.6-0.4,1-0.9,1
			C1512.9,2203.1,1512.5,2202.7,1512.5,2202.2z M1512.5,2207.8c0-0.6,0.4-1,0.9-1c0.5,0,0.9,0.4,0.9,1s-0.4,1-0.9,1
			C1512.9,2208.8,1512.5,2208.4,1512.5,2207.8z"/>
		<path class="st3" d="M1525.6,2203.6h-5.7v-5.6h5.7v1.1h2.9v-2h1.2v7.4h-1.2v-2h-2.9V2203.6z M1524.4,2198.9h-3.5v3.7h3.5V2198.9z
			 M1529.6,2207.3c0,1.5-1.6,2.4-4.2,2.4c-2.6,0-4.2-0.9-4.2-2.4c0-1.5,1.6-2.4,4.2-2.4C1528,2204.9,1529.6,2205.7,1529.6,2207.3z
			 M1528.5,2207.3c0-0.9-1.1-1.5-3.1-1.5c-1.9,0-3,0.5-3,1.5s1.1,1.5,3,1.5C1527.4,2208.7,1528.5,2208.2,1528.5,2207.3z
			 M1525.6,2200v1.6h2.9v-1.6H1525.6z"/>
	</g>
	<g class="st0">
		<path class="st2" d="M1459.1,2172.2c-0.9,0.9-2.2,1.5-3.6,1.5c-2.7,0-4.8-2-4.8-4.8c0-2.7,2.1-4.8,4.8-4.8c1.4,0,2.7,0.5,3.6,1.5
			h4.1v-2.6h2.6v13.5h-2.6v-4.3H1459.1z M1455.5,2171.4c1.4,0,2.4-0.9,2.4-2.5c0-1.5-1-2.5-2.4-2.5c-1.3,0-2.3,0.9-2.3,2.5
			C1453.1,2170.5,1454.1,2171.4,1455.5,2171.4z M1466.2,2179.1v2.1h-12.6v-5.9h2.6v3.8H1466.2z M1460.2,2167.8
			c0.1,0.4,0.1,0.8,0.1,1.2c0,0.4,0,0.8-0.1,1.2h3v-2.4H1460.2z"/>
		<path class="st2" d="M1485.5,2174.1h-7.1v7.4h-2.7v-7.4h-6.9v-2.1h11.6c0.5-2.3,0.5-4.1,0.5-5.7h-10.2v-2.1h12.8v1.7
			c0,1.7,0,3.6-0.5,6.2h2.4V2174.1z"/>
		<path class="st2" d="M1495.2,2165.4c0,5.2-1.5,9.4-6.7,12.4l-1.5-1.8c3.7-2.2,5.3-4.8,5.6-8.4h-4.7v-2.1H1495.2z M1503,2163.1
			v18.4h-2.5v-9.4h-1.6v8.6h-2.5v-17.2h2.5v6.5h1.6v-6.9H1503z"/>
		<path class="st2" d="M1515,2172h-8.8v-8.1h2.6v2.2h3.6v-2.2h2.6V2172z M1510.6,2179.3h10v2H1508v-5.1h9.5v-1.1h-9.6v-2h12.2v5
			h-9.5V2179.3z M1512.4,2168.1h-3.6v1.8h3.6V2168.1z M1522.5,2166.7v2.1h-2.4v3.7h-2.6v-9.4h2.6v3.6H1522.5z"/>
		<path class="st2" d="M1533.8,2173.6c-2.8,0-5-2-5-4.7c0-2.7,2.2-4.7,5-4.7c2.8,0,5,2,5,4.7
			C1538.8,2171.6,1536.6,2173.6,1533.8,2173.6z M1533.8,2171.3c1.4,0,2.4-0.9,2.4-2.4c0-1.5-1-2.4-2.4-2.4c-1.4,0-2.4,0.9-2.4,2.4
			C1531.4,2170.4,1532.5,2171.3,1533.8,2171.3z M1544.3,2179.1v2.1h-12.7v-6.2h2.6v4.1H1544.3z M1543.8,2176.3h-2.7v-13.2h2.7
			V2176.3z"/>
		<path class="st2" d="M1556.6,2173.5c-2.1,0.4-4,0.5-7.5,0.5h-1.4v-6h5.4v-1.7h-5.5v-2.1h8.1v5.8h-5.4v1.9c2.6,0,4.3-0.1,6.1-0.4
			L1556.6,2173.5z M1549.7,2175.3h12.6v6.3h-2.6v-4.2h-10V2175.3z M1562.3,2163.1v11.4h-2.6v-2.8h-3v-2.1h3v-1.8h-3v-2.1h3v-2.5
			L1562.3,2163.1z"/>
	</g>
	<path id="패스_2707" class="st4" d="M1403,2489.5h56v-121.2h-56V2489.5z"/>
	<path id="패스_2708" class="st4" d="M1479,2489.5h56v-153.3h-56V2489.5z"/>
	<path id="패스_2709" class="st2" d="M1555,2489.5h56v-106.3h-56V2489.5z"/>
	<g class="st0">
		<path class="st5" d="M1417.3,2474.8c2.2-2,4.6-3.7,4.6-5.5c0-1-0.4-1.7-1.5-1.7c-1,0-1.6,0.7-1.6,1.8h-1.4
			c0.1-2.1,1.4-3.1,3.1-3.1c1.9,0,3,1.2,3,2.9c0,2.3-2.3,4.1-3.9,5.4h4.1v1.2h-6.3V2474.8z"/>
		<path class="st5" d="M1428.3,2466.4c2.7,0,3.4,2.1,3.4,4.8c0,2.8-0.7,4.8-3.4,4.8s-3.4-2.1-3.4-4.8
			C1424.9,2468.4,1425.7,2466.4,1428.3,2466.4z M1428.3,2467.7c-1.7,0-1.9,1.7-1.9,3.4c0,1.9,0.2,3.5,1.9,3.5s1.9-1.6,1.9-3.5
			C1430.2,2469.4,1430.1,2467.7,1428.3,2467.7z"/>
		<path class="st5" d="M1434.3,2467.9h-1.2v-1.4h2.7v9.5h-1.5V2467.9z"/>
		<path class="st5" d="M1438.1,2468.9c0-1.4,1-2.6,3.1-2.6c2.1,0,3.1,1.2,3.1,2.6c0,1-0.6,1.8-1.4,2.1c1,0.4,1.6,1.2,1.6,2.3
			c0,1.7-1.4,2.8-3.4,2.8c-1.9,0-3.4-1.1-3.4-2.8c0-1.1,0.6-2,1.6-2.3C1438.6,2470.6,1438.1,2470,1438.1,2468.9z M1439.3,2473.3
			c0,1,0.7,1.7,1.9,1.7c1.2,0,1.9-0.7,1.9-1.7c0-1.1-0.8-1.6-1.9-1.6C1440.1,2471.7,1439.3,2472.2,1439.3,2473.3z M1442.9,2469.1
			c0-1-0.7-1.5-1.7-1.5c-1,0-1.7,0.5-1.7,1.5c0,0.9,0.7,1.5,1.7,1.5C1442.2,2470.6,1442.9,2470,1442.9,2469.1z"/>
	</g>
	<g class="st0">
		<path class="st5" d="M1493.3,2474.8c2.2-2,4.6-3.7,4.6-5.5c0-1-0.4-1.7-1.5-1.7c-1,0-1.6,0.7-1.6,1.8h-1.4
			c0.1-2.1,1.4-3.1,3.1-3.1c1.9,0,3,1.2,3,2.9c0,2.3-2.3,4.1-3.9,5.4h4.1v1.2h-6.3V2474.8z"/>
		<path class="st5" d="M1504.3,2466.4c2.7,0,3.4,2.1,3.4,4.8c0,2.8-0.7,4.8-3.4,4.8s-3.4-2.1-3.4-4.8
			C1501,2468.4,1501.7,2466.4,1504.3,2466.4z M1504.3,2467.7c-1.7,0-1.9,1.7-1.9,3.4c0,1.9,0.2,3.5,1.9,3.5s1.9-1.6,1.9-3.5
			C1506.3,2469.4,1506.1,2467.7,1504.3,2467.7z"/>
		<path class="st5" d="M1510.3,2467.9h-1.2v-1.4h2.7v9.5h-1.5V2467.9z"/>
		<path class="st5" d="M1515.7,2473.4c0.2,0.8,0.7,1.3,1.7,1.3c1.2,0,1.8-0.8,1.8-3.2c-0.4,0.6-1.2,0.9-2.1,0.9c-1.7,0-3-1-3-3
			c0-1.9,1.2-3.1,3.1-3.1c2.4,0,3.3,1.7,3.3,4.8c0,3.2-0.7,4.9-3.2,4.9c-2,0-2.9-1.2-3-2.6H1515.7z M1519,2469.4
			c0-1.2-0.7-1.9-1.8-1.9c-1.1,0-1.8,0.8-1.8,1.9c0,1,0.5,1.8,1.9,1.8C1518.4,2471.2,1519,2470.5,1519,2469.4z"/>
	</g>
	<g class="st0">
		<path class="st6" d="M1567.7,2474.5c2.1-1.8,4.4-3.5,4.4-5.2c0-0.8-0.4-1.4-1.3-1.4c-0.9,0-1.4,0.6-1.4,1.6h-1.8
			c0.1-2.2,1.5-3.2,3.2-3.2c2,0,3.1,1.2,3.1,2.9c0,2.2-2.1,3.9-3.6,5.2h3.8v1.5h-6.4V2474.5z"/>
		<path class="st6" d="M1578.8,2466.3c2.7,0,3.5,2.1,3.5,4.8c0,2.8-0.8,4.8-3.5,4.8c-2.7,0-3.5-2.1-3.5-4.8
			C1575.3,2468.4,1576.1,2466.3,1578.8,2466.3z M1578.8,2468c-1.5,0-1.7,1.5-1.7,3.1c0,1.7,0.2,3.1,1.7,3.1s1.7-1.5,1.7-3.1
			C1580.5,2469.5,1580.3,2468,1578.8,2468z"/>
		<path class="st6" d="M1583.6,2474.5c2.1-1.8,4.4-3.5,4.4-5.2c0-0.8-0.4-1.4-1.3-1.4c-0.9,0-1.4,0.6-1.4,1.6h-1.8
			c0.1-2.2,1.5-3.2,3.2-3.2c2,0,3.1,1.2,3.1,2.9c0,2.2-2.1,3.9-3.6,5.2h3.8v1.5h-6.4V2474.5z"/>
		<path class="st6" d="M1594.7,2466.3c2.7,0,3.5,2.1,3.5,4.8c0,2.8-0.8,4.8-3.5,4.8c-2.7,0-3.5-2.1-3.5-4.8
			C1591.2,2468.4,1592,2466.3,1594.7,2466.3z M1594.7,2468c-1.5,0-1.7,1.5-1.7,3.1c0,1.7,0.2,3.1,1.7,3.1s1.7-1.5,1.7-3.1
			C1596.4,2469.5,1596.2,2468,1594.7,2468z"/>
	</g>
</g>
</svg>
