<?xml version="1.0" encoding="utf-8"?>
<!-- Generator: Adobe Illustrator 25.1.0, SVG Export Plug-In . SVG Version: 6.00 Build 0)  -->
<svg version="1.1" id="레이어_1" xmlns="http://www.w3.org/2000/svg" xmlns:xlink="http://www.w3.org/1999/xlink" x="0px"
	 y="0px" viewBox="0 0 457 197" style="enable-background:new 0 0 457 197;" xml:space="preserve">
<style type="text/css">
	.st0{fill:none;}
	.st1{fill:none;stroke:#D5D5D5;}
	.st2{enable-background:new    ;}
	.st3{fill:#FFF8F8;}
	.st4{fill:#DF1C2F;}
</style>
<g id="그룹_5883" transform="translate(-740 -2306.23)">
	<g id="사각형_330" transform="translate(740 2306.23)">
		<rect y="0" class="st0" width="457" height="197"/>
		<rect x="0.5" y="0.5" class="st1" width="456" height="196"/>
	</g>
	<g class="st2">
		<path d="M770.7,2395.6c0-1.2,0.9-2,1.8-2c0.9,0,1.8,0.8,1.8,2s-0.9,2-1.8,2C771.6,2397.5,770.7,2396.8,770.7,2395.6z"/>
		<path d="M792.4,2393.8v0.7h-12.9v-0.7h6v-1.7h-4.7v-0.7h2.3v-3.2h-2.4v-0.7h10.3v0.7h-2.4v3.2h2.3v0.7h-4.7v1.7H792.4z
			 M782,2400.5h9.1v0.7h-10v-3.1h8.7v-1.5h-8.7v-0.7h9.5v2.8H782V2400.5z M784,2391.5h4v-3.2h-4V2391.5z"/>
		<path d="M796.2,2397.1c2.3,0,4.5-0.1,7.2-0.5l0.1,0.7c-2.7,0.4-4.9,0.5-7.3,0.5h-1.1v-5.2h5.6v-3.4h-5.7v-0.7h6.5v4.8H796v3.8
			H796.2z M805.8,2387.1v14.2h-0.8v-14.2H805.8z"/>
		<path d="M817.1,2394.1c-1.6-0.6-3.1-1.9-3.7-3.6c-0.6,1.8-2,3.2-3.7,3.9l-0.4-0.7c2-0.8,3.7-2.7,3.7-5v-1.1h0.8v1.1
			c0,2.2,1.8,4,3.8,4.7L817.1,2394.1z M821.1,2400.4v0.7h-9.5v-3.3h8.1v-1.8h-8.2v-0.7h9v3.2h-8.1v1.9H821.1z M820.5,2394.6h-0.8
			v-7.5h0.8V2394.6z"/>
		<path d="M825.7,2397.1c2.3,0,4.5-0.1,7.2-0.5l0.1,0.7c-2.7,0.4-4.9,0.5-7.3,0.5h-1.1v-5.2h5.6v-3.4h-5.7v-0.7h6.5v4.8h-5.6v3.8
			H825.7z M835.2,2387.1v14.2h-0.8v-14.2H835.2z"/>
		<path d="M851.3,2394.8v0.7h-12.8v-0.7h5.5v-2.2h0.8v2.2H851.3z M848.7,2390.5c0-0.5,0-1,0-1.5v-0.4H840v-0.7h9.6v1.1
			c0,1.3,0,2.7-0.4,4.7l-0.8-0.1c0.2-1,0.3-1.8,0.4-2.5l-8.9,0.4l-0.2-0.8L848.7,2390.5z M841,2400.4h9v0.7h-9.8v-4.2h0.8V2400.4z"
			/>
		<path d="M863.3,2394.7c-1.4-0.6-2.5-1.7-3-3c-0.5,1.4-1.6,2.7-3,3.4l-0.5-0.7c1.8-0.8,3.1-2.7,3.1-4.3v-2.1h0.8v2.1
			c0,1.6,1.3,3.2,3,3.9L863.3,2394.7z M868.7,2398.8c0,1.6-1.8,2.5-4.7,2.5c-2.9,0-4.7-0.9-4.7-2.5s1.8-2.5,4.7-2.5
			C866.9,2396.4,868.7,2397.3,868.7,2398.8z M867.8,2398.8c0-1.1-1.5-1.8-3.8-1.8c-2.3,0-3.8,0.7-3.8,1.8c0,1.1,1.5,1.8,3.8,1.8
			C866.3,2400.6,867.8,2399.9,867.8,2398.8z M865.5,2395.5h-0.8v-8.1h0.8v3.7h2.2v-4h0.8v8.8h-0.8v-4.1h-2.2V2395.5z"/>
		<path d="M879.1,2395.2c-1.6-0.6-3-1.9-3.6-3.5c-0.6,1.9-2,3.2-3.6,3.9l-0.4-0.7c2-0.8,3.6-2.7,3.6-5.1v-1.9h0.8v1.9
			c0,2,1.7,3.9,3.6,4.6L879.1,2395.2z M874.6,2400.3h8.5v0.7h-9.3v-4.3h0.8V2400.3z M884.6,2391.6v0.7h-2.2v5.3h-0.8v-10.6h0.8v4.5
			H884.6z"/>
		<path d="M899,2394v0.7h-12.8v-0.7H899z M897.4,2398.7c0,1.6-1.8,2.6-4.8,2.6s-4.8-0.9-4.8-2.6c0-1.6,1.8-2.6,4.8-2.6
			C895.6,2396.2,897.4,2397.1,897.4,2398.7z M897.5,2392.1H888v-4.6h0.8v3.9h8.7V2392.1z M896.5,2398.7c0-1.2-1.6-1.9-4-1.9
			s-4,0.7-4,1.9s1.6,1.9,4,1.9S896.5,2399.9,896.5,2398.7z"/>
		<path d="M908.6,2394.7c-1.8,0.3-3.2,0.4-6.1,0.4h-1v-4h5.2v-2.3h-5.2v-0.7h6.1v3.7h-5.2v2.6h0.2c2.9,0,4.3,0,6-0.4L908.6,2394.7z
			 M903,2396.7h9.4v4.7h-0.8v-4H903V2396.7z M912.4,2387.1v8.7h-0.8v-2.9h-3.1v-0.7h3.1v-2.2h-3.1v-0.7h3.1v-2.2H912.4z"/>
		<path d="M928.2,2395.5c-3.1,0.6-6.5,0.6-9,0.6l-0.1-0.7c1.2,0,2.6,0,4,0v-1.2c-1.7-0.1-2.8-0.8-2.8-2.1c0-1.3,1.3-2.1,3.2-2.1
			c1.9,0,3.2,0.8,3.2,2.1c0,1.2-1.1,2-2.8,2.1v1.2c1.4-0.1,2.8-0.2,4.2-0.4L928.2,2395.5z M927.7,2389.2h-8.3v-0.7h3.7v-1.6h0.8v1.6
			h3.7V2389.2z M920.8,2397.4h9.2v4h-0.8v-3.3h-8.3V2397.4z M923.6,2393.5c1.5,0,2.4-0.6,2.4-1.5c0-0.9-1-1.5-2.4-1.5
			s-2.4,0.6-2.4,1.5C921.1,2392.9,922.1,2393.5,923.6,2393.5z M932.2,2392.3H930v4.3h-0.8v-9.4h0.8v4.4h2.3V2392.3z"/>
		<path d="M935.3,2396.9c2.3,0,3.7-0.1,5.3-0.4l0.1,0.7c-1.7,0.4-3.1,0.4-5.4,0.4h-0.9v-8.8h5.3v0.7h-4.5L935.3,2396.9L935.3,2396.9
			z M945.8,2387.1v14.2H945v-7.6h-2.4v6.9h-0.8v-13.1h0.8v5.5h2.4v-5.8H945.8z"/>
		<path d="M965,2394.1v0.7h-12.9v-0.7H965z M963.4,2398.8c0,1.6-1.8,2.5-4.8,2.5s-4.8-0.9-4.8-2.5c0-1.6,1.8-2.5,4.8-2.5
			S963.4,2397.2,963.4,2398.8z M963.4,2392.5h-9.7v-4.7h9.6v0.7h-8.7v3.2h8.8V2392.5z M962.5,2398.8c0-1.2-1.6-1.8-4-1.8
			s-4,0.7-4,1.8c0,1.2,1.6,1.8,4,1.8S962.5,2399.9,962.5,2398.8z"/>
		<path d="M974.8,2391.3c0,2.5,2,5,3.8,6l-0.5,0.7c-1.5-0.8-3.1-2.6-3.7-4.7c-0.6,2.2-2.1,4.1-3.7,5l-0.5-0.7c1.9-1,3.8-3.7,3.8-6.3
			v-2.8h0.8V2391.3z M983.7,2393.8h-2.5v7.6h-0.8v-14.2h0.8v5.9h2.5V2393.8z"/>
		<path d="M996.7,2387.1v7.6h-0.8v-3.4h-3.3c-0.2,1.7-1.6,2.9-3.6,2.9c-2.1,0-3.6-1.3-3.6-3.2c0-1.9,1.5-3.2,3.6-3.2
			c2,0,3.4,1.1,3.6,2.8h3.3v-3.5H996.7z M991.7,2391.1c0-1.5-1.2-2.5-2.8-2.5s-2.8,1.1-2.8,2.5c0,1.4,1.2,2.5,2.8,2.5
			S991.7,2392.5,991.7,2391.1z M995.8,2395.5h0.8v5.6h-8.9v-5.6h0.8v2.1h7.2V2395.5z M995.8,2398.3h-7.2v2.1h7.2V2398.3z"/>
		<path d="M1006.6,2390.7c-0.9,2.3-3.2,4-6.2,5l-0.4-0.7c3.5-1.1,5.9-3.2,6.1-6h-5.4v-0.7h6.4c0,0.6-0.1,1.2-0.2,1.7h3.7v-2.8h0.8
			v8.7h-0.8v-2.2h-4.1v-0.7h4.1v-2.3H1006.6z M1011.5,2398.6c0,1.7-1.8,2.7-4.6,2.7c-2.9,0-4.7-1-4.7-2.7c0-1.6,1.8-2.6,4.7-2.6
			C1009.7,2396,1011.5,2397,1011.5,2398.6z M1010.6,2398.6c0-1.2-1.5-1.9-3.8-1.9c-2.3,0-3.8,0.8-3.8,1.9c0,1.2,1.5,2,3.8,2
			C1009.1,2400.6,1010.6,2399.8,1010.6,2398.6z"/>
		<path d="M1021,2394.9c-1.4-0.6-2.4-1.7-2.9-3.1c-0.5,1.5-1.5,2.8-2.9,3.5l-0.5-0.7c1.8-0.8,3-2.7,3-4.5v-1h-2.8v-0.7h6.4v0.7h-2.7
			v1c0,1.8,1.1,3.5,2.9,4.2L1021,2394.9z M1026.5,2398.8c0,1.6-1.8,2.5-4.7,2.5c-2.9,0-4.7-0.9-4.7-2.5s1.8-2.5,4.7-2.5
			C1024.8,2396.3,1026.5,2397.2,1026.5,2398.8z M1025.7,2398.8c0-1.1-1.5-1.8-3.8-1.8c-2.3,0-3.8,0.7-3.8,1.8c0,1.1,1.5,1.8,3.8,1.8
			C1024.2,2400.6,1025.7,2399.9,1025.7,2398.8z M1023.4,2395.4h-0.8v-8h0.8v3.7h2.2v-4h0.8v8.8h-0.8v-4h-2.2V2395.4z"/>
		<path d="M1037,2394.7c-1.8,0.3-3.2,0.4-6.1,0.4h-1v-4h5.2v-2.3h-5.2v-0.7h6.1v3.7h-5.2v2.6h0.2c2.9,0,4.3,0,6-0.4L1037,2394.7z
			 M1031.5,2396.7h9.4v4.7h-0.8v-4h-8.5V2396.7z M1040.8,2387.1v8.7h-0.8v-2.9h-3.1v-0.7h3.1v-2.2h-3.1v-0.7h3.1v-2.2H1040.8z"/>
		<path d="M1054.7,2388.3c0,3.5-2.6,6.2-6.7,7.4l-0.4-0.7c3.6-1.1,5.9-3.2,6.1-6h-5.6v-0.7H1054.7z M1058.6,2398.6
			c0,1.7-1.8,2.6-4.6,2.6c-2.8,0-4.5-1-4.5-2.6c0-1.7,1.8-2.7,4.5-2.7C1056.9,2396,1058.6,2397,1058.6,2398.6z M1057.8,2398.6
			c0-1.2-1.5-2-3.7-2c-2.2,0-3.7,0.8-3.7,2c0,1.2,1.5,2,3.7,2C1056.3,2400.6,1057.8,2399.8,1057.8,2398.6z M1060.7,2391v0.7h-2.2v4
			h-0.8v-8.7h0.8v3.9H1060.7z"/>
		<path d="M1067,2397.6c1.4-0.1,2.9-0.2,4.2-0.4l0.1,0.7c-3.1,0.5-6.5,0.6-9,0.6l-0.2-0.7c1.2,0,2.6,0,4.1-0.1v-1.8
			c-1.7-0.1-2.8-1.1-2.8-2.6c0-1.6,1.3-2.6,3.3-2.6c2,0,3.3,1,3.3,2.6c0,1.5-1.1,2.4-2.9,2.6V2397.6z M1070.9,2389.7h-8.6v-0.7h3.9
			v-1.8h0.8v1.8h3.9V2389.7z M1066.6,2395.2c1.5,0,2.5-0.8,2.5-1.9c0-1.1-1-1.9-2.5-1.9c-1.5,0-2.5,0.8-2.5,1.9
			C1064.1,2394.4,1065.1,2395.2,1066.6,2395.2z M1075.5,2394.1h-2.4v7.3h-0.8v-14.2h0.8v6.2h2.4V2394.1z"/>
	</g>
	<g class="st2">
		<path d="M770.7,2425.6c0-1.2,0.9-2,1.8-2c0.9,0,1.8,0.8,1.8,2s-0.9,2-1.8,2C771.6,2427.5,770.7,2426.8,770.7,2425.6z"/>
		<path d="M792.4,2428.5v0.7h-12.9v-0.7h5.3v-5.2h0.8v5.2H792.4z M789.8,2419.4h-8.9v-0.7h9.7v1.4c0,1.7,0,3.6-0.5,6.4l-0.9-0.1
			c0.5-2.7,0.5-4.6,0.5-6.3V2419.4z"/>
		<path d="M807.1,2426.4h-6.1v4.9h-0.8v-4.9h-6v-0.7h12.9V2426.4z M805.4,2423.8H796v-6.1h0.8v2.2h7.8v-2.2h0.8V2423.8z
			 M804.6,2420.6h-7.8v2.5h7.8V2420.6z"/>
		<path d="M816.2,2418.7c0,3.9-2,7.5-6.5,9.8l-0.5-0.7c3.8-1.9,5.9-4.9,6.2-8.4h-5.6v-0.7H816.2z M822.2,2423.8h-2.4v7.5h-0.8v-14.2
			h0.8v6h2.4V2423.8z"/>
		<path d="M830.9,2418.7c0,3.9-2,7.5-6.5,9.8l-0.5-0.7c3.8-1.9,5.9-4.9,6.2-8.4h-5.6v-0.7H830.9z M836.9,2423.8h-2.4v7.5h-0.8v-14.2
			h0.8v6h2.4V2423.8z"/>
		<path d="M843.5,2421.8c0,2.6,1.9,4.9,3.9,5.8l-0.5,0.7c-1.6-0.8-3.1-2.4-3.8-4.4c-0.6,2.1-2.1,3.9-3.7,4.7l-0.5-0.7
			c2-0.9,3.8-3.4,3.8-6.1v-1.4h-3.5v-0.7h3.5v-2.3h0.8v2.3h3.4v0.7h-3.5V2421.8z M850,2417.1v14.2h-0.9v-14.2H850z"/>
		<path d="M861.2,2421.3c0,2.5,2,5,3.8,6l-0.5,0.7c-1.5-0.8-3.1-2.6-3.7-4.7c-0.6,2.2-2.1,4.1-3.7,5l-0.5-0.7c1.9-1,3.8-3.7,3.8-6.3
			v-2.8h0.8V2421.3z M870,2423.8h-2.5v7.6h-0.8v-14.2h0.8v5.9h2.5V2423.8z"/>
		<path d="M883,2417.1v7.6h-0.8v-3.4h-3.3c-0.2,1.7-1.6,2.9-3.6,2.9c-2.1,0-3.6-1.3-3.6-3.2c0-1.9,1.5-3.2,3.6-3.2
			c2,0,3.4,1.1,3.6,2.8h3.3v-3.5H883z M878,2421.1c0-1.5-1.2-2.5-2.8-2.5s-2.8,1.1-2.8,2.5c0,1.4,1.2,2.5,2.8,2.5
			S878,2422.5,878,2421.1z M882.1,2425.5h0.8v5.6h-8.9v-5.6h0.8v2.1h7.2V2425.5z M882.1,2428.3h-7.2v2.1h7.2V2428.3z"/>
		<path d="M896.8,2423.9h-6.4v-6.2h0.8v2.3h4.8v-2.3h0.8V2423.9z M896,2420.6h-4.8v2.5h4.8V2420.6z M892.7,2430.4h8.5v0.7h-9.4v-3.3
			h8v-1.8h-8v-0.7h8.8v3.2h-8V2430.4z M902.8,2420.4v0.7h-2.2v3.4h-0.8v-7.4h0.8v3.2H902.8z"/>
		<path d="M911.2,2423.1v2.1h4.4v3.2h-8.8v2h9.1v0.7h-10v-3.3h8.8v-1.8H906v-0.7h4.4v-2.1h-6v-0.7h10c0.3-1.7,0.3-2.9,0.3-3.8v-0.2
			h-8.6v-0.7h9.5v0.9c0,1,0,2.2-0.3,3.8h2.1v0.7H911.2z"/>
		<path d="M929.9,2423.8h-6.5v-5.7h6.5V2423.8z M929.1,2418.8h-4.8v4.3h4.8V2418.8z M930.3,2427.3c0,1.6,2.7,3,4.8,3.3l-0.3,0.7
			c-2-0.3-4.1-1.4-4.9-2.8c-0.8,1.5-3,2.5-5,2.8l-0.3-0.7c2.1-0.3,4.9-1.7,4.9-3.3v-0.1h-4.3v-0.7h4.3v-1.5h0.9v1.5h4.3v0.7h-4.3
			V2427.3z M934.2,2425.3h-0.8v-8.2h0.8V2425.3z"/>
		<path d="M947.2,2418.4h0.8v9.5h-6.5v-9.5h0.8v3.9h4.8V2418.4z M947.2,2423h-4.8v4.1h4.8V2423z M954.2,2423.7h-2.5v7.7h-0.8v-14.2
			h0.8v5.8h2.5V2423.7z"/>
		<path d="M963.3,2423.2c0,3-1.5,4.9-3.5,4.9c-2.1,0-3.5-1.9-3.5-4.9c0-3,1.5-4.9,3.5-4.9C961.9,2418.3,963.3,2420.2,963.3,2423.2z
			 M957.1,2423.2c0,2.4,1.1,4.1,2.7,4.1c1.6,0,2.7-1.7,2.7-4.1c0-2.4-1.1-4.1-2.7-4.1C958.2,2419,957.1,2420.7,957.1,2423.2z
			 M967.2,2417.1v14.2h-0.8v-14.2H967.2z"/>
		<path d="M983.3,2428.7v0.7h-12.9v-0.7h6v-3.3c-2.8-0.1-4.7-1.5-4.7-3.6c0-2.2,2.1-3.6,5.1-3.6c3,0,5.1,1.4,5.1,3.6
			c0,2.1-1.9,3.5-4.7,3.6v3.3H983.3z M976.8,2424.7c2.5,0,4.3-1.2,4.3-2.9s-1.8-2.9-4.3-2.9c-2.4,0-4.3,1.2-4.3,2.9
			S974.3,2424.7,976.8,2424.7z"/>
		<path d="M1001.5,2426.5h-6v4.8h-0.8v-4.8h-6v-0.7h12.9V2426.5z M1000,2424.1h-9.6v-6.3h9.4v0.7h-8.6v2h8.2v0.7h-8.2v2.1h8.8
			V2424.1z"/>
		<path d="M1007.9,2421.8c0,2.3,1.9,4.9,3.8,5.8l-0.5,0.7c-1.5-0.8-3.1-2.6-3.7-4.6c-0.6,2.2-2.2,4.1-3.8,5l-0.5-0.7
			c1.8-0.9,3.9-3.6,3.9-6.1v-2.4h-3.4v-0.7h7.6v0.7h-3.3V2421.8z M1016.7,2423.8h-2.5v7.6h-0.8v-14.2h0.8v5.9h2.5V2423.8z"/>
		<path d="M1022.6,2421.3c0,2.5,2,5,3.8,6l-0.5,0.7c-1.5-0.8-3.1-2.6-3.7-4.7c-0.6,2.2-2.1,4.1-3.7,5l-0.5-0.7
			c1.9-1,3.8-3.7,3.8-6.3v-2.8h0.8V2421.3z M1031.4,2423.8h-2.5v7.6h-0.8v-14.2h0.8v5.9h2.5V2423.8z"/>
		<path d="M1044.4,2417.1v7.6h-0.8v-3.4h-3.3c-0.2,1.7-1.6,2.9-3.6,2.9c-2.1,0-3.6-1.3-3.6-3.2c0-1.9,1.5-3.2,3.6-3.2
			c2,0,3.4,1.1,3.6,2.8h3.3v-3.5H1044.4z M1039.4,2421.1c0-1.5-1.2-2.5-2.8-2.5c-1.6,0-2.8,1.1-2.8,2.5c0,1.4,1.2,2.5,2.8,2.5
			C1038.3,2423.6,1039.4,2422.5,1039.4,2421.1z M1043.5,2425.5h0.8v5.6h-8.9v-5.6h0.8v2.1h7.2V2425.5z M1043.5,2428.3h-7.2v2.1h7.2
			V2428.3z"/>
	</g>
	<g class="st2">
		<path d="M770.7,2455.6c0-1.2,0.9-2,1.8-2c0.9,0,1.8,0.8,1.8,2s-0.9,2-1.8,2C771.6,2457.5,770.7,2456.8,770.7,2455.6z"/>
		<path d="M787.3,2455.2c-1.6-0.6-3-1.9-3.6-3.5c-0.6,1.9-2,3.2-3.6,3.9l-0.4-0.7c2-0.8,3.6-2.7,3.6-5.1v-1.9h0.8v1.9
			c0,2,1.7,3.9,3.6,4.6L787.3,2455.2z M782.7,2460.3h8.5v0.7h-9.3v-4.3h0.8V2460.3z M792.7,2451.6v0.7h-2.2v5.3h-0.8v-10.6h0.8v4.5
			H792.7z"/>
		<path d="M805.8,2447.1v7.6H805v-3.4h-3.3c-0.2,1.7-1.6,2.9-3.6,2.9c-2.1,0-3.6-1.3-3.6-3.2c0-1.9,1.5-3.2,3.6-3.2
			c2,0,3.4,1.1,3.6,2.8h3.3v-3.5H805.8z M800.9,2451.1c0-1.5-1.2-2.5-2.8-2.5s-2.8,1.1-2.8,2.5c0,1.4,1.2,2.5,2.8,2.5
			S800.9,2452.5,800.9,2451.1z M805,2455.5h0.8v5.6h-8.9v-5.6h0.8v2.1h7.2V2455.5z M805,2458.3h-7.2v2.1h7.2V2458.3z"/>
		<path d="M816.4,2448.7c0,4-2.1,7.6-6.7,9.8l-0.5-0.7c3.9-1.9,6.1-4.9,6.3-8.4h-5.7v-0.7H816.4z M820.5,2447.1v14.2h-0.8v-14.2
			H820.5z"/>
		<path d="M830.5,2454v1.7h4.3v3h-8.7v1.8h9.1v0.7h-10v-3.1h8.7v-1.6h-8.7v-0.7h4.4v-1.7h-6v-0.7h12.9v0.7H830.5z M835.5,2452.1
			c-2-0.3-4.5-1.3-5.4-3c-0.8,1.7-3.3,2.7-5.4,3l-0.3-0.7c2.2-0.3,5.3-1.6,5.3-3.6v-0.7h0.9v0.7c0,2,3.1,3.3,5.2,3.6L835.5,2452.1z"
			/>
		<path d="M848.8,2453.6c-0.6,0.9-1.7,1.4-3,1.4c-2.1,0-3.6-1.4-3.6-3.5c0-2,1.5-3.5,3.6-3.5c1.3,0,2.3,0.5,3,1.4h3.9v-2.4h0.8v10.6
			h-0.8v-4.1H848.8z M845.8,2454.3c1.6,0,2.8-1.2,2.8-2.8c0-1.5-1.2-2.7-2.8-2.7s-2.8,1.2-2.8,2.7
			C843,2453.1,844.2,2454.3,845.8,2454.3z M854,2460.3v0.7h-9.3v-4.4h0.8v3.7H854z M849.2,2450.2c0.1,0.4,0.2,0.9,0.2,1.3
			c0,0.5-0.1,0.9-0.2,1.3h3.5v-2.7H849.2z"/>
		<path d="M869.5,2455h-6v6.4h-0.8v-6.4h-6v-0.7h9.7c0.5-2.1,0.5-3.6,0.5-4.9v-0.5h-8.5v-0.7h9.3v1.2c0,1.3,0,2.8-0.4,4.9h2.2V2455z
			"/>
		<path d="M877.4,2449c0,3.4-1.3,6.9-5.4,9.2l-0.5-0.6c3.6-1.9,4.9-4.9,5.1-7.8H872v-0.7H877.4z M883.4,2447.1v14.2h-0.8v-7.6h-2.4
			v6.8h-0.8v-13.1h0.8v5.5h2.4v-5.9H883.4z"/>
		<path d="M893.2,2453.9h-6.4v-6.2h0.8v2.3h4.8v-2.3h0.8V2453.9z M892.4,2450.6h-4.8v2.5h4.8V2450.6z M889.1,2460.4h8.5v0.7h-9.4
			v-3.3h8v-1.8h-8v-0.7h8.8v3.2h-8V2460.4z M899.3,2450.4v0.7h-2.2v3.4h-0.8v-7.4h0.8v3.2H899.3z"/>
		<path d="M911.5,2448.3c0,3.5-2.6,6.2-6.7,7.4l-0.4-0.7c3.6-1.1,5.9-3.2,6.1-6h-5.6v-0.7H911.5z M915.5,2458.6
			c0,1.7-1.8,2.6-4.6,2.6c-2.8,0-4.5-1-4.5-2.6c0-1.7,1.8-2.7,4.5-2.7C913.7,2456,915.5,2457,915.5,2458.6z M914.7,2458.6
			c0-1.2-1.5-2-3.7-2c-2.2,0-3.7,0.8-3.7,2c0,1.2,1.5,2,3.7,2C913.2,2460.6,914.7,2459.8,914.7,2458.6z M917.6,2451v0.7h-2.2v4h-0.8
			v-8.7h0.8v3.9H917.6z"/>
		<path d="M923.9,2457.6c1.4-0.1,2.9-0.2,4.2-0.4l0.1,0.7c-3.1,0.5-6.5,0.6-9,0.6l-0.2-0.7c1.2,0,2.6,0,4.1-0.1v-1.8
			c-1.7-0.1-2.8-1.1-2.8-2.6c0-1.6,1.3-2.6,3.3-2.6c2,0,3.3,1,3.3,2.6c0,1.5-1.1,2.4-2.9,2.6V2457.6z M927.7,2449.7h-8.6v-0.7h3.9
			v-1.8h0.8v1.8h3.9V2449.7z M923.5,2455.2c1.5,0,2.5-0.8,2.5-1.9c0-1.1-1-1.9-2.5-1.9c-1.5,0-2.5,0.8-2.5,1.9
			C921,2454.4,922,2455.2,923.5,2455.2z M932.3,2454.1h-2.4v7.3H929v-14.2h0.8v6.2h2.4V2454.1z"/>
	</g>
	<g id="사각형_373" transform="translate(740 2306.23)">
		<rect y="0" class="st3" width="457" height="50"/>
		<rect x="0.5" y="0.5" class="st1" width="456" height="49"/>
	</g>
	<g class="st2">
		<path class="st4" d="M924.9,2331.5c0-4.3,2.4-6.9,6-6.9c3.5,0,6,2.5,6,6.9s-2.4,7-6,7C927.3,2338.5,924.9,2335.8,924.9,2331.5z
			 M934.1,2331.5c0-2.9-1.3-4.6-3.2-4.6s-3.2,1.7-3.2,4.6c0,2.8,1.3,4.7,3.2,4.7S934.1,2334.4,934.1,2331.5z"/>
		<path class="st4" d="M939.3,2331.6c0-4.4,2.8-7,6.2-7c1.7,0,3,0.8,3.9,1.7l-1.4,1.7c-0.7-0.6-1.5-1.1-2.5-1.1
			c-2,0-3.5,1.7-3.5,4.6c0,2.9,1.4,4.6,3.5,4.6c1.2,0,2-0.5,2.8-1.3l1.4,1.7c-1.1,1.3-2.5,2-4.2,2
			C942.1,2338.5,939.3,2336.1,939.3,2331.6z"/>
		<path class="st4" d="M952.4,2324.9h2.7v13.3h-2.7V2324.9z"/>
	</g>
	<g class="st2">
		<path class="st4" d="M958.2,2334.5c2.9,0,7,0,10.5-0.5l0.1,1.7c-3.6,0.7-7.5,0.8-10.3,0.8L958.2,2334.5z M968,2328.4
			c0,2.4-2,4.1-4.6,4.1s-4.6-1.7-4.6-4.1c0-2.4,2-4.1,4.6-4.1S968,2326,968,2328.4z M961.2,2328.4c0,1.3,1,2.1,2.3,2.1
			c1.3,0,2.3-0.8,2.3-2.1c0-1.3-1-2.1-2.3-2.1C962.2,2326.3,961.2,2327.1,961.2,2328.4z M971.9,2323.2v16.6h-2.4v-16.6H971.9z"/>
		<path class="st4" d="M990.1,2332.2c-3.5,0.6-7.3,0.6-10.2,0.6l-0.2-1.6c1.2,0,2.5,0,3.9,0v-0.8c-1.8-0.2-2.9-1-2.9-2.1
			c0-1.3,1.6-2.2,4.1-2.2c2.5,0,4,0.8,4,2.2c0,1.1-1.1,1.9-2.8,2.1v0.7c1.3-0.1,2.7-0.2,3.9-0.3L990.1,2332.2z M989.6,2325.8h-9.4
			v-1.6h3.5v-1.2h2.4v1.2h3.5V2325.8z M984.3,2338.1h9.3v1.6H982v-3.8h8.8v-0.7h-8.8v-1.6h11.1v3.7h-8.8V2338.1z M984.9,2329
			c1.1,0,1.8-0.3,1.8-0.7c0-0.5-0.6-0.7-1.8-0.7s-1.8,0.2-1.8,0.7C983.1,2328.8,983.7,2329,984.9,2329z M995.2,2327.1v1.9h-2.1v3.9
			h-2.4v-9.8h2.4v3.9H995.2z"/>
		<path class="st4" d="M1012.1,2331v1.9h-15v-1.9h6.3v-1.4h-4.5v-5.7h11.4v1.9h-9v1.9h9.1v1.9h-4.6v1.4H1012.1z M1010.3,2336.8
			c0,1.9-2.2,3-5.8,3s-5.7-1.1-5.7-3c0-2,2.2-3.1,5.7-3.1S1010.3,2334.8,1010.3,2336.8z M1007.9,2336.8c0-0.9-1.1-1.3-3.3-1.3
			c-2.2,0-3.3,0.4-3.3,1.3s1.1,1.2,3.3,1.2C1006.8,2338,1007.9,2337.6,1007.9,2336.8z"/>
	</g>
</g>
</svg>
