<?xml version="1.0" encoding="utf-8"?>
<!-- Generator: Adobe Illustrator 25.1.0, SVG Export Plug-In . SVG Version: 6.00 Build 0)  -->
<svg version="1.1" id="레이어_1" xmlns="http://www.w3.org/2000/svg" xmlns:xlink="http://www.w3.org/1999/xlink" x="0px"
	 y="0px" viewBox="0 0 335 233" style="enable-background:new 0 0 335 233;" xml:space="preserve">
<style type="text/css">
	.st0{fill:#FAFAFA;}
	.st1{fill:none;stroke:#D6D6D6;stroke-width:0.9948;}
	.st2{enable-background:new    ;}
	.st3{fill:#555555;}
	.st4{fill:none;stroke:#717171;stroke-width:0.9948;}
</style>
<g id="그룹_5727" transform="translate(-20 -2680.197)">
	<g id="그룹_5701" transform="translate(0 -89.912)">
		<rect id="사각형_375" x="20" y="2770.7" class="st0" width="335" height="32.7"/>
		<line id="선_348" class="st1" x1="20.2" y1="2803.5" x2="354.8" y2="2803.5"/>
		<line id="선_348-2" class="st1" x1="20.2" y1="2836.7" x2="354.8" y2="2836.7"/>
		<line id="선_348-3" class="st1" x1="20.2" y1="2869.9" x2="354.8" y2="2869.9"/>
		<line id="선_348-4" class="st1" x1="20.2" y1="2903" x2="354.8" y2="2903"/>
		<line id="선_348-5" class="st1" x1="20.2" y1="2936.2" x2="354.8" y2="2936.2"/>
		<line id="선_348-6" class="st1" x1="20.2" y1="2969.4" x2="354.8" y2="2969.4"/>
		<g>
			<g class="st2">
				<path class="st3" d="M70.8,2784.8c0,1.9,1,3.9,2.6,4.7l-0.8,1c-1.2-0.6-2-1.8-2.5-3.2c-0.5,1.5-1.4,2.8-2.6,3.4l-0.8-1
					c1.7-0.8,2.7-2.9,2.7-4.8v-1.8h1.2v1.8H70.8z M77.1,2787.3h-1.7v5.4h-1.2v-10.7h1.2v4.3h1.7V2787.3z"/>
				<path class="st3" d="M87.1,2782.1v5.7h-1.2v-2.3h-2c-0.2,1.2-1.3,2.1-2.8,2.1c-1.6,0-2.8-1-2.8-2.5c0-1.5,1.2-2.5,2.8-2.5
					c1.4,0,2.5,0.8,2.8,2h2v-2.5L87.1,2782.1L87.1,2782.1z M82.7,2785.1c0-0.9-0.7-1.5-1.6-1.5c-1,0-1.6,0.6-1.6,1.5
					s0.7,1.5,1.6,1.5S82.7,2786,82.7,2785.1z M85.8,2788.3H87v4.4h-7v-4.4h1.2v1.2h4.6C85.8,2789.5,85.8,2788.3,85.8,2788.3z
					 M85.8,2790.5h-4.6v1.2h4.6V2790.5z"/>
				<path class="st3" d="M94.9,2788.1c-1.2-0.4-2.1-1.2-2.5-2.2c-0.5,1.2-1.4,2.1-2.7,2.5l-0.6-1c1.7-0.6,2.7-2,2.7-3.5v-0.2h-2.3
					v-1h5.8v1H93v0.2c0,1.3,0.9,2.6,2.6,3.1L94.9,2788.1z M97.7,2790.8c0,1.3-1.4,2.1-3.6,2.1s-3.6-0.8-3.6-2.1
					c0-1.3,1.4-2.1,3.6-2.1C96.3,2788.7,97.7,2789.5,97.7,2790.8z M96.5,2790.8c0-0.7-0.9-1.1-2.4-1.1s-2.4,0.4-2.4,1.1
					c0,0.7,0.9,1.1,2.4,1.1S96.5,2791.5,96.5,2790.8z M99.1,2784.7v1h-1.5v2.8h-1.2v-6.4h1.2v2.6L99.1,2784.7L99.1,2784.7z"/>
			</g>
		</g>
		<g class="st2">
			<path class="st3" d="M82.3,2821.1v0.8h-9.7v-0.8H77v-1.2h-3.1v-4.3h1v1.4h5.2v-1.4h1v4.3H78v1.2H82.3z M74.8,2824.9h6.4v0.8h-7.4
				v-3h1V2824.9z M74.9,2819.2h5.2v-1.4h-5.2V2819.2z"/>
			<path class="st3" d="M87.2,2818.1c0,1.9,1.2,3.8,2.7,4.6l-0.6,0.8c-1.1-0.6-2.1-1.9-2.6-3.3c-0.5,1.6-1.5,2.9-2.7,3.6l-0.6-0.8
				c1.5-0.8,2.8-2.9,2.8-4.8v-1.9h1C87.2,2816.3,87.2,2818.1,87.2,2818.1z M93.7,2820.4h-1.8v5.5h-1v-10.6h1v4.4h1.8V2820.4z"/>
		</g>
		<g class="st2">
			<path class="st3" d="M82.4,2852.2v0.8H78v2.6h-1v-2.6h-4.4v-0.8h7.3c0.3-1.4,0.3-2.4,0.3-3.3v-0.1h-6.3v-0.8h7.3v0.9
				c0,0.9,0,1.9-0.3,3.3L82.4,2852.2L82.4,2852.2z M74.8,2857.1h6.5v0.8h-7.5v-3.4h1V2857.1z"/>
			<path class="st3" d="M89.4,2853.6c-1.2-0.4-2.1-1.3-2.6-2.5c-0.4,1.3-1.4,2.3-2.7,2.7l-0.5-0.8c1.6-0.6,2.7-2,2.7-3.7v-1.3h1v1.4
				c0,1.5,1.1,2.8,2.7,3.4L89.4,2853.6z M86.3,2857.1h6.2v0.8h-7.1v-3.3h1L86.3,2857.1L86.3,2857.1z M93.6,2850.8v0.8H92v3.8h-1
				v-7.9h1v3.3L93.6,2850.8L93.6,2850.8z"/>
		</g>
		<g class="st2">
			<path class="st3" d="M82.3,2889.2v0.8h-9.8v-0.8h4.4v-2.5h-3.5v-0.8H75v-3.5h-1.7v-0.8h8v0.8h-1.7v3.5h1.6v0.8h-3.5v2.5H82.3z
				 M76.1,2886h2.7v-3.5h-2.7V2886z"/>
			<path class="st3" d="M90,2882.6h-6.3v-0.8h2.7v-1.3h1v1.3H90V2882.6z M86.8,2887c-1.5,0-2.6-0.7-2.6-1.9c0-1.2,1-1.9,2.6-1.9
				s2.6,0.7,2.6,1.9C89.4,2886.2,88.4,2887,86.8,2887z M92.1,2889.5c0,1.2-1.3,1.9-3.5,1.9s-3.5-0.7-3.5-1.9c0-1.2,1.3-1.9,3.5-1.9
				C90.8,2887.6,92.1,2888.3,92.1,2889.5z M86.8,2886.2c1,0,1.6-0.5,1.6-1.2c0-0.7-0.7-1.2-1.6-1.2c-1,0-1.6,0.5-1.6,1.2
				C85.2,2885.8,85.9,2886.2,86.8,2886.2z M91.1,2889.5c0-0.7-1-1.1-2.5-1.1c-1.6,0-2.5,0.4-2.5,1.1c0,0.7,1,1.1,2.5,1.1
				C90.2,2890.6,91.1,2890.2,91.1,2889.5z M93.6,2883.6v0.8H92v3.1h-1v-6.8h1v3L93.6,2883.6L93.6,2883.6z"/>
		</g>
		<g class="st2">
			<path class="st3" d="M79.3,2919.4c-2.2,0.3-4.8,0.4-6.7,0.4l-0.1-0.8c0.7,0,1.5,0,2.3,0v-2.1h1v2.1c1.2,0,2.4-0.1,3.5-0.3
				L79.3,2919.4z M77.3,2917.9c0.3-1.1,0.3-2,0.3-2.6h-4.4v-0.8h5.3v0.6c0,0.7,0,1.7-0.3,2.9L77.3,2917.9z M81.1,2922.5
				c0,1.2-1.4,2-3.6,2s-3.6-0.7-3.6-2c0-1.2,1.4-1.9,3.6-1.9S81.1,2921.3,81.1,2922.5z M80.1,2922.5c0-0.7-1-1.2-2.6-1.2
				s-2.6,0.4-2.6,1.2c0,0.7,1,1.2,2.6,1.2S80.1,2923.3,80.1,2922.5z M82.5,2916.8v0.8H81v3h-1v-6.6h1v3L82.5,2916.8L82.5,2916.8z"/>
			<path class="st3" d="M86.6,2919.5c-1.6,0-2.8-1-2.8-2.5c0-1.5,1.2-2.5,2.8-2.5c1.6,0,2.8,1,2.8,2.5
				C89.5,2918.5,88.3,2919.5,86.6,2919.5z M86.6,2918.7c1.1,0,1.8-0.7,1.8-1.7c0-1-0.8-1.7-1.8-1.7c-1.1,0-1.8,0.7-1.8,1.7
				C84.8,2918,85.6,2918.7,86.6,2918.7z M92.1,2922.5c0,1.3-1.4,2-3.5,2c-2.2,0-3.6-0.7-3.6-2c0-1.3,1.4-2,3.6-2
				C90.7,2920.6,92.1,2921.2,92.1,2922.5z M91.1,2922.5c0-0.8-1-1.2-2.6-1.2s-2.6,0.5-2.6,1.2c0,0.8,1,1.2,2.6,1.2
				S91.1,2923.2,91.1,2922.5z M92,2916.3v1.5h1.6v0.8H92v1.7h-1v-6.3h1v1.6h1.6v0.8L92,2916.3L92,2916.3z"/>
		</g>
		<g class="st2">
			<path class="st3" d="M78.5,2950.2c0,1.5-1.2,2.5-2.8,2.5c-1.6,0-2.8-1-2.8-2.5s1.2-2.5,2.8-2.5
				C77.3,2947.7,78.5,2948.7,78.5,2950.2z M73.8,2950.2c0,1,0.8,1.7,1.8,1.7c1.1,0,1.8-0.7,1.8-1.7s-0.8-1.7-1.8-1.7
				C74.6,2948.5,73.8,2949.3,73.8,2950.2z M81.4,2954v3.8h-1v-3h-6.2v-0.8H81.4z M81.4,2947.1v6.3h-1v-6.3H81.4z"/>
			<path class="st3" d="M89.4,2953.2c-1.2-0.4-2.1-1.3-2.6-2.5c-0.4,1.3-1.4,2.3-2.7,2.7l-0.5-0.8c1.6-0.6,2.7-2,2.7-3.7v-1.3h1v1.4
				c0,1.5,1.1,2.8,2.7,3.4L89.4,2953.2z M86.3,2956.7h6.2v0.8h-7.1v-3.3h1L86.3,2956.7L86.3,2956.7z M93.6,2950.3v0.8H92v3.8h-1
				v-7.9h1v3.3L93.6,2950.3L93.6,2950.3z"/>
		</g>
		<g class="st2">
			<path class="st3" d="M69.5,2983.4c0,1.5-1.2,2.5-2.8,2.5c-1.6,0-2.8-1-2.8-2.5s1.2-2.5,2.8-2.5
				C68.3,2980.8,69.5,2981.9,69.5,2983.4z M64.8,2983.4c0,1,0.8,1.7,1.8,1.7c1.1,0,1.8-0.7,1.8-1.7s-0.8-1.7-1.8-1.7
				C65.6,2981.7,64.8,2982.4,64.8,2983.4z M72.4,2987.2v3.8h-1v-3h-6.2v-0.8H72.4z M72.4,2980.2v6.3h-1v-6.3H72.4z"/>
			<path class="st3" d="M80.4,2986.4c-1.2-0.4-2.1-1.3-2.6-2.5c-0.4,1.3-1.4,2.3-2.7,2.7l-0.5-0.8c1.6-0.6,2.7-2,2.7-3.7v-1.3h1v1.4
				c0,1.5,1.1,2.8,2.7,3.4L80.4,2986.4z M77.3,2989.8h6.2v0.8h-7.1v-3.3h1L77.3,2989.8L77.3,2989.8z M84.6,2983.5v0.8H83v3.8h-1
				v-7.9h1v3.3L84.6,2983.5L84.6,2983.5z"/>
		</g>
		<g class="st2">
			<path class="st3" d="M85.1,2981.3h1.2l1.4,4.8c0.3,1,0.5,1.9,0.9,2.9l0,0c0.3-1,0.5-1.9,0.9-2.9l1.4-4.8H92l-2.8,8.7h-1.3
				L85.1,2981.3z"/>
			<path class="st3" d="M93.1,2981.3h1.1v8.7h-1.1V2981.3z"/>
			<path class="st3" d="M96.7,2981.3h2.5c2,0,3.3,0.7,3.3,2.6c0,1.9-1.3,2.7-3.2,2.7h-1.5v3.5h-1.1
				C96.7,2990,96.7,2981.3,96.7,2981.3z M99.1,2985.7c1.5,0,2.3-0.6,2.3-1.8c0-1.3-0.8-1.7-2.3-1.7h-1.3v3.5H99.1z"/>
		</g>
		<g class="st2">
			<path class="st3" d="M198.8,2816.3h1.1v8.7h-1.1V2816.3z"/>
			<path class="st3" d="M201.7,2824l0.7-0.8c0.6,0.7,1.5,1.1,2.4,1.1c1.2,0,1.8-0.6,1.8-1.4c0-0.9-0.6-1.2-1.5-1.6l-1.3-0.6
				c-0.8-0.3-1.8-1-1.8-2.3c0-1.4,1.2-2.3,2.8-2.3c1,0,2,0.4,2.6,1.1l-0.6,0.7c-0.5-0.5-1.2-0.8-2-0.8c-1,0-1.6,0.5-1.6,1.3
				c0,0.9,0.8,1.2,1.5,1.5l1.3,0.5c1,0.4,1.8,1,1.8,2.4s-1.2,2.5-3,2.5C203.5,2825.2,202.4,2824.7,201.7,2824z"/>
			<path class="st3" d="M209,2820.7c0-2.8,1.5-4.5,3.8-4.5c2.2,0,3.8,1.7,3.8,4.5s-1.5,4.6-3.8,4.6S209,2823.5,209,2820.7z
				 M215.3,2820.7c0-2.2-1-3.6-2.6-3.6s-2.6,1.4-2.6,3.6s1,3.6,2.6,3.6S215.3,2822.9,215.3,2820.7z"/>
			<path class="st3" d="M221.2,2823.7c0.4,0.4,0.9,0.7,1.5,0.7c1.1,0,2.1-0.9,2.2-3.7c-0.5,0.7-1.3,1.1-2,1.1
				c-1.5,0-2.4-0.9-2.4-2.8c0-1.7,1.2-2.9,2.5-2.9c1.7,0,3,1.4,3,4.2c0,3.6-1.5,4.8-3.2,4.8c-0.9,0-1.6-0.4-2.1-0.9L221.2,2823.7z
				 M224.8,2819.8c-0.1-1.8-0.8-2.8-1.9-2.8c-0.8,0-1.5,0.8-1.5,2c0,1.2,0.5,2,1.6,2C223.6,2821,224.2,2820.6,224.8,2819.8z"/>
			<path class="st3" d="M227.1,2820.7c0-3.1,1.1-4.5,2.7-4.5c1.7,0,2.7,1.5,2.7,4.5c0,3.1-1.1,4.6-2.7,4.6
				C228.2,2825.2,227.1,2823.8,227.1,2820.7z M231.5,2820.7c0-2.6-0.7-3.6-1.7-3.6s-1.7,1.1-1.7,3.6c0,2.6,0.7,3.7,1.7,3.7
				C230.9,2824.4,231.5,2823.3,231.5,2820.7z"/>
			<path class="st3" d="M233.8,2820.7c0-3.1,1.1-4.5,2.7-4.5c1.7,0,2.7,1.5,2.7,4.5c0,3.1-1.1,4.6-2.7,4.6
				C234.8,2825.2,233.8,2823.8,233.8,2820.7z M238.2,2820.7c0-2.6-0.7-3.6-1.7-3.6s-1.7,1.1-1.7,3.6c0,2.6,0.7,3.7,1.7,3.7
				S238.2,2823.3,238.2,2820.7z"/>
			<path class="st3" d="M240.9,2824.2h2v-6.5h-1.6v-0.7c0.8-0.1,1.3-0.3,1.8-0.6h0.8v7.8h1.8v0.9h-4.8V2824.2z"/>
			<path class="st3" d="M247.1,2826.7c0.7-0.3,1.2-0.9,1.2-1.6h-0.1c-0.4,0-0.8-0.3-0.8-0.8s0.4-0.8,0.8-0.8c0.6,0,0.9,0.5,0.9,1.3
				c0,1.2-0.7,2.1-1.8,2.5L247.1,2826.7z"/>
			<path class="st3" d="M253.7,2816.3h1.1v8.7h-1.1V2816.3z"/>
			<path class="st3" d="M261.3,2822.4h-3.2l-0.9,2.7h-1.1l3-8.7h1.2l3,8.7h-1.2L261.3,2822.4z M261,2821.6l-0.4-1.3
				c-0.3-1-0.6-2-0.9-3l0,0c-0.3,1-0.6,2-0.9,3l-0.4,1.3H261z"/>
			<path class="st3" d="M265.6,2817.3H263v-0.9h6.4v0.9h-2.7v7.8h-1.1L265.6,2817.3L265.6,2817.3z"/>
			<path class="st3" d="M271,2816.3h5.1v0.9h-4v3h3.4v0.9h-3.4v3.9H271V2816.3z"/>
			<path class="st3" d="M280.2,2824.2h2v-6.5h-1.6v-0.7c0.8-0.1,1.3-0.3,1.8-0.6h0.8v7.8h1.8v0.9h-4.8L280.2,2824.2L280.2,2824.2z"
				/>
			<path class="st3" d="M291.1,2817.8c-0.3-0.4-0.9-0.7-1.4-0.7c-1.2,0-2.2,0.9-2.3,3.7c0.5-0.7,1.3-1.1,2-1.1
				c1.5,0,2.4,0.9,2.4,2.8c0,1.7-1.2,2.9-2.5,2.9c-1.7,0-2.9-1.5-2.9-4.4c0-3.4,1.5-4.8,3.2-4.8c0.9,0,1.6,0.4,2.1,0.9L291.1,2817.8
				z M290.9,2822.4c0-1.2-0.5-1.9-1.6-1.9c-0.6,0-1.2,0.3-1.8,1.1c0.1,1.8,0.8,2.8,1.9,2.8C290.2,2824.4,290.9,2823.6,290.9,2822.4z
				"/>
			<path class="st3" d="M293.7,2823.7c0.4,0.4,0.9,0.7,1.5,0.7c1.1,0,2.1-0.9,2.2-3.7c-0.5,0.7-1.3,1.1-2,1.1
				c-1.5,0-2.4-0.9-2.4-2.8c0-1.7,1.2-2.9,2.5-2.9c1.7,0,3,1.4,3,4.2c0,3.6-1.5,4.8-3.2,4.8c-0.9,0-1.6-0.4-2.1-0.9L293.7,2823.7z
				 M297.4,2819.8c-0.1-1.8-0.8-2.8-1.9-2.8c-0.8,0-1.5,0.8-1.5,2c0,1.2,0.5,2,1.6,2C296.1,2821,296.8,2820.6,297.4,2819.8z"/>
			<path class="st3" d="M305.4,2822.7h-1.2v2.4h-1v-2.4h-3.8v-0.7l3.7-5.5h1.2v5.4h1.2v0.8H305.4z M303.1,2821.8v-2.7
				c0-0.4,0-1.1,0.1-1.6l0,0c-0.2,0.4-0.5,0.9-0.7,1.3l-2,3H303.1z"/>
			<path class="st3" d="M307,2823.7c0.4,0.4,0.9,0.7,1.5,0.7c1.1,0,2.1-0.9,2.2-3.7c-0.5,0.7-1.3,1.1-2,1.1c-1.5,0-2.4-0.9-2.4-2.8
				c0-1.7,1.2-2.9,2.5-2.9c1.7,0,3,1.4,3,4.2c0,3.6-1.5,4.8-3.2,4.8c-0.9,0-1.6-0.4-2.1-0.9L307,2823.7z M310.7,2819.8
				c-0.1-1.8-0.8-2.8-1.9-2.8c-0.8,0-1.5,0.8-1.5,2c0,1.2,0.5,2,1.6,2C309.5,2821,310.1,2820.6,310.7,2819.8z"/>
		</g>
		<g class="st2">
			<path class="st3" d="M198.8,2849.6h1.1v8.7h-1.1V2849.6z"/>
			<path class="st3" d="M201.7,2857.1l0.7-0.8c0.6,0.7,1.5,1.1,2.4,1.1c1.2,0,1.8-0.6,1.8-1.4c0-0.9-0.6-1.2-1.5-1.6l-1.3-0.6
				c-0.8-0.3-1.8-1-1.8-2.3c0-1.4,1.2-2.3,2.8-2.3c1,0,2,0.4,2.6,1.1l-0.6,0.7c-0.5-0.5-1.2-0.8-2-0.8c-1,0-1.6,0.5-1.6,1.3
				c0,0.9,0.8,1.2,1.5,1.5l1.3,0.5c1,0.4,1.8,1,1.8,2.4s-1.2,2.5-3,2.5C203.5,2858.4,202.4,2857.9,201.7,2857.1z"/>
			<path class="st3" d="M209,2853.8c0-2.8,1.5-4.5,3.8-4.5c2.2,0,3.8,1.7,3.8,4.5s-1.5,4.6-3.8,4.6S209,2856.6,209,2853.8z
				 M215.3,2853.8c0-2.2-1-3.6-2.6-3.6s-2.6,1.4-2.6,3.6s1,3.6,2.6,3.6S215.3,2856,215.3,2853.8z"/>
			<path class="st3" d="M221.2,2856.8c0.4,0.4,0.9,0.7,1.5,0.7c1.1,0,2.1-0.9,2.2-3.7c-0.5,0.7-1.3,1.1-2,1.1
				c-1.5,0-2.4-0.9-2.4-2.8c0-1.7,1.2-2.9,2.5-2.9c1.7,0,3,1.4,3,4.2c0,3.6-1.5,4.8-3.2,4.8c-0.9,0-1.6-0.4-2.1-0.9L221.2,2856.8z
				 M224.8,2853c-0.1-1.8-0.8-2.8-1.9-2.8c-0.8,0-1.5,0.8-1.5,2c0,1.2,0.5,2,1.6,2C223.6,2854.1,224.2,2853.8,224.8,2853z"/>
			<path class="st3" d="M227.1,2853.8c0-3.1,1.1-4.5,2.7-4.5c1.7,0,2.7,1.5,2.7,4.5c0,3.1-1.1,4.6-2.7,4.6
				C228.2,2858.4,227.1,2856.9,227.1,2853.8z M231.5,2853.8c0-2.6-0.7-3.6-1.7-3.6s-1.7,1.1-1.7,3.6c0,2.6,0.7,3.7,1.7,3.7
				C230.9,2857.5,231.5,2856.4,231.5,2853.8z"/>
			<path class="st3" d="M233.8,2853.8c0-3.1,1.1-4.5,2.7-4.5c1.7,0,2.7,1.5,2.7,4.5c0,3.1-1.1,4.6-2.7,4.6
				C234.8,2858.4,233.8,2856.9,233.8,2853.8z M238.2,2853.8c0-2.6-0.7-3.6-1.7-3.6s-1.7,1.1-1.7,3.6c0,2.6,0.7,3.7,1.7,3.7
				S238.2,2856.4,238.2,2853.8z"/>
			<path class="st3" d="M240.9,2857.3h2v-6.5h-1.6v-0.7c0.8-0.1,1.3-0.3,1.8-0.6h0.8v7.8h1.8v0.9h-4.8V2857.3z"/>
			<path class="st3" d="M247.1,2859.9c0.7-0.3,1.2-0.9,1.2-1.6h-0.1c-0.4,0-0.8-0.3-0.8-0.8s0.4-0.8,0.8-0.8c0.6,0,0.9,0.5,0.9,1.3
				c0,1.2-0.7,2.1-1.8,2.5L247.1,2859.9z"/>
			<path class="st3" d="M253.7,2849.6h1.1v8.7h-1.1V2849.6z"/>
			<path class="st3" d="M261.3,2855.6h-3.2l-0.9,2.7h-1.1l3-8.7h1.2l3,8.7h-1.2L261.3,2855.6z M261,2854.7l-0.4-1.3
				c-0.3-1-0.6-2-0.9-3l0,0c-0.3,1-0.6,2-0.9,3l-0.4,1.3H261z"/>
			<path class="st3" d="M265.6,2850.5H263v-0.9h6.4v0.9h-2.7v7.8h-1.1L265.6,2850.5L265.6,2850.5z"/>
			<path class="st3" d="M271,2849.6h5.1v0.9h-4v3h3.4v0.9h-3.4v3.9H271V2849.6z"/>
			<path class="st3" d="M280.2,2857.3h2v-6.5h-1.6v-0.7c0.8-0.1,1.3-0.3,1.8-0.6h0.8v7.8h1.8v0.9h-4.8L280.2,2857.3L280.2,2857.3z"
				/>
			<path class="st3" d="M291.1,2851c-0.3-0.4-0.9-0.7-1.4-0.7c-1.2,0-2.2,0.9-2.3,3.7c0.5-0.7,1.3-1.1,2-1.1c1.5,0,2.4,0.9,2.4,2.8
				c0,1.7-1.2,2.9-2.5,2.9c-1.7,0-2.9-1.5-2.9-4.4c0-3.4,1.5-4.8,3.2-4.8c0.9,0,1.6,0.4,2.1,0.9L291.1,2851z M290.9,2855.6
				c0-1.2-0.5-1.9-1.6-1.9c-0.6,0-1.2,0.3-1.8,1.1c0.1,1.8,0.8,2.8,1.9,2.8C290.2,2857.6,290.9,2856.8,290.9,2855.6z"/>
			<path class="st3" d="M293.7,2856.8c0.4,0.4,0.9,0.7,1.5,0.7c1.1,0,2.1-0.9,2.2-3.7c-0.5,0.7-1.3,1.1-2,1.1
				c-1.5,0-2.4-0.9-2.4-2.8c0-1.7,1.2-2.9,2.5-2.9c1.7,0,3,1.4,3,4.2c0,3.6-1.5,4.8-3.2,4.8c-0.9,0-1.6-0.4-2.1-0.9L293.7,2856.8z
				 M297.4,2853c-0.1-1.8-0.8-2.8-1.9-2.8c-0.8,0-1.5,0.8-1.5,2c0,1.2,0.5,2,1.6,2C296.1,2854.1,296.8,2853.8,297.4,2853z"/>
			<path class="st3" d="M305.4,2855.8h-1.2v2.4h-1v-2.4h-3.8v-0.7l3.7-5.5h1.2v5.4h1.2v0.8H305.4z M303.1,2855v-2.7
				c0-0.4,0-1.1,0.1-1.6l0,0c-0.2,0.4-0.5,0.9-0.7,1.3l-2,3H303.1z"/>
			<path class="st3" d="M307,2856.8c0.4,0.4,0.9,0.7,1.5,0.7c1.1,0,2.1-0.9,2.2-3.7c-0.5,0.7-1.3,1.1-2,1.1c-1.5,0-2.4-0.9-2.4-2.8
				c0-1.7,1.2-2.9,2.5-2.9c1.7,0,3,1.4,3,4.2c0,3.6-1.5,4.8-3.2,4.8c-0.9,0-1.6-0.4-2.1-0.9L307,2856.8z M310.7,2853
				c-0.1-1.8-0.8-2.8-1.9-2.8c-0.8,0-1.5,0.8-1.5,2c0,1.2,0.5,2,1.6,2C309.5,2854.1,310.1,2853.8,310.7,2853z"/>
		</g>
		<g class="st2">
			<path class="st3" d="M198.8,2882.7h1.1v8.7h-1.1V2882.7z"/>
			<path class="st3" d="M201.7,2890.3l0.7-0.8c0.6,0.7,1.5,1.1,2.4,1.1c1.2,0,1.8-0.6,1.8-1.4c0-0.9-0.6-1.2-1.5-1.6l-1.3-0.6
				c-0.8-0.3-1.8-1-1.8-2.3c0-1.4,1.2-2.3,2.8-2.3c1,0,2,0.4,2.6,1.1l-0.6,0.7c-0.5-0.5-1.2-0.8-2-0.8c-1,0-1.6,0.5-1.6,1.3
				c0,0.9,0.8,1.2,1.5,1.5l1.3,0.5c1,0.4,1.8,1,1.8,2.4c0,1.4-1.2,2.5-3,2.5C203.5,2891.6,202.4,2891.1,201.7,2890.3z"/>
			<path class="st3" d="M209,2887.1c0-2.8,1.5-4.5,3.8-4.5c2.2,0,3.8,1.7,3.8,4.5s-1.5,4.6-3.8,4.6
				C210.5,2891.6,209,2889.9,209,2887.1z M215.3,2887.1c0-2.2-1-3.6-2.6-3.6s-2.6,1.4-2.6,3.6c0,2.2,1,3.6,2.6,3.6
				S215.3,2889.3,215.3,2887.1z"/>
			<path class="st3" d="M221.2,2890.1c0.4,0.4,0.9,0.7,1.5,0.7c1.1,0,2.1-0.9,2.2-3.7c-0.5,0.7-1.3,1.1-2,1.1
				c-1.5,0-2.4-0.9-2.4-2.8c0-1.7,1.2-2.9,2.5-2.9c1.7,0,3,1.4,3,4.2c0,3.6-1.5,4.8-3.2,4.8c-0.9,0-1.6-0.4-2.1-0.9L221.2,2890.1z
				 M224.8,2886.2c-0.1-1.8-0.8-2.8-1.9-2.8c-0.8,0-1.5,0.8-1.5,2c0,1.2,0.5,2,1.6,2C223.6,2887.3,224.2,2887,224.8,2886.2z"/>
			<path class="st3" d="M227.1,2887.1c0-3.1,1.1-4.5,2.7-4.5c1.7,0,2.7,1.5,2.7,4.5c0,3.1-1.1,4.6-2.7,4.6
				C228.2,2891.6,227.1,2890.1,227.1,2887.1z M231.5,2887.1c0-2.6-0.7-3.6-1.7-3.6s-1.7,1.1-1.7,3.6c0,2.6,0.7,3.7,1.7,3.7
				C230.9,2890.8,231.5,2889.6,231.5,2887.1z"/>
			<path class="st3" d="M233.8,2887.1c0-3.1,1.1-4.5,2.7-4.5c1.7,0,2.7,1.5,2.7,4.5c0,3.1-1.1,4.6-2.7,4.6
				C234.8,2891.6,233.8,2890.1,233.8,2887.1z M238.2,2887.1c0-2.6-0.7-3.6-1.7-3.6s-1.7,1.1-1.7,3.6c0,2.6,0.7,3.7,1.7,3.7
				S238.2,2889.6,238.2,2887.1z"/>
			<path class="st3" d="M240.9,2890.6h2v-6.5h-1.6v-0.7c0.8-0.1,1.3-0.3,1.8-0.6h0.8v7.8h1.8v0.9h-4.8V2890.6z"/>
			<path class="st3" d="M247.1,2893c0.7-0.3,1.2-0.9,1.2-1.6h-0.1c-0.4,0-0.8-0.3-0.8-0.8s0.4-0.8,0.8-0.8c0.6,0,0.9,0.5,0.9,1.3
				c0,1.2-0.7,2.1-1.8,2.5L247.1,2893z"/>
			<path class="st3" d="M253.7,2882.7h1.1v8.7h-1.1V2882.7z"/>
			<path class="st3" d="M261.3,2888.8h-3.2l-0.9,2.7h-1.1l3-8.7h1.2l3,8.7h-1.2L261.3,2888.8z M261,2887.9l-0.4-1.3
				c-0.3-1-0.6-2-0.9-3l0,0c-0.3,1-0.6,2-0.9,3l-0.4,1.3H261z"/>
			<path class="st3" d="M265.6,2883.6H263v-0.9h6.4v0.9h-2.7v7.8h-1.1L265.6,2883.6L265.6,2883.6z"/>
			<path class="st3" d="M271,2882.7h5.1v0.9h-4v3h3.4v0.9h-3.4v3.9H271V2882.7z"/>
			<path class="st3" d="M280.2,2890.6h2v-6.5h-1.6v-0.7c0.8-0.1,1.3-0.3,1.8-0.6h0.8v7.8h1.8v0.9h-4.8L280.2,2890.6L280.2,2890.6z"
				/>
			<path class="st3" d="M291.1,2884.1c-0.3-0.4-0.9-0.7-1.4-0.7c-1.2,0-2.2,0.9-2.3,3.7c0.5-0.7,1.3-1.1,2-1.1
				c1.5,0,2.4,0.9,2.4,2.8c0,1.7-1.2,2.9-2.5,2.9c-1.7,0-2.9-1.5-2.9-4.4c0-3.4,1.5-4.8,3.2-4.8c0.9,0,1.6,0.4,2.1,0.9L291.1,2884.1
				z M290.9,2888.8c0-1.2-0.5-1.9-1.6-1.9c-0.6,0-1.2,0.3-1.8,1.1c0.1,1.8,0.8,2.8,1.9,2.8C290.2,2890.8,290.9,2890,290.9,2888.8z"
				/>
			<path class="st3" d="M293.7,2890.1c0.4,0.4,0.9,0.7,1.5,0.7c1.1,0,2.1-0.9,2.2-3.7c-0.5,0.7-1.3,1.1-2,1.1
				c-1.5,0-2.4-0.9-2.4-2.8c0-1.7,1.2-2.9,2.5-2.9c1.7,0,3,1.4,3,4.2c0,3.6-1.5,4.8-3.2,4.8c-0.9,0-1.6-0.4-2.1-0.9L293.7,2890.1z
				 M297.4,2886.2c-0.1-1.8-0.8-2.8-1.9-2.8c-0.8,0-1.5,0.8-1.5,2c0,1.2,0.5,2,1.6,2C296.1,2887.3,296.8,2887,297.4,2886.2z"/>
			<path class="st3" d="M305.4,2889.1h-1.2v2.4h-1v-2.4h-3.8v-0.7l3.7-5.5h1.2v5.4h1.2v0.8H305.4z M303.1,2888.2v-2.7
				c0-0.4,0-1.1,0.1-1.6l0,0c-0.2,0.4-0.5,0.9-0.7,1.3l-2,3H303.1z"/>
			<path class="st3" d="M307,2890.1c0.4,0.4,0.9,0.7,1.5,0.7c1.1,0,2.1-0.9,2.2-3.7c-0.5,0.7-1.3,1.1-2,1.1c-1.5,0-2.4-0.9-2.4-2.8
				c0-1.7,1.2-2.9,2.5-2.9c1.7,0,3,1.4,3,4.2c0,3.6-1.5,4.8-3.2,4.8c-0.9,0-1.6-0.4-2.1-0.9L307,2890.1z M310.7,2886.2
				c-0.1-1.8-0.8-2.8-1.9-2.8c-0.8,0-1.5,0.8-1.5,2c0,1.2,0.5,2,1.6,2C309.5,2887.3,310.1,2887,310.7,2886.2z"/>
		</g>
		<g class="st2">
			<path class="st3" d="M198.8,2915.9h1.1v8.7h-1.1V2915.9z"/>
			<path class="st3" d="M201.7,2923.5l0.7-0.8c0.6,0.7,1.5,1.1,2.4,1.1c1.2,0,1.8-0.6,1.8-1.4c0-0.9-0.6-1.2-1.5-1.6l-1.3-0.6
				c-0.8-0.3-1.8-1-1.8-2.3c0-1.4,1.2-2.3,2.8-2.3c1,0,2,0.4,2.6,1.1l-0.6,0.7c-0.5-0.5-1.2-0.8-2-0.8c-1,0-1.6,0.5-1.6,1.3
				c0,0.9,0.8,1.2,1.5,1.5l1.3,0.5c1,0.4,1.8,1,1.8,2.4s-1.2,2.5-3,2.5C203.5,2924.8,202.4,2924.3,201.7,2923.5z"/>
			<path class="st3" d="M209,2920.3c0-2.8,1.5-4.5,3.8-4.5c2.2,0,3.8,1.7,3.8,4.5c0,2.8-1.5,4.6-3.8,4.6S209,2923,209,2920.3z
				 M215.3,2920.3c0-2.2-1-3.6-2.6-3.6s-2.6,1.4-2.6,3.6c0,2.2,1,3.6,2.6,3.6S215.3,2922.4,215.3,2920.3z"/>
			<path class="st3" d="M221.2,2923.2c0.4,0.4,0.9,0.7,1.5,0.7c1.1,0,2.1-0.9,2.2-3.7c-0.5,0.7-1.3,1.1-2,1.1
				c-1.5,0-2.4-0.9-2.4-2.8c0-1.7,1.2-2.9,2.5-2.9c1.7,0,3,1.4,3,4.2c0,3.6-1.5,4.8-3.2,4.8c-0.9,0-1.6-0.4-2.1-0.9L221.2,2923.2z
				 M224.8,2919.4c-0.1-1.8-0.8-2.8-1.9-2.8c-0.8,0-1.5,0.8-1.5,2c0,1.2,0.5,2,1.6,2C223.6,2920.6,224.2,2920.2,224.8,2919.4z"/>
			<path class="st3" d="M227.1,2920.3c0-3.1,1.1-4.5,2.7-4.5c1.7,0,2.7,1.5,2.7,4.5c0,3.1-1.1,4.6-2.7,4.6
				C228.2,2924.8,227.1,2923.2,227.1,2920.3z M231.5,2920.3c0-2.6-0.7-3.6-1.7-3.6s-1.7,1.1-1.7,3.6c0,2.6,0.7,3.7,1.7,3.7
				C230.9,2923.9,231.5,2922.8,231.5,2920.3z"/>
			<path class="st3" d="M233.8,2920.3c0-3.1,1.1-4.5,2.7-4.5c1.7,0,2.7,1.5,2.7,4.5c0,3.1-1.1,4.6-2.7,4.6
				C234.8,2924.8,233.8,2923.2,233.8,2920.3z M238.2,2920.3c0-2.6-0.7-3.6-1.7-3.6s-1.7,1.1-1.7,3.6c0,2.6,0.7,3.7,1.7,3.7
				S238.2,2922.8,238.2,2920.3z"/>
			<path class="st3" d="M240.9,2923.7h2v-6.5h-1.6v-0.7c0.8-0.1,1.3-0.3,1.8-0.6h0.8v7.8h1.8v0.9h-4.8V2923.7z"/>
			<path class="st3" d="M247.1,2926.2c0.7-0.3,1.2-0.9,1.2-1.6h-0.1c-0.4,0-0.8-0.3-0.8-0.8s0.4-0.8,0.8-0.8c0.6,0,0.9,0.5,0.9,1.3
				c0,1.2-0.7,2.1-1.8,2.5L247.1,2926.2z"/>
			<path class="st3" d="M253.7,2915.9h1.1v8.7h-1.1V2915.9z"/>
			<path class="st3" d="M261.3,2921.9h-3.2l-0.9,2.7h-1.1l3-8.7h1.2l3,8.7h-1.2L261.3,2921.9z M261,2921l-0.4-1.3
				c-0.3-1-0.6-2-0.9-3l0,0c-0.3,1-0.6,2-0.9,3l-0.4,1.3H261z"/>
			<path class="st3" d="M265.6,2916.9H263v-0.9h6.4v0.9h-2.7v7.8h-1.1L265.6,2916.9L265.6,2916.9z"/>
			<path class="st3" d="M271,2915.9h5.1v0.9h-4v3h3.4v0.9h-3.4v3.9H271V2915.9z"/>
			<path class="st3" d="M280.2,2923.7h2v-6.5h-1.6v-0.7c0.8-0.1,1.3-0.3,1.8-0.6h0.8v7.8h1.8v0.9h-4.8L280.2,2923.7L280.2,2923.7z"
				/>
			<path class="st3" d="M291.1,2917.3c-0.3-0.4-0.9-0.7-1.4-0.7c-1.2,0-2.2,0.9-2.3,3.7c0.5-0.7,1.3-1.1,2-1.1
				c1.5,0,2.4,0.9,2.4,2.8c0,1.7-1.2,2.9-2.5,2.9c-1.7,0-2.9-1.5-2.9-4.4c0-3.4,1.5-4.8,3.2-4.8c0.9,0,1.6,0.4,2.1,0.9L291.1,2917.3
				z M290.9,2921.9c0-1.2-0.5-1.9-1.6-1.9c-0.6,0-1.2,0.3-1.8,1.1c0.1,1.8,0.8,2.8,1.9,2.8C290.2,2923.9,290.9,2923.1,290.9,2921.9z
				"/>
			<path class="st3" d="M293.7,2923.2c0.4,0.4,0.9,0.7,1.5,0.7c1.1,0,2.1-0.9,2.2-3.7c-0.5,0.7-1.3,1.1-2,1.1
				c-1.5,0-2.4-0.9-2.4-2.8c0-1.7,1.2-2.9,2.5-2.9c1.7,0,3,1.4,3,4.2c0,3.6-1.5,4.8-3.2,4.8c-0.9,0-1.6-0.4-2.1-0.9L293.7,2923.2z
				 M297.4,2919.4c-0.1-1.8-0.8-2.8-1.9-2.8c-0.8,0-1.5,0.8-1.5,2c0,1.2,0.5,2,1.6,2C296.1,2920.6,296.8,2920.2,297.4,2919.4z"/>
			<path class="st3" d="M305.4,2922.2h-1.2v2.4h-1v-2.4h-3.8v-0.7l3.7-5.5h1.2v5.4h1.2v0.8H305.4z M303.1,2921.3v-2.7
				c0-0.4,0-1.1,0.1-1.6l0,0c-0.2,0.4-0.5,0.9-0.7,1.3l-2,3H303.1z"/>
			<path class="st3" d="M307,2923.2c0.4,0.4,0.9,0.7,1.5,0.7c1.1,0,2.1-0.9,2.2-3.7c-0.5,0.7-1.3,1.1-2,1.1c-1.5,0-2.4-0.9-2.4-2.8
				c0-1.7,1.2-2.9,2.5-2.9c1.7,0,3,1.4,3,4.2c0,3.6-1.5,4.8-3.2,4.8c-0.9,0-1.6-0.4-2.1-0.9L307,2923.2z M310.7,2919.4
				c-0.1-1.8-0.8-2.8-1.9-2.8c-0.8,0-1.5,0.8-1.5,2c0,1.2,0.5,2,1.6,2C309.5,2920.6,310.1,2920.2,310.7,2919.4z"/>
		</g>
		<g class="st2">
			<path class="st3" d="M200.5,2949.1h1.1v8.7h-1.1V2949.1z"/>
			<path class="st3" d="M203.3,2956.7l0.7-0.8c0.6,0.7,1.5,1.1,2.4,1.1c1.2,0,1.8-0.6,1.8-1.4c0-0.9-0.6-1.2-1.5-1.6l-1.3-0.6
				c-0.8-0.3-1.8-1-1.8-2.3c0-1.4,1.2-2.3,2.8-2.3c1,0,2,0.4,2.6,1.1l-0.6,0.7c-0.5-0.5-1.2-0.8-2-0.8c-1,0-1.6,0.5-1.6,1.3
				c0,0.9,0.8,1.2,1.5,1.5l1.3,0.5c1,0.4,1.8,1,1.8,2.4s-1.2,2.5-3,2.5C205.2,2958,204.1,2957.5,203.3,2956.7z"/>
			<path class="st3" d="M210.6,2953.4c0-2.8,1.5-4.5,3.8-4.5c2.2,0,3.8,1.7,3.8,4.5c0,2.8-1.5,4.6-3.8,4.6
				C212.2,2958,210.6,2956.2,210.6,2953.4z M217,2953.4c0-2.2-1-3.6-2.6-3.6s-2.6,1.4-2.6,3.6s1,3.6,2.6,3.6S217,2955.6,217,2953.4z
				"/>
			<path class="st3" d="M222.8,2956.4c0.4,0.4,0.9,0.7,1.5,0.7c1.1,0,2.1-0.9,2.2-3.7c-0.5,0.7-1.3,1.1-2,1.1
				c-1.5,0-2.4-0.9-2.4-2.8c0-1.7,1.2-2.9,2.5-2.9c1.7,0,3,1.4,3,4.2c0,3.6-1.5,4.8-3.2,4.8c-0.9,0-1.6-0.4-2.1-0.9L222.8,2956.4z
				 M226.5,2952.5c-0.1-1.8-0.8-2.8-1.9-2.8c-0.8,0-1.5,0.8-1.5,2c0,1.2,0.5,2,1.6,2C225.2,2953.7,225.9,2953.4,226.5,2952.5z"/>
			<path class="st3" d="M228.8,2953.4c0-3.1,1.1-4.5,2.7-4.5c1.7,0,2.7,1.5,2.7,4.5c0,3.1-1.1,4.6-2.7,4.6
				C229.8,2958,228.8,2956.5,228.8,2953.4z M233.2,2953.4c0-2.6-0.7-3.6-1.7-3.6s-1.7,1.1-1.7,3.6c0,2.6,0.7,3.7,1.7,3.7
				S233.2,2956,233.2,2953.4z"/>
			<path class="st3" d="M235.4,2953.4c0-3.1,1.1-4.5,2.7-4.5c1.7,0,2.7,1.5,2.7,4.5c0,3.1-1.1,4.6-2.7,4.6
				S235.4,2956.5,235.4,2953.4z M239.8,2953.4c0-2.6-0.7-3.6-1.7-3.6s-1.7,1.1-1.7,3.6c0,2.6,0.7,3.7,1.7,3.7
				C239.2,2957.1,239.8,2956,239.8,2953.4z"/>
			<path class="st3" d="M242.6,2956.9h2v-6.5H243v-0.7c0.8-0.1,1.3-0.3,1.8-0.6h0.8v7.8h1.8v0.9h-4.8V2956.9z"/>
			<path class="st3" d="M248.8,2959.4c0.7-0.3,1.2-0.9,1.2-1.6h-0.1c-0.4,0-0.8-0.3-0.8-0.8s0.4-0.8,0.8-0.8c0.6,0,0.9,0.5,0.9,1.3
				c0,1.2-0.7,2.1-1.8,2.5L248.8,2959.4z"/>
			<path class="st3" d="M255.4,2949.1h1.1v4.4l0,0l3.7-4.4h1.2l-2.7,3.3l3.2,5.3h-1.2l-2.6-4.6l-1.5,1.8v2.8h-1.1v-8.6H255.4z"/>
			<path class="st3" d="M262.4,2956.7l0.7-0.8c0.6,0.7,1.5,1.1,2.4,1.1c1.2,0,1.8-0.6,1.8-1.4c0-0.9-0.6-1.2-1.5-1.6l-1.3-0.6
				c-0.8-0.3-1.8-1-1.8-2.3c0-1.4,1.2-2.3,2.8-2.3c1,0,2,0.4,2.6,1.1l-0.6,0.7c-0.5-0.5-1.2-0.8-2-0.8c-1,0-1.6,0.5-1.6,1.3
				c0,0.9,0.8,1.2,1.5,1.5l1.3,0.5c1,0.4,1.8,1,1.8,2.4s-1.2,2.5-3,2.5C264.2,2958,263.2,2957.5,262.4,2956.7z"/>
			<path class="st3" d="M272.9,2949.1h1.3l1.7,4.7c0.2,0.6,0.4,1.2,0.6,1.8h0.1c0.2-0.6,0.4-1.2,0.6-1.8l1.7-4.7h1.3v8.7h-1v-4.8
				c0-0.8,0.1-1.8,0.1-2.6l0,0l-0.7,2l-1.7,4.6h-0.7l-1.7-4.6l-0.7-2l0,0c0,0.8,0.1,1.8,0.1,2.6v4.8h-1L272.9,2949.1L272.9,2949.1z"
				/>
			<path class="st3" d="M285.2,2956.9h2v-6.5h-1.6v-0.7c0.8-0.1,1.3-0.3,1.8-0.6h0.8v7.8h1.8v0.9h-4.8L285.2,2956.9L285.2,2956.9z"
				/>
			<path class="st3" d="M291.8,2956.9h2v-6.5h-1.6v-0.7c0.8-0.1,1.3-0.3,1.8-0.6h0.8v7.8h1.8v0.9h-4.8L291.8,2956.9L291.8,2956.9z"
				/>
			<path class="st3" d="M298.5,2956.9h2v-6.5h-1.6v-0.7c0.8-0.1,1.3-0.3,1.8-0.6h0.8v7.8h1.8v0.9h-4.8L298.5,2956.9L298.5,2956.9z"
				/>
			<path class="st3" d="M304.6,2957.2c2.8-2.4,4-4.2,4-5.6c0-1-0.5-1.7-1.6-1.7c-0.7,0-1.3,0.4-1.8,1l-0.6-0.6
				c0.7-0.8,1.5-1.3,2.6-1.3c1.6,0,2.6,1,2.6,2.6c0,1.8-1.4,3.5-3.4,5.4c0.5,0,1-0.1,1.4-0.1h2.4v0.9h-5.5v-0.6L304.6,2957.2
				L304.6,2957.2z"/>
		</g>
		<line id="선_381" class="st1" x1="148.8" y1="2770.8" x2="148.8" y2="3002.7"/>
		<line id="선_348-7" class="st4" x1="20.2" y1="3002.6" x2="354.8" y2="3002.6"/>
		<g>
			<g class="st2">
				<path class="st3" d="M230.7,2784.8c0,2,1.1,4,2.8,4.8l-0.7,1c-1.2-0.6-2.2-1.8-2.7-3.2c-0.5,1.6-1.5,2.9-2.8,3.5l-0.7-1
					c1.7-0.8,2.9-2.9,2.9-4.8v-1.8h1.2V2784.8z M235.6,2782.1v10.8h-1.2v-10.8H235.6z"/>
				<path class="st3" d="M247.5,2790.4v1h-9.8v-1H247.5z M246.6,2788.3c-1.8-0.4-3.3-1.5-4-3c-0.7,1.5-2.2,2.6-4,3l-0.5-1
					c2.1-0.4,3.9-2.1,3.9-3.8v-0.8h1.3v0.8c0,1.7,1.7,3.4,3.9,3.8L246.6,2788.3z"/>
				<path class="st3" d="M253.9,2787.7c-1.2,0.2-2.3,0.3-3.9,0.3h-0.7v-5.2h4.1v1h-2.9v1.1h2.5v0.9h-2.5v1.2c1.4,0,2.3-0.1,3.3-0.3
					L253.9,2787.7z M250.7,2789h7.2v3.7h-7.2V2789z M251.9,2791.7h4.8v-1.8h-4.8L251.9,2791.7L251.9,2791.7z M254.6,2785.8h-1.3v-1
					h1.3v-2.5h1.2v6.1h-1.2V2785.8z M257.9,2782.1v6.4h-1.2v-6.4H257.9z"/>
				<path class="st3" d="M265.6,2788.1c-1.6,0-2.9-1.1-2.9-2.7c0-1.6,1.2-2.7,2.9-2.7c1.6,0,2.9,1.1,2.9,2.7
					C268.4,2787,267.2,2788.1,265.6,2788.1z M265.6,2787.1c0.9,0,1.7-0.7,1.7-1.6c0-1-0.7-1.6-1.7-1.6s-1.7,0.6-1.7,1.6
					C263.9,2786.4,264.6,2787.1,265.6,2787.1z M271.7,2791.6v1h-7.4v-3.5h1.2v2.5H271.7z M271.4,2789.9h-1.2v-7.8h1.2V2789.9z"/>
				<path class="st3" d="M283.3,2787.1v1h-9.8v-1H283.3z M274,2785.7c2-0.2,3.4-1.1,3.6-2.1h-3.2v-1h8v1h-3.2c0.2,1,1.6,1.8,3.6,2.1
					l-0.4,1c-1.9-0.2-3.4-1-4-2.1c-0.6,1.1-2.1,1.9-4,2.1L274,2785.7z M282.1,2790.8c0,1.3-1.4,2-3.7,2c-2.3,0-3.7-0.7-3.7-2
					c0-1.3,1.4-2,3.7-2C280.7,2788.9,282.1,2789.6,282.1,2790.8z M280.9,2790.8c0-0.7-0.9-1-2.5-1s-2.5,0.3-2.5,1c0,0.7,0.9,1,2.5,1
					S280.9,2791.5,280.9,2790.8z"/>
			</g>
		</g>
		<g class="st2">
			<path class="st3" d="M231.7,2982.3h1.1v8.7h-1.1V2982.3z"/>
			<path class="st3" d="M234.6,2989.8l0.7-0.8c0.6,0.7,1.5,1.1,2.4,1.1c1.2,0,1.8-0.6,1.8-1.4c0-0.9-0.6-1.2-1.5-1.6l-1.3-0.6
				c-0.8-0.3-1.8-1-1.8-2.3c0-1.4,1.2-2.3,2.8-2.3c1,0,2,0.4,2.6,1.1l-0.6,0.7c-0.5-0.5-1.2-0.8-2-0.8c-1,0-1.6,0.5-1.6,1.3
				c0,0.9,0.8,1.2,1.5,1.5l1.3,0.5c1,0.4,1.8,1,1.8,2.4s-1.2,2.5-3,2.5C236.5,2991.1,235.4,2990.6,234.6,2989.8z"/>
			<path class="st3" d="M241.9,2986.6c0-2.8,1.5-4.5,3.8-4.5c2.2,0,3.8,1.7,3.8,4.5s-1.5,4.6-3.8,4.6
				C243.5,2991.1,241.9,2989.4,241.9,2986.6z M248.3,2986.6c0-2.2-1-3.6-2.6-3.6s-2.6,1.4-2.6,3.6s1,3.6,2.6,3.6
				C247.2,2990.2,248.3,2988.7,248.3,2986.6z"/>
			<path class="st3" d="M254.1,2989.5c0.4,0.4,0.9,0.7,1.5,0.7c1.1,0,2.1-0.9,2.2-3.7c-0.5,0.7-1.3,1.1-2,1.1
				c-1.5,0-2.4-0.9-2.4-2.8c0-1.7,1.2-2.9,2.5-2.9c1.7,0,3,1.4,3,4.2c0,3.6-1.5,4.8-3.2,4.8c-0.9,0-1.6-0.4-2.1-0.9L254.1,2989.5z
				 M257.8,2985.7c-0.1-1.8-0.8-2.8-1.9-2.8c-0.8,0-1.5,0.8-1.5,2c0,1.2,0.5,2,1.6,2C256.5,2986.9,257.2,2986.6,257.8,2985.7z"/>
			<path class="st3" d="M260.1,2986.6c0-3.1,1.1-4.5,2.7-4.5c1.7,0,2.7,1.5,2.7,4.5c0,3.1-1.1,4.6-2.7,4.6
				C261.1,2991.1,260.1,2989.6,260.1,2986.6z M264.5,2986.6c0-2.6-0.7-3.6-1.7-3.6s-1.7,1.1-1.7,3.6c0,2.6,0.7,3.7,1.7,3.7
				S264.5,2989.1,264.5,2986.6z"/>
			<path class="st3" d="M266.7,2986.6c0-3.1,1.1-4.5,2.7-4.5c1.7,0,2.7,1.5,2.7,4.5c0,3.1-1.1,4.6-2.7,4.6
				C267.8,2991.1,266.7,2989.6,266.7,2986.6z M271.1,2986.6c0-2.6-0.7-3.6-1.7-3.6s-1.7,1.1-1.7,3.6c0,2.6,0.7,3.7,1.7,3.7
				C270.5,2990.2,271.1,2989.1,271.1,2986.6z"/>
			<path class="st3" d="M273.9,2990.1h2v-6.5h-1.6v-0.7c0.8-0.1,1.3-0.3,1.8-0.6h0.8v7.8h1.8v0.9h-4.8L273.9,2990.1L273.9,2990.1z"
				/>
		</g>
		<path id="패스_4994" class="st4" d="M20.2,2770.8h334.7"/>
	</g>
</g>
</svg>
