<?xml version="1.0" encoding="utf-8"?>
<!-- Generator: Adobe Illustrator 25.1.0, SVG Export Plug-In . SVG Version: 6.00 Build 0)  -->
<svg version="1.1" id="레이어_1" xmlns="http://www.w3.org/2000/svg" xmlns:xlink="http://www.w3.org/1999/xlink" x="0px"
	 y="0px" viewBox="0 0 335 343.5" style="enable-background:new 0 0 335 343.5;" xml:space="preserve">
<style type="text/css">
	.st0{enable-background:new    ;}
	.st1{fill:#DF1C2F;}
	.st2{fill:#F5F5F5;}
	.st3{fill:none;stroke:#DF1C2F;stroke-linecap:square;stroke-dasharray:3.5;}
	.st4{fill:none;stroke:#BCBEC1;stroke-width:1.018;}
	.st5{fill:none;stroke:#BCBEC1;}
	.st6{fill:none;stroke:#707070;}
	.st7{fill:#95989F;}
	.st8{fill:#6E6E6E;}
</style>
<g id="그룹_5702" transform="translate(-20 -756.7)">
	<g class="st0">
		<path class="st1" d="M27.7,766.5c0,2.8-1.4,4.6-3.4,4.6c-1.9,0-3.4-1.8-3.4-4.6c0-2.8,1.4-4.6,3.4-4.6
			C26.3,761.9,27.7,763.7,27.7,766.5z M22.7,766.5c0,1.9,0.7,2.9,1.6,2.9s1.6-1,1.6-2.9c0-1.9-0.7-2.9-1.6-2.9
			S22.7,764.6,22.7,766.5z M31.3,761v12.9h-1.8V761H31.3z"/>
		<path class="st1" d="M45.2,769.6h-2.6v4.4h-1.8v-4.4H38v4.4h-1.8v-4.4h-2.7v-1.5h11.7V769.6z M44,767.1c-2.2-0.4-3.9-1.4-4.7-2.8
			c-0.8,1.4-2.5,2.5-4.7,2.8l-0.7-1.5c2.9-0.4,4.4-2.1,4.4-3.6v-0.6h2v0.6c0,1.5,1.5,3.2,4.4,3.6L44,767.1z"/>
		<path class="st1" d="M56.3,768.7c-1.3-0.5-2.3-1.4-2.8-2.6c-0.5,1.3-1.5,2.4-3,2.9l-1-1.4c2.1-0.7,3-2.5,3-4.3v-1.4h1.9v1.4
			c0,1.7,0.9,3.3,2.9,4L56.3,768.7z M60.6,772.2v1.5h-8.8v-4.1h1.8v2.6H60.6z M58.5,765.2h-2.4v-1.5h2.4V761h1.8v9.5h-1.8V765.2z"/>
		<path class="st1" d="M69.3,768.3c-1.4-0.5-2.4-1.4-2.9-2.5c-0.6,1.3-1.6,2.4-3.1,2.9l-0.9-1.5c2-0.7,3-2.4,3-4h-2.5v-1.5h6.9v1.5
			h-2.5c0.1,1.5,1,3,2.9,3.6L69.3,768.3z M73.3,771.4c0,1.6-1.7,2.5-4.4,2.5c-2.7,0-4.4-0.9-4.4-2.5c0-1.6,1.7-2.5,4.4-2.5
			C71.6,769,73.3,769.9,73.3,771.4z M71.4,771.4c0-0.7-0.9-1.1-2.6-1.1c-1.7,0-2.6,0.3-2.6,1.1s0.9,1.1,2.6,1.1
			C70.5,772.5,71.4,772.2,71.4,771.4z M71.4,764.1V761h1.8v7.7h-1.8v-3.1h-1.9v-1.5H71.4z"/>
		<path class="st1" d="M82.2,762.1h1.7v8.7h-5.1v-8.7h1.7v2.9h1.7V762.1z M82.2,766.5h-1.7v2.9h1.7V766.5z M89.5,761v12.9h-1.8v-6.5
			h-1.1v5.9H85v-12.1h1.7v4.7h1.1V761H89.5z"/>
		<path class="st1" d="M97.6,764.5c-0.8,2-2.6,3.4-5.4,4.2l-0.7-1.5c2.9-0.8,4.4-2.2,4.6-3.9h-3.9v-1.5h5.9c0,0.4,0,0.8-0.1,1.2h2.3
			v-2h1.8v7.4h-1.8v-1.2h-2.8v-1.5h2.8v-1.2H97.6z M102.2,771.2c0,1.6-1.7,2.6-4.3,2.6c-2.6,0-4.4-1-4.4-2.6c0-1.6,1.7-2.6,4.4-2.6
			C100.5,768.6,102.2,769.6,102.2,771.2z M100.4,771.2c0-0.8-0.9-1.2-2.5-1.2c-1.6,0-2.5,0.4-2.5,1.2c0,0.8,0.9,1.2,2.5,1.2
			C99.5,772.4,100.4,772,100.4,771.2z"/>
	</g>
	<g id="그룹_5680" transform="translate(-1.116 -28.472)">
		<g id="그룹_5679" transform="translate(39.646 814.703)">
			<rect id="사각형_510" x="0.1" y="0" class="st2" width="316.3" height="313.3"/>
			<rect id="사각형_511" x="61" y="1" class="st3" width="255" height="259.5"/>
			<path id="패스_2432" class="st4" d="M316.5,241.4H0.1"/>
			<path id="패스_2433" class="st5" d="M83.2,1.2V313"/>
			<path id="패스_4977" class="st6" d="M0,0.3v313.1h316.5"/>
		</g>
		<circle id="타원_1" class="st7" cx="160.9" cy="920.7" r="8.6"/>
		<circle id="타원_2" class="st7" cx="196.4" cy="981.5" r="8.6"/>
		<circle id="타원_3" class="st7" cx="240" cy="1000.7" r="8.6"/>
		<circle id="타원_4" class="st7" cx="322.2" cy="993.6" r="8.6"/>
		<circle id="타원_5" class="st1" cx="310" cy="853.7" r="8.6"/>
		<circle id="타원_6" class="st1" cx="212.7" cy="1031.2" r="8.6"/>
		<g class="st0">
			<path class="st1" d="M233.6,1024.8c-0.5,0.6-1.3,0.9-2.2,0.9c-1.6,0-2.8-1.2-2.8-2.7c0-1.6,1.2-2.7,2.8-2.7
				c0.9,0,1.7,0.4,2.2,0.9h2.6v-1.6h1.2v8h-1.2v-2.7H233.6z M231.4,1024.6c0.9,0,1.6-0.7,1.6-1.7c0-1-0.7-1.7-1.6-1.7
				c-0.9,0-1.7,0.7-1.7,1.7C229.8,1024,230.5,1024.6,231.4,1024.6z M237.7,1029.2v1h-7.3v-3.5h1.2v2.4H237.7z M234.1,1022.2
				c0.1,0.3,0.1,0.5,0.1,0.8s0,0.6-0.1,0.8h2.1v-1.6H234.1z"/>
			<path class="st1" d="M249.3,1025.9H245v4.5h-1.2v-4.5h-4.2v-1h7c0.3-1.5,0.3-2.6,0.3-3.6h-6.2v-1h7.4v0.9c0,1,0,2.1-0.3,3.7h1.5
				V1025.9z"/>
			<path class="st1" d="M255.2,1020.9c0,2.9-0.9,5.4-4,7.2l-0.7-0.9c2.3-1.4,3.3-3.1,3.5-5.3h-3v-1H255.2z M259.8,1019.5v10.8h-1.2
				v-5.6h-1.2v5.1h-1.2v-10h1.2v3.9h1.2v-4.2H259.8z"/>
			<path class="st1" d="M267.1,1024.7H262v-4.7h1.2v1.4h2.7v-1.4h1.2V1024.7z M264.3,1029.3h6.1v1h-7.3v-2.8h5.7v-0.9h-5.8v-1h7v2.8
				h-5.8V1029.3z M265.9,1022.4h-2.7v1.4h2.7V1022.4z M271.6,1021.8v1H270v2.3h-1.2v-5.6h1.2v2.2H271.6z"/>
			<path class="st1" d="M284.3,1019.5v6.4h-1.2v-1.5h-2.6c-0.5,0.6-1.3,0.9-2.2,0.9c-1.6,0-2.8-1.1-2.8-2.6c0-1.5,1.2-2.6,2.8-2.6
				c0.9,0,1.7,0.4,2.2,0.9h2.6v-1.5L284.3,1019.5z M279.9,1022.8c0-0.9-0.7-1.6-1.6-1.6s-1.6,0.6-1.6,1.6c0,0.9,0.7,1.6,1.6,1.6
				S279.9,1023.7,279.9,1022.8z M277,1026.5h7.3v3.9h-1.2v-2.9H277V1026.5z M283.1,1023.5v-1.4h-2c0,0.2,0.1,0.4,0.1,0.7
				c0,0.2,0,0.5-0.1,0.7H283.1z"/>
			<path class="st1" d="M292.8,1025.2c-1.6,0.3-3,0.3-5.1,0.3h-0.9v-3.2h3.7v-1.2h-3.7v-1h4.9v3.1H288v1.2c1.9,0,3.2-0.1,4.7-0.3
				L292.8,1025.2z M294.9,1028.4c0,1.3-1.4,2-3.6,2c-2.2,0-3.6-0.7-3.6-2c0-1.3,1.4-2,3.6-2C293.6,1026.3,294.9,1027.1,294.9,1028.4
				z M293.7,1028.4c0-0.7-0.9-1.1-2.4-1.1c-1.5,0-2.4,0.4-2.4,1.1c0,0.7,0.9,1.1,2.4,1.1C292.8,1029.4,293.7,1029.1,293.7,1028.4z
				 M294.8,1022.1v1.3h1.5v1h-1.5v1.7h-1.2v-6.6h1.2v1.6h1.5v1H294.8z"/>
			<path class="st1" d="M306.9,1026.2c-2.3,0.4-4.8,0.4-6.7,0.4l-0.1-1c0.8,0,1.8,0,2.8,0v-0.7c-1.2-0.1-2-0.7-2-1.6
				c0-1,1-1.6,2.6-1.6c1.6,0,2.6,0.6,2.6,1.6c0,0.9-0.7,1.4-1.9,1.6v0.7c0.9,0,1.9-0.1,2.8-0.2L306.9,1026.2z M306.5,1021.4h-6.2
				v-0.9h2.5v-1h1.2v1h2.5V1021.4z M301.4,1027.3h7.2v3h-1.2v-2.1h-6V1027.3z M303.4,1024.1c0.9,0,1.4-0.3,1.4-0.8
				c0-0.5-0.6-0.8-1.4-0.8s-1.4,0.3-1.4,0.8C302,1023.8,302.5,1024.1,303.4,1024.1z M310.1,1023.8h-1.5v3.1h-1.2v-7.3h1.2v3.2h1.5
				V1023.8z"/>
			<path class="st1" d="M312.7,1026.8c1.2,0,2.2-0.1,3.3-0.3l0.1,1c-1.3,0.3-2.4,0.3-3.9,0.3h-0.7v-7h4v1h-2.8V1026.8z
				 M320.4,1019.5v10.8h-1.2v-5.5h-1.3v5h-1.2v-10.1h1.2v4.1h1.3v-4.3H320.4z"/>
			<path class="st1" d="M330.6,1024.7h-5.1v-4.5h5.1V1024.7z M330.9,1027.3c0.1,0.9,1.5,1.9,3.5,2.1l-0.4,0.9
				c-1.7-0.2-3.1-0.9-3.7-1.8c-0.7,0.9-2,1.6-3.8,1.8l-0.4-0.9c2-0.2,3.4-1.2,3.5-2.1h-3.1v-0.9h3.1v-1h1.3v1h3.1v0.9H330.9z
				 M329.4,1021.2h-2.7v2.5h2.7V1021.2z M333.8,1025.7h-1.2v-6.2h1.2V1025.7z"/>
		</g>
		<g class="st0">
			<path class="st1" d="M234.5,1038.6h-6v-1h2.4v-1.1h1.2v1.1h2.3V1038.6z M231.5,1043.1c-1.4,0-2.5-0.8-2.5-2.1c0-1.2,1-2,2.5-2
				c1.5,0,2.5,0.8,2.5,2C234,1042.3,233,1043.1,231.5,1043.1z M230.1,1044h7.3v3.4h-1.2v-2.4h-6.1V1044z M231.5,1042.2
				c0.8,0,1.3-0.4,1.3-1.1c0-0.7-0.6-1.1-1.3-1.1c-0.8,0-1.3,0.4-1.3,1.1C230.2,1041.8,230.8,1042.2,231.5,1042.2z M237.4,1036.5
				v6.9h-1.2v-1.3h-1.7v-1h1.7v-1.1h-1.6v-1h1.6v-2.6H237.4z"/>
			<path class="st1" d="M245.4,1042.8c-1.2-0.5-2.1-1.3-2.6-2.5c-0.5,1.2-1.4,2.2-2.7,2.7l-0.6-1c1.7-0.6,2.7-2.2,2.7-3.8v-1.1h1.3
				v1.1c0,1.5,0.9,3,2.6,3.6L245.4,1042.8z M248.7,1046.2v1h-7.4v-3.4h1.2v2.4H248.7z M248.4,1044.5h-1.2v-7.9h1.2V1044.5z"/>
			<path class="st1" d="M258.5,1039.4c-0.7,1.7-2.3,2.9-4.6,3.6l-0.5-1c2.5-0.7,3.9-2,4.2-3.7h-3.6v-1h4.9c0,0.4,0,0.7-0.1,1.1h2.2
				v-1.9h1.2v6.4H261v-1.2h-2.6v-1h2.6v-1.2H258.5z M262.3,1045.2c0,1.3-1.4,2.1-3.6,2.1c-2.2,0-3.6-0.8-3.6-2.1
				c0-1.3,1.4-2.1,3.6-2.1C260.9,1043,262.3,1043.9,262.3,1045.2z M261.1,1045.2c0-0.7-0.9-1.2-2.4-1.2c-1.5,0-2.4,0.4-2.4,1.2
				c0,0.8,0.9,1.2,2.4,1.2C260.1,1046.4,261.1,1045.9,261.1,1045.2z"/>
			<path class="st1" d="M268.9,1042.6c-0.9-0.4-1.6-1-1.9-1.9c-0.4,0.9-1.1,1.8-2.1,2.2l-0.6-1c1.4-0.6,2.1-1.9,2.1-3.2v-0.3h-1.9
				v-1h4.8v1h-1.8v0.3c0,1.3,0.6,2.4,2,2.9L268.9,1042.6z M273.5,1045.4c0,1.2-1.4,2-3.7,2c-2.3,0-3.7-0.8-3.7-2c0-1.3,1.4-2,3.7-2
				C272.1,1043.4,273.5,1044.1,273.5,1045.4z M272.3,1045.4c0-0.7-0.9-1.1-2.4-1.1c-1.5,0-2.4,0.4-2.4,1.1c0,0.7,0.9,1,2.4,1
				C271.4,1046.4,272.3,1046,272.3,1045.4z M271.2,1042.8H270v-6.1h1.2v2.6h1.1v-2.7h1.2v6.6h-1.2v-2.8h-1.1V1042.8z"/>
			<path class="st1" d="M281.1,1042.6c-1.3,0.2-2.4,0.3-4.5,0.3h-0.8v-3.4h3.5v-1.3h-3.5v-1h4.7v3.2H277v1.4c1.8,0,2.8,0,4-0.3
				L281.1,1042.6z M277,1043.8h7.3v3.6h-1.2v-2.6H277V1043.8z M284.3,1036.5v6.7h-1.2v-1.8h-1.9v-1h1.9v-1.3h-1.9v-1h1.9v-1.6H284.3
				z"/>
			<path class="st1" d="M294.6,1037.3c0,2.8-1.9,4.8-5,5.8l-0.5-1c2.5-0.7,4-2.1,4.2-3.8h-3.7v-1H294.6z M297.6,1045.2
				c0,1.3-1.4,2.1-3.6,2.1c-2.2,0-3.6-0.8-3.6-2.1c0-1.3,1.4-2.2,3.6-2.2C296.2,1043.1,297.6,1043.9,297.6,1045.2z M296.4,1045.2
				c0-0.8-0.9-1.2-2.4-1.2c-1.4,0-2.4,0.4-2.4,1.2c0,0.7,0.9,1.2,2.4,1.2C295.5,1046.4,296.4,1046,296.4,1045.2z M299.1,1039.2v1
				h-1.5v2.7h-1.2v-6.4h1.2v2.7H299.1z"/>
			<path class="st1" d="M304,1044.3c0.9,0,1.8-0.1,2.7-0.2l0.1,0.9c-2.3,0.4-4.8,0.4-6.7,0.4l-0.2-1c0.8,0,1.8,0,2.8,0v-1.1
				c-1.2-0.2-2-0.9-2-2c0-1.2,1.1-2,2.6-2c1.5,0,2.6,0.8,2.6,2c0,1-0.8,1.8-2,2V1044.3z M306.6,1038.8h-6.4v-1h2.6v-1.2h1.2v1.2h2.6
				V1038.8z M303.4,1042.4c0.9,0,1.4-0.4,1.4-1.1c0-0.7-0.6-1.1-1.4-1.1s-1.4,0.4-1.4,1.1C302,1042,302.6,1042.4,303.4,1042.4z
				 M310.1,1042.1h-1.5v5.3h-1.2v-10.8h1.2v4.5h1.5V1042.1z"/>
		</g>
		<g class="st0">
			<path class="st1" d="M195.9,851.6c-0.7,1.7-2.3,2.9-4.6,3.6l-0.5-1c2.5-0.7,3.9-2,4.2-3.7h-3.6v-1h4.9c0,0.4,0,0.7-0.1,1.1h2.2
				v-1.9h1.2v6.4h-1.2v-1.2h-2.6v-1h2.6v-1.2H195.9z M199.7,857.3c0,1.3-1.4,2.1-3.6,2.1c-2.2,0-3.6-0.8-3.6-2.1
				c0-1.3,1.4-2.1,3.6-2.1C198.3,855.2,199.7,856,199.7,857.3z M198.5,857.3c0-0.7-0.9-1.2-2.4-1.2c-1.5,0-2.4,0.4-2.4,1.2
				c0,0.8,0.9,1.2,2.4,1.2C197.6,858.5,198.5,858.1,198.5,857.3z"/>
			<path class="st1" d="M205,851.7c0,1.8,0.7,3.7,2.2,4.6l-0.7,0.9c-1-0.6-1.7-1.7-2.1-2.9c-0.4,1.4-1.1,2.5-2.1,3.2l-0.7-0.9
				c1.5-1,2.3-2.9,2.3-4.8v-0.8h-1.9v-1h4.9v1H205V851.7z M207.6,848.9h1.2V859h-1.2v-5.5H206v-1h1.6V848.9z M211,848.7v10.8h-1.2
				v-10.8H211z"/>
			<path class="st1" d="M218.6,854.8c-1.2-0.4-2.1-1.3-2.5-2.3c-0.5,1.2-1.4,2.1-2.7,2.5l-0.6-1c1.7-0.6,2.7-2,2.7-3.5v-0.2h-2.3v-1
				h5.8v1h-2.3v0.2c0,1.3,0.9,2.7,2.5,3.3L218.6,854.8z M214.4,855.7h7.3v3.8h-1.2v-2.8h-6.1V855.7z M221.7,848.7v6.5h-1.2v-2.7
				h-1.9v-1h1.9v-2.7H221.7z"/>
			<path class="st1" d="M236.3,855.7H232v3.8h-1.2v-3.8h-4.2v-1h9.8V855.7z M235.4,853.7c-1.8-0.3-3.3-1.2-4-2.4
				c-0.7,1.3-2.2,2.2-4,2.4l-0.5-1c2.2-0.3,3.8-1.6,3.8-3.1v-0.6h1.3v0.6c0,1.4,1.6,2.8,3.8,3.1L235.4,853.7z"/>
			<path class="st1" d="M243.5,851.9c0,1.5-1.2,2.6-2.9,2.6c-1.7,0-2.9-1.1-2.9-2.6s1.2-2.6,2.9-2.6
				C242.3,849.3,243.5,850.4,243.5,851.9z M239,851.9c0,0.9,0.7,1.6,1.7,1.6c1,0,1.7-0.6,1.7-1.6c0-0.9-0.7-1.6-1.7-1.6
				C239.7,850.4,239,851,239,851.9z M246.5,855.7v3.9h-1.2v-2.9h-6.1v-1H246.5z M246.5,848.7v6.4h-1.2v-6.4H246.5z"/>
			<path class="st1" d="M254.4,854.8c-1.2-0.3-2.1-1.1-2.6-2c-0.5,1.1-1.4,1.9-2.7,2.3l-0.6-1c1.7-0.5,2.6-1.8,2.6-3.1v-0.1h-2.3v-1
				h2.3v-1.3h1.2v1.3h2.3v1h-2.3v0.1c0,1.2,0.9,2.4,2.6,2.9L254.4,854.8z M257.2,857.5c0,1.3-1.4,2-3.6,2s-3.6-0.7-3.6-2
				c0-1.3,1.4-2,3.6-2S257.2,856.3,257.2,857.5z M255.9,857.5c0-0.7-0.9-1-2.4-1s-2.4,0.4-2.4,1c0,0.7,0.9,1,2.4,1
				S255.9,858.2,255.9,857.5z M258.6,851.4v1H257v2.9h-1.2v-6.6h1.2v2.7H258.6z"/>
			<path class="st1" d="M265.1,854.3v0.8h3.1v2.5H262v0.8h6.5v0.9h-7.7v-2.6h6.2v-0.8h-6.2v-0.9h3.1v-0.8h-4.3v-0.9h9.8v0.9H265.1z
				 M260.1,852.1c2.1-0.1,3.5-0.7,3.7-1.6h-3.2v-0.9h3.3v-0.9h1.2v0.9h3.3v0.9h-3.2c0.2,0.9,1.6,1.5,3.7,1.6l-0.3,0.9
				c-1.9-0.1-3.4-0.7-4.1-1.6c-0.7,0.9-2.1,1.4-4.1,1.6L260.1,852.1z"/>
			<path class="st1" d="M278.9,849.5c0,2.8-1.9,4.8-5,5.8l-0.5-1c2.5-0.7,4-2.1,4.2-3.8h-3.7v-1H278.9z M281.9,857.4
				c0,1.3-1.4,2.1-3.6,2.1c-2.2,0-3.6-0.8-3.6-2.1c0-1.3,1.4-2.2,3.6-2.2C280.5,855.2,281.9,856,281.9,857.4z M280.7,857.4
				c0-0.8-0.9-1.2-2.4-1.2c-1.4,0-2.4,0.4-2.4,1.2c0,0.7,0.9,1.2,2.4,1.2C279.8,858.6,280.7,858.1,280.7,857.4z M283.4,851.4v1h-1.5
				v2.7h-1.2v-6.4h1.2v2.7H283.4z"/>
			<path class="st1" d="M288.3,856.5c0.9,0,1.8-0.1,2.7-0.2l0.1,0.9c-2.3,0.4-4.8,0.4-6.7,0.4l-0.2-1c0.8,0,1.8,0,2.8,0v-1.1
				c-1.2-0.2-2-0.9-2-2c0-1.2,1.1-2,2.6-2c1.5,0,2.6,0.8,2.6,2c0,1-0.8,1.8-2,2V856.5z M290.9,850.9h-6.4v-1h2.6v-1.2h1.2v1.2h2.6
				V850.9z M287.7,854.6c0.9,0,1.4-0.4,1.4-1.1c0-0.7-0.6-1.1-1.4-1.1s-1.4,0.4-1.4,1.1C286.3,854.2,286.9,854.6,287.7,854.6z
				 M294.4,854.2h-1.5v5.3h-1.2v-10.8h1.2v4.5h1.5V854.2z"/>
		</g>
		<g class="st0">
			<path class="st8" d="M256.9,1110.4c0,2.3-1.1,3.8-2.7,3.8c-1.6,0-2.7-1.5-2.7-3.8s1.1-3.8,2.7-3.8
				C255.7,1106.6,256.9,1108.1,256.9,1110.4z M252.3,1110.4c0,1.8,0.7,2.9,1.8,2.9c1,0,1.8-1.1,1.8-2.9c0-1.7-0.7-2.9-1.8-2.9
				C253.1,1107.5,252.3,1108.6,252.3,1110.4z M259.8,1105.8v10.8h-1v-10.8H259.8z"/>
			<path class="st8" d="M265.2,1107.6h2.2v0.8H262v-0.8h2.2v-1.5h1V1107.6z M267,1111.6c0,1.5-1,2.5-2.3,2.5c-1.3,0-2.3-1-2.3-2.5
				c0-1.4,1-2.4,2.3-2.4C266,1109.1,267,1110.1,267,1111.6z M266.1,1111.6c0-0.9-0.6-1.6-1.4-1.6c-0.8,0-1.4,0.7-1.4,1.6
				c0,1,0.6,1.6,1.4,1.6C265.5,1113.2,266.1,1112.5,266.1,1111.6z M271.2,1105.8v10.8h-0.9v-5.4h-1.4v4.9h-0.9v-10h0.9v4.3h1.4v-4.5
				H271.2z"/>
			<path class="st8" d="M279.8,1111.7c-2.2,0.4-4.8,0.4-6.7,0.4l-0.1-0.8c0.7,0,1.5,0,2.3,0v-2.3h1v2.3c1.2,0,2.4-0.1,3.5-0.3
				L279.8,1111.7z M277.8,1110.3c0.3-1.2,0.3-2.2,0.3-2.8h-4.4v-0.8h5.3v0.6c0,0.7,0,1.8-0.3,3.2L277.8,1110.3z M275.6,1115.5h6.2
				v0.8h-7.1v-3.2h1V1115.5z M283,1109.3v0.8h-1.5v3.8h-1v-8.1h1v3.5H283z"/>
			<path class="st8" d="M290.2,1106.1h0.9v9.9h-0.9v-3.7h-1.9v-0.8h1.9v-1.9h-1.8c-0.5,1.8-1.7,3.4-3.7,4.6l-0.6-0.7
				c2.3-1.4,3.5-3.3,3.6-5.6h-3.2v-0.8h4.1c0,0.6,0,1.1-0.1,1.6h1.6V1106.1z M293.3,1105.8v10.7h-0.9v-10.7H293.3z"/>
			<path class="st8" d="M298.8,1109.1c0,1.7,1.2,3.6,2.8,4.4l-0.6,0.8c-1.2-0.6-2.2-1.9-2.7-3.3c-0.5,1.6-1.5,2.9-2.7,3.6l-0.6-0.8
				c1.5-0.8,2.8-2.8,2.8-4.6v-1.4h-2.5v-0.8h5.8v0.8h-2.4V1109.1z M305.2,1111h-1.8v5.6h-1v-10.7h1v4.3h1.8V1111z"/>
			<path class="st8" d="M315.6,1111.7c-2.2,0.4-4.8,0.4-6.7,0.4l-0.1-0.8c0.7,0,1.5,0,2.3,0v-2.3h1v2.3c1.2,0,2.4-0.1,3.5-0.3
				L315.6,1111.7z M313.6,1110.3c0.3-1.2,0.3-2.2,0.3-2.8h-4.4v-0.8h5.3v0.6c0,0.7,0,1.8-0.3,3.2L313.6,1110.3z M311.4,1115.5h6.2
				v0.8h-7.1v-3.2h1V1115.5z M318.8,1109.3v0.8h-1.5v3.8h-1v-8.1h1v3.5H318.8z"/>
			<path class="st8" d="M326,1111.4c-1.2-0.4-2.2-1.3-2.7-2.5c-0.5,1.2-1.5,2.2-2.7,2.7l-0.5-0.8c1.6-0.6,2.7-2,2.7-3.6v-1h1v1
				c0,1.5,1.1,2.9,2.7,3.4L326,1111.4z M321.8,1112.5h7v3.9h-7V1112.5z M322.8,1115.6h5v-2.3h-5V1115.6z M328.8,1105.8v6.1h-1v-6.1
				H328.8z"/>
			<path class="st8" d="M340.7,1114.4v0.8H331v-0.8h4.4v-2.8h-3.1v-5h7.3v0.8h-6.3v3.4h6.4v0.8h-3.3v2.8H340.7z"/>
		</g>
		<g class="st0">
			<path class="st8" d="M52.5,1028.4h10.8v1H52.5V1028.4z M53.4,1035.6h2.8v-3.1h-2.8v-1h7.3v5.1h-7.3V1035.6z M59.9,1035.6v-3.1
				h-2.8v3.1H59.9z"/>
			<path class="st8" d="M58.4,1025.7c-0.3-1.9-1.8-3.9-3.5-3.9h-0.5v3.6h-0.8v-8.1h0.8v3.6h0.5c1.7,0,3.2-2.1,3.5-3.9l0.8,0.4
				c-0.3,1.6-1.4,3.3-2.9,4c1.5,0.7,2.6,2.4,2.9,4L58.4,1025.7z M61.1,1016.4h0.8v9.8h-0.8V1016.4z"/>
			<path class="st8" d="M52.5,1006.3h10.7v1H52.5V1006.3z M59.7,1013.5c0-1.6-0.1-3.3-0.5-5.1l0.8-0.1c0.4,1.9,0.5,3.6,0.5,5.3v0.9
				h-6.9v-1H59.7z"/>
			<path class="st8" d="M58.8,995.2c-0.4,1.6-1.5,3.3-3.1,4c1.6,0.7,2.7,2.4,3.1,4l-0.8,0.4c-0.4-1.9-2-3.9-3.8-3.9h-0.8v-1h0.8
				c1.8,0,3.5-2,3.8-3.9L58.8,995.2z M61,994.3h0.8v9.8H61V994.3z"/>
			<path class="st8" d="M57.4,985.2c0.6,0.5,0.9,1.3,0.9,2.2c0,1.6-1.1,2.8-2.6,2.8c-1.5,0-2.5-1.2-2.5-2.8c0-0.9,0.3-1.7,0.9-2.2
				v-2.8h-1.5v-1h6.4v1h-1.5V985.2z M57.5,987.4c0-1.1-0.7-1.8-1.7-1.8c-1,0-1.7,0.8-1.7,1.8c0,1,0.7,1.8,1.7,1.8
				C56.7,989.2,57.5,988.4,57.5,987.4z M54.9,984.8c0.3-0.1,0.5-0.1,0.8-0.1c0.3,0,0.6,0,0.8,0.1v-2.3h-1.7V984.8z M61.2,981.4
				c1.3,0,2.1,1.4,2.1,3.6c0,2.2-0.8,3.6-2.1,3.6c-1.3,0-2.1-1.4-2.1-3.6C59.2,982.8,59.9,981.4,61.2,981.4z M61.2,982.4
				c-0.8,0-1.3,1-1.3,2.6c0,1.6,0.5,2.6,1.3,2.6c0.8,0,1.3-1,1.3-2.6C62.5,983.4,62,982.4,61.2,982.4z"/>
			<path class="st8" d="M54.5,972.9v6.3h-0.8v-2.7h-1.3v-1h1.3v-2.7H54.5z M55.2,971h1.5v-1.6h0.8v1.6h2v1h-6.9v-1h1.9v-1.6h0.8V971
				z M58.9,976.1c0,1.5-0.7,2.6-1.9,2.6c-1.2,0-1.9-1-1.9-2.6s0.7-2.6,1.9-2.6C58.1,973.5,58.9,974.6,58.9,976.1z M58.1,976.1
				c0-1-0.5-1.6-1.2-1.6c-0.7,0-1.2,0.7-1.2,1.6s0.4,1.6,1.2,1.6C57.7,977.7,58.1,977.1,58.1,976.1z M61.4,970.8
				c1.2,0,1.9,1.3,1.9,3.5c0,2.2-0.7,3.5-1.9,3.5c-1.2,0-1.9-1.3-1.9-3.5C59.6,972.2,60.2,970.8,61.4,970.8z M61.4,971.8
				c-0.7,0-1.1,1-1.1,2.5c0,1.6,0.4,2.5,1.1,2.5s1.1-1,1.1-2.5C62.5,972.8,62.1,971.8,61.4,971.8z"/>
			<path class="st8" d="M61.1,958.5h0.8v9.8h-0.8v-4.4h-2.8v3.1h-5v-7.3h0.8v6.3h3.4v-6.4h0.8v3.3h2.8V958.5z"/>
		</g>
		<g id="High" transform="translate(22.446 825.856)">
			<g id="그룹_4951">
				<g id="그룹_4950">
					<path id="패스_2629" d="M0.7,23v-1.3h3.4v-3.5H0.7v-1.3H9v1.3H5.2v3.5H9V23H0.7z"/>
					<path id="패스_2630" d="M0.9,15c-0.4,0-0.8-0.3-0.8-0.8c0,0,0,0,0-0.1c0-0.4,0.4-0.7,0.8-0.7c0.4,0,0.7,0.4,0.7,0.8
						C1.6,14.7,1.3,15,0.9,15z M2.8,14.8v-1.3H9v1.3H2.8z"/>
					<path id="패스_2631" d="M10.1,12.1c-0.6,0-1.1-0.4-1.3-0.9H8.7c-0.2,0.4-0.6,0.6-1,0.6c-0.5,0-0.9-0.3-1.1-0.7h0
						c-0.4,0.5-1,0.8-1.6,0.8c-1.2,0-2.2-1-2.2-2.2c0-0.1,0-0.1,0-0.2c0-0.3,0.1-0.6,0.2-0.9V6.4h1v1.2c0.3-0.3,0.7-0.4,1.1-0.4
						C6,7.1,7,8.1,7,9.2c0,0.1,0,0.2,0,0.2c0,0.3-0.1,0.6-0.2,0.9c0.2,0.2,0.4,0.3,0.7,0.3c0.4,0,0.6-0.2,0.6-1V8.5
						c0-1.5,0.4-2.2,1.5-2.2c1.2,0,2.2,1.3,2.2,3.2C11.7,11,11.2,12.1,10.1,12.1z M4.8,8.3c-0.6-0.1-1.2,0.4-1.3,1
						c-0.1,0.6,0.4,1.2,1,1.3c0.1,0,0.2,0,0.3,0c0.6,0.1,1.2-0.4,1.3-1c0.1-0.6-0.4-1.2-1-1.3C5,8.3,4.9,8.3,4.8,8.3z M9.8,7.5
						c-0.5,0-0.7,0.4-0.7,1.2v0.9c0,0.3,0,0.6-0.1,0.8C9.2,10.8,9.5,11,9.9,11c0.6,0,1-0.6,1-1.7C10.9,8.2,10.3,7.5,9.8,7.5L9.8,7.5
						z"/>
					<path id="패스_2632" d="M0,5.1V3.9h2.4l1.2,0c-0.6-0.5-0.9-1.2-1-2C2.6,0.6,3.5,0,5.1,0H9v1.3H5.2c-1.1,0-1.5,0.3-1.5,1
						c0,0.6,0.4,1.2,0.8,1.5H9v1.3L0,5.1z"/>
				</g>
			</g>
		</g>
	</g>
</g>
</svg>
