<?xml version="1.0" encoding="utf-8"?>
<!-- Generator: Adobe Illustrator 25.1.0, SVG Export Plug-In . SVG Version: 6.00 Build 0)  -->
<svg version="1.1" id="레이어_1" xmlns="http://www.w3.org/2000/svg" xmlns:xlink="http://www.w3.org/1999/xlink" x="0px"
	 y="0px" viewBox="0 0 335 168.4" style="enable-background:new 0 0 335 168.4;" xml:space="preserve">
<style type="text/css">
	.st0{enable-background:new    ;}
	.st1{fill:#DF1C2F;}
	.st2{fill:#929397;}
	.st3{fill:#E2E2E2;}
	.st4{fill:#808080;}
	.st5{fill:#A3A3A3;}
	.st6{fill:#FFFFFF;}
	.st7{fill:none;stroke:#D5D5D5;}
</style>
<g id="그룹_5716" transform="translate(-20 -1533.031)">
	<g id="그룹_5692" transform="translate(0 -31.561)">
		<g class="st0">
			<path class="st1" d="M21.3,1570.2h3.6c2.2,0,3.9,0.8,3.9,3.2c0,1.6-0.8,2.5-2,3l2.4,4.2h-2.3l-2.1-3.9h-1.4v3.9h-2.1V1570.2z
				 M24.7,1575c1.3,0,2.1-0.6,2.1-1.7c0-1.1-0.7-1.5-2.1-1.5h-1.3v3.2H24.7z"/>
			<path class="st1" d="M30,1577.8c0-1.4,0.9-2.3,1.9-2.9c-0.4-0.8-0.7-1.6-0.7-2.2c0-1.4,1.1-2.6,2.7-2.6c1.5,0,2.4,0.9,2.4,2.3
				c0,1.4-1.1,2.2-2.2,3c0.6,0.8,1.4,1.5,2.2,2.2c0.5-0.7,1-1.6,1.3-2.6h1.9c-0.4,1.3-0.9,2.5-1.8,3.6c0.7,0.4,1.3,0.6,1.8,0.7
				l-0.5,1.7c-0.8-0.2-1.7-0.5-2.6-1.1c-0.9,0.7-1.9,1.1-3.2,1.1C31.2,1580.8,30,1579.5,30,1577.8z M33.6,1579.2
				c0.5,0,1-0.2,1.5-0.5c-0.9-0.7-1.7-1.6-2.3-2.4c-0.5,0.4-0.9,0.9-0.9,1.5C31.9,1578.6,32.6,1579.2,33.6,1579.2z M33.3,1574.1
				c0.8-0.5,1.4-1,1.4-1.8c0-0.5-0.2-0.9-0.8-0.9c-0.6,0-1.1,0.5-1.1,1.3C33,1573.1,33.1,1573.6,33.3,1574.1z"/>
			<path class="st1" d="M41.2,1570.2H44c3.2,0,5.1,1.7,5.1,5.2c0,3.5-2,5.2-5,5.2h-3V1570.2z M43.9,1578.9c1.9,0,3.1-1,3.1-3.6
				c0-2.5-1.2-3.5-3.1-3.5h-0.6v7H43.9z"/>
		</g>
		<g class="st0">
			<path class="st1" d="M65.3,1578h-4.9v3.8h-1.8v-3.8h-4.9v-1.5h11.7V1578z M64.1,1575.6h-9v-6.2H64v1.5h-7v0.9h6.8v1.4h-6.8v1h7.2
				V1575.6z"/>
			<path class="st1" d="M71.3,1572.4c0,2,1,4.2,3.1,5.2l-1,1.5c-1.4-0.7-2.4-1.9-3-3.5c-0.6,1.7-1.6,3.1-3.1,3.8l-1-1.5
				c2.1-1,3.2-3.4,3.2-5.5v-0.7h-2.7v-1.5h7.1v1.5h-2.6V1572.4z M78.5,1575.3h-1.9v6.5h-1.8v-12.9h1.8v4.9h1.9V1575.3z"/>
			<path class="st1" d="M91.1,1574.1v1.5H79.4v-1.5h8.2c0.3-1.3,0.3-2.3,0.3-3.2h-7v-1.5h8.9v1c0,1,0,2.1-0.3,3.6H91.1z
				 M80.8,1576.9h8.9v4.7h-8.9V1576.9z M82.6,1580.2h5.3v-1.8h-5.3V1580.2z"/>
			<path class="st1" d="M95.3,1576c-1.7,0-3-1.3-3-3.2c0-1.8,1.2-3.2,3-3.2s2.9,1.3,2.9,3.2C98.2,1574.7,97,1576,95.3,1576z
				 M95.3,1574.4c0.8,0,1.3-0.6,1.3-1.6c0-1-0.5-1.6-1.3-1.6s-1.3,0.6-1.3,1.6C94,1573.8,94.6,1574.4,95.3,1574.4z M94.4,1577.2h8.9
				v4.6h-1.8v-3.2h-7V1577.2z M103.3,1568.9v7.7h-1.8v-3.1h-1v3.1h-1.7v-7.4h1.7v2.9h1v-3.1H103.3z"/>
		</g>
		<g class="st0">
			<path class="st2" d="M26.4,1597.6c-1.4,0.3-2.5,0.3-4.6,0.3H21v-4.5h4.4v0.7h-3.5v3.1c1.9,0,3.1-0.1,4.4-0.3L26.4,1597.6z
				 M23,1601.5h5.7v0.7h-6.6v-3.2H23V1601.5z M29.7,1595.5v0.7h-1.5v3.5h-0.9v-7.1h0.9v2.9H29.7z"/>
			<path class="st2" d="M37.3,1598.2c-0.9,0.2-1.9,0.3-2.8,0.3v3.6h-0.9v-3.5c-1,0-1.9,0.1-2.7,0.1l-0.1-0.8c1.8,0,4.3,0,6.5-0.4
				L37.3,1598.2z M31.4,1595c0-1.2,1-2,2.5-2c1.5,0,2.5,0.8,2.5,2c0,1.2-1,2-2.5,2C32.5,1597.1,31.4,1596.2,31.4,1595z M32.3,1595
				c0,0.8,0.7,1.3,1.6,1.3c1,0,1.6-0.5,1.6-1.3c0-0.8-0.7-1.3-1.6-1.3C33,1593.7,32.3,1594.3,32.3,1595z M38.8,1592.6v9.9h-0.9v-9.9
				H38.8z"/>
			<path class="st2" d="M43.5,1596.5c0-0.5,0.3-0.8,0.7-0.8s0.7,0.3,0.7,0.8c0,0.4-0.3,0.8-0.7,0.8S43.5,1597,43.5,1596.5z
				 M43.5,1601c0-0.5,0.3-0.8,0.7-0.8s0.7,0.3,0.7,0.8s-0.3,0.8-0.7,0.8S43.5,1601.4,43.5,1601z"/>
			<path class="st2" d="M56.9,1592.6v5.8H56v-2.5h-2c-0.2,1.2-1.2,2-2.5,2c-1.5,0-2.5-1-2.5-2.4c0-1.4,1.1-2.4,2.5-2.4
				c1.3,0,2.3,0.8,2.5,2h2v-2.5H56.9z M53.2,1595.5c0-0.9-0.7-1.6-1.7-1.6c-1,0-1.7,0.7-1.7,1.6c0,0.9,0.7,1.6,1.7,1.6
				C52.5,1597.1,53.2,1596.4,53.2,1595.5z M50.3,1598.9h6.6v3.5H56v-2.8h-5.7V1598.9z"/>
			<path class="st2" d="M64.2,1597.8c-1,0-1.9,0.1-2.7,0.1l-0.1-0.7c1.8,0,4.3,0,6.4-0.3l0.1,0.6c-0.9,0.1-1.8,0.2-2.7,0.3v1.9h-0.9
				V1597.8z M62.1,1594.7c0-1,1-1.7,2.4-1.7c1.4,0,2.4,0.7,2.4,1.7c0,1.1-1,1.7-2.4,1.7C63.1,1596.4,62.1,1595.7,62.1,1594.7z
				 M69.7,1601.5v0.7h-7v-2.9h0.9v2.1H69.7z M63,1594.7c0,0.6,0.6,1.1,1.6,1.1c0.9,0,1.6-0.4,1.6-1.1c0-0.6-0.6-1-1.6-1
				C63.6,1593.6,63,1594,63,1594.7z M68.6,1598.4v-5.8h0.9v7.5h-0.9v-1h-2v-0.7H68.6z"/>
		</g>
		<path id="패스_4981" class="st3" d="M148,1732.4h46V1656h-46V1732.4z"/>
		<g class="st0">
			<path class="st4" d="M160.5,1723.4c1.7-1.5,3.5-2.8,3.5-4.3c0-0.8-0.3-1.3-1.2-1.3c-0.8,0-1.2,0.6-1.3,1.4h-1.1
				c0-1.6,1.1-2.3,2.3-2.3c1.5,0,2.3,0.9,2.3,2.2c0,1.8-1.8,3.1-3,4.2h3.2v1h-4.9V1723.4z"/>
			<path class="st4" d="M168.9,1716.9c2,0,2.6,1.6,2.6,3.7c0,2.1-0.6,3.7-2.6,3.7s-2.6-1.6-2.6-3.7
				C166.3,1718.5,166.9,1716.9,168.9,1716.9z M168.9,1718c-1.3,0-1.5,1.3-1.5,2.6c0,1.4,0.1,2.7,1.5,2.7s1.5-1.2,1.5-2.7
				C170.4,1719.3,170.3,1718,168.9,1718z"/>
			<path class="st4" d="M173.5,1718.1h-0.9v-1h2.1v7.3h-1.1V1718.1z"/>
			<path class="st4" d="M176.4,1718.9c0-1.1,0.8-2,2.4-2c1.6,0,2.4,0.9,2.4,2c0,0.8-0.4,1.3-1,1.6c0.7,0.3,1.2,0.9,1.2,1.8
				c0,1.3-1.1,2.2-2.6,2.2c-1.5,0-2.6-0.9-2.6-2.2c0-0.9,0.5-1.5,1.2-1.8C176.9,1720.2,176.4,1719.7,176.4,1718.9z M177.3,1722.3
				c0,0.7,0.6,1.3,1.5,1.3c0.9,0,1.5-0.5,1.5-1.3c0-0.8-0.6-1.3-1.5-1.3C178,1721,177.3,1721.5,177.3,1722.3z M180.1,1719
				c0-0.8-0.5-1.2-1.3-1.2c-0.8,0-1.3,0.4-1.3,1.2c0,0.7,0.5,1.1,1.3,1.1C179.6,1720.2,180.1,1719.7,180.1,1719z"/>
		</g>
		<g class="st0">
			<path class="st5" d="M160.2,1638h-1.5v-1.7h3.3v11.7h-1.8V1638z"/>
			<path class="st5" d="M166.8,1644.8c0.2,1,0.9,1.6,2.1,1.6c1.5,0,2.2-1,2.2-4c-0.5,0.7-1.5,1.1-2.6,1.1c-2,0-3.7-1.3-3.7-3.7
				c0-2.3,1.4-3.9,3.9-3.9c3,0,4,2.1,4,5.9c0,3.9-0.8,6-3.9,6c-2.4,0-3.5-1.5-3.7-3.2H166.8z M170.9,1639.9c0-1.5-0.8-2.3-2.2-2.3
				c-1.4,0-2.2,0.9-2.2,2.3c0,1.2,0.7,2.2,2.3,2.2C170.1,1642.1,170.9,1641.2,170.9,1639.9z"/>
			<path class="st5" d="M180.2,1645.6h-5.8v-1.4l5.4-7.7h2.2v7.5h1.5v1.6H182v2.4h-1.8V1645.6z M180.3,1644v-5.7l-3.8,5.7H180.3z"/>
		</g>
		<path id="패스_4983" class="st3" d="M218,1732.8h46v-86.5h-46V1732.8z"/>
		<g class="st0">
			<path class="st4" d="M230.5,1723.4c1.7-1.5,3.5-2.8,3.5-4.3c0-0.8-0.3-1.3-1.2-1.3c-0.8,0-1.2,0.6-1.3,1.4h-1.1
				c0-1.6,1.1-2.3,2.3-2.3c1.5,0,2.3,0.9,2.3,2.2c0,1.8-1.8,3.1-3,4.2h3.2v1h-4.9V1723.4z"/>
			<path class="st4" d="M239,1716.9c2,0,2.6,1.6,2.6,3.7c0,2.1-0.6,3.7-2.6,3.7s-2.6-1.6-2.6-3.7
				C236.4,1718.5,236.9,1716.9,239,1716.9z M239,1718c-1.3,0-1.5,1.3-1.5,2.6c0,1.4,0.1,2.7,1.5,2.7s1.5-1.2,1.5-2.7
				C240.4,1719.3,240.3,1718,239,1718z"/>
			<path class="st4" d="M243.5,1718.1h-0.9v-1h2.1v7.3h-1.1V1718.1z"/>
			<path class="st4" d="M247.7,1722.4c0.1,0.6,0.6,1,1.3,1c0.9,0,1.4-0.6,1.4-2.5c-0.3,0.5-1,0.7-1.6,0.7c-1.3,0-2.3-0.8-2.3-2.3
				c0-1.4,0.9-2.4,2.4-2.4c1.9,0,2.5,1.3,2.5,3.7c0,2.5-0.5,3.8-2.4,3.8c-1.5,0-2.2-0.9-2.3-2H247.7z M250.2,1719.3
				c0-0.9-0.5-1.5-1.4-1.5c-0.8,0-1.4,0.6-1.4,1.4c0,0.8,0.4,1.4,1.4,1.4C249.8,1720.7,250.2,1720.1,250.2,1719.3z"/>
		</g>
		<g class="st0">
			<path class="st5" d="M227.4,1636.8c2.8-2.4,5.7-4.5,5.7-6.8c0-1.2-0.5-2-1.9-2c-1.3,0-2,0.9-2,2.2h-1.8c0.1-2.5,1.7-3.8,3.8-3.8
				c2.4,0,3.7,1.4,3.7,3.5c0,2.8-2.9,5-4.8,6.7h5.1v1.5h-7.8V1636.8z"/>
			<path class="st5" d="M240.5,1626.3c2.3,0,3.6,1.3,3.6,3c0,1.4-0.9,2.3-1.8,2.6v0.1c1.2,0.4,2,1.4,2,3c0,1.9-1.3,3.3-3.7,3.3
				c-2.2,0-3.9-1.2-4-3.4h1.8c0.1,1.1,0.9,1.9,2.3,1.9c1.4,0,2-0.8,2-1.9c0-1.5-1-2.1-2.9-2.1h-0.4v-1.5h0.4c1.6,0,2.7-0.5,2.7-1.7
				c0-1-0.7-1.7-1.9-1.7c-1.3,0-1.9,0.8-2,1.6h-1.8C236.8,1627.5,238.4,1626.3,240.5,1626.3z"/>
			<path class="st5" d="M248.5,1635.1c0.2,1,0.9,1.6,2.1,1.6c1.5,0,2.2-1,2.2-4c-0.5,0.7-1.5,1.1-2.6,1.1c-2,0-3.7-1.3-3.7-3.7
				c0-2.3,1.4-3.9,3.9-3.9c3,0,4,2.1,4,5.9c0,3.9-0.8,6-3.9,6c-2.4,0-3.5-1.5-3.7-3.2H248.5z M252.6,1630.2c0-1.5-0.8-2.3-2.2-2.3
				c-1.4,0-2.2,0.9-2.2,2.3c0,1.2,0.7,2.2,2.3,2.2C251.9,1632.4,252.6,1631.5,252.6,1630.2z"/>
		</g>
		<path id="패스_4985" class="st1" d="M284,1732.4h46V1652h-46V1732.4z"/>
		<g class="st0">
			<path class="st6" d="M295.2,1723.2c1.6-1.4,3.4-2.7,3.4-4c0-0.6-0.3-1.1-1-1.1c-0.7,0-1,0.5-1,1.2h-1.4c0-1.7,1.1-2.4,2.4-2.4
				c1.6,0,2.4,0.9,2.4,2.2c0,1.7-1.6,3-2.8,4h2.9v1.2h-4.9V1723.2z"/>
			<path class="st6" d="M303.8,1716.9c2.1,0,2.7,1.6,2.7,3.7c0,2.1-0.6,3.7-2.7,3.7c-2.1,0-2.7-1.6-2.7-3.7
				C301.1,1718.5,301.7,1716.9,303.8,1716.9z M303.8,1718.2c-1.2,0-1.3,1.1-1.3,2.4c0,1.3,0.1,2.4,1.3,2.4c1.2,0,1.3-1.1,1.3-2.4
				C305.1,1719.4,304.9,1718.2,303.8,1718.2z"/>
			<path class="st6" d="M307.4,1723.2c1.6-1.4,3.4-2.7,3.4-4c0-0.6-0.3-1.1-1-1.1c-0.7,0-1,0.5-1,1.2h-1.4c0-1.7,1.1-2.4,2.4-2.4
				c1.6,0,2.4,0.9,2.4,2.2c0,1.7-1.6,3-2.8,4h2.9v1.2h-4.9V1723.2z"/>
			<path class="st6" d="M316,1716.9c2.1,0,2.7,1.6,2.7,3.7c0,2.1-0.6,3.7-2.7,3.7c-2.1,0-2.7-1.6-2.7-3.7
				C313.3,1718.5,313.9,1716.9,316,1716.9z M316,1718.2c-1.2,0-1.3,1.1-1.3,2.4c0,1.3,0.1,2.4,1.3,2.4c1.2,0,1.3-1.1,1.3-2.4
				C317.3,1719.4,317.1,1718.2,316,1718.2z"/>
		</g>
		<g class="st0">
			<path class="st1" d="M293.4,1642.2c2.6-2.2,5.4-4.3,5.4-6.5c0-1-0.5-1.7-1.6-1.7c-1.1,0-1.7,0.8-1.7,2h-2.2
				c0.1-2.7,1.8-3.9,3.9-3.9c2.5,0,3.8,1.5,3.8,3.5c0,2.7-2.6,4.8-4.5,6.4h4.7v1.9h-7.9V1642.2z"/>
			<path class="st1" d="M302.6,1642.2c2.6-2.2,5.4-4.3,5.4-6.5c0-1-0.5-1.7-1.6-1.7c-1.1,0-1.7,0.8-1.7,2h-2.2
				c0.1-2.7,1.8-3.9,3.9-3.9c2.5,0,3.8,1.5,3.8,3.5c0,2.7-2.6,4.8-4.5,6.4h4.7v1.9h-7.9V1642.2z"/>
			<path class="st1" d="M318,1635.2c-0.2-0.9-0.7-1.3-1.7-1.3c-1.5,0-2.1,1.1-2.2,3.8c0.5-0.9,1.6-1.4,2.7-1.4
				c2.1,0,3.5,1.4,3.5,3.8c0,2.3-1.4,3.9-3.9,3.9c-3.5,0-4.3-2.4-4.3-6.1c0-3.8,1.2-5.9,4.2-5.9c2.4,0,3.5,1.5,3.7,3.2H318z
				 M314.3,1640.1c0,1.2,0.7,2,2,2c1.2,0,1.9-0.8,1.9-2c0-1.2-0.6-2-1.9-2C315.3,1638.2,314.3,1638.8,314.3,1640.1z"/>
		</g>
		<path id="패스_4988" class="st7" d="M20,1732.5h335"/>
	</g>
</g>
</svg>
