<?xml version="1.0" encoding="utf-8"?>
<!-- Generator: Adobe Illustrator 25.1.0, SVG Export Plug-In . SVG Version: 6.00 Build 0)  -->
<svg version="1.1" id="레이어_1" xmlns="http://www.w3.org/2000/svg" xmlns:xlink="http://www.w3.org/1999/xlink" x="0px"
	 y="0px" viewBox="0 0 208 333.1" style="enable-background:new 0 0 208 333.1;" xml:space="preserve">
<style type="text/css">
	.st0{enable-background:new    ;}
	.st1{fill:#DF1C2F;}
	.st2{fill:#929397;}
	.st3{fill:#A3A3A3;}
	.st4{fill:#E2E2E2;}
	.st5{fill:#42454A;}
	.st6{fill:#FFFFFF;}
</style>
<g id="그룹_5019" transform="translate(-790 -2156.799)">
	<g class="st0">
		<path class="st1" d="M813.3,2167.2c0,3.3,1.3,6.7,4.3,8.1l-1.6,2.1c-1.9-1-3.2-2.8-4-5c-0.8,2.3-2.2,4.3-4.3,5.3l-1.6-2.1
			c3.1-1.5,4.5-5,4.5-8.4v-2.7h2.7V2167.2z M823.6,2172.4h-2.7v9.1h-2.6v-18.4h2.6v7.1h2.7V2172.4z"/>
		<path class="st1" d="M840.3,2163.1v9.9h-2.6v-3.7h-2.9c-0.5,2-2.4,3.4-4.8,3.4c-2.8,0-4.8-1.8-4.8-4.4s2.1-4.4,4.8-4.4
			c2.3,0,4.2,1.3,4.7,3.3h2.9v-4.1H840.3z M832.3,2168.3c0-1.4-1-2.2-2.3-2.2c-1.3,0-2.3,0.8-2.3,2.2c0,1.4,1,2.2,2.3,2.2
			C831.4,2170.5,832.3,2169.6,832.3,2168.3z M837.7,2173.8h2.6v7.5h-12.2v-7.5h2.6v1.8h7V2173.8z M837.7,2177.6h-7v1.7h7V2177.6z"/>
		<path class="st1" d="M860,2175.8h-7.1v5.7h-2.6v-5.7h-7v-2.1H860V2175.8z M858,2172h-12.8v-8.2h2.6v2.1h7.6v-2.1h2.6V2172z
			 M855.4,2168h-7.6v1.9h7.6V2168z"/>
		<path class="st1" d="M878.4,2172.2v2.1h-6.8v3.1H869v-3.1h-7.3v-2.1H878.4z M866.3,2179.1h10.3v2.1h-12.9v-5.3h2.6V2179.1z
			 M876.3,2170.7h-12.5v-6.9h12.5V2170.7z M873.7,2165.9h-7.3v2.7h7.3V2165.9z"/>
		<path class="st1" d="M889.6,2172.1h-8.7v-8.2h2.6v2.2h3.5v-2.2h2.6v1.6h3.3v-2.3h2.6v9.4h-2.6v-1.8h-3.3V2172.1z M896,2179.3v2.1
			h-12.6v-5h9.5v-1h-9.5v-2h12.2v4.9H886v1.1H896z M887,2168h-3.5v2h3.5V2168z M889.6,2167.4v1.4h3.3v-1.4H889.6z"/>
		<path class="st1" d="M919.7,2172.3v2.1h-16.6v-2.1h7v-1.8h2.6v1.8H919.7z M903.8,2169.5c3.9-0.2,5.7-1.4,6.1-2.6h-5.2v-2.1h5.4
			v-1.6h2.6v1.6h5.4v2.1h-5.2c0.3,1.3,2.1,2.4,6.1,2.6l-0.8,2c-3.4-0.2-5.7-1.2-6.8-2.6c-1.2,1.5-3.5,2.4-6.8,2.6L903.8,2169.5z
			 M917.7,2178.4c0,2-2.4,3.1-6.4,3.1c-4,0-6.4-1.1-6.4-3.1s2.4-3.1,6.4-3.1C915.4,2175.3,917.7,2176.4,917.7,2178.4z M915.1,2178.4
			c0-0.8-1.2-1.2-3.7-1.2c-2.5,0-3.7,0.3-3.7,1.2c0,0.8,1.2,1.2,3.7,1.2C913.8,2179.6,915.1,2179.2,915.1,2178.4z"/>
		<path class="st1" d="M926.5,2165h7.3v11.9h-7.3V2165z M929,2174.9h2.4v-7.8H929V2174.9z M941.8,2163.1v18.4h-2.5v-9.3h-1.5v8.4
			h-2.5v-17.3h2.5v6.7h1.5v-7H941.8z"/>
		<path class="st1" d="M954,2172.9v1.1h5v4.6h-10.1v1h10.6v1.9h-13.2v-4.6h10.1v-0.9h-10.1v-1.9h5.1v-1.1h-7v-1.9H961v1.9H954z
			 M945.1,2168.5c3.7-0.2,5.5-1,6-2.1H946v-1.9h5.4v-1.5h2.6v1.5h5.4v1.9h-5.1c0.5,1,2.3,1.9,6,2.1l-0.7,1.9c-3.4-0.2-5.7-1-6.9-2.4
			c-1.1,1.4-3.5,2.2-6.9,2.4L945.1,2168.5z"/>
		<path class="st1" d="M967.1,2173.2c-2.4,0-4.2-1.8-4.2-4.5c0-2.6,1.8-4.5,4.2-4.5s4.2,1.9,4.2,4.5
			C971.3,2171.4,969.5,2173.2,967.1,2173.2z M967.1,2171c1.1,0,1.8-0.8,1.8-2.3c0-1.4-0.8-2.3-1.8-2.3s-1.8,0.9-1.8,2.3
			C965.2,2170.2,966,2171,967.1,2171z M965.8,2174.9h12.7v6.6h-2.6v-4.5h-10V2174.9z M978.5,2163.1v11H976v-4.4h-1.4v4.4h-2.5v-10.6
			h2.5v4.1h1.4v-4.5H978.5z"/>
	</g>
	<g class="st0">
		<path class="st2" d="M862.3,2203.5c-1.7,0.3-3.2,0.4-5.8,0.4h-1v-5.8h5.6v0.9h-4.4v3.9c2.5,0,3.9-0.1,5.5-0.4L862.3,2203.5z
			 M858,2208.4h7.2v0.9h-8.4v-4.1h1.1V2208.4z M866.5,2200.8v1h-1.9v4.4h-1.1v-9.1h1.1v3.7H866.5z"/>
		<path class="st2" d="M876.1,2204.3c-1.2,0.2-2.4,0.4-3.6,0.4v4.5h-1.1v-4.5c-1.2,0.1-2.4,0.1-3.5,0.1l-0.2-1c2.3,0,5.5,0,8.3-0.4
			L876.1,2204.3z M868.7,2200.3c0-1.5,1.3-2.6,3.2-2.6c1.9,0,3.2,1,3.2,2.6c0,1.5-1.3,2.6-3.2,2.6
			C870,2202.8,868.7,2201.8,868.7,2200.3z M869.8,2200.3c0,1,0.9,1.6,2.1,1.6c1.2,0,2.1-0.7,2.1-1.6s-0.9-1.6-2.1-1.6
			C870.7,2198.6,869.8,2199.3,869.8,2200.3z M878.1,2197.1v12.6h-1.1v-12.6H878.1z"/>
		<path class="st2" d="M884.1,2202.2c0-0.6,0.4-1,0.9-1c0.5,0,0.9,0.4,0.9,1c0,0.6-0.4,1-0.9,1
			C884.5,2203.1,884.1,2202.7,884.1,2202.2z M884.1,2207.8c0-0.6,0.4-1,0.9-1c0.5,0,0.9,0.4,0.9,1s-0.4,1-0.9,1
			C884.5,2208.8,884.1,2208.4,884.1,2207.8z"/>
		<path class="st2" d="M897.9,2203.5c-1.4-0.5-2.6-1.5-3.2-2.9c-0.5,1.4-1.7,2.6-3.2,3.1l-0.6-0.9c1.9-0.7,3.2-2.3,3.2-4.1v-1.2h1.1
			v1.2c0,1.7,1.3,3.3,3.2,3.9L897.9,2203.5z M900,2204.5h1.1v5H893v-5h1.1v1.5h5.8V2204.5z M900,2206.9h-5.8v1.7h5.8V2206.9z
			 M901.1,2197.1v6.7H900v-6.7H901.1z"/>
		<path class="st2" d="M914,2197.1v7.4h-1.2v-3.2h-2.6c-0.2,1.5-1.5,2.6-3.2,2.6c-1.9,0-3.2-1.2-3.2-3c0-1.8,1.4-3,3.2-3
			c1.7,0,3,1,3.2,2.5h2.6v-3.2H914z M909.3,2200.8c0-1.2-0.9-2-2.1-2c-1.2,0-2.1,0.9-2.1,2c0,1.2,0.9,2.1,2.1,2.1
			C908.3,2202.8,909.3,2202,909.3,2200.8z M905.6,2205.2h8.4v4.5h-1.2v-3.5h-7.2V2205.2z"/>
		<path class="st2" d="M923.3,2203.8c-1.2,0.1-2.5,0.1-3.5,0.1l-0.2-1c2.3,0,5.4,0,8.1-0.4l0.1,0.8c-1.1,0.2-2.3,0.3-3.4,0.4v2.5
			h-1.1V2203.8z M920.6,2199.8c0-1.3,1.3-2.2,3.1-2.2s3.1,0.9,3.1,2.2c0,1.3-1.3,2.2-3.1,2.2S920.6,2201.1,920.6,2199.8z
			 M930.3,2208.4v0.9h-8.9v-3.7h1.1v2.7H930.3z M921.7,2199.8c0,0.8,0.8,1.3,2,1.3s2-0.5,2-1.3c0-0.8-0.8-1.3-2-1.3
			S921.7,2199,921.7,2199.8z M928.8,2204.5v-7.4h1.1v9.6h-1.1v-1.3h-2.5v-0.9H928.8z"/>
	</g>
	<g class="st0">
		<path class="st3" d="M801.5,2266.2c3.2,0,4.9,1.8,4.9,4.2c0,1.9-1.2,3.2-2.5,3.6v0.1c1.7,0.5,2.8,1.9,2.8,4.1
			c0,2.6-1.8,4.5-5.1,4.5c-3,0-5.4-1.6-5.5-4.7h2.4c0.1,1.5,1.2,2.6,3.1,2.6c1.9,0,2.8-1.1,2.8-2.6c0-2.1-1.4-2.8-4-2.8h-0.6v-2.1
			h0.6c2.3,0,3.7-0.7,3.7-2.4c0-1.4-0.9-2.3-2.6-2.3c-1.8,0-2.6,1.1-2.7,2.2h-2.4C796.4,2267.7,798.6,2266.2,801.5,2266.2z"/>
		<path class="st3" d="M809.7,2279.6h2.7l-2.7,6.1h-1.6L809.7,2279.6z"/>
		<path class="st3" d="M816,2268.8h-2v-2.3h4.6v16H816V2268.8z"/>
		<path class="st3" d="M823.7,2268.8h-2v-2.3h4.6v16h-2.5V2268.8z"/>
		<path class="st3" d="M829.5,2280.6c3.8-3.3,7.8-6.2,7.8-9.4c0-1.7-0.7-2.8-2.6-2.8c-1.8,0-2.7,1.2-2.8,3h-2.4
			c0.1-3.5,2.3-5.2,5.2-5.2c3.3,0,5.1,2,5.1,4.8c0,3.9-4,6.9-6.5,9.2h7v2.1h-10.7V2280.6z"/>
	</g>
	<g class="st0">
		<path class="st3" d="M865.2,2312.6c3.8-3.3,7.8-6.2,7.8-9.4c0-1.7-0.7-2.8-2.6-2.8c-1.8,0-2.7,1.2-2.8,3h-2.4
			c0.1-3.5,2.3-5.2,5.2-5.2c3.3,0,5.1,2,5.1,4.8c0,3.9-4,6.9-6.5,9.2h7v2.1h-10.7V2312.6z"/>
		<path class="st3" d="M878.4,2311.6h2.7l-2.7,6.1h-1.6L878.4,2311.6z"/>
		<path class="st3" d="M891.6,2302.3c-0.3-1.3-1.1-2-2.7-2c-2.3,0-3.4,1.5-3.5,5.7c0.8-1.3,2.4-2,4-2c2.9,0,4.9,1.9,4.9,5.3
			c0,3-1.8,5.3-5.3,5.3c-4.7,0-5.9-3.3-5.9-8.4c0-5,1.7-8.1,5.7-8.1c3.1,0,4.7,2,5,4.1H891.6z M885.8,2309.2c0,2,1.2,3.3,3.3,3.3
			c1.8,0,3-1.3,3-3.1c0-1.9-1-3.3-3.1-3.3C887.3,2306.1,885.8,2307.1,885.8,2309.2z"/>
		<path class="st3" d="M902.8,2298.3c4.5,0,5.7,3.5,5.7,8.1c0,4.7-1.2,8.2-5.7,8.2c-4.5,0-5.7-3.5-5.7-8.2
			C897.1,2301.8,898.4,2298.3,902.8,2298.3z M902.8,2300.6c-2.9,0-3.3,2.8-3.3,5.8c0,3.1,0.3,5.9,3.3,5.9c2.9,0,3.3-2.8,3.3-5.9
			C906.1,2303.4,905.8,2300.6,902.8,2300.6z"/>
		<path class="st3" d="M921.6,2298.5v2.2h-7.4v4.4c0.6-0.8,1.9-1.5,3.3-1.5c3.9,0,5.1,2.9,5.1,5.3c0,3.2-1.8,5.6-5.5,5.6
			c-3.3,0-5.2-1.8-5.6-4.3h2.4c0.3,1.4,1.5,2.2,3.2,2.2c2.2,0,3.1-1.5,3.1-3.5c0-2.1-1-3.3-3.1-3.3c-1.5,0-2.5,0.8-2.9,2h-2.4v-9.3
			H921.6z"/>
	</g>
	<g class="st0">
		<path class="st1" d="M941.4,2347.2c3.6-3.1,7.4-5.9,7.4-8.9c0-1.4-0.6-2.4-2.2-2.4c-1.5,0-2.3,1.1-2.3,2.8h-3
			c0.1-3.7,2.5-5.4,5.3-5.4c3.5,0,5.2,2,5.2,4.8c0,3.7-3.6,6.6-6.1,8.8h6.5v2.6h-10.9V2347.2z"/>
		<path class="st1" d="M954.1,2346.4h3.3l-2.7,6.6h-2L954.1,2346.4z"/>
		<path class="st1" d="M964.5,2333.4c4.5,0,5.9,3.5,5.9,8.1c0,4.7-1.4,8.2-5.9,8.2c-4.5,0-5.9-3.5-5.9-8.2
			C958.5,2336.9,959.9,2333.4,964.5,2333.4z M964.5,2336.3c-2.6,0-2.9,2.5-2.9,5.3c0,2.9,0.3,5.3,2.9,5.3s2.9-2.5,2.9-5.3
			C967.4,2338.8,967.1,2336.3,964.5,2336.3z"/>
		<path class="st1" d="M978,2333.4c4.5,0,5.9,3.5,5.9,8.1c0,4.7-1.4,8.2-5.9,8.2c-4.5,0-5.9-3.5-5.9-8.2
			C972.1,2336.9,973.5,2333.4,978,2333.4z M978,2336.3c-2.6,0-2.9,2.5-2.9,5.3c0,2.9,0.3,5.3,2.9,5.3s2.9-2.5,2.9-5.3
			C980.9,2338.8,980.6,2336.3,978,2336.3z"/>
		<path class="st1" d="M991.1,2333.3c3.3,0,5.1,1.9,5.1,4.2c0,2-1.3,3.2-2.4,3.6v0.1c1.6,0.5,2.7,1.8,2.7,4c0,2.6-1.8,4.6-5.2,4.6
			c-3.2,0-5.6-1.6-5.7-5h3c0.1,1.4,1,2.4,2.6,2.4c1.5,0,2.3-1,2.3-2.2c0-1.8-1.1-2.5-3.4-2.5h-0.6v-2.5h0.6c1.8,0,3.1-0.5,3.1-2.1
			c0-1.3-0.8-2-2.2-2c-1.5,0-2.1,1-2.2,2h-3C985.9,2335,988,2333.3,991.1,2333.3z"/>
	</g>
	<path id="패스_2693" class="st4" d="M790,2489.8h56v-187.7h-56V2489.8z"/>
	<path id="패스_2694" class="st4" d="M866,2489.8h56v-155.6h-56V2489.8z"/>
	<path id="패스_2695" class="st1" d="M942,2489.8h56v-120.5h-56V2489.8z"/>
	<g class="st0">
		<path class="st5" d="M804.3,2474.8c2.2-2,4.6-3.7,4.6-5.5c0-1-0.4-1.7-1.5-1.7c-1,0-1.6,0.7-1.6,1.8h-1.4c0.1-2.1,1.4-3.1,3.1-3.1
			c1.9,0,3,1.2,3,2.9c0,2.3-2.3,4.1-3.9,5.4h4.1v1.2h-6.3V2474.8z"/>
		<path class="st5" d="M815.3,2466.4c2.7,0,3.4,2.1,3.4,4.8c0,2.8-0.7,4.8-3.4,4.8s-3.4-2.1-3.4-4.8
			C811.9,2468.4,812.7,2466.4,815.3,2466.4z M815.3,2467.7c-1.7,0-1.9,1.7-1.9,3.4c0,1.9,0.2,3.5,1.9,3.5s1.9-1.6,1.9-3.5
			C817.2,2469.4,817.1,2467.7,815.3,2467.7z"/>
		<path class="st5" d="M821.3,2467.9h-1.2v-1.4h2.7v9.5h-1.5V2467.9z"/>
		<path class="st5" d="M825.1,2468.9c0-1.4,1-2.6,3.1-2.6c2.1,0,3.1,1.2,3.1,2.6c0,1-0.6,1.8-1.4,2.1c1,0.4,1.6,1.2,1.6,2.3
			c0,1.7-1.4,2.8-3.4,2.8c-1.9,0-3.4-1.1-3.4-2.8c0-1.1,0.6-2,1.6-2.3C825.6,2470.6,825.1,2470,825.1,2468.9z M826.3,2473.3
			c0,1,0.7,1.7,1.9,1.7c1.2,0,1.9-0.7,1.9-1.7c0-1.1-0.8-1.6-1.9-1.6C827.1,2471.7,826.3,2472.2,826.3,2473.3z M829.9,2469.1
			c0-1-0.7-1.5-1.7-1.5c-1,0-1.7,0.5-1.7,1.5c0,0.9,0.7,1.5,1.7,1.5C829.2,2470.6,829.9,2470,829.9,2469.1z"/>
	</g>
	<g class="st0">
		<path class="st5" d="M880.3,2474.8c2.2-2,4.6-3.7,4.6-5.5c0-1-0.4-1.7-1.5-1.7c-1,0-1.6,0.7-1.6,1.8h-1.4c0.1-2.1,1.4-3.1,3.1-3.1
			c1.9,0,3,1.2,3,2.9c0,2.3-2.3,4.1-3.9,5.4h4.1v1.2h-6.3V2474.8z"/>
		<path class="st5" d="M891.3,2466.4c2.7,0,3.4,2.1,3.4,4.8c0,2.8-0.7,4.8-3.4,4.8s-3.4-2.1-3.4-4.8
			C888,2468.4,888.7,2466.4,891.3,2466.4z M891.3,2467.7c-1.7,0-1.9,1.7-1.9,3.4c0,1.9,0.2,3.5,1.9,3.5s1.9-1.6,1.9-3.5
			C893.3,2469.4,893.1,2467.7,891.3,2467.7z"/>
		<path class="st5" d="M897.3,2467.9h-1.2v-1.4h2.7v9.5h-1.5V2467.9z"/>
		<path class="st5" d="M902.7,2473.4c0.2,0.8,0.7,1.3,1.7,1.3c1.2,0,1.8-0.8,1.8-3.2c-0.4,0.6-1.2,0.9-2.1,0.9c-1.7,0-3-1-3-3
			c0-1.9,1.2-3.1,3.1-3.1c2.4,0,3.3,1.7,3.3,4.8c0,3.2-0.7,4.9-3.2,4.9c-2,0-2.9-1.2-3-2.6H902.7z M906,2469.4
			c0-1.2-0.7-1.9-1.8-1.9c-1.1,0-1.8,0.8-1.8,1.9c0,1,0.5,1.8,1.9,1.8C905.4,2471.2,906,2470.5,906,2469.4z"/>
	</g>
	<g class="st0">
		<path class="st6" d="M954.7,2474.5c2.1-1.8,4.4-3.5,4.4-5.2c0-0.8-0.4-1.4-1.3-1.4c-0.9,0-1.4,0.6-1.4,1.6h-1.8
			c0.1-2.2,1.5-3.2,3.2-3.2c2,0,3.1,1.2,3.1,2.9c0,2.2-2.1,3.9-3.6,5.2h3.8v1.5h-6.4V2474.5z"/>
		<path class="st6" d="M965.8,2466.3c2.7,0,3.5,2.1,3.5,4.8c0,2.8-0.8,4.8-3.5,4.8c-2.7,0-3.5-2.1-3.5-4.8
			C962.3,2468.4,963.1,2466.3,965.8,2466.3z M965.8,2468c-1.5,0-1.7,1.5-1.7,3.1c0,1.7,0.2,3.1,1.7,3.1s1.7-1.5,1.7-3.1
			C967.5,2469.5,967.3,2468,965.8,2468z"/>
		<path class="st6" d="M970.6,2474.5c2.1-1.8,4.4-3.5,4.4-5.2c0-0.8-0.4-1.4-1.3-1.4c-0.9,0-1.4,0.6-1.4,1.6h-1.8
			c0.1-2.2,1.5-3.2,3.2-3.2c2,0,3.1,1.2,3.1,2.9c0,2.2-2.1,3.9-3.6,5.2h3.8v1.5h-6.4V2474.5z"/>
		<path class="st6" d="M981.7,2466.3c2.7,0,3.5,2.1,3.5,4.8c0,2.8-0.8,4.8-3.5,4.8c-2.7,0-3.5-2.1-3.5-4.8
			C978.2,2468.4,979,2466.3,981.7,2466.3z M981.7,2468c-1.5,0-1.7,1.5-1.7,3.1c0,1.7,0.2,3.1,1.7,3.1s1.7-1.5,1.7-3.1
			C983.4,2469.5,983.2,2468,981.7,2468z"/>
	</g>
</g>
</svg>
