<svg xmlns="http://www.w3.org/2000/svg" width="335.5" height="343.249" viewBox="0 0 335.5 343.249">
  <g id="그룹_5702" data-name="그룹 5702" transform="translate(-20 -756.7)">
    <text id="이슈_선정_배경" data-name="이슈 선정 배경" transform="translate(20 756.7)" fill="#df1c2f" font-size="14" font-family="NotoSansKR-Bold, Noto Sans KR" font-weight="700"><tspan x="0" y="16">이슈 선정 배경</tspan></text>
    <g id="그룹_5680" data-name="그룹 5680" transform="translate(-3.116 -28.472)">
      <g id="그룹_5679" data-name="그룹 5679" transform="translate(41.646 814.482)">
        <rect id="사각형_510" data-name="사각형 510" width="316.325" height="313.283" transform="translate(0.638 -0.232)" fill="#f5f5f5"/>
        <path id="패스_4977" data-name="패스 4977" d="M502.857,874.326v313.109h316.47" transform="translate(-502.857 -873.995)" fill="none" stroke="#707070" stroke-width="1"/>
        <rect id="사각형_511" data-name="사각형 511" width="254.986" height="259.548" transform="translate(61.484 0.33)" fill="none" stroke="#df1c2f" stroke-linecap="square" stroke-width="1" stroke-dasharray="3.5"/>
        <path id="패스_2432" data-name="패스 2432" d="M531.987,408.1H215.633" transform="translate(-215.517 -166.684)" fill="none" stroke="#bcbec1" stroke-width="1.018"/>
        <path id="패스_2433" data-name="패스 2433" d="M483.8,78.516v311.9" transform="translate(-400.646 -77.366)" fill="none" stroke="#bcbec1" stroke-width="1"/>
      </g>
      <circle id="타원_1" data-name="타원 1" cx="8.618" cy="8.618" r="8.618" transform="translate(152.33 912.034)" fill="#95989f"/>
      <circle id="타원_2" data-name="타원 2" cx="8.618" cy="8.618" r="8.618" transform="translate(187.815 972.865)" fill="#df1c2f"/>
      <circle id="타원_3" data-name="타원 3" cx="8.618" cy="8.618" r="8.618" transform="translate(231.411 992.129)" fill="#95989f"/>
      <circle id="타원_4" data-name="타원 4" cx="8.618" cy="8.618" r="8.618" transform="translate(313.533 985.032)" fill="#df1c2f"/>
      <circle id="타원_5" data-name="타원 5" cx="8.618" cy="8.618" r="8.618" transform="translate(301.367 845.119)" fill="#95989f"/>
      <circle id="타원_6" data-name="타원 6" cx="8.618" cy="8.618" r="8.618" transform="translate(204.036 1022.545)" fill="#95989f"/>
      <text id="임직원_안전보건_관리체계_강화" data-name="임직원 안전보건
관리체계 강화" transform="translate(187.375 947.534)" fill="#df1c2f" font-size="12" font-family="NotoSansCJKkr-Medium, Noto Sans CJK KR" font-weight="500"><tspan x="0" y="0">임직원 안전보건</tspan><tspan x="0" y="17">관리체계 강화</tspan></text>
      <text id="사업장_안전보건_강화" data-name="사업장
안전보건 강화" transform="translate(330.769 1018.545)" fill="#df1c2f" font-size="12" font-family="NotoSansCJKkr-Medium, Noto Sans CJK KR" font-weight="500"><tspan x="-33.12" y="0">사업장</tspan><tspan x="-68.94" y="17">안전보건 강화</tspan></text>
      <text id="이해관계자_관심도" data-name="이해관계자 관심도" transform="translate(341.375 1115.653)" fill="#6e6e6e" font-size="12" font-family="NotoSansCJKkr-Regular, Noto Sans CJK KR"><tspan x="-91.008" y="0">이해관계자 관심도</tspan></text>
      <text id="비즈니스_영향도" data-name="비즈니스 영향도" transform="translate(48.409 923.856) rotate(-90)" fill="#6e6e6e" font-size="12" font-family="NotoSansCJKkr-Regular, Noto Sans CJK KR"><tspan x="-79.968" y="14">비즈니스 영향도</tspan></text>
      <g id="High" transform="translate(24.446 825.856)">
        <g id="그룹_4951" data-name="그룹 4951">
          <g id="그룹_4950" data-name="그룹 4950" style="isolation: isolate">
            <path id="패스_2629" data-name="패스 2629" d="M184.529,132.036v-1.3h3.37v-3.539h-3.37v-1.3H192.8v1.3h-3.763v3.539H192.8v1.3Z" transform="translate(-183.843 -108.991)"/>
            <path id="패스_2630" data-name="패스 2630" d="M184.339,121.892a.759.759,0,0,1-.764-.82.766.766,0,1,1,.764.82Zm1.92-.18v-1.281h6.179v1.281Z" transform="translate(-183.485 -106.866)"/>
            <path id="패스_2631" data-name="패스 2631" d="M195.107,114.661a1.631,1.631,0,0,1-1.348-.9H193.7a1.137,1.137,0,0,1-1.023.562,1.523,1.523,0,0,1-1.145-.686h-.045a2.114,2.114,0,0,1-1.64.809,2.229,2.229,0,0,1-2.225-2.393,2.591,2.591,0,0,1,.157-.9v-2.19h.966v1.18a1.673,1.673,0,0,1,1.135-.4,2.111,2.111,0,0,1,2.123,2.314,2.137,2.137,0,0,1-.192.865.819.819,0,0,0,.652.337c.371,0,.606-.247.606-1.033v-1.135c0-1.461.45-2.224,1.505-2.224,1.19,0,2.157,1.258,2.157,3.235C196.736,113.582,196.185,114.661,195.107,114.661Zm-5.257-3.775a1.176,1.176,0,1,0,0,2.336,1.178,1.178,0,1,0,0-2.336Zm4.931-.775c-.517,0-.674.4-.674,1.157v.932a3.97,3.97,0,0,1-.09.832,1.111,1.111,0,0,0,.9.528c.607,0,.966-.629.966-1.651C195.882,110.83,195.354,110.111,194.781,110.111Z" transform="translate(-185.008 -102.586)"/>
            <path id="패스_2632" data-name="패스 2632" d="M183.43,103.936v-1.281H185.8l1.224.045a2.876,2.876,0,0,1-.978-2c0-1.315.877-1.9,2.449-1.9h3.887v1.292h-3.73c-1.067,0-1.494.314-1.494,1.044a2.108,2.108,0,0,0,.842,1.517h4.382v1.281Z" transform="translate(-183.43 -98.802)"/>
          </g>
        </g>
      </g>
    </g>
  </g>
</svg>
