<?xml version="1.0" encoding="utf-8"?>
<!-- Generator: Adobe Illustrator 25.1.0, SVG Export Plug-In . SVG Version: 6.00 Build 0)  -->
<svg version="1.1" id="레이어_1" xmlns="http://www.w3.org/2000/svg" xmlns:xlink="http://www.w3.org/1999/xlink" x="0px"
	 y="0px" viewBox="0 0 920 390" style="enable-background:new 0 0 920 390;" xml:space="preserve">
<style type="text/css">
	.st0{fill:#FAFAFA;}
	.st1{fill:none;stroke:#717171;}
	.st2{fill:none;stroke:#D6D6D6;}
	.st3{enable-background:new    ;}
</style>
<g id="그룹_5027" transform="translate(-740 -3420.92)">
	<rect id="사각형_375" x="740" y="3421.1" class="st0" width="920" height="64"/>
	<path id="패스_2717" class="st1" d="M740.4,3421.4h919.1"/>
	<line id="선_348" class="st2" x1="740.4" y1="3485.4" x2="1659.5" y2="3485.4"/>
	<line id="선_348-2" class="st2" x1="740.4" y1="3550.4" x2="1659.5" y2="3550.4"/>
	<line id="선_348-3" class="st2" x1="740.4" y1="3615.4" x2="1659.5" y2="3615.4"/>
	<line id="선_348-4" class="st2" x1="740.4" y1="3680.4" x2="1659.5" y2="3680.4"/>
	<line id="선_348-5" class="st2" x1="740.4" y1="3745.4" x2="1659.5" y2="3745.4"/>
	<line id="선_348-6" class="st1" x1="740.4" y1="3810.4" x2="1659.5" y2="3810.4"/>
	<g class="st3">
		<path d="M874.8,3449.6c0,2.9,1.5,5.8,4,7l-1.1,1.5c-1.7-0.9-3-2.7-3.7-4.8c-0.7,2.2-2.1,4.1-3.9,5.1l-1.1-1.5
			c2.5-1.2,4.1-4.3,4.1-7.3v-2.7h1.9V3449.6z M884.2,3453.5h-2.5v8.3h-1.9v-16.3h1.9v6.4h2.5V3453.5z"/>
		<path d="M899.1,3445.5v8.7h-1.9v-3.5h-3c-0.3,1.8-2,3.1-4.1,3.1c-2.4,0-4.2-1.6-4.2-3.8c0-2.2,1.8-3.8,4.2-3.8
			c2.1,0,3.8,1.2,4.1,3h3v-3.7H899.1z M892.6,3450.1c0-1.4-1-2.3-2.4-2.3c-1.4,0-2.5,0.9-2.5,2.3c0,1.4,1,2.3,2.5,2.3
			C891.5,3452.4,892.6,3451.4,892.6,3450.1z M897.3,3455h1.8v6.6h-10.6v-6.6h1.8v1.8h6.9V3455z M897.3,3458.3h-6.9v1.8h6.9V3458.3z"
			/>
		<path d="M910.8,3454.6c-1.8-0.6-3.1-1.7-3.8-3.3c-0.7,1.7-2.1,3.1-4,3.8l-0.9-1.5c2.6-0.9,4-3,4-5.2v-0.3h-3.5v-1.5h8.7v1.5h-3.4
			v0.3c0,2,1.4,3.9,3.8,4.7L910.8,3454.6z M915.1,3458.7c0,1.9-2.1,3.1-5.4,3.1s-5.4-1.2-5.4-3.1c0-1.9,2.1-3.1,5.4-3.1
			S915.1,3456.8,915.1,3458.7z M913.2,3458.7c0-1.1-1.3-1.6-3.6-1.6s-3.6,0.6-3.6,1.6c0,1,1.3,1.6,3.6,1.6
			S913.2,3459.8,913.2,3458.7z M917.2,3449.5v1.5h-2.3v4.2H913v-9.7h1.9v4H917.2z"/>
	</g>
	<g class="st3">
		<path d="M892,3517.9v0.8h-6.7v4.1h-1v-4.1h-6.8v-0.8h11.1c0.5-2.2,0.5-3.8,0.5-5.1v-0.4h-9.7v-0.8H890v1.2c0,1.3,0,2.9-0.5,5.1
			H892z M880.3,3525.5h10v0.8h-11v-4.9h1V3525.5z"/>
		<path d="M902.7,3519.8c-1.8-0.7-3.4-2.2-4.1-4c-0.6,2.1-2.2,3.7-4.1,4.4l-0.5-0.8c2.3-0.9,4.1-3,4.1-5.7v-2.1h0.9v2.2
			c0,2.3,1.9,4.4,4.1,5.2L902.7,3519.8z M897.6,3525.5h9.5v0.8h-10.5v-4.9h1V3525.5z M908.8,3515.7v0.8h-2.5v6h-1v-11.9h1v5.1H908.8
			z"/>
	</g>
	<g class="st3">
		<path d="M892,3588.8v0.8h-14.5v-0.8h6.7v-4.1h-5.3v-0.8h2.7v-5.7h-2.7v-0.8h11.7v0.8h-2.7v5.7h2.7v0.8h-5.4v4.1H892z
			 M882.4,3583.8h4.4v-5.7h-4.4V3583.8z"/>
		<path d="M903.6,3578.4h-9.5v-0.8h4.3v-2.1h1v2.1h4.2V3578.4z M898.8,3585c-2.3,0-3.8-1.1-3.8-2.8s1.5-2.8,3.8-2.8
			c2.3,0,3.8,1.1,3.8,2.8S901.1,3585,898.8,3585z M898.8,3584.3c1.7,0,2.9-0.8,2.9-2s-1.2-2-2.9-2c-1.7,0-2.9,0.8-2.9,2
			S897.1,3584.3,898.8,3584.3z M906.5,3588.9c0,1.7-1.9,2.7-5.1,2.7c-3.2,0-5.1-1-5.1-2.7c0-1.7,1.9-2.7,5.1-2.7
			C904.6,3586.2,906.5,3587.2,906.5,3588.9z M905.6,3588.9c0-1.2-1.6-1.9-4.2-1.9c-2.6,0-4.2,0.7-4.2,1.9c0,1.2,1.6,1.9,4.2,1.9
			C903.9,3590.9,905.6,3590.1,905.6,3588.9z M908.8,3580.4v0.8h-2.5v4.9h-1v-10.4h1v4.7H908.8z"/>
	</g>
	<g class="st3">
		<path d="M887.6,3648.8c-3.3,0.5-7.2,0.6-10.1,0.6l-0.1-0.8c1.1,0,2.3,0,3.7,0v-3.4h1v3.3c1.9-0.1,3.8-0.2,5.5-0.4L887.6,3648.8z
			 M884.8,3646.8c0.5-1.9,0.5-3.3,0.5-4.2h-6.8v-0.8h7.7v0.8c0,1,0,2.4-0.4,4.4L884.8,3646.8z M889.9,3653.8c0,1.8-1.9,2.8-5.2,2.8
			c-3.2,0-5.1-1-5.1-2.8s1.9-2.8,5.1-2.8C887.9,3651,889.9,3652,889.9,3653.8z M888.9,3653.8c0-1.3-1.6-2-4.2-2
			c-2.6,0-4.2,0.8-4.2,2s1.7,2,4.2,2C887.3,3655.8,888.9,3655.1,888.9,3653.8z M892.2,3645.3v0.8h-2.5v4.7h-1v-10.1h1v4.6H892.2z"/>
		<path d="M898.5,3649.1c-2.4,0-4.1-1.5-4.1-3.7c0-2.2,1.7-3.7,4.1-3.7c2.4,0,4.1,1.5,4.1,3.7
			C902.6,3647.6,900.9,3649.1,898.5,3649.1z M898.5,3648.3c1.8,0,3.1-1.2,3.1-2.9c0-1.7-1.3-2.9-3.1-2.9c-1.8,0-3.2,1.2-3.2,2.9
			C895.4,3647,896.7,3648.3,898.5,3648.3z M906.5,3653.7c0,1.9-2,2.9-5.2,2.9c-3.2,0-5.1-1-5.1-2.9c0-1.8,2-2.9,5.1-2.9
			C904.5,3650.8,906.5,3651.9,906.5,3653.7z M905.5,3653.7c0-1.3-1.7-2.1-4.2-2.1c-2.6,0-4.2,0.8-4.2,2.1c0,1.3,1.7,2.1,4.2,2.1
			C903.9,3655.8,905.5,3655,905.5,3653.7z M906.3,3644.1v2.6h2.5v0.8h-2.5v2.7h-1v-9.6h1v2.7h2.5v0.8H906.3z"/>
	</g>
	<g class="st3">
		<path d="M884,3710.4c0,2.2-1.7,3.7-4.1,3.7c-2.4,0-4.1-1.5-4.1-3.7c0-2.2,1.7-3.7,4.1-3.7C882.3,3706.7,884,3708.2,884,3710.4z
			 M876.8,3710.4c0,1.7,1.3,2.9,3.1,2.9c1.8,0,3.1-1.2,3.1-2.9c0-1.7-1.3-2.9-3.1-2.9C878.2,3707.5,876.8,3708.7,876.8,3710.4z
			 M888.5,3716.2v5.5h-1v-4.6h-9.6v-0.8H888.5z M888.5,3705.7v9.6h-1v-9.6H888.5z"/>
		<path d="M900.7,3714.8c-1.8-0.7-3.4-2.2-4.1-4c-0.6,2.1-2.2,3.7-4.1,4.4l-0.5-0.8c2.3-0.9,4.1-3,4.1-5.7v-2.1h0.9v2.2
			c0,2.3,1.9,4.4,4.1,5.2L900.7,3714.8z M895.6,3720.5h9.5v0.8h-10.5v-4.9h1V3720.5z M906.8,3710.7v0.8h-2.5v6h-1v-11.9h1v5.1H906.8
			z"/>
	</g>
	<g class="st3">
		<path d="M1160.5,3449.6c0,3,1.7,6,4.2,7.1l-1.1,1.5c-1.9-0.9-3.3-2.7-4-4.9c-0.7,2.4-2.2,4.3-4.1,5.2l-1.1-1.5
			c2.6-1.2,4.3-4.3,4.3-7.4v-2.7h1.9V3449.6z M1167.9,3445.5v16.3h-1.9v-16.3H1167.9z"/>
		<path d="M1185.8,3458.2v1.5h-14.7v-1.5H1185.8z M1184.3,3455c-2.6-0.5-4.9-2.2-6-4.5c-1.1,2.2-3.3,3.9-6,4.5l-0.8-1.5
			c3.2-0.6,5.8-3.1,5.8-5.7v-1.2h2v1.2c0,2.6,2.6,5.1,5.8,5.7L1184.3,3455z"/>
		<path d="M1195.3,3454.1c-1.9,0.3-3.4,0.4-5.9,0.4h-1.1v-7.9h6.1v1.5h-4.3v1.7h3.7v1.4h-3.7v1.8c2.1,0,3.4-0.1,5-0.4L1195.3,3454.1
			z M1190.5,3456h10.8v5.6h-10.8V3456z M1192.4,3460.1h7.2v-2.6h-7.2V3460.1z M1196.5,3451h-1.9v-1.5h1.9v-3.7h1.7v9.4h-1.7V3451z
			 M1201.4,3445.5v9.8h-1.8v-9.8H1201.4z"/>
		<path d="M1212.9,3454.8c-2.4,0-4.3-1.7-4.3-4.1c0-2.4,1.9-4.1,4.3-4.1c2.4,0,4.3,1.7,4.3,4.1
			C1217.2,3453.1,1215.3,3454.8,1212.9,3454.8z M1212.9,3453.2c1.4,0,2.5-1,2.5-2.5c0-1.5-1.1-2.5-2.5-2.5c-1.4,0-2.5,1-2.5,2.5
			C1210.3,3452.2,1211.4,3453.2,1212.9,3453.2z M1222.1,3460v1.5H1211v-5.3h1.9v3.8H1222.1z M1221.6,3457.4h-1.9v-11.8h1.9V3457.4z"
			/>
		<path d="M1239.5,3453.2v1.5h-14.7v-1.5H1239.5z M1225.5,3450.9c3-0.3,5.1-1.6,5.4-3.1h-4.7v-1.5h12v1.5h-4.8
			c0.2,1.5,2.3,2.8,5.4,3.1l-0.6,1.4c-2.9-0.3-5.1-1.5-6-3.2c-0.9,1.7-3.1,2.8-6,3.2L1225.5,3450.9z M1237.7,3458.8
			c0,1.9-2.1,3-5.6,3c-3.5,0-5.6-1.1-5.6-3c0-1.9,2.1-3,5.6-3C1235.6,3455.8,1237.7,3456.9,1237.7,3458.8z M1235.8,3458.8
			c0-1-1.4-1.5-3.7-1.5s-3.7,0.5-3.7,1.5c0,1,1.3,1.5,3.7,1.5S1235.8,3459.8,1235.8,3458.8z"/>
	</g>
	<g class="st3">
		<path d="M1487.1,3456.2h-3.7v5.6h-1.9v-5.6h-3.7v5.6h-1.9v-5.6h-3.6v-1.5h14.7L1487.1,3456.2z M1473.9,3449.7
			c0-2.2,2.3-3.6,5.8-3.6c3.4,0,5.8,1.4,5.8,3.6c0,2.2-2.3,3.6-5.8,3.6C1476.3,3453.3,1473.9,3451.9,1473.9,3449.7z M1475.8,3449.7
			c0,1.3,1.5,2.1,3.9,2.1c2.3,0,3.9-0.8,3.9-2.1c0-1.3-1.5-2.1-3.9-2.1C1477.4,3447.6,1475.8,3448.4,1475.8,3449.7z"/>
		<path d="M1503.7,3458.5v1.5h-14.7v-1.5h3.7v-2.9c-1.2-0.5-1.8-1.4-1.8-2.4c0-1.9,2.1-3.1,5.4-3.1c3.3,0,5.4,1.1,5.4,3.1
			c0,1.1-0.6,1.9-1.8,2.4v2.9H1503.7z M1502.9,3449.3h-13.3v-1.5h5.7v-2h1.9v2h5.7V3449.3z M1492.7,3453.3c0,1,1.3,1.6,3.5,1.6
			c2.2,0,3.5-0.6,3.5-1.6c0-1.1-1.3-1.6-3.5-1.6C1494,3451.6,1492.7,3452.2,1492.7,3453.3z M1494.5,3458.5h3.6v-2.3
			c-0.6,0.1-1.1,0.1-1.8,0.1c-0.6,0-1.2,0-1.8-0.1V3458.5z"/>
		<path d="M1514.1,3447.3c0,4.8-1.9,8.9-7.5,11.6l-1-1.5c4.3-2.1,6.3-4.9,6.6-8.7h-5.8v-1.5H1514.1z M1518.9,3445.5v16.3h-1.9v-16.3
			H1518.9z"/>
		<path d="M1530.4,3446.8c0,4.3-2.9,7.4-7.6,8.8l-0.8-1.5c3.7-1.1,6-3.2,6.4-5.8h-5.7v-1.5H1530.4z M1526.3,3460h9.1v1.5h-10.9v-5.4
			h1.9V3460z M1537,3450.3v1.5h-2.3v5.5h-1.9v-11.8h1.9v4.8H1537z"/>
	</g>
	<g class="st3">
		<path d="M1158.6,3512.3h1.1v13.1h-1.1V3512.3z"/>
		<path d="M1162.5,3523.7l0.7-0.8c1,1.1,2.3,1.7,3.8,1.7c1.9,0,3.2-1,3.2-2.5c0-1.6-1-2.1-2.3-2.7l-2-0.9c-1.2-0.5-2.7-1.4-2.7-3.3
			c0-1.9,1.7-3.3,3.9-3.3c1.6,0,2.9,0.7,3.7,1.6l-0.6,0.7c-0.8-0.8-1.8-1.3-3.1-1.3c-1.7,0-2.8,0.9-2.8,2.2c0,1.5,1.3,2.1,2.2,2.5
			l2,0.9c1.5,0.7,2.8,1.5,2.8,3.5c0,2-1.7,3.6-4.2,3.6C1165.1,3525.7,1163.6,3524.9,1162.5,3523.7z"/>
		<path d="M1173.1,3518.8c0-4.2,2.3-6.8,5.4-6.8c3.2,0,5.5,2.6,5.5,6.8c0,4.2-2.3,6.8-5.5,6.8
			C1175.4,3525.7,1173.1,3523,1173.1,3518.8z M1182.9,3518.8c0-3.6-1.7-5.8-4.3-5.8c-2.6,0-4.3,2.2-4.3,5.8c0,3.6,1.7,5.9,4.3,5.9
			C1181.2,3524.7,1182.9,3522.4,1182.9,3518.8z"/>
		<path d="M1198.1,3521.7h-1.9v3.7h-1v-3.7h-5.8v-0.7l5.8-8.7h1v8.5h1.9V3521.7z M1195.3,3520.8v-4.8c0-0.6,0.1-1.6,0.1-2.2h-0.1
			c-0.3,0.6-0.7,1.2-1,1.8l-3.6,5.2H1195.3z"/>
		<path d="M1199.3,3523.9l0.6-0.7c0.8,0.8,1.7,1.5,3.4,1.5c1.7,0,3.1-1.4,3.1-3.5c0-2.1-1.2-3.4-3-3.4c-1,0-1.6,0.3-2.3,0.8
			l-0.7-0.4l0.5-6h6v0.9h-5.1l-0.4,4.4c0.6-0.4,1.3-0.6,2.2-0.6c2.2,0,3.9,1.3,3.9,4.2c0,2.8-2,4.4-4.1,4.4
			C1201.3,3525.7,1200.1,3524.8,1199.3,3523.9z"/>
		<path d="M1209.3,3518.8c0-4.6,1.5-6.8,3.9-6.8c2.4,0,3.9,2.2,3.9,6.8c0,4.6-1.5,6.8-3.9,6.8
			C1210.8,3525.7,1209.3,3523.4,1209.3,3518.8z M1216,3518.8c0-3.9-1.1-5.9-2.8-5.9c-1.7,0-2.8,2-2.8,5.9c0,4,1.1,6,2.8,6
			C1214.9,3524.8,1216,3522.8,1216,3518.8z"/>
		<path d="M1219,3518.8c0-4.6,1.5-6.8,3.9-6.8c2.4,0,3.9,2.2,3.9,6.8c0,4.6-1.5,6.8-3.9,6.8C1220.4,3525.7,1219,3523.4,1219,3518.8z
			 M1225.6,3518.8c0-3.9-1.1-5.9-2.8-5.9c-1.7,0-2.8,2-2.8,5.9c0,4,1.1,6,2.8,6C1224.5,3524.8,1225.6,3522.8,1225.6,3518.8z"/>
		<path d="M1229.3,3524.5h3v-10.7h-2.3v-0.7c1.1-0.2,1.9-0.5,2.5-0.8h0.8v12.2h2.7v0.9h-6.8V3524.5z"/>
	</g>
	<g class="st3">
		<path d="M1415.3,3524.8c4.4-3.8,6.2-6.5,6.2-8.9c0-1.6-0.8-2.9-2.7-2.9c-1.1,0-2.2,0.7-2.9,1.6l-0.7-0.6c1-1.1,2.1-1.9,3.7-1.9
			c2.3,0,3.6,1.5,3.6,3.8c0,2.8-2.1,5.5-5.6,8.8c0.7-0.1,1.5-0.1,2.2-0.1h4.1v0.9h-7.9V3524.8z"/>
		<path d="M1425.1,3518.8c0-4.6,1.5-6.8,3.9-6.8c2.4,0,3.9,2.2,3.9,6.8c0,4.6-1.5,6.8-3.9,6.8
			C1426.6,3525.7,1425.1,3523.4,1425.1,3518.8z M1431.8,3518.8c0-3.9-1.1-5.9-2.8-5.9c-1.7,0-2.8,2-2.8,5.9c0,4,1.1,6,2.8,6
			C1430.7,3524.8,1431.8,3522.8,1431.8,3518.8z"/>
		<path d="M1434.6,3524.8c4.4-3.8,6.2-6.5,6.2-8.9c0-1.6-0.8-2.9-2.7-2.9c-1.1,0-2.2,0.7-2.9,1.6l-0.7-0.6c1-1.1,2.1-1.9,3.7-1.9
			c2.3,0,3.6,1.5,3.6,3.8c0,2.8-2.1,5.5-5.6,8.8c0.7-0.1,1.5-0.1,2.2-0.1h4.1v0.9h-7.9V3524.8z"/>
		<path d="M1444.4,3518.8c0-4.6,1.5-6.8,3.9-6.8c2.4,0,3.9,2.2,3.9,6.8c0,4.6-1.5,6.8-3.9,6.8
			C1445.9,3525.7,1444.4,3523.4,1444.4,3518.8z M1451.1,3518.8c0-3.9-1.1-5.9-2.8-5.9c-1.7,0-2.8,2-2.8,5.9c0,4,1.1,6,2.8,6
			C1449.9,3524.8,1451.1,3522.8,1451.1,3518.8z"/>
		<path d="M1454.4,3524.7c0-0.6,0.4-1,0.9-1s0.9,0.4,0.9,1c0,0.6-0.4,1-0.9,1S1454.4,3525.3,1454.4,3524.7z"/>
		<path d="M1459.2,3524.5h3v-10.7h-2.3v-0.7c1.1-0.2,1.9-0.5,2.5-0.8h0.8v12.2h2.7v0.9h-6.8V3524.5z"/>
		<path d="M1468.8,3524.5h3v-10.7h-2.3v-0.7c1.1-0.2,1.9-0.5,2.5-0.8h0.8v12.2h2.7v0.9h-6.8V3524.5z"/>
		<path d="M1478.1,3524.7c0-0.6,0.4-1,0.9-1s0.9,0.4,0.9,1c0,0.6-0.4,1-0.9,1S1478.1,3525.3,1478.1,3524.7z"/>
		<path d="M1482.1,3524.8c4.4-3.8,6.2-6.5,6.2-8.9c0-1.6-0.8-2.9-2.7-2.9c-1.1,0-2.2,0.7-2.9,1.6l-0.7-0.6c1-1.1,2.1-1.9,3.7-1.9
			c2.3,0,3.6,1.5,3.6,3.8c0,2.8-2.1,5.5-5.6,8.8c0.7-0.1,1.5-0.1,2.2-0.1h4.1v0.9h-7.9V3524.8z"/>
		<path d="M1491.9,3518.8c0-4.6,1.5-6.8,3.9-6.8c2.4,0,3.9,2.2,3.9,6.8c0,4.6-1.5,6.8-3.9,6.8
			C1493.4,3525.7,1491.9,3523.4,1491.9,3518.8z M1498.6,3518.8c0-3.9-1.1-5.9-2.8-5.9c-1.7,0-2.8,2-2.8,5.9c0,4,1.1,6,2.8,6
			C1497.5,3524.8,1498.6,3522.8,1498.6,3518.8z"/>
		<path d="M1507.6,3518.4c-0.6,0-1.1,0.3-1.6,1.2l-0.6-0.4c0.6-1.2,1.4-1.7,2.3-1.7c1.5,0,2.4,1.8,3.6,1.8c0.6,0,1.1-0.3,1.6-1.2
			l0.6,0.4c-0.6,1.1-1.5,1.7-2.3,1.7C1509.6,3520.1,1508.7,3518.4,1507.6,3518.4z"/>
		<path d="M1519,3524.8c4.4-3.8,6.2-6.5,6.2-8.9c0-1.6-0.8-2.9-2.7-2.9c-1.1,0-2.2,0.7-2.9,1.6l-0.7-0.6c1-1.1,2.1-1.9,3.7-1.9
			c2.3,0,3.6,1.5,3.6,3.8c0,2.8-2.1,5.5-5.6,8.8c0.7-0.1,1.5-0.1,2.2-0.1h4.1v0.9h-7.9V3524.8z"/>
		<path d="M1528.8,3518.8c0-4.6,1.5-6.8,3.9-6.8c2.4,0,3.9,2.2,3.9,6.8c0,4.6-1.5,6.8-3.9,6.8
			C1530.3,3525.7,1528.8,3523.4,1528.8,3518.8z M1535.5,3518.8c0-3.9-1.1-5.9-2.8-5.9c-1.7,0-2.8,2-2.8,5.9c0,4,1.1,6,2.8,6
			C1534.3,3524.8,1535.5,3522.8,1535.5,3518.8z"/>
		<path d="M1538.3,3524.8c4.4-3.8,6.2-6.5,6.2-8.9c0-1.6-0.8-2.9-2.7-2.9c-1.1,0-2.2,0.7-2.9,1.6l-0.7-0.6c1-1.1,2.1-1.9,3.7-1.9
			c2.3,0,3.6,1.5,3.6,3.8c0,2.8-2.1,5.5-5.6,8.8c0.7-0.1,1.5-0.1,2.2-0.1h4.1v0.9h-7.9V3524.8z"/>
		<path d="M1548.7,3524.5h3v-10.7h-2.3v-0.7c1.1-0.2,1.9-0.5,2.5-0.8h0.8v12.2h2.7v0.9h-6.8V3524.5z"/>
		<path d="M1558,3524.7c0-0.6,0.4-1,0.9-1s0.9,0.4,0.9,1c0,0.6-0.4,1-0.9,1S1558,3525.3,1558,3524.7z"/>
		<path d="M1562.9,3524.5h3v-10.7h-2.3v-0.7c1.1-0.2,1.9-0.5,2.5-0.8h0.8v12.2h2.7v0.9h-6.8V3524.5z"/>
		<path d="M1572.5,3524.5h3v-10.7h-2.3v-0.7c1.1-0.2,1.9-0.5,2.5-0.8h0.8v12.2h2.7v0.9h-6.8V3524.5z"/>
		<path d="M1581.8,3524.7c0-0.6,0.4-1,0.9-1s0.9,0.4,0.9,1c0,0.6-0.4,1-0.9,1S1581.8,3525.3,1581.8,3524.7z"/>
		<path d="M1592.5,3513.2h-6.6v-0.9h7.9v0.6c-3.1,4.1-3.8,7.4-4,12.5h-1.1C1588.9,3520.2,1589.9,3516.8,1592.5,3513.2z"/>
	</g>
	<g class="st3">
		<path d="M1144,3577.3h1.1v7.1h0l6.2-7.1h1.3l-4.2,4.9l4.8,8.2h-1.2l-4.2-7.4l-2.6,3v4.4h-1.1V3577.3z"/>
		<path d="M1154,3583.8c0-4.2,2.3-6.8,5.4-6.8c3.2,0,5.5,2.6,5.5,6.8c0,4.2-2.3,6.8-5.5,6.8C1156.3,3590.7,1154,3588,1154,3583.8z
			 M1163.8,3583.8c0-3.6-1.7-5.8-4.3-5.8c-2.6,0-4.3,2.2-4.3,5.8c0,3.6,1.7,5.9,4.3,5.9C1162.1,3589.7,1163.8,3587.4,1163.8,3583.8z
			"/>
		<path d="M1166.9,3588.7l0.7-0.8c1,1.1,2.3,1.7,3.8,1.7c1.9,0,3.2-1,3.2-2.5c0-1.6-1-2.1-2.3-2.7l-2-0.9c-1.2-0.5-2.7-1.4-2.7-3.3
			c0-1.9,1.7-3.3,3.9-3.3c1.6,0,2.9,0.7,3.7,1.6l-0.6,0.7c-0.8-0.8-1.8-1.3-3.1-1.3c-1.7,0-2.8,0.9-2.8,2.2c0,1.5,1.3,2.1,2.2,2.5
			l2,0.9c1.5,0.7,2.8,1.5,2.8,3.5c0,2-1.7,3.6-4.2,3.6C1169.5,3590.7,1168,3589.9,1166.9,3588.7z"/>
		<path d="M1178.4,3577.3h1.1v5.7h6.8v-5.7h1.1v13.1h-1.1v-6.5h-6.8v6.5h-1.1V3577.3z"/>
		<path d="M1197.1,3586h-5.1l-1.5,4.4h-1.1l4.6-13.1h1.1l4.6,13.1h-1.2L1197.1,3586z M1196.8,3585.1l-0.8-2.4
			c-0.5-1.5-1-2.9-1.4-4.5h-0.1c-0.5,1.6-0.9,3-1.4,4.5l-0.8,2.4H1196.8z"/>
		<path d="M1205.5,3589.5h3v-10.7h-2.3v-0.7c1.1-0.2,1.9-0.5,2.5-0.8h0.8v12.2h2.7v0.9h-6.8V3589.5z"/>
		<path d="M1214.2,3587.2c0-1.8,1.3-3.1,2.5-3.7v-0.1c-0.9-0.6-1.8-1.6-1.8-3c0-1.9,1.5-3.2,3.4-3.2c2.2,0,3.5,1.5,3.5,3.4
			c0,1.4-1.1,2.7-1.8,3.3v0.1c1.1,0.7,2.2,1.6,2.2,3.4c0,1.9-1.6,3.3-3.9,3.3C1215.9,3590.7,1214.2,3589.2,1214.2,3587.2z
			 M1221.2,3587.3c0-2-1.8-2.7-3.8-3.5c-1.2,0.7-2.1,1.9-2.1,3.3c0,1.5,1.3,2.7,3.1,2.7C1220,3589.8,1221.2,3588.7,1221.2,3587.3z
			 M1220.8,3580.6c0-1.4-0.9-2.6-2.5-2.6c-1.4,0-2.4,1-2.4,2.4c0,1.8,1.6,2.5,3.3,3.2C1220.3,3582.7,1220.8,3581.7,1220.8,3580.6z"
			/>
		<path d="M1224,3583.8c0-4.6,1.5-6.8,3.9-6.8c2.4,0,3.9,2.2,3.9,6.8c0,4.6-1.5,6.8-3.9,6.8C1225.5,3590.7,1224,3588.4,1224,3583.8z
			 M1230.7,3583.8c0-3.9-1.1-5.9-2.8-5.9c-1.7,0-2.8,2-2.8,5.9c0,4,1.1,6,2.8,6C1229.6,3589.8,1230.7,3587.8,1230.7,3583.8z"/>
		<path d="M1233.6,3583.8c0-4.6,1.5-6.8,3.9-6.8c2.4,0,3.9,2.2,3.9,6.8c0,4.6-1.5,6.8-3.9,6.8
			C1235.1,3590.7,1233.6,3588.4,1233.6,3583.8z M1240.3,3583.8c0-3.9-1.1-5.9-2.8-5.9c-1.7,0-2.8,2-2.8,5.9c0,4,1.1,6,2.8,6
			C1239.2,3589.8,1240.3,3587.8,1240.3,3583.8z"/>
		<path d="M1244,3589.5h3v-10.7h-2.3v-0.7c1.1-0.2,1.9-0.5,2.5-0.8h0.8v12.2h2.7v0.9h-6.8V3589.5z"/>
	</g>
	<g class="st3">
		<path d="M1425,3589.8c4.4-3.8,6.2-6.5,6.2-8.9c0-1.6-0.8-2.9-2.7-2.9c-1.1,0-2.2,0.7-2.9,1.6l-0.7-0.6c1-1.1,2.1-1.9,3.7-1.9
			c2.3,0,3.6,1.5,3.6,3.8c0,2.8-2.1,5.5-5.6,8.8c0.7-0.1,1.5-0.1,2.2-0.1h4.1v0.9h-7.9V3589.8z"/>
		<path d="M1434.7,3583.8c0-4.6,1.5-6.8,3.9-6.8c2.4,0,3.9,2.2,3.9,6.8c0,4.6-1.5,6.8-3.9,6.8
			C1436.2,3590.7,1434.7,3588.4,1434.7,3583.8z M1441.4,3583.8c0-3.9-1.1-5.9-2.8-5.9c-1.7,0-2.8,2-2.8,5.9c0,4,1.1,6,2.8,6
			C1440.3,3589.8,1441.4,3587.8,1441.4,3583.8z"/>
		<path d="M1445.1,3589.5h3v-10.7h-2.3v-0.7c1.1-0.2,1.9-0.5,2.5-0.8h0.8v12.2h2.7v0.9h-6.8V3589.5z"/>
		<path d="M1454.8,3588.7c0.6,0.7,1.4,1,2.3,1c1.8,0,3.5-1.6,3.6-6.1c-0.9,1-2,1.7-3.2,1.7c-2.2,0-3.5-1.5-3.5-4.1
			c0-2.5,1.6-4.2,3.5-4.2c2.5,0,4.2,2.1,4.2,6.1c0,5.5-2.2,7.5-4.6,7.5c-1.3,0-2.2-0.5-2.9-1.3L1454.8,3588.7z M1460.6,3582.6
			c-0.1-2.9-1.2-4.7-3.2-4.7c-1.4,0-2.5,1.4-2.5,3.3c0,1.9,0.8,3.3,2.6,3.3C1458.5,3584.5,1459.6,3584,1460.6,3582.6z"/>
		<path d="M1464,3589.7c0-0.6,0.4-1,0.9-1c0.5,0,0.9,0.4,0.9,1c0,0.6-0.4,1-0.9,1C1464.4,3590.7,1464,3590.3,1464,3589.7z"/>
		<path d="M1467.7,3588.9l0.6-0.7c0.8,0.8,1.7,1.5,3.4,1.5c1.7,0,3.1-1.4,3.1-3.5c0-2.1-1.2-3.4-3-3.4c-1,0-1.6,0.3-2.3,0.8
			l-0.7-0.4l0.5-6h6v0.9h-5.1l-0.4,4.4c0.6-0.4,1.3-0.6,2.2-0.6c2.2,0,3.9,1.3,3.9,4.2c0,2.8-2,4.4-4.1,4.4
			C1469.7,3590.7,1468.5,3589.8,1467.7,3588.9z"/>
		<path d="M1478.1,3589.7c0-0.6,0.4-1,0.9-1c0.5,0,0.9,0.4,0.9,1c0,0.6-0.4,1-0.9,1C1478.6,3590.7,1478.1,3590.3,1478.1,3589.7z"/>
		<path d="M1483,3589.5h3v-10.7h-2.3v-0.7c1.1-0.2,1.9-0.5,2.5-0.8h0.8v12.2h2.7v0.9h-6.8V3589.5z"/>
		<path d="M1491.9,3583.8c0-4.6,1.5-6.8,3.9-6.8c2.4,0,3.9,2.2,3.9,6.8c0,4.6-1.5,6.8-3.9,6.8
			C1493.4,3590.7,1491.9,3588.4,1491.9,3583.8z M1498.6,3583.8c0-3.9-1.1-5.9-2.8-5.9c-1.7,0-2.8,2-2.8,5.9c0,4,1.1,6,2.8,6
			C1497.5,3589.8,1498.6,3587.8,1498.6,3583.8z"/>
		<path d="M1507.6,3583.4c-0.6,0-1.1,0.3-1.6,1.2l-0.6-0.4c0.6-1.2,1.4-1.7,2.3-1.7c1.5,0,2.4,1.8,3.6,1.8c0.6,0,1.1-0.3,1.6-1.2
			l0.6,0.4c-0.6,1.1-1.5,1.7-2.3,1.7C1509.6,3585.1,1508.7,3583.4,1507.6,3583.4z"/>
		<path d="M1519,3589.8c4.4-3.8,6.2-6.5,6.2-8.9c0-1.6-0.8-2.9-2.7-2.9c-1.1,0-2.2,0.7-2.9,1.6l-0.7-0.6c1-1.1,2.1-1.9,3.7-1.9
			c2.3,0,3.6,1.5,3.6,3.8c0,2.8-2.1,5.5-5.6,8.8c0.7-0.1,1.5-0.1,2.2-0.1h4.1v0.9h-7.9V3589.8z"/>
		<path d="M1528.8,3583.8c0-4.6,1.5-6.8,3.9-6.8c2.4,0,3.9,2.2,3.9,6.8c0,4.6-1.5,6.8-3.9,6.8
			C1530.3,3590.7,1528.8,3588.4,1528.8,3583.8z M1535.5,3583.8c0-3.9-1.1-5.9-2.8-5.9c-1.7,0-2.8,2-2.8,5.9c0,4,1.1,6,2.8,6
			C1534.3,3589.8,1535.5,3587.8,1535.5,3583.8z"/>
		<path d="M1538.3,3589.8c4.4-3.8,6.2-6.5,6.2-8.9c0-1.6-0.8-2.9-2.7-2.9c-1.1,0-2.2,0.7-2.9,1.6l-0.7-0.6c1-1.1,2.1-1.9,3.7-1.9
			c2.3,0,3.6,1.5,3.6,3.8c0,2.8-2.1,5.5-5.6,8.8c0.7-0.1,1.5-0.1,2.2-0.1h4.1v0.9h-7.9V3589.8z"/>
		<path d="M1547.9,3589.8c4.4-3.8,6.2-6.5,6.2-8.9c0-1.6-0.8-2.9-2.7-2.9c-1.1,0-2.2,0.7-2.9,1.6l-0.7-0.6c1-1.1,2.1-1.9,3.7-1.9
			c2.3,0,3.6,1.5,3.6,3.8c0,2.8-2.1,5.5-5.6,8.8c0.7-0.1,1.5-0.1,2.2-0.1h4.1v0.9h-7.9V3589.8z"/>
		<path d="M1558,3589.7c0-0.6,0.4-1,0.9-1s0.9,0.4,0.9,1c0,0.6-0.4,1-0.9,1S1558,3590.3,1558,3589.7z"/>
		<path d="M1561.7,3588.9l0.6-0.7c0.8,0.8,1.7,1.5,3.4,1.5c1.7,0,3.1-1.4,3.1-3.5c0-2.1-1.2-3.4-3-3.4c-1,0-1.6,0.3-2.3,0.8
			l-0.7-0.4l0.5-6h6v0.9h-5.1l-0.4,4.4c0.6-0.4,1.3-0.6,2.2-0.6c2.2,0,3.9,1.3,3.9,4.2c0,2.8-2,4.4-4.1,4.4
			C1563.7,3590.7,1562.6,3589.8,1561.7,3588.9z"/>
		<path d="M1572.2,3589.7c0-0.6,0.4-1,0.9-1s0.9,0.4,0.9,1c0,0.6-0.4,1-0.9,1S1572.2,3590.3,1572.2,3589.7z"/>
		<path d="M1577.1,3588.7c0.6,0.7,1.4,1,2.3,1c1.8,0,3.5-1.6,3.6-6.1c-0.9,1-2,1.7-3.2,1.7c-2.2,0-3.5-1.5-3.5-4.1
			c0-2.5,1.6-4.2,3.5-4.2c2.5,0,4.2,2.1,4.2,6.1c0,5.5-2.2,7.5-4.6,7.5c-1.3,0-2.2-0.5-2.9-1.3L1577.1,3588.7z M1582.9,3582.6
			c-0.1-2.9-1.2-4.7-3.2-4.7c-1.4,0-2.5,1.4-2.5,3.3c0,1.9,0.8,3.3,2.6,3.3C1580.8,3584.5,1581.9,3584,1582.9,3582.6z"/>
	</g>
	<g class="st3">
		<path d="M1158.6,3642.3h1.1v13.1h-1.1V3642.3z"/>
		<path d="M1162.5,3653.7l0.7-0.8c1,1.1,2.3,1.7,3.8,1.7c1.9,0,3.2-1,3.2-2.5c0-1.6-1-2.1-2.3-2.7l-2-0.9c-1.2-0.5-2.7-1.4-2.7-3.3
			c0-1.9,1.7-3.3,3.9-3.3c1.6,0,2.9,0.7,3.7,1.6l-0.6,0.7c-0.8-0.8-1.8-1.3-3.1-1.3c-1.7,0-2.8,0.9-2.8,2.2c0,1.5,1.3,2.1,2.2,2.5
			l2,0.9c1.5,0.7,2.8,1.5,2.8,3.5c0,2-1.7,3.6-4.2,3.6C1165.1,3655.7,1163.6,3654.9,1162.5,3653.7z"/>
		<path d="M1173.1,3648.8c0-4.2,2.3-6.8,5.4-6.8c3.2,0,5.5,2.6,5.5,6.8c0,4.2-2.3,6.8-5.5,6.8
			C1175.4,3655.7,1173.1,3653,1173.1,3648.8z M1182.9,3648.8c0-3.6-1.7-5.8-4.3-5.8c-2.6,0-4.3,2.2-4.3,5.8c0,3.6,1.7,5.9,4.3,5.9
			C1181.2,3654.7,1182.9,3652.4,1182.9,3648.8z"/>
		<path d="M1198.1,3651.7h-1.9v3.7h-1v-3.7h-5.8v-0.7l5.8-8.7h1v8.5h1.9V3651.7z M1195.3,3650.8v-4.8c0-0.6,0.1-1.6,0.1-2.2h-0.1
			c-0.3,0.6-0.7,1.2-1,1.8l-3.6,5.2H1195.3z"/>
		<path d="M1199.3,3653.9l0.6-0.7c0.8,0.8,1.7,1.5,3.4,1.5c1.7,0,3.1-1.4,3.1-3.5c0-2.1-1.2-3.4-3-3.4c-1,0-1.6,0.3-2.3,0.8
			l-0.7-0.4l0.5-6h6v0.9h-5.1l-0.4,4.4c0.6-0.4,1.3-0.6,2.2-0.6c2.2,0,3.9,1.3,3.9,4.2c0,2.8-2,4.4-4.1,4.4
			C1201.3,3655.7,1200.1,3654.8,1199.3,3653.9z"/>
		<path d="M1209.3,3648.8c0-4.6,1.5-6.8,3.9-6.8c2.4,0,3.9,2.2,3.9,6.8c0,4.6-1.5,6.8-3.9,6.8
			C1210.8,3655.7,1209.3,3653.4,1209.3,3648.8z M1216,3648.8c0-3.9-1.1-5.9-2.8-5.9c-1.7,0-2.8,2-2.8,5.9c0,4,1.1,6,2.8,6
			C1214.9,3654.8,1216,3652.8,1216,3648.8z"/>
		<path d="M1219,3648.8c0-4.6,1.5-6.8,3.9-6.8c2.4,0,3.9,2.2,3.9,6.8c0,4.6-1.5,6.8-3.9,6.8C1220.4,3655.7,1219,3653.4,1219,3648.8z
			 M1225.6,3648.8c0-3.9-1.1-5.9-2.8-5.9c-1.7,0-2.8,2-2.8,5.9c0,4,1.1,6,2.8,6C1224.5,3654.8,1225.6,3652.8,1225.6,3648.8z"/>
		<path d="M1229.3,3654.5h3v-10.7h-2.3v-0.7c1.1-0.2,1.9-0.5,2.5-0.8h0.8v12.2h2.7v0.9h-6.8V3654.5z"/>
	</g>
	<g class="st3">
		<path d="M1415.3,3654.8c4.4-3.8,6.2-6.5,6.2-8.9c0-1.6-0.8-2.9-2.7-2.9c-1.1,0-2.2,0.7-2.9,1.6l-0.7-0.6c1-1.1,2.1-1.9,3.7-1.9
			c2.3,0,3.6,1.5,3.6,3.8c0,2.8-2.1,5.5-5.6,8.8c0.7-0.1,1.5-0.1,2.2-0.1h4.1v0.9h-7.9V3654.8z"/>
		<path d="M1425.1,3648.8c0-4.6,1.5-6.8,3.9-6.8c2.4,0,3.9,2.2,3.9,6.8c0,4.6-1.5,6.8-3.9,6.8
			C1426.6,3655.7,1425.1,3653.4,1425.1,3648.8z M1431.8,3648.8c0-3.9-1.1-5.9-2.8-5.9c-1.7,0-2.8,2-2.8,5.9c0,4,1.1,6,2.8,6
			C1430.7,3654.8,1431.8,3652.8,1431.8,3648.8z"/>
		<path d="M1434.6,3654.8c4.4-3.8,6.2-6.5,6.2-8.9c0-1.6-0.8-2.9-2.7-2.9c-1.1,0-2.2,0.7-2.9,1.6l-0.7-0.6c1-1.1,2.1-1.9,3.7-1.9
			c2.3,0,3.6,1.5,3.6,3.8c0,2.8-2.1,5.5-5.6,8.8c0.7-0.1,1.5-0.1,2.2-0.1h4.1v0.9h-7.9V3654.8z"/>
		<path d="M1444.4,3648.8c0-4.6,1.5-6.8,3.9-6.8c2.4,0,3.9,2.2,3.9,6.8c0,4.6-1.5,6.8-3.9,6.8
			C1445.9,3655.7,1444.4,3653.4,1444.4,3648.8z M1451.1,3648.8c0-3.9-1.1-5.9-2.8-5.9c-1.7,0-2.8,2-2.8,5.9c0,4,1.1,6,2.8,6
			C1449.9,3654.8,1451.1,3652.8,1451.1,3648.8z"/>
		<path d="M1454.4,3654.7c0-0.6,0.4-1,0.9-1s0.9,0.4,0.9,1c0,0.6-0.4,1-0.9,1S1454.4,3655.3,1454.4,3654.7z"/>
		<path d="M1459.2,3654.5h3v-10.7h-2.3v-0.7c1.1-0.2,1.9-0.5,2.5-0.8h0.8v12.2h2.7v0.9h-6.8V3654.5z"/>
		<path d="M1468.8,3654.5h3v-10.7h-2.3v-0.7c1.1-0.2,1.9-0.5,2.5-0.8h0.8v12.2h2.7v0.9h-6.8V3654.5z"/>
		<path d="M1478.1,3654.7c0-0.6,0.4-1,0.9-1s0.9,0.4,0.9,1c0,0.6-0.4,1-0.9,1S1478.1,3655.3,1478.1,3654.7z"/>
		<path d="M1482.1,3654.8c4.4-3.8,6.2-6.5,6.2-8.9c0-1.6-0.8-2.9-2.7-2.9c-1.1,0-2.2,0.7-2.9,1.6l-0.7-0.6c1-1.1,2.1-1.9,3.7-1.9
			c2.3,0,3.6,1.5,3.6,3.8c0,2.8-2.1,5.5-5.6,8.8c0.7-0.1,1.5-0.1,2.2-0.1h4.1v0.9h-7.9V3654.8z"/>
		<path d="M1491.9,3648.8c0-4.6,1.5-6.8,3.9-6.8c2.4,0,3.9,2.2,3.9,6.8c0,4.6-1.5,6.8-3.9,6.8
			C1493.4,3655.7,1491.9,3653.4,1491.9,3648.8z M1498.6,3648.8c0-3.9-1.1-5.9-2.8-5.9c-1.7,0-2.8,2-2.8,5.9c0,4,1.1,6,2.8,6
			C1497.5,3654.8,1498.6,3652.8,1498.6,3648.8z"/>
		<path d="M1507.6,3648.4c-0.6,0-1.1,0.3-1.6,1.2l-0.6-0.4c0.6-1.2,1.4-1.7,2.3-1.7c1.5,0,2.4,1.8,3.6,1.8c0.6,0,1.1-0.3,1.6-1.2
			l0.6,0.4c-0.6,1.1-1.5,1.7-2.3,1.7C1509.6,3650.1,1508.7,3648.4,1507.6,3648.4z"/>
		<path d="M1519,3654.8c4.4-3.8,6.2-6.5,6.2-8.9c0-1.6-0.8-2.9-2.7-2.9c-1.1,0-2.2,0.7-2.9,1.6l-0.7-0.6c1-1.1,2.1-1.9,3.7-1.9
			c2.3,0,3.6,1.5,3.6,3.8c0,2.8-2.1,5.5-5.6,8.8c0.7-0.1,1.5-0.1,2.2-0.1h4.1v0.9h-7.9V3654.8z"/>
		<path d="M1528.8,3648.8c0-4.6,1.5-6.8,3.9-6.8c2.4,0,3.9,2.2,3.9,6.8c0,4.6-1.5,6.8-3.9,6.8
			C1530.3,3655.7,1528.8,3653.4,1528.8,3648.8z M1535.5,3648.8c0-3.9-1.1-5.9-2.8-5.9c-1.7,0-2.8,2-2.8,5.9c0,4,1.1,6,2.8,6
			C1534.3,3654.8,1535.5,3652.8,1535.5,3648.8z"/>
		<path d="M1538.3,3654.8c4.4-3.8,6.2-6.5,6.2-8.9c0-1.6-0.8-2.9-2.7-2.9c-1.1,0-2.2,0.7-2.9,1.6l-0.7-0.6c1-1.1,2.1-1.9,3.7-1.9
			c2.3,0,3.6,1.5,3.6,3.8c0,2.8-2.1,5.5-5.6,8.8c0.7-0.1,1.5-0.1,2.2-0.1h4.1v0.9h-7.9V3654.8z"/>
		<path d="M1548.7,3654.5h3v-10.7h-2.3v-0.7c1.1-0.2,1.9-0.5,2.5-0.8h0.8v12.2h2.7v0.9h-6.8V3654.5z"/>
		<path d="M1558,3654.7c0-0.6,0.4-1,0.9-1s0.9,0.4,0.9,1c0,0.6-0.4,1-0.9,1S1558,3655.3,1558,3654.7z"/>
		<path d="M1562.9,3654.5h3v-10.7h-2.3v-0.7c1.1-0.2,1.9-0.5,2.5-0.8h0.8v12.2h2.7v0.9h-6.8V3654.5z"/>
		<path d="M1572.5,3654.5h3v-10.7h-2.3v-0.7c1.1-0.2,1.9-0.5,2.5-0.8h0.8v12.2h2.7v0.9h-6.8V3654.5z"/>
		<path d="M1581.8,3654.7c0-0.6,0.4-1,0.9-1s0.9,0.4,0.9,1c0,0.6-0.4,1-0.9,1S1581.8,3655.3,1581.8,3654.7z"/>
		<path d="M1592.5,3643.2h-6.6v-0.9h7.9v0.6c-3.1,4.1-3.8,7.4-4,12.5h-1.1C1588.9,3650.2,1589.9,3646.8,1592.5,3643.2z"/>
	</g>
	<g class="st3">
		<path d="M1144,3707.3h1.1v7.1h0l6.2-7.1h1.3l-4.2,4.9l4.8,8.2h-1.2l-4.2-7.4l-2.6,3v4.4h-1.1V3707.3z"/>
		<path d="M1154,3713.8c0-4.2,2.3-6.8,5.4-6.8c3.2,0,5.5,2.6,5.5,6.8c0,4.2-2.3,6.8-5.5,6.8C1156.3,3720.7,1154,3718,1154,3713.8z
			 M1163.8,3713.8c0-3.6-1.7-5.8-4.3-5.8c-2.6,0-4.3,2.2-4.3,5.8c0,3.6,1.7,5.9,4.3,5.9C1162.1,3719.7,1163.8,3717.4,1163.8,3713.8z
			"/>
		<path d="M1166.9,3718.7l0.7-0.8c1,1.1,2.3,1.7,3.8,1.7c1.9,0,3.2-1,3.2-2.5c0-1.6-1-2.1-2.3-2.7l-2-0.9c-1.2-0.5-2.7-1.4-2.7-3.3
			c0-1.9,1.7-3.3,3.9-3.3c1.6,0,2.9,0.7,3.7,1.6l-0.6,0.7c-0.8-0.8-1.8-1.3-3.1-1.3c-1.7,0-2.8,0.9-2.8,2.2c0,1.5,1.3,2.1,2.2,2.5
			l2,0.9c1.5,0.7,2.8,1.5,2.8,3.5c0,2-1.7,3.6-4.2,3.6C1169.5,3720.7,1168,3719.9,1166.9,3718.7z"/>
		<path d="M1178.4,3707.3h1.1v5.7h6.8v-5.7h1.1v13.1h-1.1v-6.5h-6.8v6.5h-1.1V3707.3z"/>
		<path d="M1197.1,3716h-5.1l-1.5,4.4h-1.1l4.6-13.1h1.1l4.6,13.1h-1.2L1197.1,3716z M1196.8,3715.1l-0.8-2.4
			c-0.5-1.5-1-2.9-1.4-4.5h-0.1c-0.5,1.6-0.9,3-1.4,4.5l-0.8,2.4H1196.8z"/>
		<path d="M1205.5,3719.5h3v-10.7h-2.3v-0.7c1.1-0.2,1.9-0.5,2.5-0.8h0.8v12.2h2.7v0.9h-6.8V3719.5z"/>
		<path d="M1214.2,3717.2c0-1.8,1.3-3.1,2.5-3.7v-0.1c-0.9-0.6-1.8-1.6-1.8-3c0-1.9,1.5-3.2,3.4-3.2c2.2,0,3.5,1.5,3.5,3.4
			c0,1.4-1.1,2.7-1.8,3.3v0.1c1.1,0.7,2.2,1.6,2.2,3.4c0,1.9-1.6,3.3-3.9,3.3C1215.9,3720.7,1214.2,3719.2,1214.2,3717.2z
			 M1221.2,3717.3c0-2-1.8-2.7-3.8-3.5c-1.2,0.7-2.1,1.9-2.1,3.3c0,1.5,1.3,2.7,3.1,2.7C1220,3719.8,1221.2,3718.7,1221.2,3717.3z
			 M1220.8,3710.6c0-1.4-0.9-2.6-2.5-2.6c-1.4,0-2.4,1-2.4,2.4c0,1.8,1.6,2.5,3.3,3.2C1220.3,3712.7,1220.8,3711.7,1220.8,3710.6z"
			/>
		<path d="M1224,3713.8c0-4.6,1.5-6.8,3.9-6.8c2.4,0,3.9,2.2,3.9,6.8c0,4.6-1.5,6.8-3.9,6.8C1225.5,3720.7,1224,3718.4,1224,3713.8z
			 M1230.7,3713.8c0-3.9-1.1-5.9-2.8-5.9c-1.7,0-2.8,2-2.8,5.9c0,4,1.1,6,2.8,6C1229.6,3719.8,1230.7,3717.8,1230.7,3713.8z"/>
		<path d="M1233.6,3713.8c0-4.6,1.5-6.8,3.9-6.8c2.4,0,3.9,2.2,3.9,6.8c0,4.6-1.5,6.8-3.9,6.8
			C1235.1,3720.7,1233.6,3718.4,1233.6,3713.8z M1240.3,3713.8c0-3.9-1.1-5.9-2.8-5.9c-1.7,0-2.8,2-2.8,5.9c0,4,1.1,6,2.8,6
			C1239.2,3719.8,1240.3,3717.8,1240.3,3713.8z"/>
		<path d="M1244,3719.5h3v-10.7h-2.3v-0.7c1.1-0.2,1.9-0.5,2.5-0.8h0.8v12.2h2.7v0.9h-6.8V3719.5z"/>
	</g>
	<g class="st3">
		<path d="M1420.2,3719.8c4.4-3.8,6.2-6.5,6.2-8.9c0-1.6-0.8-2.9-2.7-2.9c-1.1,0-2.2,0.7-2.9,1.6l-0.7-0.6c1-1.1,2.1-1.9,3.7-1.9
			c2.3,0,3.6,1.5,3.6,3.8c0,2.8-2.1,5.5-5.6,8.8c0.7-0.1,1.5-0.1,2.2-0.1h4.1v0.9h-7.9V3719.8z"/>
		<path d="M1429.9,3713.8c0-4.6,1.5-6.8,3.9-6.8c2.4,0,3.9,2.2,3.9,6.8c0,4.6-1.5,6.8-3.9,6.8
			C1431.4,3720.7,1429.9,3718.4,1429.9,3713.8z M1436.6,3713.8c0-3.9-1.1-5.9-2.8-5.9c-1.7,0-2.8,2-2.8,5.9c0,4,1.1,6,2.8,6
			C1435.5,3719.8,1436.6,3717.8,1436.6,3713.8z"/>
		<path d="M1439.4,3719.8c4.4-3.8,6.2-6.5,6.2-8.9c0-1.6-0.8-2.9-2.7-2.9c-1.1,0-2.2,0.7-2.9,1.6l-0.7-0.6c1-1.1,2.1-1.9,3.7-1.9
			c2.3,0,3.6,1.5,3.6,3.8c0,2.8-2.1,5.5-5.6,8.8c0.7-0.1,1.5-0.1,2.2-0.1h4.1v0.9h-7.9V3719.8z"/>
		<path d="M1449.2,3713.8c0-4.6,1.5-6.8,3.9-6.8c2.4,0,3.9,2.2,3.9,6.8c0,4.6-1.5,6.8-3.9,6.8
			C1450.7,3720.7,1449.2,3718.4,1449.2,3713.8z M1455.9,3713.8c0-3.9-1.1-5.9-2.8-5.9c-1.7,0-2.8,2-2.8,5.9c0,4,1.1,6,2.8,6
			C1454.8,3719.8,1455.9,3717.8,1455.9,3713.8z"/>
		<path d="M1459.2,3719.7c0-0.6,0.4-1,0.9-1s0.9,0.4,0.9,1c0,0.6-0.4,1-0.9,1S1459.2,3720.3,1459.2,3719.7z"/>
		<path d="M1469.9,3708.2h-6.6v-0.9h7.9v0.6c-3.1,4.1-3.8,7.4-4,12.5h-1.1C1466.3,3715.2,1467.3,3711.8,1469.9,3708.2z"/>
		<path d="M1473.3,3719.7c0-0.6,0.4-1,0.9-1s0.9,0.4,0.9,1c0,0.6-0.4,1-0.9,1S1473.3,3720.3,1473.3,3719.7z"/>
		<path d="M1477.3,3719.8c4.4-3.8,6.2-6.5,6.2-8.9c0-1.6-0.8-2.9-2.7-2.9c-1.1,0-2.2,0.7-2.9,1.6l-0.7-0.6c1-1.1,2.1-1.9,3.7-1.9
			c2.3,0,3.6,1.5,3.6,3.8c0,2.8-2.1,5.5-5.6,8.8c0.7-0.1,1.5-0.1,2.2-0.1h4.1v0.9h-7.9V3719.8z"/>
		<path d="M1487.1,3713.8c0-4.6,1.5-6.8,3.9-6.8c2.4,0,3.9,2.2,3.9,6.8c0,4.6-1.5,6.8-3.9,6.8
			C1488.6,3720.7,1487.1,3718.4,1487.1,3713.8z M1493.8,3713.8c0-3.9-1.1-5.9-2.8-5.9c-1.7,0-2.8,2-2.8,5.9c0,4,1.1,6,2.8,6
			C1492.6,3719.8,1493.8,3717.8,1493.8,3713.8z"/>
		<path d="M1502.7,3713.4c-0.6,0-1.1,0.3-1.6,1.2l-0.6-0.4c0.6-1.2,1.4-1.7,2.3-1.7c1.5,0,2.4,1.8,3.6,1.8c0.6,0,1.1-0.3,1.6-1.2
			l0.6,0.4c-0.6,1.1-1.5,1.7-2.3,1.7C1504.8,3715.1,1503.9,3713.4,1502.7,3713.4z"/>
		<path d="M1514.2,3719.8c4.4-3.8,6.2-6.5,6.2-8.9c0-1.6-0.8-2.9-2.7-2.9c-1.1,0-2.2,0.7-2.9,1.6l-0.7-0.6c1-1.1,2.1-1.9,3.7-1.9
			c2.3,0,3.6,1.5,3.6,3.8c0,2.8-2.1,5.5-5.6,8.8c0.7-0.1,1.5-0.1,2.2-0.1h4.1v0.9h-7.9V3719.8z"/>
		<path d="M1524,3713.8c0-4.6,1.5-6.8,3.9-6.8c2.4,0,3.9,2.2,3.9,6.8c0,4.6-1.5,6.8-3.9,6.8C1525.4,3720.7,1524,3718.4,1524,3713.8z
			 M1530.6,3713.8c0-3.9-1.1-5.9-2.8-5.9c-1.7,0-2.8,2-2.8,5.9c0,4,1.1,6,2.8,6C1529.5,3719.8,1530.6,3717.8,1530.6,3713.8z"/>
		<path d="M1533.5,3719.8c4.4-3.8,6.2-6.5,6.2-8.9c0-1.6-0.8-2.9-2.7-2.9c-1.1,0-2.2,0.7-2.9,1.6l-0.7-0.6c1-1.1,2.1-1.9,3.7-1.9
			c2.3,0,3.6,1.5,3.6,3.8c0,2.8-2.1,5.5-5.6,8.8c0.7-0.1,1.5-0.1,2.2-0.1h4.1v0.9h-7.9V3719.8z"/>
		<path d="M1543.1,3719.8c4.4-3.8,6.2-6.5,6.2-8.9c0-1.6-0.8-2.9-2.7-2.9c-1.1,0-2.2,0.7-2.9,1.6l-0.7-0.6c1-1.1,2.1-1.9,3.7-1.9
			c2.3,0,3.6,1.5,3.6,3.8c0,2.8-2.1,5.5-5.6,8.8c0.7-0.1,1.5-0.1,2.2-0.1h4.1v0.9h-7.9V3719.8z"/>
		<path d="M1553.2,3719.7c0-0.6,0.4-1,0.9-1c0.5,0,0.9,0.4,0.9,1c0,0.6-0.4,1-0.9,1C1553.7,3720.7,1553.2,3720.3,1553.2,3719.7z"/>
		<path d="M1564.3,3709c-0.6-0.7-1.3-1-2.1-1c-2,0-3.7,1.6-3.7,6.1c0.9-1.1,2-1.7,3.2-1.7c2.2,0,3.6,1.4,3.6,4.1
			c0,2.5-1.6,4.2-3.5,4.2c-2.5,0-4.2-2.3-4.2-6.4c0-5.3,2.2-7.2,4.7-7.2c1.2,0,2.1,0.5,2.8,1.3L1564.3,3709z M1564.2,3716.5
			c0-1.9-0.8-3.3-2.7-3.3c-0.9,0-2,0.5-3,1.9c0.2,2.9,1.2,4.7,3.2,4.7C1563.1,3719.8,1564.2,3718.4,1564.2,3716.5z"/>
		<path d="M1567.4,3719.7c0-0.6,0.4-1,0.9-1c0.5,0,0.9,0.4,0.9,1c0,0.6-0.4,1-0.9,1C1567.8,3720.7,1567.4,3720.3,1567.4,3719.7z"/>
		<path d="M1571.1,3718.9l0.6-0.7c0.8,0.8,1.8,1.6,3.5,1.6c1.7,0,2.9-1.1,2.9-2.8c0-1.8-1.2-3-4.4-3v-0.9c2.9,0,3.9-1.2,3.9-2.8
			c0-1.4-1-2.4-2.5-2.4c-1.1,0-2.2,0.6-2.9,1.4l-0.6-0.7c0.9-0.8,2-1.5,3.5-1.5c2,0,3.5,1.2,3.5,3.2c0,1.7-1,2.8-2.4,3.2v0.1
			c1.6,0.3,2.9,1.5,2.9,3.4c0,2.3-1.7,3.7-4,3.7C1573.1,3720.7,1571.9,3719.7,1571.1,3718.9z"/>
		<path d="M1581.1,3713.8c0-4.6,1.5-6.8,3.9-6.8c2.4,0,3.9,2.2,3.9,6.8c0,4.6-1.5,6.8-3.9,6.8
			C1582.6,3720.7,1581.1,3718.4,1581.1,3713.8z M1587.8,3713.8c0-3.9-1.1-5.9-2.8-5.9c-1.7,0-2.8,2-2.8,5.9c0,4,1.1,6,2.8,6
			C1586.7,3719.8,1587.8,3717.8,1587.8,3713.8z"/>
	</g>
	<line id="선_381" class="st2" x1="1045.8" y1="3421.4" x2="1045.8" y2="3745.4"/>
	<line id="선_384" class="st2" x1="1349.8" y1="3421.4" x2="1349.8" y2="3745.4"/>
	<g class="st3">
		<path d="M1039.5,3781.1c-2.4,0-4.1-1.6-4.1-3.9c0-2.3,1.7-3.9,4.1-3.9c2.3,0,4.1,1.6,4.1,3.9
			C1043.6,3779.5,1041.8,3781.1,1039.5,3781.1z M1039.5,3780.2c1.8,0,3.1-1.3,3.1-3s-1.4-3-3.1-3c-1.8,0-3.2,1.3-3.2,3
			S1037.7,3780.2,1039.5,3780.2z M1038.5,3786.9h9.6v0.8h-10.6v-5h1V3786.9z M1049.8,3777.2v0.8h-2.5v6h-1v-11.9h1v5H1049.8z"/>
		<path d="M1060.4,3781.3c-1.8-0.7-3.3-2.1-4-3.9c-0.6,2-2.3,3.6-4.2,4.3l-0.5-0.8c2.2-0.8,4.2-3,4.2-5.4v-1.2h-3.8v-0.8h8.5v0.8
			h-3.7v1.2c0,2.2,1.9,4.2,4,5L1060.4,3781.3z M1065.1,3786.9v0.8h-10.5v-4.9h1v4.1H1065.1z M1063.6,3776.7v-4.6h1v11.8h-1v-6.4
			h-3.6v-0.8H1063.6z"/>
		<path d="M1082.7,3785.2v0.8h-14.5v-0.8h6.8v-3.8h-4.9v-8.1h1v3.1h9v-3.1h0.9v8.1h-5v3.8H1082.7z M1070.9,3780.6h9v-3.4h-9V3780.6z
			"/>
		<path d="M1092.9,3773.4c0,4-3,7.1-7.5,8.6l-0.4-0.8c3.9-1.3,6.6-3.8,6.9-7h-6.1v-0.8H1092.9z M1098.1,3786.9v0.8h-10.3v-4.9h1v4.1
			H1098.1z M1096.8,3777.3v-5.1h1v11.9h-1v-6h-3.9v-0.8H1096.8z"/>
		<path d="M1112.9,3776.2c-1.1,2.6-3.6,4.5-7,5.6l-0.4-0.8c3.9-1.2,6.7-3.6,6.9-6.7h-6.1v-0.8h7.1c0,0.7-0.1,1.3-0.3,1.9h4.1v-3.2h1
			v9.8h-1v-2.4h-4.6v-0.8h4.6v-2.5H1112.9z M1118.4,3785.1c0,1.9-2,3-5.2,3c-3.2,0-5.2-1.1-5.2-3c0-1.9,2-3,5.2-3
			C1116.4,3782.1,1118.4,3783.2,1118.4,3785.1z M1117.4,3785.1c0-1.3-1.7-2.2-4.3-2.2c-2.6,0-4.3,0.8-4.3,2.2c0,1.4,1.7,2.2,4.3,2.2
			C1115.7,3787.3,1117.4,3786.4,1117.4,3785.1z"/>
		<path d="M1129.4,3779.2c-0.7,0.9-1.9,1.5-3.3,1.5c-2.3,0-4.1-1.5-4.1-3.8c0-2.2,1.7-3.7,4.1-3.7c1.4,0,2.6,0.5,3.3,1.4h4.5v-2.4h1
			v9.5h-1v-2.5H1129.4z M1126.1,3779.8c1.8,0,3.1-1.2,3.1-2.9c0-1.6-1.3-2.9-3.1-2.9c-1.8,0-3.1,1.3-3.1,2.9
			C1123,3778.5,1124.3,3779.8,1126.1,3779.8z M1134.9,3785.1c0,1.9-2,3-5.3,3c-3.2,0-5.2-1.1-5.2-3c0-1.9,2-3,5.2-3
			C1132.9,3782.1,1134.9,3783.2,1134.9,3785.1z M1134,3785.1c0-1.4-1.7-2.2-4.3-2.2c-2.6,0-4.3,0.9-4.3,2.2c0,1.4,1.7,2.2,4.3,2.2
			C1132.3,3787.3,1134,3786.5,1134,3785.1z M1129.9,3775.4c0.2,0.5,0.3,1,0.3,1.5c0,0.5-0.1,1-0.3,1.5h4v-3H1129.9z"/>
		<path d="M1143.7,3776.8c0,2.9,2.3,5.9,4.4,6.9l-0.6,0.8c-1.7-0.9-3.6-3-4.3-5.4c-0.7,2.5-2.5,4.6-4.3,5.6l-0.6-0.8
			c2.1-1.1,4.4-4.1,4.4-7.1v-3.2h0.9V3776.8z M1151.3,3772.2v16h-1v-16H1151.3z"/>
		<path d="M1169.4,3785.1v0.8h-14.5v-0.8H1169.4z M1168.1,3781.3c-2.1-0.5-5-2.3-6-4.8c-1,2.5-3.9,4.3-6,4.8l-0.5-0.8
			c2.3-0.5,5.9-2.8,5.9-5.8v-1.3h1v1.3c0,3,3.7,5.4,6,5.8L1168.1,3781.3z"/>
		<path d="M1179.3,3780.2c-1.9,0.4-3.3,0.5-6,0.5h-1v-7.4h6v0.8h-5.1v2.4h4.4v0.8h-4.4v2.6h0c2.6,0,4.1-0.1,5.9-0.5L1179.3,3780.2z
			 M1174.6,3782.7h10.3v5.2h-10.3V3782.7z M1175.5,3787.1h8.4v-3.6h-8.4V3787.1z M1180.9,3777.1h-2.5v-0.8h2.5v-3.8h0.9v9.2h-0.9
			V3777.1z M1184.9,3772.1v9.7h-0.9v-9.7H1184.9z"/>
		<path d="M1196.6,3781.1c-2.3,0-4.1-1.6-4.1-3.9c0-2.3,1.7-3.9,4.1-3.9c2.3,0,4.1,1.6,4.1,3.9
			C1200.6,3779.5,1198.9,3781.1,1196.6,3781.1z M1196.6,3780.2c1.8,0,3.1-1.3,3.1-3c0-1.7-1.4-3-3.1-3c-1.8,0-3.1,1.3-3.1,3
			C1193.4,3778.9,1194.8,3780.2,1196.6,3780.2z M1205.6,3786.9v0.8H1195v-5h1v4.2H1205.6z M1205.1,3784h-1v-11.8h1V3784z"/>
		<path d="M1223.1,3779.9v0.8h-14.5v-0.8H1223.1z M1209.5,3777.9c2.5-0.3,5.8-1.8,5.8-3.9v-0.2h-5.3v-0.8h11.8v0.8h-5.3v0.2
			c0,2.2,3.3,3.6,5.7,3.9l-0.4,0.8c-2.3-0.4-5.1-1.5-5.9-3.4c-0.9,1.9-3.6,3.1-6,3.4L1209.5,3777.9z M1221.3,3785.3
			c0,1.8-2,2.8-5.4,2.8c-3.4,0-5.5-1-5.5-2.8c0-1.8,2.1-2.9,5.5-2.9C1219.2,3782.4,1221.3,3783.4,1221.3,3785.3z M1220.3,3785.3
			c0-1.3-1.7-2.1-4.5-2.1c-2.8,0-4.5,0.8-4.5,2.1c0,1.3,1.7,2.1,4.5,2.1C1218.6,3787.3,1220.3,3786.6,1220.3,3785.3z"/>
		<path d="M1234.2,3776.8c0,2.8,2.2,5.7,4.3,6.8l-0.6,0.7c-1.7-0.9-3.4-3-4.1-5.3c-0.7,2.5-2.4,4.6-4.2,5.6l-0.6-0.8
			c2.1-1.1,4.3-4.2,4.3-7.1v-3.2h0.9V3776.8z M1244.1,3779.6h-2.8v8.5h-1v-16h1v6.7h2.8V3779.6z"/>
		<path d="M1258.8,3772.2v8.6h-1v-3.8h-3.7c-0.2,2-1.8,3.3-4,3.3c-2.4,0-4.1-1.5-4.1-3.6c0-2.2,1.7-3.6,4.1-3.6c2.2,0,3.8,1.3,4,3.2
			h3.7v-4H1258.8z M1253.2,3776.6c0-1.6-1.3-2.8-3.1-2.8s-3.1,1.2-3.1,2.8c0,1.6,1.3,2.8,3.1,2.8S1253.2,3778.2,1253.2,3776.6z
			 M1257.8,3781.6h1v6.3h-10v-6.3h1v2.3h8.1V3781.6z M1257.8,3784.7h-8.1v2.4h8.1V3784.7z"/>
		<path d="M1270.9,3780.9c-1.8-0.6-3.3-2-4-3.7c-0.7,2-2.3,3.5-4.1,4.2l-0.5-0.8c2.3-0.8,4.1-2.9,4.1-5.3v-1.1h-3.8v-0.8h8.5v0.8
			h-3.8v1.1c0,2.2,1.8,4.1,4,4.9L1270.9,3780.9z M1274.7,3785.3c0,1.8-2,2.8-5.2,2.8c-3.2,0-5.1-1-5.1-2.8s1.9-2.8,5.1-2.8
			C1272.8,3782.4,1274.7,3783.4,1274.7,3785.3z M1273.8,3785.3c0-1.3-1.7-2.1-4.2-2.1c-2.6,0-4.2,0.8-4.2,2.1s1.7,2.1,4.2,2.1
			C1272.1,3787.3,1273.8,3786.5,1273.8,3785.3z M1277.1,3776.4v0.8h-2.5v4.6h-1v-9.7h1v4.3H1277.1z"/>
		<path d="M1284.8,3773.6v4.4h5.4v-4.4h1v10.7h-7.3v-10.7H1284.8z M1284.8,3783.4h5.4v-4.6h-5.4V3783.4z M1295.8,3772.1v16h-1v-16
			H1295.8z"/>
		<path d="M1309.6,3779.9v1.8h2.4v3.3h-9.8v2.1h10.3v0.8h-11.2v-3.6h9.8v-1.8h-9.8v-0.8h2.3v-1.8h-4.1v-0.8h14.4v0.8H1309.6z
			 M1301.1,3775.2c0-1.8,2.1-2.8,5.5-2.8c3.5,0,5.5,1,5.5,2.8c0,1.8-2.1,2.8-5.5,2.8C1303.2,3778,1301.1,3777,1301.1,3775.2z
			 M1302.1,3775.2c0,1.3,1.7,2.1,4.5,2.1c2.8,0,4.6-0.8,4.6-2.1c0-1.3-1.8-2-4.6-2C1303.8,3773.1,1302.1,3773.9,1302.1,3775.2z
			 M1308.6,3779.9h-4.2v1.8h4.2V3779.9z"/>
		<path d="M1320.3,3778.6c0-0.6,0.4-1,0.9-1c0.5,0,0.9,0.4,0.9,1c0,0.6-0.4,1-0.9,1C1320.7,3779.6,1320.3,3779.2,1320.3,3778.6z
			 M1320.3,3786.2c0-0.6,0.4-1,0.9-1c0.5,0,0.9,0.4,0.9,1c0,0.6-0.4,1-0.9,1C1320.7,3787.1,1320.3,3786.7,1320.3,3786.2z"/>
		<path d="M1328.2,3783.6c0-1.8,1.3-3.1,2.5-3.7v-0.1c-0.9-0.6-1.8-1.6-1.8-3c0-1.9,1.5-3.2,3.4-3.2c2.2,0,3.5,1.5,3.5,3.4
			c0,1.4-1.1,2.7-1.8,3.3v0.1c1.1,0.7,2.2,1.6,2.2,3.4c0,1.9-1.6,3.3-3.9,3.3C1330,3787.1,1328.2,3785.6,1328.2,3783.6z
			 M1335.2,3783.8c0-2-1.8-2.7-3.8-3.5c-1.2,0.7-2.1,1.9-2.1,3.3c0,1.5,1.3,2.7,3.1,2.7C1334.1,3786.3,1335.2,3785.2,1335.2,3783.8z
			 M1334.8,3777.1c0-1.4-0.9-2.6-2.5-2.6c-1.4,0-2.4,1-2.4,2.4c0,1.8,1.6,2.5,3.3,3.2C1334.3,3779.1,1334.8,3778.1,1334.8,3777.1z"
			/>
		<path d="M1338,3780.3c0-4.6,1.5-6.8,3.9-6.8c2.4,0,3.9,2.2,3.9,6.8c0,4.6-1.5,6.8-3.9,6.8C1339.5,3787.1,1338,3784.9,1338,3780.3z
			 M1344.7,3780.3c0-3.9-1.1-5.9-2.8-5.9c-1.7,0-2.8,2-2.8,5.9c0,4,1.1,6,2.8,6C1343.6,3786.2,1344.7,3784.3,1344.7,3780.3z"/>
		<path d="M1347.5,3777.6c0-2.6,1.1-4.1,2.8-4.1c1.8,0,2.8,1.5,2.8,4.1c0,2.7-1.1,4.2-2.8,4.2
			C1348.6,3781.8,1347.5,3780.3,1347.5,3777.6z M1352.3,3777.6c0-2.2-0.8-3.4-2-3.4s-2,1.2-2,3.4c0,2.2,0.8,3.4,2,3.4
			S1352.3,3779.8,1352.3,3777.6z M1358,3773.5h0.8l-7.3,13.6h-0.8L1358,3773.5z M1356.4,3783c0-2.6,1.1-4.1,2.9-4.1
			c1.7,0,2.8,1.5,2.8,4.1c0,2.7-1.1,4.1-2.8,4.1C1357.5,3787.1,1356.4,3785.7,1356.4,3783z M1361.2,3783c0-2.2-0.8-3.4-2-3.4
			c-1.2,0-2,1.2-2,3.4s0.8,3.4,2,3.4C1360.4,3786.4,1361.2,3785.2,1361.2,3783z"/>
	</g>
</g>
</svg>
