<?xml version="1.0" encoding="utf-8"?>
<!-- Generator: Adobe Illustrator 25.1.0, SVG Export Plug-In . SVG Version: 6.00 Build 0)  -->
<svg version="1.1" id="레이어_1" xmlns="http://www.w3.org/2000/svg" xmlns:xlink="http://www.w3.org/1999/xlink" x="0px"
	 y="0px" viewBox="0 0 336 308.8" style="enable-background:new 0 0 336 308.8;" xml:space="preserve">
<style type="text/css">
	.st0{enable-background:new    ;}
	.st1{fill:#DF1C2F;}
	.st2{fill:none;}
	.st3{fill:none;stroke:#D5D5D5;}
	.st4{fill:none;stroke:#DF1C2F;stroke-miterlimit:10;}
	.st5{fill:none;stroke:#5D5F64;stroke-miterlimit:10;}
</style>
<g id="그룹_5878" transform="translate(-20 -2911.346)">
	<g class="st0">
		<path class="st1" d="M20.7,2924.8c0-1.2,0.8-2,1.8-2.5v-0.1c-0.8-0.6-1.4-1.3-1.4-2.4c0-1.7,1.3-2.7,3.1-2.7c1.8,0,3,1.1,3,2.7
			c0,1-0.7,1.8-1.3,2.3v0.1c0.9,0.5,1.7,1.3,1.7,2.6c0,1.6-1.4,2.8-3.5,2.8C22.1,2927.5,20.7,2926.4,20.7,2924.8z M25.7,2924.7
			c0-1-1-1.4-2.3-1.9c-0.5,0.4-1,1.1-1,1.8c0,0.9,0.8,1.5,1.7,1.5C25.1,2926.1,25.7,2925.6,25.7,2924.7z M25.5,2919.9
			c0-0.8-0.5-1.4-1.4-1.4c-0.7,0-1.3,0.4-1.3,1.3c0,0.9,0.8,1.4,1.9,1.8C25.3,2921.1,25.5,2920.5,25.5,2919.9z"/>
		<path class="st1" d="M31,2924.1c1.2,0,2.3-0.1,3.5-0.3l0.1,1.5c-1.6,0.3-2.9,0.3-4.6,0.3h-0.9v-8.5H34v1.5h-3V2924.1z
			 M39.9,2915.6v12.9h-1.8v-6.5H37v5.9h-1.7v-12.1H37v4.7h1.2v-5h1.7V2915.6z"/>
		<path class="st1" d="M51.1,2918.4h-6.3v-1.4H47v-1.2h1.8v1.2H51L51.1,2918.4L51.1,2918.4z M48,2923.4c-1.6,0-2.8-1-2.8-2.3
			c0-1.4,1.1-2.3,2.8-2.3c1.6,0,2.8,1,2.8,2.3C50.8,2922.5,49.6,2923.4,48,2923.4z M48,2922.1c0.7,0,1.1-0.3,1.1-1
			c0-0.6-0.5-1-1.1-1c-0.7,0-1.1,0.3-1.1,1C46.9,2921.7,47.3,2922.1,48,2922.1z M47,2924.3h8.9v4.2h-1.8v-2.8h-7v-1.4H47z
			 M55.9,2915.6v8.1h-1.8v-3.2h-1v3.1h-1.7v-7.8h1.7v3.2h1v-3.4L55.9,2915.6L55.9,2915.6z"/>
		<path class="st1" d="M64.8,2922.5c-1.5-0.4-2.5-1.3-3-2.5c-0.6,1.2-1.6,2.2-3.2,2.7l-0.9-1.5c2.2-0.7,3.1-2.3,3.1-3.9v-1.2h1.9
			v1.2c0,1.6,0.9,3.1,3,3.7L64.8,2922.5z M59.9,2923.5h8.6v4.9h-8.6V2923.5z M61.7,2927h5v-2h-5C61.7,2925,61.7,2927,61.7,2927z
			 M68.5,2915.6v7.3h-1.9v-7.3H68.5z"/>
		<path class="st1" d="M74.7,2924.4c1.2,0,2.5-0.1,3.7-0.3l0.1,1.3c-2.6,0.4-5.5,0.5-7.7,0.5l-0.2-1.5c0.7,0,1.5,0,2.3,0v-3.8h1.8
			C74.7,2920.6,74.7,2924.4,74.7,2924.4z M75.7,2922.8c0.3-1.8,0.3-3.2,0.3-4.4h-4.8v-1.5h6.6v1.1c0,1.2,0,2.8-0.4,4.9L75.7,2922.8z
			 M82.5,2922.4h-1.7v6.2H79v-12.9h1.8v5.2h1.7V2922.4z"/>
		<path class="st1" d="M87.6,2919.1c0,2.2,0.6,4.3,2.5,5.4l-1.1,1.3c-1.1-0.7-1.9-1.8-2.3-3.2c-0.4,1.5-1.2,2.7-2.4,3.5l-1.1-1.4
			c1.9-1.2,2.5-3.5,2.5-5.7v-0.6h-2.1v-1.5h5.7v1.5h-1.9v0.7H87.6z M90.3,2915.9H92v12.1h-1.7v-6.4h-1.6v-1.5h1.6V2915.9z
			 M94.6,2915.6v12.9h-1.8v-12.9H94.6z"/>
	</g>
	<g id="그룹_5875">
		<g id="그룹_5859">
			<g id="그룹_5830" transform="translate(156 1713.773)">
				<g class="st0">
					<path d="M20.6,1266.4c0-1,0.7-1.6,1.5-1.6s1.5,0.6,1.5,1.6s-0.7,1.6-1.5,1.6C21.3,1268,20.6,1267.4,20.6,1266.4z"/>
					<path d="M31,1266c-1.7,0-2.9-1.2-2.9-2.8c0-1.7,1.2-2.8,2.9-2.8c1.7,0,2.9,1.1,2.9,2.8C33.9,1264.8,32.7,1266,31,1266z
						 M31,1265.4c1.3,0,2.2-0.9,2.2-2.2s-1-2.2-2.2-2.2c-1.3,0-2.3,0.9-2.3,2.2S29.7,1265.4,31,1265.4z M30.3,1270.2h6.9v0.6h-7.6
						v-3.6h0.7C30.3,1267.2,30.3,1270.2,30.3,1270.2z M38.4,1263.1v0.6h-1.8v4.3H36v-8.6h0.7v3.6L38.4,1263.1L38.4,1263.1z"/>
					<path d="M46.1,1266.1c-1.3-0.5-2.4-1.5-2.9-2.8c-0.5,1.4-1.7,2.6-3,3.1l-0.4-0.6c1.6-0.6,3-2.1,3-3.9v-0.8H40v-0.6h6.1v0.6
						h-2.7v0.8c0,1.6,1.3,3,2.9,3.6L46.1,1266.1z M49.5,1270.2v0.6h-7.6v-3.5h0.7v3L49.5,1270.2L49.5,1270.2z M48.4,1262.8v-3.3h0.7
						v8.5h-0.7v-4.6h-2.6v-0.6H48.4z"/>
					<path d="M55.1,1265.6c-1.2,0.1-2.4,0.1-3.4,0.1l-0.1-0.6c2.1,0,5,0,7.5-0.3l0.1,0.5c-1.1,0.2-2.2,0.3-3.4,0.3v2.4h-0.7
						C55.1,1268,55.1,1265.6,55.1,1265.6z M52.6,1262c0-1.2,1.1-2,2.8-2s2.8,0.8,2.8,2s-1.1,2-2.8,2
						C53.7,1264,52.6,1263.2,52.6,1262z M53.2,1262c0,0.9,0.9,1.5,2.2,1.5s2.2-0.6,2.2-1.5c0-0.8-0.9-1.4-2.2-1.4
						C54.1,1260.6,53.2,1261.2,53.2,1262z M61.2,1270.2v0.6h-7.9v-3.3H54v2.7L61.2,1270.2L61.2,1270.2z M60.3,1266.4v-6.9H61v8.8
						h-0.7v-1.4h-2.5v-0.5H60.3z"/>
					<path d="M70.3,1266.1c-1.3-0.5-2.5-1.5-3-2.8c-0.5,1.4-1.7,2.5-3,3l-0.4-0.5c1.6-0.6,3-2,3-3.8v-0.4h-2.8v-0.6h2.8v-1.6h0.7
						v1.6h2.8v0.6h-2.8v0.4c0,1.6,1.4,3,3,3.5L70.3,1266.1z M65.4,1267.3H73v3.8h-0.7v-3.2h-6.9V1267.3z M73,1259.5v7.1h-0.7v-7.1
						H73z"/>
					<path d="M88.9,1265.6v0.6H84v2.6h-0.7v-2.6h-4.9v-0.6H88.9z M79.2,1264c1.8-0.3,4.1-1.4,4.1-3.1v-0.2h-3.9v-0.6H88v0.6h-3.9
						v0.2c0,1.6,2.3,2.8,4.1,3.1l-0.3,0.6c-1.7-0.3-3.6-1.2-4.2-2.7c-0.6,1.4-2.5,2.4-4.2,2.7L79.2,1264z M80.5,1270.2h7.2v0.6h-7.9
						v-3.2h0.7C80.5,1267.6,80.5,1270.2,80.5,1270.2z"/>
					<path d="M100.9,1266.7H96v4.3h-0.7v-4.3h-4.9v-0.6h10.5V1266.7z M100,1264.7c-1.6-0.3-3.6-1.3-4.3-2.8
						c-0.7,1.5-2.7,2.5-4.3,2.8l-0.3-0.6c1.8-0.3,4.2-1.6,4.2-3.4v-0.7H96v0.7c0,1.8,2.5,3.1,4.2,3.4L100,1264.7z"/>
				</g>
				<g class="st0">
					<path d="M20.6,1289.4c0-1,0.7-1.6,1.5-1.6s1.5,0.6,1.5,1.6s-0.7,1.6-1.5,1.6C21.3,1291,20.6,1290.4,20.6,1289.4z"/>
					<path d="M34,1288.9c-1.3-0.5-2.4-1.5-2.9-2.8c-0.5,1.4-1.6,2.5-3,3l-0.4-0.5c1.6-0.6,3-2.1,3-3.9v-0.8H28v-0.6h6.1v0.6h-2.7
						v0.8c0,1.6,1.3,3.1,2.9,3.6L34,1288.9z M29.3,1290.2h7.4v3.9H36v-3.3h-6.7V1290.2z M38.4,1286.3h-1.8v3.2H36v-6.9h0.7v3.2h1.8
						L38.4,1286.3L38.4,1286.3z"/>
					<path d="M49.1,1282.5v6.2h-0.7v-2.7h-2.7c-0.1,1.4-1.3,2.4-2.9,2.4c-1.7,0-2.9-1.1-2.9-2.6c0-1.6,1.2-2.6,2.9-2.6
						c1.6,0,2.7,0.9,2.9,2.3h2.7v-2.9h0.7V1282.5z M45.1,1285.7c0-1.2-0.9-2-2.3-2c-1.3,0-2.3,0.9-2.3,2c0,1.2,0.9,2,2.3,2
						C44.1,1287.8,45.1,1286.9,45.1,1285.7z M48.4,1289.3h0.7v4.6h-7.2v-4.6h0.7v1.7h5.8V1289.3z M48.4,1291.6h-5.8v1.7h5.8V1291.6z
						"/>
					<path d="M60.9,1288.3c-1.3-0.5-2.4-1.4-2.9-2.7c-0.5,1.4-1.6,2.4-3,3l-0.4-0.5c1.6-0.6,3-2.1,3-3.7v-0.6h-2.7v-0.6H61v0.6h-2.7
						v0.6c0,1.5,1.4,2.9,2.9,3.4L60.9,1288.3z M64.4,1293.4v0.6h-7.8v-2.7h6.6v-1.4h-6.6v-0.6h7.3v2.6h-6.6v1.6L64.4,1293.4
						L64.4,1293.4z M63.3,1285.2v-2.7H64v6h-0.7v-2.7h-2.6v-0.6L63.3,1285.2L63.3,1285.2z"/>
					<path d="M70.2,1286.3c0,2,1.4,3.9,2.9,4.7l-0.4,0.5c-1.3-0.7-2.4-2-2.8-3.6c-0.5,1.7-1.7,3.2-3,3.8l-0.4-0.5
						c1.6-0.8,3-2.8,3-4.9v-1.2h-2.8v-0.6h2.7v-1.9h0.7v1.9h2.7v0.6h-2.7v1.2H70.2z M77.3,1288h-2v6.1h-0.7v-11.5h0.7v4.9h2V1288z"
						/>
					<path d="M88.7,1288.8c-2.4,0.4-5.2,0.4-7.3,0.5l-0.1-0.6c0.8,0,1.7,0,2.6,0v-2.6h0.7v2.6c1.3-0.1,2.7-0.2,4-0.3L88.7,1288.8z
						 M86.7,1287.4c0.3-1.5,0.3-2.6,0.3-3.3h-5v-0.6h5.6v0.5c0,0.7,0,1.9-0.3,3.4H86.7z M83.8,1293.2h6.7v0.6h-7.4v-3.4h0.7
						C83.8,1290.4,83.8,1293.2,83.8,1293.2z M92,1286.4v0.6h-1.8v4.2h-0.7v-8.7h0.7v3.9H92z"/>
					<path d="M94.9,1290.6c1.9,0,3.6-0.1,5.8-0.4l0.1,0.6c-2.2,0.4-4,0.4-5.9,0.4H94v-4.3h4.6v-2.7H94v-0.6h5.3v3.9h-4.6v3.1H94.9z
						 M102.7,1282.5v11.6H102v-11.6H102.7z"/>
					<path d="M114.7,1284.4h-6.6v-0.6h3v-1.4h0.7v1.4h2.9V1284.4z M111.5,1289.4c-1.5,0-2.6-0.8-2.6-2.1s1-2.1,2.6-2.1
						c1.5,0,2.6,0.8,2.6,2.1S113,1289.4,111.5,1289.4z M111.5,1288.9c1.1,0,1.9-0.7,1.9-1.6s-0.8-1.6-1.9-1.6s-1.9,0.7-1.9,1.6
						C109.5,1288.2,110.3,1288.9,111.5,1288.9z M109.9,1290.6h7.6v3.5h-0.7v-2.9h-6.9V1290.6z M117.6,1282.5v7.3h-0.7v-1.6h-2.2
						v-0.6h2.2v-1.5h-2.2v-0.6h2.2v-3L117.6,1282.5L117.6,1282.5z"/>
					<path d="M126.6,1289.1c-1.3-0.5-2.5-1.7-3-3.2c-0.5,1.6-1.6,2.8-2.9,3.4l-0.4-0.6c1.6-0.7,3-2.4,3-4.4v-1.2h0.7v1.2
						c0,1.9,1.4,3.5,3,4.1L126.6,1289.1z M129.9,1293.2v0.6h-7.6v-3.5h0.7v2.9H129.9z M129.5,1291h-0.7v-8.5h0.7V1291z"/>
				</g>
				<g class="st0">
					<path d="M20.6,1312.4c0-1,0.7-1.6,1.5-1.6s1.5,0.6,1.5,1.6s-0.7,1.6-1.5,1.6C21.3,1314,20.6,1313.4,20.6,1312.4z"/>
					<path d="M31,1312c-1.7,0-2.9-1.2-2.9-2.8c0-1.7,1.2-2.8,2.9-2.8c1.7,0,2.9,1.1,2.9,2.8C33.9,1310.8,32.7,1312,31,1312z
						 M31,1311.4c1.3,0,2.2-0.9,2.2-2.2s-1-2.2-2.2-2.2c-1.3,0-2.3,0.9-2.3,2.2S29.7,1311.4,31,1311.4z M30.3,1316.2h6.9v0.6h-7.6
						v-3.6h0.7C30.3,1313.2,30.3,1316.2,30.3,1316.2z M38.4,1309.1v0.6h-1.8v4.3H36v-8.6h0.7v3.6L38.4,1309.1L38.4,1309.1z"/>
					<path d="M46.1,1312.1c-1.3-0.5-2.4-1.5-2.9-2.8c-0.5,1.4-1.7,2.6-3,3.1l-0.4-0.6c1.6-0.6,3-2.1,3-3.9v-0.8H40v-0.6h6.1v0.6
						h-2.7v0.8c0,1.6,1.3,3,2.9,3.6L46.1,1312.1z M49.5,1316.2v0.6h-7.6v-3.5h0.7v3L49.5,1316.2L49.5,1316.2z M48.4,1308.8v-3.3h0.7
						v8.5h-0.7v-4.6h-2.6v-0.6H48.4z"/>
					<path d="M59.1,1312.6c-2.5,0.4-5.3,0.5-7.3,0.5l-0.1-0.6c1,0,2.1,0,3.3-0.1v-1c-1.4-0.1-2.3-0.7-2.3-1.8c0-1.1,1-1.8,2.6-1.8
						s2.6,0.7,2.6,1.8c0,1-0.9,1.7-2.3,1.8v1c1.1-0.1,2.3-0.2,3.4-0.3L59.1,1312.6z M58.6,1307.3h-6.7v-0.5h3v-1.3h0.7v1.3h3V1307.3
						z M55.3,1310.9c1.2,0,2-0.5,2-1.3c0-0.7-0.8-1.2-2-1.2s-2,0.5-2,1.2C53.3,1310.4,54.1,1310.9,55.3,1310.9z M54.1,1316.2h6.8
						v0.6h-7.5v-2.8h0.7V1316.2z M62.3,1309.7v0.6h-1.8v4.3h-0.7v-9h0.7v4.2L62.3,1309.7L62.3,1309.7z"/>
					<path d="M69.2,1308.4c-0.8,1.9-2.6,3.3-5,4l-0.3-0.6c2.8-0.9,4.8-2.6,5-4.9h-4.4v-0.6h5.2c0,0.5-0.1,0.9-0.2,1.4h3v-2.3H73v7.1
						h-0.7v-1.8H69v-0.6h3.3v-1.8h-3.1V1308.4z M73.1,1314.9c0,1.4-1.4,2.2-3.8,2.2c-2.3,0-3.8-0.8-3.8-2.2c0-1.3,1.4-2.1,3.8-2.1
						C71.6,1312.7,73.1,1313.5,73.1,1314.9z M72.4,1314.9c0-1-1.2-1.6-3.1-1.6s-3.1,0.6-3.1,1.6s1.2,1.6,3.1,1.6
						C71.2,1316.5,72.4,1315.8,72.4,1314.9z"/>
					<path d="M85.4,1311.4c-2.3,0.4-4.9,0.4-6.8,0.4l-0.1-0.6c0.5,0,1,0,1.6,0v-4.2h-1.3v-0.6h6.1v0.6h-1.3v4c0.6,0,1.2-0.1,1.8-0.2
						L85.4,1311.4z M87.9,1315c0,1.3-1.4,2-3.8,2s-3.8-0.7-3.8-2s1.4-2,3.8-2S87.9,1313.7,87.9,1315z M80.8,1311.2
						c0.7,0,1.4,0,2.1-0.1v-4.1h-2.1V1311.2z M87.2,1315c0-0.9-1.2-1.5-3.1-1.5s-3.1,0.6-3.1,1.5s1.2,1.5,3.1,1.5
						S87.2,1315.9,87.2,1315z M87.2,1310.3H85v-0.6h2.2v-1.4H85v-0.6h2.2v-2.2h0.7v7.2h-0.7V1310.3z"/>
					<path d="M96.3,1306.8c0,3.1-1.6,6.1-5.3,8l-0.4-0.5c3.1-1.5,4.8-4,5-6.8h-4.5v-0.6L96.3,1306.8L96.3,1306.8z M101.2,1311h-2
						v6.1h-0.7v-11.5h0.7v4.8h2V1311z"/>
					<path d="M105.6,1308.9c0,2,1.1,4.1,2.6,5l-0.4,0.5c-1.2-0.7-2.1-2.1-2.5-3.7c-0.4,1.7-1.3,3.2-2.5,3.9l-0.5-0.5
						c1.5-0.9,2.7-3,2.7-5.2v-1.3h-2.4v-0.6h5.4v0.6h-2.3L105.6,1308.9L105.6,1308.9z M109.1,1305.8h0.7v10.6h-0.7v-6.1H107v-0.6
						h2.1V1305.8z M112.1,1305.5v11.5h-0.7v-11.5H112.1z"/>
					<path d="M123.8,1307.4h-6.6v-0.6h3v-1.4h0.7v1.4h2.9V1307.4z M120.5,1312.4c-1.5,0-2.6-0.8-2.6-2.1s1-2.1,2.6-2.1
						c1.5,0,2.6,0.8,2.6,2.1S122,1312.4,120.5,1312.4z M120.5,1311.9c1.1,0,1.9-0.7,1.9-1.6s-0.8-1.6-1.9-1.6s-1.9,0.7-1.9,1.6
						C118.6,1311.2,119.4,1311.9,120.5,1311.9z M119,1313.6h7.6v3.5h-0.7v-2.9H119V1313.6z M126.6,1305.5v7.3h-0.7v-1.6h-2.2v-0.6
						h2.2v-1.5h-2.2v-0.6h2.2v-3L126.6,1305.5L126.6,1305.5z"/>
					<path d="M135.7,1312.1c-1.3-0.5-2.5-1.7-3-3.2c-0.5,1.6-1.6,2.8-2.9,3.4l-0.4-0.6c1.6-0.7,3-2.4,3-4.4v-1.2h0.7v1.2
						c0,1.9,1.4,3.5,3,4.1L135.7,1312.1z M139,1316.2v0.6h-7.6v-3.5h0.7v2.9H139z M138.6,1314h-0.7v-8.5h0.7V1314z"/>
				</g>
				<g class="st0">
					<path d="M20.6,1335.4c0-1,0.7-1.6,1.5-1.6s1.5,0.6,1.5,1.6s-0.7,1.6-1.5,1.6C21.3,1337,20.6,1336.4,20.6,1335.4z"/>
					<path d="M35.5,1335c-1.2,0.2-2.4,0.3-3.6,0.4v4.3h-0.7v-4.3c-1.2,0.1-2.4,0.1-3.5,0.1l-0.1-0.6c2.2,0,5.2,0,7.8-0.4L35.5,1335z
						 M28.7,1331.4c0-1.4,1.2-2.3,2.9-2.3s2.9,0.9,2.9,2.3s-1.2,2.3-2.9,2.3C29.8,1333.8,28.7,1332.8,28.7,1331.4z M29.3,1331.4
						c0,1,0.9,1.7,2.2,1.7c1.3,0,2.2-0.7,2.2-1.7s-0.9-1.7-2.2-1.7C30.2,1329.7,29.3,1330.4,29.3,1331.4z M37.1,1328.5v11.5h-0.7
						v-11.5H37.1z"/>
					<path d="M46.4,1330.4h-6.6v-0.6h3v-1.5h0.7v1.5h3v0.6H46.4z M43,1335.2c-1.5,0-2.6-0.8-2.6-2s1.1-2,2.6-2s2.6,0.8,2.6,2
						C45.6,1334.4,44.6,1335.2,43,1335.2z M43,1334.7c1.1,0,2-0.6,2-1.5s-0.8-1.5-2-1.5c-1.1,0-2,0.6-2,1.5
						C41.1,1334.1,41.9,1334.7,43,1334.7z M41.7,1336.2h7.4v3.7h-7.4V1336.2z M42.4,1339.3h6v-2.5h-6V1339.3z M49.1,1328.5v7h-0.7
						v-2.8h-2.2v-0.6h2.2v-3.6H49.1z"/>
					<path d="M57.9,1334.8c-1.3-0.5-2.4-1.5-2.9-2.8c-0.5,1.5-1.6,2.6-3,3.2l-0.4-0.6c1.7-0.6,3-2.2,3-4.1v-1.3h0.7v1.3
						c0,1.7,1.4,3.2,3,3.8L57.9,1334.8z M61.1,1337.9c0,1.4-1.4,2.1-3.8,2.1c-2.4,0-3.8-0.8-3.8-2.1c0-1.4,1.4-2.1,3.8-2.1
						C59.7,1335.8,61.1,1336.5,61.1,1337.9z M60.4,1337.9c0-1-1.2-1.6-3.1-1.6s-3.1,0.6-3.1,1.6s1.2,1.6,3.1,1.6
						S60.4,1338.9,60.4,1337.9z M60.4,1331.8h-2.8v-0.6h2.8v-2.7h0.7v6.9h-0.7V1331.8z"/>
					<path d="M70.6,1334.4c-2.3,0.4-4.9,0.4-6.8,0.4l-0.1-0.6c0.5,0,1,0,1.6,0v-4.2H64v-0.6h6.1v0.6h-1.3v4c0.6,0,1.2-0.1,1.8-0.2
						V1334.4z M73.1,1338c0,1.3-1.4,2-3.8,2s-3.8-0.7-3.8-2s1.4-2,3.8-2C71.6,1336,73.1,1336.7,73.1,1338z M66,1334.2
						c0.7,0,1.4,0,2.1-0.1v-4.1H66V1334.2z M72.4,1338c0-0.9-1.2-1.5-3.1-1.5s-3.1,0.6-3.1,1.5s1.2,1.5,3.1,1.5
						C71.2,1339.5,72.4,1338.9,72.4,1338z M72.3,1333.3h-2.2v-0.6h2.2v-1.4h-2.2v-0.6h2.2v-2.2H73v7.2h-0.7V1333.3z"/>
					<path d="M81.4,1329.8c0,3.1-1.6,6.1-5.3,8l-0.4-0.5c3.1-1.5,4.8-4,5-6.8h-4.5v-0.6L81.4,1329.8L81.4,1329.8z M86.4,1334h-2v6.1
						h-0.7v-11.5h0.7v4.8h2V1334z"/>
					<path d="M96.8,1335.1c-1.3-0.5-2.4-1.5-2.9-2.8c-0.5,1.4-1.7,2.6-3,3.1l-0.4-0.6c1.6-0.6,3-2.1,3-3.9v-0.8h-2.8v-0.6h6.1v0.6
						h-2.7v0.8c0,1.6,1.3,3,2.9,3.6L96.8,1335.1z M100.2,1339.2v0.6h-7.6v-3.5h0.7v3L100.2,1339.2L100.2,1339.2z M99.1,1331.8v-3.3
						h0.7v8.5h-0.7v-4.6h-2.6v-0.6H99.1z"/>
					<path d="M108.1,1334.8H103v-5.3h5.1v1.1h3v-2.2h0.7v8.5h-0.7v-3.2h-3V1334.8z M107.4,1330.1h-3.8v4.1h3.8V1330.1z
						 M112.1,1339.2v0.6h-7.6v-3.5h0.7v3L112.1,1339.2L112.1,1339.2z M108.1,1331.3v1.9h3v-1.9H108.1z"/>
					<path d="M120.5,1331.8c0,2.2,1,4,2.6,4.8l-0.4,0.5c-1.2-0.7-2.1-1.9-2.5-3.4c-0.4,1.7-1.3,3.1-2.6,3.8l-0.5-0.5
						c1.6-0.9,2.7-2.8,2.7-5.2v-1.2h-2.4v-0.6h5.4v0.6h-2.3C120.5,1330.6,120.5,1331.8,120.5,1331.8z M127,1328.5v11.5h-0.7v-6.1
						h-1.9v5.5h-0.7v-10.6h0.7v4.5h1.9v-4.8H127z"/>
					<path d="M135.8,1334.1c-1.3-0.5-2.5-1.6-3-2.9c-0.5,1.5-1.7,2.6-3,3.2l-0.4-0.6c1.6-0.6,3-2.2,3-4v-0.9h0.7v0.9
						c0,1.8,1.4,3.2,3.1,3.8L135.8,1334.1z M139,1339.3v0.6h-7.7v-2.7h6.6v-1.4h-6.7v-0.6h7.3v2.6H132v1.6L139,1339.3L139,1339.3z
						 M138.6,1334.6h-0.7v-6.1h0.7V1334.6z"/>
					<path d="M145,1331.9c0,2.1,1.7,4.2,3.2,5l-0.4,0.6c-1.3-0.7-2.6-2.1-3.1-3.9c-0.5,1.8-1.8,3.4-3.1,4.1l-0.4-0.6
						c1.5-0.8,3.2-3,3.2-5.1v-2.3h0.7L145,1331.9L145,1331.9z M150.5,1328.5v11.6h-0.7v-11.6H150.5z"/>
				</g>
			</g>
			<g id="사각형_521" transform="translate(20 2945.941)">
				<rect y="0" class="st2" width="335" height="135"/>
				<rect x="0.5" y="0.5" class="st3" width="334" height="134"/>
			</g>
			<g id="그룹_5743" transform="translate(55 2968.641)">
				<g id="그룹_5714" transform="translate(43.74 25.682)">
					<path id="패스_4988" class="st1" d="M3.3,1.7c0,0.9-0.7,1.7-1.7,1.7C0.7,3.3,0,2.6,0,1.7C0,0.7,0.7,0,1.7,0
						C2.6,0,3.3,0.7,3.3,1.7"/>
				</g>
				<g id="그룹_5715" transform="translate(12.944 33.385)">
					<path id="패스_4989" class="st1" d="M3.3,1.7c0,0.9-0.7,1.7-1.7,1.7C0.7,3.3,0,2.6,0,1.7C0,0.7,0.7,0,1.7,0
						C2.6,0,3.3,0.7,3.3,1.7"/>
				</g>
				<g id="그룹_5825">
					<g id="그룹_5713" transform="translate(0 1.514)">
						<path id="패스_4987" class="st4" d="M29.4,0h-4.8l-1,6.5c-2.3,0.9-3.5,1.4-5.8,2.4l-6.3-3C8.8,8.7,8.8,8.7,6,11.5l3,6.2
							l-2.4,5.7L0,25.7v3.9 M30.6,59.3H34l2.3-6.5l5.8-2.4l6.3,3l5.6-5.6l-3-6.2l2.4-5.7l6.6-2.3v-3.9 M31.5,33.3
							c-2,0.8-4.3-0.1-5.1-2.1c-0.8-2,0.1-4.2,2.1-5l0,0c2-0.8,4.3,0.1,5.1,2.1C34.4,30.2,33.5,32.4,31.5,33.3
							C31.5,33.2,31.5,33.2,31.5,33.3L31.5,33.3z M40.4,29.7C40.4,35.4,35.7,40,30,40l0,0c-5.7,0.1-10.4-4.5-10.5-10.2
							S24,19.4,29.7,19.4c0.1,0,0.2,0,0.3,0C35.7,19.3,40.4,23.9,40.4,29.7z M45.7,29.7c0,8.6-7.1,15.5-15.7,15.5l0,0
							c-2.6,0-5.2-0.6-7.5-1.9 M14.3,29.7c0-8.6,7.1-15.5,15.7-15.5l0,0c2.6,0,5.2,0.6,7.5,1.9"/>
					</g>
					<g id="그룹_5716" transform="translate(0)">
						<path id="패스_4990" class="st5" d="M29.4,0v9.5l12.8,12.6c1.1,1.1,2.8,1.1,3.8,0s1.1-2.8,0-3.8c0,0,0,0-0.1-0.1l-5.6-5.3
							v-1.2h6.4l8,7.1v5.9c0,1.4,1.1,2.6,2.5,2.6l0,0H60v-12L44.4,0.6V0 M30.6,62.4v-9.5L17.8,40.3c-1.1-1-2.8-1-3.8,0
							c-1.1,1.1-1.1,2.8,0,3.8c0,0,0,0,0.1,0.1l5.6,5.3v1.2h-6.4l-8-7.1v-5.9c0-1.4-1.1-2.6-2.5-2.6l0,0H0v12l15.6,14.7v0.6"/>
					</g>
				</g>
			</g>
			<g id="그룹_5746" transform="translate(149 3070.941) rotate(180)">
				<path id="패스_4994" class="st3" d="M0,1v112.3"/>
			</g>
			<g class="st0">
				<path class="st1" d="M71.1,3045.9c0,2.3,1.3,4.7,3.3,5.5l-0.8,1.1c-1.5-0.7-2.6-2.1-3.1-3.8c-0.6,1.8-1.7,3.3-3.2,4.1l-0.9-1.2
					c2-0.9,3.3-3.3,3.3-5.8v-2.1h1.4C71.1,3043.7,71.1,3045.9,71.1,3045.9z M76.8,3042.8v12.7h-1.5v-12.7H76.8z"/>
				<path class="st1" d="M90.7,3052.6v1.2H79.3v-1.2H90.7z M89.6,3050.1c-2.1-0.4-3.8-1.7-4.7-3.5c-0.8,1.7-2.6,3.1-4.7,3.5
					l-0.6-1.2c2.5-0.5,4.5-2.4,4.5-4.4v-1h1.5v1c0,2,2,4,4.5,4.4L89.6,3050.1z"/>
				<path class="st1" d="M98.1,3049.4c-1.4,0.3-2.6,0.3-4.6,0.3h-0.8v-6.2h4.8v1.2h-3.4v1.3H97v1.1h-2.9v1.4c1.6,0,2.7-0.1,3.9-0.3
					L98.1,3049.4z M94.4,3050.9h8.4v4.4h-8.4V3050.9z M95.9,3054.1h5.6v-2.1h-5.6V3054.1z M99,3047h-1.5v-1.2H99v-2.9h1.3v7.3H99
					V3047z M102.9,3042.8v7.6h-1.4v-7.6H102.9z"/>
			</g>
		</g>
	</g>
	<g id="그룹_5874">
		<g id="그룹_5860">
			<g id="그룹_5831" transform="translate(156 1850.557)">
				<g class="st0">
					<path d="M20.6,1266.4c0-1,0.7-1.6,1.5-1.6s1.5,0.6,1.5,1.6s-0.7,1.6-1.5,1.6C21.3,1268,20.6,1267.4,20.6,1266.4z"/>
					<path d="M29.4,1267.6c1.9,0,3.6-0.1,5.8-0.4l0.1,0.6c-2.2,0.4-4,0.4-5.9,0.4h-0.9v-4.3H33v-2.7h-4.6v-0.6h5.3v3.9h-4.5v3.1
						H29.4z M37.1,1259.5v11.6h-0.7v-11.6H37.1z"/>
					<path d="M41.2,1267.6c2.2,0,3.6-0.1,5.3-0.4l0.1,0.6c-1.7,0.3-3.1,0.4-5.4,0.4h-0.8v-7.5h5.3v0.6H41v6.3H41.2z M49.1,1259.5
						v11.6h-0.7v-6.7h-3.6v-0.6h3.6v-4.3H49.1z"/>
					<path d="M58.2,1265.4c-1.3-0.5-2.5-1.6-3-2.9c-0.5,1.5-1.7,2.6-3,3.1l-0.4-0.5c1.6-0.6,3-2.2,3-4v-1.1h0.7v1.1
						c0,1.7,1.5,3.2,3.1,3.8L58.2,1265.4z M60.4,1266.3h0.7v4.6h-7.3v-4.6h0.7v1.6h5.9C60.4,1267.9,60.4,1266.3,60.4,1266.3z
						 M60.4,1268.5h-5.9v1.8h5.9V1268.5z M61.1,1259.5v6.2h-0.7v-6.2H61.1z"/>
					<path d="M76.9,1264.8v0.6H66.5v-0.6h4.9v-1.7h0.7v1.7H76.9z M76.1,1263.7c-1.7-0.3-3.7-1.1-4.3-2.5c-0.7,1.4-2.7,2.2-4.4,2.5
						l-0.2-0.5c1.8-0.2,4.2-1.3,4.2-3v-0.6h0.7v0.6c0,1.6,2.4,2.7,4.2,3L76.1,1263.7z M68.5,1270.3h7.4v0.6h-8.1v-2.5h7v-1.3h-7.1
						v-0.5h7.7v2.4h-7L68.5,1270.3L68.5,1270.3z"/>
					<path d="M84.8,1266.2c-1.3-0.5-2.4-1.6-2.9-3c-0.5,1.5-1.6,2.7-3,3.2l-0.4-0.6c1.6-0.6,3-2.3,3-4.1v-1.5h0.7v1.6
						c0,1.7,1.4,3.2,2.9,3.8L84.8,1266.2z M88.2,1270.2v0.6h-7.6v-3.6h0.7v3H88.2z M87.2,1263h-2.8v-0.6h2.8v-2.9h0.7v8.7h-0.7V1263
						z"/>
					<path d="M100.9,1266.7H96v4.3h-0.7v-4.3h-4.9v-0.6h10.5V1266.7z M100,1264.7c-1.6-0.3-3.6-1.3-4.3-2.8
						c-0.7,1.5-2.7,2.5-4.3,2.8l-0.3-0.6c1.8-0.3,4.2-1.6,4.2-3.4v-0.7H96v0.7c0,1.8,2.5,3.1,4.2,3.4L100,1264.7z"/>
					<path d="M111.8,1259.5v6.7h-0.7v-3.1h-3v2.3H103v-5.3h0.7v2h3.7v-2h0.7v2.4h3v-3.1L111.8,1259.5z M107.4,1262.8h-3.7v2.1h3.7
						V1262.8z M104.4,1266.9h7.4v4h-7.4V1266.9z M105.1,1270.3h6v-2.9h-6V1270.3z"/>
				</g>
				<g class="st0">
					<path d="M20.6,1289.4c0-1,0.7-1.6,1.5-1.6s1.5,0.6,1.5,1.6s-0.7,1.6-1.5,1.6C21.3,1291,20.6,1290.4,20.6,1289.4z"/>
					<path d="M31,1289c-1.7,0-2.9-1.2-2.9-2.8c0-1.7,1.2-2.8,2.9-2.8c1.7,0,2.9,1.1,2.9,2.8C33.9,1287.8,32.7,1289,31,1289z
						 M31,1288.4c1.3,0,2.2-0.9,2.2-2.2s-1-2.2-2.2-2.2c-1.3,0-2.3,0.9-2.3,2.2S29.7,1288.4,31,1288.4z M30.3,1293.2h6.9v0.6h-7.6
						v-3.6h0.7C30.3,1290.2,30.3,1293.2,30.3,1293.2z M38.4,1286.1v0.6h-1.8v4.3H36v-8.6h0.7v3.6L38.4,1286.1L38.4,1286.1z"/>
					<path d="M46.1,1289.1c-1.3-0.5-2.4-1.5-2.9-2.8c-0.5,1.4-1.7,2.6-3,3.1l-0.4-0.6c1.6-0.6,3-2.1,3-3.9v-0.8H40v-0.6h6.1v0.6
						h-2.7v0.8c0,1.6,1.3,3,2.9,3.6L46.1,1289.1z M49.5,1293.2v0.6h-7.6v-3.5h0.7v3L49.5,1293.2L49.5,1293.2z M48.4,1285.8v-3.3h0.7
						v8.5h-0.7v-4.6h-2.6v-0.6H48.4z"/>
					<path d="M51.7,1290.8c2.2,0,5.1,0,7.7-0.4l0.1,0.5c-2.7,0.5-5.5,0.5-7.6,0.5L51.7,1290.8z M58.5,1286.1c0,1.6-1.2,2.6-3,2.6
						s-3-1.1-3-2.6s1.2-2.6,3-2.6S58.5,1284.5,58.5,1286.1z M53,1286.1c0,1.2,1,2,2.4,2s2.4-0.9,2.4-2c0-1.2-1-2-2.4-2
						S53,1284.9,53,1286.1z M60.9,1282.5v11.6h-0.7v-11.6H60.9z"/>
					<path d="M70.2,1288.7c-1.3-0.5-2.5-1.6-3-3.1c-0.5,1.5-1.7,2.7-3,3.3l-0.4-0.6c1.6-0.6,3-2.3,3-4.2v-1.1h0.7v1.1
						c0,1.8,1.4,3.4,3,4L70.2,1288.7z M65.4,1290.1H73v3.9h-0.7v-3.3h-6.9V1290.1z M73,1282.5v7h-0.7v-7H73z"/>
					<path d="M85.4,1284.5h-6.8v-0.6h3.1v-1.5h0.7v1.5h3.1L85.4,1284.5L85.4,1284.5z M81.9,1289.3c-1.7,0-2.7-0.8-2.7-2s1.1-2,2.7-2
						s2.7,0.8,2.7,2S83.6,1289.3,81.9,1289.3z M81.9,1288.7c1.2,0,2.1-0.6,2.1-1.5s-0.8-1.5-2.1-1.5c-1.2,0-2.1,0.6-2.1,1.5
						S80.7,1288.7,81.9,1288.7z M87.5,1292.1c0,1.2-1.4,2-3.7,2c-2.3,0-3.7-0.7-3.7-2c0-1.2,1.4-2,3.7-2S87.5,1290.8,87.5,1292.1z
						 M86.8,1292.1c0-0.9-1.2-1.4-3-1.4s-3,0.5-3,1.4s1.2,1.4,3,1.4S86.8,1293,86.8,1292.1z M87.4,1285.3v1.8h1.8v0.6h-1.8v2.3h-0.7
						v-7.5h0.7v2.2h1.8v0.6H87.4z"/>
					<path d="M96.6,1288.7c-1.3-0.5-2.4-1.6-2.9-2.9c-0.5,1.5-1.6,2.6-3,3.2l-0.4-0.6c1.6-0.6,3-2.2,3-4.1v-1.3H94v1.3
						c0,1.7,1.4,3.2,3,3.8L96.6,1288.7z M99.4,1292c0,1.3-1.4,2-3.7,2s-3.7-0.7-3.7-2s1.4-2,3.7-2S99.4,1290.7,99.4,1292z
						 M98.7,1292c0-0.9-1.2-1.5-3.1-1.5c-1.8,0-3,0.6-3,1.5s1.2,1.5,3,1.5C97.5,1293.5,98.7,1292.9,98.7,1292z M101.1,1285.7v0.6
						h-1.8v3.4h-0.7v-7.1h0.7v3.2L101.1,1285.7L101.1,1285.7z"/>
				</g>
				<g class="st0">
					<path d="M20.6,1312.4c0-1,0.7-1.6,1.5-1.6s1.5,0.6,1.5,1.6s-0.7,1.6-1.5,1.6C21.3,1314,20.6,1313.4,20.6,1312.4z"/>
					<path d="M31,1312c-1.7,0-2.9-1.2-2.9-2.8c0-1.7,1.2-2.8,2.9-2.8c1.7,0,2.9,1.1,2.9,2.8C33.9,1310.8,32.7,1312,31,1312z
						 M31,1311.4c1.3,0,2.2-0.9,2.2-2.2s-1-2.2-2.2-2.2c-1.3,0-2.3,0.9-2.3,2.2S29.7,1311.4,31,1311.4z M30.3,1316.2h6.9v0.6h-7.6
						v-3.6h0.7C30.3,1313.2,30.3,1316.2,30.3,1316.2z M38.4,1309.1v0.6h-1.8v4.3H36v-8.6h0.7v3.6L38.4,1309.1L38.4,1309.1z"/>
					<path d="M46.1,1312.1c-1.3-0.5-2.4-1.5-2.9-2.8c-0.5,1.4-1.7,2.6-3,3.1l-0.4-0.6c1.6-0.6,3-2.1,3-3.9v-0.8H40v-0.6h6.1v0.6
						h-2.7v0.8c0,1.6,1.3,3,2.9,3.6L46.1,1312.1z M49.5,1316.2v0.6h-7.6v-3.5h0.7v3L49.5,1316.2L49.5,1316.2z M48.4,1308.8v-3.3h0.7
						v8.5h-0.7v-4.6h-2.6v-0.6H48.4z"/>
					<path d="M62.1,1314.7v0.6H51.7v-0.6h2.8v-3.9h0.7v3.9h2.2v-3.9H58v3.9H62.1z M60,1307.4h-7.2v-0.6h7.9v1.3c0,1.5,0,3-0.4,5
						l-0.7-0.1c0.4-2,0.4-3.4,0.4-4.9V1307.4z"/>
					<path d="M71.1,1311.8v1.7h1.6v3.6H72v-3h-7.3v-0.6h1.8v-1.7h-2.9v-0.6H74v0.6H71.1z M64.8,1308c0-1.4,1.5-2.2,4-2.2
						s4,0.8,4,2.2c0,1.4-1.5,2.2-4,2.2C66.4,1310.2,64.8,1309.4,64.8,1308z M65.6,1308c0,1,1.3,1.6,3.3,1.6s3.3-0.6,3.3-1.6
						s-1.3-1.6-3.3-1.6C66.8,1306.4,65.6,1307,65.6,1308z M70.5,1311.8h-3.2v1.7h3.2V1311.8z"/>
					<path d="M84.3,1306.4c0,2.9-2.1,5-5.4,6l-0.3-0.6c2.9-0.9,4.8-2.6,5-4.9H79v-0.6L84.3,1306.4L84.3,1306.4z M87.5,1314.9
						c0,1.4-1.4,2.1-3.7,2.1c-2.2,0-3.7-0.8-3.7-2.1c0-1.4,1.4-2.2,3.7-2.2C86.1,1312.7,87.5,1313.5,87.5,1314.9z M86.8,1314.9
						c0-1-1.2-1.6-3-1.6s-3,0.6-3,1.6s1.2,1.6,3,1.6C85.6,1316.5,86.8,1315.8,86.8,1314.9z M89.2,1308.7v0.6h-1.8v3.3h-0.7v-7h0.7
						v3.2L89.2,1308.7L89.2,1308.7z"/>
					<path d="M94.3,1314c1.2-0.1,2.3-0.1,3.4-0.3l0.1,0.5c-2.5,0.4-5.3,0.5-7.3,0.5l-0.1-0.6c1,0,2.1,0,3.3-0.1v-1.4
						c-1.4-0.1-2.3-0.9-2.3-2.1c0-1.3,1.1-2.1,2.7-2.1s2.7,0.8,2.7,2.1c0,1.2-0.9,2-2.3,2.1v1.4H94.3z M97.4,1307.6h-7v-0.6h3.1
						v-1.5h0.7v1.5h3.1v0.6H97.4z M94,1312.1c1.2,0,2-0.7,2-1.6s-0.8-1.6-2-1.6s-2,0.6-2,1.6C92,1311.4,92.8,1312.1,94,1312.1z
						 M101.2,1311.2h-2v5.9h-0.7v-11.5h0.7v5h2V1311.2z"/>
				</g>
				<g class="st0">
					<path d="M20.6,1335.4c0-1,0.7-1.6,1.5-1.6s1.5,0.6,1.5,1.6s-0.7,1.6-1.5,1.6C21.3,1337,20.6,1336.4,20.6,1335.4z"/>
					<path d="M32.6,1330.1c0,2.8-1.1,5.6-4.4,7.5l-0.4-0.5c2.9-1.6,4-3.9,4.1-6.4h-3.8v-0.6H32.6z M37.5,1328.5v11.5h-0.7v-6.1h-1.9
						v5.5h-0.7v-10.6h0.7v4.5h1.9v-4.8H37.5z"/>
					<path d="M43,1335c-1.7,0-2.9-1.2-2.9-2.8c0-1.6,1.2-2.8,2.9-2.8s2.9,1.1,2.9,2.8C45.9,1333.8,44.6,1335,43,1335z M43,1334.4
						c1.3,0,2.3-0.9,2.3-2.2c0-1.2-1-2.2-2.3-2.2s-2.3,0.9-2.3,2.2C40.7,1333.4,41.7,1334.4,43,1334.4z M49.5,1339.2v0.6h-7.6v-3.6
						h0.7v3H49.5z M49.1,1337.1h-0.7v-8.5h0.7V1337.1z"/>
					<path d="M60.5,1329.4c0,2.9-2.2,5.1-5.4,6.2l-0.3-0.6c2.8-0.9,4.8-2.8,5-5.1h-4.4v-0.6L60.5,1329.4L60.5,1329.4z M64.3,1339.2
						v0.6h-7.4v-3.5h0.7v3L64.3,1339.2L64.3,1339.2z M63.3,1332.2v-3.7H64v8.6h-0.7v-4.3h-2.8v-0.6H63.3z"/>
					<path d="M72.3,1329.4c0,2.9-2.1,5-5.4,6l-0.3-0.6c2.9-0.9,4.8-2.6,5-4.9H67v-0.6L72.3,1329.4L72.3,1329.4z M75.5,1337.9
						c0,1.4-1.4,2.1-3.7,2.1c-2.2,0-3.7-0.8-3.7-2.1c0-1.4,1.4-2.2,3.7-2.2C74.1,1335.7,75.5,1336.5,75.5,1337.9z M74.9,1337.9
						c0-1-1.2-1.6-3-1.6s-3,0.6-3,1.6s1.2,1.6,3,1.6C73.7,1339.5,74.9,1338.8,74.9,1337.9z M77.2,1331.7v0.6h-1.8v3.3h-0.7v-7h0.7
						v3.2L77.2,1331.7L77.2,1331.7z"/>
					<path d="M91.8,1334.1v0.6H81.3v-0.6H91.8z M82,1332.7c1.8-0.2,4.2-1.3,4.2-2.8v-0.1h-3.9v-0.6h8.5v0.6H87v0.1
						c0,1.6,2.4,2.6,4.1,2.8l-0.3,0.6c-1.7-0.3-3.7-1.1-4.3-2.5c-0.6,1.4-2.6,2.2-4.3,2.5L82,1332.7z M90.5,1338
						c0,1.3-1.5,2.1-3.9,2.1c-2.5,0-3.9-0.7-3.9-2.1c0-1.3,1.5-2.1,3.9-2.1S90.5,1336.7,90.5,1338z M89.8,1338
						c0-0.9-1.3-1.5-3.2-1.5c-2,0-3.2,0.6-3.2,1.5s1.3,1.5,3.2,1.5S89.8,1338.9,89.8,1338z"/>
					<path d="M99.9,1335.3c-1.3-0.5-2.5-1.5-3-2.8c-0.5,1.4-1.6,2.5-3,3.1l-0.4-0.5c1.6-0.6,3-2.1,3-3.9v-0.9h-2.8v-0.6h6.3v0.6
						h-2.8v0.9c0,1.7,1.4,3.1,3,3.6L99.9,1335.3z M103.1,1339.2v0.6h-7.6v-3.5h0.7v3L103.1,1339.2L103.1,1339.2z M102.7,1337.1H102
						v-8.5h0.7V1337.1z"/>
				</g>
			</g>
			<g id="사각형_520" transform="translate(20 3085.13)">
				<rect y="0" class="st2" width="335" height="135"/>
				<rect x="0.5" y="0.5" class="st3" width="334" height="134"/>
			</g>
			<g id="그룹_5745" transform="translate(55 3110.141)">
				<g id="그룹_5717" transform="translate(3.006)">
					<path id="패스_4991" class="st5" d="M17.3,29.7v-6.1 M0,50.4V0h27.9c1.1,0,1.9,0.9,1.9,2v19.8 M1.9,23.8h26
						c1.1,0,1.9,0.9,1.9,2s-0.8,2-1.9,2h-8.7c-1.1,0-2,0.9-1.9,2c0,1,0.9,1.9,1.9,1.9h13.5 M48.1,31.7h4.8V7.9H31.7 M0,56.2v6.2
						 M9.6,34.7v2 M7.7,38.6H5.8 M9.6,40.6v2 M11.5,38.6h1.9"/>
				</g>
				<g id="그룹_5718" transform="translate(0 20.982)">
					<path id="패스_4992" class="st4" d="M55.1,34.1v8 M47.4,14.5v5l9.6,2.6c1.6,0.4,2.7,1.7,3,3.2v16.8 M38.8,18.6v3.2h1.3
						l2.7-1.8h1l2.3,1.8h1.3v-3.2 M47,28.9h5.9 M43.3,24.5v14.1 M42.3,16.4c0.3,0.1,0.6,0.1,1,0.1c0.3,0,0.6,0,0.9-0.1
						c1.4-0.4,2.6-1.1,3.6-2.1s1.7-2.2,2-3.6l0.1-0.3C50,10,50,9.5,50,9.1v-3C50,2.7,46.9,0,43.2,0c-3.8,0-6.8,2.7-6.8,6.1v3
						c0,0.4,0,0.9,0.1,1.3l0.1,0.3c0.3,1.4,1,2.6,2,3.6l0.4,0.4v1.6v3.2l-9,2.3c-0.3,0.1-0.6,0.2-0.8,0.4l-9.3,7.7h-15V36h14.8
						c1.9,0.1,3.7-0.5,5.1-1.8l5.5-5.3h0.2v13.2 M4.9,35.1H2c-0.8-0.7-1.2-1.1-2-1.8v-3.5h5.9 M43.3,40.4v1.8"/>
				</g>
			</g>
			<g id="그룹_5747" transform="translate(149 3210.159) rotate(180)">
				<path id="패스_4994-2" class="st3" d="M0,0v112.3"/>
			</g>
			<g class="st0">
				<path class="st1" d="M77.3,3187.4c0,2.3,1.2,4.5,3.1,5.5l-0.9,1.1c-1.4-0.7-2.4-2.1-2.9-3.7c-0.5,1.8-1.6,3.2-3.1,4l-0.9-1.2
					c2-1,3.2-3.4,3.2-5.7v-2.1h1.4v2.1H77.3z M84.6,3190.5h-2v6.4h-1.4v-12.6h1.4v5h2V3190.5z"/>
				<path class="st1" d="M93.2,3190.8c-1.9,0.3-3.6,0.4-6,0.4h-1v-3.8h4.3v-1.4h-4.3v-1.2h5.7v3.6h-4.3v1.5c2.2,0,3.7-0.1,5.4-0.4
					L93.2,3190.8z M87.5,3192.4h8.1v4.4h-8.1V3192.4z M88.9,3195.6h5.3v-2.1h-5.3V3195.6z M97.4,3188.6h-1.8v3.2h-1.4v-7.5h1.4v3.1
					h1.8V3188.6z"/>
			</g>
		</g>
	</g>
</g>
</svg>
