<?xml version="1.0" encoding="utf-8"?>
<!-- Generator: Adobe Illustrator 25.1.0, SVG Export Plug-In . SVG Version: 6.00 Build 0)  -->
<svg version="1.1" id="그룹_5694" xmlns="http://www.w3.org/2000/svg" xmlns:xlink="http://www.w3.org/1999/xlink" x="0px"
	 y="0px" viewBox="0 0 335 139.6" style="enable-background:new 0 0 335 139.6;" xml:space="preserve">
<style type="text/css">
	.st0{fill:none;}
	.st1{fill:none;stroke:#D5D5D5;}
	.st2{enable-background:new    ;}
	.st3{fill:#555555;}
	.st4{fill:#FFF8F8;}
	.st5{fill:#DF1C2F;}
</style>
<g id="사각형_515">
	<rect y="0" class="st0" width="335" height="139.6"/>
	<rect x="0.5" y="0.5" class="st1" width="334" height="138.6"/>
</g>
<g class="st2">
	<path class="st3" d="M23.6,66.8c0-1.1,0.8-1.8,1.6-1.8c0.9,0,1.6,0.7,1.6,1.8c0,1-0.8,1.7-1.6,1.7C24.3,68.5,23.6,67.8,23.6,66.8z"
		/>
	<path class="st3" d="M35.1,66.4c-1.7,0-3-1.2-3-2.9c0-1.7,1.3-2.9,3-2.9s3,1.2,3,2.9C38.2,65.3,36.9,66.4,35.1,66.4z M35.1,65.5
		c1.1,0,2-0.8,2-1.9c0-1.1-0.9-2-2-2s-2,0.8-2,2C33.1,64.7,34,65.5,35.1,65.5z M34.7,70.4h6.7v0.9h-7.8v-3.7h1.1V70.4z M42.6,63.4
		v0.9h-1.7v4.1h-1.1v-8.6h1.1v3.5H42.6z"/>
	<path class="st3" d="M50.6,66.7c-1.3-0.5-2.3-1.4-2.8-2.6c-0.5,1.3-1.6,2.4-2.9,2.9l-0.6-0.8c1.7-0.6,2.9-2.2,2.9-3.8v-0.6h-2.6
		v-0.9h6.2v0.9h-2.6v0.6c0,1.5,1.1,3,2.8,3.6L50.6,66.7z M54.2,70.4v0.9h-7.8v-3.6h1.1v2.7H54.2z M52.8,63.1v-3.2h1.1v8.5h-1.1V64
		h-2.3v-0.9H52.8z"/>
	<path class="st3" d="M67.2,69.2V70H56.6v-0.9h4.7v-2.5h-3.5v-6h1.1v2.1h6v-2.1h1v6h-3.5v2.5H67.2z M58.9,65.8h6v-2.1h-6V65.8z"/>
	<path class="st3" d="M75.1,60.8c0,3-2.1,5.3-5.4,6.4l-0.5-0.9c2.7-0.9,4.5-2.5,4.7-4.6h-4.1v-0.9H75.1z M78.9,70.4v0.9h-7.7v-3.7
		h1.1v2.8H78.9z M77.6,63.5v-3.6h1.1v8.6h-1.1v-4.1H75v-0.9H77.6z"/>
	<path class="st3" d="M91.1,66.7c-1.3-0.5-2.3-1.4-2.8-2.6c-0.5,1.3-1.6,2.4-2.9,2.9l-0.6-0.8c1.7-0.6,2.9-2.2,2.9-3.8v-0.6h-2.6
		v-0.9h6.2v0.9h-2.6v0.6c0,1.5,1.1,3,2.8,3.6L91.1,66.7z M94.7,70.4v0.9h-7.8v-3.6H88v2.7H94.7z M93.3,63.1v-3.2h1.1v8.5h-1.1V64
		h-2.3v-0.9H93.3z"/>
	<path class="st3" d="M103.4,66.6c-1.3-0.5-2.3-1.5-2.8-2.7c-0.5,1.4-1.5,2.4-2.9,3L97.1,66c1.8-0.6,2.9-2.2,2.9-4v-1.4h1.1v1.5
		c0,1.6,1.2,3.1,2.9,3.7L103.4,66.6z M100,70.4h6.7v0.9H99v-3.6h1.1V70.4z M107.9,63.5v0.9h-1.7v4.1h-1.1v-8.6h1.1v3.6H107.9z"/>
	<path class="st3" d="M113.7,63c0,2.1,1.4,4.3,3.1,5.1l-0.6,0.9c-1.3-0.7-2.4-2-3-3.7c-0.5,1.8-1.7,3.2-3,3.9l-0.6-0.9
		c1.7-0.8,3.1-3.1,3.1-5.3v-2.1h1.1V63z M119.1,59.9v11.7H118V59.9H119.1z"/>
	<path class="st3" d="M132.5,69.1V70h-10.6v-0.9H132.5z M131.5,66.6c-1.8-0.4-3.6-1.7-4.3-3.4c-0.7,1.7-2.6,3-4.3,3.4l-0.5-0.9
		c2-0.4,4.2-2.2,4.2-4.1v-0.9h1.1v0.9c0,2,2.2,3.8,4.3,4.1L131.5,66.6z"/>
	<path class="st3" d="M139.9,65.9c-1.3,0.3-2.4,0.3-4.3,0.3h-0.7v-5.6h4.4v0.9h-3.4v1.4h2.9v0.8h-2.9v1.6c1.7,0,2.7-0.1,3.9-0.3
		L139.9,65.9z M136.5,67.5h7.7v3.9h-7.7V67.5z M137.5,70.5h5.6v-2.2h-5.6V70.5z M140.9,63.7h-1.5v-0.9h1.5v-2.7h1v6.7h-1V63.7z
		 M144.2,59.9v7h-1v-7H144.2z"/>
	<path class="st3" d="M160.6,66.5h-4.8v5h-1.1v-5h-4.7v-0.9h7.7c0.4-1.7,0.4-2.9,0.4-4v-0.2h-6.8v-0.9h7.8v1c0,1.1,0,2.3-0.3,4h1.7
		V66.5z"/>
	<path class="st3" d="M168.2,66.6v1.3h3.4v3.6h-1.1v-2.7h-7v-0.8h3.6v-1.3h-4.7v-0.9H173v0.9H168.2z M163.1,64.3
		c2.2-0.2,4-1.1,4.1-2.4h-3.6V61h3.7v-1.2h1.1V61h3.7v0.8h-3.6c0.1,1.3,1.9,2.2,4.1,2.4l-0.3,0.8c-1.9-0.2-3.6-0.9-4.3-2.1
		c-0.7,1.2-2.4,1.9-4.3,2.1L163.1,64.3z"/>
	<path class="st3" d="M184.2,65.4h-5.4v-4.8h5.4V65.4z M184.6,68.2c0,1.1,1.8,2.2,3.8,2.5l-0.4,0.8c-1.8-0.2-3.3-1.1-4-2.1
		c-0.7,1.1-2.3,1.9-4.1,2.1l-0.4-0.8c2-0.2,3.8-1.3,3.9-2.5h-3.4v-0.8h3.4v-1.1h1.1v1.1h3.4v0.8H184.6z M183.2,61.5h-3.4v3.1h3.4
		V61.5z M187.7,66.6h-1.1v-6.7h1.1V66.6z"/>
	<path class="st3" d="M201.2,66.3c-2.4,0.4-5.2,0.5-7.3,0.5l-0.1-0.9c0.7,0,1.6,0,2.5,0v-2.5h1.1v2.5c1.3-0.1,2.6-0.2,3.8-0.3
		L201.2,66.3z M199,64.7c0.3-1.3,0.3-2.3,0.3-3.1h-4.8v-0.9h5.8v0.6c0,0.8,0,1.9-0.3,3.5L199,64.7z M196.7,70.4h6.7v0.9h-7.7v-3.4
		h1.1V70.4z M204.6,63.7v0.9H203v4.1h-1.1v-8.8h1.1v3.8H204.6z"/>
	<path class="st3" d="M208,67.9c1.9,0,3.6-0.1,5.7-0.4l0.1,0.9c-2.1,0.4-3.9,0.4-5.9,0.4h-1v-4.5h4.3v-2.4h-4.3V61h5.4v4.2H208V67.9
		z M215.8,59.9v11.7h-1.1V59.9H215.8z"/>
</g>
<g class="st2">
	<path class="st3" d="M23.6,87.8c0-1.1,0.8-1.8,1.6-1.8c0.9,0,1.6,0.7,1.6,1.8c0,1-0.8,1.7-1.6,1.7C24.3,89.5,23.6,88.8,23.6,87.8z"
		/>
	<path class="st3" d="M38.4,82.9h-6.5v-0.9h2.8v-1.3h1.1v1.3h2.7V82.9z M35.2,87.7c-1.6,0-2.6-0.8-2.6-2.1s1.1-2.1,2.6-2.1
		c1.5,0,2.6,0.8,2.6,2.1S36.7,87.7,35.2,87.7z M35.2,86.9c1,0,1.6-0.5,1.6-1.3s-0.7-1.3-1.6-1.3s-1.6,0.5-1.6,1.3
		S34.2,86.9,35.2,86.9z M40.4,88.3h1.1v4.1h-7.6v-4.1H35v1.2h5.4V88.3z M40.4,90.3H35v1.2h5.4V90.3z M41.5,80.9v6.9h-1.1v-1h-2v-0.9
		h2v-1.4h-2v-0.9h2v-2.7H41.5z"/>
	<path class="st3" d="M50.5,87.2c-1.4,0.2-2.6,0.3-4.9,0.3h-0.8v-3.5h4v-1.6h-4v-0.9h5v3.3h-4v1.8c2.2,0,3.3-0.1,4.6-0.3L50.5,87.2z
		 M46,88.7h7.8v3.9h-1.1v-3H46V88.7z M53.9,80.9v7.2h-1.1v-2.2h-2.3V85h2.3v-1.6h-2.3v-0.9h2.3v-1.7H53.9z"/>
	<path class="st3" d="M66.2,80.9v6.3h-1.1v-2.6h-2.4c-0.2,1.4-1.4,2.3-3,2.3c-1.7,0-3-1.1-3-2.7c0-1.6,1.3-2.7,3-2.7
		c1.6,0,2.7,0.9,3,2.2h2.4v-2.8H66.2z M61.8,84.1c0-1.1-0.8-1.8-2-1.8c-1.2,0-2,0.7-2,1.8c0,1.1,0.8,1.8,2,1.8
		C61,85.9,61.8,85.2,61.8,84.1z M65.2,87.7h1.1v4.7h-7.5v-4.7h1.1v1.5h5.3V87.7z M65.2,90h-5.3v1.5h5.3V90z"/>
	<path class="st3" d="M72.4,84.5c0,1.9,0.9,3.8,2.5,4.6l-0.6,0.8c-1.1-0.6-2-1.8-2.4-3.2c-0.4,1.5-1.2,2.8-2.4,3.5l-0.6-0.8
		c1.6-0.9,2.5-3,2.5-4.9v-0.6h-2.2V83h2.2v-1.7h1V83h2.1v0.9h-2.2V84.5z M75.6,81.2h1v10.8h-1v-5.6h-1.8v-0.9h1.8V81.2z M78.9,80.9
		v11.6h-1V80.9H78.9z"/>
	<path class="st3" d="M88,87.4c-1.7,0-3-1.2-3-2.9c0-1.7,1.3-2.9,3-2.9s3,1.2,3,2.9C91.1,86.3,89.8,87.4,88,87.4z M88,86.5
		c1.1,0,2-0.8,2-1.9c0-1.1-0.9-2-2-2s-2,0.8-2,2C86,85.7,86.9,86.5,88,86.5z M87.6,91.4h6.7v0.9h-7.8v-3.7h1.1V91.4z M95.5,84.4v0.9
		h-1.7v4.1h-1.1v-8.6h1.1v3.5H95.5z"/>
	<path class="st3" d="M103.5,87.7c-1.3-0.5-2.3-1.4-2.8-2.6c-0.5,1.3-1.6,2.4-2.9,2.9l-0.6-0.8c1.7-0.6,2.9-2.2,2.9-3.8v-0.6h-2.6
		v-0.9h6.2v0.9h-2.6v0.6c0,1.5,1.1,3,2.8,3.6L103.5,87.7z M107.1,91.4v0.9h-7.8v-3.6h1.1v2.7H107.1z M105.7,84.1v-3.2h1.1v8.5h-1.1
		V85h-2.3v-0.9H105.7z"/>
	<path class="st3" d="M116.8,87.3c-2.4,0.4-5.2,0.5-7.3,0.5l-0.1-0.9c0.7,0,1.6,0,2.5,0v-2.5h1.1v2.5c1.3-0.1,2.6-0.2,3.8-0.3
		L116.8,87.3z M114.6,85.7c0.3-1.3,0.3-2.3,0.3-3.1h-4.8v-0.9h5.8v0.6c0,0.8,0,1.9-0.3,3.5L114.6,85.7z M112.3,91.4h6.7v0.9h-7.7
		v-3.4h1.1V91.4z M120.3,84.7v0.9h-1.7v4.1h-1.1v-8.8h1.1v3.8H120.3z"/>
	<path class="st3" d="M123.7,88.9c1.9,0,3.6-0.1,5.7-0.4l0.1,0.9c-2.1,0.4-3.9,0.4-5.9,0.4h-1v-4.5h4.3v-2.4h-4.3V82h5.4v4.2h-4.3
		V88.9z M131.5,80.9v11.7h-1.1V80.9H131.5z"/>
	<path class="st3" d="M143.6,81.8c0,3-2.1,5.1-5.4,6.1l-0.4-0.9c2.8-0.8,4.5-2.4,4.7-4.4h-4.2v-0.9H143.6z M146.8,90.3
		c0,1.4-1.5,2.3-3.8,2.3c-2.3,0-3.8-0.9-3.8-2.3c0-1.4,1.5-2.3,3.8-2.3C145.3,88,146.8,88.9,146.8,90.3z M145.8,90.3
		c0-0.9-1.1-1.4-2.7-1.4c-1.7,0-2.7,0.5-2.7,1.4c0,0.9,1.1,1.4,2.7,1.4C144.7,91.7,145.8,91.2,145.8,90.3z M148.4,83.9v0.9h-1.7v3.1
		h-1.1v-7h1.1v3H148.4z"/>
	<path class="st3" d="M154.1,89.4c1.1-0.1,2.1-0.1,3.1-0.3l0.1,0.8c-2.5,0.4-5.2,0.5-7.3,0.5l-0.1-0.9c0.9,0,2,0,3.2,0v-1.3
		c-1.3-0.2-2.2-1-2.2-2.1c0-1.3,1.1-2.2,2.8-2.2s2.8,0.8,2.8,2.2c0,1.2-0.9,2-2.2,2.1V89.4z M157.1,83.1h-7v-0.8h3v-1.4h1.1v1.4h2.9
		V83.1z M153.6,87.3c1,0,1.7-0.5,1.7-1.3c0-0.8-0.7-1.3-1.7-1.3s-1.7,0.5-1.7,1.3C151.9,86.8,152.6,87.3,153.6,87.3z M160.8,86.7
		H159v5.8H158V80.9h1.1v5h1.8V86.7z"/>
	<path class="st3" d="M171.8,86.4h-5.4v-4.8h5.4V86.4z M172.2,89.2c0,1.1,1.8,2.2,3.8,2.5l-0.4,0.8c-1.8-0.2-3.3-1.1-4-2.1
		c-0.7,1.1-2.3,1.9-4.1,2.1l-0.4-0.8c2-0.2,3.8-1.3,3.9-2.5h-3.4v-0.8h3.4v-1.1h1.1v1.1h3.4v0.8H172.2z M170.8,82.5h-3.4v3.1h3.4
		V82.5z M175.3,87.6h-1.1v-6.7h1.1V87.6z"/>
	<path class="st3" d="M185.7,84.4c0,2,1.4,4,3.1,4.7l-0.6,0.9c-1.4-0.6-2.5-2-3.1-3.6c-0.5,1.7-1.7,3.2-3,3.8l-0.6-0.9
		c1.7-0.8,3.1-3,3.1-5V83h-2.7v-0.9h6.5V83h-2.7V84.4z M191,80.9v11.6H190V80.9H191z"/>
	<path class="st3" d="M197.2,87.1c-1.2,0.1-2.3,0.1-3.2,0.1l-0.1-0.9c2.2,0,5,0,7.5-0.3l0.1,0.8c-1,0.2-2.1,0.3-3.2,0.3v2.3h-1.1
		V87.1z M194.7,83.4c0-1.2,1.2-2,2.9-2c1.7,0,2.9,0.8,2.9,2c0,1.2-1.2,2-2.9,2C195.9,85.4,194.7,84.6,194.7,83.4z M203.7,91.4v0.9
		h-8.2v-3.4h1.1v2.5H203.7z M195.8,83.4c0,0.8,0.8,1.2,1.9,1.2c1.1,0,1.9-0.5,1.9-1.2c0-0.7-0.8-1.2-1.9-1.2
		C196.5,82.1,195.8,82.6,195.8,83.4z M202.4,87.8v-6.9h1.1v8.9h-1.1v-1.2H200v-0.8H202.4z"/>
</g>
<g class="st2">
	<path class="st3" d="M23.6,108.8c0-1.1,0.8-1.8,1.6-1.8c0.9,0,1.6,0.7,1.6,1.8c0,1-0.8,1.7-1.6,1.7
		C24.3,110.5,23.6,109.8,23.6,108.8z"/>
	<path class="st3" d="M37.7,108.2v1.2c2.2,0.1,3.4,0.8,3.4,2c0,1.3-1.5,2.1-4,2.1c-2.5,0-4-0.7-4-2.1c0-1.2,1.3-1.9,3.5-2v-1.2h-4.7
		v-0.9h10.5v0.9H37.7z M32.5,105.8c2-0.2,3.9-1.2,4-2.5h-3.6v-0.9h8.6v0.9h-3.6c0.1,1.3,2,2.3,4,2.5l-0.4,0.8
		c-1.9-0.2-3.7-1.1-4.3-2.4c-0.6,1.3-2.4,2.1-4.3,2.4L32.5,105.8z M37.1,110.3c-1.8,0-2.9,0.4-2.9,1.2c0,0.8,1.1,1.2,2.9,1.2
		c1.8,0,2.9-0.5,2.9-1.2C40,110.7,38.9,110.3,37.1,110.3z"/>
	<path class="st3" d="M45.7,109.8c1.6,0,2.7-0.1,3.9-0.4l0.1,0.9c-1.4,0.3-2.6,0.4-4.3,0.4h-0.8v-7.4H49v0.9h-3.3V109.8z
		 M54.2,101.9v11.7h-1v-6.1h-1.7v5.5h-1v-10.8h1v4.4h1.7v-4.7H54.2z"/>
	<path class="st3" d="M60.1,105c0,2.1,0.8,4,2.5,4.9l-0.6,0.8c-1.1-0.6-2-1.8-2.4-3.1c-0.4,1.6-1.2,2.8-2.4,3.5l-0.7-0.8
		c1.7-0.9,2.5-2.9,2.5-5.3v-0.9h-2.3v-0.9h5.4v0.9h-2.1V105z M66.6,101.9v11.7h-1v-6.1H64v5.5h-1v-10.8h1v4.4h1.5v-4.7H66.6z"/>
	<path class="st3" d="M72.4,103.9h2.4v0.9H69v-0.9h2.4v-1.7h1.1V103.9z M74.4,108.2c0,1.6-1.1,2.7-2.5,2.7c-1.4,0-2.5-1.1-2.5-2.7
		c0-1.6,1.1-2.7,2.5-2.7C73.4,105.5,74.4,106.6,74.4,108.2z M73.5,108.2c0-1-0.6-1.8-1.5-1.8c-0.9,0-1.5,0.7-1.5,1.8
		c0,1,0.6,1.8,1.5,1.8C72.8,110,73.5,109.2,73.5,108.2z M78.9,101.9v11.7h-1v-5.9h-1.5v5.3h-1v-10.8h1v4.7h1.5v-4.9H78.9z"/>
	<path class="st3" d="M91.4,102.1h1V113h-1v-3.8h-1.8c-0.4,1.2-1.2,1.8-2.2,1.8c-1.5,0-2.5-1.6-2.5-4.1c0-2.5,1-4.1,2.5-4.1
		c1,0,1.8,0.7,2.2,1.8h1.8V102.1z M88.9,106.9c0-1.9-0.6-3.1-1.5-3.1c-0.9,0-1.5,1.2-1.5,3.1c0,1.9,0.6,3.1,1.5,3.1
		C88.3,110,88.9,108.8,88.9,106.9z M91.4,108.3v-2.7h-1.6c0.1,0.4,0.1,0.8,0.1,1.3s0,0.9-0.1,1.3H91.4z M94.7,101.9v11.7h-1v-11.7
		H94.7z"/>
	<path class="st3" d="M103,108h-5.4v-5.4h1.1v1.8h3.3v-1.8h1V108z M106.3,111.4c0,1.4-1.5,2.2-3.8,2.2c-2.4,0-3.8-0.8-3.8-2.2
		s1.5-2.2,3.8-2.2C104.9,109.2,106.3,110,106.3,111.4z M102,105.2h-3.3v1.9h3.3V105.2z M105.3,111.4c0-0.8-1.1-1.3-2.8-1.3
		c-1.7,0-2.8,0.5-2.8,1.3s1,1.3,2.8,1.3C104.2,112.7,105.3,112.2,105.3,111.4z M107.9,104.8v0.9h-1.7v3.2h-1.1v-7h1.1v2.9H107.9z"/>
</g>
<g class="st2">
	<path class="st3" d="M115.5,104.1h-2.9v-1h7v1h-2.9v8.5h-1.2V104.1z"/>
	<path class="st3" d="M121.7,103h5.5v1h-4.3v3.2h3.6v1h-3.6v4.3h-1.2V103z"/>
	<path class="st3" d="M131.3,104.1h-2.9v-1h7v1h-2.9v8.5h-1.2V104.1z"/>
</g>
<g class="st2">
	<path class="st3" d="M150.8,107.8v0.9h-4.7v2.4h-1.1v-2.4h-4.8v-0.9H150.8z M141.4,104.5c0-1.4,1.6-2.3,4.1-2.3
		c2.5,0,4.1,0.9,4.1,2.3c0,1.4-1.6,2.3-4.1,2.3C143,106.9,141.4,106,141.4,104.5z M142.7,112.4h7v0.9h-8.1v-3.4h1.1V112.4z
		 M142.6,104.5c0,0.9,1.2,1.5,3,1.5c1.8,0,3-0.6,3-1.5c0-0.9-1.2-1.5-3-1.5C143.7,103,142.6,103.6,142.6,104.5z"/>
	<path class="st3" d="M158.2,107.1c-0.5,0.6-1.4,1-2.4,1c-1.7,0-3-1.1-3-2.8c0-1.6,1.3-2.8,3-2.8c1,0,1.8,0.4,2.4,1h3v-1.7h1.1v6.9
		h-1.1v-1.7H158.2z M155.8,107.2c1.1,0,2-0.8,2-1.9c0-1.1-0.8-1.9-2-1.9c-1.1,0-2,0.8-2,1.9C153.8,106.4,154.7,107.2,155.8,107.2z
		 M162.3,111.3c0,1.4-1.5,2.2-3.9,2.2c-2.4,0-3.9-0.8-3.9-2.2s1.5-2.2,3.9-2.2C160.8,109.1,162.3,109.9,162.3,111.3z M161.2,111.3
		c0-0.9-1.1-1.4-2.8-1.4c-1.8,0-2.8,0.5-2.8,1.4c0,0.9,1.1,1.4,2.8,1.4C160.2,112.7,161.2,112.2,161.2,111.3z M158.7,104.4
		c0.1,0.3,0.1,0.6,0.1,0.9c0,0.3-0.1,0.6-0.2,0.9h2.5v-1.8H158.7z"/>
</g>
<g id="사각형_516">
	<rect y="0" class="st4" width="335" height="37.7"/>
	<rect x="0.5" y="0.5" class="st1" width="334" height="36.7"/>
</g>
<g class="st2">
	<path class="st5" d="M123.8,15.3h-7.6v-1.4h2.9v-1.3h1.9v1.3h2.9V15.3z M120,20.3c-1.9,0-3.2-0.9-3.2-2.3c0-1.4,1.3-2.3,3.2-2.3
		c1.9,0,3.2,0.9,3.2,2.3C123.1,19.4,121.8,20.3,120,20.3z M126.5,23.2c0,1.4-1.7,2.3-4.3,2.3c-2.7,0-4.3-0.9-4.3-2.3
		c0-1.4,1.7-2.3,4.3-2.3C124.8,20.9,126.5,21.8,126.5,23.2z M120,19c0.8,0,1.4-0.3,1.4-1c0-0.6-0.6-1-1.4-1c-0.8,0-1.4,0.3-1.4,1
		C118.6,18.6,119.1,19,120,19z M124.6,23.2c0-0.6-0.9-0.9-2.5-0.9s-2.5,0.3-2.5,0.9c0,0.6,0.9,0.9,2.5,0.9S124.6,23.8,124.6,23.2z
		 M126.3,16v1.3h1.7v1.5h-1.7v2h-1.8v-8.2h1.8v1.8h1.7V16H126.3z"/>
	<path class="st5" d="M141.2,22.4h-4.9v3.1h-1.8v-3.1h-4.9V21h11.7V22.4z M140.6,15.4h-10.5v-1.4h4.3v-1.4h1.8v1.4h4.3V15.4z
		 M135.3,15.9c2.8,0,4.4,0.8,4.4,2.2c0,1.4-1.7,2.2-4.4,2.2c-2.8,0-4.4-0.8-4.4-2.2C130.9,16.7,132.6,15.9,135.3,15.9z M135.3,17.3
		c-1.7,0-2.5,0.3-2.5,0.9c0,0.6,0.8,0.8,2.5,0.8c1.7,0,2.5-0.3,2.5-0.8C137.8,17.5,137,17.3,135.3,17.3z"/>
	<path class="st5" d="M153.2,12.9h1.7v12.1h-1.7v-4.2h-1.8v-1.5h1.8v-1.8h-1.6c-0.6,2.1-1.9,3.9-4.3,5.4l-1.1-1.3
		c2.5-1.6,3.7-3.4,3.9-5.9H147v-1.5h5c0,0.7,0,1.3-0.1,1.9h1.2V12.9z M157.6,12.6v12.9h-1.8V12.6H157.6z"/>
	<path class="st5" d="M168.1,20.6c-2.7,0.5-5.7,0.5-7.9,0.5l-0.2-1.4c1,0,2.1,0,3.2,0V19c-1.4-0.2-2.3-0.9-2.3-1.9
		c0-1.2,1.3-1.9,3.2-1.9c1.9,0,3.2,0.7,3.2,1.9c0,1-0.9,1.7-2.3,1.9v0.6c1-0.1,2-0.1,3-0.3L168.1,20.6z M167.8,14.9h-7.6v-1.3h2.9
		v-1h1.8v1h2.8V14.9z M161.7,21.8h8.9v3.7h-1.9v-2.2h-7V21.8z M164.1,17.8c0.9,0,1.4-0.3,1.4-0.7c0-0.5-0.5-0.7-1.4-0.7
		c-0.9,0-1.4,0.2-1.4,0.7C162.6,17.6,163.2,17.8,164.1,17.8z M170.6,12.6v8.7h-1.9v-8.7H170.6z"/>
	<path class="st5" d="M183.7,18.8h-6.3v-5.5h6.3V18.8z M184.2,22c0.2,0.9,1.5,1.9,4,2.1l-0.6,1.4c-2.1-0.2-3.6-1-4.4-1.9
		c-0.8,1-2.3,1.8-4.5,1.9l-0.6-1.4c2.6-0.2,3.9-1.2,4.1-2.1h-3.6v-1.4h3.6v-1.1h1.9v1.1h3.6V22H184.2z M181.9,14.8h-2.6v2.6h2.6
		V14.8z M187.5,19.9h-1.8v-7.3h1.8V19.9z"/>
	<path class="st5" d="M205.5,18.9v1.5h-11.7v-1.5h4.9v-1.2h-3.5v-4.6h8.8v4.6h-3.4v1.2H205.5z M195.1,21.3h9v4.2h-1.8v-2.8h-7.1
		V21.3z M197.1,16.2h5.1v-1.7h-5.1V16.2z"/>
	<path class="st5" d="M218.8,22.6v1.5h-11.7v-1.5h2.9v-2.4h-1.9v-1.5h1.7v-3.6h-1.8v-1.5h9.8v1.5h-1.8v3.6h1.7v1.5h-1.9v2.4H218.8z
		 M211.6,18.7h2.6v-3.6h-2.6V18.7z M211.9,22.6h2.2v-2.4h-2.2V22.6z"/>
</g>
</svg>
