<?xml version="1.0" encoding="utf-8"?>
<!-- Generator: Adobe Illustrator 25.1.0, SVG Export Plug-In . SVG Version: 6.00 Build 0)  -->
<svg version="1.1" id="레이어_1" xmlns="http://www.w3.org/2000/svg" xmlns:xlink="http://www.w3.org/1999/xlink" x="0px"
	 y="0px" viewBox="0 0 335 168.5" style="enable-background:new 0 0 335 168.5;" xml:space="preserve">
<style type="text/css">
	.st0{enable-background:new    ;}
	.st1{fill:#DF1C2F;}
	.st2{fill:#929397;}
	.st3{fill:#E2E2E2;}
	.st4{fill:#808080;}
	.st5{fill:#A3A3A3;}
	.st6{fill:#FFFFFF;}
	.st7{fill:none;stroke:#D5D5D5;}
</style>
<g id="그룹_5720" transform="translate(-20 -1355.269)">
	<g class="st0">
		<path class="st1" d="M27.4,1367.1c-1.4-0.5-2.4-1.4-2.9-2.5c-0.6,1.3-1.6,2.3-3.1,2.8l-1-1.4c2.2-0.7,3.1-2.4,3.1-4.2v-1.4h1.9
			v1.4c0,1.6,0.9,3.3,3,3.9L27.4,1367.1z M24.3,1370.8h6.9v1.5h-8.8v-4.1h1.8V1370.8z M32.5,1363.3v1.5h-1.7v4.2h-1.8v-9.4h1.8v3.7
			H32.5z"/>
		<path class="st1" d="M44.3,1359.6v6.9h-1.8v-2.6h-2c-0.4,1.4-1.7,2.4-3.3,2.4c-1.9,0-3.4-1.3-3.4-3.1s1.5-3.1,3.4-3.1
			c1.6,0,3,0.9,3.3,2.3h2.1v-2.8H44.3z M38.7,1363.2c0-1-0.7-1.5-1.6-1.5c-0.9,0-1.6,0.6-1.6,1.5c0,1,0.7,1.5,1.6,1.5
			C38,1364.7,38.7,1364.2,38.7,1363.2z M42.4,1367.1h1.8v5.3h-8.5v-5.3h1.8v1.2h4.9V1367.1z M42.4,1369.7h-4.9v1.1h4.9V1369.7z"/>
		<path class="st1" d="M57.5,1359.6v12.9h-1.8v-6.4h-1.1v5.9H53v-3.7l-1,1.4c-1.1-0.6-1.9-1.7-2.4-2.9c-0.4,1.5-1.2,2.7-2.4,3.4
			l-1.1-1.4c1.9-1.1,2.5-3.4,2.5-5.9v-0.3h-2.1v-1.5h5.8v1.5h-1.9v0.3c0,2.3,0.6,4.4,2.5,5.4v-8.3h1.7v4.7h1.1v-4.9H57.5z"/>
		<path class="st1" d="M63.2,1361.5h2.1v1.5h-6.2v-1.5h2.2v-1.6h1.8V1361.5z M65.2,1366.6c0,1.8-1.2,3.1-2.8,3.1
			c-1.7,0-2.8-1.3-2.8-3.1c0-1.8,1.2-3.1,2.8-3.1C64,1363.6,65.2,1364.8,65.2,1366.6z M63.5,1366.6c0-1-0.5-1.5-1.2-1.5
			c-0.7,0-1.2,0.6-1.2,1.5s0.5,1.5,1.2,1.5C63,1368.2,63.5,1367.6,63.5,1366.6z M70.3,1359.6v12.9h-1.8v-6.1h-1v5.6h-1.7v-12.1h1.7
			v5h1v-5.3H70.3z"/>
		<path class="st1" d="M81.9,1365.8h-6.2v-5.7h1.8v1.5H80v-1.5h1.8V1365.8z M78.8,1370.9h7v1.4H77v-3.6h6.7v-0.8h-6.7v-1.4h8.5v3.5
			h-6.7V1370.9z M80,1363.1h-2.5v1.3H80V1363.1z M87.2,1362.1v1.5h-1.7v2.6h-1.8v-6.6h1.8v2.5H87.2z"/>
		<path class="st1" d="M93.7,1366.7c-1.1-0.4-1.8-1.2-2.3-2.1c-0.5,1.1-1.3,2-2.5,2.5l-1-1.4c1.8-0.8,2.5-2.4,2.5-3.8v-1.5h1.8v1.5
			c0,1.4,0.7,2.8,2.4,3.5L93.7,1366.7z M99.2,1370.1c0,1.5-1.7,2.4-4.4,2.4c-2.7,0-4.5-0.9-4.5-2.4c0-1.5,1.7-2.4,4.5-2.4
			C97.5,1367.7,99.2,1368.6,99.2,1370.1z M97.4,1370.1c0-0.7-0.9-1-2.6-1c-1.7,0-2.6,0.3-2.6,1c0,0.7,0.9,1,2.6,1
			C96.5,1371.1,97.4,1370.8,97.4,1370.1z M96.4,1367.1h-1.7v-7.2h1.7v2.9h1v-3.1h1.8v7.9h-1.8v-3.3h-1V1367.1z"/>
		<path class="st1" d="M111.1,1360.5c0,3.5-2.2,6-5.9,7.2l-0.8-1.5c2.7-0.8,4.4-2.4,4.7-4.3h-4v-1.5H111.1z M115.3,1370.8v1.5h-8.8
			v-4.2h1.8v2.7H115.3z M113.2,1363.3v-3.8h1.8v9.4h-1.8v-4.2h-2.2v-1.5H113.2z"/>
		<path class="st1" d="M128.8,1368.1h-4.9v4.4H122v-4.4h-4.9v-1.5h11.7V1368.1z M127.7,1365.6c-2.3-0.3-3.9-1.4-4.7-2.8
			c-0.8,1.4-2.5,2.4-4.7,2.8l-0.7-1.5c2.9-0.4,4.4-2.1,4.4-3.6v-0.6h2v0.6c0,1.5,1.5,3.2,4.4,3.6L127.7,1365.6z"/>
	</g>
	<g class="st0">
		<path class="st2" d="M26.4,1388.2c-1.4,0.3-2.5,0.3-4.6,0.3H21v-4.5h4.4v0.7h-3.5v3.1c1.9,0,3.1-0.1,4.4-0.3L26.4,1388.2z
			 M23,1392.1h5.7v0.7h-6.6v-3.2H23V1392.1z M29.7,1386.1v0.7h-1.5v3.5h-0.9v-7.1h0.9v2.9H29.7z"/>
		<path class="st2" d="M37.3,1388.8c-0.9,0.2-1.9,0.3-2.8,0.3v3.6h-0.9v-3.5c-1,0-1.9,0.1-2.7,0.1l-0.1-0.8c1.8,0,4.3,0,6.5-0.4
			L37.3,1388.8z M31.4,1385.7c0-1.2,1-2,2.5-2c1.5,0,2.5,0.8,2.5,2c0,1.2-1,2-2.5,2C32.5,1387.7,31.4,1386.9,31.4,1385.7z
			 M32.3,1385.7c0,0.8,0.7,1.3,1.6,1.3c1,0,1.6-0.5,1.6-1.3c0-0.8-0.7-1.3-1.6-1.3C33,1384.4,32.3,1384.9,32.3,1385.7z M38.8,1383.2
			v9.9h-0.9v-9.9H38.8z"/>
		<path class="st2" d="M43.5,1387.2c0-0.5,0.3-0.8,0.7-0.8s0.7,0.3,0.7,0.8c0,0.4-0.3,0.8-0.7,0.8S43.5,1387.6,43.5,1387.2z
			 M43.5,1391.6c0-0.5,0.3-0.8,0.7-0.8s0.7,0.3,0.7,0.8c0,0.5-0.3,0.8-0.7,0.8S43.5,1392.1,43.5,1391.6z"/>
		<path class="st2" d="M53.9,1383.9c0,2.5-1.8,4.5-4.6,5.4l-0.4-0.7c2.3-0.7,3.8-2.2,4-3.9h-3.5v-0.7H53.9z M57.2,1392.1v0.7h-6.5
			v-3.1h0.9v2.4H57.2z M56,1386.2v-3h0.9v7.3H56v-3.5h-2.1v-0.7H56z"/>
	</g>
	<path id="패스_4980" class="st3" d="M148,1523.1h46v-102.1h-46V1523.1z"/>
	<g class="st0">
		<path class="st4" d="M160.5,1514.1c1.7-1.5,3.5-2.8,3.5-4.3c0-0.8-0.3-1.3-1.2-1.3c-0.8,0-1.2,0.6-1.3,1.4h-1.1
			c0-1.6,1.1-2.3,2.3-2.3c1.5,0,2.3,0.9,2.3,2.2c0,1.8-1.8,3.1-3,4.2h3.2v1h-4.9V1514.1z"/>
		<path class="st4" d="M168.9,1507.6c2,0,2.6,1.6,2.6,3.7c0,2.1-0.6,3.7-2.6,3.7s-2.6-1.6-2.6-3.7
			C166.3,1509.2,166.9,1507.6,168.9,1507.6z M168.9,1508.7c-1.3,0-1.5,1.3-1.5,2.6c0,1.4,0.1,2.7,1.5,2.7s1.5-1.2,1.5-2.7
			C170.4,1509.9,170.3,1508.7,168.9,1508.7z"/>
		<path class="st4" d="M173.5,1508.8h-0.9v-1h2.1v7.3h-1.1V1508.8z"/>
		<path class="st4" d="M176.4,1509.6c0-1.1,0.8-2,2.4-2c1.6,0,2.4,0.9,2.4,2c0,0.8-0.4,1.3-1,1.6c0.7,0.3,1.2,0.9,1.2,1.8
			c0,1.3-1.1,2.2-2.6,2.2c-1.5,0-2.6-0.9-2.6-2.2c0-0.9,0.5-1.5,1.2-1.8C176.9,1510.9,176.4,1510.4,176.4,1509.6z M177.3,1513
			c0,0.7,0.6,1.3,1.5,1.3c0.9,0,1.5-0.5,1.5-1.3c0-0.8-0.6-1.3-1.5-1.3C178,1511.7,177.3,1512.1,177.3,1513z M180.1,1509.7
			c0-0.8-0.5-1.2-1.3-1.2c-0.8,0-1.3,0.4-1.3,1.2c0,0.7,0.5,1.1,1.3,1.1C179.6,1510.9,180.1,1510.4,180.1,1509.7z"/>
	</g>
	<g class="st0">
		<path class="st5" d="M171,1400.9c2.3,0,3.6,1.3,3.6,3c0,1.4-0.9,2.3-1.8,2.6v0.1c1.2,0.4,2,1.4,2,3c0,1.9-1.3,3.3-3.7,3.3
			c-2.2,0-3.9-1.2-4-3.4h1.8c0.1,1.1,0.9,1.9,2.3,1.9c1.4,0,2-0.8,2-1.9c0-1.5-1-2.1-2.9-2.1h-0.4v-1.5h0.4c1.6,0,2.7-0.5,2.7-1.7
			c0-1-0.7-1.7-1.9-1.7c-1.3,0-1.9,0.8-2,1.6h-1.8C167.3,1402,168.9,1400.9,171,1400.9z"/>
	</g>
	<path id="패스_4982" class="st3" d="M218,1523.1h46v-85.5h-46V1523.1z"/>
	<g class="st0">
		<path class="st4" d="M230.5,1514.1c1.7-1.5,3.5-2.8,3.5-4.3c0-0.8-0.3-1.3-1.2-1.3c-0.8,0-1.2,0.6-1.3,1.4h-1.1
			c0-1.6,1.1-2.3,2.3-2.3c1.5,0,2.3,0.9,2.3,2.2c0,1.8-1.8,3.1-3,4.2h3.2v1h-4.9V1514.1z"/>
		<path class="st4" d="M239,1507.6c2,0,2.6,1.6,2.6,3.7c0,2.1-0.6,3.7-2.6,3.7s-2.6-1.6-2.6-3.7
			C236.4,1509.2,236.9,1507.6,239,1507.6z M239,1508.7c-1.3,0-1.5,1.3-1.5,2.6c0,1.4,0.1,2.7,1.5,2.7s1.5-1.2,1.5-2.7
			C240.4,1509.9,240.3,1508.7,239,1508.7z"/>
		<path class="st4" d="M243.5,1508.8h-0.9v-1h2.1v7.3h-1.1V1508.8z"/>
		<path class="st4" d="M247.7,1513.1c0.1,0.6,0.6,1,1.3,1c0.9,0,1.4-0.6,1.4-2.5c-0.3,0.5-1,0.7-1.6,0.7c-1.3,0-2.3-0.8-2.3-2.3
			c0-1.4,0.9-2.4,2.4-2.4c1.9,0,2.5,1.3,2.5,3.7c0,2.5-0.5,3.8-2.4,3.8c-1.5,0-2.2-0.9-2.3-2H247.7z M250.2,1510
			c0-0.9-0.5-1.5-1.4-1.5c-0.8,0-1.4,0.6-1.4,1.4c0,0.8,0.4,1.4,1.4,1.4C249.8,1511.4,250.2,1510.8,250.2,1510z"/>
	</g>
	<g class="st0">
		<path class="st5" d="M237.2,1427.9c2.8-2.4,5.7-4.5,5.7-6.8c0-1.2-0.5-2-1.9-2c-1.3,0-2,0.9-2,2.2h-1.8c0.1-2.5,1.7-3.8,3.8-3.8
			c2.4,0,3.7,1.4,3.7,3.5c0,2.8-2.9,5-4.8,6.7h5.1v1.5h-7.8V1427.9z"/>
	</g>
	<path id="패스_4984" class="st1" d="M284,1523.1h46v-64.8h-46V1523.1z"/>
	<g class="st0">
		<path class="st6" d="M295.2,1513.9c1.6-1.4,3.4-2.7,3.4-4c0-0.6-0.3-1.1-1-1.1c-0.7,0-1,0.5-1,1.2h-1.4c0-1.7,1.1-2.4,2.4-2.4
			c1.6,0,2.4,0.9,2.4,2.2c0,1.7-1.6,3-2.8,4h2.9v1.2h-4.9V1513.9z"/>
		<path class="st6" d="M303.8,1507.6c2.1,0,2.7,1.6,2.7,3.7c0,2.1-0.6,3.7-2.7,3.7c-2.1,0-2.7-1.6-2.7-3.7
			C301.1,1509.2,301.7,1507.6,303.8,1507.6z M303.8,1508.9c-1.2,0-1.3,1.1-1.3,2.4c0,1.3,0.1,2.4,1.3,2.4c1.2,0,1.3-1.1,1.3-2.4
			C305.1,1510,304.9,1508.9,303.8,1508.9z"/>
		<path class="st6" d="M307.4,1513.9c1.6-1.4,3.4-2.7,3.4-4c0-0.6-0.3-1.1-1-1.1c-0.7,0-1,0.5-1,1.2h-1.4c0-1.7,1.1-2.4,2.4-2.4
			c1.6,0,2.4,0.9,2.4,2.2c0,1.7-1.6,3-2.8,4h2.9v1.2h-4.9V1513.9z"/>
		<path class="st6" d="M316,1507.6c2.1,0,2.7,1.6,2.7,3.7c0,2.1-0.6,3.7-2.7,3.7c-2.1,0-2.7-1.6-2.7-3.7
			C313.3,1509.2,313.9,1507.6,316,1507.6z M316,1508.9c-1.2,0-1.3,1.1-1.3,2.4c0,1.3,0.1,2.4,1.3,2.4c1.2,0,1.3-1.1,1.3-2.4
			C317.3,1510,317.1,1508.9,316,1508.9z"/>
	</g>
	<g class="st0">
		<path class="st1" d="M306.2,1440.4h-1.6v-2.1h3.9v11.7h-2.3V1440.4z"/>
	</g>
	<path id="패스_4987" class="st7" d="M20,1523.3h335"/>
</g>
</svg>
