<?xml version="1.0" encoding="utf-8"?>
<!-- Generator: Adobe Illustrator 25.1.0, SVG Export Plug-In . SVG Version: 6.00 Build 0)  -->
<svg version="1.1" id="그룹_5695" xmlns="http://www.w3.org/2000/svg" xmlns:xlink="http://www.w3.org/1999/xlink" x="0px"
	 y="0px" viewBox="0 0 335 139.6" style="enable-background:new 0 0 335 139.6;" xml:space="preserve">
<style type="text/css">
	.st0{fill:none;}
	.st1{fill:none;stroke:#D5D5D5;}
	.st2{enable-background:new    ;}
	.st3{fill:#555555;}
	.st4{fill:#FFF8F8;}
	.st5{fill:#DF1C2F;}
</style>
<g id="사각형_330">
	<rect y="0" class="st0" width="335" height="139.6"/>
	<rect x="0.5" y="0.5" class="st1" width="334" height="138.6"/>
</g>
<g class="st2">
	<path class="st3" d="M23.6,67.8c0-1.1,0.8-1.8,1.6-1.8c0.9,0,1.6,0.7,1.6,1.8c0,1-0.8,1.7-1.6,1.7C24.3,69.5,23.6,68.8,23.6,67.8z"
		/>
	<path class="st3" d="M31.8,70.3l0.7-0.8c0.7,0.7,1.6,1.2,2.6,1.2c1.2,0,2-0.6,2-1.6c0-1-0.7-1.3-1.6-1.7l-1.4-0.6
		c-0.9-0.4-1.9-1.1-1.9-2.4c0-1.5,1.3-2.5,3-2.5c1.1,0,2.1,0.5,2.8,1.2l-0.6,0.8c-0.6-0.5-1.3-0.9-2.2-0.9c-1.1,0-1.8,0.5-1.8,1.4
		c0,0.9,0.8,1.3,1.6,1.6l1.4,0.6c1.1,0.5,2,1.1,2,2.5c0,1.5-1.2,2.7-3.2,2.7C33.8,71.8,32.6,71.2,31.8,70.3z"/>
	<path class="st3" d="M42.6,62H44l3.2,9.5h-1.3L45,68.7h-3.5l-0.9,2.9h-1.2L42.6,62z M41.8,67.7h2.9l-0.5-1.5
		c-0.4-1.1-0.6-2.1-1-3.2h-0.1c-0.3,1.1-0.6,2.1-0.9,3.2L41.8,67.7z"/>
	<path class="st3" d="M49,62h5.5v1h-4.3v3.2h3.6v1h-3.6v4.3H49V62z"/>
	<path class="st3" d="M56.6,62h5.5v1h-4.3v3h3.6v1h-3.6v3.5h4.4v1h-5.6V62z"/>
	<path class="st3" d="M66.6,63.1h-2.9v-1h7v1h-2.9v8.5h-1.2V63.1z"/>
	<path class="st3" d="M74.2,67.9L71.4,62h1.3l1.2,2.7c0.3,0.7,0.6,1.4,0.9,2.1h0.1c0.3-0.7,0.7-1.4,0.9-2.1L77,62h1.2l-2.9,5.8v3.7
		h-1.2V67.9z"/>
	<path class="st3" d="M82.6,70.9c2.8-2.8,4.4-4.4,4.4-6c0-1.1-0.6-1.8-1.8-1.8c-0.8,0-1.5,0.5-2,1.1l-0.7-0.7
		c0.8-0.8,1.6-1.4,2.8-1.4c1.7,0,2.8,1.1,2.8,2.7c0,1.7-1.6,3.5-3.8,5.8c0.5,0,1.1-0.1,1.6-0.1h2.7v1h-6V70.9z"/>
	<path class="st3" d="M90.3,66.9c0-3.1,1.1-4.8,3-4.8c1.8,0,3,1.7,3,4.8c0,3.1-1.1,4.8-3,4.8C91.5,71.8,90.3,70,90.3,66.9z
		 M95.1,66.9c0-2.7-0.7-3.8-1.8-3.8c-1.1,0-1.8,1.1-1.8,3.8c0,2.7,0.7,3.9,1.8,3.9C94.4,70.8,95.1,69.6,95.1,66.9z"/>
	<path class="st3" d="M97.9,70.9c2.8-2.8,4.4-4.4,4.4-6c0-1.1-0.6-1.8-1.8-1.8c-0.8,0-1.5,0.5-2,1.1l-0.7-0.7
		c0.8-0.8,1.6-1.4,2.8-1.4c1.7,0,2.8,1.1,2.8,2.7c0,1.7-1.6,3.5-3.8,5.8c0.5,0,1.1-0.1,1.6-0.1h2.7v1h-6V70.9z"/>
	<path class="st3" d="M105.6,66.9c0-3.1,1.1-4.8,3-4.8s3,1.7,3,4.8c0,3.1-1.1,4.8-3,4.8S105.6,70,105.6,66.9z M110.4,66.9
		c0-2.7-0.7-3.8-1.8-3.8c-1.1,0-1.8,1.1-1.8,3.8c0,2.7,0.7,3.9,1.8,3.9C109.7,70.8,110.4,69.6,110.4,66.9z"/>
</g>
<g class="st2">
	<path class="st3" d="M127.2,70.2V71h-10.6v-0.9H127.2z M119.4,62.9h-1.8v-0.9h8.6v0.9h-1.8V67h1.8v0.9h-8.6V67h1.8V62.9z
		 M123.4,62.9h-2.9V67h2.9V62.9z"/>
	<path class="st3" d="M139.6,70.2v0.9H129v-0.9h4.7V68h-3.4v-3.6h6.9v-1.8h-6.9v-0.9h8v3.5h-6.9v1.9h7.2V68h-3.7v2.2H139.6z"/>
	<path class="st3" d="M146.6,67.5c-1.1-0.5-1.8-1.3-2.2-2.3c-0.4,1.1-1.2,2.1-2.3,2.6l-0.6-0.8c1.5-0.7,2.4-2.2,2.4-3.5v-0.7h-2.1
		v-0.9h5.2v0.9h-2v0.6c0,1.3,0.8,2.7,2.3,3.3L146.6,67.5z M143.4,68.5h7.8v4h-1.1v-3.2h-6.8V68.5z M148,63.9v-2.7h1v6.8h-1v-3.2
		h-1.8v-0.9H148z M151.3,60.9V68h-1v-7.1H151.3z"/>
	<path class="st3" d="M164.4,70.2V71h-10.6v-0.9H164.4z M163.2,68h-8v-6.1h7.9v0.9h-6.8v1.7h6.6v0.8h-6.6v1.8h6.9V68z"/>
	<path class="st3" d="M180.1,68.8h-4.7v3.8h-1.1v-3.8h-4.7v-0.9h10.5V68.8z M170.2,66.2c2.1-0.3,4.1-1.6,4.1-3h-3.7v-0.9h3.7v-1.4
		h1.1v1.4h3.7v0.9h-3.7c0,1.4,2,2.7,4.1,3L179,67c-1.8-0.3-3.5-1.2-4.2-2.4c-0.7,1.3-2.4,2.2-4.2,2.4L170.2,66.2z"/>
	<path class="st3" d="M188.5,67.8c-1.3-0.5-2.4-1.4-2.9-2.7c-0.5,1.3-1.6,2.4-3,2.9l-0.6-0.8c1.8-0.6,3-2.1,3-3.8v-0.6h-2.7v-0.9
		h6.4v0.9h-2.6v0.6c0,1.6,1.2,3,2.9,3.6L188.5,67.8z M191.9,71.4v0.9H184v-3.7h1.1v2.8H191.9z M191.5,69.4h-1.1v-8.5h1.1V69.4z"/>
</g>
<g class="st2">
	<path class="st3" d="M23.6,88.8c0-1.1,0.8-1.8,1.6-1.8c0.9,0,1.6,0.7,1.6,1.8c0,1-0.8,1.7-1.6,1.7C24.3,90.5,23.6,89.8,23.6,88.8z"
		/>
	<path class="st3" d="M38.1,88.6c-1.3-0.5-2.3-1.5-2.8-2.7c-0.5,1.4-1.5,2.4-2.9,3L31.8,88c1.8-0.6,2.9-2.2,2.9-4v-1.4h1.1v1.5
		c0,1.6,1.2,3.1,2.9,3.7L38.1,88.6z M34.7,92.4h6.7v0.9h-7.7v-3.6h1.1V92.4z M42.6,85.5v0.9h-1.7v4.1h-1.1v-8.6h1.1v3.6H42.6z"/>
	<path class="st3" d="M53.9,81.9v6.3h-1.1v-2.6h-2.4c-0.2,1.4-1.4,2.3-3,2.3c-1.7,0-3-1.1-3-2.7c0-1.6,1.3-2.7,3-2.7
		c1.6,0,2.7,0.9,3,2.2h2.4v-2.8H53.9z M49.4,85.1c0-1.1-0.8-1.8-2-1.8c-1.2,0-2,0.7-2,1.8c0,1.1,0.8,1.8,2,1.8
		C48.6,86.9,49.4,86.2,49.4,85.1z M52.8,88.7h1.1v4.7h-7.5v-4.7h1.1v1.5h5.3V88.7z M52.8,91h-5.3v1.5h5.3V91z"/>
	<path class="st3" d="M59.9,88.4c-1.7,0-3-1.2-3-2.9c0-1.7,1.3-2.9,3-2.9s3,1.2,3,2.9C62.9,87.3,61.6,88.4,59.9,88.4z M59.9,87.5
		c1.1,0,2-0.8,2-1.9c0-1.1-0.9-2-2-2s-2,0.8-2,2C57.9,86.7,58.8,87.5,59.9,87.5z M59.5,92.4h6.7v0.9h-7.8v-3.7h1.1V92.4z M67.4,85.4
		v0.9h-1.7v4.1h-1.1v-8.6h1.1v3.5H67.4z"/>
	<path class="st3" d="M75.4,88.7c-1.3-0.5-2.3-1.4-2.8-2.6c-0.5,1.3-1.6,2.4-2.9,2.9l-0.6-0.8c1.7-0.6,2.9-2.2,2.9-3.8v-0.6h-2.6
		v-0.9h6.2v0.9h-2.6v0.6c0,1.5,1.1,3,2.8,3.6L75.4,88.7z M79,92.4v0.9h-7.8v-3.6h1.1v2.7H79z M77.6,85.1v-3.2h1.1v8.5h-1.1V86h-2.3
		v-0.9H77.6z"/>
	<path class="st3" d="M92,91.2V92H81.4v-0.9h4.7v-2.5h-3.5v-6h1.1v2.1h6v-2.1h1v6h-3.5v2.5H92z M83.7,87.8h6v-2.1h-6V87.8z"/>
	<path class="st3" d="M99.9,82.8c0,3-2.1,5.3-5.4,6.4L94,88.3c2.7-0.9,4.5-2.5,4.7-4.6h-4.1v-0.9H99.9z M103.7,92.4v0.9H96v-3.7h1.1
		v2.8H103.7z M102.3,85.5v-3.6h1.1v8.6h-1.1v-4.1h-2.5v-0.9H102.3z"/>
	<path class="st3" d="M115.8,81.9v6.4h-1.1v-2.6H112v2.2h-5.3v-5.3h1.1v1.8h3.1v-1.8h1.1v2.3h2.7v-2.9H115.8z M111,85.1h-3.1V87h3.1
		V85.1z M114.7,88.8h1.1v4.6h-7.5v-4.6h1.1v1.4h5.4V88.8z M114.7,91.1h-5.4v1.5h5.4V91.1z"/>
	<path class="st3" d="M128.3,88.7c-1.3-0.5-2.3-1.4-2.8-2.6c-0.5,1.3-1.6,2.4-2.9,2.9l-0.6-0.8c1.7-0.6,2.9-2.2,2.9-3.8v-0.6h-2.6
		v-0.9h6.2v0.9H126v0.6c0,1.5,1.1,3,2.8,3.6L128.3,88.7z M131.9,92.4v0.9h-7.8v-3.6h1.1v2.7H131.9z M130.4,85.1v-3.2h1.1v8.5h-1.1
		V86h-2.3v-0.9H130.4z"/>
	<path class="st3" d="M144.9,89.7h-4.8v3.9H139v-3.9h-4.7v-0.9h10.6V89.7z M143.5,87.4h-7.9v-5h1.1v1.6h5.8v-1.6h1.1V87.4z
		 M142.5,84.8h-5.8v1.7h5.8V84.8z"/>
	<path class="st3" d="M151.7,83.4c0,3-1.1,5.8-4.4,7.7l-0.6-0.8c2.7-1.5,3.8-3.6,3.9-6h-3.5v-0.9H151.7z M156.6,81.9v11.7h-1v-6.1
		H154V93h-1V82.2h1v4.4h1.6v-4.7H156.6z"/>
	<path class="st3" d="M165.4,88.4c-1.3-0.5-2.3-1.4-2.8-2.6c-0.5,1.4-1.6,2.4-2.9,3l-0.6-0.8c1.7-0.6,2.9-2.2,2.9-3.9v-0.4h-2.6
		v-0.9h6.2v0.9h-2.6V84c0,1.5,1.1,3,2.8,3.6L165.4,88.4z M168.7,91.4c0,1.4-1.5,2.2-3.9,2.2s-3.9-0.8-3.9-2.2s1.5-2.2,3.9-2.2
		S168.7,90,168.7,91.4z M167.7,91.4c0-0.8-1.1-1.4-2.8-1.4s-2.8,0.5-2.8,1.4s1.1,1.3,2.8,1.3S167.7,92.2,167.7,91.4z M167.6,84.9v-3
		h1.1v6.9h-1.1v-3.1h-2.3v-0.9H167.6z"/>
	<path class="st3" d="M180.7,88.5h-5.4v-5.8h1.1v2h3.3v-2h1V88.5z M179.7,85.5h-3.3v2.1h3.3V85.5z M177.7,92.4h6.7v0.9h-7.8v-3.7
		h1.1V92.4z M185.6,85.4v0.9h-1.7v4.1h-1.1v-8.6h1.1v3.5H185.6z"/>
	<path class="st3" d="M192.7,87.1c-0.5,0.6-1.4,1-2.4,1c-1.7,0-3-1.1-3-2.8c0-1.6,1.3-2.8,3-2.8c1,0,1.8,0.4,2.4,1h3v-1.7h1.1v6.9
		h-1.1v-1.7H192.7z M190.4,87.2c1.1,0,2-0.8,2-1.9c0-1.1-0.8-1.9-2-1.9c-1.1,0-2,0.8-2,1.9C188.4,86.4,189.3,87.2,190.4,87.2z
		 M196.9,91.3c0,1.4-1.5,2.2-3.9,2.2c-2.4,0-3.9-0.8-3.9-2.2s1.5-2.2,3.9-2.2C195.4,89.1,196.9,89.9,196.9,91.3z M195.8,91.3
		c0-0.9-1.1-1.4-2.8-1.4c-1.8,0-2.8,0.5-2.8,1.4c0,0.9,1.1,1.4,2.8,1.4C194.7,92.7,195.8,92.2,195.8,91.3z M193.2,84.4
		c0.1,0.3,0.1,0.6,0.1,0.9c0,0.3-0.1,0.6-0.2,0.9h2.5v-1.8H193.2z"/>
</g>
<g class="st2">
	<path class="st3" d="M23.6,109.8c0-1.1,0.8-1.8,1.6-1.8c0.9,0,1.6,0.7,1.6,1.8c0,1-0.8,1.7-1.6,1.7
		C24.3,111.5,23.6,110.8,23.6,109.8z"/>
	<path class="st3" d="M42.4,112.1v0.9H31.9v-0.9H36v-3H37v3H42.4z M40.1,106.8c0-0.6,0-1.2,0-1.7v-0.2h-7V104h8v1.1
		c0,1.4,0,3-0.5,5.4l-1.1-0.1c0.2-1,0.3-2,0.4-2.8l-7,0.4l-0.2-0.9L40.1,106.8z"/>
	<path class="st3" d="M54.8,112.2v0.9H44.2v-0.9H49V110h-3.4v-3.6h6.9v-1.8h-6.9v-0.9h8v3.5h-6.9v1.9h7.2v0.9h-3.7v2.2H54.8z"/>
	<path class="st3" d="M58.2,110.7c1.7,0,3.4-0.1,5.3-0.5l0.1,0.9c-2,0.4-3.8,0.5-5.6,0.5h-0.9V104h1.1V110.7z M67.5,108.4h-1.9v6.1
		h-1.1v-11.7h1.1v4.7h1.9V108.4z"/>
	<path class="st3" d="M69.5,112.6h2.1v-6.8h-1.7V105c0.8-0.1,1.5-0.4,2-0.7h0.9v8.3h1.9v1h-5.2V112.6z"/>
	<path class="st3" d="M76.7,112.8l0.7-0.7c0.4,0.5,0.9,0.7,1.5,0.7c1.3,0,2.4-1,2.5-4c-0.6,0.7-1.4,1.2-2.2,1.2
		c-1.6,0-2.7-1-2.7-2.9c0-1.8,1.2-3,2.7-3c1.8,0,3.2,1.5,3.2,4.5c0,3.7-1.7,5.1-3.5,5.1C78,113.8,77.2,113.3,76.7,112.8z
		 M79.4,109.1c0.6,0,1.4-0.4,2-1.3c-0.2-1.8-0.9-2.8-2.1-2.8c-0.9,0-1.6,0.8-1.6,2C77.7,108.3,78.2,109.1,79.4,109.1z"/>
	<path class="st3" d="M93.5,103.6c0,3-2.1,5.1-5.5,6l-0.4-0.8c2.8-0.8,4.6-2.3,4.8-4.3h-4.2v-0.9H93.5z M89.4,110h7.3v4.3h-7.3V110z
		 M90.4,113.5h5.2v-2.6h-5.2V113.5z M98.4,106.6h-1.7v2.9h-1.1v-6.6h1.1v2.9h1.7V106.6z"/>
	<path class="st3" d="M109.6,102.9v6.7h-1.1V108h-3c-0.5,0.6-1.4,1-2.4,1c-1.7,0-3-1.1-3-2.8c0-1.6,1.3-2.7,3-2.7c1,0,1.8,0.4,2.4,1
		h3v-1.7L109.6,102.9z M105.2,106.3c0-1.1-0.8-1.8-2-1.8s-2,0.8-2,1.8c0,1.1,0.8,1.9,2,1.9S105.2,107.4,105.2,106.3z M102.1,110.2
		h7.6v4.2h-7.6V110.2z M103.1,113.5h5.5V111h-5.5V113.5z M108.6,107.2v-1.8h-2.5c0.1,0.3,0.1,0.6,0.1,0.9c0,0.3-0.1,0.6-0.1,0.9
		H108.6z"/>
	<path class="st3" d="M122.4,103.1h1V114h-1v-3.8h-1.8c-0.4,1.2-1.2,1.8-2.2,1.8c-1.5,0-2.5-1.6-2.5-4.1c0-2.5,1-4.1,2.5-4.1
		c1,0,1.8,0.7,2.2,1.8h1.8V103.1z M119.9,107.9c0-1.9-0.6-3.1-1.5-3.1c-0.9,0-1.5,1.2-1.5,3.1c0,1.9,0.6,3.1,1.5,3.1
		C119.3,111,119.9,109.8,119.9,107.9z M122.4,109.3v-2.7h-1.6c0.1,0.4,0.1,0.8,0.1,1.3s0,0.9-0.1,1.3H122.4z M125.7,102.9v11.7h-1
		v-11.7H125.7z"/>
	<path class="st3" d="M134,109h-5.4v-5.4h1.1v1.8h3.3v-1.8h1V109z M137.3,112.4c0,1.4-1.5,2.2-3.8,2.2c-2.4,0-3.8-0.8-3.8-2.2
		s1.5-2.2,3.8-2.2C135.9,110.2,137.3,111,137.3,112.4z M133,106.2h-3.3v1.9h3.3V106.2z M136.3,112.4c0-0.8-1.1-1.3-2.8-1.3
		c-1.7,0-2.8,0.5-2.8,1.3s1,1.3,2.8,1.3C135.2,113.7,136.3,113.2,136.3,112.4z M138.9,105.8v0.9h-1.7v3.2h-1.1v-7h1.1v2.9H138.9z"/>
	<path class="st3" d="M147.9,109c-2.5,0.4-5.2,0.5-7.3,0.5l-0.1-0.8c0.9,0,2,0,3.1,0V108c-1.4-0.1-2.2-0.7-2.2-1.5
		c0-1,1.1-1.5,2.7-1.5c1.6,0,2.7,0.6,2.7,1.5c0,0.9-0.8,1.4-2.2,1.5v0.7c1.1-0.1,2.2-0.1,3.2-0.3L147.9,109z M147.5,104.5h-6.7v-0.8
		h2.8v-1h1.1v1h2.8V104.5z M143.1,113.6h6.9v0.8h-8v-2.5h6.5V111H142v-0.8h7.6v2.4h-6.5V113.6z M144.1,107.3c1,0,1.7-0.3,1.7-0.8
		c0-0.5-0.7-0.8-1.7-0.8c-1.1,0-1.7,0.3-1.7,0.8C142.4,107,143.1,107.3,144.1,107.3z M151.3,105.9v0.9h-1.7v3h-1.1v-6.9h1.1v3H151.3
		z"/>
	<path class="st3" d="M163.5,108.6v0.9h-10.6v-0.9h4.7v-1.4h-3.4v-3.9h7.9v0.9h-6.9v2.2h6.9v0.9h-3.5v1.4H163.5z M162.2,112.4
		c0,1.4-1.5,2.1-4,2.1c-2.5,0-4-0.8-4-2.1c0-1.4,1.5-2.1,4-2.1C160.7,110.3,162.2,111.1,162.2,112.4z M161.1,112.4
		c0-0.8-1.1-1.3-2.9-1.3c-1.8,0-2.9,0.5-2.9,1.3c0,0.8,1.1,1.3,2.9,1.3C160,113.7,161.1,113.3,161.1,112.4z"/>
</g>
<g id="사각형_373">
	<rect y="0" class="st4" width="335" height="37.7"/>
	<rect x="0.5" y="0.5" class="st1" width="334" height="36.7"/>
</g>
<g class="st2">
	<path class="st5" d="M133.6,19.1c0-3.4,1.9-5.3,4.6-5.3c2.7,0,4.6,2,4.6,5.3c0,3.4-1.9,5.4-4.6,5.4
		C135.5,24.5,133.6,22.4,133.6,19.1z M140.7,19.1c0-2.2-1-3.6-2.5-3.6c-1.5,0-2.5,1.3-2.5,3.6c0,2.2,1,3.6,2.5,3.6
		C139.8,22.7,140.7,21.3,140.7,19.1z"/>
	<path class="st5" d="M144.8,19.2c0-3.4,2.2-5.4,4.8-5.4c1.3,0,2.4,0.6,3,1.3l-1.1,1.3c-0.5-0.5-1.1-0.9-1.9-0.9
		c-1.6,0-2.7,1.3-2.7,3.6c0,2.3,1.1,3.6,2.7,3.6c0.9,0,1.6-0.4,2.1-1l1.1,1.3c-0.9,1-2,1.5-3.3,1.5C147,24.5,144.8,22.6,144.8,19.2z
		"/>
	<path class="st5" d="M155,13.9h2.1v10.4H155V13.9z"/>
</g>
<g class="st2">
	<path class="st5" d="M159.5,21.4c2.3,0,5.4,0,8.2-0.4l0.1,1.3c-2.8,0.6-5.8,0.6-8,0.6L159.5,21.4z M167.1,16.6
		c0,1.9-1.5,3.2-3.6,3.2s-3.5-1.3-3.5-3.2c0-1.8,1.5-3.2,3.5-3.2S167.1,14.8,167.1,16.6z M161.8,16.6c0,1,0.8,1.6,1.8,1.6
		s1.8-0.6,1.8-1.6s-0.8-1.6-1.8-1.6S161.8,15.6,161.8,16.6z M170.2,12.6v12.9h-1.8V12.6H170.2z"/>
	<path class="st5" d="M184.3,19.6c-2.7,0.5-5.7,0.5-7.9,0.5l-0.2-1.3c0.9,0,2,0,3.1,0v-0.6c-1.4-0.2-2.2-0.8-2.2-1.6
		c0-1.1,1.2-1.7,3.2-1.7s3.1,0.6,3.1,1.7c0,0.9-0.8,1.5-2.2,1.6v0.5c1-0.1,2.1-0.1,3.1-0.3L184.3,19.6z M183.9,14.6h-7.3v-1.2h2.7
		v-0.9h1.8v0.9h2.7V14.6z M179.8,24.2h7.3v1.2H178v-3h6.8v-0.6h-6.8v-1.2h8.7v2.9h-6.8V24.2z M180.2,17.1c0.9,0,1.4-0.2,1.4-0.6
		c0-0.4-0.5-0.5-1.4-0.5s-1.4,0.2-1.4,0.5C178.8,16.9,179.3,17.1,180.2,17.1z M188.2,15.6v1.5h-1.6v3h-1.8v-7.6h1.8v3.1H188.2z"/>
	<path class="st5" d="M201.4,18.7v1.5h-11.7v-1.5h4.9v-1.1h-3.5v-4.5h8.9v1.5h-7v1.5h7.1v1.5h-3.6v1.1H201.4z M200,23.2
		c0,1.5-1.7,2.4-4.5,2.4s-4.5-0.9-4.5-2.4c0-1.5,1.7-2.4,4.5-2.4S200,21.6,200,23.2z M198.1,23.2c0-0.7-0.9-1-2.6-1
		c-1.7,0-2.6,0.3-2.6,1c0,0.7,0.9,1,2.6,1C197.3,24.1,198.1,23.8,198.1,23.2z"/>
</g>
</svg>
