<?xml version="1.0" encoding="utf-8"?>
<!-- Generator: Adobe Illustrator 25.1.0, SVG Export Plug-In . SVG Version: 6.00 Build 0)  -->
<svg version="1.1" id="레이어_1" xmlns="http://www.w3.org/2000/svg" xmlns:xlink="http://www.w3.org/1999/xlink" x="0px"
	 y="0px" viewBox="0 0 335 168.4" style="enable-background:new 0 0 335 168.4;" xml:space="preserve">
<style type="text/css">
	.st0{enable-background:new    ;}
	.st1{fill:#DF1C2F;}
	.st2{fill:#929397;}
	.st3{fill:#E2E2E2;}
	.st4{fill:#808080;}
	.st5{fill:#A3A3A3;}
	.st6{fill:#FFFFFF;}
	.st7{fill:none;stroke:#D5D5D5;}
</style>
<g id="그룹_5719" transform="translate(-20 -1533.031)">
	<g class="st0">
		<path class="st1" d="M27.4,1544.9c-1.4-0.5-2.4-1.4-2.9-2.5c-0.6,1.3-1.6,2.3-3.1,2.8l-1-1.4c2.2-0.7,3.1-2.4,3.1-4.2v-1.4h1.9
			v1.4c0,1.6,0.9,3.3,3,3.9L27.4,1544.9z M24.3,1548.5h6.9v1.5h-8.8v-4.1h1.8V1548.5z M32.5,1541.1v1.5h-1.7v4.2h-1.8v-9.4h1.8v3.7
			H32.5z"/>
		<path class="st1" d="M44.3,1537.3v6.9h-1.8v-2.6h-2c-0.4,1.4-1.7,2.4-3.3,2.4c-1.9,0-3.4-1.3-3.4-3.1s1.5-3.1,3.4-3.1
			c1.6,0,3,0.9,3.3,2.3h2.1v-2.8H44.3z M38.7,1540.9c0-1-0.7-1.5-1.6-1.5c-0.9,0-1.6,0.6-1.6,1.5c0,1,0.7,1.5,1.6,1.5
			C38,1542.5,38.7,1541.9,38.7,1540.9z M42.4,1544.8h1.8v5.3h-8.5v-5.3h1.8v1.2h4.9V1544.8z M42.4,1547.5h-4.9v1.1h4.9V1547.5z"/>
		<path class="st1" d="M57.5,1537.3v12.9h-1.8v-6.4h-1.1v5.9H53v-3.7l-1,1.4c-1.1-0.6-1.9-1.7-2.4-2.9c-0.4,1.5-1.2,2.7-2.4,3.4
			l-1.1-1.4c1.9-1.1,2.5-3.4,2.5-5.9v-0.3h-2.1v-1.5h5.8v1.5h-1.9v0.3c0,2.3,0.6,4.4,2.5,5.4v-8.3h1.7v4.7h1.1v-4.9H57.5z"/>
		<path class="st1" d="M63.2,1539.3h2.1v1.5h-6.2v-1.5h2.2v-1.6h1.8V1539.3z M65.2,1544.4c0,1.8-1.2,3.1-2.8,3.1
			c-1.7,0-2.8-1.3-2.8-3.1c0-1.8,1.2-3.1,2.8-3.1C64,1541.3,65.2,1542.6,65.2,1544.4z M63.5,1544.4c0-1-0.5-1.5-1.2-1.5
			c-0.7,0-1.2,0.6-1.2,1.5s0.5,1.5,1.2,1.5C63,1545.9,63.5,1545.4,63.5,1544.4z M70.3,1537.3v12.9h-1.8v-6.1h-1v5.6h-1.7v-12.1h1.7
			v5h1v-5.3H70.3z"/>
		<path class="st1" d="M80.9,1543.8v0.9h1.5v3.3h-7.1v0.7h7.4v1.4h-9.2v-3.4h7.1v-0.7h-7.1v-1.4H75v-0.9h-2.9v-1.5h11.7v1.5H80.9z
			 M73.3,1539.6c0-1.4,1.7-2.2,4.7-2.2c3,0,4.7,0.8,4.7,2.2c0,1.4-1.7,2.2-4.7,2.2C75,1541.8,73.3,1541.1,73.3,1539.6z M75.2,1539.6
			c0,0.6,0.9,0.9,2.7,0.9c1.9,0,2.8-0.3,2.8-0.9c0-0.6-0.9-0.8-2.8-0.8C76.1,1538.8,75.2,1539.1,75.2,1539.6z M79.1,1543.8h-2.2v0.9
			h2.2V1543.8z"/>
		<path class="st1" d="M95.3,1540.1h-7.1v-1.4h2.7v-1.4h1.8v1.4h2.5V1540.1z M91.9,1545.7c-1.8,0-3-1.1-3-2.5c0-1.5,1.3-2.5,3-2.5
			c1.8,0,3,1,3,2.5C94.9,1544.6,93.6,1545.7,91.9,1545.7z M99.2,1548.5v1.5h-8.8v-3.6h1.8v2.2H99.2z M91.9,1544.2
			c0.7,0,1.3-0.4,1.3-1.1c0-0.7-0.5-1.1-1.3-1.1c-0.8,0-1.3,0.4-1.3,1.1C90.6,1543.8,91.1,1544.2,91.9,1544.2z M97.1,1544.8h-1.7
			v-1.5h1.7v-1.3h-1.7v-1.5h1.7v-3.2H99v9.8h-1.8V1544.8z"/>
		<path class="st1" d="M109,1545.2c-2.7,0.5-5.6,0.5-7.9,0.5l-0.2-1.4c0.9,0,2,0,3.1,0v-0.7c-1.4-0.2-2.2-0.8-2.2-1.8
			c0-1.2,1.2-1.8,3.2-1.8c1.9,0,3.1,0.7,3.1,1.8c0,0.9-0.8,1.6-2.2,1.8v0.7c1.1-0.1,2.1-0.1,3.1-0.3L109,1545.2z M108.6,1539.6h-7.3
			v-1.3h2.7v-1h1.8v1h2.7V1539.6z M111.4,1548.2c0,1.3-1.6,2-4.4,2s-4.4-0.7-4.4-2s1.6-2,4.4-2S111.4,1546.9,111.4,1548.2z
			 M104.9,1542.4c0.9,0,1.4-0.2,1.4-0.6c0-0.4-0.5-0.7-1.4-0.7s-1.4,0.2-1.4,0.7C103.5,1542.2,104,1542.4,104.9,1542.4z
			 M109.5,1548.2c0-0.5-0.8-0.7-2.5-0.7s-2.5,0.2-2.5,0.7s0.8,0.7,2.5,0.7C108.7,1548.9,109.5,1548.7,109.5,1548.2z M112.9,1541v1.5
			h-1.6v3.5h-1.8v-8.7h1.8v3.7H112.9z"/>
	</g>
	<g class="st0">
		<path class="st2" d="M26.4,1566c-1.4,0.3-2.5,0.3-4.6,0.3H21v-4.5h4.4v0.7h-3.5v3.1c1.9,0,3.1-0.1,4.4-0.3L26.4,1566z M23,1569.9
			h5.7v0.7h-6.6v-3.2H23V1569.9z M29.7,1563.9v0.7h-1.5v3.5h-0.9v-7.1h0.9v2.9H29.7z"/>
		<path class="st2" d="M37.3,1566.7c-0.9,0.2-1.9,0.3-2.8,0.3v3.6h-0.9v-3.5c-1,0-1.9,0.1-2.7,0.1l-0.1-0.8c1.8,0,4.3,0,6.5-0.4
			L37.3,1566.7z M31.4,1563.5c0-1.2,1-2,2.5-2c1.5,0,2.5,0.8,2.5,2c0,1.2-1,2-2.5,2C32.5,1565.5,31.4,1564.7,31.4,1563.5z
			 M32.3,1563.5c0,0.8,0.7,1.3,1.6,1.3c1,0,1.6-0.5,1.6-1.3c0-0.8-0.7-1.3-1.6-1.3C33,1562.2,32.3,1562.7,32.3,1563.5z M38.8,1561
			v9.9h-0.9v-9.9H38.8z"/>
		<path class="st2" d="M43.5,1565c0-0.5,0.3-0.8,0.7-0.8s0.7,0.3,0.7,0.8c0,0.4-0.3,0.8-0.7,0.8S43.5,1565.4,43.5,1565z
			 M43.5,1569.4c0-0.5,0.3-0.8,0.7-0.8s0.7,0.3,0.7,0.8c0,0.5-0.3,0.8-0.7,0.8S43.5,1569.9,43.5,1569.4z"/>
		<path class="st2" d="M48.7,1564.3c0-1.6,0.7-2.5,1.8-2.5c1.1,0,1.8,0.9,1.8,2.5c0,1.6-0.7,2.6-1.8,2.6
			C49.4,1566.9,48.7,1566,48.7,1564.3z M51.6,1564.3c0-1.3-0.4-1.9-1.1-1.9c-0.6,0-1.1,0.6-1.1,1.9s0.4,1.9,1.1,1.9
			C51.1,1566.3,51.6,1565.6,51.6,1564.3z M55.2,1561.8h0.7l-4.5,8.4h-0.7L55.2,1561.8z M54.3,1567.6c0-1.6,0.7-2.5,1.8-2.5
			s1.8,0.9,1.8,2.5c0,1.6-0.7,2.6-1.8,2.6S54.3,1569.2,54.3,1567.6z M57.2,1567.6c0-1.3-0.4-1.9-1.1-1.9c-0.6,0-1.1,0.6-1.1,1.9
			s0.4,1.9,1.1,1.9C56.7,1569.6,57.2,1568.9,57.2,1567.6z"/>
	</g>
	<path id="패스_4981" class="st3" d="M148,1700.8h46v-86.1h-46V1700.8z"/>
	<g class="st0">
		<path class="st4" d="M160.5,1691.9c1.7-1.5,3.5-2.8,3.5-4.3c0-0.8-0.3-1.3-1.2-1.3c-0.8,0-1.2,0.6-1.3,1.4h-1.1
			c0-1.6,1.1-2.3,2.3-2.3c1.5,0,2.3,0.9,2.3,2.2c0,1.8-1.8,3.1-3,4.2h3.2v1h-4.9V1691.9z"/>
		<path class="st4" d="M168.9,1685.4c2,0,2.6,1.6,2.6,3.7c0,2.1-0.6,3.7-2.6,3.7s-2.6-1.6-2.6-3.7
			C166.3,1687,166.9,1685.4,168.9,1685.4z M168.9,1686.4c-1.3,0-1.5,1.3-1.5,2.6c0,1.4,0.1,2.7,1.5,2.7s1.5-1.2,1.5-2.7
			C170.4,1687.7,170.3,1686.4,168.9,1686.4z"/>
		<path class="st4" d="M173.5,1686.5h-0.9v-1h2.1v7.3h-1.1V1686.5z"/>
		<path class="st4" d="M176.4,1687.3c0-1.1,0.8-2,2.4-2c1.6,0,2.4,0.9,2.4,2c0,0.8-0.4,1.3-1,1.6c0.7,0.3,1.2,0.9,1.2,1.8
			c0,1.3-1.1,2.2-2.6,2.2c-1.5,0-2.6-0.9-2.6-2.2c0-0.9,0.5-1.5,1.2-1.8C176.9,1688.7,176.4,1688.2,176.4,1687.3z M177.3,1690.7
			c0,0.7,0.6,1.3,1.5,1.3c0.9,0,1.5-0.5,1.5-1.3c0-0.8-0.6-1.3-1.5-1.3C178,1689.5,177.3,1689.9,177.3,1690.7z M180.1,1687.5
			c0-0.8-0.5-1.2-1.3-1.2c-0.8,0-1.3,0.4-1.3,1.2c0,0.7,0.5,1.1,1.3,1.1C179.6,1688.6,180.1,1688.1,180.1,1687.5z"/>
	</g>
	<g class="st0">
		<path class="st5" d="M161.1,1594.8c3.3,0,4.2,2.6,4.2,5.9c0,3.4-0.9,6-4.2,6c-3.3,0-4.2-2.6-4.2-6
			C156.9,1597.4,157.8,1594.8,161.1,1594.8z M161.1,1596.5c-2.1,0-2.4,2-2.4,4.2c0,2.3,0.2,4.3,2.4,4.3s2.4-2,2.4-4.3
			C163.5,1598.5,163.2,1596.5,161.1,1596.5z"/>
		<path class="st5" d="M168.2,1606.8c-0.7,0-1.2-0.5-1.2-1.2s0.5-1.2,1.2-1.2c0.6,0,1.2,0.5,1.2,1.2S168.8,1606.8,168.2,1606.8z"/>
		<path class="st5" d="M172.3,1596.7h-1.5v-1.7h3.3v11.7h-1.8V1596.7z"/>
		<path class="st5" d="M182.2,1604.3h-5.8v-1.4l5.4-7.7h2.2v7.5h1.5v1.6H184v2.4h-1.8V1604.3z M182.3,1602.7v-5.7l-3.8,5.7H182.3z"
			/>
	</g>
	<path id="패스_4983" class="st3" d="M218,1701.2h46v-69.5h-46V1701.2z"/>
	<g class="st0">
		<path class="st4" d="M230.5,1691.9c1.7-1.5,3.5-2.8,3.5-4.3c0-0.8-0.3-1.3-1.2-1.3c-0.8,0-1.2,0.6-1.3,1.4h-1.1
			c0-1.6,1.1-2.3,2.3-2.3c1.5,0,2.3,0.9,2.3,2.2c0,1.8-1.8,3.1-3,4.2h3.2v1h-4.9V1691.9z"/>
		<path class="st4" d="M239,1685.4c2,0,2.6,1.6,2.6,3.7c0,2.1-0.6,3.7-2.6,3.7s-2.6-1.6-2.6-3.7C236.4,1687,236.9,1685.4,239,1685.4
			z M239,1686.4c-1.3,0-1.5,1.3-1.5,2.6c0,1.4,0.1,2.7,1.5,2.7s1.5-1.2,1.5-2.7C240.4,1687.7,240.3,1686.4,239,1686.4z"/>
		<path class="st4" d="M243.5,1686.5h-0.9v-1h2.1v7.3h-1.1V1686.5z"/>
		<path class="st4" d="M247.7,1690.8c0.1,0.6,0.6,1,1.3,1c0.9,0,1.4-0.6,1.4-2.5c-0.3,0.5-1,0.7-1.6,0.7c-1.3,0-2.3-0.8-2.3-2.3
			c0-1.4,0.9-2.4,2.4-2.4c1.9,0,2.5,1.3,2.5,3.7c0,2.5-0.5,3.8-2.4,3.8c-1.5,0-2.2-0.9-2.3-2H247.7z M250.2,1687.7
			c0-0.9-0.5-1.5-1.4-1.5c-0.8,0-1.4,0.6-1.4,1.4c0,0.8,0.4,1.4,1.4,1.4C249.8,1689.1,250.2,1688.6,250.2,1687.7z"/>
	</g>
	<g class="st0">
		<path class="st5" d="M228.9,1611.8c3.3,0,4.2,2.6,4.2,5.9c0,3.4-0.9,6-4.2,6c-3.3,0-4.2-2.6-4.2-6
			C224.7,1614.4,225.6,1611.8,228.9,1611.8z M228.9,1613.5c-2.1,0-2.4,2-2.4,4.2c0,2.3,0.2,4.3,2.4,4.3s2.4-2,2.4-4.3
			C231.2,1615.5,231,1613.5,228.9,1613.5z"/>
		<path class="st5" d="M235.9,1623.8c-0.7,0-1.2-0.5-1.2-1.2s0.5-1.2,1.2-1.2c0.6,0,1.2,0.5,1.2,1.2S236.6,1623.8,235.9,1623.8z"/>
		<path class="st5" d="M243,1611.8c3.3,0,4.2,2.6,4.2,5.9c0,3.4-0.9,6-4.2,6c-3.3,0-4.2-2.6-4.2-6
			C238.8,1614.4,239.7,1611.8,243,1611.8z M243,1613.5c-2.1,0-2.4,2-2.4,4.2c0,2.3,0.2,4.3,2.4,4.3s2.4-2,2.4-4.3
			C245.3,1615.5,245.1,1613.5,243,1613.5z"/>
		<path class="st5" d="M251.3,1620.5c0.2,1,0.9,1.6,2.1,1.6c1.5,0,2.2-1,2.2-4c-0.5,0.7-1.5,1.1-2.6,1.1c-2,0-3.7-1.3-3.7-3.7
			c0-2.3,1.4-3.9,3.9-3.9c3,0,4,2.1,4,5.9c0,3.9-0.8,6-3.9,6c-2.4,0-3.5-1.5-3.7-3.2H251.3z M255.4,1615.6c0-1.5-0.8-2.3-2.2-2.3
			c-1.4,0-2.2,0.9-2.2,2.3c0,1.2,0.7,2.2,2.3,2.2C254.7,1617.8,255.4,1616.9,255.4,1615.6z"/>
	</g>
	<path id="패스_4985" class="st1" d="M284,1700.8h46v-52.1h-46V1700.8z"/>
	<g class="st0">
		<path class="st6" d="M295.2,1691.7c1.6-1.4,3.4-2.7,3.4-4c0-0.6-0.3-1.1-1-1.1c-0.7,0-1,0.5-1,1.2h-1.4c0-1.7,1.1-2.4,2.4-2.4
			c1.6,0,2.4,0.9,2.4,2.2c0,1.7-1.6,3-2.8,4h2.9v1.2h-4.9V1691.7z"/>
		<path class="st6" d="M303.8,1685.4c2.1,0,2.7,1.6,2.7,3.7c0,2.1-0.6,3.7-2.7,3.7c-2.1,0-2.7-1.6-2.7-3.7
			C301.1,1686.9,301.7,1685.4,303.8,1685.4z M303.8,1686.7c-1.2,0-1.3,1.1-1.3,2.4c0,1.3,0.1,2.4,1.3,2.4c1.2,0,1.3-1.1,1.3-2.4
			C305.1,1687.8,304.9,1686.7,303.8,1686.7z"/>
		<path class="st6" d="M307.4,1691.7c1.6-1.4,3.4-2.7,3.4-4c0-0.6-0.3-1.1-1-1.1c-0.7,0-1,0.5-1,1.2h-1.4c0-1.7,1.1-2.4,2.4-2.4
			c1.6,0,2.4,0.9,2.4,2.2c0,1.7-1.6,3-2.8,4h2.9v1.2h-4.9V1691.7z"/>
		<path class="st6" d="M316,1685.4c2.1,0,2.7,1.6,2.7,3.7c0,2.1-0.6,3.7-2.7,3.7c-2.1,0-2.7-1.6-2.7-3.7
			C313.3,1686.9,313.9,1685.4,316,1685.4z M316,1686.7c-1.2,0-1.3,1.1-1.3,2.4c0,1.3,0.1,2.4,1.3,2.4c1.2,0,1.3-1.1,1.3-2.4
			C317.3,1687.8,317.1,1686.7,316,1686.7z"/>
	</g>
	<g class="st0">
		<path class="st1" d="M294.6,1628.8c3.3,0,4.3,2.5,4.3,5.9c0,3.4-1,6-4.3,6c-3.3,0-4.3-2.5-4.3-6
			C290.3,1631.3,291.3,1628.8,294.6,1628.8z M294.6,1630.9c-1.9,0-2.1,1.8-2.1,3.8c0,2.1,0.2,3.9,2.1,3.9c1.9,0,2.1-1.8,2.1-3.9
			C296.7,1632.7,296.5,1630.9,294.6,1630.9z"/>
		<path class="st1" d="M301.9,1640.8c-0.8,0-1.4-0.6-1.4-1.3s0.6-1.3,1.4-1.3c0.8,0,1.4,0.6,1.4,1.3S302.7,1640.8,301.9,1640.8z"/>
		<path class="st1" d="M309.1,1628.8c3.3,0,4.3,2.5,4.3,5.9c0,3.4-1,6-4.3,6c-3.3,0-4.3-2.5-4.3-6
			C304.8,1631.3,305.8,1628.8,309.1,1628.8z M309.1,1630.9c-1.9,0-2.1,1.8-2.1,3.8c0,2.1,0.2,3.9,2.1,3.9c1.9,0,2.1-1.8,2.1-3.9
			C311.2,1632.7,311,1630.9,309.1,1630.9z"/>
		<path class="st1" d="M321.2,1631.9c-0.2-0.9-0.7-1.3-1.7-1.3c-1.5,0-2.1,1.1-2.2,3.8c0.5-0.9,1.6-1.4,2.7-1.4
			c2.1,0,3.5,1.4,3.5,3.8c0,2.3-1.4,3.9-3.9,3.9c-3.5,0-4.3-2.4-4.3-6.1c0-3.8,1.2-5.9,4.2-5.9c2.4,0,3.5,1.5,3.7,3.2H321.2z
			 M317.6,1636.8c0,1.2,0.7,2,2,2c1.2,0,1.9-0.8,1.9-2c0-1.2-0.6-2-1.9-2C318.5,1634.9,317.6,1635.5,317.6,1636.8z"/>
	</g>
	<path id="패스_4988" class="st7" d="M20,1701h335"/>
</g>
</svg>
