<?xml version="1.0" encoding="utf-8"?>
<!-- Generator: Adobe Illustrator 25.1.0, SVG Export Plug-In . SVG Version: 6.00 Build 0)  -->
<svg version="1.1" id="레이어_1" xmlns="http://www.w3.org/2000/svg" xmlns:xlink="http://www.w3.org/1999/xlink" x="0px"
	 y="0px" viewBox="0 0 335 168.4" style="enable-background:new 0 0 335 168.4;" xml:space="preserve">
<style type="text/css">
	.st0{enable-background:new    ;}
	.st1{fill:#DF1C2F;}
	.st2{fill:#929397;}
	.st3{fill:#E2E2E2;}
	.st4{fill:#808080;}
	.st5{fill:#A3A3A3;}
	.st6{fill:#FFFFFF;}
	.st7{fill:none;stroke:#D5D5D5;}
</style>
<g id="그룹_5718" transform="translate(-20 -1710.745)">
	<g class="st0">
		<path class="st1" d="M32.3,1725v1.5H20.6v-1.5h4.9v-2.7H22v-6.4h9v1.5h-7.1v3.4H31v1.5h-3.7v2.7H32.3z"/>
		<path class="st1" d="M45.2,1723.6h-4.9v4.4h-1.8v-4.4h-4.9v-1.5h11.7V1723.6z M44,1721.1c-2.3-0.3-3.9-1.4-4.7-2.8
			c-0.8,1.4-2.5,2.4-4.7,2.8l-0.7-1.5c2.9-0.4,4.4-2.1,4.4-3.6v-0.6h2v0.6c0,1.5,1.5,3.2,4.4,3.6L44,1721.1z"/>
		<path class="st1" d="M55.1,1721.5v0.9h1.5v3.3h-7.1v0.7h7.4v1.4h-9.2v-3.4h7.1v-0.7h-7.1v-1.4h1.6v-0.9h-2.9v-1.5H58v1.5H55.1z
			 M47.5,1717.4c0-1.4,1.7-2.2,4.7-2.2c3,0,4.7,0.8,4.7,2.2c0,1.4-1.7,2.2-4.7,2.2C49.2,1719.6,47.5,1718.8,47.5,1717.4z
			 M49.4,1717.4c0,0.6,0.9,0.9,2.7,0.9c1.9,0,2.8-0.3,2.8-0.9c0-0.6-0.9-0.8-2.8-0.8C50.3,1716.5,49.4,1716.8,49.4,1717.4z
			 M53.3,1721.5h-2.2v0.9h2.2V1721.5z"/>
	</g>
	<g class="st0">
		<path class="st2" d="M26.4,1743.7c-1.4,0.3-2.5,0.3-4.6,0.3H21v-4.5h4.4v0.7h-3.5v3.1c1.9,0,3.1-0.1,4.4-0.3L26.4,1743.7z
			 M23,1747.6h5.7v0.7h-6.6v-3.2H23V1747.6z M29.7,1741.6v0.7h-1.5v3.5h-0.9v-7.1h0.9v2.9H29.7z"/>
		<path class="st2" d="M37.3,1744.4c-0.9,0.2-1.9,0.3-2.8,0.3v3.6h-0.9v-3.5c-1,0-1.9,0.1-2.7,0.1l-0.1-0.8c1.8,0,4.3,0,6.5-0.4
			L37.3,1744.4z M31.4,1741.2c0-1.2,1-2,2.5-2c1.5,0,2.5,0.8,2.5,2c0,1.2-1,2-2.5,2C32.5,1743.2,31.4,1742.4,31.4,1741.2z
			 M32.3,1741.2c0,0.8,0.7,1.3,1.6,1.3c1,0,1.6-0.5,1.6-1.3c0-0.8-0.7-1.3-1.6-1.3C33,1739.9,32.3,1740.4,32.3,1741.2z M38.8,1738.7
			v9.9h-0.9v-9.9H38.8z"/>
		<path class="st2" d="M43.5,1742.7c0-0.5,0.3-0.8,0.7-0.8s0.7,0.3,0.7,0.8c0,0.4-0.3,0.8-0.7,0.8S43.5,1743.1,43.5,1742.7z
			 M43.5,1747.1c0-0.5,0.3-0.8,0.7-0.8s0.7,0.3,0.7,0.8c0,0.5-0.3,0.8-0.7,0.8S43.5,1747.6,43.5,1747.1z"/>
		<path class="st2" d="M48.7,1742.1c0-1.6,0.7-2.5,1.8-2.5c1.1,0,1.8,0.9,1.8,2.5c0,1.6-0.7,2.6-1.8,2.6
			C49.4,1744.6,48.7,1743.7,48.7,1742.1z M51.6,1742.1c0-1.3-0.4-1.9-1.1-1.9c-0.6,0-1.1,0.6-1.1,1.9s0.4,1.9,1.1,1.9
			C51.1,1744,51.6,1743.3,51.6,1742.1z M55.2,1739.5h0.7l-4.5,8.4h-0.7L55.2,1739.5z M54.3,1745.3c0-1.6,0.7-2.5,1.8-2.5
			s1.8,0.9,1.8,2.5c0,1.6-0.7,2.6-1.8,2.6S54.3,1747,54.3,1745.3z M57.2,1745.3c0-1.3-0.4-1.9-1.1-1.9c-0.6,0-1.1,0.6-1.1,1.9
			s0.4,1.9,1.1,1.9C56.7,1747.3,57.2,1746.6,57.2,1745.3z"/>
	</g>
	<path id="패스_4992" class="st3" d="M148,1878.5h46v-88.6h-46V1878.5z"/>
	<g class="st0">
		<path class="st4" d="M160.5,1869.6c1.7-1.5,3.5-2.8,3.5-4.3c0-0.8-0.3-1.3-1.2-1.3c-0.8,0-1.2,0.6-1.3,1.4h-1.1
			c0-1.6,1.1-2.3,2.3-2.3c1.5,0,2.3,0.9,2.3,2.2c0,1.8-1.8,3.1-3,4.2h3.2v1h-4.9V1869.6z"/>
		<path class="st4" d="M168.9,1863.1c2,0,2.6,1.6,2.6,3.7c0,2.1-0.6,3.7-2.6,3.7s-2.6-1.6-2.6-3.7
			C166.3,1864.7,166.9,1863.1,168.9,1863.1z M168.9,1864.1c-1.3,0-1.5,1.3-1.5,2.6c0,1.4,0.1,2.7,1.5,2.7s1.5-1.2,1.5-2.7
			C170.4,1865.4,170.3,1864.1,168.9,1864.1z"/>
		<path class="st4" d="M173.5,1864.3h-0.9v-1h2.1v7.3h-1.1V1864.3z"/>
		<path class="st4" d="M176.4,1865.1c0-1.1,0.8-2,2.4-2c1.6,0,2.4,0.9,2.4,2c0,0.8-0.4,1.3-1,1.6c0.7,0.3,1.2,0.9,1.2,1.8
			c0,1.3-1.1,2.2-2.6,2.2c-1.5,0-2.6-0.9-2.6-2.2c0-0.9,0.5-1.5,1.2-1.8C176.9,1866.4,176.4,1865.9,176.4,1865.1z M177.3,1868.5
			c0,0.7,0.6,1.3,1.5,1.3c0.9,0,1.5-0.5,1.5-1.3c0-0.8-0.6-1.3-1.5-1.3C178,1867.2,177.3,1867.6,177.3,1868.5z M180.1,1865.2
			c0-0.8-0.5-1.2-1.3-1.2c-0.8,0-1.3,0.4-1.3,1.2c0,0.7,0.5,1.1,1.3,1.1C179.6,1866.3,180.1,1865.9,180.1,1865.2z"/>
	</g>
	<g class="st0">
		<path class="st5" d="M158.8,1770.1c3.3,0,4.2,2.6,4.2,5.9c0,3.4-0.9,6-4.2,6s-4.2-2.6-4.2-6
			C154.7,1772.6,155.6,1770.1,158.8,1770.1z M158.8,1771.7c-2.1,0-2.4,2-2.4,4.2c0,2.3,0.2,4.3,2.4,4.3s2.4-2,2.4-4.3
			C161.2,1773.8,161,1771.7,158.8,1771.7z"/>
		<path class="st5" d="M165.9,1782c-0.7,0-1.2-0.5-1.2-1.2s0.5-1.2,1.2-1.2c0.6,0,1.2,0.5,1.2,1.2S166.6,1782,165.9,1782z"/>
		<path class="st5" d="M176.3,1770.2v1.6H171v3.2c0.4-0.6,1.4-1.1,2.4-1.1c2.9,0,3.7,2.1,3.7,3.9c0,2.3-1.3,4.1-4,4.1
			c-2.4,0-3.8-1.3-4.1-3.2h1.8c0.2,1,1.1,1.6,2.3,1.6c1.6,0,2.3-1.1,2.3-2.5c0-1.5-0.8-2.4-2.3-2.4c-1.1,0-1.8,0.6-2.1,1.5h-1.7
			v-6.7H176.3z"/>
		<path class="st5" d="M186.5,1770.2v1.6h-5.4v3.2c0.4-0.6,1.4-1.1,2.4-1.1c2.9,0,3.7,2.1,3.7,3.9c0,2.3-1.3,4.1-4,4.1
			c-2.4,0-3.8-1.3-4.1-3.2h1.8c0.2,1,1.1,1.6,2.3,1.6c1.6,0,2.3-1.1,2.3-2.5c0-1.5-0.8-2.4-2.3-2.4c-1.1,0-1.8,0.6-2.1,1.5h-1.7
			v-6.7H186.5z"/>
	</g>
	<path id="패스_4991" class="st3" d="M218,1879h46v-72h-46V1879z"/>
	<g class="st0">
		<path class="st4" d="M230.5,1869.6c1.7-1.5,3.5-2.8,3.5-4.3c0-0.8-0.3-1.3-1.2-1.3c-0.8,0-1.2,0.6-1.3,1.4h-1.1
			c0-1.6,1.1-2.3,2.3-2.3c1.5,0,2.3,0.9,2.3,2.2c0,1.8-1.8,3.1-3,4.2h3.2v1h-4.9V1869.6z"/>
		<path class="st4" d="M239,1863.1c2,0,2.6,1.6,2.6,3.7c0,2.1-0.6,3.7-2.6,3.7s-2.6-1.6-2.6-3.7
			C236.4,1864.7,236.9,1863.1,239,1863.1z M239,1864.1c-1.3,0-1.5,1.3-1.5,2.6c0,1.4,0.1,2.7,1.5,2.7s1.5-1.2,1.5-2.7
			C240.4,1865.4,240.3,1864.1,239,1864.1z"/>
		<path class="st4" d="M243.5,1864.3h-0.9v-1h2.1v7.3h-1.1V1864.3z"/>
		<path class="st4" d="M247.7,1868.5c0.1,0.6,0.6,1,1.3,1c0.9,0,1.4-0.6,1.4-2.5c-0.3,0.5-1,0.7-1.6,0.7c-1.3,0-2.3-0.8-2.3-2.3
			c0-1.4,0.9-2.4,2.4-2.4c1.9,0,2.5,1.3,2.5,3.7c0,2.5-0.5,3.8-2.4,3.8c-1.5,0-2.2-0.9-2.3-2H247.7z M250.2,1865.5
			c0-0.9-0.5-1.5-1.4-1.5c-0.8,0-1.4,0.6-1.4,1.4c0,0.8,0.4,1.4,1.4,1.4C249.8,1866.8,250.2,1866.3,250.2,1865.5z"/>
	</g>
	<g class="st0">
		<path class="st5" d="M229.2,1787.1c3.3,0,4.2,2.6,4.2,5.9c0,3.4-0.9,6-4.2,6c-3.3,0-4.2-2.6-4.2-6
			C225.1,1789.6,226,1787.1,229.2,1787.1z M229.2,1788.7c-2.1,0-2.4,2-2.4,4.2c0,2.3,0.2,4.3,2.4,4.3s2.4-2,2.4-4.3
			C231.6,1790.8,231.4,1788.7,229.2,1788.7z"/>
		<path class="st5" d="M236.3,1799c-0.7,0-1.2-0.5-1.2-1.2s0.5-1.2,1.2-1.2c0.6,0,1.2,0.5,1.2,1.2S236.9,1799,236.3,1799z"/>
		<path class="st5" d="M243,1787c2.3,0,3.6,1.3,3.6,3c0,1.4-0.9,2.3-1.8,2.6v0.1c1.2,0.4,2,1.4,2,3c0,1.9-1.3,3.3-3.7,3.3
			c-2.2,0-3.9-1.2-4-3.4h1.8c0.1,1.1,0.9,1.9,2.3,1.9c1.4,0,2-0.8,2-1.9c0-1.5-1-2.1-2.9-2.1h-0.4v-1.5h0.4c1.6,0,2.7-0.5,2.7-1.7
			c0-1-0.7-1.7-1.9-1.7c-1.3,0-1.9,0.8-2,1.6h-1.8C239.3,1788.1,240.8,1787,243,1787z"/>
		<path class="st5" d="M251,1795.8c0.2,1,0.9,1.6,2.1,1.6c1.5,0,2.2-1,2.2-4c-0.5,0.7-1.5,1.1-2.6,1.1c-2,0-3.7-1.3-3.7-3.7
			c0-2.3,1.4-3.9,3.9-3.9c3,0,4,2.1,4,5.9c0,3.9-0.8,6-3.9,6c-2.4,0-3.5-1.5-3.7-3.2H251z M255.1,1790.8c0-1.5-0.8-2.3-2.2-2.3
			c-1.4,0-2.2,0.9-2.2,2.3c0,1.2,0.7,2.2,2.3,2.2C254.3,1793,255.1,1792.2,255.1,1790.8z"/>
	</g>
	<path id="패스_4989" class="st1" d="M284,1878.6h46v-56.8h-46V1878.6z"/>
	<g class="st0">
		<path class="st6" d="M295.2,1869.4c1.6-1.4,3.4-2.7,3.4-4c0-0.6-0.3-1.1-1-1.1c-0.7,0-1,0.5-1,1.2h-1.4c0-1.7,1.1-2.4,2.4-2.4
			c1.6,0,2.4,0.9,2.4,2.2c0,1.7-1.6,3-2.8,4h2.9v1.2h-4.9V1869.4z"/>
		<path class="st6" d="M303.8,1863.1c2.1,0,2.7,1.6,2.7,3.7c0,2.1-0.6,3.7-2.7,3.7c-2.1,0-2.7-1.6-2.7-3.7
			C301.1,1864.7,301.7,1863.1,303.8,1863.1z M303.8,1864.4c-1.2,0-1.3,1.1-1.3,2.4c0,1.3,0.1,2.4,1.3,2.4c1.2,0,1.3-1.1,1.3-2.4
			C305.1,1865.5,304.9,1864.4,303.8,1864.4z"/>
		<path class="st6" d="M307.4,1869.4c1.6-1.4,3.4-2.7,3.4-4c0-0.6-0.3-1.1-1-1.1c-0.7,0-1,0.5-1,1.2h-1.4c0-1.7,1.1-2.4,2.4-2.4
			c1.6,0,2.4,0.9,2.4,2.2c0,1.7-1.6,3-2.8,4h2.9v1.2h-4.9V1869.4z"/>
		<path class="st6" d="M316,1863.1c2.1,0,2.7,1.6,2.7,3.7c0,2.1-0.6,3.7-2.7,3.7c-2.1,0-2.7-1.6-2.7-3.7
			C313.3,1864.7,313.9,1863.1,316,1863.1z M316,1864.4c-1.2,0-1.3,1.1-1.3,2.4c0,1.3,0.1,2.4,1.3,2.4c1.2,0,1.3-1.1,1.3-2.4
			C317.3,1865.5,317.1,1864.4,316,1864.4z"/>
	</g>
	<g class="st0">
		<path class="st1" d="M294.8,1801.8c3.3,0,4.5,2.5,4.5,5.9c0,3.5-1.2,6-4.5,6c-3.3,0-4.5-2.5-4.5-6
			C290.3,1804.3,291.4,1801.8,294.8,1801.8z M294.8,1804.4c-1.6,0-1.8,1.6-1.8,3.4c0,1.9,0.2,3.4,1.8,3.4c1.6,0,1.8-1.5,1.8-3.4
			C296.6,1806,296.4,1804.4,294.8,1804.4z"/>
		<path class="st1" d="M302.2,1813.9c-1,0-1.6-0.7-1.6-1.5c0-0.8,0.7-1.5,1.6-1.5c1,0,1.6,0.7,1.6,1.5
			C303.9,1813.2,303.2,1813.9,302.2,1813.9z"/>
		<path class="st1" d="M305.1,1811.6c2.5-2,5.1-4.1,5.1-6c0-0.8-0.4-1.4-1.2-1.4c-0.8,0-1.3,0.6-1.3,1.7h-2.6c0.1-2.8,1.9-4,4-4
			c2.7,0,3.8,1.6,3.8,3.5c0,2.6-2.3,4.6-4.1,6h4.3v2.2h-8V1811.6z"/>
		<path class="st1" d="M319.8,1811.7h-5.4v-2.2l5.1-7.2h3.1v7.1h1.3v2.4h-1.3v2.1h-2.7V1811.7z M320,1809.3v-4.1l-2.7,4.1H320z"/>
	</g>
	<path id="패스_4990" class="st7" d="M20,1878.7h335"/>
</g>
</svg>
