<?xml version="1.0" encoding="utf-8"?>
<!-- Generator: Adobe Illustrator 25.1.0, SVG Export Plug-In . SVG Version: 6.00 Build 0)  -->
<svg version="1.1" id="레이어_1" xmlns="http://www.w3.org/2000/svg" xmlns:xlink="http://www.w3.org/1999/xlink" x="0px"
	 y="0px" viewBox="0 0 457 197" style="enable-background:new 0 0 457 197;" xml:space="preserve">
<style type="text/css">
	.st0{fill:none;}
	.st1{fill:none;stroke:#D5D5D5;}
	.st2{enable-background:new    ;}
	.st3{fill:#FFF8F8;}
	.st4{fill:#DF1C2F;}
</style>
<g id="그룹_5886" transform="translate(-740 -2307)">
	<g id="사각형_330" transform="translate(740 2307)">
		<rect y="0" class="st0" width="457" height="197"/>
		<rect x="0.5" y="0.5" class="st1" width="456" height="196"/>
	</g>
	<g class="st2">
		<path d="M770.7,2396.3c0-1.2,0.9-2,1.8-2c0.9,0,1.8,0.8,1.8,2s-0.9,2-1.8,2C771.6,2398.3,770.7,2397.5,770.7,2396.3z"/>
		<path d="M779.4,2399.5l0.6-0.7c0.8,1,2,1.6,3.4,1.6c1.7,0,2.8-0.9,2.8-2.2c0-1.4-0.9-1.9-2.1-2.4l-1.7-0.8c-1-0.5-2.4-1.2-2.4-2.9
			c0-1.7,1.5-2.9,3.5-2.9c1.4,0,2.6,0.6,3.3,1.4l-0.5,0.6c-0.7-0.7-1.6-1.2-2.8-1.2c-1.5,0-2.5,0.8-2.5,2c0,1.3,1.1,1.8,2,2.2
			l1.7,0.8c1.3,0.6,2.4,1.3,2.4,3.1c0,1.8-1.5,3.2-3.8,3.2C781.7,2401.2,780.4,2400.5,779.4,2399.5z"/>
		<path d="M792.1,2389.3h1l4.1,11.7h-1l-1.3-3.9h-4.5l-1.3,3.9h-1L792.1,2389.3z M790.6,2396.3h4l-0.7-2.1c-0.5-1.4-0.9-2.6-1.3-4
			h-0.1c-0.4,1.4-0.8,2.6-1.3,4L790.6,2396.3z"/>
		<path d="M799,2389.3h6.4v0.8H800v4.5h4.6v0.8H800v5.5h-1V2389.3z"/>
		<path d="M807.5,2389.3h6.5v0.8h-5.5v4.3h4.6v0.8h-4.6v4.9h5.7v0.8h-6.6V2389.3z"/>
		<path d="M819.2,2390.1h-3.7v-0.8h8.3v0.8h-3.7v10.9h-1V2390.1z"/>
		<path d="M827.6,2396.3l-3.5-7h1l1.7,3.6c0.4,0.8,0.8,1.7,1.2,2.5h0.1c0.4-0.9,0.9-1.7,1.2-2.5l1.7-3.6h1l-3.5,7v4.7h-1V2396.3z"/>
		<path d="M836.4,2400.4c3.6-3.7,5.5-5.8,5.5-7.7c0-1.4-0.7-2.4-2.4-2.4c-1,0-1.9,0.6-2.6,1.4l-0.6-0.6c0.9-1,1.9-1.7,3.3-1.7
			c2,0,3.2,1.3,3.2,3.2c0,2.2-2,4.4-5.1,7.6c0.6,0,1.3-0.1,1.9-0.1h3.7v0.8h-7V2400.4z"/>
		<path d="M845.1,2395.3c0-3.8,1.2-5.8,3.4-5.8c2.2,0,3.4,2.1,3.4,5.8s-1.2,5.9-3.4,5.9C846.4,2401.2,845.1,2399.1,845.1,2395.3z
			 M851,2395.3c0-3.4-1-5-2.5-5c-1.5,0-2.5,1.6-2.5,5s1,5.1,2.5,5.1C850,2400.4,851,2398.7,851,2395.3z"/>
		<path d="M853.5,2400.4c3.6-3.7,5.5-5.8,5.5-7.7c0-1.4-0.7-2.4-2.4-2.4c-1,0-1.9,0.6-2.6,1.4l-0.6-0.6c0.9-1,1.9-1.7,3.3-1.7
			c2,0,3.2,1.3,3.2,3.2c0,2.2-2,4.4-5.1,7.6c0.6,0,1.3-0.1,1.9-0.1h3.7v0.8h-7V2400.4z"/>
		<path d="M862.2,2395.3c0-3.8,1.2-5.8,3.4-5.8c2.2,0,3.4,2.1,3.4,5.8s-1.2,5.9-3.4,5.9C863.5,2401.2,862.2,2399.1,862.2,2395.3z
			 M868.2,2395.3c0-3.4-1-5-2.5-5c-1.5,0-2.5,1.6-2.5,5s1,5.1,2.5,5.1C867.2,2400.4,868.2,2398.7,868.2,2395.3z"/>
	</g>
	<g class="st2">
		<path d="M887.3,2399.5v0.7h-12.9v-0.7H887.3z M878,2390.2h-2.4v-0.7H886v0.7h-2.4v5.3h2.4v0.7h-10.4v-0.7h2.4V2390.2z
			 M882.8,2390.2h-4v5.3h4V2390.2z"/>
		<path d="M902,2399.5v0.7h-12.9v-0.7h6v-3h-4.3v-4.2h8.7v-2.6h-8.7v-0.7h9.6v4h-8.7v2.7h9v0.7H896v3H902z"/>
		<path d="M910.4,2395.7c-1.4-0.6-2.4-1.8-2.9-3.1c-0.5,1.5-1.5,2.8-3,3.5l-0.5-0.7c1.8-0.8,3-2.8,3-4.5v-1.1h-2.8v-0.7h6.3v0.7
			h-2.7v1.1c0,1.6,1.2,3.4,2.9,4.1L910.4,2395.7z M906.4,2397.3h9.4v4.8h-0.8v-4.1h-8.5V2397.3z M912.2,2391.7v-3.4h0.8v8.2h-0.8
			v-4.1h-2.5v-0.7H912.2z M915.7,2387.9v8.7h-0.8v-8.7H915.7z"/>
		<path d="M931.4,2399.4v0.7h-12.9v-0.7H931.4z M929.9,2396.5h-9.6v-7.3h9.5v0.7h-8.6v2.5h8.3v0.7h-8.3v2.6h8.8V2396.5z"/>
		<path d="M949.7,2397.3h-6v4.8h-0.8v-4.8h-6v-0.7h12.9V2397.3z M937.7,2394.5c2.2-0.3,5.1-1.9,5.1-3.9v-0.2h-4.7v-0.7h4.7v-1.8h0.8
			v1.8h4.7v0.7h-4.7v0.2c0,2,2.9,3.6,5.1,3.9l-0.3,0.7c-2-0.4-4.4-1.5-5.2-3.2c-0.8,1.7-3.2,2.9-5.2,3.2L937.7,2394.5z"/>
		<path d="M959.7,2396.2c-1.6-0.6-3.1-1.8-3.7-3.5c-0.6,1.8-2,3.1-3.7,3.8l-0.4-0.7c2-0.7,3.7-2.6,3.7-4.8v-1.2H952v-0.7h7.8v0.7
			h-3.5v1.2c0,2.1,1.8,3.8,3.7,4.5L959.7,2396.2z M963.6,2401v0.7h-9.4v-4.4h0.8v3.6H963.6z M963.1,2398.4h-0.8v-10.5h0.8V2398.4z"
			/>
	</g>
	<g class="st2">
		<path d="M770.7,2426.3c0-1.2,0.9-2,1.8-2c0.9,0,1.8,0.8,1.8,2s-0.9,2-1.8,2C771.6,2428.3,770.7,2427.5,770.7,2426.3z"/>
		<path d="M787.3,2426c-1.6-0.6-3-1.9-3.6-3.5c-0.6,1.9-2,3.2-3.6,3.9l-0.4-0.7c2-0.8,3.6-2.7,3.6-5.1v-1.9h0.8v1.9
			c0,2,1.7,3.9,3.6,4.6L787.3,2426z M782.7,2431h8.5v0.7h-9.3v-4.3h0.8V2431z M792.7,2422.4v0.7h-2.2v5.3h-0.8v-10.6h0.8v4.5H792.7z
			"/>
		<path d="M805.8,2417.9v7.6H805v-3.4h-3.3c-0.2,1.7-1.6,2.9-3.6,2.9c-2.1,0-3.6-1.3-3.6-3.2c0-1.9,1.5-3.2,3.6-3.2
			c2,0,3.4,1.1,3.6,2.8h3.3v-3.5H805.8z M800.9,2421.8c0-1.5-1.2-2.5-2.8-2.5s-2.8,1.1-2.8,2.5c0,1.4,1.2,2.5,2.8,2.5
			S800.9,2423.3,800.9,2421.8z M805,2426.3h0.8v5.6h-8.9v-5.6h0.8v2.1h7.2V2426.3z M805,2429h-7.2v2.1h7.2V2429z"/>
		<path d="M813,2425.8c-2.1,0-3.6-1.4-3.6-3.4c0-2,1.5-3.4,3.6-3.4c2.1,0,3.6,1.4,3.6,3.4C816.6,2424.4,815,2425.8,813,2425.8z
			 M813,2425.1c1.6,0,2.8-1.2,2.8-2.7c0-1.5-1.2-2.7-2.8-2.7c-1.6,0-2.8,1.2-2.8,2.7C810.2,2423.9,811.4,2425.1,813,2425.1z
			 M812.1,2431h8.5v0.7h-9.4v-4.4h0.8V2431z M822.1,2422.4v0.7h-2.2v5.3h-0.8v-10.5h0.8v4.5H822.1z"/>
		<path d="M831.5,2426c-1.6-0.6-3-1.9-3.6-3.5c-0.6,1.8-2,3.2-3.7,3.9l-0.4-0.7c2-0.7,3.7-2.6,3.7-4.8v-1h-3.4v-0.7h7.6v0.7h-3.3v1
			c0,1.9,1.6,3.7,3.6,4.4L831.5,2426z M835.7,2431v0.7h-9.3v-4.4h0.8v3.6H835.7z M834.4,2422v-4.1h0.8v10.5h-0.8v-5.7h-3.2v-0.7
			H834.4z"/>
		<path d="M851.3,2429.5v0.7h-12.9v-0.7h6v-3.3H840v-7.2h0.8v2.8h8v-2.8h0.8v7.2h-4.4v3.3H851.3z M840.9,2425.4h8v-3h-8V2425.4z"/>
		<path d="M860.4,2419c0,3.6-2.7,6.3-6.7,7.7l-0.4-0.7c3.4-1.2,5.9-3.4,6.1-6.3h-5.4v-0.7H860.4z M865.1,2431v0.7h-9.2v-4.4h0.8v3.6
			H865.1z M863.9,2422.5v-4.5h0.8v10.6h-0.8v-5.3h-3.5v-0.7H863.9z"/>
		<path d="M879.4,2417.9v7.8h-0.8v-3.4h-3.7v2.8h-6.2v-6.4h0.8v2.4h4.5v-2.4h0.8v2.9h3.7v-3.6H879.4z M874,2421.7h-4.5v2.6h4.5
			V2421.7z M878.6,2426.4h0.8v5.5h-8.9v-5.5h0.8v2h7.2V2426.4z M878.6,2429.1h-7.2v2.1h7.2V2429.1z"/>
		<path d="M894,2426c-1.6-0.6-3-1.9-3.6-3.5c-0.6,1.8-2,3.2-3.7,3.9l-0.4-0.7c2-0.7,3.7-2.6,3.7-4.8v-1h-3.4v-0.7h7.6v0.7h-3.3v1
			c0,1.9,1.6,3.7,3.6,4.4L894,2426z M898.1,2431v0.7h-9.3v-4.4h0.8v3.6H898.1z M896.9,2422v-4.1h0.8v10.5h-0.8v-5.7h-3.2v-0.7H896.9
			z"/>
		<path d="M913.7,2427.2h-6.1v4.9h-0.8v-4.9h-6v-0.7h12.9V2427.2z M912,2424.5h-9.5v-6.1h0.8v2.2h7.8v-2.2h0.8V2424.5z
			 M911.2,2421.3h-7.8v2.5h7.8V2421.3z"/>
		<path d="M921.6,2419.8c0,3.4-1.3,6.9-5.4,9.2l-0.5-0.6c3.6-1.9,4.9-4.9,5.1-7.8h-4.7v-0.7H921.6z M927.5,2417.9v14.2h-0.8v-7.6
			h-2.4v6.8h-0.8v-13.1h0.8v5.5h2.4v-5.9H927.5z"/>
		<path d="M938.1,2425.8c-1.6-0.6-3-1.9-3.5-3.5c-0.6,1.8-2,3.2-3.7,3.9l-0.4-0.7c2-0.8,3.7-2.7,3.7-4.8v-0.9h-3.4v-0.7h7.6v0.7H935
			v0.9c0,1.9,1.6,3.7,3.6,4.4L938.1,2425.8z M941.9,2429.5c0,1.7-1.8,2.6-4.7,2.6c-2.9,0-4.7-0.9-4.7-2.6c0-1.7,1.8-2.6,4.7-2.6
			C940.1,2426.9,941.9,2427.8,941.9,2429.5z M941.1,2429.5c0-1.2-1.5-1.9-3.8-1.9s-3.8,0.7-3.8,1.9s1.5,1.9,3.8,1.9
			S941.1,2430.7,941.1,2429.5z M941,2421.7v-3.8h0.8v8.5H941v-3.9h-3.2v-0.7H941z"/>
		<path d="M955.7,2425.9h-6.4v-6.9h0.8v2.6h4.8v-2.6h0.8V2425.9z M954.8,2422.2h-4.8v2.9h4.8V2422.2z M951.7,2431h8.5v0.7h-9.4v-4.4
			h0.8V2431z M961.7,2422.4v0.7h-2.2v5.2h-0.8v-10.4h0.8v4.5H961.7z"/>
		<path d="M970,2424.1c-0.6,0.8-1.7,1.3-2.9,1.3c-2.1,0-3.6-1.4-3.6-3.3c0-1.9,1.5-3.3,3.6-3.3c1.2,0,2.3,0.5,2.9,1.3h4v-2.2h0.8
			v8.5H974v-2.2H970z M967.1,2424.7c1.6,0,2.8-1.1,2.8-2.6c0-1.5-1.2-2.6-2.8-2.6s-2.8,1.1-2.8,2.6
			C964.3,2423.6,965.5,2424.7,967.1,2424.7z M974.9,2429.4c0,1.7-1.8,2.7-4.7,2.7c-2.9,0-4.6-1-4.6-2.7s1.8-2.7,4.6-2.7
			C973.1,2426.7,974.9,2427.7,974.9,2429.4z M974.1,2429.4c0-1.2-1.5-2-3.8-2c-2.3,0-3.8,0.8-3.8,2c0,1.2,1.5,2,3.8,2
			C972.6,2431.4,974.1,2430.6,974.1,2429.4z M970.5,2420.8c0.2,0.4,0.3,0.8,0.3,1.3c0,0.5-0.1,0.9-0.3,1.3h3.5v-2.6H970.5z"/>
	</g>
	<g class="st2">
		<path d="M770.7,2456.3c0-1.2,0.9-2,1.8-2c0.9,0,1.8,0.8,1.8,2s-0.9,2-1.8,2C771.6,2458.3,770.7,2457.5,770.7,2456.3z"/>
		<path d="M792.4,2459.3v0.7h-12.8v-0.7h5.3v-3.9h0.8v3.9H792.4z M789.8,2452.8c0-0.7,0-1.4,0-2v-0.7h-8.7v-0.7h9.5v1.4
			c0,1.7,0,3.6-0.6,6.5l-0.8-0.1c0.3-1.4,0.4-2.6,0.5-3.7l-8.9,0.5l-0.1-0.8L789.8,2452.8z"/>
		<path d="M807.2,2459.5v0.7h-12.9v-0.7h6v-3h-4.3v-4.2h8.7v-2.6h-8.7v-0.7h9.6v4h-8.7v2.7h9v0.7h-4.7v3H807.2z"/>
		<path d="M810.7,2457.7c2.1,0,4.3-0.2,6.7-0.6l0.1,0.7c-2.5,0.5-4.6,0.7-6.8,0.7h-1.1v-9.2h0.8v8.4H810.7z M822.2,2454.5h-2.4v7.7
			h-0.8v-14.2h0.8v5.8h2.4V2454.5z"/>
		<path d="M824.3,2460.2h2.6v-9.1h-2v-0.6c0.9-0.2,1.7-0.4,2.2-0.8h0.8v10.5h2.4v0.8h-6V2460.2z"/>
		<path d="M832.3,2460.1l0.6-0.6c0.5,0.6,1.2,0.9,1.9,0.9c1.8,0,3.3-1.4,3.3-5.4c-0.8,1-1.8,1.6-2.8,1.6c-2,0-3.2-1.2-3.2-3.5
			c0-2.1,1.5-3.6,3.2-3.6c2.3,0,3.8,1.9,3.8,5.4c0,4.7-2,6.4-4.2,6.4C833.7,2461.2,832.9,2460.7,832.3,2460.1z M835.4,2455.8
			c0.8,0,1.8-0.5,2.7-1.7c-0.2-2.4-1.1-3.8-2.8-3.8c-1.3,0-2.2,1.2-2.2,2.8C833,2454.6,833.7,2455.8,835.4,2455.8z"/>
		<path d="M851.5,2448.9c0,3.5-2.6,6.1-6.7,7.2l-0.3-0.7c3.6-1,6-3.1,6.1-5.8H845v-0.7H851.5z M846.5,2456.8h8.8v5.1h-8.8V2456.8z
			 M847.4,2461.2h7.1v-3.7h-7.1V2461.2z M857.5,2452.3h-2.2v3.7h-0.8v-8.2h0.8v3.7h2.2V2452.3z"/>
		<path d="M870.7,2447.9v8.2h-0.8v-2.1h-3.9c-0.7,0.8-1.7,1.3-3,1.3c-2.1,0-3.6-1.3-3.6-3.3c0-2,1.5-3.3,3.6-3.3
			c1.2,0,2.3,0.5,3,1.3h3.9v-2.2H870.7z M865.7,2452.1c0-1.5-1.2-2.6-2.8-2.6s-2.8,1.1-2.8,2.6c0,1.4,1.2,2.6,2.8,2.6
			S865.7,2453.5,865.7,2452.1z M861.6,2456.9h9.1v5h-9.1V2456.9z M862.4,2461.2h7.4v-3.6h-7.4V2461.2z M869.8,2453.3v-2.5h-3.5
			c0.1,0.4,0.2,0.8,0.2,1.3c0,0.4-0.1,0.8-0.2,1.2H869.8z"/>
		<path d="M885.8,2448.2h0.8v13.1h-0.8v-4.8h-2.6c-0.5,1.5-1.4,2.3-2.7,2.3c-1.8,0-3-1.9-3-4.8s1.2-4.8,3-4.8c1.2,0,2.2,0.9,2.7,2.3
			h2.6V2448.2z M882.8,2454c0-2.4-0.9-4-2.2-4s-2.2,1.7-2.2,4c0,2.4,0.9,4,2.2,4S882.8,2456.4,882.8,2454z M885.8,2455.8v-3.6h-2.4
			c0.1,0.5,0.2,1.1,0.2,1.8s-0.1,1.2-0.2,1.8H885.8z M889.4,2447.9v14.2h-0.8v-14.2H889.4z"/>
		<path d="M899.2,2455.3h-6.4v-6.5h0.8v2.4h4.8v-2.4h0.8V2455.3z M898.4,2451.8h-4.8v2.7h4.8V2451.8z M903.1,2459.5
			c0,1.6-1.7,2.6-4.6,2.6s-4.6-0.9-4.6-2.6c0-1.6,1.7-2.6,4.6-2.6S903.1,2457.9,903.1,2459.5z M902.3,2459.5c0-1.1-1.5-1.9-3.8-1.9
			c-2.3,0-3.7,0.7-3.7,1.9c0,1.2,1.5,1.9,3.7,1.9C900.8,2461.4,902.3,2460.7,902.3,2459.5z M905.3,2451.6v0.7H903v4.2h-0.8v-8.6h0.8
			v3.7H905.3z"/>
		<path d="M915.9,2455.3c-3.1,0.5-6.5,0.5-9,0.5l-0.1-0.7c1.2,0,2.6,0,4,0v-1.1c-1.7-0.1-2.8-0.8-2.8-1.8c0-1.2,1.3-1.9,3.2-1.9
			c2,0,3.2,0.7,3.2,1.9c0,1.1-1.1,1.7-2.8,1.8v1c1.4-0.1,2.8-0.2,4.2-0.4L915.9,2455.3z M915.4,2449.8h-8.2v-0.7h3.7v-1.4h0.8v1.4
			h3.7V2449.8z M909.5,2461.3h8.7v0.7h-9.5v-2.8h8.1v-1.4h-8.2v-0.7h9v2.7h-8.1V2461.3z M911.2,2453.5c1.5,0,2.4-0.5,2.4-1.2
			c0-0.8-1-1.3-2.4-1.3s-2.4,0.5-2.4,1.3C908.8,2452.9,909.8,2453.5,911.2,2453.5z M919.9,2451.7v0.7h-2.3v3.9h-0.8v-8.4h0.8v3.8
			H919.9z"/>
		<path d="M934.4,2455.1v0.7h-12.9v-0.7h6v-1.9h-4.3v-4.6h9.6v0.7H924v3.2h8.8v0.7h-4.5v1.9H934.4z M932.8,2459.6
			c0,1.6-1.8,2.5-4.8,2.5s-4.8-0.9-4.8-2.5c0-1.6,1.8-2.5,4.8-2.5S932.8,2457.9,932.8,2459.6z M931.9,2459.6c0-1.2-1.6-1.8-4-1.8
			s-4,0.7-4,1.8s1.6,1.8,4,1.8S931.9,2460.7,931.9,2459.6z"/>
	</g>
	<g id="사각형_373" transform="translate(740 2307)">
		<rect y="0" class="st3" width="457" height="50"/>
		<rect x="0.5" y="0.5" class="st1" width="456" height="49"/>
	</g>
	<g class="st2">
		<path class="st4" d="M924.9,2332.3c0-4.3,2.4-6.9,6-6.9c3.5,0,6,2.5,6,6.9s-2.4,7-6,7C927.3,2339.3,924.9,2336.6,924.9,2332.3z
			 M934.1,2332.3c0-2.9-1.3-4.6-3.2-4.6s-3.2,1.7-3.2,4.6c0,2.8,1.3,4.7,3.2,4.7S934.1,2335.1,934.1,2332.3z"/>
		<path class="st4" d="M939.3,2332.4c0-4.4,2.8-7,6.2-7c1.7,0,3,0.8,3.9,1.7l-1.4,1.7c-0.7-0.6-1.5-1.1-2.5-1.1
			c-2,0-3.5,1.7-3.5,4.6c0,2.9,1.4,4.6,3.5,4.6c1.2,0,2-0.5,2.8-1.3l1.4,1.7c-1.1,1.3-2.5,2-4.2,2
			C942.1,2339.3,939.3,2336.8,939.3,2332.4z"/>
		<path class="st4" d="M952.4,2325.7h2.7v13.3h-2.7V2325.7z"/>
	</g>
	<g class="st2">
		<path class="st4" d="M958.2,2335.3c2.9,0,7,0,10.5-0.5l0.1,1.7c-3.6,0.7-7.5,0.8-10.3,0.8L958.2,2335.3z M968,2329.2
			c0,2.4-2,4.1-4.6,4.1s-4.6-1.7-4.6-4.1c0-2.4,2-4.1,4.6-4.1S968,2326.8,968,2329.2z M961.2,2329.2c0,1.3,1,2.1,2.3,2.1
			c1.3,0,2.3-0.8,2.3-2.1c0-1.3-1-2.1-2.3-2.1C962.2,2327.1,961.2,2327.9,961.2,2329.2z M971.9,2323.9v16.6h-2.4v-16.6H971.9z"/>
		<path class="st4" d="M990.1,2332.9c-3.5,0.6-7.3,0.6-10.2,0.6l-0.2-1.6c1.2,0,2.5,0,3.9,0v-0.8c-1.8-0.2-2.9-1-2.9-2.1
			c0-1.3,1.6-2.2,4.1-2.2c2.5,0,4,0.8,4,2.2c0,1.1-1.1,1.9-2.8,2.1v0.7c1.3-0.1,2.7-0.2,3.9-0.3L990.1,2332.9z M989.6,2326.6h-9.4
			v-1.6h3.5v-1.2h2.4v1.2h3.5V2326.6z M984.3,2338.9h9.3v1.6H982v-3.8h8.8v-0.7h-8.8v-1.6h11.1v3.7h-8.8V2338.9z M984.9,2329.8
			c1.1,0,1.8-0.3,1.8-0.7c0-0.5-0.6-0.7-1.8-0.7s-1.8,0.2-1.8,0.7C983.1,2329.5,983.7,2329.8,984.9,2329.8z M995.2,2327.9v1.9h-2.1
			v3.9h-2.4v-9.8h2.4v3.9H995.2z"/>
		<path class="st4" d="M1012.1,2331.8v1.9h-15v-1.9h6.3v-1.4h-4.5v-5.7h11.4v1.9h-9v1.9h9.1v1.9h-4.6v1.4H1012.1z M1010.3,2337.5
			c0,1.9-2.2,3-5.8,3s-5.7-1.1-5.7-3c0-2,2.2-3.1,5.7-3.1S1010.3,2335.6,1010.3,2337.5z M1007.9,2337.5c0-0.9-1.1-1.3-3.3-1.3
			c-2.2,0-3.3,0.4-3.3,1.3s1.1,1.2,3.3,1.2C1006.8,2338.8,1007.9,2338.4,1007.9,2337.5z"/>
	</g>
</g>
</svg>
