<?xml version="1.0" encoding="utf-8"?>
<!-- Generator: Adobe Illustrator 25.1.0, SVG Export Plug-In . SVG Version: 6.00 Build 0)  -->
<svg version="1.1" id="레이어_1" xmlns="http://www.w3.org/2000/svg" xmlns:xlink="http://www.w3.org/1999/xlink" x="0px"
	 y="0px" viewBox="0 0 919 211" style="enable-background:new 0 0 919 211;" xml:space="preserve">
<style type="text/css">
	.st0{fill:none;}
	.st1{fill:none;stroke:#D5D5D5;}
	.st2{fill:#DF1C2F;}
	.st3{fill:none;stroke:#DF1C2F;stroke-miterlimit:10;}
	.st4{fill:none;stroke:#5D5F64;stroke-miterlimit:10;}
	.st5{enable-background:new    ;}
</style>
<g id="그룹_5861" transform="translate(-740 -2929)">
	<g id="사각형_524" transform="translate(740 2978)">
		<rect class="st0" width="457" height="162"/>
		<rect x="0.5" y="0.5" class="st1" width="456" height="161"/>
	</g>
	<g id="그룹_5824" transform="translate(534.874 -240.129)">
		<g id="그룹_5714" transform="translate(309.582 3280.021)">
			<path id="패스_4988" class="st2" d="M3.3,1.7c0,0.9-0.7,1.7-1.7,1.7C0.7,3.3,0,2.6,0,1.7C0,0.7,0.7,0,1.7,0
				C2.6,0,3.3,0.7,3.3,1.7"/>
		</g>
		<g id="그룹_5715" transform="translate(273.354 3289.08)">
			<path id="패스_4989" class="st2" d="M3.3,1.7c0,0.9-0.7,1.7-1.7,1.7C0.7,3.3,0,2.6,0,1.7C0,0.7,0.7,0,1.7,0
				C2.6,0,3.3,0.7,3.3,1.7"/>
		</g>
		<g id="그룹_5825" transform="translate(258.126 3249.819)">
			<g id="그룹_5713" transform="translate(0 1.514)">
				<path id="패스_4987" class="st3" d="M34.3,0h-5.5l-1.2,7.6c-2.7,1.1-4.1,1.7-6.8,2.8l-7.3-3.5c-3.3,3.3-3.3,3.3-6.6,6.6
					l3.5,7.3l-2.8,6.7L0,30.2v4.6 M35.7,69.7h4l2.7-7.6l6.8-2.8l7.3,3.5l6.6-6.5L59.6,49c1.1-2.7,1.7-4.1,2.8-6.7l7.6-2.7V35
					 M36.7,39.1c-2.3,1-5-0.1-5.9-2.5c-1-2.3,0.1-5,2.5-5.9c2.3-1,5,0.1,5.9,2.5C40.2,35.5,39.1,38.1,36.7,39.1L36.7,39.1z
					 M47.2,34.9c0,6.7-5.4,12.2-12.1,12.2S22.8,41.7,22.8,35S28.2,22.8,35,22.7l0,0C41.7,22.7,47.2,28.2,47.2,34.9L47.2,34.9
					L47.2,34.9z M53.3,34.9c0,10.1-8.3,18.2-18.4,18.2c-3,0-6-0.8-8.6-2.2 M16.7,34.9c0-10.1,8.3-18.2,18.4-18.2c3,0,6,0.8,8.6,2.2"
					/>
			</g>
			<g id="그룹_5716" transform="translate(0)">
				<path id="패스_4990" class="st4" d="M34.3,0v11.1l14.9,14.7c1.3,1.2,3.3,1.2,4.5-0.1c1.2-1.3,1.2-3.3-0.1-4.5L47.2,15v-1.4
					h7.5l9.3,8.2v6.9c0,1.7,1.3,3,3,3l0,0h3v-14l-18.2-17V0 M35.7,72.8V61.6L20.7,47c-1.2-1.2-3.2-1.2-4.5,0c-1.2,1.2-1.2,3.2,0,4.5
					c0,0,0,0,0.1,0.1l6.5,6.2v1.4h-7.5L6,50.9V44c0-1.7-1.3-3-3-3l0,0H0v14l18.2,17.2v0.7"/>
			</g>
		</g>
	</g>
	<g id="그룹_5822" transform="translate(0 1608.067)">
		<g class="st5">
			<path class="st2" d="M740.9,1340.3c0-1.8,1.2-2.9,2.5-3.6v-0.1c-1.1-0.8-2-1.9-2-3.4c0-2.4,1.9-3.9,4.5-3.9s4.3,1.6,4.3,3.9
				c0,1.4-1,2.6-1.9,3.2v0.1c1.3,0.8,2.5,1.8,2.5,3.8c0,2.2-2,4-5,4C743.1,1344.2,740.9,1342.6,740.9,1340.3z M748.1,1340.2
				c0-1.4-1.4-2-3.3-2.7c-0.8,0.6-1.4,1.5-1.4,2.5c0,1.3,1.1,2.2,2.5,2.2C747.2,1342.1,748.1,1341.4,748.1,1340.2z M747.9,1333.4
				c0-1.2-0.7-2-2-2c-1,0-1.8,0.6-1.8,1.8c0,1.3,1.2,1.9,2.7,2.5C747.5,1335,747.9,1334.2,747.9,1333.4z"/>
			<path class="st2" d="M755.8,1339.3c1.7,0,3.3-0.1,5-0.5l0.2,2.1c-2.2,0.4-4.2,0.5-6.6,0.5h-1.3v-12.2h6.8v2.1h-4.2L755.8,1339.3
				L755.8,1339.3z M768.4,1327.2v18.4h-2.5v-9.2h-1.7v8.4h-2.5v-17.2h2.5v6.7h1.7v-7.1L768.4,1327.2L768.4,1327.2z"/>
			<path class="st2" d="M784.4,1331.1h-9v-2h3.2v-1.7h2.6v1.7h3.2V1331.1z M780,1338.3c-2.3,0-4-1.4-4-3.3s1.6-3.3,4-3.3
				c2.3,0,4,1.4,4,3.3S782.3,1338.3,780,1338.3z M780,1336.4c1,0,1.6-0.5,1.6-1.4s-0.7-1.4-1.6-1.4c-1,0-1.6,0.5-1.6,1.4
				S779,1336.4,780,1336.4z M778.6,1339.6h12.7v6.1h-2.6v-4h-10v-2.1H778.6z M791.3,1327.2v11.5h-2.5v-4.5h-1.4v4.4H785v-11.1h2.5
				v4.6h1.4v-4.9H791.3z"/>
			<path class="st2" d="M804,1337c-2.1-0.6-3.5-1.9-4.3-3.5c-0.8,1.8-2.3,3.2-4.5,3.8l-1.3-2.1c3.1-1,4.4-3.3,4.4-5.6v-1.8h2.7v1.8
				c0,2.2,1.3,4.4,4.3,5.2L804,1337z M797,1338.5h12.3v6.9H797V1338.5z M799.6,1343.4h7.1v-2.8h-7.1V1343.4z M809.3,1327.2v10.4
				h-2.7v-10.4H809.3z"/>
			<path class="st2" d="M818.1,1339.7c1.8-0.1,3.6-0.2,5.3-0.4l0.1,1.9c-3.7,0.6-7.9,0.7-11.1,0.7l-0.2-2.2c1,0,2.1,0,3.3,0v-5.4
				h2.6L818.1,1339.7L818.1,1339.7z M819.6,1337.4c0.4-2.6,0.5-4.6,0.5-6.2h-6.9v-2.1h9.5v1.5c0,1.8,0,4-0.5,7.1L819.6,1337.4z
				 M829.3,1336.8h-2.5v8.8h-2.6v-18.4h2.6v7.4h2.5V1336.8z"/>
			<path class="st2" d="M836.6,1332.1c0,3.1,0.9,6.2,3.6,7.7l-1.5,1.9c-1.6-1-2.7-2.6-3.3-4.5c-0.6,2.1-1.7,3.9-3.4,4.9l-1.6-1.9
				c2.7-1.7,3.6-5,3.6-8.2v-0.9h-3v-2.1h8.2v2.1h-2.7v1H836.6z M840.4,1327.5h2.5v17.3h-2.5v-9.2H838v-2.1h2.3v-6H840.4z
				 M846.6,1327.2v18.4h-2.5v-18.4H846.6z"/>
		</g>
	</g>
	<g class="st5">
		<path d="M948.7,3017.3c0-1.2,0.9-2,1.8-2c0.9,0,1.8,0.8,1.8,2s-0.9,2-1.8,2C949.6,3019.3,948.7,3018.5,948.7,3017.3z"/>
		<path d="M961.5,3016.8c-2.1,0-3.6-1.4-3.6-3.4s1.5-3.4,3.6-3.4s3.6,1.4,3.6,3.4C965.1,3015.4,963.6,3016.8,961.5,3016.8z
			 M961.5,3016.1c1.6,0,2.8-1.2,2.8-2.7s-1.2-2.7-2.8-2.7s-2.8,1.2-2.8,2.7C958.7,3014.9,959.9,3016.1,961.5,3016.1z M960.7,3022
			h8.5v0.7h-9.4v-4.4h0.8v3.7H960.7z M970.7,3013.4v0.7h-2.2v5.3h-0.8v-10.5h0.8v4.5H970.7z"/>
		<path d="M980.1,3017c-1.6-0.6-3-1.9-3.6-3.5c-0.6,1.8-2,3.2-3.7,3.9l-0.4-0.7c2-0.7,3.7-2.6,3.7-4.8v-1h-3.4v-0.7h7.6v0.7H977v1
			c0,1.9,1.6,3.7,3.6,4.4L980.1,3017z M984.3,3022v0.7H975v-4.4h0.8v3.6L984.3,3022L984.3,3022z M983,3013v-4.1h0.8v10.5H983v-5.7
			h-3.2v-0.7H983z"/>
		<path d="M991.2,3016.3c-1.5,0.1-3,0.1-4.2,0.1l-0.1-0.7c2.6,0,6.2,0,9.3-0.4l0.1,0.6c-1.3,0.2-2.8,0.3-4.1,0.4v2.9h-0.8v-2.9
			H991.2z M988.1,3012c0-1.5,1.4-2.4,3.5-2.4s3.5,0.9,3.5,2.4s-1.4,2.4-3.5,2.4S988.1,3013.5,988.1,3012z M988.9,3012
			c0,1.1,1.1,1.8,2.7,1.8c1.6,0,2.7-0.7,2.7-1.8c0-1-1.1-1.8-2.7-1.8S988.9,3010.9,988.9,3012z M998.8,3022v0.7H989v-4.1h0.8v3.4
			L998.8,3022L998.8,3022z M997.6,3017.4v-8.5h0.8v10.8h-0.8v-1.7h-3v-0.7L997.6,3017.4L997.6,3017.4z"/>
		<path d="M1010,3017.1c-1.6-0.6-3.1-1.8-3.7-3.4c-0.6,1.7-2,3.1-3.7,3.7l-0.4-0.7c2-0.7,3.7-2.5,3.7-4.6v-0.5h-3.4v-0.7h3.4v-2h0.8
			v2h3.4v0.7h-3.4v0.5c0,2,1.8,3.7,3.7,4.3L1010,3017.1z M1003.9,3018.5h9.4v4.6h-0.8v-3.9h-8.5v-0.7H1003.9z M1013.3,3008.9v8.8
			h-0.8v-8.8H1013.3z"/>
		<path d="M1032.9,3016.3v0.7h-6v3.2h-0.8v-3.2h-6.1v-0.7H1032.9z M1020.9,3014.4c2.2-0.3,5-1.7,5-3.8v-0.2h-4.8v-0.7h10.5v0.7h-4.8
			v0.2c0,2,2.9,3.4,5,3.8l-0.3,0.7c-2-0.4-4.4-1.5-5.2-3.3c-0.8,1.8-3.1,2.9-5.2,3.3L1020.9,3014.4z M1022.5,3022h8.9v0.7h-9.7v-4
			h0.8V3022z"/>
		<path d="M1047.5,3017.8h-6v5.3h-0.8v-5.3h-6v-0.7h12.9L1047.5,3017.8z M1046.4,3015.2c-2-0.4-4.4-1.6-5.3-3.5
			c-0.8,1.9-3.3,3.1-5.3,3.5l-0.4-0.7c2.2-0.4,5.2-2,5.2-4.2v-0.9h0.9v0.9c0,2.2,3.1,3.8,5.2,4.2L1046.4,3015.2z"/>
	</g>
	<g class="st5">
		<path d="M948.7,3047.3c0-1.2,0.9-2,1.8-2c0.9,0,1.8,0.8,1.8,2s-0.9,2-1.8,2C949.6,3049.3,948.7,3048.5,948.7,3047.3z"/>
		<path d="M965.2,3046.8c-1.6-0.6-2.9-1.9-3.5-3.4c-0.6,1.7-2,3.1-3.7,3.7l-0.4-0.7c2-0.7,3.7-2.6,3.7-4.8v-0.9h-3.4v-0.7h7.6v0.7
			h-3.4v0.9c0,2,1.6,3.8,3.6,4.5L965.2,3046.8z M959.4,3048.3h9.1v4.8h-0.8v-4.1h-8.2L959.4,3048.3L959.4,3048.3z M970.7,3043.5
			h-2.2v3.9h-0.8v-8.5h0.8v3.9h2.2V3043.5z"/>
		<path d="M983.8,3038.9v7.6H983v-3.4h-3.3c-0.2,1.7-1.6,2.9-3.6,2.9c-2.1,0-3.6-1.3-3.6-3.2s1.5-3.2,3.6-3.2c2,0,3.4,1.1,3.6,2.8
			h3.3v-3.5L983.8,3038.9L983.8,3038.9z M978.9,3042.8c0-1.5-1.2-2.5-2.8-2.5s-2.8,1.1-2.8,2.5s1.2,2.5,2.8,2.5
			S978.9,3044.3,978.9,3042.8z M983,3047.3h0.8v5.6h-8.9v-5.6h0.8v2.1h7.2v-2.1H983z M983,3050h-7.2v2.1h7.2V3050z"/>
		<path d="M998.4,3046c-1.6-0.6-3-1.8-3.6-3.3c-0.6,1.7-2,3-3.7,3.6l-0.4-0.7c1.9-0.7,3.7-2.5,3.7-4.5v-0.7H991v-0.7h7.6v0.7h-3.3
			v0.7c0,1.8,1.7,3.5,3.6,4.2L998.4,3046z M1002.7,3052.2v0.7h-9.6v-3.4h8.1v-1.8H993v-0.7h9v3.2h-8v2H1002.7z M1001.2,3042.2v-3.3
			h0.8v7.4h-0.8v-3.3H998v-0.7L1001.2,3042.2L1001.2,3042.2z"/>
		<path d="M1009.7,3043.6c0,2.4,1.7,4.8,3.6,5.8l-0.5,0.7c-1.6-0.8-2.9-2.5-3.5-4.5c-0.6,2.1-2.1,3.9-3.7,4.7l-0.5-0.7
			c2-1,3.7-3.4,3.7-6.1v-1.4h-3.4v-0.7h3.4v-2.3h0.8v2.3h3.3v0.7h-3.3v1.5H1009.7z M1018.5,3045.7h-2.5v7.5h-0.8V3039h0.8v6h2.5
			V3045.7z"/>
		<path d="M1032.6,3046.6c-3,0.5-6.4,0.5-9,0.6l-0.1-0.8c1,0,2.1,0,3.2,0v-3.2h0.8v3.2c1.6-0.1,3.4-0.2,4.9-0.4L1032.6,3046.6z
			 M1030,3044.9c0.4-1.9,0.4-3.2,0.4-4.1h-6.1v-0.7h6.9v0.7c0,0.9,0,2.3-0.4,4.2L1030,3044.9z M1026.6,3052h8.3v0.7h-9.1v-4.1h0.8
			L1026.6,3052L1026.6,3052z M1036.6,3043.7v0.7h-2.2v5.2h-0.8v-10.7h0.8v4.8H1036.6z"/>
		<path d="M1040.2,3048.9c2.3,0,4.5-0.1,7.2-0.5l0.1,0.7c-2.7,0.4-4.9,0.5-7.3,0.5h-1.1v-5.2h5.6v-3.4h-5.7v-0.7h6.5v4.8h-5.6v3.8
			L1040.2,3048.9L1040.2,3048.9z M1049.8,3038.9v14.2h-0.8v-14.2H1049.8z"/>
		<path d="M1064.6,3041.2h-8.1v-0.7h3.6v-1.8h0.8v1.8h3.6L1064.6,3041.2L1064.6,3041.2z M1060.6,3047.4c-1.9,0-3.2-1-3.2-2.6
			s1.3-2.6,3.2-2.6c1.9,0,3.2,1,3.2,2.6C1063.7,3046.4,1062.4,3047.4,1060.6,3047.4z M1060.6,3046.7c1.4,0,2.3-0.8,2.3-1.9
			c0-1.1-0.9-1.9-2.3-1.9s-2.4,0.8-2.4,1.9S1059.2,3046.7,1060.6,3046.7z M1058.7,3048.8h9.4v4.3h-0.8v-3.6h-8.5L1058.7,3048.8
			L1058.7,3048.8z M1068.1,3038.9v9h-0.8v-2h-2.8v-0.7h2.8v-1.9h-2.8v-0.7h2.8v-3.7L1068.1,3038.9L1068.1,3038.9z"/>
		<path d="M1079.2,3047c-1.6-0.7-3.1-2.1-3.6-3.9c-0.6,1.9-2,3.5-3.6,4.2l-0.5-0.7c2-0.8,3.7-3,3.7-5.4v-1.5h0.8v1.5
			c0,2.3,1.7,4.3,3.7,5.1L1079.2,3047z M1083.3,3052v0.7h-9.4v-4.3h0.8v3.6H1083.3z M1082.8,3049.4h-0.8v-10.5h0.8V3049.4z"/>
	</g>
	<g class="st5">
		<path d="M948.7,3077.3c0-1.2,0.9-2,1.8-2c0.9,0,1.8,0.8,1.8,2s-0.9,2-1.8,2C949.6,3079.3,948.7,3078.5,948.7,3077.3z"/>
		<path d="M961.5,3076.8c-2.1,0-3.6-1.4-3.6-3.4s1.5-3.4,3.6-3.4s3.6,1.4,3.6,3.4C965.1,3075.4,963.6,3076.8,961.5,3076.8z
			 M961.5,3076.1c1.6,0,2.8-1.2,2.8-2.7s-1.2-2.7-2.8-2.7s-2.8,1.2-2.8,2.7C958.7,3074.9,959.9,3076.1,961.5,3076.1z M960.7,3082
			h8.5v0.7h-9.4v-4.4h0.8v3.7H960.7z M970.7,3073.4v0.7h-2.2v5.3h-0.8v-10.5h0.8v4.5H970.7z"/>
		<path d="M980.1,3077c-1.6-0.6-3-1.9-3.6-3.5c-0.6,1.8-2,3.2-3.7,3.9l-0.4-0.7c2-0.7,3.7-2.6,3.7-4.8v-1h-3.4v-0.7h7.6v0.7H977v1
			c0,1.9,1.6,3.7,3.6,4.4L980.1,3077z M984.3,3082v0.7H975v-4.4h0.8v3.6L984.3,3082L984.3,3082z M983,3073v-4.1h0.8v10.5H983v-5.7
			h-3.2v-0.7H983z"/>
		<path d="M996.1,3077.6c-3,0.5-6.5,0.6-9,0.6l-0.1-0.7c1.2,0,2.6,0,4-0.1v-1.2c-1.7-0.1-2.8-0.9-2.8-2.2s1.3-2.2,3.2-2.2
			s3.2,0.8,3.2,2.2c0,1.3-1.1,2.1-2.8,2.2v1.2c1.4-0.1,2.8-0.2,4.2-0.4L996.1,3077.6z M995.5,3071.1h-8.3v-0.7h3.7v-1.6h0.8v1.6h3.7
			L995.5,3071.1L995.5,3071.1z M991.4,3075.6c1.5,0,2.4-0.6,2.4-1.6c0-0.9-1-1.5-2.4-1.5s-2.4,0.6-2.4,1.5S990,3075.6,991.4,3075.6z
			 M990,3082h8.4v0.7h-9.2v-3.5h0.8V3082z M1000.1,3074v0.7h-2.3v5.3H997v-11.1h0.8v5.1H1000.1z"/>
		<path d="M1008.5,3072.5c-0.9,2.3-3.2,4-6.2,5l-0.4-0.7c3.5-1.1,5.9-3.2,6.1-6h-5.4v-0.7h6.4c0,0.6-0.1,1.2-0.2,1.7h3.7v-2.8h0.8
			v8.7h-0.8v-2.2h-4.1v-0.7h4.1v-2.3H1008.5z M1013.3,3080.4c0,1.7-1.8,2.7-4.6,2.7c-2.9,0-4.7-1-4.7-2.7c0-1.6,1.8-2.6,4.7-2.6
			C1011.6,3077.8,1013.3,3078.8,1013.3,3080.4z M1012.5,3080.4c0-1.2-1.5-1.9-3.8-1.9s-3.8,0.8-3.8,1.9c0,1.2,1.5,2,3.8,2
			S1012.5,3081.6,1012.5,3080.4z"/>
		<path d="M1028.5,3076.2c-2.8,0.4-6.1,0.5-8.4,0.5l-0.1-0.8c0.6,0,1.3,0,2,0v-5.1h-1.6v-0.7h7.5v0.7h-1.6v5c0.8,0,1.5-0.1,2.2-0.2
			V3076.2z M1031.6,3080.6c0,1.6-1.8,2.5-4.7,2.5c-2.9,0-4.6-0.9-4.6-2.5s1.7-2.5,4.6-2.5S1031.6,3079,1031.6,3080.6z
			 M1022.8,3075.9c0.9,0,1.7,0,2.6-0.1v-5h-2.6L1022.8,3075.9L1022.8,3075.9z M1030.8,3080.6c0-1.1-1.5-1.8-3.8-1.8
			s-3.8,0.7-3.8,1.8s1.5,1.8,3.8,1.8C1029.3,3082.4,1030.8,3081.7,1030.8,3080.6z M1030.7,3074.8h-2.8v-0.7h2.8v-1.7h-2.8v-0.7h2.8
			v-2.7h0.8v8.8h-0.8V3074.8z"/>
		<path d="M1041.9,3070.5c0,3.9-2,7.5-6.5,9.8l-0.5-0.7c3.8-1.9,5.9-4.9,6.2-8.4h-5.6v-0.7L1041.9,3070.5L1041.9,3070.5z
			 M1047.9,3075.6h-2.4v7.5h-0.8v-14.2h0.8v6h2.4V3075.6z"/>
		<path d="M1053.4,3073.1c0,2.5,1.3,5,3.2,6.1l-0.5,0.6c-1.4-0.9-2.5-2.5-3-4.5c-0.5,2.1-1.6,3.9-3.1,4.8l-0.6-0.6
			c1.9-1.1,3.3-3.7,3.3-6.5v-1.6h-2.9v-0.7h6.6v0.7h-2.8v1.7H1053.4z M1057.7,3069.3h0.8v13h-0.8v-7.5h-2.6v-0.7h2.6V3069.3z
			 M1061.4,3068.9v14.2h-0.8v-14.2H1061.4z"/>
		<path d="M1075.7,3071.2h-8.1v-0.7h3.6v-1.8h0.8v1.8h3.6L1075.7,3071.2L1075.7,3071.2z M1071.7,3077.4c-1.9,0-3.2-1-3.2-2.6
			s1.3-2.6,3.2-2.6c1.9,0,3.2,1,3.2,2.6C1074.9,3076.4,1073.6,3077.4,1071.7,3077.4z M1071.7,3076.7c1.4,0,2.3-0.8,2.3-1.9
			c0-1.1-0.9-1.9-2.3-1.9s-2.4,0.8-2.4,1.9C1069.4,3075.9,1070.3,3076.7,1071.7,3076.7z M1069.9,3078.8h9.4v4.3h-0.8v-3.6h-8.5
			L1069.9,3078.8L1069.9,3078.8z M1079.3,3068.9v9h-0.8v-2h-2.8v-0.7h2.8v-1.9h-2.8v-0.7h2.8v-3.7L1079.3,3068.9L1079.3,3068.9z"/>
		<path d="M1090.4,3077c-1.6-0.7-3.1-2.1-3.6-3.9c-0.6,1.9-2,3.5-3.6,4.2l-0.5-0.7c2-0.8,3.7-3,3.7-5.4v-1.5h0.8v1.5
			c0,2.3,1.7,4.3,3.7,5.1L1090.4,3077z M1094.4,3082v0.7h-9.4v-4.3h0.8v3.6H1094.4z M1094,3079.4h-0.8v-10.5h0.8V3079.4z"/>
	</g>
	<g class="st5">
		<path d="M948.7,3107.3c0-1.2,0.9-2,1.8-2c0.9,0,1.8,0.8,1.8,2s-0.9,2-1.8,2C949.6,3109.3,948.7,3108.5,948.7,3107.3z"/>
		<path d="M967.1,3106.9c-1.5,0.2-3,0.4-4.4,0.5v5.3h-0.8v-5.2c-1.5,0.1-3,0.1-4.3,0.1l-0.1-0.8c2.7,0,6.4,0,9.6-0.5V3106.9z
			 M958.7,3102.5c0-1.7,1.5-2.8,3.5-2.8c2.1,0,3.6,1.2,3.6,2.8c0,1.7-1.5,2.9-3.6,2.9C960.1,3105.3,958.7,3104.2,958.7,3102.5z
			 M959.5,3102.5c0,1.2,1.1,2.1,2.7,2.1c1.6,0,2.8-0.9,2.8-2.1c0-1.2-1.2-2.1-2.8-2.1C960.6,3100.3,959.5,3101.3,959.5,3102.5z
			 M969,3098.9v14.2h-0.8v-14.2H969z"/>
		<path d="M980.4,3101.2h-8.2v-0.7h3.7v-1.8h0.8v1.8h3.7V3101.2z M976.3,3107.2c-1.9,0-3.2-1-3.2-2.5s1.3-2.5,3.2-2.5s3.2,1,3.2,2.5
			S978.2,3107.2,976.3,3107.2z M976.3,3106.5c1.4,0,2.4-0.8,2.4-1.8c0-1.1-1-1.8-2.4-1.8s-2.4,0.8-2.4,1.8
			C973.9,3105.7,974.9,3106.5,976.3,3106.5z M974.8,3108.4h9.1v4.5h-9.1V3108.4z M975.6,3112.2h7.4v-3.1h-7.4V3112.2z M983.8,3098.9
			v8.6H983v-3.5h-2.7v-0.7h2.7v-4.4L983.8,3098.9L983.8,3098.9z"/>
		<path d="M994.7,3106.6c-1.6-0.6-2.9-1.9-3.5-3.5c-0.6,1.8-2,3.2-3.7,3.9l-0.4-0.7c2-0.8,3.7-2.7,3.7-5v-1.6h0.8v1.6
			c0,2.1,1.7,3.9,3.6,4.6L994.7,3106.6z M998.6,3110.4c0,1.7-1.8,2.6-4.7,2.6s-4.7-0.9-4.7-2.6s1.8-2.6,4.7-2.6
			C996.8,3107.8,998.6,3108.8,998.6,3110.4z M997.8,3110.4c0-1.2-1.5-1.9-3.8-1.9s-3.8,0.8-3.8,1.9s1.5,1.9,3.8,1.9
			S997.8,3111.6,997.8,3110.4z M997.7,3102.9h-3.4v-0.7h3.4v-3.3h0.8v8.5h-0.8V3102.9z"/>
		<path d="M1010.3,3106.2c-2.8,0.4-6.1,0.5-8.4,0.5l-0.1-0.8c0.6,0,1.3,0,2,0v-5.1h-1.6v-0.7h7.5v0.7h-1.6v5c0.8,0,1.5-0.1,2.2-0.2
			L1010.3,3106.2z M1013.3,3110.6c0,1.6-1.8,2.5-4.7,2.5s-4.6-0.9-4.6-2.5s1.7-2.5,4.6-2.5C1011.6,3108.1,1013.3,3109,1013.3,3110.6
			z M1004.6,3105.9c0.9,0,1.7,0,2.6-0.1v-5h-2.6V3105.9z M1012.5,3110.6c0-1.1-1.5-1.8-3.8-1.8s-3.8,0.7-3.8,1.8s1.5,1.8,3.8,1.8
			C1011,3112.4,1012.5,3111.7,1012.5,3110.6z M1012.4,3104.8h-2.8v-0.7h2.8v-1.7h-2.8v-0.7h2.8v-2.7h0.8v8.8h-0.8V3104.8z"/>
		<path d="M1023.6,3100.5c0,3.9-2,7.5-6.5,9.8l-0.5-0.7c3.8-1.9,5.9-4.9,6.2-8.4h-5.6v-0.7L1023.6,3100.5L1023.6,3100.5z
			 M1029.7,3105.6h-2.4v7.5h-0.8v-14.2h0.8v6h2.4V3105.6z"/>
		<path d="M1042.5,3107c-1.6-0.6-3-1.9-3.6-3.5c-0.6,1.8-2,3.2-3.7,3.9l-0.4-0.7c2-0.7,3.7-2.6,3.7-4.8v-1h-3.4v-0.7h7.6v0.7h-3.3v1
			c0,1.9,1.6,3.7,3.6,4.4L1042.5,3107z M1046.7,3112v0.7h-9.3v-4.4h0.8v3.6L1046.7,3112L1046.7,3112z M1045.4,3103v-4.1h0.8v10.5
			h-0.8v-5.7h-3.2v-0.7H1045.4z"/>
		<path d="M1056.5,3106.7h-6.3v-6.5h6.3v1.4h3.7v-2.7h0.8v10.4h-0.8v-4h-3.7V3106.7z M1055.6,3100.9h-4.7v5.1h4.7V3100.9z
			 M1061.3,3112v0.7h-9.3v-4.4h0.8v3.6L1061.3,3112L1061.3,3112z M1056.5,3102.3v2.3h3.7v-2.3H1056.5z"/>
		<path d="M1071.7,3103c0,2.7,1.2,4.9,3.2,5.9l-0.5,0.7c-1.5-0.8-2.5-2.3-3-4.2c-0.5,2.1-1.6,3.8-3.2,4.7l-0.6-0.7
			c2-1.1,3.3-3.5,3.3-6.4v-1.5h-3v-0.7h6.7v0.7h-2.9V3103z M1079.7,3098.9v14.2h-0.8v-7.6h-2.3v6.8h-0.8v-13.1h0.8v5.5h2.3v-5.9h0.8
			V3098.9z"/>
		<path d="M1090.5,3105.8c-1.6-0.6-3.1-1.9-3.7-3.6c-0.6,1.8-2,3.2-3.7,3.9l-0.4-0.7c2-0.8,3.7-2.7,3.7-5v-1.1h0.8v1.1
			c0,2.2,1.8,4,3.8,4.7L1090.5,3105.8z M1094.5,3112.2v0.7h-9.5v-3.3h8.1v-1.8h-8.2v-0.7h9v3.2h-8.1v1.9L1094.5,3112.2
			L1094.5,3112.2z M1093.9,3106.3h-0.8v-7.5h0.8V3106.3z"/>
		<path d="M1101.9,3103.1c0,2.6,2.1,5.2,4,6.1l-0.5,0.7c-1.6-0.8-3.2-2.6-3.8-4.8c-0.6,2.2-2.2,4.1-3.8,5l-0.5-0.7
			c1.9-1,3.9-3.7,3.9-6.3v-2.8h0.8L1101.9,3103.1L1101.9,3103.1z M1108.6,3098.9v14.2h-0.8v-14.2H1108.6z"/>
	</g>
	<g class="st5">
		<path class="st2" d="M810,3101.1c0,3,1.7,6,4.2,7.1l-1.1,1.5c-1.9-0.9-3.3-2.7-4-4.9c-0.7,2.4-2.2,4.3-4.1,5.2l-1.1-1.5
			c2.6-1.2,4.3-4.3,4.3-7.4v-2.7h1.9v2.7H810z M817.4,3097.1v16.3h-1.9v-16.3H817.4z"/>
		<path class="st2" d="M835.9,3109.8v1.5h-14.7v-1.5H835.9z M834.5,3106.6c-2.6-0.5-4.9-2.2-6-4.5c-1.1,2.2-3.3,3.9-6,4.5l-0.8-1.5
			c3.2-0.6,5.8-3.1,5.8-5.7v-1.2h2v1.2c0,2.6,2.6,5.1,5.8,5.7L834.5,3106.6z"/>
		<path class="st2" d="M846,3105.7c-1.9,0.3-3.4,0.4-5.9,0.4H839v-7.9h6.1v1.5h-4.3v1.7h3.7v1.4h-3.7v1.8c2.1,0,3.4-0.1,5-0.4
			L846,3105.7z M841.3,3107.6h10.8v5.6h-10.8V3107.6z M843.1,3111.7h7.2v-2.6h-7.2V3111.7z M847.2,3102.6h-1.9v-1.5h1.9v-3.7h1.7
			v9.4h-1.7V3102.6z M852.1,3097.1v9.8h-1.8v-9.8H852.1z"/>
	</g>
	<g id="사각형_526" transform="translate(1202 2978)">
		<rect class="st0" width="457" height="162"/>
		<rect x="0.5" y="0.5" class="st1" width="456" height="161"/>
	</g>
	<g class="st5">
		<path d="M1410.2,3017.3c0-1.2,0.9-2,1.8-2s1.8,0.8,1.8,2s-0.9,2-1.8,2S1410.2,3018.5,1410.2,3017.3z"/>
		<path d="M1421,3018.9c2.3,0,4.5-0.1,7.2-0.5l0.1,0.7c-2.7,0.4-4.9,0.5-7.3,0.5h-1.1v-5.2h5.6v-3.4h-5.7v-0.7h6.5v4.8h-5.6v3.8
			L1421,3018.9L1421,3018.9z M1430.6,3008.9v14.2h-0.8v-14.2H1430.6z"/>
		<path d="M1435.5,3018.8c2.7,0,4.5-0.1,6.5-0.5l0.1,0.7c-2.1,0.4-3.9,0.5-6.6,0.5h-1v-9.3h6.5v0.8h-5.6L1435.5,3018.8
			L1435.5,3018.8z M1445.3,3008.9v14.2h-0.8v-8.2h-4.4v-0.7h4.4v-5.3H1445.3z"/>
		<path d="M1456.6,3016.1c-1.6-0.6-3.1-1.9-3.7-3.6c-0.6,1.8-2,3.2-3.7,3.9l-0.5-0.7c2-0.8,3.7-2.7,3.7-4.9v-1.3h0.8v1.3
			c0,2.1,1.8,4,3.8,4.7L1456.6,3016.1z M1459.2,3017.3h0.8v5.6h-9v-5.6h0.8v2h7.3L1459.2,3017.3L1459.2,3017.3z M1459.2,3020h-7.3
			v2.2h7.3V3020z M1460,3008.9v7.6h-0.8v-7.6H1460z"/>
		<path d="M1479.6,3015.3v0.7h-12.9v-0.7h6v-2h0.8v2H1479.6z M1478.5,3014c-2-0.3-4.5-1.3-5.3-3c-0.8,1.7-3.3,2.7-5.4,3l-0.3-0.7
			c2.2-0.3,5.2-1.6,5.2-3.6v-0.7h0.9v0.7c0,2,3,3.4,5.2,3.6L1478.5,3014z M1469.2,3022.2h9.1v0.7h-10v-3.1h8.7v-1.6h-8.7v-0.7h9.5v3
			h-8.7L1469.2,3022.2L1469.2,3022.2z"/>
		<path d="M1489.2,3017.1c-1.6-0.6-3-2-3.6-3.7c-0.6,1.8-2,3.3-3.6,4l-0.4-0.7c2-0.8,3.7-2.8,3.7-5.1v-1.9h0.8v1.9
			c0,2.1,1.7,4,3.6,4.7L1489.2,3017.1z M1493.4,3022v0.7h-9.3v-4.4h0.8v3.7H1493.4z M1492.2,3013.2h-3.4v-0.7h3.4v-3.5h0.8v10.7
			h-0.8V3013.2z"/>
		<path d="M1509,3017.8h-6v5.3h-0.8v-5.3h-6v-0.7h12.9L1509,3017.8z M1507.9,3015.2c-2-0.4-4.4-1.6-5.3-3.5
			c-0.8,1.9-3.3,3.1-5.3,3.5l-0.4-0.7c2.2-0.4,5.2-2,5.2-4.2v-0.9h0.9v0.9c0,2.2,3.1,3.8,5.2,4.2L1507.9,3015.2z"/>
		<path d="M1522.5,3008.9v8.2h-0.8v-3.8h-3.7v2.9h-6.2v-6.6h0.8v2.5h4.5v-2.5h0.8v3h3.7v-3.8L1522.5,3008.9z M1517.1,3012.9h-4.5
			v2.6h4.5V3012.9z M1513.4,3018h9.1v4.9h-9.1V3018z M1514.2,3022.2h7.4v-3.5h-7.4V3022.2z"/>
	</g>
	<g class="st5">
		<path d="M1410.2,3047.3c0-1.2,0.9-2,1.8-2s1.8,0.8,1.8,2s-0.9,2-1.8,2S1410.2,3048.5,1410.2,3047.3z"/>
		<path d="M1423,3046.8c-2.1,0-3.6-1.4-3.6-3.4s1.5-3.4,3.6-3.4s3.6,1.4,3.6,3.4C1426.6,3045.4,1425.1,3046.8,1423,3046.8z
			 M1423,3046.1c1.6,0,2.8-1.2,2.8-2.7s-1.2-2.7-2.8-2.7c-1.6,0-2.8,1.2-2.8,2.7C1420.2,3044.9,1421.4,3046.1,1423,3046.1z
			 M1422.2,3052h8.5v0.7h-9.4v-4.4h0.8L1422.2,3052L1422.2,3052z M1432.2,3043.4v0.7h-2.2v5.3h-0.8v-10.5h0.8v4.5H1432.2z"/>
		<path d="M1441.6,3047c-1.6-0.6-3-1.9-3.6-3.5c-0.6,1.8-2,3.2-3.7,3.9l-0.4-0.7c2-0.7,3.7-2.6,3.7-4.8v-1h-3.4v-0.7h7.6v0.7h-3.3v1
			c0,1.9,1.6,3.7,3.6,4.4L1441.6,3047z M1445.8,3052v0.7h-9.3v-4.4h0.8v3.6L1445.8,3052L1445.8,3052z M1444.5,3043v-4.1h0.8v10.5
			h-0.8v-5.7h-3.2v-0.7H1444.5z"/>
		<path d="M1448.6,3049.1c2.7,0,6.3,0,9.5-0.5l0.1,0.7c-3.3,0.6-6.8,0.6-9.4,0.6L1448.6,3049.1z M1456.8,3043.2
			c0,1.9-1.5,3.2-3.7,3.2s-3.7-1.3-3.7-3.2s1.5-3.2,3.7-3.2S1456.8,3041.3,1456.8,3043.2z M1450.2,3043.2c0,1.5,1.2,2.5,2.9,2.5
			c1.7,0,2.9-1.1,2.9-2.5c0-1.5-1.2-2.5-2.9-2.5C1451.4,3040.7,1450.2,3041.8,1450.2,3043.2z M1459.9,3038.9v14.2h-0.8v-14.2H1459.9
			z"/>
		<path d="M1471.2,3046.5c-1.6-0.7-3.1-2-3.7-3.8c-0.6,1.9-2,3.3-3.7,4l-0.4-0.7c2-0.8,3.7-2.8,3.7-5.2v-1.4h0.8v1.4
			c0,2.2,1.8,4.1,3.7,4.9L1471.2,3046.5z M1465.4,3048.3h9.4v4.8h-0.8v-4.1h-8.5L1465.4,3048.3L1465.4,3048.3z M1474.8,3038.9v8.6
			h-0.8v-8.6H1474.8z"/>
		<path d="M1489.9,3041.4h-8.4v-0.7h3.8v-1.9h0.8v1.9h3.8L1489.9,3041.4L1489.9,3041.4z M1485.7,3047.2c-2,0-3.4-0.9-3.4-2.5
			c0-1.5,1.3-2.5,3.4-2.5c2,0,3.3,0.9,3.3,2.5C1489.1,3046.3,1487.7,3047.2,1485.7,3047.2z M1485.7,3046.5c1.5,0,2.5-0.7,2.5-1.8
			s-1-1.8-2.5-1.8s-2.6,0.7-2.6,1.8S1484.2,3046.5,1485.7,3046.5z M1492.6,3050.7c0,1.5-1.7,2.4-4.5,2.4s-4.5-0.9-4.5-2.4
			s1.7-2.4,4.5-2.4C1490.8,3048.3,1492.6,3049.1,1492.6,3050.7z M1491.7,3050.7c0-1.1-1.4-1.7-3.7-1.7s-3.7,0.6-3.7,1.7
			c0,1.1,1.5,1.7,3.7,1.7S1491.7,3051.7,1491.7,3050.7z M1492.4,3042.3v2.3h2.2v0.7h-2.2v2.8h-0.8v-9.2h0.8v2.7h2.2v0.7H1492.4z"/>
		<path d="M1503.8,3046.5c-1.6-0.6-3-1.9-3.5-3.5c-0.6,1.8-2,3.2-3.6,3.9l-0.4-0.7c2-0.8,3.6-2.7,3.6-5v-1.6h0.8v1.6
			c0,2,1.7,3.9,3.6,4.6L1503.8,3046.5z M1507.2,3050.6c0,1.6-1.7,2.5-4.6,2.5s-4.6-0.9-4.6-2.5s1.7-2.5,4.6-2.5
			S1507.2,3049,1507.2,3050.6z M1506.4,3050.6c0-1.1-1.5-1.8-3.8-1.8s-3.7,0.7-3.7,1.8s1.5,1.8,3.7,1.8
			C1504.9,3052.4,1506.4,3051.7,1506.4,3050.6z M1509.4,3042.8v0.7h-2.2v4.1h-0.8v-8.8h0.8v3.9h2.2V3042.8z"/>
	</g>
	<g class="st5">
		<path d="M1410.2,3077.3c0-1.2,0.9-2,1.8-2s1.8,0.8,1.8,2s-0.9,2-1.8,2S1410.2,3078.5,1410.2,3077.3z"/>
		<path d="M1423,3076.8c-2.1,0-3.6-1.4-3.6-3.4s1.5-3.4,3.6-3.4s3.6,1.4,3.6,3.4C1426.6,3075.4,1425.1,3076.8,1423,3076.8z
			 M1423,3076.1c1.6,0,2.8-1.2,2.8-2.7s-1.2-2.7-2.8-2.7c-1.6,0-2.8,1.2-2.8,2.7C1420.2,3074.9,1421.4,3076.1,1423,3076.1z
			 M1422.2,3082h8.5v0.7h-9.4v-4.4h0.8L1422.2,3082L1422.2,3082z M1432.2,3073.4v0.7h-2.2v5.3h-0.8v-10.5h0.8v4.5H1432.2z"/>
		<path d="M1441.6,3077c-1.6-0.6-3-1.9-3.6-3.5c-0.6,1.8-2,3.2-3.7,3.9l-0.4-0.7c2-0.7,3.7-2.6,3.7-4.8v-1h-3.4v-0.7h7.6v0.7h-3.3v1
			c0,1.9,1.6,3.7,3.6,4.4L1441.6,3077z M1445.8,3082v0.7h-9.3v-4.4h0.8v3.6L1445.8,3082L1445.8,3082z M1444.5,3073v-4.1h0.8v10.5
			h-0.8v-5.7h-3.2v-0.7H1444.5z"/>
		<path d="M1461.3,3080.2v0.7h-12.9v-0.7h3.4v-4.8h0.8v4.8h2.7v-4.8h0.8v4.8H1461.3z M1458.8,3071.2h-8.9v-0.7h9.7v1.6
			c0,1.9,0,3.7-0.5,6.2l-0.8-0.1c0.5-2.4,0.5-4.2,0.5-6.1L1458.8,3071.2L1458.8,3071.2z"/>
		<path d="M1472.4,3076.6v2h2v4.5h-0.8v-3.7h-9v-0.7h2.2v-2h-3.6v-0.7h12.8v0.7h-3.6V3076.6z M1464.7,3071.9c0-1.7,1.9-2.7,4.9-2.7
			c3.1,0,4.9,1,4.9,2.7s-1.9,2.7-4.9,2.7C1466.6,3074.6,1464.7,3073.6,1464.7,3071.9z M1465.6,3071.9c0,1.2,1.6,2,4,2
			c2.5,0,4.1-0.8,4.1-2s-1.6-2-4.1-2C1467.1,3070,1465.6,3070.7,1465.6,3071.9z M1471.6,3076.6h-4v2h4V3076.6z"/>
		<path d="M1488.6,3070c0,3.5-2.6,6.2-6.7,7.4l-0.4-0.7c3.6-1.1,5.9-3.2,6.1-6h-5.6v-0.7H1488.6z M1492.6,3080.4
			c0,1.7-1.8,2.6-4.6,2.6c-2.8,0-4.5-1-4.5-2.6c0-1.7,1.8-2.7,4.5-2.7C1490.8,3077.7,1492.6,3078.7,1492.6,3080.4z M1491.7,3080.4
			c0-1.2-1.5-2-3.7-2s-3.7,0.8-3.7,2s1.5,2,3.7,2C1490.3,3082.4,1491.7,3081.6,1491.7,3080.4z M1494.6,3072.8v0.7h-2.2v4h-0.8v-8.7
			h0.8v3.9h2.2V3072.8z"/>
		<path d="M1501,3079.4c1.4-0.1,2.9-0.2,4.2-0.4l0.1,0.7c-3.1,0.5-6.5,0.6-9,0.6l-0.2-0.7c1.2,0,2.6,0,4.1-0.1v-1.8
			c-1.7-0.1-2.8-1.1-2.8-2.6c0-1.6,1.3-2.6,3.3-2.6s3.3,1,3.3,2.6c0,1.5-1.1,2.4-2.9,2.6L1501,3079.4L1501,3079.4z M1504.8,3071.4
			h-8.6v-0.7h3.9v-1.8h0.8v1.8h3.9L1504.8,3071.4L1504.8,3071.4z M1500.5,3077c1.5,0,2.5-0.8,2.5-1.9c0-1.1-1-1.9-2.5-1.9
			s-2.5,0.8-2.5,1.9C1498.1,3076.2,1499.1,3077,1500.5,3077z M1509.4,3075.8h-2.4v7.3h-0.8v-14.2h0.8v6.2h2.4V3075.8z"/>
	</g>
	<g class="st5">
		<path d="M1410.2,3107.3c0-1.2,0.9-2,1.8-2s1.8,0.8,1.8,2s-0.9,2-1.8,2S1410.2,3108.5,1410.2,3107.3z"/>
		<path d="M1425.1,3100.8c0,3.4-1.3,6.9-5.4,9.2l-0.5-0.6c3.6-1.9,4.9-4.9,5.1-7.8h-4.7v-0.7L1425.1,3100.8L1425.1,3100.8z
			 M1431,3098.9v14.2h-0.8v-7.6h-2.4v6.8h-0.8v-13.1h0.8v5.5h2.4v-5.9h0.8V3098.9z"/>
		<path d="M1437.8,3106.8c-2.1,0-3.6-1.4-3.6-3.5c0-2,1.5-3.4,3.6-3.4s3.6,1.4,3.6,3.4C1441.4,3105.4,1439.8,3106.8,1437.8,3106.8z
			 M1437.8,3106.1c1.6,0,2.8-1.2,2.8-2.7s-1.2-2.7-2.8-2.7c-1.6,0-2.8,1.2-2.8,2.7C1435,3104.9,1436.2,3106.1,1437.8,3106.1z
			 M1445.8,3112v0.7h-9.4v-4.5h0.8v3.7h8.6V3112z M1445.3,3109.4h-0.8v-10.5h0.8V3109.4z"/>
		<path d="M1459.3,3100c0,3.6-2.7,6.3-6.7,7.7l-0.4-0.7c3.4-1.2,5.9-3.4,6.1-6.3h-5.4v-0.7H1459.3z M1464,3112v0.7h-9.2v-4.4h0.8
			v3.6L1464,3112L1464,3112z M1462.8,3103.5v-4.5h0.8v10.6h-0.8v-5.3h-3.5v-0.7h3.5V3103.5z"/>
		<path d="M1473.9,3100c0,3.5-2.6,6.2-6.7,7.4l-0.4-0.7c3.6-1.1,5.9-3.2,6.1-6h-5.6v-0.7H1473.9z M1477.9,3110.4
			c0,1.7-1.8,2.6-4.6,2.6c-2.8,0-4.5-1-4.5-2.6c0-1.7,1.8-2.7,4.5-2.7C1476.1,3107.7,1477.9,3108.7,1477.9,3110.4z M1477,3110.4
			c0-1.2-1.5-2-3.7-2s-3.7,0.8-3.7,2s1.5,2,3.7,2C1475.6,3112.4,1477,3111.6,1477,3110.4z M1479.9,3102.8v0.7h-2.2v4h-0.8v-8.7h0.8
			v3.9h2.2V3102.8z"/>
		<path d="M1497.9,3105.8v0.7H1485v-0.7H1497.9z M1485.8,3104c2.2-0.3,5.1-1.6,5.1-3.5v-0.2h-4.8v-0.7h10.5v0.7h-4.8v0.2
			c0,1.9,2.9,3.2,5.1,3.5l-0.3,0.7c-2.1-0.3-4.5-1.4-5.3-3c-0.8,1.7-3.2,2.7-5.3,3L1485.8,3104z M1496.3,3110.5
			c0,1.6-1.8,2.5-4.8,2.5s-4.9-0.9-4.9-2.5s1.8-2.5,4.9-2.5C1494.5,3108,1496.3,3108.9,1496.3,3110.5z M1495.4,3110.5
			c0-1.2-1.6-1.8-4-1.8s-4,0.7-4,1.8c0,1.2,1.6,1.8,4,1.8C1493.9,3112.4,1495.4,3111.7,1495.4,3110.5z"/>
		<path d="M1507.9,3107.2c-1.6-0.6-3.1-1.8-3.7-3.5c-0.6,1.8-2,3.1-3.7,3.8l-0.4-0.7c2-0.7,3.7-2.6,3.7-4.8v-1.2h-3.5v-0.7h7.8v0.7
			h-3.5v1.2c0,2.1,1.8,3.8,3.7,4.5L1507.9,3107.2z M1511.8,3112v0.7h-9.4v-4.4h0.8v3.6L1511.8,3112L1511.8,3112z M1511.3,3109.4
			h-0.8v-10.5h0.8V3109.4z"/>
	</g>
	<g class="st5">
		<path class="st2" d="M1279.8,3101.1c0,2.9,1.5,5.8,4,7l-1.1,1.5c-1.7-0.9-3-2.7-3.7-4.8c-0.7,2.2-2.1,4.1-3.9,5.1l-1.1-1.5
			c2.5-1.2,4.1-4.3,4.1-7.3v-2.7h1.9v2.7H1279.8z M1289.2,3105.1h-2.5v8.3h-1.9v-16.3h1.9v6.4h2.5V3105.1z"/>
		<path class="st2" d="M1300.9,3105.6c-2.4,0.4-4.6,0.5-7.7,0.5h-1.3v-4.9h5.5v-1.7h-5.5v-1.5h7.4v4.7h-5.5v1.9c2.8,0,4.8-0.1,7-0.5
			L1300.9,3105.6z M1293.5,3107.6h10.4v5.6h-10.4V3107.6z M1295.3,3111.7h6.8v-2.7h-6.8V3111.7z M1306.2,3102.7h-2.3v4.1h-1.9v-9.7
			h1.9v4h2.3V3102.7z"/>
	</g>
	<g id="그룹_5828" transform="translate(727.381 -241.165)">
		<g id="그룹_5717" transform="translate(531.625 3250.136)">
			<path id="패스_4991" class="st4" d="M20.3,34.7v-7.1 M0,56.7V0h32.7C34,0,35,1.1,35,2.3v23.2 M2.3,27.8h30.4
				c1.3,0,2.3,1.1,2.3,2.4c0,1.2-1,2.2-2.3,2.3H22.5c-1.3,0-2.3,1.1-2.3,2.4c0,1.2,1,2.2,2.3,2.3h15.8 M56.4,37H62V9.3H37.2 M0,68.7
				V73 M11.3,40.5v2.3 M9,45.1H6.8 M11.3,47.5v2.3 M13.5,45.1h2.3"/>
		</g>
		<g id="그룹_5718" transform="translate(527.619 3271.118)">
			<path id="패스_4992" class="st3" d="M64.3,42.7v10 M55.3,18.1v6.2l11.2,3.3c1.9,0.5,3.3,2.1,3.5,4v21 M45.3,23.3v4h1.6L50,25
				h1.1l2.6,2.3h1.6v-4 M54.9,36.1h6.9 M50.5,30.6v17.6 M49.3,20.5c0.4,0.1,0.7,0.2,1.1,0.1c0.3,0,0.7-0.1,1-0.1
				c1.6-0.5,3.1-1.4,4.3-2.6s2-2.8,2.3-4.5l0.1-0.4c0.1-0.5,0.2-1.1,0.2-1.6V8.2V7.6c-0.1-4.3-3.7-7.7-7.9-7.6
				c-4.3-0.1-7.9,3.3-7.9,7.6v3.7c0,0.5,0.1,1.1,0.2,1.6l0.1,0.4c0.3,1.7,1.1,3.2,2.3,4.5l0.4,0.4v2v4L35,27c-0.4,0.1-0.7,0.3-1,0.5
				l-11,9.7H5.7v7.7H23c2.2,0.1,4.4-0.7,6-2.2l6.4-6.6h0.2v16.5 M5.7,43.8H2.3C1.4,43,0.9,42.5,0,41.6v-4.4h6.9 M50.5,50.4v2.2"/>
		</g>
	</g>
	<g id="그룹_5852" transform="translate(915 3117) rotate(180)">
		<path id="패스_4994" class="st1" d="M0,0v112.3"/>
	</g>
	<g id="그룹_5853" transform="translate(1377 3117) rotate(180)">
		<path id="패스_4994-2" class="st1" d="M0,0v112.3"/>
	</g>
</g>
</svg>
