<?xml version="1.0" encoding="utf-8"?>
<!-- Generator: Adobe Illustrator 25.1.0, SVG Export Plug-In . SVG Version: 6.00 Build 0)  -->
<svg version="1.1" id="레이어_1" xmlns="http://www.w3.org/2000/svg" xmlns:xlink="http://www.w3.org/1999/xlink" x="0px"
	 y="0px" viewBox="0 0 208 332.7" style="enable-background:new 0 0 208 332.7;" xml:space="preserve">
<style type="text/css">
	.st0{enable-background:new    ;}
	.st1{fill:#A3A3A3;}
	.st2{fill:#DF1C2F;}
	.st3{fill:#E2E2E2;}
	.st4{fill:#42454A;}
	.st5{fill:#FFFFFF;}
	.st6{fill:#929397;}
</style>
<g id="그룹_5025" transform="translate(-1403 -2156.799)">
	<g class="st0">
		<path class="st1" d="M1414.3,2300.4c4.5,0,5.7,3.5,5.7,8.1c0,4.7-1.2,8.2-5.7,8.2c-4.5,0-5.7-3.5-5.7-8.2
			C1408.6,2303.9,1409.8,2300.4,1414.3,2300.4z M1414.3,2302.7c-2.9,0-3.3,2.8-3.3,5.8c0,3.1,0.3,5.9,3.3,5.9c2.9,0,3.3-2.8,3.3-5.9
			C1417.5,2305.5,1417.2,2302.7,1414.3,2302.7z"/>
		<path class="st1" d="M1424,2316.8c-0.9,0-1.6-0.7-1.6-1.6s0.7-1.6,1.6-1.6c0.9,0,1.6,0.7,1.6,1.6S1424.9,2316.8,1424,2316.8z"/>
		<path class="st1" d="M1438.3,2300.6v2.2h-7.4v4.4c0.6-0.8,1.9-1.5,3.3-1.5c3.9,0,5.1,2.9,5.1,5.3c0,3.2-1.8,5.6-5.5,5.6
			c-3.3,0-5.2-1.8-5.6-4.3h2.4c0.3,1.4,1.5,2.2,3.2,2.2c2.2,0,3.1-1.5,3.1-3.5c0-2.1-1-3.3-3.1-3.3c-1.5,0-2.5,0.8-2.9,2h-2.4v-9.3
			H1438.3z"/>
		<path class="st1" d="M1452.4,2300.6v2.2h-7.4v4.4c0.6-0.8,1.9-1.5,3.3-1.5c3.9,0,5.1,2.9,5.1,5.3c0,3.2-1.8,5.6-5.5,5.6
			c-3.3,0-5.2-1.8-5.6-4.3h2.4c0.3,1.4,1.5,2.2,3.2,2.2c2.2,0,3.1-1.5,3.1-3.5c0-2.1-1-3.3-3.1-3.3c-1.5,0-2.5,0.8-2.9,2h-2.4v-9.3
			H1452.4z"/>
	</g>
	<g class="st0">
		<path class="st1" d="M1490.8,2331.4c4.5,0,5.7,3.5,5.7,8.1c0,4.7-1.2,8.2-5.7,8.2s-5.7-3.5-5.7-8.2
			C1485.1,2334.9,1486.3,2331.4,1490.8,2331.4z M1490.8,2333.7c-2.9,0-3.3,2.8-3.3,5.8c0,3.1,0.3,5.9,3.3,5.9s3.3-2.8,3.3-5.9
			C1494.1,2336.5,1493.7,2333.7,1490.8,2333.7z"/>
		<path class="st1" d="M1500.5,2347.8c-0.9,0-1.6-0.7-1.6-1.6s0.7-1.6,1.6-1.6c0.9,0,1.6,0.7,1.6,1.6S1501.4,2347.8,1500.5,2347.8z"
			/>
		<path class="st1" d="M1509.7,2331.3c3.2,0,4.9,1.8,4.9,4.2c0,1.9-1.2,3.2-2.5,3.6v0.1c1.7,0.5,2.8,1.9,2.8,4.1
			c0,2.6-1.8,4.5-5.1,4.5c-3,0-5.4-1.6-5.5-4.7h2.4c0.1,1.5,1.2,2.6,3.1,2.6c1.9,0,2.8-1.1,2.8-2.6c0-2.1-1.4-2.8-4-2.8h-0.6v-2.1
			h0.6c2.3,0,3.7-0.7,3.7-2.4c0-1.4-0.9-2.3-2.6-2.3c-1.8,0-2.6,1.1-2.7,2.2h-2.4C1504.6,2332.8,1506.8,2331.3,1509.7,2331.3z"/>
		<path class="st1" d="M1520.7,2343.3c0.3,1.4,1.2,2.2,2.9,2.2c2,0,3-1.3,3-5.4c-0.7,1-2.1,1.6-3.6,1.6c-2.8,0-5.1-1.7-5.1-5.1
			c0-3.2,2-5.3,5.3-5.3c4.1,0,5.5,2.8,5.5,8.1c0,5.4-1.1,8.3-5.3,8.3c-3.3,0-4.9-2-5.1-4.3H1520.7z M1526.3,2336.6
			c0-2-1.2-3.2-3-3.2c-1.9,0-3,1.3-3,3.1c0,1.7,0.9,3.1,3.1,3.1C1525.3,2339.6,1526.3,2338.4,1526.3,2336.6z"/>
	</g>
	<g class="st0">
		<path class="st2" d="M1566.6,2368.3c4.5,0,5.9,3.5,5.9,8.1c0,4.7-1.4,8.2-5.9,8.2c-4.5,0-5.9-3.5-5.9-8.2
			C1560.6,2371.8,1562,2368.3,1566.6,2368.3z M1566.6,2371.2c-2.6,0-2.9,2.5-2.9,5.3c0,2.9,0.3,5.3,2.9,5.3c2.6,0,2.9-2.5,2.9-5.3
			C1569.5,2373.7,1569.2,2371.2,1566.6,2371.2z"/>
		<path class="st2" d="M1576.5,2384.8c-1.1,0-1.9-0.8-1.9-1.8c0-1,0.8-1.8,1.9-1.8c1.1,0,1.9,0.8,1.9,1.8
			C1578.4,2384.1,1577.6,2384.8,1576.5,2384.8z"/>
		<path class="st2" d="M1580.4,2382.2c3.6-3.1,7.4-5.9,7.4-8.9c0-1.4-0.6-2.4-2.2-2.4c-1.5,0-2.3,1.1-2.3,2.8h-3
			c0.1-3.7,2.5-5.4,5.3-5.4c3.5,0,5.2,2,5.2,4.8c0,3.7-3.6,6.6-6.1,8.8h6.5v2.6h-10.9V2382.2z"/>
		<path class="st2" d="M1600.7,2381.6h-7.7v-2.4l7.2-10.3h3.6v10h1.9v2.7h-1.9v3.1h-3.1V2381.6z M1600.9,2378.9v-6.7l-4.5,6.7
			H1600.9z"/>
	</g>
	<g class="st0">
		<path class="st2" d="M1496.9,2177.3v2.2h-16.7v-2.2h7v-3.8h-5.1v-9.1h12.8v2.1h-10.2v4.8h10.3v2.1h-5.3v3.8H1496.9z"/>
		<path class="st2" d="M1515.3,2175.3h-7.1v6.3h-2.6v-6.3h-6.9v-2.1h16.6V2175.3z M1513.7,2171.8c-3.2-0.5-5.5-2-6.7-4
			c-1.2,2-3.5,3.5-6.7,4l-1-2.1c4.2-0.6,6.3-3,6.3-5.1v-0.9h2.8v0.9c0,2.1,2.1,4.5,6.3,5.1L1513.7,2171.8z"/>
		<path class="st2" d="M1529.6,2172.3v1.3h2.1v4.7h-10.1v1h10.6v2H1519v-4.8h10.1v-1h-10.1v-1.9h2.3v-1.3h-4.2v-2.1h16.7v2.1H1529.6
			z M1518.7,2166.4c0-2,2.5-3.1,6.7-3.1c4.2,0,6.7,1.1,6.7,3.1c0,2-2.5,3.1-6.7,3.1C1521.2,2169.5,1518.7,2168.4,1518.7,2166.4z
			 M1521.5,2166.4c0,0.9,1.3,1.2,3.9,1.2c2.7,0,3.9-0.4,3.9-1.2c0-0.8-1.3-1.2-3.9-1.2C1522.7,2165.2,1521.5,2165.6,1521.5,2166.4z
			 M1527,2172.3h-3.1v1.3h3.1V2172.3z"/>
	</g>
	<path id="패스_2707" class="st3" d="M1403,2489.5h56v-153.3h-56V2489.5z"/>
	<path id="패스_2708" class="st3" d="M1479,2489.5h56v-127.1h-56V2489.5z"/>
	<path id="패스_2709" class="st2" d="M1555,2489.5h56V2396h-56V2489.5z"/>
	<g class="st0">
		<path class="st4" d="M1417.3,2474.8c2.2-2,4.6-3.7,4.6-5.5c0-1-0.4-1.7-1.5-1.7c-1,0-1.6,0.7-1.6,1.8h-1.4
			c0.1-2.1,1.4-3.1,3.1-3.1c1.9,0,3,1.2,3,2.9c0,2.3-2.3,4.1-3.9,5.4h4.1v1.2h-6.3V2474.8z"/>
		<path class="st4" d="M1428.3,2466.4c2.7,0,3.4,2.1,3.4,4.8c0,2.8-0.7,4.8-3.4,4.8s-3.4-2.1-3.4-4.8
			C1424.9,2468.4,1425.7,2466.4,1428.3,2466.4z M1428.3,2467.7c-1.7,0-1.9,1.7-1.9,3.4c0,1.9,0.2,3.5,1.9,3.5s1.9-1.6,1.9-3.5
			C1430.2,2469.4,1430.1,2467.7,1428.3,2467.7z"/>
		<path class="st4" d="M1434.3,2467.9h-1.2v-1.4h2.7v9.5h-1.5V2467.9z"/>
		<path class="st4" d="M1438.1,2468.9c0-1.4,1-2.6,3.1-2.6c2.1,0,3.1,1.2,3.1,2.6c0,1-0.6,1.8-1.4,2.1c1,0.4,1.6,1.2,1.6,2.3
			c0,1.7-1.4,2.8-3.4,2.8c-1.9,0-3.4-1.1-3.4-2.8c0-1.1,0.6-2,1.6-2.3C1438.6,2470.6,1438.1,2470,1438.1,2468.9z M1439.3,2473.3
			c0,1,0.7,1.7,1.9,1.7c1.2,0,1.9-0.7,1.9-1.7c0-1.1-0.8-1.6-1.9-1.6C1440.1,2471.7,1439.3,2472.2,1439.3,2473.3z M1442.9,2469.1
			c0-1-0.7-1.5-1.7-1.5c-1,0-1.7,0.5-1.7,1.5c0,0.9,0.7,1.5,1.7,1.5C1442.2,2470.6,1442.9,2470,1442.9,2469.1z"/>
	</g>
	<g class="st0">
		<path class="st4" d="M1493.3,2474.8c2.2-2,4.6-3.7,4.6-5.5c0-1-0.4-1.7-1.5-1.7c-1,0-1.6,0.7-1.6,1.8h-1.4
			c0.1-2.1,1.4-3.1,3.1-3.1c1.9,0,3,1.2,3,2.9c0,2.3-2.3,4.1-3.9,5.4h4.1v1.2h-6.3V2474.8z"/>
		<path class="st4" d="M1504.3,2466.4c2.7,0,3.4,2.1,3.4,4.8c0,2.8-0.7,4.8-3.4,4.8s-3.4-2.1-3.4-4.8
			C1501,2468.4,1501.7,2466.4,1504.3,2466.4z M1504.3,2467.7c-1.7,0-1.9,1.7-1.9,3.4c0,1.9,0.2,3.5,1.9,3.5s1.9-1.6,1.9-3.5
			C1506.3,2469.4,1506.1,2467.7,1504.3,2467.7z"/>
		<path class="st4" d="M1510.3,2467.9h-1.2v-1.4h2.7v9.5h-1.5V2467.9z"/>
		<path class="st4" d="M1515.7,2473.4c0.2,0.8,0.7,1.3,1.7,1.3c1.2,0,1.8-0.8,1.8-3.2c-0.4,0.6-1.2,0.9-2.1,0.9c-1.7,0-3-1-3-3
			c0-1.9,1.2-3.1,3.1-3.1c2.4,0,3.3,1.7,3.3,4.8c0,3.2-0.7,4.9-3.2,4.9c-2,0-2.9-1.2-3-2.6H1515.7z M1519,2469.4
			c0-1.2-0.7-1.9-1.8-1.9c-1.1,0-1.8,0.8-1.8,1.9c0,1,0.5,1.8,1.9,1.8C1518.4,2471.2,1519,2470.5,1519,2469.4z"/>
	</g>
	<g class="st0">
		<path class="st5" d="M1567.7,2474.5c2.1-1.8,4.4-3.5,4.4-5.2c0-0.8-0.4-1.4-1.3-1.4c-0.9,0-1.4,0.6-1.4,1.6h-1.8
			c0.1-2.2,1.5-3.2,3.2-3.2c2,0,3.1,1.2,3.1,2.9c0,2.2-2.1,3.9-3.6,5.2h3.8v1.5h-6.4V2474.5z"/>
		<path class="st5" d="M1578.8,2466.3c2.7,0,3.5,2.1,3.5,4.8c0,2.8-0.8,4.8-3.5,4.8c-2.7,0-3.5-2.1-3.5-4.8
			C1575.3,2468.4,1576.1,2466.3,1578.8,2466.3z M1578.8,2468c-1.5,0-1.7,1.5-1.7,3.1c0,1.7,0.2,3.1,1.7,3.1s1.7-1.5,1.7-3.1
			C1580.5,2469.5,1580.3,2468,1578.8,2468z"/>
		<path class="st5" d="M1583.6,2474.5c2.1-1.8,4.4-3.5,4.4-5.2c0-0.8-0.4-1.4-1.3-1.4c-0.9,0-1.4,0.6-1.4,1.6h-1.8
			c0.1-2.2,1.5-3.2,3.2-3.2c2,0,3.1,1.2,3.1,2.9c0,2.2-2.1,3.9-3.6,5.2h3.8v1.5h-6.4V2474.5z"/>
		<path class="st5" d="M1594.7,2466.3c2.7,0,3.5,2.1,3.5,4.8c0,2.8-0.8,4.8-3.5,4.8c-2.7,0-3.5-2.1-3.5-4.8
			C1591.2,2468.4,1592,2466.3,1594.7,2466.3z M1594.7,2468c-1.5,0-1.7,1.5-1.7,3.1c0,1.7,0.2,3.1,1.7,3.1s1.7-1.5,1.7-3.1
			C1596.4,2469.5,1596.2,2468,1594.7,2468z"/>
	</g>
	<g class="st0">
		<path class="st6" d="M1490.7,2203.5c-1.7,0.3-3.2,0.4-5.8,0.4h-1v-5.8h5.6v0.9h-4.4v3.9c2.5,0,3.9-0.1,5.5-0.4L1490.7,2203.5z
			 M1486.4,2208.4h7.2v0.9h-8.4v-4.1h1.1V2208.4z M1494.9,2200.8v1h-1.9v4.4h-1.1v-9.1h1.1v3.7H1494.9z"/>
		<path class="st6" d="M1504.6,2204.3c-1.2,0.2-2.4,0.4-3.6,0.4v4.5h-1.1v-4.5c-1.2,0.1-2.4,0.1-3.5,0.1l-0.2-1c2.3,0,5.5,0,8.3-0.4
			L1504.6,2204.3z M1497.1,2200.3c0-1.5,1.3-2.6,3.2-2.6c1.9,0,3.2,1,3.2,2.6c0,1.5-1.3,2.6-3.2,2.6
			C1498.5,2202.8,1497.1,2201.8,1497.1,2200.3z M1498.2,2200.3c0,1,0.9,1.6,2.1,1.6c1.2,0,2.1-0.7,2.1-1.6s-0.9-1.6-2.1-1.6
			C1499.1,2198.6,1498.2,2199.3,1498.2,2200.3z M1506.5,2197.1v12.6h-1.1v-12.6H1506.5z"/>
		<path class="st6" d="M1512.5,2202.2c0-0.6,0.4-1,0.9-1c0.5,0,0.9,0.4,0.9,1c0,0.6-0.4,1-0.9,1
			C1512.9,2203.1,1512.5,2202.7,1512.5,2202.2z M1512.5,2207.8c0-0.6,0.4-1,0.9-1c0.5,0,0.9,0.4,0.9,1s-0.4,1-0.9,1
			C1512.9,2208.8,1512.5,2208.4,1512.5,2207.8z"/>
		<path class="st6" d="M1519.1,2201.4c0-2.1,0.9-3.2,2.3-3.2c1.4,0,2.3,1.2,2.3,3.2c0,2.1-0.9,3.3-2.3,3.3
			C1520,2204.6,1519.1,2203.4,1519.1,2201.4z M1522.8,2201.4c0-1.6-0.6-2.4-1.4-2.4c-0.8,0-1.4,0.8-1.4,2.4s0.6,2.5,1.4,2.5
			C1522.2,2203.8,1522.8,2203,1522.8,2201.4z M1527.4,2198.1h0.9l-5.7,10.6h-0.9L1527.4,2198.1z M1526.2,2205.5
			c0-2.1,0.9-3.2,2.3-3.2c1.4,0,2.3,1.2,2.3,3.2c0,2.1-0.9,3.2-2.3,3.2C1527.1,2208.8,1526.2,2207.6,1526.2,2205.5z M1529.9,2205.5
			c0-1.6-0.6-2.4-1.4-2.4c-0.8,0-1.4,0.8-1.4,2.4c0,1.6,0.6,2.5,1.4,2.5C1529.3,2208,1529.9,2207.2,1529.9,2205.5z"/>
	</g>
</g>
</svg>
