<?xml version="1.0" encoding="utf-8"?>
<!-- Generator: Adobe Illustrator 25.1.0, SVG Export Plug-In . SVG Version: 6.00 Build 0)  -->
<svg version="1.1" id="레이어_1" xmlns="http://www.w3.org/2000/svg" xmlns:xlink="http://www.w3.org/1999/xlink" x="0px"
	 y="0px" viewBox="0 0 208 333.1" style="enable-background:new 0 0 208 333.1;" xml:space="preserve">
<style type="text/css">
	.st0{enable-background:new    ;}
	.st1{fill:#DF1C2F;}
	.st2{fill:#929397;}
	.st3{fill:#A3A3A3;}
	.st4{fill:#E2E2E2;}
	.st5{fill:#42454A;}
	.st6{fill:#FFFFFF;}
</style>
<g id="그룹_5023" transform="translate(-790 -2156.799)">
	<g class="st0">
		<path class="st1" d="M825.4,2173.9c-2-0.7-3.4-2-4.2-3.6c-0.8,1.8-2.3,3.3-4.4,4l-1.4-2.1c3.1-1,4.4-3.5,4.4-6v-2h2.7v2
			c0,2.3,1.2,4.7,4.2,5.6L825.4,2173.9z M821,2179.1h9.9v2.1h-12.5v-5.9h2.6V2179.1z M832.7,2168.4v2.2h-2.4v6h-2.6v-13.5h2.6v5.3
			H832.7z"/>
		<path class="st1" d="M849.5,2163.1v9.9h-2.6v-3.7H844c-0.5,2-2.4,3.4-4.8,3.4c-2.8,0-4.8-1.8-4.8-4.4s2.1-4.4,4.8-4.4
			c2.3,0,4.2,1.3,4.7,3.3h2.9v-4.1H849.5z M841.5,2168.3c0-1.4-1-2.2-2.3-2.2c-1.3,0-2.3,0.8-2.3,2.2c0,1.4,1,2.2,2.3,2.2
			C840.6,2170.5,841.5,2169.6,841.5,2168.3z M846.9,2173.8h2.6v7.5h-12.2v-7.5h2.6v1.8h7V2173.8z M846.9,2177.6h-7v1.7h7V2177.6z"/>
		<path class="st1" d="M868.5,2163.1v18.4H866v-9.2h-1.5v8.4H862v-5.3l-1.5,2c-1.6-0.9-2.7-2.4-3.4-4.2c-0.6,2.1-1.7,3.9-3.4,4.9
			l-1.6-2c2.7-1.6,3.6-4.9,3.6-8.4v-0.5h-3v-2.1h8.3v2.1h-2.8v0.5c0,3.2,0.9,6.3,3.6,7.7v-11.9h2.5v6.8h1.5v-7.1H868.5z"/>
		<path class="st1" d="M876.6,2165.9h3.1v2.1h-8.8v-2.1h3.1v-2.3h2.6V2165.9z M879.4,2173.2c0,2.6-1.7,4.4-4,4.4c-2.4,0-4-1.8-4-4.4
			c0-2.6,1.7-4.4,4-4.4C877.7,2168.8,879.4,2170.6,879.4,2173.2z M877.1,2173.2c0-1.4-0.7-2.2-1.7-2.2c-1,0-1.7,0.8-1.7,2.2
			c0,1.4,0.7,2.2,1.7,2.2C876.3,2175.4,877.1,2174.6,877.1,2173.2z M886.7,2163.1v18.4h-2.5v-8.8h-1.4v8h-2.5v-17.3h2.5v7.2h1.4
			v-7.5H886.7z"/>
		<path class="st1" d="M903.2,2172h-8.8v-8.1h2.6v2.2h3.6v-2.2h2.6V2172z M898.8,2179.3h10v2h-12.7v-5.1h9.5v-1.1h-9.6v-2h12.2v5
			h-9.5V2179.3z M900.6,2168.1H897v1.8h3.6V2168.1z M910.8,2166.7v2.1h-2.4v3.7h-2.6v-9.4h2.6v3.6H910.8z"/>
		<path class="st1" d="M920.1,2173.3c-1.5-0.6-2.6-1.7-3.2-3c-0.7,1.6-1.8,2.9-3.5,3.6l-1.4-2c2.6-1.1,3.6-3.4,3.6-5.5v-2.1h2.5v2.1
			c0,2,1,4,3.4,4.9L920.1,2173.3z M928,2178.1c0,2.2-2.5,3.5-6.3,3.5c-3.9,0-6.4-1.3-6.4-3.5c0-2.1,2.5-3.4,6.4-3.4
			C925.6,2174.6,928,2175.9,928,2178.1z M925.4,2178.1c0-1-1.3-1.5-3.7-1.5c-2.4,0-3.7,0.5-3.7,1.5c0,1,1.3,1.5,3.7,1.5
			C924.1,2179.5,925.4,2179.1,925.4,2178.1z M924,2173.8h-2.5v-10.3h2.5v4.1h1.4v-4.5h2.5v11.3h-2.5v-4.7H924V2173.8z"/>
		<path class="st1" d="M944.9,2164.5c0,5-3.1,8.6-8.4,10.3l-1.1-2.1c3.8-1.2,6.3-3.4,6.7-6.1h-5.7v-2.1H944.9z M951.1,2179.1v2.1
			h-12.5v-6h2.6v3.9H951.1z M948,2168.5v-5.4h2.6v13.5H948v-6h-3.2v-2.1H948z"/>
		<path class="st1" d="M970.3,2175.3h-7.1v6.3h-2.6v-6.3h-6.9v-2.1h16.6V2175.3z M968.7,2171.8c-3.2-0.5-5.5-2-6.7-4
			c-1.2,2-3.5,3.5-6.7,4l-1-2.1c4.2-0.6,6.3-3,6.3-5.1v-0.9h2.8v0.9c0,2.1,2.1,4.5,6.3,5.1L968.7,2171.8z"/>
	</g>
	<g class="st0">
		<path class="st2" d="M876.7,2203.5c-1.7,0.3-3.2,0.4-5.8,0.4h-1v-5.8h5.6v0.9h-4.4v3.9c2.5,0,3.9-0.1,5.5-0.4L876.7,2203.5z
			 M872.4,2208.4h7.2v0.9h-8.4v-4.1h1.1V2208.4z M881,2200.8v1h-1.9v4.4h-1.1v-9.1h1.1v3.7H881z"/>
		<path class="st2" d="M890.6,2204.3c-1.2,0.2-2.4,0.4-3.6,0.4v4.5h-1.1v-4.5c-1.2,0.1-2.4,0.1-3.5,0.1l-0.2-1c2.3,0,5.5,0,8.3-0.4
			L890.6,2204.3z M883.1,2200.3c0-1.5,1.3-2.6,3.2-2.6c1.9,0,3.2,1,3.2,2.6c0,1.5-1.3,2.6-3.2,2.6
			C884.5,2202.8,883.1,2201.8,883.1,2200.3z M884.2,2200.3c0,1,0.9,1.6,2.1,1.6c1.2,0,2.1-0.7,2.1-1.6s-0.9-1.6-2.1-1.6
			C885.1,2198.6,884.2,2199.3,884.2,2200.3z M892.5,2197.1v12.6h-1.1v-12.6H892.5z"/>
		<path class="st2" d="M898.5,2202.2c0-0.6,0.4-1,0.9-1c0.5,0,0.9,0.4,0.9,1c0,0.6-0.4,1-0.9,1
			C898.9,2203.1,898.5,2202.7,898.5,2202.2z M898.5,2207.8c0-0.6,0.4-1,0.9-1c0.5,0,0.9,0.4,0.9,1s-0.4,1-0.9,1
			C898.9,2208.8,898.5,2208.4,898.5,2207.8z"/>
		<path class="st2" d="M911.8,2198.1c0,3.2-2.3,5.7-5.8,6.9l-0.5-0.9c2.9-1,4.8-2.7,5.1-5h-4.5v-0.9H911.8z M915.9,2208.4v0.9h-8.3
			v-3.9h1.1v3H915.9z M914.5,2201v-3.9h1.2v9.3h-1.2v-4.5h-2.7v-0.9H914.5z"/>
	</g>
	<g class="st0">
		<path class="st3" d="M818,2266.2c3.2,0,4.9,1.8,4.9,4.2c0,1.9-1.2,3.2-2.5,3.6v0.1c1.7,0.5,2.8,1.9,2.8,4.1c0,2.6-1.8,4.5-5.1,4.5
			c-3,0-5.4-1.6-5.5-4.7h2.4c0.1,1.5,1.2,2.6,3.1,2.6c1.9,0,2.8-1.1,2.8-2.6c0-2.1-1.4-2.8-4-2.8h-0.6v-2.1h0.6
			c2.3,0,3.7-0.7,3.7-2.4c0-1.4-0.9-2.3-2.6-2.3c-1.8,0-2.6,1.1-2.7,2.2h-2.4C812.9,2267.7,815.1,2266.2,818,2266.2z"/>
	</g>
	<g class="st0">
		<path class="st3" d="M888.8,2312.6c3.8-3.3,7.8-6.2,7.8-9.4c0-1.7-0.7-2.8-2.6-2.8c-1.8,0-2.7,1.2-2.8,3h-2.4
			c0.1-3.5,2.3-5.2,5.2-5.2c3.3,0,5.1,2,5.1,4.8c0,3.9-4,6.9-6.5,9.2h7v2.1h-10.7V2312.6z"/>
	</g>
	<g class="st0">
		<path class="st1" d="M968.9,2336.6h-2.1v-2.8h5.3v16h-3.2V2336.6z"/>
	</g>
	<path id="패스_2693" class="st4" d="M790,2489.8h56v-187.7h-56V2489.8z"/>
	<path id="패스_2694" class="st4" d="M866,2489.8h56v-155.6h-56V2489.8z"/>
	<path id="패스_2695" class="st1" d="M942,2489.8h56v-120.5h-56V2489.8z"/>
	<g class="st0">
		<path class="st5" d="M804.3,2474.8c2.2-2,4.6-3.7,4.6-5.5c0-1-0.4-1.7-1.5-1.7c-1,0-1.6,0.7-1.6,1.8h-1.4c0.1-2.1,1.4-3.1,3.1-3.1
			c1.9,0,3,1.2,3,2.9c0,2.3-2.3,4.1-3.9,5.4h4.1v1.2h-6.3V2474.8z"/>
		<path class="st5" d="M815.3,2466.4c2.7,0,3.4,2.1,3.4,4.8c0,2.8-0.7,4.8-3.4,4.8s-3.4-2.1-3.4-4.8
			C811.9,2468.4,812.7,2466.4,815.3,2466.4z M815.3,2467.7c-1.7,0-1.9,1.7-1.9,3.4c0,1.9,0.2,3.5,1.9,3.5s1.9-1.6,1.9-3.5
			C817.2,2469.4,817.1,2467.7,815.3,2467.7z"/>
		<path class="st5" d="M821.3,2467.9h-1.2v-1.4h2.7v9.5h-1.5V2467.9z"/>
		<path class="st5" d="M825.1,2468.9c0-1.4,1-2.6,3.1-2.6c2.1,0,3.1,1.2,3.1,2.6c0,1-0.6,1.8-1.4,2.1c1,0.4,1.6,1.2,1.6,2.3
			c0,1.7-1.4,2.8-3.4,2.8c-1.9,0-3.4-1.1-3.4-2.8c0-1.1,0.6-2,1.6-2.3C825.6,2470.6,825.1,2470,825.1,2468.9z M826.3,2473.3
			c0,1,0.7,1.7,1.9,1.7c1.2,0,1.9-0.7,1.9-1.7c0-1.1-0.8-1.6-1.9-1.6C827.1,2471.7,826.3,2472.2,826.3,2473.3z M829.9,2469.1
			c0-1-0.7-1.5-1.7-1.5c-1,0-1.7,0.5-1.7,1.5c0,0.9,0.7,1.5,1.7,1.5C829.2,2470.6,829.9,2470,829.9,2469.1z"/>
	</g>
	<g class="st0">
		<path class="st5" d="M880.3,2474.8c2.2-2,4.6-3.7,4.6-5.5c0-1-0.4-1.7-1.5-1.7c-1,0-1.6,0.7-1.6,1.8h-1.4c0.1-2.1,1.4-3.1,3.1-3.1
			c1.9,0,3,1.2,3,2.9c0,2.3-2.3,4.1-3.9,5.4h4.1v1.2h-6.3V2474.8z"/>
		<path class="st5" d="M891.3,2466.4c2.7,0,3.4,2.1,3.4,4.8c0,2.8-0.7,4.8-3.4,4.8s-3.4-2.1-3.4-4.8
			C888,2468.4,888.7,2466.4,891.3,2466.4z M891.3,2467.7c-1.7,0-1.9,1.7-1.9,3.4c0,1.9,0.2,3.5,1.9,3.5s1.9-1.6,1.9-3.5
			C893.3,2469.4,893.1,2467.7,891.3,2467.7z"/>
		<path class="st5" d="M897.3,2467.9h-1.2v-1.4h2.7v9.5h-1.5V2467.9z"/>
		<path class="st5" d="M902.7,2473.4c0.2,0.8,0.7,1.3,1.7,1.3c1.2,0,1.8-0.8,1.8-3.2c-0.4,0.6-1.2,0.9-2.1,0.9c-1.7,0-3-1-3-3
			c0-1.9,1.2-3.1,3.1-3.1c2.4,0,3.3,1.7,3.3,4.8c0,3.2-0.7,4.9-3.2,4.9c-2,0-2.9-1.2-3-2.6H902.7z M906,2469.4
			c0-1.2-0.7-1.9-1.8-1.9c-1.1,0-1.8,0.8-1.8,1.9c0,1,0.5,1.8,1.9,1.8C905.4,2471.2,906,2470.5,906,2469.4z"/>
	</g>
	<g class="st0">
		<path class="st6" d="M954.7,2474.5c2.1-1.8,4.4-3.5,4.4-5.2c0-0.8-0.4-1.4-1.3-1.4c-0.9,0-1.4,0.6-1.4,1.6h-1.8
			c0.1-2.2,1.5-3.2,3.2-3.2c2,0,3.1,1.2,3.1,2.9c0,2.2-2.1,3.9-3.6,5.2h3.8v1.5h-6.4V2474.5z"/>
		<path class="st6" d="M965.8,2466.3c2.7,0,3.5,2.1,3.5,4.8c0,2.8-0.8,4.8-3.5,4.8c-2.7,0-3.5-2.1-3.5-4.8
			C962.3,2468.4,963.1,2466.3,965.8,2466.3z M965.8,2468c-1.5,0-1.7,1.5-1.7,3.1c0,1.7,0.2,3.1,1.7,3.1s1.7-1.5,1.7-3.1
			C967.5,2469.5,967.3,2468,965.8,2468z"/>
		<path class="st6" d="M970.6,2474.5c2.1-1.8,4.4-3.5,4.4-5.2c0-0.8-0.4-1.4-1.3-1.4c-0.9,0-1.4,0.6-1.4,1.6h-1.8
			c0.1-2.2,1.5-3.2,3.2-3.2c2,0,3.1,1.2,3.1,2.9c0,2.2-2.1,3.9-3.6,5.2h3.8v1.5h-6.4V2474.5z"/>
		<path class="st6" d="M981.7,2466.3c2.7,0,3.5,2.1,3.5,4.8c0,2.8-0.8,4.8-3.5,4.8c-2.7,0-3.5-2.1-3.5-4.8
			C978.2,2468.4,979,2466.3,981.7,2466.3z M981.7,2468c-1.5,0-1.7,1.5-1.7,3.1c0,1.7,0.2,3.1,1.7,3.1s1.7-1.5,1.7-3.1
			C983.4,2469.5,983.2,2468,981.7,2468z"/>
	</g>
</g>
</svg>
