<?xml version="1.0" encoding="utf-8"?>
<!-- Generator: Adobe Illustrator 25.1.0, SVG Export Plug-In . SVG Version: 6.00 Build 0)  -->
<svg version="1.1" id="레이어_1" xmlns="http://www.w3.org/2000/svg" xmlns:xlink="http://www.w3.org/1999/xlink" x="0px"
	 y="0px" viewBox="0 0 208 333" style="enable-background:new 0 0 208 333;" xml:space="preserve">
<style type="text/css">
	.st0{enable-background:new    ;}
	.st1{fill:#DF1C2F;}
	.st2{fill:#929397;}
	.st3{fill:#A3A3A3;}
	.st4{fill:#E2E2E2;}
	.st5{fill:#42454A;}
	.st6{fill:#FFFFFF;}
</style>
<g id="그룹_5024" transform="translate(-1096 -2156.799)">
	<g class="st0">
		<path class="st1" d="M1143.9,2173.9c-2-0.7-3.4-2-4.2-3.6c-0.8,1.8-2.3,3.3-4.4,4l-1.4-2.1c3.1-1,4.4-3.5,4.4-6v-2h2.7v2
			c0,2.3,1.2,4.7,4.2,5.6L1143.9,2173.9z M1139.5,2179.1h9.9v2.1h-12.5v-5.9h2.6V2179.1z M1151.1,2168.4v2.2h-2.4v6h-2.6v-13.5h2.6
			v5.3H1151.1z"/>
		<path class="st1" d="M1168,2163.1v9.9h-2.6v-3.7h-2.9c-0.5,2-2.4,3.4-4.8,3.4c-2.8,0-4.8-1.8-4.8-4.4s2.1-4.4,4.8-4.4
			c2.3,0,4.2,1.3,4.7,3.3h2.9v-4.1H1168z M1160,2168.3c0-1.4-1-2.2-2.3-2.2c-1.3,0-2.3,0.8-2.3,2.2c0,1.4,1,2.2,2.3,2.2
			C1159,2170.5,1160,2169.6,1160,2168.3z M1165.4,2173.8h2.6v7.5h-12.2v-7.5h2.6v1.8h7V2173.8z M1165.4,2177.6h-7v1.7h7V2177.6z"/>
		<path class="st1" d="M1186.9,2163.1v18.4h-2.5v-9.2h-1.5v8.4h-2.5v-5.3l-1.5,2c-1.6-0.9-2.7-2.4-3.4-4.2c-0.6,2.1-1.7,3.9-3.4,4.9
			l-1.6-2c2.7-1.6,3.6-4.9,3.6-8.4v-0.5h-3v-2.1h8.3v2.1h-2.8v0.5c0,3.2,0.9,6.3,3.6,7.7v-11.9h2.5v6.8h1.5v-7.1H1186.9z"/>
		<path class="st1" d="M1195.1,2165.9h3.1v2.1h-8.8v-2.1h3.1v-2.3h2.6V2165.9z M1197.9,2173.2c0,2.6-1.7,4.4-4,4.4
			c-2.4,0-4-1.8-4-4.4c0-2.6,1.7-4.4,4-4.4C1196.2,2168.8,1197.9,2170.6,1197.9,2173.2z M1195.5,2173.2c0-1.4-0.7-2.2-1.7-2.2
			c-1,0-1.7,0.8-1.7,2.2c0,1.4,0.7,2.2,1.7,2.2C1194.8,2175.4,1195.5,2174.6,1195.5,2173.2z M1205.2,2163.1v18.4h-2.5v-8.8h-1.4v8
			h-2.5v-17.3h2.5v7.2h1.4v-7.5H1205.2z"/>
		<path class="st1" d="M1220.3,2172.3v1.3h2.1v4.7h-10.1v1h10.6v2h-13.2v-4.8h10.1v-1h-10.1v-1.9h2.3v-1.3h-4.2v-2.1h16.7v2.1
			H1220.3z M1209.5,2166.4c0-2,2.5-3.1,6.7-3.1c4.2,0,6.7,1.1,6.7,3.1c0,2-2.5,3.1-6.7,3.1
			C1211.9,2169.5,1209.5,2168.4,1209.5,2166.4z M1212.2,2166.4c0,0.9,1.3,1.2,3.9,1.2c2.7,0,3.9-0.4,3.9-1.2c0-0.8-1.3-1.2-3.9-1.2
			C1213.5,2165.2,1212.2,2165.6,1212.2,2166.4z M1217.7,2172.3h-3.1v1.3h3.1V2172.3z"/>
		<path class="st1" d="M1240.9,2167.1h-10.1v-2.1h3.9v-2h2.6v2h3.6V2167.1z M1236,2175c-2.5,0-4.3-1.5-4.3-3.6
			c0-2.1,1.8-3.6,4.3-3.6c2.5,0,4.3,1.5,4.3,3.6C1240.3,2173.5,1238.5,2175,1236,2175z M1246.5,2179.1v2.1H1234v-5.2h2.6v3.1H1246.5
			z M1236,2173c1.1,0,1.8-0.6,1.8-1.6c0-1-0.8-1.6-1.8-1.6c-1.1,0-1.8,0.6-1.8,1.6C1234.1,2172.4,1234.9,2173,1236,2173z
			 M1243.5,2173.7h-2.4v-2.1h2.4v-1.8h-2.4v-2.1h2.4v-4.6h2.6v14h-2.6V2173.7z"/>
		<path class="st1" d="M1260.5,2174.3c-3.8,0.7-8.1,0.7-11.3,0.7l-0.3-2c1.3,0,2.8,0,4.4,0v-1c-2-0.3-3.2-1.2-3.2-2.6
			c0-1.7,1.8-2.6,4.5-2.6c2.7,0,4.5,1,4.5,2.6c0,1.3-1.2,2.3-3.2,2.5v1c1.5-0.1,3-0.2,4.4-0.4L1260.5,2174.3z M1259.8,2166.3h-10.5
			v-1.9h3.9v-1.5h2.6v1.5h3.9V2166.3z M1263.9,2178.6c0,1.9-2.3,2.9-6.3,2.9s-6.3-1-6.3-2.9s2.3-2.9,6.3-2.9
			S1263.9,2176.7,1263.9,2178.6z M1254.6,2170.3c1.3,0,2-0.3,2-0.9s-0.7-0.9-2-0.9c-1.3,0-2,0.3-2,0.9S1253.4,2170.3,1254.6,2170.3z
			 M1261.2,2178.6c0-0.7-1.1-1-3.6-1s-3.6,0.3-3.6,1s1.1,1,3.6,1C1260.1,2179.6,1261.2,2179.3,1261.2,2178.6z M1266.1,2168.3v2.2
			h-2.3v5h-2.6v-12.4h2.6v5.2H1266.1z"/>
	</g>
	<g class="st0">
		<path class="st2" d="M1183.7,2203.5c-1.7,0.3-3.2,0.4-5.8,0.4h-1v-5.8h5.6v0.9h-4.4v3.9c2.5,0,3.9-0.1,5.5-0.4L1183.7,2203.5z
			 M1179.4,2208.4h7.2v0.9h-8.4v-4.1h1.1V2208.4z M1187.9,2200.8v1h-1.9v4.4h-1.1v-9.1h1.1v3.7H1187.9z"/>
		<path class="st2" d="M1197.6,2204.3c-1.2,0.2-2.4,0.4-3.6,0.4v4.5h-1.1v-4.5c-1.2,0.1-2.4,0.1-3.5,0.1l-0.2-1c2.3,0,5.5,0,8.3-0.4
			L1197.6,2204.3z M1190.1,2200.3c0-1.5,1.3-2.6,3.2-2.6c1.9,0,3.2,1,3.2,2.6c0,1.5-1.3,2.6-3.2,2.6
			C1191.5,2202.8,1190.1,2201.8,1190.1,2200.3z M1191.2,2200.3c0,1,0.9,1.6,2.1,1.6c1.2,0,2.1-0.7,2.1-1.6s-0.9-1.6-2.1-1.6
			C1192.1,2198.6,1191.2,2199.3,1191.2,2200.3z M1199.5,2197.1v12.6h-1.1v-12.6H1199.5z"/>
		<path class="st2" d="M1205.5,2202.2c0-0.6,0.4-1,0.9-1c0.5,0,0.9,0.4,0.9,1c0,0.6-0.4,1-0.9,1
			C1205.9,2203.1,1205.5,2202.7,1205.5,2202.2z M1205.5,2207.8c0-0.6,0.4-1,0.9-1c0.5,0,0.9,0.4,0.9,1s-0.4,1-0.9,1
			C1205.9,2208.8,1205.5,2208.4,1205.5,2207.8z"/>
		<path class="st2" d="M1212.1,2201.4c0-2.1,0.9-3.2,2.3-3.2c1.4,0,2.3,1.2,2.3,3.2c0,2.1-0.9,3.3-2.3,3.3
			C1213,2204.6,1212.1,2203.4,1212.1,2201.4z M1215.8,2201.4c0-1.6-0.6-2.4-1.4-2.4c-0.8,0-1.4,0.8-1.4,2.4s0.6,2.5,1.4,2.5
			C1215.2,2203.8,1215.8,2203,1215.8,2201.4z M1220.4,2198.1h0.9l-5.7,10.6h-0.9L1220.4,2198.1z M1219.2,2205.5
			c0-2.1,0.9-3.2,2.3-3.2c1.4,0,2.3,1.2,2.3,3.2c0,2.1-0.9,3.2-2.3,3.2C1220.1,2208.8,1219.2,2207.6,1219.2,2205.5z M1222.9,2205.5
			c0-1.6-0.6-2.4-1.4-2.4c-0.8,0-1.4,0.8-1.4,2.4c0,1.6,0.6,2.5,1.4,2.5C1222.3,2208,1222.9,2207.2,1222.9,2205.5z"/>
	</g>
	<g class="st0">
		<path class="st3" d="M1110.4,2303.4c4.5,0,5.7,3.5,5.7,8.1c0,4.7-1.2,8.2-5.7,8.2s-5.7-3.5-5.7-8.2
			C1104.7,2306.9,1105.9,2303.4,1110.4,2303.4z M1110.4,2305.7c-2.9,0-3.3,2.8-3.3,5.8c0,3.1,0.3,5.9,3.3,5.9s3.3-2.8,3.3-5.9
			C1113.6,2308.5,1113.3,2305.7,1110.4,2305.7z"/>
		<path class="st3" d="M1120.1,2319.9c-0.9,0-1.6-0.7-1.6-1.6s0.7-1.6,1.6-1.6c0.9,0,1.6,0.7,1.6,1.6S1121,2319.9,1120.1,2319.9z"/>
		<path class="st3" d="M1125.8,2306h-2v-2.3h4.6v16h-2.5V2306z"/>
		<path class="st3" d="M1139.4,2316.4h-8v-1.9l7.4-10.6h3v10.3h2v2.2h-2v3.3h-2.5V2316.4z M1139.5,2314.2v-7.8l-5.2,7.8H1139.5z"/>
	</g>
	<g class="st0">
		<path class="st3" d="M1183.3,2326.6c4.5,0,5.7,3.5,5.7,8.1c0,4.7-1.2,8.2-5.7,8.2s-5.7-3.5-5.7-8.2
			C1177.6,2330.1,1178.8,2326.6,1183.3,2326.6z M1183.3,2328.9c-2.9,0-3.3,2.8-3.3,5.8c0,3.1,0.3,5.9,3.3,5.9s3.3-2.8,3.3-5.9
			C1186.6,2331.7,1186.2,2328.9,1183.3,2328.9z"/>
		<path class="st3" d="M1193,2343.1c-0.9,0-1.6-0.7-1.6-1.6s0.7-1.6,1.6-1.6c0.9,0,1.6,0.7,1.6,1.6S1193.9,2343.1,1193,2343.1z"/>
		<path class="st3" d="M1202.7,2326.6c4.5,0,5.7,3.5,5.7,8.1c0,4.7-1.2,8.2-5.7,8.2c-4.5,0-5.7-3.5-5.7-8.2
			C1197,2330.1,1198.2,2326.6,1202.7,2326.6z M1202.7,2328.9c-2.9,0-3.3,2.8-3.3,5.8c0,3.1,0.3,5.9,3.3,5.9c2.9,0,3.3-2.8,3.3-5.9
			C1206,2331.7,1205.6,2328.9,1202.7,2328.9z"/>
		<path class="st3" d="M1214.2,2338.6c0.3,1.4,1.2,2.2,2.9,2.2c2,0,3-1.3,3-5.4c-0.7,1-2.1,1.6-3.6,1.6c-2.8,0-5.1-1.7-5.1-5.1
			c0-3.2,2-5.3,5.3-5.3c4.1,0,5.5,2.8,5.5,8.1c0,5.4-1.1,8.3-5.3,8.3c-3.3,0-4.9-2-5.1-4.3H1214.2z M1219.8,2331.8
			c0-2-1.2-3.2-3-3.2c-1.9,0-3,1.3-3,3.1c0,1.7,0.9,3.1,3.1,3.1C1218.8,2334.8,1219.8,2333.6,1219.8,2331.8z"/>
	</g>
	<g class="st0">
		<path class="st1" d="M1259,2362.8c4.5,0,5.9,3.5,5.9,8.1c0,4.7-1.4,8.2-5.9,8.2c-4.5,0-5.9-3.5-5.9-8.2
			C1253.1,2366.3,1254.5,2362.8,1259,2362.8z M1259,2365.7c-2.6,0-2.9,2.5-2.9,5.3c0,2.9,0.3,5.3,2.9,5.3s2.9-2.5,2.9-5.3
			C1261.9,2368.2,1261.6,2365.7,1259,2365.7z"/>
		<path class="st1" d="M1269,2379.3c-1.1,0-1.9-0.8-1.9-1.8c0-1,0.8-1.8,1.9-1.8c1.1,0,1.9,0.8,1.9,1.8
			C1270.9,2378.6,1270.1,2379.3,1269,2379.3z"/>
		<path class="st1" d="M1278.9,2362.8c4.5,0,5.9,3.5,5.9,8.1c0,4.7-1.4,8.2-5.9,8.2c-4.5,0-5.9-3.5-5.9-8.2
			C1273,2366.3,1274.4,2362.8,1278.9,2362.8z M1278.9,2365.7c-2.6,0-2.9,2.5-2.9,5.3c0,2.9,0.3,5.3,2.9,5.3s2.9-2.5,2.9-5.3
			C1281.8,2368.2,1281.5,2365.7,1278.9,2365.7z"/>
		<path class="st1" d="M1295.5,2367.2c-0.3-1.2-0.9-1.8-2.3-1.8c-2,0-2.9,1.5-3,5.2c0.7-1.2,2.2-1.9,3.7-1.9c2.9,0,4.9,1.9,4.9,5.2
			c0,3.1-1.9,5.4-5.3,5.4c-4.8,0-5.9-3.3-5.9-8.3c0-5.2,1.7-8.1,5.8-8.1c3.3,0,4.8,2.1,5.1,4.4H1295.5z M1290.5,2373.8
			c0,1.7,1,2.8,2.8,2.8c1.6,0,2.6-1,2.6-2.7s-0.9-2.8-2.6-2.8C1291.8,2371.2,1290.5,2372,1290.5,2373.8z"/>
	</g>
	<path id="패스_2700" class="st4" d="M1096,2489.8h56V2339h-56V2489.8z"/>
	<path id="패스_2701" class="st4" d="M1172,2489.8h56v-127.3h-56V2489.8z"/>
	<path id="패스_2702" class="st1" d="M1248,2489.8h56V2396h-56V2489.8z"/>
	<g class="st0">
		<path class="st5" d="M1110.3,2474.8c2.2-2,4.6-3.7,4.6-5.5c0-1-0.4-1.7-1.5-1.7c-1,0-1.6,0.7-1.6,1.8h-1.4
			c0.1-2.1,1.4-3.1,3.1-3.1c1.9,0,3,1.2,3,2.9c0,2.3-2.3,4.1-3.9,5.4h4.1v1.2h-6.3V2474.8z"/>
		<path class="st5" d="M1121.3,2466.4c2.7,0,3.4,2.1,3.4,4.8c0,2.8-0.7,4.8-3.4,4.8s-3.4-2.1-3.4-4.8
			C1117.9,2468.4,1118.7,2466.4,1121.3,2466.4z M1121.3,2467.7c-1.7,0-1.9,1.7-1.9,3.4c0,1.9,0.2,3.5,1.9,3.5s1.9-1.6,1.9-3.5
			C1123.2,2469.4,1123.1,2467.7,1121.3,2467.7z"/>
		<path class="st5" d="M1127.3,2467.9h-1.2v-1.4h2.7v9.5h-1.5V2467.9z"/>
		<path class="st5" d="M1131.1,2468.9c0-1.4,1-2.6,3.1-2.6c2.1,0,3.1,1.2,3.1,2.6c0,1-0.6,1.8-1.4,2.1c1,0.4,1.6,1.2,1.6,2.3
			c0,1.7-1.4,2.8-3.4,2.8c-1.9,0-3.4-1.1-3.4-2.8c0-1.1,0.6-2,1.6-2.3C1131.6,2470.6,1131.1,2470,1131.1,2468.9z M1132.3,2473.3
			c0,1,0.7,1.7,1.9,1.7c1.2,0,1.9-0.7,1.9-1.7c0-1.1-0.8-1.6-1.9-1.6C1133.1,2471.7,1132.3,2472.2,1132.3,2473.3z M1135.9,2469.1
			c0-1-0.7-1.5-1.7-1.5c-1,0-1.7,0.5-1.7,1.5c0,0.9,0.7,1.5,1.7,1.5C1135.2,2470.6,1135.9,2470,1135.9,2469.1z"/>
	</g>
	<g class="st0">
		<path class="st5" d="M1186.3,2474.8c2.2-2,4.6-3.7,4.6-5.5c0-1-0.4-1.7-1.5-1.7c-1,0-1.6,0.7-1.6,1.8h-1.4
			c0.1-2.1,1.4-3.1,3.1-3.1c1.9,0,3,1.2,3,2.9c0,2.3-2.3,4.1-3.9,5.4h4.1v1.2h-6.3V2474.8z"/>
		<path class="st5" d="M1197.3,2466.4c2.7,0,3.4,2.1,3.4,4.8c0,2.8-0.7,4.8-3.4,4.8s-3.4-2.1-3.4-4.8
			C1194,2468.4,1194.7,2466.4,1197.3,2466.4z M1197.3,2467.7c-1.7,0-1.9,1.7-1.9,3.4c0,1.9,0.2,3.5,1.9,3.5s1.9-1.6,1.9-3.5
			C1199.3,2469.4,1199.1,2467.7,1197.3,2467.7z"/>
		<path class="st5" d="M1203.3,2467.9h-1.2v-1.4h2.7v9.5h-1.5V2467.9z"/>
		<path class="st5" d="M1208.7,2473.4c0.2,0.8,0.7,1.3,1.7,1.3c1.2,0,1.8-0.8,1.8-3.2c-0.4,0.6-1.2,0.9-2.1,0.9c-1.7,0-3-1-3-3
			c0-1.9,1.2-3.1,3.1-3.1c2.4,0,3.3,1.7,3.3,4.8c0,3.2-0.7,4.9-3.2,4.9c-2,0-2.9-1.2-3-2.6H1208.7z M1212,2469.4
			c0-1.2-0.7-1.9-1.8-1.9c-1.1,0-1.8,0.8-1.8,1.9c0,1,0.5,1.8,1.9,1.8C1211.4,2471.2,1212,2470.5,1212,2469.4z"/>
	</g>
	<g class="st0">
		<path class="st6" d="M1260.7,2474.5c2.1-1.8,4.4-3.5,4.4-5.2c0-0.8-0.4-1.4-1.3-1.4c-0.9,0-1.4,0.6-1.4,1.6h-1.8
			c0.1-2.2,1.5-3.2,3.2-3.2c2,0,3.1,1.2,3.1,2.9c0,2.2-2.1,3.9-3.6,5.2h3.8v1.5h-6.4V2474.5z"/>
		<path class="st6" d="M1271.8,2466.3c2.7,0,3.5,2.1,3.5,4.8c0,2.8-0.8,4.8-3.5,4.8c-2.7,0-3.5-2.1-3.5-4.8
			C1268.3,2468.4,1269.1,2466.3,1271.8,2466.3z M1271.8,2468c-1.5,0-1.7,1.5-1.7,3.1c0,1.7,0.2,3.1,1.7,3.1s1.7-1.5,1.7-3.1
			C1273.5,2469.5,1273.3,2468,1271.8,2468z"/>
		<path class="st6" d="M1276.6,2474.5c2.1-1.8,4.4-3.5,4.4-5.2c0-0.8-0.4-1.4-1.3-1.4c-0.9,0-1.4,0.6-1.4,1.6h-1.8
			c0.1-2.2,1.5-3.2,3.2-3.2c2,0,3.1,1.2,3.1,2.9c0,2.2-2.1,3.9-3.6,5.2h3.8v1.5h-6.4V2474.5z"/>
		<path class="st6" d="M1287.7,2466.3c2.7,0,3.5,2.1,3.5,4.8c0,2.8-0.8,4.8-3.5,4.8c-2.7,0-3.5-2.1-3.5-4.8
			C1284.2,2468.4,1285,2466.3,1287.7,2466.3z M1287.7,2468c-1.5,0-1.7,1.5-1.7,3.1c0,1.7,0.2,3.1,1.7,3.1s1.7-1.5,1.7-3.1
			C1289.4,2469.5,1289.2,2468,1287.7,2468z"/>
	</g>
</g>
</svg>
