<?xml version="1.0" encoding="utf-8"?>
<!-- Generator: Adobe Illustrator 25.1.0, SVG Export Plug-In . SVG Version: 6.00 Build 0)  -->
<svg version="1.1" id="레이어_1" xmlns="http://www.w3.org/2000/svg" xmlns:xlink="http://www.w3.org/1999/xlink" x="0px"
	 y="0px" viewBox="0 0 457 197" style="enable-background:new 0 0 457 197;" xml:space="preserve">
<style type="text/css">
	.st0{fill:none;}
	.st1{fill:none;stroke:#D5D5D5;}
	.st2{enable-background:new    ;}
	.st3{fill:#FFF8F8;}
	.st4{fill:#DF1C2F;}
</style>
<g id="그룹_5887" transform="translate(-1203 -2307)">
	<g id="사각형_331" transform="translate(1203 2307)">
		<rect y="0" class="st0" width="457" height="197"/>
		<rect x="0.5" y="0.5" class="st1" width="456" height="196"/>
	</g>
	<g class="st2">
		<path d="M1233.7,2396.3c0-1.2,0.9-2,1.8-2c0.9,0,1.8,0.8,1.8,2s-0.9,2-1.8,2C1234.6,2398.3,1233.7,2397.5,1233.7,2396.3z"/>
		<path d="M1246.5,2395.8c-2.1,0-3.6-1.4-3.6-3.4c0-2,1.5-3.4,3.6-3.4c2.1,0,3.6,1.4,3.6,3.4
			C1250.1,2394.4,1248.6,2395.8,1246.5,2395.8z M1246.5,2395.1c1.6,0,2.8-1.2,2.8-2.7c0-1.5-1.2-2.7-2.8-2.7c-1.6,0-2.8,1.2-2.8,2.7
			C1243.7,2393.9,1244.9,2395.1,1246.5,2395.1z M1245.7,2401h8.5v0.7h-9.4v-4.4h0.8V2401z M1255.7,2392.4v0.7h-2.2v5.3h-0.8v-10.5
			h0.8v4.5H1255.7z"/>
		<path d="M1265.1,2396c-1.6-0.6-3-1.9-3.6-3.5c-0.6,1.8-2,3.2-3.7,3.9l-0.4-0.7c2-0.7,3.7-2.6,3.7-4.8v-1h-3.4v-0.7h7.6v0.7h-3.3v1
			c0,1.9,1.6,3.7,3.6,4.4L1265.1,2396z M1269.3,2401v0.7h-9.3v-4.4h0.8v3.6H1269.3z M1268,2392v-4.1h0.8v10.5h-0.8v-5.7h-3.2v-0.7
			H1268z"/>
		<path d="M1284.9,2399.5v0.7H1272v-0.7h6v-3.3h-4.4v-7.2h0.8v2.8h8v-2.8h0.8v7.2h-4.4v3.3H1284.9z M1274.4,2395.4h8v-3h-8V2395.4z"
			/>
		<path d="M1294,2389c0,3.6-2.7,6.3-6.7,7.7l-0.4-0.7c3.4-1.2,5.9-3.4,6.1-6.3h-5.4v-0.7H1294z M1298.6,2401v0.7h-9.2v-4.4h0.8v3.6
			H1298.6z M1297.4,2392.5v-4.5h0.8v10.6h-0.8v-5.3h-3.5v-0.7H1297.4z"/>
		<path d="M1312.8,2396c-1.6-0.6-3-1.9-3.6-3.5c-0.6,1.8-2,3.2-3.7,3.9l-0.4-0.7c2-0.7,3.7-2.6,3.7-4.8v-1h-3.4v-0.7h7.6v0.7h-3.3v1
			c0,1.9,1.6,3.7,3.6,4.4L1312.8,2396z M1317,2401v0.7h-9.3v-4.4h0.8v3.6H1317z M1315.7,2392v-4.1h0.8v10.5h-0.8v-5.7h-3.2v-0.7
			H1315.7z"/>
		<path d="M1327.4,2396c-1.6-0.6-3-1.9-3.6-3.5c-0.6,1.9-2,3.2-3.6,3.9l-0.4-0.7c2-0.8,3.6-2.7,3.6-5.1v-1.9h0.8v1.9
			c0,2,1.7,3.9,3.6,4.6L1327.4,2396z M1322.9,2401h8.5v0.7h-9.3v-4.3h0.8V2401z M1332.9,2392.4v0.7h-2.2v5.3h-0.8v-10.6h0.8v4.5
			H1332.9z"/>
		<path d="M1339.1,2392.1c0,2.6,2.1,5.2,4,6.1l-0.5,0.7c-1.6-0.8-3.2-2.6-3.8-4.8c-0.6,2.2-2.2,4.1-3.8,5l-0.5-0.7
			c1.9-1,3.9-3.7,3.9-6.3v-2.8h0.8V2392.1z M1345.9,2387.9v14.2h-0.8v-14.2H1345.9z"/>
		<path d="M1362,2399.4v0.7h-12.9v-0.7H1362z M1360.8,2396c-1.9-0.5-4.4-2.1-5.3-4.3c-0.9,2.2-3.4,3.8-5.3,4.3l-0.4-0.7
			c2-0.4,5.3-2.5,5.3-5.2v-1.1h0.9v1.1c0,2.6,3.3,4.8,5.3,5.2L1360.8,2396z"/>
		<path d="M1370.8,2395c-1.6,0.4-3,0.4-5.3,0.4h-0.9v-6.6h5.4v0.7h-4.5v2.1h4v0.7h-4v2.3h0c2.3,0,3.6-0.1,5.2-0.4L1370.8,2395z
			 M1366.6,2397.3h9.2v4.6h-9.2V2397.3z M1367.4,2401.2h7.5v-3.2h-7.5V2401.2z M1372.2,2392.3h-2.2v-0.7h2.2v-3.4h0.8v8.2h-0.8
			V2392.3z M1375.7,2387.9v8.6h-0.8v-8.6H1375.7z"/>
		<path d="M1395,2395.7h-6v6.4h-0.8v-6.4h-6v-0.7h9.7c0.5-2.1,0.5-3.6,0.5-4.9v-0.5h-8.5v-0.7h9.3v1.2c0,1.3,0,2.8-0.4,4.9h2.2
			V2395.7z"/>
		<path d="M1403.7,2395.9v1.8h4.4v4.4h-0.8v-3.6h-9v-0.7h4.6v-1.8h-6v-0.7h12.9v0.7H1403.7z M1397.7,2393.5c2.3-0.3,5.1-1.4,5.1-3.4
			h-4.6v-0.7h4.6v-1.6h0.8v1.6h4.6v0.7h-4.6c0,2,2.8,3.2,5.1,3.4l-0.3,0.7c-2.1-0.3-4.4-1.2-5.2-2.8c-0.8,1.6-3.1,2.5-5.2,2.8
			L1397.7,2393.5z"/>
		<path d="M1422.3,2394.5h-6.5v-5.7h6.5V2394.5z M1421.5,2389.6h-4.8v4.3h4.8V2389.6z M1422.8,2398.1c0,1.6,2.7,3,4.8,3.3l-0.3,0.7
			c-2-0.3-4.1-1.4-4.9-2.8c-0.8,1.5-3,2.5-5,2.8l-0.3-0.7c2.1-0.3,4.9-1.7,4.9-3.3v-0.1h-4.3v-0.7h4.3v-1.5h0.9v1.5h4.3v0.7h-4.3
			V2398.1z M1426.7,2396.1h-0.8v-8.2h0.8V2396.1z"/>
		<path d="M1442.4,2395.6c-3,0.5-6.4,0.5-9,0.6l-0.1-0.8c1,0,2.1,0,3.2,0v-3.2h0.8v3.2c1.6-0.1,3.4-0.2,4.9-0.4L1442.4,2395.6z
			 M1439.9,2393.9c0.4-1.9,0.4-3.2,0.4-4.1h-6.1v-0.7h6.9v0.7c0,0.9,0,2.3-0.4,4.2L1439.9,2393.9z M1436.4,2401h8.3v0.7h-9.1v-4.1
			h0.8V2401z M1446.5,2392.7v0.7h-2.2v5.2h-0.8v-10.7h0.8v4.8H1446.5z"/>
		<path d="M1450.1,2397.9c2.3,0,4.5-0.1,7.2-0.5l0.1,0.7c-2.7,0.4-4.9,0.5-7.2,0.5h-1.1v-5.2h5.6v-3.4h-5.7v-0.7h6.5v4.8h-5.6v3.8
			H1450.1z M1459.6,2387.9v14.2h-0.8v-14.2H1459.6z"/>
	</g>
	<g class="st2">
		<path d="M1233.7,2426.3c0-1.2,0.9-2,1.8-2c0.9,0,1.8,0.8,1.8,2s-0.9,2-1.8,2C1234.6,2428.3,1233.7,2427.5,1233.7,2426.3z"/>
		<path d="M1250.6,2420.2h-8.1v-0.7h3.6v-1.7h0.8v1.7h3.6V2420.2z M1246.6,2426.1c-1.9,0-3.2-1-3.2-2.5s1.3-2.5,3.2-2.5
			c1.9,0,3.2,1,3.2,2.5S1248.5,2426.1,1246.6,2426.1z M1246.6,2425.4c1.4,0,2.3-0.8,2.3-1.9c0-1.1-0.9-1.9-2.3-1.9s-2.4,0.8-2.4,1.9
			C1244.2,2424.7,1245.2,2425.4,1246.6,2425.4z M1253.3,2426.9h0.8v5h-9v-5h0.8v1.7h7.3V2426.9z M1253.3,2429.4h-7.3v1.8h7.3V2429.4
			z M1254.1,2417.9v8.4h-0.8v-1.4h-2.8v-0.7h2.8v-2h-2.8v-0.7h2.8v-3.5H1254.1z"/>
		<path d="M1265,2425.5c-1.8,0.3-3.2,0.4-6.1,0.4h-1v-4h5.2v-2.3h-5.2v-0.7h6.1v3.7h-5.2v2.6h0.2c2.9,0,4.3,0,6-0.4L1265,2425.5z
			 M1259.4,2427.5h9.4v4.7h-0.8v-4h-8.5V2427.5z M1268.8,2417.9v8.7h-0.8v-2.9h-3.1v-0.7h3.1v-2.2h-3.1v-0.7h3.1v-2.2H1268.8z"/>
		<path d="M1283.5,2417.9v7.6h-0.8v-3.4h-3.3c-0.2,1.7-1.6,2.9-3.6,2.9c-2.1,0-3.6-1.3-3.6-3.2c0-1.9,1.5-3.2,3.6-3.2
			c2,0,3.4,1.1,3.6,2.8h3.3v-3.5H1283.5z M1278.6,2421.8c0-1.5-1.2-2.5-2.8-2.5s-2.8,1.1-2.8,2.5c0,1.4,1.2,2.5,2.8,2.5
			S1278.6,2423.3,1278.6,2421.8z M1282.7,2426.3h0.8v5.6h-8.9v-5.6h0.8v2.1h7.2V2426.3z M1282.7,2429h-7.2v2.1h7.2V2429z"/>
		<path d="M1290.7,2422.3c0,2.3,1.4,4.8,3.2,5.8l-0.5,0.7c-1.4-0.8-2.6-2.5-3.1-4.4c-0.5,2-1.6,3.8-3.1,4.7l-0.5-0.6
			c1.9-1.1,3.2-3.7,3.2-6.1v-0.9h-2.9v-0.7h2.9v-2.2h0.8v2.2h2.9v0.7h-2.9V2422.3z M1295,2418.3h0.8v13.1h-0.8v-7h-2.5v-0.7h2.5
			V2418.3z M1298.7,2417.9v14.2h-0.8v-14.2H1298.7z"/>
		<path d="M1309,2425.8c-2.1,0-3.6-1.4-3.6-3.4c0-2,1.5-3.4,3.6-3.4c2.1,0,3.6,1.4,3.6,3.4C1312.6,2424.4,1311,2425.8,1309,2425.8z
			 M1309,2425.1c1.6,0,2.8-1.2,2.8-2.7c0-1.5-1.2-2.7-2.8-2.7c-1.6,0-2.8,1.2-2.8,2.7C1306.2,2423.9,1307.4,2425.1,1309,2425.1z
			 M1308.1,2431h8.5v0.7h-9.4v-4.4h0.8V2431z M1318.1,2422.4v0.7h-2.2v5.3h-0.8v-10.5h0.8v4.5H1318.1z"/>
		<path d="M1327.5,2426c-1.6-0.6-3-1.9-3.6-3.5c-0.6,1.8-2,3.2-3.7,3.9l-0.4-0.7c2-0.7,3.7-2.6,3.7-4.8v-1h-3.4v-0.7h7.6v0.7h-3.3v1
			c0,1.9,1.6,3.7,3.6,4.4L1327.5,2426z M1331.7,2431v0.7h-9.3v-4.4h0.8v3.6H1331.7z M1330.4,2422v-4.1h0.8v10.5h-0.8v-5.7h-3.2v-0.7
			H1330.4z"/>
		<path d="M1343.5,2425.6c-3,0.5-6.4,0.5-9,0.6l-0.1-0.8c1,0,2.1,0,3.2,0v-3.2h0.8v3.2c1.6-0.1,3.4-0.2,4.9-0.4L1343.5,2425.6z
			 M1340.9,2423.9c0.4-1.9,0.4-3.2,0.4-4.1h-6.1v-0.7h6.9v0.7c0,0.9,0,2.3-0.4,4.2L1340.9,2423.9z M1337.5,2431h8.3v0.7h-9.1v-4.1
			h0.8V2431z M1347.5,2422.7v0.7h-2.2v5.2h-0.8v-10.7h0.8v4.8H1347.5z"/>
		<path d="M1351.1,2427.9c2.3,0,4.5-0.1,7.2-0.5l0.1,0.7c-2.7,0.4-4.9,0.5-7.3,0.5h-1.1v-5.2h5.6v-3.4h-5.7v-0.7h6.5v4.8h-5.6v3.8
			H1351.1z M1360.7,2417.9v14.2h-0.8v-14.2H1360.7z"/>
		<path d="M1374.5,2419c0,3.5-2.6,6.2-6.7,7.4l-0.4-0.7c3.6-1.1,5.9-3.2,6.1-6h-5.6v-0.7H1374.5z M1378.5,2429.4
			c0,1.7-1.8,2.6-4.6,2.6c-2.8,0-4.5-1-4.5-2.6c0-1.7,1.8-2.7,4.5-2.7C1376.7,2426.7,1378.5,2427.7,1378.5,2429.4z M1377.7,2429.4
			c0-1.2-1.5-2-3.7-2c-2.2,0-3.7,0.8-3.7,2c0,1.2,1.5,2,3.7,2C1376.2,2431.4,1377.7,2430.6,1377.7,2429.4z M1380.6,2421.8v0.7h-2.2
			v4h-0.8v-8.7h0.8v3.9H1380.6z"/>
		<path d="M1386.9,2428.4c1.4-0.1,2.9-0.2,4.2-0.4l0.1,0.7c-3.1,0.5-6.5,0.6-9,0.6l-0.2-0.7c1.2,0,2.6,0,4.1-0.1v-1.8
			c-1.7-0.1-2.8-1.1-2.8-2.6c0-1.6,1.3-2.6,3.3-2.6c2,0,3.3,1,3.3,2.6c0,1.5-1.1,2.4-2.9,2.6V2428.4z M1390.7,2420.4h-8.6v-0.7h3.9
			v-1.8h0.8v1.8h3.9V2420.4z M1386.5,2426c1.5,0,2.5-0.8,2.5-1.9c0-1.1-1-1.9-2.5-1.9c-1.5,0-2.5,0.8-2.5,1.9
			C1384,2425.2,1385,2426,1386.5,2426z M1395.3,2424.8h-2.4v7.3h-0.8v-14.2h0.8v6.2h2.4V2424.8z"/>
		<path d="M1407.6,2424.5h-6.5v-5.7h6.5V2424.5z M1406.8,2419.6h-4.8v4.3h4.8V2419.6z M1408,2428.1c0,1.6,2.7,3,4.8,3.3l-0.3,0.7
			c-2-0.3-4.1-1.4-4.9-2.8c-0.8,1.5-3,2.5-5,2.8l-0.3-0.7c2.1-0.3,4.9-1.7,4.9-3.3v-0.1h-4.3v-0.7h4.3v-1.5h0.9v1.5h4.3v0.7h-4.3
			V2428.1z M1411.9,2426.1h-0.8v-8.2h0.8V2426.1z"/>
		<path d="M1423.5,2422.5c0,2.5,2.1,4.9,4,5.8l-0.5,0.7c-1.6-0.8-3.2-2.5-3.9-4.6c-0.6,2.1-2.3,4.1-3.8,4.9l-0.5-0.7
			c1.8-0.9,3.9-3.6,3.9-6.1v-2.4h-3.5v-0.7h7.9v0.7h-3.6V2422.5z M1430.2,2417.9v14.2h-0.8v-14.2H1430.2z"/>
		<path d="M1437.6,2425.3c-1.5,0.1-3,0.1-4.2,0.1l-0.1-0.7c2.6,0,6.2,0,9.3-0.4l0.1,0.6c-1.3,0.2-2.8,0.3-4.1,0.4v2.9h-0.8V2425.3z
			 M1434.5,2421c0-1.5,1.4-2.4,3.5-2.4s3.5,0.9,3.5,2.4c0,1.5-1.4,2.4-3.5,2.4S1434.5,2422.5,1434.5,2421z M1435.3,2421
			c0,1.1,1.1,1.8,2.7,1.8c1.6,0,2.7-0.7,2.7-1.8c0-1-1.1-1.8-2.7-1.8C1436.4,2419.2,1435.3,2419.9,1435.3,2421z M1445.2,2431v0.7
			h-9.7v-4.1h0.8v3.4H1445.2z M1444,2426.4v-8.5h0.8v10.8h-0.8v-1.7h-3v-0.7H1444z"/>
	</g>
	<g class="st2">
		<path d="M1233.7,2456.3c0-1.2,0.9-2,1.8-2c0.9,0,1.8,0.8,1.8,2s-0.9,2-1.8,2C1234.6,2458.3,1233.7,2457.5,1233.7,2456.3z"/>
		<path d="M1249.4,2455.4v1.8c2.8,0.1,4.4,0.9,4.4,2.4c0,1.6-1.8,2.4-4.8,2.4c-3,0-4.8-0.9-4.8-2.4c0-1.5,1.6-2.4,4.4-2.4v-1.8h-6
			v-0.7h12.9v0.7H1249.4z M1243.4,2452.9c2.2-0.3,5.1-1.6,5.1-3.5v-0.1h-4.8v-0.7h10.5v0.7h-4.8v0.1c0,1.9,2.9,3.2,5.1,3.5l-0.3,0.7
			c-2.1-0.3-4.5-1.4-5.3-3c-0.8,1.7-3.2,2.7-5.3,3L1243.4,2452.9z M1249,2457.9c-2.4,0-4,0.7-4,1.8s1.6,1.8,4,1.8c2.4,0,4-0.7,4-1.8
			S1251.4,2457.9,1249,2457.9z"/>
		<path d="M1258.7,2457.7c2.3,0,3.7-0.1,5.3-0.4l0.1,0.7c-1.7,0.4-3.1,0.4-5.4,0.4h-0.9v-8.8h5.3v0.7h-4.5L1258.7,2457.7
			L1258.7,2457.7z M1269.2,2447.9v14.2h-0.8v-7.6h-2.4v6.9h-0.8v-13.1h0.8v5.5h2.4v-5.8H1269.2z"/>
		<path d="M1276,2452c0,2.7,1.2,4.9,3.2,5.9l-0.5,0.7c-1.5-0.8-2.5-2.3-3-4.2c-0.5,2.1-1.6,3.8-3.2,4.7l-0.6-0.7
			c2-1.1,3.3-3.5,3.3-6.4v-1.5h-3v-0.7h6.7v0.7h-2.9V2452z M1284,2447.9v14.2h-0.8v-7.6h-2.3v6.8h-0.8v-13.1h0.8v5.5h2.3v-5.9H1284z
			"/>
		<path d="M1290.7,2450.5h3.2v0.7h-7.2v-0.7h3.2v-2.2h0.8V2450.5z M1293.3,2455.5c0,1.9-1.3,3.2-3,3.2c-1.7,0-3-1.3-3-3.2
			c0-1.9,1.3-3.2,3-3.2C1292,2452.4,1293.3,2453.7,1293.3,2455.5z M1292.5,2455.5c0-1.4-0.9-2.4-2.3-2.4c-1.3,0-2.2,1.1-2.2,2.4
			c0,1.4,0.9,2.4,2.2,2.4C1291.6,2458,1292.5,2456.9,1292.5,2455.5z M1298.6,2447.9v14.2h-0.8v-7.4h-2.3v6.6h-0.8v-13.1h0.8v5.8h2.3
			v-6.1H1298.6z"/>
		<path d="M1313.4,2448.2h0.8v13.1h-0.8v-4.8h-2.6c-0.5,1.5-1.4,2.3-2.7,2.3c-1.8,0-3-1.9-3-4.8s1.2-4.8,3-4.8
			c1.2,0,2.2,0.9,2.7,2.3h2.6V2448.2z M1310.4,2454c0-2.4-0.9-4-2.2-4s-2.2,1.7-2.2,4c0,2.4,0.9,4,2.2,4S1310.4,2456.4,1310.4,2454z
			 M1313.4,2455.8v-3.6h-2.4c0.1,0.5,0.2,1.1,0.2,1.8s-0.1,1.2-0.2,1.8H1313.4z M1317,2447.9v14.2h-0.8v-14.2H1317z"/>
		<path d="M1326.8,2455.3h-6.4v-6.5h0.8v2.4h4.8v-2.4h0.8V2455.3z M1326,2451.8h-4.8v2.7h4.8V2451.8z M1330.7,2459.5
			c0,1.6-1.7,2.6-4.6,2.6s-4.6-0.9-4.6-2.6c0-1.6,1.7-2.6,4.6-2.6S1330.7,2457.9,1330.7,2459.5z M1329.9,2459.5
			c0-1.1-1.5-1.9-3.8-1.9c-2.3,0-3.7,0.7-3.7,1.9c0,1.2,1.5,1.9,3.7,1.9C1328.4,2461.4,1329.9,2460.7,1329.9,2459.5z M1332.9,2451.6
			v0.7h-2.2v4.2h-0.8v-8.6h0.8v3.7H1332.9z"/>
	</g>
	<g class="st2">
		<path d="M1341.2,2450.1h-3.7v-0.8h8.3v0.8h-3.7v10.9h-1V2450.1z"/>
		<path d="M1348.1,2449.3h6.4v0.8h-5.5v4.5h4.6v0.8h-4.6v5.5h-1V2449.3z"/>
		<path d="M1359.1,2450.1h-3.7v-0.8h8.3v0.8h-3.7v10.9h-1V2450.1z"/>
	</g>
	<g class="st2">
		<path d="M1381.6,2455.3v0.7h-5.9v3.2h-0.8v-3.2h-6.1v-0.7H1381.6z M1370.2,2451.1c0-1.7,1.9-2.8,4.9-2.8c3,0,4.9,1.1,4.9,2.8
			c0,1.7-1.9,2.8-4.9,2.8C1372.2,2453.9,1370.2,2452.8,1370.2,2451.1z M1371.3,2461h8.9v0.7h-9.7v-4.1h0.8V2461z M1371.1,2451.1
			c0,1.2,1.6,2.1,4,2.1c2.4,0,4-0.8,4-2.1c0-1.2-1.6-2.1-4-2.1C1372.7,2449,1371.1,2449.9,1371.1,2451.1z"/>
		<path d="M1390.2,2454.1c-0.6,0.8-1.7,1.3-2.9,1.3c-2.1,0-3.6-1.4-3.6-3.3c0-1.9,1.5-3.3,3.6-3.3c1.2,0,2.3,0.5,2.9,1.3h4v-2.2h0.8
			v8.5h-0.8v-2.2H1390.2z M1387.3,2454.7c1.6,0,2.8-1.1,2.8-2.6c0-1.5-1.2-2.6-2.8-2.6s-2.8,1.1-2.8,2.6
			C1384.5,2453.6,1385.7,2454.7,1387.3,2454.7z M1395.1,2459.4c0,1.7-1.8,2.7-4.7,2.7c-2.9,0-4.6-1-4.6-2.7s1.8-2.7,4.6-2.7
			C1393.3,2456.7,1395.1,2457.7,1395.1,2459.4z M1394.2,2459.4c0-1.2-1.5-2-3.8-2c-2.3,0-3.8,0.8-3.8,2c0,1.2,1.5,2,3.8,2
			C1392.7,2461.4,1394.2,2460.6,1394.2,2459.4z M1390.6,2450.8c0.2,0.4,0.3,0.8,0.3,1.3c0,0.5-0.1,0.9-0.3,1.3h3.5v-2.6H1390.6z"/>
	</g>
	<g id="사각형_374" transform="translate(1203 2307)">
		<rect y="0" class="st3" width="457" height="50"/>
		<rect x="0.5" y="0.5" class="st1" width="456" height="49"/>
	</g>
	<g class="st2">
		<path class="st4" d="M1375.3,2327.4h-9.8v-1.9h3.7v-1.7h2.4v1.7h3.7V2327.4z M1370.4,2333.9c-2.4,0-4.1-1.2-4.1-3
			c0-1.8,1.7-3,4.1-3c2.4,0,4.1,1.2,4.1,3C1374.5,2332.7,1372.8,2333.9,1370.4,2333.9z M1378.7,2337.6c0,1.8-2.1,2.9-5.6,2.9
			c-3.4,0-5.6-1.1-5.6-2.9c0-1.9,2.1-3,5.6-3C1376.6,2334.7,1378.7,2335.8,1378.7,2337.6z M1370.4,2332.2c1.1,0,1.8-0.4,1.8-1.2
			c0-0.8-0.7-1.2-1.8-1.2c-1.1,0-1.8,0.4-1.8,1.2C1368.6,2331.7,1369.3,2332.2,1370.4,2332.2z M1376.4,2337.6c0-0.8-1.1-1.2-3.2-1.2
			c-2.1,0-3.2,0.4-3.2,1.2c0,0.8,1.1,1.2,3.2,1.2C1375.3,2338.8,1376.4,2338.4,1376.4,2337.6z M1378.6,2328.3v1.7h2.1v1.9h-2.1v2.6
			h-2.4V2324h2.4v2.4h2.1v1.9H1378.6z"/>
		<path class="st4" d="M1397.7,2336.6h-6.3v4h-2.4v-4h-6.3v-1.9h15V2336.6z M1396.9,2327.5h-13.5v-1.9h5.6v-1.7h2.4v1.7h5.5V2327.5z
			 M1390.2,2328.2c3.5,0,5.7,1,5.7,2.9c0,1.8-2.1,2.8-5.7,2.8c-3.5,0-5.7-1-5.7-2.8C1384.5,2329.2,1386.6,2328.2,1390.2,2328.2z
			 M1390.2,2330c-2.2,0-3.2,0.3-3.2,1.1c0,0.7,1,1.1,3.2,1.1s3.2-0.3,3.2-1.1C1393.4,2330.3,1392.3,2330,1390.2,2330z"/>
		<path class="st4" d="M1413.1,2324.3h2.2v15.5h-2.2v-5.4h-2.3v-1.9h2.3v-2.3h-2c-0.7,2.7-2.4,5-5.5,6.9l-1.4-1.7
			c3.3-2,4.7-4.4,5-7.6h-4.1v-1.9h6.4c0,0.8-0.1,1.6-0.1,2.4h1.6V2324.3z M1418.8,2323.9v16.6h-2.3v-16.6H1418.8z"/>
		<path class="st4" d="M1432.3,2334.2c-3.5,0.6-7.3,0.6-10.2,0.6l-0.3-1.8c1.3,0,2.7,0,4.2,0v-0.9c-1.8-0.3-2.9-1.2-2.9-2.4
			c0-1.5,1.7-2.5,4.1-2.5c2.4,0,4.1,1,4.1,2.5c0,1.3-1.1,2.1-2.9,2.4v0.8c1.3-0.1,2.6-0.2,3.8-0.3L1432.3,2334.2z M1431.9,2326.9
			h-9.7v-1.7h3.7v-1.3h2.4v1.3h3.7V2326.9z M1424,2335.8h11.5v4.7h-2.4v-2.9h-9.1V2335.8z M1427.1,2330.7c1.1,0,1.8-0.3,1.8-0.9
			c0-0.6-0.7-0.9-1.8-0.9c-1.1,0-1.9,0.3-1.9,0.9C1425.2,2330.4,1426,2330.7,1427.1,2330.7z M1435.5,2324v11.2h-2.4V2324H1435.5z"/>
		<path class="st4" d="M1452.4,2332h-8v-7h8V2332z M1452.9,2336c0.3,1.1,1.9,2.4,5.2,2.7l-0.8,1.8c-2.8-0.2-4.7-1.2-5.7-2.5
			c-1,1.3-3,2.3-5.7,2.5l-0.7-1.8c3.3-0.3,5-1.5,5.2-2.7h-4.6v-1.8h4.6v-1.4h2.4v1.4h4.6v1.8H1452.9z M1450,2326.8h-3.4v3.3h3.4
			V2326.8z M1457.2,2333.4h-2.4v-9.4h2.4V2333.4z"/>
		<path class="st4" d="M1480.3,2332v1.9h-15v-1.9h6.3v-1.5h-4.4v-5.9h11.3v5.9h-4.4v1.5H1480.3z M1467,2335.1h11.5v5.5h-2.4v-3.6
			h-9.1V2335.1z M1469.5,2328.6h6.6v-2.1h-6.6V2328.6z"/>
		<path class="st4" d="M1497.5,2336.8v1.9h-15v-1.9h3.7v-3.1h-2.4v-1.9h2.2v-4.7h-2.3v-1.9h12.6v1.9h-2.3v4.7h2.2v1.9h-2.5v3.1
			H1497.5z M1488.3,2331.8h3.4v-4.7h-3.4V2331.8z M1488.5,2336.8h2.9v-3.1h-2.9V2336.8z"/>
	</g>
</g>
</svg>
