<?xml version="1.0" encoding="utf-8"?>
<!-- Generator: Adobe Illustrator 25.1.0, SVG Export Plug-In . SVG Version: 6.00 Build 0)  -->
<svg version="1.1" id="레이어_1" xmlns="http://www.w3.org/2000/svg" xmlns:xlink="http://www.w3.org/1999/xlink" x="0px"
	 y="0px" viewBox="0 0 336 144.3" style="enable-background:new 0 0 336 144.3;" xml:space="preserve">
<style type="text/css">
	.st0{enable-background:new    ;}
	.st1{fill:#DF1C2F;}
	.st2{fill:#FAFAFA;}
	.st3{fill:none;stroke:#D6D6D6;}
	.st4{fill:none;stroke:#717171;}
</style>
<g id="그룹_5725" transform="translate(-19.5 -1120.931)">
	<g class="st0">
		<path class="st1" d="M27.7,1130.7c0,2.8-1.4,4.6-3.4,4.6c-1.9,0-3.4-1.8-3.4-4.6c0-2.8,1.4-4.6,3.4-4.6
			C26.3,1126.1,27.7,1127.9,27.7,1130.7z M22.7,1130.7c0,1.9,0.7,2.9,1.6,2.9s1.6-1,1.6-2.9c0-1.9-0.7-2.9-1.6-2.9
			S22.7,1128.8,22.7,1130.7z M31.3,1125.2v12.9h-1.8v-12.9H31.3z"/>
		<path class="st1" d="M45.2,1133.8h-2.6v4.4h-1.8v-4.4H38v4.4h-1.8v-4.4h-2.7v-1.5h11.7V1133.8z M44,1131.4
			c-2.2-0.4-3.9-1.4-4.7-2.8c-0.8,1.4-2.5,2.5-4.7,2.8l-0.7-1.5c2.9-0.4,4.4-2.1,4.4-3.6v-0.6h2v0.6c0,1.5,1.5,3.2,4.4,3.6
			L44,1131.4z"/>
		<path class="st1" d="M46.4,1134c2.3,0,5.4,0,8.2-0.4l0.1,1.3c-2.8,0.6-5.8,0.6-8,0.6L46.4,1134z M54.1,1129.3
			c0,1.9-1.5,3.2-3.6,3.2s-3.5-1.3-3.5-3.2c0-1.8,1.5-3.2,3.5-3.2S54.1,1127.4,54.1,1129.3z M48.8,1129.3c0,1,0.8,1.6,1.8,1.6
			s1.8-0.6,1.8-1.6s-0.8-1.6-1.8-1.6S48.8,1128.3,48.8,1129.3z M57.1,1125.2v12.9h-1.8v-12.9H57.1z"/>
		<path class="st1" d="M68.5,1131.3c-0.6,0.6-1.5,1-2.5,1c-1.9,0-3.4-1.3-3.4-3.2c0-1.8,1.5-3.2,3.4-3.2c1,0,1.9,0.4,2.5,1h2.8v-1.7
			h1.8v7.6h-1.8v-1.5H68.5z M66,1130.7c1,0,1.7-0.6,1.7-1.6c0-1-0.7-1.6-1.7-1.6s-1.6,0.6-1.6,1.6C64.3,1130.1,65,1130.7,66,1130.7z
			 M73.3,1135.6c0,1.6-1.7,2.5-4.4,2.5c-2.7,0-4.4-0.9-4.4-2.5c0-1.6,1.7-2.5,4.4-2.5C71.6,1133.1,73.3,1134,73.3,1135.6z
			 M71.4,1135.6c0-0.8-0.9-1.1-2.6-1.1c-1.7,0-2.6,0.4-2.6,1.1c0,0.8,0.9,1.1,2.6,1.1C70.5,1136.7,71.4,1136.4,71.4,1135.6z
			 M69.3,1128.4c0,0.2,0.1,0.4,0.1,0.7c0,0.2,0,0.5-0.1,0.7h2.1v-1.4H69.3z"/>
		<path class="st1" d="M82.9,1127.9h-7.6v-1.4h2.9v-1.3H80v1.3h2.9V1127.9z M79.1,1132.9c-1.9,0-3.2-0.9-3.2-2.3
			c0-1.4,1.3-2.3,3.2-2.3c1.9,0,3.2,0.9,3.2,2.3C82.3,1132,81,1132.9,79.1,1132.9z M85.6,1135.9c0,1.4-1.7,2.3-4.3,2.3
			c-2.7,0-4.3-0.9-4.3-2.3c0-1.4,1.7-2.3,4.3-2.3C83.9,1133.6,85.6,1134.4,85.6,1135.9z M79.1,1131.6c0.8,0,1.4-0.3,1.4-1
			c0-0.6-0.6-1-1.4-1c-0.8,0-1.4,0.3-1.4,1C77.7,1131.3,78.3,1131.6,79.1,1131.6z M83.7,1135.9c0-0.6-0.9-0.9-2.5-0.9
			c-1.6,0-2.5,0.3-2.5,0.9c0,0.6,0.9,0.9,2.5,0.9C82.9,1136.8,83.7,1136.5,83.7,1135.9z M85.5,1128.6v1.3h1.7v1.5h-1.7v2h-1.8v-8.2
			h1.8v1.8h1.7v1.5H85.5z"/>
	</g>
	<rect id="사각형_388" x="20" y="1150.9" class="st2" width="335" height="56.9"/>
	<path id="패스_1678" class="st3" d="M232.5,1179.4h122.3"/>
	<path id="패스_2364" class="st3" d="M232.5,1151.2v113.6"/>
	<path id="패스_2434" class="st3" d="M273.3,1179.4v85.3"/>
	<path id="패스_2435" class="st3" d="M314.1,1179.9v85.3"/>
	<path id="패스_1677" class="st3" d="M20,1207.8h335"/>
	<path id="패스_2342" class="st3" d="M20,1236.4h335"/>
	<path id="패스_2343" class="st4" d="M20,1264.7h335"/>
	<path id="패스_1677-2" class="st4" d="M20,1150.9h335"/>
	<g class="st0">
		<path d="M34.1,1219.7c0,1.7,1.1,3.5,2.5,4.2l-0.6,0.7c-1-0.6-1.9-1.7-2.4-3.1c-0.4,1.4-1.3,2.7-2.5,3.3l-0.5-0.7
			c1.4-0.7,2.5-2.6,2.5-4.4v-1.8h0.9V1219.7z M40,1221.8h-1.6v5.1h-0.9v-9.9h0.9v4H40V1221.8z"/>
		<path d="M49,1217v5.3h-0.9v-2.2h-2c-0.2,1.2-1.2,1.9-2.5,1.9c-1.5,0-2.5-0.9-2.5-2.3c0-1.4,1.1-2.3,2.5-2.3c1.3,0,2.3,0.7,2.5,1.9
			h2v-2.3H49z M45.3,1219.8c0-0.9-0.7-1.5-1.7-1.5c-1,0-1.7,0.6-1.7,1.5c0,0.9,0.7,1.5,1.7,1.5C44.6,1221.3,45.3,1220.7,45.3,1219.8
			z M48.1,1222.8H49v3.9h-6.3v-3.9h0.9v1.2h4.5V1222.8z M48.1,1224.8h-4.5v1.3h4.5V1224.8z"/>
		<path d="M56.3,1222.5c-1.1-0.4-2-1.1-2.4-2.1c-0.4,1.1-1.3,2-2.5,2.4l-0.5-0.7c1.5-0.5,2.5-1.8,2.5-3.2v-0.4h-2.2v-0.7h5.3v0.7
			h-2.2v0.4c0,1.3,0.9,2.4,2.4,2.9L56.3,1222.5z M58.8,1225.1c0,1.2-1.2,1.8-3.2,1.8c-2,0-3.3-0.7-3.3-1.8c0-1.1,1.2-1.8,3.3-1.8
			C57.5,1223.2,58.8,1223.9,58.8,1225.1z M57.9,1225.1c0-0.7-0.9-1.1-2.3-1.1c-1.5,0-2.4,0.4-2.4,1.1c0,0.7,0.9,1.1,2.4,1.1
			C57,1226.2,57.9,1225.8,57.9,1225.1z M60.1,1219.5v0.8h-1.5v2.7h-0.9v-6h0.9v2.5H60.1z"/>
		<path d="M66.4,1222.6c-1.5,0-2.6-1-2.6-2.4c0-1.4,1.1-2.4,2.6-2.4c1.5,0,2.6,1,2.6,2.4C68.9,1221.6,67.8,1222.6,66.4,1222.6z
			 M66.4,1221.8c1,0,1.7-0.7,1.7-1.7c0-1-0.7-1.7-1.7-1.7c-1,0-1.7,0.7-1.7,1.7C64.7,1221.1,65.4,1221.8,66.4,1221.8z M66,1225.9
			h5.7v0.7h-6.6v-3.1H66V1225.9z M72.7,1220v0.7h-1.5v3.5h-0.9v-7.3h0.9v3H72.7z"/>
		<path d="M79.1,1222.8c-1.1-0.4-1.9-1.2-2.4-2.2c-0.4,1.1-1.3,2-2.5,2.5l-0.5-0.7c1.5-0.5,2.5-1.8,2.5-3.2v-0.5H74v-0.7h5.3v0.7
			h-2.2v0.5c0,1.3,1,2.5,2.4,3L79.1,1222.8z M82.1,1225.9v0.7h-6.6v-3h0.9v2.3H82.1z M80.9,1219.8v-2.7h0.9v7.2h-0.9v-3.8h-2v-0.7
			H80.9z"/>
		<path d="M92.8,1224.9v0.7h-8.9v-0.7h4v-2.1h-2.9v-5h0.9v1.8h5v-1.8h0.9v5h-2.9v2.1H92.8z M85.8,1222h5v-1.8h-5V1222z"/>
		<path d="M99.1,1217.8c0,2.5-1.8,4.5-4.6,5.4l-0.4-0.7c2.3-0.7,3.8-2.2,4-3.9h-3.5v-0.7H99.1z M102.3,1225.9v0.7h-6.5v-3.1h0.9v2.4
			H102.3z M101.2,1220.1v-3h0.9v7.3h-0.9v-3.5H99v-0.7H101.2z"/>
		<path d="M111.5,1217.8c0,2.5-1.7,4.3-4.6,5.2l-0.4-0.7c2.3-0.7,3.8-2,4-3.7H107v-0.7H111.5z M114.3,1225c0,1.2-1.3,1.9-3.2,1.9
			s-3.2-0.7-3.2-1.9c0-1.2,1.3-1.9,3.2-1.9S114.3,1223.8,114.3,1225z M113.4,1225c0-0.8-0.9-1.2-2.3-1.2c-1.4,0-2.3,0.5-2.3,1.2
			c0,0.7,0.9,1.2,2.3,1.2C112.5,1226.2,113.4,1225.7,113.4,1225z M115.7,1219.6v0.7h-1.5v2.6h-0.9v-5.9h0.9v2.6H115.7z"/>
		<path d="M120.1,1224.2c0.9,0,1.8-0.1,2.7-0.2l0.1,0.7c-2.1,0.4-4.4,0.4-6.2,0.4l-0.1-0.8c0.8,0,1.7,0,2.7,0v-1.1
			c-1.1-0.1-1.9-0.8-1.9-1.8c0-1.1,1-1.8,2.3-1.8c1.4,0,2.3,0.7,2.3,1.8c0,1-0.7,1.7-1.9,1.8V1224.2z M122.6,1218.9h-5.9v-0.7h2.5
			v-1.2h0.9v1.2h2.5V1218.9z M119.7,1222.5c0.9,0,1.5-0.4,1.5-1.1c0-0.7-0.6-1.1-1.5-1.1c-0.9,0-1.5,0.5-1.5,1.1
			C118.2,1222,118.8,1222.5,119.7,1222.5z M125.8,1222h-1.5v4.9h-0.9v-9.9h0.9v4.2h1.5V1222z"/>
	</g>
	<g class="st0">
		<path d="M36.2,1248.4c0,1.4-1.1,2.3-2.6,2.3c-1.5,0-2.6-0.9-2.6-2.3s1.1-2.3,2.6-2.3C35.1,1246.1,36.2,1247.1,36.2,1248.4z
			 M31.9,1248.4c0,0.9,0.7,1.6,1.7,1.6c1,0,1.7-0.6,1.7-1.6c0-0.9-0.7-1.6-1.7-1.6C32.6,1246.9,31.9,1247.5,31.9,1248.4z
			 M38.9,1251.8v3.6h-6.4v-3.6H38.9z M33.4,1252.5v2.1H38v-2.1H33.4z M38.9,1245.6v5.6H38v-5.6H38.9z"/>
		<path d="M46.5,1251.1c-1.1-0.4-2-1.2-2.5-2.2c-0.4,1.1-1.3,2-2.5,2.4l-0.5-0.7c1.5-0.5,2.5-1.8,2.5-3.2v-0.4h-2.3v-0.7h5.4v0.7
			h-2.2v0.4c0,1.3,1,2.5,2.5,3L46.5,1251.1z M42.4,1252.1H49v3.4h-0.9v-2.7h-5.7V1252.1z M49,1245.6v6h-0.9v-6H49z"/>
		<path d="M53.8,1250.8c-1,0-1.9,0.1-2.7,0.1l-0.1-0.7c1.8,0,4.3,0,6.4-0.3l0.1,0.6c-0.9,0.1-1.8,0.2-2.7,0.3v1.9h-0.9V1250.8z
			 M51.7,1247.7c0-1,1-1.7,2.4-1.7c1.4,0,2.4,0.7,2.4,1.7c0,1.1-1,1.7-2.4,1.7C52.7,1249.4,51.7,1248.8,51.7,1247.7z M59.3,1254.5
			v0.7h-7v-2.9h0.9v2.1H59.3z M52.6,1247.7c0,0.6,0.6,1.1,1.6,1.1c0.9,0,1.6-0.4,1.6-1.1c0-0.6-0.6-1-1.6-1
			C53.2,1246.7,52.6,1247.1,52.6,1247.7z M58.2,1251.4v-5.8h0.9v7.5h-0.9v-1h-2v-0.7H58.2z"/>
		<path d="M66.4,1251.1c-1.5,0-2.6-1-2.6-2.4c0-1.4,1.1-2.4,2.6-2.4c1.5,0,2.6,1,2.6,2.4C68.9,1250.1,67.8,1251.1,66.4,1251.1z
			 M66.4,1250.4c1,0,1.7-0.7,1.7-1.7c0-1-0.7-1.7-1.7-1.7c-1,0-1.7,0.7-1.7,1.7C64.7,1249.7,65.4,1250.4,66.4,1250.4z M66,1254.5
			h5.7v0.7h-6.6v-3.1H66V1254.5z M72.7,1248.6v0.7h-1.5v3.5h-0.9v-7.3h0.9v3H72.7z"/>
		<path d="M79.1,1251.3c-1.1-0.4-1.9-1.2-2.4-2.2c-0.4,1.1-1.3,2-2.5,2.5l-0.5-0.7c1.5-0.5,2.5-1.8,2.5-3.2v-0.5H74v-0.7h5.3v0.7
			h-2.2v0.5c0,1.3,1,2.5,2.4,3L79.1,1251.3z M82.1,1254.5v0.7h-6.6v-3h0.9v2.3H82.1z M80.9,1248.3v-2.7h0.9v7.2h-0.9v-3.8h-2v-0.7
			H80.9z"/>
		<path d="M92.8,1253.5v0.7h-8.9v-0.7h4v-2.1h-2.9v-5h0.9v1.8h5v-1.8h0.9v5h-2.9v2.1H92.8z M85.8,1250.6h5v-1.8h-5V1250.6z"/>
		<path d="M99.1,1246.4c0,2.5-1.8,4.5-4.6,5.4l-0.4-0.7c2.3-0.7,3.8-2.2,4-3.9h-3.5v-0.7H99.1z M102.3,1254.5v0.7h-6.5v-3.1h0.9v2.4
			H102.3z M101.2,1248.6v-3h0.9v7.3h-0.9v-3.5H99v-0.7H101.2z"/>
		<path d="M112.7,1251.1c-2,0.3-4.4,0.4-6.2,0.4l-0.1-0.7c0.6,0,1.3,0,2.1,0v-2.1h0.9v2.1c1.1,0,2.2-0.1,3.2-0.3L112.7,1251.1z
			 M110.8,1249.7c0.2-1.1,0.3-2,0.3-2.6h-4v-0.7h4.9v0.5c0,0.6,0,1.6-0.3,2.9L110.8,1249.7z M108.9,1254.5h5.7v0.7H108v-2.9h0.9
			V1254.5z M115.6,1248.8v0.7h-1.4v3.5h-0.9v-7.4h0.9v3.2H115.6z"/>
		<path d="M118.1,1252.3c1.6,0,3.1-0.1,4.8-0.4l0.1,0.7c-1.8,0.3-3.3,0.4-5,0.4h-0.8v-3.8h3.6v-2.1h-3.7v-0.7h4.6v3.5h-3.6V1252.3z
			 M124.8,1245.6v9.9h-0.9v-9.9H124.8z"/>
		<path d="M129.7,1248.6c0,1.6,0.8,3.2,2.1,3.9l-0.5,0.7c-1-0.5-1.7-1.5-2-2.7c-0.3,1.3-1,2.4-2,2.9l-0.5-0.7
			c1.3-0.8,2.1-2.5,2.1-4.1v-0.5H127v-0.7h1.8v-1.5h0.9v1.5h1.8v0.7h-1.8V1248.6z M132.3,1245.8h0.9v9.1h-0.9v-4.7h-1.5v-0.7h1.5
			V1245.8z M135.2,1245.6v9.9h-0.9v-9.9H135.2z"/>
		<path d="M142.5,1245.9h0.9v9.1h-0.9v-3.4h-1.8v-0.7h1.8v-1.7h-1.6c-0.5,1.7-1.5,3.1-3.4,4.3l-0.5-0.6c2.1-1.3,3.2-3,3.3-5.1h-2.9
			v-0.7h3.8c0,0.5,0,1-0.1,1.5h1.5V1245.9z M145.3,1245.6v9.9h-0.9v-9.9H145.3z"/>
		<path d="M154.5,1246.3c0,2.5-1.7,4.3-4.6,5.2l-0.4-0.7c2.3-0.7,3.8-2,4-3.7h-3.6v-0.7H154.5z M157.3,1253.5c0,1.2-1.3,1.9-3.2,1.9
			s-3.2-0.7-3.2-1.9c0-1.2,1.3-1.9,3.2-1.9S157.3,1252.3,157.3,1253.5z M156.4,1253.5c0-0.8-0.9-1.2-2.3-1.2c-1.4,0-2.3,0.5-2.3,1.2
			c0,0.7,0.9,1.2,2.3,1.2C155.5,1254.7,156.4,1254.3,156.4,1253.5z M158.6,1248.1v0.7h-1.5v2.6h-0.9v-5.9h0.9v2.6H158.6z"/>
		<path d="M163.1,1252.8c0.9,0,1.8-0.1,2.7-0.2l0.1,0.7c-2.1,0.4-4.4,0.4-6.2,0.4l-0.1-0.8c0.8,0,1.7,0,2.7,0v-1.1
			c-1.1-0.1-1.9-0.8-1.9-1.8c0-1.1,1-1.8,2.3-1.8c1.4,0,2.3,0.7,2.3,1.8c0,1-0.7,1.7-1.9,1.8V1252.8z M165.6,1247.5h-5.9v-0.7h2.5
			v-1.2h0.9v1.2h2.5V1247.5z M162.6,1251c0.9,0,1.5-0.4,1.5-1.1c0-0.7-0.6-1.1-1.5-1.1c-0.9,0-1.5,0.5-1.5,1.1
			C161.2,1250.6,161.7,1251,162.6,1251z M168.8,1250.5h-1.5v4.9h-0.9v-9.9h0.9v4.2h1.5V1250.5z"/>
	</g>
	<circle id="타원_7" cx="293" cy="1249.5" r="4.5"/>
	<circle id="타원_8" cx="253" cy="1221.5" r="4.5"/>
	<circle id="타원_9" cx="334.6" cy="1221.5" r="4.5"/>
	<g>
		<g class="st0">
			<path d="M113.5,1175.9h-5v-0.9h1.9v-1h1.1v1h1.9V1175.9z M111,1179.9c-1.2,0-2.1-0.7-2.1-1.8c0-1.1,0.9-1.8,2.1-1.8
				c1.3,0,2.1,0.7,2.1,1.8C113.1,1179.1,112.2,1179.9,111,1179.9z M111,1179c0.7,0,1.1-0.4,1.1-0.9c0-0.6-0.5-0.9-1.1-0.9
				c-0.7,0-1.1,0.4-1.1,0.9C109.9,1178.7,110.3,1179,111,1179z M110.2,1180.6h6.7v3.2h-1.1v-2.3h-5.6V1180.6z M117,1173.9v6.2h-1.1
				v-2.6h-1v2.5h-1.1v-6h1.1v2.5h1v-2.7H117z"/>
			<path d="M124.2,1179.2c-1.1-0.4-2-1.1-2.4-2.1c-0.5,1.1-1.3,1.9-2.5,2.3l-0.5-0.9c1.6-0.5,2.5-1.8,2.5-3.2v-1h1.2v1
				c0,1.3,0.9,2.5,2.4,3L124.2,1179.2z M120.4,1180.1h6.5v3.7h-6.5V1180.1z M121.5,1182.8h4.3v-1.8h-4.3V1182.8z M126.9,1173.9v5.6
				h-1.1v-5.6H126.9z"/>
			<path d="M134.2,1178.1c0,2.2-1.1,3.5-2.6,3.5c-1.5,0-2.6-1.4-2.6-3.5c0-2.1,1.1-3.5,2.6-3.5
				C133.2,1174.6,134.2,1176,134.2,1178.1z M130.2,1178.1c0,1.6,0.6,2.5,1.5,2.5c0.9,0,1.5-0.9,1.5-2.5c0-1.5-0.6-2.5-1.5-2.5
				C130.8,1175.7,130.2,1176.6,130.2,1178.1z M137,1173.9v10h-1.1v-10H137z"/>
			<path d="M147.9,1180.4h-2.2v3.5h-1.1v-3.5h-2.4v3.5h-1.1v-3.5h-2.2v-0.9h9V1180.4z M147.1,1178.6c-1.6-0.3-3-1.1-3.6-2.3
				c-0.6,1.2-2,2-3.6,2.3l-0.4-0.9c2-0.3,3.5-1.5,3.5-2.9v-0.5h1.2v0.5c0,1.3,1.5,2.6,3.5,2.9L147.1,1178.6z"/>
		</g>
	</g>
	<g>
		<g class="st0">
			<path d="M280.3,1165.3c-0.5,0.5-1.2,0.8-2,0.8c-1.5,0-2.6-1-2.6-2.4c0-1.4,1.1-2.4,2.6-2.4c0.8,0,1.5,0.3,2,0.8h2.4v-1.4h1.1v5.9
				h-1.1v-1.3H280.3z M278.3,1165.2c0.9,0,1.5-0.6,1.5-1.4c0-0.9-0.6-1.4-1.5-1.4c-0.9,0-1.5,0.6-1.5,1.4
				C276.8,1164.6,277.4,1165.2,278.3,1165.2z M283.8,1168.8c0,1.2-1.3,1.9-3.4,1.9s-3.3-0.7-3.3-1.9c0-1.2,1.3-1.9,3.3-1.9
				S283.8,1167.6,283.8,1168.8z M282.7,1168.8c0-0.7-0.8-1-2.2-1c-1.4,0-2.2,0.4-2.2,1c0,0.7,0.8,1,2.2,1
				C281.9,1169.8,282.7,1169.4,282.7,1168.8z M280.8,1163.1c0.1,0.2,0.1,0.4,0.1,0.7s0,0.5-0.1,0.7h1.9v-1.3H280.8z"/>
			<path d="M291.6,1162.7h-5.9v-0.9h2.4v-1.1h1.1v1.1h2.4V1162.7z M288.6,1166.7c-1.4,0-2.4-0.7-2.4-1.8c0-1.1,1-1.8,2.4-1.8
				c1.4,0,2.4,0.7,2.4,1.8C291,1166,290.1,1166.7,288.6,1166.7z M293.5,1169c0,1.1-1.3,1.7-3.3,1.7c-2,0-3.3-0.6-3.3-1.7
				c0-1.1,1.3-1.7,3.3-1.7C292.3,1167.2,293.5,1167.9,293.5,1169z M288.6,1165.8c0.8,0,1.3-0.4,1.3-0.9c0-0.6-0.5-0.9-1.3-0.9
				c-0.8,0-1.3,0.4-1.3,0.9C287.3,1165.5,287.8,1165.8,288.6,1165.8z M292.4,1169c0-0.6-0.8-0.9-2.2-0.9c-1.4,0-2.2,0.3-2.2,0.9
				c0,0.6,0.8,0.9,2.2,0.9C291.6,1169.8,292.4,1169.5,292.4,1169z M293.4,1163.3v1.2h1.4v0.9h-1.4v1.7h-1.1v-6.4h1.1v1.6h1.4v0.9
				H293.4z"/>
			<path d="M301.6,1166c-1.9,0.3-4.1,0.4-5.7,0.4l-0.1-0.9c0.4,0,0.8,0,1.2,0v-3.1h-0.9v-0.9h5.2v0.9h-0.9v2.9
				c0.4,0,0.8-0.1,1.1-0.1L301.6,1166z M304.1,1168.9c0,1.1-1.3,1.8-3.4,1.8c-2.1,0-3.3-0.7-3.3-1.8c0-1.2,1.3-1.8,3.3-1.8
				C302.8,1167,304.1,1167.7,304.1,1168.9z M298.1,1165.4c0.4,0,0.8,0,1.3,0v-3h-1.3V1165.4z M302.9,1168.9c0-0.6-0.8-1-2.2-1
				c-1.4,0-2.2,0.3-2.2,1c0,0.6,0.8,0.9,2.2,0.9C302.1,1169.8,302.9,1169.5,302.9,1168.9z M302.9,1165.2h-1.4v-0.9h1.4v-0.9h-1.4
				v-0.9h1.4v-1.7h1.1v6.1h-1.1V1165.2z"/>
			<path d="M311,1161.8c0,2.9-1.2,5.4-4.5,7.1l-0.6-0.9c2.4-1.2,3.7-3,4-5.3h-3.5v-0.9H311z M315.1,1165.6h-1.5v5.1h-1.1v-9.9h1.1
				v3.9h1.5V1165.6z"/>
		</g>
	</g>
	<g class="st0">
		<path d="M244.9,1189.6v2.6h2.9v-2.6h0.9v6.7H244v-6.7H244.9z M244.9,1195.6h2.9v-2.6h-2.9V1195.6z M251.5,1188.8v9.9h-0.9v-9.9
			H251.5z"/>
		<path d="M262.5,1193.7v0.7h-8.9v-0.7h2.2v-1.4c-0.8-0.3-1.2-0.8-1.2-1.5c0-1.2,1.3-1.8,3.5-1.8c2.1,0,3.5,0.7,3.5,1.8
			c0,0.7-0.4,1.2-1.2,1.5v1.4H262.5z M261.4,1196.9c0,1.1-1.3,1.7-3.4,1.7c-2.1,0-3.4-0.6-3.4-1.7c0-1.1,1.3-1.8,3.4-1.8
			C260.2,1195.1,261.4,1195.8,261.4,1196.9z M258,1191.9c1.6,0,2.5-0.4,2.5-1.1c0-0.7-1-1.1-2.5-1.1s-2.5,0.4-2.5,1.1
			C255.5,1191.5,256.5,1191.9,258,1191.9z M260.5,1196.9c0-0.7-0.9-1.1-2.5-1.1c-1.6,0-2.5,0.4-2.5,1.1s0.9,1.1,2.5,1.1
			C259.6,1198,260.5,1197.6,260.5,1196.9z M256.7,1193.7h2.7v-1.2c-0.4,0.1-0.9,0.1-1.4,0.1c-0.5,0-1,0-1.4-0.1V1193.7z"/>
	</g>
	<g class="st0">
		<path d="M292.4,1195.1h-4v3.6h-0.9v-3.6h-4v-0.7h8.9L292.4,1195.1z M291.6,1193.3c-1.5-0.3-3-1.1-3.7-2.3c-0.6,1.2-2.1,2-3.6,2.3
			l-0.4-0.7c1.8-0.3,3.5-1.5,3.5-2.9v-0.5h0.9v0.5c0,1.4,1.8,2.6,3.6,2.9L291.6,1193.3z"/>
		<path d="M299,1191.7c0,1.4-1.1,2.3-2.6,2.3c-1.5,0-2.6-0.9-2.6-2.3c0-1.4,1.1-2.3,2.6-2.3C297.9,1189.4,299,1190.3,299,1191.7z
			 M294.7,1191.7c0,0.9,0.7,1.6,1.7,1.6c1,0,1.7-0.6,1.7-1.6s-0.7-1.6-1.7-1.6C295.4,1190.2,294.7,1190.8,294.7,1191.7z
			 M301.7,1195.2v3.5h-0.9v-2.7h-5.7v-0.7H301.7z M301.7,1188.8v5.9h-0.9v-5.9H301.7z"/>
	</g>
	<g class="st0">
		<path d="M321.9,1195.5c1.6,0,3.1-0.1,4.8-0.4l0.1,0.7c-1.8,0.3-3.3,0.4-5,0.4H321v-3.8h3.6v-2.1h-3.7v-0.7h4.6v3.5h-3.6V1195.5z
			 M328.5,1188.8v9.9h-0.9v-9.9H328.5z"/>
		<path d="M339.5,1196.6v0.7h-8.9v-0.7H339.5z M338.6,1194.5c-1.5-0.3-3-1.4-3.7-2.8c-0.6,1.4-2.2,2.5-3.7,2.8l-0.4-0.7
			c1.7-0.3,3.6-1.8,3.6-3.5v-0.8h0.9v0.8c0,1.7,1.9,3.2,3.6,3.5L338.6,1194.5z"/>
		<path d="M349.6,1196.6v0.7h-8.9v-0.7H349.6z M347.6,1192.5c0-0.5,0-1,0-1.5v-0.5h-5.9v-0.7h6.8v1.2c0,1.5,0,2.8-0.4,4.8l-0.9-0.1
			c0.2-0.9,0.3-1.8,0.4-2.5l-6,0.3l-0.1-0.7L347.6,1192.5z"/>
	</g>
</g>
</svg>
