<?xml version="1.0" encoding="utf-8"?>
<!-- Generator: Adobe Illustrator 25.1.0, SVG Export Plug-In . SVG Version: 6.00 Build 0)  -->
<svg version="1.1" id="레이어_1" xmlns="http://www.w3.org/2000/svg" xmlns:xlink="http://www.w3.org/1999/xlink" x="0px"
	 y="0px" viewBox="0 0 439 339" style="enable-background:new 0 0 439 339;" xml:space="preserve">
<style type="text/css">
	.st0{enable-background:new    ;}
	.st1{fill:#FAFAFA;}
	.st2{fill:#070203;}
	.st3{fill:none;stroke:#D6D6D6;stroke-miterlimit:10;}
	.st4{fill:none;stroke:#717171;stroke-miterlimit:10;}
</style>
<g id="그룹_5878" transform="translate(-1221 -1181)">
	<g id="그룹_4965" transform="translate(481 -1823)">
		<g class="st0">
			<path d="M751.1,3018.1c0,4.1-2.1,6.6-4.8,6.6c-2.8,0-4.8-2.5-4.8-6.6c0-4,2.1-6.6,4.8-6.6C749,3011.6,751.1,3014.1,751.1,3018.1z
				 M743.9,3018.1c0,2.7,0.9,4.2,2.3,4.2s2.3-1.5,2.3-4.2c0-2.7-0.9-4.2-2.3-4.2S743.9,3015.4,743.9,3018.1z M756.1,3010.3v18.5
				h-2.6v-18.5H756.1z"/>
			<path d="M775.9,3022.6h-3.7v6.2h-2.6v-6.2h-3.9v6.2h-2.6v-6.2h-3.8v-2.1h16.7V3022.6z M774.3,3019.1c-3.2-0.5-5.5-2-6.7-4
				c-1.2,2-3.5,3.5-6.7,4l-1-2.1c4.2-0.6,6.3-3,6.3-5.2v-0.9h2.8v0.9c0,2.2,2.1,4.6,6.3,5.2L774.3,3019.1z"/>
			<path d="M777.7,3022.9c3.2,0,7.8,0,11.6-0.6l0.2,1.9c-4,0.8-8.3,0.8-11.5,0.8L777.7,3022.9z M788.7,3016.1c0,2.7-2.2,4.5-5.1,4.5
				c-2.9,0-5.1-1.9-5.1-4.5c0-2.6,2.2-4.5,5.1-4.5C786.5,3011.5,788.7,3013.4,788.7,3016.1z M781.1,3016.1c0,1.4,1.1,2.3,2.5,2.3
				c1.4,0,2.5-0.8,2.5-2.3s-1.1-2.3-2.5-2.3C782.2,3013.8,781.1,3014.6,781.1,3016.1z M793,3010.3v18.5h-2.6v-18.5H793z"/>
			<path d="M809.3,3018.9c-0.9,0.9-2.1,1.4-3.6,1.4c-2.7,0-4.8-1.9-4.8-4.5c0-2.6,2.1-4.5,4.8-4.5c1.5,0,2.7,0.5,3.6,1.4h4.1v-2.4
				h2.6v10.8h-2.6v-2.2H809.3z M805.7,3018.1c1.4,0,2.4-0.9,2.4-2.3c0-1.4-1-2.3-2.4-2.3s-2.3,0.8-2.3,2.3
				C803.3,3017.2,804.3,3018.1,805.7,3018.1z M816.1,3025.1c0,2.3-2.4,3.6-6.3,3.6c-3.9,0-6.3-1.3-6.3-3.6c0-2.3,2.4-3.6,6.3-3.6
				C813.7,3021.5,816.1,3022.8,816.1,3025.1z M813.5,3025.1c0-1.1-1.3-1.6-3.7-1.6c-2.4,0-3.7,0.5-3.7,1.6s1.3,1.6,3.7,1.6
				C812.2,3026.7,813.5,3026.2,813.5,3025.1z M810.4,3014.8c0.1,0.3,0.1,0.6,0.1,1c0,0.3,0,0.7-0.1,1h2.9v-2H810.4z"/>
			<path d="M829.8,3014.1H819v-2.1h4.1v-1.9h2.7v1.9h4.1V3014.1z M824.4,3021.3c-2.7,0-4.5-1.3-4.5-3.3c0-2,1.9-3.3,4.5-3.3
				s4.5,1.3,4.5,3.3C828.9,3020,827.1,3021.3,824.4,3021.3z M833.7,3025.5c0,2-2.4,3.3-6.2,3.3s-6.2-1.2-6.2-3.3
				c0-2.1,2.4-3.3,6.2-3.3S833.7,3023.4,833.7,3025.5z M824.4,3019.4c1.2,0,2-0.5,2-1.4c0-0.9-0.8-1.4-2-1.4s-2,0.5-2,1.4
				C822.4,3018.9,823.2,3019.4,824.4,3019.4z M831.1,3025.5c0-0.9-1.2-1.3-3.6-1.3c-2.3,0-3.6,0.4-3.6,1.3c0,0.9,1.2,1.3,3.6,1.3
				C829.8,3026.8,831.1,3026.3,831.1,3025.5z M833.5,3015.1v1.9h2.4v2.1h-2.4v2.9h-2.6v-11.7h2.6v2.6h2.4v2.2H833.5z"/>
		</g>
	</g>
	<rect id="사각형_388" x="1221" y="1225" class="st1" width="166" height="294.5"/>
	<g class="st0">
		<path class="st2" d="M1421.3,1259h1.2v12.5h-1.2v-6.6h-1.7c-0.1,2.6-1.2,4.3-2.9,4.3c-1.8,0-2.9-1.8-2.9-4.7
			c0-2.9,1.1-4.7,2.9-4.7c1.6,0,2.7,1.6,2.9,4.1h1.7V1259z M1418.5,1264.4c0-2.2-0.7-3.5-1.7-3.5c-1.1,0-1.8,1.4-1.8,3.5
			c0,2.2,0.7,3.6,1.8,3.6C1417.8,1268,1418.5,1266.7,1418.5,1264.4z M1425.1,1258.7v13.5h-1.2v-13.5H1425.1z"/>
		<path class="st2" d="M1429.5,1267.9c2,0,3.8-0.2,5.8-0.6l0.2,1c-2.1,0.4-4,0.5-6.1,0.5h-1.1v-8.7h1.2V1267.9z M1438.6,1258.7v13.5
			h-1.2v-8h-4.1v-1h4.1v-4.4H1438.6z"/>
		<path class="st2" d="M1446.1,1262.8c0,2.3,1.6,4.6,3.6,5.4l-0.7,1c-1.6-0.7-2.9-2.3-3.5-4.1c-0.6,2-1.9,3.7-3.5,4.4l-0.7-1
			c1.9-0.9,3.6-3.5,3.6-5.8v-1.7h-3.1v-1h7.5v1h-3.2V1262.8z M1452.3,1258.7v13.4h-1.2v-13.4H1452.3z"/>
		<path class="st2" d="M1470.7,1269.3v1h-12.2v-1h5.4v-3.3h1.2v3.3H1470.7z M1469.6,1266.2c-2.1-0.4-4.2-1.8-5-3.8
			c-0.9,1.9-3,3.3-5,3.8l-0.5-1c2.4-0.4,4.9-2.4,4.9-4.6v-1h1.3v1c0,2.2,2.6,4.2,4.9,4.6L1469.6,1266.2z"/>
		<path class="st2" d="M1474.3,1259.8v3.6h3.9v-3.6h1.2v9.1h-6.3v-9.1H1474.3z M1474.3,1267.9h3.9v-3.5h-3.9V1267.9z M1483.3,1258.7
			v13.5h-1.2v-13.5H1483.3z"/>
		<path class="st2" d="M1494.1,1265.6c-2.1,0.4-3.9,0.4-6.4,0.4h-1.1v-3.8h4.8v-1.7h-4.8v-1h6.1v3.6h-4.8v1.9c2.4,0,4.1-0.1,6.1-0.4
			L1494.1,1265.6z M1496.6,1269.7c0,1.6-1.7,2.4-4.4,2.4c-2.7,0-4.4-0.9-4.4-2.4c0-1.6,1.7-2.5,4.4-2.5
			C1495,1267.2,1496.6,1268.1,1496.6,1269.7z M1495.4,1269.7c0-0.9-1.2-1.5-3.2-1.5s-3.2,0.6-3.2,1.5c0,0.9,1.2,1.5,3.2,1.5
			S1495.4,1270.6,1495.4,1269.7z M1496.5,1261.8v1.8h2v1h-2v2.2h-1.2v-8.1h1.2v2.1h2v1H1496.5z"/>
	</g>
	<g class="st0">
		<path class="st2" d="M1427.4,1288.1c-2.8,0.5-6,0.5-8.4,0.5l-0.1-1c0.9,0,1.8,0,2.8,0v-2.9h1.2v2.9c1.5-0.1,3-0.2,4.4-0.4
			L1427.4,1288.1z M1424.8,1286.3c0.3-1.5,0.4-2.7,0.4-3.6h-5.5v-1h6.7v0.7c0,0.9,0,2.2-0.3,4L1424.8,1286.3z M1422.1,1292.8h7.7v1
			h-8.9v-3.9h1.2V1292.8z M1431.3,1285v1h-1.9v4.7h-1.2v-10.1h1.2v4.4H1431.3z"/>
		<path class="st2" d="M1434.7,1289.9c2.2,0,4.2-0.1,6.5-0.5l0.1,1c-2.4,0.4-4.5,0.5-6.8,0.5h-1.1v-5.2h5v-2.8h-5v-1h6.2v4.8h-5
			V1289.9z M1443.8,1280.6v13.5h-1.2v-13.5H1443.8z"/>
		<path class="st2" d="M1456.9,1287h-6.3v-5.5h6.3V1287z M1457.3,1290.2c0,1.3,2.1,2.6,4.4,2.9l-0.4,0.9c-2-0.3-3.8-1.2-4.6-2.5
			c-0.8,1.3-2.7,2.2-4.7,2.5l-0.4-0.9c2.3-0.3,4.4-1.5,4.5-2.9h-3.9v-0.9h3.9v-1.3h1.2v1.3h3.9v0.9H1457.3z M1455.7,1282.5h-3.9v3.5
			h3.9V1282.5z M1460.9,1288.4h-1.2v-7.7h1.2V1288.4z"/>
		<path class="st2" d="M1479.2,1291.6v1h-12.2v-1h3.2v-2.5c-1-0.4-1.5-1.1-1.5-2c0-1.6,1.7-2.5,4.4-2.5c2.7,0,4.4,0.9,4.4,2.5
			c0,0.9-0.6,1.6-1.5,2v2.5H1479.2z M1478.6,1283.6h-10.9v-1h4.9v-1.8h1.2v1.8h4.8V1283.6z M1470,1287c0,1,1.2,1.5,3.2,1.5
			c1.9,0,3.1-0.6,3.1-1.5c0-1-1.2-1.6-3.1-1.6C1471.2,1285.5,1470,1286.1,1470,1287z M1471.5,1291.6h3.3v-2.1
			c-0.5,0.1-1,0.1-1.6,0.1c-0.6,0-1.2,0-1.7-0.1V1291.6z"/>
		<path class="st2" d="M1489.6,1287.3v1.3h1.8v3h-7.9v1.4h8.3v1h-9.5v-3.2h7.9v-1.2h-7.9v-0.9h1.8v-1.3h-3.3v-1h12.1v1H1489.6z
			 M1482.2,1283.1c0-1.5,1.8-2.3,4.7-2.3c3,0,4.7,0.8,4.7,2.3s-1.8,2.3-4.7,2.3C1484,1285.5,1482.2,1284.7,1482.2,1283.1z
			 M1483.5,1283.1c0,0.9,1.3,1.4,3.5,1.4c2.2,0,3.5-0.5,3.5-1.4c0-0.9-1.3-1.4-3.5-1.4C1484.7,1281.7,1483.5,1282.2,1483.5,1283.1z
			 M1488.4,1287.3h-3.1v1.3h3.1V1287.3z"/>
	</g>
	<g class="st0">
		<path class="st2" d="M1455.2,1309.1v1H1443v-1H1455.2z M1443.7,1307.3c2.4-0.3,4.5-1.4,4.6-2.9h-4.2v-1h9.9v1h-4.2
			c0.1,1.5,2.2,2.7,4.6,2.9l-0.4,1c-2.2-0.3-4.2-1.2-5-2.7c-0.8,1.5-2.8,2.4-5,2.7L1443.7,1307.3z M1453.7,1313.7
			c0,1.6-1.7,2.4-4.6,2.4c-2.9,0-4.6-0.9-4.6-2.4c0-1.6,1.7-2.4,4.6-2.4C1451.9,1311.2,1453.7,1312.1,1453.7,1313.7z M1452.4,1313.7
			c0-0.9-1.3-1.5-3.4-1.5c-2.1,0-3.4,0.5-3.4,1.5c0,0.9,1.2,1.5,3.4,1.5C1451.2,1315.1,1452.4,1314.6,1452.4,1313.7z"/>
		<path class="st2" d="M1458.5,1311.8c1.8,0,3.1-0.1,4.5-0.4l0.1,1c-1.6,0.3-3,0.4-5,0.4h-0.9v-8.5h5v1h-3.8V1311.8z M1468.2,1302.7
			v13.5h-1.2v-7h-1.9v6.4h-1.2V1303h1.2v5.1h1.9v-5.4H1468.2z"/>
	</g>
	<g class="st0">
		<path class="st2" d="M1333,1374.8v3.6h3.9v-3.6h1.2v9.1h-6.3v-9.1H1333z M1333,1382.9h3.9v-3.5h-3.9V1382.9z M1342,1373.7v13.5
			h-1.2v-13.5H1342z"/>
		<path class="st2" d="M1357,1380.3v1h-12.2v-1h3v-1.9c-1.1-0.4-1.6-1.1-1.6-2c0-1.6,1.8-2.5,4.7-2.5c2.9,0,4.7,0.9,4.7,2.5
			c0,0.9-0.6,1.6-1.6,2v1.9H1357z M1355.5,1384.7c0,1.5-1.7,2.4-4.6,2.4c-2.9,0-4.6-0.8-4.6-2.4s1.7-2.4,4.6-2.4
			C1353.8,1382.3,1355.5,1383.2,1355.5,1384.7z M1350.9,1377.9c2.1,0,3.5-0.6,3.5-1.5c0-1-1.3-1.5-3.5-1.5s-3.5,0.6-3.5,1.5
			C1347.4,1377.4,1348.7,1377.9,1350.9,1377.9z M1354.2,1384.7c0-0.9-1.3-1.4-3.4-1.4c-2.1,0-3.4,0.5-3.4,1.4s1.2,1.4,3.4,1.4
			C1353,1386.2,1354.2,1385.6,1354.2,1384.7z M1349,1380.3h3.7v-1.6c-0.6,0.1-1.2,0.2-1.9,0.2c-0.7,0-1.3-0.1-1.9-0.2V1380.3z"/>
	</g>
	<g class="st0">
		<path class="st2" d="M1343.2,1437.2h-5.5v4.9h-1.2v-4.9h-5.4v-1h12.1L1343.2,1437.2z M1342.1,1434.8c-2.1-0.4-4.1-1.5-5-3.2
			c-0.8,1.6-2.9,2.8-5,3.2l-0.5-1c2.4-0.4,4.8-2,4.8-3.9v-0.8h1.3v0.8c0,1.9,2.4,3.5,4.8,3.9L1342.1,1434.8z"/>
		<path class="st2" d="M1352.1,1432.6c0,1.9-1.5,3.2-3.5,3.2c-2,0-3.5-1.3-3.5-3.2s1.5-3.2,3.5-3.2
			C1350.6,1429.5,1352.1,1430.8,1352.1,1432.6z M1346.3,1432.6c0,1.3,1,2.1,2.3,2.1c1.3,0,2.3-0.9,2.3-2.1s-1-2.1-2.3-2.1
			C1347.3,1430.5,1346.3,1431.4,1346.3,1432.6z M1355.8,1437.4v4.7h-1.2v-3.7h-7.8v-1H1355.8z M1355.8,1428.7v8h-1.2v-8H1355.8z"/>
	</g>
	<g class="st0">
		<path class="st2" d="M1326.1,1492.9c2.2,0,4.2-0.1,6.5-0.5l0.1,1c-2.4,0.4-4.5,0.5-6.8,0.5h-1.1v-5.2h5v-2.8h-5v-1h6.2v4.8h-5
			V1492.9z M1335.1,1483.6v13.5h-1.2v-13.5H1335.1z"/>
		<path class="st2" d="M1350.1,1494.3v1h-12.2v-1H1350.1z M1348.9,1491.4c-2-0.5-4.1-1.9-5-3.9c-0.9,2-3,3.4-5,3.9l-0.6-1
			c2.4-0.5,4.9-2.5,4.9-4.8v-1h1.3v1c0,2.3,2.5,4.3,4.9,4.8L1348.9,1491.4z"/>
		<path class="st2" d="M1363.9,1494.2v1h-12.2v-1H1363.9z M1361.1,1488.8c0-0.7,0-1.4,0-2.1v-0.6h-8v-1h9.2v1.6c0,2,0,3.8-0.6,6.6
			l-1.2-0.1c0.3-1.3,0.4-2.4,0.5-3.4l-8.1,0.4l-0.2-1L1361.1,1488.8z"/>
	</g>
	<line id="선_387" class="st3" x1="1300.5" y1="1351.5" x2="1300.5" y2="1518.9"/>
	<line id="선_388" class="st3" x1="1387.5" y1="1224.5" x2="1387.5" y2="1519.1"/>
	<line id="선_389" class="st3" x1="1523" y1="1224.5" x2="1523" y2="1519.1"/>
	<g class="st0">
		<path class="st2" d="M1583.8,1266.7c-1.6-0.5-2.8-1.6-3.4-2.9c-0.6,1.5-1.8,2.7-3.4,3.2l-0.6-1c2-0.7,3.4-2.4,3.4-4.2v-0.3h-3.1
			v-1h3.1v-1.7h1.2v1.7h3v1h-3v0.3c0,1.8,1.4,3.4,3.4,4L1583.8,1266.7z M1587.5,1270.8v1h-9.1v-4.1h1.2v3.1H1587.5z M1587.1,1268.6
			h-1.2v-9.9h1.2V1268.6z"/>
		<path class="st2" d="M1598.4,1267.1c-2.9,0.5-6.1,0.6-8.4,0.6l-0.1-1c1,0,2.3,0,3.6-0.1v-1c-1.5-0.2-2.5-0.9-2.5-2.1
			c0-1.3,1.3-2.1,3.1-2.1c1.9,0,3.1,0.8,3.1,2.1c0,1.2-1,1.9-2.5,2.1v1c1.2-0.1,2.5-0.2,3.6-0.4L1598.4,1267.1z M1597.9,1260.9h-7.7
			v-0.9h3.3v-1.4h1.2v1.4h3.2V1260.9z M1593,1270.8h7.8v1h-9v-3.3h1.2V1270.8z M1594,1264.7c1.2,0,2-0.4,2-1.2c0-0.7-0.8-1.2-2-1.2
			c-1.2,0-2,0.5-2,1.2C1592.1,1264.3,1592.8,1264.7,1594,1264.7z M1602.3,1263.4v1h-2v4.8h-1.2v-10.5h1.2v4.7H1602.3z"/>
		<path class="st2" d="M1610.2,1262.1c-0.9,2.2-2.9,3.7-5.8,4.6l-0.5-1c3.2-1,5.2-2.7,5.4-5.1h-4.7v-1h6.1c0,0.5-0.1,1-0.1,1.5h3
			v-2.5h1.2v8h-1.2v-1.8h-3.5v-1h3.5v-1.8H1610.2z M1614.8,1269.5c0,1.6-1.7,2.6-4.5,2.6s-4.5-1-4.5-2.6s1.7-2.6,4.5-2.6
			S1614.8,1267.8,1614.8,1269.5z M1613.6,1269.5c0-1-1.3-1.6-3.2-1.6c-2,0-3.2,0.6-3.2,1.6c0,1,1.3,1.6,3.2,1.6
			C1612.4,1271.1,1613.6,1270.5,1613.6,1269.5z"/>
	</g>
	<g class="st0">
		<path class="st2" d="M1556,1284.5c0,2.3,1,4.7,2.9,5.7l-0.8,0.9c-1.3-0.8-2.2-2.2-2.7-3.9c-0.5,1.8-1.4,3.4-2.8,4.3l-0.8-0.9
			c1.9-1.1,2.9-3.6,2.9-6v-1.2h-2.5v-1h6.1v1h-2.4V1284.5z M1559.6,1281h1.2v12.5h-1.2v-6.9h-2.2v-1h2.2V1281z M1563.5,1280.6v13.5
			h-1.2v-13.5H1563.5z"/>
		<path class="st2" d="M1572.5,1288.2v1.6h4v4.2h-9.2v-4.2h4v-1.6h-5.5v-1h12.2v1H1572.5z M1569,1282.1h-2v-1h9.9v1h-2v2.8h2v1h-9.8
			v-1h2V1282.1z M1575.3,1290.7h-6.8v2.2h6.8V1290.7z M1573.6,1282.1h-3.3v2.8h3.3V1282.1z"/>
		<path class="st2" d="M1590,1287h-6.3v-5.5h6.3V1287z M1590.4,1290.2c0,1.3,2.1,2.6,4.4,2.9l-0.4,0.9c-2-0.3-3.8-1.2-4.6-2.5
			c-0.8,1.3-2.7,2.2-4.7,2.5l-0.4-0.9c2.3-0.3,4.4-1.5,4.5-2.9h-3.9v-0.9h3.9v-1.3h1.2v1.3h3.9v0.9H1590.4z M1588.8,1282.5h-3.9v3.5
			h3.9V1282.5z M1594,1288.4h-1.2v-7.7h1.2V1288.4z"/>
		<path class="st2" d="M1604.9,1284.2c0,2.4,1.5,4.9,3.5,5.8l-0.7,1c-1.5-0.8-2.8-2.4-3.4-4.3c-0.6,2-1.8,3.7-3.3,4.5l-0.8-1
			c2-1,3.5-3.6,3.5-6.1v-2.4h1.2V1284.2z M1611.2,1280.7v13.5h-1.2v-7.9h-3.1v-1h3.1v-4.6H1611.2z"/>
		<path class="st2" d="M1615.9,1281.8v3.6h3.9v-3.6h1.2v9.1h-6.3v-9.1H1615.9z M1615.9,1289.9h3.9v-3.5h-3.9V1289.9z M1625,1280.7
			v13.5h-1.2v-13.5H1625z"/>
		<path class="st2" d="M1639.9,1291.3v1h-12.2v-1H1639.9z M1638.8,1288.4c-2-0.5-4.1-1.9-5-3.9c-0.9,2-3,3.4-5,3.9l-0.6-1
			c2.4-0.5,4.9-2.5,4.9-4.8v-1h1.3v1c0,2.3,2.5,4.3,4.9,4.8L1638.8,1288.4z"/>
	</g>
	<g class="st0">
		<path class="st2" d="M1588.8,1304.4c0,3.5-1.2,6.7-5,8.8l-0.7-0.9c3.1-1.7,4.4-4.2,4.5-6.9h-4v-1H1588.8z M1594.4,1302.7v13.5
			h-1.2v-7h-1.8v6.4h-1.2V1303h1.2v5.1h1.8v-5.4H1594.4z"/>
		<path class="st2" d="M1603.6,1309.1h-6.2v-5.9h1.2v1.9h3.8v-1.9h1.2V1309.1z M1602.4,1306.1h-3.8v2h3.8V1306.1z M1599.9,1315h7.8
			v1h-9v-3.4h7.3v-1.4h-7.3v-1h8.5v3.3h-7.3V1315z M1609.2,1305.6v1h-2v3h-1.2v-6.9h1.2v2.9H1609.2z"/>
	</g>
	<ellipse id="타원_9" class="st2" cx="1596" cy="1379" rx="6" ry="6"/>
	<ellipse id="타원_10" class="st2" cx="1456" cy="1434" rx="6" ry="6"/>
	<g class="st0">
		<path d="M1282.4,1283.3h-6.7v-1.2h2.6v-1.4h1.5v1.4h2.6V1283.3z M1279.1,1288.7c-1.7,0-2.9-1-2.9-2.4c0-1.5,1.2-2.4,2.9-2.4
			c1.7,0,2.9,1,2.9,2.4C1282,1287.7,1280.8,1288.7,1279.1,1288.7z M1279.1,1287.6c0.9,0,1.5-0.5,1.5-1.3c0-0.8-0.6-1.3-1.5-1.3
			c-0.9,0-1.5,0.5-1.5,1.3C1277.6,1287.1,1278.2,1287.6,1279.1,1287.6z M1278,1289.8h9.2v4.4h-1.5v-3.1h-7.6V1289.8z M1287.2,1280.6
			v8.4h-1.5v-3.5h-1.4v3.4h-1.5v-8.1h1.5v3.5h1.4v-3.7H1287.2z"/>
		<path d="M1297,1287.8c-1.6-0.5-2.7-1.5-3.3-2.9c-0.6,1.5-1.8,2.6-3.4,3.2l-0.8-1.2c2.1-0.7,3.3-2.5,3.3-4.3v-1.3h1.6v1.3
			c0,1.8,1.2,3.5,3.3,4.1L1297,1287.8z M1291.9,1289h8.9v5h-8.9V1289z M1293.4,1292.8h5.8v-2.5h-5.8V1292.8z M1300.7,1280.6v7.7
			h-1.5v-7.7H1300.7z"/>
		<path d="M1310.8,1286.4c0,2.9-1.5,4.8-3.5,4.8c-2,0-3.5-1.8-3.5-4.8c0-2.9,1.5-4.8,3.5-4.8
			C1309.3,1281.6,1310.8,1283.5,1310.8,1286.4z M1305.3,1286.4c0,2.1,0.8,3.4,2,3.4c1.2,0,2-1.3,2-3.4c0-2.1-0.8-3.4-2-3.4
			C1306.1,1283,1305.3,1284.3,1305.3,1286.4z M1314.5,1280.6v13.6h-1.6v-13.6H1314.5z"/>
		<path d="M1329.4,1289.5h-3v4.8h-1.5v-4.8h-3.2v4.8h-1.5v-4.8h-3v-1.3h12.3V1289.5z M1328.3,1286.9c-2.2-0.4-4.1-1.5-5-3.1
			c-0.9,1.6-2.7,2.7-5,3.1l-0.6-1.3c2.7-0.4,4.7-2.1,4.7-3.9v-0.7h1.6v0.7c0,1.8,2,3.5,4.8,3.9L1328.3,1286.9z"/>
	</g>
	<g class="st0">
		<path d="M1253.2,1419.8c-0.6,0.7-1.6,1.1-2.7,1.1c-2,0-3.5-1.4-3.5-3.3c0-1.9,1.5-3.3,3.5-3.3c1.1,0,2.1,0.4,2.7,1.1h3.3v-1.9h1.5
			v8h-1.5v-1.8H1253.2z M1250.5,1419.6c1.2,0,2-0.8,2-2c0-1.2-0.9-2-2-2c-1.2,0-2.1,0.8-2.1,2
			C1248.4,1418.8,1249.3,1419.6,1250.5,1419.6z M1258,1424.5c0,1.7-1.8,2.6-4.6,2.6s-4.6-1-4.6-2.6c0-1.6,1.7-2.6,4.6-2.6
			S1258,1422.9,1258,1424.5z M1256.5,1424.5c0-0.9-1.1-1.4-3-1.4c-1.9,0-3,0.5-3,1.4c0,0.9,1.1,1.4,3,1.4
			C1255.4,1425.9,1256.5,1425.4,1256.5,1424.5z M1253.9,1416.7c0.1,0.3,0.1,0.6,0.1,0.9s0,0.6-0.1,0.9h2.6v-1.8H1253.9z"/>
		<path d="M1268.6,1416.3h-8v-1.2h3.2v-1.5h1.5v1.5h3.2V1416.3z M1264.6,1421.7c-2,0-3.3-0.9-3.3-2.4c0-1.5,1.3-2.4,3.3-2.4
			c2,0,3.3,0.9,3.3,2.4C1267.9,1420.7,1266.5,1421.7,1264.6,1421.7z M1271.3,1424.8c0,1.5-1.7,2.4-4.5,2.4c-2.8,0-4.5-0.9-4.5-2.4
			c0-1.5,1.7-2.4,4.5-2.4C1269.6,1422.4,1271.3,1423.3,1271.3,1424.8z M1264.6,1420.5c1.1,0,1.8-0.5,1.8-1.3c0-0.8-0.7-1.3-1.8-1.3
			c-1.1,0-1.8,0.5-1.8,1.3C1262.8,1420,1263.5,1420.5,1264.6,1420.5z M1269.8,1424.8c0-0.8-1.1-1.2-2.9-1.2c-1.9,0-2.9,0.4-2.9,1.2
			c0,0.8,1.1,1.2,2.9,1.2C1268.7,1426,1269.8,1425.6,1269.8,1424.8z M1271.1,1417.1v1.6h1.9v1.3h-1.9v2.3h-1.5v-8.7h1.5v2.2h1.9v1.3
			H1271.1z"/>
	</g>
	<g class="st0">
		<path d="M1254.7,1442.8c-2.5,0.4-5.5,0.5-7.7,0.5l-0.2-1.3c0.5,0,1,0,1.6,0v-4.2h-1.2v-1.3h7.1v1.3h-1.2v4c0.5,0,1-0.1,1.5-0.1
			L1254.7,1442.8z M1258,1446.7c0,1.6-1.7,2.5-4.6,2.5s-4.6-0.9-4.6-2.5c0-1.6,1.7-2.5,4.6-2.5S1258,1445.1,1258,1446.7z
			 M1249.8,1442c0.6,0,1.1,0,1.7-0.1v-4.1h-1.7V1442z M1256.5,1446.7c0-0.9-1.1-1.3-3-1.3s-3,0.5-3,1.3c0,0.8,1.1,1.3,3,1.3
			S1256.5,1447.5,1256.5,1446.7z M1256.4,1441.6h-2v-1.2h2v-1.2h-2v-1.2h2v-2.3h1.5v8.3h-1.5V1441.6z"/>
		<path d="M1267.5,1437c0,3.9-1.7,7.4-6.1,9.6l-0.9-1.2c3.3-1.7,5.1-4.1,5.4-7.2h-4.7v-1.3H1267.5z M1273.1,1442.2h-2.1v6.9h-1.5
			v-13.5h1.5v5.4h2.1V1442.2z"/>
	</g>
	<line id="선_385" class="st4" x1="1221" y1="1224.5" x2="1660" y2="1224.5"/>
	<line id="선_394" class="st3" x1="1221" y1="1351.5" x2="1660" y2="1351.5"/>
	<line id="선_395" class="st3" x1="1300.5" y1="1407.5" x2="1660" y2="1407.5"/>
	<line id="선_396" class="st3" x1="1300.5" y1="1463.5" x2="1660" y2="1463.5"/>
	<line id="선_393" class="st4" x1="1221" y1="1519.5" x2="1660" y2="1519.5"/>
</g>
</svg>
