<?xml version="1.0" encoding="utf-8"?>
<!-- Generator: Adobe Illustrator 25.1.0, SVG Export Plug-In . SVG Version: 6.00 Build 0)  -->
<svg version="1.1" id="레이어_1" xmlns="http://www.w3.org/2000/svg" xmlns:xlink="http://www.w3.org/1999/xlink" x="0px"
	 y="0px" viewBox="0 0 336 144.3" style="enable-background:new 0 0 336 144.3;" xml:space="preserve">
<style type="text/css">
	.st0{enable-background:new    ;}
	.st1{fill:#DF1C2F;}
	.st2{fill:#FAFAFA;}
	.st3{fill:none;stroke:#D6D6D6;}
	.st4{fill:none;stroke:#717171;}
</style>
<g id="그룹_5726" transform="translate(-19.5 -1120.931)">
	<g class="st0">
		<path class="st1" d="M27.7,1130.7c0,2.8-1.4,4.6-3.4,4.6c-1.9,0-3.4-1.8-3.4-4.6c0-2.8,1.4-4.6,3.4-4.6
			C26.3,1126.1,27.7,1127.9,27.7,1130.7z M22.7,1130.7c0,1.9,0.7,2.9,1.6,2.9s1.6-1,1.6-2.9c0-1.9-0.7-2.9-1.6-2.9
			S22.7,1128.8,22.7,1130.7z M31.3,1125.2v12.9h-1.8v-12.9H31.3z"/>
		<path class="st1" d="M45.2,1133.8h-2.6v4.4h-1.8v-4.4H38v4.4h-1.8v-4.4h-2.7v-1.5h11.7V1133.8z M44,1131.4
			c-2.2-0.4-3.9-1.4-4.7-2.8c-0.8,1.4-2.5,2.5-4.7,2.8l-0.7-1.5c2.9-0.4,4.4-2.1,4.4-3.6v-0.6h2v0.6c0,1.5,1.5,3.2,4.4,3.6
			L44,1131.4z"/>
		<path class="st1" d="M46.4,1134c2.3,0,5.4,0,8.2-0.4l0.1,1.3c-2.8,0.6-5.8,0.6-8,0.6L46.4,1134z M54.1,1129.3
			c0,1.9-1.5,3.2-3.6,3.2s-3.5-1.3-3.5-3.2c0-1.8,1.5-3.2,3.5-3.2S54.1,1127.4,54.1,1129.3z M48.8,1129.3c0,1,0.8,1.6,1.8,1.6
			s1.8-0.6,1.8-1.6s-0.8-1.6-1.8-1.6S48.8,1128.3,48.8,1129.3z M57.1,1125.2v12.9h-1.8v-12.9H57.1z"/>
		<path class="st1" d="M68.5,1131.3c-0.6,0.6-1.5,1-2.5,1c-1.9,0-3.4-1.3-3.4-3.2c0-1.8,1.5-3.2,3.4-3.2c1,0,1.9,0.4,2.5,1h2.8v-1.7
			h1.8v7.6h-1.8v-1.5H68.5z M66,1130.7c1,0,1.7-0.6,1.7-1.6c0-1-0.7-1.6-1.7-1.6s-1.6,0.6-1.6,1.6C64.3,1130.1,65,1130.7,66,1130.7z
			 M73.3,1135.6c0,1.6-1.7,2.5-4.4,2.5c-2.7,0-4.4-0.9-4.4-2.5c0-1.6,1.7-2.5,4.4-2.5C71.6,1133.1,73.3,1134,73.3,1135.6z
			 M71.4,1135.6c0-0.8-0.9-1.1-2.6-1.1c-1.7,0-2.6,0.4-2.6,1.1c0,0.8,0.9,1.1,2.6,1.1C70.5,1136.7,71.4,1136.4,71.4,1135.6z
			 M69.3,1128.4c0,0.2,0.1,0.4,0.1,0.7c0,0.2,0,0.5-0.1,0.7h2.1v-1.4H69.3z"/>
		<path class="st1" d="M82.9,1127.9h-7.6v-1.4h2.9v-1.3H80v1.3h2.9V1127.9z M79.1,1132.9c-1.9,0-3.2-0.9-3.2-2.3
			c0-1.4,1.3-2.3,3.2-2.3c1.9,0,3.2,0.9,3.2,2.3C82.3,1132,81,1132.9,79.1,1132.9z M85.6,1135.9c0,1.4-1.7,2.3-4.3,2.3
			c-2.7,0-4.3-0.9-4.3-2.3c0-1.4,1.7-2.3,4.3-2.3C83.9,1133.6,85.6,1134.4,85.6,1135.9z M79.1,1131.6c0.8,0,1.4-0.3,1.4-1
			c0-0.6-0.6-1-1.4-1c-0.8,0-1.4,0.3-1.4,1C77.7,1131.3,78.3,1131.6,79.1,1131.6z M83.7,1135.9c0-0.6-0.9-0.9-2.5-0.9
			c-1.6,0-2.5,0.3-2.5,0.9c0,0.6,0.9,0.9,2.5,0.9C82.9,1136.8,83.7,1136.5,83.7,1135.9z M85.5,1128.6v1.3h1.7v1.5h-1.7v2h-1.8v-8.2
			h1.8v1.8h1.7v1.5H85.5z"/>
	</g>
	<rect id="사각형_388" x="20" y="1150.9" class="st2" width="335" height="56.9"/>
	<path id="패스_1678" class="st3" d="M232.5,1179.4h122.3"/>
	<path id="패스_2364" class="st3" d="M232.5,1151.2v113.6"/>
	<path id="패스_2434" class="st3" d="M273.3,1179.4v85.3"/>
	<path id="패스_2435" class="st3" d="M314.1,1179.9v85.3"/>
	<path id="패스_1677" class="st3" d="M20,1207.8h335"/>
	<path id="패스_2342" class="st3" d="M20,1236.4h335"/>
	<path id="패스_2343" class="st4" d="M20,1264.7h335"/>
	<path id="패스_1677-2" class="st4" d="M20,1150.9h335"/>
	<g class="st0">
		<path d="M36.3,1217.3h0.9v9.2h-0.9v-4.8h-1.2c-0.1,1.9-0.9,3.1-2.1,3.1c-1.3,0-2.1-1.3-2.1-3.5c0-2.1,0.8-3.4,2.1-3.4
			c1.2,0,2,1.2,2.1,3h1.2V1217.3z M34.3,1221.3c0-1.6-0.5-2.6-1.3-2.6c-0.8,0-1.3,1-1.3,2.6c0,1.6,0.5,2.6,1.3,2.6
			C33.8,1223.9,34.3,1222.9,34.3,1221.3z M39.2,1217v9.9h-0.9v-9.9H39.2z"/>
		<path d="M42.3,1223.8c1.5,0,2.8-0.1,4.3-0.4l0.1,0.8c-1.6,0.3-2.9,0.4-4.5,0.4h-0.8v-6.4h0.9V1223.8z M49,1217v9.9h-0.9v-5.9h-3
			v-0.7h3v-3.3H49z"/>
		<path d="M54.5,1220c0,1.7,1.2,3.4,2.6,4l-0.5,0.7c-1.1-0.5-2.1-1.7-2.6-3c-0.5,1.4-1.4,2.7-2.5,3.3l-0.5-0.7
			c1.4-0.7,2.6-2.5,2.6-4.2v-1.3h-2.3v-0.7h5.5v0.7h-2.3V1220z M59.1,1217v9.9h-0.9v-9.9H59.1z"/>
		<path d="M72.6,1224.9v0.7h-9v-0.7h4v-2.4h0.9v2.4H72.6z M71.7,1222.6c-1.5-0.3-3.1-1.3-3.7-2.8c-0.6,1.4-2.2,2.4-3.7,2.8l-0.4-0.7
			c1.7-0.3,3.6-1.8,3.6-3.4v-0.8h0.9v0.8c0,1.6,1.9,3.1,3.6,3.4L71.7,1222.6z"/>
		<path d="M75.2,1217.9v2.6H78v-2.6h0.9v6.7h-4.6v-6.7H75.2z M75.2,1223.8H78v-2.6h-2.9V1223.8z M81.8,1217v9.9h-0.9v-9.9H81.8z"/>
		<path d="M89.7,1222.1c-1.6,0.3-2.9,0.3-4.7,0.3h-0.8v-2.8h3.5v-1.2h-3.6v-0.7h4.4v2.7h-3.5v1.4c1.7,0,3-0.1,4.5-0.3L89.7,1222.1z
			 M91.6,1225.1c0,1.1-1.2,1.8-3.2,1.8c-2,0-3.2-0.6-3.2-1.8s1.2-1.8,3.2-1.8C90.4,1223.3,91.6,1224,91.6,1225.1z M90.7,1225.1
			c0-0.7-0.9-1.1-2.4-1.1s-2.4,0.4-2.4,1.1s0.9,1.1,2.4,1.1S90.7,1225.8,90.7,1225.1z M91.5,1219.3v1.3H93v0.7h-1.5v1.6h-0.9v-6h0.9
			v1.5H93v0.7H91.5z"/>
		<path d="M102.6,1222.5c-2,0.3-4.4,0.4-6.2,0.4l-0.1-0.7c0.6,0,1.3,0,2.1,0v-2.1h0.9v2.1c1.1,0,2.2-0.1,3.2-0.3L102.6,1222.5z
			 M100.7,1221.1c0.2-1.1,0.3-2,0.3-2.6h-4v-0.7h4.9v0.5c0,0.6,0,1.6-0.3,2.9L100.7,1221.1z M98.8,1225.9h5.7v0.7h-6.6v-2.9h0.9
			V1225.9z M105.5,1220.2v0.7h-1.4v3.5h-0.9v-7.4h0.9v3.2H105.5z"/>
		<path d="M108,1223.8c1.6,0,3.1-0.1,4.8-0.4l0.1,0.7c-1.8,0.3-3.3,0.4-5,0.4h-0.8v-3.8h3.6v-2.1h-3.7v-0.7h4.6v3.5H108V1223.8z
			 M114.6,1217v9.9h-0.9v-9.9H114.6z"/>
		<path d="M124.3,1221.7h-4.6v-4h4.6V1221.7z M124.6,1224.1c0,0.9,1.6,1.9,3.2,2.1l-0.3,0.7c-1.5-0.2-2.8-0.9-3.4-1.8
			c-0.6,0.9-2,1.6-3.4,1.8l-0.3-0.7c1.7-0.2,3.3-1.1,3.3-2.1h-2.9v-0.7h2.9v-1h0.9v1h2.9v0.7H124.6z M123.4,1218.4h-2.8v2.6h2.8
			V1218.4z M127.2,1222.7h-0.9v-5.7h0.9V1222.7z"/>
		<path d="M140.7,1225v0.7h-8.9v-0.7h2.4v-1.8c-0.7-0.3-1.1-0.8-1.1-1.5c0-1.2,1.2-1.8,3.2-1.8c2,0,3.2,0.7,3.2,1.8
			c0,0.7-0.4,1.2-1.1,1.5v1.8H140.7z M140.2,1219.2h-8v-0.7h3.6v-1.3h0.9v1.3h3.5V1219.2z M133.8,1221.7c0,0.7,0.9,1.1,2.3,1.1
			c1.4,0,2.3-0.4,2.3-1.1c0-0.7-0.9-1.1-2.3-1.1C134.7,1220.6,133.8,1221,133.8,1221.7z M135,1225h2.4v-1.6
			c-0.4,0.1-0.8,0.1-1.2,0.1c-0.5,0-0.9,0-1.2-0.1V1225z"/>
		<path d="M148.3,1221.9v1h1.3v2.2h-5.8v1h6.1v0.7h-7v-2.4h5.8v-0.9h-5.8v-0.7h1.3v-1h-2.4v-0.7h8.9v0.7H148.3z M142.8,1218.9
			c0-1.1,1.3-1.7,3.5-1.7c2.2,0,3.5,0.6,3.5,1.7c0,1.1-1.3,1.7-3.5,1.7C144.1,1220.6,142.8,1220,142.8,1218.9z M143.7,1218.9
			c0,0.7,0.9,1,2.5,1c1.6,0,2.5-0.4,2.5-1c0-0.7-0.9-1-2.5-1C144.7,1217.8,143.7,1218.2,143.7,1218.9z M147.4,1221.9h-2.2v1h2.2
			V1221.9z"/>
		<path d="M163.3,1221.7v0.7h-8.9v-0.7H163.3z M154.9,1220.4c1.7-0.2,3.3-1,3.4-2.1h-3.1v-0.7h7.3v0.7h-3.1c0,1.1,1.6,2,3.4,2.1
			l-0.3,0.7c-1.6-0.2-3.1-0.9-3.6-2c-0.6,1.1-2,1.8-3.6,2L154.9,1220.4z M162.3,1225.1c0,1.2-1.3,1.8-3.4,1.8
			c-2.1,0-3.4-0.6-3.4-1.8c0-1.1,1.3-1.8,3.4-1.8C161,1223.3,162.3,1224,162.3,1225.1z M161.3,1225.1c0-0.7-0.9-1.1-2.5-1.1
			c-1.6,0-2.5,0.4-2.5,1.1c0,0.7,0.9,1.1,2.5,1.1C160.4,1226.2,161.3,1225.8,161.3,1225.1z"/>
		<path d="M165.8,1223.7c1.3,0,2.3-0.1,3.3-0.3l0.1,0.7c-1.2,0.3-2.2,0.3-3.7,0.3h-0.6v-6.2h3.7v0.7h-2.8V1223.7z M172.9,1217v9.9
			h-0.9v-5.2h-1.4v4.7h-0.8v-9.2h0.8v3.7h1.4v-4H172.9z"/>
	</g>
	<g class="st0">
		<path d="M36.4,1251.5c-1.1-0.4-2-1.1-2.5-2.2c-0.4,1.1-1.3,1.9-2.5,2.3L31,1251c1.5-0.5,2.5-1.7,2.5-3.1v-0.3h-2.2v-0.7h2.2v-1.3
			h0.9v1.3h2.2v0.7h-2.2v0.3c0,1.3,1,2.5,2.5,2.9L36.4,1251.5z M39.2,1254.5v0.7h-6.6v-3h0.9v2.3H39.2z M38.9,1252.9H38v-7.3h0.9
			V1252.9z"/>
		<path d="M47.1,1251.8c-2.1,0.4-4.5,0.4-6.2,0.4l-0.1-0.7c0.8,0,1.7,0,2.6,0v-0.7c-1.1-0.1-1.9-0.7-1.9-1.5c0-0.9,0.9-1.5,2.3-1.5
			c1.4,0,2.3,0.6,2.3,1.5c0,0.8-0.7,1.4-1.8,1.5v0.7c0.9,0,1.8-0.1,2.7-0.3L47.1,1251.8z M46.8,1247.2h-5.7v-0.7h2.4v-1h0.9v1h2.4
			V1247.2z M43.2,1254.5h5.7v0.7h-6.6v-2.4h0.9V1254.5z M43.9,1250c0.9,0,1.4-0.3,1.4-0.9c0-0.5-0.6-0.9-1.4-0.9
			c-0.9,0-1.5,0.3-1.5,0.9C42.5,1249.7,43,1250,43.9,1250z M50,1249v0.7h-1.5v3.5h-0.9v-7.7h0.9v3.4H50z"/>
		<path d="M55.8,1248.1c-0.6,1.6-2.1,2.7-4.3,3.4l-0.4-0.7c2.4-0.7,3.8-2,4-3.7h-3.5v-0.7h4.5c0,0.4,0,0.7-0.1,1.1h2.2v-1.8h0.9v5.9
			h-0.9v-1.3h-2.6v-0.7h2.6v-1.3H55.8z M59.2,1253.5c0,1.2-1.3,1.9-3.3,1.9s-3.3-0.7-3.3-1.9c0-1.2,1.3-1.9,3.3-1.9
			S59.2,1252.3,59.2,1253.5z M58.3,1253.5c0-0.7-0.9-1.2-2.4-1.2s-2.4,0.5-2.4,1.2c0,0.7,0.9,1.2,2.4,1.2S58.3,1254.3,58.3,1253.5z"
			/>
		<path d="M66.5,1248.4c0,1.7,0.7,3.4,2.1,4.2l-0.5,0.7c-1-0.6-1.6-1.6-2-2.9c-0.3,1.4-1.1,2.5-2,3.1l-0.6-0.7
			c1.4-0.8,2.1-2.6,2.1-4.4v-0.9h-1.9v-0.7h4.5v0.7h-1.8V1248.4z M69.1,1245.8H70v9.1h-0.9v-5.1h-1.6v-0.7h1.6V1245.8z M72,1245.6
			v9.9h-0.9v-9.9H72z"/>
		<path d="M78.6,1251.1v1.2h2.9v3.1h-6.7v-3.1h2.9v-1.2h-4v-0.7h8.9v0.7H78.6z M76,1246.6h-1.5v-0.7h7.2v0.7h-1.5v2.1h1.5v0.7h-7.2
			v-0.7H76V1246.6z M80.7,1253h-5v1.6h5V1253z M79.4,1246.6h-2.5v2.1h2.5V1246.6z"/>
		<path d="M91.4,1250.3h-4.6v-4h4.6V1250.3z M91.7,1252.6c0,0.9,1.6,1.9,3.2,2.1l-0.3,0.7c-1.5-0.2-2.8-0.9-3.4-1.8
			c-0.6,0.9-2,1.6-3.4,1.8l-0.3-0.7c1.7-0.2,3.3-1.1,3.3-2.1h-2.9v-0.7h2.9v-1h0.9v1h2.9v0.7H91.7z M90.6,1246.9h-2.8v2.6h2.8
			V1246.9z M94.4,1251.3h-0.9v-5.7h0.9V1251.3z"/>
		<path d="M102.3,1248.2c0,1.8,1.1,3.6,2.6,4.3l-0.5,0.7c-1.1-0.6-2-1.7-2.5-3.1c-0.4,1.5-1.3,2.7-2.5,3.3l-0.6-0.7
			c1.4-0.7,2.6-2.6,2.6-4.4v-1.8h0.9V1248.2z M107,1245.6v9.9h-0.9v-5.8h-2.3v-0.7h2.3v-3.3H107z"/>
		<path d="M110.5,1246.4v2.6h2.9v-2.6h0.9v6.7h-4.6v-6.7H110.5z M110.5,1252.3h2.9v-2.6h-2.9V1252.3z M117.1,1245.6v9.9h-0.9v-9.9
			H117.1z"/>
		<path d="M128.1,1253.4v0.7h-8.9v-0.7H128.1z M127.2,1251.3c-1.5-0.3-3-1.4-3.7-2.8c-0.6,1.4-2.2,2.5-3.7,2.8l-0.4-0.7
			c1.7-0.3,3.6-1.8,3.6-3.5v-0.8h0.9v0.8c0,1.7,1.9,3.2,3.6,3.5L127.2,1251.3z"/>
		<path d="M135.9,1246.9c0,2.5-0.9,4.9-3.7,6.5l-0.5-0.6c2.3-1.3,3.2-3,3.3-5.1h-3v-0.7H135.9z M140.1,1245.6v9.9h-0.9v-5.2h-1.3
			v4.7H137v-9.1h0.8v3.7h1.3v-4H140.1z"/>
		<path d="M146.8,1250.3h-4.6v-4.3h0.9v1.4h2.8v-1.4h0.9V1250.3z M145.9,1248.1h-2.8v1.5h2.8V1248.1z M144.1,1254.6h5.7v0.7h-6.6
			v-2.5h5.3v-1h-5.4v-0.7h6.3v2.4h-5.4V1254.6z M151,1247.7v0.7h-1.5v2.2h-0.9v-5.1h0.9v2.1H151z"/>
	</g>
	<circle id="타원_7" cx="293.5" cy="1221.3" r="4.5"/>
	<circle id="타원_8" cx="253.5" cy="1250.5" r="4.5"/>
	<g class="st0">
		<path d="M244.9,1189.6v2.6h2.9v-2.6h0.9v6.7H244v-6.7H244.9z M244.9,1195.6h2.9v-2.6h-2.9V1195.6z M251.5,1188.8v9.9h-0.9v-9.9
			H251.5z"/>
		<path d="M262.5,1193.7v0.7h-8.9v-0.7h2.2v-1.4c-0.8-0.3-1.2-0.8-1.2-1.5c0-1.2,1.3-1.8,3.5-1.8c2.1,0,3.5,0.7,3.5,1.8
			c0,0.7-0.4,1.2-1.2,1.5v1.4H262.5z M261.4,1196.9c0,1.1-1.3,1.7-3.4,1.7c-2.1,0-3.4-0.6-3.4-1.7c0-1.1,1.3-1.8,3.4-1.8
			C260.2,1195.1,261.4,1195.8,261.4,1196.9z M258,1191.9c1.6,0,2.5-0.4,2.5-1.1c0-0.7-1-1.1-2.5-1.1s-2.5,0.4-2.5,1.1
			C255.5,1191.5,256.5,1191.9,258,1191.9z M260.5,1196.9c0-0.7-0.9-1.1-2.5-1.1c-1.6,0-2.5,0.4-2.5,1.1s0.9,1.1,2.5,1.1
			C259.6,1198,260.5,1197.6,260.5,1196.9z M256.7,1193.7h2.7v-1.2c-0.4,0.1-0.9,0.1-1.4,0.1c-0.5,0-1,0-1.4-0.1V1193.7z"/>
	</g>
	<g class="st0">
		<path d="M292.4,1195.1h-4v3.6h-0.9v-3.6h-4v-0.7h8.9L292.4,1195.1z M291.6,1193.3c-1.5-0.3-3-1.1-3.7-2.3c-0.6,1.2-2.1,2-3.6,2.3
			l-0.4-0.7c1.8-0.3,3.5-1.5,3.5-2.9v-0.5h0.9v0.5c0,1.4,1.8,2.6,3.6,2.9L291.6,1193.3z"/>
		<path d="M299,1191.7c0,1.4-1.1,2.3-2.6,2.3c-1.5,0-2.6-0.9-2.6-2.3c0-1.4,1.1-2.3,2.6-2.3C297.9,1189.4,299,1190.3,299,1191.7z
			 M294.7,1191.7c0,0.9,0.7,1.6,1.7,1.6c1,0,1.7-0.6,1.7-1.6s-0.7-1.6-1.7-1.6C295.4,1190.2,294.7,1190.8,294.7,1191.7z
			 M301.7,1195.2v3.5h-0.9v-2.7h-5.7v-0.7H301.7z M301.7,1188.8v5.9h-0.9v-5.9H301.7z"/>
	</g>
	<g class="st0">
		<path d="M321.9,1195.5c1.6,0,3.1-0.1,4.8-0.4l0.1,0.7c-1.8,0.3-3.3,0.4-5,0.4H321v-3.8h3.6v-2.1h-3.7v-0.7h4.6v3.5h-3.6V1195.5z
			 M328.5,1188.8v9.9h-0.9v-9.9H328.5z"/>
		<path d="M339.5,1196.6v0.7h-8.9v-0.7H339.5z M338.6,1194.5c-1.5-0.3-3-1.4-3.7-2.8c-0.6,1.4-2.2,2.5-3.7,2.8l-0.4-0.7
			c1.7-0.3,3.6-1.8,3.6-3.5v-0.8h0.9v0.8c0,1.7,1.9,3.2,3.6,3.5L338.6,1194.5z"/>
		<path d="M349.6,1196.6v0.7h-8.9v-0.7H349.6z M347.6,1192.5c0-0.5,0-1,0-1.5v-0.5h-5.9v-0.7h6.8v1.2c0,1.5,0,2.8-0.4,4.8l-0.9-0.1
			c0.2-0.9,0.3-1.8,0.4-2.5l-6,0.3l-0.1-0.7L347.6,1192.5z"/>
	</g>
	<g>
		<g class="st0">
			<path d="M113.5,1175.9h-5v-0.9h1.9v-1h1.1v1h1.9V1175.9z M111,1179.9c-1.2,0-2.1-0.7-2.1-1.8c0-1.1,0.9-1.8,2.1-1.8
				c1.3,0,2.1,0.7,2.1,1.8C113.1,1179.1,112.2,1179.9,111,1179.9z M111,1179c0.7,0,1.1-0.4,1.1-0.9c0-0.6-0.5-0.9-1.1-0.9
				c-0.7,0-1.1,0.4-1.1,0.9C109.9,1178.7,110.3,1179,111,1179z M110.2,1180.6h6.7v3.2h-1.1v-2.3h-5.6V1180.6z M117,1173.9v6.2h-1.1
				v-2.6h-1v2.5h-1.1v-6h1.1v2.5h1v-2.7H117z"/>
			<path d="M124.2,1179.2c-1.1-0.4-2-1.1-2.4-2.1c-0.5,1.1-1.3,1.9-2.5,2.3l-0.5-0.9c1.6-0.5,2.5-1.8,2.5-3.2v-1h1.2v1
				c0,1.3,0.9,2.5,2.4,3L124.2,1179.2z M120.4,1180.1h6.5v3.7h-6.5V1180.1z M121.5,1182.8h4.3v-1.8h-4.3V1182.8z M126.9,1173.9v5.6
				h-1.1v-5.6H126.9z"/>
			<path d="M134.2,1178.1c0,2.2-1.1,3.5-2.6,3.5c-1.5,0-2.6-1.4-2.6-3.5c0-2.1,1.1-3.5,2.6-3.5
				C133.2,1174.6,134.2,1176,134.2,1178.1z M130.2,1178.1c0,1.6,0.6,2.5,1.5,2.5c0.9,0,1.5-0.9,1.5-2.5c0-1.5-0.6-2.5-1.5-2.5
				C130.8,1175.7,130.2,1176.6,130.2,1178.1z M137,1173.9v10h-1.1v-10H137z"/>
			<path d="M147.9,1180.4h-2.2v3.5h-1.1v-3.5h-2.4v3.5h-1.1v-3.5h-2.2v-0.9h9V1180.4z M147.1,1178.6c-1.6-0.3-3-1.1-3.6-2.3
				c-0.6,1.2-2,2-3.6,2.3l-0.4-0.9c2-0.3,3.5-1.5,3.5-2.9v-0.5h1.2v0.5c0,1.3,1.5,2.6,3.5,2.9L147.1,1178.6z"/>
		</g>
	</g>
	<g>
		<g class="st0">
			<path d="M280.3,1165.3c-0.5,0.5-1.2,0.8-2,0.8c-1.5,0-2.6-1-2.6-2.4c0-1.4,1.1-2.4,2.6-2.4c0.8,0,1.5,0.3,2,0.8h2.4v-1.4h1.1v5.9
				h-1.1v-1.3H280.3z M278.3,1165.2c0.9,0,1.5-0.6,1.5-1.4c0-0.9-0.6-1.4-1.5-1.4c-0.9,0-1.5,0.6-1.5,1.4
				C276.8,1164.6,277.4,1165.2,278.3,1165.2z M283.8,1168.8c0,1.2-1.3,1.9-3.4,1.9s-3.3-0.7-3.3-1.9c0-1.2,1.3-1.9,3.3-1.9
				S283.8,1167.6,283.8,1168.8z M282.7,1168.8c0-0.7-0.8-1-2.2-1c-1.4,0-2.2,0.4-2.2,1c0,0.7,0.8,1,2.2,1
				C281.9,1169.8,282.7,1169.4,282.7,1168.8z M280.8,1163.1c0.1,0.2,0.1,0.4,0.1,0.7s0,0.5-0.1,0.7h1.9v-1.3H280.8z"/>
			<path d="M291.6,1162.7h-5.9v-0.9h2.4v-1.1h1.1v1.1h2.4V1162.7z M288.6,1166.7c-1.4,0-2.4-0.7-2.4-1.8c0-1.1,1-1.8,2.4-1.8
				c1.4,0,2.4,0.7,2.4,1.8C291,1166,290.1,1166.7,288.6,1166.7z M293.5,1169c0,1.1-1.3,1.7-3.3,1.7c-2,0-3.3-0.6-3.3-1.7
				c0-1.1,1.3-1.7,3.3-1.7C292.3,1167.2,293.5,1167.9,293.5,1169z M288.6,1165.8c0.8,0,1.3-0.4,1.3-0.9c0-0.6-0.5-0.9-1.3-0.9
				c-0.8,0-1.3,0.4-1.3,0.9C287.3,1165.5,287.8,1165.8,288.6,1165.8z M292.4,1169c0-0.6-0.8-0.9-2.2-0.9c-1.4,0-2.2,0.3-2.2,0.9
				c0,0.6,0.8,0.9,2.2,0.9C291.6,1169.8,292.4,1169.5,292.4,1169z M293.4,1163.3v1.2h1.4v0.9h-1.4v1.7h-1.1v-6.4h1.1v1.6h1.4v0.9
				H293.4z"/>
			<path d="M301.6,1166c-1.9,0.3-4.1,0.4-5.7,0.4l-0.1-0.9c0.4,0,0.8,0,1.2,0v-3.1h-0.9v-0.9h5.2v0.9h-0.9v2.9
				c0.4,0,0.8-0.1,1.1-0.1L301.6,1166z M304.1,1168.9c0,1.1-1.3,1.8-3.4,1.8c-2.1,0-3.3-0.7-3.3-1.8c0-1.2,1.3-1.8,3.3-1.8
				C302.8,1167,304.1,1167.7,304.1,1168.9z M298.1,1165.4c0.4,0,0.8,0,1.3,0v-3h-1.3V1165.4z M302.9,1168.9c0-0.6-0.8-1-2.2-1
				c-1.4,0-2.2,0.3-2.2,1c0,0.6,0.8,0.9,2.2,0.9C302.1,1169.8,302.9,1169.5,302.9,1168.9z M302.9,1165.2h-1.4v-0.9h1.4v-0.9h-1.4
				v-0.9h1.4v-1.7h1.1v6.1h-1.1V1165.2z"/>
			<path d="M311,1161.8c0,2.9-1.2,5.4-4.5,7.1l-0.6-0.9c2.4-1.2,3.7-3,4-5.3h-3.5v-0.9H311z M315.1,1165.6h-1.5v5.1h-1.1v-9.9h1.1
				v3.9h1.5V1165.6z"/>
		</g>
	</g>
</g>
</svg>
