<?xml version="1.0" encoding="utf-8"?>
<!-- Generator: Adobe Illustrator 25.1.0, SVG Export Plug-In . SVG Version: 6.00 Build 0)  -->
<svg version="1.1" id="레이어_1" xmlns="http://www.w3.org/2000/svg" xmlns:xlink="http://www.w3.org/1999/xlink" x="0px"
	 y="0px" viewBox="0 0 335 168.5" style="enable-background:new 0 0 335 168.5;" xml:space="preserve">
<style type="text/css">
	.st0{enable-background:new    ;}
	.st1{fill:#DF1C2F;}
	.st2{fill:#929397;}
	.st3{fill:#E2E2E2;}
	.st4{fill:#808080;}
	.st5{fill:#A3A3A3;}
	.st6{fill:#FFFFFF;}
	.st7{fill:none;stroke:#D5D5D5;}
</style>
<g id="그룹_5721" transform="translate(-20 -1355.269)">
	<g class="st0">
		<path class="st1" d="M32.3,1365.7v1.5H20.6v-1.5h2.6v-1.6c-0.9-0.4-1.5-1.1-1.5-1.9c0-1.5,1.8-2.5,4.7-2.5c2.9,0,4.7,0.9,4.7,2.5
			c0,0.8-0.5,1.5-1.5,1.9v1.5H32.3z M30.9,1370.1c0,1.5-1.7,2.4-4.5,2.4s-4.5-0.9-4.5-2.4s1.7-2.3,4.5-2.3S30.9,1368.6,30.9,1370.1z
			 M23.7,1362.2c0,0.7,1,1.1,2.8,1.1c1.8,0,2.8-0.4,2.8-1.1c0-0.7-1-1.1-2.8-1.1C24.7,1361.2,23.7,1361.5,23.7,1362.2z M29,1370.1
			c0-0.7-0.9-0.9-2.6-0.9c-1.7,0-2.6,0.3-2.6,0.9s0.9,1,2.6,1C28.1,1371.1,29,1370.8,29,1370.1z M25.1,1365.7h2.7v-1.1
			c-0.4,0-0.9,0.1-1.3,0.1c-0.5,0-0.9,0-1.4-0.1V1365.7z"/>
		<path class="st1" d="M45.2,1368.1h-4.9v4.4h-1.8v-4.4h-4.9v-1.5h11.7V1368.1z M44,1365.6c-2.3-0.3-3.9-1.4-4.7-2.8
			c-0.8,1.4-2.5,2.4-4.7,2.8l-0.7-1.5c2.9-0.4,4.4-2.1,4.4-3.6v-0.6h2v0.6c0,1.5,1.5,3.2,4.4,3.6L44,1365.6z"/>
		<path class="st1" d="M54.3,1362.4c0,2.3,0.9,4.7,3,5.7l-1.1,1.5c-1.3-0.7-2.3-1.9-2.8-3.5c-0.6,1.6-1.5,3-3,3.7l-1.1-1.5
			c2.2-1,3.2-3.5,3.2-5.9v-1.9h1.9V1362.4z M61.5,1366.1h-1.9v6.4h-1.8v-12.9h1.8v5h1.9V1366.1z"/>
		<path class="st1" d="M74.1,1365.7v1.5H62.4v-1.5H65v-1.6c-0.9-0.4-1.5-1.1-1.5-1.9c0-1.5,1.8-2.5,4.7-2.5c2.9,0,4.7,0.9,4.7,2.5
			c0,0.8-0.5,1.5-1.5,1.9v1.5H74.1z M72.7,1370.1c0,1.5-1.7,2.4-4.5,2.4s-4.5-0.9-4.5-2.4s1.7-2.3,4.5-2.3S72.7,1368.6,72.7,1370.1z
			 M65.5,1362.2c0,0.7,1,1.1,2.8,1.1c1.8,0,2.8-0.4,2.8-1.1c0-0.7-1-1.1-2.8-1.1C66.5,1361.2,65.5,1361.5,65.5,1362.2z M70.8,1370.1
			c0-0.7-0.9-0.9-2.6-0.9c-1.7,0-2.6,0.3-2.6,0.9s0.9,1,2.6,1C69.9,1371.1,70.8,1370.8,70.8,1370.1z M66.9,1365.7h2.7v-1.1
			c-0.4,0-0.9,0.1-1.3,0.1c-0.5,0-0.9,0-1.4-0.1V1365.7z"/>
		<path class="st1" d="M79.8,1362.8v-1h-4.1v-1.5h5.9v3.9h-4v1.1c2.1,0,3.5-0.1,5.1-0.4l0.2,1.5c-1.8,0.3-3.4,0.4-6,0.4h-1.1v-4
			H79.8z M85.6,1370c0,1.5-1.7,2.5-4.4,2.5s-4.4-0.9-4.4-2.5c0-1.6,1.7-2.5,4.4-2.5S85.6,1368.5,85.6,1370z M83.8,1370
			c0-0.7-0.9-1-2.5-1c-1.7,0-2.5,0.3-2.5,1c0,0.7,0.9,1,2.5,1C82.9,1371.1,83.8,1370.8,83.8,1370z M85.5,1362.8v1.2h1.7v1.5h-1.7
			v1.8h-1.8v-7.8h1.8v1.7h1.7v1.5H85.5z"/>
	</g>
	<g class="st0">
		<path class="st2" d="M26.4,1388.2c-1.4,0.3-2.5,0.3-4.6,0.3H21v-4.5h4.4v0.7h-3.5v3.1c1.9,0,3.1-0.1,4.4-0.3L26.4,1388.2z
			 M23,1392.1h5.7v0.7h-6.6v-3.2H23V1392.1z M29.7,1386.1v0.7h-1.5v3.5h-0.9v-7.1h0.9v2.9H29.7z"/>
		<path class="st2" d="M37.3,1388.8c-0.9,0.2-1.9,0.3-2.8,0.3v3.6h-0.9v-3.5c-1,0-1.9,0.1-2.7,0.1l-0.1-0.8c1.8,0,4.3,0,6.5-0.4
			L37.3,1388.8z M31.4,1385.7c0-1.2,1-2,2.5-2c1.5,0,2.5,0.8,2.5,2c0,1.2-1,2-2.5,2C32.5,1387.7,31.4,1386.9,31.4,1385.7z
			 M32.3,1385.7c0,0.8,0.7,1.3,1.6,1.3c1,0,1.6-0.5,1.6-1.3c0-0.8-0.7-1.3-1.6-1.3C33,1384.4,32.3,1384.9,32.3,1385.7z M38.8,1383.2
			v9.9h-0.9v-9.9H38.8z"/>
		<path class="st2" d="M43.5,1387.2c0-0.5,0.3-0.8,0.7-0.8s0.7,0.3,0.7,0.8c0,0.4-0.3,0.8-0.7,0.8S43.5,1387.6,43.5,1387.2z
			 M43.5,1391.6c0-0.5,0.3-0.8,0.7-0.8s0.7,0.3,0.7,0.8c0,0.5-0.3,0.8-0.7,0.8S43.5,1392.1,43.5,1391.6z"/>
		<path class="st2" d="M53.1,1388.4h-3.8v-4.6h0.9v1.6h2.1v-1.6h0.8V1388.4z M52.2,1386.1h-2.1v1.6h2.1V1386.1z M50.5,1389.7h6.6
			v3.3h-0.9v-2.6h-5.7V1389.7z M57.1,1383.2v5.9h-0.9v-2.6H55v2.6h-0.9v-5.7H55v2.4h1.3v-2.6H57.1z"/>
		<path class="st2" d="M63.9,1388.6h-4.5v-4.6h4.5V1388.6z M63,1384.8h-2.8v3.1H63V1384.8z M61.3,1392.1H67v0.7h-6.6v-3.1h0.9
			V1392.1z M68,1386.2v0.8h-1.5v3.5h-0.9v-7.2h0.9v3H68z"/>
		<path class="st2" d="M80.4,1388.8v0.7h-8.9v-0.7h4v-1h-2.8v-4.2h6.7v0.7h-5.8v1h5.5v0.7h-5.5v1.1h5.8v0.7h-3v1H80.4z M73.6,1392.1
			h5.9v0.7h-6.8v-2.7h0.9V1392.1z"/>
	</g>
	<path id="패스_4980" class="st3" d="M148,1523.1h46v-110h-46V1523.1z"/>
	<g class="st0">
		<path class="st4" d="M160.5,1514.1c1.7-1.5,3.5-2.8,3.5-4.3c0-0.8-0.3-1.3-1.2-1.3c-0.8,0-1.2,0.6-1.3,1.4h-1.1
			c0-1.6,1.1-2.3,2.3-2.3c1.5,0,2.3,0.9,2.3,2.2c0,1.8-1.8,3.1-3,4.2h3.2v1h-4.9V1514.1z"/>
		<path class="st4" d="M168.9,1507.6c2,0,2.6,1.6,2.6,3.7c0,2.1-0.6,3.7-2.6,3.7s-2.6-1.6-2.6-3.7
			C166.3,1509.2,166.9,1507.6,168.9,1507.6z M168.9,1508.7c-1.3,0-1.5,1.3-1.5,2.6c0,1.4,0.1,2.7,1.5,2.7s1.5-1.2,1.5-2.7
			C170.4,1509.9,170.3,1508.7,168.9,1508.7z"/>
		<path class="st4" d="M173.5,1508.8h-0.9v-1h2.1v7.3h-1.1V1508.8z"/>
		<path class="st4" d="M176.4,1509.6c0-1.1,0.8-2,2.4-2c1.6,0,2.4,0.9,2.4,2c0,0.8-0.4,1.3-1,1.6c0.7,0.3,1.2,0.9,1.2,1.8
			c0,1.3-1.1,2.2-2.6,2.2c-1.5,0-2.6-0.9-2.6-2.2c0-0.9,0.5-1.5,1.2-1.8C176.9,1510.9,176.4,1510.4,176.4,1509.6z M177.3,1513
			c0,0.7,0.6,1.3,1.5,1.3c0.9,0,1.5-0.5,1.5-1.3c0-0.8-0.6-1.3-1.5-1.3C178,1511.7,177.3,1512.1,177.3,1513z M180.1,1509.7
			c0-0.8-0.5-1.2-1.3-1.2c-0.8,0-1.3,0.4-1.3,1.2c0,0.7,0.5,1.1,1.3,1.1C179.6,1510.9,180.1,1510.4,180.1,1509.7z"/>
	</g>
	<g class="st0">
		<path class="st5" d="M160.9,1394.8h-1.5v-1.7h3.3v11.7h-1.8V1394.8z"/>
		<path class="st5" d="M169.1,1392.9c2.3,0,3.6,1.3,3.6,3c0,1.4-0.9,2.3-1.8,2.6v0.1c1.2,0.4,2,1.4,2,3c0,1.9-1.3,3.3-3.7,3.3
			c-2.2,0-3.9-1.2-4-3.4h1.8c0.1,1.1,0.9,1.9,2.3,1.9c1.4,0,2-0.8,2-1.9c0-1.5-1-2.1-2.9-2.1h-0.4v-1.5h0.4c1.6,0,2.7-0.5,2.7-1.7
			c0-1-0.7-1.7-1.9-1.7c-1.3,0-1.9,0.8-2,1.6h-1.8C165.4,1394,166.9,1392.9,169.1,1392.9z"/>
		<path class="st5" d="M175.8,1404.9c-0.7,0-1.2-0.5-1.2-1.2s0.5-1.2,1.2-1.2c0.6,0,1.2,0.5,1.2,1.2S176.4,1404.9,175.8,1404.9z"/>
		<path class="st5" d="M179.9,1394.8h-1.5v-1.7h3.3v11.7h-1.8V1394.8z"/>
	</g>
	<path id="패스_4982" class="st3" d="M218,1523.1h46v-93h-46V1523.1z"/>
	<g class="st0">
		<path class="st4" d="M230.5,1514.1c1.7-1.5,3.5-2.8,3.5-4.3c0-0.8-0.3-1.3-1.2-1.3c-0.8,0-1.2,0.6-1.3,1.4h-1.1
			c0-1.6,1.1-2.3,2.3-2.3c1.5,0,2.3,0.9,2.3,2.2c0,1.8-1.8,3.1-3,4.2h3.2v1h-4.9V1514.1z"/>
		<path class="st4" d="M239,1507.6c2,0,2.6,1.6,2.6,3.7c0,2.1-0.6,3.7-2.6,3.7s-2.6-1.6-2.6-3.7
			C236.4,1509.2,236.9,1507.6,239,1507.6z M239,1508.7c-1.3,0-1.5,1.3-1.5,2.6c0,1.4,0.1,2.7,1.5,2.7s1.5-1.2,1.5-2.7
			C240.4,1509.9,240.3,1508.7,239,1508.7z"/>
		<path class="st4" d="M243.5,1508.8h-0.9v-1h2.1v7.3h-1.1V1508.8z"/>
		<path class="st4" d="M247.7,1513.1c0.1,0.6,0.6,1,1.3,1c0.9,0,1.4-0.6,1.4-2.5c-0.3,0.5-1,0.7-1.6,0.7c-1.3,0-2.3-0.8-2.3-2.3
			c0-1.4,0.9-2.4,2.4-2.4c1.9,0,2.5,1.3,2.5,3.7c0,2.5-0.5,3.8-2.4,3.8c-1.5,0-2.2-0.9-2.3-2H247.7z M250.2,1510
			c0-0.9-0.5-1.5-1.4-1.5c-0.8,0-1.4,0.6-1.4,1.4c0,0.8,0.4,1.4,1.4,1.4C249.8,1511.4,250.2,1510.8,250.2,1510z"/>
	</g>
	<g class="st0">
		<path class="st5" d="M231.1,1411.8h-1.5v-1.7h3.3v11.7h-1.8V1411.8z"/>
		<path class="st5" d="M235.3,1420.3c2.8-2.4,5.7-4.5,5.7-6.8c0-1.2-0.5-2-1.9-2c-1.3,0-2,0.9-2,2.2h-1.8c0.1-2.5,1.7-3.8,3.8-3.8
			c2.4,0,3.7,1.4,3.7,3.5c0,2.8-2.9,5-4.8,6.7h5.1v1.5h-7.8V1420.3z"/>
		<path class="st5" d="M245.6,1421.9c-0.7,0-1.2-0.5-1.2-1.2s0.5-1.2,1.2-1.2c0.6,0,1.2,0.5,1.2,1.2S246.3,1421.9,245.6,1421.9z"/>
		<path class="st5" d="M249.8,1411.8h-1.5v-1.7h3.3v11.7h-1.8V1411.8z"/>
	</g>
	<path id="패스_4984" class="st1" d="M284,1523.1h46v-72.8h-46V1523.1z"/>
	<g class="st0">
		<path class="st6" d="M295.2,1513.9c1.6-1.4,3.4-2.7,3.4-4c0-0.6-0.3-1.1-1-1.1c-0.7,0-1,0.5-1,1.2h-1.4c0-1.7,1.1-2.4,2.4-2.4
			c1.6,0,2.4,0.9,2.4,2.2c0,1.7-1.6,3-2.8,4h2.9v1.2h-4.9V1513.9z"/>
		<path class="st6" d="M303.8,1507.6c2.1,0,2.7,1.6,2.7,3.7c0,2.1-0.6,3.7-2.7,3.7c-2.1,0-2.7-1.6-2.7-3.7
			C301.1,1509.2,301.7,1507.6,303.8,1507.6z M303.8,1508.9c-1.2,0-1.3,1.1-1.3,2.4c0,1.3,0.1,2.4,1.3,2.4c1.2,0,1.3-1.1,1.3-2.4
			C305.1,1510,304.9,1508.9,303.8,1508.9z"/>
		<path class="st6" d="M307.4,1513.9c1.6-1.4,3.4-2.7,3.4-4c0-0.6-0.3-1.1-1-1.1c-0.7,0-1,0.5-1,1.2h-1.4c0-1.7,1.1-2.4,2.4-2.4
			c1.6,0,2.4,0.9,2.4,2.2c0,1.7-1.6,3-2.8,4h2.9v1.2h-4.9V1513.9z"/>
		<path class="st6" d="M316,1507.6c2.1,0,2.7,1.6,2.7,3.7c0,2.1-0.6,3.7-2.7,3.7c-2.1,0-2.7-1.6-2.7-3.7
			C313.3,1509.2,313.9,1507.6,316,1507.6z M316,1508.9c-1.2,0-1.3,1.1-1.3,2.4c0,1.3,0.1,2.4,1.3,2.4c1.2,0,1.3-1.1,1.3-2.4
			C317.3,1510,317.1,1508.9,316,1508.9z"/>
	</g>
	<g class="st0">
		<path class="st1" d="M295.9,1433.3c0-1.7,1.3-3.1,3.9-3.1s3.9,1.5,3.9,3.1c0,1.2-0.7,2.1-1.6,2.6c1.2,0.5,1.9,1.5,1.9,2.9
			c0,2.2-1.8,3.6-4.2,3.6c-2.4,0-4.2-1.3-4.2-3.6c0-1.4,0.7-2.4,1.9-2.9C296.5,1435.3,295.9,1434.5,295.9,1433.3z M297.7,1438.6
			c0,1,0.8,1.8,2,1.8s2-0.8,2-1.8c0-1.2-0.8-1.8-2-1.8C298.6,1436.8,297.7,1437.4,297.7,1438.6z M301.6,1433.6
			c0-1.1-0.7-1.6-1.8-1.6c-1,0-1.7,0.6-1.7,1.7c0,1,0.7,1.6,1.7,1.6C300.8,1435.2,301.6,1434.5,301.6,1433.6z"/>
		<path class="st1" d="M307,1442.1c-0.8,0-1.4-0.6-1.4-1.3s0.6-1.3,1.4-1.3c0.8,0,1.4,0.6,1.4,1.3S307.8,1442.1,307,1442.1z"/>
		<path class="st1" d="M316,1433.3c-0.2-0.9-0.7-1.3-1.7-1.3c-1.5,0-2.1,1.1-2.2,3.8c0.5-0.9,1.6-1.4,2.7-1.4c2.1,0,3.5,1.4,3.5,3.8
			c0,2.3-1.4,3.9-3.9,3.9c-3.5,0-4.3-2.4-4.3-6.1c0-3.8,1.2-5.9,4.2-5.9c2.4,0,3.5,1.5,3.7,3.2H316z M312.4,1438.1c0,1.2,0.7,2,2,2
			c1.2,0,1.9-0.8,1.9-2c0-1.2-0.6-2-1.9-2C313.3,1436.2,312.4,1436.8,312.4,1438.1z"/>
	</g>
	<path id="패스_4987" class="st7" d="M20,1523.3h335"/>
</g>
</svg>
