<?xml version="1.0" encoding="utf-8"?>
<!-- Generator: Adobe Illustrator 25.1.0, SVG Export Plug-In . SVG Version: 6.00 Build 0)  -->
<svg version="1.1" id="레이어_1" xmlns="http://www.w3.org/2000/svg" xmlns:xlink="http://www.w3.org/1999/xlink" x="0px"
	 y="0px" viewBox="0 0 457 197" style="enable-background:new 0 0 457 197;" xml:space="preserve">
<style type="text/css">
	.st0{fill:none;}
	.st1{fill:none;stroke:#D5D5D5;}
	.st2{enable-background:new    ;}
	.st3{fill:#FFF8F8;}
	.st4{fill:#DF1C2F;}
</style>
<g id="그룹_5888" transform="translate(-740 -2307)">
	<g id="사각형_330" transform="translate(740 2307)">
		<rect y="0" class="st0" width="457" height="197"/>
		<rect x="0.5" y="0.5" class="st1" width="456" height="196"/>
	</g>
	<g class="st2">
		<path d="M770.7,2396.5c0-1.2,0.9-2,1.8-2c0.9,0,1.8,0.8,1.8,2s-0.9,2-1.8,2C771.6,2398.5,770.7,2397.7,770.7,2396.5z"/>
		<path d="M786.8,2389.6v9.1h-6.4v-9.1H786.8z M781.2,2390.3v7.7h4.7v-7.7H781.2z M791.1,2388.1v14.2h-0.8v-14.2H791.1z"/>
		<path d="M798.2,2392.4c0,2.2,1.4,4.7,3.2,5.8l-0.5,0.7c-1.4-0.8-2.5-2.5-3-4.4c-0.5,2-1.7,3.8-3.2,4.7l-0.6-0.6
			c1.9-1.1,3.3-3.6,3.3-6.1v-2.9h0.8V2392.4z M802.5,2388.5h0.8v13.1h-0.8v-7.5h-2.7v-0.7h2.7V2388.5z M806.3,2388.1v14.2h-0.8
			v-14.2H806.3z"/>
		<path d="M816,2395.8h-6.3v-6.5h6.3v2.8h3.7v-4.1h0.8v10.4h-0.8v-5.6H816V2395.8z M815.2,2390.1h-4.7v5h4.7V2390.1z M821,2401.2
			v0.7h-9.3v-4.4h0.8v3.7H821z"/>
		<path d="M828.5,2392.8c0,2.5,2.1,4.9,4,5.8l-0.5,0.7c-1.6-0.8-3.2-2.5-3.9-4.6c-0.6,2.1-2.3,4.1-3.8,4.9l-0.5-0.7
			c1.8-0.9,3.9-3.6,3.9-6.1v-2.4h-3.5v-0.7h7.9v0.7h-3.6V2392.8z M835.2,2388.1v14.2h-0.8v-14.2H835.2z"/>
		<path d="M846.6,2392.7c0,2.3,2,4.8,3.8,5.8l-0.5,0.7c-1.6-0.8-3.1-2.6-3.7-4.7c-0.6,2.2-2.2,4.1-3.8,4.9l-0.5-0.7
			c1.9-0.9,3.9-3.6,3.9-6.1v-2.3h-3.4v-0.7h7.6v0.7h-3.4V2392.7z M853.5,2388.1v14.2h-0.8v-8.2h-3.4v-0.7h3.4v-5.3H853.5z"/>
		<path d="M863.8,2389.1c0,3.5-2.6,6.1-6.7,7.2l-0.3-0.7c3.6-1,6-3.1,6.1-5.8h-5.6v-0.7H863.8z M858.8,2397h8.8v5.1h-8.8V2397z
			 M859.7,2401.4h7.1v-3.7h-7.1V2401.4z M869.9,2392.5h-2.2v3.7h-0.8v-8.2h0.8v3.7h2.2V2392.5z"/>
		<path d="M884.1,2395.5c-3.1,0.5-6.5,0.5-9,0.5l-0.1-0.7c1.2,0,2.6,0,4,0v-1.1c-1.7-0.1-2.8-0.8-2.8-1.8c0-1.2,1.3-1.9,3.2-1.9
			c2,0,3.2,0.7,3.2,1.9c0,1.1-1.1,1.7-2.8,1.8v1c1.4-0.1,2.8-0.2,4.2-0.4L884.1,2395.5z M883.5,2390h-8.2v-0.7h3.7v-1.4h0.8v1.4h3.7
			V2390z M877.7,2401.5h8.7v0.7h-9.5v-2.8h8.1v-1.4h-8.2v-0.7h9v2.7h-8.1V2401.5z M879.4,2393.7c1.5,0,2.4-0.5,2.4-1.2
			c0-0.8-1-1.3-2.4-1.3s-2.4,0.5-2.4,1.3C877,2393.2,877.9,2393.7,879.4,2393.7z M888.1,2391.9v0.7h-2.3v3.9H885v-8.4h0.8v3.8H888.1
			z"/>
		<path d="M902.5,2395.3v0.7h-12.9v-0.7h6v-1.9h-4.3v-4.6h9.6v0.7h-8.7v3.2h8.8v0.7h-4.5v1.9H902.5z M900.9,2399.8
			c0,1.6-1.8,2.5-4.8,2.5s-4.8-0.9-4.8-2.5c0-1.6,1.8-2.5,4.8-2.5S900.9,2398.1,900.9,2399.8z M900.1,2399.8c0-1.2-1.6-1.8-4-1.8
			s-4,0.7-4,1.8s1.6,1.8,4,1.8S900.1,2400.9,900.1,2399.8z"/>
		<path d="M920.8,2397.5h-6v4.8H914v-4.8h-6v-0.7h12.9V2397.5z M908.8,2394.8c2.2-0.3,5.1-1.9,5.1-3.9v-0.2h-4.7v-0.7h4.7v-1.8h0.8
			v1.8h4.7v0.7h-4.7v0.2c0,2,2.9,3.6,5.1,3.9l-0.3,0.7c-2-0.4-4.4-1.5-5.2-3.2c-0.8,1.7-3.2,2.9-5.2,3.2L908.8,2394.8z"/>
		<path d="M930.8,2396.4c-1.6-0.6-3.1-1.8-3.7-3.5c-0.6,1.8-2,3.1-3.7,3.8l-0.4-0.7c2-0.7,3.7-2.6,3.7-4.8v-1.2h-3.5v-0.7h7.8v0.7
			h-3.5v1.2c0,2.1,1.8,3.8,3.7,4.5L930.8,2396.4z M934.7,2401.2v0.7h-9.4v-4.4h0.8v3.6H934.7z M934.2,2398.6h-0.8v-10.5h0.8V2398.6z
			"/>
	</g>
	<g class="st2">
		<path d="M770.7,2426.5c0-1.2,0.9-2,1.8-2c0.9,0,1.8,0.8,1.8,2s-0.9,2-1.8,2C771.6,2428.5,770.7,2427.7,770.7,2426.5z"/>
		<path d="M781,2427.9c2.3,0,3.7-0.1,5.3-0.4l0.1,0.7c-1.7,0.4-3.1,0.4-5.4,0.4h-0.9v-8.8h5.3v0.7h-4.5L781,2427.9L781,2427.9z
			 M791.5,2418.1v14.2h-0.8v-7.6h-2.4v6.9h-0.8v-13.1h0.8v5.5h2.4v-5.8H791.5z"/>
		<path d="M801.7,2419.7c0,4-2.1,7.6-6.7,9.8l-0.5-0.7c3.9-1.9,6.1-4.9,6.3-8.4h-5.7v-0.7H801.7z M805.8,2418.1v14.2H805v-14.2
			H805.8z"/>
		<path d="M825.4,2425.6v0.7h-12.9v-0.7h6v-2h0.8v2H825.4z M813.4,2423.6c2.3-0.3,5.1-1.4,5.1-3.4h-4.6v-0.7h4.6v-1.6h0.8v1.6h4.6
			v0.7h-4.6c0,2,2.8,3.1,5.1,3.4l-0.3,0.7c-2.1-0.3-4.5-1.2-5.3-2.8c-0.8,1.6-3.2,2.5-5.3,2.8L813.4,2423.6z M823.8,2430
			c0,1.5-1.8,2.3-4.8,2.3c-3,0-4.8-0.8-4.8-2.3c0-1.5,1.8-2.3,4.8-2.3C822,2427.6,823.8,2428.4,823.8,2430z M822.9,2430
			c0-1-1.5-1.7-4-1.7c-2.4,0-4,0.6-4,1.7c0,1,1.5,1.6,4,1.6C821.4,2431.6,822.9,2431,822.9,2430z"/>
		<path d="M835.8,2425.3c-2.4,0.4-4.3,0.5-6.8,0.5h-1.1v-3.8h5.5v-2.2h-5.5v-0.7h6.3v3.6h-5.5v2.4h0.2c2.4,0,4.4-0.1,6.7-0.5
			L835.8,2425.3z M838.3,2429.8c0,1.6-1.7,2.5-4.6,2.5c-2.8,0-4.6-0.9-4.6-2.5c0-1.6,1.7-2.5,4.6-2.5
			C836.6,2427.2,838.3,2428.2,838.3,2429.8z M837.5,2429.8c0-1.1-1.5-1.8-3.8-1.8s-3.8,0.7-3.8,1.8c0,1.1,1.5,1.8,3.8,1.8
			S837.5,2430.9,837.5,2429.8z M838.2,2421.2v2.3h2.2v0.7h-2.2v2.5h-0.8v-8.6h0.8v2.4h2.2v0.7H838.2z"/>
		<path d="M845.9,2422.3c0,2.5,1.3,5,3.2,6.1l-0.5,0.6c-1.4-0.9-2.5-2.5-3-4.5c-0.5,2.1-1.6,3.9-3.1,4.8l-0.6-0.6
			c1.9-1.1,3.3-3.7,3.3-6.5v-1.6h-2.9v-0.7h6.6v0.7h-2.8V2422.3z M850.3,2418.5h0.8v13h-0.8v-7.5h-2.6v-0.7h2.6V2418.5z M854,2418.1
			v14.2h-0.8v-14.2H854z"/>
		<path d="M868.1,2426c-1.6-0.6-3-1.9-3.6-3.5c-0.6,1.8-2,3.2-3.7,3.8l-0.4-0.7c2-0.7,3.7-2.6,3.7-4.8v-1h-3.4v-0.7h7.6v0.7h-3.3
			v0.9c0,2,1.6,3.7,3.6,4.4L868.1,2426z M862.4,2427.5h9.4v4.8H871v-4.1h-8.5V2427.5z M871.8,2418.1v8.5H871v-3.9h-3.2v-0.7h3.2
			v-3.9H871.8z"/>
		<path d="M887.8,2425.3v0.7H875v-0.7h3.3v-2.2c-1.2-0.4-1.8-1.2-1.8-2.1c0-1.6,1.9-2.6,4.9-2.6c3.1,0,4.9,0.9,4.9,2.6
			c0,1-0.6,1.7-1.8,2.1v2.2H887.8z M886.2,2429.8c0,1.6-1.8,2.5-4.8,2.5c-3,0-4.8-0.9-4.8-2.5s1.8-2.5,4.8-2.5
			C884.4,2427.3,886.2,2428.2,886.2,2429.8z M881.4,2422.9c2.5,0,4.1-0.7,4.1-1.9c0-1.2-1.6-1.9-4.1-1.9c-2.4,0-4,0.7-4,1.9
			C877.3,2422.1,878.9,2422.9,881.4,2422.9z M885.4,2429.8c0-1.1-1.6-1.8-4-1.8s-4,0.7-4,1.8c0,1.1,1.6,1.8,4,1.8
			S885.4,2430.9,885.4,2429.8z M879.1,2425.3h4.5v-1.9c-0.7,0.1-1.4,0.2-2.3,0.2c-0.8,0-1.6-0.1-2.2-0.2V2425.3z"/>
		<path d="M897.7,2422.3c0,2.5,2,5,3.8,6l-0.5,0.7c-1.5-0.8-3.1-2.6-3.7-4.7c-0.6,2.2-2.1,4.1-3.7,5l-0.5-0.7c1.9-1,3.8-3.7,3.8-6.3
			v-2.8h0.8V2422.3z M906.5,2424.8H904v7.6h-0.8v-14.2h0.8v5.9h2.5V2424.8z"/>
		<path d="M919.5,2418.1v7.6h-0.8v-3.4h-3.3c-0.2,1.7-1.6,2.9-3.6,2.9c-2.1,0-3.6-1.3-3.6-3.2c0-1.9,1.5-3.2,3.6-3.2
			c2,0,3.4,1.1,3.6,2.8h3.3v-3.5H919.5z M914.6,2422c0-1.5-1.2-2.5-2.8-2.5s-2.8,1.1-2.8,2.5c0,1.4,1.2,2.5,2.8,2.5
			S914.6,2423.5,914.6,2422z M918.7,2426.5h0.8v5.6h-8.9v-5.6h0.8v2.1h7.2V2426.5z M918.7,2429.2h-7.2v2.1h7.2V2429.2z"/>
		<path d="M930.4,2425.9c-1.6-0.6-2.9-1.8-3.5-3.3c-0.6,1.7-2,3.1-3.7,3.7l-0.4-0.7c2-0.7,3.7-2.5,3.7-4.7v-1H923v-0.7h7.6v0.7h-3.4
			v1c0,2,1.6,3.7,3.6,4.3L930.4,2425.9z M933.7,2429.7c0,1.6-1.7,2.5-4.6,2.5s-4.6-0.9-4.6-2.5c0-1.6,1.7-2.5,4.6-2.5
			S933.7,2428.1,933.7,2429.7z M932.9,2429.7c0-1.1-1.5-1.8-3.8-1.8c-2.3,0-3.7,0.7-3.7,1.8c0,1.1,1.5,1.8,3.7,1.8
			C931.4,2431.6,932.9,2430.9,932.9,2429.7z M935.8,2421.9v0.7h-2.2v4.1h-0.8v-8.6h0.8v3.8H935.8z"/>
		<path d="M944.9,2426c-2.1,0-3.6-1.4-3.6-3.5c0-2,1.5-3.4,3.6-3.4c2.1,0,3.6,1.4,3.6,3.4C948.5,2424.6,947,2426,944.9,2426z
			 M944.9,2425.3c1.6,0,2.8-1.2,2.8-2.7c0-1.5-1.2-2.7-2.8-2.7c-1.6,0-2.8,1.2-2.8,2.7C942.2,2424.1,943.4,2425.3,944.9,2425.3z
			 M953,2431.2v0.7h-9.4v-4.5h0.8v3.7H953z M952.5,2428.6h-0.8v-10.5h0.8V2428.6z"/>
		<path d="M964.1,2421.2h-8.5v-0.7h3.8v-2.2h0.8v2.2h3.8V2421.2z M963.2,2425.8c0,1.9-1.4,3.2-3.3,3.2c-1.9,0-3.3-1.3-3.3-3.2
			s1.4-3.2,3.3-3.2C961.8,2422.6,963.2,2423.9,963.2,2425.8z M962.4,2425.8c0-1.4-1.1-2.5-2.5-2.5c-1.4,0-2.5,1.1-2.5,2.5
			s1.1,2.4,2.5,2.4C961.3,2428.2,962.4,2427.2,962.4,2425.8z M967.2,2418.1v14.2h-0.8v-7.3h-2.6v-0.7h2.6v-6.2H967.2z"/>
		<path d="M977.6,2419.7c0,3.9-2,7.5-6.5,9.8l-0.5-0.7c3.8-1.9,5.9-4.9,6.2-8.4h-5.6v-0.7H977.6z M983.6,2424.8h-2.4v7.5h-0.8v-14.2
			h0.8v6h2.4V2424.8z"/>
		<path d="M997.7,2426.1c-3,0.5-6.5,0.6-9,0.6l-0.1-0.7c1.2,0,2.5,0,4-0.1v-1.6c-1.8-0.1-3.1-1.2-3.1-2.7c0-1.7,1.4-2.8,3.5-2.8
			c2.1,0,3.5,1.1,3.5,2.8c0,1.5-1.2,2.6-3,2.7v1.6c1.4-0.1,2.9-0.2,4.3-0.4L997.7,2426.1z M993,2423.6c1.6,0,2.7-0.9,2.7-2.1
			s-1.1-2.1-2.7-2.1s-2.7,0.9-2.7,2.1S991.4,2423.6,993,2423.6z M991.7,2431.2h8.4v0.7h-9.2v-3.9h0.8V2431.2z M1001.8,2423.1v0.7
			h-2.3v5.2h-0.8v-10.9h0.8v5H1001.8z"/>
		<path d="M1016.3,2429.7v0.7h-12.9v-0.7h3.8v-3h-2.1v-4.1h8.7v-2.6h-8.7v-0.7h9.6v4h-8.7v2.7h9v0.7h-2.3v3H1016.3z M1008,2429.7
			h3.7v-3h-3.7V2429.7z"/>
	</g>
	<g class="st2">
		<path d="M770.7,2456.5c0-1.2,0.9-2,1.8-2c0.9,0,1.8,0.8,1.8,2s-0.9,2-1.8,2C771.6,2458.5,770.7,2457.7,770.7,2456.5z"/>
		<path d="M792.4,2457h-3.6v5.3H788v-5.3h-4v5.3h-0.9v-5.3h-3.6v-0.7h12.9V2457z M781.1,2451.8c0-1.9,1.9-3,4.9-3s4.9,1.2,4.9,3
			c0,1.9-2,3.1-4.9,3.1S781.1,2453.6,781.1,2451.8z M781.9,2451.8c0,1.4,1.6,2.4,4,2.4c2.4,0,4-1,4-2.4s-1.6-2.3-4-2.3
			C783.6,2449.4,781.9,2450.4,781.9,2451.8z"/>
		<path d="M798.2,2450.7h3.2v0.7h-7.2v-0.7h3.2v-2.2h0.8V2450.7z M800.8,2455.7c0,1.9-1.3,3.2-3,3.2c-1.7,0-3-1.3-3-3.2
			c0-1.9,1.3-3.2,3-3.2C799.6,2452.6,800.8,2453.9,800.8,2455.7z M800.1,2455.7c0-1.4-0.9-2.4-2.3-2.4c-1.3,0-2.2,1.1-2.2,2.4
			c0,1.4,0.9,2.4,2.2,2.4C799.1,2458.2,800.1,2457.1,800.1,2455.7z M806.2,2448.1v14.2h-0.8v-7.4h-2.3v6.6h-0.8v-13.1h0.8v5.8h2.3
			v-6.1H806.2z"/>
		<path d="M813.7,2458.6c1.4-0.1,2.9-0.2,4.2-0.4l0.1,0.7c-3.1,0.5-6.5,0.6-9,0.6l-0.2-0.7c1.2,0,2.6,0,4.1-0.1v-1.8
			c-1.7-0.1-2.8-1.1-2.8-2.6c0-1.6,1.3-2.6,3.3-2.6c2,0,3.3,1,3.3,2.6c0,1.5-1.1,2.4-2.9,2.6V2458.6z M817.6,2450.6H809v-0.7h3.9
			v-1.8h0.8v1.8h3.9V2450.6z M813.3,2456.2c1.5,0,2.5-0.8,2.5-1.9c0-1.1-1-1.9-2.5-1.9c-1.5,0-2.5,0.8-2.5,1.9
			C810.8,2455.4,811.8,2456.2,813.3,2456.2z M822.2,2455h-2.4v7.3h-0.8v-14.2h0.8v6.2h2.4V2455z"/>
		<path d="M832.2,2450.5h-8.4v-0.7h3.8v-1.7h0.8v1.7h3.8V2450.5z M828,2456.4c-2,0-3.4-1-3.4-2.5c0-1.6,1.3-2.5,3.4-2.5
			c2,0,3.3,1,3.3,2.5C831.3,2455.5,830,2456.4,828,2456.4z M828,2455.8c1.5,0,2.5-0.8,2.5-1.8c0-1.1-1-1.9-2.5-1.9
			c-1.5,0-2.6,0.8-2.6,1.9C825.4,2455,826.4,2455.8,828,2455.8z M825.6,2457.9h9.1v4.5h-0.8v-3.7h-8.2V2457.9z M836.9,2452.9h-2.2
			v4.1h-0.8v-8.9h0.8v4.1h2.2V2452.9z"/>
		<path d="M845.3,2455v1.7h4.3v2.9h-8.7v1.8h9.1v0.7h-10v-3.1h8.7v-1.6H840v-0.7h4.4v-1.7h-6v-0.7h12.9v0.7H845.3z M849.6,2452.8
			h-9.4v-4.2h9.4V2452.8z M848.7,2449.3h-7.8v2.8h7.8V2449.3z"/>
		<path d="M861.3,2455.2c-1.7-0.6-3.2-1.8-3.7-3.4c-0.6,1.7-2,3.1-3.7,3.7l-0.4-0.7c2-0.7,3.7-2.5,3.7-4.6v-0.4h-3.5v-0.7h7.8v0.7
			H858v0.4c0,2,1.8,3.7,3.8,4.3L861.3,2455.2z M865.3,2461.4v0.7h-9.5v-3.3h8.1v-1.8h-8.2v-0.7h9v3.2h-8.1v2H865.3z M864.7,2455.5
			h-0.8v-7.4h0.8V2455.5z"/>
		<path d="M881,2456.4c-1.5,0.2-3,0.4-4.4,0.4v5.1h-0.8v-5.1c-1.5,0.1-3,0.1-4.3,0.1l-0.1-0.8c2.8,0,6.4,0,9.6-0.5L881,2456.4z
			 M872.1,2454.3c2-0.5,3.6-1.9,3.6-3.6v-0.1h-3.3v-0.7h3.3v-1.7h0.8v1.7h3.3v0.7h-3.3v0.1c0,1.6,1.6,2.9,3.6,3.4l-0.4,0.7
			c-1.6-0.4-3-1.4-3.6-2.7c-0.6,1.4-2,2.4-3.6,2.9L872.1,2454.3z M882.9,2448.1v14.2h-0.8v-14.2H882.9z"/>
		<path d="M899,2454v0.7h-12.9v-0.7h9.9c0.4-1.9,0.4-3.2,0.4-4.3v-0.3h-8.6v-0.7h9.5v1c0,1.1,0,2.4-0.4,4.3H899z M896.4,2456.3h0.8
			v5.9h-9.4v-5.9h0.8v2.1h7.7V2456.3z M896.4,2459.1h-7.7v2.3h7.7V2459.1z"/>
		<path d="M909.1,2452.3c0,2.6,2.1,5.2,4,6.1l-0.5,0.7c-1.6-0.8-3.2-2.6-3.8-4.8c-0.6,2.2-2.2,4.1-3.8,5l-0.5-0.7
			c1.9-1,3.9-3.7,3.9-6.3v-2.8h0.8V2452.3z M915.9,2448.1v14.2h-0.8v-14.2H915.9z"/>
		<path d="M926.9,2455.1c-1.6-0.6-3-1.8-3.6-3.3c-0.6,1.7-2,3.1-3.6,3.7l-0.4-0.7c2-0.7,3.7-2.5,3.7-4.8v-1.5h0.8v1.5
			c0,2,1.7,3.7,3.7,4.4L926.9,2455.1z M931.3,2461.4v0.7h-9.6v-3.3h8.1v-1.8h-8.2v-0.7h9v3.2h-8.1v1.9H931.3z M929.8,2451.7h-3.4
			v-0.7h3.4v-2.9h0.8v7.4h-0.8V2451.7z"/>
		<path d="M943.4,2450c0,3.4-1.3,6.9-5.4,9.2l-0.5-0.6c3.6-1.9,4.9-4.9,5.1-7.8h-4.7v-0.7H943.4z M949.4,2448.1v14.2h-0.8v-7.6h-2.4
			v6.8h-0.8v-13.1h0.8v5.5h2.4v-5.9H949.4z"/>
		<path d="M959.8,2456.3c-1.6-0.6-3-2-3.6-3.7c-0.6,1.8-2,3.3-3.6,4l-0.4-0.7c2-0.8,3.7-2.8,3.7-5.1v-1.9h0.8v1.9
			c0,2.1,1.7,4,3.6,4.7L959.8,2456.3z M964,2461.2v0.7h-9.3v-4.4h0.8v3.7H964z M962.8,2452.4h-3.4v-0.7h3.4v-3.5h0.8v10.7h-0.8
			V2452.4z"/>
	</g>
	<g id="사각형_373" transform="translate(740 2307)">
		<rect y="0" class="st3" width="457" height="50"/>
		<rect x="0.5" y="0.5" class="st1" width="456" height="49"/>
	</g>
	<g class="st2">
		<path class="st4" d="M924.9,2332.3c0-4.3,2.4-6.9,6-6.9c3.5,0,6,2.5,6,6.9s-2.4,7-6,7C927.3,2339.3,924.9,2336.6,924.9,2332.3z
			 M934.1,2332.3c0-2.9-1.3-4.6-3.2-4.6s-3.2,1.7-3.2,4.6c0,2.8,1.3,4.7,3.2,4.7S934.1,2335.1,934.1,2332.3z"/>
		<path class="st4" d="M939.3,2332.4c0-4.4,2.8-7,6.2-7c1.7,0,3,0.8,3.9,1.7l-1.4,1.7c-0.7-0.6-1.5-1.1-2.5-1.1
			c-2,0-3.5,1.7-3.5,4.6c0,2.9,1.4,4.6,3.5,4.6c1.2,0,2-0.5,2.8-1.3l1.4,1.7c-1.1,1.3-2.5,2-4.2,2
			C942.1,2339.3,939.3,2336.8,939.3,2332.4z"/>
		<path class="st4" d="M952.4,2325.7h2.7v13.3h-2.7V2325.7z"/>
	</g>
	<g class="st2">
		<path class="st4" d="M958.2,2335.3c2.9,0,7,0,10.5-0.5l0.1,1.7c-3.6,0.7-7.5,0.8-10.3,0.8L958.2,2335.3z M968,2329.2
			c0,2.4-2,4.1-4.6,4.1s-4.6-1.7-4.6-4.1c0-2.4,2-4.1,4.6-4.1S968,2326.8,968,2329.2z M961.2,2329.2c0,1.3,1,2.1,2.3,2.1
			c1.3,0,2.3-0.8,2.3-2.1c0-1.3-1-2.1-2.3-2.1C962.2,2327.1,961.2,2327.9,961.2,2329.2z M971.9,2323.9v16.6h-2.4v-16.6H971.9z"/>
		<path class="st4" d="M990.1,2332.9c-3.5,0.6-7.3,0.6-10.2,0.6l-0.2-1.6c1.2,0,2.5,0,3.9,0v-0.8c-1.8-0.2-2.9-1-2.9-2.1
			c0-1.3,1.6-2.2,4.1-2.2c2.5,0,4,0.8,4,2.2c0,1.1-1.1,1.9-2.8,2.1v0.7c1.3-0.1,2.7-0.2,3.9-0.3L990.1,2332.9z M989.6,2326.6h-9.4
			v-1.6h3.5v-1.2h2.4v1.2h3.5V2326.6z M984.3,2338.9h9.3v1.6H982v-3.8h8.8v-0.7h-8.8v-1.6h11.1v3.7h-8.8V2338.9z M984.9,2329.8
			c1.1,0,1.8-0.3,1.8-0.7c0-0.5-0.6-0.7-1.8-0.7s-1.8,0.2-1.8,0.7C983.1,2329.5,983.7,2329.8,984.9,2329.8z M995.2,2327.9v1.9h-2.1
			v3.9h-2.4v-9.8h2.4v3.9H995.2z"/>
		<path class="st4" d="M1012.1,2331.8v1.9h-15v-1.9h6.3v-1.4h-4.5v-5.7h11.4v1.9h-9v1.9h9.1v1.9h-4.6v1.4H1012.1z M1010.3,2337.5
			c0,1.9-2.2,3-5.8,3s-5.7-1.1-5.7-3c0-2,2.2-3.1,5.7-3.1S1010.3,2335.6,1010.3,2337.5z M1007.9,2337.5c0-0.9-1.1-1.3-3.3-1.3
			c-2.2,0-3.3,0.4-3.3,1.3s1.1,1.2,3.3,1.2C1006.8,2338.8,1007.9,2338.4,1007.9,2337.5z"/>
	</g>
</g>
</svg>
