<?xml version="1.0" encoding="utf-8"?>
<!-- Generator: Adobe Illustrator 25.1.0, SVG Export Plug-In . SVG Version: 6.00 Build 0)  -->
<svg version="1.1" id="레이어_1" xmlns="http://www.w3.org/2000/svg" xmlns:xlink="http://www.w3.org/1999/xlink" x="0px"
	 y="0px" viewBox="0 0 457 197" style="enable-background:new 0 0 457 197;" xml:space="preserve">
<style type="text/css">
	.st0{fill:none;}
	.st1{fill:none;stroke:#D5D5D5;}
	.st2{enable-background:new    ;}
	.st3{fill:#FFF8F8;}
	.st4{fill:#DF1C2F;}
</style>
<g id="그룹_5889" transform="translate(-1203 -2307)">
	<g id="사각형_331" transform="translate(1203 2307)">
		<rect y="0" class="st0" width="457" height="197"/>
		<rect x="0.5" y="0.5" class="st1" width="456" height="196"/>
	</g>
	<g class="st2">
		<path d="M1233.7,2396.5c0-1.2,0.9-2,1.8-2c0.9,0,1.8,0.8,1.8,2s-0.9,2-1.8,2C1234.6,2398.5,1233.7,2397.7,1233.7,2396.5z"/>
		<path d="M1250.8,2396.6c-1.6-0.6-3.1-1.9-3.7-3.5c-0.6,1.8-2,3.1-3.7,3.7l-0.4-0.7c2-0.7,3.7-2.6,3.7-4.8v-0.5h-3.4v-0.7h3.4v-2
			h0.8v2h3.4v0.7h-3.4v0.5c0,2.1,1.7,3.8,3.7,4.5L1250.8,2396.6z M1254.6,2401.2v0.7h-9.4v-4.3h0.8v3.6H1254.6z M1254.1,2398.7h-0.8
			v-10.6h0.8V2398.7z"/>
		<path d="M1266.3,2396.8c-3,0.5-6.5,0.6-9,0.6l-0.1-0.7c1.2,0,2.6,0,4-0.1v-1.2c-1.7-0.1-2.8-0.9-2.8-2.2c0-1.3,1.3-2.2,3.2-2.2
			c1.9,0,3.2,0.8,3.2,2.2c0,1.3-1.1,2.1-2.8,2.2v1.2c1.4-0.1,2.8-0.2,4.2-0.4L1266.3,2396.8z M1265.8,2390.3h-8.3v-0.7h3.7v-1.6h0.8
			v1.6h3.7V2390.3z M1261.7,2394.8c1.5,0,2.4-0.6,2.4-1.6c0-0.9-1-1.5-2.4-1.5s-2.4,0.6-2.4,1.5
			C1259.3,2394.1,1260.2,2394.8,1261.7,2394.8z M1260.3,2401.2h8.4v0.7h-9.2v-3.5h0.8V2401.2z M1270.4,2393.2v0.7h-2.3v5.3h-0.8
			v-11.1h0.8v5.1H1270.4z"/>
		<path d="M1278.8,2391.7c-0.9,2.3-3.2,4-6.2,5l-0.4-0.7c3.5-1.1,5.9-3.2,6.1-6h-5.4v-0.7h6.4c0,0.6-0.1,1.2-0.2,1.7h3.7v-2.8h0.8
			v8.7h-0.8v-2.2h-4.1v-0.7h4.1v-2.3H1278.8z M1283.6,2399.6c0,1.7-1.8,2.7-4.6,2.7c-2.9,0-4.7-1-4.7-2.7c0-1.6,1.8-2.6,4.7-2.6
			C1281.8,2397,1283.6,2398,1283.6,2399.6z M1282.8,2399.6c0-1.2-1.5-1.9-3.8-1.9c-2.3,0-3.8,0.8-3.8,1.9c0,1.2,1.5,2,3.8,2
			C1281.3,2401.6,1282.8,2400.8,1282.8,2399.6z"/>
		<path d="M1297.6,2389.7c0,4-2.1,7.6-6.7,9.8l-0.5-0.7c3.9-1.9,6.1-4.9,6.3-8.4h-5.7v-0.7H1297.6z M1301.8,2388.1v14.2h-0.8v-14.2
			H1301.8z"/>
		<path d="M1312.1,2396.1h-6.4v-6.9h0.8v2.6h4.8v-2.6h0.8V2396.1z M1311.3,2392.4h-4.8v2.9h4.8V2392.4z M1308.1,2401.2h8.5v0.7h-9.4
			v-4.4h0.8V2401.2z M1318.1,2392.6v0.7h-2.2v5.2h-0.8v-10.4h0.8v4.5H1318.1z"/>
		<path d="M1319.8,2398.3c2.7,0,6.3,0,9.5-0.5l0.1,0.7c-3.3,0.6-6.8,0.6-9.4,0.6L1319.8,2398.3z M1328.1,2392.4
			c0,1.9-1.5,3.2-3.7,3.2s-3.7-1.3-3.7-3.2c0-1.9,1.5-3.2,3.7-3.2S1328.1,2390.5,1328.1,2392.4z M1321.4,2392.4
			c0,1.5,1.2,2.5,2.9,2.5c1.7,0,2.9-1.1,2.9-2.5c0-1.5-1.2-2.5-2.9-2.5C1322.6,2389.9,1321.4,2391,1321.4,2392.4z M1331.1,2388.1
			v14.2h-0.8v-14.2H1331.1z"/>
		<path d="M1342.4,2392.3c0,2.5,2,5,3.8,6l-0.5,0.7c-1.5-0.8-3.1-2.6-3.7-4.7c-0.6,2.2-2.1,4.1-3.7,5l-0.5-0.7
			c1.9-1,3.8-3.7,3.8-6.3v-2.8h0.8V2392.3z M1351.2,2394.8h-2.5v7.6h-0.8v-14.2h0.8v5.9h2.5V2394.8z"/>
		<path d="M1364.3,2388.1v7.6h-0.8v-3.4h-3.3c-0.2,1.7-1.6,2.9-3.6,2.9c-2.1,0-3.6-1.3-3.6-3.2c0-1.9,1.5-3.2,3.6-3.2
			c2,0,3.4,1.1,3.6,2.8h3.3v-3.5H1364.3z M1359.3,2392c0-1.5-1.2-2.5-2.8-2.5s-2.8,1.1-2.8,2.5c0,1.4,1.2,2.5,2.8,2.5
			S1359.3,2393.5,1359.3,2392z M1363.4,2396.5h0.8v5.6h-8.9v-5.6h0.8v2.1h7.2V2396.5z M1363.4,2399.2h-7.2v2.1h7.2V2399.2z"/>
		<path d="M1376.5,2396.8c-3,0.5-6.5,0.6-9,0.6l-0.1-0.7c1.2,0,2.6,0,4-0.1v-1.2c-1.7-0.1-2.8-0.9-2.8-2.2c0-1.3,1.3-2.2,3.2-2.2
			c1.9,0,3.2,0.8,3.2,2.2c0,1.3-1.1,2.1-2.8,2.2v1.2c1.4-0.1,2.8-0.2,4.2-0.4L1376.5,2396.8z M1376,2390.3h-8.3v-0.7h3.7v-1.6h0.8
			v1.6h3.7V2390.3z M1371.8,2394.8c1.5,0,2.4-0.6,2.4-1.6c0-0.9-1-1.5-2.4-1.5s-2.4,0.6-2.4,1.5
			C1369.4,2394.1,1370.4,2394.8,1371.8,2394.8z M1370.4,2401.2h8.4v0.7h-9.2v-3.5h0.8V2401.2z M1380.5,2393.2v0.7h-2.3v5.3h-0.8
			v-11.1h0.8v5.1H1380.5z"/>
		<path d="M1388.9,2391.7c-0.9,2.3-3.2,4-6.2,5l-0.4-0.7c3.5-1.1,5.9-3.2,6.1-6h-5.4v-0.7h6.4c0,0.6-0.1,1.2-0.2,1.7h3.7v-2.8h0.8
			v8.7h-0.8v-2.2h-4.1v-0.7h4.1v-2.3H1388.9z M1393.8,2399.6c0,1.7-1.8,2.7-4.6,2.7c-2.9,0-4.7-1-4.7-2.7c0-1.6,1.8-2.6,4.7-2.6
			C1392,2397,1393.8,2398,1393.8,2399.6z M1392.9,2399.6c0-1.2-1.5-1.9-3.8-1.9c-2.3,0-3.8,0.8-3.8,1.9c0,1.2,1.5,2,3.8,2
			C1391.4,2401.6,1392.9,2400.8,1392.9,2399.6z"/>
		<path d="M1413.3,2399.7v0.7h-12.9v-0.7h6v-3.6h0.8v3.6H1413.3z M1401.1,2395.8c2-0.4,5.3-2.4,5.3-4.8v-0.7h-4.9v-0.7h10.8v0.7
			h-4.9v0.7c0,2.4,3.3,4.4,5.3,4.8l-0.4,0.7c-1.9-0.4-4.5-1.9-5.4-4c-0.9,2.1-3.5,3.6-5.4,4L1401.1,2395.8z"/>
		<path d="M1422.8,2395.8c-1.6-0.6-2.9-1.9-3.5-3.5c-0.6,1.8-2,3.2-3.7,3.9l-0.4-0.7c2-0.8,3.7-2.7,3.7-5v-1.6h0.8v1.6
			c0,2.1,1.7,3.9,3.6,4.6L1422.8,2395.8z M1426.7,2399.6c0,1.7-1.8,2.6-4.7,2.6c-2.9,0-4.7-0.9-4.7-2.6s1.8-2.6,4.7-2.6
			C1425,2397,1426.7,2398,1426.7,2399.6z M1425.9,2399.6c0-1.2-1.5-1.9-3.8-1.9s-3.8,0.8-3.8,1.9s1.5,1.9,3.8,1.9
			S1425.9,2400.8,1425.9,2399.6z M1425.8,2392.1h-3.4v-0.7h3.4v-3.3h0.8v8.5h-0.8V2392.1z"/>
	</g>
	<g class="st2">
		<path d="M1233.7,2426.5c0-1.2,0.9-2,1.8-2c0.9,0,1.8,0.8,1.8,2s-0.9,2-1.8,2C1234.6,2428.5,1233.7,2427.7,1233.7,2426.5z"/>
		<path d="M1243.1,2430.4h2.6v-9.1h-2v-0.6c0.9-0.2,1.7-0.4,2.2-0.8h0.8v10.5h2.4v0.8h-6V2430.4z"/>
		<path d="M1251,2433.4c0.8-0.4,1.4-1.2,1.4-2.1c-0.1,0-0.1,0-0.2,0c-0.4,0-0.8-0.3-0.8-0.8c0-0.5,0.4-0.8,0.8-0.8
			c0.6,0,1,0.5,1,1.4c0,1.3-0.8,2.4-1.9,3L1251,2433.4z"/>
		<path d="M1255,2425.5c0-3.8,1.2-5.8,3.4-5.8c2.2,0,3.4,2.1,3.4,5.8s-1.2,5.9-3.4,5.9C1256.3,2431.4,1255,2429.3,1255,2425.5z
			 M1261,2425.5c0-3.4-1-5-2.5-5c-1.5,0-2.5,1.6-2.5,5s1,5.1,2.5,5.1C1260,2430.6,1261,2428.9,1261,2425.5z"/>
		<path d="M1263.6,2425.5c0-3.8,1.2-5.8,3.4-5.8c2.2,0,3.4,2.1,3.4,5.8s-1.2,5.9-3.4,5.9C1264.8,2431.4,1263.6,2429.3,1263.6,2425.5
			z M1269.5,2425.5c0-3.4-1-5-2.5-5c-1.5,0-2.5,1.6-2.5,5s1,5.1,2.5,5.1C1268.5,2430.6,1269.5,2428.9,1269.5,2425.5z"/>
		<path d="M1272.2,2425.5c0-3.8,1.2-5.8,3.4-5.8c2.2,0,3.4,2.1,3.4,5.8s-1.2,5.9-3.4,5.9C1273.4,2431.4,1272.2,2429.3,1272.2,2425.5
			z M1278.1,2425.5c0-3.4-1-5-2.5-5c-1.5,0-2.5,1.6-2.5,5s1,5.1,2.5,5.1C1277.1,2430.6,1278.1,2428.9,1278.1,2425.5z"/>
		<path d="M1293.6,2426.3v0.7h-12.8v-0.7h6v-1.8h-4.2v-5.8h9.4v0.7h-8.6v1.9h8.2v0.7h-8.2v1.9h8.7v0.7h-4.4v1.8H1293.6z
			 M1283.3,2431.2h8.9v0.7h-9.7v-3.8h0.8V2431.2z"/>
		<path d="M1306.7,2424.1c0,3-1.5,4.9-3.5,4.9c-2.1,0-3.5-1.9-3.5-4.9c0-3,1.5-4.9,3.5-4.9
			C1305.2,2419.3,1306.7,2421.2,1306.7,2424.1z M1300.5,2424.1c0,2.4,1.1,4.1,2.7,4.1c1.6,0,2.7-1.7,2.7-4.1c0-2.4-1.1-4.1-2.7-4.1
			C1301.6,2420,1300.5,2421.7,1300.5,2424.1z M1310.6,2418.1v14.2h-0.8v-14.2H1310.6z"/>
		<path d="M1321.4,2425.7c-1.6-0.6-3-1.9-3.5-3.5c-0.6,1.8-2,3.2-3.6,3.9l-0.4-0.7c2-0.8,3.6-2.7,3.6-5v-1.6h0.8v1.6
			c0,2,1.7,3.9,3.6,4.6L1321.4,2425.7z M1324.8,2429.8c0,1.6-1.7,2.5-4.6,2.5s-4.6-0.9-4.6-2.5c0-1.6,1.7-2.5,4.6-2.5
			S1324.8,2428.2,1324.8,2429.8z M1324,2429.8c0-1.1-1.5-1.8-3.8-1.8c-2.3,0-3.7,0.7-3.7,1.8c0,1.1,1.5,1.8,3.7,1.8
			C1322.5,2431.6,1324,2430.9,1324,2429.8z M1326.9,2422v0.7h-2.2v4.1h-0.8v-8.8h0.8v3.9H1326.9z"/>
		<path d="M1336,2422.3c0,2.5,1.3,5,3.2,6.1l-0.5,0.6c-1.4-0.9-2.5-2.5-3-4.5c-0.5,2.1-1.6,3.9-3.1,4.8l-0.6-0.6
			c1.9-1.1,3.3-3.7,3.3-6.5v-1.6h-2.9v-0.7h6.6v0.7h-2.8V2422.3z M1340.3,2418.5h0.8v13h-0.8v-7.5h-2.6v-0.7h2.6V2418.5z
			 M1344,2418.1v14.2h-0.8v-14.2H1344z"/>
		<path d="M1359.6,2429.7v0.7h-12.9v-0.7h6v-3.6h0.8v3.6H1359.6z M1347.4,2425.8c2-0.4,5.3-2.4,5.3-4.8v-0.7h-4.9v-0.7h10.8v0.7
			h-4.9v0.7c0,2.4,3.3,4.4,5.3,4.8l-0.4,0.7c-1.9-0.4-4.5-1.9-5.4-4c-0.9,2.1-3.5,3.6-5.4,4L1347.4,2425.8z"/>
		<path d="M1361.4,2433.4c0.8-0.4,1.4-1.2,1.4-2.1c-0.1,0-0.1,0-0.2,0c-0.4,0-0.8-0.3-0.8-0.8c0-0.5,0.4-0.8,0.8-0.8
			c0.6,0,1,0.5,1,1.4c0,1.3-0.8,2.4-1.9,3L1361.4,2433.4z"/>
		<path d="M1381.9,2427h-6v5.3h-0.8v-5.3h-6v-0.7h12.9L1381.9,2427z M1380.8,2424.4c-2-0.4-4.4-1.6-5.3-3.5
			c-0.8,1.9-3.3,3.1-5.3,3.5l-0.4-0.7c2.2-0.4,5.2-2,5.2-4.2v-0.9h0.9v0.9c0,2.2,3.1,3.8,5.2,4.2L1380.8,2424.4z"/>
		<path d="M1391.4,2422.1c0,1.9-1.5,3.2-3.6,3.2c-2.1,0-3.6-1.3-3.6-3.2s1.5-3.2,3.6-3.2C1389.9,2418.8,1391.4,2420.1,1391.4,2422.1
			z M1385,2422.1c0,1.4,1.2,2.5,2.8,2.5c1.6,0,2.8-1.1,2.8-2.5c0-1.5-1.2-2.5-2.8-2.5C1386.1,2419.6,1385,2420.6,1385,2422.1z
			 M1387.2,2426.5v2h7.3v-2h0.8v5.6h-9v-5.6H1387.2z M1387.2,2431.4h7.3v-2.2h-7.3V2431.4z M1395.3,2418.1v7.6h-0.8v-7.6H1395.3z"/>
		<path d="M1403.2,2428.6c1.4-0.1,2.9-0.2,4.2-0.4l0.1,0.7c-3.1,0.5-6.5,0.6-9,0.6l-0.2-0.7c1.2,0,2.6,0,4.1-0.1v-1.8
			c-1.7-0.1-2.8-1.1-2.8-2.6c0-1.6,1.3-2.6,3.3-2.6c2,0,3.3,1,3.3,2.6c0,1.5-1.1,2.4-2.9,2.6V2428.6z M1407.1,2420.6h-8.6v-0.7h3.9
			v-1.8h0.8v1.8h3.9V2420.6z M1402.8,2426.2c1.5,0,2.5-0.8,2.5-1.9c0-1.1-1-1.9-2.5-1.9c-1.5,0-2.5,0.8-2.5,1.9
			C1400.3,2425.4,1401.3,2426.2,1402.8,2426.2z M1411.7,2425h-2.4v7.3h-0.8v-14.2h0.8v6.2h2.4V2425z"/>
		<path d="M1421.7,2420.5h-8.4v-0.7h3.8v-1.7h0.8v1.7h3.8V2420.5z M1417.4,2426.4c-2,0-3.4-1-3.4-2.5c0-1.6,1.3-2.5,3.4-2.5
			c2,0,3.3,1,3.3,2.5C1420.8,2425.5,1419.5,2426.4,1417.4,2426.4z M1417.4,2425.8c1.5,0,2.5-0.8,2.5-1.8c0-1.1-1-1.9-2.5-1.9
			c-1.5,0-2.6,0.8-2.6,1.9C1414.9,2425,1415.9,2425.8,1417.4,2425.8z M1415,2427.9h9.1v4.5h-0.8v-3.7h-8.2V2427.9z M1426.4,2422.9
			h-2.2v4.1h-0.8v-8.9h0.8v4.1h2.2V2422.9z"/>
		<path d="M1434.7,2425v1.7h4.3v2.9h-8.7v1.8h9.1v0.7h-10v-3.1h8.7v-1.6h-8.7v-0.7h4.4v-1.7h-6v-0.7h12.9v0.7H1434.7z
			 M1439.1,2422.8h-9.4v-4.2h9.4V2422.8z M1438.2,2419.3h-7.8v2.8h7.8V2419.3z"/>
		<path d="M1450.8,2425.2c-1.7-0.6-3.2-1.8-3.7-3.4c-0.6,1.7-2,3.1-3.7,3.7l-0.4-0.7c2-0.7,3.7-2.5,3.7-4.6v-0.4h-3.5v-0.7h7.8v0.7
			h-3.5v0.4c0,2,1.8,3.7,3.8,4.3L1450.8,2425.2z M1454.7,2431.4v0.7h-9.5v-3.3h8.1v-1.8h-8.2v-0.7h9v3.2h-8.1v2H1454.7z
			 M1454.2,2425.5h-0.8v-7.4h0.8V2425.5z"/>
		<path d="M1473.8,2425v0.7h-12.9v-0.7H1473.8z M1472.2,2429.7c0,1.6-1.8,2.5-4.8,2.5s-4.8-0.9-4.8-2.5c0-1.6,1.8-2.5,4.8-2.5
			S1472.2,2428.1,1472.2,2429.7z M1472.2,2423.5h-9.7v-4.7h9.6v0.7h-8.7v3.2h8.8V2423.5z M1471.3,2429.7c0-1.2-1.6-1.8-4-1.8
			s-4,0.7-4,1.8c0,1.2,1.6,1.8,4,1.8S1471.3,2430.9,1471.3,2429.7z"/>
		<path d="M1488.5,2426v0.7h-12.9v-0.7h6v-1.8h-4.3v-3.2h8.7v-1.8h-8.7v-0.7h9.5v3.2h-8.7v1.8h9v0.7h-4.6v1.8H1488.5z M1477,2428
			h9.8v4.1h-0.8v-3.4h-9V2428z"/>
		<path d="M1499.4,2426.1c-3,0.5-6.5,0.6-9,0.6l-0.1-0.7c1.2,0,2.5,0,4-0.1v-1.6c-1.8-0.1-3.1-1.2-3.1-2.7c0-1.7,1.4-2.8,3.5-2.8
			c2.1,0,3.5,1.1,3.5,2.8c0,1.5-1.2,2.6-3,2.7v1.6c1.4-0.1,2.9-0.2,4.3-0.4L1499.4,2426.1z M1494.7,2423.6c1.6,0,2.7-0.9,2.7-2.1
			s-1.1-2.1-2.7-2.1s-2.7,0.9-2.7,2.1S1493.1,2423.6,1494.7,2423.6z M1493.4,2431.2h8.4v0.7h-9.2v-3.9h0.8V2431.2z M1503.5,2423.1
			v0.7h-2.3v5.2h-0.8v-10.9h0.8v5H1503.5z"/>
		<path d="M1518,2429.7v0.7H1505v-0.7h3.8v-3h-2.1v-4.1h8.7v-2.6h-8.7v-0.7h9.6v4h-8.7v2.7h9v0.7h-2.3v3H1518z M1509.7,2429.7h3.7
			v-3h-3.7V2429.7z"/>
	</g>
	<g class="st2">
		<path d="M1233.7,2456.5c0-1.2,0.9-2,1.8-2c0.9,0,1.8,0.8,1.8,2s-0.9,2-1.8,2C1234.6,2458.5,1233.7,2457.7,1233.7,2456.5z"/>
		<path d="M1249.4,2454.1v2.1h4.4v3.2h-8.8v2h9.1v0.7h-10v-3.3h8.8v-1.8h-8.8v-0.7h4.4v-2.1h-6v-0.7h10c0.3-1.7,0.3-2.9,0.3-3.8
			v-0.2h-8.6v-0.7h9.5v0.9c0,1,0,2.2-0.3,3.8h2.1v0.7H1249.4z"/>
		<path d="M1264.1,2455.6v2.1h4.4v4.6h-0.8v-3.8h-8.9v-0.7h4.6v-2.1h-6v-0.7h12.9v0.7H1264.1z M1263.5,2452.9
			c-1.6,0.4-3,0.4-4.4,0.4h-0.7v-4.7h4.8v0.7h-3.9v3.3c1.2,0,2.6-0.1,4.1-0.4L1263.5,2452.9z M1268.9,2453.3h-4.8v-4.7h4.7v0.7h-3.9
			v3.3h4V2453.3z"/>
		<path d="M1276.5,2452.7c0,2.3,1.9,4.9,3.8,5.8l-0.5,0.7c-1.5-0.8-3.1-2.6-3.7-4.6c-0.6,2.2-2.2,4.1-3.8,5l-0.5-0.7
			c1.8-0.9,3.9-3.6,3.9-6.1v-2.4h-3.4v-0.7h7.6v0.7h-3.3V2452.7z M1285.3,2454.8h-2.5v7.6h-0.8v-14.2h0.8v5.9h2.5V2454.8z"/>
		<path d="M1299.5,2455.3v0.7h-12.9v-0.7h6v-1.9h-4.3v-4.6h9.6v0.7h-8.7v3.2h8.8v0.7h-4.5v1.9H1299.5z M1297.9,2459.8
			c0,1.6-1.8,2.5-4.8,2.5s-4.8-0.9-4.8-2.5c0-1.6,1.8-2.5,4.8-2.5S1297.9,2458.1,1297.9,2459.8z M1297.1,2459.8c0-1.2-1.6-1.8-4-1.8
			s-4,0.7-4,1.8s1.6,1.8,4,1.8S1297.1,2460.9,1297.1,2459.8z"/>
		<path d="M1314.3,2455.4v0.7h-12.9v-0.7H1314.3z M1302.3,2453.7c2.3-0.3,5.1-1.4,5.1-3.4h-4.6v-0.7h4.6v-1.6h0.8v1.6h4.6v0.7h-4.6
			c0,2,2.8,3.2,5.1,3.4l-0.3,0.7c-2.1-0.3-4.4-1.2-5.2-2.8c-0.8,1.6-3.1,2.5-5.2,2.8L1302.3,2453.7z M1302.8,2457.9h9.8v4.5h-0.8
			v-3.7h-9V2457.9z"/>
		<path d="M1324,2456c-1.6-0.6-3-1.9-3.5-3.5c-0.6,1.8-2,3.2-3.7,3.9l-0.4-0.7c2-0.8,3.7-2.7,3.7-4.8v-0.9h-3.4v-0.7h7.6v0.7h-3.3
			v0.9c0,1.9,1.6,3.7,3.6,4.4L1324,2456z M1327.8,2459.7c0,1.7-1.8,2.6-4.7,2.6c-2.9,0-4.7-0.9-4.7-2.6c0-1.7,1.8-2.6,4.7-2.6
			C1326,2457.1,1327.8,2458,1327.8,2459.7z M1326.9,2459.7c0-1.2-1.5-1.9-3.8-1.9s-3.8,0.7-3.8,1.9s1.5,1.9,3.8,1.9
			S1326.9,2460.9,1326.9,2459.7z M1326.9,2451.9v-3.8h0.8v8.5h-0.8v-3.9h-3.2v-0.7H1326.9z"/>
		<path d="M1338.3,2449.7c0,4-2.1,7.6-6.7,9.8l-0.5-0.7c3.9-1.9,6.1-4.9,6.3-8.4h-5.7v-0.7H1338.3z M1342.4,2448.1v14.2h-0.8v-14.2
			H1342.4z"/>
		<path d="M1353,2449.7c0,4-2.1,7.6-6.7,9.8l-0.5-0.7c3.9-1.9,6.1-4.9,6.3-8.4h-5.7v-0.7H1353z M1357.1,2448.1v14.2h-0.8v-14.2
			H1357.1z"/>
		<path d="M1360.9,2456.3c0-3.1,0.9-5.7,2.3-8l0.6,0.3c-1.4,2.3-2.1,5-2.1,7.7c0,2.8,0.7,5.5,2.1,7.7l-0.6,0.3
			C1361.8,2461.9,1360.9,2459.4,1360.9,2456.3z"/>
	</g>
	<g class="st2">
		<path d="M1368.6,2450.3h-3.7v-0.8h8.3v0.8h-3.7v10.9h-1V2450.3z"/>
		<path d="M1375.5,2449.5h1.3l2.4,6.7c0.3,0.8,0.6,1.7,0.9,2.6h0.1c0.3-0.8,0.6-1.7,0.9-2.6l2.4-6.7h1.3v11.7h-0.9v-7.4
			c0-1,0.1-2.2,0.1-3.2h-0.1l-0.9,2.6l-2.4,6.8h-0.8l-2.5-6.8l-0.9-2.6h-0.1c0,1,0.1,2.3,0.1,3.2v7.4h-0.9V2449.5z"/>
		<path d="M1387.2,2459.7l0.6-0.7c0.8,1,2,1.6,3.4,1.6c1.7,0,2.8-0.9,2.8-2.2c0-1.4-0.9-1.9-2.1-2.4l-1.7-0.8
			c-1-0.5-2.4-1.2-2.4-2.9c0-1.7,1.5-2.9,3.5-2.9c1.4,0,2.6,0.6,3.3,1.4l-0.5,0.6c-0.7-0.7-1.6-1.2-2.8-1.2c-1.5,0-2.5,0.8-2.5,2
			c0,1.3,1.1,1.8,2,2.2l1.7,0.8c1.3,0.6,2.4,1.3,2.4,3.1c0,1.8-1.5,3.2-3.8,3.2C1389.4,2461.4,1388.1,2460.7,1387.2,2459.7z"/>
		<path d="M1396.2,2464c1.4-2.2,2.1-5,2.1-7.7c0-2.8-0.7-5.5-2.1-7.7l0.6-0.3c1.5,2.4,2.3,4.9,2.3,8s-0.9,5.7-2.3,8L1396.2,2464z"/>
	</g>
	<g class="st2">
		<path d="M1412.9,2455.1c-1.6-0.6-3-1.8-3.6-3.3c-0.6,1.7-2,3.1-3.6,3.7l-0.4-0.7c2-0.7,3.7-2.5,3.7-4.8v-1.5h0.8v1.5
			c0,2,1.7,3.7,3.7,4.4L1412.9,2455.1z M1417.3,2461.4v0.7h-9.6v-3.3h8.1v-1.8h-8.2v-0.7h9v3.2h-8.1v1.9H1417.3z M1415.9,2451.7
			h-3.4v-0.7h3.4v-2.9h0.8v7.4h-0.8V2451.7z"/>
		<path d="M1424.9,2452.8c0,2.6,1.9,4.9,3.9,5.8l-0.5,0.7c-1.6-0.8-3.1-2.4-3.8-4.4c-0.6,2.1-2.1,3.9-3.7,4.7l-0.5-0.7
			c2-0.9,3.8-3.4,3.8-6.1v-1.4h-3.5v-0.7h3.5v-2.3h0.8v2.3h3.4v0.7h-3.5V2452.8z M1431.4,2448.1v14.2h-0.9v-14.2H1431.4z"/>
		<path d="M1447.2,2456.5c-3.1,0.6-6.5,0.6-9,0.6l-0.1-0.7c1.2,0,2.6,0,4,0v-1.2c-1.7-0.1-2.8-0.8-2.8-2.1c0-1.3,1.3-2.1,3.2-2.1
			c1.9,0,3.2,0.8,3.2,2.1c0,1.2-1.1,2-2.8,2.1v1.2c1.4-0.1,2.8-0.2,4.2-0.4L1447.2,2456.5z M1446.7,2450.2h-8.3v-0.7h3.7v-1.6h0.8
			v1.6h3.7V2450.2z M1439.8,2458.4h9.2v4h-0.8v-3.3h-8.3V2458.4z M1442.6,2454.4c1.5,0,2.4-0.6,2.4-1.5c0-0.9-1-1.5-2.4-1.5
			c-1.5,0-2.4,0.6-2.4,1.5C1440.1,2453.9,1441.1,2454.4,1442.6,2454.4z M1451.2,2453.3h-2.3v4.3h-0.8v-9.4h0.8v4.4h2.3V2453.3z"/>
		<path d="M1454.3,2457.9c2.3,0,3.7-0.1,5.3-0.4l0.1,0.7c-1.7,0.4-3.1,0.4-5.4,0.4h-0.9v-8.8h5.3v0.7h-4.5L1454.3,2457.9
			L1454.3,2457.9z M1464.8,2448.1v14.2h-0.8v-7.6h-2.4v6.9h-0.8v-13.1h0.8v5.5h2.4v-5.8H1464.8z"/>
	</g>
	<g id="사각형_374" transform="translate(1203 2307)">
		<rect y="0" class="st3" width="457" height="50"/>
		<rect x="0.5" y="0.5" class="st1" width="456" height="49"/>
	</g>
	<g class="st2">
		<path class="st4" d="M1375.3,2327.4h-9.8v-1.9h3.7v-1.7h2.4v1.7h3.7V2327.4z M1370.4,2333.9c-2.4,0-4.1-1.2-4.1-3
			c0-1.8,1.7-3,4.1-3c2.4,0,4.1,1.2,4.1,3C1374.5,2332.7,1372.8,2333.9,1370.4,2333.9z M1378.7,2337.6c0,1.8-2.1,2.9-5.6,2.9
			c-3.4,0-5.6-1.1-5.6-2.9c0-1.9,2.1-3,5.6-3C1376.6,2334.7,1378.7,2335.8,1378.7,2337.6z M1370.4,2332.2c1.1,0,1.8-0.4,1.8-1.2
			c0-0.8-0.7-1.2-1.8-1.2c-1.1,0-1.8,0.4-1.8,1.2C1368.6,2331.7,1369.3,2332.2,1370.4,2332.2z M1376.4,2337.6c0-0.8-1.1-1.2-3.2-1.2
			c-2.1,0-3.2,0.4-3.2,1.2c0,0.8,1.1,1.2,3.2,1.2C1375.3,2338.8,1376.4,2338.4,1376.4,2337.6z M1378.6,2328.3v1.7h2.1v1.9h-2.1v2.6
			h-2.4V2324h2.4v2.4h2.1v1.9H1378.6z"/>
		<path class="st4" d="M1397.7,2336.6h-6.3v4h-2.4v-4h-6.3v-1.9h15V2336.6z M1396.9,2327.5h-13.5v-1.9h5.6v-1.7h2.4v1.7h5.5V2327.5z
			 M1390.2,2328.2c3.5,0,5.7,1,5.7,2.9c0,1.8-2.1,2.8-5.7,2.8c-3.5,0-5.7-1-5.7-2.8C1384.5,2329.2,1386.6,2328.2,1390.2,2328.2z
			 M1390.2,2330c-2.2,0-3.2,0.3-3.2,1.1c0,0.7,1,1.1,3.2,1.1s3.2-0.3,3.2-1.1C1393.4,2330.3,1392.3,2330,1390.2,2330z"/>
		<path class="st4" d="M1413.1,2324.3h2.2v15.5h-2.2v-5.4h-2.3v-1.9h2.3v-2.3h-2c-0.7,2.7-2.4,5-5.5,6.9l-1.4-1.7
			c3.3-2,4.7-4.4,5-7.6h-4.1v-1.9h6.4c0,0.8-0.1,1.6-0.1,2.4h1.6V2324.3z M1418.8,2323.9v16.6h-2.3v-16.6H1418.8z"/>
		<path class="st4" d="M1432.3,2334.2c-3.5,0.6-7.3,0.6-10.2,0.6l-0.3-1.8c1.3,0,2.7,0,4.2,0v-0.9c-1.8-0.3-2.9-1.2-2.9-2.4
			c0-1.5,1.7-2.5,4.1-2.5c2.4,0,4.1,1,4.1,2.5c0,1.3-1.1,2.1-2.9,2.4v0.8c1.3-0.1,2.6-0.2,3.8-0.3L1432.3,2334.2z M1431.9,2326.9
			h-9.7v-1.7h3.7v-1.3h2.4v1.3h3.7V2326.9z M1424,2335.8h11.5v4.7h-2.4v-2.9h-9.1V2335.8z M1427.1,2330.7c1.1,0,1.8-0.3,1.8-0.9
			c0-0.6-0.7-0.9-1.8-0.9c-1.1,0-1.9,0.3-1.9,0.9C1425.2,2330.4,1426,2330.7,1427.1,2330.7z M1435.5,2324v11.2h-2.4V2324H1435.5z"/>
		<path class="st4" d="M1452.4,2332h-8v-7h8V2332z M1452.9,2336c0.3,1.1,1.9,2.4,5.2,2.7l-0.8,1.8c-2.8-0.2-4.7-1.2-5.7-2.5
			c-1,1.3-3,2.3-5.7,2.5l-0.7-1.8c3.3-0.3,5-1.5,5.2-2.7h-4.6v-1.8h4.6v-1.4h2.4v1.4h4.6v1.8H1452.9z M1450,2326.8h-3.4v3.3h3.4
			V2326.8z M1457.2,2333.4h-2.4v-9.4h2.4V2333.4z"/>
		<path class="st4" d="M1480.3,2332v1.9h-15v-1.9h6.3v-1.5h-4.4v-5.9h11.3v5.9h-4.4v1.5H1480.3z M1467,2335.1h11.5v5.5h-2.4v-3.6
			h-9.1V2335.1z M1469.5,2328.6h6.6v-2.1h-6.6V2328.6z"/>
		<path class="st4" d="M1497.5,2336.8v1.9h-15v-1.9h3.7v-3.1h-2.4v-1.9h2.2v-4.7h-2.3v-1.9h12.6v1.9h-2.3v4.7h2.2v1.9h-2.5v3.1
			H1497.5z M1488.3,2331.8h3.4v-4.7h-3.4V2331.8z M1488.5,2336.8h2.9v-3.1h-2.9V2336.8z"/>
	</g>
</g>
</svg>
