<?xml version="1.0" encoding="utf-8"?>
<!-- Generator: Adobe Illustrator 25.1.0, SVG Export Plug-In . SVG Version: 6.00 Build 0)  -->
<svg version="1.1" id="레이어_1" xmlns="http://www.w3.org/2000/svg" xmlns:xlink="http://www.w3.org/1999/xlink" x="0px"
	 y="0px" viewBox="0 0 335 233" style="enable-background:new 0 0 335 233;" xml:space="preserve">
<style type="text/css">
	.st0{enable-background:new    ;}
	.st1{fill:#555555;}
	.st2{fill:#FAFAFA;}
	.st3{fill:none;stroke:#D6D6D6;}
	.st4{fill:none;stroke:#717171;}
</style>
<g id="그룹_5729" transform="translate(-20 -2680.197)">
	<g id="그룹_5709" transform="translate(0 -25.953)">
		<g class="st0">
			<path class="st1" d="M94.6,2913.6h1.2v9.5h-1.2V2913.6z"/>
			<path class="st1" d="M97.7,2921.9l0.7-0.8c0.7,0.7,1.7,1.2,2.6,1.2c1.2,0,2-0.6,2-1.6s-0.7-1.3-1.6-1.7l-1.4-0.6
				c-0.9-0.4-1.9-1.1-1.9-2.4c0-1.5,1.3-2.5,3-2.5c1.1,0,2.1,0.5,2.8,1.2l-0.6,0.8c-0.6-0.5-1.3-0.9-2.2-0.9c-1.1,0-1.8,0.5-1.8,1.4
				s0.8,1.3,1.6,1.6l1.4,0.6c1.1,0.5,2,1.1,2,2.5c0,1.5-1.2,2.7-3.2,2.7C99.7,2923.3,98.5,2922.8,97.7,2921.9z"/>
			<path class="st1" d="M105.6,2918.4c0-3.1,1.7-4.9,4.1-4.9s4.1,1.9,4.1,4.9c0,3.1-1.7,5-4.1,5
				C107.3,2923.3,105.6,2921.4,105.6,2918.4z M112.5,2918.4c0-2.4-1.1-3.9-2.8-3.9c-1.7,0-2.8,1.5-2.8,3.9s1.1,3.9,2.8,3.9
				C111.3,2922.3,112.5,2920.7,112.5,2918.4z"/>
			<path class="st1" d="M118.5,2922.2h2.1v-7.1H119v-0.8c0.8-0.2,1.5-0.4,2-0.7h0.9v8.5h1.9v1h-5.2v-0.9H118.5z"/>
			<path class="st1" d="M131.4,2920.5h-1.3v2.6H129v-2.6h-4.1v-0.8l4-6.1h1.3v6h1.3v0.9H131.4z M129,2919.6v-2.9
				c0-0.5,0.1-1.2,0.1-1.7H129c-0.2,0.5-0.5,0.9-0.8,1.4l-2.2,3.2H129z"/>
			<path class="st1" d="M132.4,2918.4c0-3.3,1.2-4.9,3-4.9s3,1.6,3,4.9c0,3.3-1.2,5-3,5C133.6,2923.3,132.4,2921.7,132.4,2918.4z
				 M137.2,2918.4c0-2.8-0.7-4-1.8-4s-1.8,1.2-1.8,4s0.7,4,1.8,4S137.2,2921.2,137.2,2918.4z"/>
			<path class="st1" d="M139.7,2918.4c0-3.3,1.2-4.9,3-4.9s3,1.6,3,4.9c0,3.3-1.2,5-3,5C140.8,2923.3,139.7,2921.7,139.7,2918.4z
				 M144.4,2918.4c0-2.8-0.7-4-1.8-4s-1.8,1.2-1.8,4s0.7,4,1.8,4S144.4,2921.2,144.4,2918.4z"/>
			<path class="st1" d="M147.4,2922.2h2.1v-7.1h-1.7v-0.8c0.8-0.2,1.5-0.4,2-0.7h0.9v8.5h1.9v1h-5.2V2922.2z"/>
		</g>
		<g class="st0">
			<path class="st1" d="M160.4,2919c-1.7,0-3-1.2-3-2.9s1.3-2.9,3-2.9s3.1,1.2,3.1,2.9C163.4,2917.8,162.1,2919,160.4,2919z
				 M160.4,2918.1c1.2,0,2-0.8,2-2c0-1.1-0.9-1.9-2-1.9s-2,0.8-2,1.9C158.4,2917.3,159.2,2918.1,160.4,2918.1z M167,2923v0.9h-7.9
				v-3.7h1.1v2.9L167,2923L167,2923z M166.6,2921h-1.1v-8.5h1.1V2921z"/>
			<path class="st1" d="M179.6,2918v0.9H169v-0.9H179.6z M169.6,2916.5c2.1-0.2,3.9-1.2,4-2.5H170v-0.9h8.6v0.9H175
				c0.1,1.3,1.9,2.3,4,2.5l-0.4,0.8c-1.9-0.2-3.7-1.1-4.3-2.4c-0.6,1.3-2.4,2.1-4.3,2.4L169.6,2916.5z M178.3,2922
				c0,1.4-1.5,2.1-4,2.1s-4-0.8-4-2.1c0-1.4,1.5-2.1,4-2.1C176.8,2919.9,178.3,2920.6,178.3,2922z M177.2,2922
				c0-0.8-1.1-1.3-2.9-1.3c-1.8,0-2.9,0.5-2.9,1.3s1.1,1.3,2.9,1.3C176.1,2923.3,177.2,2922.8,177.2,2922z"/>
			<path class="st1" d="M187.8,2915.6c0,2.1,1.3,4.2,3,5l-0.7,0.8c-1.2-0.7-2.3-2-2.8-3.6c-0.5,1.7-1.6,3.2-2.9,3.9l-0.6-0.9
				c1.7-0.9,3-3.1,3-5.2v-2.1h1.1v2.1H187.8z M194.8,2918.1h-1.9v6h-1.1v-11.6h1.1v4.7h1.9V2918.1z"/>
			<path class="st1" d="M205.5,2912.5v6.3h-1.1v-2.6H202c-0.2,1.4-1.4,2.3-3,2.3c-1.7,0-3-1.1-3-2.7c0-1.6,1.3-2.7,3-2.7
				c1.6,0,2.7,0.9,3,2.2h2.4v-2.8H205.5z M201,2915.7c0-1.1-0.8-1.8-2-1.8s-2,0.7-2,1.8s0.8,1.8,2,1.8S201,2916.8,201,2915.7z
				 M204.4,2919.3h1.1v4.7H198v-4.7h1.1v1.5h5.3L204.4,2919.3L204.4,2919.3z M204.4,2921.6H199v1.5h5.3L204.4,2921.6L204.4,2921.6z"
				/>
			<path class="st1" d="M214.1,2918.9c-1.3-0.4-2.3-1.4-2.8-2.5c-0.5,1.3-1.5,2.4-2.9,2.9l-0.5-0.8c1.8-0.6,2.9-2.1,2.9-3.8v-0.5
				h-2.6v-0.9h6.3v0.9h-2.6v0.5c0,1.5,1.1,2.9,2.8,3.5L214.1,2918.9z M217,2922c0,1.4-1.5,2.2-3.8,2.2c-2.4,0-3.8-0.8-3.8-2.2
				s1.5-2.1,3.8-2.1C215.5,2919.8,217,2920.6,217,2922z M215.9,2922c0-0.8-1.1-1.3-2.8-1.3s-2.8,0.5-2.8,1.3s1,1.3,2.8,1.3
				S215.9,2922.8,215.9,2922z M218.6,2915.4v0.9h-1.7v3.2h-1.1v-7h1.1v2.9L218.6,2915.4L218.6,2915.4z"/>
			<path class="st1" d="M224.4,2913.5v3.1h3.4v-3.1h1.1v7.9h-5.5v-7.9H224.4z M224.4,2920.4h3.4v-3.1h-3.4V2920.4z M232.2,2912.5
				v11.7h-1.1v-11.7H232.2z"/>
			<path class="st1" d="M242.3,2918.2v1.2h1.6v2.6H237v1.2h7.2v0.8H236v-2.8h6.8v-1h-6.9v-0.8h1.6v-1.2h-2.9v-0.9h10.5v0.9H242.3z
				 M235.8,2914.6c0-1.3,1.5-2,4.1-2s4.1,0.7,4.1,2s-1.5,2-4.1,2S235.8,2915.9,235.8,2914.6z M236.9,2914.6c0,0.8,1.1,1.2,3,1.2
				s3-0.4,3-1.2s-1.1-1.2-3-1.2S236.9,2913.8,236.9,2914.6z M241.2,2918.2h-2.7v1.2h2.7V2918.2z"/>
			<path class="st1" d="M249.8,2917.2c0-0.5,0.4-0.9,0.9-0.9s0.9,0.4,0.9,0.9s-0.4,0.9-0.9,0.9
				C250.2,2918.1,249.8,2917.7,249.8,2917.2z M249.8,2922.4c0-0.5,0.4-0.9,0.9-0.9s0.9,0.4,0.9,0.9s-0.4,0.9-0.9,0.9
				S249.8,2923,249.8,2922.4z"/>
			<path class="st1" d="M255.9,2920.8c0-1.3,0.9-2.2,1.8-2.6v-0.1c-0.7-0.5-1.3-1.2-1.3-2.2c0-1.5,1.1-2.4,2.6-2.4
				c1.6,0,2.6,1,2.6,2.5c0,1-0.7,1.9-1.3,2.3v0.1c0.8,0.5,1.6,1.2,1.6,2.5c0,1.4-1.2,2.5-3,2.5
				C257.2,2923.3,255.9,2922.3,255.9,2920.8z M260.8,2920.8c0-1.3-1.2-1.8-2.5-2.3c-0.8,0.5-1.3,1.2-1.3,2.2s0.8,1.8,2,1.8
				C260.1,2922.4,260.8,2921.8,260.8,2920.8z M260.6,2916.1c0-0.9-0.6-1.7-1.6-1.7c-0.9,0-1.5,0.6-1.5,1.5c0,1.1,1,1.6,2.1,2.1
				C260.3,2917.4,260.6,2916.8,260.6,2916.1z"/>
			<path class="st1" d="M263.2,2918.4c0-3.3,1.2-4.9,3-4.9s3,1.6,3,4.9c0,3.3-1.2,5-3,5C264.4,2923.3,263.2,2921.7,263.2,2918.4z
				 M268,2918.4c0-2.8-0.7-4-1.8-4c-1.1,0-1.8,1.2-1.8,4s0.7,4,1.8,4S268,2921.2,268,2918.4z"/>
			<path class="st1" d="M270.3,2916.4c0-1.9,0.9-3,2.2-3c1.3,0,2.2,1.1,2.2,3s-0.9,3-2.2,3C271.1,2919.5,270.3,2918.4,270.3,2916.4z
				 M273.7,2916.4c0-1.5-0.5-2.3-1.3-2.3c-0.7,0-1.3,0.7-1.3,2.3c0,1.5,0.5,2.3,1.3,2.3C273.2,2918.7,273.7,2918,273.7,2916.4z
				 M278,2913.5h0.8l-5.3,9.9h-0.8L278,2913.5z M276.9,2920.3c0-1.9,0.9-3,2.2-3s2.2,1.1,2.2,3s-0.9,3-2.2,3
				S276.9,2922.2,276.9,2920.3z M280.3,2920.3c0-1.5-0.5-2.3-1.3-2.3s-1.3,0.7-1.3,2.3c0,1.5,0.5,2.3,1.3,2.3
				S280.3,2921.8,280.3,2920.3z"/>
		</g>
		<g id="그룹_4800" transform="translate(20 2736.149)">
			<rect id="사각형_375" y="-29.7" class="st2" width="335" height="38.2"/>
			<line id="선_348" class="st3" x1="0.2" y1="8.7" x2="334.8" y2="8.7"/>
			<line id="선_348-2" class="st3" x1="0.2" y1="47.4" x2="334.8" y2="47.4"/>
			<line id="선_348-3" class="st3" x1="0.2" y1="86.2" x2="334.8" y2="86.2"/>
			<line id="선_348-4" class="st3" x1="0.2" y1="125" x2="334.8" y2="125"/>
			<line id="선_348-5" class="st3" x1="0.2" y1="163.8" x2="334.8" y2="163.8"/>
			<line id="선_348-6" class="st4" x1="0.2" y1="202.5" x2="334.8" y2="202.5"/>
			<g>
				<g class="st0">
					<path class="st1" d="M24.8-13.1c0,1.9,1,3.9,2.6,4.7l-0.8,1c-1.2-0.6-2-1.8-2.5-3.2c-0.5,1.5-1.4,2.8-2.6,3.4l-0.8-1
						c1.7-0.8,2.7-2.9,2.7-4.9v-1.8h1.2v1.8H24.8z M31.1-10.4h-1.7v5.5h-1.2v-10.9h1.2v4.3h1.7V-10.4z"/>
					<path class="st1" d="M41.1-15.8v5.8h-1.2v-2.3h-2c-0.2,1.2-1.3,2.1-2.8,2.1c-1.6,0-2.8-1-2.8-2.5s1.2-2.5,2.8-2.5
						c1.4,0,2.5,0.8,2.8,2h2v-2.5h1.2V-15.8z M36.7-12.7c0-0.9-0.7-1.5-1.6-1.5c-1,0-1.6,0.6-1.6,1.5s0.7,1.5,1.6,1.5
						S36.7-11.8,36.7-12.7z M39.8-9.4H41V-5h-7v-4.4h1.2v1.2h4.6V-9.4z M39.8-7.3h-4.6v1.2h4.6V-7.3z"/>
					<path class="st1" d="M48.9-9.7c-1.2-0.4-2.1-1.2-2.5-2.2c-0.5,1.2-1.4,2.1-2.7,2.5l-0.6-1c1.7-0.6,2.7-2,2.7-3.5v-0.2h-2.3v-1
						h5.8v1H47v0.2c0,1.3,0.9,2.6,2.6,3.1L48.9-9.7z M51.7-7c0,1.3-1.4,2.1-3.6,2.1c-2.2,0-3.6-0.8-3.6-2.1c0-1.3,1.4-2.1,3.6-2.1
						C50.3-9,51.7-8.3,51.7-7z M50.5-7c0-0.7-0.9-1.1-2.4-1.1S45.7-7.7,45.7-7s0.9,1.1,2.4,1.1C49.6-5.9,50.5-6.3,50.5-7z
						 M53.1-13.1v1h-1.5v2.8h-1.2v-6.5h1.2v2.6h1.5V-13.1z"/>
				</g>
			</g>
			<g class="st0">
				<path class="st1" d="M36.4,27v0.8H32v2.6h-1v-2.6h-4.4V27h7.3c0.3-1.4,0.3-2.4,0.3-3.3v-0.1h-6.3v-0.8h7.3v0.9
					c0,0.9,0,1.9-0.3,3.3C34.9,27,36.4,27,36.4,27z M28.8,32h6.5v0.8h-7.5v-3.4h1V32z"/>
				<path class="st1" d="M43.4,28.5c-1.2-0.4-2.1-1.3-2.6-2.5c-0.4,1.3-1.4,2.3-2.7,2.7l-0.5-0.8c1.6-0.6,2.7-2,2.7-3.7v-1.3h1v1.4
					c0,1.5,1.1,2.8,2.7,3.4L43.4,28.5z M40.3,32h6.2v0.8h-7.1v-3.3h1V32H40.3z M47.6,25.6v0.8H46v3.8h-1v-8h1v3.3h1.6V25.6z"/>
			</g>
			<g class="st0">
				<path class="st1" d="M36.3,69.9v0.8h-9.8v-0.8h4.4v-2.5h-3.5v-0.8H29v-3.5h-1.7v-0.8h8v0.8h-1.7v3.5h1.6v0.8h-3.5v2.5
					C31.7,69.9,36.3,69.9,36.3,69.9z M30.1,66.6h2.7v-3.5h-2.7C30.1,63.1,30.1,66.6,30.1,66.6z"/>
				<path class="st1" d="M44,63.3h-6.3v-0.8h2.7v-1.3h1v1.3H44V63.3z M40.8,67.6c-1.5,0-2.6-0.7-2.6-1.9c0-1.2,1-1.9,2.6-1.9
					s2.6,0.7,2.6,1.9C43.4,66.9,42.4,67.6,40.8,67.6z M46.1,70.2c0,1.2-1.3,1.9-3.5,1.9s-3.5-0.7-3.5-1.9c0-1.2,1.3-1.9,3.5-1.9
					S46.1,69,46.1,70.2z M40.8,66.9c1,0,1.6-0.5,1.6-1.2s-0.7-1.2-1.6-1.2c-1,0-1.6,0.5-1.6,1.2S39.9,66.9,40.8,66.9z M45.1,70.2
					c0-0.7-1-1.1-2.5-1.1c-1.6,0-2.5,0.4-2.5,1.1s1,1.1,2.5,1.1C44.2,71.3,45.1,70.9,45.1,70.2z M47.6,64.3v0.8H46v3.1h-1v-6.9h1v3
					H47.6z"/>
			</g>
			<g class="st0">
				<path class="st1" d="M33.3,104.8c-2.2,0.3-4.8,0.4-6.7,0.4l-0.1-0.8c0.7,0,1.5,0,2.3,0v-2.1h1v2.1c1.2,0,2.4-0.1,3.5-0.3
					L33.3,104.8z M31.3,103.4c0.3-1.1,0.3-2,0.3-2.6h-4.4V100h5.3v0.6c0,0.7,0,1.7-0.3,2.9L31.3,103.4z M35.1,108.1
					c0,1.2-1.4,2-3.6,2s-3.6-0.7-3.6-2c0-1.2,1.4-1.9,3.6-1.9C33.7,106.1,35.1,106.8,35.1,108.1z M34.1,108.1c0-0.7-1-1.2-2.6-1.2
					s-2.6,0.4-2.6,1.2c0,0.7,1,1.2,2.6,1.2S34.1,108.8,34.1,108.1z M36.5,102.2v0.8H35v3h-1v-6.7h1v3h1.5V102.2z"/>
				<path class="st1" d="M40.6,105c-1.6,0-2.8-1-2.8-2.5s1.2-2.5,2.8-2.5s2.8,1,2.8,2.5C43.5,103.9,42.3,105,40.6,105z M40.6,104.2
					c1.1,0,1.8-0.7,1.8-1.7s-0.8-1.7-1.8-1.7c-1.1,0-1.8,0.7-1.8,1.7S39.6,104.2,40.6,104.2z M46.1,108c0,1.3-1.4,2-3.5,2
					c-2.2,0-3.6-0.7-3.6-2s1.4-2,3.6-2C44.7,106,46.1,106.7,46.1,108z M45.1,108c0-0.8-1-1.2-2.6-1.2s-2.6,0.5-2.6,1.2
					c0,0.8,1,1.2,2.6,1.2S45.1,108.8,45.1,108z M46,101.7v1.5h1.6v0.8H46v1.7h-1v-6.4h1v1.6h1.6v0.8L46,101.7L46,101.7z"/>
			</g>
			<g class="st0">
				<path class="st1" d="M32.5,141.4c0,1.5-1.2,2.5-2.8,2.5c-1.6,0-2.8-1-2.8-2.5s1.2-2.5,2.8-2.5S32.5,139.9,32.5,141.4z
					 M27.8,141.4c0,1,0.8,1.7,1.8,1.7c1.1,0,1.8-0.7,1.8-1.7s-0.8-1.7-1.8-1.7C28.6,139.7,27.8,140.4,27.8,141.4z M35.4,145.2v3.8
					h-1v-3h-6.2v-0.8H35.4z M35.4,138.2v6.4h-1v-6.4H35.4z"/>
				<path class="st1" d="M43.4,144.4c-1.2-0.4-2.1-1.3-2.6-2.5c-0.4,1.3-1.4,2.3-2.7,2.7l-0.5-0.8c1.6-0.6,2.7-2,2.7-3.7v-1.3h1v1.4
					c0,1.5,1.1,2.8,2.7,3.4L43.4,144.4z M40.3,147.9h6.2v0.8h-7.1v-3.3h1v2.5H40.3z M47.6,141.5v0.8H46v3.8h-1v-8h1v3.3L47.6,141.5
					L47.6,141.5z"/>
			</g>
			<g>
				<g class="st0">
					<path class="st1" d="M104.8-13.1c0,2,1.1,4,2.8,4.8l-0.7,1c-1.2-0.6-2.2-1.8-2.7-3.2c-0.5,1.6-1.5,2.9-2.8,3.5l-0.7-1
						c1.7-0.8,2.9-2.9,2.9-4.9v-1.8h1.2C104.8-14.7,104.8-13.1,104.8-13.1z M109.7-15.8v10.9h-1.2v-10.9H109.7z"/>
					<path class="st1" d="M121.6-7.3v1h-9.8v-1H121.6z M120.7-9.4c-1.8-0.4-3.3-1.5-4-3c-0.7,1.5-2.2,2.6-4,3l-0.5-1
						c2.1-0.4,3.9-2.1,3.9-3.8V-15h1.3v0.8c0,1.7,1.7,3.4,3.9,3.8L120.7-9.4z"/>
					<path class="st1" d="M128-10.1c-1.2,0.2-2.3,0.3-3.9,0.3h-0.7v-5.3h4.1v1h-2.9v1.1h2.5v0.9h-2.5v1.2c1.4,0,2.3-0.1,3.3-0.3
						L128-10.1z M124.8-8.8h7.2v3.7h-7.2V-8.8z M126-6h4.8v-1.8H126V-6z M128.8-12.1h-1.3v-1h1.3v-2.5h1.2v6.2h-1.2V-12.1z
						 M132-15.8v6.5h-1.2v-6.5H132z"/>
					<path class="st1" d="M139.7-9.6c-1.6,0-2.9-1.1-2.9-2.7s1.2-2.7,2.9-2.7c1.6,0,2.9,1.1,2.9,2.7C142.6-10.8,141.3-9.6,139.7-9.6
						z M139.7-10.7c0.9,0,1.7-0.7,1.7-1.6c0-1-0.7-1.6-1.7-1.6s-1.7,0.6-1.7,1.6S138.7-10.7,139.7-10.7z M145.8-6.1v1h-7.4v-3.6h1.2
						v2.5h6.2V-6.1z M145.5-7.9h-1.2v-7.9h1.2V-7.9z"/>
					<path class="st1" d="M157.4-10.7v1h-9.8v-1H157.4z M148.1-12.2c2-0.2,3.4-1.1,3.6-2.1h-3.2v-1h8v1h-3.2c0.2,1,1.6,1.8,3.6,2.1
						l-0.4,1c-1.9-0.2-3.4-1-4-2.1c-0.6,1.1-2.1,1.9-4,2.1L148.1-12.2z M156.2-6.9c0,1.3-1.4,2-3.7,2s-3.7-0.7-3.7-2s1.4-2,3.7-2
						S156.2-8.2,156.2-6.9z M155-6.9c0-0.7-0.9-1-2.5-1s-2.5,0.3-2.5,1s0.9,1,2.5,1S155-6.2,155-6.9z"/>
				</g>
			</g>
			<g>
				<g class="st0">
					<path class="st1" d="M248.4-8.6H246v3.7h-1.3v-3.7h-2.5v3.7h-1.3v-3.7h-2.4v-1h9.8L248.4-8.6z M239.6-13c0-1.5,1.6-2.4,3.8-2.4
						c2.3,0,3.8,0.9,3.8,2.4s-1.6,2.4-3.8,2.4C241.1-10.6,239.6-11.5,239.6-13z M240.8-13c0,0.9,1,1.4,2.6,1.4
						c1.5,0,2.6-0.5,2.6-1.4s-1-1.4-2.6-1.4C241.9-14.4,240.8-13.8,240.8-13z"/>
					<path class="st1" d="M259.4-7.1v1h-9.8v-1h2.5V-9c-0.8-0.3-1.2-0.9-1.2-1.6c0-1.3,1.4-2.1,3.6-2.1s3.6,0.8,3.6,2.1
						c0,0.7-0.4,1.3-1.2,1.6v1.9H259.4z M258.9-13.3H250v-1h3.8v-1.3h1.2v1.3h3.8v1H258.9z M252.1-10.6c0,0.7,0.9,1.1,2.3,1.1
						c1.5,0,2.4-0.4,2.4-1.1s-0.9-1.1-2.4-1.1C253-11.7,252.1-11.3,252.1-10.6z M253.3-7.1h2.4v-1.6c-0.4,0.1-0.8,0.1-1.2,0.1
						s-0.8,0-1.2-0.1V-7.1z"/>
					<path class="st1" d="M266.4-14.6c0,3.2-1.3,6-5,7.8l-0.7-1c2.8-1.4,4.2-3.3,4.4-5.8h-3.9v-1C261.2-14.6,266.4-14.6,266.4-14.6z
						 M269.5-15.8V-5h-1.2v-10.8H269.5z"/>
					<path class="st1" d="M277.2-14.9c0,2.9-1.9,4.9-5.1,5.9l-0.5-1c2.5-0.8,4-2.2,4.2-3.9H272v-1C272-14.9,277.2-14.9,277.2-14.9z
						 M274.5-6.1h6v1h-7.3v-3.6h1.2L274.5-6.1L274.5-6.1z M281.6-12.6v1h-1.5v3.7h-1.2v-7.8h1.2v3.2h1.5V-12.6z"/>
				</g>
			</g>
			<g class="st0">
				<path class="st1" d="M102.7,23.4h1.1v8.8h-1.1V23.4z"/>
				<path class="st1" d="M105.6,31l0.7-0.8c0.6,0.7,1.5,1.1,2.4,1.1c1.2,0,1.8-0.6,1.8-1.4c0-0.9-0.6-1.2-1.5-1.6l-1.3-0.6
					c-0.8-0.3-1.8-1-1.8-2.3c0-1.4,1.2-2.3,2.8-2.3c1,0,2,0.4,2.6,1.1l-0.6,0.7c-0.5-0.5-1.2-0.8-2-0.8c-1,0-1.6,0.5-1.6,1.3
					c0,0.9,0.8,1.2,1.5,1.5l1.3,0.5c1,0.4,1.8,1,1.8,2.4s-1.2,2.5-3,2.5C107.4,32.3,106.3,31.8,105.6,31z"/>
				<path class="st1" d="M112.8,27.7c0-2.8,1.5-4.5,3.8-4.5c2.2,0,3.8,1.7,3.8,4.5s-1.5,4.6-3.8,4.6
					C114.4,32.3,112.8,30.5,112.8,27.7z M119.2,27.7c0-2.2-1-3.6-2.6-3.6s-2.6,1.4-2.6,3.6c0,2.2,1,3.6,2.6,3.6
					S119.2,29.9,119.2,27.7z"/>
				<path class="st1" d="M124.8,31.2h2v-6.6h-1.6v-0.7c0.8-0.1,1.3-0.3,1.8-0.6h0.8v7.9h1.8v0.9h-4.8V31.2z"/>
				<path class="st1" d="M136.7,29.7h-1.2v2.4h-1v-2.4h-3.8V29l3.7-5.6h1.2v5.5h1.2L136.7,29.7L136.7,29.7z M134.5,28.9v-2.7
					c0-0.4,0-1.1,0.1-1.6l0,0c-0.2,0.4-0.5,0.9-0.7,1.3l-2,3H134.5z"/>
				<path class="st1" d="M137.7,27.7c0-3.1,1.1-4.5,2.7-4.5c1.7,0,2.7,1.5,2.7,4.5c0,3.1-1.1,4.6-2.7,4.6
					C138.7,32.3,137.7,30.8,137.7,27.7z M142.1,27.7c0-2.6-0.7-3.6-1.7-3.6s-1.7,1.1-1.7,3.6c0,2.6,0.7,3.7,1.7,3.7
					C141.4,31.4,142.1,30.3,142.1,27.7z"/>
				<path class="st1" d="M144.3,27.7c0-3.1,1.1-4.5,2.7-4.5c1.7,0,2.7,1.5,2.7,4.5c0,3.1-1.1,4.6-2.7,4.6
					C145.4,32.3,144.3,30.8,144.3,27.7z M148.7,27.7c0-2.6-0.7-3.6-1.7-3.6s-1.7,1.1-1.7,3.6c0,2.6,0.7,3.7,1.7,3.7
					C148.1,31.4,148.7,30.3,148.7,27.7z"/>
				<path class="st1" d="M151.4,31.2h2v-6.6h-1.6v-0.7c0.8-0.1,1.3-0.3,1.8-0.6h0.8v7.9h1.8v0.9h-4.8V31.2z"/>
			</g>
			<g class="st0">
				<path class="st1" d="M194.6,31.5c2.8-2.4,4-4.2,4-5.7c0-1-0.5-1.7-1.6-1.7c-0.7,0-1.3,0.4-1.8,1l-0.6-0.6
					c0.7-0.8,1.5-1.3,2.6-1.3c1.6,0,2.6,1,2.6,2.6c0,1.8-1.4,3.5-3.4,5.5c0.5,0,1-0.1,1.4-0.1h2.4v0.9h-5.5L194.6,31.5L194.6,31.5z"
					/>
				<path class="st1" d="M201.3,27.7c0-3.1,1.1-4.5,2.7-4.5c1.7,0,2.7,1.5,2.7,4.5c0,3.1-1.1,4.6-2.7,4.6
					C202.3,32.3,201.3,30.8,201.3,27.7z M205.7,27.7c0-2.6-0.7-3.6-1.7-3.6s-1.7,1.1-1.7,3.6c0,2.6,0.7,3.7,1.7,3.7
					C205,31.4,205.7,30.3,205.7,27.7z"/>
				<path class="st1" d="M207.9,31.5c2.8-2.4,4-4.2,4-5.7c0-1-0.5-1.7-1.6-1.7c-0.7,0-1.3,0.4-1.8,1l-0.6-0.6
					c0.7-0.8,1.5-1.3,2.6-1.3c1.6,0,2.6,1,2.6,2.6c0,1.8-1.4,3.5-3.4,5.5c0.5,0,1-0.1,1.4-0.1h2.4v0.9H208L207.9,31.5L207.9,31.5z"
					/>
				<path class="st1" d="M214.6,27.7c0-3.1,1.1-4.5,2.7-4.5c1.7,0,2.7,1.5,2.7,4.5c0,3.1-1.1,4.6-2.7,4.6
					C215.7,32.3,214.6,30.8,214.6,27.7z M219,27.7c0-2.6-0.7-3.6-1.7-3.6s-1.7,1.1-1.7,3.6c0,2.6,0.7,3.7,1.7,3.7
					C218.3,31.4,219,30.3,219,27.7z"/>
				<path class="st1" d="M221.5,31.5c0-0.5,0.4-0.9,0.8-0.9s0.8,0.4,0.8,0.9s-0.4,0.8-0.8,0.8S221.5,32,221.5,31.5z"/>
				<path class="st1" d="M225.1,31.2h2v-6.6h-1.6v-0.7c0.8-0.1,1.3-0.3,1.8-0.6h0.8v7.9h1.8v0.9h-4.8V31.2z"/>
				<path class="st1" d="M231.7,31.2h2v-6.6h-1.6v-0.7c0.8-0.1,1.3-0.3,1.8-0.6h0.8v7.9h1.8v0.9h-4.8V31.2z"/>
				<path class="st1" d="M238.2,31.5c0-0.5,0.4-0.9,0.8-0.9s0.8,0.4,0.8,0.9s-0.4,0.8-0.8,0.8S238.2,32,238.2,31.5z"/>
				<path class="st1" d="M241.2,27.7c0-3.1,1.1-4.5,2.7-4.5c1.7,0,2.7,1.5,2.7,4.5c0,3.1-1.1,4.6-2.7,4.6S241.2,30.8,241.2,27.7z
					 M245.7,27.7c0-2.6-0.7-3.6-1.7-3.6s-1.7,1.1-1.7,3.6c0,2.6,0.7,3.7,1.7,3.7C245,31.4,245.7,30.3,245.7,27.7z"/>
				<path class="st1" d="M248.4,31.2h2v-6.6h-1.6v-0.7c0.8-0.1,1.3-0.3,1.8-0.6h0.8v7.9h1.8v0.9h-4.8V31.2z"/>
				<path class="st1" d="M258.8,27.6c-0.4,0-0.7,0.2-1,0.8l-0.6-0.4c0.5-0.8,1.1-1.2,1.7-1.2c1,0,1.6,1.1,2.4,1.1
					c0.4,0,0.7-0.2,1-0.8l0.6,0.4c-0.5,0.8-1.1,1.2-1.7,1.2C260.1,28.7,259.5,27.6,258.8,27.6z"/>
				<path class="st1" d="M266.5,31.5c2.8-2.4,4-4.2,4-5.7c0-1-0.5-1.7-1.6-1.7c-0.7,0-1.3,0.4-1.8,1l-0.6-0.6
					c0.7-0.8,1.5-1.3,2.6-1.3c1.6,0,2.6,1,2.6,2.6c0,1.8-1.4,3.5-3.4,5.5c0.5,0,1-0.1,1.4-0.1h2.4v0.9h-5.5v-0.6H266.5z"/>
				<path class="st1" d="M273.3,27.7c0-3.1,1.1-4.5,2.7-4.5c1.7,0,2.7,1.5,2.7,4.5c0,3.1-1.1,4.6-2.7,4.6
					C274.3,32.3,273.3,30.8,273.3,27.7z M277.7,27.7c0-2.6-0.7-3.6-1.7-3.6s-1.7,1.1-1.7,3.6c0,2.6,0.7,3.7,1.7,3.7
					C277,31.4,277.7,30.3,277.7,27.7z"/>
				<path class="st1" d="M279.9,31.5c2.8-2.4,4-4.2,4-5.7c0-1-0.5-1.7-1.6-1.7c-0.7,0-1.3,0.4-1.8,1l-0.6-0.6
					c0.7-0.8,1.5-1.3,2.6-1.3c1.6,0,2.6,1,2.6,2.6c0,1.8-1.4,3.5-3.4,5.5c0.5,0,1-0.1,1.4-0.1h2.4v0.9H280v-0.6H279.9z"/>
				<path class="st1" d="M286.3,31.1l0.6-0.7c0.5,0.5,1.2,1,2.2,1s1.8-0.6,1.8-1.6c0-1.1-0.7-1.8-2.7-1.8v-0.8
					c1.8,0,2.4-0.7,2.4-1.7c0-0.9-0.6-1.4-1.5-1.4c-0.7,0-1.3,0.4-1.8,0.9l-0.6-0.7c0.7-0.6,1.4-1.1,2.5-1.1c1.5,0,2.6,0.8,2.6,2.2
					c0,1.1-0.6,1.8-1.6,2.1l0,0c1,0.2,1.9,1,1.9,2.2c0,1.6-1.3,2.5-2.8,2.5C287.8,32.3,286.9,31.7,286.3,31.1z"/>
				<path class="st1" d="M293.5,31.5c0-0.5,0.4-0.9,0.8-0.9s0.8,0.4,0.8,0.9s-0.4,0.8-0.8,0.8S293.5,32,293.5,31.5z"/>
				<path class="st1" d="M297,31.2h2v-6.6h-1.6v-0.7c0.8-0.1,1.3-0.3,1.8-0.6h0.8v7.9h1.8v0.9H297V31.2z"/>
				<path class="st1" d="M303.2,27.7c0-3.1,1.1-4.5,2.7-4.5c1.7,0,2.7,1.5,2.7,4.5c0,3.1-1.1,4.6-2.7,4.6
					C304.3,32.3,303.2,30.8,303.2,27.7z M307.7,27.7c0-2.6-0.7-3.6-1.7-3.6s-1.7,1.1-1.7,3.6c0,2.6,0.7,3.7,1.7,3.7
					C307,31.4,307.7,30.3,307.7,27.7z"/>
				<path class="st1" d="M310.2,31.5c0-0.5,0.4-0.9,0.8-0.9s0.8,0.4,0.8,0.9s-0.4,0.8-0.8,0.8S310.2,32,310.2,31.5z"/>
				<path class="st1" d="M313,31.1l0.6-0.7c0.5,0.5,1.2,1,2.2,1s1.8-0.6,1.8-1.6c0-1.1-0.7-1.8-2.7-1.8v-0.8c1.8,0,2.4-0.7,2.4-1.7
					c0-0.9-0.6-1.4-1.5-1.4c-0.7,0-1.3,0.4-1.8,0.9l-0.6-0.7c0.7-0.6,1.4-1.1,2.5-1.1c1.5,0,2.6,0.8,2.6,2.2c0,1.1-0.6,1.8-1.6,2.1
					l0,0c1,0.2,1.9,1,1.9,2.2c0,1.6-1.3,2.5-2.8,2.5C314.4,32.3,313.6,31.7,313,31.1z"/>
				<path class="st1" d="M320.4,31.2h2v-6.6h-1.6v-0.7c0.8-0.1,1.3-0.3,1.8-0.6h0.8v7.9h1.8v0.9h-4.8L320.4,31.2L320.4,31.2z"/>
			</g>
			<g class="st0">
				<path class="st1" d="M102,63h1.1v8.8H102V63z"/>
				<path class="st1" d="M104.9,70.6l0.7-0.8c0.6,0.7,1.5,1.1,2.4,1.1c1.2,0,1.8-0.6,1.8-1.4c0-0.9-0.6-1.2-1.5-1.6l-1.3-0.6
					c-0.8-0.3-1.8-1-1.8-2.3c0-1.4,1.2-2.3,2.8-2.3c1,0,2,0.4,2.6,1.1l-0.6,0.7c-0.5-0.5-1.2-0.8-2-0.8c-1,0-1.6,0.5-1.6,1.3
					c0,0.9,0.8,1.2,1.5,1.5l1.3,0.5c1,0.4,1.8,1,1.8,2.4s-1.2,2.5-3,2.5C106.7,71.9,105.7,71.4,104.9,70.6z"/>
				<path class="st1" d="M112.2,67.3c0-2.8,1.5-4.5,3.8-4.5c2.2,0,3.8,1.7,3.8,4.5s-1.5,4.6-3.8,4.6S112.2,70.1,112.2,67.3z
					 M118.6,67.3c0-2.2-1-3.6-2.6-3.6s-2.6,1.4-2.6,3.6s1,3.6,2.6,3.6C117.5,70.9,118.6,69.5,118.6,67.3z"/>
				<path class="st1" d="M124.1,70.8h2v-6.5h-1.6v-0.7c0.8-0.1,1.3-0.3,1.8-0.6h0.8v7.9h1.8v0.9h-4.8
					C124.1,71.8,124.1,70.8,124.1,70.8z"/>
				<path class="st1" d="M136,69.3h-1.2v2.4h-1v-2.4H130v-0.7l3.7-5.6h1.2v5.5h1.2L136,69.3L136,69.3z M133.8,68.5v-2.7
					c0-0.4,0-1.1,0.1-1.6l0,0c-0.2,0.4-0.5,0.9-0.7,1.3l-2,3C131.2,68.5,133.8,68.5,133.8,68.5z"/>
				<path class="st1" d="M137,67.3c0-3.1,1.1-4.5,2.7-4.5c1.7,0,2.7,1.5,2.7,4.5c0,3.1-1.1,4.6-2.7,4.6S137,70.4,137,67.3z
					 M141.4,67.3c0-2.6-0.7-3.6-1.7-3.6s-1.7,1.1-1.7,3.6c0,2.6,0.7,3.7,1.7,3.7S141.4,69.9,141.4,67.3z"/>
				<path class="st1" d="M143.7,67.3c0-3.1,1.1-4.5,2.7-4.5c1.7,0,2.7,1.5,2.7,4.5c0,3.1-1.1,4.6-2.7,4.6
					C144.7,71.9,143.7,70.4,143.7,67.3z M148.1,67.3c0-2.6-0.7-3.6-1.7-3.6s-1.7,1.1-1.7,3.6c0,2.6,0.7,3.7,1.7,3.7
					C147.4,71,148.1,69.9,148.1,67.3z"/>
				<path class="st1" d="M150.8,70.8h2v-6.5h-1.6v-0.7c0.8-0.1,1.3-0.3,1.8-0.6h0.8v7.9h1.8v0.9h-4.8V70.8z"/>
			</g>
			<g class="st0">
				<path class="st1" d="M194.6,70.5c2.8-2.4,4-4.2,4-5.7c0-1-0.5-1.7-1.6-1.7c-0.7,0-1.3,0.4-1.8,1l-0.6-0.6
					c0.7-0.8,1.5-1.3,2.6-1.3c1.6,0,2.6,1,2.6,2.6c0,1.8-1.4,3.5-3.4,5.5c0.5,0,1-0.1,1.4-0.1h2.4v0.9h-5.5L194.6,70.5L194.6,70.5z"
					/>
				<path class="st1" d="M201.3,66.7c0-3.1,1.1-4.5,2.7-4.5c1.7,0,2.7,1.5,2.7,4.5c0,3.1-1.1,4.6-2.7,4.6
					C202.3,71.3,201.3,69.8,201.3,66.7z M205.7,66.7c0-2.6-0.7-3.6-1.7-3.6s-1.7,1.1-1.7,3.6c0,2.6,0.7,3.7,1.7,3.7
					S205.7,69.3,205.7,66.7z"/>
				<path class="st1" d="M207.9,70.5c2.8-2.4,4-4.2,4-5.7c0-1-0.5-1.7-1.6-1.7c-0.7,0-1.3,0.4-1.8,1l-0.6-0.6
					c0.7-0.8,1.5-1.3,2.6-1.3c1.6,0,2.6,1,2.6,2.6c0,1.8-1.4,3.5-3.4,5.5c0.5,0,1-0.1,1.4-0.1h2.4v0.9H208L207.9,70.5L207.9,70.5z"
					/>
				<path class="st1" d="M214.6,66.7c0-3.1,1.1-4.5,2.7-4.5c1.7,0,2.7,1.5,2.7,4.5c0,3.1-1.1,4.6-2.7,4.6
					C215.7,71.3,214.6,69.8,214.6,66.7z M219,66.7c0-2.6-0.7-3.6-1.7-3.6s-1.7,1.1-1.7,3.6c0,2.6,0.7,3.7,1.7,3.7S219,69.3,219,66.7
					z"/>
				<path class="st1" d="M221.5,70.5c0-0.5,0.4-0.9,0.8-0.9s0.8,0.4,0.8,0.9s-0.4,0.8-0.8,0.8S221.5,71,221.5,70.5z"/>
				<path class="st1" d="M225.1,70.2h2v-6.6h-1.6v-0.7c0.8-0.1,1.3-0.3,1.8-0.6h0.8v7.9h1.8v0.9h-4.8V70.2z"/>
				<path class="st1" d="M231.7,70.2h2v-6.6h-1.6v-0.7c0.8-0.1,1.3-0.3,1.8-0.6h0.8v7.9h1.8v0.9h-4.8V70.2z"/>
				<path class="st1" d="M238.2,70.5c0-0.5,0.4-0.9,0.8-0.9s0.8,0.4,0.8,0.9s-0.4,0.8-0.8,0.8S238.2,71,238.2,70.5z"/>
				<path class="st1" d="M241.2,66.7c0-3.1,1.1-4.5,2.7-4.5c1.7,0,2.7,1.5,2.7,4.5c0,3.1-1.1,4.6-2.7,4.6S241.2,69.8,241.2,66.7z
					 M245.7,66.7c0-2.6-0.7-3.6-1.7-3.6s-1.7,1.1-1.7,3.6c0,2.6,0.7,3.7,1.7,3.7S245.7,69.3,245.7,66.7z"/>
				<path class="st1" d="M248.4,70.2h2v-6.6h-1.6v-0.7c0.8-0.1,1.3-0.3,1.8-0.6h0.8v7.9h1.8v0.9h-4.8V70.2z"/>
				<path class="st1" d="M258.8,66.6c-0.4,0-0.7,0.2-1,0.8l-0.6-0.4c0.5-0.8,1.1-1.2,1.7-1.2c1,0,1.6,1.1,2.4,1.1
					c0.4,0,0.7-0.2,1-0.8l0.6,0.4c-0.5,0.8-1.1,1.2-1.7,1.2C260.1,67.7,259.5,66.6,258.8,66.6z"/>
				<path class="st1" d="M266.5,70.5c2.8-2.4,4-4.2,4-5.7c0-1-0.5-1.7-1.6-1.7c-0.7,0-1.3,0.4-1.8,1l-0.6-0.6
					c0.7-0.8,1.5-1.3,2.6-1.3c1.6,0,2.6,1,2.6,2.6c0,1.8-1.4,3.5-3.4,5.5c0.5,0,1-0.1,1.4-0.1h2.4v0.9h-5.5v-0.6H266.5z"/>
				<path class="st1" d="M273.3,66.7c0-3.1,1.1-4.5,2.7-4.5c1.7,0,2.7,1.5,2.7,4.5c0,3.1-1.1,4.6-2.7,4.6
					C274.3,71.3,273.3,69.8,273.3,66.7z M277.7,66.7c0-2.6-0.7-3.6-1.7-3.6s-1.7,1.1-1.7,3.6c0,2.6,0.7,3.7,1.7,3.7
					S277.7,69.3,277.7,66.7z"/>
				<path class="st1" d="M279.9,70.5c2.8-2.4,4-4.2,4-5.7c0-1-0.5-1.7-1.6-1.7c-0.7,0-1.3,0.4-1.8,1l-0.6-0.6
					c0.7-0.8,1.5-1.3,2.6-1.3c1.6,0,2.6,1,2.6,2.6c0,1.8-1.4,3.5-3.4,5.5c0.5,0,1-0.1,1.4-0.1h2.4v0.9H280v-0.6H279.9z"/>
				<path class="st1" d="M286.3,70.1l0.6-0.7c0.5,0.5,1.2,1,2.2,1s1.8-0.6,1.8-1.6c0-1.1-0.7-1.8-2.7-1.8v-0.8
					c1.8,0,2.4-0.7,2.4-1.7c0-0.9-0.6-1.4-1.5-1.4c-0.7,0-1.3,0.4-1.8,0.9l-0.6-0.7c0.7-0.6,1.4-1.1,2.5-1.1c1.5,0,2.6,0.8,2.6,2.2
					c0,1.1-0.6,1.8-1.6,2.1l0,0c1,0.2,1.9,1,1.9,2.2c0,1.6-1.3,2.5-2.8,2.5C287.8,71.3,286.9,70.7,286.3,70.1z"/>
				<path class="st1" d="M293.5,70.5c0-0.5,0.4-0.9,0.8-0.9s0.8,0.4,0.8,0.9s-0.4,0.8-0.8,0.8S293.5,71,293.5,70.5z"/>
				<path class="st1" d="M297,70.2h2v-6.6h-1.6v-0.7c0.8-0.1,1.3-0.3,1.8-0.6h0.8v7.9h1.8v0.9H297V70.2z"/>
				<path class="st1" d="M303.2,66.7c0-3.1,1.1-4.5,2.7-4.5c1.7,0,2.7,1.5,2.7,4.5c0,3.1-1.1,4.6-2.7,4.6
					C304.3,71.3,303.2,69.8,303.2,66.7z M307.7,66.7c0-2.6-0.7-3.6-1.7-3.6s-1.7,1.1-1.7,3.6c0,2.6,0.7,3.7,1.7,3.7
					S307.7,69.3,307.7,66.7z"/>
				<path class="st1" d="M310.2,70.5c0-0.5,0.4-0.9,0.8-0.9s0.8,0.4,0.8,0.9s-0.4,0.8-0.8,0.8S310.2,71,310.2,70.5z"/>
				<path class="st1" d="M313,70.1l0.6-0.7c0.5,0.5,1.2,1,2.2,1s1.8-0.6,1.8-1.6c0-1.1-0.7-1.8-2.7-1.8v-0.8c1.8,0,2.4-0.7,2.4-1.7
					c0-0.9-0.6-1.4-1.5-1.4c-0.7,0-1.3,0.4-1.8,0.9l-0.6-0.7c0.7-0.6,1.4-1.1,2.5-1.1c1.5,0,2.6,0.8,2.6,2.2c0,1.1-0.6,1.8-1.6,2.1
					l0,0c1,0.2,1.9,1,1.9,2.2c0,1.6-1.3,2.5-2.8,2.5C314.4,71.3,313.6,70.7,313,70.1z"/>
				<path class="st1" d="M320.4,70.2h2v-6.6h-1.6v-0.7c0.8-0.1,1.3-0.3,1.8-0.6h0.8v7.9h1.8v0.9h-4.8L320.4,70.2L320.4,70.2z"/>
			</g>
			<g class="st0">
				<path class="st1" d="M102.7,100.4h1.1v8.8h-1.1V100.4z"/>
				<path class="st1" d="M105.6,108l0.7-0.8c0.6,0.7,1.5,1.1,2.4,1.1c1.2,0,1.8-0.6,1.8-1.4c0-0.9-0.6-1.2-1.5-1.6l-1.3-0.6
					c-0.8-0.3-1.8-1-1.8-2.3c0-1.4,1.2-2.3,2.8-2.3c1,0,2,0.4,2.6,1.1l-0.6,0.7c-0.5-0.5-1.2-0.8-2-0.8c-1,0-1.6,0.5-1.6,1.3
					c0,0.9,0.8,1.2,1.5,1.5l1.3,0.5c1,0.4,1.8,1,1.8,2.4s-1.2,2.5-3,2.5C107.4,109.3,106.3,108.8,105.6,108z"/>
				<path class="st1" d="M112.8,104.7c0-2.8,1.5-4.5,3.8-4.5c2.2,0,3.8,1.7,3.8,4.5s-1.5,4.6-3.8,4.6
					C114.4,109.3,112.8,107.5,112.8,104.7z M119.2,104.7c0-2.2-1-3.6-2.6-3.6s-2.6,1.4-2.6,3.6c0,2.2,1,3.6,2.6,3.6
					S119.2,106.9,119.2,104.7z"/>
				<path class="st1" d="M124.8,108.2h2v-6.6h-1.6v-0.7c0.8-0.1,1.3-0.3,1.8-0.6h0.8v7.9h1.8v0.9h-4.8V108.2z"/>
				<path class="st1" d="M136.7,106.7h-1.2v2.4h-1v-2.4h-3.8V106l3.7-5.6h1.2v5.5h1.2L136.7,106.7L136.7,106.7z M134.5,105.9v-2.7
					c0-0.4,0-1.1,0.1-1.6l0,0c-0.2,0.4-0.5,0.9-0.7,1.3l-2,3H134.5z"/>
				<path class="st1" d="M137.7,104.7c0-3.1,1.1-4.5,2.7-4.5c1.7,0,2.7,1.5,2.7,4.5c0,3.1-1.1,4.6-2.7,4.6
					C138.7,109.3,137.7,107.8,137.7,104.7z M142.1,104.7c0-2.6-0.7-3.6-1.7-3.6s-1.7,1.1-1.7,3.6c0,2.6,0.7,3.7,1.7,3.7
					C141.4,108.4,142.1,107.3,142.1,104.7z"/>
				<path class="st1" d="M144.3,104.7c0-3.1,1.1-4.5,2.7-4.5c1.7,0,2.7,1.5,2.7,4.5c0,3.1-1.1,4.6-2.7,4.6
					C145.4,109.3,144.3,107.8,144.3,104.7z M148.7,104.7c0-2.6-0.7-3.6-1.7-3.6s-1.7,1.1-1.7,3.6c0,2.6,0.7,3.7,1.7,3.7
					C148.1,108.4,148.7,107.3,148.7,104.7z"/>
				<path class="st1" d="M151.4,108.2h2v-6.6h-1.6v-0.7c0.8-0.1,1.3-0.3,1.8-0.6h0.8v7.9h1.8v0.9h-4.8V108.2z"/>
			</g>
			<g class="st0">
				<path class="st1" d="M194.6,108.5c2.8-2.4,4-4.2,4-5.7c0-1-0.5-1.7-1.6-1.7c-0.7,0-1.3,0.4-1.8,1l-0.6-0.6
					c0.7-0.8,1.5-1.3,2.6-1.3c1.6,0,2.6,1,2.6,2.6c0,1.8-1.4,3.5-3.4,5.5c0.5,0,1-0.1,1.4-0.1h2.4v0.9h-5.5L194.6,108.5L194.6,108.5
					z"/>
				<path class="st1" d="M201.3,104.7c0-3.1,1.1-4.5,2.7-4.5c1.7,0,2.7,1.5,2.7,4.5c0,3.1-1.1,4.6-2.7,4.6
					C202.3,109.3,201.3,107.8,201.3,104.7z M205.7,104.7c0-2.6-0.7-3.6-1.7-3.6s-1.7,1.1-1.7,3.6c0,2.6,0.7,3.7,1.7,3.7
					C205,108.4,205.7,107.3,205.7,104.7z"/>
				<path class="st1" d="M207.9,108.5c2.8-2.4,4-4.2,4-5.7c0-1-0.5-1.7-1.6-1.7c-0.7,0-1.3,0.4-1.8,1l-0.6-0.6
					c0.7-0.8,1.5-1.3,2.6-1.3c1.6,0,2.6,1,2.6,2.6c0,1.8-1.4,3.5-3.4,5.5c0.5,0,1-0.1,1.4-0.1h2.4v0.9H208L207.9,108.5L207.9,108.5z
					"/>
				<path class="st1" d="M214.6,104.7c0-3.1,1.1-4.5,2.7-4.5c1.7,0,2.7,1.5,2.7,4.5c0,3.1-1.1,4.6-2.7,4.6
					C215.7,109.3,214.6,107.8,214.6,104.7z M219,104.7c0-2.6-0.7-3.6-1.7-3.6s-1.7,1.1-1.7,3.6c0,2.6,0.7,3.7,1.7,3.7
					C218.3,108.4,219,107.3,219,104.7z"/>
				<path class="st1" d="M221.5,108.5c0-0.5,0.4-0.9,0.8-0.9s0.8,0.4,0.8,0.9s-0.4,0.8-0.8,0.8S221.5,109,221.5,108.5z"/>
				<path class="st1" d="M225.1,108.2h2v-6.6h-1.6v-0.7c0.8-0.1,1.3-0.3,1.8-0.6h0.8v7.9h1.8v0.9h-4.8V108.2z"/>
				<path class="st1" d="M231.7,108.2h2v-6.6h-1.6v-0.7c0.8-0.1,1.3-0.3,1.8-0.6h0.8v7.9h1.8v0.9h-4.8V108.2z"/>
				<path class="st1" d="M238.2,108.5c0-0.5,0.4-0.9,0.8-0.9s0.8,0.4,0.8,0.9s-0.4,0.8-0.8,0.8S238.2,109,238.2,108.5z"/>
				<path class="st1" d="M241.2,104.7c0-3.1,1.1-4.5,2.7-4.5c1.7,0,2.7,1.5,2.7,4.5c0,3.1-1.1,4.6-2.7,4.6S241.2,107.8,241.2,104.7z
					 M245.7,104.7c0-2.6-0.7-3.6-1.7-3.6s-1.7,1.1-1.7,3.6c0,2.6,0.7,3.7,1.7,3.7C245,108.4,245.7,107.3,245.7,104.7z"/>
				<path class="st1" d="M248.4,108.2h2v-6.6h-1.6v-0.7c0.8-0.1,1.3-0.3,1.8-0.6h0.8v7.9h1.8v0.9h-4.8V108.2z"/>
				<path class="st1" d="M258.8,104.6c-0.4,0-0.7,0.2-1,0.8l-0.6-0.4c0.5-0.8,1.1-1.2,1.7-1.2c1,0,1.6,1.1,2.4,1.1
					c0.4,0,0.7-0.2,1-0.8l0.6,0.4c-0.5,0.8-1.1,1.2-1.7,1.2C260.1,105.7,259.5,104.6,258.8,104.6z"/>
				<path class="st1" d="M266.5,108.5c2.8-2.4,4-4.2,4-5.7c0-1-0.5-1.7-1.6-1.7c-0.7,0-1.3,0.4-1.8,1l-0.6-0.6
					c0.7-0.8,1.5-1.3,2.6-1.3c1.6,0,2.6,1,2.6,2.6c0,1.8-1.4,3.5-3.4,5.5c0.5,0,1-0.1,1.4-0.1h2.4v0.9h-5.5v-0.6H266.5z"/>
				<path class="st1" d="M273.3,104.7c0-3.1,1.1-4.5,2.7-4.5c1.7,0,2.7,1.5,2.7,4.5c0,3.1-1.1,4.6-2.7,4.6
					C274.3,109.3,273.3,107.8,273.3,104.7z M277.7,104.7c0-2.6-0.7-3.6-1.7-3.6s-1.7,1.1-1.7,3.6c0,2.6,0.7,3.7,1.7,3.7
					C277,108.4,277.7,107.3,277.7,104.7z"/>
				<path class="st1" d="M279.9,108.5c2.8-2.4,4-4.2,4-5.7c0-1-0.5-1.7-1.6-1.7c-0.7,0-1.3,0.4-1.8,1l-0.6-0.6
					c0.7-0.8,1.5-1.3,2.6-1.3c1.6,0,2.6,1,2.6,2.6c0,1.8-1.4,3.5-3.4,5.5c0.5,0,1-0.1,1.4-0.1h2.4v0.9H280v-0.6H279.9z"/>
				<path class="st1" d="M286.3,108.1l0.6-0.7c0.5,0.5,1.2,1,2.2,1s1.8-0.6,1.8-1.6c0-1.1-0.7-1.8-2.7-1.8v-0.8
					c1.8,0,2.4-0.7,2.4-1.7c0-0.9-0.6-1.4-1.5-1.4c-0.7,0-1.3,0.4-1.8,0.9l-0.6-0.7c0.7-0.6,1.4-1.1,2.5-1.1c1.5,0,2.6,0.8,2.6,2.2
					c0,1.1-0.6,1.8-1.6,2.1l0,0c1,0.2,1.9,1,1.9,2.2c0,1.6-1.3,2.5-2.8,2.5C287.8,109.3,286.9,108.7,286.3,108.1z"/>
				<path class="st1" d="M293.5,108.5c0-0.5,0.4-0.9,0.8-0.9s0.8,0.4,0.8,0.9s-0.4,0.8-0.8,0.8S293.5,109,293.5,108.5z"/>
				<path class="st1" d="M297,108.2h2v-6.6h-1.6v-0.7c0.8-0.1,1.3-0.3,1.8-0.6h0.8v7.9h1.8v0.9H297V108.2z"/>
				<path class="st1" d="M303.2,104.7c0-3.1,1.1-4.5,2.7-4.5c1.7,0,2.7,1.5,2.7,4.5c0,3.1-1.1,4.6-2.7,4.6
					C304.3,109.3,303.2,107.8,303.2,104.7z M307.7,104.7c0-2.6-0.7-3.6-1.7-3.6s-1.7,1.1-1.7,3.6c0,2.6,0.7,3.7,1.7,3.7
					C307,108.4,307.7,107.3,307.7,104.7z"/>
				<path class="st1" d="M310.2,108.5c0-0.5,0.4-0.9,0.8-0.9s0.8,0.4,0.8,0.9s-0.4,0.8-0.8,0.8S310.2,109,310.2,108.5z"/>
				<path class="st1" d="M313,108.1l0.6-0.7c0.5,0.5,1.2,1,2.2,1s1.8-0.6,1.8-1.6c0-1.1-0.7-1.8-2.7-1.8v-0.8c1.8,0,2.4-0.7,2.4-1.7
					c0-0.9-0.6-1.4-1.5-1.4c-0.7,0-1.3,0.4-1.8,0.9l-0.6-0.7c0.7-0.6,1.4-1.1,2.5-1.1c1.5,0,2.6,0.8,2.6,2.2c0,1.1-0.6,1.8-1.6,2.1
					l0,0c1,0.2,1.9,1,1.9,2.2c0,1.6-1.3,2.5-2.8,2.5C314.4,109.3,313.6,108.7,313,108.1z"/>
				<path class="st1" d="M320.4,108.2h2v-6.6h-1.6v-0.7c0.8-0.1,1.3-0.3,1.8-0.6h0.8v7.9h1.8v0.9h-4.8L320.4,108.2L320.4,108.2z"/>
			</g>
			<g class="st0">
				<path class="st1" d="M102,139.3h1.1v8.8H102V139.3z"/>
				<path class="st1" d="M104.9,147l0.7-0.8c0.6,0.7,1.5,1.1,2.4,1.1c1.2,0,1.8-0.6,1.8-1.4c0-0.9-0.6-1.2-1.5-1.6l-1.3-0.6
					c-0.8-0.3-1.8-1-1.8-2.3c0-1.4,1.2-2.3,2.8-2.3c1,0,2,0.4,2.6,1.1l-0.6,0.7c-0.5-0.5-1.2-0.8-2-0.8c-1,0-1.6,0.5-1.6,1.3
					c0,0.9,0.8,1.2,1.5,1.5l1.3,0.5c1,0.4,1.8,1,1.8,2.4s-1.2,2.5-3,2.5C106.7,148.3,105.7,147.8,104.9,147z"/>
				<path class="st1" d="M112.2,143.7c0-2.8,1.5-4.5,3.8-4.5c2.2,0,3.8,1.7,3.8,4.5s-1.5,4.6-3.8,4.6S112.2,146.5,112.2,143.7z
					 M118.6,143.7c0-2.2-1-3.6-2.6-3.6s-2.6,1.4-2.6,3.6c0,2.2,1,3.6,2.6,3.6C117.5,147.3,118.6,145.9,118.6,143.7z"/>
				<path class="st1" d="M124.1,147.2h2v-6.6h-1.6v-0.7c0.8-0.1,1.3-0.3,1.8-0.6h0.8v7.9h1.8v0.9h-4.8
					C124.1,148.1,124.1,147.2,124.1,147.2z"/>
				<path class="st1" d="M136,145.7h-1.2v2.4h-1v-2.4H130V145l3.7-5.6h1.2v5.5h1.2L136,145.7L136,145.7z M133.8,144.8v-2.7
					c0-0.4,0-1.1,0.1-1.6l0,0c-0.2,0.4-0.5,0.9-0.7,1.3l-2,3H133.8z"/>
				<path class="st1" d="M137,143.7c0-3.1,1.1-4.5,2.7-4.5c1.7,0,2.7,1.5,2.7,4.5c0,3.1-1.1,4.6-2.7,4.6S137,146.7,137,143.7z
					 M141.4,143.7c0-2.6-0.7-3.6-1.7-3.6s-1.7,1.1-1.7,3.6c0,2.6,0.7,3.7,1.7,3.7C140.7,147.4,141.4,146.3,141.4,143.7z"/>
				<path class="st1" d="M143.7,143.7c0-3.1,1.1-4.5,2.7-4.5c1.7,0,2.7,1.5,2.7,4.5c0,3.1-1.1,4.6-2.7,4.6
					C144.7,148.3,143.7,146.7,143.7,143.7z M148.1,143.7c0-2.6-0.7-3.6-1.7-3.6s-1.7,1.1-1.7,3.6c0,2.6,0.7,3.7,1.7,3.7
					C147.4,147.4,148.1,146.3,148.1,143.7z"/>
				<path class="st1" d="M150.8,147.2h2v-6.6h-1.6v-0.7c0.8-0.1,1.3-0.3,1.8-0.6h0.8v7.9h1.8v0.9h-4.8V147.2z"/>
			</g>
			<g class="st0">
				<path class="st1" d="M194.6,147.5c2.8-2.4,4-4.2,4-5.7c0-1-0.5-1.7-1.6-1.7c-0.7,0-1.3,0.4-1.8,1l-0.6-0.6
					c0.7-0.8,1.5-1.3,2.6-1.3c1.6,0,2.6,1,2.6,2.6c0,1.8-1.4,3.5-3.4,5.5c0.5,0,1-0.1,1.4-0.1h2.4v0.9h-5.5L194.6,147.5L194.6,147.5
					z"/>
				<path class="st1" d="M201.3,143.7c0-3.1,1.1-4.5,2.7-4.5c1.7,0,2.7,1.5,2.7,4.5c0,3.1-1.1,4.6-2.7,4.6
					C202.3,148.3,201.3,146.7,201.3,143.7z M205.7,143.7c0-2.6-0.7-3.6-1.7-3.6s-1.7,1.1-1.7,3.6c0,2.6,0.7,3.7,1.7,3.7
					C205,147.4,205.7,146.3,205.7,143.7z"/>
				<path class="st1" d="M207.9,147.5c2.8-2.4,4-4.2,4-5.7c0-1-0.5-1.7-1.6-1.7c-0.7,0-1.3,0.4-1.8,1l-0.6-0.6
					c0.7-0.8,1.5-1.3,2.6-1.3c1.6,0,2.6,1,2.6,2.6c0,1.8-1.4,3.5-3.4,5.5c0.5,0,1-0.1,1.4-0.1h2.4v0.9H208L207.9,147.5L207.9,147.5z
					"/>
				<path class="st1" d="M214.6,143.7c0-3.1,1.1-4.5,2.7-4.5c1.7,0,2.7,1.5,2.7,4.5c0,3.1-1.1,4.6-2.7,4.6
					C215.7,148.3,214.6,146.7,214.6,143.7z M219,143.7c0-2.6-0.7-3.6-1.7-3.6s-1.7,1.1-1.7,3.6c0,2.6,0.7,3.7,1.7,3.7
					C218.3,147.4,219,146.3,219,143.7z"/>
				<path class="st1" d="M221.5,147.4c0-0.5,0.4-0.9,0.8-0.9s0.8,0.4,0.8,0.9s-0.4,0.8-0.8,0.8S221.5,147.9,221.5,147.4z"/>
				<path class="st1" d="M225.1,147.2h2v-6.6h-1.6v-0.7c0.8-0.1,1.3-0.3,1.8-0.6h0.8v7.9h1.8v0.9h-4.8V147.2z"/>
				<path class="st1" d="M231.7,147.2h2v-6.6h-1.6v-0.7c0.8-0.1,1.3-0.3,1.8-0.6h0.8v7.9h1.8v0.9h-4.8V147.2z"/>
				<path class="st1" d="M238.2,147.4c0-0.5,0.4-0.9,0.8-0.9s0.8,0.4,0.8,0.9s-0.4,0.8-0.8,0.8S238.2,147.9,238.2,147.4z"/>
				<path class="st1" d="M241.2,143.7c0-3.1,1.1-4.5,2.7-4.5c1.7,0,2.7,1.5,2.7,4.5c0,3.1-1.1,4.6-2.7,4.6S241.2,146.7,241.2,143.7z
					 M245.7,143.7c0-2.6-0.7-3.6-1.7-3.6s-1.7,1.1-1.7,3.6c0,2.6,0.7,3.7,1.7,3.7C245,147.4,245.7,146.3,245.7,143.7z"/>
				<path class="st1" d="M248.4,147.2h2v-6.6h-1.6v-0.7c0.8-0.1,1.3-0.3,1.8-0.6h0.8v7.9h1.8v0.9h-4.8V147.2z"/>
				<path class="st1" d="M258.8,143.5c-0.4,0-0.7,0.2-1,0.8l-0.6-0.4c0.5-0.8,1.1-1.2,1.7-1.2c1,0,1.6,1.1,2.4,1.1
					c0.4,0,0.7-0.2,1-0.8l0.6,0.4c-0.5,0.8-1.1,1.2-1.7,1.2C260.1,144.7,259.5,143.5,258.8,143.5z"/>
				<path class="st1" d="M266.5,147.5c2.8-2.4,4-4.2,4-5.7c0-1-0.5-1.7-1.6-1.7c-0.7,0-1.3,0.4-1.8,1l-0.6-0.6
					c0.7-0.8,1.5-1.3,2.6-1.3c1.6,0,2.6,1,2.6,2.6c0,1.8-1.4,3.5-3.4,5.5c0.5,0,1-0.1,1.4-0.1h2.4v0.9h-5.5v-0.6H266.5z"/>
				<path class="st1" d="M273.3,143.7c0-3.1,1.1-4.5,2.7-4.5c1.7,0,2.7,1.5,2.7,4.5c0,3.1-1.1,4.6-2.7,4.6
					C274.3,148.3,273.3,146.7,273.3,143.7z M277.7,143.7c0-2.6-0.7-3.6-1.7-3.6s-1.7,1.1-1.7,3.6c0,2.6,0.7,3.7,1.7,3.7
					C277,147.4,277.7,146.3,277.7,143.7z"/>
				<path class="st1" d="M279.9,147.5c2.8-2.4,4-4.2,4-5.7c0-1-0.5-1.7-1.6-1.7c-0.7,0-1.3,0.4-1.8,1l-0.6-0.6
					c0.7-0.8,1.5-1.3,2.6-1.3c1.6,0,2.6,1,2.6,2.6c0,1.8-1.4,3.5-3.4,5.5c0.5,0,1-0.1,1.4-0.1h2.4v0.9H280v-0.6H279.9z"/>
				<path class="st1" d="M286.3,147.1l0.6-0.7c0.5,0.5,1.2,1,2.2,1s1.8-0.6,1.8-1.6c0-1.1-0.7-1.8-2.7-1.8v-0.8
					c1.8,0,2.4-0.7,2.4-1.7c0-0.9-0.6-1.4-1.5-1.4c-0.7,0-1.3,0.4-1.8,0.9l-0.6-0.7c0.7-0.6,1.4-1.1,2.5-1.1c1.5,0,2.6,0.8,2.6,2.2
					c0,1.1-0.6,1.8-1.6,2.1l0,0c1,0.2,1.9,1,1.9,2.2c0,1.6-1.3,2.5-2.8,2.5C287.8,148.3,286.9,147.7,286.3,147.1z"/>
				<path class="st1" d="M293.5,147.4c0-0.5,0.4-0.9,0.8-0.9s0.8,0.4,0.8,0.9s-0.4,0.8-0.8,0.8S293.5,147.9,293.5,147.4z"/>
				<path class="st1" d="M297,147.2h2v-6.6h-1.6v-0.7c0.8-0.1,1.3-0.3,1.8-0.6h0.8v7.9h1.8v0.9H297V147.2z"/>
				<path class="st1" d="M303.2,143.7c0-3.1,1.1-4.5,2.7-4.5c1.7,0,2.7,1.5,2.7,4.5c0,3.1-1.1,4.6-2.7,4.6
					C304.3,148.3,303.2,146.7,303.2,143.7z M307.7,143.7c0-2.6-0.7-3.6-1.7-3.6s-1.7,1.1-1.7,3.6c0,2.6,0.7,3.7,1.7,3.7
					C307,147.4,307.7,146.3,307.7,143.7z"/>
				<path class="st1" d="M310.2,147.4c0-0.5,0.4-0.9,0.8-0.9s0.8,0.4,0.8,0.9s-0.4,0.8-0.8,0.8S310.2,147.9,310.2,147.4z"/>
				<path class="st1" d="M313,147.1l0.6-0.7c0.5,0.5,1.2,1,2.2,1s1.8-0.6,1.8-1.6c0-1.1-0.7-1.8-2.7-1.8v-0.8c1.8,0,2.4-0.7,2.4-1.7
					c0-0.9-0.6-1.4-1.5-1.4c-0.7,0-1.3,0.4-1.8,0.9l-0.6-0.7c0.7-0.6,1.4-1.1,2.5-1.1c1.5,0,2.6,0.8,2.6,2.2c0,1.1-0.6,1.8-1.6,2.1
					l0,0c1,0.2,1.9,1,1.9,2.2c0,1.6-1.3,2.5-2.8,2.5C314.4,148.3,313.6,147.7,313,147.1z"/>
				<path class="st1" d="M320.4,147.2h2v-6.6h-1.6v-0.7c0.8-0.1,1.3-0.3,1.8-0.6h0.8v7.9h1.8v0.9h-4.8L320.4,147.2L320.4,147.2z"/>
			</g>
			<line id="선_381" class="st3" x1="76.4" y1="-29.5" x2="76.4" y2="163.8"/>
			<path id="패스_4993" class="st3" d="M183.1-29.5v193.3"/>
			<path id="패스_2717" class="st4" d="M0.2-29.5h334.6"/>
		</g>
	</g>
</g>
</svg>
