<?xml version="1.0" encoding="utf-8"?>
<!-- Generator: Adobe Illustrator 25.1.0, SVG Export Plug-In . SVG Version: 6.00 Build 0)  -->
<svg version="1.1" id="레이어_1" xmlns="http://www.w3.org/2000/svg" xmlns:xlink="http://www.w3.org/1999/xlink" x="0px"
	 y="0px" viewBox="0 0 208 333.1" style="enable-background:new 0 0 208 333.1;" xml:space="preserve">
<style type="text/css">
	.st0{enable-background:new    ;}
	.st1{fill:#DF1C2F;}
	.st2{fill:#929397;}
	.st3{fill:#A3A3A3;}
	.st4{fill:#E2E2E2;}
	.st5{fill:#42454A;}
	.st6{fill:#FFFFFF;}
</style>
<g id="그룹_5880" transform="translate(-790 -1659)">
	<g class="st0">
		<path class="st1" d="M862.2,1674v2.1h-16.6v-2.1h3.7v-2.2c-1.3-0.6-2.1-1.5-2.1-2.7c0-2.2,2.6-3.5,6.7-3.5c4.1,0,6.7,1.3,6.7,3.5
			c0,1.2-0.8,2.1-2.1,2.7v2.2H862.2z M860.3,1680.4c0,2.1-2.4,3.4-6.4,3.4s-6.4-1.2-6.4-3.4s2.4-3.3,6.4-3.3
			S860.3,1678.2,860.3,1680.4z M850,1669.1c0,1,1.4,1.5,3.9,1.5c2.5,0,4-0.5,4-1.5c0-1-1.4-1.5-4-1.5
			C851.4,1667.6,850,1668.1,850,1669.1z M857.6,1680.4c0-0.9-1.3-1.3-3.7-1.3s-3.7,0.4-3.7,1.3s1.3,1.4,3.7,1.4
			S857.6,1681.3,857.6,1680.4z M852,1674h3.8v-1.5c-0.6,0.1-1.2,0.1-1.9,0.1c-0.7,0-1.3,0-1.9-0.1V1674z"/>
		<path class="st1" d="M880.7,1677.5h-7.1v6.3H871v-6.3H864v-2.1h16.6V1677.5z M879.1,1674c-3.2-0.5-5.5-2-6.7-4
			c-1.2,2-3.5,3.5-6.7,4l-1-2.1c4.2-0.6,6.3-3,6.3-5.1v-0.9h2.8v0.9c0,2.1,2.1,4.5,6.3,5.1L879.1,1674z"/>
		<path class="st1" d="M893.7,1669.4c0,3.3,1.3,6.7,4.3,8.1l-1.6,2.1c-1.9-1-3.2-2.8-4-5c-0.8,2.3-2.2,4.3-4.3,5.3l-1.6-2.1
			c3.1-1.5,4.5-5,4.5-8.4v-2.7h2.7V1669.4z M904,1674.6h-2.7v9.1h-2.6v-18.4h2.6v7.1h2.7V1674.6z"/>
		<path class="st1" d="M922,1674v2.1h-16.6v-2.1h3.7v-2.2c-1.3-0.6-2.1-1.5-2.1-2.7c0-2.2,2.6-3.5,6.7-3.5c4.1,0,6.7,1.3,6.7,3.5
			c0,1.2-0.8,2.1-2.1,2.7v2.2H922z M920,1680.4c0,2.1-2.4,3.4-6.4,3.4c-4,0-6.4-1.2-6.4-3.4s2.4-3.3,6.4-3.3
			C917.6,1677,920,1678.2,920,1680.4z M909.7,1669.1c0,1,1.4,1.5,3.9,1.5c2.5,0,4-0.5,4-1.5c0-1-1.4-1.5-4-1.5
			C911.2,1667.6,909.7,1668.1,909.7,1669.1z M917.3,1680.4c0-0.9-1.3-1.3-3.7-1.3c-2.5,0-3.7,0.4-3.7,1.3s1.3,1.4,3.7,1.4
			C916.1,1681.7,917.3,1681.3,917.3,1680.4z M911.7,1674h3.8v-1.5c-0.6,0.1-1.2,0.1-1.9,0.1c-0.7,0-1.3,0-1.9-0.1V1674z"/>
		<path class="st1" d="M930.2,1670v-1.5h-5.8v-2.1h8.4v5.5H927v1.6c3,0,5-0.1,7.3-0.6l0.2,2.1c-2.6,0.5-4.9,0.6-8.6,0.6h-1.6v-5.7
			H930.2z M938.4,1680.2c0,2.2-2.4,3.5-6.2,3.5s-6.2-1.3-6.2-3.5c0-2.2,2.4-3.5,6.2-3.5S938.4,1678,938.4,1680.2z M935.8,1680.2
			c0-1-1.2-1.5-3.6-1.5s-3.6,0.5-3.6,1.5c0,1,1.2,1.5,3.6,1.5S935.8,1681.3,935.8,1680.2z M938.2,1669.9v1.7h2.4v2.1h-2.4v2.6h-2.6
			v-11.1h2.6v2.5h2.4v2.1H938.2z"/>
	</g>
	<g class="st0">
		<path class="st2" d="M862.3,1705.7c-1.7,0.3-3.2,0.4-5.8,0.4h-1v-5.8h5.6v0.9h-4.4v3.9c2.5,0,3.9-0.1,5.5-0.4L862.3,1705.7z
			 M858,1710.6h7.2v0.9h-8.4v-4.1h1.1V1710.6z M866.5,1703v1h-1.9v4.4h-1.1v-9.1h1.1v3.7H866.5z"/>
		<path class="st2" d="M876.1,1706.5c-1.2,0.2-2.4,0.4-3.6,0.4v4.5h-1.1v-4.5c-1.2,0.1-2.4,0.1-3.5,0.1l-0.2-1c2.3,0,5.5,0,8.3-0.4
			L876.1,1706.5z M868.7,1702.5c0-1.5,1.3-2.6,3.2-2.6c1.9,0,3.2,1,3.2,2.6c0,1.5-1.3,2.6-3.2,2.6C870,1705,868.7,1704,868.7,1702.5
			z M869.8,1702.5c0,1,0.9,1.6,2.1,1.6c1.2,0,2.1-0.7,2.1-1.6s-0.9-1.6-2.1-1.6C870.7,1700.8,869.8,1701.5,869.8,1702.5z
			 M878.1,1699.3v12.6h-1.1v-12.6H878.1z"/>
		<path class="st2" d="M884.1,1704.4c0-0.6,0.4-1,0.9-1c0.5,0,0.9,0.4,0.9,1c0,0.6-0.4,1-0.9,1
			C884.5,1705.3,884.1,1704.9,884.1,1704.4z M884.1,1710c0-0.6,0.4-1,0.9-1c0.5,0,0.9,0.4,0.9,1s-0.4,1-0.9,1
			C884.5,1711,884.1,1710.6,884.1,1710z"/>
		<path class="st2" d="M896.3,1705.9h-4.9v-5.8h1.1v2h2.7v-2h1.1V1705.9z M895.2,1703h-2.7v2h2.7V1703z M893,1707.6h8.4v4.3h-1.1
			v-3.3H893V1707.6z M901.4,1699.3v7.5h-1.1v-3.3h-1.6v3.3h-1.1v-7.2h1.1v3h1.6v-3.3H901.4z"/>
		<path class="st2" d="M910,1706.2h-5.8v-5.8h5.8V1706.2z M908.9,1701.3h-3.5v4h3.5V1701.3z M906.8,1710.6h7.2v0.9h-8.4v-4h1.1
			V1710.6z M915.3,1703.1v1h-1.9v4.4h-1.1v-9.2h1.1v3.8H915.3z"/>
		<path class="st2" d="M931.1,1706.4v0.9h-11.4v-0.9h5.1v-1.3h-3.6v-5.3h8.5v0.9h-7.3v1.3h7v0.9h-7v1.3h7.4v0.9H926v1.3H931.1z
			 M922.3,1710.6h7.6v0.9h-8.7v-3.4h1.1V1710.6z"/>
	</g>
	<g class="st0">
		<path class="st3" d="M804.2,1771h-2v-2.3h4.6v16h-2.5V1771z"/>
		<path class="st3" d="M815.3,1768.4c3.2,0,4.9,1.8,4.9,4.2c0,1.9-1.2,3.2-2.5,3.6v0.1c1.7,0.5,2.8,1.9,2.8,4.1
			c0,2.6-1.8,4.5-5.1,4.5c-3,0-5.4-1.6-5.5-4.7h2.4c0.1,1.5,1.2,2.6,3.1,2.6c1.9,0,2.8-1.1,2.8-2.6c0-2.1-1.4-2.8-4-2.8h-0.6v-2.1
			h0.6c2.3,0,3.7-0.7,3.7-2.4c0-1.4-0.9-2.3-2.6-2.3c-1.8,0-2.6,1.1-2.7,2.2h-2.4C810.3,1769.9,812.4,1768.4,815.3,1768.4z"/>
		<path class="st3" d="M824.5,1785c-0.9,0-1.6-0.7-1.6-1.6s0.7-1.6,1.6-1.6c0.9,0,1.6,0.7,1.6,1.6S825.4,1785,824.5,1785z"/>
		<path class="st3" d="M830.2,1771h-2v-2.3h4.6v16h-2.5V1771z"/>
	</g>
	<g class="st0">
		<path class="st3" d="M880.3,1796.1h-2v-2.3h4.6v16h-2.5V1796.1z"/>
		<path class="st3" d="M886.1,1807.8c3.8-3.3,7.8-6.2,7.8-9.4c0-1.7-0.7-2.8-2.6-2.8c-1.8,0-2.7,1.2-2.8,3h-2.4
			c0.1-3.5,2.3-5.2,5.2-5.2c3.3,0,5.1,2,5.1,4.8c0,3.9-4,6.9-6.5,9.2h7v2.1h-10.7V1807.8z"/>
		<path class="st3" d="M900.4,1810c-0.9,0-1.6-0.7-1.6-1.6s0.7-1.6,1.6-1.6c0.9,0,1.6,0.7,1.6,1.6S901.2,1810,900.4,1810z"/>
		<path class="st3" d="M906,1796.1h-2v-2.3h4.6v16H906V1796.1z"/>
	</g>
	<g class="st0">
		<path class="st1" d="M954.7,1834.9c0-2.3,1.8-4.3,5.4-4.3s5.4,2,5.4,4.3c0,1.7-0.9,2.9-2.2,3.5c1.6,0.7,2.6,2.1,2.6,3.9
			c0,3.1-2.5,4.9-5.8,4.9c-3.3,0-5.8-1.8-5.8-4.9c0-1.9,1-3.3,2.6-3.9C955.6,1837.8,954.7,1836.7,954.7,1834.9z M957.3,1842.3
			c0,1.4,1.1,2.5,2.8,2.5c1.8,0,2.8-1.1,2.8-2.5c0-1.6-1.1-2.5-2.8-2.5C958.5,1839.8,957.3,1840.6,957.3,1842.3z M962.5,1835.4
			c0-1.5-0.9-2.3-2.4-2.3c-1.4,0-2.4,0.8-2.4,2.3c0,1.3,1,2.2,2.4,2.2C961.5,1837.6,962.5,1836.7,962.5,1835.4z"/>
		<path class="st1" d="M970.1,1847.1c-1.1,0-1.9-0.8-1.9-1.8c0-1,0.8-1.8,1.9-1.8c1.1,0,1.9,0.8,1.9,1.8
			C971.9,1846.3,971.1,1847.1,970.1,1847.1z"/>
		<path class="st1" d="M982.4,1834.9c-0.3-1.2-0.9-1.8-2.3-1.8c-2,0-2.9,1.5-3,5.2c0.7-1.2,2.2-1.9,3.7-1.9c2.9,0,4.9,1.9,4.9,5.2
			c0,3.1-1.9,5.4-5.3,5.4c-4.8,0-5.9-3.3-5.9-8.3c0-5.2,1.7-8.1,5.8-8.1c3.3,0,4.8,2.1,5.1,4.4H982.4z M977.4,1841.6
			c0,1.7,1,2.8,2.8,2.8c1.6,0,2.6-1,2.6-2.7s-0.9-2.8-2.6-2.8C978.7,1838.9,977.4,1839.8,977.4,1841.6z"/>
	</g>
	<path id="패스_2693" class="st4" d="M790,1992h56v-187.7h-56V1992z"/>
	<path id="패스_2694" class="st4" d="M866,1992h56v-166.7h-56V1992z"/>
	<path id="패스_2695" class="st1" d="M942,1992.1h56v-132.4h-56V1992.1z"/>
	<g class="st0">
		<path class="st5" d="M804.3,1977c2.2-2,4.6-3.7,4.6-5.5c0-1-0.4-1.7-1.5-1.7c-1,0-1.6,0.7-1.6,1.8h-1.4c0.1-2.1,1.4-3.1,3.1-3.1
			c1.9,0,3,1.2,3,2.9c0,2.3-2.3,4.1-3.9,5.4h4.1v1.2h-6.3V1977z"/>
		<path class="st5" d="M815.3,1968.6c2.7,0,3.4,2.1,3.4,4.8c0,2.8-0.7,4.8-3.4,4.8s-3.4-2.1-3.4-4.8
			C811.9,1970.6,812.7,1968.6,815.3,1968.6z M815.3,1969.9c-1.7,0-1.9,1.7-1.9,3.4c0,1.9,0.2,3.5,1.9,3.5s1.9-1.6,1.9-3.5
			C817.2,1971.6,817.1,1969.9,815.3,1969.9z"/>
		<path class="st5" d="M821.3,1970.1h-1.2v-1.4h2.7v9.5h-1.5V1970.1z"/>
		<path class="st5" d="M825.1,1971.1c0-1.4,1-2.6,3.1-2.6c2.1,0,3.1,1.2,3.1,2.6c0,1-0.6,1.8-1.4,2.1c1,0.4,1.6,1.2,1.6,2.3
			c0,1.7-1.4,2.8-3.4,2.8c-1.9,0-3.4-1.1-3.4-2.8c0-1.1,0.6-2,1.6-2.3C825.6,1972.8,825.1,1972.2,825.1,1971.1z M826.3,1975.5
			c0,1,0.7,1.7,1.9,1.7c1.2,0,1.9-0.7,1.9-1.7c0-1.1-0.8-1.6-1.9-1.6C827.1,1973.9,826.3,1974.4,826.3,1975.5z M829.9,1971.3
			c0-1-0.7-1.5-1.7-1.5c-1,0-1.7,0.5-1.7,1.5c0,0.9,0.7,1.5,1.7,1.5C829.2,1972.8,829.9,1972.2,829.9,1971.3z"/>
	</g>
	<g class="st0">
		<path class="st5" d="M880.3,1977c2.2-2,4.6-3.7,4.6-5.5c0-1-0.4-1.7-1.5-1.7c-1,0-1.6,0.7-1.6,1.8h-1.4c0.1-2.1,1.4-3.1,3.1-3.1
			c1.9,0,3,1.2,3,2.9c0,2.3-2.3,4.1-3.9,5.4h4.1v1.2h-6.3V1977z"/>
		<path class="st5" d="M891.3,1968.6c2.7,0,3.4,2.1,3.4,4.8c0,2.8-0.7,4.8-3.4,4.8s-3.4-2.1-3.4-4.8
			C888,1970.6,888.7,1968.6,891.3,1968.6z M891.3,1969.9c-1.7,0-1.9,1.7-1.9,3.4c0,1.9,0.2,3.5,1.9,3.5s1.9-1.6,1.9-3.5
			C893.3,1971.6,893.1,1969.9,891.3,1969.9z"/>
		<path class="st5" d="M897.3,1970.1h-1.2v-1.4h2.7v9.5h-1.5V1970.1z"/>
		<path class="st5" d="M902.7,1975.6c0.2,0.8,0.7,1.3,1.7,1.3c1.2,0,1.8-0.8,1.8-3.2c-0.4,0.6-1.2,0.9-2.1,0.9c-1.7,0-3-1-3-3
			c0-1.9,1.2-3.1,3.1-3.1c2.4,0,3.3,1.7,3.3,4.8c0,3.2-0.7,4.9-3.2,4.9c-2,0-2.9-1.2-3-2.6H902.7z M906,1971.6
			c0-1.2-0.7-1.9-1.8-1.9c-1.1,0-1.8,0.8-1.8,1.9c0,1,0.5,1.8,1.9,1.8C905.4,1973.4,906,1972.7,906,1971.6z"/>
	</g>
	<g class="st0">
		<path class="st6" d="M954.7,1976.7c2.1-1.8,4.4-3.5,4.4-5.2c0-0.8-0.4-1.4-1.3-1.4c-0.9,0-1.4,0.6-1.4,1.6h-1.8
			c0.1-2.2,1.5-3.2,3.2-3.2c2,0,3.1,1.2,3.1,2.9c0,2.2-2.1,3.9-3.6,5.2h3.8v1.5h-6.4V1976.7z"/>
		<path class="st6" d="M965.8,1968.5c2.7,0,3.5,2.1,3.5,4.8c0,2.8-0.8,4.8-3.5,4.8c-2.7,0-3.5-2.1-3.5-4.8
			C962.3,1970.6,963.1,1968.5,965.8,1968.5z M965.8,1970.2c-1.5,0-1.7,1.5-1.7,3.1c0,1.7,0.2,3.1,1.7,3.1s1.7-1.5,1.7-3.1
			C967.5,1971.7,967.3,1970.2,965.8,1970.2z"/>
		<path class="st6" d="M970.6,1976.7c2.1-1.8,4.4-3.5,4.4-5.2c0-0.8-0.4-1.4-1.3-1.4c-0.9,0-1.4,0.6-1.4,1.6h-1.8
			c0.1-2.2,1.5-3.2,3.2-3.2c2,0,3.1,1.2,3.1,2.9c0,2.2-2.1,3.9-3.6,5.2h3.8v1.5h-6.4V1976.7z"/>
		<path class="st6" d="M981.7,1968.5c2.7,0,3.5,2.1,3.5,4.8c0,2.8-0.8,4.8-3.5,4.8c-2.7,0-3.5-2.1-3.5-4.8
			C978.2,1970.6,979,1968.5,981.7,1968.5z M981.7,1970.2c-1.5,0-1.7,1.5-1.7,3.1c0,1.7,0.2,3.1,1.7,3.1s1.7-1.5,1.7-3.1
			C983.4,1971.7,983.2,1970.2,981.7,1970.2z"/>
	</g>
</g>
</svg>
