<?xml version="1.0" encoding="utf-8"?>
<!-- Generator: Adobe Illustrator 25.1.0, SVG Export Plug-In . SVG Version: 6.00 Build 0)  -->
<svg version="1.1" id="레이어_1" xmlns="http://www.w3.org/2000/svg" xmlns:xlink="http://www.w3.org/1999/xlink" x="0px"
	 y="0px" viewBox="0 0 918 168.5" style="enable-background:new 0 0 918 168.5;" xml:space="preserve">
<style type="text/css">
	.st0{enable-background:new    ;}
	.st1{fill:#DF1C2F;}
	.st2{fill:#FAFAFA;}
	.st3{fill:#070203;}
	.st4{fill:none;stroke:#D6D6D6;stroke-miterlimit:10;}
	.st5{fill:none;stroke:#717171;stroke-miterlimit:10;}
</style>
<g id="그룹_5865" transform="translate(-741 -3658)">
	<g id="그룹_5848" transform="translate(1 654)">
		<g class="st0">
			<path class="st1" d="M750.4,3010.6h2.5v17.3h-2.5v-8.7H749c-0.2,3.6-1.7,5.8-4,5.8c-2.4,0-4-2.5-4-6.7c0-4.2,1.5-6.7,4-6.7
				c2.2,0,3.7,2,4,5.5h1.5V3010.6z M746.6,3018.3c0-2.8-0.6-4.2-1.6-4.2c-1,0-1.6,1.4-1.6,4.2c0,2.8,0.6,4.2,1.6,4.2
				C746,3022.5,746.6,3021.1,746.6,3018.3z M756.7,3010.3v18.4h-2.5v-18.4H756.7z"/>
			<path class="st1" d="M762.8,3022.2c2.3-0.1,4.7-0.2,7.1-0.7l0.3,2.2c-3,0.6-5.8,0.8-8.5,0.8h-1.6v-12.2h2.6V3022.2z
				 M774.7,3010.3v18.5h-2.6v-10.7h-5v-2.1h5v-5.7H774.7z"/>
			<path class="st1" d="M784.8,3015.3c0,3,1.5,6.2,4.6,7.5l-1.4,2.1c-2.1-0.9-3.6-2.7-4.4-4.9c-0.8,2.4-2.3,4.4-4.5,5.4l-1.5-2.1
				c3.1-1.4,4.6-4.8,4.6-7.9v-1h-3.8v-2.2h10.3v2.2h-3.8V3015.3z M792.9,3010.3v18.4h-2.6v-18.4H792.9z"/>
			<path class="st1" d="M810.4,3019.7c-2-0.6-3.4-1.8-4.2-3.3c-0.8,1.7-2.3,3.1-4.4,3.7l-1.2-2.1c2.9-0.9,4.2-3,4.3-4.9h-3.6v-2.1
				h9.9v2.1h-3.6c0.1,1.9,1.4,3.7,4.1,4.5L810.4,3019.7z M816.5,3026.5v2h-12.6v-5.1h9.5v-1h-9.5v-2H816v5h-9.5v1.1H816.5z
				 M813.4,3014.1v-3.8h2.6v9.4h-2.6v-3.5h-2.8v-2.1H813.4z"/>
			<path class="st1" d="M828.4,3011.4c0,4.9-3.1,8.2-8.6,9.6l-1-2.1c4.1-1,6.3-3,6.7-5.5h-5.8v-2.1H828.4z M821.6,3021.3h11.9v7.2
				h-11.9V3021.3z M824.1,3026.4h6.8v-3.1h-6.8V3026.4z M835.9,3016.5h-2.4v4.1h-2.6v-10.3h2.6v4h2.4V3016.5z"/>
			<path class="st1" d="M843.8,3015v-1.5H838v-2.1h8.4v5.5h-5.8v1.6c3,0,5-0.1,7.3-0.6l0.2,2.1c-2.6,0.5-4.9,0.6-8.6,0.6h-1.6v-5.7
				H843.8z M852.1,3025.2c0,2.2-2.4,3.5-6.2,3.5s-6.2-1.3-6.2-3.5c0-2.2,2.4-3.5,6.2-3.5S852.1,3023,852.1,3025.2z M849.5,3025.2
				c0-1-1.2-1.5-3.6-1.5c-2.4,0-3.6,0.5-3.6,1.5c0,1,1.2,1.5,3.6,1.5C848.2,3026.7,849.5,3026.3,849.5,3025.2z M851.9,3014.9v1.7
				h2.4v2.1h-2.4v2.6h-2.6v-11.1h2.6v2.5h2.4v2.1H851.9z"/>
		</g>
	</g>
	<rect id="사각형_388" x="741" y="3708" class="st2" width="918" height="34.2"/>
	<g class="st0">
		<path class="st3" d="M772.6,3764.8c-1.6-0.6-3.1-1.9-3.7-3.5c-0.6,1.8-2,3.1-3.7,3.8l-0.4-0.7c2-0.7,3.7-2.6,3.7-4.7v-0.9H765
			v-0.7h7.8v0.7h-3.5v0.9c0,2,1.8,3.8,3.7,4.5L772.6,3764.8z M766.7,3766.4h9.4v4.8h-0.8v-4.1h-8.5V3766.4z M776,3756.9v8.6h-0.8
			v-8.6H776z"/>
		<path class="st3" d="M787,3764.5c-1.6-0.6-3-1.9-3.6-3.5c-0.6,1.8-2,3.2-3.7,3.8l-0.4-0.7c2-0.7,3.7-2.7,3.7-4.8v-0.8h-3.4v-0.7
			h7.6v0.7h-3.3v0.7c0,2,1.6,3.7,3.6,4.5L787,3764.5z M789.9,3765.3h0.8v5.6h-8.9v-5.6h0.8v2h7.2V3765.3z M789.9,3768.1h-7.2v2.1
			h7.2V3768.1z M790.8,3756.9v7.7h-0.8v-3.4h-3.2v-0.7h3.2v-3.6H790.8z"/>
		<path class="st3" d="M805.9,3757.2h0.8v13.1h-0.8v-7h-2.2c-0.1,2.8-1.2,4.5-3,4.5c-1.8,0-3-1.9-3-4.8s1.2-4.8,3-4.8
			c1.7,0,2.9,1.7,3,4.4h2.2V3757.2z M802.9,3763c0-2.4-0.9-4-2.2-4c-1.3,0-2.2,1.7-2.2,4c0,2.4,0.9,4,2.2,4
			C802,3767.1,802.9,3765.4,802.9,3763z M809.5,3756.9v14.2h-0.8v-14.2H809.5z"/>
		<path class="st3" d="M814,3766.9c2.3,0,4.2-0.1,6.4-0.6l0.1,0.7c-2.2,0.4-4.1,0.6-6.5,0.6h-1v-9.1h0.8v8.4H814z M823.8,3756.9
			v14.2h-0.8v-8.7h-4.7v-0.7h4.7v-4.9H823.8z"/>
		<path class="st3" d="M831.7,3761.5c0,2.5,2.1,4.9,4,5.8l-0.5,0.7c-1.6-0.8-3.2-2.5-3.9-4.6c-0.6,2.1-2.3,4.1-3.8,4.9l-0.5-0.7
			c1.8-0.9,3.9-3.6,3.9-6.1v-2.4h-3.5v-0.7h7.9v0.7h-3.6V3761.5z M838.4,3756.9v14.2h-0.8v-14.2H838.4z"/>
		<path class="st3" d="M853,3764c-1.6-0.6-3-1.8-3.6-3.3c-0.6,1.7-2,3-3.7,3.6l-0.4-0.7c1.9-0.7,3.7-2.5,3.7-4.5v-0.7h-3.4v-0.7h7.6
			v0.7h-3.3v0.7c0,1.8,1.7,3.5,3.6,4.2L853,3764z M857.3,3770.2v0.7h-9.6v-3.4h8.1v-1.8h-8.2v-0.7h9v3.2h-8.1v2H857.3z
			 M855.9,3760.2v-3.3h0.8v7.4h-0.8v-3.3h-3.2v-0.7H855.9z"/>
		<path class="st3" d="M867,3757.9c0,3.5-2.6,6.1-6.7,7.2l-0.3-0.7c3.6-1,6-3.1,6.1-5.8h-5.6v-0.7H867z M862,3765.8h8.8v5.1H862
			V3765.8z M862.9,3770.2h7.1v-3.7h-7.1V3770.2z M873.1,3761.3h-2.2v3.7H870v-8.2h0.8v3.7h2.2V3761.3z"/>
		<path class="st3" d="M883.2,3764.1c-2.4,0.4-4.3,0.5-6.8,0.5h-1.1v-3.8h5.5v-2.2h-5.5v-0.7h6.3v3.6h-5.5v2.4h0.2
			c2.4,0,4.4-0.1,6.7-0.5L883.2,3764.1z M885.7,3768.6c0,1.6-1.7,2.5-4.6,2.5c-2.8,0-4.6-0.9-4.6-2.5c0-1.6,1.7-2.5,4.6-2.5
			C884,3766,885.7,3767,885.7,3768.6z M884.9,3768.6c0-1.1-1.5-1.8-3.8-1.8s-3.8,0.7-3.8,1.8c0,1.1,1.5,1.8,3.8,1.8
			S884.9,3769.7,884.9,3768.6z M885.6,3760v2.3h2.2v0.7h-2.2v2.5h-0.8v-8.6h0.8v2.4h2.2v0.7H885.6z"/>
	</g>
	<g class="st0">
		<path class="st3" d="M1038,3759.1h-3.7v-0.8h8.3v0.8h-3.7v10.9h-1V3759.1z"/>
		<path class="st3" d="M1041.6,3768.5l0.7-0.5c0.6,1,1.2,1.4,2.2,1.4c1.4,0,2-0.8,2-2.7v-8.3h1v8.4c0,1.9-0.8,3.4-3,3.4
			C1043.2,3770.2,1042.2,3769.6,1041.6,3768.5z"/>
	</g>
	<g class="st0">
		<path class="st3" d="M1195.1,3769.2h2.6v-9.1h-2v-0.6c0.9-0.2,1.7-0.4,2.2-0.8h0.8v10.5h2.4v0.8h-6V3769.2z"/>
		<path class="st3" d="M1203,3764.3c0-3.8,1.2-5.8,3.4-5.8c2.2,0,3.4,2.1,3.4,5.8s-1.2,5.9-3.4,5.9
			C1204.2,3770.2,1203,3768.1,1203,3764.3z M1208.9,3764.3c0-3.4-1-5-2.5-5c-1.5,0-2.5,1.6-2.5,5s1,5.1,2.5,5.1
			C1207.9,3769.4,1208.9,3767.7,1208.9,3764.3z"/>
	</g>
	<g class="st0">
		<path class="st3" d="M1382.1,3766.7h-5.2v-0.6l5.2-7.4h0.9v7.2h1.6v0.8h-1.6v3.3h-0.9V3766.7z M1382.1,3765.9v-4
			c0-0.5,0-1.5,0.1-2h-0.1c-0.3,0.5-0.6,0.9-0.9,1.4l-3.2,4.5H1382.1z"/>
		<path class="st3" d="M1385.9,3769.4c3.6-3.7,5.5-5.8,5.5-7.7c0-1.4-0.7-2.4-2.4-2.4c-1,0-1.9,0.6-2.6,1.4l-0.6-0.6
			c0.9-1,1.9-1.7,3.3-1.7c2,0,3.2,1.3,3.2,3.2c0,2.2-2,4.4-5.1,7.6c0.6,0,1.3-0.1,1.9-0.1h3.7v0.8h-7V3769.4z"/>
	</g>
	<g class="st0">
		<path class="st3" d="M1562.6,3769.2h2.6v-9.1h-2v-0.6c0.9-0.2,1.7-0.4,2.2-0.8h0.8v10.5h2.4v0.8h-6V3769.2z"/>
		<path class="st3" d="M1570.5,3764.3c0-3.8,1.2-5.8,3.4-5.8c2.2,0,3.4,2.1,3.4,5.8s-1.2,5.9-3.4,5.9
			C1571.7,3770.2,1570.5,3768.1,1570.5,3764.3z M1576.4,3764.3c0-3.4-1-5-2.5-5c-1.5,0-2.5,1.6-2.5,5s1,5.1,2.5,5.1
			C1575.4,3769.4,1576.4,3767.7,1576.4,3764.3z"/>
	</g>
	<g class="st0">
		<path class="st3" d="M771.6,3800c0,3.6-2.7,6.3-6.7,7.6l-0.4-0.7c3.5-1.2,5.9-3.4,6.1-6.2h-5.6v-0.7H771.6z M767.6,3812h8.5v0.7
			h-9.4v-4.4h0.8V3812z M777.7,3803.4v0.7h-2.2v5.3h-0.8v-10.5h0.8v4.5H777.7z"/>
		<path class="st3" d="M787,3806.5c-1.6-0.6-3-1.9-3.6-3.5c-0.6,1.8-2,3.2-3.7,3.8l-0.4-0.7c2-0.7,3.7-2.7,3.7-4.8v-0.8h-3.4v-0.7
			h7.6v0.7h-3.3v0.7c0,2,1.6,3.7,3.6,4.5L787,3806.5z M789.9,3807.3h0.8v5.6h-8.9v-5.6h0.8v2h7.2V3807.3z M789.9,3810.1h-7.2v2.1
			h7.2V3810.1z M790.8,3798.9v7.7h-0.8v-3.4h-3.2v-0.7h3.2v-3.6H790.8z"/>
		<path class="st3" d="M805.9,3799.2h0.8v13.1h-0.8v-7h-2.2c-0.1,2.8-1.2,4.5-3,4.5c-1.8,0-3-1.9-3-4.8s1.2-4.8,3-4.8
			c1.7,0,2.9,1.7,3,4.4h2.2V3799.2z M802.9,3805c0-2.4-0.9-4-2.2-4c-1.3,0-2.2,1.7-2.2,4c0,2.4,0.9,4,2.2,4
			C802,3809.1,802.9,3807.4,802.9,3805z M809.5,3798.9v14.2h-0.8v-14.2H809.5z"/>
		<path class="st3" d="M814,3808.9c2.3,0,4.2-0.1,6.4-0.6l0.1,0.7c-2.2,0.4-4.1,0.6-6.5,0.6h-1v-9.1h0.8v8.4H814z M823.8,3798.9
			v14.2h-0.8v-8.7h-4.7v-0.7h4.7v-4.9H823.8z"/>
		<path class="st3" d="M831.7,3803.5c0,2.5,2.1,4.9,4,5.8l-0.5,0.7c-1.6-0.8-3.2-2.5-3.9-4.6c-0.6,2.1-2.3,4.1-3.8,4.9l-0.5-0.7
			c1.8-0.9,3.9-3.6,3.9-6.1v-2.4h-3.5v-0.7h7.9v0.7h-3.6V3803.5z M838.4,3798.9v14.2h-0.8v-14.2H838.4z"/>
		<path class="st3" d="M853,3806c-1.6-0.6-3-1.8-3.6-3.3c-0.6,1.7-2,3-3.7,3.6l-0.4-0.7c1.9-0.7,3.7-2.5,3.7-4.5v-0.7h-3.4v-0.7h7.6
			v0.7h-3.3v0.7c0,1.8,1.7,3.5,3.6,4.2L853,3806z M857.3,3812.2v0.7h-9.6v-3.4h8.1v-1.8h-8.2v-0.7h9v3.2h-8.1v2H857.3z
			 M855.9,3802.2v-3.3h0.8v7.4h-0.8v-3.3h-3.2v-0.7H855.9z"/>
		<path class="st3" d="M867,3799.9c0,3.5-2.6,6.1-6.7,7.2l-0.3-0.7c3.6-1,6-3.1,6.1-5.8h-5.6v-0.7H867z M862,3807.8h8.8v5.1H862
			V3807.8z M862.9,3812.2h7.1v-3.7h-7.1V3812.2z M873.1,3803.3h-2.2v3.7H870v-8.2h0.8v3.7h2.2V3803.3z"/>
		<path class="st3" d="M883.2,3806.1c-2.4,0.4-4.3,0.5-6.8,0.5h-1.1v-3.8h5.5v-2.2h-5.5v-0.7h6.3v3.6h-5.5v2.4h0.2
			c2.4,0,4.4-0.1,6.7-0.5L883.2,3806.1z M885.7,3810.6c0,1.6-1.7,2.5-4.6,2.5c-2.8,0-4.6-0.9-4.6-2.5c0-1.6,1.7-2.5,4.6-2.5
			C884,3808,885.7,3809,885.7,3810.6z M884.9,3810.6c0-1.1-1.5-1.8-3.8-1.8s-3.8,0.7-3.8,1.8c0,1.1,1.5,1.8,3.8,1.8
			S884.9,3811.7,884.9,3810.6z M885.6,3802v2.3h2.2v0.7h-2.2v2.5h-0.8v-8.6h0.8v2.4h2.2v0.7H885.6z"/>
	</g>
	<g class="st0">
		<path class="st3" d="M1038,3801.1h-3.7v-0.8h8.3v0.8h-3.7v10.9h-1V3801.1z"/>
		<path class="st3" d="M1041.6,3810.5l0.7-0.5c0.6,1,1.2,1.4,2.2,1.4c1.4,0,2-0.8,2-2.7v-8.3h1v8.4c0,1.9-0.8,3.4-3,3.4
			C1043.2,3812.2,1042.2,3811.6,1041.6,3810.5z"/>
	</g>
	<g class="st0">
		<path class="st3" d="M1183.7,3809.1c0-1.5,1.2-2.6,2.2-3.2v-0.1c-0.8-0.6-1.6-1.4-1.6-2.6c0-1.7,1.3-2.8,3-2.8
			c1.9,0,3.1,1.3,3.1,3c0,1.2-0.9,2.3-1.6,2.8v0.1c1,0.6,2,1.4,2,2.9c0,1.6-1.4,3-3.5,3C1185.3,3812.2,1183.7,3810.9,1183.7,3809.1z
			 M1189.9,3809.2c0-1.7-1.6-2.3-3.4-3c-1.1,0.7-1.9,1.6-1.9,2.8c0,1.4,1.2,2.4,2.7,2.4C1188.9,3811.5,1189.9,3810.5,1189.9,3809.2z
			 M1189.6,3803.5c0-1.2-0.8-2.2-2.2-2.2c-1.2,0-2.1,0.8-2.1,2c0,1.6,1.5,2.2,2.9,2.8C1189.1,3805.2,1189.6,3804.4,1189.6,3803.5z"
			/>
		<path class="st3" d="M1192.4,3814.2c0.8-0.4,1.4-1.2,1.4-2.1c-0.1,0-0.1,0-0.2,0c-0.4,0-0.8-0.3-0.8-0.8c0-0.5,0.4-0.8,0.8-0.8
			c0.6,0,1,0.5,1,1.4c0,1.3-0.8,2.4-1.9,3L1192.4,3814.2z"/>
		<path class="st3" d="M1196.3,3811.4c3.6-3.7,5.5-5.8,5.5-7.7c0-1.4-0.7-2.4-2.4-2.4c-1,0-1.9,0.6-2.6,1.4l-0.6-0.6
			c0.9-1,1.9-1.7,3.3-1.7c2,0,3.2,1.3,3.2,3.2c0,2.2-2,4.4-5.1,7.6c0.6,0,1.3-0.1,1.9-0.1h3.7v0.8h-7V3811.4z"/>
		<path class="st3" d="M1205,3806.3c0-3.8,1.2-5.8,3.4-5.8c2.2,0,3.4,2.1,3.4,5.8s-1.2,5.9-3.4,5.9
			C1206.2,3812.2,1205,3810.1,1205,3806.3z M1210.9,3806.3c0-3.4-1-5-2.5-5c-1.5,0-2.5,1.6-2.5,5s1,5.1,2.5,5.1
			C1209.9,3811.4,1210.9,3809.7,1210.9,3806.3z"/>
		<path class="st3" d="M1213.6,3806.8c0-4.7,2-6.4,4.2-6.4c1.1,0,1.9,0.5,2.4,1.1l-0.5,0.6c-0.5-0.6-1.2-0.9-1.9-0.9
			c-1.7,0-3.2,1.4-3.3,5.4c0.8-0.9,1.8-1.5,2.8-1.5c2,0,3.2,1.2,3.2,3.5c0,2.1-1.4,3.6-3.2,3.6
			C1215.1,3812.2,1213.6,3810.3,1213.6,3806.8z M1214.6,3807.6c0.1,2.4,1.1,3.9,2.8,3.9c1.3,0,2.2-1.2,2.2-2.8
			c0-1.6-0.7-2.7-2.4-2.7C1216.4,3805.9,1215.4,3806.3,1214.6,3807.6z"/>
	</g>
	<g class="st0">
		<path class="st3" d="M1366.7,3809.1c0-1.5,1.2-2.6,2.2-3.2v-0.1c-0.8-0.6-1.6-1.4-1.6-2.6c0-1.7,1.3-2.8,3-2.8
			c1.9,0,3.1,1.3,3.1,3c0,1.2-0.9,2.3-1.6,2.8v0.1c1,0.6,2,1.4,2,2.9c0,1.6-1.4,3-3.5,3C1368.3,3812.2,1366.7,3810.9,1366.7,3809.1z
			 M1372.9,3809.2c0-1.7-1.6-2.3-3.4-3c-1.1,0.7-1.9,1.6-1.9,2.8c0,1.4,1.2,2.4,2.7,2.4C1371.9,3811.5,1372.9,3810.5,1372.9,3809.2z
			 M1372.6,3803.5c0-1.2-0.8-2.2-2.2-2.2c-1.2,0-2.1,0.8-2.1,2c0,1.6,1.5,2.2,2.9,2.8C1372.1,3805.2,1372.6,3804.4,1372.6,3803.5z"
			/>
		<path class="st3" d="M1375.4,3814.2c0.8-0.4,1.4-1.2,1.4-2.1c-0.1,0-0.1,0-0.2,0c-0.4,0-0.8-0.3-0.8-0.8c0-0.5,0.4-0.8,0.8-0.8
			c0.6,0,1,0.5,1,1.4c0,1.3-0.8,2.4-1.9,3L1375.4,3814.2z"/>
		<path class="st3" d="M1379.1,3810.6l0.5-0.6c0.7,0.7,1.6,1.4,3.1,1.4c1.5,0,2.6-1,2.6-2.4c0-1.5-1.1-2.5-3.9-2.5v-0.8
			c2.6,0,3.5-1.1,3.5-2.4c0-1.2-0.9-2-2.2-2c-1,0-1.9,0.5-2.6,1.2l-0.5-0.6c0.8-0.8,1.8-1.4,3.1-1.4c1.8,0,3.2,1,3.2,2.8
			c0,1.5-0.9,2.4-2.1,2.8v0.1c1.4,0.3,2.6,1.3,2.6,2.9c0,2-1.5,3.2-3.5,3.2C1380.9,3812.2,1379.8,3811.4,1379.1,3810.6z"/>
		<path class="st3" d="M1393.8,3801.5h-5.9v-0.8h7v0.6c-2.7,3.5-3.3,6.3-3.5,10.8h-1C1390.6,3807.5,1391.5,3804.7,1393.8,3801.5z"/>
		<path class="st3" d="M1402.4,3801.5h-5.9v-0.8h7v0.6c-2.7,3.5-3.3,6.3-3.5,10.8h-1C1399.2,3807.5,1400.1,3804.7,1402.4,3801.5z"/>
	</g>
	<g class="st0">
		<path class="st3" d="M1552,3811.2h2.6v-9.1h-2v-0.6c0.9-0.2,1.7-0.4,2.2-0.8h0.8v10.5h2.4v0.8h-6V3811.2z"/>
		<path class="st3" d="M1559.9,3814.2c0.8-0.4,1.4-1.2,1.4-2.1c-0.1,0-0.1,0-0.2,0c-0.4,0-0.8-0.3-0.8-0.8c0-0.5,0.4-0.8,0.8-0.8
			c0.6,0,1,0.5,1,1.4c0,1.3-0.8,2.4-1.9,3L1559.9,3814.2z"/>
		<path class="st3" d="M1568.6,3808.7h-5.2v-0.6l5.2-7.4h0.9v7.2h1.6v0.8h-1.6v3.3h-0.9V3808.7z M1568.6,3807.9v-4
			c0-0.5,0-1.5,0.1-2h-0.1c-0.3,0.5-0.6,0.9-0.9,1.4l-3.2,4.5H1568.6z"/>
		<path class="st3" d="M1572.4,3809.1c0-1.5,1.2-2.6,2.2-3.2v-0.1c-0.8-0.6-1.6-1.4-1.6-2.6c0-1.7,1.3-2.8,3-2.8
			c1.9,0,3.1,1.3,3.1,3c0,1.2-0.9,2.3-1.6,2.8v0.1c1,0.6,2,1.4,2,2.9c0,1.6-1.4,3-3.5,3C1573.9,3812.2,1572.4,3810.9,1572.4,3809.1z
			 M1578.5,3809.2c0-1.7-1.6-2.3-3.4-3c-1.1,0.7-1.9,1.6-1.9,2.8c0,1.4,1.2,2.4,2.7,2.4C1577.5,3811.5,1578.5,3810.5,1578.5,3809.2z
			 M1578.2,3803.5c0-1.2-0.8-2.2-2.2-2.2c-1.2,0-2.1,0.8-2.1,2c0,1.6,1.5,2.2,2.9,2.8C1577.7,3805.2,1578.2,3804.4,1578.2,3803.5z"
			/>
		<path class="st3" d="M1586.9,3801.5h-5.9v-0.8h7v0.6c-2.7,3.5-3.3,6.3-3.5,10.8h-1C1583.7,3807.5,1584.6,3804.7,1586.9,3801.5z"/>
	</g>
	<line id="선_416" class="st4" x1="971" y1="3707.5" x2="971" y2="3826.5"/>
	<line id="선_419" class="st4" x1="1110" y1="3707.5" x2="1110" y2="3826.5"/>
	<line id="선_423" class="st4" x1="1293" y1="3707.5" x2="1293" y2="3826.5"/>
	<line id="선_428" class="st4" x1="1476" y1="3707.5" x2="1476" y2="3826.5"/>
	<g class="st0">
		<path d="M777.9,3726.2h-5.8v6h-1.7v-6h-5.7v-1.4h9.4c0.4-2,0.4-3.5,0.4-4.9h-8.2v-1.3h9.9v1.3c0,1.4,0,2.9-0.4,4.9h2V3726.2z"/>
		<path d="M792.6,3725.3v1.3H787v2.6h-1.6v-2.6h-5.9v-1.3H792.6z M782.8,3730.6h8.4v1.3h-10.1v-4h1.6V3730.6z M790.9,3724.1h-9.7
			v-5.8h1.6v1.7h6.4v-1.7h1.6V3724.1z M789.3,3721.2h-6.4v1.6h6.4V3721.2z"/>
	</g>
	<g class="st0">
		<path d="M1036.4,3725.3c-1.9,0.4-3.6,0.5-6.7,0.5h-1.2v-6.8h6.4v1.3h-4.8v4.1c2.7,0,4.3-0.1,6-0.5L1036.4,3725.3z M1031.8,3730.6
			h8.1v1.3h-9.7v-4.8h1.7V3730.6z M1041.3,3721.9v1.4h-2v5h-1.6v-10.5h1.6v4.1H1041.3z"/>
		<path d="M1052.2,3726.2c-1.3,0.3-2.6,0.4-3.9,0.5v5.1h-1.6v-5c-1.4,0-2.6,0.1-3.8,0.1l-0.2-1.4c2.6,0,6.2,0,9.4-0.5L1052.2,3726.2
			z M1043.7,3721.4c0-1.8,1.6-3,3.7-3c2.2,0,3.7,1.2,3.7,3c0,1.8-1.6,3-3.7,3C1045.2,3724.5,1043.7,3723.2,1043.7,3721.4z
			 M1045.2,3721.4c0,1,0.9,1.7,2.1,1.7c1.3,0,2.1-0.7,2.1-1.7c0-1-0.9-1.7-2.1-1.7C1046.1,3719.8,1045.2,3720.4,1045.2,3721.4z
			 M1054.6,3717.8v14.5h-1.6v-14.5H1054.6z"/>
	</g>
	<g class="st0">
		<path d="M1184.8,3729.9c3.3-3.2,5.3-5.3,5.3-7.1c0-1.2-0.7-2.1-2-2.1c-0.9,0-1.7,0.6-2.3,1.3l-1-1c1-1.1,2-1.8,3.6-1.8
			c2.2,0,3.6,1.4,3.6,3.5c0,2.1-1.9,4.2-4.4,6.8c0.6-0.1,1.3-0.1,1.9-0.1h3v1.6h-7.6V3729.9z"/>
		<path d="M1194,3725.2c0-3.9,1.5-5.9,3.8-5.9c2.4,0,3.8,2.1,3.8,5.9c0,3.9-1.5,6-3.8,6C1195.5,3731.2,1194,3729.1,1194,3725.2z
			 M1199.9,3725.2c0-3.3-0.8-4.5-2-4.5c-1.2,0-2,1.2-2,4.5s0.8,4.5,2,4.5C1199,3729.8,1199.9,3728.5,1199.9,3725.2z"/>
		<path d="M1203.8,3729.5h2.6v-7.9h-2.1v-1.2c1.1-0.2,1.9-0.5,2.6-0.9h1.4v9.9h2.3v1.5h-6.7V3729.5z"/>
		<path d="M1212.2,3728.1c0-1.5,1-2.4,2.1-3v-0.1c-0.9-0.6-1.6-1.5-1.6-2.7c0-1.8,1.4-3,3.4-3c2,0,3.3,1.3,3.3,3.1
			c0,1.2-0.8,2.2-1.6,2.7v0.1c1,0.6,2,1.4,2,3c0,1.7-1.5,3.1-3.8,3.1C1213.9,3731.2,1212.2,3729.9,1212.2,3728.1z M1218.1,3728.1
			c0-1.4-1.3-1.8-2.9-2.5c-0.8,0.6-1.4,1.3-1.4,2.3c0,1.2,1,2,2.2,2C1217.3,3729.9,1218.1,3729.2,1218.1,3728.1z M1217.9,3722.5
			c0-1.1-0.7-1.9-1.8-1.9c-1,0-1.7,0.6-1.7,1.7c0,1.2,1.1,1.8,2.4,2.3C1217.5,3724,1217.9,3723.3,1217.9,3722.5z"/>
	</g>
	<g class="st0">
		<path d="M1367.8,3729.9c3.3-3.2,5.3-5.3,5.3-7.1c0-1.2-0.7-2.1-2-2.1c-0.9,0-1.7,0.6-2.3,1.3l-1-1c1-1.1,2-1.8,3.6-1.8
			c2.2,0,3.6,1.4,3.6,3.5c0,2.1-1.9,4.2-4.4,6.8c0.6-0.1,1.3-0.1,1.9-0.1h3v1.6h-7.6V3729.9z"/>
		<path d="M1377,3725.2c0-3.9,1.5-5.9,3.8-5.9c2.4,0,3.8,2.1,3.8,5.9c0,3.9-1.5,6-3.8,6C1378.5,3731.2,1377,3729.1,1377,3725.2z
			 M1382.9,3725.2c0-3.3-0.8-4.5-2-4.5c-1.2,0-2,1.2-2,4.5s0.8,4.5,2,4.5C1382,3729.8,1382.9,3728.5,1382.9,3725.2z"/>
		<path d="M1386.8,3729.5h2.6v-7.9h-2.1v-1.2c1.1-0.2,1.9-0.5,2.6-0.9h1.4v9.9h2.3v1.5h-6.7V3729.5z"/>
		<path d="M1395.4,3730l1-1.1c0.4,0.5,1.2,0.9,1.8,0.9c1.5,0,2.8-1.2,2.8-4.5c-0.7,0.9-1.7,1.4-2.6,1.4c-2,0-3.3-1.2-3.3-3.5
			c0-2.3,1.6-3.7,3.5-3.7c2.3,0,4.1,1.8,4.1,5.6c0,4.5-2.1,6.3-4.4,6.3C1397,3731.2,1396,3730.7,1395.4,3730z M1398.8,3725.3
			c0.7,0,1.6-0.4,2.2-1.4c-0.2-2.1-1.1-3.1-2.3-3.1c-1,0-1.8,0.8-1.8,2.3C1396.9,3724.5,1397.6,3725.3,1398.8,3725.3z"/>
	</g>
	<g class="st0">
		<path d="M1552.3,3729.9c3.3-3.2,5.3-5.3,5.3-7.1c0-1.2-0.7-2.1-2-2.1c-0.9,0-1.7,0.6-2.3,1.3l-1-1c1-1.1,2-1.8,3.6-1.8
			c2.2,0,3.6,1.4,3.6,3.5c0,2.1-1.9,4.2-4.4,6.8c0.6-0.1,1.3-0.1,1.9-0.1h3v1.6h-7.6V3729.9z"/>
		<path d="M1561.5,3725.2c0-3.9,1.5-5.9,3.8-5.9c2.4,0,3.8,2.1,3.8,5.9c0,3.9-1.5,6-3.8,6C1563,3731.2,1561.5,3729.1,1561.5,3725.2z
			 M1567.4,3725.2c0-3.3-0.8-4.5-2-4.5c-1.2,0-2,1.2-2,4.5s0.8,4.5,2,4.5C1566.5,3729.8,1567.4,3728.5,1567.4,3725.2z"/>
		<path d="M1570.6,3729.9c3.3-3.2,5.3-5.3,5.3-7.1c0-1.2-0.7-2.1-2-2.1c-0.9,0-1.7,0.6-2.3,1.3l-1-1c1-1.1,2-1.8,3.6-1.8
			c2.2,0,3.6,1.4,3.6,3.5c0,2.1-1.9,4.2-4.4,6.8c0.6-0.1,1.3-0.1,1.9-0.1h3v1.6h-7.6V3729.9z"/>
		<path d="M1579.8,3725.2c0-3.9,1.5-5.9,3.8-5.9c2.4,0,3.8,2.1,3.8,5.9c0,3.9-1.5,6-3.8,6
			C1581.2,3731.2,1579.8,3729.1,1579.8,3725.2z M1585.6,3725.2c0-3.3-0.8-4.5-2-4.5c-1.2,0-2,1.2-2,4.5s0.8,4.5,2,4.5
			C1584.8,3729.8,1585.6,3728.5,1585.6,3725.2z"/>
	</g>
	<line id="선_414" class="st5" x1="741" y1="3707.5" x2="1659" y2="3707.5"/>
	<line id="선_415" class="st4" x1="741" y1="3742.2" x2="1659" y2="3742.2"/>
	<line id="선_417" class="st4" x1="741.5" y1="3784.1" x2="1659" y2="3784.2"/>
	<line id="선_418" class="st5" x1="741" y1="3826" x2="1659" y2="3826"/>
</g>
</svg>
