<?xml version="1.0" encoding="utf-8"?>
<!-- Generator: Adobe Illustrator 25.1.0, SVG Export Plug-In . SVG Version: 6.00 Build 0)  -->
<svg version="1.1" id="레이어_1" xmlns="http://www.w3.org/2000/svg" xmlns:xlink="http://www.w3.org/1999/xlink" x="0px"
	 y="0px" viewBox="0 0 335 343.5" style="enable-background:new 0 0 335 343.5;" xml:space="preserve">
<style type="text/css">
	.st0{enable-background:new    ;}
	.st1{fill:#DF1C2F;}
	.st2{fill:#F5F5F5;}
	.st3{fill:none;stroke:#707070;}
	.st4{fill:none;stroke:#BCBEC1;stroke-width:1.018;}
	.st5{fill:none;stroke:#BCBEC1;}
	.st6{fill:none;stroke:#DF1C2F;stroke-linecap:square;stroke-dasharray:3.5;}
	.st7{fill:#95989F;}
	.st8{fill:#6E6E6E;}
</style>
<g id="그룹_5702" transform="translate(-20 -756.7)">
	<g class="st0">
		<path class="st1" d="M27.7,766.5c0,2.8-1.4,4.6-3.4,4.6c-1.9,0-3.4-1.8-3.4-4.6c0-2.8,1.4-4.6,3.4-4.6
			C26.3,761.9,27.7,763.7,27.7,766.5z M22.7,766.5c0,1.9,0.7,2.9,1.6,2.9s1.6-1,1.6-2.9c0-1.9-0.7-2.9-1.6-2.9
			S22.7,764.6,22.7,766.5z M31.3,761v12.9h-1.8V761H31.3z"/>
		<path class="st1" d="M45.2,769.6h-2.6v4.4h-1.8v-4.4H38v4.4h-1.8v-4.4h-2.7v-1.5h11.7V769.6z M44,767.1c-2.2-0.4-3.9-1.4-4.7-2.8
			c-0.8,1.4-2.5,2.5-4.7,2.8l-0.7-1.5c2.9-0.4,4.4-2.1,4.4-3.6v-0.6h2v0.6c0,1.5,1.5,3.2,4.4,3.6L44,767.1z"/>
		<path class="st1" d="M56.3,768.7c-1.3-0.5-2.3-1.4-2.8-2.6c-0.5,1.3-1.5,2.4-3,2.9l-1-1.4c2.1-0.7,3-2.5,3-4.3v-1.4h1.9v1.4
			c0,1.7,0.9,3.3,2.9,4L56.3,768.7z M60.6,772.2v1.5h-8.8v-4.1h1.8v2.6H60.6z M58.5,765.2h-2.4v-1.5h2.4V761h1.8v9.5h-1.8V765.2z"/>
		<path class="st1" d="M69.3,768.3c-1.4-0.5-2.4-1.4-2.9-2.5c-0.6,1.3-1.6,2.4-3.1,2.9l-0.9-1.5c2-0.7,3-2.4,3-4h-2.5v-1.5h6.9v1.5
			h-2.5c0.1,1.5,1,3,2.9,3.6L69.3,768.3z M73.3,771.4c0,1.6-1.7,2.5-4.4,2.5c-2.7,0-4.4-0.9-4.4-2.5c0-1.6,1.7-2.5,4.4-2.5
			C71.6,769,73.3,769.9,73.3,771.4z M71.4,771.4c0-0.7-0.9-1.1-2.6-1.1c-1.7,0-2.6,0.3-2.6,1.1s0.9,1.1,2.6,1.1
			C70.5,772.5,71.4,772.2,71.4,771.4z M71.4,764.1V761h1.8v7.7h-1.8v-3.1h-1.9v-1.5H71.4z"/>
		<path class="st1" d="M82.2,762.1h1.7v8.7h-5.1v-8.7h1.7v2.9h1.7V762.1z M82.2,766.5h-1.7v2.9h1.7V766.5z M89.5,761v12.9h-1.8v-6.5
			h-1.1v5.9H85v-12.1h1.7v4.7h1.1V761H89.5z"/>
		<path class="st1" d="M97.6,764.5c-0.8,2-2.6,3.4-5.4,4.2l-0.7-1.5c2.9-0.8,4.4-2.2,4.6-3.9h-3.9v-1.5h5.9c0,0.4,0,0.8-0.1,1.2h2.3
			v-2h1.8v7.4h-1.8v-1.2h-2.8v-1.5h2.8v-1.2H97.6z M102.2,771.2c0,1.6-1.7,2.6-4.3,2.6c-2.6,0-4.4-1-4.4-2.6c0-1.6,1.7-2.6,4.4-2.6
			C100.5,768.6,102.2,769.6,102.2,771.2z M100.4,771.2c0-0.8-0.9-1.2-2.5-1.2c-1.6,0-2.5,0.4-2.5,1.2c0,0.8,0.9,1.2,2.5,1.2
			C99.5,772.4,100.4,772,100.4,771.2z"/>
	</g>
	<g id="그룹_5680" transform="translate(-1.116 -28.472)">
		<g id="그룹_5679" transform="translate(39.646 814.703)">
			<rect id="사각형_510" x="0.1" y="-0.2" class="st2" width="316.3" height="313.3"/>
			<path id="패스_4977" class="st3" d="M0,0.3v313.1h316.5"/>
			<path id="패스_2432" class="st4" d="M316.5,241.4H0.1"/>
			<path id="패스_2433" class="st5" d="M83.2,1.2V313"/>
			<rect id="사각형_511" x="61" y="0.3" class="st6" width="255" height="259.5"/>
		</g>
		<circle id="타원_1" class="st1" cx="160.9" cy="920.7" r="8.6"/>
		<circle id="타원_2" class="st7" cx="196.4" cy="981.5" r="8.6"/>
		<circle id="타원_3" class="st1" cx="240" cy="1000.7" r="8.6"/>
		<circle id="타원_4" class="st7" cx="322.2" cy="993.6" r="8.6"/>
		<circle id="타원_5" class="st7" cx="310" cy="853.7" r="8.6"/>
		<circle id="타원_6" class="st7" cx="212.7" cy="1031.2" r="8.6"/>
		<g class="st0">
			<path class="st1" d="M237.9,956.7h1.2v10.1h-1.2v-5.2h-1.2c-0.1,2.1-1,3.4-2.3,3.4c-1.4,0-2.3-1.5-2.3-3.9c0-2.4,0.9-3.8,2.3-3.8
				c1.3,0,2.2,1.2,2.3,3.3h1.2V956.7z M235.7,961.1c0-1.7-0.5-2.7-1.2-2.7c-0.7,0-1.2,1-1.2,2.7c0,1.7,0.5,2.7,1.2,2.7
				C235.2,963.8,235.7,962.9,235.7,961.1z M241.3,956.5v10.8h-1.2v-10.8H241.3z"/>
			<path class="st1" d="M244.9,963.7c1.5,0,3-0.1,4.5-0.4l0.1,1c-1.7,0.3-3.3,0.4-5,0.4h-0.9v-7.1h1.2V963.7z M252.1,956.5v10.9
				h-1.2v-6.4h-3.1v-1h3.1v-3.5H252.1z"/>
			<path class="st1" d="M258.1,959.6c0,1.8,1.1,3.7,2.8,4.4l-0.7,1c-1.3-0.6-2.2-1.7-2.7-3.1c-0.5,1.5-1.5,2.8-2.7,3.4l-0.7-1
				c1.7-0.8,2.8-2.8,2.8-4.7v-1h-2.4v-1h6.1v1h-2.4V959.6z M263,956.5v10.8h-1.2v-10.8H263z"/>
			<path class="st1" d="M277.7,964.9v1h-9.8v-1h4.2v-2.5h1.2v2.5H277.7z M276.7,962.6c-1.8-0.3-3.3-1.4-4-2.9
				c-0.7,1.4-2.3,2.5-4,2.9l-0.5-1c2.1-0.4,3.9-2,3.9-3.6v-0.8h1.3v0.8c0,1.7,1.7,3.3,3.9,3.6L276.7,962.6z"/>
			<path class="st1" d="M280.7,957.3v2.8h2.7v-2.8h1.2v7.4h-5.2v-7.4H280.7z M280.7,963.7h2.7v-2.7h-2.7V963.7z M287.8,956.4v10.9
				h-1.2v-10.9H287.8z"/>
			<path class="st1" d="M296.4,962.1c-1.6,0.3-3,0.3-5.1,0.3h-0.9v-3.2h3.7v-1.2h-3.7v-1h4.9v3.1h-3.7v1.2c1.9,0,3.2-0.1,4.7-0.3
				L296.4,962.1z M298.5,965.3c0,1.3-1.4,2-3.6,2c-2.2,0-3.6-0.7-3.6-2c0-1.3,1.4-2,3.6-2C297.1,963.3,298.5,964,298.5,965.3z
				 M297.3,965.3c0-0.7-0.9-1.1-2.4-1.1c-1.5,0-2.4,0.4-2.4,1.1c0,0.7,0.9,1.1,2.4,1.1C296.4,966.3,297.3,966,297.3,965.3z
				 M298.4,959.1v1.3h1.5v1h-1.5v1.7h-1.2v-6.6h1.2v1.6h1.5v1H298.4z"/>
			<path class="st1" d="M310.4,962.5c-2.3,0.4-4.8,0.5-6.7,0.5l-0.1-1c0.6,0,1.4,0,2.2,0v-2.2h1.2v2.2c1.1,0,2.3-0.1,3.4-0.3
				L310.4,962.5z M308.2,961c0.2-1.2,0.3-2,0.3-2.7h-4.2v-1h5.4v0.6c0,0.7,0,1.8-0.3,3.2L308.2,961z M306.4,966.1h6.1v1h-7.4v-3.2
				h1.2V966.1z M313.6,959.9v1h-1.4v3.7h-1.2v-8.1h1.2v3.4H313.6z"/>
			<path class="st1" d="M316.6,963.7c1.7,0,3.2-0.1,4.9-0.4l0.1,1c-1.9,0.3-3.5,0.4-5.4,0.4h-0.9v-4.3h3.8v-2h-3.8v-1h5v4h-3.8
				V963.7z M323.6,956.4v10.9h-1.2v-10.9H323.6z"/>
		</g>
		<g class="st0">
			<path class="st1" d="M237.7,978.6h-5.1v-4.5h5.1V978.6z M238.1,981.3c0.1,0.9,1.5,1.9,3.5,2.1l-0.4,0.9c-1.7-0.2-3.1-0.9-3.7-1.8
				c-0.7,0.9-2,1.6-3.8,1.8l-0.4-0.9c2-0.2,3.4-1.2,3.5-2.1h-3.1v-0.9h3.1v-1h1.3v1h3.1v0.9H238.1z M236.5,975.1h-2.7v2.5h2.7V975.1
				z M240.9,979.6h-1.2v-6.2h1.2V979.6z"/>
			<path class="st1" d="M255.6,982.1v1h-9.8v-1h2.5v-1.9c-0.8-0.3-1.2-0.9-1.2-1.6c0-1.3,1.4-2.1,3.6-2.1s3.6,0.8,3.6,2.1
				c0,0.7-0.4,1.3-1.2,1.6v1.9H255.6z M255.1,975.9h-8.9v-1h3.8v-1.3h1.2v1.3h3.8V975.9z M248.3,978.6c0,0.7,0.9,1.1,2.3,1.1
				c1.5,0,2.4-0.4,2.4-1.1c0-0.7-0.9-1.1-2.4-1.1C249.2,977.5,248.3,977.9,248.3,978.6z M249.5,982.1h2.4v-1.6
				c-0.4,0.1-0.8,0.1-1.2,0.1c-0.4,0-0.8,0-1.2-0.1V982.1z"/>
			<path class="st1" d="M264,978.8v0.9h1.4v2.6h-6.2v0.9h6.5v0.9H258v-2.7h6.2v-0.8H258v-0.9h1.4v-0.9h-2.6v-1h9.8v1H264z
				 M257.8,975.4c0-1.2,1.4-1.9,3.9-1.9c2.4,0,3.9,0.7,3.9,1.9s-1.4,1.9-3.9,1.9C259.3,977.3,257.8,976.6,257.8,975.4z M259.1,975.4
				c0,0.6,0.9,0.9,2.6,0.9c1.7,0,2.6-0.3,2.6-0.9s-0.9-0.9-2.6-0.9C260,974.5,259.1,974.8,259.1,975.4z M262.8,978.8h-2.2v0.9h2.2
				V978.8z"/>
			<path class="st1" d="M280.3,978.5v1h-9.8v-1H280.3z M271,977c2-0.2,3.4-1.1,3.6-2.1h-3.2v-1h8v1h-3.2c0.2,1,1.6,1.8,3.6,2.1
				l-0.4,1c-1.9-0.2-3.4-1-4-2.1c-0.6,1.1-2.1,1.9-4,2.1L271,977z M279.1,982.3c0,1.3-1.4,2-3.7,2c-2.3,0-3.7-0.7-3.7-2
				c0-1.3,1.4-2,3.7-2C277.7,980.3,279.1,981.1,279.1,982.3z M277.9,982.3c0-0.7-0.9-1-2.5-1s-2.5,0.3-2.5,1c0,0.7,0.9,1,2.5,1
				S277.9,983,277.9,982.3z"/>
			<path class="st1" d="M283.2,980.7c1.2,0,2.2-0.1,3.3-0.3l0.1,1c-1.3,0.3-2.4,0.3-3.9,0.3h-0.7v-7h4v1h-2.8V980.7z M290.8,973.4
				v10.8h-1.2v-5.5h-1.3v5h-1.2v-10.1h1.2v4.1h1.3v-4.3H290.8z"/>
		</g>
		<g class="st0">
			<path class="st1" d="M182,921.3c-1.3-0.4-2.2-1.2-2.7-2.2c-0.5,1.1-1.4,2-2.7,2.4l-0.6-1c1.7-0.5,2.7-1.8,2.7-3.3v-0.2h-2.4v-1
				h2.4v-1.3h1.2v1.3h2.3v1h-2.3v0.2c0,1.3,1,2.6,2.7,3.1L182,921.3z M185.1,924.4v1h-7.4V922h1.2v2.4H185.1z M184.8,922.7h-1.2v-8
				h1.2V922.7z"/>
			<path class="st1" d="M193.7,921.6c-2.3,0.4-4.8,0.5-6.7,0.5l-0.1-1c0.8,0,1.8,0,2.8,0v-0.7c-1.2-0.1-2-0.7-2-1.6
				c0-1,1-1.7,2.6-1.7c1.6,0,2.6,0.6,2.6,1.7c0,0.9-0.7,1.5-1.9,1.6v0.7c0.9-0.1,1.9-0.1,2.8-0.3L193.7,921.6z M193.3,916.6h-6.2
				v-0.9h2.5v-1h1.2v1h2.5V916.6z M189.6,924.4h6.1v1h-7.4v-2.7h1.2V924.4z M190.2,919.5c0.9,0,1.4-0.3,1.4-0.8
				c0-0.5-0.6-0.8-1.4-0.8c-0.9,0-1.4,0.3-1.4,0.8C188.8,919.2,189.3,919.5,190.2,919.5z M196.9,918.4v1h-1.5v3.8h-1.2v-8.5h1.2v3.7
				H196.9z"/>
			<path class="st1" d="M203.2,917.6c-0.7,1.7-2.3,2.9-4.6,3.6l-0.5-1c2.5-0.7,3.9-2,4.2-3.7h-3.6v-1h4.9c0,0.4,0,0.7-0.1,1.1h2.2
				v-1.9h1.2v6.4h-1.2v-1.2h-2.6v-1h2.6v-1.2H203.2z M207,923.4c0,1.3-1.4,2.1-3.6,2.1c-2.2,0-3.6-0.8-3.6-2.1
				c0-1.3,1.4-2.1,3.6-2.1C205.6,921.2,207,922.1,207,923.4z M205.8,923.4c0-0.7-0.9-1.2-2.4-1.2c-1.5,0-2.4,0.4-2.4,1.2
				c0,0.8,0.9,1.2,2.4,1.2C204.8,924.6,205.8,924.1,205.8,923.4z"/>
			<path class="st1" d="M215,917.7c0,1.8,0.7,3.7,2.2,4.6l-0.7,0.9c-1-0.6-1.7-1.7-2.1-2.9c-0.4,1.4-1.1,2.5-2.1,3.2l-0.7-0.9
				c1.5-1,2.3-2.9,2.3-4.8v-0.8h-1.9v-1h4.9v1H215V917.7z M217.6,914.9h1.2V925h-1.2v-5.5H216v-1h1.6V914.9z M220.9,914.7v10.8h-1.2
				v-10.8H220.9z"/>
			<path class="st1" d="M228.2,920.9v1.1h3.1v3.4h-7.4V922h3.1v-1.1h-4.3v-1h9.8v1H228.2z M225.1,916.1h-1.5v-1h8v1h-1.5v2h1.5v1
				h-7.9v-1h1.5V916.1z M230.1,923h-5v1.5h5V923z M228.9,916.1h-2.5v2h2.5V916.1z"/>
			<path class="st1" d="M242.2,919.9H237v-4.5h5.1V919.9z M242.5,922.5c0.1,0.9,1.5,1.9,3.5,2.1l-0.4,0.9c-1.7-0.2-3.1-0.9-3.7-1.8
				c-0.7,0.9-2,1.6-3.8,1.8l-0.4-0.9c2-0.2,3.4-1.2,3.5-2.1h-3.1v-0.9h3.1v-1h1.3v1h3.1v0.9H242.5z M241,916.4h-2.7v2.5h2.7V916.4z
				 M245.4,920.9h-1.2v-6.2h1.2V920.9z"/>
			<path class="st1" d="M254.1,917.4c0,2,1,4,2.7,4.8l-0.7,1c-1.2-0.6-2.1-1.8-2.6-3.2c-0.5,1.5-1.4,2.8-2.6,3.4l-0.8-1
				c1.7-0.8,2.7-2.9,2.7-4.9v-1.8h1.2V917.4z M259.2,914.7v10.9H258v-6.3h-2.3v-1h2.3v-3.6H259.2z"/>
			<path class="st1" d="M263,915.6v2.8h2.7v-2.8h1.2v7.4h-5.2v-7.4H263z M263,922h2.7v-2.7H263V922z M270.2,914.7v10.9h-1.2v-10.9
				H270.2z"/>
			<path class="st1" d="M282.1,923.2v1h-9.8v-1H282.1z M281.1,921.1c-1.8-0.4-3.3-1.5-4-3c-0.7,1.5-2.2,2.6-4,3l-0.5-1
				c2.1-0.4,3.9-2.1,3.9-3.8v-0.8h1.3v0.8c0,1.7,1.7,3.4,3.9,3.8L281.1,921.1z"/>
			<path class="st1" d="M290.7,916.1c0,2.9-0.9,5.4-4,7.2l-0.7-0.9c2.3-1.4,3.3-3.1,3.5-5.3h-3v-1H290.7z M295.2,914.7v10.8h-1.2
				V920h-1.2v5.1h-1.2v-10h1.2v3.9h1.2v-4.2H295.2z"/>
			<path class="st1" d="M302.5,919.9h-5.1v-4.7h1.2v1.4h2.7v-1.4h1.2V919.9z M299.8,924.5h6.1v1h-7.3v-2.8h5.7v-0.9h-5.8v-1h7v2.8
				h-5.8V924.5z M301.3,917.6h-2.7v1.4h2.7V917.6z M307,917v1h-1.5v2.3h-1.2v-5.6h1.2v2.2H307z"/>
		</g>
		<g class="st0">
			<path class="st8" d="M256.9,1110.4c0,2.3-1.1,3.8-2.7,3.8c-1.6,0-2.7-1.5-2.7-3.8s1.1-3.8,2.7-3.8
				C255.7,1106.6,256.9,1108.1,256.9,1110.4z M252.3,1110.4c0,1.8,0.7,2.9,1.8,2.9c1,0,1.8-1.1,1.8-2.9c0-1.7-0.7-2.9-1.8-2.9
				C253.1,1107.5,252.3,1108.6,252.3,1110.4z M259.8,1105.8v10.8h-1v-10.8H259.8z"/>
			<path class="st8" d="M265.2,1107.6h2.2v0.8H262v-0.8h2.2v-1.5h1V1107.6z M267,1111.6c0,1.5-1,2.5-2.3,2.5c-1.3,0-2.3-1-2.3-2.5
				c0-1.4,1-2.4,2.3-2.4C266,1109.1,267,1110.1,267,1111.6z M266.1,1111.6c0-0.9-0.6-1.6-1.4-1.6c-0.8,0-1.4,0.7-1.4,1.6
				c0,1,0.6,1.6,1.4,1.6C265.5,1113.2,266.1,1112.5,266.1,1111.6z M271.2,1105.8v10.8h-0.9v-5.4h-1.4v4.9h-0.9v-10h0.9v4.3h1.4v-4.5
				H271.2z"/>
			<path class="st8" d="M279.8,1111.7c-2.2,0.4-4.8,0.4-6.7,0.4l-0.1-0.8c0.7,0,1.5,0,2.3,0v-2.3h1v2.3c1.2,0,2.4-0.1,3.5-0.3
				L279.8,1111.7z M277.8,1110.3c0.3-1.2,0.3-2.2,0.3-2.8h-4.4v-0.8h5.3v0.6c0,0.7,0,1.8-0.3,3.2L277.8,1110.3z M275.6,1115.5h6.2
				v0.8h-7.1v-3.2h1V1115.5z M283,1109.3v0.8h-1.5v3.8h-1v-8.1h1v3.5H283z"/>
			<path class="st8" d="M290.2,1106.1h0.9v9.9h-0.9v-3.7h-1.9v-0.8h1.9v-1.9h-1.8c-0.5,1.8-1.7,3.4-3.7,4.6l-0.6-0.7
				c2.3-1.4,3.5-3.3,3.6-5.6h-3.2v-0.8h4.1c0,0.6,0,1.1-0.1,1.6h1.6V1106.1z M293.3,1105.8v10.7h-0.9v-10.7H293.3z"/>
			<path class="st8" d="M298.8,1109.1c0,1.7,1.2,3.6,2.8,4.4l-0.6,0.8c-1.2-0.6-2.2-1.9-2.7-3.3c-0.5,1.6-1.5,2.9-2.7,3.6l-0.6-0.8
				c1.5-0.8,2.8-2.8,2.8-4.6v-1.4h-2.5v-0.8h5.8v0.8h-2.4V1109.1z M305.2,1111h-1.8v5.6h-1v-10.7h1v4.3h1.8V1111z"/>
			<path class="st8" d="M315.6,1111.7c-2.2,0.4-4.8,0.4-6.7,0.4l-0.1-0.8c0.7,0,1.5,0,2.3,0v-2.3h1v2.3c1.2,0,2.4-0.1,3.5-0.3
				L315.6,1111.7z M313.6,1110.3c0.3-1.2,0.3-2.2,0.3-2.8h-4.4v-0.8h5.3v0.6c0,0.7,0,1.8-0.3,3.2L313.6,1110.3z M311.4,1115.5h6.2
				v0.8h-7.1v-3.2h1V1115.5z M318.8,1109.3v0.8h-1.5v3.8h-1v-8.1h1v3.5H318.8z"/>
			<path class="st8" d="M326,1111.4c-1.2-0.4-2.2-1.3-2.7-2.5c-0.5,1.2-1.5,2.2-2.7,2.7l-0.5-0.8c1.6-0.6,2.7-2,2.7-3.6v-1h1v1
				c0,1.5,1.1,2.9,2.7,3.4L326,1111.4z M321.8,1112.5h7v3.9h-7V1112.5z M322.8,1115.6h5v-2.3h-5V1115.6z M328.8,1105.8v6.1h-1v-6.1
				H328.8z"/>
			<path class="st8" d="M340.7,1114.4v0.8H331v-0.8h4.4v-2.8h-3.1v-5h7.3v0.8h-6.3v3.4h6.4v0.8h-3.3v2.8H340.7z"/>
		</g>
		<g class="st0">
			<path class="st8" d="M52.5,1025.4h10.8v1H52.5V1025.4z M53.4,1032.6h2.8v-3.1h-2.8v-1h7.3v5.1h-7.3V1032.6z M59.9,1032.6v-3.1
				h-2.8v3.1H59.9z"/>
			<path class="st8" d="M58.4,1022.7c-0.3-1.9-1.8-3.9-3.5-3.9h-0.5v3.6h-0.8v-8.1h0.8v3.6h0.5c1.7,0,3.2-2.1,3.5-3.9l0.8,0.4
				c-0.3,1.6-1.4,3.3-2.9,4c1.5,0.7,2.6,2.4,2.9,4L58.4,1022.7z M61.1,1013.4h0.8v9.8h-0.8V1013.4z"/>
			<path class="st8" d="M52.5,1003.3h10.7v1H52.5V1003.3z M59.7,1010.5c0-1.6-0.1-3.3-0.5-5.1l0.8-0.1c0.4,1.9,0.5,3.6,0.5,5.3v0.9
				h-6.9v-1H59.7z"/>
			<path class="st8" d="M58.8,992.2c-0.4,1.6-1.5,3.3-3.1,4c1.6,0.7,2.7,2.4,3.1,4l-0.8,0.4c-0.4-1.9-2-3.9-3.8-3.9h-0.8v-1h0.8
				c1.8,0,3.5-2,3.8-3.9L58.8,992.2z M61,991.3h0.8v9.8H61V991.3z"/>
			<path class="st8" d="M57.4,982.2c0.6,0.5,0.9,1.3,0.9,2.2c0,1.6-1.1,2.8-2.6,2.8c-1.5,0-2.5-1.2-2.5-2.8c0-0.9,0.3-1.7,0.9-2.2
				v-2.8h-1.5v-1h6.4v1h-1.5V982.2z M57.5,984.4c0-1.1-0.7-1.8-1.7-1.8c-1,0-1.7,0.8-1.7,1.8c0,1,0.7,1.8,1.7,1.8
				C56.7,986.2,57.5,985.4,57.5,984.4z M54.9,981.8c0.3-0.1,0.5-0.1,0.8-0.1c0.3,0,0.6,0,0.8,0.1v-2.3h-1.7V981.8z M61.2,978.4
				c1.3,0,2.1,1.4,2.1,3.6c0,2.2-0.8,3.6-2.1,3.6c-1.3,0-2.1-1.4-2.1-3.6C59.2,979.8,59.9,978.4,61.2,978.4z M61.2,979.4
				c-0.8,0-1.3,1-1.3,2.6c0,1.6,0.5,2.6,1.3,2.6c0.8,0,1.3-1,1.3-2.6C62.5,980.4,62,979.4,61.2,979.4z"/>
			<path class="st8" d="M54.5,969.9v6.3h-0.8v-2.7h-1.3v-1h1.3v-2.7H54.5z M55.2,968h1.5v-1.6h0.8v1.6h2v1h-6.9v-1h1.9v-1.6h0.8V968
				z M58.9,973.1c0,1.5-0.7,2.6-1.9,2.6c-1.2,0-1.9-1-1.9-2.6s0.7-2.6,1.9-2.6C58.1,970.5,58.9,971.6,58.9,973.1z M58.1,973.1
				c0-1-0.5-1.6-1.2-1.6c-0.7,0-1.2,0.7-1.2,1.6s0.4,1.6,1.2,1.6C57.7,974.7,58.1,974.1,58.1,973.1z M61.4,967.8
				c1.2,0,1.9,1.3,1.9,3.5c0,2.2-0.7,3.5-1.9,3.5c-1.2,0-1.9-1.3-1.9-3.5C59.6,969.2,60.2,967.8,61.4,967.8z M61.4,968.8
				c-0.7,0-1.1,1-1.1,2.5c0,1.6,0.4,2.5,1.1,2.5s1.1-1,1.1-2.5C62.5,969.8,62.1,968.8,61.4,968.8z"/>
			<path class="st8" d="M61.1,955.5h0.8v9.8h-0.8v-4.4h-2.8v3.1h-5v-7.3h0.8v6.3h3.4v-6.4h0.8v3.3h2.8V955.5z"/>
		</g>
		<g id="High" transform="translate(22.446 825.856)">
			<g id="그룹_4951">
				<g id="그룹_4950">
					<path id="패스_2629" d="M0.7,23v-1.3h3.4v-3.5H0.7v-1.3H9v1.3H5.2v3.5H9V23H0.7z"/>
					<path id="패스_2630" d="M0.9,15c-0.4,0-0.8-0.3-0.8-0.8c0,0,0,0,0-0.1c0-0.4,0.4-0.7,0.8-0.7c0.4,0,0.7,0.4,0.7,0.8
						C1.6,14.7,1.3,15,0.9,15z M2.8,14.8v-1.3H9v1.3H2.8z"/>
					<path id="패스_2631" d="M10.1,12.1c-0.6,0-1.1-0.4-1.3-0.9H8.7c-0.2,0.4-0.6,0.6-1,0.6c-0.5,0-0.9-0.3-1.1-0.7h0
						c-0.4,0.5-1,0.8-1.6,0.8c-1.2,0-2.2-1-2.2-2.2c0-0.1,0-0.1,0-0.2c0-0.3,0.1-0.6,0.2-0.9V6.4h1v1.2c0.3-0.3,0.7-0.4,1.1-0.4
						C6,7.1,7,8.1,7,9.2c0,0.1,0,0.2,0,0.2c0,0.3-0.1,0.6-0.2,0.9c0.2,0.2,0.4,0.3,0.7,0.3c0.4,0,0.6-0.2,0.6-1V8.5
						c0-1.5,0.4-2.2,1.5-2.2c1.2,0,2.2,1.3,2.2,3.2C11.7,11,11.2,12.1,10.1,12.1z M4.8,8.3c-0.6-0.1-1.2,0.4-1.3,1
						c-0.1,0.6,0.4,1.2,1,1.3c0.1,0,0.2,0,0.3,0c0.6,0.1,1.2-0.4,1.3-1c0.1-0.6-0.4-1.2-1-1.3C5,8.3,4.9,8.3,4.8,8.3z M9.8,7.5
						c-0.5,0-0.7,0.4-0.7,1.2v0.9c0,0.3,0,0.6-0.1,0.8C9.2,10.8,9.5,11,9.9,11c0.6,0,1-0.6,1-1.7C10.9,8.2,10.3,7.5,9.8,7.5L9.8,7.5
						z"/>
					<path id="패스_2632" d="M0,5.1V3.9h2.4l1.2,0c-0.6-0.5-0.9-1.2-1-2C2.6,0.6,3.5,0,5.1,0H9v1.3H5.2c-1.1,0-1.5,0.3-1.5,1
						c0,0.6,0.4,1.2,0.8,1.5H9v1.3L0,5.1z"/>
				</g>
			</g>
		</g>
	</g>
</g>
</svg>
