<?xml version="1.0" encoding="utf-8"?>
<!-- Generator: Adobe Illustrator 25.1.0, SVG Export Plug-In . SVG Version: 6.00 Build 0)  -->
<svg version="1.1" id="레이어_1" xmlns="http://www.w3.org/2000/svg" xmlns:xlink="http://www.w3.org/1999/xlink" x="0px"
	 y="0px" viewBox="0 0 208 333" style="enable-background:new 0 0 208 333;" xml:space="preserve">
<style type="text/css">
	.st0{enable-background:new    ;}
	.st1{fill:#DF1C2F;}
	.st2{fill:#929397;}
	.st3{fill:#A3A3A3;}
	.st4{fill:#E2E2E2;}
	.st5{fill:#42454A;}
	.st6{fill:#FFFFFF;}
</style>
<g id="그룹_5881" transform="translate(-1096 -1659)">
	<g class="st0">
		<path class="st1" d="M1160,1677.2c0.5,0,1-0.1,1.4-0.1l0.2,1.9c-2.8,0.5-6.5,0.6-8.8,0.6l-0.3-2.1h1.5v-8h-1.2v-2.1h8.4v2.1h-1.2
			V1677.2z M1156.2,1677.4c0.4,0,0.9,0,1.4-0.1v-7.9h-1.4V1677.4z M1162.4,1665.7h2.5v17.2h-2.5v-6.7h-1.7v-2.1h1.7v-1.6h-1.7v-2.1
			h1.7V1665.7z M1168.6,1665.3v18.4h-2.5v-18.4H1168.6z"/>
		<path class="st1" d="M1187.7,1677.5h-7.1v6.3h-2.6v-6.3h-6.9v-2.1h16.6V1677.5z M1186.1,1674c-3.2-0.5-5.5-2-6.7-4
			c-1.2,2-3.5,3.5-6.7,4l-1-2.1c4.2-0.6,6.3-3,6.3-5.1v-0.9h2.8v0.9c0,2.1,2.1,4.5,6.3,5.1L1186.1,1674z"/>
		<path class="st1" d="M1203.3,1674.2h-8.8v-8.1h2.6v2.2h3.6v-2.2h2.6V1674.2z M1198.9,1681.5h10v2h-12.7v-5.1h9.5v-1.1h-9.6v-2
			h12.2v5h-9.5V1681.5z M1200.7,1670.3h-3.6v1.8h3.6V1670.3z M1210.9,1668.9v2.1h-2.4v3.7h-2.6v-9.4h2.6v3.6H1210.9z"/>
		<path class="st1" d="M1220.2,1675.5c-1.5-0.6-2.6-1.7-3.2-3c-0.7,1.6-1.8,2.9-3.5,3.6l-1.4-2c2.6-1.1,3.6-3.4,3.6-5.5v-2.1h2.5
			v2.1c0,2,1,4,3.4,4.9L1220.2,1675.5z M1228.1,1680.3c0,2.2-2.5,3.5-6.3,3.5c-3.9,0-6.4-1.3-6.4-3.5c0-2.1,2.5-3.4,6.4-3.4
			C1225.7,1676.8,1228.1,1678.1,1228.1,1680.3z M1225.5,1680.3c0-1-1.3-1.5-3.7-1.5c-2.4,0-3.7,0.5-3.7,1.5c0,1,1.3,1.5,3.7,1.5
			C1224.2,1681.7,1225.5,1681.3,1225.5,1680.3z M1224.1,1676h-2.5v-10.3h2.5v4.1h1.4v-4.5h2.5v11.3h-2.5v-4.7h-1.4V1676z"/>
		<path class="st1" d="M1237.2,1670v-1.5h-5.8v-2.1h8.4v5.5h-5.8v1.6c3,0,5-0.1,7.3-0.6l0.2,2.1c-2.6,0.5-4.9,0.6-8.6,0.6h-1.6v-5.7
			H1237.2z M1245.4,1680.2c0,2.2-2.4,3.5-6.2,3.5s-6.2-1.3-6.2-3.5c0-2.2,2.4-3.5,6.2-3.5S1245.4,1678,1245.4,1680.2z
			 M1242.8,1680.2c0-1-1.2-1.5-3.6-1.5s-3.6,0.5-3.6,1.5c0,1,1.2,1.5,3.6,1.5S1242.8,1681.3,1242.8,1680.2z M1245.2,1669.9v1.7h2.4
			v2.1h-2.4v2.6h-2.6v-11.1h2.6v2.5h2.4v2.1H1245.2z"/>
	</g>
	<g class="st0">
		<path class="st2" d="M1175.7,1705.7c-1.7,0.3-3.2,0.4-5.8,0.4h-1v-5.8h5.6v0.9h-4.4v3.9c2.5,0,3.9-0.1,5.5-0.4L1175.7,1705.7z
			 M1171.4,1710.6h7.2v0.9h-8.4v-4.1h1.1V1710.6z M1179.9,1703v1h-1.9v4.4h-1.1v-9.1h1.1v3.7H1179.9z"/>
		<path class="st2" d="M1189.6,1706.5c-1.2,0.2-2.4,0.4-3.6,0.4v4.5h-1.1v-4.5c-1.2,0.1-2.4,0.1-3.5,0.1l-0.2-1c2.3,0,5.5,0,8.3-0.4
			L1189.6,1706.5z M1182.1,1702.5c0-1.5,1.3-2.6,3.2-2.6c1.9,0,3.2,1,3.2,2.6c0,1.5-1.3,2.6-3.2,2.6
			C1183.5,1705,1182.1,1704,1182.1,1702.5z M1183.2,1702.5c0,1,0.9,1.6,2.1,1.6c1.2,0,2.1-0.7,2.1-1.6s-0.9-1.6-2.1-1.6
			C1184.1,1700.8,1183.2,1701.5,1183.2,1702.5z M1191.5,1699.3v12.6h-1.1v-12.6H1191.5z"/>
		<path class="st2" d="M1197.5,1704.4c0-0.6,0.4-1,0.9-1c0.5,0,0.9,0.4,0.9,1c0,0.6-0.4,1-0.9,1
			C1197.9,1705.3,1197.5,1704.9,1197.5,1704.4z M1197.5,1710c0-0.6,0.4-1,0.9-1c0.5,0,0.9,0.4,0.9,1s-0.4,1-0.9,1
			C1197.9,1711,1197.5,1710.6,1197.5,1710z"/>
		<path class="st2" d="M1210.5,1706.2h-5.8v-5.8h5.8V1706.2z M1209.4,1701.3h-3.5v4h3.5V1701.3z M1207.3,1710.6h7.2v0.9h-8.4v-4h1.1
			V1710.6z M1215.9,1703.1v1h-1.9v4.4h-1.1v-9.2h1.1v3.8H1215.9z"/>
		<path class="st2" d="M1231.6,1706.4v0.9h-11.4v-0.9h5.1v-1.3h-3.6v-5.3h8.5v0.9h-7.3v1.3h7v0.9h-7v1.3h7.4v0.9h-3.8v1.3H1231.6z
			 M1222.9,1710.6h7.6v0.9h-8.7v-3.4h1.1V1710.6z"/>
	</g>
	<g class="st0">
		<path class="st3" d="M1105.4,1782.8c3.8-3.3,7.8-6.2,7.8-9.4c0-1.7-0.7-2.8-2.6-2.8c-1.8,0-2.7,1.2-2.8,3h-2.4
			c0.1-3.5,2.3-5.2,5.2-5.2c3.3,0,5.1,2,5.1,4.8c0,3.9-4,6.9-6.5,9.2h7v2.1h-10.7V1782.8z"/>
		<path class="st3" d="M1126.9,1772.5c-0.3-1.3-1.1-2-2.7-2c-2.3,0-3.4,1.5-3.5,5.7c0.8-1.3,2.4-2,4-2c2.9,0,4.9,1.9,4.9,5.3
			c0,3-1.8,5.3-5.3,5.3c-4.7,0-5.9-3.3-5.9-8.4c0-5,1.7-8.1,5.7-8.1c3.1,0,4.7,2,5,4.1H1126.9z M1121,1779.4c0,2,1.2,3.3,3.3,3.3
			c1.8,0,3-1.3,3-3.1c0-1.9-1-3.3-3.1-3.3C1122.6,1776.3,1121,1777.3,1121,1779.4z"/>
		<path class="st3" d="M1132.2,1782.8c3.8-3.3,7.8-6.2,7.8-9.4c0-1.7-0.7-2.8-2.6-2.8c-1.8,0-2.7,1.2-2.8,3h-2.4
			c0.1-3.5,2.3-5.2,5.2-5.2c3.3,0,5.1,2,5.1,4.8c0,3.9-4,6.9-6.5,9.2h7v2.1h-10.7V1782.8z"/>
	</g>
	<g class="st0">
		<path class="st3" d="M1181.3,1826.4c3.8-3.3,7.8-6.2,7.8-9.4c0-1.7-0.7-2.8-2.6-2.8c-1.8,0-2.7,1.2-2.8,3h-2.4
			c0.1-3.5,2.3-5.2,5.2-5.2c3.3,0,5.1,2,5.1,4.8c0,3.9-4,6.9-6.5,9.2h7v2.1h-10.7V1826.4z"/>
		<path class="st3" d="M1199.4,1812c3.2,0,4.9,1.8,4.9,4.2c0,1.9-1.2,3.2-2.5,3.6v0.1c1.7,0.5,2.8,1.9,2.8,4.1
			c0,2.6-1.8,4.5-5.1,4.5c-3,0-5.4-1.6-5.5-4.7h2.4c0.1,1.5,1.2,2.6,3.1,2.6c1.9,0,2.8-1.1,2.8-2.6c0-2.1-1.4-2.8-4-2.8h-0.6v-2.1
			h0.6c2.3,0,3.7-0.7,3.7-2.4c0-1.4-0.9-2.3-2.6-2.3c-1.8,0-2.6,1.1-2.7,2.2h-2.4C1194.3,1813.6,1196.4,1812,1199.4,1812z"/>
		<path class="st3" d="M1210.3,1824.1c0.3,1.4,1.2,2.2,2.9,2.2c2,0,3-1.3,3-5.4c-0.7,1-2.1,1.6-3.6,1.6c-2.8,0-5.1-1.7-5.1-5.1
			c0-3.2,2-5.3,5.3-5.3c4.1,0,5.5,2.8,5.5,8.1c0,5.4-1.1,8.3-5.3,8.3c-3.3,0-4.9-2-5.1-4.3H1210.3z M1216,1817.3c0-2-1.2-3.2-3-3.2
			c-1.9,0-3,1.3-3,3.1c0,1.7,0.9,3.1,3.1,3.1C1214.9,1820.4,1216,1819.1,1216,1817.3z"/>
	</g>
	<g class="st0">
		<path class="st1" d="M1260.4,1878.9c3.6-3.1,7.4-5.9,7.4-8.9c0-1.4-0.6-2.4-2.2-2.4c-1.5,0-2.3,1.1-2.3,2.8h-3
			c0.1-3.7,2.5-5.4,5.3-5.4c3.5,0,5.2,2,5.2,4.8c0,3.7-3.6,6.6-6.1,8.8h6.5v2.6h-10.9V1878.9z"/>
		<path class="st1" d="M1273,1878.9c3.6-3.1,7.4-5.9,7.4-8.9c0-1.4-0.6-2.4-2.2-2.4c-1.5,0-2.3,1.1-2.3,2.8h-3
			c0.1-3.7,2.5-5.4,5.3-5.4c3.5,0,5.2,2,5.2,4.8c0,3.7-3.6,6.6-6.1,8.8h6.5v2.6H1273V1878.9z"/>
		<path class="st1" d="M1287.6,1868.2h-2.1v-2.8h5.3v16h-3.2V1868.2z"/>
	</g>
	<path id="패스_2700" class="st4" d="M1096,1992h56v-187.6h-56V1992z"/>
	<path id="패스_2701" class="st4" d="M1172,1992h56v-153.5h-56V1992z"/>
	<path id="패스_2702" class="st1" d="M1248,1992h56v-93.8h-56V1992z"/>
	<g class="st0">
		<path class="st5" d="M1110.3,1977c2.2-2,4.6-3.7,4.6-5.5c0-1-0.4-1.7-1.5-1.7c-1,0-1.6,0.7-1.6,1.8h-1.4c0.1-2.1,1.4-3.1,3.1-3.1
			c1.9,0,3,1.2,3,2.9c0,2.3-2.3,4.1-3.9,5.4h4.1v1.2h-6.3V1977z"/>
		<path class="st5" d="M1121.3,1968.6c2.7,0,3.4,2.1,3.4,4.8c0,2.8-0.7,4.8-3.4,4.8s-3.4-2.1-3.4-4.8
			C1117.9,1970.6,1118.7,1968.6,1121.3,1968.6z M1121.3,1969.9c-1.7,0-1.9,1.7-1.9,3.4c0,1.9,0.2,3.5,1.9,3.5s1.9-1.6,1.9-3.5
			C1123.2,1971.6,1123.1,1969.9,1121.3,1969.9z"/>
		<path class="st5" d="M1127.3,1970.1h-1.2v-1.4h2.7v9.5h-1.5V1970.1z"/>
		<path class="st5" d="M1131.1,1971.1c0-1.4,1-2.6,3.1-2.6c2.1,0,3.1,1.2,3.1,2.6c0,1-0.6,1.8-1.4,2.1c1,0.4,1.6,1.2,1.6,2.3
			c0,1.7-1.4,2.8-3.4,2.8c-1.9,0-3.4-1.1-3.4-2.8c0-1.1,0.6-2,1.6-2.3C1131.6,1972.8,1131.1,1972.2,1131.1,1971.1z M1132.3,1975.5
			c0,1,0.7,1.7,1.9,1.7c1.2,0,1.9-0.7,1.9-1.7c0-1.1-0.8-1.6-1.9-1.6C1133.1,1973.9,1132.3,1974.4,1132.3,1975.5z M1135.9,1971.3
			c0-1-0.7-1.5-1.7-1.5c-1,0-1.7,0.5-1.7,1.5c0,0.9,0.7,1.5,1.7,1.5C1135.2,1972.8,1135.9,1972.2,1135.9,1971.3z"/>
	</g>
	<g class="st0">
		<path class="st5" d="M1186.3,1977c2.2-2,4.6-3.7,4.6-5.5c0-1-0.4-1.7-1.5-1.7c-1,0-1.6,0.7-1.6,1.8h-1.4c0.1-2.1,1.4-3.1,3.1-3.1
			c1.9,0,3,1.2,3,2.9c0,2.3-2.3,4.1-3.9,5.4h4.1v1.2h-6.3V1977z"/>
		<path class="st5" d="M1197.3,1968.6c2.7,0,3.4,2.1,3.4,4.8c0,2.8-0.7,4.8-3.4,4.8s-3.4-2.1-3.4-4.8
			C1194,1970.6,1194.7,1968.6,1197.3,1968.6z M1197.3,1969.9c-1.7,0-1.9,1.7-1.9,3.4c0,1.9,0.2,3.5,1.9,3.5s1.9-1.6,1.9-3.5
			C1199.3,1971.6,1199.1,1969.9,1197.3,1969.9z"/>
		<path class="st5" d="M1203.3,1970.1h-1.2v-1.4h2.7v9.5h-1.5V1970.1z"/>
		<path class="st5" d="M1208.7,1975.6c0.2,0.8,0.7,1.3,1.7,1.3c1.2,0,1.8-0.8,1.8-3.2c-0.4,0.6-1.2,0.9-2.1,0.9c-1.7,0-3-1-3-3
			c0-1.9,1.2-3.1,3.1-3.1c2.4,0,3.3,1.7,3.3,4.8c0,3.2-0.7,4.9-3.2,4.9c-2,0-2.9-1.2-3-2.6H1208.7z M1212,1971.6
			c0-1.2-0.7-1.9-1.8-1.9c-1.1,0-1.8,0.8-1.8,1.9c0,1,0.5,1.8,1.9,1.8C1211.4,1973.4,1212,1972.7,1212,1971.6z"/>
	</g>
	<g class="st0">
		<path class="st6" d="M1260.7,1976.7c2.1-1.8,4.4-3.5,4.4-5.2c0-0.8-0.4-1.4-1.3-1.4c-0.9,0-1.4,0.6-1.4,1.6h-1.8
			c0.1-2.2,1.5-3.2,3.2-3.2c2,0,3.1,1.2,3.1,2.9c0,2.2-2.1,3.9-3.6,5.2h3.8v1.5h-6.4V1976.7z"/>
		<path class="st6" d="M1271.8,1968.5c2.7,0,3.5,2.1,3.5,4.8c0,2.8-0.8,4.8-3.5,4.8c-2.7,0-3.5-2.1-3.5-4.8
			C1268.3,1970.6,1269.1,1968.5,1271.8,1968.5z M1271.8,1970.2c-1.5,0-1.7,1.5-1.7,3.1c0,1.7,0.2,3.1,1.7,3.1s1.7-1.5,1.7-3.1
			C1273.5,1971.7,1273.3,1970.2,1271.8,1970.2z"/>
		<path class="st6" d="M1276.6,1976.7c2.1-1.8,4.4-3.5,4.4-5.2c0-0.8-0.4-1.4-1.3-1.4c-0.9,0-1.4,0.6-1.4,1.6h-1.8
			c0.1-2.2,1.5-3.2,3.2-3.2c2,0,3.1,1.2,3.1,2.9c0,2.2-2.1,3.9-3.6,5.2h3.8v1.5h-6.4V1976.7z"/>
		<path class="st6" d="M1287.7,1968.5c2.7,0,3.5,2.1,3.5,4.8c0,2.8-0.8,4.8-3.5,4.8c-2.7,0-3.5-2.1-3.5-4.8
			C1284.2,1970.6,1285,1968.5,1287.7,1968.5z M1287.7,1970.2c-1.5,0-1.7,1.5-1.7,3.1c0,1.7,0.2,3.1,1.7,3.1s1.7-1.5,1.7-3.1
			C1289.4,1971.7,1289.2,1970.2,1287.7,1970.2z"/>
	</g>
</g>
</svg>
