<?xml version="1.0" encoding="utf-8"?>
<!-- Generator: Adobe Illustrator 25.1.0, SVG Export Plug-In . SVG Version: 6.00 Build 0)  -->
<svg version="1.1" id="레이어_1" xmlns="http://www.w3.org/2000/svg" xmlns:xlink="http://www.w3.org/1999/xlink" x="0px"
	 y="0px" viewBox="0 0 335 168.4" style="enable-background:new 0 0 335 168.4;" xml:space="preserve">
<style type="text/css">
	.st0{enable-background:new    ;}
	.st1{fill:#DF1C2F;}
	.st2{fill:#929397;}
	.st3{fill:#E2E2E2;}
	.st4{fill:#808080;}
	.st5{fill:#A3A3A3;}
	.st6{fill:#FFFFFF;}
	.st7{fill:none;stroke:#D5D5D5;}
</style>
<g id="그룹_5723" transform="translate(-20 -1710.745)">
	<g class="st0">
		<path class="st1" d="M25.8,1723.4c0.4,0,0.7-0.1,1-0.1l0.1,1.3c-2,0.4-4.5,0.4-6.2,0.4l-0.2-1.5h1v-5.6h-0.8v-1.5h5.9v1.5h-0.8
			V1723.4z M23.2,1723.5c0.3,0,0.6,0,1,0v-5.5h-1V1723.5z M27.5,1715.3h1.7v12h-1.7v-4.7h-1.2v-1.5h1.2v-1.1h-1.2v-1.5h1.2V1715.3z
			 M31.8,1715v12.9H30V1715H31.8z"/>
		<path class="st1" d="M40.4,1716.4c0,4-1.3,7.2-5.9,9.4l-1-1.5c3.3-1.6,4.7-3.6,5-6.5h-4.3v-1.5H40.4z M44.2,1715v12.9h-1.9V1715
			H44.2z"/>
		<path class="st1" d="M53.1,1721.6v0.8h3.5v3.3h-7.1v0.7h7.4v1.4h-9.2v-3.4h7.1v-0.7h-7.1v-1.4h3.6v-0.8h-4.9v-1.5H58v1.5H53.1z
			 M56.5,1719.5h-8.7v-4h8.7V1719.5z M54.7,1716.8h-5.1v1.2h5.1V1716.8z"/>
		<path class="st1" d="M69,1721.3h-6.2v-5.7h1.8v1.5h2.5v-1.5H69V1721.3z M65.9,1726.4h7v1.4h-8.9v-3.6h6.7v-0.8h-6.7v-1.4h8.5v3.5
			h-6.7V1726.4z M67.2,1718.5h-2.5v1.3h2.5V1718.5z M74.3,1717.5v1.5h-1.7v2.6h-1.8v-6.6h1.8v2.5H74.3z"/>
		<path class="st1" d="M80.8,1722.2c-1.1-0.4-1.8-1.2-2.3-2.1c-0.5,1.1-1.3,2-2.5,2.5l-1-1.4c1.8-0.8,2.5-2.4,2.5-3.8v-1.5h1.8v1.5
			c0,1.4,0.7,2.8,2.4,3.5L80.8,1722.2z M86.4,1725.5c0,1.5-1.7,2.4-4.4,2.4c-2.7,0-4.5-0.9-4.5-2.4c0-1.5,1.7-2.4,4.5-2.4
			C84.6,1723.1,86.4,1724,86.4,1725.5z M84.5,1725.5c0-0.7-0.9-1-2.6-1c-1.7,0-2.6,0.3-2.6,1c0,0.7,0.9,1,2.6,1
			C83.6,1726.6,84.5,1726.2,84.5,1725.5z M83.5,1722.5h-1.7v-7.2h1.7v2.9h1v-3.1h1.8v7.9h-1.8v-3.3h-1V1722.5z"/>
		<path class="st1" d="M92.7,1718.3v-1h-4.1v-1.5h5.9v3.9h-4v1.1c2.1,0,3.5-0.1,5.1-0.4l0.2,1.5c-1.8,0.3-3.4,0.4-6,0.4h-1.1v-4
			H92.7z M98.5,1725.5c0,1.5-1.7,2.5-4.4,2.5s-4.4-0.9-4.4-2.5c0-1.6,1.7-2.5,4.4-2.5S98.5,1724,98.5,1725.5z M96.6,1725.5
			c0-0.7-0.9-1-2.5-1c-1.7,0-2.5,0.3-2.5,1c0,0.7,0.9,1,2.5,1C95.8,1726.5,96.6,1726.2,96.6,1725.5z M98.3,1718.3v1.2h1.7v1.5h-1.7
			v1.8h-1.8v-7.8h1.8v1.7h1.7v1.5H98.3z"/>
	</g>
	<g class="st0">
		<path class="st2" d="M26.4,1743.7c-1.4,0.3-2.5,0.3-4.6,0.3H21v-4.5h4.4v0.7h-3.5v3.1c1.9,0,3.1-0.1,4.4-0.3L26.4,1743.7z
			 M23,1747.6h5.7v0.7h-6.6v-3.2H23V1747.6z M29.7,1741.6v0.7h-1.5v3.5h-0.9v-7.1h0.9v2.9H29.7z"/>
		<path class="st2" d="M37.3,1744.4c-0.9,0.2-1.9,0.3-2.8,0.3v3.6h-0.9v-3.5c-1,0-1.9,0.1-2.7,0.1l-0.1-0.8c1.8,0,4.3,0,6.5-0.4
			L37.3,1744.4z M31.4,1741.2c0-1.2,1-2,2.5-2c1.5,0,2.5,0.8,2.5,2c0,1.2-1,2-2.5,2C32.5,1743.2,31.4,1742.4,31.4,1741.2z
			 M32.3,1741.2c0,0.8,0.7,1.3,1.6,1.3c1,0,1.6-0.5,1.6-1.3c0-0.8-0.7-1.3-1.6-1.3C33,1739.9,32.3,1740.4,32.3,1741.2z M38.8,1738.7
			v9.9h-0.9v-9.9H38.8z"/>
		<path class="st2" d="M43.5,1742.7c0-0.5,0.3-0.8,0.7-0.8s0.7,0.3,0.7,0.8c0,0.4-0.3,0.8-0.7,0.8S43.5,1743.1,43.5,1742.7z
			 M43.5,1747.1c0-0.5,0.3-0.8,0.7-0.8s0.7,0.3,0.7,0.8c0,0.5-0.3,0.8-0.7,0.8S43.5,1747.6,43.5,1747.1z"/>
		<path class="st2" d="M53.7,1744.1h-4.5v-4.6h4.5V1744.1z M52.9,1740.3h-2.8v3.1h2.8V1740.3z M51.2,1747.6h5.7v0.7h-6.6v-3.1h0.9
			V1747.6z M57.9,1741.7v0.8h-1.5v3.5h-0.9v-7.2h0.9v3H57.9z"/>
		<path class="st2" d="M70.3,1744.3v0.7h-8.9v-0.7h4v-1h-2.8v-4.2h6.7v0.7h-5.8v1H69v0.7h-5.5v1.1h5.8v0.7h-3v1H70.3z M63.4,1747.6
			h5.9v0.7h-6.8v-2.7h0.9V1747.6z"/>
	</g>
	<path id="패스_4992" class="st3" d="M148,1878.5h46v-80.9h-46V1878.5z"/>
	<g class="st0">
		<path class="st4" d="M160.5,1869.6c1.7-1.5,3.5-2.8,3.5-4.3c0-0.8-0.3-1.3-1.2-1.3c-0.8,0-1.2,0.6-1.3,1.4h-1.1
			c0-1.6,1.1-2.3,2.3-2.3c1.5,0,2.3,0.9,2.3,2.2c0,1.8-1.8,3.1-3,4.2h3.2v1h-4.9V1869.6z"/>
		<path class="st4" d="M168.9,1863.1c2,0,2.6,1.6,2.6,3.7c0,2.1-0.6,3.7-2.6,3.7s-2.6-1.6-2.6-3.7
			C166.3,1864.7,166.9,1863.1,168.9,1863.1z M168.9,1864.1c-1.3,0-1.5,1.3-1.5,2.6c0,1.4,0.1,2.7,1.5,2.7s1.5-1.2,1.5-2.7
			C170.4,1865.4,170.3,1864.1,168.9,1864.1z"/>
		<path class="st4" d="M173.5,1864.3h-0.9v-1h2.1v7.3h-1.1V1864.3z"/>
		<path class="st4" d="M176.4,1865.1c0-1.1,0.8-2,2.4-2c1.6,0,2.4,0.9,2.4,2c0,0.8-0.4,1.3-1,1.6c0.7,0.3,1.2,0.9,1.2,1.8
			c0,1.3-1.1,2.2-2.6,2.2c-1.5,0-2.6-0.9-2.6-2.2c0-0.9,0.5-1.5,1.2-1.8C176.9,1866.4,176.4,1865.9,176.4,1865.1z M177.3,1868.5
			c0,0.7,0.6,1.3,1.5,1.3c0.9,0,1.5-0.5,1.5-1.3c0-0.8-0.6-1.3-1.5-1.3C178,1867.2,177.3,1867.6,177.3,1868.5z M180.1,1865.2
			c0-0.8-0.5-1.2-1.3-1.2c-0.8,0-1.3,0.4-1.3,1.2c0,0.7,0.5,1.1,1.3,1.1C179.6,1866.3,180.1,1865.9,180.1,1865.2z"/>
	</g>
	<g class="st0">
		<path class="st5" d="M165.3,1787.2h-5.8v-1.4l5.4-7.7h2.2v7.5h1.5v1.6h-1.5v2.4h-1.8V1787.2z M165.4,1785.6v-5.7l-3.8,5.7H165.4z"
			/>
		<path class="st5" d="M171.1,1789.7c-0.7,0-1.2-0.5-1.2-1.2s0.5-1.2,1.2-1.2c0.6,0,1.2,0.5,1.2,1.2S171.7,1789.7,171.1,1789.7z"/>
		<path class="st5" d="M178.1,1777.7c3.3,0,4.2,2.6,4.2,5.9c0,3.4-0.9,6-4.2,6s-4.2-2.6-4.2-6
			C173.9,1780.3,174.8,1777.7,178.1,1777.7z M178.1,1779.4c-2.1,0-2.4,2-2.4,4.2c0,2.3,0.2,4.3,2.4,4.3s2.4-2,2.4-4.3
			C180.5,1781.4,180.2,1779.4,178.1,1779.4z"/>
	</g>
	<path id="패스_4991" class="st3" d="M218,1879h46v-97.5h-46V1879z"/>
	<g class="st0">
		<path class="st4" d="M230.5,1869.6c1.7-1.5,3.5-2.8,3.5-4.3c0-0.8-0.3-1.3-1.2-1.3c-0.8,0-1.2,0.6-1.3,1.4h-1.1
			c0-1.6,1.1-2.3,2.3-2.3c1.5,0,2.3,0.9,2.3,2.2c0,1.8-1.8,3.1-3,4.2h3.2v1h-4.9V1869.6z"/>
		<path class="st4" d="M239,1863.1c2,0,2.6,1.6,2.6,3.7c0,2.1-0.6,3.7-2.6,3.7s-2.6-1.6-2.6-3.7
			C236.4,1864.7,236.9,1863.1,239,1863.1z M239,1864.1c-1.3,0-1.5,1.3-1.5,2.6c0,1.4,0.1,2.7,1.5,2.7s1.5-1.2,1.5-2.7
			C240.4,1865.4,240.3,1864.1,239,1864.1z"/>
		<path class="st4" d="M243.5,1864.3h-0.9v-1h2.1v7.3h-1.1V1864.3z"/>
		<path class="st4" d="M247.7,1868.5c0.1,0.6,0.6,1,1.3,1c0.9,0,1.4-0.6,1.4-2.5c-0.3,0.5-1,0.7-1.6,0.7c-1.3,0-2.3-0.8-2.3-2.3
			c0-1.4,0.9-2.4,2.4-2.4c1.9,0,2.5,1.3,2.5,3.7c0,2.5-0.5,3.8-2.4,3.8c-1.5,0-2.2-0.9-2.3-2H247.7z M250.2,1865.5
			c0-0.9-0.5-1.5-1.4-1.5c-0.8,0-1.4,0.6-1.4,1.4c0,0.8,0.4,1.4,1.4,1.4C249.8,1866.8,250.2,1866.3,250.2,1865.5z"/>
	</g>
	<g class="st0">
		<path class="st5" d="M235.8,1771H230v-1.4l5.4-7.7h2.2v7.5h1.5v1.6h-1.5v2.4h-1.8V1771z M235.9,1769.4v-5.7l-3.8,5.7H235.9z"/>
		<path class="st5" d="M241.6,1773.5c-0.7,0-1.2-0.5-1.2-1.2s0.5-1.2,1.2-1.2c0.6,0,1.2,0.5,1.2,1.2S242.2,1773.5,241.6,1773.5z"/>
		<path class="st5" d="M244.3,1771.9c2.8-2.4,5.7-4.5,5.7-6.8c0-1.2-0.5-2-1.9-2c-1.3,0-2,0.9-2,2.2h-1.8c0.1-2.5,1.7-3.8,3.8-3.8
			c2.4,0,3.7,1.4,3.7,3.5c0,2.8-2.9,5-4.8,6.7h5.1v1.5h-7.8V1771.9z"/>
	</g>
	<path id="패스_4989" class="st1" d="M284,1878.6h46v-60h-46V1878.6z"/>
	<g class="st0">
		<path class="st6" d="M295.2,1869.4c1.6-1.4,3.4-2.7,3.4-4c0-0.6-0.3-1.1-1-1.1c-0.7,0-1,0.5-1,1.2h-1.4c0-1.7,1.1-2.4,2.4-2.4
			c1.6,0,2.4,0.9,2.4,2.2c0,1.7-1.6,3-2.8,4h2.9v1.2h-4.9V1869.4z"/>
		<path class="st6" d="M303.8,1863.1c2.1,0,2.7,1.6,2.7,3.7c0,2.1-0.6,3.7-2.7,3.7c-2.1,0-2.7-1.6-2.7-3.7
			C301.1,1864.7,301.7,1863.1,303.8,1863.1z M303.8,1864.4c-1.2,0-1.3,1.1-1.3,2.4c0,1.3,0.1,2.4,1.3,2.4c1.2,0,1.3-1.1,1.3-2.4
			C305.1,1865.5,304.9,1864.4,303.8,1864.4z"/>
		<path class="st6" d="M307.4,1869.4c1.6-1.4,3.4-2.7,3.4-4c0-0.6-0.3-1.1-1-1.1c-0.7,0-1,0.5-1,1.2h-1.4c0-1.7,1.1-2.4,2.4-2.4
			c1.6,0,2.4,0.9,2.4,2.2c0,1.7-1.6,3-2.8,4h2.9v1.2h-4.9V1869.4z"/>
		<path class="st6" d="M316,1863.1c2.1,0,2.7,1.6,2.7,3.7c0,2.1-0.6,3.7-2.7,3.7c-2.1,0-2.7-1.6-2.7-3.7
			C313.3,1864.7,313.9,1863.1,316,1863.1z M316,1864.4c-1.2,0-1.3,1.1-1.3,2.4c0,1.3,0.1,2.4,1.3,2.4c1.2,0,1.3-1.1,1.3-2.4
			C317.3,1865.5,317.1,1864.4,316,1864.4z"/>
	</g>
	<g class="st0">
		<path class="st1" d="M295.9,1808.8c2.6-2.2,5.4-4.3,5.4-6.5c0-1-0.5-1.7-1.6-1.7c-1.1,0-1.7,0.8-1.7,2h-2.2
			c0.1-2.7,1.8-3.9,3.9-3.9c2.5,0,3.8,1.5,3.8,3.5c0,2.7-2.6,4.8-4.5,6.4h4.7v1.9h-7.9V1808.8z"/>
		<path class="st1" d="M306.5,1810.7c-0.8,0-1.4-0.6-1.4-1.3s0.6-1.3,1.4-1.3c0.8,0,1.4,0.6,1.4,1.3S307.3,1810.7,306.5,1810.7z"/>
		<path class="st1" d="M315.5,1801.8c-0.2-0.9-0.7-1.3-1.7-1.3c-1.5,0-2.1,1.1-2.2,3.8c0.5-0.9,1.6-1.4,2.7-1.4
			c2.1,0,3.5,1.4,3.5,3.8c0,2.3-1.4,3.9-3.9,3.9c-3.5,0-4.3-2.4-4.3-6.1c0-3.8,1.2-5.9,4.2-5.9c2.4,0,3.5,1.5,3.7,3.2H315.5z
			 M311.8,1806.7c0,1.2,0.7,2,2,2c1.2,0,1.9-0.8,1.9-2c0-1.2-0.6-2-1.9-2C312.8,1804.8,311.8,1805.4,311.8,1806.7z"/>
	</g>
	<path id="패스_4990" class="st7" d="M20,1878.7h335"/>
</g>
</svg>
