<?xml version="1.0" encoding="utf-8"?>
<!-- Generator: Adobe Illustrator 25.1.0, SVG Export Plug-In . SVG Version: 6.00 Build 0)  -->
<svg version="1.1" id="레이어_1" xmlns="http://www.w3.org/2000/svg" xmlns:xlink="http://www.w3.org/1999/xlink" x="0px"
	 y="0px" viewBox="0 0 335 168.4" style="enable-background:new 0 0 335 168.4;" xml:space="preserve">
<style type="text/css">
	.st0{enable-background:new    ;}
	.st1{fill:#DF1C2F;}
	.st2{fill:#929397;}
	.st3{fill:#E2E2E2;}
	.st4{fill:#808080;}
	.st5{fill:#A3A3A3;}
	.st6{fill:#FFFFFF;}
	.st7{fill:none;stroke:#D5D5D5;}
</style>
<g id="그룹_5722" transform="translate(-20 -1533.031)">
	<g class="st0">
		<path class="st1" d="M25.8,1545.7c0.4,0,0.7-0.1,1-0.1l0.1,1.3c-2,0.4-4.5,0.4-6.2,0.4l-0.2-1.5h1v-5.6h-0.8v-1.5h5.9v1.5h-0.8
			V1545.7z M23.2,1545.8c0.3,0,0.6,0,1,0v-5.5h-1V1545.8z M27.5,1537.6h1.7v12h-1.7v-4.7h-1.2v-1.5h1.2v-1.1h-1.2v-1.5h1.2V1537.6z
			 M31.8,1537.3v12.9H30v-12.9H31.8z"/>
		<path class="st1" d="M45.2,1545.9h-4.9v4.4h-1.8v-4.4h-4.9v-1.5h11.7V1545.9z M44,1543.4c-2.3-0.3-3.9-1.4-4.7-2.8
			c-0.8,1.4-2.5,2.4-4.7,2.8l-0.7-1.5c2.9-0.4,4.4-2.1,4.4-3.6v-0.6h2v0.6c0,1.5,1.5,3.2,4.4,3.6L44,1543.4z"/>
		<path class="st1" d="M56.1,1543.6h-6.2v-5.7h1.8v1.5h2.5v-1.5h1.8V1543.6z M53,1548.7h7v1.4h-8.9v-3.6h6.7v-0.8h-6.7v-1.4h8.5v3.5
			H53V1548.7z M54.3,1540.8h-2.5v1.3h2.5V1540.8z M61.4,1539.8v1.5h-1.7v2.6h-1.8v-6.6h1.8v2.5H61.4z"/>
		<path class="st1" d="M67.9,1544.5c-1.1-0.4-1.8-1.2-2.3-2.1c-0.5,1.1-1.3,2-2.5,2.5l-1-1.4c1.8-0.8,2.5-2.4,2.5-3.8v-1.5h1.8v1.5
			c0,1.4,0.7,2.8,2.4,3.5L67.9,1544.5z M73.5,1547.8c0,1.5-1.7,2.4-4.4,2.4c-2.7,0-4.5-0.9-4.5-2.4c0-1.5,1.7-2.4,4.5-2.4
			C71.7,1545.4,73.5,1546.3,73.5,1547.8z M71.6,1547.8c0-0.7-0.9-1-2.6-1c-1.7,0-2.6,0.3-2.6,1c0,0.7,0.9,1,2.6,1
			C70.7,1548.8,71.6,1548.5,71.6,1547.8z M70.7,1544.8h-1.7v-7.2h1.7v2.9h1v-3.1h1.8v7.9h-1.8v-3.3h-1V1544.8z"/>
		<path class="st1" d="M79.8,1540.6v-1h-4.1v-1.5h5.9v3.9h-4v1.1c2.1,0,3.5-0.1,5.1-0.4l0.2,1.5c-1.8,0.3-3.4,0.4-6,0.4h-1.1v-4
			H79.8z M85.6,1547.8c0,1.5-1.7,2.5-4.4,2.5s-4.4-0.9-4.4-2.5c0-1.6,1.7-2.5,4.4-2.5S85.6,1546.2,85.6,1547.8z M83.8,1547.8
			c0-0.7-0.9-1-2.5-1c-1.7,0-2.5,0.3-2.5,1c0,0.7,0.9,1,2.5,1C82.9,1548.8,83.8,1548.5,83.8,1547.8z M85.5,1540.6v1.2h1.7v1.5h-1.7
			v1.8h-1.8v-7.8h1.8v1.7h1.7v1.5H85.5z"/>
	</g>
	<g class="st0">
		<path class="st2" d="M26.4,1566c-1.4,0.3-2.5,0.3-4.6,0.3H21v-4.5h4.4v0.7h-3.5v3.1c1.9,0,3.1-0.1,4.4-0.3L26.4,1566z M23,1569.9
			h5.7v0.7h-6.6v-3.2H23V1569.9z M29.7,1563.9v0.7h-1.5v3.5h-0.9v-7.1h0.9v2.9H29.7z"/>
		<path class="st2" d="M37.3,1566.7c-0.9,0.2-1.9,0.3-2.8,0.3v3.6h-0.9v-3.5c-1,0-1.9,0.1-2.7,0.1l-0.1-0.8c1.8,0,4.3,0,6.5-0.4
			L37.3,1566.7z M31.4,1563.5c0-1.2,1-2,2.5-2c1.5,0,2.5,0.8,2.5,2c0,1.2-1,2-2.5,2C32.5,1565.5,31.4,1564.7,31.4,1563.5z
			 M32.3,1563.5c0,0.8,0.7,1.3,1.6,1.3c1,0,1.6-0.5,1.6-1.3c0-0.8-0.7-1.3-1.6-1.3C33,1562.2,32.3,1562.7,32.3,1563.5z M38.8,1561
			v9.9h-0.9v-9.9H38.8z"/>
		<path class="st2" d="M43.5,1565c0-0.5,0.3-0.8,0.7-0.8s0.7,0.3,0.7,0.8c0,0.4-0.3,0.8-0.7,0.8S43.5,1565.4,43.5,1565z
			 M43.5,1569.4c0-0.5,0.3-0.8,0.7-0.8s0.7,0.3,0.7,0.8c0,0.5-0.3,0.8-0.7,0.8S43.5,1569.9,43.5,1569.4z"/>
		<path class="st2" d="M53.7,1566.4h-4.5v-4.6h4.5V1566.4z M52.9,1562.6h-2.8v3.1h2.8V1562.6z M51.2,1569.9h5.7v0.7h-6.6v-3.1h0.9
			V1569.9z M57.9,1564v0.8h-1.5v3.5h-0.9v-7.2h0.9v3H57.9z"/>
		<path class="st2" d="M70.3,1566.6v0.7h-8.9v-0.7h4v-1h-2.8v-4.2h6.7v0.7h-5.8v1H69v0.7h-5.5v1.1h5.8v0.7h-3v1H70.3z M63.4,1569.9
			h5.9v0.7h-6.8v-2.7h0.9V1569.9z"/>
	</g>
	<path id="패스_4981" class="st3" d="M148,1700.8h46v-98.3h-46V1700.8z"/>
	<g class="st0">
		<path class="st4" d="M160.5,1691.9c1.7-1.5,3.5-2.8,3.5-4.3c0-0.8-0.3-1.3-1.2-1.3c-0.8,0-1.2,0.6-1.3,1.4h-1.1
			c0-1.6,1.1-2.3,2.3-2.3c1.5,0,2.3,0.9,2.3,2.2c0,1.8-1.8,3.1-3,4.2h3.2v1h-4.9V1691.9z"/>
		<path class="st4" d="M168.9,1685.4c2,0,2.6,1.6,2.6,3.7c0,2.1-0.6,3.7-2.6,3.7s-2.6-1.6-2.6-3.7
			C166.3,1687,166.9,1685.4,168.9,1685.4z M168.9,1686.4c-1.3,0-1.5,1.3-1.5,2.6c0,1.4,0.1,2.7,1.5,2.7s1.5-1.2,1.5-2.7
			C170.4,1687.7,170.3,1686.4,168.9,1686.4z"/>
		<path class="st4" d="M173.5,1686.5h-0.9v-1h2.1v7.3h-1.1V1686.5z"/>
		<path class="st4" d="M176.4,1687.3c0-1.1,0.8-2,2.4-2c1.6,0,2.4,0.9,2.4,2c0,0.8-0.4,1.3-1,1.6c0.7,0.3,1.2,0.9,1.2,1.8
			c0,1.3-1.1,2.2-2.6,2.2c-1.5,0-2.6-0.9-2.6-2.2c0-0.9,0.5-1.5,1.2-1.8C176.9,1688.7,176.4,1688.2,176.4,1687.3z M177.3,1690.7
			c0,0.7,0.6,1.3,1.5,1.3c0.9,0,1.5-0.5,1.5-1.3c0-0.8-0.6-1.3-1.5-1.3C178,1689.5,177.3,1689.9,177.3,1690.7z M180.1,1687.5
			c0-0.8-0.5-1.2-1.3-1.2c-0.8,0-1.3,0.4-1.3,1.2c0,0.7,0.5,1.1,1.3,1.1C179.6,1688.6,180.1,1688.1,180.1,1687.5z"/>
	</g>
	<g class="st0">
		<path class="st5" d="M157.4,1593c2.8-2.4,5.7-4.5,5.7-6.8c0-1.2-0.5-2-1.9-2c-1.3,0-2,0.9-2,2.2h-1.8c0.1-2.5,1.7-3.8,3.8-3.8
			c2.4,0,3.7,1.4,3.7,3.5c0,2.8-2.9,5-4.8,6.7h5.1v1.5h-7.8V1593z"/>
		<path class="st5" d="M173.1,1585.6c-0.2-0.9-0.8-1.5-1.9-1.5c-1.6,0-2.5,1.1-2.5,4.2c0.6-1,1.7-1.5,2.9-1.5c2.1,0,3.6,1.4,3.6,3.8
			c0,2.2-1.3,3.9-3.8,3.9c-3.4,0-4.3-2.4-4.3-6.1c0-3.6,1.2-5.9,4.1-5.9c2.3,0,3.4,1.4,3.6,3H173.1z M168.8,1590.6
			c0,1.4,0.8,2.4,2.4,2.4c1.3,0,2.2-0.9,2.2-2.3c0-1.4-0.7-2.4-2.2-2.4C170,1588.3,168.8,1589.1,168.8,1590.6z"/>
		<path class="st5" d="M177,1593c2.8-2.4,5.7-4.5,5.7-6.8c0-1.2-0.5-2-1.9-2c-1.3,0-2,0.9-2,2.2h-1.8c0.1-2.5,1.7-3.8,3.8-3.8
			c2.4,0,3.7,1.4,3.7,3.5c0,2.8-2.9,5-4.8,6.7h5.1v1.5H177V1593z"/>
	</g>
	<path id="패스_4983" class="st3" d="M218,1701.2h46v-81.7h-46V1701.2z"/>
	<g class="st0">
		<path class="st4" d="M230.5,1691.9c1.7-1.5,3.5-2.8,3.5-4.3c0-0.8-0.3-1.3-1.2-1.3c-0.8,0-1.2,0.6-1.3,1.4h-1.1
			c0-1.6,1.1-2.3,2.3-2.3c1.5,0,2.3,0.9,2.3,2.2c0,1.8-1.8,3.1-3,4.2h3.2v1h-4.9V1691.9z"/>
		<path class="st4" d="M239,1685.4c2,0,2.6,1.6,2.6,3.7c0,2.1-0.6,3.7-2.6,3.7s-2.6-1.6-2.6-3.7C236.4,1687,236.9,1685.4,239,1685.4
			z M239,1686.4c-1.3,0-1.5,1.3-1.5,2.6c0,1.4,0.1,2.7,1.5,2.7s1.5-1.2,1.5-2.7C240.4,1687.7,240.3,1686.4,239,1686.4z"/>
		<path class="st4" d="M243.5,1686.5h-0.9v-1h2.1v7.3h-1.1V1686.5z"/>
		<path class="st4" d="M247.7,1690.8c0.1,0.6,0.6,1,1.3,1c0.9,0,1.4-0.6,1.4-2.5c-0.3,0.5-1,0.7-1.6,0.7c-1.3,0-2.3-0.8-2.3-2.3
			c0-1.4,0.9-2.4,2.4-2.4c1.9,0,2.5,1.3,2.5,3.7c0,2.5-0.5,3.8-2.4,3.8c-1.5,0-2.2-0.9-2.3-2H247.7z M250.2,1687.7
			c0-0.9-0.5-1.5-1.4-1.5c-0.8,0-1.4,0.6-1.4,1.4c0,0.8,0.4,1.4,1.4,1.4C249.8,1689.1,250.2,1688.6,250.2,1687.7z"/>
	</g>
	<g class="st0">
		<path class="st5" d="M227.4,1610c2.8-2.4,5.7-4.5,5.7-6.8c0-1.2-0.5-2-1.9-2c-1.3,0-2,0.9-2,2.2h-1.8c0.1-2.5,1.7-3.8,3.8-3.8
			c2.4,0,3.7,1.4,3.7,3.5c0,2.8-2.9,5-4.8,6.7h5.1v1.5h-7.8V1610z"/>
		<path class="st5" d="M240.5,1599.6c2.3,0,3.6,1.3,3.6,3c0,1.4-0.9,2.3-1.8,2.6v0.1c1.2,0.4,2,1.4,2,3c0,1.9-1.3,3.3-3.7,3.3
			c-2.2,0-3.9-1.2-4-3.4h1.8c0.1,1.1,0.9,1.9,2.3,1.9c1.4,0,2-0.8,2-1.9c0-1.5-1-2.1-2.9-2.1h-0.4v-1.5h0.4c1.6,0,2.7-0.5,2.7-1.7
			c0-1-0.7-1.7-1.9-1.7c-1.3,0-1.9,0.8-2,1.6h-1.8C236.8,1600.7,238.4,1599.6,240.5,1599.6z"/>
		<path class="st5" d="M248.5,1608.4c0.2,1,0.9,1.6,2.1,1.6c1.5,0,2.2-1,2.2-4c-0.5,0.7-1.5,1.1-2.6,1.1c-2,0-3.7-1.3-3.7-3.7
			c0-2.3,1.4-3.9,3.9-3.9c3,0,4,2.1,4,5.9c0,3.9-0.8,6-3.9,6c-2.4,0-3.5-1.5-3.7-3.2H248.5z M252.6,1603.4c0-1.5-0.8-2.3-2.2-2.3
			c-1.4,0-2.2,0.9-2.2,2.3c0,1.2,0.7,2.2,2.3,2.2C251.9,1605.6,252.6,1604.8,252.6,1603.4z"/>
	</g>
	<path id="패스_4985" class="st1" d="M284,1700.8h46v-60.3h-46V1700.8z"/>
	<g class="st0">
		<path class="st6" d="M295.2,1691.7c1.6-1.4,3.4-2.7,3.4-4c0-0.6-0.3-1.1-1-1.1c-0.7,0-1,0.5-1,1.2h-1.4c0-1.7,1.1-2.4,2.4-2.4
			c1.6,0,2.4,0.9,2.4,2.2c0,1.7-1.6,3-2.8,4h2.9v1.2h-4.9V1691.7z"/>
		<path class="st6" d="M303.8,1685.4c2.1,0,2.7,1.6,2.7,3.7c0,2.1-0.6,3.7-2.7,3.7c-2.1,0-2.7-1.6-2.7-3.7
			C301.1,1686.9,301.7,1685.4,303.8,1685.4z M303.8,1686.7c-1.2,0-1.3,1.1-1.3,2.4c0,1.3,0.1,2.4,1.3,2.4c1.2,0,1.3-1.1,1.3-2.4
			C305.1,1687.8,304.9,1686.7,303.8,1686.7z"/>
		<path class="st6" d="M307.4,1691.7c1.6-1.4,3.4-2.7,3.4-4c0-0.6-0.3-1.1-1-1.1c-0.7,0-1,0.5-1,1.2h-1.4c0-1.7,1.1-2.4,2.4-2.4
			c1.6,0,2.4,0.9,2.4,2.2c0,1.7-1.6,3-2.8,4h2.9v1.2h-4.9V1691.7z"/>
		<path class="st6" d="M316,1685.4c2.1,0,2.7,1.6,2.7,3.7c0,2.1-0.6,3.7-2.7,3.7c-2.1,0-2.7-1.6-2.7-3.7
			C313.3,1686.9,313.9,1685.4,316,1685.4z M316,1686.7c-1.2,0-1.3,1.1-1.3,2.4c0,1.3,0.1,2.4,1.3,2.4c1.2,0,1.3-1.1,1.3-2.4
			C317.3,1687.8,317.1,1686.7,316,1686.7z"/>
	</g>
	<g class="st0">
		<path class="st1" d="M295.6,1630.7c2.6-2.2,5.4-4.3,5.4-6.5c0-1-0.5-1.7-1.6-1.7c-1.1,0-1.7,0.8-1.7,2h-2.2
			c0.1-2.7,1.8-3.9,3.9-3.9c2.5,0,3.8,1.5,3.8,3.5c0,2.7-2.6,4.8-4.5,6.4h4.7v1.9h-7.9V1630.7z"/>
		<path class="st1" d="M304.8,1630.7c2.6-2.2,5.4-4.3,5.4-6.5c0-1-0.5-1.7-1.6-1.7c-1.1,0-1.7,0.8-1.7,2h-2.2
			c0.1-2.7,1.8-3.9,3.9-3.9c2.5,0,3.8,1.5,3.8,3.5c0,2.7-2.6,4.8-4.5,6.4h4.7v1.9h-7.9V1630.7z"/>
		<path class="st1" d="M315.4,1622.9h-1.6v-2.1h3.9v11.7h-2.3V1622.9z"/>
	</g>
	<path id="패스_4988" class="st7" d="M20,1701h335"/>
</g>
</svg>
