<?xml version="1.0" encoding="utf-8"?>
<!-- Generator: Adobe Illustrator 25.1.0, SVG Export Plug-In . SVG Version: 6.00 Build 0)  -->
<svg version="1.1" id="레이어_1" xmlns="http://www.w3.org/2000/svg" xmlns:xlink="http://www.w3.org/1999/xlink" x="0px"
	 y="0px" viewBox="0 0 208 332.7" style="enable-background:new 0 0 208 332.7;" xml:space="preserve">
<style type="text/css">
	.st0{enable-background:new    ;}
	.st1{fill:#929397;}
	.st2{fill:#A3A3A3;}
	.st3{fill:#DF1C2F;}
	.st4{fill:#E2E2E2;}
	.st5{fill:#42454A;}
	.st6{fill:#FFFFFF;}
</style>
<g id="그룹_5882" transform="translate(-1403 -1659)">
	<g class="st0">
		<path class="st1" d="M1482.7,1705.7c-1.7,0.3-3.2,0.4-5.8,0.4h-1v-5.8h5.6v0.9h-4.4v3.9c2.5,0,3.9-0.1,5.5-0.4L1482.7,1705.7z
			 M1478.4,1710.6h7.2v0.9h-8.4v-4.1h1.1V1710.6z M1486.9,1703v1h-1.9v4.4h-1.1v-9.1h1.1v3.7H1486.9z"/>
		<path class="st1" d="M1496.6,1706.5c-1.2,0.2-2.4,0.4-3.6,0.4v4.5h-1.1v-4.5c-1.2,0.1-2.4,0.1-3.5,0.1l-0.2-1c2.3,0,5.5,0,8.3-0.4
			L1496.6,1706.5z M1489.1,1702.5c0-1.5,1.3-2.6,3.2-2.6c1.9,0,3.2,1,3.2,2.6c0,1.5-1.3,2.6-3.2,2.6
			C1490.5,1705,1489.1,1704,1489.1,1702.5z M1490.2,1702.5c0,1,0.9,1.6,2.1,1.6c1.2,0,2.1-0.7,2.1-1.6s-0.9-1.6-2.1-1.6
			C1491.1,1700.8,1490.2,1701.5,1490.2,1702.5z M1498.5,1699.3v12.6h-1.1v-12.6H1498.5z"/>
		<path class="st1" d="M1504.5,1704.4c0-0.6,0.4-1,0.9-1c0.5,0,0.9,0.4,0.9,1c0,0.6-0.4,1-0.9,1
			C1504.9,1705.3,1504.5,1704.9,1504.5,1704.4z M1504.5,1710c0-0.6,0.4-1,0.9-1c0.5,0,0.9,0.4,0.9,1s-0.4,1-0.9,1
			C1504.9,1711,1504.5,1710.6,1504.5,1710z"/>
		<path class="st1" d="M1517.5,1706.2h-5.8v-5.8h5.8V1706.2z M1516.4,1701.3h-3.5v4h3.5V1701.3z M1514.3,1710.6h7.2v0.9h-8.4v-4h1.1
			V1710.6z M1522.9,1703.1v1h-1.9v4.4h-1.1v-9.2h1.1v3.8H1522.9z"/>
		<path class="st1" d="M1538.6,1706.4v0.9h-11.4v-0.9h5.1v-1.3h-3.6v-5.3h8.5v0.9h-7.3v1.3h7v0.9h-7v1.3h7.4v0.9h-3.8v1.3H1538.6z
			 M1529.9,1710.6h7.6v0.9h-8.7v-3.4h1.1V1710.6z"/>
	</g>
	<g class="st0">
		<path class="st2" d="M1423.2,1833.5h-8v-1.9l7.4-10.6h3v10.3h2v2.2h-2v3.3h-2.5V1833.5z M1423.3,1831.4v-7.8l-5.2,7.8H1423.3z"/>
		<path class="st2" d="M1431.1,1837c-0.9,0-1.6-0.7-1.6-1.6s0.7-1.6,1.6-1.6c0.9,0,1.6,0.7,1.6,1.6S1432,1837,1431.1,1837z"/>
		<path class="st2" d="M1440.8,1820.6c4.5,0,5.7,3.5,5.7,8.1c0,4.7-1.2,8.2-5.7,8.2s-5.7-3.5-5.7-8.2
			C1435,1824.1,1436.3,1820.6,1440.8,1820.6z M1440.8,1822.9c-2.9,0-3.3,2.8-3.3,5.8c0,3.1,0.3,5.9,3.3,5.9s3.3-2.8,3.3-5.9
			C1444,1825.7,1443.7,1822.9,1440.8,1822.9z"/>
	</g>
	<g class="st0">
		<path class="st2" d="M1499.9,1820.5h-8v-1.9l7.4-10.6h3v10.3h2v2.2h-2v3.3h-2.5V1820.5z M1500,1818.4v-7.8l-5.2,7.8H1500z"/>
		<path class="st2" d="M1507.8,1824c-0.9,0-1.6-0.7-1.6-1.6s0.7-1.6,1.6-1.6c0.9,0,1.6,0.7,1.6,1.6S1508.7,1824,1507.8,1824z"/>
		<path class="st2" d="M1511.5,1821.8c3.8-3.3,7.8-6.2,7.8-9.4c0-1.7-0.7-2.8-2.6-2.8c-1.8,0-2.7,1.2-2.8,3h-2.4
			c0.1-3.5,2.3-5.2,5.2-5.2c3.3,0,5.1,2,5.1,4.8c0,3.9-4,6.9-6.5,9.2h7v2.1h-10.7V1821.8z"/>
	</g>
	<g class="st0">
		<path class="st3" d="M1567.8,1868.4c3.6-3.1,7.4-5.9,7.4-8.9c0-1.4-0.6-2.4-2.2-2.4c-1.5,0-2.3,1.1-2.3,2.8h-3
			c0.1-3.7,2.5-5.4,5.3-5.4c3.5,0,5.2,2,5.2,4.8c0,3.7-3.6,6.6-6.1,8.8h6.5v2.6h-10.9V1868.4z"/>
		<path class="st3" d="M1582.3,1871c-1.1,0-1.9-0.8-1.9-1.8c0-1,0.8-1.8,1.9-1.8c1.1,0,1.9,0.8,1.9,1.8
			C1584.2,1870.3,1583.4,1871,1582.3,1871z"/>
		<path class="st3" d="M1594.6,1858.9c-0.3-1.2-0.9-1.8-2.3-1.8c-2,0-2.9,1.5-3,5.2c0.7-1.2,2.2-1.9,3.7-1.9c2.9,0,4.9,1.9,4.9,5.2
			c0,3.1-1.9,5.4-5.3,5.4c-4.8,0-5.9-3.3-5.9-8.3c0-5.2,1.7-8.1,5.8-8.1c3.3,0,4.8,2.1,5.1,4.4H1594.6z M1589.6,1865.5
			c0,1.7,1,2.8,2.8,2.8c1.6,0,2.6-1,2.6-2.7s-0.9-2.8-2.6-2.8C1590.9,1862.9,1589.6,1863.7,1589.6,1865.5z"/>
	</g>
	<g class="st0">
		<path class="st3" d="M1457.8,1677.2c0.5,0,1-0.1,1.4-0.1l0.2,1.9c-2.8,0.5-6.5,0.6-8.8,0.6l-0.3-2.1h1.5v-8h-1.2v-2.1h8.4v2.1
			h-1.2V1677.2z M1454,1677.4c0.4,0,0.9,0,1.4-0.1v-7.9h-1.4V1677.4z M1460.2,1665.7h2.5v17.2h-2.5v-6.7h-1.7v-2.1h1.7v-1.6h-1.7
			v-2.1h1.7V1665.7z M1466.4,1665.3v18.4h-2.5v-18.4H1466.4z"/>
		<path class="st3" d="M1478.7,1667.2c0,5.6-1.9,10.2-8.4,13.4l-1.4-2.1c4.7-2.3,6.7-5.1,7.1-9.2h-6.1v-2.1H1478.7z M1484.1,1665.3
			v18.4h-2.7v-18.4H1484.1z"/>
		<path class="st3" d="M1496.8,1674.7v1.2h5v4.7h-10.1v1h10.6v2h-13.2v-4.8h10.1v-1h-10.1v-1.9h5.1v-1.2h-7v-2.1h16.6v2.1H1496.8z
			 M1501.7,1671.6h-12.5v-5.8h12.5V1671.6z M1499.1,1667.9h-7.3v1.7h7.3V1667.9z"/>
		<path class="st3" d="M1519.5,1674.2h-8.8v-8.1h2.6v2.2h3.6v-2.2h2.6V1674.2z M1515.1,1681.5h10v2h-12.7v-5.1h9.5v-1.1h-9.6v-2
			h12.2v5h-9.5V1681.5z M1516.9,1670.3h-3.6v1.8h3.6V1670.3z M1527.1,1668.9v2.1h-2.4v3.7h-2.6v-9.4h2.6v3.6H1527.1z"/>
		<path class="st3" d="M1536.4,1675.5c-1.5-0.6-2.6-1.7-3.2-3c-0.7,1.6-1.8,2.9-3.5,3.6l-1.4-2c2.6-1.1,3.6-3.4,3.6-5.5v-2.1h2.5
			v2.1c0,2,1,4,3.4,4.9L1536.4,1675.5z M1544.3,1680.3c0,2.2-2.5,3.5-6.3,3.5c-3.9,0-6.4-1.3-6.4-3.5c0-2.1,2.5-3.4,6.4-3.4
			C1541.9,1676.8,1544.3,1678.1,1544.3,1680.3z M1541.7,1680.3c0-1-1.3-1.5-3.7-1.5c-2.4,0-3.7,0.5-3.7,1.5c0,1,1.3,1.5,3.7,1.5
			C1540.4,1681.7,1541.7,1681.3,1541.7,1680.3z M1540.3,1676h-2.5v-10.3h2.5v4.1h1.4v-4.5h2.5v11.3h-2.5v-4.7h-1.4V1676z"/>
		<path class="st3" d="M1553.4,1670v-1.5h-5.8v-2.1h8.4v5.5h-5.8v1.6c3,0,5-0.1,7.3-0.6l0.2,2.1c-2.6,0.5-4.9,0.6-8.6,0.6h-1.6v-5.7
			H1553.4z M1561.6,1680.2c0,2.2-2.4,3.5-6.2,3.5s-6.2-1.3-6.2-3.5c0-2.2,2.4-3.5,6.2-3.5S1561.6,1678,1561.6,1680.2z M1559,1680.2
			c0-1-1.2-1.5-3.6-1.5c-2.4,0-3.6,0.5-3.6,1.5c0,1,1.2,1.5,3.6,1.5C1557.8,1681.7,1559,1681.3,1559,1680.2z M1561.4,1669.9v1.7h2.4
			v2.1h-2.4v2.6h-2.6v-11.1h2.6v2.5h2.4v2.1H1561.4z"/>
	</g>
	<path id="패스_2707" class="st4" d="M1403,1991.7h56v-138.1h-56V1991.7z"/>
	<path id="패스_2708" class="st4" d="M1479,1991.7h56v-153.3h-56V1991.7z"/>
	<path id="패스_2709" class="st3" d="M1555,1991.7h56v-106.1h-56V1991.7z"/>
	<g class="st0">
		<path class="st5" d="M1417.3,1977c2.2-2,4.6-3.7,4.6-5.5c0-1-0.4-1.7-1.5-1.7c-1,0-1.6,0.7-1.6,1.8h-1.4c0.1-2.1,1.4-3.1,3.1-3.1
			c1.9,0,3,1.2,3,2.9c0,2.3-2.3,4.1-3.9,5.4h4.1v1.2h-6.3V1977z"/>
		<path class="st5" d="M1428.3,1968.6c2.7,0,3.4,2.1,3.4,4.8c0,2.8-0.7,4.8-3.4,4.8s-3.4-2.1-3.4-4.8
			C1424.9,1970.6,1425.7,1968.6,1428.3,1968.6z M1428.3,1969.9c-1.7,0-1.9,1.7-1.9,3.4c0,1.9,0.2,3.5,1.9,3.5s1.9-1.6,1.9-3.5
			C1430.2,1971.6,1430.1,1969.9,1428.3,1969.9z"/>
		<path class="st5" d="M1434.3,1970.1h-1.2v-1.4h2.7v9.5h-1.5V1970.1z"/>
		<path class="st5" d="M1438.1,1971.1c0-1.4,1-2.6,3.1-2.6c2.1,0,3.1,1.2,3.1,2.6c0,1-0.6,1.8-1.4,2.1c1,0.4,1.6,1.2,1.6,2.3
			c0,1.7-1.4,2.8-3.4,2.8c-1.9,0-3.4-1.1-3.4-2.8c0-1.1,0.6-2,1.6-2.3C1438.6,1972.8,1438.1,1972.2,1438.1,1971.1z M1439.3,1975.5
			c0,1,0.7,1.7,1.9,1.7c1.2,0,1.9-0.7,1.9-1.7c0-1.1-0.8-1.6-1.9-1.6C1440.1,1973.9,1439.3,1974.4,1439.3,1975.5z M1442.9,1971.3
			c0-1-0.7-1.5-1.7-1.5c-1,0-1.7,0.5-1.7,1.5c0,0.9,0.7,1.5,1.7,1.5C1442.2,1972.8,1442.9,1972.2,1442.9,1971.3z"/>
	</g>
	<g class="st0">
		<path class="st5" d="M1493.3,1977c2.2-2,4.6-3.7,4.6-5.5c0-1-0.4-1.7-1.5-1.7c-1,0-1.6,0.7-1.6,1.8h-1.4c0.1-2.1,1.4-3.1,3.1-3.1
			c1.9,0,3,1.2,3,2.9c0,2.3-2.3,4.1-3.9,5.4h4.1v1.2h-6.3V1977z"/>
		<path class="st5" d="M1504.3,1968.6c2.7,0,3.4,2.1,3.4,4.8c0,2.8-0.7,4.8-3.4,4.8s-3.4-2.1-3.4-4.8
			C1501,1970.6,1501.7,1968.6,1504.3,1968.6z M1504.3,1969.9c-1.7,0-1.9,1.7-1.9,3.4c0,1.9,0.2,3.5,1.9,3.5s1.9-1.6,1.9-3.5
			C1506.3,1971.6,1506.1,1969.9,1504.3,1969.9z"/>
		<path class="st5" d="M1510.3,1970.1h-1.2v-1.4h2.7v9.5h-1.5V1970.1z"/>
		<path class="st5" d="M1515.7,1975.6c0.2,0.8,0.7,1.3,1.7,1.3c1.2,0,1.8-0.8,1.8-3.2c-0.4,0.6-1.2,0.9-2.1,0.9c-1.7,0-3-1-3-3
			c0-1.9,1.2-3.1,3.1-3.1c2.4,0,3.3,1.7,3.3,4.8c0,3.2-0.7,4.9-3.2,4.9c-2,0-2.9-1.2-3-2.6H1515.7z M1519,1971.6
			c0-1.2-0.7-1.9-1.8-1.9c-1.1,0-1.8,0.8-1.8,1.9c0,1,0.5,1.8,1.9,1.8C1518.4,1973.4,1519,1972.7,1519,1971.6z"/>
	</g>
	<g class="st0">
		<path class="st6" d="M1567.7,1976.7c2.1-1.8,4.4-3.5,4.4-5.2c0-0.8-0.4-1.4-1.3-1.4c-0.9,0-1.4,0.6-1.4,1.6h-1.8
			c0.1-2.2,1.5-3.2,3.2-3.2c2,0,3.1,1.2,3.1,2.9c0,2.2-2.1,3.9-3.6,5.2h3.8v1.5h-6.4V1976.7z"/>
		<path class="st6" d="M1578.8,1968.5c2.7,0,3.5,2.1,3.5,4.8c0,2.8-0.8,4.8-3.5,4.8c-2.7,0-3.5-2.1-3.5-4.8
			C1575.3,1970.6,1576.1,1968.5,1578.8,1968.5z M1578.8,1970.2c-1.5,0-1.7,1.5-1.7,3.1c0,1.7,0.2,3.1,1.7,3.1s1.7-1.5,1.7-3.1
			C1580.5,1971.7,1580.3,1970.2,1578.8,1970.2z"/>
		<path class="st6" d="M1583.6,1976.7c2.1-1.8,4.4-3.5,4.4-5.2c0-0.8-0.4-1.4-1.3-1.4c-0.9,0-1.4,0.6-1.4,1.6h-1.8
			c0.1-2.2,1.5-3.2,3.2-3.2c2,0,3.1,1.2,3.1,2.9c0,2.2-2.1,3.9-3.6,5.2h3.8v1.5h-6.4V1976.7z"/>
		<path class="st6" d="M1594.7,1968.5c2.7,0,3.5,2.1,3.5,4.8c0,2.8-0.8,4.8-3.5,4.8c-2.7,0-3.5-2.1-3.5-4.8
			C1591.2,1970.6,1592,1968.5,1594.7,1968.5z M1594.7,1970.2c-1.5,0-1.7,1.5-1.7,3.1c0,1.7,0.2,3.1,1.7,3.1s1.7-1.5,1.7-3.1
			C1596.4,1971.7,1596.2,1970.2,1594.7,1970.2z"/>
	</g>
</g>
</svg>
