<?xml version="1.0" encoding="utf-8"?>
<!-- Generator: Adobe Illustrator 25.1.0, SVG Export Plug-In . SVG Version: 6.00 Build 0)  -->
<svg version="1.1" id="레이어_1" xmlns="http://www.w3.org/2000/svg" xmlns:xlink="http://www.w3.org/1999/xlink" x="0px"
	 y="0px" viewBox="0 0 335 139.6" style="enable-background:new 0 0 335 139.6;" xml:space="preserve">
<style type="text/css">
	.st0{fill:none;}
	.st1{fill:none;stroke:#D5D5D5;}
	.st2{enable-background:new    ;}
	.st3{fill:#555555;}
	.st4{fill:#FFF8F8;}
	.st5{fill:#DF1C2F;}
</style>
<g id="그룹_5694" transform="translate(-20 -2351.725)">
	<g id="사각형_515" transform="translate(20 2351.725)">
		<rect y="0" class="st0" width="335" height="139.6"/>
		<rect x="0.5" y="0.5" class="st1" width="334" height="138.6"/>
	</g>
	<g class="st2">
		<path class="st3" d="M43.6,2418.5c0-1.1,0.8-1.8,1.6-1.8c0.9,0,1.6,0.7,1.6,1.8c0,1-0.8,1.7-1.6,1.7
			C44.3,2420.2,43.6,2419.5,43.6,2418.5z"/>
		<path class="st3" d="M58.5,2418.6c-1.4-0.4-2.4-1.4-3-2.5c-0.5,1.3-1.6,2.3-3,2.8l-0.5-0.8c1.7-0.6,2.9-2,2.9-3.7v-0.3h-2.7v-0.9
			H55v-1.5h1.1v1.5h2.6v0.9h-2.6v0.3c0,1.5,1.2,2.9,3,3.4L58.5,2418.6z M61.8,2422.1v0.9h-7.9v-3.6H55v2.7H61.8z M61.4,2420.2h-1.1
			v-8.6h1.1V2420.2z"/>
		<path class="st3" d="M71.6,2418.9c-2.5,0.5-5.3,0.5-7.3,0.5l-0.1-0.9c0.9,0,2,0,3.1-0.1v-0.9c-1.3-0.1-2.2-0.8-2.2-1.8
			c0-1.1,1.1-1.8,2.7-1.8c1.6,0,2.7,0.7,2.7,1.8c0,1-0.8,1.6-2.2,1.8v0.8c1.1-0.1,2.2-0.1,3.2-0.3L71.6,2418.9z M71.2,2413.5h-6.7
			v-0.8h2.8v-1.2h1.1v1.2h2.8V2413.5z M67,2422.1h6.7v0.9h-7.8v-2.9H67V2422.1z M67.8,2416.9c1,0,1.7-0.4,1.7-1c0-0.6-0.7-1-1.7-1
			c-1.1,0-1.7,0.4-1.7,1C66.1,2416.5,66.8,2416.9,67.8,2416.9z M75,2415.7v0.9h-1.7v4.2h-1.1v-9.1h1.1v4.1H75z"/>
		<path class="st3" d="M82.3,2414.6c-0.8,1.9-2.5,3.2-5,4l-0.4-0.8c2.8-0.8,4.5-2.4,4.7-4.4h-4.1v-0.9h5.3c0,0.4-0.1,0.9-0.1,1.3
			h2.6v-2.1h1.1v7h-1.1v-1.5h-3.1v-0.9h3.1v-1.6H82.3z M86.3,2421c0,1.4-1.5,2.2-3.9,2.2s-3.9-0.8-3.9-2.2s1.5-2.2,3.9-2.2
			S86.3,2419.6,86.3,2421z M85.2,2421c0-0.9-1.1-1.4-2.8-1.4c-1.7,0-2.8,0.5-2.8,1.4c0,0.9,1.1,1.4,2.8,1.4
			C84.1,2422.4,85.2,2421.9,85.2,2421z"/>
		<path class="st3" d="M98.5,2412.9c0,3.4-1.5,6.3-5.4,8.2l-0.6-0.9c3.1-1.5,4.7-3.7,4.9-6.5h-4.4v-0.9H98.5z M101.9,2411.6v11.7
			h-1.1v-11.7H101.9z"/>
		<path class="st3" d="M110.6,2418.2h-5.4v-5.8h1.1v2h3.3v-2h1V2418.2z M109.6,2415.2h-3.3v2.1h3.3V2415.2z M107.6,2422.1h6.7v0.9
			h-7.8v-3.7h1.1V2422.1z M115.5,2415.1v0.9h-1.7v4.1h-1.1v-8.6h1.1v3.5H115.5z"/>
		<path class="st3" d="M117.2,2419.8c2.1,0,5,0,7.6-0.4l0.1,0.8c-2.6,0.5-5.4,0.5-7.6,0.5L117.2,2419.8z M124,2415.2
			c0,1.6-1.3,2.7-3.1,2.7c-1.8,0-3.1-1.1-3.1-2.7c0-1.6,1.3-2.7,3.1-2.7C122.7,2412.5,124,2413.6,124,2415.2z M118.8,2415.2
			c0,1.1,0.9,1.8,2.1,1.8c1.2,0,2.1-0.8,2.1-1.8c0-1.1-0.9-1.8-2.1-1.8C119.7,2413.4,118.8,2414.1,118.8,2415.2z M126.6,2411.6v11.7
			h-1.1v-11.7H126.6z"/>
		<path class="st3" d="M136.8,2414.7c0,2.1,1.3,4.2,3,5l-0.7,0.8c-1.2-0.7-2.3-2-2.8-3.6c-0.5,1.7-1.6,3.2-2.9,3.9l-0.6-0.9
			c1.7-0.9,3-3.1,3-5.2v-2.1h1.1V2414.7z M143.8,2417.2h-1.9v6h-1.1v-11.6h1.1v4.7h1.9V2417.2z"/>
		<path class="st3" d="M154.9,2411.6v6.3h-1.1v-2.6h-2.4c-0.2,1.4-1.4,2.3-3,2.3c-1.7,0-3-1.1-3-2.7c0-1.6,1.3-2.7,3-2.7
			c1.6,0,2.7,0.9,3,2.2h2.4v-2.8H154.9z M150.4,2414.8c0-1.1-0.8-1.8-2-1.8c-1.2,0-2,0.7-2,1.8c0,1.1,0.8,1.8,2,1.8
			C149.6,2416.7,150.4,2415.9,150.4,2414.8z M153.8,2418.4h1.1v4.7h-7.5v-4.7h1.1v1.5h5.3V2418.4z M153.8,2420.7h-5.3v1.5h5.3
			V2420.7z"/>
		<path class="st3" d="M165,2418.9c-2.5,0.5-5.3,0.5-7.3,0.5l-0.1-0.9c0.9,0,2,0,3.1-0.1v-0.9c-1.3-0.1-2.2-0.8-2.2-1.8
			c0-1.1,1.1-1.8,2.7-1.8c1.6,0,2.7,0.7,2.7,1.8c0,1-0.8,1.6-2.2,1.8v0.8c1.1-0.1,2.2-0.1,3.2-0.3L165,2418.9z M164.6,2413.5h-6.7
			v-0.8h2.8v-1.2h1.1v1.2h2.8V2413.5z M160.4,2422.1h6.7v0.9h-7.8v-2.9h1.1V2422.1z M161.2,2416.9c1,0,1.7-0.4,1.7-1
			c0-0.6-0.7-1-1.7-1c-1.1,0-1.7,0.4-1.7,1C159.5,2416.5,160.2,2416.9,161.2,2416.9z M168.4,2415.7v0.9h-1.7v4.2h-1.1v-9.1h1.1v4.1
			H168.4z"/>
		<path class="st3" d="M175.7,2414.6c-0.8,1.9-2.5,3.2-5,4l-0.4-0.8c2.8-0.8,4.5-2.4,4.7-4.4h-4.1v-0.9h5.3c0,0.4-0.1,0.9-0.1,1.3
			h2.6v-2.1h1.1v7h-1.1v-1.5h-3.1v-0.9h3.1v-1.6H175.7z M179.7,2421c0,1.4-1.5,2.2-3.9,2.2s-3.9-0.8-3.9-2.2s1.5-2.2,3.9-2.2
			S179.7,2419.6,179.7,2421z M178.6,2421c0-0.9-1.1-1.4-2.8-1.4c-1.7,0-2.8,0.5-2.8,1.4c0,0.9,1.1,1.4,2.8,1.4
			C177.6,2422.4,178.6,2421.9,178.6,2421z"/>
		<path class="st3" d="M196.4,2420.9v0.9h-10.6v-0.9h4.8v-2.8h1.1v2.8H196.4z M186.3,2417.6c2-0.3,4.2-2,4.2-3.8v-0.2h-3.9v-0.9h8.8
			v0.9h-3.9v0.2c0,1.9,2.2,3.5,4.3,3.8l-0.4,0.9c-1.8-0.4-3.6-1.5-4.4-3.1c-0.7,1.6-2.6,2.8-4.3,3.1L186.3,2417.6z"/>
		<path class="st3" d="M204.4,2418c-1.3-0.5-2.3-1.4-2.8-2.6c-0.5,1.4-1.5,2.4-3,3l-0.6-0.9c1.8-0.6,3-2.2,3-4v-1.2h1.1v1.2
			c0,1.7,1.1,3.1,2.8,3.7L204.4,2418z M207.8,2421.1c0,1.4-1.5,2.2-3.9,2.2c-2.4,0-3.9-0.8-3.9-2.2c0-1.4,1.5-2.2,3.9-2.2
			C206.3,2418.9,207.8,2419.7,207.8,2421.1z M206.7,2421.1c0-0.9-1.1-1.4-2.8-1.4s-2.8,0.5-2.8,1.4c0,0.8,1.1,1.4,2.8,1.4
			S206.7,2421.9,206.7,2421.1z M206.7,2415h-2.5v-0.9h2.5v-2.5h1.1v6.9h-1.1V2415z"/>
	</g>
	<g class="st2">
		<path class="st3" d="M43.6,2439.5c0-1.1,0.8-1.8,1.6-1.8c0.9,0,1.6,0.7,1.6,1.8c0,1-0.8,1.7-1.6,1.7
			C44.3,2441.2,43.6,2440.5,43.6,2439.5z"/>
		<path class="st3" d="M52.3,2442.3h2.1v-6.8h-1.7v-0.8c0.8-0.1,1.5-0.4,2-0.7h0.9v8.3h1.9v1h-5.2V2442.3z"/>
		<path class="st3" d="M59.5,2445.1c0.8-0.4,1.3-1,1.3-1.8c-0.1,0-0.1,0-0.1,0c-0.5,0-0.9-0.3-0.9-0.8c0-0.5,0.4-0.8,0.9-0.8
			c0.6,0,1,0.5,1,1.4c0,1.2-0.7,2.2-1.9,2.7L59.5,2445.1z"/>
		<path class="st3" d="M63.5,2438.6c0-3.1,1.1-4.8,3-4.8s3,1.7,3,4.8c0,3.1-1.1,4.8-3,4.8S63.5,2441.7,63.5,2438.6z M68.3,2438.6
			c0-2.7-0.7-3.8-1.8-3.8c-1.1,0-1.8,1.1-1.8,3.8c0,2.7,0.7,3.9,1.8,3.9C67.5,2442.5,68.3,2441.4,68.3,2438.6z"/>
		<path class="st3" d="M71.1,2438.6c0-3.1,1.1-4.8,3-4.8c1.8,0,3,1.7,3,4.8c0,3.1-1.1,4.8-3,4.8
			C72.3,2443.5,71.1,2441.7,71.1,2438.6z M75.9,2438.6c0-2.7-0.7-3.8-1.8-3.8c-1.1,0-1.8,1.1-1.8,3.8c0,2.7,0.7,3.9,1.8,3.9
			C75.2,2442.5,75.9,2441.4,75.9,2438.6z"/>
		<path class="st3" d="M78.8,2438.6c0-3.1,1.1-4.8,3-4.8c1.8,0,3,1.7,3,4.8c0,3.1-1.1,4.8-3,4.8
			C79.9,2443.5,78.8,2441.7,78.8,2438.6z M83.6,2438.6c0-2.7-0.7-3.8-1.8-3.8c-1.1,0-1.8,1.1-1.8,3.8c0,2.7,0.7,3.9,1.8,3.9
			C82.8,2442.5,83.6,2441.4,83.6,2438.6z"/>
		<path class="st3" d="M97,2439.2v0.9H86.5v-0.9h4.7v-1.2h-3.4v-4.9h7.9v0.8h-6.8v1.2h6.5v0.8h-6.5v1.2h6.9v0.8h-3.5v1.2H97z
			 M88.9,2443.1h7v0.9h-8.1v-3.1h1.1V2443.1z"/>
		<path class="st3" d="M108.6,2437.6c0,2.5-1.2,4.1-3,4.1s-3-1.6-3-4.1s1.2-4.1,3-4.1S108.6,2435.1,108.6,2437.6z M103.6,2437.6
			c0,1.9,0.8,3.1,2,3.1c1.1,0,1.9-1.2,1.9-3.1c0-1.9-0.8-3.1-1.9-3.1C104.5,2434.5,103.6,2435.7,103.6,2437.6z M111.7,2432.6v11.7
			h-1.1v-11.7H111.7z"/>
		<path class="st3" d="M120.8,2438.9c-1.3-0.5-2.3-1.4-2.8-2.6c-0.5,1.4-1.5,2.4-2.9,3l-0.6-0.8c1.8-0.6,2.9-2.2,2.9-4v-1.2h1.1v1.3
			c0,1.6,1.1,3,2.8,3.6L120.8,2438.9z M123.8,2442.1c0,1.4-1.5,2.1-3.8,2.1c-2.4,0-3.8-0.8-3.8-2.1c0-1.4,1.5-2.1,3.8-2.1
			C122.3,2440,123.8,2440.8,123.8,2442.1z M122.7,2442.1c0-0.8-1.1-1.3-2.8-1.3c-1.7,0-2.8,0.5-2.8,1.3c0,0.8,1.1,1.3,2.8,1.3
			C121.7,2443.4,122.7,2442.9,122.7,2442.1z M125.4,2435.6v0.9h-1.7v3.2h-1.1v-7.1h1.1v3H125.4z"/>
		<path class="st3" d="M133.7,2435.9c0,2,0.9,4.1,2.5,5l-0.6,0.8c-1.1-0.7-1.9-1.9-2.3-3.4c-0.4,1.6-1.2,3-2.4,3.7l-0.7-0.8
			c1.6-1,2.5-3.1,2.5-5.2v-1.1h-2.2v-0.9h5.3v0.9h-2.1V2435.9z M136.9,2432.9h1v10.8h-1v-6h-1.9v-0.9h1.9V2432.9z M140.2,2432.6
			v11.7h-1v-11.7H140.2z"/>
		<path class="st3" d="M153.3,2441.9v0.9h-10.6v-0.9h4.8v-2.8h1.1v2.8H153.3z M143.2,2438.6c2-0.3,4.2-2,4.2-3.8v-0.2h-3.9v-0.9h8.8
			v0.9h-3.9v0.2c0,1.9,2.2,3.5,4.3,3.8l-0.4,0.9c-1.8-0.4-3.6-1.5-4.4-3.1c-0.7,1.6-2.6,2.8-4.3,3.1L143.2,2438.6z"/>
		<path class="st3" d="M155.1,2445.1c0.8-0.4,1.3-1,1.3-1.8c-0.1,0-0.1,0-0.1,0c-0.5,0-0.9-0.3-0.9-0.8c0-0.5,0.4-0.8,0.9-0.8
			c0.6,0,1,0.5,1,1.4c0,1.2-0.7,2.2-1.9,2.7L155.1,2445.1z"/>
		<path class="st3" d="M173,2440.1h-4.8v4.2h-1.1v-4.2h-4.7v-0.9H173L173,2440.1z M172.1,2437.9c-1.8-0.3-3.6-1.3-4.3-2.7
			c-0.7,1.4-2.5,2.4-4.3,2.7l-0.4-0.9c2.1-0.3,4.2-1.7,4.2-3.4v-0.6h1.1v0.6c0,1.6,2.1,3.1,4.2,3.4L172.1,2437.9z"/>
		<path class="st3" d="M181.2,2435.8c0,1.6-1.3,2.7-3.1,2.7c-1.8,0-3-1.1-3-2.7c0-1.6,1.3-2.7,3-2.7
			C179.9,2433.2,181.2,2434.3,181.2,2435.8z M176.2,2435.8c0,1.1,0.8,1.8,2,1.8c1.2,0,2-0.7,2-1.8c0-1.1-0.8-1.8-2-1.8
			C177,2434.1,176.2,2434.8,176.2,2435.8z M178,2439.4v1.4h5.4v-1.4h1.1v4.7h-7.5v-4.7H178z M178,2443.3h5.4v-1.5H178V2443.3z
			 M184.4,2432.6v6.3h-1.1v-6.3H184.4z"/>
		<path class="st3" d="M191.4,2441.1c1.1-0.1,2.1-0.1,3.1-0.3l0.1,0.8c-2.5,0.4-5.2,0.5-7.3,0.5l-0.1-0.9c0.9,0,2,0,3.2,0v-1.3
			c-1.3-0.2-2.2-1-2.2-2.1c0-1.3,1.1-2.2,2.8-2.2c1.6,0,2.8,0.8,2.8,2.2c0,1.2-0.9,2-2.2,2.1V2441.1z M194.3,2434.9h-7v-0.8h3v-1.4
			h1.1v1.4h2.9V2434.9z M190.8,2439c1,0,1.7-0.5,1.7-1.3c0-0.8-0.7-1.3-1.7-1.3s-1.7,0.5-1.7,1.3
			C189.1,2438.5,189.8,2439,190.8,2439z M198.1,2438.5h-1.8v5.8h-1.1v-11.7h1.1v5h1.8V2438.5z"/>
		<path class="st3" d="M206.6,2434.7h-6.9v-0.9h2.9v-1.3h1.1v1.3h2.9V2434.7z M203.1,2439.5c-1.7,0-2.8-0.8-2.8-2.1
			c0-1.3,1.1-2.1,2.8-2.1c1.7,0,2.8,0.8,2.8,2.1C205.9,2438.7,204.8,2439.5,203.1,2439.5z M201.1,2440.5h7.6v3.7h-1.1v-2.9h-6.5
			V2440.5z M203.1,2438.7c1.1,0,1.8-0.5,1.8-1.3c0-0.8-0.7-1.3-1.8-1.3c-1.1,0-1.8,0.5-1.8,1.3
			C201.4,2438.2,202.1,2438.7,203.1,2438.7z M210.4,2436.7h-1.7v3.2h-1.1v-7.3h1.1v3.2h1.7V2436.7z"/>
		<path class="st3" d="M217.8,2438.4v1.1h3.4v2.6h-6.9v1.2h7.2v0.8h-8.2v-2.8h6.8v-1h-6.9v-0.8h3.5v-1.1H212v-0.9h10.6v0.9H217.8z
			 M221.2,2436.5h-7.8v-3.5h7.8V2436.5z M220.2,2433.8h-5.7v1.9h5.7V2433.8z"/>
		<path class="st3" d="M231.1,2438.4c-1.4-0.4-2.4-1.3-3-2.5c-0.5,1.3-1.6,2.3-3,2.8l-0.5-0.8c1.8-0.6,3-2,3-3.6v-0.1h-2.7v-0.9h6.4
			v0.9h-2.6v0.1c0,1.5,1.2,2.8,2.9,3.3L231.1,2438.4z M234.4,2443.3v0.8h-7.9v-2.9h6.5v-1.2h-6.5v-0.8h7.6v2.8h-6.5v1.3H234.4z
			 M234,2438.7h-1.1v-6h1.1V2438.7z"/>
		<path class="st3" d="M250.7,2438.2v0.9h-10.6v-0.9H250.7z M249.4,2442.1c0,1.4-1.5,2.1-4,2.1c-2.5,0-4-0.8-4-2.1
			c0-1.4,1.5-2.1,4-2.1C247.9,2440,249.4,2440.8,249.4,2442.1z M249.5,2437h-8v-4h7.9v0.9h-6.9v2.2h6.9V2437z M248.3,2442.1
			c0-0.8-1.1-1.3-2.9-1.3s-2.9,0.5-2.9,1.3s1.1,1.3,2.9,1.3C247.2,2443.4,248.3,2443,248.3,2442.1z"/>
		<path class="st3" d="M263.1,2439v0.9h-10.6v-0.9h4.8v-1.2h-3.4v-2.8h6.8v-1.2h-6.8v-0.8h7.9v2.8H255v1.2h7.1v0.8h-3.6v1.2H263.1z
			 M253.7,2440.8h8.1v3.4h-1.1v-2.5h-7V2440.8z"/>
		<path class="st3" d="M272.3,2439.3c-2.4,0.4-5.2,0.5-7.2,0.5l-0.1-0.9c0.9,0,1.9,0,3-0.1v-1.2c-1.4-0.2-2.4-1-2.4-2.3
			c0-1.4,1.2-2.3,2.9-2.3c1.7,0,2.9,0.9,2.9,2.3c0,1.2-0.9,2.1-2.3,2.3v1.1c1.1-0.1,2.2-0.1,3.2-0.3L272.3,2439.3z M268.5,2436.9
			c1.1,0,1.9-0.6,1.9-1.5c0-0.9-0.8-1.5-1.9-1.5c-1.1,0-1.9,0.6-1.9,1.5C266.6,2436.3,267.4,2436.9,268.5,2436.9z M267.7,2443.1h6.7
			v0.9h-7.8v-3.2h1.1V2443.1z M275.7,2436.6v0.9H274v4.1h-1.1v-8.9h1.1v3.9H275.7z"/>
		<path class="st3" d="M287.9,2442v0.9h-10.6v-0.9h3v-2.2h-1.6v-3.6h6.9v-1.8h-6.9v-0.9h8v3.5h-6.9v1.9h7.2v0.9H285v2.2H287.9z
			 M281.3,2442h2.7v-2.2h-2.7V2442z"/>
	</g>
	<g class="st2">
		<path class="st3" d="M43.6,2460.5c0-1.1,0.8-1.8,1.6-1.8c0.9,0,1.6,0.7,1.6,1.8c0,1-0.8,1.7-1.6,1.7
			C44.3,2462.2,43.6,2461.5,43.6,2460.5z"/>
		<path class="st3" d="M57.7,2458.7v1.5h3.4v2.8h-6.9v1.3h7.2v0.8h-8.3v-2.9H60v-1.2h-6.9v-0.8h3.5v-1.5h-4.7v-0.9h7.9
			c0.2-1.2,0.3-2.1,0.3-2.9h-6.8v-0.8h7.9v0.7c0,0.8,0,1.8-0.2,3h1.6v0.9H57.7z"/>
		<path class="st3" d="M70.1,2459.9v1.5h3.4v3.8h-1.1v-2.9h-7v-0.9H69v-1.5h-4.8v-0.9h10.6v0.9H70.1z M69.4,2457.7
			c-1.3,0.3-2.4,0.3-3.5,0.3h-0.6v-4h3.9v0.9h-2.9v2.2c1,0,1.9-0.1,3-0.3L69.4,2457.7z M73.8,2458h-4v-4h3.9v0.9h-2.8v2.2h2.9V2458z
			"/>
		<path class="st3" d="M80.6,2457.2c0,1.9,1.3,3.9,3,4.7l-0.6,0.9c-1.3-0.6-2.4-2-2.9-3.6c-0.5,1.7-1.7,3.2-3,3.9l-0.6-0.8
			c1.7-0.8,3.1-3,3.1-5v-1.5h-2.7v-0.9h6.3v0.9h-2.6V2457.2z M87.5,2459.2h-1.9v6.1h-1.1v-11.6h1.1v4.7h1.9V2459.2z"/>
		<path class="st3" d="M99.6,2459.4v0.9H89v-0.9h4.7v-1.4h-3.4v-3.9h7.9v0.9h-6.9v2.2h6.9v0.9h-3.5v1.4H99.6z M98.3,2463.2
			c0,1.4-1.5,2.1-4,2.1c-2.5,0-4-0.8-4-2.1c0-1.4,1.5-2.1,4-2.1C96.8,2461.1,98.3,2461.8,98.3,2463.2z M97.2,2463.2
			c0-0.8-1.1-1.3-2.9-1.3c-1.8,0-2.9,0.5-2.9,1.3c0,0.8,1.1,1.3,2.9,1.3C96.1,2464.4,97.2,2464,97.2,2463.2z"/>
		<path class="st3" d="M112,2459.5v0.9h-10.5v-0.9H112z M102.1,2458c2.2-0.2,4-1.1,4.1-2.4h-3.6v-0.8h3.7v-1.2h1.1v1.2h3.7v0.8h-3.6
			c0.1,1.3,1.9,2.2,4.1,2.4l-0.3,0.8c-1.9-0.2-3.6-0.9-4.3-2.1c-0.7,1.2-2.4,1.9-4.3,2.1L102.1,2458z M102.6,2461.6h8.1v3.7h-1.1
			v-2.8h-7V2461.6z"/>
		<path class="st3" d="M120.1,2460.1c-1.3-0.5-2.3-1.4-2.8-2.6c-0.5,1.4-1.6,2.4-2.9,3l-0.6-0.8c1.7-0.6,2.9-2.2,2.9-3.9v-0.4h-2.6
			v-0.9h6.2v0.9h-2.6v0.4c0,1.5,1.1,3,2.8,3.6L120.1,2460.1z M123.4,2463.1c0,1.4-1.5,2.2-3.9,2.2s-3.9-0.8-3.9-2.2s1.5-2.2,3.9-2.2
			S123.4,2461.7,123.4,2463.1z M122.4,2463.1c0-0.8-1.1-1.4-2.8-1.4s-2.8,0.5-2.8,1.4s1.1,1.3,2.8,1.3S122.4,2463.9,122.4,2463.1z
			 M122.3,2456.6v-3h1.1v6.9h-1.1v-3.1H120v-0.9H122.3z"/>
		<path class="st3" d="M132.3,2454.9c0,3.4-1.5,6.3-5.4,8.2l-0.6-0.9c3.1-1.5,4.7-3.7,4.9-6.5h-4.4v-0.9H132.3z M135.8,2453.6v11.7
			h-1.1v-11.7H135.8z"/>
		<path class="st3" d="M144.7,2454.9c0,3.4-1.5,6.3-5.4,8.2l-0.6-0.9c3.1-1.5,4.7-3.7,4.9-6.5h-4.4v-0.9H144.7z M148.1,2453.6v11.7
			h-1.1v-11.7H148.1z"/>
		<path class="st3" d="M151.5,2460.3c0-2.5,0.7-4.7,1.9-6.6l0.7,0.3c-1.1,1.9-1.7,4-1.7,6.3s0.5,4.4,1.7,6.3l-0.7,0.4
			C152.2,2464.9,151.5,2462.8,151.5,2460.3z"/>
	</g>
	<g class="st2">
		<path class="st3" d="M158.4,2455.8h-2.9v-1h7v1h-2.9v8.5h-1.2V2455.8z"/>
		<path class="st3" d="M164.6,2454.8h1.5l1.8,5.1c0.2,0.7,0.4,1.3,0.7,2h0.1c0.2-0.7,0.4-1.3,0.7-2l1.8-5.1h1.5v9.5h-1.1v-5.3
			c0-0.8,0.1-2,0.2-2.8h-0.1l-0.8,2.2l-1.8,5h-0.8l-1.8-5l-0.8-2.2h-0.1c0.1,0.8,0.1,2,0.1,2.8v5.3h-1.1V2454.8z"/>
		<path class="st3" d="M174.9,2463.1l0.7-0.8c0.7,0.7,1.6,1.2,2.6,1.2c1.2,0,2-0.6,2-1.6c0-1-0.7-1.3-1.6-1.7l-1.4-0.6
			c-0.9-0.4-1.9-1.1-1.9-2.4c0-1.5,1.3-2.5,3-2.5c1.1,0,2.1,0.5,2.8,1.2l-0.6,0.8c-0.6-0.5-1.3-0.9-2.2-0.9c-1.1,0-1.8,0.5-1.8,1.4
			c0,0.9,0.8,1.3,1.6,1.6l1.4,0.6c1.1,0.5,2,1.1,2,2.5c0,1.5-1.2,2.7-3.2,2.7C176.9,2464.5,175.7,2463.9,174.9,2463.1z"/>
		<path class="st3" d="M183.1,2466.5c1.1-1.8,1.7-4,1.7-6.3s-0.5-4.4-1.7-6.3l0.7-0.3c1.2,1.9,1.9,4,1.9,6.6c0,2.6-0.7,4.7-1.9,6.6
			L183.1,2466.5z"/>
	</g>
	<g class="st2">
		<path class="st3" d="M197.6,2459.4c-1.3-0.5-2.3-1.4-2.8-2.6c-0.5,1.3-1.5,2.3-2.9,2.8l-0.6-0.8c1.8-0.6,2.9-2.1,2.9-3.8v-1.1h1.1
			v1.1c0,1.5,1.2,2.9,2.9,3.5L197.6,2459.4z M201.4,2464.3v0.8h-7.9v-2.9h6.4v-1.1h-6.5v-0.8h7.5v2.8h-6.4v1.2H201.4z M199.9,2456.6
			h-2.5v-0.9h2.5v-2.1h1.1v6h-1.1V2456.6z"/>
		<path class="st3" d="M208,2457.4c0,2,1.3,3.8,3.1,4.6l-0.6,0.8c-1.3-0.6-2.4-1.9-3-3.4c-0.5,1.6-1.6,3-3,3.6l-0.6-0.8
			c1.7-0.8,3-2.8,3-4.8v-0.9h-2.7v-0.9h2.7v-1.8h1.1v1.8h2.7v0.9H208V2457.4z M213.3,2453.6v11.7h-1.1v-11.7H213.3z"/>
		<path class="st3" d="M226.8,2460.6c-2.5,0.4-5.3,0.4-7.3,0.5l-0.1-0.9c0.9,0,2,0,3.1,0v-0.8c-1.4-0.1-2.2-0.8-2.2-1.7
			c0-1.1,1.1-1.7,2.7-1.7c1.6,0,2.7,0.7,2.7,1.7c0,0.9-0.8,1.6-2.2,1.7v0.8c1.1-0.1,2.1-0.1,3.2-0.3L226.8,2460.6z M226.4,2455.5
			h-6.7v-0.8h2.8v-1.1h1.1v1.1h2.8V2455.5z M220.8,2462h7.7v3.2h-1.1v-2.4h-6.6V2462z M223.1,2458.6c1,0,1.7-0.4,1.7-1
			c0-0.6-0.7-1-1.7-1c-1.1,0-1.7,0.4-1.7,1C221.3,2458.2,222,2458.6,223.1,2458.6z M230.2,2458h-1.7v3.4h-1.1v-7.8h1.1v3.5h1.7V2458
			z"/>
		<path class="st3" d="M233.3,2461.5c1.6,0,2.7-0.1,3.9-0.4l0.1,0.9c-1.4,0.3-2.6,0.4-4.3,0.4h-0.8v-7.4h4.3v0.9h-3.3V2461.5z
			 M241.8,2453.6v11.7h-1v-6.1h-1.7v5.5h-1v-10.8h1v4.4h1.7v-4.7H241.8z"/>
	</g>
	<g id="사각형_516" transform="translate(20 2351.725)">
		<rect y="0" class="st4" width="335" height="37.7"/>
		<rect x="0.5" y="0.5" class="st1" width="334" height="36.7"/>
	</g>
	<g class="st2">
		<path class="st5" d="M143.8,2367h-7.6v-1.4h2.9v-1.3h1.9v1.3h2.9V2367z M140,2372c-1.9,0-3.2-0.9-3.2-2.3c0-1.4,1.3-2.3,3.2-2.3
			c1.9,0,3.2,0.9,3.2,2.3C143.1,2371.1,141.8,2372,140,2372z M146.5,2374.9c0,1.4-1.7,2.3-4.3,2.3c-2.7,0-4.3-0.9-4.3-2.3
			c0-1.4,1.7-2.3,4.3-2.3C144.8,2372.6,146.5,2373.5,146.5,2374.9z M140,2370.7c0.8,0,1.4-0.3,1.4-1c0-0.6-0.6-1-1.4-1
			c-0.8,0-1.4,0.3-1.4,1C138.6,2370.4,139.1,2370.7,140,2370.7z M144.6,2374.9c0-0.6-0.9-0.9-2.5-0.9s-2.5,0.3-2.5,0.9
			c0,0.6,0.9,0.9,2.5,0.9S144.6,2375.6,144.6,2374.9z M146.3,2367.7v1.3h1.7v1.5h-1.7v2h-1.8v-8.2h1.8v1.8h1.7v1.5H146.3z"/>
		<path class="st5" d="M161.2,2374.2h-4.9v3.1h-1.8v-3.1h-4.9v-1.5h11.7V2374.2z M160.6,2367.1h-10.5v-1.4h4.3v-1.4h1.8v1.4h4.3
			V2367.1z M155.3,2367.6c2.8,0,4.4,0.8,4.4,2.2c0,1.4-1.7,2.2-4.4,2.2c-2.8,0-4.4-0.8-4.4-2.2
			C150.9,2368.4,152.6,2367.6,155.3,2367.6z M155.3,2369c-1.7,0-2.5,0.3-2.5,0.9c0,0.6,0.8,0.8,2.5,0.8c1.7,0,2.5-0.3,2.5-0.8
			C157.8,2369.2,157,2369,155.3,2369z"/>
		<path class="st5" d="M173.2,2364.6h1.7v12.1h-1.7v-4.2h-1.8v-1.5h1.8v-1.8h-1.6c-0.6,2.1-1.9,3.9-4.3,5.4l-1.1-1.3
			c2.5-1.6,3.7-3.4,3.9-5.9H167v-1.5h5c0,0.7,0,1.3-0.1,1.9h1.2V2364.6z M177.6,2364.3v12.9h-1.8v-12.9H177.6z"/>
		<path class="st5" d="M188.1,2372.3c-2.7,0.5-5.7,0.5-7.9,0.5l-0.2-1.4c1,0,2.1,0,3.2,0v-0.7c-1.4-0.2-2.3-0.9-2.3-1.9
			c0-1.2,1.3-1.9,3.2-1.9c1.9,0,3.2,0.7,3.2,1.9c0,1-0.9,1.7-2.3,1.9v0.6c1-0.1,2-0.1,3-0.3L188.1,2372.3z M187.8,2366.6h-7.6v-1.3
			h2.9v-1h1.8v1h2.8V2366.6z M181.7,2373.6h8.9v3.7h-1.9v-2.2h-7V2373.6z M184.1,2369.6c0.9,0,1.4-0.3,1.4-0.7
			c0-0.5-0.5-0.7-1.4-0.7c-0.9,0-1.4,0.2-1.4,0.7C182.6,2369.3,183.2,2369.6,184.1,2369.6z M190.6,2364.3v8.7h-1.9v-8.7H190.6z"/>
		<path class="st5" d="M203.7,2370.6h-6.3v-5.5h6.3V2370.6z M204.2,2373.7c0.2,0.9,1.5,1.9,4,2.1l-0.6,1.4c-2.1-0.2-3.6-1-4.4-1.9
			c-0.8,1-2.3,1.8-4.5,1.9l-0.6-1.4c2.6-0.2,3.9-1.2,4.1-2.1h-3.6v-1.4h3.6v-1.1h1.9v1.1h3.6v1.4H204.2z M201.9,2366.6h-2.6v2.6h2.6
			V2366.6z M207.5,2371.7h-1.8v-7.3h1.8V2371.7z"/>
		<path class="st5" d="M225.5,2370.6v1.5h-11.7v-1.5h4.9v-1.2h-3.5v-4.6h8.8v4.6h-3.4v1.2H225.5z M215.1,2373h9v4.2h-1.8v-2.8h-7.1
			V2373z M217.1,2367.9h5.1v-1.7h-5.1V2367.9z"/>
		<path class="st5" d="M238.8,2374.3v1.5h-11.7v-1.5h2.9v-2.4h-1.9v-1.5h1.7v-3.6h-1.8v-1.5h9.8v1.5h-1.8v3.6h1.7v1.5h-1.9v2.4
			H238.8z M231.6,2370.4h2.6v-3.6h-2.6V2370.4z M231.9,2374.3h2.2v-2.4h-2.2V2374.3z"/>
	</g>
</g>
</svg>
