<?xml version="1.0" encoding="utf-8"?>
<!-- Generator: Adobe Illustrator 25.1.0, SVG Export Plug-In . SVG Version: 6.00 Build 0)  -->
<svg version="1.1" id="레이어_1" xmlns="http://www.w3.org/2000/svg" xmlns:xlink="http://www.w3.org/1999/xlink" x="0px"
	 y="0px" viewBox="0 0 334.8 213.5" style="enable-background:new 0 0 334.8 213.5;" xml:space="preserve">
<style type="text/css">
	.st0{enable-background:new    ;}
	.st1{fill:#DF1C2F;}
	.st2{fill:#FAFAFA;}
	.st3{fill:none;stroke:#D6D6D6;}
	.st4{fill:#555555;}
	.st5{fill:none;stroke:#717171;}
</style>
<g id="그룹_5884" transform="translate(-20 -3338.506)">
	<g id="그룹_4964" transform="translate(20 3338.506)">
		<g class="st0">
			<path class="st1" d="M7.3,4.5H9v12.1H7.3v-6.1h-1c-0.2,2.5-1.2,4-2.8,4c-1.7,0-2.8-1.8-2.8-4.7c0-2.9,1.1-4.7,2.8-4.7
				c1.5,0,2.6,1.4,2.8,3.8h1V4.5z M4.6,9.9c0-2-0.4-2.9-1.1-2.9c-0.7,0-1.1,1-1.1,2.9c0,2,0.4,3,1.1,3C4.2,12.8,4.6,11.9,4.6,9.9z
				 M11.7,4.3v12.9H9.9V4.3H11.7z"/>
			<path class="st1" d="M16,12.7c1.6,0,3.3-0.2,5-0.5l0.2,1.5c-2.1,0.4-4,0.5-6,0.5h-1.1V5.7H16V12.7z M24.3,4.3v13h-1.8V9.8H19V8.3
				h3.5v-4H24.3z"/>
			<path class="st1" d="M31.3,7.8c0,2.1,1,4.3,3.2,5.2l-1,1.5C32,13.8,31,12.6,30.4,11c-0.6,1.7-1.6,3.1-3.1,3.8l-1.1-1.5
				c2.2-1,3.2-3.3,3.2-5.5V7.1h-2.7V5.5H34v1.5h-2.7V7.8z M37,4.3v12.9h-1.8V4.3H37z"/>
			<path class="st1" d="M49.3,10.9c-1.4-0.4-2.4-1.2-3-2.3c-0.6,1.2-1.6,2.1-3.1,2.6l-0.9-1.4c2-0.6,3-2.1,3-3.4h-2.5V4.8h6.9v1.5
				h-2.5c0.1,1.3,1,2.6,2.9,3.2L49.3,10.9z M53.6,15.6v1.4h-8.9v-3.5h6.7v-0.7h-6.7v-1.4h8.5v3.5h-6.7v0.8H53.6z M51.4,6.9V4.3h1.8
				v6.6h-1.8V8.4h-2V6.9H51.4z"/>
			<path class="st1" d="M61.9,5c0,3.4-2.2,5.8-6,6.8l-0.7-1.5c2.9-0.7,4.4-2.1,4.7-3.8h-4.1V5H61.9z M57.1,12h8.4v5h-8.4V12z
				 M58.9,15.6h4.7v-2.1h-4.7V15.6z M67.2,8.6h-1.7v2.9h-1.8V4.3h1.8v2.8h1.7V8.6z"/>
			<path class="st1" d="M72.7,7.6v-1h-4.1V5.1h5.9v3.9h-4v1.1c2.1,0,3.5-0.1,5.1-0.4l0.2,1.5c-1.8,0.3-3.4,0.4-6,0.4h-1.1v-4H72.7z
				 M78.5,14.8c0,1.5-1.7,2.5-4.4,2.5s-4.4-0.9-4.4-2.5c0-1.6,1.7-2.5,4.4-2.5S78.5,13.2,78.5,14.8z M76.6,14.8c0-0.7-0.9-1-2.5-1
				c-1.7,0-2.5,0.3-2.5,1c0,0.7,0.9,1,2.5,1C75.8,15.8,76.6,15.5,76.6,14.8z M78.3,7.5v1.2H80v1.5h-1.7v1.8h-1.8V4.3h1.8V6H80v1.5
				H78.3z"/>
		</g>
	</g>
	<rect id="사각형_375" x="20" y="3368.5" class="st2" width="47.4" height="182.7"/>
	<path id="패스_4999" class="st3" d="M20.2,3404.9h334.6"/>
	<line id="선_348" class="st3" x1="20.2" y1="3441.1" x2="354.8" y2="3441.1"/>
	<line id="선_348-2" class="st3" x1="20.2" y1="3478.7" x2="354.8" y2="3478.7"/>
	<line id="선_348-3" class="st3" x1="20.2" y1="3515" x2="354.8" y2="3515"/>
	<g>
		<g class="st0">
			<path d="M43.4,3387.3h-4.3v4.5h-1.2v-4.5h-4.2v-1h7c0.3-1.5,0.3-2.6,0.3-3.6h-6.2v-1h7.4v0.9c0,1,0,2.1-0.3,3.7h1.5V3387.3z"/>
			<path d="M54.4,3386.6v1h-4.2v1.9H49v-1.9h-4.4v-1H54.4z M47,3390.6h6.3v1h-7.5v-3H47V3390.6z M53.1,3385.7h-7.3v-4.4h1.2v1.3h4.8
				v-1.3h1.2V3385.7z M51.9,3383.5h-4.8v1.2h4.8V3383.5z"/>
		</g>
	</g>
	<g class="st0">
		<path d="M39.9,3423.1c-1.5,0.3-2.7,0.4-5,0.4h-0.8v-4.9h4.8v0.8h-3.8v3.3c2.1,0,3.3-0.1,4.7-0.4L39.9,3423.1z M36.2,3427.3h6.2
			v0.8h-7.2v-3.5h1V3427.3z M43.5,3420.8v0.8h-1.6v3.8h-1v-7.8h1v3.2H43.5z"/>
		<path d="M51.8,3423.8c-1,0.2-2.1,0.3-3.1,0.4v3.9h-1v-3.8c-1.1,0-2.1,0.1-3,0.1l-0.1-0.8c2,0,4.7,0,7.1-0.4L51.8,3423.8z
			 M45.4,3420.4c0-1.3,1.1-2.2,2.7-2.2c1.6,0,2.7,0.9,2.7,2.2c0,1.3-1.1,2.2-2.7,2.2C46.6,3422.6,45.4,3421.7,45.4,3420.4z
			 M46.4,3420.4c0,0.8,0.7,1.4,1.8,1.4c1,0,1.8-0.6,1.8-1.4c0-0.8-0.7-1.4-1.8-1.4C47.1,3419,46.4,3419.5,46.4,3420.4z M53.5,3417.6
			v10.8h-1v-10.8H53.5z"/>
	</g>
	<g class="st0">
		<path d="M31.2,3463.9c2.8-2.4,4-4.2,4-5.7c0-1-0.5-1.7-1.6-1.7c-0.7,0-1.3,0.4-1.8,1l-0.6-0.6c0.7-0.8,1.5-1.3,2.6-1.3
			c1.6,0,2.6,1,2.6,2.6c0,1.8-1.4,3.5-3.4,5.5c0.5,0,1-0.1,1.4-0.1h2.4v0.9h-5.5V3463.9z"/>
		<path d="M37.9,3460.1c0-3.1,1.1-4.5,2.7-4.5c1.7,0,2.7,1.5,2.7,4.5c0,3.1-1.1,4.6-2.7,4.6C39,3464.7,37.9,3463.1,37.9,3460.1z
			 M42.3,3460.1c0-2.6-0.7-3.6-1.7-3.6c-1,0-1.7,1.1-1.7,3.6c0,2.6,0.7,3.7,1.7,3.7C41.7,3463.8,42.3,3462.7,42.3,3460.1z"/>
		<path d="M45.1,3463.6h2v-6.6h-1.6v-0.7c0.8-0.1,1.3-0.3,1.8-0.6h0.8v7.9h1.8v0.9h-4.8V3463.6z"/>
		<path d="M51.2,3462.3c0-1.2,0.8-2,1.6-2.4v-0.1c-0.6-0.4-1.2-1.1-1.2-2c0-1.3,1-2.2,2.4-2.2c1.5,0,2.4,1,2.4,2.3
			c0,0.9-0.6,1.7-1.2,2.1v0.1c0.8,0.4,1.5,1.1,1.5,2.3c0,1.3-1.1,2.3-2.8,2.3C52.4,3464.7,51.2,3463.7,51.2,3462.3z M55.7,3462.4
			c0-1.2-1.1-1.6-2.3-2.1c-0.7,0.5-1.2,1.2-1.2,2c0,0.9,0.8,1.6,1.8,1.6C55,3463.8,55.7,3463.2,55.7,3462.4z M55.5,3458
			c0-0.9-0.6-1.6-1.5-1.6c-0.8,0-1.4,0.6-1.4,1.4c0,1.1,0.9,1.5,2,1.9C55.2,3459.2,55.5,3458.6,55.5,3458z"/>
	</g>
	<g class="st0">
		<path d="M31.2,3500.9c2.8-2.4,4-4.2,4-5.7c0-1-0.5-1.7-1.6-1.7c-0.7,0-1.3,0.4-1.8,1l-0.6-0.6c0.7-0.8,1.5-1.3,2.6-1.3
			c1.6,0,2.6,1,2.6,2.6c0,1.8-1.4,3.5-3.4,5.5c0.5,0,1-0.1,1.4-0.1h2.4v0.9h-5.5V3500.9z"/>
		<path d="M37.9,3497.1c0-3.1,1.1-4.5,2.7-4.5c1.7,0,2.7,1.5,2.7,4.5c0,3.1-1.1,4.6-2.7,4.6C39,3501.7,37.9,3500.1,37.9,3497.1z
			 M42.3,3497.1c0-2.6-0.7-3.6-1.7-3.6c-1,0-1.7,1.1-1.7,3.6c0,2.6,0.7,3.7,1.7,3.7C41.7,3500.8,42.3,3499.7,42.3,3497.1z"/>
		<path d="M45.1,3500.6h2v-6.6h-1.6v-0.7c0.8-0.1,1.3-0.3,1.8-0.6h0.8v7.9h1.8v0.9h-4.8V3500.6z"/>
		<path d="M52,3500.1c0.4,0.4,0.9,0.7,1.5,0.7c1.1,0,2.1-0.9,2.2-3.7c-0.5,0.7-1.3,1.1-2,1.1c-1.5,0-2.4-0.9-2.4-2.8
			c0-1.7,1.2-2.9,2.5-2.9c1.7,0,3,1.4,3,4.2c0,3.6-1.5,4.9-3.2,4.9c-0.9,0-1.6-0.4-2.1-0.9L52,3500.1z M55.6,3496.2
			c-0.1-1.8-0.8-2.8-1.9-2.8c-0.8,0-1.5,0.8-1.5,2c0,1.2,0.5,2,1.6,2C54.4,3497.4,55,3497,55.6,3496.2z"/>
	</g>
	<g class="st0">
		<path d="M31.2,3536.9c2.8-2.4,4-4.2,4-5.7c0-1-0.5-1.7-1.6-1.7c-0.7,0-1.3,0.4-1.8,1l-0.6-0.6c0.7-0.8,1.5-1.3,2.6-1.3
			c1.6,0,2.6,1,2.6,2.6c0,1.8-1.4,3.5-3.4,5.5c0.5,0,1-0.1,1.4-0.1h2.4v0.9h-5.5V3536.9z"/>
		<path d="M37.9,3533.1c0-3.1,1.1-4.5,2.7-4.5c1.7,0,2.7,1.5,2.7,4.5c0,3.1-1.1,4.6-2.7,4.6C39,3537.7,37.9,3536.1,37.9,3533.1z
			 M42.3,3533.1c0-2.6-0.7-3.6-1.7-3.6c-1,0-1.7,1.1-1.7,3.6c0,2.6,0.7,3.7,1.7,3.7C41.7,3536.8,42.3,3535.7,42.3,3533.1z"/>
		<path d="M44.5,3536.9c2.8-2.4,4-4.2,4-5.7c0-1-0.5-1.7-1.6-1.7c-0.7,0-1.3,0.4-1.8,1l-0.6-0.6c0.7-0.8,1.5-1.3,2.6-1.3
			c1.6,0,2.6,1,2.6,2.6c0,1.8-1.4,3.5-3.4,5.5c0.5,0,1-0.1,1.4-0.1h2.4v0.9h-5.5V3536.9z"/>
		<path d="M51.2,3533.1c0-3.1,1.1-4.5,2.7-4.5c1.7,0,2.7,1.5,2.7,4.5c0,3.1-1.1,4.6-2.7,4.6C52.3,3537.7,51.2,3536.1,51.2,3533.1z
			 M55.7,3533.1c0-2.6-0.7-3.6-1.7-3.6c-1,0-1.7,1.1-1.7,3.6c0,2.6,0.7,3.7,1.7,3.7C55,3536.8,55.7,3535.7,55.7,3533.1z"/>
	</g>
	<g>
		<g class="st0">
			<path d="M98.8,3387.1c-1.2-0.4-2.2-1.2-2.6-2.3c-0.5,1.2-1.4,2.1-2.7,2.5l-0.6-1c1.7-0.6,2.7-2,2.7-3.4v-0.2h-2.4v-1h5.9v1h-2.3
				v0.2c0,1.4,1,2.7,2.7,3.2L98.8,3387.1z M94.4,3388.1h7.3v3.8h-1.2v-2.8h-6.1V3388.1z M101.7,3381v6.5h-1.2v-6.5H101.7z"/>
			<path d="M109.6,3386.9c-1.2-0.4-2.1-1.3-2.5-2.3c-0.5,1.2-1.4,2.1-2.7,2.6l-0.6-1c1.7-0.6,2.7-2,2.7-3.5v-0.1h-2.3v-1h5.8v1h-2.3
				v0.1c0,1.3,0.9,2.7,2.5,3.2L109.6,3386.9z M111.5,3387.4h1.2v4.3h-7v-4.3h1.2v1.2h4.6V3387.4z M111.5,3389.5h-4.6v1.2h4.6V3389.5
				z M112.8,3381v5.9h-1.2v-2.4h-1.9v-1h1.9v-2.5H112.8z"/>
			<path d="M123.4,3381.2h1.2v10.1h-1.2v-5.2h-1.2c-0.1,2.1-1,3.4-2.3,3.4c-1.4,0-2.3-1.5-2.3-3.9c0-2.4,0.9-3.8,2.3-3.8
				c1.3,0,2.2,1.2,2.3,3.3h1.2V3381.2z M121.2,3385.7c0-1.7-0.5-2.7-1.2-2.7s-1.2,1-1.2,2.7c0,1.7,0.5,2.7,1.2,2.7
				S121.2,3387.4,121.2,3385.7z M126.8,3381v10.8h-1.2V3381H126.8z"/>
			<path d="M130.4,3388.2c1.5,0,3-0.1,4.5-0.4l0.1,1c-1.7,0.3-3.3,0.4-5,0.4h-0.9v-7.1h1.2V3388.2z M137.6,3381v10.9h-1.2v-6.4h-3.1
				v-1h3.1v-3.5H137.6z"/>
			<path d="M143.6,3384.1c0,1.8,1.1,3.7,2.8,4.4l-0.7,1c-1.3-0.6-2.2-1.7-2.7-3.1c-0.5,1.5-1.5,2.8-2.7,3.4l-0.7-1
				c1.7-0.8,2.8-2.8,2.8-4.7v-1h-2.4v-1h6.1v1h-2.4V3384.1z M148.5,3381v10.8h-1.2V3381H148.5z"/>
			<path d="M159.2,3386.5c-1.2-0.4-2.1-1.2-2.6-2.1c-0.5,1.1-1.4,2-2.7,2.4l-0.6-1c1.7-0.6,2.6-1.9,2.6-3.2v-0.1h-2.3v-1h5.8v1h-2.3
				v0.1c0,1.2,0.9,2.4,2.5,2.9L159.2,3386.5z M162.7,3390.7v1h-7.4v-2.8h5.8v-0.9h-5.8v-1h7.1v2.7h-5.8v1H162.7z M161.1,3383.3v-2.3
				h1.2v5.6h-1.2v-2.2h-1.9v-1H161.1z"/>
			<path d="M169.9,3381.6c0,2.8-1.9,4.8-5.1,5.6l-0.5-1c2.5-0.7,4-2,4.2-3.6h-3.7v-1H169.9z M165.9,3387.6h6.9v4.1h-6.9V3387.6z
				 M167.1,3390.7h4.5v-2.1h-4.5V3390.7z M174.4,3384.5h-1.5v2.6h-1.2v-6.1h1.2v2.5h1.5V3384.5z"/>
			<path d="M181.9,3386.6c-1.6,0.3-3,0.3-5.1,0.3h-0.9v-3.2h3.7v-1.2h-3.7v-1h4.9v3.1h-3.7v1.2c1.9,0,3.2-0.1,4.7-0.3L181.9,3386.6z
				 M184,3389.8c0,1.3-1.4,2-3.6,2s-3.6-0.7-3.6-2c0-1.3,1.4-2,3.6-2S184,3388.5,184,3389.8z M182.8,3389.8c0-0.7-0.9-1.1-2.4-1.1
				c-1.5,0-2.4,0.4-2.4,1.1c0,0.7,0.9,1.1,2.4,1.1C181.9,3390.9,182.8,3390.5,182.8,3389.8z M183.9,3383.6v1.3h1.5v1h-1.5v1.7h-1.2
				v-6.6h1.2v1.6h1.5v1H183.9z"/>
		</g>
	</g>
	<g>
		<g class="st0">
			<path d="M242.3,3381.8c0,2.9-1.9,4.9-5.1,5.9l-0.5-1c2.5-0.8,4-2.2,4.2-3.9h-3.8v-1H242.3z M239.6,3390.6h6v1h-7.3v-3.6h1.2
				V3390.6z M246.7,3384.2v1h-1.5v3.7H244v-7.8h1.2v3.2H246.7z"/>
			<path d="M253.6,3386.9c-1.2-0.4-2.1-1.3-2.5-2.3c-0.5,1.2-1.4,2.1-2.7,2.6l-0.6-1c1.7-0.6,2.7-2,2.7-3.5v-0.1h-2.3v-1h5.8v1h-2.3
				v0.1c0,1.3,0.9,2.7,2.5,3.2L253.6,3386.9z M255.5,3387.4h1.2v4.3h-7v-4.3h1.2v1.2h4.6V3387.4z M255.5,3389.5h-4.6v1.2h4.6V3389.5
				z M256.8,3381v5.9h-1.2v-2.4h-1.9v-1h1.9v-2.5H256.8z"/>
			<path d="M267.4,3381.2h1.2v10.1h-1.2v-5.2h-1.2c-0.1,2.1-1,3.4-2.3,3.4c-1.4,0-2.3-1.5-2.3-3.9c0-2.4,0.9-3.8,2.3-3.8
				c1.3,0,2.2,1.2,2.3,3.3h1.2V3381.2z M265.2,3385.7c0-1.7-0.5-2.7-1.2-2.7c-0.7,0-1.2,1-1.2,2.7c0,1.7,0.5,2.7,1.2,2.7
				C264.7,3388.3,265.2,3387.4,265.2,3385.7z M270.8,3381v10.8h-1.2V3381H270.8z"/>
			<path d="M274.4,3388.2c1.5,0,3-0.1,4.5-0.4l0.1,1c-1.7,0.3-3.3,0.4-5,0.4h-0.9v-7.1h1.2V3388.2z M281.6,3381v10.9h-1.2v-6.4h-3.1
				v-1h3.1v-3.5H281.6z"/>
			<path d="M287.6,3384.1c0,1.8,1.1,3.7,2.8,4.4l-0.7,1c-1.3-0.6-2.2-1.7-2.7-3.1c-0.5,1.5-1.5,2.8-2.7,3.4l-0.7-1
				c1.7-0.8,2.8-2.8,2.8-4.7v-1h-2.4v-1h6.1v1h-2.4V3384.1z M292.5,3381v10.8h-1.2V3381H292.5z"/>
			<path d="M303.2,3386.5c-1.2-0.4-2.1-1.2-2.6-2.1c-0.5,1.1-1.4,2-2.7,2.4l-0.6-1c1.7-0.6,2.6-1.9,2.6-3.2v-0.1h-2.3v-1h5.8v1h-2.3
				v0.1c0,1.2,0.9,2.4,2.5,2.9L303.2,3386.5z M306.7,3390.7v1h-7.4v-2.8h5.8v-0.9h-5.8v-1h7.1v2.7h-5.8v1H306.7z M305.1,3383.3v-2.3
				h1.2v5.6h-1.2v-2.2h-1.9v-1H305.1z"/>
			<path d="M313.9,3381.6c0,2.8-1.9,4.8-5.1,5.6l-0.5-1c2.5-0.7,4-2,4.2-3.6h-3.7v-1H313.9z M309.9,3387.6h6.9v4.1h-6.9V3387.6z
				 M311.1,3390.7h4.5v-2.1h-4.5V3390.7z M318.4,3384.5h-1.5v2.6h-1.2v-6.1h1.2v2.5h1.5V3384.5z"/>
			<path d="M325.9,3386.6c-1.6,0.3-3,0.3-5.1,0.3h-0.9v-3.2h3.7v-1.2h-3.7v-1h4.9v3.1h-3.7v1.2c1.9,0,3.2-0.1,4.7-0.3L325.9,3386.6z
				 M328,3389.8c0,1.3-1.4,2-3.6,2c-2.2,0-3.6-0.7-3.6-2c0-1.3,1.4-2,3.6-2C326.6,3387.8,328,3388.5,328,3389.8z M326.8,3389.8
				c0-0.7-0.9-1.1-2.4-1.1c-1.5,0-2.4,0.4-2.4,1.1c0,0.7,0.9,1.1,2.4,1.1C325.9,3390.9,326.8,3390.5,326.8,3389.8z M327.9,3383.6
				v1.3h1.5v1h-1.5v1.7h-1.2v-6.6h1.2v1.6h1.5v1H327.9z"/>
		</g>
	</g>
	<g class="st0">
		<path class="st4" d="M136.1,3419.7h-2.7v-0.9h6.4v0.9h-2.7v7.9h-1.1V3419.7z"/>
		<path class="st4" d="M139,3426.3l0.8-0.6c0.4,0.7,0.9,1,1.5,1c0.9,0,1.4-0.5,1.4-1.9v-6.1h1.1v6.2c0,1.5-0.7,2.7-2.4,2.7
			C140.3,3427.7,139.5,3427.2,139,3426.3z"/>
	</g>
	<g class="st0">
		<path class="st4" d="M280.1,3419.7h-2.7v-0.9h6.4v0.9h-2.7v7.9h-1.1V3419.7z"/>
		<path class="st4" d="M283,3426.3l0.8-0.6c0.4,0.7,0.9,1,1.5,1c0.9,0,1.4-0.5,1.4-1.9v-6.1h1.1v6.2c0,1.5-0.7,2.7-2.4,2.7
			C284.3,3427.7,283.5,3427.2,283,3426.3z"/>
	</g>
	<g class="st0">
		<path class="st4" d="M133.4,3463.6h2v-6.6h-1.6v-0.7c0.8-0.1,1.3-0.3,1.8-0.6h0.8v7.9h1.8v0.9h-4.8V3463.6z"/>
		<path class="st4" d="M139.6,3460.1c0-3.1,1.1-4.5,2.7-4.5c1.7,0,2.7,1.5,2.7,4.5c0,3.1-1.1,4.6-2.7,4.6
			C140.7,3464.7,139.6,3463.1,139.6,3460.1z M144,3460.1c0-2.6-0.7-3.6-1.7-3.6c-1,0-1.7,1.1-1.7,3.6c0,2.6,0.7,3.7,1.7,3.7
			C143.3,3463.8,144,3462.7,144,3460.1z"/>
	</g>
	<g class="st0">
		<path class="st4" d="M268.6,3462.3c0-1.2,0.8-2,1.6-2.4v-0.1c-0.6-0.4-1.2-1.1-1.2-2c0-1.3,1-2.2,2.4-2.2c1.5,0,2.4,1,2.4,2.3
			c0,0.9-0.6,1.7-1.2,2.1v0.1c0.8,0.4,1.5,1.1,1.5,2.3c0,1.3-1.1,2.3-2.8,2.3C269.7,3464.7,268.6,3463.7,268.6,3462.3z
			 M273.1,3462.4c0-1.2-1.1-1.6-2.3-2.1c-0.7,0.5-1.2,1.2-1.2,2c0,0.9,0.8,1.6,1.8,1.6C272.4,3463.8,273.1,3463.2,273.1,3462.4z
			 M272.9,3458c0-0.9-0.6-1.6-1.5-1.6c-0.8,0-1.4,0.6-1.4,1.4c0,1.1,0.9,1.5,2,1.9C272.6,3459.2,272.9,3458.6,272.9,3458z"/>
		<path class="st4" d="M275.3,3466.1c0.7-0.3,1.2-0.9,1.2-1.6c0,0-0.1,0-0.1,0c-0.4,0-0.8-0.3-0.8-0.8c0-0.5,0.4-0.8,0.8-0.8
			c0.6,0,0.9,0.5,0.9,1.3c0,1.2-0.7,2.1-1.8,2.5L275.3,3466.1z"/>
		<path class="st4" d="M278.5,3463.9c2.8-2.4,4-4.2,4-5.7c0-1-0.5-1.7-1.6-1.7c-0.7,0-1.3,0.4-1.8,1l-0.6-0.6
			c0.7-0.8,1.5-1.3,2.6-1.3c1.6,0,2.6,1,2.6,2.6c0,1.8-1.4,3.5-3.4,5.5c0.5,0,1-0.1,1.4-0.1h2.4v0.9h-5.5V3463.9z"/>
		<path class="st4" d="M285.3,3460.1c0-3.1,1.1-4.5,2.7-4.5c1.7,0,2.7,1.5,2.7,4.5c0,3.1-1.1,4.6-2.7,4.6
			C286.3,3464.7,285.3,3463.1,285.3,3460.1z M289.7,3460.1c0-2.6-0.7-3.6-1.7-3.6c-1,0-1.7,1.1-1.7,3.6c0,2.6,0.7,3.7,1.7,3.7
			C289,3463.8,289.7,3462.7,289.7,3460.1z"/>
		<path class="st4" d="M296.7,3457.1c-0.3-0.4-0.9-0.7-1.4-0.7c-1.2,0-2.2,0.9-2.3,3.7c0.5-0.7,1.3-1.1,2-1.1c1.5,0,2.4,0.9,2.4,2.8
			c0,1.7-1.2,2.9-2.5,2.9c-1.7,0-2.9-1.5-2.9-4.4c0-3.4,1.5-4.8,3.3-4.8c0.9,0,1.6,0.4,2.1,0.9L296.7,3457.1z M296.4,3461.8
			c0-1.2-0.5-1.9-1.6-1.9c-0.6,0-1.2,0.3-1.8,1.1c0.1,1.8,0.8,2.8,1.9,2.8C295.8,3463.8,296.4,3463,296.4,3461.8z"/>
	</g>
	<g class="st0">
		<path class="st4" d="M138.6,3499.1h-1.2v2.4h-1v-2.4h-3.8v-0.7l3.7-5.6h1.2v5.5h1.2V3499.1z M136.4,3498.2v-2.7
			c0-0.4,0-1.1,0.1-1.6h0c-0.2,0.4-0.5,0.9-0.7,1.3l-2,3H136.4z"/>
		<path class="st4" d="M139.5,3500.9c2.8-2.4,4-4.2,4-5.7c0-1-0.5-1.7-1.6-1.7c-0.7,0-1.3,0.4-1.8,1l-0.6-0.6
			c0.7-0.8,1.5-1.3,2.6-1.3c1.6,0,2.6,1,2.6,2.6c0,1.8-1.4,3.5-3.4,5.5c0.5,0,1-0.1,1.4-0.1h2.4v0.9h-5.5V3500.9z"/>
	</g>
	<g class="st0">
		<path class="st4" d="M268.6,3499.3c0-1.2,0.8-2,1.6-2.4v-0.1c-0.6-0.4-1.2-1.1-1.2-2c0-1.3,1-2.2,2.4-2.2c1.5,0,2.4,1,2.4,2.3
			c0,0.9-0.6,1.7-1.2,2.1v0.1c0.8,0.4,1.5,1.1,1.5,2.3c0,1.3-1.1,2.3-2.8,2.3C269.7,3501.7,268.6,3500.7,268.6,3499.3z
			 M273.1,3499.4c0-1.2-1.1-1.6-2.3-2.1c-0.7,0.5-1.2,1.2-1.2,2c0,0.9,0.8,1.6,1.8,1.6C272.4,3500.8,273.1,3500.2,273.1,3499.4z
			 M272.9,3495c0-0.9-0.6-1.6-1.5-1.6c-0.8,0-1.4,0.6-1.4,1.4c0,1.1,0.9,1.5,2,1.9C272.6,3496.2,272.9,3495.6,272.9,3495z"/>
		<path class="st4" d="M275.3,3503.1c0.7-0.3,1.2-0.9,1.2-1.6c0,0-0.1,0-0.1,0c-0.4,0-0.8-0.3-0.8-0.8c0-0.5,0.4-0.8,0.8-0.8
			c0.6,0,0.9,0.5,0.9,1.3c0,1.2-0.7,2.1-1.8,2.5L275.3,3503.1z"/>
		<path class="st4" d="M278.4,3500.5l0.6-0.7c0.5,0.5,1.2,1,2.2,1c1,0,1.8-0.6,1.8-1.6c0-1.1-0.7-1.8-2.7-1.8v-0.8
			c1.8,0,2.4-0.7,2.4-1.7c0-0.9-0.6-1.4-1.5-1.4c-0.7,0-1.3,0.4-1.8,0.9l-0.6-0.7c0.7-0.6,1.4-1.1,2.5-1.1c1.5,0,2.6,0.8,2.6,2.2
			c0,1.1-0.6,1.8-1.6,2.1v0c1,0.2,1.9,1,1.9,2.2c0,1.6-1.3,2.5-2.8,2.5C279.8,3501.7,278.9,3501.1,278.4,3500.5z"/>
		<path class="st4" d="M289.5,3493.7h-4.3v-0.9h5.5v0.7c-2.1,2.7-2.4,4.7-2.6,8.1H287C287.2,3498.2,287.8,3496,289.5,3493.7z"/>
		<path class="st4" d="M296.2,3493.7h-4.3v-0.9h5.5v0.7c-2.1,2.7-2.4,4.7-2.6,8.1h-1.1C293.8,3498.2,294.5,3496,296.2,3493.7z"/>
	</g>
	<g class="st0">
		<path class="st4" d="M133.4,3536.6h2v-6.6h-1.6v-0.7c0.8-0.1,1.3-0.3,1.8-0.6h0.8v7.9h1.8v0.9h-4.8V3536.6z"/>
		<path class="st4" d="M139.6,3533.1c0-3.1,1.1-4.5,2.7-4.5c1.7,0,2.7,1.5,2.7,4.5c0,3.1-1.1,4.6-2.7,4.6
			C140.7,3537.7,139.6,3536.1,139.6,3533.1z M144,3533.1c0-2.6-0.7-3.6-1.7-3.6c-1,0-1.7,1.1-1.7,3.6c0,2.6,0.7,3.7,1.7,3.7
			C143.3,3536.8,144,3535.7,144,3533.1z"/>
	</g>
	<g class="st0">
		<path class="st4" d="M269.1,3536.6h2v-6.6h-1.6v-0.7c0.8-0.1,1.3-0.3,1.8-0.6h0.8v7.9h1.8v0.9h-4.8V3536.6z"/>
		<path class="st4" d="M275.3,3539.1c0.7-0.3,1.2-0.9,1.2-1.6c0,0-0.1,0-0.1,0c-0.4,0-0.8-0.3-0.8-0.8c0-0.5,0.4-0.8,0.8-0.8
			c0.6,0,0.9,0.5,0.9,1.3c0,1.2-0.7,2.1-1.8,2.5L275.3,3539.1z"/>
		<path class="st4" d="M284.3,3535.1h-1.2v2.4h-1v-2.4h-3.8v-0.7l3.7-5.6h1.2v5.5h1.2V3535.1z M282.1,3534.2v-2.7
			c0-0.4,0-1.1,0.1-1.6h0c-0.2,0.4-0.5,0.9-0.7,1.3l-2,3H282.1z"/>
		<path class="st4" d="M285.2,3535.3c0-1.2,0.8-2,1.6-2.4v-0.1c-0.6-0.4-1.2-1.1-1.2-2c0-1.3,1-2.2,2.4-2.2c1.5,0,2.4,1,2.4,2.3
			c0,0.9-0.6,1.7-1.2,2.1v0.1c0.8,0.4,1.5,1.1,1.5,2.3c0,1.3-1.1,2.3-2.8,2.3C286.4,3537.7,285.2,3536.7,285.2,3535.3z
			 M289.7,3535.4c0-1.2-1.1-1.6-2.3-2.1c-0.7,0.5-1.2,1.2-1.2,2c0,0.9,0.8,1.6,1.8,1.6C289,3536.8,289.7,3536.2,289.7,3535.4z
			 M289.5,3531c0-0.9-0.6-1.6-1.5-1.6c-0.8,0-1.4,0.6-1.4,1.4c0,1.1,0.9,1.5,2,1.9C289.2,3532.2,289.5,3531.6,289.5,3531z"/>
		<path class="st4" d="M296.2,3529.7h-4.3v-0.9h5.5v0.7c-2.1,2.7-2.4,4.7-2.6,8.1h-1.1C293.8,3534.2,294.5,3532,296.2,3529.7z"/>
	</g>
	<line id="선_381" class="st3" x1="67.4" y1="3368.7" x2="67.4" y2="3551.2"/>
	<path id="패스_4993" class="st3" d="M211,3369v182.5"/>
	<path id="패스_2717" class="st5" d="M20.2,3368.7h334.6"/>
	<line id="선_348-4" class="st5" x1="20.2" y1="3551.5" x2="354.8" y2="3551.5"/>
</g>
</svg>
