<?xml version="1.0" encoding="utf-8"?>
<!-- Generator: Adobe Illustrator 25.1.0, SVG Export Plug-In . SVG Version: 6.00 Build 0)  -->
<svg version="1.1" id="레이어_1" xmlns="http://www.w3.org/2000/svg" xmlns:xlink="http://www.w3.org/1999/xlink" x="0px"
	 y="0px" viewBox="0 0 464.1 339" style="enable-background:new 0 0 464.1 339;" xml:space="preserve">
<style type="text/css">
	.st0{enable-background:new    ;}
	.st1{fill:#F5F5F5;}
	.st2{fill:none;stroke:#707070;}
	.st3{fill:none;stroke:#BCBEC1;stroke-width:1.018;}
	.st4{fill:none;stroke:#BCBEC1;}
	.st5{fill:#DF1C2F;}
	.st6{fill:#6E6E6E;}
	.st7{fill:none;stroke:#DF1C2F;stroke-linecap:square;stroke-dasharray:3.5;}
	.st8{fill:#95989F;}
</style>
<g id="그룹_5877" transform="translate(-715.896 -1181)">
	<g id="그룹_4966" transform="translate(0 -139.933)">
		<g class="st0">
			<path d="M751.1,1335.1c0,4.1-2.1,6.6-4.8,6.6c-2.8,0-4.8-2.5-4.8-6.6c0-4,2.1-6.6,4.8-6.6S751.1,1331,751.1,1335.1z
				 M743.9,1335.1c0,2.7,0.9,4.2,2.3,4.2s2.3-1.5,2.3-4.2s-0.9-4.2-2.3-4.2S743.9,1332.4,743.9,1335.1z M756.1,1327.2v18.5h-2.6
				v-18.5H756.1z"/>
			<path d="M775.9,1339.5h-3.7v6.2h-2.6v-6.2h-3.9v6.2h-2.6v-6.2h-3.8v-2.1H776v2.1H775.9z M774.3,1336c-3.2-0.5-5.5-2-6.7-4
				c-1.2,2-3.5,3.5-6.7,4l-1-2.1c4.2-0.6,6.3-3,6.3-5.2v-0.9h2.8v0.9c0,2.2,2.1,4.6,6.3,5.2L774.3,1336z"/>
			<path d="M791.8,1338.2c-1.9-0.7-3.2-2-4-3.7c-0.8,1.9-2.2,3.4-4.3,4.2l-1.4-2.1c3-1,4.3-3.6,4.3-6.2v-2h2.7v2
				c0,2.4,1.2,4.7,4.1,5.8L791.8,1338.2z M798,1343.2v2.1h-12.6v-5.9h2.6v3.8H798z M795,1333.3h-3.4v-2.1h3.4v-3.9h2.6v13.6H795
				V1333.3z"/>
			<path d="M810.4,1337.7c-2-0.7-3.4-2-4.2-3.6c-0.8,1.9-2.3,3.4-4.4,4.1l-1.3-2.1c2.9-1,4.3-3.4,4.3-5.7h-3.6v-2.1h9.9v2.1h-3.6
				c0.1,2.1,1.4,4.3,4.2,5.2L810.4,1337.7z M816.1,1342.1c0,2.2-2.4,3.5-6.3,3.5c-3.9,0-6.3-1.3-6.3-3.5s2.4-3.5,6.3-3.5
				C813.7,1338.6,816.1,1339.9,816.1,1342.1z M813.4,1342.1c0-1-1.3-1.5-3.7-1.5s-3.7,0.5-3.7,1.5s1.3,1.5,3.7,1.5
				C812.2,1343.7,813.4,1343.2,813.4,1342.1z M813.4,1331.7v-4.4h2.6v11h-2.6v-4.4h-2.8v-2.1L813.4,1331.7L813.4,1331.7z"/>
			<path d="M828.9,1328.8h2.4v12.4H824v-12.4h2.5v4.2h2.4L828.9,1328.8L828.9,1328.8z M828.9,1335.1h-2.4v4.1h2.4V1335.1z
				 M839.3,1327.2v18.4h-2.5v-9.3h-1.5v8.5h-2.5v-17.3h2.5v6.7h1.5v-7L839.3,1327.2L839.3,1327.2z"/>
			<path d="M850.9,1332.3c-1.1,2.9-3.7,4.9-7.8,6l-1-2.1c4.2-1.1,6.2-3.1,6.6-5.6h-5.6v-2.1h8.4c0,0.6,0,1.1-0.1,1.7h3.3v-2.9h2.6
				v10.6h-2.6v-1.8h-4.1v-2.1h4.1v-1.7H850.9z M857.5,1341.8c0,2.3-2.5,3.7-6.2,3.7c-3.8,0-6.2-1.4-6.2-3.7c0-2.3,2.5-3.7,6.2-3.7
				C855,1338.1,857.5,1339.5,857.5,1341.8z M854.9,1341.8c0-1.1-1.3-1.7-3.6-1.7s-3.6,0.6-3.6,1.7s1.3,1.7,3.6,1.7
				C853.5,1343.5,854.9,1342.9,854.9,1341.8z"/>
		</g>
	</g>
	<rect id="사각형_510" x="740.7" y="1224.5" class="st1" width="439.3" height="294.6"/>
	<path id="패스_4977" class="st2" d="M740.5,1224.5v295H1180"/>
	<path id="패스_2432" class="st3" d="M1179.3,1451.8H739.9"/>
	<path id="패스_2433" class="st4" d="M855.3,1224.9v294.2"/>
	<g class="st0">
		<path class="st5" d="M1012.6,1327.6h1.4v12.6h-1.4v-6.5h-1.4c-0.1,2.6-1.2,4.3-2.9,4.3c-1.8,0-2.9-1.8-2.9-4.8s1.2-4.8,2.9-4.8
			c1.6,0,2.7,1.5,2.9,4.1h1.5L1012.6,1327.6L1012.6,1327.6z M1009.8,1333.1c0-2.1-0.6-3.3-1.5-3.3s-1.5,1.2-1.5,3.3
			c0,2.1,0.6,3.4,1.5,3.4S1009.8,1335.3,1009.8,1333.1z M1016.8,1327.3v13.5h-1.5v-13.5H1016.8z"/>
		<path class="st5" d="M1021.3,1336.3c1.9,0,3.7-0.2,5.6-0.5l0.2,1.3c-2.2,0.4-4.1,0.6-6.2,0.6h-1.1v-8.8h1.5V1336.3z
			 M1030.3,1327.3v13.6h-1.5v-8h-3.9v-1.3h3.9v-4.3L1030.3,1327.3L1030.3,1327.3z"/>
		<path class="st5" d="M1037.9,1331.2c0,2.2,1.4,4.6,3.5,5.5l-0.9,1.2c-1.6-0.7-2.8-2.2-3.4-3.9c-0.6,1.9-1.8,3.5-3.4,4.3l-0.9-1.2
			c2.1-1,3.5-3.5,3.5-5.8v-1.3h-3v-1.3h7.6v1.3h-3L1037.9,1331.2L1037.9,1331.2z M1044,1327.3v13.5h-1.6v-13.5H1044z"/>
		<path class="st5" d="M1062.3,1337.9v1.3H1050v-1.3h5.3v-3.2h1.5v3.2H1062.3z M1061.1,1335c-2.2-0.4-4.1-1.8-5-3.6
			c-0.9,1.8-2.8,3.1-5,3.6l-0.7-1.3c2.7-0.5,4.9-2.5,4.9-4.6v-1h1.6v1c0,2.1,2.2,4.1,4.8,4.6L1061.1,1335z"/>
		<path class="st5" d="M1066.1,1328.4v3.4h3.4v-3.4h1.5v9.2h-6.5v-9.2H1066.1z M1066.1,1336.4h3.4v-3.3h-3.4V1336.4z M1075,1327.3
			v13.6h-1.6v-13.6H1075z"/>
		<path class="st5" d="M1085.7,1334.3c-2,0.4-3.8,0.4-6.4,0.4h-1.1v-4h4.6v-1.5h-4.6v-1.2h6.1v3.9h-4.6v1.5c2.3,0,4-0.1,5.8-0.4
			L1085.7,1334.3z M1088.3,1338.3c0,1.6-1.7,2.5-4.5,2.5s-4.5-0.9-4.5-2.5s1.7-2.5,4.5-2.5
			C1086.6,1335.8,1088.3,1336.7,1088.3,1338.3z M1086.8,1338.3c0-0.9-1.1-1.3-3-1.3s-3,0.5-3,1.3c0,0.9,1.1,1.3,3,1.3
			C1085.7,1339.7,1086.8,1339.2,1086.8,1338.3z M1088.2,1330.6v1.6h1.9v1.3h-1.9v2.1h-1.5v-8.2h1.5v2h1.9v1.3h-1.9V1330.6z"/>
		<path class="st5" d="M1103.2,1334.9c-2.8,0.5-6,0.6-8.4,0.6l-0.2-1.3c0.8,0,1.7,0,2.7,0v-2.8h1.5v2.7c1.4-0.1,2.9-0.2,4.2-0.4
			L1103.2,1334.9z M1100.5,1332.9c0.3-1.5,0.3-2.5,0.3-3.4h-5.3v-1.3h6.8v0.8c0,0.9,0,2.2-0.3,4L1100.5,1332.9z M1098.3,1339.3h7.6
			v1.3h-9.2v-4h1.6V1339.3z M1107.3,1331.6v1.3h-1.8v4.6h-1.6v-10.2h1.6v4.3L1107.3,1331.6L1107.3,1331.6z"/>
		<path class="st5" d="M1110.9,1336.4c2.1,0,4-0.1,6.2-0.5l0.2,1.3c-2.3,0.4-4.3,0.5-6.7,0.5h-1.2v-5.4h4.7v-2.5h-4.8v-1.3h6.3v5
			h-4.7V1336.4z M1119.8,1327.3v13.6h-1.6v-13.6H1119.8z"/>
	</g>
	<g class="st0">
		<path class="st5" d="M1012.4,1355.8h-6.4v-5.6h6.4V1355.8z M1012.8,1359c0.1,1.1,1.9,2.3,4.4,2.6l-0.5,1.2
			c-2.1-0.3-3.8-1.1-4.6-2.3c-0.8,1.2-2.5,2-4.7,2.3l-0.5-1.2c2.5-0.3,4.3-1.4,4.4-2.6h-3.9v-1.2h3.9v-1.2h1.6v1.2h3.9v1.2H1012.8z
			 M1010.9,1351.4h-3.4v3.2h3.4V1351.4z M1016.4,1357h-1.6v-7.7h1.6V1357z"/>
		<path class="st5" d="M1034.7,1360.1v1.3h-12.3v-1.3h3.1v-2.4c-1-0.4-1.5-1.1-1.5-2c0-1.6,1.7-2.6,4.5-2.6s4.5,0.9,4.5,2.6
			c0,0.9-0.5,1.6-1.5,2v2.4H1034.7z M1034.1,1352.4H1023v-1.2h4.8v-1.7h1.5v1.7h4.8L1034.1,1352.4L1034.1,1352.4z M1025.6,1355.7
			c0,0.9,1.1,1.4,2.9,1.4c1.9,0,2.9-0.5,2.9-1.4s-1.1-1.4-2.9-1.4C1026.7,1354.4,1025.6,1354.8,1025.6,1355.7z M1027.1,1360.1h3v-2
			c-0.5,0.1-0.9,0.1-1.5,0.1c-0.5,0-1,0-1.5-0.1V1360.1z"/>
		<path class="st5" d="M1045.2,1356v1.2h1.7v3.2h-7.7v1.1h8.1v1.2h-9.6v-3.4h7.7v-1h-7.8v-1.2h1.8v-1.2h-3.2v-1.2h12.3v1.2h-3.3
			V1356z M1037.5,1351.8c0-1.5,1.8-2.3,4.8-2.3s4.8,0.8,4.8,2.3s-1.8,2.3-4.8,2.3C1039.3,1354.1,1037.5,1353.3,1037.5,1351.8z
			 M1039.1,1351.8c0,0.8,1.1,1.2,3.2,1.2s3.2-0.4,3.2-1.2c0-0.8-1.1-1.2-3.2-1.2C1040.3,1350.6,1039.1,1351,1039.1,1351.8z
			 M1043.7,1356h-2.7v1.2h2.7V1356z"/>
		<path class="st5" d="M1065.7,1355.7v1.2h-12.3v-1.2H1065.7z M1054,1353.8c2.5-0.3,4.3-1.3,4.5-2.6h-3.9v-1.2h10v1.2h-4
			c0.2,1.2,1.9,2.3,4.5,2.6l-0.5,1.2c-2.4-0.3-4.2-1.2-5-2.6c-0.7,1.4-2.6,2.4-5,2.6L1054,1353.8z M1064.2,1360.4
			c0,1.6-1.8,2.5-4.7,2.5c-2.9,0-4.7-0.9-4.7-2.5s1.8-2.5,4.7-2.5C1062.4,1357.9,1064.2,1358.8,1064.2,1360.4z M1062.6,1360.4
			c0-0.8-1.1-1.3-3.1-1.3s-3.1,0.4-3.1,1.3c0,0.8,1.1,1.3,3.1,1.3C1061.5,1361.6,1062.6,1361.2,1062.6,1360.4z"/>
		<path class="st5" d="M1069.2,1358.3c1.6,0,2.8-0.1,4.2-0.4l0.1,1.3c-1.6,0.3-3,0.4-4.9,0.4h-0.9v-8.7h5v1.3h-3.5L1069.2,1358.3
			L1069.2,1358.3z M1078.8,1349.3v13.5h-1.5v-6.9h-1.6v6.3h-1.5v-12.6h1.5v5.1h1.6v-5.4H1078.8z"/>
	</g>
	<g class="st0">
		<path class="st5" d="M927.3,1296.4c-1.6-0.5-2.7-1.5-3.3-2.7c-0.6,1.4-1.8,2.5-3.4,3l-0.8-1.2c2.1-0.7,3.3-2.3,3.3-4.1v-0.2h-2.9
			v-1.2h2.9v-1.6h1.5v1.6h2.9v1.2h-2.9v0.2c0,1.7,1.2,3.2,3.3,3.8L927.3,1296.4z M931.2,1300.2v1.3H922v-4.2h1.6v3h7.6V1300.2z
			 M930.8,1298.2h-1.5v-10h1.5V1298.2z"/>
		<path class="st5" d="M941.9,1296.7c-2.8,0.5-6.1,0.6-8.4,0.6l-0.2-1.2c1,0,2.2,0,3.4,0v-0.9c-1.5-0.2-2.5-0.9-2.5-2
			c0-1.3,1.3-2.1,3.2-2.1s3.2,0.8,3.2,2.1c0,1.1-0.9,1.8-2.4,2v0.9c1.2-0.1,2.4-0.2,3.4-0.3L941.9,1296.7z M941.4,1290.5h-7.7v-1.1
			h3.1v-1.3h1.6v1.3h3.1L941.4,1290.5L941.4,1290.5z M936.8,1300.2h7.7v1.3h-9.2v-3.4h1.5V1300.2z M937.5,1294.1
			c1.1,0,1.8-0.4,1.8-1s-0.7-1-1.8-1s-1.8,0.4-1.8,1C935.8,1293.7,936.5,1294.1,937.5,1294.1z M945.9,1292.8v1.3H944v4.7h-1.5v-10.6
			h1.5v4.6H945.9z"/>
		<path class="st5" d="M953.8,1291.8c-0.8,2.2-2.8,3.7-5.8,4.5l-0.6-1.2c3.2-0.9,4.9-2.5,5.2-4.7h-4.5v-1.2h6.1c0,0.5,0,0.9-0.1,1.3
			h2.8v-2.3h1.5v8h-1.5v-1.6h-3.3v-1.3h3.3v-1.6L953.8,1291.8L953.8,1291.8z M958.6,1299c0,1.7-1.8,2.7-4.5,2.7s-4.5-1-4.5-2.7
			s1.8-2.7,4.5-2.7S958.6,1297.3,958.6,1299z M957,1299c0-0.9-1.2-1.5-3-1.5s-3,0.5-3,1.5c0,0.9,1.2,1.5,3,1.5
			C955.9,1300.5,957,1299.9,957,1299z"/>
		<path class="st5" d="M968.5,1291.9c0,2.3,0.9,4.7,2.8,5.7l-0.9,1.1c-1.3-0.8-2.1-2.1-2.6-3.7c-0.5,1.7-1.3,3.2-2.7,4l-0.9-1.1
			c1.9-1.2,2.8-3.6,2.8-6.1v-1h-2.4v-1.3h6.1v1.3h-2.2L968.5,1291.9L968.5,1291.9z M971.8,1288.4h1.5v12.6h-1.5v-6.9h-2v-1.3h2
			V1288.4z M976,1288.2v13.5h-1.5v-13.5H976z"/>
		<path class="st5" d="M985.1,1295.9v1.4h3.9v4.3h-9.3v-4.3h3.9v-1.4h-5.4v-1.2h12.3v1.2H985.1z M981.2,1289.8h-1.9v-1.2h10v1.2
			h-1.9v2.5h1.8v1.2h-9.9v-1.2h1.8v-2.5H981.2z M987.5,1298.5h-6.3v1.8h6.3V1298.5z M985.9,1289.8h-3.1v2.5h3.1V1289.8z"/>
		<path class="st5" d="M1002.5,1294.6h-6.4v-5.6h6.4V1294.6z M1002.9,1297.9c0.1,1.1,1.9,2.3,4.4,2.6l-0.5,1.2
			c-2.1-0.3-3.8-1.1-4.7-2.3c-0.8,1.2-2.5,2-4.7,2.3l-0.5-1.2c2.5-0.3,4.3-1.4,4.4-2.6h-3.9v-1.2h3.9v-1.2h1.6v1.2h3.9v1.2H1002.9z
			 M1001,1290.3h-3.4v3.2h3.4V1290.3z M1006.6,1295.9h-1.6v-7.7h1.6V1295.9z"/>
		<path class="st5" d="M1017.5,1291.5c0,2.5,1.3,5,3.4,5.9l-0.9,1.2c-1.5-0.8-2.6-2.2-3.2-4.1c-0.6,1.9-1.7,3.5-3.3,4.3l-1-1.2
			c2.1-1,3.4-3.6,3.4-6.2v-2.2h1.6V1291.5z M1023.8,1288.2v13.6h-1.6v-7.9h-2.9v-1.3h2.9v-4.5h1.6V1288.2z"/>
		<path class="st5" d="M1028.6,1289.3v3.4h3.4v-3.4h1.5v9.2h-6.5v-9.2H1028.6z M1028.6,1297.3h3.4v-3.3h-3.4V1297.3z M1037.5,1288.2
			v13.6h-1.6v-13.6H1037.5z"/>
		<path class="st5" d="M1052.4,1298.7v1.3h-12.3v-1.3H1052.4z M1051.2,1296.1c-2.2-0.5-4.1-1.9-5-3.7c-0.9,1.9-2.8,3.3-5,3.7
			l-0.7-1.3c2.7-0.5,4.8-2.6,4.8-4.7v-1h1.6v1c0,2.2,2.2,4.2,4.8,4.7L1051.2,1296.1z"/>
		<path class="st5" d="M1063.2,1289.9c0,3.6-1.2,6.8-5,9l-0.9-1.1c2.9-1.7,4.2-3.9,4.4-6.6h-3.8v-1.3H1063.2z M1068.9,1288.2v13.5
			h-1.5v-7h-1.5v6.4h-1.5v-12.6h1.5v4.9h1.5v-5.3L1068.9,1288.2L1068.9,1288.2z"/>
		<path class="st5" d="M1078,1294.7h-6.4v-5.9h1.5v1.8h3.3v-1.8h1.5L1078,1294.7L1078,1294.7z M1074.5,1300.4h7.6v1.2h-9.2v-3.6h7.2
			v-1.1h-7.2v-1.2h8.7v3.5h-7.2L1074.5,1300.4L1074.5,1300.4z M1076.5,1291.7h-3.3v1.7h3.3V1291.7z M1083.6,1291v1.3h-1.9v2.9h-1.5
			v-6.9h1.5v2.8h1.9V1291z"/>
	</g>
	<g class="st0">
		<path class="st6" d="M1063.2,1496.7c0,2.9-1.4,4.7-3.4,4.7s-3.4-1.8-3.4-4.7c0-2.9,1.4-4.7,3.4-4.7S1063.2,1493.8,1063.2,1496.7z
			 M1057.5,1496.7c0,2.2,0.9,3.6,2.2,3.6c1.3,0,2.2-1.4,2.2-3.6s-0.9-3.6-2.2-3.6C1058.4,1493.1,1057.5,1494.5,1057.5,1496.7z
			 M1066.9,1490.9v13.5h-1.2v-13.5H1066.9z"/>
		<path class="st6" d="M1073.6,1493.2h2.7v1h-6.7v-1h2.7v-1.9h1.2L1073.6,1493.2L1073.6,1493.2z M1075.9,1498.2
			c0,1.8-1.2,3.1-2.9,3.1c-1.7,0-2.9-1.2-2.9-3.1c0-1.8,1.2-3.1,2.9-3.1C1074.6,1495.1,1075.9,1496.4,1075.9,1498.2z M1074.8,1498.2
			c0-1.2-0.8-2-1.8-2c-1.1,0-1.8,0.9-1.8,2c0,1.2,0.7,2.1,1.8,2.1C1074,1500.2,1074.8,1499.4,1074.8,1498.2z M1081,1490.9v13.5h-1.2
			v-6.8h-1.7v6.1h-1.2v-12.5h1.2v5.4h1.7v-5.7H1081z"/>
		<path class="st6" d="M1091.9,1498.4c-2.8,0.5-6,0.5-8.4,0.5l-0.1-1c0.9,0,1.8,0,2.8,0v-2.9h1.2v2.9c1.5-0.1,3-0.2,4.4-0.4
			L1091.9,1498.4z M1089.3,1496.5c0.3-1.5,0.4-2.7,0.4-3.6h-5.5v-1h6.7v0.7c0,0.9,0,2.2-0.3,4L1089.3,1496.5z M1086.6,1503.1h7.7v1
			h-8.9v-3.9h1.2V1503.1z M1095.8,1495.3v1h-1.9v4.7h-1.2v-10.1h1.2v4.4H1095.8z"/>
		<path class="st6" d="M1104.8,1491.3h1.2v12.4h-1.2v-4.6h-2.4v-1h2.4v-2.4h-2.2c-0.6,2.3-2.1,4.3-4.6,5.8l-0.7-0.9
			c2.9-1.7,4.3-4.1,4.5-7h-3.9v-1h5.2c0,0.7-0.1,1.4-0.2,2h2L1104.8,1491.3L1104.8,1491.3z M1108.7,1490.9v13.4h-1.2v-13.4H1108.7z"
			/>
		<path class="st6" d="M1115.6,1495c0,2.1,1.5,4.5,3.5,5.4l-0.7,1c-1.5-0.8-2.8-2.3-3.4-4.1c-0.6,2-1.9,3.7-3.4,4.5l-0.7-1
			c1.9-1,3.5-3.5,3.5-5.8v-1.7h-3.1v-1h7.3v1h-3L1115.6,1495L1115.6,1495z M1123.6,1497.4h-2.2v7h-1.2V1491h1.2v5.4h2.2V1497.4z"/>
		<path class="st6" d="M1136.6,1498.4c-2.8,0.5-6,0.5-8.4,0.5l-0.1-1c0.9,0,1.8,0,2.8,0v-2.9h1.2v2.9c1.5-0.1,3-0.2,4.4-0.4
			L1136.6,1498.4z M1134.1,1496.5c0.3-1.5,0.4-2.7,0.4-3.6h-5.5v-1h6.7v0.7c0,0.9,0,2.2-0.3,4L1134.1,1496.5z M1131.4,1503.1h7.7v1
			h-8.9v-3.9h1.2V1503.1z M1140.6,1495.3v1h-1.9v4.7h-1.2v-10.1h1.2v4.4H1140.6z"/>
		<path class="st6" d="M1149.5,1498c-1.5-0.5-2.8-1.7-3.4-3.1c-0.6,1.6-1.8,2.8-3.4,3.4l-0.6-1c2-0.7,3.4-2.5,3.4-4.5v-1.3h1.2v1.3
			c0,1.9,1.4,3.6,3.4,4.2L1149.5,1498z M1144.3,1499.4h8.7v4.8h-8.7V1499.4z M1145.5,1503.2h6.3v-2.9h-6.3V1503.2L1145.5,1503.2z
			 M1153,1490.9v7.6h-1.2v-7.6H1153z"/>
		<path class="st6" d="M1168,1501.7v1h-12.2v-1h5.5v-3.5h-3.9v-6.2h9.1v1h-7.9v4.2h8v1h-4.1v3.5H1168z"/>
	</g>
	<g class="st0">
		<path class="st6" d="M752.8,1328h13.5v1.2h-13.5V1328z M754,1337h3.6v-3.9H754v-1.2h9.1v6.3H754V1337z M762,1337v-3.9h-3.5v3.9
			H762z"/>
		<path class="st6" d="M760.2,1324.6c-0.4-2.3-2.3-4.9-4.4-4.9h-0.6v4.5h-1V1314h1v4.5h0.6c2.1,0,4-2.6,4.4-4.9l1,0.5
			c-0.4,2-1.7,4.2-3.6,5c1.9,0.9,3.2,3,3.6,5L760.2,1324.6z M763.5,1313h1v12.2h-1V1313z"/>
		<path class="st6" d="M752.8,1300.4h13.4v1.2h-13.4V1300.4z M761.8,1309.3c0-2-0.2-4.1-0.6-6.3l1-0.1c0.5,2.3,0.6,4.5,0.6,6.6v1.1
			h-8.7v-1.2L761.8,1309.3L761.8,1309.3z"/>
		<path class="st6" d="M760.6,1286.5c-0.5,2-1.9,4.1-3.9,5c2,0.9,3.4,3,3.9,5l-1,0.6c-0.5-2.4-2.5-4.9-4.8-4.9h-1v-1.3h1
			c2.3,0,4.3-2.5,4.8-4.9L760.6,1286.5z M763.5,1285.4h1v12.2h-1V1285.4z"/>
		<path class="st6" d="M758.9,1274c0.7,0.6,1.2,1.6,1.2,2.7c0,2-1.3,3.5-3.2,3.5s-3.2-1.5-3.2-3.5c0-1.1,0.4-2.1,1.1-2.7v-3.5h-1.9
			v-1.2h8v1.2H759L758.9,1274L758.9,1274z M759,1276.8c0-1.3-0.9-2.3-2.2-2.3c-1.2,0-2.1,1-2.1,2.3s0.9,2.3,2.1,2.3
			C758.1,1279,759,1278.1,759,1276.8z M755.8,1273.5c0.3-0.1,0.7-0.2,1-0.2c0.4,0,0.7,0.1,1,0.2v-2.9h-2.1L755.8,1273.5
			L755.8,1273.5z M763.7,1269.3c1.6,0,2.6,1.7,2.6,4.5s-0.9,4.5-2.6,4.5c-1.6,0-2.6-1.7-2.6-4.5
			C761.1,1271,762.1,1269.3,763.7,1269.3z M763.7,1270.5c-1,0-1.6,1.2-1.6,3.3c0,2,0.6,3.3,1.6,3.3s1.6-1.2,1.6-3.3
			S764.7,1270.5,763.7,1270.5z"/>
		<path class="st6" d="M755.3,1258.6v7.9h-1v-3.3h-1.6v-1.2h1.6v-3.4H755.3z M756.2,1256.2h1.9v-2h1v2h2.4v1.2h-8.7v-1.2h2.3v-2h1
			L756.2,1256.2L756.2,1256.2z M760.8,1262.6c0,1.9-0.9,3.2-2.4,3.2c-1.4,0-2.4-1.3-2.4-3.2s0.9-3.2,2.4-3.2
			C759.8,1259.4,760.8,1260.7,760.8,1262.6z M759.8,1262.6c0-1.2-0.6-2.1-1.5-2.1s-1.4,0.8-1.4,2.1c0,1.2,0.6,2,1.4,2
			C759.3,1264.7,759.8,1263.9,759.8,1262.6z M763.9,1256c1.5,0,2.3,1.7,2.3,4.4c0,2.7-0.9,4.4-2.3,4.4c-1.5,0-2.3-1.7-2.3-4.4
			C761.6,1257.7,762.5,1256,763.9,1256z M763.9,1257.2c-0.9,0-1.4,1.2-1.4,3.2s0.5,3.2,1.4,3.2s1.4-1.2,1.4-3.2
			C765.3,1258.4,764.8,1257.2,763.9,1257.2z"/>
		<path class="st6" d="M763.6,1240.6h1v12.2h-1v-5.5h-3.5v3.9h-6.2v-9.1h1v7.9h4.2v-8h1v4.1h3.5V1240.6z"/>
	</g>
	<g id="High" transform="translate(715.896 1240.619)">
		<g id="그룹_4951">
			<g id="그룹_4950">
				<path id="패스_2629" d="M1,32v-1.8h4.7v-4.9H1v-1.8h11.5v1.8H7.2v4.9h5.2V32H1z"/>
				<path id="패스_2630" d="M1.2,20.9c-0.6,0-1.1-0.5-1.1-1v-0.1c0-0.6,0.6-1,1.1-1c0.6,0,1,0.6,1,1.1S1.7,20.9,1.2,20.9z
					 M3.9,20.6v-1.8h8.6v1.8H3.9z"/>
				<path id="패스_2631" d="M14,16.8c-0.8-0.1-1.5-0.5-1.9-1.2H12c-0.3,0.5-0.8,0.8-1.4,0.8C10,16.3,9.4,16,9,15.4l0,0
					c-0.5,0.7-1.4,1.1-2.3,1.1c-1.7,0-3.1-1.4-3.1-3.1c0-0.1,0-0.1,0-0.2c0-0.4,0.1-0.8,0.2-1.2V9h1.3v1.6c0.4-0.4,1-0.6,1.6-0.6
					c1.6,0,2.9,1.3,3,2.9c0,0.1,0,0.2,0,0.3c0,0.4-0.1,0.8-0.3,1.2c0.2,0.3,0.5,0.5,0.9,0.5c0.5,0,0.8-0.3,0.8-1.4v-1.6
					c0-2,0.6-3.1,2.1-3.1c1.7,0,3,1.7,3,4.5C16.3,15.3,15.5,16.8,14,16.8z M6.7,11.5C5.8,11.4,5,12.1,4.9,13s0.5,1.7,1.4,1.8
					c0.1,0,0.3,0,0.4,0c0.9,0.1,1.7-0.5,1.8-1.4S8,11.6,7.1,11.5C7,11.5,6.9,11.5,6.7,11.5z M13.6,10.5c-0.7,0-0.9,0.6-0.9,1.6v1.3
					c0,0.4,0,0.8-0.1,1.2c0.3,0.4,0.7,0.7,1.2,0.7c0.8,0,1.3-0.9,1.3-2.3C15.1,11.4,14.4,10.5,13.6,10.5L13.6,10.5z"/>
				<path id="패스_2632" d="M0,7.1V5.4h3.3H5C4.2,4.7,3.7,3.7,3.6,2.6C3.6,0.8,4.9,0,7,0h5.4v1.8H7.3c-1.5,0-2.1,0.4-2.1,1.4
					C5.3,4,5.7,4.8,6.4,5.3h6.1v1.8L0,7.1z"/>
			</g>
		</g>
	</g>
	<rect id="사각형_511" x="831.2" y="1224.9" class="st7" width="348.1" height="247.6"/>
	<circle id="타원_17" class="st5" cx="903" cy="1295.2" r="8"/>
	<circle id="타원_18" class="st8" cx="952.3" cy="1361.4" r="8"/>
	<circle id="타원_19" class="st5" cx="1012.9" cy="1382.4" r="8"/>
	<circle id="타원_20" class="st8" cx="1127" cy="1374.7" r="8"/>
	<circle id="타원_22" class="st8" cx="974.8" cy="1415.5" r="8"/>
	<circle id="타원_21" class="st8" cx="1110.1" cy="1256.1" r="8"/>
</g>
</svg>
