<?xml version="1.0" encoding="utf-8"?>
<!-- Generator: Adobe Illustrator 25.1.0, SVG Export Plug-In . SVG Version: 6.00 Build 0)  -->
<svg version="1.1" id="레이어_1" xmlns="http://www.w3.org/2000/svg" xmlns:xlink="http://www.w3.org/1999/xlink" x="0px"
	 y="0px" viewBox="0 0 335 139.6" style="enable-background:new 0 0 335 139.6;" xml:space="preserve">
<style type="text/css">
	.st0{fill:none;}
	.st1{fill:none;stroke:#D5D5D5;}
	.st2{enable-background:new    ;}
	.st3{fill:#555555;}
	.st4{fill:#FFF8F8;}
	.st5{fill:#DF1C2F;}
</style>
<g id="그룹_5695" transform="translate(-20 -2200.361)">
	<g id="사각형_330" transform="translate(20 2200.361)">
		<rect y="0" class="st0" width="335" height="139.6"/>
		<rect x="0.5" y="0.5" class="st1" width="334" height="138.6"/>
	</g>
	<g class="st2">
		<path class="st3" d="M43.6,2268.1c0-1.1,0.8-1.8,1.6-1.8c0.9,0,1.6,0.7,1.6,1.8c0,1-0.8,1.7-1.6,1.7
			C44.3,2269.9,43.6,2269.2,43.6,2268.1z"/>
		<path class="st3" d="M57.9,2262.4v7.6h-5.4v-7.6H57.9z M53.6,2263.2v5.9h3.3v-5.9H53.6z M61.4,2261.2v11.7h-1.1v-11.7H61.4z"/>
		<path class="st3" d="M67.7,2264.5c0,1.9,0.9,3.8,2.4,4.8l-0.6,0.8c-1.1-0.7-1.9-1.9-2.3-3.3c-0.4,1.5-1.3,2.9-2.4,3.6l-0.7-0.8
			c1.6-0.9,2.6-3,2.6-5v-2.2h1V2264.5z M70.8,2261.5h1v10.8h-1v-6h-1.9v-0.9h1.9V2261.5z M74.2,2261.2v11.7h-1v-11.7H74.2z"/>
		<path class="st3" d="M82.5,2267.7h-5.3v-5.4h5.3v2.2h2.7v-3.2h1.1v8.5h-1.1v-4.4h-2.7V2267.7z M81.4,2263.1h-3.2v3.7h3.2V2263.1z
			 M86.6,2271.8v0.9h-7.8v-3.7h1.1v2.8H86.6z"/>
		<path class="st3" d="M93.2,2264.8c0,2,1.4,4,3.1,4.7l-0.6,0.9c-1.4-0.6-2.5-2-3.1-3.6c-0.5,1.7-1.7,3.2-3,3.8l-0.6-0.9
			c1.7-0.8,3.1-3,3.1-5v-1.5h-2.7v-0.9h6.5v0.9h-2.7V2264.8z M98.6,2261.3v11.6h-1.1v-11.6H98.6z"/>
		<path class="st3" d="M108.8,2264.7c0,1.9,1.4,4.1,3.1,4.9l-0.6,0.8c-1.3-0.7-2.4-2.1-3-3.7c-0.5,1.7-1.6,3.2-3,3.9l-0.6-0.8
			c1.7-0.8,3.1-3,3.1-5.1v-1.4h-2.6v-0.9h6.4v0.9h-2.7V2264.7z M114.4,2261.2v11.7h-1.1v-6.6h-2.5v-0.9h2.5v-4.2H114.4z"/>
		<path class="st3" d="M123,2262c0,3-2.1,5.1-5.5,6l-0.4-0.8c2.8-0.8,4.6-2.3,4.8-4.3h-4.2v-0.9H123z M118.8,2268.4h7.3v4.3h-7.3
			V2268.4z M119.9,2271.9h5.2v-2.6h-5.2V2271.9z M127.9,2265h-1.7v2.9h-1.1v-6.6h1.1v2.9h1.7V2265z"/>
		<path class="st3" d="M140.2,2267.4c-2.5,0.4-5.2,0.5-7.3,0.5l-0.1-0.8c0.9,0,2,0,3.1,0v-0.7c-1.4-0.1-2.2-0.7-2.2-1.5
			c0-1,1.1-1.5,2.7-1.5c1.6,0,2.7,0.6,2.7,1.5c0,0.9-0.8,1.4-2.2,1.5v0.7c1.1-0.1,2.2-0.1,3.2-0.3L140.2,2267.4z M139.8,2262.9h-6.7
			v-0.8h2.8v-1h1.1v1h2.8V2262.9z M135.4,2272h6.9v0.8h-8v-2.5h6.5v-0.9h-6.5v-0.8h7.6v2.4h-6.5V2272z M136.5,2265.6
			c1,0,1.7-0.3,1.7-0.8c0-0.5-0.7-0.8-1.7-0.8c-1.1,0-1.7,0.3-1.7,0.8C134.7,2265.3,135.4,2265.6,136.5,2265.6z M143.6,2264.2v0.9
			h-1.7v3h-1.1v-6.9h1.1v3H143.6z"/>
		<path class="st3" d="M155.8,2267v0.9h-10.6v-0.9h4.7v-1.4h-3.4v-3.9h7.9v0.9h-6.9v2.2h6.9v0.9h-3.5v1.4H155.8z M154.5,2270.8
			c0,1.4-1.5,2.1-4,2.1c-2.5,0-4-0.8-4-2.1c0-1.4,1.5-2.1,4-2.1C153,2268.7,154.5,2269.4,154.5,2270.8z M153.4,2270.8
			c0-0.8-1.1-1.3-2.9-1.3c-1.8,0-2.9,0.5-2.9,1.3c0,0.8,1.1,1.3,2.9,1.3C152.4,2272.1,153.4,2271.6,153.4,2270.8z"/>
		<path class="st3" d="M171.5,2269.2h-4.7v3.8h-1.1v-3.8H161v-0.9h10.5V2269.2z M161.7,2266.5c2.1-0.3,4.1-1.6,4.1-3H162v-0.9h3.7
			v-1.4h1.1v1.4h3.7v0.9h-3.7c0,1.4,2,2.7,4.1,3l-0.4,0.9c-1.8-0.3-3.5-1.2-4.2-2.4c-0.7,1.3-2.4,2.2-4.2,2.4L161.7,2266.5z"/>
		<path class="st3" d="M180,2268.1c-1.3-0.5-2.4-1.4-2.9-2.7c-0.5,1.3-1.6,2.4-3,2.9l-0.6-0.8c1.8-0.6,3-2.1,3-3.8v-0.6h-2.7v-0.9
			h6.4v0.9h-2.6v0.6c0,1.6,1.2,3,2.9,3.6L180,2268.1z M183.3,2271.8v0.9h-7.9v-3.7h1.1v2.8H183.3z M182.9,2269.8h-1.1v-8.5h1.1
			V2269.8z"/>
	</g>
	<g class="st2">
		<path class="st3" d="M43.6,2289.1c0-1.1,0.8-1.8,1.6-1.8c0.9,0,1.6,0.7,1.6,1.8c0,1-0.8,1.7-1.6,1.7
			C44.3,2290.9,43.6,2290.2,43.6,2289.1z"/>
		<path class="st3" d="M53.3,2290.1c1.6,0,2.7-0.1,3.9-0.4l0.1,0.9c-1.4,0.3-2.6,0.4-4.3,0.4h-0.8v-7.4h4.3v0.9h-3.3V2290.1z
			 M61.8,2282.2v11.7h-1v-6.1h-1.7v5.5h-1v-10.8h1v4.4h1.7v-4.7H61.8z"/>
		<path class="st3" d="M70.4,2283.5c0,3.4-1.5,6.3-5.4,8.2l-0.6-0.9c3.1-1.5,4.7-3.7,4.9-6.5h-4.4v-0.9H70.4z M73.8,2282.2v11.7
			h-1.1v-11.7H73.8z"/>
		<path class="st3" d="M90.5,2288.3v0.9H80v-0.9h4.7v-1.4h1.1v1.4H90.5z M80.6,2286.6c2.2-0.2,4-1.1,4.1-2.4h-3.6v-0.8h3.7v-1.2h1.1
			v1.2h3.7v0.8h-3.6c0.1,1.3,1.9,2.2,4.1,2.4l-0.3,0.8c-1.9-0.2-3.6-0.9-4.3-2c-0.7,1.1-2.4,1.8-4.3,2L80.6,2286.6z M89.2,2292
			c0,1.3-1.5,1.9-4,1.9c-2.5,0-4-0.7-4-1.9c0-1.3,1.5-1.9,4-1.9C87.8,2290,89.2,2290.7,89.2,2292z M88.2,2292c0-0.7-1.1-1.1-2.9-1.1
			c-1.8,0-2.9,0.4-2.9,1.1c0,0.7,1.1,1.1,2.9,1.1C87.1,2293.1,88.2,2292.7,88.2,2292z"/>
		<path class="st3" d="M99.3,2288.2c-1.8,0.3-3.4,0.4-5.5,0.4h-0.9v-3.3H97v-1.5h-4.2v-0.9h5.3v3.2h-4.2v1.6c2,0,3.5-0.1,5.3-0.4
			L99.3,2288.2z M101.5,2291.8c0,1.4-1.5,2.1-3.8,2.1c-2.4,0-3.8-0.8-3.8-2.1c0-1.4,1.5-2.1,3.8-2.1
			C100.1,2289.6,101.5,2290.4,101.5,2291.8z M100.5,2291.8c0-0.8-1-1.3-2.8-1.3c-1.7,0-2.8,0.5-2.8,1.3s1.1,1.3,2.8,1.3
			C99.4,2293.1,100.5,2292.6,100.5,2291.8z M101.4,2284.9v1.6h1.7v0.9h-1.7v1.9h-1.1v-7h1.1v1.8h1.7v0.9H101.4z"/>
		<path class="st3" d="M108.2,2285.5c0,2,0.9,4.1,2.5,5l-0.6,0.8c-1.1-0.7-1.9-1.9-2.3-3.4c-0.4,1.6-1.2,3-2.4,3.7l-0.6-0.8
			c1.6-1,2.5-3.1,2.5-5.2v-1.1h-2.2v-0.9h5.3v0.9h-2.1V2285.5z M111.3,2282.5h1v10.8h-1v-6h-1.9v-0.9h1.9V2282.5z M114.7,2282.2
			v11.7h-1v-11.7H114.7z"/>
		<path class="st3" d="M126.8,2288.8c-1.3-0.5-2.3-1.4-2.8-2.6c-0.5,1.3-1.6,2.4-2.9,2.9l-0.6-0.8c1.7-0.6,2.9-2.2,2.9-3.8v-0.5
			h-2.6v-0.9h6.2v0.9h-2.6v0.5c0,1.5,1.1,3,2.8,3.6L126.8,2288.8z M122.3,2289.9h7.8v4.1H129v-3.2h-6.7V2289.9z M130.1,2282.2v7H129
			v-3.1h-2.3v-0.9h2.3v-3H130.1z"/>
		<path class="st3" d="M143.4,2288v0.9h-10.6v-0.9h2.6v-1.6c-0.9-0.4-1.4-1-1.4-1.8c0-1.4,1.6-2.2,4.1-2.2c2.5,0,4.1,0.8,4.1,2.2
			c0,0.8-0.5,1.4-1.4,1.7v1.7H143.4z M142.1,2291.8c0,1.3-1.5,2.1-4,2.1c-2.5,0-4-0.7-4-2.1s1.5-2.1,4-2.1
			C140.6,2289.7,142.1,2290.5,142.1,2291.8z M138.1,2286c1.9,0,3-0.5,3-1.3c0-0.8-1.1-1.3-3-1.3c-1.9,0-3,0.5-3,1.3
			C135.1,2285.5,136.3,2286,138.1,2286z M141.1,2291.8c0-0.8-1.1-1.2-2.9-1.2c-1.8,0-2.9,0.5-2.9,1.2s1.1,1.2,2.9,1.2
			C140,2293.1,141.1,2292.6,141.1,2291.8z M136.5,2288h3.2v-1.4c-0.5,0.1-1,0.1-1.6,0.1c-0.6,0-1.1-0.1-1.6-0.1V2288z"/>
		<path class="st3" d="M152.5,2285.4c0,2.1,1.3,4.2,3,5l-0.7,0.8c-1.2-0.7-2.3-2-2.8-3.6c-0.5,1.7-1.6,3.2-2.9,3.9l-0.6-0.9
			c1.7-0.9,3-3.1,3-5.2v-2.1h1.1V2285.4z M159.5,2287.9h-1.9v6h-1.1v-11.6h1.1v4.7h1.9V2287.9z"/>
		<path class="st3" d="M170.6,2282.3v6.3h-1.1v-2.6h-2.4c-0.2,1.4-1.4,2.3-3,2.3c-1.7,0-3-1.1-3-2.7c0-1.6,1.3-2.7,3-2.7
			c1.6,0,2.7,0.9,3,2.2h2.4v-2.8H170.6z M166.2,2285.5c0-1.1-0.8-1.8-2-1.8c-1.2,0-2,0.7-2,1.8c0,1.1,0.8,1.8,2,1.8
			C165.3,2287.3,166.2,2286.5,166.2,2285.5z M169.5,2289.1h1.1v4.7h-7.5v-4.7h1.1v1.5h5.3V2289.1z M169.5,2291.4h-5.3v1.5h5.3
			V2291.4z"/>
		<path class="st3" d="M179.6,2288.7c-1.3-0.4-2.3-1.4-2.8-2.5c-0.5,1.3-1.5,2.4-2.9,2.9l-0.5-0.8c1.8-0.6,2.9-2.1,2.9-3.8v-0.5
			h-2.6v-0.9h6.3v0.9h-2.6v0.5c0,1.5,1.1,2.9,2.8,3.5L179.6,2288.7z M182.6,2291.7c0,1.4-1.5,2.2-3.8,2.2c-2.4,0-3.8-0.8-3.8-2.2
			c0-1.4,1.5-2.1,3.8-2.1C181.1,2289.6,182.6,2290.4,182.6,2291.7z M181.5,2291.7c0-0.8-1.1-1.3-2.8-1.3c-1.7,0-2.8,0.5-2.8,1.3
			c0,0.8,1,1.3,2.8,1.3C180.4,2293,181.5,2292.6,181.5,2291.7z M184.2,2285.2v0.9h-1.7v3.2h-1.1v-7h1.1v2.9H184.2z"/>
		<path class="st3" d="M192.4,2288.8c-1.7,0-3-1.2-3-2.9c0-1.7,1.3-2.9,3-2.9c1.7,0,3.1,1.2,3.1,2.9
			C195.5,2287.6,194.2,2288.8,192.4,2288.8z M192.4,2287.9c1.2,0,2-0.8,2-2c0-1.1-0.9-1.9-2-1.9c-1.1,0-2,0.8-2,1.9
			C190.4,2287.1,191.3,2287.9,192.4,2287.9z M199,2292.8v0.9h-7.9v-3.7h1.1v2.9H199z M198.7,2290.8h-1.1v-8.5h1.1V2290.8z"/>
		<path class="st3" d="M208.4,2285h-6.9v-0.9h2.9v-1.7h1.1v1.7h2.9V2285z M207.7,2288.6c0,1.6-1.2,2.7-2.7,2.7
			c-1.6,0-2.7-1.1-2.7-2.7c0-1.6,1.2-2.7,2.7-2.7C206.5,2285.9,207.7,2287.1,207.7,2288.6z M206.7,2288.6c0-1-0.8-1.8-1.7-1.8
			c-1,0-1.8,0.7-1.8,1.8c0,1.1,0.8,1.8,1.8,1.8C205.9,2290.4,206.7,2289.7,206.7,2288.6z M211.1,2282.3v11.6H210v-5.9h-1.9v-0.9h1.9
			v-4.9H211.1z"/>
		<path class="st3" d="M219.8,2283.5c0,3.3-1.5,6.3-5.3,8.2l-0.6-0.8c3-1.5,4.6-3.7,4.8-6.5h-4.3v-0.9H219.8z M224.7,2287.9h-1.9v6
			h-1.1v-11.7h1.1v4.7h1.9V2287.9z"/>
		<path class="st3" d="M236.9,2289c-2.4,0.4-5.2,0.5-7.2,0.5l-0.1-0.9c0.9,0,1.9,0,3-0.1v-1.2c-1.4-0.2-2.4-1-2.4-2.3
			c0-1.4,1.2-2.3,2.9-2.3c1.7,0,2.9,0.9,2.9,2.3c0,1.2-0.9,2.1-2.3,2.3v1.1c1.1-0.1,2.2-0.1,3.2-0.3L236.9,2289z M233.2,2286.6
			c1.1,0,1.9-0.6,1.9-1.5c0-0.9-0.8-1.5-1.9-1.5c-1.1,0-1.9,0.6-1.9,1.5C231.3,2286,232,2286.6,233.2,2286.6z M232.3,2292.8h6.7v0.9
			h-7.8v-3.2h1.1V2292.8z M240.4,2286.2v0.9h-1.7v4.1h-1.1v-8.9h1.1v3.9H240.4z"/>
		<path class="st3" d="M252.6,2291.6v0.9H242v-0.9h3v-2.2h-1.6v-3.6h6.9v-1.8h-6.9v-0.9h8v3.5h-6.9v1.9h7.2v0.9h-1.8v2.2H252.6z
			 M246,2291.6h2.7v-2.2H246V2291.6z"/>
	</g>
	<g class="st2">
		<path class="st3" d="M43.6,2310.1c0-1.1,0.8-1.8,1.6-1.8c0.9,0,1.6,0.7,1.6,1.8c0,1-0.8,1.7-1.6,1.7
			C44.3,2311.9,43.6,2311.2,43.6,2310.1z"/>
		<path class="st3" d="M62.4,2310.8h-2.8v4.1h-1.1v-4.1h-2.9v4.1h-1.1v-4.1h-2.7v-0.9h10.6V2310.8z M53,2306.2
			c0-1.6,1.7-2.5,4.1-2.5c2.4,0,4.1,1,4.1,2.5s-1.7,2.5-4.1,2.5C54.7,2308.8,53,2307.8,53,2306.2z M54.1,2306.2c0,1,1.2,1.7,3,1.7
			c1.8,0,3-0.7,3-1.7s-1.2-1.7-3-1.7C55.3,2304.6,54.1,2305.2,54.1,2306.2z"/>
		<path class="st3" d="M67.7,2305.2H70v0.9h-5.8v-0.9h2.4v-1.7h1.1V2305.2z M69.6,2309.5c0,1.6-1.1,2.7-2.5,2.7s-2.5-1.1-2.5-2.7
			c0-1.6,1.1-2.7,2.5-2.7S69.6,2308,69.6,2309.5z M68.7,2309.5c0-1-0.6-1.8-1.5-1.8c-0.9,0-1.5,0.7-1.5,1.8c0,1,0.6,1.8,1.5,1.8
			C68,2311.3,68.7,2310.6,68.7,2309.5z M74.1,2303.2v11.7h-1v-5.9h-1.5v5.3h-1v-10.8h1v4.7h1.5v-4.9H74.1z"/>
		<path class="st3" d="M80.7,2311.7c1.1-0.1,2.1-0.1,3.1-0.3l0.1,0.8c-2.5,0.4-5.2,0.5-7.3,0.5l-0.1-0.9c0.9,0,2,0,3.2,0v-1.3
			c-1.3-0.2-2.2-1-2.2-2.1c0-1.3,1.1-2.2,2.8-2.2c1.6,0,2.8,0.8,2.8,2.2c0,1.2-0.9,2-2.2,2.1V2311.7z M83.7,2305.5h-7v-0.8h3v-1.4
			h1.1v1.4h2.9V2305.5z M80.2,2309.7c1,0,1.7-0.5,1.7-1.3c0-0.8-0.7-1.3-1.7-1.3s-1.7,0.5-1.7,1.3
			C78.5,2309.2,79.2,2309.7,80.2,2309.7z M87.4,2309.1h-1.8v5.8h-1.1v-11.7h1.1v5h1.8V2309.1z"/>
		<path class="st3" d="M95.9,2305.3h-6.9v-0.9H92v-1.3H93v1.3h2.9V2305.3z M92.5,2310.1c-1.7,0-2.8-0.8-2.8-2.1
			c0-1.3,1.1-2.1,2.8-2.1c1.7,0,2.8,0.8,2.8,2.1C95.3,2309.3,94.2,2310.1,92.5,2310.1z M90.5,2311.2h7.6v3.7H97v-2.9h-6.5V2311.2z
			 M92.5,2309.3c1.1,0,1.8-0.5,1.8-1.3c0-0.8-0.7-1.3-1.8-1.3s-1.8,0.5-1.8,1.3C90.7,2308.8,91.4,2309.3,92.5,2309.3z M99.8,2307.4
			h-1.7v3.2H97v-7.3h1.1v3.2h1.7V2307.4z"/>
		<path class="st3" d="M107.2,2309v1.1h3.4v2.6h-6.9v1.2h7.2v0.8h-8.2v-2.8h6.8v-1h-6.9v-0.8h3.5v-1.1h-4.7v-0.9H112v0.9H107.2z
			 M110.6,2307.2h-7.8v-3.5h7.8V2307.2z M109.5,2304.5h-5.7v1.9h5.7V2304.5z"/>
		<path class="st3" d="M120.4,2309.1c-1.4-0.4-2.4-1.3-3-2.5c-0.5,1.3-1.6,2.3-3,2.8l-0.5-0.8c1.8-0.6,3-2,3-3.6v-0.1h-2.7v-0.9h6.4
			v0.9H118v0.1c0,1.5,1.2,2.8,2.9,3.3L120.4,2309.1z M123.8,2313.9v0.8h-7.9v-2.9h6.5v-1.2h-6.5v-0.8h7.6v2.8h-6.5v1.3H123.8z
			 M123.4,2309.3h-1.1v-6h1.1V2309.3z"/>
		<path class="st3" d="M137.3,2310.2c-1.1,0.2-2.2,0.3-3.3,0.4v4h-1.1v-3.9c-1.1,0-2.2,0.1-3.2,0.1l-0.1-0.9c2.2,0,5.1,0,7.7-0.4
			L137.3,2310.2z M130.1,2308.1c1.7-0.4,2.8-1.5,2.8-2.7v0h-2.6v-0.8h2.6v-1.3h1.1v1.3h2.6v0.8h-2.6v0c0,1.2,1.1,2.2,2.8,2.5
			l-0.4,0.8c-1.3-0.3-2.4-1-2.9-2c-0.5,1-1.5,1.8-2.9,2.1L130.1,2308.1z M139.1,2303.3v11.7H138v-11.7H139.1z"/>
		<path class="st3" d="M152.5,2308v0.9h-10.6v-0.9h7.9c0.3-1.4,0.3-2.5,0.3-3.4h-6.8v-0.9h7.9v0.8c0,0.9,0,1.9-0.3,3.4H152.5z
			 M150.1,2309.9h1.1v4.8h-7.8v-4.8h1.1v1.5h5.7V2309.9z M150.1,2312.3h-5.7v1.6h5.7V2312.3z"/>
		<path class="st3" d="M161.8,2306.4c0,2.1,1.4,4.3,3.1,5.1l-0.6,0.9c-1.3-0.7-2.4-2-3-3.7c-0.5,1.8-1.7,3.2-3,3.9l-0.6-0.9
			c1.7-0.8,3.1-3.1,3.1-5.3v-2.1h1.1V2306.4z M167.2,2303.2v11.7h-1.1v-11.7H167.2z"/>
		<path class="st3" d="M176.3,2309c-1.3-0.5-2.3-1.4-2.8-2.6c-0.5,1.3-1.5,2.3-2.9,2.8l-0.6-0.8c1.8-0.6,2.9-2.1,2.9-3.8v-1.1h1.1
			v1.1c0,1.5,1.2,2.9,2.9,3.5L176.3,2309z M180.1,2313.9v0.8h-7.9v-2.9h6.4v-1.1h-6.5v-0.8h7.5v2.8h-6.4v1.2H180.1z M178.6,2306.2
			H176v-0.9h2.5v-2.1h1.1v6h-1.1V2306.2z"/>
		<path class="st3" d="M190.8,2304.8c0,3-1.1,5.8-4.4,7.7l-0.6-0.8c2.7-1.5,3.8-3.6,3.9-6h-3.5v-0.9H190.8z M195.7,2303.2v11.7h-1
			v-6.1H193v5.5h-1v-10.8h1v4.4h1.6v-4.7H195.7z"/>
		<path class="st3" d="M204.4,2310c-1.3-0.5-2.3-1.5-2.8-2.8c-0.5,1.4-1.5,2.5-2.9,3l-0.6-0.8c1.7-0.6,2.9-2.3,2.9-4.1v-1.4h1.1v1.5
			c0,1.6,1.1,3.2,2.8,3.8L204.4,2310z M208,2313.8v0.9h-7.8v-3.6h1.1v2.8H208z M206.7,2306.9h-2.5v-0.9h2.5v-2.7h1.1v8.7h-1.1
			V2306.9z"/>
	</g>
	<g id="사각형_373" transform="translate(20 2200.361)">
		<rect y="0" class="st4" width="335" height="37.7"/>
		<rect x="0.5" y="0.5" class="st1" width="334" height="36.7"/>
	</g>
	<g class="st2">
		<path class="st5" d="M153.6,2219.4c0-3.4,1.9-5.3,4.6-5.3c2.7,0,4.6,2,4.6,5.3c0,3.4-1.9,5.4-4.6,5.4
			C155.5,2224.9,153.6,2222.8,153.6,2219.4z M160.7,2219.4c0-2.2-1-3.6-2.5-3.6c-1.5,0-2.5,1.3-2.5,3.6c0,2.2,1,3.6,2.5,3.6
			C159.8,2223.1,160.7,2221.6,160.7,2219.4z"/>
		<path class="st5" d="M164.8,2219.5c0-3.4,2.2-5.4,4.8-5.4c1.3,0,2.4,0.6,3,1.3l-1.1,1.3c-0.5-0.5-1.1-0.9-1.9-0.9
			c-1.6,0-2.7,1.3-2.7,3.6c0,2.3,1.1,3.6,2.7,3.6c0.9,0,1.6-0.4,2.1-1l1.1,1.3c-0.9,1-2,1.5-3.3,1.5
			C167,2224.9,164.8,2223,164.8,2219.5z"/>
		<path class="st5" d="M175,2214.3h2.1v10.4H175V2214.3z"/>
	</g>
	<g class="st2">
		<path class="st5" d="M179.5,2221.8c2.3,0,5.4,0,8.2-0.4l0.1,1.3c-2.8,0.6-5.8,0.6-8,0.6L179.5,2221.8z M187.1,2217
			c0,1.9-1.5,3.2-3.6,3.2s-3.5-1.3-3.5-3.2c0-1.8,1.5-3.2,3.5-3.2S187.1,2215.1,187.1,2217z M181.8,2217c0,1,0.8,1.6,1.8,1.6
			s1.8-0.6,1.8-1.6s-0.8-1.6-1.8-1.6S181.8,2216,181.8,2217z M190.2,2212.9v12.9h-1.8v-12.9H190.2z"/>
		<path class="st5" d="M204.3,2219.9c-2.7,0.5-5.7,0.5-7.9,0.5l-0.2-1.3c0.9,0,2,0,3.1,0v-0.6c-1.4-0.2-2.2-0.8-2.2-1.6
			c0-1.1,1.2-1.7,3.2-1.7s3.1,0.6,3.1,1.7c0,0.9-0.8,1.5-2.2,1.6v0.5c1-0.1,2.1-0.1,3.1-0.3L204.3,2219.9z M203.9,2215h-7.3v-1.2
			h2.7v-0.9h1.8v0.9h2.7V2215z M199.8,2224.5h7.3v1.2H198v-3h6.8v-0.6h-6.8v-1.2h8.7v2.9h-6.8V2224.5z M200.2,2217.5
			c0.9,0,1.4-0.2,1.4-0.6c0-0.4-0.5-0.5-1.4-0.5s-1.4,0.2-1.4,0.5C198.8,2217.3,199.3,2217.5,200.2,2217.5z M208.2,2216v1.5h-1.6v3
			h-1.8v-7.6h1.8v3.1H208.2z"/>
		<path class="st5" d="M221.4,2219v1.5h-11.7v-1.5h4.9v-1.1h-3.5v-4.5h8.9v1.5h-7v1.5h7.1v1.5h-3.6v1.1H221.4z M220,2223.5
			c0,1.5-1.7,2.4-4.5,2.4s-4.5-0.9-4.5-2.4c0-1.5,1.7-2.4,4.5-2.4S220,2222,220,2223.5z M218.1,2223.5c0-0.7-0.9-1-2.6-1
			c-1.7,0-2.6,0.3-2.6,1c0,0.7,0.9,1,2.6,1C217.3,2224.5,218.1,2224.2,218.1,2223.5z"/>
	</g>
</g>
</svg>
