<?xml version="1.0" encoding="utf-8"?>
<!-- Generator: Adobe Illustrator 25.1.0, SVG Export Plug-In . SVG Version: 6.00 Build 0)  -->
<svg version="1.1" id="레이어_1" xmlns="http://www.w3.org/2000/svg" xmlns:xlink="http://www.w3.org/1999/xlink" x="0px"
	 y="0px" viewBox="0 0 918 168.5" style="enable-background:new 0 0 918 168.5;" xml:space="preserve">
<style type="text/css">
	.st0{enable-background:new    ;}
	.st1{fill:#DF1C2F;}
	.st2{fill:#FAFAFA;}
	.st3{fill:#070203;}
	.st4{fill:none;stroke:#D6D6D6;stroke-miterlimit:10;}
	.st5{fill:none;stroke:#717171;stroke-miterlimit:10;}
</style>
<g id="그룹_5866" transform="translate(-741 -3860.5)">
	<g id="그룹_5849" transform="translate(1 856.5)">
		<g class="st0">
			<path class="st1" d="M750.4,3010.6h2.5v17.3h-2.5v-8.7H749c-0.2,3.6-1.7,5.8-4,5.8c-2.4,0-4-2.5-4-6.7c0-4.2,1.5-6.7,4-6.7
				c2.2,0,3.7,2,4,5.5h1.5V3010.6z M746.6,3018.3c0-2.8-0.6-4.2-1.6-4.2c-1,0-1.6,1.4-1.6,4.2c0,2.8,0.6,4.2,1.6,4.2
				C746,3022.5,746.6,3021.1,746.6,3018.3z M756.7,3010.3v18.4h-2.5v-18.4H756.7z"/>
			<path class="st1" d="M762.8,3022.2c2.3-0.1,4.7-0.2,7.1-0.7l0.3,2.2c-3,0.6-5.8,0.8-8.5,0.8h-1.6v-12.2h2.6V3022.2z
				 M774.7,3010.3v18.5h-2.6v-10.7h-5v-2.1h5v-5.7H774.7z"/>
			<path class="st1" d="M784.8,3015.3c0,3,1.5,6.2,4.6,7.5l-1.4,2.1c-2.1-0.9-3.6-2.7-4.4-4.9c-0.8,2.4-2.3,4.4-4.5,5.4l-1.5-2.1
				c3.1-1.4,4.6-4.8,4.6-7.9v-1h-3.8v-2.2h10.3v2.2h-3.8V3015.3z M792.9,3010.3v18.4h-2.6v-18.4H792.9z"/>
			<path class="st1" d="M810.8,3020.1c-2.1-0.6-3.5-1.9-4.3-3.4c-0.8,1.7-2.3,3.1-4.5,3.8l-1.3-2.1c2.9-0.9,4.3-2.9,4.4-4.9h-3.7
				v-2.1h10v2.1h-3.6c0.1,1.9,1.5,3.8,4.3,4.7L810.8,3020.1z M813.3,3021.1h2.6v7.4h-12.2v-7.4h2.6v1.7h7V3021.1z M813.3,3024.8h-7
				v1.6h7V3024.8z M815.9,3010.3v10h-2.7v-10H815.9z"/>
			<path class="st1" d="M824.1,3020.3c-2.8,0-5-1.9-5-4.5c0-2.6,2.2-4.5,5-4.5c2.8,0,5,1.9,5,4.5
				C829.1,3018.4,827,3020.3,824.1,3020.3z M821.2,3021.9h12.3v6.8h-2.6v-4.7h-9.6V3021.9z M824.1,3018.1c1.4,0,2.4-0.9,2.4-2.3
				c0-1.4-1-2.3-2.4-2.3c-1.4,0-2.4,0.8-2.4,2.3C821.7,3017.2,822.7,3018.1,824.1,3018.1z M833.5,3014.8v1.8h2.4v2.2h-2.4v2.3h-2.6
				v-10.9h2.6v2.4h2.4v2.1H833.5z"/>
			<path class="st1" d="M854.1,3024.5v2.2h-16.7v-2.2h7v-3.8h-5.1v-9.1h12.8v2.1H842v4.8h10.3v2.1H847v3.8H854.1z"/>
		</g>
	</g>
	<rect id="사각형_388" x="741" y="3910.5" class="st2" width="918" height="34.2"/>
	<g class="st0">
		<path class="st3" d="M772.6,3967.3c-1.6-0.6-3.1-1.9-3.7-3.5c-0.6,1.8-2,3.1-3.7,3.8l-0.4-0.7c2-0.7,3.7-2.6,3.7-4.7v-0.9H765
			v-0.7h7.8v0.7h-3.5v0.9c0,2,1.8,3.8,3.7,4.5L772.6,3967.3z M766.7,3968.9h9.4v4.8h-0.8v-4.1h-8.5V3968.9z M776,3959.4v8.6h-0.8
			v-8.6H776z"/>
		<path class="st3" d="M787,3967c-1.6-0.6-3-1.9-3.6-3.5c-0.6,1.8-2,3.2-3.7,3.8l-0.4-0.7c2-0.7,3.7-2.7,3.7-4.8v-0.8h-3.4v-0.7h7.6
			v0.7h-3.3v0.7c0,2,1.6,3.7,3.6,4.5L787,3967z M789.9,3967.8h0.8v5.6h-8.9v-5.6h0.8v2h7.2V3967.8z M789.9,3970.6h-7.2v2.1h7.2
			V3970.6z M790.8,3959.4v7.7h-0.8v-3.4h-3.2v-0.7h3.2v-3.6H790.8z"/>
		<path class="st3" d="M805.9,3959.7h0.8v13.1h-0.8v-7h-2.2c-0.1,2.8-1.2,4.5-3,4.5c-1.8,0-3-1.9-3-4.8s1.2-4.8,3-4.8
			c1.7,0,2.9,1.7,3,4.4h2.2V3959.7z M802.9,3965.5c0-2.4-0.9-4-2.2-4c-1.3,0-2.2,1.7-2.2,4c0,2.4,0.9,4,2.2,4
			C802,3969.6,802.9,3967.9,802.9,3965.5z M809.5,3959.4v14.2h-0.8v-14.2H809.5z"/>
		<path class="st3" d="M814,3969.4c2.3,0,4.2-0.1,6.4-0.6l0.1,0.7c-2.2,0.4-4.1,0.6-6.5,0.6h-1v-9.1h0.8v8.4H814z M823.8,3959.4
			v14.2h-0.8v-8.7h-4.7v-0.7h4.7v-4.9H823.8z"/>
		<path class="st3" d="M831.7,3964c0,2.5,2.1,4.9,4,5.8l-0.5,0.7c-1.6-0.8-3.2-2.5-3.9-4.6c-0.6,2.1-2.3,4.1-3.8,4.9l-0.5-0.7
			c1.8-0.9,3.9-3.6,3.9-6.1v-2.4h-3.5v-0.7h7.9v0.7h-3.6V3964z M838.4,3959.4v14.2h-0.8v-14.2H838.4z"/>
		<path class="st3" d="M853,3966.5c-1.6-0.6-3-1.8-3.6-3.3c-0.6,1.7-2,3-3.7,3.6l-0.4-0.7c1.9-0.7,3.7-2.5,3.7-4.5v-0.7h-3.4v-0.7
			h7.6v0.7h-3.3v0.7c0,1.8,1.7,3.5,3.6,4.2L853,3966.5z M857.3,3972.7v0.7h-9.6v-3.4h8.1v-1.8h-8.2v-0.7h9v3.2h-8.1v2H857.3z
			 M855.9,3962.7v-3.3h0.8v7.4h-0.8v-3.3h-3.2v-0.7H855.9z"/>
		<path class="st3" d="M867,3960.4c0,3.5-2.6,6.1-6.7,7.2l-0.3-0.7c3.6-1,6-3.1,6.1-5.8h-5.6v-0.7H867z M862,3968.3h8.8v5.1H862
			V3968.3z M862.9,3972.7h7.1v-3.7h-7.1V3972.7z M873.1,3963.8h-2.2v3.7H870v-8.2h0.8v3.7h2.2V3963.8z"/>
		<path class="st3" d="M883.2,3966.6c-2.4,0.4-4.3,0.5-6.8,0.5h-1.1v-3.8h5.5v-2.2h-5.5v-0.7h6.3v3.6h-5.5v2.4h0.2
			c2.4,0,4.4-0.1,6.7-0.5L883.2,3966.6z M885.7,3971.1c0,1.6-1.7,2.5-4.6,2.5c-2.8,0-4.6-0.9-4.6-2.5c0-1.6,1.7-2.5,4.6-2.5
			C884,3968.5,885.7,3969.5,885.7,3971.1z M884.9,3971.1c0-1.1-1.5-1.8-3.8-1.8s-3.8,0.7-3.8,1.8c0,1.1,1.5,1.8,3.8,1.8
			S884.9,3972.2,884.9,3971.1z M885.6,3962.5v2.3h2.2v0.7h-2.2v2.5h-0.8v-8.6h0.8v2.4h2.2v0.7H885.6z"/>
	</g>
	<g class="st0">
		<path class="st3" d="M1011,3961.6h-3.7v-0.8h8.3v0.8h-3.7v10.9h-1V3961.6z"/>
		<path class="st3" d="M1014.6,3971l0.7-0.5c0.6,1,1.2,1.4,2.2,1.4c1.4,0,2-0.8,2-2.7v-8.3h1v8.4c0,1.9-0.8,3.4-3,3.4
			C1016.2,3972.7,1015.2,3972.1,1014.6,3971z"/>
		<path class="st3" d="M1027.6,3959.9h0.8l-5.3,15.4h-0.8L1027.6,3959.9z"/>
	</g>
	<g class="st0">
		<path class="st3" d="M1037.5,3966.6c-1.6-0.6-3.1-1.9-3.7-3.6c-0.6,1.8-2,3.2-3.7,3.9l-0.5-0.7c2-0.8,3.7-2.7,3.7-4.9v-1.3h0.8
			v1.3c0,2.1,1.8,4,3.8,4.7L1037.5,3966.6z M1040.1,3967.8h0.8v5.6h-9v-5.6h0.8v2h7.3V3967.8z M1040.1,3970.5h-7.3v2.2h7.3V3970.5z
			 M1040.9,3959.4v7.6h-0.8v-7.6H1040.9z"/>
		<path class="st3" d="M1055.7,3959.4v8.4h-0.8v-3.8h-3.3c-0.2,1.8-1.6,3-3.6,3c-2.1,0-3.6-1.4-3.6-3.3c0-2,1.5-3.4,3.6-3.4
			c1.9,0,3.4,1.2,3.6,3h3.3v-3.8H1055.7z M1050.7,3963.6c0-1.5-1.2-2.6-2.8-2.6s-2.8,1.2-2.8,2.6c0,1.5,1.2,2.6,2.8,2.6
			S1050.7,3965.1,1050.7,3963.6z M1046.3,3968.6h9.4v5h-0.8v-4.3h-8.5V3968.6z"/>
		<path class="st3" d="M1066.6,3966.8c-1.5,0.1-3,0.1-4.2,0.1l-0.1-0.7c2.6,0,6.2,0,9.3-0.4l0.1,0.6c-1.3,0.2-2.8,0.3-4.1,0.4v2.9
			h-0.8V3966.8z M1063.5,3962.5c0-1.5,1.4-2.4,3.5-2.4c2.1,0,3.5,0.9,3.5,2.4c0,1.5-1.4,2.4-3.5,2.4
			C1064.9,3964.9,1063.5,3964,1063.5,3962.5z M1064.3,3962.5c0,1.1,1.1,1.8,2.7,1.8c1.6,0,2.7-0.7,2.7-1.8c0-1-1.1-1.8-2.7-1.8
			C1065.4,3960.7,1064.3,3961.4,1064.3,3962.5z M1074.2,3972.5v0.7h-9.7v-4.1h0.8v3.4H1074.2z M1073,3967.9v-8.5h0.8v10.8h-0.8v-1.7
			h-3v-0.7H1073z"/>
	</g>
	<g class="st0">
		<path class="st3" d="M1192.1,3971.1l0.5-0.6c0.7,0.7,1.6,1.4,3.1,1.4c1.5,0,2.6-1,2.6-2.4c0-1.5-1.1-2.5-3.9-2.5v-0.8
			c2.6,0,3.5-1.1,3.5-2.4c0-1.2-0.9-2-2.2-2c-1,0-1.9,0.5-2.6,1.2l-0.5-0.6c0.8-0.8,1.8-1.4,3.1-1.4c1.8,0,3.2,1,3.2,2.8
			c0,1.5-0.9,2.4-2.1,2.8v0.1c1.4,0.3,2.6,1.3,2.6,2.9c0,2-1.5,3.2-3.5,3.2C1193.9,3972.7,1192.8,3971.9,1192.1,3971.1z"/>
		<path class="st3" d="M1201.3,3971.8c0-0.5,0.4-0.9,0.8-0.9c0.4,0,0.8,0.3,0.8,0.9c0,0.5-0.4,0.9-0.8,0.9
			C1201.7,3972.7,1201.3,3972.4,1201.3,3971.8z"/>
		<path class="st3" d="M1205,3966.8c0-3.8,1.2-5.8,3.4-5.8c2.2,0,3.4,2.1,3.4,5.8s-1.2,5.9-3.4,5.9
			C1206.2,3972.7,1205,3970.6,1205,3966.8z M1210.9,3966.8c0-3.4-1-5-2.5-5c-1.5,0-2.5,1.6-2.5,5s1,5.1,2.5,5.1
			C1209.9,3971.9,1210.9,3970.2,1210.9,3966.8z"/>
	</g>
	<g class="st0">
		<path class="st3" d="M1375.1,3971.1l0.5-0.6c0.7,0.7,1.6,1.4,3.1,1.4c1.5,0,2.6-1,2.6-2.4c0-1.5-1.1-2.5-3.9-2.5v-0.8
			c2.6,0,3.5-1.1,3.5-2.4c0-1.2-0.9-2-2.2-2c-1,0-1.9,0.5-2.6,1.2l-0.5-0.6c0.8-0.8,1.8-1.4,3.1-1.4c1.8,0,3.2,1,3.2,2.8
			c0,1.5-0.9,2.4-2.1,2.8v0.1c1.4,0.3,2.6,1.3,2.6,2.9c0,2-1.5,3.2-3.5,3.2C1376.9,3972.7,1375.8,3971.9,1375.1,3971.1z"/>
		<path class="st3" d="M1384.3,3971.8c0-0.5,0.4-0.9,0.8-0.9c0.4,0,0.8,0.3,0.8,0.9c0,0.5-0.4,0.9-0.8,0.9
			C1384.7,3972.7,1384.3,3972.4,1384.3,3971.8z"/>
		<path class="st3" d="M1387.9,3971.9c3.6-3.7,5.5-5.8,5.5-7.7c0-1.4-0.7-2.4-2.4-2.4c-1,0-1.9,0.6-2.6,1.4l-0.6-0.6
			c0.9-1,1.9-1.7,3.3-1.7c2,0,3.2,1.3,3.2,3.2c0,2.2-2,4.4-5.1,7.6c0.6,0,1.3-0.1,1.9-0.1h3.7v0.8h-7V3971.9z"/>
	</g>
	<g class="st0">
		<path class="st3" d="M1559.6,3971.1l0.5-0.6c0.7,0.7,1.6,1.4,3.1,1.4c1.5,0,2.6-1,2.6-2.4c0-1.5-1.1-2.5-3.9-2.5v-0.8
			c2.6,0,3.5-1.1,3.5-2.4c0-1.2-0.9-2-2.2-2c-1,0-1.9,0.5-2.6,1.2l-0.5-0.6c0.8-0.8,1.8-1.4,3.1-1.4c1.8,0,3.2,1,3.2,2.8
			c0,1.5-0.9,2.4-2.1,2.8v0.1c1.4,0.3,2.6,1.3,2.6,2.9c0,2-1.5,3.2-3.5,3.2C1561.4,3972.7,1560.3,3971.9,1559.6,3971.1z"/>
		<path class="st3" d="M1568.8,3971.8c0-0.5,0.4-0.9,0.8-0.9c0.4,0,0.8,0.3,0.8,0.9c0,0.5-0.4,0.9-0.8,0.9
			C1569.2,3972.7,1568.8,3972.4,1568.8,3971.8z"/>
		<path class="st3" d="M1578.3,3962h-5.9v-0.8h7v0.6c-2.7,3.5-3.3,6.3-3.5,10.8h-1C1575.1,3968,1576,3965.2,1578.3,3962z"/>
	</g>
	<g class="st0">
		<path class="st3" d="M771.6,4002.5c0,3.6-2.7,6.3-6.7,7.6l-0.4-0.7c3.5-1.2,5.9-3.4,6.1-6.2h-5.6v-0.7H771.6z M767.6,4014.5h8.5
			v0.7h-9.4v-4.4h0.8V4014.5z M777.7,4005.9v0.7h-2.2v5.3h-0.8v-10.5h0.8v4.5H777.7z"/>
		<path class="st3" d="M787,4009c-1.6-0.6-3-1.9-3.6-3.5c-0.6,1.8-2,3.2-3.7,3.8l-0.4-0.7c2-0.7,3.7-2.7,3.7-4.8v-0.8h-3.4v-0.7h7.6
			v0.7h-3.3v0.7c0,2,1.6,3.7,3.6,4.5L787,4009z M789.9,4009.8h0.8v5.6h-8.9v-5.6h0.8v2h7.2V4009.8z M789.9,4012.6h-7.2v2.1h7.2
			V4012.6z M790.8,4001.4v7.7h-0.8v-3.4h-3.2v-0.7h3.2v-3.6H790.8z"/>
		<path class="st3" d="M805.9,4001.7h0.8v13.1h-0.8v-7h-2.2c-0.1,2.8-1.2,4.5-3,4.5c-1.8,0-3-1.9-3-4.8s1.2-4.8,3-4.8
			c1.7,0,2.9,1.7,3,4.4h2.2V4001.7z M802.9,4007.5c0-2.4-0.9-4-2.2-4c-1.3,0-2.2,1.7-2.2,4c0,2.4,0.9,4,2.2,4
			C802,4011.6,802.9,4009.9,802.9,4007.5z M809.5,4001.4v14.2h-0.8v-14.2H809.5z"/>
		<path class="st3" d="M814,4011.4c2.3,0,4.2-0.1,6.4-0.6l0.1,0.7c-2.2,0.4-4.1,0.6-6.5,0.6h-1v-9.1h0.8v8.4H814z M823.8,4001.4
			v14.2h-0.8v-8.7h-4.7v-0.7h4.7v-4.9H823.8z"/>
		<path class="st3" d="M831.7,4006c0,2.5,2.1,4.9,4,5.8l-0.5,0.7c-1.6-0.8-3.2-2.5-3.9-4.6c-0.6,2.1-2.3,4.1-3.8,4.9l-0.5-0.7
			c1.8-0.9,3.9-3.6,3.9-6.1v-2.4h-3.5v-0.7h7.9v0.7h-3.6V4006z M838.4,4001.4v14.2h-0.8v-14.2H838.4z"/>
		<path class="st3" d="M853,4008.5c-1.6-0.6-3-1.8-3.6-3.3c-0.6,1.7-2,3-3.7,3.6l-0.4-0.7c1.9-0.7,3.7-2.5,3.7-4.5v-0.7h-3.4v-0.7
			h7.6v0.7h-3.3v0.7c0,1.8,1.7,3.5,3.6,4.2L853,4008.5z M857.3,4014.7v0.7h-9.6v-3.4h8.1v-1.8h-8.2v-0.7h9v3.2h-8.1v2H857.3z
			 M855.9,4004.7v-3.3h0.8v7.4h-0.8v-3.3h-3.2v-0.7H855.9z"/>
		<path class="st3" d="M867,4002.4c0,3.5-2.6,6.1-6.7,7.2l-0.3-0.7c3.6-1,6-3.1,6.1-5.8h-5.6v-0.7H867z M862,4010.3h8.8v5.1H862
			V4010.3z M862.9,4014.7h7.1v-3.7h-7.1V4014.7z M873.1,4005.8h-2.2v3.7H870v-8.2h0.8v3.7h2.2V4005.8z"/>
		<path class="st3" d="M883.2,4008.6c-2.4,0.4-4.3,0.5-6.8,0.5h-1.1v-3.8h5.5v-2.2h-5.5v-0.7h6.3v3.6h-5.5v2.4h0.2
			c2.4,0,4.4-0.1,6.7-0.5L883.2,4008.6z M885.7,4013.1c0,1.6-1.7,2.5-4.6,2.5c-2.8,0-4.6-0.9-4.6-2.5c0-1.6,1.7-2.5,4.6-2.5
			C884,4010.5,885.7,4011.5,885.7,4013.1z M884.9,4013.1c0-1.1-1.5-1.8-3.8-1.8s-3.8,0.7-3.8,1.8c0,1.1,1.5,1.8,3.8,1.8
			S884.9,4014.2,884.9,4013.1z M885.6,4004.5v2.3h2.2v0.7h-2.2v2.5h-0.8v-8.6h0.8v2.4h2.2v0.7H885.6z"/>
	</g>
	<g class="st0">
		<path class="st3" d="M1011.1,4003.6h-3.7v-0.8h8.3v0.8h-3.7v10.9h-1V4003.6z"/>
		<path class="st3" d="M1014.7,4013l0.7-0.5c0.6,1,1.2,1.4,2.2,1.4c1.4,0,2-0.8,2-2.7v-8.3h1v8.4c0,1.9-0.8,3.4-3,3.4
			C1016.3,4014.7,1015.3,4014.1,1014.7,4013z"/>
		<path class="st3" d="M1027.7,4001.9h0.8l-5.3,15.4h-0.8L1027.7,4001.9z"/>
	</g>
	<g class="st0">
		<path class="st3" d="M1037.6,4008.6c-1.6-0.6-3.1-1.9-3.7-3.6c-0.6,1.8-2,3.2-3.7,3.9l-0.5-0.7c2-0.8,3.7-2.7,3.7-4.9v-1.3h0.8
			v1.3c0,2.1,1.8,4,3.8,4.7L1037.6,4008.6z M1040.2,4009.8h0.8v5.6h-9v-5.6h0.8v2h7.3V4009.8z M1040.2,4012.5h-7.3v2.2h7.3V4012.5z
			 M1041.1,4001.4v7.6h-0.8v-7.6H1041.1z"/>
		<path class="st3" d="M1055.8,4001.4v8.4h-0.8v-3.8h-3.3c-0.2,1.8-1.6,3-3.6,3c-2.1,0-3.6-1.4-3.6-3.3c0-2,1.5-3.4,3.6-3.4
			c1.9,0,3.4,1.2,3.6,3h3.3v-3.8H1055.8z M1050.9,4005.6c0-1.5-1.2-2.6-2.8-2.6s-2.8,1.2-2.8,2.6c0,1.5,1.2,2.6,2.8,2.6
			S1050.9,4007.1,1050.9,4005.6z M1046.4,4010.6h9.4v5h-0.8v-4.3h-8.5V4010.6z"/>
		<path class="st3" d="M1066.8,4008.8c-1.5,0.1-3,0.1-4.2,0.1l-0.1-0.7c2.6,0,6.2,0,9.3-0.4l0.1,0.6c-1.3,0.2-2.8,0.3-4.1,0.4v2.9
			h-0.8V4008.8z M1063.6,4004.5c0-1.5,1.4-2.4,3.5-2.4c2.1,0,3.5,0.9,3.5,2.4c0,1.5-1.4,2.4-3.5,2.4
			C1065,4006.9,1063.6,4006,1063.6,4004.5z M1064.4,4004.5c0,1.1,1.1,1.8,2.7,1.8c1.6,0,2.7-0.7,2.7-1.8c0-1-1.1-1.8-2.7-1.8
			C1065.5,4002.7,1064.4,4003.4,1064.4,4004.5z M1074.3,4014.5v0.7h-9.7v-4.1h0.8v3.4H1074.3z M1073.1,4009.9v-8.5h0.8v10.8h-0.8
			v-1.7h-3v-0.7H1073.1z"/>
	</g>
	<g class="st0">
		<path class="st3" d="M1192.6,4013.6l0.6-0.6c0.5,0.6,1.2,0.9,1.9,0.9c1.8,0,3.3-1.4,3.3-5.4c-0.8,1-1.8,1.6-2.8,1.6
			c-2,0-3.2-1.2-3.2-3.5c0-2.1,1.5-3.6,3.2-3.6c2.3,0,3.8,1.9,3.8,5.4c0,4.7-2,6.4-4.2,6.4
			C1193.9,4014.7,1193.1,4014.2,1192.6,4013.6z M1195.6,4009.3c0.8,0,1.8-0.5,2.7-1.7c-0.2-2.4-1.1-3.8-2.8-3.8
			c-1.3,0-2.2,1.2-2.2,2.8C1193.2,4008.1,1194,4009.3,1195.6,4009.3z"/>
		<path class="st3" d="M1201.3,4013.8c0-0.5,0.4-0.9,0.8-0.9c0.4,0,0.8,0.3,0.8,0.9c0,0.5-0.4,0.9-0.8,0.9
			C1201.7,4014.7,1201.3,4014.4,1201.3,4013.8z"/>
		<path class="st3" d="M1205.1,4013.6l0.6-0.6c0.5,0.6,1.2,0.9,1.9,0.9c1.8,0,3.3-1.4,3.3-5.4c-0.8,1-1.8,1.6-2.8,1.6
			c-2,0-3.2-1.2-3.2-3.5c0-2.1,1.5-3.6,3.2-3.6c2.3,0,3.8,1.9,3.8,5.4c0,4.7-2,6.4-4.2,6.4
			C1206.5,4014.7,1205.7,4014.2,1205.1,4013.6z M1208.2,4009.3c0.8,0,1.8-0.5,2.7-1.7c-0.2-2.4-1.1-3.8-2.8-3.8
			c-1.3,0-2.2,1.2-2.2,2.8C1205.8,4008.1,1206.5,4009.3,1208.2,4009.3z"/>
	</g>
	<g class="st0">
		<path class="st3" d="M1371.8,4013.7h2.6v-9.1h-2v-0.6c0.9-0.2,1.7-0.4,2.2-0.8h0.8v10.5h2.4v0.8h-6V4013.7z"/>
		<path class="st3" d="M1380.3,4013.7h2.6v-9.1h-2v-0.6c0.9-0.2,1.7-0.4,2.2-0.8h0.8v10.5h2.4v0.8h-6V4013.7z"/>
		<path class="st3" d="M1388.6,4013.8c0-0.5,0.4-0.9,0.8-0.9c0.4,0,0.8,0.3,0.8,0.9c0,0.5-0.4,0.9-0.8,0.9
			C1389,4014.7,1388.6,4014.4,1388.6,4013.8z"/>
		<path class="st3" d="M1391.9,4013.1l0.5-0.6c0.7,0.7,1.6,1.4,3.1,1.4c1.5,0,2.6-1,2.6-2.4c0-1.5-1.1-2.5-3.9-2.5v-0.8
			c2.6,0,3.5-1.1,3.5-2.4c0-1.2-0.9-2-2.2-2c-1,0-1.9,0.5-2.6,1.2l-0.5-0.6c0.8-0.8,1.8-1.4,3.1-1.4c1.8,0,3.2,1,3.2,2.8
			c0,1.5-0.9,2.4-2.1,2.8v0.1c1.4,0.3,2.6,1.3,2.6,2.9c0,2-1.5,3.2-3.5,3.2C1393.7,4014.7,1392.7,4013.9,1391.9,4013.1z"/>
	</g>
	<g class="st0">
		<path class="st3" d="M1560,4009.3c0-4.7,2-6.4,4.2-6.4c1.1,0,1.9,0.5,2.4,1.1l-0.5,0.6c-0.5-0.6-1.2-0.9-1.9-0.9
			c-1.7,0-3.2,1.4-3.3,5.4c0.8-0.9,1.8-1.5,2.8-1.5c2,0,3.2,1.2,3.2,3.5c0,2.1-1.4,3.6-3.2,3.6
			C1561.5,4014.7,1560,4012.8,1560,4009.3z M1560.9,4010.1c0.1,2.4,1.1,3.9,2.8,3.9c1.3,0,2.2-1.2,2.2-2.8c0-1.6-0.7-2.7-2.4-2.7
			C1562.8,4008.4,1561.8,4008.8,1560.9,4010.1z"/>
		<path class="st3" d="M1568.8,4013.8c0-0.5,0.4-0.9,0.8-0.9c0.4,0,0.8,0.3,0.8,0.9c0,0.5-0.4,0.9-0.8,0.9
			C1569.2,4014.7,1568.8,4014.4,1568.8,4013.8z"/>
		<path class="st3" d="M1572.1,4013.1l0.5-0.6c0.7,0.7,1.6,1.4,3.1,1.4c1.5,0,2.6-1,2.6-2.4c0-1.5-1.1-2.5-3.9-2.5v-0.8
			c2.6,0,3.5-1.1,3.5-2.4c0-1.2-0.9-2-2.2-2c-1,0-1.9,0.5-2.6,1.2l-0.5-0.6c0.8-0.8,1.8-1.4,3.1-1.4c1.8,0,3.2,1,3.2,2.8
			c0,1.5-0.9,2.4-2.1,2.8v0.1c1.4,0.3,2.6,1.3,2.6,2.9c0,2-1.5,3.2-3.5,3.2C1574,4014.7,1572.9,4013.9,1572.1,4013.1z"/>
	</g>
	<line id="선_420" class="st4" x1="971" y1="3910" x2="971" y2="4029"/>
	<line id="선_421" class="st4" x1="1110" y1="3910" x2="1110" y2="4029"/>
	<line id="선_424" class="st4" x1="1293" y1="3910" x2="1293" y2="4029"/>
	<line id="선_429" class="st4" x1="1477.5" y1="3910" x2="1477.5" y2="4029"/>
	<g class="st0">
		<path d="M777.9,3928.7h-5.8v6h-1.7v-6h-5.7v-1.4h9.4c0.4-2,0.4-3.5,0.4-4.9h-8.2v-1.3h9.9v1.3c0,1.4,0,2.9-0.4,4.9h2V3928.7z"/>
		<path d="M792.6,3927.8v1.3H787v2.6h-1.6v-2.6h-5.9v-1.3H792.6z M782.8,3933.1h8.4v1.3h-10.1v-4h1.6V3933.1z M790.9,3926.6h-9.7
			v-5.8h1.6v1.7h6.4v-1.7h1.6V3926.6z M789.3,3923.7h-6.4v1.6h6.4V3923.7z"/>
	</g>
	<g class="st0">
		<path d="M1036.4,3927.8c-1.9,0.4-3.6,0.5-6.7,0.5h-1.2v-6.8h6.4v1.3h-4.8v4.1c2.7,0,4.3-0.1,6-0.5L1036.4,3927.8z M1031.8,3933.1
			h8.1v1.3h-9.7v-4.8h1.7V3933.1z M1041.3,3924.4v1.4h-2v5h-1.6v-10.5h1.6v4.1H1041.3z"/>
		<path d="M1052.2,3928.7c-1.3,0.3-2.6,0.4-3.9,0.5v5.1h-1.6v-5c-1.4,0-2.6,0.1-3.8,0.1l-0.2-1.4c2.6,0,6.2,0,9.4-0.5L1052.2,3928.7
			z M1043.7,3923.9c0-1.8,1.6-3,3.7-3c2.2,0,3.7,1.2,3.7,3c0,1.8-1.6,3-3.7,3C1045.2,3927,1043.7,3925.7,1043.7,3923.9z
			 M1045.2,3923.9c0,1,0.9,1.7,2.1,1.7c1.3,0,2.1-0.7,2.1-1.7c0-1-0.9-1.7-2.1-1.7C1046.1,3922.3,1045.2,3922.9,1045.2,3923.9z
			 M1054.6,3920.3v14.5h-1.6v-14.5H1054.6z"/>
	</g>
	<g class="st0">
		<path d="M1181.2,3932.4c3.3-3.2,5.3-5.3,5.3-7.1c0-1.2-0.7-2.1-2-2.1c-0.9,0-1.7,0.6-2.3,1.3l-1-1c1-1.1,2-1.8,3.6-1.8
			c2.2,0,3.6,1.4,3.6,3.5c0,2.1-1.9,4.2-4.4,6.8c0.6-0.1,1.3-0.1,1.9-0.1h3v1.6h-7.6V3932.4z"/>
		<path d="M1190.3,3927.7c0-3.9,1.5-5.9,3.8-5.9c2.4,0,3.8,2.1,3.8,5.9c0,3.9-1.5,6-3.8,6
			C1191.8,3933.7,1190.3,3931.6,1190.3,3927.7z M1196.2,3927.7c0-3.3-0.8-4.5-2-4.5c-1.2,0-2,1.2-2,4.5s0.8,4.5,2,4.5
			C1195.3,3932.3,1196.2,3931,1196.2,3927.7z"/>
		<path d="M1200.1,3932h2.6v-7.9h-2.1v-1.2c1.1-0.2,1.9-0.5,2.6-0.9h1.4v9.9h2.3v1.5h-6.7V3932z"/>
		<path d="M1208.6,3930.6c0-1.5,1-2.4,2.1-3v-0.1c-0.9-0.6-1.6-1.5-1.6-2.7c0-1.8,1.4-3,3.4-3c2,0,3.3,1.3,3.3,3.1
			c0,1.2-0.8,2.2-1.6,2.7v0.1c1,0.6,2,1.4,2,3c0,1.7-1.5,3.1-3.8,3.1C1210.2,3933.7,1208.6,3932.4,1208.6,3930.6z M1214.5,3930.6
			c0-1.4-1.3-1.8-2.9-2.5c-0.8,0.6-1.4,1.3-1.4,2.3c0,1.2,1,2,2.2,2C1213.6,3932.4,1214.5,3931.7,1214.5,3930.6z M1214.2,3925
			c0-1.1-0.7-1.9-1.8-1.9c-1,0-1.7,0.6-1.7,1.7c0,1.2,1.1,1.8,2.4,2.3C1213.9,3926.5,1214.2,3925.8,1214.2,3925z"/>
	</g>
	<g class="st0">
		<path d="M1367.8,3932.4c3.3-3.2,5.3-5.3,5.3-7.1c0-1.2-0.7-2.1-2-2.1c-0.9,0-1.7,0.6-2.3,1.3l-1-1c1-1.1,2-1.8,3.6-1.8
			c2.2,0,3.6,1.4,3.6,3.5c0,2.1-1.9,4.2-4.4,6.8c0.6-0.1,1.3-0.1,1.9-0.1h3v1.6h-7.6V3932.4z"/>
		<path d="M1377,3927.7c0-3.9,1.5-5.9,3.8-5.9c2.4,0,3.8,2.1,3.8,5.9c0,3.9-1.5,6-3.8,6C1378.5,3933.7,1377,3931.6,1377,3927.7z
			 M1382.9,3927.7c0-3.3-0.8-4.5-2-4.5c-1.2,0-2,1.2-2,4.5s0.8,4.5,2,4.5C1382,3932.3,1382.9,3931,1382.9,3927.7z"/>
		<path d="M1386.8,3932h2.6v-7.9h-2.1v-1.2c1.1-0.2,1.9-0.5,2.6-0.9h1.4v9.9h2.3v1.5h-6.7V3932z"/>
		<path d="M1395.4,3932.5l1-1.1c0.4,0.5,1.2,0.9,1.8,0.9c1.5,0,2.8-1.2,2.8-4.5c-0.7,0.9-1.7,1.4-2.6,1.4c-2,0-3.3-1.2-3.3-3.5
			c0-2.3,1.6-3.7,3.5-3.7c2.3,0,4.1,1.8,4.1,5.6c0,4.5-2.1,6.3-4.4,6.3C1397,3933.7,1396,3933.2,1395.4,3932.5z M1398.8,3927.8
			c0.7,0,1.6-0.4,2.2-1.4c-0.2-2.1-1.1-3.1-2.3-3.1c-1,0-1.8,0.8-1.8,2.3C1396.9,3927,1397.6,3927.8,1398.8,3927.8z"/>
	</g>
	<g class="st0">
		<path d="M1552.3,3932.4c3.3-3.2,5.3-5.3,5.3-7.1c0-1.2-0.7-2.1-2-2.1c-0.9,0-1.7,0.6-2.3,1.3l-1-1c1-1.1,2-1.8,3.6-1.8
			c2.2,0,3.6,1.4,3.6,3.5c0,2.1-1.9,4.2-4.4,6.8c0.6-0.1,1.3-0.1,1.9-0.1h3v1.6h-7.6V3932.4z"/>
		<path d="M1561.5,3927.7c0-3.9,1.5-5.9,3.8-5.9c2.4,0,3.8,2.1,3.8,5.9c0,3.9-1.5,6-3.8,6C1563,3933.7,1561.5,3931.6,1561.5,3927.7z
			 M1567.4,3927.7c0-3.3-0.8-4.5-2-4.5c-1.2,0-2,1.2-2,4.5s0.8,4.5,2,4.5C1566.5,3932.3,1567.4,3931,1567.4,3927.7z"/>
		<path d="M1570.6,3932.4c3.3-3.2,5.3-5.3,5.3-7.1c0-1.2-0.7-2.1-2-2.1c-0.9,0-1.7,0.6-2.3,1.3l-1-1c1-1.1,2-1.8,3.6-1.8
			c2.2,0,3.6,1.4,3.6,3.5c0,2.1-1.9,4.2-4.4,6.8c0.6-0.1,1.3-0.1,1.9-0.1h3v1.6h-7.6V3932.4z"/>
		<path d="M1579.8,3927.7c0-3.9,1.5-5.9,3.8-5.9c2.4,0,3.8,2.1,3.8,5.9c0,3.9-1.5,6-3.8,6
			C1581.2,3933.7,1579.8,3931.6,1579.8,3927.7z M1585.6,3927.7c0-3.3-0.8-4.5-2-4.5c-1.2,0-2,1.2-2,4.5s0.8,4.5,2,4.5
			C1584.8,3932.3,1585.6,3931,1585.6,3927.7z"/>
	</g>
	<line id="선_422" class="st5" x1="741" y1="3910" x2="1659" y2="3910"/>
	<line id="선_425" class="st4" x1="741" y1="3944.7" x2="1659" y2="3944.7"/>
	<line id="선_426" class="st4" x1="741.5" y1="3986.6" x2="1659" y2="3986.7"/>
	<line id="선_427" class="st5" x1="741" y1="4028.5" x2="1659" y2="4028.5"/>
</g>
</svg>
