<?xml version="1.0" encoding="utf-8"?>
<!-- Generator: Adobe Illustrator 25.1.0, SVG Export Plug-In . SVG Version: 6.00 Build 0)  -->
<svg version="1.1" id="레이어_1" xmlns="http://www.w3.org/2000/svg" xmlns:xlink="http://www.w3.org/1999/xlink" x="0px"
	 y="0px" viewBox="0 0 334.8 213.5" style="enable-background:new 0 0 334.8 213.5;" xml:space="preserve">
<style type="text/css">
	.st0{enable-background:new    ;}
	.st1{fill:#DF1C2F;}
	.st2{fill:#FAFAFA;}
	.st3{fill:none;stroke:#D6D6D6;}
	.st4{fill:#555555;}
	.st5{fill:none;stroke:#717171;}
</style>
<g id="그룹_5883" transform="translate(-20 -3531.506)">
	<g id="그룹_5869" transform="translate(20 3531.506)">
		<g class="st0">
			<path class="st1" d="M7.3,4.5H9v12.1H7.3v-6.1h-1c-0.2,2.5-1.2,4-2.8,4c-1.7,0-2.8-1.8-2.8-4.7c0-2.9,1.1-4.7,2.8-4.7
				c1.5,0,2.6,1.4,2.8,3.8h1V4.5z M4.6,9.9c0-2-0.4-2.9-1.1-2.9c-0.7,0-1.1,1-1.1,2.9c0,2,0.4,3,1.1,3C4.2,12.8,4.6,11.9,4.6,9.9z
				 M11.7,4.3v12.9H9.9V4.3H11.7z"/>
			<path class="st1" d="M16,12.7c1.6,0,3.3-0.2,5-0.5l0.2,1.5c-2.1,0.4-4,0.5-6,0.5h-1.1V5.7H16V12.7z M24.3,4.3v13h-1.8V9.8H19V8.3
				h3.5v-4H24.3z"/>
			<path class="st1" d="M31.3,7.8c0,2.1,1,4.3,3.2,5.2l-1,1.5C32,13.8,31,12.6,30.4,11c-0.6,1.7-1.6,3.1-3.1,3.8l-1.1-1.5
				c2.2-1,3.2-3.3,3.2-5.5V7.1h-2.7V5.5H34v1.5h-2.7V7.8z M37,4.3v12.9h-1.8V4.3H37z"/>
			<path class="st1" d="M49.6,11.2c-1.5-0.4-2.5-1.3-3-2.4c-0.6,1.2-1.6,2.2-3.1,2.6l-0.9-1.5c2-0.6,3-2,3.1-3.5H43V5h7v1.5h-2.5
				c0.1,1.4,1.1,2.7,3,3.3L49.6,11.2z M51.3,11.9h1.8v5.2h-8.6v-5.2h1.8V13h4.9V11.9z M51.3,14.4h-4.9v1.1h4.9V14.4z M53.1,4.3v7
				h-1.9v-7H53.1z"/>
			<path class="st1" d="M58.9,11.3c-2,0-3.5-1.3-3.5-3.2S56.9,5,58.9,5c2,0,3.5,1.3,3.5,3.2S60.9,11.3,58.9,11.3z M56.9,12.4h8.6
				v4.8h-1.8v-3.3h-6.8V12.4z M58.9,9.8c1,0,1.7-0.6,1.7-1.6c0-1-0.7-1.6-1.7-1.6c-1,0-1.7,0.6-1.7,1.6C57.2,9.2,57.9,9.8,58.9,9.8z
				 M65.5,7.5v1.3h1.7v1.5h-1.7v1.6h-1.8V4.3h1.8V6h1.7v1.5H65.5z"/>
			<path class="st1" d="M79.9,14.2v1.5H68.2v-1.5h4.9v-2.7h-3.5V5.2h9v1.5h-7.1v3.4h7.2v1.5h-3.7v2.7H79.9z"/>
		</g>
	</g>
	<rect id="사각형_534" x="20" y="3561.5" class="st2" width="47.4" height="183"/>
	<path id="패스_5001" class="st3" d="M20.2,3597.9h334.6"/>
	<line id="선_439" class="st3" x1="20.2" y1="3634.1" x2="354.8" y2="3634.1"/>
	<line id="선_440" class="st3" x1="20.2" y1="3671.7" x2="354.8" y2="3671.7"/>
	<line id="선_441" class="st3" x1="20.2" y1="3708" x2="354.8" y2="3708"/>
	<g>
		<g class="st0">
			<path d="M43.4,3580.3h-4.3v4.5h-1.2v-4.5h-4.2v-1h7c0.3-1.5,0.3-2.6,0.3-3.6h-6.2v-1h7.4v0.9c0,1,0,2.1-0.3,3.7h1.5V3580.3z"/>
			<path d="M54.4,3579.6v1h-4.2v1.9H49v-1.9h-4.4v-1H54.4z M47,3583.6h6.3v1h-7.5v-3H47V3583.6z M53.1,3578.7h-7.3v-4.4h1.2v1.3h4.8
				v-1.3h1.2V3578.7z M51.9,3576.5h-4.8v1.2h4.8V3576.5z"/>
		</g>
	</g>
	<g class="st0">
		<path d="M39.9,3616.1c-1.5,0.3-2.7,0.4-5,0.4h-0.8v-4.9h4.8v0.8h-3.8v3.3c2.1,0,3.3-0.1,4.7-0.4L39.9,3616.1z M36.2,3620.3h6.2
			v0.8h-7.2v-3.5h1V3620.3z M43.5,3613.8v0.8h-1.6v3.8h-1v-7.8h1v3.2H43.5z"/>
		<path d="M51.8,3616.8c-1,0.2-2.1,0.3-3.1,0.4v3.9h-1v-3.8c-1.1,0-2.1,0.1-3,0.1l-0.1-0.8c2,0,4.7,0,7.1-0.4L51.8,3616.8z
			 M45.4,3613.4c0-1.3,1.1-2.2,2.7-2.2c1.6,0,2.7,0.9,2.7,2.2c0,1.3-1.1,2.2-2.7,2.2C46.6,3615.6,45.4,3614.7,45.4,3613.4z
			 M46.4,3613.4c0,0.8,0.7,1.4,1.8,1.4c1,0,1.8-0.6,1.8-1.4c0-0.8-0.7-1.4-1.8-1.4C47.1,3612,46.4,3612.5,46.4,3613.4z M53.5,3610.6
			v10.8h-1v-10.8H53.5z"/>
	</g>
	<g class="st0">
		<path d="M31.2,3656.9c2.8-2.4,4-4.2,4-5.7c0-1-0.5-1.7-1.6-1.7c-0.7,0-1.3,0.4-1.8,1l-0.6-0.6c0.7-0.8,1.5-1.3,2.6-1.3
			c1.6,0,2.6,1,2.6,2.6c0,1.8-1.4,3.5-3.4,5.5c0.5,0,1-0.1,1.4-0.1h2.4v0.9h-5.5V3656.9z"/>
		<path d="M37.9,3653.1c0-3.1,1.1-4.5,2.7-4.5c1.7,0,2.7,1.5,2.7,4.5c0,3.1-1.1,4.6-2.7,4.6C39,3657.7,37.9,3656.1,37.9,3653.1z
			 M42.3,3653.1c0-2.6-0.7-3.6-1.7-3.6c-1,0-1.7,1.1-1.7,3.6c0,2.6,0.7,3.7,1.7,3.7C41.7,3656.8,42.3,3655.7,42.3,3653.1z"/>
		<path d="M45.1,3656.6h2v-6.6h-1.6v-0.7c0.8-0.1,1.3-0.3,1.8-0.6h0.8v7.9h1.8v0.9h-4.8V3656.6z"/>
		<path d="M51.2,3655.3c0-1.2,0.8-2,1.6-2.4v-0.1c-0.6-0.4-1.2-1.1-1.2-2c0-1.3,1-2.2,2.4-2.2c1.5,0,2.4,1,2.4,2.3
			c0,0.9-0.6,1.7-1.2,2.1v0.1c0.8,0.4,1.5,1.1,1.5,2.3c0,1.3-1.1,2.3-2.8,2.3C52.4,3657.7,51.2,3656.7,51.2,3655.3z M55.7,3655.4
			c0-1.2-1.1-1.6-2.3-2.1c-0.7,0.5-1.2,1.2-1.2,2c0,0.9,0.8,1.6,1.8,1.6C55,3656.8,55.7,3656.2,55.7,3655.4z M55.5,3651
			c0-0.9-0.6-1.6-1.5-1.6c-0.8,0-1.4,0.6-1.4,1.4c0,1.1,0.9,1.5,2,1.9C55.2,3652.2,55.5,3651.6,55.5,3651z"/>
	</g>
	<g class="st0">
		<path d="M31.2,3693.9c2.8-2.4,4-4.2,4-5.7c0-1-0.5-1.7-1.6-1.7c-0.7,0-1.3,0.4-1.8,1l-0.6-0.6c0.7-0.8,1.5-1.3,2.6-1.3
			c1.6,0,2.6,1,2.6,2.6c0,1.8-1.4,3.5-3.4,5.5c0.5,0,1-0.1,1.4-0.1h2.4v0.9h-5.5V3693.9z"/>
		<path d="M37.9,3690.1c0-3.1,1.1-4.5,2.7-4.5c1.7,0,2.7,1.5,2.7,4.5c0,3.1-1.1,4.6-2.7,4.6C39,3694.7,37.9,3693.1,37.9,3690.1z
			 M42.3,3690.1c0-2.6-0.7-3.6-1.7-3.6c-1,0-1.7,1.1-1.7,3.6c0,2.6,0.7,3.7,1.7,3.7C41.7,3693.8,42.3,3692.7,42.3,3690.1z"/>
		<path d="M45.1,3693.6h2v-6.6h-1.6v-0.7c0.8-0.1,1.3-0.3,1.8-0.6h0.8v7.9h1.8v0.9h-4.8V3693.6z"/>
		<path d="M52,3693.1c0.4,0.4,0.9,0.7,1.5,0.7c1.1,0,2.1-0.9,2.2-3.7c-0.5,0.7-1.3,1.1-2,1.1c-1.5,0-2.4-0.9-2.4-2.8
			c0-1.7,1.2-2.9,2.5-2.9c1.7,0,3,1.4,3,4.2c0,3.6-1.5,4.9-3.2,4.9c-0.9,0-1.6-0.4-2.1-0.9L52,3693.1z M55.6,3689.2
			c-0.1-1.8-0.8-2.8-1.9-2.8c-0.8,0-1.5,0.8-1.5,2c0,1.2,0.5,2,1.6,2C54.4,3690.4,55,3690,55.6,3689.2z"/>
	</g>
	<g class="st0">
		<path d="M31.2,3729.9c2.8-2.4,4-4.2,4-5.7c0-1-0.5-1.7-1.6-1.7c-0.7,0-1.3,0.4-1.8,1l-0.6-0.6c0.7-0.8,1.5-1.3,2.6-1.3
			c1.6,0,2.6,1,2.6,2.6c0,1.8-1.4,3.5-3.4,5.5c0.5,0,1-0.1,1.4-0.1h2.4v0.9h-5.5V3729.9z"/>
		<path d="M37.9,3726.1c0-3.1,1.1-4.5,2.7-4.5c1.7,0,2.7,1.5,2.7,4.5c0,3.1-1.1,4.6-2.7,4.6C39,3730.7,37.9,3729.1,37.9,3726.1z
			 M42.3,3726.1c0-2.6-0.7-3.6-1.7-3.6c-1,0-1.7,1.1-1.7,3.6c0,2.6,0.7,3.7,1.7,3.7C41.7,3729.8,42.3,3728.7,42.3,3726.1z"/>
		<path d="M44.5,3729.9c2.8-2.4,4-4.2,4-5.7c0-1-0.5-1.7-1.6-1.7c-0.7,0-1.3,0.4-1.8,1l-0.6-0.6c0.7-0.8,1.5-1.3,2.6-1.3
			c1.6,0,2.6,1,2.6,2.6c0,1.8-1.4,3.5-3.4,5.5c0.5,0,1-0.1,1.4-0.1h2.4v0.9h-5.5V3729.9z"/>
		<path d="M51.2,3726.1c0-3.1,1.1-4.5,2.7-4.5c1.7,0,2.7,1.5,2.7,4.5c0,3.1-1.1,4.6-2.7,4.6C52.3,3730.7,51.2,3729.1,51.2,3726.1z
			 M55.7,3726.1c0-2.6-0.7-3.6-1.7-3.6c-1,0-1.7,1.1-1.7,3.6c0,2.6,0.7,3.7,1.7,3.7C55,3729.8,55.7,3728.7,55.7,3726.1z"/>
	</g>
	<g>
		<g class="st0">
			<path d="M98.8,3580.1c-1.2-0.4-2.2-1.2-2.6-2.3c-0.5,1.2-1.4,2.1-2.7,2.5l-0.6-1c1.7-0.6,2.7-2,2.7-3.4v-0.2h-2.4v-1h5.9v1h-2.3
				v0.2c0,1.4,1,2.7,2.7,3.2L98.8,3580.1z M94.4,3581.1h7.3v3.8h-1.2v-2.8h-6.1V3581.1z M101.7,3574v6.5h-1.2v-6.5H101.7z"/>
			<path d="M109.6,3579.9c-1.2-0.4-2.1-1.3-2.5-2.3c-0.5,1.2-1.4,2.1-2.7,2.6l-0.6-1c1.7-0.6,2.7-2,2.7-3.5v-0.1h-2.3v-1h5.8v1h-2.3
				v0.1c0,1.3,0.9,2.7,2.5,3.2L109.6,3579.9z M111.5,3580.4h1.2v4.3h-7v-4.3h1.2v1.2h4.6V3580.4z M111.5,3582.5h-4.6v1.2h4.6V3582.5
				z M112.8,3574v5.9h-1.2v-2.4h-1.9v-1h1.9v-2.5H112.8z"/>
			<path d="M123.4,3574.2h1.2v10.1h-1.2v-5.2h-1.2c-0.1,2.1-1,3.4-2.3,3.4c-1.4,0-2.3-1.5-2.3-3.9c0-2.4,0.9-3.8,2.3-3.8
				c1.3,0,2.2,1.2,2.3,3.3h1.2V3574.2z M121.2,3578.7c0-1.7-0.5-2.7-1.2-2.7s-1.2,1-1.2,2.7c0,1.7,0.5,2.7,1.2,2.7
				S121.2,3580.4,121.2,3578.7z M126.8,3574v10.8h-1.2V3574H126.8z"/>
			<path d="M130.4,3581.2c1.5,0,3-0.1,4.5-0.4l0.1,1c-1.7,0.3-3.3,0.4-5,0.4h-0.9v-7.1h1.2V3581.2z M137.6,3574v10.9h-1.2v-6.4h-3.1
				v-1h3.1v-3.5H137.6z"/>
			<path d="M143.6,3577.1c0,1.8,1.1,3.7,2.8,4.4l-0.7,1c-1.3-0.6-2.2-1.7-2.7-3.1c-0.5,1.5-1.5,2.8-2.7,3.4l-0.7-1
				c1.7-0.8,2.8-2.8,2.8-4.7v-1h-2.4v-1h6.1v1h-2.4V3577.1z M148.5,3574v10.8h-1.2V3574H148.5z"/>
			<path d="M159.2,3579.5c-1.2-0.4-2.1-1.2-2.6-2.1c-0.5,1.1-1.4,2-2.7,2.4l-0.6-1c1.7-0.6,2.6-1.9,2.6-3.2v-0.1h-2.3v-1h5.8v1h-2.3
				v0.1c0,1.2,0.9,2.4,2.5,2.9L159.2,3579.5z M162.7,3583.7v1h-7.4v-2.8h5.8v-0.9h-5.8v-1h7.1v2.7h-5.8v1H162.7z M161.1,3576.3v-2.3
				h1.2v5.6h-1.2v-2.2h-1.9v-1H161.1z"/>
			<path d="M169.9,3574.6c0,2.8-1.9,4.8-5.1,5.6l-0.5-1c2.5-0.7,4-2,4.2-3.6h-3.7v-1H169.9z M165.9,3580.6h6.9v4.1h-6.9V3580.6z
				 M167.1,3583.7h4.5v-2.1h-4.5V3583.7z M174.4,3577.5h-1.5v2.6h-1.2v-6.1h1.2v2.5h1.5V3577.5z"/>
			<path d="M181.9,3579.6c-1.6,0.3-3,0.3-5.1,0.3h-0.9v-3.2h3.7v-1.2h-3.7v-1h4.9v3.1h-3.7v1.2c1.9,0,3.2-0.1,4.7-0.3L181.9,3579.6z
				 M184,3582.8c0,1.3-1.4,2-3.6,2s-3.6-0.7-3.6-2c0-1.3,1.4-2,3.6-2S184,3581.5,184,3582.8z M182.8,3582.8c0-0.7-0.9-1.1-2.4-1.1
				c-1.5,0-2.4,0.4-2.4,1.1c0,0.7,0.9,1.1,2.4,1.1C181.9,3583.9,182.8,3583.5,182.8,3582.8z M183.9,3576.6v1.3h1.5v1h-1.5v1.7h-1.2
				v-6.6h1.2v1.6h1.5v1H183.9z"/>
		</g>
	</g>
	<g>
		<g class="st0">
			<path d="M242.3,3574.8c0,2.9-1.9,4.9-5.1,5.9l-0.5-1c2.5-0.8,4-2.2,4.2-3.9h-3.8v-1H242.3z M239.6,3583.6h6v1h-7.3v-3.6h1.2
				V3583.6z M246.7,3577.2v1h-1.5v3.7H244v-7.8h1.2v3.2H246.7z"/>
			<path d="M253.6,3579.9c-1.2-0.4-2.1-1.3-2.5-2.3c-0.5,1.2-1.4,2.1-2.7,2.6l-0.6-1c1.7-0.6,2.7-2,2.7-3.5v-0.1h-2.3v-1h5.8v1h-2.3
				v0.1c0,1.3,0.9,2.7,2.5,3.2L253.6,3579.9z M255.5,3580.4h1.2v4.3h-7v-4.3h1.2v1.2h4.6V3580.4z M255.5,3582.5h-4.6v1.2h4.6V3582.5
				z M256.8,3574v5.9h-1.2v-2.4h-1.9v-1h1.9v-2.5H256.8z"/>
			<path d="M267.4,3574.2h1.2v10.1h-1.2v-5.2h-1.2c-0.1,2.1-1,3.4-2.3,3.4c-1.4,0-2.3-1.5-2.3-3.9c0-2.4,0.9-3.8,2.3-3.8
				c1.3,0,2.2,1.2,2.3,3.3h1.2V3574.2z M265.2,3578.7c0-1.7-0.5-2.7-1.2-2.7c-0.7,0-1.2,1-1.2,2.7c0,1.7,0.5,2.7,1.2,2.7
				C264.7,3581.3,265.2,3580.4,265.2,3578.7z M270.8,3574v10.8h-1.2V3574H270.8z"/>
			<path d="M274.4,3581.2c1.5,0,3-0.1,4.5-0.4l0.1,1c-1.7,0.3-3.3,0.4-5,0.4h-0.9v-7.1h1.2V3581.2z M281.6,3574v10.9h-1.2v-6.4h-3.1
				v-1h3.1v-3.5H281.6z"/>
			<path d="M287.6,3577.1c0,1.8,1.1,3.7,2.8,4.4l-0.7,1c-1.3-0.6-2.2-1.7-2.7-3.1c-0.5,1.5-1.5,2.8-2.7,3.4l-0.7-1
				c1.7-0.8,2.8-2.8,2.8-4.7v-1h-2.4v-1h6.1v1h-2.4V3577.1z M292.5,3574v10.8h-1.2V3574H292.5z"/>
			<path d="M303.2,3579.5c-1.2-0.4-2.1-1.2-2.6-2.1c-0.5,1.1-1.4,2-2.7,2.4l-0.6-1c1.7-0.6,2.6-1.9,2.6-3.2v-0.1h-2.3v-1h5.8v1h-2.3
				v0.1c0,1.2,0.9,2.4,2.5,2.9L303.2,3579.5z M306.7,3583.7v1h-7.4v-2.8h5.8v-0.9h-5.8v-1h7.1v2.7h-5.8v1H306.7z M305.1,3576.3v-2.3
				h1.2v5.6h-1.2v-2.2h-1.9v-1H305.1z"/>
			<path d="M313.9,3574.6c0,2.8-1.9,4.8-5.1,5.6l-0.5-1c2.5-0.7,4-2,4.2-3.6h-3.7v-1H313.9z M309.9,3580.6h6.9v4.1h-6.9V3580.6z
				 M311.1,3583.7h4.5v-2.1h-4.5V3583.7z M318.4,3577.5h-1.5v2.6h-1.2v-6.1h1.2v2.5h1.5V3577.5z"/>
			<path d="M325.9,3579.6c-1.6,0.3-3,0.3-5.1,0.3h-0.9v-3.2h3.7v-1.2h-3.7v-1h4.9v3.1h-3.7v1.2c1.9,0,3.2-0.1,4.7-0.3L325.9,3579.6z
				 M328,3582.8c0,1.3-1.4,2-3.6,2c-2.2,0-3.6-0.7-3.6-2c0-1.3,1.4-2,3.6-2C326.6,3580.8,328,3581.5,328,3582.8z M326.8,3582.8
				c0-0.7-0.9-1.1-2.4-1.1c-1.5,0-2.4,0.4-2.4,1.1c0,0.7,0.9,1.1,2.4,1.1C325.9,3583.9,326.8,3583.5,326.8,3582.8z M327.9,3576.6
				v1.3h1.5v1h-1.5v1.7h-1.2v-6.6h1.2v1.6h1.5v1H327.9z"/>
		</g>
	</g>
	<g class="st0">
		<path class="st4" d="M115.8,3612.7h-2.7v-0.9h6.4v0.9h-2.7v7.9h-1.1V3612.7z"/>
		<path class="st4" d="M118.7,3619.3l0.8-0.6c0.4,0.7,0.9,1,1.5,1c0.9,0,1.4-0.5,1.4-1.9v-6.1h1.1v6.2c0,1.5-0.7,2.7-2.4,2.7
			C120,3620.7,119.2,3620.2,118.7,3619.3z"/>
		<path class="st4" d="M128.4,3611h0.8l-3.6,11.7h-0.8L128.4,3611z"/>
	</g>
	<g class="st0">
		<path class="st4" d="M136.1,3616.1c-1.2-0.4-2.2-1.3-2.7-2.5c-0.5,1.2-1.5,2.2-2.7,2.7l-0.5-0.8c1.6-0.6,2.7-2,2.7-3.5v-1h1v1
			c0,1.5,1.1,2.8,2.7,3.3L136.1,3616.1z M137.9,3617h1v4.3h-6.9v-4.3h1v1.3h5V3617z M137.9,3619h-5v1.4h5V3619z M138.9,3610.6v5.8
			h-1v-5.8H138.9z"/>
		<path class="st4" d="M150,3610.6v6.3h-1v-2.8h-2.2c-0.2,1.3-1.3,2.2-2.7,2.2c-1.6,0-2.8-1.1-2.8-2.6c0-1.5,1.2-2.6,2.8-2.6
			c1.4,0,2.5,0.9,2.7,2.2h2.2v-2.8H150z M145.9,3613.8c0-1-0.8-1.7-1.8-1.7c-1.1,0-1.8,0.7-1.8,1.7c0,1,0.8,1.8,1.8,1.8
			C145.1,3615.6,145.9,3614.8,145.9,3613.8z M142.8,3617.6h7.2v3.8h-1v-3h-6.2V3617.6z"/>
		<path class="st4" d="M157.9,3616.4c-1.1,0-2.1,0.1-3,0.1l-0.1-0.8c2,0,4.7,0,6.9-0.3l0.1,0.7c-0.9,0.1-1.9,0.3-2.9,0.3v2.1h-1
			V3616.4z M155.6,3612.9c0-1.1,1.1-1.9,2.7-1.9c1.6,0,2.7,0.7,2.7,1.9c0,1.2-1.1,1.9-2.7,1.9
			C156.7,3614.8,155.6,3614.1,155.6,3612.9z M163.9,3620.3v0.8h-7.6v-3.1h1v2.3H163.9z M156.5,3612.9c0,0.7,0.7,1.2,1.7,1.2
			s1.7-0.5,1.7-1.2c0-0.7-0.7-1.1-1.7-1.1S156.5,3612.3,156.5,3612.9z M162.6,3617v-6.4h1v8.2h-1v-1.1h-2.2v-0.7H162.6z"/>
	</g>
	<g class="st0">
		<path class="st4" d="M259.8,3612.7h-2.7v-0.9h6.4v0.9h-2.7v7.9h-1.1V3612.7z"/>
		<path class="st4" d="M262.7,3619.3l0.8-0.6c0.4,0.7,0.9,1,1.5,1c0.9,0,1.4-0.5,1.4-1.9v-6.1h1.1v6.2c0,1.5-0.7,2.7-2.4,2.7
			C264,3620.7,263.2,3620.2,262.7,3619.3z"/>
		<path class="st4" d="M272.4,3611h0.8l-3.6,11.7h-0.8L272.4,3611z"/>
	</g>
	<g class="st0">
		<path class="st4" d="M280.1,3616.1c-1.2-0.4-2.2-1.3-2.7-2.5c-0.5,1.2-1.5,2.2-2.7,2.7l-0.5-0.8c1.6-0.6,2.7-2,2.7-3.5v-1h1v1
			c0,1.5,1.1,2.8,2.7,3.3L280.1,3616.1z M281.9,3617h1v4.3h-6.9v-4.3h1v1.3h5V3617z M281.9,3619h-5v1.4h5V3619z M282.9,3610.6v5.8
			h-1v-5.8H282.9z"/>
		<path class="st4" d="M294,3610.6v6.3h-1v-2.8h-2.2c-0.2,1.3-1.3,2.2-2.7,2.2c-1.6,0-2.8-1.1-2.8-2.6c0-1.5,1.2-2.6,2.8-2.6
			c1.4,0,2.5,0.9,2.7,2.2h2.2v-2.8H294z M289.9,3613.8c0-1-0.8-1.7-1.8-1.7c-1.1,0-1.8,0.7-1.8,1.7c0,1,0.8,1.8,1.8,1.8
			C289.1,3615.6,289.9,3614.8,289.9,3613.8z M286.8,3617.6h7.2v3.8h-1v-3h-6.2V3617.6z"/>
		<path class="st4" d="M301.9,3616.4c-1.1,0-2.1,0.1-3,0.1l-0.1-0.8c2,0,4.7,0,6.9-0.3l0.1,0.7c-0.9,0.1-1.9,0.3-2.9,0.3v2.1h-1
			V3616.4z M299.6,3612.9c0-1.1,1.1-1.9,2.7-1.9s2.7,0.7,2.7,1.9c0,1.2-1.1,1.9-2.7,1.9S299.6,3614.1,299.6,3612.9z M307.9,3620.3
			v0.8h-7.6v-3.1h1v2.3H307.9z M300.5,3612.9c0,0.7,0.7,1.2,1.7,1.2s1.7-0.5,1.7-1.2c0-0.7-0.7-1.1-1.7-1.1
			S300.5,3612.3,300.5,3612.9z M306.6,3617v-6.4h1v8.2h-1v-1.1h-2.2v-0.7H306.6z"/>
	</g>
	<g class="st0">
		<path class="st4" d="M131,3656.5l0.6-0.7c0.5,0.5,1.2,1,2.2,1c1,0,1.8-0.6,1.8-1.6c0-1.1-0.7-1.8-2.7-1.8v-0.8
			c1.8,0,2.4-0.7,2.4-1.7c0-0.9-0.6-1.4-1.5-1.4c-0.7,0-1.3,0.4-1.8,0.9l-0.6-0.7c0.7-0.6,1.4-1.1,2.5-1.1c1.5,0,2.6,0.8,2.6,2.2
			c0,1.1-0.6,1.8-1.6,2.1v0c1,0.2,1.9,1,1.9,2.2c0,1.6-1.3,2.5-2.8,2.5C132.5,3657.7,131.6,3657.1,131,3656.5z"/>
		<path class="st4" d="M138.2,3656.8c0-0.5,0.4-0.9,0.8-0.9s0.8,0.4,0.8,0.9c0,0.5-0.4,0.8-0.8,0.8S138.2,3657.3,138.2,3656.8z"/>
		<path class="st4" d="M141.3,3653.1c0-3.1,1.1-4.5,2.7-4.5c1.7,0,2.7,1.5,2.7,4.5c0,3.1-1.1,4.6-2.7,4.6
			C142.3,3657.7,141.3,3656.1,141.3,3653.1z M145.7,3653.1c0-2.6-0.7-3.6-1.7-3.6c-1,0-1.7,1.1-1.7,3.6c0,2.6,0.7,3.7,1.7,3.7
			C145,3656.8,145.7,3655.7,145.7,3653.1z"/>
	</g>
	<g class="st0">
		<path class="st4" d="M276,3656.1c0.4,0.4,0.9,0.7,1.5,0.7c1.1,0,2.1-0.9,2.2-3.7c-0.5,0.7-1.3,1.1-2,1.1c-1.5,0-2.4-0.9-2.4-2.8
			c0-1.7,1.2-2.9,2.5-2.9c1.7,0,3,1.4,3,4.2c0,3.6-1.5,4.9-3.2,4.9c-0.9,0-1.6-0.4-2.1-0.9L276,3656.1z M279.6,3652.2
			c-0.1-1.8-0.8-2.8-1.9-2.8c-0.8,0-1.5,0.8-1.5,2c0,1.2,0.5,2,1.6,2C278.4,3653.4,279,3653,279.6,3652.2z"/>
		<path class="st4" d="M282.2,3656.8c0-0.5,0.4-0.9,0.8-0.9s0.8,0.4,0.8,0.9c0,0.5-0.4,0.8-0.8,0.8S282.2,3657.3,282.2,3656.8z"/>
		<path class="st4" d="M286,3656.1c0.4,0.4,0.9,0.7,1.5,0.7c1.1,0,2.1-0.9,2.2-3.7c-0.5,0.7-1.3,1.1-2,1.1c-1.5,0-2.4-0.9-2.4-2.8
			c0-1.7,1.2-2.9,2.5-2.9c1.7,0,3,1.4,3,4.2c0,3.6-1.5,4.9-3.2,4.9c-0.9,0-1.6-0.4-2.1-0.9L286,3656.1z M289.6,3652.2
			c-0.1-1.8-0.8-2.8-1.9-2.8c-0.8,0-1.5,0.8-1.5,2c0,1.2,0.5,2,1.6,2C288.4,3653.4,289,3653,289.6,3652.2z"/>
	</g>
	<g class="st0">
		<path class="st4" d="M131,3693.5l0.6-0.7c0.5,0.5,1.2,1,2.2,1c1,0,1.8-0.6,1.8-1.6c0-1.1-0.7-1.8-2.7-1.8v-0.8
			c1.8,0,2.4-0.7,2.4-1.7c0-0.9-0.6-1.4-1.5-1.4c-0.7,0-1.3,0.4-1.8,0.9l-0.6-0.7c0.7-0.6,1.4-1.1,2.5-1.1c1.5,0,2.6,0.8,2.6,2.2
			c0,1.1-0.6,1.8-1.6,2.1v0c1,0.2,1.9,1,1.9,2.2c0,1.6-1.3,2.5-2.8,2.5C132.5,3694.7,131.6,3694.1,131,3693.5z"/>
		<path class="st4" d="M138.2,3693.8c0-0.5,0.4-0.9,0.8-0.9s0.8,0.4,0.8,0.9c0,0.5-0.4,0.8-0.8,0.8S138.2,3694.3,138.2,3693.8z"/>
		<path class="st4" d="M141.2,3693.9c2.8-2.4,4-4.2,4-5.7c0-1-0.5-1.7-1.6-1.7c-0.7,0-1.3,0.4-1.8,1l-0.6-0.6
			c0.7-0.8,1.5-1.3,2.6-1.3c1.6,0,2.6,1,2.6,2.6c0,1.8-1.4,3.5-3.4,5.5c0.5,0,1-0.1,1.4-0.1h2.4v0.9h-5.5V3693.9z"/>
	</g>
	<g class="st0">
		<path class="st4" d="M272.4,3693.6h2v-6.6h-1.6v-0.7c0.8-0.1,1.3-0.3,1.8-0.6h0.8v7.9h1.8v0.9h-4.8V3693.6z"/>
		<path class="st4" d="M279.1,3693.6h2v-6.6h-1.6v-0.7c0.8-0.1,1.3-0.3,1.8-0.6h0.8v7.9h1.8v0.9h-4.8V3693.6z"/>
		<path class="st4" d="M285.5,3693.8c0-0.5,0.4-0.9,0.8-0.9s0.8,0.4,0.8,0.9c0,0.5-0.4,0.8-0.8,0.8S285.5,3694.3,285.5,3693.8z"/>
		<path class="st4" d="M288.3,3693.5l0.6-0.7c0.5,0.5,1.2,1,2.2,1c1,0,1.8-0.6,1.8-1.6c0-1.1-0.7-1.8-2.7-1.8v-0.8
			c1.8,0,2.4-0.7,2.4-1.7c0-0.9-0.6-1.4-1.5-1.4c-0.7,0-1.3,0.4-1.8,0.9l-0.6-0.7c0.7-0.6,1.4-1.1,2.5-1.1c1.5,0,2.6,0.8,2.6,2.2
			c0,1.1-0.6,1.8-1.6,2.1v0c1,0.2,1.9,1,1.9,2.2c0,1.6-1.3,2.5-2.8,2.5C289.8,3694.7,288.9,3694.1,288.3,3693.5z"/>
	</g>
	<g class="st0">
		<path class="st4" d="M131,3729.5l0.6-0.7c0.5,0.5,1.2,1,2.2,1c1,0,1.8-0.6,1.8-1.6c0-1.1-0.7-1.8-2.7-1.8v-0.8
			c1.8,0,2.4-0.7,2.4-1.7c0-0.9-0.6-1.4-1.5-1.4c-0.7,0-1.3,0.4-1.8,0.9l-0.6-0.7c0.7-0.6,1.4-1.1,2.5-1.1c1.5,0,2.6,0.8,2.6,2.2
			c0,1.1-0.6,1.8-1.6,2.1v0c1,0.2,1.9,1,1.9,2.2c0,1.6-1.3,2.5-2.8,2.5C132.5,3730.7,131.6,3730.1,131,3729.5z"/>
		<path class="st4" d="M138.2,3729.8c0-0.5,0.4-0.9,0.8-0.9s0.8,0.4,0.8,0.9c0,0.5-0.4,0.8-0.8,0.8S138.2,3730.3,138.2,3729.8z"/>
		<path class="st4" d="M145.5,3722.7h-4.3v-0.9h5.5v0.7c-2.1,2.7-2.4,4.7-2.6,8.1H143C143.2,3727.2,143.8,3725,145.5,3722.7z"/>
	</g>
	<g class="st0">
		<path class="st4" d="M280,3723.1c-0.3-0.4-0.9-0.7-1.4-0.7c-1.2,0-2.2,0.9-2.3,3.7c0.5-0.7,1.3-1.1,2-1.1c1.5,0,2.4,0.9,2.4,2.8
			c0,1.7-1.2,2.9-2.5,2.9c-1.7,0-2.9-1.5-2.9-4.4c0-3.4,1.5-4.8,3.2-4.8c0.9,0,1.6,0.4,2.1,0.9L280,3723.1z M279.8,3727.8
			c0-1.2-0.5-1.9-1.6-1.9c-0.6,0-1.2,0.3-1.8,1.1c0.1,1.8,0.8,2.8,1.9,2.8C279.1,3729.8,279.8,3729,279.8,3727.8z"/>
		<path class="st4" d="M282.2,3729.8c0-0.5,0.4-0.9,0.8-0.9s0.8,0.4,0.8,0.9c0,0.5-0.4,0.8-0.8,0.8S282.2,3730.3,282.2,3729.8z"/>
		<path class="st4" d="M285,3729.5l0.6-0.7c0.5,0.5,1.2,1,2.2,1c1,0,1.8-0.6,1.8-1.6c0-1.1-0.7-1.8-2.7-1.8v-0.8
			c1.8,0,2.4-0.7,2.4-1.7c0-0.9-0.6-1.4-1.5-1.4c-0.7,0-1.3,0.4-1.8,0.9l-0.6-0.7c0.7-0.6,1.4-1.1,2.5-1.1c1.5,0,2.6,0.8,2.6,2.2
			c0,1.1-0.6,1.8-1.6,2.1v0c1,0.2,1.9,1,1.9,2.2c0,1.6-1.3,2.5-2.8,2.5C286.5,3730.7,285.6,3730.1,285,3729.5z"/>
	</g>
	<line id="선_438" class="st3" x1="67.4" y1="3561.7" x2="67.4" y2="3744.2"/>
	<path id="패스_5002" class="st3" d="M211,3562v182.5"/>
	<path id="패스_5000" class="st5" d="M20.2,3561.7h334.6"/>
	<line id="선_442" class="st5" x1="20.2" y1="3744.5" x2="354.8" y2="3744.5"/>
</g>
</svg>
