<?xml version="1.0" encoding="utf-8"?>
<!-- Generator: Adobe Illustrator 25.1.0, SVG Export Plug-In . SVG Version: 6.00 Build 0)  -->
<svg version="1.1" id="레이어_1" xmlns="http://www.w3.org/2000/svg" xmlns:xlink="http://www.w3.org/1999/xlink" x="0px"
	 y="0px" viewBox="0 0 335 427.3" style="enable-background:new 0 0 335 427.3;" xml:space="preserve">
<style type="text/css">
	.st0{enable-background:new    ;}
	.st1{fill:#DF1C2F;}
	.st2{fill:none;}
	.st3{fill:none;stroke:#D5D5D5;}
	.st4{fill:none;stroke:#DF1C2F;stroke-width:0.283;}
</style>
<g id="그룹_5885" transform="translate(-20 -2891.197)">
	<g class="st0">
		<path class="st1" d="M271.6,2950.9v1.2h-11.5v-1.2h5v-2.6h-4v-1.2h1.8v-3.9H261v-1.2h9.5v1.2h-1.9v3.9h1.8v1.2h-4v2.6H271.6z
			 M264.3,2947.1h2.9v-3.9h-2.9V2947.1z"/>
		<path class="st1" d="M280.4,2943.4H273v-1.1h3v-1.4h1.4v1.4h3V2943.4z M276.7,2948.4c-1.8,0-3.1-0.9-3.1-2.2
			c0-1.4,1.2-2.3,3.1-2.3c1.8,0,3.1,0.9,3.1,2.3C279.8,2947.6,278.5,2948.4,276.7,2948.4z M283,2951.4c0,1.4-1.6,2.2-4.2,2.2
			c-2.6,0-4.2-0.8-4.2-2.2c0-1.4,1.6-2.2,4.2-2.2C281.4,2949.1,283,2950,283,2951.4z M276.7,2947.4c1,0,1.7-0.5,1.7-1.2
			c0-0.7-0.7-1.2-1.7-1.2s-1.7,0.4-1.7,1.2C275,2946.9,275.7,2947.4,276.7,2947.4z M281.6,2951.4c0-0.7-1-1.1-2.7-1.1
			c-1.7,0-2.7,0.4-2.7,1.1c0,0.7,1,1.1,2.7,1.1C280.5,2952.5,281.6,2952.1,281.6,2951.4z M284.6,2944.3v1.2h-1.8v3.5h-1.4v-8.1h1.4
			v3.4H284.6z"/>
	</g>
	<g class="st0">
		<path d="M214,3011.4v0.5h-9.3v-0.5h4.3v-2.4h-3.2v-5.2h0.6v2h5.7v-2h0.6v5.2h-3.2v2.4H214z M206.5,3008.5h5.7v-2.2h-5.7V3008.5z"
			/>
		<path d="M218.1,3008c-1.5,0-2.6-0.9-2.6-2.2s1.1-2.2,2.6-2.2s2.6,0.9,2.6,2.2S219.6,3008,218.1,3008z M218.1,3007.4
			c1.1,0,2-0.7,2-1.7c0-1-0.8-1.7-2-1.7s-2,0.7-2,1.7C216.2,3006.7,217,3007.4,218.1,3007.4z M224,3012.6v0.5h-6.9v-2.4h5.9v-1.3
			h-5.9v-0.5h6.5v2.3h-5.9v1.4H224z M223.6,3008.4H223v-5.3h0.6V3008.4z"/>
		<path d="M227,3010.3c1.9,0,3.2-0.1,4.7-0.4l0.1,0.5c-1.6,0.3-2.8,0.4-4.7,0.4h-0.7v-3.8h3.9v-2.4h-3.9v-0.5h4.5v3.4h-3.9v2.8H227z
			 M234.2,3003.1v10.2h-0.6v-5.6h-2.2v-0.5h2.2v-4.1H234.2z"/>
		<path d="M243.9,3007.7c-0.5,0.6-1.2,1-2.2,1c-1.5,0-2.6-1-2.6-2.5c0-1.5,1.1-2.5,2.6-2.5c0.9,0,1.7,0.4,2.1,1h2.8v-1.7h0.6v7.6
			h-0.6v-2.9H243.9z M241.7,3008.2c1.2,0,2-0.9,2-2c0-1.1-0.9-2-2-2s-2,0.9-2,2C239.7,3007.4,240.6,3008.2,241.7,3008.2z
			 M247.6,3012.5v0.5h-6.7v-3.2h0.6v2.6H247.6z M244.2,3005.3c0.1,0.3,0.2,0.6,0.2,1c0,0.3-0.1,0.7-0.2,1h2.5v-1.9H244.2z"/>
		<path d="M258.8,3011.4v0.5h-9.3v-0.5h4.3v-2.6h0.6v2.6H258.8z M258,3008.8c-1.4-0.3-3.2-1.4-3.9-3c-0.6,1.6-2.5,2.7-3.9,3
			l-0.3-0.5c1.5-0.3,3.8-1.8,3.8-3.6v-0.8h0.6v0.8c0,1.9,2.4,3.3,3.8,3.6L258,3008.8z"/>
		<path d="M269.4,3008.3v0.5h-9.2v-0.5h2.4v-1.6c-0.8-0.3-1.3-0.8-1.3-1.5c0-1.2,1.3-1.9,3.5-1.9c2.2,0,3.5,0.7,3.5,1.9
			c0,0.7-0.5,1.2-1.3,1.5v1.6H269.4z M268.2,3011.5c0,1.2-1.3,1.8-3.5,1.8s-3.5-0.6-3.5-1.8s1.3-1.8,3.5-1.8
			S268.2,3010.3,268.2,3011.5z M264.7,3006.5c1.8,0,2.9-0.5,2.9-1.4s-1.1-1.4-2.9-1.4c-1.8,0-2.9,0.5-2.9,1.4
			S263,3006.5,264.7,3006.5z M267.6,3011.5c0-0.8-1.1-1.3-2.9-1.3s-2.9,0.5-2.9,1.3c0,0.8,1.1,1.3,2.9,1.3
			S267.6,3012.3,267.6,3011.5z M263.1,3008.3h3.2v-1.4c-0.5,0.1-1,0.1-1.6,0.1c-0.6,0-1.1-0.1-1.6-0.1V3008.3z"/>
		<path d="M282.5,3008v0.5h-9.2v-0.5h4v-2.1h0.6v2.1H282.5z M281.4,3011.4c0,1.2-1.4,1.8-3.5,1.8c-2.2,0-3.5-0.7-3.5-1.8
			s1.4-1.9,3.5-1.9C280,3009.6,281.4,3010.3,281.4,3011.4z M280.7,3004.2h-6.3v-0.5h6.9v0.9c0,0.8,0,1.6-0.3,2.7l-0.6-0.1
			c0.3-1,0.3-1.8,0.3-2.6V3004.2z M280.8,3011.4c0-0.8-1.2-1.4-2.9-1.4c-1.7,0-2.9,0.5-2.9,1.4c0,0.8,1.2,1.3,2.9,1.3
			C279.6,3012.8,280.8,3012.3,280.8,3011.4z"/>
		<path d="M289.2,3004.2c0,2.9-1.5,5.5-4.8,7.1l-0.3-0.5c2.8-1.4,4.4-3.5,4.5-6.1h-4.1v-0.5H289.2z M292.2,3003.1v10.2h-0.6v-10.2
			H292.2z"/>
		<path d="M300.2,3006.1c0,1.8,1.4,3.6,2.7,4.3l-0.4,0.5c-1.1-0.6-2.2-1.9-2.6-3.4c-0.4,1.6-1.5,3-2.7,3.6l-0.4-0.5
			c1.3-0.7,2.7-2.7,2.7-4.5v-2h0.6V3006.1z M306.5,3007.9h-1.8v5.4h-0.6v-10.2h0.6v4.3h1.8V3007.9z"/>
		<path d="M313.2,3008.9c-1.2-0.4-2.1-1.4-2.6-2.5c-0.4,1.3-1.5,2.3-2.7,2.8l-0.3-0.5c1.4-0.5,2.7-1.9,2.7-3.4v-0.7h-2.4v-0.5h5.4
			v0.5h-2.4v0.7c0,1.4,1.2,2.7,2.6,3.2L313.2,3008.9z M316.2,3012.5v0.5h-6.7v-3.1h0.6v2.6H316.2z M315.3,3006v-2.9h0.6v7.5h-0.6
			v-4.1H313v-0.5H315.3z"/>
		<path d="M326.8,3003.3h0.6v9.4h-0.6v-3.5h-1.8c-0.4,1-1,1.7-1.9,1.7c-1.3,0-2.2-1.3-2.2-3.5c0-2.1,0.9-3.5,2.2-3.5
			c0.9,0,1.6,0.6,1.9,1.7h1.8V3003.3z M324.6,3007.5c0-1.7-0.6-2.9-1.6-2.9s-1.6,1.2-1.6,2.9c0,1.7,0.6,2.9,1.6,2.9
			S324.6,3009.2,324.6,3007.5z M326.8,3008.8v-2.6H325c0.1,0.4,0.1,0.8,0.1,1.3s0,0.9-0.1,1.3H326.8z M329.3,3003.1v10.2h-0.6v-10.2
			H329.3z"/>
		<path d="M336.2,3007.1c-0.4,0.6-1.2,1-2.2,1c-1.5,0-2.6-0.9-2.6-2.3s1.1-2.3,2.6-2.3c0.9,0,1.7,0.4,2.2,1h2.8v-1.4h0.6v5.3H339
			v-1.3H336.2z M334,3007.6c1.2,0,2-0.8,2-1.8s-0.9-1.8-2-1.8s-2,0.8-2,1.8S332.9,3007.6,334,3007.6z M340,3012.6v0.5h-6.9v-2.4h5.8
			v-1.3h-5.9v-0.5h6.5v2.3h-5.8v1.4H340z M336.5,3004.9c0.1,0.3,0.2,0.5,0.2,0.8c0,0.3,0,0.6-0.1,0.8h2.5v-1.6H336.5z"/>
	</g>
	<g class="st0">
		<path d="M220,3024.1c0,1.9,1.5,3.7,2.8,4.4l-0.4,0.5c-1.1-0.6-2.3-1.9-2.8-3.4c-0.5,1.6-1.6,3-2.7,3.6l-0.4-0.5
			c1.3-0.7,2.8-2.6,2.8-4.5v-2h0.6V3024.1z M224.8,3021.1v10.2h-0.6v-10.2H224.8z"/>
		<path d="M236.4,3029.3v0.5h-9.3v-0.5H236.4z M235.5,3026.9c-1.3-0.3-3.2-1.5-3.8-3.1c-0.6,1.6-2.5,2.7-3.8,3.1l-0.3-0.5
			c1.5-0.3,3.8-1.8,3.8-3.7v-0.8h0.6v0.8c0,1.9,2.4,3.4,3.8,3.7L235.5,3026.9z"/>
		<path d="M242.7,3026.2c-1.2,0.3-2.1,0.3-3.8,0.3h-0.6v-4.7h3.9v0.5h-3.3v1.5h2.8v0.5h-2.8v1.7h0c1.7,0,2.6,0,3.8-0.3L242.7,3026.2
			z M239.7,3027.8h6.6v3.3h-6.6V3027.8z M240.3,3030.6h5.4v-2.3h-5.4V3030.6z M243.7,3024.2h-1.6v-0.5h1.6v-2.5h0.6v5.9h-0.6V3024.2
			z M246.3,3021.1v6.2h-0.6v-6.2H246.3z"/>
		<path d="M255.2,3022.5c0,2.5-1,5-3.9,6.6l-0.4-0.4c2.6-1.4,3.6-3.5,3.7-5.6h-3.3v-0.5H255.2z M259.4,3021.1v10.2h-0.6v-5.4h-1.7
			v4.9h-0.6v-9.4h0.6v4h1.7v-4.3H259.4z"/>
		<path d="M267,3027c-1.1-0.5-2.1-1.4-2.6-2.6c-0.4,1.3-1.4,2.4-2.6,2.9l-0.3-0.5c1.4-0.6,2.6-2,2.6-3.7v-1.3h0.6v1.4
			c0,1.5,1.2,2.9,2.6,3.4L267,3027z M270,3030.5v0.5h-6.7v-3.2h0.6v2.6H270z M269.1,3024.2h-2.5v-0.5h2.5v-2.5h0.6v7.7h-0.6V3024.2z
			"/>
		<path d="M279.7,3025.9h-4.6v-4.1h4.6V3025.9z M279.2,3022.3h-3.5v3.1h3.5V3022.3z M280.1,3028.4c0,1.2,1.9,2.2,3.4,2.4l-0.2,0.5
			c-1.4-0.2-3-1-3.5-2c-0.6,1-2.2,1.8-3.6,2l-0.2-0.5c1.5-0.2,3.5-1.2,3.5-2.4v-0.1h-3.1v-0.5h3.1v-1.1h0.6v1.1h3.1v0.5h-3.1V3028.4
			z M282.8,3027h-0.6v-5.9h0.6V3027z"/>
		<path d="M292.9,3022.2c0,2.8-1.1,5.6-4.7,7.3l-0.4-0.5c2-1,3.2-2.3,3.9-3.8l-3.7,0.4l-0.1-0.6l4.1-0.3c0.2-0.6,0.3-1.3,0.4-2h-3.9
			v-0.5H292.9z M297.2,3025.9h-1.8v5.4h-0.6v-10.2h0.6v4.3h1.8V3025.9z"/>
		<path d="M307.5,3026.8v0.5h-9.2v-0.5h4.3v-1.2h-3.1v-4h0.6v1.5h5.5v-1.5h0.6v4h-3.1v1.2H307.5z M300.1,3030.5h6.4v0.5h-7v-2.8h0.6
			V3030.5z M300.1,3025h5.5v-1.6h-5.5V3025z"/>
		<path d="M318.1,3025.7v0.5h-9.2v-0.5H318.1z M310.6,3030.7h6.6v0.5H310v-2.2h6.2v-1.1H310v-0.5h6.9v2.1h-6.2V3030.7z
			 M316.9,3024.6h-6.8v-3.3h0.6v1.1h5.5v-1.1h0.6V3024.6z M316.2,3022.9h-5.5v1.2h5.5V3022.9z"/>
		<path d="M324.5,3026.6c-1.4,0.3-2.5,0.3-3.9,0.3h-0.6v-2.8h3.2v-1.7h-3.2v-0.5h3.8v2.7h-3.2v1.8h0c1.4,0,2.5-0.1,3.9-0.3
			L324.5,3026.6z M321.2,3028.1h6.7v3.2h-0.6v-2.7h-6.1V3028.1z M328,3021.1v6.4h-0.6v-3.1h-1.7v3h-0.6v-6.1h0.6v2.6h1.7v-2.8H328z"
			/>
	</g>
	<g class="st0">
		<path d="M222.7,3043.7c-0.5,0.6-1.2,1-2.2,1c-1.5,0-2.6-1-2.6-2.5c0-1.5,1.1-2.5,2.6-2.5c0.9,0,1.7,0.4,2.1,1h2.8v-1.7h0.6v7.6
			h-0.6v-2.9H222.7z M220.6,3044.2c1.2,0,2-0.9,2-2c0-1.1-0.9-2-2-2s-2,0.9-2,2C218.6,3043.4,219.4,3044.2,220.6,3044.2z
			 M226.5,3048.5v0.5h-6.7v-3.2h0.6v2.6H226.5z M223,3041.3c0.1,0.3,0.2,0.6,0.2,1c0,0.3-0.1,0.7-0.2,1h2.5v-1.9H223z"/>
		<path d="M237.7,3047.4v0.5h-9.3v-0.5h4.3v-2.6h0.6v2.6H237.7z M236.9,3044.8c-1.4-0.3-3.2-1.4-3.9-3c-0.6,1.6-2.5,2.7-3.9,3
			l-0.3-0.5c1.5-0.3,3.8-1.8,3.8-3.6v-0.8h0.6v0.8c0,1.9,2.4,3.3,3.8,3.6L236.9,3044.8z"/>
		<path d="M248.2,3044.4v0.5H244v2.3h-0.6v-2.3H239v-0.5H248.2z M240.1,3041.4c0-1.2,1.4-2,3.5-2c2.2,0,3.5,0.8,3.5,2
			c0,1.2-1.4,2-3.5,2C241.5,3043.4,240.1,3042.6,240.1,3041.4z M240.8,3048.5h6.4v0.5h-7v-2.9h0.6V3048.5z M240.7,3041.4
			c0,0.9,1.2,1.5,2.9,1.5c1.7,0,2.9-0.6,2.9-1.5s-1.2-1.5-2.9-1.5C241.9,3039.9,240.7,3040.5,240.7,3041.4z"/>
		<path d="M255.2,3044.9c-1.2-0.4-2.1-1.4-2.6-2.5c-0.4,1.3-1.5,2.3-2.7,2.8l-0.3-0.5c1.4-0.5,2.7-1.9,2.7-3.4v-0.7h-2.4v-0.5h5.4
			v0.5h-2.4v0.7c0,1.4,1.2,2.7,2.6,3.2L255.2,3044.9z M258.2,3048.5v0.5h-6.7v-3.1h0.6v2.6H258.2z M257.3,3042v-2.9h0.6v7.5h-0.6
			v-4.1H255v-0.5H257.3z"/>
		<path d="M266.4,3046.5c1,0,2.1-0.1,3.1-0.3l0,0.5c-2.3,0.4-4.9,0.4-6.7,0.4l-0.1-0.5c0.9,0,1.9,0,3,0v-2.1h0.6V3046.5z
			 M263.1,3044.3c1.4-0.5,2.7-1.7,2.7-3.2v-0.1h-2.5v-0.5h2.5v-1.3h0.6v1.3h2.5v0.5h-2.5v0.1c0,1.5,1.3,2.6,2.7,3.1l-0.3,0.5
			c-1.2-0.4-2.3-1.3-2.7-2.4c-0.4,1.2-1.5,2.1-2.7,2.5L263.1,3044.3z M270.9,3039.1v10.2h-0.6v-10.2H270.9z"/>
		<path d="M278.9,3044.8c-1.2-0.4-2.1-1.4-2.6-2.5c-0.4,1.3-1.5,2.3-2.7,2.7l-0.3-0.5c1.4-0.5,2.7-1.9,2.7-3.4v-0.7h-2.4v-0.5h5.4
			v0.5h-2.4v0.7c0,1.4,1.2,2.7,2.6,3.2L278.9,3044.8z M274.9,3045.8h6.7v3.5H281v-3h-6.1V3045.8z M281.6,3039.1v6.1H281v-2.8h-2.3
			v-0.5h2.3v-2.8H281.6z"/>
		<path d="M287.3,3046.6c1-0.1,2.1-0.1,3-0.3l0,0.5c-2.2,0.4-4.7,0.4-6.5,0.4l-0.1-0.5c0.9,0,1.9,0,2.9,0v-1.3c-1.2-0.1-2-0.8-2-1.9
			c0-1.2,0.9-1.9,2.3-1.9c1.4,0,2.4,0.7,2.4,1.9c0,1.1-0.8,1.7-2.1,1.9V3046.6z M290.1,3040.9h-6.2v-0.5h2.8v-1.3h0.6v1.3h2.8
			V3040.9z M287,3044.9c1.1,0,1.8-0.6,1.8-1.4c0-0.8-0.7-1.4-1.8-1.4c-1.1,0-1.8,0.6-1.8,1.4C285.2,3044.3,285.9,3044.9,287,3044.9z
			 M293.3,3044.1h-1.8v5.2H291v-10.2h0.6v4.5h1.8V3044.1z"/>
		<path d="M303.7,3043.9v0.5h-9.3v-0.5H303.7z M296.2,3048.7h6.7v0.5h-7.3v-2.1h6.3v-1.1h-6.4v-0.5h6.9v2h-6.3V3048.7z
			 M301.9,3039.9h-6.2v-0.5h6.8v2h-6.2v1.1h6.4v0.5h-7v-2h6.2V3039.9z"/>
		<path d="M316.8,3044.6v0.5h-9.2v-0.5h4.3v-1.2h-3v-3.9h6.8v0.5h-6.2v1.2h5.9v0.5h-5.9v1.3h6.2v0.5h-3.2v1.2H316.8z M315.7,3047.7
			c0,1.1-1.3,1.6-3.5,1.6c-2.2,0-3.5-0.6-3.5-1.6c0-1,1.3-1.6,3.5-1.6C314.4,3046.1,315.7,3046.6,315.7,3047.7z M315,3047.7
			c0-0.7-1.1-1.1-2.9-1.1c-1.8,0-2.9,0.4-2.9,1.1c0,0.7,1.1,1.1,2.9,1.1C314,3048.8,315,3048.4,315,3047.7z"/>
		<path d="M324.2,3041h-6.1v-0.5h2.7v-1.3h0.6v1.3h2.7V3041z M321.2,3045.4c-1.5,0-2.4-0.7-2.4-1.9c0-1.1,1-1.9,2.4-1.9
			c1.4,0,2.4,0.7,2.4,1.9C323.6,3044.6,322.7,3045.4,321.2,3045.4z M321.2,3044.9c1.1,0,1.8-0.6,1.8-1.4c0-0.8-0.7-1.4-1.8-1.4
			c-1.1,0-1.8,0.6-1.8,1.4C319.4,3044.3,320.1,3044.9,321.2,3044.9z M320.4,3048.5h6.1v0.5h-6.7v-2.9h0.6V3048.5z M327.6,3042.6v0.5
			H326v3.7h-0.6v-7.7h0.6v3.5H327.6z"/>
	</g>
	<g class="st0">
		<path d="M233.6,3063.5h-4.3v3.8h-0.6v-3.8h-4.3v-0.5h9.2L233.6,3063.5z M232.8,3061.6c-1.4-0.3-3.2-1.2-3.8-2.5
			c-0.6,1.4-2.4,2.2-3.8,2.5l-0.3-0.5c1.6-0.3,3.8-1.4,3.8-3v-0.6h0.6v0.6c0,1.6,2.2,2.8,3.8,3L232.8,3061.6z"/>
		<path d="M241.5,3062.1v1.2h1.5v2.1h-6.2v1.3h6.6v0.5h-7.2v-2.3h6.2v-1.1h-6.2v-0.5h1.4v-1.2H235v-0.5h9.2v0.5H241.5z M236.1,3059
			c0-1.2,1.3-1.8,3.5-1.8c2.2,0,3.5,0.6,3.5,1.8c0,1.2-1.3,1.8-3.5,1.8C237.4,3060.8,236.1,3060.2,236.1,3059z M236.7,3059
			c0,0.8,1.1,1.3,2.9,1.3s2.9-0.5,2.9-1.3c0-0.8-1.1-1.3-2.9-1.3S236.7,3058.2,236.7,3059z M240.9,3062.1h-2.7v1.2h2.7V3062.1z"/>
		<path d="M251,3062.6c-1.1-0.4-2.1-1.4-2.5-2.5c-0.4,1.3-1.4,2.3-2.6,2.8l-0.3-0.5c1.4-0.6,2.6-2,2.6-3.6v-1.1h0.6v1.2
			c0,1.5,1.2,2.8,2.6,3.3L251,3062.6z M253.5,3065.5c0,1.1-1.2,1.8-3.3,1.8c-2.1,0-3.3-0.6-3.3-1.8c0-1.2,1.2-1.8,3.3-1.8
			C252.3,3063.7,253.5,3064.3,253.5,3065.5z M252.9,3065.5c0-0.8-1.1-1.3-2.7-1.3c-1.6,0-2.7,0.5-2.7,1.3c0,0.8,1.1,1.3,2.7,1.3
			C251.8,3066.8,252.9,3066.3,252.9,3065.5z M255,3059.9v0.5h-1.6v3h-0.6v-6.3h0.6v2.8H255z"/>
		<path d="M265.4,3062.1v0.5h-9.2v-0.5H265.4z M264.5,3061.1c-1.4-0.3-3.2-1.1-3.8-2.4c-0.6,1.3-2.3,2.1-3.8,2.4l-0.2-0.5
			c1.5-0.2,3.7-1.3,3.7-2.8v-0.6h0.6v0.6c0,1.4,2.2,2.6,3.7,2.8L264.5,3061.1z M264.2,3065.5c0,1.2-1.3,1.8-3.5,1.8
			s-3.5-0.6-3.5-1.8c0-1.1,1.3-1.8,3.5-1.8S264.2,3064.4,264.2,3065.5z M263.6,3065.5c0-0.8-1.1-1.3-2.9-1.3s-2.9,0.5-2.9,1.3
			c0,0.8,1.1,1.3,2.9,1.3S263.6,3066.3,263.6,3065.5z"/>
		<path d="M276,3065.4v0.5h-9.3v-0.5H276z M275,3060.6c0,1.7-1.6,2.7-3.7,2.7s-3.6-1.1-3.6-2.7c0-1.6,1.5-2.7,3.6-2.7
			S275,3058.9,275,3060.6z M268.2,3060.6c0,1.3,1.3,2.2,3.1,2.2c1.8,0,3.1-0.9,3.1-2.2c0-1.3-1.3-2.2-3.1-2.2
			C269.6,3058.3,268.2,3059.3,268.2,3060.6z"/>
		<path d="M286.6,3065.4v0.5h-9.3v-0.5h4.3v-2.2h-3.1v-3h6.2v-1.9h-6.3v-0.5h6.9v2.9h-6.2v2h6.5v0.5h-3.4v2.2H286.6z"/>
		<path d="M296.5,3057.3h0.6v9.4h-0.6v-5.1h-1.6c-0.1,2-0.9,3.2-2.2,3.2c-1.3,0-2.2-1.3-2.2-3.5c0-2.1,0.9-3.5,2.2-3.5
			c1.3,0,2.1,1.2,2.2,3.2h1.6V3057.3z M294.3,3061.5c0-1.7-0.6-2.9-1.6-2.9c-0.9,0-1.6,1.2-1.6,2.9c0,1.7,0.6,2.9,1.6,2.9
			C293.7,3064.4,294.3,3063.2,294.3,3061.5z M299.1,3057.1v10.2h-0.6v-10.2H299.1z"/>
		<path d="M302.3,3064.3c1.7,0,3-0.1,4.6-0.4l0.1,0.5c-1.6,0.3-3,0.4-4.7,0.4h-0.7v-6.5h0.6v6H302.3z M309.3,3057.1v10.2h-0.6v-6.2
			h-3.4v-0.5h3.4v-3.5H309.3z"/>
		<path d="M315,3060.4c0,1.8,1.5,3.5,2.9,4.2l-0.4,0.5c-1.1-0.6-2.3-1.8-2.8-3.3c-0.4,1.5-1.6,2.9-2.7,3.5l-0.4-0.5
			c1.3-0.7,2.8-2.6,2.8-4.4v-1.7h-2.5v-0.5h5.7v0.5H315V3060.4z M319.9,3057.1v10.2h-0.6v-10.2H319.9z"/>
	</g>
	<g class="st0">
		<path d="M210.3,3078.1c0,1.8,1.4,3.6,2.7,4.3l-0.4,0.5c-1.1-0.6-2.2-1.9-2.6-3.4c-0.4,1.6-1.5,3-2.7,3.6l-0.4-0.5
			c1.3-0.7,2.7-2.7,2.7-4.5v-2h0.6V3078.1z M216.6,3079.9h-1.8v5.4h-0.6v-10.2h0.6v4.3h1.8V3079.9z"/>
		<path d="M226.9,3080.3v0.5h-9.2v-0.5h2.4v-1.6c-0.8-0.3-1.3-0.8-1.3-1.5c0-1.2,1.3-1.9,3.5-1.9c2.2,0,3.5,0.7,3.5,1.9
			c0,0.7-0.5,1.2-1.3,1.5v1.6H226.9z M225.8,3083.5c0,1.2-1.3,1.8-3.5,1.8c-2.2,0-3.5-0.6-3.5-1.8s1.3-1.8,3.5-1.8
			C224.5,3081.7,225.8,3082.3,225.8,3083.5z M222.3,3078.5c1.8,0,2.9-0.5,2.9-1.4s-1.1-1.4-2.9-1.4c-1.8,0-2.9,0.5-2.9,1.4
			S220.5,3078.5,222.3,3078.5z M225.1,3083.5c0-0.8-1.1-1.3-2.9-1.3c-1.7,0-2.9,0.5-2.9,1.3c0,0.8,1.1,1.3,2.9,1.3
			C224,3084.8,225.1,3084.3,225.1,3083.5z M220.7,3080.3h3.2v-1.4c-0.5,0.1-1,0.1-1.6,0.1c-0.6,0-1.1-0.1-1.6-0.1V3080.3z"/>
		<path d="M237.5,3083.5v0.5h-9.3v-0.5h2.6v-2c-0.8-0.3-1.2-0.8-1.2-1.5c0-1.2,1.2-1.9,3.3-1.9s3.3,0.7,3.3,1.9
			c0,0.7-0.4,1.2-1.2,1.5v2H237.5z M236.9,3077.3h-8.2v-0.5h3.8v-1.5h0.6v1.5h3.8V3077.3z M232.9,3081.3c1.6,0,2.7-0.5,2.7-1.4
			c0-0.9-1-1.4-2.7-1.4c-1.6,0-2.7,0.5-2.7,1.4C230.2,3080.8,231.2,3081.3,232.9,3081.3z M231.4,3083.5h2.9v-1.8
			c-0.4,0.1-0.9,0.1-1.4,0.1c-0.5,0-1,0-1.4-0.1V3083.5z"/>
		<path d="M245.3,3080.1v1.2h1.5v2.1h-6.2v1.3h6.6v0.5H240v-2.3h6.2v-1.1H240v-0.5h1.4v-1.2h-2.6v-0.5h9.2v0.5H245.3z M239.9,3077
			c0-1.2,1.3-1.8,3.5-1.8c2.2,0,3.5,0.6,3.5,1.8c0,1.2-1.3,1.8-3.5,1.8C241.2,3078.8,239.9,3078.2,239.9,3077z M240.5,3077
			c0,0.8,1.1,1.3,2.9,1.3s2.9-0.5,2.9-1.3c0-0.8-1.1-1.3-2.9-1.3S240.5,3076.2,240.5,3077z M244.7,3080.1H242v1.2h2.7V3080.1z"/>
		<path d="M258.6,3079.7v0.5h-9.2v-0.5H258.6z M250.5,3077.1c0-1.2,1.3-1.8,3.5-1.8c2.2,0,3.5,0.6,3.5,1.8c0,1.2-1.3,1.8-3.5,1.8
			C251.8,3078.9,250.5,3078.2,250.5,3077.1z M251.2,3084.7h6.6v0.5h-7.2v-2.3h6.2v-1.1h-6.3v-0.5h6.9v2.1h-6.2V3084.7z
			 M251.1,3077.1c0,0.8,1.1,1.3,2.9,1.3c1.8,0,2.9-0.5,2.9-1.3c0-0.8-1.1-1.3-2.9-1.3C252.2,3075.8,251.1,3076.3,251.1,3077.1z"/>
		<path d="M268.6,3076.9h-6.1v-0.5h2.7v-1.4h0.6v1.4h2.7V3076.9z M265.6,3081.1c-1.5,0-2.4-0.7-2.4-1.8s1-1.8,2.4-1.8
			c1.5,0,2.4,0.7,2.4,1.8S267,3081.1,265.6,3081.1z M265.6,3080.6c1.1,0,1.8-0.5,1.8-1.3c0-0.8-0.7-1.3-1.8-1.3s-1.8,0.5-1.8,1.3
			C263.8,3080,264.5,3080.6,265.6,3080.6z M270.5,3083.5c0,1.1-1.2,1.7-3.3,1.7c-2,0-3.3-0.6-3.3-1.7c0-1.1,1.2-1.7,3.3-1.7
			C269.3,3081.8,270.5,3082.4,270.5,3083.5z M269.9,3083.5c0-0.8-1-1.2-2.7-1.2c-1.6,0-2.7,0.5-2.7,1.2c0,0.8,1,1.2,2.7,1.2
			C268.9,3084.8,269.9,3084.3,269.9,3083.5z M270.4,3077.6v1.6h1.6v0.5h-1.6v2h-0.6v-6.6h0.6v1.9h1.6v0.5H270.4z"/>
		<path d="M278.6,3080.6c-1.1-0.4-2.1-1.4-2.5-2.5c-0.4,1.3-1.4,2.3-2.6,2.8l-0.3-0.5c1.4-0.6,2.6-2,2.6-3.6v-1.1h0.6v1.2
			c0,1.5,1.2,2.8,2.6,3.3L278.6,3080.6z M281.1,3083.5c0,1.1-1.2,1.8-3.3,1.8s-3.3-0.6-3.3-1.8c0-1.2,1.2-1.8,3.3-1.8
			S281.1,3082.3,281.1,3083.5z M280.5,3083.5c0-0.8-1.1-1.3-2.7-1.3c-1.6,0-2.7,0.5-2.7,1.3c0,0.8,1.1,1.3,2.7,1.3
			C279.4,3084.8,280.5,3084.3,280.5,3083.5z M282.6,3077.9v0.5H281v3h-0.6v-6.3h0.6v2.8H282.6z"/>
		<path d="M287.1,3078.1c0,1.9,1.5,3.7,2.8,4.4l-0.4,0.5c-1.1-0.6-2.3-1.9-2.8-3.4c-0.5,1.6-1.6,3-2.8,3.6l-0.4-0.5
			c1.3-0.7,2.8-2.6,2.8-4.5v-2h0.6V3078.1z M292,3075.1v10.2h-0.6v-10.2H292z"/>
		<path d="M299.2,3077.5c-0.6,1.7-2,2.9-4.3,3.7l-0.3-0.5c1.8-0.6,3-1.5,3.7-2.6l-3.6,0.3l-0.1-0.5l4-0.2c0.2-0.4,0.3-0.9,0.3-1.4
			H295v-0.5h4.5c0,0.4,0,0.8-0.1,1.2h2.6v-1.9h0.6v6.2H302v-1.7h-2.9v-0.5h2.9v-1.6H299.2z M301.4,3082.2c0,1.1,0.9,2.2,2.2,2.6
			l-0.3,0.5c-1-0.4-1.8-1.2-2.2-2c-0.3,0.8-0.9,1.7-1.9,2.1c-1-0.4-1.6-1.2-1.9-2.1c-0.3,0.9-1.1,1.6-2.1,2l-0.3-0.5
			c1.2-0.5,2.1-1.6,2.1-2.6v-0.7h0.6v0.7c0,1,0.6,2,1.6,2.5c1-0.6,1.6-1.7,1.6-2.5v-0.7h0.6V3082.2z"/>
		<path d="M314.1,3079.9v0.5h-9.2v-0.5H314.1z M313.3,3079c-1.4-0.2-3.2-1.1-3.8-2.3c-0.6,1.3-2.4,2.1-3.8,2.3l-0.2-0.5
			c1.6-0.2,3.7-1.3,3.7-2.7v-0.6h0.6v0.6c0,1.4,2.2,2.5,3.7,2.7L313.3,3079z M312.3,3081.2h0.6v3.9h-6.8v-3.9h0.6v1.4h5.6V3081.2z
			 M312.3,3083.1h-5.6v1.5h5.6V3083.1z"/>
		<path d="M316.9,3082.1c1.6,0,3.2-0.1,4.9-0.5l0.1,0.5c-1.8,0.4-3.4,0.5-5,0.5h-0.8v-6.5h0.6v6H316.9z M323.7,3075.1v10.2h-0.6
			v-10.2H323.7z"/>
		<path d="M327.2,3082.2c2,0,3.3-0.1,4.8-0.4l0.1,0.5c-1.6,0.3-2.9,0.4-4.9,0.4h-0.8v-6.6h4.7v0.5h-4.1v5.6H327.2z M335.6,3079.8
			h-1.8v5.5h-0.6v-10.2h0.6v4.2h1.8V3079.8z"/>
		<path d="M336.8,3084c0-0.4,0.3-0.6,0.6-0.6s0.6,0.2,0.6,0.6c0,0.4-0.3,0.6-0.6,0.6S336.8,3084.4,336.8,3084z"/>
	</g>
	<g class="st0">
		<path d="M232.2,2980.8h1.2v10.1h-1.2v-5.2h-1.2c-0.1,2.1-1,3.4-2.3,3.4c-1.4,0-2.3-1.5-2.3-3.9c0-2.4,0.9-3.8,2.3-3.8
			c1.3,0,2.2,1.2,2.3,3.3h1.2V2980.8z M230,2985.3c0-1.7-0.5-2.7-1.2-2.7s-1.2,1-1.2,2.7c0,1.7,0.5,2.7,1.2,2.7S230,2987,230,2985.3
			z M235.6,2980.6v10.8h-1.2v-10.8H235.6z"/>
		<path d="M239.2,2987.8c1.5,0,3-0.1,4.5-0.4l0.1,1c-1.7,0.3-3.3,0.4-5,0.4H238v-7.1h1.2V2987.8z M246.4,2980.6v10.9h-1.2v-6.4H242
			v-1h3.1v-3.5H246.4z"/>
		<path d="M252.4,2983.7c0,1.8,1.1,3.7,2.8,4.4l-0.7,1c-1.3-0.6-2.2-1.7-2.7-3.1c-0.5,1.5-1.5,2.8-2.7,3.4l-0.7-1
			c1.7-0.8,2.8-2.8,2.8-4.7v-1h-2.4v-1h6.1v1h-2.4V2983.7z M257.3,2980.6v10.8h-1.2v-10.8H257.3z"/>
		<path d="M272,2989.3v1h-9.8v-1h2.5v-1.9c-0.8-0.3-1.2-0.9-1.2-1.6c0-1.3,1.4-2.1,3.6-2.1s3.6,0.8,3.6,2.1c0,0.7-0.4,1.3-1.2,1.6
			v1.9H272z M271.5,2983.1h-8.9v-1h3.8v-1.3h1.2v1.3h3.8V2983.1z M264.7,2985.7c0,0.7,0.9,1.1,2.3,1.1c1.5,0,2.4-0.4,2.4-1.1
			c0-0.7-0.9-1.1-2.4-1.1C265.6,2984.6,264.7,2985,264.7,2985.7z M265.9,2989.3h2.4v-1.6c-0.4,0.1-0.8,0.1-1.2,0.1
			c-0.4,0-0.8,0-1.2-0.1V2989.3z"/>
		<path d="M280.4,2986v0.9h1.4v2.6h-6.2v0.9h6.5v0.9h-7.7v-2.7h6.2v-0.8h-6.2v-0.9h1.4v-0.9h-2.6v-1h9.8v1H280.4z M274.2,2982.6
			c0-1.2,1.4-1.9,3.9-1.9c2.4,0,3.9,0.7,3.9,1.9s-1.4,1.9-3.9,1.9C275.7,2984.4,274.2,2983.8,274.2,2982.6z M275.5,2982.6
			c0,0.6,0.9,0.9,2.6,0.9c1.7,0,2.6-0.3,2.6-0.9s-0.9-0.9-2.6-0.9C276.4,2981.6,275.5,2982,275.5,2982.6z M279.2,2986H277v0.9h2.2
			V2986z"/>
		<path d="M290,2986.5c-1.2-0.4-2-1.2-2.5-2.3c-0.5,1.2-1.4,2.1-2.7,2.6l-0.6-1c1.7-0.6,2.7-2.1,2.7-3.6v-1.1h1.2v1
			c0,1.5,0.9,2.9,2.5,3.4L290,2986.5z M293.3,2989.4c0,1.3-1.4,2.1-3.7,2.1c-2.3,0-3.6-0.8-3.6-2.1s1.4-2.1,3.6-2.1
			C291.9,2987.3,293.3,2988,293.3,2989.4z M292,2989.4c0-0.7-0.9-1.1-2.4-1.1s-2.4,0.4-2.4,1.1s0.9,1.1,2.4,1.1
			S292,2990.1,292,2989.4z M292,2983.8h-2.2v-1h2.2v-2.2h1.2v6.4H292V2983.8z"/>
		<path d="M307.8,2985.7v1H298v-1H307.8z M298.5,2984.2c2-0.2,3.4-1.1,3.6-2.1h-3.2v-1h8v1h-3.2c0.2,1,1.6,1.8,3.6,2.1l-0.4,1
			c-1.9-0.2-3.4-1-4-2.1c-0.6,1.1-2.1,1.9-4,2.1L298.5,2984.2z M306.6,2989.5c0,1.3-1.4,2-3.7,2c-2.3,0-3.7-0.7-3.7-2
			c0-1.3,1.4-2,3.7-2C305.2,2987.5,306.6,2988.2,306.6,2989.5z M305.3,2989.5c0-0.7-0.9-1-2.5-1s-2.5,0.3-2.5,1c0,0.7,0.9,1,2.5,1
			S305.3,2990.1,305.3,2989.5z"/>
		<path d="M310.6,2987.8c1.2,0,2.2-0.1,3.3-0.3l0.1,1c-1.3,0.3-2.4,0.3-3.9,0.3h-0.7v-7h4v1h-2.8V2987.8z M318.3,2980.6v10.8h-1.2
			v-5.5h-1.3v5h-1.2v-10.1h1.2v4.1h1.3v-4.3H318.3z"/>
	</g>
	<g id="사각형_528" transform="translate(190 2925.506)">
		<rect y="0" class="st2" width="165" height="192"/>
		<rect x="0.5" y="0.5" class="st3" width="164" height="191"/>
	</g>
	<path id="패스_4994" class="st4" d="M341.8,2966.3H202.9"/>
	<g class="st0">
		<path class="st1" d="M266.9,3141.7c0,1.8-1.4,3-3.3,3c-1.9,0-3.4-1.2-3.4-3s1.4-3,3.4-3C265.5,3138.7,266.9,3139.9,266.9,3141.7z
			 M261.6,3141.7c0,1.1,0.8,1.8,1.9,1.8c1.1,0,1.9-0.7,1.9-1.8c0-1.1-0.8-1.8-1.9-1.8C262.4,3139.9,261.6,3140.6,261.6,3141.7z
			 M270.4,3146.1v4.5h-1.4v-3.4h-7.1v-1.2H270.4z M270.4,3137.9v7.5h-1.4v-7.5H270.4z"/>
		<path class="st1" d="M279.6,3145.3c-1.4-0.5-2.4-1.5-3-2.7c-0.5,1.4-1.6,2.5-3.1,3l-0.8-1.1c2-0.7,3.1-2.4,3.1-4.2v-1.5h1.5v1.5
			c0,1.7,1.1,3.3,3,3.9L279.6,3145.3z M276.2,3149.2h7v1.2h-8.5v-4h1.4V3149.2z M284.5,3141.7v1.2h-1.8v4.3h-1.4v-9.3h1.4v3.8H284.5
			z"/>
	</g>
	<g class="st0">
		<path d="M216.3,3219.2c0,2.9-1.5,5.5-4.8,7.1l-0.3-0.5c2.8-1.4,4.4-3.5,4.5-6.1h-4.1v-0.5H216.3z M219.3,3218.1v10.2h-0.6v-10.2
			H219.3z"/>
		<path d="M230.9,3223.7v0.5h-9.3v-0.5h4.3v-1.9h0.6v1.9H230.9z M222.2,3222.1c1.6-0.2,3.6-1.3,3.6-2.7v-0.2h-3.4v-0.5h7.5v0.5h-3.4
			v0.2c0,1.5,2.1,2.5,3.6,2.7l-0.2,0.5c-1.5-0.3-3.2-1.1-3.7-2.4c-0.5,1.3-2.3,2.1-3.7,2.4L222.2,3222.1z M223.4,3227.5h6.4v0.5h-7
			v-2.9h0.6V3227.5z"/>
		<path d="M244,3226.5v0.5h-9.3v-0.5h2.6v-2c-0.8-0.3-1.2-0.8-1.2-1.5c0-1.2,1.2-1.9,3.3-1.9s3.3,0.7,3.3,1.9c0,0.7-0.4,1.2-1.2,1.5
			v2H244z M243.4,3220.3h-8.2v-0.5h3.8v-1.5h0.6v1.5h3.8V3220.3z M239.3,3224.3c1.6,0,2.7-0.5,2.7-1.4c0-0.9-1-1.4-2.7-1.4
			c-1.6,0-2.7,0.5-2.7,1.4C236.7,3223.8,237.7,3224.3,239.3,3224.3z M237.9,3226.5h2.9v-1.8c-0.4,0.1-0.9,0.1-1.4,0.1
			c-0.5,0-1,0-1.4-0.1V3226.5z"/>
		<path d="M251.8,3223.1v1.2h1.5v2.1h-6.2v1.3h6.6v0.5h-7.2v-2.3h6.2v-1.1h-6.2v-0.5h1.4v-1.2h-2.6v-0.5h9.2v0.5H251.8z M246.4,3220
			c0-1.2,1.3-1.8,3.5-1.8c2.2,0,3.5,0.6,3.5,1.8c0,1.2-1.3,1.8-3.5,1.8C247.7,3221.8,246.4,3221.2,246.4,3220z M247,3220
			c0,0.8,1.1,1.3,2.9,1.3s2.9-0.5,2.9-1.3c0-0.8-1.1-1.3-2.9-1.3S247,3219.2,247,3220z M251.2,3223.1h-2.7v1.2h2.7V3223.1z"/>
		<path d="M261.4,3222.4c0,2.1-1,3.5-2.5,3.5c-1.5,0-2.5-1.4-2.5-3.5c0-2.1,1-3.5,2.5-3.5C260.3,3218.9,261.4,3220.3,261.4,3222.4z
			 M256.9,3222.4c0,1.8,0.8,3,2,3c1.1,0,1.9-1.2,1.9-3c0-1.7-0.8-3-1.9-3C257.7,3219.5,256.9,3220.7,256.9,3222.4z M264.2,3218.1
			v10.2h-0.6v-10.2H264.2z"/>
		<path d="M275.2,3222.5c-1.8,0.4-3.3,0.5-4.8,0.5h-0.8v-4.3h0.6v3.8h0.2c1.5,0,3-0.1,4.8-0.5L275.2,3222.5z M274.1,3225.1
			c0,1.3,1.8,2.4,3.3,2.7l-0.3,0.5c-1.4-0.3-2.9-1.1-3.4-2.2c-0.5,1.1-2,1.9-3.4,2.2l-0.3-0.5c1.5-0.3,3.3-1.3,3.3-2.7v-0.1h-3v-0.5
			h6.6v0.5L274.1,3225.1L274.1,3225.1z M278.5,3220.7v0.5h-1.6v2.7h-0.6v-5.9h0.6v2.7H278.5z"/>
		<path d="M288.8,3223.6v0.5h-9.2v-0.5H288.8z M280.7,3220.5c0-1.3,1.4-2,3.5-2s3.5,0.7,3.5,2s-1.4,2-3.5,2
			S280.7,3221.7,280.7,3220.5z M281.4,3227.5h6.4v0.5h-7v-3h0.6V3227.5z M281.3,3220.5c0,0.9,1.2,1.5,2.9,1.5s2.9-0.6,2.9-1.5
			c0-0.9-1.2-1.5-2.9-1.5S281.3,3219.5,281.3,3220.5z"/>
		<path d="M297.6,3222.9c-1.4,0.3-2.6,0.3-3.8,0.3h-0.6v-4.3h0.6v3.8c1.2,0,2.3-0.1,3.7-0.3L297.6,3222.9z M301.3,3226.4
			c0,1.2-1.3,1.9-3.3,1.9c-2.1,0-3.3-0.7-3.3-1.9c0-1.2,1.3-1.9,3.3-1.9C300,3224.5,301.3,3225.2,301.3,3226.4z M300.7,3226.4
			c0-0.9-1.1-1.4-2.8-1.4c-1.7,0-2.8,0.5-2.8,1.4c0,0.8,1.1,1.4,2.8,1.4C299.6,3227.8,300.7,3227.3,300.7,3226.4z M299,3224h-0.6
			v-5.7h0.6v2.6h1.7v-2.8h0.6v6.2h-0.6v-2.9H299V3224z"/>
		<path d="M312.5,3223.3v0.5h-9.2v-0.5h4.3v-1.4h-3.1v-3.3h6.9v0.5h-6.3v2.3h6.4v0.5h-3.2v1.4H312.5z M311.4,3226.5
			c0,1.2-1.3,1.8-3.5,1.8s-3.5-0.6-3.5-1.8c0-1.2,1.3-1.8,3.5-1.8S311.4,3225.3,311.4,3226.5z M310.8,3226.5c0-0.8-1.1-1.3-2.9-1.3
			s-2.9,0.5-2.9,1.3s1.1,1.3,2.9,1.3S310.8,3227.3,310.8,3226.5z"/>
		<path d="M319.2,3219.2c0,2.9-1.5,5.5-4.8,7.1l-0.3-0.5c2.8-1.4,4.4-3.5,4.5-6.1h-4.1v-0.5H319.2z M322.2,3218.1v10.2h-0.6v-10.2
			H322.2z"/>
		<path d="M333.7,3222.9v0.5h-9.3v-0.5H333.7z M326.2,3227.7h6.7v0.5h-7.3v-2.1h6.3v-1.1h-6.4v-0.5h6.9v2h-6.3V3227.7z
			 M331.9,3218.9h-6.2v-0.5h6.8v2h-6.2v1.1h6.4v0.5h-7v-2h6.2V3218.9z"/>
	</g>
	<g class="st0">
		<path d="M221.5,3244.2v0.5h-9.2v-0.5h3.8v-3.7h0.6v3.7H221.5z M219.7,3237.7h-6.4v-0.5h7v1c0,1.2,0,2.6-0.4,4.6l-0.6-0.1
			c0.4-1.9,0.4-3.3,0.4-4.5V3237.7z"/>
		<path d="M232.1,3244.5v0.5h-9.3v-0.5h2.6v-2c-0.8-0.3-1.2-0.8-1.2-1.5c0-1.2,1.2-1.9,3.3-1.9s3.3,0.7,3.3,1.9
			c0,0.7-0.4,1.2-1.2,1.5v2H232.1z M231.6,3238.3h-8.2v-0.5h3.8v-1.5h0.6v1.5h3.8V3238.3z M227.5,3242.3c1.6,0,2.7-0.5,2.7-1.4
			c0-0.9-1-1.4-2.7-1.4c-1.6,0-2.7,0.5-2.7,1.4C224.8,3241.8,225.9,3242.3,227.5,3242.3z M226,3244.5h2.9v-1.8
			c-0.4,0.1-0.9,0.1-1.4,0.1c-0.5,0-1,0-1.4-0.1V3244.5z"/>
		<path d="M239.9,3241.1v1.2h1.5v2.1h-6.2v1.3h6.6v0.5h-7.2v-2.3h6.2v-1.1h-6.2v-0.5h1.4v-1.2h-2.6v-0.5h9.2v0.5H239.9z M234.5,3238
			c0-1.2,1.3-1.8,3.5-1.8c2.2,0,3.5,0.6,3.5,1.8c0,1.2-1.3,1.8-3.5,1.8C235.8,3239.8,234.5,3239.2,234.5,3238z M235.1,3238
			c0,0.8,1.1,1.3,2.9,1.3s2.9-0.5,2.9-1.3c0-0.8-1.1-1.3-2.9-1.3S235.1,3237.2,235.1,3238z M239.3,3241.1h-2.7v1.2h2.7V3241.1z"/>
		<path d="M251.5,3240.9c-1.4,0.3-2.6,0.3-3.8,0.3h-0.6v-4.3h0.6v3.8c1.2,0,2.3-0.1,3.7-0.3L251.5,3240.9z M255.2,3244.4
			c0,1.2-1.3,1.9-3.3,1.9s-3.3-0.7-3.3-1.9c0-1.2,1.3-1.9,3.3-1.9S255.2,3243.2,255.2,3244.4z M254.6,3244.4c0-0.9-1.1-1.4-2.8-1.4
			s-2.7,0.5-2.7,1.4c0,0.8,1.1,1.4,2.7,1.4S254.6,3245.3,254.6,3244.4z M252.8,3242h-0.6v-5.7h0.6v2.6h1.7v-2.8h0.6v6.2h-0.6v-2.9
			h-1.7V3242z"/>
		<path d="M266.4,3241.3v0.5h-9.2v-0.5h4.3v-1.4h-3.1v-3.3h6.9v0.5h-6.3v2.3h6.4v0.5H262v1.4H266.4z M265.2,3244.5
			c0,1.2-1.3,1.8-3.5,1.8c-2.2,0-3.5-0.6-3.5-1.8c0-1.2,1.3-1.8,3.5-1.8C263.9,3242.7,265.2,3243.3,265.2,3244.5z M264.6,3244.5
			c0-0.8-1.1-1.3-2.9-1.3c-1.7,0-2.9,0.5-2.9,1.3s1.1,1.3,2.9,1.3C263.5,3245.8,264.6,3245.3,264.6,3244.5z"/>
		<path d="M273,3237.2c0,2.9-1.5,5.5-4.8,7.1l-0.3-0.5c2.8-1.4,4.4-3.5,4.5-6.1h-4.1v-0.5H273z M276,3236.1v10.2h-0.6v-10.2H276z"/>
		<path d="M287.6,3244.4v0.5h-9.3v-0.5h4.3v-2.2h-3.1v-3h6.2v-1.9h-6.3v-0.5h6.9v2.9h-6.2v2h6.5v0.5h-3.4v2.2H287.6z"/>
		<path d="M300.7,3244.2v0.5h-9.2v-0.5h2.5v-3.5h0.6v3.5h1.9v-3.5h0.6v3.5H300.7z M298.8,3237.7h-6.4v-0.5h7v1.2
			c0,1.4,0,2.6-0.4,4.4l-0.6-0.1c0.4-1.7,0.4-3,0.4-4.3V3237.7z"/>
		<path d="M304.9,3239.3c0,1.7,1,3.4,2.3,4.2l-0.4,0.5c-1-0.6-1.9-1.8-2.2-3.2c-0.3,1.4-1.2,2.7-2.2,3.4l-0.4-0.5
			c1.3-0.8,2.3-2.7,2.3-4.4v-0.7h-2.1v-0.5h2.1v-1.6h0.6v1.6h2.1v0.5h-2.1V3239.3z M308,3236.4h0.6v9.4H308v-5h-1.8v-0.5h1.8V3236.4
			z M310.6,3236.1v10.2H310v-10.2H310.6z"/>
		<path d="M315.9,3237.8h2.7v0.5h-6.1v-0.5h2.8v-1.6h0.6V3237.8z M318.1,3241.6c0,1.4-1,2.3-2.4,2.3s-2.4-0.9-2.4-2.3
			c0-1.3,1-2.3,2.4-2.3S318.1,3240.3,318.1,3241.6z M317.5,3241.6c0-1-0.8-1.8-1.9-1.8c-1.1,0-1.9,0.8-1.9,1.8c0,1,0.8,1.8,1.9,1.8
			C316.7,3243.4,317.5,3242.6,317.5,3241.6z M322.1,3240.9h-1.8v5.4h-0.6v-10.2h0.6v4.3h1.8V3240.9z"/>
		<path d="M331.5,3236.1v10.2h-0.6v-4H328c-0.4,1-1.2,1.7-2.2,1.7c-1.5,0-2.5-1.4-2.5-3.5c0-2.1,1-3.5,2.5-3.5c1,0,1.7,0.6,2.1,1.6
			h2.9v-2.4H331.5z M327.8,3240.4c0-1.7-0.8-3-1.9-3c-1.1,0-1.9,1.2-1.9,3c0,1.7,0.8,3,1.9,3C327,3243.4,327.8,3242.2,327.8,3240.4z
			 M330.9,3241.8v-2.8h-2.7c0.1,0.4,0.2,0.9,0.2,1.4c0,0.5-0.1,0.9-0.2,1.3H330.9z"/>
	</g>
	<g class="st0">
		<path d="M217.2,3258.9c-1.4,0.3-2.6,0.3-3.8,0.3h-0.6v-4.3h0.6v3.8c1.2,0,2.3-0.1,3.7-0.3L217.2,3258.9z M220.9,3262.4
			c0,1.2-1.3,1.9-3.3,1.9s-3.3-0.7-3.3-1.9c0-1.2,1.3-1.9,3.3-1.9S220.9,3261.2,220.9,3262.4z M220.3,3262.4c0-0.9-1.1-1.4-2.8-1.4
			s-2.7,0.5-2.7,1.4c0,0.8,1.1,1.4,2.7,1.4S220.3,3263.3,220.3,3262.4z M218.5,3260h-0.6v-5.7h0.6v2.6h1.7v-2.8h0.6v6.2h-0.6v-2.9
			h-1.7V3260z"/>
		<path d="M232.1,3259.3v0.5h-9.2v-0.5h4.3v-1.4H224v-3.3h6.9v0.5h-6.3v2.3h6.4v0.5h-3.2v1.4H232.1z M230.9,3262.5
			c0,1.2-1.3,1.8-3.5,1.8c-2.2,0-3.5-0.6-3.5-1.8c0-1.2,1.3-1.8,3.5-1.8C229.6,3260.7,230.9,3261.3,230.9,3262.5z M230.3,3262.5
			c0-0.8-1.1-1.3-2.9-1.3c-1.7,0-2.9,0.5-2.9,1.3s1.1,1.3,2.9,1.3C229.2,3263.8,230.3,3263.3,230.3,3262.5z"/>
		<path d="M242.7,3259v0.5h-9.2v-0.5H242.7z M241.5,3262.4c0,1.2-1.3,1.8-3.5,1.8c-2.2,0-3.5-0.7-3.5-1.8c0-1.2,1.3-1.8,3.5-1.8
			C240.2,3260.6,241.5,3261.3,241.5,3262.4z M241.6,3257.6h-6.9v-3.3h0.6v2.8h6.2V3257.6z M240.9,3262.4c0-0.8-1.1-1.3-2.9-1.3
			c-1.7,0-2.9,0.5-2.9,1.3c0,0.8,1.1,1.3,2.9,1.3C239.8,3263.8,240.9,3263.3,240.9,3262.4z"/>
		<path d="M249.6,3259.5c-1.3,0.2-2.3,0.3-4.4,0.3h-0.7v-2.9h3.7v-1.7h-3.8v-0.5h4.4v2.7h-3.7v1.9h0.1c2.1,0,3.1,0,4.3-0.3
			L249.6,3259.5z M245.6,3261h6.7v3.4h-0.6v-2.9h-6.1V3261z M252.3,3254.1v6.3h-0.6v-2.1h-2.2v-0.5h2.2v-1.6h-2.2v-0.5h2.2v-1.6
			H252.3z"/>
		<path d="M263.8,3258.7v0.5h-9.2v-0.5H263.8z M255.7,3256.1c0-1.2,1.3-1.8,3.5-1.8c2.2,0,3.5,0.6,3.5,1.8c0,1.2-1.3,1.8-3.5,1.8
			C257,3257.9,255.7,3257.2,255.7,3256.1z M256.4,3263.7h6.6v0.5h-7.2v-2.3h6.2v-1.1h-6.3v-0.5h6.9v2.1h-6.2V3263.7z M256.3,3256.1
			c0,0.8,1.1,1.3,2.9,1.3c1.8,0,2.9-0.5,2.9-1.3c0-0.8-1.1-1.3-2.9-1.3C257.4,3254.8,256.3,3255.3,256.3,3256.1z"/>
		<path d="M277,3258.9v0.5h-9.2v-0.5h4.3v-1.5h-3v-3.1h0.6v2.6h6.2v0.5h-3.2v1.5H277z M274.3,3263.6h1.7v0.5h-7.3v-0.5h1.8v-2.5
			h-1.7v-0.5h7.1v0.5h-1.7V3263.6z M271.1,3263.6h2.6v-2.5h-2.6V3263.6z"/>
		<path d="M283.8,3258.4c0,2.1-1,3.5-2.5,3.5c-1.5,0-2.5-1.4-2.5-3.5c0-2.1,1-3.5,2.5-3.5C282.8,3254.9,283.8,3256.3,283.8,3258.4z
			 M279.3,3258.4c0,1.8,0.8,3,2,3c1.1,0,1.9-1.2,1.9-3c0-1.7-0.8-3-1.9-3C280.1,3255.5,279.3,3256.7,279.3,3258.4z M286.6,3254.1
			v10.2H286v-10.2H286.6z"/>
		<path d="M298.1,3262.2v0.5h-9.2v-0.5h3.8v-3.7h0.6v3.7H298.1z M296.3,3255.7h-6.4v-0.5h7v1c0,1.2,0,2.6-0.4,4.6l-0.6-0.1
			c0.4-1.9,0.4-3.3,0.4-4.5V3255.7z"/>
		<path d="M306.9,3258.9c-1.4,0.3-2.6,0.3-3.8,0.3h-0.6v-4.3h0.6v3.8c1.2,0,2.3-0.1,3.7-0.3L306.9,3258.9z M310.6,3262.4
			c0,1.2-1.3,1.9-3.3,1.9c-2.1,0-3.3-0.7-3.3-1.9c0-1.2,1.3-1.9,3.3-1.9C309.3,3260.5,310.6,3261.2,310.6,3262.4z M310,3262.4
			c0-0.9-1.1-1.4-2.8-1.4c-1.7,0-2.7,0.5-2.7,1.4c0,0.8,1.1,1.4,2.7,1.4C308.9,3263.8,310,3263.3,310,3262.4z M308.3,3260h-0.6v-5.7
			h0.6v2.6h1.7v-2.8h0.6v6.2H310v-2.9h-1.7V3260z"/>
		<path d="M317.7,3254.8c0,2.5-1.9,4.3-4.8,5.2l-0.2-0.5c2.6-0.7,4.3-2.2,4.4-4.2h-4v-0.5H317.7z M313.9,3260.6h6.5v3.7h-0.6v-3.2
			h-5.9V3260.6z M322.1,3257.3h-1.6v2.8h-0.6v-6h0.6v2.7h1.6V3257.3z"/>
		<path d="M329.2,3254.3h0.6v9.4h-0.6v-5.1h-1.6c-0.1,2-0.9,3.2-2.2,3.2c-1.3,0-2.2-1.3-2.2-3.5s0.9-3.5,2.2-3.5
			c1.3,0,2.1,1.2,2.2,3.2h1.6V3254.3z M327.1,3258.5c0-1.7-0.6-2.9-1.6-2.9c-0.9,0-1.6,1.2-1.6,2.9c0,1.7,0.6,2.9,1.6,2.9
			C326.4,3261.4,327.1,3260.2,327.1,3258.5z M331.8,3254.1v10.2h-0.6v-10.2H331.8z"/>
	</g>
	<g class="st0">
		<path d="M212.1,3276.6c-2,0.3-4.5,0.4-6.3,0.4l-0.1-0.5c0.4,0,0.9,0,1.4,0v-3.1H206v-0.5h5.5v0.5h-1.1v2.9c0.6,0,1.2-0.1,1.7-0.2
			L212.1,3276.6z M214.3,3281.7v0.5h-6.9v-2.4h5.9v-1.3h-5.9v-0.5h6.5v2.3H208v1.4H214.3z M207.7,3276.4c0.6,0,1.3,0,2-0.1v-3h-2
			V3276.4z M213.9,3277.4h-0.6v-5.3h0.6V3277.4z"/>
		<path d="M225.4,3280.4v0.5h-9.3v-0.5h2.4v-2.9c-0.9-0.4-1.4-1.2-1.4-2.1c0-1.6,1.5-2.6,3.6-2.6c2.1,0,3.7,1,3.7,2.6
			c0,0.9-0.5,1.6-1.4,2.1v2.9H225.4z M220.7,3277.4c1.8,0,3.1-0.8,3.1-2c0-1.2-1.3-2.1-3.1-2.1c-1.8,0-3.1,0.8-3.1,2.1
			C217.7,3276.6,219,3277.4,220.7,3277.4z M219.1,3280.4h3.2v-2.7c-0.5,0.1-1,0.2-1.6,0.2c-0.6,0-1.1-0.1-1.6-0.2V3280.4z"/>
		<path d="M232.8,3274h-6.1v-0.5h2.7v-1.3h0.6v1.3h2.7V3274z M229.8,3278.4c-1.4,0-2.4-0.7-2.4-1.9c0-1.1,1-1.9,2.4-1.9
			s2.4,0.7,2.4,1.9C232.2,3277.6,231.2,3278.4,229.8,3278.4z M229.8,3277.9c1.1,0,1.8-0.6,1.8-1.4c0-0.8-0.7-1.4-1.8-1.4
			c-1.1,0-1.8,0.6-1.8,1.4C227.9,3277.3,228.7,3277.9,229.8,3277.9z M229,3281.5h6.1v0.5h-6.7v-2.9h0.6V3281.5z M236.2,3275.6v0.5
			h-1.6v3.7H234v-7.7h0.6v3.5H236.2z"/>
		<path d="M245.5,3277.9c-1.2-0.4-2.1-1.4-2.6-2.5c-0.4,1.3-1.5,2.3-2.7,2.8l-0.3-0.5c1.4-0.5,2.7-1.9,2.7-3.4v-0.7h-2.4v-0.5h5.4
			v0.5h-2.4v0.7c0,1.4,1.2,2.7,2.6,3.2L245.5,3277.9z M248.5,3281.5v0.5h-6.7v-3.1h0.6v2.6H248.5z M247.5,3275v-2.9h0.6v7.5h-0.6
			v-4.1h-2.3v-0.5H247.5z"/>
		<path d="M256,3277.5c-1.3,0.2-2.3,0.3-4.4,0.3h-0.7v-2.9h3.7v-1.7h-3.8v-0.5h4.4v2.7h-3.7v1.9h0.1c2.1,0,3.1,0,4.3-0.3L256,3277.5
			z M252,3279h6.7v3.4h-0.6v-2.9H252V3279z M258.7,3272.1v6.3h-0.6v-2.1h-2.2v-0.5h2.2v-1.6h-2.2v-0.5h2.2v-1.6H258.7z"/>
		<path d="M270.2,3276.7v0.5H261v-0.5H270.2z M262.1,3274.1c0-1.2,1.3-1.8,3.5-1.8s3.5,0.6,3.5,1.8c0,1.2-1.3,1.8-3.5,1.8
			S262.1,3275.2,262.1,3274.1z M262.8,3281.7h6.6v0.5h-7.2v-2.3h6.2v-1.1h-6.3v-0.5h6.9v2.1h-6.2V3281.7z M262.7,3274.1
			c0,0.8,1.1,1.3,2.9,1.3s2.9-0.5,2.9-1.3c0-0.8-1.1-1.3-2.9-1.3S262.7,3273.3,262.7,3274.1z"/>
		<path d="M279.8,3277.2c-1.2-0.4-2.1-1.3-2.6-2.4c-0.4,1.2-1.4,2.2-2.6,2.6l-0.3-0.5c1.4-0.5,2.6-1.8,2.6-3.3v-0.5h-2.4v-0.5h5.4
			v0.5h-2.4v0.5c0,1.3,1.2,2.5,2.6,3L279.8,3277.2z M282.9,3281.7v0.5H276v-2.4h5.8v-1.3H276v-0.5h6.5v2.3h-5.8v1.4H282.9z
			 M281.8,3274.5v-2.4h0.6v5.3h-0.6v-2.4h-2.3v-0.5H281.8z"/>
		<path d="M289.8,3272.8c0,2.5-1.8,4.4-4.8,5.2l-0.2-0.5c2.6-0.7,4.3-2.2,4.4-4.2h-4v-0.5H289.8z M286.3,3278.5h6.3v3.7h-6.3V3278.5
			z M286.9,3281.6h5.1v-2.6h-5.1V3281.6z M294.2,3275.3h-1.6v2.7H292v-5.9h0.6v2.6h1.6V3275.3z"/>
		<path d="M300.6,3273.9h-5.3v-0.5h2.4v-1.3h0.6v1.3h2.3V3273.9z M295.7,3276.2c0-1.1,0.9-1.7,2.2-1.7c1.3,0,2.2,0.7,2.2,1.7
			c0,1.1-0.9,1.7-2.2,1.7C296.6,3278,295.7,3277.3,295.7,3276.2z M302.5,3279.2c0,1,0.9,2.1,2.1,2.5l-0.3,0.5c-1-0.4-1.8-1.1-2.1-2
			c-0.3,0.8-0.9,1.7-1.9,2.1c-1-0.4-1.6-1.2-1.9-2.1c-0.4,0.8-1.1,1.6-2.1,2l-0.3-0.5c1.2-0.5,2.1-1.6,2.1-2.5v-0.4h0.6v0.4
			c0,0.9,0.6,2,1.6,2.5c1-0.6,1.6-1.7,1.6-2.5v-0.4h0.6V3279.2z M296.3,3276.2c0,0.7,0.6,1.3,1.6,1.3c1,0,1.6-0.5,1.6-1.3
			c0-0.7-0.6-1.2-1.6-1.2C296.9,3275,296.3,3275.5,296.3,3276.2z M301.6,3278.3h-0.6v-6h0.6v2.8h1.6v-2.9h0.6v6.3h-0.6v-2.9h-1.6
			V3278.3z"/>
		<path d="M315.1,3276.9v0.5h-9.2v-0.5H315.1z M314.3,3276c-1.4-0.2-3.2-1.1-3.8-2.3c-0.6,1.3-2.4,2.1-3.8,2.3l-0.2-0.5
			c1.6-0.2,3.7-1.3,3.7-2.7v-0.6h0.6v0.6c0,1.4,2.2,2.5,3.7,2.7L314.3,3276z M313.3,3278.2h0.6v3.9h-6.8v-3.9h0.6v1.4h5.6V3278.2z
			 M313.3,3280.1h-5.6v1.5h5.6V3280.1z"/>
		<path d="M318,3279.1c1.6,0,3.2-0.1,4.9-0.5l0.1,0.5c-1.8,0.4-3.4,0.5-5,0.5h-0.8v-6.5h0.6v6H318z M324.7,3272.1v10.2h-0.6v-10.2
			H324.7z"/>
		<path d="M328.3,3279.2c2,0,3.3-0.1,4.8-0.4l0.1,0.5c-1.6,0.3-2.9,0.4-4.9,0.4h-0.8v-6.6h4.7v0.5h-4.1v5.6H328.3z M336.6,3276.8
			h-1.8v5.5h-0.6v-10.2h0.6v4.2h1.8V3276.8z"/>
		<path d="M337.8,3281c0-0.4,0.3-0.6,0.6-0.6c0.3,0,0.6,0.2,0.6,0.6c0,0.4-0.3,0.6-0.6,0.6C338.1,3281.7,337.8,3281.4,337.8,3281z"
			/>
	</g>
	<g class="st0">
		<path d="M231.7,3186v1h-9.8v-1h3.6v-3.8h1.2v3.8H231.7z M229.4,3179.6H223v-1h7.7v1.1c0,1.3,0,2.8-0.4,5.1l-1.2-0.1
			C229.4,3182.5,229.4,3181,229.4,3179.6L229.4,3179.6z"/>
		<path d="M242.8,3186.3v1H233v-1h2.5v-1.9c-0.8-0.3-1.2-0.9-1.2-1.6c0-1.3,1.4-2.1,3.6-2.1s3.6,0.8,3.6,2.1c0,0.7-0.4,1.3-1.2,1.6
			v1.9H242.8z M242.3,3180.1h-8.9v-1h3.8v-1.3h1.2v1.3h3.8V3180.1z M235.5,3182.7c0,0.7,0.9,1.1,2.3,1.1c1.5,0,2.4-0.4,2.4-1.1
			c0-0.7-0.9-1.1-2.4-1.1C236.4,3181.6,235.5,3182,235.5,3182.7z M236.7,3186.3h2.4v-1.6c-0.4,0.1-0.8,0.1-1.2,0.1
			c-0.4,0-0.8,0-1.2-0.1V3186.3z"/>
		<path d="M251.2,3183v0.9h1.4v2.6h-6.2v0.9h6.5v0.9h-7.7v-2.7h6.2v-0.8h-6.2v-0.9h1.4v-0.9H244v-1h9.8v1H251.2z M245,3179.6
			c0-1.2,1.4-1.9,3.9-1.9c2.4,0,3.9,0.7,3.9,1.9s-1.4,1.9-3.9,1.9C246.5,3181.4,245,3180.8,245,3179.6z M246.3,3179.6
			c0,0.6,0.9,0.9,2.6,0.9s2.6-0.3,2.6-0.9c0-0.6-0.9-0.9-2.6-0.9S246.3,3179,246.3,3179.6z M250,3183h-2.2v0.9h2.2V3183z"/>
		<path d="M263.5,3183c-1.2-0.4-2-1.2-2.5-2.2c-0.5,1.1-1.4,2-2.7,2.4l-0.6-1c1.7-0.6,2.6-1.9,2.6-3.4v-0.9h1.2v0.9
			c0,1.4,0.9,2.6,2.6,3.2L263.5,3183z M267.1,3187.3v1h-7.4v-2.8h5.8v-0.9h-5.8v-1h7.1v2.7h-5.8v0.9H267.1z M265.5,3180.4h-2.2v-1
			h2.2v-1.8h1.2v5.6h-1.2V3180.4z"/>
		<path d="M270.6,3178.5v2.8h2.7v-2.8h1.2v7.4h-5.2v-7.4H270.6z M270.6,3184.9h2.7v-2.7h-2.7V3184.9z M277.7,3177.6v10.9h-1.2v-10.9
			H277.7z"/>
		<path d="M283.6,3180.3c0,1.9,1,3.9,2.6,4.7l-0.8,1c-1.2-0.6-2-1.8-2.5-3.2c-0.5,1.5-1.4,2.8-2.6,3.4l-0.8-1
			c1.7-0.8,2.7-2.9,2.7-4.9v-1.8h1.2V3180.3z M289.9,3182.9h-1.7v5.5H287v-10.8h1.2v4.3h1.7V3182.9z"/>
		<path d="M300.7,3182.9v1h-9.8v-1h2.3v-1.4c-0.8-0.3-1.3-0.9-1.3-1.6c0-1.3,1.5-2,3.9-2c2.4,0,3.9,0.8,3.9,2c0,0.7-0.5,1.3-1.3,1.6
			v1.4H300.7z M299.5,3186.5c0,1.2-1.4,1.9-3.7,1.9c-2.3,0-3.7-0.7-3.7-1.9c0-1.2,1.4-1.9,3.7-1.9
			C298.1,3184.5,299.5,3185.3,299.5,3186.5z M293.2,3179.8c0,0.7,1,1.1,2.6,1.1c1.6,0,2.6-0.4,2.6-1.1s-1-1.1-2.6-1.1
			C294.2,3178.7,293.2,3179.1,293.2,3179.8z M298.2,3186.5c0-0.6-0.9-1-2.5-1s-2.5,0.3-2.5,1c0,0.7,0.9,1,2.5,1
			S298.2,3187.1,298.2,3186.5z M294.4,3182.9h2.7v-1.1c-0.4,0.1-0.8,0.1-1.3,0.1s-0.9,0-1.3-0.1V3182.9z"/>
		<path d="M311.7,3186v1h-9.8v-1H311.7z M310.8,3181.3c0,1.8-1.7,3.1-4,3.1c-2.3,0-4-1.2-4-3.1c0-1.8,1.7-3.1,4-3.1
			C309.1,3178.2,310.8,3179.4,310.8,3181.3z M304,3181.3c0,1.2,1.2,2,2.8,2c1.6,0,2.8-0.8,2.8-2s-1.2-2-2.8-2
			C305.2,3179.2,304,3180,304,3181.3z"/>
		<path d="M322.8,3186.1v1H313v-1h4.3v-1.8h-3.1v-3.5h6.2v-1.5h-6.3v-1h7.5v3.4h-6.2v1.5h6.5v1h-3.4v1.8H322.8z"/>
	</g>
	<g class="st0">
		<path d="M256.7,3202c-1.2-0.4-2.1-1.3-2.5-2.3c-0.5,1.2-1.4,2.1-2.7,2.6l-0.6-1c1.7-0.6,2.7-2,2.7-3.5v-0.4h-2.3v-1h5.8v1h-2.3
			v0.4c0,1.3,0.9,2.7,2.5,3.2L256.7,3202z M260.1,3205.2v1h-7.3v-3.4h1.2v2.4H260.1z M258.6,3198.5v-2.9h1.2v7.9h-1.2v-4h-2v-1
			H258.6z"/>
		<path d="M267.7,3201.6c-1.3,0.2-2.4,0.3-4.5,0.3h-0.8v-3.4h3.5v-1.3h-3.5v-1h4.7v3.2h-3.5v1.4c1.8,0,2.8,0,4-0.3L267.7,3201.6z
			 M263.6,3202.8h7.3v3.6h-1.2v-2.6h-6.1V3202.8z M270.9,3195.6v6.7h-1.2v-1.8h-1.9v-1h1.9v-1.3h-1.9v-1h1.9v-1.6H270.9z"/>
		<path d="M278.8,3201.1c-1.2-0.4-2.1-1.2-2.6-2.1c-0.5,1.1-1.4,2-2.7,2.4l-0.6-1c1.7-0.6,2.6-1.9,2.6-3.2v-0.1h-2.3v-1h5.8v1h-2.3
			v0.1c0,1.2,0.9,2.4,2.5,2.9L278.8,3201.1z M282.3,3205.3v1h-7.4v-2.8h5.8v-0.9h-5.8v-1h7.1v2.7h-5.8v1H282.3z M280.7,3197.9v-2.3
			h1.2v5.6h-1.2v-2.2h-1.9v-1H280.7z"/>
		<path d="M289.5,3196.2c0,2.8-1.9,4.8-5.1,5.6l-0.5-1c2.5-0.7,4-2,4.2-3.6h-3.7v-1H289.5z M285.5,3202.2h6.9v4.1h-6.9V3202.2z
			 M286.8,3205.3h4.5v-2.1h-4.5V3205.3z M294,3199.1h-1.5v2.6h-1.2v-6.1h1.2v2.5h1.5V3199.1z"/>
	</g>
	<g id="사각형_532" transform="translate(190 3122.506)">
		<rect y="0" class="st2" width="165" height="196"/>
		<rect x="0.5" y="0.5" class="st3" width="164" height="195"/>
	</g>
	<path id="패스_4994-2" class="st4" d="M341.8,3163.3H202.9"/>
	<g id="사각형_527" transform="translate(20 2925.506)">
		<rect y="0" class="st2" width="165" height="192"/>
		<rect x="0.5" y="0.5" class="st3" width="164" height="191"/>
	</g>
	<g class="st0">
		<path class="st1" d="M101.6,2946.4v1.2h-4.9v2.9h-1.4v-2.9h-5.1v-1.2h8.3c0.3-1.5,0.3-2.6,0.3-3.7h-7.2v-1.2h8.6v1
			c0,1.1,0,2.2-0.3,3.8H101.6z M93,2952.2h7.4v1.2h-8.9v-4H93V2952.2z"/>
		<path class="st1" d="M109.8,2948.3c-1.4-0.5-2.4-1.5-3-2.7c-0.5,1.4-1.6,2.5-3.1,3l-0.8-1.1c2-0.7,3.1-2.4,3.1-4.2v-1.5h1.5v1.5
			c0,1.7,1.1,3.3,3,3.9L109.8,2948.3z M106.4,2952.2h7v1.2h-8.5v-4h1.4V2952.2z M114.7,2944.7v1.2h-1.8v4.3h-1.4v-9.3h1.4v3.8H114.7
			z"/>
	</g>
	<g class="st0">
		<path d="M64.5,3004.1h2.2c1.9,0,3.1,0.6,3.1,2.4c0,1.7-1.2,2.5-3,2.5h-1.5v3.5h-0.7V3004.1z M66.5,3008.4c1.7,0,2.5-0.6,2.5-1.9
			c0-1.4-0.8-1.8-2.5-1.8h-1.3v3.7H66.5z"/>
		<path d="M71.3,3011.9h1.9v-6.6h-1.5v-0.4c0.7-0.1,1.2-0.3,1.6-0.5h0.5v7.6h1.7v0.6h-4.3V3011.9z"/>
		<path d="M79.7,3008.3c0-2.7,1.5-4.3,3.6-4.3c1,0,1.8,0.5,2.2,1l-0.4,0.4c-0.4-0.5-1-0.8-1.8-0.8c-1.8,0-2.9,1.4-2.9,3.7
			c0,2.3,1.1,3.8,2.9,3.8c0.9,0,1.5-0.4,2.1-1l0.4,0.4c-0.6,0.7-1.4,1.2-2.5,1.2C81.2,3012.7,79.7,3011,79.7,3008.3z"/>
		<path d="M86.2,3004.1H87l1.5,4.8c0.3,1,0.5,1.8,0.9,2.8h0c0.3-1,0.6-1.8,0.9-2.8l1.5-4.8h0.7l-2.7,8.4H89L86.2,3004.1z"/>
		<path d="M93.7,3004.1h2c2.6,0,3.8,1.6,3.8,4.2c0,2.6-1.3,4.2-3.8,4.2h-2V3004.1z M95.7,3011.9c2.2,0,3.2-1.5,3.2-3.6
			c0-2.2-1-3.6-3.2-3.6h-1.2v7.2H95.7z"/>
	</g>
	<g class="st0">
		<path d="M106,3008.8h-4.6v-5h0.6v1.9h3.4v-1.9h0.6V3008.8z M105.4,3006.2H102v2.1h3.4V3006.2z M103.2,3012.5h6.1v0.5h-6.7v-3.2
			h0.6V3012.5z M110.4,3006.3v0.5h-1.6v3.8h-0.6v-7.5h0.6v3.2H110.4z"/>
		<path d="M120.7,3008.2v0.5h-9.2v-0.5H120.7z M119.6,3005.3c0,1.2-1.3,1.9-3.5,1.9c-2.2,0-3.5-0.7-3.5-1.9s1.3-1.9,3.5-1.9
			C118.3,3003.4,119.6,3004.1,119.6,3005.3z M119.6,3011.5c0,1.2-1.3,1.8-3.5,1.8c-2.2,0-3.5-0.7-3.5-1.8s1.3-1.8,3.5-1.8
			C118.3,3009.7,119.6,3010.4,119.6,3011.5z M113.2,3005.3c0,0.9,1.2,1.4,2.9,1.4s2.9-0.5,2.9-1.4c0-0.9-1.2-1.4-2.9-1.4
			S113.2,3004.4,113.2,3005.3z M113.2,3011.5c0,0.8,1.1,1.3,2.9,1.3c1.7,0,2.9-0.5,2.9-1.3c0-0.8-1.1-1.3-2.9-1.3
			C114.4,3010.2,113.2,3010.7,113.2,3011.5z"/>
		<path d="M127.4,3004.2c0,2.9-1.5,5.5-4.8,7.1l-0.3-0.5c2.8-1.4,4.4-3.5,4.5-6.1h-4.1v-0.5H127.4z M130.4,3003.1v10.2h-0.6v-10.2
			H130.4z"/>
		<path d="M132.7,3010.4c1.9,0,4.5,0,6.8-0.4l0.1,0.5c-2.3,0.4-4.9,0.4-6.8,0.4L132.7,3010.4z M138.7,3006.2c0,1.4-1.1,2.3-2.7,2.3
			c-1.6,0-2.7-0.9-2.7-2.3c0-1.4,1.1-2.3,2.7-2.3C137.6,3003.9,138.7,3004.8,138.7,3006.2z M133.9,3006.2c0,1,0.9,1.8,2.1,1.8
			c1.2,0,2.1-0.8,2.1-1.8s-0.9-1.8-2.1-1.8C134.8,3004.4,133.9,3005.2,133.9,3006.2z M140.8,3003.1v10.2h-0.6v-10.2H140.8z"/>
	</g>
	<g class="st0">
		<path d="M50.5,3026.4v0.5h-4.3v2.3h-0.6v-2.3h-4.4v-0.5H50.5z M42.3,3023.4c0-1.2,1.4-2,3.5-2c2.2,0,3.5,0.8,3.5,2
			c0,1.2-1.4,2-3.5,2C43.7,3025.4,42.3,3024.6,42.3,3023.4z M43.1,3030.5h6.4v0.5h-7v-2.9h0.6V3030.5z M43,3023.4
			c0,0.9,1.2,1.5,2.9,1.5c1.7,0,2.9-0.6,2.9-1.5s-1.2-1.5-2.9-1.5C44.1,3021.9,43,3022.5,43,3023.4z"/>
		<path d="M57.5,3026.9c-1.2-0.4-2.1-1.4-2.6-2.5c-0.4,1.3-1.5,2.3-2.7,2.8l-0.3-0.5c1.4-0.5,2.7-1.9,2.7-3.4v-0.7h-2.4v-0.5h5.4
			v0.5h-2.4v0.7c0,1.4,1.2,2.7,2.6,3.2L57.5,3026.9z M60.5,3030.5v0.5h-6.7v-3.1h0.6v2.6H60.5z M59.5,3024v-2.9h0.6v7.5h-0.6v-4.1
			h-2.3v-0.5H59.5z"/>
	</g>
	<g class="st0">
		<path d="M65.5,3022.1H68c1.7,0,2.8,0.6,2.8,2.2c0,1.3-0.8,2.1-2.1,2.3l2.3,3.8h-0.8l-2.2-3.8h-1.7v3.8h-0.7V3022.1z M67.8,3026.1
			c1.4,0,2.3-0.6,2.3-1.8c0-1.2-0.8-1.7-2.3-1.7h-1.6v3.5H67.8z"/>
		<path d="M71.8,3027.4c0-2,1.3-3.2,2.7-3.2c1.5,0,2.4,1.1,2.4,2.9c0,0.2,0,0.3,0,0.5h-4.3c0,1.5,0.9,2.5,2.2,2.5
			c0.7,0,1.2-0.2,1.6-0.5l0.3,0.5c-0.5,0.3-1.1,0.6-2,0.6C73.1,3030.7,71.8,3029.5,71.8,3027.4z M76.3,3027c0-1.5-0.7-2.2-1.7-2.2
			c-1,0-1.9,0.8-2,2.2H76.3z"/>
		<path d="M78,3027.4c0-2,1.3-3.2,2.8-3.2c0.8,0,1.4,0.4,1.8,0.7l-0.4,0.5c-0.4-0.4-0.8-0.6-1.4-0.6c-1.2,0-2.2,1.1-2.2,2.6
			s0.9,2.6,2.1,2.6c0.6,0,1.2-0.3,1.6-0.7l0.3,0.5c-0.5,0.5-1.2,0.8-2,0.8C79.2,3030.7,78,3029.5,78,3027.4z"/>
		<path d="M84.1,3022.4c0-0.3,0.2-0.5,0.5-0.5c0.3,0,0.5,0.2,0.5,0.5c0,0.3-0.2,0.6-0.5,0.6C84.3,3022.9,84.1,3022.7,84.1,3022.4z
			 M84.2,3024.4h0.7v6.1h-0.7V3024.4z"/>
		<path d="M87.2,3024.4h0.6l0.1,0.7h0c0.6-0.5,1.3-0.9,2-0.9c1.6,0,2.5,1.2,2.5,3.1c0,2.1-1.3,3.3-2.7,3.3c-0.6,0-1.2-0.3-1.8-0.7
			l0,1.1v2.2h-0.7V3024.4z M91.7,3027.3c0-1.5-0.5-2.5-1.9-2.5c-0.6,0-1.2,0.3-1.9,1v3.5c0.7,0.6,1.3,0.7,1.7,0.7
			C90.8,3030.1,91.7,3029,91.7,3027.3z"/>
		<path d="M93.7,3027.4c0-2,1.3-3.2,2.7-3.2c1.5,0,2.4,1.1,2.4,2.9c0,0.2,0,0.3,0,0.5h-4.3c0,1.5,0.9,2.5,2.2,2.5
			c0.7,0,1.2-0.2,1.6-0.5l0.3,0.5c-0.5,0.3-1.1,0.6-2,0.6C94.9,3030.7,93.7,3029.5,93.7,3027.4z M98.1,3027c0-1.5-0.7-2.2-1.7-2.2
			c-1,0-1.9,0.8-2,2.2H98.1z"/>
	</g>
	<g class="st0">
		<path d="M109.1,3025.9v0.5h-9.3v-0.5H109.1z M101.6,3030.7h6.7v0.5H101v-2.1h6.3v-1.1H101v-0.5h6.9v2h-6.3V3030.7z M107.3,3021.9
			H101v-0.5h6.8v2h-6.2v1.1h6.4v0.5h-7v-2h6.2V3021.9z"/>
		<path d="M116.7,3028.5c1,0,2.1-0.1,3.1-0.3l0,0.5c-2.3,0.4-4.9,0.4-6.7,0.4l-0.1-0.5c0.9,0,1.9,0,3,0v-2.1h0.6V3028.5z
			 M113.4,3026.3c1.4-0.5,2.7-1.7,2.7-3.2v-0.1h-2.5v-0.5h2.5v-1.3h0.6v1.3h2.5v0.5h-2.5v0.1c0,1.5,1.3,2.6,2.7,3.1l-0.3,0.5
			c-1.2-0.4-2.3-1.3-2.7-2.4c-0.4,1.2-1.5,2.1-2.7,2.5L113.4,3026.3z M121.2,3021.1v10.2h-0.6v-10.2H121.2z"/>
		<path d="M129.2,3026.8c-1.2-0.4-2.1-1.4-2.6-2.5c-0.4,1.3-1.4,2.3-2.7,2.7l-0.3-0.5c1.4-0.5,2.7-1.9,2.7-3.4v-0.7h-2.4v-0.5h5.4
			v0.5h-2.4v0.7c0,1.4,1.2,2.7,2.6,3.2L129.2,3026.8z M125.1,3027.8h6.7v3.5h-0.6v-3h-6.1V3027.8z M131.9,3021.1v6.1h-0.6v-2.8H129
			v-0.5h2.3v-2.8H131.9z"/>
		<path d="M137.6,3028.6c1-0.1,2.1-0.1,3-0.3l0,0.5c-2.2,0.4-4.7,0.4-6.5,0.4l-0.1-0.5c0.9,0,1.9,0,2.9,0v-1.3c-1.2-0.1-2-0.8-2-1.9
			c0-1.2,0.9-1.9,2.3-1.9c1.4,0,2.4,0.7,2.4,1.9c0,1.1-0.8,1.7-2.1,1.9V3028.6z M140.3,3022.9h-6.2v-0.5h2.8v-1.3h0.6v1.3h2.8
			V3022.9z M137.3,3026.9c1.1,0,1.8-0.6,1.8-1.4c0-0.8-0.7-1.4-1.8-1.4c-1.1,0-1.8,0.6-1.8,1.4
			C135.5,3026.3,136.2,3026.9,137.3,3026.9z M143.6,3026.1h-1.8v5.2h-0.6v-10.2h0.6v4.5h1.8V3026.1z"/>
		<path d="M148,3022.8h2.7v0.5h-6.1v-0.5h2.8v-1.6h0.6V3022.8z M150.2,3026.6c0,1.4-1,2.3-2.4,2.3c-1.4,0-2.4-0.9-2.4-2.3
			c0-1.3,1-2.3,2.4-2.3C149.2,3024.3,150.2,3025.3,150.2,3026.6z M149.6,3026.6c0-1-0.8-1.8-1.9-1.8c-1.1,0-1.9,0.8-1.9,1.8
			c0,1,0.8,1.8,1.9,1.8C148.8,3028.4,149.6,3027.6,149.6,3026.6z M154.3,3025.9h-1.8v5.4h-0.6v-10.2h0.6v4.3h1.8V3025.9z"/>
		<path d="M163.6,3021.1v10.2H163v-4h-2.9c-0.4,1-1.2,1.7-2.2,1.7c-1.5,0-2.5-1.4-2.5-3.5c0-2.1,1-3.5,2.5-3.5c1,0,1.7,0.6,2.1,1.6
			h2.9v-2.4H163.6z M159.9,3025.4c0-1.7-0.8-3-1.9-3s-1.9,1.2-1.9,3c0,1.7,0.8,3,1.9,3S159.9,3027.2,159.9,3025.4z M163,3026.8v-2.7
			h-2.7c0.1,0.4,0.2,0.9,0.2,1.4c0,0.5-0.1,0.9-0.1,1.3H163z"/>
	</g>
	<g class="st0">
		<path d="M60.3,3044.9c-1.2-0.4-2.1-1.4-2.6-2.5c-0.4,1.3-1.5,2.3-2.7,2.8l-0.3-0.5c1.4-0.5,2.7-1.9,2.7-3.4v-0.7H55v-0.5h5.4v0.5
			H58v0.7c0,1.4,1.2,2.7,2.6,3.2L60.3,3044.9z M63.3,3048.5v0.5h-6.7v-3.1h0.6v2.6H63.3z M62.4,3042v-2.9H63v7.5h-0.6v-4.1h-2.3
			v-0.5H62.4z"/>
		<path d="M70.8,3044.5c-1.3,0.2-2.3,0.3-4.4,0.3h-0.7v-2.9h3.7v-1.7h-3.8v-0.5H70v2.7h-3.7v1.9h0.1c2.1,0,3.1,0,4.3-0.3
			L70.8,3044.5z M66.8,3046h6.7v3.4H73v-2.9h-6.1V3046z M73.6,3039.1v6.3H73v-2.1h-2.2v-0.5H73v-1.6h-2.2v-0.5H73v-1.6H73.6z"/>
		<path d="M79.1,3042.1c0,1.8,1.4,3.6,2.7,4.3l-0.4,0.5c-1.1-0.6-2.2-1.9-2.6-3.4c-0.4,1.6-1.5,3-2.7,3.6l-0.4-0.5
			c1.3-0.7,2.7-2.7,2.7-4.5v-2h0.6V3042.1z M85.4,3043.9h-1.8v5.4H83v-10.2h0.6v4.3h1.8V3043.9z"/>
		<path d="M95.6,3044.3v0.5h-9.2v-0.5h2.4v-1.6c-0.8-0.3-1.3-0.8-1.3-1.5c0-1.2,1.3-1.9,3.5-1.9c2.2,0,3.5,0.7,3.5,1.9
			c0,0.7-0.5,1.2-1.3,1.5v1.6H95.6z M94.5,3047.5c0,1.2-1.3,1.8-3.5,1.8c-2.2,0-3.5-0.6-3.5-1.8s1.3-1.8,3.5-1.8
			C93.2,3045.7,94.5,3046.3,94.5,3047.5z M91,3042.5c1.8,0,2.9-0.5,2.9-1.4s-1.1-1.4-2.9-1.4c-1.8,0-2.9,0.5-2.9,1.4
			S89.3,3042.5,91,3042.5z M93.9,3047.5c0-0.8-1.1-1.3-2.9-1.3c-1.7,0-2.9,0.5-2.9,1.3c0,0.8,1.1,1.3,2.9,1.3
			C92.8,3048.8,93.9,3048.3,93.9,3047.5z M89.4,3044.3h3.2v-1.4c-0.5,0.1-1,0.1-1.6,0.1c-0.6,0-1.1-0.1-1.6-0.1V3044.3z"/>
		<path d="M103.2,3044.2c-1.7,0.3-3.1,0.3-4.9,0.3h-0.8v-2.7h3.9v-1.6h-4v-0.5h4.6v2.6h-3.9v1.7h0.2c1.8,0,3.1-0.1,4.8-0.4
			L103.2,3044.2z M105,3047.5c0,1.2-1.2,1.8-3.3,1.8c-2,0-3.3-0.7-3.3-1.8c0-1.2,1.3-1.8,3.3-1.8
			C103.7,3045.7,105,3046.3,105,3047.5z M104.4,3047.5c0-0.8-1.1-1.3-2.7-1.3c-1.6,0-2.7,0.5-2.7,1.3c0,0.8,1.1,1.3,2.7,1.3
			C103.3,3048.8,104.4,3048.3,104.4,3047.5z M104.9,3041.3v1.6h1.6v0.5h-1.6v1.8h-0.6v-6.2h0.6v1.7h1.6v0.5H104.9z"/>
		<path d="M116.8,3043.7v0.5h-9.2v-0.5H116.8z M108.7,3041.1c0-1.2,1.3-1.8,3.5-1.8c2.2,0,3.5,0.6,3.5,1.8c0,1.2-1.3,1.8-3.5,1.8
			C110,3042.9,108.7,3042.2,108.7,3041.1z M109.4,3048.7h6.6v0.5h-7.2v-2.3h6.2v-1.1h-6.3v-0.5h6.9v2.1h-6.2V3048.7z M109.3,3041.1
			c0,0.8,1.1,1.3,2.9,1.3c1.8,0,2.9-0.5,2.9-1.3c0-0.8-1.1-1.3-2.9-1.3C110.4,3039.8,109.3,3040.3,109.3,3041.1z"/>
		<path d="M124.4,3046.5c1,0,2.1-0.1,3.1-0.3l0,0.5c-2.3,0.4-4.9,0.4-6.7,0.4l-0.1-0.5c0.9,0,1.9,0,3,0v-2.1h0.6V3046.5z
			 M121.1,3044.3c1.4-0.5,2.7-1.7,2.7-3.2v-0.1h-2.5v-0.5h2.5v-1.3h0.6v1.3h2.5v0.5h-2.5v0.1c0,1.5,1.3,2.6,2.7,3.1l-0.3,0.5
			c-1.2-0.4-2.3-1.3-2.7-2.4c-0.4,1.2-1.5,2.1-2.7,2.5L121.1,3044.3z M128.9,3039.1v10.2h-0.6v-10.2H128.9z"/>
		<path d="M140.6,3047.4v0.5h-9.3v-0.5h4.3v-2.6h0.6v2.6H140.6z M139.8,3044.8c-1.4-0.3-3.2-1.4-3.9-3c-0.6,1.6-2.5,2.7-3.9,3
			l-0.3-0.5c1.5-0.3,3.8-1.8,3.8-3.6v-0.8h0.6v0.8c0,1.9,2.4,3.3,3.8,3.6L139.8,3044.8z"/>
		<path d="M145.3,3046.6c1-0.1,2.1-0.1,3-0.3l0,0.5c-2.2,0.4-4.7,0.4-6.5,0.4l-0.1-0.5c0.9,0,1.9,0,2.9,0v-1.3c-1.2-0.1-2-0.8-2-1.9
			c0-1.2,0.9-1.9,2.3-1.9c1.4,0,2.4,0.7,2.4,1.9c0,1.1-0.8,1.7-2.1,1.9V3046.6z M148.1,3040.9h-6.2v-0.5h2.8v-1.3h0.6v1.3h2.8
			V3040.9z M145,3044.9c1.1,0,1.8-0.6,1.8-1.4c0-0.8-0.7-1.4-1.8-1.4c-1.1,0-1.8,0.6-1.8,1.4C143.2,3044.3,143.9,3044.9,145,3044.9z
			 M151.4,3044.1h-1.8v5.2H149v-10.2h0.6v4.5h1.8V3044.1z"/>
	</g>
	<g class="st0">
		<path d="M54.2,3058.8h-6.1v-0.5h2.7v-1.3h0.6v1.3h2.7V3058.8z M51.2,3063c-1.5,0-2.4-0.7-2.4-1.8c0-1.1,1-1.8,2.4-1.8
			c1.4,0,2.4,0.7,2.4,1.8C53.6,3062.3,52.6,3063,51.2,3063z M51.2,3062.5c1.1,0,1.8-0.5,1.8-1.3c0-0.8-0.7-1.3-1.8-1.3
			c-1.1,0-1.8,0.5-1.8,1.3C49.3,3062,50.1,3062.5,51.2,3062.5z M49.7,3063.9H56v3.3h-6.3V3063.9z M50.3,3066.6h5.1v-2.2h-5.1V3066.6
			z M57.6,3060.4H56v2.8h-0.6v-6.2H56v2.8h1.6V3060.4z"/>
		<path d="M68,3065.4v0.5h-9.3v-0.5H68z M67,3060.6c0,1.7-1.6,2.7-3.7,2.7s-3.6-1.1-3.6-2.7c0-1.6,1.5-2.7,3.6-2.7
			S67,3058.9,67,3060.6z M60.2,3060.6c0,1.3,1.3,2.2,3.1,2.2c1.8,0,3.1-0.9,3.1-2.2c0-1.3-1.3-2.2-3.1-2.2
			C61.5,3058.3,60.2,3059.3,60.2,3060.6z"/>
		<path d="M78.5,3065.4v0.5h-9.3v-0.5h4.3v-2.2h-3.1v-3h6.2v-1.9h-6.3v-0.5h6.9v2.9h-6.2v2h6.5v0.5h-3.4v2.2H78.5z"/>
		<path d="M84.9,3060.7c0,1.2,0.4,2.9,1.6,3.8l-0.4,0.5c-0.8-0.6-1.3-1.6-1.5-2.6c-0.2,1-0.6,2.1-1.5,2.7c-0.8-0.6-1.3-1.7-1.5-2.7
			c-0.2,1-0.7,2-1.5,2.6l-0.4-0.5c1.2-0.8,1.6-2.6,1.6-3.8v-2.7H82v2.7c0,0.9,0.3,2.5,1.2,3.5c0.9-0.9,1.2-2.5,1.2-3.5v-2.7h0.6
			V3060.7z M88.3,3057.1v10.2h-0.6v-5.8h-2v-0.5h2v-3.8H88.3z"/>
		<path d="M99,3057.3h0.6v9.4H99v-5.1h-1.6c-0.1,2-0.9,3.2-2.2,3.2c-1.3,0-2.2-1.3-2.2-3.5c0-2.1,0.9-3.5,2.2-3.5
			c1.3,0,2.1,1.2,2.2,3.2H99V3057.3z M96.9,3061.5c0-1.7-0.6-2.9-1.6-2.9c-0.9,0-1.6,1.2-1.6,2.9c0,1.7,0.6,2.9,1.6,2.9
			C96.2,3064.4,96.9,3063.2,96.9,3061.5z M101.6,3057.1v10.2H101v-10.2H101.6z"/>
		<path d="M104.9,3064.3c1.7,0,3-0.1,4.6-0.4l0.1,0.5c-1.6,0.3-3,0.4-4.7,0.4h-0.7v-6.5h0.6v6H104.9z M111.9,3057.1v10.2h-0.6v-6.2
			h-3.4v-0.5h3.4v-3.5H111.9z"/>
		<path d="M117.6,3060.4c0,1.8,1.5,3.5,2.9,4.2l-0.4,0.5c-1.1-0.6-2.3-1.8-2.8-3.3c-0.4,1.5-1.6,2.9-2.7,3.5l-0.4-0.5
			c1.3-0.7,2.8-2.6,2.8-4.4v-1.7h-2.5v-0.5h5.7v0.5h-2.6V3060.4z M122.4,3057.1v10.2h-0.6v-10.2H122.4z"/>
		<path d="M136.5,3065.5v0.5h-9.3v-0.5h2.6v-2c-0.8-0.3-1.2-0.8-1.2-1.5c0-1.2,1.2-1.9,3.3-1.9s3.3,0.7,3.3,1.9
			c0,0.7-0.4,1.2-1.2,1.5v2H136.5z M136,3059.3h-8.2v-0.5h3.8v-1.5h0.6v1.5h3.8V3059.3z M131.9,3063.3c1.6,0,2.7-0.5,2.7-1.4
			c0-0.9-1-1.4-2.7-1.4c-1.6,0-2.7,0.5-2.7,1.4C129.2,3062.8,130.3,3063.3,131.9,3063.3z M130.5,3065.5h2.9v-1.8
			c-0.4,0.1-0.9,0.1-1.4,0.1c-0.5,0-1,0-1.4-0.1V3065.5z"/>
		<path d="M144.4,3062.1v1.2h1.5v2.1h-6.2v1.3h6.6v0.5H139v-2.3h6.2v-1.1H139v-0.5h1.4v-1.2h-2.6v-0.5h9.2v0.5H144.4z M138.9,3059
			c0-1.2,1.3-1.8,3.5-1.8c2.2,0,3.5,0.6,3.5,1.8c0,1.2-1.3,1.8-3.5,1.8C140.3,3060.8,138.9,3060.2,138.9,3059z M139.6,3059
			c0,0.8,1.1,1.3,2.9,1.3s2.9-0.5,2.9-1.3c0-0.8-1.1-1.3-2.9-1.3S139.6,3058.2,139.6,3059z M143.8,3062.1h-2.7v1.2h2.7V3062.1z"/>
		<path d="M157.7,3061.7v0.5h-9.2v-0.5H157.7z M149.5,3059.1c0-1.2,1.3-1.8,3.5-1.8c2.2,0,3.5,0.6,3.5,1.8c0,1.2-1.3,1.8-3.5,1.8
			C150.8,3060.9,149.5,3060.2,149.5,3059.1z M150.2,3066.7h6.6v0.5h-7.2v-2.3h6.2v-1.1h-6.3v-0.5h6.9v2.1h-6.2V3066.7z
			 M150.1,3059.1c0,0.8,1.1,1.3,2.9,1.3c1.8,0,2.9-0.5,2.9-1.3c0-0.8-1.1-1.3-2.9-1.3C151.3,3057.8,150.1,3058.3,150.1,3059.1z"/>
	</g>
	<g class="st0">
		<path d="M69.1,3079.5v0.5h-9.3v-0.5h7.1c0.3-1.4,0.3-2.4,0.3-3.2v-0.2H61v-0.5h6.8v0.7c0,0.8,0,1.8-0.3,3.2H69.1z M60.8,3081.7
			h7.1v3.6h-0.6v-3.1h-6.5V3081.7z"/>
		<path d="M71.4,3082.1c1.7,0,2.6,0,3.8-0.3l0.1,0.5c-1.2,0.3-2.2,0.3-3.9,0.3h-0.6v-6.3h3.8v0.5h-3.2L71.4,3082.1L71.4,3082.1z
			 M79,3075.1v10.2h-0.6v-5.5h-1.8v4.9h-0.6v-9.4h0.6v3.9h1.8v-4.2H79z"/>
		<path d="M84.4,3082.6c1-0.1,2.1-0.1,3-0.3l0,0.5c-2.2,0.4-4.7,0.4-6.5,0.4l-0.1-0.5c0.9,0,1.9,0,2.9,0v-1.3c-1.2-0.1-2-0.8-2-1.9
			c0-1.2,0.9-1.9,2.3-1.9c1.4,0,2.4,0.7,2.4,1.9c0,1.1-0.8,1.7-2.1,1.9V3082.6z M87.2,3076.9H81v-0.5h2.8v-1.3h0.6v1.3h2.8V3076.9z
			 M84.1,3080.9c1.1,0,1.8-0.6,1.8-1.4c0-0.8-0.7-1.4-1.8-1.4c-1.1,0-1.8,0.6-1.8,1.4C82.3,3080.3,83,3080.9,84.1,3080.9z
			 M90.5,3080.1h-1.8v5.2h-0.6v-10.2h0.6v4.5h1.8V3080.1z"/>
		<path d="M94.9,3076.8h2.7v0.5h-6.1v-0.5h2.8v-1.6h0.6V3076.8z M97,3080.6c0,1.4-1,2.3-2.4,2.3c-1.4,0-2.4-0.9-2.4-2.3
			c0-1.3,1-2.3,2.4-2.3C96,3078.3,97,3079.3,97,3080.6z M96.4,3080.6c0-1-0.8-1.8-1.9-1.8c-1.1,0-1.9,0.8-1.9,1.8
			c0,1,0.8,1.8,1.9,1.8C95.7,3082.4,96.4,3081.6,96.4,3080.6z M101.1,3079.9h-1.8v5.4h-0.6v-10.2h0.6v4.3h1.8V3079.9z"/>
		<path d="M107,3079.5c-0.5,0.6-1.2,1-2.1,1c-1.5,0-2.6-1-2.6-2.4c0-1.4,1.1-2.4,2.6-2.4c0.9,0,1.6,0.4,2.1,0.9h2.8v-1.5h0.6v5.9
			h-0.6v-1.5H107z M109.3,3082.1c0,1.1,0.9,2.2,2.2,2.6l-0.3,0.5c-1-0.4-1.8-1.2-2.1-2c-0.3,0.8-0.9,1.7-1.9,2.1
			c-1-0.4-1.6-1.2-1.9-2.1c-0.4,0.9-1.1,1.6-2.1,2l-0.3-0.5c1.3-0.5,2.2-1.6,2.2-2.6v-0.8h0.6v0.8c0,1,0.6,2,1.6,2.6
			c1-0.6,1.6-1.7,1.6-2.6v-0.8h0.6V3082.1z M102.9,3078.1c0,1,0.8,1.8,2,1.8c1.2,0,2-0.8,2-1.8c0-1.1-0.8-1.9-2-1.9
			C103.8,3076.2,102.9,3077,102.9,3078.1z M107.3,3077.1c0.1,0.3,0.2,0.6,0.2,0.9c0,0.3-0.1,0.6-0.1,0.9h2.5v-1.8H107.3z"/>
		<path d="M121.9,3079.9v0.5h-9.2v-0.5H121.9z M121.1,3079c-1.4-0.2-3.2-1.1-3.8-2.3c-0.6,1.3-2.4,2.1-3.8,2.3l-0.2-0.5
			c1.6-0.2,3.7-1.3,3.7-2.7v-0.6h0.6v0.6c0,1.4,2.2,2.5,3.7,2.7L121.1,3079z M120.1,3081.2h0.6v3.9h-6.8v-3.9h0.6v1.4h5.6V3081.2z
			 M120.1,3083.1h-5.6v1.5h5.6V3083.1z"/>
		<path d="M124.8,3082.1c1.6,0,3.2-0.1,4.9-0.5l0.1,0.5c-1.8,0.4-3.4,0.5-5,0.5H124v-6.5h0.6v6H124.8z M131.6,3075.1v10.2h-0.6
			v-10.2H131.6z"/>
		<path d="M135.1,3082.2c2,0,3.3-0.1,4.8-0.4l0.1,0.5c-1.6,0.3-2.9,0.4-4.9,0.4h-0.8v-6.6h4.7v0.5h-4.1v5.6H135.1z M143.4,3079.8
			h-1.8v5.5H141v-10.2h0.6v4.2h1.8V3079.8z"/>
		<path d="M144.6,3084c0-0.4,0.3-0.6,0.6-0.6c0.3,0,0.6,0.2,0.6,0.6c0,0.4-0.3,0.6-0.6,0.6C144.9,3084.7,144.6,3084.4,144.6,3084z"
			/>
	</g>
	<g class="st0">
		<path d="M62.3,2980.8h1.2v10.1h-1.2v-5.2h-1.2c-0.1,2.1-1,3.4-2.3,3.4c-1.4,0-2.3-1.5-2.3-3.9c0-2.4,0.9-3.8,2.3-3.8
			c1.3,0,2.2,1.2,2.3,3.3h1.2V2980.8z M60,2985.3c0-1.7-0.5-2.7-1.2-2.7s-1.2,1-1.2,2.7c0,1.7,0.5,2.7,1.2,2.7S60,2987,60,2985.3z
			 M65.7,2980.6v10.8h-1.2v-10.8H65.7z"/>
		<path d="M69.3,2987.8c1.5,0,3-0.1,4.5-0.4l0.1,1c-1.7,0.3-3.3,0.4-5,0.4H68v-7.1h1.2V2987.8z M76.4,2980.6v10.9h-1.2v-6.4h-3.1v-1
			h3.1v-3.5H76.4z"/>
		<path d="M82.5,2983.7c0,1.8,1.1,3.7,2.8,4.4l-0.7,1c-1.3-0.6-2.2-1.7-2.7-3.1c-0.5,1.5-1.5,2.8-2.7,3.4l-0.7-1
			c1.7-0.8,2.8-2.8,2.8-4.7v-1h-2.4v-1h6.1v1h-2.4V2983.7z M87.4,2980.6v10.8h-1.2v-10.8H87.4z"/>
		<path d="M102,2989.3v1h-9.8v-1h2.5v-1.9c-0.8-0.3-1.2-0.9-1.2-1.6c0-1.3,1.4-2.1,3.6-2.1s3.6,0.8,3.6,2.1c0,0.7-0.4,1.3-1.2,1.6
			v1.9H102z M101.5,2983.1h-8.9v-1h3.8v-1.3h1.2v1.3h3.8V2983.1z M94.8,2985.7c0,0.7,0.9,1.1,2.3,1.1c1.5,0,2.4-0.4,2.4-1.1
			c0-0.7-0.9-1.1-2.4-1.1C95.6,2984.6,94.8,2985,94.8,2985.7z M95.9,2989.3h2.4v-1.6c-0.4,0.1-0.8,0.1-1.2,0.1c-0.4,0-0.8,0-1.2-0.1
			V2989.3z"/>
		<path d="M110.5,2986v0.9h1.4v2.6h-6.2v0.9h6.5v0.9h-7.7v-2.7h6.2v-0.8h-6.2v-0.9h1.4v-0.9h-2.6v-1h9.8v1H110.5z M104.3,2982.6
			c0-1.2,1.4-1.9,3.9-1.9c2.4,0,3.9,0.7,3.9,1.9s-1.4,1.9-3.9,1.9C105.7,2984.4,104.3,2983.8,104.3,2982.6z M105.6,2982.6
			c0,0.6,0.9,0.9,2.6,0.9s2.6-0.3,2.6-0.9s-0.9-0.9-2.6-0.9S105.6,2982,105.6,2982.6z M109.2,2986h-2.2v0.9h2.2V2986z"/>
		<path d="M120.1,2986.5c-1.2-0.4-2-1.2-2.5-2.3c-0.5,1.2-1.4,2.1-2.7,2.6l-0.6-1c1.7-0.6,2.7-2.1,2.7-3.6v-1.1h1.2v1
			c0,1.5,0.9,2.9,2.5,3.4L120.1,2986.5z M123.3,2989.4c0,1.3-1.4,2.1-3.7,2.1c-2.3,0-3.6-0.8-3.6-2.1s1.4-2.1,3.6-2.1
			C121.9,2987.3,123.3,2988,123.3,2989.4z M122.1,2989.4c0-0.7-0.9-1.1-2.4-1.1s-2.4,0.4-2.4,1.1s0.9,1.1,2.4,1.1
			S122.1,2990.1,122.1,2989.4z M122,2983.8h-2.2v-1h2.2v-2.2h1.2v6.4H122V2983.8z"/>
		<path d="M137.8,2985.7v1H128v-1H137.8z M128.5,2984.2c2-0.2,3.4-1.1,3.6-2.1H129v-1h8v1h-3.2c0.2,1,1.6,1.8,3.6,2.1l-0.4,1
			c-1.9-0.2-3.4-1-4-2.1c-0.6,1.1-2.1,1.9-4,2.1L128.5,2984.2z M136.7,2989.5c0,1.3-1.4,2-3.7,2c-2.3,0-3.7-0.7-3.7-2
			c0-1.3,1.4-2,3.7-2C135.2,2987.5,136.7,2988.2,136.7,2989.5z M135.4,2989.5c0-0.7-0.9-1-2.5-1s-2.5,0.3-2.5,1c0,0.7,0.9,1,2.5,1
			S135.4,2990.1,135.4,2989.5z"/>
		<path d="M140.7,2987.8c1.2,0,2.2-0.1,3.3-0.3l0.1,1c-1.3,0.3-2.4,0.3-3.9,0.3h-0.7v-7h4v1h-2.8V2987.8z M148.3,2980.6v10.8h-1.2
			v-5.5h-1.3v5h-1.2v-10.1h1.2v4.1h1.3v-4.3H148.3z"/>
	</g>
	<path id="패스_4994-3" class="st4" d="M171.8,2966.3H33"/>
	<g id="사각형_533" transform="translate(20 3122.506)">
		<rect y="0" class="st2" width="165" height="196"/>
		<rect x="0.5" y="0.5" class="st3" width="164" height="195"/>
	</g>
	<g class="st0">
		<path class="st1" d="M98.1,3144.5c-2.6,0.4-5.6,0.5-7.8,0.5l-0.2-1.2c0.8,0,1.6,0,2.5,0v-2.4h1.4v2.4c1.3-0.1,2.7-0.1,3.9-0.3
			L98.1,3144.5z M95.5,3142.7c0.2-1.2,0.3-2.1,0.3-2.9h-4.9v-1.2h6.3v0.8c0,0.8,0,1.9-0.3,3.4L95.5,3142.7z M100.3,3148.2
			c0,1.5-1.6,2.3-4.3,2.3c-2.6,0-4.3-0.9-4.3-2.3s1.6-2.3,4.3-2.3C98.7,3145.9,100.3,3146.8,100.3,3148.2z M98.8,3148.2
			c0-0.8-1-1.2-2.8-1.2c-1.8,0-2.8,0.4-2.8,1.2c0,0.8,1,1.2,2.8,1.2C97.8,3149.4,98.8,3149,98.8,3148.2z M101.9,3141.2v1.2h-1.7v3.3
			h-1.5v-7.8h1.5v3.3H101.9z"/>
		<path class="st1" d="M106.6,3144.7c-1.9,0-3.4-1.2-3.4-3s1.4-3,3.4-3c1.9,0,3.4,1.2,3.4,3S108.6,3144.7,106.6,3144.7z
			 M106.6,3143.5c1.1,0,2-0.7,2-1.8c0-1.1-0.8-1.8-2-1.8c-1.1,0-1.9,0.7-1.9,1.8C104.7,3142.8,105.5,3143.5,106.6,3143.5z
			 M113.1,3148.2c0,1.5-1.6,2.4-4.2,2.4c-2.6,0-4.2-0.9-4.2-2.4c0-1.5,1.6-2.4,4.2-2.4C111.5,3145.7,113.1,3146.6,113.1,3148.2z
			 M111.7,3148.2c0-0.8-1-1.3-2.8-1.3c-1.8,0-2.8,0.4-2.8,1.3c0,0.8,1,1.3,2.8,1.3C110.7,3149.4,111.7,3149,111.7,3148.2z
			 M113,3140.8v1.5h1.8v1.2H113v1.8h-1.4v-7.5h1.4v1.7h1.8v1.2H113z"/>
	</g>
	<g class="st0">
		<path d="M54.1,3219.2c0,2.8-1.1,5.6-4.7,7.3l-0.4-0.5c2-1,3.2-2.3,3.9-3.8l-3.7,0.4l-0.1-0.6l4.1-0.3c0.2-0.6,0.3-1.3,0.4-2h-3.9
			v-0.5H54.1z M58.4,3222.9h-1.8v5.4h-0.6v-10.2h0.6v4.3h1.8V3222.9z"/>
		<path d="M68.7,3223.8v0.5h-9.2v-0.5h4.3v-1.2h-3.1v-4h0.6v1.5h5.5v-1.5h0.6v4h-3.1v1.2H68.7z M61.3,3227.5h6.4v0.5h-7v-2.8h0.6
			V3227.5z M61.3,3222h5.5v-1.6h-5.5V3222z"/>
		<path d="M79.2,3223v0.5H70v-0.5h4v-2.1h0.6v2.1H79.2z M78.1,3226.4c0,1.2-1.4,1.8-3.5,1.8c-2.2,0-3.5-0.7-3.5-1.8s1.4-1.9,3.5-1.9
			C76.7,3224.6,78.1,3225.3,78.1,3226.4z M77.4,3219.2h-6.3v-0.5H78v0.9c0,0.8,0,1.6-0.3,2.7l-0.6-0.1c0.3-1,0.3-1.8,0.3-2.6V3219.2
			z M77.5,3226.4c0-0.8-1.2-1.4-2.9-1.4c-1.7,0-2.9,0.5-2.9,1.4c0,0.8,1.2,1.3,2.9,1.3C76.3,3227.8,77.5,3227.3,77.5,3226.4z"/>
		<path d="M86,3223.7c-1.2-0.4-2.1-1.3-2.5-2.4c-0.4,1.3-1.4,2.2-2.6,2.7l-0.3-0.5c1.4-0.5,2.6-1.8,2.6-3.4v-0.7h-2.4v-0.5h5.4v0.5
			h-2.4v0.7c0,1.4,1.2,2.6,2.6,3.1L86,3223.7z M88.5,3226.5c0,1.2-1.3,1.8-3.3,1.8s-3.3-0.7-3.3-1.8s1.2-1.8,3.3-1.8
			S88.5,3225.3,88.5,3226.5z M87.9,3226.5c0-0.8-1.1-1.3-2.7-1.3c-1.6,0-2.7,0.5-2.7,1.3s1.1,1.3,2.7,1.3
			C86.8,3227.8,87.9,3227.3,87.9,3226.5z M90,3220.8v0.5h-1.6v2.9h-0.6v-6.2h0.6v2.7H90z"/>
		<path d="M97.1,3218.3h0.6v9.4h-0.6v-5.1h-1.6c-0.1,2-0.9,3.2-2.2,3.2c-1.3,0-2.2-1.3-2.2-3.5s0.9-3.5,2.2-3.5
			c1.3,0,2.1,1.2,2.2,3.2h1.6V3218.3z M94.9,3222.5c0-1.7-0.6-2.9-1.6-2.9c-0.9,0-1.6,1.2-1.6,2.9c0,1.7,0.6,2.9,1.6,2.9
			C94.3,3225.4,94.9,3224.2,94.9,3222.5z M99.7,3218.1v10.2h-0.6v-10.2H99.7z"/>
		<path d="M105,3221.1c0,1.8,1.4,3.7,2.8,4.3l-0.4,0.5c-1.1-0.6-2.3-1.9-2.7-3.5c-0.4,1.6-1.5,3-2.7,3.7l-0.4-0.5
			c1.3-0.7,2.7-2.7,2.7-4.5v-2h0.6V3221.1z M109.9,3218.1v10.2h-0.6v-6.1h-2.6v-0.5h2.6v-3.6H109.9z"/>
		<path d="M119.7,3222.9h-4.6v-4.5h0.6v1.6h3.4v-1.6h0.6V3222.9z M119.1,3220.6h-3.4v1.8h3.4V3220.6z M116.8,3227.7h6.1v0.5h-6.7
			v-2.4h5.7v-1.3h-5.7v-0.5h6.3v2.3h-5.7V3227.7z M124.1,3220.4v0.5h-1.6v2.5h-0.6v-5.3h0.6v2.3H124.1z"/>
		<path d="M129.9,3223.5c-1-0.4-1.8-1.2-2.2-2.2c-0.4,1-1.2,2-2.2,2.4l-0.3-0.5c1.3-0.6,2.2-1.9,2.2-3.1v-1.5h0.6v1.5
			c0,1.2,0.9,2.3,2.2,2.8L129.9,3223.5z M133.8,3226.5c0,1.1-1.3,1.8-3.3,1.8s-3.3-0.6-3.3-1.8s1.3-1.8,3.3-1.8
			S133.8,3225.4,133.8,3226.5z M133.2,3226.5c0-0.8-1.1-1.3-2.8-1.3c-1.7,0-2.7,0.5-2.7,1.3c0,0.8,1.1,1.3,2.7,1.3
			C132.1,3227.8,133.2,3227.3,133.2,3226.5z M131.5,3224.1h-0.6v-5.8h0.6v2.7h1.6v-2.9h0.6v6.3h-0.6v-2.9h-1.6V3224.1z"/>
		<path d="M139.4,3225.4c1.1,0,2.2-0.1,3.2-0.2l0,0.4c-2.2,0.3-4.8,0.4-6.7,0.4l-0.1-0.5c0.9,0,2,0,3,0v-2.2h-2.2v-4.1h5.1v0.5h-4.5
			v3h4.6v0.5h-2.4V3225.4z M143.9,3218.1v10.2h-0.6v-10.2H143.9z"/>
		<path d="M155.5,3223.4v0.5h-9.3v-0.5H155.5z M148.1,3227.5h6.4v0.5h-7v-3h0.6V3227.5z M154.4,3221.9h-6.9v-3.4h0.6v2.9h6.3V3221.9
			z"/>
	</g>
	<g class="st0">
		<path d="M35.5,3237.1h0.6v6.6h-3.8v-6.6h0.6v2.6h2.7V3237.1z M35.5,3240.2h-2.7v2.9h2.7V3240.2z M40.5,3236.1v10.2h-0.6v-5.6h-1.7
			v5h-0.6v-9.4h0.6v3.9h1.7v-4.1H40.5z"/>
		<path d="M47.3,3241.2v1.1h3.1v2.1h-6.2v1.2h6.6v0.5h-7.2v-2.2h6.2v-1.1h-6.3v-0.5h3.2v-1.1h-4.3v-0.5h9.2v0.5H47.3z M43,3239.7
			c1.7-0.2,3.7-0.8,3.7-2.2h-3.3v-0.5h3.3v-1h0.6v1h3.3v0.5h-3.3c0.1,1.3,2.1,2,3.7,2.2l-0.2,0.5c-1.6-0.2-3.3-0.7-3.9-1.9
			c-0.6,1.1-2.3,1.7-3.9,1.9L43,3239.7z"/>
		<path d="M58.1,3237.2c0,2.8-1.4,5.4-4.7,7l-0.3-0.5c2.8-1.4,4.3-3.6,4.4-6h-4v-0.5H58.1z M62.5,3240.9h-1.8v5.4h-0.6v-10.2h0.6
			v4.3h1.8V3240.9z"/>
		<path d="M72.7,3244.3v0.5h-9.3v-0.5H72.7z M71.9,3241.9c-1.3-0.3-3.2-1.5-3.8-3.1c-0.6,1.6-2.5,2.7-3.8,3.1l-0.3-0.5
			c1.5-0.3,3.8-1.8,3.8-3.7v-0.8h0.6v0.8c0,1.9,2.4,3.4,3.8,3.7L71.9,3241.9z"/>
		<path d="M80.2,3237.1h0.6v6.6h-3.8v-6.6h0.6v2.6h2.7V3237.1z M80.2,3240.2h-2.7v2.9h2.7V3240.2z M85.1,3236.1v10.2h-0.6v-5.6h-1.7
			v5h-0.6v-9.4h0.6v3.9h1.7v-4.1H85.1z"/>
		<path d="M93.6,3241.6c-2.1,0.3-4.6,0.4-6.4,0.4l-0.1-0.5c0.7,0,1.5,0,2.3,0v-2.3H90v2.3c1.2,0,2.4-0.1,3.5-0.3L93.6,3241.6z
			 M91.7,3240.4c0.3-1.4,0.3-2.3,0.3-2.9h-4.4v-0.5h5v0.5c0,0.6,0,1.7-0.3,3L91.7,3240.4z M89.3,3245.5h6v0.5h-6.6v-3h0.6V3245.5z
			 M96.5,3239.5v0.5h-1.6v3.8h-0.6v-7.7h0.6v3.4H96.5z"/>
		<path d="M103.6,3236.3h0.6v9.4h-0.6v-5.1h-1.6c-0.1,2-0.9,3.2-2.2,3.2c-1.3,0-2.2-1.3-2.2-3.5s0.9-3.5,2.2-3.5
			c1.3,0,2.1,1.2,2.2,3.2h1.6V3236.3z M101.5,3240.5c0-1.7-0.6-2.9-1.6-2.9c-0.9,0-1.6,1.2-1.6,2.9c0,1.7,0.6,2.9,1.6,2.9
			C100.8,3243.4,101.5,3242.2,101.5,3240.5z M106.2,3236.1v10.2h-0.6v-10.2H106.2z"/>
		<path d="M114.4,3243c0.4,0,0.9-0.1,1.2-0.1l0,0.5c-1.6,0.3-3.8,0.3-5.1,0.3l-0.1-0.5c0.4,0,0.8,0,1.2,0v-5.1h-1v-0.5h4.7v0.5h-1
			V3243z M112.3,3243.1c0.5,0,1.1,0,1.6-0.1v-5.1h-1.6V3243.1z M116.7,3236.4h0.6v9.4h-0.6v-3.9h-1.6v-0.5h1.6v-1.7h-1.6v-0.5h1.6
			V3236.4z M119.3,3236.1v10.2h-0.6v-10.2H119.3z"/>
		<path d="M126.1,3240.1c-0.4,0.6-1.2,1-2.2,1c-1.5,0-2.6-0.9-2.6-2.3s1.1-2.3,2.6-2.3c0.9,0,1.7,0.4,2.2,1h2.8v-1.4h0.6v5.3h-0.6
			v-1.3H126.1z M123.9,3240.6c1.2,0,2-0.8,2-1.8c0-1-0.9-1.8-2-1.8s-2,0.8-2,1.8C121.9,3239.8,122.8,3240.6,123.9,3240.6z
			 M129.9,3245.6v0.5H123v-2.4h5.8v-1.3H123v-0.5h6.5v2.3h-5.8v1.4H129.9z M126.4,3237.9c0.1,0.3,0.1,0.5,0.1,0.8
			c0,0.3,0,0.6-0.1,0.8h2.5v-1.6H126.4z"/>
		<path d="M141,3244.4v0.5h-9.3v-0.5h4.3v-2.4h-3.2v-5.2h0.6v2h5.7v-2h0.6v5.2h-3.2v2.4H141z M133.5,3241.5h5.7v-2.2h-5.7V3241.5z"
			/>
		<path d="M145.1,3241c-1.5,0-2.6-0.9-2.6-2.2c0-1.3,1.1-2.2,2.6-2.2s2.6,0.9,2.6,2.2C147.7,3240.1,146.6,3241,145.1,3241z
			 M145.1,3240.4c1.1,0,2-0.7,2-1.7c0-1-0.8-1.7-2-1.7s-2,0.7-2,1.7C143.1,3239.7,144,3240.4,145.1,3240.4z M150.9,3245.6v0.5h-6.9
			v-2.4h5.9v-1.3H144v-0.5h6.5v2.3h-5.9v1.4H150.9z M150.5,3241.4h-0.6v-5.3h0.6V3241.4z"/>
		<path d="M153.9,3243.3c1.9,0,3.2-0.1,4.7-0.4l0.1,0.5c-1.6,0.3-2.8,0.4-4.7,0.4h-0.7v-3.8h3.9v-2.4h-3.9v-0.5h4.5v3.4h-3.9v2.8
			H153.9z M161.1,3236.1v10.2h-0.6v-5.6h-2.2v-0.5h2.2v-4.1H161.1z"/>
		<path d="M172.6,3240.9v0.5h-9.3v-0.5H172.6z M165,3245.7h6.7v0.5h-7.3v-2.1h6.3v-1.1h-6.4v-0.5h6.9v2H165V3245.7z M170.7,3236.9
			h-6.2v-0.5h6.8v2h-6.2v1.1h6.4v0.5h-7v-2h6.2V3236.9z"/>
	</g>
	<g class="st0">
		<path d="M54.5,3259.1c-1.1-0.4-2.1-1.3-2.6-2.4c-0.4,1.2-1.4,2.2-2.6,2.7l-0.3-0.5c1.4-0.5,2.6-1.8,2.6-3.4v-1.1h0.6v1.1
			c0,1.4,1.2,2.7,2.6,3.2L54.5,3259.1z M57.7,3263.6v0.5h-6.9v-2.4h5.8v-1.3h-5.9v-0.5h6.5v2.3h-5.8v1.4H57.7z M56.6,3256.7h-2.4
			v-0.5h2.4v-2.1h0.6v5.3h-0.6V3256.7z"/>
		<path d="M63.1,3257.5c0,1.9,1.4,3.5,2.8,4.1l-0.4,0.5c-1.2-0.6-2.3-1.7-2.7-3.2c-0.4,1.5-1.5,2.8-2.7,3.4l-0.4-0.5
			c1.4-0.7,2.8-2.4,2.8-4.3v-1H60v-0.5h2.5v-1.7h0.6v1.7h2.5v0.5h-2.5V3257.5z M67.7,3254.1v10.2h-0.6v-10.2H67.7z"/>
		<path d="M73.3,3255.8H76v0.5h-6.1v-0.5h2.8v-1.6h0.6V3255.8z M75.4,3259.6c0,1.4-1,2.3-2.4,2.3c-1.4,0-2.4-0.9-2.4-2.3
			c0-1.3,1-2.3,2.4-2.3C74.4,3257.3,75.4,3258.3,75.4,3259.6z M74.9,3259.6c0-1-0.8-1.8-1.9-1.8c-1.1,0-1.9,0.8-1.9,1.8
			c0,1,0.8,1.8,1.9,1.8C74.1,3261.4,74.9,3260.6,74.9,3259.6z M79.5,3258.9h-1.8v5.4h-0.6v-10.2h0.6v4.3h1.8V3258.9z"/>
		<path d="M88.8,3254.1v10.2h-0.6v-4h-2.9c-0.4,1-1.2,1.7-2.2,1.7c-1.5,0-2.5-1.4-2.5-3.5c0-2.1,1-3.5,2.5-3.5c1,0,1.7,0.6,2.1,1.6
			h2.9v-2.4H88.8z M85.1,3258.4c0-1.7-0.8-3-1.9-3s-1.9,1.2-1.9,3c0,1.7,0.8,3,1.9,3S85.1,3260.2,85.1,3258.4z M88.2,3259.8v-2.8
			h-2.7c0.1,0.4,0.2,0.9,0.2,1.4c0,0.5-0.1,0.9-0.1,1.3H88.2z"/>
		<path d="M102.8,3262.3v0.5h-9.3v-0.5H102.8z M102,3259.9c-1.3-0.3-3.2-1.5-3.8-3.1c-0.6,1.6-2.5,2.7-3.8,3.1l-0.3-0.5
			c1.5-0.3,3.8-1.8,3.8-3.7v-0.8h0.6v0.8c0,1.9,2.4,3.4,3.8,3.7L102,3259.9z"/>
		<path d="M110.5,3259.2c-1.5,0.3-2.7,0.3-5,0.3h-0.8v-4.8h4.8v0.5h-4.2v1.6h4v0.5h-4v1.7h0.2c2.3,0,3.5-0.1,4.9-0.3L110.5,3259.2z
			 M105.9,3260.8h6.5v3.4h-6.5V3260.8z M106.5,3263.6h5.3v-2.4h-5.3V3263.6z M112.4,3254.1v6.1h-0.6v-6.1H112.4z"/>
		<path d="M119.4,3259.5c-1-0.4-1.8-1.2-2.2-2.2c-0.4,1-1.2,2-2.2,2.4l-0.3-0.5c1.3-0.6,2.2-1.9,2.2-3.1v-1.5h0.6v1.5
			c0,1.2,0.9,2.3,2.2,2.8L119.4,3259.5z M123.2,3262.5c0,1.1-1.3,1.8-3.3,1.8s-3.3-0.6-3.3-1.8s1.3-1.8,3.3-1.8
			S123.2,3261.4,123.2,3262.5z M122.6,3262.5c0-0.8-1.1-1.3-2.8-1.3c-1.7,0-2.7,0.5-2.7,1.3c0,0.8,1.1,1.3,2.7,1.3
			C121.6,3263.8,122.6,3263.3,122.6,3262.5z M121,3260.1h-0.6v-5.8h0.6v2.7h1.6v-2.9h0.6v6.3h-0.6v-2.9H121V3260.1z"/>
		<path d="M130.7,3259.9c-1.2-0.4-2.2-1.4-2.6-2.5c-0.4,1.3-1.4,2.3-2.6,2.8l-0.3-0.5c1.4-0.6,2.6-1.9,2.6-3.6v-1.3h0.6v1.4
			c0,1.5,1.2,2.8,2.6,3.3L130.7,3259.9z M127.4,3263.5h6.1v0.5h-6.7v-3.1h0.6V3263.5z M134.6,3257.3v0.5H133v3.8h-0.6v-7.6h0.6v3.2
			H134.6z"/>
		<path d="M141.9,3259.2c-1.7,0.3-3.1,0.3-4.9,0.3h-0.8v-2.7h3.9v-1.6h-4v-0.5h4.6v2.6h-3.9v1.7h0.2c1.8,0,3.1-0.1,4.8-0.4
			L141.9,3259.2z M143.6,3262.5c0,1.2-1.2,1.8-3.3,1.8c-2,0-3.3-0.7-3.3-1.8c0-1.2,1.3-1.8,3.3-1.8
			C142.4,3260.7,143.6,3261.3,143.6,3262.5z M143,3262.5c0-0.8-1.1-1.3-2.7-1.3c-1.6,0-2.7,0.5-2.7,1.3c0,0.8,1.1,1.3,2.7,1.3
			C142,3263.8,143,3263.3,143,3262.5z M143.6,3256.3v1.6h1.6v0.5h-1.6v1.8h-0.6v-6.2h0.6v1.7h1.6v0.5H143.6z"/>
		<path d="M155.4,3258.7v0.5h-9.2v-0.5H155.4z M147.3,3256.1c0-1.2,1.3-1.8,3.5-1.8c2.2,0,3.5,0.6,3.5,1.8c0,1.2-1.3,1.8-3.5,1.8
			C148.6,3257.9,147.3,3257.2,147.3,3256.1z M148,3263.7h6.6v0.5h-7.2v-2.3h6.2v-1.1h-6.3v-0.5h6.9v2.1H148V3263.7z M147.9,3256.1
			c0,0.8,1.1,1.3,2.9,1.3c1.8,0,2.9-0.5,2.9-1.3c0-0.8-1.1-1.3-2.9-1.3C149.1,3254.8,147.9,3255.3,147.9,3256.1z"/>
	</g>
	<g class="st0">
		<path d="M45,3277v0.5h-9.2v-0.5H45z M36.3,3275.8c1.6-0.2,3.7-1.1,3.7-2.5v-0.1h-3.4v-0.5h7.5v0.5h-3.4v0.1c0,1.4,2.1,2.3,3.7,2.5
			l-0.2,0.5c-1.5-0.2-3.3-1-3.8-2.2c-0.6,1.2-2.3,2-3.8,2.2L36.3,3275.8z M43.8,3280.5c0,1.2-1.3,1.8-3.5,1.8
			c-2.2,0-3.5-0.6-3.5-1.8s1.3-1.8,3.5-1.8C42.5,3278.6,43.8,3279.3,43.8,3280.5z M43.2,3280.5c0-0.8-1.1-1.3-2.9-1.3
			c-1.8,0-2.9,0.5-2.9,1.3s1.1,1.3,2.9,1.3C42.1,3281.8,43.2,3281.3,43.2,3280.5z"/>
		<path d="M51.4,3273.2c0,2.8-1.4,5.4-4.7,7l-0.3-0.5c2.8-1.4,4.3-3.6,4.4-6h-4v-0.5H51.4z M55.8,3276.9H54v5.4h-0.6v-10.2H54v4.3
			h1.8V3276.9z"/>
		<path d="M60.2,3275.1c0,1.9,1.5,3.7,2.8,4.4l-0.4,0.5c-1.1-0.6-2.3-1.9-2.7-3.4c-0.5,1.6-1.6,3-2.8,3.6l-0.4-0.5
			c1.3-0.7,2.8-2.6,2.8-4.5v-2h0.6V3275.1z M65.1,3272.1v10.2h-0.6v-10.2H65.1z"/>
		<path d="M72.7,3273.2c0,2.9-1.2,5.6-4.7,7.4l-0.3-0.5c2-1,3.2-2.3,3.9-3.8l-3.8,0.4l-0.1-0.6l4.1-0.3c0.2-0.7,0.4-1.3,0.4-2h-4
			v-0.5H72.7z M75.6,3272.1v10.2H75v-10.2H75.6z"/>
		<path d="M87.1,3280.2v0.5h-9.2v-0.5h3.8v-3.7h0.6v3.7H87.1z M85.3,3273.7h-6.4v-0.5h7v1c0,1.2,0,2.6-0.4,4.6l-0.6-0.1
			c0.4-1.9,0.4-3.3,0.4-4.5V3273.7z"/>
		<path d="M88.4,3283.1c0.6-0.3,1-0.9,1-1.5c0,0-0.1,0-0.1,0c-0.3,0-0.6-0.2-0.6-0.6c0-0.4,0.3-0.6,0.6-0.6c0.4,0,0.7,0.4,0.7,1
			c0,1-0.6,1.7-1.4,2.1L88.4,3283.1z"/>
		<path d="M103,3278.8h-4.3v3.5H98v-3.5h-4.3v-0.5h9.2V3278.8z M94.4,3276.9c1.6-0.2,3.7-1.3,3.7-2.8v-0.1h-3.4v-0.5H98v-1.3h0.6
			v1.3h3.4v0.5h-3.4v0.1c0,1.5,2.1,2.6,3.7,2.8l-0.2,0.5c-1.4-0.3-3.1-1.1-3.7-2.3c-0.6,1.2-2.3,2.1-3.8,2.3L94.4,3276.9z"/>
		<path d="M109.4,3273.2c0,2.8-1.4,5.4-4.7,7l-0.3-0.5c2.8-1.4,4.3-3.6,4.4-6h-4v-0.5H109.4z M113.8,3276.9H112v5.4h-0.6v-10.2h0.6
			v4.3h1.8V3276.9z"/>
		<path d="M119.9,3276.9h-4.6v-4.5h0.6v1.6h3.4v-1.6h0.6V3276.9z M119.3,3274.6h-3.4v1.8h3.4V3274.6z M117,3281.7h6.1v0.5h-6.7v-2.4
			h5.7v-1.3h-5.7v-0.5h6.3v2.3H117V3281.7z M124.3,3274.4v0.5h-1.6v2.5h-0.6v-5.3h0.6v2.3H124.3z"/>
		<path d="M131,3277.9c-1.2-0.4-2.1-1.4-2.6-2.5c-0.4,1.3-1.5,2.3-2.7,2.8l-0.3-0.5c1.4-0.5,2.7-1.9,2.7-3.4v-0.7h-2.4v-0.5h5.4v0.5
			h-2.4v0.7c0,1.4,1.2,2.7,2.6,3.2L131,3277.9z M134,3281.5v0.5h-6.7v-3.1h0.6v2.6H134z M133,3275v-2.9h0.6v7.5H133v-4.1h-2.3v-0.5
			H133z"/>
		<path d="M145.1,3276.7v0.5h-9.2v-0.5H145.1z M137,3274.1c0-1.2,1.3-1.8,3.5-1.8c2.2,0,3.5,0.6,3.5,1.8c0,1.2-1.3,1.8-3.5,1.8
			C138.3,3275.9,137,3275.2,137,3274.1z M137.6,3281.7h6.6v0.5H137v-2.3h6.2v-1.1H137v-0.5h6.9v2.1h-6.2V3281.7z M137.6,3274.1
			c0,0.8,1.1,1.3,2.9,1.3c1.8,0,2.9-0.5,2.9-1.3c0-0.8-1.1-1.3-2.9-1.3C138.7,3272.8,137.6,3273.3,137.6,3274.1z"/>
		<path d="M158.1,3277.6v0.5h-9.2v-0.5h4.3v-1.2h-3v-3.9h6.8v0.5h-6.2v1.2h5.9v0.5h-5.9v1.3h6.2v0.5h-3.2v1.2H158.1z M157,3280.7
			c0,1.1-1.3,1.6-3.5,1.6c-2.2,0-3.5-0.6-3.5-1.6c0-1,1.3-1.6,3.5-1.6C155.7,3279.1,157,3279.6,157,3280.7z M156.4,3280.7
			c0-0.7-1.1-1.1-2.9-1.1c-1.8,0-2.9,0.4-2.9,1.1c0,0.7,1.1,1.1,2.9,1.1C155.3,3281.8,156.4,3281.4,156.4,3280.7z"/>
		<path d="M162.3,3274h2.3v0.5h-5.2v-0.5h2.3v-1.6h0.6V3274z M164.2,3277.6c0,1.3-0.9,2.3-2.2,2.3c-1.2,0-2.2-0.9-2.2-2.3
			c0-1.3,0.9-2.3,2.2-2.3C163.3,3275.3,164.2,3276.2,164.2,3277.6z M163.6,3277.6c0-1-0.7-1.8-1.6-1.8c-0.9,0-1.6,0.8-1.6,1.8
			c0,1,0.7,1.7,1.6,1.7C162.9,3279.3,163.6,3278.6,163.6,3277.6z M168,3272.1v10.2h-0.6v-5.3h-1.6v4.8h-0.6v-9.4h0.6v4.1h1.6v-4.4
			H168z"/>
	</g>
	<g class="st0">
		<path d="M41.8,3290.3h0.6v9.4h-0.6v-5.1h-1.6c-0.1,2-0.9,3.2-2.2,3.2c-1.3,0-2.2-1.3-2.2-3.5s0.9-3.5,2.2-3.5
			c1.3,0,2.1,1.2,2.2,3.2h1.6V3290.3z M39.6,3294.5c0-1.7-0.6-2.9-1.6-2.9c-0.9,0-1.6,1.2-1.6,2.9c0,1.7,0.6,2.9,1.6,2.9
			C39,3297.4,39.6,3296.2,39.6,3294.5z M44.4,3290.1v10.2h-0.6v-10.2H44.4z"/>
		<path d="M47.6,3297.3c1.7,0,3-0.1,4.6-0.4l0.1,0.5c-1.6,0.3-3,0.4-4.7,0.4h-0.7v-6.5h0.6v6H47.6z M54.6,3290.1v10.2H54v-6.2h-3.4
			v-0.5H54v-3.5H54.6z"/>
		<path d="M60.2,3293.4c0,1.8,1.5,3.5,2.9,4.2l-0.4,0.5c-1.1-0.6-2.3-1.8-2.8-3.3c-0.4,1.5-1.6,2.9-2.7,3.5l-0.4-0.5
			c1.3-0.7,2.8-2.6,2.8-4.4v-1.7h-2.5v-0.5h5.7v0.5h-2.6V3293.4z M65.1,3290.1v10.2h-0.6v-10.2H65.1z"/>
		<path d="M76.4,3295.4c-2.2,0.4-4.7,0.4-6.5,0.4l-0.1-0.5c0.9,0,1.9,0,2.9,0v-0.8c-1.2-0.1-2-0.6-2-1.3c0-0.9,0.9-1.4,2.3-1.4
			c1.4,0,2.3,0.5,2.3,1.4c0,0.8-0.8,1.3-2,1.3v0.7c1,0,2-0.1,3-0.3L76.4,3295.4z M76,3291.4h-5.9v-0.5h2.7v-1h0.6v1H76V3291.4z
			 M71.8,3299.7h6.2v0.5h-6.8v-2h5.8v-1h-5.9v-0.5h6.5v1.9h-5.8V3299.7z M73,3294.1c1,0,1.7-0.4,1.7-0.9c0-0.6-0.7-0.9-1.7-0.9
			s-1.7,0.4-1.7,0.9C71.3,3293.7,72,3294.1,73,3294.1z M79.3,3292.8v0.5h-1.6v2.8H77v-6h0.6v2.7H79.3z"/>
		<path d="M89.6,3295.3v0.5h-9.2v-0.5h2.4v-1.6c-0.8-0.3-1.3-0.8-1.3-1.5c0-1.2,1.3-1.9,3.5-1.9c2.2,0,3.5,0.7,3.5,1.9
			c0,0.7-0.5,1.2-1.3,1.5v1.6H89.6z M88.5,3298.5c0,1.2-1.3,1.8-3.5,1.8c-2.2,0-3.5-0.6-3.5-1.8s1.3-1.8,3.5-1.8
			C87.2,3296.7,88.5,3297.3,88.5,3298.5z M85,3293.5c1.8,0,2.9-0.5,2.9-1.4s-1.1-1.4-2.9-1.4c-1.8,0-2.9,0.5-2.9,1.4
			S83.2,3293.5,85,3293.5z M87.9,3298.5c0-0.8-1.1-1.3-2.9-1.3c-1.7,0-2.9,0.5-2.9,1.3c0,0.8,1.1,1.3,2.9,1.3
			C86.7,3299.8,87.9,3299.3,87.9,3298.5z M83.4,3295.3h3.2v-1.4c-0.5,0.1-1,0.1-1.6,0.1c-0.6,0-1.1-0.1-1.6-0.1V3295.3z"/>
		<path d="M96.5,3295.6c-1.1-0.4-2.1-1.3-2.5-2.5c-0.4,1.3-1.4,2.3-2.6,2.8l-0.3-0.5c1.5-0.6,2.6-1.9,2.6-3.6v-1.1h0.6v1.1
			c0,1.5,1.2,2.8,2.6,3.3L96.5,3295.6z M99.3,3298.4c0,1.2-1.3,1.9-3.3,1.9c-2.1,0-3.3-0.7-3.3-1.9c0-1.2,1.3-1.9,3.3-1.9
			C98,3296.5,99.3,3297.2,99.3,3298.4z M98.7,3298.4c0-0.9-1.1-1.4-2.8-1.4c-1.7,0-2.7,0.5-2.7,1.4s1.1,1.4,2.7,1.4
			C97.6,3299.8,98.7,3299.2,98.7,3298.4z M98.6,3293h-2.4v-0.5h2.4v-2.4h0.6v6.1h-0.6V3293z"/>
		<path d="M110.7,3294.7v0.5h-9.2v-0.5H110.7z M102.5,3292.1c0-1.2,1.3-1.8,3.5-1.8c2.2,0,3.5,0.6,3.5,1.8c0,1.2-1.3,1.8-3.5,1.8
			C103.8,3293.9,102.5,3293.2,102.5,3292.1z M103.2,3299.7h6.6v0.5h-7.2v-2.3h6.2v-1.1h-6.3v-0.5h6.9v2.1h-6.2V3299.7z
			 M103.1,3292.1c0,0.8,1.1,1.3,2.9,1.3c1.8,0,2.9-0.5,2.9-1.3c0-0.8-1.1-1.3-2.9-1.3C104.3,3290.8,103.1,3291.3,103.1,3292.1z"/>
		<path d="M123.7,3294.9v0.5h-9.2v-0.5h4.3v-1.5h-3v-3.1h0.6v2.6h6.2v0.5h-3.2v1.5H123.7z M121,3299.6h1.7v0.5h-7.3v-0.5h1.8v-2.5
			h-1.7v-0.5h7.1v0.5H121V3299.6z M117.8,3299.6h2.6v-2.5h-2.6V3299.6z"/>
		<path d="M129.9,3294.5c-0.5,0.6-1.2,1-2.1,1c-1.5,0-2.6-1-2.6-2.4c0-1.4,1.1-2.4,2.6-2.4c0.9,0,1.6,0.4,2.1,0.9h2.8v-1.5h0.6v5.9
			h-0.6v-1.5H129.9z M132.1,3297.1c0,1.1,0.9,2.2,2.2,2.6l-0.3,0.5c-1-0.4-1.8-1.2-2.1-2c-0.3,0.8-0.9,1.7-1.9,2.1
			c-1-0.4-1.6-1.2-1.9-2.1c-0.4,0.9-1.1,1.6-2.1,2l-0.3-0.5c1.3-0.5,2.2-1.6,2.2-2.6v-0.8h0.6v0.8c0,1,0.6,2,1.6,2.6
			c1-0.6,1.6-1.8,1.6-2.6v-0.8h0.6V3297.1z M125.8,3293.1c0,1,0.8,1.8,2,1.8c1.2,0,2-0.8,2-1.8c0-1.1-0.8-1.9-2-1.9
			C126.6,3291.2,125.8,3292,125.8,3293.1z M130.2,3292.1c0.1,0.3,0.2,0.6,0.2,0.9c0,0.3-0.1,0.6-0.1,0.9h2.5v-1.8H130.2z"/>
		<path d="M144.8,3294.9v0.5h-9.2v-0.5H144.8z M144,3294c-1.4-0.2-3.2-1.1-3.8-2.3c-0.6,1.3-2.4,2.1-3.8,2.3l-0.2-0.5
			c1.6-0.2,3.7-1.3,3.7-2.7v-0.6h0.6v0.6c0,1.4,2.2,2.5,3.7,2.7L144,3294z M142.9,3296.2h0.6v3.9h-6.8v-3.9h0.6v1.4h5.6V3296.2z
			 M142.9,3298.1h-5.6v1.5h5.6V3298.1z"/>
		<path d="M147.6,3297.1c1.6,0,3.2-0.1,4.9-0.5l0.1,0.5c-1.8,0.4-3.4,0.5-5,0.5h-0.8v-6.5h0.6v6H147.6z M154.3,3290.1v10.2h-0.6
			v-10.2H154.3z"/>
		<path d="M157.8,3297.2c2,0,3.3-0.1,4.8-0.4l0.1,0.5c-1.6,0.3-2.9,0.4-4.9,0.4h-0.8v-6.6h4.7v0.5h-4.1v5.6H157.8z M166.2,3294.8
			h-1.8v5.5h-0.6v-10.2h0.6v4.2h1.8V3294.8z"/>
		<path d="M167.3,3299c0-0.4,0.3-0.6,0.6-0.6s0.6,0.2,0.6,0.6c0,0.4-0.3,0.6-0.6,0.6S167.3,3299.4,167.3,3299z"/>
	</g>
	<g class="st0">
		<path d="M49.3,3184.7c0.4,0,0.7-0.1,1-0.1l0.1,0.9c-1.7,0.3-3.9,0.3-5.3,0.3l-0.1-1c0.3,0,0.6,0,1,0v-5h-0.8v-1h4.9v1h-0.8V3184.7
			z M47.1,3184.8c0.4,0,0.7,0,1.1,0v-4.9h-1.1V3184.8z M51.1,3177.8h1.2v10.1h-1.2v-4h-1.2v-1h1.2v-1.2h-1.2v-1h1.2V3177.8z
			 M54.4,3177.6v10.8h-1.2v-10.8H54.4z"/>
		<path d="M61.3,3182c-0.5,0.6-1.3,0.9-2.2,0.9c-1.6,0-2.8-1-2.8-2.5c0-1.5,1.2-2.5,2.8-2.5c0.9,0,1.7,0.3,2.2,0.9h2.6v-1.2h1.2v5.5
			h-1.2v-1.1H61.3z M59.1,3181.9c0.9,0,1.6-0.6,1.6-1.5c0-0.9-0.7-1.5-1.6-1.5c-1,0-1.7,0.6-1.7,1.5
			C57.5,3181.3,58.2,3181.9,59.1,3181.9z M65.5,3187.3v1h-7.4v-2.8h5.8v-0.9h-5.8v-1h7.1v2.8h-5.8v1H65.5z M61.8,3179.8
			c0.1,0.2,0.1,0.4,0.1,0.6c0,0.2,0,0.4-0.1,0.6h2v-1.3H61.8z"/>
		<path d="M77,3186.1v1h-9.8v-1h4.3v-2.2h-3.2v-5.6h1.2v1.8h5.1v-1.8h1.2v5.6h-3.2v2.2H77z M69.5,3182.9h5.1v-1.8h-5.1V3182.9z"/>
		<path d="M81.3,3182.8c-1.6,0-2.8-1-2.8-2.4s1.2-2.4,2.8-2.4c1.6,0,2.9,1,2.9,2.4S82.9,3182.8,81.3,3182.8z M81.3,3181.8
			c0.9,0,1.7-0.6,1.7-1.4s-0.7-1.4-1.7-1.4c-0.9,0-1.6,0.6-1.6,1.4S80.3,3181.8,81.3,3181.8z M87.5,3187.3v1h-7.4v-2.8h5.9v-0.9
			h-5.9v-1h7.1v2.8h-5.9v1H87.5z M87.2,3183.1h-1.2v-5.5h1.2V3183.1z"/>
		<path d="M90.9,3184.9c1.7,0,3-0.1,4.4-0.3l0.1,1c-1.6,0.3-3,0.3-4.9,0.3h-0.9v-4.4h3.6v-1.9h-3.6v-1h4.9v3.9h-3.6V3184.9z
			 M98.2,3177.6v10.9H97v-5.8h-1.9v-1H97v-4.1H98.2z"/>
		<path d="M108.8,3183c-1.2-0.4-2-1.2-2.5-2.2c-0.5,1.1-1.4,2-2.7,2.4l-0.6-1c1.7-0.6,2.6-1.9,2.6-3.4v-0.9h1.2v0.9
			c0,1.4,0.9,2.6,2.6,3.2L108.8,3183z M112.4,3187.3v1H105v-2.8h5.8v-0.9h-5.8v-1h7.1v2.7h-5.8v0.9H112.4z M110.7,3180.4h-2.2v-1
			h2.2v-1.8h1.2v5.6h-1.2V3180.4z"/>
		<path d="M118.1,3181c0,1.7,1.1,3.5,2.7,4.2l-0.7,1c-1.2-0.5-2.2-1.7-2.7-3c-0.5,1.4-1.4,2.6-2.7,3.2l-0.7-0.9
			c1.7-0.8,2.7-2.6,2.7-4.4v-0.6h-2.4v-1h2.4v-1.6h1.2v1.6h2.4v1h-2.4V3181z M123,3177.6v10.8h-1.2v-10.8H123z"/>
		<path d="M134.9,3182.6v0.9h-9.8v-0.9H134.9z M127.5,3187.5h6.6v0.9h-7.8v-2.5h6.2v-0.8h-6.3v-0.9h7.5v2.4h-6.2V3187.5z
			 M132.4,3178.7h-6.1v-0.9h7.4v2.4h-6.1v0.8h6.3v0.9h-7.5v-2.4h6.1V3178.7z"/>
		<path d="M148.6,3183.3v1h-9.8v-1h4.3v-0.9h-3v-4.5h7.4v0.9h-6.1v0.8h5.9v0.9h-5.9v0.8h6.2v0.9h-3.2v0.9H148.6z M147.4,3186.7
			c0,1.2-1.4,1.8-3.7,1.8c-2.4,0-3.7-0.6-3.7-1.8c0-1.1,1.4-1.7,3.7-1.7C146.1,3184.9,147.4,3185.5,147.4,3186.7z M146.2,3186.7
			c0-0.6-0.9-0.8-2.5-0.8c-1.6,0-2.5,0.3-2.5,0.8c0,0.6,0.9,0.8,2.5,0.8C145.3,3187.5,146.2,3187.2,146.2,3186.7z"/>
		<path d="M156.3,3179.8h-6.4v-1h2.6v-1.2h1.2v1.2h2.6V3179.8z M153.1,3184.4c-1.5,0-2.6-0.8-2.6-2.1c0-1.2,1.1-2.1,2.6-2.1
			c1.6,0,2.6,0.8,2.6,2.1C155.7,3183.6,154.6,3184.4,153.1,3184.4z M152.7,3187.2h6v1h-7.3v-3.1h1.2V3187.2z M153.1,3183.5
			c0.9,0,1.5-0.4,1.5-1.1s-0.6-1.1-1.5-1.1c-0.9,0-1.4,0.4-1.4,1.1S152.2,3183.5,153.1,3183.5z M159.9,3181.1v1h-1.5v3.6h-1.2v-8.1
			h1.2v3.5H159.9z"/>
	</g>
	<g class="st0">
		<path d="M72.8,3204v1H63v-1H72.8z M71.9,3201.9c-1.8-0.4-3.3-1.5-4-3c-0.7,1.5-2.2,2.6-4,3l-0.5-1c2.1-0.4,3.9-2.1,3.9-3.8v-0.8
			h1.3v0.8c0,1.7,1.7,3.4,3.9,3.8L71.9,3201.9z"/>
		<path d="M80.8,3201.2c-1.5,0.3-2.9,0.3-5.2,0.3h-0.9v-5.2h5.2v1h-4v1.1h3.6v1h-3.6v1.2c2.1,0,3.3,0,4.8-0.3L80.8,3201.2z
			 M75.9,3202.6H83v3.7h-7.1V3202.6z M77.1,3205.3h4.7v-1.8h-4.7V3205.3z M83,3195.6v6.5h-1.2v-6.5H83z"/>
		<path d="M89.9,3201.5c-1-0.4-1.6-1.1-2-2c-0.4,1-1.1,1.8-2.1,2.3l-0.6-0.9c1.5-0.7,2.2-2,2.2-3.2v-1.4h1.2v1.4
			c0,1.2,0.7,2.4,2.1,2.9L89.9,3201.5z M94.3,3204.5c0,1.2-1.4,2-3.7,2s-3.7-0.7-3.7-2c0-1.2,1.4-2,3.7-2S94.3,3203.2,94.3,3204.5z
			 M93.1,3204.5c0-0.7-0.9-1-2.4-1c-1.5,0-2.4,0.4-2.4,1c0,0.7,0.9,1,2.4,1C92.2,3205.5,93.1,3205.1,93.1,3204.5z M91.9,3201.9h-1.2
			v-6.1h1.2v2.6h1.1v-2.8h1.2v6.6h-1.2v-2.9h-1.1V3201.9z"/>
		<path d="M101.9,3201.9c-1.2-0.4-2.1-1.3-2.6-2.3c-0.5,1.2-1.4,2.1-2.6,2.6l-0.7-1c1.7-0.6,2.7-2.1,2.7-3.6v-1.3h1.2v1.3
			c0,1.4,0.9,2.8,2.6,3.4L101.9,3201.9z M99,3205.2h6v1h-7.3v-3.4H99V3205.2z M106.1,3198.8v1h-1.5v3.7h-1.2v-8h1.2v3.2H106.1z"/>
		<path d="M113.6,3201.2c-1.6,0.3-3,0.3-5.1,0.3h-0.9v-3.2h3.7v-1.2h-3.7v-1h4.9v3.1h-3.7v1.2c1.9,0,3.2-0.1,4.7-0.3L113.6,3201.2z
			 M115.7,3204.4c0,1.3-1.4,2-3.6,2s-3.6-0.7-3.6-2c0-1.3,1.4-2,3.6-2S115.7,3203.1,115.7,3204.4z M114.5,3204.4
			c0-0.7-0.9-1.1-2.4-1.1c-1.5,0-2.4,0.4-2.4,1.1c0,0.7,0.9,1.1,2.4,1.1C113.7,3205.5,114.5,3205.1,114.5,3204.4z M115.6,3198.2v1.3
			h1.5v1h-1.5v1.7h-1.2v-6.6h1.2v1.6h1.5v1H115.6z"/>
		<path d="M130.7,3200.7v1h-9.8v-1H130.7z M121.4,3199.2c2-0.2,3.4-1.1,3.6-2.1h-3.2v-1h8v1h-3.2c0.2,1,1.6,1.8,3.6,2.1l-0.4,1
			c-1.9-0.2-3.4-1-4-2.1c-0.6,1.1-2.1,1.9-4,2.1L121.4,3199.2z M129.5,3204.5c0,1.3-1.4,2-3.7,2c-2.3,0-3.7-0.7-3.7-2s1.4-2,3.7-2
			C128.1,3202.5,129.5,3203.2,129.5,3204.5z M128.3,3204.5c0-0.7-0.9-1-2.5-1s-2.5,0.3-2.5,1c0,0.7,0.9,1,2.5,1
			S128.3,3205.1,128.3,3204.5z"/>
		<path d="M133.5,3202.8c1.2,0,2.2-0.1,3.3-0.3l0.1,1c-1.3,0.3-2.4,0.3-3.9,0.3h-0.7v-7h4v1h-2.8V3202.8z M141.2,3195.6v10.8H140
			v-5.5h-1.3v5h-1.2v-10.1h1.2v4.1h1.3v-4.3H141.2z"/>
	</g>
	<path id="패스_4994-4" class="st4" d="M171.8,3163.3H33"/>
	<g class="st0">
		<path class="st1" d="M25.4,2898.4c0,2.3,0.9,4.7,3,5.7l-1.1,1.5c-1.3-0.7-2.3-1.9-2.8-3.5c-0.6,1.6-1.5,3-3,3.7l-1.1-1.5
			c2.2-1,3.2-3.5,3.2-5.9v-1.9h1.9V2898.4z M32.6,2902h-1.9v6.4h-1.8v-12.9h1.8v5h1.9V2902z"/>
		<path class="st1" d="M44.3,2895.5v6.9h-1.8v-2.6h-2c-0.4,1.4-1.7,2.4-3.3,2.4c-1.9,0-3.4-1.3-3.4-3.1s1.5-3.1,3.4-3.1
			c1.6,0,3,0.9,3.3,2.3h2.1v-2.8H44.3z M38.7,2899.1c0-1-0.7-1.5-1.6-1.5c-0.9,0-1.6,0.6-1.6,1.5c0,1,0.7,1.5,1.6,1.5
			C38,2900.7,38.7,2900.1,38.7,2899.1z M42.4,2903h1.8v5.3h-8.5v-5.3h1.8v1.2h4.9V2903z M42.4,2905.6h-4.9v1.1h4.9V2905.6z"/>
		<path class="st1" d="M53.2,2902.8c-1.4-0.4-2.4-1.3-3-2.3c-0.6,1.3-1.6,2.3-3.1,2.8l-0.9-1.4c2.1-0.7,3-2.3,3-4h-2.6v-1.5h7v1.5
			h-2.5c0,1.5,0.9,2.9,2.9,3.5L53.2,2902.8z M56.7,2905.9c0,1.6-1.7,2.5-4.4,2.5c-2.7,0-4.4-0.9-4.4-2.5c0-1.6,1.7-2.5,4.4-2.5
			C55,2903.4,56.7,2904.3,56.7,2905.9z M54.8,2905.9c0-0.7-0.9-1.1-2.5-1.1c-1.7,0-2.5,0.3-2.5,1.1c0,0.7,0.9,1.1,2.5,1.1
			C53.9,2907,54.8,2906.6,54.8,2905.9z M58.2,2898.5v1.5h-1.7v3.2h-1.8v-7.7h1.8v3H58.2z"/>
		<path class="st1" d="M69.1,2901.8H63v-5.7h1.8v1.5h2.5v-1.5h1.8v1.1h2.3v-1.6h1.8v6.6h-1.8v-1.2h-2.3V2901.8z M73.6,2906.8v1.4
			h-8.9v-3.5h6.7v-0.7h-6.7v-1.4h8.5v3.4h-6.7v0.8H73.6z M67.3,2898.9h-2.5v1.4h2.5V2898.9z M69.1,2898.5v1h2.3v-1H69.1z"/>
		<path class="st1" d="M85.2,2895.7h1.7v12.1h-1.7v-6.1h-1c-0.2,2.5-1.2,4-2.8,4c-1.7,0-2.8-1.8-2.8-4.7c0-2.9,1.1-4.7,2.8-4.7
			c1.5,0,2.6,1.4,2.8,3.8h1V2895.7z M82.5,2901.1c0-2-0.4-2.9-1.1-2.9c-0.7,0-1.1,1-1.1,2.9c0,2,0.4,3,1.1,3
			C82.1,2904,82.5,2903.1,82.5,2901.1z M89.5,2895.5v12.9h-1.8v-12.9H89.5z"/>
		<path class="st1" d="M93.9,2903.9c1.6,0,3.3-0.2,5-0.5l0.2,1.5c-2.1,0.4-4,0.5-6,0.5H92v-8.5h1.8V2903.9z M102.2,2895.5v13h-1.8
			v-7.5h-3.5v-1.5h3.5v-4H102.2z"/>
		<path class="st1" d="M109.2,2899c0,2.1,1,4.3,3.2,5.2l-1,1.5c-1.5-0.6-2.5-1.9-3.1-3.5c-0.6,1.7-1.6,3.1-3.1,3.8l-1.1-1.5
			c2.2-1,3.2-3.3,3.2-5.5v-0.7h-2.7v-1.5h7.2v1.5h-2.7V2899z M114.9,2895.5v12.9h-1.8v-12.9H114.9z"/>
		<path class="st1" d="M127.1,2902.1c-1.4-0.4-2.4-1.2-3-2.3c-0.6,1.2-1.6,2.1-3.1,2.6l-0.9-1.4c2-0.6,3-2.1,3-3.4h-2.5v-1.5h6.9
			v1.5h-2.5c0.1,1.3,1,2.6,2.9,3.2L127.1,2902.1z M131.4,2906.8v1.4h-8.9v-3.5h6.7v-0.7h-6.7v-1.4h8.5v3.5h-6.7v0.8H131.4z
			 M129.2,2898.1v-2.6h1.8v6.6h-1.8v-2.5h-2v-1.5H129.2z"/>
		<path class="st1" d="M139.8,2896.2c0,3.4-2.2,5.8-6,6.8l-0.7-1.5c2.9-0.7,4.4-2.1,4.7-3.8h-4.1v-1.5H139.8z M135,2903.2h8.4v5H135
			V2903.2z M136.8,2906.8h4.7v-2.1h-4.7V2906.8z M145,2899.8h-1.7v2.9h-1.8v-7.2h1.8v2.8h1.7V2899.8z"/>
		<path class="st1" d="M157.2,2902.5c-2.7,0.5-5.7,0.5-7.9,0.5l-0.2-1.3c0.9,0,2,0,3.1,0v-0.6c-1.4-0.2-2.2-0.8-2.2-1.6
			c0-1.1,1.2-1.7,3.2-1.7s3.1,0.6,3.1,1.7c0,0.9-0.8,1.5-2.2,1.6v0.5c1-0.1,2.1-0.1,3.1-0.3L157.2,2902.5z M156.7,2897.5h-7.3v-1.2
			h2.7v-0.9h1.8v0.9h2.7V2897.5z M152.6,2907.1h7.3v1.2h-9.1v-3h6.8v-0.6h-6.8v-1.2h8.7v2.9h-6.8V2907.1z M153.1,2900
			c0.9,0,1.4-0.2,1.4-0.6c0-0.4-0.5-0.5-1.4-0.5s-1.4,0.2-1.4,0.5C151.7,2899.8,152.2,2900,153.1,2900z M161.1,2898.5v1.5h-1.6v3
			h-1.8v-7.6h1.8v3.1H161.1z"/>
		<path class="st1" d="M173.8,2901.6v1.5h-11.7v-1.5h4.9v-1.1h-3.5v-4.5h8.9v1.5h-7v1.5h7.1v1.5h-3.6v1.1H173.8z M172.4,2906
			c0,1.5-1.7,2.4-4.5,2.4s-4.5-0.9-4.5-2.4c0-1.5,1.7-2.4,4.5-2.4S172.4,2904.5,172.4,2906z M170.5,2906c0-0.7-0.9-1-2.6-1
			c-1.7,0-2.6,0.3-2.6,1c0,0.7,0.9,1,2.6,1C169.6,2907,170.5,2906.7,170.5,2906z"/>
	</g>
</g>
</svg>
