<?xml version="1.0" encoding="utf-8"?>
<!-- Generator: Adobe Illustrator 25.1.0, SVG Export Plug-In . SVG Version: 6.00 Build 0)  -->
<svg version="1.1" id="레이어_1" xmlns="http://www.w3.org/2000/svg" xmlns:xlink="http://www.w3.org/1999/xlink" x="0px"
	 y="0px" viewBox="0 0 920 390" style="enable-background:new 0 0 920 390;" xml:space="preserve">
<style type="text/css">
	.st0{fill:#FAFAFA;}
	.st1{fill:none;stroke:#D6D6D6;stroke-width:1.0005;}
	.st2{enable-background:new    ;}
	.st3{fill:none;stroke:#D6D6D6;}
	.st4{fill:none;stroke:#717171;stroke-width:1.0005;}
</style>
<g id="그룹_5032" transform="translate(-740 -3389.92)">
	<rect id="사각형_375" x="740" y="3390.1" class="st0" width="920" height="64"/>
	<line id="선_348" class="st1" x1="740" y1="3454.4" x2="1660" y2="3454.4"/>
	<line id="선_348-2" class="st1" x1="740" y1="3519.4" x2="1660" y2="3519.4"/>
	<line id="선_348-3" class="st1" x1="740" y1="3584.4" x2="1660" y2="3584.4"/>
	<line id="선_348-4" class="st1" x1="740" y1="3649.4" x2="1660" y2="3649.4"/>
	<line id="선_348-5" class="st1" x1="740" y1="3714.4" x2="1660" y2="3714.4"/>
	<g class="st2">
		<path d="M874.8,3418.6c0,2.9,1.5,5.8,4,7l-1.1,1.5c-1.7-0.9-3-2.7-3.7-4.8c-0.7,2.2-2.1,4.1-3.9,5.1l-1.1-1.5
			c2.5-1.2,4.1-4.3,4.1-7.3v-2.7h1.9v2.7H874.8z M884.2,3422.5h-2.5v8.3h-1.9v-16.3h1.9v6.4h2.5V3422.5z"/>
		<path d="M899.1,3414.5v8.7h-1.9v-3.5h-3c-0.3,1.8-2,3.1-4.1,3.1c-2.4,0-4.2-1.6-4.2-3.8s1.8-3.8,4.2-3.8c2.1,0,3.8,1.2,4.1,3h3
			v-3.7H899.1z M892.6,3419.1c0-1.4-1-2.3-2.4-2.3s-2.5,0.9-2.5,2.3c0,1.4,1,2.3,2.5,2.3C891.5,3421.4,892.6,3420.4,892.6,3419.1z
			 M897.3,3424h1.8v6.6h-10.6v-6.6h1.8v1.8h6.9L897.3,3424L897.3,3424z M897.3,3427.3h-6.9v1.8h6.9V3427.3z"/>
		<path d="M910.8,3423.6c-1.8-0.6-3.1-1.7-3.8-3.3c-0.7,1.7-2.1,3.1-4,3.8l-0.9-1.5c2.6-0.9,4-3,4-5.2v-0.3h-3.5v-1.5h8.7v1.5h-3.4
			v0.3c0,2,1.4,3.9,3.8,4.7L910.8,3423.6z M915.1,3427.7c0,1.9-2.1,3.1-5.4,3.1s-5.4-1.2-5.4-3.1c0-1.9,2.1-3.1,5.4-3.1
			S915.1,3425.8,915.1,3427.7z M913.2,3427.7c0-1.1-1.3-1.6-3.6-1.6s-3.6,0.6-3.6,1.6s1.3,1.6,3.6,1.6S913.2,3428.8,913.2,3427.7z
			 M917.2,3418.5v1.5h-2.3v4.2H913v-9.7h1.9v4H917.2z"/>
	</g>
	<g class="st2">
		<path d="M892,3486.9v0.8h-6.7v4.1h-1v-4.1h-6.8v-0.8h11.1c0.5-2.2,0.5-3.8,0.5-5.1v-0.4h-9.7v-0.8H890v1.2c0,1.3,0,2.9-0.5,5.1
			H892z M880.3,3494.5h10v0.8h-11v-4.9h1V3494.5z"/>
		<path d="M902.7,3488.8c-1.8-0.7-3.4-2.2-4.1-4c-0.6,2.1-2.2,3.7-4.1,4.4l-0.5-0.8c2.3-0.9,4.1-3,4.1-5.7v-2.1h0.9v2.2
			c0,2.3,1.9,4.4,4.1,5.2L902.7,3488.8z M897.6,3494.5h9.5v0.8h-10.5v-4.9h1V3494.5z M908.8,3484.7v0.8h-2.5v6h-1v-11.9h1v5.1
			L908.8,3484.7L908.8,3484.7z"/>
	</g>
	<g class="st2">
		<path d="M892,3557.8v0.8h-14.5v-0.8h6.7v-4.1h-5.3v-0.8h2.7v-5.7h-2.7v-0.8h11.7v0.8h-2.7v5.7h2.7v0.8h-5.4v4.1H892z
			 M882.4,3552.8h4.4v-5.7h-4.4V3552.8z"/>
		<path d="M903.6,3547.4h-9.5v-0.8h4.3v-2.1h1v2.1h4.2V3547.4z M898.8,3554c-2.3,0-3.8-1.1-3.8-2.8s1.5-2.8,3.8-2.8s3.8,1.1,3.8,2.8
			S901.1,3554,898.8,3554z M898.8,3553.3c1.7,0,2.9-0.8,2.9-2s-1.2-2-2.9-2s-2.9,0.8-2.9,2S897.1,3553.3,898.8,3553.3z
			 M906.5,3557.9c0,1.7-1.9,2.7-5.1,2.7c-3.2,0-5.1-1-5.1-2.7s1.9-2.7,5.1-2.7S906.5,3556.2,906.5,3557.9z M905.6,3557.9
			c0-1.2-1.6-1.9-4.2-1.9c-2.6,0-4.2,0.7-4.2,1.9s1.6,1.9,4.2,1.9C903.9,3559.9,905.6,3559.1,905.6,3557.9z M908.8,3549.4v0.8h-2.5
			v4.9h-1v-10.4h1v4.7H908.8z"/>
	</g>
	<g class="st2">
		<path d="M887.6,3617.8c-3.3,0.5-7.2,0.6-10.1,0.6l-0.1-0.8c1.1,0,2.3,0,3.7,0v-3.4h1v3.3c1.9-0.1,3.8-0.2,5.5-0.4L887.6,3617.8z
			 M884.8,3615.8c0.5-1.9,0.5-3.3,0.5-4.2h-6.8v-0.8h7.7v0.8c0,1,0,2.4-0.4,4.4L884.8,3615.8z M889.9,3622.8c0,1.8-1.9,2.8-5.2,2.8
			c-3.2,0-5.1-1-5.1-2.8s1.9-2.8,5.1-2.8C887.9,3620,889.9,3621,889.9,3622.8z M888.9,3622.8c0-1.3-1.6-2-4.2-2
			c-2.6,0-4.2,0.8-4.2,2s1.7,2,4.2,2C887.3,3624.8,888.9,3624.1,888.9,3622.8z M892.2,3614.3v0.8h-2.5v4.7h-1v-10.1h1v4.6H892.2z"/>
		<path d="M898.5,3618.1c-2.4,0-4.1-1.5-4.1-3.7s1.7-3.7,4.1-3.7c2.4,0,4.1,1.5,4.1,3.7S900.9,3618.1,898.5,3618.1z M898.5,3617.3
			c1.8,0,3.1-1.2,3.1-2.9s-1.3-2.9-3.1-2.9s-3.2,1.2-3.2,2.9C895.4,3616,896.7,3617.3,898.5,3617.3z M906.5,3622.7
			c0,1.9-2,2.9-5.2,2.9s-5.1-1-5.1-2.9c0-1.8,2-2.9,5.1-2.9C904.5,3619.8,906.5,3620.9,906.5,3622.7z M905.5,3622.7
			c0-1.3-1.7-2.1-4.2-2.1c-2.6,0-4.2,0.8-4.2,2.1s1.7,2.1,4.2,2.1C903.9,3624.8,905.5,3624,905.5,3622.7z M906.3,3613.1v2.6h2.5v0.8
			h-2.5v2.7h-1v-9.6h1v2.7h2.5v0.8H906.3z"/>
	</g>
	<g class="st2">
		<path d="M884,3679.4c0,2.2-1.7,3.7-4.1,3.7c-2.4,0-4.1-1.5-4.1-3.7s1.7-3.7,4.1-3.7S884,3677.2,884,3679.4z M876.8,3679.4
			c0,1.7,1.3,2.9,3.1,2.9s3.1-1.2,3.1-2.9s-1.3-2.9-3.1-2.9C878.2,3676.5,876.8,3677.7,876.8,3679.4z M888.5,3685.2v5.5h-1v-4.6
			h-9.6v-0.8L888.5,3685.2L888.5,3685.2z M888.5,3674.7v9.6h-1v-9.6H888.5z"/>
		<path d="M900.7,3683.8c-1.8-0.7-3.4-2.2-4.1-4c-0.6,2.1-2.2,3.7-4.1,4.4l-0.5-0.8c2.3-0.9,4.1-3,4.1-5.7v-2.1h0.9v2.2
			c0,2.3,1.9,4.4,4.1,5.2L900.7,3683.8z M895.6,3689.5h9.5v0.8h-10.5v-4.9h1V3689.5z M906.8,3679.7v0.8h-2.5v6h-1v-11.9h1v5.1
			L906.8,3679.7L906.8,3679.7z"/>
	</g>
	<g class="st2">
		<path d="M1160.5,3418.6c0,3,1.7,6,4.2,7.1l-1.1,1.5c-1.9-0.9-3.3-2.7-4-4.9c-0.7,2.4-2.2,4.3-4.1,5.2l-1.1-1.5
			c2.6-1.2,4.3-4.3,4.3-7.4v-2.7h1.9v2.7H1160.5z M1167.9,3414.5v16.3h-1.9v-16.3H1167.9z"/>
		<path d="M1185.8,3427.2v1.5h-14.7v-1.5H1185.8z M1184.3,3424c-2.6-0.5-4.9-2.2-6-4.5c-1.1,2.2-3.3,3.9-6,4.5l-0.8-1.5
			c3.2-0.6,5.8-3.1,5.8-5.7v-1.2h2v1.2c0,2.6,2.6,5.1,5.8,5.7L1184.3,3424z"/>
		<path d="M1195.3,3423.1c-1.9,0.3-3.4,0.4-5.9,0.4h-1.1v-7.9h6.1v1.5h-4.3v1.7h3.7v1.4h-3.7v1.8c2.1,0,3.4-0.1,5-0.4L1195.3,3423.1
			z M1190.5,3425h10.8v5.6h-10.8V3425z M1192.4,3429.1h7.2v-2.6h-7.2V3429.1z M1196.5,3420h-1.9v-1.5h1.9v-3.7h1.7v9.4h-1.7V3420z
			 M1201.4,3414.5v9.8h-1.8v-9.8H1201.4z"/>
		<path d="M1212.9,3423.8c-2.4,0-4.3-1.7-4.3-4.1c0-2.4,1.9-4.1,4.3-4.1s4.3,1.7,4.3,4.1C1217.2,3422.1,1215.3,3423.8,1212.9,3423.8
			z M1212.9,3422.2c1.4,0,2.5-1,2.5-2.5s-1.1-2.5-2.5-2.5s-2.5,1-2.5,2.5C1210.3,3421.2,1211.4,3422.2,1212.9,3422.2z M1222.1,3429
			v1.5H1211v-5.3h1.9v3.8H1222.1z M1221.6,3426.4h-1.9v-11.8h1.9V3426.4z"/>
		<path d="M1239.5,3422.2v1.5h-14.7v-1.5H1239.5z M1225.5,3419.9c3-0.3,5.1-1.6,5.4-3.1h-4.7v-1.5h12v1.5h-4.8
			c0.2,1.5,2.3,2.8,5.4,3.1l-0.6,1.4c-2.9-0.3-5.1-1.5-6-3.2c-0.9,1.7-3.1,2.8-6,3.2L1225.5,3419.9z M1237.7,3427.8
			c0,1.9-2.1,3-5.6,3s-5.6-1.1-5.6-3s2.1-3,5.6-3S1237.7,3425.9,1237.7,3427.8z M1235.8,3427.8c0-1-1.4-1.5-3.7-1.5
			s-3.7,0.5-3.7,1.5s1.3,1.5,3.7,1.5S1235.8,3428.8,1235.8,3427.8z"/>
	</g>
	<g class="st2">
		<path d="M1487.7,3425.2h-3.7v5.6h-1.9v-5.6h-3.7v5.6h-1.9v-5.6h-3.6v-1.5h14.7L1487.7,3425.2z M1474.5,3418.7
			c0-2.2,2.3-3.6,5.8-3.6c3.4,0,5.8,1.4,5.8,3.6c0,2.2-2.3,3.6-5.8,3.6C1476.9,3422.3,1474.5,3420.9,1474.5,3418.7z M1476.4,3418.7
			c0,1.3,1.5,2.1,3.9,2.1c2.3,0,3.9-0.8,3.9-2.1s-1.5-2.1-3.9-2.1C1478,3416.6,1476.4,3417.4,1476.4,3418.7z"/>
		<path d="M1504.3,3427.5v1.5h-14.7v-1.5h3.7v-2.9c-1.2-0.5-1.8-1.4-1.8-2.4c0-1.9,2.1-3.1,5.4-3.1s5.4,1.1,5.4,3.1
			c0,1.1-0.6,1.9-1.8,2.4v2.9H1504.3z M1503.5,3418.3h-13.3v-1.5h5.7v-2h1.9v2h5.7L1503.5,3418.3L1503.5,3418.3z M1493.3,3422.3
			c0,1,1.3,1.6,3.5,1.6s3.5-0.6,3.5-1.6c0-1.1-1.3-1.6-3.5-1.6C1494.6,3420.6,1493.3,3421.2,1493.3,3422.3z M1495.1,3427.5h3.6v-2.3
			c-0.6,0.1-1.1,0.1-1.8,0.1c-0.6,0-1.2,0-1.8-0.1L1495.1,3427.5L1495.1,3427.5z"/>
		<path d="M1514.7,3416.3c0,4.8-1.9,8.9-7.5,11.6l-1-1.5c4.3-2.1,6.3-4.9,6.6-8.7h-5.8v-1.5L1514.7,3416.3L1514.7,3416.3z
			 M1519.5,3414.5v16.3h-1.9v-16.3H1519.5z"/>
		<path d="M1531,3415.8c0,4.3-2.9,7.4-7.6,8.8l-0.8-1.5c3.7-1.1,6-3.2,6.4-5.8h-5.7v-1.5H1531z M1526.9,3429h9.1v1.5h-11v-5.4h1.9
			V3429z M1537.7,3419.3v1.5h-2.3v5.5h-1.9v-11.8h1.9v4.8H1537.7z"/>
	</g>
	<g class="st2">
		<path d="M1158.6,3481.3h1.1v13.1h-1.1V3481.3z"/>
		<path d="M1162.5,3492.7l0.7-0.8c1,1.1,2.3,1.7,3.8,1.7c1.9,0,3.2-1,3.2-2.5c0-1.6-1-2.1-2.3-2.7l-2-0.9c-1.2-0.5-2.7-1.4-2.7-3.3
			c0-1.9,1.7-3.3,3.9-3.3c1.6,0,2.9,0.7,3.7,1.6l-0.6,0.7c-0.8-0.8-1.8-1.3-3.1-1.3c-1.7,0-2.8,0.9-2.8,2.2c0,1.5,1.3,2.1,2.2,2.5
			l2,0.9c1.5,0.7,2.8,1.5,2.8,3.5s-1.7,3.6-4.2,3.6C1165.1,3494.7,1163.6,3493.9,1162.5,3492.7z"/>
		<path d="M1173.1,3487.8c0-4.2,2.3-6.8,5.4-6.8c3.2,0,5.5,2.6,5.5,6.8s-2.3,6.8-5.5,6.8C1175.4,3494.7,1173.1,3492,1173.1,3487.8z
			 M1182.9,3487.8c0-3.6-1.7-5.8-4.3-5.8c-2.6,0-4.3,2.2-4.3,5.8s1.7,5.9,4.3,5.9C1181.2,3493.7,1182.9,3491.4,1182.9,3487.8z"/>
		<path d="M1190.8,3493.5h3v-10.7h-2.3v-0.7c1.1-0.2,1.9-0.5,2.5-0.8h0.8v12.2h2.7v0.9h-6.8v-0.9H1190.8z"/>
		<path d="M1207.8,3490.7h-1.9v3.7h-1v-3.7h-5.8v-0.7l5.8-8.7h1v8.5h1.9V3490.7z M1204.9,3489.8v-4.8c0-0.6,0.1-1.6,0.1-2.2h-0.1
			c-0.3,0.6-0.7,1.2-1,1.8l-3.6,5.2H1204.9z"/>
		<path d="M1209.3,3487.8c0-4.6,1.5-6.8,3.9-6.8s3.9,2.2,3.9,6.8s-1.5,6.8-3.9,6.8C1210.8,3494.7,1209.3,3492.4,1209.3,3487.8z
			 M1216,3487.8c0-3.9-1.1-5.9-2.8-5.9c-1.7,0-2.8,2-2.8,5.9c0,4,1.1,6,2.8,6S1216,3491.8,1216,3487.8z"/>
		<path d="M1219,3487.8c0-4.6,1.5-6.8,3.9-6.8s3.9,2.2,3.9,6.8s-1.5,6.8-3.9,6.8C1220.4,3494.7,1219,3492.4,1219,3487.8z
			 M1225.6,3487.8c0-3.9-1.1-5.9-2.8-5.9c-1.7,0-2.8,2-2.8,5.9c0,4,1.1,6,2.8,6S1225.6,3491.8,1225.6,3487.8z"/>
		<path d="M1229.3,3493.5h3v-10.7h-2.3v-0.7c1.1-0.2,1.9-0.5,2.5-0.8h0.8v12.2h2.7v0.9h-6.8v-0.9H1229.3z"/>
	</g>
	<g class="st2">
		<path d="M1411.1,3493.8c4.4-3.8,6.2-6.5,6.2-8.9c0-1.6-0.8-2.9-2.7-2.9c-1.1,0-2.2,0.7-2.9,1.6l-0.7-0.6c1-1.1,2.1-1.9,3.7-1.9
			c2.3,0,3.6,1.5,3.6,3.8c0,2.8-2.1,5.5-5.6,8.8c0.7-0.1,1.5-0.1,2.2-0.1h4.1v0.9h-7.9L1411.1,3493.8L1411.1,3493.8z"/>
		<path d="M1420.9,3487.8c0-4.6,1.5-6.8,3.9-6.8s3.9,2.2,3.9,6.8s-1.5,6.8-3.9,6.8C1422.4,3494.7,1420.9,3492.4,1420.9,3487.8z
			 M1427.6,3487.8c0-3.9-1.1-5.9-2.8-5.9c-1.7,0-2.8,2-2.8,5.9c0,4,1.1,6,2.8,6S1427.6,3491.8,1427.6,3487.8z"/>
		<path d="M1430.4,3493.8c4.4-3.8,6.2-6.5,6.2-8.9c0-1.6-0.8-2.9-2.7-2.9c-1.1,0-2.2,0.7-2.9,1.6l-0.7-0.6c1-1.1,2.1-1.9,3.7-1.9
			c2.3,0,3.6,1.5,3.6,3.8c0,2.8-2.1,5.5-5.6,8.8c0.7-0.1,1.5-0.1,2.2-0.1h4.1v0.9h-7.9L1430.4,3493.8L1430.4,3493.8z"/>
		<path d="M1440.2,3487.8c0-4.6,1.5-6.8,3.9-6.8s3.9,2.2,3.9,6.8s-1.5,6.8-3.9,6.8C1441.7,3494.7,1440.2,3492.4,1440.2,3487.8z
			 M1446.9,3487.8c0-3.9-1.1-5.9-2.8-5.9c-1.7,0-2.8,2-2.8,5.9c0,4,1.1,6,2.8,6C1445.7,3493.8,1446.9,3491.8,1446.9,3487.8z"/>
		<path d="M1450.2,3493.7c0-0.6,0.4-1,0.9-1s0.9,0.4,0.9,1s-0.4,1-0.9,1S1450.2,3494.3,1450.2,3493.7z"/>
		<path d="M1455,3493.5h3v-10.7h-2.3v-0.7c1.1-0.2,1.9-0.5,2.5-0.8h0.8v12.2h2.7v0.9h-6.8v-0.9H1455z"/>
		<path d="M1464.6,3493.5h3v-10.7h-2.3v-0.7c1.1-0.2,1.9-0.5,2.5-0.8h0.8v12.2h2.7v0.9h-6.8v-0.9H1464.6z"/>
		<path d="M1474,3493.7c0-0.6,0.4-1,0.9-1s0.9,0.4,0.9,1s-0.4,1-0.9,1S1474,3494.3,1474,3493.7z"/>
		<path d="M1478.1,3487.8c0-4.6,1.5-6.8,3.9-6.8s3.9,2.2,3.9,6.8s-1.5,6.8-3.9,6.8C1479.5,3494.7,1478.1,3492.4,1478.1,3487.8z
			 M1484.8,3487.8c0-3.9-1.1-5.9-2.8-5.9c-1.7,0-2.8,2-2.8,5.9c0,4,1.1,6,2.8,6C1483.6,3493.8,1484.8,3491.8,1484.8,3487.8z"/>
		<path d="M1488.4,3493.5h3v-10.7h-2.3v-0.7c1.1-0.2,1.9-0.5,2.5-0.8h0.8v12.2h2.7v0.9h-6.8v-0.9H1488.4z"/>
		<path d="M1503.4,3487.4c-0.6,0-1.1,0.3-1.6,1.2l-0.6-0.4c0.6-1.2,1.4-1.7,2.2-1.7c1.5,0,2.4,1.8,3.6,1.8c0.6,0,1.1-0.3,1.6-1.2
			l0.6,0.4c-0.6,1.1-1.5,1.7-2.3,1.7C1505.4,3489.1,1504.5,3487.4,1503.4,3487.4z"/>
		<path d="M1514.8,3493.8c4.4-3.8,6.2-6.5,6.2-8.9c0-1.6-0.8-2.9-2.7-2.9c-1.1,0-2.2,0.7-2.9,1.6l-0.7-0.6c1-1.1,2.1-1.9,3.7-1.9
			c2.3,0,3.6,1.5,3.6,3.8c0,2.8-2.1,5.5-5.6,8.8c0.7-0.1,1.5-0.1,2.2-0.1h4.1v0.9h-7.9L1514.8,3493.8L1514.8,3493.8z"/>
		<path d="M1524.6,3487.8c0-4.6,1.5-6.8,3.9-6.8s3.9,2.2,3.9,6.8s-1.5,6.8-3.9,6.8C1526.1,3494.7,1524.6,3492.4,1524.6,3487.8z
			 M1531.3,3487.8c0-3.9-1.1-5.9-2.8-5.9c-1.7,0-2.8,2-2.8,5.9c0,4,1.1,6,2.8,6C1530.1,3493.8,1531.3,3491.8,1531.3,3487.8z"/>
		<path d="M1534.1,3493.8c4.4-3.8,6.2-6.5,6.2-8.9c0-1.6-0.8-2.9-2.7-2.9c-1.1,0-2.2,0.7-2.9,1.6l-0.7-0.6c1-1.1,2.1-1.9,3.7-1.9
			c2.3,0,3.6,1.5,3.6,3.8c0,2.8-2.1,5.5-5.6,8.8c0.7-0.1,1.5-0.1,2.2-0.1h4.1v0.9h-7.9L1534.1,3493.8L1534.1,3493.8z"/>
		<path d="M1543.4,3492.9l0.6-0.7c0.8,0.8,1.8,1.6,3.5,1.6s2.9-1.1,2.9-2.8c0-1.8-1.2-3-4.4-3v-0.9c2.9,0,3.9-1.2,3.9-2.8
			c0-1.4-1-2.4-2.5-2.4c-1.1,0-2.2,0.6-2.9,1.4l-0.6-0.7c0.9-0.8,2-1.5,3.5-1.5c2,0,3.5,1.2,3.5,3.2c0,1.7-1,2.8-2.4,3.2v0.1
			c1.6,0.3,2.9,1.5,2.9,3.4c0,2.3-1.7,3.7-4,3.7C1545.5,3494.7,1544.3,3493.7,1543.4,3492.9z"/>
		<path d="M1553.9,3493.7c0-0.6,0.4-1,0.9-1s0.9,0.4,0.9,1s-0.4,1-0.9,1S1553.9,3494.3,1553.9,3493.7z"/>
		<path d="M1558.7,3493.5h3v-10.7h-2.3v-0.7c1.1-0.2,1.9-0.5,2.5-0.8h0.8v12.2h2.7v0.9h-6.8v-0.9H1558.7z"/>
		<path d="M1567.6,3487.8c0-4.6,1.5-6.8,3.9-6.8s3.9,2.2,3.9,6.8s-1.5,6.8-3.9,6.8C1569.1,3494.7,1567.6,3492.4,1567.6,3487.8z
			 M1574.3,3487.8c0-3.9-1.1-5.9-2.8-5.9c-1.7,0-2.8,2-2.8,5.9c0,4,1.1,6,2.8,6C1573.2,3493.8,1574.3,3491.8,1574.3,3487.8z"/>
		<path d="M1577.6,3493.7c0-0.6,0.4-1,0.9-1s0.9,0.4,0.9,1s-0.4,1-0.9,1S1577.6,3494.3,1577.6,3493.7z"/>
		<path d="M1581.3,3492.9l0.6-0.7c0.8,0.8,1.8,1.6,3.5,1.6s2.9-1.1,2.9-2.8c0-1.8-1.2-3-4.4-3v-0.9c2.9,0,3.9-1.2,3.9-2.8
			c0-1.4-1-2.4-2.5-2.4c-1.1,0-2.2,0.6-2.9,1.4l-0.6-0.7c0.9-0.8,2-1.5,3.5-1.5c2,0,3.5,1.2,3.5,3.2c0,1.7-1,2.8-2.4,3.2v0.1
			c1.6,0.3,2.9,1.5,2.9,3.4c0,2.3-1.7,3.7-4,3.7C1583.4,3494.7,1582.2,3493.7,1581.3,3492.9z"/>
		<path d="M1592.1,3493.5h3v-10.7h-2.3v-0.7c1.1-0.2,1.9-0.5,2.5-0.8h0.8v12.2h2.7v0.9h-6.8v-0.9H1592.1z"/>
	</g>
	<g class="st2">
		<path d="M1158.6,3546.3h1.1v13.1h-1.1V3546.3z"/>
		<path d="M1162.5,3557.7l0.7-0.8c1,1.1,2.3,1.7,3.8,1.7c1.9,0,3.2-1,3.2-2.5c0-1.6-1-2.1-2.3-2.7l-2-0.9c-1.2-0.5-2.7-1.4-2.7-3.3
			c0-1.9,1.7-3.3,3.9-3.3c1.6,0,2.9,0.7,3.7,1.6l-0.6,0.7c-0.8-0.8-1.8-1.3-3.1-1.3c-1.7,0-2.8,0.9-2.8,2.2c0,1.5,1.3,2.1,2.2,2.5
			l2,0.9c1.5,0.7,2.8,1.5,2.8,3.5s-1.7,3.6-4.2,3.6C1165.1,3559.7,1163.6,3558.9,1162.5,3557.7z"/>
		<path d="M1173.1,3552.8c0-4.2,2.3-6.8,5.4-6.8c3.2,0,5.5,2.6,5.5,6.8s-2.3,6.8-5.5,6.8C1175.4,3559.7,1173.1,3557,1173.1,3552.8z
			 M1182.9,3552.8c0-3.6-1.7-5.8-4.3-5.8c-2.6,0-4.3,2.2-4.3,5.8s1.7,5.9,4.3,5.9C1181.2,3558.7,1182.9,3556.4,1182.9,3552.8z"/>
		<path d="M1190.8,3558.5h3v-10.7h-2.3v-0.7c1.1-0.2,1.9-0.5,2.5-0.8h0.8v12.2h2.7v0.9h-6.8v-0.9H1190.8z"/>
		<path d="M1207.8,3555.7h-1.9v3.7h-1v-3.7h-5.8v-0.7l5.8-8.7h1v8.5h1.9V3555.7z M1204.9,3554.8v-4.8c0-0.6,0.1-1.6,0.1-2.2h-0.1
			c-0.3,0.6-0.7,1.2-1,1.8l-3.6,5.2H1204.9z"/>
		<path d="M1209.3,3552.8c0-4.6,1.5-6.8,3.9-6.8s3.9,2.2,3.9,6.8s-1.5,6.8-3.9,6.8C1210.8,3559.7,1209.3,3557.4,1209.3,3552.8z
			 M1216,3552.8c0-3.9-1.1-5.9-2.8-5.9c-1.7,0-2.8,2-2.8,5.9c0,4,1.1,6,2.8,6S1216,3556.8,1216,3552.8z"/>
		<path d="M1219,3552.8c0-4.6,1.5-6.8,3.9-6.8s3.9,2.2,3.9,6.8s-1.5,6.8-3.9,6.8C1220.4,3559.7,1219,3557.4,1219,3552.8z
			 M1225.6,3552.8c0-3.9-1.1-5.9-2.8-5.9c-1.7,0-2.8,2-2.8,5.9c0,4,1.1,6,2.8,6S1225.6,3556.8,1225.6,3552.8z"/>
		<path d="M1229.3,3558.5h3v-10.7h-2.3v-0.7c1.1-0.2,1.9-0.5,2.5-0.8h0.8v12.2h2.7v0.9h-6.8v-0.9H1229.3z"/>
	</g>
	<g class="st2">
		<path d="M1411.1,3558.8c4.4-3.8,6.2-6.5,6.2-8.9c0-1.6-0.8-2.9-2.7-2.9c-1.1,0-2.2,0.7-2.9,1.6l-0.7-0.6c1-1.1,2.1-1.9,3.7-1.9
			c2.3,0,3.6,1.5,3.6,3.8c0,2.8-2.1,5.5-5.6,8.8c0.7-0.1,1.5-0.1,2.2-0.1h4.1v0.9h-7.9L1411.1,3558.8L1411.1,3558.8z"/>
		<path d="M1420.9,3552.8c0-4.6,1.5-6.8,3.9-6.8s3.9,2.2,3.9,6.8s-1.5,6.8-3.9,6.8C1422.4,3559.7,1420.9,3557.4,1420.9,3552.8z
			 M1427.6,3552.8c0-3.9-1.1-5.9-2.8-5.9c-1.7,0-2.8,2-2.8,5.9c0,4,1.1,6,2.8,6S1427.6,3556.8,1427.6,3552.8z"/>
		<path d="M1430.4,3558.8c4.4-3.8,6.2-6.5,6.2-8.9c0-1.6-0.8-2.9-2.7-2.9c-1.1,0-2.2,0.7-2.9,1.6l-0.7-0.6c1-1.1,2.1-1.9,3.7-1.9
			c2.3,0,3.6,1.5,3.6,3.8c0,2.8-2.1,5.5-5.6,8.8c0.7-0.1,1.5-0.1,2.2-0.1h4.1v0.9h-7.9L1430.4,3558.8L1430.4,3558.8z"/>
		<path d="M1440.2,3552.8c0-4.6,1.5-6.8,3.9-6.8s3.9,2.2,3.9,6.8s-1.5,6.8-3.9,6.8C1441.7,3559.7,1440.2,3557.4,1440.2,3552.8z
			 M1446.9,3552.8c0-3.9-1.1-5.9-2.8-5.9c-1.7,0-2.8,2-2.8,5.9c0,4,1.1,6,2.8,6C1445.7,3558.8,1446.9,3556.8,1446.9,3552.8z"/>
		<path d="M1450.2,3558.7c0-0.6,0.4-1,0.9-1s0.9,0.4,0.9,1s-0.4,1-0.9,1S1450.2,3559.3,1450.2,3558.7z"/>
		<path d="M1455,3558.5h3v-10.7h-2.3v-0.7c1.1-0.2,1.9-0.5,2.5-0.8h0.8v12.2h2.7v0.9h-6.8v-0.9H1455z"/>
		<path d="M1464.6,3558.5h3v-10.7h-2.3v-0.7c1.1-0.2,1.9-0.5,2.5-0.8h0.8v12.2h2.7v0.9h-6.8v-0.9H1464.6z"/>
		<path d="M1474,3558.7c0-0.6,0.4-1,0.9-1s0.9,0.4,0.9,1s-0.4,1-0.9,1S1474,3559.3,1474,3558.7z"/>
		<path d="M1478.1,3552.8c0-4.6,1.5-6.8,3.9-6.8s3.9,2.2,3.9,6.8s-1.5,6.8-3.9,6.8C1479.5,3559.7,1478.1,3557.4,1478.1,3552.8z
			 M1484.8,3552.8c0-3.9-1.1-5.9-2.8-5.9c-1.7,0-2.8,2-2.8,5.9c0,4,1.1,6,2.8,6C1483.6,3558.8,1484.8,3556.8,1484.8,3552.8z"/>
		<path d="M1488.4,3558.5h3v-10.7h-2.3v-0.7c1.1-0.2,1.9-0.5,2.5-0.8h0.8v12.2h2.7v0.9h-6.8v-0.9H1488.4z"/>
		<path d="M1503.4,3552.4c-0.6,0-1.1,0.3-1.6,1.2l-0.6-0.4c0.6-1.2,1.4-1.7,2.2-1.7c1.5,0,2.4,1.8,3.6,1.8c0.6,0,1.1-0.3,1.6-1.2
			l0.6,0.4c-0.6,1.1-1.5,1.7-2.3,1.7C1505.4,3554.1,1504.5,3552.4,1503.4,3552.4z"/>
		<path d="M1514.8,3558.8c4.4-3.8,6.2-6.5,6.2-8.9c0-1.6-0.8-2.9-2.7-2.9c-1.1,0-2.2,0.7-2.9,1.6l-0.7-0.6c1-1.1,2.1-1.9,3.7-1.9
			c2.3,0,3.6,1.5,3.6,3.8c0,2.8-2.1,5.5-5.6,8.8c0.7-0.1,1.5-0.1,2.2-0.1h4.1v0.9h-7.9L1514.8,3558.8L1514.8,3558.8z"/>
		<path d="M1524.6,3552.8c0-4.6,1.5-6.8,3.9-6.8s3.9,2.2,3.9,6.8s-1.5,6.8-3.9,6.8C1526.1,3559.7,1524.6,3557.4,1524.6,3552.8z
			 M1531.3,3552.8c0-3.9-1.1-5.9-2.8-5.9c-1.7,0-2.8,2-2.8,5.9c0,4,1.1,6,2.8,6C1530.1,3558.8,1531.3,3556.8,1531.3,3552.8z"/>
		<path d="M1534.1,3558.8c4.4-3.8,6.2-6.5,6.2-8.9c0-1.6-0.8-2.9-2.7-2.9c-1.1,0-2.2,0.7-2.9,1.6l-0.7-0.6c1-1.1,2.1-1.9,3.7-1.9
			c2.3,0,3.6,1.5,3.6,3.8c0,2.8-2.1,5.5-5.6,8.8c0.7-0.1,1.5-0.1,2.2-0.1h4.1v0.9h-7.9L1534.1,3558.8L1534.1,3558.8z"/>
		<path d="M1543.4,3557.9l0.6-0.7c0.8,0.8,1.8,1.6,3.5,1.6s2.9-1.1,2.9-2.8c0-1.8-1.2-3-4.4-3v-0.9c2.9,0,3.9-1.2,3.9-2.8
			c0-1.4-1-2.4-2.5-2.4c-1.1,0-2.2,0.6-2.9,1.4l-0.6-0.7c0.9-0.8,2-1.5,3.5-1.5c2,0,3.5,1.2,3.5,3.2c0,1.7-1,2.8-2.4,3.2v0.1
			c1.6,0.3,2.9,1.5,2.9,3.4c0,2.3-1.7,3.7-4,3.7C1545.5,3559.7,1544.3,3558.7,1543.4,3557.9z"/>
		<path d="M1553.9,3558.7c0-0.6,0.4-1,0.9-1s0.9,0.4,0.9,1s-0.4,1-0.9,1S1553.9,3559.3,1553.9,3558.7z"/>
		<path d="M1558.7,3558.5h3v-10.7h-2.3v-0.7c1.1-0.2,1.9-0.5,2.5-0.8h0.8v12.2h2.7v0.9h-6.8v-0.9H1558.7z"/>
		<path d="M1567.6,3552.8c0-4.6,1.5-6.8,3.9-6.8s3.9,2.2,3.9,6.8s-1.5,6.8-3.9,6.8C1569.1,3559.7,1567.6,3557.4,1567.6,3552.8z
			 M1574.3,3552.8c0-3.9-1.1-5.9-2.8-5.9c-1.7,0-2.8,2-2.8,5.9c0,4,1.1,6,2.8,6C1573.2,3558.8,1574.3,3556.8,1574.3,3552.8z"/>
		<path d="M1577.6,3558.7c0-0.6,0.4-1,0.9-1s0.9,0.4,0.9,1s-0.4,1-0.9,1S1577.6,3559.3,1577.6,3558.7z"/>
		<path d="M1581.3,3557.9l0.6-0.7c0.8,0.8,1.8,1.6,3.5,1.6s2.9-1.1,2.9-2.8c0-1.8-1.2-3-4.4-3v-0.9c2.9,0,3.9-1.2,3.9-2.8
			c0-1.4-1-2.4-2.5-2.4c-1.1,0-2.2,0.6-2.9,1.4l-0.6-0.7c0.9-0.8,2-1.5,3.5-1.5c2,0,3.5,1.2,3.5,3.2c0,1.7-1,2.8-2.4,3.2v0.1
			c1.6,0.3,2.9,1.5,2.9,3.4c0,2.3-1.7,3.7-4,3.7C1583.4,3559.7,1582.2,3558.7,1581.3,3557.9z"/>
		<path d="M1592.1,3558.5h3v-10.7h-2.3v-0.7c1.1-0.2,1.9-0.5,2.5-0.8h0.8v12.2h2.7v0.9h-6.8v-0.9H1592.1z"/>
	</g>
	<g class="st2">
		<path d="M1158.6,3611.3h1.1v13.1h-1.1V3611.3z"/>
		<path d="M1162.5,3622.7l0.7-0.8c1,1.1,2.3,1.7,3.8,1.7c1.9,0,3.2-1,3.2-2.5c0-1.6-1-2.1-2.3-2.7l-2-0.9c-1.2-0.5-2.7-1.4-2.7-3.3
			c0-1.9,1.7-3.3,3.9-3.3c1.6,0,2.9,0.7,3.7,1.6l-0.6,0.7c-0.8-0.8-1.8-1.3-3.1-1.3c-1.7,0-2.8,0.9-2.8,2.2c0,1.5,1.3,2.1,2.2,2.5
			l2,0.9c1.5,0.7,2.8,1.5,2.8,3.5s-1.7,3.6-4.2,3.6C1165.1,3624.7,1163.6,3623.9,1162.5,3622.7z"/>
		<path d="M1173.1,3617.8c0-4.2,2.3-6.8,5.4-6.8c3.2,0,5.5,2.6,5.5,6.8s-2.3,6.8-5.5,6.8C1175.4,3624.7,1173.1,3622,1173.1,3617.8z
			 M1182.9,3617.8c0-3.6-1.7-5.8-4.3-5.8c-2.6,0-4.3,2.2-4.3,5.8s1.7,5.9,4.3,5.9C1181.2,3623.7,1182.9,3621.4,1182.9,3617.8z"/>
		<path d="M1190.8,3623.5h3v-10.7h-2.3v-0.7c1.1-0.2,1.9-0.5,2.5-0.8h0.8v12.2h2.7v0.9h-6.8v-0.9H1190.8z"/>
		<path d="M1207.8,3620.7h-1.9v3.7h-1v-3.7h-5.8v-0.7l5.8-8.7h1v8.5h1.9V3620.7z M1204.9,3619.8v-4.8c0-0.6,0.1-1.6,0.1-2.2h-0.1
			c-0.3,0.6-0.7,1.2-1,1.8l-3.6,5.2H1204.9z"/>
		<path d="M1209.3,3617.8c0-4.6,1.5-6.8,3.9-6.8s3.9,2.2,3.9,6.8s-1.5,6.8-3.9,6.8C1210.8,3624.7,1209.3,3622.4,1209.3,3617.8z
			 M1216,3617.8c0-3.9-1.1-5.9-2.8-5.9c-1.7,0-2.8,2-2.8,5.9c0,4,1.1,6,2.8,6S1216,3621.8,1216,3617.8z"/>
		<path d="M1219,3617.8c0-4.6,1.5-6.8,3.9-6.8s3.9,2.2,3.9,6.8s-1.5,6.8-3.9,6.8C1220.4,3624.7,1219,3622.4,1219,3617.8z
			 M1225.6,3617.8c0-3.9-1.1-5.9-2.8-5.9c-1.7,0-2.8,2-2.8,5.9c0,4,1.1,6,2.8,6S1225.6,3621.8,1225.6,3617.8z"/>
		<path d="M1229.3,3623.5h3v-10.7h-2.3v-0.7c1.1-0.2,1.9-0.5,2.5-0.8h0.8v12.2h2.7v0.9h-6.8v-0.9H1229.3z"/>
	</g>
	<g class="st2">
		<path d="M1411.1,3623.8c4.4-3.8,6.2-6.5,6.2-8.9c0-1.6-0.8-2.9-2.7-2.9c-1.1,0-2.2,0.7-2.9,1.6l-0.7-0.6c1-1.1,2.1-1.9,3.7-1.9
			c2.3,0,3.6,1.5,3.6,3.8c0,2.8-2.1,5.5-5.6,8.8c0.7-0.1,1.5-0.1,2.2-0.1h4.1v0.9h-7.9L1411.1,3623.8L1411.1,3623.8z"/>
		<path d="M1420.9,3617.8c0-4.6,1.5-6.8,3.9-6.8s3.9,2.2,3.9,6.8s-1.5,6.8-3.9,6.8C1422.4,3624.7,1420.9,3622.4,1420.9,3617.8z
			 M1427.6,3617.8c0-3.9-1.1-5.9-2.8-5.9c-1.7,0-2.8,2-2.8,5.9c0,4,1.1,6,2.8,6S1427.6,3621.8,1427.6,3617.8z"/>
		<path d="M1430.4,3623.8c4.4-3.8,6.2-6.5,6.2-8.9c0-1.6-0.8-2.9-2.7-2.9c-1.1,0-2.2,0.7-2.9,1.6l-0.7-0.6c1-1.1,2.1-1.9,3.7-1.9
			c2.3,0,3.6,1.5,3.6,3.8c0,2.8-2.1,5.5-5.6,8.8c0.7-0.1,1.5-0.1,2.2-0.1h4.1v0.9h-7.9L1430.4,3623.8L1430.4,3623.8z"/>
		<path d="M1440.2,3617.8c0-4.6,1.5-6.8,3.9-6.8s3.9,2.2,3.9,6.8s-1.5,6.8-3.9,6.8C1441.7,3624.7,1440.2,3622.4,1440.2,3617.8z
			 M1446.9,3617.8c0-3.9-1.1-5.9-2.8-5.9c-1.7,0-2.8,2-2.8,5.9c0,4,1.1,6,2.8,6C1445.7,3623.8,1446.9,3621.8,1446.9,3617.8z"/>
		<path d="M1450.2,3623.7c0-0.6,0.4-1,0.9-1s0.9,0.4,0.9,1s-0.4,1-0.9,1S1450.2,3624.3,1450.2,3623.7z"/>
		<path d="M1455,3623.5h3v-10.7h-2.3v-0.7c1.1-0.2,1.9-0.5,2.5-0.8h0.8v12.2h2.7v0.9h-6.8v-0.9H1455z"/>
		<path d="M1464.6,3623.5h3v-10.7h-2.3v-0.7c1.1-0.2,1.9-0.5,2.5-0.8h0.8v12.2h2.7v0.9h-6.8v-0.9H1464.6z"/>
		<path d="M1474,3623.7c0-0.6,0.4-1,0.9-1s0.9,0.4,0.9,1s-0.4,1-0.9,1S1474,3624.3,1474,3623.7z"/>
		<path d="M1478.1,3617.8c0-4.6,1.5-6.8,3.9-6.8s3.9,2.2,3.9,6.8s-1.5,6.8-3.9,6.8C1479.5,3624.7,1478.1,3622.4,1478.1,3617.8z
			 M1484.8,3617.8c0-3.9-1.1-5.9-2.8-5.9c-1.7,0-2.8,2-2.8,5.9c0,4,1.1,6,2.8,6C1483.6,3623.8,1484.8,3621.8,1484.8,3617.8z"/>
		<path d="M1488.4,3623.5h3v-10.7h-2.3v-0.7c1.1-0.2,1.9-0.5,2.5-0.8h0.8v12.2h2.7v0.9h-6.8v-0.9H1488.4z"/>
		<path d="M1503.4,3617.4c-0.6,0-1.1,0.3-1.6,1.2l-0.6-0.4c0.6-1.2,1.4-1.7,2.2-1.7c1.5,0,2.4,1.8,3.6,1.8c0.6,0,1.1-0.3,1.6-1.2
			l0.6,0.4c-0.6,1.1-1.5,1.7-2.3,1.7C1505.4,3619.1,1504.5,3617.4,1503.4,3617.4z"/>
		<path d="M1514.8,3623.8c4.4-3.8,6.2-6.5,6.2-8.9c0-1.6-0.8-2.9-2.7-2.9c-1.1,0-2.2,0.7-2.9,1.6l-0.7-0.6c1-1.1,2.1-1.9,3.7-1.9
			c2.3,0,3.6,1.5,3.6,3.8c0,2.8-2.1,5.5-5.6,8.8c0.7-0.1,1.5-0.1,2.2-0.1h4.1v0.9h-7.9L1514.8,3623.8L1514.8,3623.8z"/>
		<path d="M1524.6,3617.8c0-4.6,1.5-6.8,3.9-6.8s3.9,2.2,3.9,6.8s-1.5,6.8-3.9,6.8C1526.1,3624.7,1524.6,3622.4,1524.6,3617.8z
			 M1531.3,3617.8c0-3.9-1.1-5.9-2.8-5.9c-1.7,0-2.8,2-2.8,5.9c0,4,1.1,6,2.8,6C1530.1,3623.8,1531.3,3621.8,1531.3,3617.8z"/>
		<path d="M1534.1,3623.8c4.4-3.8,6.2-6.5,6.2-8.9c0-1.6-0.8-2.9-2.7-2.9c-1.1,0-2.2,0.7-2.9,1.6l-0.7-0.6c1-1.1,2.1-1.9,3.7-1.9
			c2.3,0,3.6,1.5,3.6,3.8c0,2.8-2.1,5.5-5.6,8.8c0.7-0.1,1.5-0.1,2.2-0.1h4.1v0.9h-7.9L1534.1,3623.8L1534.1,3623.8z"/>
		<path d="M1543.4,3622.9l0.6-0.7c0.8,0.8,1.8,1.6,3.5,1.6s2.9-1.1,2.9-2.8c0-1.8-1.2-3-4.4-3v-0.9c2.9,0,3.9-1.2,3.9-2.8
			c0-1.4-1-2.4-2.5-2.4c-1.1,0-2.2,0.6-2.9,1.4l-0.6-0.7c0.9-0.8,2-1.5,3.5-1.5c2,0,3.5,1.2,3.5,3.2c0,1.7-1,2.8-2.4,3.2v0.1
			c1.6,0.3,2.9,1.5,2.9,3.4c0,2.3-1.7,3.7-4,3.7C1545.5,3624.7,1544.3,3623.7,1543.4,3622.9z"/>
		<path d="M1553.9,3623.7c0-0.6,0.4-1,0.9-1s0.9,0.4,0.9,1s-0.4,1-0.9,1S1553.9,3624.3,1553.9,3623.7z"/>
		<path d="M1558.7,3623.5h3v-10.7h-2.3v-0.7c1.1-0.2,1.9-0.5,2.5-0.8h0.8v12.2h2.7v0.9h-6.8v-0.9H1558.7z"/>
		<path d="M1567.6,3617.8c0-4.6,1.5-6.8,3.9-6.8s3.9,2.2,3.9,6.8s-1.5,6.8-3.9,6.8C1569.1,3624.7,1567.6,3622.4,1567.6,3617.8z
			 M1574.3,3617.8c0-3.9-1.1-5.9-2.8-5.9c-1.7,0-2.8,2-2.8,5.9c0,4,1.1,6,2.8,6C1573.2,3623.8,1574.3,3621.8,1574.3,3617.8z"/>
		<path d="M1577.6,3623.7c0-0.6,0.4-1,0.9-1s0.9,0.4,0.9,1s-0.4,1-0.9,1S1577.6,3624.3,1577.6,3623.7z"/>
		<path d="M1581.3,3622.9l0.6-0.7c0.8,0.8,1.8,1.6,3.5,1.6s2.9-1.1,2.9-2.8c0-1.8-1.2-3-4.4-3v-0.9c2.9,0,3.9-1.2,3.9-2.8
			c0-1.4-1-2.4-2.5-2.4c-1.1,0-2.2,0.6-2.9,1.4l-0.6-0.7c0.9-0.8,2-1.5,3.5-1.5c2,0,3.5,1.2,3.5,3.2c0,1.7-1,2.8-2.4,3.2v0.1
			c1.6,0.3,2.9,1.5,2.9,3.4c0,2.3-1.7,3.7-4,3.7C1583.4,3624.7,1582.2,3623.7,1581.3,3622.9z"/>
		<path d="M1592.1,3623.5h3v-10.7h-2.3v-0.7c1.1-0.2,1.9-0.5,2.5-0.8h0.8v12.2h2.7v0.9h-6.8v-0.9H1592.1z"/>
	</g>
	<g class="st2">
		<path d="M1158.6,3676.3h1.1v13.1h-1.1V3676.3z"/>
		<path d="M1162.5,3687.7l0.7-0.8c1,1.1,2.3,1.7,3.8,1.7c1.9,0,3.2-1,3.2-2.5c0-1.6-1-2.1-2.3-2.7l-2-0.9c-1.2-0.5-2.7-1.4-2.7-3.3
			c0-1.9,1.7-3.3,3.9-3.3c1.6,0,2.9,0.7,3.7,1.6l-0.6,0.7c-0.8-0.8-1.8-1.3-3.1-1.3c-1.7,0-2.8,0.9-2.8,2.2c0,1.5,1.3,2.1,2.2,2.5
			l2,0.9c1.5,0.7,2.8,1.5,2.8,3.5s-1.7,3.6-4.2,3.6C1165.1,3689.7,1163.6,3688.9,1162.5,3687.7z"/>
		<path d="M1173.1,3682.8c0-4.2,2.3-6.8,5.4-6.8c3.2,0,5.5,2.6,5.5,6.8s-2.3,6.8-5.5,6.8C1175.4,3689.7,1173.1,3687,1173.1,3682.8z
			 M1182.9,3682.8c0-3.6-1.7-5.8-4.3-5.8c-2.6,0-4.3,2.2-4.3,5.8s1.7,5.9,4.3,5.9C1181.2,3688.7,1182.9,3686.4,1182.9,3682.8z"/>
		<path d="M1190.8,3688.5h3v-10.7h-2.3v-0.7c1.1-0.2,1.9-0.5,2.5-0.8h0.8v12.2h2.7v0.9h-6.8v-0.9H1190.8z"/>
		<path d="M1207.8,3685.7h-1.9v3.7h-1v-3.7h-5.8v-0.7l5.8-8.7h1v8.5h1.9V3685.7z M1204.9,3684.8v-4.8c0-0.6,0.1-1.6,0.1-2.2h-0.1
			c-0.3,0.6-0.7,1.2-1,1.8l-3.6,5.2H1204.9z"/>
		<path d="M1209.3,3682.8c0-4.6,1.5-6.8,3.9-6.8s3.9,2.2,3.9,6.8s-1.5,6.8-3.9,6.8C1210.8,3689.7,1209.3,3687.4,1209.3,3682.8z
			 M1216,3682.8c0-3.9-1.1-5.9-2.8-5.9c-1.7,0-2.8,2-2.8,5.9c0,4,1.1,6,2.8,6S1216,3686.8,1216,3682.8z"/>
		<path d="M1219,3682.8c0-4.6,1.5-6.8,3.9-6.8s3.9,2.2,3.9,6.8s-1.5,6.8-3.9,6.8C1220.4,3689.7,1219,3687.4,1219,3682.8z
			 M1225.6,3682.8c0-3.9-1.1-5.9-2.8-5.9c-1.7,0-2.8,2-2.8,5.9c0,4,1.1,6,2.8,6S1225.6,3686.8,1225.6,3682.8z"/>
		<path d="M1229.3,3688.5h3v-10.7h-2.3v-0.7c1.1-0.2,1.9-0.5,2.5-0.8h0.8v12.2h2.7v0.9h-6.8v-0.9H1229.3z"/>
	</g>
	<g class="st2">
		<path d="M1411.1,3688.8c4.4-3.8,6.2-6.5,6.2-8.9c0-1.6-0.8-2.9-2.7-2.9c-1.1,0-2.2,0.7-2.9,1.6l-0.7-0.6c1-1.1,2.1-1.9,3.7-1.9
			c2.3,0,3.6,1.5,3.6,3.8c0,2.8-2.1,5.5-5.6,8.8c0.7-0.1,1.5-0.1,2.2-0.1h4.1v0.9h-7.9L1411.1,3688.8L1411.1,3688.8z"/>
		<path d="M1420.9,3682.8c0-4.6,1.5-6.8,3.9-6.8s3.9,2.2,3.9,6.8s-1.5,6.8-3.9,6.8C1422.4,3689.7,1420.9,3687.4,1420.9,3682.8z
			 M1427.6,3682.8c0-3.9-1.1-5.9-2.8-5.9c-1.7,0-2.8,2-2.8,5.9c0,4,1.1,6,2.8,6S1427.6,3686.8,1427.6,3682.8z"/>
		<path d="M1430.4,3688.8c4.4-3.8,6.2-6.5,6.2-8.9c0-1.6-0.8-2.9-2.7-2.9c-1.1,0-2.2,0.7-2.9,1.6l-0.7-0.6c1-1.1,2.1-1.9,3.7-1.9
			c2.3,0,3.6,1.5,3.6,3.8c0,2.8-2.1,5.5-5.6,8.8c0.7-0.1,1.5-0.1,2.2-0.1h4.1v0.9h-7.9L1430.4,3688.8L1430.4,3688.8z"/>
		<path d="M1440.2,3682.8c0-4.6,1.5-6.8,3.9-6.8s3.9,2.2,3.9,6.8s-1.5,6.8-3.9,6.8C1441.7,3689.7,1440.2,3687.4,1440.2,3682.8z
			 M1446.9,3682.8c0-3.9-1.1-5.9-2.8-5.9c-1.7,0-2.8,2-2.8,5.9c0,4,1.1,6,2.8,6C1445.7,3688.8,1446.9,3686.8,1446.9,3682.8z"/>
		<path d="M1450.2,3688.7c0-0.6,0.4-1,0.9-1s0.9,0.4,0.9,1s-0.4,1-0.9,1S1450.2,3689.3,1450.2,3688.7z"/>
		<path d="M1455,3688.5h3v-10.7h-2.3v-0.7c1.1-0.2,1.9-0.5,2.5-0.8h0.8v12.2h2.7v0.9h-6.8v-0.9H1455z"/>
		<path d="M1464.6,3688.5h3v-10.7h-2.3v-0.7c1.1-0.2,1.9-0.5,2.5-0.8h0.8v12.2h2.7v0.9h-6.8v-0.9H1464.6z"/>
		<path d="M1474,3688.7c0-0.6,0.4-1,0.9-1s0.9,0.4,0.9,1s-0.4,1-0.9,1S1474,3689.3,1474,3688.7z"/>
		<path d="M1478.1,3682.8c0-4.6,1.5-6.8,3.9-6.8s3.9,2.2,3.9,6.8s-1.5,6.8-3.9,6.8C1479.5,3689.7,1478.1,3687.4,1478.1,3682.8z
			 M1484.8,3682.8c0-3.9-1.1-5.9-2.8-5.9c-1.7,0-2.8,2-2.8,5.9c0,4,1.1,6,2.8,6C1483.6,3688.8,1484.8,3686.8,1484.8,3682.8z"/>
		<path d="M1488.4,3688.5h3v-10.7h-2.3v-0.7c1.1-0.2,1.9-0.5,2.5-0.8h0.8v12.2h2.7v0.9h-6.8v-0.9H1488.4z"/>
		<path d="M1503.4,3682.4c-0.6,0-1.1,0.3-1.6,1.2l-0.6-0.4c0.6-1.2,1.4-1.7,2.2-1.7c1.5,0,2.4,1.8,3.6,1.8c0.6,0,1.1-0.3,1.6-1.2
			l0.6,0.4c-0.6,1.1-1.5,1.7-2.3,1.7C1505.4,3684.1,1504.5,3682.4,1503.4,3682.4z"/>
		<path d="M1514.8,3688.8c4.4-3.8,6.2-6.5,6.2-8.9c0-1.6-0.8-2.9-2.7-2.9c-1.1,0-2.2,0.7-2.9,1.6l-0.7-0.6c1-1.1,2.1-1.9,3.7-1.9
			c2.3,0,3.6,1.5,3.6,3.8c0,2.8-2.1,5.5-5.6,8.8c0.7-0.1,1.5-0.1,2.2-0.1h4.1v0.9h-7.9L1514.8,3688.8L1514.8,3688.8z"/>
		<path d="M1524.6,3682.8c0-4.6,1.5-6.8,3.9-6.8s3.9,2.2,3.9,6.8s-1.5,6.8-3.9,6.8C1526.1,3689.7,1524.6,3687.4,1524.6,3682.8z
			 M1531.3,3682.8c0-3.9-1.1-5.9-2.8-5.9c-1.7,0-2.8,2-2.8,5.9c0,4,1.1,6,2.8,6C1530.1,3688.8,1531.3,3686.8,1531.3,3682.8z"/>
		<path d="M1534.1,3688.8c4.4-3.8,6.2-6.5,6.2-8.9c0-1.6-0.8-2.9-2.7-2.9c-1.1,0-2.2,0.7-2.9,1.6l-0.7-0.6c1-1.1,2.1-1.9,3.7-1.9
			c2.3,0,3.6,1.5,3.6,3.8c0,2.8-2.1,5.5-5.6,8.8c0.7-0.1,1.5-0.1,2.2-0.1h4.1v0.9h-7.9L1534.1,3688.8L1534.1,3688.8z"/>
		<path d="M1543.4,3687.9l0.6-0.7c0.8,0.8,1.8,1.6,3.5,1.6s2.9-1.1,2.9-2.8c0-1.8-1.2-3-4.4-3v-0.9c2.9,0,3.9-1.2,3.9-2.8
			c0-1.4-1-2.4-2.5-2.4c-1.1,0-2.2,0.6-2.9,1.4l-0.6-0.7c0.9-0.8,2-1.5,3.5-1.5c2,0,3.5,1.2,3.5,3.2c0,1.7-1,2.8-2.4,3.2v0.1
			c1.6,0.3,2.9,1.5,2.9,3.4c0,2.3-1.7,3.7-4,3.7C1545.5,3689.7,1544.3,3688.7,1543.4,3687.9z"/>
		<path d="M1553.9,3688.7c0-0.6,0.4-1,0.9-1s0.9,0.4,0.9,1s-0.4,1-0.9,1S1553.9,3689.3,1553.9,3688.7z"/>
		<path d="M1558.7,3688.5h3v-10.7h-2.3v-0.7c1.1-0.2,1.9-0.5,2.5-0.8h0.8v12.2h2.7v0.9h-6.8v-0.9H1558.7z"/>
		<path d="M1567.6,3682.8c0-4.6,1.5-6.8,3.9-6.8s3.9,2.2,3.9,6.8s-1.5,6.8-3.9,6.8C1569.1,3689.7,1567.6,3687.4,1567.6,3682.8z
			 M1574.3,3682.8c0-3.9-1.1-5.9-2.8-5.9c-1.7,0-2.8,2-2.8,5.9c0,4,1.1,6,2.8,6C1573.2,3688.8,1574.3,3686.8,1574.3,3682.8z"/>
		<path d="M1577.6,3688.7c0-0.6,0.4-1,0.9-1s0.9,0.4,0.9,1s-0.4,1-0.9,1S1577.6,3689.3,1577.6,3688.7z"/>
		<path d="M1581.3,3687.9l0.6-0.7c0.8,0.8,1.8,1.6,3.5,1.6s2.9-1.1,2.9-2.8c0-1.8-1.2-3-4.4-3v-0.9c2.9,0,3.9-1.2,3.9-2.8
			c0-1.4-1-2.4-2.5-2.4c-1.1,0-2.2,0.6-2.9,1.4l-0.6-0.7c0.9-0.8,2-1.5,3.5-1.5c2,0,3.5,1.2,3.5,3.2c0,1.7-1,2.8-2.4,3.2v0.1
			c1.6,0.3,2.9,1.5,2.9,3.4c0,2.3-1.7,3.7-4,3.7C1583.4,3689.7,1582.2,3688.7,1581.3,3687.9z"/>
		<path d="M1592.1,3688.5h3v-10.7h-2.3v-0.7c1.1-0.2,1.9-0.5,2.5-0.8h0.8v12.2h2.7v0.9h-6.8v-0.9H1592.1z"/>
	</g>
	<line id="선_381" class="st3" x1="1045.8" y1="3390.4" x2="1045.8" y2="3714.4"/>
	<line id="선_384" class="st3" x1="1349.8" y1="3390.4" x2="1349.8" y2="3714.4"/>
	<line id="선_347" class="st4" x1="740" y1="3390.4" x2="1660" y2="3390.4"/>
	<line id="선_348-6" class="st4" x1="740" y1="3779.4" x2="1660" y2="3779.4"/>
</g>
<g class="st2">
	<path d="M329.7,352.8h1.1V366h-1.1V352.8z"/>
	<path d="M333.6,364.2l0.7-0.8c1,1.1,2.3,1.7,3.8,1.7c1.9,0,3.2-1,3.2-2.5c0-1.6-1-2.1-2.3-2.7l-2-0.9c-1.2-0.5-2.7-1.4-2.7-3.3
		s1.7-3.3,3.9-3.3c1.6,0,2.9,0.7,3.7,1.6l-0.6,0.7c-0.8-0.8-1.8-1.3-3.1-1.3c-1.7,0-2.8,0.9-2.8,2.2c0,1.5,1.3,2.1,2.2,2.5l2,0.9
		c1.5,0.7,2.8,1.5,2.8,3.5s-1.7,3.6-4.2,3.6C336.1,366.2,334.6,365.4,333.6,364.2z"/>
	<path d="M344.2,359.4c0-4.2,2.3-6.8,5.4-6.8c3.2,0,5.5,2.6,5.5,6.8c0,4.2-2.3,6.8-5.5,6.8C346.4,366.2,344.2,363.5,344.2,359.4z
		 M354,359.4c0-3.6-1.7-5.8-4.3-5.8c-2.6,0-4.3,2.2-4.3,5.8c0,3.6,1.7,5.9,4.3,5.9C352.2,365.2,354,362.9,354,359.4z"/>
	<path d="M361.8,365.1h3v-10.7h-2.3v-0.7c1.1-0.2,1.9-0.5,2.5-0.8h0.8v12.2h2.7v0.9h-6.8L361.8,365.1L361.8,365.1z"/>
	<path d="M378.8,362.2H377v3.7h-1v-3.7h-5.8v-0.7l5.8-8.7h1v8.5h1.9v0.9H378.8z M375.9,361.3v-4.8c0-0.6,0.1-1.6,0.1-2.2l0,0
		c-0.3,0.6-0.7,1.2-1,1.8l-3.6,5.2H375.9z"/>
	<path d="M380.4,359.4c0-4.6,1.5-6.8,3.9-6.8s3.9,2.2,3.9,6.8c0,4.6-1.5,6.8-3.9,6.8C381.9,366.2,380.4,364,380.4,359.4z
		 M387.1,359.4c0-3.9-1.1-5.9-2.8-5.9c-1.7,0-2.8,2-2.8,5.9c0,4,1.1,6,2.8,6C385.9,365.3,387.1,363.3,387.1,359.4z"/>
	<path d="M390,359.4c0-4.6,1.5-6.8,3.9-6.8s3.9,2.2,3.9,6.8c0,4.6-1.5,6.8-3.9,6.8C391.5,366.2,390,364,390,359.4z M396.7,359.4
		c0-3.9-1.1-5.9-2.8-5.9c-1.7,0-2.8,2-2.8,5.9c0,4,1.1,6,2.8,6C395.6,365.3,396.7,363.3,396.7,359.4z"/>
	<path d="M400.3,365.1h3v-10.7H401v-0.7c1.1-0.2,1.9-0.5,2.5-0.8h0.8v12.2h2.7v0.9h-6.8L400.3,365.1L400.3,365.1z"/>
	<path d="M417.8,360.2c-2.3,0-4.1-1.6-4.1-3.9s1.7-3.9,4.1-3.9c2.3,0,4.1,1.6,4.1,3.9S420.2,360.2,417.8,360.2z M417.8,359.3
		c1.8,0,3.1-1.3,3.1-3s-1.4-3-3.1-3c-1.8,0-3.1,1.3-3.1,3C414.7,358,416.1,359.3,417.8,359.3z M426.9,366v0.8h-10.6v-5h1v4.2H426.9z
		 M426.3,363.1h-1v-11.8h1V363.1z"/>
	<path d="M444.3,359v0.8h-14.5V359H444.3z M430.8,357c2.5-0.3,5.8-1.8,5.8-3.9v-0.2h-5.3v-0.8H443v0.8h-5.3v0.2
		c0,2.2,3.3,3.6,5.7,3.9l-0.4,0.8c-2.3-0.4-5.1-1.5-5.9-3.4c-0.9,1.9-3.6,3.1-6,3.4L430.8,357z M442.6,364.3c0,1.8-2,2.8-5.4,2.8
		s-5.5-1-5.5-2.8s2.1-2.9,5.5-2.9C440.5,361.5,442.6,362.5,442.6,364.3z M441.6,364.3c0-1.3-1.7-2.1-4.5-2.1s-4.5,0.8-4.5,2.1
		c0,1.3,1.7,2.1,4.5,2.1S441.6,365.6,441.6,364.3z"/>
	<path d="M455.5,355.9c0,2.8,2.2,5.7,4.3,6.8l-0.6,0.7c-1.7-0.9-3.4-3-4.1-5.3c-0.7,2.5-2.4,4.6-4.2,5.6l-0.6-0.8
		c2.1-1.1,4.3-4.2,4.3-7.1v-3.2h0.9L455.5,355.9L455.5,355.9z M465.4,358.7h-2.8v8.5h-1v-16h1v6.7h2.8V358.7z"/>
	<path d="M480,351.2v8.6h-1V356h-3.7c-0.2,2-1.8,3.3-4,3.3c-2.4,0-4.1-1.5-4.1-3.6c0-2.2,1.7-3.6,4.1-3.6c2.2,0,3.8,1.3,4,3.2h3.7
		v-4L480,351.2L480,351.2z M474.5,355.7c0-1.6-1.3-2.8-3.1-2.8s-3.1,1.2-3.1,2.8c0,1.6,1.3,2.8,3.1,2.8S474.5,357.3,474.5,355.7z
		 M479.1,360.7h1v6.3h-10v-6.3h1v2.3h8.1v-2.3H479.1z M479.1,363.8H471v2.4h8.1V363.8z"/>
	<path d="M492.2,360c-1.8-0.6-3.3-2-4-3.7c-0.7,2-2.3,3.5-4.1,4.2l-0.5-0.8c2.3-0.8,4.1-2.9,4.1-5.3v-1.1h-3.8v-0.8h8.5v0.8h-3.8
		v1.1c0,2.2,1.8,4.1,4,4.9L492.2,360z M496,364.3c0,1.8-2,2.8-5.2,2.8s-5.1-1-5.1-2.8s1.9-2.8,5.1-2.8S496,362.5,496,364.3z
		 M495.1,364.3c0-1.3-1.7-2.1-4.2-2.1c-2.6,0-4.2,0.8-4.2,2.1s1.7,2.1,4.2,2.1S495.1,365.6,495.1,364.3z M498.4,355.5v0.8h-2.5v4.6
		h-1v-9.7h1v4.3L498.4,355.5L498.4,355.5z"/>
	<path d="M506.1,352.6v4.4h5.4v-4.4h1v10.7h-7.3v-10.7H506.1z M506.1,362.5h5.4v-4.6h-5.4V362.5z M517.1,351.2v16h-1v-16H517.1z"/>
	<path d="M530.9,359v1.8h2.4v3.3h-9.8v2.1h10.3v0.8h-11.2v-3.6h9.8v-1.8h-9.8v-0.8h2.3V359h-4.1v-0.8h14.4v0.8H530.9z M522.4,354.2
		c0-1.8,2.1-2.8,5.5-2.8c3.5,0,5.5,1,5.5,2.8s-2.1,2.8-5.5,2.8C524.4,357,522.4,356.1,522.4,354.2z M523.4,354.2
		c0,1.3,1.7,2.1,4.5,2.1s4.6-0.8,4.6-2.1c0-1.3-1.8-2-4.6-2C525.1,352.2,523.4,353,523.4,354.2z M529.9,359h-4.2v1.8h4.2V359z"/>
	<path d="M541.5,357.7c0-0.6,0.4-1,0.9-1s0.9,0.4,0.9,1s-0.4,1-0.9,1C542,358.7,541.5,358.3,541.5,357.7z M541.5,365.2
		c0-0.6,0.4-1,0.9-1s0.9,0.4,0.9,1s-0.4,1-0.9,1C542,366.2,541.5,365.8,541.5,365.2z"/>
	<path d="M549.5,362.7c0-1.8,1.3-3.1,2.5-3.7v-0.1c-0.9-0.6-1.8-1.6-1.8-3c0-1.9,1.5-3.2,3.4-3.2c2.2,0,3.5,1.5,3.5,3.4
		c0,1.4-1.1,2.7-1.8,3.3v0.1c1.1,0.7,2.2,1.6,2.2,3.4c0,1.9-1.6,3.3-3.9,3.3C551.2,366.2,549.5,364.7,549.5,362.7z M556.5,362.9
		c0-2-1.8-2.7-3.8-3.5c-1.2,0.7-2.1,1.9-2.1,3.3c0,1.5,1.3,2.7,3.1,2.7C555.3,365.4,556.5,364.3,556.5,362.9z M556.1,356.1
		c0-1.4-0.9-2.6-2.5-2.6c-1.4,0-2.4,1-2.4,2.4c0,1.8,1.6,2.5,3.3,3.2C555.6,358.2,556.1,357.2,556.1,356.1z"/>
	<path d="M559.3,359.4c0-4.6,1.5-6.8,3.9-6.8s3.9,2.2,3.9,6.8c0,4.6-1.5,6.8-3.9,6.8C560.8,366.2,559.3,364,559.3,359.4z M566,359.4
		c0-3.9-1.1-5.9-2.8-5.9s-2.8,2-2.8,5.9c0,4,1.1,6,2.8,6C564.9,365.3,566,363.3,566,359.4z"/>
	<path d="M568.7,356.7c0-2.6,1.1-4.1,2.8-4.1c1.8,0,2.8,1.5,2.8,4.1c0,2.7-1.1,4.2-2.8,4.2C569.8,360.9,568.7,359.4,568.7,356.7z
		 M573.6,356.7c0-2.2-0.8-3.4-2-3.4s-2,1.2-2,3.4c0,2.2,0.8,3.4,2,3.4S573.6,358.9,573.6,356.7z M579.3,352.6h0.8l-7.3,13.6H572
		L579.3,352.6z M577.6,362.1c0-2.6,1.1-4.1,2.9-4.1c1.7,0,2.8,1.5,2.8,4.1c0,2.7-1.1,4.1-2.8,4.1
		C578.7,366.2,577.6,364.7,577.6,362.1z M582.5,362.1c0-2.2-0.8-3.4-2-3.4s-2,1.2-2,3.4s0.8,3.4,2,3.4S582.5,364.3,582.5,362.1z"/>
</g>
</svg>
