<?xml version="1.0" encoding="utf-8"?>
<!-- Generator: Adobe Illustrator 25.1.0, SVG Export Plug-In . SVG Version: 6.00 Build 0)  -->
<svg version="1.1" id="레이어_1" xmlns="http://www.w3.org/2000/svg" xmlns:xlink="http://www.w3.org/1999/xlink" x="0px"
	 y="0px" viewBox="0 0 919 326" style="enable-background:new 0 0 919 326;" xml:space="preserve">
<style type="text/css">
	.st0{enable-background:new    ;}
	.st1{fill:#DF1C2F;}
	.st2{fill:none;}
	.st3{fill:none;stroke:#D5D5D5;}
	.st4{fill:none;stroke:#DF1C2F;stroke-width:0.283;}
</style>
<g id="그룹_5864" transform="translate(-740 -3299)">
	<g id="그룹_5842" transform="translate(0 1978.067)">
		<g class="st0">
			<path class="st1" d="M747.6,1331.3c0,3.3,1.3,6.7,4.3,8.1l-1.6,2.1c-1.9-1-3.2-2.8-4-5c-0.8,2.3-2.2,4.3-4.3,5.3l-1.6-2.1
				c3.1-1.5,4.5-5,4.5-8.4v-2.7h2.7V1331.3z M758,1336.5h-2.7v9.1h-2.6v-18.4h2.6v7.1h2.7V1336.5z"/>
			<path class="st1" d="M774.7,1327.2v9.9H772v-3.7h-2.9c-0.5,2-2.4,3.4-4.8,3.4c-2.8,0-4.8-1.8-4.8-4.4s2.1-4.4,4.8-4.4
				c2.3,0,4.2,1.3,4.7,3.3h2.9v-4.1H774.7z M766.7,1332.4c0-1.4-1-2.2-2.3-2.2c-1.3,0-2.3,0.8-2.3,2.2c0,1.4,1,2.2,2.3,2.2
				C765.7,1334.6,766.7,1333.8,766.7,1332.4z M772,1337.9h2.6v7.5h-12.2v-7.5h2.6v1.8h7V1337.9z M772,1341.7h-7v1.6h7V1341.7z"/>
			<path class="st1" d="M787.4,1337.6c-2-0.6-3.4-1.8-4.2-3.3c-0.8,1.8-2.3,3.3-4.4,4l-1.3-2.1c3-1,4.3-3.3,4.3-5.6h-3.7v-2.1h10
				v2.1h-3.6c0,2.1,1.3,4.2,4.2,5L787.4,1337.6z M792.4,1342.1c0,2.2-2.4,3.6-6.2,3.6c-3.8,0-6.2-1.3-6.2-3.6c0-2.3,2.4-3.6,6.2-3.6
				C790,1338.5,792.4,1339.8,792.4,1342.1z M789.7,1342.1c0-1.1-1.3-1.6-3.6-1.6c-2.4,0-3.6,0.5-3.6,1.6c0,1,1.3,1.5,3.6,1.5
				C788.5,1343.6,789.7,1343.1,789.7,1342.1z M794.6,1331.5v2.2h-2.4v4.5h-2.6v-10.9h2.6v4.2H794.6z"/>
			<path class="st1" d="M810.1,1336.2h-8.7v-8.2h2.6v2.2h3.5v-2.2h2.6v1.6h3.3v-2.3h2.6v9.4h-2.6v-1.8h-3.3V1336.2z M816.5,1343.4v2
				h-12.6v-5h9.5v-1h-9.5v-2H816v4.9h-9.5v1.1H816.5z M807.5,1332.1H804v2h3.5V1332.1z M810.1,1331.6v1.4h3.3v-1.4H810.1z"/>
			<path class="st1" d="M833.1,1327.5h2.5v17.3h-2.5v-8.7h-1.4c-0.2,3.6-1.7,5.8-4,5.8c-2.4,0-4-2.5-4-6.7c0-4.2,1.5-6.7,4-6.7
				c2.2,0,3.7,2,4,5.5h1.5V1327.5z M829.3,1335.2c0-2.8-0.6-4.2-1.6-4.2c-1,0-1.6,1.4-1.6,4.2c0,2.8,0.6,4.2,1.6,4.2
				C828.7,1339.4,829.3,1338.1,829.3,1335.2z M839.3,1327.2v18.4h-2.5v-18.4H839.3z"/>
			<path class="st1" d="M845.5,1339.2c2.3-0.1,4.7-0.2,7.1-0.7l0.3,2.2c-3,0.6-5.8,0.8-8.5,0.8h-1.6v-12.2h2.6V1339.2z
				 M857.4,1327.2v18.5h-2.6v-10.7h-5v-2.1h5v-5.7H857.4z"/>
			<path class="st1" d="M867.5,1332.2c0,3,1.5,6.2,4.6,7.5l-1.4,2.1c-2.1-0.9-3.6-2.7-4.4-4.9c-0.8,2.4-2.3,4.4-4.5,5.4l-1.5-2.1
				c3.1-1.4,4.6-4.8,4.6-7.9v-1h-3.8v-2.2h10.3v2.2h-3.8V1332.2z M875.6,1327.2v18.4H873v-18.4H875.6z"/>
			<path class="st1" d="M893,1336.6c-2-0.6-3.4-1.8-4.2-3.3c-0.8,1.7-2.3,3.1-4.4,3.7l-1.2-2.1c2.9-0.9,4.2-3,4.3-4.9h-3.6v-2.1h9.9
				v2.1h-3.6c0.1,1.9,1.4,3.7,4.1,4.5L893,1336.6z M899.2,1343.4v2h-12.6v-5.1h9.5v-1h-9.5v-2h12.2v5h-9.5v1.1H899.2z M896,1331
				v-3.8h2.6v9.4H896v-3.5h-2.8v-2.1H896z"/>
			<path class="st1" d="M911.1,1328.3c0,4.9-3.1,8.2-8.6,9.6l-1-2.1c4.1-1,6.3-3,6.7-5.5h-5.8v-2.1H911.1z M904.2,1338.2h11.9v7.2
				h-11.9V1338.2z M906.8,1343.4h6.8v-3.1h-6.8V1343.4z M918.6,1333.4h-2.4v4.1h-2.6v-10.3h2.6v4h2.4V1333.4z"/>
			<path class="st1" d="M936,1337.2c-3.9,0.7-8.1,0.7-11.3,0.7l-0.3-1.8c1.3,0,2.8,0,4.4,0v-0.8c-2-0.2-3.2-1.1-3.2-2.3
				c0-1.5,1.8-2.4,4.5-2.4c2.7,0,4.5,0.9,4.5,2.4c0,1.3-1.2,2.1-3.2,2.3v0.7c1.5-0.1,3-0.2,4.4-0.4L936,1337.2z M935.3,1330.1h-10.5
				v-1.7h3.9v-1.3h2.6v1.3h3.9V1330.1z M929.5,1343.8h10.4v1.7h-13v-4.2h9.8v-0.8h-9.8v-1.7h12.4v4.2h-9.7V1343.8z M930.1,1333.7
				c1.3,0,2-0.3,2-0.8c0-0.5-0.7-0.8-2-0.8c-1.3,0-2,0.3-2,0.8C928.1,1333.4,928.8,1333.7,930.1,1333.7z M941.5,1331.6v2.2h-2.3v4.3
				h-2.6v-10.9h2.6v4.4H941.5z"/>
			<path class="st1" d="M959.7,1335.9v2.1H943v-2.1h7v-1.5h-5v-6.4h12.6v2.1h-10v2.2h10.1v2.1h-5.1v1.5H959.7z M957.7,1342.3
				c0,2.2-2.4,3.4-6.4,3.4c-4,0-6.4-1.2-6.4-3.4c0-2.2,2.4-3.4,6.4-3.4C955.3,1338.9,957.7,1340.1,957.7,1342.3z M955,1342.3
				c0-1-1.3-1.4-3.7-1.4c-2.5,0-3.7,0.4-3.7,1.4c0,1,1.3,1.4,3.7,1.4C953.8,1343.7,955,1343.3,955,1342.3z"/>
		</g>
	</g>
	<g id="사각형_520" transform="translate(740 3348)">
		<rect class="st2" width="224" height="277"/>
		<rect x="0.5" y="0.5" class="st3" width="223" height="276"/>
	</g>
	<g class="st0">
		<path class="st1" d="M851.2,3376.1v1.5h-6.4v3.7h-1.9v-3.7h-6.5v-1.5h10.7c0.4-1.9,0.4-3.4,0.4-4.7h-9.2v-1.5h11.1v1.4
			c0,1.4,0,2.9-0.4,4.9H851.2z M840.1,3383.6h9.5v1.5h-11.4v-5.2h1.9V3383.6z"/>
		<path class="st1" d="M862.2,3378.6c-1.8-0.6-3.1-1.9-3.8-3.5c-0.7,1.8-2.1,3.2-4,3.9l-1-1.4c2.6-0.9,4-3.1,4-5.5v-1.9h1.9v1.9
			c0,2.2,1.4,4.2,3.9,5.1L862.2,3378.6z M857.9,3383.6h9.1v1.5H856v-5.1h1.9V3383.6z M868.6,3374v1.5h-2.3v5.6h-1.9v-12h1.9v4.9
			H868.6z"/>
	</g>
	<g id="사각형_520-2" transform="translate(1204 3348)">
		<rect class="st2" width="224" height="277"/>
		<rect x="0.5" y="0.5" class="st3" width="223" height="276"/>
	</g>
	<g class="st0">
		<path d="M1236.6,3485.6c0,3.2-1.3,6.3-5.3,8.3l-0.4-0.6c2.3-1.1,3.7-2.6,4.4-4.3l-4.2,0.4l-0.2-0.6l4.6-0.3
			c0.3-0.7,0.4-1.5,0.4-2.3h-4.5v-0.6H1236.6z M1241.4,3489.8h-2v6.1h-0.7v-11.5h0.7v4.8h2V3489.8z"/>
		<path d="M1253.1,3490.8v0.6h-10.4v-0.6h4.9v-1.4h-3.5v-4.5h0.7v1.7h6.3v-1.7h0.7v4.5h-3.5v1.4H1253.1z M1244.7,3495h7.2v0.6h-7.9
			v-3.2h0.7V3495z M1244.7,3488.8h6.3v-1.8h-6.3V3488.8z"/>
		<path d="M1265,3489.9v0.6h-10.4v-0.6h4.5v-2.3h0.7v2.3H1265z M1263.8,3493.8c0,1.3-1.5,2.1-4,2.1s-4-0.8-4-2.1
			c0-1.3,1.5-2.1,4-2.1S1263.8,3492.5,1263.8,3493.8z M1263,3485.6h-7.1v-0.6h7.8v1c0,0.9,0,1.8-0.3,3l-0.7-0.1
			c0.3-1.2,0.3-2,0.3-2.9V3485.6z M1263.1,3493.8c0-0.9-1.3-1.5-3.3-1.5s-3.3,0.6-3.3,1.5s1.3,1.5,3.3,1.5
			S1263.1,3494.7,1263.1,3493.8z"/>
		<path d="M1272.8,3490.7c-1.3-0.5-2.4-1.5-2.9-2.7c-0.5,1.4-1.6,2.5-3,3l-0.4-0.5c1.6-0.6,3-2.1,3-3.8v-0.8h-2.7v-0.6h6.1v0.6h-2.7
			v0.8c0,1.6,1.3,3,2.9,3.5L1272.8,3490.7z M1275.5,3493.8c0,1.3-1.4,2.1-3.7,2.1s-3.7-0.7-3.7-2.1c0-1.3,1.4-2.1,3.7-2.1
			S1275.5,3492.5,1275.5,3493.8z M1274.9,3493.8c0-0.9-1.2-1.5-3.1-1.5c-1.8,0-3,0.6-3,1.5c0,0.9,1.2,1.5,3,1.5
			C1273.7,3495.3,1274.9,3494.7,1274.9,3493.8z M1277.2,3487.5v0.6h-1.8v3.3h-0.7v-7h0.7v3.1H1277.2z"/>
		<path d="M1285.3,3484.6h0.7v10.6h-0.7v-5.7h-1.8c-0.1,2.2-1,3.7-2.4,3.7c-1.5,0-2.4-1.5-2.4-3.9c0-2.4,1-3.9,2.4-3.9
			c1.4,0,2.4,1.4,2.4,3.6h1.8V3484.6z M1282.9,3489.3c0-1.9-0.7-3.3-1.8-3.3c-1.1,0-1.8,1.4-1.8,3.3c0,1.9,0.7,3.3,1.8,3.3
			C1282.2,3492.6,1282.9,3491.3,1282.9,3489.3z M1288.3,3484.4v11.6h-0.7v-11.6H1288.3z"/>
		<path d="M1294.3,3487.7c0,2,1.6,4.1,3.1,4.9l-0.4,0.6c-1.3-0.7-2.6-2.2-3.1-3.9c-0.5,1.8-1.7,3.4-3,4.1l-0.4-0.5
			c1.5-0.8,3.1-3,3.1-5.1v-2.3h0.7V3487.7z M1299.9,3484.4v11.6h-0.7v-6.9h-3v-0.6h3v-4.1H1299.9z"/>
		<path d="M1311.1,3489.8h-5.2v-5h0.7v1.8h3.9v-1.8h0.7V3489.8z M1310.4,3487.2h-3.9v2.1h3.9V3487.2z M1307.7,3495.2h6.9v0.6h-7.6
			v-2.7h6.5v-1.5h-6.5v-0.6h7.2v2.6h-6.5V3495.2z M1316,3487v0.6h-1.8v2.8h-0.7v-6h0.7v2.6H1316z"/>
		<path d="M1322.7,3490.5c-1.2-0.5-2-1.4-2.4-2.4c-0.4,1.1-1.3,2.2-2.5,2.7l-0.4-0.5c1.5-0.7,2.5-2.2,2.5-3.5v-1.7h0.7v1.7
			c0,1.3,1,2.6,2.5,3.2L1322.7,3490.5z M1327,3493.9c0,1.3-1.4,2-3.8,2c-2.4,0-3.8-0.7-3.8-2s1.4-2,3.8-2
			C1325.6,3491.9,1327,3492.6,1327,3493.9z M1326.3,3493.9c0-0.9-1.2-1.5-3.1-1.5c-1.9,0-3.1,0.5-3.1,1.5c0,0.9,1.2,1.5,3.1,1.5
			C1325.1,3495.3,1326.3,3494.8,1326.3,3493.9z M1324.4,3491.2h-0.7v-6.6h0.7v3h1.8v-3.3h0.7v7.2h-0.7v-3.3h-1.8V3491.2z"/>
		<path d="M1333.4,3492.6c1.2-0.1,2.4-0.1,3.6-0.3l0.1,0.5c-2.5,0.4-5.4,0.5-7.6,0.5l-0.1-0.6c1,0,2.2,0,3.4-0.1v-2.5h-2.5v-4.6h5.8
			v0.6h-5.1v3.4h5.1v0.6h-2.7V3492.6z M1338.5,3484.4v11.6h-0.7v-11.6H1338.5z"/>
		<path d="M1351.7,3490.4v0.6h-10.5v-0.6H1351.7z M1343.3,3495h7.2v0.6h-7.9v-3.3h0.7V3495z M1350.4,3488.6h-7.8v-3.8h0.7v3.3h7.1
			V3488.6z"/>
		<path d="M1360.2,3485.5h0.7v7.4h-4.3v-7.4h0.7v3h3V3485.5z M1360.2,3489h-3v3.3h3V3489z M1365.8,3484.4v11.5h-0.7v-6.3h-1.9v5.7
			h-0.7v-10.6h0.7v4.4h1.9v-4.7H1365.8z"/>
		<path d="M1373.6,3490.2v1.3h3.5v2.3h-7v1.4h7.4v0.6h-8.1v-2.5h7v-1.3h-7.1v-0.5h3.6v-1.3h-4.9v-0.6h10.4v0.6H1373.6z
			 M1368.6,3488.4c1.9-0.2,4.1-0.9,4.2-2.4h-3.7v-0.6h3.8v-1.2h0.7v1.2h3.8v0.6h-3.8c0.1,1.5,2.3,2.3,4.2,2.4l-0.2,0.5
			c-1.8-0.2-3.7-0.8-4.4-2.1c-0.7,1.3-2.6,1.9-4.4,2.1L1368.6,3488.4z"/>
		<path d="M1385.8,3485.6c0,3.1-1.6,6.1-5.3,8l-0.4-0.5c3.1-1.5,4.8-4,5-6.8h-4.5v-0.6H1385.8z M1390.7,3489.8h-2v6.1h-0.7v-11.5
			h0.7v4.8h2V3489.8z"/>
		<path d="M1402.4,3493.7v0.6h-10.5v-0.6H1402.4z M1401.4,3490.9c-1.5-0.4-3.6-1.7-4.3-3.5c-0.7,1.8-2.8,3.1-4.3,3.5l-0.3-0.6
			c1.7-0.3,4.3-2.1,4.3-4.2v-0.9h0.7v0.9c0,2.1,2.7,3.9,4.3,4.2L1401.4,3490.9z"/>
	</g>
	<g class="st0">
		<path d="M1240.8,3509.5h0.7v7.4h-4.3v-7.4h0.7v3h3V3509.5z M1240.8,3513h-3v3.3h3V3513z M1246.4,3508.4v11.5h-0.7v-6.3h-1.9v5.7
			h-0.7v-10.6h0.7v4.4h1.9v-4.7H1246.4z"/>
		<path d="M1256,3514.6c-2.4,0.4-5.2,0.4-7.3,0.5l-0.1-0.6c0.8,0,1.7,0,2.6,0v-2.6h0.7v2.6c1.3-0.1,2.7-0.2,4-0.3L1256,3514.6z
			 M1253.9,3513.2c0.3-1.5,0.3-2.6,0.3-3.3h-4.9v-0.6h5.6v0.5c0,0.7,0,1.9-0.3,3.4L1253.9,3513.2z M1251.1,3519h6.7v0.6h-7.4v-3.4
			h0.7V3519z M1259.3,3512.3v0.6h-1.8v4.2h-0.7v-8.7h0.7v3.9H1259.3z"/>
		<path d="M1267.4,3508.6h0.7v10.6h-0.7v-5.7h-1.8c-0.1,2.2-1,3.7-2.4,3.7c-1.5,0-2.4-1.5-2.4-3.9c0-2.4,1-3.9,2.4-3.9
			c1.4,0,2.4,1.4,2.4,3.6h1.8V3508.6z M1265,3513.3c0-1.9-0.7-3.3-1.8-3.3c-1.1,0-1.8,1.4-1.8,3.3c0,1.9,0.7,3.3,1.8,3.3
			C1264.2,3516.6,1265,3515.3,1265,3513.3z M1270.3,3508.4v11.6h-0.7v-11.6H1270.3z"/>
		<path d="M1279.7,3516.2c0.5,0,1-0.1,1.4-0.1l0.1,0.5c-1.8,0.3-4.3,0.4-5.8,0.4l-0.1-0.6c0.4,0,0.9,0,1.4,0v-5.8h-1.1v-0.6h5.3v0.6
			h-1.1V3516.2z M1277.3,3516.3c0.6,0,1.2,0,1.8-0.1v-5.7h-1.8V3516.3z M1282.3,3508.7h0.7v10.6h-0.7v-4.4h-1.8v-0.6h1.8v-2h-1.8
			v-0.6h1.8V3508.7z M1285.2,3508.4v11.5h-0.7v-11.5H1285.2z"/>
		<path d="M1293,3512.9c-0.5,0.7-1.4,1.1-2.5,1.1c-1.7,0-2.9-1.1-2.9-2.6s1.2-2.6,2.9-2.6c1.1,0,1.9,0.4,2.4,1.1h3.1v-1.5h0.7v6
			h-0.7v-1.5H1293z M1290.5,3513.4c1.3,0,2.3-0.9,2.3-2c0-1.1-1-2-2.3-2c-1.3,0-2.3,0.9-2.3,2
			C1288.2,3512.5,1289.2,3513.4,1290.5,3513.4z M1297.3,3519.2v0.6h-7.8v-2.7h6.6v-1.4h-6.6v-0.6h7.3v2.6h-6.6v1.6H1297.3z
			 M1293.2,3510.5c0.1,0.3,0.2,0.6,0.2,0.9c0,0.3-0.1,0.6-0.2,0.9h2.8v-1.8H1293.2z"/>
		<path d="M1309.8,3517.8v0.6h-10.5v-0.6h4.9v-2.7h-3.6v-5.8h0.7v2.2h6.5v-2.2h0.7v5.8h-3.6v2.7H1309.8z M1301.3,3514.5h6.5v-2.4
			h-6.5V3514.5z"/>
		<path d="M1314.5,3513.9c-1.7,0-2.9-1-2.9-2.5s1.2-2.5,2.9-2.5s2.9,1,2.9,2.5S1316.2,3513.9,1314.5,3513.9z M1314.5,3513.3
			c1.3,0,2.2-0.8,2.2-1.9c0-1.1-0.9-1.9-2.2-1.9s-2.2,0.8-2.2,1.9C1312.3,3512.5,1313.2,3513.3,1314.5,3513.3z M1321.1,3519.2v0.6
			h-7.7v-2.7h6.6v-1.4h-6.7v-0.6h7.3v2.6h-6.6v1.6H1321.1z M1320.7,3514.4h-0.7v-6h0.7V3514.4z"/>
		<path d="M1324.5,3516.5c2.2,0,3.6-0.1,5.3-0.4l0.1,0.6c-1.8,0.3-3.2,0.4-5.4,0.4h-0.8v-4.3h4.4v-2.7h-4.5v-0.6h5.1v3.9h-4.4v3.1
			H1324.5z M1332.6,3508.4v11.6h-0.7v-6.4h-2.4v-0.6h2.4v-4.6H1332.6z"/>
		<path d="M1345.7,3513.8v0.5h-10.5v-0.5H1345.7z M1337.2,3519.2h7.5v0.5h-8.2v-2.4h7.1v-1.2h-7.2v-0.5h7.8v2.3h-7.1V3519.2z
			 M1343.6,3509.3h-7.1v-0.5h7.7v2.2h-7v1.2h7.2v0.5h-7.9v-2.3h7V3509.3z"/>
		<path d="M1356.4,3514.1c-1.3-0.5-2.4-1.5-2.9-2.7c-0.5,1.4-1.6,2.5-3,3l-0.4-0.5c1.6-0.6,3-2.1,3-3.9v-1.2h0.7v1.2
			c0,1.6,1.4,3,3,3.6L1356.4,3514.1z M1360,3519.2v0.6h-7.8v-2.7h6.6v-1.4h-6.6v-0.6h7.3v2.6h-6.6v1.6H1360z M1358.8,3511.3h-2.8
			v-0.6h2.8v-2.3h0.7v6h-0.7V3511.3z"/>
		<path d="M1366.1,3512.2c0,2.1,1.6,4,3.2,4.7l-0.4,0.6c-1.3-0.6-2.5-2-3.1-3.6c-0.5,1.7-1.7,3.1-3,3.8l-0.4-0.5
			c1.6-0.8,3.1-2.7,3.1-4.9v-1.2h-2.8v-0.6h2.8v-1.9h0.7v1.9h2.8v0.6h-2.8V3512.2z M1371.4,3508.4v11.5h-0.7v-11.5H1371.4z"/>
		<path d="M1377.7,3510.3h3v0.6h-6.9v-0.6h3.1v-1.8h0.7V3510.3z M1380.2,3514.6c0,1.5-1.1,2.6-2.7,2.6c-1.6,0-2.7-1.1-2.7-2.6
			c0-1.5,1.1-2.6,2.7-2.6C1379,3512,1380.2,3513.1,1380.2,3514.6z M1379.5,3514.6c0-1.1-0.9-2-2.1-2c-1.2,0-2.1,0.9-2.1,2
			c0,1.1,0.9,2,2.1,2C1378.6,3516.6,1379.5,3515.7,1379.5,3514.6z M1384.8,3513.8h-2v6.1h-0.7v-11.5h0.7v4.9h2V3513.8z"/>
		<path d="M1395.3,3508.4v11.5h-0.7v-4.6h-3.2c-0.5,1.2-1.4,1.9-2.5,1.9c-1.7,0-2.8-1.5-2.8-4c0-2.4,1.2-4,2.8-4
			c1.1,0,1.9,0.7,2.4,1.8h3.3v-2.7H1395.3z M1391.1,3513.3c0-2-0.9-3.4-2.2-3.4s-2.2,1.4-2.2,3.4c0,2,0.9,3.4,2.2,3.4
			S1391.1,3515.2,1391.1,3513.3z M1394.6,3514.8v-3.1h-3.1c0.1,0.5,0.2,1,0.2,1.6c0,0.5-0.1,1-0.2,1.5H1394.6z"/>
	</g>
	<g class="st0">
		<path d="M1258.9,3541.7v0.6h-10.5v-0.6H1258.9z M1257.9,3538.9c-1.5-0.4-3.6-1.7-4.3-3.5c-0.7,1.8-2.8,3.1-4.3,3.5l-0.3-0.6
			c1.7-0.3,4.3-2.1,4.3-4.2v-0.9h0.7v0.9c0,2.1,2.7,3.9,4.3,4.2L1257.9,3538.9z"/>
		<path d="M1267.6,3538.1c-1.7,0.3-3.1,0.4-5.7,0.4h-0.9v-5.4h5.5v0.6h-4.8v1.8h4.5v0.6h-4.5v1.9h0.2c2.6,0,3.9-0.1,5.6-0.4
			L1267.6,3538.1z M1262.4,3539.9h7.3v3.8h-7.3V3539.9z M1263.1,3543.1h6v-2.7h-6V3543.1z M1269.8,3532.4v6.9h-0.7v-6.9H1269.8z"/>
		<path d="M1277.7,3538.5c-1.2-0.5-2-1.4-2.4-2.4c-0.4,1.1-1.3,2.2-2.5,2.7l-0.4-0.5c1.5-0.7,2.5-2.2,2.5-3.5v-1.7h0.7v1.7
			c0,1.3,1,2.6,2.5,3.2L1277.7,3538.5z M1282.1,3541.9c0,1.3-1.4,2-3.8,2s-3.8-0.7-3.8-2s1.4-2,3.8-2S1282.1,3540.6,1282.1,3541.9z
			 M1281.4,3541.9c0-0.9-1.2-1.5-3.1-1.5c-1.9,0-3.1,0.5-3.1,1.5c0,0.9,1.2,1.5,3.1,1.5C1280.2,3543.3,1281.4,3542.8,1281.4,3541.9z
			 M1279.5,3539.2h-0.7v-6.6h0.7v3h1.8v-3.3h0.7v7.2h-0.7v-3.3h-1.8V3539.2z"/>
		<path d="M1290.6,3538.9c-1.3-0.5-2.4-1.6-2.9-2.9c-0.5,1.5-1.6,2.6-3,3.2l-0.4-0.6c1.6-0.6,3-2.2,3-4.1v-1.5h0.7v1.6
			c0,1.7,1.4,3.2,3,3.7L1290.6,3538.9z M1286.9,3543h6.9v0.6h-7.6v-3.5h0.7V3543z M1295,3536v0.6h-1.8v4.3h-0.7v-8.6h0.7v3.7H1295z"
			/>
		<path d="M1303.2,3538.2c-2,0.3-3.5,0.4-5.6,0.4h-0.9v-3.1h4.4v-1.8h-4.5v-0.6h5.1v2.9h-4.4v2h0.2c2,0,3.5-0.1,5.5-0.4
			L1303.2,3538.2z M1305.2,3541.8c0,1.3-1.4,2.1-3.7,2.1c-2.3,0-3.7-0.7-3.7-2.1c0-1.3,1.4-2,3.7-2
			C1303.8,3539.8,1305.2,3540.5,1305.2,3541.8z M1304.6,3541.8c0-0.9-1.2-1.5-3.1-1.5s-3.1,0.6-3.1,1.5c0,0.9,1.2,1.5,3.1,1.5
			S1304.6,3542.8,1304.6,3541.8z M1305.2,3534.9v1.8h1.8v0.6h-1.8v2h-0.7v-7h0.7v1.9h1.8v0.6H1305.2z"/>
		<path d="M1318.7,3537.5v0.6h-10.4v-0.6H1318.7z M1309.4,3534.6c0-1.3,1.5-2,4-2s4,0.7,4,2c0,1.3-1.5,2-4,2
			S1309.4,3535.9,1309.4,3534.6z M1310.2,3543.2h7.4v0.6h-8.1v-2.6h7v-1.3h-7.1v-0.6h7.7v2.4h-7V3543.2z M1310.1,3534.6
			c0,0.9,1.3,1.5,3.3,1.5c2,0,3.3-0.6,3.3-1.5c0-0.9-1.3-1.5-3.3-1.5C1311.4,3533.1,1310.1,3533.7,1310.1,3534.6z"/>
		<path d="M1333.5,3538v0.6h-10.4v-0.6H1333.5z M1323.7,3536.5c1.8-0.2,4.2-1.3,4.2-2.8v-0.1h-3.9v-0.6h8.5v0.6h-3.9v0.1
			c0,1.6,2.4,2.6,4.1,2.8l-0.3,0.6c-1.7-0.3-3.7-1.1-4.3-2.5c-0.6,1.4-2.6,2.2-4.3,2.5L1323.7,3536.5z M1332.2,3541.8
			c0,1.3-1.5,2.1-3.9,2.1c-2.5,0-3.9-0.7-3.9-2.1c0-1.3,1.5-2.1,3.9-2.1C1330.7,3539.8,1332.2,3540.5,1332.2,3541.8z M1331.5,3541.8
			c0-0.9-1.3-1.5-3.2-1.5c-2,0-3.2,0.6-3.2,1.5c0,0.9,1.3,1.5,3.2,1.5C1330.3,3543.3,1331.5,3542.8,1331.5,3541.8z"/>
		<path d="M1340.9,3533.6c0,3.1-1.6,6.1-5.3,8l-0.4-0.5c3.1-1.5,4.8-4,5-6.8h-4.5v-0.6H1340.9z M1345.8,3537.8h-2v6.1h-0.7v-11.5
			h0.7v4.8h2V3537.8z"/>
		<path d="M1350.8,3535.7c0,2.1,1.7,4.2,3.2,5l-0.4,0.6c-1.3-0.7-2.6-2.1-3.1-3.9c-0.5,1.8-1.8,3.4-3.1,4.1l-0.4-0.6
			c1.5-0.8,3.2-3,3.2-5.1v-2.3h0.7V3535.7z M1356.4,3532.4v11.6h-0.7v-11.6H1356.4z"/>
		<path d="M1365,3533.6c0,3.2-1.3,6.3-5.4,8.3l-0.4-0.6c2.3-1.1,3.7-2.6,4.4-4.3l-4.2,0.4l-0.2-0.6l4.6-0.3c0.3-0.7,0.4-1.5,0.4-2.3
			h-4.5v-0.6H1365z M1368.3,3532.4v11.5h-0.7v-11.5H1368.3z"/>
		<path d="M1381.4,3541.6v0.6h-10.4v-0.6h4.3v-4.2h0.7v4.2H1381.4z M1379.3,3534.2h-7.2v-0.6h7.9v1.2c0,1.4,0,3-0.4,5.2l-0.7-0.1
			c0.4-2.2,0.4-3.7,0.4-5.1V3534.2z"/>
		<path d="M1382.8,3544.8c0.7-0.4,1.1-1,1.1-1.7c-0.1,0-0.1,0-0.2,0c-0.4,0-0.7-0.2-0.7-0.7c0-0.4,0.3-0.7,0.7-0.7
			c0.5,0,0.8,0.4,0.8,1.1c0,1.1-0.6,2-1.6,2.4L1382.8,3544.8z"/>
	</g>
	<g class="st0">
		<path d="M1239.7,3564h-4.9v3.9h-0.7v-3.9h-4.9v-0.6h10.5V3564z M1230,3561.8c1.8-0.3,4.1-1.5,4.1-3.2v-0.2h-3.8v-0.6h3.8v-1.5h0.7
			v1.5h3.8v0.6h-3.8v0.2c0,1.7,2.4,2.9,4.1,3.2l-0.3,0.6c-1.6-0.3-3.5-1.2-4.2-2.6c-0.7,1.4-2.6,2.3-4.2,2.6L1230,3561.8z"/>
		<path d="M1247,3557.6c0,3.1-1.6,6.1-5.3,8l-0.4-0.5c3.1-1.5,4.8-4,5-6.8h-4.5v-0.6H1247z M1251.9,3561.8h-2v6.1h-0.7v-11.5h0.7
			v4.8h2V3561.8z"/>
		<path d="M1258.9,3561.8h-5.2v-5h0.7v1.8h3.9v-1.8h0.7V3561.8z M1258.3,3559.2h-3.9v2.1h3.9V3559.2z M1255.6,3567.2h6.9v0.6h-7.6
			v-2.7h6.5v-1.5h-6.5v-0.6h7.2v2.6h-6.5V3567.2z M1263.8,3559v0.6h-1.8v2.8h-0.7v-6h0.7v2.6H1263.8z"/>
		<path d="M1271.5,3563c-1.3-0.5-2.4-1.5-2.9-2.8c-0.5,1.4-1.7,2.6-3,3.1l-0.4-0.6c1.6-0.6,3-2.1,3-3.9v-0.8h-2.8v-0.6h6.1v0.6h-2.7
			v0.8c0,1.6,1.3,3,2.9,3.6L1271.5,3563z M1274.9,3567v0.6h-7.6v-3.5h0.7v3H1274.9z M1273.8,3559.7v-3.3h0.7v8.5h-0.7v-4.6h-2.6
			v-0.6H1273.8z"/>
		<path d="M1287.5,3561.5v0.6h-10.4v-0.6H1287.5z M1278.3,3558.6c0-1.3,1.5-2,4-2c2.5,0,4,0.7,4,2c0,1.3-1.5,2-4,2
			C1279.8,3560.6,1278.3,3559.9,1278.3,3558.6z M1279.1,3567.2h7.4v0.6h-8.1v-2.6h7v-1.3h-7.1v-0.6h7.7v2.4h-7V3567.2z M1279,3558.6
			c0,0.9,1.3,1.5,3.3,1.5s3.3-0.6,3.3-1.5c0-0.9-1.3-1.5-3.3-1.5S1279,3557.7,1279,3558.6z"/>
		<path d="M1302.3,3562.6v0.6h-10.4v-0.6h4.9v-1.4h-3.4v-4.5h7.7v0.6h-7v1.4h6.7v0.6h-6.7v1.4h7v0.6h-3.6v1.4H1302.3z M1301,3566.1
			c0,1.2-1.4,1.8-3.9,1.8s-3.9-0.6-3.9-1.8c0-1.2,1.4-1.8,3.9-1.8S1301,3564.9,1301,3566.1z M1300.4,3566.1c0-0.8-1.2-1.3-3.2-1.3
			c-2,0-3.2,0.5-3.2,1.3c0,0.8,1.2,1.3,3.2,1.3C1299.1,3567.3,1300.4,3566.9,1300.4,3566.1z"/>
		<path d="M1307.1,3558.5h2.6v0.6h-5.9v-0.6h2.6v-1.8h0.7V3558.5z M1309.2,3562.6c0,1.5-1,2.6-2.5,2.6c-1.4,0-2.4-1.1-2.4-2.6
			c0-1.5,1-2.6,2.4-2.6C1308.2,3560,1309.2,3561,1309.2,3562.6z M1308.6,3562.6c0-1.1-0.8-2-1.8-2c-1.1,0-1.8,0.9-1.8,2
			c0,1.1,0.8,2,1.8,2C1307.8,3564.5,1308.6,3563.7,1308.6,3562.6z M1313.6,3556.4v11.5h-0.7v-6h-1.8v5.4h-0.7v-10.6h0.7v4.7h1.8v-5
			H1313.6z"/>
		<path d="M1325.5,3556.6h0.7v10.6h-0.7v-5.7h-1.8c-0.1,2.2-1,3.7-2.4,3.7c-1.5,0-2.4-1.5-2.4-3.9c0-2.4,1-3.9,2.4-3.9
			c1.4,0,2.4,1.4,2.4,3.6h1.8V3556.6z M1323.1,3561.3c0-1.9-0.7-3.3-1.8-3.3c-1.1,0-1.8,1.4-1.8,3.3c0,1.9,0.7,3.3,1.8,3.3
			C1322.4,3564.6,1323.1,3563.3,1323.1,3561.3z M1328.5,3556.4v11.6h-0.7v-11.6H1328.5z"/>
		<path d="M1332.2,3564.5c1.9,0,3.4-0.1,5.2-0.5l0.1,0.6c-1.8,0.4-3.4,0.5-5.3,0.5h-0.8v-7.4h0.7v6.8H1332.2z M1340.1,3556.4v11.6
			h-0.7v-7h-3.8v-0.6h3.8v-3.9H1340.1z"/>
		<path d="M1346.5,3560.1c0,2,1.7,4,3.2,4.7l-0.4,0.5c-1.3-0.6-2.6-2-3.2-3.7c-0.5,1.7-1.8,3.3-3.1,4l-0.4-0.6c1.5-0.8,3.2-3,3.2-5
			v-2h-2.9v-0.6h6.4v0.6h-2.9V3560.1z M1352,3556.4v11.5h-0.7v-11.5H1352z"/>
		<path d="M1364.9,3562.4c-2.5,0.4-5.3,0.4-7.3,0.4l-0.1-0.6c1,0,2.1,0,3.3,0v-0.9c-1.4-0.1-2.3-0.6-2.3-1.5c0-1,1-1.5,2.6-1.5
			c1.6,0,2.6,0.6,2.6,1.5c0,0.9-0.9,1.4-2.3,1.5v0.8c1.1-0.1,2.3-0.2,3.4-0.3L1364.9,3562.4z M1364.4,3557.9h-6.7v-0.5h3v-1.1h0.7
			v1.1h3V3557.9z M1359.7,3567.2h7.1v0.5h-7.7v-2.3h6.6v-1.1h-6.6v-0.5h7.3v2.2h-6.6V3567.2z M1361.1,3560.9c1.2,0,2-0.4,2-1
			c0-0.6-0.8-1-2-1c-1.2,0-2,0.4-2,1C1359.1,3560.5,1359.9,3560.9,1361.1,3560.9z M1368.1,3559.5v0.6h-1.8v3.1h-0.7v-6.8h0.7v3.1
			H1368.1z"/>
		<path d="M1379.9,3562.2v0.6h-10.4v-0.6h2.7v-1.8c-0.9-0.4-1.5-0.9-1.5-1.7c0-1.3,1.5-2.1,4-2.1c2.5,0,4,0.8,4,2.1
			c0,0.8-0.5,1.4-1.5,1.7v1.8H1379.9z M1378.6,3565.9c0,1.3-1.5,2-3.9,2s-3.9-0.7-3.9-2c0-1.3,1.5-2,3.9-2
			S1378.6,3564.6,1378.6,3565.9z M1374.6,3560.2c2,0,3.3-0.6,3.3-1.5c0-0.9-1.3-1.5-3.3-1.5c-2,0-3.3,0.6-3.3,1.5
			C1371.4,3559.6,1372.7,3560.2,1374.6,3560.2z M1377.9,3565.9c0-0.9-1.3-1.5-3.2-1.5c-2,0-3.2,0.6-3.2,1.5c0,0.9,1.3,1.5,3.2,1.5
			C1376.6,3567.3,1377.9,3566.8,1377.9,3565.9z M1372.8,3562.2h3.7v-1.6c-0.5,0.1-1.2,0.2-1.9,0.2c-0.7,0-1.3-0.1-1.8-0.2V3562.2z"
			/>
		<path d="M1387.7,3562.6c-1.3-0.5-2.4-1.5-2.9-2.8c-0.5,1.5-1.6,2.6-3,3.2l-0.4-0.6c1.7-0.6,3-2.2,3-4.1v-1.3h0.7v1.3
			c0,1.7,1.4,3.2,3,3.8L1387.7,3562.6z M1390.9,3565.7c0,1.4-1.4,2.1-3.8,2.1c-2.4,0-3.8-0.8-3.8-2.1c0-1.4,1.4-2.1,3.8-2.1
			C1389.4,3563.6,1390.9,3564.4,1390.9,3565.7z M1390.2,3565.7c0-1-1.2-1.6-3.1-1.6c-1.9,0-3.1,0.6-3.1,1.6s1.2,1.6,3.1,1.6
			C1389,3567.3,1390.2,3566.7,1390.2,3565.7z M1390.1,3559.6h-2.8v-0.6h2.8v-2.7h0.7v6.9h-0.7V3559.6z"/>
		<path d="M1403.8,3561.5v0.6h-10.4v-0.6H1403.8z M1394.6,3558.6c0-1.3,1.5-2,4-2c2.5,0,4,0.7,4,2c0,1.3-1.5,2-4,2
			C1396.1,3560.6,1394.6,3559.9,1394.6,3558.6z M1395.4,3567.2h7.4v0.6h-8.1v-2.6h7v-1.3h-7.1v-0.6h7.7v2.4h-7V3567.2z
			 M1395.3,3558.6c0,0.9,1.3,1.5,3.3,1.5c2,0,3.3-0.6,3.3-1.5c0-0.9-1.3-1.5-3.3-1.5C1396.6,3557.1,1395.3,3557.7,1395.3,3558.6z"/>
	</g>
	<g class="st0">
		<path d="M1296.2,3585.8v0.6h-10.4v-0.6h4.9v-1.7h-3.4v-3.5h0.7v2.9h7v0.6h-3.7v1.7H1296.2z M1293.1,3591.1h2v0.6h-8.3v-0.6h2v-2.8
			h-1.9v-0.6h8.1v0.6h-1.9V3591.1z M1289.5,3591.1h2.9v-2.8h-2.9V3591.1z"/>
		<path d="M1303.2,3585.3c-0.5,0.7-1.4,1.1-2.4,1.1c-1.7,0-2.9-1.1-2.9-2.7s1.2-2.7,2.9-2.7c1,0,1.9,0.4,2.4,1.1h3.2v-1.7h0.7v6.7
			h-0.7v-1.7H1303.2z M1305.8,3588.3c0,1.2,1,2.4,2.4,3l-0.4,0.5c-1.2-0.4-2-1.3-2.4-2.3c-0.3,0.9-1.1,1.9-2.1,2.4
			c-1.1-0.5-1.8-1.4-2.2-2.4c-0.4,1-1.3,1.8-2.4,2.3l-0.4-0.5c1.4-0.5,2.4-1.8,2.4-3v-0.9h0.7v0.9c0,1.1,0.6,2.3,1.8,2.9
			c1.2-0.7,1.8-2,1.8-2.9v-0.9h0.7V3588.3z M1298.6,3583.7c0,1.2,0.9,2.1,2.2,2.1c1.3,0,2.2-0.9,2.2-2.1c0-1.2-0.9-2.1-2.2-2.1
			C1299.5,3581.6,1298.6,3582.5,1298.6,3583.7z M1303.5,3582.7c0.1,0.3,0.2,0.7,0.2,1.1c0,0.4-0.1,0.7-0.2,1h2.8v-2.1H1303.5z"/>
		<path d="M1320.1,3585.7v0.6h-10.4v-0.6H1320.1z M1319.2,3584.7c-1.6-0.3-3.6-1.2-4.3-2.6c-0.7,1.4-2.7,2.4-4.3,2.6l-0.3-0.6
			c1.8-0.2,4.2-1.4,4.2-3.1v-0.6h0.7v0.6c0,1.6,2.5,2.8,4.2,3.1L1319.2,3584.7z M1318,3587.3h0.7v4.4h-7.7v-4.4h0.7v1.6h6.3V3587.3z
			 M1318,3589.4h-6.3v1.7h6.3V3589.4z"/>
		<path d="M1323.3,3588.2c1.8,0,3.6-0.1,5.6-0.6l0.1,0.6c-2,0.4-3.8,0.6-5.7,0.6h-0.9v-7.4h0.7v6.7H1323.3z M1331,3580.4v11.5h-0.7
			v-11.5H1331z"/>
		<path d="M1335,3588.4c2.2,0,3.7-0.1,5.4-0.4l0.1,0.6c-1.8,0.3-3.3,0.4-5.5,0.4h-0.9v-7.5h5.3v0.6h-4.7v6.3H1335z M1344.4,3585.7
			h-2v6.2h-0.7v-11.6h0.7v4.7h2V3585.7z"/>
		<path d="M1345.8,3590.5c0-0.4,0.3-0.7,0.7-0.7c0.4,0,0.7,0.3,0.7,0.7c0,0.4-0.3,0.7-0.7,0.7
			C1346.1,3591.2,1345.8,3590.9,1345.8,3590.5z"/>
	</g>
	<g class="st0">
		<path d="M1017.7,3493.8v0.6h-10.5v-0.6h4.9v-2.7h-3.6v-5.8h0.7v2.2h6.5v-2.2h0.7v5.8h-3.6v2.7H1017.7z M1009.2,3490.5h6.5v-2.4
			h-6.5V3490.5z"/>
		<path d="M1022.4,3489.9c-1.7,0-2.9-1-2.9-2.5s1.2-2.5,2.9-2.5s2.9,1,2.9,2.5S1024.1,3489.9,1022.4,3489.9z M1022.4,3489.3
			c1.3,0,2.2-0.8,2.2-1.9c0-1.1-0.9-1.9-2.2-1.9s-2.2,0.8-2.2,1.9C1020.2,3488.5,1021.1,3489.3,1022.4,3489.3z M1029,3495.2v0.6
			h-7.7v-2.7h6.6v-1.4h-6.7v-0.6h7.3v2.6h-6.6v1.6H1029z M1028.6,3490.4h-0.7v-6h0.7V3490.4z"/>
		<path d="M1032.4,3492.5c2.2,0,3.6-0.1,5.3-0.4l0.1,0.6c-1.8,0.3-3.2,0.4-5.4,0.4h-0.8v-4.3h4.4v-2.7h-4.5v-0.6h5.1v3.9h-4.4v3.1
			H1032.4z M1040.5,3484.4v11.6h-0.7v-6.4h-2.4v-0.6h2.4v-4.6H1040.5z"/>
		<path d="M1051.6,3489.6c-0.5,0.7-1.4,1.2-2.4,1.2c-1.7,0-2.9-1.2-2.9-2.8c0-1.7,1.2-2.8,2.9-2.8c1,0,1.9,0.4,2.4,1.1h3.2v-1.9h0.7
			v8.6h-0.7v-3.3H1051.6z M1049.1,3490.2c1.3,0,2.3-1,2.3-2.2c0-1.2-1-2.2-2.3-2.2c-1.3,0-2.3,1-2.3,2.2
			C1046.9,3489.2,1047.8,3490.2,1049.1,3490.2z M1055.8,3495v0.6h-7.6v-3.6h0.7v3H1055.8z M1051.9,3486.9c0.1,0.3,0.2,0.7,0.2,1.1
			c0,0.4-0.1,0.8-0.2,1.1h2.8v-2.2H1051.9z"/>
		<path d="M1068.4,3493.7v0.6h-10.5v-0.6h4.8v-3h0.7v3H1068.4z M1067.5,3490.8c-1.5-0.4-3.7-1.6-4.4-3.4c-0.7,1.8-2.8,3-4.4,3.4
			l-0.3-0.6c1.7-0.3,4.3-2,4.3-4.1v-0.9h0.7v0.9c0,2.1,2.7,3.8,4.3,4.1L1067.5,3490.8z"/>
		<path d="M1080.3,3490.2v0.6h-10.4v-0.6h2.7v-1.8c-0.9-0.4-1.5-0.9-1.5-1.7c0-1.3,1.5-2.1,4-2.1c2.5,0,4,0.8,4,2.1
			c0,0.8-0.5,1.4-1.5,1.7v1.8H1080.3z M1079.1,3493.9c0,1.3-1.5,2-3.9,2s-3.9-0.7-3.9-2c0-1.3,1.5-2,3.9-2
			S1079.1,3492.6,1079.1,3493.9z M1075.1,3488.2c2,0,3.3-0.6,3.3-1.5c0-0.9-1.3-1.5-3.3-1.5c-2,0-3.3,0.6-3.3,1.5
			C1071.8,3487.6,1073.1,3488.2,1075.1,3488.2z M1078.4,3493.9c0-0.9-1.3-1.5-3.2-1.5s-3.2,0.6-3.2,1.5c0,0.9,1.3,1.5,3.2,1.5
			S1078.4,3494.8,1078.4,3493.9z M1073.3,3490.2h3.7v-1.6c-0.5,0.1-1.2,0.2-1.9,0.2c-0.7,0-1.3-0.1-1.8-0.2V3490.2z"/>
		<path d="M1095.2,3489.9v0.6h-10.4v-0.6h4.5v-2.3h0.7v2.3H1095.2z M1093.9,3493.8c0,1.3-1.5,2.1-4,2.1s-4-0.8-4-2.1
			c0-1.3,1.5-2.1,4-2.1S1093.9,3492.5,1093.9,3493.8z M1093.2,3485.6h-7.1v-0.6h7.8v1c0,0.9,0,1.8-0.3,3l-0.7-0.1
			c0.3-1.2,0.3-2,0.3-2.9V3485.6z M1093.3,3493.8c0-0.9-1.3-1.5-3.3-1.5s-3.3,0.6-3.3,1.5s1.3,1.5,3.3,1.5
			S1093.3,3494.7,1093.3,3493.8z"/>
		<path d="M1102.7,3485.6c0,3.2-1.7,6.2-5.4,8l-0.4-0.6c3.2-1.5,4.9-4,5.1-6.8h-4.6v-0.6H1102.7z M1106.1,3484.4v11.5h-0.7v-11.5
			H1106.1z"/>
		<path d="M1115.2,3487.7c0,2,1.6,4.1,3.1,4.9l-0.4,0.5c-1.2-0.7-2.5-2.1-3-3.8c-0.5,1.8-1.7,3.4-3,4.1l-0.4-0.6
			c1.5-0.8,3.1-3,3.1-5.1v-2.3h0.7V3487.7z M1122.4,3489.8h-2v6.1h-0.7v-11.6h0.7v4.8h2V3489.8z"/>
		<path d="M1129.9,3491c-1.3-0.5-2.4-1.5-2.9-2.8c-0.5,1.4-1.7,2.6-3,3.1l-0.4-0.6c1.6-0.6,3-2.1,3-3.9v-0.8h-2.8v-0.6h6.1v0.6h-2.7
			v0.8c0,1.6,1.3,3,2.9,3.6L1129.9,3491z M1133.3,3495v0.6h-7.6v-3.5h0.7v3H1133.3z M1132.2,3487.7v-3.3h0.7v8.5h-0.7v-4.6h-2.6
			v-0.6H1132.2z"/>
		<path d="M1145.2,3484.6h0.7v10.6h-0.7v-3.9h-2.1c-0.4,1.2-1.2,1.9-2.2,1.9c-1.5,0-2.4-1.5-2.4-3.9c0-2.4,1-3.9,2.4-3.9
			c1,0,1.8,0.7,2.2,1.9h2.1V3484.6z M1142.8,3489.3c0-1.9-0.7-3.3-1.8-3.3s-1.8,1.4-1.8,3.3c0,1.9,0.7,3.3,1.8,3.3
			S1142.8,3491.3,1142.8,3489.3z M1145.2,3490.8v-2.9h-1.9c0.1,0.4,0.1,0.9,0.1,1.4c0,0.5-0.1,1-0.1,1.5H1145.2z M1148.1,3484.4
			v11.6h-0.7v-11.6H1148.1z"/>
		<path d="M1155.9,3488.9c-0.5,0.7-1.4,1.1-2.5,1.1c-1.7,0-2.9-1.1-2.9-2.6s1.2-2.6,2.9-2.6c1.1,0,1.9,0.4,2.4,1.1h3.1v-1.5h0.7v6
			h-0.7v-1.5H1155.9z M1153.5,3489.4c1.3,0,2.3-0.9,2.3-2c0-1.1-1-2-2.3-2c-1.3,0-2.3,0.9-2.3,2
			C1151.2,3488.5,1152.2,3489.4,1153.5,3489.4z M1160.2,3495.2v0.6h-7.8v-2.7h6.6v-1.4h-6.6v-0.6h7.3v2.6h-6.6v1.6H1160.2z
			 M1156.2,3486.5c0.1,0.3,0.2,0.6,0.2,0.9c0,0.3-0.1,0.6-0.2,0.9h2.8v-1.8H1156.2z"/>
	</g>
	<g class="st0">
		<path d="M999.1,3511.7c0,2.1,1.7,4.2,3.2,5l-0.4,0.6c-1.3-0.7-2.6-2.1-3.1-3.9c-0.5,1.8-1.8,3.4-3.1,4.1l-0.4-0.6
			c1.5-0.8,3.2-3,3.2-5.1v-2.3h0.7V3511.7z M1004.6,3508.4v11.6h-0.7v-11.6H1004.6z"/>
		<path d="M1017.7,3517.7v0.6h-10.5v-0.6H1017.7z M1016.8,3514.9c-1.5-0.4-3.6-1.7-4.3-3.5c-0.7,1.8-2.8,3.1-4.3,3.5l-0.3-0.6
			c1.7-0.3,4.3-2.1,4.3-4.2v-0.9h0.7v0.9c0,2.1,2.7,3.9,4.3,4.2L1016.8,3514.9z"/>
		<path d="M1024.8,3514.1c-1.3,0.3-2.4,0.4-4.3,0.4h-0.7v-5.3h4.4v0.6h-3.7v1.7h3.2v0.6h-3.2v1.9h0c1.9,0,3-0.1,4.3-0.3
			L1024.8,3514.1z M1021.4,3516h7.4v3.8h-7.4V3516z M1022.1,3519.1h6.1v-2.6h-6.1V3519.1z M1026,3511.9h-1.8v-0.6h1.8v-2.8h0.7v6.7
			h-0.7V3511.9z M1028.9,3508.4v7h-0.7v-7H1028.9z"/>
		<path d="M1038.9,3509.9c0,2.8-1.1,5.6-4.4,7.5l-0.4-0.5c2.9-1.6,4-3.9,4.1-6.4h-3.8v-0.6H1038.9z M1043.8,3508.4v11.5h-0.7v-6.1
			h-1.9v5.5h-0.7v-10.6h0.7v4.5h1.9v-4.8H1043.8z"/>
		<path d="M1052.3,3515c-1.3-0.5-2.4-1.6-2.9-3c-0.5,1.5-1.6,2.7-3,3.2l-0.4-0.6c1.6-0.6,3-2.3,3-4.1v-1.5h0.7v1.6
			c0,1.7,1.4,3.2,2.9,3.8L1052.3,3515z M1055.7,3519v0.6h-7.6v-3.6h0.7v3H1055.7z M1054.7,3511.8h-2.8v-0.6h2.8v-2.9h0.7v8.7h-0.7
			V3511.8z"/>
		<path d="M1066.7,3513.8h-5.3v-4.6h5.3V3513.8z M1066,3509.7h-3.9v3.5h3.9V3509.7z M1067.1,3516.6c0,1.3,2.2,2.4,3.9,2.7l-0.2,0.5
			c-1.6-0.3-3.3-1.1-4-2.3c-0.7,1.2-2.5,2-4,2.3l-0.2-0.5c1.7-0.2,3.9-1.4,3.9-2.7v-0.1h-3.5v-0.6h3.5v-1.2h0.7v1.2h3.5v0.6h-3.5
			V3516.6z M1070.2,3515h-0.7v-6.7h0.7V3515z"/>
		<path d="M1081.6,3509.6c0,3.2-1.3,6.3-5.3,8.3l-0.4-0.6c2.3-1.1,3.7-2.6,4.4-4.3l-4.2,0.4l-0.2-0.6l4.6-0.3
			c0.3-0.7,0.4-1.5,0.4-2.3h-4.5v-0.6H1081.6z M1086.5,3513.8h-2v6.1h-0.7v-11.5h0.7v4.8h2V3513.8z"/>
		<path d="M1098.1,3514.8v0.6h-10.4v-0.6h4.9v-1.4h-3.5v-4.5h0.7v1.7h6.3v-1.7h0.7v4.5h-3.5v1.4H1098.1z M1089.7,3519h7.2v0.6h-7.9
			v-3.2h0.7V3519z M1089.7,3512.8h6.3v-1.8h-6.3V3512.8z"/>
		<path d="M1110,3513.5v0.6h-10.4v-0.6H1110z M1101.6,3519.2h7.4v0.6h-8.1v-2.5h7v-1.3h-7.1v-0.5h7.7v2.4h-7V3519.2z M1108.7,3512.3
			h-7.6v-3.8h0.7v1.3h6.3v-1.3h0.7V3512.3z M1108,3510.4h-6.3v1.4h6.3V3510.4z"/>
		<path d="M1117.3,3514.5c-1.6,0.3-2.8,0.4-4.5,0.4h-0.7v-3.2h3.6v-1.9h-3.7v-0.6h4.3v3h-3.6v2.1h0.1c1.6,0,2.9-0.1,4.4-0.4
			L1117.3,3514.5z M1113.6,3516.2h7.6v3.7h-0.7v-3.1h-6.9V3516.2z M1121.2,3508.4v7.2h-0.7v-3.5h-1.9v3.3h-0.7v-6.9h0.7v3h1.9v-3.2
			H1121.2z"/>
		<path d="M1132,3513.6c-0.5,0.7-1.4,1.2-2.4,1.2c-1.7,0-2.9-1.2-2.9-2.8c0-1.7,1.2-2.8,2.9-2.8c1,0,1.9,0.4,2.4,1.1h3.2v-1.9h0.7
			v8.6h-0.7v-3.3H1132z M1129.5,3514.2c1.3,0,2.3-1,2.3-2.2c0-1.2-1-2.2-2.3-2.2c-1.3,0-2.3,1-2.3,2.2
			C1127.3,3513.2,1128.2,3514.2,1129.5,3514.2z M1136.2,3519v0.6h-7.6v-3.6h0.7v3H1136.2z M1132.3,3510.9c0.1,0.3,0.2,0.7,0.2,1.1
			c0,0.4-0.1,0.8-0.2,1.1h2.8v-2.2H1132.3z"/>
		<path d="M1148.8,3517.7v0.6h-10.5v-0.6h4.8v-3h0.7v3H1148.8z M1147.9,3514.8c-1.5-0.4-3.7-1.6-4.4-3.4c-0.7,1.8-2.8,3-4.4,3.4
			l-0.3-0.6c1.7-0.3,4.3-2,4.3-4.1v-0.9h0.7v0.9c0,2.1,2.7,3.8,4.3,4.1L1147.9,3514.8z"/>
		<path d="M1160.8,3514.4v0.6h-4.8v2.6h-0.7v-2.6h-5v-0.6H1160.8z M1151.6,3511c0-1.4,1.6-2.3,4-2.3c2.4,0,4,0.9,4,2.3
			s-1.6,2.3-4,2.3C1153.1,3513.2,1151.6,3512.4,1151.6,3511z M1152.4,3519h7.2v0.6h-7.9v-3.3h0.7V3519z M1152.3,3511
			c0,1,1.3,1.7,3.3,1.7c1.9,0,3.3-0.7,3.3-1.7c0-1-1.3-1.7-3.3-1.7C1153.6,3509.3,1152.3,3510,1152.3,3511z"/>
		<path d="M1168.7,3515c-1.3-0.5-2.4-1.5-2.9-2.8c-0.5,1.4-1.7,2.6-3,3.1l-0.4-0.6c1.6-0.6,3-2.1,3-3.9v-0.8h-2.8v-0.6h6.1v0.6h-2.7
			v0.8c0,1.6,1.3,3,2.9,3.6L1168.7,3515z M1172,3519v0.6h-7.6v-3.5h0.7v3H1172z M1171,3511.7v-3.3h0.7v8.5h-0.7v-4.6h-2.6v-0.6H1171
			z"/>
	</g>
	<g class="st0">
		<path d="M994.9,3540.7c1.2-0.1,2.4-0.2,3.5-0.3l0.1,0.5c-2.6,0.5-5.5,0.5-7.6,0.5l-0.1-0.6c1,0,2.2,0,3.4,0v-2.4h0.7V3540.7z
			 M991.2,3538.2c1.6-0.5,3-1.9,3-3.6v-0.1h-2.8v-0.6h2.8v-1.5h0.7v1.5h2.9v0.6h-2.9v0.1c0,1.7,1.4,3,3.1,3.5l-0.3,0.5
			c-1.4-0.5-2.6-1.4-3.1-2.7c-0.5,1.4-1.7,2.4-3,2.8L991.2,3538.2z M1000,3532.4v11.6h-0.7v-11.6H1000z"/>
		<path d="M1009.1,3538.8c-1.3-0.5-2.4-1.5-2.9-2.8c-0.5,1.4-1.6,2.6-3,3.1l-0.4-0.5c1.6-0.6,3-2.1,3-3.9v-0.8h-2.8v-0.6h6.1v0.6
			h-2.7v0.8c0,1.6,1.3,3,2.9,3.6L1009.1,3538.8z M1004.5,3540h7.6v3.9h-0.7v-3.3h-6.9V3540z M1012.1,3532.4v6.9h-0.7v-3.2h-2.6v-0.6
			h2.6v-3.2H1012.1z"/>
		<path d="M1018.5,3540.9c1.2-0.1,2.3-0.1,3.4-0.3l0.1,0.5c-2.5,0.4-5.3,0.5-7.3,0.5l-0.1-0.6c1,0,2.1,0,3.3-0.1v-1.4
			c-1.4-0.1-2.3-0.9-2.3-2.1c0-1.3,1.1-2.1,2.7-2.1c1.6,0,2.7,0.8,2.7,2.1c0,1.2-0.9,2-2.3,2.1V3540.9z M1021.7,3534.4h-7v-0.6h3.1
			v-1.5h0.7v1.5h3.1V3534.4z M1018.2,3538.9c1.2,0,2-0.7,2-1.6c0-0.9-0.8-1.6-2-1.6c-1.2,0-2,0.6-2,1.6
			C1016.2,3538.3,1017,3538.9,1018.2,3538.9z M1025.4,3538h-2v5.9h-0.7v-11.5h0.7v5h2V3538z"/>
		<path d="M1037.1,3537.8v0.5h-10.5v-0.5H1037.1z M1028.6,3543.2h7.5v0.5h-8.2v-2.4h7.1v-1.2h-7.2v-0.5h7.8v2.3h-7.1V3543.2z
			 M1035,3533.3h-7.1v-0.5h7.7v2.2h-7v1.2h7.2v0.5h-7.9v-2.3h7V3533.3z"/>
		<path d="M1051.9,3538.6v0.6h-10.4v-0.6h4.9v-1.4h-3.4v-4.5h7.7v0.6h-7v1.4h6.7v0.6h-6.7v1.4h7v0.6h-3.6v1.4H1051.9z
			 M1050.6,3542.1c0,1.2-1.4,1.8-3.9,1.8c-2.5,0-3.9-0.6-3.9-1.8c0-1.2,1.4-1.8,3.9-1.8C1049.2,3540.2,1050.6,3540.9,1050.6,3542.1z
			 M1049.9,3542.1c0-0.8-1.2-1.3-3.2-1.3s-3.2,0.5-3.2,1.3c0,0.8,1.2,1.3,3.2,1.3S1049.9,3542.9,1049.9,3542.1z"/>
		<path d="M1060.3,3534.5h-6.8v-0.6h3.1v-1.5h0.7v1.5h3.1V3534.5z M1056.9,3539.5c-1.6,0-2.7-0.8-2.7-2.1c0-1.3,1.1-2.1,2.7-2.1
			s2.7,0.8,2.7,2.1C1059.6,3538.6,1058.5,3539.5,1056.9,3539.5z M1056.9,3538.9c1.2,0,2.1-0.7,2.1-1.5c0-0.9-0.8-1.6-2.1-1.6
			c-1.2,0-2.1,0.6-2.1,1.6C1054.8,3538.3,1055.6,3538.9,1056.9,3538.9z M1056,3543h6.9v0.6h-7.6v-3.3h0.7V3543z M1064.1,3536.3v0.6
			h-1.8v4.1h-0.7v-8.7h0.7v4H1064.1z"/>
		<path d="M1078.7,3539.6h-4.9v4.3h-0.7v-4.3h-4.9v-0.6h10.5L1078.7,3539.6z M1077.8,3537.5c-1.6-0.3-3.6-1.3-4.3-2.8
			c-0.7,1.5-2.7,2.5-4.3,2.8l-0.3-0.6c1.8-0.3,4.3-1.6,4.3-3.4v-0.7h0.7v0.7c0,1.8,2.5,3.1,4.2,3.4L1077.8,3537.5z"/>
		<path d="M1087.6,3538v1.3h1.7v2.4h-7v1.5h7.4v0.6h-8.1v-2.6h7v-1.3h-7.1v-0.6h1.6v-1.3h-3v-0.6h10.4v0.6H1087.6z M1081.5,3534.5
			c0-1.3,1.5-2,4-2c2.5,0,4,0.7,4,2c0,1.3-1.5,2-4,2C1082.9,3536.6,1081.5,3535.8,1081.5,3534.5z M1082.2,3534.5
			c0,0.9,1.3,1.5,3.3,1.5c2,0,3.3-0.6,3.3-1.5c0-0.9-1.3-1.5-3.3-1.5C1083.4,3533.1,1082.2,3533.6,1082.2,3534.5z M1086.9,3538h-3
			v1.3h3V3538z"/>
		<path d="M1098.4,3538.5c-1.3-0.5-2.4-1.6-2.9-2.9c-0.5,1.5-1.6,2.6-3,3.2l-0.4-0.6c1.6-0.6,3-2.2,3-4.1v-1.3h0.7v1.3
			c0,1.7,1.4,3.2,3,3.8L1098.4,3538.5z M1101.2,3541.9c0,1.3-1.4,2-3.7,2s-3.7-0.7-3.7-2c0-1.3,1.4-2,3.7-2
			S1101.2,3540.6,1101.2,3541.9z M1100.5,3541.9c0-0.9-1.2-1.5-3.1-1.5c-1.8,0-3,0.6-3,1.5c0,0.9,1.2,1.5,3,1.5
			C1099.3,3543.3,1100.5,3542.8,1100.5,3541.9z M1102.9,3535.5v0.6h-1.8v3.4h-0.7v-7.1h0.7v3.2H1102.9z"/>
		<path d="M1114.6,3538v0.6h-10.4v-0.6H1114.6z M1113.7,3536.9c-1.6-0.3-3.6-1.3-4.3-2.7c-0.7,1.4-2.7,2.4-4.3,2.7l-0.3-0.6
			c1.7-0.3,4.2-1.5,4.2-3.2v-0.6h0.7v0.6c0,1.6,2.5,2.9,4.2,3.2L1113.7,3536.9z M1113.3,3541.9c0,1.3-1.5,2-3.9,2s-3.9-0.7-3.9-2
			c0-1.3,1.5-2,3.9-2S1113.3,3540.6,1113.3,3541.9z M1112.6,3541.9c0-0.9-1.3-1.5-3.2-1.5s-3.2,0.5-3.2,1.5c0,0.9,1.3,1.5,3.2,1.5
			S1112.6,3542.8,1112.6,3541.9z"/>
		<path d="M1126.6,3541.7v0.6h-10.5v-0.6H1126.6z M1125.4,3536.3c0,1.9-1.8,3.1-4.1,3.1c-2.4,0-4.1-1.2-4.1-3.1
			c0-1.9,1.7-3.1,4.1-3.1C1123.7,3533.2,1125.4,3534.4,1125.4,3536.3z M1117.8,3536.3c0,1.5,1.5,2.5,3.5,2.5c2,0,3.5-1.1,3.5-2.5
			c0-1.5-1.5-2.5-3.5-2.5C1119.3,3533.8,1117.8,3534.8,1117.8,3536.3z"/>
		<path d="M1138.5,3541.8v0.6h-10.5v-0.6h4.9v-2.4h-3.5v-3.4h7.1v-2.1h-7.1v-0.6h7.8v3.3h-7.1v2.2h7.3v0.6h-3.8v2.4H1138.5z"/>
		<path d="M1149.7,3532.6h0.7v10.6h-0.7v-5.7h-1.8c-0.1,2.2-1,3.7-2.4,3.7c-1.5,0-2.4-1.5-2.4-3.9c0-2.4,1-3.9,2.4-3.9
			c1.4,0,2.4,1.4,2.4,3.6h1.8V3532.6z M1147.3,3537.3c0-1.9-0.7-3.3-1.8-3.3c-1.1,0-1.8,1.4-1.8,3.3c0,1.9,0.7,3.3,1.8,3.3
			C1146.6,3540.6,1147.3,3539.3,1147.3,3537.3z M1152.7,3532.4v11.6h-0.7v-11.6H1152.7z"/>
		<path d="M1156.4,3540.5c1.9,0,3.4-0.1,5.2-0.5l0.1,0.6c-1.8,0.4-3.4,0.5-5.3,0.5h-0.8v-7.4h0.7v6.8H1156.4z M1164.3,3532.4v11.6
			h-0.7v-7h-3.8v-0.6h3.8v-3.9H1164.3z"/>
		<path d="M1170.7,3536.1c0,2,1.7,4,3.2,4.7l-0.4,0.5c-1.3-0.6-2.6-2-3.2-3.7c-0.5,1.7-1.8,3.3-3.1,4l-0.4-0.6c1.5-0.8,3.2-3,3.2-5
			v-2h-2.9v-0.6h6.4v0.6h-2.9V3536.1z M1176.2,3532.4v11.5h-0.7v-11.5H1176.2z"/>
	</g>
	<g class="st0">
		<path d="M1013.6,3559.7c0,2,1.6,4.1,3.1,4.9l-0.4,0.5c-1.2-0.7-2.5-2.1-3-3.8c-0.5,1.8-1.7,3.4-3,4.1l-0.4-0.6
			c1.5-0.8,3.1-3,3.1-5.1v-2.3h0.7V3559.7z M1020.7,3561.8h-2v6.1h-0.7v-11.6h0.7v4.8h2V3561.8z"/>
		<path d="M1032.3,3562.2v0.6h-10.4v-0.6h2.7v-1.8c-0.9-0.4-1.5-0.9-1.5-1.7c0-1.3,1.5-2.1,4-2.1c2.5,0,4,0.8,4,2.1
			c0,0.8-0.5,1.4-1.5,1.7v1.8H1032.3z M1031,3565.9c0,1.3-1.5,2-3.9,2s-3.9-0.7-3.9-2c0-1.3,1.5-2,3.9-2S1031,3564.6,1031,3565.9z
			 M1027.1,3560.2c2,0,3.3-0.6,3.3-1.5c0-0.9-1.3-1.5-3.3-1.5c-2,0-3.3,0.6-3.3,1.5C1023.8,3559.6,1025.1,3560.2,1027.1,3560.2z
			 M1030.3,3565.9c0-0.9-1.3-1.5-3.2-1.5s-3.2,0.6-3.2,1.5c0,0.9,1.3,1.5,3.2,1.5S1030.3,3566.8,1030.3,3565.9z M1025.3,3562.2h3.7
			v-1.6c-0.5,0.1-1.2,0.2-1.9,0.2c-0.7,0-1.3-0.1-1.8-0.2V3562.2z"/>
		<path d="M1044.3,3565.9v0.6h-10.5v-0.6h2.9v-2.3c-0.9-0.3-1.4-0.9-1.4-1.7c0-1.4,1.4-2.1,3.7-2.1s3.7,0.8,3.7,2.1
			c0,0.8-0.5,1.4-1.4,1.7v2.3H1044.3z M1043.7,3558.8h-9.3v-0.6h4.3v-1.7h0.7v1.7h4.3V3558.8z M1039.1,3563.4c1.8,0,3-0.6,3-1.6
			c0-1-1.2-1.6-3-1.6c-1.8,0-3,0.6-3,1.6C1036.1,3562.8,1037.3,3563.4,1039.1,3563.4z M1037.4,3565.9h3.2v-2.1
			c-0.5,0.1-1,0.2-1.6,0.2c-0.6,0-1.1-0.1-1.6-0.2V3565.9z"/>
		<path d="M1053.2,3562v1.3h1.7v2.4h-7v1.5h7.4v0.6h-8.1v-2.6h7v-1.3h-7.1v-0.6h1.6v-1.3h-3v-0.6h10.4v0.6H1053.2z M1047,3558.5
			c0-1.3,1.5-2,4-2c2.5,0,4,0.7,4,2c0,1.3-1.5,2-4,2C1048.5,3560.6,1047,3559.8,1047,3558.5z M1047.7,3558.5c0,0.9,1.3,1.5,3.3,1.5
			c2,0,3.3-0.6,3.3-1.5c0-0.9-1.3-1.5-3.3-1.5C1049,3557.1,1047.7,3557.6,1047.7,3558.5z M1052.5,3562h-3v1.3h3V3562z"/>
		<path d="M1068.2,3561.5v0.6h-10.4v-0.6H1068.2z M1059,3558.6c0-1.3,1.5-2,4-2c2.5,0,4,0.7,4,2c0,1.3-1.5,2-4,2
			C1060.5,3560.6,1059,3559.9,1059,3558.6z M1059.8,3567.2h7.4v0.6h-8.1v-2.6h7v-1.3h-7.1v-0.6h7.7v2.4h-7V3567.2z M1059.7,3558.6
			c0,0.9,1.3,1.5,3.3,1.5s3.3-0.6,3.3-1.5c0-0.9-1.3-1.5-3.3-1.5S1059.7,3557.7,1059.7,3558.6z"/>
		<path d="M1079.5,3558.4h-6.8v-0.6h3.1v-1.5h0.7v1.5h3.1V3558.4z M1076.1,3563.1c-1.7,0-2.7-0.8-2.7-2s1.1-2,2.7-2
			c1.6,0,2.7,0.8,2.7,2S1077.7,3563.1,1076.1,3563.1z M1076.1,3562.6c1.2,0,2.1-0.6,2.1-1.5s-0.8-1.5-2.1-1.5
			c-1.2,0-2.1,0.6-2.1,1.5S1074.8,3562.6,1076.1,3562.6z M1081.6,3565.9c0,1.2-1.4,2-3.7,2c-2.3,0-3.7-0.7-3.7-2c0-1.2,1.4-2,3.7-2
			C1080.2,3564,1081.6,3564.7,1081.6,3565.9z M1081,3565.9c0-0.9-1.2-1.4-3-1.4s-3,0.5-3,1.4c0,0.9,1.2,1.4,3,1.4
			S1081,3566.8,1081,3565.9z M1081.5,3559.1v1.8h1.8v0.6h-1.8v2.3h-0.7v-7.5h0.7v2.2h1.8v0.6H1081.5z"/>
		<path d="M1090.8,3562.5c-1.3-0.5-2.4-1.6-2.9-2.9c-0.5,1.5-1.6,2.6-3,3.2l-0.4-0.6c1.6-0.6,3-2.2,3-4.1v-1.3h0.7v1.3
			c0,1.7,1.4,3.2,3,3.8L1090.8,3562.5z M1093.6,3565.9c0,1.3-1.4,2-3.7,2s-3.7-0.7-3.7-2c0-1.3,1.4-2,3.7-2
			S1093.6,3564.6,1093.6,3565.9z M1092.9,3565.9c0-0.9-1.2-1.5-3.1-1.5c-1.8,0-3,0.6-3,1.5c0,0.9,1.2,1.5,3,1.5
			C1091.7,3567.3,1092.9,3566.8,1092.9,3565.9z M1095.3,3559.5v0.6h-1.8v3.4h-0.7v-7.1h0.7v3.2H1095.3z"/>
		<path d="M1100.4,3559.7c0,2.1,1.7,4.2,3.2,5l-0.4,0.6c-1.3-0.7-2.6-2.1-3.1-3.9c-0.5,1.8-1.8,3.4-3.1,4.1l-0.4-0.6
			c1.5-0.8,3.2-3,3.2-5.1v-2.3h0.7V3559.7z M1105.9,3556.4v11.6h-0.7v-11.6H1105.9z"/>
		<path d="M1114.1,3559c-0.6,1.9-2.3,3.3-4.9,4.1l-0.3-0.5c2-0.7,3.4-1.7,4.1-2.9l-4.1,0.3l-0.1-0.6l4.5-0.2c0.2-0.5,0.3-1,0.4-1.5
			h-4.3v-0.6h5c0,0.5-0.1,0.9-0.2,1.4h3v-2.1h0.7v7h-0.7v-2h-3.3v-0.6h3.3v-1.8H1114.1z M1116.6,3564.4c0,1.2,1,2.4,2.4,2.9
			l-0.3,0.5c-1.2-0.4-2-1.3-2.4-2.3c-0.3,0.9-1,1.9-2.1,2.4c-1.1-0.5-1.8-1.4-2.2-2.4c-0.4,1-1.2,1.8-2.4,2.3l-0.4-0.5
			c1.4-0.5,2.4-1.8,2.4-2.9v-0.8h0.7v0.8c0,1.1,0.6,2.2,1.8,2.9c1.2-0.7,1.8-2,1.8-2.9v-0.8h0.7V3564.4z"/>
		<path d="M1130.9,3561.7v0.6h-10.4v-0.6H1130.9z M1130,3560.7c-1.6-0.3-3.6-1.2-4.3-2.6c-0.7,1.4-2.7,2.4-4.3,2.6l-0.3-0.6
			c1.8-0.2,4.2-1.4,4.2-3.1v-0.6h0.7v0.6c0,1.6,2.5,2.8,4.2,3.1L1130,3560.7z M1128.8,3563.3h0.7v4.4h-7.7v-4.4h0.7v1.6h6.3V3563.3z
			 M1128.8,3565.4h-6.3v1.7h6.3V3565.4z"/>
		<path d="M1134.1,3564.2c1.8,0,3.6-0.1,5.6-0.6l0.1,0.6c-2,0.4-3.8,0.6-5.7,0.6h-0.9v-7.4h0.7v6.7H1134.1z M1141.8,3556.4v11.5
			h-0.7v-11.5H1141.8z"/>
		<path d="M1145.8,3564.4c2.2,0,3.7-0.1,5.4-0.4l0.1,0.6c-1.8,0.3-3.3,0.4-5.5,0.4h-0.9v-7.5h5.3v0.6h-4.7v6.3H1145.8z
			 M1155.2,3561.7h-2v6.2h-0.7v-11.6h0.7v4.7h2V3561.7z"/>
		<path d="M1156.6,3566.5c0-0.4,0.3-0.7,0.7-0.7s0.7,0.3,0.7,0.7c0,0.4-0.3,0.7-0.7,0.7S1156.6,3566.9,1156.6,3566.5z"/>
	</g>
	<g class="st0">
		<path d="M768.3,3485.5h2.5c2.1,0,3.5,0.7,3.5,2.7c0,1.9-1.3,2.8-3.4,2.8h-1.7v4h-0.8V3485.5z M770.7,3490.3c1.9,0,2.8-0.6,2.8-2.2
			c0-1.5-0.9-2-2.8-2h-1.5v4.2H770.7z"/>
		<path d="M776.1,3494.3h2.1v-7.4h-1.7v-0.5c0.8-0.1,1.4-0.3,1.8-0.6h0.6v8.5h2v0.7h-4.9V3494.3z"/>
		<path d="M785.5,3490.3c0-3,1.7-4.9,4.1-4.9c1.1,0,2,0.5,2.5,1.1l-0.4,0.5c-0.5-0.6-1.2-0.9-2.1-0.9c-2,0-3.3,1.6-3.3,4.2
			c0,2.6,1.2,4.2,3.2,4.2c1,0,1.7-0.4,2.4-1.1l0.4,0.5c-0.7,0.8-1.6,1.4-2.8,1.4C787.2,3495.2,785.5,3493.3,785.5,3490.3z"/>
		<path d="M793,3485.5h0.8l1.7,5.4c0.4,1.1,0.6,2,1,3.2h0.1c0.4-1.1,0.6-2,1-3.2l1.7-5.4h0.8l-3.1,9.5h-0.9L793,3485.5z"/>
		<path d="M801.4,3485.5h2.2c2.9,0,4.3,1.8,4.3,4.7c0,2.9-1.4,4.8-4.3,4.8h-2.2V3485.5z M803.6,3494.3c2.5,0,3.6-1.7,3.6-4.1
			s-1.1-4.1-3.6-4.1h-1.4v8.2H803.6z"/>
	</g>
	<g class="st0">
		<path d="M815.3,3490.8h-5.2v-5.6h0.7v2.1h3.9v-2.1h0.7V3490.8z M814.6,3487.9h-3.9v2.4h3.9V3487.9z M812.1,3495h6.9v0.6h-7.6v-3.6
			h0.7V3495z M820.2,3488v0.6h-1.8v4.2h-0.7v-8.5h0.7v3.6H820.2z"/>
		<path d="M831.9,3490.1v0.6h-10.4v-0.6H831.9z M830.7,3486.8c0,1.4-1.5,2.2-4,2.2c-2.5,0-4-0.8-4-2.2s1.5-2.1,4-2.1
			C829.2,3484.7,830.7,3485.5,830.7,3486.8z M830.6,3493.9c0,1.3-1.5,2-3.9,2s-3.9-0.7-3.9-2s1.5-2,3.9-2S830.6,3492.6,830.6,3493.9
			z M823.4,3486.8c0,1,1.3,1.6,3.3,1.6c2,0,3.3-0.6,3.3-1.6c0-1-1.3-1.6-3.3-1.6C824.7,3485.2,823.4,3485.9,823.4,3486.8z
			 M823.5,3493.9c0,0.9,1.3,1.5,3.2,1.5s3.2-0.5,3.2-1.5c0-0.9-1.3-1.5-3.2-1.5S823.5,3493,823.5,3493.9z"/>
		<path d="M839.5,3485.6c0,3.2-1.7,6.2-5.4,8l-0.4-0.6c3.2-1.5,4.9-4,5.1-6.8h-4.6v-0.6H839.5z M842.8,3484.4v11.5h-0.7v-11.5H842.8
			z"/>
		<path d="M845.5,3492.7c2.2,0,5.1,0,7.7-0.4l0.1,0.5c-2.7,0.5-5.5,0.5-7.6,0.5L845.5,3492.7z M852.2,3487.9c0,1.6-1.2,2.6-3,2.6
			s-3-1.1-3-2.6s1.2-2.6,3-2.6S852.2,3486.3,852.2,3487.9z M846.8,3487.9c0,1.2,1,2,2.4,2s2.4-0.9,2.4-2c0-1.2-1-2-2.4-2
			S846.8,3486.7,846.8,3487.9z M854.7,3484.4v11.6H854v-11.6H854.7z"/>
		<path d="M870.7,3490.4v0.6h-4.8v2.6h-0.7v-2.6h-5v-0.6H870.7z M861.5,3487c0-1.4,1.6-2.3,4-2.3c2.4,0,4,0.9,4,2.3s-1.6,2.3-4,2.3
			C863.1,3489.2,861.5,3488.4,861.5,3487z M862.3,3495h7.2v0.6h-7.9v-3.3h0.7V3495z M862.2,3487c0,1,1.3,1.7,3.3,1.7
			c1.9,0,3.3-0.7,3.3-1.7c0-1-1.3-1.7-3.3-1.7C863.5,3485.3,862.2,3486,862.2,3487z"/>
		<path d="M878.6,3491c-1.3-0.5-2.4-1.5-2.9-2.8c-0.5,1.4-1.7,2.6-3,3.1l-0.4-0.6c1.6-0.6,3-2.1,3-3.9v-0.8h-2.8v-0.6h6.1v0.6H876
			v0.8c0,1.6,1.3,3,2.9,3.6L878.6,3491z M882,3495v0.6h-7.6v-3.5h0.7v3H882z M880.9,3487.7v-3.3h0.7v8.5h-0.7v-4.6h-2.6v-0.6H880.9z
			"/>
	</g>
	<g class="st0">
		<path d="M887.7,3485.5h2.8c1.9,0,3.2,0.7,3.2,2.5c0,1.5-0.9,2.4-2.4,2.6l2.6,4.3h-0.9l-2.5-4.3h-1.9v4.3h-0.8V3485.5z
			 M890.3,3490.1c1.6,0,2.5-0.7,2.5-2c0-1.4-0.9-1.9-2.5-1.9h-1.8v3.9H890.3z"/>
		<path d="M894.8,3491.5c0-2.2,1.5-3.7,3-3.7c1.7,0,2.7,1.2,2.7,3.2c0,0.2,0,0.4,0,0.5h-4.9c0,1.7,1,2.9,2.5,2.9
			c0.7,0,1.3-0.2,1.8-0.6l0.3,0.6c-0.6,0.4-1.2,0.7-2.2,0.7C896.3,3495.2,894.8,3493.8,894.8,3491.5z M899.8,3491.1
			c0-1.7-0.8-2.5-2-2.5c-1.1,0-2.1,0.9-2.3,2.5H899.8z"/>
		<path d="M901.8,3491.5c0-2.3,1.5-3.7,3.2-3.7c0.9,0,1.5,0.4,2,0.8l-0.4,0.5c-0.4-0.4-0.9-0.7-1.6-0.7c-1.4,0-2.4,1.2-2.4,3
			c0,1.8,1,3,2.4,3c0.7,0,1.3-0.4,1.8-0.8l0.4,0.5c-0.6,0.5-1.4,0.9-2.2,0.9C903.2,3495.2,901.8,3493.8,901.8,3491.5z"/>
		<path d="M908.6,3485.8c0-0.4,0.3-0.6,0.6-0.6c0.3,0,0.6,0.2,0.6,0.6c0,0.4-0.3,0.6-0.6,0.6
			C908.9,3486.4,908.6,3486.2,908.6,3485.8z M908.9,3488.1h0.8v6.9h-0.8V3488.1z"/>
		<path d="M912.2,3488.1h0.6l0.1,0.8h0c0.7-0.5,1.5-1,2.3-1c1.8,0,2.8,1.4,2.8,3.5c0,2.4-1.4,3.7-3.1,3.7c-0.6,0-1.3-0.3-2-0.8
			l0,1.3v2.5h-0.8V3488.1z M917.2,3491.4c0-1.7-0.6-2.9-2.1-2.9c-0.7,0-1.4,0.4-2.2,1.1v4c0.7,0.6,1.5,0.8,2,0.8
			C916.3,3494.5,917.2,3493.3,917.2,3491.4z"/>
		<path d="M919.5,3491.5c0-2.2,1.5-3.7,3-3.7c1.7,0,2.7,1.2,2.7,3.2c0,0.2,0,0.4,0,0.5h-4.9c0,1.7,1,2.9,2.5,2.9
			c0.7,0,1.3-0.2,1.8-0.6l0.3,0.6c-0.6,0.4-1.2,0.7-2.2,0.7C920.9,3495.2,919.5,3493.8,919.5,3491.5z M924.5,3491.1
			c0-1.7-0.8-2.5-2-2.5c-1.1,0-2.1,0.9-2.3,2.5H924.5z"/>
	</g>
	<g class="st0">
		<path d="M937,3489.8v0.5h-10.5v-0.5H937z M928.5,3495.2h7.5v0.5h-8.2v-2.4h7.1v-1.2h-7.2v-0.5h7.8v2.3h-7.1V3495.2z M934.9,3485.3
			h-7.1v-0.5h7.7v2.2h-7v1.2h7.2v0.5h-7.9v-2.3h7V3485.3z"/>
	</g>
	<g class="st0">
		<path d="M770.7,3516.7c1.2-0.1,2.4-0.2,3.5-0.3l0.1,0.5c-2.6,0.5-5.5,0.5-7.6,0.5l-0.1-0.6c1,0,2.2,0,3.4,0v-2.4h0.7V3516.7z
			 M767,3514.2c1.6-0.5,3-1.9,3-3.6v-0.1h-2.8v-0.6h2.8v-1.5h0.7v1.5h2.9v0.6h-2.9v0.1c0,1.7,1.4,3,3.1,3.5l-0.3,0.5
			c-1.4-0.5-2.6-1.4-3.1-2.7c-0.5,1.4-1.7,2.4-3,2.8L767,3514.2z M775.7,3508.4v11.6H775v-11.6H775.7z"/>
		<path d="M784.8,3514.8c-1.3-0.5-2.4-1.5-2.9-2.8c-0.5,1.4-1.6,2.6-3,3.1l-0.4-0.5c1.6-0.6,3-2.1,3-3.9v-0.8h-2.8v-0.6h6.1v0.6
			h-2.7v0.8c0,1.6,1.3,3,2.9,3.6L784.8,3514.8z M780.2,3516h7.6v3.9h-0.7v-3.3h-6.9V3516z M787.8,3508.4v6.9h-0.7v-3.2h-2.6v-0.6
			h2.6v-3.2H787.8z"/>
		<path d="M794.3,3516.9c1.2-0.1,2.3-0.1,3.4-0.3l0.1,0.5c-2.5,0.4-5.3,0.5-7.3,0.5l-0.1-0.6c1,0,2.1,0,3.3-0.1v-1.4
			c-1.4-0.1-2.3-0.9-2.3-2.1c0-1.3,1.1-2.1,2.7-2.1c1.6,0,2.7,0.8,2.7,2.1c0,1.2-0.9,2-2.3,2.1V3516.9z M797.4,3510.4h-7v-0.6h3.1
			v-1.5h0.7v1.5h3.1V3510.4z M793.9,3514.9c1.2,0,2-0.7,2-1.6c0-0.9-0.8-1.6-2-1.6c-1.2,0-2,0.6-2,1.6
			C791.9,3514.3,792.7,3514.9,793.9,3514.9z M801.1,3514h-2v5.9h-0.7v-11.5h0.7v5h2V3514z"/>
		<path d="M806.1,3510.3h3v0.6h-6.9v-0.6h3.1v-1.8h0.7V3510.3z M808.5,3514.6c0,1.5-1.1,2.6-2.7,2.6s-2.7-1.1-2.7-2.6
			c0-1.5,1.1-2.6,2.7-2.6S808.5,3513.1,808.5,3514.6z M807.9,3514.6c0-1.1-0.9-2-2.1-2c-1.2,0-2.1,0.9-2.1,2c0,1.1,0.9,2,2.1,2
			C807,3516.6,807.9,3515.7,807.9,3514.6z M813.1,3513.8h-2v6.1h-0.7v-11.5h0.7v4.9h2V3513.8z"/>
		<path d="M823.7,3508.4v11.5H823v-4.6h-3.2c-0.5,1.2-1.4,1.9-2.5,1.9c-1.7,0-2.8-1.5-2.8-4c0-2.4,1.2-4,2.8-4
			c1.1,0,1.9,0.7,2.4,1.8h3.3v-2.7H823.7z M819.5,3513.3c0-2-0.9-3.4-2.2-3.4s-2.2,1.4-2.2,3.4c0,2,0.9,3.4,2.2,3.4
			S819.5,3515.2,819.5,3513.3z M823,3514.8v-3.1H820c0.1,0.5,0.2,1,0.2,1.6c0,0.5-0.1,1-0.2,1.5H823z"/>
		<path d="M835.5,3515c-1.3-0.5-2.4-1.5-2.9-2.8c-0.5,1.4-1.7,2.6-3,3.1l-0.4-0.6c1.6-0.6,3-2.1,3-3.9v-0.8h-2.8v-0.6h6.1v0.6H833
			v0.8c0,1.6,1.3,3,2.9,3.6L835.5,3515z M838.9,3519v0.6h-7.6v-3.5h0.7v3H838.9z M837.9,3511.7v-3.3h0.7v8.5h-0.7v-4.6h-2.6v-0.6
			H837.9z"/>
		<path d="M847.4,3514.5c-1.5,0.2-2.6,0.3-5,0.3h-0.8v-3.2h4.2v-1.9h-4.3v-0.6h4.9v3h-4.2v2.1h0.1c2.3,0,3.5,0,4.9-0.3L847.4,3514.5
			z M842.9,3516.1h7.6v3.8h-0.7v-3.2h-6.9V3516.1z M850.5,3508.4v7.1h-0.7v-2.4h-2.5v-0.6h2.5v-1.8h-2.5v-0.6h2.5v-1.8H850.5z"/>
		<path d="M856.7,3511.7c0,2,1.6,4.1,3.1,4.9l-0.4,0.5c-1.2-0.7-2.5-2.1-3-3.8c-0.5,1.8-1.7,3.4-3,4.1l-0.4-0.6
			c1.5-0.8,3.1-3,3.1-5.1v-2.3h0.7V3511.7z M863.9,3513.8h-2v6.1h-0.7v-11.6h0.7v4.8h2V3513.8z"/>
		<path d="M875.5,3514.2v0.6H865v-0.6h2.7v-1.8c-0.9-0.4-1.5-0.9-1.5-1.7c0-1.3,1.5-2.1,4-2.1c2.5,0,4,0.8,4,2.1
			c0,0.8-0.5,1.4-1.5,1.7v1.8H875.5z M874.2,3517.9c0,1.3-1.5,2-3.9,2s-3.9-0.7-3.9-2c0-1.3,1.5-2,3.9-2S874.2,3516.6,874.2,3517.9z
			 M870.2,3512.2c2,0,3.3-0.6,3.3-1.5c0-0.9-1.3-1.5-3.3-1.5c-2,0-3.3,0.6-3.3,1.5C867,3511.6,868.3,3512.2,870.2,3512.2z
			 M873.5,3517.9c0-0.9-1.3-1.5-3.2-1.5s-3.2,0.6-3.2,1.5c0,0.9,1.3,1.5,3.2,1.5S873.5,3518.8,873.5,3517.9z M868.4,3514.2h3.7v-1.6
			c-0.5,0.1-1.2,0.2-1.9,0.2c-0.7,0-1.3-0.1-1.8-0.2V3514.2z"/>
		<path d="M884,3514.2c-2,0.3-3.5,0.4-5.6,0.4h-0.9v-3.1h4.4v-1.8h-4.5v-0.6h5.1v2.9h-4.4v2h0.2c2,0,3.5-0.1,5.5-0.4L884,3514.2z
			 M886,3517.8c0,1.3-1.4,2.1-3.7,2.1c-2.3,0-3.7-0.7-3.7-2.1c0-1.3,1.4-2,3.7-2C884.6,3515.8,886,3516.5,886,3517.8z M885.3,3517.8
			c0-0.9-1.2-1.5-3.1-1.5c-1.9,0-3.1,0.6-3.1,1.5c0,0.9,1.2,1.5,3.1,1.5C884.1,3519.3,885.3,3518.8,885.3,3517.8z M885.9,3510.9v1.8
			h1.8v0.6h-1.8v2h-0.7v-7h0.7v1.9h1.8v0.6H885.9z"/>
		<path d="M899.4,3513.5v0.6H889v-0.6H899.4z M890.2,3510.6c0-1.3,1.5-2,4-2c2.5,0,4,0.7,4,2c0,1.3-1.5,2-4,2
			C891.7,3512.6,890.2,3511.9,890.2,3510.6z M891,3519.2h7.4v0.6h-8.1v-2.6h7v-1.3h-7.1v-0.6h7.7v2.4h-7V3519.2z M890.9,3510.6
			c0,0.9,1.3,1.5,3.3,1.5s3.3-0.6,3.3-1.5c0-0.9-1.3-1.5-3.3-1.5S890.9,3509.7,890.9,3510.6z"/>
		<path d="M908,3516.7c1.2-0.1,2.4-0.2,3.5-0.3l0.1,0.5c-2.6,0.5-5.5,0.5-7.6,0.5l-0.1-0.6c1,0,2.2,0,3.4,0v-2.4h0.7V3516.7z
			 M904.3,3514.2c1.6-0.5,3-1.9,3-3.6v-0.1h-2.8v-0.6h2.8v-1.5h0.7v1.5h2.9v0.6H908v0.1c0,1.7,1.4,3,3.1,3.5l-0.3,0.5
			c-1.4-0.5-2.6-1.4-3.1-2.7c-0.5,1.4-1.7,2.4-3,2.8L904.3,3514.2z M913.1,3508.4v11.6h-0.7v-11.6H913.1z"/>
		<path d="M926.2,3517.7v0.6h-10.5v-0.6h4.8v-3h0.7v3H926.2z M925.3,3514.8c-1.5-0.4-3.7-1.6-4.4-3.4c-0.7,1.8-2.8,3-4.4,3.4
			l-0.3-0.6c1.7-0.3,4.3-2,4.3-4.1v-0.9h0.7v0.9c0,2.1,2.7,3.8,4.3,4.1L925.3,3514.8z"/>
		<path d="M931.6,3516.9c1.2-0.1,2.3-0.1,3.4-0.3l0.1,0.5c-2.5,0.4-5.3,0.5-7.3,0.5l-0.1-0.6c1,0,2.1,0,3.3-0.1v-1.4
			c-1.4-0.1-2.3-0.9-2.3-2.1c0-1.3,1.1-2.1,2.7-2.1c1.6,0,2.7,0.8,2.7,2.1c0,1.2-0.9,2-2.3,2.1V3516.9z M934.7,3510.4h-7v-0.6h3.1
			v-1.5h0.7v1.5h3.1V3510.4z M931.3,3514.9c1.2,0,2-0.7,2-1.6c0-0.9-0.8-1.6-2-1.6c-1.2,0-2,0.6-2,1.6
			C929.3,3514.3,930.1,3514.9,931.3,3514.9z M938.5,3514h-2v5.9h-0.7v-11.5h0.7v5h2V3514z"/>
	</g>
	<g class="st0">
		<path d="M777.9,3534.3h-6.8v-0.6h3.1v-1.4h0.7v1.4h3.1V3534.3z M774.5,3539.1c-1.7,0-2.7-0.8-2.7-2c0-1.3,1.1-2,2.7-2
			c1.6,0,2.7,0.8,2.7,2C777.2,3538.3,776.1,3539.1,774.5,3539.1z M774.5,3538.5c1.2,0,2.1-0.6,2.1-1.5c0-0.9-0.8-1.5-2.1-1.5
			c-1.2,0-2.1,0.6-2.1,1.5C772.4,3537.9,773.2,3538.5,774.5,3538.5z M772.8,3540h7.1v3.7h-7.1V3540z M773.5,3543.1h5.7v-2.5h-5.7
			V3543.1z M781.7,3536.1h-1.8v3.2h-0.7v-7h0.7v3.2h1.8V3536.1z"/>
		<path d="M793.4,3541.7v0.6H783v-0.6H793.4z M792.3,3536.3c0,1.9-1.8,3.1-4.1,3.1c-2.4,0-4.1-1.2-4.1-3.1c0-1.9,1.7-3.1,4.1-3.1
			C790.6,3533.2,792.3,3534.4,792.3,3536.3z M784.7,3536.3c0,1.5,1.5,2.5,3.5,2.5c2,0,3.5-1.1,3.5-2.5c0-1.5-1.5-2.5-3.5-2.5
			C786.2,3533.8,784.7,3534.8,784.7,3536.3z"/>
		<path d="M805.4,3541.8v0.6h-10.5v-0.6h4.9v-2.4h-3.5v-3.4h7.1v-2.1h-7.1v-0.6h7.8v3.3H797v2.2h7.3v0.6h-3.8v2.4H805.4z"/>
		<path d="M812.6,3536.4c0,1.3,0.5,3.3,1.9,4.2l-0.5,0.5c-0.9-0.7-1.5-1.8-1.7-2.9c-0.2,1.2-0.7,2.3-1.7,3c-0.9-0.7-1.4-1.9-1.7-3
			c-0.3,1.1-0.8,2.3-1.7,2.9l-0.5-0.5c1.4-0.9,1.9-3,1.9-4.2v-3h0.7v3c0,1,0.3,2.9,1.3,4c1-1.1,1.3-2.8,1.3-4v-3h0.7V3536.4z
			 M816.4,3532.4v11.5h-0.7v-6.6h-2.3v-0.6h2.3v-4.3H816.4z"/>
		<path d="M828.6,3532.6h0.7v10.6h-0.7v-5.7h-1.8c-0.1,2.2-1,3.7-2.4,3.7c-1.5,0-2.4-1.5-2.4-3.9c0-2.4,1-3.9,2.4-3.9
			c1.4,0,2.4,1.4,2.4,3.6h1.8V3532.6z M826.1,3537.3c0-1.9-0.7-3.3-1.8-3.3c-1.1,0-1.8,1.4-1.8,3.3c0,1.9,0.7,3.3,1.8,3.3
			C825.4,3540.6,826.1,3539.3,826.1,3537.3z M831.5,3532.4v11.6h-0.7v-11.6H831.5z"/>
		<path d="M835.2,3540.5c1.9,0,3.4-0.1,5.2-0.5l0.1,0.6c-1.8,0.4-3.4,0.5-5.3,0.5h-0.8v-7.4h0.7v6.8H835.2z M843.1,3532.4v11.6h-0.7
			v-7h-3.8v-0.6h3.8v-3.9H843.1z"/>
		<path d="M849.6,3536.1c0,2,1.7,4,3.2,4.7l-0.4,0.5c-1.3-0.6-2.6-2-3.2-3.7c-0.5,1.7-1.8,3.3-3.1,4l-0.4-0.6c1.5-0.8,3.2-3,3.2-5
			v-2H846v-0.6h6.4v0.6h-2.9V3536.1z M855,3532.4v11.5h-0.7v-11.5H855z"/>
		<path d="M871,3541.9v0.6h-10.5v-0.6h2.9v-2.3c-0.9-0.3-1.4-0.9-1.4-1.7c0-1.4,1.4-2.1,3.7-2.1s3.7,0.8,3.7,2.1
			c0,0.8-0.5,1.4-1.4,1.7v2.3H871z M870.3,3534.8h-9.3v-0.6h4.3v-1.7h0.7v1.7h4.3V3534.8z M865.7,3539.4c1.8,0,3-0.6,3-1.6
			c0-1-1.2-1.6-3-1.6c-1.8,0-3,0.6-3,1.6C862.7,3538.8,863.9,3539.4,865.7,3539.4z M864.1,3541.9h3.2v-2.1c-0.5,0.1-1,0.2-1.6,0.2
			c-0.6,0-1.1-0.1-1.6-0.2V3541.9z"/>
		<path d="M879.8,3538v1.3h1.7v2.4h-7v1.5h7.4v0.6h-8.1v-2.6h7v-1.3h-7.1v-0.6h1.6v-1.3h-3v-0.6h10.4v0.6H879.8z M873.7,3534.5
			c0-1.3,1.5-2,4-2c2.5,0,4,0.7,4,2c0,1.3-1.5,2-4,2C875.2,3536.6,873.7,3535.8,873.7,3534.5z M874.4,3534.5c0,0.9,1.3,1.5,3.3,1.5
			c2,0,3.3-0.6,3.3-1.5c0-0.9-1.3-1.5-3.3-1.5C875.7,3533.1,874.4,3533.6,874.4,3534.5z M879.1,3538h-3v1.3h3V3538z"/>
		<path d="M894.9,3537.5v0.6h-10.4v-0.6H894.9z M885.6,3534.6c0-1.3,1.5-2,4-2c2.5,0,4,0.7,4,2c0,1.3-1.5,2-4,2
			C887.1,3536.6,885.6,3535.9,885.6,3534.6z M886.4,3543.2h7.4v0.6h-8.1v-2.6h7v-1.3h-7.1v-0.6h7.7v2.4h-7V3543.2z M886.4,3534.6
			c0,0.9,1.3,1.5,3.3,1.5s3.3-0.6,3.3-1.5c0-0.9-1.3-1.5-3.3-1.5S886.4,3533.7,886.4,3534.6z"/>
		<path d="M909.7,3537.3v0.6h-10.5v-0.6h8c0.4-1.6,0.4-2.7,0.4-3.6v-0.2h-7v-0.6h7.7v0.8c0,0.9,0,2-0.3,3.6H909.7z M900.4,3539.9h8
			v4.1h-0.7v-3.5h-7.3V3539.9z"/>
		<path d="M912.4,3540.3c1.9,0,3-0.1,4.3-0.4l0.1,0.6c-1.4,0.3-2.5,0.4-4.4,0.4h-0.7v-7.1h4.3v0.6h-3.6L912.4,3540.3L912.4,3540.3z
			 M921,3532.4v11.5h-0.7v-6.2h-2v5.6h-0.7v-10.6h0.7v4.5h2v-4.7H921z"/>
		<path d="M927.1,3540.9c1.2-0.1,2.3-0.1,3.4-0.3l0.1,0.5c-2.5,0.4-5.3,0.5-7.3,0.5l-0.1-0.6c1,0,2.1,0,3.3-0.1v-1.4
			c-1.4-0.1-2.3-0.9-2.3-2.1c0-1.3,1.1-2.1,2.7-2.1c1.6,0,2.7,0.8,2.7,2.1c0,1.2-0.9,2-2.3,2.1V3540.9z M930.2,3534.4h-7v-0.6h3.1
			v-1.5h0.7v1.5h3.1V3534.4z M926.7,3538.9c1.2,0,2-0.7,2-1.6c0-0.9-0.8-1.6-2-1.6c-1.2,0-2,0.6-2,1.6
			C924.7,3538.3,925.5,3538.9,926.7,3538.9z M933.9,3538h-2v5.9h-0.7v-11.5h0.7v5h2V3538z"/>
	</g>
	<g class="st0">
		<path d="M825.3,3558.3h3v0.6h-6.9v-0.6h3.1v-1.8h0.7V3558.3z M827.7,3562.6c0,1.5-1.1,2.6-2.7,2.6s-2.7-1.1-2.7-2.6
			c0-1.5,1.1-2.6,2.7-2.6S827.7,3561.1,827.7,3562.6z M827.1,3562.6c0-1.1-0.9-2-2.1-2c-1.2,0-2.1,0.9-2.1,2c0,1.1,0.9,2,2.1,2
			C826.2,3564.6,827.1,3563.7,827.1,3562.6z M832.4,3561.8h-2v6.1h-0.7v-11.5h0.7v4.9h2V3561.8z"/>
		<path d="M839.1,3561.3c-0.5,0.7-1.4,1.1-2.4,1.1c-1.7,0-2.9-1.1-2.9-2.7s1.2-2.7,2.9-2.7c1,0,1.9,0.4,2.4,1.1h3.2v-1.7h0.7v6.7
			h-0.7v-1.7H839.1z M841.6,3564.3c0,1.2,1,2.4,2.4,3l-0.4,0.5c-1.2-0.4-2-1.3-2.4-2.3c-0.3,0.9-1.1,1.9-2.1,2.4
			c-1.1-0.5-1.8-1.4-2.2-2.4c-0.4,1-1.3,1.8-2.4,2.3l-0.4-0.5c1.4-0.5,2.4-1.8,2.4-3v-0.9h0.7v0.9c0,1.1,0.6,2.3,1.8,2.9
			c1.2-0.7,1.8-2,1.8-2.9v-0.9h0.7V3564.3z M834.4,3559.7c0,1.2,0.9,2.1,2.2,2.1c1.3,0,2.2-0.9,2.2-2.1c0-1.2-0.9-2.1-2.2-2.1
			C835.4,3557.6,834.4,3558.5,834.4,3559.7z M839.4,3558.7c0.1,0.3,0.2,0.7,0.2,1.1c0,0.4-0.1,0.7-0.2,1h2.8v-2.1H839.4z"/>
		<path d="M855.9,3561.7v0.6h-10.4v-0.6H855.9z M855,3560.7c-1.6-0.3-3.6-1.2-4.3-2.6c-0.7,1.4-2.7,2.4-4.3,2.6l-0.3-0.6
			c1.8-0.2,4.2-1.4,4.2-3.1v-0.6h0.7v0.6c0,1.6,2.5,2.8,4.2,3.1L855,3560.7z M853.8,3563.3h0.7v4.4h-7.7v-4.4h0.7v1.6h6.3V3563.3z
			 M853.8,3565.4h-6.3v1.7h6.3V3565.4z"/>
		<path d="M859.1,3564.2c1.8,0,3.6-0.1,5.6-0.6l0.1,0.6c-2,0.4-3.8,0.6-5.7,0.6h-0.9v-7.4h0.7v6.7H859.1z M866.8,3556.4v11.5h-0.7
			v-11.5H866.8z"/>
		<path d="M870.8,3564.4c2.2,0,3.7-0.1,5.4-0.4l0.1,0.6c-1.8,0.3-3.3,0.4-5.5,0.4h-0.9v-7.5h5.3v0.6h-4.7v6.3H870.8z M880.2,3561.7
			h-2v6.2h-0.7v-11.6h0.7v4.7h2V3561.7z"/>
		<path d="M881.6,3566.5c0-0.4,0.3-0.7,0.7-0.7s0.7,0.3,0.7,0.7c0,0.4-0.3,0.7-0.7,0.7S881.6,3566.9,881.6,3566.5z"/>
	</g>
	<g class="st0">
		<path d="M1483.7,3485.6c0,3.2-1.7,6.2-5.4,8l-0.4-0.6c3.2-1.5,4.9-4,5.1-6.8h-4.6v-0.6H1483.7z M1487.1,3484.4v11.5h-0.7v-11.5
			H1487.1z"/>
		<path d="M1500.1,3490.7v0.6h-10.5v-0.6h4.9v-2.1h0.7v2.1H1500.1z M1490.4,3488.8c1.8-0.3,4.1-1.4,4.1-3.1v-0.2h-3.9v-0.6h8.5v0.6
			h-3.9v0.2c0,1.7,2.3,2.8,4.1,3.1l-0.3,0.6c-1.7-0.3-3.6-1.2-4.2-2.7c-0.6,1.4-2.5,2.4-4.2,2.7L1490.4,3488.8z M1491.7,3495h7.2
			v0.6h-7.9v-3.2h0.7V3495z"/>
		<path d="M1515,3493.9v0.6h-10.5v-0.6h2.9v-2.3c-0.9-0.3-1.4-0.9-1.4-1.7c0-1.4,1.4-2.1,3.7-2.1s3.7,0.8,3.7,2.1
			c0,0.8-0.5,1.4-1.4,1.7v2.3H1515z M1514.3,3486.8h-9.3v-0.6h4.3v-1.7h0.7v1.7h4.3V3486.8z M1509.7,3491.4c1.8,0,3-0.6,3-1.6
			c0-1-1.2-1.6-3-1.6c-1.8,0-3,0.6-3,1.6C1506.7,3490.8,1507.9,3491.4,1509.7,3491.4z M1508.1,3493.9h3.2v-2.1
			c-0.5,0.1-1,0.2-1.6,0.2c-0.6,0-1.1-0.1-1.6-0.2V3493.9z"/>
		<path d="M1523.8,3490v1.3h1.7v2.4h-7v1.5h7.4v0.6h-8.1v-2.6h7v-1.3h-7.1v-0.6h1.6v-1.3h-3v-0.6h10.4v0.6H1523.8z M1517.7,3486.5
			c0-1.3,1.5-2,4-2c2.5,0,4,0.7,4,2c0,1.3-1.5,2-4,2C1519.2,3488.6,1517.7,3487.8,1517.7,3486.5z M1518.4,3486.5
			c0,0.9,1.3,1.5,3.3,1.5s3.3-0.6,3.3-1.5c0-0.9-1.3-1.5-3.3-1.5S1518.4,3485.6,1518.4,3486.5z M1523.1,3490h-3v1.3h3V3490z"/>
		<path d="M1534.6,3489.3c0,2.4-1.2,4-2.9,4c-1.7,0-2.9-1.5-2.9-4c0-2.4,1.2-4,2.9-4C1533.5,3485.3,1534.6,3486.9,1534.6,3489.3z
			 M1529.6,3489.3c0,2,0.9,3.4,2.2,3.4c1.3,0,2.2-1.4,2.2-3.4c0-2-0.9-3.4-2.2-3.4C1530.5,3485.9,1529.6,3487.3,1529.6,3489.3z
			 M1537.8,3484.4v11.5h-0.7v-11.5H1537.8z"/>
		<path d="M1550.2,3489.4c-2,0.4-3.7,0.5-5.5,0.5h-0.9v-4.9h0.7v4.3h0.2c1.7,0,3.4-0.1,5.4-0.5L1550.2,3489.4z M1549,3492.3
			c0,1.5,2.1,2.7,3.8,3l-0.3,0.5c-1.5-0.3-3.2-1.2-3.8-2.5c-0.6,1.3-2.3,2.2-3.8,2.5l-0.3-0.5c1.7-0.3,3.8-1.5,3.8-3v-0.1h-3.4v-0.6
			h7.4v0.6L1549,3492.3L1549,3492.3z M1554,3487.4v0.6h-1.8v3.1h-0.7v-6.7h0.7v3H1554z"/>
		<path d="M1565.7,3490.5v0.6h-10.4v-0.6H1565.7z M1556.5,3487c0-1.4,1.5-2.2,4-2.2s4,0.8,4,2.2c0,1.4-1.5,2.3-4,2.3
			S1556.5,3488.5,1556.5,3487z M1557.3,3495h7.2v0.6h-7.9v-3.3h0.7V3495z M1557.2,3487c0,1,1.3,1.7,3.3,1.7c2,0,3.3-0.7,3.3-1.7
			c0-1-1.3-1.7-3.3-1.7C1558.5,3485.3,1557.2,3486,1557.2,3487z"/>
		<path d="M1575.6,3489.8c-1.6,0.3-2.9,0.4-4.2,0.4h-0.7v-4.9h0.7v4.3c1.3,0,2.6-0.1,4.1-0.4L1575.6,3489.8z M1579.8,3493.8
			c0,1.3-1.4,2.1-3.8,2.1c-2.3,0-3.8-0.8-3.8-2.1c0-1.4,1.4-2.1,3.8-2.1C1578.4,3491.6,1579.8,3492.4,1579.8,3493.8z M1579.1,3493.8
			c0-1-1.2-1.6-3.1-1.6s-3.1,0.6-3.1,1.6c0,0.9,1.2,1.5,3.1,1.5S1579.1,3494.7,1579.1,3493.8z M1577.1,3491h-0.7v-6.4h0.7v2.9h2
			v-3.1h0.7v7h-0.7v-3.3h-2V3491z"/>
		<path d="M1592.5,3490.2v0.6H1582v-0.6h4.9v-1.5h-3.5v-3.8h7.8v0.6h-7.1v2.6h7.2v0.6h-3.7v1.5H1592.5z M1591.2,3493.8
			c0,1.3-1.5,2.1-3.9,2.1s-3.9-0.7-3.9-2.1c0-1.3,1.5-2.1,3.9-2.1S1591.2,3492.5,1591.2,3493.8z M1590.5,3493.8
			c0-0.9-1.3-1.5-3.2-1.5c-2,0-3.2,0.6-3.2,1.5c0,0.9,1.3,1.5,3.2,1.5C1589.2,3495.3,1590.5,3494.8,1590.5,3493.8z"/>
		<path d="M1600,3485.6c0,3.2-1.7,6.2-5.4,8l-0.4-0.6c3.2-1.5,4.9-4,5.1-6.8h-4.6v-0.6H1600z M1603.4,3484.4v11.5h-0.7v-11.5H1603.4
			z"/>
		<path d="M1616.4,3489.8v0.5h-10.5v-0.5H1616.4z M1607.9,3495.2h7.5v0.5h-8.2v-2.4h7.1v-1.2h-7.2v-0.5h7.8v2.3h-7.1V3495.2z
			 M1614.4,3485.3h-7.1v-0.5h7.7v2.2h-7v1.2h7.2v0.5h-7.9v-2.3h7V3485.3z"/>
	</g>
	<g class="st0">
		<path d="M1489.6,3517.6v0.6h-10.4v-0.6h4.3v-4.2h0.7v4.2H1489.6z M1487.5,3510.2h-7.2v-0.6h7.9v1.2c0,1.4,0,3-0.4,5.2l-0.7-0.1
			c0.4-2.2,0.4-3.7,0.4-5.1V3510.2z"/>
		<path d="M1501.6,3517.9v0.6h-10.5v-0.6h2.9v-2.3c-0.9-0.3-1.4-0.9-1.4-1.7c0-1.4,1.4-2.1,3.7-2.1s3.7,0.8,3.7,2.1
			c0,0.8-0.5,1.4-1.4,1.7v2.3H1501.6z M1500.9,3510.8h-9.3v-0.6h4.3v-1.7h0.7v1.7h4.3V3510.8z M1496.3,3515.4c1.8,0,3-0.6,3-1.6
			c0-1-1.2-1.6-3-1.6s-3,0.6-3,1.6C1493.3,3514.8,1494.5,3515.4,1496.3,3515.4z M1494.7,3517.9h3.2v-2.1c-0.5,0.1-1,0.2-1.6,0.2
			s-1.1-0.1-1.6-0.2V3517.9z"/>
		<path d="M1510.4,3514v1.3h1.7v2.4h-7v1.5h7.4v0.6h-8.1v-2.6h7v-1.3h-7.1v-0.6h1.6v-1.3h-3v-0.6h10.4v0.6H1510.4z M1504.3,3510.5
			c0-1.3,1.5-2,4-2c2.5,0,4,0.7,4,2c0,1.3-1.5,2-4,2C1505.8,3512.6,1504.3,3511.8,1504.3,3510.5z M1505,3510.5
			c0,0.9,1.3,1.5,3.3,1.5c2,0,3.3-0.6,3.3-1.5c0-0.9-1.3-1.5-3.3-1.5C1506.3,3509.1,1505,3509.6,1505,3510.5z M1509.7,3514h-3v1.3h3
			V3514z"/>
		<path d="M1523.5,3513.8c-1.6,0.3-2.9,0.4-4.2,0.4h-0.7v-4.9h0.7v4.3c1.3,0,2.6-0.1,4.1-0.4L1523.5,3513.8z M1527.6,3517.8
			c0,1.3-1.4,2.1-3.8,2.1c-2.3,0-3.8-0.8-3.8-2.1c0-1.4,1.4-2.1,3.8-2.1C1526.2,3515.6,1527.6,3516.4,1527.6,3517.8z M1527,3517.8
			c0-1-1.2-1.6-3.1-1.6c-1.9,0-3.1,0.6-3.1,1.6c0,0.9,1.2,1.5,3.1,1.5C1525.7,3519.3,1527,3518.7,1527,3517.8z M1525,3515h-0.7v-6.4
			h0.7v2.9h2v-3.1h0.7v7h-0.7v-3.3h-2V3515z"/>
		<path d="M1540.3,3514.2v0.6h-10.4v-0.6h4.9v-1.5h-3.5v-3.8h7.8v0.6h-7.1v2.6h7.2v0.6h-3.7v1.5H1540.3z M1539,3517.8
			c0,1.3-1.5,2.1-3.9,2.1c-2.4,0-3.9-0.7-3.9-2.1c0-1.3,1.5-2.1,3.9-2.1C1537.5,3515.8,1539,3516.5,1539,3517.8z M1538.3,3517.8
			c0-0.9-1.3-1.5-3.2-1.5s-3.2,0.6-3.2,1.5c0,0.9,1.3,1.5,3.2,1.5S1538.3,3518.8,1538.3,3517.8z"/>
		<path d="M1547.8,3509.6c0,3.2-1.7,6.2-5.4,8l-0.4-0.6c3.2-1.5,4.9-4,5.1-6.8h-4.6v-0.6H1547.8z M1551.2,3508.4v11.5h-0.7v-11.5
			H1551.2z"/>
		<path d="M1564.3,3517.8v0.6h-10.5v-0.6h4.9v-2.4h-3.5v-3.4h7.1v-2.1h-7.1v-0.6h7.8v3.3h-7.1v2.2h7.3v0.6h-3.8v2.4H1564.3z"/>
		<path d="M1579.1,3517.6v0.6h-10.4v-0.6h2.8v-3.9h0.7v3.9h2.2v-3.9h0.7v3.9H1579.1z M1577,3510.2h-7.2v-0.6h7.9v1.3
			c0,1.5,0,3-0.4,5l-0.7-0.1c0.4-2,0.4-3.4,0.4-4.9V3510.2z"/>
		<path d="M1583.8,3511.9c0,1.9,1.1,3.9,2.6,4.7l-0.4,0.5c-1.2-0.7-2.1-2-2.5-3.6c-0.4,1.6-1.3,3.1-2.5,3.8l-0.4-0.5
			c1.5-0.9,2.6-3,2.6-5v-0.8h-2.4v-0.6h2.4v-1.8h0.7v1.8h2.3v0.6h-2.3V3511.9z M1587.3,3508.7h0.7v10.6h-0.7v-5.7h-2v-0.6h2V3508.7z
			 M1590.3,3508.4v11.6h-0.7v-11.6H1590.3z"/>
		<path d="M1596.3,3510.3h3v0.6h-6.9v-0.6h3.1v-1.8h0.7V3510.3z M1598.7,3514.6c0,1.5-1.1,2.6-2.7,2.6s-2.7-1.1-2.7-2.6
			c0-1.5,1.1-2.6,2.7-2.6S1598.7,3513.1,1598.7,3514.6z M1598.1,3514.6c0-1.1-0.9-2-2.1-2c-1.2,0-2.1,0.9-2.1,2c0,1.1,0.9,2,2.1,2
			C1597.2,3516.6,1598.1,3515.7,1598.1,3514.6z M1603.3,3513.8h-2v6.1h-0.7v-11.5h0.7v4.9h2V3513.8z"/>
		<path d="M1613.9,3508.4v11.5h-0.7v-4.6h-3.2c-0.5,1.2-1.4,1.9-2.5,1.9c-1.7,0-2.8-1.5-2.8-4c0-2.4,1.2-4,2.8-4
			c1.1,0,1.9,0.7,2.4,1.8h3.3v-2.7H1613.9z M1609.7,3513.3c0-2-0.9-3.4-2.2-3.4s-2.2,1.4-2.2,3.4c0,2,0.9,3.4,2.2,3.4
			S1609.7,3515.2,1609.7,3513.3z M1613.2,3514.8v-3.1h-3.1c0.1,0.5,0.2,1,0.2,1.6c0,0.5-0.1,1-0.2,1.5H1613.2z"/>
	</g>
	<g class="st0">
		<path d="M1465.3,3537.8c-1.6,0.3-2.9,0.4-4.2,0.4h-0.7v-4.9h0.7v4.3c1.3,0,2.6-0.1,4.1-0.4L1465.3,3537.8z M1469.5,3541.8
			c0,1.3-1.4,2.1-3.8,2.1c-2.3,0-3.8-0.8-3.8-2.1c0-1.4,1.4-2.1,3.8-2.1C1468,3539.6,1469.5,3540.4,1469.5,3541.8z M1468.8,3541.8
			c0-1-1.2-1.6-3.1-1.6s-3.1,0.6-3.1,1.6c0,0.9,1.2,1.5,3.1,1.5S1468.8,3542.7,1468.8,3541.8z M1466.8,3539h-0.7v-6.4h0.7v2.9h2
			v-3.1h0.7v7h-0.7v-3.3h-2V3539z"/>
		<path d="M1482.2,3538.2v0.6h-10.4v-0.6h4.9v-1.5h-3.5v-3.8h7.8v0.6h-7.1v2.6h7.2v0.6h-3.7v1.5H1482.2z M1480.9,3541.8
			c0,1.3-1.5,2.1-3.9,2.1s-3.9-0.7-3.9-2.1c0-1.3,1.5-2.1,3.9-2.1S1480.9,3540.5,1480.9,3541.8z M1480.2,3541.8
			c0-0.9-1.3-1.5-3.2-1.5c-2,0-3.2,0.6-3.2,1.5c0,0.9,1.3,1.5,3.2,1.5C1478.9,3543.3,1480.2,3542.8,1480.2,3541.8z"/>
		<path d="M1494.1,3537.9v0.6h-10.4v-0.6H1494.1z M1492.8,3541.8c0,1.3-1.5,2.1-3.9,2.1s-3.9-0.7-3.9-2.1c0-1.3,1.5-2.1,3.9-2.1
			C1491.4,3539.7,1492.8,3540.5,1492.8,3541.8z M1492.9,3536.4h-7.7v-3.7h0.7v3.1h7.1V3536.4z M1492.1,3541.8c0-0.9-1.3-1.5-3.2-1.5
			c-2,0-3.2,0.6-3.2,1.5c0,0.9,1.3,1.5,3.2,1.5C1490.9,3543.3,1492.1,3542.7,1492.1,3541.8z"/>
		<path d="M1501.9,3538.5c-1.5,0.2-2.6,0.3-5,0.3h-0.8v-3.2h4.2v-1.9h-4.3v-0.6h4.9v3h-4.2v2.1h0.1c2.3,0,3.5,0,4.9-0.3
			L1501.9,3538.5z M1497.4,3540.1h7.6v3.8h-0.7v-3.2h-6.9V3540.1z M1505,3532.4v7.1h-0.7v-2.4h-2.5v-0.6h2.5v-1.8h-2.5v-0.6h2.5
			v-1.8H1505z"/>
		<path d="M1518,3537.5v0.6h-10.4v-0.6H1518z M1508.8,3534.6c0-1.3,1.5-2,4-2s4,0.7,4,2c0,1.3-1.5,2-4,2
			S1508.8,3535.9,1508.8,3534.6z M1509.6,3543.2h7.4v0.6h-8.1v-2.6h7v-1.3h-7.1v-0.6h7.7v2.4h-7V3543.2z M1509.5,3534.6
			c0,0.9,1.3,1.5,3.3,1.5c2,0,3.3-0.6,3.3-1.5c0-0.9-1.3-1.5-3.3-1.5C1510.8,3533.1,1509.5,3533.7,1509.5,3534.6z"/>
		<path d="M1532.9,3537.8v0.6h-10.4v-0.6h4.9v-1.7h-3.4v-3.5h0.7v2.9h7v0.6h-3.7v1.7H1532.9z M1529.8,3543.1h2v0.6h-8.3v-0.6h2v-2.8
			h-1.9v-0.6h8.1v0.6h-1.9V3543.1z M1526.2,3543.1h2.9v-2.8h-2.9V3543.1z"/>
		<path d="M1540.6,3537.3c0,2.4-1.2,4-2.9,4c-1.7,0-2.9-1.5-2.9-4c0-2.4,1.2-4,2.9-4C1539.4,3533.3,1540.6,3534.9,1540.6,3537.3z
			 M1535.6,3537.3c0,2,0.9,3.4,2.2,3.4c1.3,0,2.2-1.4,2.2-3.4c0-2-0.9-3.4-2.2-3.4C1536.5,3533.9,1535.6,3535.3,1535.6,3537.3z
			 M1543.8,3532.4v11.5h-0.7v-11.5H1543.8z"/>
		<path d="M1556.8,3541.6v0.6h-10.4v-0.6h4.3v-4.2h0.7v4.2H1556.8z M1554.7,3534.2h-7.2v-0.6h7.9v1.2c0,1.4,0,3-0.4,5.2l-0.7-0.1
			c0.4-2.2,0.4-3.7,0.4-5.1V3534.2z"/>
		<path d="M1566.8,3537.8c-1.6,0.3-2.9,0.4-4.2,0.4h-0.7v-4.9h0.7v4.3c1.3,0,2.6-0.1,4.1-0.4L1566.8,3537.8z M1570.9,3541.8
			c0,1.3-1.4,2.1-3.8,2.1c-2.3,0-3.8-0.8-3.8-2.1c0-1.4,1.4-2.1,3.8-2.1C1569.5,3539.6,1570.9,3540.4,1570.9,3541.8z M1570.3,3541.8
			c0-1-1.2-1.6-3.1-1.6s-3.1,0.6-3.1,1.6c0,0.9,1.2,1.5,3.1,1.5S1570.3,3542.7,1570.3,3541.8z M1568.3,3539h-0.7v-6.4h0.7v2.9h2
			v-3.1h0.7v7h-0.7v-3.3h-2V3539z"/>
		<path d="M1578.9,3533.1c0,2.8-2.1,4.9-5.4,5.8l-0.3-0.6c2.9-0.8,4.8-2.5,5-4.7h-4.5v-0.6H1578.9z M1574.7,3539.7h7.4v4.2h-0.7
			v-3.6h-6.7V3539.7z M1583.9,3536h-1.8v3.1h-0.7v-6.8h0.7v3.1h1.8V3536z"/>
		<path d="M1592,3532.6h0.7v10.6h-0.7v-5.7h-1.8c-0.1,2.2-1,3.7-2.4,3.7c-1.5,0-2.4-1.5-2.4-3.9c0-2.4,1-3.9,2.4-3.9
			c1.4,0,2.4,1.4,2.4,3.6h1.8V3532.6z M1589.5,3537.3c0-1.9-0.7-3.3-1.8-3.3c-1.1,0-1.8,1.4-1.8,3.3c0,1.9,0.7,3.3,1.8,3.3
			C1588.8,3540.6,1589.5,3539.3,1589.5,3537.3z M1594.9,3532.4v11.6h-0.7v-11.6H1594.9z"/>
		<path d="M1607.4,3537.4c-2.3,0.3-5,0.4-7.1,0.4l-0.1-0.6c0.5,0,1.1,0,1.6,0v-3.5h-1.3v-0.6h6.2v0.6h-1.3v3.3
			c0.7,0,1.3-0.1,1.9-0.2L1607.4,3537.4z M1609.9,3543.2v0.6h-7.8v-2.7h6.6v-1.5h-6.7v-0.6h7.3v2.6h-6.6v1.6H1609.9z M1602.5,3537.2
			c0.7,0,1.5-0.1,2.3-0.1v-3.4h-2.3V3537.2z M1609.4,3538.4h-0.7v-6h0.7V3538.4z"/>
		<path d="M1622.4,3541.8v0.6h-10.5v-0.6h2.7v-3.3c-1-0.5-1.6-1.3-1.6-2.4c0-1.8,1.7-2.9,4.1-2.9c2.4,0,4.1,1.1,4.1,2.9
			c0,1-0.6,1.8-1.6,2.4v3.3H1622.4z M1617.1,3538.4c2,0,3.5-0.9,3.5-2.3c0-1.4-1.5-2.3-3.5-2.3c-2,0-3.5,0.9-3.5,2.3
			C1613.7,3537.4,1615.2,3538.4,1617.1,3538.4z M1615.3,3541.8h3.6v-3.1c-0.5,0.2-1.2,0.2-1.8,0.2c-0.7,0-1.3-0.1-1.8-0.2V3541.8z"
			/>
		<path d="M1630.8,3534.5h-6.8v-0.6h3.1v-1.5h0.7v1.5h3.1V3534.5z M1627.4,3539.5c-1.6,0-2.7-0.8-2.7-2.1c0-1.3,1.1-2.1,2.7-2.1
			c1.6,0,2.7,0.8,2.7,2.1C1630.1,3538.6,1629,3539.5,1627.4,3539.5z M1627.4,3538.9c1.2,0,2.1-0.7,2.1-1.5c0-0.9-0.8-1.6-2.1-1.6
			c-1.2,0-2.1,0.6-2.1,1.6C1625.3,3538.3,1626.1,3538.9,1627.4,3538.9z M1626.4,3543h6.9v0.6h-7.6v-3.3h0.7V3543z M1634.6,3536.3
			v0.6h-1.8v4.1h-0.7v-8.7h0.7v4H1634.6z"/>
	</g>
	<g class="st0">
		<path d="M1497.3,3563c-1.3-0.5-2.4-1.5-2.9-2.8c-0.5,1.4-1.7,2.6-3,3.1l-0.4-0.6c1.6-0.6,3-2.1,3-3.9v-0.8h-2.8v-0.6h6.1v0.6h-2.7
			v0.8c0,1.6,1.3,3,2.9,3.6L1497.3,3563z M1500.7,3567v0.6h-7.6v-3.5h0.7v3H1500.7z M1499.6,3559.7v-3.3h0.7v8.5h-0.7v-4.6h-2.6
			v-0.6H1499.6z"/>
		<path d="M1509.2,3562.5c-1.5,0.2-2.6,0.3-5,0.3h-0.8v-3.2h4.2v-1.9h-4.3v-0.6h4.9v3h-4.2v2.1h0.1c2.3,0,3.5,0,4.9-0.3
			L1509.2,3562.5z M1504.7,3564.1h7.6v3.8h-0.7v-3.2h-6.9V3564.1z M1512.3,3556.4v7.1h-0.7v-2.4h-2.5v-0.6h2.5v-1.8h-2.5v-0.6h2.5
			v-1.8H1512.3z"/>
		<path d="M1525.3,3561.5v0.6h-10.4v-0.6H1525.3z M1516.1,3558.6c0-1.3,1.5-2,4-2s4,0.7,4,2c0,1.3-1.5,2-4,2
			S1516.1,3559.9,1516.1,3558.6z M1516.8,3567.2h7.4v0.6h-8.1v-2.6h7v-1.3h-7.1v-0.6h7.7v2.4h-7V3567.2z M1516.8,3558.6
			c0,0.9,1.3,1.5,3.3,1.5c2,0,3.3-0.6,3.3-1.5c0-0.9-1.3-1.5-3.3-1.5C1518,3557.1,1516.8,3557.7,1516.8,3558.6z"/>
		<path d="M1536.1,3562.2c-1.3-0.5-2.4-1.4-2.9-2.7c-0.5,1.4-1.6,2.4-3,3l-0.4-0.5c1.6-0.6,3-2.1,3-3.7v-0.6h-2.7v-0.6h6.1v0.6h-2.7
			v0.6c0,1.5,1.4,2.9,2.9,3.4L1536.1,3562.2z M1539.6,3567.2v0.6h-7.8v-2.7h6.6v-1.4h-6.6v-0.6h7.3v2.6h-6.6v1.6H1539.6z
			 M1538.4,3559.1v-2.7h0.7v6h-0.7v-2.7h-2.6v-0.6H1538.4z"/>
		<path d="M1547.4,3557.1c0,2.8-2.1,4.9-5.5,5.9l-0.3-0.6c3-0.8,4.8-2.5,5-4.7h-4.5v-0.6H1547.4z M1543.4,3563.6h7.2v4.1h-7.2
			V3563.6z M1544.1,3567.1h5.8v-3h-5.8V3567.1z M1552.3,3559.9h-1.8v3h-0.7v-6.6h0.7v3h1.8V3559.9z"/>
		<path d="M1559.6,3558.4h-6v-0.6h2.7v-1.4h0.7v1.4h2.7V3558.4z M1554.1,3561c0-1.2,1-1.9,2.4-1.9c1.5,0,2.5,0.7,2.5,1.9
			c0,1.2-1,2-2.5,2C1555.1,3563,1554.1,3562.2,1554.1,3561z M1561.8,3564.4c0,1.2,1,2.4,2.4,2.9l-0.3,0.5c-1.2-0.4-2-1.3-2.4-2.3
			c-0.3,0.9-1.1,1.9-2.1,2.4c-1.1-0.4-1.9-1.3-2.2-2.3c-0.4,0.9-1.3,1.8-2.4,2.2l-0.3-0.5c1.4-0.5,2.4-1.8,2.4-2.9v-0.5h0.7v0.5
			c0,1.1,0.7,2.2,1.8,2.8c1.2-0.7,1.8-1.9,1.8-2.8v-0.5h0.7V3564.4z M1554.7,3561c0,0.8,0.7,1.4,1.8,1.4c1.1,0,1.8-0.6,1.8-1.4
			c0-0.8-0.7-1.4-1.8-1.4C1555.5,3559.6,1554.7,3560.2,1554.7,3561z M1560.8,3563.3h-0.7v-6.8h0.7v3.1h1.8v-3.3h0.7v7.2h-0.7v-3.3
			h-1.8V3563.3z"/>
		<path d="M1576,3561.7v0.6h-10.4v-0.6H1576z M1575.1,3560.7c-1.6-0.3-3.6-1.2-4.3-2.6c-0.7,1.4-2.7,2.4-4.3,2.6l-0.3-0.6
			c1.8-0.2,4.2-1.4,4.2-3.1v-0.6h0.7v0.6c0,1.6,2.5,2.8,4.2,3.1L1575.1,3560.7z M1573.9,3563.3h0.7v4.4h-7.7v-4.4h0.7v1.6h6.3
			V3563.3z M1573.9,3565.4h-6.3v1.7h6.3V3565.4z"/>
		<path d="M1579.2,3564.2c1.8,0,3.6-0.1,5.6-0.6l0.1,0.6c-2,0.4-3.8,0.6-5.7,0.6h-0.9v-7.4h0.7v6.7H1579.2z M1586.9,3556.4v11.5
			h-0.7v-11.5H1586.9z"/>
		<path d="M1590.9,3564.4c2.2,0,3.7-0.1,5.4-0.4l0.1,0.6c-1.8,0.3-3.3,0.4-5.5,0.4h-0.9v-7.5h5.3v0.6h-4.7v6.3H1590.9z
			 M1600.3,3561.7h-2v6.2h-0.7v-11.6h0.7v4.7h2V3561.7z"/>
		<path d="M1601.7,3566.5c0-0.4,0.3-0.7,0.7-0.7c0.4,0,0.7,0.3,0.7,0.7c0,0.4-0.3,0.7-0.7,0.7
			C1602,3567.2,1601.7,3566.9,1601.7,3566.5z"/>
	</g>
	<g class="st0">
		<path d="M1250.1,3434.5c0.4,0,0.9-0.1,1.3-0.1l0.1,1.1c-2.1,0.4-4.8,0.4-6.6,0.4l-0.2-1.3c0.4,0,0.8,0,1.3,0v-6.2h-1v-1.2h6.2v1.2
			h-1V3434.5z M1247.4,3434.7c0.5,0,0.9,0,1.4,0v-6.2h-1.4V3434.7z M1252.4,3425.9h1.5v12.6h-1.5v-5h-1.6v-1.3h1.6v-1.5h-1.6v-1.3
			h1.6V3425.9z M1256.5,3425.6v13.6h-1.5v-13.6H1256.5z"/>
		<path d="M1265.1,3431.1c-0.6,0.7-1.6,1.1-2.8,1.1c-2,0-3.5-1.3-3.5-3.1c0-1.8,1.5-3.1,3.5-3.1c1.1,0,2.1,0.4,2.7,1.1h3.2v-1.5h1.6
			v6.9h-1.6v-1.4H1265.1z M1262.4,3431c1.2,0,2-0.7,2-1.8c0-1.1-0.9-1.8-2-1.8c-1.2,0-2.1,0.7-2.1,1.8
			C1260.3,3430.2,1261.2,3431,1262.4,3431z M1270.3,3437.8v1.2h-9.3v-3.6h7.3v-1.1h-7.3v-1.2h8.8v3.5h-7.3v1.2H1270.3z
			 M1265.8,3428.3c0.1,0.3,0.1,0.5,0.1,0.8c0,0.3,0,0.5-0.1,0.8h2.5v-1.6H1265.8z"/>
		<path d="M1284.7,3436.2v1.3h-12.3v-1.3h5.3v-2.7h-4v-7h1.5v2.3h6.4v-2.3h1.5v7h-4v2.7H1284.7z M1275.4,3432.3h6.4v-2.2h-6.4
			V3432.3z"/>
		<path d="M1290,3432.2c-2,0-3.5-1.3-3.5-3s1.5-3.1,3.5-3.1c2.1,0,3.6,1.3,3.6,3.1S1292.1,3432.2,1290,3432.2z M1290,3430.9
			c1.2,0,2.1-0.7,2.1-1.8s-0.9-1.8-2.1-1.8c-1.2,0-2,0.7-2,1.8S1288.9,3430.9,1290,3430.9z M1297.8,3437.8v1.2h-9.3v-3.6h7.3v-1.1
			h-7.4v-1.2h8.9v3.5h-7.3v1.2H1297.8z M1297.4,3432.5h-1.5v-6.9h1.5V3432.5z"/>
		<path d="M1302,3434.7c2.1,0,3.7-0.1,5.6-0.4l0.1,1.3c-2,0.3-3.8,0.4-6.1,0.4h-1.1v-5.5h4.5v-2.4h-4.6v-1.2h6.1v4.9h-4.5V3434.7z
			 M1311.3,3425.6v13.6h-1.5v-7.2h-2.4v-1.3h2.4v-5.1H1311.3z"/>
		<path d="M1324.4,3432.3c-1.5-0.5-2.5-1.5-3.1-2.8c-0.6,1.4-1.7,2.5-3.3,3.1l-0.8-1.2c2.1-0.7,3.3-2.4,3.3-4.2v-1.1h1.5v1.1
			c0,1.7,1.2,3.3,3.2,4L1324.4,3432.3z M1328.9,3437.8v1.2h-9.3v-3.5h7.3v-1.1h-7.3v-1.2h8.8v3.4h-7.3v1.2H1328.9z M1326.9,3429.1
			h-2.7v-1.2h2.7v-2.3h1.5v7h-1.5V3429.1z"/>
		<path d="M1336.1,3429.9c0,2.1,1.3,4.3,3.4,5.2l-0.8,1.2c-1.5-0.7-2.7-2.1-3.3-3.8c-0.6,1.8-1.8,3.3-3.4,4l-0.9-1.2
			c2.1-1,3.4-3.3,3.4-5.5v-0.8h-3v-1.2h3v-2h1.5v2h2.9v1.2h-2.9V3429.9z M1342.2,3425.6v13.5h-1.6v-13.5H1342.2z"/>
		<path d="M1357.1,3431.8v1.1h-12.3v-1.1H1357.1z M1347.8,3437.9h8.2v1.1h-9.7v-3.1h7.8v-1h-7.8v-1.1h9.4v3h-7.8V3437.9z M1354,3427
			h-7.7v-1.1h9.2v3h-7.7v1h7.9v1.1h-9.4v-3h7.6V3427z"/>
		<path d="M1374.2,3432.7v1.2H1362v-1.2h5.4v-1.1h-3.8v-5.6h9.2v1.2h-7.7v1h7.3v1.2h-7.3v1h7.8v1.2h-4v1.1H1374.2z M1372.8,3437
			c0,1.4-1.7,2.2-4.7,2.2c-2.9,0-4.7-0.8-4.7-2.2c0-1.4,1.7-2.2,4.7-2.2C1371,3434.8,1372.8,3435.5,1372.8,3437z M1371.2,3437
			c0-0.7-1.1-1-3.1-1c-2,0-3.1,0.3-3.1,1c0,0.7,1.1,1,3.1,1C1370.1,3438,1371.2,3437.7,1371.2,3437z"/>
		<path d="M1383.8,3428.4h-8v-1.2h3.2v-1.5h1.5v1.5h3.2V3428.4z M1379.8,3434.1c-1.9,0-3.3-1-3.3-2.6c0-1.5,1.4-2.6,3.3-2.6
			c2,0,3.3,1,3.3,2.6C1383.1,3433.1,1381.8,3434.1,1379.8,3434.1z M1379.4,3437.6h7.6v1.3h-9.1v-3.9h1.6V3437.6z M1379.8,3432.9
			c1.1,0,1.8-0.5,1.8-1.4c0-0.9-0.7-1.4-1.8-1.4c-1.1,0-1.8,0.5-1.8,1.4C1378,3432.4,1378.7,3432.9,1379.8,3432.9z M1388.3,3429.9
			v1.3h-1.9v4.6h-1.5v-10.2h1.5v4.3H1388.3z"/>
	</g>
	<g class="st0">
		<path d="M1279.5,3460.1v1.3h-12.3v-1.3H1279.5z M1278.3,3457.5c-2.2-0.5-4.1-1.9-5-3.7c-0.9,1.9-2.8,3.3-5,3.7l-0.7-1.3
			c2.7-0.5,4.8-2.6,4.8-4.7v-1h1.6v1c0,2.2,2.2,4.2,4.8,4.7L1278.3,3457.5z"/>
		<path d="M1289.4,3456.6c-1.9,0.3-3.6,0.4-6.5,0.4h-1.1v-6.6h6.5v1.2h-4.9v1.4h4.6v1.2h-4.6v1.5c2.6,0,4.2-0.1,6-0.4L1289.4,3456.6
			z M1283.3,3458.3h8.9v4.7h-8.9V3458.3z M1284.8,3461.8h5.8v-2.2h-5.8V3461.8z M1292.2,3449.6v8.1h-1.5v-8.1H1292.2z"/>
		<path d="M1300.8,3457c-1.2-0.5-2-1.4-2.5-2.4c-0.5,1.2-1.4,2.3-2.7,2.9l-0.8-1.2c1.8-0.8,2.7-2.5,2.7-4.1v-1.7h1.5v1.7
			c0,1.5,0.9,3,2.6,3.7L1300.8,3457z M1306.4,3460.7c0,1.5-1.8,2.5-4.6,2.5c-2.8,0-4.6-0.9-4.6-2.5c0-1.6,1.8-2.5,4.6-2.5
			C1304.6,3458.2,1306.4,3459.1,1306.4,3460.7z M1304.8,3460.7c0-0.8-1.1-1.3-3-1.3c-1.9,0-3,0.5-3,1.3c0,0.8,1.1,1.3,3,1.3
			C1303.7,3462,1304.8,3461.5,1304.8,3460.7z M1303.4,3457.5h-1.5v-7.6h1.5v3.2h1.4v-3.5h1.5v8.3h-1.5v-3.6h-1.4V3457.5z"/>
		<path d="M1315.8,3457.5c-1.5-0.5-2.6-1.6-3.2-2.9c-0.6,1.5-1.7,2.6-3.3,3.2l-0.8-1.2c2.2-0.7,3.3-2.6,3.3-4.5v-1.6h1.6v1.6
			c0,1.8,1.2,3.5,3.2,4.2L1315.8,3457.5z M1312.2,3461.6h7.5v1.3h-9.1v-4.3h1.5V3461.6z M1321.1,3453.7v1.3h-1.9v4.6h-1.5v-10h1.5
			v4.1H1321.1z"/>
		<path d="M1330.5,3456.7c-2,0.4-3.8,0.4-6.4,0.4h-1.1v-4h4.6v-1.5h-4.6v-1.2h6.2v3.9h-4.6v1.5c2.3,0,4-0.1,5.8-0.4L1330.5,3456.7z
			 M1333.1,3460.6c0,1.6-1.7,2.5-4.5,2.5c-2.8,0-4.5-0.9-4.5-2.5s1.7-2.5,4.5-2.5C1331.4,3458.1,1333.1,3459,1333.1,3460.6z
			 M1331.6,3460.6c0-0.9-1.1-1.3-3-1.3c-1.9,0-3,0.5-3,1.3c0,0.9,1.1,1.3,3,1.3C1330.5,3462,1331.6,3461.5,1331.6,3460.6z
			 M1333,3452.9v1.6h1.9v1.3h-1.9v2.1h-1.5v-8.2h1.5v2h1.9v1.3H1333z"/>
		<path d="M1351.9,3456v1.2h-12.3v-1.2H1351.9z M1340.2,3454.1c2.5-0.3,4.3-1.3,4.5-2.6h-3.9v-1.2h10v1.2h-4c0.2,1.2,2,2.3,4.5,2.6
			l-0.5,1.2c-2.4-0.3-4.2-1.2-5-2.6c-0.7,1.4-2.6,2.4-5,2.6L1340.2,3454.1z M1350.4,3460.7c0,1.6-1.8,2.5-4.7,2.5
			c-2.9,0-4.7-0.9-4.7-2.5c0-1.6,1.8-2.5,4.7-2.5C1348.6,3458.2,1350.4,3459.1,1350.4,3460.7z M1348.8,3460.7c0-0.8-1.1-1.3-3.1-1.3
			s-3.1,0.4-3.1,1.3c0,0.8,1.1,1.3,3.1,1.3S1348.8,3461.5,1348.8,3460.7z"/>
		<path d="M1355.4,3458.7c1.6,0,2.8-0.1,4.2-0.4l0.1,1.3c-1.6,0.3-3,0.4-4.9,0.4h-0.9v-8.7h5v1.3h-3.5V3458.7z M1365,3449.6v13.5
			h-1.5v-6.9h-1.6v6.3h-1.5v-12.6h1.5v5.1h1.6v-5.4H1365z"/>
	</g>
	<g class="st0">
		<path d="M1049,3425.9h1.4v12.6h-1.4v-6.5h-1.4c-0.1,2.6-1.2,4.3-2.9,4.3c-1.8,0-2.9-1.8-2.9-4.8s1.2-4.8,2.9-4.8
			c1.6,0,2.7,1.5,2.9,4.1h1.5V3425.9z M1046.2,3431.5c0-2.1-0.6-3.3-1.5-3.3c-0.9,0-1.5,1.2-1.5,3.3c0,2.1,0.6,3.4,1.5,3.4
			C1045.6,3434.8,1046.2,3433.6,1046.2,3431.5z M1053.2,3425.6v13.5h-1.5v-13.5H1053.2z"/>
		<path d="M1057.7,3434.7c1.9,0,3.7-0.2,5.6-0.5l0.2,1.3c-2.2,0.4-4.1,0.6-6.2,0.6h-1.1v-8.8h1.5V3434.7z M1066.7,3425.6v13.6h-1.5
			v-8h-3.9v-1.3h3.9v-4.3H1066.7z"/>
		<path d="M1074.2,3429.5c0,2.2,1.4,4.6,3.5,5.5l-0.9,1.2c-1.6-0.7-2.8-2.2-3.4-3.9c-0.6,1.9-1.8,3.5-3.4,4.3l-0.9-1.2
			c2.1-1,3.5-3.5,3.5-5.8v-1.3h-3v-1.3h7.6v1.3h-3V3429.5z M1080.4,3425.6v13.5h-1.6v-13.5H1080.4z"/>
		<path d="M1098.7,3436.4v1.3h-12.3v-1.3h3.1v-2.4c-1-0.4-1.5-1.1-1.5-2c0-1.6,1.7-2.6,4.5-2.6s4.5,0.9,4.5,2.6c0,0.9-0.5,1.6-1.5,2
			v2.4H1098.7z M1098,3428.7h-11.1v-1.2h4.8v-1.7h1.5v1.7h4.8V3428.7z M1089.5,3432c0,0.9,1.1,1.4,2.9,1.4c1.9,0,2.9-0.5,2.9-1.4
			c0-0.9-1.1-1.4-2.9-1.4C1090.6,3430.7,1089.5,3431.1,1089.5,3432z M1091,3436.4h3v-2c-0.5,0.1-0.9,0.1-1.5,0.1c-0.5,0-1,0-1.5-0.1
			V3436.4z"/>
		<path d="M1109.2,3432.3v1.2h1.7v3.2h-7.7v1.1h8.1v1.2h-9.6v-3.4h7.7v-1h-7.8v-1.2h1.8v-1.2h-3.2v-1.2h12.3v1.2H1109.2z
			 M1101.5,3428.1c0-1.5,1.8-2.3,4.8-2.3c3,0,4.8,0.8,4.8,2.3c0,1.5-1.8,2.3-4.8,2.3C1103.3,3430.4,1101.5,3429.6,1101.5,3428.1z
			 M1103.1,3428.1c0,0.8,1.1,1.2,3.2,1.2s3.2-0.4,3.2-1.2c0-0.8-1.1-1.2-3.2-1.2S1103.1,3427.3,1103.1,3428.1z M1107.6,3432.3h-2.7
			v1.2h2.7V3432.3z"/>
		<path d="M1121.2,3433c-1.5-0.5-2.5-1.5-3.1-2.9c-0.6,1.5-1.7,2.7-3.4,3.3l-0.8-1.2c2.2-0.7,3.4-2.6,3.4-4.5v-1.3h1.6v1.3
			c0,1.9,1.1,3.6,3.2,4.2L1121.2,3433z M1125.3,3436.6c0,1.6-1.7,2.6-4.6,2.6c-2.8,0-4.6-1-4.6-2.6c0-1.6,1.7-2.6,4.6-2.6
			C1123.5,3434,1125.3,3434.9,1125.3,3436.6z M1123.7,3436.6c0-0.9-1.1-1.4-3-1.4s-3,0.5-3,1.4c0,0.9,1.1,1.4,3,1.4
			S1123.7,3437.4,1123.7,3436.6z M1123.7,3429.6h-2.7v-1.3h2.7v-2.7h1.5v8h-1.5V3429.6z"/>
	</g>
	<g class="st0">
		<path d="M1083.1,3456v1.2h-12.3v-1.2H1083.1z M1071.5,3454.1c2.5-0.3,4.3-1.3,4.5-2.6h-3.9v-1.2h10v1.2h-4
			c0.2,1.2,1.9,2.3,4.5,2.6l-0.5,1.2c-2.4-0.3-4.2-1.2-5-2.6c-0.7,1.4-2.6,2.4-5,2.6L1071.5,3454.1z M1081.6,3460.7
			c0,1.6-1.8,2.5-4.7,2.5c-2.9,0-4.7-0.9-4.7-2.5c0-1.6,1.8-2.5,4.7-2.5C1079.9,3458.2,1081.6,3459.1,1081.6,3460.7z M1080.1,3460.7
			c0-0.8-1.1-1.3-3.1-1.3c-2,0-3.1,0.4-3.1,1.3c0,0.8,1.1,1.3,3.1,1.3C1079,3461.9,1080.1,3461.5,1080.1,3460.7z"/>
		<path d="M1086.7,3458.7c1.6,0,2.8-0.1,4.2-0.4l0.1,1.3c-1.6,0.3-3,0.4-4.9,0.4h-0.9v-8.7h5v1.3h-3.5V3458.7z M1096.2,3449.6v13.5
			h-1.5v-6.9h-1.6v6.3h-1.5v-12.6h1.5v5.1h1.6v-5.4H1096.2z"/>
	</g>
	<g class="st0">
		<path d="M818,3425.9h1.4v12.6H818v-6.5h-1.4c-0.1,2.6-1.2,4.3-2.9,4.3c-1.8,0-2.9-1.8-2.9-4.8s1.2-4.8,2.9-4.8
			c1.6,0,2.7,1.5,2.9,4.1h1.5V3425.9z M815.2,3431.5c0-2.1-0.6-3.3-1.5-3.3c-0.9,0-1.5,1.2-1.5,3.3c0,2.1,0.6,3.4,1.5,3.4
			C814.6,3434.8,815.2,3433.6,815.2,3431.5z M822.2,3425.6v13.5h-1.5v-13.5H822.2z"/>
		<path d="M826.7,3434.7c1.9,0,3.7-0.2,5.6-0.5l0.2,1.3c-2.2,0.4-4.1,0.6-6.2,0.6h-1.1v-8.8h1.5V3434.7z M835.7,3425.6v13.6h-1.5v-8
			h-3.9v-1.3h3.9v-4.3H835.7z"/>
		<path d="M843.2,3429.5c0,2.2,1.4,4.6,3.5,5.5l-0.9,1.2c-1.6-0.7-2.8-2.2-3.4-3.9c-0.6,1.9-1.8,3.5-3.4,4.3l-0.9-1.2
			c2.1-1,3.5-3.5,3.5-5.8v-1.3h-3v-1.3h7.6v1.3h-3V3429.5z M849.4,3425.6v13.5h-1.6v-13.5H849.4z"/>
		<path d="M867.7,3436.4v1.3h-12.3v-1.3h3.1v-2.4c-1-0.4-1.5-1.1-1.5-2c0-1.6,1.7-2.6,4.5-2.6s4.5,0.9,4.5,2.6c0,0.9-0.5,1.6-1.5,2
			v2.4H867.7z M867,3428.7h-11.1v-1.2h4.8v-1.7h1.5v1.7h4.8V3428.7z M858.5,3432c0,0.9,1.1,1.4,2.9,1.4c1.9,0,2.9-0.5,2.9-1.4
			c0-0.9-1.1-1.4-2.9-1.4C859.6,3430.7,858.5,3431.1,858.5,3432z M860,3436.4h3v-2c-0.5,0.1-0.9,0.1-1.5,0.1c-0.5,0-1,0-1.5-0.1
			V3436.4z"/>
		<path d="M878.2,3432.3v1.2h1.7v3.2h-7.7v1.1h8.1v1.2h-9.6v-3.4h7.7v-1h-7.8v-1.2h1.8v-1.2h-3.2v-1.2h12.3v1.2H878.2z
			 M870.5,3428.1c0-1.5,1.8-2.3,4.8-2.3c3,0,4.8,0.8,4.8,2.3c0,1.5-1.8,2.3-4.8,2.3C872.3,3430.4,870.5,3429.6,870.5,3428.1z
			 M872.1,3428.1c0,0.8,1.1,1.2,3.2,1.2s3.2-0.4,3.2-1.2c0-0.8-1.1-1.2-3.2-1.2S872.1,3427.3,872.1,3428.1z M876.6,3432.3h-2.7v1.2
			h2.7V3432.3z"/>
		<path d="M890.2,3433c-1.5-0.5-2.5-1.5-3.1-2.9c-0.6,1.5-1.7,2.7-3.4,3.3l-0.8-1.2c2.2-0.7,3.4-2.6,3.4-4.5v-1.3h1.6v1.3
			c0,1.9,1.1,3.6,3.2,4.2L890.2,3433z M894.3,3436.6c0,1.6-1.7,2.6-4.6,2.6c-2.8,0-4.6-1-4.6-2.6c0-1.6,1.7-2.6,4.6-2.6
			C892.5,3434,894.3,3434.9,894.3,3436.6z M892.7,3436.6c0-0.9-1.1-1.4-3-1.4s-3,0.5-3,1.4c0,0.9,1.1,1.4,3,1.4
			S892.7,3437.4,892.7,3436.6z M892.7,3429.6h-2.7v-1.3h2.7v-2.7h1.5v8h-1.5V3429.6z"/>
	</g>
	<g class="st0">
		<path d="M852.1,3456v1.2h-12.3v-1.2H852.1z M840.5,3454.1c2.5-0.3,4.3-1.3,4.5-2.6H841v-1.2h10v1.2h-4c0.2,1.2,1.9,2.3,4.5,2.6
			l-0.5,1.2c-2.4-0.3-4.2-1.2-5-2.6c-0.7,1.4-2.6,2.4-5,2.6L840.5,3454.1z M850.6,3460.7c0,1.6-1.8,2.5-4.7,2.5
			c-2.9,0-4.7-0.9-4.7-2.5c0-1.6,1.8-2.5,4.7-2.5C848.9,3458.2,850.6,3459.1,850.6,3460.7z M849.1,3460.7c0-0.8-1.1-1.3-3.1-1.3
			c-2,0-3.1,0.4-3.1,1.3c0,0.8,1.1,1.3,3.1,1.3C848,3461.9,849.1,3461.5,849.1,3460.7z"/>
		<path d="M855.7,3458.7c1.6,0,2.8-0.1,4.2-0.4l0.1,1.3c-1.6,0.3-3,0.4-4.9,0.4h-0.9v-8.7h5v1.3h-3.5V3458.7z M865.2,3449.6v13.5
			h-1.5v-6.9h-1.6v6.3h-1.5v-12.6h1.5v5.1h1.6v-5.4H865.2z"/>
	</g>
	<g class="st0">
		<path d="M1496.7,3436.1v1.3h-12.2v-1.3h4.6v-4.8h1.6v4.8H1496.7z M1493.8,3428.1h-8.1v-1.3h9.6v1.3c0,1.7,0,3.6-0.5,6.4l-1.6-0.2
			C1493.8,3431.7,1493.8,3429.8,1493.8,3428.1L1493.8,3428.1z"/>
		<path d="M1510.5,3436.4v1.3h-12.3v-1.3h3.1v-2.4c-1-0.4-1.5-1.1-1.5-2c0-1.6,1.7-2.6,4.5-2.6c2.8,0,4.5,0.9,4.5,2.6
			c0,0.9-0.5,1.6-1.5,2v2.4H1510.5z M1509.9,3428.7h-11.1v-1.2h4.8v-1.7h1.5v1.7h4.8V3428.7z M1501.4,3432c0,0.9,1.1,1.4,2.9,1.4
			c1.9,0,2.9-0.5,2.9-1.4c0-0.9-1.1-1.4-2.9-1.4C1502.5,3430.7,1501.4,3431.1,1501.4,3432z M1502.9,3436.4h3v-2
			c-0.5,0.1-0.9,0.1-1.5,0.1c-0.5,0-1,0-1.5-0.1V3436.4z"/>
		<path d="M1521.1,3432.3v1.2h1.7v3.2h-7.7v1.1h8.1v1.2h-9.6v-3.4h7.7v-1h-7.8v-1.2h1.8v-1.2h-3.2v-1.2h12.3v1.2H1521.1z
			 M1513.4,3428.1c0-1.5,1.8-2.3,4.8-2.3c3,0,4.8,0.8,4.8,2.3c0,1.5-1.8,2.3-4.8,2.3C1515.2,3430.4,1513.4,3429.6,1513.4,3428.1z
			 M1515,3428.1c0,0.8,1.1,1.2,3.2,1.2c2.1,0,3.2-0.4,3.2-1.2c0-0.8-1.1-1.2-3.2-1.2C1516.1,3426.9,1515,3427.3,1515,3428.1z
			 M1519.5,3432.3h-2.7v1.2h2.7V3432.3z"/>
		<path d="M1536.4,3432.3c-1.5-0.5-2.5-1.5-3.1-2.8c-0.6,1.4-1.7,2.5-3.3,3.1l-0.8-1.2c2.1-0.7,3.3-2.4,3.3-4.2v-1.1h1.5v1.1
			c0,1.7,1.2,3.3,3.2,4L1536.4,3432.3z M1540.9,3437.8v1.2h-9.3v-3.5h7.3v-1.1h-7.3v-1.2h8.8v3.4h-7.3v1.2H1540.9z M1538.9,3429.1
			h-2.7v-1.2h2.7v-2.3h1.5v7h-1.5V3429.1z"/>
		<path d="M1545.3,3426.7v3.4h3.4v-3.4h1.5v9.2h-6.5v-9.2H1545.3z M1545.3,3434.7h3.4v-3.3h-3.4V3434.7z M1554.2,3425.6v13.6h-1.6
			v-13.6H1554.2z"/>
		<path d="M1561.6,3429c0,2.4,1.3,4.9,3.3,5.9l-0.9,1.2c-1.5-0.8-2.5-2.2-3.1-4c-0.6,1.9-1.7,3.4-3.3,4.2l-0.9-1.2
			c2.1-1,3.4-3.6,3.4-6.1v-2.2h1.5V3429z M1569.5,3432.3h-2.1v6.9h-1.5v-13.5h1.5v5.4h2.1V3432.3z"/>
		<path d="M1582.9,3432.2v1.2h-12.3v-1.2h2.9v-1.8c-1-0.4-1.6-1.1-1.6-2c0-1.6,1.9-2.5,4.8-2.5c3,0,4.8,1,4.8,2.5
			c0,0.9-0.6,1.6-1.6,2v1.8H1582.9z M1581.4,3436.7c0,1.6-1.7,2.4-4.7,2.4c-2.9,0-4.7-0.9-4.7-2.4c0-1.5,1.8-2.4,4.7-2.4
			C1579.7,3434.3,1581.4,3435.2,1581.4,3436.7z M1573.5,3428.4c0,0.9,1.2,1.4,3.2,1.4c2,0,3.2-0.5,3.2-1.4c0-0.9-1.2-1.4-3.2-1.4
			C1574.7,3427,1573.5,3427.5,1573.5,3428.4z M1579.8,3436.7c0-0.8-1.1-1.2-3.1-1.2c-2,0-3.1,0.4-3.1,1.2c0,0.8,1.1,1.2,3.1,1.2
			C1578.7,3438,1579.8,3437.5,1579.8,3436.7z M1575.1,3432.2h3.3v-1.4c-0.5,0.1-1,0.1-1.7,0.1c-0.6,0-1.2,0-1.7-0.1V3432.2z"/>
		<path d="M1596.7,3436.2v1.3h-12.3v-1.3H1596.7z M1595.6,3430.2c0,2.3-2.2,3.8-5,3.8c-2.8,0-5-1.5-5-3.8c0-2.3,2.1-3.8,5-3.8
			C1593.4,3426.4,1595.6,3427.9,1595.6,3430.2z M1587.1,3430.2c0,1.6,1.5,2.5,3.5,2.5c2,0,3.5-1,3.5-2.5s-1.5-2.5-3.5-2.5
			C1588.6,3427.7,1587.1,3428.6,1587.1,3430.2z"/>
		<path d="M1610.5,3436.3v1.3h-12.3v-1.3h5.3v-2.3h-3.9v-4.4h7.8v-1.8h-7.8v-1.2h9.4v4.3h-7.8v1.9h8.1v1.2h-4.2v2.3H1610.5z"/>
	</g>
	<g class="st0">
		<path d="M1528,3457.6c-1.5-0.5-2.6-1.6-3.2-2.9c-0.6,1.5-1.7,2.7-3.3,3.2l-0.8-1.2c2.1-0.7,3.3-2.5,3.3-4.3v-0.5h-2.9v-1.2h7.2
			v1.2h-2.8v0.5c0,1.7,1.2,3.4,3.2,4.1L1528,3457.6z M1532.2,3461.6v1.3h-9.1v-4.2h1.5v3H1532.2z M1530.3,3453.2v-3.6h1.5v9.9h-1.5
			v-5h-2.5v-1.3H1530.3z"/>
		<path d="M1541.7,3457.1c-1.6,0.3-3,0.3-5.7,0.3h-1v-4.2h4.3v-1.6h-4.4v-1.2h5.9v4h-4.3v1.8c2.3,0,3.5-0.1,5-0.3L1541.7,3457.1z
			 M1536.5,3458.6h9.2v4.6h-1.5v-3.3h-7.6V3458.6z M1545.7,3449.6v8.3h-1.5v-2.3h-2.4v-1.2h2.4v-1.6h-2.4v-1.2h2.4v-2H1545.7z"/>
		<path d="M1555.5,3456.5c-1.5-0.5-2.6-1.5-3.2-2.7c-0.6,1.3-1.8,2.5-3.3,3l-0.8-1.2c2.1-0.7,3.3-2.4,3.3-4v-0.1h-2.8v-1.2h7.2v1.2
			h-2.8v0.1c0,1.5,1.2,3,3.2,3.7L1555.5,3456.5z M1559.9,3461.8v1.2h-9.3v-3.6h7.3v-1.1h-7.3v-1.2h8.8v3.4h-7.3v1.2H1559.9z
			 M1557.9,3452.5v-2.9h1.6v6.9h-1.6v-2.8h-2.4v-1.3H1557.9z"/>
		<path d="M1568.9,3450.4c0,3.5-2.3,6-6.3,7l-0.6-1.2c3.2-0.8,5-2.5,5.3-4.5h-4.6v-1.3H1568.9z M1564,3457.8h8.7v5.2h-8.7V3457.8z
			 M1565.5,3461.7h5.6v-2.7h-5.6V3461.7z M1574.6,3454h-1.9v3.2h-1.5v-7.6h1.5v3.1h1.9V3454z"/>
	</g>
	<g class="st0">
		<path class="st1" d="M1310.6,3377.6c-3.4,0.6-7.1,0.6-10,0.6l-0.2-1.5c1,0,2.1,0,3.2,0v-3.1h1.8v3c1.7-0.1,3.4-0.2,5-0.4
			L1310.6,3377.6z M1307.3,3375.2c0.3-1.5,0.4-2.7,0.4-3.7h-6.3v-1.5h8.2v1c0,1,0,2.5-0.4,4.4L1307.3,3375.2z M1313.5,3382.4
			c0,1.9-2.1,3-5.5,3c-3.4,0-5.5-1.1-5.5-3s2.1-3,5.5-3C1311.4,3379.4,1313.5,3380.5,1313.5,3382.4z M1311.6,3382.4
			c0-1-1.3-1.5-3.6-1.5c-2.3,0-3.6,0.5-3.6,1.5c0,1,1.3,1.5,3.6,1.5C1310.2,3383.9,1311.6,3383.4,1311.6,3382.4z M1315.5,3373.4v1.5
			h-2.2v4.3h-1.9v-10.1h1.9v4.3H1315.5z"/>
		<path class="st1" d="M1322.2,3377.8c-2.5,0-4.3-1.6-4.3-3.9c0-2.3,1.9-3.9,4.3-3.9c2.5,0,4.3,1.6,4.3,3.9
			C1326.6,3376.2,1324.7,3377.8,1322.2,3377.8z M1322.2,3376.3c1.5,0,2.5-0.9,2.5-2.3c0-1.4-1.1-2.3-2.5-2.3c-1.4,0-2.5,0.9-2.5,2.3
			C1319.7,3375.4,1320.8,3376.3,1322.2,3376.3z M1330.6,3382.3c0,1.9-2.1,3.1-5.4,3.1c-3.3,0-5.4-1.2-5.4-3.1c0-2,2.1-3.1,5.4-3.1
			C1328.5,3379.1,1330.6,3380.3,1330.6,3382.3z M1328.7,3382.3c0-1.1-1.3-1.7-3.6-1.7s-3.6,0.6-3.6,1.7c0,1.1,1.3,1.6,3.6,1.6
			S1328.7,3383.3,1328.7,3382.3z M1330.4,3372.9v2h2.3v1.5h-2.3v2.3h-1.9v-9.6h1.9v2.2h2.3v1.5H1330.4z"/>
	</g>
	<g id="사각형_520-3" transform="translate(971 3348)">
		<rect class="st2" width="225" height="277"/>
		<rect x="0.5" y="0.5" class="st3" width="224" height="276"/>
	</g>
	<g class="st0">
		<path class="st1" d="M1082.2,3381.9v1.5h-14.8v-1.5h6.4v-3.3h-5.1v-1.5h2.3v-5h-2.4v-1.5h12.2v1.5h-2.4v5h2.4v1.5h-5.1v3.3H1082.2
			z M1072.9,3377.1h3.7v-5h-3.7V3377.1z"/>
		<path class="st1" d="M1094.2,3372.3h-9.6v-1.5h3.9v-1.8h1.9v1.8h3.9V3372.3z M1089.4,3378.8c-2.3,0-3.9-1.1-3.9-2.9
			c0-1.8,1.6-2.9,3.9-2.9c2.4,0,3.9,1.1,3.9,2.9C1093.3,3377.6,1091.8,3378.8,1089.4,3378.8z M1097.5,3382.5c0,1.8-2.1,2.9-5.4,2.9
			c-3.3,0-5.4-1.1-5.4-2.9c0-1.8,2.1-2.8,5.4-2.8C1095.4,3379.7,1097.5,3380.7,1097.5,3382.5z M1089.4,3377.4c1.3,0,2.2-0.6,2.2-1.5
			c0-1-0.9-1.5-2.2-1.5s-2.2,0.6-2.2,1.5C1087.2,3376.8,1088.1,3377.4,1089.4,3377.4z M1095.6,3382.5c0-0.9-1.3-1.4-3.5-1.4
			c-2.2,0-3.5,0.5-3.5,1.4c0,1,1.3,1.4,3.5,1.4C1094.3,3384,1095.6,3383.5,1095.6,3382.5z M1099.6,3373.5v1.5h-2.3v4.5h-1.9v-10.4
			h1.9v4.4H1099.6z"/>
	</g>
	<g id="사각형_520-4" transform="translate(1435 3348)">
		<rect class="st2" width="224" height="277"/>
		<rect x="0.5" y="0.5" class="st3" width="223" height="276"/>
	</g>
	<g class="st0">
		<path class="st1" d="M1540.2,3374c0,2.3-1.8,3.9-4.3,3.9c-2.5,0-4.3-1.6-4.3-3.9s1.8-3.9,4.3-3.9
			C1538.4,3370.1,1540.2,3371.7,1540.2,3374z M1533.4,3374c0,1.4,1,2.3,2.5,2.3c1.4,0,2.5-0.9,2.5-2.3c0-1.4-1.1-2.3-2.5-2.3
			C1534.4,3371.6,1533.4,3372.5,1533.4,3374z M1544.7,3379.6v5.8h-1.9v-4.3h-9.1v-1.5H1544.7z M1544.7,3369.1v9.6h-1.9v-9.6H1544.7z
			"/>
		<path class="st1" d="M1557.1,3378.6c-1.8-0.6-3.1-1.9-3.8-3.5c-0.7,1.8-2.1,3.2-4,3.9l-1-1.4c2.6-0.9,4-3.1,4-5.5v-1.9h1.9v1.9
			c0,2.2,1.4,4.2,3.9,5.1L1557.1,3378.6z M1552.7,3383.6h9.1v1.5h-10.9v-5.1h1.9V3383.6z M1563.4,3374v1.5h-2.3v5.6h-1.9v-12h1.9
			v4.9H1563.4z"/>
	</g>
	<g id="그룹_5839" transform="translate(1411 3400.845) rotate(90)">
		<path id="패스_4994" class="st4" d="M0,0v189"/>
	</g>
	<g id="그룹_5854" transform="translate(1642 3400.845) rotate(90)">
		<path id="패스_4994-2" class="st4" d="M0,0v189"/>
	</g>
	<g id="그룹_5855" transform="translate(1178 3400.845) rotate(90)">
		<path id="패스_4994-3" class="st4" d="M0,0v189"/>
	</g>
	<g id="그룹_5856" transform="translate(947 3400.845) rotate(90)">
		<path id="패스_4994-4" class="st4" d="M0,0v189"/>
	</g>
</g>
</svg>
