<svg id="레이어_2" data-name="레이어 2" xmlns="http://www.w3.org/2000/svg" xmlns:xlink="http://www.w3.org/1999/xlink" width="750" height="900" viewBox="0 0 750 900">
  <defs>
    <clipPath id="clip-path">
      <rect id="사각형_526" data-name="사각형 526" width="750" height="900" fill="#fff"/>
    </clipPath>
    <linearGradient id="linear-gradient" x1="0.503" y1="-53.627" x2="0.669" y2="-55.378" gradientUnits="objectBoundingBox">
      <stop offset="0" stop-color="#6cc0dd"/>
      <stop offset="0.15" stop-color="#64b7d4"/>
      <stop offset="0.39" stop-color="#4e9fbc"/>
      <stop offset="0.7" stop-color="#2b7895"/>
      <stop offset="1" stop-color="#024a68"/>
    </linearGradient>
    <linearGradient id="linear-gradient-2" x1="0.502" y1="-44.84" x2="0.567" y2="-45.378" gradientUnits="objectBoundingBox">
      <stop offset="0" stop-color="#6cc0dd"/>
      <stop offset="0.23" stop-color="#69bdda"/>
      <stop offset="0.41" stop-color="#60b3d0"/>
      <stop offset="0.57" stop-color="#52a3c0"/>
      <stop offset="0.72" stop-color="#3d8ba9"/>
      <stop offset="0.87" stop-color="#226e8b"/>
      <stop offset="1" stop-color="#024a68"/>
    </linearGradient>
    <linearGradient id="linear-gradient-3" x1="0.437" y1="-5.409" x2="0.765" y2="-6.377" gradientUnits="objectBoundingBox">
      <stop offset="0" stop-color="#6cc0dd"/>
      <stop offset="0.01" stop-color="#66b9d6"/>
      <stop offset="0.04" stop-color="#4797b5"/>
      <stop offset="0.07" stop-color="#2e7b99"/>
      <stop offset="0.11" stop-color="#1b6583"/>
      <stop offset="0.15" stop-color="#0d5674"/>
      <stop offset="0.19" stop-color="#054d6b"/>
      <stop offset="0.26" stop-color="#024a68"/>
      <stop offset="0.28" stop-color="#24708e"/>
      <stop offset="0.3" stop-color="#4393b0"/>
      <stop offset="0.32" stop-color="#5aacc9"/>
      <stop offset="0.34" stop-color="#67bbd8"/>
      <stop offset="0.36" stop-color="#6cc0dd"/>
      <stop offset="0.37" stop-color="#4d9ebb"/>
      <stop offset="0.38" stop-color="#17627f"/>
      <stop offset="0.39" stop-color="#024a68"/>
      <stop offset="1" stop-color="#024a68"/>
    </linearGradient>
    <linearGradient id="linear-gradient-4" x1="0.615" y1="-25.978" x2="0.384" y2="-24.942" gradientUnits="objectBoundingBox">
      <stop offset="0.7" stop-color="#071d70"/>
      <stop offset="0.82" stop-color="#091f71"/>
      <stop offset="0.87" stop-color="#102577"/>
      <stop offset="0.9" stop-color="#1b3180"/>
      <stop offset="0.92" stop-color="#2c418d"/>
      <stop offset="0.94" stop-color="#42569e"/>
      <stop offset="0.96" stop-color="#5e70b3"/>
      <stop offset="0.98" stop-color="#7e90cc"/>
      <stop offset="1" stop-color="#a2b3e8"/>
      <stop offset="1" stop-color="#abbbef"/>
    </linearGradient>
    <linearGradient id="linear-gradient-5" x1="0.61" y1="-14.403" x2="0.427" y2="-13.356" gradientUnits="objectBoundingBox">
      <stop offset="0.2" stop-color="#76abe5"/>
      <stop offset="0.24" stop-color="#6c9eda"/>
      <stop offset="0.42" stop-color="#4167ad"/>
      <stop offset="0.57" stop-color="#213f8c"/>
      <stop offset="0.7" stop-color="#0e2677"/>
      <stop offset="0.77" stop-color="#071d70"/>
      <stop offset="0.78" stop-color="#1a3584"/>
      <stop offset="0.79" stop-color="#32549e"/>
      <stop offset="0.81" stop-color="#4870b4"/>
      <stop offset="0.83" stop-color="#5986c6"/>
      <stop offset="0.85" stop-color="#6697d4"/>
      <stop offset="0.87" stop-color="#6fa2de"/>
      <stop offset="0.9" stop-color="#75a9e3"/>
      <stop offset="1" stop-color="#76abe5"/>
    </linearGradient>
    <linearGradient id="linear-gradient-6" x1="0.419" y1="-9.477" x2="0.615" y2="-10.489" gradientUnits="objectBoundingBox">
      <stop offset="0" stop-color="#76abe5"/>
      <stop offset="0.06" stop-color="#74a9e4"/>
      <stop offset="0.09" stop-color="#6fa2e2"/>
      <stop offset="0.1" stop-color="#6695dd"/>
      <stop offset="0.12" stop-color="#5983d6"/>
      <stop offset="0.13" stop-color="#486cce"/>
      <stop offset="0.15" stop-color="#3350c4"/>
      <stop offset="0.16" stop-color="#1b2fb7"/>
      <stop offset="0.17" stop-color="#000aaa"/>
      <stop offset="0.22" stop-color="#020e9d"/>
      <stop offset="0.33" stop-color="#051684"/>
      <stop offset="0.44" stop-color="#061b75"/>
      <stop offset="0.53" stop-color="#071d70"/>
      <stop offset="0.53" stop-color="#0b2274"/>
      <stop offset="0.54" stop-color="#274692"/>
      <stop offset="0.55" stop-color="#4065ac"/>
      <stop offset="0.55" stop-color="#547fc1"/>
      <stop offset="0.56" stop-color="#6393d1"/>
      <stop offset="0.58" stop-color="#6ea0dc"/>
      <stop offset="0.59" stop-color="#74a9e3"/>
      <stop offset="0.62" stop-color="#76abe5"/>
      <stop offset="0.65" stop-color="#5f8ecd"/>
      <stop offset="0.69" stop-color="#446bb0"/>
      <stop offset="0.74" stop-color="#2e4f99"/>
      <stop offset="0.79" stop-color="#1d3987"/>
      <stop offset="0.85" stop-color="#10297a"/>
      <stop offset="0.91" stop-color="#092072"/>
      <stop offset="1" stop-color="#071d70"/>
    </linearGradient>
    <linearGradient id="linear-gradient-7" x1="0.426" y1="-23.029" x2="0.537" y2="-23.836" gradientUnits="objectBoundingBox">
      <stop offset="0.32" stop-color="#cc820a"/>
      <stop offset="0.37" stop-color="#ce8611"/>
      <stop offset="0.45" stop-color="#d59026"/>
      <stop offset="0.54" stop-color="#e1a246"/>
      <stop offset="0.62" stop-color="#edb56b"/>
      <stop offset="0.66" stop-color="#eab163"/>
      <stop offset="0.72" stop-color="#e3a54d"/>
      <stop offset="0.8" stop-color="#d79329"/>
      <stop offset="0.86" stop-color="#cc820a"/>
    </linearGradient>
    <linearGradient id="linear-gradient-8" x1="0.411" y1="-7.998" x2="0.643" y2="-9.005" gradientUnits="objectBoundingBox">
      <stop offset="0.13" stop-color="#cc820a"/>
      <stop offset="0.19" stop-color="#cf8611"/>
      <stop offset="0.27" stop-color="#d69226"/>
      <stop offset="0.36" stop-color="#e2a547"/>
      <stop offset="0.47" stop-color="#f2c074"/>
      <stop offset="0.54" stop-color="#ffd599"/>
      <stop offset="0.55" stop-color="#fed396"/>
      <stop offset="0.56" stop-color="#ecb765"/>
      <stop offset="0.57" stop-color="#dea03d"/>
      <stop offset="0.58" stop-color="#d48f21"/>
      <stop offset="0.58" stop-color="#ce8610"/>
      <stop offset="0.59" stop-color="#cc820a"/>
    </linearGradient>
    <linearGradient id="linear-gradient-9" x1="0.467" y1="-8.864" x2="0.585" y2="-9.993" gradientUnits="objectBoundingBox">
      <stop offset="0.47" stop-color="#ffd599"/>
      <stop offset="0.47" stop-color="#fed396"/>
      <stop offset="0.49" stop-color="#ecb765"/>
      <stop offset="0.51" stop-color="#dea03d"/>
      <stop offset="0.52" stop-color="#d48f21"/>
      <stop offset="0.53" stop-color="#ce8610"/>
      <stop offset="0.54" stop-color="#cc820a"/>
    </linearGradient>
    <linearGradient id="linear-gradient-10" x1="0.444" y1="-24.176" x2="0.65" y2="-25.643" gradientUnits="objectBoundingBox">
      <stop offset="0.09" stop-color="#78a8dd"/>
      <stop offset="0.16" stop-color="#5d8cc3"/>
      <stop offset="0.28" stop-color="#37659e"/>
      <stop offset="0.38" stop-color="#1c4983"/>
      <stop offset="0.48" stop-color="#0b3873"/>
      <stop offset="0.54" stop-color="#05326d"/>
    </linearGradient>
    <linearGradient id="linear-gradient-11" x1="0.43" y1="-24.738" x2="0.556" y2="-25.492" gradientUnits="objectBoundingBox">
      <stop offset="0.03" stop-color="#05326d"/>
      <stop offset="0.15" stop-color="#0e3b76"/>
      <stop offset="0.35" stop-color="#27548e"/>
      <stop offset="0.6" stop-color="#4e7db4"/>
      <stop offset="0.83" stop-color="#78a8dd"/>
      <stop offset="0.86" stop-color="#73a3d8"/>
      <stop offset="0.89" stop-color="#6594ca"/>
      <stop offset="0.93" stop-color="#4d7cb3"/>
      <stop offset="0.96" stop-color="#2c5a93"/>
      <stop offset="1" stop-color="#05326d"/>
    </linearGradient>
    <linearGradient id="linear-gradient-12" x1="0.449" y1="-4.244" x2="0.667" y2="-5.253" gradientUnits="objectBoundingBox">
      <stop offset="0.16" stop-color="#78a8dd"/>
      <stop offset="0.22" stop-color="#5d8cc3"/>
      <stop offset="0.32" stop-color="#37659e"/>
      <stop offset="0.41" stop-color="#1c4983"/>
      <stop offset="0.49" stop-color="#0b3873"/>
      <stop offset="0.54" stop-color="#05326d"/>
    </linearGradient>
  </defs>
  <g id="main_image_m_이미지" data-name="main_image_m 이미지">
    <g id="그룹_5735" data-name="그룹 5735" clip-path="url(#clip-path)">
      <g id="레이어_2-2" data-name="레이어 2">
        <g id="레이어_2-3" data-name="레이어 2">
          <g id="레이어_1-2" data-name="레이어 1-2">
            <path id="패스_5566" data-name="패스 5566" d="M1004,696c-19-66.22-157.49-84.9-256.51-116.17-41.48-13.11-204.07-16.5-412.14,12.53C107,624.22,3.73,706.4,60,817.83c27.06,53.55,99.29,91.89,184.79,115.82H697.71C938.74,885.16,1042.89,830.93,1004,696Z" fill="#ffefe2"/>
            <path id="패스_5567" data-name="패스 5567" d="M550.51,628.49c-21.4-2.32-182.18,11.83-290.67,9.08-119.09-3-195.28,52.17-186.46,89.21C85.5,777.62,182,797.92,293.31,818.57c140.38,26,348.53,8.26,412.47-11C824.39,771.77,915.71,719.14,809,673.62,752.68,649.61,625.56,636.51,550.51,628.49Z" fill="#fff9f2"/>
            <path id="패스_5568" data-name="패스 5568" d="M245.38,662.07c-72.32,17.2-97.18,75.67-5.57,96.77C423,801,562.72,791.07,617.13,771.23c54.62-19.91,112.92-78.14,12.34-101.39C531.76,647.24,322.26,643.78,245.38,662.07Z" fill="#fff"/>
            <path id="패스_5569" data-name="패스 5569" d="M471.82,759.11c1.54-.3,3.15-.63,4.69-1,.21,0,.27-.15.12-.25a1,1,0,0,0-.64-.07c-1.54.33-3.08.65-4.63.95-.22.05-.29.16-.15.25a.92.92,0,0,0,.63.08Zm-3,.37a1,1,0,0,0-.64-.09c-1.55.29-3.18.57-4.77.83h-.14c-.22,0-.32.14-.2.24a.87.87,0,0,0,.63.1h.14c1.6-.26,3.21-.54,4.8-.83h0c.2-.05.27-.18.15-.25Zm10.75-2c1.48-.34,3-.69,4.43-1.05.2-.06.24-.17.08-.25a1,1,0,0,0-.64-.06c-1.45.36-2.93.71-4.4,1-.2,0-.26.15-.11.24a1,1,0,0,0,.62.08Zm-19,3.39a.9.9,0,0,0-.62-.11c-1.69.24-3.44.46-5.2.66-.25,0-.37.13-.28.23a.9.9,0,0,0,.62.14c1.77-.21,3.54-.44,5.24-.68h.05c.21,0,.33-.15.19-.24Zm26.36-5.17,4.18-1.14c.18-.06.2-.16,0-.24a.939.939,0,0,0-.64,0c-1.37.38-2.77.77-4.15,1.12-.19.06-.23.16-.07.25a1,1,0,0,0,.6.07Zm-35.1,6.25a.84.84,0,0,0-.6-.14c-1.78.18-3.62.33-5.46.47-.25,0-.41.11-.35.22a.82.82,0,0,0,.59.15c1.86-.14,3.72-.3,5.51-.48h.1c.15,0,.24-.15.17-.23Zm42-8.17c1.32-.39,2.63-.77,3.92-1.2.18-.06.19-.17,0-.24a1,1,0,0,0-.63,0c-1.28.4-2.6.77-3.91,1.19-.19.06-.2.17,0,.24a1,1,0,0,0,.57.07Zm6.46-2c1.24-.41,2.48-.83,3.69-1.25.17-.06.16-.16,0-.24a1.09,1.09,0,0,0-.62,0c-1.2.42-2.44.84-3.67,1.25-.18,0-.18.16,0,.24a1.15,1.15,0,0,0,.55,0Zm-57.67,10.88a.74.74,0,0,0-.57-.16c-1.84.11-3.74.2-5.63.27-.26,0-.45.1-.4.21s.28.18.55.17c1.91-.07,3.85-.16,5.69-.27h.13c.1-.06.2-.13.15-.25Zm63.71-13c1.16-.42,2.31-.86,3.45-1.29.17-.07.14-.17,0-.24a.94.94,0,0,0-.62,0l-3.45,1.29c-.16,0-.14.16,0,.23a1,1,0,0,0,.54,0ZM433.08,763c0-.11-.28-.18-.54-.17-1.89,0-3.86.06-5.77.07-.27,0-.47.09-.45.2s.25.19.52.18c2,0,3.9,0,5.81-.08h.17c.17,0,.28-.09.26-.17Zm78.86-15.56c1.1-.43,2.18-.88,3.24-1.33.15-.06.11-.17-.08-.24a1.06,1.06,0,0,0-.61,0c-1,.45-2.13.89-3.23,1.33-.14.06-.12.16.06.23a1,1,0,0,0,.52,0Zm-88.53,15.68c0-.1-.23-.19-.5-.19-1.91,0-3.86-.05-5.83-.1-.27,0-.49.07-.5.17s.21.2.48.21c2,0,3.95.09,5.87.1h.22c.16-.02.27-.08.26-.16Zm93.85-17.91c1-.44,2-.9,3-1.35.13-.07.08-.17-.11-.23a.88.88,0,0,0-.6,0c-1,.45-2,.91-3,1.35-.15.06-.11.17.08.24a1.061,1.061,0,0,0,.5,0Zm5-2.27c.95-.45,1.9-.92,2.81-1.38.13-.06.07-.16-.13-.22a.83.83,0,0,0-.58,0c-.91.45-1.85.92-2.81,1.37-.13.06-.08.16.12.22a.94.94,0,0,0,.47,0Zm-108.58,20c0-.1-.19-.19-.47-.21-1.92-.07-3.85-.16-5.84-.26-.27,0-.52,0-.55.16s.17.2.44.22c2,.11,4,.19,5.9.27h.25c.12-.05.23-.12.24-.18Zm113.2-22.27c.88-.47,1.77-.94,2.61-1.41.12-.06.06-.16-.14-.21a.8.8,0,0,0-.57,0c-.86.47-1.74.93-2.62,1.39-.12.06-.06.16.14.23a1.188,1.188,0,0,0,.46,0Zm-123,21.78c0-.1-.15-.2-.42-.21-1.92-.12-3.85-.27-5.83-.43-.27,0-.53.05-.58.15s.13.21.4.22c2,.17,3.94.31,5.87.44h.29c.13-.05.23-.1.25-.17Zm127.26-24.12c.82-.47,1.64-1,2.42-1.42.11-.07,0-.16-.16-.22a.8.8,0,0,0-.57,0c-.77.47-1.59.94-2.41,1.41-.12.07,0,.17.15.23a1.141,1.141,0,0,0,.45,0Zm-137,23.38c.06-.1-.11-.2-.38-.23-1.92-.17-3.86-.36-5.78-.56a.78.78,0,0,0-.61.13c-.07.1.09.21.35.23,1.94.21,3.9.4,5.82.57a.92.92,0,0,0,.33,0,.42.42,0,0,0,.25-.14Zm141-25.75c.77-.48,1.54-1,2.23-1.43.1-.07,0-.17-.19-.22a.859.859,0,0,0-.55,0l-2.22,1.42c-.11.07,0,.17.17.22a1,1,0,0,0,.43,0Zm3.65-2.39c.7-.48,1.39-1,2.05-1.44.09-.06,0-.16-.2-.21a.72.72,0,0,0-.54,0c-.66.48-1.35,1-2.05,1.43-.09.07,0,.17.2.22a.94.94,0,0,0,.41,0ZM384.52,760.73c.07-.1-.08-.2-.34-.23-1.9-.23-3.81-.46-5.7-.71a.9.9,0,0,0-.64.12c-.09.1.06.21.32.25l5.73.7h.36a.49.49,0,0,0,.23-.13Zm157.6-29.57c.64-.48,1.27-1,1.86-1.45.09-.07,0-.16-.22-.21a.78.78,0,0,0-.52,0c-.6.48-1.23,1-1.86,1.45-.09.06,0,.16.21.2a.9.9,0,0,0,.4,0A.28.28,0,0,0,542.12,731.16ZM375,759.55c.09-.1,0-.21-.3-.25-1.85-.26-3.72-.53-5.58-.83a1,1,0,0,0-.66.11c-.11.1,0,.21.27.25,1.87.28,3.76.57,5.62.82a1.282,1.282,0,0,0,.39,0,.641.641,0,0,0,.26-.1Zm170.18-30.79c.58-.49,1.14-1,1.67-1.46.08-.07,0-.16-.23-.2a.69.69,0,0,0-.51,0c-.54.48-1.1,1-1.68,1.45-.07.07,0,.16.23.21a1.211,1.211,0,0,0,.38,0,.35.35,0,0,0,.14-.06ZM365.67,758.14c.12-.1,0-.21-.25-.25-1.82-.3-3.66-.61-5.45-.93a1,1,0,0,0-.68.09c-.12.09,0,.2.23.24,1.8.33,3.65.64,5.49,1a1.478,1.478,0,0,0,.42,0,.658.658,0,0,0,.24-.11Zm182.21-31.83c.52-.48,1-1,1.49-1.46.06-.07,0-.15-.26-.19a.64.64,0,0,0-.49.05c-.47.48-1,1-1.48,1.45-.07.07,0,.15.24.2a1.09,1.09,0,0,0,.36,0,.24.24,0,0,0,.14-.05Zm2.42-2.43c.44-.48.88-1,1.29-1.46.06-.07-.07-.16-.27-.2a.66.66,0,0,0-.48.06c-.41.48-.85,1-1.3,1.46-.06.06.06.15.26.19a1,1,0,0,0,.35,0,.3.3,0,0,0,.15-.05ZM356.6,756.53c.13-.09,0-.2-.21-.25-1.77-.34-3.55-.68-5.3-1a1.19,1.19,0,0,0-.7.07c-.14.09-.05.21.2.26,1.75.36,3.54.71,5.33,1a1.619,1.619,0,0,0,.44,0A.7.7,0,0,0,356.6,756.53Zm195.79-35.09c.38-.49.77-1,1.1-1.47,0-.06-.08-.15-.28-.18a.62.62,0,0,0-.47.06c-.34.48-.71,1-1.1,1.46,0,.07.07.15.28.19h.33a.351.351,0,0,0,.14-.06Zm-204.6,33.33c.13-.09.06-.21-.18-.26-1.71-.36-3.43-.77-5.12-1.13a1.15,1.15,0,0,0-.71.06c-.16.08-.09.2.14.25,1.71.4,3.44.77,5.16,1.15a1.24,1.24,0,0,0,.47,0,.729.729,0,0,0,.24-.07ZM554.16,719c.33-.49.63-1,.9-1.47,0-.07-.09-.15-.3-.18s-.41,0-.44.06c-.28.49-.59,1-.91,1.47,0,.06.09.14.3.17a.81.81,0,0,0,.31,0A.241.241,0,0,0,554.16,719Zm-214.9,33.84c.16-.08.1-.2-.13-.25-1.66-.4-3.32-.82-4.93-1.23a1.18,1.18,0,0,0-.72,0c-.17.08-.12.2.11.25,1.62.42,3.29.84,5,1.24a1.349,1.349,0,0,0,.49,0,.791.791,0,0,0,.18-.01ZM555.6,716.55c.26-.49.49-1,.7-1.47,0-.07-.12-.15-.33-.18s-.39,0-.42.07c-.21.49-.45,1-.7,1.47,0,.07.11.15.31.18h.3A.371.371,0,0,0,555.6,716.55Zm1.09-2.46c.07-.17.12-.34.19-.5.1-.32.2-.65.29-1,0-.07-.13-.15-.34-.17s-.39,0-.41.08c-.08.31-.18.64-.29,1l-.19.51c0,.06.13.14.33.17h.27c.08,0,.14,0,.15-.08ZM331.07,750.78c.18-.09.13-.2-.08-.27-1.6-.42-3.2-.86-4.74-1.3a1.26,1.26,0,0,0-.72,0c-.17.08-.15.19.07.26,1.54.44,3.15.88,4.75,1.31a1.1,1.1,0,0,0,.51,0Zm226.35-39.13c.1-.49.19-1,.24-1.47,0-.07-.14-.14-.35-.17s-.38,0-.39.09a13.9,13.9,0,0,1-.25,1.46c0,.07.14.14.35.17h.25c.08,0,.14,0,.15-.08ZM323.2,748.56c.19-.07.17-.19,0-.25-1.54-.46-3.05-.92-4.51-1.38a1.3,1.3,0,0,0-.73,0c-.19.08-.18.19,0,.26l4.54,1.39a1.19,1.19,0,0,0,.53,0A.748.748,0,0,0,323.2,748.56Zm234.56-39.33a14.4,14.4,0,0,0,0-1.47c0-.07-.17-.14-.37-.15s-.37,0-.36.08v1.47c0,.06.16.14.36.15a.881.881,0,0,0,.23,0,.143.143,0,0,0,.14-.11Zm-242,37c.19-.08.19-.19,0-.26-1.46-.47-2.9-1-4.29-1.45a1.259,1.259,0,0,0-.72,0c-.21.07-.22.18,0,.25,1.4.49,2.85,1,4.31,1.47a1.692,1.692,0,0,0,.55,0Zm242-39.48a9.244,9.244,0,0,0-.18-1.46c0-.06-.18-.13-.38-.15s-.36,0-.35.1c.08.47.14,1,.18,1.45,0,.06.17.13.37.15h.21c.09,0,.15-.06.15-.1Zm-249.13,37c.21-.07.22-.19,0-.26-1.37-.5-2.72-1-4-1.54a1.26,1.26,0,0,0-.72,0c-.21.06-.24.18-.06.25l4.06,1.54a1.18,1.18,0,0,0,.56,0Zm248.76-39.48c-.11-.48-.24-1-.39-1.45,0-.06-.2-.13-.4-.14s-.34,0-.31.1c.14.48.26,1,.37,1.45,0,.07.2.13.4.14h.19c.08.03.14,0,.13-.05ZM301.94,741.23c.22-.07.25-.18.07-.26-1.27-.51-2.55-1-3.76-1.54a1.23,1.23,0,0,0-.71,0c-.23.06-.27.17-.1.25,1.22.53,2.49,1.06,3.78,1.58a1.23,1.23,0,0,0,.57,0Zm254.72-39.34c-.18-.48-.38-1-.59-1.43,0-.07-.22-.13-.41-.14s-.33,0-.3.11c.21.47.41,1,.58,1.42,0,.07.21.13.41.14h.17c.1,0,.16,0,.14-.08ZM295.72,738.58c.23-.06.27-.17.11-.24-1.18-.54-2.35-1.08-3.48-1.63a1.23,1.23,0,0,0-.71,0c-.23.06-.29.17-.14.25,1.14.54,2.32,1.09,3.51,1.63a1.31,1.31,0,0,0,.59,0ZM555.6,699.52c-.26-.48-.53-1-.82-1.43,0-.07-.23-.12-.43-.13s-.31,0-.27.11a12.377,12.377,0,0,1,.77,1.42.59.59,0,0,0,.41.13h.16C555.56,699.6,555.62,699.56,555.6,699.52ZM290,735.85c.24-.05.31-.16.15-.24-1.08-.55-2.16-1.11-3.18-1.67a1.28,1.28,0,0,0-.7,0c-.23.06-.32.16-.17.23,1,.57,2.1,1.13,3.2,1.68a1,1,0,0,0,.6.06Zm264.19-38.71c-.32-.47-.67-.94-1-1.4a.749.749,0,0,0-.43-.13c-.2,0-.3.06-.26.12a15.724,15.724,0,0,1,1,1.4.73.73,0,0,0,.43.13H554c.14-.03.19-.06.16-.12ZM284.73,733.05c.23,0,.32-.15.18-.24-1-.56-2-1.13-2.88-1.7a1.129,1.129,0,0,0-.68-.06c-.24.05-.34.15-.21.24.92.57,1.9,1.15,2.89,1.71a1.06,1.06,0,0,0,.61.07ZM552.36,694.8c-.4-.46-.82-.93-1.27-1.38a.74.74,0,0,0-.44-.11c-.18,0-.28.05-.22.12.44.45.86.91,1.26,1.37a.68.68,0,0,0,.44.12h.11C552.35,694.92,552.43,694.86,552.36,694.8ZM280,730.19c.25-.05.35-.15.23-.23-.89-.57-1.74-1.16-2.56-1.74a1.07,1.07,0,0,0-.66-.07c-.26,0-.37.14-.26.23.83.58,1.69,1.17,2.58,1.75a1.18,1.18,0,0,0,.62.07Zm270.17-37.68c-.49-.47-1-.92-1.54-1.37a.82.82,0,0,0-.46-.1c-.18,0-.27.06-.19.12l1.54,1.35a.69.69,0,0,0,.46.11h.08c.1-.02.15-.07.1-.11ZM275.79,727.28c.26,0,.38-.14.27-.23-.77-.58-1.54-1.17-2.23-1.76a1,1,0,0,0-.64-.08c-.26,0-.39.14-.29.21.7.6,1.46,1.19,2.24,1.78a1,1,0,0,0,.62.08Zm271.75-37c-.57-.44-1.18-.89-1.79-1.32a.869.869,0,0,0-.47-.1c-.17,0-.24.07-.16.14.61.43,1.21.87,1.78,1.31a.74.74,0,0,0,.46.1h.06c.13,0,.19-.09.12-.14ZM272.18,724.34c.27,0,.4-.13.3-.22l-.62-.57c-.43-.39-.86-.77-1.26-1.2a1,1,0,0,0-.62-.1c-.28,0-.41.13-.33.21.4.4.83.77,1.27,1.21l.63.58a1,1,0,0,0,.63.09Zm272.27-36.25c-.67-.44-1.36-.88-2.07-1.29a.89.89,0,0,0-.48-.08c-.17,0-.22.08-.12.13.71.42,1.4.85,2.06,1.28a1,1,0,0,0,.47.09h0c.19-.07.23-.13.15-.19Zm-275,33c-.55-.6-1.06-1.2-1.54-1.79a.8.8,0,0,0-.6-.1c-.27,0-.43.11-.37.19.48.6,1,1.21,1.55,1.8a.86.86,0,0,0,.61.1h0c.27.02.4-.07.33-.15Zm271.5-35.24-1.38-.74-1-.51a1,1,0,0,0-.48-.06c-.16,0-.19.09-.07.14.34.16.67.33,1,.5l1.37.73a1,1,0,0,0,.48.07h0c.13,0,.17-.08,0-.13ZM267,718.15a21.328,21.328,0,0,1-1.18-1.8.82.82,0,0,0-.58-.1c-.26,0-.44.1-.39.18.36.6.77,1.21,1.19,1.81.05.08.32.13.59.1h0C266.9,718.31,267.05,718.23,267,718.15ZM536.76,684c.15,0,.16-.09,0-.15-.88-.4-1.79-.77-2.72-1.17a1,1,0,0,0-.48,0c-.13,0-.14.09,0,.14.91.38,1.82.77,2.68,1.17a1,1,0,0,0,.46.06ZM265.13,715.2c-.3-.6-.57-1.2-.81-1.79,0-.09-.28-.14-.54-.12s-.46.09-.43.17c.24.6.51,1.21.82,1.81.05.08.3.13.56.11h.08c.19-.07.36-.14.32-.22Zm267-33.11c.13,0,.12-.09,0-.14-1-.38-2-.77-3.09-1.1a.94.94,0,0,0-.47,0c-.12,0-.1.1,0,.15q1.5.525,3,1.08a1.061,1.061,0,0,0,.43.05ZM263.89,712.18a15.486,15.486,0,0,1-.46-1.78c0-.08-.25-.14-.51-.13s-.47.08-.45.17a14.252,14.252,0,0,0,.46,1.79c0,.08.26.14.52.12h.11C263.77,712.32,263.92,712.25,263.89,712.18Zm263.16-31.91c.12,0,.09-.11-.07-.15-1.09-.34-2.21-.67-3.35-1a.94.94,0,0,0-.47,0c-.1,0-.06.11.1.15,1.12.31,2.24.64,3.31,1a1.35,1.35,0,0,0,.4,0Zm-263.78,29a14.677,14.677,0,0,1-.1-1.75c0-.08-.22-.15-.48-.14s-.48.07-.48.15a15.007,15.007,0,0,0,.1,1.77c0,.08.23.14.49.13h.14c.17,0,.31-.09.3-.16Zm258.17-30.55c.1,0,0-.11-.13-.15-1.19-.3-2.4-.59-3.64-.86a.69.69,0,0,0-.45,0c-.07,0,0,.11.17.14,1.21.27,2.42.56,3.59.85a.73.73,0,0,0,.36,0Zm-6.08-1.39c.07,0,0-.12-.19-.15-1.25-.25-2.55-.49-3.85-.71a.64.64,0,0,0-.43,0c-.05,0,.05.1.23.14,1.28.22,2.56.46,3.8.7a.81.81,0,0,0,.31,0,.2.2,0,0,0,.1,0Zm-252.16,29a16.73,16.73,0,0,1,.24-1.73c0-.08-.18-.15-.44-.15s-.49.06-.5.14a17.01,17.01,0,0,0-.26,1.74c0,.08.2.14.46.14h.17C263.05,706.43,263.2,706.37,263.2,706.33Zm245.72-30.19a.338.338,0,0,0-.25-.14c-1.3-.2-2.65-.39-4-.57-.2,0-.37,0-.41.05s.1.11.28.13c1.34.18,2.66.37,3.95.57a1.309,1.309,0,0,0,.28,0,.35.35,0,0,0,.14-.06Zm-245.2,27.32a16.114,16.114,0,0,1,.6-1.69c0-.08-.16-.15-.41-.16s-.5.06-.53.14c-.23.56-.43,1.13-.6,1.69,0,.09.17.15.43.16h.2c.17-.05.3-.1.31-.16ZM502.3,675.21c0-.05-.11-.11-.29-.14-1.34-.15-2.71-.29-4.08-.42-.2,0-.35,0-.37.06s.14.12.33.13c1.36.13,2.71.28,4,.43h.23A.32.32,0,0,0,502.3,675.21ZM264.85,700.67c.27-.56.58-1.11.91-1.65.05-.08-.12-.15-.37-.16s-.5,0-.54.12c-.34.54-.65,1.1-.93,1.66,0,.07.14.14.4.15h.21a.37.37,0,0,0,.29-.15Zm230.68-26.11c0-.06-.15-.12-.34-.13-1.34-.11-2.72-.21-4.1-.3-.2,0-.34,0-.34.08s.17.11.36.12c1.37.09,2.74.19,4.07.3h.18a.136.136,0,0,0,.14-.1Zm-6.82-.47c0-.06-.18-.11-.37-.12-1.34-.07-2.72-.13-4.1-.18-.19,0-.33,0-.3.09s.2.11.38.11c1.37,0,2.74.11,4.07.18h.16c.07,0,.14-.06.13-.11ZM266.45,697.91c.37-.53.77-1.07,1.22-1.6.06-.07-.09-.15-.34-.16a.82.82,0,0,0-.55.1c-.44.54-.86,1.08-1.24,1.61-.05.08.11.14.36.16h.24A.51.51,0,0,0,266.45,697.91Zm215.42-24.12c0-.06-.2-.1-.4-.11-1.33,0-2.7-.06-4.08-.08-.18,0-.3,0-.27.1a.65.65,0,0,0,.41.11c1.36,0,2.73,0,4.05.08h.13c.11,0,.18-.06.16-.1Zm-6.77-.1a.56.56,0,0,0-.41-.11h-4.05c-.19,0-.3,0-.26.11a.74.74,0,0,0,.44.1h4.12C475.07,673.77,475.13,673.73,475.1,673.69ZM268.6,695.26a20.338,20.338,0,0,1,1.54-1.54c.08-.07-.06-.15-.3-.17a.839.839,0,0,0-.56.1c-.54.51-1,1-1.55,1.54-.07.08.08.15.32.17h.27a.56.56,0,0,0,.28-.1Zm199.76-21.54a.72.72,0,0,0-.43-.1c-1.32,0-2.67,0-4,.09-.18,0-.29,0-.23.11a.75.75,0,0,0,.44.1c1.34,0,2.68-.06,4-.09h.09c.13-.02.19-.06.13-.11Zm-6.66.17a.79.79,0,0,0-.45-.1l-4,.16c-.18,0-.28.06-.21.11a.821.821,0,0,0,.46.1c1.32-.07,2.66-.11,4-.16h.06c.16,0,.23-.07.17-.11Zm-6.61.27a.9.9,0,0,0-.46-.09l-3.95.22c-.18,0-.27.07-.2.12a.78.78,0,0,0,.47.09l3.94-.22h0c.17,0,.24-.07.17-.12Zm-6.56.37a1.092,1.092,0,0,0-.47-.08l-3.92.27c-.19,0-.27.08-.19.13a1,1,0,0,0,.48.09l3.91-.28h0c.17,0,.24-.07.16-.13ZM442,675a.89.89,0,0,0-.48-.08l-2.31.19-1.59.11c-.19,0-.27.08-.19.13a1,1,0,0,0,.47.09l1.61-.13,2.32-.18h0c.19,0,.3-.08.18-.13Zm-6.6.46a.71.71,0,0,0-.45-.09c-1.36,0-2.76.08-4.14.09-.2,0-.33,0-.29.11a.7.7,0,0,0,.42.11c1.42,0,2.85,0,4.23-.1h.06c.17,0,.25-.07.19-.1ZM271.2,692.7c.55-.5,1.15-1,1.77-1.5.09-.07,0-.14-.26-.17a1,1,0,0,0-.58.09c-.62.49-1.23,1-1.8,1.49-.07.07.06.15.29.17h.29A.6.6,0,0,0,271.2,692.7Zm157.2-17.16c0-.06-.2-.1-.4-.11-1.41,0-2.86-.09-4.31-.17-.2,0-.37,0-.37.08s.15.12.35.14c1.48.08,3,.13,4.4.17h.14c.12-.02.21-.06.19-.11Zm-7.26-.34c0-.06-.13-.12-.34-.13-1.39-.11-2.83-.25-4.29-.4a.54.54,0,0,0-.43.06c0,.06.08.12.28.14,1.48.16,3,.3,4.38.4h.2C421,675.26,421.12,675.24,421.14,675.2Zm-146.9,15c.64-.48,1.32-1,2-1.43.1-.07,0-.15-.23-.17a.89.89,0,0,0-.58.07q-1.06.7-2,1.44c-.09.06,0,.14.25.16a.81.81,0,0,0,.31,0,.6.6,0,0,0,.25-.04Zm139.69-15.75c.06-.05-.06-.12-.26-.14-1.34-.17-2.75-.36-4.2-.57a.74.74,0,0,0-.46.05c-.07,0,0,.12.23.14,1.45.22,2.88.4,4.25.57a.569.569,0,0,0,.26,0,.239.239,0,0,0,.18-.02Zm-136.24,13.4c.72-.45,1.47-.91,2.24-1.37.11-.06,0-.14-.2-.17a1.19,1.19,0,0,0-.59.06c-.77.46-1.54.92-2.26,1.38-.1.07,0,.14.22.17a.908.908,0,0,0,.33,0,.48.48,0,0,0,.26-.07Zm129.25-14.34c.07-.06,0-.12-.22-.16-1.29-.2-2.63-.41-4.07-.66a1.06,1.06,0,0,0-.5,0c-.07.06,0,.12.2.15l4.11.68h.3a.551.551,0,0,0,.18,0ZM281.49,685.59c.77-.44,1.61-.88,2.44-1.31.12-.07,0-.14-.17-.17a1.081,1.081,0,0,0-.59,0c-.84.43-1.67.88-2.46,1.32-.1.06,0,.14.19.17h.35A.64.64,0,0,0,281.49,685.59Zm118.66-13.2c.08,0,0-.12-.19-.15l-4-.72a1.061,1.061,0,0,0-.5,0c-.09,0,0,.11.17.15l4,.72a.861.861,0,0,0,.32,0Zm-114.53,11c.84-.42,1.72-.84,2.61-1.26.12,0,.06-.13-.14-.16a1.18,1.18,0,0,0-.59,0c-.9.42-1.78.84-2.63,1.26-.12.06-.05.14.16.18h.36a.894.894,0,0,0,.23.01Zm4.4-2.07c.91-.4,1.83-.77,2.77-1.19.13-.06.08-.13-.11-.17a1.179,1.179,0,0,0-.59,0c-.95.39-1.88.77-2.78,1.19-.13.06-.07.13.13.17a1.151,1.151,0,0,0,.37,0Zm103.47-10.18c.09,0,0-.11-.17-.15h-.14l-3.86-.7a.849.849,0,0,0-.5,0c-.09,0,0,.11.17.15l3.86.7H393a.92.92,0,0,0,.33,0Zm-98.81,8.22c.94-.38,1.92-.78,2.9-1.14.14,0,.1-.13-.09-.17a1.468,1.468,0,0,0-.59,0c-1,.37-2,.77-2.91,1.14-.13,0-.09.13.11.17a1.21,1.21,0,0,0,.38,0ZM386.84,670c.08-.05,0-.12-.18-.15l-4-.7a1.06,1.06,0,0,0-.5,0c-.08.06,0,.12.19.15l4,.69a.86.86,0,0,0,.32,0,.552.552,0,0,0,.17.01Zm-87.28,7.55,3-1.08h.05c.14,0,.11-.12-.08-.16a1.139,1.139,0,0,0-.58,0h0c-1,.35-2,.72-3,1.08-.14,0-.1.12.08.16a1.272,1.272,0,0,0,.39,0Zm80.54-8.7c.07,0,0-.11-.2-.15-1.46-.23-2.83-.43-4.17-.61a.791.791,0,0,0-.48,0c-.07.05,0,.11.23.14,1.33.19,2.68.39,4.12.62a1.614,1.614,0,0,0,.31,0,.6.6,0,0,0,.19-.04Zm-75.44,6.9,3.08-1c.14-.06.12-.13-.05-.17a1.14,1.14,0,0,0-.58,0c-1,.33-2.08.68-3.09,1-.14.05-.11.12.06.16a1.411,1.411,0,0,0,.41,0,.33.33,0,0,0,.17-.03Zm5.2-1.68c1.07-.34,2.15-.66,3.2-1,.15,0,.13-.11,0-.16a1.1,1.1,0,0,0-.57,0c-1.06.31-2.14.63-3.21,1-.15,0-.14.12,0,.16a1,1,0,0,0,.42,0Zm63.29-6.22c.06-.06,0-.12-.25-.14-1.47-.19-2.93-.35-4.34-.5a.781.781,0,0,0-.45.06c-.05.06.08.12.28.14,1.39.14,2.83.31,4.29.49H373a.729.729,0,0,0,.15-.09Zm-57.92,4.63c1.11-.32,2.23-.62,3.32-.91.16,0,.16-.11,0-.16a1.32,1.32,0,0,0-.56,0l-3.34.9c-.15.05-.15.12,0,.17a1.549,1.549,0,0,0,.43,0Zm50.69-5.4c0-.06-.1-.11-.31-.13-1.5-.13-3-.23-4.49-.3-.21,0-.38,0-.4.08s.15.12.36.12c1.44.08,2.93.18,4.41.3h.21c.08,0,.2,0,.22-.08ZM320.81,671c1.16-.28,2.32-.56,3.47-.82.17,0,.19-.11,0-.16a1.32,1.32,0,0,0-.56,0c-1.16.27-2.31.54-3.5.84-.16,0-.16.1,0,.15a1,1,0,0,0,.43,0Zm5.85-1.34c1.23-.25,2.46-.5,3.66-.72.18,0,.21-.1.09-.15a1.18,1.18,0,0,0-.56,0c-1.22.22-2.46.47-3.69.73-.17,0-.19.1-.06.16a1.19,1.19,0,0,0,.46,0Zm31.82-3c0-.07-.17-.11-.38-.12-1.54,0-3-.06-4.54,0-.21,0-.35,0-.33.1a.6.6,0,0,0,.43.1c1.47,0,3,0,4.45.06h.14c.14,0,.23-.06.23-.1Zm-25.63,1.85c1.29-.22,2.6-.42,3.85-.6.19,0,.25-.08.14-.14a1.189,1.189,0,0,0-.53-.05c-1.3.18-2.62.38-3.94.6-.18,0-.23.09-.1.15a1.06,1.06,0,0,0,.47,0ZM351,666.58a.8.8,0,0,0-.45-.1c-1.47,0-3,.11-4.42.2-.21,0-.31.07-.24.13a.889.889,0,0,0,.48.08c1.44-.08,2.9-.15,4.34-.19h.07c.16,0,.26-.08.22-.13Zm-11.57.94c1.2-.14,2.41-.26,3.61-.37h.52c.2,0,.29-.08.21-.14a1,1,0,0,0-.51-.07h-.49c-1.22.11-2.47.24-3.7.38-.19,0-.26.09-.17.14a.91.91,0,0,0,.49.07Z" fill="#69c8ed"/>
            <path id="패스_5570" data-name="패스 5570" d="M319.24,712h-.18c-2.31-.41-4.7-.83-7-1.26-.31-.06-.45-.21-.3-.33a1.25,1.25,0,0,1,.85-.12c2.31.42,4.63.85,7,1.25.31.06.46.21.31.34A1.07,1.07,0,0,1,319.24,712Zm-11.62-2.12h-.2l-6.88-1.35c-.32-.06-.44-.22-.28-.34a1.22,1.22,0,0,1,.86-.11c2.24.45,4.55.9,6.87,1.34.31.07.44.21.29.34a1.24,1.24,0,0,1-.66.07ZM296.2,707.6H296c-2.27-.47-4.55-.95-6.77-1.44-.31-.07-.42-.22-.25-.34a1.31,1.31,0,0,1,.87-.1c2.22.49,4.49,1,6.74,1.44.32.07.43.21.27.34a1.12,1.12,0,0,1-.66.05ZM285,705.12a.49.49,0,0,1-.24,0c-2.23-.5-4.46-1-6.63-1.54-.3-.07-.4-.22-.21-.34a1.27,1.27,0,0,1,.88-.08l6.6,1.54c.31.07.41.22.23.34a1.061,1.061,0,0,1-.63.08Zm-11-2.58a1.172,1.172,0,0,1-.26,0c-2.18-.53-4.36-1.08-6.48-1.63-.29-.07-.37-.23-.17-.35a1.33,1.33,0,0,1,.88-.07c2.11.55,4.28,1.1,6.44,1.63.3.07.4.23.21.34A1.119,1.119,0,0,1,274,702.54Zm-10.72-2.75h-.27c-2.12-.57-4.24-1.16-6.3-1.75-.28-.08-.35-.23-.14-.34a1.39,1.39,0,0,1,.9-.06c2,.58,4.15,1.16,6.26,1.73.29.08.36.23.16.35a1.321,1.321,0,0,1-.59.11Zm-10.39-2.93-.3-.05L249,695.74l-2.5-.77c-.28-.09-.32-.25-.1-.36a1.389,1.389,0,0,1,.9,0l2.49.77,3.56,1.07c.27.08.33.24.12.34a1.259,1.259,0,0,1-.58.07Zm342.64,17a.85.85,0,0,1-.47-.13c-.18-.11-.07-.27.23-.34,2.22-.48,4.45-1,6.64-1.54a1.34,1.34,0,0,1,.88.09c.17.12.07.27-.23.34-2.19.52-4.44,1-6.66,1.55l-.38.05ZM242.91,693.69a1,1,0,0,1-.34-.06c-1.9-.65-3.81-1.34-5.67-2-.26-.1-.27-.26,0-.36a1.39,1.39,0,0,1,.9,0c1.84.7,3.74,1.38,5.63,2,.27.09.29.26.06.36a1.348,1.348,0,0,1-.56.09Zm363.64,17.57a1,1,0,0,1-.46-.11c-.18-.12-.1-.27.2-.35,2.16-.52,4.34-1.07,6.47-1.62a1.27,1.27,0,0,1,.88.08c.2.11.11.27-.18.34-2.14.55-4.32,1.1-6.49,1.62a1.4,1.4,0,0,1-.41.06Zm-372.92-21a1.229,1.229,0,0,1-.38-.08c-1.78-.72-3.54-1.46-5.25-2.21-.24-.1-.21-.26.05-.36a1.39,1.39,0,0,1,.9,0c1.7.77,3.46,1.49,5.22,2.2.24.1.24.26,0,.36a1.609,1.609,0,0,1-.53.1ZM617.3,708.52a1,1,0,0,1-.45-.11c-.19-.12-.12-.27.17-.35,2.11-.56,4.22-1.14,6.3-1.73a1.46,1.46,0,0,1,.9.07c.2.1.14.27-.15.34-2.09.59-4.22,1.18-6.33,1.74a1.211,1.211,0,0,1-.42,0Zm-392.25-22a1.3,1.3,0,0,1-.4-.09c-1.64-.78-3.26-1.55-4.84-2.36-.22-.1-.17-.26.11-.34a1.389,1.389,0,0,1,.9,0c1.54.77,3.18,1.54,4.8,2.32.23.1.19.26-.08.34a1.33,1.33,0,0,1-.49.14Zm402.73,19.09a1,1,0,0,1-.43-.1c-.21-.11-.15-.26.13-.35,2-.59,4.1-1.21,6.12-1.82a1.39,1.39,0,0,1,.9,0c.22.11.16.27-.12.35-2,.62-4.08,1.24-6.17,1.83a1.542,1.542,0,0,1-.43.1Zm-410.64-23a1.34,1.34,0,0,1-.43-.1c-1.5-.81-3-1.64-4.44-2.48-.19-.11-.12-.27.17-.34a1.3,1.3,0,0,1,.89.07c1.43.82,2.91,1.65,4.41,2.45.21.11.14.27-.14.35a1.41,1.41,0,0,1-.46.05Zm420.79,20a1.432,1.432,0,0,1-.41-.09c-.22-.11-.18-.27.1-.36,2-.62,4-1.27,5.92-1.91a1.389,1.389,0,0,1,.9,0c.23.11.19.26-.08.35-2,.64-3.94,1.29-5.94,1.92a1.371,1.371,0,0,1-.49.03Zm-428-24.11a.889.889,0,0,1-.45-.12c-1.37-.83-2.73-1.7-4-2.57-.17-.11-.07-.27.23-.34a1.25,1.25,0,0,1,.87.09c1.3.86,2.65,1.72,4,2.55.18.12.1.27-.2.35a1.994,1.994,0,0,1-.48-.02Zm437.86,20.88a1,1,0,0,1-.39-.08c-.24-.1-.21-.26.06-.36,1.92-.65,3.85-1.32,5.73-2a1.389,1.389,0,0,1,.9,0c.23.1.22.27,0,.36-1.88.67-3.85,1.34-5.75,2a1.21,1.21,0,0,1-.5.07ZM203.32,674.13a1,1,0,0,1-.47-.12c-1.24-.87-2.47-1.77-3.65-2.66-.16-.12,0-.28.28-.34a1.23,1.23,0,0,1,.86.11c1.17.88,2.39,1.78,3.62,2.64.18.13.06.27-.24.34a1.331,1.331,0,0,1-.4.03ZM657.26,696a1,1,0,0,1-.38-.08c-.24-.1-.23-.25,0-.35,1.84-.68,3.7-1.37,5.52-2.08a1.53,1.53,0,0,1,.9,0c.25.1.25.27,0,.36-1.83.7-3.69,1.4-5.55,2.09A1.317,1.317,0,0,1,657.26,696ZM197.39,669.68a.821.821,0,0,1-.48-.14c-1.12-.9-2.22-1.82-3.26-2.73-.15-.14,0-.28.32-.34a1.26,1.26,0,0,1,.85.13c1,.92,2.12,1.83,3.23,2.73.15.12,0,.27-.3.33a1.449,1.449,0,0,1-.36.02Zm469,22.76a.861.861,0,0,1-.36-.07c-.26-.1-.26-.25,0-.35,1.79-.71,3.58-1.44,5.33-2.17a1.53,1.53,0,0,1,.9,0c.25.09.27.26,0,.36-1.75.72-3.55,1.45-5.35,2.17a1.509,1.509,0,0,1-.5.06ZM192.12,665.1a.77.77,0,0,1-.51-.15c-1-.92-2-1.87-2.85-2.81-.13-.13,0-.27.37-.32a1.13,1.13,0,0,1,.82.14c.9.94,1.86,1.88,2.84,2.8.14.13,0,.27-.34.33a1.818,1.818,0,0,1-.33.01Zm483.11,23.73a1.451,1.451,0,0,1-.35-.07c-.25-.09-.27-.25,0-.35,1.72-.77,3.44-1.5,5.11-2.24a1.389,1.389,0,0,1,.9,0c.27.08.3.24.06.34-1.67.77-3.4,1.55-5.12,2.26a1.542,1.542,0,0,1-.6.06ZM187.51,660.4a.75.75,0,0,1-.52-.16c-.85-1-1.67-1.92-2.43-2.87-.11-.14.07-.27.41-.31a1,1,0,0,1,.77.16c.78.95,1.55,1.91,2.43,2.86.11.12-.07.27-.4.32Zm496.18,24.65a1,1,0,0,1-.33-.06c-.27-.09-.31-.24-.08-.35,1.65-.77,3.3-1.54,4.87-2.32a1.39,1.39,0,0,1,.9,0c.27.08.32.24.1.34-1.55.77-3.23,1.55-4.89,2.32a1.25,1.25,0,0,1-.57.07ZM183.61,655.61a.75.75,0,0,1-.53-.17c-.71-1-1.38-2-2-2.93-.09-.13.12-.27.46-.3s.69,0,.77.19c.61,1,1.28,1.93,2,2.9.1.13-.09.27-.43.31Zm508.13,25.53a1.06,1.06,0,0,1-.31,0c-.28-.08-.32-.24-.11-.35,1.54-.77,3.09-1.6,4.63-2.4a1.429,1.429,0,0,1,.89-.06c.29.09.35.24.14.35-1.54.77-3.08,1.62-4.63,2.41a1.161,1.161,0,0,1-.61.05ZM180.45,650.75a.71.71,0,0,1-.54-.2c-.56-1-1.08-2-1.55-3-.06-.14.17-.27.51-.29a1,1,0,0,1,.77.2,31,31,0,0,0,1.55,3c.07.13-.14.27-.49.3ZM699.36,677.1a1.457,1.457,0,0,1-.29,0c-.28-.08-.35-.23-.15-.35,1.48-.83,2.94-1.66,4.33-2.48a1.36,1.36,0,0,1,.89-.07c.29.07.37.23.18.34-1.41.84-2.87,1.67-4.36,2.5a1.249,1.249,0,0,1-.6.06ZM178.08,645.81c-.27,0-.5-.1-.54-.21a31.157,31.157,0,0,1-1-3c0-.14.22-.26.56-.27s.67.08.7.22a30.9,30.9,0,0,0,1,3c0,.13-.19.26-.54.28ZM706.5,672.93a1.126,1.126,0,0,1-.26,0c-.3-.07-.39-.22-.19-.34,1.38-.86,2.73-1.71,4-2.56a1.249,1.249,0,0,1,.87-.08c.31.06.41.22.23.33-1.3.86-2.66,1.72-4,2.58a1.18,1.18,0,0,1-.65.07Zm6.61-4.3h-.23c-.3-.07-.41-.22-.24-.34,1.26-.87,2.5-1.76,3.68-2.64a1.23,1.23,0,0,1,.86-.11c.31.07.43.22.27.34-1.19.89-2.43,1.77-3.7,2.65a1.09,1.09,0,0,1-.64.1ZM176.57,640.82c-.28,0-.52-.11-.54-.22a25.757,25.757,0,0,1-.46-3c0-.13.26-.25.62-.25s.65.1.66.24a25.392,25.392,0,0,0,.45,3c0,.14-.23.26-.59.27Zm542.56,23.37h-.2c-.32-.06-.44-.21-.29-.33,1.14-.91,2.24-1.82,3.28-2.72a1.22,1.22,0,0,1,.84-.13c.32.07.46.21.32.34-1,.9-2.14,1.82-3.3,2.73a1.13,1.13,0,0,1-.65.11ZM176,635.81c-.31,0-.55-.13-.55-.25a23.677,23.677,0,0,1,.17-3c0-.14.32-.24.67-.24s.63.13.61.26a23.21,23.21,0,0,0-.17,3c0,.14-.29.26-.64.26Zm548.39,23.82h-.16c-.32-.06-.48-.21-.34-.34a39.042,39.042,0,0,0,2.81-2.79,1.12,1.12,0,0,1,.82-.14c.34,0,.5.19.38.32-.88.92-1.83,1.87-2.84,2.81a1,1,0,0,1-.63.14ZM176.55,630.79c-.34,0-.59-.13-.55-.27.17-.77.38-1.55.63-2.32l.25-.72c.06-.13.37-.23.72-.21h0c.35,0,.59.15.54.28l-.25.71a23.21,23.21,0,0,0-.63,2.27c0,.14-.34.24-.69.23ZM729,654.93h-.12c-.33,0-.52-.19-.4-.32.81-1,1.54-1.92,2.26-2.86a1,1,0,0,1,.78-.18c.34,0,.54.18.44.31a34.553,34.553,0,0,1-2.32,2.89A1,1,0,0,1,729,654.93ZM178.3,625.81h0c-.35,0-.58-.16-.51-.29a24.813,24.813,0,0,1,1.69-3,1,1,0,0,1,.78-.18c.33,0,.54.18.45.31a26.3,26.3,0,0,0-1.68,2.92.94.94,0,0,1-.74.2Zm554.3,24.3h-.07c-.35,0-.56-.17-.47-.3a33.469,33.469,0,0,0,1.62-2.93c.06-.14.4-.23.77-.2s.57.15.51.29a30.317,30.317,0,0,1-1.64,2.95,1.14,1.14,0,0,1-.73.19ZM181.38,620.94h-.11c-.33,0-.52-.18-.42-.31a33.526,33.526,0,0,1,2.6-2.86,1.12,1.12,0,0,1,.84-.13c.33,0,.48.19.35.32a32.667,32.667,0,0,0-2.57,2.82.94.94,0,0,1-.69.16ZM735,645.18h0c-.35,0-.59-.15-.54-.29l.21-.57a22.3,22.3,0,0,0,.63-2.4c0-.14.33-.24.69-.24s.6.14.58.27a18.479,18.479,0,0,1-.64,2.43l-.21.59C735.7,645.1,735.39,645.19,735,645.18ZM186,616.26h-.19c-.31-.06-.45-.21-.31-.34,1.11-.91,2.32-1.82,3.6-2.68a1.31,1.31,0,0,1,.87-.09c.31.07.41.22.23.34a43.457,43.457,0,0,0-3.54,2.65A1.07,1.07,0,0,1,186,616.26Zm550.14,23.91c-.32,0-.56-.13-.56-.25a15.7,15.7,0,0,0-.08-3c0-.14.25-.26.6-.27s.65.1.67.24a15.342,15.342,0,0,1,.09,3c0,.14-.3.25-.65.24ZM192.29,611.9H192c-.29-.08-.37-.24-.17-.35,1.44-.85,3-1.67,4.62-2.44a1.569,1.569,0,0,1,.91,0c.27.1.3.25.08.36-1.59.77-3.08,1.54-4.53,2.4a1.389,1.389,0,0,1-.62.03Zm8-3.92a1.349,1.349,0,0,1-.36-.07c-.25-.09-.27-.25,0-.35,1.77-.78,3.64-1.45,5.58-2.1a1.389,1.389,0,0,1,.9,0c.23.1.21.26-.06.35-1.91.65-3.76,1.34-5.49,2.07a1.4,1.4,0,0,1-.61.12Zm535.4,27.19c-.29,0-.52-.11-.56-.23a14.994,14.994,0,0,0-1.17-3c-.07-.13.15-.27.49-.29a1,1,0,0,1,.77.19,14.923,14.923,0,0,1,1.2,3c0,.14-.22.26-.56.28Zm-525.9-30.54a1.28,1.28,0,0,1-.43-.1c-.21-.11-.15-.27.13-.35,2-.6,4.18-1.18,6.39-1.71a1.34,1.34,0,0,1,.88.09c.18.11.08.27-.22.34-2.16.52-4.28,1.08-6.28,1.68a1.48,1.48,0,0,1-.51.05Zm523.52,25.61a.75.75,0,0,1-.53-.19,22.144,22.144,0,0,0-2.38-2.83c-.13-.13,0-.27.36-.32a1,1,0,0,1,.82.14,21.523,21.523,0,0,1,2.43,2.88c.1.13-.1.27-.44.31Zm-512.73-28.3a1,1,0,0,1-.49-.13c-.16-.12,0-.27.27-.34,2.24-.46,4.63-.9,7-1.3a1.15,1.15,0,0,1,.83.14c.14.13,0,.27-.34.33-2.36.39-4.68.81-6.88,1.28a1.64,1.64,0,0,1-.43.02Zm205.52,9.11c-2.31-.12-4.69-.26-7-.4-.35,0-.59-.15-.53-.29s.37-.22.71-.21h0c2.32.14,4.63.28,6.95.4h.63c.34,0,.59.14.55.28s-.37.23-.71.22Zm5.73.27c-.35,0-.6-.14-.56-.28s.36-.23.71-.21l7.64.29c.35,0,.61.14.58.28s-.34.24-.7.22c-2.57-.08-5.14-.19-7.66-.3Zm-17.74-1h0c-2.54-.17-5.08-.36-7.57-.56-.35,0-.57-.15-.5-.29s.39-.23.77-.19c2.47.19,5,.38,7.53.55.35,0,.58.15.52.29s-.43.22-.77.2Zm30.51,1.46c-.33,0-.58-.13-.55-.27s.33-.24.68-.23c2.52.08,5.1.14,7.66.19.36,0,.63.13.61.27s-.32.23-.67.23c-2.57-.05-5.16-.12-7.71-.19Zm-43.07-2.44h-.05c-2.51-.22-5-.46-7.49-.71-.34,0-.55-.16-.46-.3s.43-.21.77-.18c2.45.25,5,.48,7.45.7.34,0,.56.17.48.3a.878.878,0,0,1-.71.19Zm55.87,2.72c-.32,0-.57-.13-.55-.26s.31-.25.66-.24c2.52,0,5.1.07,7.68.08.35,0,.63.12.62.26s-.29.24-.65.24c-2.58,0-5.17,0-7.71-.08Zm-68.29-3.93H389c-2.48-.27-5-.57-7.39-.86-.34,0-.52-.19-.42-.32a1.06,1.06,0,0,1,.77-.16c2.43.29,4.89.58,7.35.85.34,0,.54.18.44.31a.92.92,0,0,1-.68.18Zm339.8,17.4a.869.869,0,0,1-.5-.13,34.41,34.41,0,0,0-3.62-2.63c-.18-.12-.09-.27.22-.34a1.3,1.3,0,0,1,.87.07,38.877,38.877,0,0,1,3.68,2.68c.16.12,0,.27-.3.33a1.14,1.14,0,0,1-.37,0Zm-496.62-25.6a.85.85,0,0,1-.53-.16c-.11-.13.06-.27.39-.32,2.38-.33,4.86-.63,7.38-.9a1,1,0,0,1,.77.18c.09.13-.11.27-.45.3-2.48.26-4.93.57-7.28.89a1.31,1.31,0,0,1-.32.01Zm237.92,12.24c-.32,0-.56-.13-.56-.26s.3-.24.64-.24H478c.35,0,.64.1.64.24s-.27.26-.63.26H470.2Zm12.82,0c-.3,0-.54-.13-.55-.25s.27-.25.62-.25l7.72-.1c.34,0,.64.11.65.25s-.26.25-.61.25l-7.71.1Zm-106.17-5.49h-.12c-2.44-.32-4.87-.66-7.26-1-.33,0-.5-.2-.37-.33a1.18,1.18,0,0,1,.82-.15c2.37.36,4.8.7,7.22,1,.33,0,.51.18.4.31a1,1,0,0,1-.69.13Zm119,5.31c-.3,0-.54-.11-.55-.23s.26-.26.6-.26l7.72-.17c.34,0,.65.1.67.24s-.25.26-.6.27l-7.72.16Zm-131-7h-.14c-2.41-.34-4.84-.68-7.23-1-.33,0-.51-.19-.4-.32a1.08,1.08,0,0,1,.82-.15c2.4.32,4.84.66,7.25,1,.33,0,.5.19.38.32a1,1,0,0,1-.68.11Zm-120.27-6.41a.73.73,0,0,1-.54-.2c-.08-.13.15-.26.49-.29,2.46-.21,5-.4,7.59-.55.35,0,.67.08.73.21s-.19.27-.54.28c-2.55.16-5.08.33-7.51.54Zm264.09,13.11c-.3,0-.53-.11-.55-.23s.24-.26.59-.27c2.56-.06,5.11-.14,7.66-.22.35,0,.66.1.69.24s-.24.26-.6.27l-7.66.21ZM352.71,603.3h-.12c-2.44-.32-4.89-.63-7.3-.92-.33,0-.53-.18-.42-.31a1,1,0,0,1,.77-.17c2.42.29,4.88.6,7.33.93.34,0,.52.18.41.31A1,1,0,0,1,352.71,603.3Zm-95.54-5.53c-.29,0-.52-.1-.55-.22s.21-.26.56-.28c2.5-.1,5.08-.18,7.72-.24.36,0,.65.1.67.24s-.25.26-.61.27c-2.57.05-5.14.13-7.61.23ZM521.4,611.3c-.29,0-.53-.11-.55-.23s.23-.26.58-.27l7.65-.26c.35,0,.66.08.69.22s-.22.27-.58.27l-7.65.27Zm-180.91-9.51h-.09c-2.47-.27-4.95-.55-7.38-.77-.34,0-.54-.18-.46-.31a1,1,0,0,1,.77-.17c2.44.25,4.93.53,7.41.81.34,0,.53.18.43.31a.87.87,0,0,1-.68.13Zm381.88,19.42a1.13,1.13,0,0,1-.44-.1c-1.45-.77-3.08-1.58-4.74-2.32-.23-.1-.21-.25,0-.34a1.42,1.42,0,0,1,.91,0c1.72.77,3.34,1.54,4.83,2.37.2.12.13.27-.15.36a1.748,1.748,0,0,1-.46,0ZM328.14,600.47h-.07c-2.5-.26-5-.49-7.46-.7-.34,0-.55-.17-.47-.31s.41-.21.77-.19c2.44.23,5,.46,7.48.71.35,0,.55.17.46.3A.91.91,0,0,1,328.14,600.47Zm-58.21-3c-.31,0-.55-.13-.55-.25s.27-.25.63-.25h7.71c.36,0,.63.12.62.26s-.3.24-.66.24Zm264.22,13.38c-.28,0-.52-.11-.54-.23s.22-.26.57-.27l7.64-.3c.36,0,.66.09.7.23s-.22.25-.57.27l-7.65.3Zm-218.5-11.51h0c-2.53-.21-5.06-.4-7.53-.57-.35,0-.58-.15-.52-.29s.4-.23.77-.2c2.49.17,5,.36,7.57.57.34,0,.56.16.49.29s-.43.22-.78.2Zm-32.93-1.77c-.32,0-.57-.13-.55-.26s.32-.24.67-.23c2.52,0,5.1.13,7.72.23.32,0,.6.14.57.27s-.35.24-.71.23c-2.56-.1-5.12-.17-7.62-.24Zm20.35.88h0l-5.69-.33-1.9-.09h0c-.34,0-.59-.14-.55-.28s.36-.24.71-.21l2,.09,5.62.32c.35,0,.59.15.54.29s-.4.21-.74.2Zm243.83,11.9c-.29,0-.52-.1-.55-.23s.21-.25.56-.27l7.65-.32c.34,0,.66.08.7.22s-.22.27-.57.28l-7.64.32Zm12.73-.54c-.29,0-.52-.1-.55-.22s.22-.26.57-.28l7.63-.33c.36,0,.67.09.71.22s-.21.26-.56.28l-7.65.33Zm154.44,7.59a1.149,1.149,0,0,1-.37-.06c-1.77-.69-3.67-1.36-5.66-2-.27-.09-.31-.25-.09-.36a1.389,1.389,0,0,1,.9,0c2,.65,3.94,1.33,5.75,2,.25.09.25.26,0,.36a1.59,1.59,0,0,1-.53,0Zm-141.71-8.15c-.28,0-.51-.11-.55-.22s.21-.26.56-.28l7.65-.33c.35,0,.66.08.7.22s-.22.26-.57.28l-7.63.33Zm12.74-.55c-.29,0-.53-.1-.56-.22s.22-.25.57-.27c2.57-.11,5.13-.22,7.65-.31.35,0,.66.09.7.23s-.22.25-.57.27l-7.65.3Zm119.21,5.46h-.29c-2-.57-4.15-1.13-6.35-1.66-.3-.07-.39-.23-.21-.34a1.34,1.34,0,0,1,.88-.09c2.22.54,4.39,1.1,6.42,1.68.29.09.36.24.15.36a1.361,1.361,0,0,1-.6.1Zm-106.44-6c-.29,0-.52-.1-.55-.22s.22-.26.57-.28l7.66-.27c.36,0,.67.09.69.23s-.23.26-.58.27l-7.65.27Zm12.76-.43c-.29,0-.53-.11-.56-.23s.24-.25.6-.27l7.67-.21c.36,0,.66.1.67.24s-.24.26-.59.26l-7.66.21Zm82.86,3.69h-.22c-2.17-.46-4.49-.88-6.89-1.27-.33,0-.48-.19-.35-.32a1.15,1.15,0,0,1,.83-.14c2.44.39,4.8.82,7,1.29.32.07.44.21.27.34a1.209,1.209,0,0,1-.64.14Zm-70.1-4c-.3,0-.54-.11-.55-.23s.25-.26.61-.27l7.71-.11c.35,0,.65.11.66.24s-.27.26-.62.26c-2.45,0-5,.06-7.67.11Zm12.81-.15c-.32,0-.56-.12-.56-.25s.28-.24.63-.24H644c.35,0,.62.11.62.25s-.3.25-.65.25H636.2Zm45.5,2.21h-.11c-2.32-.3-4.81-.57-7.35-.81-.33,0-.55-.17-.47-.3a.91.91,0,0,1,.78-.19c2.57.24,5.08.52,7.45.83.33,0,.51.18.4.31a.9.9,0,0,1-.67.16ZM649,607.39c-.32,0-.56-.13-.54-.26s.31-.25.66-.24c2.64.05,5.23.12,7.71.21.35,0,.61.13.58.27s-.34.24-.69.22q-3.675-.12-7.64-.2Zm20.35.88h0c-2.19-.16-4.48-.3-6.82-.42h-.77c-.35,0-.59-.14-.55-.28s.37-.23.71-.22h.77c2.36.12,4.69.27,6.89.43.35,0,.58.16.51.29s-.37.19-.72.16Z" fill="#e6bf6b"/>
            <path id="패스_5571" data-name="패스 5571" d="M455.71,656.51a.73.73,0,0,0,.35-.15c.27-.26.05-.68-.05-1a12.189,12.189,0,0,0-.47-1.15,13.534,13.534,0,0,0-1.15-2c-.43-.59-1.14-1.11-1.26-1.85a.43.43,0,0,0-.09-.26.24.24,0,0,0-.3,0,.58.58,0,0,0-.2.27,1.51,1.51,0,0,0,.1,1,3.8,3.8,0,0,1,.34,1c0,.33-.71-.1-.78-.12a6.318,6.318,0,0,0-1.11-.38,5.851,5.851,0,0,0-2.32-.09.26.26,0,0,0-.23.1.33.33,0,0,0,0,.24,3.31,3.31,0,0,0,1.84,2.26,8.669,8.669,0,0,0,2.92.7h0a1.24,1.24,0,0,1,.82.64c.14.27.23.73.58.78a3.086,3.086,0,0,0,.86,0Z" fill="#f2d3bd"/>
            <path id="패스_5572" data-name="패스 5572" d="M454.67,656.39h0a.28.28,0,0,0,.24-.27,1.19,1.19,0,0,0-.3-.64,2.318,2.318,0,0,0-.49-.5,7.871,7.871,0,0,0-2.61-.77,6.39,6.39,0,0,1-2.75-1.58,3,3,0,0,0,1.63,1.74,8.4,8.4,0,0,0,2.92.71,1.25,1.25,0,0,1,.93.82,1,1,0,0,0,.2.42.29.29,0,0,0,.23.07Z" fill="#e2b698"/>
            <path id="패스_5573" data-name="패스 5573" d="M457.75,668.58v-.67a47.778,47.778,0,0,0-.89-9.32c-.14-.77-.25-2.64-1.2-2.91a1.43,1.43,0,0,0-1.07.15c-.5.26-.26.46-.17.86a36.049,36.049,0,0,1-.33,5.49c-.29,1.65-.51,3.32-.65,5s-.69,4,.35,5.51a8.309,8.309,0,0,0,2.31,2.11c1.54,1.08,3.08,2.2,4.63,3.3a26.6,26.6,0,0,0,5,2.77c2.12.9,3.56-.24,4.67-2.19a3.74,3.74,0,0,0,.54-2.78c-.4-1.44-2-2.14-3.41-2.65a83.616,83.616,0,0,1-8.56-3.17,2.62,2.62,0,0,1-1-.77,1.72,1.72,0,0,1-.22-.73Z" fill="#1a8baa"/>
            <path id="패스_5574" data-name="패스 5574" d="M455.13,668.53h0l.14-11a2.81,2.81,0,0,0-.12-1c-.08-.2-.35-.66-.63-.62s-.16.55-.1.77a36.1,36.1,0,0,1-.33,5.5c-.29,1.65-.51,3.32-.65,5s-.69,4,.35,5.52a8.309,8.309,0,0,0,2.31,2.11c1.54,1.07,3.08,2.2,4.63,3.3a26.6,26.6,0,0,0,5,2.77,3,3,0,0,0,2.63,0,1.43,1.43,0,0,0,.2-2h0a4.3,4.3,0,0,0-1.95-1.19,49,49,0,0,1-9.52-5,4.719,4.719,0,0,1-1.54-1.44,5,5,0,0,1-.42-2.72Z" fill="#3aaacf"/>
            <path id="패스_5575" data-name="패스 5575" d="M447.14,611.56l13.25-2.8-.23,5.95Z" fill="url(#linear-gradient)"/>
            <path id="패스_5576" data-name="패스 5576" d="M446.88,638.35l13.25-2.8-6.41,8.31Z" fill="url(#linear-gradient-2)"/>
            <path id="패스_5577" data-name="패스 5577" d="M463.86,603.89l13.3-2.81a7.06,7.06,0,0,1,2.93.07,10,10,0,0,1,7.59,9.25,6.65,6.65,0,0,1-.78,3.09.73.73,0,0,0,.45.92h.09L499.28,617a1.13,1.13,0,0,1,.86,1v23.22c0,6.66-4,11.52-9.75,12.8l-12.77,2.69Z" fill="url(#linear-gradient-3)"/>
            <path id="패스_5578" data-name="패스 5578" d="M486,619.8l-11.85-2.53a.73.73,0,0,1-.56-.85v-.1a6.64,6.64,0,0,0,.77-3.09,10,10,0,0,0-7.59-9.25c-4.19-.93-7.59,1.69-7.71,5.82a8.6,8.6,0,0,0,.77,3.6.49.49,0,0,1-.17.67.52.52,0,0,1-.37,0l-11.84-2.52a.66.66,0,0,0-.83.46.489.489,0,0,0,0,.21v12.11a.51.51,0,0,0,.53.51h.08a7,7,0,0,1,3.67-.07,10,10,0,0,1,7.46,9.26,6,6,0,0,1-7.64,5.95,9.209,9.209,0,0,1-3.54-1.58c-.28-.2-.61-.06-.61.25v12.09a1.15,1.15,0,0,0,.86,1.05l23.2,4.95c8.95,1.91,16.19-3.8,16.19-12.76v-23.2A1.1,1.1,0,0,0,486,619.8Z" fill="#0772a1"/>
            <path id="패스_5579" data-name="패스 5579" d="M459.88,613.51v.23a.891.891,0,0,0,0-.23Z" fill="#65a6dc"/>
            <path id="패스_5580" data-name="패스 5580" d="M494.39,647.05h-.27a.84.84,0,0,1-.37-.14c-.25-.2-.24-.55-.27-.82s0-.72,0-1.08a16.73,16.73,0,0,1,.16-2.74,7.18,7.18,0,0,0,.32-2.67.55.55,0,0,1,0-.31.26.26,0,0,1,.27-.2.51.51,0,0,1,.3.19,1.89,1.89,0,0,1,.34,1.08,5,5,0,0,0,.13,1.22c.14.37.61-.48.64-.54a6.79,6.79,0,0,1,.85-1,6,6,0,0,1,2.05-1.36.26.26,0,0,1,.27,0,.42.42,0,0,1,.12.24,4.5,4.5,0,0,1-.69,3.42,8.118,8.118,0,0,1-1.75,1.61,2.52,2.52,0,0,0-1.16,1.87v.36a1.05,1.05,0,0,1-.94.87Z" fill="#e2b698"/>
            <path id="패스_5581" data-name="패스 5581" d="M493.94,646.1a.38.38,0,0,1-.21,0c-.38-.13-.28-.77-.29-1.07a16.8,16.8,0,0,1,.16-2.74,7.151,7.151,0,0,0,.32-2.66.58.58,0,0,1,0-.32.25.25,0,0,1,.27-.19.49.49,0,0,1,.3.18,1.92,1.92,0,0,1,.34,1.08,5.088,5.088,0,0,0,.13,1.23c.14.37.61-.49.64-.54a6.389,6.389,0,0,1,.85-1,4.7,4.7,0,0,1,2-1.34c-.13,0-.35.37-.44.46l-.45.49c-.3.33-.59.66-.87,1a12.248,12.248,0,0,0-1.48,2.15,7.349,7.349,0,0,0-.57,1.4,5.193,5.193,0,0,0-.18.78,5.2,5.2,0,0,1-.09.77.65.65,0,0,1-.23.34.411.411,0,0,1-.2-.02Z" fill="#f2d3bd"/>
            <path id="패스_5582" data-name="패스 5582" d="M497.32,662.76c-.08-.23-.18-.45-.28-.67-1.45-3.08-2-7.71-2.91-11.13-.08-.33-.16-.66-.23-1q-.21-1-.33-2c-.05-.33-.09-.67-.11-1v-.71a.4.4,0,0,1,.15-.14,1.8,1.8,0,0,1,1.49-.11l.14.08c.11.09.07.25.08.37a2.32,2.32,0,0,0,.05.38,7.854,7.854,0,0,0,.47,1.47c.17.4.36.77.54,1.19,1.77,4,4.57,8,6.21,11.86a7.75,7.75,0,0,1,.71,3.38,10.56,10.56,0,0,1-1.22,3.86,79.5,79.5,0,0,1-6.17,10,3.3,3.3,0,0,1-4.67-.3h0c-2.13-2.58.71-5.93,2.11-8.25s2.14-3,3.58-5.18a2.889,2.889,0,0,0,.57-1.26,2,2,0,0,0-.18-.84Z" fill="#1a8baa"/>
            <path id="패스_5583" data-name="패스 5583" d="M497.32,662.76c-.08-.23-.18-.45-.28-.67-1.45-3.08-2-7.71-2.91-11.13-.08-.33-.16-.66-.23-1q-.21-1-.33-2c-.05-.33-.09-.67-.11-1v-.5a.6.6,0,0,1,.7-.51.581.581,0,0,1,.14,0c.36.23.37,1.11.42,1.47a40,40,0,0,0,3.18,11.85,14.459,14.459,0,0,1,1.54,4.53,9.52,9.52,0,0,1-1.2,4.79,25.327,25.327,0,0,1-2.62,4.21,4.87,4.87,0,0,1-2.27,1.81c-.77.27-2.84-.05-2.38-1.18a37.364,37.364,0,0,1,2.31-3.48c1.31-2.19,2.15-3,3.58-5.18a2.83,2.83,0,0,0,.57-1.26,1.859,1.859,0,0,0-.11-.75Z" fill="#3aaacf"/>
            <path id="패스_5584" data-name="패스 5584" d="M483.33,722.52c-2.48,3.42-6.74,6.54-9.64,9.26a4.721,4.721,0,0,0-1.54,2.12c-.24,1.1.59,2,1.25,2.88a13.15,13.15,0,0,1,2.14,9.61,44.772,44.772,0,0,1-4,13.16,1.9,1.9,0,0,1-1.25,1.23c-2.5.52-3.41-9.82-3.58-11-.82-6.24-2.95-12.62-1.86-19.43.88-5.53,3.85-11.08,7.07-16.68,1.46-2.54,3.09-5.28,5.9-7,3.77-2.31,8.25-1.14,9,2.14.84,3.92-.37,8.12-2.39,12a11.633,11.633,0,0,1-1.1,1.71Z" fill="#00426b"/>
            <path id="패스_5585" data-name="패스 5585" d="M478.84,720.7a43.1,43.1,0,0,1-4.83,6.79c-1.66,1.91-4.48,3.74-5.59,5.86-1.47,2.83.1,5.58,1.22,8.16a24.29,24.29,0,0,1,.64,17.34,1.5,1.5,0,0,1-.71,1c-1.66.69-2.7-8.82-2.87-10-.82-6.24-2.95-12.62-1.86-19.43.88-5.53,3.85-11.08,7.07-16.67,1.36-2.37,5-9.09,9.2-6.88a3.32,3.32,0,0,1,1.68,2.6,8.3,8.3,0,0,1-.44,3.09,38.818,38.818,0,0,1-3.51,8.14Z" fill="#00508c"/>
            <path id="패스_5586" data-name="패스 5586" d="M491.57,716.42c0,.52.07,1,.09,1.54.1,3.5-.92,9.52,1.35,12.53.72,1,2.25,1.21,3.57,1.51A20.33,20.33,0,0,1,507,738.28c3.55,3.86,9.37,14.7,8.91,15.26-1.73,2.12-12.38-6.21-13.63-7.12-6.43-4.63-14-8.55-18.85-14.55-3.8-4.7-5.6-10.41-7.18-16-.7-2.49-1.35-5.16-.24-7.63,2.37-5.32,10.07-4,13,0a15.44,15.44,0,0,1,2.56,8.18Z" fill="#00426b"/>
            <path id="패스_5587" data-name="패스 5587" d="M485,718.54a53.776,53.776,0,0,1,1.9,7.39,14.449,14.449,0,0,0,2.59,6.74c2.36,3,6.4,4.56,9.67,6.7,3.86,2.52,7.15,6.22,10.57,9.19,1.35,1.18,2.77,2.26,4.14,3.4.6.51,1.75,1.64,0,1.65-1.2,0-4.34-2.05-5.89-3.09-2-1.3-3.86-2.72-5.73-4.1-6.43-4.63-14-8.55-18.85-14.55-3.8-4.7-5.6-10.41-7.18-16-.7-2.49-1.35-5.16-.24-7.63.77-1.75,2.9-3.16,4.69-1.54a5.4,5.4,0,0,1,1.35,2.55Q483.48,713.92,485,718.54Z" fill="#00508c"/>
            <path id="패스_5588" data-name="패스 5588" d="M471.36,760.78a1.718,1.718,0,0,0,.09.36c.26,1.09,1.54,1.75,1.76,2.86a.53.53,0,0,1-.07.44.58.58,0,0,1-.19.15c-.77.46-1.54.9-2.31,1.41s-1.49,1.27-2.26,1.87a5,5,0,0,1-2.16,1c-.54.1-1.62.14-1.74-.7a31.612,31.612,0,0,0,2.32-2.31,9.55,9.55,0,0,0,1.32-2.27,27.208,27.208,0,0,0,.77-3.08.51.51,0,0,1,.14-.26.34.34,0,0,1,.2,0l1.54.1a.51.51,0,0,1,.59.43Z" fill="#052a6e"/>
            <path id="패스_5589" data-name="패스 5589" d="M470.45,760.85a3,3,0,0,1-.08.89,9.24,9.24,0,0,1-2.44,4.36,6.582,6.582,0,0,0-1,1.19.41.41,0,0,0-.05.4c.1.16.35.12.53.06a5.58,5.58,0,0,0,1.93-1.19,4.181,4.181,0,0,1,1-.83,1.5,1.5,0,0,1,.84-.1,18.8,18.8,0,0,0-2.78,2.24,5,5,0,0,1-2.16,1c-.54.1-1.62.14-1.73-.7a31.446,31.446,0,0,0,2.31-2.31,9.941,9.941,0,0,0,1.33-2.27,29.5,29.5,0,0,0,.77-3.08.45.45,0,0,1,.14-.26.31.31,0,0,1,.19,0h.7c.26,0,.32,0,.41.29a1,1,0,0,1,.09.31Z" fill="#001e4f"/>
            <path id="패스_5590" data-name="패스 5590" d="M516.05,752.53l.33.18c1,.6,2.43.11,3.41.77a.59.59,0,0,1,.29.37,1.13,1.13,0,0,1,0,.26c-.21.91-.46,1.83-.6,2.74s-.13,2-.23,3a5.319,5.319,0,0,1-.78,2.39c-.32.48-1.06,1.33-1.77.81-.09-1.15.12-2.27-.08-3.45a9.762,9.762,0,0,0-.77-2.64,28.765,28.765,0,0,0-1.75-2.86.42.42,0,0,1-.09-.29.451.451,0,0,1,.11-.17l1.21-1.12a.55.55,0,0,1,.72.01Z" fill="#052a6e"/>
            <path id="패스_5591" data-name="패스 5591" d="M515.41,753.26a2.551,2.551,0,0,1,.6.71,9.8,9.8,0,0,1,1.55,5,6.1,6.1,0,0,0,.13,1.65.342.342,0,0,0,.26.32c.14.02.34-.17.42-.36a5.719,5.719,0,0,0,.51-2.31,4.289,4.289,0,0,1,.13-1.38,1.44,1.44,0,0,1,.54-.7,19.156,19.156,0,0,0-.34,3.7,5.19,5.19,0,0,1-.77,2.39c-.32.48-1.06,1.33-1.77.81-.09-1.16.11-2.27-.08-3.45a9.76,9.76,0,0,0-.77-2.64,30.01,30.01,0,0,0-1.72-2.83.42.42,0,0,1-.09-.29.451.451,0,0,1,.11-.17l.54-.49c.2-.19.27-.21.51-.1A1,1,0,0,1,515.41,753.26Z" fill="#001e4f"/>
            <path id="패스_5592" data-name="패스 5592" d="M489.14,709.82c-2.21,1.66-6.48,1-9.21.44a8.46,8.46,0,0,1-5.17-2.93,12.86,12.86,0,0,1-1.94-4.77q-1.54-6.16-3.15-12.38c-.78-3.09-.83-7.48-3.91-9.1a14.454,14.454,0,0,1-1.87-1c-.46-.32-.46-1.07-.42-1.54a8.1,8.1,0,0,1,1.73-4.36,3.87,3.87,0,0,1,1.19-1.05,1.75,1.75,0,0,1,1.54-.16,36,36,0,0,0,15.25,1.54,16.389,16.389,0,0,0,8.21-2.14c1.38-.81,5.55,5,5.17,5.5a45.631,45.631,0,0,0-5.27,7.58,13,13,0,0,0-1.55,5.67c0,.92.12,4.54.2,5.47a74.286,74.286,0,0,1,.62,10.22,3.71,3.71,0,0,1-1.42,3.01Z" fill="#f7a42b"/>
            <path id="패스_5593" data-name="패스 5593" d="M489.14,709.82a7.73,7.73,0,0,1-5.64,1c-1.51-.5-2.18-2.63-2.6-4-2.71-9.07-5.45-18.38-4.86-27.84a7.76,7.76,0,0,1,.58-2.85c1.11-2.31,4.35-1.54,6.53-1.62,3.66-.11,6.94-.94,8.81-2.87,1.12-1.14,5,5.79,4.63,6.25a46.47,46.47,0,0,0-5.27,7.58,13,13,0,0,0-1.55,5.67c0,.92.12,4.54.2,5.47a74.378,74.378,0,0,1,.62,10.22,3.72,3.72,0,0,1-1.45,2.99Z" fill="#d17e11"/>
            <path id="패스_5594" data-name="패스 5594" d="M477.75,676.54a9,9,0,0,0,3.86-.33,2.4,2.4,0,0,0,1.06-.52.66.66,0,0,0-.09-.93l-.09-.06a3.15,3.15,0,0,0-1.48-.53,7.461,7.461,0,0,0-4.19.6c-.49.27-.77.72-.54,1.11a1.84,1.84,0,0,0,1.11.59Z" fill="#3aaacf"/>
            <path id="패스_5595" data-name="패스 5595" d="M477.75,676.54a9,9,0,0,0,3.86-.33,2.4,2.4,0,0,0,1.06-.52.66.66,0,0,0-.09-.93l-.09-.06a3.15,3.15,0,0,0-1.48-.53c-.25,0-1.05-.17-1.22,0a.19.19,0,0,0,0,.28,2.324,2.324,0,0,0,.3.22c.35.25.53.62.27.91a2,2,0,0,1-1.07.44,11.361,11.361,0,0,1-1.54.19,1,1,0,0,0-.34,0,.2.2,0,0,0-.15.17,2.073,2.073,0,0,0,.49.16Z" fill="#1a8baa"/>
            <path id="패스_5596" data-name="패스 5596" d="M481.27,674.3a.93.93,0,0,1-.1.91,2.32,2.32,0,0,1-1.43.93c-.77.17-2-.26-1.87-1.27a5.344,5.344,0,0,1,.28-1,1.87,1.87,0,0,0-.41-1.54c-.82-1-2.68-.52-3-1.36a1.67,1.67,0,0,1,.19-1.16c.11-.32.34-.77.15-1.06a1,1,0,0,0-.4-.34c-.18-.09-.41-.18-.44-.38a.59.59,0,0,1,.17-.42,12.545,12.545,0,0,0,1.08-1.33,2.35,2.35,0,0,0,.47-1.54,1.11,1.11,0,0,1,.42-1.18,3.89,3.89,0,0,1,1.54-.69,3.53,3.53,0,0,1,3.59.91c1.61,2.09-.17,4.93-1,7a2.75,2.75,0,0,0,.34,3A4.277,4.277,0,0,1,481.27,674.3Z" fill="#e2b698"/>
            <path id="패스_5597" data-name="패스 5597" d="M477.3,671.75c-.59.21-2.31-.13-2.58-.77a1.71,1.71,0,0,1,.19-1.17c.11-.31.34-.77.15-1a.94.94,0,0,0-.4-.34c-.18-.09-.41-.19-.44-.39a.55.55,0,0,1,.17-.41,13.628,13.628,0,0,0,1.08-1.33,2.37,2.37,0,0,0,.47-1.54,1.09,1.09,0,0,1,.42-1.18c.19-.14.5-.44.77-.27a.64.64,0,0,1,.24.46,1.87,1.87,0,0,1-.45,1.5c-.1.1-.22.21-.21.36s.16.25.28.37a1.34,1.34,0,0,1,.07,1.46,12.389,12.389,0,0,0-.78,1.37C475.82,670.08,476.69,670.85,477.3,671.75Z" fill="#f2d3bd"/>
            <path id="패스_5598" data-name="패스 5598" d="M479.44,659.75a5.68,5.68,0,0,1,3.55,1.16,2.06,2.06,0,0,1,.89,1.28,9.4,9.4,0,0,0,0,1.3c.11.39.44.6.69.89a2.61,2.61,0,0,1,.51,1,3.22,3.22,0,0,1-.21,2.18,4.1,4.1,0,0,1-1.47,1.7c-.71.41-1.35.91-2.08,1.29a1.13,1.13,0,0,1-.65.17.92.92,0,0,1-.65-.62,2.1,2.1,0,0,1-.06-1.4,12.091,12.091,0,0,0,.49-1.11.74.74,0,0,0-.73-1,1,1,0,0,0-.49,0c-.37.15-.39.7-.45,1a5.487,5.487,0,0,0-.12,1.4,6.919,6.919,0,0,1-.31,2.93,2.42,2.42,0,0,1-1.25,1.41,2.61,2.61,0,0,1-1.61,0,2.22,2.22,0,0,1-1.29-.77,1.5,1.5,0,0,1,0-1.72c.23-.31,1.34-1.09.85-1.54-.06-.06-.15-.08-.22-.14a.35.35,0,0,1,0-.5c.51-.58,1.79.32,2.18.65a1,1,0,0,0,.32.22.33.33,0,0,0,.37-.06.48.48,0,0,0,.1-.28,14.691,14.691,0,0,0,.1-2.89,2.56,2.56,0,0,0-1.12-2.15,4.507,4.507,0,0,1-1-.66,4.318,4.318,0,0,1-.61-.92,3.77,3.77,0,0,1-.33-2.12.84.84,0,0,1,.36-.69c.27-.15.6,0,.9.09C477.26,660.41,478.26,659.77,479.44,659.75Z" fill="#052a6e"/>
            <path id="패스_5599" data-name="패스 5599" d="M479.93,663.13a3.893,3.893,0,0,1,.59,0,2,2,0,0,1,1.66.7c.51.72.22,1.75.61,2.54.2.42.59.77.77,1.15a1.56,1.56,0,0,1,0,1.27,2.49,2.49,0,0,1-.89,1,7.271,7.271,0,0,1-1.37.88,1.12,1.12,0,0,1-.64.17.92.92,0,0,1-.66-.62,2.1,2.1,0,0,1-.05-1.4,11.984,11.984,0,0,0,.48-1.11.8.8,0,0,0-.11-.65.88.88,0,0,0-.62-.3,1,1,0,0,0-.49,0c-.37.16-.38.7-.45,1a5.489,5.489,0,0,0-.12,1.4,6.92,6.92,0,0,1-.31,2.93,2.38,2.38,0,0,1-1.25,1.41,2.6,2.6,0,0,1-1.61,0,2.25,2.25,0,0,1-1.29-.77,1.52,1.52,0,0,1,0-1.71c.24-.32,1.35-1.1.85-1.55-.06-.06-.15-.08-.22-.14a.37.37,0,0,1,0-.5c.52-.58,1.79.32,2.18.65a1.19,1.19,0,0,0,.33.22.32.32,0,0,0,.37-.06.56.56,0,0,0,.1-.28,15.473,15.473,0,0,0,.1-2.89,2.57,2.57,0,0,0-1.13-2.15,4.439,4.439,0,0,1-1-.66,4,4,0,0,1-.62-.92,3.751,3.751,0,0,1-.33-2.11c0-.41.36-.78.77-.46a1.23,1.23,0,0,1,.34.62,4.14,4.14,0,0,0,.9,2.08,2.42,2.42,0,0,0,1.78.43,8.366,8.366,0,0,1,1.33-.17Z" fill="#001c49"/>
            <path id="패스_5600" data-name="패스 5600" d="M379.47,700.33c0-.77.06-1.6.09-2.41v-6.13c0-2.07-.05-6.39-1.69-8.67-.06-.09-.1-.19-.17-.28-2.2-3.63-6.74-4.16-8.94-1.24-2.63,3.49-3.59,8-3.67,12.5a13.615,13.615,0,0,0,.11,2c.55,4.22,2.82,8.82,4.07,12.54a4.58,4.58,0,0,1,.34,2.63c-.31,1.15-1.59,1.59-2.48,2.32-6.62,5.44-2.5,9.93-10,24.24-.49.94-2,.93-2.63,1.8a.5.5,0,0,0-.11.41.781.781,0,0,0,.11.2c.5.68,1,1.34,1.5,2a22.987,22.987,0,0,1,1.3,2.43,4.651,4.651,0,0,0,1.54,1.7c.44.28,1.38.73,1.8,0-.35-1-.92-1.83-1.19-2.87a8.68,8.68,0,0,1-.32-2.43,5,5,0,0,1,.47-3c.05-.07,9-12.18,9.93-13.47l.92-1.29c.71-1,1.42-2,2.11-3l.47-.69c.38-.56.77-1.13,1.11-1.71l.36-.57.33-.55.36-.62c.27-.48.53-1,.77-1.45s.4-.77.59-1.21l.28-.62c.19-.42.36-.83.53-1.26s.31-.86.46-1.29a35.738,35.738,0,0,0,1.54-7.86l.09-1.18A6.746,6.746,0,0,1,379.47,700.33Z" fill="#f2d3bd"/>
            <path id="패스_5601" data-name="패스 5601" d="M379.28,700.35c-.24-1.9-1.14-3.63-3.53-3.4a5,5,0,0,0-3.9,3.44,11.739,11.739,0,0,0-.22,5.4,27.571,27.571,0,0,1,.54,5.44c-.17,3.39-2,6.44-3.71,9.34l-9.1,15.14a10.239,10.239,0,0,0-1.75,4.23,6,6,0,0,0,2,4.87,15.592,15.592,0,0,1-.54-3.6,5,5,0,0,1,.47-3c0-.08,9-12.18,9.93-13.48l.92-1.28c.71-1,1.42-2,2.11-3l.47-.7c.38-.55.77-1.12,1.11-1.7.12-.19.24-.38.35-.57l.34-.55.36-.63c.27-.47.53-1,.77-1.45s.4-.77.59-1.21l.28-.61c.19-.42.36-.84.53-1.27s.31-.85.46-1.29a36.22,36.22,0,0,0,1.54-7.86,11.442,11.442,0,0,0-.02-2.26Z" fill="#e2b698"/>
            <path id="패스_5602" data-name="패스 5602" d="M393.55,747.74c-.87-.67-1.85-1.09-2.68-1.85a16.608,16.608,0,0,1-2.42-3.29c-1.4-3.08.65-14.21.69-14.88.3-7.72,1.93-15.64.23-23.33-1.35-6-4.68-11.51-8.09-16.77-.47-.73-1-1.47-1.49-2.17l-.48-.62c-.17-.21-.34-.41-.52-.61h0a10,10,0,0,0-2.74-2.21l-.33-.16-.21-.1h0l-.22-.1a5.55,5.55,0,0,0-7.56,4.09c-.6,4.08.6,8.12,2.53,11.79a12,12,0,0,0,1,1.54c2.42,3.22,6.56,5.88,9.5,8.48a4.76,4.76,0,0,1,1.66,2.15c.3,1.21-.45,2.39-1,3.48-1.84,3.51-1.85,7-1.23,10.86.73,4.53,5.4,10.13,5.4,18.14,0,1.07-1.15,1.86-1.14,2.93a.53.53,0,0,0,.14.4.57.57,0,0,0,.22.11c.81.32,1.66.61,2.45,1s1.66.95,2.51,1.4a5.139,5.139,0,0,0,2.26.66C392.57,748.64,393.61,748.53,393.55,747.74Z" fill="#f2d3bd"/>
            <path id="패스_5603" data-name="패스 5603" d="M391.13,747c.36-1.08-2.24-3.44-2.67-4.37-1.4-3.08.66-14.21.69-14.88.31-7.72,1.94-15.64.23-23.33-.6-2.69-2.49-11.07-6.82-9.59a4.14,4.14,0,0,0-2.56,3.85,7.75,7.75,0,0,0,1.58,4.54c.94,1.33,2.1,2.49,3.14,3.75a10,10,0,0,1,2.26,4.28,14.086,14.086,0,0,1-.61,5.91,37.258,37.258,0,0,0-1,11.43c.28,3.12,1.09,6.2,1,9.34a15,15,0,0,0,.11,3.78c.56,2.31,2.6,4,4.52,5.39Z" fill="#e2b698"/>
            <path id="패스_5604" data-name="패스 5604" d="M393.45,659.22c.15-.18.29-.37.42-.56a49.066,49.066,0,0,1,6.53-7.21,17.62,17.62,0,0,1,3.79-2.8,12.55,12.55,0,0,1,2.2-.94c.72-.23,1.63-.22,2.2-.77a.5.5,0,0,1,.22-.16.31.31,0,0,1,.28.18.53.53,0,0,1,0,.35c-.12.38-.39.51-.67.77a3.8,3.8,0,0,0-.89.61c-.22.27.65.35.7.37a6.113,6.113,0,0,1,1.17.37,6.27,6.27,0,0,1,2,1.34.37.37,0,0,1,.14.23.38.38,0,0,1-.13.22,3.38,3.38,0,0,1-2.94.77,9.189,9.189,0,0,1-2.88-1.23,1.27,1.27,0,0,0-1.29.11,6.7,6.7,0,0,0-1.59,2.07l-4.09,6.29a11.74,11.74,0,0,1-3.65,4,10.08,10.08,0,0,1-4.31,1,60.434,60.434,0,0,1-10.33-.37,7.19,7.19,0,0,1-3-.77,2.57,2.57,0,0,1-1.33-2.64c.65-2.67,6.28-2.32,8.34-2.05,2.43.31,4.82.93,7.24,1.38a2.39,2.39,0,0,0,1.3,0A1.579,1.579,0,0,0,393.45,659.22Z" fill="#f2d3bd"/>
            <path id="패스_5605" data-name="패스 5605" d="M395,660.73a11.993,11.993,0,0,0,1.05-1.2l6.48-7.91a3.75,3.75,0,0,1,2.2-1.6,4.15,4.15,0,0,1,2.61.94,3.1,3.1,0,0,0,2.65.6s-.21.35-.4.43a2.57,2.57,0,0,1-1.17,0,9.239,9.239,0,0,1-2.89-1.23,1.25,1.25,0,0,0-1.28.11,6.41,6.41,0,0,0-1.59,2.07l-4.1,6.29a11.641,11.641,0,0,1-3.65,4,10,10,0,0,1-4.3,1,60.557,60.557,0,0,1-10.34-.37,7.219,7.219,0,0,1-3-.77c-.56-.34-1.3-.89-.84-1.51s1.4-.6,2-.61a47.88,47.88,0,0,1,11.27.95,7.091,7.091,0,0,0,3,.24,4.881,4.881,0,0,0,2.3-1.43Z" fill="#e2b698"/>
            <path id="패스_5606" data-name="패스 5606" d="M372.78,675.21c-1.46,5.09-4.41,4.85-7.71,11a17,17,0,0,0-2.31,10c.22,1.75.82,3.45,1.09,5.2a6.82,6.82,0,0,1-.88,5.1,21,21,0,0,0,10.14.11c3.22-.77,6.22-2.31,9.42-3.2s6.82-1.12,9.65.62c.06-3-1.54-5.88-3.45-8.23s-4.23-4.4-6-6.86c-2.57-3.53-2.9-7.27-2.26-11.47a14,14,0,0,1,1.76-5.4c.77-1.25,1.87-2.31,2.65-3.53.39-.61,2.22-3-.82-7.23-.77-1.12-2.49-3.94-5.12-4.63a5.89,5.89,0,0,0-3,.27C370.45,658.92,375.16,666.91,372.78,675.21Z" fill="#00508c"/>
            <path id="패스_5607" data-name="패스 5607" d="M376.87,677.69a25.9,25.9,0,0,0-3.43,7.23,16,16,0,0,0,.82,9.39,27.51,27.51,0,0,0,5.1,8,4,4,0,0,0,1.5,1.22,3.861,3.861,0,0,0,2.27-.27,17.8,17.8,0,0,1,3.08-.49,10.18,10.18,0,0,1,6,1.28c.05-3-1.55-5.88-3.46-8.24s-4.22-4.39-6-6.85c-2.57-3.54-2.9-7.28-2.26-11.47a14.121,14.121,0,0,1,1.75-5.4c.78-1.25,1.87-2.32,2.66-3.53.38-.61,2.22-3-.83-7.23-.77-1.12-2.48-3.94-5.12-4.63a5.11,5.11,0,0,0-4.4,1c-2,1.72-.91,5,.2,4.75,6.12-1.38,6.32,4,5.82,7S378.45,675.07,376.87,677.69Z" fill="#00426b"/>
            <path id="패스_5608" data-name="패스 5608" d="M375.58,657.67a1,1,0,0,0,.23,1,2.58,2.58,0,0,0,1.67.77c.9.07,2.15-.57,1.87-1.63-.1-.37-.33-.69-.46-1.06a2,2,0,0,1,.23-1.74c.66-1,2.27-.68,2.72-1.78.32-.77-.62-1.7-.18-2.32.14-.2.35-.39.37-.64a1,1,0,0,0-.13-.49c-.49-1.06-.93-2.18-1.5-3.2a3.77,3.77,0,0,0-2-1.54c-1.47-.52-3.69-.19-4.53,1.27-.78,1.26-.28,3,0,4.34a4,4,0,0,0,.77,2.32c.48.49,1.33.59,1.64,1.26a3.79,3.79,0,0,1-.39,2.72,4.413,4.413,0,0,0-.31.72Z" fill="#f2d3bd"/>
            <path id="패스_5609" data-name="패스 5609" d="M375.58,657.67a1,1,0,0,0,.23,1,2.58,2.58,0,0,0,1.67.77c.9.07,2.15-.57,1.87-1.63-.1-.37-.33-.69-.46-1.06a2,2,0,0,1,.23-1.74c.66-1,2.27-.68,2.72-1.78.32-.77-.62-1.7-.18-2.32.14-.2.35-.39.37-.64a1,1,0,0,0-.13-.49,19.355,19.355,0,0,0-1.59-3.35c-.77-1-1.26.4-.73,1.09.25.32.57.69.48,1.08s-.47.66-.35,1c.07.18.26.27.42.4a2.13,2.13,0,0,1,.54,1.72,5.42,5.42,0,0,1-.28,1.74,2.33,2.33,0,0,1-1.12,1.31,2.25,2.25,0,0,1-2.72-1,1.671,1.671,0,0,0-.36-.39.49.49,0,0,0-.49-.07.45.45,0,0,0-.05.3,1.43,1.43,0,0,1,.64.67,3.46,3.46,0,0,1-.39,2.72,3.761,3.761,0,0,0-.32.67Z" fill="#e2b698"/>
            <path id="패스_5610" data-name="패스 5610" d="M379.24,643.79l-.21-.08a18.994,18.994,0,0,1-1.63-1,5.63,5.63,0,0,0-4-.57c-1.1.25-2.69.84-3.15,2-.3.77-.14,1.68-.55,2.38a4.12,4.12,0,0,1-2.32,1.32A9.56,9.56,0,0,0,362.5,651a5.76,5.76,0,0,0-.89,5.58c.52,1.24,1.6,2.38,1.42,3.72a5.6,5.6,0,0,1-1.54,2.51c-1.1,1.45-1.88,3.63-.81,5.11,3,4.15,8.59,2.6,9.6,2.09,3.92-2,6.94-3.93,3.66-10.8a2.2,2.2,0,0,1,.29-2.39c1.49-1.54,3-3.15,1.65-5.45a1.15,1.15,0,0,1,.31-1.59,1.13,1.13,0,0,1,.64-.2c.69,0,.57.49,1,.86a.65.65,0,0,0,.77.06c.36-.34.21-1,.12-1.37a1.48,1.48,0,0,1,.42-1.44c.78-.77,2.87-1.82,1.46-3.23A4,4,0,0,0,379.24,643.79Z" fill="#052a6e"/>
            <path id="패스_5611" data-name="패스 5611" d="M379.24,643.79a2.09,2.09,0,0,0-1.95.42,3.85,3.85,0,0,0-.85,1.87,5,5,0,0,1-.77,1.93c-1.26,1.64-4.24,1.24-5.22,3.08-.64,1.2,0,2.66.63,3.86s1.36,2.57.86,3.86c-.68,1.7-3.18,2.12-3.78,3.85-.51,1.55.66,3.36-.25,4.63a2.57,2.57,0,0,1-2.31.88,8.6,8.6,0,0,1-2.56-.44c-3.2-1.22-1,1.93,1,2.64a6.578,6.578,0,0,0,2.32.39,8.489,8.489,0,0,0,3.85-.71c3.92-2,6.95-3.92,3.67-10.79a2.21,2.21,0,0,1,.28-2.4c1.5-1.54,3-3.15,1.66-5.44a1.15,1.15,0,0,1,.95-1.8c.69,0,.56.5,1,.87a.63.63,0,0,0,.77,0c.37-.33.21-1,.13-1.37a1.46,1.46,0,0,1,.42-1.44c.77-.77,2.86-1.82,1.46-3.22A2.78,2.78,0,0,0,379.24,643.79Z" fill="#001c49"/>
            <path id="패스_5612" data-name="패스 5612" d="M355.56,739c-.07-.17-1,.4-1.16.64a.56.56,0,0,0-.12.45.65.65,0,0,0,.13.23c.56.77,1.14,1.47,1.62,2.22s.87,1.69,1.32,2.49a4.25,4.25,0,0,0,1.47,1.62c.43.24,1.38.59,1.8-.1a29.087,29.087,0,0,1-1.11-2.8c0-.16,0-.4-.2-.47a.58.58,0,0,0-.32,0,2.107,2.107,0,0,0-.59.27,1,1,0,0,1-.42.23.51.51,0,0,1-.44-.21,1.349,1.349,0,0,1-.22-.47,28.37,28.37,0,0,0-1.62-3.86C355.66,739.09,355.59,739,355.56,739Z" fill="#052a6e"/>
            <path id="패스_5613" data-name="패스 5613" d="M384.91,744.12h-.16c-.19,0-.18.23-.23.37a2.6,2.6,0,0,0-.11.62.59.59,0,0,0,.15.42.571.571,0,0,0,.22.11c.82.32,1.66.62,2.45,1s1.67,1,2.52,1.44a5.12,5.12,0,0,0,2.32.68c.54,0,1.61-.12,1.58-1-.87-.69-1.86-1.13-2.7-1.91-.1-.1-.22-.3-.37-.25a.55.55,0,0,0-.2.17l-.44.55a.78.78,0,0,1-.44.34.7.7,0,0,1-.47-.1c-1.39-.64-2.56-1.66-3.91-2.39a.777.777,0,0,0-.21-.05Z" fill="#052a6e"/>
            <path id="패스_5614" data-name="패스 5614" d="M417.06,651.81l12.88-2.72a.64.64,0,0,0,.51-.66V636.91l-14.2.88Z" fill="url(#linear-gradient-4)"/>
            <path id="패스_5615" data-name="패스 5615" d="M405.42,613.77a9,9,0,0,1-1.92-5.4,6.33,6.33,0,0,1,.81-3.21.5.5,0,0,0-.28-.65h-.08L392.2,602a.73.73,0,0,0-.36,0h0L379,604.69l19.18,20.06,9.15-5.22Z" fill="url(#linear-gradient-5)"/>
            <path id="패스_5616" data-name="패스 5616" d="M404.81,610.22l12.89-2.72h.16l11.75,2.5a1.08,1.08,0,0,1,.84,1v11.49a.7.7,0,0,0,.72.69h.09a6.75,6.75,0,0,1,3.34,0,9.72,9.72,0,0,1,7.24,9,5.7,5.7,0,0,1-4.52,5.81l-12.74,2.69Z" fill="url(#linear-gradient-6)"/>
            <path id="패스_5617" data-name="패스 5617" d="M421.71,625.93a6.71,6.71,0,0,0-3.33,0,.73.73,0,0,1-.82-.61V613.77a1.1,1.1,0,0,0-.83-1L405,610.25a.34.34,0,0,0-.37.51,8.64,8.64,0,0,1,.82,3.74c-.09,4-3.44,6.54-7.46,5.65a9.66,9.66,0,0,1-7.36-9,6.34,6.34,0,0,1,.82-3.21.5.5,0,0,0-.27-.65h-.1l-11.75-2.52a.65.65,0,0,0-.8.46.69.69,0,0,0,0,.2v22.51c0,8.69,7,17.24,15.74,19.1l22.51,4.8a.66.66,0,0,0,.8-.45.69.69,0,0,0,0-.2V639.7a.49.49,0,0,1,.47-.49.48.48,0,0,1,.34.14,8.72,8.72,0,0,0,3.18,1.39c4.07.87,7.38-1.72,7.4-5.78a9.71,9.71,0,0,0-7.26-9.03Z" fill="#1435ad"/>
            <path id="패스_5618" data-name="패스 5618" d="M395.54,652a6.24,6.24,0,0,0,.09-.77,52.59,52.59,0,0,1,2.17-10.39,20.28,20.28,0,0,1,2.05-4.73,15.1,15.1,0,0,1,1.54-2.1c.56-.62,1.43-1.1,1.65-1.93a.57.57,0,0,1,.13-.27.3.3,0,0,1,.36,0,.64.64,0,0,1,.18.33,1.58,1.58,0,0,1-.24,1.06,4.552,4.552,0,0,0-.5,1.07c-.06.37.77,0,.87,0a6.91,6.91,0,0,1,3.85-.11.41.41,0,0,1,.26.15.42.42,0,0,1,0,.27,3.68,3.68,0,0,1-2.37,2.31,9.73,9.73,0,0,1-3.39.43,1.39,1.39,0,0,0-1.15.81,6.91,6.91,0,0,0-.37,2.83c-.13,2.73-.26,5.45-.4,8.18a12.27,12.27,0,0,1-1.23,5.79,10.86,10.86,0,0,1-3.5,3.31,67,67,0,0,1-10,5.34,7.911,7.911,0,0,1-3.3.91,2.84,2.84,0,0,1-2.69-1.77c-.86-2.87,4.63-5.64,6.73-6.52,2.47-1,5.06-1.77,7.59-2.67a2.609,2.609,0,0,0,1.23-.72,1.76,1.76,0,0,0,.44-.81Z" fill="#e2b698"/>
            <path id="패스_5619" data-name="패스 5619" d="M395.54,652a6.24,6.24,0,0,0,.09-.77,52.59,52.59,0,0,1,2.17-10.39,20.28,20.28,0,0,1,2.05-4.73,15.1,15.1,0,0,1,1.54-2.1c.56-.62,1.43-1.1,1.65-1.93a.57.57,0,0,1,.13-.27.3.3,0,0,1,.36,0,.64.64,0,0,1,.18.33,1.58,1.58,0,0,1-.24,1.06,4.552,4.552,0,0,0-.5,1.07c-.06.37.77,0,.87,0a6.379,6.379,0,0,1,1.31-.29,8.636,8.636,0,0,1,1.76,0,2.572,2.572,0,0,1,.67.09s.28.29.15.3c-2.6.21-5.48.58-7.15,2.58a9.44,9.44,0,0,0-1.65,4.07,85.554,85.554,0,0,0-1.54,9.26,7.19,7.19,0,0,1-1,3.48,6.35,6.35,0,0,1-3.3,2,53.874,53.874,0,0,0-5.68,2,10.811,10.811,0,0,0-4.72,3.62,7.92,7.92,0,0,1-1,1.41c-.43.39-1.26,1-1.66.6-.86-.9-.83-2.57,1.66-4.63a19.469,19.469,0,0,1,4.69-2.52c2.48-1,5.06-1.77,7.59-2.67a2.639,2.639,0,0,0,1.24-.72,1.84,1.84,0,0,0,.33-.85Z" fill="#f2d3bd"/>
            <path id="패스_5620" data-name="패스 5620" d="M361.21,586.36c.05-.23.07-.47.1-.7a49.568,49.568,0,0,1,2.44-9.68,18,18,0,0,1,2.09-4.36,14.143,14.143,0,0,1,1.54-1.91c.54-.56,1.39-1,1.62-1.75a.45.45,0,0,1,.14-.24.26.26,0,0,1,.33,0,.46.46,0,0,1,.15.31,1.42,1.42,0,0,1-.26,1,4.321,4.321,0,0,0-.5,1c-.08.35.77,0,.77,0a6.458,6.458,0,0,1,1.23-.21,6.259,6.259,0,0,1,2.43.27.33.33,0,0,1,.23.14.36.36,0,0,1,0,.25,3.45,3.45,0,0,1-2.32,2.08,9.279,9.279,0,0,1-3.19.28,1.31,1.31,0,0,0-1.12.72,6.37,6.37,0,0,0-.44,2.63,36,36,0,0,0-.38,4q0,2.69-.12,5.4c-.13,1.89.09,4.27-1.25,5.74a9.069,9.069,0,0,1-2.78,1.87c-1.83.87-9.64,3.41-11.61,3.91-2.38.59-3.3.08-4.15-2.15a4,4,0,0,1-.13-3c.65-1.46,2.46-1.93,4-2.23a88.088,88.088,0,0,0,9.59-2,2.629,2.629,0,0,0,1.19-.62,1.889,1.889,0,0,0,.4-.75Z" fill="#f2d3bd"/>
            <path id="패스_5621" data-name="패스 5621" d="M364.19,586.5v-1.11a48,48,0,0,1,1.17-9.64c.28-1.21.71-2.55,1.82-3.09a8.752,8.752,0,0,1,2.87-.41A6.71,6.71,0,0,0,373.2,571a3.25,3.25,0,0,1-2,1.55,9.269,9.269,0,0,1-3.19.27,1.33,1.33,0,0,0-1.12.72,6.39,6.39,0,0,0-.44,2.63,36.009,36.009,0,0,0-.38,4q0,2.68-.12,5.4c-.13,1.89.09,4.27-1.25,5.75a9.321,9.321,0,0,1-2.78,1.81c-1.09.52-6.32,2.31-7.8,2.8-1.81.55-3.09,0-2.7-1.14.26-.85,1.17-.91,2-1.12l2.87-.77c.7-.2,5.69-1.55,6.86-3a5.621,5.621,0,0,0,1.04-3.4Z" fill="#e2b698"/>
            <path id="패스_5622" data-name="패스 5622" d="M342.07,684.89a20.842,20.842,0,0,0,4.19,2.39.61.61,0,0,0,.42,0,.47.47,0,0,0,.21-.48,1.6,1.6,0,0,0-.22-.52,15,15,0,0,1-1.54-3.32,13.7,13.7,0,0,1,0-3.73,2.62,2.62,0,0,0-.17-1.44,1.06,1.06,0,0,0-1.44-.38.83.83,0,0,0-.15.11,1.42,1.42,0,0,0-.35.94,7.111,7.111,0,0,0,.05,1,8.9,8.9,0,0,1-.2,2C342.6,683.55,340.48,684,342.07,684.89Z" fill="#f7a42b"/>
            <path id="패스_5623" data-name="패스 5623" d="M344.18,684.41c.12.52.26,1,.41,1.54s.16.65.64.88a6.279,6.279,0,0,0,1,.42.51.51,0,0,0,.42,0,.47.47,0,0,0,.21-.48,1.639,1.639,0,0,0-.22-.51,15.2,15.2,0,0,1-1.55-3.32,7.54,7.54,0,0,1-.07-2.37c0-.37.36-1.79-.45-1.48a1,1,0,0,0-.43.42,5.27,5.27,0,0,0-.28,3.66C344,683.62,344.08,684,344.18,684.41Z" fill="#ce7c0f"/>
            <path id="패스_5624" data-name="패스 5624" d="M341.87,683.26a4.16,4.16,0,0,0-1.63,1.91.62.62,0,0,0,.08.48.892.892,0,0,0,.22.16c.84.49,1.72.93,2.53,1.48s1.65,1.34,2.5,2a5.379,5.379,0,0,0,2.39,1.09c.58.1,1.76.12,1.87-.77-.83-.88-1.83-1.54-2.61-2.5a13.579,13.579,0,0,1-1.28-2.66c-1,.29-2.57-.38-3.44-.85A1.619,1.619,0,0,0,341.87,683.26Z" fill="#06799f"/>
            <path id="패스_5625" data-name="패스 5625" d="M340.37,685.2c-.14,0-.25.23,0,.47a5.3,5.3,0,0,0,.94.56c.61.34,1.21.67,1.78,1.06.87.6,1.66,1.34,2.51,2a5.4,5.4,0,0,0,2.38,1.09c.59.1,1.77.12,1.87-.77-.82-.88-1.82-1.54-2.6-2.5a12.532,12.532,0,0,1-1.28-2.66,2.8,2.8,0,0,1-1.38,0,.32.32,0,0,0-.36.19c-.12.26.18.52.31.77a1,1,0,0,1-.41,1.19,1.71,1.71,0,0,1-1.33.06A7.64,7.64,0,0,1,340.37,685.2Z" fill="#005e77"/>
            <path id="패스_5626" data-name="패스 5626" d="M304.08,682.05a20.111,20.111,0,0,0,2.48,4.33.58.58,0,0,0,.37.24.48.48,0,0,0,.43-.32,1.38,1.38,0,0,0,.07-.57,16.23,16.23,0,0,1,.4-3.74,13.79,13.79,0,0,1,2-3.33,2.67,2.67,0,0,0,.57-1.4,1.08,1.08,0,0,0-1.09-1.08h-.19a1.58,1.58,0,0,0-.77.65,7.232,7.232,0,0,0-.49,1,10.431,10.431,0,0,1-1.22,1.66C305.26,681.14,303.18,680.37,304.08,682.05Z" fill="#f7a42b"/>
            <path id="패스_5627" data-name="패스 5627" d="M306.24,682.73c-.17.53-.33,1.06-.47,1.6s-.18.67.11,1.13a7.777,7.777,0,0,0,.71.92.58.58,0,0,0,.37.24.48.48,0,0,0,.43-.32,1.38,1.38,0,0,0,.07-.57,16.23,16.23,0,0,1,.4-3.74,7.86,7.86,0,0,1,1.17-2.17c.21-.31,1.26-1.41.37-1.54a1,1,0,0,0-.6.14,5.46,5.46,0,0,0-2.16,3.13C306.49,681.93,306.39,682.33,306.24,682.73Z" fill="#ce7c0f"/>
            <path id="패스_5628" data-name="패스 5628" d="M304.76,680.49a4.24,4.24,0,0,0-2.44.85.66.66,0,0,0-.19.48.85.85,0,0,0,.11.26c.5.87,1.06,1.73,1.48,2.64s.77,2,1.21,3.08a5.69,5.69,0,0,0,1.55,2.23c.47.39,1.54,1,2.08.26-.27-1.22-.83-2.31-1-3.58a14.12,14.12,0,0,1,.24-3.05c-1-.27-2.09-1.69-2.62-2.56a1.69,1.69,0,0,0-.42-.61Z" fill="#06799f"/>
            <path id="패스_5629" data-name="패스 5629" d="M302.43,681.45c-.13-.09-.35.07-.29.4a5.362,5.362,0,0,0,.56,1,21.239,21.239,0,0,1,1,1.88c.47,1,.77,2,1.21,3.08a5.69,5.69,0,0,0,1.55,2.23c.47.39,1.54,1,2.08.26-.27-1.22-.83-2.31-1-3.58a14.121,14.121,0,0,1,.24-3.05,2.92,2.92,0,0,1-1.21-.77.32.32,0,0,0-.41,0c-.25.17-.12.55-.13.85a1,1,0,0,1-1,.85,1.77,1.77,0,0,1-1.23-.65,7.629,7.629,0,0,1-1.37-2.5Z" fill="#005e77"/>
            <path id="패스_5630" data-name="패스 5630" d="M330.56,639.92c2.52,3.86,7,7.44,10,10.57a5,5,0,0,1,1.58,2.39c.21,1.2-.77,2.15-1.5,3.08a14.25,14.25,0,0,0-2.82,10.32c.17,2.16,3.08,12.26,3.17,13.58a.65.65,0,0,0,.75.76c1.34.09,1.54.14,2.86.23a1.19,1.19,0,0,0,.84-.14,1.27,1.27,0,0,0,.34-1c.05-1,1.21-8,1.45-9.34,1.23-6.74,3.86-13.55,3-21-.67-6-3.64-12.22-6.83-18.46-1.46-2.84-3.12-5.89-6.06-7.9-4-2.71-8.93-1.67-9.86,1.86-1.12,4.21,0,8.84,2,13.16a13.528,13.528,0,0,0,1.08,1.89Z" fill="#00508c"/>
            <path id="패스_5631" data-name="패스 5631" d="M336.09,637.82c.14.36.29.72.45,1.07,1.84,4,4.94,7.2,7.85,10.46.9,1,1.85,2.17,1.82,3.53s-.95,2.41-1.63,3.54c-2.12,3.51-2,7.9-1.55,12s1.36,8.21.53,12.23c.52.12,1.36.44,1.86.07a1.29,1.29,0,0,0,.34-1c.05-1,1.21-8,1.46-9.34,1.22-6.73,3.85-13.54,3-21-.67-6-3.64-12.22-6.83-18.46-.77-1.55-2.81-6.76-5.19-5.79a3.289,3.289,0,0,0-1.36,1.23C334.59,629.61,334.67,634.05,336.09,637.82Z" fill="#00426b"/>
            <path id="패스_5632" data-name="패스 5632" d="M324.71,635c.06.56.14,1.13.23,1.68.59,3.76,2.91,10,1.09,13.65-.58,1.19-2.17,1.75-3.53,2.32a22.21,22.21,0,0,0-9.85,8.82c-1.32,2.11-7.1,15.14-7.08,15.43s.44.72.81.95c.92.55,1.62.86,2.55,1.42a.77.77,0,0,0,1.09,0,1.089,1.089,0,0,0,.13-.17c.84-1,4.62-5,5.57-6,1.23-1.26,2.52-2.53,3.64-3.89,5.94-6.27,13.27-12,17.23-19.35,3.09-5.81,3.86-12.26,4.45-18.59.24-2.79.4-5.79-1.29-8.19-3.62-5.19-11.57-2.25-13.88,2.6a16.72,16.72,0,0,0-1.16,9.32Z" fill="#1a629a"/>
            <path id="패스_5633" data-name="패스 5633" d="M331.07,634.52c.16,2.44.65,4.84.9,7.27a16.17,16.17,0,0,1-.81,8c-1.54,3.68-5,6.1-8.08,8.66a58.7,58.7,0,0,0-9.46,10,60.679,60.679,0,0,0-3.74,5.65c-.59,1-1.14,2-1.67,3.08-.65,1.3-.51,1.37.7,2.09a.76.76,0,0,0,1.09,0,.591.591,0,0,0,.13-.18c.84-1,4.63-5,5.57-6,1.23-1.27,2.52-2.53,3.65-3.9,5.94-6.27,13.26-12,17.23-19.35,3.08-5.81,3.86-12.25,4.44-18.59.17-2,.73-6.87-1.31-8.25s-5.7,1.45-6.78,3a12.94,12.94,0,0,0-1.9,7.76,5.288,5.288,0,0,1,.04.76Z" fill="#04528c"/>
            <path id="패스_5634" data-name="패스 5634" d="M324.9,628.78c2.43,2,7.32,1.47,10.47,1a9.72,9.72,0,0,0,6.05-3,14.509,14.509,0,0,0,2.46-5.31c1.42-4.63-.88-20.6,6.26-23.5.72-.29,3.51-1.47,4.16-1.88s-.2-5.35-1.27-6.81c-.35-.49-4.81.68-8,.55-3.93-.17-9.8-2.73-12.58,2-3.29,5.61-.73,13-7.58,33.34C324.34,626.68,324,628,324.9,628.78Z" fill="#3aaacf"/>
            <path id="패스_5635" data-name="패스 5635" d="M332.57,628.58a1.5,1.5,0,0,0,0,.3c.24,1.63,1.6,1.07,2.78.9a9.74,9.74,0,0,0,6-3,14.671,14.671,0,0,0,2.46-5.31c1.42-4.63-.89-20.6,6.26-23.5.71-.29,3.5-1.47,4.15-1.88.3-.2.24-1.18.1-1.44A1.55,1.55,0,0,0,353,594a7.5,7.5,0,0,0-1.69.37c-1.94.48-5,1.45-5.88-.34a6.74,6.74,0,0,0-4.84-3.74c-1.25-.37-1.42.34-1.15,1.1a10.723,10.723,0,0,0,1.28,2.06c1.27,2,1,4.63.58,6.94-1.79,9.22-6.35,17.69-8.57,26.81A4.59,4.59,0,0,0,332.57,628.58Z" fill="#2091af"/>
            <path id="패스_5636" data-name="패스 5636" d="M336.4,589.64a1,1,0,0,0,.21,1,2.68,2.68,0,0,0,1.71.91c.93.1,2.26-.51,2-1.63-.08-.39-.32-.73-.43-1.12a2.16,2.16,0,0,1,.31-1.8c.82-1.24,3-.88,3.29-1.86s-1.3-2-.88-2.76c.23-.41,1.84-.41.49-1.85s-1.38-3.59-3.27-4.07c-1.59-.4-3.81-.27-4.79,1.26-1.6,2.53.71,5.56,1.82,7.76a3.11,3.11,0,0,1-.09,3.4,5.679,5.679,0,0,0-.37.76Z" fill="#f2d3bd"/>
            <path id="패스_5637" data-name="패스 5637" d="M336.4,589.64a1,1,0,0,0,.21,1,2.68,2.68,0,0,0,1.71.91c.93.1,2.26-.51,2-1.63-.08-.39-.32-.73-.43-1.12a2.16,2.16,0,0,1,.31-1.8c.82-1.24,3-.88,3.29-1.86s-1.3-2-.88-2.76c.23-.41,1.84-.41.49-1.85a15.509,15.509,0,0,1-1.58-2.7,3.3,3.3,0,0,0-1-1.08c-.33-.2-1.26-.63-1.27.11a1.19,1.19,0,0,0,.3.64l1.1,1.6a1.18,1.18,0,0,1,.28.62c0,.42-.38.77-.41,1.19s.48.9.85,1.3a2.68,2.68,0,0,1-1,4.32,4,4,0,0,1-3-.31s-.05,1.12-.07,1.22a4,4,0,0,1-.52,1.43,5.347,5.347,0,0,0-.38.77Z" fill="#e2b698"/>
            <path id="패스_5638" data-name="패스 5638" d="M336.33,573.14a2.31,2.31,0,0,1-1.05.77c-.68.18-1.45-.25-2.07.08s-.67,1-.77,1.6c-.26,1.6-2,1.4-2.32,2.76s1.27,1.44,1.5,2.42a4.791,4.791,0,0,1,0,1.31,1.74,1.74,0,0,0,.31,1.25c.7.77,2.17.18,3,.84.3.25.5.66.87.77,1.89.71.29-2.43.25-2.78a1.22,1.22,0,0,1,.63-1.22c.65-.25.87.29,1.27.65,1.16,1,1.43-.58,1.16-1.62a2.86,2.86,0,0,1-.14-1.45,2.31,2.31,0,0,1,1.32-1.33,6.089,6.089,0,0,0,1.66-1,1.35,1.35,0,0,0,.22-1.74c-.46-.53-1.31-.38-2-.64-1-.39-1.54-1.71-2.59-1.59a2.23,2.23,0,0,0-1.25.92Z" fill="#024e68"/>
            <path id="패스_5639" data-name="패스 5639" d="M337,573.12a2.182,2.182,0,0,0,.08.57,2.27,2.27,0,0,1,.18,1.45,1.55,1.55,0,0,1-.93.77,9.925,9.925,0,0,0-1.2.4,2.17,2.17,0,0,0-1.13,2.38c.15.63.57,1.29.28,1.86a1.45,1.45,0,0,1-1,.62,3.77,3.77,0,0,0-1.14.35,1.26,1.26,0,0,0-.25,1.75v.05c.7.77,2.16.18,3,.84.3.25.5.66.87.77,1.89.71.29-2.43.25-2.77a1.24,1.24,0,0,1,.63-1.23c.64-.25.87.29,1.27.66,1.16,1,1.43-.59,1.16-1.62a2.77,2.77,0,0,1-.14-1.45,2.3,2.3,0,0,1,1.32-1.34,5.89,5.89,0,0,0,1.65-1,1.33,1.33,0,0,0,.23-1.74c-.46-.52-1.31-.38-2-.64-1-.39-1.54-1.7-2.59-1.59A.8.8,0,0,0,337,573.12Z" fill="#003847"/>
            <path id="패스_5640" data-name="패스 5640" d="M397.4,585.9a8.19,8.19,0,0,1,.71,3.48,5.68,5.68,0,0,1-4.49,5.66l-12.78,2.7c2.55-.58,2.94-10.66,3.36-10.57Z" fill="url(#linear-gradient-7)"/>
            <path id="패스_5641" data-name="패스 5641" d="M409.74,587.64a.63.63,0,0,0,.49-.65V575.28a.53.53,0,0,0-.53-.5h-.06a6.68,6.68,0,0,1-3.55.06,9.68,9.68,0,0,1-7.21-9,6.619,6.619,0,0,1,.5-2.52l-2,.77c0,.31-2.75-1.29-4-1.54a6.16,6.16,0,0,0-7.46,4.52,6.26,6.26,0,0,0-.18,1.49,10.2,10.2,0,0,0,7.34,9.26c1.28.3,4.07,12.46,3.78,12.53Z" fill="url(#linear-gradient-8)"/>
            <path id="패스_5642" data-name="패스 5642" d="M368.09,546.55l13-2.74a14.69,14.69,0,0,1,5.87.11l22.42,4.79a1.08,1.08,0,0,1,.84,1v11.7a.33.33,0,0,1-.25.33l-12.83,2.71c.13,0-.14-12.55-.59-12.65L375,547.23Z" fill="url(#linear-gradient-9)"/>
            <path id="패스_5643" data-name="패스 5643" d="M393.39,562.87a8.769,8.769,0,0,1,3.37,1.54c.27.19.59.06.59-.25V552.42a1.08,1.08,0,0,0-.83-1l-22.42-4.75c-8.67-1.84-15.69,3.68-15.69,12.34v22.37a1.09,1.09,0,0,0,.84,1l11.44,2.44a.7.7,0,0,1,.54.83.24.24,0,0,1,0,.08,6.48,6.48,0,0,0-.71,3,9.65,9.65,0,0,0,7.34,9c4,.87,7.34-1.65,7.42-5.63a8.16,8.16,0,0,0-.71-3.48.49.49,0,0,1,.18-.66.6.6,0,0,1,.35-.05l11.44,2.45a.65.65,0,0,0,.81-.45,1.229,1.229,0,0,0,0-.2V578a.5.5,0,0,0-.5-.5h-.09a6.75,6.75,0,0,1-3.54,0,9.66,9.66,0,0,1-7.22-9C386,564.59,389.32,562,393.39,562.87Z" fill="#ffb640"/>
            <path id="패스_5644" data-name="패스 5644" d="M359,600.74a6.885,6.885,0,0,0,.73-.46c3.36-2.23,8.59-3.73,12.39-5.35a26.178,26.178,0,0,1,5.81-1.77,20,20,0,0,1,3.09-.32,7.679,7.679,0,0,0,3-.12.79.79,0,0,1,.34-.1.31.31,0,0,1,.27.27.56.56,0,0,1-.15.37,2.08,2.08,0,0,1-1.12.55,6.437,6.437,0,0,0-1.35.37c-.37.22.68.58.74.6a9.443,9.443,0,0,1,1.3.77,7.139,7.139,0,0,1,1.93,2,.38.38,0,0,1,.07.29.5.5,0,0,1-.24.19,5.13,5.13,0,0,1-3.94-.14c-1.29-.54-2.32-2.18-3.61-2.5s-3.22,1.15-4.14,1.75c-4.18,2.72-8.28,6.66-12.53,9.31a9.66,9.66,0,0,1-3.89,1.54,13.391,13.391,0,0,1-4.92-.59c-2.65-.64-12.45-4.35-13.5-5.13a3.73,3.73,0,0,1-.75-5.22c.09-.12.18-.23.28-.34,2.83-3,7.44-.69,10.54.47,2.92,1.08,4.17,2.26,7,3.48a3.71,3.71,0,0,0,1.63.41A2.67,2.67,0,0,0,359,600.74Z" fill="#e2b698"/>
            <path id="패스_5645" data-name="패스 5645" d="M359,600.74a6.885,6.885,0,0,0,.73-.46c3.36-2.23,8.59-3.73,12.39-5.35a26.178,26.178,0,0,1,5.81-1.77,20,20,0,0,1,3.09-.32,7.679,7.679,0,0,0,3-.12.79.79,0,0,1,.34-.1.31.31,0,0,1,.27.27.56.56,0,0,1-.15.37,2.08,2.08,0,0,1-1.12.55,6.437,6.437,0,0,0-1.35.37c-.37.22.68.58.74.6a9.443,9.443,0,0,1,1.3.77,5.329,5.329,0,0,1,1.88,2c-2.7-1.8-5.59-3.68-9-3.19a13.891,13.891,0,0,0-3.94,1.38,134.237,134.237,0,0,0-11.89,6.36,10.22,10.22,0,0,1-3.57,1.58c-2.06.32-4.11-.7-6.17-.93a5.27,5.27,0,0,1-3.5-1.38,2,2,0,0,1-.54-1.74,2.17,2.17,0,0,1,1.14-1.29,3.54,3.54,0,0,1,3.71.16c1.38.77,2.72,1.54,4.16,2.17a3.679,3.679,0,0,0,1.63.41,2.781,2.781,0,0,0,1.04-.34Z" fill="#f2d3bd"/>
            <path id="패스_5646" data-name="패스 5646" d="M352.09,598.29c0,2.25-1.7,7.29-3,7.81-.5.2-1.1-.2-1.59-.37q-1.83-.68-3.63-1.38a19.373,19.373,0,0,1-4.7-2.07,3.8,3.8,0,0,1-.78-5.31l.3-.35c2.89-3,7.58-.7,10.75.48a13.349,13.349,0,0,1,2.65,1.19Z" fill="#3aaacf"/>
            <path id="패스_5647" data-name="패스 5647" d="M351,602.68c.28,0-1.08,3.09-1.89,3.42-.5.2-1.1-.2-1.59-.37q-1.83-.68-3.63-1.38c-.94-.37-5.53-1.39-4.85-3.08C339.56,600,350.67,602.65,351,602.68Z" fill="#2091af"/>
            <path id="패스_5648" data-name="패스 5648" d="M510.85,594.87a5.184,5.184,0,0,1-.26-.65c-.77-2.18-5.95-9.53-5.45-10.88a2.36,2.36,0,0,1,2.31-1.64c.12-.28-.18-.6-.49-.64a2.59,2.59,0,0,0-.92.17.86.86,0,0,1-.87-.16,1.17,1.17,0,0,1-.12-.91,7.9,7.9,0,0,0-.1-2.06c-.1-.62-.07-1.2-.69-1.2-.47,0-1.34.94-1.54,1.35a4.93,4.93,0,0,0-.47,3.33c.2,1.65,1.28,1.9,1.79,3.45.77,2.39,1.18,6.05,1.95,8.43a11.22,11.22,0,0,0,2.46,4.83,10,10,0,0,0,3.85,2.1,61.717,61.717,0,0,0,10,2.38,7.32,7.32,0,0,0,3.09,0,2.55,2.55,0,0,0,2-2.19c.08-2.74-5.39-3.89-7.47-4.18-2.44-.34-4.88-.38-7.33-.58a2.43,2.43,0,0,1-1.26-.34A1.7,1.7,0,0,1,510.85,594.87Z" fill="#f2d3bd"/>
            <path id="패스_5649" data-name="패스 5649" d="M510.71,594.87a2.07,2.07,0,0,0-.12-.65c-.77-2.18-5.95-9.53-5.45-10.88a2.36,2.36,0,0,1,2.31-1.64c.12-.28-.18-.6-.49-.64a3.11,3.11,0,0,0-2,.77c-.84.77-.47,2-.2,2.94a15.093,15.093,0,0,0,1.11,2.58c1.28,2.49,2.57,5,3.86,7.46.16.32.46.7.77.57A.52.52,0,0,0,510.71,594.87Z" fill="#e2b698"/>
            <path id="패스_5650" data-name="패스 5650" d="M509.93,598.45c-.47-.12-.94-.26-1.41-.4-.17,1.12,3,2.07,3.76,2.31a61.475,61.475,0,0,0,10,2.38c1.32.21,3,.51,4-.61a1.16,1.16,0,0,0,.31-1c-.17-.64-1-.86-1.6-.94C520,599.5,514.82,599.7,509.93,598.45Z" fill="#e2b698"/>
            <path id="패스_5651" data-name="패스 5651" d="M519.38,598.86a3.38,3.38,0,0,1,.94-2.37c2.27.36,8.67-.32,8.6,2.26,0,1-2.47,3.76-3.47,4a7.32,7.32,0,0,1-3.09,0l-1.7-.3A4.4,4.4,0,0,1,519.38,598.86Z" fill="#04528c"/>
            <path id="패스_5652" data-name="패스 5652" d="M519.55,599.12h0a1.1,1.1,0,0,1,.67-.07,14.412,14.412,0,0,0,3.08,0c.34,0,.77-.16.83-.5s-.29-.64-.3-1a.69.69,0,0,1,.41-.6,2.5,2.5,0,0,1,1.62-.06,7.443,7.443,0,0,1,1.54.34c.72.24,1.46.71,1.42,1.54,0,1.05-2.46,3.75-3.47,4a7.271,7.271,0,0,1-3.08,0l-1.7-.29a3.37,3.37,0,0,1-1-1.66C519.48,600.44,519.13,599.39,519.55,599.12Z" fill="#00497f"/>
            <path id="패스_5653" data-name="패스 5653" d="M523.9,650.73a5.921,5.921,0,0,0-1.44,2.51c-.23,1.26.51,2.26,1.1,3.22,1.84,3.09,2.23,7,1.81,10.86-.15,1.28-.34,2.53-.57,3.79a32.154,32.154,0,0,1-1,3.48c-.75,2.57-1.51,5.14-2.26,7.71a7.309,7.309,0,0,0-.44,3,4.092,4.092,0,0,1,.1,1.48,2.56,2.56,0,0,1-1.28,1.33,8,8,0,0,1-3.77,1.54c-.26,0-.58,0-.66-.28s.11-.48.3-.66a11.351,11.351,0,0,0,2.61-3.08,6.68,6.68,0,0,0,.61-3.27c-1.25-22.36-4.22-24.87-3.14-32.71.88-6.37,3.67-12.87,6.65-19.43,1.36-3,2.91-6.17,5.46-8.31,3.45-2.85,7.52-1.77,8.11,2C536.8,628.23,537.18,634.66,523.9,650.73Z" fill="#e2b698"/>
            <path id="패스_5654" data-name="패스 5654" d="M519.75,649a9.125,9.125,0,0,0-.47,1.54c-.72,3.33.56,6.72,1.16,10.07a50.311,50.311,0,0,1,.3,11.18l-.44,9.55a11.341,11.341,0,0,1-.95,4.84,5.72,5.72,0,0,1-3.19,2.69c-.39-.66,1.91-2.66,2.24-3.34a6.639,6.639,0,0,0,.61-3.26c-1.25-22.37-4.22-24.87-3.14-32.72a48.91,48.91,0,0,1,2.85-10.49c.35-.91.71-1.82,1.09-2.73a9.182,9.182,0,0,1,.77-2c.82-1.11,3.26-1.54,4.54-1.54a4.06,4.06,0,0,1,3.86,2.72c.51,2-1,3.85-2.42,5.31C524,643.37,521.07,645.8,519.75,649Z" fill="#f2d3bd"/>
            <path id="패스_5655" data-name="패스 5655" d="M542.55,632.34c.91,4.17.28,9.34.35,13.49a5.2,5.2,0,0,0,.57,2.82c.73,1.09,2.11,1.3,3.33,1.61a19.1,19.1,0,0,1,9.76,6.87c3.09,3.86,5.4,8.63,7.54,13.12.7,1.47,1.26,3.24,2.63,4.19a3.528,3.528,0,0,1,.91.72,2.56,2.56,0,0,1,.38,1.43,6.221,6.221,0,0,1-.15,2.35,2.57,2.57,0,0,1-1.59,1.7.43.43,0,0,1-.41,0c-.14-.11-.11-.33-.07-.51a6.47,6.47,0,0,0-1.74-5.27c-1.26-1.4-24-19.05-26.58-22.66-3.75-5.28-9.05-12.19-10.88-18.59a20.72,20.72,0,0,1,0-10c1.06-3.79,5.13-5.4,8-3.45,3.5,2.37,5.82,6.17,7.37,10.24A11,11,0,0,1,542.55,632.34Z" fill="#e2b698"/>
            <path id="패스_5656" data-name="패스 5656" d="M535.84,635.91a31.752,31.752,0,0,1,3,8.07c.7,3.13,1,6.64,3.37,8.88a24.322,24.322,0,0,0,4.35,2.73c5.44,3.33,8.13,9.72,13,13.88,1.65,1.42,3.52,2.56,5.05,4.08a7.41,7.41,0,0,1,2.52,5.74,1.32,1.32,0,0,1-.61,1.14c-1.1.51-.63-1.9-.77-2.39a7.16,7.16,0,0,0-1.68-3.17c-1.26-1.41-24-19-26.58-22.66-3.75-5.29-9.05-12.19-10.89-18.59-.5-1.78-1.31-6.25,2.08-5.76a5.16,5.16,0,0,1,2.87,1.92,31.727,31.727,0,0,1,4.29,6.13Z" fill="#f2d3bd"/>
            <path id="패스_5657" data-name="패스 5657" d="M543.76,636.91a3.16,3.16,0,0,1-.65,2.09,3.25,3.25,0,0,1-2,.77,43.91,43.91,0,0,1-20.78-1.92,2.71,2.71,0,0,1-1.54-1,2.82,2.82,0,0,1,0-2.06A42.746,42.746,0,0,1,521.5,627a14.352,14.352,0,0,1,5.32-6.17c3-1.79,7.34-1.92,10.08.4a19.87,19.87,0,0,1,6.05,9.26A18.828,18.828,0,0,1,543.76,636.91Z" fill="#00497f"/>
            <path id="패스_5658" data-name="패스 5658" d="M536.3,638.45h0c.61,3-4.92,1.71-6.62,1.55a44.48,44.48,0,0,1-9.32-2.12,2.66,2.66,0,0,1-1.54-1,2.82,2.82,0,0,1,0-2.06A42.742,42.742,0,0,1,521.5,627a15.5,15.5,0,0,1,3.79-5c.82-.69,1.5-1.32,2.59-.88a3.85,3.85,0,0,1,2,2.31c.49,1.34.56,2.81,1.13,4.11.68,1.58,2,2.77,3,4.21a18.79,18.79,0,0,1,2.29,6.7Z" fill="#04528c"/>
            <path id="패스_5659" data-name="패스 5659" d="M519.72,687.19a8,8,0,0,0,.85-1.29c.16-.31.4-.67.73-.51a2,2,0,0,0,.12.47c.12.3.22.59.32.89.17.54.31,1.08.43,1.63a15.835,15.835,0,0,1,.21,1.58L521,689.9s-.26-1.15-.28-1.26,0-.29-.25-.3a1.622,1.622,0,0,0-.43.12,2.44,2.44,0,0,0-1.29,1.14.92.92,0,0,1-.24.35.651.651,0,0,1-.45.11h-2.11c-.51,0-1.72.26-2-.61a.34.34,0,0,1,.09-.38.771.771,0,0,1,.33-.12,4.4,4.4,0,0,0,2-1c.28-.24.36-.27.69,0a2.18,2.18,0,0,0,.77.5A1.31,1.31,0,0,0,519,688a6.835,6.835,0,0,0,.72-.81Z" fill="#071d70"/>
            <path id="패스_5660" data-name="패스 5660" d="M567.42,676.68a6.763,6.763,0,0,0-.38-1.47c-.11-.32-.21-.78.11-.9a2.3,2.3,0,0,0,.42.2c.3.09.58.2.87.31a14.927,14.927,0,0,1,1.46.68c.47.25.86.55,1.3.83l-1,1.08s-1-.53-1.1-.57-.25-.15-.39,0a1.472,1.472,0,0,0-.19.4,2.45,2.45,0,0,0,0,1.73,1.17,1.17,0,0,1,.1.41.891.891,0,0,1-.22.43c-.44.56-.92,1.1-1.41,1.62s-1,1.54-1.8,1.22a.33.33,0,0,1-.21-.31.829.829,0,0,1,.13-.34,4.75,4.75,0,0,0,.6-2.24c0-.37,0-.45.45-.54a2.349,2.349,0,0,0,.89-.34,1.4,1.4,0,0,0,.45-1.19,8.423,8.423,0,0,0-.08-1.01Z" fill="#071d70"/>
            <path id="패스_5661" data-name="패스 5661" d="M532.58,615.88c.36,1.36,1.41,2.4,2.17,3.59a4.69,4.69,0,0,1,.82,4,3.68,3.68,0,0,1-2.6,2.12,10.517,10.517,0,0,1-3.45.11c-1.54-.13-3.36-.37-4.22-1.71a5,5,0,0,1-.59-2.75,17.449,17.449,0,0,0-2.19-8.48c-.85-1.32-2-2.4-2.88-3.71-.42-.64-2.41-3.08.77-7.71.83-1.2,2.56-4.23,5.34-5a7,7,0,0,1,3.17-.22C535.75,597.88,530.58,608.23,532.58,615.88Z" fill="#2091af"/>
            <path id="패스_5662" data-name="패스 5662" d="M529.13,610.64a1,1,0,0,1,.31.59,2.06,2.06,0,0,1-.33,1,8.23,8.23,0,0,0-.27,5.86,52.449,52.449,0,0,0,2.21,5.57,2.39,2.39,0,0,1,.25,1.18c-.12,1-1.07.85-1.78.77-1.54-.13-3.36-.37-4.22-1.71a5,5,0,0,1-.59-2.75,17.449,17.449,0,0,0-2.19-8.48c-.85-1.32-2-2.4-2.88-3.71-.42-.64-2.41-3.08.77-7.71a17.621,17.621,0,0,1,3-3.69,5,5,0,0,1,2.52-1.39c1.29,0,.69,1.15-.12,1.49a10.28,10.28,0,0,0-5.84,6.88,5,5,0,0,0,.12,3.27,4.48,4.48,0,0,0,3.23,2.32,15,15,0,0,0,4.12,0,3.109,3.109,0,0,1,1.25.07,1.47,1.47,0,0,1,.44.44Z" fill="#3aaacf"/>
            <path id="패스_5663" data-name="패스 5663" d="M529.76,599.35a3.43,3.43,0,0,1-3,1.54,2.57,2.57,0,0,1-2.19-1.26,2.36,2.36,0,0,1,.51-2.7,3.52,3.52,0,0,1,3.54-.53c.71.2,1.42.41,1.55,1.26A2.43,2.43,0,0,1,530,599,2,2,0,0,1,529.76,599.35Z" fill="#04528c"/>
            <path id="패스_5664" data-name="패스 5664" d="M529,597.22a1,1,0,0,1-.23,1A2.74,2.74,0,0,1,527,599c-.94.09-2.27-.52-2-1.59.1-.37.34-.7.47-1.06a2.33,2.33,0,0,0-1-2.66c-.3-.17-.61-.28-.92-.43a1.57,1.57,0,0,1-.71-.66,2.33,2.33,0,0,1,0-1.23,1.3,1.3,0,0,0-.21-.88c-.17-.21-.5-.4-.53-.7s.32-.44.57-.58a1.56,1.56,0,0,0,.77-1.15,6.761,6.761,0,0,1,0-1.19c.18-1.49,2.27-1.84,3.54-1.69a4.411,4.411,0,0,1,1.89.66,2.86,2.86,0,0,1,1.18,1.55,3.75,3.75,0,0,1-.29,2.31c-.32.82-.77,1.59-1.08,2.41a4.74,4.74,0,0,0,.08,4.35A5,5,0,0,1,529,597.22Z" fill="#f2d3bd"/>
            <path id="패스_5665" data-name="패스 5665" d="M529,597.22a1,1,0,0,1-.23,1c-.42.49-1.74,1.26-2.1.34a1.4,1.4,0,0,1,0-.81c.05-.27.14-.54.17-.77a2.49,2.49,0,0,0-.66-1.8,5.59,5.59,0,0,0-1.79-1.45c-.12-.06-.38-.09-.47-.19s0-.27.19-.27a6.561,6.561,0,0,0,.77,0,.67.67,0,0,0,.6-.39.78.78,0,0,0-.22-.71,13.06,13.06,0,0,1-1.06-1.26,1.57,1.57,0,0,1-.18-1.55,2.5,2.5,0,0,1,.39-.47,1,1,0,0,0,.28-.52c.07-.5-.43-.63-.77-.85a.91.91,0,0,1-.48-1.07,1.86,1.86,0,0,1,.87-.84,4.5,4.5,0,0,1,2.53-.38,4.368,4.368,0,0,1,1.89.66,2.78,2.78,0,0,1,1.18,1.54,3.7,3.7,0,0,1-.28,2.32c-.32.82-.77,1.59-1.08,2.4a4.76,4.76,0,0,0,.08,4.36A4.885,4.885,0,0,1,529,597.22Z" fill="#e2b698"/>
            <path id="패스_5666" data-name="패스 5666" d="M530.38,586.69c1.48.33,3.31-1.73,4.07-2.72.93-1.21,1.44-2.76,2.39-3.92a13.924,13.924,0,0,1,3.45-2.85,9.59,9.59,0,0,1,5.72-1.42c2.24.2,3.86,1.63,5.83,2.61a11.439,11.439,0,0,0,5.72,1.2,2.48,2.48,0,0,1,2,.38,2,2,0,0,1,.43,1.42,10.78,10.78,0,0,1-2,6.4,13.709,13.709,0,0,1-7.52,4.89c-3.27.92-6.17,1.29-9.13-.64a29.645,29.645,0,0,0-5-2.73c-.78-.32-5.13-2.1-5.63-1.19a1.839,1.839,0,0,0-.09,1,3.93,3.93,0,0,1-.36,1.91,4,4,0,0,1-1.19,1.58.82.82,0,0,1-.85.1,1.11,1.11,0,0,1-.47-.94c0-.47.16-.87.13-1.34a1.14,1.14,0,0,0-.25-.71.74.74,0,0,0-.7-.24,1.09,1.09,0,0,0-.61.6c-.11.2-.15.51-.44.54s-.4-.18-.46-.39c-.21-.65.23-1.35.09-2a1.84,1.84,0,0,0-1.06-1.2c-.62-.33-2-.56-1.67-1.6.15-.43.67-.59,1.11-.69,1.54-.37,3.31-.68,4.56.29.52.4.88,1,1.42,1.39A1.559,1.559,0,0,0,530.38,586.69Z" fill="#f7a42b"/>
            <path id="패스_5667" data-name="패스 5667" d="M530.9,587.59l3-1.72a22.267,22.267,0,0,1,5.5-2.52c3.73-.93,7.64.15,11.26,1.44,1.87.67,4,1.39,5.77.6,1.65-.73,2.72-2.47,3.5-4.1a8.11,8.11,0,0,1-.41,3.28,10.739,10.739,0,0,1-1.54,3.22,13.71,13.71,0,0,1-7.52,4.89c-3.27.92-6.17,1.29-9.13-.64a29.262,29.262,0,0,0-5-2.73c-.77-.32-5.13-2.1-5.63-1.19a1.939,1.939,0,0,0-.09,1,3.93,3.93,0,0,1-.36,1.91,4,4,0,0,1-1.19,1.58.82.82,0,0,1-.85.1,1.11,1.11,0,0,1-.47-.94c0-.47.16-.87.13-1.34a1.14,1.14,0,0,0-.25-.71.73.73,0,0,0-.69-.24,1.08,1.08,0,0,0-.62.6c-.11.2-.15.51-.44.54s-.4-.18-.46-.39c-.2-.65.23-1.35.1-2a1.88,1.88,0,0,0-1.07-1.2c-.42-.22-1.69-.4-1.34-1.06a1.22,1.22,0,0,1,1.54-.38,3.23,3.23,0,0,1,1.31,1.54,2.4,2.4,0,0,0,4.11.95Z" fill="#d17e11"/>
            <path id="패스_5668" data-name="패스 5668" d="M455.88,561.22l12.11-2.56,1.45,4.72-12.58,4.31Z" fill="url(#linear-gradient-10)"/>
            <path id="패스_5669" data-name="패스 5669" d="M474.17,589.71l12-2.54a.33.33,0,0,0,.21-.41.25.25,0,0,0,0-.07,8.16,8.16,0,0,1-.77-2.86l-.17-2.22-8.33-2.41-4.88,5.26Z" fill="url(#linear-gradient-11)"/>
            <path id="패스_5670" data-name="패스 5670" d="M462.74,550.89l12-2.53a.62.62,0,0,1,.33,0l21,4.48c8.11,1.73,14.71,9.71,14.71,17.82v21a.58.58,0,0,1-.47.61l-12,2.54Z" fill="url(#linear-gradient-12)"/>
            <path id="패스_5671" data-name="패스 5671" d="M484,555.38l-21-4.48a.61.61,0,0,0-.75.42,1.11,1.11,0,0,0,0,.19v10.72c0,.39-.4.57-.77.33a8.289,8.289,0,0,0-3-1.31c-3.8-.77-6.89,1.61-6.94,5.4a9.06,9.06,0,0,0,6.75,8.4,6.461,6.461,0,0,0,3.09,0,.67.67,0,0,1,.76.57.189.189,0,0,1,0,.08v10.73a1,1,0,0,0,.77.94l11,2.31c.28.07.47-.19.35-.47a7.8,7.8,0,0,1-.77-3.49c.08-3.73,3.2-6.09,6.94-5.27a9,9,0,0,1,6.87,8.38,6,6,0,0,1-.77,3,.46.46,0,0,0,.26.6h.08l11,2.31a.59.59,0,0,0,.75-.4.47.47,0,0,0,0-.2v-21C498.73,565.09,492.16,557.11,484,555.38Z" fill="#4646a7"/>
            <path id="패스_5672" data-name="패스 5672" d="M507.17,601.73a5.219,5.219,0,0,1-.45-.67,56.567,56.567,0,0,0-7.22-8.74,21.229,21.229,0,0,0-4.27-3.46,15.719,15.719,0,0,0-2.51-1.22c-.82-.31-1.89-.34-2.51-1a.7.7,0,0,0-.26-.19.32.32,0,0,0-.32.2.55.55,0,0,0,0,.4c.11.44.42.62.77.88a3.67,3.67,0,0,1,1,.77c.27.38-.77.38-.83.39a7.114,7.114,0,0,0-1.37.37,7.251,7.251,0,0,0-2.35,1.46.41.41,0,0,0-.17.26.43.43,0,0,0,.13.26,4,4,0,0,0,3.38,1,10.351,10.351,0,0,0,3.41-1.28,1.55,1.55,0,0,1,1.5.2,8.079,8.079,0,0,1,1.74,2.49l4.41,7.57a13.69,13.69,0,0,0,4,4.86,11.8,11.8,0,0,0,5,1.4,70.161,70.161,0,0,0,12,.11,8.49,8.49,0,0,0,3.55-.77,3,3,0,0,0,1.67-3c-.62-3.15-7.18-3-9.58-2.84-2.86.24-5.65.83-8.48,1.23a2.82,2.82,0,0,1-1.55-.06,2,2,0,0,1-.69-.62Z" fill="#e2b698"/>
            <path id="패스_5673" data-name="패스 5673" d="M507.17,601.73a5.219,5.219,0,0,1-.45-.67,56.567,56.567,0,0,0-7.22-8.74,21.229,21.229,0,0,0-4.27-3.46,15.719,15.719,0,0,0-2.51-1.22c-.82-.31-1.89-.34-2.51-1a.7.7,0,0,0-.26-.19.32.32,0,0,0-.32.2.55.55,0,0,0,0,.4c.11.44.42.62.77.88a3.67,3.67,0,0,1,1,.77c.27.38-.77.38-.83.39a7.114,7.114,0,0,0-1.37.37,9.454,9.454,0,0,0-1.66.89c-.11.08-.54.29-.59.41s-.13.42,0,.36c2.55-1.08,5.46-2.17,8-1.09a9.9,9.9,0,0,1,3.58,3,90.574,90.574,0,0,1,6.07,8,7.791,7.791,0,0,0,2.66,2.81,6.84,6.84,0,0,0,4.12.28c2.12-.34,4.21-.83,6.34-1a11.39,11.39,0,0,1,6.24,1.1,8.871,8.871,0,0,0,1.67.81c.59.17,1.69.34,1.86-.25.37-1.27-.5-2.84-3.86-3.54a20.239,20.239,0,0,0-5.71-.14c-2.87.24-5.66.83-8.49,1.23a2.78,2.78,0,0,1-1.54-.06,1.931,1.931,0,0,1-.72-.54Z" fill="#f2d3bd"/>
            <path id="패스_5674" data-name="패스 5674" d="M527.75,604a3.19,3.19,0,0,1-1.69,3.09,8.662,8.662,0,0,1-3.64.77c-1.45.08-2.9.15-4.35.18,2.08-1.17,2.13-4.55,1-6.46a1.32,1.32,0,0,0-.62-.55C521.86,600.66,527.39,600.92,527.75,604Z" fill="#00497f"/>
            <path id="패스_5675" data-name="패스 5675" d="M526.43,603.42a2,2,0,0,1-1.42,1,5.93,5.93,0,0,1-1.88,0A7.373,7.373,0,0,1,521,604a3.94,3.94,0,0,1-1.88-2.31,1.4,1.4,0,0,0-.62-.56c1.35-.14,9.1-.61,8,2.32Z" fill="#04528c"/>
            <path id="패스_5676" data-name="패스 5676" d="M434.67,724.75c-.34,0-.59-.15-.55-.28s.37-.24.71-.23c2.54.14,5.1.25,7.62.36.33,0,.61.14.57.28s-.36.24-.7.22C439.79,724.99,437.22,724.88,434.67,724.75Z" fill="#dd9b6b"/>
            <path id="패스_5677" data-name="패스 5677" d="M429.61,724.48h0c-2.51-.14-5.06-.3-7.59-.46-.35,0-.59-.15-.54-.28s.39-.23.77-.21l7.58.45c.35,0,.59.15.54.28S430,724.49,429.61,724.48Z" fill="#dd9b6b"/>
            <path id="패스_5678" data-name="패스 5678" d="M447.39,725.3c-.33,0-.58-.14-.55-.28s.34-.24.7-.22c2.54.09,5.11.18,7.63.25.35,0,.62.13.6.27s-.33.24-.68.23c-2.54-.07-5.11-.16-7.67-.25Z" fill="#dd9b6b"/>
            <path id="패스_5679" data-name="패스 5679" d="M417,723.69h0c-2.51-.18-5.06-.36-7.56-.56-.35,0-.57-.15-.5-.29s.4-.22.77-.2l7.53.56c.35,0,.58.15.52.28S417.32,723.7,417,723.69Z" fill="#dd9b6b"/>
            <path id="패스_5680" data-name="패스 5680" d="M460.16,725.67c-.33,0-.57-.13-.56-.26s.32-.25.68-.24c2.56.06,5.14.11,7.65.14.36,0,.63.11.62.25s-.3.25-.66.25c-2.53,0-5.11-.08-7.71-.14Z" fill="#dd9b6b"/>
            <path id="패스_5681" data-name="패스 5681" d="M404.43,722.74h-.08l-7.51-.65c-.35,0-.56-.16-.49-.3s.42-.21.78-.18c2.5.22,5,.44,7.49.64.34,0,.57.16.49.29a.8.8,0,0,1-.68.2Z" fill="#dd9b6b"/>
            <path id="패스_5682" data-name="패스 5682" d="M472.94,725.86c-.31,0-.55-.13-.55-.26s.3-.24.65-.24h7.66c.36,0,.64.1.64.24s-.27.25-.63.26h-7.77Z" fill="#dd9b6b"/>
            <path id="패스_5683" data-name="패스 5683" d="M391.94,721.64h-.06c-2.48-.24-5-.49-7.46-.77-.34,0-.54-.17-.46-.3a.93.93,0,0,1,.77-.18l7.44.72c.34,0,.55.17.47.31a.9.9,0,0,1-.7.22Z" fill="#dd9b6b"/>
            <path id="패스_5684" data-name="패스 5684" d="M379.55,720.39h-.09c-2.47-.26-5-.54-7.4-.83-.34,0-.53-.17-.43-.31a1,1,0,0,1,.77-.17c2.43.28,4.91.56,7.38.82.34,0,.54.18.45.31a.93.93,0,0,1-.68.18Z" fill="#dd9b6b"/>
            <path id="패스_5685" data-name="패스 5685" d="M485.74,725.83c-.3,0-.54-.11-.56-.24s.27-.25.63-.26c2.55,0,5.13-.06,7.65-.11.36,0,.66.1.67.23s-.25.26-.6.27c-2.53,0-5.12.09-7.71.11Z" fill="#dd9b6b"/>
            <path id="패스_5686" data-name="패스 5686" d="M367.25,719h-.1c-2.43-.28-4.9-.59-7.35-.9-.33-.05-.51-.19-.41-.32a1.07,1.07,0,0,1,.78-.16c2.43.31,4.89.62,7.31.9.34,0,.53.19.42.32a.94.94,0,0,1-.65.16Z" fill="#dd9b6b"/>
            <path id="패스_5687" data-name="패스 5687" d="M498.52,725.61c-.29,0-.52-.11-.55-.23s.24-.26.59-.27c2.56-.07,5.13-.16,7.63-.26.35,0,.67.09.7.23s-.22.25-.57.27c-2.52.1-5.09.19-7.67.26Z" fill="#dd9b6b"/>
            <path id="패스_5688" data-name="패스 5688" d="M355.06,717.45h-.12c-2.44-.32-4.89-.66-7.28-1-.33,0-.5-.19-.38-.32a1.1,1.1,0,0,1,.81-.15c2.39.34,4.83.67,7.25,1,.34,0,.51.18.41.32A1,1,0,0,1,355.06,717.45Z" fill="#dd9b6b"/>
            <path id="패스_5689" data-name="패스 5689" d="M511.26,725.1c-.28,0-.51-.1-.55-.22s.21-.26.56-.27c2.53-.13,5.08-.27,7.58-.42.34,0,.67.07.73.21s-.19.26-.54.28c-2.5.16-5.07.3-7.62.42Z" fill="#dd9b6b"/>
            <path id="패스_5690" data-name="패스 5690" d="M343,715.76h-.14l-7.19-1.08c-.33,0-.49-.2-.36-.33a1.15,1.15,0,0,1,.83-.14c2.37.37,4.79.77,7.17,1.08.33.05.49.19.37.32A1,1,0,0,1,343,715.76Z" fill="#dd9b6b"/>
            <path id="패스_5691" data-name="패스 5691" d="M523.9,724.35c-.27,0-.5-.09-.55-.2s.17-.27.52-.29c2.49-.18,5-.38,7.5-.6.35,0,.69.06.77.2s-.14.26-.48.29c-2.51.22-5,.42-7.56.6Z" fill="#dd9b6b"/>
            <path id="패스_5692" data-name="패스 5692" d="M331.07,713.92h-.16c-2.38-.37-4.77-.77-7.1-1.17-.33,0-.47-.2-.34-.32a1.13,1.13,0,0,1,.84-.13c2.31.39,4.7.77,7.09,1.16.32.06.47.2.34.33A1,1,0,0,1,331.07,713.92Z" fill="#dd9b6b"/>
            <path id="패스_5693" data-name="패스 5693" d="M536.43,723.3a.82.82,0,0,1-.54-.2c-.09-.13.12-.27.46-.3,2.46-.24,4.95-.51,7.39-.77a1,1,0,0,1,.77.17c.1.13-.09.27-.43.31-2.47.28-5,.55-7.43.77Z" fill="#dd9b6b"/>
            <path id="패스_5694" data-name="패스 5694" d="M548.74,721.92a.74.74,0,0,1-.52-.17c-.11-.14.07-.27.41-.32,2.41-.29,4.85-.62,7.26-1a1.13,1.13,0,0,1,.82.16c.11.13-.06.27-.4.31-2.42.34-4.87.67-7.29,1A1.3,1.3,0,0,1,548.74,721.92Z" fill="#dd9b6b"/>
            <path id="패스_5695" data-name="패스 5695" d="M560.83,720.26a.87.87,0,0,1-.52-.16c-.12-.13.05-.28.37-.32,2.36-.36,4.75-.73,7.12-1.12a1.15,1.15,0,0,1,.83.14c.13.12,0,.27-.35.32-2.36.4-4.77.77-7.15,1.13a1.512,1.512,0,0,1-.3.01Z" fill="#dd9b6b"/>
            <path id="패스_5696" data-name="패스 5696" d="M572.67,718.34a.84.84,0,0,1-.51-.14c-.14-.13,0-.27.33-.33,2.31-.41,4.63-.83,6.94-1.26a1.23,1.23,0,0,1,.86.11c.15.14,0,.28-.31.34-2.31.44-4.67.86-7,1.27A1.737,1.737,0,0,1,572.67,718.34Z" fill="#dd9b6b"/>
            <path id="패스_5697" data-name="패스 5697" d="M584.24,716.2a1,1,0,0,1-.49-.14c-.16-.12,0-.27.28-.33,2.26-.45,4.55-.92,6.81-1.4a1.35,1.35,0,0,1,.86.11c.16.12,0,.27-.26.34-2.27.48-4.57,1-6.84,1.4a1.432,1.432,0,0,1-.36.02Z" fill="#dd9b6b"/>
            <path id="패스_5698" data-name="패스 5698" d="M177.68,664.06,211.1,657a10,10,0,0,1,11.79,7.65h0l2,9.2a13.41,13.41,0,0,0,6.34,8.81l6.49,3.86-52.85,11.2A10,10,0,0,1,173,690l-3-14.18a9.94,9.94,0,0,1,7.65-11.79Z" fill="#f9e1c3"/>
            <path id="패스_5699" data-name="패스 5699" d="M175.4,696.17v-.46a9.369,9.369,0,0,0,1.41-.18l.77-.17.1.45-.77.17A8.435,8.435,0,0,1,175.4,696.17Zm-1.54,0a10.569,10.569,0,0,1-2.31-.5l.14-.44a9.392,9.392,0,0,0,2.21.48Zm5.4-.67-.09-.46,2.26-.48.1.46Zm-9.16-.5a9.889,9.889,0,0,1-1.95-1.33l.31-.35a9.41,9.41,0,0,0,1.86,1.27Zm12.9-.3-.09-.46,2.26-.48.1.46Zm3.77-.78-.09-.45L189,693l.1.46Zm3.77-.77-.09-.45,2.26-.48.1.46Zm-23.52-.5a10.378,10.378,0,0,1-1.31-2l.42-.21a10.188,10.188,0,0,0,1.24,1.88Zm27.29-.3-.09-.45,2.26-.48.1.45Zm3.78-.77-.1-.45,2.26-.48.1.44Zm3.78-.77-.1-.46,2.26-.47.1.44Zm3.77-.77-.1-.46,2.26-.48.1.45Zm-40.52-.73a8.681,8.681,0,0,1-.27-1l-.27-1.27.46-.1.27,1.27a8.484,8.484,0,0,0,.25,1Zm44.29-.07-.1-.46,2.27-.49.09.46Zm3.77-.78-.15-.64,2.27-.49.09.46Zm3.77-.77-.1-.44,2.27-.49.09.45Zm3.77-.77-.1-.45,2.27-.48.09.45Zm3.78-.77-.1-.45,2.26-.48.1.45Zm-60.24-.49-.48-2.26.45-.1.48,2.26Zm64-.31-.1-.45.94-.2-.16-.09.24-.4,1.17.7Zm-.65-1.54-2-1.18.24-.4,2,1.17Zm-64.15-1.95L163,679.6l.46-.1.48,2.27Zm60.83,0-1.25-1q-.42-.24-.81-.51l.26-.38c.26.18.52.34.77.5l1.18.7Zm-3.23-2.17a14.375,14.375,0,0,1-1.63-1.68l.36-.3a12.159,12.159,0,0,0,1.58,1.63Zm-58.46-1.9-.48-2.26.46-.1.48,2.27Zm55.87-1.37a14.861,14.861,0,0,1-1.1-2.09l.43-.18a14.751,14.751,0,0,0,1.05,2ZM161.85,674v-.08a10.129,10.129,0,0,1-.22-2.13v-.14h.46v.13a10,10,0,0,0,.21,2v.08Zm55.07-1.15c-.09-.32-.17-.64-.24-1l-.28-1.31.45-.09.28,1.31c.07.31.15.63.24.93Zm-54.69-2.68-.46-.08a9.8,9.8,0,0,1,.67-2.26l.43.18a10.18,10.18,0,0,0-.66,2.16Zm53.85-1.11-.48-2.26.46-.1.47,2.27Zm-52.52-2.38-.39-.25a10.068,10.068,0,0,1,1.47-1.84l.33.33a9.609,9.609,0,0,0-1.42,1.76Zm51.68-1.39-.48-2.27.45-.1.48,2.27ZM166.08,664l-.27-.37a10.686,10.686,0,0,1,2.06-1.16l.17.43a9.788,9.788,0,0,0-1.94,1.1Zm3.4-1.54-.11-.46.28-.06,2.27-.48.09.45-2.26.49Zm44.92-.83a10,10,0,0,0-1-2l.41-.28a9.889,9.889,0,0,1,1,2.13Zm-40.88,0-.1-.45,2.27-.49.09.46Zm3.77-.77-.1-.45,2.27-.49.09.45Zm3.77-.77-.1-.45,2.27-.48.09.45Zm3.77-.77-.1-.45,2.27-.49.09.46Zm27.67-.77a9.449,9.449,0,0,0-1.67-1.55l.27-.37a9.856,9.856,0,0,1,1.75,1.54Zm-23.91,0-.1-.45,2.27-.49.09.46Zm3.77-.77-.09-.45,2.26-.49.1.46Zm3.77-.78-.09-.44,2.26-.49.1.46Zm13.4-.67a9.272,9.272,0,0,0-2.12-.77l.11-.45a9.851,9.851,0,0,1,2.22.81Zm-9.58-.37-.09-.46,2.26-.48.1.46Zm3.77-.78-.07-.45a9.811,9.811,0,0,1,2.36-.09v.46a9.491,9.491,0,0,0-2.26.07Z" fill="#edb07f"/>
            <path id="패스_5700" data-name="패스 5700" d="M675.26,537l-47.4-6.22a13.88,13.88,0,0,0-15.61,11.91v.1s-.93,7.07-1.7,13.05a18.89,18.89,0,0,1-7.88,13l-8.64,6,75,9.85a13.93,13.93,0,0,0,15.62-12h0l2.64-20.1A13.92,13.92,0,0,0,675.26,537Z" fill="#f9d7d7"/>
            <path id="패스_5701" data-name="패스 5701" d="M591.28,570.34l-1.15.86,1.42.14" fill="none" stroke="#ebb7bc" stroke-miterlimit="10" stroke-width="0.46"/>
            <path id="패스_5702" data-name="패스 5702" d="M666.77,579.06a13.578,13.578,0,0,1-1.43-.07l-.55-.06v-.46l.55.06a15,15,0,0,0,2.32,0V579A4.3,4.3,0,0,1,666.77,579.06Zm2.85-.29-.1-.45a13.805,13.805,0,0,0,2.69-.85l.18.42a13.581,13.581,0,0,1-2.77.9Zm-6.74,0-2.85-.29.05-.46,2.86.3Zm-4.78-.48-2.85-.28v-.47l2.86.29Zm-4.76-.48-2.85-.28v-.46l2.85.28Zm-4.76-.47-2.85-.29v-.46l2.85.28Zm25.5-.31-.24-.4a13.834,13.834,0,0,0,2.25-1.7l.31.34a13.477,13.477,0,0,1-2.29,1.75Zm-30.26-.17-2.85-.3v-.45l2.85.28Zm-4.75-.49-2.85-.28v-.46l2.85.29Zm-4.76-.48-2.85-.28v-.46l2.85.29Zm-4.75-.48-2.85-.29v-.46l2.85.29Zm-4.76-.48-2.85-.29v-.46l2.85.29Zm-4.73-.49-2.85-.29v-.46l2.85.28Zm-4.75-.48-2.86-.3v-.45l2.85.28Zm62.47-.13-.35-.3a13.669,13.669,0,0,0,1.54-2.36l.41.22a14.345,14.345,0,0,1-1.64,2.45Zm-67.19-.35-2.86-.29v-.46l2.85.29Zm-4.76-.49-2.86-.28v-.46l2.85.29Zm-4.81-.46-2.86-.28.05-.47,2.85.3Zm-4.76-.48-2.85-.28.05-.47,2.85.3Zm83.83-2.43-.44-.16a13.5,13.5,0,0,0,.65-2.74l.46.06a13.788,13.788,0,0,1-.66,2.84Zm-87.16-.26-.28-.37,2.32-1.71.28.37Zm3.86-2.85-.28-.38,1.91-1.43.38-.28.29.36-.4.29Zm84.2-1.63h-.46l.29-2.85h.45Zm-80.42-1.37-.31-.34a16.542,16.542,0,0,0,1.89-2.12l.36.29a19.917,19.917,0,0,1-1.96,2.17Zm80.9-3.39h-.46l.29-2.85h.46Zm-77.9-.38-.39-.24a19.941,19.941,0,0,0,1.29-2.52l.42.18a20,20,0,0,1-1.3,2.62Zm78.37-4.38h-.46l.29-2.86h.46Zm-76.36,0-.44-.14a19.7,19.7,0,0,0,.62-2.76l.45.07a18.155,18.155,0,0,1-.65,2.81Zm76.87-4.73H682l.29-2.85h.46Zm-76,0H606l.28-2.86h.46Zm76.5-4.76h-.46V544.8a12.862,12.862,0,0,0-.12-1.75h.46a13.6,13.6,0,0,1,.12,1.8,6.4,6.4,0,0,1-.06,1.07Zm-76,0h-.47l.29-2.86h.46ZM682,541.15a13.139,13.139,0,0,0-1-2.63l.41-.2a13.889,13.889,0,0,1,1.06,2.7Zm-74.64-.08-.47-.05.25-2.47.05-.37.46.07a1,1,0,0,1,0,.37ZM680,536.91a14.493,14.493,0,0,0-1.86-2.13l.31-.34a15.451,15.451,0,0,1,1.92,2.2Zm-72-.54-.45-.12a14.387,14.387,0,0,1,1-2.69l.41.21a12.846,12.846,0,0,0-1,2.6Zm68.71-2.77a13,13,0,0,0-2.43-1.39l.18-.43a13.524,13.524,0,0,1,2.54,1.44ZM610,532.14l-.39-.27a14.065,14.065,0,0,1,1.91-2.17l.31.34a13.067,13.067,0,0,0-1.83,2.1Zm62.47-.57a15.147,15.147,0,0,0-2.31-.43h-.46v-.46h.46a14.089,14.089,0,0,1,2.4.45Zm-4.68-.67-2.85-.29v-.45l2.86.28Zm-4.76-.48-2.85-.29v-.46l2.86.29Zm-4.76-.48-2.85-.29.05-.46,2.85.29Zm-4.76-.48-2.85-.28.05-.47,2.85.29Zm-4.75-.48-2.85-.28.05-.46,2.85.28Zm-35.48-.17-.27-.37a13.76,13.76,0,0,1,2.53-1.44l.19.43a13.324,13.324,0,0,0-2.44,1.38Zm30.75-.3-2.86-.29.05-.46,2.85.28Zm-4.76-.48-2.86-.3.05-.45,2.86.28Zm-4.76-.48-2.85-.29v-.46l2.86.29Zm-4.76-.49-2.85-.28.05-.47,2.86.3Zm-12.25-.27-.13-.44a14,14,0,0,1,2.88-.51v.47a12.894,12.894,0,0,0-2.75.48Zm7.51-.17-2.38-.27h-.47v-.47h.46l2.4.25Z" fill="#ebb7bc"/>
          </g>
        </g>
      </g>
    </g>
  </g>
</svg>
