<svg xmlns="http://www.w3.org/2000/svg" xmlns:xlink="http://www.w3.org/1999/xlink" viewBox="0 0 1253.79 528.73"><defs><style>.cls-1{fill:#ffefe2;}.cls-2{fill:#fff9f2;}.cls-3{fill:#fff;}.cls-4{fill:#69c8ed;}.cls-5{fill:#e6bf6b;}.cls-6{fill:#f2d3bd;}.cls-7{fill:#e2b698;}.cls-8{fill:#1a8baa;}.cls-9{fill:#3aaacf;}.cls-10{fill:url(#linear-gradient);}.cls-11{fill:url(#linear-gradient-2);}.cls-12{fill:url(#linear-gradient-3);}.cls-13{fill:#0772a1;}.cls-14{fill:#65a6dc;}.cls-15{fill:#00426b;}.cls-16{fill:#00508c;}.cls-17{fill:#052a6e;}.cls-18{fill:#001e4f;}.cls-19{fill:#f7a42b;}.cls-20{fill:#d17e11;}.cls-21{fill:#001c49;}.cls-22{fill:url(#linear-gradient-4);}.cls-23{fill:url(#linear-gradient-5);}.cls-24{fill:url(#linear-gradient-6);}.cls-25{fill:#1435ad;}.cls-26{fill:#ce7c0f;}.cls-27{fill:#06799f;}.cls-28{fill:#005e77;}.cls-29{fill:#1a629a;}.cls-30{fill:#04528c;}.cls-31{fill:#2091af;}.cls-32{fill:#024e68;}.cls-33{fill:#003847;}.cls-34{fill:url(#linear-gradient-7);}.cls-35{fill:url(#linear-gradient-8);}.cls-36{fill:url(#linear-gradient-9);}.cls-37{fill:#ffb640;}.cls-38{fill:#00497f;}.cls-39{fill:#071d70;}.cls-40{fill:url(#linear-gradient-10);}.cls-41{fill:url(#linear-gradient-11);}.cls-42{fill:url(#linear-gradient-12);}.cls-43{fill:#4646a7;}.cls-44{fill:#dd9b6b;}.cls-45{fill:#f9e1c3;}.cls-46{fill:#edb07f;}.cls-47{fill:#f9d7d7;}.cls-48{fill:none;stroke:#ebb7bc;stroke-miterlimit:10;stroke-width:0.6px;}.cls-49{fill:#ebb7bc;}</style><linearGradient id="linear-gradient" x1="530.12" y1="109.53" x2="532.99" y2="123.04" gradientUnits="userSpaceOnUse"><stop offset="0" stop-color="#6cc0dd"/><stop offset="0.15" stop-color="#64b7d4"/><stop offset="0.39" stop-color="#4e9fbc"/><stop offset="0.7" stop-color="#2b7895"/><stop offset="1" stop-color="#024a68"/></linearGradient><linearGradient id="linear-gradient-2" x1="529.77" y1="144.2" x2="530.88" y2="150" gradientUnits="userSpaceOnUse"><stop offset="0" stop-color="#6cc0dd"/><stop offset="0.23" stop-color="#69bdda"/><stop offset="0.41" stop-color="#60b3d0"/><stop offset="0.57" stop-color="#52a3c0"/><stop offset="0.72" stop-color="#3d8ba9"/><stop offset="0.87" stop-color="#226e8b"/><stop offset="1" stop-color="#024a68"/></linearGradient><linearGradient id="linear-gradient-3" x1="563.75" y1="96.9" x2="579.17" y2="166.89" gradientUnits="userSpaceOnUse"><stop offset="0" stop-color="#6cc0dd"/><stop offset="0.01" stop-color="#66b9d6"/><stop offset="0.04" stop-color="#4797b5"/><stop offset="0.07" stop-color="#2e7b99"/><stop offset="0.11" stop-color="#1b6583"/><stop offset="0.15" stop-color="#0d5674"/><stop offset="0.19" stop-color="#054d6b"/><stop offset="0.26" stop-color="#024a68"/><stop offset="0.28" stop-color="#24708e"/><stop offset="0.3" stop-color="#4393b0"/><stop offset="0.32" stop-color="#5aacc9"/><stop offset="0.34" stop-color="#67bbd8"/><stop offset="0.36" stop-color="#6cc0dd"/><stop offset="0.37" stop-color="#4d9ebb"/><stop offset="0.38" stop-color="#17627f"/><stop offset="0.39" stop-color="#024a68"/><stop offset="1" stop-color="#024a68"/></linearGradient><linearGradient id="linear-gradient-4" x1="492.76" y1="161.18" x2="488.49" y2="141.17" gradientUnits="userSpaceOnUse"><stop offset="0.7" stop-color="#071d70"/><stop offset="0.82" stop-color="#091f71"/><stop offset="0.87" stop-color="#102577"/><stop offset="0.9" stop-color="#1b3180"/><stop offset="0.92" stop-color="#2c418d"/><stop offset="0.94" stop-color="#42569e"/><stop offset="0.96" stop-color="#5e70b3"/><stop offset="0.98" stop-color="#7e90cc"/><stop offset="1" stop-color="#a2b3e8"/><stop offset="1" stop-color="#abbbef"/></linearGradient><linearGradient id="linear-gradient-5" x1="455.52" y1="129.87" x2="448.83" y2="98.97" gradientUnits="userSpaceOnUse"><stop offset="0.2" stop-color="#76abe5"/><stop offset="0.24" stop-color="#6c9eda"/><stop offset="0.42" stop-color="#4167ad"/><stop offset="0.57" stop-color="#213f8c"/><stop offset="0.7" stop-color="#0e2677"/><stop offset="0.77" stop-color="#071d70"/><stop offset="0.78" stop-color="#1a3584"/><stop offset="0.79" stop-color="#32549e"/><stop offset="0.81" stop-color="#4870b4"/><stop offset="0.83" stop-color="#5986c6"/><stop offset="0.85" stop-color="#6697d4"/><stop offset="0.87" stop-color="#6fa2de"/><stop offset="0.9" stop-color="#75a9e3"/><stop offset="1" stop-color="#76abe5"/></linearGradient><linearGradient id="linear-gradient-6" x1="486.73" y1="105.14" x2="496.13" y2="148.7" gradientUnits="userSpaceOnUse"><stop offset="0" stop-color="#76abe5"/><stop offset="0.06" stop-color="#74a9e4"/><stop offset="0.09" stop-color="#6fa2e2"/><stop offset="0.1" stop-color="#6695dd"/><stop offset="0.12" stop-color="#5983d6"/><stop offset="0.13" stop-color="#486cce"/><stop offset="0.15" stop-color="#3350c4"/><stop offset="0.16" stop-color="#1b2fb7"/><stop offset="0.17" stop-color="#000aaa"/><stop offset="0.22" stop-color="#020e9d"/><stop offset="0.33" stop-color="#051684"/><stop offset="0.44" stop-color="#061b75"/><stop offset="0.53" stop-color="#071d70"/><stop offset="0.53" stop-color="#0b2274"/><stop offset="0.54" stop-color="#274692"/><stop offset="0.55" stop-color="#4065ac"/><stop offset="0.55" stop-color="#547fc1"/><stop offset="0.56" stop-color="#6393d1"/><stop offset="0.58" stop-color="#6ea0dc"/><stop offset="0.59" stop-color="#74a9e3"/><stop offset="0.62" stop-color="#76abe5"/><stop offset="0.65" stop-color="#5f8ecd"/><stop offset="0.69" stop-color="#446bb0"/><stop offset="0.74" stop-color="#2e4f99"/><stop offset="0.79" stop-color="#1d3987"/><stop offset="0.85" stop-color="#10297a"/><stop offset="0.91" stop-color="#092072"/><stop offset="1" stop-color="#071d70"/></linearGradient><linearGradient id="linear-gradient-7" x1="445.06" y1="78.98" x2="447.55" y2="91.38" gradientUnits="userSpaceOnUse"><stop offset="0.32" stop-color="#cc820a"/><stop offset="0.37" stop-color="#ce8611"/><stop offset="0.45" stop-color="#d59026"/><stop offset="0.54" stop-color="#e1a246"/><stop offset="0.62" stop-color="#edb56b"/><stop offset="0.66" stop-color="#eab163"/><stop offset="0.72" stop-color="#e3a54d"/><stop offset="0.8" stop-color="#d79329"/><stop offset="0.86" stop-color="#cc820a"/></linearGradient><linearGradient id="linear-gradient-8" x1="454.88" y1="46.11" x2="462.24" y2="82.65" gradientUnits="userSpaceOnUse"><stop offset="0.13" stop-color="#cc820a"/><stop offset="0.19" stop-color="#cf8611"/><stop offset="0.27" stop-color="#d69226"/><stop offset="0.36" stop-color="#e2a547"/><stop offset="0.47" stop-color="#f2c074"/><stop offset="0.54" stop-color="#ffd599"/><stop offset="0.55" stop-color="#fed396"/><stop offset="0.56" stop-color="#ecb765"/><stop offset="0.57" stop-color="#dea03d"/><stop offset="0.58" stop-color="#d48f21"/><stop offset="0.58" stop-color="#ce8610"/><stop offset="0.59" stop-color="#cc820a"/></linearGradient><linearGradient id="linear-gradient-9" x1="444.5" y1="20.35" x2="450.9" y2="50.93" gradientUnits="userSpaceOnUse"><stop offset="0.47" stop-color="#ffd599"/><stop offset="0.47" stop-color="#fed396"/><stop offset="0.49" stop-color="#ecb765"/><stop offset="0.51" stop-color="#dea03d"/><stop offset="0.52" stop-color="#d48f21"/><stop offset="0.53" stop-color="#ce8610"/><stop offset="0.54" stop-color="#cc820a"/></linearGradient><linearGradient id="linear-gradient-10" x1="540.62" y1="43.83" x2="544.25" y2="61.01" gradientUnits="userSpaceOnUse"><stop offset="0.09" stop-color="#78a8dd"/><stop offset="0.16" stop-color="#5d8cc3"/><stop offset="0.28" stop-color="#37659e"/><stop offset="0.38" stop-color="#1c4983"/><stop offset="0.48" stop-color="#0b3873"/><stop offset="0.54" stop-color="#05326d"/></linearGradient><linearGradient id="linear-gradient-11" x1="561.94" y1="71.23" x2="564.24" y2="81.52" gradientUnits="userSpaceOnUse"><stop offset="0.03" stop-color="#05326d"/><stop offset="0.15" stop-color="#0e3b76"/><stop offset="0.35" stop-color="#27548e"/><stop offset="0.6" stop-color="#4e7db4"/><stop offset="0.83" stop-color="#78a8dd"/><stop offset="0.86" stop-color="#73a3d8"/><stop offset="0.89" stop-color="#6594ca"/><stop offset="0.93" stop-color="#4d7cb3"/><stop offset="0.96" stop-color="#2c5a93"/><stop offset="1" stop-color="#05326d"/></linearGradient><linearGradient id="linear-gradient-12" x1="569.64" y1="29.9" x2="583.23" y2="90.66" gradientUnits="userSpaceOnUse"><stop offset="0.16" stop-color="#78a8dd"/><stop offset="0.22" stop-color="#5d8cc3"/><stop offset="0.32" stop-color="#37659e"/><stop offset="0.41" stop-color="#1c4983"/><stop offset="0.49" stop-color="#0b3873"/><stop offset="0.54" stop-color="#05326d"/></linearGradient></defs><g id="레이어_2" data-name="레이어 2"><g id="레이어_1-2" data-name="레이어 1"><path class="cls-1" d="M1243.51,220.6C1218.8,134.76,1039.28,110.54,910.89,70c-53.78-17-264.58-21.4-534.34,16.24C80.43,127.54-53.4,234.1,19.56,378.57,54.64,448,148.29,497.7,259.14,528.73H846.35C1158.85,465.86,1293.88,395.55,1243.51,220.6Z"/><path class="cls-2" d="M655.5,133.08c-27.74-3-236.19,15.34-376.85,11.78C124.25,141,25.46,212.5,36.9,260.52c15.71,65.91,140.84,92.23,285.14,119,182,33.76,451.88,10.72,534.78-14.29C1010.59,318.85,1129,250.61,990.61,191.59,917.62,160.46,752.81,143.48,655.5,133.08Z"/><path class="cls-3" d="M259.9,176.62c-93.76,22.3-126,98.11-7.22,125.46,237.52,54.69,418.65,41.79,489.2,16.07,70.81-25.82,146.4-101.31,16-131.46C631.2,157.39,359.57,152.9,259.9,176.62Z"/><path class="cls-4" d="M553.48,302.44c2-.4,4.08-.82,6.08-1.25.27-.06.35-.2.16-.32a1.35,1.35,0,0,0-.83-.1c-2,.43-4,.85-6,1.24-.29.06-.38.2-.2.32a1.21,1.21,0,0,0,.82.11Zm-3.93.48a1.23,1.23,0,0,0-.83-.12c-2,.37-4.12.73-6.18,1.07l-.18,0c-.29.06-.42.19-.26.32a1.22,1.22,0,0,0,.82.13l.18,0c2.07-.34,4.16-.7,6.22-1.08h0C549.62,303.17,549.71,303,549.55,302.92Zm13.94-2.61c1.92-.44,3.85-.9,5.74-1.37.26-.07.31-.21.11-.32a1.29,1.29,0,0,0-.83-.08c-1.88.47-3.8.92-5.71,1.36-.26.06-.33.2-.14.32a1.31,1.31,0,0,0,.8.1Zm-24.67,4.39a1.18,1.18,0,0,0-.81-.14c-2.19.31-4.46.6-6.74.86-.32,0-.48.17-.36.3a1.14,1.14,0,0,0,.8.17c2.3-.27,4.59-.56,6.8-.88h.06C538.84,305,539,304.82,538.82,304.7ZM573,298c1.8-.48,3.62-1,5.41-1.48.24-.07.27-.21.06-.31a1.3,1.3,0,0,0-.83-.07c-1.78.5-3.59,1-5.38,1.46-.25.07-.3.21-.09.32a1.31,1.31,0,0,0,.77.09Zm-45.51,8.1a1.07,1.07,0,0,0-.78-.18c-2.31.23-4.7.43-7.08.61-.33,0-.53.15-.45.28a1,1,0,0,0,.76.2c2.41-.18,4.82-.39,7.15-.62h.12C527.41,306.32,527.53,306.2,527.44,306.09Zm54.42-10.59c1.71-.5,3.42-1,5.09-1.55.23-.08.24-.22,0-.32a1.36,1.36,0,0,0-.82-.05c-1.66.52-3.37,1-5.07,1.55-.24.07-.26.21,0,.31a1.31,1.31,0,0,0,.74.08Zm8.38-2.62c1.61-.53,3.22-1.07,4.79-1.62.22-.08.2-.21,0-.31a1.33,1.33,0,0,0-.81,0c-1.56.55-3.16,1.09-4.76,1.62-.23.07-.23.21,0,.31a1.45,1.45,0,0,0,.72.07ZM515.52,307a.91.91,0,0,0-.74-.21c-2.39.14-4.85.26-7.3.35-.34,0-.58.13-.52.27s.37.23.71.22c2.48-.09,5-.21,7.38-.35l.17,0C515.45,307.25,515.58,307.15,515.52,307Zm82.6-16.88c1.51-.55,3-1.12,4.48-1.68.21-.08.18-.22-.06-.31a1.29,1.29,0,0,0-.8,0c-1.46.56-3,1.12-4.47,1.67-.21.07-.19.21,0,.31a1.38,1.38,0,0,0,.7.06Zm-94.87,17.4c0-.14-.36-.24-.7-.23-2.45.06-5,.09-7.47.1-.35,0-.61.11-.59.25s.32.25.67.24c2.53,0,5.06,0,7.54-.1l.22,0C503.14,307.76,503.28,307.66,503.25,307.56ZM605.5,287.34c1.42-.56,2.83-1.14,4.2-1.72.19-.08.14-.22-.1-.31a1.33,1.33,0,0,0-.79,0c-1.36.58-2.77,1.15-4.19,1.72-.19.08-.16.21.08.3a1.28,1.28,0,0,0,.67.06ZM490.72,307.67c0-.13-.3-.25-.65-.25-2.48,0-5-.06-7.56-.13-.35,0-.64.1-.65.23s.27.26.62.27c2.55.06,5.12.11,7.62.13a1.2,1.2,0,0,0,.28,0C490.59,307.85,490.73,307.77,490.72,307.67ZM612.4,284.45c1.32-.57,2.63-1.16,3.92-1.75.17-.09.11-.22-.14-.3a1.2,1.2,0,0,0-.77,0c-1.28.59-2.59,1.18-3.9,1.75-.19.08-.14.22.11.31a1.44,1.44,0,0,0,.65,0A.4.4,0,0,0,612.4,284.45Zm6.44-2.94c1.23-.59,2.46-1.19,3.64-1.79.17-.08.1-.21-.16-.29a1.15,1.15,0,0,0-.76,0c-1.18.59-2.4,1.19-3.64,1.78-.17.08-.11.21.15.29a1.32,1.32,0,0,0,.62.05ZM478.06,307.4c0-.13-.24-.25-.6-.27-2.49-.09-5-.21-7.58-.34-.35,0-.67.07-.71.21s.22.26.57.28c2.56.14,5.14.25,7.65.35a1.69,1.69,0,0,0,.33,0C477.91,307.57,478.05,307.49,478.06,307.4Zm146.77-28.88c1.14-.6,2.29-1.21,3.39-1.82.15-.08.07-.21-.19-.28a1.15,1.15,0,0,0-.74,0c-1.11.61-2.25,1.21-3.39,1.81-.16.08-.08.21.18.29a1.37,1.37,0,0,0,.6,0A.53.53,0,0,0,624.83,278.52ZM465.37,306.77c.05-.13-.19-.26-.54-.28-2.49-.16-5-.35-7.56-.55-.35,0-.69.06-.76.19s.17.27.52.29c2.55.21,5.11.39,7.62.56a2.17,2.17,0,0,0,.37,0C465.21,306.92,465.34,306.86,465.37,306.77Zm165-31.28c1.06-.61,2.12-1.23,3.14-1.84.14-.09,0-.21-.22-.28a1,1,0,0,0-.73,0c-1,.61-2.07,1.22-3.13,1.83-.15.08-.06.21.2.29a1.44,1.44,0,0,0,.58,0ZM452.74,305.81c.08-.14-.14-.27-.49-.3-2.49-.23-5-.47-7.49-.73a1,1,0,0,0-.79.17c-.1.13.11.27.45.3,2.51.27,5.05.52,7.55.74a1.45,1.45,0,0,0,.42,0A.6.6,0,0,0,452.74,305.81Zm182.81-33.39c1-.62,2-1.24,2.89-1.86.13-.08,0-.21-.24-.28a1.09,1.09,0,0,0-.71,0c-.94.61-1.91,1.23-2.89,1.84-.14.09,0,.22.23.29a1.47,1.47,0,0,0,.55,0A.58.58,0,0,0,635.55,272.42Zm4.74-3.1c.9-.62,1.8-1.25,2.65-1.87.12-.08,0-.21-.26-.27a1,1,0,0,0-.7,0c-.85.62-1.75,1.25-2.65,1.86-.12.09,0,.21.26.28a1.37,1.37,0,0,0,.53,0A.38.38,0,0,0,640.29,269.32Zm-200,35.22c.1-.13-.1-.27-.44-.31-2.46-.29-4.94-.59-7.38-.91a1.16,1.16,0,0,0-.83.15c-.12.13.07.27.41.32,2.46.32,5,.63,7.43.91a1.75,1.75,0,0,0,.46,0A.64.64,0,0,0,440.24,304.54ZM644.63,266.2c.83-.62,1.64-1.26,2.41-1.88.11-.09,0-.21-.29-.27a.94.94,0,0,0-.67.05c-.78.62-1.59,1.25-2.41,1.87-.12.09,0,.21.27.27a1.34,1.34,0,0,0,.52,0A.54.54,0,0,0,644.63,266.2ZM427.93,303c.12-.13-.05-.27-.39-.32-2.4-.34-4.83-.69-7.24-1.07a1.2,1.2,0,0,0-.85.14c-.14.13,0,.27.35.32,2.42.37,4.87.74,7.29,1.07a1.67,1.67,0,0,0,.5,0A.77.77,0,0,0,427.93,303Zm220.64-39.92c.75-.63,1.48-1.26,2.17-1.89.1-.09,0-.2-.31-.26a.89.89,0,0,0-.66.06c-.69.62-1.42,1.25-2.17,1.88-.1.09,0,.2.3.26a1.37,1.37,0,0,0,.49,0A.38.38,0,0,0,648.57,263.06Zm-232.71,38.1c.15-.13,0-.27-.33-.33-2.36-.39-4.74-.79-7.06-1.21a1.27,1.27,0,0,0-.88.12c-.16.12,0,.26.29.32,2.34.42,4.74.83,7.12,1.22a1.63,1.63,0,0,0,.54,0A.74.74,0,0,0,415.86,301.16ZM652.1,259.91c.67-.63,1.32-1.27,1.93-1.89.08-.09-.07-.2-.34-.25a.84.84,0,0,0-.64.06c-.61.62-1.25,1.25-1.92,1.88-.09.09,0,.2.32.26a1.25,1.25,0,0,0,.47,0A.27.27,0,0,0,652.1,259.91Zm3.13-3.15c.58-.63,1.14-1.27,1.68-1.9.07-.09-.09-.2-.36-.25a.81.81,0,0,0-.62.07c-.53.63-1.1,1.27-1.68,1.89-.08.09.08.2.34.25a1.15,1.15,0,0,0,.45,0A.34.34,0,0,0,655.23,256.76ZM404.1,299.09c.17-.12,0-.26-.28-.32-2.29-.44-4.6-.89-6.87-1.35a1.44,1.44,0,0,0-.9.09c-.18.12-.07.27.25.33,2.27.47,4.6.93,6.91,1.36a1.56,1.56,0,0,0,.57,0A.86.86,0,0,0,404.1,299.09Zm253.84-45.5c.5-.63,1-1.27,1.43-1.9.07-.08-.1-.19-.37-.24s-.54,0-.6.08c-.45.63-.93,1.26-1.43,1.89-.07.09.09.2.36.25a1.57,1.57,0,0,0,.43,0A.3.3,0,0,0,657.94,253.59ZM392.67,296.81c.18-.12.08-.27-.23-.34-2.22-.47-4.45-1-6.64-1.47a1.54,1.54,0,0,0-.92.08c-.2.11-.11.26.19.33,2.21.51,4.46,1,6.69,1.49a1.73,1.73,0,0,0,.6,0A1.13,1.13,0,0,0,392.67,296.81Zm267.57-46.38c.42-.64.81-1.28,1.17-1.91.05-.09-.12-.19-.39-.23s-.53,0-.58.08c-.36.63-.76,1.27-1.17,1.9-.06.08.11.19.38.23a1.09,1.09,0,0,0,.4,0A.34.34,0,0,0,660.24,250.43ZM381.62,294.31c.2-.11.13-.26-.17-.33-2.16-.52-4.31-1.06-6.4-1.59a1.52,1.52,0,0,0-.93.06c-.22.11-.15.26.14.33,2.1.54,4.27,1.08,6.44,1.6a1.66,1.66,0,0,0,.63,0A1.1,1.1,0,0,0,381.62,294.31Zm280.49-47.06c.33-.63.63-1.27.9-1.9,0-.09-.15-.19-.42-.23s-.51,0-.55.09c-.27.63-.58,1.27-.91,1.9,0,.09.14.19.41.23a1.21,1.21,0,0,0,.38,0A.34.34,0,0,0,662.11,247.25Zm1.41-3.18c.09-.22.16-.44.24-.66.14-.41.27-.83.38-1.24,0-.09-.17-.19-.44-.22s-.5,0-.53.1c-.11.41-.24.83-.38,1.24l-.24.66c0,.08.16.18.43.22a1.36,1.36,0,0,0,.35,0C663.43,244.15,663.51,244.12,663.52,244.07ZM371,291.63c.23-.11.17-.26-.11-.34-2.07-.55-4.14-1.12-6.14-1.69a1.62,1.62,0,0,0-.93,0c-.23.1-.2.25.08.33,2,.58,4.09,1.15,6.17,1.71a1.63,1.63,0,0,0,.66,0A1,1,0,0,0,371,291.63ZM664.46,240.9a18.56,18.56,0,0,0,.32-1.91c0-.09-.19-.18-.46-.21s-.49,0-.5.11c-.08.63-.19,1.27-.33,1.9,0,.08.18.18.45.21a1.21,1.21,0,0,0,.33,0C664.37,241,664.45,241,664.46,240.9ZM360.8,288.76c.24-.1.21-.25-.06-.33-2-.59-3.95-1.19-5.85-1.79a1.67,1.67,0,0,0-.94,0c-.25.1-.23.25,0,.34,1.92.6,3.9,1.21,5.88,1.8a1.59,1.59,0,0,0,.69,0A.91.91,0,0,0,360.8,288.76Zm304.11-51c0-.63.06-1.27,0-1.9,0-.09-.22-.18-.48-.2s-.48,0-.47.11c0,.63,0,1.27,0,1.9,0,.08.2.18.47.2a1,1,0,0,0,.3,0C664.83,237.81,664.9,237.77,664.91,237.72Zm-313.82,48c.25-.1.25-.25,0-.33-1.89-.62-3.76-1.26-5.56-1.89a1.64,1.64,0,0,0-.93,0c-.27.09-.28.24,0,.33,1.82.63,3.69,1.27,5.59,1.9a1.83,1.83,0,0,0,.71,0Zm313.8-51.18c0-.63-.13-1.27-.23-1.9,0-.08-.24-.17-.5-.19s-.46,0-.45.12c.1.62.18,1.26.23,1.89,0,.08.22.17.49.19a1.22,1.22,0,0,0,.27,0C664.82,234.65,664.89,234.61,664.89,234.56Zm-323,48c.27-.09.29-.24,0-.33-1.78-.65-3.53-1.31-5.22-2a1.67,1.67,0,0,0-.94,0c-.27.08-.31.23-.07.32,1.7.66,3.47,1.33,5.26,2a1.53,1.53,0,0,0,.72.05ZM664.41,231.4c-.14-.62-.31-1.25-.5-1.88,0-.08-.26-.17-.52-.18s-.44,0-.41.13c.19.62.35,1.25.49,1.87,0,.09.25.17.51.19a1,1,0,0,0,.25,0C664.35,231.5,664.43,231.46,664.41,231.4ZM333.23,279.25c.28-.09.32-.23.09-.33-1.65-.67-3.3-1.35-4.88-2a1.67,1.67,0,0,0-.92,0c-.29.08-.35.22-.13.32,1.59.69,3.24,1.38,4.91,2.05a1.49,1.49,0,0,0,.74.06Zm330.25-51c-.23-.62-.49-1.25-.77-1.86,0-.09-.28-.17-.53-.18s-.43.05-.39.14c.28.61.54,1.23.76,1.85,0,.09.27.17.53.18h.22C663.43,228.38,663.51,228.33,663.48,228.27ZM325.16,275.82c.3-.08.36-.22.15-.32-1.53-.69-3.05-1.4-4.52-2.11a1.61,1.61,0,0,0-.91,0c-.3.08-.38.22-.18.32,1.47.71,3,1.42,4.54,2.12a1.58,1.58,0,0,0,.77.06ZM662.1,225.17c-.33-.62-.68-1.24-1.06-1.85,0-.09-.3-.16-.55-.17s-.41.06-.36.14c.38.61.73,1.23,1,1.84a.73.73,0,0,0,.54.17h.2C662.05,225.28,662.13,225.23,662.1,225.17ZM317.71,272.28c.31-.07.4-.21.2-.31-1.41-.72-2.8-1.44-4.13-2.17a1.56,1.56,0,0,0-.9-.05c-.31.07-.42.2-.23.3,1.34.73,2.73,1.46,4.15,2.18a1.39,1.39,0,0,0,.78.07Zm342.53-50.19c-.42-.61-.87-1.22-1.34-1.82a1,1,0,0,0-.56-.16c-.25,0-.39.07-.33.15.47.6.92,1.21,1.33,1.82a.93.93,0,0,0,.56.16h.17C660.21,222.21,660.28,222.16,660.24,222.09ZM310.91,268.65c.31-.07.42-.2.24-.31-1.28-.73-2.53-1.47-3.73-2.21a1.45,1.45,0,0,0-.88-.07c-.32.06-.45.19-.28.3,1.2.74,2.47,1.49,3.75,2.22a1.38,1.38,0,0,0,.79.09Zm347-49.59c-.52-.6-1.07-1.21-1.65-1.8a1,1,0,0,0-.57-.14c-.24,0-.37.07-.29.16.57.58,1.12,1.18,1.63,1.78a.91.91,0,0,0,.57.15h.15C657.89,219.18,658,219.13,657.9,219.06ZM304.77,264.94c.32-.06.46-.2.3-.3-1.15-.74-2.26-1.5-3.32-2.25a1.34,1.34,0,0,0-.86-.09c-.33.05-.48.18-.33.29,1.07.76,2.19,1.52,3.34,2.27a1.46,1.46,0,0,0,.8.09Zm350.28-48.86c-.63-.6-1.29-1.19-2-1.77a1.05,1.05,0,0,0-.59-.13c-.24,0-.35.08-.25.16.67.57,1.33,1.16,2,1.75a.93.93,0,0,0,.59.14h.11C655.05,216.2,655.12,216.14,655.05,216.08ZM299.33,261.16c.33-.05.49-.18.35-.29-1-.76-2-1.52-2.9-2.28a1.26,1.26,0,0,0-.83-.11c-.33,0-.5.18-.37.28.91.77,1.89,1.54,2.9,2.3a1.28,1.28,0,0,0,.81.11Zm352.32-48c-.74-.58-1.53-1.16-2.32-1.72a1.16,1.16,0,0,0-.61-.12c-.22,0-.31.09-.2.17.79.56,1.57,1.13,2.3,1.71a1.11,1.11,0,0,0,.6.13h.08C651.67,213.28,651.74,213.21,651.65,213.14Zm-357,44.19c.34-.05.51-.17.39-.28l-.81-.74c-.56-.51-1.11-1-1.63-1.56a1.22,1.22,0,0,0-.81-.12c-.36,0-.53.16-.42.27.52.52,1.07,1,1.64,1.57l.82.75a1.24,1.24,0,0,0,.81.11Zm353-47c-.87-.57-1.77-1.13-2.69-1.67a1.19,1.19,0,0,0-.62-.1c-.22,0-.28.1-.15.17.92.54,1.81,1.1,2.67,1.66a1.11,1.11,0,0,0,.61.11h0C647.71,210.43,647.77,210.35,647.66,210.28ZM291.08,253.2c-.71-.77-1.38-1.55-2-2.32a1.09,1.09,0,0,0-.78-.13c-.35,0-.55.15-.47.25.62.78,1.29,1.57,2,2.34a1.23,1.23,0,0,0,.8.13h0C291,253.42,291.17,253.31,291.08,253.2Zm352-45.69c-.58-.32-1.19-.64-1.79-.95l-1.31-.66a1.16,1.16,0,0,0-.62-.08c-.2,0-.24.11-.09.18.44.21.87.43,1.29.65l1.77.94a1.23,1.23,0,0,0,.62.1h0C643.12,207.66,643.17,207.58,643,207.51ZM287.91,249.33c-.55-.77-1.07-1.56-1.53-2.33-.06-.1-.4-.17-.74-.14s-.57.13-.51.24c.46.78,1,1.57,1.54,2.34.07.11.41.17.76.14h.06C287.8,249.53,288,249.43,287.91,249.33ZM637.68,205c.19,0,.21-.12.06-.19-1.14-.52-2.32-1-3.52-1.52a1.35,1.35,0,0,0-.63-.07c-.17,0-.18.12,0,.19,1.19.49,2.36,1,3.48,1.51a1.31,1.31,0,0,0,.6.08ZM285.51,245.45c-.39-.77-.75-1.55-1.06-2.32,0-.11-.36-.18-.7-.16s-.59.12-.55.23c.31.78.66,1.56,1.06,2.34.06.11.39.17.73.15h.1C285.38,245.64,285.56,245.55,285.51,245.45Zm346.23-42.92c.17,0,.16-.12,0-.19-1.29-.49-2.62-1-4-1.42a1.2,1.2,0,0,0-.62,0c-.15,0-.13.12.06.19,1.32.45,2.63.92,3.9,1.4a1.31,1.31,0,0,0,.56.06ZM283.9,241.59a19.63,19.63,0,0,1-.6-2.31c0-.1-.32-.18-.66-.17s-.61.11-.59.22a19.79,19.79,0,0,0,.6,2.32c0,.11.34.18.68.16h.14C283.74,241.77,283.93,241.68,283.9,241.59Zm341.19-41.37c.15-.05.11-.14-.09-.2-1.41-.44-2.87-.87-4.35-1.27a1.17,1.17,0,0,0-.61,0c-.13.05-.07.14.14.2,1.45.4,2.9.82,4.29,1.26a1.56,1.56,0,0,0,.52.05Zm-342,37.53a19.2,19.2,0,0,1-.13-2.27c0-.1-.28-.19-.62-.18s-.62.09-.62.2a19.78,19.78,0,0,0,.13,2.29c0,.1.3.18.64.17h.18C282.89,237.92,283.07,237.84,283.06,237.75Zm334.73-39.61c.12,0,0-.14-.17-.19-1.54-.39-3.12-.77-4.72-1.12a1,1,0,0,0-.58,0c-.1.05,0,.14.21.19,1.58.35,3.14.72,4.66,1.1a1.22,1.22,0,0,0,.46,0Zm-7.89-1.8c.09-.06,0-.15-.24-.19-1.63-.33-3.31-.64-5-.93a.89.89,0,0,0-.55,0c-.07.06.06.14.29.18,1.67.29,3.33.6,4.93.92a1.15,1.15,0,0,0,.41,0A.31.31,0,0,0,609.9,196.34ZM283,234a18.87,18.87,0,0,1,.32-2.24c0-.1-.24-.19-.58-.19s-.63.08-.65.18a22.2,22.2,0,0,0-.33,2.25c0,.11.26.19.6.19h.21C282.81,234.13,283,234.06,283,234Zm318.58-39.14c.06-.06-.08-.14-.32-.18-1.69-.26-3.44-.51-5.18-.74-.25,0-.47,0-.52.06s.12.15.36.18c1.73.23,3.45.47,5.12.73a1.11,1.11,0,0,0,.36,0A.34.34,0,0,0,601.58,194.84Zm-317.9,35.42a21.17,21.17,0,0,1,.77-2.19c0-.1-.2-.19-.53-.2s-.64.07-.68.17c-.3.73-.56,1.47-.78,2.2,0,.11.22.19.56.2h.25C283.49,230.4,283.66,230.34,283.68,230.26ZM593,193.66c0-.07-.14-.15-.38-.18-1.73-.2-3.51-.38-5.29-.55-.25,0-.45,0-.47.08s.17.15.42.17c1.76.17,3.52.36,5.23.55a1,1,0,0,0,.29,0C592.87,193.73,592.94,193.7,593,193.66Zm-307.86,33c.35-.72.75-1.43,1.18-2.14.07-.1-.15-.19-.48-.2s-.64.05-.7.15c-.44.71-.84,1.43-1.2,2.15,0,.1.18.19.51.2h.28C284.9,226.75,285.06,226.7,285.1,226.63Zm299.08-33.85c0-.07-.19-.15-.44-.17-1.74-.14-3.53-.27-5.32-.38-.25,0-.44,0-.43.1s.22.14.46.16c1.78.11,3.55.24,5.28.38H584C584.1,192.86,584.18,192.82,584.18,192.78Zm-8.84-.61c0-.07-.23-.14-.48-.15-1.74-.09-3.53-.17-5.32-.24-.24,0-.42.05-.39.12s.26.14.5.15c1.78.06,3.55.14,5.28.23h.2C575.27,192.26,575.35,192.23,575.34,192.17ZM287.21,223.09c.48-.69,1-1.39,1.59-2.08.08-.09-.12-.19-.44-.21a1.16,1.16,0,0,0-.72.13c-.57.7-1.11,1.4-1.6,2.09-.07.1.14.19.46.21a1.69,1.69,0,0,0,.32,0A.64.64,0,0,0,287.21,223.09Zm279.3-31.27c0-.08-.26-.14-.51-.15-1.73,0-3.51-.08-5.29-.1-.24,0-.4.05-.35.13a.81.81,0,0,0,.52.14c1.77,0,3.54,0,5.26.1h.17C566.45,191.92,566.54,191.87,566.51,191.82Zm-8.78-.14a.78.78,0,0,0-.53-.14c-1.73,0-3.49,0-5.25,0-.24,0-.39.07-.33.14a.85.85,0,0,0,.56.13c1.75,0,3.5,0,5.21,0h.14C557.69,191.79,557.78,191.74,557.73,191.68ZM290,219.65c.61-.67,1.27-1.35,2-2,.1-.09-.08-.19-.39-.21a1.1,1.1,0,0,0-.73.12c-.7.66-1.36,1.34-2,2-.09.1.1.19.41.22a2,2,0,0,0,.35,0A.67.67,0,0,0,290,219.65Zm259-27.93a1,1,0,0,0-.56-.12c-1.71,0-3.46.06-5.2.11-.24,0-.37.07-.3.15a1,1,0,0,0,.57.12c1.74,0,3.48-.08,5.18-.11h.11C549,191.84,549.08,191.79,549,191.72Zm-8.64.22a1,1,0,0,0-.58-.12c-1.69.06-3.43.12-5.16.2-.24,0-.36.08-.27.15a1,1,0,0,0,.59.12c1.72-.08,3.45-.14,5.14-.2h.08C540.36,192.06,540.45,192,540.38,191.94Zm-8.57.36a1,1,0,0,0-.59-.12l-5.12.28c-.24,0-.35.09-.26.16a1,1,0,0,0,.61.11l5.1-.28h.06C531.8,192.43,531.89,192.36,531.81,192.3Zm-8.51.48a1.21,1.21,0,0,0-.6-.11l-5.09.35c-.24,0-.34.1-.24.17a1.21,1.21,0,0,0,.62.11l5.07-.36h.05C523.31,192.92,523.4,192.85,523.3,192.78Zm-8.45.6a1.22,1.22,0,0,0-.62-.1l-3,.24c-.68.06-1.37.11-2.05.15-.25,0-.35.1-.25.17a1.13,1.13,0,0,0,.61.11l2.09-.16,3-.24h0C514.86,193.53,515,193.45,514.85,193.38Zm-8.55.6a1,1,0,0,0-.59-.12c-1.76.07-3.57.11-5.37.12-.26,0-.42.06-.37.14a.81.81,0,0,0,.55.14c1.84,0,3.69,0,5.48-.12h.08C506.28,194.11,506.38,194.05,506.3,194ZM293.37,216.33c.72-.65,1.5-1.3,2.3-1.94.11-.09,0-.18-.34-.22a1.3,1.3,0,0,0-.75.11c-.81.64-1.59,1.29-2.33,1.94-.1.09.07.19.37.22H293A.81.81,0,0,0,293.37,216.33Zm203.82-22.24c0-.08-.26-.14-.52-.15-1.83,0-3.71-.11-5.59-.22-.26,0-.48,0-.48.11s.2.15.46.17c1.92.11,3.84.18,5.7.22h.18C497.1,194.2,497.21,194.15,497.19,194.09Zm-9.42-.45c0-.07-.17-.15-.43-.17-1.81-.14-3.68-.32-5.57-.52a.8.8,0,0,0-.56.08c0,.08.11.16.37.18,1.92.21,3.83.39,5.67.53h.27C487.65,193.72,487.75,193.69,487.77,193.64ZM297.32,213.13c.83-.62,1.71-1.25,2.62-1.86.12-.09,0-.19-.3-.22a1.32,1.32,0,0,0-.76.09c-.91.61-1.8,1.24-2.64,1.87-.12.08,0,.18.33.21a1.34,1.34,0,0,0,.4,0A.88.88,0,0,0,297.32,213.13Zm181.11-20.42c.07-.07-.08-.15-.34-.18-1.74-.22-3.57-.47-5.44-.74a1,1,0,0,0-.6.06c-.09.07,0,.16.29.19,1.89.28,3.74.52,5.51.74a1.31,1.31,0,0,0,.34,0A.37.37,0,0,0,478.43,192.71ZM301.79,210.05c.93-.59,1.9-1.19,2.9-1.78.14-.08,0-.18-.26-.22a1.36,1.36,0,0,0-.76.08c-1,.59-2,1.19-2.93,1.79-.13.08,0,.18.29.22a2,2,0,0,0,.42,0A.69.69,0,0,0,301.79,210.05Zm167.57-18.6c.09-.07,0-.16-.28-.2-1.68-.26-3.41-.54-5.28-.86a1.25,1.25,0,0,0-.64,0c-.1.07,0,.15.25.19,1.89.33,3.64.61,5.33.88a1.71,1.71,0,0,0,.39,0A.58.58,0,0,0,469.36,191.45ZM306.72,207.11c1-.57,2.08-1.14,3.16-1.7.15-.08.05-.18-.22-.22a1.39,1.39,0,0,0-.76.06c-1.09.56-2.17,1.14-3.19,1.71-.14.08,0,.18.24.22a2.27,2.27,0,0,0,.45,0A.83.83,0,0,0,306.72,207.11ZM460.56,190c.11-.07,0-.15-.24-.2-1.53-.27-3.17-.56-5.17-.93a1.32,1.32,0,0,0-.65,0c-.11.06,0,.15.22.19l5.2.94a1.49,1.49,0,0,0,.42,0A.6.6,0,0,0,460.56,190ZM312.07,204.3c1.09-.54,2.23-1.09,3.38-1.63.16-.07.08-.17-.18-.21a1.55,1.55,0,0,0-.76,0c-1.17.54-2.31,1.09-3.41,1.63-.16.08-.07.18.2.23a2.46,2.46,0,0,0,.47,0A1,1,0,0,0,312.07,204.3Zm5.71-2.68c1.17-.52,2.37-1,3.59-1.55.17-.07.1-.17-.15-.22a1.56,1.56,0,0,0-.76,0c-1.23.51-2.44,1-3.61,1.55-.17.08-.09.17.17.22a1.55,1.55,0,0,0,.48,0A1,1,0,0,0,317.78,201.62Zm134.14-13.2c.12-.07,0-.15-.22-.2l-.18,0-5-.91a1.22,1.22,0,0,0-.65,0c-.11.07,0,.15.22.2l5,.91.18,0a1.5,1.5,0,0,0,.42,0A.8.8,0,0,0,451.92,188.42Zm-128.1,10.65c1.22-.49,2.48-1,3.76-1.47.18-.07.12-.17-.12-.22a1.6,1.6,0,0,0-.76,0c-1.28.48-2.55,1-3.78,1.47-.17.07-.11.17.14.22a1.67,1.67,0,0,0,.5,0ZM443.3,186.85c.11-.07,0-.15-.23-.19-1.9-.34-3.61-.64-5.23-.91a1.25,1.25,0,0,0-.64,0c-.11.07,0,.15.24.19l5.21.9a1.5,1.5,0,0,0,.42,0A.89.89,0,0,0,443.3,186.85Zm-113.16,9.79c1.28-.47,2.59-.94,3.9-1.4l.07,0c.18-.06.14-.16-.1-.21a1.45,1.45,0,0,0-.75,0l-.06,0c-1.32.46-2.64.93-3.93,1.4-.18.06-.13.16.11.21a1.73,1.73,0,0,0,.51,0A1.37,1.37,0,0,0,330.14,196.64Zm104.42-11.28c.1-.06,0-.15-.26-.19-1.89-.3-3.66-.56-5.4-.8a1.13,1.13,0,0,0-.62,0c-.09.07,0,.15.29.19,1.73.24,3.48.5,5.35.8a1.8,1.8,0,0,0,.4,0A.64.64,0,0,0,434.56,185.36Zm-97.81,8.95c1.34-.45,2.7-.9,4-1.32.18-.07.15-.16-.07-.22a1.72,1.72,0,0,0-.75,0c-1.33.43-2.69.88-4,1.34-.19.06-.15.15.08.21a2.29,2.29,0,0,0,.53,0A.71.71,0,0,0,336.75,194.31Zm6.75-2.19c1.39-.43,2.78-.85,4.15-1.25.19-.06.17-.15,0-.21a1.54,1.54,0,0,0-.74,0c-1.37.4-2.78.82-4.17,1.26-.19.06-.17.15.05.21a1.61,1.61,0,0,0,.54,0Zm82.05-8.06c.08-.07-.06-.15-.32-.18-1.91-.25-3.8-.46-5.63-.65a1,1,0,0,0-.58.08c-.06.08.1.15.36.18,1.8.18,3.67.4,5.56.63a1.38,1.38,0,0,0,.35,0A.63.63,0,0,0,425.55,184.06Zm-75.09,6c1.44-.41,2.89-.8,4.31-1.17.2-.06.2-.15,0-.21a1.5,1.5,0,0,0-.73,0c-1.42.37-2.88.77-4.33,1.17-.2.06-.19.15,0,.21a1.64,1.64,0,0,0,.55,0Zm65.72-7c.05-.07-.13-.14-.4-.17-1.95-.16-3.91-.29-5.82-.39-.27,0-.5,0-.52.11s.19.15.46.16c1.87.1,3.8.23,5.72.39h.28C416,183.13,416.15,183.1,416.18,183.05Zm-58.48,5.09c1.5-.37,3-.73,4.5-1.07.22,0,.24-.14.05-.2a1.63,1.63,0,0,0-.73,0c-1.5.34-3,.7-4.54,1.08-.2.05-.21.14,0,.2a1.67,1.67,0,0,0,.56,0Zm7.58-1.74c1.59-.33,3.19-.65,4.75-.94.23,0,.27-.12.11-.19a1.54,1.54,0,0,0-.72-.05c-1.58.29-3.19.61-4.79.95-.22,0-.25.13-.07.2a1.59,1.59,0,0,0,.59,0Zm41.25-3.91c0-.08-.22-.14-.49-.15-2-.06-3.94-.08-5.89-.07-.27,0-.45.06-.42.14a.84.84,0,0,0,.55.13c1.91,0,3.85,0,5.77.07h.19C406.42,182.59,406.54,182.54,406.53,182.49Zm-33.23,2.4c1.68-.28,3.38-.54,5-.77.24,0,.32-.11.18-.18a1.47,1.47,0,0,0-.69-.07c-1.68.23-3.4.49-5.11.78-.23,0-.29.12-.13.19a1.46,1.46,0,0,0,.61.06Zm23.55-2.43a1,1,0,0,0-.59-.13c-1.9.06-3.83.14-5.73.26-.26,0-.4.09-.31.17a1.16,1.16,0,0,0,.63.1c1.86-.11,3.76-.2,5.62-.25h.09C396.77,182.58,396.9,182.52,396.85,182.46Zm-15,1.22c1.56-.18,3.13-.34,4.68-.48l.68-.06h0c.25,0,.37-.1.26-.18a1.28,1.28,0,0,0-.65-.09l-.64.06c-1.58.14-3.2.3-4.8.49-.25,0-.34.11-.22.18a1.32,1.32,0,0,0,.64.09Z"/><path class="cls-5" d="M355.66,241.29l-.23,0c-3-.53-6.1-1.08-9.09-1.63-.41-.08-.59-.27-.39-.43a1.61,1.61,0,0,1,1.1-.16c3,.55,6,1.1,9.06,1.63.41.07.6.26.41.43A1.37,1.37,0,0,1,355.66,241.29Zm-15.06-2.75-.26,0-8.93-1.75c-.41-.08-.57-.28-.36-.44a1.62,1.62,0,0,1,1.11-.14c2.91.58,5.91,1.17,8.91,1.74.41.08.58.27.38.44A1.54,1.54,0,0,1,340.6,238.54Zm-14.81-2.95a2.4,2.4,0,0,1-.28,0c-2.94-.61-5.89-1.24-8.77-1.87-.4-.09-.55-.29-.33-.44a1.65,1.65,0,0,1,1.13-.13c2.88.63,5.82,1.26,8.74,1.86.41.09.56.28.35.44A1.46,1.46,0,0,1,325.79,235.59Zm-14.54-3.15a1.06,1.06,0,0,1-.31,0c-2.89-.65-5.78-1.32-8.59-2-.39-.09-.52-.29-.28-.44a1.69,1.69,0,0,1,1.14-.11c2.79.66,5.67,1.33,8.56,2,.4.09.53.29.3.44A1.42,1.42,0,0,1,311.25,232.44ZM297,229.09a1.63,1.63,0,0,1-.33-.05c-2.83-.69-5.65-1.4-8.4-2.12-.38-.09-.48-.3-.23-.45a1.74,1.74,0,0,1,1.15-.09c2.73.71,5.54,1.42,8.35,2.11.39.1.51.3.27.45A1.51,1.51,0,0,1,297,229.09Zm-13.89-3.57a2.08,2.08,0,0,1-.36-.05c-2.74-.74-5.49-1.5-8.16-2.26-.37-.11-.45-.31-.18-.45a1.8,1.8,0,0,1,1.16-.08c2.65.76,5.39,1.51,8.12,2.25.38.1.47.3.21.45A1.56,1.56,0,0,1,283.13,225.52Zm-13.48-3.8a2.28,2.28,0,0,1-.39-.06l-4.63-1.39-3.25-1c-.36-.11-.41-.32-.12-.46a1.76,1.76,0,0,1,1.16,0l3.23,1,4.61,1.38c.36.11.43.31.16.45A1.52,1.52,0,0,1,269.65,221.72Zm444.24,22a1.23,1.23,0,0,1-.61-.17c-.23-.15-.09-.35.31-.44,2.87-.63,5.76-1.29,8.6-2a1.69,1.69,0,0,1,1.14.12c.23.15.1.35-.29.44-2.85.67-5.76,1.33-8.64,2A2.85,2.85,0,0,1,713.89,243.74Zm-457.17-26.1a1.91,1.91,0,0,1-.44-.08c-2.47-.85-4.95-1.74-7.36-2.65-.33-.13-.34-.33,0-.46a1.8,1.8,0,0,1,1.17,0c2.39.91,4.85,1.79,7.3,2.63.35.12.38.33.08.46A1.68,1.68,0,0,1,256.72,217.64Zm471.46,22.78a1.3,1.3,0,0,1-.59-.15c-.24-.15-.13-.35.26-.45,2.8-.68,5.62-1.39,8.38-2.1a1.69,1.69,0,0,1,1.15.1c.25.15.14.35-.24.44-2.77.72-5.6,1.43-8.41,2.11A2,2,0,0,1,728.18,240.42Zm-483.5-27.26a1.47,1.47,0,0,1-.49-.1c-2.3-.93-4.59-1.89-6.81-2.87-.3-.13-.27-.34.07-.46a1.8,1.8,0,0,1,1.17,0c2.2,1,4.48,1.93,6.76,2.85.32.13.31.33,0,.46A1.81,1.81,0,0,1,244.68,213.16Zm497.44,23.7a1.34,1.34,0,0,1-.58-.14c-.25-.15-.16-.35.22-.45,2.73-.73,5.47-1.48,8.17-2.24a1.8,1.8,0,0,1,1.16.08c.26.14.18.35-.19.45-2.71.76-5.47,1.52-8.21,2.25A1.78,1.78,0,0,1,742.12,236.86ZM233.54,208.33a1.33,1.33,0,0,1-.52-.12c-2.12-1-4.23-2-6.28-3.05-.28-.14-.22-.34.15-.45a1.75,1.75,0,0,1,1.16.06c2,1,4.13,2,6.23,3,.3.13.25.34-.1.45A1.87,1.87,0,0,1,233.54,208.33Zm522.15,24.75a1.28,1.28,0,0,1-.56-.13c-.27-.14-.19-.34.17-.45,2.65-.77,5.32-1.57,7.93-2.36a1.85,1.85,0,0,1,1.17.05c.28.15.21.35-.15.46-2.63.8-5.3,1.6-8,2.37A2,2,0,0,1,755.69,233.08Zm-532.4-29.87a1.65,1.65,0,0,1-.56-.13c-1.95-1.05-3.89-2.13-5.76-3.21-.25-.15-.16-.35.22-.45a1.75,1.75,0,0,1,1.15.09c1.86,1.07,3.78,2.14,5.72,3.18.27.15.19.35-.18.46A1.91,1.91,0,0,1,223.29,203.21ZM768.85,229.1a1.43,1.43,0,0,1-.54-.12c-.28-.14-.23-.35.13-.46,2.58-.81,5.17-1.65,7.68-2.48a1.94,1.94,0,0,1,1.17,0c.29.14.25.34-.1.46-2.53.83-5.12,1.67-7.71,2.49A1.85,1.85,0,0,1,768.85,229.1ZM213.9,197.84a1.25,1.25,0,0,1-.59-.15c-1.77-1.08-3.53-2.21-5.23-3.33-.23-.15-.1-.35.29-.45a1.66,1.66,0,0,1,1.13.12c1.69,1.12,3.44,2.23,5.21,3.31.24.15.13.35-.25.45A2.05,2.05,0,0,1,213.9,197.84Zm567.69,27.08a1.53,1.53,0,0,1-.51-.11c-.3-.13-.26-.34.08-.46,2.49-.85,5-1.72,7.43-2.58a1.8,1.8,0,0,1,1.17,0c.3.13.28.34-.06.46-2.44.87-5,1.74-7.46,2.59A1.68,1.68,0,0,1,781.59,224.92ZM205.37,192.26a1.23,1.23,0,0,1-.61-.16c-1.61-1.13-3.2-2.29-4.73-3.45-.21-.16-.05-.36.36-.44a1.63,1.63,0,0,1,1.11.14c1.52,1.15,3.1,2.31,4.7,3.43.23.16.08.35-.31.44A1.83,1.83,0,0,1,205.37,192.26Zm588.54,28.3a1.48,1.48,0,0,1-.5-.1c-.31-.13-.29-.33,0-.46,2.39-.88,4.8-1.78,7.16-2.69a1.87,1.87,0,0,1,1.17,0c.32.13.32.34,0,.46-2.37.91-4.78,1.82-7.19,2.71A1.63,1.63,0,0,1,793.91,220.56ZM197.68,186.49a1.15,1.15,0,0,1-.63-.18c-1.45-1.17-2.87-2.36-4.22-3.55-.19-.17,0-.36.42-.43a1.58,1.58,0,0,1,1.09.16c1.34,1.19,2.76,2.38,4.19,3.54.2.16,0,.35-.38.43A1.83,1.83,0,0,1,197.68,186.49ZM805.77,216a1.64,1.64,0,0,1-.47-.09c-.33-.13-.33-.33,0-.46,2.33-.92,4.65-1.87,6.91-2.81a1.87,1.87,0,0,1,1.17,0c.33.12.35.33,0,.46-2.26.94-4.6,1.89-6.93,2.82A1.92,1.92,0,0,1,805.77,216ZM190.84,180.55a1.13,1.13,0,0,1-.66-.19c-1.27-1.2-2.52-2.43-3.69-3.65-.17-.17,0-.35.48-.42a1.44,1.44,0,0,1,1.06.19c1.17,1.21,2.41,2.43,3.68,3.63.18.16,0,.35-.44.42A2.07,2.07,0,0,1,190.84,180.55Zm626.37,30.76a2,2,0,0,1-.45-.08c-.33-.12-.36-.33,0-.46,2.23-1,4.46-1.94,6.62-2.91a1.8,1.8,0,0,1,1.17,0c.35.11.38.32.08.45-2.17,1-4.41,2-6.65,2.93A1.8,1.8,0,0,1,817.21,211.31ZM184.87,174.46a1,1,0,0,1-.67-.21c-1.11-1.23-2.17-2.49-3.16-3.72-.14-.18.1-.36.54-.41a1.33,1.33,0,0,1,1,.21c1,1.23,2,2.48,3.14,3.71.15.16-.08.35-.51.41A1.63,1.63,0,0,1,184.87,174.46Zm643.3,31.95a1.37,1.37,0,0,1-.42-.07c-.35-.12-.4-.32-.1-.46,2.14-1,4.27-2,6.31-3a1.85,1.85,0,0,1,1.17-.05c.35.11.41.31.12.45-2,1-4.18,2-6.34,3A1.56,1.56,0,0,1,828.17,206.41ZM179.81,168.25a1,1,0,0,1-.69-.23c-.92-1.26-1.79-2.53-2.58-3.79-.11-.17.16-.35.6-.39s.89.06,1,.24c.79,1.25,1.66,2.51,2.57,3.76.13.17-.12.35-.56.4A1.3,1.3,0,0,1,179.81,168.25Zm658.8,33.1a1.67,1.67,0,0,1-.4-.07c-.36-.11-.42-.31-.14-.45,2-1,4-2.08,6-3.12a1.87,1.87,0,0,1,1.16-.07c.37.11.45.31.18.45-2,1-4,2.1-6,3.13A1.6,1.6,0,0,1,838.61,201.35Zm-662.9-39.41a.94.94,0,0,1-.7-.25c-.72-1.28-1.39-2.57-2-3.84-.08-.18.21-.35.66-.38s.88.08,1,.26c.58,1.26,1.24,2.55,2,3.82.1.17-.18.35-.63.39Zm672.78,34.17a2,2,0,0,1-.37-.06c-.37-.1-.46-.3-.2-.45,1.92-1.07,3.81-2.15,5.62-3.22a1.82,1.82,0,0,1,1.15-.09c.38.1.48.3.23.45-1.82,1.08-3.72,2.16-5.65,3.24A1.66,1.66,0,0,1,848.49,196.11ZM172.64,155.54c-.35,0-.65-.13-.7-.27a38.79,38.79,0,0,1-1.32-3.89c-.05-.18.28-.34.73-.36s.86.11.91.29c.36,1.27.8,2.57,1.31,3.86.07.18-.24.34-.69.37ZM857.75,190.7a1.27,1.27,0,0,1-.34,0c-.38-.09-.5-.29-.25-.44,1.79-1.11,3.55-2.22,5.22-3.32a1.61,1.61,0,0,1,1.13-.11c.4.09.53.29.29.44-1.68,1.11-3.44,2.23-5.24,3.34A1.51,1.51,0,0,1,857.75,190.7Zm8.57-5.58a1,1,0,0,1-.3,0c-.39-.08-.53-.28-.31-.44,1.64-1.13,3.24-2.28,4.77-3.42a1.65,1.65,0,0,1,1.12-.14c.4.09.56.28.34.44-1.53,1.15-3.14,2.3-4.79,3.44A1.43,1.43,0,0,1,866.32,185.12ZM170.69,149.07c-.37,0-.68-.14-.71-.29a33.77,33.77,0,0,1-.59-3.92c0-.18.34-.33.8-.33s.84.13.86.31a33.06,33.06,0,0,0,.58,3.88c0,.18-.3.34-.76.35A.54.54,0,0,1,170.69,149.07Zm703.43,30.3a1.15,1.15,0,0,1-.26,0c-.41-.08-.57-.27-.37-.43,1.48-1.18,2.91-2.36,4.25-3.53a1.56,1.56,0,0,1,1.09-.16c.42.08.6.27.42.43-1.35,1.17-2.78,2.36-4.28,3.54A1.38,1.38,0,0,1,874.12,179.37ZM170,142.57c-.4,0-.72-.16-.72-.32a30.16,30.16,0,0,1,.23-3.93c0-.18.41-.31.87-.31s.81.17.79.34a29.65,29.65,0,0,0-.23,3.89c0,.18-.37.33-.83.33ZM881,173.45l-.21,0c-.42-.07-.62-.26-.44-.43,1.29-1.21,2.52-2.42,3.64-3.62a1.45,1.45,0,0,1,1.07-.19c.43.06.64.25.49.42-1.14,1.2-2.38,2.43-3.68,3.64A1.31,1.31,0,0,1,881,173.45ZM170.66,136.06c-.44,0-.76-.17-.72-.35.22-1,.5-2,.82-3l.33-.94c.07-.17.48-.3.93-.27h0c.45,0,.77.19.7.37l-.33.92a30.49,30.49,0,0,0-.81,2.94c0,.18-.44.31-.89.29Zm716.25,31.3-.16,0c-.43-.05-.67-.24-.52-.41,1.06-1.24,2-2.49,2.94-3.71a1.24,1.24,0,0,1,1-.23c.44,0,.7.23.57.4-.89,1.24-1.89,2.5-3,3.75A1.26,1.26,0,0,1,886.91,167.36Zm-714-37.75h0c-.45,0-.75-.21-.66-.38a32,32,0,0,1,2.2-3.83c.11-.18.56-.28,1-.24s.7.23.59.4a33.64,33.64,0,0,0-2.18,3.79C173.74,129.52,173.34,129.63,172.9,129.61Zm718.66,31.5h-.09c-.45,0-.72-.22-.61-.39a38.22,38.22,0,0,0,2.1-3.8c.08-.18.53-.29,1-.26s.74.2.66.38a36.72,36.72,0,0,1-2.12,3.83C892.37,161,892,161.13,891.56,161.11ZM176.92,123.3h-.14c-.43-.06-.68-.24-.54-.41a41.28,41.28,0,0,1,3.37-3.7,1.47,1.47,0,0,1,1.08-.18c.43.06.63.25.46.42a41.63,41.63,0,0,0-3.33,3.65A1.19,1.19,0,0,1,176.92,123.3Zm717.83,31.42h0c-.45,0-.76-.19-.7-.37l.27-.75a27,27,0,0,0,.82-3.11c0-.18.43-.31.89-.3s.79.17.76.35a25.15,25.15,0,0,1-.83,3.14l-.27.77C895.61,154.62,895.2,154.74,894.75,154.72ZM182.93,117.23l-.25,0c-.41-.08-.59-.27-.4-.44,1.44-1.19,3-2.36,4.66-3.48a1.72,1.72,0,0,1,1.13-.12c.4.09.53.29.3.45a55.92,55.92,0,0,0-4.59,3.43A1.38,1.38,0,0,1,182.93,117.23Zm713.26,31c-.41,0-.73-.17-.72-.33a20,20,0,0,0-.11-3.88c0-.18.32-.33.78-.34s.84.12.87.3a19.81,19.81,0,0,1,.12,3.93c0,.18-.4.33-.85.32ZM191.07,111.57l-.35,0c-.38-.1-.48-.31-.23-.45,1.87-1.1,3.88-2.16,6-3.16a1.86,1.86,0,0,1,1.17,0c.35.12.4.32.11.46-2.06,1-4,2-5.88,3.11A1.71,1.71,0,0,1,191.07,111.57Zm10.31-5.08a1.57,1.57,0,0,1-.46-.09c-.33-.12-.35-.33,0-.46,2.29-1,4.72-1.87,7.24-2.72a1.77,1.77,0,0,1,1.16,0c.3.13.27.34-.08.46-2.47.84-4.87,1.74-7.11,2.68A1.77,1.77,0,0,1,201.38,106.49Zm694.16,35.25c-.37,0-.67-.14-.72-.29a19.46,19.46,0,0,0-1.52-3.83c-.09-.17.2-.35.64-.38s.89.08,1,.25a20.1,20.1,0,0,1,1.55,3.89c0,.18-.28.34-.73.36ZM213.7,102.15a1.65,1.65,0,0,1-.55-.13c-.27-.14-.2-.35.16-.45,2.64-.79,5.43-1.53,8.29-2.22a1.7,1.7,0,0,1,1.14.11c.23.15.11.35-.28.44-2.81.68-5.55,1.41-8.15,2.18A1.73,1.73,0,0,1,213.7,102.15Zm678.76,33.2a1,1,0,0,1-.69-.24,27.86,27.86,0,0,0-3.09-3.67c-.16-.17.05-.36.47-.42a1.42,1.42,0,0,1,1.07.18,28.94,28.94,0,0,1,3.15,3.74c.12.17-.14.35-.58.4ZM227.69,98.66a1.18,1.18,0,0,1-.63-.17c-.21-.16-.06-.35.35-.44,2.9-.6,6-1.17,9.06-1.68a1.47,1.47,0,0,1,1.08.18c.18.16,0,.35-.44.42-3.06.51-6.07,1.06-8.93,1.66A2,2,0,0,1,227.69,98.66Zm266.47,11.81c-3-.16-6.09-.33-9.07-.52-.45,0-.76-.19-.69-.37s.48-.29.93-.27h0c3,.18,6,.36,9,.51l.82,0c.44,0,.77.19.71.37s-.47.3-.92.28Zm7.42.35c-.45,0-.77-.18-.72-.36s.46-.3.92-.28c3.25.14,6.58.27,9.9.38.45,0,.79.18.75.36s-.44.31-.9.29c-3.33-.11-6.67-.25-9.94-.39Zm-23-1.29h0c-3.29-.23-6.59-.47-9.81-.73-.45,0-.74-.2-.65-.38s.51-.29,1-.25c3.2.25,6.49.5,9.76.72.45,0,.75.2.67.38S479,109.55,478.56,109.53Zm39.56,1.89c-.43,0-.75-.17-.71-.35s.42-.31.88-.3c3.27.1,6.61.18,9.93.24.46,0,.81.17.79.35s-.41.31-.87.3c-3.33-.06-6.69-.15-10-.24Zm-55.84-3.16h-.07c-3.25-.29-6.52-.6-9.71-.92-.44,0-.71-.22-.6-.39s.56-.28,1-.24c3.18.32,6.43.63,9.66.91.44,0,.73.22.63.39S462.7,108.28,462.28,108.26Zm72.44,3.52c-.42,0-.74-.17-.72-.34s.4-.32.86-.31c3.26.05,6.61.09,9.95.11.46,0,.82.15.81.33s-.38.32-.84.32c-3.35,0-6.71-.06-10-.11Zm-88.54-5.1h-.11c-3.21-.35-6.43-.73-9.58-1.11-.44-.06-.68-.24-.54-.41a1.31,1.31,0,0,1,1-.21c3.14.38,6.34.75,9.53,1.1.44,0,.7.23.57.4A1.17,1.17,0,0,1,446.18,106.68Zm440.55,22.57a1.23,1.23,0,0,1-.65-.18,46.92,46.92,0,0,0-4.69-3.41c-.23-.15-.11-.35.28-.44a1.7,1.7,0,0,1,1.14.1,49.77,49.77,0,0,1,4.77,3.47c.2.16,0,.35-.39.43A1.78,1.78,0,0,1,886.73,129.25ZM242.87,96.06a1.18,1.18,0,0,1-.68-.21c-.15-.17.08-.36.51-.42,3.08-.43,6.3-.82,9.56-1.16a1.23,1.23,0,0,1,1,.23c.12.17-.14.35-.58.39-3.22.34-6.39.73-9.44,1.15A2.48,2.48,0,0,1,242.87,96.06Zm308.47,15.86c-.41,0-.72-.16-.72-.33s.38-.32.83-.32c3.26,0,6.61,0,10,0,.46,0,.84.14.84.32s-.36.33-.82.33c-3.36,0-6.72,0-10,0Zm16.63,0c-.4,0-.71-.16-.72-.32s.35-.33.81-.33l10-.12c.45,0,.84.14.85.32s-.34.33-.79.33l-10,.12Zm-137.66-7.11h-.15c-3.16-.42-6.32-.86-9.41-1.32-.43-.06-.65-.25-.48-.42a1.48,1.48,0,0,1,1.06-.19c3.07.46,6.22.9,9.36,1.31.43.06.66.24.52.41A1.27,1.27,0,0,1,430.31,104.76Zm154.29,6.88c-.39,0-.7-.14-.71-.3s.33-.33.78-.34l10-.21c.45,0,.85.13.87.31s-.32.33-.78.34l-10,.21Zm-169.86-9.09-.18,0c-3.12-.44-6.27-.88-9.37-1.3-.43,0-.66-.24-.52-.41a1.4,1.4,0,0,1,1.06-.2c3.11.42,6.27.86,9.4,1.3.43.07.65.25.49.42A1.23,1.23,0,0,1,414.74,102.55ZM258.81,94.29a.94.94,0,0,1-.7-.26c-.1-.17.19-.34.63-.38,3.19-.27,6.5-.51,9.84-.71.46,0,.88.1.95.28s-.25.34-.7.36c-3.31.2-6.58.43-9.73.7Zm342.4,17c-.39,0-.69-.15-.72-.3s.31-.34.77-.35c3.32-.08,6.63-.18,9.93-.28.45,0,.85.12.89.3s-.31.34-.77.35l-9.94.28ZM399.06,100.42l-.16,0c-3.16-.41-6.34-.81-9.47-1.19-.43,0-.68-.23-.54-.4a1.34,1.34,0,0,1,1-.22c3.14.38,6.33.78,9.5,1.2.44,0,.67.24.53.41A1.26,1.26,0,0,1,399.06,100.42ZM275.18,93.25c-.37,0-.67-.13-.71-.28s.27-.34.73-.36c3.24-.14,6.59-.24,10-.31.47,0,.85.13.87.31s-.32.33-.78.34c-3.34.07-6.67.17-9.87.3A.67.67,0,0,1,275.18,93.25Zm342.58,17.54c-.37,0-.68-.14-.71-.29s.3-.34.75-.35l9.92-.34c.46,0,.86.11.9.29s-.29.34-.75.35l-9.93.34ZM383.21,98.47h-.12c-3.2-.36-6.42-.72-9.57-1-.44,0-.7-.23-.59-.4a1.25,1.25,0,0,1,1-.23c3.16.33,6.39.69,9.6,1.06.44,0,.69.23.56.4A1.14,1.14,0,0,1,383.21,98.47Zm495.12,25.17a1.33,1.33,0,0,1-.57-.13c-1.89-1-4-2.05-6.15-3-.3-.13-.27-.33.07-.45a1.87,1.87,0,0,1,1.17,0c2.23,1,4.33,2,6.26,3.08.26.15.18.35-.19.46A1.91,1.91,0,0,1,878.33,123.64ZM367.2,96.75h-.09c-3.25-.33-6.51-.63-9.67-.91-.44,0-.72-.22-.62-.39s.54-.28,1-.25c3.17.29,6.44.59,9.7.92.45,0,.71.22.6.39A1.13,1.13,0,0,1,367.2,96.75Zm-75.47-3.89c-.4,0-.71-.16-.72-.32s.36-.33.82-.33c3.25,0,6.61,0,10,0,.46,0,.81.16.8.34s-.39.32-.85.31c-3.35,0-6.69,0-9.92,0ZM634.3,110.21c-.37,0-.68-.14-.71-.29s.29-.34.74-.36l9.91-.38c.46,0,.86.11.91.29s-.29.33-.74.35l-9.92.39ZM351,95.29H351c-3.27-.27-6.56-.52-9.76-.74-.45,0-.75-.2-.67-.38s.52-.29,1-.26c3.22.22,6.52.47,9.81.74.44,0,.73.21.64.38S351.46,95.31,351,95.29ZM308.31,93c-.42,0-.74-.17-.71-.34s.41-.31.87-.3c3.26.07,6.61.17,10,.3.42,0,.78.18.74.35s-.45.31-.91.3c-3.32-.13-6.65-.23-9.89-.31Zm26.39,1.13h0l-7.38-.42-2.46-.12h0c-.45,0-.77-.18-.72-.36s.47-.31.92-.28l2.61.12,7.29.42c.45,0,.76.19.69.37S335.14,94.14,334.7,94.12Zm316.12,15.43c-.37,0-.67-.13-.71-.29s.28-.33.73-.35l9.91-.42c.45,0,.86.11.91.29s-.28.34-.73.36l-9.91.41A.67.67,0,0,1,650.82,109.55Zm16.51-.7c-.37,0-.67-.13-.71-.28s.28-.34.73-.36l9.9-.43c.46,0,.87.11.92.28s-.28.34-.73.36l-9.91.43A.67.67,0,0,1,667.33,108.85Zm200.23,9.85a1.64,1.64,0,0,1-.47-.09c-2.3-.89-4.77-1.76-7.34-2.59-.36-.11-.41-.32-.12-.46a1.76,1.76,0,0,1,1.16,0c2.61.84,5.12,1.72,7.46,2.63.33.12.33.33,0,.46A1.92,1.92,0,0,1,867.56,118.7ZM683.84,108.14c-.37,0-.67-.14-.72-.29s.28-.34.73-.36l9.91-.43c.46,0,.86.11.91.29s-.28.34-.73.36l-9.9.43Zm16.51-.71c-.37,0-.68-.13-.72-.29s.28-.33.74-.35c3.33-.14,6.64-.28,9.91-.4.46,0,.86.11.91.29s-.29.33-.74.35l-9.91.4Zm154.56,7.07a2.32,2.32,0,0,1-.38-.06c-2.61-.74-5.38-1.47-8.23-2.15-.39-.1-.51-.3-.27-.45a1.76,1.76,0,0,1,1.14-.11c2.88.7,5.69,1.43,8.33,2.18.37.11.46.31.19.46A1.68,1.68,0,0,1,854.91,114.5Zm-138-7.72c-.38,0-.68-.14-.72-.29s.29-.34.75-.36l9.93-.35c.46,0,.86.12.89.3s-.3.33-.75.35l-9.92.35Zm16.54-.56c-.38,0-.69-.14-.72-.3s.31-.33.77-.35l9.95-.27c.46,0,.85.13.87.31s-.32.33-.77.34l-9.93.27ZM840.88,111a1.35,1.35,0,0,1-.28,0c-2.82-.59-5.82-1.14-8.93-1.64-.43-.06-.63-.25-.46-.42a1.44,1.44,0,0,1,1.07-.18c3.17.5,6.23,1.06,9.1,1.67.41.09.56.28.34.44A1.46,1.46,0,0,1,840.88,111ZM750,105.81c-.39,0-.7-.15-.72-.31s.33-.33.79-.34l10-.15c.46,0,.84.14.85.32s-.34.33-.8.33c-3.18,0-6.52.08-9.94.15Zm16.6-.2c-.41,0-.72-.15-.72-.32s.36-.32.82-.32c3.42,0,6.78,0,10,0,.46,0,.81.15.81.33s-.39.32-.85.32c-3.19,0-6.53,0-9.94,0Zm59,2.87h-.15c-3-.4-6.23-.75-9.52-1.06-.44,0-.72-.22-.61-.39a1.19,1.19,0,0,1,1-.24c3.34.31,6.59.67,9.66,1.07.43.05.67.24.52.41A1.22,1.22,0,0,1,825.63,108.48Zm-42.46-2.75c-.42,0-.73-.17-.71-.34s.41-.32.86-.31c3.42.06,6.78.15,10,.27.45,0,.79.17.75.35s-.44.31-.9.29c-3.17-.11-6.5-.2-9.9-.26Zm26.38,1.14h0c-2.84-.21-5.81-.39-8.84-.55l-1,0h0c-.45,0-.77-.18-.71-.36s.47-.3.92-.28l1,.05c3.06.15,6.07.34,8.93.55.45,0,.75.21.66.38S810,106.9,809.55,106.87Z"/><path class="cls-6" d="M532.59,169.41a.87.87,0,0,0,.46-.2c.35-.33.07-.87-.06-1.24s-.39-1-.62-1.49a17,17,0,0,0-1.49-2.58c-.55-.77-1.48-1.44-1.63-2.4a.62.62,0,0,0-.11-.33.33.33,0,0,0-.4,0,.67.67,0,0,0-.25.35,1.89,1.89,0,0,0,.13,1.24,4.64,4.64,0,0,1,.43,1.27c0,.43-.91-.13-1-.16a8.25,8.25,0,0,0-1.45-.49,7.71,7.71,0,0,0-3-.12.37.37,0,0,0-.3.14.44.44,0,0,0,0,.3,4.24,4.24,0,0,0,2.39,2.93,11.27,11.27,0,0,0,3.78.92h0a1.56,1.56,0,0,1,1.06.83c.18.34.3.94.75,1a4.21,4.21,0,0,0,1.12.05Z"/><path class="cls-7" d="M531.25,169.26h0a.38.38,0,0,0,.31-.36c0-.3-.22-.59-.39-.82a3,3,0,0,0-.64-.65c-1-.7-2.25-.69-3.38-1a8.36,8.36,0,0,1-3.57-2.05,4,4,0,0,0,2.12,2.26,11.27,11.27,0,0,0,3.78.92,1.59,1.59,0,0,1,1.21,1.06,1.33,1.33,0,0,0,.26.55A.4.4,0,0,0,531.25,169.26Z"/><path class="cls-8" d="M535.24,185.06a8.42,8.42,0,0,1,0-.87,60.54,60.54,0,0,0-1.16-12.08c-.17-1-.32-3.42-1.55-3.78a1.89,1.89,0,0,0-1.39.2c-.65.33-.33.6-.22,1.11a46.7,46.7,0,0,1-.43,7.12c-.37,2.14-.65,4.31-.84,6.48s-.89,5.13.45,7.15a10.85,10.85,0,0,0,3,2.74c2,1.39,4,2.85,6,4.27a34.93,34.93,0,0,0,6.5,3.6c2.75,1.16,4.62-.32,6.05-2.85a4.83,4.83,0,0,0,.71-3.6c-.52-1.87-2.6-2.78-4.43-3.43A107.94,107.94,0,0,1,536.84,187a3.19,3.19,0,0,1-1.31-1A2.15,2.15,0,0,1,535.24,185.06Z"/><path class="cls-9" d="M531.84,185v0l.18-14.25a3.55,3.55,0,0,0-.15-1.3c-.1-.26-.46-.85-.82-.8-.53.06-.2.71-.13,1a46.7,46.7,0,0,1-.43,7.12c-.37,2.14-.65,4.31-.84,6.48s-.89,5.13.45,7.15a10.85,10.85,0,0,0,3,2.74c2,1.39,4,2.85,6,4.27a34.93,34.93,0,0,0,6.5,3.6,3.89,3.89,0,0,0,3.41,0,1.85,1.85,0,0,0,.23-2.64,5.67,5.67,0,0,0-2.53-1.54,63.59,63.59,0,0,1-12.34-6.52,6.21,6.21,0,0,1-2-1.87A6.48,6.48,0,0,1,531.84,185Z"/><polygon class="cls-10" points="521.48 111.13 538.67 107.5 538.36 115.22 521.48 111.13"/><polygon class="cls-11" points="521.15 145.87 538.33 142.24 530.01 153.01 521.15 145.87"/><path class="cls-12" d="M543.16,101.19l17.24-3.64a9.23,9.23,0,0,1,3.8.08,12.92,12.92,0,0,1,9.84,12,8.57,8.57,0,0,1-1,4,.94.94,0,0,0,.7,1.23l15.35,3.28a1.44,1.44,0,0,1,1.11,1.35V149.6c0,8.63-5.2,14.94-12.64,16.59L561,169.68Z"/><path class="cls-13" d="M571.92,121.81l-15.36-3.28a.93.93,0,0,1-.69-1.23,8.61,8.61,0,0,0,1-4c0-5.44-4.4-10.8-9.84-12s-9.84,2.2-10,7.55a11.16,11.16,0,0,0,1,4.67.63.63,0,0,1-.7.93l-15.35-3.27a.87.87,0,0,0-1.11.87v15.7a.68.68,0,0,0,.79.66,9.19,9.19,0,0,1,4.76-.08c5.37,1.27,9.71,6.67,9.67,12s-4.45,8.88-9.9,7.72A12,12,0,0,1,521.6,146c-.36-.26-.79-.08-.79.32V162a1.47,1.47,0,0,0,1.11,1.35L552,169.78c11.61,2.47,21-4.93,21-16.55V123.15A1.45,1.45,0,0,0,571.92,121.81Z"/><path class="cls-14" d="M538,113.66v.3A.76.76,0,0,0,538,113.66Z"/><path class="cls-7" d="M582.75,157.14a1.37,1.37,0,0,1-.35,0,1,1,0,0,1-.49-.18c-.32-.25-.31-.71-.34-1.06s-.05-.93-.06-1.4a22.26,22.26,0,0,1,.21-3.55c.15-1.12.7-2.34.41-3.46a.84.84,0,0,1,0-.41.34.34,0,0,1,.36-.25.68.68,0,0,1,.39.24,2.49,2.49,0,0,1,.43,1.4,7,7,0,0,0,.17,1.59c.18.48.79-.63.83-.7a9.39,9.39,0,0,1,1.1-1.32,8,8,0,0,1,2.67-1.76.35.35,0,0,1,.34,0,.52.52,0,0,1,.16.31,5.8,5.8,0,0,1-.9,4.43,10.22,10.22,0,0,1-2.26,2.09,3.31,3.31,0,0,0-1.51,2.43c0,.16,0,.32,0,.47A1.34,1.34,0,0,1,582.75,157.14Z"/><path class="cls-6" d="M582.16,155.91a.5.5,0,0,1-.27,0c-.49-.17-.37-1-.38-1.38a22.26,22.26,0,0,1,.21-3.55c.15-1.12.7-2.34.41-3.46a.84.84,0,0,1,0-.41.34.34,0,0,1,.36-.25.68.68,0,0,1,.39.24,2.49,2.49,0,0,1,.43,1.4,7,7,0,0,0,.17,1.59c.18.48.79-.63.83-.7a9.39,9.39,0,0,1,1.1-1.32,6.17,6.17,0,0,1,2.62-1.74c-.16,0-.45.48-.57.6l-.58.63c-.39.43-.77.86-1.13,1.3a16,16,0,0,0-1.91,2.79,9.3,9.3,0,0,0-.75,1.82,6.26,6.26,0,0,0-.23,1,7.57,7.57,0,0,1-.11,1,.83.83,0,0,1-.3.44A.51.51,0,0,1,582.16,155.91Z"/><path class="cls-8" d="M586.55,177.52c-.11-.3-.24-.59-.37-.87-1.88-4-2.62-10-3.77-14.44-.11-.42-.21-.85-.3-1.28-.18-.84-.32-1.68-.43-2.53-.06-.43-.11-.86-.14-1.29,0-.22,0-.44,0-.65s0-.2,0-.28a.44.44,0,0,1,.19-.17,2.33,2.33,0,0,1,1.93-.15.59.59,0,0,1,.19.11c.14.11.09.32.1.48a4.1,4.1,0,0,0,.06.49,10.52,10.52,0,0,0,.61,1.9c.22.52.47,1,.7,1.55,2.3,5.14,5.93,10.33,8.06,15.37a10.15,10.15,0,0,1,.92,4.39,13.81,13.81,0,0,1-1.58,5c-1.2,2.63-7,12-8,12.92a4.29,4.29,0,0,1-6.09-.43c-2.76-3.35.93-7.69,2.74-10.7,1.7-2.84,2.78-3.95,4.64-6.71a3.76,3.76,0,0,0,.74-1.64A2.56,2.56,0,0,0,586.55,177.52Z"/><path class="cls-9" d="M586.55,177.52c-.11-.3-.24-.59-.37-.87-1.88-4-2.62-10-3.77-14.44-.11-.42-.21-.85-.3-1.28-.18-.84-.32-1.68-.43-2.53-.06-.43-.11-.86-.14-1.29,0-.22,0-.44,0-.65a.8.8,0,0,1,1.09-.62c.47.29.48,1.44.54,1.9a52.11,52.11,0,0,0,4.12,15.36,18.56,18.56,0,0,1,2,5.88,12.3,12.3,0,0,1-1.56,6.21,32.47,32.47,0,0,1-3.39,5.46A6.35,6.35,0,0,1,581.4,193c-1,.35-3.69-.07-3.09-1.53s2.12-3,3-4.52c1.7-2.84,2.78-3.95,4.64-6.71a3.76,3.76,0,0,0,.74-1.64A2.56,2.56,0,0,0,586.55,177.52Z"/><path class="cls-15" d="M568.41,255c-3.22,4.43-8.74,8.47-12.5,12a6.08,6.08,0,0,0-2,2.75c-.31,1.42.77,2.6,1.62,3.73,2.68,3.59,3.31,8.11,2.77,12.46A57.94,57.94,0,0,1,553.11,303a2.5,2.5,0,0,1-1.63,1.6c-3.24.67-4.42-12.73-4.63-14.29-1.07-8.09-3.83-16.36-2.42-25.19,1.14-7.17,5-14.37,9.17-21.62,1.89-3.3,4-6.85,7.65-9.07,4.88-3,10.7-1.48,11.61,2.78,1.09,5.08-.48,10.53-3.09,15.56A17,17,0,0,1,568.41,255Z"/><path class="cls-16" d="M562.58,252.63a55.19,55.19,0,0,1-6.26,8.81c-2.15,2.48-5.81,4.85-7.24,7.59-1.91,3.67.13,7.24,1.57,10.58a31.46,31.46,0,0,1,.84,22.49,1.88,1.88,0,0,1-.93,1.25c-2.15.9-3.5-11.43-3.71-13-1.07-8.09-3.83-16.36-2.42-25.19,1.14-7.17,5-14.37,9.17-21.62,1.76-3.07,6.47-11.78,11.93-8.91A4.27,4.27,0,0,1,567.7,238a10.37,10.37,0,0,1-.57,4A49.94,49.94,0,0,1,562.58,252.63Z"/><path class="cls-15" d="M579.09,247.08c0,.68.09,1.35.11,2,.14,4.54-1.19,12.34,1.75,16.25.94,1.26,2.92,1.56,4.64,1.95a26.38,26.38,0,0,1,13.47,8.15c4.6,5,12.14,19.06,11.55,19.78-2.25,2.75-16.06-8.05-17.68-9.23-8.33-6-18.16-11.08-24.44-18.86-4.92-6.1-7.25-13.5-9.3-20.79-.91-3.23-1.75-6.69-.32-9.89,3.08-6.89,13.06-5.21,16.84-.05C578,239.46,578.8,243.27,579.09,247.08Z"/><path class="cls-16" d="M570.5,249.84a68.27,68.27,0,0,1,2.47,9.57,18.79,18.79,0,0,0,3.36,8.75c3.06,3.93,8.3,5.91,12.54,8.68,5,3.27,9.27,8.06,13.7,11.91,1.75,1.53,3.59,2.94,5.36,4.42.78.65,2.27,2.12.07,2.13-1.56,0-5.63-2.65-7.64-4-2.56-1.69-5-3.53-7.43-5.32-8.33-6-18.16-11.08-24.44-18.86-4.92-6.1-7.25-13.5-9.3-20.79-.91-3.23-1.75-6.69-.32-9.89,1-2.27,3.76-4.09,6.09-2a7.14,7.14,0,0,1,1.75,3.31Q568.6,243.83,570.5,249.84Z"/><path class="cls-17" d="M552.89,304.6c0,.15.07.3.11.46.34,1.42,2,2.27,2.28,3.71a.67.67,0,0,1-.08.57.82.82,0,0,1-.25.2c-1,.6-2,1.16-3,1.83s-1.93,1.64-2.93,2.42a6.43,6.43,0,0,1-2.8,1.36c-.7.13-2.1.19-2.25-.9,1-1.08,2.13-1.85,3-3a12.67,12.67,0,0,0,1.72-2.94,38.07,38.07,0,0,0,1-4,.59.59,0,0,1,.18-.33.42.42,0,0,1,.25,0l2,.12A.68.68,0,0,1,552.89,304.6Z"/><path class="cls-18" d="M551.71,304.69a3.72,3.72,0,0,1-.11,1.15,12.09,12.09,0,0,1-3.16,5.66,8.2,8.2,0,0,0-1.35,1.54.52.52,0,0,0-.06.52c.13.2.45.15.68.07a7.22,7.22,0,0,0,2.51-1.54,5.1,5.1,0,0,1,1.34-1.07,1.94,1.94,0,0,1,1.09-.13,23.81,23.81,0,0,0-3.6,2.9,6.43,6.43,0,0,1-2.8,1.36c-.7.13-2.1.19-2.25-.9,1-1.08,2.13-1.85,3-3a12.67,12.67,0,0,0,1.72-2.94,38.07,38.07,0,0,0,1-4,.59.59,0,0,1,.18-.33.42.42,0,0,1,.25,0l.91.05c.33,0,.41.06.53.38A2.22,2.22,0,0,1,551.71,304.69Z"/><path class="cls-17" d="M610.83,293.9l.42.24c1.31.77,3.15.14,4.43,1a.74.74,0,0,1,.37.48.93.93,0,0,1,0,.33c-.27,1.18-.6,2.37-.78,3.56s-.17,2.64-.3,3.95a6.92,6.92,0,0,1-1,3.1c-.42.62-1.38,1.72-2.3,1.05-.12-1.5.15-2.94-.1-4.48a12.92,12.92,0,0,0-1-3.42A39.8,39.8,0,0,0,608.3,296a.55.55,0,0,1-.12-.37.48.48,0,0,1,.15-.22l1.56-1.45A.73.73,0,0,1,610.83,293.9Z"/><path class="cls-18" d="M610,294.85a3.29,3.29,0,0,1,.78.92,12.63,12.63,0,0,1,2,6.46,7.94,7.94,0,0,0,.17,2.13c.06.19.16.39.34.42s.44-.22.55-.46a7.57,7.57,0,0,0,.66-3,5.37,5.37,0,0,1,.16-1.79,2,2,0,0,1,.7-.91,24.92,24.92,0,0,0-.43,4.8,6.92,6.92,0,0,1-1,3.1c-.42.62-1.38,1.72-2.3,1.05-.12-1.5.15-2.94-.1-4.48a12.92,12.92,0,0,0-1-3.42A39.8,39.8,0,0,0,608.3,296a.55.55,0,0,1-.12-.37.48.48,0,0,1,.15-.22l.7-.64c.25-.24.34-.27.66-.13A1.51,1.51,0,0,1,610,294.85Z"/><path class="cls-19" d="M575.94,238.53c-2.87,2.15-8.4,1.27-11.94.57a11.07,11.07,0,0,1-6.71-3.8,16.63,16.63,0,0,1-2.51-6.18q-2-8-4.09-16.06c-1-4-1.07-9.69-5.07-11.79A19,19,0,0,1,543.2,200c-.59-.42-.59-1.39-.54-2a10.49,10.49,0,0,1,2.24-5.66,5,5,0,0,1,1.54-1.35,2.28,2.28,0,0,1,2-.21c9.33,3.28,17.33,2.07,19.77,2A21.47,21.47,0,0,0,578.86,190c1.79-1.05,7.19,6.53,6.7,7.13a59.81,59.81,0,0,0-6.84,9.83,16.76,16.76,0,0,0-2,7.35c0,1.19.15,5.88.26,7.09a96.38,96.38,0,0,1,.8,13.25A4.82,4.82,0,0,1,575.94,238.53Z"/><path class="cls-20" d="M575.94,238.53c-1.63,1.22-5.37,2-7.32,1.34s-2.82-3.41-3.36-5.2c-3.52-11.77-7.07-23.84-6.31-36.1a10.05,10.05,0,0,1,.76-3.69c1.44-3,5.63-2,8.46-2.11,4.75-.14,9-1.21,11.43-3.72,1.45-1.47,6.45,7.51,6,8.11a59.81,59.81,0,0,0-6.84,9.83,16.76,16.76,0,0,0-2,7.35c0,1.19.15,5.88.26,7.09a96.38,96.38,0,0,1,.8,13.25A4.82,4.82,0,0,1,575.94,238.53Z"/><path class="cls-9" d="M561.17,195.38a11.66,11.66,0,0,0,5-.43,3.13,3.13,0,0,0,1.38-.67.86.86,0,0,0-.24-1.29,4,4,0,0,0-1.91-.68,9.68,9.68,0,0,0-5.43.77c-.64.36-1,.94-.71,1.44a2.41,2.41,0,0,0,1.45.77A3.43,3.43,0,0,0,561.17,195.38Z"/><path class="cls-8" d="M561.17,195.38a11.66,11.66,0,0,0,5-.43,3.13,3.13,0,0,0,1.38-.67.86.86,0,0,0-.24-1.29,4,4,0,0,0-1.91-.68c-.33,0-1.37-.22-1.59,0a.26.26,0,0,0,0,.36,4,4,0,0,0,.39.29c.46.32.69.8.36,1.17a2.62,2.62,0,0,1-1.39.58,16.38,16.38,0,0,1-2,.24,1.56,1.56,0,0,0-.44.05.27.27,0,0,0-.2.23A3.88,3.88,0,0,0,561.17,195.38Z"/><path class="cls-7" d="M565.73,192.47a1.2,1.2,0,0,1-.13,1.19,3,3,0,0,1-1.85,1.2c-1,.22-2.6-.34-2.43-1.64.06-.45.28-.86.37-1.31a2.47,2.47,0,0,0-.53-2c-1.06-1.32-3.48-.68-3.92-1.76a2.17,2.17,0,0,1,.25-1.51c.14-.41.44-1,.19-1.37a1.23,1.23,0,0,0-.52-.44c-.23-.12-.53-.24-.57-.5a.73.73,0,0,1,.23-.54,17.71,17.71,0,0,0,1.39-1.72,3,3,0,0,0,.61-2,1.44,1.44,0,0,1,.55-1.53,5.15,5.15,0,0,1,2-.9c1.6-.34,3.58-.21,4.65,1.19,2.09,2.7-.22,6.38-1.25,9a3.57,3.57,0,0,0,.45,3.85A5.7,5.7,0,0,1,565.73,192.47Z"/><path class="cls-6" d="M560.59,189.17c-.77.27-3-.17-3.35-1a2.17,2.17,0,0,1,.25-1.51c.14-.41.44-1,.19-1.37a1.23,1.23,0,0,0-.52-.44c-.23-.12-.53-.24-.57-.5a.73.73,0,0,1,.23-.54,17.71,17.71,0,0,0,1.39-1.72,3,3,0,0,0,.61-2,1.44,1.44,0,0,1,.55-1.53c.25-.18.65-.57,1-.35a.88.88,0,0,1,.31.6,2.37,2.37,0,0,1-.59,1.94c-.12.14-.28.28-.27.47s.21.33.36.48a1.72,1.72,0,0,1,.09,1.9,16.16,16.16,0,0,0-1,1.77C558.67,187,559.79,188,560.59,189.17Z"/><path class="cls-17" d="M563.36,173.61a7.42,7.42,0,0,1,4.6,1.5,2.69,2.69,0,0,1,1.16,1.67,13.43,13.43,0,0,0,0,1.68c.14.51.57.78.89,1.16a3.33,3.33,0,0,1,.67,1.31,4.22,4.22,0,0,1-.28,2.82,5.29,5.29,0,0,1-1.91,2.2c-.91.53-1.74,1.19-2.69,1.68a1.49,1.49,0,0,1-.84.22,1.21,1.21,0,0,1-.85-.81,2.74,2.74,0,0,1-.07-1.81c.16-.51.52-.92.63-1.44a1.08,1.08,0,0,0-.14-.84,1.16,1.16,0,0,0-.81-.39,1.23,1.23,0,0,0-.63.05c-.48.2-.5.91-.59,1.36a7,7,0,0,0-.15,1.82,9.06,9.06,0,0,1-.4,3.8,3.11,3.11,0,0,1-1.62,1.82,3.39,3.39,0,0,1-2.09,0,2.87,2.87,0,0,1-1.67-1,1.94,1.94,0,0,1,0-2.22c.3-.41,1.74-1.42,1.1-2-.08-.08-.2-.11-.29-.19a.46.46,0,0,1,0-.64c.67-.75,2.32.41,2.83.84a1.5,1.5,0,0,0,.42.29.44.44,0,0,0,.48-.08.66.66,0,0,0,.13-.36,19.56,19.56,0,0,0,.13-3.75,3.32,3.32,0,0,0-1.46-2.79,5.44,5.44,0,0,1-1.3-.86,5.28,5.28,0,0,1-.8-1.19,4.88,4.88,0,0,1-.43-2.74,1.12,1.12,0,0,1,.47-.9c.35-.19.78,0,1.17.12C560.53,174.47,561.83,173.64,563.36,173.61Z"/><path class="cls-21" d="M564,178a4.77,4.77,0,0,1,.76-.06,2.56,2.56,0,0,1,2.16.91c.66.93.28,2.27.78,3.29.27.55.77,1,1,1.5a2,2,0,0,1,.06,1.64,3.32,3.32,0,0,1-1.16,1.25,10.27,10.27,0,0,1-1.77,1.14,1.49,1.49,0,0,1-.84.22,1.21,1.21,0,0,1-.85-.81,2.74,2.74,0,0,1-.07-1.81c.16-.51.52-.92.63-1.44a1.08,1.08,0,0,0-.14-.84,1.16,1.16,0,0,0-.81-.39,1.23,1.23,0,0,0-.63.05c-.48.2-.5.91-.59,1.36a7,7,0,0,0-.15,1.82,9.06,9.06,0,0,1-.4,3.8,3.11,3.11,0,0,1-1.62,1.82,3.39,3.39,0,0,1-2.09,0,2.87,2.87,0,0,1-1.67-1,1.94,1.94,0,0,1,0-2.22c.3-.41,1.74-1.42,1.1-2-.08-.08-.2-.11-.29-.19a.46.46,0,0,1,0-.64c.67-.75,2.32.41,2.83.84a1.5,1.5,0,0,0,.42.29.44.44,0,0,0,.48-.08.66.66,0,0,0,.13-.36,19.56,19.56,0,0,0,.13-3.75,3.32,3.32,0,0,0-1.46-2.79,5.44,5.44,0,0,1-1.3-.86,5.28,5.28,0,0,1-.8-1.19,4.88,4.88,0,0,1-.43-2.74c.07-.52.47-1,1-.59a1.51,1.51,0,0,1,.44.8,5.34,5.34,0,0,0,1.17,2.7,3.11,3.11,0,0,0,2.31.56C562.84,178.15,563.4,178,564,178Z"/><path class="cls-6" d="M433.75,226.22c.05-1,.08-2.07.11-3.12.05-2.61,0-5.27,0-7.95-.05-2.53-.06-8.28-2.19-11.24-.07-.12-.13-.24-.21-.36-2.86-4.71-8.74-5.4-11.6-1.61-3.41,4.52-4.65,10.37-4.76,16.21a17.81,17.81,0,0,0,.15,2.61c.71,5.48,3.65,11.44,5.27,16.27a6,6,0,0,1,.45,3.41c-.41,1.49-2.06,2.06-3.22,3-8.58,7.06-3.24,12.88-13,31.43-.64,1.22-2.63,1.21-3.41,2.34a.63.63,0,0,0-.15.52,1,1,0,0,0,.15.26c.65.88,1.36,1.74,1.94,2.66s1.1,2.12,1.68,3.15a6.18,6.18,0,0,0,2,2.21c.57.36,1.79.94,2.33.06-.45-1.28-1.19-2.37-1.54-3.72a11.12,11.12,0,0,1-.41-3.15c.05-1.25-.31-2.08.61-3.82.06-.1,11.66-15.79,12.87-17.47l1.2-1.67c.92-1.27,1.84-2.55,2.73-3.85l.61-.9c.49-.72,1-1.46,1.44-2.21.16-.24.31-.49.46-.74l.43-.71.47-.81c.35-.62.69-1.25,1-1.88s.52-1,.77-1.57l.36-.8c.24-.54.46-1.08.68-1.64s.41-1.11.6-1.67a46.47,46.47,0,0,0,2-10.19l.12-1.53C433.69,227.25,433.72,226.74,433.75,226.22Z"/><path class="cls-7" d="M433.5,226.25c-.31-2.46-1.47-4.7-4.58-4.41a6.41,6.41,0,0,0-5.05,4.46,15.07,15.07,0,0,0-.28,7,36.5,36.5,0,0,1,.7,7.06c-.23,4.39-2.56,8.35-4.82,12.11q-5.89,9.81-11.8,19.63a13.29,13.29,0,0,0-2.26,5.48A7.82,7.82,0,0,0,408,283.9a20.69,20.69,0,0,1-.7-4.68c.05-1.25-.31-2.08.61-3.82.06-.1,11.66-15.79,12.87-17.47l1.2-1.67c.92-1.27,1.84-2.55,2.73-3.85l.61-.9c.49-.72,1-1.46,1.44-2.21.16-.24.31-.49.46-.74l.43-.71.47-.81c.35-.62.69-1.25,1-1.88s.52-1,.77-1.57l.36-.8c.24-.54.46-1.08.68-1.64s.41-1.11.6-1.67a46.47,46.47,0,0,0,2-10.19A14.77,14.77,0,0,0,433.5,226.25Z"/><path class="cls-6" d="M452,287.69c-1.12-.87-2.39-1.41-3.47-2.39a21.66,21.66,0,0,1-3.14-4.27c-1.82-4,.85-18.42.89-19.3.4-10,2.51-20.27.3-30.24-1.74-7.83-6.06-14.92-10.49-21.75-.61-.94-1.24-1.9-1.92-2.81l-.63-.8c-.22-.27-.44-.53-.67-.79l0,0a12.82,12.82,0,0,0-3.56-2.87l-.42-.21-.27-.13h0l-.29-.12c-4.38-1.69-9.17,1-9.8,5.3-.78,5.29.77,10.53,3.28,15.28a15,15,0,0,0,1.31,2c3.13,4.17,8.5,7.63,12.32,11a6.07,6.07,0,0,1,2.14,2.78c.4,1.57-.58,3.1-1.33,4.52-2.39,4.54-2.4,9-1.59,14.07.94,5.88,7,13.14,7,23.53,0,1.38-1.49,2.41-1.48,3.79a.67.67,0,0,0,.18.52.74.74,0,0,0,.28.14c1.06.42,2.16.79,3.18,1.27s2.16,1.24,3.26,1.82a6.61,6.61,0,0,0,2.93.86C450.73,288.86,452.08,288.72,452,287.69Z"/><path class="cls-7" d="M448.86,286.69c.47-1.39-2.9-4.46-3.45-5.66-1.82-4,.85-18.42.89-19.3.4-10,2.51-20.27.3-30.24-.78-3.49-3.23-14.35-8.85-12.44a5.39,5.39,0,0,0-3.32,5,10,10,0,0,0,2.06,5.88c1.21,1.73,2.72,3.23,4.06,4.87a13,13,0,0,1,2.94,5.55c.5,2.54-.21,5.13-.79,7.66a48,48,0,0,0-1.26,14.81c.36,4.05,1.41,8.05,1.34,12.12a19.49,19.49,0,0,0,.15,4.89c.72,3,3.37,5.16,5.86,7A1,1,0,0,0,448.86,286.69Z"/><path class="cls-6" d="M451.88,172.92a7.51,7.51,0,0,0,.54-.72,63,63,0,0,1,8.46-9.35,23,23,0,0,1,4.92-3.63,16.63,16.63,0,0,1,2.85-1.22c.93-.3,2.12-.29,2.85-1a.69.69,0,0,1,.29-.2.37.37,0,0,1,.36.23.69.69,0,0,1,0,.45c-.15.49-.5.67-.87,1a5,5,0,0,0-1.15.79c-.29.35.84.46.91.48a7.81,7.81,0,0,1,1.51.48,8.08,8.08,0,0,1,2.55,1.74.46.46,0,0,1,.17.3.43.43,0,0,1-.16.28,4.38,4.38,0,0,1-3.81,1,11.86,11.86,0,0,1-3.74-1.59,1.65,1.65,0,0,0-1.67.14,8.39,8.39,0,0,0-2.06,2.68l-5.31,8.16c-1.3,2-2.67,4-4.73,5.2a13.12,13.12,0,0,1-5.58,1.29,78,78,0,0,1-13.4-.48,9.22,9.22,0,0,1-3.92-1,3.34,3.34,0,0,1-1.72-3.42c.84-3.46,8.14-3,10.81-2.66,3.16.41,6.25,1.21,9.39,1.8a3.13,3.13,0,0,0,1.69,0A2.05,2.05,0,0,0,451.88,172.92Z"/><path class="cls-7" d="M453.88,174.88c.49-.49.94-1,1.37-1.55l8.39-10.26A4.93,4.93,0,0,1,466.5,161c1.21-.17,2.34.57,3.38,1.21s2.31,1.24,3.44.78c0,0-.28.46-.52.56a3.4,3.4,0,0,1-1.52,0,11.86,11.86,0,0,1-3.74-1.59,1.65,1.65,0,0,0-1.67.14,8.39,8.39,0,0,0-2.06,2.68l-5.31,8.16c-1.3,2-2.67,4-4.73,5.2a13.12,13.12,0,0,1-5.58,1.29,78,78,0,0,1-13.4-.48,9.22,9.22,0,0,1-3.92-1c-.72-.43-1.68-1.15-1.09-1.95s1.82-.78,2.61-.79A61.69,61.69,0,0,1,447,176.44a9.2,9.2,0,0,0,3.89.31A6.22,6.22,0,0,0,453.88,174.88Z"/><path class="cls-16" d="M425.08,193.65c-1.9,6.61-5.72,6.29-10,14.29-2.14,4-3.58,8.52-3,13,.29,2.27,1.07,4.47,1.42,6.74a8.87,8.87,0,0,1-1.15,6.61,27.21,27.21,0,0,0,13.15.14c4.18-1,8.07-3,12.21-4.15s8.85-1.45,12.52.81c.07-3.94-2-7.63-4.48-10.68s-5.48-5.7-7.8-8.89c-3.33-4.58-3.76-9.43-2.93-14.87a18.14,18.14,0,0,1,2.28-7c1-1.62,2.42-3,3.44-4.58.5-.79,2.88-3.84-1.07-9.37-1-1.45-3.22-5.11-6.64-6a7.54,7.54,0,0,0-3.88.34C422.05,172.54,428.16,182.9,425.08,193.65Z"/><path class="cls-15" d="M430.38,196.87c-1.82,3-3.64,6-4.45,9.38A20.57,20.57,0,0,0,427,218.42a35.51,35.51,0,0,0,6.61,10.42,5.1,5.1,0,0,0,1.94,1.58c1,.37,2-.11,2.94-.34a22.45,22.45,0,0,1,4-.64,13.18,13.18,0,0,1,7.76,1.66c.07-3.94-2-7.63-4.48-10.68s-5.48-5.7-7.8-8.89c-3.33-4.58-3.76-9.43-2.93-14.87a18.14,18.14,0,0,1,2.28-7c1-1.62,2.42-3,3.44-4.58.5-.79,2.88-3.84-1.07-9.37-1-1.45-3.22-5.11-6.64-6a6.62,6.62,0,0,0-5.7,1.33c-2.65,2.23-1.19,6.48.25,6.16,7.94-1.78,8.2,5.17,7.55,9.07S432.43,193.47,430.38,196.87Z"/><path class="cls-6" d="M428.7,170.91a1.29,1.29,0,0,0,.3,1.27,3.31,3.31,0,0,0,2.17,1c1.16.1,2.79-.73,2.42-2.11-.13-.48-.43-.9-.59-1.37a2.58,2.58,0,0,1,.3-2.26c.85-1.24,2.94-.88,3.52-2.31.41-1-.8-2.2-.23-3,.18-.27.45-.51.48-.84a1.29,1.29,0,0,0-.17-.63c-.64-1.37-1.2-2.83-1.94-4.15a5,5,0,0,0-2.61-2c-1.91-.67-4.78-.24-5.88,1.65-1,1.64-.36,3.92,0,5.63.22,1.11.18,2.14,1,3,.63.64,1.73.77,2.13,1.64s0,2.59-.51,3.52A6.74,6.74,0,0,0,428.7,170.91Z"/><path class="cls-7" d="M428.7,170.91a1.29,1.29,0,0,0,.3,1.27,3.31,3.31,0,0,0,2.17,1c1.16.1,2.79-.73,2.42-2.11-.13-.48-.43-.9-.59-1.37a2.58,2.58,0,0,1,.3-2.26c.85-1.24,2.94-.88,3.52-2.31.41-1-.8-2.2-.23-3,.18-.27.45-.51.48-.84a1.29,1.29,0,0,0-.17-.63,25,25,0,0,0-2.06-4.34c-1-1.3-1.63.52-.95,1.41.32.42.74.89.62,1.4s-.61.85-.45,1.29c.09.24.34.36.54.52a2.75,2.75,0,0,1,.7,2.24,6.84,6.84,0,0,1-.36,2.25,3,3,0,0,1-1.45,1.7c-1.38.67-2.78-.29-3.53-1.36a1.87,1.87,0,0,0-.46-.51.65.65,0,0,0-.64-.09.54.54,0,0,0-.06.39,1.89,1.89,0,0,1,.83.87c.47,1,0,2.59-.51,3.52A6.74,6.74,0,0,0,428.7,170.91Z"/><path class="cls-17" d="M433.45,152.92l-.27-.11a24.24,24.24,0,0,1-2.12-1.27,7.35,7.35,0,0,0-5.18-.73c-1.43.32-3.49,1.09-4.08,2.54-.39,1-.19,2.17-.72,3.08s-1.9,1.36-3,1.71a12.41,12.41,0,0,0-6.33,4.12,7.47,7.47,0,0,0-1.16,7.23c.68,1.61,2.08,3.08,1.85,4.82-.17,1.27-1.18,2.23-2,3.26-1.43,1.88-2.44,4.7-1.05,6.62,3.89,5.38,11.14,3.37,12.44,2.71,5.08-2.56,9-5.09,4.75-14a2.86,2.86,0,0,1,.37-3.1c1.94-2,3.84-4.09,2.15-7.06a1.49,1.49,0,0,1,1.23-2.33c.89,0,.73.64,1.3,1.12a.82.82,0,0,0,1,.07c.47-.43.27-1.25.16-1.77a1.9,1.9,0,0,1,.55-1.87c1-1,3.71-2.36,1.89-4.18A5.11,5.11,0,0,0,433.45,152.92Z"/><path class="cls-21" d="M433.45,152.92a2.73,2.73,0,0,0-2.53.54,5.1,5.1,0,0,0-1.1,2.43,6.56,6.56,0,0,1-1,2.5c-1.63,2.13-5.5,1.61-6.77,4-.83,1.55,0,3.44.82,5s1.77,3.33,1.12,5c-.88,2.21-4.13,2.75-4.9,5-.67,2,.85,4.35-.33,6a3.35,3.35,0,0,1-3,1.14,11.16,11.16,0,0,1-3.31-.57c-4.15-1.59-1.35,2.5,1.35,3.42a8.43,8.43,0,0,0,3,.5,11,11,0,0,0,5-.91c5.08-2.56,9-5.09,4.75-14a2.86,2.86,0,0,1,.37-3.1c1.94-2,3.84-4.09,2.15-7.06a1.49,1.49,0,0,1,1.23-2.33c.89,0,.73.64,1.3,1.12a.82.82,0,0,0,1,.07c.47-.43.27-1.25.16-1.77a1.9,1.9,0,0,1,.55-1.87c1-1,3.71-2.36,1.89-4.18A3.61,3.61,0,0,0,433.45,152.92Z"/><path class="cls-17" d="M402.75,276.3c-.09-.23-1.29.51-1.5.82a.72.72,0,0,0-.16.59.9.9,0,0,0,.17.3c.72,1,1.48,1.9,2.1,2.88s1.12,2.19,1.71,3.23a5.44,5.44,0,0,0,1.91,2.09c.55.31,1.79.77,2.33-.13a38.64,38.64,0,0,1-1.44-3.63c-.05-.2-.05-.52-.26-.6a.64.64,0,0,0-.41,0,2.55,2.55,0,0,0-.77.35,1.36,1.36,0,0,1-.54.29.65.65,0,0,1-.58-.27,2,2,0,0,1-.28-.61,36.73,36.73,0,0,0-2.1-5C402.88,276.48,402.79,276.4,402.75,276.3Z"/><path class="cls-17" d="M440.8,283a.38.38,0,0,0-.21,0c-.24,0-.23.3-.29.48a2.75,2.75,0,0,0-.14.8.73.73,0,0,0,.19.55.74.74,0,0,0,.28.14c1.06.42,2.16.8,3.18,1.3s2.17,1.27,3.27,1.86a6.51,6.51,0,0,0,3,.88c.7,0,2.09-.15,2.05-1.24-1.13-.9-2.41-1.46-3.5-2.48-.13-.12-.28-.39-.48-.32a.65.65,0,0,0-.25.22l-.58.71a1,1,0,0,1-.57.45,1,1,0,0,1-.61-.13c-1.8-.83-3.32-2.16-5.06-3.1A1.36,1.36,0,0,0,440.8,283Z"/><path class="cls-22" d="M482.48,163.32l16.7-3.53a.82.82,0,0,0,.66-.85V144l-18.4,1.14Z"/><path class="cls-23" d="M467.39,114a11.69,11.69,0,0,1-2.49-7,8.22,8.22,0,0,1,1.06-4.17.65.65,0,0,0-.47-.87l-15.24-3.25a1,1,0,0,0-.46,0h0l-16.65,3.52,24.87,26,11.86-6.77Z"/><path class="cls-24" d="M466.6,109.4l16.71-3.53a.37.37,0,0,1,.21,0l15.24,3.25a1.4,1.4,0,0,1,1.08,1.31v14.9a.92.92,0,0,0,1.05.89,8.93,8.93,0,0,1,4.33,0c5.22,1.23,9.42,6.46,9.39,11.67a7.38,7.38,0,0,1-5.86,7.53l-16.51,3.49Z"/><path class="cls-25" d="M488.52,129.76a8.93,8.93,0,0,0-4.33,0,.93.93,0,0,1-1.06-.9V114a1.41,1.41,0,0,0-1.07-1.31l-15.24-3.25c-.4-.09-.66.27-.48.66a11,11,0,0,1,1.06,4.85c-.11,5.18-4.45,8.47-9.67,7.32a12.54,12.54,0,0,1-9.54-11.64,8.23,8.23,0,0,1,1.07-4.17.64.64,0,0,0-.48-.87l-15.24-3.26a.85.85,0,0,0-1.07.85v29.19c0,11.27,9.13,22.35,20.4,24.76l29.19,6.22a.84.84,0,0,0,1.07-.84v-14.9a.62.62,0,0,1,1.05-.45,11.42,11.42,0,0,0,4.12,1.8c5.28,1.13,9.57-2.22,9.6-7.49S493.73,131,488.52,129.76Z"/><path class="cls-7" d="M454.59,163.56c.06-.32.08-.65.11-1a68.23,68.23,0,0,1,2.82-13.47,25.84,25.84,0,0,1,2.65-6.13,19.1,19.1,0,0,1,2-2.72c.72-.8,1.85-1.43,2.14-2.5a.68.68,0,0,1,.17-.35.38.38,0,0,1,.46,0,.73.73,0,0,1,.23.43,2,2,0,0,1-.31,1.37,6.19,6.19,0,0,0-.64,1.38c-.08.49,1,0,1.12-.05a9.05,9.05,0,0,1,5-.14.51.51,0,0,1,.33.19.53.53,0,0,1,0,.35,4.78,4.78,0,0,1-3.07,3,12.69,12.69,0,0,1-4.39.56,1.83,1.83,0,0,0-1.5,1.05c-.56,1.07-.41,2.49-.47,3.67q-.26,5.3-.52,10.61c-.12,2.58-.28,5.27-1.6,7.5a14.09,14.09,0,0,1-4.53,4.29,85.59,85.59,0,0,1-12.91,6.92,10.16,10.16,0,0,1-4.27,1.18,3.65,3.65,0,0,1-3.49-2.29c-1.12-3.72,6-7.31,8.72-8.45,3.21-1.35,6.56-2.3,9.84-3.47a3.4,3.4,0,0,0,1.6-.93A2.42,2.42,0,0,0,454.59,163.56Z"/><path class="cls-6" d="M454.59,163.56c.06-.32.08-.65.11-1a68.23,68.23,0,0,1,2.82-13.47,25.84,25.84,0,0,1,2.65-6.13,19.1,19.1,0,0,1,2-2.72c.72-.8,1.85-1.43,2.14-2.5a.68.68,0,0,1,.17-.35.38.38,0,0,1,.46,0,.73.73,0,0,1,.23.43,2,2,0,0,1-.31,1.37,6.19,6.19,0,0,0-.64,1.38c-.08.49,1,0,1.12-.05a8.88,8.88,0,0,1,1.7-.37,10.23,10.23,0,0,1,2.28,0,3.1,3.1,0,0,1,.87.11s.37.38.2.39c-3.37.28-7.11.76-9.27,3.35a12.23,12.23,0,0,0-2.14,5.28,112,112,0,0,0-2,12,9.31,9.31,0,0,1-1.28,4.52,8.2,8.2,0,0,1-4.28,2.62c-2.46.84-5,1.5-7.37,2.55a14,14,0,0,0-6.11,4.69,10.08,10.08,0,0,1-1.33,1.83c-.55.51-1.63,1.32-2.15.77-1.11-1.16-1.07-3.32,2.15-6A25.06,25.06,0,0,1,442.7,169c3.21-1.35,6.56-2.3,9.84-3.47a3.4,3.4,0,0,0,1.6-.93A2.42,2.42,0,0,0,454.59,163.56Z"/><path class="cls-6" d="M410.07,78.46c.07-.3.1-.61.14-.91A63.55,63.55,0,0,1,413.37,65a23.52,23.52,0,0,1,2.71-5.65,17.58,17.58,0,0,1,2-2.48c.7-.72,1.79-1.27,2.1-2.26a.59.59,0,0,1,.17-.32.34.34,0,0,1,.43,0,.62.62,0,0,1,.2.41,1.86,1.86,0,0,1-.34,1.27,5.44,5.44,0,0,0-.65,1.27c-.1.45,1,0,1,0a8.65,8.65,0,0,1,1.6-.28,8.13,8.13,0,0,1,3.14.35.44.44,0,0,1,.3.19.4.4,0,0,1,0,.32,4.46,4.46,0,0,1-3,2.7,12,12,0,0,1-4.14.36,1.7,1.7,0,0,0-1.45.93,8.36,8.36,0,0,0-.57,3.41,45.66,45.66,0,0,0-.49,5.21q.06,3.48-.16,7c-.17,2.45.12,5.54-1.62,7.45A11.85,11.85,0,0,1,411,87.3c-2.38,1.13-12.5,4.42-15.06,5.07-3.08.77-4.28.11-5.38-2.78a5.21,5.21,0,0,1-.17-3.91c.85-1.89,3.19-2.5,5.23-2.89,4.13-.79,8.43-1.31,12.43-2.56a3.22,3.22,0,0,0,1.54-.8A2.29,2.29,0,0,0,410.07,78.46Z"/><path class="cls-7" d="M413.94,78.64c0-.48,0-1,0-1.44a61.92,61.92,0,0,1,1.52-12.5c.36-1.57.91-3.3,2.35-4,1.12-.57,2.47-.36,3.72-.53a8.64,8.64,0,0,0,4.09-1.58,4.19,4.19,0,0,1-2.59,2,12,12,0,0,1-4.14.36,1.7,1.7,0,0,0-1.45.93,8.36,8.36,0,0,0-.57,3.41,45.66,45.66,0,0,0-.49,5.21q.06,3.48-.16,7c-.17,2.45.12,5.54-1.62,7.45A11.85,11.85,0,0,1,411,87.3c-1.42.68-8.2,3-10.12,3.63-2.35.71-4,.06-3.5-1.48.34-1.1,1.52-1.18,2.54-1.45l3.72-1c.91-.25,7.38-2,8.9-3.88A7.39,7.39,0,0,0,413.94,78.64Z"/><path class="cls-19" d="M385.26,206.2c1.8,1.08,3.45,2.48,5.43,3.1a.75.75,0,0,0,.55,0,.6.6,0,0,0,.27-.62,2.1,2.1,0,0,0-.29-.67,20.11,20.11,0,0,1-2-4.3,17.84,17.84,0,0,1,0-4.84A3.37,3.37,0,0,0,389,197a1.36,1.36,0,0,0-2.06-.35,1.87,1.87,0,0,0-.45,1.22,9.88,9.88,0,0,0,.07,1.33,11.78,11.78,0,0,1-.27,2.58C385.94,204.47,383.2,205,385.26,206.2Z"/><path class="cls-26" d="M388,205.58c.15.68.33,1.35.52,2s.22.84.83,1.14a9.8,9.8,0,0,0,1.35.55.75.75,0,0,0,.55,0,.6.6,0,0,0,.27-.62,2.1,2.1,0,0,0-.29-.67,20.11,20.11,0,0,1-2-4.3,9.94,9.94,0,0,1-.1-3.08c0-.47.47-2.32-.58-1.91a1.2,1.2,0,0,0-.55.54c-.84,1.39-.67,3.15-.37,4.75C387.77,204.56,387.87,205.07,388,205.58Z"/><path class="cls-27" d="M385,204.09a5.39,5.39,0,0,0-2.11,2.48.75.75,0,0,0,.1.62,1.14,1.14,0,0,0,.28.21c1.09.63,2.24,1.21,3.28,1.92s2.15,1.73,3.25,2.55a7,7,0,0,0,3.09,1.42c.76.12,2.29.15,2.43-1-1.07-1.15-2.37-2-3.38-3.24a17.38,17.38,0,0,1-1.66-3.45c-1.3.37-3.33-.5-4.46-1.11A2.25,2.25,0,0,0,385,204.09Z"/><path class="cls-28" d="M383.06,206.61c-.19,0-.33.3,0,.61a7,7,0,0,0,1.22.73c.78.43,1.56.86,2.3,1.37,1.13.77,2.15,1.73,3.25,2.55a7,7,0,0,0,3.09,1.42c.76.12,2.29.15,2.43-1-1.07-1.15-2.37-2-3.38-3.24a17.38,17.38,0,0,1-1.66-3.45,3.56,3.56,0,0,1-1.79-.06.41.41,0,0,0-.46.25c-.15.34.23.67.4,1a1.24,1.24,0,0,1-.53,1.54,2.25,2.25,0,0,1-1.73.08A9.83,9.83,0,0,1,383.06,206.61Z"/><path class="cls-19" d="M336,202.53c1,1.91,1.78,4,3.22,5.61a.73.73,0,0,0,.48.31.61.61,0,0,0,.56-.42,1.81,1.81,0,0,0,.09-.73,21,21,0,0,1,.51-4.86,18.51,18.51,0,0,1,2.56-4.31,3.54,3.54,0,0,0,.74-1.82,1.41,1.41,0,0,0-1.66-1.38,2,2,0,0,0-1,.84,11.17,11.17,0,0,0-.64,1.24,12.72,12.72,0,0,1-1.58,2.16C337.54,201.34,334.84,200.34,336,202.53Z"/><path class="cls-26" d="M338.8,203.4c-.22.69-.42,1.38-.6,2.08s-.24.87.14,1.46a9.78,9.78,0,0,0,.92,1.2.73.73,0,0,0,.48.31.61.61,0,0,0,.56-.42,1.81,1.81,0,0,0,.09-.73,21,21,0,0,1,.51-4.86,10.33,10.33,0,0,1,1.52-2.81c.27-.4,1.64-1.83.48-2a1.25,1.25,0,0,0-.77.19c-1.48.81-2.24,2.47-2.81,4.05C339.13,202.37,339,202.89,338.8,203.4Z"/><path class="cls-27" d="M336.89,200.5a5.55,5.55,0,0,0-3.17,1.11.81.81,0,0,0-.24.61,1.11,1.11,0,0,0,.14.34c.65,1.13,1.37,2.25,1.92,3.42s1,2.67,1.57,4a7.31,7.31,0,0,0,2,2.89c.62.5,2,1.33,2.7.34-.35-1.58-1.08-3-1.31-4.65a18.59,18.59,0,0,1,.31-3.95c-1.34-.35-2.71-2.19-3.39-3.32A2.46,2.46,0,0,0,336.89,200.5Z"/><path class="cls-28" d="M333.86,201.75c-.16-.12-.45.09-.37.52a7.08,7.08,0,0,0,.72,1.28c.46.8.94,1.6,1.33,2.43.61,1.28,1,2.67,1.57,4a7.31,7.31,0,0,0,2,2.89c.62.5,2,1.33,2.7.34-.35-1.58-1.08-3-1.31-4.65a18.59,18.59,0,0,1,.31-3.95,3.77,3.77,0,0,1-1.56-1,.42.42,0,0,0-.54,0c-.32.23-.15.72-.17,1.11a1.29,1.29,0,0,1-1.28,1.1,2.33,2.33,0,0,1-1.59-.84A10,10,0,0,1,333.86,201.75Z"/><path class="cls-16" d="M370.33,147.9c3.27,5,9.08,9.65,13,13.71a6.54,6.54,0,0,1,2.05,3.09c.27,1.56-1,2.79-1.95,4-3.11,3.75-4,8.63-3.66,13.38.22,2.8,4,15.89,4.12,17.6a1.17,1.17,0,0,0,.26.78,1.24,1.24,0,0,0,.71.21c1.73.12,2,.18,3.7.3a1.57,1.57,0,0,0,1.09-.18,1.62,1.62,0,0,0,.44-1.24c.07-1.32,1.57-10.36,1.89-12.11,1.59-8.73,5-17.56,3.94-27.23-.87-7.84-4.72-15.85-8.86-23.94-1.89-3.68-4.05-7.64-7.86-10.24-5.15-3.51-11.57-2.17-12.78,2.41-1.45,5.46,0,11.46,2.55,17.06A18.49,18.49,0,0,0,370.33,147.9Z"/><path class="cls-15" d="M377.51,145.18c.18.47.37.93.58,1.39,2.38,5.15,6.4,9.33,10.18,13.56,1.17,1.31,2.4,2.81,2.36,4.57s-1.23,3.13-2.12,4.6c-2.75,4.55-2.63,10.24-2,15.52s1.76,10.64.68,15.85c.68.15,1.77.57,2.41.09a1.62,1.62,0,0,0,.44-1.24c.07-1.32,1.57-10.36,1.89-12.11,1.59-8.73,5-17.56,3.94-27.23-.87-7.84-4.72-15.85-8.86-23.94-1-2-3.65-8.76-6.73-7.5a4.27,4.27,0,0,0-1.76,1.59C375.56,134.54,375.66,140.29,377.51,145.18Z"/><path class="cls-29" d="M362.75,141.46c.08.73.18,1.46.3,2.18.76,4.87,3.77,12.93,1.41,17.7-.75,1.54-2.81,2.26-4.57,3a28.7,28.7,0,0,0-12.77,11.44c-1.71,2.73-9.21,19.63-9.19,20,0,.56.57.94,1.05,1.23,1.2.72,2.11,1.12,3.31,1.84a1,1,0,0,0,1.58-.26c1.09-1.36,6-6.46,7.22-7.73,1.6-1.64,3.27-3.28,4.73-5.05,7.7-8.13,17.2-15.51,22.34-25.09,4-7.53,5-15.89,5.76-24.1.31-3.62.52-7.5-1.67-10.62-4.69-6.73-15-2.91-18,3.37C362.43,133.09,362.29,137.33,362.75,141.46Z"/><path class="cls-30" d="M371,140.9c.21,3.16.84,6.28,1.17,9.43.36,3.5.32,7.14-1.05,10.37-2,4.77-6.51,7.91-10.48,11.22a76.58,76.58,0,0,0-12.27,12.92,79.27,79.27,0,0,0-4.85,7.32c-.76,1.31-1.48,2.63-2.16,4-.85,1.69-.66,1.77.91,2.71a1,1,0,0,0,1.58-.26c1.09-1.36,6-6.46,7.22-7.73,1.6-1.64,3.27-3.28,4.73-5.05,7.7-8.13,17.2-15.51,22.34-25.09,4-7.53,5-15.89,5.76-24.1.22-2.6.94-8.91-1.7-10.7s-7.39,1.88-8.79,3.88c-2,2.88-2.57,6.55-2.46,10.06C371,140.22,371,140.56,371,140.9Z"/><path class="cls-9" d="M363,133.46c3.15,2.6,9.49,1.9,13.57,1.3a12.64,12.64,0,0,0,7.85-3.95c1.65-1.94,2.44-4.44,3.19-6.88,1.84-6-1.15-26.71,8.11-30.47.93-.38,4.55-1.9,5.39-2.44.69-.45-.25-6.93-1.64-8.83-.46-.63-6.24.89-10.4.72-5.09-.22-12.7-3.54-16.31,2.63-4.26,7.27-.95,16.84-9.83,43.23C362.27,130.73,361.83,132.49,363,133.46Z"/><path class="cls-31" d="M372.94,133.2a2.56,2.56,0,0,0,0,.39c.31,2.11,2.08,1.39,3.6,1.17a12.64,12.64,0,0,0,7.85-3.95c1.65-1.94,2.44-4.44,3.19-6.88,1.84-6-1.15-26.71,8.11-30.47.93-.38,4.55-1.9,5.39-2.44.39-.25.31-1.53.12-1.86a2,2,0,0,0-1.75-.79,10.22,10.22,0,0,0-2.18.47c-2.52.63-6.44,1.88-7.63-.44-1.78-3.47-4.14-4.23-6.28-4.85-1.61-.47-1.83.44-1.49,1.43a13.55,13.55,0,0,0,1.67,2.67c1.64,2.62,1.34,6,.75,9-2.32,11.95-8.23,22.93-11.12,34.76A6.63,6.63,0,0,0,372.94,133.2Z"/><path class="cls-6" d="M377.91,82.71a1.36,1.36,0,0,0,.27,1.33,3.42,3.42,0,0,0,2.22,1.17c1.2.14,2.93-.66,2.59-2.11-.11-.5-.41-.95-.56-1.45a2.83,2.83,0,0,1,.41-2.34c1.06-1.6,3.88-1.13,4.26-2.4s-1.69-2.61-1.14-3.59c.3-.53,2.38-.53.64-2.39s-1.79-4.66-4.24-5.28c-2.07-.52-4.95-.35-6.21,1.63-2.08,3.29.92,7.21,2.36,10.06a4.06,4.06,0,0,1-.12,4.41A7.15,7.15,0,0,0,377.91,82.71Z"/><path class="cls-7" d="M377.91,82.71a1.36,1.36,0,0,0,.27,1.33,3.42,3.42,0,0,0,2.22,1.17c1.2.14,2.93-.66,2.59-2.11-.11-.5-.41-.95-.56-1.45a2.83,2.83,0,0,1,.41-2.34c1.06-1.6,3.88-1.13,4.26-2.4s-1.69-2.61-1.14-3.59c.3-.53,2.38-.53.64-2.39a20.47,20.47,0,0,1-2.06-3.5,4.2,4.2,0,0,0-1.28-1.4c-.43-.26-1.63-.82-1.64.14A1.51,1.51,0,0,0,382,67l1.43,2.07a1.57,1.57,0,0,1,.36.81c0,.54-.49,1-.53,1.54s.63,1.17,1.1,1.68a3.46,3.46,0,0,1-1.32,5.6,5.07,5.07,0,0,1-3.86-.4s-.07,1.46-.09,1.59a5.24,5.24,0,0,1-.68,1.85A7.15,7.15,0,0,0,377.91,82.71Z"/><path class="cls-32" d="M377.82,61.32a3.08,3.08,0,0,1-1.36,1c-.88.23-1.89-.33-2.69.1s-.87,1.29-1,2.08c-.33,2.07-2.54,1.81-3,3.58s1.64,1.86,1.94,3.13a6.45,6.45,0,0,1,0,1.7,2.28,2.28,0,0,0,.4,1.62c.91,1,2.81.23,3.9,1.09.4.32.65.85,1.13,1,2.45.92.38-3.15.33-3.6a1.58,1.58,0,0,1,.82-1.59c.83-.32,1.12.38,1.64.85,1.5,1.36,1.86-.76,1.5-2.1a3.69,3.69,0,0,1-.18-1.88,3,3,0,0,1,1.72-1.73,7.7,7.7,0,0,0,2.14-1.28,1.74,1.74,0,0,0,.29-2.26c-.6-.68-1.7-.49-2.54-.83-1.25-.51-2-2.21-3.36-2.06A2.88,2.88,0,0,0,377.82,61.32Z"/><path class="cls-33" d="M378.62,61.3a2.86,2.86,0,0,0,.11.73,3,3,0,0,1,.23,1.88,1.94,1.94,0,0,1-1.21,1,12.26,12.26,0,0,0-1.55.52,2.83,2.83,0,0,0-1.47,3.09c.19.81.74,1.67.36,2.41a1.84,1.84,0,0,1-1.28.8,5.08,5.08,0,0,0-1.48.45,1.62,1.62,0,0,0-.26,2.34c.91,1,2.81.23,3.9,1.09.4.32.65.85,1.13,1,2.45.92.38-3.15.33-3.6a1.58,1.58,0,0,1,.82-1.59c.83-.32,1.12.38,1.64.85,1.5,1.36,1.86-.76,1.5-2.1a3.69,3.69,0,0,1-.18-1.88,3,3,0,0,1,1.72-1.73,7.7,7.7,0,0,0,2.14-1.28,1.74,1.74,0,0,0,.29-2.26c-.6-.68-1.7-.49-2.54-.83-1.25-.51-2-2.21-3.36-2.06C378.81,60.26,378.61,60.76,378.62,61.3Z"/><path class="cls-34" d="M457,77.86a10.92,10.92,0,0,1,.92,4.52,7.37,7.37,0,0,1-5.82,7.33l-16.58,3.5c3.31-.75,3.82-13.81,4.36-13.7Z"/><path class="cls-35" d="M473,80.12a.81.81,0,0,0,.63-.84V64.1a.67.67,0,0,0-.77-.64,8.79,8.79,0,0,1-4.6.08c-5.19-1.23-9.38-6.44-9.35-11.63a8.55,8.55,0,0,1,.65-3.27l-2.58,1c0,.4-3.56-1.68-5.14-2a8,8,0,0,0-9.91,7.8c0,5.19,4.33,10.75,9.52,12,1.66.39,5.27,16.16,4.9,16.25Z"/><path class="cls-36" d="M419,26.84l16.84-3.55a19.23,19.23,0,0,1,7.61.15l29.07,6.21a1.38,1.38,0,0,1,1.08,1.3V46.13a.41.41,0,0,1-.32.42l-16.64,3.51c.18,0-.17-16.27-.76-16.39L428,27.73Z"/><path class="cls-37" d="M451.79,48a11.56,11.56,0,0,1,4.38,2c.35.25.76.08.76-.32V34.46a1.4,1.4,0,0,0-1.07-1.3L426.78,27c-11.23-2.39-20.33,4.77-20.33,16V72a1.4,1.4,0,0,0,1.08,1.31l14.84,3.16a.91.91,0,0,1,.67,1.19,8.33,8.33,0,0,0-.92,3.91,12.5,12.5,0,0,0,9.51,11.6c5.19,1.14,9.52-2.13,9.63-7.3a10.69,10.69,0,0,0-.92-4.51.62.62,0,0,1,.68-.91l14.84,3.17a.84.84,0,0,0,1.07-.84V67.62a.65.65,0,0,0-.76-.64,8.8,8.8,0,0,1-4.6.07c-5.2-1.22-9.39-6.44-9.35-11.63S446.52,46.84,451.79,48Z"/><path class="cls-7" d="M407.22,97.1a10.1,10.1,0,0,0,.95-.59c4.36-2.89,11.14-4.84,16.06-6.94a34.65,34.65,0,0,1,7.54-2.3,27.12,27.12,0,0,1,4-.41c1.28,0,2.75.36,3.93-.16a1,1,0,0,1,.44-.12.39.39,0,0,1,.35.35.72.72,0,0,1-.19.47,2.66,2.66,0,0,1-1.46.72,8.17,8.17,0,0,0-1.74.48c-.49.28.87.75.95.78a11.28,11.28,0,0,1,1.69,1A9.17,9.17,0,0,1,442.24,93a.44.44,0,0,1,.09.37.59.59,0,0,1-.31.24,6.62,6.62,0,0,1-5.11-.17c-1.67-.71-3-2.83-4.68-3.25s-4.17,1.49-5.36,2.27c-5.42,3.53-10.74,8.64-16.25,12.07a12.53,12.53,0,0,1-5.05,2,17.46,17.46,0,0,1-6.38-.76c-3.43-.84-16.14-5.64-17.5-6.66a4.83,4.83,0,0,1-.6-7.2c3.66-3.84,9.64-.9,13.66.6,3.78,1.41,5.41,2.93,9.08,4.52a4.81,4.81,0,0,0,2.11.53A3.36,3.36,0,0,0,407.22,97.1Z"/><path class="cls-6" d="M407.22,97.1a10.1,10.1,0,0,0,.95-.59c4.36-2.89,11.14-4.84,16.06-6.94a34.65,34.65,0,0,1,7.54-2.3,27.12,27.12,0,0,1,4-.41c1.28,0,2.75.36,3.93-.16a1,1,0,0,1,.44-.12.39.39,0,0,1,.35.35.72.72,0,0,1-.19.47,2.66,2.66,0,0,1-1.46.72,8.17,8.17,0,0,0-1.74.48c-.49.28.87.75.95.78a11.28,11.28,0,0,1,1.69,1,7,7,0,0,1,2.44,2.56c-3.5-2.33-7.25-4.77-11.67-4.13a17.77,17.77,0,0,0-5.11,1.79q-7.91,3.73-15.42,8.24a13,13,0,0,1-4.62,2.05c-2.67.42-5.34-.91-8-1.2-1.66-.18-3.43-.55-4.54-1.79a2.59,2.59,0,0,1-.7-2.26,2.81,2.81,0,0,1,1.48-1.68,4.63,4.63,0,0,1,4.81.21c1.79,1,3.52,2,5.39,2.82a4.81,4.81,0,0,0,2.11.53A3.36,3.36,0,0,0,407.22,97.1Z"/><path class="cls-9" d="M398.25,93.93c0,2.92-2.2,9.45-3.84,10.12-.64.26-1.43-.25-2.06-.48q-2.37-.87-4.71-1.78c-1.94-.76-4.41-1.41-6.09-2.69a4.92,4.92,0,0,1-.62-7.34c3.74-3.91,9.83-.91,13.93.62A18,18,0,0,1,398.25,93.93Z"/><path class="cls-31" d="M396.86,99.62c.36,0-1.4,4-2.45,4.43-.64.26-1.43-.25-2.06-.48q-2.37-.87-4.71-1.78c-1.21-.48-7.17-1.81-6.29-4C382,96.18,396.41,99.58,396.86,99.62Z"/><path class="cls-6" d="M604.08,89.49a8.6,8.6,0,0,1-.33-.84c-1-2.82-7.72-12.35-7.07-14.1a3.06,3.06,0,0,1,3-2.13c.15-.37-.24-.78-.64-.83a3.34,3.34,0,0,0-1.19.22,1.14,1.14,0,0,1-1.13-.21,1.49,1.49,0,0,1-.15-1.18,10.41,10.41,0,0,0-.13-2.67c-.14-.8-.09-1.55-.9-1.55-.61,0-1.73,1.21-2,1.74a6.42,6.42,0,0,0-.6,4.32c.25,2.14,1.66,2.46,2.31,4.48,1,3.09,1.54,7.84,2.53,10.93.72,2.25,1.5,4.6,3.19,6.26a13,13,0,0,0,5,2.72,79.53,79.53,0,0,0,13,3.09,9.38,9.38,0,0,0,4,0,3.32,3.32,0,0,0,2.54-2.84c.1-3.55-7-5.05-9.69-5.42-3.16-.44-6.33-.49-9.5-.76a3.1,3.1,0,0,1-1.64-.44A2.25,2.25,0,0,1,604.08,89.49Z"/><path class="cls-7" d="M603.91,89.49a2.85,2.85,0,0,0-.16-.84c-1-2.82-7.72-12.35-7.07-14.1a3.06,3.06,0,0,1,3-2.13c.15-.37-.24-.78-.64-.83a4,4,0,0,0-2.65,1c-1.09,1-.62,2.59-.27,3.81a19.39,19.39,0,0,0,1.45,3.34q2.49,4.84,5,9.68c.21.41.59.9,1,.73A.68.68,0,0,0,603.91,89.49Z"/><path class="cls-7" d="M602.89,94.13c-.61-.15-1.22-.33-1.82-.52-.23,1.46,3.86,2.69,4.87,3a79.53,79.53,0,0,0,13,3.09c1.71.27,3.89.66,5.18-.8a1.51,1.51,0,0,0,.4-1.33c-.22-.83-1.23-1.11-2.07-1.22C616,95.5,609.23,95.75,602.89,94.13Z"/><path class="cls-30" d="M615.14,94.67a4.48,4.48,0,0,1,1.22-3.08c2.95.47,11.25-.41,11.15,2.94,0,1.36-3.2,4.87-4.5,5.24a9.38,9.38,0,0,1-4,0l-2.2-.38A5.72,5.72,0,0,1,615.14,94.67Z"/><path class="cls-38" d="M615.37,95a.05.05,0,0,1,0,0,1.48,1.48,0,0,1,.86-.09,18.81,18.81,0,0,0,4,0c.44,0,1-.2,1.07-.64s-.37-.84-.38-1.29a.9.9,0,0,1,.52-.78,3.34,3.34,0,0,1,2.1-.08,10.17,10.17,0,0,1,2,.44c.93.32,1.89.93,1.85,2,0,1.36-3.2,4.87-4.5,5.24a9.38,9.38,0,0,1-4,0l-2.2-.38a4.38,4.38,0,0,1-1.34-2.15C615.27,96.72,614.82,95.36,615.37,95Z"/><path class="cls-7" d="M621,161.92a7.65,7.65,0,0,0-1.86,3.25c-.3,1.64.66,2.93,1.42,4.18,2.39,4,2.9,9.08,2.35,14.08-.19,1.65-.44,3.28-.74,4.91a42.08,42.08,0,0,1-1.29,4.51q-1.47,5-2.93,10a9.58,9.58,0,0,0-.58,3.84,5,5,0,0,1,.13,1.91,3.29,3.29,0,0,1-1.66,1.73,10.48,10.48,0,0,1-4.88,2c-.34,0-.75-.05-.86-.37s.15-.62.39-.85a14.61,14.61,0,0,0,3.38-4,8.65,8.65,0,0,0,.8-4.23c-1.63-29-5.47-32.25-4.07-42.42,1.13-8.25,4.75-16.68,8.62-25.19,1.76-3.87,3.77-8,7.07-10.77,4.48-3.7,9.75-2.29,10.52,2.53C637.73,132.74,638.22,141.08,621,161.92Z"/><path class="cls-6" d="M615.63,159.71a12.1,12.1,0,0,0-.62,2c-.93,4.32.73,8.71,1.51,13.05.84,4.77.62,9.66.39,14.5l-.57,12.38a14.69,14.69,0,0,1-1.24,6.28,7.35,7.35,0,0,1-4.13,3.48c-.5-.85,2.47-3.44,2.9-4.32a8.65,8.65,0,0,0,.8-4.23c-1.63-29-5.47-32.25-4.07-42.42a62.93,62.93,0,0,1,3.69-13.6c.45-1.19.92-2.37,1.41-3.55a12.46,12.46,0,0,1,1-2.53c1.07-1.44,4.23-2,5.89-2a5.27,5.27,0,0,1,5,3.52c.66,2.57-1.24,5-3.14,6.89C621.18,152.38,617.33,155.53,615.63,159.71Z"/><path class="cls-7" d="M645.19,138.07c1.17,5.41.36,12.12.45,17.5a6.77,6.77,0,0,0,.74,3.65c.94,1.42,2.73,1.69,4.31,2.09,5,1.24,9.3,4.72,12.66,8.91,4,5,7,11.18,9.78,17,.9,1.91,1.63,4.2,3.41,5.44a4.41,4.41,0,0,1,1.17.93,3.34,3.34,0,0,1,.5,1.85,8,8,0,0,1-.2,3.05,3.31,3.31,0,0,1-2.06,2.21.57.57,0,0,1-.53-.05c-.18-.15-.14-.43-.09-.67a8.35,8.35,0,0,0-2.26-6.83c-1.63-1.82-31.13-24.7-34.46-29.38-4.86-6.85-11.73-15.8-14.11-24.1a27,27,0,0,1,0-12.92c1.38-4.91,6.66-7,10.43-4.47,4.54,3.07,7.55,8,9.56,13.28A16.06,16.06,0,0,1,645.19,138.07Z"/><path class="cls-6" d="M636.48,142.7a41.2,41.2,0,0,1,3.89,10.46c.91,4.07,1.36,8.62,4.38,11.52,1.61,1.53,3.73,2.38,5.63,3.54,7.06,4.32,10.55,12.6,16.81,18,2.13,1.83,4.56,3.31,6.55,5.29s3.54,4.64,3.26,7.43a1.73,1.73,0,0,1-.79,1.48c-1.42.66-.82-2.46-1-3.1a9.31,9.31,0,0,0-2.18-4.11c-1.63-1.82-31.13-24.7-34.46-29.38-4.86-6.85-11.73-15.8-14.11-24.1-.66-2.31-1.7-8.1,2.69-7.46a6.62,6.62,0,0,1,3.72,2.49A40.66,40.66,0,0,1,636.48,142.7Z"/><path class="cls-38" d="M646.76,144a4.09,4.09,0,0,1-.85,2.71,4.26,4.26,0,0,1-2.55,1,56.91,56.91,0,0,1-26.94-2.49,3.47,3.47,0,0,1-2-1.33,3.6,3.6,0,0,1,0-2.66,55.57,55.57,0,0,1,3.47-10.08,18.7,18.7,0,0,1,6.9-8c3.91-2.32,9.52-2.49,13.07.52a25.69,25.69,0,0,1,7.84,12A24.46,24.46,0,0,1,646.76,144Z"/><path class="cls-30" d="M637.08,146h0c.79,3.86-6.38,2.21-8.58,2a56.84,56.84,0,0,1-12.08-2.74,3.47,3.47,0,0,1-2-1.33,3.6,3.6,0,0,1,0-2.66,55.57,55.57,0,0,1,3.47-10.08,20.1,20.1,0,0,1,4.92-6.53c1.06-.9,1.94-1.71,3.36-1.15a5,5,0,0,1,2.59,3c.64,1.73.73,3.64,1.46,5.33.88,2.05,2.63,3.59,3.86,5.45C635.79,139.83,636.45,143,637.08,146Z"/><path class="cls-39" d="M615.58,209.19a9.78,9.78,0,0,0,1.11-1.68c.2-.39.52-.86.94-.66a3.22,3.22,0,0,0,.16.61c.15.39.29.77.41,1.16a19.9,19.9,0,0,1,.56,2.11c.15.7.18,1.36.28,2.05l-1.85-.08s-.33-1.49-.36-1.63c-.09-.33-.07-.38-.33-.39a1.8,1.8,0,0,0-.55.15,3.16,3.16,0,0,0-1.67,1.48,1.38,1.38,0,0,1-.31.46.93.93,0,0,1-.59.14c-.91,0-1.82,0-2.73,0-.67,0-2.23.34-2.64-.79a.45.45,0,0,1,.12-.49.94.94,0,0,1,.43-.16,5.81,5.81,0,0,0,2.64-1.33c.36-.32.47-.36.9,0a2.88,2.88,0,0,0,1,.64,1.71,1.71,0,0,0,1.53-.58A9.1,9.1,0,0,0,615.58,209.19Z"/><path class="cls-39" d="M677.43,195.56a9.25,9.25,0,0,0-.49-1.91c-.15-.41-.28-1,.14-1.16a3.06,3.06,0,0,0,.55.26c.38.12.75.26,1.12.4a20.52,20.52,0,0,1,1.9.88c.61.33,1.11.72,1.68,1.08-.43.46-.86.93-1.28,1.4,0,0-1.3-.69-1.43-.74-.3-.14-.32-.19-.5,0a1.67,1.67,0,0,0-.25.52,3.2,3.2,0,0,0,0,2.24,1.42,1.42,0,0,1,.13.53,1.16,1.16,0,0,1-.29.56c-.57.72-1.19,1.43-1.83,2.1-.43.54-1.23,2-2.33,1.58a.42.42,0,0,1-.27-.4,1,1,0,0,1,.17-.44,6.26,6.26,0,0,0,.78-2.9c0-.48,0-.59.58-.71a3.05,3.05,0,0,0,1.15-.43,1.8,1.8,0,0,0,.59-1.55A9.76,9.76,0,0,0,677.43,195.56Z"/><path class="cls-31" d="M632.26,116.73c.46,1.77,1.83,3.12,2.81,4.66s1.7,3.46,1.07,5.17a4.79,4.79,0,0,1-3.38,2.75,13.68,13.68,0,0,1-4.47.14c-2-.16-4.35-.48-5.47-2.21a6.5,6.5,0,0,1-.77-3.57,22.64,22.64,0,0,0-2.83-11c-1.11-1.7-2.62-3.1-3.74-4.8-.54-.83-3.12-4,1-10,1.07-1.56,3.32-5.49,6.92-6.52a9.05,9.05,0,0,1,4.12-.29C636.37,93.4,629.66,106.82,632.26,116.73Z"/><path class="cls-9" d="M627.78,109.94a1.25,1.25,0,0,1,.41.76,2.69,2.69,0,0,1-.43,1.37,10.66,10.66,0,0,0-.35,7.59,65.72,65.72,0,0,0,2.87,7.22,3.15,3.15,0,0,1,.32,1.53c-.15,1.25-1.39,1.11-2.31,1-2-.16-4.35-.48-5.47-2.21a6.5,6.5,0,0,1-.77-3.57,22.64,22.64,0,0,0-2.83-11c-1.11-1.7-2.62-3.1-3.74-4.8-.54-.83-3.12-4,1-10a23.13,23.13,0,0,1,3.85-4.79c.79-.68,2.17-1.77,3.27-1.79,1.67,0,.89,1.49-.16,1.93a13.32,13.32,0,0,0-7.57,8.91,6.44,6.44,0,0,0,.15,4.25,5.84,5.84,0,0,0,4.2,3,19,19,0,0,0,5.33,0,4.2,4.2,0,0,1,1.62.09A1.77,1.77,0,0,1,627.78,109.94Z"/><path class="cls-30" d="M628.6,95.3a4.44,4.44,0,0,1-3.89,2,3.34,3.34,0,0,1-2.84-1.63,3.06,3.06,0,0,1,.66-3.5c1.28-1.23,3-1.14,4.6-.69.91.25,1.84.53,2,1.63a3.13,3.13,0,0,1-.28,1.73A3.25,3.25,0,0,1,628.6,95.3Z"/><path class="cls-6" d="M627.6,92.54a1.24,1.24,0,0,1-.3,1.28A3.52,3.52,0,0,1,625,94.89c-1.22.12-2.95-.68-2.59-2.06.13-.48.44-.91.6-1.38A3,3,0,0,0,621.66,88c-.38-.22-.79-.36-1.18-.56a1.93,1.93,0,0,1-.93-.85,3.09,3.09,0,0,1,0-1.6,1.61,1.61,0,0,0-.27-1.13c-.22-.28-.65-.53-.68-.91s.41-.57.73-.76a2,2,0,0,0,1-1.49c.06-.51-.09-1,0-1.54.23-1.93,2.95-2.39,4.59-2.19a5.71,5.71,0,0,1,2.45.86,3.63,3.63,0,0,1,1.53,2,4.87,4.87,0,0,1-.37,3c-.42,1.06-1,2.06-1.4,3.12a6.16,6.16,0,0,0,.1,5.65A5.74,5.74,0,0,1,627.6,92.54Z"/><path class="cls-7" d="M627.6,92.54a1.24,1.24,0,0,1-.3,1.28c-.54.64-2.25,1.64-2.72.44a1.88,1.88,0,0,1,0-1.05c.07-.35.18-.69.22-1a3.24,3.24,0,0,0-.85-2.33A7.27,7.27,0,0,0,621.63,88c-.16-.07-.5-.11-.61-.24s0-.35.24-.36.65.06,1,0a.86.86,0,0,0,.78-.5,1,1,0,0,0-.28-.92c-.43-.56-1-1-1.38-1.64a2,2,0,0,1-.23-2,3.61,3.61,0,0,1,.5-.61,1.42,1.42,0,0,0,.37-.68c.09-.65-.56-.81-1-1.1s-.87-.82-.63-1.38a2.43,2.43,0,0,1,1.14-1.1,5.85,5.85,0,0,1,3.28-.49,5.71,5.71,0,0,1,2.45.86,3.63,3.63,0,0,1,1.53,2,4.87,4.87,0,0,1-.37,3c-.42,1.06-1,2.06-1.4,3.12a6.16,6.16,0,0,0,.1,5.65A5.74,5.74,0,0,1,627.6,92.54Z"/><path class="cls-19" d="M629.41,78.89c1.92.43,4.29-2.25,5.27-3.53,1.21-1.57,1.87-3.58,3.1-5.08a17.91,17.91,0,0,1,4.48-3.69,12.41,12.41,0,0,1,7.41-1.85c2.91.26,5,2.11,7.56,3.39a14.78,14.78,0,0,0,7.42,1.55,3.21,3.21,0,0,1,2.53.5,2.64,2.64,0,0,1,.55,1.84,13.91,13.91,0,0,1-2.61,8.29,17.78,17.78,0,0,1-9.75,6.35c-4.24,1.19-8,1.67-11.83-.83a38.21,38.21,0,0,0-6.45-3.55c-1-.41-6.65-2.72-7.3-1.54a2.55,2.55,0,0,0-.11,1.35,5.16,5.16,0,0,1-.47,2.48,5.37,5.37,0,0,1-1.54,2.05,1.1,1.1,0,0,1-1.1.13,1.44,1.44,0,0,1-.61-1.22c0-.61.21-1.13.17-1.74a1.52,1.52,0,0,0-.33-.92.92.92,0,0,0-.9-.31,1.41,1.41,0,0,0-.8.77c-.14.26-.19.67-.57.71s-.51-.24-.59-.51c-.27-.84.29-1.75.12-2.62a2.43,2.43,0,0,0-1.38-1.56c-.81-.42-2.66-.72-2.17-2.07.2-.56.87-.77,1.44-.9,2-.47,4.29-.88,5.91.38.68.52,1.14,1.29,1.84,1.8A2.08,2.08,0,0,0,629.41,78.89Z"/><path class="cls-20" d="M630.08,80.05l3.86-2.22a28.62,28.62,0,0,1,7.14-3.27c4.83-1.21,9.9.19,14.59,1.87,2.43.86,5.13,1.8,7.49.77,2.13-.94,3.52-3.2,4.53-5.31a10.47,10.47,0,0,1-.53,4.25,13.83,13.83,0,0,1-2,4.17,17.78,17.78,0,0,1-9.75,6.35c-4.24,1.19-8,1.67-11.83-.83a38.21,38.21,0,0,0-6.45-3.55c-1-.41-6.65-2.72-7.3-1.54a2.55,2.55,0,0,0-.11,1.35,5.16,5.16,0,0,1-.47,2.48,5.37,5.37,0,0,1-1.54,2.05,1.1,1.1,0,0,1-1.1.13,1.44,1.44,0,0,1-.61-1.22c0-.61.21-1.13.17-1.74a1.52,1.52,0,0,0-.33-.92.92.92,0,0,0-.9-.31,1.41,1.41,0,0,0-.8.77c-.14.26-.19.67-.57.71s-.51-.24-.59-.51c-.27-.84.29-1.75.12-2.62a2.43,2.43,0,0,0-1.38-1.56c-.55-.28-2.19-.52-1.74-1.37a1.58,1.58,0,0,1,2-.49,4.21,4.21,0,0,1,1.7,2,4.15,4.15,0,0,0,1.73,2c1.17.51,2.49-.14,3.6-.78Z"/><polygon class="cls-40" points="532.82 45.86 548.51 42.55 550.39 48.67 534.08 54.25 532.82 45.86"/><path class="cls-41" d="M556.53,82.8l15.59-3.29a.42.42,0,0,0,.23-.62,10.58,10.58,0,0,1-1-3.71l-.22-2.88-10.8-3.12L554,76Z"/><path class="cls-42" d="M541.71,32.47l15.54-3.28a1,1,0,0,1,.43,0L584.92,35C595.44,37.24,604,47.59,604,58.11V85.35a.77.77,0,0,1-.62.79l-15.58,3.29Z"/><path class="cls-43" d="M569.33,38.29l-27.24-5.81a.79.79,0,0,0-1,.79v13.9c0,.51-.52.74-1,.43a10.67,10.67,0,0,0-3.84-1.69c-4.93-1-8.93,2.08-9,7a11.74,11.74,0,0,0,8.76,10.89,8.35,8.35,0,0,0,4,0,.87.87,0,0,1,1,.84V78.55a1.32,1.32,0,0,0,1,1.22l14.22,3c.37.08.61-.25.45-.62a10.2,10.2,0,0,1-1-4.52c.11-4.84,4.16-7.9,9-6.83a11.7,11.7,0,0,1,8.91,10.86,7.69,7.69,0,0,1-1,3.9.6.6,0,0,0,.45.81l14.22,3a.78.78,0,0,0,1-.79V61.4C588.37,50.88,579.85,40.54,569.33,38.29Z"/><path class="cls-7" d="M599.32,98.39a7.38,7.38,0,0,1-.59-.87,73,73,0,0,0-9.36-11.33,27.18,27.18,0,0,0-5.54-4.49,19.51,19.51,0,0,0-3.25-1.58c-1.07-.4-2.45-.44-3.26-1.31a.76.76,0,0,0-.33-.24.39.39,0,0,0-.42.25.77.77,0,0,0,0,.52c.15.57.55.8,1,1.14s.94.51,1.29,1-1,.49-1.08.51a9,9,0,0,0-1.78.48,9.35,9.35,0,0,0-3.05,1.89.5.5,0,0,0-.21.34.49.49,0,0,0,.17.33,5.08,5.08,0,0,0,4.38,1.32,13.45,13.45,0,0,0,4.42-1.65,2,2,0,0,1,1.94.25c1,.74,1.62,2.15,2.26,3.24L591.63,98c1.4,2.37,2.89,4.84,5.24,6.3a15.2,15.2,0,0,0,6.41,1.81,91.42,91.42,0,0,0,15.61.15,11,11,0,0,0,4.61-1,3.89,3.89,0,0,0,2.16-3.89c-.8-4.08-9.31-3.94-12.42-3.68-3.71.31-7.33,1.07-11,1.59a3.55,3.55,0,0,1-2-.08A2.5,2.5,0,0,1,599.32,98.39Z"/><path class="cls-6" d="M599.32,98.39a7.38,7.38,0,0,1-.59-.87,73,73,0,0,0-9.36-11.33,27.18,27.18,0,0,0-5.54-4.49,19.51,19.51,0,0,0-3.25-1.58c-1.07-.4-2.45-.44-3.26-1.31a.76.76,0,0,0-.33-.24.39.39,0,0,0-.42.25.77.77,0,0,0,0,.52c.15.57.55.8,1,1.14s.94.51,1.29,1-1,.49-1.08.51a9,9,0,0,0-1.78.48,11.69,11.69,0,0,0-2.15,1.15c-.14.1-.7.37-.77.53s-.16.54,0,.47c3.31-1.4,7.08-2.81,10.41-1.42a13,13,0,0,1,4.64,3.93A118.7,118.7,0,0,1,596,97.52a10.06,10.06,0,0,0,3.45,3.64,8.82,8.82,0,0,0,5.34.36c2.74-.43,5.45-1.07,8.22-1.25a14.88,14.88,0,0,1,8.09,1.42,11.09,11.09,0,0,0,2.16,1.06c.77.22,2.19.44,2.41-.33.48-1.65-.64-3.68-5-4.59a26.27,26.27,0,0,0-7.41-.18c-3.71.31-7.33,1.07-11,1.59a3.55,3.55,0,0,1-2-.08A2.5,2.5,0,0,1,599.32,98.39Z"/><path class="cls-38" d="M626,101.36a4.14,4.14,0,0,1-2.2,4,11.13,11.13,0,0,1-4.72,1c-1.87.11-3.75.2-5.64.23,2.7-1.51,2.77-5.9,1.31-8.37a1.71,1.71,0,0,0-.8-.72C618.36,97,625.53,97.34,626,101.36Z"/><path class="cls-30" d="M624.28,100.58a2.52,2.52,0,0,1-1.83,1.33,7.41,7.41,0,0,1-2.44,0,9.71,9.71,0,0,1-2.82-.64c-1.33-.59-1.86-1.76-2.44-3a1.71,1.71,0,0,0-.8-.72c1.75-.19,11.8-.79,10.37,3A.36.36,0,0,1,624.28,100.58Z"/><path class="cls-44" d="M505.32,257.88c-.45,0-.77-.19-.71-.36s.47-.31.92-.29c3.29.17,6.61.32,9.88.46.42,0,.78.18.73.36s-.46.31-.91.29c-3.28-.14-6.61-.29-9.91-.46Z"/><path class="cls-44" d="M498.75,257.53h0c-3.25-.18-6.56-.38-9.84-.59-.45,0-.76-.2-.69-.37s.5-.29,1-.27c3.27.21,6.58.41,9.82.59.45,0,.76.19.7.36S499.2,257.55,498.75,257.53Z"/><path class="cls-44" d="M521.81,258.6c-.43,0-.75-.18-.71-.36s.44-.31.9-.29c3.3.12,6.63.23,9.9.32.45,0,.8.17.77.35s-.43.31-.88.3c-3.29-.09-6.63-.2-9.94-.32Z"/><path class="cls-44" d="M482.39,256.51h0c-3.25-.23-6.55-.47-9.8-.72-.45,0-.74-.2-.65-.38s.52-.29,1-.26c3.24.25,6.53.49,9.77.72.45,0,.75.2.67.37S482.82,256.53,482.39,256.51Z"/><path class="cls-44" d="M538.36,259.08c-.42,0-.74-.17-.72-.34s.42-.32.88-.31c3.32.08,6.66.14,9.92.18.46,0,.82.15.8.33s-.39.32-.85.32c-3.28-.05-6.63-.1-10-.18Z"/><path class="cls-44" d="M466.11,255.28H466l-9.73-.84c-.45,0-.73-.21-.63-.39s.54-.28,1-.24c3.25.29,6.51.57,9.71.83.45,0,.74.21.64.38S466.53,255.3,466.11,255.28Z"/><path class="cls-44" d="M554.94,259.32c-.41,0-.72-.16-.72-.33s.39-.32.85-.32c3.3,0,6.64,0,9.93,0,.46,0,.83.14.83.32s-.36.32-.82.33c-3.3,0-6.65,0-10,0Z"/><path class="cls-44" d="M449.92,253.85h-.08c-3.22-.31-6.48-.63-9.68-1-.44,0-.7-.22-.59-.39a1.23,1.23,0,0,1,1-.23c3.19.32,6.43.64,9.64.94.45,0,.72.22.61.4A1.16,1.16,0,0,1,449.92,253.85Z"/><path class="cls-44" d="M433.85,252.23h-.11c-3.21-.34-6.44-.7-9.6-1.07-.44-.05-.69-.23-.56-.4a1.32,1.32,0,0,1,1-.22c3.15.36,6.37.72,9.57,1.06.44,0,.7.23.58.4A1.2,1.2,0,0,1,433.85,252.23Z"/><path class="cls-44" d="M571.53,259.29c-.39,0-.7-.15-.72-.32s.35-.32.81-.33c3.31,0,6.65-.08,9.92-.15.46,0,.85.13.87.3s-.32.34-.78.35c-3.28.06-6.64.12-10,.15Z"/><path class="cls-44" d="M417.9,250.42l-.13,0c-3.15-.37-6.35-.77-9.52-1.17-.43-.06-.67-.24-.53-.41a1.36,1.36,0,0,1,1-.21c3.16.4,6.35.8,9.48,1.17.44.06.69.24.55.41A1.23,1.23,0,0,1,417.9,250.42Z"/><path class="cls-44" d="M588.1,259c-.38,0-.68-.14-.71-.3s.31-.33.76-.35c3.32-.09,6.65-.2,9.89-.33.46,0,.87.11.91.29s-.28.33-.74.35c-3.26.13-6.6.25-9.94.34Z"/><path class="cls-44" d="M402.1,248.42l-.16,0c-3.16-.42-6.33-.85-9.43-1.29-.43-.06-.65-.25-.5-.42a1.43,1.43,0,0,1,1.06-.19c3.09.43,6.25.87,9.4,1.29.43.05.66.24.52.41A1.26,1.26,0,0,1,402.1,248.42Z"/><path class="cls-44" d="M604.62,258.34c-.37,0-.67-.13-.71-.28s.26-.34.72-.36c3.28-.16,6.59-.34,9.83-.54.44,0,.87.09.94.27s-.24.34-.69.37c-3.25.2-6.58.38-9.88.54A1.47,1.47,0,0,1,604.62,258.34Z"/><path class="cls-44" d="M386.44,246.23l-.18,0c-3.1-.45-6.24-.93-9.33-1.4-.42-.07-.63-.26-.46-.43a1.54,1.54,0,0,1,1.07-.18c3.08.48,6.21,1,9.3,1.4.43.06.64.25.48.42A1.3,1.3,0,0,1,386.44,246.23Z"/><path class="cls-44" d="M621,257.37c-.35,0-.64-.12-.71-.26s.22-.35.67-.38c3.23-.23,6.51-.49,9.73-.77.45,0,.89.07,1,.25s-.18.34-.63.38c-3.25.29-6.54.55-9.79.78Z"/><path class="cls-44" d="M371,243.85l-.21,0c-3.09-.49-6.19-1-9.21-1.52-.42-.07-.61-.26-.43-.42a1.49,1.49,0,0,1,1.08-.17c3,.51,6.1,1,9.19,1.51.42.07.62.26.45.42A1.32,1.32,0,0,1,371,243.85Z"/><path class="cls-44" d="M637.25,256a1,1,0,0,1-.7-.25c-.11-.17.16-.35.6-.39,3.19-.31,6.41-.66,9.58-1a1.33,1.33,0,0,1,1,.22c.13.17-.12.35-.56.4-3.2.37-6.44.72-9.64,1Z"/><path class="cls-44" d="M653.21,254.22a1,1,0,0,1-.68-.23c-.14-.17.1-.35.54-.41,3.12-.38,6.29-.8,9.41-1.24a1.43,1.43,0,0,1,1.06.2c.15.17-.07.35-.51.41-3.14.44-6.32.86-9.46,1.25A2.17,2.17,0,0,1,653.21,254.22Z"/><path class="cls-44" d="M668.88,252.07a1.2,1.2,0,0,1-.67-.21c-.16-.17.06-.36.48-.42,3.06-.46,6.16-.94,9.23-1.45a1.47,1.47,0,0,1,1.08.18c.17.16,0,.35-.45.42-3.07.51-6.19,1-9.27,1.46A2.68,2.68,0,0,1,668.88,252.07Z"/><path class="cls-44" d="M684.23,249.58a1.09,1.09,0,0,1-.65-.19c-.19-.16,0-.35.42-.43,3-.52,6-1.07,9-1.63a1.59,1.59,0,0,1,1.11.15c.2.17,0,.36-.39.44-3,.56-6.06,1.11-9.07,1.64A2.16,2.16,0,0,1,684.23,249.58Z"/><path class="cls-44" d="M699.24,246.8a1.28,1.28,0,0,1-.64-.18c-.2-.16,0-.35.37-.43,2.92-.58,5.89-1.19,8.82-1.81a1.66,1.66,0,0,1,1.12.14c.21.15.06.35-.34.44-2.94.62-5.92,1.23-8.86,1.81A1.86,1.86,0,0,1,699.24,246.8Z"/><path class="cls-45" d="M172.12,179.2,215.45,170a12.88,12.88,0,0,1,15.29,9.93s1.37,6.45,2.54,11.92a17.45,17.45,0,0,0,8.22,11.43l8.42,5L181.4,222.8a12.9,12.9,0,0,1-15.3-9.93l-3.91-18.38A12.89,12.89,0,0,1,172.12,179.2Z"/><path class="cls-46" d="M169.17,220.83l0-.59A13.28,13.28,0,0,0,171,220l1-.22.13.59-1,.22A12.07,12.07,0,0,1,169.17,220.83Zm-2,0a13.3,13.3,0,0,1-3-.65l.19-.57a12.28,12.28,0,0,0,2.86.62Zm7-.87-.12-.59,2.93-.62.13.59Zm-11.87-.59a13.18,13.18,0,0,1-2.53-1.73l.4-.45a12.39,12.39,0,0,0,2.41,1.65Zm16.76-.45-.12-.59,2.93-.62.13.59Zm4.89-1-.12-.59,2.93-.62.13.59Zm4.89-1-.12-.59,2.93-.62.13.59Zm-30.5-.65a13.5,13.5,0,0,1-1.69-2.56l.54-.27a12.72,12.72,0,0,0,1.61,2.44Zm35.39-.39-.12-.59,2.93-.62.13.58Zm4.9-1-.13-.59,2.93-.62.13.58Zm4.89-1-.13-.59,2.93-.62.13.58Zm4.89-1-.13-.59,2.94-.62.12.58Zm-52.53-.94a12.52,12.52,0,0,1-.35-1.3l-.35-1.65.59-.12.35,1.64a12.54,12.54,0,0,0,.33,1.24Zm57.42-.1-.13-.59,2.94-.63.12.59Zm4.89-1L218,210l2.94-.63.12.59Zm4.89-1-.13-.58,2.94-.63.12.59Zm4.89-1-.13-.58,2.94-.63.12.59Zm4.89-1-.13-.58,2.94-.63.12.59Zm-78.09-.64-.63-2.93.59-.12.62,2.93Zm83-.4-.13-.58,1.21-.26-.2-.12.31-.51,1.52.9Zm-.84-2-2.59-1.52.31-.52,2.58,1.52Zm-83.18-2.52-.63-2.93.59-.13.62,2.94Zm78.87,0L231,201c-.36-.21-.71-.43-1.05-.67l.34-.49c.33.23.67.44,1,.65l1.52.9Zm-4.19-2.81a18.17,18.17,0,0,1-2.11-2.19l.46-.38a17,17,0,0,0,2.05,2.11ZM152.64,197l-.62-2.93.59-.13.62,2.94Zm72.43-1.78a18.79,18.79,0,0,1-1.42-2.7l.56-.24a17.45,17.45,0,0,0,1.36,2.61Zm-73.47-3.11,0-.1a13.55,13.55,0,0,1-.29-2.76v-.18h.6v.17a12.4,12.4,0,0,0,.28,2.64l0,.1ZM223,190.62c-.12-.41-.22-.83-.31-1.25l-.36-1.7.58-.12.36,1.7c.09.4.19.81.31,1.2Zm-70.91-3.47-.59-.1a12.72,12.72,0,0,1,.87-2.94l.55.24A12.51,12.51,0,0,0,152.07,187.15Zm69.82-1.44-.62-2.93.59-.13.62,2.94Zm-68.09-3.09-.51-.32a13.36,13.36,0,0,1,1.91-2.39l.42.43A12.57,12.57,0,0,0,153.8,182.62Zm67-1.8-.62-2.94.58-.13.63,2.94Zm-63.74-1.75-.35-.48a13.53,13.53,0,0,1,2.68-1.5l.22.56A12.48,12.48,0,0,0,157.11,179.07Zm4.41-2-.14-.59.36-.08,2.94-.62.12.58-2.93.63ZM219.73,176a12.56,12.56,0,0,0-1.26-2.64L219,173a13.21,13.21,0,0,1,1.32,2.76Zm-53,0-.13-.59,2.94-.63.12.59Zm4.89-1-.13-.59,2.94-.63.12.59Zm4.89-1-.13-.58,2.94-.63.12.59Zm4.89-1-.13-.58,2.94-.63.12.59Zm35.87-1a12.16,12.16,0,0,0-2.16-2l.35-.49a12.93,12.93,0,0,1,2.26,2Zm-31,0-.13-.58,2.94-.63.12.59Zm4.89-1-.12-.58,2.93-.63.13.59Zm4.89-1-.12-.58,2.93-.63.13.59Zm17.37-.87a12.42,12.42,0,0,0-2.75-1l.14-.59a13.62,13.62,0,0,1,2.88,1.05ZM201,168.64l-.12-.59,2.93-.62.13.59Zm4.88-1-.09-.59a13.08,13.08,0,0,1,3.06-.12l-.05.6A12.43,12.43,0,0,0,205.87,167.62Z"/><path class="cls-47" d="M817.25,14.49,755.79,6.42A18,18,0,0,0,735.54,22s-1.2,9.16-2.21,16.92a24.44,24.44,0,0,1-10.21,16.85l-11.2,7.84,97.2,12.78A18.06,18.06,0,0,0,829.37,60.8l3.42-26.06A18.05,18.05,0,0,0,817.25,14.49Z"/><polyline class="cls-48" points="708.36 57.69 706.87 58.8 708.72 58.99"/><path class="cls-49" d="M806.24,69a16.69,16.69,0,0,1-1.86-.1l-.71-.07.06-.6.71.08a18.33,18.33,0,0,0,3,0l0,.6C807,69,806.64,69,806.24,69Zm3.69-.38-.12-.59a17.16,17.16,0,0,0,3.48-1.1l.24.55A17.72,17.72,0,0,1,809.93,68.65Zm-8.73,0-3.7-.37.07-.6,3.7.38ZM795,68l-3.7-.37.06-.6,3.7.37Zm-6.17-.62-3.7-.37.06-.6,3.7.37Zm-6.17-.62-3.7-.37.06-.6,3.7.37Zm33.06-.4-.31-.51a17.85,17.85,0,0,0,2.91-2.21l.41.44A18.05,18.05,0,0,1,815.76,66.35Zm-39.23-.22-3.7-.38.06-.59,3.7.37Zm-6.16-.63-3.7-.37.06-.59,3.7.37Zm-6.17-.62-3.7-.37.06-.6,3.7.38ZM758,64.26l-3.7-.37.06-.6,3.7.38Zm-6.17-.62-3.7-.37.06-.6,3.7.37ZM745.69,63l-3.7-.37.07-.6,3.7.37Zm-6.16-.62-3.7-.38.06-.59,3.7.37Zm81-.17-.46-.38a17.44,17.44,0,0,0,2-3.06l.53.28A18,18,0,0,1,820.48,62.23Zm-87.12-.45-3.7-.38.06-.59,3.7.37Zm-6.17-.63-3.7-.37.06-.59,3.7.37ZM721,60.53l-3.7-.37.06-.6,3.7.38Zm-6.16-.62-3.7-.37.06-.6,3.7.38Zm108.68-3.16-.57-.2a17.67,17.67,0,0,0,.85-3.55l.59.08A18.33,18.33,0,0,1,823.54,56.75Zm-113-.33-.36-.48,3-2.22.36.48Zm5-3.7-.36-.49,2.48-1.85.49-.37.37.47-.51.38Zm109.14-2.11-.6-.06.38-3.7.59.06ZM720.4,48.83,720,48.4a23.62,23.62,0,0,0,2.44-2.75l.47.37A24.64,24.64,0,0,1,720.4,48.83Zm104.89-4.39-.6-.06.38-3.7.59.06Zm-101-.49-.51-.32a25,25,0,0,0,1.67-3.26l.55.23A25.15,25.15,0,0,1,724.31,44Zm101.6-5.68-.59-.06.37-3.7.6.06Zm-99,0-.57-.18a25.4,25.4,0,0,0,.8-3.58l.59.09A24.32,24.32,0,0,1,726.87,38.24Zm99.67-6.14-.6-.06.37-3.7.6.06Zm-98.58,0-.6-.06.37-3.71.6.06Zm99.19-6.16-.6-.05c0-.45.06-.92.06-1.38a17.31,17.31,0,0,0-.15-2.27l.6-.07a18.27,18.27,0,0,1,.15,2.34C827.21,25,827.19,25.46,827.15,25.93Zm-98.57,0-.6-.06.37-3.7.6.06ZM826,19.84a17.35,17.35,0,0,0-1.32-3.4l.53-.27a17.87,17.87,0,0,1,1.37,3.51Zm-96.78-.1-.6-.06.32-3.21L729,16l.6.08c0,.16,0,.32-.06.49Zm94.2-5.39A18,18,0,0,0,821,11.59l.41-.44A19.81,19.81,0,0,1,823.9,14Zm-93.35-.7-.58-.16A18.57,18.57,0,0,1,730.83,10l.53.27A18.06,18.06,0,0,0,730.05,13.65Zm89.08-3.6A17.47,17.47,0,0,0,816,8.25l.24-.55a18.07,18.07,0,0,1,3.29,1.86ZM732.62,8.16l-.5-.35A19.06,19.06,0,0,1,734.59,5l.41.44A16.92,16.92,0,0,0,732.62,8.16Zm81-.73a19.15,19.15,0,0,0-3-.57l-.59-.06.06-.59.59.06a18.25,18.25,0,0,1,3.12.58Zm-6.07-.87-3.7-.38.06-.59,3.7.37Zm-6.17-.63-3.7-.37.06-.6,3.7.38Zm-6.17-.62-3.7-.37.06-.6,3.7.38Zm-6.17-.62-3.7-.37.06-.6,3.7.37Zm-6.16-.62-3.7-.37.06-.6,3.7.37Zm-46-.22-.35-.49a18,18,0,0,1,3.28-1.86l.24.55A17.73,17.73,0,0,0,736.89,3.85Zm39.86-.4-3.7-.37.06-.6,3.7.37Zm-6.17-.62-3.7-.38.06-.59,3.7.37Zm-6.17-.62-3.7-.38.06-.59,3.7.37Zm-6.17-.63-3.7-.37.07-.6,3.7.38Zm-15.89-.36-.16-.57A18,18,0,0,1,745.91,0l0,.6A17.5,17.5,0,0,0,742.35,1.22ZM752.08,1,749,.65,748.39.6l0-.6.59.05,3.12.32Z"/></g></g></svg>