<?xml version="1.0" encoding="utf-8"?>
<!-- Generator: Adobe Illustrator 25.1.0, SVG Export Plug-In . SVG Version: 6.00 Build 0)  -->
<svg version="1.1" id="레이어_1" xmlns="http://www.w3.org/2000/svg" xmlns:xlink="http://www.w3.org/1999/xlink" x="0px"
	 y="0px" viewBox="0 0 921 506.5" style="enable-background:new 0 0 921 506.5;" xml:space="preserve">
<style type="text/css">
	.st0{enable-background:new    ;}
	.st1{fill:#E37E28;}
	.st2{fill:none;stroke:#CBCBCB;stroke-dasharray:2,2;}
	.st3{fill:none;stroke:#D6D6D6;}
	.st4{fill:#EDEDED;}
	.st5{fill:#444443;}
	.st6{fill:#FFFFFF;}
	.st7{fill:#FFF5EB;}
</style>
<g id="그룹_5616" transform="translate(-739.5 -1207.776)">
	<g class="st0">
		<path class="st1" d="M741.1,1223.3c0-4.8,2.7-7.6,6.6-7.6s6.6,2.8,6.6,7.6c0,4.8-2.7,7.7-6.6,7.7S741.1,1228.1,741.1,1223.3z
			 M751.3,1223.3c0-3.2-1.4-5.1-3.6-5.1s-3.6,1.9-3.6,5.1c0,3.2,1.4,5.2,3.6,5.2S751.3,1226.5,751.3,1223.3z"/>
		<path class="st1" d="M756.5,1223.4c0-4.9,3.1-7.7,6.9-7.7c1.9,0,3.4,0.9,4.3,1.9l-1.5,1.9c-0.8-0.7-1.6-1.2-2.7-1.2
			c-2.2,0-3.9,1.9-3.9,5.1c0,3.2,1.5,5.2,3.9,5.2c1.3,0,2.3-0.6,3.1-1.5l1.6,1.8c-1.2,1.4-2.8,2.2-4.7,2.2
			C759.5,1231.1,756.5,1228.4,756.5,1223.4z"/>
		<path class="st1" d="M770.4,1216h3v14.8h-3V1216z"/>
	</g>
	<g class="st0">
		<path class="st1" d="M790.7,1224.6c-2-0.6-3.4-2-4.3-3.6c-0.8,1.8-2.3,3.2-4.4,3.9l-1.3-2.1c3-1,4.4-3.3,4.4-5.6h-3.7v-2.1h10v2.1
			h-3.6c0,2.2,1.4,4.3,4.3,5.3L790.7,1224.6z M783.3,1226h12.5v6.5h-2.7v-4.4h-9.9V1226z M795.8,1214.1v11.1h-2.7v-11.1H795.8z"/>
		<path class="st1" d="M815.6,1221.3v2.1h-16.7v-2.1h11.7c0.4-1.7,0.4-3.1,0.4-4.3H801v-2.1h12.7v1.5c0,1.4,0,2.9-0.4,5H815.6z
			 M811,1224.6h2.6v7.7h-12.7v-7.7h2.6v1.9h7.4V1224.6z M811,1228.5h-7.4v1.7h7.4V1228.5z"/>
		<path class="st1" d="M826.8,1223h-8.7v-8.2h2.6v2.2h3.5v-2.2h2.6v1.6h3.3v-2.3h2.6v9.4h-2.6v-1.8h-3.3V1223z M833.3,1230.2v2
			h-12.6v-5h9.5v-1h-9.5v-2h12.2v4.9h-9.5v1.1H833.3z M824.2,1219h-3.5v2h3.5V1219z M826.8,1218.4v1.4h3.3v-1.4H826.8z"/>
		<path class="st1" d="M853,1224.8v1.7h2v6.1h-2.6v-4h-10.2v-2.1h2.1v-1.7h-3.9v-2.1h16.6v2.1H853z M841.9,1218.1
			c0-2.2,2.6-3.6,6.7-3.6c4.1,0,6.7,1.4,6.7,3.6c0,2.3-2.6,3.6-6.7,3.6C844.6,1221.7,841.9,1220.3,841.9,1218.1z M844.7,1218.1
			c0,1.1,1.4,1.6,3.9,1.6c2.5,0,4-0.5,4-1.6c0-1-1.4-1.6-4-1.6C846.1,1216.5,844.7,1217,844.7,1218.1z M850.3,1224.8h-3.5v1.7h3.5
			V1224.8z"/>
		<path class="st1" d="M868.4,1224.3c-1.9-0.7-3.2-1.9-4-3.6c-0.8,1.9-2.3,3.4-4.5,4.1l-1.4-2.1c3.1-1,4.4-3.5,4.4-6v-1.6h2.7v1.5
			c0,2.5,1.2,4.7,4.1,5.7L868.4,1224.3z M874.2,1228.9c0,2.2-2.4,3.6-6.3,3.6c-3.9,0-6.3-1.3-6.3-3.6c0-2.3,2.4-3.6,6.3-3.6
			C871.8,1225.3,874.2,1226.7,874.2,1228.9z M871.5,1228.9c0-1.1-1.3-1.6-3.7-1.6c-2.4,0-3.7,0.5-3.7,1.6c0,1,1.3,1.5,3.7,1.5
			C870.3,1230.5,871.5,1230,871.5,1228.9z M871.4,1219.6h-3.4v-2.1h3.4v-3.4h2.6v10.8h-2.6V1219.6z"/>
		<path class="st1" d="M887.3,1219.7c0,2.8,0.9,5.6,3.5,7l-1.4,2c-1.6-0.9-2.7-2.3-3.3-4.1c-0.6,1.9-1.7,3.6-3.4,4.5l-1.5-2
			c2.6-1.5,3.6-4.6,3.6-7.4v-0.4H882v-2.1h2.9v-2.5h2.5v2.5h2.8v2.1h-2.8V1219.7z M891.2,1214.4h2.5v17.3h-2.5v-8.5h-2.1v-2.1h2.1
			V1214.4z M897.4,1214.1v18.4h-2.5v-18.4H897.4z"/>
		<path class="st1" d="M909.6,1214.5h2.5v17.2h-2.5v-6H907v-2.1h2.6v-2.5h-2.2c-0.8,3-2.7,5.6-6.1,7.6l-1.5-1.8
			c3.6-2.2,5.2-4.9,5.6-8.5h-4.5v-2.1h7.2c0,0.9-0.1,1.8-0.2,2.7h1.8V1214.5z M915.9,1214.1v18.4h-2.5v-18.4H915.9z"/>
	</g>
	<g id="그룹_5615">
		<line id="선_404" class="st2" x1="756" y1="1309.8" x2="1644" y2="1309.8"/>
		<line id="선_405" class="st2" x1="756" y1="1427.6" x2="1644" y2="1427.6"/>
		<line id="선_406" class="st2" x1="756" y1="1583" x2="1644" y2="1583"/>
		<rect id="사각형_508" x="740" y="1255.7" class="st3" width="920" height="458.1"/>
		<rect id="사각형_509" x="911.3" y="1314.6" class="st4" width="283.8" height="33.2"/>
		<g id="그룹_5590" transform="translate(995.294 1324.934)">
			<path id="패스_3610" class="st5" d="M111.2,10.8h1.1V1.2h-1.1V10.8z M114.7,10.8h1.1V1.2h-1.1L114.7,10.8z M98.7,12.3h1
				L103,0.5h-1L98.7,12.3z M93.8,10.8h1.1V1.2h-1.1L93.8,10.8z M88.9,10.1c0-1.5-1.5-2.4-4.2-2.4s-4.2,0.9-4.2,2.4s1.5,2.4,4.2,2.4
				S88.9,11.5,88.9,10.1 M79,1.9h2.8c0,0.2,0,0.5,0,0.7c-0.3,1.8-1.5,3.3-3.2,3.9l0.6,0.9c1.4-0.6,2.5-1.8,3.2-3.2
				C83,5.4,84.1,6.4,85.5,7l0.6-0.9c-1.5-0.5-3.1-1.8-3.2-3.5c0-0.1,0-0.4,0-0.7h2.8V1H79L79,1.9z M84.7,8.6c1.9,0,3.1,0.5,3.1,1.5
				s-1.1,1.5-3.1,1.5c-1.9,0-3.1-0.5-3.1-1.5S82.8,8.6,84.7,8.6 M87.7,4.1v3.6h1.1V0h-1.1v3.2h-2.5v0.9L87.7,4.1z M66.1,1.3v0.9h5.4
				c0,1.6-0.1,3.1-0.4,4.6l1,0.1c0.3-1.9,0.5-3.8,0.4-5.7L66.1,1.3z M73.5,8.4c-1.4,0.2-2.8,0.3-4.2,0.4V4.8h-1.1v3.9
				c-0.9,0-2,0-2.7,0l0.2,0.9c1,0,2.4,0,3.7-0.1c1.2-0.1,3-0.2,4.2-0.4L73.5,8.4z M77.4,6.1V5.2h-2V0h-1.1v12.4h1.1V6.1H77.4z
				 M59.3,12.4V7.9h5.1V7H53.1v0.9h5v4.5H59.3z M63.9,4.8c-2.2-0.3-4.6-1.9-4.6-3.6V0.4h-1.1v0.8c0,1.7-2.2,3.3-4.6,3.6l0.5,0.9
				c1.9-0.4,4-1.6,4.6-3c1.1,1.6,2.7,2.7,4.6,3L63.9,4.8z M51.5,12.3v-0.9h-7.3v-1.4H51V7.1h-8V8h6.9v1.2h-6.9v3.1L51.5,12.3z
				 M48.7,4.9C48.3,5,47.5,5,46.6,5.1l0.3-2.7l-1.1-0.1l-0.2,2.9c-0.1,0-0.2,0-0.3,0c-0.5,0-1,0.1-1.6,0.1l-0.2-2.9l-1.1,0.1
				l0.3,2.8c-0.6,0-1.2,0-1.7,0l0.2,0.9c1.1,0,2.5-0.1,3.9-0.1s2.8-0.2,3.7-0.3L48.7,4.9z M51,0h-1.1v6.5H51V0z M48.1,0.8h-6.7v0.9
				h6.7V0.8z M24.7,5.2c0,2.6,1.1,4.4,3.1,4.4c1.9,0,3-1.6,3.1-4h2.7v6.7h1.1V0h-1.1v4.8H31c-0.1-2.4-1.2-3.9-3.1-3.9
				C25.9,0.9,24.7,2.6,24.7,5.2 M29.9,5.3c0,2-0.8,3.4-2.1,3.4s-2.1-1.4-2.1-3.4s0.8-3.5,2.1-3.5S29.9,3.2,29.9,5.3 M22.5,0h-1.1
				v12.4h1.1V0z M20.2,7.8c-2,0.4-3.9,0.5-5.9,0.6V1.3h-1.1v8.1h0.5c2.2,0,4.4-0.2,6.6-0.6L20.2,7.8z M10.7,5
				C8.8,4.8,6.2,3.5,6.2,1.8h4V0.9H1v0.9h4C5,3.5,2.6,4.8,0.6,5l0.5,0.9c2.1-0.3,4-1.6,4.6-2.8c0.6,1.2,2.5,2.4,4.6,2.8L10.7,5z
				 M6.1,12.4V8h5.1V7.1H0V8h5v4.4L6.1,12.4z"/>
		</g>
		<rect id="사각형_510" x="756.2" y="1314.4" class="st1" width="139.7" height="108.6"/>
		<g id="그룹_5591" transform="translate(768.8 1354.026)">
			<path id="패스_3611" class="st6" d="M114.6,10.5V8.9h-4.6V0h-1.8v10.5H114.6z M103.3,6.8h-3.8l1.9-5L103.3,6.8z M106.7,10.5
				L102.6,0h-2.3l-4.1,10.5h2.1l0.8-2h4.8l0.8,2H106.7z M93.4,10.5V1.6h3.2V0h-8.2v1.6h3.2v8.9H93.4z M86.7,10.5V0h-1.8v7.3L79.5,0
				h-1.9v10.5h1.8V3l5.5,7.5H86.7z M75.2,10.5V8.9h-5.3V5.9h5.2V4.3h-5.2V1.6h5.3V0H68v10.5H75.2z M65.4,10.5V0h-2.6l-2.8,7.2
				L57.1,0h-2.6v10.5h1.8V2.4l3.2,8.1h0.8l3.2-8.1v8.1H65.4z M49.6,6.8h-3.8l1.9-5L49.6,6.8z M53,10.5L48.9,0h-2.3l-4.1,10.5h2.1
				l0.8-2h4.8l0.8,2H53z M36.4,8.9h-2.1V1.6h2.1c1.9-0.1,3.5,1.3,3.6,3.2c0,0.1,0,0.3,0,0.4c0.1,1.9-1.4,3.5-3.3,3.6
				C36.7,8.9,36.5,8.9,36.4,8.9 M36.4,10.5c2.8,0.2,5.3-1.9,5.5-4.7c0-0.2,0-0.3,0-0.5c0-3.1-2.2-5.2-5.5-5.2h-3.9v10.5L36.4,10.5z
				 M29.9,10.5V0H28v7.3L22.7,0h-1.9v10.5h1.8V3l5.5,7.5L29.9,10.5z M13.6,10.7c3,0,4.5-1.7,4.5-4.3V0h-1.9v6.3
				c0.2,1.4-0.8,2.6-2.2,2.7c-0.2,0-0.3,0-0.5,0c-1.4,0.1-2.6-0.9-2.7-2.3c0-0.2,0-0.3,0-0.5V0H9.1v6.3C9.1,8.9,10.6,10.7,13.6,10.7
				 M1.8,10.5V5.9h5.2V4.3H1.8V1.6h5.3V0H0v10.5L1.8,10.5z"/>
			<path id="패스_3612" class="st6" d="M88.5,29.3v-1.6h-5.3v-2.9h5.2v-1.6h-5.2v-2.7h5.3v-1.6h-7.2v10.5H88.5z M75.1,29.5
				c2.8,0,4.1-1.5,4.1-3.2c0-3.9-6.1-2.7-6.1-4.6c0-0.8,0.7-1.3,1.8-1.3c1.1,0,2.2,0.4,3,1.2l1-1.4c-1.1-1-2.5-1.5-3.9-1.5
				c-2.3,0-3.8,1.3-3.8,3.1c0,3.8,6.1,2.5,6.1,4.7c0,0.7-0.6,1.4-2.1,1.4c-1.3,0-2.5-0.5-3.3-1.5l-1,1.4C72,29,73.5,29.6,75.1,29.5
				 M65.8,23.8h-2.5v-3.3h2.5c0.9-0.1,1.7,0.6,1.8,1.5s-0.6,1.7-1.5,1.8C65.9,23.8,65.9,23.8,65.8,23.8 M69.5,29.3L67,25.2
				c1.5-0.2,2.6-1.6,2.5-3.1c0.1-1.8-1.3-3.2-3.1-3.3c-0.1,0-0.2,0-0.4,0h-4.6v10.5h1.8v-3.9h1.8l2.3,3.9L69.5,29.3z M54.3,29.5
				c3,0,4.5-1.7,4.5-4.3v-6.3h-1.9v6.3c0,1.5-1.1,2.7-2.6,2.8c-1.5,0-2.7-1.1-2.8-2.6c0-0.1,0-0.1,0-0.2v-6.3h-1.9v6.3
				C49.7,27.8,51.2,29.5,54.3,29.5 M42.3,27.9c-2.1,0.2-3.9-1.4-4.1-3.5c-0.2-2.1,1.4-3.9,3.5-4.1s3.9,1.4,4.1,3.5
				c0,0.1,0,0.2,0,0.3c0.2,1.9-1.2,3.6-3.2,3.8C42.5,27.9,42.4,27.9,42.3,27.9 M42.3,29.5c3,0,5.4-2.4,5.5-5.4c0-3-2.4-5.4-5.4-5.5
				S37,21,36.9,24c0,0,0,0,0,0.1c-0.1,2.9,2.1,5.3,5,5.4C42.1,29.5,42.2,29.5,42.3,29.5 M31.6,29.5c1.7,0,3.3-0.9,4.2-2.4l-1.6-0.8
				c-0.6,0.9-1.6,1.5-2.6,1.5c-2.1-0.1-3.7-1.9-3.6-4c0.1-1.9,1.7-3.5,3.6-3.6c1.1,0,2.1,0.6,2.6,1.5l1.6-0.8
				c-0.9-1.5-2.5-2.4-4.2-2.3c-3-0.1-5.5,2.3-5.5,5.3s2.3,5.5,5.3,5.5C31.5,29.5,31.5,29.5,31.6,29.5"/>
		</g>
		<rect id="사각형_511" x="756.2" y="1587.7" class="st1" width="139.7" height="108.6"/>
		<g id="그룹_5592" transform="translate(794.902 1627.106)">
			<path id="패스_3613" class="st6" d="M61.2,10.6V9h-4.6V0.2h-1.8v10.5L61.2,10.6z M50,7h-3.8l1.9-5L50,7z M53.3,10.6L49.2,0.2
				h-2.3l-4.1,10.5h2.1l0.8-2h4.8l0.8,2H53.3z M38.4,9h-3V6.1h3C39.2,6,39.9,6.6,40,7.4c0,0.1,0,0.1,0,0.2C40,8.3,39.4,9,38.6,9
				C38.6,9,38.5,9,38.4,9z M38.3,4.5h-3V1.8h3C39,1.7,39.7,2.3,39.8,3c0,0.1,0,0.1,0,0.2c0,0.7-0.5,1.3-1.3,1.4
				C38.5,4.5,38.4,4.5,38.3,4.5 M38.8,10.7c1.5,0.2,2.9-0.9,3-2.4c0-0.1,0-0.3,0-0.4c0-1.2-0.8-2.3-2-2.6C40.9,5,41.7,4,41.7,2.9
				c0-1.5-1.2-2.7-2.7-2.7c-0.1,0-0.2,0-0.3,0h-5.1v10.5L38.8,10.7z M26.1,9.2c-2.1,0.2-3.9-1.4-4.1-3.5s1.4-3.9,3.5-4.1
				c2.1-0.2,3.9,1.4,4.1,3.5c0,0.1,0,0.2,0,0.3c0.2,1.9-1.2,3.6-3.2,3.8C26.3,9.2,26.2,9.2,26.1,9.2 M26.1,10.8c3,0,5.4-2.4,5.5-5.4
				c0-3-2.4-5.4-5.4-5.5c-3,0-5.4,2.4-5.5,5.4c0,0,0,0,0,0.1c-0.1,2.9,2.1,5.3,5,5.4C25.8,10.8,25.9,10.8,26.1,10.8 M19.7,10.7V9
				h-4.6V0.2h-1.8v10.5L19.7,10.7z M6.6,10.9c1.6,0,3.2-0.7,4.3-1.9V5H6v1.6h3.1v1.6C8.4,8.9,7.6,9.2,6.6,9.2C4.5,9.1,2.9,7.3,3,5.2
				c0.1-1.9,1.7-3.5,3.6-3.6c1.1,0,2.1,0.5,2.7,1.4l1.5-0.9C9.9,0.8,8.3,0,6.6,0c-3,0-5.4,2.4-5.4,5.4S3.6,10.9,6.6,10.9L6.6,10.9"
				/>
			<path id="패스_3614" class="st6" d="M62.3,29.5v-1.6H57V25h5.2v-1.6H57v-2.7h5.3V19h-7.2v10.5L62.3,29.5z M49,29.7
				c2.8,0,4.1-1.5,4.1-3.2c0-3.9-6.1-2.7-6.1-4.7c0-0.8,0.7-1.3,1.8-1.3c1.1,0,2.2,0.4,3,1.2l1-1.4c-1.1-1-2.5-1.5-3.9-1.5
				c-2.3,0-3.8,1.3-3.8,3.1c0,3.8,6.1,2.5,6.1,4.7c0,0.7-0.6,1.4-2.1,1.4c-1.3,0-2.5-0.5-3.3-1.5l-1,1.4
				C45.9,29.1,47.4,29.7,49,29.7 M39.7,24h-2.5v-3.3h2.5c0.9-0.1,1.7,0.6,1.8,1.5c0.1,0.9-0.6,1.7-1.5,1.8C39.8,24,39.8,24,39.7,24
				 M43.4,29.5l-2.6-4.1c1.5-0.2,2.6-1.6,2.5-3.1c0.1-1.8-1.3-3.2-3.1-3.3c-0.1,0-0.2,0-0.4,0h-4.6v10.5h1.8v-3.9H39l2.3,3.9
				L43.4,29.5z M28.2,29.7c3,0,4.5-1.7,4.5-4.3V19h-1.9v6.3c0,1.5-1.1,2.7-2.6,2.8c-1.5,0-2.7-1.1-2.8-2.6c0-0.1,0-0.1,0-0.2V19
				h-1.9v6.3C23.6,27.9,25.1,29.7,28.2,29.7 M16.2,28c-2.1,0.2-3.9-1.4-4.1-3.5s1.4-3.9,3.5-4.1s3.9,1.4,4.1,3.5c0,0.1,0,0.2,0,0.3
				c0.2,1.9-1.2,3.6-3.2,3.8C16.4,28,16.3,28,16.2,28 M16.2,29.7c3,0,5.4-2.4,5.5-5.4c0-3-2.4-5.4-5.4-5.5s-5.4,2.4-5.5,5.4
				c0,0,0,0,0,0.1c-0.1,2.9,2.1,5.3,5,5.4C15.9,29.7,16.1,29.7,16.2,29.7 M5.5,29.7c1.7,0,3.3-0.9,4.2-2.4l-1.6-0.8
				C7.6,27.5,6.6,28,5.5,28c-2.1-0.1-3.7-1.9-3.6-4c0.1-1.9,1.7-3.5,3.6-3.6c1.1,0,2.1,0.6,2.6,1.5l1.6-0.8
				c-0.9-1.5-2.5-2.4-4.2-2.3c-3-0.1-5.5,2.3-5.5,5.3c-0.1,3,2.3,5.5,5.3,5.5C5.4,29.7,5.4,29.7,5.5,29.7"/>
		</g>
		<rect id="사각형_512" x="756.2" y="1432.2" class="st1" width="139.7" height="146.2"/>
		<g id="그룹_5593" transform="translate(776.798 1490.479)">
			<path id="패스_3615" class="st6" d="M98.6,10.6V9h-4.6V0.2h-1.8v10.5L98.6,10.6z M87.3,7h-3.8l1.9-5L87.3,7z M90.7,10.6
				L86.6,0.2h-2.3l-4.1,10.5h2.1l0.8-2h4.8l0.8,2H90.7z M78.7,10.6V0.2h-1.8v7.3l-5.4-7.3h-1.9v10.5h1.8V3.2l5.5,7.5H78.7z
				 M62.1,9.2C60,9.4,58.2,7.8,58,5.7c-0.2-2.1,1.4-3.9,3.5-4.1s3.9,1.4,4.1,3.5c0,0.1,0,0.2,0,0.3c0.2,1.9-1.2,3.6-3.2,3.8
				C62.3,9.2,62.2,9.2,62.1,9.2 M62.1,10.8c3,0,5.4-2.4,5.5-5.4c0-3-2.4-5.4-5.4-5.5c-3,0-5.4,2.4-5.5,5.4c0,0,0,0,0,0.1
				c-0.1,2.9,2.1,5.3,5,5.4C61.9,10.8,62,10.8,62.1,10.8 M54.6,0.2h-1.8v10.5h1.8L54.6,0.2z M47.9,10.6V1.8h3.2V0.2h-8.2v1.6h3.2
				v8.9H47.9z M37.5,10.8c1.7,0,3.3-0.9,4.2-2.4l-1.6-0.8c-0.6,0.9-1.6,1.5-2.6,1.5c-2.1-0.1-3.7-1.9-3.6-4c0.1-1.9,1.7-3.5,3.6-3.6
				c1.1,0,2.1,0.6,2.6,1.5l1.6-0.8c-0.9-1.5-2.5-2.4-4.2-2.3c-3-0.1-5.5,2.3-5.5,5.3c-0.1,3,2.3,5.5,5.3,5.5
				C37.3,10.8,37.4,10.8,37.5,10.8 M29.9,10.6V0.2H28v7.3l-5.4-7.3h-1.9v10.5h1.8V3.2l5.5,7.5L29.9,10.6z M13.6,10.8
				c3,0,4.5-1.7,4.5-4.3V0.2h-1.9v6.3c0,1.5-1.1,2.7-2.6,2.8c-1.5,0-2.7-1.1-2.8-2.6c0-0.1,0-0.1,0-0.2V0.2H9.1v6.3
				C9.1,9.1,10.6,10.8,13.6,10.8 M1.8,10.6V6.1h5.2V4.5H1.8V1.8h5.3V0.2H0v10.5L1.8,10.6z"/>
			<path id="패스_3616" class="st6" d="M80.5,29.5v-1.6h-5.3V25h5.2v-1.6h-5.2v-2.7h5.3V19h-7.2v10.5L80.5,29.5z M67.1,29.7
				c2.8,0,4.1-1.5,4.1-3.2c0-3.9-6.1-2.7-6.1-4.6c0-0.8,0.7-1.3,1.8-1.3c1.1,0,2.2,0.4,3,1.2l1-1.4c-1.1-1-2.5-1.5-3.9-1.5
				c-2.3,0-3.8,1.3-3.8,3.1c0,3.8,6.1,2.5,6.1,4.7c0,0.7-0.6,1.4-2.1,1.4c-1.3,0-2.5-0.5-3.3-1.5l-1,1.4
				C64,29.1,65.5,29.7,67.1,29.7 M57.8,24h-2.5v-3.3h2.5c0.9-0.1,1.7,0.6,1.8,1.5S58.9,23.9,58,24C57.9,24,57.9,24,57.8,24
				 M61.5,29.5L59,25.4c1.5-0.2,2.6-1.6,2.5-3.1c0.1-1.8-1.3-3.2-3.1-3.3c-0.1,0-0.2,0-0.4,0h-4.6v10.5h1.8v-3.9h1.8l2.3,3.9
				L61.5,29.5z M46.3,29.7c3,0,4.5-1.7,4.5-4.3V19h-1.9v6.3c0,1.5-1.1,2.7-2.6,2.8c-1.5,0-2.7-1.1-2.8-2.6c0-0.1,0-0.1,0-0.2V19
				h-1.9v6.3C41.7,27.9,43.2,29.7,46.3,29.7 M34.3,28c-2.1,0.2-3.9-1.4-4.1-3.5c-0.2-2.1,1.4-3.9,3.5-4.1s3.9,1.4,4.1,3.5
				c0,0.1,0,0.2,0,0.3c0.2,1.9-1.2,3.6-3.2,3.8C34.5,28,34.4,28,34.3,28 M34.3,29.7c3,0,5.4-2.4,5.5-5.4c0-3-2.4-5.4-5.4-5.5
				S29,21.2,29,24.2c0,0,0,0,0,0.1c-0.1,2.9,2.1,5.3,5,5.4C34.1,29.7,34.2,29.7,34.3,29.7 M23.6,29.7c1.7,0,3.3-0.9,4.2-2.4
				l-1.6-0.8c-0.6,0.9-1.6,1.5-2.6,1.5c-2.1-0.1-3.7-1.9-3.6-4c0.1-1.9,1.7-3.5,3.6-3.6c1.1,0,2.1,0.6,2.6,1.5l1.6-0.8
				c-0.9-1.5-2.5-2.4-4.2-2.3c-3-0.1-5.5,2.3-5.5,5.3s2.3,5.5,5.3,5.5C23.5,29.7,23.5,29.7,23.6,29.7"/>
		</g>
		<rect id="사각형_513" x="1060.5" y="1587.7" class="st4" width="516.2" height="33.2"/>
		<g id="그룹_5594" transform="translate(1272.063 1597.989)">
			<path id="패스_3617" class="st5" d="M93.1,10.1c0-1.5-1.5-2.4-4.2-2.4s-4.2,0.9-4.2,2.4s1.5,2.4,4.2,2.4S93.1,11.5,93.1,10.1
				 M83.2,1.9H86c0,0.2,0,0.5,0,0.7c-0.3,1.8-1.5,3.3-3.2,3.9l0.6,0.9c1.4-0.6,2.5-1.8,3.2-3.2c0.7,1.3,1.8,2.3,3.1,2.8l0.6-0.9
				c-1.5-0.5-3.1-1.8-3.2-3.5c0-0.1,0-0.4,0-0.7h2.8V1h-6.7L83.2,1.9z M88.9,8.6c1.9,0,3.1,0.5,3.1,1.5s-1.1,1.5-3.1,1.5
				c-1.9,0-3.1-0.5-3.1-1.5S87,8.6,88.9,8.6 M91.9,4.1v3.6H93V0h-1.1v3.2h-2.5v0.9L91.9,4.1z M70.4,1.3v0.9h5.4
				c0,1.6-0.1,3.1-0.4,4.6l1,0.1c0.3-1.9,0.5-3.8,0.4-5.7L70.4,1.3z M77.7,8.4c-1.4,0.2-2.8,0.3-4.2,0.4V4.8h-1.1v3.9
				c-0.9,0-2,0-2.7,0l0.2,0.9c1,0,2.4,0,3.7-0.1c1.2-0.1,3-0.2,4.2-0.4L77.7,8.4z M81.6,6.1V5.2h-2V0h-1.1v12.4h1.1V6.1L81.6,6.1z
				 M61.1,8.7c-1.9-1.1-3.2-3-3.2-5.2V2.2h2.9V1.3h-6.9v0.9h2.9v1.3c-0.1,2.3-1.3,4.3-3.3,5.5l0.7,0.8c1.5-1,2.6-2.4,3.1-4.1
				c0.6,1.6,1.7,2.9,3.1,3.8L61.1,8.7z M65.3,5.9V5h-2V0h-1.1v12.4h1.1V5.9L65.3,5.9z M51.8,12.1v-0.9h-7.2v-3h-1.1v3.9L51.8,12.1z
				 M42,1v0.9h4.4c-0.3,2.1-2.5,4-5,4.7l0.7,0.9c3.4-1.2,5.4-3.4,5.6-6.5H42z M47.7,6.2h2.7V9h1.1V0h-1.1v2.5h-2.6v0.9h2.6v1.9h-2.7
				V6.2z M35.7,1.3h-6.8v0.9h6.8V1.3z M38.3,0h-1.1v12.4h1.1V5.9h2V5h-2V0z M36.4,8c-0.5,0.1-1.3,0.1-2.2,0.2l0.5-5.1l-1.1-0.1
				l-0.4,5.2c-0.2,0-0.3,0-0.5,0c-0.5,0-0.9,0.1-1.4,0.1l-0.3-5.3L30,3.2l0.4,5.2c-0.6,0-1.3,0-1.8,0l0.2,0.9c1.1,0,2.6-0.1,4-0.1
				c1.5-0.1,2.9-0.2,3.8-0.3L36.4,8z M16.5,0.9c-1.7-0.2-3.2,1.1-3.4,2.8c0,0.1,0,0.1,0,0.2c0,1.6,1.3,2.9,2.8,2.9v2
				c-1.3,0-2.5,0.1-3.5,0.1l0.2,0.9c0.8,0,2.7,0,4-0.1c1.5-0.1,3.2-0.2,4.2-0.3l-0.1-0.9c-0.8,0.1-2.3,0.2-3.7,0.3v-2
				c1.6-0.1,2.8-1.4,2.8-2.9c0-1.7-1.4-3-3.1-3C16.6,0.9,16.6,0.9,16.5,0.9 M16.5,1.8c1.2,0.1,2,1.1,1.9,2.3s-1.1,2-2.3,1.9
				c-1.1-0.1-1.9-1-1.9-2.1c0-1.1,0.9-2.1,2.1-2.1C16.3,1.8,16.4,1.8,16.5,1.8 M22.6,0h-1.1v12.4h1.1V0z M10.5,12.4V0H9.4v5.1H7.9
				V0.3H6.9v11.5h1.1V6h1.5v6.4L10.5,12.4z M6,7.1C5.8,5.6,4.5,4.5,3,4.6C1.7,4.8,0.7,5.8,0.5,7.1c0,1.4,1.2,2.5,2.5,2.5
				c0.1,0,0.1,0,0.2,0c1.4,0.1,2.6-0.8,2.7-2.2C5.9,7.3,5.9,7.2,6,7.1 M4.9,7.1c0,0.9-0.7,1.6-1.5,1.6c0,0-0.1,0-0.1,0
				C2.4,8.6,1.7,7.9,1.8,7c0-0.9,0.8-1.5,1.7-1.5C4.3,5.6,4.9,6.3,4.9,7.1 M6.2,3H0v0.9h6.2L6.2,3z M4.8,0.9H1.5v0.9h3.4V0.9z"/>
		</g>
		<rect id="사각형_514" x="911.1" y="1625.3" class="st4" width="583.3" height="33.2"/>
		<g id="그룹_5595" transform="translate(1118.111 1635.665)">
			<path id="패스_3618" class="st5" d="M166.9,12.3c1.6-1.5,2.4-3.6,2.4-5.8V6.2c0-2.2-0.9-4.3-2.4-5.8h-1
				c1.4,1.6,2.2,3.6,2.3,5.8v0.4c0,2.1-0.9,4.1-2.3,5.7L166.9,12.3z M153.9,5.2c0,2.6,1.1,4.4,3.1,4.4c1.9,0,3-1.6,3.1-4h2.7v6.7
				h1.1V0h-1.1v4.8h-2.7c-0.1-2.3-1.2-3.9-3.1-3.9C155.1,0.9,153.9,2.6,153.9,5.2 M159.1,5.3c0,2-0.8,3.4-2.1,3.4S155,7.3,155,5.3
				s0.8-3.5,2.1-3.5S159.1,3.2,159.1,5.3 M142.3,8.3v0.9h7.5v3.3h1.1V8.3h-3.6V6h5.1V5.1h-1.9c0.3-1.4,0.5-2.9,0.4-4.4h-8.4v0.9h7.3
				c0,1.2-0.1,2.4-0.4,3.5h-8.3V6h5.1v2.3L142.3,8.3z M138.3,10.2c0-1.3-1.4-2.1-3.8-2.2V6.7h5.1V5.8h-11.2v0.9h5V8
				c-2.4,0.1-3.8,0.9-3.8,2.2c0,1.4,1.6,2.2,4.4,2.2S138.3,11.6,138.3,10.2 M138.9,4.1c-1.7-0.2-4-1.1-4.4-2.5h3.9V0.7h-9.1v0.9h4
				c-0.4,1.5-2.5,2.4-4.4,2.6l0.5,0.9c2.2-0.3,4-1.3,4.5-2.5c0.6,1.1,2.5,2.1,4.5,2.5L138.9,4.1z M133.9,8.9c1.9,0,3.3,0.4,3.3,1.3
				s-1.3,1.3-3.3,1.3s-3.2-0.4-3.2-1.3S132,8.9,133.9,8.9 M120.8,12.7h0.8l1-2.8h-1.3L120.8,12.7z M108.8,5.2c0,2.6,1.1,4.4,3.1,4.4
				c1.9,0,3-1.6,3.1-4h2.7v6.7h1.1V0h-1.1v4.8H115c-0.1-2.3-1.2-3.9-3.1-3.9C109.9,0.9,108.8,2.6,108.8,5.2 M113.9,5.3
				c0,2-0.8,3.4-2.1,3.4s-2.1-1.4-2.1-3.4s0.8-3.5,2.1-3.5S113.9,3.2,113.9,5.3 M106.6,10.1c0-1.5-1.5-2.4-4.2-2.4s-4.2,0.9-4.2,2.4
				c0,1.4,1.5,2.4,4.2,2.4S106.6,11.5,106.6,10.1 M103.2,5.6h2.3v2h1.1V0h-1.1v1.6h-2.3v0.9h2.3v2.2h-2.3L103.2,5.6z M105.5,10.1
				c0,0.9-1.1,1.4-3.1,1.4c-1.9,0-3.1-0.5-3.1-1.4s1.2-1.5,3.1-1.5C104.3,8.6,105.5,9.2,105.5,10.1 M99.7,0.7
				c-1.7-0.1-3.1,1.2-3.2,2.8c0,0.1,0,0.1,0,0.2c-0.1,1.8,1.2,3.3,3,3.4c1.8,0.1,3.3-1.2,3.4-3c0.1-1.8-1.2-3.3-3-3.4
				C99.8,0.7,99.8,0.7,99.7,0.7 M99.7,1.7c1.1,0,2.1,0.9,2.1,2s-0.9,2.1-2,2.1c0,0-0.1,0-0.1,0c-1.1,0-2.1-0.9-2.1-2
				S98.5,1.7,99.7,1.7C99.6,1.7,99.7,1.7,99.7,1.7 M95.8,12.3c-1.4-1.6-2.2-3.6-2.3-5.8V6.1c0-2.1,0.9-4.1,2.3-5.7h-1
				c-1.6,1.5-2.4,3.6-2.5,5.8v0.2c0,2.2,0.9,4.3,2.5,5.8L95.8,12.3z M90.2,10c0-1.5-1.5-2.4-4.2-2.4s-4.2,0.9-4.2,2.4
				s1.5,2.4,4.2,2.4S90.2,11.5,90.2,10 M80.3,1.9h2.8c0,0.2,0,0.5,0,0.7c-0.2,1.8-1.5,3.3-3.2,3.9l0.6,0.9c1.4-0.6,2.5-1.8,3.2-3.2
				c0.7,1.3,1.8,2.3,3.1,2.8l0.6-0.9c-1.5-0.5-3.1-1.8-3.2-3.5c0-0.1,0-0.4,0-0.7H87V1h-6.7L80.3,1.9z M86,8.6
				c1.9,0,3.1,0.5,3.1,1.5S88,11.5,86,11.5C84.1,11.5,83,11,83,10S84.1,8.6,86,8.6 M89,4.1v3.6h1.1V0H89v3.2h-2.5v0.9L89,4.1z
				 M67.5,1.3v0.9h5.4c0,1.6-0.1,3.1-0.4,4.6l1,0.1c0.3-1.9,0.5-3.8,0.4-5.7L67.5,1.3z M74.8,8.4c-1.4,0.2-2.8,0.3-4.2,0.4V4.8h-1.1
				v3.9c-0.9,0-2,0-2.7,0L67,9.7c1,0,2.4,0,3.7-0.1c1.2-0.1,3-0.2,4.2-0.4L74.8,8.4z M78.7,6.1V5.2h-2V0h-1.1v12.4h1.1V6.1L78.7,6.1
				z M50.9,5.2c0,2.6,1.1,4.4,3.1,4.4c1.9,0,3-1.6,3.1-4h2.7v6.7h1.1V0h-1.1v4.8h-2.7c-0.1-2.3-1.2-3.9-3.1-3.9
				C52.1,0.9,50.9,2.6,50.9,5.2 M56.1,5.3c0,2-0.8,3.4-2.1,3.4S52,7.3,52,5.3s0.8-3.5,2.1-3.5S56.1,3.2,56.1,5.3 M39.3,8.3v0.9h7.5
				v3.3h1.1V8.3h-3.6V6h5.1V5.1h-1.9c0.3-1.4,0.5-2.9,0.4-4.4h-8.4v0.9h7.3c0,1.2-0.1,2.4-0.4,3.5h-8.3V6h5.1v2.3L39.3,8.3z
				 M29.8,0.9c-1.7-0.2-3.2,1.1-3.4,2.8c0,0.1,0,0.1,0,0.2c0,1.6,1.3,2.9,2.8,2.9v2c-1.3,0-2.5,0.1-3.5,0.1L26,9.8
				c0.8,0,2.7,0,4-0.1c1.5-0.1,3.2-0.2,4.2-0.3l-0.1-0.9c-0.8,0.1-2.3,0.2-3.7,0.3v-2c1.6-0.1,2.8-1.4,2.8-2.9c0-1.7-1.4-3-3.1-3
				C30,0.9,29.9,0.9,29.8,0.9 M29.8,1.8c1.1,0.1,2,1.1,1.9,2.3c-0.1,1.1-1.1,2-2.3,1.9c-1.1-0.1-1.9-1-1.9-2.1c0-1.1,0.9-2.1,2-2.1
				C29.7,1.8,29.8,1.8,29.8,1.8 M36,0h-1.1v12.4H36V0z M20.3,5.7c-1.7-0.6-2.9-2.2-3-4V0.6h-1.1v1.2C16,3.7,14.8,5.4,13,6.1L13.6,7
				c1.4-0.7,2.5-1.8,3.1-3.3C17.3,5,18.3,6,19.6,6.6L20.3,5.7z M23,10c0-1.5-1.6-2.4-4.2-2.4c-2.6,0-4.1,0.9-4.1,2.4
				s1.5,2.4,4.1,2.4C21.4,12.4,23,11.5,23,10 M18.8,8.5c1.9,0,3.1,0.5,3.1,1.5s-1.2,1.5-3.1,1.5c-1.9,0-3-0.5-3-1.5
				S16.9,8.5,18.8,8.5 M24.7,4.3V3.4h-1.9V0h-1.1v7.6h1.1V4.3H24.7z M7.9,9.1C7.1,9.2,5.8,9.3,4.4,9.4V8.2c1.5-0.1,2.4-0.9,2.4-2.1
				c0-1.3-1.2-2.1-2.9-2.1S1,4.9,1,6.1C1,7.3,1.9,8,3.3,8.2v1.2c-1.2,0-2.5,0-3.3,0l0.2,0.9c1,0,2.3,0,3.7-0.1
				C5.4,10.2,7.1,10,8,9.9L7.9,9.1z M11.8,6.4V5.5h-2V0H8.7v12.4h1.1v-6L11.8,6.4z M5.8,6.1c0,0.7-0.8,1.2-1.9,1.2S2,6.9,2,6.1
				s0.8-1.2,1.9-1.2S5.8,5.4,5.8,6.1 M7.6,2.5H0.3v0.9h7.4V2.5z M5.7,0.6H2.1v0.9h3.6V0.6z"/>
		</g>
		<rect id="사각형_515" x="911.1" y="1663" class="st4" width="732.9" height="33.2"/>
		<g id="그룹_5596" transform="translate(1200.447 1673.995)">
			<path id="패스_3619" class="st5" d="M144.9,10.2h1.1V4.4c0.5-0.3,1.2-0.5,1.8-0.5c0.9,0,1.3,0.4,1.3,1.2v5h1.1V4.9
				c0-0.2,0-0.3,0-0.5c0.6-0.3,1.2-0.5,1.8-0.5c0.9,0,1.3,0.4,1.3,1.2v5h1.1V4.9c0.1-0.9-0.5-1.8-1.4-1.9c-0.2,0-0.3,0-0.5,0
				c-0.9,0-1.7,0.3-2.4,0.8h-0.1c-0.4-0.6-1-0.9-1.7-0.8c-0.8,0-1.5,0.3-2.2,0.7h-0.1V3.1h-1L144.9,10.2z M139.7,10.3
				c0.7,0,1.4-0.2,1.9-0.7h0.1l0.1,0.6h0.9V5.1c0-1.4-0.9-2.1-2.4-2.1c-0.7,0-1.4,0.1-2.1,0.4v0.8c0.5-0.2,1.1-0.2,1.7-0.2
				c1.3,0,1.7,0.3,1.7,1.4V6l-1.9,0.2c-1.3,0.2-2.1,0.8-2.1,2c0,1.1,0.8,2,1.9,2C139.5,10.3,139.6,10.3,139.7,10.3 M140,9.4
				c-0.8,0-1.3-0.4-1.3-1.1c0-0.8,0.4-1.2,1.3-1.3l1.6-0.2v2.1C141.1,9.3,140.6,9.5,140,9.4 M132.9,10.2h1.1V4.6
				c0.5-0.4,1.2-0.6,1.9-0.6c0.2,0,0.3,0,0.5,0v-1c-0.1,0-0.3,0-0.4,0c-0.7,0-1.4,0.3-1.9,0.9H134V3.1h-1V10.2z M127.9,12.3
				c2.4,0,3.4-1,3.4-2.2c0-1.3-0.9-1.7-2.2-1.7h-1.9c-0.5,0-0.7-0.1-0.7-0.5c0-0.2,0.1-0.4,0.3-0.6c0.4,0.1,0.8,0.2,1.2,0.2
				c1.5,0,2.6-0.7,2.6-2.3v0c0-0.5-0.2-1-0.5-1.3h1.3V3.1H129C128.6,3,128.3,3,128,3c-1.5,0-2.7,0.8-2.7,2.3v0
				c0,0.7,0.3,1.4,0.9,1.7c-0.5,0.4-0.8,0.7-0.8,1.2c0,0.4,0.3,0.8,0.7,0.9v0.1c-0.7,0.2-1.3,0.7-1.3,1.4
				C124.8,11.6,125.8,12.2,127.9,12.3 M127.9,11.4c-1.4,0-2-0.3-2-0.9c0-0.6,0.4-0.9,0.9-1.1h2c0.9,0,1.3,0.2,1.3,0.9
				C130.2,11,129.6,11.4,127.9,11.4 M128,6.7c-0.9,0-1.6-0.5-1.6-1.4V5.2c0-0.9,0.6-1.4,1.6-1.4c0.9,0,1.5,0.4,1.5,1.4v0.1
				C129.5,6.2,128.9,6.7,128,6.7 M120.4,10.3c1.9,0,3.2-1.3,3.2-3.6V6.5c0-2.2-1.2-3.5-3.2-3.5c-1.9,0-3.2,1.3-3.2,3.6v0.2
				C117.3,9,118.4,10.3,120.4,10.3 M120.5,9.4c-1.2,0-2.1-0.6-2.1-2.6V6.4c0-1.7,0.8-2.6,2.1-2.6c1.1,0,2.1,0.6,2.1,2.6v0.3
				C122.5,8.5,121.7,9.4,120.5,9.4 M112.6,10.2h1.1V4.6c0.5-0.4,1.2-0.6,1.9-0.6c0.2,0,0.3,0,0.5,0v-1c-0.1,0-0.3,0-0.4,0
				c-0.7,0-1.4,0.3-1.9,0.9h-0.1V3.1h-1L112.6,10.2z M104.8,10.2h1.1V6.3h1.9c1.5,0.2,2.9-0.9,3-2.4c0-0.2,0-0.3,0-0.5
				c0-1.8-1-2.8-3.2-2.8h-2.9L104.8,10.2z M105.9,5.4V1.6h1.7c1.5,0,2.1,0.6,2.1,1.9c0,1.3-0.6,1.9-2.1,1.9L105.9,5.4z M95.9,12.2
				c2.4,0,3.4-1,3.4-2.2c0-1.3-0.9-1.7-2.2-1.7H95c-0.5,0-0.7-0.1-0.7-0.5c0-0.2,0.1-0.4,0.3-0.6c0.4,0.1,0.8,0.2,1.2,0.2
				c1.5,0,2.6-0.7,2.6-2.3v0c0-0.5-0.2-1-0.5-1.3h1.3V3.1h-2.4C96.6,3,96.2,3,95.9,3c-1.5,0-2.7,0.8-2.7,2.3v0
				c0,0.7,0.3,1.4,0.9,1.7c-0.5,0.4-0.8,0.7-0.8,1.2c0,0.4,0.3,0.8,0.7,0.9v0.1c-0.7,0.2-1.3,0.7-1.3,1.4
				C92.7,11.6,93.7,12.2,95.9,12.2 M95.8,11.4c-1.4,0-2-0.3-2-0.9c0-0.6,0.4-0.9,0.9-1.1h2c0.9,0,1.3,0.2,1.3,0.9
				C98.1,11,97.5,11.4,95.8,11.4 M95.9,6.6c-0.9,0-1.6-0.5-1.6-1.4V5.2c0-0.9,0.6-1.4,1.6-1.4c0.9,0,1.5,0.4,1.5,1.4v0.1
				C97.4,6.2,96.9,6.6,95.9,6.6 M85.5,10.1h1.1V4.4c0.6-0.3,1.3-0.5,2-0.5c1.1,0,1.4,0.4,1.4,1.2v5h1.1V4.9c0-1.4-0.7-1.9-2-1.9
				c-0.9,0-1.7,0.3-2.4,0.7h-0.1V3.1h-1L85.5,10.1z M82.2,10.1h1.1v-7h-1.1L82.2,10.1z M82.2,1.7h1.1V0.6h-1.1V1.7z M74.5,10.1h1.1
				V4.4c0.6-0.3,1.3-0.5,2-0.5c1.1,0,1.4,0.4,1.4,1.2v5H80V4.9C80,3.5,79.4,3,78,3c-0.9,0-1.7,0.3-2.4,0.7h-0.1V3.1h-1L74.5,10.1z
				 M69.3,10.1h1.1V4.6C71,4.2,71.6,4,72.3,4c0.2,0,0.3,0,0.5,0v-1c-0.1,0-0.3,0-0.4,0c-0.7,0-1.4,0.3-1.9,0.9h-0.1V3.1h-1V10.1z
				 M64.2,10.3c0.7,0,1.4-0.2,1.9-0.7h0.1l0.1,0.6h0.9V5c0-1.4-0.9-2.1-2.4-2.1c-0.7,0-1.4,0.1-2.1,0.4v0.8c0.5-0.2,1.1-0.2,1.7-0.2
				c1.3,0,1.7,0.3,1.7,1.4V6l-1.9,0.2c-1.3,0.2-2.1,0.8-2.1,2c0,1.1,0.8,2,1.9,2C64,10.3,64.1,10.3,64.2,10.3 M64.5,9.4
				c-0.8,0-1.3-0.4-1.3-1.1c0-0.8,0.4-1.2,1.3-1.3L66,6.8v2.1C65.6,9.3,65,9.4,64.5,9.4 M58,10.3c0.8,0,1.7-0.2,2.4-0.7V8.8
				c-0.7,0.4-1.4,0.5-2.2,0.5c-1.5,0-2.3-0.7-2.4-2.4h4.8V6.3c0-2.2-0.9-3.3-2.8-3.3c-1.6,0-3.1,1.1-3.1,3.6v0.2
				C54.7,8.9,55.8,10.3,58,10.3 M57.7,3.9c1.1,0,1.7,0.6,1.7,2.2h-3.7C55.9,4.4,56.8,3.9,57.7,3.9 M48,10.1h5.4V9.2h-4.3V0.6H48
				L48,10.1z M41.1,6h4.7V5.1h-4.7V6z M36.8,10.3c0.8,0,1.7-0.2,2.4-0.7V8.8c-0.7,0.4-1.4,0.5-2.2,0.5c-1.5,0-2.3-0.7-2.4-2.4h4.8
				V6.3c0-2.2-0.9-3.3-2.8-3.3c-1.6,0-3.1,1.1-3.1,3.6v0.2C33.5,8.9,34.6,10.3,36.8,10.3 M36.5,3.9c1.1,0,1.7,0.6,1.7,2.2h-3.7
				C34.7,4.4,35.7,3.9,36.5,3.9 M30.5,10.2h1.1V0h-1.1V10.2z M27.2,10.2h1.1v-7h-1.1V10.2z M27.2,1.7h1.1V0.6h-1.1V1.7z M21.8,10.3
				c2.3,0,3.5-1.3,3.5-3.7V6.4c0-2.6-1.4-3.5-2.7-3.5c-0.8,0-1.5,0.2-2.2,0.6h-0.1V0h-1.1v9.9C20,10.2,20.9,10.3,21.8,10.3
				 M21.8,9.4c-0.5,0-1-0.1-1.5-0.3V4.4c0.5-0.3,1.1-0.4,1.7-0.5c1.4,0,2.1,0.6,2.1,2.6v0.3C24.1,8.8,23.1,9.4,21.8,9.4 M14.1,10.3
				c1.9,0,3.2-1.3,3.2-3.6V6.5c0-2.2-1.2-3.5-3.2-3.5c-1.9,0-3.2,1.3-3.2,3.6v0.2C10.9,9,12.1,10.3,14.1,10.3 M14.1,9.4
				c-1.2,0-2.1-0.6-2.1-2.6V6.4c0-1.7,0.8-2.6,2.1-2.6c1.1,0,2.1,0.6,2.1,2.6v0.3C16.2,8.5,15.4,9.4,14.1,9.4 M0,10.2h1v-8h0
				l2.8,8.1h1.1l2.8-8h0v8h1.1V0.6H7.2l-2.7,8h0l-2.8-8H0L0,10.2z"/>
		</g>
		<rect id="사각형_516" x="911.1" y="1432.2" class="st4" width="583.3" height="33.2"/>
		<g id="그룹_5597" transform="translate(1135.838 1442.527)">
			<path id="패스_3620" class="st5" d="M133.9,8h-8.1v4.2h8.1V8z M129.4,5.6C128,5.9,126.5,6,125.1,6V4.2h3.7V0.9H124v0.9h3.7v1.5
				H124v3.6h0.8c1.6,0,3.2-0.1,4.8-0.4L129.4,5.6z M133.9,7.4V0h-1.1v3.3h-1.5V0.2h-1v7h1V4.2h1.5v3.2L133.9,7.4z M132.8,11.3h-6
				V8.9h6V11.3z M122.9,9.7h-11.2v0.9h11.2V9.7z M112.8,1.4v0.9h7.3c0,2.1-0.2,4.2-0.5,6.3l1.1,0.1c0.4-2.4,0.6-4.9,0.6-7.3H112.8z
				 M110.1,10.8V9.9H105V7.8h4V6.9h-7.7V4.8h7.4V1h-8.5v0.9h7.4v2h-7.4v3.9h3.7v2.1h-5v0.9L110.1,10.8z M96.2,7.4V6.5h-2l0.5-3.4
				l-1.1-0.2l-0.4,3.6h-3l-0.3-3.6L88.8,3l0.3,3.5h-2v0.9L96.2,7.4z M97.3,9.8H86.1v0.9h11.2V9.8z M96.3,1.3h-9.2v0.9h9.2V1.3z
				 M76.8,5.7c-1.7-0.6-2.9-2.2-3-4V0.6h-1.1v1.2c-0.1,1.9-1.3,3.6-3.1,4.4L70.2,7c1.4-0.7,2.5-1.8,3.1-3.3C73.9,5,74.9,6,76.2,6.6
				L76.8,5.7z M79.5,10c0-1.5-1.6-2.4-4.2-2.4c-2.6,0-4.1,0.9-4.1,2.4s1.5,2.4,4.1,2.4C78,12.4,79.5,11.5,79.5,10 M75.4,8.5
				c1.9,0,3.1,0.5,3.1,1.5s-1.2,1.5-3.1,1.5c-1.9,0-3-0.5-3-1.5S73.5,8.5,75.4,8.5 M81.3,4.3V3.4h-1.9V0h-1.1v7.6h1.1V4.3L81.3,4.3z
				 M66.6,10.3c0-1.3-1.4-2.2-4.1-2.2s-4.1,0.8-4.1,2.2s1.4,2.1,4.1,2.1S66.6,11.6,66.6,10.3 M63.4,5.5c0-1.3-1.3-2-2.9-2
				s-2.9,0.8-2.9,2c0,1.2,1.3,2,2.9,2S63.4,6.7,63.4,5.5 M62.5,9c1.9,0,3,0.5,3,1.3s-1.1,1.2-3,1.2s-3-0.5-3-1.2S60.6,9,62.5,9
				 M68.3,5h-1.9V3.4h1.9V2.4h-1.9V0h-1.1v7.8h1.1V5.9h1.9V5z M62.3,5.5c0,0.7-0.9,1.2-1.9,1.2c-1,0-1.9-0.5-1.9-1.2
				c0-0.7,0.9-1.2,1.9-1.2S62.3,4.7,62.3,5.5 M64.1,2h-7.3v0.9h7.3L64.1,2z M62.2,0.3h-3.6v0.9h3.6V0.3z M50.3,10.1
				c0-1.4-1.4-2.3-4.1-2.3s-4.1,0.9-4.1,2.3c0,1.4,1.4,2.2,4.1,2.2S50.3,11.5,50.3,10.1 M47.7,5.6C45.9,5.9,44.1,6,42.3,6h-0.2V4.2
				h4.3V0.8h-5.4v0.9h4.4v1.6h-4.3v3.6h1.2c1.9,0,3.7-0.1,5.6-0.4L47.7,5.6z M46.2,8.7c1.9,0,3,0.5,3,1.4s-1.1,1.3-3,1.3
				s-3-0.5-3-1.3C43.2,9.2,44.3,8.7,46.2,8.7 M52,4.6h-1.9V2.8H52V1.9h-1.9V0H49v7.6h1.1V5.5H52V4.6z M35.3,2.6h2.3v2h-2.3l0,0.9
				h2.3v1.7h1.1V0h-1.1v1.7h-2.3L35.3,2.6z M30.4,8v0.9h7.2v3.6h1.1V8L30.4,8z M31.9,0.7c-1.7-0.1-3.1,1.2-3.2,2.8
				c0,0.1,0,0.1,0,0.2c-0.1,1.8,1.2,3.3,3,3.4c1.8,0.1,3.3-1.2,3.4-3c0.1-1.8-1.2-3.3-3-3.4C32,0.7,31.9,0.7,31.9,0.7 M31.9,1.6
				c1.1,0,2.1,0.9,2.1,2.1c0,1.1-0.9,2.1-2.1,2.1s-2.1-0.9-2.1-2.1C29.8,2.6,30.7,1.6,31.9,1.6 M12.6,1.6v0.9h3.6
				c-0.1,2.7-1.7,5.2-4.1,6.5l0.7,0.8c2.9-1.7,4.6-4.9,4.5-8.2L12.6,1.6z M22.7,0h-1.1v12.4h1.1V0z M20.4,11.8V0.3h-1.1v3.1h-1.8
				v0.9h1.8v2.3h-2.1v0.9h2.1v4.3L20.4,11.8z M7,6.2c0-1.3-1.2-2.1-3-2.1s-3,0.8-3,2.1c0,1.1,1,1.9,2.4,2.1v1.3
				c-1.3,0.1-2.6,0-3.5,0l0.2,0.9c1.1,0,2.4-0.1,3.8-0.1c1.5-0.1,3.4-0.2,4.3-0.4L8.2,9.1C7.4,9.2,6,9.3,4.6,9.4V8.2
				C6.1,8.1,7,7.3,7,6.2 M10.1,0H9v12.4h1.1V0z M6,6.2C6,6.9,5.2,7.4,4,7.4S2.1,6.9,2.1,6.2S2.9,5,4,5S6,5.4,6,6.2 M7.8,2.5H0.4v0.9
				h7.4L7.8,2.5z M5.8,0.6H2.2v0.9h3.6V0.6z"/>
		</g>
		<rect id="사각형_517" x="1210.3" y="1469.9" class="st4" width="284.2" height="33.2"/>
		<g id="그룹_5598" transform="translate(1325.585 1481.336)">
			<path id="패스_3621" class="st5" d="M45.5,9.7h1.1l1-2.8h3.8l1,2.8h1.2l-3.5-9.5H49L45.5,9.7z M49.4,1.7L49.4,1.7L51,6h-3.1
				L49.4,1.7z M37.9,9.7h3.2c2.1,0,3.2-1.1,3.2-2.7c0.1-1.2-0.8-2.2-2-2.3c0,0,0,0,0,0V4.6c1-0.2,1.6-1.1,1.6-2.1
				c0-1.5-0.9-2.4-3.1-2.4h-2.9L37.9,9.7z M39,8.7V5.2h1.9c1.4,0,2.2,0.5,2.2,1.7S42.4,8.7,41,8.7L39,8.7z M39,4.3V1.1h1.7
				c1.3,0,2,0.4,2,1.6c0,1.2-0.9,1.6-2.1,1.6L39,4.3z M26.5,9.7h1v-8h0l2.8,8h1.1l2.8-8h0v8h1.1V0.2h-1.7l-2.7,8h0l-2.8-8h-1.7V9.7z
				 M18.8,9.7h1.1V0.2h-1.1V9.7z M14.2,9.8c0.9,0,1.8-0.2,2.6-0.6V8.3c-0.8,0.4-1.6,0.6-2.5,0.6c-2.2,0-3.1-1.4-3.1-3.9V4.6
				C11.3,2,12.5,1,14.3,1c0.8,0,1.6,0.2,2.4,0.5V0.5C16,0.2,15.2,0,14.4,0c-2.4,0-4.3,1.3-4.3,4.7V5C10.1,8.3,11.6,9.8,14.2,9.8
				 M4.2,9.8c2.6,0,4.2-1.8,4.2-4.8V4.8C8.3,1.7,6.8,0,4.2,0C1.6,0,0,1.8,0,4.8V5C0,8.2,1.6,9.8,4.2,9.8 M4.2,8.9
				c-2.1,0-3-1.6-3-3.9V4.6c0-2.1,1-3.7,2.9-3.7c2.1,0,3,1.6,3,3.9v0.4C7.1,7.4,6.2,8.9,4.2,8.9"/>
		</g>
		<rect id="사각형_518" x="911.1" y="1507.5" class="st4" width="433.8" height="33.2"/>
		<g id="그룹_5599" transform="translate(1038.377 1517.875)">
			<path id="패스_3622" class="st5" d="M179.2,8h-8.1v4.2h8.1V8z M174.8,5.6c-1.4,0.3-2.9,0.4-4.4,0.4V4.2h3.7V0.9h-4.8v0.9h3.7
				v1.5h-3.7v3.6h0.8c1.6,0,3.2-0.1,4.8-0.4L174.8,5.6z M179.2,7.4V0h-1.1v3.3h-1.5V0.2h-1v7h1V4.2h1.5v3.2L179.2,7.4z M178.1,11.3
				h-6V8.9h6V11.3z M168.2,9.7H157v0.9h11.2V9.7z M158.2,1.4v0.9h7.3c0,2.1-0.2,4.2-0.5,6.3l1.1,0.1c0.4-2.4,0.6-4.9,0.6-7.3H158.2z
				 M155.4,10.8V9.9h-5.1V7.8h4V6.9h-7.7V4.8h7.4V1h-8.5v0.9h7.4v2h-7.4v3.9h3.7v2.1h-5v0.9L155.4,10.8z M141.6,7.4V6.5h-2l0.5-3.4
				L139,2.9l-0.4,3.6h-3l-0.3-3.6L134.1,3l0.3,3.5h-2v0.9L141.6,7.4z M142.7,9.8h-11.2v0.9h11.2L142.7,9.8z M141.6,1.3h-9.2v0.9h9.2
				V1.3z M122.2,5.7c-1.7-0.6-2.9-2.2-3-4V0.6H118v1.2c-0.1,1.9-1.3,3.6-3.1,4.4l0.6,0.8c1.4-0.7,2.5-1.8,3.1-3.3
				c0.6,1.3,1.6,2.3,2.9,2.9L122.2,5.7z M124.9,10c0-1.5-1.6-2.4-4.2-2.4c-2.6,0-4.1,0.9-4.1,2.4s1.5,2.4,4.1,2.4
				C123.3,12.4,124.9,11.5,124.9,10 M120.7,8.5c1.9,0,3.1,0.5,3.1,1.5s-1.2,1.5-3.1,1.5c-1.9,0-3-0.5-3-1.5S118.8,8.5,120.7,8.5
				 M126.6,4.3V3.4h-1.9V0h-1.1v7.6h1.1V4.3H126.6z M111.9,10.3c0-1.3-1.4-2.2-4.1-2.2s-4.1,0.8-4.1,2.2s1.4,2.1,4.1,2.1
				S111.9,11.6,111.9,10.3 M108.7,5.5c0-1.3-1.3-2-2.9-2s-2.9,0.8-2.9,2c0,1.2,1.3,2,2.9,2S108.7,6.7,108.7,5.5 M107.8,9
				c1.9,0,3,0.5,3,1.3s-1.1,1.2-3,1.2s-3-0.5-3-1.2S105.9,9,107.8,9 M113.7,5h-1.9V3.4h1.9V2.4h-1.9V0h-1.1v7.8h1.1V5.9h1.9V5z
				 M107.7,5.5c0,0.7-0.9,1.2-1.9,1.2c-1,0-1.9-0.5-1.9-1.2c0-0.7,0.9-1.2,1.9-1.2S107.7,4.7,107.7,5.5 M109.4,2h-7.3v0.9h7.3
				L109.4,2z M107.6,0.3h-3.6v0.9h3.6L107.6,0.3z M99,10.1c0-1.4-1.4-2.3-4.1-2.3s-4.1,0.9-4.1,2.3c0,1.4,1.4,2.2,4.1,2.2
				S99,11.5,99,10.1 M96.4,5.6C94.6,5.9,92.8,6,91,6h-0.2V4.2h4.3V0.8h-5.4v0.9h4.4v1.6h-4.3v3.6H91c1.9,0,3.7-0.1,5.6-0.4L96.4,5.6
				z M94.9,8.7c1.9,0,3,0.5,3,1.4s-1.1,1.3-3,1.3s-3-0.5-3-1.3C91.9,9.2,93,8.7,94.9,8.7 M100.7,4.6h-1.9V2.8h1.9V1.9h-1.9V0h-1.1
				v7.6h1.1V5.5h1.9L100.7,4.6z M84,2.6h2.3v2H84l0,0.9h2.3v1.8h1.1V0h-1.1v1.7H84L84,2.6z M79.1,8v0.9h7.2v3.6h1.1V8L79.1,8z
				 M80.6,0.7c-1.7-0.1-3.1,1.2-3.2,2.8c0,0.1,0,0.1,0,0.2c-0.1,1.8,1.2,3.3,3,3.4c1.8,0.1,3.3-1.2,3.4-3c0.1-1.8-1.2-3.3-3-3.4
				C80.7,0.7,80.6,0.7,80.6,0.7 M80.6,1.6c1.1,0,2.1,0.9,2.1,2.1c0,1.1-0.9,2.1-2.1,2.1s-2.1-0.9-2.1-2.1
				C78.5,2.6,79.4,1.6,80.6,1.6L80.6,1.6 M75,0.7h-8.4v5H75L75,0.7z M73.9,4.8h-6.2V1.6h6.2V4.8z M71.3,12.4V8.2h5.1V7.3H65.2v0.9h5
				v4.2L71.3,12.4z M53.4,1.8h2.8c0,0.2,0,0.5,0,0.6c-0.1,1.6-1.6,3.2-3.2,3.8l0.6,0.8c1.4-0.6,2.5-1.7,3.1-3.1
				c0.7,1.2,1.7,2.2,3,2.7l0.6-0.9c-1.6-0.5-2.7-1.8-3-3.4c0-0.2,0-0.4,0-0.7h2.9V0.9h-6.8L53.4,1.8z M54.8,8v0.9H62v3.5h1.1V8
				L54.8,8z M63.1,0H62v7.4h1.1V0z M36.8,5.2c0,2.6,1.1,4.4,3.1,4.4c1.9,0,3-1.6,3.1-4h2.7v6.7h1.1V0h-1.1v4.8H43
				c-0.1-2.3-1.2-3.9-3.1-3.9C37.9,0.9,36.8,2.6,36.8,5.2 M42,5.3c0,2-0.8,3.4-2.1,3.4s-2.1-1.4-2.1-3.4s0.8-3.5,2.1-3.5
				S42,3.2,42,5.3 M34.6,0h-1.1v12.4h1.1V0z M32.2,7.8c-2,0.4-3.9,0.5-5.9,0.6V1.3h-1.1v8.1h0.5c2.2,0,4.4-0.2,6.6-0.6L32.2,7.8z
				 M20,8.6c-1.9-1-3.2-3-3.3-5.2V2.1h2.9V1.2h-6.9v0.9h2.9v1.3c-0.1,2.3-1.3,4.4-3.3,5.5L13,9.7c1.5-0.9,2.6-2.4,3.2-4.1
				c0.6,1.6,1.7,2.9,3.2,3.8L20,8.6z M21.5,12.4h1.1V0h-1.1V12.4z M8,8.9V0.3H7v3.2H5.7C5.6,2,4.4,0.8,2.9,0.9C1.3,0.9,0,2.1,0,3.7
				c0,0.1,0,0.2,0,0.3c-0.1,1.6,1.1,3,2.7,3.1c0.1,0,0.2,0,0.2,0c1.5,0,2.8-1.2,2.9-2.7H7v4.5L8,8.9z M4.7,4c0,1.2-0.6,2.2-1.8,2.2
				S1.1,5.2,1.1,3.9c0-1.2,0.7-2.2,1.8-2.2S4.7,2.7,4.7,4 M10.7,12v-0.9H3.3V8H2.2v4L10.7,12z M10.4,0H9.3v9.2h1.1V0z"/>
		</g>
		<rect id="사각형_519" x="911.1" y="1545.2" class="st4" width="583.3" height="33.2"/>
		<g id="그룹_5600" transform="translate(1116.501 1555.548)">
			<path id="패스_3623" class="st5" d="M170.1,12.3c1.6-1.5,2.4-3.6,2.4-5.8V6.2c0-2.2-0.9-4.3-2.4-5.8h-1
				c1.4,1.6,2.2,3.6,2.3,5.8v0.3c0,2.1-0.9,4.1-2.3,5.7L170.1,12.3z M167.2,10.1c0-1.5-1.5-2.4-4.2-2.4s-4.2,0.9-4.2,2.4
				s1.5,2.4,4.2,2.4S167.2,11.5,167.2,10.1 M157.3,1.9h2.8c0,0.2,0,0.5,0,0.7c-0.2,1.8-1.5,3.3-3.2,3.9l0.6,0.9
				c1.4-0.6,2.5-1.8,3.2-3.2c0.7,1.3,1.8,2.3,3.1,2.8l0.6-0.9c-1.5-0.5-3.1-1.8-3.2-3.5c0-0.1,0-0.4,0-0.7h2.8V1h-6.7L157.3,1.9z
				 M163.1,8.6c1.9,0,3.1,0.5,3.1,1.5s-1.1,1.5-3.1,1.5c-1.9,0-3.1-0.5-3.1-1.5S161.2,8.6,163.1,8.6 M166.1,4.1v3.6h1.1V0h-1.1v3.2
				h-2.5v0.9L166.1,4.1z M144.5,1.3v0.9h5.4c0,1.6-0.1,3.1-0.4,4.6l1,0.1c0.3-1.9,0.5-3.8,0.4-5.7L144.5,1.3z M151.9,8.4
				c-1.4,0.2-2.8,0.3-4.2,0.4V4.8h-1.1v3.9c-0.9,0-2,0-2.7,0l0.2,0.9c1,0,2.4,0,3.7-0.1c1.2-0.1,3-0.2,4.2-0.4L151.9,8.4z
				 M155.8,6.1V5.2h-2V0h-1.1v12.4h1.1V6.1L155.8,6.1z M136.4,10.9c0.8,0,1.7-0.2,2.4-0.7V9.5c-0.7,0.4-1.4,0.5-2.2,0.5
				c-1.5,0-2.3-0.7-2.4-2.4h4.8V7c0-2.2-0.9-3.3-2.8-3.3c-1.6,0-3.1,1.1-3.1,3.6v0.2C133.1,9.6,134.2,10.9,136.4,10.9 M136.1,4.5
				c1.1,0,1.7,0.6,1.7,2.2h-3.7C134.3,5,135.2,4.5,136.1,4.5 M130.1,10.8h1.1V0.7h-1.1V10.8z M126.8,10.8h1.1v-7h-1.1V10.8z
				 M126.8,2.4h1.1V1.2h-1.1V2.4z M121.3,11c2.3,0,3.5-1.3,3.5-3.7V7.1c0-2.6-1.4-3.5-2.7-3.5c-0.8,0-1.5,0.2-2.2,0.6h-0.1V0.7h-1.1
				v9.9C119.6,10.8,120.5,11,121.3,11 M121.4,10.1c-0.5,0-1-0.1-1.5-0.3V5c0.5-0.3,1.1-0.4,1.7-0.5c1.4,0,2.1,0.6,2.1,2.6v0.3
				C123.7,9.5,122.7,10.1,121.4,10.1 M113.7,10.9c1.9,0,3.2-1.3,3.2-3.6V7.2c0-2.2-1.2-3.5-3.2-3.5c-1.9,0-3.2,1.3-3.2,3.6v0.2
				C110.5,9.7,111.7,10.9,113.7,10.9 M113.7,10c-1.2,0-2.1-0.6-2.1-2.6V7.1c0-1.7,0.8-2.6,2.1-2.6c1.1,0,2.1,0.6,2.1,2.6v0.3
				C115.8,9.2,115,10,113.7,10 M99.6,10.8h1v-8h0l2.8,8h1.1l2.8-8h0v8h1.1V1.3h-1.7l-2.7,8h0l-2.8-8h-1.7L99.6,10.8z M88.4,3.3
				c-0.1-0.6,0.4-1.2,1-1.3c0.1,0,0.1,0,0.2,0c0.6,0,1.1,0.5,1.2,1.1c0,0,0,0.1,0,0.1c0,1-0.8,1.5-1.6,1.9C88.7,4.6,88.4,4,88.4,3.3
				 M89.3,10.1c-1,0.2-1.9-0.5-2.1-1.5c0-0.1,0-0.2,0-0.4c0-0.9,0.6-1.7,1.5-2l2.7,3.2C90.8,9.8,90.1,10.1,89.3,10.1 M89.3,11
				c1,0,1.9-0.3,2.6-1c0.3,0.3,0.5,0.6,0.7,0.9H94l-1.4-1.7c0.5-0.9,0.9-1.9,0.9-2.9h-1c0,0.7-0.2,1.4-0.5,2.1l-2.2-2.7
				c1.1-0.5,2.1-1.2,2.1-2.5c0-1.1-0.9-2.1-2-2.1c-0.1,0-0.1,0-0.2,0c-1.2-0.1-2.3,0.8-2.4,2c0,0.1,0,0.2,0,0.2
				c0,0.8,0.4,1.5,0.9,2.1C86.9,5.9,86.1,7,86,8.3C86,10,87.3,11,89.3,11 M73.8,0.9c-1.7-0.2-3.2,1.1-3.4,2.8c0,0.1,0,0.1,0,0.2
				c0,1.6,1.3,2.9,2.8,2.9v2c-1.3,0-2.5,0.1-3.5,0.1l0.2,0.9c0.8,0,2.7,0,4-0.1c1.5-0.1,3.2-0.2,4.2-0.3L78,8.5
				c-0.8,0.1-2.3,0.2-3.7,0.3V6.8c1.6-0.1,2.8-1.4,2.8-2.9c0-1.7-1.4-3-3.1-3C73.9,0.9,73.8,0.9,73.8,0.9 M73.8,1.8
				c1.2,0.1,2,1.1,1.9,2.3s-1.1,2-2.3,1.9c-1.1-0.1-1.9-1-1.9-2.1c0-1.1,0.9-2.1,2.1-2.1C73.6,1.8,73.7,1.8,73.8,1.8 M79.9,0h-1.1
				v12.4h1.1L79.9,0z M68.7,5.9V5h-2V0h-1.1v12.4h1.1V5.9L68.7,5.9z M64.5,8.6c-1.9-1.1-3.2-3.1-3.3-5.3V1.1h-1.1v2.2
				c-0.1,2.3-1.3,4.3-3.3,5.5l0.7,0.8c1.5-1,2.6-2.5,3.1-4.1c0.6,1.6,1.7,2.9,3.2,3.9L64.5,8.6z M56.5,12.3
				c-1.4-1.6-2.2-3.6-2.3-5.8V6.1c0-2.1,0.9-4.1,2.3-5.7h-1C54,2,53.1,4.1,53.1,6.3v0.2c0,2.2,0.9,4.3,2.5,5.8L56.5,12.3z M46.4,2.6
				c0-1.4-1.6-2.3-4.3-2.3s-4.3,0.9-4.3,2.3s1.6,2.3,4.3,2.3S46.4,4,46.4,2.6 M37.7,8.5v0.9h7.5v3.1h1.1v-4h-1.7V6.7h3.1V5.8H36.5
				v0.9h3.1v1.8H37.7z M45.4,2.6c0,0.9-1.3,1.5-3.3,1.5s-3.3-0.5-3.3-1.5s1.3-1.5,3.3-1.5S45.4,1.7,45.4,2.6 M40.6,6.7h2.9v1.8h-2.9
				V6.7z M35.6,10.6V9.7h-4.2V5.4h-1.1v4.3h-2.1V5.4h-1.1v4.3h-2.8v0.9L35.6,10.6z M34.2,1.4h-8.6v0.9h7.5v1.1
				c0,1.6-0.1,3.1-0.4,4.7l1.1,0.2c0.4-1.8,0.5-3.6,0.5-5.4V1.4z M22,0.7h-8.4v5H22V0.7z M20.9,4.8h-6.2V1.6h6.2V4.8z M18.3,12.4
				V8.2h5.1V7.3H12.2v0.9h5v4.2L18.3,12.4z M0.4,1.8h2.8c0,0.2,0,0.5,0,0.6C3.1,4.1,1.6,5.7,0,6.3l0.6,0.8C2,6.5,3.1,5.4,3.7,4
				c0.7,1.2,1.7,2.2,3,2.7l0.6-0.9c-1.6-0.5-2.7-1.8-3-3.4c0-0.2,0-0.4,0-0.7h2.9V0.9H0.4L0.4,1.8z M1.7,8v0.9H9v3.5H10V8L1.7,8z
				 M10,0H9v7.4H10V0z"/>
		</g>
		<rect id="사각형_520" x="911.3" y="1352.3" class="st4" width="134.3" height="33.2"/>
		<g id="그룹_5601" transform="translate(922.595 1362.608)">
			<path id="패스_3624" class="st5" d="M107.6,10.8h1.1V2.2h2.9V1.3h-6.9v0.9h2.9V10.8z M100.3,10.9c1.3,0.1,2.4-0.8,2.6-2
				c0-0.2,0-0.3,0-0.5V1.3h-1.1v7.1c0,1-0.4,1.6-1.5,1.6c-0.6,0-1.1-0.1-1.7-0.3v0.9C99.1,10.8,99.7,10.9,100.3,10.9 M93.2,11
				c2.6,0,4.2-1.8,4.2-4.8V5.9c0-3.1-1.6-4.8-4.2-4.8c-2.6,0-4.2,1.8-4.2,4.8v0.2C89,9.3,90.6,11,93.2,11 M93.2,10.1
				c-2.1,0-3-1.6-3-3.9V5.7c0-2.1,1-3.7,2.9-3.7c2.1,0,3,1.6,3,3.9v0.4C96.2,8.5,95.2,10.1,93.2,10.1 M78.4,3.3
				c-0.1-0.6,0.4-1.2,1-1.3c0.1,0,0.1,0,0.2,0c0.6,0,1.1,0.5,1.2,1.1c0,0,0,0.1,0,0.1c0,1-0.8,1.5-1.6,1.9C78.7,4.6,78.4,4,78.4,3.3
				 M79.3,10.1c-1,0.2-1.9-0.5-2.1-1.5c0-0.1,0-0.2,0-0.4c0-0.9,0.6-1.7,1.5-2l2.7,3.2C80.8,9.8,80.1,10.1,79.3,10.1 M79.3,11
				c1,0,1.9-0.3,2.6-1c0.3,0.3,0.5,0.6,0.7,0.9H84l-1.4-1.7c0.5-0.9,0.9-1.9,0.9-2.9h-1c0,0.7-0.2,1.4-0.5,2.1l-2.2-2.7
				c1.1-0.5,2.1-1.2,2.1-2.5c0-1.1-0.9-2.1-2-2.1c-0.1,0-0.1,0-0.2,0c-1.2-0.1-2.3,0.8-2.4,2c0,0.1,0,0.2,0,0.2
				c0,0.8,0.4,1.5,0.9,2.1C76.9,6.1,76,6.8,76,8.3C76,10,77.3,11,79.3,11 M69.5,12.2V7.6h-1.1v1.4h-6.1V7.6h-1.1v4.6H69.5z M70.9,7
				V6.1h-3.1V4.5h-1.1v1.5h-2.9V4.5h-1.1v1.5h-3.1V7L70.9,7z M70.4,3.8c-1.9-0.2-4.5-1.6-4.5-3.4V0.1h-1.1v0.4
				c0,1.7-2.4,3.1-4.5,3.4l0.5,0.9c2.1-0.4,4-1.7,4.5-2.9c0.6,1.2,2.5,2.5,4.6,2.9L70.4,3.8z M68.4,11.3h-6.1V10h6.1L68.4,11.3z
				 M57.4,1.4H49v0.9h7.3v1.3c0,0.4,0,0.9-0.1,1.4l-7.6,0.3l0.2,0.9l7.3-0.4c-0.1,1.1-0.2,2.1-0.4,3.1l1,0.1c0.4-2,0.6-4,0.6-6.1
				L57.4,1.4z M58.9,9.7H47.6v0.9h11.2V9.7z M42.6,3.2c0-1.6-1.3-2.7-3.3-2.7s-3.3,1.1-3.3,2.7c0,1.5,1.3,2.6,3.3,2.6
				S42.6,4.7,42.6,3.2 M45.5,12.4V0h-1.1v8.5h-2.8v0.9h2.8v3L45.5,12.4z M41.6,3.2c0,1.1-1,1.7-2.2,1.7s-2.2-0.6-2.2-1.7
				c0-1.1,1-1.8,2.2-1.8S41.6,2,41.6,3.2 M39.9,12V7.6c1.4-0.1,2.9-0.2,3.8-0.3l-0.1-0.9c-1.2,0.1-2.6,0.2-4.2,0.3
				c-1.4,0.1-2.7,0.1-4.2,0.1l0.2,0.9c1.1,0,2.2,0,3.4-0.1V12L39.9,12z M26.4,9c-1.9-0.8-3.1-2.6-3.2-4.6V3.9h2.9V3h-6.8v0.9h2.9
				v0.4c-0.1,2.1-1.3,4-3.2,5l0.6,0.8C21,9.3,22.1,8,22.7,6.5c0.6,1.4,1.7,2.6,3.1,3.3L26.4,9z M30.6,6.1V5.1h-2V0h-1.1v12.4h1.1
				V6.1L30.6,6.1z M24.5,0.8h-3.8v0.9h3.8V0.8z M17.3,12v-0.9H10V8.4H8.9V12L17.3,12z M15.9,2.7v1.5h-4V5h4v4h1.1V0h-1.1v1.8h-4v0.9
				L15.9,2.7z M13.9,6c-1.8,0.3-3.6,0.4-5.4,0.4V0.8H7.4v6.6h0.9c1.9,0,3.8-0.2,5.6-0.5L13.9,6z M0.1,10.8H6v-1H3.7V1.2H3.1L0,2.4
				v0.9l2.6-0.9v7.4H0.1L0.1,10.8z"/>
		</g>
		<rect id="사각형_521" x="1060.5" y="1352.4" class="st4" width="134.6" height="33"/>
		<g id="그룹_5602" transform="translate(1077.468 1362.606)">
			<path id="패스_3625" class="st5" d="M100.7,10.1c0-1.5-1.5-2.4-4.2-2.4s-4.2,0.9-4.2,2.4s1.5,2.4,4.2,2.4
				S100.7,11.5,100.7,10.1 M90.8,1.9h2.8c0,0.2,0,0.5,0,0.7c-0.3,1.8-1.5,3.3-3.2,3.9L91,7.4c1.4-0.6,2.5-1.8,3.2-3.2
				c0.7,1.3,1.8,2.3,3.1,2.8l0.6-0.9c-1.5-0.5-3.1-1.8-3.2-3.5c0-0.1,0-0.4,0-0.7h2.8V1h-6.7L90.8,1.9z M96.5,8.6
				c1.9,0,3.1,0.5,3.1,1.5s-1.1,1.5-3.1,1.5c-1.9,0-3.1-0.5-3.1-1.5S94.6,8.6,96.5,8.6 M99.5,4.1v3.6h1.1V0h-1.1v3.2H97v0.9
				L99.5,4.1z M78,1.3v0.9h5.4c0,1.6-0.1,3.1-0.4,4.6L84,7c0.3-1.9,0.5-3.8,0.4-5.7L78,1.3z M85.3,8.4c-1.4,0.2-2.8,0.3-4.2,0.4V4.8
				h-1.1v3.9c-0.9,0-2,0-2.7,0l0.2,0.9c1,0,2.4,0,3.7-0.1c1.2-0.1,3-0.2,4.2-0.4L85.3,8.4z M89.2,6.1V5.2h-2V0h-1.1v12.4h1.1V6.1
				L89.2,6.1z M73.2,9.1c-0.8,0.1-2.1,0.2-3.5,0.3V8.2c1.5-0.1,2.4-0.9,2.4-2.1c0-1.3-1.2-2.1-2.9-2.1s-2.9,0.8-2.9,2.1
				c0,1.1,0.9,1.9,2.4,2.1v1.2c-1.2,0-2.5,0-3.3,0l0.2,0.9c1,0,2.3,0,3.7-0.1c1.5-0.1,3.1-0.3,4.1-0.4L73.2,9.1z M77,6.4V5.5h-2V0
				H74v12.4H75v-6L77,6.4z M71.1,6.2c0,0.7-0.8,1.2-1.9,1.2s-1.9-0.5-1.9-1.2S68,5,69.2,5S71.1,5.4,71.1,6.2 M72.9,2.5h-7.4v0.9h7.4
				V2.5z M70.9,0.6h-3.6v0.9h3.6L70.9,0.6z M63.3,0h-1.1v7.1h1.1V0z M60.5,5.7c-1.7-0.6-2.9-2.2-3.1-4V0.6h-1.1v1.2
				c-0.1,1.9-1.3,3.6-3.1,4.3l0.7,0.8c1.4-0.7,2.5-1.8,3-3.3c0.6,1.3,1.7,2.3,3,2.9L60.5,5.7z M63.3,7.8h-8.2v4.4h8.2V7.8z
				 M62.2,11.3h-6V8.7h6V11.3z M46.9,0h-1.1v7.1h1.1L46.9,0z M47,7.7h-8v4.5h8V7.7z M45.9,11.3H40V8.6h5.9V11.3z M40.3,0.7
				c-1.7-0.1-3.1,1.2-3.2,2.8c0,0.1,0,0.1,0,0.2c0.2,1.8,1.7,3.1,3.5,2.9c1.6-0.1,2.8-1.4,2.9-2.9c0-1.7-1.4-3-3.1-3
				C40.4,0.7,40.4,0.7,40.3,0.7 M40.3,1.6c1.1-0.1,2.1,0.8,2.2,1.9c0,0.1,0,0.1,0,0.2c0,1.1-0.8,2-2,2.1c-0.1,0-0.1,0-0.2,0
				c-1.1,0.1-2.1-0.8-2.2-1.9c0-0.1,0-0.1,0-0.2c0-1.1,0.9-2.1,2-2.1C40.2,1.6,40.3,1.6,40.3,1.6 M35,7.6V0h-1.1v3.3h-1.5V0.2h-1.1
				v7.3h1.1V4.2h1.5v3.4L35,7.6z M24.7,3.3h2.3c-0.1,1.6-1.1,2.9-2.6,3.4L25,7.5c1.1-0.5,2-1.4,2.6-2.5c0.5,1,1.4,1.8,2.5,2.2
				l0.6-0.8c-1.4-0.4-2.4-1.6-2.5-3.1h2.3V2.4h-5.7L24.7,3.3z M35,12.4V8.2h-8.3v0.9h7.2v3.3L35,12.4z M26,1.3h3.2V0.4H26V1.3z
				 M22.4,0h-1.1v7.1h1.1V0z M22.4,7.7h-8v4.5h8L22.4,7.7z M21.3,11.3h-5.9V8.6h5.9V11.3z M15.8,0.7c-1.7-0.1-3.1,1.2-3.2,2.8
				c0,0.1,0,0.1,0,0.2c0.2,1.8,1.7,3.1,3.5,2.9c1.6-0.1,2.8-1.4,2.9-2.9c0-1.7-1.4-3-3.1-3C15.9,0.7,15.8,0.7,15.8,0.7 M15.8,1.6
				c1.1-0.1,2.1,0.8,2.2,1.9c0,0.1,0,0.1,0,0.2c0,1.1-0.8,2-2,2.1c-0.1,0-0.1,0-0.2,0c-1.1,0.1-2.1-0.8-2.2-1.9c0-0.1,0-0.1,0-0.2
				c0-1.1,0.9-2.1,2-2.1C15.7,1.6,15.7,1.6,15.8,1.6 M10.3,9V0H9.2v3.1H6.5V4h2.6v5L10.3,9z M10.5,12v-0.9H3.4V8.2H2.3V12L10.5,12z
				 M7.4,6.3c-1.8-0.6-3-2.2-3.1-4.1V0.7H3.2v1.6C3,4.2,1.8,5.9,0,6.7l0.7,0.8c1.4-0.7,2.5-1.9,3.1-3.4c0.6,1.3,1.7,2.4,3,3L7.4,6.3
				z"/>
		</g>
		<rect id="사각형_522" x="1210.3" y="1352.4" class="st4" width="134.6" height="33"/>
		<path id="패스_3626" class="st5" d="M1233.3,1371.7v-7.7h4.9v7.7H1233.3z M1237.1,1364.9h-2.8v5.9h2.8L1237.1,1364.9z
			 M1242.2,1375v-6.6h-1.5v5.9h-1.1v-11.5h1.1v4.7h1.5v-5h1.1v12.4L1242.2,1375z"/>
		<path id="패스_3627" class="st5" d="M1252.9,1371.4c-2.2,0.4-4.4,0.6-6.6,0.6h-0.5v-8.1h1.1v7.1c2,0,4-0.2,5.9-0.6
			L1252.9,1371.4z M1255.2,1375h-1.1v-12.4h1.1L1255.2,1375z"/>
		<path id="패스_3628" class="st5" d="M1264.3,1372.3c-1.4-0.9-2.5-2.3-3.2-3.8c-0.6,1.7-1.7,3.1-3.2,4.1l-0.7-0.8
			c2-1.1,3.2-3.2,3.3-5.5v-1.4h-2.9v-0.9h6.9v0.9h-2.8v1.4c0.1,2.2,1.3,4.2,3.3,5.2L1264.3,1372.3z M1263.9,1368v-0.9h2.6v-4.5h1.1
			v12.4h-1.1v-7H1263.9z"/>
		<path id="패스_3629" class="st5" d="M1280.4,1369.2c-1.3-0.6-2.3-1.6-3-2.9c-0.5,1.4-1.6,2.6-3,3.3l-0.7-0.8
			c1.8-0.7,3-2.4,3.1-4.3v-1.2h1.1v1.1c0.1,1.8,1.3,3.4,3.1,4L1280.4,1369.2z M1275.7,1374.8v-4.4h8.2v4.4H1275.7z M1282.8,1371.3
			h-6v2.6h6V1371.3z M1282.8,1369.7v-7.1h1.1v7.1L1282.8,1369.7z"/>
		<path id="패스_3630" class="st5" d="M1293.9,1372.5c-1,0.1-2.6,0.3-4.1,0.4c-1.4,0.1-2.7,0.1-3.7,0.1l-0.2-0.9
			c0.9,0,2.1,0,3.3,0v-1.2c-1.4-0.2-2.4-0.9-2.4-2.1c0-1.3,1.2-2.1,2.9-2.1s2.9,0.8,2.9,2.1c0,1.1-0.9,1.9-2.4,2.1v1.2
			c1.4-0.1,2.7-0.2,3.5-0.3L1293.9,1372.5z M1286.1,1366v-0.9h7.4v0.9H1286.1z M1289.7,1367.6c-1.1,0-1.9,0.5-1.9,1.2
			s0.8,1.2,1.9,1.2s1.9-0.5,1.9-1.2S1290.9,1367.6,1289.7,1367.6L1289.7,1367.6z M1287.9,1364.1v-0.9h3.6v0.9H1287.9z M1295.6,1369
			v6h-1.1v-12.4h1.1v5.5h2v0.9H1295.6z"/>
		<path id="패스_3631" class="st5" d="M1306,1371.9c-1.2,0.2-3,0.3-4.2,0.4c-1.3,0.1-2.6,0.1-3.7,0.1l-0.2-0.9c0.7,0,1.8,0,2.7,0
			v-3.9h1.1v3.9c1.4-0.1,2.8-0.2,4.2-0.4L1306,1371.9z M1305,1363.9c0,1.9-0.1,3.8-0.4,5.7l-1-0.1c0.3-1.5,0.4-3.1,0.4-4.6h-5.4
			v-0.9L1305,1363.9z M1307.8,1368.7v6.3h-1.1v-12.4h1.1v5.2h2v0.9H1307.8z"/>
		<path id="패스_3632" class="st5" d="M1311.4,1363.6h6.7v0.9h-2.8c0,0.3,0,0.5,0,0.7c0.1,1.7,1.7,3,3.2,3.5l-0.6,0.9
			c-1.3-0.5-2.4-1.5-3.1-2.8c-0.6,1.4-1.7,2.6-3.2,3.2l-0.6-0.9c1.7-0.6,3-2.1,3.2-3.9c0-0.1,0-0.4,0-0.7h-2.8L1311.4,1363.6z
			 M1317.1,1375c-2.7,0-4.2-0.9-4.2-2.4c0-1.5,1.5-2.4,4.2-2.4c2.7,0,4.2,0.9,4.2,2.4S1319.8,1375,1317.1,1375L1317.1,1375z
			 M1314,1372.7c0,0.9,1.2,1.5,3.1,1.5c1.9,0,3.1-0.5,3.1-1.5s-1.1-1.5-3.1-1.5C1315.2,1371.2,1314,1371.7,1314,1372.7L1314,1372.7z
			 M1317.6,1366.7v-0.9h2.5v-3.2h1.1v7.7h-1.1v-3.6L1317.6,1366.7z"/>
		<rect id="사각형_523" x="1210.3" y="1314.6" class="st4" width="134.6" height="33"/>
		<g id="그룹_5603" transform="translate(1233.343 1324.802)">
			<path id="패스_3633" class="st5" d="M88.4,10.1c0-1.5-1.5-2.4-4.2-2.4s-4.2,0.9-4.2,2.4s1.5,2.4,4.2,2.4S88.4,11.5,88.4,10.1
				 M78.5,1.9h2.8c0,0.2,0,0.5,0,0.7c-0.3,1.8-1.5,3.3-3.2,3.9l0.6,0.9c1.4-0.6,2.5-1.8,3.2-3.2C82.6,5.4,83.7,6.4,85,7l0.6-0.9
				c-1.5-0.5-3.1-1.8-3.2-3.5c0-0.1,0-0.4,0-0.7h2.8V1h-6.7L78.5,1.9z M84.3,8.6c1.9,0,3.1,0.5,3.1,1.5s-1.1,1.5-3.1,1.5
				c-1.9,0-3.1-0.5-3.1-1.5S82.4,8.6,84.3,8.6 M87.3,4.1v3.6h1.1V0h-1.1v3.2h-2.5v0.9L87.3,4.1z M65.7,1.3v0.9h5.4
				c0,1.6-0.1,3.1-0.4,4.6l1,0.1c0.3-1.9,0.5-3.8,0.4-5.7L65.7,1.3z M73.1,8.4c-1.4,0.2-2.8,0.3-4.2,0.4V4.8h-1.1v3.9
				c-0.9,0-2,0-2.7,0l0.2,0.9c1,0,2.4,0,3.7-0.1c1.2-0.1,3-0.2,4.2-0.4L73.1,8.4z M77,6.1V5.2h-2V0h-1.1v12.4h1.1V6.1L77,6.1z
				 M58.8,12.4V7.9h5.1V7H52.7v0.9h5v4.5H58.8z M63.5,4.8c-2.2-0.3-4.6-1.9-4.6-3.6V0.4h-1.1v0.8c0,1.7-2.2,3.3-4.6,3.6l0.5,0.9
				c1.9-0.4,4-1.6,4.6-3c1.1,1.6,2.7,2.7,4.6,3L63.5,4.8z M51.1,12.3v-0.9h-7.3v-1.4h6.9V7.1h-8V8h6.9v1.2h-6.9v3.1L51.1,12.3z
				 M48.3,4.9C47.8,5,47.1,5,46.2,5.1l0.3-2.7l-1.1-0.1l-0.2,2.9c-0.1,0-0.2,0-0.3,0c-0.5,0-1,0.1-1.6,0.1l-0.2-2.9L42,2.4l0.3,2.8
				c-0.6,0-1.2,0-1.7,0l0.2,0.9c1.1,0,2.5-0.1,3.9-0.1s2.8-0.2,3.7-0.3L48.3,4.9z M50.6,0h-1.1v6.5h1.1V0z M47.7,0.8H41v0.9h6.7V0.8
				z M31.7,8.9c-1.9-1-3.2-3-3.3-5.2V2.2h2.8V1.3h-6.9v0.9h2.9v1.4C27.2,5.9,25.9,8,24,9.1l0.7,0.8c1.5-1,2.6-2.4,3.2-4.1
				c0.7,1.6,1.8,2.9,3.2,3.8L31.7,8.9z M33.2,5.4v7h1.1V0h-1.1v4.5h-2.6v0.9L33.2,5.4z M21.9,0h-1.1v12.4h1.1L21.9,0z M19.6,7.9
				c-2,0.4-3.9,0.5-5.9,0.6V1.3h-1.1v8.1h0.5c2.2,0,4.4-0.2,6.6-0.6L19.6,7.9z M4.9,1.4H0v7.7h4.9L4.9,1.4z M10.1,12.4V0H9v5H7.5
				V0.3H6.4v11.5h1.1V5.9H9v6.6L10.1,12.4z M3.9,8.2H1.1V2.3h2.8V8.2z"/>
		</g>
		<rect id="사각형_524" x="1359.8" y="1352.4" class="st4" width="134.6" height="33"/>
		<g id="그룹_5604" transform="translate(1394.94 1362.608)">
			<path id="패스_3634" class="st5" d="M62.9,12.2V7.6h-1.1v1.4h-6.1V7.6h-1.1v4.6H62.9z M64.4,7V6.1h-3.1V4.5h-1.1v1.5h-2.9V4.5
				h-1.1v1.5h-3.1V7L64.4,7z M63.8,3.8c-1.9-0.2-4.5-1.6-4.5-3.4V0.1h-1.1v0.4c0,1.7-2.4,3.1-4.5,3.4l0.5,0.9c2.1-0.4,4-1.7,4.5-2.9
				c0.6,1.2,2.5,2.5,4.6,2.9L63.8,3.8z M61.8,11.4h-6.1V10h6.1V11.4z M50.9,1.4h-8.4v0.9h7.3v1.3c0,0.4,0,0.9-0.1,1.4l-7.6,0.3
				l0.2,0.9l7.3-0.4c-0.1,1.1-0.2,2.1-0.4,3.1l1,0.1c0.4-2,0.5-4,0.6-6.1L50.9,1.4z M52.3,9.7H41.1v0.9h11.2L52.3,9.7z M36.1,3.2
				c0-1.6-1.3-2.7-3.3-2.7s-3.3,1.1-3.3,2.7c0,1.5,1.3,2.6,3.3,2.6S36.1,4.7,36.1,3.2 M39,12.4V0H38v8.5h-2.8v0.9H38v3L39,12.4z
				 M35.1,3.2c0,1.1-1,1.7-2.2,1.7s-2.2-0.6-2.2-1.7c0-1.1,1-1.8,2.2-1.8S35.1,2,35.1,3.2 M33.3,12V7.6c1.4-0.1,2.9-0.2,3.8-0.3
				l-0.1-0.9c-1.2,0.1-2.6,0.2-4.2,0.3c-1.4,0.1-2.7,0.1-4.2,0.1l0.2,0.9c1.1,0,2.2,0,3.4-0.1V12L33.3,12z M22.3,10
				c0-1.5-1.6-2.4-4.2-2.4c-2.6,0-4.2,0.9-4.2,2.4c0,1.5,1.6,2.4,4.2,2.4C20.7,12.4,22.3,11.5,22.3,10 M12.6,1.8h2.9
				c0,0.3,0,0.5,0,0.7c-0.1,1.6-1.6,3.2-3.2,3.8l0.6,0.8C14.3,6.5,15.4,5.4,16,4c0.6,1.2,1.7,2.2,3,2.7l0.6-0.9
				c-1.6-0.5-2.7-1.8-3-3.4c0-0.1,0-0.4,0-0.7h2.8V0.9h-6.8L12.6,1.8z M21.2,10c0,0.9-1.2,1.5-3.1,1.5s-3-0.5-3-1.5
				c0-1,1.2-1.5,3-1.5S21.2,9.1,21.2,10 M24,4.3V3.4h-1.9V0H21v7.6h1.1V4.3L24,4.3z M9.9,6V0.5H8.8v1.8H2.4V0.5H1.4V6H9.9z
				 M6.1,12.4V8.3h5.1V7.4H0v0.9h5v4.1H6.1z M8.8,5.1H2.4V3.2h6.3V5.1z"/>
		</g>
		<rect id="사각형_525" x="1359.8" y="1314.6" class="st4" width="134.6" height="33"/>
		<g id="그룹_5605" transform="translate(1388.967 1324.802)">
			<path id="패스_3635" class="st5" d="M76.3,10.1c0-1.5-1.5-2.4-4.2-2.4S68,8.6,68,10.1s1.5,2.4,4.2,2.4S76.3,11.5,76.3,10.1
				 M66.4,1.9h2.8c0,0.2,0,0.5,0,0.7c-0.3,1.8-1.5,3.3-3.2,3.9l0.6,0.9c1.4-0.6,2.5-1.8,3.2-3.2c0.7,1.3,1.8,2.3,3.1,2.8l0.6-0.9
				c-1.5-0.5-3.1-1.8-3.2-3.5c0-0.1,0-0.4,0-0.7h2.8V1h-6.7L66.4,1.9z M72.2,8.6c1.9,0,3.1,0.5,3.1,1.5s-1.1,1.5-3.1,1.5
				c-1.9,0-3.1-0.5-3.1-1.5S70.3,8.6,72.2,8.6 M75.2,4.1v3.6h1.1V0h-1.1v3.2h-2.5v0.9L75.2,4.1z M53.6,1.3v0.9H59
				c0,1.6-0.1,3.1-0.4,4.6l1,0.1c0.3-1.9,0.5-3.8,0.4-5.7L53.6,1.3z M61,8.4c-1.1,0.2-2.7,0.3-4.2,0.4V4.8h-1.1v3.9
				c-0.9,0-2,0-2.7,0l0.2,0.9c1,0,2.4,0,3.7-0.1c1.2-0.1,3-0.2,4.2-0.4L61,8.4z M64.9,6.1V5.2h-2V0h-1.1v12.4h1.1V6.1H64.9z
				 M46.7,10c0-1.5-1.6-2.4-4.2-2.4s-4.2,0.9-4.2,2.4c0,1.5,1.6,2.4,4.2,2.4S46.7,11.5,46.7,10 M37,1.8h2.9c0,0.3,0,0.5,0,0.7
				c-0.1,1.6-1.6,3.2-3.2,3.8l0.6,0.8c1.4-0.6,2.5-1.7,3.1-3.1c0.6,1.2,1.7,2.2,3,2.7L44,5.9c-1.6-0.5-2.7-1.8-3-3.4
				c0-0.1,0-0.4,0-0.7h2.8V0.9H37L37,1.8z M45.5,10c0,0.9-1.2,1.5-3.1,1.5s-3-0.5-3-1.5c0-1,1.2-1.5,3-1.5S45.5,9.1,45.5,10
				 M48.4,4.3V3.4h-1.9V0h-1.1v7.6h1.1V4.3L48.4,4.3z M34.2,6V0.5h-1.1v1.8h-6.3V0.5h-1.1V6L34.2,6z M30.5,12.4V8.3h5.1V7.4H24.4
				v0.9h5v4.1H30.5z M33.1,5.1h-6.3V3.2h6.3V5.1z M22.2,0h-1.1v7.1h1.1V0z M22.3,7.7h-8v4.5h8V7.7z M21.2,11.3h-5.9V8.6h5.9
				L21.2,11.3z M15.6,0.7c-1.7-0.1-3.1,1.2-3.2,2.8c0,0.1,0,0.1,0,0.2c0.2,1.8,1.7,3.1,3.5,2.9c1.6-0.1,2.8-1.4,2.9-2.9
				c0-1.7-1.4-3-3.1-3C15.7,0.7,15.7,0.7,15.6,0.7 M15.6,1.6c1.1-0.1,2.1,0.8,2.2,1.9c0,0.1,0,0.1,0,0.2c0,1.1-0.8,2-2,2.1
				c-0.1,0-0.1,0-0.2,0c-1.1,0.1-2.1-0.8-2.2-1.9c0-0.1,0-0.1,0-0.2c0-1.1,0.9-2.1,2-2.1C15.5,1.6,15.6,1.6,15.6,1.6 M10.1,0H9v9
				h1.1V0z M7.5,6.2C5.7,5.6,4.4,4,4.3,2.1V0.7H3.2v1.4C3.1,4.1,1.8,5.8,0,6.6l0.7,0.8C2.1,6.8,3.2,5.5,3.8,4c0.6,1.4,1.7,2.4,3.1,3
				L7.5,6.2z M10.4,12v-0.9H3.2V8.2H2.1V12L10.4,12z"/>
		</g>
		<rect id="사각형_526" x="1509.4" y="1352.4" class="st4" width="134.6" height="33"/>
		<g id="그룹_5606" transform="translate(1544.79 1362.608)">
			<path id="패스_3636" class="st5" d="M62.4,12.2V7.6h-1.1v1.4h-6.1V7.6h-1.1v4.6L62.4,12.2z M63.9,7V6.1h-3.1V4.5h-1.1v1.5h-2.9
				V4.5h-1.1v1.5h-3.1V7L63.9,7z M63.3,3.8c-1.9-0.2-4.5-1.6-4.5-3.4V0.1h-1.1v0.4c0,1.7-2.4,3.1-4.5,3.4l0.5,0.9
				c2.1-0.4,4-1.7,4.5-2.9c0.6,1.2,2.5,2.5,4.6,2.9L63.3,3.8z M61.3,11.3h-6.1V10h6.1V11.3z M50.4,1.4H42v0.9h7.3v1.3
				c0,0.4,0,0.9-0.1,1.4l-7.6,0.3l0.2,0.9l7.3-0.4c-0.1,1.1-0.2,2.1-0.4,3.1l1,0.1c0.4-2,0.5-4,0.6-6.1L50.4,1.4z M51.8,9.7H40.6
				v0.9h11.2L51.8,9.7z M35.6,3.2c0-1.6-1.3-2.7-3.3-2.7s-3.3,1.1-3.3,2.7c0,1.5,1.3,2.6,3.3,2.6S35.6,4.7,35.6,3.2 M38.5,12.4V0
				h-1.1v8.5h-2.8v0.9h2.8v3L38.5,12.4z M34.5,3.2c0,1.1-1,1.7-2.2,1.7s-2.2-0.6-2.2-1.7c0-1.1,1-1.8,2.2-1.8S34.5,2,34.5,3.2
				 M32.8,12V7.6c1.4-0.1,2.9-0.2,3.8-0.3l-0.1-0.9c-1.2,0.1-2.6,0.2-4.2,0.3c-1.4,0.1-2.7,0.1-4.2,0.1l0.2,0.9c1.1,0,2.2,0,3.4-0.1
				V12L32.8,12z M19.3,2.9c0-1.4-1.4-2.3-3.3-2.3s-3.3,0.9-3.3,2.3c0,1.4,1.4,2.3,3.3,2.3S19.3,4.3,19.3,2.9 M22.2,9.5V0h-1.1v7.3
				h-2.6v0.9h2.6v1.3H22.2z M22.5,12.1v-0.9h-7.8V8.5h-1.1v3.6L22.5,12.1z M18.2,2.9c0,0.8-0.9,1.4-2.2,1.4s-2.2-0.5-2.2-1.4
				s0.9-1.4,2.2-1.4S18.2,2,18.2,2.9 M16.6,9V6.7c1.3-0.1,2.7-0.2,3.5-0.3L20,5.6c-1.2,0.1-2.5,0.3-3.9,0.3C14.7,6,13.2,6,11.9,6
				l0.2,0.9c1,0,2.3,0,3.4-0.1V9H16.6z M9.8,0H8.8v7.1h1.1V0z M9.9,7.7h-8v4.5h8V7.7z M8.8,11.3H2.9V8.6h5.9V11.3z M3.2,0.7
				C1.5,0.6,0.1,1.8,0,3.5c0,0.1,0,0.1,0,0.2c0.2,1.8,1.7,3.1,3.5,2.9c1.6-0.1,2.8-1.4,2.9-2.9c0-1.7-1.4-3-3.1-3
				C3.3,0.7,3.3,0.7,3.2,0.7 M3.2,1.6c1.1-0.1,2.1,0.8,2.2,1.9c0,0.1,0,0.1,0,0.2c0,1.1-0.8,2-2,2.1c-0.1,0-0.1,0-0.2,0
				C2.1,5.8,1.1,5,1.1,3.8c0-0.1,0-0.1,0-0.2c0-1.1,0.9-2.1,2-2.1C3.1,1.6,3.2,1.6,3.2,1.6"/>
		</g>
		<rect id="사각형_527" x="1509.4" y="1314.6" class="st4" width="134.6" height="33"/>
		<g id="그룹_5607" transform="translate(1538.742 1324.802)">
			<path id="패스_3637" class="st5" d="M76,10.1c0-1.5-1.5-2.4-4.2-2.4s-4.2,0.9-4.2,2.4s1.5,2.4,4.2,2.4S76,11.5,76,10.1
				 M66.1,1.9h2.8c0,0.2,0,0.5,0,0.7c-0.3,1.8-1.5,3.3-3.2,3.9l0.6,0.9c1.4-0.6,2.5-1.8,3.2-3.2c0.7,1.3,1.8,2.3,3.1,2.8l0.6-0.9
				c-1.5-0.5-3.1-1.8-3.2-3.5c0-0.1,0-0.4,0-0.7h2.8V1h-6.7L66.1,1.9z M71.8,8.6c1.9,0,3.1,0.5,3.1,1.5s-1.1,1.5-3.1,1.5
				c-1.9,0-3.1-0.5-3.1-1.5S69.9,8.6,71.8,8.6 M74.8,4.1v3.6h1.1V0h-1.1v3.2h-2.5v0.9L74.8,4.1z M53.2,1.3v0.9h5.4
				c0,1.6-0.1,3.1-0.4,4.6l1,0.1c0.3-1.9,0.5-3.8,0.4-5.7L53.2,1.3z M60.6,8.4c-1.1,0.2-2.7,0.3-4.2,0.4V4.8h-1.1v3.9
				c-0.9,0-2,0-2.7,0l0.2,0.9c1,0,2.4,0,3.7-0.1c1.2-0.1,3-0.2,4.2-0.4L60.6,8.4z M64.5,6.1V5.2h-2V0h-1.1v12.4h1.1V6.1H64.5z
				 M43.8,2.9c0-1.4-1.4-2.3-3.3-2.3s-3.3,0.9-3.3,2.3c0,1.4,1.4,2.3,3.3,2.3S43.8,4.3,43.8,2.9 M46.8,9.6V0h-1.1v7.3h-2.6v0.9h2.6
				v1.3L46.8,9.6z M47,12.1v-0.9h-7.8V8.5h-1.1v3.6H47z M42.7,2.9c0,0.8-0.9,1.4-2.2,1.4s-2.2-0.5-2.2-1.4s0.9-1.4,2.2-1.4
				S42.7,2,42.7,2.9 M41.1,9V6.7c1.3-0.1,2.7-0.2,3.5-0.3l-0.1-0.8c-1.2,0.1-2.5,0.3-3.9,0.3C39.2,6,37.7,6,36.4,6l0.2,0.9
				c1,0,2.3,0,3.4-0.1V9L41.1,9z M34.4,0h-1.1v7.1h1.1V0z M34.4,7.7h-8v4.5h8V7.7z M33.3,11.3h-5.9V8.6h5.9L33.3,11.3z M27.8,0.7
				c-1.7-0.1-3.1,1.2-3.2,2.8c0,0.1,0,0.1,0,0.2c0.2,1.8,1.7,3.1,3.5,2.9c1.6-0.1,2.8-1.4,2.9-3c0-1.7-1.4-3-3.1-3
				C27.9,0.7,27.8,0.7,27.8,0.7 M27.8,1.6c1.1-0.1,2.1,0.8,2.2,1.9c0,0.1,0,0.1,0,0.2c0,1.1-0.8,2-2,2.1c-0.1,0-0.1,0-0.2,0
				c-1.1,0.1-2.1-0.8-2.2-1.9c0-0.1,0-0.1,0-0.2c0-1.1,0.9-2.1,2-2.1C27.7,1.6,27.7,1.6,27.8,1.6 M22.3,0h-1.1v7.1h1.1V0z M22.3,7.7
				h-8v4.5h8L22.3,7.7z M21.2,11.3h-5.9V8.6h5.9V11.3z M15.6,0.7c-1.7-0.1-3.1,1.2-3.2,2.8c0,0.1,0,0.1,0,0.2
				c0.2,1.8,1.7,3.1,3.5,2.9c1.6-0.1,2.8-1.4,2.9-3c0-1.7-1.4-3-3.1-3C15.7,0.7,15.7,0.7,15.6,0.7 M15.6,1.6
				c1.1-0.1,2.1,0.8,2.2,1.9c0,0.1,0,0.1,0,0.2c0,1.1-0.8,2-2,2.1c-0.1,0-0.1,0-0.2,0c-1.1,0.1-2.1-0.8-2.2-1.9c0-0.1,0-0.1,0-0.2
				c0-1.1,0.9-2.1,2-2.1C15.5,1.6,15.6,1.6,15.6,1.6 M10.1,0H9v9h1.1V0z M7.5,6.2C5.7,5.6,4.4,4,4.3,2.1V0.7H3.2v1.4
				C3.1,4.1,1.8,5.8,0,6.6l0.7,0.8C2.1,6.8,3.2,5.5,3.8,4c0.6,1.4,1.7,2.4,3.1,3L7.5,6.2z M10.4,12v-0.9H3.2V8.2H2.1V12L10.4,12z"/>
		</g>
		<rect id="사각형_528" x="911.3" y="1389.9" class="st4" width="433.4" height="33.2"/>
		<g id="그룹_5608" transform="translate(1071.588 1400.286)">
			<path id="패스_3638" class="st5" d="M112.8,10.1c0-1.5-1.5-2.4-4.2-2.4s-4.2,0.9-4.2,2.4s1.5,2.4,4.2,2.4
				S112.8,11.5,112.8,10.1 M102.9,1.9h2.8c0,0.2,0,0.5,0,0.7c-0.2,1.8-1.5,3.3-3.2,3.9l0.6,0.9c1.4-0.6,2.5-1.8,3.2-3.2
				c0.7,1.3,1.8,2.3,3.1,2.8l0.6-0.9c-1.5-0.5-3.1-1.8-3.2-3.5c0-0.1,0-0.4,0-0.7h2.8V1h-6.7L102.9,1.9z M108.6,8.6
				c1.9,0,3.1,0.5,3.1,1.5s-1.1,1.5-3.1,1.5c-1.9,0-3.1-0.5-3.1-1.5S106.7,8.6,108.6,8.6 M111.6,4.1v3.6h1.1V0h-1.1v3.2h-2.5v0.9
				L111.6,4.1z M90.1,1.3v0.9h5.4c0,1.6-0.1,3.1-0.4,4.6l1,0.1c0.3-1.9,0.5-3.8,0.4-5.7L90.1,1.3z M97.4,8.4
				c-1.1,0.2-2.7,0.3-4.2,0.4V4.8h-1.1v3.9c-0.9,0-2,0-2.7,0l0.2,0.9c1,0,2.4,0,3.7-0.1c1.2-0.1,3-0.2,4.2-0.4L97.4,8.4z M101.3,6.1
				V5.2h-2V0h-1.1v12.4h1.1V6.1L101.3,6.1z M87.2,0.7h-8.4v4.4h8.4V0.7z M86.1,4.2h-6.2V1.6h6.2V4.2z M83.5,9.8V7.3h5V6.4H77.3v0.9
				h5.1v2.4H83.5z M87.3,12v-0.9h-7.5V8.5h-1.1V12L87.3,12z M75.2,0h-1.1v6.6h1.1V0z M75.2,12.2V7.3h-1.1v1.6h-5.9V7.3h-1.1v4.9
				H75.2z M74.2,11.4h-5.9V9.8h5.8L74.2,11.4z M68.6,0.6c-1.6-0.1-3.1,1.1-3.2,2.8c0,0.1,0,0.1,0,0.2c-0.2,1.8,1.1,3.3,2.9,3.5
				s3.3-1.1,3.5-2.9s-1.1-3.3-2.9-3.5C68.8,0.6,68.7,0.6,68.6,0.6 M68.6,1.5c1.1-0.1,2,0.7,2.1,1.8c0.1,1.1-0.7,2-1.8,2.1
				c-0.1,0-0.2,0-0.3,0c-1.1,0.1-2-0.7-2.1-1.8c-0.1-1.1,0.7-2,1.8-2.1C68.4,1.5,68.5,1.5,68.6,1.5 M56.2,8.7
				c-1.9-1.1-3.2-3-3.2-5.2V2.2h2.9V1.3h-6.9v0.9h2.9v1.3c-0.1,2.3-1.3,4.3-3.3,5.5l0.7,0.8c1.5-1,2.6-2.4,3.1-4.1
				c0.6,1.6,1.7,2.9,3.1,3.8L56.2,8.7z M60.3,5.9V5h-2V0h-1.1v12.4h1.1V5.9L60.3,5.9z M48.2,5.9V5h-2V0h-1.1v12.4h1.1V5.9L48.2,5.9z
				 M44,8.6c-1.9-1.1-3.2-3.1-3.3-5.3V1.1h-1.1v2.2c-0.1,2.3-1.3,4.3-3.3,5.5L37,9.7c1.5-1,2.6-2.5,3.1-4.1c0.6,1.6,1.7,2.9,3.2,3.9
				L44,8.6z M34.4,0h-1.1v6.6h1.1L34.4,0z M34.4,12.2V7.3h-1.1v1.6h-5.8V7.3h-1.1v4.9H34.4z M33.3,11.4h-5.8V9.8h5.8V11.4z
				 M27.8,0.6c-1.6-0.1-3.1,1.1-3.2,2.8c0,0.1,0,0.1,0,0.2c-0.2,1.8,1.1,3.3,2.9,3.5s3.3-1.1,3.5-2.9c0.2-1.8-1.1-3.3-2.9-3.5
				C28,0.6,27.9,0.6,27.8,0.6 M27.8,1.5c1.1-0.1,2,0.7,2.1,1.8c0.1,1.1-0.7,2-1.8,2.1c-0.1,0-0.2,0-0.3,0c-1.1,0.1-2-0.7-2.1-1.8
				c-0.1-1.1,0.7-2,1.8-2.1C27.6,1.5,27.7,1.5,27.8,1.5 M13.6,0.9v0.9h7.3c0,1.5-0.2,3-0.5,4.5h-8.1v0.9h2.9v5.2h1.1V7.2h3.3v5.2
				h1.1V7.2h2.9V6.3h-2C21.8,4.5,22,2.7,22,0.9L13.6,0.9z M10.1,0H9.1v9h1.1V0z M7.5,6.2c-1.8-0.6-3-2.2-3.1-4.1V0.7H3.2v1.4
				C3.1,4.1,1.8,5.8,0,6.6l0.7,0.8C2.1,6.7,3.2,5.5,3.8,4c0.6,1.4,1.7,2.4,3.1,3L7.5,6.2z M10.4,12v-0.9H3.2V8.2H2.1V12L10.4,12z"/>
		</g>
		<rect id="사각형_529" x="911.1" y="1273.2" class="st7" width="134.6" height="31.9"/>
		<g id="그룹_5609" transform="translate(945.847 1282.816)">
			<path id="패스_3639" class="st1" d="M59.8,2.8c0,0.5-0.6,1.1-1.5,1.1c-1,0-1.5-0.5-1.5-1.1s0.6-1.1,1.5-1.1
				C59.2,1.6,59.8,2.2,59.8,2.8 M59.5,9.2V6.8c1-0.1,1.9-0.2,2.8-0.3l-0.1-1.2c-2.7,0.3-5.4,0.4-8.1,0.4L54.4,7c0.9,0,2.2,0,3.5-0.1
				v2.2L59.5,9.2z M65.1,12.3V11h-7.6V8.6h-1.7v3.7H65.1z M60.8,8.5h2.4v1.3h1.7V0h-1.7v7.3h-2.4V8.5z M61.4,2.8
				c0-1.4-1.3-2.4-3.2-2.4S55,1.4,55,2.7c0,1.4,1.4,2.3,3.2,2.3S61.4,4.1,61.4,2.8 M43.2,0.7V2h6.9c0,1.4-0.1,2.7-0.3,4.1h-8v1.3
				h4.9v5.3h1.7V7.4h4.9V6.1h-1.9c0.3-1.8,0.4-3.6,0.4-5.4L43.2,0.7z M36.4,6.2h1.8v3h1.7V0h-1.7v1.6h-1.8l0,1.4h1.8v1.7h-1.8
				L36.4,6.2z M40.1,12.3V11h-7.1V8.3h-1.7v4L40.1,12.3z M29.4,4.1c-0.1,1.8,1.3,3.4,3.2,3.5c1.8,0.1,3.4-1.3,3.5-3.2
				c0.1-1.8-1.3-3.4-3.2-3.5c-0.1,0-0.1,0-0.2,0c-1.7-0.1-3.2,1.1-3.3,2.8C29.4,3.9,29.4,4,29.4,4.1 M31.1,4.1
				c0.1-0.9,0.9-1.6,1.8-1.5s1.6,0.9,1.5,1.8c-0.1,0.9-0.8,1.5-1.6,1.5c-0.9,0-1.6-0.7-1.6-1.6C31.1,4.2,31.1,4.1,31.1,4.1 M25.8,7
				h1.7V5.3h-1.7V7z M21.3,7.1H23V0h-1.7V7.1z M23,7.8h-8.3v4.7H23V7.8z M21.3,11.2h-5V9.1h5V11.2z M13,3.7c0.1,1.7,1.5,3,3.1,3
				c0.1,0,0.1,0,0.2,0c1.9,0,3.4-1.1,3.4-2.9c-0.2-1.8-1.8-3.2-3.6-3C14.4,0.8,13.1,2.1,13,3.7 M14.6,3.7c0-0.9,0.7-1.7,1.6-1.7
				c0,0,0.1,0,0.1,0C17.2,2,18,2.7,18.1,3.6c0,0.1,0,0.1,0,0.2c0,0.9-0.7,1.7-1.7,1.7c0,0-0.1,0-0.1,0c-0.9,0.1-1.7-0.6-1.7-1.5
				C14.6,3.8,14.6,3.8,14.6,3.7 M1.6,1.8h3.3V0.5H1.6V1.8z M2.1,8.3v1.3h7.1v3h1.7V8.3L2.1,8.3z M0.5,3.8h2C2.3,5.1,1.3,6.2,0,6.6
				l0.9,1.2C2,7.4,2.9,6.6,3.3,5.5c0.5,0.9,1.2,1.6,2.2,2C5.8,7.1,6,6.7,6.3,6.3C5.2,5.9,4.3,5,4.1,3.8H6V2.5H0.5V3.8z M10.9,7.7V0
				H9.3v3.3h-1V0.2H6.7v7.4h1.5v-3h1v3.1L10.9,7.7z"/>
		</g>
		<rect id="사각형_530" x="1060.7" y="1273.2" class="st7" width="134.6" height="31.9"/>
		<g id="그룹_5610" transform="translate(1070.574 1282.818)">
			<path id="패스_3640" class="st1" d="M109.5,2.8c0,0.5-0.6,1.1-1.5,1.1c-1,0-1.5-0.5-1.5-1.1s0.6-1.1,1.5-1.1
				C108.9,1.6,109.5,2.2,109.5,2.8 M109.2,9.2V6.8c1-0.1,1.9-0.2,2.8-0.3l-0.1-1.2c-2.7,0.3-5.4,0.4-8.1,0.4l0.2,1.3
				c0.9,0,2.2,0,3.5-0.1v2.3H109.2z M114.8,12.3V11h-7.6V8.6h-1.7v3.7H114.8z M110.5,8.5h2.4v1.3h1.7V0h-1.7v7.3h-2.4V8.5z
				 M111.1,2.8c0-1.4-1.3-2.4-3.2-2.4s-3.2,1-3.2,2.3c0,1.4,1.4,2.3,3.2,2.3S111.1,4.1,111.1,2.8 M92.9,0.7V2h6.9
				c0,1.4-0.1,2.7-0.3,4.1h-8v1.3h4.9v5.3H98V7.4h4.9V6.1h-1.9c0.3-1.8,0.4-3.6,0.4-5.4L92.9,0.7z M86.1,6.1h1.8v3h1.7V0h-1.7v1.6
				h-1.8l0,1.4h1.8v1.7h-1.8L86.1,6.1z M89.8,12.3V11h-7.1V8.3h-1.7v4L89.8,12.3z M79.1,4.1c-0.1,1.8,1.3,3.4,3.2,3.5
				c1.8,0.1,3.4-1.3,3.5-3.2c0.1-1.8-1.3-3.4-3.2-3.5c-0.1,0-0.1,0-0.2,0c-1.7-0.1-3.2,1.1-3.3,2.8C79.1,3.9,79.1,4,79.1,4.1
				 M80.8,4.1c0.1-0.9,0.9-1.6,1.8-1.5s1.6,0.9,1.5,1.8c-0.1,0.9-0.8,1.5-1.6,1.5c-0.9,0-1.6-0.7-1.6-1.6
				C80.8,4.2,80.8,4.1,80.8,4.1 M75.5,7.1h1.7V0h-1.7V7.1z M77.1,7.8h-8.3v4.7h8.3V7.8z M75.5,11.2h-5V9.1h5V11.2z M67.1,3.7
				c0.1,1.7,1.5,3,3.1,2.9c0.1,0,0.1,0,0.2,0c1.9,0,3.4-1.1,3.4-2.9c-0.2-1.8-1.8-3.2-3.6-3C68.6,0.8,67.3,2.1,67.1,3.7 M68.7,3.7
				c0-0.9,0.7-1.7,1.6-1.7c0,0,0.1,0,0.1,0c0.9-0.1,1.7,0.6,1.8,1.5c0,0.1,0,0.1,0,0.2c0,0.9-0.7,1.7-1.7,1.7c0,0-0.1,0-0.1,0
				c-0.9,0.1-1.7-0.6-1.7-1.5C68.7,3.8,68.7,3.8,68.7,3.7 M65,12.3V11h-7V8.3h-1.7v4L65,12.3z M64.7,9.2V0h-1.7v2.9h-2.2v1.3h2.2
				v4.9H64.7z M61.8,6.1c-1.7-0.6-2.9-2.2-2.9-4V0.7h-1.7v1.5c0,1.9-1.2,3.6-3,4.2l1,1.3c1.4-0.5,2.4-1.6,2.9-3
				c0.6,1.2,1.6,2.1,2.8,2.7L61.8,6.1z M50.7,7h1.7V5.3h-1.7V7z M46.2,7.1h1.7V0h-1.7V7.1z M47.9,7.8h-8.3v4.7h8.3V7.8z M46.2,11.2
				h-5V9.1h5V11.2z M37.9,3.7c0.1,1.7,1.5,3,3.1,2.9c0.1,0,0.1,0,0.2,0c1.9,0,3.4-1.1,3.4-2.9c-0.2-1.8-1.8-3.2-3.6-3
				C39.3,0.8,38,2.1,37.9,3.7 M39.5,3.7c0-0.9,0.7-1.7,1.6-1.7c0,0,0.1,0,0.1,0C42.1,2,42.9,2.7,43,3.6c0,0.1,0,0.1,0,0.2
				c0,0.9-0.7,1.7-1.7,1.7c0,0-0.1,0-0.1,0c-0.9,0.1-1.7-0.6-1.7-1.5C39.5,3.8,39.5,3.8,39.5,3.7 M26.5,1.8h3.3V0.5h-3.3V1.8z
				 M27,8.3v1.3h7.1v3h1.7V8.3L27,8.3z M25.3,3.8h2c-0.2,1.3-1.1,2.5-2.4,2.9l0.9,1.2c1.1-0.4,1.9-1.3,2.4-2.3
				c0.5,0.9,1.2,1.6,2.2,2c0.3-0.4,0.5-0.8,0.8-1.2C30,5.9,29.2,5,29,3.8h1.9V2.5h-5.6L25.3,3.8z M35.8,7.7V0h-1.6v3.3h-1V0.2h-1.5
				v7.4h1.5v-3h1v3.1L35.8,7.7z M21.4,7.1H23V0h-1.7L21.4,7.1z M23,7.8h-8.3v4.7H23V7.8z M21.4,11.2h-5V9.1h5V11.2z M13,3.7
				c0.1,1.7,1.5,3,3.1,2.9c0.1,0,0.1,0,0.2,0c1.9,0,3.4-1.1,3.4-2.9c-0.2-1.8-1.8-3.2-3.6-3C14.5,0.8,13.2,2.1,13,3.7 M14.6,3.7
				c0-0.9,0.7-1.7,1.6-1.7c0,0,0.1,0,0.1,0c0.9-0.1,1.7,0.6,1.8,1.5c0,0.1,0,0.1,0,0.2c0,0.9-0.7,1.7-1.7,1.7c0,0-0.1,0-0.1,0
				c-0.9,0.1-1.7-0.6-1.7-1.5C14.6,3.8,14.6,3.8,14.6,3.7 M10.9,12.3V11H4V8.3H2.3v4L10.9,12.3z M10.6,9.2V0H9v2.9H6.8v1.3H9v4.9
				H10.6z M7.7,6.1C6,5.5,4.8,3.9,4.8,2.1V0.7H3v1.5c0,1.9-1.2,3.6-3,4.2l1,1.3c1.4-0.5,2.4-1.6,2.9-3c0.6,1.2,1.6,2.1,2.8,2.7
				L7.7,6.1z"/>
		</g>
		<rect id="사각형_531" x="1210.3" y="1273.2" class="st7" width="134.6" height="31.9"/>
		<g id="그룹_5611" transform="translate(1226.645 1282.818)">
			<path id="패스_3641" class="st1" d="M96.5,2.8c0,0.5-0.6,1.1-1.5,1.1c-1,0-1.5-0.5-1.5-1.1S94,1.6,95,1.6
				C95.9,1.6,96.5,2.2,96.5,2.8 M96.3,9.2V6.8c1-0.1,1.9-0.2,2.8-0.3L99,5.3c-2.7,0.3-5.4,0.4-8.1,0.4L91.1,7c0.9,0,2.2,0,3.5-0.1
				v2.2L96.3,9.2z M101.8,12.3V11h-7.6V8.6h-1.7v3.7H101.8z M97.6,8.5h2.4v1.3h1.7V0H100v7.3h-2.4V8.5z M98.1,2.8
				c0-1.4-1.3-2.4-3.2-2.4s-3.2,1-3.2,2.3c0,1.4,1.4,2.3,3.2,2.3S98.1,4.1,98.1,2.8 M79.9,0.7V2h6.9c0,1.4-0.1,2.7-0.3,4.1h-8v1.3
				h4.9v5.3H85V7.4H90V6.1h-1.9c0.3-1.8,0.4-3.6,0.4-5.4L79.9,0.7z M73.1,6.2h1.8v3h1.7V0h-1.7v1.6h-1.8l0,1.4h1.8v1.7h-1.8
				L73.1,6.2z M76.8,12.3V11h-7.1V8.3h-1.7v4L76.8,12.3z M66.2,4.1c-0.1,1.8,1.3,3.4,3.2,3.5c1.8,0.1,3.4-1.3,3.5-3.2
				c0.1-1.8-1.3-3.4-3.2-3.5c-0.1,0-0.1,0-0.2,0c-1.7-0.1-3.2,1.1-3.3,2.8C66.2,3.9,66.2,4,66.2,4.1 M67.9,4.1
				c0.1-0.9,0.9-1.6,1.8-1.5s1.6,0.9,1.5,1.8c-0.1,0.9-0.8,1.5-1.6,1.5c-0.9,0-1.6-0.7-1.7-1.6C67.9,4.2,67.9,4.1,67.9,4.1 M55.6,8
				v1.3h6.9v3.4h1.7V8H55.6z M64.2,7.3V0h-1.7v2.7h-2.1V4h2.1v3.4L64.2,7.3z M61.3,5.5c-1.7-0.5-2.9-2.1-2.9-3.8V0.5h-1.7v1.2
				c0,1.9-1.3,3.5-3.1,4.1l1,1.3c1.4-0.5,2.4-1.6,3-2.9c0.6,1.2,1.6,2.1,2.8,2.6L61.3,5.5z M49,9c-1.9-0.8-3.1-2.7-3.1-4.7h2.5V3
				h-6.7v1.3h2.5c0,2.2-1.2,4.1-3.2,5l1,1.2c1.4-0.7,2.5-2,3-3.5c0.6,1.4,1.7,2.5,3.1,3.2L49,9z M51.2,0h-1.7v12.7h1.7V6.3H53V4.9
				h-1.8V0z M43.1,2.1h3.8V0.8h-3.8V2.1z M37.7,7h1.7V5.3h-1.7V7z M32.2,8.8c-2-1.1-3.2-3.2-3.1-5.5V2.7h2.5V1.3h-6.7v1.4h2.5v0.7
				c0.2,2.4-1.1,4.6-3.2,5.8l1,1.2c1.5-0.8,2.6-2.1,3.1-3.7c0.6,1.4,1.7,2.7,3,3.4L32.2,8.8z M34.9,12.7V0h-1.7v4.4h-2.1v1.4h2.1
				v6.9L34.9,12.7z M22.5,0h-1.6v12.7h1.6V0z M19.5,7.6c-1.7,0.3-3.4,0.5-5.2,0.5V1.3h-1.6v8.2h1.2c2,0,3.9-0.2,5.9-0.6L19.5,7.6z
				 M5.1,1.5H0v7.8h5.1V1.5z M10.4,12.7V0H8.8v5h-1V0.2H6.2v11.8h1.6V6.3h1v6.3L10.4,12.7z M3.6,8.1h-2V2.8h2V8.1z"/>
		</g>
		<rect id="사각형_532" x="1359.8" y="1273.2" class="st7" width="134.6" height="31.9"/>
		<g id="그룹_5612" transform="translate(1382.24 1282.818)">
			<path id="패스_3642" class="st1" d="M84.5,2.8c0,0.5-0.6,1.1-1.5,1.1c-1,0-1.5-0.5-1.5-1.1s0.6-1.1,1.5-1.1
				C83.9,1.6,84.5,2.2,84.5,2.8 M84.2,9.2V6.8c1-0.1,1.9-0.2,2.8-0.3l-0.1-1.2c-2.7,0.3-5.4,0.4-8.1,0.4L79.1,7c0.9,0,2.2,0,3.5-0.1
				v2.2L84.2,9.2z M89.8,12.3V11h-7.6V8.6h-1.7v3.7H89.8z M85.5,8.5h2.4v1.3h1.7V0h-1.7v7.3h-2.4V8.5z M86.1,2.8
				c0-1.4-1.3-2.4-3.2-2.4s-3.2,1-3.2,2.3c0,1.4,1.4,2.3,3.2,2.3S86.1,4.1,86.1,2.8 M67.9,0.7V2h6.9c0,1.4-0.1,2.7-0.3,4.1h-8v1.3
				h4.9v5.3H73V7.4h4.9V6.1h-1.9c0.3-1.8,0.4-3.6,0.4-5.4L67.9,0.7z M61.1,6.2h1.8v3h1.7V0h-1.7v1.6h-1.8l0,1.4h1.8v1.7h-1.8
				L61.1,6.2z M64.8,12.3V11h-7.1V8.3h-1.7v4L64.8,12.3z M54.1,4.1c-0.1,1.8,1.3,3.4,3.2,3.5c1.8,0.1,3.4-1.3,3.5-3.2
				c0.1-1.8-1.3-3.4-3.2-3.5c-0.1,0-0.1,0-0.2,0c-1.7-0.1-3.2,1.1-3.3,2.8C54.1,3.9,54.1,4,54.1,4.1 M55.8,4.1
				c0.1-0.9,0.9-1.6,1.8-1.5s1.6,0.9,1.5,1.8c-0.1,0.9-0.8,1.5-1.6,1.5c-0.9,0-1.6-0.7-1.6-1.6C55.8,4.2,55.8,4.1,55.8,4.1 M43.6,8
				v1.3h6.9v3.4h1.7V8H43.6z M52.1,7.4V0h-1.7v2.7h-2.1V4h2.1v3.4L52.1,7.4z M49.3,5.5c-1.7-0.5-2.9-2.1-2.9-3.8V0.5h-1.7v1.2
				c0,1.9-1.3,3.5-3.1,4.1l1,1.3c1.4-0.5,2.4-1.6,3-2.9c0.6,1.2,1.6,2.1,2.8,2.6L49.3,5.5z M35.8,12.7V8.2h4.9V6.9H29.3v1.3h4.8v4.5
				H35.8z M40.2,4.5c-2-0.2-4.4-1.6-4.4-3.5V0.3h-1.8v0.6c0,1.9-2.1,3.3-4.3,3.5l0.7,1.4c1.9-0.3,3.9-1.5,4.5-2.9
				c0.6,1.4,2.6,2.6,4.5,2.9L40.2,4.5z M25.7,7h1.7V5.3h-1.7V7z M22.5,10.1c0-1.6-1.6-2.5-4.4-2.5s-4.4,1-4.4,2.5s1.6,2.5,4.4,2.5
				S22.5,11.7,22.5,10.1 M12.6,2.2h2.5C15,4,13.8,5.5,12.1,6l1,1.3c1.3-0.5,2.4-1.5,2.9-2.8c0.6,1.1,1.6,2,2.7,2.5l0.9-1.3
				c-1.5-0.5-2.6-1.8-2.8-3.4h2.4V0.9h-6.7L12.6,2.2z M24.1,4.4V3h-1.8V0h-1.7v7.4h1.7v-3L24.1,4.4z M18.1,8.9
				c1.8,0,2.8,0.4,2.8,1.2s-1,1.2-2.8,1.2c-1.7,0-2.7-0.5-2.7-1.2S16.3,8.9,18.1,8.9 M10.1,5.9V0.6H8.4V2H3V0.6H1.4v5.3L10.1,5.9z
				 M6.5,12.7V8.5h4.9V7.2H0v1.3h4.9v4.2L6.5,12.7z M8.4,4.6H3V3.3h5.4L8.4,4.6z"/>
		</g>
		<rect id="사각형_533" x="1509.4" y="1273.2" class="st7" width="134.6" height="31.9"/>
		<g id="그룹_5613" transform="translate(1565.3 1282.816)">
			<path id="패스_3643" class="st1" d="M17.5,2.8c0,0.5-0.6,1.1-1.5,1.1c-1,0-1.5-0.5-1.5-1.1S15,1.6,16,1.6
				C16.9,1.6,17.5,2.2,17.5,2.8 M17.3,9.2V6.8c1-0.1,1.9-0.2,2.8-0.3L20,5.3c-2.7,0.3-5.4,0.4-8.1,0.4L12.1,7c0.9,0,2.2,0,3.5-0.1
				v2.3L17.3,9.2z M22.8,12.3V11h-7.6V8.6h-1.7v3.7H22.8z M18.6,8.5H21v1.3h1.7V0H21v7.3h-2.4V8.5z M19.2,2.8c0-1.4-1.3-2.4-3.2-2.4
				s-3.2,1-3.2,2.3c0,1.4,1.4,2.3,3.2,2.3S19.2,4.1,19.2,2.8 M8.3,7.1H10V0H8.3V7.1z M10,7.8H1.7v4.7H10V7.8z M8.3,11.2h-5V9.1h5
				V11.2z M0,3.7c0.1,1.7,1.5,3,3.1,2.9c0.1,0,0.1,0,0.2,0c1.9,0,3.4-1.1,3.4-2.9C6.5,1.9,4.9,0.5,3,0.7C1.4,0.8,0.1,2.1,0,3.7
				 M1.6,3.7c0-0.9,0.7-1.7,1.6-1.7c0,0,0.1,0,0.1,0C4.2,2,5,2.7,5.1,3.6c0,0.1,0,0.1,0,0.2c0,0.9-0.7,1.7-1.7,1.7c0,0-0.1,0-0.1,0
				C2.4,5.5,1.7,4.8,1.6,3.9C1.6,3.8,1.6,3.8,1.6,3.7"/>
		</g>
		<rect id="사각형_534" x="1509.8" y="1469.9" class="st4" width="134.3" height="33.2"/>
		<g id="그룹_5614" transform="translate(1520.926 1480.2)">
			<path id="패스_3644" class="st5" d="M109.5,12.3c1.6-1.5,2.4-3.6,2.4-5.8V6.2c0-2.2-0.9-4.3-2.4-5.8h-1
				c1.4,1.6,2.2,3.6,2.3,5.8v0.3c0,2.1-0.9,4.1-2.3,5.7L109.5,12.3z M100.4,0.9c-1.7-0.2-3.2,1.1-3.4,2.8c0,0.1,0,0.1,0,0.2
				c0,1.6,1.3,2.9,2.8,2.9v2c-1.3,0-2.5,0.1-3.5,0.1l0.2,0.9c0.8,0,2.7,0,4-0.1c1.5-0.1,3.2-0.2,4.2-0.3l-0.1-0.9
				c-0.8,0.1-2.3,0.2-3.7,0.3v-2c1.6-0.1,2.8-1.4,2.8-2.9c0-1.7-1.4-3-3.1-3C100.6,0.8,100.5,0.9,100.4,0.9 M100.4,1.8
				c1.1,0.1,2,1.1,1.9,2.3c-0.1,1.1-1.1,2-2.3,1.9c-1.1-0.1-1.9-1-1.9-2.1c0-1.1,0.9-2.1,2.1-2.1C100.2,1.8,100.3,1.8,100.4,1.8
				 M106.6,0h-1.1v12.4h1.1V0z M94.4,12.4V0h-1.1v5.1h-1.5V0.3h-1.1v11.5h1.1V6h1.5v6.4L94.4,12.4z M89.9,7.1
				c-0.1-1.5-1.4-2.6-2.9-2.5c-1.3,0.1-2.4,1.2-2.5,2.5c0,1.4,1.2,2.5,2.5,2.5c0.1,0,0.1,0,0.2,0c1.4,0.1,2.6-0.8,2.7-2.2
				C89.9,7.3,89.9,7.2,89.9,7.1 M88.9,7.1c0,0.9-0.7,1.6-1.5,1.6c0,0-0.1,0-0.1,0c-0.9-0.1-1.5-0.8-1.5-1.7c0.1-0.9,0.8-1.5,1.7-1.5
				C88.2,5.6,88.8,6.3,88.9,7.1 M90.1,3h-6.2v0.9h6.2V3z M88.8,0.9h-3.4v0.9h3.4V0.9z M78.5,12.3h1l3.3-11.8h-1L78.5,12.3z
				 M76.8,12.4V0h-1.1v4.9h-1.6V0.3h-1v11.5h1V5.8h1.6v6.6L76.8,12.4z M72.2,7.8c-1.4,0.3-2.8,0.4-4.3,0.4V1.4h-1.1v7.8h0.9
				c1.5,0,3-0.1,4.5-0.4L72.2,7.8z M55,8.3v0.9h7.5v3.3h1.1V8.3h-3.6V6H65V5.1h-1.9c0.3-1.4,0.5-2.9,0.4-4.4h-8.4v0.9h7.3
				c0,1.2-0.1,2.4-0.4,3.5h-8.3V6h5.1v2.3L55,8.3z M53.1,12.3c-1.4-1.6-2.2-3.6-2.3-5.8V6.1c0-2.1,0.9-4.1,2.3-5.7h-1
				c-1.6,1.5-2.4,3.6-2.5,5.8v0.2c0,2.2,0.9,4.3,2.5,5.8L53.1,12.3z M47.5,10c0-1.5-1.5-2.4-4.2-2.4s-4.2,0.9-4.2,2.4
				s1.5,2.4,4.2,2.4S47.5,11.5,47.5,10 M37.6,1.9h2.8c0,0.2,0,0.5,0,0.7c-0.2,1.8-1.5,3.3-3.2,3.9l0.6,0.9c1.4-0.6,2.5-1.8,3.2-3.2
				c0.7,1.3,1.8,2.3,3.1,2.8l0.6-0.9c-1.5-0.5-3.1-1.8-3.2-3.5c0-0.1,0-0.4,0-0.7h2.8V1h-6.7L37.6,1.9z M43.4,8.6
				c1.9,0,3.1,0.5,3.1,1.5s-1.1,1.5-3.1,1.5c-1.9,0-3.1-0.5-3.1-1.5S41.5,8.6,43.4,8.6 M46.4,4.1v3.6h1.1V0h-1.1v3.2h-2.5v0.9
				L46.4,4.1z M24.8,1.3v0.9h5.4c0,1.6-0.1,3.1-0.4,4.6l1,0.1c0.3-1.9,0.5-3.8,0.4-5.7L24.8,1.3z M32.2,8.4
				c-1.4,0.2-2.8,0.3-4.2,0.4V4.8h-1.1v3.9c-0.9,0-2,0-2.7,0l0.2,0.9c1,0,2.4,0,3.7-0.1c1.2-0.1,3-0.2,4.2-0.4L32.2,8.4z M36.1,6.1
				V5.2h-2V0H33v12.4H34V6.1L36.1,6.1z M19.3,2.9c0-1.4-1.4-2.3-3.3-2.3s-3.3,0.9-3.3,2.3c0,1.4,1.4,2.3,3.3,2.3S19.3,4.3,19.3,2.9
				 M22.2,9.5V0h-1.1v7.3h-2.6v0.9h2.6v1.3L22.2,9.5z M22.5,12.1v-0.9h-7.8V8.5h-1.1v3.6L22.5,12.1z M18.2,2.9
				c0,0.8-0.9,1.4-2.2,1.4s-2.2-0.5-2.2-1.4s0.9-1.4,2.2-1.4S18.2,2,18.2,2.9 M16.6,9V6.7c1.3-0.1,2.7-0.2,3.5-0.3L20,5.6
				c-1.2,0.1-2.5,0.3-3.9,0.3c-1.3,0.1-2.9,0.1-4.1,0.1l0.2,0.9c1,0,2.3,0,3.4-0.1V9L16.6,9z M9.8,0H8.8v7.1h1.1V0z M9.9,7.7h-8v4.5
				h8V7.7z M8.8,11.3H2.9V8.6h5.9L8.8,11.3z M3.2,0.7C1.6,0.6,0.1,1.8,0,3.5c0,0.1,0,0.1,0,0.2c0.2,1.8,1.7,3.1,3.5,2.9
				c1.6-0.1,2.8-1.4,2.9-2.9c0-1.7-1.4-3-3.1-3C3.3,0.7,3.3,0.7,3.2,0.7 M3.2,1.6c1.1-0.1,2.1,0.8,2.2,1.9c0,0.1,0,0.1,0,0.2
				c0,1.1-0.8,2-2,2.1c-0.1,0-0.1,0-0.2,0C2.1,5.8,1.1,5,1.1,3.8c0-0.1,0-0.1,0-0.2c0-1.1,0.9-2.1,2-2.1C3.1,1.6,3.2,1.6,3.2,1.6"/>
		</g>
	</g>
</g>
</svg>
