<?xml version="1.0" encoding="utf-8"?>
<!-- Generator: Adobe Illustrator 25.1.0, SVG Export Plug-In . SVG Version: 6.00 Build 0)  -->
<svg version="1.1" id="레이어_1" xmlns="http://www.w3.org/2000/svg" xmlns:xlink="http://www.w3.org/1999/xlink" x="0px"
	 y="0px" viewBox="0 0 920 638.2" style="enable-background:new 0 0 920 638.2;" xml:space="preserve">
<style type="text/css">
	.st0{fill:none;stroke:#D6D6D6;}
	.st1{fill:none;stroke:#707070;}
	.st2{enable-background:new    ;}
	.st3{fill:#E37E28;}
	.st4{fill:#555555;}
</style>
<g id="그룹_5622" transform="translate(-740 -2467.785)">
	<path id="패스_2717" class="st0" d="M1221,2521.2v584.3"/>
	<path id="패스_3653" class="st0" d="M1116,2521.2v584.3"/>
	<path id="패스_2718" class="st0" d="M1367,2521.2v584.3"/>
	<path id="패스_2719" class="st0" d="M1513,2521.2v584.3"/>
	<path id="패스_1677" class="st1" d="M740,3105.5h920"/>
	<g class="st2">
		<path class="st3" d="M753.4,2482.1c0,3.1-2.6,5.3-6,5.3s-6-2.2-6-5.3c0-3.1,2.6-5.3,6-5.3S753.4,2479,753.4,2482.1z M744.4,2482.1
			c0,1.7,1.2,2.7,2.9,2.7c1.7,0,2.9-1,2.9-2.7c0-1.7-1.2-2.7-2.9-2.7C745.7,2479.4,744.4,2480.4,744.4,2482.1z M759.4,2489.3v8.3
			h-14.7v-8.3H759.4z M747.8,2491.7v3.4h8.5v-3.4H747.8z M759.4,2475.7v12.5h-3.2v-12.5H759.4z"/>
		<path class="st3" d="M775.3,2488.3c-2.4-0.8-4.1-2.4-5.1-4.3c-1,2.2-2.8,3.9-5.3,4.7l-1.6-2.5c3.6-1.2,5.2-4,5.3-6.7H764v-2.5h12
			v2.5h-4.4c0,2.6,1.7,5.2,5.2,6.3L775.3,2488.3z M766.4,2490h15v7.8h-3.2v-5.3h-11.9V2490z M781.5,2475.7v13.3h-3.2v-13.3H781.5z"
			/>
		<path class="st3" d="M804.3,2494.9v2.5h-16.4v-6.6h3.1v-3c-1.9,0.1-3.8,0.1-5.4,0.1l-0.4-2.5c4,0,9.4-0.1,14.1-0.7l0.2,2.3
			c-1.7,0.3-3.5,0.5-5.3,0.6v4.2h-3v3H804.3z M786.7,2480.4c0-2.4,2.3-4,5.5-4c3.2,0,5.5,1.6,5.5,4c0,2.4-2.3,3.9-5.5,3.9
			C789,2484.4,786.7,2482.8,786.7,2480.4z M789.7,2480.4c0,1.1,1,1.6,2.5,1.6c1.5,0,2.5-0.6,2.5-1.6s-1-1.7-2.5-1.7
			C790.7,2478.8,789.7,2479.4,789.7,2480.4z M800.6,2488.6v-12.8h3.2v16.8h-3.2v-1.8h-4.2v-2.2H800.6z"/>
		<path class="st3" d="M816.7,2490c3.1,0,5.8-0.2,8.6-0.7l0.3,2.6c-3.3,0.6-6.4,0.7-10.2,0.7h-1.9v-14.8h10.3v2.6h-7.2V2490z
			 M833.2,2486.5H830v11.4h-3.2v-22.2h3.2v8.2h3.2V2486.5z"/>
		<path class="st3" d="M841,2487.7c-3.4,0-6-2.3-6-5.4c0-3.1,2.6-5.4,6-5.4c3.4,0,6,2.2,6,5.4C846.9,2485.4,844.4,2487.7,841,2487.7
			z M852.4,2493.5c0,2.8-2.9,4.4-7.5,4.4c-4.6,0-7.5-1.6-7.5-4.4c0-2.7,2.9-4.4,7.5-4.4C849.5,2489.1,852.4,2490.7,852.4,2493.5z
			 M841,2485c1.7,0,2.9-1,2.9-2.7c0-1.7-1.2-2.7-2.9-2.7c-1.7,0-2.9,1-2.9,2.7C838.1,2484,839.3,2485,841,2485z M849.3,2493.5
			c0-1.3-1.5-1.9-4.3-1.9c-2.8,0-4.3,0.6-4.3,1.9c0,1.3,1.5,1.9,4.3,1.9C847.8,2495.4,849.3,2494.8,849.3,2493.5z M852.2,2481v2.2
			h2.8v2.6h-2.8v2.8H849v-12.9h3.2v2.7h2.8v2.6H852.2z"/>
		<path class="st3" d="M868.5,2488c-2.3-0.8-3.9-2.3-4.8-4.3c-1,2.3-2.7,4-5.4,4.9l-1.7-2.5c3.8-1.2,5.3-4.2,5.3-7.2v-2h3.2v1.8
			c0,3,1.4,5.7,4.9,6.8L868.5,2488z M875.5,2493.6c0,2.7-2.9,4.3-7.6,4.3c-4.7,0-7.6-1.6-7.6-4.3c0-2.7,2.9-4.3,7.6-4.3
			C872.6,2489.3,875.5,2490.8,875.5,2493.6z M872.3,2493.6c0-1.3-1.5-1.9-4.4-1.9c-2.9,0-4.4,0.6-4.4,1.9c0,1.2,1.5,1.8,4.4,1.8
			C870.8,2495.4,872.3,2494.8,872.3,2493.6z M872.2,2482.3h-4v-2.6h4v-4h3.2v13h-3.2V2482.3z"/>
	</g>
	<path id="패스_1677-2" class="st1" d="M740,2520.8h920"/>
	<path id="패스_1678" class="st0" d="M740,2585.3h920"/>
	<path id="패스_3645" class="st0" d="M740,2650.3h920"/>
	<path id="패스_3652" class="st0" d="M878,2910.3h782"/>
	<path id="패스_3646" class="st0" d="M878,2715.3h782"/>
	<path id="패스_3651" class="st0" d="M740,2975.3h920"/>
	<path id="패스_3647" class="st0" d="M740,2780.3h920"/>
	<path id="패스_3650" class="st0" d="M878,3040.3h782"/>
	<path id="패스_3648" class="st0" d="M878,2845.3h782"/>
	<g class="st2">
		<path d="M1276.7,2559.7c3.3-3.2,5.3-5.3,5.3-7.1c0-1.2-0.7-2.1-2-2.1c-0.9,0-1.7,0.6-2.3,1.3l-1-1c1-1.1,2-1.8,3.6-1.8
			c2.2,0,3.6,1.4,3.6,3.5c0,2.1-1.9,4.2-4.4,6.8c0.6-0.1,1.3-0.1,1.9-0.1h3v1.6h-7.6V2559.7z"/>
		<path d="M1285.9,2555c0-3.9,1.5-5.9,3.8-5.9c2.4,0,3.8,2.1,3.8,5.9c0,3.9-1.5,6-3.8,6C1287.3,2561,1285.9,2558.9,1285.9,2555z
			 M1291.7,2555c0-3.3-0.8-4.5-2-4.5c-1.2,0-2,1.2-2,4.5s0.8,4.5,2,4.5C1290.9,2559.5,1291.7,2558.3,1291.7,2555z"/>
		<path d="M1295.6,2559.3h2.6v-7.9h-2.1v-1.2c1.1-0.2,1.9-0.5,2.6-0.9h1.4v9.9h2.3v1.5h-6.7V2559.3z"/>
		<path d="M1304.1,2557.9c0-1.5,1-2.4,2.1-3v-0.1c-0.9-0.6-1.6-1.5-1.6-2.7c0-1.8,1.4-3,3.4-3c2,0,3.3,1.3,3.3,3.1
			c0,1.2-0.8,2.2-1.6,2.7v0.1c1,0.6,2,1.4,2,3c0,1.7-1.5,3.1-3.8,3.1C1305.7,2561,1304.1,2559.7,1304.1,2557.9z M1310,2557.9
			c0-1.4-1.3-1.8-2.9-2.5c-0.8,0.6-1.4,1.3-1.4,2.3c0,1.2,1,2,2.2,2C1309.2,2559.7,1310,2559,1310,2557.9z M1309.8,2552.3
			c0-1.1-0.7-1.9-1.8-1.9c-1,0-1.7,0.6-1.7,1.7c0,1.2,1.1,1.8,2.4,2.3C1309.4,2553.8,1309.8,2553.1,1309.8,2552.3z"/>
	</g>
	<g class="st2">
		<path d="M1162.3,2555.1c-1.9,0.4-3.6,0.5-6.7,0.5h-1.2v-6.8h6.4v1.3h-4.8v4.1c2.7,0,4.3-0.1,6-0.5L1162.3,2555.1z M1157.6,2560.4
			h8.1v1.3h-9.7v-4.8h1.7V2560.4z M1167.1,2551.7v1.4h-2v5h-1.6v-10.5h1.6v4.1H1167.1z"/>
		<path d="M1178,2556c-1.3,0.3-2.6,0.4-3.9,0.5v5.1h-1.6v-5c-1.4,0-2.6,0.1-3.8,0.1l-0.2-1.4c2.6,0,6.2,0,9.4-0.5L1178,2556z
			 M1169.5,2551.2c0-1.8,1.6-3,3.7-3c2.2,0,3.7,1.2,3.7,3c0,1.8-1.6,3-3.7,3C1171.1,2554.3,1169.5,2553,1169.5,2551.2z
			 M1171.1,2551.2c0,1,0.9,1.7,2.1,1.7c1.3,0,2.1-0.7,2.1-1.7c0-1-0.9-1.7-2.1-1.7C1172,2549.5,1171.1,2550.2,1171.1,2551.2z
			 M1180.5,2547.6v14.5h-1.6v-14.5H1180.5z"/>
	</g>
	<g class="st2">
		<path d="M1422.7,2559.7c3.3-3.2,5.3-5.3,5.3-7.1c0-1.2-0.7-2.1-2-2.1c-0.9,0-1.7,0.6-2.3,1.3l-1-1c1-1.1,2-1.8,3.6-1.8
			c2.2,0,3.6,1.4,3.6,3.5c0,2.1-1.9,4.2-4.4,6.8c0.6-0.1,1.3-0.1,1.9-0.1h3v1.6h-7.6V2559.7z"/>
		<path d="M1431.9,2555c0-3.9,1.5-5.9,3.8-5.9c2.4,0,3.8,2.1,3.8,5.9c0,3.9-1.5,6-3.8,6C1433.3,2561,1431.9,2558.9,1431.9,2555z
			 M1437.7,2555c0-3.3-0.8-4.5-2-4.5c-1.2,0-2,1.2-2,4.5s0.8,4.5,2,4.5C1436.9,2559.5,1437.7,2558.3,1437.7,2555z"/>
		<path d="M1441.6,2559.3h2.6v-7.9h-2.1v-1.2c1.1-0.2,1.9-0.5,2.6-0.9h1.4v9.9h2.3v1.5h-6.7V2559.3z"/>
		<path d="M1450.2,2559.7l1-1.1c0.4,0.5,1.2,0.9,1.8,0.9c1.5,0,2.8-1.2,2.8-4.5c-0.7,0.9-1.7,1.4-2.6,1.4c-2,0-3.3-1.2-3.3-3.5
			c0-2.3,1.6-3.7,3.5-3.7c2.3,0,4.1,1.8,4.1,5.6c0,4.5-2.1,6.3-4.4,6.3C1451.9,2561,1450.9,2560.4,1450.2,2559.7z M1453.7,2555
			c0.7,0,1.6-0.4,2.2-1.4c-0.2-2.1-1.1-3.1-2.3-3.1c-1,0-1.8,0.8-1.8,2.3C1451.8,2554.2,1452.4,2555,1453.7,2555z"/>
	</g>
	<g class="st2">
		<path d="M1568.7,2559.7c3.3-3.2,5.3-5.3,5.3-7.1c0-1.2-0.7-2.1-2-2.1c-0.9,0-1.7,0.6-2.3,1.3l-1-1c1-1.1,2-1.8,3.6-1.8
			c2.2,0,3.6,1.4,3.6,3.5c0,2.1-1.9,4.2-4.4,6.8c0.6-0.1,1.3-0.1,1.9-0.1h3v1.6h-7.6V2559.7z"/>
		<path d="M1577.9,2555c0-3.9,1.5-5.9,3.8-5.9c2.4,0,3.8,2.1,3.8,5.9c0,3.9-1.5,6-3.8,6C1579.3,2561,1577.9,2558.9,1577.9,2555z
			 M1583.7,2555c0-3.3-0.8-4.5-2-4.5c-1.2,0-2,1.2-2,4.5s0.8,4.5,2,4.5C1582.9,2559.5,1583.7,2558.3,1583.7,2555z"/>
		<path d="M1586.9,2559.7c3.3-3.2,5.3-5.3,5.3-7.1c0-1.2-0.7-2.1-2-2.1c-0.9,0-1.7,0.6-2.3,1.3l-1-1c1-1.1,2-1.8,3.6-1.8
			c2.2,0,3.6,1.4,3.6,3.5c0,2.1-1.9,4.2-4.4,6.8c0.6-0.1,1.3-0.1,1.9-0.1h3v1.6h-7.6V2559.7z"/>
		<path d="M1596.1,2555c0-3.9,1.5-5.9,3.8-5.9c2.4,0,3.8,2.1,3.8,5.9c0,3.9-1.5,6-3.8,6C1597.6,2561,1596.1,2558.9,1596.1,2555z
			 M1602,2555c0-3.3-0.8-4.5-2-4.5c-1.2,0-2,1.2-2,4.5s0.8,4.5,2,4.5C1601.1,2559.5,1602,2558.3,1602,2555z"/>
	</g>
	<g class="st2">
		<path d="M772.9,2556h-5.8v6h-1.7v-6h-5.7v-1.4h9.4c0.4-2,0.4-3.5,0.4-4.9h-8.2v-1.3h9.9v1.3c0,1.4,0,2.9-0.4,4.9h2V2556z"/>
		<path d="M787.6,2555.1v1.3H782v2.6h-1.6v-2.6h-5.9v-1.3H787.6z M777.8,2560.4h8.4v1.3h-10.1v-4h1.6V2560.4z M785.9,2553.9h-9.7
			v-5.8h1.6v1.7h6.4v-1.7h1.6V2553.9z M784.3,2551h-6.4v1.6h6.4V2551z"/>
	</g>
	<g class="st2">
		<path class="st4" d="M1274.7,2624.9c3.4-3.4,5.4-5.5,5.4-7.3c0-1.3-0.7-2.2-2.2-2.2c-1,0-1.8,0.6-2.4,1.4l-0.8-0.8
			c1-1,2-1.7,3.5-1.7c2.1,0,3.4,1.3,3.4,3.3c0,2.1-2,4.3-4.7,7.1c0.6,0,1.3-0.1,1.9-0.1h3.3v1.3h-7.4V2624.9z"/>
		<path class="st4" d="M1283.7,2628c1-0.4,1.6-1.2,1.6-2.2c-0.1,0-0.1,0-0.2,0c-0.6,0-1.1-0.4-1.1-1c0-0.6,0.5-1,1.1-1
			c0.8,0,1.2,0.7,1.2,1.7c0,1.5-0.9,2.7-2.3,3.3L1283.7,2628z"/>
		<path class="st4" d="M1288,2624.9c3.4-3.4,5.4-5.5,5.4-7.3c0-1.3-0.7-2.2-2.2-2.2c-1,0-1.8,0.6-2.4,1.4l-0.8-0.8
			c1-1,2-1.7,3.5-1.7c2.1,0,3.4,1.3,3.4,3.3c0,2.1-2,4.3-4.7,7.1c0.6,0,1.3-0.1,1.9-0.1h3.3v1.3h-7.4V2624.9z"/>
		<path class="st4" d="M1296.7,2624.4l0.7-1c0.7,0.7,1.5,1.3,2.9,1.3c1.4,0,2.5-1,2.5-2.6s-1-2.5-2.4-2.5c-0.8,0-1.3,0.3-2,0.7
			l-0.8-0.5l0.4-5.5h5.7v1.2h-4.4l-0.3,3.4c0.5-0.3,1-0.5,1.7-0.5c2,0,3.5,1.1,3.5,3.6s-1.9,3.9-3.8,3.9
			C1298.6,2626,1297.5,2625.2,1296.7,2624.4z"/>
		<path class="st4" d="M1306.5,2624.6h2.6v-8.4h-2.1v-0.9c1-0.2,1.8-0.4,2.4-0.8h1.1v10.2h2.4v1.2h-6.4V2624.6z"/>
	</g>
	<g class="st2">
		<path class="st4" d="M1420.7,2624.9c3.4-3.4,5.4-5.5,5.4-7.3c0-1.3-0.7-2.2-2.2-2.2c-1,0-1.8,0.6-2.4,1.4l-0.8-0.8
			c1-1,2-1.7,3.5-1.7c2.1,0,3.4,1.3,3.4,3.3c0,2.1-2,4.3-4.7,7.1c0.6,0,1.3-0.1,1.9-0.1h3.3v1.3h-7.4V2624.9z"/>
		<path class="st4" d="M1429.7,2628c1-0.4,1.6-1.2,1.6-2.2c-0.1,0-0.1,0-0.2,0c-0.6,0-1.1-0.4-1.1-1c0-0.6,0.5-1,1.1-1
			c0.8,0,1.2,0.7,1.2,1.7c0,1.5-0.9,2.7-2.3,3.3L1429.7,2628z"/>
		<path class="st4" d="M1434,2624.9c3.4-3.4,5.4-5.5,5.4-7.3c0-1.3-0.7-2.2-2.2-2.2c-1,0-1.8,0.6-2.4,1.4l-0.8-0.8
			c1-1,2-1.7,3.5-1.7c2.1,0,3.4,1.3,3.4,3.3c0,2.1-2,4.3-4.7,7.1c0.6,0,1.3-0.1,1.9-0.1h3.3v1.3h-7.4V2624.9z"/>
		<path class="st4" d="M1442.7,2624.4l0.7-1c0.7,0.7,1.6,1.3,2.9,1.3c1.4,0,2.4-0.8,2.4-2.1c0-1.4-0.9-2.3-3.6-2.3v-1.1
			c2.4,0,3.2-0.9,3.2-2.1c0-1.1-0.8-1.8-2-1.8c-0.9,0-1.8,0.5-2.4,1.2l-0.8-0.9c0.9-0.8,1.9-1.4,3.3-1.4c2,0,3.4,1,3.4,2.9
			c0,1.4-0.8,2.3-2.1,2.7v0.1c1.4,0.3,2.5,1.3,2.5,2.9c0,2-1.7,3.2-3.8,3.2C1444.6,2626,1443.5,2625.2,1442.7,2624.4z"/>
		<path class="st4" d="M1456.5,2622.6h-5.1v-1l4.9-7.3h1.6v7.1h1.6v1.2h-1.6v3.2h-1.4V2622.6z M1456.5,2621.5v-3.3
			c0-0.6,0-1.6,0.1-2.2h-0.1c-0.3,0.5-0.6,1-0.9,1.6l-2.7,3.9H1456.5z"/>
	</g>
	<g class="st2">
		<path class="st4" d="M1281.1,2689.8h2.6v-8.4h-2.1v-0.9c1-0.2,1.8-0.4,2.4-0.8h1.1v10.2h2.4v1.2h-6.4V2689.8z"/>
		<path class="st4" d="M1289.3,2690.1c3.4-3.4,5.4-5.5,5.4-7.3c0-1.3-0.7-2.2-2.2-2.2c-1,0-1.8,0.6-2.4,1.4l-0.8-0.8
			c1-1,2-1.7,3.5-1.7c2.1,0,3.4,1.3,3.4,3.3c0,2.1-2,4.3-4.7,7.1c0.6,0,1.3-0.1,1.9-0.1h3.3v1.3h-7.4V2690.1z"/>
		<path class="st4" d="M1298.2,2685.3c0-3.8,1.4-5.9,3.7-5.9c2.3,0,3.6,2.1,3.6,5.9c0,3.8-1.4,6-3.6,6
			C1299.6,2691.2,1298.2,2689.1,1298.2,2685.3z M1304.1,2685.3c0-3.3-0.9-4.7-2.2-4.7c-1.3,0-2.2,1.4-2.2,4.7c0,3.3,0.9,4.8,2.2,4.8
			C1303.2,2690,1304.1,2688.6,1304.1,2685.3z"/>
	</g>
	<g class="st2">
		<path class="st4" d="M1427.1,2689.8h2.6v-8.4h-2.1v-0.9c1-0.2,1.8-0.4,2.4-0.8h1.1v10.2h2.4v1.2h-6.4V2689.8z"/>
		<path class="st4" d="M1435.3,2690.1c3.4-3.4,5.4-5.5,5.4-7.3c0-1.3-0.7-2.2-2.2-2.2c-1,0-1.8,0.6-2.4,1.4l-0.8-0.8
			c1-1,2-1.7,3.5-1.7c2.1,0,3.4,1.3,3.4,3.3c0,2.1-2,4.3-4.7,7.1c0.6,0,1.3-0.1,1.9-0.1h3.3v1.3h-7.4V2690.1z"/>
		<path class="st4" d="M1443.9,2689.6l0.7-1c0.7,0.7,1.6,1.3,2.9,1.3c1.4,0,2.4-0.8,2.4-2.1c0-1.4-0.9-2.3-3.6-2.3v-1.1
			c2.4,0,3.2-0.9,3.2-2.1c0-1.1-0.8-1.8-2-1.8c-0.9,0-1.8,0.5-2.4,1.2l-0.8-0.9c0.9-0.8,1.9-1.4,3.3-1.4c2,0,3.4,1,3.4,2.9
			c0,1.4-0.8,2.3-2.1,2.7v0.1c1.4,0.3,2.5,1.3,2.5,2.9c0,2-1.7,3.2-3.8,3.2C1445.8,2691.2,1444.7,2690.4,1443.9,2689.6z"/>
	</g>
	<g class="st2">
		<path class="st4" d="M1282.3,2754.7l0.7-1c0.7,0.7,1.5,1.3,2.9,1.3c1.4,0,2.5-1,2.5-2.6s-1-2.5-2.4-2.5c-0.8,0-1.3,0.3-2,0.7
			l-0.8-0.5l0.4-5.5h5.7v1.2h-4.4l-0.3,3.4c0.5-0.3,1-0.5,1.7-0.5c2,0,3.5,1.1,3.5,3.6s-1.9,3.9-3.8,3.9
			C1284.2,2756.2,1283.1,2755.4,1282.3,2754.7z"/>
		<path class="st4" d="M1291.9,2755.1c0-0.7,0.5-1.1,1.1-1.1c0.6,0,1.1,0.5,1.1,1.1c0,0.7-0.5,1.1-1.1,1.1
			C1292.4,2756.2,1291.9,2755.8,1291.9,2755.1z"/>
		<path class="st4" d="M1295.7,2754.6l0.7-1c0.7,0.7,1.6,1.3,2.9,1.3c1.4,0,2.4-0.8,2.4-2.1c0-1.4-0.9-2.3-3.6-2.3v-1.1
			c2.4,0,3.2-0.9,3.2-2.1c0-1.1-0.8-1.8-2-1.8c-0.9,0-1.8,0.5-2.4,1.2l-0.8-0.9c0.9-0.8,1.9-1.4,3.3-1.4c2,0,3.4,1,3.4,2.9
			c0,1.4-0.8,2.3-2.1,2.7v0.1c1.4,0.3,2.5,1.3,2.5,2.9c0,2-1.7,3.2-3.8,3.2C1297.6,2756.2,1296.5,2755.4,1295.7,2754.6z"/>
	</g>
	<g class="st2">
		<path class="st4" d="M1428.3,2754.7l0.7-1c0.7,0.7,1.5,1.3,2.9,1.3c1.4,0,2.5-1,2.5-2.6s-1-2.5-2.4-2.5c-0.8,0-1.3,0.3-2,0.7
			l-0.8-0.5l0.4-5.5h5.7v1.2h-4.4l-0.3,3.4c0.5-0.3,1-0.5,1.7-0.5c2,0,3.5,1.1,3.5,3.6s-1.9,3.9-3.8,3.9
			C1430.2,2756.2,1429.1,2755.4,1428.3,2754.7z"/>
		<path class="st4" d="M1437.9,2755.1c0-0.7,0.5-1.1,1.1-1.1c0.6,0,1.1,0.5,1.1,1.1c0,0.7-0.5,1.1-1.1,1.1
			C1438.4,2756.2,1437.9,2755.8,1437.9,2755.1z"/>
		<path class="st4" d="M1441.7,2754.7l0.7-1c0.7,0.7,1.5,1.3,2.9,1.3c1.4,0,2.5-1,2.5-2.6s-1-2.5-2.4-2.5c-0.8,0-1.3,0.3-2,0.7
			l-0.8-0.5l0.4-5.5h5.7v1.2h-4.4l-0.3,3.4c0.5-0.3,1-0.5,1.7-0.5c2,0,3.5,1.1,3.5,3.6s-1.9,3.9-3.8,3.9
			C1443.6,2756.2,1442.5,2755.4,1441.7,2754.7z"/>
	</g>
	<g class="st2">
		<path class="st4" d="M1282.8,2815.7c0-4.6,2.1-6.4,4.4-6.4c1.2,0,2.1,0.5,2.7,1.2l-0.8,0.9c-0.5-0.6-1.2-0.9-1.9-0.9
			c-1.6,0-3,1.2-3,4.9c0.7-0.9,1.7-1.4,2.7-1.4c2,0,3.2,1.2,3.2,3.5c0,2.2-1.5,3.7-3.4,3.7
			C1284.4,2821.2,1282.8,2819.4,1282.8,2815.7z M1284.2,2816.6c0.2,2.2,1.1,3.4,2.5,3.4c1.1,0,2-1,2-2.5c0-1.5-0.7-2.4-2.1-2.4
			C1285.8,2815.1,1284.9,2815.5,1284.2,2816.6z"/>
		<path class="st4" d="M1291.9,2820.1c0-0.7,0.5-1.1,1.1-1.1c0.6,0,1.1,0.5,1.1,1.1c0,0.7-0.5,1.1-1.1,1.1
			C1292.4,2821.2,1291.9,2820.8,1291.9,2820.1z"/>
		<path class="st4" d="M1301.7,2810.8h-5.7v-1.2h7.3v0.9c-2.7,3.5-3.3,6.1-3.4,10.5h-1.5C1298.6,2816.7,1299.4,2814,1301.7,2810.8z"
			/>
	</g>
	<g class="st2">
		<path class="st4" d="M1428.8,2815.7c0-4.6,2.1-6.4,4.4-6.4c1.2,0,2.1,0.5,2.7,1.2l-0.8,0.9c-0.5-0.6-1.2-0.9-1.9-0.9
			c-1.6,0-3,1.2-3,4.9c0.7-0.9,1.7-1.4,2.7-1.4c2,0,3.2,1.2,3.2,3.5c0,2.2-1.5,3.7-3.4,3.7
			C1430.4,2821.2,1428.8,2819.4,1428.8,2815.7z M1430.2,2816.6c0.2,2.2,1.1,3.4,2.5,3.4c1.1,0,2-1,2-2.5c0-1.5-0.7-2.4-2.1-2.4
			C1431.8,2815.1,1430.9,2815.5,1430.2,2816.6z"/>
		<path class="st4" d="M1437.9,2820.1c0-0.7,0.5-1.1,1.1-1.1c0.6,0,1.1,0.5,1.1,1.1c0,0.7-0.5,1.1-1.1,1.1
			C1438.4,2821.2,1437.9,2820.8,1437.9,2820.1z"/>
		<path class="st4" d="M1441.7,2819.7l0.7-1c0.7,0.7,1.5,1.3,2.9,1.3c1.4,0,2.5-1,2.5-2.6s-1-2.5-2.4-2.5c-0.8,0-1.3,0.3-2,0.7
			l-0.8-0.5l0.4-5.5h5.7v1.2h-4.4l-0.3,3.4c0.5-0.3,1-0.5,1.7-0.5c2,0,3.5,1.1,3.5,3.6s-1.9,3.9-3.8,3.9
			C1443.6,2821.2,1442.5,2820.4,1441.7,2819.7z"/>
	</g>
	<g class="st2">
		<path class="st4" d="M1283.9,2875.8h-5.7v-1.2h7.3v0.9c-2.7,3.5-3.3,6.1-3.4,10.5h-1.5C1280.8,2881.7,1281.7,2879,1283.9,2875.8z"
			/>
		<path class="st4" d="M1291.8,2882.8h-5.1v-1l4.9-7.3h1.6v7.1h1.6v1.2h-1.6v3.2h-1.4V2882.8z M1291.8,2881.7v-3.3
			c0-0.6,0-1.6,0.1-2.2h-0.1c-0.3,0.5-0.6,1-0.9,1.6l-2.7,3.9H1291.8z"/>
		<path class="st4" d="M1296.4,2885.1c0-0.7,0.5-1.1,1.1-1.1s1.1,0.5,1.1,1.1c0,0.7-0.5,1.1-1.1,1.1S1296.4,2885.8,1296.4,2885.1z"
			/>
		<path class="st4" d="M1300.4,2880.3c0-3.8,1.4-5.9,3.7-5.9c2.3,0,3.6,2.1,3.6,5.9c0,3.8-1.4,6-3.6,6
			C1301.8,2886.2,1300.4,2884.1,1300.4,2880.3z M1306.3,2880.3c0-3.3-0.9-4.7-2.2-4.7c-1.3,0-2.2,1.4-2.2,4.7c0,3.3,0.9,4.8,2.2,4.8
			C1305.4,2885,1306.3,2883.6,1306.3,2880.3z"/>
	</g>
	<g class="st2">
		<path class="st4" d="M1429.9,2875.8h-5.7v-1.2h7.3v0.9c-2.7,3.5-3.3,6.1-3.4,10.5h-1.5C1426.8,2881.7,1427.7,2879,1429.9,2875.8z"
			/>
		<path class="st4" d="M1433.7,2884.8h2.6v-8.4h-2.1v-0.9c1-0.2,1.8-0.4,2.4-0.8h1.1v10.2h2.4v1.2h-6.4V2884.8z"/>
		<path class="st4" d="M1442.4,2885.1c0-0.7,0.5-1.1,1.1-1.1s1.1,0.5,1.1,1.1c0,0.7-0.5,1.1-1.1,1.1S1442.4,2885.8,1442.4,2885.1z"
			/>
		<path class="st4" d="M1452.1,2875.8h-5.7v-1.2h7.3v0.9c-2.7,3.5-3.3,6.1-3.4,10.5h-1.5C1449,2881.7,1449.9,2879,1452.1,2875.8z"/>
	</g>
	<g class="st2">
		<path class="st4" d="M1278.9,2949.8h2.6v-8.4h-2.1v-0.9c1-0.2,1.8-0.4,2.4-0.8h1.1v10.2h2.4v1.2h-6.4V2949.8z"/>
		<path class="st4" d="M1287.3,2950l0.8-0.9c0.4,0.6,1.2,0.9,1.9,0.9c1.6,0,3-1.2,3-4.9c-0.7,0.9-1.7,1.5-2.7,1.5
			c-2,0-3.3-1.2-3.3-3.5c0-2.2,1.5-3.6,3.4-3.6c2.3,0,3.9,1.8,3.9,5.5c0,4.6-2.1,6.3-4.3,6.3
			C1288.8,2951.2,1287.9,2950.7,1287.3,2950z M1290.5,2945.5c0.7,0,1.7-0.5,2.4-1.6c-0.2-2.2-1.1-3.4-2.5-3.4c-1.1,0-2,1-2,2.5
			C1288.4,2944.5,1289.1,2945.5,1290.5,2945.5z"/>
		<path class="st4" d="M1296.4,2950.1c0-0.7,0.5-1.1,1.1-1.1s1.1,0.5,1.1,1.1c0,0.7-0.5,1.1-1.1,1.1S1296.4,2950.8,1296.4,2950.1z"
			/>
		<path class="st4" d="M1300.1,2949.6l0.7-1c0.7,0.7,1.6,1.3,2.9,1.3c1.4,0,2.4-0.8,2.4-2.1c0-1.4-0.9-2.3-3.6-2.3v-1.1
			c2.4,0,3.2-0.9,3.2-2.1c0-1.1-0.8-1.8-2-1.8c-0.9,0-1.8,0.5-2.4,1.2l-0.8-0.9c0.9-0.8,1.9-1.4,3.3-1.4c2,0,3.4,1,3.4,2.9
			c0,1.4-0.8,2.3-2.1,2.7v0.1c1.4,0.3,2.5,1.3,2.5,2.9c0,2-1.7,3.2-3.8,3.2C1302,2951.2,1300.9,2950.4,1300.1,2949.6z"/>
	</g>
	<g class="st2">
		<path class="st4" d="M1424.2,2950.1c3.4-3.4,5.4-5.5,5.4-7.3c0-1.3-0.7-2.2-2.2-2.2c-1,0-1.8,0.6-2.4,1.4l-0.8-0.8
			c1-1,2-1.7,3.5-1.7c2.1,0,3.4,1.3,3.4,3.3c0,2.1-2,4.3-4.7,7.1c0.6,0,1.3-0.1,1.9-0.1h3.3v1.3h-7.4V2950.1z"/>
		<path class="st4" d="M1433.7,2949.8h2.6v-8.4h-2.1v-0.9c1-0.2,1.8-0.4,2.4-0.8h1.1v10.2h2.4v1.2h-6.4V2949.8z"/>
		<path class="st4" d="M1442.4,2950.1c0-0.7,0.5-1.1,1.1-1.1s1.1,0.5,1.1,1.1c0,0.7-0.5,1.1-1.1,1.1S1442.4,2950.8,1442.4,2950.1z"
			/>
		<path class="st4" d="M1446.4,2948.1c0-1.5,1.1-2.5,2.2-3.1v-0.1c-0.8-0.6-1.6-1.4-1.6-2.6c0-1.7,1.4-2.9,3.2-2.9
			c2,0,3.2,1.2,3.2,3c0,1.2-0.9,2.2-1.6,2.8v0.1c1,0.6,2,1.4,2,2.9c0,1.7-1.5,3-3.7,3C1448,2951.2,1446.4,2949.9,1446.4,2948.1z
			 M1452.4,2948.1c0-1.5-1.4-2-3.1-2.7c-0.9,0.6-1.6,1.4-1.6,2.5c0,1.2,1,2.2,2.4,2.2C1451.5,2950.1,1452.4,2949.3,1452.4,2948.1z
			 M1452.1,2942.5c0-1.1-0.7-2-2-2c-1.1,0-1.9,0.7-1.9,1.8c0,1.4,1.3,2,2.6,2.5C1451.7,2944.1,1452.1,2943.3,1452.1,2942.5z"/>
	</g>
	<g class="st2">
		<path class="st4" d="M1283.5,3014.8h2.6v-8.4h-2.1v-0.9c1-0.2,1.8-0.4,2.4-0.8h1.1v10.2h2.4v1.2h-6.4V3014.8z"/>
		<path class="st4" d="M1292.2,3015.1c0-0.7,0.5-1.1,1.1-1.1s1.1,0.5,1.1,1.1c0,0.7-0.5,1.1-1.1,1.1S1292.2,3015.8,1292.2,3015.1z"
			/>
		<path class="st4" d="M1296.8,3014.8h2.6v-8.4h-2.1v-0.9c1-0.2,1.8-0.4,2.4-0.8h1.1v10.2h2.4v1.2h-6.4V3014.8z"/>
	</g>
	<g class="st2">
		<path class="st4" d="M1431.3,3014.8h2.6v-8.4h-2.1v-0.9c1-0.2,1.8-0.4,2.4-0.8h1.1v10.2h2.4v1.2h-6.4V3014.8z"/>
		<path class="st4" d="M1439.9,3015.1c0-0.7,0.5-1.1,1.1-1.1c0.6,0,1.1,0.5,1.1,1.1c0,0.7-0.5,1.1-1.1,1.1
			C1440.4,3016.2,1439.9,3015.8,1439.9,3015.1z"/>
		<path class="st4" d="M1443.7,3014.6l0.7-1c0.7,0.7,1.6,1.3,2.9,1.3c1.4,0,2.4-0.8,2.4-2.1c0-1.4-0.9-2.3-3.6-2.3v-1.1
			c2.4,0,3.2-0.9,3.2-2.1c0-1.1-0.8-1.8-2-1.8c-0.9,0-1.8,0.5-2.4,1.2l-0.8-0.9c0.9-0.8,1.9-1.4,3.3-1.4c2,0,3.4,1,3.4,2.9
			c0,1.4-0.8,2.3-2.1,2.7v0.1c1.4,0.3,2.5,1.3,2.5,2.9c0,2-1.7,3.2-3.8,3.2C1445.6,3016.2,1444.5,3015.4,1443.7,3014.6z"/>
	</g>
	<g class="st2">
		<path class="st4" d="M1282.4,3079.6l0.7-1c0.7,0.7,1.6,1.3,2.9,1.3c1.4,0,2.4-0.8,2.4-2.1c0-1.4-0.9-2.3-3.6-2.3v-1.1
			c2.4,0,3.2-0.9,3.2-2.1c0-1.1-0.8-1.8-2-1.8c-0.9,0-1.8,0.5-2.4,1.2l-0.8-0.9c0.9-0.8,1.9-1.4,3.3-1.4c2,0,3.4,1,3.4,2.9
			c0,1.4-0.8,2.3-2.1,2.7v0.1c1.4,0.3,2.5,1.3,2.5,2.9c0,2-1.7,3.2-3.8,3.2C1284.3,3081.2,1283.1,3080.4,1282.4,3079.6z"/>
		<path class="st4" d="M1291.9,3080.1c0-0.7,0.5-1.1,1.1-1.1c0.6,0,1.1,0.5,1.1,1.1c0,0.7-0.5,1.1-1.1,1.1
			C1292.4,3081.2,1291.9,3080.8,1291.9,3080.1z"/>
		<path class="st4" d="M1295.9,3080.1c3.4-3.4,5.4-5.5,5.4-7.3c0-1.3-0.7-2.2-2.2-2.2c-1,0-1.8,0.6-2.4,1.4l-0.8-0.8
			c1-1,2-1.7,3.5-1.7c2.1,0,3.4,1.3,3.4,3.3c0,2.1-2,4.3-4.7,7.1c0.6,0,1.3-0.1,1.9-0.1h3.3v1.3h-7.4V3080.1z"/>
	</g>
	<g class="st2">
		<path class="st4" d="M1428.4,3079.6l0.7-1c0.7,0.7,1.6,1.3,2.9,1.3c1.4,0,2.4-0.8,2.4-2.1c0-1.4-0.9-2.3-3.6-2.3v-1.1
			c2.4,0,3.2-0.9,3.2-2.1c0-1.1-0.8-1.8-2-1.8c-0.9,0-1.8,0.5-2.4,1.2l-0.8-0.9c0.9-0.8,1.9-1.4,3.3-1.4c2,0,3.4,1,3.4,2.9
			c0,1.4-0.8,2.3-2.1,2.7v0.1c1.4,0.3,2.5,1.3,2.5,2.9c0,2-1.7,3.2-3.8,3.2C1430.3,3081.2,1429.1,3080.4,1428.4,3079.6z"/>
		<path class="st4" d="M1437.9,3080.1c0-0.7,0.5-1.1,1.1-1.1c0.6,0,1.1,0.5,1.1,1.1c0,0.7-0.5,1.1-1.1,1.1
			C1438.4,3081.2,1437.9,3080.8,1437.9,3080.1z"/>
		<path class="st4" d="M1441.9,3080.1c3.4-3.4,5.4-5.5,5.4-7.3c0-1.3-0.7-2.2-2.2-2.2c-1,0-1.8,0.6-2.4,1.4l-0.8-0.8
			c1-1,2-1.7,3.5-1.7c2.1,0,3.4,1.3,3.4,3.3c0,2.1-2,4.3-4.7,7.1c0.6,0,1.3-0.1,1.9-0.1h3.3v1.3h-7.4V3080.1z"/>
	</g>
	<g class="st2">
		<path class="st4" d="M1168.1,2620.1h-6.5v-6.4h6.5v1.2h3.3v-2.3h1.3v8.5h-1.3v-2.3h-3.3V2620.1z M1166.8,2614.8h-4v4.3h4V2614.8z
			 M1172.7,2624.2c0,1.7-1.8,2.7-4.8,2.7c-2.9,0-4.8-1-4.8-2.7c0-1.7,1.8-2.7,4.8-2.7C1170.9,2621.5,1172.7,2622.5,1172.7,2624.2z
			 M1171.4,2624.2c0-1.1-1.3-1.7-3.5-1.7c-2.1,0-3.5,0.6-3.5,1.7c0,1.1,1.3,1.7,3.5,1.7C1170.1,2625.9,1171.4,2625.3,1171.4,2624.2z
			 M1168.1,2616v1.8h3.3v-1.8H1168.1z"/>
	</g>
	<g class="st2">
		<path class="st4" d="M1168.1,2685.3h-6.5v-6.4h6.5v1.2h3.3v-2.3h1.3v8.5h-1.3v-2.3h-3.3V2685.3z M1166.8,2680h-4v4.3h4V2680z
			 M1172.7,2689.5c0,1.7-1.8,2.7-4.8,2.7c-2.9,0-4.8-1-4.8-2.7c0-1.7,1.8-2.7,4.8-2.7C1170.9,2686.8,1172.7,2687.7,1172.7,2689.5z
			 M1171.4,2689.5c0-1.1-1.3-1.7-3.5-1.7c-2.1,0-3.5,0.6-3.5,1.7c0,1.1,1.3,1.7,3.5,1.7C1170.1,2691.1,1171.4,2690.5,1171.4,2689.5z
			 M1168.1,2681.2v1.8h3.3v-1.8H1168.1z"/>
	</g>
	<g class="st2">
		<path class="st4" d="M1160.6,2747.7c0-2.4,1.1-3.7,2.7-3.7c1.6,0,2.7,1.3,2.7,3.7c0,2.4-1.1,3.7-2.7,3.7
			C1161.7,2751.5,1160.6,2750.1,1160.6,2747.7z M1164.9,2747.7c0-1.9-0.6-2.8-1.6-2.8c-0.9,0-1.6,0.9-1.6,2.8s0.6,2.8,1.6,2.8
			C1164.2,2750.5,1164.9,2749.6,1164.9,2747.7z M1170.1,2744h1l-6.5,12.2h-1L1170.1,2744z M1168.8,2752.5c0-2.4,1.1-3.7,2.7-3.7
			c1.6,0,2.7,1.3,2.7,3.7c0,2.4-1.1,3.7-2.7,3.7C1169.9,2756.2,1168.8,2754.9,1168.8,2752.5z M1173,2752.5c0-1.9-0.6-2.8-1.6-2.8
			c-0.9,0-1.6,0.9-1.6,2.8c0,1.9,0.6,2.8,1.6,2.8C1172.4,2755.3,1173,2754.4,1173,2752.5z"/>
	</g>
	<g class="st2">
		<path class="st4" d="M1160.6,2812.7c0-2.4,1.1-3.7,2.7-3.7c1.6,0,2.7,1.3,2.7,3.7c0,2.4-1.1,3.7-2.7,3.7
			C1161.7,2816.5,1160.6,2815.1,1160.6,2812.7z M1164.9,2812.7c0-1.9-0.6-2.8-1.6-2.8c-0.9,0-1.6,0.9-1.6,2.8s0.6,2.8,1.6,2.8
			C1164.2,2815.5,1164.9,2814.6,1164.9,2812.7z M1170.1,2809h1l-6.5,12.2h-1L1170.1,2809z M1168.8,2817.5c0-2.4,1.1-3.7,2.7-3.7
			c1.6,0,2.7,1.3,2.7,3.7c0,2.4-1.1,3.7-2.7,3.7C1169.9,2821.2,1168.8,2819.9,1168.8,2817.5z M1173,2817.5c0-1.9-0.6-2.8-1.6-2.8
			c-0.9,0-1.6,0.9-1.6,2.8c0,1.9,0.6,2.8,1.6,2.8C1172.4,2820.3,1173,2819.4,1173,2817.5z"/>
	</g>
	<g class="st2">
		<path class="st4" d="M1160.6,2877.7c0-2.4,1.1-3.7,2.7-3.7c1.6,0,2.7,1.3,2.7,3.7c0,2.4-1.1,3.7-2.7,3.7
			C1161.7,2881.5,1160.6,2880.1,1160.6,2877.7z M1164.9,2877.7c0-1.9-0.6-2.8-1.6-2.8c-0.9,0-1.6,0.9-1.6,2.8s0.6,2.8,1.6,2.8
			C1164.2,2880.5,1164.9,2879.6,1164.9,2877.7z M1170.1,2874h1l-6.5,12.2h-1L1170.1,2874z M1168.8,2882.5c0-2.4,1.1-3.7,2.7-3.7
			c1.6,0,2.7,1.3,2.7,3.7c0,2.4-1.1,3.7-2.7,3.7C1169.9,2886.2,1168.8,2884.9,1168.8,2882.5z M1173,2882.5c0-1.9-0.6-2.8-1.6-2.8
			c-0.9,0-1.6,0.9-1.6,2.8c0,1.9,0.6,2.8,1.6,2.8C1172.4,2885.3,1173,2884.4,1173,2882.5z"/>
	</g>
	<g class="st2">
		<path class="st4" d="M1160.6,2942.7c0-2.4,1.1-3.7,2.7-3.7c1.6,0,2.7,1.3,2.7,3.7c0,2.4-1.1,3.7-2.7,3.7
			C1161.7,2946.5,1160.6,2945.1,1160.6,2942.7z M1164.9,2942.7c0-1.9-0.6-2.8-1.6-2.8c-0.9,0-1.6,0.9-1.6,2.8s0.6,2.8,1.6,2.8
			C1164.2,2945.5,1164.9,2944.6,1164.9,2942.7z M1170.1,2939h1l-6.5,12.2h-1L1170.1,2939z M1168.8,2947.5c0-2.4,1.1-3.7,2.7-3.7
			c1.6,0,2.7,1.3,2.7,3.7c0,2.4-1.1,3.7-2.7,3.7C1169.9,2951.2,1168.8,2949.9,1168.8,2947.5z M1173,2947.5c0-1.9-0.6-2.8-1.6-2.8
			c-0.9,0-1.6,0.9-1.6,2.8c0,1.9,0.6,2.8,1.6,2.8C1172.4,2950.3,1173,2949.4,1173,2947.5z"/>
	</g>
	<g class="st2">
		<path class="st4" d="M1160.6,3007.7c0-2.4,1.1-3.7,2.7-3.7c1.6,0,2.7,1.3,2.7,3.7c0,2.4-1.1,3.7-2.7,3.7
			C1161.7,3011.5,1160.6,3010.1,1160.6,3007.7z M1164.9,3007.7c0-1.9-0.6-2.8-1.6-2.8c-0.9,0-1.6,0.9-1.6,2.8s0.6,2.8,1.6,2.8
			C1164.2,3010.5,1164.9,3009.6,1164.9,3007.7z M1170.1,3004h1l-6.5,12.2h-1L1170.1,3004z M1168.8,3012.5c0-2.4,1.1-3.7,2.7-3.7
			c1.6,0,2.7,1.3,2.7,3.7c0,2.4-1.1,3.7-2.7,3.7C1169.9,3016.2,1168.8,3014.9,1168.8,3012.5z M1173,3012.5c0-1.9-0.6-2.8-1.6-2.8
			c-0.9,0-1.6,0.9-1.6,2.8c0,1.9,0.6,2.8,1.6,2.8C1172.4,3015.3,1173,3014.4,1173,3012.5z"/>
	</g>
	<g class="st2">
		<path class="st4" d="M1160.6,3072.7c0-2.4,1.1-3.7,2.7-3.7c1.6,0,2.7,1.3,2.7,3.7c0,2.4-1.1,3.7-2.7,3.7
			C1161.7,3076.5,1160.6,3075.1,1160.6,3072.7z M1164.9,3072.7c0-1.9-0.6-2.8-1.6-2.8c-0.9,0-1.6,0.9-1.6,2.8s0.6,2.8,1.6,2.8
			C1164.2,3075.5,1164.9,3074.6,1164.9,3072.7z M1170.1,3069h1l-6.5,12.2h-1L1170.1,3069z M1168.8,3077.5c0-2.4,1.1-3.7,2.7-3.7
			c1.6,0,2.7,1.3,2.7,3.7c0,2.4-1.1,3.7-2.7,3.7C1169.9,3081.2,1168.8,3079.9,1168.8,3077.5z M1173,3077.5c0-1.9-0.6-2.8-1.6-2.8
			c-0.9,0-1.6,0.9-1.6,2.8c0,1.9,0.6,2.8,1.6,2.8C1172.4,3080.3,1173,3079.4,1173,3077.5z"/>
	</g>
	<g class="st2">
		<path class="st4" d="M1567.4,2624.6h2.6v-8.4h-2.1v-0.9c1-0.2,1.8-0.4,2.4-0.8h1.1v10.2h2.4v1.2h-6.4V2624.6z"/>
		<path class="st4" d="M1575.7,2628c1-0.4,1.6-1.2,1.6-2.2c-0.1,0-0.1,0-0.2,0c-0.6,0-1.1-0.4-1.1-1c0-0.6,0.5-1,1.1-1
			c0.8,0,1.2,0.7,1.2,1.7c0,1.5-0.9,2.7-2.3,3.3L1575.7,2628z"/>
		<path class="st4" d="M1579.8,2624.4l0.7-1c0.7,0.7,1.5,1.3,2.9,1.3c1.4,0,2.5-1,2.5-2.6s-1-2.5-2.4-2.5c-0.8,0-1.3,0.3-2,0.7
			l-0.8-0.5l0.4-5.5h5.7v1.2h-4.4l-0.3,3.4c0.5-0.3,1-0.5,1.7-0.5c2,0,3.5,1.1,3.5,3.6s-1.9,3.9-3.8,3.9
			C1581.7,2626,1580.6,2625.2,1579.8,2624.4z"/>
		<path class="st4" d="M1588.7,2624.4l0.7-1c0.7,0.7,1.5,1.3,2.9,1.3c1.4,0,2.5-1,2.5-2.6s-1-2.5-2.4-2.5c-0.8,0-1.3,0.3-2,0.7
			l-0.8-0.5l0.4-5.5h5.7v1.2h-4.4l-0.3,3.4c0.5-0.3,1-0.5,1.7-0.5c2,0,3.5,1.1,3.5,3.6s-1.9,3.9-3.8,3.9
			C1590.6,2626,1589.5,2625.2,1588.7,2624.4z"/>
		<path class="st4" d="M1598.5,2624.6h2.6v-8.4h-2.1v-0.9c1-0.2,1.8-0.4,2.4-0.8h1.1v10.2h2.4v1.2h-6.4V2624.6z"/>
	</g>
	<g class="st2">
		<path class="st4" d="M1578,2690l0.8-0.9c0.4,0.6,1.2,0.9,1.9,0.9c1.6,0,3-1.2,3-4.9c-0.7,0.9-1.7,1.5-2.7,1.5
			c-2,0-3.3-1.2-3.3-3.5c0-2.2,1.5-3.6,3.4-3.6c2.3,0,3.9,1.8,3.9,5.5c0,4.6-2.1,6.3-4.3,6.3C1579.6,2691.2,1578.7,2690.7,1578,2690
			z M1581.3,2685.5c0.7,0,1.7-0.5,2.4-1.6c-0.2-2.2-1.1-3.4-2.5-3.4c-1.1,0-2,1-2,2.5C1579.2,2684.5,1579.9,2685.5,1581.3,2685.5z"
			/>
		<path class="st4" d="M1592.5,2680.8h-5.7v-1.2h7.3v0.9c-2.7,3.5-3.3,6.1-3.4,10.5h-1.5C1589.4,2686.7,1590.2,2684,1592.5,2680.8z"
			/>
	</g>
	<g class="st2">
		<path class="st4" d="M1575.8,2750.7c0-4.6,2.1-6.4,4.4-6.4c1.2,0,2.1,0.5,2.7,1.2l-0.8,0.9c-0.5-0.6-1.2-0.9-1.9-0.9
			c-1.6,0-3,1.2-3,4.9c0.7-0.9,1.7-1.4,2.7-1.4c2,0,3.2,1.2,3.2,3.5c0,2.2-1.5,3.7-3.4,3.7
			C1577.4,2756.2,1575.8,2754.4,1575.8,2750.7z M1577.2,2751.6c0.2,2.2,1.1,3.4,2.5,3.4c1.1,0,2-1,2-2.5c0-1.5-0.7-2.4-2.1-2.4
			C1578.8,2750.1,1577.9,2750.5,1577.2,2751.6z"/>
		<path class="st4" d="M1584.9,2755.1c0-0.7,0.5-1.1,1.1-1.1c0.6,0,1.1,0.5,1.1,1.1c0,0.7-0.5,1.1-1.1,1.1
			C1585.4,2756.2,1584.9,2755.8,1584.9,2755.1z"/>
		<path class="st4" d="M1588.9,2755.1c3.4-3.4,5.4-5.5,5.4-7.3c0-1.3-0.7-2.2-2.2-2.2c-1,0-1.8,0.6-2.4,1.4l-0.8-0.8
			c1-1,2-1.7,3.5-1.7c2.1,0,3.4,1.3,3.4,3.3c0,2.1-2,4.3-4.7,7.1c0.6,0,1.3-0.1,1.9-0.1h3.3v1.3h-7.4V2755.1z"/>
	</g>
	<g class="st2">
		<path class="st4" d="M1575.8,2815.7c0-4.6,2.1-6.4,4.4-6.4c1.2,0,2.1,0.5,2.7,1.2l-0.8,0.9c-0.5-0.6-1.2-0.9-1.9-0.9
			c-1.6,0-3,1.2-3,4.9c0.7-0.9,1.7-1.4,2.7-1.4c2,0,3.2,1.2,3.2,3.5c0,2.2-1.5,3.7-3.4,3.7
			C1577.4,2821.2,1575.8,2819.4,1575.8,2815.7z M1577.2,2816.6c0.2,2.2,1.1,3.4,2.5,3.4c1.1,0,2-1,2-2.5c0-1.5-0.7-2.4-2.1-2.4
			C1578.8,2815.1,1577.9,2815.5,1577.2,2816.6z"/>
		<path class="st4" d="M1584.9,2820.1c0-0.7,0.5-1.1,1.1-1.1c0.6,0,1.1,0.5,1.1,1.1c0,0.7-0.5,1.1-1.1,1.1
			C1585.4,2821.2,1584.9,2820.8,1584.9,2820.1z"/>
		<path class="st4" d="M1593.7,2817.8h-5.1v-1l4.9-7.3h1.6v7.1h1.6v1.2h-1.6v3.2h-1.4V2817.8z M1593.7,2816.7v-3.3
			c0-0.6,0-1.6,0.1-2.2h-0.1c-0.3,0.5-0.6,1-0.9,1.6l-2.7,3.9H1593.7z"/>
	</g>
	<g class="st2">
		<path class="st4" d="M1576.9,2875.8h-5.7v-1.2h7.3v0.9c-2.7,3.5-3.3,6.1-3.4,10.5h-1.5C1573.8,2881.7,1574.7,2879,1576.9,2875.8z"
			/>
		<path class="st4" d="M1580.1,2880.3c0-3.8,1.4-5.9,3.7-5.9c2.3,0,3.6,2.1,3.6,5.9c0,3.8-1.4,6-3.6,6
			C1581.5,2886.2,1580.1,2884.1,1580.1,2880.3z M1586,2880.3c0-3.3-0.9-4.7-2.2-4.7c-1.3,0-2.2,1.4-2.2,4.7c0,3.3,0.9,4.8,2.2,4.8
			C1585.1,2885,1586,2883.6,1586,2880.3z"/>
		<path class="st4" d="M1589.4,2885.1c0-0.7,0.5-1.1,1.1-1.1s1.1,0.5,1.1,1.1c0,0.7-0.5,1.1-1.1,1.1S1589.4,2885.8,1589.4,2885.1z"
			/>
		<path class="st4" d="M1593.5,2880.7c0-4.6,2.1-6.4,4.4-6.4c1.2,0,2.1,0.5,2.7,1.2l-0.8,0.9c-0.5-0.6-1.2-0.9-1.9-0.9
			c-1.6,0-3,1.2-3,4.9c0.7-0.9,1.7-1.4,2.7-1.4c2,0,3.2,1.2,3.2,3.5c0,2.2-1.5,3.7-3.4,3.7
			C1595.2,2886.2,1593.5,2884.4,1593.5,2880.7z M1594.9,2881.6c0.2,2.2,1.1,3.4,2.5,3.4c1.1,0,2-1,2-2.5c0-1.5-0.7-2.4-2.1-2.4
			C1596.6,2880.1,1595.7,2880.5,1594.9,2881.6z"/>
	</g>
	<g class="st2">
		<path class="st4" d="M1571.2,2950.1c3.4-3.4,5.4-5.5,5.4-7.3c0-1.3-0.7-2.2-2.2-2.2c-1,0-1.8,0.6-2.4,1.4l-0.8-0.8
			c1-1,2-1.7,3.5-1.7c2.1,0,3.4,1.3,3.4,3.3c0,2.1-2,4.3-4.7,7.1c0.6,0,1.3-0.1,1.9-0.1h3.3v1.3h-7.4V2950.1z"/>
		<path class="st4" d="M1579.8,2949.6l0.7-1c0.7,0.7,1.6,1.3,2.9,1.3c1.4,0,2.4-0.8,2.4-2.1c0-1.4-0.9-2.3-3.6-2.3v-1.1
			c2.4,0,3.2-0.9,3.2-2.1c0-1.1-0.8-1.8-2-1.8c-0.9,0-1.8,0.5-2.4,1.2l-0.8-0.9c0.9-0.8,1.9-1.4,3.3-1.4c2,0,3.4,1,3.4,2.9
			c0,1.4-0.8,2.3-2.1,2.7v0.1c1.4,0.3,2.5,1.3,2.5,2.9c0,2-1.7,3.2-3.8,3.2C1581.7,2951.2,1580.6,2950.4,1579.8,2949.6z"/>
		<path class="st4" d="M1589.4,2950.1c0-0.7,0.5-1.1,1.1-1.1s1.1,0.5,1.1,1.1c0,0.7-0.5,1.1-1.1,1.1S1589.4,2950.8,1589.4,2950.1z"
			/>
		<path class="st4" d="M1593.4,2945.3c0-3.8,1.4-5.9,3.7-5.9c2.3,0,3.6,2.1,3.6,5.9c0,3.8-1.4,6-3.6,6
			C1594.8,2951.2,1593.4,2949.1,1593.4,2945.3z M1599.3,2945.3c0-3.3-0.9-4.7-2.2-4.7c-1.3,0-2.2,1.4-2.2,4.7c0,3.3,0.9,4.8,2.2,4.8
			C1598.4,2950,1599.3,2948.6,1599.3,2945.3z"/>
	</g>
	<g class="st2">
		<path class="st4" d="M1576.3,3014.8h2.6v-8.4h-2.1v-0.9c1-0.2,1.8-0.4,2.4-0.8h1.1v10.2h2.4v1.2h-6.4V3014.8z"/>
		<path class="st4" d="M1584.9,3015.1c0-0.7,0.5-1.1,1.1-1.1c0.6,0,1.1,0.5,1.1,1.1c0,0.7-0.5,1.1-1.1,1.1
			C1585.4,3016.2,1584.9,3015.8,1584.9,3015.1z"/>
		<path class="st4" d="M1589.6,3014.8h2.6v-8.4h-2.1v-0.9c1-0.2,1.8-0.4,2.4-0.8h1.1v10.2h2.4v1.2h-6.4V3014.8z"/>
	</g>
	<g class="st2">
		<path class="st4" d="M1575.4,3079.6l0.7-1c0.7,0.7,1.6,1.3,2.9,1.3c1.4,0,2.4-0.8,2.4-2.1c0-1.4-0.9-2.3-3.6-2.3v-1.1
			c2.4,0,3.2-0.9,3.2-2.1c0-1.1-0.8-1.8-2-1.8c-0.9,0-1.8,0.5-2.4,1.2l-0.8-0.9c0.9-0.8,1.9-1.4,3.3-1.4c2,0,3.4,1,3.4,2.9
			c0,1.4-0.8,2.3-2.1,2.7v0.1c1.4,0.3,2.5,1.3,2.5,2.9c0,2-1.7,3.2-3.8,3.2C1577.3,3081.2,1576.1,3080.4,1575.4,3079.6z"/>
		<path class="st4" d="M1584.9,3080.1c0-0.7,0.5-1.1,1.1-1.1c0.6,0,1.1,0.5,1.1,1.1c0,0.7-0.5,1.1-1.1,1.1
			C1585.4,3081.2,1584.9,3080.8,1584.9,3080.1z"/>
		<path class="st4" d="M1593.7,3077.8h-5.1v-1l4.9-7.3h1.6v7.1h1.6v1.2h-1.6v3.2h-1.4V3077.8z M1593.7,3076.7v-3.3
			c0-0.6,0-1.6,0.1-2.2h-0.1c-0.3,0.5-0.6,1-0.9,1.6l-2.7,3.9H1593.7z"/>
	</g>
	<g class="st2">
		<path class="st4" d="M772.8,2620.1v1.1h-13v-1.1h5.8v-1.8h1.3v1.8H772.8z M760.6,2618c2.7-0.2,4.9-1.3,5-2.9h-4.4v-1h4.5v-1.5h1.3
			v1.5h4.5v1h-4.4c0.1,1.6,2.3,2.7,5,2.9l-0.4,1c-2.4-0.3-4.5-1.1-5.3-2.5c-0.9,1.4-3,2.3-5.3,2.5L760.6,2618z M771.2,2624.6
			c0,1.6-1.8,2.4-4.9,2.4s-4.9-0.8-4.9-2.4s1.8-2.4,4.9-2.4S771.2,2623,771.2,2624.6z M769.9,2624.6c0-0.9-1.3-1.4-3.6-1.4
			s-3.6,0.5-3.6,1.4s1.3,1.4,3.6,1.4S769.9,2625.5,769.9,2624.6z"/>
		<path class="st4" d="M786,2616.7c0,2-1.6,3.3-3.8,3.3c-2.2,0-3.7-1.4-3.7-3.3c0-2,1.6-3.3,3.7-3.3
			C784.4,2613.4,786,2614.7,786,2616.7z M779.8,2616.7c0,1.3,1,2.3,2.4,2.3c1.4,0,2.5-0.9,2.5-2.3c0-1.3-1-2.3-2.5-2.3
			C780.8,2614.5,779.8,2615.4,779.8,2616.7z M789.9,2621.6v5.2h-9.3v-5.2H789.9z M781.9,2622.6v3.1h6.7v-3.1H781.9z M789.9,2612.6
			v8.2h-1.3v-8.2H789.9z"/>
		<path class="st4" d="M801,2620.7c-1.6-0.6-3-1.8-3.6-3.3c-0.6,1.6-1.9,2.9-3.6,3.5l-0.7-1c2.2-0.8,3.6-2.6,3.6-4.7v-0.6h-3.3v-1.1
			h7.9v1.1H798v0.6c0,1.9,1.5,3.7,3.6,4.4L801,2620.7z M795,2622.1h9.6v4.9h-1.3v-3.9H795V2622.1z M804.7,2612.6v8.7h-1.3v-8.7
			H804.7z"/>
		<path class="st4" d="M811.7,2620.3c-1.4,0.1-2.8,0.1-4,0.1l-0.2-1.1c2.7,0,6.2,0,9.3-0.4l0.1,0.9c-1.3,0.2-2.6,0.3-3.9,0.4v2.8
			h-1.3V2620.3z M808.6,2615.7c0-1.5,1.4-2.5,3.5-2.5c2.1,0,3.5,1,3.5,2.5c0,1.5-1.4,2.5-3.5,2.5
			C810.1,2618.2,808.6,2617.2,808.6,2615.7z M819.7,2625.6v1.1h-10.1v-4.2h1.3v3.1H819.7z M809.9,2615.7c0,0.9,0.9,1.5,2.3,1.5
			c1.4,0,2.3-0.6,2.3-1.5c0-0.9-0.9-1.5-2.3-1.5C810.8,2614.2,809.9,2614.8,809.9,2615.7z M818,2621.1v-8.5h1.3v10.9H818v-1.5h-2.9
			v-1H818z"/>
		<path class="st4" d="M838.9,2621.8H833v5.2h-1.3v-5.2h-5.8v-1.1h13L838.9,2621.8z M837.7,2619.1c-2.2-0.4-4.4-1.6-5.3-3.4
			c-0.9,1.7-3.1,3-5.3,3.4l-0.5-1.1c2.6-0.4,5.1-2.1,5.1-4.2v-0.8h1.4v0.8c0,2,2.6,3.8,5.2,4.2L837.7,2619.1z"/>
	</g>
	<g class="st2">
		<path class="st4" d="M766.7,2879.4c-0.7,0.8-1.7,1.4-2.9,1.4c-2.1,0-3.7-1.5-3.7-3.6s1.6-3.6,3.7-3.6c1.2,0,2.3,0.5,2.9,1.3h3.6
			v-2.2h1.3v10.6h-1.3v-3.9H766.7z M763.8,2879.6c1.4,0,2.4-1,2.4-2.4c0-1.4-1-2.4-2.4-2.4c-1.4,0-2.4,1-2.4,2.4
			C761.3,2878.5,762.4,2879.6,763.8,2879.6z M772.1,2885.6v1.1h-9.6v-4.5h1.3v3.4H772.1z M767.3,2875.9c0.1,0.4,0.2,0.8,0.2,1.2
			c0,0.4-0.1,0.8-0.2,1.2h3.1v-2.4H767.3z"/>
		<path class="st4" d="M782.3,2880.4c-1.8,0.3-3.2,0.4-6.1,0.4h-1v-4.3h4.9v-2h-4.9v-1.1h6.2v4h-4.9v2.2c2.6,0,4-0.1,5.7-0.4
			L782.3,2880.4z M786.4,2884.4c0,1.7-1.8,2.7-4.8,2.7c-3,0-4.8-1-4.8-2.7c0-1.7,1.8-2.6,4.8-2.6
			C784.6,2881.8,786.4,2882.7,786.4,2884.4z M785.1,2884.4c0-1-1.3-1.6-3.5-1.6c-2.2,0-3.5,0.6-3.5,1.6c0,1,1.3,1.6,3.5,1.6
			C783.8,2886,785.1,2885.4,785.1,2884.4z M785.1,2878.9h-2.8v-1.1h2.8v-1.9h-2.8v-1.1h2.8v-2.2h1.3v8.9h-1.3V2878.9z"/>
		<path class="st4" d="M796.5,2879.5H790v-6.3h1.3v2h3.9v-2h1.3v1.4h3.3v-2h1.3v7.5h-1.3v-1.8h-3.3V2879.5z M795.2,2876.4h-3.9v2.1
			h3.9V2876.4z M801.6,2885.7v1h-9.8v-3.6h7.9v-1.4h-8v-1h9.3v3.4h-7.9v1.5H801.6z M796.5,2875.7v1.6h3.3v-1.6H796.5z"/>
	</g>
	<g class="st2">
		<path class="st4" d="M878.5,2884.6l0.7-1c0.7,0.7,1.6,1.3,2.9,1.3c1.4,0,2.4-0.8,2.4-2.1c0-1.4-0.9-2.3-3.6-2.3v-1.1
			c2.4,0,3.2-0.9,3.2-2.1c0-1.1-0.8-1.8-2-1.8c-0.9,0-1.8,0.5-2.4,1.2l-0.8-0.9c0.9-0.8,1.9-1.4,3.3-1.4c2,0,3.4,1,3.4,2.9
			c0,1.4-0.8,2.3-2.1,2.7v0.1c1.4,0.3,2.5,1.3,2.5,2.9c0,2-1.7,3.2-3.8,3.2C880.4,2886.2,879.2,2885.4,878.5,2884.6z"/>
		<path class="st4" d="M887.7,2880.3c0-3.8,1.4-5.9,3.7-5.9s3.6,2.1,3.6,5.9c0,3.8-1.4,6-3.6,6S887.7,2884.1,887.7,2880.3z
			 M893.6,2880.3c0-3.3-0.9-4.7-2.2-4.7c-1.3,0-2.2,1.4-2.2,4.7c0,3.3,0.9,4.8,2.2,4.8C892.7,2885,893.6,2883.6,893.6,2880.3z"/>
		<path class="st4" d="M898.6,2879.9c-0.5,0-1,0.3-1.4,1.1l-0.8-0.6c0.7-1.1,1.5-1.6,2.2-1.6c1.4,0,2.2,1.5,3.2,1.5
			c0.5,0,1-0.3,1.4-1.1l0.8,0.6c-0.7,1.1-1.5,1.6-2.2,1.6C900.4,2881.4,899.6,2879.9,898.6,2879.9z"/>
		<path class="st4" d="M905.1,2884.7l0.7-1c0.7,0.7,1.5,1.3,2.9,1.3c1.4,0,2.5-1,2.5-2.6s-1-2.5-2.4-2.5c-0.8,0-1.3,0.3-2,0.7
			l-0.8-0.5l0.4-5.5h5.7v1.2h-4.4l-0.3,3.4c0.5-0.3,1-0.5,1.7-0.5c2,0,3.5,1.1,3.5,3.6s-1.9,3.9-3.8,3.9
			C907,2886.2,905.9,2885.4,905.1,2884.7z"/>
		<path class="st4" d="M914.3,2880.3c0-3.8,1.4-5.9,3.7-5.9s3.6,2.1,3.6,5.9c0,3.8-1.4,6-3.6,6S914.3,2884.1,914.3,2880.3z
			 M920.2,2880.3c0-3.3-0.9-4.7-2.2-4.7c-1.3,0-2.2,1.4-2.2,4.7c0,3.3,0.9,4.8,2.2,4.8C919.3,2885,920.2,2883.6,920.2,2880.3z"/>
		<path class="st4" d="M927.5,2876.9c0,2.3,1.1,4.7,3,5.9l-0.8,1c-1.4-0.8-2.3-2.4-2.8-4.1c-0.5,1.9-1.6,3.5-3,4.4l-0.8-1
			c2-1.2,3.2-3.7,3.2-6.2v-2.7h1.3V2876.9z M931.3,2873.1h1.2v13.3h-1.2v-7.4h-2.4v-1.1h2.4V2873.1z M935.4,2872.8v14.4h-1.2v-14.4
			H935.4z"/>
	</g>
	<g class="st2">
		<path class="st4" d="M771.7,2709.1v14.4h-1.3v-5.6h-3.6c-0.6,1.5-1.7,2.3-3.1,2.3c-2.1,0-3.6-2-3.6-5c0-3.1,1.5-5,3.6-5
			c1.3,0,2.4,0.8,3,2.1h3.7v-3.2H771.7z M766,2715.2c0-2.3-1-3.8-2.3-3.8c-1.4,0-2.3,1.5-2.3,3.8c0,2.3,1,3.8,2.3,3.8
			C765.1,2719.1,766,2717.6,766,2715.2z M770.4,2716.9v-3.5h-3.3c0.1,0.6,0.2,1.2,0.2,1.8c0,0.6-0.1,1.1-0.2,1.6H770.4z"/>
		<path class="st4" d="M782.3,2716.9c-1.6-0.6-2.8-1.7-3.4-3.2c-0.6,1.7-1.9,3-3.6,3.6l-0.7-1.1c2.2-0.8,3.6-2.7,3.6-4.9v-1.5h1.3
			v1.4c0,2,1.4,3.8,3.5,4.6L782.3,2716.9z M786.4,2720.7c0,1.7-1.8,2.7-4.8,2.7c-2.9,0-4.8-1-4.8-2.7c0-1.7,1.8-2.7,4.8-2.7
			C784.6,2718,786.4,2719,786.4,2720.7z M785.1,2720.7c0-1.1-1.3-1.7-3.5-1.7c-2.2,0-3.5,0.6-3.5,1.7c0,1,1.3,1.7,3.5,1.7
			C783.8,2722.4,785.1,2721.8,785.1,2720.7z M785.1,2713.2h-3.1v-1.1h3.1v-3h1.3v8.5h-1.3V2713.2z"/>
		<path class="st4" d="M800.7,2713.2c0,2-1.6,3.3-3.8,3.3c-2.2,0-3.7-1.4-3.7-3.3c0-2,1.6-3.3,3.7-3.3
			C799.1,2709.9,800.7,2711.2,800.7,2713.2z M794.5,2713.2c0,1.3,1,2.3,2.4,2.3c1.4,0,2.5-0.9,2.5-2.3c0-1.3-1-2.3-2.5-2.3
			C795.5,2711,794.5,2711.9,794.5,2713.2z M804.7,2718.1v5.2h-9.3v-5.2H804.7z M796.6,2719.1v3.1h6.7v-3.1H796.6z M804.7,2709.1v8.2
			h-1.3v-8.2H804.7z"/>
		<path class="st4" d="M815.7,2717.2c-1.6-0.6-3-1.8-3.6-3.3c-0.6,1.6-1.9,2.9-3.6,3.5l-0.7-1c2.2-0.8,3.6-2.6,3.6-4.7v-0.6h-3.3
			v-1.1h7.9v1.1h-3.2v0.6c0,1.9,1.5,3.7,3.6,4.4L815.7,2717.2z M809.8,2718.6h9.6v4.9h-1.3v-3.9h-8.3V2718.6z M819.4,2709.1v8.7
			h-1.3v-8.7H819.4z"/>
		<path class="st4" d="M826.4,2716.8c-1.4,0.1-2.8,0.1-4,0.1l-0.2-1.1c2.7,0,6.2,0,9.3-0.4l0.1,0.9c-1.3,0.2-2.6,0.3-3.9,0.4v2.8
			h-1.3V2716.8z M823.4,2712.2c0-1.5,1.4-2.5,3.5-2.5c2.1,0,3.5,1,3.5,2.5c0,1.5-1.4,2.5-3.5,2.5
			C824.8,2714.7,823.4,2713.7,823.4,2712.2z M834.4,2722.1v1.1h-10.1v-4.2h1.3v3.1H834.4z M824.6,2712.2c0,0.9,0.9,1.5,2.3,1.5
			c1.4,0,2.3-0.6,2.3-1.5c0-0.9-0.9-1.5-2.3-1.5C825.5,2710.7,824.6,2711.3,824.6,2712.2z M832.7,2717.6v-8.5h1.3v10.9h-1.3v-1.5
			h-2.9v-1H832.7z"/>
	</g>
	<g class="st2">
		<path class="st4" d="M890.7,2677.8v14.4h-1.3v-5.6h-3.6c-0.6,1.5-1.7,2.3-3.1,2.3c-2.1,0-3.6-2-3.6-5c0-3.1,1.5-5,3.6-5
			c1.3,0,2.4,0.8,3,2.1h3.7v-3.2H890.7z M885,2683.9c0-2.3-1-3.8-2.3-3.8c-1.4,0-2.3,1.5-2.3,3.8c0,2.3,1,3.8,2.3,3.8
			C884.1,2687.8,885,2686.3,885,2683.9z M889.4,2685.6v-3.5h-3.3c0.1,0.6,0.2,1.2,0.2,1.8c0,0.6-0.1,1.1-0.2,1.6H889.4z"/>
		<path class="st4" d="M901.3,2685.7c-1.6-0.6-2.8-1.7-3.4-3.2c-0.6,1.7-1.9,3-3.6,3.6l-0.7-1.1c2.2-0.8,3.6-2.7,3.6-4.9v-1.5h1.3
			v1.4c0,2,1.4,3.8,3.5,4.6L901.3,2685.7z M905.4,2689.5c0,1.7-1.8,2.7-4.8,2.7c-2.9,0-4.8-1-4.8-2.7c0-1.7,1.8-2.7,4.8-2.7
			C903.6,2686.8,905.4,2687.7,905.4,2689.5z M904.1,2689.5c0-1.1-1.3-1.7-3.5-1.7c-2.2,0-3.5,0.6-3.5,1.7c0,1,1.3,1.7,3.5,1.7
			C902.8,2691.1,904.1,2690.5,904.1,2689.5z M904.1,2682h-3.1v-1.1h3.1v-3h1.3v8.5h-1.3V2682z"/>
		<path class="st4" d="M919.7,2681.9c0,2-1.6,3.3-3.8,3.3c-2.2,0-3.7-1.4-3.7-3.3c0-2,1.6-3.3,3.7-3.3
			C918.1,2678.6,919.7,2680,919.7,2681.9z M913.5,2681.9c0,1.3,1,2.3,2.4,2.3c1.4,0,2.5-0.9,2.5-2.3c0-1.3-1-2.3-2.5-2.3
			C914.5,2679.7,913.5,2680.6,913.5,2681.9z M923.7,2686.8v5.2h-9.3v-5.2H923.7z M915.6,2687.9v3.1h6.7v-3.1H915.6z M923.7,2677.8
			v8.2h-1.3v-8.2H923.7z"/>
		<path class="st4" d="M934.7,2685.9c-1.6-0.6-3-1.8-3.6-3.3c-0.6,1.6-1.9,2.9-3.6,3.5l-0.7-1c2.2-0.8,3.6-2.6,3.6-4.7v-0.6h-3.3
			v-1.1h7.9v1.1h-3.2v0.6c0,1.9,1.5,3.7,3.6,4.4L934.7,2685.9z M928.8,2687.3h9.6v4.9h-1.3v-3.9h-8.3V2687.3z M938.4,2677.8v8.7
			h-1.3v-8.7H938.4z"/>
		<path class="st4" d="M945.4,2685.5c-1.4,0.1-2.8,0.1-4,0.1l-0.2-1.1c2.7,0,6.2,0,9.3-0.4l0.1,0.9c-1.3,0.2-2.6,0.3-3.9,0.4v2.8
			h-1.3V2685.5z M942.4,2680.9c0-1.5,1.4-2.5,3.5-2.5c2.1,0,3.5,1,3.5,2.5c0,1.5-1.4,2.5-3.5,2.5
			C943.8,2683.4,942.4,2682.4,942.4,2680.9z M953.4,2690.8v1.1h-10.1v-4.2h1.3v3.1H953.4z M943.6,2680.9c0,0.9,0.9,1.5,2.3,1.5
			c1.4,0,2.3-0.6,2.3-1.5c0-0.9-0.9-1.5-2.3-1.5C944.5,2679.4,943.6,2680,943.6,2680.9z M951.7,2686.3v-8.5h1.3v10.9h-1.3v-1.5h-2.9
			v-1H951.7z"/>
		<path class="st4" d="M972.6,2687h-5.9v5.2h-1.3v-5.2h-5.8v-1.1h13L972.6,2687z M971.4,2684.4c-2.2-0.4-4.4-1.6-5.3-3.4
			c-0.9,1.7-3.1,3-5.3,3.4l-0.5-1.1c2.6-0.4,5.1-2.1,5.1-4.2v-0.8h1.4v0.8c0,2,2.6,3.8,5.2,4.2L971.4,2684.4z"/>
	</g>
	<g class="st2">
		<path class="st4" d="M878.4,2949.7l0.7-1c0.7,0.7,1.5,1.3,2.9,1.3c1.4,0,2.5-1,2.5-2.6s-1-2.5-2.4-2.5c-0.8,0-1.3,0.3-2,0.7
			l-0.8-0.5l0.4-5.5h5.7v1.2H881l-0.3,3.4c0.5-0.3,1-0.5,1.7-0.5c2,0,3.5,1.1,3.5,3.6s-1.9,3.9-3.8,3.9
			C880.4,2951.2,879.2,2950.4,878.4,2949.7z"/>
		<path class="st4" d="M887.7,2945.3c0-3.8,1.4-5.9,3.7-5.9s3.6,2.1,3.6,5.9c0,3.8-1.4,6-3.6,6S887.7,2949.1,887.7,2945.3z
			 M893.6,2945.3c0-3.3-0.9-4.7-2.2-4.7c-1.3,0-2.2,1.4-2.2,4.7c0,3.3,0.9,4.8,2.2,4.8C892.7,2950,893.6,2948.6,893.6,2945.3z"/>
		<path class="st4" d="M900.9,2941.9c0,2.3,1.1,4.7,3,5.9l-0.8,1c-1.4-0.8-2.3-2.4-2.8-4.1c-0.5,1.9-1.6,3.5-3,4.4l-0.8-1
			c2-1.2,3.2-3.7,3.2-6.2v-2.7h1.3V2941.9z M904.6,2938.1h1.2v13.3h-1.2v-7.4h-2.4v-1.1h2.4V2938.1z M908.8,2937.8v14.4h-1.2v-14.4
			H908.8z"/>
		<path class="st4" d="M927.9,2949.3v1.1h-13v-1.1h5.8v-3.3h1.3v3.3H927.9z M915.6,2945.5c2.8-0.4,5.1-2.1,5.1-4.3h-4.6v-1.1h4.6v-2
			h1.3v2h4.6v1.1h-4.6c0,2.2,2.3,3.9,5.1,4.3l-0.5,1c-2.3-0.4-4.4-1.6-5.3-3.3c-0.9,1.8-3,2.9-5.3,3.3L915.6,2945.5z"/>
		<path class="st4" d="M933.8,2947.9c1.6-0.1,3.2-0.2,4.6-0.3l0.1,1c-3,0.5-6.4,0.5-8.9,0.5l-0.1-1.1c0.9,0,2,0,3,0v-4.4h1.3V2947.9
			z M935.8,2945.7c0.4-2.4,0.4-4.1,0.4-5.3h-6v-1.1h7.3v0.8c0,1.2,0,3-0.4,5.7L935.8,2945.7z M942.9,2944.9h-2.3v7.3h-1.3v-14.4h1.3
			v6h2.3V2944.9z"/>
	</g>
	<g class="st2">
		<path class="st4" d="M891.8,2750.3v1.1h-13v-1.1h5.8v-1.8h1.3v1.8H891.8z M879.6,2748.2c2.7-0.2,4.9-1.3,5-2.9h-4.4v-1h4.5v-1.5
			h1.3v1.5h4.5v1h-4.4c0.1,1.6,2.3,2.7,5,2.9l-0.4,1c-2.4-0.3-4.5-1.1-5.3-2.5c-0.9,1.4-3,2.3-5.3,2.5L879.6,2748.2z M890.2,2754.8
			c0,1.6-1.8,2.4-4.9,2.4s-4.9-0.8-4.9-2.4s1.8-2.4,4.9-2.4S890.2,2753.2,890.2,2754.8z M888.9,2754.8c0-0.9-1.3-1.4-3.6-1.4
			s-3.6,0.5-3.6,1.4s1.3,1.4,3.6,1.4S888.9,2755.7,888.9,2754.8z"/>
		<path class="st4" d="M905.3,2750.9c-1.6-0.6-3-1.8-3.6-3.3c-0.6,1.6-1.9,2.9-3.6,3.5l-0.7-1c2.2-0.8,3.6-2.6,3.6-4.7v-0.6h-3.3
			v-1.1h7.9v1.1h-3.2v0.6c0,1.9,1.5,3.7,3.6,4.4L905.3,2750.9z M899.3,2752.3h9.6v4.9h-1.3v-3.9h-8.3V2752.3z M908.9,2742.8v8.7
			h-1.3v-8.7H908.9z"/>
		<path class="st4" d="M916,2750.5c-1.4,0.1-2.8,0.1-4,0.1l-0.2-1.1c2.7,0,6.2,0,9.3-0.4l0.1,0.9c-1.3,0.2-2.6,0.3-3.9,0.4v2.8H916
			V2750.5z M912.9,2745.9c0-1.5,1.4-2.5,3.5-2.5c2.1,0,3.5,1,3.5,2.5c0,1.5-1.4,2.5-3.5,2.5C914.4,2748.4,912.9,2747.4,912.9,2745.9
			z M924,2755.8v1.1h-10.1v-4.2h1.3v3.1H924z M914.2,2745.9c0,0.9,0.9,1.5,2.3,1.5c1.4,0,2.3-0.6,2.3-1.5c0-0.9-0.9-1.5-2.3-1.5
			C915.1,2744.4,914.2,2745,914.2,2745.9z M922.3,2751.3v-8.5h1.3v10.9h-1.3v-1.5h-2.9v-1H922.3z"/>
		<path class="st4" d="M932,2752.6c1.9,0,3.3-0.1,4.8-0.4l0.1,1.1c-1.7,0.4-3.2,0.4-5.3,0.4h-0.9v-9.1h5.3v1.1h-4V2752.6z
			 M942.4,2742.8v14.4h-1.3v-7.5h-2v6.8h-1.2v-13.3h1.2v5.4h2v-5.8H942.4z"/>
		<path class="st4" d="M947,2744v3.8h4.2v-3.8h1.3v9.7h-6.8v-9.7H947z M947,2752.7h4.2v-3.8H947V2752.7z M956.6,2742.8v14.4h-1.3
			v-14.4H956.6z"/>
		<path class="st4" d="M975,2742.8v14.4h-1.3v-5.6h-3.6c-0.6,1.5-1.7,2.3-3.1,2.3c-2.1,0-3.6-2-3.6-5c0-3.1,1.5-5,3.6-5
			c1.3,0,2.4,0.8,3,2.1h3.7v-3.2H975z M969.4,2748.9c0-2.3-1-3.8-2.3-3.8c-1.4,0-2.3,1.5-2.3,3.8c0,2.3,1,3.8,2.3,3.8
			C968.4,2752.8,969.4,2751.3,969.4,2748.9z M973.7,2750.6v-3.5h-3.3c0.1,0.6,0.2,1.2,0.2,1.8c0,0.6-0.1,1.1-0.2,1.6H973.7z"/>
		<path class="st4" d="M985.6,2750.7c-1.6-0.6-2.8-1.7-3.4-3.2c-0.6,1.7-1.9,3-3.6,3.6l-0.7-1.1c2.2-0.8,3.6-2.7,3.6-4.9v-1.5h1.3
			v1.4c0,2,1.4,3.8,3.5,4.6L985.6,2750.7z M989.8,2754.5c0,1.7-1.8,2.7-4.8,2.7c-2.9,0-4.8-1-4.8-2.7c0-1.7,1.8-2.7,4.8-2.7
			C988,2751.8,989.8,2752.7,989.8,2754.5z M988.5,2754.5c0-1.1-1.3-1.7-3.5-1.7c-2.2,0-3.5,0.6-3.5,1.7c0,1,1.3,1.7,3.5,1.7
			C987.2,2756.1,988.5,2755.5,988.5,2754.5z M988.4,2747h-3.1v-1.1h3.1v-3h1.3v8.5h-1.3V2747z"/>
		<path class="st4" d="M1004.1,2746.9c0,2-1.6,3.3-3.8,3.3c-2.2,0-3.7-1.4-3.7-3.3c0-2,1.6-3.3,3.7-3.3
			C1002.5,2743.6,1004.1,2745,1004.1,2746.9z M997.8,2746.9c0,1.3,1,2.3,2.4,2.3c1.4,0,2.5-0.9,2.5-2.3c0-1.3-1-2.3-2.5-2.3
			C998.9,2744.7,997.8,2745.6,997.8,2746.9z M1008,2751.8v5.2h-9.3v-5.2H1008z M1000,2752.9v3.1h6.7v-3.1H1000z M1008,2742.8v8.2
			h-1.3v-8.2H1008z"/>
		<path class="st4" d="M1019.1,2750.9c-1.6-0.6-3-1.8-3.6-3.3c-0.6,1.6-1.9,2.9-3.6,3.5l-0.7-1c2.2-0.8,3.6-2.6,3.6-4.7v-0.6h-3.3
			v-1.1h7.9v1.1h-3.2v0.6c0,1.9,1.5,3.7,3.6,4.4L1019.1,2750.9z M1013.1,2752.3h9.6v4.9h-1.3v-3.9h-8.3V2752.3z M1022.7,2742.8v8.7
			h-1.3v-8.7H1022.7z"/>
		<path class="st4" d="M1029.7,2750.5c-1.4,0.1-2.8,0.1-4,0.1l-0.2-1.1c2.7,0,6.2,0,9.3-0.4l0.1,0.9c-1.3,0.2-2.6,0.3-3.9,0.4v2.8
			h-1.3V2750.5z M1026.7,2745.9c0-1.5,1.4-2.5,3.5-2.5c2.1,0,3.5,1,3.5,2.5c0,1.5-1.4,2.5-3.5,2.5
			C1028.2,2748.4,1026.7,2747.4,1026.7,2745.9z M1037.8,2755.8v1.1h-10.1v-4.2h1.3v3.1H1037.8z M1028,2745.9c0,0.9,0.9,1.5,2.3,1.5
			c1.4,0,2.3-0.6,2.3-1.5c0-0.9-0.9-1.5-2.3-1.5C1028.9,2744.4,1028,2745,1028,2745.9z M1036.1,2751.3v-8.5h1.3v10.9h-1.3v-1.5h-2.9
			v-1H1036.1z"/>
		<path class="st4" d="M1046.1,2744v3.8h4.2v-3.8h1.3v9.7h-6.8v-9.7H1046.1z M1046.1,2752.7h4.2v-3.8h-4.2V2752.7z M1055.7,2742.8
			v14.4h-1.3v-14.4H1055.7z"/>
		<path class="st4" d="M1068.1,2749.9v1.4h1.9v3.2h-8.4v1.5h8.9v1h-10.1v-3.4h8.4v-1.3h-8.5v-1h2v-1.4h-3.5v-1.1h13v1.1H1068.1z
			 M1060.1,2745.5c0-1.6,1.9-2.5,5-2.5c3.2,0,5,0.9,5,2.5c0,1.6-1.9,2.5-5,2.5C1062,2748,1060.1,2747.1,1060.1,2745.5z
			 M1061.5,2745.5c0,1,1.4,1.5,3.7,1.5c2.4,0,3.7-0.5,3.7-1.5c0-1-1.3-1.5-3.7-1.5C1062.8,2744,1061.5,2744.5,1061.5,2745.5z
			 M1066.8,2749.9h-3.3v1.4h3.3V2749.9z"/>
	</g>
	<g class="st2">
		<path class="st4" d="M764.7,3026.9c0,2.5,1.6,5.1,3.6,6.1l-0.8,1c-1.5-0.8-2.8-2.5-3.5-4.5c-0.6,2.1-2,3.9-3.6,4.8l-0.8-1.1
			c2.1-1.1,3.7-3.8,3.7-6.4v-2.6h1.3V3026.9z M773.3,3030h-2.4v7.4h-1.3v-14.3h1.3v5.8h2.4V3030z"/>
		<path class="st4" d="M780,3033.5c1.4-0.1,2.8-0.2,4.1-0.3l0.1,1c-3.2,0.5-6.7,0.6-9.3,0.6l-0.2-1.1c1.2,0,2.6,0,4-0.1v-1.5
			c-1.7-0.2-2.8-1.2-2.8-2.6c0-1.6,1.4-2.7,3.5-2.7s3.4,1,3.4,2.7c0,1.4-1.1,2.4-2.8,2.6V3033.5z M783.7,3025.9H775v-1.1h3.7v-1.8
			h1.3v1.8h3.7V3025.9z M779.3,3031c1.3,0,2.2-0.6,2.2-1.6c0-1-0.9-1.6-2.2-1.6c-1.3,0-2.2,0.6-2.2,1.6
			C777.1,3030.4,778,3031,779.3,3031z M786.3,3023.1v14.4H785v-14.4H786.3z"/>
		<path class="st4" d="M797.1,3031.1c-1.6-0.6-2.8-1.8-3.5-3.2c-0.6,1.6-1.9,3-3.6,3.6l-0.7-1c2.1-0.8,3.6-2.7,3.6-4.7v-0.6h-3.2
			v-1.1h7.7v1.1h-3.2v0.6c0,1.8,1.4,3.6,3.5,4.4L797.1,3031.1z M791.5,3032.5h9.6v5h-1.3v-3.9h-8.3V3032.5z M801.1,3023.1v8.6h-1.3
			v-3.8H797v-1.1h2.8v-3.7H801.1z"/>
	</g>
	<g class="st2">
		<path class="st4" d="M772.9,3056.5v1.1h-13v-1.1h5.8v-3.5h1.3v3.5H772.9z M771.7,3053.2c-2.2-0.5-4.4-2-5.4-4
			c-0.9,2-3.2,3.5-5.4,4l-0.5-1.1c2.5-0.4,5.2-2.6,5.2-4.9v-1.1h1.4v1.1c0,2.4,2.7,4.5,5.2,4.9L771.7,3053.2z"/>
		<path class="st4" d="M787.6,3054.3h-5.9v5.2h-1.3v-5.2h-5.8v-1.1h13L787.6,3054.3z M786.4,3051.6c-2.2-0.4-4.4-1.6-5.3-3.4
			c-0.9,1.7-3.1,3-5.3,3.4l-0.5-1.1c2.6-0.4,5.1-2.1,5.1-4.2v-0.8h1.4v0.8c0,2,2.6,3.8,5.2,4.2L786.4,3051.6z"/>
		<path class="st4" d="M797.4,3045.5h1.2v13.2h-1.2v-5h-2.6v-1.1h2.6v-2.5H795c-0.7,2.4-2.2,4.6-4.9,6.2l-0.8-0.9
			c3.1-1.8,4.6-4.4,4.8-7.4h-4.2v-1.1h5.5c0,0.7-0.1,1.5-0.2,2.2h2.1V3045.5z M801.5,3045.1v14.3h-1.2v-14.3H801.5z"/>
		<path class="st4" d="M817,3052.4v1.1h-13v-1.1H817z M804.8,3050.5c2.7-0.3,4.9-1.3,5-2.9h-4.4v-1h4.5v-1.5h1.3v1.5h4.5v1h-4.4
			c0.1,1.6,2.3,2.6,5,2.9l-0.4,1c-2.4-0.2-4.5-1.1-5.3-2.5c-0.9,1.4-3,2.3-5.3,2.5L804.8,3050.5z M815.4,3057.1
			c0,1.6-1.8,2.4-4.9,2.4s-4.9-0.8-4.9-2.4s1.8-2.4,4.9-2.4S815.4,3055.5,815.4,3057.1z M814.1,3057.1c0-0.9-1.3-1.4-3.6-1.4
			s-3.6,0.5-3.6,1.4s1.3,1.4,3.6,1.4S814.1,3058,814.1,3057.1z"/>
	</g>
	<g class="st2">
		<path class="st4" d="M886.5,3010.8c-1.6-0.5-2.9-1.7-3.5-3.1c-0.6,1.6-1.9,2.9-3.6,3.5l-0.7-1c2.2-0.8,3.6-2.6,3.6-4.7v-0.6h-3.2
			v-1.1h7.7v1.1h-3.2v0.6c0,1.9,1.4,3.6,3.5,4.3L886.5,3010.8z M890.1,3014.5c0,1.7-1.8,2.7-4.7,2.7c-2.9,0-4.7-1-4.7-2.7
			c0-1.7,1.8-2.6,4.7-2.6C888.3,3011.9,890.1,3012.8,890.1,3014.5z M888.8,3014.5c0-1-1.3-1.6-3.4-1.6c-2.1,0-3.4,0.6-3.4,1.6
			c0,1,1.3,1.6,3.4,1.6C887.5,3016.1,888.8,3015.5,888.8,3014.5z M892.1,3006.5v1.1H890v3.9h-1.3v-8.7h1.3v3.6H892.1z"/>
		<path class="st4" d="M899.9,3009c0,3.1-1.2,5-3.1,5c-1.9,0-3.1-1.9-3.1-5c0-3.1,1.2-5,3.1-5C898.7,3004,899.9,3005.9,899.9,3009z
			 M898.7,3009c0-2.3-0.7-3.8-1.9-3.8c-1.1,0-1.9,1.5-1.9,3.8c0,2.3,0.7,3.8,1.9,3.8C897.9,3012.8,898.7,3011.4,898.7,3009z
			 M905.8,3002.8v14.4h-1.2v-7.6h-1.9v6.9h-1.2v-13.3h1.2v5.4h1.9v-5.7H905.8z"/>
		<path class="st4" d="M912.4,3010.9c-2.1,0-3.7-1.5-3.7-3.6c0-2.1,1.6-3.5,3.7-3.5c2.1,0,3.8,1.5,3.8,3.5
			C916.1,3009.4,914.5,3010.9,912.4,3010.9z M912.4,3009.8c1.4,0,2.5-1,2.5-2.4c0-1.4-1.1-2.4-2.5-2.4c-1.4,0-2.4,1-2.4,2.4
			C909.9,3008.8,911,3009.8,912.4,3009.8z M920.5,3015.8v1.1h-9.7v-4.6h1.3v3.5H920.5z M920.1,3013.3h-1.3v-10.5h1.3V3013.3z"/>
	</g>
	<g class="st2">
		<path class="st4" d="M878.5,2819.6l0.7-1c0.7,0.7,1.6,1.3,2.9,1.3c1.4,0,2.4-0.8,2.4-2.1c0-1.4-0.9-2.3-3.6-2.3v-1.1
			c2.4,0,3.2-0.9,3.2-2.1c0-1.1-0.8-1.8-2-1.8c-0.9,0-1.8,0.5-2.4,1.2l-0.8-0.9c0.9-0.8,1.9-1.4,3.3-1.4c2,0,3.4,1,3.4,2.9
			c0,1.4-0.8,2.3-2.1,2.7v0.1c1.4,0.3,2.5,1.3,2.5,2.9c0,2-1.7,3.2-3.8,3.2C880.4,2821.2,879.2,2820.4,878.5,2819.6z"/>
		<path class="st4" d="M887.7,2815.3c0-3.8,1.4-5.9,3.7-5.9s3.6,2.1,3.6,5.9c0,3.8-1.4,6-3.6,6S887.7,2819.1,887.7,2815.3z
			 M893.6,2815.3c0-3.3-0.9-4.7-2.2-4.7c-1.3,0-2.2,1.4-2.2,4.7c0,3.3,0.9,4.8,2.2,4.8C892.7,2820,893.6,2818.6,893.6,2815.3z"/>
		<path class="st4" d="M900.9,2811.9c0,2.3,1.1,4.7,3,5.9l-0.8,1c-1.4-0.8-2.3-2.4-2.8-4.1c-0.5,1.9-1.6,3.5-3,4.4l-0.8-1
			c2-1.2,3.2-3.7,3.2-6.2v-2.7h1.3V2811.9z M904.6,2808.1h1.2v13.3h-1.2v-7.4h-2.4v-1.1h2.4V2808.1z M908.8,2807.8v14.4h-1.2v-14.4
			H908.8z"/>
		<path class="st4" d="M922.3,2809.2v9.3h-6.6v-9.3H922.3z M917,2810.3v7.2h4v-7.2H917z M926.7,2807.8v14.4h-1.3v-14.4H926.7z"/>
		<path class="st4" d="M936.8,2815.7h-6.6v-6.6h6.6V2815.7z M935.5,2810.2h-4v4.5h4V2810.2z M933.2,2820.8h8.3v1.1h-9.6v-4.5h1.3
			V2820.8z M942.9,2812.2v1.1h-2.1v5h-1.3v-10.5h1.3v4.4H942.9z"/>
	</g>
	<g class="st2">
		<path class="st4" d="M886,3074.7v2.6h4.3v4.8H889v-3.8h-8.7v-1.1h4.5v-2.6h-5.8v-1.1h9.7c0.4-1.7,0.4-3,0.4-4.1h-8.4v-1.1h9.7v1
			c0,1.1,0,2.4-0.4,4.1h2v1.1H886z"/>
		<path class="st4" d="M900.9,3069.4c0,4.1-1.9,7.8-6.5,10.1l-0.7-1c3.7-1.8,5.6-4.6,5.9-8h-5.3v-1.1H900.9z M906.9,3074.7h-2.3v7.4
			h-1.3v-14.4h1.3v5.8h2.3V3074.7z"/>
		<path class="st4" d="M921.3,3079.3v1.1h-13v-1.1h5.8v-3.1h-4.3v-7.3h1.3v2.6h7.3v-2.6h1.3v7.3h-4.3v3.1H921.3z M911.1,3075.1h7.3
			v-2.6h-7.3V3075.1z"/>
		<path class="st4" d="M936,3076.1v1h-5.7v2.2h-1.3v-2.2h-6v-1H936z M935.2,3070.2h-11.5v-1h5.2v-1.5h1.3v1.5h5.1V3070.2z
			 M926,3080.8h8.6v1h-9.9v-3.6h1.3V3080.8z M929.5,3070.8c2.9,0,4.6,0.8,4.6,2.2c0,1.4-1.7,2.2-4.6,2.2c-2.9,0-4.6-0.8-4.6-2.2
			C924.9,3071.6,926.6,3070.8,929.5,3070.8z M929.5,3071.8c-2.1,0-3.3,0.4-3.3,1.2s1.2,1.2,3.3,1.2c2.1,0,3.3-0.4,3.3-1.2
			S931.6,3071.8,929.5,3071.8z"/>
		<path class="st4" d="M942.6,3072.2c0,2.3,1.6,4.8,3.7,5.8l-0.8,1.1c-1.6-0.8-2.9-2.5-3.6-4.4c-0.7,2.1-2,3.9-3.7,4.8l-0.8-1
			c2-1,3.8-3.7,3.8-6.2v-1.8H938v-1.1h7.8v1.1h-3.2V3072.2z M951.1,3074.7h-2.4v7.5h-1.3v-14.3h1.3v5.8h2.4V3074.7z"/>
	</g>
</g>
</svg>
