<?xml version="1.0" encoding="utf-8"?>
<!-- Generator: Adobe Illustrator 25.1.0, SVG Export Plug-In . SVG Version: 6.00 Build 0)  -->
<svg version="1.1" id="레이어_1" xmlns="http://www.w3.org/2000/svg" xmlns:xlink="http://www.w3.org/1999/xlink" x="0px"
	 y="0px" viewBox="0 0 493.1 346.2" style="enable-background:new 0 0 493.1 346.2;" xml:space="preserve">
<style type="text/css">
	.st0{fill:none;stroke:#D6D6D6;}
	.st1{enable-background:new    ;}
	.st2{fill:#555555;}
	.st3{fill:none;stroke:#707070;}
</style>
<g id="그룹_5922" transform="translate(-20 -2562.865)">
	<path id="패스_6215" class="st0" d="M20,2601.4h493.1"/>
	<path id="패스_6216" class="st0" d="M20,2639.8h493.1"/>
	<path id="패스_6223" class="st0" d="M20,2831.7h493.1"/>
	<path id="패스_6218" class="st0" d="M20,2716.6h493.1"/>
	<path id="패스_6222" class="st0" d="M101.6,2793.3h411.6"/>
	<path id="패스_6217" class="st0" d="M101.6,2678.2h411.6"/>
	<path id="패스_6225" class="st0" d="M101.6,2870.1h411.6"/>
	<path id="패스_6219" class="st0" d="M101.6,2754.9h411.6"/>
	<path id="패스_6220" class="st0" d="M321.9,2563.6v344"/>
	<path id="패스_6221" class="st0" d="M267.9,2563.6v345"/>
	<g class="st1">
		<path d="M340.1,2587.9c2.5-2.4,3.9-3.9,3.9-5.3c0-0.9-0.5-1.6-1.5-1.6c-0.7,0-1.3,0.4-1.7,1l-0.8-0.8c0.8-0.8,1.5-1.3,2.7-1.3
			c1.6,0,2.7,1,2.7,2.6c0,1.6-1.4,3.2-3.3,5.1c0.4,0,1-0.1,1.4-0.1h2.2v1.2h-5.7V2587.9z"/>
		<path d="M347,2584.3c0-2.9,1.1-4.4,2.9-4.4c1.8,0,2.9,1.5,2.9,4.4c0,2.9-1.1,4.5-2.9,4.5C348.1,2588.8,347,2587.2,347,2584.3z
			 M351.4,2584.3c0-2.5-0.6-3.3-1.5-3.3s-1.5,0.9-1.5,3.3c0,2.5,0.6,3.4,1.5,3.4S351.4,2586.8,351.4,2584.3z"/>
		<path d="M354.3,2587.5h1.9v-5.9h-1.6v-0.9c0.8-0.1,1.4-0.4,1.9-0.7h1v7.4h1.7v1.1h-5V2587.5z"/>
		<path d="M360.6,2586.5c0-1.1,0.8-1.8,1.6-2.3v0c-0.7-0.5-1.2-1.1-1.2-2c0-1.4,1.1-2.3,2.5-2.3c1.5,0,2.5,0.9,2.5,2.3
			c0,0.9-0.6,1.6-1.2,2v0.1c0.8,0.5,1.5,1.1,1.5,2.2c0,1.3-1.2,2.3-2.9,2.3C361.9,2588.8,360.6,2587.8,360.6,2586.5z M365.1,2586.5
			c0-1-1-1.4-2.2-1.9c-0.6,0.4-1,1-1,1.7c0,0.9,0.7,1.5,1.7,1.5C364.4,2587.8,365.1,2587.3,365.1,2586.5z M364.9,2582.3
			c0-0.8-0.5-1.4-1.4-1.4c-0.7,0-1.3,0.5-1.3,1.3c0,0.9,0.8,1.3,1.8,1.7C364.6,2583.4,364.9,2582.9,364.9,2582.3z"/>
	</g>
	<g class="st1">
		<path d="M291.7,2584.4c-1.4,0.3-2.7,0.4-5,0.4h-0.9v-5.1h4.8v1h-3.6v3.1c2.1,0,3.2-0.1,4.5-0.3L291.7,2584.4z M288.3,2588.4h6v1
			H287v-3.6h1.2V2588.4z M295.4,2581.9v1h-1.5v3.7h-1.2v-7.8h1.2v3.1H295.4z"/>
		<path d="M303.6,2585.1c-0.9,0.2-1.9,0.3-2.9,0.4v3.8h-1.2v-3.7c-1,0-2,0-2.8,0l-0.1-1c2,0,4.7,0,7-0.4L303.6,2585.1z
			 M297.2,2581.5c0-1.3,1.2-2.3,2.8-2.3s2.8,0.9,2.8,2.3c0,1.3-1.2,2.3-2.8,2.3S297.2,2582.8,297.2,2581.5z M298.4,2581.5
			c0,0.8,0.7,1.3,1.6,1.3c0.9,0,1.6-0.5,1.6-1.3c0-0.8-0.7-1.2-1.6-1.2C299.1,2580.3,298.4,2580.7,298.4,2581.5z M305.4,2578.8v10.8
			h-1.2v-10.8H305.4z"/>
	</g>
	<g class="st1">
		<path d="M41.6,2584.1h-4.3v4.5h-1.2v-4.5h-4.2v-1h7c0.3-1.5,0.3-2.6,0.3-3.6H33v-1h7.4v0.9c0,1,0,2.1-0.3,3.7h1.5V2584.1z"/>
		<path d="M52.7,2583.4v1h-4.2v1.9h-1.2v-1.9h-4.4v-1H52.7z M45.3,2587.4h6.3v1h-7.5v-3h1.2V2587.4z M51.4,2582.5h-7.3v-4.4h1.2v1.2
			h4.8v-1.2h1.2V2582.5z M50.2,2580.3h-4.8v1.2h4.8V2580.3z"/>
	</g>
	<g class="st1">
		<path class="st2" d="M339.3,2624.1c2.4-2.4,3.7-3.8,3.7-5c0-0.9-0.5-1.5-1.5-1.5c-0.7,0-1.2,0.4-1.7,0.9l-0.6-0.6
			c0.7-0.7,1.4-1.2,2.4-1.2c1.4,0,2.3,0.9,2.3,2.3c0,1.5-1.3,2.9-3.2,4.9c0.4,0,0.9-0.1,1.3-0.1h2.3v0.9h-5.1V2624.1z"/>
		<path class="st2" d="M345.5,2626.2c0.7-0.3,1.1-0.8,1.1-1.5c0,0-0.1,0-0.1,0c-0.4,0-0.7-0.2-0.7-0.7c0-0.4,0.4-0.7,0.8-0.7
			c0.5,0,0.8,0.5,0.8,1.2c0,1.1-0.6,1.9-1.6,2.3L345.5,2626.2z"/>
		<path class="st2" d="M348.5,2624.1c2.4-2.4,3.7-3.8,3.7-5c0-0.9-0.5-1.5-1.5-1.5c-0.7,0-1.2,0.4-1.7,0.9l-0.6-0.6
			c0.7-0.7,1.4-1.2,2.4-1.2c1.4,0,2.3,0.9,2.3,2.3c0,1.5-1.3,2.9-3.2,4.9c0.4,0,0.9-0.1,1.3-0.1h2.3v0.9h-5.1V2624.1z"/>
		<path class="st2" d="M354.4,2623.7l0.5-0.7c0.5,0.5,1,0.9,2,0.9c0.9,0,1.7-0.7,1.7-1.8c0-1.1-0.7-1.7-1.7-1.7
			c-0.5,0-0.9,0.2-1.3,0.5l-0.5-0.3l0.3-3.8h3.9v0.9h-3l-0.2,2.3c0.4-0.2,0.7-0.3,1.2-0.3c1.3,0,2.4,0.8,2.4,2.5
			c0,1.7-1.3,2.7-2.6,2.7C355.7,2624.8,354.9,2624.3,354.4,2623.7z"/>
		<path class="st2" d="M361.2,2623.8h1.8v-5.8h-1.4v-0.6c0.7-0.1,1.2-0.3,1.7-0.6h0.8v7h1.6v0.8h-4.4V2623.8z"/>
	</g>
	<g class="st1">
		<path class="st2" d="M344.4,2661.8h1.8v-5.8h-1.4v-0.6c0.7-0.1,1.2-0.3,1.7-0.6h0.8v7h1.6v0.8h-4.4V2661.8z"/>
		<path class="st2" d="M350,2662.1c2.4-2.4,3.7-3.8,3.7-5c0-0.9-0.5-1.5-1.5-1.5c-0.7,0-1.2,0.4-1.7,0.9l-0.6-0.6
			c0.7-0.7,1.4-1.2,2.4-1.2c1.4,0,2.3,0.9,2.3,2.3c0,1.5-1.3,2.9-3.2,4.9c0.4,0,0.9-0.1,1.3-0.1h2.3v0.9H350V2662.1z"/>
		<path class="st2" d="M356.2,2658.7c0-2.6,1-4,2.5-4c1.6,0,2.5,1.4,2.5,4c0,2.6-0.9,4.1-2.5,4.1
			C357.1,2662.8,356.2,2661.3,356.2,2658.7z M360.2,2658.7c0-2.3-0.6-3.2-1.5-3.2c-0.9,0-1.5,0.9-1.5,3.2c0,2.3,0.6,3.3,1.5,3.3
			C359.6,2662,360.2,2661,360.2,2658.7z"/>
	</g>
	<g class="st1">
		<path class="st2" d="M345.2,2700.7l0.5-0.7c0.5,0.5,1,0.9,2,0.9c0.9,0,1.7-0.7,1.7-1.8c0-1.1-0.7-1.7-1.7-1.7
			c-0.5,0-0.9,0.2-1.3,0.5l-0.5-0.3l0.3-3.8h3.9v0.9h-3l-0.2,2.3c0.4-0.2,0.7-0.3,1.2-0.3c1.3,0,2.4,0.8,2.4,2.5
			c0,1.7-1.3,2.7-2.6,2.7C346.5,2701.8,345.8,2701.3,345.2,2700.7z"/>
		<path class="st2" d="M351.8,2701.1c0-0.5,0.3-0.8,0.7-0.8c0.4,0,0.7,0.3,0.7,0.8c0,0.5-0.3,0.8-0.7,0.8
			C352.2,2701.8,351.8,2701.5,351.8,2701.1z"/>
		<path class="st2" d="M354.4,2700.7l0.5-0.7c0.5,0.5,1.1,0.9,2,0.9c1,0,1.6-0.6,1.6-1.4c0-0.9-0.6-1.6-2.5-1.6v-0.8
			c1.7,0,2.2-0.6,2.2-1.5c0-0.8-0.5-1.2-1.4-1.2c-0.6,0-1.2,0.3-1.7,0.8l-0.5-0.6c0.6-0.6,1.3-1,2.3-1c1.4,0,2.3,0.7,2.3,2
			c0,0.9-0.6,1.6-1.4,1.9v0c0.9,0.2,1.7,0.9,1.7,2c0,1.4-1.2,2.2-2.6,2.2C355.7,2701.8,354.9,2701.3,354.4,2700.7z"/>
	</g>
	<g class="st1">
		<path class="st2" d="M345.5,2737.1c0-3.2,1.4-4.4,3-4.4c0.8,0,1.4,0.4,1.9,0.8l-0.6,0.6c-0.3-0.4-0.8-0.6-1.3-0.6
			c-1.1,0-2,0.8-2.1,3.3c0.5-0.6,1.2-1,1.8-1c1.4,0,2.2,0.8,2.2,2.4c0,1.5-1.1,2.5-2.3,2.5C346.7,2740.8,345.5,2739.6,345.5,2737.1z
			 M346.5,2737.7c0.1,1.5,0.7,2.4,1.7,2.4c0.8,0,1.4-0.7,1.4-1.7c0-1-0.5-1.7-1.5-1.7C347.6,2736.6,347,2736.9,346.5,2737.7z"/>
		<path class="st2" d="M351.8,2740.1c0-0.5,0.3-0.8,0.7-0.8c0.4,0,0.7,0.3,0.7,0.8c0,0.5-0.3,0.8-0.7,0.8
			C352.2,2740.8,351.8,2740.5,351.8,2740.1z"/>
		<path class="st2" d="M358.5,2733.7h-3.9v-0.9h5v0.6c-1.8,2.4-2.2,4.2-2.4,7.2h-1C356.4,2737.7,357,2735.8,358.5,2733.7z"/>
	</g>
	<g class="st1">
		<path class="st2" d="M346.3,2771.7h-3.9v-0.9h5v0.6c-1.8,2.4-2.2,4.2-2.4,7.2h-1C344.2,2775.7,344.8,2773.8,346.3,2771.7z"/>
		<path class="st2" d="M351.7,2776.5h-3.5v-0.7l3.4-5h1.1v4.9h1.1v0.8h-1.1v2.2h-0.9V2776.5z M351.7,2775.7v-2.3
			c0-0.4,0-1.1,0.1-1.5h0c-0.2,0.4-0.4,0.7-0.6,1.1l-1.8,2.7H351.7z"/>
		<path class="st2" d="M354.9,2778.1c0-0.5,0.3-0.8,0.7-0.8c0.4,0,0.7,0.3,0.7,0.8c0,0.5-0.3,0.8-0.7,0.8
			C355.2,2778.8,354.9,2778.5,354.9,2778.1z"/>
		<path class="st2" d="M357.7,2774.7c0-2.6,1-4,2.5-4s2.5,1.4,2.5,4c0,2.6-0.9,4.1-2.5,4.1S357.7,2777.3,357.7,2774.7z
			 M361.7,2774.7c0-2.3-0.6-3.2-1.5-3.2c-0.9,0-1.5,0.9-1.5,3.2c0,2.3,0.6,3.3,1.5,3.3C361.1,2778,361.7,2777,361.7,2774.7z"/>
	</g>
	<g class="st1">
		<path class="st2" d="M342.8,2816.8h1.8v-5.8h-1.4v-0.6c0.7-0.1,1.2-0.3,1.7-0.6h0.8v7h1.6v0.8h-4.4V2816.8z"/>
		<path class="st2" d="M348.6,2817l0.6-0.6c0.3,0.4,0.8,0.6,1.3,0.6c1.1,0,2-0.9,2.1-3.4c-0.5,0.6-1.2,1-1.8,1
			c-1.4,0-2.2-0.8-2.2-2.4c0-1.5,1.1-2.5,2.3-2.5c1.6,0,2.7,1.3,2.7,3.8c0,3.1-1.4,4.4-3,4.4C349.7,2817.8,349,2817.5,348.6,2817z
			 M350.9,2813.9c0.5,0,1.1-0.3,1.7-1.1c-0.1-1.5-0.7-2.3-1.7-2.3c-0.8,0-1.4,0.7-1.4,1.7C349.4,2813.2,349.9,2813.9,350.9,2813.9z"
			/>
		<path class="st2" d="M354.9,2817.1c0-0.5,0.3-0.8,0.7-0.8c0.4,0,0.7,0.3,0.7,0.8c0,0.5-0.3,0.8-0.7,0.8
			C355.2,2817.8,354.9,2817.5,354.9,2817.1z"/>
		<path class="st2" d="M357.5,2816.7l0.5-0.7c0.5,0.5,1.1,0.9,2,0.9c1,0,1.6-0.6,1.6-1.4c0-0.9-0.6-1.6-2.5-1.6v-0.8
			c1.7,0,2.2-0.6,2.2-1.5c0-0.8-0.5-1.2-1.4-1.2c-0.6,0-1.2,0.3-1.7,0.8l-0.5-0.6c0.6-0.6,1.3-1,2.3-1c1.4,0,2.3,0.7,2.3,2
			c0,0.9-0.6,1.6-1.4,1.9v0c0.9,0.2,1.7,0.9,1.7,2c0,1.4-1.2,2.2-2.6,2.2C358.8,2817.8,358,2817.3,357.5,2816.7z"/>
	</g>
	<g class="st1">
		<path class="st2" d="M344.7,2854.8h1.8v-5.8H345v-0.6c0.7-0.1,1.2-0.3,1.7-0.6h0.8v7h1.6v0.8h-4.4V2854.8z"/>
		<path class="st2" d="M350.6,2855.1c0-0.5,0.3-0.8,0.7-0.8c0.4,0,0.7,0.3,0.7,0.8c0,0.5-0.3,0.8-0.7,0.8
			C350.9,2855.8,350.6,2855.5,350.6,2855.1z"/>
		<path class="st2" d="M353.8,2854.8h1.8v-5.8h-1.4v-0.6c0.7-0.1,1.2-0.3,1.7-0.6h0.8v7h1.6v0.8h-4.4V2854.8z"/>
	</g>
	<g class="st1">
		<path class="st2" d="M345.2,2892.7l0.5-0.7c0.5,0.5,1.1,0.9,2,0.9c1,0,1.6-0.6,1.6-1.4c0-0.9-0.6-1.6-2.5-1.6v-0.8
			c1.7,0,2.2-0.6,2.2-1.5c0-0.8-0.5-1.2-1.4-1.2c-0.6,0-1.2,0.3-1.7,0.8l-0.5-0.6c0.6-0.6,1.3-1,2.3-1c1.4,0,2.3,0.7,2.3,2
			c0,0.9-0.6,1.6-1.4,1.9v0c0.9,0.2,1.7,0.9,1.7,2c0,1.4-1.2,2.2-2.6,2.2C346.6,2893.8,345.8,2893.3,345.2,2892.7z"/>
		<path class="st2" d="M351.8,2893.1c0-0.5,0.3-0.8,0.7-0.8c0.4,0,0.7,0.3,0.7,0.8c0,0.5-0.3,0.8-0.7,0.8
			C352.2,2893.8,351.8,2893.5,351.8,2893.1z"/>
		<path class="st2" d="M354.6,2893.1c2.4-2.4,3.7-3.8,3.7-5c0-0.9-0.5-1.5-1.5-1.5c-0.7,0-1.2,0.4-1.7,0.9l-0.6-0.6
			c0.7-0.7,1.4-1.2,2.4-1.2c1.4,0,2.3,0.9,2.3,2.3c0,1.5-1.3,2.9-3.2,4.9c0.4,0,0.9-0.1,1.3-0.1h2.3v0.9h-5.1V2893.1z"/>
	</g>
	<g class="st1">
		<path class="st2" d="M295.1,2621.7h-4.5v-4.4h4.5v0.9h2.3v-1.6h0.9v5.8h-0.9v-1.6h-2.3V2621.7z M294.2,2618.1h-2.7v2.9h2.7V2618.1
			z M298.3,2624.6c0,1.2-1.3,1.9-3.3,1.9c-2,0-3.3-0.7-3.3-1.9c0-1.2,1.3-1.9,3.3-1.9C297,2622.8,298.3,2623.4,298.3,2624.6z
			 M297.4,2624.6c0-0.7-0.9-1.2-2.4-1.2c-1.5,0-2.4,0.4-2.4,1.2c0,0.7,0.9,1.2,2.4,1.2C296.5,2625.8,297.4,2625.3,297.4,2624.6z
			 M295.1,2618.9v1.2h2.3v-1.2H295.1z"/>
	</g>
	<g class="st1">
		<path class="st2" d="M295.1,2658.7h-4.5v-4.4h4.5v0.9h2.3v-1.6h0.9v5.8h-0.9v-1.6h-2.3V2658.7z M294.2,2655.1h-2.7v2.9h2.7V2655.1
			z M298.3,2661.6c0,1.2-1.3,1.9-3.3,1.9c-2,0-3.3-0.7-3.3-1.9c0-1.2,1.3-1.9,3.3-1.9C297,2659.8,298.3,2660.4,298.3,2661.6z
			 M297.4,2661.6c0-0.7-0.9-1.2-2.4-1.2c-1.5,0-2.4,0.4-2.4,1.2c0,0.7,0.9,1.2,2.4,1.2C296.5,2662.8,297.4,2662.3,297.4,2661.6z
			 M295.1,2655.9v1.2h2.3v-1.2H295.1z"/>
	</g>
	<g class="st1">
		<path class="st2" d="M290,2696c0-1.6,0.7-2.5,1.8-2.5c1.1,0,1.8,0.9,1.8,2.5c0,1.6-0.7,2.6-1.8,2.6
			C290.7,2698.5,290,2697.6,290,2696z M292.9,2696c0-1.3-0.4-1.9-1.1-1.9c-0.6,0-1.1,0.6-1.1,1.9s0.4,1.9,1.1,1.9
			C292.5,2697.9,292.9,2697.3,292.9,2696z M296.5,2693.5h0.7l-4.5,8.4h-0.7L296.5,2693.5z M295.6,2699.3c0-1.6,0.7-2.5,1.8-2.5
			c1.1,0,1.8,0.9,1.8,2.5c0,1.6-0.7,2.6-1.8,2.6C296.3,2701.8,295.6,2700.9,295.6,2699.3z M298.5,2699.3c0-1.3-0.4-1.9-1.1-1.9
			c-0.6,0-1.1,0.6-1.1,1.9s0.4,1.9,1.1,1.9C298.1,2701.2,298.5,2700.5,298.5,2699.3z"/>
	</g>
	<g class="st1">
		<path class="st2" d="M290,2735c0-1.6,0.7-2.5,1.8-2.5c1.1,0,1.8,0.9,1.8,2.5c0,1.6-0.7,2.6-1.8,2.6
			C290.7,2737.5,290,2736.6,290,2735z M292.9,2735c0-1.3-0.4-1.9-1.1-1.9c-0.6,0-1.1,0.6-1.1,1.9s0.4,1.9,1.1,1.9
			C292.5,2736.9,292.9,2736.3,292.9,2735z M296.5,2732.5h0.7l-4.5,8.4h-0.7L296.5,2732.5z M295.6,2738.3c0-1.6,0.7-2.5,1.8-2.5
			c1.1,0,1.8,0.9,1.8,2.5c0,1.6-0.7,2.6-1.8,2.6C296.3,2740.8,295.6,2739.9,295.6,2738.3z M298.5,2738.3c0-1.3-0.4-1.9-1.1-1.9
			c-0.6,0-1.1,0.6-1.1,1.9s0.4,1.9,1.1,1.9C298.1,2740.2,298.5,2739.5,298.5,2738.3z"/>
	</g>
	<g class="st1">
		<path class="st2" d="M290,2773c0-1.6,0.7-2.5,1.8-2.5c1.1,0,1.8,0.9,1.8,2.5c0,1.6-0.7,2.6-1.8,2.6
			C290.7,2775.5,290,2774.6,290,2773z M292.9,2773c0-1.3-0.4-1.9-1.1-1.9c-0.6,0-1.1,0.6-1.1,1.9s0.4,1.9,1.1,1.9
			C292.5,2774.9,292.9,2774.3,292.9,2773z M296.5,2770.5h0.7l-4.5,8.4h-0.7L296.5,2770.5z M295.6,2776.3c0-1.6,0.7-2.5,1.8-2.5
			c1.1,0,1.8,0.9,1.8,2.5c0,1.6-0.7,2.6-1.8,2.6C296.3,2778.8,295.6,2777.9,295.6,2776.3z M298.5,2776.3c0-1.3-0.4-1.9-1.1-1.9
			c-0.6,0-1.1,0.6-1.1,1.9s0.4,1.9,1.1,1.9C298.1,2778.2,298.5,2777.5,298.5,2776.3z"/>
	</g>
	<g class="st1">
		<path class="st2" d="M290,2812c0-1.6,0.7-2.5,1.8-2.5c1.1,0,1.8,0.9,1.8,2.5c0,1.6-0.7,2.6-1.8,2.6
			C290.7,2814.5,290,2813.6,290,2812z M292.9,2812c0-1.3-0.4-1.9-1.1-1.9c-0.6,0-1.1,0.6-1.1,1.9s0.4,1.9,1.1,1.9
			C292.5,2813.9,292.9,2813.3,292.9,2812z M296.5,2809.5h0.7l-4.5,8.4h-0.7L296.5,2809.5z M295.6,2815.3c0-1.6,0.7-2.5,1.8-2.5
			c1.1,0,1.8,0.9,1.8,2.5c0,1.6-0.7,2.6-1.8,2.6C296.3,2817.8,295.6,2816.9,295.6,2815.3z M298.5,2815.3c0-1.3-0.4-1.9-1.1-1.9
			c-0.6,0-1.1,0.6-1.1,1.9s0.4,1.9,1.1,1.9C298.1,2817.2,298.5,2816.5,298.5,2815.3z"/>
	</g>
	<g class="st1">
		<path class="st2" d="M290,2850c0-1.6,0.7-2.5,1.8-2.5c1.1,0,1.8,0.9,1.8,2.5c0,1.6-0.7,2.6-1.8,2.6
			C290.7,2852.5,290,2851.6,290,2850z M292.9,2850c0-1.3-0.4-1.9-1.1-1.9c-0.6,0-1.1,0.6-1.1,1.9s0.4,1.9,1.1,1.9
			C292.5,2851.9,292.9,2851.3,292.9,2850z M296.5,2847.5h0.7l-4.5,8.4h-0.7L296.5,2847.5z M295.6,2853.3c0-1.6,0.7-2.5,1.8-2.5
			c1.1,0,1.8,0.9,1.8,2.5c0,1.6-0.7,2.6-1.8,2.6C296.3,2855.8,295.6,2854.9,295.6,2853.3z M298.5,2853.3c0-1.3-0.4-1.9-1.1-1.9
			c-0.6,0-1.1,0.6-1.1,1.9s0.4,1.9,1.1,1.9C298.1,2855.2,298.5,2854.5,298.5,2853.3z"/>
	</g>
	<g class="st1">
		<path class="st2" d="M290,2888c0-1.6,0.7-2.5,1.8-2.5c1.1,0,1.8,0.9,1.8,2.5c0,1.6-0.7,2.6-1.8,2.6
			C290.7,2890.5,290,2889.6,290,2888z M292.9,2888c0-1.3-0.4-1.9-1.1-1.9c-0.6,0-1.1,0.6-1.1,1.9s0.4,1.9,1.1,1.9
			C292.5,2889.9,292.9,2889.3,292.9,2888z M296.5,2885.5h0.7l-4.5,8.4h-0.7L296.5,2885.5z M295.6,2891.3c0-1.6,0.7-2.5,1.8-2.5
			c1.1,0,1.8,0.9,1.8,2.5c0,1.6-0.7,2.6-1.8,2.6C296.3,2893.8,295.6,2892.9,295.6,2891.3z M298.5,2891.3c0-1.3-0.4-1.9-1.1-1.9
			c-0.6,0-1.1,0.6-1.1,1.9s0.4,1.9,1.1,1.9C298.1,2893.2,298.5,2892.5,298.5,2891.3z"/>
	</g>
	<g class="st1">
		<path class="st2" d="M41.6,2620.4v0.8h-9.7v-0.8h4.4v-1.3h1v1.3H41.6z M32.4,2618.8c2-0.2,3.7-1,3.8-2.2h-3.3v-0.8h3.4v-1.1h1v1.1
			h3.4v0.8h-3.3c0.1,1.2,1.7,2,3.8,2.2l-0.3,0.8c-1.8-0.2-3.3-0.8-4-1.9c-0.7,1.1-2.2,1.7-4,1.9L32.4,2618.8z M40.4,2623.8
			c0,1.2-1.4,1.8-3.7,1.8c-2.3,0-3.7-0.6-3.7-1.8c0-1.2,1.4-1.8,3.7-1.8C39,2622,40.4,2622.6,40.4,2623.8z M39.4,2623.8
			c0-0.7-1-1.1-2.7-1.1s-2.7,0.4-2.7,1.1c0,0.7,1,1,2.7,1S39.4,2624.4,39.4,2623.8z"/>
		<path class="st2" d="M51.4,2617.9c0,1.5-1.2,2.5-2.8,2.5c-1.6,0-2.8-1-2.8-2.5s1.2-2.5,2.8-2.5
			C50.3,2615.4,51.4,2616.4,51.4,2617.9z M46.8,2617.9c0,1,0.8,1.7,1.8,1.7c1.1,0,1.9-0.7,1.9-1.7c0-1-0.8-1.7-1.9-1.7
			C47.6,2616.2,46.8,2616.9,46.8,2617.9z M54.4,2621.5v3.9h-7v-3.9H54.4z M48.4,2622.3v2.3h5v-2.3H48.4z M54.4,2614.8v6.2h-1v-6.2
			H54.4z"/>
		<path class="st2" d="M62.7,2620.8c-1.2-0.4-2.2-1.3-2.7-2.4c-0.5,1.2-1.5,2.2-2.7,2.7l-0.5-0.8c1.6-0.6,2.7-2,2.7-3.5v-0.4H57
			v-0.8h5.9v0.8h-2.4v0.4c0,1.4,1.1,2.7,2.7,3.3L62.7,2620.8z M58.3,2621.9h7.2v3.7h-1v-2.9h-6.2V2621.9z M65.4,2614.8v6.5h-1v-6.5
			H65.4z"/>
		<path class="st2" d="M70.7,2620.5c-1.1,0-2.1,0.1-3,0.1l-0.1-0.8c2,0,4.7,0,6.9-0.3l0.1,0.7c-0.9,0.1-1.9,0.3-2.9,0.3v2.1h-1
			V2620.5z M68.5,2617.1c0-1.1,1.1-1.9,2.7-1.9c1.6,0,2.7,0.7,2.7,1.9c0,1.2-1.1,1.9-2.7,1.9C69.5,2619,68.5,2618.3,68.5,2617.1z
			 M76.7,2624.5v0.8h-7.6v-3.1h1v2.3H76.7z M69.4,2617.1c0,0.7,0.7,1.2,1.7,1.2s1.7-0.5,1.7-1.2c0-0.7-0.7-1.1-1.7-1.1
			S69.4,2616.4,69.4,2617.1z M75.5,2621.2v-6.4h1v8.2h-1v-1.1h-2.2v-0.7H75.5z"/>
		<path class="st2" d="M91.1,2621.7h-4.4v3.9h-1v-3.9h-4.3v-0.8h9.7L91.1,2621.7z M90.2,2619.7c-1.7-0.3-3.3-1.2-4-2.5
			c-0.7,1.3-2.3,2.2-4,2.5l-0.4-0.8c2-0.3,3.9-1.6,3.9-3.1v-0.6h1v0.6c0,1.5,1.9,2.8,3.9,3.1L90.2,2619.7z"/>
	</g>
	<g class="st1">
		<path class="st2" d="M37,2774.8c-0.5,0.6-1.3,1-2.2,1c-1.6,0-2.8-1.1-2.8-2.7s1.2-2.7,2.8-2.7c0.9,0,1.7,0.4,2.2,1h2.7v-1.7h1v7.9
			h-1v-2.9H37z M34.8,2775c1,0,1.8-0.8,1.8-1.8s-0.8-1.8-1.8-1.8c-1.1,0-1.8,0.8-1.8,1.8S33.7,2775,34.8,2775z M41,2779.5v0.8h-7.2
			v-3.4h1v2.6H41z M37.4,2772.2c0.1,0.3,0.1,0.6,0.1,0.9c0,0.3,0,0.6-0.1,0.9h2.3v-1.8H37.4z"/>
		<path class="st2" d="M48.7,2775.6c-1.3,0.2-2.4,0.3-4.6,0.3h-0.8v-3.2H47v-1.5h-3.7v-0.8H48v3h-3.6v1.6c2,0,3,0,4.3-0.3
			L48.7,2775.6z M51.8,2778.6c0,1.3-1.4,2-3.6,2c-2.2,0-3.6-0.7-3.6-2c0-1.3,1.4-2,3.6-2C50.4,2776.6,51.8,2777.3,51.8,2778.6z
			 M50.8,2778.6c0-0.8-1-1.2-2.6-1.2c-1.6,0-2.6,0.5-2.6,1.2c0,0.8,1,1.2,2.6,1.2C49.8,2779.8,50.8,2779.4,50.8,2778.6z
			 M50.8,2774.4h-2.1v-0.8h2.1v-1.4h-2.1v-0.8h2.1v-1.7h1v6.6h-1V2774.4z"/>
		<path class="st2" d="M59.3,2774.9h-4.8v-4.7h1v1.5h2.9v-1.5h1v1h2.5v-1.5h1v5.6h-1v-1.4h-2.5V2774.9z M58.3,2772.6h-2.9v1.6h2.9
			V2772.6z M63.2,2779.6v0.8h-7.3v-2.7h5.9v-1h-6v-0.8h6.9v2.6h-5.9v1.1H63.2z M59.3,2772.1v1.2h2.5v-1.2H59.3z"/>
	</g>
	<g class="st1">
		<path class="st2" d="M101.9,2777.6l0.6-0.7c0.5,0.5,1.2,1,2.2,1c1,0,1.8-0.6,1.8-1.6c0-1-0.7-1.7-2.7-1.7v-0.8
			c1.8,0,2.4-0.7,2.4-1.6c0-0.8-0.6-1.4-1.5-1.4c-0.7,0-1.3,0.4-1.8,0.9l-0.6-0.7c0.7-0.6,1.4-1.1,2.5-1.1c1.5,0,2.6,0.8,2.6,2.2
			c0,1-0.6,1.7-1.6,2v0c1,0.3,1.9,1,1.9,2.2c0,1.5-1.3,2.4-2.8,2.4C103.3,2778.8,102.5,2778.2,101.9,2777.6z"/>
		<path class="st2" d="M108.8,2774.4c0-2.9,1-4.4,2.7-4.4s2.7,1.5,2.7,4.4c0,2.9-1,4.5-2.7,4.5S108.8,2777.2,108.8,2774.4z
			 M113.2,2774.4c0-2.5-0.7-3.5-1.7-3.5c-1,0-1.7,1-1.7,3.5s0.7,3.6,1.7,3.6C112.5,2777.9,113.2,2776.9,113.2,2774.4z"/>
		<path class="st2" d="M117,2774.1c-0.4,0-0.7,0.2-1,0.8l-0.6-0.4c0.5-0.8,1.1-1.2,1.7-1.2c1.1,0,1.6,1.1,2.4,1.1
			c0.4,0,0.7-0.2,1-0.8l0.6,0.4c-0.5,0.8-1.1,1.2-1.7,1.2C118.3,2775.2,117.8,2774.1,117,2774.1z"/>
		<path class="st2" d="M121.9,2777.7l0.5-0.7c0.5,0.5,1.1,1,2.2,1c1,0,1.9-0.8,1.9-1.9s-0.7-1.9-1.8-1.9c-0.6,0-1,0.2-1.5,0.5
			l-0.6-0.4l0.3-4.1h4.3v0.9h-3.3l-0.2,2.6c0.4-0.2,0.8-0.4,1.3-0.4c1.5,0,2.7,0.8,2.7,2.7s-1.4,2.9-2.9,2.9
			C123.3,2778.8,122.5,2778.2,121.9,2777.7z"/>
		<path class="st2" d="M128.8,2774.4c0-2.9,1-4.4,2.7-4.4s2.7,1.5,2.7,4.4c0,2.9-1,4.5-2.7,4.5S128.8,2777.2,128.8,2774.4z
			 M133.2,2774.4c0-2.5-0.7-3.5-1.7-3.5c-1,0-1.7,1-1.7,3.5s0.7,3.6,1.7,3.6C132.5,2777.9,133.2,2776.9,133.2,2774.4z"/>
		<path class="st2" d="M138.7,2771.8c0,1.7,0.8,3.5,2.2,4.4l-0.6,0.8c-1-0.6-1.7-1.8-2.1-3.1c-0.4,1.4-1.2,2.6-2.2,3.3l-0.6-0.7
			c1.5-0.9,2.4-2.8,2.4-4.6v-2.1h0.9V2771.8z M141.5,2769h0.9v10h-0.9v-5.6h-1.8v-0.8h1.8V2769z M144.6,2768.8v10.8h-0.9v-10.8
			H144.6z"/>
	</g>
	<g class="st1">
		<path class="st2" d="M40.7,2663.2v10.8h-1v-4.2H37c-0.4,1.1-1.3,1.7-2.3,1.7c-1.6,0-2.7-1.5-2.7-3.8s1.1-3.8,2.7-3.8
			c1,0,1.8,0.6,2.2,1.6h2.8v-2.4H40.7z M36.5,2667.8c0-1.7-0.7-2.9-1.8-2.9c-1,0-1.8,1.1-1.8,2.9c0,1.8,0.7,2.9,1.8,2.9
			C35.8,2670.7,36.5,2669.6,36.5,2667.8z M39.7,2669v-2.6h-2.5c0.1,0.4,0.2,0.9,0.2,1.4c0,0.4,0,0.9-0.1,1.2H39.7z"/>
		<path class="st2" d="M48.7,2669.1c-1.2-0.4-2.1-1.3-2.6-2.4c-0.5,1.3-1.4,2.2-2.7,2.7l-0.5-0.8c1.7-0.6,2.7-2,2.7-3.7v-1.1h1v1.1
			c0,1.5,1,2.9,2.6,3.4L48.7,2669.1z M51.8,2672c0,1.3-1.4,2-3.6,2s-3.6-0.7-3.6-2c0-1.3,1.4-2,3.6-2S51.8,2670.7,51.8,2672z
			 M50.8,2672c0-0.8-1-1.3-2.6-1.3s-2.6,0.5-2.6,1.3c0,0.8,1,1.2,2.6,1.2S50.8,2672.7,50.8,2672z M50.8,2666.3h-2.3v-0.8h2.3v-2.3h1
			v6.4h-1V2666.3z"/>
	</g>
	<g class="st1">
		<path class="st2" d="M37.7,2686.3c0,1.5-1.2,2.5-2.8,2.5c-1.6,0-2.8-1-2.8-2.5s1.2-2.5,2.8-2.5
			C36.5,2683.8,37.7,2684.8,37.7,2686.3z M33.1,2686.3c0,1,0.8,1.7,1.8,1.7c1.1,0,1.9-0.7,1.9-1.7c0-1-0.8-1.7-1.9-1.7
			C33.8,2684.6,33.1,2685.3,33.1,2686.3z M40.7,2690v3.9h-7v-3.9H40.7z M34.7,2690.8v2.3h5v-2.3H34.7z M40.7,2683.2v6.2h-1v-6.2
			H40.7z"/>
		<path class="st2" d="M49,2689.3c-1.2-0.4-2.2-1.3-2.7-2.4c-0.5,1.2-1.5,2.2-2.7,2.7l-0.5-0.8c1.6-0.6,2.7-2,2.7-3.5v-0.4h-2.5
			v-0.8h5.9v0.8h-2.4v0.4c0,1.4,1.1,2.7,2.7,3.3L49,2689.3z M44.5,2690.3h7.2v3.7h-1v-2.9h-6.2V2690.3z M51.7,2683.2v6.5h-1v-6.5
			H51.7z"/>
		<path class="st2" d="M57,2689c-1.1,0-2.1,0.1-3,0.1l-0.1-0.8c2,0,4.7,0,6.9-0.3l0.1,0.7c-0.9,0.1-1.9,0.3-2.9,0.3v2.1h-1V2689z
			 M54.7,2685.5c0-1.1,1.1-1.9,2.7-1.9c1.6,0,2.7,0.7,2.7,1.9c0,1.2-1.1,1.9-2.7,1.9C55.8,2687.4,54.7,2686.7,54.7,2685.5z
			 M63,2692.9v0.8h-7.6v-3.1h1v2.3H63z M55.7,2685.5c0,0.7,0.7,1.2,1.7,1.2s1.7-0.5,1.7-1.2c0-0.7-0.7-1.1-1.7-1.1
			S55.7,2684.9,55.7,2685.5z M61.8,2689.6v-6.4h1v8.2h-1v-1.1h-2.2v-0.7H61.8z"/>
	</g>
	<g class="st1">
		<path class="st2" d="M111.1,2654.8v10.8h-1v-4.2h-2.7c-0.4,1.1-1.3,1.7-2.3,1.7c-1.6,0-2.7-1.5-2.7-3.8s1.1-3.8,2.7-3.8
			c1,0,1.8,0.6,2.2,1.6h2.8v-2.4H111.1z M106.8,2659.4c0-1.7-0.7-2.9-1.8-2.9c-1,0-1.8,1.1-1.8,2.9c0,1.8,0.7,2.9,1.8,2.9
			C106.1,2662.3,106.8,2661.1,106.8,2659.4z M110.1,2660.6v-2.6h-2.5c0.1,0.4,0.2,0.9,0.2,1.4c0,0.4,0,0.9-0.1,1.2H110.1z"/>
		<path class="st2" d="M119,2660.7c-1.2-0.4-2.1-1.3-2.6-2.4c-0.5,1.3-1.4,2.2-2.7,2.7l-0.5-0.8c1.7-0.6,2.7-2,2.7-3.7v-1.1h1v1.1
			c0,1.5,1,2.9,2.6,3.4L119,2660.7z M122.1,2663.5c0,1.3-1.4,2-3.6,2s-3.6-0.7-3.6-2c0-1.3,1.4-2,3.6-2S122.1,2662.2,122.1,2663.5z
			 M121.2,2663.5c0-0.8-1-1.3-2.6-1.3s-2.6,0.5-2.6,1.3c0,0.8,1,1.2,2.6,1.2S121.2,2664.3,121.2,2663.5z M121.1,2657.9h-2.3v-0.8
			h2.3v-2.3h1v6.4h-1V2657.9z"/>
		<path class="st2" d="M132.8,2657.9c0,1.5-1.2,2.5-2.8,2.5c-1.6,0-2.8-1-2.8-2.5s1.2-2.5,2.8-2.5
			C131.6,2655.4,132.8,2656.4,132.8,2657.9z M128.2,2657.9c0,1,0.8,1.7,1.8,1.7c1.1,0,1.9-0.7,1.9-1.7c0-1-0.8-1.7-1.9-1.7
			C128.9,2656.2,128.2,2656.9,128.2,2657.9z M135.8,2661.5v3.9h-7v-3.9H135.8z M129.8,2662.3v2.3h5v-2.3H129.8z M135.8,2654.8v6.2
			h-1v-6.2H135.8z"/>
		<path class="st2" d="M144.1,2660.8c-1.2-0.4-2.2-1.3-2.7-2.4c-0.5,1.2-1.5,2.2-2.7,2.7l-0.5-0.8c1.6-0.6,2.7-2,2.7-3.5v-0.4h-2.5
			v-0.8h5.9v0.8h-2.4v0.4c0,1.4,1.1,2.7,2.7,3.3L144.1,2660.8z M139.6,2661.9h7.2v3.7h-1v-2.9h-6.2V2661.9z M146.8,2654.8v6.5h-1
			v-6.5H146.8z"/>
		<path class="st2" d="M152.1,2660.5c-1.1,0-2.1,0.1-3,0.1l-0.1-0.8c2,0,4.7,0,6.9-0.3l0.1,0.7c-0.9,0.1-1.9,0.3-2.9,0.3v2.1h-1
			V2660.5z M149.8,2657.1c0-1.1,1.1-1.9,2.7-1.9c1.6,0,2.7,0.7,2.7,1.9c0,1.2-1.1,1.9-2.7,1.9C150.9,2659,149.8,2658.3,149.8,2657.1
			z M158.1,2664.5v0.8h-7.6v-3.1h1v2.3H158.1z M150.8,2657.1c0,0.7,0.7,1.2,1.7,1.2s1.7-0.5,1.7-1.2c0-0.7-0.7-1.1-1.7-1.1
			S150.8,2656.4,150.8,2657.1z M156.9,2661.2v-6.4h1v8.2h-1v-1.1h-2.2v-0.7H156.9z"/>
		<path class="st2" d="M172.5,2661.7h-4.4v3.9h-1v-3.9h-4.3v-0.8h9.7L172.5,2661.7z M171.6,2659.7c-1.7-0.3-3.3-1.2-4-2.5
			c-0.7,1.3-2.3,2.2-4,2.5l-0.4-0.8c2-0.3,3.9-1.6,3.9-3.1v-0.6h1v0.6c0,1.5,1.9,2.8,3.9,3.1L171.6,2659.7z"/>
	</g>
	<g class="st1">
		<path class="st2" d="M101.9,2816.7l0.5-0.7c0.5,0.5,1.1,1,2.2,1c1,0,1.9-0.8,1.9-1.9s-0.7-1.9-1.8-1.9c-0.6,0-1,0.2-1.5,0.5
			l-0.6-0.4l0.3-4.1h4.3v0.9h-3.3l-0.2,2.6c0.4-0.2,0.8-0.4,1.3-0.4c1.5,0,2.7,0.8,2.7,2.7s-1.4,2.9-2.9,2.9
			C103.3,2817.8,102.5,2817.2,101.9,2816.7z"/>
		<path class="st2" d="M108.8,2813.4c0-2.9,1-4.4,2.7-4.4s2.7,1.5,2.7,4.4c0,2.9-1,4.5-2.7,4.5S108.8,2816.2,108.8,2813.4z
			 M113.2,2813.4c0-2.5-0.7-3.5-1.7-3.5c-1,0-1.7,1-1.7,3.5s0.7,3.6,1.7,3.6C112.5,2816.9,113.2,2815.9,113.2,2813.4z"/>
		<path class="st2" d="M118.7,2810.8c0,1.7,0.8,3.5,2.2,4.4l-0.6,0.8c-1-0.6-1.7-1.8-2.1-3.1c-0.4,1.4-1.2,2.6-2.2,3.3l-0.6-0.7
			c1.5-0.9,2.4-2.8,2.4-4.6v-2.1h0.9V2810.8z M121.5,2808h0.9v10h-0.9v-5.6h-1.8v-0.8h1.8V2808z M124.7,2807.8v10.8h-0.9v-10.8
			H124.7z"/>
		<path class="st2" d="M139,2816.4v0.8h-9.8v-0.8h4.4v-2.4h1v2.4H139z M129.8,2813.5c2.1-0.3,3.8-1.6,3.8-3.2h-3.5v-0.8h3.5v-1.5h1
			v1.5h3.5v0.8h-3.5c0,1.7,1.8,2.9,3.8,3.2l-0.4,0.8c-1.7-0.3-3.3-1.2-3.9-2.5c-0.7,1.3-2.2,2.2-4,2.5L129.8,2813.5z"/>
		<path class="st2" d="M143.4,2815.3c1.2,0,2.4-0.1,3.5-0.3l0.1,0.7c-2.2,0.4-4.8,0.4-6.7,0.4l-0.1-0.8c0.7,0,1.5,0,2.3,0v-3.3h1
			V2815.3z M144.9,2813.7c0.3-1.8,0.3-3.1,0.3-4h-4.5v-0.8h5.4v0.6c0,0.9,0,2.3-0.3,4.3L144.9,2813.7z M150.2,2813.1h-1.7v5.4h-1
			v-10.8h1v4.5h1.7V2813.1z"/>
	</g>
	<g class="st1">
		<path class="st2" d="M111.9,2697.4v0.8h-9.7v-0.8h4.4v-1.3h1v1.3H111.9z M102.8,2695.8c2-0.2,3.7-1,3.8-2.2h-3.3v-0.8h3.4v-1.1h1
			v1.1h3.4v0.8h-3.3c0.1,1.2,1.7,2,3.8,2.2l-0.3,0.8c-1.8-0.2-3.3-0.8-4-1.9c-0.7,1.1-2.2,1.7-4,1.9L102.8,2695.8z M110.7,2700.8
			c0,1.2-1.4,1.8-3.7,1.8c-2.3,0-3.7-0.6-3.7-1.8c0-1.2,1.4-1.8,3.7-1.8C109.4,2699,110.7,2699.6,110.7,2700.8z M109.7,2700.8
			c0-0.7-1-1.1-2.7-1.1s-2.7,0.4-2.7,1.1c0,0.7,1,1,2.7,1S109.7,2701.4,109.7,2700.8z"/>
		<path class="st2" d="M122,2697.8c-1.2-0.4-2.2-1.3-2.7-2.4c-0.5,1.2-1.5,2.2-2.7,2.7l-0.5-0.8c1.6-0.6,2.7-2,2.7-3.5v-0.4h-2.5
			v-0.8h5.9v0.8h-2.4v0.4c0,1.4,1.1,2.7,2.7,3.3L122,2697.8z M117.6,2698.9h7.2v3.7h-1v-2.9h-6.2V2698.9z M124.8,2691.8v6.5h-1v-6.5
			H124.8z"/>
		<path class="st2" d="M130,2697.5c-1.1,0-2.1,0.1-3,0.1l-0.1-0.8c2,0,4.7,0,6.9-0.3l0.1,0.7c-0.9,0.1-1.9,0.3-2.9,0.3v2.1h-1
			V2697.5z M127.8,2694.1c0-1.1,1.1-1.9,2.7-1.9c1.6,0,2.7,0.7,2.7,1.9c0,1.2-1.1,1.9-2.7,1.9C128.8,2696,127.8,2695.3,127.8,2694.1
			z M136,2701.5v0.8h-7.6v-3.1h1v2.3H136z M128.7,2694.1c0,0.7,0.7,1.2,1.7,1.2s1.7-0.5,1.7-1.2c0-0.7-0.7-1.1-1.7-1.1
			S128.7,2693.4,128.7,2694.1z M134.8,2698.2v-6.4h1v8.2h-1v-1.1h-2.2v-0.7H134.8z"/>
		<path class="st2" d="M142,2699.1c1.4,0,2.5-0.1,3.6-0.3l0.1,0.8c-1.3,0.3-2.4,0.3-4,0.3h-0.7v-6.8h4v0.8h-3V2699.1z M149.8,2691.8
			v10.8h-0.9v-5.6h-1.5v5.1h-0.9v-10h0.9v4.1h1.5v-4.3H149.8z"/>
		<path class="st2" d="M153.3,2692.7v2.8h3.1v-2.8h1v7.3h-5.1v-7.3H153.3z M153.3,2699.2h3.1v-2.8h-3.1V2699.2z M160.5,2691.8v10.8
			h-1v-10.8H160.5z"/>
		<path class="st2" d="M174.3,2691.8v10.8h-1v-4.2h-2.7c-0.4,1.1-1.3,1.7-2.3,1.7c-1.6,0-2.7-1.5-2.7-3.8s1.1-3.8,2.7-3.8
			c1,0,1.8,0.6,2.2,1.6h2.8v-2.4H174.3z M170.1,2696.4c0-1.7-0.7-2.9-1.8-2.9c-1,0-1.8,1.1-1.8,2.9c0,1.8,0.7,2.9,1.8,2.9
			C169.4,2699.3,170.1,2698.1,170.1,2696.4z M173.3,2697.6v-2.6h-2.5c0.1,0.4,0.2,0.9,0.2,1.4c0,0.4,0,0.9-0.1,1.2H173.3z"/>
		<path class="st2" d="M182.3,2697.7c-1.2-0.4-2.1-1.3-2.6-2.4c-0.5,1.3-1.4,2.2-2.7,2.7l-0.5-0.8c1.7-0.6,2.7-2,2.7-3.7v-1.1h1v1.1
			c0,1.5,1,2.9,2.6,3.4L182.3,2697.7z M185.4,2700.5c0,1.3-1.4,2-3.6,2s-3.6-0.7-3.6-2c0-1.3,1.4-2,3.6-2S185.4,2699.2,185.4,2700.5
			z M184.4,2700.5c0-0.8-1-1.3-2.6-1.3s-2.6,0.5-2.6,1.3c0,0.8,1,1.2,2.6,1.2S184.4,2701.3,184.4,2700.5z M184.4,2694.9H182v-0.8
			h2.3v-2.3h1v6.4h-1V2694.9z"/>
		<path class="st2" d="M196.1,2694.9c0,1.5-1.2,2.5-2.8,2.5c-1.6,0-2.8-1-2.8-2.5s1.2-2.5,2.8-2.5
			C194.9,2692.4,196.1,2693.4,196.1,2694.9z M191.4,2694.9c0,1,0.8,1.7,1.8,1.7c1.1,0,1.9-0.7,1.9-1.7c0-1-0.8-1.7-1.9-1.7
			C192.2,2693.2,191.4,2693.9,191.4,2694.9z M199.1,2698.5v3.9h-7v-3.9H199.1z M193.1,2699.3v2.3h5v-2.3H193.1z M199.1,2691.8v6.2
			h-1v-6.2H199.1z"/>
		<path class="st2" d="M207.4,2697.8c-1.2-0.4-2.2-1.3-2.7-2.4c-0.5,1.2-1.5,2.2-2.7,2.7l-0.5-0.8c1.6-0.6,2.7-2,2.7-3.5v-0.4h-2.5
			v-0.8h5.9v0.8h-2.4v0.4c0,1.4,1.1,2.7,2.7,3.3L207.4,2697.8z M202.9,2698.9h7.2v3.7h-1v-2.9h-6.2V2698.9z M210.1,2691.8v6.5h-1
			v-6.5H210.1z"/>
		<path class="st2" d="M215.4,2697.5c-1.1,0-2.1,0.1-3,0.1l-0.1-0.8c2,0,4.7,0,6.9-0.3l0.1,0.7c-0.9,0.1-1.9,0.3-2.9,0.3v2.1h-1
			V2697.5z M213.1,2694.1c0-1.1,1.1-1.9,2.7-1.9c1.6,0,2.7,0.7,2.7,1.9c0,1.2-1.1,1.9-2.7,1.9C214.2,2696,213.1,2695.3,213.1,2694.1
			z M221.4,2701.5v0.8h-7.6v-3.1h1v2.3H221.4z M214,2694.1c0,0.7,0.7,1.2,1.7,1.2s1.7-0.5,1.7-1.2c0-0.7-0.7-1.1-1.7-1.1
			S214,2693.4,214,2694.1z M220.1,2698.2v-6.4h1v8.2h-1v-1.1h-2.2v-0.7H220.1z"/>
		<path class="st2" d="M227.6,2692.7v2.8h3.1v-2.8h1v7.3h-5.1v-7.3H227.6z M227.6,2699.2h3.1v-2.8h-3.1V2699.2z M234.8,2691.8v10.8
			h-1v-10.8H234.8z"/>
		<path class="st2" d="M244.1,2697.1v1.1h1.5v2.4h-6.3v1.1h6.6v0.8h-7.6v-2.6h6.3v-1h-6.3v-0.7h1.5v-1.1h-2.6v-0.8h9.7v0.8H244.1z
			 M238.2,2693.8c0-1.2,1.4-1.9,3.8-1.9c2.4,0,3.8,0.7,3.8,1.9c0,1.2-1.4,1.9-3.8,1.9C239.6,2695.6,238.2,2695,238.2,2693.8z
			 M239.2,2693.8c0,0.7,1,1.1,2.8,1.1c1.8,0,2.8-0.4,2.8-1.1s-1-1.1-2.8-1.1C240.2,2692.7,239.2,2693.1,239.2,2693.8z M243.1,2697.1
			h-2.4v1.1h2.4V2697.1z"/>
	</g>
	<g class="st1">
		<path class="st2" d="M35.5,2858.5c0,1.9,1.2,3.8,2.7,4.6l-0.6,0.8c-1.1-0.6-2.1-1.9-2.6-3.3c-0.5,1.6-1.5,2.9-2.7,3.6l-0.6-0.8
			c1.5-0.8,2.8-2.9,2.8-4.8v-1.9h1V2858.5z M41.9,2860.8h-1.8v5.6h-1v-10.7h1v4.4h1.8V2860.8z"/>
		<path class="st2" d="M46.9,2863.4c1,0,2.1-0.1,3-0.3l0.1,0.7c-2.4,0.4-5,0.4-7,0.4l-0.1-0.8c0.9,0,1.9,0,3,0v-1.2
			c-1.3-0.2-2.1-0.9-2.1-2c0-1.2,1.1-2,2.6-2s2.6,0.8,2.6,2c0,1.1-0.8,1.8-2.1,2V2863.4z M49.7,2857.7h-6.5v-0.8H46v-1.3h1v1.3h2.8
			V2857.7z M46.5,2861.5c1,0,1.6-0.5,1.6-1.2c0-0.8-0.7-1.2-1.6-1.2c-1,0-1.7,0.5-1.7,1.2C44.8,2861.1,45.5,2861.5,46.5,2861.5z
			 M51.7,2855.6v10.8h-1v-10.8H51.7z"/>
		<path class="st2" d="M59.8,2861.6c-1.2-0.4-2.1-1.3-2.6-2.4c-0.5,1.2-1.4,2.2-2.7,2.7l-0.5-0.8c1.6-0.6,2.7-2,2.7-3.5v-0.4h-2.4
			v-0.8H60v0.8h-2.4v0.4c0,1.4,1.1,2.7,2.6,3.3L59.8,2861.6z M55.6,2862.6h7.2v3.7h-1v-2.9h-6.2V2862.6z M62.8,2855.6v6.4h-1v-2.8
			h-2.1v-0.8h2.1v-2.8H62.8z"/>
	</g>
	<g class="st1">
		<path class="st2" d="M41.6,2884.2v0.8h-9.8v-0.8h4.3v-2.6h1v2.6H41.6z M40.7,2881.7c-1.6-0.3-3.3-1.5-4-3c-0.7,1.5-2.4,2.7-4,3
			l-0.4-0.8c1.9-0.3,3.9-1.9,3.9-3.7v-0.8h1v0.8c0,1.8,2.1,3.4,3.9,3.7L40.7,2881.7z"/>
		<path class="st2" d="M52.6,2882.5h-4.4v3.9h-1v-3.9h-4.3v-0.8h9.7L52.6,2882.5z M51.7,2880.5c-1.7-0.3-3.3-1.2-4-2.5
			c-0.7,1.3-2.3,2.2-4,2.5l-0.4-0.8c2-0.3,3.9-1.6,3.9-3.1v-0.6h1v0.6c0,1.5,1.9,2.8,3.9,3.1L51.7,2880.5z"/>
		<path class="st2" d="M60,2875.9h0.9v9.9H60v-3.7H58v-0.8H60v-1.9h-1.8c-0.5,1.8-1.7,3.4-3.7,4.6l-0.6-0.7c2.3-1.4,3.5-3.3,3.6-5.6
			h-3.2v-0.8h4.1c0,0.6,0,1.1-0.1,1.6H60V2875.9z M63.1,2875.6v10.7h-0.9v-10.7H63.1z"/>
		<path class="st2" d="M74.7,2881.1v0.8H65v-0.8H74.7z M65.5,2879.6c2-0.2,3.7-1,3.8-2.2H66v-0.8h3.4v-1.1h1v1.1h3.4v0.8h-3.3
			c0.1,1.2,1.7,2,3.8,2.2l-0.3,0.8c-1.8-0.2-3.3-0.8-4-1.9c-0.7,1.1-2.2,1.7-4,1.9L65.5,2879.6z M73.5,2884.6c0,1.2-1.4,1.8-3.7,1.8
			c-2.3,0-3.7-0.6-3.7-1.8s1.4-1.8,3.7-1.8C72.1,2882.8,73.5,2883.4,73.5,2884.6z M72.5,2884.6c0-0.7-1-1.1-2.7-1.1
			s-2.7,0.4-2.7,1.1s1,1,2.7,1S72.5,2885.2,72.5,2884.6z"/>
	</g>
	<g class="st1">
		<path class="st2" d="M108,2851.8c-1.2-0.4-2.1-1.2-2.6-2.3c-0.5,1.2-1.4,2.2-2.7,2.6l-0.5-0.8c1.6-0.6,2.7-2,2.7-3.5v-0.4h-2.4
			v-0.8h5.8v0.8h-2.4v0.4c0,1.4,1,2.7,2.6,3.2L108,2851.8z M110.7,2854.6c0,1.3-1.4,2-3.5,2c-2.2,0-3.6-0.7-3.6-2c0-1.2,1.3-2,3.6-2
			C109.3,2852.6,110.7,2853.3,110.7,2854.6z M109.7,2854.6c0-0.8-1-1.2-2.6-1.2c-1.6,0-2.6,0.4-2.6,1.2c0,0.8,1,1.2,2.6,1.2
			C108.7,2855.8,109.7,2855.3,109.7,2854.6z M112.1,2848.5v0.8h-1.6v3h-1v-6.5h1v2.7H112.1z"/>
		<path class="st2" d="M118,2850.4c0,2.3-0.9,3.8-2.3,3.8c-1.4,0-2.3-1.4-2.3-3.8c0-2.3,0.9-3.7,2.3-3.7
			C117.1,2846.7,118,2848.1,118,2850.4z M117,2850.4c0-1.7-0.5-2.8-1.4-2.8c-0.8,0-1.4,1.1-1.4,2.8c0,1.8,0.6,2.8,1.4,2.8
			C116.5,2853.3,117,2852.2,117,2850.4z M122.4,2845.8v10.8h-0.9v-5.7H120v5.2h-0.9v-10h0.9v4h1.5v-4.3H122.4z"/>
		<path class="st2" d="M127.3,2851.9c-1.6,0-2.8-1.1-2.8-2.7c0-1.5,1.2-2.6,2.8-2.6c1.6,0,2.8,1.1,2.8,2.6
			C130.1,2850.8,128.9,2851.9,127.3,2851.9z M127.3,2851c1.1,0,1.9-0.7,1.9-1.8c0-1-0.8-1.8-1.9-1.8c-1,0-1.8,0.7-1.8,1.8
			C125.5,2850.3,126.3,2851,127.3,2851z M133.4,2855.5v0.8h-7.2v-3.5h1v2.7H133.4z M133.1,2853.7h-1v-7.9h1V2853.7z"/>
	</g>
	<g class="st1">
		<path class="st2" d="M101.9,2739.6l0.6-0.7c0.5,0.5,1.2,1,2.2,1c1,0,1.8-0.6,1.8-1.6c0-1-0.7-1.7-2.7-1.7v-0.8
			c1.8,0,2.4-0.7,2.4-1.6c0-0.8-0.6-1.4-1.5-1.4c-0.7,0-1.3,0.4-1.8,0.9l-0.6-0.7c0.7-0.6,1.4-1.1,2.5-1.1c1.5,0,2.6,0.8,2.6,2.2
			c0,1-0.6,1.7-1.6,2v0c1,0.3,1.9,1,1.9,2.2c0,1.5-1.3,2.4-2.8,2.4C103.3,2740.8,102.5,2740.2,101.9,2739.6z"/>
		<path class="st2" d="M108.8,2736.4c0-2.9,1-4.4,2.7-4.4s2.7,1.5,2.7,4.4c0,2.9-1,4.5-2.7,4.5S108.8,2739.2,108.8,2736.4z
			 M113.2,2736.4c0-2.5-0.7-3.5-1.7-3.5c-1,0-1.7,1-1.7,3.5s0.7,3.6,1.7,3.6C112.5,2739.9,113.2,2738.9,113.2,2736.4z"/>
		<path class="st2" d="M118.7,2733.8c0,1.7,0.8,3.5,2.2,4.4l-0.6,0.8c-1-0.6-1.7-1.8-2.1-3.1c-0.4,1.4-1.2,2.6-2.2,3.3l-0.6-0.7
			c1.5-0.9,2.4-2.8,2.4-4.6v-2.1h0.9V2733.8z M121.5,2731h0.9v10h-0.9v-5.6h-1.8v-0.8h1.8V2731z M124.7,2730.8v10.8h-0.9v-10.8
			H124.7z"/>
		<path class="st2" d="M134.8,2731.9v7h-4.9v-7H134.8z M130.8,2732.6v5.4h3v-5.4H130.8z M138,2730.8v10.8h-1v-10.8H138z"/>
		<path class="st2" d="M145.7,2736.7h-4.9v-5h4.9V2736.7z M144.7,2732.6h-3v3.4h3V2732.6z M142.9,2740.5h6.2v0.8h-7.2v-3.4h1V2740.5
			z M150.2,2734.1v0.8h-1.6v3.8h-1v-7.9h1v3.3H150.2z"/>
	</g>
	<g class="st1">
		<path class="st2" d="M107.6,2889v2h3.2v3.6h-1v-2.8h-6.5v-0.8h3.3v-2h-4.4v-0.8h7.2c0.3-1.3,0.3-2.2,0.3-3h-6.3v-0.8h7.3v0.8
			c0,0.8,0,1.8-0.3,3.1h1.5v0.8H107.6z"/>
		<path class="st2" d="M118.7,2885c0,3.1-1.4,5.8-4.9,7.6l-0.5-0.8c2.7-1.4,4.2-3.4,4.4-6h-3.9v-0.8H118.7z M123.2,2889h-1.7v5.6h-1
			v-10.8h1v4.4h1.7V2889z"/>
		<path class="st2" d="M134,2892.4v0.8h-9.8v-0.8h4.4v-2.3h-3.2v-5.5h1v1.9h5.5v-1.9h1v5.5h-3.2v2.3H134z M126.4,2889.3h5.5v-2h-5.5
			V2889.3z"/>
		<path class="st2" d="M145,2890v0.8h-4.3v1.6h-1v-1.6h-4.5v-0.8H145z M144.5,2885.6h-8.6v-0.8h3.9v-1.1h1v1.1h3.8V2885.6z
			 M137.5,2893.5h6.5v0.8h-7.4v-2.7h1V2893.5z M140.2,2886c2.2,0,3.5,0.6,3.5,1.6c0,1.1-1.3,1.6-3.5,1.6c-2.2,0-3.5-0.6-3.5-1.6
			C136.7,2886.6,138,2886,140.2,2886z M140.2,2886.7c-1.6,0-2.5,0.3-2.5,0.9s0.9,0.9,2.5,0.9c1.6,0,2.5-0.3,2.5-0.9
			S141.8,2886.7,140.2,2886.7z"/>
		<path class="st2" d="M150,2887.1c0,1.7,1.2,3.6,2.8,4.4l-0.6,0.8c-1.2-0.6-2.2-1.9-2.7-3.3c-0.5,1.6-1.5,2.9-2.7,3.6l-0.6-0.8
			c1.5-0.8,2.8-2.8,2.8-4.6v-1.4h-2.5v-0.8h5.8v0.8H150V2887.1z M156.4,2889h-1.8v5.6h-1v-10.7h1v4.3h1.8V2889z"/>
	</g>
	<path id="패스_6227" class="st3" d="M20,2908.5h493.1"/>
	<path id="패스_6214" class="st3" d="M20,2563.4h493.1"/>
	<path id="패스_6224" class="st0" d="M384.1,2564.6v344"/>
	<g class="st1">
		<path class="st2" d="M408.4,2661.8h1.8v-5.8h-1.4v-0.6c0.7-0.1,1.2-0.3,1.7-0.6h0.8v7h1.6v0.8h-4.4V2661.8z"/>
		<path class="st2" d="M414,2662.1c2.4-2.4,3.7-3.8,3.7-5c0-0.9-0.5-1.5-1.5-1.5c-0.7,0-1.2,0.4-1.7,0.9l-0.6-0.6
			c0.7-0.7,1.4-1.2,2.4-1.2c1.4,0,2.3,0.9,2.3,2.3c0,1.5-1.3,2.9-3.2,4.9c0.4,0,0.9-0.1,1.3-0.1h2.3v0.9H414V2662.1z"/>
		<path class="st2" d="M419.9,2661.7l0.5-0.7c0.5,0.5,1.1,0.9,2,0.9c1,0,1.6-0.6,1.6-1.4c0-0.9-0.6-1.6-2.5-1.6v-0.8
			c1.7,0,2.2-0.6,2.2-1.5c0-0.8-0.5-1.2-1.4-1.2c-0.6,0-1.2,0.3-1.7,0.8l-0.5-0.6c0.6-0.6,1.3-1,2.3-1c1.4,0,2.3,0.7,2.3,2
			c0,0.9-0.6,1.6-1.4,1.9v0c0.9,0.2,1.7,0.9,1.7,2c0,1.4-1.2,2.2-2.6,2.2C421.2,2662.8,420.5,2662.3,419.9,2661.7z"/>
	</g>
	<g class="st1">
		<path class="st2" d="M409.2,2700.7l0.5-0.7c0.5,0.5,1,0.9,2,0.9c0.9,0,1.7-0.7,1.7-1.8c0-1.1-0.7-1.7-1.7-1.7
			c-0.5,0-0.9,0.2-1.3,0.5l-0.5-0.3l0.3-3.8h3.9v0.9h-3l-0.2,2.3c0.4-0.2,0.7-0.3,1.2-0.3c1.3,0,2.4,0.8,2.4,2.5
			c0,1.7-1.3,2.7-2.6,2.7C410.5,2701.8,409.8,2701.3,409.2,2700.7z"/>
		<path class="st2" d="M415.8,2701.1c0-0.5,0.3-0.8,0.7-0.8c0.4,0,0.7,0.3,0.7,0.8c0,0.5-0.3,0.8-0.7,0.8
			C416.2,2701.8,415.8,2701.5,415.8,2701.1z"/>
		<path class="st2" d="M418.4,2700.7l0.5-0.7c0.5,0.5,1,0.9,2,0.9c0.9,0,1.7-0.7,1.7-1.8c0-1.1-0.7-1.7-1.7-1.7
			c-0.5,0-0.9,0.2-1.3,0.5l-0.5-0.3l0.3-3.8h3.9v0.9h-3l-0.2,2.3c0.4-0.2,0.7-0.3,1.2-0.3c1.3,0,2.4,0.8,2.4,2.5
			c0,1.7-1.3,2.7-2.6,2.7C419.7,2701.8,418.9,2701.3,418.4,2700.7z"/>
	</g>
	<g class="st1">
		<path class="st2" d="M409.5,2737.1c0-3.2,1.4-4.4,3-4.4c0.8,0,1.4,0.4,1.9,0.8l-0.6,0.6c-0.3-0.4-0.8-0.6-1.3-0.6
			c-1.1,0-2,0.8-2.1,3.3c0.5-0.6,1.2-1,1.8-1c1.4,0,2.2,0.8,2.2,2.4c0,1.5-1.1,2.5-2.3,2.5C410.7,2740.8,409.5,2739.6,409.5,2737.1z
			 M410.5,2737.7c0.1,1.5,0.7,2.4,1.7,2.4c0.8,0,1.4-0.7,1.4-1.7c0-1-0.5-1.7-1.5-1.7C411.6,2736.6,411,2736.9,410.5,2737.7z"/>
		<path class="st2" d="M415.8,2740.1c0-0.5,0.3-0.8,0.7-0.8c0.4,0,0.7,0.3,0.7,0.8c0,0.5-0.3,0.8-0.7,0.8
			C416.2,2740.8,415.8,2740.5,415.8,2740.1z"/>
		<path class="st2" d="M418.4,2739.7l0.5-0.7c0.5,0.5,1,0.9,2,0.9c0.9,0,1.7-0.7,1.7-1.8c0-1.1-0.7-1.7-1.7-1.7
			c-0.5,0-0.9,0.2-1.3,0.5l-0.5-0.3l0.3-3.8h3.9v0.9h-3l-0.2,2.3c0.4-0.2,0.7-0.3,1.2-0.3c1.3,0,2.4,0.8,2.4,2.5
			c0,1.7-1.3,2.7-2.6,2.7C419.7,2740.8,418.9,2740.3,418.4,2739.7z"/>
	</g>
	<g class="st1">
		<path class="st2" d="M409.9,2854.8h1.8v-5.8h-1.4v-0.6c0.7-0.1,1.2-0.3,1.7-0.6h0.8v7h1.6v0.8h-4.4V2854.8z"/>
		<path class="st2" d="M415.8,2855.1c0-0.5,0.3-0.8,0.7-0.8c0.4,0,0.7,0.3,0.7,0.8c0,0.5-0.3,0.8-0.7,0.8
			C416.2,2855.8,415.8,2855.5,415.8,2855.1z"/>
		<path class="st2" d="M418.4,2854.7l0.5-0.7c0.5,0.5,1.1,0.9,2,0.9c1,0,1.6-0.6,1.6-1.4c0-0.9-0.6-1.6-2.5-1.6v-0.8
			c1.7,0,2.2-0.6,2.2-1.5c0-0.8-0.5-1.2-1.4-1.2c-0.6,0-1.2,0.3-1.7,0.8l-0.5-0.6c0.6-0.6,1.3-1,2.3-1c1.4,0,2.3,0.7,2.3,2
			c0,0.9-0.6,1.6-1.4,1.9v0c0.9,0.2,1.7,0.9,1.7,2c0,1.4-1.2,2.2-2.6,2.2C419.7,2855.8,418.9,2855.3,418.4,2854.7z"/>
	</g>
	<g class="st1">
		<path class="st2" d="M409.2,2892.7l0.5-0.7c0.5,0.5,1.1,0.9,2,0.9c1,0,1.6-0.6,1.6-1.4c0-0.9-0.6-1.6-2.5-1.6v-0.8
			c1.7,0,2.2-0.6,2.2-1.5c0-0.8-0.5-1.2-1.4-1.2c-0.6,0-1.2,0.3-1.7,0.8l-0.5-0.6c0.6-0.6,1.3-1,2.3-1c1.4,0,2.3,0.7,2.3,2
			c0,0.9-0.6,1.6-1.4,1.9v0c0.9,0.2,1.7,0.9,1.7,2c0,1.4-1.2,2.2-2.6,2.2C410.6,2893.8,409.8,2893.3,409.2,2892.7z"/>
		<path class="st2" d="M415.8,2893.1c0-0.5,0.3-0.8,0.7-0.8c0.4,0,0.7,0.3,0.7,0.8c0,0.5-0.3,0.8-0.7,0.8
			C416.2,2893.8,415.8,2893.5,415.8,2893.1z"/>
		<path class="st2" d="M418.6,2893.1c2.4-2.4,3.7-3.8,3.7-5c0-0.9-0.5-1.5-1.5-1.5c-0.7,0-1.2,0.4-1.7,0.9l-0.6-0.6
			c0.7-0.7,1.4-1.2,2.4-1.2c1.4,0,2.3,0.9,2.3,2.3c0,1.5-1.3,2.9-3.2,4.9c0.4,0,0.9-0.1,1.3-0.1h2.3v0.9h-5.1V2893.1z"/>
	</g>
	<path id="패스_6226" class="st0" d="M448.3,2563.6v345"/>
	<g class="st1">
		<path d="M403.1,2587.9c2.5-2.4,3.9-3.9,3.9-5.3c0-0.9-0.5-1.6-1.5-1.6c-0.7,0-1.3,0.4-1.7,1l-0.8-0.8c0.8-0.8,1.5-1.3,2.7-1.3
			c1.6,0,2.7,1,2.7,2.6c0,1.6-1.4,3.2-3.3,5.1c0.4,0,1-0.1,1.4-0.1h2.2v1.2h-5.7V2587.9z"/>
		<path d="M410,2584.3c0-2.9,1.1-4.4,2.9-4.4c1.8,0,2.9,1.5,2.9,4.4c0,2.9-1.1,4.5-2.9,4.5C411.1,2588.8,410,2587.2,410,2584.3z
			 M414.4,2584.3c0-2.5-0.6-3.3-1.5-3.3s-1.5,0.9-1.5,3.3c0,2.5,0.6,3.4,1.5,3.4S414.4,2586.8,414.4,2584.3z"/>
		<path d="M417.3,2587.5h1.9v-5.9h-1.6v-0.9c0.8-0.1,1.4-0.4,1.9-0.7h1v7.4h1.7v1.1h-5V2587.5z"/>
		<path d="M423.7,2587.9l0.8-0.9c0.3,0.4,0.9,0.7,1.4,0.7c1.1,0,2.1-0.9,2.1-3.4c-0.5,0.7-1.3,1-1.9,1c-1.5,0-2.5-0.9-2.5-2.7
			c0-1.7,1.2-2.8,2.6-2.8c1.7,0,3.1,1.3,3.1,4.2c0,3.4-1.6,4.7-3.3,4.7C424.9,2588.8,424.2,2588.4,423.7,2587.9z M426.3,2584.4
			c0.5,0,1.2-0.3,1.7-1.1c-0.2-1.6-0.8-2.3-1.7-2.3c-0.8,0-1.4,0.6-1.4,1.7C424.9,2583.8,425.4,2584.4,426.3,2584.4z"/>
	</g>
	<g class="st1">
		<path d="M467.1,2587.9c2.5-2.4,3.9-3.9,3.9-5.3c0-0.9-0.5-1.6-1.5-1.6c-0.7,0-1.3,0.4-1.7,1l-0.8-0.8c0.8-0.8,1.5-1.3,2.7-1.3
			c1.6,0,2.7,1,2.7,2.6c0,1.6-1.4,3.2-3.3,5.1c0.4,0,1-0.1,1.4-0.1h2.2v1.2h-5.7V2587.9z"/>
		<path d="M474,2584.3c0-2.9,1.1-4.4,2.9-4.4c1.8,0,2.9,1.5,2.9,4.4c0,2.9-1.1,4.5-2.9,4.5C475.1,2588.8,474,2587.2,474,2584.3z
			 M478.4,2584.3c0-2.5-0.6-3.3-1.5-3.3s-1.5,0.9-1.5,3.3c0,2.5,0.6,3.4,1.5,3.4S478.4,2586.8,478.4,2584.3z"/>
		<path d="M480.8,2587.9c2.5-2.4,3.9-3.9,3.9-5.3c0-0.9-0.5-1.6-1.5-1.6c-0.7,0-1.3,0.4-1.7,1l-0.8-0.8c0.8-0.8,1.5-1.3,2.7-1.3
			c1.6,0,2.7,1,2.7,2.6c0,1.6-1.4,3.2-3.3,5.1c0.4,0,1-0.1,1.4-0.1h2.2v1.2h-5.7V2587.9z"/>
		<path d="M487.6,2584.3c0-2.9,1.1-4.4,2.9-4.4c1.8,0,2.9,1.5,2.9,4.4c0,2.9-1.1,4.5-2.9,4.5
			C488.7,2588.8,487.6,2587.2,487.6,2584.3z M492,2584.3c0-2.5-0.6-3.3-1.5-3.3s-1.5,0.9-1.5,3.3c0,2.5,0.6,3.4,1.5,3.4
			S492,2586.8,492,2584.3z"/>
	</g>
	<g class="st1">
		<path class="st2" d="M403.3,2625.1c2.4-2.4,3.7-3.8,3.7-5c0-0.9-0.5-1.5-1.5-1.5c-0.7,0-1.2,0.4-1.7,0.9l-0.6-0.6
			c0.7-0.7,1.4-1.2,2.4-1.2c1.4,0,2.3,0.9,2.3,2.3c0,1.5-1.3,2.9-3.2,4.9c0.4,0,0.9-0.1,1.3-0.1h2.3v0.9h-5.1V2625.1z"/>
		<path class="st2" d="M409.5,2627.2c0.7-0.3,1.1-0.8,1.1-1.5c0,0-0.1,0-0.1,0c-0.4,0-0.7-0.2-0.7-0.7c0-0.4,0.4-0.7,0.8-0.7
			c0.5,0,0.8,0.5,0.8,1.2c0,1.1-0.6,1.9-1.6,2.3L409.5,2627.2z"/>
		<path class="st2" d="M412.5,2625.1c2.4-2.4,3.7-3.8,3.7-5c0-0.9-0.5-1.5-1.5-1.5c-0.7,0-1.2,0.4-1.7,0.9l-0.6-0.6
			c0.7-0.7,1.4-1.2,2.4-1.2c1.4,0,2.3,0.9,2.3,2.3c0,1.5-1.3,2.9-3.2,4.9c0.4,0,0.9-0.1,1.3-0.1h2.3v0.9h-5.1V2625.1z"/>
		<path class="st2" d="M418.4,2624.7l0.5-0.7c0.5,0.5,1.1,0.9,2,0.9c1,0,1.6-0.6,1.6-1.4c0-0.9-0.6-1.6-2.5-1.6v-0.8
			c1.7,0,2.2-0.6,2.2-1.5c0-0.8-0.5-1.2-1.4-1.2c-0.6,0-1.2,0.3-1.7,0.8l-0.5-0.6c0.6-0.6,1.3-1,2.3-1c1.4,0,2.3,0.7,2.3,2
			c0,0.9-0.6,1.6-1.4,1.9v0c0.9,0.2,1.7,0.9,1.7,2c0,1.4-1.2,2.2-2.6,2.2C419.7,2625.8,418.9,2625.3,418.4,2624.7z"/>
		<path class="st2" d="M427.9,2623.5h-3.5v-0.7l3.4-5h1.1v4.9h1.1v0.8h-1.1v2.2h-0.9V2623.5z M427.9,2622.7v-2.3
			c0-0.4,0-1.1,0.1-1.5h0c-0.2,0.4-0.4,0.7-0.6,1.1l-1.8,2.7H427.9z"/>
	</g>
	<g class="st1">
		<path class="st2" d="M410.3,2771.7h-3.9v-0.9h5v0.6c-1.8,2.4-2.2,4.2-2.4,7.2h-1C408.2,2775.7,408.8,2773.8,410.3,2771.7z"/>
		<path class="st2" d="M412.9,2777.8h1.8v-5.8h-1.4v-0.6c0.7-0.1,1.2-0.3,1.7-0.6h0.8v7h1.6v0.8h-4.4V2777.8z"/>
		<path class="st2" d="M418.9,2778.1c0-0.5,0.3-0.8,0.7-0.8c0.4,0,0.7,0.3,0.7,0.8c0,0.5-0.3,0.8-0.7,0.8
			C419.2,2778.8,418.9,2778.5,418.9,2778.1z"/>
		<path class="st2" d="M425.6,2771.7h-3.9v-0.9h5v0.6c-1.8,2.4-2.2,4.2-2.4,7.2h-1C423.5,2775.7,424,2773.8,425.6,2771.7z"/>
	</g>
	<g class="st1">
		<path class="st2" d="M406.4,2817.1c2.4-2.4,3.7-3.8,3.7-5c0-0.9-0.5-1.5-1.5-1.5c-0.7,0-1.2,0.4-1.7,0.9l-0.6-0.6
			c0.7-0.7,1.4-1.2,2.4-1.2c1.4,0,2.3,0.9,2.3,2.3c0,1.5-1.3,2.9-3.2,4.9c0.4,0,0.9-0.1,1.3-0.1h2.3v0.9h-5.1V2817.1z"/>
		<path class="st2" d="M412.9,2816.8h1.8v-5.8h-1.4v-0.6c0.7-0.1,1.2-0.3,1.7-0.6h0.8v7h1.6v0.8h-4.4V2816.8z"/>
		<path class="st2" d="M418.9,2817.1c0-0.5,0.3-0.8,0.7-0.8c0.4,0,0.7,0.3,0.7,0.8c0,0.5-0.3,0.8-0.7,0.8
			C419.2,2817.8,418.9,2817.5,418.9,2817.1z"/>
		<path class="st2" d="M421.6,2815.7c0-1,0.7-1.7,1.5-2.1v0c-0.6-0.4-1.1-1-1.1-1.8c0-1.2,1-2,2.2-2c1.4,0,2.2,0.9,2.2,2.1
			c0,0.8-0.6,1.5-1.1,1.9v0.1c0.7,0.4,1.4,1,1.4,2c0,1.2-1,2.1-2.5,2.1C422.7,2817.8,421.6,2816.9,421.6,2815.7z M425.8,2815.7
			c0-1-1-1.4-2.1-1.8c-0.6,0.4-1.1,1-1.1,1.7c0,0.9,0.7,1.5,1.7,1.5C425.2,2817.1,425.8,2816.5,425.8,2815.7z M425.6,2811.8
			c0-0.8-0.5-1.4-1.4-1.4c-0.7,0-1.3,0.5-1.3,1.3c0,0.9,0.9,1.3,1.8,1.7C425.3,2812.9,425.6,2812.4,425.6,2811.8z"/>
	</g>
	<g class="st1">
		<path class="st2" d="M467.8,2624.8h1.8v-5.8h-1.4v-0.6c0.7-0.1,1.2-0.3,1.7-0.6h0.8v7h1.6v0.8h-4.4V2624.8z"/>
		<path class="st2" d="M473.5,2627.2c0.7-0.3,1.1-0.8,1.1-1.5c0,0-0.1,0-0.1,0c-0.4,0-0.7-0.2-0.7-0.7c0-0.4,0.4-0.7,0.8-0.7
			c0.5,0,0.8,0.5,0.8,1.2c0,1.1-0.6,1.9-1.6,2.3L473.5,2627.2z"/>
		<path class="st2" d="M476.3,2624.7l0.5-0.7c0.5,0.5,1,0.9,2,0.9c0.9,0,1.7-0.7,1.7-1.8c0-1.1-0.7-1.7-1.7-1.7
			c-0.5,0-0.9,0.2-1.3,0.5l-0.5-0.3l0.3-3.8h3.9v0.9h-3l-0.2,2.3c0.4-0.2,0.7-0.3,1.2-0.3c1.3,0,2.4,0.8,2.4,2.5
			c0,1.7-1.3,2.7-2.6,2.7C477.6,2625.8,476.8,2625.3,476.3,2624.7z"/>
		<path class="st2" d="M482.4,2624.7l0.5-0.7c0.5,0.5,1,0.9,2,0.9c0.9,0,1.7-0.7,1.7-1.8c0-1.1-0.7-1.7-1.7-1.7
			c-0.5,0-0.9,0.2-1.3,0.5l-0.5-0.3l0.3-3.8h3.9v0.9h-3l-0.2,2.3c0.4-0.2,0.7-0.3,1.2-0.3c1.3,0,2.4,0.8,2.4,2.5
			c0,1.7-1.3,2.7-2.6,2.7C483.7,2625.8,482.9,2625.3,482.4,2624.7z"/>
		<path class="st2" d="M489.2,2624.8h1.8v-5.8h-1.4v-0.6c0.7-0.1,1.2-0.3,1.7-0.6h0.8v7h1.6v0.8h-4.4V2624.8z"/>
	</g>
	<g class="st1">
		<path class="st2" d="M475.1,2662l0.6-0.6c0.3,0.4,0.8,0.6,1.3,0.6c1.1,0,2-0.9,2.1-3.4c-0.5,0.6-1.2,1-1.8,1
			c-1.4,0-2.2-0.8-2.2-2.4c0-1.5,1.1-2.5,2.3-2.5c1.6,0,2.7,1.3,2.7,3.8c0,3.1-1.4,4.4-3,4.4C476.1,2662.8,475.5,2662.5,475.1,2662z
			 M477.3,2658.9c0.5,0,1.1-0.3,1.6-1.1c-0.1-1.5-0.7-2.3-1.7-2.3c-0.8,0-1.4,0.7-1.4,1.7C475.9,2658.2,476.4,2658.9,477.3,2658.9z"
			/>
		<path class="st2" d="M485,2655.7h-3.9v-0.9h5v0.6c-1.8,2.4-2.2,4.2-2.4,7.2h-1C482.9,2659.7,483.5,2657.8,485,2655.7z"/>
	</g>
	<g class="st1">
		<path class="st2" d="M473.5,2698.1c0-3.2,1.4-4.4,3-4.4c0.8,0,1.4,0.4,1.9,0.8l-0.6,0.6c-0.3-0.4-0.8-0.6-1.3-0.6
			c-1.1,0-2,0.8-2.1,3.3c0.5-0.6,1.2-1,1.8-1c1.4,0,2.2,0.8,2.2,2.4c0,1.5-1.1,2.5-2.3,2.5C474.7,2701.8,473.5,2700.6,473.5,2698.1z
			 M474.5,2698.7c0.1,1.5,0.7,2.4,1.7,2.4c0.8,0,1.4-0.7,1.4-1.7c0-1-0.5-1.7-1.5-1.7C475.6,2697.6,475,2697.9,474.5,2698.7z"/>
		<path class="st2" d="M479.8,2701.1c0-0.5,0.3-0.8,0.7-0.8c0.4,0,0.7,0.3,0.7,0.8c0,0.5-0.3,0.8-0.7,0.8
			C480.2,2701.8,479.8,2701.5,479.8,2701.1z"/>
		<path class="st2" d="M482.6,2701.1c2.4-2.4,3.7-3.8,3.7-5c0-0.9-0.5-1.5-1.5-1.5c-0.7,0-1.2,0.4-1.7,0.9l-0.6-0.6
			c0.7-0.7,1.4-1.2,2.4-1.2c1.4,0,2.3,0.9,2.3,2.3c0,1.5-1.3,2.9-3.2,4.9c0.4,0,0.9-0.1,1.3-0.1h2.3v0.9h-5.1V2701.1z"/>
	</g>
	<g class="st1">
		<path class="st2" d="M473.5,2737.1c0-3.2,1.4-4.4,3-4.4c0.8,0,1.4,0.4,1.9,0.8l-0.6,0.6c-0.3-0.4-0.8-0.6-1.3-0.6
			c-1.1,0-2,0.8-2.1,3.3c0.5-0.6,1.2-1,1.8-1c1.4,0,2.2,0.8,2.2,2.4c0,1.5-1.1,2.5-2.3,2.5C474.7,2740.8,473.5,2739.6,473.5,2737.1z
			 M474.5,2737.7c0.1,1.5,0.7,2.4,1.7,2.4c0.8,0,1.4-0.7,1.4-1.7c0-1-0.5-1.7-1.5-1.7C475.6,2736.6,475,2736.9,474.5,2737.7z"/>
		<path class="st2" d="M479.8,2740.1c0-0.5,0.3-0.8,0.7-0.8c0.4,0,0.7,0.3,0.7,0.8c0,0.5-0.3,0.8-0.7,0.8
			C480.2,2740.8,479.8,2740.5,479.8,2740.1z"/>
		<path class="st2" d="M485.8,2738.5h-3.5v-0.7l3.4-5h1.1v4.9h1.1v0.8h-1.1v2.2h-0.9V2738.5z M485.8,2737.7v-2.3
			c0-0.4,0-1.1,0.1-1.5h0c-0.2,0.4-0.4,0.7-0.6,1.1l-1.8,2.7H485.8z"/>
	</g>
	<g class="st1">
		<path class="st2" d="M474.3,2771.7h-3.9v-0.9h5v0.6c-1.8,2.4-2.2,4.2-2.4,7.2h-1C472.2,2775.7,472.8,2773.8,474.3,2771.7z"/>
		<path class="st2" d="M476.5,2774.7c0-2.6,1-4,2.5-4s2.5,1.4,2.5,4c0,2.6-0.9,4.1-2.5,4.1S476.5,2777.3,476.5,2774.7z
			 M480.6,2774.7c0-2.3-0.6-3.2-1.5-3.2c-0.9,0-1.5,0.9-1.5,3.2c0,2.3,0.6,3.3,1.5,3.3C479.9,2778,480.6,2777,480.6,2774.7z"/>
		<path class="st2" d="M482.9,2778.1c0-0.5,0.3-0.8,0.7-0.8c0.4,0,0.7,0.3,0.7,0.8c0,0.5-0.3,0.8-0.7,0.8
			C483.2,2778.8,482.9,2778.5,482.9,2778.1z"/>
		<path class="st2" d="M485.7,2775.1c0-3.2,1.4-4.4,3-4.4c0.8,0,1.4,0.4,1.9,0.8l-0.6,0.6c-0.3-0.4-0.8-0.6-1.3-0.6
			c-1.1,0-2,0.8-2.1,3.3c0.5-0.6,1.2-1,1.8-1c1.4,0,2.2,0.8,2.2,2.4c0,1.5-1.1,2.5-2.3,2.5C486.9,2778.8,485.7,2777.6,485.7,2775.1z
			 M486.7,2775.7c0.1,1.5,0.7,2.4,1.7,2.4c0.8,0,1.4-0.7,1.4-1.7c0-1-0.5-1.7-1.5-1.7C487.8,2774.6,487.2,2774.9,486.7,2775.7z"/>
	</g>
	<g class="st1">
		<path class="st2" d="M470.4,2817.1c2.4-2.4,3.7-3.8,3.7-5c0-0.9-0.5-1.5-1.5-1.5c-0.7,0-1.2,0.4-1.7,0.9l-0.6-0.6
			c0.7-0.7,1.4-1.2,2.4-1.2c1.4,0,2.3,0.9,2.3,2.3c0,1.5-1.3,2.9-3.2,4.9c0.4,0,0.9-0.1,1.3-0.1h2.3v0.9h-5.1V2817.1z"/>
		<path class="st2" d="M476.3,2816.7l0.5-0.7c0.5,0.5,1.1,0.9,2,0.9c1,0,1.6-0.6,1.6-1.4c0-0.9-0.6-1.6-2.5-1.6v-0.8
			c1.7,0,2.2-0.6,2.2-1.5c0-0.8-0.5-1.2-1.4-1.2c-0.6,0-1.2,0.3-1.7,0.8l-0.5-0.6c0.6-0.6,1.3-1,2.3-1c1.4,0,2.3,0.7,2.3,2
			c0,0.9-0.6,1.6-1.4,1.9v0c0.9,0.2,1.7,0.9,1.7,2c0,1.4-1.2,2.2-2.6,2.2C477.6,2817.8,476.8,2817.3,476.3,2816.7z"/>
		<path class="st2" d="M482.9,2817.1c0-0.5,0.3-0.8,0.7-0.8c0.4,0,0.7,0.3,0.7,0.8c0,0.5-0.3,0.8-0.7,0.8
			C483.2,2817.8,482.9,2817.5,482.9,2817.1z"/>
		<path class="st2" d="M485.7,2813.7c0-2.6,1-4,2.5-4s2.5,1.4,2.5,4c0,2.6-0.9,4.1-2.5,4.1S485.7,2816.3,485.7,2813.7z
			 M489.7,2813.7c0-2.3-0.6-3.2-1.5-3.2c-0.9,0-1.5,0.9-1.5,3.2c0,2.3,0.6,3.3,1.5,3.3C489.1,2817,489.7,2816,489.7,2813.7z"/>
	</g>
	<g class="st1">
		<path class="st2" d="M473.9,2854.8h1.8v-5.8h-1.4v-0.6c0.7-0.1,1.2-0.3,1.7-0.6h0.8v7h1.6v0.8h-4.4V2854.8z"/>
		<path class="st2" d="M479.8,2855.1c0-0.5,0.3-0.8,0.7-0.8c0.4,0,0.7,0.3,0.7,0.8c0,0.5-0.3,0.8-0.7,0.8
			C480.2,2855.8,479.8,2855.5,479.8,2855.1z"/>
		<path class="st2" d="M483.1,2854.8h1.8v-5.8h-1.4v-0.6c0.7-0.1,1.2-0.3,1.7-0.6h0.8v7h1.6v0.8h-4.4V2854.8z"/>
	</g>
	<g class="st1">
		<path class="st2" d="M473.2,2892.7l0.5-0.7c0.5,0.5,1.1,0.9,2,0.9c1,0,1.6-0.6,1.6-1.4c0-0.9-0.6-1.6-2.5-1.6v-0.8
			c1.7,0,2.2-0.6,2.2-1.5c0-0.8-0.5-1.2-1.4-1.2c-0.6,0-1.2,0.3-1.7,0.8l-0.5-0.6c0.6-0.6,1.3-1,2.3-1c1.4,0,2.3,0.7,2.3,2
			c0,0.9-0.6,1.6-1.4,1.9v0c0.9,0.2,1.7,0.9,1.7,2c0,1.4-1.2,2.2-2.6,2.2C474.6,2893.8,473.8,2893.3,473.2,2892.7z"/>
		<path class="st2" d="M479.8,2893.1c0-0.5,0.3-0.8,0.7-0.8c0.4,0,0.7,0.3,0.7,0.8c0,0.5-0.3,0.8-0.7,0.8
			C480.2,2893.8,479.8,2893.5,479.8,2893.1z"/>
		<path class="st2" d="M485.8,2891.5h-3.5v-0.7l3.4-5h1.1v4.9h1.1v0.8h-1.1v2.2h-0.9V2891.5z M485.8,2890.7v-2.3
			c0-0.4,0-1.1,0.1-1.5h0c-0.2,0.4-0.4,0.7-0.6,1.1l-1.8,2.7H485.8z"/>
	</g>
</g>
</svg>
