<svg xmlns="http://www.w3.org/2000/svg" width="789.876" height="393.832" viewBox="0 0 789.876 393.832">
  <g id="그룹_5738" data-name="그룹 5738" transform="translate(-22.5 -887.244)">
    <g id="그룹_5615" data-name="그룹 5615" transform="translate(23 887.744)">
      <line id="선_404" data-name="선 404" x2="761.414" transform="translate(13.758 46.418)" fill="none" stroke="#cbcbcb" stroke-width="1" stroke-dasharray="2 2"/>
      <line id="선_405" data-name="선 405" x2="761.414" transform="translate(13.758 147.42)" fill="none" stroke="#cbcbcb" stroke-width="1" stroke-dasharray="2 2"/>
      <line id="선_406" data-name="선 406" x2="761.414" transform="translate(13.758 280.724)" fill="none" stroke="#cbcbcb" stroke-width="1" stroke-dasharray="2 2"/>
      <rect id="사각형_508" data-name="사각형 508" width="788.876" height="392.832" transform="translate(0 0)" fill="none" stroke="#d6d6d6" stroke-width="1"/>
      <rect id="사각형_509" data-name="사각형 509" width="243.392" height="28.489" transform="translate(146.851 50.538)" fill="#ededed"/>
      <g id="그룹_5590" data-name="그룹 5590" transform="translate(218.908 59.403)">
        <path id="패스_3610" data-name="패스 3610" d="M262.851,328.788h.916v-8.183h-.916Zm3.033,0h.916v-8.183h-.916Zm-13.758,1.282h.836l2.862-10.129h-.836Zm-4.189-1.282h.916v-8.183h-.916Zm-4.219-.618c0-1.259-1.282-2.037-3.571-2.037s-3.559.778-3.559,2.037,1.282,2.027,3.559,2.027,3.571-.778,3.571-2.027m-8.493-6.958h2.427c0,.2,0,.457-.011.572a4.2,4.2,0,0,1-2.747,3.376l.5.743a5.35,5.35,0,0,0,2.712-2.77,5.282,5.282,0,0,0,2.69,2.393l.549-.745A3.7,3.7,0,0,1,238.6,321.8c-.012-.127-.012-.366-.012-.583h2.393v-.778h-5.758Zm4.922,5.7c1.66,0,2.633.459,2.633,1.259s-.972,1.248-2.633,1.248c-1.636,0-2.62-.458-2.62-1.248s.984-1.259,2.62-1.259m2.564-3.823v3.069h.928v-6.605h-.928v2.758h-2.14v.778Zm-18.477-2.414v.778h4.636a18.659,18.659,0,0,1-.333,3.983l.882.114a25.768,25.768,0,0,0,.377-4.876Zm6.3,6.054a35.158,35.158,0,0,1-3.571.31v-3.331h-.926v3.354c-.8.023-1.752.012-2.335.012l.137.812c.893,0,2.071-.034,3.147-.079,1.03-.058,2.6-.172,3.629-.31Zm3.342-1.946v-.789h-1.728v-4.441h-.928V330.2h.928v-5.415Zm-15.528,5.425v-3.869H222.7v-.778H213.09v.778h4.327v3.869Zm3.972-6.569c-1.877-.23-3.927-1.592-3.927-3.046v-.675h-.972v.675c0,1.454-1.877,2.8-3.915,3.068l.446.8c1.615-.322,3.434-1.363,3.95-2.6a6.028,6.028,0,0,0,3.971,2.564Zm-10.646,6.477v-.766h-6.283v-1.168h5.894v-2.506h-6.856v.754h5.929v1.042h-5.9v2.643Zm-2.358-6.375c-.412.069-1.053.125-1.808.171l.275-2.311-.916-.116-.183,2.462a2.618,2.618,0,0,1-.285.011c-.435.024-.882.046-1.351.058l-.172-2.507-.927.114.263,2.405c-.491.011-1,.011-1.476.011l.137.8c.949,0,2.152-.046,3.319-.1s2.427-.16,3.2-.273Zm1.958-4.189h-.928v5.6h.928Zm-2.462.687h-5.78v.755h5.78Zm-20.064,3.811c0,2.266.972,3.766,2.689,3.766,1.625,0,2.576-1.34,2.668-3.388h2.277V330.2h.928V319.552h-.928v4.087H194.1c-.115-2.016-1.053-3.344-2.668-3.344-1.717,0-2.689,1.511-2.689,3.754m4.452.012c0,1.74-.71,2.953-1.763,2.953s-1.763-1.213-1.763-2.953.71-2.965,1.763-2.965,1.763,1.213,1.763,2.965m-6.376-4.51H185.9V330.2h.916Zm-2,6.73a29.72,29.72,0,0,1-5.093.481v-6.1h-.928v6.913h.47a33.348,33.348,0,0,0,5.642-.491Zm-8.136-2.449c-1.625-.183-3.811-1.259-3.857-2.759h3.423v-.766H168.4v.766h3.445c-.046,1.489-2.106,2.6-3.846,2.782l.424.778c1.819-.3,3.467-1.4,3.9-2.393a5.749,5.749,0,0,0,3.916,2.37Zm-3.9,6.364v-3.812h4.36v-.778h-9.615v.778h4.327V330.2Z" transform="translate(-167.522 -319.552)" fill="#444443"/>
      </g>
      <rect id="사각형_510" data-name="사각형 510" width="119.818" height="93.099" transform="translate(13.9 50.37)" fill="#e37e28"/>
      <g id="그룹_5591" data-name="그룹 5591" transform="translate(24.695 84.349)">
        <path id="패스_3611" data-name="패스 3611" d="M121.523,347.058v-1.386h-3.959v-7.595H115.99v8.98Zm-9.651-3.123H108.64l1.616-4.282Zm2.894,3.123-3.527-8.98h-1.966l-3.528,8.98h1.791l.66-1.737h4.119l.66,1.737Zm-11.4,0v-7.595h2.72v-1.386H99.07v1.386h2.72v7.595Zm-5.762,0v-8.98H96.029v6.22l-4.595-6.22H89.822v8.98h1.573v-6.422l4.689,6.422Zm-9.806,0v-1.386H83.218v-2.506H87.7V341.78H83.218v-2.317H87.8v-1.386H81.645v8.98Zm-8.436,0v-8.98H77.138L74.7,344.243l-2.449-6.166H70.031v8.98H71.6v-6.934l2.762,6.934h.673l2.748-6.934v6.934Zm-13.5-3.123H62.624l1.616-4.282Zm2.9,3.123-3.528-8.98H63.257l-3.527,8.98h1.791l.658-1.737H66.3l.66,1.737ZM54.53,345.672H52.766v-6.209h1.778a2.9,2.9,0,0,1,3.072,3.1,2.953,2.953,0,0,1-3.085,3.111m.013,1.386a4.495,4.495,0,1,0-.013-8.98H51.192v8.98Zm-5.629,0v-8.98H47.34v6.22l-4.593-6.22H41.132v8.98h1.574v-6.422l4.688,6.422Zm-13.927.162c2.612,0,3.89-1.493,3.89-3.715v-5.427h-1.6v5.386a2.291,2.291,0,1,1-4.58,0v-5.386H31.1V343.5c0,2.222,1.291,3.715,3.892,3.715m-10.116-.162v-3.892h4.484V341.78H24.872v-2.317h4.578v-1.386H23.3v8.98Z" transform="translate(-23.298 -338.077)" fill="#fff"/>
        <path id="패스_3612" data-name="패스 3612" d="M93.382,359.1V357.71H88.8V355.2h4.484v-1.386H88.8V351.5h4.578v-1.386H87.229v8.98Zm-11.417.162c2.41,0,3.473-1.291,3.473-2.786,0-3.341-5.225-2.3-5.225-3.987,0-.66.592-1.118,1.51-1.118a3.661,3.661,0,0,1,2.612,1.037l.887-1.172a4.648,4.648,0,0,0-3.352-1.264c-1.981,0-3.272,1.143-3.272,2.638,0,3.3,5.225,2.129,5.225,4.014,0,.606-.5,1.239-1.791,1.239a3.854,3.854,0,0,1-2.841-1.252l-.889,1.225a4.907,4.907,0,0,0,3.663,1.426m-8.023-4.9H71.773V351.5h2.169a1.432,1.432,0,1,1,0,2.856m3.217,4.739-2.207-3.528a2.525,2.525,0,0,0,2.14-2.638,2.729,2.729,0,0,0-2.948-2.814H70.2v8.98h1.574v-3.353H73.35l1.979,3.353Zm-13.105.162c2.612,0,3.89-1.493,3.89-3.715v-5.427h-1.6V355.5a2.291,2.291,0,1,1-4.58,0v-5.386h-1.6v5.427c0,2.222,1.291,3.715,3.892,3.715m-10.242-1.4a3.258,3.258,0,1,1,2.976-3.245,2.983,2.983,0,0,1-2.976,3.245m0,1.4a4.645,4.645,0,1,0-4.592-4.644,4.461,4.461,0,0,0,4.592,4.644m-9.181,0a4.1,4.1,0,0,0,3.608-2.032l-1.344-.673a2.689,2.689,0,0,1-2.264,1.306,3.249,3.249,0,0,1,0-6.492,2.659,2.659,0,0,1,2.264,1.306l1.33-.7a4.023,4.023,0,0,0-3.594-2.005,4.646,4.646,0,1,0,0,9.29" transform="translate(-17.537 -333.956)" fill="#fff"/>
      </g>
      <rect id="사각형_511" data-name="사각형 511" width="119.818" height="93.099" transform="translate(13.9 284.676)" fill="#e37e28"/>
      <g id="그룹_5592" data-name="그룹 5592" transform="translate(47.077 318.508)">
        <path id="패스_3613" data-name="패스 3613" d="M92.151,521.095v-1.386H88.192v-7.595H86.618v8.98ZM82.5,517.972h-3.23l1.616-4.282Zm2.9,3.123-3.527-8.98H79.9l-3.528,8.98h1.791l.66-1.737h4.119l.66,1.737Zm-12.8-1.386h-2.6V517.2h2.6a1.24,1.24,0,0,1,1.36,1.254A1.206,1.206,0,0,1,72.59,519.709Zm-.067-3.892H69.99V513.5h2.533a1.137,1.137,0,0,1,1.252,1.159,1.123,1.123,0,0,1-1.252,1.158m.431,5.277a2.353,2.353,0,0,0,2.611-2.436,2.189,2.189,0,0,0-1.736-2.195A2.029,2.029,0,0,0,75.39,514.4a2.291,2.291,0,0,0-2.557-2.288H68.416v8.98ZM62.01,519.857a3.258,3.258,0,1,1,2.976-3.245,2.983,2.983,0,0,1-2.976,3.245m0,1.4a4.645,4.645,0,1,0-4.592-4.644,4.461,4.461,0,0,0,4.592,4.644m-5.443-.162v-1.386H52.608v-7.595H51.034v8.98Zm-11.209.175a4.847,4.847,0,0,0,3.688-1.641v-3.353H44.792v1.386h2.695v1.388a3.23,3.23,0,0,1-2.129.808,3.249,3.249,0,0,1,0-6.492,2.9,2.9,0,0,1,2.33,1.2l1.278-.742a4.2,4.2,0,0,0-3.608-1.857,4.652,4.652,0,1,0,0,9.3" transform="translate(-39.667 -511.966)" fill="#fff"/>
        <path id="패스_3614" data-name="패스 3614" d="M93.382,533.095v-1.386H88.8V529.2h4.484v-1.386H88.8V525.5h4.578v-1.386H87.229v8.98Zm-11.417.162c2.41,0,3.473-1.291,3.473-2.786,0-3.341-5.225-2.3-5.225-3.987,0-.66.592-1.118,1.51-1.118a3.661,3.661,0,0,1,2.612,1.037l.887-1.172a4.648,4.648,0,0,0-3.352-1.265c-1.981,0-3.272,1.143-3.272,2.638,0,3.3,5.225,2.129,5.225,4.014,0,.606-.5,1.239-1.791,1.239a3.854,3.854,0,0,1-2.841-1.252L78.3,531.83a4.907,4.907,0,0,0,3.663,1.426m-8.023-4.9H71.773V525.5h2.169a1.432,1.432,0,1,1,0,2.856m3.217,4.739-2.207-3.528a2.525,2.525,0,0,0,2.14-2.638,2.729,2.729,0,0,0-2.948-2.814H70.2v8.98h1.574v-3.353H73.35l1.979,3.353Zm-13.105.162c2.612,0,3.89-1.493,3.89-3.715v-5.427h-1.6V529.5a2.291,2.291,0,1,1-4.58,0v-5.386h-1.6v5.427c0,2.222,1.291,3.715,3.892,3.715m-10.242-1.4a3.258,3.258,0,1,1,2.976-3.245,2.983,2.983,0,0,1-2.976,3.245m0,1.4a4.645,4.645,0,1,0-4.592-4.644,4.461,4.461,0,0,0,4.592,4.644m-9.181,0a4.1,4.1,0,0,0,3.608-2.032l-1.344-.673a2.689,2.689,0,0,1-2.264,1.306,3.25,3.25,0,0,1,0-6.492,2.659,2.659,0,0,1,2.264,1.306l1.33-.7a4.023,4.023,0,0,0-3.594-2.005,4.646,4.646,0,1,0,0,9.29" transform="translate(-39.919 -507.807)" fill="#fff"/>
      </g>
      <rect id="사각형_512" data-name="사각형 512" width="119.818" height="125.401" transform="translate(13.9 151.372)" fill="#e37e28"/>
      <g id="그룹_5593" data-name="그룹 5593" transform="translate(31.554 201.354)">
        <path id="패스_3615" data-name="패스 3615" d="M112.9,434.095v-1.386h-3.959v-7.595h-1.574v8.981Zm-9.651-3.123h-3.232l1.616-4.282Zm2.894,3.123-3.527-8.981H100.65l-3.528,8.981h1.791l.66-1.737h4.121l.659,1.737Zm-10.308,0v-8.981H94.261v6.22l-4.595-6.22H88.054v8.981h1.573v-6.422l4.689,6.422Zm-14.188-1.237a3.258,3.258,0,1,1,2.977-3.245,2.984,2.984,0,0,1-2.977,3.245m0,1.4a4.645,4.645,0,1,0-4.591-4.644,4.461,4.461,0,0,0,4.591,4.644m-6.406-9.142H73.666v8.981h1.574Zm-5.754,8.981V426.5h2.72v-1.386H65.192V426.5h2.72v7.595Zm-8.952.162a4.1,4.1,0,0,0,3.609-2.032l-1.345-.673a2.685,2.685,0,0,1-2.264,1.306,3.25,3.25,0,0,1,0-6.492,2.655,2.655,0,0,1,2.264,1.306l1.332-.7a4.025,4.025,0,0,0-3.6-2.005,4.646,4.646,0,1,0,0,9.29m-6.527-.162v-8.981H52.433v6.22l-4.593-6.22H46.225v8.981H47.8v-6.422l4.688,6.422Zm-13.927.162c2.612,0,3.89-1.493,3.89-3.715v-5.427h-1.6V430.5a2.291,2.291,0,1,1-4.58,0v-5.386h-1.6v5.427c0,2.222,1.291,3.715,3.892,3.715m-10.116-.162V430.2h4.484v-1.386H29.965V426.5h4.578v-1.386H28.391v8.981Z" transform="translate(-28.391 -424.966)" fill="#fff"/>
        <path id="패스_3616" data-name="패스 3616" d="M93.382,446.095v-1.386H88.8V442.2h4.484v-1.386H88.8V438.5h4.578v-1.386H87.229v8.981Zm-11.417.162c2.41,0,3.473-1.291,3.473-2.786,0-3.341-5.225-2.3-5.225-3.987,0-.66.592-1.118,1.51-1.118a3.661,3.661,0,0,1,2.612,1.037l.887-1.172a4.648,4.648,0,0,0-3.352-1.264c-1.981,0-3.272,1.143-3.272,2.638,0,3.3,5.225,2.129,5.225,4.014,0,.606-.5,1.239-1.791,1.239a3.854,3.854,0,0,1-2.841-1.252L78.3,444.83a4.907,4.907,0,0,0,3.663,1.426m-8.023-4.9H71.773V438.5h2.169a1.432,1.432,0,1,1,0,2.856m3.217,4.739-2.207-3.528a2.525,2.525,0,0,0,2.14-2.638,2.729,2.729,0,0,0-2.948-2.815H70.2v8.981h1.574v-3.353H73.35l1.979,3.353Zm-13.105.162c2.612,0,3.89-1.493,3.89-3.715v-5.427h-1.6V442.5a2.291,2.291,0,1,1-4.58,0v-5.386h-1.6v5.427c0,2.222,1.291,3.715,3.892,3.715m-10.242-1.4a3.258,3.258,0,1,1,2.976-3.245,2.983,2.983,0,0,1-2.976,3.245m0,1.4a4.645,4.645,0,1,0-4.592-4.644,4.461,4.461,0,0,0,4.592,4.644m-9.181,0a4.1,4.1,0,0,0,3.608-2.032l-1.344-.673a2.689,2.689,0,0,1-2.264,1.306,3.249,3.249,0,0,1,0-6.492,2.659,2.659,0,0,1,2.264,1.306l1.33-.7a4.023,4.023,0,0,0-3.594-2.005,4.646,4.646,0,1,0,0,9.29" transform="translate(-24.395 -420.807)" fill="#fff"/>
      </g>
      <rect id="사각형_513" data-name="사각형 513" width="442.635" height="28.489" transform="translate(274.831 284.676)" fill="#ededed"/>
      <g id="그룹_5594" data-name="그룹 5594" transform="translate(456.23 293.54)">
        <path id="패스_3617" data-name="패스 3617" d="M423.595,502.045c0-1.259-1.282-2.037-3.571-2.037s-3.559.778-3.559,2.037,1.282,2.025,3.559,2.025,3.571-.778,3.571-2.025m-8.493-6.959h2.427c0,.206,0,.458-.011.572a4.2,4.2,0,0,1-2.747,3.376l.5.745a5.36,5.36,0,0,0,2.712-2.77,5.279,5.279,0,0,0,2.691,2.392l.549-.743a3.7,3.7,0,0,1-2.747-2.988c-.012-.125-.012-.366-.012-.583h2.393v-.778H415.1Zm4.922,5.7c1.66,0,2.633.458,2.633,1.259s-.972,1.247-2.633,1.247c-1.636,0-2.62-.458-2.62-1.247s.984-1.259,2.62-1.259m2.564-3.823v3.068h.928v-6.605h-.928v2.759h-2.14v.778Zm-18.477-2.416v.778h4.636a18.652,18.652,0,0,1-.333,3.983l.882.114a25.776,25.776,0,0,0,.377-4.876Zm6.3,6.056a35.619,35.619,0,0,1-3.571.308v-3.33h-.926v3.353c-.8.023-1.752.012-2.335.012l.137.812c.893,0,2.071-.034,3.147-.079,1.03-.058,2.6-.172,3.629-.31Zm3.342-1.946v-.79h-1.728v-4.441h-.928V504.07h.928v-5.413Zm-17.627,2.221a5.327,5.327,0,0,1-2.77-4.487v-1.065h2.462v-.778H389.93v.778h2.46v1.088a5.754,5.754,0,0,1-2.8,4.716l.618.7a6.821,6.821,0,0,0,2.666-3.5,6.923,6.923,0,0,0,2.69,3.251Zm3.594-2.358v-.778h-1.728v-4.316h-.928V504.07h.928v-5.551Zm-11.532,5.288v-.778h-6.2v-2.564h-.928v3.342Zm-8.391-9.5v.778h3.789c-.287,1.842-2.106,3.457-4.293,4.04l.562.733c2.918-1.007,4.589-2.918,4.772-5.551Zm4.83,4.452h2.335v2.393h.928v-7.727h-.928v2.164H384.7v.778h2.254V498h-2.335Zm-10.285-4.212h-5.792v.778h5.792Zm2.221-1.122h-.926V504.07h.926v-5.619h1.74v-.778h-1.74Zm-1.59,6.891c-.47.069-1.111.127-1.854.172l.4-4.339-.926-.079-.31,4.475c-.137,0-.263.012-.4.012-.389.023-.79.046-1.2.057l-.285-4.533-.939.081.377,4.475c-.537.012-1.076.012-1.58.012l.137.812c.961-.011,2.21-.057,3.411-.114,1.259-.069,2.462-.171,3.24-.275ZM357.89,494.17a2.64,2.64,0,0,0-2.884,2.575,2.527,2.527,0,0,0,2.427,2.507v1.717c-1.111.034-2.175.046-2.988.046l.15.812c.7,0,2.277-.034,3.468-.092,1.294-.069,2.724-.183,3.56-.275l-.081-.755c-.7.091-1.979.183-3.182.229v-1.682a2.536,2.536,0,0,0,2.427-2.518,2.635,2.635,0,0,0-2.9-2.564m0,.778a1.8,1.8,0,1,1-1.981,1.8,1.784,1.784,0,0,1,1.981-1.8m5.265-1.523h-.916V504.07h.916ZM352.769,504.07V493.425h-.916v4.35h-1.282v-4.1h-.9v9.856h.9v-4.98h1.282v5.517Zm-3.9-4.543a2.332,2.332,0,0,0-4.647,0,2.153,2.153,0,0,0,2.324,2.117,2.108,2.108,0,0,0,2.323-2.117m-.893,0a1.332,1.332,0,0,1-1.43,1.351,1.353,1.353,0,1,1,1.43-1.351m1.088-3.515h-5.3v.766h5.3Zm-1.145-1.773h-2.907v.8h2.907Z" transform="translate(-343.76 -493.425)" fill="#444443"/>
      </g>
      <rect id="사각형_514" data-name="사각형 514" width="500.2" height="28.489" transform="translate(146.71 316.982)" fill="#ededed"/>
      <g id="그룹_5595" data-name="그룹 5595" transform="translate(324.22 325.847)">
        <path id="패스_3618" data-name="패스 3618" d="M388.811,527.934a7.014,7.014,0,0,0,2.1-4.968v-.194a7.037,7.037,0,0,0-2.1-4.968h-.835a7.829,7.829,0,0,1,1.957,4.955v.3a7.462,7.462,0,0,1-1.957,4.876Zm-11.085-6.021c0,2.266.974,3.766,2.69,3.766,1.625,0,2.575-1.34,2.666-3.388h2.278v5.769h.926V517.416h-.926V521.5h-2.278c-.114-2.014-1.053-3.342-2.666-3.342-1.717,0-2.69,1.511-2.69,3.754m4.453.012c0,1.74-.71,2.953-1.763,2.953s-1.763-1.213-1.763-2.953.71-2.965,1.763-2.965,1.763,1.213,1.763,2.965m-14.446,2.61v.766h6.433v2.828h.927v-3.594h-3.124v-1.981h4.35v-.778h-1.592A16.1,16.1,0,0,0,375.1,518h-7.223v.768h6.272a13.2,13.2,0,0,1-.343,3.01H366.7v.778h4.337v1.981Zm-3.431,1.6c0-1.134-1.236-1.8-3.3-1.877v-1.122h4.362v-.768h-9.615v.768h4.327v1.122c-2.037.092-3.251.755-3.251,1.877,0,1.213,1.407,1.877,3.731,1.877s3.742-.664,3.742-1.877m.561-5.219c-1.477-.137-3.446-.928-3.766-2.187h3.354v-.755h-7.8v.755h3.388c-.308,1.259-2.129,2.05-3.788,2.2l.412.778c1.877-.275,3.468-1.155,3.892-2.14.527.972,2.117,1.842,3.892,2.129Zm-4.3,4.1c1.671,0,2.793.354,2.793,1.122s-1.111,1.122-2.793,1.122-2.782-.343-2.782-1.122,1.111-1.122,2.782-1.122m-11.217,3.262h.664l.893-2.381h-1.1Zm-10.359-6.364c0,2.266.974,3.766,2.691,3.766,1.625,0,2.575-1.34,2.666-3.388h2.278v5.769h.927V517.416h-.927V521.5H344.34c-.115-2.014-1.053-3.342-2.666-3.342-1.717,0-2.691,1.511-2.691,3.754m4.453.012c0,1.74-.71,2.953-1.763,2.953s-1.763-1.213-1.763-2.953.71-2.965,1.763-2.965,1.763,1.213,1.763,2.965m-6.329,4.131c0-1.259-1.3-2.037-3.628-2.037s-3.617.778-3.617,2.037c0,1.236,1.3,2.027,3.617,2.027s3.628-.791,3.628-2.027m-2.872-3.8h1.934V524h.928v-6.581h-.928v1.407h-1.934v.79h1.934v1.854h-1.934Zm1.923,3.8c0,.778-.984,1.236-2.678,1.236-1.66,0-2.656-.458-2.656-1.236s1-1.247,2.656-1.247c1.694,0,2.678.458,2.678,1.247m-4.934-8a2.58,2.58,0,0,0-2.735,2.564,2.742,2.742,0,1,0,2.735-2.564m0,.789a1.769,1.769,0,1,1,0,3.537,1.769,1.769,0,1,1,0-3.537m-3.362,9.088a7.77,7.77,0,0,1-1.957-4.956v-.3a7.407,7.407,0,0,1,1.957-4.876h-.835a7.021,7.021,0,0,0-2.106,4.968v.194a7.043,7.043,0,0,0,2.106,4.968Zm-4.8-1.9c0-1.259-1.282-2.037-3.571-2.037s-3.56.778-3.56,2.037,1.282,2.027,3.56,2.027,3.571-.778,3.571-2.027m-8.493-6.959h2.427c0,.206,0,.458-.012.572a4.2,4.2,0,0,1-2.747,3.377l.5.743a5.358,5.358,0,0,0,2.713-2.77,5.284,5.284,0,0,0,2.689,2.393l.549-.745a3.7,3.7,0,0,1-2.747-2.987c-.011-.127-.011-.366-.011-.584h2.392V518.3h-5.757Zm4.922,5.7c1.659,0,2.633.458,2.633,1.259s-.974,1.248-2.633,1.248c-1.637,0-2.622-.458-2.622-1.248s.984-1.259,2.622-1.259m2.564-3.823v3.068h.926v-6.6h-.926v2.758H319.91v.778Zm-18.477-2.415v.778h4.635a18.665,18.665,0,0,1-.331,3.983l.881.114a25.653,25.653,0,0,0,.378-4.876Zm6.3,6.054a35.569,35.569,0,0,1-3.571.31V521.57h-.928v3.354c-.8.023-1.751.011-2.335.011l.137.813c.893,0,2.072-.035,3.148-.081,1.03-.057,2.6-.171,3.628-.308Zm3.342-1.946v-.789h-1.729v-4.441h-.927v10.645h.927v-5.415Zm-23.808-.733c0,2.266.972,3.766,2.689,3.766,1.625,0,2.576-1.34,2.668-3.388h2.277v5.769h.928V517.416h-.928V521.5h-2.277c-.115-2.014-1.053-3.342-2.668-3.342-1.717,0-2.689,1.511-2.689,3.754m4.452.012c0,1.74-.71,2.953-1.763,2.953s-1.763-1.213-1.763-2.953.71-2.965,1.763-2.965,1.763,1.213,1.763,2.965m-14.445,2.61v.766h6.433v2.828h.926v-3.594h-3.124v-1.981H288v-.778H286.4a16.107,16.107,0,0,0,.378-3.777h-7.223v.768h6.273a13.2,13.2,0,0,1-.343,3.01H278.38v.778h4.337v1.981Zm-8.093-6.376a2.641,2.641,0,0,0-2.884,2.576,2.525,2.525,0,0,0,2.427,2.506v1.717c-1.11.035-2.175.046-2.987.046l.148.813c.7,0,2.278-.035,3.469-.092,1.293-.068,2.724-.183,3.559-.275l-.079-.755c-.7.092-1.981.183-3.182.229v-1.683a2.536,2.536,0,0,0,2.427-2.518,2.637,2.637,0,0,0-2.9-2.564m0,.778a1.8,1.8,0,1,1-1.979,1.8,1.784,1.784,0,0,1,1.979-1.8m5.265-1.522h-.916v10.645h.916Zm-13.479,4.91a3.876,3.876,0,0,1-2.61-3.411v-1h-.939v1.03a4.225,4.225,0,0,1-2.668,3.742l.516.722a5.2,5.2,0,0,0,2.655-2.839,5.1,5.1,0,0,0,2.5,2.483Zm2.312,3.686c0-1.27-1.34-2.048-3.583-2.048-2.221,0-3.548.778-3.548,2.048s1.328,2.037,3.548,2.037c2.243,0,3.583-.778,3.583-2.037m-3.583-1.282c1.625,0,2.633.47,2.633,1.282s-1.007,1.271-2.633,1.271c-1.6,0-2.6-.458-2.6-1.271s1-1.282,2.6-1.282m5.059-3.651V520.3h-1.625v-2.884h-.926v6.558h.926v-2.9Zm-14.353,4.109c-.7.1-1.831.206-3.022.275v-1.007c1.259-.125,2.072-.778,2.072-1.763,0-1.11-1.007-1.8-2.518-1.8s-2.518.7-2.518,1.8c0,.962.8,1.625,2.037,1.763v1.053c-1.03.035-2.118.035-2.862.012l.16.812c.893,0,2.015-.011,3.193-.079,1.282-.081,2.69-.218,3.525-.321Zm3.274-2.254v-.79h-1.7v-4.727h-.928v10.645h.928v-5.128Zm-5.116-.241c0,.607-.653,1.03-1.625,1.03s-1.625-.423-1.625-1.03.664-1.03,1.625-1.03,1.625.412,1.625,1.03m1.58-3.113h-6.33v.768h6.33Zm-1.694-1.636h-3.057v.778h3.057Z" transform="translate(-245.728 -517.416)" fill="#444443"/>
      </g>
      <rect id="사각형_515" data-name="사각형 515" width="628.462" height="28.489" transform="translate(146.71 349.287)" fill="#ededed"/>
      <g id="그룹_5596" data-name="그룹 5596" transform="translate(394.821 358.714)">
        <path id="패스_3619" data-name="패스 3619" d="M422.372,550.533h.928v-4.9a3.588,3.588,0,0,1,1.534-.446c.8,0,1.087.308,1.087,1.041v4.3h.928v-4.5a2.266,2.266,0,0,0-.035-.4,3.921,3.921,0,0,1,1.557-.446c.813,0,1.111.308,1.111,1.041v4.3h.916v-4.5a1.456,1.456,0,0,0-1.66-1.648,3.761,3.761,0,0,0-2.048.675h-.046a1.557,1.557,0,0,0-1.454-.675,3.56,3.56,0,0,0-1.877.64h-.057V544.5h-.882Zm-4.416.114a2.027,2.027,0,0,0,1.613-.629h.058l.1.514h.755V546.16c0-1.224-.743-1.773-2.071-1.773a4.645,4.645,0,0,0-1.808.331v.664a5.437,5.437,0,0,1,1.442-.194c1.087,0,1.5.25,1.5,1.19v.629l-1.636.2c-1.157.137-1.831.7-1.831,1.751a1.651,1.651,0,0,0,1.877,1.694m.24-.733c-.7,0-1.145-.331-1.145-.984,0-.7.366-1,1.1-1.076l1.4-.148v1.773a2.065,2.065,0,0,1-1.351.435m-6.05.618h.939v-4.739a2.81,2.81,0,0,1,1.615-.526,3.316,3.316,0,0,1,.435.035v-.836a1.463,1.463,0,0,0-.366-.034,2.334,2.334,0,0,0-1.671.743h-.069V544.5h-.882Zm-4.293,1.8c2.05,0,2.884-.824,2.884-1.854,0-1.122-.812-1.454-1.911-1.454h-1.671c-.4,0-.6-.115-.6-.446a.674.674,0,0,1,.275-.481,3.387,3.387,0,0,0,1.041.16c1.259,0,2.266-.641,2.266-1.935v-.011a1.475,1.475,0,0,0-.446-1.111h1.087v-.71h-2.048a3.376,3.376,0,0,0-.847-.1c-1.328,0-2.279.7-2.279,1.946v.034a1.686,1.686,0,0,0,.755,1.5c-.458.343-.687.629-.687,1.007a.785.785,0,0,0,.618.755v.057c-.629.206-1.145.584-1.145,1.225,0,.881.859,1.419,2.7,1.419m-.023-.733c-1.2,0-1.7-.264-1.7-.8,0-.516.354-.778.812-.939h1.74c.79,0,1.088.183,1.088.743,0,.63-.516,1-1.935,1m.046-4.064c-.8,0-1.339-.389-1.339-1.19v-.057c0-.755.5-1.19,1.339-1.19.813,0,1.328.377,1.328,1.2v.058c0,.789-.491,1.178-1.328,1.178m-6.442,3.113c1.637,0,2.747-1.145,2.747-3.068v-.171c0-1.912-1.03-3.022-2.735-3.022-1.625,0-2.736,1.145-2.736,3.055v.183c0,1.923,1.019,3.022,2.724,3.022m.023-.766c-1.007,0-1.8-.549-1.8-2.233v-.3c0-1.419.675-2.2,1.773-2.2.984,0,1.8.549,1.8,2.233v.3c0,1.43-.676,2.2-1.775,2.2m-6.709.652h.939v-4.739a2.806,2.806,0,0,1,1.613-.526,3.281,3.281,0,0,1,.435.035v-.836a1.456,1.456,0,0,0-.366-.034,2.339,2.339,0,0,0-1.671.743h-.069V544.5h-.881Zm-6.748,0h.972v-3.274h1.66a2.345,2.345,0,0,0,2.61-2.483c0-1.534-.893-2.4-2.724-2.4H388Zm.972-4.075v-3.274h1.442c1.328,0,1.8.493,1.8,1.66,0,1.087-.5,1.613-1.775,1.613Zm-8.618,5.873c2.049,0,2.884-.824,2.884-1.854,0-1.122-.813-1.454-1.911-1.454h-1.672c-.4,0-.6-.115-.6-.446a.675.675,0,0,1,.276-.481,3.373,3.373,0,0,0,1.041.16c1.259,0,2.266-.641,2.266-1.935v-.011a1.475,1.475,0,0,0-.446-1.111h1.087v-.71h-2.048a3.386,3.386,0,0,0-.848-.1c-1.328,0-2.277.7-2.277,1.946v.034a1.687,1.687,0,0,0,.755,1.5c-.458.343-.687.629-.687,1.007a.785.785,0,0,0,.618.755v.057c-.629.206-1.145.584-1.145,1.225,0,.881.859,1.419,2.7,1.419m-.023-.733c-1.2,0-1.7-.264-1.7-.8,0-.516.354-.778.812-.939h1.74c.79,0,1.088.183,1.088.743,0,.63-.516,1-1.935,1m.046-4.064c-.8,0-1.339-.389-1.339-1.19v-.057c0-.755.5-1.19,1.339-1.19.813,0,1.328.377,1.328,1.2v.058c0,.789-.493,1.178-1.328,1.178m-8.862,3h.928v-4.9a4.271,4.271,0,0,1,1.694-.446c.961,0,1.224.308,1.224,1.041v4.3h.928v-4.5c0-1.167-.572-1.648-1.752-1.648a3.975,3.975,0,0,0-2.083.64H372.4V544.5h-.882Zm-2.837,0h.928v-6.021h-.928Zm-.011-7.245h.951v-.974h-.951ZM362,550.533h.926v-4.9a4.277,4.277,0,0,1,1.694-.446c.961,0,1.225.308,1.225,1.041v4.3h.926v-4.5c0-1.167-.572-1.648-1.751-1.648a3.971,3.971,0,0,0-2.083.64h-.058V544.5H362Zm-4.4,0h.939v-4.739a2.806,2.806,0,0,1,1.613-.526,3.28,3.28,0,0,1,.435.035v-.836a1.455,1.455,0,0,0-.366-.034,2.339,2.339,0,0,0-1.671.743h-.069V544.5h-.881Zm-4.417.114a2.032,2.032,0,0,0,1.615-.629h.057l.1.514h.755V546.16c0-1.224-.745-1.773-2.072-1.773a4.65,4.65,0,0,0-1.809.331v.664a5.454,5.454,0,0,1,1.442-.194c1.088,0,1.5.25,1.5,1.19v.629l-1.637.2c-1.155.137-1.831.7-1.831,1.751a1.652,1.652,0,0,0,1.877,1.694m.241-.733c-.7,0-1.145-.331-1.145-.984,0-.7.366-1,1.1-1.076l1.4-.148v1.773a2.07,2.07,0,0,1-1.351.435m-5.525.733a3.61,3.61,0,0,0,2.025-.56v-.7a3.952,3.952,0,0,1-1.888.458c-1.282,0-2-.583-2.049-2.094h4.11v-.526c0-1.877-.778-2.839-2.427-2.839-1.4,0-2.633.939-2.633,3.045v.171c0,1.889.961,3.045,2.862,3.045m-.264-5.5c.984,0,1.488.549,1.488,1.865h-3.136c.092-1.43.893-1.865,1.648-1.865m-8.341,5.391h4.659v-.812h-3.686v-7.348H339.3Zm-5.9-3.525h4.017v-.813H333.4Zm-3.656,3.64a3.611,3.611,0,0,0,2.027-.56v-.7a3.957,3.957,0,0,1-1.889.458c-1.282,0-2-.583-2.048-2.094h4.108v-.526c0-1.877-.778-2.839-2.427-2.839-1.4,0-2.633.939-2.633,3.045v.171c0,1.889.961,3.045,2.862,3.045m-.263-5.5c.984,0,1.488.549,1.488,1.865h-3.136c.092-1.43.893-1.865,1.648-1.865m-5.163,5.391h.939v-8.71h-.939Zm-2.849,0h.927v-6.021h-.927Zm-.011-7.245h.951v-.974h-.951Zm-4.653,7.382c1.946,0,3.011-1.145,3.011-3.159v-.16c0-2.266-1.19-2.964-2.347-2.964a3.343,3.343,0,0,0-1.865.514h-.058v-3.078h-.939v8.515a7.109,7.109,0,0,0,2.2.333m.058-.778a3.438,3.438,0,0,1-1.317-.217v-4.11a3.718,3.718,0,0,1,1.488-.389c1.225,0,1.809.549,1.809,2.233v.24c0,1.729-.9,2.244-1.979,2.244m-6.62.755c1.637,0,2.747-1.145,2.747-3.068v-.171c0-1.912-1.03-3.022-2.735-3.022-1.625,0-2.736,1.145-2.736,3.055v.183c0,1.923,1.019,3.022,2.724,3.022m.023-.766c-1.007,0-1.8-.549-1.8-2.233v-.3c0-1.419.675-2.2,1.773-2.2.984,0,1.8.549,1.8,2.233v.3c0,1.43-.676,2.2-1.775,2.2m-12.114.652h.893v-6.9h.035l2.369,6.9h.9l2.381-6.9h.034v6.9h.972v-8.16h-1.419l-2.346,6.9h-.034l-2.359-6.9h-1.43Z" transform="translate(-298.157 -541.823)" fill="#444443"/>
      </g>
      <rect id="사각형_516" data-name="사각형 516" width="500.2" height="28.487" transform="translate(146.71 151.372)" fill="#ededed"/>
      <g id="그룹_5597" data-name="그룹 5597" transform="translate(339.421 160.236)">
        <path id="패스_3620" data-name="패스 3620" d="M371.792,401.323H364.81v3.594h6.982Zm-3.788-2.1a19.879,19.879,0,0,1-3.743.32v-1.511h3.171V395.21H363.3v.766h3.2v1.3h-3.17v3.045h.687a25.157,25.157,0,0,0,4.075-.331Zm3.788,1.534v-6.329h-.916v2.839h-1.3v-2.645h-.893v6.033h.893v-2.622h1.3v2.724Zm-.926,3.388h-5.128v-2.06h5.128Zm-8.505-1.43h-9.615v.778h9.615Zm-8.607-7.1v.766h6.285a29.73,29.73,0,0,1-.458,5.4l.926.127a33.456,33.456,0,0,0,.481-6.3Zm-2.342,8.092v-.778H347.05v-1.809h3.469v-.778h-6.605v-1.786h6.307v-3.251h-7.246v.778h6.318V397.8h-6.306v3.33h3.136v1.809H341.8v.778Zm-11.866-2.93v-.778h-1.74l.423-2.941-.916-.149-.377,3.091h-2.61l-.218-3.1-.961.125.3,2.976H331.7v.778Zm.916,2.083h-9.615v.789h9.615Zm-.9-7.313h-7.863v.778h7.863ZM322.9,399.342a3.876,3.876,0,0,1-2.61-3.411v-1h-.939v1.03a4.225,4.225,0,0,1-2.668,3.742l.516.722a5.2,5.2,0,0,0,2.656-2.839,5.1,5.1,0,0,0,2.5,2.483Zm2.312,3.686c0-1.27-1.34-2.048-3.583-2.048-2.221,0-3.548.778-3.548,2.048s1.328,2.037,3.548,2.037c2.243,0,3.583-.778,3.583-2.037m-3.583-1.282c1.625,0,2.633.47,2.633,1.282s-1.007,1.271-2.633,1.271c-1.6,0-2.6-.458-2.6-1.271s1-1.282,2.6-1.282m5.059-3.651v-.778h-1.625v-2.884h-.926v6.558h.926v-2.9Zm-12.585,5.161c0-1.145-1.225-1.865-3.537-1.865s-3.513.71-3.513,1.865,1.213,1.844,3.513,1.844,3.537-.71,3.537-1.844m-2.724-4.121c0-1.087-1.088-1.751-2.518-1.751s-2.518.664-2.518,1.751c0,1.065,1.087,1.752,2.518,1.752s2.518-.687,2.518-1.752m-.813,3.045c1.615,0,2.576.389,2.576,1.076s-.961,1.065-2.576,1.065-2.552-.389-2.552-1.065.949-1.076,2.552-1.076m5.036-3.468h-1.625V397.3H315.6v-.778h-1.625v-2.094h-.926v6.718h.926v-1.659H315.6Zm-5.139.423c0,.618-.755,1.019-1.6,1.019-.824,0-1.615-.4-1.615-1.019,0-.641.778-1.018,1.615-1.018s1.6.377,1.6,1.018m1.488-2.976h-6.272v.766h6.272Zm-1.569-1.5h-3.113v.778h3.113ZM300.129,403.1c0-1.19-1.213-1.946-3.525-1.946s-3.513.733-3.513,1.946c0,1.19,1.2,1.923,3.513,1.923s3.525-.743,3.525-1.923m-2.186-3.869a28.677,28.677,0,0,1-4.624.333h-.137v-1.546H296.9v-2.907h-4.67v.768h3.744v1.384h-3.721v3.08h1.007a34.6,34.6,0,0,0,4.807-.355Zm-1.34,2.69c1.615,0,2.576.423,2.576,1.178s-.961,1.157-2.576,1.157-2.564-.435-2.564-1.157c0-.743.951-1.178,2.564-1.178m5.026-3.548H300v-1.523h1.625v-.766H300v-1.648h-.928v6.479H300v-1.763h1.625ZM287.323,396.7h1.935v1.74h-1.935l-.011.766h1.946v1.5h.926v-6.272h-.926v1.488h-1.946Zm-4.269,4.566v.768h6.2v3.055h.926v-3.823Zm1.282-6.215a2.58,2.58,0,0,0-2.736,2.564,2.742,2.742,0,1,0,2.736-2.564m0,.789a1.769,1.769,0,1,1,0,3.538,1.769,1.769,0,1,1,0-3.538m-16.482-.079v.778h3.1a6.692,6.692,0,0,1-3.5,5.563l.607.7a7.914,7.914,0,0,0,3.823-7.039Zm8.653-1.328h-.916v10.645h.916Zm-2.027,10.106v-9.854h-.9v2.666h-1.569v.778h1.569v1.946h-1.808v.767h1.808v3.7Zm-11.431-4.818c0-1.111-1.019-1.8-2.564-1.8s-2.564.7-2.564,1.8c0,.961.824,1.636,2.094,1.763v1.087c-1.122.046-2.2.035-3,.035l.15.812c.9-.011,2.094-.046,3.284-.114,1.294-.079,2.874-.206,3.709-.32l-.08-.743c-.687.1-1.946.206-3.136.275v-1.03c1.282-.127,2.106-.778,2.106-1.763m2.643-5.288h-.916v10.645h.916Zm-3.548,5.288c0,.606-.664,1.03-1.659,1.03s-1.66-.424-1.66-1.03.676-1.03,1.66-1.03,1.659.412,1.659,1.03m1.534-3.126h-6.33v.766h6.33Zm-1.694-1.636h-3.055v.778h3.055Z" transform="translate(-257.016 -394.432)" fill="#444443"/>
      </g>
      <rect id="사각형_517" data-name="사각형 517" width="243.674" height="28.487" transform="translate(403.235 183.677)" fill="#ededed"/>
      <g id="그룹_5598" data-name="그룹 5598" transform="translate(502.124 193.514)">
        <path id="패스_3621" data-name="패스 3621" d="M416.824,427.443h.927l.847-2.381h3.274l.859,2.381h1.007l-2.976-8.162h-.939Zm3.388-6.88h.023l1.328,3.686h-2.69Zm-9.872,6.88h2.735c1.831,0,2.759-.951,2.759-2.3a1.833,1.833,0,0,0-1.729-1.969v-.056a1.72,1.72,0,0,0,1.363-1.786c0-1.294-.745-2.049-2.633-2.049h-2.5Zm.961-.8v-3.034h1.613c1.213,0,1.9.412,1.9,1.477s-.618,1.557-1.8,1.557Zm0-3.8v-2.747h1.453c1.145,0,1.729.331,1.729,1.351,0,1.052-.768,1.4-1.786,1.4Zm-10.773,4.6h.893v-6.9h.035l2.369,6.9h.9l2.381-6.9h.034v6.9h.974v-8.162H406.7l-2.347,6.9h-.034l-2.358-6.9h-1.431Zm-6.546,0h.961v-8.162h-.961Zm-3.952.137a4.429,4.429,0,0,0,2.256-.539v-.812a4.407,4.407,0,0,1-2.141.537c-1.865,0-2.643-1.213-2.643-3.307v-.412c0-2.164,1.087-3.091,2.633-3.091a5.289,5.289,0,0,1,2.06.435v-.8a4.147,4.147,0,0,0-2-.447c-2.083,0-3.719,1.145-3.719,4.064v.252c0,2.758,1.351,4.121,3.559,4.121m-8.618,0c2.243,0,3.594-1.546,3.594-4.11v-.206c0-2.666-1.351-4.121-3.56-4.121-2.254,0-3.6,1.546-3.6,4.11v.206c0,2.666,1.351,4.121,3.571,4.121m.023-.79c-1.831,0-2.553-1.361-2.553-3.342v-.377c0-1.821.836-3.136,2.518-3.136,1.844.011,2.564,1.349,2.564,3.33v.378c0,1.819-.835,3.147-2.529,3.147" transform="translate(-377.841 -419.144)" fill="#444443"/>
      </g>
      <rect id="사각형_518" data-name="사각형 518" width="371.937" height="28.487" transform="translate(146.71 215.981)" fill="#ededed"/>
      <g id="그룹_5599" data-name="그룹 5599" transform="translate(255.851 224.845)">
        <path id="패스_3622" data-name="패스 3622" d="M348.611,449.3h-6.982V452.9h6.982Zm-3.789-2.1a19.864,19.864,0,0,1-3.742.32v-1.511h3.17v-2.827h-4.131v.766h3.2v1.3h-3.171v3.045h.687a25.144,25.144,0,0,0,4.075-.331Zm3.789,1.534v-6.329H347.7v2.839h-1.3V442.6H345.5v6.033h.893v-2.622h1.3v2.724Zm-.928,3.388h-5.128v-2.06h5.128Zm-8.5-1.43h-9.615v.778h9.615Zm-8.608-7.1v.766h6.283a29.745,29.745,0,0,1-.458,5.4l.928.127a33.583,33.583,0,0,0,.481-6.3Zm-2.343,8.092v-.778h-4.362v-1.809h3.469v-.778h-6.605v-1.786h6.307v-3.251h-7.246v.778h6.318v1.706H319.8v3.33h3.136v1.809h-4.327v.778Zm-11.866-2.93v-.778h-1.74l.423-2.941-.916-.149-.377,3.09h-2.61l-.218-3.1-.961.125.3,2.976h-1.74v.778Zm.916,2.083h-9.615v.789h9.615Zm-.9-7.313H308.51v.778h7.864Zm-16.653,3.788a3.878,3.878,0,0,1-2.61-3.411v-1h-.939v1.03a4.226,4.226,0,0,1-2.666,3.742l.514.722a5.185,5.185,0,0,0,2.656-2.839,5.115,5.115,0,0,0,2.5,2.483Zm2.312,3.686c0-1.27-1.339-2.048-3.582-2.048-2.221,0-3.548.778-3.548,2.048s1.328,2.037,3.548,2.037c2.243,0,3.582-.778,3.582-2.037m-3.582-1.282c1.625,0,2.633.47,2.633,1.282s-1.007,1.271-2.633,1.271c-1.6,0-2.6-.458-2.6-1.271s1-1.282,2.6-1.282m5.059-3.651V445.3h-1.625v-2.884h-.928v6.558h.928v-2.9Zm-12.587,5.161c0-1.145-1.225-1.865-3.538-1.865s-3.513.71-3.513,1.865,1.213,1.843,3.513,1.843,3.538-.71,3.538-1.843m-2.724-4.121c0-1.087-1.088-1.751-2.518-1.751s-2.518.664-2.518,1.751c0,1.065,1.087,1.752,2.518,1.752s2.518-.687,2.518-1.752m-.813,3.045c1.615,0,2.576.389,2.576,1.076S289,452.3,287.385,452.3s-2.552-.389-2.552-1.065.949-1.076,2.552-1.076m5.036-3.468H290.8v-1.409h1.625v-.778H290.8v-2.094h-.926v6.718h.926V447.47h1.625Zm-5.139.423c0,.618-.755,1.019-1.6,1.019-.824,0-1.615-.4-1.615-1.019,0-.641.778-1.018,1.615-1.018s1.6.377,1.6,1.018m1.488-2.976H282.5v.766h6.272Zm-1.569-1.5h-3.113v.778H287.2Zm-7.382,8.435c0-1.19-1.213-1.946-3.525-1.946s-3.515.733-3.515,1.946c0,1.19,1.2,1.923,3.515,1.923s3.525-.743,3.525-1.923m-2.187-3.869a28.652,28.652,0,0,1-4.624.333h-.137v-1.546h3.721v-2.907h-4.67v.768h3.742v1.384h-3.719v3.08h1.007a34.574,34.574,0,0,0,4.807-.356Zm-1.339,2.691c1.613,0,2.575.423,2.575,1.178s-.961,1.157-2.575,1.157-2.564-.435-2.564-1.157c0-.743.949-1.178,2.564-1.178m5.024-3.548h-1.625v-1.523h1.625v-.766h-1.625v-1.648h-.926v6.478h.926v-1.763h1.625Zm-14.3-1.671h1.935v1.74h-1.935l-.011.766h1.946v1.5h.926v-6.272h-.926V443.9H267Zm-4.269,4.566v.768h6.2v3.055h.926v-3.823Zm1.282-6.215a2.58,2.58,0,0,0-2.736,2.564,2.742,2.742,0,1,0,2.736-2.564m0,.789a1.769,1.769,0,1,1,0,3.538,1.769,1.769,0,1,1,0-3.538m-4.763-.812h-7.223V447.3h7.223Zm-.928,3.526H252.98v-2.758h5.357Zm-2.231,6.535v-3.628h4.36v-.778h-9.615v.778h4.327v3.628Zm-15.345-9.088h2.414c0,.183,0,.424-.011.549a4.218,4.218,0,0,1-2.736,3.3l.539.722a5.09,5.09,0,0,0,2.666-2.668,5.167,5.167,0,0,0,2.564,2.335l.516-.743a3.707,3.707,0,0,1-2.587-2.93c-.012-.137-.012-.366-.012-.561h2.5V443.2h-5.848Zm1.168,5.311v.768h6.181v3h.926v-3.766Zm7.107-6.868h-.926v6.307h.926Zm-22.526,4.487c0,2.266.974,3.766,2.691,3.766,1.625,0,2.575-1.34,2.666-3.388h2.278v5.769h.927V442.411h-.927V446.5h-2.278c-.114-2.015-1.053-3.342-2.666-3.342-1.717,0-2.691,1.511-2.691,3.754m4.453.012c0,1.74-.71,2.953-1.763,2.953s-1.763-1.213-1.763-2.953.71-2.965,1.763-2.965,1.763,1.213,1.763,2.965m-6.376-4.51h-.916v10.645h.916Zm-2,6.73a29.729,29.729,0,0,1-5.094.481v-6.1h-.926v6.913h.469a33.491,33.491,0,0,0,5.644-.491Zm-10.443.687a5.358,5.358,0,0,1-2.816-4.5v-1.087h2.484v-.768H205.88v.768h2.483v1.1a5.707,5.707,0,0,1-2.839,4.739l.572.687a6.677,6.677,0,0,0,2.759-3.492,6.934,6.934,0,0,0,2.712,3.24Zm1.225,3.228h.926V442.411h-.926Zm-11.508-3.045v-7.383h-.9v2.759h-1.065a2.394,2.394,0,0,0-2.449-2.221,2.447,2.447,0,0,0-2.483,2.621,2.476,2.476,0,0,0,2.483,2.656,2.4,2.4,0,0,0,2.449-2.289h1.065v3.858Zm-2.872-4.212c0,1.053-.549,1.865-1.546,1.865s-1.545-.812-1.545-1.877c0-1.03.56-1.854,1.545-1.854s1.546.824,1.546,1.866m5.174,6.913v-.778h-6.341v-2.668h-.928v3.446Zm-.287-10.3h-.916V450.3h.916Z" transform="translate(-194.956 -442.411)" fill="#444443"/>
      </g>
      <rect id="사각형_519" data-name="사각형 519" width="500.2" height="28.487" transform="translate(146.71 248.285)" fill="#ededed"/>
      <g id="그룹_5600" data-name="그룹 5600" transform="translate(322.84 257.148)">
        <path id="패스_3623" data-name="패스 3623" d="M390.547,476.92a7.016,7.016,0,0,0,2.094-4.968v-.2a7.036,7.036,0,0,0-2.094-4.968h-.836a7.833,7.833,0,0,1,1.958,4.957v.3a7.469,7.469,0,0,1-1.958,4.876Zm-2.444-1.9c0-1.259-1.282-2.037-3.571-2.037s-3.56.778-3.56,2.037,1.282,2.025,3.56,2.025,3.571-.778,3.571-2.025m-8.493-6.959h2.427c0,.206,0,.458-.012.572a4.192,4.192,0,0,1-2.747,3.376l.5.745a5.368,5.368,0,0,0,2.713-2.77,5.281,5.281,0,0,0,2.689,2.392l.549-.743a3.705,3.705,0,0,1-2.747-2.988c-.011-.125-.011-.366-.011-.583h2.392v-.778H379.61Zm4.922,5.7c1.659,0,2.633.458,2.633,1.259s-.974,1.247-2.633,1.247c-1.637,0-2.622-.458-2.622-1.247s.984-1.259,2.622-1.259m2.564-3.823v3.068h.926V466.4H387.1v2.759h-2.141v.778Zm-18.477-2.416v.778h4.636a18.652,18.652,0,0,1-.333,3.983l.882.114a25.771,25.771,0,0,0,.377-4.876Zm6.3,6.056a35.652,35.652,0,0,1-3.571.308v-3.33h-.927v3.353c-.8.023-1.752.012-2.335.012l.137.812c.893,0,2.071-.034,3.147-.08,1.03-.058,2.6-.172,3.629-.31Zm3.342-1.946v-.79h-1.728V466.4H375.6v10.645h.928v-5.413Zm-16.585,4.154a3.6,3.6,0,0,0,2.025-.56v-.7a3.952,3.952,0,0,1-1.888.458c-1.282,0-2-.583-2.049-2.094h4.11v-.527c0-1.877-.778-2.839-2.427-2.839-1.4,0-2.633.939-2.633,3.045v.171c0,1.889.961,3.045,2.862,3.045m-.264-5.5c.984,0,1.488.549,1.488,1.865h-3.136c.092-1.43.893-1.865,1.648-1.865m-5.163,5.39h.939V466.96h-.939Zm-2.848,0h.928v-6.021H353.4Zm-.012-7.245h.951v-.974h-.951Zm-4.651,7.382c1.946,0,3.01-1.145,3.01-3.159v-.16c0-2.266-1.19-2.964-2.346-2.964a3.355,3.355,0,0,0-1.866.514h-.057v-3.078h-.939v8.516a7.151,7.151,0,0,0,2.2.331m.057-.778a3.433,3.433,0,0,1-1.316-.217V470.7a3.711,3.711,0,0,1,1.488-.389c1.224,0,1.808.549,1.808,2.233v.24c0,1.729-.9,2.243-1.981,2.243m-6.618.755c1.636,0,2.747-1.145,2.747-3.068v-.171c0-1.912-1.03-3.022-2.736-3.022-1.625,0-2.735,1.145-2.735,3.055v.183c0,1.923,1.018,3.022,2.724,3.022m.023-.766c-1.007,0-1.8-.549-1.8-2.233v-.3c0-1.419.676-2.2,1.775-2.2.984,0,1.8.549,1.8,2.233v.3c0,1.43-.675,2.2-1.773,2.2m-12.115.652h.893v-6.9h.035l2.369,6.9h.9l2.381-6.9h.034v6.9h.974v-8.16h-1.419l-2.347,6.9h-.034l-2.358-6.9h-1.431Zm-9.6-6.443a1.007,1.007,0,0,1,1.076-1.111.963.963,0,0,1,1,1.042c0,.835-.687,1.247-1.34,1.59a2.4,2.4,0,0,1-.733-1.522m.8,5.815a1.578,1.578,0,0,1-1.808-1.648,1.919,1.919,0,0,1,1.282-1.752l2.3,2.714a2.425,2.425,0,0,1-1.775.687m.012.766a3.148,3.148,0,0,0,2.243-.87c.229.252.423.493.641.733h1.168l-1.213-1.43a5.394,5.394,0,0,0,.789-2.462h-.881a4.633,4.633,0,0,1-.458,1.808l-1.912-2.3c.951-.458,1.831-1.007,1.831-2.152a1.76,1.76,0,0,0-1.934-1.763,1.891,1.891,0,0,0-2.072,1.9,2.883,2.883,0,0,0,.79,1.809,2.644,2.644,0,0,0-1.809,2.414c0,1.523,1.076,2.312,2.816,2.312m-13.346-8.664a2.64,2.64,0,0,0-2.884,2.575,2.527,2.527,0,0,0,2.427,2.507v1.717c-1.111.034-2.175.046-2.988.046l.149.812c.7,0,2.277-.034,3.468-.092,1.294-.069,2.724-.183,3.56-.275l-.081-.755c-.7.092-1.98.183-3.182.229v-1.682a2.536,2.536,0,0,0,2.427-2.518,2.635,2.635,0,0,0-2.9-2.564m0,.778a1.8,1.8,0,1,1-1.981,1.8,1.784,1.784,0,0,1,1.981-1.8m5.265-1.523h-.916v10.645h.916Zm-9.58,5.071v-.778h-1.717V466.4h-.928v10.645h.928v-5.574Zm-3.652,2.266a5.556,5.556,0,0,1-2.816-4.545v-1.854h-.949v1.889a5.938,5.938,0,0,1-2.793,4.749l.6.71a6.878,6.878,0,0,0,2.666-3.548,7.294,7.294,0,0,0,2.713,3.309Zm-6.834,3.182a7.774,7.774,0,0,1-1.957-4.957v-.3a7.414,7.414,0,0,1,1.957-4.876h-.835a7.023,7.023,0,0,0-2.106,4.968v.2a7.044,7.044,0,0,0,2.106,4.968Zm-8.618-8.287c0-1.213-1.386-2-3.721-2s-3.709.79-3.709,2,1.374,1.992,3.709,1.992,3.721-.79,3.721-1.992m-7.475,5.059v.766h6.4v2.655h.926v-3.422h-1.43v-1.557h2.666v-.768H276v.768h2.622v1.557Zm6.57-5.059c0,.778-1.122,1.247-2.816,1.247s-2.8-.469-2.8-1.247,1.1-1.259,2.8-1.259,2.816.469,2.816,1.259m-4.075,3.5h2.472v1.557h-2.472Zm-4.339,3.33v-.778h-3.583v-3.674H270.7v3.674h-1.763v-3.674h-.928v3.674h-2.414v.778Zm-1.18-7.886H266.61v.778h6.456v.961a19.5,19.5,0,0,1-.377,4.006l.916.148a22.459,22.459,0,0,0,.423-4.624ZM263.539,467h-7.222v4.293h7.222Zm-.928,3.525h-5.357v-2.758h5.357Zm-2.231,6.536v-3.629h4.36v-.778h-9.615v.778h4.327v3.629Zm-15.345-9.088h2.414c0,.183,0,.423-.011.549a4.222,4.222,0,0,1-2.736,3.3l.539.72a5.087,5.087,0,0,0,2.666-2.666,5.168,5.168,0,0,0,2.564,2.335l.516-.745a3.7,3.7,0,0,1-2.587-2.93c-.012-.137-.012-.366-.012-.56h2.5v-.778h-5.848Zm1.168,5.311v.766h6.181v3h.926V473.28Zm7.107-6.868h-.928v6.307h.928Z" transform="translate(-244.703 -466.4)" fill="#444443"/>
      </g>
      <rect id="사각형_520" data-name="사각형 520" width="115.126" height="28.489" transform="translate(146.851 82.843)" fill="#ededed"/>
      <g id="그룹_5601" data-name="그룹 5601" transform="translate(156.571 91.708)">
        <path id="패스_3624" data-name="패스 3624" d="M213.472,352.813h.949v-7.348h2.5v-.812h-5.94v.812h2.5Zm-6.243.092a1.992,1.992,0,0,0,2.21-2.163v-6.089h-.984v6.066c0,.858-.378,1.351-1.3,1.351a4.573,4.573,0,0,1-1.431-.241v.768a3.385,3.385,0,0,0,1.511.308m-6.1.046c2.243,0,3.594-1.546,3.594-4.109v-.207c0-2.666-1.351-4.121-3.559-4.121-2.256,0-3.606,1.546-3.606,4.11v.206c0,2.666,1.351,4.121,3.571,4.121m.023-.789c-1.831,0-2.552-1.363-2.552-3.342v-.378c0-1.819.835-3.136,2.518-3.136,1.842.011,2.564,1.351,2.564,3.33v.378c0,1.821-.836,3.148-2.53,3.148m-12.728-5.792a1.007,1.007,0,0,1,1.076-1.111.963.963,0,0,1,1,1.042c0,.835-.687,1.247-1.34,1.59a2.408,2.408,0,0,1-.733-1.522m.8,5.815a1.578,1.578,0,0,1-1.808-1.648,1.919,1.919,0,0,1,1.282-1.752L191,351.5a2.42,2.42,0,0,1-1.775.688m.012.766a3.148,3.148,0,0,0,2.243-.87c.229.252.423.493.641.733h1.168l-1.213-1.43a5.394,5.394,0,0,0,.789-2.462h-.881a4.634,4.634,0,0,1-.458,1.809l-1.912-2.3c.951-.458,1.831-1.007,1.831-2.152a1.761,1.761,0,0,0-1.934-1.764,1.892,1.892,0,0,0-2.072,1.9,2.876,2.876,0,0,0,.79,1.807,2.646,2.646,0,0,0-1.808,2.416c0,1.523,1.076,2.312,2.816,2.312m-8.459,1.088V350.1h-.926v1.213h-5.219V350.1h-.928v3.937Zm1.259-4.533v-.768h-2.656v-1.316h-.926v1.316H176v-1.316h-.926v1.316h-2.645v.768Zm-.469-2.678c-1.592-.16-3.846-1.363-3.846-2.874v-.31h-.962v.31c0,1.5-2.049,2.691-3.835,2.884l.435.778a5.426,5.426,0,0,0,3.869-2.449,5.9,5.9,0,0,0,3.915,2.462Zm-1.717,6.443h-5.219v-1.19h5.219Zm-9.393-8.562h-7.2v.768H169.5v1.1c0,.343-.023.745-.046,1.167l-6.524.23.183.812,6.3-.32a22.914,22.914,0,0,1-.32,2.7l.893.114a29.951,29.951,0,0,0,.481-5.209Zm1.236,7.142h-9.615v.778H171.7Zm-13.906-5.586c0-1.363-1.145-2.289-2.793-2.289s-2.793.927-2.793,2.289c0,1.328,1.145,2.254,2.793,2.254s2.793-.927,2.793-2.254m2.5,7.921V343.542h-.916v7.326h-2.427v.768h2.427v2.552Zm-3.4-7.921c0,.939-.824,1.476-1.888,1.476s-1.9-.537-1.9-1.476c0-.974.835-1.511,1.9-1.511s1.888.537,1.888,1.511m-1.476,7.6v-3.811c1.178-.058,2.472-.16,3.274-.264l-.081-.733c-1.03.115-2.243.2-3.571.241-1.167.044-2.335.057-3.594.057l.137.812c.951-.022,1.9-.022,2.907-.067v3.765Zm-11.538-2.62a4.471,4.471,0,0,1-2.736-3.95v-.366H143.6v-.768h-5.86v.768h2.449v.377a5.005,5.005,0,0,1-2.759,4.247l.549.687a6.072,6.072,0,0,0,2.7-3.136,5.7,5.7,0,0,0,2.656,2.851Zm3.617-2.5v-.79h-1.717v-4.418h-.928v10.645h.928v-5.436Zm-5.219-4.545h-3.217V345h3.217Zm-6.2,9.66V353.1h-6.237V350.73H128.9v3.136Zm-1.247-8.035v1.259h-3.389v.745h3.389v3.422h.926v-7.715h-.926v1.546h-3.389v.743Zm-1.706,2.884a26.443,26.443,0,0,1-4.591.378v-4.83h-.914v5.619h.789a29.661,29.661,0,0,0,4.807-.389Zm-11.781,4.1h5.026v-.824h-1.924v-7.417H123.9l-2.668,1.042v.778l2.256-.745v6.341h-2.152Z" transform="translate(-121.23 -343.542)" fill="#444443"/>
      </g>
      <rect id="사각형_521" data-name="사각형 521" width="115.412" height="28.264" transform="translate(274.831 82.955)" fill="#ededed"/>
      <g id="그룹_5602" data-name="그룹 5602" transform="translate(289.37 91.706)">
        <path id="패스_3625" data-name="패스 3625" d="M306.18,352.161c0-1.259-1.282-2.037-3.571-2.037s-3.559.778-3.559,2.037,1.282,2.025,3.559,2.025,3.571-.778,3.571-2.025m-8.493-6.959h2.427c0,.206,0,.458-.011.572a4.2,4.2,0,0,1-2.747,3.377l.5.743a5.36,5.36,0,0,0,2.712-2.77,5.281,5.281,0,0,0,2.69,2.393l.549-.745a3.7,3.7,0,0,1-2.747-2.988c-.012-.125-.012-.365-.012-.583h2.393v-.778h-5.758Zm4.922,5.7c1.66,0,2.633.458,2.633,1.259s-.972,1.247-2.633,1.247c-1.636,0-2.621-.458-2.621-1.247s.984-1.259,2.621-1.259m2.564-3.823v3.068h.928v-6.605h-.928V346.3h-2.14v.778ZM286.7,344.663v.78h4.636a18.638,18.638,0,0,1-.333,3.982l.882.116a25.79,25.79,0,0,0,.377-4.877Zm6.3,6.056a35.621,35.621,0,0,1-3.571.308V347.7h-.926v3.353c-.8.023-1.752.012-2.335.012l.137.812c.893,0,2.071-.034,3.147-.079,1.03-.058,2.6-.172,3.629-.31Zm3.342-1.946v-.79h-1.728v-4.441h-.928v10.645h.928v-5.413Zm-13.716,2.541c-.7.1-1.831.206-3.022.275v-1.007c1.259-.127,2.072-.778,2.072-1.763,0-1.111-1.007-1.8-2.518-1.8s-2.518.7-2.518,1.8c0,.962.8,1.625,2.037,1.763v1.053c-1.03.034-2.118.034-2.862.011l.16.813c.893,0,2.014-.012,3.193-.079,1.282-.081,2.691-.218,3.525-.322Zm3.274-2.255v-.789h-1.7v-4.728h-.928v10.645h.928v-5.128Zm-5.116-.24c0,.606-.653,1.03-1.625,1.03s-1.625-.424-1.625-1.03.664-1.03,1.625-1.03,1.625.412,1.625,1.03m1.58-3.113h-6.33v.766h6.33Zm-1.694-1.638H277.6v.778h3.057Zm-6.566-.526h-.928V349.6h.928Zm-2.393,4.922a3.953,3.953,0,0,1-2.643-3.445v-.984h-.939v1.019a4.236,4.236,0,0,1-2.69,3.719l.572.722a5.094,5.094,0,0,0,2.61-2.816,5.279,5.279,0,0,0,2.541,2.517Zm2.4,1.775H267.1v3.8h7.005Zm-.927,3.033h-5.151V351h5.151ZM260.1,343.541h-.926v6.077h.926Zm.012,6.639h-6.891v3.858h6.891Zm-.928,3.09h-5.036v-2.323h5.036Zm-4.762-9.134a2.593,2.593,0,0,0-2.758,2.565,2.768,2.768,0,0,0,5.517-.012,2.592,2.592,0,0,0-2.759-2.553m0,.755a1.753,1.753,0,0,1,1.866,1.81,1.732,1.732,0,0,1-1.866,1.773,1.75,1.75,0,0,1-1.854-1.786,1.772,1.772,0,0,1,1.854-1.8m-4.568,5.151v-6.5h-.916v2.851h-1.293v-2.655h-.9v6.227h.9v-2.8h1.293v2.884Zm-8.791-3.686h1.992a3.357,3.357,0,0,1-2.243,2.93l.516.7a4.328,4.328,0,0,0,2.2-2.175,4.047,4.047,0,0,0,2.117,1.888l.5-.72a2.93,2.93,0,0,1-2.175-2.622h1.981v-.766H241.06Zm8.791,7.829v-3.6H242.7v.766h6.215v2.839Zm-7.715-9.523h2.747v-.791h-2.747Zm-3.107-1.122H238.1v6.077h.928Zm.012,6.639h-6.891v3.858h6.891Zm-.928,3.09h-5.036v-2.323h5.036Zm-4.762-9.134a2.593,2.593,0,0,0-2.758,2.565,2.768,2.768,0,0,0,5.517-.012,2.592,2.592,0,0,0-2.759-2.553m0,.755a1.753,1.753,0,0,1,1.866,1.81,1.732,1.732,0,0,1-1.866,1.773,1.75,1.75,0,0,1-1.854-1.786,1.772,1.772,0,0,1,1.854-1.8m-4.713,6.376v-7.727h-.928v2.69h-2.266v.778h2.266v4.258Zm.229,2.587v-.768H222.72V350.6h-.926v3.251Zm-2.7-4.9a3.947,3.947,0,0,1-2.678-3.513v-1.294h-.939v1.328a4.39,4.39,0,0,1-2.7,3.788l.572.722a5.3,5.3,0,0,0,2.622-2.9,5.22,5.22,0,0,0,2.6,2.6Z" transform="translate(-219.848 -343.541)" fill="#444443"/>
      </g>
      <rect id="사각형_522" data-name="사각형 522" width="115.412" height="28.264" transform="translate(403.235 82.955)" fill="#ededed"/>
      <path id="패스_3626" data-name="패스 3626" d="M319.048,351.336v-6.625h4.223v6.625Zm3.319-5.859h-2.416v5.093h2.416Zm4.394,8.71v-5.619h-1.3v5.081h-.9v-9.854h.9v4h1.3v-4.247h.916v10.645Z" transform="translate(103.905 -251.834)" fill="#444443"/>
      <path id="패스_3627" data-name="패스 3627" d="M333.158,351.074a33.347,33.347,0,0,1-5.642.492h-.47v-6.912h.927v6.1a29.737,29.737,0,0,0,5.094-.481Zm1.911,3.113h-.916V343.542h.916Z" transform="translate(106.677 -251.834)" fill="#444443"/>
      <path id="패스_3628" data-name="패스 3628" d="M340.379,351.864a7.259,7.259,0,0,1-2.724-3.275,6.874,6.874,0,0,1-2.724,3.492l-.618-.7a5.786,5.786,0,0,0,2.861-4.7v-1.236h-2.5v-.778h5.9v.778h-2.439v1.213a5.355,5.355,0,0,0,2.816,4.487Zm-.378-3.7v-.789h2.233v-3.835h.926v10.645h-.926v-6.021Z" transform="translate(109.196 -251.834)" fill="#444443"/>
      <path id="패스_3629" data-name="패스 3629" d="M350.551,349.2a5.277,5.277,0,0,1-2.541-2.518,5.087,5.087,0,0,1-2.608,2.816l-.574-.72a4.235,4.235,0,0,0,2.691-3.721v-1.018h.937v.984a3.954,3.954,0,0,0,2.645,3.445Zm-4.052,4.841v-3.8h7v3.8ZM352.576,351h-5.149v2.266h5.149Zm-.011-1.409v-6.054h.928V349.6Z" transform="translate(112.84 -251.834)" fill="#444443"/>
      <path id="패스_3630" data-name="패스 3630" d="M359.407,352.058c-.835.1-2.243.24-3.524.32-1.18.069-2.3.079-3.2.079l-.159-.812c.743.023,1.831.023,2.86-.012v-1.053c-1.236-.137-2.036-.8-2.036-1.763,0-1.1,1.018-1.8,2.518-1.8s2.518.687,2.518,1.8c0,.984-.813,1.638-2.072,1.763v1.007c1.19-.069,2.323-.171,3.022-.275Zm-6.662-5.586v-.766h6.33v.766Zm3.125,1.317c-.961,0-1.625.412-1.625,1.029s.664,1.03,1.625,1.03,1.625-.423,1.625-1.03S356.844,347.789,355.871,347.789Zm-1.546-2.942v-.778h3.057v.778Zm6.581,4.212v5.128h-.926V343.542h.926v4.728h1.706v.789Z" transform="translate(115.51 -251.834)" fill="#444443"/>
      <path id="패스_3631" data-name="패스 3631" d="M367.134,351.486c-1.029.137-2.6.252-3.628.308-1.076.046-2.256.081-3.147.081l-.137-.813c.583,0,1.532.012,2.335-.011V347.7h.928v3.33a35.586,35.586,0,0,0,3.57-.31Zm-.812-6.822a25.775,25.775,0,0,1-.377,4.876l-.882-.114a18.566,18.566,0,0,0,.331-3.983h-4.635v-.778Zm2.346,4.11v5.413h-.926V343.542h.926v4.441H370.4v.79Z" transform="translate(118.176 -251.834)" fill="#444443"/>
      <path id="패스_3632" data-name="패스 3632" d="M368.867,344.424h5.757v.778H372.23c0,.217,0,.458.012.583a3.705,3.705,0,0,0,2.747,2.988l-.549.743a5.287,5.287,0,0,1-2.689-2.392,5.363,5.363,0,0,1-2.713,2.77l-.5-.745a4.192,4.192,0,0,0,2.747-3.376c.012-.114.012-.366.012-.572h-2.427Zm4.922,9.763c-2.278,0-3.56-.778-3.56-2.027s1.282-2.036,3.56-2.036,3.57.777,3.57,2.036S376.078,354.187,373.789,354.187Zm-2.622-2.027c0,.791.986,1.248,2.622,1.248,1.659,0,2.633-.458,2.633-1.248s-.974-1.259-2.633-1.259C372.152,350.9,371.167,351.36,371.167,352.16Zm3.045-5.081V346.3h2.141v-2.759h.925v6.605h-.925V347.08Z" transform="translate(121.057 -251.834)" fill="#444443"/>
      <rect id="사각형_523" data-name="사각형 523" width="115.412" height="28.264" transform="translate(403.235 50.538)" fill="#ededed"/>
      <g id="그룹_5603" data-name="그룹 5603" transform="translate(423.029 59.29)">
        <path id="패스_3633" data-name="패스 3633" d="M394.927,328.088c0-1.259-1.282-2.037-3.571-2.037s-3.559.778-3.559,2.037,1.282,2.025,3.559,2.025,3.571-.778,3.571-2.025m-8.493-6.959h2.427c0,.206,0,.458-.011.572a4.2,4.2,0,0,1-2.747,3.376l.5.745a5.359,5.359,0,0,0,2.712-2.77,5.279,5.279,0,0,0,2.691,2.392l.549-.743a3.7,3.7,0,0,1-2.747-2.988c-.012-.125-.012-.366-.012-.583h2.393v-.778h-5.758Zm4.922,5.7c1.66,0,2.633.458,2.633,1.259s-.972,1.247-2.633,1.247c-1.636,0-2.621-.458-2.621-1.247s.984-1.259,2.621-1.259m2.564-3.823v3.068h.928v-6.605h-.928v2.759h-2.14v.778Zm-18.475-2.416v.778h4.635a18.661,18.661,0,0,1-.331,3.983l.881.114a25.637,25.637,0,0,0,.378-4.876Zm6.3,6.056a35.658,35.658,0,0,1-3.571.308v-3.33h-.928v3.353c-.8.023-1.751.012-2.335.012l.137.812c.893,0,2.072-.034,3.148-.079,1.03-.058,2.6-.172,3.628-.31Zm3.342-1.946v-.79h-1.729v-4.441h-.927v10.645h.927V324.7Zm-15.528,5.425v-3.869h4.36v-.778H364.3v.778h4.327v3.869Zm3.971-6.57c-1.877-.229-3.925-1.592-3.925-3.045v-.676h-.974v.676c0,1.453-1.877,2.8-3.915,3.068l.447.8c1.613-.32,3.434-1.363,3.948-2.6a6.028,6.028,0,0,0,3.972,2.564Zm-10.646,6.479v-.768H356.6V328.1h5.894v-2.506h-6.856v.756h5.929v1.041h-5.9v2.645Zm-2.358-6.376c-.412.069-1.053.127-1.809.172l.275-2.312-.916-.115-.183,2.46a2.342,2.342,0,0,1-.285.012c-.435.023-.882.046-1.351.057l-.172-2.506-.926.114.263,2.4c-.492.011-1,.011-1.476.011l.137.8c.949,0,2.152-.046,3.319-.1s2.427-.16,3.2-.275Zm1.958-4.189h-.926v5.6h.926Zm-2.462.687h-5.781v.755h5.781Zm-13.712,6.913a5.353,5.353,0,0,1-2.816-4.487v-1.213h2.439v-.778h-5.9v.778h2.5V322.6a5.79,5.79,0,0,1-2.862,4.705l.618.7a6.865,6.865,0,0,0,2.724-3.49,7.255,7.255,0,0,0,2.724,3.274Zm1.282-2.976v6.021h.928V319.468h-.928V323.3h-2.231v.789Zm-9.693-4.624h-.916v10.645h.916Zm-2,6.73a29.591,29.591,0,0,1-5.093.481v-6.1h-.928v6.913h.47a33.339,33.339,0,0,0,5.642-.493Zm-12.562-5.563H319.1v6.628h4.224Zm4.406,9.477V319.468h-.916v4.247h-1.3v-4h-.9v9.856h.9v-5.082h1.3v5.619Zm-5.311-3.617h-2.414V321.4h2.414Z" transform="translate(-319.104 -319.468)" fill="#444443"/>
      </g>
      <rect id="사각형_524" data-name="사각형 524" width="115.412" height="28.264" transform="translate(531.497 82.955)" fill="#ededed"/>
      <g id="그룹_5604" data-name="그룹 5604" transform="translate(561.594 91.708)">
        <path id="패스_3634" data-name="패스 3634" d="M475.964,354.038V350.1h-.928v1.213h-5.219V350.1h-.927v3.938Zm1.259-4.533v-.766h-2.656v-1.317h-.928v1.317h-2.46v-1.317h-.928v1.317h-2.643v.766Zm-.47-2.678c-1.59-.16-3.846-1.361-3.846-2.872v-.31h-.961v.31c0,1.5-2.048,2.689-3.834,2.884l.435.778a5.434,5.434,0,0,0,3.869-2.449,5.9,5.9,0,0,0,3.915,2.46Zm-1.717,6.445h-5.219v-1.19h5.219Zm-9.391-8.562h-7.2v.766h6.239v1.1c0,.343-.023.745-.046,1.167l-6.524.229.183.813,6.3-.32a23.225,23.225,0,0,1-.32,2.7l.893.114a30.205,30.205,0,0,0,.481-5.209Zm1.236,7.142h-9.615v.778h9.615Zm-13.908-5.586c0-1.363-1.145-2.289-2.793-2.289s-2.793.927-2.793,2.289c0,1.328,1.145,2.254,2.793,2.254s2.793-.927,2.793-2.254m2.5,7.921V343.542h-.916v7.326h-2.427v.766h2.427v2.553Zm-3.4-7.921c0,.939-.824,1.476-1.889,1.476s-1.9-.537-1.9-1.476c0-.974.836-1.511,1.9-1.511s1.889.537,1.889,1.511m-1.477,7.6v-3.812c1.18-.056,2.472-.16,3.274-.262l-.079-.733c-1.03.115-2.243.194-3.571.24-1.167.046-2.335.058-3.594.058l.137.812c.949-.023,1.9-.023,2.907-.069v3.766ZM441.1,352.15c0-1.282-1.351-2.05-3.583-2.05s-3.559.768-3.559,2.05c0,1.247,1.34,2.025,3.559,2.025s3.583-.778,3.583-2.025m-8.264-7.063h2.449c0,.264-.011.47-.011.572a4.19,4.19,0,0,1-2.747,3.263l.537.72a5.058,5.058,0,0,0,2.678-2.633,5.117,5.117,0,0,0,2.541,2.335l.514-.743a3.678,3.678,0,0,1-2.563-2.93c-.012-.114-.012-.32-.012-.584h2.416v-.778h-5.8Zm7.313,7.063c0,.789-1.018,1.247-2.633,1.247s-2.6-.458-2.6-1.247c0-.824,1-1.271,2.6-1.271s2.633.447,2.633,1.271m2.451-4.888v-.778h-1.648v-2.941h-.928v6.535h.928v-2.816Zm-12.153,1.386v-4.693h-.926v1.567H424.1v-1.567h-.928v4.693Zm-3.193,5.551v-3.513h4.36v-.778H422v.778h4.327V354.2Zm2.266-6.318H424.1v-1.6h5.425Z" transform="translate(-422.004 -343.542)" fill="#444443"/>
      </g>
      <rect id="사각형_525" data-name="사각형 525" width="115.412" height="28.264" transform="translate(531.497 50.538)" fill="#ededed"/>
      <g id="그룹_5605" data-name="그룹 5605" transform="translate(556.473 59.29)">
        <path id="패스_3635" data-name="패스 3635" d="M483.659,328.088c0-1.259-1.282-2.037-3.571-2.037s-3.559.778-3.559,2.037,1.282,2.027,3.559,2.027,3.571-.778,3.571-2.027m-8.493-6.959h2.427c0,.206,0,.458-.011.572a4.2,4.2,0,0,1-2.747,3.377l.5.743a5.35,5.35,0,0,0,2.712-2.77,5.281,5.281,0,0,0,2.69,2.393l.549-.745a3.7,3.7,0,0,1-2.747-2.987c-.012-.127-.012-.366-.012-.584h2.393v-.778h-5.758Zm4.922,5.7c1.66,0,2.633.458,2.633,1.259s-.972,1.248-2.633,1.248c-1.636,0-2.62-.459-2.62-1.248s.984-1.259,2.62-1.259m2.564-3.823v3.068h.928v-6.605h-.928v2.759h-2.14v.778Zm-18.477-2.416v.78h4.636a18.659,18.659,0,0,1-.333,3.983l.882.115a25.777,25.777,0,0,0,.377-4.877Zm6.3,6.056c-.949.148-2.289.252-3.571.31v-3.331h-.927v3.354c-.8.023-1.752.011-2.335.011l.137.813c.893,0,2.071-.035,3.147-.081,1.03-.057,2.6-.171,3.629-.308Zm3.342-1.946v-.789h-1.728v-4.442h-.928v10.646h.928V324.7ZM458.2,328.077c0-1.283-1.351-2.049-3.583-2.049s-3.559.766-3.559,2.049c0,1.247,1.339,2.025,3.559,2.025s3.583-.778,3.583-2.025m-8.264-7.063h2.449c0,.264-.012.47-.012.572a4.186,4.186,0,0,1-2.747,3.263l.539.72a5.062,5.062,0,0,0,2.678-2.633,5.112,5.112,0,0,0,2.541,2.335l.514-.743a3.682,3.682,0,0,1-2.564-2.93c-.011-.114-.011-.32-.011-.584h2.414v-.778h-5.8Zm7.313,7.063c0,.789-1.018,1.247-2.633,1.247s-2.6-.458-2.6-1.247c0-.824,1-1.271,2.6-1.271s2.633.447,2.633,1.271m2.449-4.888v-.778h-1.648v-2.942h-.927V326h.927v-2.816Zm-12.152,1.386v-4.693h-.928v1.567H441.2v-1.567h-.927v4.693Zm-3.194,5.551v-3.513h4.362v-.778H439.1v.778h4.327v3.513Zm2.266-6.318H441.2v-1.6h5.425Zm-9.341-4.339h-.928v6.079h.928Zm.012,6.64H430.4v3.858h6.891Zm-.928,3.09h-5.036v-2.324h5.036Zm-4.762-9.134a2.592,2.592,0,0,0-2.758,2.564,2.768,2.768,0,0,0,5.517-.012,2.591,2.591,0,0,0-2.759-2.552m0,.755a1.753,1.753,0,0,1,1.866,1.808A1.732,1.732,0,0,1,431.6,324.4a1.75,1.75,0,0,1-1.854-1.786,1.772,1.772,0,0,1,1.854-1.8m-4.713-1.352h-.928v7.727h.928Zm-2.266,5.312a4,4,0,0,1-2.7-3.548v-1.157h-.939v1.18a4.636,4.636,0,0,1-2.782,3.89l.562.722a5.523,5.523,0,0,0,2.712-2.953,5.156,5.156,0,0,0,2.622,2.61Zm2.5,5v-.766h-6.17v-2.507h-.927v3.274Z" transform="translate(-418.201 -319.468)" fill="#444443"/>
      </g>
      <rect id="사각형_526" data-name="사각형 526" width="115.412" height="28.264" transform="translate(659.76 82.955)" fill="#ededed"/>
      <g id="그룹_5606" data-name="그룹 5606" transform="translate(690.087 91.708)">
        <path id="패스_3636" data-name="패스 3636" d="M570.922,354.039V350.1h-.928v1.212h-5.219V350.1h-.926v3.937Zm1.259-4.533v-.768h-2.656v-1.316H568.6v1.316h-2.46v-1.316h-.928v1.316h-2.643v.768Zm-.47-2.678c-1.59-.16-3.846-1.363-3.846-2.874v-.308H566.9v.308c0,1.5-2.048,2.691-3.834,2.884l.435.778a5.426,5.426,0,0,0,3.869-2.449,5.894,5.894,0,0,0,3.915,2.46Zm-1.717,6.443h-5.219v-1.19h5.219ZM560.6,344.71h-7.2v.768h6.239v1.1c0,.343-.023.743-.046,1.167l-6.524.228.183.813,6.3-.32a23.188,23.188,0,0,1-.32,2.7l.893.114a30.221,30.221,0,0,0,.481-5.207Zm1.236,7.142h-9.615v.778h9.615Zm-13.908-5.586c0-1.361-1.145-2.289-2.793-2.289s-2.793.928-2.793,2.289c0,1.328,1.145,2.256,2.793,2.256s2.793-.928,2.793-2.256m2.5,7.921V343.542h-.916v7.326h-2.427v.768h2.427v2.552Zm-3.4-7.921c0,.939-.824,1.477-1.889,1.477s-1.9-.539-1.9-1.477c0-.972.836-1.511,1.9-1.511s1.889.539,1.889,1.511m-1.477,7.6v-3.812c1.18-.056,2.472-.159,3.274-.262l-.079-.733c-1.03.115-2.243.194-3.571.241-1.167.046-2.335.057-3.594.057l.137.813c.949-.023,1.9-.023,2.907-.069v3.765Zm-11.617-7.852c0-1.213-1.178-1.979-2.827-1.979s-2.851.766-2.851,1.967c0,1.237,1.2,1.958,2.851,1.958s2.827-.733,2.827-1.946m2.541,5.712v-8.185h-.928v6.3h-2.231v.733h2.231v1.157Zm.218,2.2v-.778h-6.686v-2.3h-.926v3.08Zm-3.675-7.91c0,.72-.768,1.19-1.911,1.19s-1.924-.47-1.924-1.19.778-1.213,1.924-1.213,1.911.493,1.911,1.213m-1.374,5.276V349.3c1.122-.07,2.3-.149,2.976-.241l-.081-.72c-1.03.113-2.186.217-3.376.263-1.157.046-2.45.058-3.548.046l.15.791c.881,0,1.946-.035,2.953-.081v1.934Zm-5.784-7.748h-.927v6.077h.927Zm.011,6.639h-6.891v3.858h6.891Zm-.927,3.09h-5.036v-2.323h5.036Zm-4.762-9.134a2.593,2.593,0,0,0-2.759,2.564,2.768,2.768,0,0,0,5.517-.011,2.59,2.59,0,0,0-2.758-2.553m0,.755a1.751,1.751,0,0,1,1.865,1.808,1.732,1.732,0,0,1-1.865,1.775,1.75,1.75,0,0,1-1.854-1.786,1.772,1.772,0,0,1,1.854-1.8" transform="translate(-517.424 -343.542)" fill="#444443"/>
      </g>
      <rect id="사각형_527" data-name="사각형 527" width="115.412" height="28.264" transform="translate(659.76 50.538)" fill="#ededed"/>
      <g id="그룹_5607" data-name="그룹 5607" transform="translate(684.901 59.29)">
        <path id="패스_3637" data-name="패스 3637" d="M578.7,328.088c0-1.259-1.282-2.037-3.571-2.037s-3.559.778-3.559,2.037,1.282,2.027,3.559,2.027,3.571-.778,3.571-2.027m-8.493-6.959h2.427c0,.206,0,.458-.011.572a4.2,4.2,0,0,1-2.747,3.377l.5.743a5.35,5.35,0,0,0,2.712-2.77,5.282,5.282,0,0,0,2.69,2.393l.549-.745a3.7,3.7,0,0,1-2.747-2.987c-.012-.127-.012-.366-.012-.584h2.393v-.778H570.21Zm4.922,5.7c1.66,0,2.633.458,2.633,1.259s-.972,1.248-2.633,1.248c-1.636,0-2.621-.459-2.621-1.248s.984-1.259,2.621-1.259m2.564-3.823v3.068h.928v-6.605H577.7v2.759h-2.14v.778ZM559.22,320.59v.78h4.635a18.656,18.656,0,0,1-.331,3.983l.881.115a25.649,25.649,0,0,0,.378-4.877Zm6.3,6.056c-.951.148-2.289.252-3.571.31v-3.331h-.928v3.354c-.8.023-1.751.011-2.335.011l.137.813c.893,0,2.072-.035,3.148-.081,1.03-.057,2.6-.171,3.628-.308Zm3.342-1.946v-.789h-1.729v-4.442H566.2v10.646h.926V324.7Zm-17.742-2.758c0-1.213-1.18-1.981-2.828-1.981s-2.849.767-2.849,1.969c0,1.236,1.2,1.957,2.849,1.957s2.828-.733,2.828-1.945m2.541,5.711v-8.185h-.928v6.3H550.5v.732h2.231v1.155Zm.217,2.2v-.778H547.19v-2.3h-.926v3.078Zm-3.673-7.909c0,.72-.767,1.19-1.912,1.19s-1.923-.47-1.923-1.19.778-1.213,1.923-1.213,1.912.492,1.912,1.213m-1.373,5.276v-1.992c1.122-.069,2.3-.148,2.976-.24l-.081-.722c-1.03.114-2.186.218-3.376.264-1.157.046-2.449.057-3.548.046l.148.789c.882,0,1.946-.034,2.953-.079v1.934Zm-5.784-7.75h-.926v6.079h.926Zm.011,6.64h-6.891v3.858h6.891Zm-.926,3.09h-5.036v-2.324h5.036Zm-4.762-9.134a2.593,2.593,0,0,0-2.759,2.564,2.768,2.768,0,0,0,5.517-.012,2.59,2.59,0,0,0-2.758-2.552m0,.755a1.751,1.751,0,0,1,1.865,1.808,1.731,1.731,0,0,1-1.865,1.773,1.749,1.749,0,0,1-1.854-1.786,1.771,1.771,0,0,1,1.854-1.8m-4.714-1.352h-.926v6.079h.926Zm.012,6.64h-6.891v3.858h6.891Zm-.928,3.09H526.7v-2.324h5.036Zm-4.761-9.134a2.592,2.592,0,0,0-2.758,2.564,2.768,2.768,0,0,0,5.517-.012,2.591,2.591,0,0,0-2.759-2.552m0,.755a1.753,1.753,0,0,1,1.866,1.808,1.731,1.731,0,0,1-1.866,1.773,1.75,1.75,0,0,1-1.854-1.786,1.772,1.772,0,0,1,1.854-1.8m-4.713-1.352h-.926v7.727h.926Zm-2.266,5.312a4,4,0,0,1-2.7-3.548v-1.157h-.939v1.18a4.636,4.636,0,0,1-2.782,3.89l.562.722a5.531,5.531,0,0,0,2.713-2.953,5.154,5.154,0,0,0,2.62,2.61Zm2.5,5v-.766h-6.17v-2.507h-.927v3.274Z" transform="translate(-513.573 -319.468)" fill="#444443"/>
      </g>
      <rect id="사각형_528" data-name="사각형 528" width="371.654" height="28.489" transform="translate(146.851 115.149)" fill="#ededed"/>
      <g id="그룹_5608" data-name="그룹 5608" transform="translate(284.328 124.016)">
        <path id="패스_3638" data-name="패스 3638" d="M312.8,376.152c0-1.259-1.282-2.037-3.571-2.037s-3.56.778-3.56,2.037,1.282,2.027,3.56,2.027,3.571-.778,3.571-2.027m-8.493-6.959h2.427c0,.206,0,.458-.012.572a4.2,4.2,0,0,1-2.747,3.377l.5.743a5.359,5.359,0,0,0,2.713-2.77,5.284,5.284,0,0,0,2.689,2.393l.549-.745a3.7,3.7,0,0,1-2.747-2.987c-.011-.127-.011-.366-.011-.584h2.392v-.778h-5.757Zm4.922,5.7c1.659,0,2.633.458,2.633,1.259s-.974,1.248-2.633,1.248c-1.637,0-2.622-.458-2.622-1.248s.984-1.259,2.622-1.259m2.564-3.823v3.068h.926v-6.6H311.8v2.758h-2.141v.778Zm-18.477-2.416v.78h4.636a18.663,18.663,0,0,1-.333,3.983l.882.114a25.776,25.776,0,0,0,.377-4.877Zm6.3,6.056c-.949.148-2.289.252-3.571.31v-3.332h-.926v3.354c-.8.023-1.752.011-2.335.011l.137.813c.893,0,2.071-.035,3.147-.081,1.03-.057,2.6-.172,3.629-.308Zm3.342-1.946v-.79h-1.728v-4.44H300.3v10.645h.928v-5.415Zm-12.126-4.647h-7.2v3.754h7.2Zm-.927,2.987H284.56v-2.221h5.346Zm-2.2,4.82v-2.094h4.327v-.768H282.42v.768h4.36v2.094Zm3.239,1.912v-.768h-6.4v-2.243h-.928v3.011Zm-10.349-10.3h-.926v5.7h.926Zm.012,10.5v-4.212h-.928v1.351h-5.013v-1.351h-.926v4.212Zm-.928-.755h-5.013v-1.351h5.013Zm-4.762-9.214a2.553,2.553,0,0,0-2.735,2.5,2.748,2.748,0,1,0,2.735-2.5m0,.8a1.692,1.692,0,1,1,0,3.376,1.692,1.692,0,1,1,0-3.376m-10.668,6.123a5.327,5.327,0,0,1-2.77-4.487v-1.064h2.462v-.78h-5.883v.78h2.46v1.087a5.752,5.752,0,0,1-2.8,4.716l.618.7a6.824,6.824,0,0,0,2.666-3.5,6.919,6.919,0,0,0,2.69,3.249Zm3.594-2.358v-.778H266.12v-4.315h-.928v10.645h.928v-5.552Zm-10.386-.023v-.778h-1.717v-4.292h-.926v10.645h.926V372.6Zm-3.651,2.266a5.551,5.551,0,0,1-2.816-4.545v-1.853h-.951v1.888a5.937,5.937,0,0,1-2.793,4.751l.6.71a6.894,6.894,0,0,0,2.668-3.548,7.286,7.286,0,0,0,2.712,3.307Zm-8.216-7.336h-.928v5.7h.928Zm.011,10.5v-4.212h-.926v1.351h-5.013v-1.351h-.928v4.212Zm-.926-.755h-5.013v-1.351h5.013Zm-4.762-9.214a2.554,2.554,0,0,0-2.736,2.5,2.748,2.748,0,1,0,2.736-2.5m0,.8a1.692,1.692,0,1,1,0,3.376,1.692,1.692,0,1,1,0-3.376m-12.177-.574v.768h6.25a17.537,17.537,0,0,1-.412,3.846h-6.971v.778h2.462v4.5h.926v-4.5h2.816v4.5h.928v-4.5h2.483V372.9h-1.7a24.744,24.744,0,0,0,.423-4.613Zm-2.949-.754h-.928v7.725h.928Zm-2.266,5.311a4,4,0,0,1-2.7-3.548V368.14h-.939v1.18a4.637,4.637,0,0,1-2.781,3.89l.56.722a5.526,5.526,0,0,0,2.713-2.953,5.159,5.159,0,0,0,2.62,2.61Zm2.5,5v-.766h-6.169v-2.507h-.928v3.274Z" transform="translate(-216.104 -367.534)" fill="#444443"/>
      </g>
      <rect id="사각형_529" data-name="사각형 529" width="115.412" height="27.389" transform="translate(146.71 15.078)" fill="#fff5eb"/>
      <g id="그룹_5609" data-name="그룹 5609" transform="translate(176.509 23.288)">
        <path id="패스_3639" data-name="패스 3639" d="M187.281,295.1c0,.469-.5.926-1.3.926-.824,0-1.317-.458-1.317-.926s.493-.962,1.317-.962c.8,0,1.3.481,1.3.962m-.2,5.494v-2.025c.836-.058,1.648-.139,2.381-.252l-.079-1.053a63.382,63.382,0,0,1-6.913.331l.194,1.122c.813,0,1.877-.011,3-.057V300.6Zm4.762,2.7v-1.132h-6.535v-2.072h-1.431v3.2Zm-3.663-3.274h2.06v1.1h1.431v-8.391h-1.431v6.274h-2.06Zm.5-4.922c0-1.167-1.133-2.027-2.712-2.027s-2.747.859-2.747,2c0,1.19,1.168,2.015,2.747,2.015s2.712-.824,2.712-1.992m-15.613-1.786v1.145H179a18.086,18.086,0,0,1-.286,3.49h-6.845v1.122h4.166v4.51h1.419v-4.51h4.212v-1.122h-1.6a25.771,25.771,0,0,0,.354-4.635Zm-5.86,4.693h1.557v2.6H170.2v-7.876h-1.431v1.386h-1.545l.034,1.2h1.511v1.487H167.25Zm3.217,5.288v-1.122h-6.056v-2.3h-1.442V303.3Zm-9.157-7.062a2.859,2.859,0,1,0,2.862-2.713,2.646,2.646,0,0,0-2.862,2.713m1.453-.012a1.411,1.411,0,1,1,1.409,1.511,1.386,1.386,0,0,1-1.409-1.511m-4.578,2.5h1.419V297.3H158.15Zm-3.823.125h1.419v-6.112h-1.419Zm1.419.572H148.6v4.029h7.142Zm-1.419,2.932h-4.293v-1.831h4.293Zm-7.153-6.411a2.891,2.891,0,0,0,5.734,0,2.878,2.878,0,0,0-5.734,0m1.361-.011a1.42,1.42,0,0,1,1.5-1.43,1.4,1.4,0,0,1,1.511,1.43,1.439,1.439,0,0,1-1.511,1.442,1.4,1.4,0,0,1-1.5-1.442m-11.091-1.671h2.816v-1.122h-2.816Zm.389,5.609V301h6.112v2.6h1.419v-3.732Zm-1.409-3.9h1.706a2.983,2.983,0,0,1-2.1,2.45l.813,1.053a3.63,3.63,0,0,0,2.025-1.992,3.483,3.483,0,0,0,1.866,1.694c.24-.354.469-.72.71-1.064a2.574,2.574,0,0,1-1.866-2.141H141.2v-1.11h-4.774Zm8.94,3.4v-6.628H144v2.828h-.87v-2.633H141.8v6.329h1.328v-2.564H144v2.668Z" transform="translate(-136.036 -292.733)" fill="#e37e28"/>
      </g>
      <rect id="사각형_530" data-name="사각형 530" width="115.412" height="27.389" transform="translate(274.972 15.078)" fill="#fff5eb"/>
      <g id="그룹_5610" data-name="그룹 5610" transform="translate(283.458 23.29)">
        <path id="패스_3640" data-name="패스 3640" d="M309.328,295.1c0,.469-.5.928-1.3.928-.824,0-1.317-.459-1.317-.928s.493-.961,1.317-.961c.8,0,1.3.481,1.3.961m-.2,5.494v-2.025c.836-.058,1.648-.139,2.381-.252l-.08-1.053a63.361,63.361,0,0,1-6.913.331l.194,1.122c.813,0,1.877-.011,3-.056V300.6Zm4.762,2.7v-1.133H307.36v-2.072h-1.431v3.2Zm-3.663-3.274h2.06v1.1h1.431v-8.389h-1.431v6.273h-2.06Zm.5-4.922c0-1.167-1.133-2.025-2.712-2.025s-2.747.858-2.747,2c0,1.19,1.168,2.014,2.747,2.014s2.712-.824,2.712-1.992m-15.612-1.786v1.145h5.929a18.089,18.089,0,0,1-.285,3.49h-6.845v1.122h4.166v4.51h1.419v-4.51h4.212v-1.122h-1.6a25.777,25.777,0,0,0,.354-4.635Zm-5.86,4.693h1.557v2.6h1.431v-7.875h-1.431v1.384h-1.545l.034,1.2h1.511v1.488H289.3Zm3.217,5.288v-1.122h-6.056v-2.3h-1.442V303.3Zm-9.157-7.062a2.859,2.859,0,1,0,2.862-2.713,2.647,2.647,0,0,0-2.862,2.713m1.453-.012a1.411,1.411,0,1,1,1.409,1.511,1.386,1.386,0,0,1-1.409-1.511m-4.6,2.622h1.419v-6.112h-1.419Zm1.419.571h-7.142v4.029h7.142Zm-1.419,2.932h-4.293v-1.831h4.293Zm-7.153-6.41a2.891,2.891,0,0,0,5.734,0,2.878,2.878,0,0,0-5.734,0m1.361-.012a1.42,1.42,0,0,1,1.5-1.43,1.4,1.4,0,0,1,1.511,1.43,1.439,1.439,0,0,1-1.511,1.442,1.4,1.4,0,0,1-1.5-1.442M271.19,303.3v-1.133h-5.964v-2.278h-1.419V303.3Zm-.229-2.689v-7.875h-1.431v2.5h-1.854v1.145h1.854v4.235Zm-2.518-2.622a3.742,3.742,0,0,1-2.507-3.423v-1.213h-1.488v1.283a3.861,3.861,0,0,1-2.61,3.616l.847,1.134a4.432,4.432,0,0,0,2.518-2.575,5.079,5.079,0,0,0,2.427,2.289Zm-9.535.732h1.419V297.3h-1.419Zm-3.823.127H256.5v-6.112h-1.419Zm1.419.571h-7.142v4.029H256.5Zm-1.419,2.932h-4.293v-1.831h4.293Zm-7.153-6.41a2.891,2.891,0,0,0,5.734,0,2.878,2.878,0,0,0-5.734,0m1.361-.012a1.42,1.42,0,0,1,1.5-1.43,1.4,1.4,0,0,1,1.511,1.43,1.439,1.439,0,0,1-1.511,1.442,1.4,1.4,0,0,1-1.5-1.442M238.2,294.256h2.816v-1.122H238.2Zm.389,5.609V301H244.7v2.6h1.419v-3.731Zm-1.409-3.9h1.706a2.988,2.988,0,0,1-2.1,2.451l.813,1.052a3.639,3.639,0,0,0,2.025-1.992,3.483,3.483,0,0,0,1.866,1.694c.24-.354.469-.72.71-1.064a2.574,2.574,0,0,1-1.866-2.141h1.615v-1.11h-4.774Zm8.94,3.4v-6.627H244.76v2.827h-.87v-2.633h-1.328v6.329h1.328v-2.564h.87v2.668Zm-12.328-.514h1.419v-6.112h-1.419Zm1.419.571h-7.142v4.029h7.142Zm-1.419,2.932H229.5v-1.831h4.293Zm-7.153-6.41a2.891,2.891,0,0,0,5.734,0,2.878,2.878,0,0,0-5.734,0m1.361-.012a1.42,1.42,0,0,1,1.5-1.43,1.4,1.4,0,0,1,1.511,1.43,1.439,1.439,0,0,1-1.511,1.442,1.4,1.4,0,0,1-1.5-1.442M224.81,303.3v-1.133h-5.964v-2.278h-1.419V303.3Zm-.229-2.689v-7.875H223.15v2.5H221.3v1.145h1.854v4.235Zm-2.518-2.622a3.742,3.742,0,0,1-2.507-3.423v-1.213h-1.488v1.283a3.86,3.86,0,0,1-2.61,3.616l.847,1.134a4.433,4.433,0,0,0,2.518-2.575,5.084,5.084,0,0,0,2.427,2.289Z" transform="translate(-215.458 -292.734)" fill="#e37e28"/>
      </g>
      <rect id="사각형_531" data-name="사각형 531" width="115.412" height="27.389" transform="translate(403.235 15.078)" fill="#fff5eb"/>
      <g id="그룹_5611" data-name="그룹 5611" transform="translate(417.285 23.29)">
        <path id="패스_3641" data-name="패스 3641" d="M397.582,295.1c0,.47-.5.928-1.3.928-.824,0-1.316-.458-1.316-.928s.492-.961,1.316-.961c.8,0,1.3.481,1.3.961m-.194,5.494v-2.025c.835-.058,1.648-.137,2.381-.252l-.081-1.053a63.325,63.325,0,0,1-6.913.331l.2,1.122c.812,0,1.877-.011,3-.056V300.6Zm4.762,2.7v-1.133h-6.536v-2.072h-1.43v3.2Zm-3.663-3.274h2.06v1.1h1.43v-8.389h-1.43v6.273h-2.06Zm.5-4.922c0-1.167-1.134-2.025-2.713-2.025s-2.747.858-2.747,2c0,1.19,1.167,2.014,2.747,2.014s2.713-.824,2.713-1.992m-15.612-1.786v1.145h5.929a18.006,18.006,0,0,1-.287,3.492h-6.845v1.122h4.166v4.51h1.419v-4.51h4.212v-1.122h-1.6a25.657,25.657,0,0,0,.355-4.636Zm-5.86,4.693h1.557v2.6h1.43v-7.875h-1.43v1.384h-1.546l.035,1.2h1.511v1.488h-1.523Zm3.216,5.288v-1.122h-6.054v-2.3h-1.442V303.3Zm-9.157-7.062a2.86,2.86,0,1,0,2.862-2.713,2.647,2.647,0,0,0-2.862,2.713m1.454-.012a1.411,1.411,0,1,1,1.407,1.511,1.386,1.386,0,0,1-1.407-1.511m-10.52,3.365v1.134h5.929V303.6h1.431V299.59Zm7.349-.549v-6.306h-1.43v2.277h-1.844v1.145h1.844v2.884Zm-2.472-1.557a3.523,3.523,0,0,1-2.518-3.3v-1h-1.476v1.064a3.7,3.7,0,0,1-2.622,3.5l.847,1.134a4.3,4.3,0,0,0,2.53-2.484,4.886,4.886,0,0,0,2.414,2.2Zm-10.53,3.011a4.4,4.4,0,0,1-2.656-4.052h2.129v-1.134h-5.78v1.134h2.163a4.713,4.713,0,0,1-2.724,4.3l.882,1.041a5.127,5.127,0,0,0,2.61-3,5.505,5.505,0,0,0,2.633,2.759Zm1.866-7.76H357.3v10.851h1.419v-5.448h1.568v-1.167h-1.568ZM351.8,294.52h3.262v-1.133H351.8Zm-4.635,4.2h1.419V297.3h-1.419Zm-4.693,1.569a5.042,5.042,0,0,1-2.678-4.728v-.549H341.9v-1.167h-5.769v1.167H338.3v.562a5.231,5.231,0,0,1-2.747,4.933l.881,1.053a5.4,5.4,0,0,0,2.622-3.17,6.138,6.138,0,0,0,2.61,2.941Zm2.3,3.3V292.734h-1.43v3.742h-1.821v1.2h1.821v5.906ZM334.1,292.734h-1.409v10.851H334.1Zm-2.506,6.5a21.334,21.334,0,0,1-4.441.423v-5.837h-1.409v7.051h1a25.286,25.286,0,0,0,5.036-.492Zm-12.362-5.2h-4.4v6.72h4.4Zm4.5,9.546V292.734h-1.361V297h-.87v-4.075h-1.34v10.153h1.34v-4.934h.87v5.438Zm-5.838-3.915h-1.717v-4.533h1.717Z" transform="translate(-314.839 -292.734)" fill="#e37e28"/>
      </g>
      <rect id="사각형_532" data-name="사각형 532" width="115.412" height="27.389" transform="translate(531.497 15.078)" fill="#fff5eb"/>
      <g id="그룹_5612" data-name="그룹 5612" transform="translate(550.704 23.29)">
        <path id="패스_3642" data-name="패스 3642" d="M486.348,295.1c0,.47-.5.928-1.3.928-.824,0-1.316-.458-1.316-.928s.491-.961,1.316-.961c.8,0,1.3.481,1.3.961m-.194,5.494v-2.025c.835-.058,1.648-.137,2.381-.252l-.081-1.053a63.326,63.326,0,0,1-6.913.331l.2,1.122c.812,0,1.877-.011,3-.056V300.6Zm4.762,2.7v-1.133h-6.536v-2.072h-1.43v3.2Zm-3.663-3.274h2.06v1.1h1.43v-8.389h-1.43v6.273h-2.06Zm.5-4.922c0-1.167-1.134-2.025-2.713-2.025s-2.747.858-2.747,2c0,1.19,1.167,2.014,2.747,2.014s2.713-.824,2.713-1.992m-15.612-1.786v1.145h5.929a18,18,0,0,1-.287,3.492h-6.845v1.122h4.166v4.51h1.419v-4.51h4.212v-1.122h-1.6a25.662,25.662,0,0,0,.356-4.636Zm-5.861,4.693h1.557v2.6h1.43v-7.875h-1.43v1.384h-1.546l.035,1.2h1.511v1.488h-1.523ZM469.5,303.3v-1.122h-6.054v-2.3H462V303.3Zm-9.157-7.062a2.86,2.86,0,1,0,2.862-2.713,2.647,2.647,0,0,0-2.862,2.713m1.454-.012a1.411,1.411,0,1,1,1.407,1.511,1.386,1.386,0,0,1-1.407-1.511m-10.52,3.365v1.134h5.929V303.6h1.431V299.59Zm7.348-.549v-6.306H457.2v2.277h-1.844v1.145H457.2v2.884Zm-2.472-1.557a3.523,3.523,0,0,1-2.518-3.3v-1h-1.476v1.064a3.7,3.7,0,0,1-2.622,3.5l.847,1.134a4.3,4.3,0,0,0,2.53-2.484,4.886,4.886,0,0,0,2.415,2.2ZM444.593,303.6v-3.857H448.8v-1.122h-9.8v1.122h4.156V303.6Zm3.812-7.039c-1.74-.16-3.731-1.408-3.731-3.034v-.549h-1.511v.549c0,1.625-1.831,2.828-3.709,3.034l.606,1.168c1.648-.264,3.377-1.282,3.858-2.485a5.3,5.3,0,0,0,3.869,2.472Zm-12.476,2.163h1.419V297.3h-1.419Zm-2.736,2.678c0-1.351-1.384-2.185-3.788-2.185s-3.777.835-3.777,2.185,1.384,2.175,3.777,2.175,3.788-.835,3.788-2.175m-8.481-6.741h2.163a3.652,3.652,0,0,1-2.61,3.239l.847,1.111a4.3,4.3,0,0,0,2.518-2.439,4.593,4.593,0,0,0,2.347,2.141l.778-1.122a3.365,3.365,0,0,1-2.393-2.93h2.06v-1.168h-5.711Zm9.877,1.842v-1.168h-1.545v-2.6h-1.431v6.341h1.431V296.5Zm-5.185,3.858c1.511,0,2.358.377,2.358,1.041s-.847,1.042-2.358,1.042c-1.477,0-2.335-.389-2.335-1.042s.858-1.041,2.335-1.041m-6.868-2.553v-4.566h-1.431v1.236h-4.589v-1.225H415.1V297.8ZM419.5,303.6v-3.571h4.212V298.9h-9.8v1.122h4.166V303.6Zm1.6-6.924h-4.591v-1.087h4.591Z" transform="translate(-413.917 -292.734)" fill="#e37e28"/>
      </g>
      <rect id="사각형_533" data-name="사각형 533" width="115.412" height="27.389" transform="translate(659.76 15.078)" fill="#fff5eb"/>
      <g id="그룹_5613" data-name="그룹 5613" transform="translate(707.673 23.288)">
        <path id="패스_3643" data-name="패스 3643" d="M545.5,295.1c0,.469-.5.926-1.3.926-.824,0-1.316-.458-1.316-.926s.492-.962,1.316-.962c.8,0,1.3.481,1.3.962m-.194,5.494v-2.025c.835-.058,1.648-.139,2.381-.253l-.081-1.052a63.341,63.341,0,0,1-6.913.331l.2,1.122c.812,0,1.877-.012,3-.058V300.6Zm4.761,2.7v-1.132h-6.536v-2.072H542.1v3.2Zm-3.663-3.274h2.06v1.1h1.43v-8.391h-1.43v6.272h-2.06Zm.5-4.922c0-1.167-1.134-2.027-2.713-2.027s-2.747.859-2.747,2c0,1.19,1.167,2.015,2.747,2.015s2.713-.824,2.713-1.992m-9.271,3.742h1.419v-6.112h-1.419Zm1.419.572h-7.142v4.029h7.142Zm-1.419,2.93h-4.293v-1.831h4.293Zm-7.155-6.41a2.892,2.892,0,0,0,5.735,0,2.879,2.879,0,0,0-5.735,0m1.363-.011a1.419,1.419,0,0,1,1.5-1.43,1.4,1.4,0,0,1,1.511,1.43,1.439,1.439,0,0,1-1.511,1.442,1.4,1.4,0,0,1-1.5-1.442" transform="translate(-530.484 -292.733)" fill="#e37e28"/>
      </g>
      <rect id="사각형_534" data-name="사각형 534" width="115.126" height="28.487" transform="translate(660.044 183.677)" fill="#ededed"/>
      <g id="그룹_5614" data-name="그룹 5614" transform="translate(669.624 192.54)">
        <path id="패스_3644" data-name="패스 3644" d="M596.1,428.941a7.019,7.019,0,0,0,2.094-4.968v-.2a7.036,7.036,0,0,0-2.094-4.968h-.835a7.839,7.839,0,0,1,1.957,4.956v.3a7.475,7.475,0,0,1-1.957,4.876Zm-7.771-9.776a2.642,2.642,0,0,0-2.885,2.576,2.528,2.528,0,0,0,2.427,2.507v1.717c-1.11.034-2.175.046-2.987.046l.148.812c.7,0,2.279-.034,3.469-.092,1.293-.069,2.724-.183,3.559-.275l-.079-.755c-.7.092-1.981.183-3.182.229v-1.682a2.537,2.537,0,0,0,2.427-2.519,2.637,2.637,0,0,0-2.9-2.564m0,.78a1.8,1.8,0,1,1-1.98,1.8,1.784,1.784,0,0,1,1.98-1.8m5.265-1.523h-.916v10.645h.916Zm-10.385,10.645V418.421h-.917v4.35h-1.282v-4.1h-.9v9.856h.9v-4.98h1.282v5.517Zm-3.9-4.545a2.333,2.333,0,0,0-4.647,0,2.154,2.154,0,0,0,2.323,2.118,2.109,2.109,0,0,0,2.324-2.118m-.893,0a1.334,1.334,0,0,1-1.432,1.352,1.353,1.353,0,1,1,1.432-1.352m1.087-3.513h-5.3v.768h5.3Zm-1.143-1.775h-2.907v.8h2.907Zm-8.8,9.708h.835l2.861-10.13h-.835Zm-1.488.125V418.421h-.9v4.235h-1.407v-3.983h-.893v9.844h.893v-5.082h1.407v5.631Zm-3.927-3.948a17.506,17.506,0,0,1-3.651.331v-5.86h-.928v6.662h.813a20.2,20.2,0,0,0,3.869-.354Zm-14.747.423v.768h6.433v2.827h.928v-3.594H553.63v-1.98h4.35v-.778h-1.59a16.2,16.2,0,0,0,.377-3.777h-7.222v.766h6.273a13.287,13.287,0,0,1-.344,3.011h-7.109v.778H552.7v1.98Zm-1.6,3.4a7.774,7.774,0,0,1-1.957-4.957v-.3a7.411,7.411,0,0,1,1.957-4.876h-.835a7.021,7.021,0,0,0-2.106,4.968v.2a7.049,7.049,0,0,0,2.106,4.968Zm-4.8-1.9c0-1.259-1.282-2.037-3.571-2.037s-3.56.778-3.56,2.037,1.282,2.027,3.56,2.027,3.571-.778,3.571-2.027M534.5,420.08h2.427c0,.207,0,.459-.012.574a4.192,4.192,0,0,1-2.747,3.376l.5.745A5.367,5.367,0,0,0,537.38,422a5.289,5.289,0,0,0,2.689,2.391l.55-.743a3.707,3.707,0,0,1-2.747-2.988c-.011-.125-.011-.366-.011-.584h2.392V419.3H534.5Zm4.922,5.7c1.659,0,2.633.459,2.633,1.259s-.974,1.248-2.633,1.248c-1.637,0-2.622-.458-2.622-1.248s.984-1.259,2.622-1.259m2.564-3.822v3.068h.926v-6.605h-.926v2.759H539.84v.778ZM523.5,419.543v.778h4.636a18.662,18.662,0,0,1-.333,3.983l.882.114a25.771,25.771,0,0,0,.377-4.876Zm6.3,6.056a35.615,35.615,0,0,1-3.571.308v-3.33H525.3v3.353c-.8.023-1.752.012-2.335.012l.137.812c.893,0,2.071-.034,3.147-.079,1.03-.058,2.6-.172,3.629-.31Zm3.342-1.946v-.791h-1.728v-4.441h-.928v10.645h.928v-5.413Zm-14.4-2.759c0-1.213-1.178-1.979-2.827-1.979s-2.851.766-2.851,1.967c0,1.236,1.2,1.958,2.851,1.958s2.827-.733,2.827-1.946m2.541,5.711v-8.183h-.926v6.3h-2.233v.733h2.233V426.6Zm.217,2.2v-.778h-6.683v-2.3h-.928v3.08Zm-3.674-7.91c0,.72-.766,1.19-1.911,1.19s-1.923-.47-1.923-1.19.778-1.213,1.923-1.213,1.911.493,1.911,1.213m-1.374,5.276v-1.992c1.122-.069,2.3-.148,2.976-.24l-.079-.72c-1.03.113-2.187.217-3.377.263-1.155.046-2.449.058-3.548.046l.149.79c.881,0,1.946-.035,2.953-.081v1.934Zm-5.784-7.748h-.927V424.5h.927Zm.011,6.639h-6.891v3.858h6.891Zm-.926,3.09h-5.036v-2.324h5.036Zm-4.762-9.134a2.593,2.593,0,0,0-2.759,2.564,2.768,2.768,0,0,0,5.517-.011,2.59,2.59,0,0,0-2.758-2.553m0,.755a1.751,1.751,0,0,1,1.865,1.808,1.731,1.731,0,0,1-1.865,1.773,1.749,1.749,0,0,1-1.854-1.784,1.772,1.772,0,0,1,1.854-1.8" transform="translate(-502.228 -418.421)" fill="#444443"/>
      </g>
    </g>
  </g>
</svg>
