<?xml version="1.0" encoding="utf-8"?>
<!-- Generator: Adobe Illustrator 25.1.0, SVG Export Plug-In . SVG Version: 6.00 Build 0)  -->
<svg version="1.1" id="레이어_1" xmlns="http://www.w3.org/2000/svg" xmlns:xlink="http://www.w3.org/1999/xlink" x="0px"
	 y="0px" viewBox="0 0 920 483" style="enable-background:new 0 0 920 483;" xml:space="preserve">
<style type="text/css">
	.st0{enable-background:new    ;}
	.st1{fill:#E37E28;}
	.st2{fill:none;stroke:#D6D6D6;}
	.st3{fill:none;stroke:#707070;}
	.st4{fill:none;stroke:#CBCBCB;}
	.st5{fill:#555555;}
</style>
<g id="그룹_5624" transform="translate(-740 -2529.25)">
	<g class="st0">
		<path class="st1" d="M753.4,2543.5c0,3.1-2.6,5.3-6,5.3s-6-2.2-6-5.3c0-3.1,2.6-5.3,6-5.3S753.4,2540.4,753.4,2543.5z
			 M744.4,2543.5c0,1.7,1.2,2.7,2.9,2.7c1.7,0,2.9-1,2.9-2.7c0-1.7-1.2-2.7-2.9-2.7C745.7,2540.9,744.4,2541.9,744.4,2543.5z
			 M759.4,2550.7v8.3h-14.7v-8.3H759.4z M747.8,2553.2v3.4h8.5v-3.4H747.8z M759.4,2537.2v12.5h-3.2v-12.5H759.4z"/>
		<path class="st1" d="M775.3,2549.8c-2.4-0.8-4.1-2.4-5.1-4.3c-1,2.2-2.8,3.9-5.3,4.7l-1.6-2.5c3.6-1.2,5.2-4,5.3-6.7H764v-2.5h12
			v2.5h-4.4c0,2.6,1.7,5.2,5.2,6.3L775.3,2549.8z M766.4,2551.5h15v7.8h-3.2v-5.3h-11.9V2551.5z M781.5,2537.2v13.3h-3.2v-13.3
			H781.5z"/>
		<path class="st1" d="M804.3,2556.4v2.5h-16.4v-6.6h3.1v-3c-1.9,0.1-3.8,0.1-5.4,0.1l-0.4-2.5c4,0,9.4-0.1,14.1-0.7l0.2,2.3
			c-1.7,0.3-3.5,0.5-5.3,0.6v4.2h-3v3H804.3z M786.7,2541.9c0-2.4,2.3-4,5.5-4c3.2,0,5.5,1.6,5.5,4c0,2.4-2.3,3.9-5.5,3.9
			C789,2545.8,786.7,2544.3,786.7,2541.9z M789.7,2541.9c0,1.1,1,1.6,2.5,1.6c1.5,0,2.5-0.6,2.5-1.6s-1-1.7-2.5-1.7
			C790.7,2540.3,789.7,2540.8,789.7,2541.9z M800.6,2550v-12.8h3.2v16.8h-3.2v-1.8h-4.2v-2.2H800.6z"/>
		<path class="st1" d="M832.7,2548.1v2.5h-20v-2.5h8.4v-1.8h-5.8v-8.5h3.1v1.9h8.6v-1.9h3.1v8.5h-5.9v1.8H832.7z M814.9,2552.2h15.4
			v7.2h-3.2v-4.7h-12.2V2552.2z M818.4,2543.8h8.6v-1.7h-8.6V2543.8z"/>
		<path class="st1" d="M839.2,2551.6c3.4,0,6.1-0.2,9.3-0.7l0.3,2.6c-3.6,0.6-6.8,0.8-10.8,0.8h-2v-9.1h7.2v-3.5H836v-2.5h10.4v8.5
			h-7.2V2551.6z M853.2,2537.2v22.2H850v-22.2H853.2z"/>
		<path class="st1" d="M876.9,2554.1h-8.4v5.3h-3.2v-5.3h-8.4v-2.5h20V2554.1z M875.8,2542h-18v-2.5h7.4v-2.3h3.2v2.3h7.4V2542z
			 M866.9,2542.8c4.7,0,7.6,1.4,7.6,3.8c0,2.4-2.9,3.8-7.6,3.8c-4.7,0-7.6-1.4-7.6-3.8C859.3,2544.2,862.1,2542.8,866.9,2542.8z
			 M866.9,2545.2c-2.9,0-4.3,0.4-4.3,1.5c0,1,1.4,1.4,4.3,1.4c2.9,0,4.3-0.5,4.3-1.4C871.2,2545.6,869.7,2545.2,866.9,2545.2z"/>
		<path class="st1" d="M888.4,2549.4c-1.8-0.7-3.1-2-3.9-3.6c-0.8,1.9-2.2,3.5-4.2,4.3l-1.7-2.4c3.1-1.3,4.3-4.1,4.3-6.6v-2.6h3v2.6
			c0,2.4,1.2,4.8,4.1,5.9L888.4,2549.4z M897.9,2555.2c0,2.6-3,4.1-7.6,4.1c-4.7,0-7.6-1.5-7.6-4.1c0-2.6,3-4.1,7.6-4.1
			C894.9,2551.1,897.9,2552.6,897.9,2555.2z M894.7,2555.2c0-1.2-1.6-1.8-4.4-1.8c-2.9,0-4.5,0.6-4.5,1.8c0,1.2,1.6,1.8,4.5,1.8
			C893.1,2556.9,894.7,2556.4,894.7,2555.2z M893.1,2550h-3v-12.4h3v5h1.7v-5.4h3v13.5h-3v-5.6h-1.7V2550z"/>
		<path class="st1" d="M915,2543.2c0,3.6,1.8,7.4,5.5,9l-1.7,2.5c-2.6-1.1-4.3-3.3-5.3-5.9c-1,2.9-2.8,5.3-5.4,6.5l-1.8-2.5
			c3.7-1.7,5.5-5.7,5.5-9.5v-1.2h-4.6v-2.6h12.4v2.6H915V2543.2z M924.8,2537.2v22.1h-3.2v-22.1H924.8z"/>
		<path class="st1" d="M947.6,2556.4v2.5h-16.4v-6.6h3.1v-3c-1.9,0.1-3.8,0.1-5.4,0.1l-0.4-2.5c4,0,9.4-0.1,14.1-0.7l0.2,2.3
			c-1.7,0.3-3.5,0.5-5.3,0.6v4.2h-3v3H947.6z M930.1,2541.9c0-2.4,2.3-4,5.5-4c3.2,0,5.5,1.6,5.5,4c0,2.4-2.3,3.9-5.5,3.9
			C932.4,2545.8,930.1,2544.3,930.1,2541.9z M933.1,2541.9c0,1.1,1,1.6,2.5,1.6c1.5,0,2.5-0.6,2.5-1.6s-1-1.7-2.5-1.7
			C934.1,2540.3,933.1,2540.8,933.1,2541.9z M944,2550v-12.8h3.2v16.8H944v-1.8h-4.2v-2.2H944z"/>
		<path class="st1" d="M963.1,2543.1c0,3.7,1.1,7.4,4.3,9.3l-1.8,2.3c-1.9-1.2-3.2-3.1-3.9-5.4c-0.8,2.5-2.1,4.7-4.1,5.9l-1.9-2.3
			c3.2-2,4.4-6,4.4-9.8v-1.1h-3.6v-2.6h9.8v2.6h-3.2V2543.1z M967.6,2537.6h3v20.7h-3v-11h-2.8v-2.6h2.8V2537.6z M975.1,2537.2v22.1
			h-3v-22.1H975.1z"/>
		<path class="st1" d="M998.2,2554.2v2.6h-20v-2.6h8.4v-4.6h-6.1v-10.9h15.4v2.5h-12.2v5.8h12.4v2.5h-6.3v4.6H998.2z"/>
	</g>
	<line id="선_401" class="st2" x1="1336.2" y1="2658.5" x2="1336.2" y2="2766.5"/>
	<line id="선_407" class="st2" x1="1336.2" y1="2848.8" x2="1336.2" y2="3011.5"/>
	<line id="선_403" class="st2" x1="932.5" y1="2594.2" x2="932.5" y2="3011.5"/>
	<path id="패스_1677" class="st3" d="M740,2594.2h920"/>
	<path id="패스_1682" class="st3" d="M740,3011.8h920"/>
	<path id="패스_1678" class="st4" d="M740,2658.8h920"/>
	<path id="패스_1679" class="st4" d="M740,2766.2h920"/>
	<path id="패스_3433" class="st4" d="M740,2929.8h920"/>
	<path id="패스_1680" class="st4" d="M740,2848.8h920"/>
	<g class="st0">
		<path d="M1289.9,2628.4c-1.6-0.6-2.7-1.7-3.3-3c-0.6,1.6-1.8,2.8-3.5,3.4l-0.9-1.3c2.3-0.8,3.5-2.8,3.5-4.8v-1.4h1.7v1.6
			c0,1.9,1.2,3.6,3.4,4.3L1289.9,2628.4z M1293.8,2632.3c0,1.7-1.8,2.7-4.8,2.7c-3,0-4.8-1-4.8-2.7c0-1.7,1.8-2.7,4.8-2.7
			C1292,2629.6,1293.8,2630.6,1293.8,2632.3z M1292.2,2632.3c0-0.9-1.2-1.4-3.2-1.4s-3.2,0.5-3.2,1.4c0,0.9,1.2,1.4,3.2,1.4
			S1292.2,2633.2,1292.2,2632.3z M1295.7,2624.1v1.4h-2v3.7h-1.6v-8.7h1.6v3.6H1295.7z"/>
		<path d="M1301.5,2624.4c0,2.3,0.9,4.8,2.8,6l-0.9,1.3c-1.3-0.8-2.2-2.2-2.7-3.8c-0.5,1.8-1.5,3.3-2.8,4.1l-1-1.2
			c2-1.2,3-3.8,3-6.3v-2.6h1.6V2624.4z M1304.9,2620.8h1.6v13.5h-1.6v-7.4h-2.1v-1.3h2.1V2620.8z M1309.4,2620.5v14.5h-1.6v-14.5
			H1309.4z"/>
	</g>
	<g class="st0">
		<path d="M774.2,2628.9h-5.8v6h-1.7v-6h-5.7v-1.4h9.4c0.4-2,0.4-3.5,0.4-4.9h-8.2v-1.3h9.9v1.3c0,1.4,0,2.9-0.4,4.9h2V2628.9z"/>
		<path d="M788.9,2628.1v1.3h-5.6v2.6h-1.6v-2.6h-5.9v-1.3H788.9z M779,2633.4h8.4v1.3h-10.1v-4h1.6V2633.4z M787.2,2626.8h-9.7
			v-5.8h1.6v1.7h6.4v-1.7h1.6V2626.8z M785.6,2623.9h-6.4v1.6h6.4V2623.9z"/>
	</g>
	<g class="st0">
		<path d="M773.6,2714.2h-5.7v5h-1.6v-5h-5.7v-1.3h13.1L773.6,2714.2z M761.2,2710.6c2.8-0.4,4.8-2,4.9-3.6h-4.4v-1.3h10.6v1.3H768
			c0.1,1.7,2.1,3.3,4.9,3.6l-0.6,1.3c-2.4-0.4-4.4-1.5-5.2-3.1c-0.9,1.6-2.8,2.8-5.2,3.1L761.2,2710.6z"/>
		<path d="M782.5,2706.3c0,4.2-1.6,7.9-6.5,10.3l-0.9-1.3c3.8-1.9,5.4-4.4,5.7-7.7h-5v-1.3H782.5z M787.2,2704.8v14.5h-1.7v-7.4
			h-3.1v-1.4h3.1v-5.7H787.2z"/>
		<path d="M801.1,2711.7h-6.9v-6h6.9V2711.7z M801.6,2715.2c0.1,1.2,2,2.5,4.7,2.8l-0.5,1.2c-2.3-0.3-4.1-1.2-5-2.4
			c-0.9,1.3-2.7,2.2-5,2.4l-0.5-1.2c2.7-0.3,4.6-1.5,4.7-2.8h-4.1v-1.3h4.1v-1.3h1.7v1.3h4.1v1.3H801.6z M799.5,2707h-3.6v3.4h3.6
			V2707z M805.5,2713h-1.7v-8.3h1.7V2713z"/>
		<path d="M818.2,2712.6c-1.3-0.5-2.2-1.5-2.7-2.6c-0.5,1.3-1.5,2.4-2.9,3.1l-0.9-1.3c1.9-0.9,2.9-2.7,2.9-4.3v-1.8h1.6v1.8
			c0,1.6,0.9,3.2,2.8,3.9L818.2,2712.6z M824.2,2716.6c0,1.6-1.9,2.6-4.9,2.6c-3,0-4.9-1-4.9-2.6c0-1.7,1.9-2.7,4.9-2.7
			C822.3,2713.9,824.2,2714.9,824.2,2716.6z M822.5,2716.6c0-0.9-1.2-1.4-3.2-1.4c-2,0-3.2,0.5-3.2,1.4c0,0.9,1.2,1.4,3.2,1.4
			C821.3,2718,822.5,2717.5,822.5,2716.6z M821,2713.2h-1.6v-8.1h1.6v3.4h1.5v-3.7h1.6v8.9h-1.6v-3.8H821V2713.2z"/>
		<path d="M835.6,2712.5c-3.1,0.5-6.5,0.6-9,0.6l-0.2-1.2c1.1,0,2.4,0,3.7,0v-0.8c-1.6-0.2-2.6-0.8-2.6-1.9c0-1.2,1.3-1.9,3.4-1.9
			s3.4,0.7,3.4,1.9c0,1-1,1.7-2.6,1.9v0.8c1.2-0.1,2.5-0.2,3.7-0.3L835.6,2712.5z M835.1,2706.9h-8.2v-1.1h3.3v-1.2h1.7v1.2h3.3
			V2706.9z M830,2718h8.4v1.1h-10v-3.2h7.9v-0.9h-7.9v-1.1h9.5v3.1H830V2718z M831,2710c1.2,0,1.9-0.3,1.9-0.9
			c0-0.5-0.7-0.8-1.9-0.8c-1.2,0-1.9,0.3-1.9,0.8C829.1,2709.7,829.8,2710,831,2710z M839.9,2708.3v1.4h-2v3.6h-1.6v-8.5h1.6v3.6
			H839.9z"/>
		<path d="M845.3,2713c-2.2,0-3.8-1.5-3.8-3.6c0-2.1,1.7-3.6,3.8-3.6c2.2,0,3.9,1.5,3.9,3.6C849.2,2711.5,847.5,2713,845.3,2713z
			 M845.3,2711.5c1.3,0,2.2-0.9,2.2-2.2c0-1.3-1-2.2-2.2-2.2s-2.2,0.9-2.2,2.2C843.1,2710.7,844.1,2711.5,845.3,2711.5z
			 M845.1,2717.6h8.1v1.3h-9.7v-4.7h1.7V2717.6z M854.6,2709.1v1.4h-2v4.9h-1.6v-10.6h1.6v4.3H854.6z"/>
		<path d="M863.8,2712.9c-1.6-0.6-2.8-1.7-3.4-3.1c-0.6,1.6-1.9,2.9-3.6,3.5l-0.8-1.3c2.2-0.8,3.5-2.7,3.5-4.7v-0.2h-3.1v-1.3h7.7
			v1.3h-3v0.2c0,1.8,1.2,3.6,3.4,4.4L863.8,2712.9z M868.1,2716.5c0,1.7-1.9,2.7-4.9,2.7c-3,0-4.9-1-4.9-2.7c0-1.7,1.9-2.7,4.9-2.7
			C866.2,2713.8,868.1,2714.8,868.1,2716.5z M866.4,2716.5c0-0.9-1.2-1.5-3.2-1.5c-2.1,0-3.2,0.5-3.2,1.5s1.2,1.5,3.2,1.5
			C865.2,2718,866.4,2717.5,866.4,2716.5z M866.4,2708.4v-3.6h1.6v8.6h-1.6v-3.6h-2.6v-1.3H866.4z"/>
	</g>
	<g class="st0">
		<path class="st5" d="M966.1,2687.3c0-1.3,0.9-2.2,2-2.2c1.1,0,2,0.9,2,2.2c0,1.3-0.9,2.1-2,2.1
			C967,2689.4,966.1,2688.6,966.1,2687.3z"/>
		<path class="st5" d="M982.8,2680.4c0,4.1-1.9,7.8-6.7,10.1l-0.7-1.1c3.9-1.8,5.8-4.6,6.1-8h-5.4v-1.1H982.8z M987,2678.8v14.4
			h-1.3v-14.4H987z"/>
		<path class="st5" d="M997.1,2686.7v1.8h4.2v4.7h-1.3v-3.6h-8.6v-1.1h4.4v-1.8h-5.8v-1.1h13v1.1H997.1z M1001.7,2684.5
			c-2.2-0.4-4.3-1.5-5.2-3.1c-0.9,1.6-3,2.8-5.3,3.1l-0.5-1c2.6-0.4,5.1-1.9,5.1-3.8v-0.6h1.3v0.6c0,1.8,2.5,3.4,5.1,3.8
			L1001.7,2684.5z"/>
		<path class="st5" d="M1009.5,2682.7c0,2.5,1.6,5.1,3.6,6.1l-0.8,1c-1.5-0.8-2.8-2.5-3.5-4.5c-0.6,2.1-2,3.9-3.6,4.8l-0.8-1.1
			c2.1-1.1,3.7-3.8,3.7-6.4v-2.6h1.3V2682.7z M1018.1,2685.7h-2.4v7.4h-1.3v-14.3h1.3v5.8h2.4V2685.7z"/>
		<path class="st5" d="M1028.1,2683.2c0,2.4,1.7,4.9,3.8,5.8l-0.7,1.1c-1.7-0.8-3.1-2.4-3.8-4.4c-0.7,2.1-2.1,3.9-3.7,4.7l-0.8-1.1
			c2.1-1,3.8-3.7,3.8-6.2v-1.8h-3.3v-1.1h8v1.1h-3.4V2683.2z M1034.7,2678.8v14.3h-1.3v-14.3H1034.7z"/>
		<path class="st5" d="M1041.8,2686.5c-1.4,0.1-2.8,0.1-4,0.1l-0.2-1.1c2.7,0,6.2,0,9.3-0.4l0.1,0.9c-1.3,0.2-2.6,0.3-3.9,0.4v2.8
			h-1.3V2686.5z M1038.7,2681.9c0-1.5,1.4-2.5,3.5-2.5c2.1,0,3.5,1,3.5,2.5c0,1.5-1.4,2.5-3.5,2.5
			C1040.2,2684.4,1038.7,2683.4,1038.7,2681.9z M1049.8,2691.8v1.1h-10.1v-4.2h1.3v3.1H1049.8z M1040,2681.9c0,0.9,0.9,1.5,2.3,1.5
			c1.4,0,2.3-0.6,2.3-1.5c0-0.9-0.9-1.5-2.3-1.5C1040.9,2680.4,1040,2681,1040,2681.9z M1048.1,2687.3v-8.5h1.3v10.9h-1.3v-1.5h-2.9
			v-1H1048.1z"/>
	</g>
	<g class="st0">
		<path class="st5" d="M966.1,2713.3c0-1.3,0.9-2.2,2-2.2c1.1,0,2,0.9,2,2.2c0,1.3-0.9,2.1-2,2.1
			C967,2715.4,966.1,2714.6,966.1,2713.3z"/>
		<path class="st5" d="M988.2,2714.1h-5.9v5.1H981v-5.1h-5.8v-1.1h13L988.2,2714.1z M976,2710.8c2.5-0.4,5-2,5-3.9v-0.1h-4.5v-1.1
			h10.5v1.1h-4.5v0.1c0,1.9,2.5,3.5,5,3.9l-0.5,1c-2.2-0.4-4.4-1.6-5.2-3.3c-0.9,1.7-3,2.9-5.2,3.3L976,2710.8z"/>
		<path class="st5" d="M996.8,2712.4c-1.6,0.3-3,0.4-5.3,0.4h-0.9v-6.9h5.5v1.1h-4.3v1.8h4.1v1h-4.1v2c2,0,3.3-0.1,4.8-0.4
			L996.8,2712.4z M992.4,2714.3h9.7v4.9h-1.3v-3.8h-8.3V2714.3z M1002,2704.8v8.7h-1.3v-3.9h-1.9v3.8h-1.2v-8.3h1.2v3.5h1.9v-3.7
			H1002z"/>
		<path class="st5" d="M1009.5,2709.2c0,2.3,1.6,4.8,3.7,5.8l-0.8,1.1c-1.6-0.8-2.9-2.5-3.6-4.4c-0.7,2.1-2,3.9-3.7,4.8l-0.8-1
			c2-1,3.8-3.7,3.8-6.2v-1.8h-3.3v-1.1h7.8v1.1h-3.2V2709.2z M1018.1,2711.7h-2.4v7.5h-1.3v-14.3h1.3v5.8h2.4V2711.7z"/>
		<path class="st5" d="M1032.4,2710.9v1.1h-13v-1.1h9.7c0.4-1.8,0.4-3.1,0.4-4.2h-8.4v-1.1h9.7v1.1c0,1.1,0,2.4-0.4,4.2H1032.4z
			 M1021,2713.9h9.8v5.1h-9.8V2713.9z M1022.2,2717.9h7.2v-3h-7.2V2717.9z"/>
		<path class="st5" d="M1039.5,2714.6c1.9,0,3.3-0.1,4.8-0.4l0.1,1.1c-1.7,0.4-3.2,0.4-5.3,0.4h-0.9v-9.1h5.3v1.1h-4V2714.6z
			 M1049.9,2704.8v14.4h-1.3v-7.5h-2v6.8h-1.2v-13.3h1.2v5.4h2v-5.8H1049.9z"/>
		<path class="st5" d="M1059.5,2712.2v1.3h4.2v3.1h-8.4v1.4h8.9v1H1054v-3.3h8.4v-1.2h-8.5v-1h4.3v-1.3h-5.8v-1h12.9v1H1059.5z
			 M1053.1,2709.6c2.7-0.2,4.9-1.1,5.1-2.5h-4.4v-1h4.5v-1.4h1.3v1.4h4.5v1h-4.4c0.2,1.4,2.4,2.3,5.1,2.5l-0.4,1
			c-2.4-0.2-4.5-0.9-5.4-2.3c-0.9,1.3-3,2.1-5.4,2.3L1053.1,2709.6z"/>
		<path class="st5" d="M1078.2,2711.6h-6.7v-5.9h6.7V2711.6z M1078.6,2715.1c0,1.4,2.2,2.8,4.7,3.1l-0.4,1c-2.2-0.3-4.1-1.3-4.9-2.6
			c-0.9,1.4-2.8,2.3-5,2.6l-0.4-1c2.4-0.3,4.7-1.6,4.8-3.1h-4.2v-1h4.2v-1.4h1.3v1.4h4.2v1H1078.6z M1076.9,2706.8h-4.1v3.8h4.1
			V2706.8z M1082.5,2713.1h-1.3v-8.2h1.3V2713.1z"/>
		<path class="st5" d="M1096.6,2705.9c0,3.7-2.6,6.5-6.9,7.8l-0.5-1.1c3.4-1.1,5.7-3.1,6-5.7h-5.2v-1.1H1096.6z M1101.1,2717.8v1.1
			h-9.7v-4.4h1.3v3.4H1101.1z M1100.8,2715.3h-1.3v-10.4h1.3V2715.3z"/>
		<path class="st5" d="M1116.7,2710.7v1.1h-13v-1.1h9.7c0.4-1.8,0.4-3,0.4-4.1h-8.4v-1.1h9.7v1c0,1.1,0,2.4-0.4,4.2H1116.7z
			 M1113.8,2713.1h1.3v5.9h-9.7v-5.9h1.3v1.9h7.1V2713.1z M1113.8,2716h-7.1v2h7.1V2716z"/>
		<path class="st5" d="M1125.8,2706.4c0,4.1-1.9,7.8-6.5,10.1l-0.7-1c3.7-1.8,5.6-4.6,5.9-8h-5.3v-1.1H1125.8z M1131.8,2711.7h-2.3
			v7.4h-1.3v-14.4h1.3v5.8h2.3V2711.7z"/>
		<path class="st5" d="M1141.2,2705.2h1.2v13.2h-1.2v-5h-2.6v-1.1h2.6v-2.5h-2.4c-0.7,2.4-2.2,4.6-4.9,6.2l-0.8-0.9
			c3.1-1.8,4.6-4.4,4.8-7.4h-4.2v-1.1h5.5c0,0.7-0.1,1.5-0.2,2.2h2.1V2705.2z M1145.4,2704.8v14.3h-1.2v-14.3H1145.4z"/>
		<path class="st5" d="M1152.7,2709.2c0,2.3,1.6,4.8,3.7,5.8l-0.8,1.1c-1.6-0.8-2.9-2.5-3.6-4.4c-0.7,2.1-2,3.9-3.7,4.8l-0.8-1
			c2-1,3.8-3.7,3.8-6.2v-1.8h-3.3v-1.1h7.8v1.1h-3.2V2709.2z M1161.3,2711.7h-2.4v7.5h-1.3v-14.3h1.3v5.8h2.4V2711.7z"/>
		<path class="st5" d="M1175.6,2710.9v1.1h-13v-1.1h9.7c0.4-1.8,0.4-3.1,0.4-4.2h-8.4v-1.1h9.7v1.1c0,1.1,0,2.4-0.4,4.2H1175.6z
			 M1164.2,2713.9h9.8v5.1h-9.8V2713.9z M1165.5,2717.9h7.2v-3h-7.2V2717.9z"/>
		<path class="st5" d="M1182.7,2714.6c1.9,0,3.3-0.1,4.8-0.4l0.1,1.1c-1.7,0.4-3.2,0.4-5.3,0.4h-0.9v-9.1h5.3v1.1h-4V2714.6z
			 M1193.1,2704.8v14.4h-1.3v-7.5h-2v6.8h-1.2v-13.3h1.2v5.4h2v-5.8H1193.1z"/>
		<path class="st5" d="M1202.8,2712.2v1.3h4.2v3.1h-8.4v1.4h8.9v1h-10.1v-3.3h8.4v-1.2h-8.5v-1h4.3v-1.3h-5.8v-1h12.9v1H1202.8z
			 M1196.3,2709.6c2.7-0.2,4.8-1.1,5.1-2.5h-4.4v-1h4.5v-1.4h1.3v1.4h4.5v1h-4.4c0.2,1.4,2.4,2.3,5.1,2.5l-0.4,1
			c-2.4-0.2-4.5-0.9-5.4-2.3c-0.9,1.3-3,2.1-5.4,2.3L1196.3,2709.6z"/>
		<path class="st5" d="M1219,2709.2c0,2.4,1.7,4.9,3.8,5.8l-0.7,1.1c-1.7-0.8-3.1-2.4-3.8-4.4c-0.7,2.1-2.1,3.9-3.7,4.7l-0.8-1.1
			c2.1-1,3.8-3.7,3.8-6.2v-1.8h-3.3v-1.1h8v1.1h-3.4V2709.2z M1225.7,2704.8v14.3h-1.3v-14.3H1225.7z"/>
		<path class="st5" d="M1232.7,2712.5c-1.4,0.1-2.8,0.1-4,0.1l-0.2-1.1c2.7,0,6.2,0,9.3-0.4l0.1,0.9c-1.3,0.2-2.6,0.3-3.9,0.4v2.8
			h-1.3V2712.5z M1229.7,2707.9c0-1.5,1.4-2.5,3.5-2.5s3.5,1,3.5,2.5c0,1.5-1.4,2.5-3.5,2.5S1229.7,2709.4,1229.7,2707.9z
			 M1240.8,2717.8v1.1h-10.1v-4.2h1.3v3.1H1240.8z M1231,2707.9c0,0.9,0.9,1.5,2.3,1.5s2.3-0.6,2.3-1.5c0-0.9-0.9-1.5-2.3-1.5
			S1231,2707,1231,2707.9z M1239.1,2713.3v-8.5h1.3v10.9h-1.3v-1.5h-2.9v-1H1239.1z"/>
	</g>
	<g class="st0">
		<path class="st5" d="M966.1,2739.3c0-1.3,0.9-2.2,2-2.2c1.1,0,2,0.9,2,2.2c0,1.3-0.9,2.1-2,2.1
			C967,2741.4,966.1,2740.6,966.1,2739.3z"/>
		<path class="st5" d="M984.9,2738.3c-1.4,0.2-2.9,0.3-4.4,0.4v5.7h-1.3v-5.7c-1.3,0-2.6,0.1-3.8,0.1l-0.2-1.1c1.9,0,4.1,0,6.3-0.1
			c0.4-2,0.4-3.6,0.4-4.5h-5.5v-1.1h6.7v0.6c0,0.9,0,2.6-0.4,4.9c0.7-0.1,1.4-0.1,2-0.2L984.9,2738.3z M987.1,2730.8v14.3h-1.3
			v-14.3H987.1z"/>
		<path class="st5" d="M998.4,2733.5H990v-1.1h3.6v-1.7h1.3v1.7h3.6V2733.5z M994.2,2739.3c-2,0-3.4-1-3.4-2.5
			c0-1.5,1.4-2.5,3.4-2.5s3.4,1,3.4,2.5C997.6,2738.3,996.2,2739.3,994.2,2739.3z M1001.2,2742.7c0,1.6-1.8,2.5-4.7,2.5
			c-2.9,0-4.7-0.9-4.7-2.5c0-1.6,1.8-2.5,4.7-2.5C999.5,2740.2,1001.2,2741.1,1001.2,2742.7z M994.2,2738.3c1.3,0,2.2-0.6,2.2-1.6
			c0-0.9-0.9-1.5-2.2-1.5s-2.2,0.6-2.2,1.5C992,2737.7,992.9,2738.3,994.2,2738.3z M999.9,2742.7c0-0.9-1.3-1.5-3.4-1.5
			c-2.1,0-3.4,0.5-3.4,1.5s1.3,1.5,3.4,1.5C998.7,2744.2,999.9,2743.6,999.9,2742.7z M1001.1,2734.4v2h2.1v1.1h-2.1v2.6h-1.3v-9.2
			h1.3v2.5h2.1v1.1H1001.1z"/>
		<path class="st5" d="M1009.8,2735.2c0,2.4,1.7,4.9,3.8,5.8l-0.7,1.1c-1.7-0.8-3.1-2.4-3.8-4.4c-0.7,2.1-2.1,3.9-3.7,4.7l-0.8-1.1
			c2.1-1,3.8-3.7,3.8-6.2v-1.8h-3.3v-1.1h8v1.1h-3.4V2735.2z M1016.4,2730.8v14.3h-1.3v-14.3H1016.4z"/>
		<path class="st5" d="M1023.4,2738.5c-1.4,0.1-2.8,0.1-4,0.1l-0.2-1.1c2.7,0,6.2,0,9.3-0.4l0.1,0.9c-1.3,0.2-2.6,0.3-3.9,0.4v2.8
			h-1.3V2738.5z M1020.4,2733.9c0-1.5,1.4-2.5,3.5-2.5c2.1,0,3.5,1,3.5,2.5c0,1.5-1.4,2.5-3.5,2.5
			C1021.9,2736.4,1020.4,2735.4,1020.4,2733.9z M1031.5,2743.8v1.1h-10.1v-4.2h1.3v3.1H1031.5z M1021.7,2733.9
			c0,0.9,0.9,1.5,2.3,1.5c1.4,0,2.3-0.6,2.3-1.5c0-0.9-0.9-1.5-2.3-1.5C1022.6,2732.4,1021.7,2733,1021.7,2733.9z M1029.8,2739.3
			v-8.5h1.3v10.9h-1.3v-1.5h-2.9v-1H1029.8z"/>
		<path class="st5" d="M1047.1,2736.9v1.1h-13v-1.1h9.7c0.4-1.8,0.4-3.1,0.4-4.2h-8.4v-1.1h9.7v1.1c0,1.1,0,2.4-0.4,4.2H1047.1z
			 M1035.7,2739.9h9.8v5.1h-9.8V2739.9z M1037,2743.9h7.2v-3h-7.2V2743.9z"/>
		<path class="st5" d="M1059.8,2737.6h-6.7v-5.9h6.7V2737.6z M1060.3,2741.1c0,1.4,2.2,2.8,4.7,3.1l-0.4,1c-2.2-0.3-4.1-1.3-4.9-2.6
			c-0.9,1.4-2.8,2.3-5,2.6l-0.4-1c2.4-0.3,4.7-1.6,4.8-3.1h-4.2v-1h4.2v-1.4h1.3v1.4h4.2v1H1060.3z M1058.6,2732.8h-4.1v3.8h4.1
			V2732.8z M1064.2,2739.1h-1.3v-8.2h1.3V2739.1z"/>
		<path class="st5" d="M1087.3,2738.4v1.1h-13v-1.1h5.8v-1.4h-4.1v-5.8h9.7v1h-8.4v1.3h8v1h-8v1.4h8.5v1h-4.3v1.4H1087.3z
			 M1085.7,2742.9c0,1.5-1.8,2.3-4.9,2.3c-3.1,0-4.9-0.8-4.9-2.3c0-1.5,1.8-2.3,4.9-2.3C1083.9,2740.6,1085.7,2741.4,1085.7,2742.9z
			 M1084.4,2742.9c0-0.8-1.3-1.3-3.6-1.3c-2.3,0-3.6,0.5-3.6,1.3c0,0.9,1.3,1.3,3.6,1.3C1083.1,2744.2,1084.4,2743.7,1084.4,2742.9z
			"/>
		<path class="st5" d="M1102,2737.4v1.1h-13v-1.1h9.7c0.4-2,0.4-3.4,0.4-4.6v0h-8.4v-1.1h9.7v1.1c0,1.2,0,2.7-0.4,4.6H1102z
			 M1092,2743.8h8.8v1.1h-10.1v-4.7h1.3V2743.8z"/>
		<path class="st5" d="M1115.5,2730.8v14.4h-1.3v-8h-3.4v4.4h-6.6v-9.6h1.3v3.7h4v-3.7h1.3v4.2h3.4v-5.3H1115.5z M1109.6,2736.7h-4
			v3.8h4V2736.7z"/>
		<path class="st5" d="M1131.5,2742.2v1.1h-13v-1.1H1131.5z M1130.2,2739.1c-2.2-0.5-4.4-2-5.3-4.1c-0.9,2.1-3.2,3.6-5.3,4.1
			l-0.6-1.1c2.5-0.5,5.2-2.7,5.2-5.1v-1.1h1.4v1.1c0,2.4,2.7,4.6,5.2,5.1L1130.2,2739.1z"/>
		<path class="st5" d="M1149.7,2738.1v1.1h-5.7v2.9h-1.3v-2.9h-6v-1.1H1149.7z M1138.2,2734.1c0-1.8,2-2.9,5-2.9c3,0,5,1.1,5,2.9
			c0,1.8-2,2.9-5,2.9C1140.2,2737,1138.2,2735.9,1138.2,2734.1z M1139.7,2743.8h8.6v1.1h-9.9v-4.2h1.3V2743.8z M1139.6,2734.1
			c0,1.1,1.5,1.8,3.6,1.8c2.2,0,3.6-0.7,3.6-1.8c0-1.1-1.4-1.8-3.6-1.8C1141,2732.3,1139.6,2732.9,1139.6,2734.1z"/>
		<path class="st5" d="M1158.3,2737.3c-0.7,0.8-1.7,1.2-2.9,1.2c-2.1,0-3.7-1.4-3.7-3.4c0-2,1.6-3.4,3.7-3.4c1.2,0,2.2,0.5,2.9,1.2
			h3.7v-2.1h1.3v8.5h-1.3v-2H1158.3z M1155.4,2737.4c1.4,0,2.4-1,2.4-2.3c0-1.3-1-2.3-2.4-2.3c-1.4,0-2.4,1-2.4,2.3
			C1152.9,2736.4,1154,2737.4,1155.4,2737.4z M1163.3,2742.4c0,1.7-1.8,2.8-4.8,2.8c-2.9,0-4.8-1-4.8-2.8c0-1.7,1.8-2.8,4.8-2.8
			C1161.5,2739.7,1163.3,2740.7,1163.3,2742.4z M1162,2742.4c0-1.1-1.3-1.7-3.5-1.7c-2.2,0-3.5,0.6-3.5,1.7c0,1.1,1.3,1.7,3.5,1.7
			C1160.7,2744.1,1162,2743.5,1162,2742.4z M1158.9,2734c0.1,0.3,0.2,0.7,0.2,1.1c0,0.4-0.1,0.8-0.2,1.1h3.1v-2.2H1158.9z"/>
	</g>
	<g class="st0">
		<path class="st5" d="M966.1,2878.3c0-1.3,0.9-2.2,2-2.2c1.1,0,2,0.9,2,2.2c0,1.3-0.9,2.1-2,2.1
			C967,2880.4,966.1,2879.6,966.1,2878.3z"/>
		<path class="st5" d="M980.1,2872.1h3.5v1.1h-8.5v-1.1h3.6v-2.1h1.3V2872.1z M982.9,2877.7c0,2-1.5,3.3-3.5,3.3
			c-2,0-3.5-1.3-3.5-3.3c0-1.9,1.5-3.3,3.5-3.3C981.5,2874.4,982.9,2875.7,982.9,2877.7z M981.7,2877.7c0-1.3-0.9-2.2-2.3-2.2
			c-1.3,0-2.2,0.9-2.2,2.2c0,1.3,0.9,2.2,2.2,2.2C980.7,2879.9,981.7,2879,981.7,2877.7z M988.6,2876.8h-2.4v7.3H985v-14.3h1.3v5.9
			h2.4V2876.8z"/>
		<path class="st5" d="M998,2870.2h1.2v13.2H998v-5h-2.6v-1.1h2.6v-2.5h-2.4c-0.7,2.4-2.2,4.6-4.9,6.2l-0.8-0.9
			c3.1-1.8,4.6-4.4,4.8-7.4h-4.2v-1.1h5.5c0,0.7-0.1,1.5-0.2,2.2h2.1V2870.2z M1002.1,2869.8v14.3h-1.2v-14.3H1002.1z"/>
		<path class="st5" d="M1017.7,2880.1h-3.4v4.1h-1.3v-4.1h-3.6v4.1h-1.3v-4.1h-3.4v-1.1h13V2880.1z M1016.9,2872.5h-11.5v-1.1h5.2
			v-1.7h1.3v1.7h5.1V2872.5z M1011.1,2873.3c2.9,0,4.6,0.8,4.6,2.4c0,1.5-1.7,2.4-4.6,2.4c-2.9,0-4.7-0.8-4.7-2.4
			C1006.5,2874.1,1008.2,2873.3,1011.1,2873.3z M1011.1,2874.3c-2.1,0-3.3,0.5-3.3,1.4c0,0.9,1.2,1.4,3.3,1.4c2.1,0,3.3-0.5,3.3-1.4
			C1014.4,2874.8,1013.2,2874.3,1011.1,2874.3z"/>
		<path class="st5" d="M1023.4,2877.4c-2.2,0-3.7-1.4-3.7-3.4c0-2,1.6-3.4,3.7-3.4c2.2,0,3.7,1.4,3.7,3.4
			C1027.1,2876.1,1025.5,2877.4,1023.4,2877.4z M1023.4,2876.3c1.4,0,2.5-0.9,2.5-2.3c0-1.3-1-2.3-2.5-2.3c-1.4,0-2.5,0.9-2.5,2.3
			C1020.9,2875.4,1021.9,2876.3,1023.4,2876.3z M1030.7,2881.5c0,1.7-1.8,2.7-4.7,2.7c-2.9,0-4.7-1-4.7-2.7c0-1.7,1.8-2.7,4.7-2.7
			C1028.8,2878.8,1030.7,2879.8,1030.7,2881.5z M1029.4,2881.5c0-1-1.3-1.6-3.4-1.6c-2.1,0-3.4,0.6-3.4,1.6c0,1,1.3,1.6,3.4,1.6
			C1028.1,2883.1,1029.4,2882.5,1029.4,2881.5z M1030.5,2873v2h2.1v1.1h-2.1v2.2h-1.3v-8.5h1.3v2.1h2.1v1.1H1030.5z"/>
		<path class="st5" d="M1047.1,2881.2v1.1h-13v-1.1h5.8v-3.5h1.3v3.5H1047.1z M1045.9,2877.9c-2.2-0.5-4.4-2-5.4-4
			c-0.9,2-3.2,3.5-5.4,4l-0.5-1.1c2.5-0.4,5.2-2.6,5.2-4.9v-1.1h1.4v1.1c0,2.4,2.7,4.5,5.2,4.9L1045.9,2877.9z"/>
		<path class="st5" d="M1065.4,2877.1v1.1h-5.7v2.9h-1.3v-2.9h-6v-1.1H1065.4z M1053.8,2873.1c0-1.8,2-2.9,5-2.9c3,0,5,1.1,5,2.9
			c0,1.8-2,2.9-5,2.9C1055.8,2876,1053.8,2874.9,1053.8,2873.1z M1055.4,2882.8h8.6v1.1h-9.9v-4.2h1.3V2882.8z M1055.2,2873.1
			c0,1.1,1.5,1.8,3.6,1.8c2.2,0,3.6-0.7,3.6-1.8c0-1.1-1.4-1.8-3.6-1.8C1056.7,2871.3,1055.2,2871.9,1055.2,2873.1z"/>
		<path class="st5" d="M1073.9,2876.3c-0.7,0.8-1.7,1.2-2.9,1.2c-2.1,0-3.7-1.4-3.7-3.4c0-2,1.6-3.4,3.7-3.4c1.2,0,2.2,0.5,2.9,1.2
			h3.7v-2.1h1.3v8.5h-1.3v-2H1073.9z M1071,2876.4c1.4,0,2.4-1,2.4-2.3c0-1.3-1-2.3-2.4-2.3c-1.4,0-2.4,1-2.4,2.3
			C1068.6,2875.4,1069.6,2876.4,1071,2876.4z M1079,2881.4c0,1.7-1.8,2.8-4.8,2.8c-2.9,0-4.8-1-4.8-2.8c0-1.7,1.8-2.8,4.8-2.8
			C1077.1,2878.7,1079,2879.7,1079,2881.4z M1077.7,2881.4c0-1.1-1.3-1.7-3.5-1.7c-2.2,0-3.5,0.6-3.5,1.7c0,1.1,1.3,1.7,3.5,1.7
			C1076.4,2883.1,1077.7,2882.5,1077.7,2881.4z M1074.5,2873c0.1,0.3,0.2,0.7,0.2,1.1c0,0.4-0.1,0.8-0.2,1.1h3.1v-2.2H1074.5z"/>
		<path class="st5" d="M1092.9,2876.6h-6.7v-5.9h6.7V2876.6z M1093.3,2880.1c0,1.4,2.2,2.8,4.7,3.1l-0.4,1c-2.2-0.3-4.1-1.3-4.9-2.6
			c-0.9,1.4-2.8,2.3-5,2.6l-0.4-1c2.4-0.3,4.7-1.6,4.8-3.1h-4.2v-1h4.2v-1.4h1.3v1.4h4.2v1H1093.3z M1091.6,2871.8h-4.1v3.8h4.1
			V2871.8z M1097.2,2878.1h-1.3v-8.2h1.3V2878.1z"/>
		<path class="st5" d="M1116.7,2880.1h-3.4v4.1h-1.3v-4.1h-3.6v4.1h-1.3v-4.1h-3.4v-1.1h13V2880.1z M1115.9,2872.5h-11.5v-1.1h5.2
			v-1.7h1.3v1.7h5.1V2872.5z M1110.2,2873.3c2.9,0,4.6,0.8,4.6,2.4c0,1.5-1.7,2.4-4.6,2.4c-2.9,0-4.7-0.8-4.7-2.4
			C1105.5,2874.1,1107.3,2873.3,1110.2,2873.3z M1110.2,2874.3c-2.1,0-3.3,0.5-3.3,1.4c0,0.9,1.2,1.4,3.3,1.4c2.1,0,3.3-0.5,3.3-1.4
			C1113.5,2874.8,1112.3,2874.3,1110.2,2874.3z"/>
		<path class="st5" d="M1125.8,2871.4c0,4.1-1.9,7.8-6.5,10.1l-0.7-1c3.7-1.8,5.6-4.6,5.9-8h-5.3v-1.1H1125.8z M1131.8,2876.7h-2.3
			v7.4h-1.3v-14.4h1.3v5.8h2.3V2876.7z"/>
		<path class="st5" d="M1135.3,2871v3.8h4.2v-3.8h1.3v9.7h-6.8v-9.7H1135.3z M1135.3,2879.7h4.2v-3.8h-4.2V2879.7z M1144.9,2869.8
			v14.4h-1.3v-14.4H1144.9z"/>
		<path class="st5" d="M1156.6,2874.2c0,2.4,1.7,4.9,3.8,5.8l-0.7,1.1c-1.7-0.8-3.1-2.4-3.8-4.4c-0.7,2.1-2.1,3.9-3.7,4.7l-0.8-1.1
			c2.1-1,3.8-3.7,3.8-6.2v-1.8h-3.3v-1.1h8v1.1h-3.4V2874.2z M1163.2,2869.8v14.3h-1.3v-14.3H1163.2z"/>
		<path class="st5" d="M1170.3,2877.5c-1.4,0.1-2.8,0.1-4,0.1l-0.2-1.1c2.7,0,6.2,0,9.3-0.4l0.1,0.9c-1.3,0.2-2.6,0.3-3.9,0.4v2.8
			h-1.3V2877.5z M1167.2,2872.9c0-1.5,1.4-2.5,3.5-2.5s3.5,1,3.5,2.5c0,1.5-1.4,2.5-3.5,2.5S1167.2,2874.4,1167.2,2872.9z
			 M1178.3,2882.8v1.1h-10.1v-4.2h1.3v3.1H1178.3z M1168.5,2872.9c0,0.9,0.9,1.5,2.3,1.5s2.3-0.6,2.3-1.5c0-0.9-0.9-1.5-2.3-1.5
			S1168.5,2872,1168.5,2872.9z M1176.6,2878.3v-8.5h1.3v10.9h-1.3v-1.5h-2.9v-1H1176.6z"/>
	</g>
	<g class="st0">
		<path class="st5" d="M966.1,2904.3c0-1.3,0.9-2.2,2-2.2c1.1,0,2,0.9,2,2.2c0,1.3-0.9,2.1-2,2.1
			C967,2906.4,966.1,2905.6,966.1,2904.3z"/>
		<path class="st5" d="M980,2900.2c0,2.3,1.6,4.8,3.7,5.8l-0.8,1.1c-1.6-0.8-2.9-2.5-3.6-4.4c-0.7,2.1-2,3.9-3.7,4.8l-0.8-1
			c2-1,3.8-3.7,3.8-6.2v-1.8h-3.3v-1.1h7.8v1.1H980V2900.2z M988.6,2902.7h-2.4v7.5h-1.3v-14.3h1.3v5.8h2.4V2902.7z"/>
		<path class="st5" d="M997.5,2897.4c0,4.1-1.9,7.8-6.7,10.1l-0.7-1.1c3.9-1.8,5.8-4.6,6.1-8h-5.4v-1.1H997.5z M1001.7,2895.8v14.4
			h-1.3v-14.4H1001.7z"/>
		<path class="st5" d="M1010.8,2897.7c0,3.7-1.3,7.1-5.4,9.4l-0.8-0.9c3.3-1.8,4.7-4.4,4.9-7.4h-4.3v-1.1H1010.8z M1016.8,2895.8
			v14.4h-1.3v-7.5h-2v6.8h-1.2v-13.3h1.2v5.4h2v-5.8H1016.8z"/>
		<path class="st5" d="M1026.6,2902.7h-6.6v-6.3h1.3v2.1h4.1v-2.1h1.3V2902.7z M1025.3,2899.5h-4.1v2.1h4.1V2899.5z M1022.7,2909
			h8.3v1h-9.6v-3.6h7.8v-1.5h-7.8v-1h9.1v3.5h-7.8V2909z M1032.6,2898.9v1.1h-2.1v3.2h-1.3v-7.4h1.3v3.1H1032.6z"/>
		<path class="st5" d="M1039.2,2900.2c0,2.4,1.7,4.9,3.8,5.8l-0.7,1.1c-1.7-0.8-3.1-2.4-3.8-4.4c-0.7,2.1-2.1,3.9-3.7,4.7l-0.8-1.1
			c2.1-1,3.8-3.7,3.8-6.2v-1.8h-3.3v-1.1h8v1.1h-3.4V2900.2z M1045.8,2895.8v14.3h-1.3v-14.3H1045.8z"/>
		<path class="st5" d="M1052.9,2903.5c-1.4,0.1-2.8,0.1-4,0.1l-0.2-1.1c2.7,0,6.2,0,9.3-0.4l0.1,0.9c-1.3,0.2-2.6,0.3-3.9,0.4v2.8
			h-1.3V2903.5z M1049.9,2898.9c0-1.5,1.4-2.5,3.5-2.5c2.1,0,3.5,1,3.5,2.5c0,1.5-1.4,2.5-3.5,2.5
			C1051.3,2901.4,1049.9,2900.4,1049.9,2898.9z M1060.9,2908.8v1.1h-10.1v-4.2h1.3v3.1H1060.9z M1051.1,2898.9
			c0,0.9,0.9,1.5,2.3,1.5c1.4,0,2.3-0.6,2.3-1.5c0-0.9-0.9-1.5-2.3-1.5C1052,2897.4,1051.1,2898,1051.1,2898.9z M1059.2,2904.3v-8.5
			h1.3v10.9h-1.3v-1.5h-2.9v-1H1059.2z"/>
		<path class="st5" d="M1076.6,2901.9v1.1h-13v-1.1h9.7c0.4-1.8,0.4-3.1,0.4-4.2h-8.4v-1.1h9.7v1.1c0,1.1,0,2.4-0.4,4.2H1076.6z
			 M1065.1,2904.9h9.8v5.1h-9.8V2904.9z M1066.4,2908.9h7.2v-3h-7.2V2908.9z"/>
		<path class="st5" d="M1086,2899.9c0,2.5,1.1,5,3.1,6.1l-0.8,1c-1.4-0.8-2.4-2.4-2.9-4.2c-0.5,2-1.5,3.6-3,4.5l-0.8-1
			c2-1.2,3.1-3.8,3.1-6.5v-1.3h-2.7v-1.1h6.5v1.1h-2.6V2899.9z M1089.9,2896.1h1.2v13.3h-1.2v-7.4h-2.4v-1.1h2.4V2896.1z
			 M1094,2895.8v14.4h-1.3v-14.4H1094z"/>
		<path class="st5" d="M1109.6,2907.3v1.1h-13v-1.1h5.8v-3.7h-4.2v-6.6h9.7v1.1h-8.4v4.5h8.6v1.1h-4.4v3.7H1109.6z"/>
	</g>
	<g class="st0">
		<path class="st5" d="M966.1,2959.3c0-1.3,0.9-2.2,2-2.2c1.1,0,2,0.9,2,2.2c0,1.3-0.9,2.1-2,2.1
			C967,2961.4,966.1,2960.6,966.1,2959.3z"/>
		<path class="st5" d="M982.9,2958.8c-1.6-0.5-2.9-1.7-3.5-3.1c-0.6,1.6-1.9,2.9-3.6,3.5l-0.7-1c2.2-0.8,3.6-2.6,3.6-4.7v-0.6h-3.2
			v-1.1h7.7v1.1h-3.2v0.6c0,1.9,1.4,3.6,3.5,4.3L982.9,2958.8z M986.5,2962.5c0,1.7-1.8,2.7-4.7,2.7c-2.9,0-4.7-1-4.7-2.7
			c0-1.7,1.8-2.6,4.7-2.6C984.7,2959.9,986.5,2960.8,986.5,2962.5z M985.2,2962.5c0-1-1.3-1.6-3.4-1.6c-2.1,0-3.4,0.6-3.4,1.6
			c0,1,1.3,1.6,3.4,1.6C983.9,2964.1,985.2,2963.5,985.2,2962.5z M988.5,2954.5v1.1h-2.1v3.9H985v-8.7h1.3v3.6H988.5z"/>
		<path class="st5" d="M997.5,2952.4c0,4.1-1.9,7.8-6.7,10.1l-0.7-1.1c3.9-1.8,5.8-4.6,6.1-8h-5.4v-1.1H997.5z M1001.7,2950.8v14.4
			h-1.3v-14.4H1001.7z"/>
		<path class="st5" d="M1017.7,2957.4v1.1h-13v-1.1h9.7c0.4-2,0.4-3.4,0.4-4.6v0h-8.4v-1.1h9.7v1.1c0,1.2,0,2.7-0.4,4.6H1017.7z
			 M1007.7,2963.8h8.8v1.1h-10.1v-4.7h1.3V2963.8z"/>
		<path class="st5" d="M1032.4,2958v1.1h-13v-1.1h5.8v-2.2h1.3v2.2H1032.4z M1031.1,2956.6c-2.2-0.4-4.3-1.5-5.2-3.2
			c-0.9,1.6-3,2.8-5.2,3.2l-0.5-1.1c2.5-0.4,5-2,5-3.9v-0.6h1.3v0.6c0,1.9,2.5,3.5,5,3.9L1031.1,2956.6z M1020.8,2960.5h9.9v4.7
			h-1.3v-3.6h-8.6V2960.5z"/>
		<path class="st5" d="M1038.9,2955.2c0,2.3,1.6,4.8,3.7,5.8l-0.8,1.1c-1.6-0.8-2.9-2.5-3.6-4.4c-0.7,2.1-2,3.9-3.7,4.8l-0.8-1
			c2-1,3.8-3.7,3.8-6.2v-1.8h-3.3v-1.1h7.8v1.1h-3.2V2955.2z M1047.5,2957.7h-2.4v7.5h-1.3v-14.3h1.3v5.8h2.4V2957.7z"/>
		<path class="st5" d="M1065.4,2962.3v1.1h-13v-1.1h5.8v-3.3h-4.6v-1.1h2.2v-4.7h-2.2v-1.1h10.6v1.1h-2.2v4.7h2.2v1.1h-4.6v3.3
			H1065.4z M1057.1,2958h3.6v-4.7h-3.6V2958z"/>
		<path class="st5" d="M1074.7,2958.6c-1.6-0.6-2.8-1.8-3.4-3.2c-0.6,1.7-1.9,3-3.6,3.6l-0.7-1c2.2-0.8,3.6-2.7,3.6-4.9v-1.5h1.3
			v1.6c0,1.9,1.4,3.7,3.5,4.4L1074.7,2958.6z M1078.4,2962.6c0,1.7-1.8,2.6-4.7,2.6c-2.9,0-4.7-0.9-4.7-2.6c0-1.7,1.8-2.6,4.7-2.6
			C1076.6,2959.9,1078.4,2960.9,1078.4,2962.6z M1077.1,2962.6c0-1-1.3-1.6-3.4-1.6c-2.1,0-3.4,0.6-3.4,1.6c0,1,1.3,1.6,3.4,1.6
			C1075.8,2964.1,1077.1,2963.6,1077.1,2962.6z M1080.4,2954.5v1.1h-2.1v3.9h-1.3v-8.7h1.3v3.7H1080.4z"/>
	</g>
	<g class="st0">
		<path class="st5" d="M966.1,2985.3c0-1.3,0.9-2.2,2-2.2c1.1,0,2,0.9,2,2.2c0,1.3-0.9,2.1-2,2.1
			C967,2987.4,966.1,2986.6,966.1,2985.3z"/>
		<path class="st5" d="M988.2,2986.1h-5.9v5.1H981v-5.1h-5.8v-1.1h13V2986.1z M976.7,2980.5c0-1.9,2-3.1,5-3.1c3,0,5,1.2,5,3.1
			c0,1.9-2,3.2-5,3.2C978.7,2983.7,976.7,2982.5,976.7,2980.5z M978,2980.5c0,1.3,1.5,2.1,3.7,2.1c2.2,0,3.7-0.8,3.7-2.1
			c0-1.3-1.5-2.1-3.7-2.1C979.5,2978.5,978,2979.3,978,2980.5z"/>
		<path class="st5" d="M1002.9,2986H997v5.2h-1.3v-5.2h-5.8v-1.1h13L1002.9,2986z M1001.7,2983.4c-2.2-0.4-4.4-1.6-5.3-3.4
			c-0.9,1.7-3.1,3-5.3,3.4l-0.5-1.1c2.6-0.4,5.1-2.1,5.1-4.2v-0.8h1.4v0.8c0,2,2.6,3.8,5.2,4.2L1001.7,2983.4z"/>
		<path class="st5" d="M1021.2,2988.3v1.1h-13v-1.1h5.8v-3.5h-4.3v-6.7h9.9v6.7h-4.3v3.5H1021.2z M1011,2983.7h7.3v-4.7h-7.3V2983.7
			z"/>
		<path class="st5" d="M1034.8,2976.8v8.3h-1.3v-3.6h-3.3v2.8h-6.5v-6.7h1.3v2.3h3.9v-2.3h1.3v2.8h3.3v-3.6L1034.8,2976.8z
			 M1028.8,2981h-3.9v2.3h3.9V2981z M1025.4,2985.9h9.3v5.1h-9.3V2985.9z M1026.7,2989.9h6.8v-3h-6.8V2989.9z"/>
		<path class="st5" d="M1045.8,2984.9c-1.6-0.6-3-1.8-3.6-3.3c-0.6,1.6-1.9,2.9-3.6,3.5l-0.7-1c2.2-0.8,3.6-2.6,3.6-4.7v-0.6h-3.3
			v-1.1h7.9v1.1h-3.2v0.6c0,1.9,1.5,3.7,3.6,4.4L1045.8,2984.9z M1039.8,2986.3h9.6v4.9h-1.3v-3.9h-8.3V2986.3z M1049.5,2976.8v8.7
			h-1.3v-8.7H1049.5z"/>
		<path class="st5" d="M1056.5,2984.5c-1.4,0.1-2.8,0.1-4,0.1l-0.2-1.1c2.7,0,6.2,0,9.3-0.4l0.1,0.9c-1.3,0.2-2.6,0.3-3.9,0.4v2.8
			h-1.3V2984.5z M1053.4,2979.9c0-1.5,1.4-2.5,3.5-2.5c2.1,0,3.5,1,3.5,2.5c0,1.5-1.4,2.5-3.5,2.5
			C1054.9,2982.4,1053.4,2981.4,1053.4,2979.9z M1064.5,2989.8v1.1h-10.1v-4.2h1.3v3.1H1064.5z M1054.7,2979.9
			c0,0.9,0.9,1.5,2.3,1.5c1.4,0,2.3-0.6,2.3-1.5c0-0.9-0.9-1.5-2.3-1.5C1055.6,2978.4,1054.7,2979,1054.7,2979.9z M1062.8,2985.3
			v-8.5h1.3v10.9h-1.3v-1.5h-2.9v-1H1062.8z"/>
		<path class="st5" d="M1083.7,2988.3v1.1h-13v-1.1h5.8v-3.3h-4.6v-1.1h2.2v-4.7h-2.2v-1.1h10.6v1.1h-2.2v4.7h2.2v1.1h-4.6v3.3
			H1083.7z M1075.4,2984h3.6v-4.7h-3.6V2984z"/>
		<path class="st5" d="M1093,2984.6c-1.6-0.6-2.8-1.8-3.4-3.2c-0.6,1.7-1.9,3-3.6,3.6l-0.7-1c2.2-0.8,3.6-2.7,3.6-4.9v-1.5h1.3v1.6
			c0,1.9,1.4,3.7,3.5,4.4L1093,2984.6z M1096.7,2988.6c0,1.7-1.8,2.6-4.7,2.6c-2.9,0-4.7-0.9-4.7-2.6c0-1.7,1.8-2.6,4.7-2.6
			C1094.9,2985.9,1096.7,2986.9,1096.7,2988.6z M1095.4,2988.6c0-1-1.3-1.6-3.4-1.6c-2.1,0-3.4,0.6-3.4,1.6c0,1,1.3,1.6,3.4,1.6
			C1094.1,2990.1,1095.4,2989.6,1095.4,2988.6z M1098.7,2980.5v1.1h-2.1v3.9h-1.3v-8.7h1.3v3.7H1098.7z"/>
	</g>
	<g class="st0">
		<path class="st5" d="M1369.7,2687.5c0-1.3,0.9-2.2,2-2.2c1.1,0,2,0.9,2,2.2c0,1.3-0.9,2.1-2,2.1
			C1370.6,2689.7,1369.7,2688.8,1369.7,2687.5z"/>
		<path class="st5" d="M1387.4,2681.7h-8.5v-1.1h3.6v-1.6h1.3v1.6h3.6V2681.7z M1383.1,2687.6c-2,0-3.4-1-3.4-2.6
			c0-1.6,1.4-2.6,3.4-2.6c2,0,3.4,1,3.4,2.6C1386.6,2686.6,1385.2,2687.6,1383.1,2687.6z M1380.7,2688.8h9.3v4.6h-1.3v-3.5h-8
			V2688.8z M1383.1,2686.6c1.3,0,2.2-0.6,2.2-1.6c0-0.9-0.9-1.6-2.2-1.6s-2.2,0.6-2.2,1.6C1381,2685.9,1381.8,2686.6,1383.1,2686.6z
			 M1392.1,2684.1h-2.1v3.9h-1.3v-9h1.3v4h2.1V2684.1z"/>
		<path class="st5" d="M1398.4,2683.5c0,2.3,1.6,4.8,3.7,5.8l-0.8,1.1c-1.6-0.8-2.9-2.5-3.6-4.4c-0.7,2.1-2,3.9-3.7,4.8l-0.8-1
			c2-1,3.8-3.7,3.8-6.2v-1.8h-3.3v-1.1h7.8v1.1h-3.2V2683.5z M1407,2686h-2.4v7.5h-1.3v-14.3h1.3v5.8h2.4V2686z"/>
		<path class="st5" d="M1421.3,2685.1v1.1h-13v-1.1h9.7c0.4-1.8,0.4-3.1,0.4-4.2h-8.4v-1.1h9.7v1.1c0,1.1,0,2.4-0.4,4.2H1421.3z
			 M1409.9,2688.1h9.8v5.1h-9.8V2688.1z M1411.2,2692.2h7.2v-3h-7.2V2692.2z"/>
		<path class="st5" d="M1431.7,2683.5c0,2.4,1.7,4.9,3.8,5.8l-0.7,1.1c-1.7-0.8-3.1-2.4-3.8-4.4c-0.7,2.1-2.1,3.9-3.7,4.7l-0.8-1.1
			c2.1-1,3.8-3.7,3.8-6.2v-1.8h-3.3v-1.1h8v1.1h-3.4V2683.5z M1438.3,2679.1v14.3h-1.3v-14.3H1438.3z"/>
		<path class="st5" d="M1445.4,2686.7c-1.4,0.1-2.8,0.1-4,0.1l-0.2-1.1c2.7,0,6.2,0,9.3-0.4l0.1,0.9c-1.3,0.2-2.6,0.3-3.9,0.4v2.8
			h-1.3V2686.7z M1442.4,2682.2c0-1.5,1.4-2.5,3.5-2.5c2.1,0,3.5,1,3.5,2.5c0,1.5-1.4,2.5-3.5,2.5
			C1443.8,2684.7,1442.4,2683.7,1442.4,2682.2z M1453.4,2692v1.1h-10.1v-4.2h1.3v3.1H1453.4z M1443.6,2682.2c0,0.9,0.9,1.5,2.3,1.5
			c1.4,0,2.3-0.6,2.3-1.5c0-0.9-0.9-1.5-2.3-1.5C1444.6,2680.6,1443.6,2681.2,1443.6,2682.2z M1451.8,2687.6v-8.5h1.3v10.9h-1.3
			v-1.5h-2.9v-1H1451.8z"/>
	</g>
	<g class="st0">
		<path class="st5" d="M1369.7,2713.5c0-1.3,0.9-2.2,2-2.2c1.1,0,2,0.9,2,2.2c0,1.3-0.9,2.1-2,2.1
			C1370.6,2715.7,1369.7,2714.8,1369.7,2713.5z"/>
		<path class="st5" d="M1387,2713.1c-1.6-0.6-3-1.8-3.6-3.3c-0.6,1.6-1.9,2.9-3.6,3.5l-0.7-1c2.2-0.8,3.6-2.6,3.6-4.7v-0.6h-3.3
			v-1.1h7.9v1.1h-3.2v0.6c0,1.9,1.5,3.7,3.6,4.4L1387,2713.1z M1381,2714.5h9.6v4.9h-1.3v-3.9h-8.3V2714.5z M1390.6,2705.1v8.7h-1.3
			v-8.7H1390.6z"/>
		<path class="st5" d="M1401.3,2713c-1.6-0.5-2.9-1.7-3.5-3.1c-0.6,1.6-1.9,2.9-3.6,3.5l-0.7-1c2.2-0.8,3.6-2.6,3.6-4.7v-0.6h-3.2
			v-1.1h7.7v1.1h-3.2v0.6c0,1.9,1.4,3.6,3.5,4.3L1401.3,2713z M1404.9,2716.8c0,1.7-1.8,2.7-4.7,2.7c-2.9,0-4.7-1-4.7-2.7
			c0-1.7,1.8-2.6,4.7-2.6C1403.1,2714.1,1404.9,2715.1,1404.9,2716.8z M1403.6,2716.8c0-1-1.3-1.6-3.4-1.6c-2.1,0-3.4,0.6-3.4,1.6
			c0,1,1.3,1.6,3.4,1.6C1402.3,2718.4,1403.6,2717.8,1403.6,2716.8z M1406.8,2708.7v1.1h-2.1v3.9h-1.3v-8.7h1.3v3.6H1406.8z"/>
		<path class="st5" d="M1420.1,2705.1v14.4h-1.3v-7.8h-3.1c-0.1,2.8-1.6,4.6-3.6,4.6c-2.1,0-3.6-2-3.6-5c0-3.1,1.5-5,3.6-5
			c1.9,0,3.3,1.7,3.6,4.4h3.1v-5.5H1420.1z M1414.5,2711.2c0-2.3-1-3.8-2.3-3.8c-1.4,0-2.3,1.5-2.3,3.8c0,2.3,1,3.8,2.3,3.8
			C1413.5,2715,1414.5,2713.5,1414.5,2711.2z"/>
		<path class="st5" d="M1431.9,2713.1c-2.3,0.4-4.2,0.5-7,0.5h-1.2v-4.4h5.2v-2.1h-5.2v-1.1h6.5v4.1h-5.2v2.3c2.6,0,4.5-0.1,6.7-0.5
			L1431.9,2713.1z M1435.2,2718v1.1h-9.8v-4.3h1.3v3.2H1435.2z M1434.8,2715.7h-1.3v-10.6h1.3V2715.7z"/>
		<path class="st5" d="M1445.6,2711.2c0,3.1-1.5,5-3.6,5s-3.7-2-3.7-5c0-3.1,1.5-5,3.7-5S1445.6,2708.1,1445.6,2711.2z
			 M1439.5,2711.2c0,2.3,1,3.8,2.4,3.8c1.4,0,2.4-1.5,2.4-3.8c0-2.3-1-3.8-2.4-3.8C1440.5,2707.4,1439.5,2708.9,1439.5,2711.2z
			 M1449.5,2705.1v14.4h-1.3v-14.4H1449.5z"/>
		<path class="st5" d="M1460.6,2712.6c-1.6-0.5-3-1.7-3.6-3.2c-0.6,1.6-2,2.8-3.7,3.4l-0.7-1c2.2-0.7,3.6-2.5,3.6-4.5v-0.3h-3.3
			v-1.1h7.9v1.1h-3.2v0.3c0,1.9,1.5,3.6,3.6,4.2L1460.6,2712.6z M1462.9,2713.5h1.3v5.7h-9.3v-5.7h1.3v1.7h6.7V2713.5z
			 M1462.9,2716.3h-6.7v1.9h6.7V2716.3z M1464.2,2705.1v7.8h-1.3v-7.8H1464.2z"/>
		<path class="st5" d="M1483.8,2712.4v1.1h-5.7v2.9h-1.3v-2.9h-6v-1.1H1483.8z M1472.2,2708.3c0-1.8,2-2.9,5-2.9s5,1.1,5,2.9
			c0,1.8-2,2.9-5,2.9S1472.2,2710.1,1472.2,2708.3z M1473.7,2718h8.6v1.1h-9.9v-4.2h1.3V2718z M1473.6,2708.3c0,1.1,1.5,1.8,3.6,1.8
			c2.2,0,3.7-0.7,3.7-1.8c0-1.1-1.4-1.8-3.7-1.8C1475,2706.5,1473.6,2707.2,1473.6,2708.3z"/>
		<path class="st5" d="M1492.3,2711.5c-0.7,0.8-1.7,1.2-2.9,1.2c-2.1,0-3.7-1.4-3.7-3.4c0-2,1.6-3.4,3.7-3.4c1.2,0,2.2,0.5,2.9,1.2
			h3.7v-2.1h1.3v8.5h-1.3v-2H1492.3z M1489.4,2711.6c1.4,0,2.4-1,2.4-2.3c0-1.3-1-2.3-2.4-2.3c-1.4,0-2.4,1-2.4,2.3
			C1487,2710.7,1488,2711.6,1489.4,2711.6z M1497.4,2716.7c0,1.7-1.8,2.8-4.8,2.8c-2.9,0-4.8-1-4.8-2.8c0-1.7,1.8-2.8,4.8-2.8
			C1495.5,2713.9,1497.4,2714.9,1497.4,2716.7z M1496.1,2716.7c0-1.1-1.3-1.7-3.5-1.7c-2.2,0-3.5,0.6-3.5,1.7c0,1.1,1.3,1.7,3.5,1.7
			C1494.7,2718.4,1496.1,2717.7,1496.1,2716.7z M1492.9,2708.2c0.1,0.3,0.2,0.7,0.2,1.1c0,0.4-0.1,0.8-0.2,1.1h3.1v-2.2H1492.9z"/>
	</g>
	<g class="st0">
		<path class="st5" d="M1369.7,2739.5c0-1.3,0.9-2.2,2-2.2c1.1,0,2,0.9,2,2.2c0,1.3-0.9,2.1-2,2.1
			C1370.6,2741.7,1369.7,2740.8,1369.7,2739.5z"/>
		<path class="st5" d="M1384.3,2741.4c1.3-0.1,2.7-0.2,4-0.4l0.1,1c-3.2,0.6-6.7,0.6-9.3,0.6l-0.2-1.1c1.2,0,2.6,0,4,0v-2.4h-3v-6.7
			h7.4v1.1h-6.1v1.7h5.8v1h-5.8v1.8h6.2v1.1h-3.2V2741.4z M1390.6,2731.1v14.4h-1.3v-14.4H1390.6z"/>
		<path class="st5" d="M1401.7,2739.1c-1.6-0.6-3-1.8-3.6-3.3c-0.6,1.6-1.9,2.9-3.6,3.5l-0.7-1c2.2-0.8,3.6-2.6,3.6-4.7v-0.6h-3.3
			v-1.1h7.9v1.1h-3.2v0.6c0,1.9,1.5,3.7,3.6,4.4L1401.7,2739.1z M1395.8,2740.5h9.6v4.9h-1.3v-3.9h-8.3V2740.5z M1405.4,2731.1v8.7
			h-1.3v-8.7H1405.4z"/>
		<path class="st5" d="M1415.2,2737.8c-0.7,0.8-1.7,1.4-2.9,1.4c-2.1,0-3.7-1.5-3.7-3.6s1.6-3.6,3.7-3.6c1.2,0,2.3,0.5,2.9,1.3h3.7
			v-2.2h1.3v10.6h-1.3v-3.9H1415.2z M1412.2,2738c1.4,0,2.4-1,2.4-2.4c0-1.4-1-2.4-2.4-2.4c-1.4,0-2.4,1-2.4,2.4
			C1409.8,2737,1410.8,2738,1412.2,2738z M1420.5,2744v1.1h-9.6v-4.5h1.3v3.4H1420.5z M1415.7,2734.4c0.1,0.4,0.2,0.8,0.2,1.2
			c0,0.4-0.1,0.8-0.2,1.2h3.1v-2.4H1415.7z"/>
		<path class="st5" d="M1436,2737.1v1.1h-13v-1.1h9.7c0.4-1.8,0.4-3.1,0.4-4.2h-8.4v-1.1h9.7v1.1c0,1.1,0,2.4-0.4,4.2H1436z
			 M1424.6,2740.1h9.8v5.1h-9.8V2740.1z M1425.9,2744.2h7.2v-3h-7.2V2744.2z"/>
		<path class="st5" d="M1441.9,2735.1c0,2.5,1.1,5,3.1,6.1l-0.8,1c-1.4-0.8-2.4-2.4-2.9-4.2c-0.5,2-1.5,3.6-3,4.5l-0.8-1
			c2-1.2,3.1-3.8,3.1-6.5v-1.3h-2.7v-1.1h6.5v1.1h-2.6V2735.1z M1445.8,2731.4h1.2v13.3h-1.2v-7.4h-2.4v-1.1h2.4V2731.4z
			 M1449.9,2731.1v14.4h-1.3v-14.4H1449.9z"/>
		<path class="st5" d="M1465.5,2742.5v1.1h-13v-1.1h5.8v-3.7h-4.2v-6.6h9.7v1.1h-8.4v4.5h8.6v1.1h-4.4v3.7H1465.5z"/>
		<path class="st5" d="M1478.1,2732.6c0,4.1-1.9,7.8-6.5,10.1l-0.7-1c3.7-1.8,5.6-4.6,5.9-8h-5.3v-1.1H1478.1z M1484.1,2738h-2.3
			v7.4h-1.3v-14.4h1.3v5.8h2.3V2738z"/>
		<path class="st5" d="M1493.3,2735.1c0,2-1.6,3.3-3.8,3.3c-2.2,0-3.7-1.3-3.7-3.3c0-2,1.6-3.3,3.7-3.3
			C1491.7,2731.8,1493.3,2733.1,1493.3,2735.1z M1487.1,2735.1c0,1.3,1,2.2,2.4,2.2c1.5,0,2.5-0.9,2.5-2.2c0-1.3-1-2.2-2.5-2.2
			C1488.1,2732.9,1487.1,2733.8,1487.1,2735.1z M1489.3,2739.5v1.8h6.7v-1.8h1.3v5.7h-9.3v-5.7H1489.3z M1489.3,2744.2h6.7v-1.9
			h-6.7V2744.2z M1497.3,2731.1v7.7h-1.3v-7.7H1497.3z"/>
	</g>
	<g class="st0">
		<path class="st5" d="M1369.7,2878.3c0-1.3,0.9-2.2,2-2.2c1.1,0,2,0.9,2,2.2c0,1.3-0.9,2.1-2,2.1
			C1370.6,2880.4,1369.7,2879.6,1369.7,2878.3z"/>
		<path class="st5" d="M1383.7,2873.7c0,2.5,1.6,5.1,3.7,6.1l-0.8,1c-1.5-0.8-2.8-2.5-3.5-4.5c-0.6,2.1-2,3.9-3.6,4.8l-0.8-1.1
			c2.1-1.1,3.7-3.8,3.7-6.4v-2.6h1.3V2873.7z M1392.3,2876.7h-2.4v7.4h-1.3v-14.3h1.3v5.8h2.4V2876.7z"/>
		<path class="st5" d="M1395.6,2879.3c1.4,0,2.9-0.1,4.6-0.4l0.1,1.1c-1.9,0.4-3.6,0.4-5.1,0.4h-0.9v-8.9h1.3V2879.3z
			 M1405.8,2869.8v14.3h-1.3v-7.4h-2v6.7h-1.2v-13.3h1.2v5.5h2v-5.8H1405.8z"/>
		<path class="st5" d="M1421.3,2876.9v1.1h-13v-1.1h5.8v-1.7h-4.2v-4.8h9.7v1.1h-8.4v2.7h8.5v1.1h-4.3v1.7H1421.3z M1419.7,2881.6
			c0,1.7-1.9,2.6-4.9,2.6c-3.1,0-4.9-0.9-4.9-2.6c0-1.7,1.9-2.6,4.9-2.6C1417.8,2879,1419.7,2879.9,1419.7,2881.6z M1418.4,2881.6
			c0-1-1.3-1.6-3.6-1.6c-2.3,0-3.6,0.6-3.6,1.6c0,1,1.3,1.6,3.6,1.6C1417,2883.2,1418.4,2882.6,1418.4,2881.6z"/>
		<path class="st5" d="M1436,2881.4v1.1h-13v-1.1h5.8v-2c-2.5-0.1-4.1-1.1-4.1-2.7c0-1.7,1.8-2.7,4.7-2.7c2.9,0,4.7,1,4.7,2.7
			c0,1.6-1.5,2.6-4,2.7v2H1436z M1435.3,2873h-11.7v-1.1h5.2v-1.9h1.3v1.9h5.1V2873z M1429.5,2878.4c2.1,0,3.3-0.6,3.3-1.7
			c0-1.1-1.3-1.7-3.3-1.7c-2.1,0-3.4,0.6-3.4,1.7C1426.1,2877.8,1427.4,2878.4,1429.5,2878.4z"/>
		<path class="st5" d="M1443.1,2880.2c1.4-0.1,2.8-0.2,4.1-0.3l0.1,1c-3.2,0.5-6.7,0.6-9.3,0.6l-0.2-1.1c1.2,0,2.6,0,4-0.1v-1.5
			c-1.7-0.2-2.8-1.2-2.8-2.6c0-1.6,1.4-2.7,3.5-2.7s3.4,1,3.4,2.7c0,1.4-1.1,2.4-2.8,2.6V2880.2z M1446.8,2872.6h-8.7v-1.1h3.7v-1.8
			h1.3v1.8h3.7V2872.6z M1442.5,2877.8c1.3,0,2.2-0.6,2.2-1.6c0-1-0.9-1.6-2.2-1.6c-1.3,0-2.2,0.6-2.2,1.6
			C1440.3,2877.1,1441.2,2877.8,1442.5,2877.8z M1449.4,2869.8v14.4h-1.3v-14.4H1449.4z"/>
	</g>
	<g class="st0">
		<path class="st5" d="M1369.7,2904.3c0-1.3,0.9-2.2,2-2.2c1.1,0,2,0.9,2,2.2c0,1.3-0.9,2.1-2,2.1
			C1370.6,2906.4,1369.7,2905.6,1369.7,2904.3z"/>
		<path class="st5" d="M1391.9,2905.1h-3.4v5.1h-1.3v-5.1h-3.6v5.1h-1.3v-5.1h-3.3v-1.1h13V2905.1z M1380.3,2899.5
			c0-1.9,2-3.1,5-3.1c3,0,5,1.2,5,3.1s-2,3.1-5,3.1C1382.3,2902.7,1380.3,2901.4,1380.3,2899.5z M1381.7,2899.5
			c0,1.3,1.5,2.1,3.7,2.1c2.2,0,3.7-0.8,3.7-2.1s-1.5-2.1-3.7-2.1C1383.1,2897.5,1381.7,2898.3,1381.7,2899.5z"/>
		<path class="st5" d="M1400.4,2902.6c-0.7,0.8-1.7,1.4-2.9,1.4c-2.1,0-3.7-1.5-3.7-3.6s1.6-3.6,3.7-3.6c1.2,0,2.3,0.5,2.9,1.3h3.6
			v-2.2h1.3v10.6h-1.3v-3.9H1400.4z M1397.5,2902.8c1.4,0,2.4-1,2.4-2.4c0-1.4-1-2.4-2.4-2.4c-1.4,0-2.4,1-2.4,2.4
			C1395,2901.8,1396.1,2902.8,1397.5,2902.8z M1405.8,2908.8v1.1h-9.6v-4.5h1.3v3.4H1405.8z M1401,2899.1c0.1,0.4,0.2,0.8,0.2,1.2
			c0,0.4-0.1,0.8-0.2,1.2h3.1v-2.4H1401z"/>
		<path class="st5" d="M1421.3,2902.4v1.1h-13v-1.1h9.7c0.4-2,0.4-3.4,0.4-4.6v0h-8.4v-1.1h9.7v1.1c0,1.2,0,2.7-0.4,4.6H1421.3z
			 M1411.3,2908.8h8.8v1.1H1410v-4.7h1.3V2908.8z"/>
		<path class="st5" d="M1436,2907.3v1.1h-13v-1.1h5.8v-2.7h-4.2v-4.4h8.5v-2.2h-8.5v-1.1h9.8v4.4h-8.5v2.3h8.8v1.1h-4.6v2.7H1436z"
			/>
		<path class="st5" d="M1442.8,2899.7c0,2.6,1.7,5.3,3.8,6.2l-0.8,1.1c-1.6-0.8-3-2.5-3.7-4.5c-0.7,2.2-2,4-3.7,4.8l-0.8-1.1
			c2.1-1,3.9-3.8,3.9-6.5v-2.6h1.3V2899.7z M1449.5,2895.8v14.4h-1.3v-14.4H1449.5z"/>
		<path class="st5" d="M1459.8,2896.9c0,3.7-2.6,6.4-6.7,7.7l-0.5-1c3.4-1.1,5.6-3.1,5.9-5.6h-5.3v-1.1H1459.8z M1456,2908.8h8.3
			v1.1h-9.6v-4.6h1.3V2908.8z M1465.7,2900.2v1.1h-2.1v5h-1.3v-10.5h1.3v4.4H1465.7z"/>
		<path class="st5" d="M1471.4,2899.9c0,2.5,1.1,5,3.1,6.1l-0.8,1c-1.4-0.8-2.4-2.4-2.9-4.2c-0.5,2-1.5,3.6-3,4.5l-0.8-1
			c2-1.2,3.1-3.8,3.1-6.5v-1.3h-2.7v-1.1h6.5v1.1h-2.6V2899.9z M1475.2,2896.1h1.2v13.3h-1.2v-7.4h-2.4v-1.1h2.4V2896.1z
			 M1479.4,2895.8v14.4h-1.3v-14.4H1479.4z"/>
		<path class="st5" d="M1498.5,2907.3v1.1h-13v-1.1h5.8v-3.7h-4.2v-6.6h9.7v1.1h-8.4v4.5h8.6v1.1h-4.4v3.7H1498.5z"/>
		<path class="st5" d="M1508,2899.8c0,2-1.6,3.3-3.8,3.3c-2.2,0-3.7-1.3-3.7-3.3c0-2,1.6-3.3,3.7-3.3
			C1506.4,2896.5,1508,2897.9,1508,2899.8z M1501.8,2899.8c0,1.3,1,2.2,2.4,2.2c1.5,0,2.5-0.9,2.5-2.2c0-1.3-1-2.2-2.5-2.2
			C1502.8,2897.6,1501.8,2898.5,1501.8,2899.8z M1504,2904.2v1.8h6.7v-1.8h1.3v5.7h-9.3v-5.7H1504z M1504,2908.9h6.7v-1.9h-6.7
			V2908.9z M1512,2895.8v7.7h-1.3v-7.7H1512z"/>
	</g>
	<g class="st0">
		<path class="st5" d="M1369.7,2959c0-1.3,0.9-2.2,2-2.2c1.1,0,2,0.9,2,2.2c0,1.3-0.9,2.1-2,2.1
			C1370.6,2961.2,1369.7,2960.3,1369.7,2959z"/>
		<path class="st5" d="M1386.6,2958.9c-1.6-0.6-2.8-1.9-3.4-3.4c-0.6,1.7-1.9,3.1-3.6,3.7l-0.7-1c2.1-0.8,3.6-2.8,3.6-5v-1.8h1.3
			v1.8c0,2,1.4,3.9,3.5,4.7L1386.6,2958.9z M1391,2963.5v1.1h-9.6v-4.5h1.3v3.4H1391z M1389.4,2955h-3.1v-1.1h3.1v-3.4h1.3v10.7
			h-1.3V2955z"/>
		<path class="st5" d="M1400.4,2958.1c-1.6,0.3-3,0.4-5.3,0.4h-0.9v-6.9h5.5v1.1h-4.3v1.8h4.1v1h-4.1v2c2,0,3.3-0.1,4.8-0.4
			L1400.4,2958.1z M1396,2960h9.7v4.9h-1.3v-3.8h-8.3V2960z M1405.7,2950.6v8.7h-1.3v-3.9h-1.9v3.8h-1.2v-8.3h1.2v3.5h1.9v-3.7
			H1405.7z"/>
		<path class="st5" d="M1416.1,2958.6c-1.6-0.6-2.8-1.8-3.5-3.2c-0.6,1.6-1.9,3-3.6,3.6l-0.7-1c2.1-0.8,3.6-2.7,3.6-4.7v-0.6h-3.2
			v-1.1h7.7v1.1h-3.2v0.6c0,1.8,1.4,3.6,3.5,4.4L1416.1,2958.6z M1410.5,2960h9.6v5h-1.3v-3.9h-8.3V2960z M1420.1,2950.6v8.6h-1.3
			v-3.8h-2.8v-1.1h2.8v-3.7H1420.1z"/>
		<path class="st5" d="M1439.6,2958v1.1h-13v-1.1h5.9v-1.7h-4.1v-5.4h1.3v1.6h7v-1.6h1.3v5.4h-4.1v1.7H1439.6z M1428,2960.5h9.9v4.5
			h-1.3v-3.4h-8.6V2960.5z M1429.6,2955.2h7v-1.7h-7V2955.2z"/>
		<path class="st5" d="M1446.4,2955c0,2.4,1.7,4.9,3.8,5.8l-0.7,1.1c-1.7-0.8-3.1-2.4-3.8-4.4c-0.7,2.1-2.1,3.9-3.7,4.7l-0.8-1.1
			c2.1-1,3.8-3.7,3.8-6.2v-1.8h-3.3v-1.1h8v1.1h-3.4V2955z M1453.1,2950.6v14.3h-1.3v-14.3H1453.1z"/>
		<path class="st5" d="M1460.2,2954.6c0,2.5,1.1,5,3.1,6.1l-0.8,1c-1.4-0.8-2.4-2.4-2.9-4.2c-0.5,2-1.5,3.6-3,4.5l-0.8-1
			c2-1.2,3.1-3.8,3.1-6.5v-1.3h-2.7v-1.1h6.5v1.1h-2.6V2954.6z M1464.1,2950.9h1.2v13.3h-1.2v-7.4h-2.4v-1.1h2.4V2950.9z
			 M1468.2,2950.6v14.4h-1.3v-14.4H1468.2z"/>
		<path class="st5" d="M1483.8,2962v1.1h-13v-1.1h5.8v-3.7h-4.2v-6.6h9.7v1.1h-8.4v4.5h8.6v1.1h-4.4v3.7H1483.8z"/>
		<path class="st5" d="M1502.1,2957.9v1.1h-5.7v2.9h-1.3v-2.9h-6v-1.1H1502.1z M1490.5,2953.8c0-1.8,2-2.9,5-2.9s5,1.1,5,2.9
			c0,1.8-2,2.9-5,2.9S1490.5,2955.6,1490.5,2953.8z M1492,2963.5h8.6v1.1h-9.9v-4.2h1.3V2963.5z M1491.9,2953.8
			c0,1.1,1.5,1.8,3.6,1.8c2.2,0,3.6-0.7,3.6-1.8c0-1.1-1.4-1.8-3.6-1.8C1493.4,2952,1491.9,2952.7,1491.9,2953.8z"/>
		<path class="st5" d="M1510.6,2957c-0.7,0.8-1.7,1.2-2.9,1.2c-2.1,0-3.7-1.4-3.7-3.4c0-2,1.6-3.4,3.7-3.4c1.2,0,2.2,0.5,2.9,1.2
			h3.7v-2.1h1.3v8.5h-1.3v-2H1510.6z M1507.7,2957.1c1.4,0,2.4-1,2.4-2.3c0-1.3-1-2.3-2.4-2.3c-1.4,0-2.4,1-2.4,2.3
			C1505.3,2956.2,1506.3,2957.1,1507.7,2957.1z M1515.7,2962.2c0,1.7-1.8,2.8-4.8,2.8c-2.9,0-4.8-1-4.8-2.8c0-1.7,1.8-2.8,4.8-2.8
			C1513.8,2959.4,1515.7,2960.4,1515.7,2962.2z M1514.4,2962.2c0-1.1-1.3-1.7-3.5-1.7c-2.2,0-3.5,0.6-3.5,1.7c0,1.1,1.3,1.7,3.5,1.7
			C1513.1,2963.9,1514.4,2963.2,1514.4,2962.2z M1511.2,2953.7c0.1,0.3,0.2,0.7,0.2,1.1c0,0.4-0.1,0.8-0.2,1.1h3.1v-2.2H1511.2z"/>
	</g>
	<g class="st0">
		<path class="st5" d="M965.7,2796.3c0-1.3,0.9-2.2,2-2.2c1.1,0,2,0.9,2,2.2c0,1.3-0.9,2.1-2,2.1
			C966.6,2798.4,965.7,2797.6,965.7,2796.3z"/>
		<path class="st5" d="M983.3,2795.2c-2,0.4-3.7,0.5-6.7,0.5h-1.1v-6.6h6.4v1.1h-5v4.5c2.8,0,4.5-0.1,6.3-0.5L983.3,2795.2z
			 M978.4,2800.8h8.3v1.1h-9.6v-4.7h1.3V2800.8z M988.1,2792.1v1.1H986v5h-1.3v-10.4h1.3v4.3H988.1z"/>
		<path class="st5" d="M993.8,2792.2c0,2.3,1.2,4.7,3.1,5.7l-0.8,1c-1.4-0.8-2.4-2.2-2.9-4c-0.5,1.8-1.5,3.4-2.9,4.3l-0.8-1
			c1.9-1.2,3-3.7,3-6v-0.7h-2.7v-1.1h2.7v-2.1h1.3v2.1h2.6v1.1h-2.7V2792.2z M997.6,2788.2h1.2v13.3h-1.2v-6.9h-2.2v-1.1h2.2V2788.2
			z M1001.8,2787.8v14.3h-1.3v-14.3H1001.8z"/>
		<path class="st5" d="M1017.3,2799.3v1.1h-13v-1.1h5.8v-3.1h-4.3v-7.3h1.3v2.6h7.3v-2.6h1.3v7.3h-4.3v3.1H1017.3z M1007.1,2795.1
			h7.3v-2.6h-7.3V2795.1z"/>
		<path class="st5" d="M1027.4,2790.4h-8.3v-1.1h3.5v-1.6h1.3v1.6h3.5V2790.4z M1023.2,2796.2c-2,0-3.3-1-3.3-2.5
			c0-1.5,1.4-2.6,3.3-2.6c1.9,0,3.3,1,3.3,2.6C1026.5,2795.2,1025.1,2796.2,1023.2,2796.2z M1023.2,2795.3c1.2,0,2.1-0.6,2.1-1.6
			c0-0.9-0.9-1.6-2.1-1.6c-1.2,0-2.1,0.6-2.1,1.6C1021.1,2794.6,1022,2795.3,1023.2,2795.3z M1021.5,2797.3h9.3v4.7h-9.3V2797.3z
			 M1022.8,2800.9h6.8v-2.6h-6.8V2800.9z M1030.8,2787.8v8.7h-1.3v-3.2h-2.4v-1.1h2.4v-4.4H1030.8z"/>
		<path class="st5" d="M1044.7,2789.4c0,4.1-1.9,7.8-6.5,10.1l-0.7-1c3.7-1.8,5.6-4.6,5.9-8h-5.3v-1.1H1044.7z M1050.7,2794.7h-2.3
			v7.4h-1.3v-14.4h1.3v5.8h2.3V2794.7z"/>
		<path class="st5" d="M1059.9,2791.8c0,2-1.6,3.3-3.8,3.3c-2.2,0-3.7-1.3-3.7-3.3c0-2,1.6-3.3,3.7-3.3
			C1058.3,2788.5,1059.9,2789.9,1059.9,2791.8z M1053.7,2791.8c0,1.3,1,2.2,2.4,2.2c1.5,0,2.5-0.9,2.5-2.2c0-1.3-1-2.2-2.5-2.2
			C1054.7,2789.6,1053.7,2790.5,1053.7,2791.8z M1055.9,2796.2v1.8h6.7v-1.8h1.3v5.7h-9.3v-5.7H1055.9z M1055.9,2800.9h6.7v-1.9
			h-6.7V2800.9z M1063.8,2787.8v7.7h-1.3v-7.7H1063.8z"/>
	</g>
	<g class="st0">
		<path class="st5" d="M965.7,2822.3c0-1.3,0.9-2.2,2-2.2c1.1,0,2,0.9,2,2.2c0,1.3-0.9,2.1-2,2.1
			C966.6,2824.4,965.7,2823.6,965.7,2822.3z"/>
		<path class="st5" d="M982.3,2814.9c0,3.7-2.6,6.5-6.7,7.8l-0.6-1.1c3.3-1.1,5.5-3.1,5.8-5.7h-5.1v-1.1H982.3z M987.1,2826.8v1.1
			h-9.4v-4.5h1.3v3.4H987.1z M985.4,2818.3v-4.4h1.3v10.6h-1.3v-5.1h-3.1v-1.1H985.4z"/>
		<path class="st5" d="M996.8,2814.9c0,3.6-2.5,6.3-6.7,7.6l-0.5-1.1c3.4-1,5.6-3,5.8-5.4h-5.2v-1.1H996.8z M1000.9,2825.4
			c0,1.7-1.8,2.8-4.7,2.8c-2.8,0-4.7-1.1-4.7-2.8c0-1.7,1.8-2.8,4.7-2.8C999.1,2822.6,1000.9,2823.6,1000.9,2825.4z M999.6,2825.4
			c0-1.1-1.3-1.8-3.4-1.8c-2.1,0-3.4,0.7-3.4,1.8c0,1.1,1.3,1.7,3.4,1.7C998.3,2827.1,999.6,2826.5,999.6,2825.4z M1002.8,2817.5
			v1.1h-2.1v3.8h-1.3v-8.6h1.3v3.7H1002.8z"/>
		<path class="st5" d="M1011.7,2814.7c0,3.6-2.5,6.2-6.7,7.4l-0.5-1c3.4-1,5.5-2.8,5.8-5.3h-5.1v-1.1H1011.7z M1006.8,2822.6h9.3
			v5.3h-9.3V2822.6z M1008.1,2826.9h6.7v-3.2h-6.7V2826.9z M1016.1,2813.8v8.2h-1.3v-3.4h-3.1v-1.1h3.1v-3.7H1016.1z"/>
		<path class="st5" d="M1027.1,2822.3c-1.6-0.6-3-1.8-3.6-3.3c-0.6,1.6-1.9,2.9-3.6,3.5l-0.7-1c2.2-0.8,3.6-2.6,3.6-4.7v-0.8h-3.3
			v-1.1h7.9v1.1h-3.2v0.8c0,1.9,1.5,3.7,3.6,4.4L1027.1,2822.3z M1031.2,2826.8v1.1h-9.7v-4.5h1.3v3.4H1031.2z M1030.8,2824.3h-1.3
			v-10.5h1.3V2824.3z"/>
		<path class="st5" d="M1044.8,2820.6h-6.7v-5.9h6.7V2820.6z M1045.2,2824.1c0,1.4,2.2,2.8,4.7,3.1l-0.4,1c-2.2-0.3-4.1-1.3-4.9-2.6
			c-0.9,1.4-2.8,2.3-5,2.6l-0.4-1c2.4-0.3,4.7-1.6,4.8-3.1h-4.2v-1h4.2v-1.4h1.3v1.4h4.2v1H1045.2z M1043.5,2815.8h-4.1v3.8h4.1
			V2815.8z M1049.1,2822.1h-1.3v-8.2h1.3V2822.1z"/>
		<path class="st5" d="M1063.5,2817.9c0,2-1.6,3.3-3.8,3.3c-2.2,0-3.7-1.4-3.7-3.3c0-2,1.6-3.3,3.7-3.3
			C1061.9,2814.6,1063.5,2816,1063.5,2817.9z M1057.2,2817.9c0,1.3,1,2.3,2.4,2.3c1.4,0,2.5-0.9,2.5-2.3c0-1.3-1-2.3-2.5-2.3
			C1058.3,2815.7,1057.2,2816.6,1057.2,2817.9z M1067.4,2822.8v5.2h-9.3v-5.2H1067.4z M1059.4,2823.9v3.1h6.7v-3.1H1059.4z
			 M1067.4,2813.8v8.2h-1.3v-8.2H1067.4z"/>
		<path class="st5" d="M1078.5,2821.9c-1.6-0.6-3-1.8-3.6-3.3c-0.6,1.6-1.9,2.9-3.6,3.5l-0.7-1c2.2-0.8,3.6-2.6,3.6-4.7v-0.6h-3.3
			v-1.1h7.9v1.1h-3.2v0.6c0,1.9,1.5,3.7,3.6,4.4L1078.5,2821.9z M1072.5,2823.3h9.6v4.9h-1.3v-3.9h-8.3V2823.3z M1082.1,2813.8v8.7
			h-1.3v-8.7H1082.1z"/>
		<path class="st5" d="M1089.1,2821.5c-1.4,0.1-2.8,0.1-4,0.1l-0.2-1.1c2.7,0,6.2,0,9.3-0.4l0.1,0.9c-1.3,0.2-2.6,0.3-3.9,0.4v2.8
			h-1.3V2821.5z M1086.1,2816.9c0-1.5,1.4-2.5,3.5-2.5c2.1,0,3.5,1,3.5,2.5c0,1.5-1.4,2.5-3.5,2.5
			C1087.6,2819.4,1086.1,2818.4,1086.1,2816.9z M1097.2,2826.8v1.1H1087v-4.2h1.3v3.1H1097.2z M1087.4,2816.9c0,0.9,0.9,1.5,2.3,1.5
			c1.4,0,2.3-0.6,2.3-1.5c0-0.9-0.9-1.5-2.3-1.5C1088.3,2815.4,1087.4,2816,1087.4,2816.9z M1095.5,2822.3v-8.5h1.3v10.9h-1.3v-1.5
			h-2.9v-1H1095.5z"/>
		<path class="st5" d="M1116.4,2825.1v1.1h-13v-1.1h5v-5.1h1.3v5.1H1116.4z M1113.5,2816.3h-8.8v-1.1h10.1v1.4c0,1.8,0,3.7-0.5,6.6
			l-1.3-0.1c0.5-2.8,0.5-4.8,0.5-6.5V2816.3z"/>
		<path class="st5" d="M1125.2,2822v1.4c2.7,0.1,4.3,0.9,4.3,2.4c0,1.6-1.8,2.4-4.9,2.4c-3.1,0-4.9-0.8-4.9-2.4
			c0-1.4,1.6-2.3,4.3-2.4v-1.4h-5.8v-1.1h13v1.1H1125.2z M1118.9,2819.1c2.7-0.2,4.9-1.3,5-2.9h-4.4v-1h4.5v-1.5h1.3v1.5h4.5v1h-4.4
			c0.1,1.6,2.3,2.6,5,2.9l-0.4,1c-2.4-0.3-4.5-1.1-5.3-2.5c-0.9,1.4-3,2.3-5.3,2.5L1118.9,2819.1z M1124.6,2824.4
			c-2.3,0-3.6,0.5-3.6,1.4c0,0.9,1.3,1.4,3.6,1.4s3.6-0.5,3.6-1.4C1128.2,2824.9,1126.8,2824.4,1124.6,2824.4z"/>
		<path class="st5" d="M1140.4,2821.6c-1.6-0.6-2.8-1.8-3.4-3.2c-0.6,1.7-1.9,3-3.6,3.6l-0.7-1c2.2-0.8,3.6-2.7,3.6-4.9v-1.5h1.3
			v1.6c0,1.9,1.4,3.7,3.5,4.4L1140.4,2821.6z M1144.1,2825.6c0,1.7-1.8,2.6-4.7,2.6c-2.9,0-4.7-0.9-4.7-2.6c0-1.7,1.8-2.6,4.7-2.6
			C1142.3,2822.9,1144.1,2823.9,1144.1,2825.6z M1142.8,2825.6c0-1-1.3-1.6-3.4-1.6c-2.1,0-3.4,0.6-3.4,1.6c0,1,1.3,1.6,3.4,1.6
			C1141.5,2827.1,1142.8,2826.6,1142.8,2825.6z M1146.1,2817.5v1.1h-2.1v3.9h-1.3v-8.7h1.3v3.7H1146.1z"/>
		<path class="st5" d="M1156,2820.6c-2,0.4-3.7,0.5-6.7,0.5h-1.1v-6.4h6.3v1.1h-5v4.2c2.8,0,4.5-0.1,6.3-0.5L1156,2820.6z
			 M1149.7,2822.7h9v5.2h-9V2822.7z M1150.9,2826.9h6.4v-3.2h-6.4V2826.9z M1160.8,2818.4h-2.1v3.5h-1.3v-8.1h1.3v3.5h2.1V2818.4z"
			/>
		<path class="st5" d="M1178.8,2825.3v1.1h-13v-1.1H1178.8z M1169.2,2816.3h-2.2v-1.1h10.6v1.1h-2.2v5h2.2v1.1H1167v-1.1h2.2V2816.3
			z M1174.1,2816.3h-3.6v5h3.6V2816.3z"/>
		<path class="st5" d="M1193.6,2825.3v1.1h-13v-1.1h5.8v-2.7h-4.2v-4.4h8.5v-2.2h-8.5v-1.1h9.8v4.4h-8.5v2.3h8.8v1.1h-4.6v2.7
			H1193.6z"/>
		<path class="st5" d="M1208.3,2825v1.1h-13v-1.1H1208.3z M1205.2,2816.4h-8.5v-1.1h9.8v1.4c0,1.8,0,3.9-0.6,7l-1.3-0.1
			c0.6-2.9,0.6-5.1,0.6-6.9V2816.4z"/>
		<path class="st5" d="M1217,2821.3c-1.8,0.3-3.3,0.4-5.4,0.4h-0.9v-4.1h4.1v-1.9h-4.1v-1.1h5.4v3.9h-4.1v2c1.9,0,3.3-0.1,4.9-0.4
			L1217,2821.3z M1212.7,2823.1h9.4v4.9h-9.4V2823.1z M1214,2826.9h6.9v-2.8h-6.9V2826.9z M1222.1,2813.8v8.6h-1.3v-3.9h-1.9v3.7
			h-1.2v-8.1h1.2v3.4h1.9v-3.6H1222.1z"/>
	</g>
	<g class="st0">
		<path d="M760.9,2810.8c2.6,0,6.2,0,9.3-0.5l0.1,1.2c-3.2,0.6-6.6,0.6-9.2,0.6L760.9,2810.8z M769.4,2805.3c0,2-1.7,3.5-3.9,3.5
			s-3.9-1.4-3.9-3.5s1.7-3.5,3.9-3.5S769.4,2803.2,769.4,2805.3z M763.2,2805.3c0,1.2,1,2.1,2.3,2.1c1.3,0,2.3-0.8,2.3-2.1
			c0-1.3-1-2.1-2.3-2.1C764.1,2803.2,763.2,2804,763.2,2805.3z M772.7,2800.8v14.5H771v-14.5H772.7z"/>
		<path d="M788.6,2812.2v1.4h-13.1v-1.4h3.5v-2.5h-1.9v-4.6h8.3v-1.9h-8.4v-1.3h10v4.6h-8.3v2h8.7v1.3h-2.1v2.5H788.6z
			 M780.7,2812.2h3v-2.5h-3V2812.2z"/>
		<path d="M801.4,2807.7h-6.9v-6h6.9V2807.7z M801.9,2811.2c0.1,1.2,2,2.5,4.7,2.8l-0.5,1.2c-2.3-0.3-4.1-1.2-5-2.4
			c-0.9,1.3-2.7,2.2-5,2.4l-0.5-1.2c2.7-0.3,4.6-1.5,4.7-2.8h-4.1v-1.3h4.1v-1.3h1.7v1.3h4.1v1.3H801.9z M799.8,2803h-3.6v3.4h3.6
			V2803z M805.8,2809h-1.7v-8.3h1.7V2809z"/>
		<path d="M819.7,2801.9c0,3.8-2.5,6.6-6.7,8l-0.7-1.3c3.2-1,5.3-3,5.6-5.3h-4.9v-1.3H819.7z M824.5,2813.6v1.3h-9.6v-4.6h1.6v3.3
			H824.5z M822.5,2805.1v-4.3h1.6v10.6h-1.6v-4.9h-2.8v-1.4H822.5z"/>
		<path d="M834.2,2801.8c0,3.8-2.5,6.5-6.7,7.7l-0.7-1.3c3.3-1,5.3-2.8,5.6-5h-5v-1.3H834.2z M838.3,2812.4c0,1.8-1.9,2.9-4.8,2.9
			c-2.9,0-4.8-1.1-4.8-2.9c0-1.8,1.9-2.9,4.8-2.9C836.5,2809.5,838.3,2810.6,838.3,2812.4z M836.7,2812.4c0-1-1.2-1.6-3.1-1.6
			c-1.9,0-3.1,0.6-3.1,1.6c0,1,1.2,1.6,3.1,1.6C835.5,2813.9,836.7,2813.4,836.7,2812.4z M840.2,2804.3v1.4h-2v3.6h-1.6v-8.5h1.6
			v3.6H840.2z"/>
		<path d="M854.7,2807.6v1.3h-13.1v-1.3H854.7z M842.3,2805.5c2.7-0.3,4.6-1.4,4.8-2.7h-4.2v-1.3h10.7v1.3h-4.2
			c0.2,1.3,2.1,2.5,4.8,2.7l-0.6,1.3c-2.6-0.3-4.5-1.3-5.3-2.8c-0.8,1.5-2.8,2.5-5.3,2.8L842.3,2805.5z M853.1,2812.6
			c0,1.7-1.9,2.6-5,2.6c-3.1,0-5-1-5-2.6s1.9-2.7,5-2.7C851.2,2809.9,853.1,2810.9,853.1,2812.6z M851.4,2812.6
			c0-0.9-1.2-1.4-3.3-1.4s-3.3,0.5-3.3,1.4c0,0.9,1.2,1.3,3.3,1.3S851.4,2813.5,851.4,2812.6z"/>
		<path d="M864.4,2809.4c-1.7-0.5-2.9-1.7-3.5-3.1c-0.6,1.5-1.9,2.8-3.6,3.3l-0.9-1.3c2.3-0.8,3.6-2.6,3.6-4.6v-0.5h-3.1v-1.3h7.9
			v1.3h-3.1v0.5c0,1.8,1.3,3.6,3.5,4.3L864.4,2809.4z M868.7,2813.6v1.3h-9.9v-4.6h1.7v3.3H868.7z M868.2,2811.3h-1.6v-10.5h1.6
			V2811.3z"/>
	</g>
	<g class="st0">
		<path d="M764.9,2876.8c-2.2,0-3.8-1.3-3.8-3.2c0-1.9,1.6-3.3,3.8-3.3c2.2,0,3.8,1.4,3.8,3.3
			C768.7,2875.4,767.1,2876.8,764.9,2876.8z M764.9,2875.4c1.3,0,2.2-0.8,2.2-1.9s-0.9-1.9-2.2-1.9c-1.2,0-2.2,0.8-2.2,1.9
			S763.6,2875.4,764.9,2875.4z M773.2,2882.8v1.3h-9.9v-3.8h7.8v-1.2h-7.8v-1.3h9.5v3.7h-7.8v1.3H773.2z M772.7,2877.1h-1.6v-7.3
			h1.6V2877.1z"/>
		<path d="M778,2877.1c0-0.8,0.5-1.3,1.2-1.3c0.7,0,1.2,0.5,1.2,1.3c0,0.7-0.5,1.3-1.2,1.3C778.6,2878.4,778,2877.9,778,2877.1z"/>
		<path d="M792.1,2871.3c0,4.2-1.8,7.9-6.5,10.3l-0.9-1.3c3.5-1.8,5.4-4.4,5.8-7.7h-5.1v-1.3H792.1z M798.1,2876.9h-2.2v7.4h-1.6
			v-14.5h1.6v5.7h2.2V2876.9z"/>
		<path d="M807.2,2877.9c-1.6-0.6-2.8-1.7-3.4-3.1c-0.6,1.6-1.9,2.9-3.6,3.5l-0.8-1.3c2.2-0.8,3.5-2.7,3.5-4.7v-0.2h-3.1v-1.3h7.7
			v1.3h-3v0.2c0,1.8,1.2,3.6,3.4,4.4L807.2,2877.9z M811.5,2881.5c0,1.7-1.9,2.7-4.9,2.7c-3,0-4.9-1-4.9-2.7c0-1.7,1.9-2.7,4.9-2.7
			C809.6,2878.8,811.5,2879.8,811.5,2881.5z M809.8,2881.5c0-0.9-1.2-1.5-3.2-1.5c-2.1,0-3.2,0.5-3.2,1.5s1.2,1.5,3.2,1.5
			C808.6,2883,809.8,2882.5,809.8,2881.5z M809.8,2873.4v-3.6h1.6v8.6h-1.6v-3.6h-2.6v-1.3H809.8z"/>
		<path d="M821.8,2877.5c-2.2,0-3.8-1.4-3.8-3.5c0-2,1.6-3.4,3.8-3.4c2.2,0,3.9,1.4,3.9,3.4C825.6,2876.1,824,2877.5,821.8,2877.5z
			 M821.8,2876.1c1.3,0,2.2-0.8,2.2-2.1c0-1.2-0.9-2.1-2.2-2.1c-1.3,0-2.2,0.8-2.2,2.1C819.6,2875.3,820.5,2876.1,821.8,2876.1z
			 M829.2,2881.5c0,1.7-1.8,2.8-4.8,2.8c-3,0-4.8-1-4.8-2.8c0-1.7,1.9-2.8,4.8-2.8C827.4,2878.7,829.2,2879.7,829.2,2881.5z
			 M827.6,2881.5c0-1-1.2-1.5-3.2-1.5c-2,0-3.2,0.5-3.2,1.5c0,0.9,1.2,1.5,3.2,1.5C826.4,2882.9,827.6,2882.4,827.6,2881.5z
			 M829,2873.1v1.8h2v1.4h-2v2h-1.6v-8.5h1.6v2h2v1.4H829z"/>
		<path d="M841.4,2877.1c-2.3,0.4-4.2,0.4-7,0.4h-1.2v-4.2h5v-1.5h-5v-1.3h6.6v4.1h-4.9v1.6c2.5,0,4.3-0.1,6.4-0.4L841.4,2877.1z
			 M842.8,2878.4h1.6v5.6h-9.5v-5.6h1.6v1.5h6.2V2878.4z M842.8,2881.2h-6.2v1.5h6.2V2881.2z M844.4,2869.8v8h-1.6v-8H844.4z"/>
		<path d="M858.4,2876.7h-6.9v-6h6.9V2876.7z M858.9,2880.2c0.1,1.2,2,2.5,4.7,2.8l-0.5,1.2c-2.3-0.3-4.1-1.2-5-2.4
			c-0.9,1.3-2.7,2.2-5,2.4l-0.5-1.2c2.7-0.3,4.6-1.5,4.7-2.8H853v-1.3h4.1v-1.3h1.7v1.3h4.1v1.3H858.9z M856.8,2872h-3.6v3.4h3.6
			V2872z M862.7,2878H861v-8.3h1.7V2878z"/>
	</g>
	<g class="st0">
		<path d="M765.9,2898c0,2.2,1.4,4.8,3.6,5.8l-0.9,1.3c-1.6-0.8-2.8-2.4-3.5-4.2c-0.6,2-1.9,3.7-3.6,4.6l-0.9-1.3
			c2.2-1.1,3.7-3.8,3.7-6.2v-1.4h-3.2v-1.4h7.9v1.4h-3.1V2898z M774.3,2900.8H772v7.4h-1.6v-14.5h1.6v5.7h2.3V2900.8z"/>
		<path d="M783.2,2895.3c0,4.3-1.7,8-6.7,10.4l-0.9-1.3c3.8-1.8,5.6-4.4,5.9-7.7h-5.2v-1.3H783.2z M787.5,2893.8v14.5h-1.6v-14.5
			H787.5z"/>
		<path d="M796.5,2895.6c0,3.9-1.3,7.3-5.3,9.6l-1-1.2c3.1-1.8,4.4-4.2,4.7-7.1h-4v-1.3H796.5z M802.5,2893.8v14.5H801v-7.5h-1.6
			v6.8h-1.6v-13.4h1.6v5.3h1.6v-5.7H802.5z"/>
		<path d="M812.3,2900.7h-6.8v-6.3h1.6v1.9h3.5v-1.9h1.6V2900.7z M808.6,2906.8h8.2v1.3H807v-3.8h7.7v-1.2h-7.7v-1.3h9.3v3.7h-7.7
			V2906.8z M810.7,2897.6h-3.5v1.8h3.5V2897.6z M818.3,2896.7v1.4h-2v3.1h-1.6v-7.4h1.6v3H818.3z"/>
	</g>
	<g class="st0">
		<path d="M773.9,2975.1v1.4h-13.1v-1.4h5.7v-2.9h-4.2v-7.5h1.6v2.4h6.9v-2.4h1.6v7.5h-4.2v2.9H773.9z M763.9,2970.9h6.9v-2.4h-6.9
			V2970.9z"/>
		<path d="M783.1,2971.7c-1.6-0.6-2.7-1.7-3.3-3c-0.6,1.6-1.8,2.8-3.5,3.4l-0.9-1.3c2.3-0.8,3.5-2.8,3.5-4.8v-1.4h1.7v1.6
			c0,1.9,1.2,3.6,3.4,4.3L783.1,2971.7z M787,2975.5c0,1.7-1.8,2.7-4.8,2.7c-3,0-4.8-1-4.8-2.7c0-1.7,1.8-2.7,4.8-2.7
			C785.2,2972.8,787,2973.8,787,2975.5z M785.3,2975.5c0-0.9-1.2-1.4-3.2-1.4c-2,0-3.2,0.5-3.2,1.4c0,0.9,1.2,1.4,3.2,1.4
			C784.2,2976.9,785.3,2976.4,785.3,2975.5z M788.9,2967.3v1.4h-2v3.7h-1.6v-8.7h1.6v3.6H788.9z"/>
		<path d="M794.6,2967.7c0,2.5,0.9,5,2.9,6.1l-1,1.2c-1.4-0.8-2.3-2.2-2.8-3.9c-0.5,1.8-1.4,3.4-2.8,4.3l-1-1.2c2-1.3,3-3.9,3-6.5
			v-1h-2.5v-1.4h6.5v1.4h-2.4V2967.7z M798.1,2964.1h1.6v13.5h-1.6v-7.3H796v-1.3h2.1V2964.1z M802.6,2963.8v14.5H801v-14.5H802.6z"
			/>
		<path d="M818.1,2975.1v1.4H805v-1.4h5.7v-3.4h-4.1v-6.9h9.9v1.3h-8.2v4.2h8.4v1.3h-4.3v3.4H818.1z"/>
	</g>
</g>
</svg>
