<?xml version="1.0" encoding="utf-8"?>
<!-- Generator: Adobe Illustrator 25.1.0, SVG Export Plug-In . SVG Version: 6.00 Build 0)  -->
<svg version="1.1" id="레이어_1" xmlns="http://www.w3.org/2000/svg" xmlns:xlink="http://www.w3.org/1999/xlink" x="0px"
	 y="0px" viewBox="0 0 424.4 330.1" style="enable-background:new 0 0 424.4 330.1;" xml:space="preserve">
<style type="text/css">
	.st0{fill:none;stroke:#D6D6D6;stroke-width:0.9992;}
	.st1{fill:none;stroke:#CBCBCB;}
	.st2{enable-background:new    ;}
	.st3{fill:#555555;}
	.st4{fill:none;stroke:#D6D6D6;}
	.st5{fill:none;stroke:#707070;}
</style>
<g id="그룹_5917" transform="translate(-20 -2017.969)">
	<line id="선_403" class="st0" x1="108.4" y1="2018.6" x2="108.4" y2="2347.6"/>
	<path id="패스_1678" class="st1" d="M20,2059.6h424.4"/>
	<path id="패스_1679" class="st1" d="M20,2158h424.4"/>
	<path id="패스_3433" class="st1" d="M20,2284.3h424.4"/>
	<path id="패스_1680" class="st1" d="M20,2219.6h424.4"/>
	<g class="st2">
		<path d="M273.6,2039.6c-1.2-0.4-2-1.2-2.5-2.3c-0.5,1.2-1.4,2.1-2.6,2.6l-0.7-1c1.7-0.6,2.6-2.1,2.6-3.6v-1.1h1.2v1.2
			c0,1.4,0.9,2.7,2.5,3.2L273.6,2039.6z M276.6,2042.5c0,1.3-1.4,2-3.6,2s-3.6-0.8-3.6-2c0-1.3,1.4-2,3.6-2
			S276.6,2041.2,276.6,2042.5z M275.3,2042.5c0-0.7-0.9-1.1-2.4-1.1s-2.4,0.4-2.4,1.1c0,0.7,0.9,1.1,2.4,1.1
			S275.3,2043.2,275.3,2042.5z M278,2036.4v1h-1.5v2.8h-1.2v-6.5h1.2v2.7H278z"/>
		<path d="M282.4,2036.6c0,1.8,0.7,3.6,2.1,4.5l-0.7,1c-1-0.6-1.6-1.7-2-2.9c-0.4,1.3-1.1,2.5-2.1,3.1l-0.8-0.9
			c1.5-0.9,2.3-2.9,2.3-4.7v-2h1.2V2036.6z M284.9,2033.9h1.2v10.1h-1.2v-5.5h-1.6v-1h1.6V2033.9z M288.3,2033.7v10.8h-1.2v-10.8
			H288.3z"/>
	</g>
	<g class="st2">
		<path d="M39.4,2040h-4.3v4.5h-1.2v-4.5h-4.2v-1h7c0.3-1.5,0.3-2.6,0.3-3.6h-6.2v-1h7.4v0.9c0,1,0,2.1-0.3,3.7h1.5V2040z"/>
		<path d="M50.4,2039.3v1h-4.2v1.9H45v-1.9h-4.4v-1H50.4z M43,2043.3h6.3v1h-7.5v-3H43V2043.3z M49.1,2038.4h-7.3v-4.4H43v1.2h4.8
			v-1.2H49L49.1,2038.4L49.1,2038.4z M47.9,2036.2h-4.8v1.2h4.8V2036.2z"/>
	</g>
	<g class="st2">
		<path d="M39.4,2101.8h-4.3v3.8h-1.2v-3.8h-4.2v-1h9.8L39.4,2101.8z M30.2,2099c2.1-0.3,3.6-1.5,3.7-2.7h-3.3v-1h8v1h-3.3
			c0.1,1.3,1.6,2.4,3.7,2.7l-0.4,1c-1.8-0.3-3.3-1.2-3.9-2.4c-0.7,1.2-2.1,2.1-3.9,2.4L30.2,2099z"/>
		<path d="M46.1,2095.8c0,3.2-1.2,5.9-4.8,7.7l-0.7-1c2.8-1.4,4-3.3,4.2-5.8H41v-1h5.1V2095.8z M49.6,2094.7v10.8h-1.2v-5.6H46v-1
			h2.3v-4.3h1.3V2094.7z"/>
		<path d="M60.1,2099.9H55v-4.5h5.1V2099.9z M60.4,2102.5c0.1,0.9,1.5,1.9,3.5,2.1l-0.4,0.9c-1.7-0.2-3.1-0.9-3.7-1.8
			c-0.7,0.9-2,1.6-3.8,1.8l-0.4-0.9c2-0.2,3.4-1.2,3.5-2.1H56v-0.9h3.1v-1h1.3v1h3.1v0.9H60.4z M58.9,2096.3h-2.7v2.5h2.7V2096.3z
			 M63.3,2100.9h-1.2v-6.2h1.2V2100.9z"/>
	</g>
	<g class="st2">
		<path d="M34.4,2116.6c-1-0.4-1.6-1.1-2-2c-0.4,1-1.1,1.8-2.1,2.3l-0.6-0.9c1.5-0.7,2.2-2,2.2-3.2v-1.4h1.2v1.4
			c0,1.2,0.7,2.4,2.1,2.9L34.4,2116.6z M38.8,2119.5c0,1.2-1.4,2-3.7,2s-3.7-0.7-3.7-2c0-1.2,1.4-2,3.7-2S38.8,2118.3,38.8,2119.5z
			 M37.6,2119.5c0-0.7-0.9-1-2.4-1s-2.4,0.4-2.4,1c0,0.7,0.9,1,2.4,1C36.7,2120.6,37.6,2120.2,37.6,2119.5z M36.5,2117h-1.2v-6.1
			h1.2v2.6h1.1v-2.8h1.2v6.6h-1.2v-2.9h-1.1V2117z"/>
		<path d="M47.4,2116.5c-2.3,0.4-4.8,0.4-6.7,0.4l-0.1-0.9c0.8,0,1.8,0,2.8,0v-0.6c-1.2-0.1-2-0.6-2-1.4c0-0.9,1-1.4,2.6-1.4
			s2.6,0.5,2.6,1.4c0,0.8-0.7,1.3-1.9,1.4v0.6c0.9,0,1.9-0.1,2.8-0.2L47.4,2116.5z M47,2112.3h-6.2v-0.9h2.5v-0.9h1.2v0.9H47V2112.3
			z M43.2,2120.6h6.3v0.9H42v-2.4h5.9v-0.7H42v-0.8h7.1v2.3h-5.9C43.2,2119.9,43.2,2120.6,43.2,2120.6z M43.9,2114.6
			c0.9,0,1.4-0.2,1.4-0.6c0-0.4-0.5-0.6-1.4-0.6s-1.4,0.2-1.4,0.6S43.1,2114.6,43.9,2114.6z M50.6,2113.4v1h-1.5v2.7h-1.2v-6.4h1.2
			v2.7H50.6z"/>
		<path d="M54.7,2116.8c-1.6,0-2.9-1.1-2.9-2.7s1.2-2.7,2.9-2.7c1.6,0,2.9,1.1,2.9,2.7S56.3,2116.8,54.7,2116.8z M54.7,2115.8
			c0.9,0,1.7-0.6,1.7-1.6s-0.7-1.6-1.7-1.6c-0.9,0-1.7,0.6-1.7,1.6C53,2115.1,53.8,2115.8,54.7,2115.8z M54.5,2120.3h6v1h-7.3v-3.5
			h1.2L54.5,2120.3L54.5,2120.3z M61.7,2113.9v1h-1.5v3.7H59v-7.9h1.2v3.2H61.7z"/>
		<path d="M68.6,2116.8c-1.2-0.4-2.1-1.3-2.5-2.3c-0.5,1.2-1.4,2.1-2.7,2.6l-0.6-1c1.7-0.6,2.7-2,2.7-3.5v-0.2h-2.3v-1H69v1h-2.3
			v0.1c0,1.4,0.9,2.7,2.5,3.3L68.6,2116.8z M71.8,2119.5c0,1.3-1.4,2.1-3.6,2.1c-2.3,0-3.7-0.8-3.7-2.1s1.4-2.1,3.7-2.1
			C70.4,2117.4,71.8,2118.2,71.8,2119.5z M70.5,2119.5c0-0.7-0.9-1.1-2.4-1.1s-2.4,0.4-2.4,1.1c0,0.7,0.9,1.1,2.4,1.1
			S70.5,2120.2,70.5,2119.5z M70.5,2113.4v-2.7h1.2v6.5h-1.2v-2.7h-1.9v-1h1.9V2113.4z"/>
	</g>
	<g class="st2">
		<path d="M29.7,2183.2c1.9,0,4.6,0,7-0.4l0.1,0.9c-2.4,0.5-5,0.5-6.9,0.5L29.7,2183.2z M36.1,2179.1c0,1.5-1.3,2.6-3,2.6
			s-2.9-1.1-2.9-2.6s1.2-2.6,2.9-2.6C34.8,2176.4,36.1,2177.5,36.1,2179.1z M31.4,2179.1c0,0.9,0.7,1.5,1.7,1.5s1.7-0.6,1.7-1.5
			s-0.7-1.5-1.7-1.5C32.1,2177.5,31.4,2178.1,31.4,2179.1z M38.5,2175.7v10.9h-1.2v-10.9H38.5z"/>
		<path d="M50.5,2184.2v1h-9.8v-1h2.6v-1.9h-1.4v-3.5h6.2v-1.4h-6.3v-1h7.5v3.4h-6.2v1.5h6.5v1H48v1.9H50.5z M44.5,2184.2h2.2v-1.9
			h-2.2V2184.2z"/>
		<path d="M60.1,2180.9H55v-4.5h5.1V2180.9z M60.4,2183.5c0.1,0.9,1.5,1.9,3.5,2.1l-0.4,0.9c-1.7-0.2-3.1-0.9-3.7-1.8
			c-0.7,0.9-2,1.6-3.8,1.8l-0.4-0.9c2-0.2,3.4-1.2,3.5-2.1H56v-0.9h3.1v-1h1.3v1h3.1v0.9H60.4z M58.9,2177.3h-2.7v2.5h2.7V2177.3z
			 M63.3,2181.9h-1.2v-6.2h1.2V2181.9z"/>
	</g>
	<g class="st2">
		<path d="M35.3,2192.5c0,2.9-1.9,5-5,6l-0.5-1c2.4-0.8,4-2.2,4.2-4h-3.6v-1H35.3z M38.9,2201.3v1h-7.2v-3.5h1.2v2.4h6V2201.3z
			 M37.3,2194.9v-3.2h1.2v8h-1.2v-3.7h-2.1v-1h2.1V2194.9z"/>
		<path d="M46.2,2192.4c0,2.8-1.9,4.8-5,5.8l-0.5-1c2.5-0.7,4-2.1,4.2-3.8h-3.7v-1H46.2z M49.2,2200.4c0,1.3-1.4,2.1-3.6,2.1
			c-2.2,0-3.6-0.8-3.6-2.1s1.4-2.2,3.6-2.2S49.2,2199,49.2,2200.4z M48,2200.4c0-0.8-0.9-1.2-2.4-1.2c-1.4,0-2.4,0.4-2.4,1.2
			c0,0.7,0.9,1.2,2.4,1.2S48,2201.1,48,2200.4z M50.6,2194.4v1h-1.5v2.7h-1.2v-6.4h1.2v2.7H50.6z"/>
		<path d="M61.5,2196.8v1h-9.8v-1H61.5z M52.2,2195.3c2-0.2,3.4-1.1,3.6-2.1h-3.2v-1h8v1h-3.2c0.2,1,1.6,1.8,3.6,2.1l-0.4,1
			c-1.9-0.2-3.4-1-4-2.1c-0.6,1.1-2.1,1.9-4,2.1L52.2,2195.3z M60.3,2200.5c0,1.3-1.4,2-3.7,2s-3.7-0.7-3.7-2s1.4-2,3.7-2
			C58.9,2198.6,60.3,2199.3,60.3,2200.5z M59,2200.5c0-0.7-0.9-1-2.5-1s-2.5,0.3-2.5,1s0.9,1,2.5,1S59,2201.2,59,2200.5z"/>
		<path d="M68.8,2198.1c-1.2-0.4-2.2-1.2-2.6-2.3c-0.5,1.2-1.4,2.1-2.7,2.5l-0.6-1c1.7-0.6,2.7-2,2.7-3.4v-0.4h-2.4v-1h5.9v1h-2.3
			v0.4c0,1.4,1,2.7,2.7,3.2L68.8,2198.1z M72,2201.3v1h-7.4v-3.5h1.2v2.4H72V2201.3z M71.7,2199.6h-1.2v-7.9h1.2V2199.6z"/>
	</g>
	<g class="st2">
		<path d="M32.6,2244.9c-1.6,0-2.8-1-2.8-2.4s1.2-2.4,2.8-2.4s2.9,1,2.9,2.4S34.3,2244.9,32.6,2244.9z M32.6,2243.9
			c0.9,0,1.7-0.6,1.7-1.4s-0.7-1.4-1.7-1.4c-0.9,0-1.6,0.6-1.6,1.4S31.7,2243.9,32.6,2243.9z M38.9,2249.4v1h-7.4v-2.8h5.9v-0.9
			h-5.9v-1h7.1v2.8h-5.9v1h6.2V2249.4z M38.5,2245.2h-1.2v-5.5h1.2V2245.2z"/>
		<path d="M42.5,2245.2c0-0.6,0.4-1,0.9-1s0.9,0.4,0.9,1s-0.4,1-0.9,1S42.5,2245.8,42.5,2245.2z"/>
		<path d="M53.1,2240.8c0,3.1-1.3,5.9-4.9,7.7l-0.7-0.9c2.7-1.4,4.1-3.3,4.3-5.8H48v-1H53.1z M57.6,2245H56v5.5h-1.2v-10.8H56v4.3
			h1.6V2245z"/>
		<path d="M64.4,2245.8c-1.2-0.4-2.1-1.3-2.5-2.3c-0.5,1.2-1.4,2.1-2.7,2.6l-0.6-1c1.7-0.6,2.7-2,2.7-3.5v-0.2H59v-1h5.8v1h-2.3v0.1
			c0,1.4,0.9,2.7,2.5,3.3L64.4,2245.8z M67.6,2248.5c0,1.3-1.4,2.1-3.6,2.1c-2.3,0-3.7-0.8-3.7-2.1s1.4-2.1,3.7-2.1
			C66.2,2246.4,67.6,2247.2,67.6,2248.5z M66.4,2248.5c0-0.7-0.9-1.1-2.4-1.1s-2.4,0.4-2.4,1.1c0,0.7,0.9,1.1,2.4,1.1
			S66.4,2249.2,66.4,2248.5z M66.3,2242.4v-2.7h1.2v6.5h-1.2v-2.7h-1.9v-1h1.9V2242.4z"/>
		<path d="M75.3,2245.5c-1.6,0-2.9-1.1-2.9-2.6s1.2-2.6,2.9-2.6c1.7,0,2.9,1.1,2.9,2.6C78.2,2244.4,77,2245.5,75.3,2245.5z
			 M75.3,2244.4c1,0,1.7-0.6,1.7-1.5s-0.7-1.5-1.7-1.5s-1.7,0.6-1.7,1.5C73.7,2243.8,74.4,2244.4,75.3,2244.4z M80.9,2248.4
			c0,1.3-1.4,2.1-3.6,2.1s-3.6-0.8-3.6-2.1s1.4-2.1,3.6-2.1C79.5,2246.4,80.9,2247.1,80.9,2248.4z M79.7,2248.4
			c0-0.7-0.9-1.1-2.4-1.1s-2.4,0.4-2.4,1.1c0,0.7,0.9,1.1,2.4,1.1C78.8,2249.5,79.7,2249.2,79.7,2248.4z M80.8,2242.2v1.3h1.5v1
			h-1.5v1.5h-1.2v-6.4h1.2v1.5h1.5v1L80.8,2242.2L80.8,2242.2z"/>
		<path d="M90.1,2245.2c-1.7,0.3-3.2,0.3-5.2,0.3H84v-3.1h3.7v-1.1H84v-1h5v3.1h-3.7v1.2c1.9,0,3.2-0.1,4.8-0.3L90.1,2245.2z
			 M91.1,2246.2h1.2v4.2h-7.1v-4.2h1.2v1.1H91v-1.1H91.1z M91.1,2248.3h-4.6v1.1h4.6V2248.3z M92.3,2239.7v6H91v-6H92.3z"/>
	</g>
	<g class="st2">
		<path d="M35.3,2260.9h-5.1v-4.5h5.1V2260.9z M35.6,2263.5c0.1,0.9,1.5,1.9,3.5,2.1l-0.4,0.9c-1.7-0.2-3.1-0.9-3.7-1.8
			c-0.7,0.9-2,1.6-3.8,1.8l-0.4-0.9c2-0.2,3.4-1.2,3.5-2.1h-3.1v-0.9h3.1v-1h1.3v1h3.1v0.9H35.6z M34.1,2257.3h-2.7v2.5h2.7V2257.3z
			 M38.5,2261.9h-1.2v-6.2h1.2V2261.9z"/>
		<path d="M47.1,2258.8c0,1.7,1.1,3.6,2.7,4.4l-0.7,1c-1.2-0.6-2.1-1.8-2.6-3.1c-0.5,1.5-1.4,2.8-2.7,3.4l-0.7-1
			c1.7-0.8,2.8-2.8,2.8-4.6v-1h-2.4v-1h5.9v1h-2.3V2258.8z M53.4,2261h-1.7v5.5h-1.2v-10.8h1.2v4.3h1.7V2261z"/>
		<path d="M60.1,2256.8c0,3.2-1.3,6-5,7.8l-0.7-1c2.8-1.4,4.2-3.3,4.4-5.8H55v-1H60.1z M63.3,2255.7v10.8h-1.2v-10.8H63.3z"/>
		<path d="M70.1,2257.1c0,2.9-0.9,5.4-4,7.2l-0.7-0.9c2.3-1.4,3.3-3.1,3.5-5.3h-3v-1H70.1z M74.6,2255.7v10.8h-1.2v-5.6h-1.2v5.1H71
			v-10h1.2v3.9h1.2v-4.2H74.6z"/>
		<path d="M82,2260.9h-5.1v-4.7h1.2v1.4h2.7v-1.4H82V2260.9z M79.2,2265.5h6.1v1H78v-2.8h5.7v-0.9h-5.8v-1h7v2.8h-5.8v0.9H79.2z
			 M80.7,2258.5H78v1.4h2.7V2258.5z M86.5,2257.9v1H85v2.3h-1.2v-5.6H85v2.2h1.5V2257.9z"/>
	</g>
	<g class="st2">
		<path d="M39.4,2319.2v1h-9.8v-1h4.3v-2.2h-3.2v-5.6h1.2v1.8H37v-1.8h1.2v5.6H35v2.2H39.4z M31.9,2316H37v-1.8h-5.1V2316z"/>
		<path d="M46.3,2316.6c-1.2-0.4-2-1.2-2.5-2.3c-0.5,1.2-1.4,2.1-2.6,2.6l-0.7-1c1.7-0.6,2.6-2.1,2.6-3.6v-1.1h1.2v1.2
			c0,1.4,0.9,2.7,2.5,3.2L46.3,2316.6z M49.2,2319.5c0,1.3-1.4,2-3.6,2c-2.2,0-3.6-0.8-3.6-2c0-1.3,1.4-2,3.6-2
			C47.9,2317.5,49.2,2318.2,49.2,2319.5z M48,2319.5c0-0.7-0.9-1.1-2.4-1.1s-2.4,0.4-2.4,1.1c0,0.7,0.9,1.1,2.4,1.1
			S48,2320.2,48,2319.5z M50.6,2313.4v1h-1.5v2.8h-1.2v-6.5h1.2v2.7H50.6z"/>
		<path d="M55,2313.7c0,1.8,0.7,3.7,2.2,4.6l-0.7,0.9c-1-0.6-1.7-1.7-2.1-2.9c-0.4,1.4-1.1,2.5-2.1,3.2l-0.7-0.9
			c1.5-1,2.3-2.9,2.3-4.8v-0.8H52v-1h4.9v1H55V2313.7z M57.6,2310.9h1.2v10.1h-1.2v-5.5H56v-1h1.6V2310.9z M60.9,2310.7v10.8h-1.2
			v-10.8H60.9z"/>
		<path d="M72.5,2319.2v1h-9.8v-1H67v-2.6h-3.1v-5.1h7.4v1h-6.2v3.2h6.3v1h-3.2v2.6L72.5,2319.2L72.5,2319.2z"/>
	</g>
	<g id="그룹_5911" transform="translate(-15)">
		<g class="st2">
			<path class="st3" d="M139,2081.1c0-1,0.7-1.6,1.5-1.6s1.5,0.6,1.5,1.6s-0.7,1.6-1.5,1.6S139,2082,139,2081.1z"/>
		</g>
		<g class="st2">
			<path class="st3" d="M139,2099.1c0-1,0.7-1.6,1.5-1.6s1.5,0.6,1.5,1.6s-0.7,1.6-1.5,1.6S139,2100,139,2099.1z"/>
		</g>
		<g class="st2">
			<path class="st3" d="M139,2135.1c0-1,0.7-1.6,1.5-1.6s1.5,0.6,1.5,1.6s-0.7,1.6-1.5,1.6S139,2136,139,2135.1z"/>
		</g>
		<g class="st2">
			<path class="st3" d="M154.7,2076.9c0,3.1-1.4,5.8-5,7.6l-0.5-0.8c2.9-1.4,4.3-3.4,4.5-6h-4v-0.8H154.7z M157.9,2075.7v10.8h-1
				v-10.8H157.9z"/>
			<path class="st3" d="M165.5,2081.6v1.4h3.2v3.5h-1v-2.7h-6.5v-0.8h3.3v-1.4h-4.4v-0.8h9.7v0.8H165.5z M168.9,2080
				c-1.7-0.3-3.3-1.1-3.9-2.4c-0.7,1.2-2.3,2.1-3.9,2.4l-0.4-0.8c1.9-0.3,3.8-1.5,3.8-2.8v-0.5h1v0.5c0,1.4,1.9,2.6,3.8,2.8
				L168.9,2080z"/>
			<path class="st3" d="M174.8,2078.6c0,1.9,1.2,3.8,2.7,4.6l-0.6,0.8c-1.1-0.6-2.1-1.9-2.6-3.3c-0.5,1.6-1.5,2.9-2.7,3.6l-0.6-0.8
				c1.5-0.8,2.8-2.9,2.8-4.8v-1.9h1L174.8,2078.6L174.8,2078.6z M181.2,2080.9h-1.8v5.6h-1v-10.7h1v4.4h1.8V2080.9z"/>
			<path class="st3" d="M188.7,2079c0,1.8,1.3,3.7,2.9,4.4l-0.6,0.8c-1.2-0.6-2.3-1.8-2.8-3.3c-0.5,1.6-1.5,2.9-2.8,3.5l-0.6-0.8
				c1.5-0.7,2.9-2.8,2.9-4.6v-1.4h-2.5v-0.8h6v0.8h-2.5L188.7,2079L188.7,2079z M193.7,2075.7v10.7h-1v-10.7H193.7z"/>
			<path class="st3" d="M199,2081.5c-1.1,0-2.1,0.1-3,0.1l-0.1-0.8c2,0,4.7,0,6.9-0.3l0.1,0.7c-0.9,0.1-1.9,0.3-2.9,0.3v2.1h-1
				V2081.5z M196.7,2078c0-1.1,1.1-1.9,2.7-1.9c1.6,0,2.7,0.7,2.7,1.9s-1.1,1.9-2.7,1.9C197.8,2079.9,196.7,2079.2,196.7,2078z
				 M205,2085.4v0.8h-7.6v-3.1h1v2.3H205z M197.6,2078c0,0.7,0.7,1.2,1.7,1.2s1.7-0.5,1.7-1.2s-0.7-1.1-1.7-1.1
				S197.6,2077.3,197.6,2078z M203.7,2082.1v-6.4h1v8.2h-1v-1.1h-2.2v-0.7H203.7z"/>
		</g>
		<g class="st2">
			<path class="st3" d="M158.8,2100.7h-4.4v3.8h-1v-3.8h-4.3v-0.8h9.7V2100.7z M149.6,2098.2c1.9-0.3,3.7-1.5,3.7-2.9v-0.1H150v-0.8
				h7.9v0.8h-3.4v0.1c0,1.4,1.9,2.7,3.8,2.9l-0.4,0.8c-1.7-0.3-3.3-1.2-3.9-2.5c-0.7,1.3-2.2,2.2-3.9,2.5L149.6,2098.2z"/>
			<path class="st3" d="M165.2,2099.4c-1.2,0.3-2.3,0.3-4,0.3h-0.7v-5.2h4.1v0.8h-3.2v1.4h3.1v0.8h-3.1v1.5c1.5,0,2.5-0.1,3.6-0.3
				L165.2,2099.4z M161.9,2100.8h7.2v3.7h-1v-2.9h-6.2V2100.8z M169.2,2093.7v6.5h-0.9v-2.9h-1.4v2.8H166v-6.2h0.9v2.6h1.4v-2.8
				L169.2,2093.7L169.2,2093.7z"/>
			<path class="st3" d="M174.8,2097c0,1.7,1.2,3.6,2.8,4.4l-0.6,0.8c-1.2-0.6-2.2-1.9-2.7-3.3c-0.5,1.6-1.5,2.9-2.7,3.6l-0.6-0.8
				c1.5-0.8,2.8-2.8,2.8-4.6v-1.4h-2.5v-0.8h5.8v0.8h-2.4L174.8,2097L174.8,2097z M181.2,2098.9h-1.8v5.6h-1v-10.7h1v4.3h1.8V2098.9
				z"/>
			<path class="st3" d="M191.9,2098.3v0.8h-9.8v-0.8h7.2c0.3-1.3,0.3-2.3,0.3-3.2h-6.3v-0.8h7.3v0.8c0,0.8,0,1.8-0.3,3.2H191.9z
				 M183.4,2100.5h7.3v3.8h-7.3V2100.5z M184.3,2103.6h5.4v-2.2h-5.4V2103.6z"/>
			<path class="st3" d="M197.3,2101c1.4,0,2.5-0.1,3.6-0.3l0.1,0.8c-1.3,0.3-2.4,0.3-4,0.3h-0.7v-6.8h4v0.8h-3L197.3,2101
				L197.3,2101z M205,2093.7v10.8h-0.9v-5.6h-1.5v5.1h-0.9v-10h0.9v4.1h1.5v-4.3h0.9V2093.7z"/>
			<path class="st3" d="M212.3,2099.3v1h3.1v2.4h-6.3v1h6.6v0.7h-7.6v-2.5h6.3v-0.9h-6.3v-0.7h3.2v-1H207v-0.8h9.7v0.8H212.3z
				 M207.5,2097.3c2-0.1,3.6-0.8,3.8-1.9H208v-0.7h3.4v-1h1v1h3.4v0.7h-3.3c0.2,1.1,1.8,1.7,3.8,1.9l-0.3,0.7
				c-1.8-0.1-3.4-0.7-4-1.7c-0.7,1-2.3,1.5-4.1,1.7L207.5,2097.3z"/>
			<path class="st3" d="M226.3,2098.8h-5v-4.4h5V2098.8z M226.6,2101.4c0,1,1.7,2.1,3.5,2.3l-0.3,0.8c-1.6-0.2-3.1-1-3.7-2
				c-0.6,1-2.1,1.7-3.8,2l-0.3-0.8c1.8-0.2,3.5-1.2,3.6-2.3h-3.1v-0.8h3.2v-1h1v1h3.2v0.8H226.6z M225.3,2095.2h-3.1v2.8h3.1V2095.2
				z M229.5,2099.9h-1v-6.2h1V2099.9z"/>
		</g>
		<g class="st2">
			<path class="st3" d="M154.8,2112.5c0,2.8-2,4.9-5.1,5.8l-0.4-0.8c2.6-0.8,4.3-2.3,4.5-4.2h-3.9v-0.8H154.8z M158.2,2121.4v0.8
				h-7.3v-3.3h1v2.5H158.2z M157.9,2119.5h-1v-7.8h1V2119.5z"/>
			<path class="st3" d="M169.9,2116.1v0.8h-9.8v-0.8h7.2c0.3-1.3,0.3-2.3,0.3-3.1h-6.3v-0.8h7.3v0.8c0,0.8,0,1.8-0.3,3.1H169.9z
				 M167.6,2117.9h1v4.4h-7.2v-4.4h1v1.4h5.3v-1.4H167.6z M167.6,2120.1h-5.3v1.5h5.3V2120.1z"/>
			<path class="st3" d="M176.6,2112.9c0,3.1-1.4,5.8-4.9,7.6l-0.5-0.8c2.7-1.4,4.2-3.4,4.4-6h-3.9v-0.8H176.6z M181.1,2116.9h-1.7
				v5.6h-1v-10.8h1v4.4h1.7V2116.9z"/>
			<path class="st3" d="M188.2,2112h0.9v9.9h-0.9v-3.7h-1.9v-0.8h1.9v-1.9h-1.8c-0.5,1.8-1.7,3.4-3.7,4.6l-0.6-0.7
				c2.3-1.4,3.5-3.3,3.6-5.6h-3.2v-0.8h4.1c0,0.6,0,1.1-0.1,1.6h1.6L188.2,2112L188.2,2112z M191.3,2111.7v10.7h-0.9v-10.7H191.3z"
				/>
			<path class="st3" d="M196.8,2115c0,1.7,1.2,3.6,2.8,4.4l-0.6,0.8c-1.2-0.6-2.2-1.9-2.7-3.3c-0.5,1.6-1.5,2.9-2.7,3.6l-0.6-0.8
				c1.5-0.8,2.8-2.8,2.8-4.6v-1.4h-2.5v-0.8h5.8v0.8h-2.4L196.8,2115L196.8,2115z M203.3,2116.9h-1.8v5.6h-1v-10.7h1v4.3h1.8V2116.9
				z"/>
			<path class="st3" d="M214,2116.3v0.8h-9.8v-0.8h7.2c0.3-1.3,0.3-2.3,0.3-3.2h-6.3v-0.8h7.3v0.8c0,0.8,0,1.8-0.3,3.2H214z
				 M205.5,2118.5h7.3v3.8h-7.3V2118.5z M206.4,2121.6h5.4v-2.2h-5.4V2121.6z"/>
			<path class="st3" d="M219.3,2119c1.4,0,2.5-0.1,3.6-0.3l0.1,0.8c-1.3,0.3-2.4,0.3-4,0.3h-0.7v-6.8h4v0.8h-3L219.3,2119
				L219.3,2119z M227.1,2111.7v10.8h-0.9v-5.6h-1.5v5.1h-0.9v-10h0.9v4.1h1.5v-4.3h0.9V2111.7z"/>
			<path class="st3" d="M234.4,2117.3v1h3.1v2.4h-6.3v1h6.6v0.7h-7.6v-2.5h6.3v-0.9h-6.3v-0.7h3.2v-1H229v-0.8h9.7v0.8H234.4z
				 M229.5,2115.3c2-0.1,3.6-0.8,3.8-1.9H230v-0.7h3.4v-1h1v1h3.4v0.7h-3.3c0.2,1.1,1.8,1.7,3.8,1.9l-0.3,0.7
				c-1.8-0.1-3.4-0.7-4-1.7c-0.7,1-2.3,1.5-4.1,1.7L229.5,2115.3z"/>
			<path class="st3" d="M246.6,2115c0,1.8,1.3,3.7,2.9,4.4l-0.6,0.8c-1.2-0.6-2.3-1.8-2.8-3.3c-0.5,1.6-1.5,2.9-2.8,3.5l-0.6-0.8
				c1.5-0.7,2.9-2.8,2.9-4.6v-1.4h-2.5v-0.8h6v0.8h-2.5L246.6,2115L246.6,2115z M251.6,2111.7v10.7h-1v-10.7H251.6z"/>
			<path class="st3" d="M256.9,2117.5c-1.1,0-2.1,0.1-3,0.1l-0.1-0.8c2,0,4.7,0,6.9-0.3l0.1,0.7c-0.9,0.1-1.9,0.3-2.9,0.3v2.1h-1
				V2117.5z M254.6,2114c0-1.1,1.1-1.9,2.7-1.9s2.7,0.7,2.7,1.9s-1.1,1.9-2.7,1.9C255.7,2115.9,254.6,2115.2,254.6,2114z
				 M262.9,2121.4v0.8h-7.6v-3.1h1v2.3H262.9z M255.5,2114c0,0.7,0.7,1.2,1.7,1.2s1.7-0.5,1.7-1.2s-0.7-1.1-1.7-1.1
				S255.5,2113.3,255.5,2114z M261.6,2118.1v-6.4h1v8.2h-1v-1.1h-2.2v-0.7H261.6z"/>
		</g>
		<g class="st2">
			<path class="st3" d="M156.3,2135.3c-1.1,0.2-2.2,0.2-3.3,0.3v4.3h-1v-4.2c-1,0-2,0.1-2.9,0.1l-0.1-0.8c1.4,0,3.1,0,4.7-0.1
				c0.3-1.5,0.3-2.7,0.3-3.4h-4.1v-0.8h5v0.4c0,0.7,0,1.9-0.3,3.7c0.5,0,1-0.1,1.5-0.1L156.3,2135.3z M158,2129.7v10.7h-1v-10.7H158
				z"/>
			<path class="st3" d="M166.5,2131.7h-6.3v-0.8h2.7v-1.3h1v1.3h2.7L166.5,2131.7L166.5,2131.7z M163.3,2136.1
				c-1.5,0-2.6-0.7-2.6-1.9s1-1.9,2.6-1.9s2.6,0.7,2.6,1.9C165.9,2135.3,164.8,2136.1,163.3,2136.1z M168.6,2138.6
				c0,1.2-1.3,1.9-3.5,1.9s-3.5-0.7-3.5-1.9s1.3-1.9,3.5-1.9C167.2,2136.8,168.6,2137.4,168.6,2138.6z M163.3,2135.3
				c1,0,1.6-0.5,1.6-1.2s-0.7-1.2-1.6-1.2s-1.6,0.5-1.6,1.2C161.7,2134.9,162.3,2135.3,163.3,2135.3z M167.6,2138.6
				c0-0.7-1-1.1-2.5-1.1c-1.6,0-2.5,0.4-2.5,1.1s1,1.1,2.5,1.1S167.6,2139.3,167.6,2138.6z M168.4,2132.4v1.5h1.6v0.8h-1.6v2h-1
				v-6.9h1v1.9h1.6v0.8h-1.6V2132.4z"/>
			<path class="st3" d="M175,2133c0,1.8,1.3,3.7,2.9,4.4l-0.6,0.8c-1.2-0.6-2.3-1.8-2.8-3.3c-0.5,1.6-1.5,2.9-2.8,3.5l-0.6-0.8
				c1.5-0.7,2.9-2.8,2.9-4.6v-1.4h-2.5v-0.8h6v0.8H175V2133z M179.9,2129.7v10.7h-1v-10.7H179.9z"/>
			<path class="st3" d="M185.2,2135.5c-1.1,0-2.1,0.1-3,0.1l-0.1-0.8c2,0,4.7,0,6.9-0.3l0.1,0.7c-0.9,0.1-1.9,0.3-2.9,0.3v2.1h-1
				V2135.5z M183,2132c0-1.1,1.1-1.9,2.7-1.9c1.6,0,2.7,0.7,2.7,1.9s-1.1,1.9-2.7,1.9C184.1,2133.9,183,2133.2,183,2132z
				 M191.3,2139.4v0.8h-7.6v-3.1h1v2.3H191.3z M183.9,2132c0,0.7,0.7,1.2,1.7,1.2s1.7-0.5,1.7-1.2s-0.7-1.1-1.7-1.1
				S183.9,2131.3,183.9,2132z M190,2136.1v-6.4h1v8.2h-1v-1.1h-2.2v-0.7H190z"/>
			<path class="st3" d="M203,2134.3v0.8h-9.8v-0.8h7.2c0.3-1.3,0.3-2.3,0.3-3.2h-6.3v-0.8h7.3v0.8c0,0.8,0,1.8-0.3,3.2H203z
				 M194.4,2136.5h7.3v3.8h-7.3V2136.5z M195.4,2139.6h5.4v-2.2h-5.4V2139.6z"/>
			<path class="st3" d="M212.5,2134.8h-5v-4.4h5V2134.8z M212.9,2137.4c0,1,1.7,2.1,3.5,2.3l-0.3,0.8c-1.6-0.2-3.1-1-3.7-2
				c-0.6,1-2.1,1.7-3.8,2l-0.3-0.8c1.8-0.2,3.5-1.2,3.6-2.3h-3.1v-0.8h3.2v-1h1v1h3.2v0.8H212.9z M211.6,2131.2h-3.1v2.8h3.1V2131.2
				z M215.8,2135.9h-1v-6.2h1V2135.9z"/>
			<path class="st3" d="M233.1,2135.4v0.8h-9.7v-0.8h4.4v-1.1h-3.1v-4.3h7.3v0.8h-6.3v1h6v0.7h-6v1.1h6.3v0.8h-3.2v1.1h4.3V2135.4z
				 M231.9,2138.7c0,1.1-1.3,1.7-3.7,1.7c-2.3,0-3.7-0.6-3.7-1.7c0-1.1,1.3-1.7,3.7-1.7C230.6,2137,231.9,2137.6,231.9,2138.7z
				 M230.9,2138.7c0-0.6-1-1-2.7-1s-2.7,0.3-2.7,1c0,0.6,1,1,2.7,1C230,2139.7,230.9,2139.4,230.9,2138.7z"/>
			<path class="st3" d="M244.2,2134.7v0.8h-9.8v-0.8h7.2c0.3-1.5,0.3-2.5,0.3-3.5l0,0h-6.3v-0.8h7.3v0.8c0,0.9,0,2-0.3,3.5H244.2z
				 M236.7,2139.4h6.6v0.8h-7.5v-3.5h1v2.7H236.7z"/>
			<path class="st3" d="M254.3,2129.7v10.8h-1v-6h-2.5v3.3h-4.9v-7.2h1v2.8h3v-2.8h1v3.1h2.5v-4L254.3,2129.7L254.3,2129.7z
				 M249.8,2134.2h-3v2.8h3V2134.2z"/>
			<path class="st3" d="M266.2,2138.2v0.8h-9.8v-0.8H266.2z M265.3,2136c-1.6-0.4-3.3-1.5-4-3.1c-0.7,1.6-2.4,2.7-4,3.1l-0.4-0.8
				c1.9-0.4,3.9-2,3.9-3.8v-0.8h1v0.8c0,1.8,2,3.5,3.9,3.8L265.3,2136z"/>
			<path class="st3" d="M280,2135.2v0.8h-4.3v2.2h-1v-2.2h-4.5v-0.8H280z M271.3,2132.2c0-1.3,1.5-2.2,3.8-2.2s3.8,0.8,3.8,2.2
				c0,1.3-1.5,2.2-3.8,2.2C272.8,2134.3,271.3,2133.5,271.3,2132.2z M272.4,2139.4h6.5v0.8h-7.4v-3.1h1v2.3H272.4z M272.3,2132.2
				c0,0.8,1.1,1.4,2.7,1.4c1.7,0,2.7-0.5,2.7-1.4s-1.1-1.4-2.7-1.4C273.4,2130.8,272.3,2131.3,272.3,2132.2z"/>
			<path class="st3" d="M286.4,2134.6c-0.5,0.6-1.3,0.9-2.2,0.9c-1.6,0-2.8-1.1-2.8-2.6s1.2-2.5,2.8-2.5c0.9,0,1.7,0.3,2.2,0.9h2.8
				v-1.5h1v6.4h-1v-1.5L286.4,2134.6L286.4,2134.6z M284.2,2134.6c1.1,0,1.8-0.7,1.8-1.7s-0.8-1.7-1.8-1.7s-1.8,0.7-1.8,1.7
				C282.4,2133.9,283.1,2134.6,284.2,2134.6z M290.2,2138.4c0,1.3-1.4,2.1-3.6,2.1s-3.6-0.8-3.6-2.1s1.4-2.1,3.6-2.1
				C288.8,2136.4,290.2,2137.1,290.2,2138.4z M289.2,2138.4c0-0.8-1-1.3-2.6-1.3s-2.6,0.5-2.6,1.3s1,1.3,2.6,1.3
				S289.2,2139.2,289.2,2138.4z M286.8,2132.1c0.1,0.3,0.1,0.5,0.1,0.8s0,0.6-0.1,0.8h2.3v-1.7L286.8,2132.1L286.8,2132.1z"/>
		</g>
	</g>
	<g id="그룹_5912" transform="translate(-15 99)">
		<g class="st2">
			<path class="st3" d="M139,2081.1c0-1,0.7-1.6,1.5-1.6s1.5,0.6,1.5,1.6s-0.7,1.6-1.5,1.6S139,2082,139,2081.1z"/>
		</g>
		<g class="st2">
			<path class="st3" d="M139,2099.1c0-1,0.7-1.6,1.5-1.6s1.5,0.6,1.5,1.6s-0.7,1.6-1.5,1.6S139,2100,139,2099.1z"/>
		</g>
		<g class="st2">
			<path class="st3" d="M155.4,2081.2c-1.5,0.3-2.7,0.4-5,0.4h-0.8v-4.9h4.8v0.8h-3.8v3.3c2.1,0,3.3-0.1,4.7-0.4L155.4,2081.2z
				 M151.7,2085.4h6.2v0.8h-7.2v-3.5h1V2085.4z M159,2078.9v0.8h-1.6v3.8h-1v-7.8h1v3.2H159z"/>
			<path class="st3" d="M163.2,2079c0,1.7,0.9,3.5,2.3,4.3l-0.6,0.7c-1-0.6-1.8-1.7-2.2-3c-0.4,1.4-1.1,2.6-2.2,3.2l-0.6-0.7
				c1.5-0.9,2.3-2.7,2.3-4.5v-0.5h-2v-0.8h2v-1.6h0.9v1.6h2v0.8h-2v0.5H163.2z M166.1,2076h0.9v9.9h-0.9v-5.1h-1.6v-0.8h1.6V2076z
				 M169.2,2075.7v10.7h-0.9v-10.7H169.2z"/>
			<path class="st3" d="M180.9,2084.3v0.8h-9.8v-0.8h4.4v-2.3h-3.2v-5.5h1v1.9h5.5v-1.9h1v5.5h-3.2v2.3H180.9z M173.3,2081.2h5.5v-2
				h-5.5V2081.2z"/>
			<path class="st3" d="M188.4,2077.6h-6.2v-0.8h2.6v-1.2h1v1.2h2.6L188.4,2077.6L188.4,2077.6z M185.3,2082c-1.5,0-2.5-0.8-2.5-1.9
				s1-1.9,2.5-1.9s2.5,0.8,2.5,1.9S186.8,2082,185.3,2082z M185.3,2081.3c0.9,0,1.6-0.5,1.6-1.2s-0.6-1.2-1.6-1.2
				c-0.9,0-1.6,0.5-1.6,1.2C183.8,2080.8,184.4,2081.3,185.3,2081.3z M184.1,2082.8h7v3.5h-7V2082.8z M185,2085.6h5.1v-2H185V2085.6
				z M191,2075.7v6.5h-1v-2.4h-1.8v-0.8h1.8v-3.3H191z"/>
			<path class="st3" d="M201.4,2076.9c0,3.1-1.4,5.8-4.9,7.6l-0.5-0.8c2.7-1.4,4.2-3.4,4.4-6h-3.9v-0.8H201.4z M205.9,2080.9h-1.7
				v5.6h-1v-10.8h1v4.4h1.7V2080.9z"/>
			<path class="st3" d="M212.8,2078.7c0,1.5-1.2,2.5-2.8,2.5s-2.8-1-2.8-2.5s1.2-2.5,2.8-2.5S212.8,2077.3,212.8,2078.7z
				 M208.2,2078.7c0,1,0.8,1.7,1.8,1.7c1.1,0,1.9-0.7,1.9-1.7s-0.8-1.7-1.9-1.7C208.9,2077.1,208.2,2077.7,208.2,2078.7z
				 M209.8,2082v1.3h5v-1.3h1v4.3h-6.9v-4.3H209.8z M209.8,2085.6h5v-1.4h-5V2085.6z M215.8,2075.7v5.8h-1v-5.8H215.8z"/>
		</g>
		<g class="st2">
			<path class="st3" d="M154.7,2094.6c0,2.8-2,4.9-5,5.9l-0.4-0.8c2.5-0.8,4.1-2.4,4.4-4.3h-3.8v-0.8L154.7,2094.6L154.7,2094.6z
				 M158.2,2103.4v0.8h-7.1v-3.4h1v2.6L158.2,2103.4L158.2,2103.4z M156.9,2097.1v-3.3h1v7.9h-1v-3.8h-2.3v-0.8L156.9,2097.1
				L156.9,2097.1z"/>
			<path class="st3" d="M165.5,2094.5c0,2.7-1.9,4.7-5,5.7l-0.4-0.8c2.6-0.8,4.2-2.2,4.4-4.1h-3.9v-0.8L165.5,2094.5L165.5,2094.5z
				 M168.6,2102.4c0,1.3-1.4,2.1-3.5,2.1s-3.5-0.8-3.5-2.1s1.4-2.1,3.5-2.1C167.2,2100.3,168.6,2101.1,168.6,2102.4z M167.6,2102.4
				c0-0.8-1-1.3-2.5-1.3s-2.5,0.5-2.5,1.3s1,1.3,2.5,1.3S167.6,2103.2,167.6,2102.4z M170,2096.5v0.8h-1.6v2.8h-1v-6.4h1v2.8
				L170,2096.5L170,2096.5z"/>
			<path class="st3" d="M176.7,2094.4c0,2.7-1.9,4.7-5,5.5l-0.4-0.8c2.6-0.7,4.1-2.1,4.4-4h-3.8v-0.8h4.8V2094.4z M173,2100.3h7v4
				h-7V2100.3z M174,2103.5h5v-2.4h-5V2103.5z M180,2093.7v6.1h-1v-2.6h-2.3v-0.8h2.3v-2.8h1V2093.7z"/>
			<path class="st3" d="M188.3,2100.1c-1.2-0.4-2.2-1.3-2.7-2.4c-0.5,1.2-1.5,2.2-2.7,2.7l-0.5-0.8c1.6-0.6,2.7-2,2.7-3.5v-0.6h-2.5
				v-0.8h5.9v0.8h-2.4v0.6c0,1.5,1.1,2.8,2.7,3.3L188.3,2100.1z M191.3,2103.4v0.8h-7.2v-3.4h1v2.6L191.3,2103.4L191.3,2103.4z
				 M191,2101.6h-1v-7.9h1V2101.6z"/>
			<path class="st3" d="M201.5,2098.8h-5v-4.4h5V2098.8z M201.8,2101.4c0,1,1.7,2.1,3.5,2.3l-0.3,0.8c-1.6-0.2-3.1-1-3.7-2
				c-0.6,1-2.1,1.7-3.8,2l-0.3-0.8c1.8-0.2,3.5-1.2,3.6-2.3h-3.1v-0.8h3.2v-1h1v1h3.2v0.8H201.8z M200.5,2095.2h-3.1v2.8h3.1V2095.2
				z M204.7,2099.9h-1v-6.2h1V2099.9z"/>
			<path class="st3" d="M215.5,2096.8c0,1.5-1.2,2.5-2.8,2.5s-2.8-1-2.8-2.5s1.2-2.5,2.8-2.5S215.5,2095.3,215.5,2096.8z
				 M210.8,2096.8c0,1,0.8,1.7,1.8,1.7c1.1,0,1.9-0.7,1.9-1.7s-0.8-1.7-1.9-1.7C211.6,2095.1,210.8,2095.8,210.8,2096.8z
				 M218.5,2100.5v3.9h-7v-3.9H218.5z M212.5,2101.2v2.3h5v-2.3H212.5z M218.5,2093.7v6.2h-1v-6.2H218.5z"/>
			<path class="st3" d="M226.8,2099.8c-1.2-0.4-2.2-1.3-2.7-2.4c-0.5,1.2-1.5,2.2-2.7,2.7l-0.5-0.8c1.6-0.6,2.7-2,2.7-3.5v-0.4h-2.5
				v-0.8h5.9v0.8h-2.4v0.4c0,1.4,1.1,2.7,2.7,3.3L226.8,2099.8z M222.3,2100.8h7.2v3.7h-1v-2.9h-6.2V2100.8z M229.5,2093.7v6.5h-1
				v-6.5H229.5z"/>
			<path class="st3" d="M234.8,2099.5c-1.1,0-2.1,0.1-3,0.1l-0.1-0.8c2,0,4.7,0,6.9-0.3l0.1,0.7c-0.9,0.1-1.9,0.3-2.9,0.3v2.1h-1
				V2099.5z M232.5,2096c0-1.1,1.1-1.9,2.7-1.9c1.6,0,2.7,0.7,2.7,1.9s-1.1,1.9-2.7,1.9C233.6,2097.9,232.5,2097.2,232.5,2096z
				 M240.8,2103.4v0.8h-7.6v-3.1h1v2.3H240.8z M233.4,2096c0,0.7,0.7,1.2,1.7,1.2s1.7-0.5,1.7-1.2s-0.7-1.1-1.7-1.1
				S233.4,2095.3,233.4,2096z M239.5,2100.1v-6.4h1v8.2h-1v-1.1h-2.2v-0.7H239.5z"/>
			<path class="st3" d="M255.2,2102.2v0.8h-9.7v-0.8h3.8v-3.9h1v3.9H255.2z M253,2095.6h-6.6v-0.8h7.5v1.1c0,1.3,0,2.8-0.4,5l-1-0.1
				c0.4-2.1,0.4-3.6,0.4-4.9v-0.3H253z"/>
			<path class="st3" d="M261.8,2099.8v1.1c2,0.1,3.2,0.7,3.2,1.8c0,1.2-1.4,1.8-3.7,1.8c-2.3,0-3.7-0.6-3.7-1.8
				c0-1.1,1.2-1.7,3.2-1.8v-1.1h-4.4v-0.8h9.7v0.8H261.8z M257.1,2097.7c2-0.2,3.6-1,3.7-2.1h-3.3v-0.8h3.4v-1.1h1v1.1h3.4v0.8H262
				c0.1,1.2,1.7,2,3.8,2.1l-0.3,0.8c-1.8-0.2-3.3-0.8-4-1.9c-0.7,1.1-2.2,1.7-4,1.9L257.1,2097.7z M261.3,2101.6
				c-1.7,0-2.7,0.4-2.7,1c0,0.7,1,1,2.7,1s2.7-0.4,2.7-1S263,2101.6,261.3,2101.6z"/>
			<path class="st3" d="M273.2,2099.6c-1.2-0.4-2.1-1.3-2.6-2.4c-0.4,1.3-1.4,2.2-2.7,2.7l-0.5-0.8c1.6-0.6,2.7-2.1,2.7-3.7v-1.1h1
				v1.2c0,1.5,1.1,2.8,2.6,3.3L273.2,2099.6z M276,2102.5c0,1.2-1.4,2-3.5,2c-2.2,0-3.6-0.7-3.6-2s1.4-2,3.6-2
				C274.6,2100.6,276,2101.3,276,2102.5z M275,2102.5c0-0.8-1-1.2-2.6-1.2s-2.6,0.4-2.6,1.2c0,0.7,1,1.2,2.6,1.2
				C274,2103.7,275,2103.3,275,2102.5z M277.5,2096.5v0.8h-1.6v2.9h-1v-6.5h1v2.8H277.5z"/>
			<path class="st3" d="M284.9,2098.8c-1.5,0.3-2.7,0.4-5,0.4h-0.8v-4.8h4.7v0.8H280v3.2c2.1,0,3.3-0.1,4.7-0.4L284.9,2098.8z
				 M280.2,2100.4h6.8v3.9h-6.8V2100.4z M281.1,2103.5h4.8v-2.4h-4.8V2103.5z M288.5,2097.2h-1.6v2.7h-1v-6.1h1v2.6h1.6V2097.2z"/>
			<path class="st3" d="M302,2102.3v0.8h-9.8v-0.8H302z M294.8,2095.6h-1.7v-0.8h8v0.8h-1.7v3.7h1.6v0.8h-7.9v-0.8h1.6v-3.7H294.8z
				 M298.5,2095.6h-2.7v3.7h2.7V2095.6z"/>
			<path class="st3" d="M313.1,2102.4v0.8h-9.8v-0.8h4.4v-2h-3.2v-3.3h6.4v-1.7h-6.4v-0.8h7.4v3.3h-6.4v1.7h6.6v0.8h-3.4v2H313.1z"
				/>
			<path class="st3" d="M324.1,2102.1v0.8h-9.7v-0.8H324.1z M321.8,2095.7h-6.4v-0.8h7.4v1.1c0,1.4,0,2.9-0.4,5.2l-1-0.1
				c0.4-2.2,0.4-3.8,0.4-5.1V2095.7z"/>
			<path class="st3" d="M330.7,2099.4c-1.4,0.3-2.5,0.3-4,0.3H326v-3.1h3.1v-1.4H326v-0.8h4v2.9h-3.1v1.5c1.4,0,2.4-0.1,3.7-0.3
				L330.7,2099.4z M327.4,2100.7h7.1v3.7h-7.1V2100.7z M328.4,2103.6h5.1v-2.1h-5.1V2103.6z M334.5,2093.7v6.4h-0.9v-2.9h-1.4v2.7
				h-0.9v-6.1h0.9v2.5h1.4v-2.7h0.9V2093.7z"/>
		</g>
	</g>
	<g id="그룹_5913" transform="translate(-15 163)">
		<g class="st2">
			<path class="st3" d="M139,2081.1c0-1,0.7-1.6,1.5-1.6s1.5,0.6,1.5,1.6s-0.7,1.6-1.5,1.6S139,2082,139,2081.1z"/>
		</g>
		<g class="st2">
			<path class="st3" d="M139,2099.1c0-1,0.7-1.6,1.5-1.6s1.5,0.6,1.5,1.6s-0.7,1.6-1.5,1.6S139,2100,139,2099.1z"/>
		</g>
		<g class="st2">
			<path class="st3" d="M152.7,2077.5h2.7v0.8H149v-0.8h2.7v-1.6h1V2077.5z M154.8,2081.6c0,1.5-1.1,2.5-2.6,2.5s-2.6-1-2.6-2.5
				s1.1-2.5,2.6-2.5C153.8,2079.1,154.8,2080.2,154.8,2081.6z M153.9,2081.6c0-1-0.7-1.7-1.7-1.7s-1.7,0.7-1.7,1.7s0.7,1.7,1.7,1.7
				S153.9,2082.6,153.9,2081.6z M159.1,2081h-1.8v5.5h-1v-10.7h1v4.4h1.8V2081z"/>
			<path class="st3" d="M166.1,2076h0.9v9.9h-0.9v-3.7h-1.9v-0.8h1.9v-1.9h-1.8c-0.5,1.8-1.7,3.4-3.7,4.6l-0.6-0.7
				c2.3-1.4,3.5-3.3,3.6-5.6h-3.2v-0.8h4.1c0,0.6,0,1.1-0.1,1.6h1.6L166.1,2076L166.1,2076z M169.2,2075.7v10.7h-0.9v-10.7H169.2z"
				/>
			<path class="st3" d="M180.9,2083.4h-2.5v3.1h-1v-3.1h-2.7v3.1h-1v-3.1h-2.5v-0.8h9.8v0.8H180.9z M180.3,2077.7h-8.6v-0.8h3.9
				v-1.2h1v1.2h3.8L180.3,2077.7L180.3,2077.7z M176,2078.3c2.2,0,3.5,0.6,3.5,1.8s-1.3,1.8-3.5,1.8s-3.5-0.6-3.5-1.8
				C172.5,2079,173.8,2078.3,176,2078.3z M176,2079.1c-1.6,0-2.5,0.4-2.5,1c0,0.7,0.9,1,2.5,1s2.5-0.4,2.5-1
				C178.5,2079.4,177.6,2079.1,176,2079.1z"/>
			<path class="st3" d="M185.2,2081.4c-1.6,0-2.8-1-2.8-2.5s1.2-2.5,2.8-2.5s2.8,1,2.8,2.5S186.8,2081.4,185.2,2081.4z
				 M185.2,2080.6c1.1,0,1.8-0.7,1.8-1.7s-0.8-1.7-1.8-1.7c-1.1,0-1.8,0.7-1.8,1.7C183.3,2079.9,184.1,2080.6,185.2,2080.6z
				 M190.6,2084.5c0,1.3-1.4,2-3.5,2c-2.2,0-3.6-0.7-3.6-2s1.4-2,3.6-2C189.3,2082.4,190.6,2083.2,190.6,2084.5z M189.7,2084.5
				c0-0.8-1-1.2-2.6-1.2s-2.6,0.5-2.6,1.2c0,0.8,1,1.2,2.6,1.2C188.7,2085.7,189.7,2085.2,189.7,2084.5z M190.5,2078.1v1.5h1.6v0.8
				h-1.6v1.7h-1v-6.4h1v1.6h1.6v0.8L190.5,2078.1L190.5,2078.1z"/>
			<path class="st3" d="M203,2084.3v0.8h-9.8v-0.8h4.3v-2.6h1v2.6H203z M202.1,2081.8c-1.6-0.3-3.3-1.5-4-3c-0.7,1.5-2.4,2.7-4,3
				l-0.4-0.8c1.9-0.3,3.9-1.9,3.9-3.7v-0.8h1v0.8c0,1.8,2.1,3.4,3.9,3.7L202.1,2081.8z"/>
			<path class="st3" d="M216.7,2081.2v0.8h-4.3v2.2h-1v-2.2h-4.5v-0.8H216.7z M208,2078.2c0-1.3,1.5-2.2,3.8-2.2s3.8,0.8,3.8,2.2
				c0,1.3-1.5,2.2-3.8,2.2C209.5,2080.3,208,2079.5,208,2078.2z M209.2,2085.4h6.5v0.8h-7.4v-3.1h1v2.3H209.2z M209.1,2078.2
				c0,0.8,1.1,1.4,2.7,1.4c1.7,0,2.7-0.5,2.7-1.4s-1.1-1.4-2.7-1.4C210.2,2076.8,209.1,2077.3,209.1,2078.2z"/>
			<path class="st3" d="M223.1,2080.6c-0.5,0.6-1.3,0.9-2.2,0.9c-1.6,0-2.8-1.1-2.8-2.6s1.2-2.5,2.8-2.5c0.9,0,1.7,0.3,2.2,0.9h2.8
				v-1.5h1v6.4h-1v-1.5L223.1,2080.6L223.1,2080.6z M220.9,2080.6c1.1,0,1.8-0.7,1.8-1.7s-0.8-1.7-1.8-1.7s-1.8,0.7-1.8,1.7
				C219.1,2079.9,219.9,2080.6,220.9,2080.6z M226.9,2084.4c0,1.3-1.4,2.1-3.6,2.1c-2.2,0-3.6-0.8-3.6-2.1s1.4-2.1,3.6-2.1
				C225.5,2082.4,226.9,2083.1,226.9,2084.4z M225.9,2084.4c0-0.8-1-1.3-2.6-1.3s-2.6,0.5-2.6,1.3s1,1.3,2.6,1.3
				S225.9,2085.2,225.9,2084.4z M223.6,2078.1c0.1,0.3,0.1,0.5,0.1,0.8s0,0.6-0.1,0.8h2.3v-1.7L223.6,2078.1L223.6,2078.1z"/>
			<path class="st3" d="M237.3,2080.8h-5v-4.4h5V2080.8z M237.6,2083.4c0,1,1.7,2.1,3.5,2.3l-0.3,0.8c-1.6-0.2-3.1-1-3.7-2
				c-0.6,1-2.1,1.7-3.8,2l-0.3-0.8c1.8-0.2,3.5-1.2,3.6-2.3h-3.1v-0.8h3.2v-1h1v1h3.2v0.8H237.6z M236.3,2077.2h-3.1v2.8h3.1V2077.2
				z M240.5,2081.9h-1v-6.2h1V2081.9z"/>
			<path class="st3" d="M255.2,2083.4h-2.5v3.1h-1v-3.1H249v3.1h-1v-3.1h-2.5v-0.8h9.8v0.8H255.2z M254.6,2077.7H246v-0.8h3.9v-1.2
				h1v1.2h3.8L254.6,2077.7L254.6,2077.7z M250.3,2078.3c2.2,0,3.5,0.6,3.5,1.8s-1.3,1.8-3.5,1.8s-3.5-0.6-3.5-1.8
				C246.8,2079,248.1,2078.3,250.3,2078.3z M250.3,2079.1c-1.6,0-2.5,0.4-2.5,1c0,0.7,0.9,1,2.5,1s2.5-0.4,2.5-1
				C252.8,2079.4,251.9,2079.1,250.3,2079.1z"/>
			<path class="st3" d="M262,2076.9c0,3.1-1.4,5.8-4.9,7.6l-0.5-0.8c2.7-1.4,4.2-3.4,4.4-6h-3.9v-0.8H262z M266.5,2080.9h-1.7v5.6
				h-1v-10.8h1v4.4h1.7V2080.9z"/>
			<path class="st3" d="M269.1,2076.6v2.8h3.1v-2.8h1v7.3h-5.1v-7.3H269.1z M269.1,2083.1h3.1v-2.8h-3.1V2083.1z M276.3,2075.7v10.8
				h-1v-10.8H276.3z"/>
			<path class="st3" d="M285.1,2079c0,1.8,1.3,3.7,2.9,4.4l-0.6,0.8c-1.2-0.6-2.3-1.8-2.8-3.3c-0.5,1.6-1.5,2.9-2.8,3.5l-0.6-0.8
				c1.5-0.7,2.9-2.8,2.9-4.6v-1.4h-2.5v-0.8h6v0.8h-2.5V2079z M290.1,2075.7v10.7h-1v-10.7H290.1z"/>
			<path class="st3" d="M295.4,2081.5c-1.1,0-2.1,0.1-3,0.1l-0.1-0.8c2,0,4.7,0,6.9-0.3l0.1,0.7c-0.9,0.1-1.9,0.3-2.9,0.3v2.1h-1
				V2081.5z M293.1,2078c0-1.1,1.1-1.9,2.7-1.9s2.7,0.7,2.7,1.9s-1.1,1.9-2.7,1.9S293.1,2079.2,293.1,2078z M301.4,2085.4v0.8h-7.6
				v-3.1h1v2.3H301.4z M294,2078c0,0.7,0.7,1.2,1.7,1.2s1.7-0.5,1.7-1.2s-0.7-1.1-1.7-1.1S294,2077.3,294,2078z M300.1,2082.1v-6.4
				h1v8.2h-1v-1.1h-2.2v-0.7H300.1z"/>
		</g>
		<g class="st2">
			<path class="st3" d="M152.7,2097c0,1.7,1.2,3.6,2.8,4.4l-0.6,0.8c-1.2-0.6-2.2-1.9-2.7-3.3c-0.5,1.6-1.5,2.9-2.7,3.6l-0.6-0.8
				c1.5-0.8,2.8-2.8,2.8-4.6v-1.4h-2.5v-0.8h5.8v0.8h-2.4L152.7,2097L152.7,2097z M159.1,2098.9h-1.8v5.6h-1v-10.7h1v4.3h1.8V2098.9
				z"/>
			<path class="st3" d="M165.8,2094.9c0,3.1-1.4,5.8-5,7.6l-0.5-0.8c2.9-1.4,4.3-3.4,4.5-6h-4v-0.8H165.8z M168.9,2093.7v10.8h-1
				v-10.8H168.9z"/>
			<path class="st3" d="M175.7,2095.1c0,2.8-1,5.3-4,7.1l-0.6-0.7c2.5-1.4,3.5-3.3,3.6-5.6h-3.2v-0.8H175.7z M180.3,2093.7v10.8
				h-0.9v-5.6h-1.5v5.1H177v-9.9h0.9v4h1.5v-4.3h0.9V2093.7z"/>
			<path class="st3" d="M187.6,2098.9h-5v-4.7h1v1.5h3v-1.5h1V2098.9z M186.6,2096.5h-3v1.6h3V2096.5z M184.7,2103.6h6.2v0.8h-7.2
				v-2.7h5.8v-1.1h-5.9v-0.8h6.8v2.6h-5.8L184.7,2103.6L184.7,2103.6z M192.1,2096v0.8h-1.6v2.4h-1v-5.6h1v2.3h1.6V2096z"/>
			<path class="st3" d="M197.1,2097c0,1.8,1.3,3.7,2.9,4.4l-0.6,0.8c-1.2-0.6-2.3-1.8-2.8-3.3c-0.5,1.6-1.5,2.9-2.8,3.5l-0.6-0.8
				c1.5-0.7,2.9-2.8,2.9-4.6v-1.4h-2.5v-0.8h6v0.8h-2.5L197.1,2097L197.1,2097z M202,2093.7v10.7h-1v-10.7H202z"/>
			<path class="st3" d="M207.3,2099.5c-1.1,0-2.1,0.1-3,0.1l-0.1-0.8c2,0,4.7,0,6.9-0.3l0.1,0.7c-0.9,0.1-1.9,0.3-2.9,0.3v2.1h-1
				V2099.5z M205.1,2096c0-1.1,1.1-1.9,2.7-1.9c1.6,0,2.7,0.7,2.7,1.9s-1.1,1.9-2.7,1.9C206.1,2097.9,205.1,2097.2,205.1,2096z
				 M213.3,2103.4v0.8h-7.6v-3.1h1v2.3H213.3z M206,2096c0,0.7,0.7,1.2,1.7,1.2s1.7-0.5,1.7-1.2s-0.7-1.1-1.7-1.1
				S206,2095.3,206,2096z M212.1,2100.1v-6.4h1v8.2h-1v-1.1h-2.2v-0.7H212.1z"/>
			<path class="st3" d="M225.1,2098.3v0.8h-9.8v-0.8h7.2c0.3-1.3,0.3-2.3,0.3-3.2h-6.3v-0.8h7.3v0.8c0,0.8,0,1.8-0.3,3.2H225.1z
				 M216.5,2100.5h7.3v3.8h-7.3V2100.5z M217.5,2103.6h5.4v-2.2h-5.4V2103.6z"/>
			<path class="st3" d="M232.2,2096.8c0,1.9,0.8,3.7,2.3,4.6l-0.6,0.7c-1-0.6-1.8-1.8-2.2-3.1c-0.4,1.5-1.2,2.7-2.2,3.4l-0.6-0.7
				c1.5-0.9,2.3-2.9,2.3-4.8v-1h-2v-0.8h4.9v0.8h-1.9V2096.8z M235.1,2094h0.9v10h-0.9v-5.5h-1.8v-0.8h1.8V2094z M238.2,2093.7v10.8
				h-0.9v-10.8H238.2z"/>
			<path class="st3" d="M249.8,2102.3v0.8H240v-0.8h4.4v-2.8h-3.1v-5h7.3v0.8h-6.3v3.4h6.4v0.8h-3.3v2.8H249.8z"/>
		</g>
	</g>
	<g id="그룹_5916" transform="translate(-15 226)">
		<g class="st2">
			<path class="st3" d="M139,2081.1c0-1,0.7-1.6,1.5-1.6s1.5,0.6,1.5,1.6s-0.7,1.6-1.5,1.6S139,2082,139,2081.1z"/>
		</g>
		<g class="st2">
			<path class="st3" d="M139,2099.1c0-1,0.7-1.6,1.5-1.6s1.5,0.6,1.5,1.6s-0.7,1.6-1.5,1.6S139,2100,139,2099.1z"/>
		</g>
		<g class="st2">
			<path class="st3" d="M154.8,2081.7c-1.2-0.4-2.1-1.2-2.6-2.3c-0.5,1.2-1.4,2.2-2.7,2.6l-0.5-0.8c1.6-0.6,2.7-2,2.7-3.5v-0.4h-2.4
				v-0.8h5.8v0.8h-2.4v0.4c0,1.4,1,2.7,2.6,3.2L154.8,2081.7z M157.5,2084.5c0,1.3-1.4,2-3.5,2c-2.2,0-3.6-0.7-3.6-2
				c0-1.2,1.3-2,3.6-2C156.2,2082.5,157.5,2083.2,157.5,2084.5z M156.5,2084.5c0-0.8-1-1.2-2.6-1.2s-2.6,0.4-2.6,1.2s1,1.2,2.6,1.2
				C155.6,2085.7,156.5,2085.3,156.5,2084.5z M159,2078.5v0.8h-1.6v3h-1v-6.5h1v2.7H159z"/>
			<path class="st3" d="M165.8,2076.9c0,3.1-1.4,5.8-5,7.6l-0.5-0.8c2.9-1.4,4.3-3.4,4.5-6h-4v-0.8H165.8z M168.9,2075.7v10.8h-1
				v-10.8H168.9z"/>
			<path class="st3" d="M180.9,2080.7v0.8h-9.8v-0.8h7.2c0.3-1.5,0.3-2.5,0.3-3.5l0,0h-6.3v-0.8h7.3v0.8c0,0.9,0,2-0.3,3.5H180.9z
				 M173.4,2085.4h6.6v0.8h-7.5v-3.5h1v2.7H173.4z"/>
			<path class="st3" d="M191.9,2081.1v0.8h-9.8v-0.8h4.4v-1.6h1v1.6H191.9z M190.9,2080.1c-1.6-0.3-3.2-1.1-3.9-2.4
				c-0.7,1.2-2.3,2.1-3.9,2.4l-0.4-0.8c1.9-0.3,3.8-1.5,3.8-2.9v-0.5h1v0.5c0,1.4,1.9,2.6,3.8,2.9L190.9,2080.1z M183.3,2083h7.4
				v3.5h-1v-2.7h-6.5v-0.8H183.3z"/>
			<path class="st3" d="M196.8,2079c0,1.7,1.2,3.6,2.8,4.4l-0.6,0.8c-1.2-0.6-2.2-1.9-2.7-3.3c-0.5,1.6-1.5,2.9-2.7,3.6l-0.6-0.8
				c1.5-0.8,2.8-2.8,2.8-4.6v-1.4h-2.5v-0.8h5.8v0.8h-2.4L196.8,2079L196.8,2079z M203.3,2080.9h-1.8v5.6h-1v-10.7h1v4.3h1.8V2080.9
				z"/>
			<path class="st3" d="M216.7,2084.3v0.8h-9.8v-0.8h4.4v-2.5h-3.5v-0.8h1.6v-3.5h-1.7v-0.8h8v0.8H214v3.5h1.6v0.8h-3.5v2.5H216.7z
				 M210.5,2081.1h2.7v-3.5h-2.7V2081.1z"/>
			<path class="st3" d="M223.7,2081.6c-1.2-0.4-2.1-1.3-2.6-2.4c-0.4,1.3-1.4,2.2-2.7,2.7l-0.5-0.8c1.6-0.6,2.7-2.1,2.7-3.7v-1.1h1
				v1.2c0,1.5,1.1,2.8,2.6,3.3L223.7,2081.6z M226.5,2084.5c0,1.2-1.4,2-3.5,2c-2.2,0-3.6-0.7-3.6-2s1.4-2,3.6-2
				C225.1,2082.6,226.5,2083.3,226.5,2084.5z M225.5,2084.5c0-0.8-1-1.2-2.6-1.2s-2.6,0.4-2.6,1.2c0,0.7,1,1.2,2.6,1.2
				C224.5,2085.7,225.5,2085.3,225.5,2084.5z M227.9,2078.5v0.8h-1.6v2.9h-1v-6.5h1v2.8H227.9z"/>
		</g>
		<g class="st2">
			<path class="st3" d="M158.8,2100.7h-4.4v3.8h-1v-3.8H149v-0.8h9.7L158.8,2100.7L158.8,2100.7z M150.2,2096.5
				c0-1.4,1.5-2.4,3.8-2.4c2.2,0,3.8,0.9,3.8,2.4s-1.5,2.4-3.8,2.4C151.7,2098.9,150.2,2098,150.2,2096.5z M151.2,2096.5
				c0,1,1.1,1.6,2.7,1.6c1.6,0,2.8-0.6,2.8-1.6c0-0.9-1.1-1.6-2.8-1.6C152.3,2095,151.2,2095.6,151.2,2096.5z"/>
			<path class="st3" d="M169.8,2100.6h-4.4v3.9h-1v-3.9h-4.3v-0.8h9.7V2100.6z M169,2098.6c-1.7-0.3-3.3-1.2-4-2.5
				c-0.7,1.3-2.3,2.2-4,2.5l-0.4-0.8c2-0.3,3.9-1.6,3.9-3.1v-0.6h1v0.6c0,1.5,1.9,2.8,3.9,3.1L169,2098.6z"/>
			<path class="st3" d="M183.6,2102.3v0.8h-9.8v-0.8h4.4v-2.6H175v-5h7.4v5h-3.2v2.6H183.6z M175.9,2098.9h5.5v-3.5h-5.5V2098.9z"/>
			<path class="st3" d="M193.7,2093.7v6.2h-1v-2.7h-2.5v2.1h-4.8v-5h1v1.7h2.9v-1.7h1v2.1h2.5v-2.7L193.7,2093.7z M189.3,2096.8
				h-2.9v1.8h2.9V2096.8z M186.7,2100.5h7v3.8h-7V2100.5z M187.7,2103.6h5.1v-2.3h-5.1V2103.6z"/>
			<path class="st3" d="M202,2099.8c-1.2-0.4-2.2-1.3-2.7-2.4c-0.5,1.2-1.5,2.2-2.7,2.7l-0.5-0.8c1.6-0.6,2.7-2,2.7-3.5v-0.4h-2.5
				v-0.8h5.9v0.8h-2.4v0.4c0,1.4,1.1,2.7,2.7,3.3L202,2099.8z M197.5,2100.8h7.2v3.7h-1v-2.9h-6.2V2100.8z M204.7,2093.7v6.5h-1
				v-6.5H204.7z"/>
			<path class="st3" d="M210,2099.5c-1.1,0-2.1,0.1-3,0.1l-0.1-0.8c2,0,4.7,0,6.9-0.3l0.1,0.7c-0.9,0.1-1.9,0.3-2.9,0.3v2.1h-1
				V2099.5z M207.7,2096c0-1.1,1.1-1.9,2.7-1.9c1.6,0,2.7,0.7,2.7,1.9s-1.1,1.9-2.7,1.9C208.8,2097.9,207.7,2097.2,207.7,2096z
				 M216,2103.4v0.8h-7.6v-3.1h1v2.3H216z M208.7,2096c0,0.7,0.7,1.2,1.7,1.2s1.7-0.5,1.7-1.2s-0.7-1.1-1.7-1.1
				S208.7,2095.3,208.7,2096z M214.8,2100.1v-6.4h1v8.2h-1v-1.1h-2.2v-0.7H214.8z"/>
			<path class="st3" d="M230.4,2102.3v0.8h-9.8v-0.8h4.4v-2.5h-3.5v-0.8h1.6v-3.5h-1.7v-0.8h8v0.8h-1.7v3.5h1.6v0.8H226v2.5H230.4z
				 M224.2,2099.1h2.7v-3.5h-2.7V2099.1z"/>
			<path class="st3" d="M237.4,2099.6c-1.2-0.4-2.1-1.3-2.6-2.4c-0.4,1.3-1.4,2.2-2.7,2.7l-0.5-0.8c1.6-0.6,2.7-2.1,2.7-3.7v-1.1h1
				v1.2c0,1.5,1.1,2.8,2.6,3.3L237.4,2099.6z M240.2,2102.5c0,1.2-1.4,2-3.5,2c-2.2,0-3.5-0.7-3.5-2s1.4-2,3.5-2
				C238.8,2100.6,240.2,2101.3,240.2,2102.5z M239.2,2102.5c0-0.8-1-1.2-2.6-1.2s-2.6,0.4-2.6,1.2c0,0.7,1,1.2,2.6,1.2
				C238.2,2103.7,239.2,2103.3,239.2,2102.5z M241.7,2096.5v0.8h-1.6v2.9h-1v-6.5h1v2.8H241.7z"/>
		</g>
	</g>
	<g id="그룹_5910" transform="translate(174.007 2.372)">
		<g class="st2">
			<path class="st3" d="M140.5,2078.7c0-1,0.7-1.6,1.5-1.6s1.5,0.6,1.5,1.6s-0.7,1.6-1.5,1.6
				C141.2,2080.3,140.5,2079.7,140.5,2078.7z"/>
		</g>
		<g class="st2">
			<path class="st3" d="M140.5,2096.7c0-1,0.7-1.6,1.5-1.6s1.5,0.6,1.5,1.6s-0.7,1.6-1.5,1.6
				C141.2,2098.3,140.5,2097.7,140.5,2096.7z"/>
		</g>
		<g class="st2">
			<path class="st3" d="M140.5,2114.7c0-1,0.7-1.6,1.5-1.6s1.5,0.6,1.5,1.6s-0.7,1.6-1.5,1.6
				C141.2,2116.3,140.5,2115.7,140.5,2114.7z"/>
		</g>
		<g class="st2">
			<path class="st3" d="M156.9,2075.3h-6.3v-0.8h2.7v-1.2h1v1.2h2.7L156.9,2075.3L156.9,2075.3z M153.8,2079.7
				c-1.5,0-2.6-0.8-2.6-1.9c0-1.2,1-1.9,2.6-1.9c1.5,0,2.6,0.8,2.6,1.9C156.3,2079,155.3,2079.7,153.8,2079.7z M151.9,2080.7h7v3.5
				h-1v-2.7h-6V2080.7z M153.8,2079c1,0,1.6-0.5,1.6-1.2s-0.7-1.2-1.6-1.2s-1.6,0.5-1.6,1.2C152.1,2078.5,152.8,2079,153.8,2079z
				 M160.5,2077.1h-1.6v2.9h-1v-6.7h1v3h1.6V2077.1z"/>
			<path class="st3" d="M165.2,2076.6c0,1.7,1.2,3.6,2.8,4.4l-0.6,0.8c-1.2-0.6-2.2-1.9-2.7-3.3c-0.5,1.6-1.5,2.9-2.7,3.6l-0.6-0.8
				c1.5-0.8,2.8-2.8,2.8-4.6v-1.4h-2.5v-0.8h5.8v0.8h-2.4L165.2,2076.6L165.2,2076.6z M171.6,2078.5h-1.8v5.6h-1v-10.7h1v4.3h1.8
				V2078.5z"/>
			<path class="st3" d="M182.4,2077.9v0.8h-9.8v-0.8h7.2c0.3-1.3,0.3-2.3,0.3-3.2h-6.3v-0.8h7.3v0.8c0,0.8,0,1.8-0.3,3.2H182.4z
				 M173.8,2080.1h7.3v3.8h-7.3V2080.1z M174.8,2083.2h5.4v-2.2h-5.4V2083.2z"/>
			<path class="st3" d="M190.2,2076.6c0,1.8,1.3,3.7,2.9,4.4l-0.6,0.8c-1.2-0.6-2.3-1.8-2.8-3.3c-0.5,1.6-1.5,2.9-2.8,3.5l-0.6-0.8
				c1.5-0.7,2.9-2.8,2.9-4.6v-1.4h-2.5v-0.8h6v0.8h-2.5L190.2,2076.6L190.2,2076.6z M195.2,2073.4v10.7h-1v-10.7H195.2z"/>
			<path class="st3" d="M200.5,2079.1c-1.1,0-2.1,0.1-3,0.1l-0.1-0.8c2,0,4.7,0,6.9-0.3l0.1,0.7c-0.9,0.1-1.9,0.3-2.9,0.3v2.1h-1
				V2079.1z M198.2,2075.7c0-1.1,1.1-1.9,2.7-1.9s2.7,0.7,2.7,1.9s-1.1,1.9-2.7,1.9S198.2,2076.8,198.2,2075.7z M206.5,2083.1v0.8
				h-7.6v-3.1h1v2.3H206.5z M199.1,2075.7c0,0.7,0.7,1.2,1.7,1.2s1.7-0.5,1.7-1.2s-0.7-1.1-1.7-1.1S199.1,2075,199.1,2075.7z
				 M205.2,2079.7v-6.4h1v8.2h-1v-1.1H203v-0.7H205.2z"/>
		</g>
		<g class="st2">
			<path class="st3" d="M156.6,2097.4c-1.2-0.4-2.2-1.3-2.7-2.4c-0.5,1.2-1.5,2.2-2.7,2.7l-0.5-0.8c1.6-0.6,2.7-2,2.7-3.5v-0.4H151
				v-0.8h5.9v0.8h-2.4v0.4c0,1.4,1.1,2.7,2.7,3.3L156.6,2097.4z M152.2,2098.4h7.2v3.7h-1v-2.9h-6.2V2098.4z M159.4,2091.4v6.5h-1
				v-6.5H159.4z"/>
			<path class="st3" d="M167.4,2097.3c-1.2-0.4-2.1-1.2-2.6-2.3c-0.5,1.2-1.4,2.2-2.7,2.6l-0.5-0.8c1.6-0.6,2.7-2,2.7-3.5v-0.4h-2.4
				v-0.8h5.8v0.8h-2.4v0.4c0,1.4,1,2.7,2.6,3.2L167.4,2097.3z M170.1,2100.1c0,1.3-1.4,2-3.5,2c-2.2,0-3.6-0.7-3.6-2
				c0-1.2,1.3-2,3.6-2C168.7,2098.1,170.1,2098.9,170.1,2100.1z M169.1,2100.1c0-0.8-1-1.2-2.6-1.2s-2.6,0.4-2.6,1.2s1,1.2,2.6,1.2
				S169.1,2100.9,169.1,2100.1z M171.5,2094.1v0.8h-1.6v3h-1v-6.5h1v2.7H171.5z"/>
			<path class="st3" d="M181.5,2091.4v10.8h-1v-5.9h-2.3c-0.1,2.1-1.2,3.4-2.7,3.4c-1.6,0-2.7-1.5-2.7-3.8s1.1-3.8,2.7-3.8
				c1.5,0,2.5,1.3,2.7,3.3h2.3v-4.1h1V2091.4z M177.3,2095.9c0-1.7-0.7-2.9-1.7-2.9s-1.8,1.1-1.8,2.9c0,1.8,0.7,2.9,1.8,2.9
				C176.5,2098.8,177.3,2097.7,177.3,2095.9z"/>
			<path class="st3" d="M190.3,2097.4c-1.7,0.3-3.2,0.4-5.2,0.4h-0.9v-3.3h3.9v-1.6h-3.9v-0.8h4.9v3.1h-3.9v1.7c2,0,3.4-0.1,5-0.4
				L190.3,2097.4z M192.8,2101.1v0.8h-7.3v-3.2h1v2.4H192.8z M192.5,2099.3h-1v-7.9h1V2099.3z"/>
			<path class="st3" d="M200.6,2095.9c0,2.3-1.1,3.8-2.7,3.8c-1.6,0-2.7-1.5-2.7-3.8s1.1-3.8,2.7-3.8
				C199.4,2092.2,200.6,2093.6,200.6,2095.9z M196,2095.9c0,1.8,0.7,2.9,1.8,2.9c1,0,1.8-1.1,1.8-2.9c0-1.7-0.7-2.9-1.8-2.9
				C196.8,2093.1,196,2094.2,196,2095.9z M203.5,2091.4v10.8h-1v-10.8H203.5z"/>
			<path class="st3" d="M211.9,2097c-1.2-0.4-2.2-1.3-2.7-2.4c-0.5,1.2-1.5,2.1-2.7,2.6l-0.5-0.8c1.6-0.5,2.7-1.9,2.7-3.3v-0.2h-2.5
				v-0.8h5.9v0.8h-2.4v0.2c0,1.4,1.1,2.7,2.7,3.2L211.9,2097z M213.6,2097.7h1v4.3h-6.9v-4.3h1v1.3h5v-1.3H213.6z M213.6,2099.8h-5
				v1.4h5V2099.8z M214.6,2091.4v5.8h-1v-5.8H214.6z"/>
			<path class="st3" d="M229.2,2096.8v0.8h-4.3v2.2h-1v-2.2h-4.5v-0.8H229.2z M220.6,2093.8c0-1.3,1.5-2.2,3.8-2.2s3.8,0.8,3.8,2.2
				c0,1.3-1.5,2.2-3.8,2.2S220.6,2095.1,220.6,2093.8z M221.7,2101.1h6.5v0.8h-7.4v-3.1h1v2.3H221.7z M221.6,2093.8
				c0,0.8,1.1,1.4,2.7,1.4c1.7,0,2.7-0.5,2.7-1.4s-1.1-1.4-2.7-1.4C222.7,2092.4,221.6,2092.9,221.6,2093.8z"/>
			<path class="st3" d="M235.6,2096.2c-0.5,0.6-1.3,0.9-2.2,0.9c-1.6,0-2.8-1.1-2.8-2.6s1.2-2.5,2.8-2.5c0.9,0,1.7,0.3,2.2,0.9h2.8
				v-1.5h1v6.4h-1v-1.5L235.6,2096.2L235.6,2096.2z M233.5,2096.3c1.1,0,1.8-0.7,1.8-1.7s-0.8-1.7-1.8-1.7s-1.8,0.7-1.8,1.7
				C231.6,2095.6,232.4,2096.3,233.5,2096.3z M239.4,2100c0,1.3-1.4,2.1-3.6,2.1c-2.2,0-3.6-0.8-3.6-2.1s1.4-2.1,3.6-2.1
				C238,2098,239.4,2098.7,239.4,2100z M238.5,2100c0-0.8-1-1.3-2.6-1.3s-2.6,0.5-2.6,1.3s1,1.3,2.6,1.3S238.5,2100.8,238.5,2100z
				 M236.1,2093.7c0.1,0.3,0.1,0.5,0.1,0.8s0,0.6-0.1,0.8h2.3v-1.7L236.1,2093.7L236.1,2093.7z"/>
		</g>
		<g class="st2">
			<path class="st3" d="M154.6,2117.1c1-0.1,2-0.1,3-0.3l0.1,0.7c-2.4,0.5-5,0.5-7,0.5l-0.1-0.8c0.9,0,1.9,0,3,0v-1.8h-2.2v-5h5.6
				v0.8h-4.6v1.3h4.3v0.8h-4.3v1.3h4.6v0.8h-2.4L154.6,2117.1L154.6,2117.1z M159.3,2109.3v10.8h-1v-10.8H159.3z"/>
			<path class="st3" d="M167.7,2115.4c-1.2-0.4-2.2-1.3-2.7-2.4c-0.5,1.2-1.5,2.2-2.7,2.7l-0.5-0.8c1.6-0.6,2.7-2,2.7-3.5v-0.4H162
				v-0.8h5.9v0.8h-2.4v0.4c0,1.4,1.1,2.7,2.7,3.3L167.7,2115.4z M163.2,2116.4h7.2v3.7h-1v-2.9h-6.2V2116.4z M170.4,2109.4v6.5h-1
				v-6.5H170.4z"/>
			<path class="st3" d="M177.8,2114.4c-0.5,0.6-1.3,1-2.2,1c-1.6,0-2.8-1.1-2.8-2.7s1.2-2.7,2.8-2.7c0.9,0,1.7,0.4,2.2,1h2.7v-1.7h1
				v7.9h-1v-2.9L177.8,2114.4L177.8,2114.4z M175.6,2114.6c1,0,1.8-0.8,1.8-1.8s-0.8-1.8-1.8-1.8c-1.1,0-1.8,0.8-1.8,1.8
				S174.5,2114.6,175.6,2114.6z M181.8,2119.1v0.8h-7.2v-3.4h1v2.6L181.8,2119.1L181.8,2119.1z M178.2,2111.8
				c0.1,0.3,0.1,0.6,0.1,0.9c0,0.3,0,0.6-0.1,0.9h2.3v-1.8L178.2,2111.8L178.2,2111.8z"/>
			<path class="st3" d="M193.4,2113.9v0.8h-9.8v-0.8h7.2c0.3-1.3,0.3-2.3,0.3-3.2h-6.3v-0.8h7.3v0.8c0,0.8,0,1.8-0.3,3.2H193.4z
				 M184.9,2116.1h7.3v3.8h-7.3V2116.1z M185.8,2119.2h5.4v-2.2h-5.4V2119.2z"/>
			<path class="st3" d="M197.9,2112.4c0,1.9,0.8,3.7,2.3,4.6l-0.6,0.7c-1-0.6-1.8-1.8-2.2-3.1c-0.4,1.5-1.2,2.7-2.2,3.4l-0.6-0.7
				c1.5-0.9,2.3-2.9,2.3-4.8v-1h-2v-0.8h4.9v0.8h-1.9V2112.4z M200.7,2109.6h0.9v10h-0.9v-5.5H199v-0.8h1.8v-3.7H200.7z
				 M203.9,2109.3v10.8H203v-10.8H203.9z"/>
			<path class="st3" d="M215.5,2117.9v0.8h-9.8v-0.8h4.4v-2.8H207v-5h7.3v0.8H208v3.4h6.4v0.8h-3.3v2.8H215.5z"/>
			<path class="st3" d="M225,2110.5c0,3.1-1.4,5.8-4.9,7.6l-0.5-0.8c2.7-1.4,4.2-3.4,4.4-6h-3.9v-0.8H225z M229.5,2114.5h-1.7v5.6
				h-1v-10.8h1v4.4h1.7V2114.5z"/>
			<path class="st3" d="M236.4,2112.3c0,1.5-1.2,2.5-2.8,2.5s-2.8-1-2.8-2.5s1.2-2.5,2.8-2.5
				C235.2,2109.9,236.4,2110.9,236.4,2112.3z M231.7,2112.3c0,1,0.8,1.7,1.8,1.7c1.1,0,1.9-0.7,1.9-1.7s-0.8-1.7-1.9-1.7
				C232.5,2110.7,231.7,2111.4,231.7,2112.3z M233.4,2115.7v1.3h5v-1.3h1v4.3h-6.9v-4.3H233.4z M233.4,2119.2h5v-1.4h-5V2119.2z
				 M239.3,2109.4v5.8h-1v-5.8H239.3z"/>
		</g>
	</g>
	<g id="그룹_5914" transform="translate(174.007 165.372)">
		<g class="st2">
			<path class="st3" d="M140.5,2078.7c0-1,0.7-1.6,1.5-1.6s1.5,0.6,1.5,1.6s-0.7,1.6-1.5,1.6
				C141.2,2080.3,140.5,2079.7,140.5,2078.7z"/>
		</g>
		<g class="st2">
			<path class="st3" d="M140.5,2096.7c0-1,0.7-1.6,1.5-1.6s1.5,0.6,1.5,1.6s-0.7,1.6-1.5,1.6
				C141.2,2098.3,140.5,2097.7,140.5,2096.7z"/>
		</g>
		<g class="st2">
			<path class="st3" d="M154.2,2076.2c0,1.9,1.2,3.8,2.7,4.6l-0.6,0.8c-1.1-0.6-2.1-1.9-2.6-3.3c-0.5,1.6-1.5,2.9-2.7,3.6l-0.6-0.8
				c1.5-0.8,2.8-2.9,2.8-4.8v-1.9h1L154.2,2076.2L154.2,2076.2z M160.6,2078.5h-1.8v5.6h-1v-10.7h1v4.4h1.8V2078.5z"/>
			<path class="st3" d="M163.1,2080.5c1,0,2.2-0.1,3.5-0.3l0.1,0.9c-1.5,0.3-2.7,0.3-3.8,0.3h-0.7v-6.7h1v5.8H163.1z M170.7,2073.4
				v10.7h-0.9v-5.6h-1.5v5h-0.9v-10h0.9v4.1h1.5v-4.4h0.9V2073.4z"/>
			<path class="st3" d="M182.4,2078.7v0.8h-9.7v-0.8h4.4v-1.2h-3.2v-3.6h7.3v0.8h-6.3v2h6.4v0.8H178v1.2H182.4z M181.2,2082.2
				c0,1.2-1.4,1.9-3.7,1.9s-3.7-0.7-3.7-1.9s1.4-1.9,3.7-1.9C179.8,2080.2,181.2,2080.9,181.2,2082.2z M180.2,2082.2
				c0-0.8-1-1.2-2.7-1.2s-2.7,0.4-2.7,1.2s1,1.2,2.7,1.2C179.2,2083.3,180.2,2082.9,180.2,2082.2z"/>
			<path class="st3" d="M193.4,2082.1v0.8h-9.8v-0.8h4.4v-1.5c-1.9-0.1-3-0.8-3-2c0-1.3,1.4-2,3.5-2s3.5,0.7,3.5,2
				c0,1.2-1.1,1.9-3,2v1.5H193.4z M192.9,2075.7h-8.7v-0.8h3.9v-1.4h1v1.4h3.8V2075.7z M188.5,2079.8c1.5,0,2.5-0.5,2.5-1.3
				s-1-1.3-2.5-1.3c-1.6,0-2.5,0.5-2.5,1.3S187,2079.8,188.5,2079.8z"/>
			<path class="st3" d="M198.8,2081.2c1,0,2.1-0.1,3-0.3l0.1,0.7c-2.4,0.4-5,0.4-7,0.4l-0.1-0.8c0.9,0,1.9,0,3,0v-1.2
				c-1.3-0.2-2.1-0.9-2.1-2c0-1.2,1.1-2,2.6-2s2.6,0.8,2.6,2c0,1.1-0.8,1.8-2.1,2V2081.2z M201.5,2075.5H195v-0.8h2.8v-1.3h1v1.3
				h2.8v0.8H201.5z M198.3,2079.3c1,0,1.6-0.5,1.6-1.2c0-0.8-0.7-1.2-1.6-1.2c-1,0-1.7,0.5-1.7,1.2S197.3,2079.3,198.3,2079.3z
				 M203.5,2073.4v10.8h-1v-10.8H203.5z"/>
		</g>
		<g class="st2">
			<path class="st3" d="M160.3,2098.3h-2.5v3.8h-1v-3.8h-2.7v3.8h-1v-3.8h-2.5v-0.8h9.7V2098.3z M151.6,2094.1
				c0-1.4,1.5-2.3,3.8-2.3c2.2,0,3.8,0.9,3.8,2.3c0,1.4-1.5,2.4-3.8,2.4C153.2,2096.5,151.6,2095.6,151.6,2094.1z M152.7,2094.1
				c0,0.9,1.1,1.6,2.7,1.6c1.6,0,2.8-0.6,2.8-1.6c0-0.9-1.1-1.5-2.8-1.5C153.8,2092.6,152.7,2093.2,152.7,2094.1z"/>
			<path class="st3" d="M166.7,2096.4c-0.5,0.6-1.3,1-2.2,1c-1.6,0-2.8-1.1-2.8-2.7s1.2-2.7,2.8-2.7c0.9,0,1.7,0.4,2.2,1h2.7v-1.7h1
				v7.9h-1v-2.9L166.7,2096.4L166.7,2096.4z M164.5,2096.6c1,0,1.8-0.8,1.8-1.8s-0.8-1.8-1.8-1.8c-1.1,0-1.8,0.8-1.8,1.8
				S163.5,2096.6,164.5,2096.6z M170.8,2101.1v0.8h-7.2v-3.4h1v2.6L170.8,2101.1L170.8,2101.1z M167.1,2093.8
				c0.1,0.3,0.1,0.6,0.1,0.9c0,0.3,0,0.6-0.1,0.9h2.3v-1.8L167.1,2093.8L167.1,2093.8z"/>
			<path class="st3" d="M182.4,2096.3v0.8h-9.8v-0.8h7.2c0.3-1.5,0.3-2.5,0.3-3.5l0,0h-6.3v-0.8h7.3v0.8c0,0.9,0,2-0.3,3.5H182.4z
				 M174.9,2101.1h6.6v0.8H174v-3.5h1v2.7H174.9z"/>
			<path class="st3" d="M193.4,2100v0.8h-9.8v-0.8h4.4v-2h-3.2v-3.3h6.4v-1.7h-6.4v-0.8h7.4v3.3h-6.4v1.7h6.6v0.8H189v2H193.4z"/>
			<path class="st3" d="M198.5,2094.2c0,2,1.3,3.9,2.9,4.7l-0.6,0.8c-1.2-0.6-2.3-1.9-2.8-3.4c-0.5,1.6-1.5,3-2.8,3.6l-0.6-0.8
				c1.6-0.8,2.9-2.8,2.9-4.9v-1.9h1L198.5,2094.2L198.5,2094.2z M203.5,2091.4v10.8h-1v-10.8H203.5z"/>
			<path class="st3" d="M211.2,2092.2c0,2.8-2,4.8-5,5.8l-0.4-0.8c2.5-0.8,4.2-2.3,4.4-4.2h-4v-0.8H211.2z M208.4,2101.1h6.2v0.8
				h-7.2v-3.5h1V2101.1z M215.7,2094.6v0.8h-1.6v3.8h-1v-7.9h1v3.3L215.7,2094.6L215.7,2094.6z"/>
			<path class="st3" d="M219.9,2094.4c0,1.9,0.8,3.7,2.3,4.6l-0.6,0.7c-1-0.6-1.8-1.8-2.2-3.1c-0.4,1.5-1.2,2.7-2.2,3.4l-0.6-0.7
				c1.5-0.9,2.3-2.9,2.3-4.8v-1h-2v-0.8h4.9v0.8h-1.9V2094.4z M222.8,2091.6h0.9v10h-0.9v-5.5H221v-0.8h1.8V2091.6z M225.9,2091.3
				v10.8H225v-10.8H225.9z"/>
			<path class="st3" d="M240.3,2099.9v0.8h-9.8v-0.8h4.4v-2.8h-3.1v-5h7.3v0.8h-6.3v3.4h6.4v0.8h-3.3v2.8H240.3z"/>
			<path class="st3" d="M247.4,2094.3c0,1.5-1.2,2.5-2.8,2.5s-2.8-1-2.8-2.5s1.2-2.5,2.8-2.5
				C246.2,2091.9,247.4,2092.9,247.4,2094.3z M242.8,2094.3c0,1,0.8,1.7,1.8,1.7c1.1,0,1.9-0.7,1.9-1.7s-0.8-1.7-1.9-1.7
				C243.5,2092.7,242.8,2093.4,242.8,2094.3z M244.4,2097.7v1.3h5v-1.3h1v4.3h-6.9v-4.3H244.4z M244.4,2101.2h5v-1.4h-5V2101.2z
				 M250.4,2091.4v5.8h-1v-5.8H250.4z"/>
		</g>
	</g>
	<g id="그룹_5915" transform="translate(174.007 228.372)">
		<g class="st2">
			<path class="st3" d="M140.5,2078.7c0-1,0.7-1.6,1.5-1.6s1.5,0.6,1.5,1.6s-0.7,1.6-1.5,1.6
				C141.2,2080.3,140.5,2079.7,140.5,2078.7z"/>
		</g>
		<g class="st2">
			<path class="st3" d="M156.3,2079.6c-1.2-0.5-2.1-1.4-2.6-2.6c-0.5,1.3-1.4,2.3-2.7,2.8l-0.5-0.8c1.6-0.6,2.7-2.1,2.7-3.8v-1.3h1
				v1.4c0,1.5,1.1,2.9,2.6,3.5L156.3,2079.6z M159.7,2083.1v0.8h-7.2v-3.4h1v2.6L159.7,2083.1L159.7,2083.1z M158.4,2076.7H156v-0.8
				h2.4v-2.5h1v8h-1V2076.7z"/>
			<path class="st3" d="M166.7,2079c-1.2,0.3-2.3,0.3-4,0.3H162v-5.2h4.1v0.8H163v1.4h3.1v0.8H163v1.5c1.5,0,2.5-0.1,3.6-0.3
				L166.7,2079z M163.4,2080.4h7.2v3.7h-1v-2.9h-6.2V2080.4z M170.7,2073.4v6.5h-0.9v-2.9h-1.4v2.8h-0.9v-6.2h0.9v2.6h1.4v-2.8
				L170.7,2073.4L170.7,2073.4z"/>
			<path class="st3" d="M178.5,2079.4c-1.2-0.4-2.1-1.3-2.6-2.4c-0.5,1.2-1.4,2.2-2.7,2.7l-0.5-0.8c1.6-0.6,2.7-2,2.7-3.5v-0.4H173
				v-0.8h5.7v0.8h-2.4v0.4c0,1.4,1.1,2.7,2.6,3.3L178.5,2079.4z M174.3,2080.4h7.2v3.7h-1v-3h-6.2V2080.4z M181.5,2073.4v6.4h-1
				v-2.8h-2.1v-0.8h2.1v-2.8L181.5,2073.4L181.5,2073.4z"/>
			<path class="st3" d="M196.1,2078.9v0.8h-9.7v-0.8h4.4v-1.3h-3.1v-4h1v1.2h5.2v-1.2h1v4h-3.1v1.3H196.1z M187.4,2080.8h7.4v3.4h-1
				v-2.6h-6.5v-0.8H187.4z M188.6,2076.8h5.2v-1.2h-5.2V2076.8z"/>
			<path class="st3" d="M201.2,2076.6c0,1.8,1.3,3.7,2.9,4.4l-0.6,0.8c-1.2-0.6-2.3-1.8-2.8-3.3c-0.5,1.6-1.5,2.9-2.8,3.5l-0.6-0.8
				c1.5-0.7,2.9-2.8,2.9-4.6v-1.4h-2.5v-0.8h6v0.8h-2.5L201.2,2076.6L201.2,2076.6z M206.2,2073.4v10.7h-1v-10.7H206.2z"/>
			<path class="st3" d="M211.6,2076.4c0,1.9,0.8,3.7,2.3,4.6l-0.6,0.7c-1-0.6-1.8-1.8-2.2-3.1c-0.4,1.5-1.2,2.7-2.2,3.4l-0.6-0.7
				c1.5-0.9,2.3-2.9,2.3-4.8v-1h-2v-0.8h4.9v0.8h-1.9V2076.4z M214.5,2073.6h0.9v10h-0.9v-5.5h-1.8v-0.8h1.8V2073.6z M217.6,2073.3
				v10.8h-0.9v-10.8H217.6z"/>
			<path class="st3" d="M229.2,2081.9v0.8h-9.8v-0.8h4.4v-2.8h-3.1v-5h7.3v0.8h-6.3v3.4h6.4v0.8h-3.3v2.8H229.2z"/>
			<path class="st3" d="M242.9,2078.8v0.8h-4.3v2.2h-1v-2.2h-4.5v-0.8H242.9z M234.3,2075.8c0-1.3,1.5-2.2,3.8-2.2s3.8,0.8,3.8,2.2
				c0,1.3-1.5,2.2-3.8,2.2S234.3,2077.1,234.3,2075.8z M235.4,2083.1h6.5v0.8h-7.4v-3.1h1v2.3H235.4z M235.3,2075.8
				c0,0.8,1.1,1.4,2.7,1.4c1.7,0,2.7-0.5,2.7-1.4s-1.1-1.4-2.7-1.4C236.4,2074.4,235.3,2074.9,235.3,2075.8z"/>
			<path class="st3" d="M249.4,2078.2c-0.5,0.6-1.3,0.9-2.2,0.9c-1.6,0-2.8-1.1-2.8-2.6s1.2-2.5,2.8-2.5c0.9,0,1.7,0.3,2.2,0.9h2.8
				v-1.5h1v6.4h-1v-1.5L249.4,2078.2L249.4,2078.2z M247.2,2078.3c1.1,0,1.8-0.7,1.8-1.7s-0.8-1.7-1.8-1.7s-1.8,0.7-1.8,1.7
				S246.1,2078.3,247.2,2078.3z M253.1,2082c0,1.3-1.4,2.1-3.6,2.1c-2.2,0-3.6-0.8-3.6-2.1s1.4-2.1,3.6-2.1
				C251.8,2080,253.1,2080.7,253.1,2082z M252.2,2082c0-0.8-1-1.3-2.6-1.3s-2.6,0.5-2.6,1.3s1,1.3,2.6,1.3S252.2,2082.8,252.2,2082z
				 M249.8,2075.7c0.1,0.3,0.1,0.5,0.1,0.8s0,0.6-0.1,0.8h2.3v-1.7L249.8,2075.7L249.8,2075.7z"/>
		</g>
	</g>
	<line id="선_401" class="st4" x1="298.5" y1="2059.4" x2="298.5" y2="2158.1"/>
	<line id="선_407" class="st0" x1="298.5" y1="2219.3" x2="298.5" y2="2347.6"/>
	<path id="패스_1677" class="st5" d="M20,2018.6h424.4"/>
	<path id="패스_1682" class="st5" d="M20,2347.6h424.4"/>
</g>
</svg>
