<?xml version="1.0" encoding="utf-8"?>
<!-- Generator: Adobe Illustrator 25.1.0, SVG Export Plug-In . SVG Version: 6.00 Build 0)  -->
<svg version="1.1" id="레이어_1" xmlns="http://www.w3.org/2000/svg" xmlns:xlink="http://www.w3.org/1999/xlink" x="0px"
	 y="0px" viewBox="0 0 921.5 433.2" style="enable-background:new 0 0 921.5 433.2;" xml:space="preserve">
<style type="text/css">
	.st0{enable-background:new    ;}
	.st1{fill:#E37E28;}
	.st2{opacity:0.416;fill:none;stroke:#94989E;enable-background:new    ;}
	.st3{fill:#929397;}
	.st4{fill:#5A5A5A;}
	.st5{fill:#DE3F5C;}
	.st6{fill:#FAFAFA;}
	.st7{fill:#DA7A2C;}
</style>
<g id="그룹_5505" transform="translate(-740 -1264.776)">
	<g class="st0">
		<path class="st1" d="M741,1290.7c4.6-4.4,7.7-7.4,7.7-10c0-1.8-1-2.8-2.7-2.8c-1.3,0-2.4,0.9-3.3,1.8l-1.9-1.9
			c1.6-1.8,3.2-2.7,5.6-2.7c3.4,0,5.6,2.1,5.6,5.4c0,3-2.8,6.1-6,9.5c0.9-0.1,2.1-0.2,2.9-0.2h3.9v3H741V1290.7z"/>
		<path class="st1" d="M755.2,1284c0-5.9,2.4-8.9,6-8.9s6,3.1,6,8.9c0,5.9-2.4,9.1-6,9.1S755.2,1289.9,755.2,1284z M763.9,1284
			c0-4.8-1.1-6.1-2.7-6.1s-2.7,1.3-2.7,6.1c0,4.8,1.2,6.3,2.7,6.3S763.9,1288.9,763.9,1284z"/>
		<path class="st1" d="M769.3,1290.7c4.6-4.4,7.7-7.4,7.7-10c0-1.8-1-2.8-2.7-2.8c-1.3,0-2.4,0.9-3.3,1.8l-1.9-1.9
			c1.6-1.8,3.2-2.7,5.6-2.7c3.4,0,5.6,2.1,5.6,5.4c0,3-2.8,6.1-6,9.5c0.9-0.1,2.1-0.2,2.9-0.2h3.9v3h-11.9V1290.7z"/>
		<path class="st1" d="M783.5,1284c0-5.9,2.4-8.9,6-8.9s6,3.1,6,8.9c0,5.9-2.4,9.1-6,9.1S783.5,1289.9,783.5,1284z M792.2,1284
			c0-4.8-1.1-6.1-2.7-6.1s-2.7,1.3-2.7,6.1c0,4.8,1.2,6.3,2.7,6.3S792.2,1288.9,792.2,1284z"/>
		<path class="st1" d="M814.6,1283.8v3.1h6.1v7.9h-3.2v-5.4H805v-2.5h6.4v-3.1H803v-2.5h14.1c0.4-2,0.5-3.6,0.5-5.1h-12.1v-2.5h15.2
			v1.8c0,1.7,0,3.5-0.4,5.9h2.8v2.5H814.6z"/>
		<path class="st1" d="M829.1,1286.7c1.7,0,3.6-0.2,5.7-0.6l0.3,2.7c-2.9,0.5-5.4,0.6-7.6,0.6H826v-14.3h3.2V1286.7z M844,1272.7
			v22.1h-3v-11h-2v10h-3v-20.7h3v8.1h2v-8.5H844z"/>
		<path class="st1" d="M855.9,1287.7c1.8-0.1,3.6-0.3,5.4-0.5l0.2,2.3c-4.8,1-9.9,1-13.8,1l-0.4-2.6c1.6,0,3.5,0,5.4,0v-3.1
			c-2.6-0.6-4.5-2.6-4.5-5.3c0-3.2,2.6-5.4,6.1-5.4c3.5,0,6.1,2.3,6.1,5.4c0,2.7-1.9,4.7-4.5,5.3V1287.7z M854.3,1282.2
			c1.7,0,3-1,3-2.7c0-1.7-1.3-2.7-3-2.7s-3,1-3,2.7C851.3,1281.2,852.6,1282.2,854.3,1282.2z M865.6,1272.7v22.2h-3.2v-22.2H865.6z"
			/>
		<path class="st1" d="M886.9,1277.1h-12.1v-2.5h4.6v-2h3.2v2h4.3V1277.1z M881,1285.8c-3,0-5.2-1.6-5.2-4c0-2.4,2.1-4,5.2-4
			c3,0,5.2,1.6,5.2,4C886.2,1284.2,884,1285.8,881,1285.8z M890.1,1286.7h3.1v7.8h-14.8v-7.8h3.1v1.6h8.5V1286.7z M881,1283.5
			c1.3,0,2.2-0.6,2.2-1.7c0-1.1-0.9-1.7-2.2-1.7c-1.3,0-2.2,0.6-2.2,1.7C878.8,1282.9,879.7,1283.5,881,1283.5z M890.1,1290.7h-8.5
			v1.5h8.5V1290.7z M893.2,1272.7v13.2H890v-1.6h-2.9v-2.5h2.9v-1.8h-2.8v-2.5h2.8v-4.7H893.2z"/>
		<path class="st1" d="M908.4,1285.3c-2.6,0.5-4.8,0.6-9,0.6h-1.7v-7.2h6.5v-2.1h-6.6v-2.5h9.7v7h-6.5v2.3c3.2,0,5.1-0.1,7.3-0.5
			L908.4,1285.3z M900.2,1287.4h15.1v7.5h-3.2v-5h-12V1287.4z M915.3,1272.7v13.6h-3.2v-3.3h-3.6v-2.5h3.6v-2.2h-3.6v-2.5h3.6v-3
			L915.3,1272.7z"/>
		<path class="st1" d="M927,1277.7c0,4,1.6,8,5.1,9.7l-1.9,2.5c-2.3-1.2-3.9-3.3-4.8-6c-1,2.8-2.6,5.1-5.1,6.4l-1.9-2.6
			c3.7-1.8,5.4-6,5.4-10.1v-3.2h3.2V1277.7z M939.4,1283.9h-3.2v11H933v-22.1h3.2v8.5h3.2V1283.9z"/>
		<path class="st1" d="M966.4,1286h-8.5v8.9h-3.2v-8.9h-8.3v-2.5h13.9c0.6-2.8,0.6-5,0.6-6.9h-12.2v-2.5H964v2c0,2.1,0,4.3-0.6,7.4
			h2.9V1286z"/>
		<path class="st1" d="M969.1,1275h8.7v14.3h-8.7V1275z M972.1,1286.8h2.8v-9.4h-2.8V1286.8z M987.4,1272.7v22.1h-3v-11.1h-1.8v10.1
			h-3v-20.8h3v8.1h1.8v-8.4H987.4z"/>
		<path class="st1" d="M1002.8,1277.5h-12.1v-2.5h4.6v-2.4h3.2v2.4h4.3V1277.5z M996.8,1287c-3,0-5.2-1.8-5.2-4.4
			c0-2.5,2.2-4.3,5.2-4.3c3,0,5.2,1.8,5.2,4.3C1002,1285.2,999.8,1287,996.8,1287z M1009.5,1291.9v2.5h-15.1v-6.2h3.2v3.7H1009.5z
			 M996.8,1284.6c1.3,0,2.2-0.7,2.2-1.9c0-1.2-0.9-1.9-2.2-1.9c-1.3,0-2.2,0.7-2.2,1.9C994.6,1283.9,995.6,1284.6,996.8,1284.6z
			 M1005.9,1285.5h-2.9v-2.5h2.9v-2.2h-2.9v-2.5h2.9v-5.5h3.2v16.8h-3.2V1285.5z"/>
		<path class="st1" d="M1026.2,1286.2c-4.6,0.8-9.7,0.9-13.5,0.9l-0.3-2.4c1.6,0,3.4,0,5.3,0v-1.2c-2.4-0.4-3.8-1.4-3.8-3.1
			c0-2,2.1-3.2,5.4-3.2c3.3,0,5.4,1.2,5.4,3.2c0,1.6-1.4,2.7-3.8,3v1.2c1.8-0.1,3.6-0.2,5.2-0.4L1026.2,1286.2z M1025.5,1276.6
			h-12.6v-2.3h4.7v-1.8h3.2v1.8h4.7V1276.6z M1030.3,1291.4c0,2.3-2.8,3.5-7.5,3.5s-7.5-1.2-7.5-3.5c0-2.3,2.8-3.5,7.5-3.5
			S1030.3,1289.1,1030.3,1291.4z M1019.2,1281.4c1.5,0,2.4-0.4,2.4-1.1s-0.9-1.1-2.4-1.1c-1.5,0-2.4,0.4-2.4,1.1
			S1017.7,1281.4,1019.2,1281.4z M1027.1,1291.4c0-0.8-1.3-1.2-4.3-1.2c-3,0-4.3,0.4-4.3,1.2c0,0.8,1.3,1.2,4.3,1.2
			C1025.8,1292.6,1027.1,1292.2,1027.1,1291.4z M1032.9,1279v2.6h-2.8v6h-3.2v-14.9h3.2v6.3H1032.9z"/>
	</g>
	<path id="패스_3188" class="st2" d="M1661,1342v356"/>
	<path id="패스_3189" class="st2" d="M1201,1342v356"/>
	<path id="패스_3196" class="st2" d="M741,1342v356"/>
	<g class="st0">
		<path class="st3" d="M954,1384.2c-1.7,0.3-3.2,0.4-5.8,0.4h-1v-5.8h5.6v0.9h-4.4v3.9c2.5,0,3.9-0.1,5.5-0.4L954,1384.2z
			 M949.7,1389.1h7.2v0.9h-8.4v-4.1h1.1V1389.1z M958.2,1381.5v1h-1.9v4.4h-1.1v-9.1h1.1v3.7H958.2z"/>
		<path class="st3" d="M967.8,1385c-1.2,0.2-2.4,0.4-3.6,0.4v4.5h-1.1v-4.5c-1.2,0.1-2.4,0.1-3.5,0.1l-0.2-1c2.3,0,5.5,0,8.3-0.4
			L967.8,1385z M960.4,1381c0-1.5,1.3-2.6,3.2-2.6c1.9,0,3.2,1,3.2,2.6c0,1.5-1.3,2.6-3.2,2.6C961.7,1383.5,960.4,1382.5,960.4,1381
			z M961.5,1381c0,1,0.9,1.6,2.1,1.6c1.2,0,2.1-0.7,2.1-1.6s-0.9-1.6-2.1-1.6C962.4,1379.3,961.5,1380,961.5,1381z M969.8,1377.8
			v12.6h-1.1v-12.6H969.8z"/>
		<path class="st3" d="M975.8,1382.9c0-0.6,0.4-1,0.9-1c0.5,0,0.9,0.4,0.9,1c0,0.6-0.4,1-0.9,1
			C976.2,1383.8,975.8,1383.4,975.8,1382.9z M975.8,1388.5c0-0.6,0.4-1,0.9-1c0.5,0,0.9,0.4,0.9,1s-0.4,1-0.9,1
			C976.2,1389.5,975.8,1389.1,975.8,1388.5z"/>
		<path class="st3" d="M987.9,1379.4c0,3.2-1.1,6.2-4.7,8.2l-0.7-0.8c2.9-1.6,4.1-3.9,4.2-6.5H983v-0.9H987.9z M993.2,1377.8v12.6
			h-1.1v-6.6h-1.7v5.9h-1.1v-11.6h1.1v4.7h1.7v-5.1H993.2z"/>
	</g>
	<g class="st0">
		<path class="st3" d="M1407.8,1384.2c-1.7,0.3-3.2,0.4-5.8,0.4h-1v-5.8h5.6v0.9h-4.4v3.9c2.5,0,3.9-0.1,5.5-0.4L1407.8,1384.2z
			 M1403.5,1389.1h7.2v0.9h-8.4v-4.1h1.1V1389.1z M1412,1381.5v1h-1.9v4.4h-1.1v-9.1h1.1v3.7H1412z"/>
		<path class="st3" d="M1421.6,1385c-1.2,0.2-2.4,0.4-3.6,0.4v4.5h-1.1v-4.5c-1.2,0.1-2.4,0.1-3.5,0.1l-0.2-1c2.3,0,5.5,0,8.3-0.4
			L1421.6,1385z M1414.2,1381c0-1.5,1.3-2.6,3.2-2.6c1.9,0,3.2,1,3.2,2.6c0,1.5-1.3,2.6-3.2,2.6
			C1415.5,1383.5,1414.2,1382.5,1414.2,1381z M1415.3,1381c0,1,0.9,1.6,2.1,1.6c1.2,0,2.1-0.7,2.1-1.6s-0.9-1.6-2.1-1.6
			C1416.2,1379.3,1415.3,1380,1415.3,1381z M1423.6,1377.8v12.6h-1.1v-12.6H1423.6z"/>
		<path class="st3" d="M1429.6,1382.9c0-0.6,0.4-1,0.9-1s0.9,0.4,0.9,1c0,0.6-0.4,1-0.9,1S1429.6,1383.4,1429.6,1382.9z
			 M1429.6,1388.5c0-0.6,0.4-1,0.9-1s0.9,0.4,0.9,1s-0.4,1-0.9,1S1429.6,1389.1,1429.6,1388.5z"/>
		<path class="st3" d="M1446.7,1377.8v7.4h-1.2v-3.2h-2.6c-0.2,1.5-1.5,2.6-3.2,2.6c-1.9,0-3.2-1.2-3.2-3c0-1.8,1.4-3,3.2-3
			c1.7,0,3,1,3.2,2.5h2.6v-3.2H1446.7z M1441.9,1381.5c0-1.2-0.9-2-2.1-2c-1.2,0-2.1,0.9-2.1,2c0,1.2,0.9,2.1,2.1,2.1
			C1441,1383.5,1441.9,1382.7,1441.9,1381.5z M1438.3,1385.9h8.4v4.5h-1.2v-3.5h-7.2V1385.9z"/>
		<path class="st3" d="M1452.8,1384.5c-1.2,0.1-2.5,0.1-3.5,0.1l-0.2-1c2.3,0,5.4,0,8.1-0.4l0.1,0.8c-1.1,0.2-2.3,0.3-3.4,0.4v2.5
			h-1.1V1384.5z M1450.1,1380.5c0-1.3,1.3-2.2,3.1-2.2s3.1,0.9,3.1,2.2c0,1.3-1.3,2.2-3.1,2.2S1450.1,1381.8,1450.1,1380.5z
			 M1459.8,1389.1v0.9h-8.9v-3.7h1.1v2.7H1459.8z M1451.2,1380.5c0,0.8,0.8,1.3,2,1.3c1.2,0,2-0.5,2-1.3c0-0.8-0.8-1.3-2-1.3
			C1452,1379.1,1451.2,1379.7,1451.2,1380.5z M1458.3,1385.2v-7.4h1.1v9.6h-1.1v-1.3h-2.5v-0.9H1458.3z"/>
	</g>
	<g class="st0">
		<path class="st4" d="M910,1358.7c4.1-4,6.6-6.6,6.6-8.8c0-1.6-0.8-2.6-2.5-2.6c-1.2,0-2.1,0.7-2.9,1.6l-1.3-1.3
			c1.3-1.4,2.6-2.2,4.5-2.2c2.7,0,4.4,1.7,4.4,4.3c0,2.6-2.4,5.3-5.4,8.5c0.7-0.1,1.7-0.1,2.4-0.1h3.7v2H910V1358.7z"/>
		<path class="st4" d="M921.5,1352.8c0-4.8,1.8-7.4,4.8-7.4c2.9,0,4.8,2.6,4.8,7.4c0,4.8-1.8,7.5-4.8,7.5
			C923.3,1360.3,921.5,1357.6,921.5,1352.8z M928.8,1352.8c0-4.1-1.1-5.6-2.6-5.6s-2.6,1.4-2.6,5.6s1.1,5.7,2.6,5.7
			S928.8,1356.9,928.8,1352.8z"/>
		<path class="st4" d="M932.8,1358.7c4.1-4,6.6-6.6,6.6-8.8c0-1.6-0.8-2.6-2.5-2.6c-1.2,0-2.1,0.7-2.9,1.6l-1.3-1.3
			c1.3-1.4,2.6-2.2,4.5-2.2c2.7,0,4.4,1.7,4.4,4.3c0,2.6-2.4,5.3-5.4,8.5c0.7-0.1,1.7-0.1,2.4-0.1h3.7v2h-9.5V1358.7z"/>
		<path class="st4" d="M944.3,1352.8c0-4.8,1.8-7.4,4.8-7.4c2.9,0,4.8,2.6,4.8,7.4c0,4.8-1.8,7.5-4.8,7.5
			C946.1,1360.3,944.3,1357.6,944.3,1352.8z M951.6,1352.8c0-4.1-1.1-5.6-2.6-5.6s-2.6,1.4-2.6,5.6s1.1,5.7,2.6,5.7
			S951.6,1356.9,951.6,1352.8z"/>
		<path class="st4" d="M970.3,1346.8h-10v-1.6h4.1v-1.9h2.1v1.9h3.9V1346.8z M965.4,1354.1c-2.4,0-4.1-1.3-4.1-3.3
			c0-2,1.7-3.3,4.1-3.3c2.5,0,4.2,1.3,4.2,3.3C969.6,1352.8,967.9,1354.1,965.4,1354.1z M965.4,1352.5c1.3,0,2.2-0.7,2.2-1.7
			c0-1.1-0.9-1.7-2.2-1.7c-1.3,0-2.2,0.7-2.2,1.7C963.2,1351.9,964.1,1352.5,965.4,1352.5z M973.2,1354.9h2v6.4h-11.9v-6.4h2v1.6
			h7.8V1354.9z M973.2,1358.1h-7.8v1.6h7.8V1358.1z M975.2,1343.5v10.7h-2.1v-1.5h-2.8v-1.7h2.8v-1.9h-2.7v-1.7h2.7v-4.1H975.2z"/>
		<path class="st4" d="M988.3,1353.5c-2.2,0.4-4,0.4-7.6,0.4h-1.3v-5.6h5.8v-2.2h-5.8v-1.7h7.8v5.4h-5.8v2.3c3,0,4.7-0.1,6.6-0.4
			L988.3,1353.5z M981.4,1355.5h12.2v6.1h-2.1v-4.4h-10.2V1355.5z M993.6,1343.5v11.1h-2.1v-3.1h-3.2v-1.7h3.2v-2.1h-3.2v-1.7h3.2
			v-2.6H993.6z"/>
		<path class="st4" d="M1004,1356.5c1.6-0.1,3.3-0.2,4.8-0.4l0.1,1.5c-4,0.7-8.3,0.7-11.5,0.7l-0.3-1.7c1.4,0,3.1,0,4.8-0.1v-1.8
			c-2-0.3-3.4-1.6-3.4-3.3c0-2,1.8-3.4,4.4-3.4c2.6,0,4.4,1.3,4.4,3.4c0,1.8-1.3,3-3.4,3.3V1356.5z M1008.5,1347.2h-10.9v-1.7h4.4
			v-2.1h2.1v2.1h4.4V1347.2z M1003,1353.3c1.4,0,2.4-0.7,2.4-1.8c0-1.1-1-1.8-2.4-1.8c-1.5,0-2.5,0.7-2.5,1.8
			C1000.5,1352.6,1001.5,1353.3,1003,1353.3z M1011.9,1343.5v18.1h-2.1v-18.1H1011.9z"/>
		<path class="st4" d="M1021.8,1347.9c0,3.2,1.7,6.5,4.4,7.8l-1.3,1.6c-1.9-1-3.4-3-4.2-5.3c-0.8,2.5-2.3,4.6-4.4,5.7l-1.3-1.7
			c2.8-1.4,4.6-4.8,4.6-8.1v-3h2.1V1347.9z M1032.3,1352.3h-2.8v9.2h-2.1v-18.1h2.1v7.2h2.8V1352.3z"/>
	</g>
	<g class="st0">
		<path class="st4" d="M1370,1358.7c4.1-4,6.6-6.6,6.6-8.8c0-1.6-0.8-2.6-2.5-2.6c-1.2,0-2.1,0.7-2.9,1.6l-1.3-1.3
			c1.3-1.4,2.6-2.2,4.5-2.2c2.7,0,4.4,1.7,4.4,4.3c0,2.6-2.4,5.3-5.4,8.5c0.7-0.1,1.7-0.1,2.4-0.1h3.7v2h-9.5V1358.7z"/>
		<path class="st4" d="M1381.5,1352.8c0-4.8,1.8-7.4,4.8-7.4c2.9,0,4.8,2.6,4.8,7.4c0,4.8-1.8,7.5-4.8,7.5
			C1383.3,1360.3,1381.5,1357.6,1381.5,1352.8z M1388.8,1352.8c0-4.1-1.1-5.6-2.6-5.6c-1.5,0-2.6,1.4-2.6,5.6s1.1,5.7,2.6,5.7
			C1387.8,1358.4,1388.8,1356.9,1388.8,1352.8z"/>
		<path class="st4" d="M1392.8,1358.7c4.1-4,6.6-6.6,6.6-8.8c0-1.6-0.8-2.6-2.5-2.6c-1.2,0-2.1,0.7-2.9,1.6l-1.3-1.3
			c1.3-1.4,2.6-2.2,4.5-2.2c2.7,0,4.4,1.7,4.4,4.3c0,2.6-2.4,5.3-5.4,8.5c0.7-0.1,1.7-0.1,2.4-0.1h3.7v2h-9.5V1358.7z"/>
		<path class="st4" d="M1404.3,1352.8c0-4.8,1.8-7.4,4.8-7.4c2.9,0,4.8,2.6,4.8,7.4c0,4.8-1.8,7.5-4.8,7.5
			C1406.1,1360.3,1404.3,1357.6,1404.3,1352.8z M1411.6,1352.8c0-4.1-1.1-5.6-2.6-5.6c-1.5,0-2.6,1.4-2.6,5.6s1.1,5.7,2.6,5.7
			C1410.6,1358.4,1411.6,1356.9,1411.6,1352.8z"/>
		<path class="st4" d="M1436.6,1354h-7.2v7.5h-2.1v-7.5h-7.1v-1.7h11.7c0.5-2.5,0.5-4.4,0.5-6.1h-10.3v-1.7h12.3v1.6
			c0,1.7,0,3.6-0.5,6.1h2.5V1354z"/>
		<path class="st4" d="M1439.3,1345.5h7v11.4h-7V1345.5z M1441.2,1355.2h3.1v-8.1h-3.1V1355.2z M1454.1,1343.5v18h-2v-9.3h-2.1v8.5
			h-1.9v-16.9h1.9v6.7h2.1v-7H1454.1z"/>
		<path class="st4" d="M1473.4,1350.9v1.7h-16.4v-1.7h11.8c0.5-2,0.5-3.5,0.5-4.9h-10.2v-1.7h12.3v1.4c0,1.4,0,3-0.5,5.2H1473.4z
			 M1459,1354.8h12.3v6.5H1459V1354.8z M1461.1,1359.7h8.3v-3.2h-8.3V1359.7z"/>
		<path class="st4" d="M1479.7,1353.2c-2.4,0-4.1-1.8-4.1-4.3c0-2.6,1.7-4.3,4.1-4.3c2.4,0,4.1,1.8,4.1,4.3
			C1483.8,1351.5,1482.1,1353.2,1479.7,1353.2z M1479.7,1351.5c1.3,0,2.3-1,2.3-2.6c0-1.6-1-2.6-2.3-2.6c-1.3,0-2.3,1-2.3,2.6
			C1477.4,1350.5,1478.4,1351.5,1479.7,1351.5z M1478.5,1355.2h12.2v6.4h-2.1v-4.7h-10.2V1355.2z M1490.8,1343.5v10.7h-2v-4.5h-1.9
			v4.5h-1.9v-10.3h1.9v4.2h1.9v-4.5H1490.8z"/>
	</g>
	<g id="그룹_5497" transform="translate(1765.449 1074.285)">
		<circle id="타원_117" class="st1" cx="-794.4" cy="462.1" r="113.4"/>
		<path id="패스_3436" class="st5" d="M-794.4,462.1V348.7c-22.2,0-43.8,6.5-62.3,18.7L-794.4,462.1z"/>
		<circle id="타원_118" class="st6" cx="-794.4" cy="462.1" r="91.4"/>
		<g class="st0">
			<path class="st7" d="M-832.5,451.8c0-1.9,0.5-3.6,1.4-5.1c1-1.5,2.4-2.8,4.3-3.7c1.9-0.9,4.3-1.4,7-1.4c2.8,0,5.1,0.5,7,1.4
				c1.9,0.9,3.4,2.1,4.3,3.7c1,1.5,1.4,3.2,1.4,5.1c0,1.9-0.5,3.6-1.4,5s-2.2,2.6-3.7,3.4c1.9,0.8,3.4,2,4.5,3.6
				c1.1,1.6,1.6,3.5,1.6,5.7c0,2.4-0.6,4.4-1.8,6.2s-2.8,3.1-4.9,4c-2.1,0.9-4.4,1.4-7,1.4s-4.9-0.5-7-1.4c-2.1-0.9-3.7-2.3-4.9-4
				c-1.2-1.8-1.8-3.8-1.8-6.2c0-2.2,0.5-4.1,1.6-5.7c1.1-1.6,2.6-2.8,4.5-3.6C-830.8,458.4-832.5,455.6-832.5,451.8z M-824.6,464.8
				c-1.2,1-1.8,2.4-1.8,4.3c0,1.7,0.6,3.1,1.8,4.2c1.2,1.1,2.8,1.6,4.9,1.6c2,0,3.7-0.6,4.8-1.7c1.2-1.1,1.8-2.5,1.8-4.2
				c0-1.8-0.6-3.3-1.8-4.3c-1.2-1-2.8-1.5-4.8-1.5S-823.3,463.8-824.6,464.8z M-815.6,448.9c-1-0.9-2.4-1.4-4.2-1.4
				c-1.7,0-3.1,0.5-4.1,1.4c-1,0.9-1.5,2.3-1.5,4c0,1.6,0.5,2.8,1.6,3.7c1.1,0.9,2.4,1.4,4.1,1.4s3-0.5,4.1-1.4
				c1.1-1,1.6-2.2,1.6-3.8C-814,451.1-814.5,449.8-815.6,448.9z"/>
		</g>
		<g class="st0">
			<path class="st7" d="M-783.9,448.5c-0.9-0.7-2.1-1.1-3.7-1.1c-2.4,0-4.2,1-5.3,2.9c-1.1,1.9-1.7,5.1-1.7,9.4
				c0.8-1.4,2-2.5,3.6-3.2c1.6-0.8,3.3-1.2,5.2-1.2c2.3,0,4.2,0.5,6,1.5c1.7,1,3.1,2.4,4.1,4.2c1,1.9,1.5,4.1,1.5,6.7
				c0,2.5-0.5,4.7-1.5,6.6c-1,1.9-2.4,3.4-4.3,4.5c-1.9,1.1-4.2,1.6-6.8,1.6c-3.6,0-6.4-0.8-8.5-2.4c-2.1-1.6-3.5-3.8-4.3-6.7
				c-0.8-2.9-1.2-6.4-1.2-10.6c0-6.3,1.1-11.1,3.3-14.4c2.2-3.2,5.6-4.9,10.3-4.9c3.6,0,6.5,1,8.5,3c2,2,3.2,4.4,3.5,7.4h-6.8
				C-782.5,450.3-783.1,449.2-783.9,448.5z M-792.1,462.9c-1.2,1.1-1.9,2.6-1.9,4.7c0,2,0.6,3.7,1.7,4.8c1.2,1.2,2.8,1.8,4.9,1.8
				c1.9,0,3.4-0.6,4.4-1.7c1.1-1.1,1.6-2.7,1.6-4.6c0-2-0.5-3.6-1.6-4.8c-1.1-1.2-2.6-1.8-4.7-1.8
				C-789.3,461.3-790.8,461.8-792.1,462.9z"/>
		</g>
		<g class="st0">
			<path class="st7" d="M-771,449v-6.7h12.5v37.9h-7.5V449H-771z"/>
		</g>
	</g>
	<g id="그룹_5498" transform="translate(1750.061 1074.285)">
		<circle id="타원_119" class="st1" cx="-318.7" cy="462.1" r="113.4"/>
		<path id="패스_3437" class="st5" d="M-432.4,462.1c0,39.8,20.9,76.7,55,97.2l58.4-97.2V348.7
			C-381.7,348.7-432.4,399.5-432.4,462.1z"/>
		<circle id="타원_120" class="st6" cx="-318.7" cy="462.1" r="91.4"/>
		<g class="st0">
			<path class="st7" d="M-357.8,447.8l-13.8,32.4h-7.4l13.9-31.6h-17.8v-6.2h25.1V447.8z"/>
			<path class="st7" d="M-346.2,472.6l-6.1,14.6h-4.7l3.4-14.6H-346.2z"/>
			<path class="st7" d="M-317.9,448.6h-16.8v8.9c0.7-0.9,1.8-1.6,3.1-2.2c1.4-0.6,2.8-0.9,4.3-0.9c2.8,0,5,0.6,6.8,1.8
				s3,2.8,3.8,4.7c0.8,1.9,1.2,3.9,1.2,6.1c0,4-1.1,7.2-3.4,9.6s-5.5,3.6-9.7,3.6c-4,0-7.1-1-9.5-3c-2.4-2-3.7-4.6-4-7.7h7.1
				c0.3,1.4,1,2.5,2.1,3.3c1.1,0.8,2.5,1.2,4.2,1.2c2,0,3.6-0.6,4.6-1.9s1.6-3,1.6-5.1c0-2.1-0.5-3.8-1.6-4.9
				c-1.1-1.1-2.6-1.7-4.7-1.7c-1.5,0-2.7,0.4-3.6,1.1c-1,0.7-1.7,1.7-2.1,2.9h-7v-22.3h23.5V448.6z"/>
			<path class="st7" d="M-309.1,472c3.3-2.8,6-5.1,8-6.9c2-1.9,3.6-3.8,4.9-5.8c1.3-2,2-4,2-5.9c0-1.8-0.4-3.2-1.2-4.2
				c-0.8-1-2.1-1.5-3.8-1.5s-3.1,0.6-4,1.7c-0.9,1.2-1.4,2.7-1.5,4.8h-7.1c0.1-4.2,1.4-7.3,3.7-9.5s5.3-3.2,8.9-3.2c4,0,7,1,9.1,3.1
				s3.2,4.9,3.2,8.3c0,2.7-0.7,5.3-2.2,7.7c-1.5,2.5-3.1,4.6-5,6.4s-4.3,4-7.3,6.6h15.3v6h-25.7v-5.4L-309.1,472z"/>
			<path class="st7" d="M-283.4,472.8v-5.7l17-24.3h8.5v23.7h4.6v6.3h-4.6v7.4h-7.3v-7.4H-283.4z M-264.8,450.6l-10.7,15.9h10.7
				V450.6z"/>
		</g>
	</g>
	<g id="그룹_5501" transform="translate(2028.179 1370.326)">
		<rect id="사각형_496" x="-1168.1" y="314.2" class="st1" width="23.4" height="6.8"/>
		<g id="그룹_5499">
			<path id="패스_3438" class="st7" d="M-1126.4,316.6v2.5h4.4v5.3h-1.7v-3.9h-9v-1.4h4.6v-2.5h-6v-1.4h10c0.3-1.3,0.4-2.6,0.4-4
				h-8.7v-1.4h10.4v1.2c0,1.4-0.1,2.8-0.3,4.2h2.1v1.4L-1126.4,316.6z"/>
			<path id="패스_3439" class="st7" d="M-1116.2,319.1c1.5,0,3-0.2,4.5-0.5l0.2,1.5c-1.8,0.3-3.6,0.5-5.4,0.5h-1v-9.7h1.7
				L-1116.2,319.1z M-1105.6,309.2v15.3h-1.7v-7.8h-1.8v7h-1.6v-14.2h1.6v5.8h1.8v-6.1L-1105.6,309.2z"/>
			<path id="패스_3440" class="st7" d="M-1099.3,320c0.1-1.4,0.9-2.6,2.2-3.2v-0.1c-1-0.6-1.6-1.7-1.7-2.8c0-1.9,1.5-3.2,3.6-3.2
				c1.8-0.2,3.3,1.1,3.5,2.9c0,0.1,0,0.3,0,0.4c-0.1,1.1-0.7,2.2-1.6,2.8v0.1c1.2,0.5,2.1,1.8,2.1,3.1c0,1.8-1.6,3.3-4,3.3
				C-1097.6,323.3-1099.3,322-1099.3,320z M-1093.1,320c0-1.4-1.4-1.9-3.1-2.6c-0.9,0.5-1.4,1.4-1.5,2.4c0,1.2,1,2.1,2.2,2.1
				c0,0,0.1,0,0.1,0c1.1,0.1,2-0.6,2.1-1.7C-1093.1,320.2-1093.1,320.1-1093.1,320z M-1093.3,314.2c0.1-1-0.7-1.9-1.7-2
				c-0.1,0-0.2,0-0.2,0c-0.9-0.1-1.7,0.7-1.8,1.6c0,0.1,0,0.1,0,0.2c0,1.3,1.2,1.9,2.6,2.4C-1093.8,315.8-1093.4,315-1093.3,314.2z"
				/>
			<path id="패스_3441" class="st7" d="M-1089.5,322l1.1-1.2c0.5,0.6,1.2,0.9,1.9,0.9c1.6,0,2.9-1.2,3-4.8
				c-0.6,0.9-1.6,1.4-2.7,1.5c-2.1,0-3.5-1.2-3.5-3.7c-0.1-2.1,1.4-3.8,3.5-3.9c0.1,0,0.1,0,0.2,0c2.4,0,4.3,1.9,4.3,5.9
				c0,4.8-2.2,6.7-4.7,6.7C-1087.6,323.4-1088.7,322.9-1089.5,322z M-1085.9,317.1c1-0.1,1.9-0.6,2.3-1.5c-0.2-2.2-1.1-3.3-2.5-3.3
				c-1.1,0-1.9,0.9-1.9,2.4C-1087.9,316.2-1087.2,317.1-1085.9,317.1z"/>
			<path id="패스_3442" class="st7" d="M-1080.2,314.4c0-2.5,1.2-3.9,2.9-3.9s2.9,1.4,2.9,3.9s-1.2,4-2.9,4
				S-1080.2,316.9-1080.2,314.4z M-1075.8,314.4c0-1.9-0.6-2.8-1.5-2.8c-0.9,0-1.5,0.8-1.5,2.8c0,1.9,0.6,2.8,1.5,2.8
				C-1076.4,317.2-1075.8,316.3-1075.8,314.4L-1075.8,314.4z M-1070.1,310.4h1.2l-6.8,12.9h-1.2L-1070.1,310.4z M-1071.4,319.4
				c0-2.5,1.2-3.9,2.9-3.9c1.7,0,2.9,1.4,2.9,3.9s-1.2,3.9-2.9,3.9C-1070.2,323.3-1071.4,321.9-1071.4,319.4L-1071.4,319.4z
				 M-1067,319.4c0-1.9-0.6-2.8-1.5-2.8c-0.9,0-1.5,0.8-1.5,2.8c0,1.9,0.6,2.8,1.5,2.8C-1067.6,322.2-1067,321.3-1067,319.4
				L-1067,319.4z"/>
		</g>
		<rect id="사각형_497" x="-1048.8" y="314.2" class="st5" width="23.4" height="6.8"/>
		<g id="그룹_5500">
			<path id="패스_3443" class="st5" d="M-1010.2,311.6h2.9v1.4h-7.5v-1.4h2.9v-2h1.7V311.6z M-1007.8,317.5c0.1,1.8-1.2,3.4-3,3.5
				c-0.1,0-0.2,0-0.3,0c-1.8,0-3.3-1.5-3.3-3.3c0-0.1,0-0.2,0-0.3c-0.1-1.8,1.2-3.4,3-3.5c0.1,0,0.2,0,0.3,0c1.8,0,3.3,1.4,3.3,3.3
				C-1007.8,317.3-1007.8,317.4-1007.8,317.5z M-1009.3,317.5c0-1.3-0.7-2.1-1.8-2.1s-1.8,0.8-1.8,2.1s0.7,2.1,1.8,2.1
				S-1009.3,318.7-1009.3,317.5z M-1001.8,309.2v15.3h-1.7v-7.5h-1.6v6.8h-1.6v-14.2h1.6v6h1.6v-6.3L-1001.8,309.2z"/>
			<path id="패스_3444" class="st5" d="M-993.5,319.7c1.4-0.1,2.8-0.2,4.1-0.4l0.1,1.3c-3.2,0.5-6.5,0.7-9.7,0.7l-0.2-1.4
				c1.2,0,2.6,0,4,0v-2.4c-1.8-0.2-3.2-1.7-3.3-3.6c0-2.2,1.8-3.7,4.1-3.7s4.2,1.5,4.2,3.7c0,1.9-1.4,3.4-3.3,3.6V319.7z
				 M-994.4,315.9c1.2,0.1,2.3-0.7,2.4-1.9c0-0.1,0-0.1,0-0.2c0-1.2-1-2.2-2.2-2.2c-0.1,0-0.2,0-0.2,0c-1.2-0.1-2.3,0.7-2.4,2
				c0,0.1,0,0.2,0,0.2c0,1.2,1,2.2,2.2,2.2C-994.5,316-994.4,316-994.4,315.9L-994.4,315.9z M-986.7,309.1v15.3h-1.8v-15.3H-986.7z"
				/>
			<path id="패스_3445" class="st5" d="M-979.3,321.5h2.7v-8.3h-2.2V312c1-0.1,1.9-0.5,2.7-0.9h1.5v10.5h2.4v1.6h-7.1
				L-979.3,321.5z"/>
			<path id="패스_3446" class="st5" d="M-969.7,321.5h2.7v-8.3h-2.2V312c1-0.1,1.9-0.5,2.7-0.9h1.5v10.5h2.4v1.6h-7.1
				L-969.7,321.5z"/>
			<path id="패스_3447" class="st5" d="M-960.9,314.4c0-2.5,1.2-3.9,2.9-3.9s2.9,1.4,2.9,3.9s-1.2,4-2.9,4
				S-960.9,316.9-960.9,314.4z M-956.5,314.4c0-1.9-0.6-2.8-1.5-2.8c-0.9,0-1.5,0.8-1.5,2.8c0,1.9,0.6,2.8,1.5,2.8
				C-957.1,317.2-956.5,316.3-956.5,314.4z M-950.8,310.4h1.2l-6.8,12.9h-1.2L-950.8,310.4z M-952.1,319.4c0-2.5,1.2-3.9,2.9-3.9
				c1.7,0,2.9,1.4,2.9,3.9s-1.2,3.9-2.9,3.9C-950.9,323.3-952.1,321.9-952.1,319.4L-952.1,319.4z M-947.7,319.4
				c0-1.9-0.6-2.8-1.5-2.8c-0.9,0-1.5,0.8-1.5,2.8c0,1.9,0.6,2.8,1.5,2.8C-948.3,322.2-947.7,321.3-947.7,319.4L-947.7,319.4z"/>
		</g>
	</g>
	<g id="그룹_5504" transform="translate(2014.79 1370.326)">
		<rect id="사각형_498" x="-692.7" y="314.2" class="st1" width="23.4" height="6.8"/>
		<g id="그룹_5502">
			<path id="패스_3448" class="st7" d="M-651,316.6v2.5h4.4v5.3h-1.7v-3.9h-9v-1.4h4.6v-2.5h-6v-1.4h10c0.3-1.3,0.4-2.6,0.4-4
				h-8.7v-1.4h10.4v1.2c0,1.4-0.1,2.8-0.3,4.2h2.1v1.4L-651,316.6z"/>
			<path id="패스_3449" class="st7" d="M-640.8,319.1c1.5,0,3-0.2,4.5-0.5l0.2,1.5c-1.8,0.3-3.6,0.5-5.4,0.5h-1v-9.7h1.7
				L-640.8,319.1z M-630.2,309.2v15.3h-1.7v-7.8h-1.8v7h-1.6v-14.2h1.6v5.8h1.8v-6.1L-630.2,309.2z"/>
			<path id="패스_3450" class="st7" d="M-624.3,321.7l0.9-1.3c0.7,0.8,1.8,1.3,2.9,1.3c1.3,0.1,2.4-0.9,2.5-2.2c0-0.1,0-0.2,0-0.2
				c0.1-1.2-0.8-2.3-2-2.4c-0.1,0-0.2,0-0.4,0c-0.7,0-1.4,0.3-2,0.7l-0.9-0.6l0.4-5.9h6.3v1.6h-4.6l-0.3,3.2
				c0.5-0.3,1.1-0.4,1.7-0.4c1.9-0.2,3.6,1.2,3.8,3.2c0,0.2,0,0.4,0,0.6c0.1,2.2-1.7,4.1-3.9,4.1c-0.1,0-0.2,0-0.3,0
				C-621.7,323.4-623.2,322.8-624.3,321.7z"/>
			<path id="패스_3451" class="st7" d="M-614.1,322l1.1-1.2c0.5,0.6,1.2,0.9,1.9,0.9c1.6,0,2.9-1.2,3-4.8
				c-0.6,0.9-1.6,1.4-2.7,1.5c-2.1,0-3.5-1.2-3.5-3.7c-0.1-2.1,1.4-3.8,3.5-3.9c0.1,0,0.1,0,0.2,0c2.4,0,4.3,1.9,4.3,5.9
				c0,4.8-2.2,6.7-4.7,6.7C-612.2,323.4-613.3,322.9-614.1,322z M-610.5,317.1c1-0.1,1.9-0.6,2.3-1.5c-0.2-2.2-1.1-3.3-2.5-3.3
				c-1.1,0-1.9,0.9-1.9,2.4C-612.5,316.2-611.8,317.1-610.5,317.1L-610.5,317.1z"/>
			<path id="패스_3452" class="st7" d="M-604.8,314.4c0-2.5,1.2-3.9,2.9-3.9s2.9,1.4,2.9,3.9s-1.2,4-2.9,4
				S-604.8,316.9-604.8,314.4z M-600.4,314.4c0-1.9-0.6-2.8-1.5-2.8c-0.9,0-1.5,0.8-1.5,2.8c0,1.9,0.6,2.8,1.5,2.8
				C-601,317.2-600.4,316.3-600.4,314.4z M-594.7,310.4h1.2l-6.8,12.9h-1.2L-594.7,310.4z M-596,319.4c0-2.5,1.2-3.9,2.9-3.9
				c1.7,0,2.9,1.4,2.9,3.9s-1.2,3.9-2.9,3.9C-594.8,323.3-596,321.9-596,319.4L-596,319.4z M-591.6,319.4c0-1.9-0.6-2.8-1.5-2.8
				c-0.9,0-1.5,0.8-1.5,2.8c0,1.9,0.6,2.8,1.5,2.8C-592.2,322.2-591.6,321.3-591.6,319.4L-591.6,319.4z"/>
		</g>
		<rect id="사각형_499" x="-573.4" y="314.2" class="st5" width="23.4" height="6.8"/>
		<g id="그룹_5503">
			<path id="패스_3453" class="st5" d="M-534.9,311.6h2.9v1.4h-7.5v-1.4h2.9v-2h1.7L-534.9,311.6z M-532.4,317.5
				c0.1,1.8-1.2,3.4-3,3.5c-0.1,0-0.2,0-0.3,0c-1.8,0-3.3-1.5-3.3-3.3c0-0.1,0-0.2,0-0.3c-0.1-1.8,1.2-3.4,3-3.5c0.1,0,0.2,0,0.3,0
				c1.8,0,3.3,1.4,3.3,3.3C-532.4,317.3-532.4,317.4-532.4,317.5L-532.4,317.5z M-534,317.5c0-1.3-0.7-2.1-1.8-2.1s-1.8,0.8-1.8,2.1
				s0.7,2.1,1.8,2.1S-534,318.7-534,317.5z M-526.4,309.2v15.3h-1.7v-7.5h-1.6v6.8h-1.6v-14.2h1.6v6h1.6v-6.3L-526.4,309.2z"/>
			<path id="패스_3454" class="st5" d="M-518.1,319.7c1.4-0.1,2.8-0.2,4.1-0.4l0.1,1.3c-3.2,0.5-6.5,0.7-9.7,0.7l-0.2-1.4
				c1.2,0,2.6,0,4,0v-2.4c-1.8-0.2-3.2-1.7-3.3-3.6c0-2.2,1.8-3.7,4.1-3.7s4.2,1.5,4.2,3.7c0,1.9-1.4,3.4-3.3,3.6L-518.1,319.7z
				 M-519,315.9c1.2,0.1,2.3-0.7,2.4-1.9c0-0.1,0-0.1,0-0.2c0-1.2-1-2.2-2.2-2.2c-0.1,0-0.2,0-0.2,0c-1.2-0.1-2.3,0.7-2.4,2
				c0,0.1,0,0.2,0,0.2c0,1.2,1,2.2,2.2,2.2C-519.1,316-519,316-519,315.9L-519,315.9z M-511.3,309.1v15.3h-1.8v-15.3H-511.3z"/>
			<path id="패스_3455" class="st5" d="M-499.7,319.9h-5.4v-1.3l5-7.6h2.3v7.4h1.6v1.5h-1.6v3.2h-1.8L-499.7,319.9z M-499.7,318.4
				v-3.1c0-0.7,0.1-1.8,0.1-2.4h-0.1c-0.3,0.6-0.6,1.2-1,1.8l-2.5,3.7H-499.7z"/>
			<path id="패스_3456" class="st5" d="M-494.3,321.5h2.7v-8.3h-2.2V312c1-0.1,1.9-0.5,2.7-0.9h1.5v10.5h2.4v1.6h-7.1
				L-494.3,321.5z"/>
			<path id="패스_3457" class="st5" d="M-485.5,314.4c0-2.5,1.2-3.9,2.9-3.9s2.9,1.4,2.9,3.9s-1.2,4-2.9,4
				S-485.5,316.9-485.5,314.4z M-481.1,314.4c0-1.9-0.6-2.8-1.5-2.8c-0.9,0-1.5,0.8-1.5,2.8c0,1.9,0.6,2.8,1.5,2.8
				C-481.7,317.2-481.1,316.3-481.1,314.4L-481.1,314.4z M-475.4,310.4h1.2l-6.8,12.9h-1.2L-475.4,310.4z M-476.7,319.4
				c0-2.5,1.2-3.9,2.9-3.9c1.7,0,2.9,1.4,2.9,3.9s-1.2,3.9-2.9,3.9C-475.5,323.3-476.7,321.9-476.7,319.4L-476.7,319.4z
				 M-472.3,319.4c0-1.9-0.6-2.8-1.5-2.8c-0.9,0-1.5,0.8-1.5,2.8c0,1.9,0.6,2.8,1.5,2.8C-472.9,322.2-472.3,321.3-472.3,319.4
				L-472.3,319.4z"/>
		</g>
	</g>
</g>
</svg>
