<?xml version="1.0" encoding="utf-8"?>
<!-- Generator: Adobe Illustrator 25.1.0, SVG Export Plug-In . SVG Version: 6.00 Build 0)  -->
<svg version="1.1" id="레이어_1" xmlns="http://www.w3.org/2000/svg" xmlns:xlink="http://www.w3.org/1999/xlink" x="0px"
	 y="0px" viewBox="0 0 920 610" style="enable-background:new 0 0 920 610;" xml:space="preserve">
<style type="text/css">
	.st0{enable-background:new    ;}
	.st1{fill:#E37E28;}
	.st2{fill:none;stroke:#D6D6D6;}
	.st3{fill:none;stroke:#707070;}
	.st4{fill:none;stroke:#CBCBCB;}
	.st5{fill:#555555;}
</style>
<g id="그룹_5494" transform="translate(-740 -1859)">
	<g class="st0">
		<path class="st1" d="M741,1885c4.6-4.4,7.7-7.4,7.7-10c0-1.8-1-2.8-2.7-2.8c-1.3,0-2.4,0.9-3.3,1.8l-1.9-1.9
			c1.6-1.8,3.2-2.7,5.6-2.7c3.4,0,5.6,2.1,5.6,5.4c0,3-2.8,6.1-6,9.5c0.9-0.1,2.1-0.2,2.9-0.2h3.9v3H741V1885z"/>
		<path class="st1" d="M755.2,1878.3c0-5.9,2.4-8.9,6-8.9s6,3.1,6,8.9c0,5.9-2.4,9.1-6,9.1S755.2,1884.1,755.2,1878.3z
			 M763.9,1878.3c0-4.8-1.1-6.1-2.7-6.1s-2.7,1.3-2.7,6.1c0,4.8,1.2,6.3,2.7,6.3S763.9,1883.1,763.9,1878.3z"/>
		<path class="st1" d="M769.3,1885c4.6-4.4,7.7-7.4,7.7-10c0-1.8-1-2.8-2.7-2.8c-1.3,0-2.4,0.9-3.3,1.8l-1.9-1.9
			c1.6-1.8,3.2-2.7,5.6-2.7c3.4,0,5.6,2.1,5.6,5.4c0,3-2.8,6.1-6,9.5c0.9-0.1,2.1-0.2,2.9-0.2h3.9v3h-11.9V1885z"/>
		<path class="st1" d="M783.5,1878.3c0-5.9,2.4-8.9,6-8.9s6,3.1,6,8.9c0,5.9-2.4,9.1-6,9.1S783.5,1884.1,783.5,1878.3z
			 M792.2,1878.3c0-4.8-1.1-6.1-2.7-6.1s-2.7,1.3-2.7,6.1c0,4.8,1.2,6.3,2.7,6.3S792.2,1883.1,792.2,1878.3z"/>
		<path class="st1" d="M823,1877.4v2.5h-20v-2.5h8.4v-1.8h-6v-7.6h15.2v2.5h-12v2.6h12.1v2.5h-6.1v1.8H823z M820.6,1885
			c0,2.6-2.9,4.1-7.7,4.1c-4.8,0-7.7-1.5-7.7-4.1c0-2.6,2.9-4.1,7.7-4.1C817.7,1881,820.6,1882.4,820.6,1885z M817.4,1885
			c0-1.2-1.5-1.7-4.5-1.7c-3,0-4.5,0.5-4.5,1.7c0,1.2,1.5,1.7,4.5,1.7C815.9,1886.7,817.4,1886.2,817.4,1885z"/>
		<path class="st1" d="M836.3,1879.8h-10.6v-11.2h3.1v3.1h4.3v-3.1h3.1V1879.8z M831.4,1886.2h11.9v2.5h-15v-7.1h3.2V1886.2z
			 M833.2,1874.1h-4.3v3.1h4.3V1874.1z M845.4,1873.2v2.6h-2.9v7.4h-3.2V1867h3.2v6.2H845.4z"/>
		<path class="st1" d="M858.8,1879.2c-2.3-0.8-3.9-2.3-4.8-4.3c-1,2.3-2.7,4-5.4,4.9l-1.7-2.5c3.8-1.2,5.3-4.2,5.3-7.2v-2h3.2v1.8
			c0,3,1.4,5.7,4.9,6.8L858.8,1879.2z M865.8,1884.8c0,2.7-2.9,4.3-7.6,4.3c-4.7,0-7.6-1.6-7.6-4.3c0-2.7,2.9-4.3,7.6-4.3
			C862.9,1880.5,865.8,1882.1,865.8,1884.8z M862.6,1884.8c0-1.3-1.5-1.9-4.4-1.9c-2.9,0-4.4,0.6-4.4,1.9c0,1.2,1.5,1.8,4.4,1.8
			C861.1,1886.6,862.6,1886,862.6,1884.8z M862.5,1873.6h-4v-2.6h4v-4h3.2v13h-3.2V1873.6z"/>
		<path class="st1" d="M880.9,1879.4c-2.4-0.7-4.1-2.2-5.1-4c-1,2.2-2.7,3.9-5.3,4.8l-1.6-2.5c3.6-1.2,5.2-4,5.2-6.8h-4.4v-2.5h12
			v2.5h-4.3c0,2.5,1.6,5,5,6L880.9,1879.4z M886.9,1884.8c0,2.7-2.9,4.3-7.5,4.3c-4.6,0-7.5-1.6-7.5-4.3c0-2.7,2.9-4.3,7.5-4.3
			C884,1880.5,886.9,1882.1,886.9,1884.8z M883.8,1884.8c0-1.3-1.5-1.9-4.3-1.9c-2.8,0-4.3,0.6-4.3,1.9c0,1.2,1.5,1.8,4.3,1.8
			C882.2,1886.6,883.8,1886,883.8,1884.8z M889.6,1872v2.6h-2.9v5.4h-3.2V1867h3.2v5.1H889.6z"/>
		<path class="st1" d="M916.8,1883.9v2.6h-20v-2.6H916.8z M901.4,1871.4h-3v-2.5h16.8v2.5h-3v6.6h2.9v2.5h-16.6v-2.5h2.9V1871.4z
			 M909,1871.4h-4.5v6.6h4.5V1871.4z"/>
		<path class="st1" d="M938.9,1884v2.6h-20v-2.6h8.4v-3.3h-6.1v-7.5h12.3v-2.4h-12.4v-2.5h15.5v7.4h-12.3v2.5h12.8v2.5h-6.7v3.3
			H938.9z"/>
		<path class="st1" d="M960.9,1883.6v2.6h-20v-2.6H960.9z M955.3,1871.5H943v-2.5h15.5v2.6c0,3.1,0,6.1-0.8,10.7l-3.1-0.3
			C955.3,1877.8,955.3,1874.6,955.3,1871.5L955.3,1871.5z"/>
		<path class="st1" d="M973.4,1878.8c-2.5,0.5-4.7,0.5-7.9,0.5h-1.5v-6.7h5.3v-1.8h-5.3v-2.5h8.4v6.6H967v2c2.4,0,4.2-0.1,6.1-0.5
			L973.4,1878.8z M966.9,1880.9h15v7.9h-15V1880.9z M970,1886.3h8.8v-2.9H970V1886.3z M981.9,1867v13h-3v-5.3h-1.8v5.1h-3v-12.5h3
			v4.8h1.8v-5.2H981.9z"/>
	</g>
	<line id="선_401" class="st2" x1="1230.2" y1="1924" x2="1230.2" y2="2468.5"/>
	<line id="선_403" class="st2" x1="932.5" y1="1924" x2="932.5" y2="2468.5"/>
	<path id="패스_1677" class="st3" d="M740,1924h920"/>
	<path id="패스_1682" class="st3" d="M740,2468.5h920"/>
	<path id="패스_1678" class="st4" d="M740,1988.5h920"/>
	<path id="패스_1679" class="st4" d="M740,2083h920"/>
	<path id="패스_3433" class="st4" d="M932.5,2242H1660"/>
	<path id="패스_1680" class="st4" d="M740,2148h920"/>
	<path id="패스_3435" class="st4" d="M932.5,2307.5H1660"/>
	<path id="패스_1681" class="st4" d="M740,2373.5h920"/>
	<g class="st0">
		<path d="M1079.2,1957.8v1.3h-5.6v2.6h-1.6v-2.6h-5.9v-1.3H1079.2z M1069.3,1963.1h8.4v1.3h-10.1v-4h1.6V1963.1z M1077.5,1956.6
			h-9.7v-5.8h1.6v1.7h6.4v-1.7h1.6V1956.6z M1075.8,1953.7h-6.4v1.6h6.4V1953.7z"/>
		<path d="M1088.4,1956.4c0,3.1-1.6,5.1-3.7,5.1c-2.2,0-3.7-2-3.7-5.1c0-3.1,1.6-5.1,3.7-5.1
			C1086.8,1951.3,1088.4,1953.3,1088.4,1956.4z M1086.8,1956.4c0-2.2-0.9-3.6-2.1-3.6c-1.3,0-2.1,1.4-2.1,3.6c0,2.3,0.9,3.6,2.1,3.6
			C1085.9,1960.1,1086.8,1958.7,1086.8,1956.4z M1092,1955.2v2.9h2.2v1.4h-2.2v5.3h-1.6v-14.5h1.6v3.5h2.2v1.4H1092z"/>
	</g>
	<g class="st0">
		<path d="M774.2,1958.7h-5.8v6h-1.7v-6h-5.7v-1.4h9.4c0.4-2,0.4-3.5,0.4-4.9h-8.2v-1.3h9.9v1.3c0,1.4,0,2.9-0.4,4.9h2V1958.7z"/>
		<path d="M788.9,1957.8v1.3h-5.6v2.6h-1.6v-2.6h-5.9v-1.3H788.9z M779,1963.1h8.4v1.3h-10.1v-4h1.6V1963.1z M787.2,1956.6h-9.7
			v-5.8h1.6v1.7h6.4v-1.7h1.6V1956.6z M785.6,1953.7h-6.4v1.6h6.4V1953.7z"/>
	</g>
	<g class="st0">
		<path d="M1432.4,1959.7c1.3,0,2.7-0.1,4.2-0.4l0.2,1.4c-1.9,0.4-3.6,0.4-5.1,0.4h-1v-9.1h1.6V1959.7z M1442.4,1950.3v14.5h-1.6
			v-7.3h-1.7v6.6h-1.6v-13.4h1.6v5.5h1.7v-5.7H1442.4z"/>
		<path d="M1457.9,1957.3v1.3h-13.1v-1.3h3.1v-1.9c-1.1-0.5-1.7-1.2-1.7-2.1c0-1.7,2-2.7,5.2-2.7c3.2,0,5.2,1,5.2,2.7
			c0,0.9-0.6,1.7-1.7,2.2v1.9H1457.9z M1456.3,1962.1c0,1.7-1.9,2.6-5,2.6c-3.1,0-5-0.9-5-2.6c0-1.6,1.9-2.6,5-2.6
			C1454.4,1959.5,1456.3,1960.5,1456.3,1962.1z M1447.9,1953.2c0,0.9,1.3,1.5,3.5,1.5c2.1,0,3.4-0.5,3.4-1.5c0-0.9-1.3-1.4-3.4-1.4
			C1449.2,1951.8,1447.9,1952.3,1447.9,1953.2z M1454.6,1962.1c0-0.9-1.2-1.3-3.3-1.3c-2.1,0-3.3,0.5-3.3,1.3c0,0.9,1.2,1.3,3.3,1.3
			C1453.4,1963.5,1454.6,1963,1454.6,1962.1z M1449.6,1957.3h3.6v-1.5c-0.5,0.1-1.1,0.1-1.8,0.1s-1.3,0-1.8-0.1V1957.3z"/>
	</g>
	<g class="st0">
		<path d="M768.2,2030.3c0,4.3-1.7,8-6.7,10.4l-0.9-1.3c3.8-1.8,5.6-4.4,5.9-7.7h-5.2v-1.3H768.2z M772.4,2028.8v14.5h-1.6v-14.5
			H772.4z"/>
		<path d="M782.6,2035.9v1.2h4.1v3.5h-8.2v1.2h8.6v1.3h-10.3v-3.6h8.2v-1.1h-8.3v-1.2h4.1v-1.2h-5.7v-1.3h13.1v1.3H782.6z
			 M787.1,2033.9c-2.4-0.3-4.4-1.3-5.3-2.7c-0.9,1.4-2.9,2.4-5.3,2.7l-0.6-1.3c2.9-0.3,5-1.7,5-3.3v-0.4h1.7v0.4c0,1.6,2.1,3,5,3.3
			L787.1,2033.9z"/>
		<path d="M798,2031.4h-8v-1.3h3.2v-1.5h1.6v1.5h3.1V2031.4z M794,2037.2c-2,0-3.3-1-3.3-2.6c0-1.6,1.4-2.6,3.3-2.6
			c2,0,3.3,1,3.3,2.6C797.4,2036.2,796,2037.2,794,2037.2z M794,2036c1.1,0,1.8-0.5,1.8-1.4c0-0.8-0.7-1.4-1.8-1.4
			c-1.1,0-1.8,0.5-1.8,1.4C792.3,2035.5,793,2036,794,2036z M800.3,2037.9h1.6v5.1h-9.5v-5.1h1.6v1.3h6.2V2037.9z M800.3,2040.5
			h-6.2v1.3h6.2V2040.5z M801.9,2028.8v8.6h-1.6v-1.2h-2.2v-1.3h2.2v-1.5h-2.2v-1.3h2.2v-3.2H801.9z"/>
		<path d="M812.4,2036.8c-1.7,0.3-3.2,0.4-6.1,0.4h-1.1v-4.5h4.6v-1.7h-4.6v-1.3h6.3v4.3h-4.6v1.9c2.4,0,3.7-0.1,5.3-0.3
			L812.4,2036.8z M806.9,2038.4h9.8v4.9H815v-3.5h-8.1V2038.4z M816.6,2028.8v8.9H815v-2.5h-2.6v-1.3h2.6v-1.7h-2.6v-1.3h2.6v-2.1
			H816.6z"/>
	</g>
	<g class="st0">
		<path class="st5" d="M974.3,2031.3h-8v-1.1h3.4v-1.6h1.3v1.6h3.3V2031.3z M970.3,2037.2c-1.9,0-3.2-1-3.2-2.6s1.3-2.6,3.2-2.6
			c1.9,0,3.2,1,3.2,2.6S972.2,2037.2,970.3,2037.2z M970.3,2036.2c1.2,0,2-0.6,2-1.6c0-1-0.8-1.6-2-1.6c-1.2,0-2,0.6-2,1.6
			C968.3,2035.6,969.1,2036.2,970.3,2036.2z M976.7,2038h1.3v5h-9.3v-5h1.3v1.5h6.7V2038z M976.7,2040.4H970v1.5h6.7V2040.4z
			 M978,2028.8v8.5h-1.3v-1.3h-2.4v-1.1h2.4v-1.7h-2.4v-1.1h2.4v-3.3H978z"/>
		<path class="st5" d="M988.6,2036.7c-1.8,0.3-3.2,0.4-6.1,0.4h-1v-4.3h4.9v-2h-4.9v-1.1h6.2v4.1h-4.9v2.2c2.7,0,4-0.1,5.7-0.3
			L988.6,2036.7z M983.1,2038.4h9.6v4.8h-1.3v-3.7h-8.3V2038.4z M992.7,2028.8v8.8h-1.3v-2.7h-2.8v-1.1h2.8v-1.9h-2.8v-1.1h2.8v-2.1
			H992.7z"/>
		<path class="st5" d="M1000.5,2032.7c0,2.5,1.6,5.1,3.6,6.1l-0.8,1c-1.5-0.8-2.8-2.5-3.5-4.5c-0.6,2.1-2,3.9-3.6,4.8l-0.8-1.1
			c2.1-1.1,3.7-3.8,3.7-6.4v-2.6h1.3V2032.7z M1009.1,2035.7h-2.4v7.4h-1.3v-14.3h1.3v5.8h2.4V2035.7z"/>
		<path class="st5" d="M1018,2036.9c-2.1,0-3.7-1.5-3.7-3.6c0-2.1,1.6-3.5,3.7-3.5c2.1,0,3.8,1.5,3.8,3.5
			C1021.8,2035.4,1020.2,2036.9,1018,2036.9z M1018,2035.8c1.4,0,2.5-1,2.5-2.4c0-1.4-1.1-2.4-2.5-2.4c-1.4,0-2.4,1-2.4,2.4
			C1015.6,2034.8,1016.6,2035.8,1018,2035.8z M1026.2,2041.8v1.1h-9.7v-4.6h1.3v3.5H1026.2z M1025.7,2039.3h-1.3v-10.5h1.3V2039.3z"
			/>
		<path class="st5" d="M1036.4,2036.7c-1.8,0.3-3.2,0.4-6.1,0.4h-1v-4.3h4.9v-2h-4.9v-1.1h6.2v4.1h-4.9v2.2c2.7,0,4-0.1,5.7-0.3
			L1036.4,2036.7z M1030.9,2038.4h9.6v4.8h-1.3v-3.7h-8.3V2038.4z M1040.5,2028.8v8.8h-1.3v-2.7h-2.8v-1.1h2.8v-1.9h-2.8v-1.1h2.8
			v-2.1H1040.5z"/>
		<path class="st5" d="M1049.5,2030.7c0,3.7-1.3,7.1-5.4,9.4l-0.8-0.9c3.3-1.8,4.7-4.4,4.9-7.4h-4.3v-1.1H1049.5z M1055.6,2028.8
			v14.4h-1.3v-7.5h-2v6.8h-1.2v-13.3h1.2v5.4h2v-5.8H1055.6z"/>
		<path class="st5" d="M1065.3,2035.7h-6.6v-6.3h1.3v2.1h4.1v-2.1h1.3V2035.7z M1064.1,2032.5h-4.1v2.1h4.1V2032.5z M1061.4,2042
			h8.3v1h-9.6v-3.6h7.8v-1.5h-7.8v-1h9.1v3.5h-7.8V2042z M1071.4,2031.9v1.1h-2.1v3.2h-1.3v-7.4h1.3v3.1H1071.4z"/>
		<path class="st5" d="M1083.9,2035.6h-6.7v-5.9h6.7V2035.6z M1084.3,2039.1c0,1.4,2.2,2.8,4.7,3.1l-0.4,1c-2.2-0.3-4.1-1.3-4.9-2.6
			c-0.9,1.4-2.8,2.3-5,2.6l-0.4-1c2.4-0.3,4.7-1.6,4.8-3.1h-4.2v-1h4.2v-1.4h1.3v1.4h4.2v1H1084.3z M1082.6,2030.8h-4.1v3.8h4.1
			V2030.8z M1088.2,2037.1h-1.3v-8.2h1.3V2037.1z"/>
		<path class="st5" d="M1107.7,2040.1v1.1h-13v-1.1h3.2v-4.8h1.3v4.8h2.3v-4.8h1.3v4.8H1107.7z M1104.9,2031.3h-8.8v-1.1h10.1v1.6
			c0,1.8,0,3.7-0.5,6.4l-1.3-0.2c0.5-2.6,0.5-4.4,0.5-6.2V2031.3z"/>
		<path class="st5" d="M1122.4,2038.4h-3.4v4.8h-1.3v-4.8h-3.6v4.8h-1.3v-4.8h-3.4v-1.1h13V2038.4z M1119.5,2030.4h-8.6v-1.1h9.9
			v3.7h-8.5v1.8h8.9v1.1H1111v-3.8h8.5V2030.4z"/>
		<path class="st5" d="M1132.9,2033.2c0,2.4,1.7,4.9,3.8,5.8l-0.7,1.1c-1.7-0.8-3.1-2.4-3.8-4.4c-0.7,2.1-2.1,3.9-3.7,4.7l-0.8-1.1
			c2.1-1,3.8-3.7,3.8-6.2v-1.8h-3.3v-1.1h8v1.1h-3.4V2033.2z M1139.5,2028.8v14.3h-1.3v-14.3H1139.5z"/>
		<path class="st5" d="M1146.5,2036.5c-1.4,0.1-2.8,0.1-4,0.1l-0.2-1.1c2.7,0,6.2,0,9.3-0.4l0.1,0.9c-1.3,0.2-2.6,0.3-3.9,0.4v2.8
			h-1.3V2036.5z M1143.5,2031.9c0-1.5,1.4-2.5,3.5-2.5c2.1,0,3.5,1,3.5,2.5c0,1.5-1.4,2.5-3.5,2.5
			C1145,2034.4,1143.5,2033.4,1143.5,2031.9z M1154.6,2041.8v1.1h-10.1v-4.2h1.3v3.1H1154.6z M1144.8,2031.9c0,0.9,0.9,1.5,2.3,1.5
			c1.4,0,2.3-0.6,2.3-1.5c0-0.9-0.9-1.5-2.3-1.5C1145.7,2030.4,1144.8,2031,1144.8,2031.9z M1152.9,2037.3v-8.5h1.3v10.9h-1.3v-1.5
			h-2.9v-1H1152.9z"/>
	</g>
	<g class="st0">
		<path class="st5" d="M1263.7,2025.3c0-1.3,0.9-2.2,2-2.2c1.1,0,2,0.9,2,2.2c0,1.3-0.9,2.1-2,2.1
			C1264.6,2027.4,1263.7,2026.6,1263.7,2025.3z"/>
		<path class="st5" d="M1284.5,2024.9c-1.6-0.6-3-1.8-3.6-3.3c-0.6,1.6-1.9,2.9-3.6,3.5l-0.7-1c2.2-0.8,3.6-2.6,3.6-4.7v-0.6h-3.3
			v-1.1h7.9v1.1h-3.2v0.6c0,1.9,1.5,3.7,3.6,4.4L1284.5,2024.9z M1278.6,2026.3h9.6v4.9h-1.3v-3.9h-8.3V2026.3z M1288.2,2016.8v8.7
			h-1.3v-8.7H1288.2z"/>
		<path class="st5" d="M1304.1,2026.2h-5.9v4.9h-1.3v-4.9h-5.8v-1.1h13V2026.2z M1302.5,2023.2h-9.7v-5.6h9.7V2023.2z
			 M1301.2,2018.7h-7.1v3.5h7.1V2018.7z"/>
		<path class="st5" d="M1316.9,2023.6h-6.7v-5.9h6.7V2023.6z M1317.3,2027.1c0,1.4,2.2,2.8,4.7,3.1l-0.4,1c-2.2-0.3-4.1-1.3-4.9-2.6
			c-0.9,1.4-2.8,2.3-5,2.6l-0.4-1c2.4-0.3,4.7-1.6,4.8-3.1h-4.2v-1h4.2v-1.4h1.3v1.4h4.2v1H1317.3z M1315.6,2018.8h-4.1v3.8h4.1
			V2018.8z M1321.2,2025.1h-1.3v-8.2h1.3V2025.1z"/>
		<path class="st5" d="M1333,2026.9c1.4-0.1,2.8-0.2,4.1-0.4l0.1,1c-3.2,0.6-6.7,0.6-9.3,0.6l-0.2-1.1c1.2,0,2.5,0,3.9,0v-2.5
			c-1.9-0.2-3.2-1.5-3.2-3.3c0-2,1.6-3.4,3.8-3.4c2.3,0,3.9,1.4,3.9,3.4c0,1.8-1.3,3.1-3.2,3.3V2026.9z M1332.4,2023.4
			c1.5,0,2.6-0.9,2.6-2.3c0-1.3-1.1-2.2-2.6-2.2c-1.5,0-2.5,0.9-2.5,2.2C1329.8,2022.5,1330.9,2023.4,1332.4,2023.4z M1339.4,2016.8
			v14.4h-1.3v-14.4H1339.4z"/>
		<path class="st5" d="M1349.6,2023.7v2.6h4.3v4.8h-1.3v-3.8h-8.7v-1.1h4.5v-2.6h-5.8v-1.1h9.7c0.4-1.7,0.4-3,0.4-4.1h-8.4v-1.1h9.7
			v1c0,1.1,0,2.4-0.4,4.1h2v1.1H1349.6z"/>
		<path class="st5" d="M1369,2016.8v14.4h-1.3v-7.8h-3.1c-0.1,2.8-1.6,4.6-3.6,4.6c-2.1,0-3.6-2-3.6-5c0-3.1,1.5-5,3.6-5
			c1.9,0,3.3,1.7,3.6,4.4h3.1v-5.5H1369z M1363.3,2022.9c0-2.3-1-3.8-2.3-3.8c-1.4,0-2.3,1.5-2.3,3.8c0,2.3,1,3.8,2.3,3.8
			C1362.4,2026.8,1363.3,2025.3,1363.3,2022.9z"/>
		<path class="st5" d="M1387.3,2016.8v8.5h-1.3v-2.1h-3.6c-0.7,0.8-1.7,1.3-3,1.3c-2.1,0-3.7-1.4-3.7-3.5c0-2,1.6-3.4,3.7-3.4
			c1.2,0,2.3,0.5,3,1.3h3.6v-2.1L1387.3,2016.8z M1381.8,2021.1c0-1.3-1-2.3-2.4-2.3c-1.4,0-2.4,1-2.4,2.3c0,1.4,1,2.4,2.4,2.4
			C1380.8,2023.4,1381.8,2022.4,1381.8,2021.1z M1377.7,2026.1h9.6v5.1h-1.3v-4h-8.3V2026.1z M1386,2022.2v-2.2h-3.1
			c0.1,0.3,0.2,0.7,0.2,1.1c0,0.4-0.1,0.8-0.2,1.1H1386z"/>
		<path class="st5" d="M1398.8,2024.2c-2.3,0.4-4.2,0.5-6.8,0.5h-1.1v-4.1h5.1v-1.8h-5.2v-1.1h6.5v3.9h-5.1v2c2.5,0,4.4-0.1,6.5-0.5
			L1398.8,2024.2z M1401.5,2028.6c0,1.7-1.8,2.6-4.7,2.6c-2.9,0-4.7-0.9-4.7-2.6c0-1.7,1.8-2.6,4.7-2.6
			C1399.7,2025.9,1401.5,2026.9,1401.5,2028.6z M1400.2,2028.6c0-1-1.3-1.6-3.4-1.6c-2.1,0-3.4,0.6-3.4,1.6c0,1,1.3,1.6,3.4,1.6
			C1398.9,2030.2,1400.2,2029.6,1400.2,2028.6z M1401.3,2020.2v1.9h2.1v1.1h-2.1v2.3h-1.3v-8.7h1.3v2.2h2.1v1.1H1401.3z"/>
		<path class="st5" d="M1417,2019.5h-8.5v-1.1h3.6v-1.7h1.3v1.7h3.6V2019.5z M1412.8,2025.3c-2,0-3.4-1-3.4-2.5
			c0-1.5,1.4-2.5,3.4-2.5s3.4,1,3.4,2.5C1416.2,2024.3,1414.8,2025.3,1412.8,2025.3z M1419.8,2028.7c0,1.6-1.8,2.5-4.7,2.5
			c-2.9,0-4.7-0.9-4.7-2.5c0-1.6,1.8-2.5,4.7-2.5C1418,2026.2,1419.8,2027.1,1419.8,2028.7z M1412.8,2024.3c1.3,0,2.2-0.6,2.2-1.6
			c0-0.9-0.9-1.5-2.2-1.5s-2.2,0.6-2.2,1.5C1410.6,2023.7,1411.4,2024.3,1412.8,2024.3z M1418.5,2028.7c0-0.9-1.3-1.5-3.4-1.5
			c-2.1,0-3.4,0.5-3.4,1.5s1.3,1.5,3.4,1.5C1417.2,2030.2,1418.5,2029.6,1418.5,2028.7z M1419.6,2020.4v2h2.1v1.1h-2.1v2.6h-1.3
			v-9.2h1.3v2.5h2.1v1.1H1419.6z"/>
		<path class="st5" d="M1430.8,2024.6c-1.6-0.6-2.8-1.8-3.4-3.2c-0.6,1.7-1.9,3-3.6,3.6l-0.7-1c2.2-0.8,3.6-2.7,3.6-4.9v-1.5h1.3
			v1.6c0,1.9,1.4,3.7,3.5,4.4L1430.8,2024.6z M1434.5,2028.6c0,1.7-1.8,2.6-4.7,2.6c-2.9,0-4.7-0.9-4.7-2.6c0-1.7,1.8-2.6,4.7-2.6
			C1432.7,2025.9,1434.5,2026.9,1434.5,2028.6z M1433.2,2028.6c0-1-1.3-1.6-3.4-1.6c-2.1,0-3.4,0.6-3.4,1.6c0,1,1.3,1.6,3.4,1.6
			C1431.9,2030.1,1433.2,2029.6,1433.2,2028.6z M1436.5,2020.5v1.1h-2.1v3.9h-1.3v-8.7h1.3v3.7H1436.5z"/>
		<path class="st5" d="M1450.9,2023v1.1h-13v-1.1H1450.9z M1439.4,2019.6c0-1.6,1.9-2.5,5-2.5s5,0.9,5,2.5c0,1.6-1.9,2.5-5,2.5
			S1439.4,2021.2,1439.4,2019.6z M1440.8,2030h8.9v1h-10.1v-3.4h8.4v-1.3h-8.5v-1h9.8v3.2h-8.4V2030z M1440.7,2019.6
			c0,1,1.3,1.5,3.7,1.5c2.4,0,3.7-0.5,3.7-1.5c0-1-1.3-1.5-3.7-1.5C1442,2018.1,1440.7,2018.6,1440.7,2019.6z"/>
		<path class="st5" d="M1465.8,2025.1c-1.4,0.2-2.8,0.4-4.1,0.5v5.2h-1.3v-5.1c-1.4,0.1-2.8,0.1-4,0.1l-0.2-1.1c2.7,0,6.3,0,9.5-0.5
			L1465.8,2025.1z M1457.3,2020.5c0-1.8,1.5-3,3.7-3c2.1,0,3.6,1.2,3.6,3c0,1.7-1.5,2.9-3.6,2.9
			C1458.8,2023.4,1457.3,2022.2,1457.3,2020.5z M1458.5,2020.5c0,1.1,1,1.9,2.4,1.9c1.4,0,2.4-0.8,2.4-1.9c0-1.1-1-1.9-2.4-1.9
			C1459.5,2018.6,1458.5,2019.3,1458.5,2020.5z M1468,2016.8v14.4h-1.3v-14.4H1468z"/>
		<path class="st5" d="M1479.5,2019.6h-8.5v-1.1h3.6v-1.8h1.3v1.8h3.6V2019.6z M1475.2,2025.8c-2,0-3.4-1.1-3.4-2.7
			c0-1.6,1.4-2.7,3.4-2.7c2,0,3.4,1.1,3.4,2.7C1478.7,2024.7,1477.2,2025.8,1475.2,2025.8z M1475.2,2024.8c1.3,0,2.2-0.6,2.2-1.6
			c0-1-0.9-1.6-2.2-1.6c-1.3,0-2.2,0.6-2.2,1.6C1473,2024.1,1473.9,2024.8,1475.2,2024.8z M1474.5,2029.8h8.3v1.1h-9.6v-4.1h1.3
			V2029.8z M1484.2,2021.6v1.1h-2.1v4.9h-1.3v-10.8h1.3v4.7H1484.2z"/>
		<path class="st5" d="M1502.3,2028.3v1.1h-13v-1.1h5.8v-3.5h-4.3v-6.7h9.9v6.7h-4.3v3.5H1502.3z M1492,2023.7h7.3v-4.7h-7.3V2023.7
			z"/>
		<path class="st5" d="M1509.9,2018h1.3v9.7h-6.7v-9.7h1.3v3.8h4.1V2018z M1509.9,2022.9h-4.1v3.8h4.1V2022.9z M1517.4,2023.6h-2.4
			v7.6h-1.3v-14.3h1.3v5.6h2.4V2023.6z"/>
		<path class="st5" d="M1522.7,2023.7c-2.1,0-3.7-1.3-3.7-3.2c0-1.9,1.6-3.2,3.7-3.2s3.7,1.3,3.7,3.2
			C1526.4,2022.4,1524.9,2023.7,1522.7,2023.7z M1522.7,2022.7c1.4,0,2.4-0.9,2.4-2.1c0-1.2-1-2.1-2.4-2.1c-1.4,0-2.4,0.9-2.4,2.1
			C1520.3,2021.8,1521.3,2022.7,1522.7,2022.7z M1530.9,2030v1h-9.7v-3.6h8v-1.5h-8v-1h9.3v3.5h-8v1.6H1530.9z M1530.5,2024.2h-1.3
			v-7.4h1.3V2024.2z"/>
		<path class="st5" d="M1550,2028.1v1.1h-13v-1.1h3.2v-4.8h1.3v4.8h2.3v-4.8h1.3v4.8H1550z M1547.1,2019.3h-8.8v-1.1h10.1v1.6
			c0,1.8,0,3.7-0.5,6.4l-1.3-0.2c0.5-2.6,0.5-4.4,0.5-6.2V2019.3z"/>
		<path class="st5" d="M1561.3,2024.8v1.8h1.8v4.6h-1.3v-3.5h-8.6v-1.1h2v-1.8h-3.4v-1.1h13v1.1H1561.3z M1553.2,2019.9
			c0-1.7,2-2.8,5-2.8c3.1,0,5,1,5,2.8s-1.9,2.7-5,2.7C1555.1,2022.7,1553.2,2021.6,1553.2,2019.9z M1554.5,2019.9
			c0,1.1,1.4,1.7,3.7,1.7c2.3,0,3.7-0.6,3.7-1.7s-1.4-1.7-3.7-1.7C1555.9,2018.2,1554.5,2018.8,1554.5,2019.9z M1560,2024.8h-3.5
			v1.8h3.5V2024.8z"/>
	</g>
	<g class="st0">
		<path class="st5" d="M1290,2049.2v1h-13v-1H1290z M1280.4,2044.3h-2.2v-1h10.5v1h-2.2v2.7h2.1v1h-10.4v-1h2.1V2044.3z
			 M1279.9,2056h8.9v1h-10.1v-3.3h8.4v-1.2h-8.5v-1h9.8v3.2h-8.4V2056z M1285.3,2044.3h-3.6v2.7h3.6V2044.3z"/>
		<path class="st5" d="M1298.8,2050.7c-1.8,0.4-3.3,0.4-5.4,0.4h-0.9v-4.2h4.1v-2h-4.1v-1.1h5.4v4h-4.1v2.1c1.9,0,3.3-0.1,4.9-0.4
			L1298.8,2050.7z M1299.7,2052.3c0,1.9,2.3,3.4,4.9,3.8l-0.5,1c-2.1-0.4-4.1-1.5-5-3.1c-0.9,1.6-2.9,2.7-5,3.1l-0.5-1
			c2.5-0.4,4.8-1.9,4.8-3.8v-0.4h1.3V2052.3z M1300.7,2051.4h-1.2v-8.3h1.2v3.5h1.9v-3.7h1.3v9.8h-1.3v-5h-1.9V2051.4z"/>
		<path class="st5" d="M1319.5,2050.1v1.1h-13v-1.1h5.8v-1.6h-4.6v-1.1h2.1v-3h-2.2v-1.1h10.5v1.1h-2.2v3h2.1v1.1h-4.5v1.6H1319.5z
			 M1308.1,2052.5h9.8v4.5h-9.8V2052.5z M1309.4,2055.9h7.2v-2.4h-7.2V2055.9z M1311.2,2047.4h3.6v-3h-3.6V2047.4z"/>
		<path class="st5" d="M1329,2046.9c0,2.5,1.1,5,3.1,6.1l-0.8,1c-1.4-0.8-2.4-2.4-2.9-4.2c-0.5,2-1.5,3.6-3,4.5l-0.8-1
			c2-1.2,3.1-3.8,3.1-6.5v-1.3h-2.7v-1.1h6.5v1.1h-2.6V2046.9z M1332.8,2043.1h1.2v13.3h-1.2v-7.4h-2.4v-1.1h2.4V2043.1z
			 M1337,2042.8v14.4h-1.3v-14.4H1337z"/>
		<path class="st5" d="M1352.5,2049.5v1.1h-12.9v-1.1h5.3v-2.8h1.3v2.8H1352.5z M1350.9,2054.5c0,1.6-2,2.6-5,2.6c-3.1,0-5-1-5-2.6
			c0-1.7,1.9-2.6,5-2.6C1349,2051.9,1350.9,2052.9,1350.9,2054.5z M1349.5,2044.6h-8.5v-1.1h9.8v1.2c0,1.2,0,2.3-0.4,3.8l-1.3-0.1
			c0.4-1.5,0.4-2.5,0.4-3.6V2044.6z M1349.6,2054.5c0-1-1.4-1.6-3.7-1.6c-2.2,0-3.7,0.6-3.7,1.6c0,1,1.4,1.6,3.7,1.6
			C1348.2,2056.1,1349.6,2055.5,1349.6,2054.5z"/>
		<path class="st5" d="M1356.7,2050.2c0-0.7,0.5-1.1,1.1-1.1s1.1,0.5,1.1,1.1c0,0.6-0.5,1.1-1.1,1.1S1356.7,2050.8,1356.7,2050.2z"
			/>
		<path class="st5" d="M1372.7,2051.4c-1.3,0.2-2.8,0.4-4.1,0.4v4.9h-1.3v-4.8c-1.4,0-2.8,0.1-4,0.1l-0.2-1.1c2.7,0,6.3,0,9.5-0.5
			L1372.7,2051.4z M1363.8,2048.9c2.1-0.5,3.5-1.8,3.5-3.3v0h-3.2v-1h3.2v-1.6h1.3v1.6h3.2v1h-3.2v0c0,1.4,1.4,2.7,3.4,3.1l-0.5,1
			c-1.6-0.4-2.9-1.3-3.5-2.4c-0.6,1.3-1.9,2.2-3.6,2.6L1363.8,2048.9z M1375,2042.8v14.4h-1.3v-14.4H1375z"/>
		<path class="st5" d="M1389.7,2042.8v7.7h-1.3v-3.2h-2.9c-0.3,1.7-1.7,2.8-3.7,2.8c-2.1,0-3.7-1.3-3.7-3.3c0-2,1.6-3.3,3.7-3.3
			c1.9,0,3.4,1.1,3.6,2.8h2.9v-3.4H1389.7z M1384.3,2046.8c0-1.3-1-2.2-2.4-2.2s-2.4,0.9-2.4,2.2s1,2.2,2.4,2.2
			S1384.3,2048.1,1384.3,2046.8z M1388.4,2051.2h1.3v5.8h-9.2v-5.8h1.3v1.8h6.6V2051.2z M1388.4,2054.1h-6.6v1.9h6.6V2054.1z"/>
		<path class="st5" d="M1403.5,2050.5h-6.6v-6.8h1.3v2.2h4.1v-2.2h1.3V2050.5z M1398,2052.3h9.3v4.9h-1.3v-3.9h-8V2052.3z
			 M1402.2,2047h-4.1v2.5h4.1V2047z M1409.5,2047.6h-2.1v3.9h-1.3v-8.7h1.3v3.7h2.1V2047.6z"/>
		<path class="st5" d="M1419.5,2050.2c-2.3,0.4-4.2,0.5-6.8,0.5h-1.1v-4.1h5.1v-1.8h-5.2v-1.1h6.5v3.9h-5.1v2c2.5,0,4.4-0.1,6.5-0.5
			L1419.5,2050.2z M1413,2052.1h9v4.9h-9V2052.1z M1414.3,2055.9h6.5v-2.8h-6.5V2055.9z M1424.2,2047.6h-2.1v3.8h-1.3v-8.5h1.3v3.7
			h2.1V2047.6z"/>
		<path class="st5" d="M1431.1,2053.2c1.4-0.1,2.8-0.2,4.1-0.3l0.1,1c-3.2,0.5-6.7,0.6-9.3,0.6l-0.2-1.1c1.2,0,2.6,0,4-0.1v-1.5
			c-1.7-0.2-2.8-1.2-2.8-2.6c0-1.6,1.4-2.7,3.5-2.7s3.4,1,3.4,2.7c0,1.4-1.1,2.4-2.8,2.6V2053.2z M1434.8,2045.6h-8.7v-1.1h3.7v-1.8
			h1.3v1.8h3.7V2045.6z M1430.4,2050.8c1.3,0,2.2-0.6,2.2-1.6c0-1-0.9-1.6-2.2-1.6c-1.3,0-2.2,0.6-2.2,1.6
			C1428.2,2050.1,1429.1,2050.8,1430.4,2050.8z M1437.4,2042.8v14.4h-1.3v-14.4H1437.4z"/>
		<path class="st5" d="M1449.1,2047.2c0,2.4,1.7,4.9,3.8,5.8l-0.7,1.1c-1.7-0.8-3.1-2.4-3.8-4.4c-0.7,2.1-2.1,3.9-3.7,4.7l-0.8-1.1
			c2.1-1,3.8-3.7,3.8-6.2v-1.8h-3.3v-1.1h8v1.1h-3.4V2047.2z M1455.7,2042.8v14.3h-1.3v-14.3H1455.7z"/>
		<path class="st5" d="M1462.8,2050.5c-1.4,0.1-2.8,0.1-4,0.1l-0.2-1.1c2.7,0,6.2,0,9.3-0.4l0.1,0.9c-1.3,0.2-2.6,0.3-3.9,0.4v2.8
			h-1.3V2050.5z M1459.7,2045.9c0-1.5,1.4-2.5,3.5-2.5c2.1,0,3.5,1,3.5,2.5c0,1.5-1.4,2.5-3.5,2.5
			C1461.2,2048.4,1459.7,2047.4,1459.7,2045.9z M1470.8,2055.8v1.1h-10.1v-4.2h1.3v3.1H1470.8z M1461,2045.9c0,0.9,0.9,1.5,2.3,1.5
			c1.4,0,2.3-0.6,2.3-1.5c0-0.9-0.9-1.5-2.3-1.5C1461.9,2044.4,1461,2045,1461,2045.9z M1469.1,2051.3v-8.5h1.3v10.9h-1.3v-1.5h-2.9
			v-1H1469.1z"/>
	</g>
	<g class="st0">
		<path class="st5" d="M973.7,2113.4c0,2-1.6,3.3-3.8,3.3c-2.2,0-3.7-1.4-3.7-3.3c0-2,1.6-3.3,3.7-3.3
			C972.1,2110.1,973.7,2111.5,973.7,2113.4z M967.5,2113.4c0,1.3,1,2.3,2.4,2.3c1.4,0,2.5-0.9,2.5-2.3c0-1.3-1-2.3-2.5-2.3
			C968.5,2111.2,967.5,2112.1,967.5,2113.4z M977.6,2118.3v5.2h-9.3v-5.2H977.6z M969.6,2119.4v3.1h6.7v-3.1H969.6z M977.6,2109.3
			v8.2h-1.3v-8.2H977.6z"/>
		<path class="st5" d="M993.6,2115.4v1.1h-13v-1.1h9.7c0.4-1.8,0.4-3.1,0.4-4.2h-8.4v-1.1h9.7v1.1c0,1.1,0,2.4-0.4,4.2H993.6z
			 M982.2,2118.4h9.8v5.1h-9.8V2118.4z M983.4,2122.4h7.2v-3h-7.2V2122.4z"/>
		<path class="st5" d="M1007.1,2109.3v8.6h-1.3v-1.9h-3.7v-1.1h3.7v-2h-3.5c-1,2.3-3.2,3.9-6.3,4.8l-0.5-1.1
			c3.5-0.9,5.6-2.8,5.9-5.3h-5.2v-1.1h6.6c0,0.5-0.1,1.1-0.2,1.6h3.2v-2.6H1007.1z M997.5,2118.5h9.6v5.1h-1.3v-4.1h-8.3V2118.5z"/>
		<path class="st5" d="M1014.8,2114c0,2.3,1.4,4.7,3.5,5.7l-0.7,1c-1.6-0.8-2.8-2.3-3.4-4.2c-0.6,2-1.9,3.6-3.6,4.4l-0.7-1
			c2.1-1,3.6-3.5,3.6-5.9v-1.1h-3.2v-1.1h3.2v-2.2h1.3v2.2h3.2v1.1h-3.2V2114z M1023.4,2116.3h-2.4v7.4h-1.3v-14.4h1.3v5.9h2.4
			V2116.3z"/>
		<path class="st5" d="M1032.5,2111.8h2.9v1.1h-7.1v-1.1h2.9v-2h1.3V2111.8z M1034.9,2117.1c0,2-1.3,3.3-3.1,3.3s-3.1-1.3-3.1-3.3
			c0-1.9,1.3-3.3,3.1-3.3S1034.9,2115.2,1034.9,2117.1z M1033.8,2117.1c0-1.2-0.8-2.2-1.9-2.2c-1.1,0-1.9,0.9-1.9,2.2
			c0,1.3,0.8,2.2,1.9,2.2C1033,2119.3,1033.8,2118.4,1033.8,2117.1z M1040.5,2109.3v14.4h-1.3v-7.2h-1.8v6.5h-1.2v-13.3h1.2v5.7h1.8
			v-6.1H1040.5z"/>
		<path class="st5" d="M1056.1,2120.7v1.1h-13v-1.1h5.8v-3.5h1.3v3.5H1056.1z M1054.9,2117.4c-2.2-0.5-4.4-2-5.4-4
			c-0.9,2-3.2,3.5-5.4,4l-0.5-1.1c2.5-0.4,5.2-2.6,5.2-4.9v-1.1h1.4v1.1c0,2.4,2.7,4.5,5.2,4.9L1054.9,2117.4z"/>
		<path class="st5" d="M1074.3,2116.6v1.1h-5.7v2.9h-1.3v-2.9h-6v-1.1H1074.3z M1062.8,2112.6c0-1.8,2-2.9,5-2.9c3,0,5,1.1,5,2.9
			c0,1.8-2,2.9-5,2.9C1064.8,2115.5,1062.8,2114.4,1062.8,2112.6z M1064.3,2122.3h8.6v1.1h-9.9v-4.2h1.3V2122.3z M1064.2,2112.6
			c0,1.1,1.5,1.8,3.6,1.8c2.2,0,3.6-0.7,3.6-1.8c0-1.1-1.4-1.8-3.6-1.8C1065.6,2110.8,1064.2,2111.4,1064.2,2112.6z"/>
		<path class="st5" d="M1089.1,2116.4v1.1h-13v-1.1h5.8v-1.7h-4.2v-4.8h9.7v1.1h-8.4v2.7h8.5v1.1h-4.3v1.7H1089.1z M1087.5,2121.1
			c0,1.7-1.9,2.6-4.9,2.6c-3.1,0-4.9-0.9-4.9-2.6c0-1.7,1.9-2.6,4.9-2.6C1085.6,2118.5,1087.5,2119.4,1087.5,2121.1z M1086.1,2121.1
			c0-1-1.3-1.6-3.6-1.6c-2.3,0-3.6,0.6-3.6,1.6c0,1,1.3,1.6,3.6,1.6C1084.8,2122.7,1086.1,2122.1,1086.1,2121.1z"/>
	</g>
	<g class="st0">
		<path class="st5" d="M1263.6,2117.8c0-1.3,0.9-2.2,2-2.2c1.1,0,2,0.9,2,2.2c0,1.3-0.9,2.1-2,2.1
			C1264.5,2119.9,1263.6,2119.1,1263.6,2117.8z"/>
		<path class="st5" d="M1284.4,2111.8h-8v-1.1h3.4v-1.6h1.3v1.6h3.3V2111.8z M1280.4,2117.7c-1.9,0-3.2-1-3.2-2.6s1.3-2.6,3.2-2.6
			c1.9,0,3.2,1,3.2,2.6S1282.3,2117.7,1280.4,2117.7z M1280.4,2116.7c1.2,0,2-0.6,2-1.6c0-1-0.8-1.6-2-1.6s-2,0.6-2,1.6
			C1278.4,2116.1,1279.2,2116.7,1280.4,2116.7z M1286.8,2118.5h1.3v5h-9.3v-5h1.3v1.5h6.7V2118.5z M1286.8,2120.9h-6.7v1.5h6.7
			V2120.9z M1288.1,2109.3v8.5h-1.3v-1.3h-2.4v-1.1h2.4v-1.7h-2.4v-1.1h2.4v-3.3H1288.1z"/>
		<path class="st5" d="M1298.7,2117.2c-1.8,0.3-3.2,0.4-6.1,0.4h-1v-4.3h4.9v-2h-4.9v-1.1h6.2v4.1h-4.9v2.2c2.7,0,4-0.1,5.7-0.3
			L1298.7,2117.2z M1293.2,2118.9h9.6v4.8h-1.3v-3.7h-8.3V2118.9z M1302.8,2109.3v8.8h-1.3v-2.7h-2.8v-1.1h2.8v-1.9h-2.8v-1.1h2.8
			v-2.1H1302.8z"/>
		<path class="st5" d="M1310.6,2113.2c0,2.5,1.6,5.1,3.6,6.1l-0.8,1c-1.5-0.8-2.8-2.5-3.5-4.5c-0.6,2.1-2,3.9-3.6,4.8l-0.8-1.1
			c2.1-1.1,3.7-3.8,3.7-6.4v-2.6h1.3V2113.2z M1319.1,2116.2h-2.4v7.4h-1.3v-14.3h1.3v5.8h2.4V2116.2z"/>
		<path class="st5" d="M1332.2,2117.4c-1.6-0.6-3-1.8-3.6-3.3c-0.6,1.6-1.9,2.9-3.6,3.5l-0.7-1c2.2-0.8,3.6-2.6,3.6-4.7v-0.6h-3.3
			v-1.1h7.9v1.1h-3.2v0.6c0,1.9,1.5,3.7,3.6,4.4L1332.2,2117.4z M1326.2,2118.8h9.6v4.9h-1.3v-3.9h-8.3V2118.8z M1335.8,2109.3v8.7
			h-1.3v-8.7H1335.8z"/>
		<path class="st5" d="M1342.8,2117c-1.4,0.1-2.8,0.1-4,0.1l-0.2-1.1c2.7,0,6.2,0,9.3-0.4l0.1,0.9c-1.3,0.2-2.6,0.3-3.9,0.4v2.8
			h-1.3V2117z M1339.8,2112.4c0-1.5,1.4-2.5,3.5-2.5c2.1,0,3.5,1,3.5,2.5c0,1.5-1.4,2.5-3.5,2.5
			C1341.3,2114.9,1339.8,2113.9,1339.8,2112.4z M1350.9,2122.3v1.1h-10.1v-4.2h1.3v3.1H1350.9z M1341.1,2112.4
			c0,0.9,0.9,1.5,2.3,1.5c1.4,0,2.3-0.6,2.3-1.5c0-0.9-0.9-1.5-2.3-1.5C1342,2110.9,1341.1,2111.5,1341.1,2112.4z M1349.2,2117.8
			v-8.5h1.3v10.9h-1.3v-1.5h-2.9v-1H1349.2z"/>
		<path class="st5" d="M1364.2,2116.7v1.3h4.2v3.1h-8.4v1.4h8.9v1h-10.1v-3.3h8.4v-1.2h-8.5v-1h4.3v-1.3h-5.8v-1h12.9v1H1364.2z
			 M1357.7,2114.1c2.7-0.2,4.8-1.1,5.1-2.5h-4.4v-1h4.5v-1.4h1.3v1.4h4.5v1h-4.4c0.2,1.4,2.4,2.3,5.1,2.5l-0.4,1
			c-2.4-0.2-4.5-0.9-5.4-2.3c-0.9,1.3-3,2.1-5.4,2.3L1357.7,2114.1z"/>
		<path class="st5" d="M1377.2,2119.6c1.3-0.1,2.7-0.2,4-0.4l0.1,1c-3.2,0.6-6.7,0.6-9.3,0.6l-0.2-1.1c1.2,0,2.6,0,4,0v-2.4h-3v-6.7
			h7.4v1.1h-6.1v1.7h5.8v1h-5.8v1.8h6.2v1.1h-3.2V2119.6z M1383.5,2109.3v14.4h-1.3v-14.4H1383.5z"/>
		<path class="st5" d="M1399.5,2115.9v1.1h-13v-1.1h9.7c0.4-2,0.4-3.4,0.4-4.6v0h-8.4v-1.1h9.7v1.1c0,1.2,0,2.7-0.4,4.6H1399.5z
			 M1389.5,2122.3h8.8v1.1h-10.1v-4.7h1.3V2122.3z"/>
		<path class="st5" d="M1417.8,2120.6v1.1h-13v-1.1h3.2v-4.8h1.3v4.8h2.3v-4.8h1.3v4.8H1417.8z M1415,2111.8h-8.8v-1.1h10.1v1.6
			c0,1.8,0,3.7-0.5,6.4l-1.3-0.2c0.5-2.6,0.5-4.4,0.5-6.2V2111.8z"/>
		<path class="st5" d="M1432.5,2116.9v1.1h-13v-1.1h5.8v-1.4h-4.1v-5.8h9.7v1h-8.4v1.3h8v1h-8v1.4h8.5v1h-4.3v1.4H1432.5z
			 M1430.9,2121.4c0,1.5-1.8,2.3-4.9,2.3s-4.9-0.8-4.9-2.3c0-1.5,1.8-2.3,4.9-2.3S1430.9,2119.9,1430.9,2121.4z M1429.6,2121.4
			c0-0.8-1.3-1.3-3.6-1.3c-2.3,0-3.6,0.5-3.6,1.3c0,0.9,1.3,1.3,3.6,1.3C1428.3,2122.7,1429.6,2122.2,1429.6,2121.4z"/>
		<path class="st5" d="M1442.9,2113.7c0,2.4,1.7,4.9,3.8,5.8l-0.7,1.1c-1.7-0.8-3.1-2.4-3.8-4.4c-0.7,2.1-2.1,3.9-3.7,4.7l-0.8-1.1
			c2.1-1,3.8-3.7,3.8-6.2v-1.8h-3.3v-1.1h8v1.1h-3.4V2113.7z M1449.6,2109.3v14.3h-1.3v-14.3H1449.6z"/>
		<path class="st5" d="M1456.6,2117c-1.4,0.1-2.8,0.1-4,0.1l-0.2-1.1c2.7,0,6.2,0,9.3-0.4l0.1,0.9c-1.3,0.2-2.6,0.3-3.9,0.4v2.8
			h-1.3V2117z M1453.6,2112.4c0-1.5,1.4-2.5,3.5-2.5c2.1,0,3.5,1,3.5,2.5c0,1.5-1.4,2.5-3.5,2.5
			C1455,2114.9,1453.6,2113.9,1453.6,2112.4z M1464.7,2122.3v1.1h-10.1v-4.2h1.3v3.1H1464.7z M1454.9,2112.4c0,0.9,0.9,1.5,2.3,1.5
			c1.4,0,2.3-0.6,2.3-1.5c0-0.9-0.9-1.5-2.3-1.5C1455.8,2110.9,1454.9,2111.5,1454.9,2112.4z M1463,2117.8v-8.5h1.3v10.9h-1.3v-1.5
			h-2.9v-1H1463z"/>
	</g>
	<g class="st0">
		<path d="M773.9,2115.2v1.3h-13.1v-1.3h9.4c0.4-1.6,0.4-2.8,0.4-3.9h-8.2v-1.3h9.8v1.1c0,1.1,0,2.4-0.4,4.1H773.9z M762.4,2118.3
			h9.9v5.2h-9.9V2118.3z M764,2122.2h6.6v-2.6H764V2122.2z"/>
		<path d="M785.5,2117.3v1.9c1,0.4,1.5,1.1,1.5,2c0,1.7-1.9,2.6-5,2.6c-3.1,0-5-0.9-5-2.6c0-0.9,0.6-1.6,1.6-2v-1.8h-3.1v-1.3h13.1
			v1.3H785.5z M776.9,2112.3c0-1.7,2-2.7,5.2-2.7c3.2,0,5.2,1,5.2,2.7c0,1.7-2,2.7-5.2,2.7C778.9,2115,776.9,2114,776.9,2112.3z
			 M778.6,2112.3c0,0.9,1.3,1.5,3.5,1.5c2.1,0,3.4-0.5,3.4-1.5c0-0.9-1.3-1.5-3.4-1.5C779.9,2110.8,778.6,2111.3,778.6,2112.3z
			 M785.3,2121.1c0-0.9-1.2-1.3-3.3-1.3s-3.3,0.5-3.3,1.3c0,0.9,1.2,1.3,3.3,1.3S785.3,2122,785.3,2121.1z M783.9,2117.3h-3.6v1.4
			c0.5-0.1,1.1-0.1,1.7-0.1c0.7,0,1.3,0,1.8,0.1V2117.3z"/>
		<path d="M795.6,2113.5c0,2.4,1.5,4.9,3.7,5.9l-0.9,1.3c-1.7-0.7-3-2.3-3.6-4.2c-0.6,2-1.9,3.7-3.6,4.5l-0.9-1.3
			c2.2-1,3.7-3.7,3.7-6.2v-1.4h-3.2v-1.4h8.1v1.4h-3.2V2113.5z M802.1,2109.3v14.5h-1.7v-14.5H802.1z"/>
		<path d="M808.9,2117.1c-1.4,0.1-2.7,0.1-3.8,0.1l-0.2-1.3c2.7,0,6.2,0,9.3-0.4l0.1,1.2c-1.2,0.2-2.5,0.3-3.7,0.4v2.8h-1.6V2117.1z
			 M806,2112.4c0-1.5,1.5-2.5,3.6-2.5c2.1,0,3.6,1,3.6,2.5c0,1.5-1.5,2.5-3.6,2.5C807.5,2114.9,806,2113.9,806,2112.4z
			 M817.3,2122.1v1.3h-10.4v-4.3h1.6v2.9H817.3z M807.6,2112.4c0,0.8,0.8,1.3,2,1.3c1.2,0,2-0.5,2-1.3s-0.8-1.3-2-1.3
			C808.4,2111,807.6,2111.6,807.6,2112.4z M815.3,2117.8v-8.5h1.6v11h-1.6v-1.3h-2.8v-1.2H815.3z"/>
	</g>
	<g class="st0">
		<path class="st5" d="M973,2194.2v2.6h4.3v4.8H976v-3.8h-8.7v-1.1h4.5v-2.6h-5.8v-1.1h9.7c0.4-1.7,0.4-3,0.4-4.1h-8.4v-1.1h9.7v1
			c0,1.1,0,2.4-0.4,4.1h2v1.1H973z"/>
		<path class="st5" d="M982.6,2196.8c1.4,0,2.9-0.1,4.6-0.4l0.1,1.1c-1.9,0.4-3.6,0.4-5.1,0.4h-0.9v-8.9h1.3V2196.8z M992.7,2187.3
			v14.3h-1.3v-7.4h-2v6.7h-1.2v-13.3h1.2v5.5h2v-5.8H992.7z"/>
		<path class="st5" d="M1007.8,2195.3c-2.9,0.4-6.2,0.5-8.7,0.5l-0.1-1.1c0.6,0,1.2,0,1.8,0v-4.9h-1.4v-1.1h7.7v1.1h-1.4v4.7
			c0.7,0,1.4-0.1,2.1-0.2L1007.8,2195.3z M1002.4,2200.3h8.3v1.1h-9.6v-4.5h1.3V2200.3z M1002,2194.6c0.8,0,1.5,0,2.3-0.1v-4.8h-2.3
			V2194.6z M1012.1,2191.7v1.1h-2.1v5.1h-1.3v-10.6h1.3v4.4H1012.1z"/>
		<path class="st5" d="M1026.6,2198.8v1.1h-13v-1.1h5.8v-2.7h-4.2v-4.4h8.5v-2.2h-8.5v-1.1h9.8v4.4h-8.5v2.3h8.8v1.1h-4.6v2.7
			H1026.6z"/>
		<path class="st5" d="M1037,2191.7c0,2.4,1.7,4.9,3.8,5.8l-0.7,1.1c-1.7-0.8-3.1-2.4-3.8-4.4c-0.7,2.1-2.1,3.9-3.7,4.7l-0.8-1.1
			c2.1-1,3.8-3.7,3.8-6.2v-1.8h-3.3v-1.1h8v1.1h-3.4V2191.7z M1043.6,2187.3v14.3h-1.3v-14.3H1043.6z"/>
		<path class="st5" d="M1050.7,2195c-1.4,0.1-2.8,0.1-4,0.1l-0.2-1.1c2.7,0,6.2,0,9.3-0.4l0.1,0.9c-1.3,0.2-2.6,0.3-3.9,0.4v2.8
			h-1.3V2195z M1047.7,2190.4c0-1.5,1.4-2.5,3.5-2.5c2.1,0,3.5,1,3.5,2.5c0,1.5-1.4,2.5-3.5,2.5
			C1049.1,2192.9,1047.7,2191.9,1047.7,2190.4z M1058.7,2200.3v1.1h-10.1v-4.2h1.3v3.1H1058.7z M1048.9,2190.4
			c0,0.9,0.9,1.5,2.3,1.5c1.4,0,2.3-0.6,2.3-1.5c0-0.9-0.9-1.5-2.3-1.5C1049.8,2188.9,1048.9,2189.5,1048.9,2190.4z M1057.1,2195.8
			v-8.5h1.3v10.9h-1.3v-1.5h-2.9v-1H1057.1z"/>
	</g>
	<g class="st0">
		<path class="st5" d="M979.2,2276.6h-5.9v4.6H972v-4.6h-5.9v-1.1h13V2276.6z M977.8,2274h-9.8v-6.5h9.7v1.1h-8.4v1.7h8v1h-8v1.8
			h8.5V2274z"/>
		<path class="st5" d="M988.1,2274.3h-6.5v-6.4h6.5v1.2h3.3v-2.3h1.3v8.5h-1.3v-2.3h-3.3V2274.3z M986.8,2269h-4v4.3h4V2269z
			 M992.8,2278.5c0,1.7-1.8,2.7-4.8,2.7c-2.9,0-4.8-1-4.8-2.7c0-1.7,1.8-2.7,4.8-2.7C991,2275.8,992.8,2276.7,992.8,2278.5z
			 M991.5,2278.5c0-1.1-1.3-1.7-3.5-1.7c-2.1,0-3.5,0.6-3.5,1.7c0,1.1,1.3,1.7,3.5,1.7C990.2,2280.1,991.5,2279.5,991.5,2278.5z
			 M988.1,2270.2v1.8h3.3v-1.8H988.1z"/>
		<path class="st5" d="M1004.2,2269.6h-8.5v-1.1h3.6v-1.8h1.3v1.8h3.6V2269.6z M999.9,2275.8c-2,0-3.4-1.1-3.4-2.7
			c0-1.6,1.4-2.7,3.4-2.7s3.4,1.1,3.4,2.7C1003.4,2274.7,1001.9,2275.8,999.9,2275.8z M999.9,2274.8c1.3,0,2.2-0.6,2.2-1.6
			c0-1-0.9-1.6-2.2-1.6s-2.2,0.6-2.2,1.6C997.7,2274.1,998.6,2274.8,999.9,2274.8z M999.2,2279.8h8.3v1.1h-9.6v-4.1h1.3V2279.8z
			 M1008.9,2271.6v1.1h-2.1v4.9h-1.3v-10.8h1.3v4.7H1008.9z"/>
		<path class="st5" d="M1020.9,2269.9c-0.9,2.3-3.1,3.8-6.3,4.5l-0.5-1.1c3.5-0.8,5.5-2.5,5.7-4.8h-5v-1.1h6.4c0,0.5,0,0.9-0.1,1.4
			h3.2v-2.1h1.3v7.3h-1.3v-1.5h-3.7v-1h3.7v-1.7H1020.9z M1026.3,2280v1h-9.7v-3.7h7.9v-1.5h-7.9v-1.1h9.3v3.5h-7.9v1.7H1026.3z"/>
		<path class="st5" d="M1032.9,2270.9c0,2.5,1.1,5,3.1,6.1l-0.8,1c-1.4-0.8-2.4-2.4-2.9-4.2c-0.5,2-1.5,3.6-3,4.5l-0.8-1
			c2-1.2,3.1-3.8,3.1-6.5v-1.3h-2.7v-1.1h6.5v1.1h-2.6V2270.9z M1036.7,2267.1h1.2v13.3h-1.2v-7.4h-2.4v-1.1h2.4V2267.1z
			 M1040.9,2266.8v14.4h-1.3v-14.4H1040.9z"/>
		<path class="st5" d="M1048.5,2270.7c0,2.6,1.7,5.3,3.8,6.2l-0.8,1.1c-1.6-0.8-3-2.5-3.7-4.5c-0.7,2.2-2,4-3.7,4.8l-0.8-1.1
			c2.1-1,3.9-3.8,3.9-6.5v-2.6h1.3V2270.7z M1055.1,2266.8v14.4h-1.3v-14.4H1055.1z"/>
		<path class="st5" d="M1071.1,2278.2v1.1h-13v-1.1H1071.1z M1069.9,2275.1c-2.2-0.5-4.4-2-5.3-4.1c-0.9,2.1-3.2,3.6-5.3,4.1
			l-0.6-1.1c2.5-0.5,5.2-2.7,5.2-5.1v-1.1h1.4v1.1c0,2.4,2.7,4.6,5.2,5.1L1069.9,2275.1z"/>
		<path class="st5" d="M1079.7,2274.2c-1.6,0.3-3,0.4-5.3,0.4h-0.9v-6.9h5.4v1.1h-4.2v1.8h3.6v1h-3.6v1.9c2,0,3.3-0.1,4.8-0.4
			L1079.7,2274.2z M1075.5,2276.2h9.4v4.8h-9.4V2276.2z M1076.8,2279.9h6.9v-2.7h-6.9V2279.9z M1080.9,2271.5h-1.9v-1.1h1.9v-3.4
			h1.2v8.3h-1.2V2271.5z M1084.9,2266.8v8.6h-1.3v-8.6H1084.9z"/>
		<path class="st5" d="M1104.1,2274.1v1.1h-5.7v2.9h-1.3v-2.9h-6v-1.1H1104.1z M1092.6,2270.1c0-1.8,2-2.9,5-2.9c3,0,5,1.1,5,2.9
			c0,1.8-2,2.9-5,2.9C1094.6,2273,1092.6,2271.9,1092.6,2270.1z M1094.1,2279.8h8.6v1.1h-9.9v-4.2h1.3V2279.8z M1094,2270.1
			c0,1.1,1.5,1.8,3.6,1.8c2.2,0,3.6-0.7,3.6-1.8c0-1.1-1.4-1.8-3.6-1.8C1095.4,2268.3,1094,2268.9,1094,2270.1z"/>
		<path class="st5" d="M1118.8,2273.9v1.1h-13v-1.1h3.2v-2c-1.1-0.5-1.8-1.2-1.8-2.2c0-1.7,1.9-2.7,5-2.7c3.1,0,5,1,5,2.7
			c0,1-0.6,1.7-1.7,2.1v2H1118.8z M1117.2,2278.6c0,1.6-1.8,2.5-4.9,2.5c-3.1,0-4.9-0.9-4.9-2.5c0-1.6,1.8-2.6,4.9-2.6
			C1115.4,2276.1,1117.2,2277,1117.2,2278.6z M1112.3,2271.4c2.3,0,3.7-0.6,3.7-1.6c0-1-1.4-1.6-3.7-1.6s-3.7,0.6-3.7,1.6
			C1108.6,2270.8,1110,2271.4,1112.3,2271.4z M1115.9,2278.6c0-1-1.3-1.5-3.6-1.5c-2.3,0-3.6,0.6-3.6,1.5c0,1,1.3,1.5,3.6,1.5
			C1114.6,2280.2,1115.9,2279.6,1115.9,2278.6z M1110.3,2273.9h4v-1.7c-0.6,0.1-1.3,0.2-2,0.2c-0.7,0-1.4-0.1-2-0.2V2273.9z"/>
	</g>
	<g class="st0">
		<path class="st5" d="M979.2,2340.2v1.1h-13v-1.1h5.9v-1.7h-4.1v-5.4h1.3v1.6h7v-1.6h1.3v5.4h-4.1v1.7H979.2z M967.6,2342.7h9.9
			v4.5h-1.3v-3.4h-8.6V2342.7z M969.2,2337.5h7v-1.7h-7V2337.5z"/>
		<path class="st5" d="M983.1,2342.6c2.4,0,4.5-0.1,7-0.5l0.1,1.1c-2.6,0.4-4.8,0.5-7.2,0.5h-1.2v-5.5h5.3v-3h-5.3v-1.1h6.7v5.1
			h-5.3V2342.6z M992.7,2332.8v14.4h-1.3v-14.4H992.7z"/>
		<path class="st5" d="M1008.7,2343.2h-5.9v4h-1.3v-4h-5.8v-1.1h13V2343.2z M1007.9,2335.5h-11.5v-1.1h5.2v-1.7h1.3v1.7h5.1V2335.5z
			 M1002.1,2336.3c2.9,0,4.6,0.9,4.6,2.4c0,1.5-1.7,2.4-4.6,2.4c-2.9,0-4.7-0.8-4.7-2.4C997.5,2337.2,999.2,2336.3,1002.1,2336.3z
			 M1002.1,2337.4c-2.1,0-3.3,0.5-3.3,1.4c0,0.9,1.2,1.4,3.3,1.4c2.1,0,3.3-0.5,3.3-1.4C1005.4,2337.9,1004.2,2337.4,1002.1,2337.4z
			"/>
		<path class="st5" d="M1016.8,2340.6c-1.3-0.5-2.3-1.6-2.8-2.8c-0.5,1.3-1.5,2.6-2.9,3.2l-0.7-1c1.9-0.8,3-2.7,3-4.3v-1.9h1.3v1.9
			c0,1.6,1.1,3.2,2.9,3.9L1016.8,2340.6z M1022.5,2344.6c0,1.6-1.8,2.6-4.8,2.6c-2.9,0-4.8-0.9-4.8-2.6c0-1.6,1.8-2.6,4.8-2.6
			C1020.7,2342,1022.5,2343,1022.5,2344.6z M1021.2,2344.6c0-1-1.3-1.6-3.5-1.6c-2.1,0-3.5,0.6-3.5,1.6c0,1,1.3,1.6,3.5,1.6
			C1019.9,2346.2,1021.2,2345.6,1021.2,2344.6z M1019.4,2341.2h-1.2v-8.1h1.2v3.6h1.8v-3.8h1.3v8.9h-1.3v-3.9h-1.8V2341.2z"/>
		<path class="st5" d="M1033.8,2337.2c0,2.4,1.7,4.9,3.8,5.8l-0.7,1.1c-1.7-0.8-3.1-2.4-3.8-4.4c-0.7,2.1-2.1,3.9-3.7,4.7l-0.8-1.1
			c2.1-1,3.8-3.7,3.8-6.2v-1.8h-3.3v-1.1h8v1.1h-3.4V2337.2z M1040.4,2332.8v14.3h-1.3v-14.3H1040.4z"/>
		<path class="st5" d="M1047.5,2340.5c-1.4,0.1-2.8,0.1-4,0.1l-0.2-1.1c2.7,0,6.2,0,9.3-0.4l0.1,0.9c-1.3,0.2-2.6,0.3-3.9,0.4v2.8
			h-1.3V2340.5z M1044.4,2335.9c0-1.5,1.4-2.5,3.5-2.5c2.1,0,3.5,1,3.5,2.5c0,1.5-1.4,2.5-3.5,2.5
			C1045.9,2338.4,1044.4,2337.4,1044.4,2335.9z M1055.5,2345.8v1.1h-10.1v-4.2h1.3v3.1H1055.5z M1045.7,2335.9
			c0,0.9,0.9,1.5,2.3,1.5c1.4,0,2.3-0.6,2.3-1.5c0-0.9-0.9-1.5-2.3-1.5C1046.6,2334.4,1045.7,2335,1045.7,2335.9z M1053.8,2341.3
			v-8.5h1.3v10.9h-1.3v-1.5h-2.9v-1H1053.8z"/>
	</g>
	<g class="st0">
		<path class="st5" d="M1263.6,2182.8c0-1.3,0.9-2.2,2-2.2c1.1,0,2,0.9,2,2.2c0,1.3-0.9,2.1-2,2.1
			C1264.5,2184.9,1263.6,2184.1,1263.6,2182.8z"/>
		<path class="st5" d="M1289.3,2182.5h-5.9v6.2h-1.3v-6.2h-5.8v-1.1h9.5c0.4-2.1,0.4-3.6,0.4-4.9v-0.2h-8.4v-1.1h9.6v1.2
			c0,1.3,0,2.9-0.4,4.9h2.1V2182.5z"/>
		<path class="st5" d="M1291.5,2176h5.5v8.8h-5.5V2176z M1292.8,2183.8h3v-6.8h-3V2183.8z M1303.2,2174.3v14.3h-1.2v-7.6h-1.9v6.9
			h-1.2v-13.3h1.2v5.4h1.9v-5.7H1303.2z"/>
		<path class="st5" d="M1313.3,2182.1c-1.6-0.6-2.8-1.8-3.4-3.2c-0.6,1.7-1.9,3-3.6,3.6l-0.7-1c2.2-0.8,3.6-2.7,3.6-4.9v-1.5h1.3
			v1.6c0,1.9,1.4,3.7,3.5,4.4L1313.3,2182.1z M1317,2186.1c0,1.7-1.8,2.6-4.7,2.6c-2.9,0-4.7-0.9-4.7-2.6c0-1.7,1.8-2.6,4.7-2.6
			C1315.2,2183.4,1317,2184.4,1317,2186.1z M1315.7,2186.1c0-1-1.3-1.6-3.4-1.6c-2.1,0-3.4,0.6-3.4,1.6c0,1,1.3,1.6,3.4,1.6
			C1314.4,2187.6,1315.7,2187.1,1315.7,2186.1z M1319,2178v1.1h-2.1v3.9h-1.3v-8.7h1.3v3.7H1319z"/>
		<path class="st5" d="M1328.9,2181.1c-2,0.4-3.7,0.5-6.7,0.5h-1.1v-6.4h6.3v1.1h-5v4.2c2.8,0,4.5-0.1,6.3-0.5L1328.9,2181.1z
			 M1322.6,2183.2h9v5.2h-9V2183.2z M1323.9,2187.4h6.4v-3.2h-6.4V2187.4z M1333.7,2178.9h-2.1v3.5h-1.3v-8.1h1.3v3.5h2.1V2178.9z"
			/>
		<path class="st5" d="M1340.6,2184.7c1.4-0.1,2.8-0.2,4.1-0.3l0.1,1c-3.2,0.5-6.7,0.6-9.3,0.6l-0.2-1.1c1.2,0,2.6,0,4-0.1v-1.5
			c-1.7-0.2-2.8-1.2-2.8-2.6c0-1.6,1.4-2.7,3.5-2.7s3.4,1,3.4,2.7c0,1.4-1.1,2.4-2.8,2.6V2184.7z M1344.3,2177.1h-8.7v-1.1h3.7v-1.8
			h1.3v1.8h3.7V2177.1z M1339.9,2182.3c1.3,0,2.2-0.6,2.2-1.6c0-1-0.9-1.6-2.2-1.6c-1.3,0-2.2,0.6-2.2,1.6
			C1337.7,2181.6,1338.6,2182.3,1339.9,2182.3z M1346.9,2174.3v14.4h-1.3v-14.4H1346.9z"/>
		<path class="st5" d="M1361.3,2182.3c-1.6-0.5-2.9-1.6-3.5-2.9c-0.6,1.5-1.9,2.7-3.6,3.2l-0.6-1c2.1-0.7,3.6-2.3,3.6-4.2v-0.2h-3.2
			v-1.1h3.2v-1.8h1.3v1.8h3.2v1.1h-3.2v0.2c0,1.7,1.4,3.3,3.5,4L1361.3,2182.3z M1355.6,2183.5h9v5h-9V2183.5z M1356.9,2187.4h6.4
			v-2.9h-6.4V2187.4z M1366.7,2179h-2.1v3.8h-1.3v-8.5h1.3v3.6h2.1V2179z"/>
		<path class="st5" d="M1375.9,2182.2c-1.6-0.6-2.8-1.8-3.4-3.3c-0.6,1.7-1.9,3-3.6,3.6l-0.7-1.1c2.2-0.8,3.6-2.7,3.6-4.9v-1.5h1.3
			v1.6c0,2,1.4,3.8,3.5,4.5L1375.9,2182.2z M1370.4,2183.6h9.6v5.1h-1.3v-4h-8.3V2183.6z M1380,2174.3v8.5h-1.3v-4.4h-3.1v-1.1h3.1
			v-3H1380z"/>
	</g>
	<g class="st0">
		<path class="st5" d="M1263.6,2208.8c0-1.3,0.9-2.2,2-2.2c1.1,0,2,0.9,2,2.2c0,1.3-0.9,2.1-2,2.1
			C1264.5,2210.9,1263.6,2210.1,1263.6,2208.8z"/>
		<path class="st5" d="M1281.1,2204.7c0,2.3,1.6,4.8,3.7,5.8l-0.8,1.1c-1.6-0.8-2.9-2.5-3.6-4.4c-0.7,2.1-2,3.9-3.7,4.8l-0.8-1
			c2-1,3.8-3.7,3.8-6.2v-1.8h-3.3v-1.1h7.8v1.1h-3.2V2204.7z M1289.7,2207.2h-2.4v7.5h-1.3v-14.3h1.3v5.8h2.4V2207.2z"/>
		<path class="st5" d="M1295.2,2204.7c0,2.3,1.2,4.7,3.1,5.7l-0.8,1c-1.4-0.8-2.4-2.2-2.9-4c-0.5,1.8-1.5,3.4-2.9,4.3l-0.8-1
			c1.9-1.2,3-3.7,3-6v-0.7h-2.7v-1.1h2.7v-2.1h1.3v2.1h2.6v1.1h-2.7V2204.7z M1299.1,2200.7h1.2v13.3h-1.2v-6.9h-2.2v-1.1h2.2
			V2200.7z M1303.2,2200.3v14.3h-1.3v-14.3H1303.2z"/>
		<path class="st5" d="M1314.1,2204.2c0,2.5,1.6,5.1,3.6,6.1l-0.8,1c-1.5-0.8-2.8-2.5-3.5-4.5c-0.6,2.1-2,3.9-3.6,4.8l-0.8-1.1
			c2.1-1.1,3.7-3.8,3.7-6.4v-2.6h1.3V2204.2z M1322.7,2207.2h-2.4v7.4h-1.3v-14.3h1.3v5.8h2.4V2207.2z"/>
		<path class="st5" d="M1335.9,2200.3v7.7h-1.3v-3.2h-2.9c-0.3,1.7-1.7,2.8-3.7,2.8c-2.1,0-3.7-1.3-3.7-3.3c0-2,1.6-3.3,3.7-3.3
			c1.9,0,3.4,1.1,3.6,2.8h2.9v-3.4H1335.9z M1330.4,2204.3c0-1.3-1-2.2-2.4-2.2s-2.4,0.9-2.4,2.2s1,2.2,2.4,2.2
			S1330.4,2205.6,1330.4,2204.3z M1334.6,2208.7h1.3v5.8h-9.2v-5.8h1.3v1.8h6.6V2208.7z M1334.6,2211.6h-6.6v1.9h6.6V2211.6z"/>
		<path class="st5" d="M1351.7,2206.5v1.1h-13v-1.1H1351.7z M1340.2,2203.1c0-1.6,1.9-2.5,5-2.5c3.2,0,5,0.9,5,2.5
			c0,1.6-1.9,2.5-5,2.5C1342.1,2205.5,1340.2,2204.7,1340.2,2203.1z M1341.6,2213.5h8.9v1h-10.1v-3.4h8.4v-1.3h-8.5v-1h9.8v3.2h-8.4
			V2213.5z M1341.5,2203.1c0,1,1.3,1.5,3.7,1.5c2.4,0,3.7-0.5,3.7-1.5c0-1-1.3-1.5-3.7-1.5
			C1342.9,2201.6,1341.5,2202.1,1341.5,2203.1z"/>
		<path class="st5" d="M1370,2207.9v1.1h-13v-1.1h5.8v-1.4h-4.1v-5.8h9.7v1h-8.4v1.3h8v1h-8v1.4h8.5v1h-4.3v1.4H1370z
			 M1368.5,2212.4c0,1.5-1.8,2.3-4.9,2.3c-3.1,0-4.9-0.8-4.9-2.3c0-1.5,1.8-2.3,4.9-2.3C1366.7,2210.1,1368.5,2210.9,1368.5,2212.4z
			 M1367.1,2212.4c0-0.8-1.3-1.3-3.6-1.3c-2.3,0-3.6,0.5-3.6,1.3c0,0.9,1.3,1.3,3.6,1.3C1365.9,2213.7,1367.1,2213.2,1367.1,2212.4z
			"/>
		<path class="st5" d="M1380.3,2203.1h-8.5v-1.1h3.6v-1.8h1.3v1.8h3.6V2203.1z M1376.1,2209.3c-2,0-3.4-1.1-3.4-2.7
			c0-1.6,1.4-2.7,3.4-2.7s3.4,1.1,3.4,2.7C1379.5,2208.2,1378.1,2209.3,1376.1,2209.3z M1376.1,2208.3c1.3,0,2.2-0.6,2.2-1.6
			c0-1-0.9-1.6-2.2-1.6s-2.2,0.6-2.2,1.6C1373.9,2207.6,1374.8,2208.3,1376.1,2208.3z M1375.3,2213.3h8.3v1.1h-9.6v-4.1h1.3V2213.3z
			 M1385,2205.1v1.1h-2.1v4.9h-1.3v-10.8h1.3v4.7H1385z"/>
		<path class="st5" d="M1397.2,2208.1v1.5c2.7,0.1,4.2,1,4.2,2.5c0,1.6-1.8,2.5-4.9,2.5c-3.1,0-4.9-0.9-4.9-2.5
			c0-1.5,1.6-2.4,4.3-2.5v-1.5h-5.8v-1.1h13v1.1H1397.2z M1390.8,2205.1c2.5-0.3,4.8-1.5,4.9-3.1h-4.4v-1.1h10.6v1.1h-4.5
			c0.1,1.6,2.4,2.8,4.9,3.1l-0.5,1c-2.4-0.3-4.5-1.3-5.3-2.9c-0.8,1.6-2.9,2.6-5.3,2.9L1390.8,2205.1z M1396.6,2210.6
			c-2.3,0-3.6,0.5-3.6,1.5c0,1,1.3,1.5,3.6,1.5c2.2,0,3.6-0.6,3.6-1.5C1400.2,2211.2,1398.8,2210.6,1396.6,2210.6z"/>
		<path class="st5" d="M1417.8,2211.7v1.1h-13v-1.1h5.8v-3.5h1.3v3.5H1417.8z M1416.6,2208.4c-2.2-0.5-4.4-2-5.4-4
			c-0.9,2-3.2,3.5-5.4,4l-0.5-1.1c2.5-0.4,5.2-2.6,5.2-4.9v-1.1h1.4v1.1c0,2.4,2.7,4.5,5.2,4.9L1416.6,2208.4z"/>
		<path class="st5" d="M1427.1,2201.9c0,4.1-1.9,7.8-6.7,10.1l-0.7-1.1c3.9-1.8,5.8-4.6,6-8h-5.4v-1.1H1427.1z M1431.3,2200.3v14.4
			h-1.3v-14.4H1431.3z"/>
		<path class="st5" d="M1446.1,2200.3v7.7h-1.3v-3.2h-2.9c-0.3,1.7-1.7,2.8-3.7,2.8c-2.1,0-3.7-1.3-3.7-3.3c0-2,1.6-3.3,3.7-3.3
			c1.9,0,3.4,1.1,3.6,2.8h2.9v-3.4H1446.1z M1440.6,2204.3c0-1.3-1-2.2-2.4-2.2c-1.4,0-2.4,0.9-2.4,2.2s1,2.2,2.4,2.2
			C1439.6,2206.6,1440.6,2205.6,1440.6,2204.3z M1444.8,2208.7h1.3v5.8h-9.2v-5.8h1.3v1.8h6.6V2208.7z M1444.8,2211.6h-6.6v1.9h6.6
			V2211.6z"/>
		<path class="st5" d="M1449.1,2210.5c2.6,0,6.2,0,9.3-0.5l0.1,1c-3.2,0.6-6.7,0.6-9.3,0.6L1449.1,2210.5z M1457.5,2204.8
			c0,2-1.6,3.4-3.8,3.4c-2.2,0-3.8-1.4-3.8-3.4c0-2,1.6-3.4,3.8-3.4C1455.9,2201.4,1457.5,2202.7,1457.5,2204.8z M1451.1,2204.8
			c0,1.3,1.1,2.3,2.6,2.3c1.5,0,2.6-0.9,2.6-2.3c0-1.3-1.1-2.3-2.6-2.3C1452.1,2202.5,1451.1,2203.4,1451.1,2204.8z M1460.7,2200.3
			v14.4h-1.3v-14.4H1460.7z"/>
		<path class="st5" d="M1475.2,2208.5c-1.6-0.6-2.9-1.9-3.5-3.6c-0.6,1.7-1.9,3.1-3.6,3.8l-0.7-1.1c2.2-0.8,3.6-2.9,3.6-5.2v-1.5
			h1.3v1.5c0,2.2,1.5,4.1,3.6,4.9L1475.2,2208.5z M1479.5,2213.3v1.1h-9.7v-4.5h1.3v3.4H1479.5z M1479,2210.9h-1.3v-10.5h1.3V2210.9
			z"/>
		<path class="st5" d="M1495,2208.6h-3.4v6.1h-1.3v-6.1h-3.6v6.1h-1.3v-6.1h-3.3v-1.1h9.4c0.4-2.3,0.4-3.9,0.4-5.2h-8.3v-1.1h9.6
			v1.1c0,1.3,0,2.9-0.4,5.2h2.2V2208.6z"/>
		<path class="st5" d="M1503.9,2201.9c0,4.1-1.7,7.7-6.5,10.1l-0.7-1c3.9-1.9,5.6-4.6,5.9-8h-5.2v-1.1H1503.9z M1508.5,2200.3v14.3
			h-1.3v-7.5h-3.4v-1.1h3.4v-5.7H1508.5z"/>
		<path class="st5" d="M1513.2,2210.2c1.6,0,3.1-0.1,5-0.4l0.1,1.1c-2,0.3-3.6,0.4-5.4,0.4h-0.9v-5.4h4.1v-2.9h-4.1v-1.1h5.4v5h-4.1
			V2210.2z M1523.6,2200.3v14.3h-1.3v-7.6h-2v6.9h-1.2v-13.3h1.2v5.3h2v-5.7H1523.6z"/>
		<path class="st5" d="M1530.2,2202h5.5v8.8h-5.5V2202z M1531.5,2209.8h3v-6.8h-3V2209.8z M1541.9,2200.3v14.3h-1.2v-7.6h-1.9v6.9
			h-1.2v-13.3h1.2v5.4h1.9v-5.7H1541.9z"/>
		<path class="st5" d="M1551.6,2207.7v1.3h4.2v3.1h-8.4v1.4h8.9v1h-10.1v-3.3h8.4v-1.2h-8.5v-1h4.3v-1.3h-5.8v-1h12.9v1H1551.6z
			 M1545.1,2205.1c2.7-0.2,4.9-1.1,5.1-2.5h-4.4v-1h4.5v-1.4h1.3v1.4h4.5v1h-4.4c0.2,1.4,2.4,2.3,5.1,2.5l-0.4,1
			c-2.4-0.2-4.5-0.9-5.4-2.3c-0.9,1.3-3,2.1-5.4,2.3L1545.1,2205.1z"/>
		<path class="st5" d="M1570,2207.2h-6.6v-6.3h1.3v2.1h4.1v-2.1h1.3V2207.2z M1568.7,2204h-4.1v2.1h4.1V2204z M1566.1,2213.5h8.3v1
			h-9.6v-3.6h7.8v-1.5h-7.8v-1h9.1v3.5h-7.8V2213.5z M1576,2203.4v1.1h-2.1v3.2h-1.3v-7.4h1.3v3.1H1576z"/>
		<path class="st5" d="M1584,2208.1c-1.3-0.5-2.3-1.6-2.8-2.8c-0.5,1.3-1.5,2.6-2.9,3.2l-0.7-1c1.9-0.8,3-2.7,3-4.3v-1.9h1.3v1.9
			c0,1.6,1.1,3.2,2.9,3.9L1584,2208.1z M1589.7,2212.1c0,1.6-1.8,2.6-4.8,2.6c-2.9,0-4.8-0.9-4.8-2.6c0-1.6,1.8-2.6,4.8-2.6
			C1587.8,2209.5,1589.7,2210.5,1589.7,2212.1z M1588.4,2212.1c0-1-1.3-1.6-3.5-1.6c-2.1,0-3.5,0.6-3.5,1.6c0,1,1.3,1.6,3.5,1.6
			C1587,2213.7,1588.4,2213.1,1588.4,2212.1z M1586.5,2208.7h-1.2v-8.1h1.2v3.6h1.8v-3.8h1.3v8.9h-1.3v-3.9h-1.8V2208.7z"/>
	</g>
	<g class="st0">
		<path class="st5" d="M1263.6,2275.3c0-1.3,0.9-2.2,2-2.2c1.1,0,2,0.9,2,2.2c0,1.3-0.9,2.1-2,2.1
			C1264.5,2277.4,1263.6,2276.6,1263.6,2275.3z"/>
		<path class="st5" d="M1283.9,2274.6c-1.6-0.6-2.8-1.8-3.4-3.2c-0.6,1.7-1.9,3-3.6,3.6l-0.7-1c2.2-0.8,3.6-2.7,3.6-4.9v-1.5h1.3
			v1.6c0,1.9,1.4,3.7,3.5,4.4L1283.9,2274.6z M1287.6,2278.6c0,1.7-1.8,2.6-4.7,2.6c-2.9,0-4.7-0.9-4.7-2.6c0-1.7,1.8-2.6,4.7-2.6
			C1285.8,2275.9,1287.6,2276.9,1287.6,2278.6z M1286.3,2278.6c0-1-1.3-1.6-3.4-1.6c-2.1,0-3.4,0.6-3.4,1.6c0,1,1.3,1.6,3.4,1.6
			C1285,2280.1,1286.3,2279.6,1286.3,2278.6z M1289.6,2270.5v1.1h-2.1v3.9h-1.3v-8.7h1.3v3.7H1289.6z"/>
		<path class="st5" d="M1297.5,2274.6c-1.3-0.5-2.3-1.6-2.8-2.8c-0.5,1.3-1.5,2.6-2.9,3.2l-0.7-1c1.9-0.8,3-2.7,3-4.3v-1.9h1.3v1.9
			c0,1.6,1.1,3.2,2.9,3.9L1297.5,2274.6z M1303.2,2278.6c0,1.6-1.8,2.6-4.8,2.6c-2.9,0-4.8-0.9-4.8-2.6c0-1.6,1.8-2.6,4.8-2.6
			C1301.4,2276,1303.2,2277,1303.2,2278.6z M1301.9,2278.6c0-1-1.3-1.6-3.5-1.6c-2.1,0-3.5,0.6-3.5,1.6c0,1,1.3,1.6,3.5,1.6
			C1300.6,2280.2,1301.9,2279.6,1301.9,2278.6z M1300,2275.2h-1.2v-8.1h1.2v3.6h1.8v-3.8h1.3v8.9h-1.3v-3.9h-1.8V2275.2z"/>
		<path class="st5" d="M1312.7,2269.9c-0.9,2.3-3.1,3.8-6.3,4.5l-0.5-1.1c3.5-0.8,5.5-2.5,5.7-4.8h-5v-1.1h6.4c0,0.5,0,0.9-0.1,1.4
			h3.2v-2.1h1.3v7.3h-1.3v-1.5h-3.7v-1h3.7v-1.7H1312.7z M1318,2280v1h-9.7v-3.7h7.9v-1.5h-7.9v-1.1h9.3v3.5h-7.9v1.7H1318z"/>
		<path class="st5" d="M1324.7,2270.9c0,2.5,1.1,5,3.1,6.1l-0.8,1c-1.4-0.8-2.4-2.4-2.9-4.2c-0.5,2-1.5,3.6-3,4.5l-0.8-1
			c2-1.2,3.1-3.8,3.1-6.5v-1.3h-2.7v-1.1h6.5v1.1h-2.6V2270.9z M1328.5,2267.1h1.2v13.3h-1.2v-7.4h-2.4v-1.1h2.4V2267.1z
			 M1332.6,2266.8v14.4h-1.3v-14.4H1332.6z"/>
		<path class="st5" d="M1343.8,2270.7c0,2.6,1.7,5.3,3.8,6.2l-0.8,1.1c-1.6-0.8-3-2.5-3.7-4.5c-0.7,2.2-2,4-3.7,4.8l-0.8-1.1
			c2.1-1,3.9-3.8,3.9-6.5v-2.6h1.3V2270.7z M1350.5,2266.8v14.4h-1.3v-14.4H1350.5z"/>
		<path class="st5" d="M1366.5,2278.2v1.1h-13v-1.1H1366.5z M1365.3,2275.1c-2.2-0.5-4.4-2-5.3-4.1c-0.9,2.1-3.2,3.6-5.3,4.1
			l-0.6-1.1c2.5-0.5,5.2-2.7,5.2-5.1v-1.1h1.4v1.1c0,2.4,2.7,4.6,5.2,5.1L1365.3,2275.1z"/>
		<path class="st5" d="M1375,2274.2c-1.6,0.3-3,0.4-5.3,0.4h-0.9v-6.9h5.4v1.1h-4.2v1.8h3.6v1h-3.6v1.9c2,0,3.3-0.1,4.8-0.4
			L1375,2274.2z M1370.9,2276.2h9.4v4.8h-9.4V2276.2z M1372.2,2279.9h6.9v-2.7h-6.9V2279.9z M1376.3,2271.5h-1.9v-1.1h1.9v-3.4h1.2
			v8.3h-1.2V2271.5z M1380.3,2266.8v8.6h-1.3v-8.6H1380.3z"/>
		<path class="st5" d="M1399.5,2274.1v1.1h-5.7v2.9h-1.3v-2.9h-6v-1.1H1399.5z M1388,2270.1c0-1.8,2-2.9,5-2.9s5,1.1,5,2.9
			c0,1.8-2,2.9-5,2.9S1388,2271.9,1388,2270.1z M1389.5,2279.8h8.6v1.1h-9.9v-4.2h1.3V2279.8z M1389.3,2270.1c0,1.1,1.5,1.8,3.6,1.8
			c2.2,0,3.7-0.7,3.7-1.8c0-1.1-1.4-1.8-3.7-1.8C1390.8,2268.3,1389.3,2268.9,1389.3,2270.1z"/>
		<path class="st5" d="M1414.2,2273.9v1.1h-13v-1.1h3.2v-2c-1.1-0.5-1.8-1.2-1.8-2.2c0-1.7,1.9-2.7,5-2.7c3.1,0,5,1,5,2.7
			c0,1-0.6,1.7-1.7,2.1v2H1414.2z M1412.6,2278.6c0,1.6-1.8,2.5-4.9,2.5c-3.1,0-4.9-0.9-4.9-2.5c0-1.6,1.8-2.6,4.9-2.6
			C1410.8,2276.1,1412.6,2277,1412.6,2278.6z M1407.7,2271.4c2.3,0,3.7-0.6,3.7-1.6c0-1-1.4-1.6-3.7-1.6s-3.7,0.6-3.7,1.6
			C1404,2270.8,1405.4,2271.4,1407.7,2271.4z M1411.3,2278.6c0-1-1.3-1.5-3.6-1.5c-2.3,0-3.6,0.6-3.6,1.5c0,1,1.3,1.5,3.6,1.5
			C1409.9,2280.2,1411.3,2279.6,1411.3,2278.6z M1405.7,2273.9h4v-1.7c-0.6,0.1-1.3,0.2-2,0.2c-0.7,0-1.4-0.1-2-0.2V2273.9z"/>
	</g>
	<g class="st0">
		<path class="st5" d="M1263.6,2408.8c0-1.3,0.9-2.2,2-2.2c1.1,0,2,0.9,2,2.2c0,1.3-0.9,2.1-2,2.1
			C1264.5,2410.9,1263.6,2410.1,1263.6,2408.8z"/>
		<path class="st5" d="M1284.4,2402.8h-8v-1.1h3.4v-1.6h1.3v1.6h3.3V2402.8z M1280.4,2408.7c-1.9,0-3.2-1-3.2-2.6s1.3-2.6,3.2-2.6
			c1.9,0,3.2,1,3.2,2.6S1282.3,2408.7,1280.4,2408.7z M1280.4,2407.7c1.2,0,2-0.6,2-1.6c0-1-0.8-1.6-2-1.6s-2,0.6-2,1.6
			C1278.4,2407.1,1279.2,2407.7,1280.4,2407.7z M1286.8,2409.5h1.3v5h-9.3v-5h1.3v1.5h6.7V2409.5z M1286.8,2411.9h-6.7v1.5h6.7
			V2411.9z M1288.1,2400.3v8.5h-1.3v-1.3h-2.4v-1.1h2.4v-1.7h-2.4v-1.1h2.4v-3.3H1288.1z"/>
		<path class="st5" d="M1298.7,2408.2c-1.8,0.3-3.2,0.4-6.1,0.4h-1v-4.3h4.9v-2h-4.9v-1.1h6.2v4.1h-4.9v2.2c2.7,0,4-0.1,5.7-0.3
			L1298.7,2408.2z M1293.2,2409.9h9.6v4.8h-1.3v-3.7h-8.3V2409.9z M1302.8,2400.3v8.8h-1.3v-2.7h-2.8v-1.1h2.8v-1.9h-2.8v-1.1h2.8
			v-2.1H1302.8z"/>
		<path class="st5" d="M1310.6,2404.2c0,2.5,1.6,5.1,3.6,6.1l-0.8,1c-1.5-0.8-2.8-2.5-3.5-4.5c-0.6,2.1-2,3.9-3.6,4.8l-0.8-1.1
			c2.1-1.1,3.7-3.8,3.7-6.4v-2.6h1.3V2404.2z M1319.1,2407.2h-2.4v7.4h-1.3v-14.3h1.3v5.8h2.4V2407.2z"/>
		<path class="st5" d="M1331.3,2407.8h-6.6v-6.6h1.3v2.2h4.1v-2.2h1.3V2407.8z M1335.3,2412c0,1.7-1.8,2.7-4.7,2.7
			c-2.9,0-4.7-1-4.7-2.7c0-1.7,1.8-2.7,4.7-2.7C1333.5,2409.3,1335.3,2410.3,1335.3,2412z M1330,2404.4h-4.1v2.4h4.1V2404.4z
			 M1334,2412c0-1-1.3-1.6-3.4-1.6c-2.1,0-3.4,0.6-3.4,1.6s1.3,1.6,3.4,1.6C1332.7,2413.6,1334,2413,1334,2412z M1337.3,2403.9v1.1
			h-2.1v3.9h-1.3v-8.6h1.3v3.6H1337.3z"/>
		<path class="st5" d="M1350.6,2400.3v8.5h-1.3v-2.1h-3.6c-0.7,0.8-1.7,1.3-3,1.3c-2.1,0-3.7-1.4-3.7-3.5c0-2,1.6-3.4,3.7-3.4
			c1.2,0,2.3,0.5,3,1.3h3.6v-2.1L1350.6,2400.3z M1345.1,2404.6c0-1.3-1-2.3-2.4-2.3c-1.4,0-2.4,1-2.4,2.3c0,1.4,1,2.4,2.4,2.4
			C1344.1,2406.9,1345.1,2405.9,1345.1,2404.6z M1341,2409.6h9.6v5.1h-1.3v-4h-8.3V2409.6z M1349.3,2405.7v-2.2h-3.1
			c0.1,0.3,0.2,0.7,0.2,1.1c0,0.4-0.1,0.8-0.2,1.1H1349.3z"/>
		<path class="st5" d="M1366.5,2407.4v1.1h-13v-1.1h3.2v-2c-1.1-0.5-1.8-1.2-1.8-2.2c0-1.7,1.9-2.7,5-2.7c3.1,0,5,1,5,2.7
			c0,1-0.6,1.7-1.7,2.1v2H1366.5z M1364.9,2412.1c0,1.6-1.8,2.5-4.9,2.5c-3.1,0-4.9-0.9-4.9-2.5c0-1.6,1.8-2.6,4.9-2.6
			C1363,2409.6,1364.9,2410.5,1364.9,2412.1z M1360,2404.9c2.3,0,3.7-0.6,3.7-1.6c0-1-1.4-1.6-3.7-1.6s-3.7,0.6-3.7,1.6
			C1356.3,2404.3,1357.7,2404.9,1360,2404.9z M1363.5,2412.1c0-1-1.3-1.5-3.6-1.5c-2.3,0-3.6,0.6-3.6,1.5c0,1,1.3,1.5,3.6,1.5
			C1362.2,2413.7,1363.5,2413.1,1363.5,2412.1z M1358,2407.4h4v-1.7c-0.6,0.1-1.3,0.2-2,0.2c-0.7,0-1.4-0.1-2-0.2V2407.4z"/>
		<path class="st5" d="M1375.4,2408.3v1.7h4.2v4.5h-9.8v-4.5h4.2v-1.7h-5.8v-1.1h13v1.1H1375.4z M1371.6,2401.8h-2.2v-1.1h10.5v1.1
			h-2.2v3h2.1v1.1h-10.4v-1.1h2.1V2401.8z M1378.3,2411.1h-7.2v2.4h7.2V2411.1z M1376.5,2401.8h-3.6v3h3.6V2401.8z"/>
		<path class="st5" d="M1391.6,2404.7c0,2.4,1.7,4.9,3.8,5.8l-0.7,1.1c-1.7-0.8-3.1-2.4-3.8-4.4c-0.7,2.1-2.1,3.9-3.7,4.7l-0.8-1.1
			c2.1-1,3.8-3.7,3.8-6.2v-1.8h-3.3v-1.1h8v1.1h-3.4V2404.7z M1398.2,2400.3v14.3h-1.3v-14.3H1398.2z"/>
		<path class="st5" d="M1405.3,2408c-1.4,0.1-2.8,0.1-4,0.1l-0.2-1.1c2.7,0,6.2,0,9.3-0.4l0.1,0.9c-1.3,0.2-2.6,0.3-3.9,0.4v2.8
			h-1.3V2408z M1402.3,2403.4c0-1.5,1.4-2.5,3.5-2.5c2.1,0,3.5,1,3.5,2.5c0,1.5-1.4,2.5-3.5,2.5
			C1403.7,2405.9,1402.3,2404.9,1402.3,2403.4z M1413.3,2413.3v1.1h-10.1v-4.2h1.3v3.1H1413.3z M1403.5,2403.4
			c0,0.9,0.9,1.5,2.3,1.5c1.4,0,2.3-0.6,2.3-1.5c0-0.9-0.9-1.5-2.3-1.5C1404.5,2401.9,1403.5,2402.5,1403.5,2403.4z M1411.7,2408.8
			v-8.5h1.3v10.9h-1.3v-1.5h-2.9v-1H1411.7z"/>
	</g>
	<g class="st0">
		<path class="st5" d="M1263.6,2434.8c0-1.3,0.9-2.2,2-2.2c1.1,0,2,0.9,2,2.2c0,1.3-0.9,2.1-2,2.1
			C1264.5,2436.9,1263.6,2436.1,1263.6,2434.8z"/>
		<path class="st5" d="M1281.4,2430.7c0,2.4,1.7,4.9,3.8,5.8l-0.7,1.1c-1.7-0.8-3.1-2.4-3.8-4.4c-0.7,2.1-2.1,3.9-3.7,4.7l-0.8-1.1
			c2.1-1,3.8-3.7,3.8-6.2v-1.8h-3.3v-1.1h8v1.1h-3.4V2430.7z M1288,2426.3v14.3h-1.3v-14.3H1288z"/>
		<path class="st5" d="M1302.8,2426.3v8.5h-1.3v-2.1h-3.6c-0.7,0.8-1.7,1.3-3,1.3c-2.1,0-3.7-1.4-3.7-3.5c0-2,1.6-3.4,3.7-3.4
			c1.2,0,2.3,0.5,3,1.3h3.6v-2.1L1302.8,2426.3z M1297.4,2430.6c0-1.3-1-2.3-2.4-2.3c-1.4,0-2.4,1-2.4,2.3c0,1.4,1,2.4,2.4,2.4
			C1296.3,2432.9,1297.4,2431.9,1297.4,2430.6z M1293.2,2435.6h9.6v5.1h-1.3v-4h-8.3V2435.6z M1301.5,2431.7v-2.2h-3.1
			c0.1,0.3,0.2,0.7,0.2,1.1c0,0.4-0.1,0.8-0.2,1.1H1301.5z"/>
		<path class="st5" d="M1310.6,2430.2c0,2.5,1.6,5.1,3.6,6.1l-0.8,1c-1.5-0.8-2.8-2.5-3.5-4.5c-0.6,2.1-2,3.9-3.6,4.8l-0.8-1.1
			c2.1-1.1,3.7-3.8,3.7-6.4v-2.6h1.3V2430.2z M1319.1,2433.2h-2.4v7.4h-1.3v-14.3h1.3v5.8h2.4V2433.2z"/>
		<path class="st5" d="M1325.9,2436.7c1.4-0.1,2.8-0.2,4.1-0.3l0.1,1c-3.2,0.5-6.7,0.6-9.3,0.6l-0.2-1.1c1.2,0,2.6,0,4-0.1v-1.5
			c-1.7-0.2-2.8-1.2-2.8-2.6c0-1.6,1.4-2.7,3.5-2.7s3.4,1,3.4,2.7c0,1.4-1.1,2.4-2.8,2.6V2436.7z M1329.6,2429.1h-8.7v-1.1h3.7v-1.8
			h1.3v1.8h3.7V2429.1z M1325.2,2434.3c1.3,0,2.2-0.6,2.2-1.6c0-1-0.9-1.6-2.2-1.6c-1.3,0-2.2,0.6-2.2,1.6
			C1323,2433.6,1323.9,2434.3,1325.2,2434.3z M1332.2,2426.3v14.4h-1.3v-14.4H1332.2z"/>
		<path class="st5" d="M1351.7,2437.7v1.1h-13v-1.1h5.1v-3.7h1.3v3.7H1351.7z M1348.9,2431.2c0-0.8,0-1.4,0-2.1v-0.3h-8.6v-1.1h9.9
			v1.4c0,1.8,0,3.7-0.6,6.7l-1.3-0.2c0.3-1.3,0.4-2.4,0.5-3.4l-8.7,0.5l-0.2-1.1L1348.9,2431.2z"/>
		<path class="st5" d="M1366.5,2437.8v1.1h-13v-1.1h5.8v-2.7h-4.2v-4.4h8.5v-2.2h-8.5v-1.1h9.8v4.4h-8.5v2.3h8.8v1.1h-4.6v2.7
			H1366.5z"/>
		<path class="st5" d="M1370.1,2435.9c2.1,0,4.2-0.2,6.5-0.6l0.2,1.1c-2.4,0.5-4.6,0.7-6.8,0.7h-1.1v-9.3h1.3V2435.9z
			 M1381.5,2433.1h-2.3v7.5h-1.3v-14.4h1.3v5.7h2.3V2433.1z"/>
		<path class="st5" d="M1399.5,2432.4v1.1h-13v-1.1h9.7c0.4-1.9,0.4-3.2,0.4-4.3h-8.4v-1.1h9.7v1c0,1.1,0,2.5-0.4,4.4H1399.5z
			 M1387.9,2435.6h10.1v5.2h-1.3v-4.1h-8.7V2435.6z"/>
		<path class="st5" d="M1414.2,2433.7v1.1h-13v-1.1h5.9v-1.7h-4.1v-5.4h1.3v1.6h7v-1.6h1.3v5.4h-4.1v1.7H1414.2z M1402.7,2436.2h9.9
			v4.5h-1.3v-3.4h-8.6V2436.2z M1404.2,2431h7v-1.7h-7V2431z"/>
		<path class="st5" d="M1427.1,2427.9c0,4.1-1.9,7.8-6.7,10.1l-0.7-1.1c3.9-1.8,5.8-4.6,6-8h-5.4v-1.1H1427.1z M1431.3,2426.3v14.4
			h-1.3v-14.4H1431.3z"/>
		<path class="st5" d="M1447.3,2435.9h-5.9v4.8h-1.3v-4.8h-5.8v-1.1h13V2435.9z M1445.6,2433.1h-9.7v-6.2h1.3v2h7.1v-2h1.3V2433.1z
			 M1444.3,2429.9h-7.1v2.1h7.1V2429.9z"/>
		<path class="st5" d="M1462,2432.4v1.1h-13v-1.1h9.7c0.4-1.8,0.4-3.1,0.4-4.2h-8.4v-1.1h9.7v1.1c0,1.1,0,2.4-0.4,4.2H1462z
			 M1450.6,2435.4h9.8v5.1h-9.8V2435.4z M1451.8,2439.4h7.2v-3h-7.2V2439.4z"/>
		<path class="st5" d="M1472.4,2430.7c0,2.4,1.7,4.9,3.8,5.8l-0.7,1.1c-1.7-0.8-3.1-2.4-3.8-4.4c-0.7,2.1-2.1,3.9-3.7,4.7l-0.8-1.1
			c2.1-1,3.8-3.7,3.8-6.2v-1.8h-3.3v-1.1h8v1.1h-3.4V2430.7z M1479,2426.3v14.3h-1.3v-14.3H1479z"/>
		<path class="st5" d="M1486.1,2434c-1.4,0.1-2.8,0.1-4,0.1l-0.2-1.1c2.7,0,6.2,0,9.3-0.4l0.1,0.9c-1.3,0.2-2.6,0.3-3.9,0.4v2.8
			h-1.3V2434z M1483,2429.4c0-1.5,1.4-2.5,3.5-2.5c2.1,0,3.5,1,3.5,2.5c0,1.5-1.4,2.5-3.5,2.5
			C1484.5,2431.9,1483,2430.9,1483,2429.4z M1494.1,2439.3v1.1H1484v-4.2h1.3v3.1H1494.1z M1484.3,2429.4c0,0.9,0.9,1.5,2.3,1.5
			c1.4,0,2.3-0.6,2.3-1.5c0-0.9-0.9-1.5-2.3-1.5C1485.2,2427.9,1484.3,2428.5,1484.3,2429.4z M1492.4,2434.8v-8.5h1.3v10.9h-1.3
			v-1.5h-2.9v-1H1492.4z"/>
	</g>
	<g class="st0">
		<path d="M767.8,2252.1c-0.9,2.3-3,3.9-6.1,4.8l-0.7-1.3c3.4-0.9,5.3-2.7,5.6-5h-4.8v-1.3h6.6c0,0.5,0,1-0.1,1.4h3v-2.5h1.6v8.5
			h-1.6v-1.7h-3.5v-1.3h3.5v-1.7H767.8z M772.9,2259.8c0,1.8-1.9,2.9-4.8,2.9s-4.8-1.1-4.8-2.9c0-1.8,1.9-2.8,4.8-2.8
			S772.9,2258,772.9,2259.8z M771.3,2259.8c0-1-1.2-1.6-3.2-1.6c-2,0-3.2,0.6-3.2,1.6c0,1,1.2,1.6,3.2,1.6
			C770,2261.4,771.3,2260.8,771.3,2259.8z"/>
		<path d="M782.4,2254.9c-0.7,0.7-1.7,1.2-2.9,1.2c-2.2,0-3.8-1.4-3.8-3.5c0-2,1.6-3.5,3.8-3.5c1.2,0,2.2,0.4,2.9,1.2h3.5v-2h1.6
			v8.5h-1.6v-1.9H782.4z M779.5,2254.7c1.2,0,2.2-0.8,2.2-2.1c0-1.3-0.9-2.1-2.2-2.1c-1.3,0-2.2,0.8-2.2,2.1
			C777.3,2253.8,778.2,2254.7,779.5,2254.7z M787.6,2259.9c0,1.8-1.9,2.8-4.9,2.8s-4.9-1-4.9-2.8c0-1.8,1.9-2.8,4.9-2.8
			S787.6,2258.2,787.6,2259.9z M785.9,2259.9c0-1-1.2-1.5-3.2-1.5c-2,0-3.2,0.5-3.2,1.5c0,1,1.2,1.5,3.2,1.5
			C784.8,2261.4,785.9,2260.9,785.9,2259.9z M783.1,2251.6c0.1,0.3,0.1,0.6,0.1,1c0,0.4,0,0.7-0.1,1h2.8v-2H783.1z"/>
		<path d="M795.6,2252.5c0,2.4,1.5,4.9,3.7,5.9l-0.9,1.3c-1.7-0.7-3-2.3-3.6-4.2c-0.6,2-1.9,3.7-3.6,4.5l-0.9-1.3
			c2.2-1,3.7-3.7,3.7-6.2v-1.4h-3.2v-1.4h8.1v1.4h-3.2V2252.5z M802.1,2248.3v14.5h-1.7v-14.5H802.1z"/>
		<path d="M808.9,2256.1c-1.4,0.1-2.7,0.1-3.8,0.1l-0.2-1.3c2.7,0,6.2,0,9.3-0.4l0.1,1.2c-1.2,0.2-2.5,0.3-3.7,0.4v2.8h-1.6V2256.1z
			 M806,2251.4c0-1.5,1.5-2.5,3.6-2.5c2.1,0,3.6,1,3.6,2.5c0,1.5-1.5,2.5-3.6,2.5C807.5,2253.9,806,2252.9,806,2251.4z
			 M817.3,2261.1v1.3h-10.4v-4.3h1.6v2.9H817.3z M807.6,2251.4c0,0.8,0.8,1.3,2,1.3c1.2,0,2-0.5,2-1.3s-0.8-1.3-2-1.3
			C808.4,2250,807.6,2250.6,807.6,2251.4z M815.3,2256.8v-8.5h1.6v11h-1.6v-1.3h-2.8v-1.2H815.3z"/>
	</g>
	<g class="st0">
		<path class="st5" d="M965.9,2419.6c0-3.8,2.2-6.1,5.2-6.1c1.4,0,2.5,0.7,3.2,1.5l-0.8,1c-0.6-0.7-1.4-1.1-2.4-1.1
			c-2.2,0-3.7,1.8-3.7,4.8c0,3,1.4,4.8,3.6,4.8c1.1,0,2-0.5,2.7-1.3l0.8,0.9c-0.9,1.1-2.1,1.7-3.6,1.7
			C968.1,2425.7,965.9,2423.5,965.9,2419.6z"/>
		<path class="st5" d="M975.6,2419.6c0-3.8,2.1-6.1,5-6.1s5,2.3,5,6.1s-2.1,6.1-5,6.1S975.6,2423.4,975.6,2419.6z M984.1,2419.6
			c0-2.9-1.4-4.8-3.5-4.8c-2.1,0-3.5,1.8-3.5,4.8c0,2.9,1.4,4.8,3.5,4.8C982.7,2424.4,984.1,2422.5,984.1,2419.6z"/>
		<path class="st5" d="M986.4,2413.8h1.6l1.9,6.4c0.4,1.4,0.7,2.5,1.1,3.9h0.1c0.4-1.4,0.7-2.5,1.1-3.9l1.9-6.4h1.5l-3.7,11.7h-1.7
			L986.4,2413.8z"/>
		<path class="st5" d="M997.2,2413.8h1.5v11.7h-1.5V2413.8z"/>
		<path class="st5" d="M1001.9,2413.8h2.9c3.6,0,5.5,2.1,5.5,5.8c0,3.7-1.9,5.9-5.5,5.9h-3V2413.8z M1004.7,2424.3
			c2.8,0,4.1-1.7,4.1-4.7c0-3-1.4-4.6-4.1-4.6h-1.3v9.3H1004.7z"/>
		<path class="st5" d="M1012,2420.5h4.1v1.1h-4.1V2420.5z"/>
		<path class="st5" d="M1018.2,2424.3h2.6v-8.4h-2.1v-0.9c1-0.2,1.8-0.4,2.4-0.8h1.1v10.2h2.4v1.2h-6.4V2424.3z"/>
		<path class="st5" d="M1026.6,2424.5l0.8-0.9c0.4,0.6,1.2,0.9,1.9,0.9c1.6,0,3-1.2,3-4.9c-0.7,0.9-1.7,1.5-2.7,1.5
			c-2,0-3.3-1.2-3.3-3.5c0-2.2,1.5-3.6,3.4-3.6c2.3,0,3.9,1.8,3.9,5.5c0,4.6-2.1,6.3-4.3,6.3
			C1028.2,2425.7,1027.3,2425.2,1026.6,2424.5z M1029.9,2420c0.7,0,1.7-0.5,2.4-1.6c-0.2-2.2-1.1-3.4-2.5-3.4c-1.1,0-2,1-2,2.5
			C1027.8,2419,1028.5,2420,1029.9,2420z"/>
	</g>
	<g class="st0">
		<path class="st5" d="M1052,2418.4v1.1h-13v-1.1h9.7c0.4-1.9,0.4-3.2,0.4-4.3h-8.4v-1.1h9.7v1c0,1.1,0,2.5-0.4,4.4H1052z
			 M1040.4,2421.6h10.1v5.2h-1.3v-4.1h-8.7V2421.6z"/>
		<path class="st5" d="M1066.7,2419.7v1.1h-13v-1.1h5.9v-1.7h-4.1v-5.4h1.3v1.6h7v-1.6h1.3v5.4h-4.1v1.7H1066.7z M1055.2,2422.2h9.9
			v4.5h-1.3v-3.4h-8.6V2422.2z M1056.7,2417h7v-1.7h-7V2417z"/>
		<path class="st5" d="M1077.2,2416.7c0,2.4,1.7,4.9,3.8,5.8l-0.7,1.1c-1.7-0.8-3.1-2.4-3.8-4.4c-0.7,2.1-2.1,3.9-3.7,4.7l-0.8-1.1
			c2.1-1,3.8-3.7,3.8-6.2v-1.8h-3.3v-1.1h8v1.1h-3.4V2416.7z M1083.8,2412.3v14.3h-1.3v-14.3H1083.8z"/>
		<path class="st5" d="M1090.8,2420c-1.4,0.1-2.8,0.1-4,0.1l-0.2-1.1c2.7,0,6.2,0,9.3-0.4l0.1,0.9c-1.3,0.2-2.6,0.3-3.9,0.4v2.8
			h-1.3V2420z M1087.8,2415.4c0-1.5,1.4-2.5,3.5-2.5s3.5,1,3.5,2.5c0,1.5-1.4,2.5-3.5,2.5S1087.8,2416.9,1087.8,2415.4z
			 M1098.9,2425.3v1.1h-10.1v-4.2h1.3v3.1H1098.9z M1089.1,2415.4c0,0.9,0.9,1.5,2.3,1.5s2.3-0.6,2.3-1.5c0-0.9-0.9-1.5-2.3-1.5
			S1089.1,2414.5,1089.1,2415.4z M1097.2,2420.8v-8.5h1.3v10.9h-1.3v-1.5h-2.9v-1H1097.2z"/>
	</g>
	<g class="st0">
		<path class="st5" d="M1263.6,2341.3c0-1.3,0.9-2.2,2-2.2c1.1,0,2,0.9,2,2.2c0,1.3-0.9,2.1-2,2.1
			C1264.5,2343.4,1263.6,2342.6,1263.6,2341.3z"/>
		<path class="st5" d="M1284.1,2340.9c-1.6-0.5-2.9-1.6-3.5-2.9c-0.6,1.5-1.9,2.7-3.6,3.3l-0.7-1c2.1-0.7,3.6-2.4,3.6-4.3v-0.3h-3.2
			v-1.1h3.2v-1.8h1.3v1.8h3.2v1.1h-3.2v0.3c0,1.7,1.4,3.3,3.5,4L1284.1,2340.9z M1287.6,2344.6c0,1.6-1.8,2.6-4.7,2.6
			c-3,0-4.7-0.9-4.7-2.6c0-1.7,1.8-2.6,4.7-2.6C1285.8,2342,1287.6,2342.9,1287.6,2344.6z M1286.3,2344.6c0-1-1.3-1.6-3.4-1.6
			c-2.1,0-3.4,0.6-3.4,1.6s1.3,1.6,3.4,1.6C1285,2346.1,1286.3,2345.6,1286.3,2344.6z M1289.6,2336.5v1.1h-2.1v4h-1.3v-8.8h1.3v3.7
			H1289.6z"/>
		<path class="st5" d="M1299.9,2339.9c-2.4,0.4-4.3,0.5-7,0.5h-1.2v-4h5.2v-1.8h-5.2v-1.1h6.5v3.9h-5.2v1.9c2.5,0,4.4-0.1,6.7-0.4
			L1299.9,2339.9z M1301.5,2341.4h1.3v5.6h-9.3v-5.6h1.3v1.7h6.7V2341.4z M1301.5,2344.2h-6.7v1.8h6.7V2344.2z M1302.8,2332.8v7.9
			h-1.3v-7.9H1302.8z"/>
		<path class="st5" d="M1316.9,2334.4c0,4.1-1.9,7.8-6.7,10.1l-0.7-1.1c3.9-1.8,5.8-4.6,6.1-8h-5.4v-1.1H1316.9z M1321.1,2332.8
			v14.4h-1.3v-14.4H1321.1z"/>
		<path class="st5" d="M1332.2,2340.1c-2.1,0.4-3.9,0.5-6.3,0.5h-1.1v-7.1h1.3v6c2.2,0,3.9-0.1,5.8-0.5L1332.2,2340.1z
			 M1326.6,2341.9h9.2v5.1h-9.2V2341.9z M1327.9,2345.9h6.7v-3h-6.7V2345.9z M1335.9,2332.8v8.4h-1.3v-3.3h-4v-1h4v-1.5h-4v-1h4
			v-1.6H1335.9z"/>
		<path class="st5" d="M1342.8,2339.7c-2.1,0-3.7-1.3-3.7-3.2c0-1.9,1.6-3.2,3.7-3.2c2.1,0,3.7,1.3,3.7,3.2
			C1346.5,2338.4,1344.9,2339.7,1342.8,2339.7z M1342.8,2338.7c1.4,0,2.4-0.9,2.4-2.1c0-1.2-1-2.1-2.4-2.1c-1.4,0-2.4,0.9-2.4,2.1
			C1340.4,2337.8,1341.4,2338.7,1342.8,2338.7z M1351,2346v1h-9.7v-3.6h8v-1.5h-8v-1h9.3v3.5h-8v1.6H1351z M1350.5,2340.2h-1.3v-7.4
			h1.3V2340.2z"/>
		<path class="st5" d="M1364.8,2341.2c-1.6-0.6-2.8-1.9-3.4-3.4c-0.6,1.7-1.9,3.1-3.6,3.7l-0.7-1c2.1-0.8,3.6-2.8,3.6-5v-1.8h1.3
			v1.8c0,2,1.4,3.9,3.5,4.7L1364.8,2341.2z M1369.2,2345.8v1.1h-9.6v-4.5h1.3v3.4H1369.2z M1367.6,2337.3h-3.1v-1.1h3.1v-3.4h1.3
			v10.7h-1.3V2337.3z"/>
		<path class="st5" d="M1378.9,2339.9v1.4h4.2v3.2h-8.4v1.4h8.9v1h-10.1v-3.4h8.4v-1.3h-8.5v-1h4.3v-1.4h-5.8v-1.1h13v1.1H1378.9z
			 M1383.1,2337.7h-9.6v-4.4h9.6V2337.7z M1381.8,2334.3h-7v2.3h7V2334.3z"/>
		<path class="st5" d="M1386.5,2348.2c1-0.4,1.6-1.2,1.6-2.2c-0.1,0-0.1,0-0.2,0c-0.6,0-1.1-0.4-1.1-1c0-0.6,0.5-1,1.1-1
			c0.8,0,1.2,0.7,1.2,1.7c0,1.5-0.9,2.7-2.3,3.3L1386.5,2348.2z"/>
		<path class="st5" d="M1407.6,2339.4v1.1h-13v-1.1h9.7c0.4-2,0.4-3.4,0.4-4.6v0h-8.4v-1.1h9.7v1.1c0,1.2,0,2.7-0.4,4.6H1407.6z
			 M1397.5,2345.8h8.8v1.1h-10.1v-4.7h1.3V2345.8z"/>
		<path class="st5" d="M1422.3,2344.3v1.1h-13v-1.1h5.8v-2.7h-4.2v-4.4h8.5v-2.2h-8.5v-1.1h9.8v4.4h-8.5v2.3h8.8v1.1h-4.6v2.7
			H1422.3z"/>
		<path class="st5" d="M1428.8,2337.2c0,2.3,1.6,4.8,3.7,5.8l-0.8,1.1c-1.6-0.8-2.9-2.5-3.6-4.4c-0.7,2.1-2,3.9-3.7,4.8l-0.8-1
			c2-1,3.8-3.7,3.8-6.2v-1.8h-3.3v-1.1h7.8v1.1h-3.2V2337.2z M1437.4,2339.7h-2.4v7.5h-1.3v-14.3h1.3v5.8h2.4V2339.7z"/>
		<path class="st5" d="M1438.8,2343c2.6,0,6.2,0,9.3-0.5l0.1,1c-3.2,0.6-6.7,0.6-9.3,0.6L1438.8,2343z M1447.2,2337.3
			c0,2-1.6,3.4-3.8,3.4c-2.2,0-3.8-1.4-3.8-3.4c0-2,1.6-3.4,3.8-3.4C1445.6,2333.9,1447.2,2335.2,1447.2,2337.3z M1440.8,2337.3
			c0,1.3,1.1,2.3,2.6,2.3c1.5,0,2.6-0.9,2.6-2.3c0-1.3-1.1-2.3-2.6-2.3C1441.9,2335,1440.8,2335.9,1440.8,2337.3z M1450.4,2332.8
			v14.4h-1.3v-14.4H1450.4z"/>
		<path class="st5" d="M1465.5,2338.7c-2.4,0.5-4.5,0.6-6.7,0.6h-1.1v-5.9h1.3v4.8c2,0,4.1-0.2,6.3-0.6L1465.5,2338.7z
			 M1460.4,2345.9h8.3v1.1h-9.6v-3.7h7.8v-1.5h-7.8v-1.1h9.1v3.5h-7.8V2345.9z M1470.3,2335.8v1.1h-2.1v3.2h-1.3v-7.2h1.3v3H1470.3z
			"/>
		<path class="st5" d="M1483,2341.2c-1.6-0.6-2.8-1.9-3.4-3.4c-0.6,1.7-1.9,3.1-3.6,3.7l-0.7-1c2.1-0.8,3.6-2.8,3.6-5v-1.8h1.3v1.8
			c0,2,1.4,3.9,3.5,4.7L1483,2341.2z M1487.5,2345.8v1.1h-9.6v-4.5h1.3v3.4H1487.5z M1485.8,2337.3h-3.1v-1.1h3.1v-3.4h1.3v10.7
			h-1.3V2337.3z"/>
		<path class="st5" d="M1497.2,2339.9v1.4h4.2v3.2h-8.4v1.4h8.9v1h-10.1v-3.4h8.4v-1.3h-8.5v-1h4.3v-1.4h-5.8v-1.1h13v1.1H1497.2z
			 M1501.3,2337.7h-9.6v-4.4h9.6V2337.7z M1500,2334.3h-7v2.3h7V2334.3z"/>
	</g>
	<g class="st0">
		<path d="M768.2,2419.4v2.4h4.2v5h-1.6v-3.7h-8.5v-1.3h4.4v-2.4h-5.7v-1.3h9.5c0.3-1.6,0.4-2.7,0.4-3.8h-8.2v-1.3h9.8v1.1
			c0,1.1,0,2.3-0.3,4h2v1.3H768.2z"/>
		<path d="M782.9,2413.8c0,4.2-1.8,7.9-6.5,10.3l-0.9-1.3c3.5-1.8,5.4-4.4,5.8-7.7h-5.1v-1.3H782.9z M788.9,2419.4h-2.2v7.4h-1.6
			v-14.5h1.6v5.7h2.2V2419.4z"/>
		<path d="M798,2420.4c-1.6-0.6-2.8-1.7-3.4-3.1c-0.6,1.6-1.9,2.8-3.6,3.4l-0.8-1.3c2.2-0.8,3.6-2.7,3.6-4.6v-0.3h-3.1v-1.3h7.7v1.3
			h-3v0.3c0,1.8,1.2,3.6,3.4,4.4L798,2420.4z M792.5,2421.6h9.7v5.1h-1.6v-3.8h-8.1V2421.6z M802.2,2412.3v8.6h-1.6v-3.6h-2.5v-1.4
			h2.5v-3.6H802.2z"/>
		<path d="M813,2416c0,2.6,0.9,5,3,6.1l-1,1.3c-1.4-0.8-2.3-2.1-2.8-3.7c-0.5,1.8-1.4,3.3-2.8,4.2l-1-1.2c2.1-1.2,3-3.7,3-6.6v-0.8
			h-2.6v-1.4h6.6v1.4H813V2416z M821,2412.3v14.5h-1.6v-7.4h-1.6v6.7h-1.6v-13.5h1.6v5.4h1.6v-5.7H821z"/>
		<path d="M831.8,2419.6c-2.4,0.5-4.6,0.6-6.7,0.6h-1.2v-6.9h1.6v5.6c1.9,0,3.9-0.2,6-0.6L831.8,2419.6z M827.1,2425.1h8v1.3h-9.6
			v-4.8h1.7V2425.1z M836.6,2416.5v1.4h-2v4.9h-1.6v-10.4h1.6v4.2H836.6z"/>
		<path d="M846.9,2416.5c0,2.4,1.5,4.9,3.7,5.9l-0.9,1.3c-1.7-0.7-3-2.3-3.6-4.2c-0.6,2-1.9,3.7-3.6,4.5l-0.9-1.3
			c2.2-1,3.7-3.7,3.7-6.2v-1.4h-3.2v-1.4h8.1v1.4h-3.2V2416.5z M853.5,2412.3v14.5h-1.7v-14.5H853.5z"/>
		<path d="M860.3,2420.1c-1.4,0.1-2.7,0.1-3.8,0.1l-0.2-1.3c2.7,0,6.2,0,9.3-0.4l0.1,1.2c-1.2,0.2-2.5,0.3-3.7,0.4v2.8h-1.6V2420.1z
			 M857.4,2415.4c0-1.5,1.5-2.5,3.6-2.5c2.1,0,3.6,1,3.6,2.5c0,1.5-1.5,2.5-3.6,2.5C858.8,2417.9,857.4,2416.9,857.4,2415.4z
			 M868.6,2425.1v1.3h-10.4v-4.3h1.6v2.9H868.6z M858.9,2415.4c0,0.8,0.8,1.3,2,1.3c1.2,0,2-0.5,2-1.3s-0.8-1.3-2-1.3
			C859.7,2414,858.9,2414.6,858.9,2415.4z M866.7,2420.8v-8.5h1.6v11h-1.6v-1.3h-2.8v-1.2H866.7z"/>
	</g>
</g>
</svg>
