<?xml version="1.0" encoding="utf-8"?>
<!-- Generator: Adobe Illustrator 25.1.0, SVG Export Plug-In . SVG Version: 6.00 Build 0)  -->
<svg version="1.1" id="레이어_1" xmlns="http://www.w3.org/2000/svg" xmlns:xlink="http://www.w3.org/1999/xlink" x="0px"
	 y="0px" viewBox="0 0 335.5 495.3" style="enable-background:new 0 0 335.5 495.3;" xml:space="preserve">
<style type="text/css">
	.st0{enable-background:new    ;}
	.st1{fill:#E37E28;}
	.st2{fill:none;stroke:#D5D5D5;}
	.st3{fill:#555555;}
	.st4{fill:#929397;}
	.st5{fill:#DE3F5C;}
	.st6{fill:#FAFAFA;}
	.st7{fill:#DA7A2C;}
</style>
<g id="그룹_5876" transform="translate(-19.75 -906.167)">
	<g id="그룹_5872">
		<g class="st0">
			<path class="st1" d="M20.6,921c2.7-2.6,4.5-4.3,4.5-5.8c0-1-0.6-1.6-1.6-1.6c-0.8,0-1.4,0.5-1.9,1.1l-1.1-1.1
				c1-1,1.9-1.6,3.3-1.6c2,0,3.3,1.2,3.3,3.2c0,1.8-1.6,3.6-3.5,5.5c0.5-0.1,1.2-0.1,1.7-0.1h2.3v1.7h-6.9V921z"/>
			<path class="st1" d="M28.9,917.1c0-3.4,1.4-5.2,3.5-5.2c2.1,0,3.5,1.8,3.5,5.2c0,3.4-1.4,5.3-3.5,5.3
				C30.2,922.4,28.9,920.5,28.9,917.1z M33.9,917.1c0-2.8-0.7-3.6-1.6-3.6s-1.6,0.8-1.6,3.6c0,2.8,0.7,3.7,1.6,3.7
				S33.9,919.9,33.9,917.1z"/>
			<path class="st1" d="M37.1,921c2.7-2.6,4.5-4.3,4.5-5.8c0-1-0.6-1.6-1.6-1.6c-0.8,0-1.4,0.5-1.9,1.1l-1.1-1.1
				c1-1,1.9-1.6,3.3-1.6c2,0,3.3,1.2,3.3,3.2c0,1.8-1.6,3.6-3.5,5.5c0.5-0.1,1.2-0.1,1.7-0.1H44v1.7h-6.9V921z"/>
			<path class="st1" d="M45.4,917.1c0-3.4,1.4-5.2,3.5-5.2c2.1,0,3.5,1.8,3.5,5.2c0,3.4-1.4,5.3-3.5,5.3
				C46.7,922.4,45.4,920.5,45.4,917.1z M50.4,917.1c0-2.8-0.7-3.6-1.6-3.6s-1.6,0.8-1.6,3.6c0,2.8,0.7,3.7,1.6,3.7
				S50.4,919.9,50.4,917.1z"/>
			<path class="st1" d="M63.5,916.9v1.8h3.6v4.6h-1.9v-3.2h-7.3v-1.5h3.7v-1.8h-4.9v-1.5H65c0.2-1.2,0.3-2.1,0.3-3h-7V911h8.9v1
				c0,1,0,2-0.3,3.4h1.6v1.5H63.5z"/>
			<path class="st1" d="M72,918.6c1,0,2.1-0.1,3.3-0.3l0.2,1.6c-1.7,0.3-3.2,0.4-4.5,0.4h-0.9v-8.3H72V918.6z M80.7,910.5v12.9h-1.8
				v-6.4h-1.2v5.8H76v-12.1h1.7v4.7h1.2v-5H80.7z"/>
			<path class="st1" d="M87.6,919.2c1.1-0.1,2.1-0.2,3.1-0.3l0.1,1.3c-2.8,0.6-5.8,0.6-8,0.6l-0.2-1.5c0.9,0,2,0,3.2,0v-1.8
				c-1.5-0.3-2.6-1.5-2.6-3.1c0-1.8,1.5-3.2,3.5-3.2s3.6,1.3,3.6,3.2c0,1.6-1.1,2.7-2.6,3.1V919.2z M86.7,916c1,0,1.8-0.6,1.8-1.6
				s-0.8-1.6-1.8-1.6s-1.8,0.6-1.8,1.6S85.7,916,86.7,916z M93.3,910.5v12.9h-1.8v-12.9H93.3z"/>
			<path class="st1" d="M105.7,913h-7.1v-1.5h2.7v-1.2h1.8v1.2h2.5V913z M102.3,918.1c-1.8,0-3-1-3-2.4c0-1.4,1.2-2.3,3-2.3
				c1.8,0,3,1,3,2.3C105.3,917.1,104,918.1,102.3,918.1z M107.5,918.6h1.8v4.6h-8.6v-4.6h1.8v0.9h5V918.6z M102.3,916.7
				c0.8,0,1.3-0.3,1.3-1c0-0.6-0.5-1-1.3-1c-0.8,0-1.3,0.3-1.3,1C100.9,916.4,101.5,916.7,102.3,916.7z M107.5,920.9h-5v0.9h5V920.9
				z M109.4,910.5v7.7h-1.8v-0.9h-1.7v-1.5h1.7v-1.1h-1.7v-1.5h1.7v-2.7H109.4z"/>
			<path class="st1" d="M118.2,917.8c-1.5,0.3-2.8,0.3-5.3,0.3h-1v-4.2h3.8v-1.2h-3.8v-1.5h5.6v4.1h-3.8v1.3c1.8,0,3-0.1,4.3-0.3
				L118.2,917.8z M113.4,919h8.8v4.4h-1.8v-2.9h-7V919z M122.2,910.5v8h-1.8v-1.9h-2.1V915h2.1v-1.3h-2.1v-1.5h2.1v-1.8L122.2,910.5
				z"/>
			<path class="st1" d="M129.1,913.3c0,2.3,0.9,4.7,3,5.7l-1.1,1.5c-1.3-0.7-2.3-1.9-2.8-3.5c-0.6,1.6-1.5,3-3,3.7l-1.1-1.5
				c2.2-1,3.2-3.5,3.2-5.9v-1.9h1.9V913.3z M136.3,917h-1.9v6.4h-1.8v-12.9h1.8v5h1.9V917z"/>
			<path class="st1" d="M152.1,918.2h-5v5.2h-1.9v-5.2h-4.8v-1.5h8.1c0.3-1.6,0.4-2.9,0.4-4h-7.1v-1.5h9v1.2c0,1.2,0,2.5-0.3,4.3
				h1.7V918.2z"/>
			<path class="st1" d="M153.6,911.8h5.1v8.4h-5.1V911.8z M155.4,918.7h1.7v-5.5h-1.7V918.7z M164.3,910.5v12.9h-1.8v-6.5h-1.1v5.9
				h-1.7v-12.1h1.7v4.7h1.1v-4.9H164.3z"/>
			<path class="st1" d="M173.3,913.3h-7.1v-1.4h2.7v-1.4h1.8v1.4h2.5V913.3z M169.8,918.8c-1.8,0-3-1.1-3-2.5c0-1.5,1.3-2.5,3-2.5
				c1.8,0,3,1,3,2.5C172.8,917.8,171.6,918.8,169.8,918.8z M177.2,921.7v1.5h-8.8v-3.6h1.8v2.2H177.2z M169.8,917.4
				c0.7,0,1.3-0.4,1.3-1.1c0-0.7-0.5-1.1-1.3-1.1c-0.8,0-1.3,0.4-1.3,1.1C168.5,917,169.1,917.4,169.8,917.4z M175.1,917.9h-1.7
				v-1.5h1.7v-1.3h-1.7v-1.5h1.7v-3.2h1.8v9.8h-1.8V917.9z"/>
			<path class="st1" d="M187,918.3c-2.7,0.5-5.6,0.5-7.9,0.5l-0.2-1.4c0.9,0,2,0,3.1,0v-0.7c-1.4-0.2-2.2-0.8-2.2-1.8
				c0-1.2,1.2-1.8,3.2-1.8c1.9,0,3.1,0.7,3.1,1.8c0,0.9-0.8,1.6-2.2,1.8v0.7c1.1-0.1,2.1-0.1,3.1-0.3L187,918.3z M186.5,912.7h-7.3
				v-1.3h2.7v-1h1.8v1h2.7V912.7z M189.3,921.4c0,1.3-1.6,2-4.4,2s-4.4-0.7-4.4-2s1.6-2,4.4-2S189.3,920,189.3,921.4z M182.9,915.5
				c0.9,0,1.4-0.2,1.4-0.6c0-0.4-0.5-0.7-1.4-0.7s-1.4,0.2-1.4,0.7C181.5,915.3,182,915.5,182.9,915.5z M187.5,921.4
				c0-0.5-0.8-0.7-2.5-0.7s-2.5,0.2-2.5,0.7s0.8,0.7,2.5,0.7C186.7,922.1,187.5,921.8,187.5,921.4z M190.9,914.1v1.5h-1.6v3.5h-1.8
				v-8.7h1.8v3.7H190.9z"/>
		</g>
		<path id="패스_5553" class="st2" d="M20.2,936.5h335"/>
		<g class="st0">
			<path class="st3" d="M20.4,960.9c2.7-2.6,4.5-4.3,4.5-5.8c0-1-0.6-1.6-1.6-1.6c-0.8,0-1.4,0.5-1.9,1.1l-1.1-1.1
				c1-1,1.9-1.6,3.3-1.6c2,0,3.3,1.2,3.3,3.2c0,1.8-1.6,3.6-3.5,5.5c0.5-0.1,1.2-0.1,1.7-0.1h2.3v1.7h-6.9V960.9z"/>
			<path class="st3" d="M28.6,957c0-3.4,1.4-5.2,3.5-5.2c2.1,0,3.5,1.8,3.5,5.2c0,3.4-1.4,5.3-3.5,5.3C30,962.3,28.6,960.4,28.6,957
				z M33.7,957c0-2.8-0.7-3.6-1.6-3.6s-1.6,0.8-1.6,3.6c0,2.8,0.7,3.7,1.6,3.7S33.7,959.8,33.7,957z"/>
			<path class="st3" d="M36.8,960.9c2.7-2.6,4.5-4.3,4.5-5.8c0-1-0.6-1.6-1.6-1.6c-0.8,0-1.4,0.5-1.9,1.1l-1.1-1.1
				c1-1,1.9-1.6,3.3-1.6c2,0,3.3,1.2,3.3,3.2c0,1.8-1.6,3.6-3.5,5.5c0.5-0.1,1.2-0.1,1.7-0.1h2.3v1.7h-6.9V960.9z"/>
			<path class="st3" d="M45.1,957c0-3.4,1.4-5.2,3.5-5.2c2.1,0,3.5,1.8,3.5,5.2c0,3.4-1.4,5.3-3.5,5.3
				C46.5,962.3,45.1,960.4,45.1,957z M50.2,957c0-2.8-0.7-3.6-1.6-3.6s-1.6,0.8-1.6,3.6c0,2.8,0.7,3.7,1.6,3.7S50.2,959.8,50.2,957z
				"/>
			<path class="st3" d="M63.6,952.9h-7.1v-1.5h2.7v-1.2h1.8v1.2h2.5V952.9z M60.2,958c-1.8,0-3-1-3-2.4c0-1.4,1.2-2.3,3-2.3
				c1.8,0,3,1,3,2.3C63.2,957,61.9,958,60.2,958z M65.5,958.5h1.8v4.6h-8.6v-4.6h1.8v0.9h5V958.5z M60.2,956.6c0.8,0,1.3-0.3,1.3-1
				c0-0.6-0.5-1-1.3-1c-0.8,0-1.3,0.3-1.3,1C58.9,956.3,59.4,956.6,60.2,956.6z M65.5,960.8h-5v0.9h5V960.8z M67.3,950.4v7.7h-1.8
				v-0.9h-1.7v-1.5h1.7v-1.1h-1.7v-1.5h1.7v-2.7H67.3z"/>
			<path class="st3" d="M76.2,957.7c-1.5,0.3-2.8,0.3-5.3,0.3h-1v-4.2h3.8v-1.2h-3.8v-1.5h5.6v4.1h-3.8v1.3c1.8,0,3-0.1,4.3-0.3
				L76.2,957.7z M71.4,958.9h8.8v4.4h-1.8v-2.9h-7V958.9z M80.2,950.4v8h-1.8v-1.9h-2.1v-1.5h2.1v-1.3h-2.1v-1.5h2.1v-1.8
				L80.2,950.4z"/>
			<path class="st3" d="M87.4,959.5c1.1-0.1,2.1-0.1,3.1-0.3l0.1,1.3c-2.8,0.5-5.8,0.5-8.1,0.5l-0.2-1.5c1,0,2.1,0,3.2,0v-1.1
				c-1.4-0.3-2.3-1.1-2.3-2.3c0-1.4,1.3-2.4,3.2-2.4c1.9,0,3.2,1,3.2,2.4c0,1.2-0.9,2.1-2.3,2.3V959.5z M90.3,953.2h-7.7v-1.4h3
				v-1.4h1.8v1.4h2.9V953.2z M86.5,957.2c0.9,0,1.4-0.4,1.4-1c0-0.7-0.6-1-1.4-1c-0.9,0-1.4,0.4-1.4,1
				C85,956.8,85.6,957.2,86.5,957.2z M93,950.4v12.9h-1.8v-12.9H93z"/>
			<path class="st3" d="M99.9,953.2c0,2.3,0.9,4.7,3,5.7l-1.1,1.5c-1.3-0.7-2.3-1.9-2.8-3.5c-0.6,1.6-1.5,3-3,3.7l-1.1-1.5
				c2.2-1,3.2-3.5,3.2-5.9v-1.9h1.9V953.2z M107.1,956.9h-1.9v6.4h-1.8v-12.9h1.8v5h1.9V956.9z"/>
		</g>
		<g class="st0">
			<path class="st3" d="M20.4,1193c2.7-2.6,4.5-4.3,4.5-5.8c0-1-0.6-1.6-1.6-1.6c-0.8,0-1.4,0.5-1.9,1.1l-1.1-1.1
				c1-1,1.9-1.6,3.3-1.6c2,0,3.3,1.2,3.3,3.2c0,1.8-1.6,3.6-3.5,5.5c0.5-0.1,1.2-0.1,1.7-0.1h2.3v1.7h-6.9V1193z"/>
			<path class="st3" d="M28.6,1189.1c0-3.4,1.4-5.2,3.5-5.2c2.1,0,3.5,1.8,3.5,5.2c0,3.4-1.4,5.3-3.5,5.3
				C30,1194.4,28.6,1192.5,28.6,1189.1z M33.7,1189.1c0-2.8-0.7-3.6-1.6-3.6s-1.6,0.8-1.6,3.6c0,2.8,0.7,3.7,1.6,3.7
				S33.7,1191.9,33.7,1189.1z"/>
			<path class="st3" d="M36.8,1193c2.7-2.6,4.5-4.3,4.5-5.8c0-1-0.6-1.6-1.6-1.6c-0.8,0-1.4,0.5-1.9,1.1l-1.1-1.1
				c1-1,1.9-1.6,3.3-1.6c2,0,3.3,1.2,3.3,3.2c0,1.8-1.6,3.6-3.5,5.5c0.5-0.1,1.2-0.1,1.7-0.1h2.3v1.7h-6.9V1193z"/>
			<path class="st3" d="M45.1,1189.1c0-3.4,1.4-5.2,3.5-5.2c2.1,0,3.5,1.8,3.5,5.2c0,3.4-1.4,5.3-3.5,5.3
				C46.5,1194.4,45.1,1192.5,45.1,1189.1z M50.2,1189.1c0-2.8-0.7-3.6-1.6-3.6s-1.6,0.8-1.6,3.6c0,2.8,0.7,3.7,1.6,3.7
				S50.2,1191.9,50.2,1189.1z"/>
			<path class="st3" d="M68.2,1190.2h-5v5.2h-1.9v-5.2h-4.8v-1.5h8.1c0.3-1.6,0.4-2.9,0.4-4h-7.1v-1.5h9v1.2c0,1.2,0,2.5-0.3,4.3
				h1.7V1190.2z"/>
			<path class="st3" d="M69.8,1183.8h5.1v8.4h-5.1V1183.8z M71.5,1190.7h1.7v-5.5h-1.7V1190.7z M80.5,1182.5v12.9h-1.8v-6.5h-1.1
				v5.9h-1.7v-12.1h1.7v4.7h1.1v-4.9H80.5z"/>
			<path class="st3" d="M94,1187.7v1.5H82.3v-1.5h8.2c0.3-1.3,0.3-2.3,0.3-3.2h-7v-1.5h8.9v1c0,1,0,2.1-0.3,3.6H94z M83.6,1190.5
				h8.9v4.7h-8.9V1190.5z M85.5,1193.8h5.3v-1.8h-5.3V1193.8z"/>
			<path class="st3" d="M98.2,1189.6c-1.7,0-3-1.3-3-3.2c0-1.8,1.2-3.2,3-3.2s2.9,1.3,2.9,3.2C101.1,1188.3,99.9,1189.6,98.2,1189.6
				z M98.2,1188c0.8,0,1.3-0.6,1.3-1.6c0-1-0.5-1.6-1.3-1.6s-1.3,0.6-1.3,1.6C96.9,1187.4,97.4,1188,98.2,1188z M97.3,1190.8h8.9
				v4.6h-1.8v-3.2h-7V1190.8z M106.1,1182.5v7.7h-1.8v-3.1h-1v3.1h-1.7v-7.4h1.7v2.9h1v-3.1H106.1z"/>
		</g>
		<g class="st0">
			<path class="st4" d="M25.6,979.4c-1.2,0.2-2.3,0.3-4.2,0.3h-0.7v-4.1h4v0.7h-3.1v2.8c1.8,0,2.8-0.1,4-0.3L25.6,979.4z
				 M22.5,982.9h5.2v0.7h-6v-2.9h0.8V982.9z M28.6,977.4v0.7h-1.3v3.1h-0.8v-6.5h0.8v2.7H28.6z"/>
			<path class="st4" d="M35.4,979.9c-0.8,0.2-1.7,0.2-2.6,0.3v3.2H32v-3.2c-0.9,0-1.7,0-2.5,0l-0.1-0.7c1.7,0,3.9,0,5.9-0.3
				L35.4,979.9z M30.1,977.1c0-1.1,0.9-1.8,2.3-1.8c1.3,0,2.3,0.8,2.3,1.8c0,1.1-0.9,1.8-2.3,1.8C31.1,978.9,30.1,978.1,30.1,977.1z
				 M30.9,977.1c0,0.7,0.6,1.2,1.5,1.2c0.9,0,1.5-0.5,1.5-1.2c0-0.7-0.6-1.2-1.5-1.2C31.5,975.9,30.9,976.4,30.9,977.1z M36.8,974.8
				v9H36v-9H36.8z"/>
			<path class="st4" d="M41.1,978.4c0-0.4,0.3-0.7,0.7-0.7s0.7,0.3,0.7,0.7c0,0.4-0.3,0.7-0.7,0.7S41.1,978.8,41.1,978.4z
				 M41.1,982.5c0-0.4,0.3-0.7,0.7-0.7s0.7,0.3,0.7,0.7c0,0.4-0.3,0.7-0.7,0.7S41.1,982.9,41.1,982.5z"/>
			<path class="st4" d="M49.8,975.9c0,2.3-0.8,4.4-3.4,5.9l-0.5-0.6c2.1-1.1,2.9-2.8,3-4.6h-2.7v-0.7H49.8z M53.5,974.8v9h-0.8v-4.7
				h-1.2v4.2h-0.8V975h0.8v3.4h1.2v-3.6H53.5z"/>
		</g>
		<g class="st0">
			<path class="st4" d="M25.6,1211.5c-1.2,0.2-2.3,0.3-4.2,0.3h-0.7v-4.1h4v0.7h-3.1v2.8c1.8,0,2.8-0.1,4-0.3L25.6,1211.5z
				 M22.5,1215h5.2v0.7h-6v-2.9h0.8V1215z M28.6,1209.6v0.7h-1.3v3.1h-0.8v-6.5h0.8v2.7H28.6z"/>
			<path class="st4" d="M35.4,1212.1c-0.8,0.2-1.7,0.2-2.6,0.3v3.2H32v-3.2c-0.9,0-1.7,0-2.5,0l-0.1-0.7c1.7,0,3.9,0,5.9-0.3
				L35.4,1212.1z M30.1,1209.2c0-1.1,0.9-1.8,2.3-1.8c1.3,0,2.3,0.8,2.3,1.8c0,1.1-0.9,1.8-2.3,1.8
				C31.1,1211,30.1,1210.3,30.1,1209.2z M30.9,1209.2c0,0.7,0.6,1.2,1.5,1.2c0.9,0,1.5-0.5,1.5-1.2c0-0.7-0.6-1.2-1.5-1.2
				C31.5,1208,30.9,1208.5,30.9,1209.2z M36.8,1206.9v9H36v-9H36.8z"/>
			<path class="st4" d="M41.1,1210.5c0-0.4,0.3-0.7,0.7-0.7s0.7,0.3,0.7,0.7c0,0.4-0.3,0.7-0.7,0.7S41.1,1210.9,41.1,1210.5z
				 M41.1,1214.6c0-0.4,0.3-0.7,0.7-0.7s0.7,0.3,0.7,0.7c0,0.4-0.3,0.7-0.7,0.7S41.1,1215,41.1,1214.6z"/>
			<path class="st4" d="M53.3,1206.9v5.3h-0.8v-2.3h-1.8c-0.1,1.1-1.1,1.8-2.3,1.8c-1.3,0-2.3-0.9-2.3-2.2c0-1.3,1-2.1,2.3-2.1
				c1.2,0,2.1,0.7,2.3,1.8h1.8v-2.3H53.3z M49.9,1209.5c0-0.8-0.7-1.4-1.5-1.4c-0.9,0-1.5,0.6-1.5,1.4c0,0.9,0.6,1.5,1.5,1.5
				C49.3,1211,49.9,1210.4,49.9,1209.5z M47.3,1212.7h6v3.2h-0.8v-2.5h-5.2V1212.7z"/>
			<path class="st4" d="M57.7,1211.7c-0.9,0-1.7,0-2.5,0l-0.1-0.7c1.7,0,3.9,0,5.8-0.3l0.1,0.6c-0.8,0.1-1.6,0.2-2.4,0.3v1.8h-0.8
				V1211.7z M55.8,1208.8c0-0.9,0.9-1.6,2.2-1.6c1.3,0,2.2,0.6,2.2,1.6c0,1-0.9,1.6-2.2,1.6C56.7,1210.4,55.8,1209.8,55.8,1208.8z
				 M62.7,1215v0.7h-6.3v-2.6h0.8v1.9H62.7z M56.6,1208.8c0,0.6,0.6,1,1.4,1c0.8,0,1.4-0.4,1.4-1c0-0.6-0.6-0.9-1.4-0.9
				C57.2,1207.9,56.6,1208.2,56.6,1208.8z M61.7,1212.2v-5.3h0.8v6.8h-0.8v-0.9h-1.8v-0.6H61.7z"/>
		</g>
		<path id="패스_5557" class="st2" d="M19.8,1167.9h335"/>
		<path id="패스_5562" class="st2" d="M19.8,1401h335"/>
		<g id="그룹_5747" transform="translate(-2727.707 54.846)">
			<circle id="타원_117" class="st1" cx="2971.5" cy="999.8" r="92.8"/>
			<path id="패스_3436" class="st5" d="M2971.5,999.8V907c-18.1,0-35.9,5.3-51,15.3L2971.5,999.8z"/>
			<circle id="타원_118" class="st6" cx="2971.5" cy="1000" r="74.8"/>
			<g class="st0">
				<path class="st7" d="M2943.1,991.8c0-4.1,3.1-7.6,9.6-7.6c6.5,0,9.6,3.6,9.6,7.6c0,3-1.6,5.1-3.9,6.3c2.8,1.2,4.6,3.7,4.6,7
					c0,5.4-4.4,8.7-10.3,8.7c-5.8,0-10.3-3.3-10.3-8.7c0-3.4,1.8-5.8,4.6-7C2944.7,996.9,2943.1,994.9,2943.1,991.8z M2947.7,1004.8
					c0,2.5,1.9,4.4,5,4.4s5-1.9,5-4.4c0-2.8-2-4.4-5-4.4C2949.9,1000.5,2947.7,1002,2947.7,1004.8z M2957,992.6c0-2.6-1.7-4-4.3-4
					c-2.5,0-4.3,1.4-4.3,4.1c0,2.3,1.8,3.9,4.3,3.9C2955.2,996.5,2957,994.9,2957,992.6z"/>
			</g>
			<g class="st0">
				<path class="st7" d="M2980.9,991.8c-0.5-2.1-1.6-3.3-4.1-3.3c-3.5,0-5.2,2.7-5.3,9.2c1.3-2.1,3.9-3.3,6.6-3.3
					c5.1,0,8.6,3.4,8.6,9.3c0,5.5-3.4,9.5-9.5,9.5c-8.4,0-10.5-5.9-10.5-14.7c0-9.3,3-14.4,10.2-14.4c5.8,0,8.5,3.7,9,7.8H2980.9z
					 M2972.1,1003.6c0,3,1.8,5,5,5c2.8,0,4.6-1.8,4.6-4.8s-1.5-4.9-4.7-4.9C2974.4,998.9,2972.1,1000.4,2972.1,1003.6z"/>
			</g>
			<g class="st0">
				<path class="st7" d="M2993.1,989.8h-3.8v-5h9.4v28.4h-5.6V989.8z"/>
			</g>
		</g>
		<g id="그룹_5749" transform="translate(20 1108.71)">
			<rect id="사각형_496" y="4.2" class="st1" width="19.6" height="5.7"/>
			<g id="그룹_5499" transform="translate(28.539 0)">
				<path id="패스_3438" class="st7" d="M6.5,6.3v2.1h3.7v4.4H8.8V9.6H1.2V8.4h3.9V6.3H0V5.1h8.4C8.6,4,8.8,2.9,8.7,1.8H1.4V0.6
					h8.7v1c0,1.2-0.1,2.4-0.3,3.5h1.7v1.2H6.5z"/>
				<path id="패스_3439" class="st7" d="M15.1,8.3c1.3,0,2.5-0.2,3.8-0.4L19,9.2c-1.5,0.3-3,0.4-4.5,0.4h-0.9V1.5h1.5V8.3z M24,0
					v12.8h-1.4V6.3h-1.5v5.9h-1.4V0.3h1.4v4.8h1.5V0L24,0z"/>
				<path id="패스_3440" class="st7" d="M29.3,9.1C29.3,8,30,6.9,31.1,6.5V6.4C30.3,5.9,29.8,5,29.7,4c0-1.5,1.3-2.7,2.8-2.7
					c0.1,0,0.2,0,0.2,0c1.5-0.1,2.8,0.9,2.9,2.4c0,0.1,0,0.2,0,0.3c-0.1,1-0.6,1.8-1.4,2.4v0.1C35.3,7,36,8,36,9.2
					c0,1.5-1.4,2.7-3.4,2.7C30.7,11.9,29.3,10.8,29.3,9.1z M34.5,9.1c0-1.2-1.2-1.6-2.6-2.2c-0.7,0.4-1.2,1.2-1.2,2
					c0,1,0.9,1.8,1.9,1.8c0,0,0.1,0,0.1,0c0.9,0.1,1.7-0.5,1.8-1.4C34.5,9.3,34.5,9.2,34.5,9.1L34.5,9.1z M34.3,4.2
					c0.1-0.8-0.6-1.6-1.4-1.6c-0.1,0-0.1,0-0.2,0c-0.8,0-1.4,0.6-1.5,1.3c0,0.1,0,0.1,0,0.2c0,1.1,1,1.6,2.2,2
					C33.9,5.6,34.3,4.9,34.3,4.2L34.3,4.2z"/>
				<path id="패스_3441" class="st7" d="M37.5,10.8l0.9-1c0.4,0.5,1,0.8,1.6,0.8c1.3,0,2.5-1,2.5-4c-0.5,0.7-1.4,1.2-2.3,1.2
					c-1.8,0-2.9-1-2.9-3.1c-0.1-1.7,1.2-3.2,2.9-3.3c0.1,0,0.1,0,0.2,0c2,0,3.6,1.6,3.6,4.9c0,4-1.9,5.6-3.9,5.6
					C39.1,11.9,38.1,11.5,37.5,10.8z M40.5,6.6c0.8-0.1,1.6-0.5,2-1.3c-0.2-1.9-1-2.7-2.1-2.7c-0.9,0-1.6,0.8-1.6,2
					C38.8,5.9,39.4,6.6,40.5,6.6L40.5,6.6z"/>
				<path id="패스_3442" class="st7" d="M45.3,4.4c0-2.1,1-3.3,2.4-3.3s2.5,1.2,2.5,3.3s-1,3.3-2.5,3.3S45.3,6.5,45.3,4.4z
					 M49,4.4C49,2.8,48.5,2,47.7,2s-1.2,0.7-1.2,2.3s0.5,2.4,1.2,2.4S49,6,49,4.4z M53.8,1.1h1l-5.7,10.8h-1L53.8,1.1z M52.7,8.6
					c0-2.1,1-3.3,2.5-3.3s2.4,1.2,2.4,3.3s-1,3.3-2.4,3.3S52.7,10.7,52.7,8.6L52.7,8.6z M56.4,8.6c0-1.6-0.5-2.3-1.2-2.3
					S53.9,7,53.9,8.6s0.5,2.4,1.2,2.4S56.4,10.2,56.4,8.6L56.4,8.6z"/>
			</g>
		</g>
		<g id="그룹_5748" transform="translate(20.001 1130.691)">
			<rect id="사각형_497" x="0" y="4.2" class="st5" width="19.6" height="5.7"/>
			<g id="그룹_5500" transform="translate(28.511 0)">
				<path id="패스_3443" class="st5" d="M3.9,2.1h2.4v1.2H0V2.1h2.4V0.4h1.4L3.9,2.1z M5.9,7c0.1,1.5-1,2.9-2.6,3
					c-0.1,0-0.2,0-0.2,0c-1.5,0-2.8-1.2-2.8-2.8c0-0.1,0-0.2,0-0.2c-0.1-1.5,1-2.9,2.5-3C3,4,3.1,4,3.2,4c1.5,0,2.8,1.2,2.8,2.7
					C5.9,6.8,5.9,6.9,5.9,7L5.9,7z M4.6,7c0-1.1-0.6-1.8-1.5-1.8S1.7,5.9,1.7,7s0.6,1.8,1.5,1.8S4.6,8.1,4.6,7z M11,0v12.8H9.6V6.5
					H8.2v5.7H6.8v-12h1.4v5h1.4V0L11,0z"/>
				<path id="패스_3444" class="st5" d="M18,8.9c1.2-0.1,2.3-0.2,3.4-0.3l0.1,1.1c-2.7,0.4-5.4,0.6-8.2,0.6L13.1,9
					c1,0,2.1,0,3.3,0v-2c-1.6-0.2-2.7-1.5-2.7-3c0-1.8,1.5-3.1,3.3-3.1c0.1,0,0.1,0,0.2,0c1.8-0.2,3.3,1.1,3.5,2.9
					c0,0.1,0,0.1,0,0.2c0,1.6-1.2,2.9-2.8,3L18,8.9z M17.2,5.7c1,0.1,1.9-0.6,2-1.6c0-0.1,0-0.1,0-0.2c0-1-0.8-1.9-1.9-1.8
					c-0.1,0-0.1,0-0.2,0c-1-0.1-1.9,0.6-2,1.6c0,0.1,0,0.1,0,0.2c0,1,0.8,1.8,1.9,1.8C17.1,5.7,17.2,5.7,17.2,5.7L17.2,5.7z M23.6,0
					v12.9h-1.5V0H23.6z"/>
				<path id="패스_3445" class="st5" d="M29.8,10.4h2.3v-7h-1.9v-1c0.8-0.1,1.6-0.4,2.3-0.8h1.2v8.8h2v1.4h-6L29.8,10.4z"/>
				<path id="패스_3446" class="st5" d="M37.9,10.4h2.3v-7h-1.9v-1c0.8-0.1,1.6-0.4,2.3-0.8h1.2v8.8h2v1.4h-6V10.4z"/>
				<path id="패스_3447" class="st5" d="M45.3,4.4c0-2.1,1-3.3,2.4-3.3s2.5,1.2,2.5,3.3s-1,3.3-2.5,3.3S45.3,6.5,45.3,4.4z
					 M49,4.4c0-1.6-0.5-2.3-1.3-2.3s-1.2,0.7-1.2,2.3c0,1.6,0.5,2.4,1.2,2.4S49,6,49,4.4z M53.8,1.1h1l-5.7,10.8h-1L53.8,1.1z
					 M52.7,8.6c0-2.1,1-3.3,2.5-3.3s2.4,1.2,2.4,3.3s-1,3.3-2.4,3.3S52.7,10.7,52.7,8.6L52.7,8.6z M56.5,8.6c0-1.6-0.5-2.3-1.2-2.3
					C54.5,6.3,54,7,54,8.6s0.5,2.4,1.2,2.4C55.9,11,56.5,10.2,56.5,8.6L56.5,8.6z"/>
			</g>
		</g>
		<g id="그룹_5498" transform="translate(583.155 844.509)">
			<circle id="타원_119" class="st1" cx="-337.7" cy="443.1" r="94.4"/>
			<path id="패스_3437" class="st5" d="M-432.4,443.1c0,33.2,17.4,63.9,45.8,80.9l48.6-80.9v-94.4
				C-390.2,348.7-432.4,391-432.4,443.1z"/>
			<circle id="타원_120" class="st6" cx="-338.1" cy="443.6" r="76.1"/>
			<g class="st0">
				<path class="st7" d="M-371,427.2v4.5l-11.4,26.8h-6.1l11.5-26.1h-14.7v-5.2H-371z"/>
				<path class="st7" d="M-367.6,451.9h6.4l-5.3,12.8h-3.9L-367.6,451.9z"/>
				<path class="st7" d="M-337.9,427.1v5.3h-13.9v7.4c1.2-1.4,3.5-2.5,6.1-2.5c7.3,0,9.8,5.5,9.8,10.4c0,6.4-3.7,11-10.8,11
					c-6.8,0-10.6-3.7-11.1-8.9h5.8c0.5,2.2,2.3,3.8,5.2,3.8c3.5,0,5.1-2.5,5.1-5.8c0-3.5-1.8-5.5-5.2-5.5c-2.5,0-4.1,1.4-4.7,3.3
					h-5.8v-18.4H-337.9z"/>
				<path class="st7" d="M-333,453.6c7.1-6,14.5-11.6,14.5-17.3c0-2.8-1.2-4.7-4.2-4.7c-2.9,0-4.5,2.1-4.5,5.4h-5.8
					c0.2-7.2,4.8-10.5,10.4-10.5c6.8,0,10.1,4,10.1,9.5c0,7.3-7,12.9-12,17.2h12.7v5H-333V453.6z"/>
				<path class="st7" d="M-294.4,452.4h-15v-4.7l14.1-20.1h7v19.6h3.8v5.2h-3.8v6.1h-6V452.4z M-294,447.1V434l-8.8,13.2H-294z"/>
			</g>
		</g>
		<g id="그룹_5752" transform="translate(20 1340.825)">
			<rect id="사각형_498" y="4.2" class="st1" width="19.8" height="5.8"/>
			<g id="그룹_5502" transform="translate(28.821 0)">
				<path id="패스_3448" class="st7" d="M6.6,6.3v2.1h3.7V13H8.9V9.7H1.2V8.5h3.9V6.3H0V5.1h8.5C8.7,4,8.8,2.9,8.8,1.8H1.5V0.6
					h8.8v1c0,1.2-0.1,2.4-0.3,3.6h1.8v1.2H6.6z"/>
				<path id="패스_3449" class="st7" d="M15.2,8.4c1.3,0,2.5-0.2,3.8-0.4l0.2,1.3c-1.5,0.3-3,0.4-4.6,0.4h-0.9V1.5h1.5L15.2,8.4z
					 M24.2,0v13h-1.4V6.4h-1.5v5.9h-1.4v-12h1.4v4.9h1.5V0L24.2,0z"/>
				<path id="패스_3450" class="st7" d="M29.3,10.6l0.8-1.1c0.6,0.7,1.5,1.1,2.5,1.1c1.1,0.1,2-0.8,2.1-1.9c0-0.1,0-0.1,0-0.2
					c0.1-1-0.7-2-1.7-2.1c-0.1,0-0.2,0-0.3,0c-0.6,0-1.2,0.2-1.7,0.6l-0.8-0.5l0.3-5h5.3V3h-3.9l-0.2,2.7c0.4-0.2,0.9-0.4,1.4-0.4
					c1.6-0.1,3.1,1.1,3.2,2.7c0,0.2,0,0.3,0,0.5c0.1,1.9-1.4,3.5-3.3,3.5c-0.1,0-0.2,0-0.3,0C31.4,12.1,30.2,11.6,29.3,10.6z"/>
				<path id="패스_3451" class="st7" d="M37.8,10.9l0.9-1c0.4,0.5,1,0.8,1.7,0.8c1.3,0,2.5-1,2.6-4c-0.5,0.7-1.4,1.2-2.3,1.2
					c-1.8,0-3-1-3-3.2c-0.1-1.7,1.2-3.2,3-3.3c0.1,0,0.1,0,0.2,0c2,0,3.7,1.6,3.7,5c0,4-1.9,5.7-4,5.7
					C39.5,12.1,38.5,11.6,37.8,10.9z M40.9,6.7c0.8-0.1,1.6-0.5,2-1.3c-0.2-1.9-1-2.8-2.1-2.8c-0.9,0-1.6,0.8-1.6,2.1
					C39.2,6,39.8,6.7,40.9,6.7L40.9,6.7z"/>
				<path id="패스_3452" class="st7" d="M45.7,4.4c0-2.1,1-3.3,2.5-3.3s2.5,1.2,2.5,3.3s-1,3.4-2.5,3.4S45.7,6.5,45.7,4.4z
					 M49.5,4.4c0-1.6-0.5-2.4-1.3-2.4c-0.7,0-1.3,0.7-1.3,2.4s0.5,2.4,1.3,2.4C49,6.8,49.5,6,49.5,4.4z M54.3,1.1h1L49.6,12h-1
					L54.3,1.1z M53.2,8.7c0-2.1,1-3.3,2.5-3.3c1.5,0,2.5,1.2,2.5,3.3s-1,3.3-2.5,3.3C54.2,12,53.2,10.8,53.2,8.7L53.2,8.7z M57,8.7
					c0-1.6-0.5-2.4-1.3-2.4c-0.7,0-1.3,0.7-1.3,2.4s0.5,2.4,1.3,2.4C56.4,11.1,57,10.3,57,8.7L57,8.7z"/>
			</g>
		</g>
		<g id="그룹_5753" transform="translate(20 1364.238)">
			<rect id="사각형_499" y="4.3" class="st5" width="19.8" height="5.8"/>
			<g id="그룹_5503" transform="translate(28.792 0)">
				<path id="패스_3453" class="st5" d="M3.9,2.1h2.4v1.2H0V2.1h2.5V0.4h1.5V2.1z M6,7.1c0.1,1.5-1,2.9-2.6,3c-0.1,0-0.2,0-0.2,0
					c-1.5,0-2.8-1.2-2.8-2.8c0-0.1,0-0.2,0-0.2c-0.1-1.5,1-2.9,2.6-3C3,4,3.1,4,3.2,4C4.7,4,6,5.3,6,6.8C6,6.9,6,7,6,7.1z M4.7,7.1
					c0-1.1-0.6-1.8-1.5-1.8S1.7,6,1.7,7.1s0.6,1.8,1.5,1.8S4.7,8.1,4.7,7.1z M11.1,0v13H9.7V6.6H8.3v5.8H6.9V0.3h1.4v5.1h1.4V0H11.1
					z"/>
				<path id="패스_3454" class="st5" d="M18.1,9c1.2-0.1,2.4-0.2,3.5-0.3l0.1,1.1c-2.7,0.4-5.5,0.6-8.2,0.6l-0.2-1.2
					c1,0,2.2,0,3.4,0V7c-1.6-0.2-2.8-1.5-2.8-3.1c0-1.8,1.5-3.2,3.3-3.1c0.1,0,0.1,0,0.2,0c1.8-0.2,3.3,1.1,3.5,2.9
					c0,0.1,0,0.1,0,0.2c0,1.6-1.2,2.9-2.8,3.1L18.1,9z M17.4,5.8c1,0.1,2-0.6,2.1-1.7c0-0.1,0-0.1,0-0.2c0-1-0.9-1.9-1.9-1.9
					c-0.1,0-0.1,0-0.2,0c-1-0.1-1.9,0.6-2.1,1.7c0,0.1,0,0.1,0,0.2c0,1,0.9,1.9,1.9,1.8C17.3,5.8,17.3,5.8,17.4,5.8L17.4,5.8z
					 M23.9,0v13h-1.5V0L23.9,0z"/>
				<path id="패스_3455" class="st5" d="M33.8,9.1h-4.6V8l4.2-6.4h1.9v6.3h1.3v1.3h-1.3v2.7h-1.5L33.8,9.1z M33.8,7.9V5.3
					c0-0.6,0-1.5,0.1-2.1h-0.1c-0.3,0.5-0.5,1-0.8,1.5l-2.1,3.1L33.8,7.9z"/>
				<path id="패스_3456" class="st5" d="M38.3,10.5h2.3V3.4h-1.9v-1C39.5,2.3,40.3,2,41,1.6h1.2v8.9h2.1v1.4h-6L38.3,10.5z"/>
				<path id="패스_3457" class="st5" d="M45.8,4.4c0-2.1,1-3.3,2.5-3.3s2.5,1.2,2.5,3.3s-1,3.4-2.5,3.4S45.8,6.6,45.8,4.4z
					 M49.5,4.4c0-1.6-0.5-2.4-1.3-2.4S47,2.8,47,4.4c0,1.6,0.5,2.4,1.3,2.4S49.5,6.1,49.5,4.4L49.5,4.4z M54.4,1.1h1l-5.8,10.9h-1
					L54.4,1.1z M53.3,8.7c0-2.1,1-3.3,2.5-3.3s2.5,1.2,2.5,3.3s-1,3.3-2.5,3.3S53.3,10.8,53.3,8.7L53.3,8.7z M57,8.7
					c0-1.6-0.5-2.4-1.3-2.4s-1.3,0.7-1.3,2.4s0.5,2.4,1.3,2.4S57,10.3,57,8.7L57,8.7z"/>
			</g>
		</g>
	</g>
</g>
</svg>
