<?xml version="1.0" encoding="utf-8"?>
<!-- Generator: Adobe Illustrator 25.1.0, SVG Export Plug-In . SVG Version: 6.00 Build 0)  -->
<svg version="1.1" id="레이어_1" xmlns="http://www.w3.org/2000/svg" xmlns:xlink="http://www.w3.org/1999/xlink" x="0px"
	 y="0px" viewBox="0 0 335 422.7" style="enable-background:new 0 0 335 422.7;" xml:space="preserve">
<style type="text/css">
	.st0{enable-background:new    ;}
	.st1{fill:#E37E28;}
	.st2{fill:#FAFAFA;}
	.st3{fill:#555555;}
	.st4{fill:#FFFFFF;}
	.st5{fill:#F5C297;}
	.st6{fill:#94989E;}
</style>
<g id="그룹_5901" transform="translate(-20 -2964.473)">
	<g class="st0">
		<path class="st1" d="M33.2,2974.5v1.5H21.6v-1.5h4.3v-2.3h1.8v2.3H33.2z M31.9,2979.3c0,1.5-1.8,2.4-4.6,2.4
			c-2.8,0-4.6-0.9-4.6-2.4c0-1.5,1.8-2.4,4.6-2.4C30.1,2976.8,31.9,2977.7,31.9,2979.3z M29.7,2973.7c0.3-1.1,0.3-2,0.3-2.9h-7.1
			v-1.5h8.9v1.1c0,1,0,2.1-0.4,3.4L29.7,2973.7z M30.1,2979.3c0-0.7-1-1.1-2.7-1.1c-1.7,0-2.7,0.4-2.7,1.1c0,0.7,1,1,2.7,1
			C29.1,2980.3,30.1,2979.9,30.1,2979.3z"/>
		<path class="st1" d="M46.2,2973.8v1.5H34.5v-1.5h8.2c0.3-1.2,0.3-2.2,0.3-3h-7v-1.5h8.9v1c0,1,0,2-0.3,3.5H46.2z M42.9,2976.1h1.8
			v5.4h-8.9v-5.4h1.8v1.3h5.2V2976.1z M42.9,2978.9h-5.2v1.2h5.2V2978.9z"/>
		<path class="st1" d="M53.9,2975.5h-6.1v-5.8h6.1V2975.5z M57.7,2979.1c0,1.6-1.7,2.5-4.4,2.5c-2.7,0-4.4-0.9-4.4-2.5
			c0-1.6,1.7-2.5,4.4-2.5C56,2976.6,57.7,2977.5,57.7,2979.1z M52.1,2971.2h-2.5v2.9h2.5V2971.2z M55.8,2979.1
			c0-0.7-0.9-1.1-2.5-1.1c-1.6,0-2.5,0.4-2.5,1.1c0,0.8,0.9,1.1,2.5,1.1C54.9,2980.2,55.8,2979.9,55.8,2979.1z M59.2,2971.7v1.5
			h-1.7v3.1h-1.8v-7.5h1.8v2.9H59.2z"/>
		<path class="st1" d="M75.1,2975.4v1.4H63.4v-1.4h4.9v-0.8h-3.4v-5.5h8.9v1.4h-7v0.7h6.8v1.3h-6.8v0.7h7.1v1.4h-3.7v0.8H75.1z
			 M73.7,2979.6c0,1.4-1.6,2.1-4.5,2.1c-2.8,0-4.5-0.7-4.5-2.1c0-1.4,1.6-2.1,4.5-2.1C72.1,2977.4,73.7,2978.2,73.7,2979.6z
			 M71.8,2979.6c0-0.5-0.8-0.8-2.6-0.8c-1.8,0-2.6,0.2-2.6,0.8s0.8,0.8,2.6,0.8C71,2980.3,71.8,2980.1,71.8,2979.6z"/>
		<path class="st1" d="M83.9,2971.4h-7.6v-1.4h2.9v-1.2H81v1.2h2.9L83.9,2971.4z M80.1,2976.3c-1.9,0-3.2-0.9-3.2-2.3
			c0-1.4,1.3-2.3,3.2-2.3c1.9,0,3.2,0.9,3.2,2.3C83.3,2975.3,82,2976.3,80.1,2976.3z M84.6,2976.8h1.8v4.7h-8.4v-4.7h1.8v1h4.7
			V2976.8z M80.1,2974.9c0.8,0,1.4-0.3,1.4-0.9s-0.6-0.9-1.4-0.9c-0.8,0-1.4,0.3-1.4,0.9S79.3,2974.9,80.1,2974.9z M84.6,2979.2
			h-4.7v0.9h4.7V2979.2z M88.2,2973.4h-1.7v3h-1.8v-7.6h1.8v3.1h1.7V2973.4z"/>
		<path class="st1" d="M100.2,2976.1c-2.7,0.5-5.7,0.5-7.9,0.6l-0.2-1.5c0.7,0,1.5,0,2.4,0v-2.5h1.8v2.4c1.3-0.1,2.6-0.2,3.8-0.3
			L100.2,2976.1z M97.4,2974.1c0.2-1.2,0.3-2.1,0.3-2.9h-4.8v-1.5h6.6v0.8c0,0.9,0,2.2-0.3,3.8L97.4,2974.1z M95.9,2980h7.2v1.5h-9
			v-3.9h1.8V2980z M104.2,2972.7v1.5h-1.5v4.2h-1.8v-9.7h1.8v3.9H104.2z"/>
		<path class="st1" d="M107.8,2977.2c2,0,3.6-0.1,5.4-0.4l0.2,1.5c-2.1,0.4-4,0.4-6.3,0.4h-1.2v-5.3h4.2v-2.1h-4.2v-1.5h6.1v5h-4.2
			V2977.2z M116,2968.8v12.9h-1.8v-12.9H116z"/>
		<path class="st1" d="M133,2978.7v1.5h-11.7v-1.5H133z M124,2971.4h-1.8v-1.5h9.8v1.5h-1.8v3.9h1.7v1.5h-9.7v-1.5h1.7V2971.4z
			 M128.4,2971.4h-2.6v3.9h2.6V2971.4z"/>
		<path class="st1" d="M145.9,2978.8v1.5h-11.7v-1.5h4.9v-1.9h-3.6v-4.4h7.2v-1.4h-7.2v-1.5h9v4.3h-7.2v1.4h7.5v1.5h-3.9v1.9H145.9z
			"/>
		<path class="st1" d="M151.2,2972c0,2.1,0.6,4.2,2.3,5.4l-1,1.4c-1.1-0.7-1.8-1.8-2.2-3.1c-0.4,1.4-1.2,2.7-2.4,3.4l-1.1-1.4
			c1.9-1.1,2.6-3.5,2.6-5.7v-2.2h1.8V2972z M153.8,2969h1.7v12.1h-1.7v-6.5h-1.6v-1.5h1.6V2969z M158.1,2968.8v12.9h-1.8v-12.9
			H158.1z"/>
		<path class="st1" d="M171.6,2978.6v1.5h-11.7v-1.5H171.6z M170.4,2976.4c-2.2-0.4-3.9-1.7-4.7-3.3c-0.8,1.6-2.5,2.9-4.7,3.3
			l-0.8-1.6c2.9-0.5,4.5-2.5,4.5-4.4v-0.9h2v0.9c0,1.9,1.6,3.9,4.5,4.4L170.4,2976.4z"/>
	</g>
	<rect id="사각형_379" x="20" y="2995" class="st2" width="335" height="116"/>
	<rect id="사각형_544" x="20" y="3133.1" class="st2" width="335" height="116"/>
	<rect id="사각형_546" x="20" y="3271.2" class="st2" width="335" height="116"/>
	<rect id="사각형_381" x="20" y="2995" class="st1" width="335" height="38"/>
	<rect id="사각형_545" x="20" y="3133.1" class="st1" width="335" height="38"/>
	<rect id="사각형_547" x="20" y="3271.2" class="st1" width="335" height="38"/>
	<g class="st0">
		<path class="st3" d="M130.3,3059.9c0-1.1,0.8-1.9,1.8-1.9c0.9,0,1.8,0.8,1.8,1.9c0,1.1-0.8,1.9-1.8,1.9
			C131.1,3061.7,130.3,3061,130.3,3059.9z"/>
		<path class="st3" d="M152.3,3062.6v0.9H141v-0.9h3v-2.3c-0.9-0.4-1.4-1-1.4-1.9c0-1.5,1.6-2.4,4.1-2.4c2.5,0,4.1,0.9,4.1,2.4
			c0,0.9-0.5,1.5-1.4,1.9v2.3H152.3z M151.7,3055.2h-10.2v-0.9h4.6v-1.7h1.1v1.7h4.5V3055.2z M143.7,3058.4c0,0.9,1.1,1.4,3,1.4
			c1.8,0,2.9-0.5,2.9-1.4c0-0.9-1.1-1.5-2.9-1.5C144.8,3057,143.7,3057.5,143.7,3058.4z M145.1,3062.6h3.1v-2
			c-0.4,0.1-1,0.1-1.5,0.1c-0.6,0-1.1,0-1.6-0.1V3062.6z"/>
		<path class="st3" d="M161.9,3058.6v1.2h1.7v2.8h-7.4v1.3h7.8v0.9h-8.9v-3h7.4v-1.1h-7.4v-0.9h1.7v-1.2h-3.1v-0.9H165v0.9H161.9z
			 M155,3054.8c0-1.4,1.7-2.2,4.4-2.2c2.8,0,4.4,0.8,4.4,2.2s-1.6,2.2-4.4,2.2C156.6,3056.9,155,3056.2,155,3054.8z M156.1,3054.8
			c0,0.8,1.2,1.3,3.2,1.3c2.1,0,3.2-0.5,3.2-1.3c0-0.8-1.2-1.3-3.2-1.3C157.3,3053.4,156.1,3053.9,156.1,3054.8z M160.8,3058.6h-2.9
			v1.2h2.9V3058.6z"/>
		<path class="st3" d="M173.3,3059.5c-1.4-0.5-2.5-1.5-3-2.8c-0.5,1.4-1.7,2.6-3.2,3.1l-0.6-0.9c1.9-0.7,3.2-2.3,3.2-4.1v-0.5h-2.8
			v-0.9h6.7v0.9h-2.8v0.5c0,1.6,1.2,3.2,3.1,3.8L173.3,3059.5z M168.4,3060.6h8.4v4.4h-1.2v-3.4h-7.2V3060.6z M176.8,3052.4v7.5
			h-1.2v-3.3h-2.5v-0.9h2.5v-3.3H176.8z"/>
		<path class="st3" d="M182.7,3059.5c-1.9,0-3.3-1.3-3.3-3.1c0-1.8,1.4-3.1,3.3-3.1c1.9,0,3.3,1.3,3.3,3.1
			C186,3058.2,184.6,3059.5,182.7,3059.5z M182.7,3058.5c1.2,0,2.2-0.9,2.2-2.1c0-1.2-0.9-2.1-2.2-2.1c-1.2,0-2.1,0.9-2.1,2.1
			C180.6,3057.7,181.5,3058.5,182.7,3058.5z M189.9,3063.8v0.9h-8.5v-4h1.1v3.1H189.9z M189.5,3061.6h-1.1v-9.2h1.1V3061.6z"/>
		<path class="st3" d="M195,3061.3c2.3,0,5.4,0,8.2-0.4l0.1,0.9c-2.8,0.5-5.9,0.5-8.1,0.5L195,3061.3z M202.4,3056.3
			c0,1.8-1.4,3-3.4,3c-1.9,0-3.4-1.2-3.4-3c0-1.8,1.4-3,3.4-3C201,3053.4,202.4,3054.6,202.4,3056.3z M196.8,3056.3c0,1.2,1,2,2.2,2
			c1.3,0,2.2-0.8,2.2-2c0-1.2-0.9-2-2.2-2C197.7,3054.3,196.8,3055.1,196.8,3056.3z M205.2,3052.4v12.6H204v-12.6H205.2z"/>
		<path class="st3" d="M211.9,3055.8c0,2.2,1.4,4.5,3.2,5.4l-0.7,0.9c-1.3-0.7-2.5-2.2-3-3.9c-0.5,1.8-1.7,3.4-3.1,4.2l-0.7-0.9
			c1.8-0.9,3.2-3.3,3.2-5.6v-2.3h1.1V3055.8z M219.4,3058.5h-2.1v6.5h-1.1v-12.6h1.1v5.1h2.1V3058.5z"/>
		<path class="st3" d="M226.5,3055.2c-0.8,2-2.7,3.3-5.5,4l-0.4-0.9c3.1-0.7,4.8-2.2,5-4.2h-4.4v-0.9h5.6c0,0.4,0,0.8-0.1,1.2h2.8
			v-1.8h1.2v6.4h-1.2v-1.3h-3.3v-0.9h3.3v-1.5H226.5z M231.2,3064v0.9h-8.5v-3.2h6.9v-1.3h-6.9v-0.9h8.1v3.1h-6.9v1.5H231.2z"/>
		<path class="st3" d="M240,3059.5c-1.4-0.5-2.5-1.5-3-2.8c-0.5,1.5-1.7,2.6-3.2,3.2l-0.6-0.9c1.9-0.7,3.2-2.4,3.2-4.2v-0.4h-2.8
			v-0.9h6.7v0.9h-2.8v0.4c0,1.6,1.2,3.2,3.1,3.8L240,3059.5z M243.5,3062.7c0,1.5-1.6,2.3-4.2,2.3s-4.2-0.9-4.2-2.3s1.6-2.3,4.2-2.3
			S243.5,3061.2,243.5,3062.7z M242.4,3062.7c0-0.9-1.1-1.5-3-1.5s-3,0.5-3,1.5s1.1,1.4,3,1.4S242.4,3063.6,242.4,3062.7z
			 M242.3,3055.7v-3.2h1.2v7.5h-1.2v-3.3h-2.5v-0.9H242.3z"/>
	</g>
	<g class="st0">
		<path class="st3" d="M127.3,3082.9c0-1.1,0.8-1.9,1.8-1.9c0.9,0,1.8,0.8,1.8,1.9c0,1.1-0.8,1.9-1.8,1.9
			C128.1,3084.7,127.3,3084,127.3,3082.9z"/>
		<path class="st3" d="M148.3,3075.5v6.7h-1.2v-2.8h-2.5c-0.2,1.5-1.5,2.5-3.2,2.5c-1.9,0-3.2-1.2-3.2-2.9c0-1.7,1.4-2.9,3.2-2.9
			c1.7,0,3,1,3.2,2.4h2.6v-3H148.3z M143.5,3078.9c0-1.1-0.9-1.9-2.1-1.9s-2.1,0.8-2.1,1.9c0,1.1,0.9,2,2.1,2
			S143.5,3080.1,143.5,3078.9z M147.2,3082.8h1.1v5h-8v-5h1.1v1.6h5.8V3082.8z M147.2,3085.3h-5.8v1.6h5.8V3085.3z"/>
		<path class="st3" d="M162.1,3083.7h-5.2v4.3h-1.1v-4.3h-5.1v-0.9h11.4V3083.7z M160.6,3081h-8.5v-4.9h8.5V3081z M159.5,3077.1
			h-6.2v3.1h6.2V3077.1z"/>
		<path class="st3" d="M173.5,3081.6c-1.4-0.5-2.6-1.6-3.2-2.9c-0.5,1.4-1.7,2.6-3.2,3.1l-0.6-0.9c1.9-0.7,3.2-2.3,3.2-4.2v-1h1.1v1
			c0,1.7,1.3,3.3,3.2,3.9L173.5,3081.6z M177.2,3087v0.9h-8.5v-3.1h7v-1.3h-7v-0.9h8.1v3h-7v1.3H177.2z M176.7,3082h-1.1v-6.5h1.1
			V3082z"/>
		<path class="st3" d="M185.5,3077.8h-6.4v-0.9h2.6v-1.4h1.1v1.4h2.6L185.5,3077.8z M182.3,3082.8c-1.6,0-2.7-0.8-2.7-2.2
			c0-1.3,1.1-2.1,2.7-2.1c1.6,0,2.7,0.9,2.7,2.1C185,3082,183.9,3082.8,182.3,3082.8z M182.3,3082c1,0,1.7-0.5,1.7-1.3
			c0-0.8-0.7-1.3-1.7-1.3c-1,0-1.7,0.5-1.7,1.3C180.7,3081.4,181.3,3082,182.3,3082z M189.9,3085.8c0,1.4-1.6,2.2-4.2,2.2
			s-4.2-0.8-4.2-2.2c0-1.4,1.6-2.2,4.2-2.2S189.9,3084.4,189.9,3085.8z M188.7,3085.8c0-0.8-1.1-1.3-3.1-1.3c-1.9,0-3.1,0.5-3.1,1.3
			c0,0.8,1.1,1.3,3.1,1.3C187.6,3087.1,188.7,3086.6,188.7,3085.8z M187.1,3082.9H186v-7.3h1.1v3.2h1.6v-3.4h1.1v8h-1.1v-3.6h-1.6
			V3082.9z"/>
		<path class="st3" d="M206.3,3081.7v0.9h-11.4v-0.9h5.1v-1.9h1.1v1.9H206.3z M205.2,3080.5c-1.9-0.3-3.8-1.3-4.6-2.8
			c-0.8,1.4-2.6,2.4-4.6,2.8l-0.4-0.9c2.2-0.3,4.4-1.7,4.4-3.4v-0.6h1.2v0.6c0,1.7,2.2,3.1,4.4,3.4L205.2,3080.5z M196.2,3083.9h8.7
			v4.1h-1.1v-3.2h-7.6V3083.9z"/>
		<path class="st3" d="M219.1,3085.5v1h-11.4v-1h5.1v-3.2h-3.7v-5.8h8.5v0.9h-7.4v3.9h7.5v0.9h-3.8v3.2H219.1z"/>
		<path class="st3" d="M230.8,3077.8h-7.4v-0.9h3.1v-1.5h1.1v1.5h3.1V3077.8z M227.1,3082.9c-1.8,0-3-0.9-3-2.2c0-1.3,1.2-2.2,3-2.2
			s3,0.9,3,2.2C230.1,3082,228.9,3082.9,227.1,3082.9z M233.3,3085.8c0,1.4-1.6,2.2-4.1,2.2c-2.5,0-4.1-0.8-4.1-2.2
			c0-1.4,1.6-2.2,4.1-2.2C231.7,3083.6,233.3,3084.4,233.3,3085.8z M227.1,3082c1.1,0,1.9-0.5,1.9-1.4c0-0.8-0.8-1.3-1.9-1.3
			s-1.9,0.5-1.9,1.3C225.2,3081.5,226,3082,227.1,3082z M232.2,3085.8c0-0.8-1.1-1.3-3-1.3s-3,0.5-3,1.3s1.1,1.3,3,1.3
			S232.2,3086.6,232.2,3085.8z M233.1,3078.6v1.7h1.8v1h-1.8v2.3H232v-8.1h1.1v2.2h1.8v0.9H233.1z"/>
		<path class="st3" d="M242.8,3082.2c-1.4-0.5-2.4-1.5-3-2.8c-0.5,1.5-1.6,2.6-3.1,3.2l-0.6-0.9c1.9-0.7,3.1-2.4,3.1-4.3v-1.3h1.1
			v1.4c0,1.7,1.2,3.3,3,3.9L242.8,3082.2z M246,3085.7c0,1.5-1.6,2.3-4.1,2.3c-2.6,0-4.1-0.8-4.1-2.3c0-1.5,1.6-2.3,4.1-2.3
			C244.4,3083.4,246,3084.2,246,3085.7z M244.9,3085.7c0-0.9-1.1-1.4-3-1.4c-1.9,0-3,0.5-3,1.4c0,0.9,1.1,1.4,3,1.4
			C243.7,3087.1,244.9,3086.6,244.9,3085.7z M247.7,3078.7v1h-1.9v3.4h-1.1v-7.6h1.1v3.2H247.7z"/>
	</g>
	<g id="그룹_5897" transform="translate(31 -21.25)">
		<g class="st0">
			<path class="st4" d="M141.3,3031h-7v-1.1h2.8v-1.3h1.4v1.3h2.7V3031z M137.8,3036.1c-1.7,0-2.9-0.9-2.9-2.3s1.2-2.3,2.9-2.3
				c1.7,0,2.9,0.9,2.9,2.3S139.6,3036.1,137.8,3036.1z M137.8,3035c0.9,0,1.6-0.5,1.6-1.2s-0.6-1.2-1.6-1.2c-0.9,0-1.6,0.5-1.6,1.2
				S136.9,3035,137.8,3035z M143.3,3036.7h1.4v4.5h-8.3v-4.5h1.4v1.1h5.4V3036.7z M143.3,3038.9h-5.4v1.1h5.4V3038.9z M144.7,3028.6
				v7.5h-1.4v-1h-1.9v-1.2h1.9v-1.3h-1.9v-1.2h1.9v-2.8H144.7z"/>
			<path class="st4" d="M153.9,3035.7c-1.5,0.3-2.8,0.3-5.3,0.3h-0.9v-3.9h4v-1.5h-4.1v-1.2h5.5v3.8h-4v1.6c2.1,0,3.3-0.1,4.7-0.3
				L153.9,3035.7z M149,3037.1h8.6v4.3h-1.4v-3.1H149V3037.1z M157.6,3028.7v7.8h-1.4v-2.2h-2.3v-1.2h2.3v-1.5h-2.3v-1.2h2.3v-1.8
				H157.6z"/>
			<path class="st4" d="M164.4,3031.8c0,2.3,1.2,4.5,3.1,5.5l-0.9,1.1c-1.4-0.7-2.4-2.1-2.9-3.7c-0.5,1.8-1.6,3.2-3.1,4l-0.9-1.2
				c2-1,3.2-3.4,3.2-5.7v-2.1h1.4V3031.8z M171.8,3034.9h-2v6.4h-1.4v-12.6h1.4v5h2V3034.9z"/>
			<path class="st4" d="M182.5,3030c0,3.7-1.6,6.9-5.7,9l-0.8-1.1c3.1-1.6,4.8-3.8,5.1-6.7h-4.4v-1.2H182.5z M187.7,3034.8h-1.9v6.4
				h-1.4v-12.6h1.4v5h1.9V3034.8z"/>
			<path class="st4" d="M193.6,3031.8c0,2.3,1.3,4.7,3.3,5.5l-0.8,1.1c-1.5-0.7-2.6-2.1-3.1-3.8c-0.6,1.8-1.7,3.3-3.2,4.1l-0.9-1.2
				c2-0.9,3.3-3.3,3.3-5.8v-2.1h1.4V3031.8z M199.3,3028.6v12.7h-1.5v-12.7H199.3z"/>
			<path class="st4" d="M208.5,3035.6c-1.4-0.5-2.3-1.4-2.9-2.7c-0.6,1.4-1.6,2.5-3.2,3.1l-0.8-1.2c2-0.7,3.1-2.4,3.1-4.2v-1.2h1.5
				v1.2c0,1.8,1,3.3,3,4L208.5,3035.6z M212.3,3038.9c0,1.5-1.6,2.4-4.3,2.4c-2.6,0-4.3-0.9-4.3-2.4s1.6-2.4,4.3-2.4
				C210.7,3036.5,212.3,3037.4,212.3,3038.9z M210.9,3038.9c0-0.8-1-1.3-2.8-1.3s-2.8,0.5-2.8,1.3s1,1.3,2.8,1.3
				S210.9,3039.7,210.9,3038.9z M210.8,3032.4h-2.6v-1.2h2.6v-2.5h1.4v7.5h-1.4V3032.4z"/>
			<path class="st4" d="M224.3,3029.5c0,3.3-2.2,5.7-5.9,6.7l-0.6-1.1c2.9-0.8,4.7-2.4,4.9-4.4h-4.3v-1.2H224.3z M227.8,3038.8
				c0,1.6-1.6,2.5-4.2,2.5c-2.5,0-4.2-1-4.2-2.5c0-1.6,1.7-2.5,4.2-2.5C226.2,3036.3,227.8,3037.2,227.8,3038.8z M226.4,3038.8
				c0-0.9-1.1-1.4-2.7-1.4c-1.7,0-2.7,0.5-2.7,1.4c0,0.9,1.1,1.4,2.7,1.4C225.4,3040.2,226.4,3039.7,226.4,3038.8z M229.5,3031.8
				v1.2h-1.8v3.1h-1.4v-7.4h1.4v3.1H229.5z"/>
			<path class="st4" d="M235.3,3037.7c1.1-0.1,2.2-0.1,3.2-0.3l0.1,1.1c-2.7,0.5-5.6,0.5-7.8,0.5l-0.2-1.2c1,0,2.1,0,3.3,0v-1.2
				c-1.4-0.2-2.3-1.1-2.3-2.3c0-1.4,1.2-2.4,3-2.4c1.8,0,3,0.9,3,2.4c0,1.2-0.9,2.1-2.3,2.3V3037.7z M238.3,3031.3h-7.5v-1.2h3.1
				v-1.4h1.4v1.4h3V3031.3z M234.6,3035.5c1,0,1.7-0.5,1.7-1.2c0-0.8-0.7-1.3-1.7-1.3c-1,0-1.7,0.5-1.7,1.3
				C232.9,3035,233.6,3035.5,234.6,3035.5z M242.4,3035.1h-1.8v6.2h-1.4v-12.7h1.4v5.3h1.8V3035.1z"/>
		</g>
		<g class="st0">
			<path class="st5" d="M72,3038.9l1.2-1.4c0.7,0.7,1.7,1.1,2.6,1.1c1.1,0,1.7-0.5,1.7-1.2c0-0.8-0.6-1-1.6-1.4l-1.4-0.6
				c-1.1-0.4-2.1-1.3-2.1-2.8c0-1.7,1.5-3,3.6-3c1.2,0,2.4,0.5,3.2,1.3l-1.1,1.3c-0.7-0.5-1.3-0.9-2.2-0.9c-0.9,0-1.5,0.4-1.5,1.1
				c0,0.7,0.7,1,1.6,1.4l1.4,0.6c1.3,0.5,2.1,1.3,2.1,2.8c0,1.7-1.4,3.1-3.8,3.1C74.4,3040.4,73,3039.9,72,3038.9z"/>
			<path class="st5" d="M83.3,3031.6h-2.9v-1.7h7.9v1.7h-2.9v8.6h-2.1V3031.6z"/>
			<path class="st5" d="M90.1,3029.8h6.4v1.7h-4.3v2.4h3.6v1.7h-3.6v2.8h4.4v1.7h-6.5V3029.8z"/>
			<path class="st5" d="M98.9,3029.8h3.4c2.3,0,4.1,0.8,4.1,3.3c0,2.4-1.8,3.4-4,3.4h-1.4v3.7h-2.1V3029.8z M102.2,3034.9
				c1.4,0,2.1-0.6,2.1-1.8c0-1.2-0.8-1.6-2.2-1.6h-1.2v3.4H102.2z"/>
			<path class="st5" d="M111.5,3038.6h2.2v-6.3h-1.9v-1.3c1-0.2,1.8-0.5,2.4-0.9h1.5v8.4h1.9v1.7h-6.2V3038.6z"/>
		</g>
	</g>
	<g class="st0">
		<path class="st3" d="M45.9,3197.9c0-1.1,0.8-1.9,1.8-1.9c0.9,0,1.8,0.8,1.8,1.9c0,1.1-0.8,1.9-1.8,1.9
			C46.7,3199.8,45.9,3199.1,45.9,3197.9z"/>
		<path class="st3" d="M63.4,3197.8c-1.4-0.5-2.5-1.6-3-3c-0.5,1.5-1.7,2.7-3.1,3.3l-0.6-0.9c1.9-0.7,3.1-2.5,3.1-4.4v-1.6h1.1v1.6
			c0,1.8,1.2,3.4,3,4.1L63.4,3197.8z M67.3,3201.9v0.9h-8.4v-3.9h1.1v3H67.3z M65.8,3194.4h-2.7v-1h2.7v-2.9H67v9.4h-1.2V3194.4z"/>
		<path class="st3" d="M76.2,3197.6c-1.4-0.5-2.5-1.5-3-2.8c-0.5,1.5-1.7,2.6-3.2,3.2l-0.6-0.9c1.9-0.7,3.2-2.4,3.2-4.2v-0.4h-2.8
			v-0.9h6.7v0.9h-2.8v0.4c0,1.6,1.2,3.2,3.1,3.8L76.2,3197.6z M79.8,3200.8c0,1.5-1.6,2.3-4.2,2.3s-4.2-0.9-4.2-2.3s1.6-2.3,4.2-2.3
			S79.8,3199.3,79.8,3200.8z M78.6,3200.8c0-0.9-1.1-1.5-3-1.5s-3,0.5-3,1.5s1.1,1.4,3,1.4S78.6,3201.7,78.6,3200.8z M78.6,3193.8
			v-3.2h1.2v7.5h-1.2v-3.3h-2.5v-0.9H78.6z"/>
		<path class="st3" d="M82.1,3204c0.9-0.4,1.4-1.1,1.4-1.9c-0.1,0-0.1,0-0.2,0c-0.5,0-0.9-0.3-0.9-0.9c0-0.5,0.4-0.9,1-0.9
			c0.7,0,1.1,0.6,1.1,1.5c0,1.3-0.8,2.4-2,2.9L82.1,3204z"/>
		<path class="st3" d="M96.3,3197.1c-2.4,0.4-5.3,0.4-7.3,0.4l-0.1-1c0.5,0,1,0,1.6,0v-4.2h-1.2v-0.9h6.6v0.9h-1.2v4
			c0.6,0,1.1-0.1,1.6-0.2L96.3,3197.1z M99.3,3200.8c0,1.5-1.6,2.3-4.2,2.3c-2.6,0-4.2-0.8-4.2-2.3c0-1.4,1.6-2.3,4.2-2.3
			C97.7,3198.6,99.3,3199.4,99.3,3200.8z M91.6,3196.6c0.6,0,1.3,0,1.9-0.1v-4.1h-1.9V3196.6z M98.1,3200.8c0-0.9-1.1-1.4-3-1.4
			s-3,0.5-3,1.4c0,0.9,1.1,1.4,3,1.4S98.1,3201.7,98.1,3200.8z M98.1,3196H96v-0.9h2.1v-1.3H96v-0.9h2.1v-2.2h1.2v7.7h-1.2V3196z"/>
		<path class="st3" d="M108,3191.9c0,3.6-1.6,6.8-5.7,8.8l-0.6-0.9c3.2-1.6,4.9-4,5.2-7h-4.6v-1H108z M113.3,3196.6h-2v6.5h-1.1
			v-12.6h1.1v5.1h2V3196.6z"/>
		<path class="st3" d="M114.3,3204c0.9-0.4,1.4-1.1,1.4-1.9c-0.1,0-0.1,0-0.2,0c-0.5,0-0.9-0.3-0.9-0.9c0-0.5,0.4-0.9,1-0.9
			c0.7,0,1.1,0.6,1.1,1.5c0,1.3-0.8,2.4-2,2.9L114.3,3204z"/>
		<path class="st3" d="M129,3197.5c-2.6,0.4-5.6,0.5-7.8,0.5l-0.1-0.9c0.8,0,1.7,0,2.7,0v-2.7h1.1v2.7c1.4-0.1,2.8-0.2,4.1-0.3
			L129,3197.5z M126.6,3195.8c0.3-1.4,0.3-2.5,0.3-3.3h-5.1v-0.9h6.2v0.7c0,0.8,0,2.1-0.3,3.7L126.6,3195.8z M124.1,3201.9h7.2v0.9
			h-8.3v-3.7h1.1V3201.9z M132.7,3194.6v1h-1.8v4.4h-1.1v-9.5h1.1v4.1H132.7z"/>
		<path class="st3" d="M135.7,3199.1c2.1,0,3.9-0.1,6.1-0.4l0.1,0.9c-2.3,0.4-4.2,0.5-6.3,0.5h-1v-4.8h4.6v-2.6h-4.7v-0.9h5.8v4.5
			h-4.6V3199.1z M144.1,3190.5v12.6H143v-12.6H144.1z"/>
		<path class="st3" d="M160.9,3196.5v1h-11.4v-1H160.9z M159.5,3200.8c0,1.5-1.6,2.3-4.3,2.3s-4.3-0.8-4.3-2.3
			c0-1.5,1.6-2.3,4.3-2.3S159.5,3199.4,159.5,3200.8z M159.6,3195.3H151v-4.3h8.5v0.9h-7.4v2.4h7.5V3195.3z M158.4,3200.8
			c0-0.9-1.2-1.4-3.1-1.4s-3.1,0.5-3.1,1.4c0,0.9,1.2,1.4,3.1,1.4C157.2,3202.2,158.4,3201.7,158.4,3200.8z"/>
		<path class="st3" d="M176.7,3196.9v0.9h-5v2.5h-1.2v-2.5h-5.2v-0.9H176.7z M166.6,3193.4c0-1.6,1.7-2.5,4.4-2.5s4.4,1,4.4,2.5
			s-1.7,2.5-4.4,2.5S166.6,3194.9,166.6,3193.4z M167.9,3201.9h7.5v1h-8.7v-3.7h1.1V3201.9z M167.8,3193.4c0,1,1.3,1.6,3.2,1.6
			c1.9,0,3.2-0.6,3.2-1.6c0-1-1.3-1.6-3.2-1.6C169.1,3191.8,167.8,3192.4,167.8,3193.4z"/>
		<path class="st3" d="M184,3196.2c-0.6,0.7-1.5,1.1-2.5,1.1c-1.9,0-3.2-1.2-3.2-3c0-1.8,1.4-3,3.2-3c1.1,0,2,0.4,2.5,1h3.2v-1.8
			h1.2v7.4h-1.2v-1.8H184z M181.5,3196.3c1.2,0,2.1-0.8,2.1-2c0-1.2-0.9-2-2.1-2c-1.2,0-2.1,0.8-2.1,2
			C179.3,3195.4,180.3,3196.3,181.5,3196.3z M188.4,3200.7c0,1.5-1.6,2.4-4.2,2.4c-2.6,0-4.2-0.9-4.2-2.4c0-1.5,1.6-2.4,4.2-2.4
			C186.8,3198.3,188.4,3199.2,188.4,3200.7z M187.3,3200.7c0-1-1.1-1.5-3.1-1.5c-1.9,0-3,0.6-3,1.5c0,0.9,1.1,1.5,3,1.5
			C186.2,3202.2,187.3,3201.6,187.3,3200.7z M184.5,3193.3c0.1,0.3,0.2,0.6,0.2,1c0,0.3-0.1,0.7-0.2,1h2.7v-2H184.5z"/>
		<path class="st3" d="M205.2,3200.5v1h-11.4v-1H205.2z M196.7,3192.7h-1.9v-0.9h9.3v0.9h-1.9v4.4h1.9v0.9h-9.3v-0.9h1.9V3192.7z
			 M201,3192.7h-3.1v4.4h3.1V3192.7z"/>
		<path class="st3" d="M217.9,3200.6v0.9h-11.4v-0.9h5.1v-2.4h-3.7v-3.9h7.5v-2h-7.5v-0.9h8.6v3.8h-7.4v2h7.7v0.9h-4v2.4H217.9z"/>
		<path class="st3" d="M223,3194.1c0,2,0.9,4.1,2.6,5.2l-0.7,0.9c-1.2-0.7-2-2.1-2.5-3.6c-0.4,1.7-1.4,3.1-2.6,3.9l-0.7-0.9
			c1.7-1,2.8-3.3,2.8-5.4v-2.4h1.1V3194.1z M226.3,3190.8h1.1v11.7h-1.1v-6.5h-2.1v-1h2.1V3190.8z M229.9,3190.5v12.6h-1.1v-12.6
			H229.9z"/>
		<path class="st3" d="M243.4,3200.5v1H232v-1H243.4z M242.3,3197.8c-1.9-0.4-3.9-1.8-4.7-3.6c-0.8,1.8-2.8,3.2-4.7,3.6l-0.5-1
			c2.2-0.4,4.6-2.3,4.6-4.5v-1h1.2v1c0,2.1,2.4,4,4.6,4.5L242.3,3197.8z"/>
		<path class="st3" d="M259.1,3197.2v0.9h-11.4v-0.9h5.1v-1.2h-3.6v-5.1h8.5v0.9h-7.3v1.2h7v0.9h-7v1.2h7.4v0.9H254v1.2H259.1z
			 M257.7,3201.1c0,1.3-1.6,2-4.3,2s-4.3-0.7-4.3-2c0-1.3,1.6-2,4.3-2S257.7,3199.8,257.7,3201.1z M256.6,3201.1
			c0-0.7-1.1-1.1-3.2-1.1c-2,0-3.2,0.4-3.2,1.1c0,0.8,1.1,1.1,3.2,1.1C255.4,3202.2,256.6,3201.8,256.6,3201.1z"/>
		<path class="st3" d="M267.9,3192.8h-7.4v-0.9h3.1v-1.4h1.1v1.4h3.1V3192.8z M264.2,3197.7c-1.8,0-3-0.9-3-2.2c0-1.3,1.2-2.2,3-2.2
			s3,0.9,3,2.2C267.2,3196.9,266,3197.7,264.2,3197.7z M264.2,3196.9c1.1,0,1.9-0.5,1.9-1.3c0-0.8-0.8-1.3-1.9-1.3s-1.9,0.5-1.9,1.3
			C262.3,3196.4,263.1,3196.9,264.2,3196.9z M269.1,3198.4h1.1v4.5h-7.9v-4.5h1.1v1.3h5.6V3198.4z M269.1,3200.6h-5.6v1.4h5.6
			V3200.6z M272.1,3194.7h-1.9v3.1h-1.1v-7.3h1.1v3.2h1.9V3194.7z"/>
		<path class="st3" d="M282.7,3196.5h-5.9v-5.1h5.9V3196.5z M283.1,3199.5c0,1.2,2,2.4,4.1,2.7l-0.4,0.9c-1.9-0.3-3.6-1.1-4.3-2.3
			c-0.8,1.2-2.5,2-4.4,2.3l-0.4-0.9c2.1-0.3,4.1-1.4,4.2-2.7h-3.7v-0.9h3.7v-1.2h1.2v1.2h3.7v0.9H283.1z M281.6,3192.3H278v3.3h3.6
			V3192.3z M286.5,3197.8h-1.1v-7.2h1.1V3197.8z"/>
		<path class="st3" d="M303.3,3200.6v0.9h-11.4v-0.9h3.2v-3H293v-0.9h1.9v-4.1H293v-0.9h9.3v0.9h-1.9v4.1h1.9v0.9h-2.1v3H303.3z
			 M296.1,3196.7h3.1v-4.1h-3.1V3196.7z M296.3,3200.6h2.7v-3h-2.7V3200.6z"/>
		<path class="st3" d="M316.1,3197v0.9h-5v2.5h-1.1v-2.5h-5.2v-0.9H316.1z M305.4,3195.2c2.2-0.3,4.3-1.5,4.3-3.1v0h-3.9v-0.9h9.3
			v0.9h-3.9v0c0,1.5,2,2.8,4.2,3.1l-0.4,0.9c-2-0.3-3.9-1.3-4.6-2.8c-0.7,1.5-2.5,2.5-4.6,2.8L305.4,3195.2z M307.3,3201.9h7.5v0.9
			h-8.7v-3.6h1.1V3201.9z"/>
		<path class="st3" d="M321.8,3199.7c1.1-0.1,2.3-0.1,3.4-0.3l0.1,0.9c-2.7,0.5-5.6,0.5-7.8,0.5l-0.2-1c1,0,2.2,0,3.4,0v-1.4
			c-1.4-0.2-2.4-1.1-2.4-2.3c0-1.4,1.2-2.3,3-2.3s3,0.9,3,2.3c0,1.2-1,2.1-2.4,2.3V3199.7z M325,3193h-7.5v-0.9h3.2v-1.5h1.1v1.5
			h3.2V3193z M321.3,3197.5c1.1,0,1.9-0.6,1.9-1.4c0-0.9-0.8-1.4-1.9-1.4c-1.1,0-1.9,0.6-1.9,1.4
			C319.4,3196.9,320.1,3197.5,321.3,3197.5z M329.1,3196.8h-2v6.3H326v-12.6h1.1v5.3h2V3196.8z"/>
	</g>
	<g class="st0">
		<path class="st3" d="M120.9,3220.9c0-1.1,0.8-1.9,1.8-1.9c0.9,0,1.8,0.8,1.8,1.9c0,1.1-0.8,1.9-1.8,1.9
			C121.7,3222.8,120.9,3222.1,120.9,3220.9z"/>
		<path class="st3" d="M138.2,3220.3c-1.4-0.5-2.4-1.5-3-2.8c-0.5,1.5-1.6,2.6-3.1,3.2l-0.6-0.9c1.9-0.7,3.1-2.4,3.1-4.3v-1.3h1.1
			v1.4c0,1.7,1.2,3.3,3,3.9L138.2,3220.3z M141.5,3223.8c0,1.5-1.6,2.3-4.1,2.3c-2.6,0-4.1-0.8-4.1-2.3c0-1.5,1.6-2.3,4.1-2.3
			C139.9,3221.5,141.5,3222.3,141.5,3223.8z M140.3,3223.8c0-0.9-1.1-1.4-3-1.4c-1.9,0-3,0.5-3,1.4c0,0.9,1.1,1.4,3,1.4
			C139.2,3225.2,140.3,3224.7,140.3,3223.8z M143.2,3216.8v1h-1.9v3.4h-1.1v-7.6h1.1v3.2H143.2z"/>
		<path class="st3" d="M148.8,3216.9c0,2.3,1.5,4.6,3.4,5.4l-0.7,0.9c-1.4-0.7-2.6-2.2-3.2-4c-0.6,1.9-1.8,3.5-3.2,4.2l-0.7-0.9
			c1.8-0.9,3.4-3.3,3.4-5.7v-2.3h1.1V3216.9z M154.6,3213.5v12.6h-1.1v-12.6H154.6z"/>
		<path class="st3" d="M171.4,3223.5v1h-11.4v-1h5.1v-3.1h-3.8v-5.9h8.7v5.9h-3.7v3.1H171.4z M162.5,3219.6h6.4v-4.1h-6.4V3219.6z"
			/>
		<path class="st3" d="M174.7,3221.9c1.9,0,3.8-0.2,5.9-0.6l0.1,1c-2.2,0.4-4.2,0.6-6.2,0.6h-1v-8.1h1.1V3221.9z M183.1,3213.5v12.6
			h-1.1v-12.6H183.1z"/>
		<path class="st3" d="M187.3,3222.2c2.3,0,3.7-0.1,5.4-0.4l0.1,0.9c-1.8,0.3-3.3,0.4-5.7,0.4h-1v-8.4h5.8v1h-4.7v2.6h4.1v0.9h-4.1
			V3222.2z M195.9,3213.5v12.6h-1.1v-6.9h-2.6v-1h2.6v-4.7H195.9z"/>
		<path class="st3" d="M206,3220.1c-2.1,0.3-3.8,0.4-6.1,0.4h-1v-3.6h4.5v-1.7h-4.6v-0.9h5.7v3.5h-4.6v1.8c2.2,0,3.9-0.1,5.9-0.4
			L206,3220.1z M208.7,3223.8c0,1.5-1.6,2.3-4.2,2.3c-2.6,0-4.2-0.8-4.2-2.3c0-1.4,1.6-2.3,4.2-2.3
			C207,3221.5,208.7,3222.4,208.7,3223.8z M207.5,3223.8c0-0.9-1.1-1.4-3.1-1.4c-1.9,0-3.1,0.5-3.1,1.4c0,0.9,1.1,1.4,3.1,1.4
			C206.4,3225.2,207.5,3224.7,207.5,3223.8z M208.6,3221.3h-1.1v-7.7h1.1V3221.3z"/>
		<path class="st3" d="M220.5,3219.5h-5.9v-5.1h5.9V3219.5z M220.9,3222.5c0,1.2,2,2.4,4.1,2.7l-0.4,0.9c-1.9-0.3-3.6-1.1-4.3-2.3
			c-0.8,1.2-2.5,2-4.4,2.3l-0.4-0.9c2.1-0.3,4.1-1.4,4.2-2.7h-3.7v-0.9h3.7v-1.2h1.2v1.2h3.7v0.9H220.9z M219.4,3215.3h-3.6v3.3h3.6
			V3215.3z M224.3,3220.8h-1.1v-7.2h1.1V3220.8z"/>
		<path class="st3" d="M237.6,3220.5c-2.6,0.4-5.6,0.5-7.8,0.5l-0.1-0.9c0.8,0,1.7,0,2.7,0v-2.7h1.1v2.7c1.4-0.1,2.8-0.2,4.1-0.3
			L237.6,3220.5z M235.2,3218.8c0.3-1.4,0.3-2.5,0.3-3.3h-5.1v-0.9h6.2v0.7c0,0.8,0,2.1-0.3,3.7L235.2,3218.8z M232.7,3224.9h7.2
			v0.9h-8.3v-3.7h1.1V3224.9z M241.3,3217.6v1h-1.8v4.4h-1.1v-9.5h1.1v4.1H241.3z"/>
		<path class="st3" d="M244.4,3222.1c2.1,0,3.9-0.1,6.1-0.4l0.1,0.9c-2.3,0.4-4.2,0.5-6.3,0.5h-1v-4.8h4.6v-2.6h-4.7v-0.9h5.8v4.5
			h-4.6V3222.1z M252.8,3213.5v12.6h-1.1v-12.6H252.8z"/>
	</g>
	<g id="그룹_4162" transform="translate(180 3117.973)">
		<path id="패스_1794" class="st6" d="M7,8.1l7-8.1H0L7,8.1z"/>
	</g>
	<g id="그룹_5898" transform="translate(37 -45.153)">
		<g class="st0">
			<path class="st4" d="M141.3,3193.3h-7v-1.1h2.8v-1.3h1.4v1.3h2.7V3193.3z M137.8,3198.4c-1.7,0-2.9-0.9-2.9-2.3s1.2-2.3,2.9-2.3
				c1.7,0,2.9,0.9,2.9,2.3S139.6,3198.4,137.8,3198.4z M137.8,3197.3c0.9,0,1.6-0.5,1.6-1.2s-0.6-1.2-1.6-1.2
				c-0.9,0-1.6,0.5-1.6,1.2S136.9,3197.3,137.8,3197.3z M143.3,3199h1.4v4.5h-8.3v-4.5h1.4v1.1h5.4V3199z M143.3,3201.2h-5.4v1.1
				h5.4V3201.2z M144.7,3191v7.5h-1.4v-1h-1.9v-1.2h1.9v-1.3h-1.9v-1.2h1.9v-2.8H144.7z"/>
			<path class="st4" d="M153.9,3198c-1.5,0.3-2.8,0.3-5.3,0.3h-0.9v-3.9h4v-1.5h-4.1v-1.2h5.5v3.8h-4v1.6c2.1,0,3.3-0.1,4.7-0.3
				L153.9,3198z M149,3199.4h8.6v4.3h-1.4v-3.1H149V3199.4z M157.6,3191v7.8h-1.4v-2.2h-2.3v-1.2h2.3v-1.5h-2.3v-1.2h2.3v-1.8H157.6
				z"/>
			<path class="st4" d="M164.4,3194.1c0,2.3,1.2,4.5,3.1,5.5l-0.9,1.1c-1.4-0.7-2.4-2.1-2.9-3.7c-0.5,1.8-1.6,3.2-3.1,4l-0.9-1.2
				c2-1,3.2-3.4,3.2-5.7v-2.1h1.4V3194.1z M171.8,3197.2h-2v6.4h-1.4V3191h1.4v5h2V3197.2z"/>
			<path class="st4" d="M187.5,3197.6v1.2H176v-1.2h5v-1h-3.5v-5.2h8.6v1.1h-7.2v1h6.9v1.1h-6.9v1h7.3v1.1h-3.7v1H187.5z
				 M186.1,3201.6c0,1.3-1.6,2.1-4.4,2.1c-2.7,0-4.4-0.7-4.4-2.1c0-1.3,1.6-2,4.4-2C184.5,3199.5,186.1,3200.2,186.1,3201.6z
				 M184.6,3201.6c0-0.6-1-1-2.9-1c-1.9,0-2.9,0.3-2.9,1c0,0.7,1,1,2.9,1C183.6,3202.6,184.6,3202.2,184.6,3201.6z"/>
			<path class="st4" d="M196.4,3193.4h-7.5v-1.2h3v-1.3h1.4v1.3h3V3193.4z M192.7,3198.3c-1.8,0-3.1-0.9-3.1-2.2
				c0-1.3,1.2-2.2,3.1-2.2c1.8,0,3.1,0.9,3.1,2.2C195.7,3197.4,194.5,3198.3,192.7,3198.3z M197.4,3198.9h1.4v4.6h-8.1v-4.6h1.4v1.2
				h5.2V3198.9z M192.7,3197.2c1,0,1.7-0.4,1.7-1.2c0-0.7-0.7-1.1-1.7-1.1s-1.7,0.4-1.7,1.1C191,3196.8,191.6,3197.2,192.7,3197.2z
				 M197.4,3201.2h-5.2v1.2h5.2V3201.2z M200.6,3195.3h-1.8v3h-1.4v-7.4h1.4v3.2h1.8V3195.3z"/>
			<path class="st4" d="M212.8,3198.1c-2.6,0.5-5.6,0.5-7.8,0.5l-0.2-1.2c0.8,0,1.6,0,2.5,0v-2.6h1.4v2.5c1.3-0.1,2.7-0.1,3.9-0.3
				L212.8,3198.1z M210.2,3196.3c0.3-1.4,0.3-2.4,0.3-3.1h-4.9v-1.2h6.4v0.7c0,0.9,0,2.1-0.3,3.7L210.2,3196.3z M208.2,3202.2h7.1
				v1.2h-8.6v-3.8h1.5V3202.2z M216.6,3195v1.2h-1.7v4.3h-1.5v-9.5h1.5v4H216.6z"/>
			<path class="st4" d="M220,3199.5c2,0,3.8-0.1,5.8-0.4l0.2,1.2c-2.2,0.4-4.1,0.4-6.3,0.4h-1.1v-5h4.4v-2.4h-4.4v-1.2h5.9v4.7H220
				V3199.5z M228.3,3191v12.7h-1.5V3191H228.3z"/>
		</g>
		<g class="st0">
			<path class="st5" d="M72,3201.2l1.2-1.4c0.7,0.7,1.7,1.1,2.6,1.1c1.1,0,1.7-0.5,1.7-1.2c0-0.8-0.6-1-1.6-1.4l-1.4-0.6
				c-1.1-0.4-2.1-1.3-2.1-2.8c0-1.7,1.5-3,3.6-3c1.2,0,2.4,0.5,3.2,1.3l-1.1,1.3c-0.7-0.5-1.3-0.9-2.2-0.9c-0.9,0-1.5,0.4-1.5,1.1
				c0,0.7,0.7,1,1.6,1.4l1.4,0.6c1.3,0.5,2.1,1.3,2.1,2.8c0,1.7-1.4,3.1-3.8,3.1C74.4,3202.8,73,3202.2,72,3201.2z"/>
			<path class="st5" d="M83.3,3193.9h-2.9v-1.7h7.9v1.7h-2.9v8.6h-2.1V3193.9z"/>
			<path class="st5" d="M90.1,3192.2h6.4v1.7h-4.3v2.4h3.6v1.7h-3.6v2.8h4.4v1.7h-6.5V3192.2z"/>
			<path class="st5" d="M98.9,3192.2h3.4c2.3,0,4.1,0.8,4.1,3.3c0,2.4-1.8,3.4-4,3.4h-1.4v3.7h-2.1V3192.2z M102.2,3197.2
				c1.4,0,2.1-0.6,2.1-1.8c0-1.2-0.8-1.6-2.2-1.6h-1.2v3.4H102.2z"/>
			<path class="st5" d="M111,3201.4c2.7-2.6,4.5-4.3,4.5-5.8c0-1-0.6-1.6-1.6-1.6c-0.8,0-1.4,0.5-1.9,1.1l-1.1-1.1
				c1-1,1.9-1.6,3.3-1.6c2,0,3.3,1.2,3.3,3.2c0,1.8-1.6,3.6-3.5,5.5c0.5-0.1,1.2-0.1,1.7-0.1h2.3v1.7H111V3201.4z"/>
		</g>
	</g>
	<g id="그룹_5487" transform="translate(180 3256.066)">
		<path id="패스_1794-2" class="st6" d="M7,8.1l7-8.1H0L7,8.1z"/>
	</g>
	<g id="그룹_5899" transform="translate(24 -69.06)">
		<g class="st0">
			<path class="st4" d="M141.3,3354.7h-7v-1.1h2.8v-1.3h1.4v1.3h2.7V3354.7z M137.8,3359.8c-1.7,0-2.9-0.9-2.9-2.3s1.2-2.3,2.9-2.3
				c1.7,0,2.9,0.9,2.9,2.3S139.6,3359.8,137.8,3359.8z M137.8,3358.7c0.9,0,1.6-0.5,1.6-1.2s-0.6-1.2-1.6-1.2
				c-0.9,0-1.6,0.5-1.6,1.2S136.9,3358.7,137.8,3358.7z M143.3,3360.4h1.4v4.5h-8.3v-4.5h1.4v1.1h5.4V3360.4z M143.3,3362.7h-5.4
				v1.1h5.4V3362.7z M144.7,3352.4v7.5h-1.4v-1h-1.9v-1.2h1.9v-1.3h-1.9v-1.2h1.9v-2.8H144.7z"/>
			<path class="st4" d="M153.9,3359.4c-1.5,0.3-2.8,0.3-5.3,0.3h-0.9v-3.9h4v-1.5h-4.1v-1.2h5.5v3.8h-4v1.6c2.1,0,3.3-0.1,4.7-0.3
				L153.9,3359.4z M149,3360.8h8.6v4.3h-1.4v-3.1H149V3360.8z M157.6,3352.4v7.8h-1.4v-2.2h-2.3v-1.2h2.3v-1.5h-2.3v-1.2h2.3v-1.8
				H157.6z"/>
			<path class="st4" d="M164.4,3355.5c0,2.3,1.2,4.5,3.1,5.5l-0.9,1.1c-1.4-0.7-2.4-2.1-2.9-3.7c-0.5,1.8-1.6,3.2-3.1,4l-0.9-1.2
				c2-1,3.2-3.4,3.2-5.7v-2.1h1.4V3355.5z M171.8,3358.6h-2v6.4h-1.4v-12.6h1.4v5h2V3358.6z"/>
			<path class="st4" d="M177.9,3360.8c1.5,0,2.6-0.1,3.9-0.3l0.1,1.2c-1.5,0.3-2.8,0.4-4.6,0.4h-0.8v-8.1h4.7v1.2h-3.3V3360.8z
				 M186.8,3352.4v12.6h-1.4v-6.5H184v5.9h-1.4v-11.8h1.4v4.7h1.5v-5H186.8z"/>
			<path class="st4" d="M200.3,3358.4v1.2h-11.4v-1.2H200.3z M199.1,3355.1c0,1.5-1.8,2.4-4.5,2.4c-2.8,0-4.5-0.9-4.5-2.4
				c0-1.5,1.8-2.5,4.5-2.5C197.4,3352.7,199.1,3353.6,199.1,3355.1z M199,3362.8c0,1.5-1.6,2.3-4.4,2.3c-2.7,0-4.4-0.8-4.4-2.3
				s1.6-2.3,4.4-2.3C197.3,3360.5,199,3361.3,199,3362.8z M191.6,3355.1c0,0.8,1.1,1.3,3,1.3c1.9,0,3-0.5,3-1.3c0-0.8-1.1-1.3-3-1.3
				C192.8,3353.8,191.6,3354.3,191.6,3355.1z M191.7,3362.8c0,0.8,1,1.2,2.9,1.2c1.8,0,2.9-0.4,2.9-1.2s-1.1-1.2-2.9-1.2
				C192.8,3361.6,191.7,3362,191.7,3362.8z"/>
			<path class="st4" d="M205.6,3356.3c0,2,0.9,4,2.6,4.9l-0.8,1.1c-1.2-0.6-2-1.8-2.5-3.2c-0.4,1.5-1.2,2.8-2.5,3.5l-0.8-1.1
				c1.7-1,2.6-3.2,2.6-5.2v-0.4H202v-1.2h2.2v-1.8h1.4v1.8h2.2v1.2h-2.2V3356.3z M208.7,3352.7h1.4v11.8h-1.4v-6H207v-1.2h1.7
				V3352.7z M212.6,3352.4v12.6h-1.4v-12.6H212.6z"/>
			<path class="st4" d="M221.6,3352.7h1.3v11.7h-1.3v-4.3h-2.1v-1.2h2.1v-2h-1.8c-0.6,2.1-1.9,4-4.3,5.4l-0.8-1
				c2.6-1.6,3.9-3.6,4.1-6.2h-3.5v-1.2h4.9c0,0.6,0,1.3-0.1,1.9h1.6V3352.7z M225.5,3352.4v12.6h-1.4v-12.6H225.5z"/>
			<path class="st4" d="M237.1,3353.3c0,3.3-2.2,5.7-5.9,6.7l-0.6-1.1c2.9-0.8,4.7-2.4,4.9-4.4h-4.3v-1.2H237.1z M240.7,3362.5
				c0,1.6-1.6,2.5-4.2,2.5c-2.5,0-4.2-1-4.2-2.5c0-1.6,1.7-2.5,4.2-2.5C239.1,3360,240.7,3361,240.7,3362.5z M239.3,3362.5
				c0-0.9-1.1-1.4-2.7-1.4c-1.7,0-2.7,0.5-2.7,1.4c0,0.9,1.1,1.4,2.7,1.4C238.2,3363.9,239.3,3363.4,239.3,3362.5z M242.4,3355.5
				v1.2h-1.8v3.1h-1.4v-7.4h1.4v3.1H242.4z"/>
			<path class="st4" d="M248.2,3361.5c1.1-0.1,2.2-0.1,3.2-0.3l0.1,1.1c-2.7,0.5-5.6,0.5-7.8,0.5l-0.2-1.2c1,0,2.1,0,3.3,0v-1.2
				c-1.4-0.2-2.3-1.1-2.3-2.3c0-1.4,1.2-2.4,3-2.4c1.8,0,3,0.9,3,2.4c0,1.2-0.9,2.1-2.3,2.3V3361.5z M251.2,3355h-7.5v-1.2h3.1v-1.4
				h1.4v1.4h3V3355z M247.4,3359.3c1,0,1.7-0.5,1.7-1.2c0-0.8-0.7-1.3-1.7-1.3c-1,0-1.7,0.5-1.7,1.3
				C245.8,3358.8,246.4,3359.3,247.4,3359.3z M255.3,3358.9h-1.8v6.2H252v-12.7h1.4v5.3h1.8V3358.9z"/>
		</g>
		<g class="st0">
			<path class="st5" d="M72,3362.7l1.2-1.4c0.7,0.7,1.7,1.1,2.6,1.1c1.1,0,1.7-0.5,1.7-1.2c0-0.8-0.6-1-1.6-1.4l-1.4-0.6
				c-1.1-0.4-2.1-1.3-2.1-2.8c0-1.7,1.5-3,3.6-3c1.2,0,2.4,0.5,3.2,1.3l-1.1,1.3c-0.7-0.5-1.3-0.9-2.2-0.9c-0.9,0-1.5,0.4-1.5,1.1
				c0,0.7,0.7,1,1.6,1.4l1.4,0.6c1.3,0.5,2.1,1.3,2.1,2.8c0,1.7-1.4,3.1-3.8,3.1C74.4,3364.2,73,3363.6,72,3362.7z"/>
			<path class="st5" d="M83.3,3355.3h-2.9v-1.7h7.9v1.7h-2.9v8.6h-2.1V3355.3z"/>
			<path class="st5" d="M90.1,3353.6h6.4v1.7h-4.3v2.4h3.6v1.7h-3.6v2.8h4.4v1.7h-6.5V3353.6z"/>
			<path class="st5" d="M98.9,3353.6h3.4c2.3,0,4.1,0.8,4.1,3.3c0,2.4-1.8,3.4-4,3.4h-1.4v3.7h-2.1V3353.6z M102.2,3358.6
				c1.4,0,2.1-0.6,2.1-1.8c0-1.2-0.8-1.6-2.2-1.6h-1.2v3.4H102.2z"/>
			<path class="st5" d="M110.7,3362.7l1-1.3c0.6,0.6,1.4,1.1,2.3,1.1c1.1,0,1.8-0.5,1.8-1.4c0-1-0.6-1.6-2.9-1.6v-1.5
				c1.9,0,2.5-0.6,2.5-1.5c0-0.8-0.5-1.2-1.4-1.2c-0.7,0-1.3,0.4-2,0.9l-1.1-1.3c0.9-0.8,1.9-1.3,3.1-1.3c2,0,3.4,1,3.4,2.7
				c0,1.1-0.6,1.8-1.7,2.3v0.1c1.2,0.3,2.1,1.2,2.1,2.5c0,1.8-1.7,2.9-3.6,2.9C112.6,3364.2,111.5,3363.5,110.7,3362.7z"/>
		</g>
	</g>
	<g class="st0">
		<path class="st3" d="M115,3336c0-1.1,0.8-1.9,1.8-1.9c0.9,0,1.8,0.8,1.8,1.9c0,1.1-0.8,1.9-1.8,1.9
			C115.8,3337.9,115,3337.2,115,3336z"/>
		<path class="st3" d="M130.2,3332c0,2.3,1.5,4.6,3.4,5.4l-0.7,0.9c-1.4-0.7-2.6-2.2-3.2-4c-0.6,1.9-1.8,3.5-3.2,4.2l-0.7-0.9
			c1.8-0.9,3.4-3.3,3.4-5.7v-2.3h1.1V3332z M136,3328.6v12.6h-1.1v-12.6H136z"/>
		<path class="st3" d="M145.2,3335.6c-1.4-0.5-2.5-1.5-3-2.7c-0.5,1.4-1.7,2.5-3.2,3.1l-0.6-0.9c1.9-0.7,3.2-2.3,3.2-4.1v-0.5h-2.8
			v-0.9h6.7v0.9h-2.8v0.5c0,1.6,1.2,3.1,3,3.7L145.2,3335.6z M148.4,3338.9c0,1.5-1.6,2.3-4.1,2.3c-2.6,0-4.1-0.9-4.1-2.3
			c0-1.5,1.6-2.3,4.1-2.3C146.8,3336.5,148.4,3337.4,148.4,3338.9z M147.2,3338.9c0-0.9-1.1-1.4-3-1.4c-1.9,0-3,0.5-3,1.4
			c0,0.9,1.1,1.4,3,1.4C146.1,3340.3,147.2,3339.8,147.2,3338.9z M150.1,3331.8v1h-1.9v3.4h-1.1v-7.6h1.1v3.2H150.1z"/>
		<path class="st3" d="M159.1,3336.5c-2.7,0.5-5.7,0.5-7.9,0.5l-0.1-0.9c1,0,2.1,0,3.3-0.1v-1c-1.4-0.1-2.4-0.8-2.4-1.9
			c0-1.2,1.2-1.9,2.9-1.9c1.8,0,2.9,0.7,2.9,1.9c0,1.1-0.9,1.8-2.4,1.9v0.9c1.1-0.1,2.3-0.2,3.4-0.3L159.1,3336.5z M158.7,3330.7
			h-7.2v-0.9h3v-1.3h1.1v1.3h3V3330.7z M154.2,3340h7.2v0.9H153v-3.1h1.1V3340z M155.1,3334.3c1.1,0,1.8-0.4,1.8-1.1
			c0-0.7-0.7-1.1-1.8-1.1c-1.1,0-1.8,0.4-1.8,1.1C153.2,3333.9,153.9,3334.3,155.1,3334.3z M162.8,3333v1h-1.8v4.5h-1.1v-9.8h1.1
			v4.4H162.8z"/>
		<path class="st3" d="M170,3331.9c-0.8,2-2.7,3.5-5.4,4.3l-0.5-0.9c3-0.9,4.9-2.6,5.1-4.7h-4.4v-0.9h5.7c0,0.5-0.1,0.9-0.1,1.4h2.8
			v-2.3h1.2v7.5h-1.2v-1.7h-3.3v-0.9h3.3v-1.7H170z M174.4,3338.7c0,1.5-1.6,2.4-4.2,2.4s-4.2-0.9-4.2-2.4c0-1.5,1.6-2.4,4.2-2.4
			S174.4,3337.2,174.4,3338.7z M173.2,3338.7c0-0.9-1.2-1.5-3-1.5s-3,0.6-3,1.5c0,1,1.2,1.5,3,1.5S173.2,3339.7,173.2,3338.7z"/>
		<path class="st3" d="M186,3335.8h-5.7v-6.3h1.1v2.2h3.4v-2.2h1.1v1.5h2.9v-2.3h1.2v9.3h-1.2v-3.3H186V3335.8z M184.8,3332.6h-3.4
			v2.3h3.4V3332.6z M190.3,3340v0.9H182v-3.9h1.1v3H190.3z M186,3331.9v1.8h2.9v-1.8H186z"/>
		<path class="st3" d="M196.8,3337.8c1.1-0.1,2.3-0.1,3.4-0.3l0.1,0.9c-2.7,0.5-5.6,0.5-7.8,0.5l-0.2-1c1,0,2.2,0,3.4,0v-1.4
			c-1.4-0.2-2.4-1.1-2.4-2.3c0-1.4,1.2-2.3,3-2.3s3,0.9,3,2.3c0,1.2-1,2.1-2.4,2.3V3337.8z M200,3331.1h-7.5v-0.9h3.2v-1.5h1.1v1.5
			h3.2V3331.1z M196.3,3335.6c1.1,0,1.9-0.6,1.9-1.4c0-0.9-0.8-1.4-1.9-1.4s-1.9,0.6-1.9,1.4C194.4,3335,195.1,3335.6,196.3,3335.6z
			 M204.1,3334.9h-2v6.3H201v-12.6h1.1v5.3h2V3334.9z"/>
		<path class="st3" d="M215,3335.6c-1.4-0.5-2.5-1.5-3-2.8c-0.5,1.5-1.7,2.6-3.2,3.2l-0.6-0.9c1.9-0.7,3.2-2.4,3.2-4.2v-0.4h-2.8
			v-0.9h6.7v0.9h-2.8v0.4c0,1.6,1.2,3.2,3.1,3.8L215,3335.6z M218.6,3338.9c0,1.5-1.6,2.3-4.2,2.3s-4.2-0.9-4.2-2.3s1.6-2.3,4.2-2.3
			S218.6,3337.4,218.6,3338.9z M217.4,3338.9c0-0.9-1.1-1.5-3-1.5s-3,0.5-3,1.5s1.1,1.4,3,1.4S217.4,3339.8,217.4,3338.9z
			 M217.4,3331.9v-3.2h1.2v7.5h-1.2v-3.3h-2.5v-0.9H217.4z"/>
		<path class="st3" d="M232.3,3338.6v0.9h-11.4v-0.9h5.1v-2.7h-3.8v-6.4h1.1v2.2h6.4v-2.2h1.1v6.4h-3.8v2.7H232.3z M223.4,3335h6.4
			v-2.3h-6.4V3335z"/>
		<path class="st3" d="M240.3,3332.2c0,2.2,0.9,4.4,2.7,5.4l-0.7,0.8c-1.2-0.7-2.1-2.1-2.5-3.7c-0.4,1.7-1.3,3.2-2.6,4l-0.7-0.9
			c1.8-1.1,2.7-3.3,2.7-5.6v-1.1h-2.4v-0.9h5.7v0.9h-2.2V3332.2z M243.7,3328.9h1.1v11.6h-1.1v-6.5h-2.1v-0.9h2.1V3328.9z
			 M247.3,3328.6v12.6h-1.1v-12.6H247.3z"/>
		<path class="st3" d="M260.7,3334.5v0.9h-11.3v-0.9h4.6v-2.4h1.1v2.4H260.7z M259.4,3338.9c0,1.4-1.7,2.3-4.4,2.3
			c-2.7,0-4.4-0.9-4.4-2.3c0-1.5,1.7-2.3,4.4-2.3C257.7,3336.6,259.4,3337.4,259.4,3338.9z M258.2,3330.2h-7.4v-0.9h8.6v1.1
			c0,1,0,2-0.4,3.3l-1.1-0.1c0.3-1.3,0.3-2.2,0.3-3.2V3330.2z M258.2,3338.9c0-0.9-1.3-1.4-3.2-1.4c-2,0-3.2,0.5-3.2,1.4
			c0,0.9,1.3,1.4,3.2,1.4C257,3340.3,258.2,3339.8,258.2,3338.9z"/>
	</g>
	<g class="st0">
		<path class="st3" d="M108.6,3359c0-1.1,0.8-1.9,1.8-1.9c0.9,0,1.8,0.8,1.8,1.9c0,1.1-0.8,1.9-1.8,1.9
			C109.5,3360.9,108.6,3360.2,108.6,3359z"/>
		<path class="st3" d="M121.2,3360.2c2.1,0,3.9-0.1,6.1-0.4l0.1,0.9c-2.3,0.4-4.2,0.5-6.3,0.5h-1v-4.8h4.6v-2.6H120v-0.9h5.8v4.5
			h-4.6V3360.2z M129.7,3351.6v12.6h-1.1v-12.6H129.7z"/>
		<path class="st3" d="M143.5,3361.6v1h-11.4v-1H143.5z M142.4,3358.9c-1.9-0.4-3.9-1.8-4.7-3.6c-0.8,1.8-2.8,3.2-4.7,3.6l-0.5-1
			c2.2-0.4,4.6-2.3,4.6-4.5v-1h1.2v1c0,2.1,2.4,4,4.6,4.5L142.4,3358.9z"/>
		<path class="st3" d="M156.2,3361.5v0.9h-11.4v-0.9H156.2z M153.7,3356.4c0-0.7,0-1.3,0-1.9v-0.6h-7.5v-0.9h8.6v1.5
			c0,1.9,0,3.6-0.5,6.1l-1.1-0.1c0.3-1.2,0.4-2.2,0.5-3.2l-7.6,0.4l-0.2-1L153.7,3356.4z"/>
		<path class="st3" d="M162.2,3360.1c1.7,0,2.9-0.1,4.2-0.4l0.1,1c-1.5,0.3-2.8,0.4-4.7,0.4H161v-7.9h4.7v0.9h-3.5V3360.1z
			 M171.2,3351.6v12.6h-1.1v-6.6h-1.8v6h-1.1v-11.7h1.1v4.8h1.8v-5H171.2z"/>
		<path class="st3" d="M184.7,3357.7v0.9h-11.3v-0.9H184.7z M183.4,3354.3c0,1.5-1.7,2.4-4.4,2.4c-2.7,0-4.4-0.9-4.4-2.4
			c0-1.5,1.7-2.4,4.4-2.4C181.7,3352,183.4,3352.8,183.4,3354.3z M183.3,3362c0,1.4-1.6,2.2-4.3,2.2c-2.7,0-4.3-0.8-4.3-2.2
			c0-1.4,1.6-2.2,4.3-2.2C181.7,3359.7,183.3,3360.5,183.3,3362z M175.8,3354.3c0,0.9,1.2,1.5,3.2,1.5c2,0,3.2-0.6,3.2-1.5
			c0-0.9-1.2-1.5-3.2-1.5C177,3352.8,175.8,3353.4,175.8,3354.3z M175.9,3362c0,0.9,1.2,1.3,3.1,1.3s3.1-0.5,3.1-1.3
			c0-0.9-1.2-1.4-3.1-1.4S175.9,3361.1,175.9,3362z"/>
		<path class="st3" d="M189.7,3355.5c0,2,1,4.1,2.7,5l-0.7,0.9c-1.2-0.7-2.1-2-2.6-3.5c-0.4,1.6-1.3,3-2.5,3.7l-0.7-0.9
			c1.7-1,2.7-3.2,2.7-5.3v-0.6h-2.3v-1h2.3v-1.9h1.1v1.9h2.3v1h-2.3V3355.5z M193.1,3351.9h1.1v11.6h-1.1v-6h-1.9v-1h1.9V3351.9z
			 M196.7,3351.6v12.6h-1.1v-12.6H196.7z"/>
		<path class="st3" d="M205.9,3352h1.1v11.6h-1.1v-4.3h-2.3v-0.9h2.3v-2.2h-2.1c-0.6,2.1-1.9,4-4.3,5.4l-0.7-0.8
			c2.7-1.6,4-3.9,4.2-6.5h-3.7v-0.9h4.8c0,0.6-0.1,1.3-0.2,1.9h1.9V3352z M209.5,3351.6v12.6h-1.1v-12.6H209.5z"/>
		<path class="st3" d="M225.9,3359.7h-5.1v4.6h-1.1v-4.6h-5.1v-1h11.3L225.9,3359.7z M224.9,3357.3c-1.9-0.3-3.8-1.4-4.7-2.9
			c-0.8,1.5-2.7,2.6-4.6,2.9l-0.5-0.9c2.3-0.3,4.5-1.8,4.5-3.6v-0.7h1.2v0.7c0,1.8,2.2,3.3,4.5,3.6L224.9,3357.3z"/>
		<path class="st3" d="M235,3357.9c-2.1,0.3-3.8,0.4-6.1,0.4h-1v-3.5h4.5v-1.6h-4.6v-0.9h5.7v3.4h-4.6v1.7c2.2,0,3.9-0.1,5.9-0.4
			L235,3357.9z M236.4,3359.2h1.1v4.9h-8.1v-4.9h1.1v1.5h5.9V3359.2z M236.4,3361.5h-5.9v1.5h5.9V3361.5z M237.6,3351.6v6.9h-1.1
			v-6.9H237.6z"/>
		<path class="st3" d="M247.5,3355.5c0,2.1,1.5,4.3,3.4,5.1l-0.6,0.9c-1.5-0.7-2.7-2.1-3.3-3.8c-0.6,1.8-1.8,3.4-3.2,4.1l-0.7-0.9
			c1.8-0.9,3.3-3.2,3.3-5.4v-1.6h-2.9v-1h7v1h-3V3355.5z M253.3,3351.6v12.6h-1.1v-12.6H253.3z"/>
		<path class="st3" d="M259.3,3358.3c-1.2,0.1-2.5,0.1-3.5,0.1l-0.2-1c2.3,0,5.4,0,8.1-0.4l0.1,0.8c-1.1,0.2-2.3,0.3-3.4,0.4v2.5
			h-1.1V3358.3z M256.7,3354.3c0-1.3,1.3-2.2,3.1-2.2s3.1,0.9,3.1,2.2c0,1.3-1.3,2.2-3.1,2.2S256.7,3355.7,256.7,3354.3z
			 M266.4,3363v0.9h-8.9v-3.7h1.1v2.7H266.4z M257.8,3354.3c0,0.8,0.8,1.3,2,1.3c1.2,0,2-0.5,2-1.3c0-0.8-0.8-1.3-2-1.3
			C258.6,3353,257.8,3353.5,257.8,3354.3z M264.9,3359.1v-7.4h1.1v9.6h-1.1v-1.3h-2.5v-0.9H264.9z"/>
	</g>
</g>
</svg>
