<?xml version="1.0" encoding="utf-8"?>
<!-- Generator: Adobe Illustrator 25.1.0, SVG Export Plug-In . SVG Version: 6.00 Build 0)  -->
<svg version="1.1" id="레이어_1" xmlns="http://www.w3.org/2000/svg" xmlns:xlink="http://www.w3.org/1999/xlink" x="0px"
	 y="0px" viewBox="0 0 336.9 480" style="enable-background:new 0 0 336.9 480;" xml:space="preserve">
<style type="text/css">
	.st0{enable-background:new    ;}
	.st1{fill:#E37E28;}
	.st2{fill:none;stroke:#D6D6D6;}
	.st3{fill:none;stroke:#707070;}
	.st4{fill:none;stroke:#CBCBCB;}
	.st5{fill:#555555;}
</style>
<g id="그룹_5900" transform="translate(-20 -1647.611)">
	<g class="st0">
		<path class="st1" d="M20.6,1662.4c2.7-2.6,4.5-4.3,4.5-5.8c0-1-0.6-1.6-1.6-1.6c-0.8,0-1.4,0.5-1.9,1.1l-1.1-1.1
			c1-1,1.9-1.6,3.3-1.6c2,0,3.3,1.2,3.3,3.2c0,1.8-1.6,3.6-3.5,5.5c0.5-0.1,1.2-0.1,1.7-0.1h2.3v1.7h-6.9V1662.4z"/>
		<path class="st1" d="M28.9,1658.5c0-3.4,1.4-5.2,3.5-5.2c2.1,0,3.5,1.8,3.5,5.2c0,3.4-1.4,5.3-3.5,5.3
			C30.2,1663.8,28.9,1661.9,28.9,1658.5z M33.9,1658.5c0-2.8-0.7-3.6-1.6-3.6s-1.6,0.8-1.6,3.6c0,2.8,0.7,3.7,1.6,3.7
			S33.9,1661.3,33.9,1658.5z"/>
		<path class="st1" d="M37.1,1662.4c2.7-2.6,4.5-4.3,4.5-5.8c0-1-0.6-1.6-1.6-1.6c-0.8,0-1.4,0.5-1.9,1.1l-1.1-1.1
			c1-1,1.9-1.6,3.3-1.6c2,0,3.3,1.2,3.3,3.2c0,1.8-1.6,3.6-3.5,5.5c0.5-0.1,1.2-0.1,1.7-0.1H44v1.7h-6.9V1662.4z"/>
		<path class="st1" d="M45.4,1658.5c0-3.4,1.4-5.2,3.5-5.2c2.1,0,3.5,1.8,3.5,5.2c0,3.4-1.4,5.3-3.5,5.3
			C46.7,1663.8,45.4,1661.9,45.4,1658.5z M50.4,1658.5c0-2.8-0.7-3.6-1.6-3.6s-1.6,0.8-1.6,3.6c0,2.8,0.7,3.7,1.6,3.7
			S50.4,1661.3,50.4,1658.5z"/>
		<path class="st1" d="M68.4,1658v1.5H56.8v-1.5h4.9v-1.1h-3.5v-4.5H67v1.5h-7v1.5h7.1v1.5h-3.6v1.1H68.4z M67,1662.5
			c0,1.5-1.7,2.4-4.5,2.4s-4.5-0.9-4.5-2.4c0-1.5,1.7-2.4,4.5-2.4S67,1660.9,67,1662.5z M65.2,1662.5c0-0.7-0.9-1-2.6-1
			c-1.7,0-2.6,0.3-2.6,1c0,0.7,0.9,1,2.6,1C64.3,1663.4,65.2,1663.1,65.2,1662.5z"/>
		<path class="st1" d="M76.2,1659.4H70v-6.6h1.8v1.8h2.5v-1.8h1.8V1659.4z M73.3,1663.1h6.9v1.5h-8.8v-4.1h1.8V1663.1z M74.4,1656.1
			h-2.5v1.8h2.5V1656.1z M81.5,1655.6v1.5h-1.7v4.3h-1.8v-9.5h1.8v3.6H81.5z"/>
		<path class="st1" d="M89.3,1659.1c-1.4-0.5-2.3-1.3-2.8-2.5c-0.6,1.3-1.6,2.4-3.1,2.9l-1-1.5c2.2-0.7,3.1-2.5,3.1-4.2v-1.1h1.9
			v1.1c0,1.7,0.8,3.3,2.9,4L89.3,1659.1z M93.4,1662.3c0,1.6-1.7,2.5-4.4,2.5c-2.7,0-4.4-0.9-4.4-2.5c0-1.6,1.7-2.5,4.4-2.5
			C91.7,1659.8,93.4,1660.7,93.4,1662.3z M91.5,1662.3c0-0.7-0.9-1.1-2.6-1.1c-1.7,0-2.6,0.3-2.6,1.1c0,0.7,0.9,1.1,2.6,1.1
			C90.6,1663.4,91.5,1663.1,91.5,1662.3z M91.5,1655.8h-2.4v-1.5h2.4v-2.4h1.8v7.6h-1.8V1655.8z"/>
		<path class="st1" d="M102.2,1659.2c-1.4-0.4-2.4-1.3-3-2.3c-0.6,1.3-1.6,2.3-3.1,2.8l-0.9-1.4c2.1-0.7,3-2.3,3-4h-2.6v-1.5h7v1.5
			h-2.5c0,1.5,0.9,2.9,2.9,3.5L102.2,1659.2z M105.7,1662.3c0,1.6-1.7,2.5-4.4,2.5c-2.7,0-4.4-0.9-4.4-2.5c0-1.6,1.7-2.5,4.4-2.5
			C104,1659.8,105.7,1660.7,105.7,1662.3z M103.9,1662.3c0-0.7-0.9-1.1-2.5-1.1c-1.7,0-2.5,0.3-2.5,1.1c0,0.7,0.9,1.1,2.5,1.1
			C103,1663.4,103.9,1663.1,103.9,1662.3z M107.3,1654.9v1.5h-1.7v3.2h-1.8v-7.7h1.8v3H107.3z"/>
		<path class="st1" d="M123.1,1661.8v1.5h-11.7v-1.5H123.1z M114.1,1654.5h-1.8v-1.5h9.8v1.5h-1.8v3.9h1.7v1.5h-9.7v-1.5h1.7V1654.5
			z M118.6,1654.5H116v3.9h2.6V1654.5z"/>
		<path class="st1" d="M136,1661.9v1.5h-11.7v-1.5h4.9v-1.9h-3.6v-4.4h7.2v-1.4h-7.2v-1.5h9v4.3h-7.2v1.4h7.5v1.5h-3.9v1.9H136z"/>
		<path class="st1" d="M148.9,1661.6v1.5h-11.7v-1.5H148.9z M145.6,1654.6h-7.2v-1.5h9v1.5c0,1.8,0,3.6-0.5,6.2l-1.8-0.2
			C145.6,1658.2,145.6,1656.4,145.6,1654.6L145.6,1654.6z"/>
		<path class="st1" d="M156.1,1658.8c-1.5,0.3-2.7,0.3-4.6,0.3h-0.9v-3.9h3.1v-1.1h-3.1v-1.4h4.9v3.8h-3.1v1.1
			c1.4,0,2.4-0.1,3.6-0.3L156.1,1658.8z M152.4,1660.1h8.7v4.6h-8.7V1660.1z M154.2,1663.2h5.1v-1.7h-5.1V1663.2z M161.1,1651.9v7.6
			h-1.8v-3.1h-1v3h-1.7v-7.3h1.7v2.8h1v-3H161.1z"/>
	</g>
	<g id="그룹_5896">
		<line id="선_401" class="st2" x1="184" y1="1678" x2="184" y2="2126.7"/>
		<path id="패스_5579" class="st2" d="M81.3,1678.5v448.7"/>
		<path id="패스_1677" class="st3" d="M20,1678h335"/>
		<path id="패스_1682" class="st3" d="M20,2127.2h335"/>
		<path id="패스_1678" class="st4" d="M20,1712.6h335"/>
		<path id="패스_1679" class="st4" d="M20,1789.6h335"/>
		<path id="패스_3433" class="st4" d="M85.3,1931.1H355"/>
		<path id="패스_1680" class="st4" d="M20,1851.6h335"/>
		<path id="패스_3435" class="st4" d="M85.3,1989.6H355"/>
		<path id="패스_1681" class="st4" d="M20,2048.6h335"/>
		<g class="st0">
			<path d="M132.4,1694.8v1h-4.2v1.9H127v-1.9h-4.4v-1H132.4z M125,1698.8h6.3v1h-7.5v-3h1.2V1698.8z M131.1,1693.9h-7.3v-4.4h1.2
				v1.2h4.8v-1.2h1.2v4.4H131.1z M129.9,1691.7h-4.8v1.2h4.8V1691.7z"/>
			<path d="M139.3,1693.7c0,2.4-1.2,3.8-2.8,3.8s-2.8-1.5-2.8-3.8s1.2-3.8,2.8-3.8S139.3,1691.4,139.3,1693.7z M138.1,1693.7
				c0-1.7-0.7-2.7-1.6-2.7c-0.9,0-1.6,1-1.6,2.7s0.6,2.7,1.6,2.7C137.4,1696.5,138.1,1695.4,138.1,1693.7z M142,1692.8v2.2h1.6v1
				H142v4h-1.2v-10.8h1.2v2.6h1.6v1L142,1692.8L142,1692.8z"/>
		</g>
		<g class="st0">
			<path d="M50.4,1695.4h-4.3v4.5h-1.2v-4.5h-4.2v-1h7c0.3-1.5,0.3-2.6,0.3-3.6h-6.2v-1h7.4v0.9c0,1,0,2.1-0.3,3.7h1.5V1695.4z"/>
			<path d="M61.4,1694.8v1h-4.2v1.9H56v-1.9h-4.4v-1H61.4z M54,1698.8h6.3v1h-7.5v-3H54V1698.8z M60.1,1693.9h-7.3v-4.4H54v1.2h4.8
				v-1.2H60L60.1,1693.9L60.1,1693.9z M58.9,1691.7h-4.8v1.2h4.8V1691.7z"/>
		</g>
		<g class="st0">
			<path d="M261.7,1696.2c1,0,2-0.1,3.2-0.3l0.1,1.1c-1.5,0.3-2.7,0.3-3.8,0.3h-0.7v-6.8h1.2L261.7,1696.2L261.7,1696.2z
				 M269.2,1689.1v10.8H268v-5.5h-1.3v5h-1.2v-10.1h1.2v4.1h1.3v-4.3H269.2z"/>
			<path d="M280.8,1694.4v1H271v-1h2.3v-1.4c-0.8-0.3-1.3-0.9-1.3-1.6c0-1.3,1.5-2,3.9-2s3.9,0.8,3.9,2c0,0.7-0.5,1.3-1.3,1.6v1.4
				H280.8z M279.6,1698c0,1.2-1.4,1.9-3.7,1.9c-2.3,0-3.7-0.7-3.7-1.9c0-1.2,1.4-1.9,3.7-1.9S279.6,1696.8,279.6,1698z
				 M273.3,1691.4c0,0.7,1,1.1,2.6,1.1s2.6-0.4,2.6-1.1s-1-1.1-2.6-1.1S273.3,1690.7,273.3,1691.4z M278.3,1698c0-0.6-0.9-1-2.5-1
				s-2.5,0.3-2.5,1s0.9,1,2.5,1S278.3,1698.7,278.3,1698z M274.5,1694.4h2.7v-1.1c-0.4,0.1-0.8,0.1-1.3,0.1s-0.9,0-1.3-0.1v1.1
				H274.5z"/>
		</g>
		<g class="st0">
			<path d="M46.3,1737.8c0,3.2-1.3,6-5,7.8l-0.7-1c2.8-1.4,4.2-3.3,4.4-5.8h-3.9v-1H46.3z M49.5,1736.7v10.8h-1.2v-10.8H49.5z"/>
			<path d="M57.1,1742.1v0.9h3.1v2.6H54v0.9h6.5v0.9h-7.7v-2.7H59v-0.8h-6.2v-0.9h3.1v-0.9h-4.3v-1h9.8v1H57.1z M60.5,1740.5
				c-1.8-0.2-3.3-1-4-2c-0.7,1.1-2.2,1.8-4,2l-0.4-0.9c2.2-0.2,3.8-1.3,3.8-2.5v-0.3h1.3v0.3c0,1.2,1.6,2.3,3.8,2.5L60.5,1740.5z"/>
		</g>
		<g class="st0">
			<path d="M46.6,1754.7h-6v-1H43v-1.1h1.2v1.1h2.3L46.6,1754.7L46.6,1754.7z M43.6,1759c-1.5,0-2.5-0.8-2.5-2s1-2,2.5-2
				s2.5,0.8,2.5,2C46.1,1758.3,45.1,1759,43.6,1759z M43.6,1758.1c0.8,0,1.3-0.4,1.3-1s-0.5-1-1.3-1s-1.3,0.4-1.3,1
				S42.8,1758.1,43.6,1758.1z M48.3,1759.6h1.2v3.8h-7.1v-3.8h1.2v1h4.7C48.3,1760.6,48.3,1759.6,48.3,1759.6z M48.3,1761.5h-4.7
				v0.9h4.7V1761.5z M49.5,1752.7v6.4h-1.2v-0.9h-1.7v-1h1.7v-1.1h-1.6v-1h1.6v-2.4H49.5z"/>
			<path d="M57.4,1758.7c-1.3,0.2-2.4,0.3-4.5,0.3H52v-3.4h3.5v-1.3H52v-1h4.7v3.2h-3.5v1.4c1.8,0,2.8,0,4-0.3L57.4,1758.7z
				 M53.2,1759.9h7.3v3.6h-1.2v-2.6h-6.1V1759.9z M60.6,1752.7v6.7h-1.2v-1.8h-1.9v-1h1.9v-1.3h-1.9v-1h1.9v-1.6L60.6,1752.7
				L60.6,1752.7z"/>
		</g>
		<g class="st0">
			<path class="st5" d="M99.7,1738.6h-6v-0.8h2.6v-1.2h1v1.2h2.5L99.7,1738.6L99.7,1738.6z M96.7,1743c-1.4,0-2.4-0.8-2.4-1.9
				c0-1.2,1-1.9,2.4-1.9s2.4,0.8,2.4,1.9C99.2,1742.2,98.1,1743,96.7,1743z M96.7,1742.3c0.9,0,1.5-0.5,1.5-1.2s-0.6-1.2-1.5-1.2
				s-1.5,0.5-1.5,1.2S95.8,1742.3,96.7,1742.3z M101.5,1743.6h1v3.8h-7v-3.8h1v1.1h5V1743.6z M101.5,1745.4h-5v1.1h5V1745.4z
				 M102.5,1736.8v6.3h-1v-0.9h-1.8v-0.8h1.8v-1.3h-1.8v-0.8h1.8v-2.5L102.5,1736.8L102.5,1736.8z"/>
			<path class="st5" d="M110.5,1742.6c-1.3,0.2-2.4,0.3-4.6,0.3h-0.8v-3.2h3.6v-1.5H105v-0.8h4.6v3H106v1.6c2,0,3,0,4.3-0.3
				L110.5,1742.6z M106.3,1743.9h7.2v3.6h-1v-2.8h-6.2V1743.9z M113.5,1736.8v6.6h-1v-2h-2.1v-0.8h2.1v-1.4h-2.1v-0.8h2.1v-1.6
				L113.5,1736.8L113.5,1736.8z"/>
			<path class="st5" d="M119.3,1739.6c0,1.9,1.2,3.8,2.7,4.6l-0.6,0.8c-1.1-0.6-2.1-1.9-2.6-3.3c-0.5,1.6-1.5,2.9-2.7,3.6l-0.6-0.8
				c1.5-0.8,2.8-2.9,2.8-4.8v-1.9h1C119.3,1737.8,119.3,1739.6,119.3,1739.6z M125.8,1741.9H124v5.6h-1v-10.7h1v4.4h1.8V1741.9z"/>
			<path class="st5" d="M132.5,1742.8c-1.6,0-2.8-1.1-2.8-2.7c0-1.5,1.2-2.6,2.8-2.6s2.8,1.1,2.8,2.6
				C135.3,1741.7,134.1,1742.8,132.5,1742.8z M132.5,1741.9c1.1,0,1.9-0.7,1.9-1.8c0-1-0.8-1.8-1.9-1.8c-1,0-1.8,0.7-1.8,1.8
				C130.7,1741.2,131.5,1741.9,132.5,1741.9z M138.6,1746.5v0.8h-7.2v-3.5h1v2.7H138.6z M138.3,1744.6h-1v-7.9h1V1744.6z"/>
			<path class="st5" d="M146.3,1742.6c-1.3,0.2-2.4,0.3-4.6,0.3h-0.8v-3.2h3.6v-1.5h-3.7v-0.8h4.6v3h-3.6v1.6c2,0,3,0,4.3-0.3
				L146.3,1742.6z M142.1,1743.9h7.2v3.6h-1v-2.8h-6.2V1743.9z M149.4,1736.8v6.6h-1v-2h-2.1v-0.8h2.1v-1.4h-2.1v-0.8h2.1v-1.6
				L149.4,1736.8L149.4,1736.8z"/>
			<path class="st5" d="M156.1,1738.1c0,2.8-1,5.3-4,7.1l-0.6-0.7c2.5-1.4,3.5-3.3,3.6-5.6h-3.2v-0.8H156.1z M160.7,1736.7v10.8
				h-0.9v-5.6h-1.5v5.1h-0.9v-9.9h0.9v4h1.5v-4.3L160.7,1736.7L160.7,1736.7z"/>
			<path class="st5" d="M168,1741.9h-5v-4.7h1v1.5h3v-1.5h1V1741.9z M167,1739.5h-3v1.6h3V1739.5z M165.1,1746.6h6.2v0.8h-7.2v-2.7
				h5.8v-1.1H164v-0.8h6.8v2.6H165L165.1,1746.6L165.1,1746.6z M172.5,1739.1v0.8h-1.6v2.4h-1v-5.6h1v2.3L172.5,1739.1L172.5,1739.1
				z"/>
		</g>
		<g class="st0">
			<path class="st5" d="M108.9,1759.8h-5v-4.4h5V1759.8z M109.3,1762.4c0,1,1.7,2.1,3.5,2.3l-0.3,0.8c-1.6-0.2-3.1-1-3.7-2
				c-0.6,1-2.1,1.7-3.8,2l-0.3-0.8c1.8-0.2,3.5-1.2,3.6-2.3h-3.1v-0.8h3.2v-1h1v1h3.2v0.8H109.3z M108,1756.2h-3.1v2.8h3.1V1756.2z
				 M112.2,1760.9h-1v-6.2h1V1760.9z"/>
			<path class="st5" d="M126.8,1763.2v0.8h-9.7v-0.8h2.4v-3.6h1v3.6h1.7v-3.6h1v3.6H126.8z M124.7,1756.6h-6.6v-0.8h7.6v1.2
				c0,1.4,0,2.8-0.4,4.8l-1-0.1c0.4-1.9,0.4-3.3,0.4-4.7V1756.6z"/>
			<path class="st5" d="M137.9,1761.9h-2.5v3.6h-1v-3.6h-2.7v3.6h-1v-3.6h-2.5v-0.8h9.8v0.8H137.9z M135.7,1756h-6.4v-0.8h7.4v2.8
				h-6.4v1.3h6.6v0.8h-7.6v-2.9h6.4V1756z"/>
			<path class="st5" d="M145.7,1758c0,1.8,1.3,3.7,2.9,4.4l-0.6,0.8c-1.2-0.6-2.3-1.8-2.8-3.3c-0.5,1.6-1.5,2.9-2.8,3.5l-0.6-0.8
				c1.5-0.7,2.9-2.8,2.9-4.6v-1.4h-2.5v-0.8h6v0.8h-2.5L145.7,1758L145.7,1758z M150.6,1754.8v10.7h-1v-10.7H150.6z"/>
			<path class="st5" d="M155.9,1760.5c-1.1,0-2.1,0.1-3,0.1l-0.1-0.8c2,0,4.7,0,6.9-0.3l0.1,0.7c-0.9,0.1-1.9,0.3-2.9,0.3v2.1h-1
				V1760.5z M153.7,1757c0-1.1,1.1-1.9,2.7-1.9c1.6,0,2.7,0.7,2.7,1.9c0,1.2-1.1,1.9-2.7,1.9C154.7,1758.9,153.7,1758.2,153.7,1757z
				 M162,1764.5v0.8h-7.6v-3.1h1v2.3L162,1764.5L162,1764.5z M154.6,1757c0,0.7,0.7,1.2,1.7,1.2s1.7-0.5,1.7-1.2s-0.7-1.1-1.7-1.1
				S154.6,1756.4,154.6,1757z M160.7,1761.1v-6.4h1v8.2h-1v-1.1h-2.2v-0.7H160.7z"/>
		</g>
		<g class="st0">
			<path class="st5" d="M115.7,1882.8v2h3.2v3.6h-1v-2.8h-6.5v-0.8h3.3v-2h-4.4v-0.8h7.2c0.3-1.3,0.3-2.2,0.3-3h-6.3v-0.8h7.3v0.8
				c0,0.8,0,1.8-0.3,3.1h1.5v0.8L115.7,1882.8L115.7,1882.8z"/>
			<path class="st5" d="M122.9,1884.8c1,0,2.2-0.1,3.5-0.3l0.1,0.9c-1.5,0.3-2.7,0.3-3.8,0.3H122v-6.7h1L122.9,1884.8L122.9,1884.8z
				 M130.5,1877.7v10.7h-0.9v-5.6H128v5h-0.9v-10h0.9v4.1h1.5v-4.4h1V1877.7z"/>
			<path class="st5" d="M141.7,1883.6c-2.1,0.3-4.7,0.4-6.5,0.4l-0.1-0.8c0.4,0,0.9,0,1.4,0v-3.7h-1.1v-0.8h5.7v0.8H140v3.5
				c0.5,0,1.1-0.1,1.6-0.1L141.7,1883.6z M137.7,1887.4h6.2v0.8h-7.2v-3.3h1V1887.4z M137.4,1883.2c0.6,0,1.1,0,1.7-0.1v-3.6h-1.7
				V1883.2z M145,1881v0.8h-1.6v3.8h-1v-7.9h1v3.3L145,1881L145,1881z"/>
			<path class="st5" d="M155.9,1886.3v0.8h-9.8v-0.8h4.4v-2h-3.2v-3.3h6.4v-1.7h-6.4v-0.8h7.4v3.3h-6.4v1.7h6.6v0.8h-3.4v2H155.9z"
				/>
		</g>
		<g class="st0">
			<path class="st5" d="M126.5,1899c0,1.8,1.3,3.7,2.9,4.4l-0.6,0.8c-1.2-0.6-2.3-1.8-2.8-3.3c-0.5,1.6-1.5,2.9-2.8,3.5l-0.6-0.8
				c1.5-0.7,2.9-2.8,2.9-4.6v-1.4H123v-0.8h6v0.8h-2.5L126.5,1899L126.5,1899z M131.5,1895.7v10.7h-1v-10.7H131.5z"/>
			<path class="st5" d="M136.8,1901.4c-1.1,0-2.1,0.1-3,0.1l-0.1-0.8c2,0,4.7,0,6.9-0.3l0.1,0.7c-0.9,0.1-1.9,0.3-2.9,0.3v2.1h-1
				V1901.4z M134.5,1898c0-1.1,1.1-1.9,2.7-1.9c1.6,0,2.7,0.7,2.7,1.9c0,1.2-1.1,1.9-2.7,1.9S134.5,1899.1,134.5,1898z
				 M142.8,1905.4v0.8h-7.6v-3.1h1v2.3L142.8,1905.4L142.8,1905.4z M135.5,1898c0,0.7,0.7,1.2,1.7,1.2s1.7-0.5,1.7-1.2
				s-0.7-1.1-1.7-1.1S135.5,1897.3,135.5,1898z M141.6,1902v-6.4h1v8.2h-1v-1.1h-2.2v-0.7H141.6z"/>
		</g>
		<g class="st0">
			<path class="st5" d="M114.6,1953.5h-4.4v3.4h-1v-3.4h-4.4v-0.8h9.8V1953.5z M113.5,1951.6h-7.4v-4.9h7.2v0.8H107v1.2h6v0.8h-6
				v1.3h6.4v0.8H113.5z"/>
			<path class="st5" d="M121.3,1951.8h-4.9v-4.8h4.9v0.9h2.5v-1.7h1v6.4h-1v-1.7h-2.5V1951.8z M120.3,1947.8h-3v3.2h3V1947.8z
				 M124.8,1955c0,1.3-1.4,2-3.6,2s-3.6-0.7-3.6-2s1.4-2,3.6-2C123.4,1952.9,124.8,1953.7,124.8,1955z M123.8,1955
				c0-0.8-1-1.3-2.6-1.3s-2.6,0.5-2.6,1.3s1,1.3,2.6,1.3C122.8,1956.2,123.8,1955.7,123.8,1955z M121.3,1948.8v1.3h2.5v-1.3H121.3z"
				/>
			<path class="st5" d="M133.3,1948.3H127v-0.8h2.7v-1.3h1v1.3h2.7L133.3,1948.3L133.3,1948.3z M130.1,1952.9c-1.5,0-2.6-0.8-2.6-2
				s1-2,2.6-2s2.6,0.8,2.6,2C132.7,1952.1,131.6,1952.9,130.1,1952.9z M130.1,1952.2c1,0,1.6-0.5,1.6-1.2s-0.7-1.2-1.6-1.2
				s-1.6,0.5-1.6,1.2S129.1,1952.2,130.1,1952.2z M129.5,1955.9h6.2v0.8h-7.2v-3.1h1V1955.9z M136.8,1949.8v0.8h-1.6v3.7h-1v-8.1h1
				v3.5L136.8,1949.8L136.8,1949.8z"/>
			<path class="st5" d="M145.9,1948.6c-0.7,1.7-2.3,2.8-4.7,3.4l-0.4-0.8c2.6-0.6,4.1-1.9,4.3-3.6h-3.7v-0.8h4.8c0,0.4,0,0.7-0.1,1
				h2.4v-1.6h1v5.5h-1v-1.1h-2.8v-0.8h2.8v-1.3h-2.6V1948.6z M149.9,1956.1v0.8h-7.3v-2.8h5.9v-1.1h-5.9v-0.8h6.9v2.6h-5.9v1.2h6.3
				V1956.1z"/>
			<path class="st5" d="M154.8,1949.3c0,1.9,0.8,3.7,2.3,4.6l-0.6,0.7c-1-0.6-1.8-1.8-2.2-3.1c-0.4,1.5-1.2,2.7-2.2,3.4l-0.6-0.7
				c1.5-0.9,2.3-2.9,2.3-4.8v-1h-2v-0.8h4.9v0.8h-1.9V1949.3z M157.7,1946.5h0.9v10h-0.9v-5.5h-1.8v-0.8h1.8V1946.5z M160.8,1946.2
				v10.8h-0.9v-10.8H160.8z"/>
		</g>
		<g class="st0">
			<path class="st5" d="M108.6,1967.1c0,2,1.3,3.9,2.9,4.7l-0.6,0.8c-1.2-0.6-2.3-1.9-2.8-3.4c-0.5,1.6-1.5,3-2.8,3.6l-0.6-0.8
				c1.6-0.8,2.9-2.8,2.9-4.9v-1.9h1V1967.1z M113.6,1964.2v10.8h-1v-10.8H113.6z"/>
			<path class="st5" d="M125.6,1972.7v0.8h-9.8v-0.8H125.6z M124.7,1970.5c-1.6-0.4-3.3-1.5-4-3.1c-0.7,1.6-2.4,2.7-4,3.1l-0.4-0.8
				c1.9-0.4,3.9-2,3.9-3.8v-0.8h1v0.8c0,1.8,2,3.5,3.9,3.8L124.7,1970.5z"/>
			<path class="st5" d="M132,1969.8c-1.2,0.2-2.2,0.3-4,0.3h-0.7v-5.1h4.1v0.8h-3.1v1.3h2.7v0.8h-2.7v1.5c1.5,0,2.5-0.1,3.6-0.3
				L132,1969.8z M128.9,1971.2h7.1v3.6h-7.1V1971.2z M129.9,1974.1h5.1v-2.1h-5.1V1974.1z M133,1967.7h-1.4v-0.8h1.4v-2.5h0.9v6.2
				H133V1967.7z M136,1964.2v6.5h-1v-6.5H136z"/>
			<path class="st5" d="M150.4,1969.7v0.8h-4.3v2.2h-1v-2.2h-4.5v-0.8H150.4z M141.7,1966.7c0-1.3,1.5-2.2,3.8-2.2s3.8,0.8,3.8,2.2
				c0,1.3-1.5,2.2-3.8,2.2S141.7,1968,141.7,1966.7z M142.9,1973.9h6.5v0.8H142v-3.1h1v2.3H142.9z M142.8,1966.7
				c0,0.8,1.1,1.4,2.7,1.4c1.7,0,2.7-0.5,2.7-1.4s-1.1-1.4-2.7-1.4C143.9,1965.3,142.8,1965.8,142.8,1966.7z"/>
			<path class="st5" d="M161.4,1969.6v0.8h-9.7v-0.8h2.4v-1.5c-0.9-0.3-1.3-0.9-1.3-1.6c0-1.3,1.5-2,3.8-2s3.8,0.7,3.8,2
				c0,0.7-0.5,1.3-1.3,1.6v1.5H161.4z M160.2,1973.1c0,1.2-1.4,1.9-3.7,1.9s-3.7-0.7-3.7-1.9s1.4-1.9,3.7-1.9
				S160.2,1971.8,160.2,1973.1z M156.5,1967.7c1.7,0,2.8-0.5,2.8-1.2c0-0.8-1.1-1.2-2.8-1.2s-2.8,0.5-2.8,1.2
				C153.8,1967.2,154.8,1967.7,156.5,1967.7z M159.2,1973.1c0-0.7-1-1.2-2.7-1.2s-2.7,0.4-2.7,1.2s1,1.2,2.7,1.2
				C158.2,1974.2,159.2,1973.8,159.2,1973.1z M155,1969.6h3v-1.3c-0.4,0.1-0.9,0.1-1.5,0.1c-0.5,0-1,0-1.5-0.1V1969.6z"/>
		</g>
		<g class="st0">
			<path class="st5" d="M109.3,2019.8v0.8h-9.7v-0.8h4.4v-1.3h-3.1v-4h1v1.2h5.2v-1.2h1v4H105v1.3H109.3z M100.7,2021.6h7.4v3.4h-1
				v-2.6h-6.5L100.7,2021.6L100.7,2021.6z M101.9,2017.7h5.2v-1.2h-5.2V2017.7z"/>
			<path class="st5" d="M112.3,2021.6c1.8,0,3.3-0.1,5.2-0.4l0.1,0.8c-1.9,0.3-3.6,0.4-5.4,0.4h-0.9v-4.1h4v-2.2h-4v-0.8h5v3.8h-4
				C112.3,2019.1,112.3,2021.6,112.3,2021.6z M119.5,2014.2v10.8h-1v-10.8H119.5z"/>
			<path class="st5" d="M131.4,2022H127v3h-1v-3h-4.4v-0.8h9.8V2022z M130.8,2016.3h-8.6v-0.8h3.9v-1.3h1v1.3h3.8v0.8H130.8z
				 M126.6,2016.9c2.2,0,3.5,0.6,3.5,1.8s-1.3,1.8-3.5,1.8s-3.5-0.6-3.5-1.8S124.4,2016.9,126.6,2016.9z M126.6,2017.6
				c-1.6,0-2.5,0.4-2.5,1c0,0.7,0.9,1,2.5,1s2.5-0.4,2.5-1C129,2018,128.1,2017.6,126.6,2017.6z"/>
			<path class="st5" d="M137.6,2020c-1-0.4-1.7-1.2-2.1-2.1c-0.4,1-1.2,1.9-2.2,2.4l-0.5-0.8c1.4-0.6,2.2-2,2.2-3.2v-1.5h0.9v1.5
				c0,1.2,0.8,2.4,2.2,2.9L137.6,2020z M141.9,2023c0,1.2-1.4,1.9-3.6,1.9c-2.2,0-3.6-0.7-3.6-1.9c0-1.2,1.4-1.9,3.6-1.9
				S141.9,2021.8,141.9,2023z M140.9,2023c0-0.7-1-1.2-2.6-1.2s-2.6,0.4-2.6,1.2c0,0.7,1,1.2,2.6,1.2S140.9,2023.8,140.9,2023z
				 M139.5,2020.5h-0.9v-6.1h0.9v2.7h1.4v-2.9h0.9v6.6h-0.9v-3h-1.4V2020.5z"/>
			<path class="st5" d="M150.3,2017.5c0,1.8,1.3,3.7,2.9,4.4l-0.6,0.8c-1.2-0.6-2.3-1.8-2.8-3.3c-0.5,1.6-1.5,2.9-2.8,3.5l-0.6-0.8
				c1.5-0.7,2.9-2.8,2.9-4.6v-1.4h-2.5v-0.8h6v0.8h-2.5L150.3,2017.5L150.3,2017.5z M155.3,2014.2v10.7h-1v-10.7H155.3z"/>
			<path class="st5" d="M160.6,2020c-1.1,0-2.1,0.1-3,0.1l-0.1-0.8c2,0,4.7,0,6.9-0.3l0.1,0.7c-0.9,0.1-1.9,0.3-2.9,0.3v2.1h-1V2020
				z M158.3,2016.5c0-1.1,1.1-1.9,2.7-1.9c1.6,0,2.7,0.7,2.7,1.9c0,1.2-1.1,1.9-2.7,1.9C159.4,2018.4,158.3,2017.7,158.3,2016.5z
				 M166.6,2023.9v0.8H159v-3.1h1v2.3L166.6,2023.9L166.6,2023.9z M159.2,2016.5c0,0.7,0.7,1.2,1.7,1.2s1.7-0.5,1.7-1.2
				s-0.7-1.1-1.7-1.1S159.2,2015.9,159.2,2016.5z M165.3,2020.6v-6.4h1v8.2h-1v-1.1h-2.2v-0.7H165.3z"/>
		</g>
		<g class="st0">
			<path d="M46.1,1949.1c-0.7,1.7-2.3,2.9-4.6,3.6l-0.5-1c2.5-0.7,3.9-2,4.2-3.7h-3.6v-1h4.9c0,0.4,0,0.7-0.1,1.1h2.2v-1.9h1.2v6.4
				h-1.2v-1.2H46v-1h2.6v-1.2h-2.5V1949.1z M49.9,1954.8c0,1.3-1.4,2.1-3.6,2.1s-3.6-0.8-3.6-2.1c0-1.3,1.4-2.1,3.6-2.1
				S49.9,1953.5,49.9,1954.8z M48.7,1954.8c0-0.7-0.9-1.2-2.4-1.2s-2.4,0.4-2.4,1.2c0,0.8,0.9,1.2,2.4,1.2S48.7,1955.6,48.7,1954.8z
				"/>
			<path d="M57.1,1951.2c-0.5,0.6-1.3,0.9-2.1,0.9c-1.6,0-2.8-1.1-2.8-2.6s1.2-2.6,2.8-2.6c0.9,0,1.6,0.3,2.1,0.9h2.6v-1.5h1.2v6.4
				h-1.2v-1.4h-2.6V1951.2z M54.9,1951c0.9,0,1.6-0.6,1.6-1.6c0-0.9-0.7-1.6-1.6-1.6c-1,0-1.7,0.6-1.7,1.6S53.9,1951,54.9,1951z
				 M60.9,1954.9c0,1.3-1.4,2.1-3.7,2.1s-3.6-0.8-3.6-2.1c0-1.3,1.4-2.1,3.6-2.1S60.9,1953.6,60.9,1954.9z M59.7,1954.9
				c0-0.7-0.9-1.1-2.4-1.1s-2.4,0.4-2.4,1.1s0.9,1.1,2.4,1.1C58.8,1956.1,59.7,1955.7,59.7,1954.9z M57.6,1948.7
				c0.1,0.2,0.1,0.5,0.1,0.7c0,0.3,0,0.5-0.1,0.7h2.1v-1.5h-2.1V1948.7z"/>
		</g>
		<g class="st0">
			<path d="M44.9,1965.3c0,1.8,1.1,3.7,2.8,4.4l-0.7,1c-1.3-0.6-2.2-1.7-2.7-3.1c-0.5,1.5-1.5,2.8-2.7,3.4l-0.7-1
				c1.7-0.8,2.8-2.8,2.8-4.7v-1h-2.4v-1h6.1v1H45L44.9,1965.3L44.9,1965.3z M49.8,1962.2v10.8h-1.2v-10.8H49.8z"/>
			<path d="M54.9,1968.1c-1,0-2,0.1-2.9,0.1l-0.2-1c2,0,4.7,0,6.9-0.3l0.1,0.9c-0.9,0.2-1.9,0.3-2.8,0.3v2.1h-1.2v-2.1H54.9z
				 M52.7,1964.5c0-1.2,1.1-1.9,2.7-1.9c1.6,0,2.7,0.8,2.7,1.9s-1.1,1.9-2.7,1.9S52.7,1965.7,52.7,1964.5z M61.2,1971.8v1h-7.8v-3.2
				h1.2v2.2H61.2z M53.9,1964.5c0,0.6,0.6,1,1.5,1s1.5-0.4,1.5-1s-0.6-1-1.5-1S53.9,1963.9,53.9,1964.5z M59.7,1968.6v-6.4h1.2v8.2
				h-1.2v-1h-2.1v-0.9h2.1V1968.6z"/>
		</g>
		<g class="st0">
			<path class="st5" d="M107.7,2079.2c0-2.8,1.7-4.6,3.9-4.6c1.1,0,1.9,0.5,2.4,1.1l-0.6,0.7c-0.5-0.5-1-0.8-1.8-0.8
				c-1.7,0-2.8,1.4-2.8,3.6c0,2.2,1.1,3.6,2.7,3.6c0.8,0,1.5-0.4,2-1l0.6,0.7c-0.7,0.8-1.6,1.3-2.7,1.3
				C109.3,2083.8,107.7,2082.1,107.7,2079.2z"/>
			<path class="st5" d="M115,2079.2c0-2.8,1.5-4.5,3.8-4.5c2.2,0,3.8,1.7,3.8,4.5s-1.5,4.6-3.8,4.6S115,2082,115,2079.2z
				 M121.3,2079.2c0-2.2-1-3.6-2.6-3.6s-2.6,1.4-2.6,3.6c0,2.2,1,3.6,2.6,3.6S121.3,2081.4,121.3,2079.2z"/>
			<path class="st5" d="M123,2074.8h1.2l1.4,4.8c0.3,1,0.5,1.9,0.9,2.9l0,0c0.3-1,0.5-1.9,0.9-2.9l1.4-4.8h1.1l-2.8,8.8h-1.3
				L123,2074.8z"/>
			<path class="st5" d="M131.1,2074.8h1.1v8.8h-1.1V2074.8z"/>
			<path class="st5" d="M134.6,2074.8h2.2c2.7,0,4.1,1.6,4.1,4.4c0,2.8-1.5,4.4-4.1,4.4h-2.3v-8.8H134.6z M136.8,2082.7
				c2.1,0,3.1-1.3,3.1-3.5s-1-3.5-3.1-3.5h-1v7H136.8z"/>
			<path class="st5" d="M142.2,2079.8h3.1v0.8h-3.1V2079.8z"/>
			<path class="st5" d="M146.9,2082.7h2v-6.3h-1.6v-0.7c0.8-0.1,1.3-0.3,1.8-0.6h0.8v7.6h1.8v0.9h-4.8V2082.7z"/>
			<path class="st5" d="M153.2,2082.9l0.6-0.7c0.3,0.4,0.9,0.7,1.4,0.7c1.2,0,2.2-0.9,2.3-3.7c-0.6,0.7-1.3,1.1-2,1.1
				c-1.5,0-2.4-0.9-2.4-2.7c0-1.6,1.2-2.7,2.5-2.7c1.7,0,3,1.4,3,4.1c0,3.4-1.5,4.8-3.2,4.8C154.3,2083.8,153.7,2083.4,153.2,2082.9
				z M155.7,2079.5c0.6,0,1.2-0.3,1.8-1.2c-0.1-1.7-0.8-2.5-1.9-2.5c-0.8,0-1.5,0.7-1.5,1.9C154.1,2078.8,154.6,2079.5,155.7,2079.5
				z"/>
		</g>
		<g class="st0">
			<path class="st5" d="M121.4,2096.3v0.8h-9.8v-0.8h7.2c0.3-1.4,0.3-2.4,0.3-3.2h-6.3v-0.8h7.3v0.7c0,0.8,0,1.9-0.3,3.3H121.4z
				 M112.7,2098.7h7.5v3.9h-1v-3.1h-6.5V2098.7z"/>
			<path class="st5" d="M132.4,2097.3v0.8h-9.7v-0.8h4.4v-1.3H124v-4h1v1.2h5.2v-1.2h1v4H128v1.3H132.4z M123.8,2099.1h7.4v3.4h-1
				v-2.6h-6.5v-0.8H123.8z M124.9,2095.2h5.2v-1.2h-5.2C124.9,2094,124.9,2095.2,124.9,2095.2z"/>
			<path class="st5" d="M140.2,2095c0,1.8,1.3,3.7,2.9,4.4l-0.6,0.8c-1.2-0.6-2.3-1.8-2.8-3.3c-0.5,1.6-1.5,2.9-2.8,3.5l-0.6-0.8
				c1.5-0.7,2.9-2.8,2.9-4.6v-1.4h-2.5v-0.8h6v0.8h-2.5L140.2,2095L140.2,2095z M145.2,2091.8v10.7h-1v-10.7H145.2z"/>
			<path class="st5" d="M150.5,2097.5c-1.1,0-2.1,0.1-3,0.1l-0.1-0.8c2,0,4.7,0,6.9-0.3l0.1,0.7c-0.9,0.1-1.9,0.3-2.9,0.3v2.1h-1
				V2097.5z M148.2,2094c0-1.1,1.1-1.9,2.7-1.9c1.6,0,2.7,0.7,2.7,1.9s-1.1,1.9-2.7,1.9S148.2,2095.2,148.2,2094z M156.5,2101.5v0.8
				h-7.6v-3.1h1v2.3H156.5z M149.2,2094c0,0.7,0.7,1.2,1.7,1.2s1.7-0.5,1.7-1.2s-0.7-1.1-1.7-1.1S149.2,2093.4,149.2,2094z
				 M155.3,2098.1v-6.4h1v8.2h-1v-1.1h-2.2v-0.7H155.3z"/>
		</g>
		<g class="st0">
			<path d="M40.9,2080v1.8H44v3.8h-1.2v-2.8h-6.4v-1h3.3v-1.8h-4.3v-1h7.1c0.2-1.2,0.3-2,0.3-2.8h-6.2v-1H44v0.8c0,0.8,0,1.8-0.2,3
				h1.5v1H40.9z"/>
			<path d="M52,2075.8c0,3.1-1.3,5.9-4.9,7.7l-0.7-0.9c2.7-1.4,4.1-3.3,4.3-5.8H47v-1H52z M56.5,2080h-1.6v5.5h-1.2v-10.8h1.2v4.3
				h1.6V2080z"/>
			<path d="M63.3,2080.8c-1.2-0.4-2.1-1.3-2.5-2.3c-0.5,1.2-1.4,2.1-2.7,2.5l-0.6-1c1.7-0.6,2.7-2,2.7-3.5v-0.2h-2.3v-1h5.8v1h-2.3
				v0.2c0,1.3,0.9,2.7,2.5,3.3L63.3,2080.8z M59.2,2081.7h7.3v3.8h-1.2v-2.8h-6.1C59.2,2082.7,59.2,2081.7,59.2,2081.7z
				 M66.5,2074.7v6.5h-1.2v-2.7h-1.9v-1h1.9v-2.7h1.2V2074.7z"/>
		</g>
		<g class="st0">
			<path d="M31.9,2093.5c0,2,0.7,3.7,2.3,4.5l-0.7,0.9c-1-0.6-1.7-1.5-2.1-2.7c-0.4,1.4-1.1,2.5-2.1,3.1l-0.8-0.9
				c1.6-0.9,2.3-2.8,2.3-4.9v-0.6h-2v-1h5v1H32v0.6H31.9z M37.8,2090.7v10.8h-1.2v-5.5h-1.2v5h-1.2v-10.1h1.2v4.1h1.2v-4.3H37.8z"/>
			<path d="M46,2096.2c-1.8,0.4-3.5,0.5-5,0.5h-0.9v-5.2h1.2v4.2c1.4,0,2.9-0.1,4.5-0.5L46,2096.2z M42.5,2100.3h6v1h-7.2v-3.6h1.2
				V2100.3z M49.6,2093.8v1H48v3.6h-1.2v-7.8H48v3.1L49.6,2093.8L49.6,2093.8z"/>
			<path d="M57.3,2093.8c0,1.8,1.1,3.7,2.8,4.4l-0.7,1c-1.3-0.6-2.2-1.7-2.7-3.1c-0.5,1.5-1.5,2.8-2.7,3.4l-0.7-1
				c1.7-0.8,2.8-2.8,2.8-4.7v-1h-2.4v-1h6.1v1h-2.4L57.3,2093.8L57.3,2093.8z M62.2,2090.7v10.8H61v-10.8H62.2z"/>
			<path d="M67.3,2096.6c-1,0-2,0.1-2.9,0.1l-0.2-1c2,0,4.7,0,6.9-0.3l0.1,0.9c-0.9,0.2-1.9,0.3-2.8,0.3v2.1h-1.2L67.3,2096.6
				L67.3,2096.6z M65.1,2093c0-1.2,1.1-1.9,2.7-1.9s2.7,0.8,2.7,1.9s-1.1,1.9-2.7,1.9S65.1,2094.2,65.1,2093z M73.6,2100.3v1h-7.8
				v-3.2H67v2.2H73.6z M66.3,2093c0,0.6,0.6,1,1.5,1s1.5-0.4,1.5-1s-0.6-1-1.5-1S66.3,2092.4,66.3,2093z M72.1,2097.1v-6.4h1.2v8.2
				h-1.2v-1H70v-0.9L72.1,2097.1L72.1,2097.1z"/>
		</g>
		<g class="st0">
			<path class="st5" d="M117.5,1810.8c0,1.5-1.2,2.5-2.8,2.5c-1.6,0-2.8-1-2.8-2.5s1.2-2.5,2.8-2.5S117.5,1809.3,117.5,1810.8z
				 M112.9,1810.8c0,1,0.8,1.7,1.8,1.7c1.1,0,1.9-0.7,1.9-1.7s-0.8-1.7-1.9-1.7C113.6,1809.1,112.9,1809.8,112.9,1810.8z
				 M120.5,1814.5v3.9h-7v-3.9H120.5z M114.5,1815.3v2.3h5v-2.3H114.5z M120.5,1807.8v6.2h-1v-6.2H120.5z"/>
			<path class="st5" d="M132.5,1812.3v0.8h-9.8v-0.8h7.2c0.3-1.3,0.3-2.3,0.3-3.2h-6.3v-0.8h7.3v0.8c0,0.8,0,1.8-0.3,3.2H132.5z
				 M123.9,1814.5h7.3v3.8h-7.3C123.9,1818.3,123.9,1814.5,123.9,1814.5z M124.9,1817.6h5.4v-2.2h-5.4V1817.6z"/>
			<path class="st5" d="M142.6,1807.7v6.4h-1v-1.4h-2.8v-0.8h2.8v-1.5H139c-0.7,1.7-2.4,2.9-4.7,3.6l-0.4-0.8c2.6-0.7,4.2-2.1,4.4-4
				h-3.9v-0.8h4.9c0,0.4,0,0.8-0.1,1.2h2.4v-1.9L142.6,1807.7L142.6,1807.7z M135.4,1814.6h7.2v3.8h-1v-3h-6.2V1814.6z"/>
			<path class="st5" d="M148.4,1811.2c0,1.7,1.1,3.5,2.6,4.2l-0.6,0.8c-1.2-0.6-2.1-1.8-2.5-3.1c-0.5,1.5-1.4,2.7-2.7,3.3l-0.6-0.7
				c1.6-0.8,2.7-2.6,2.7-4.5v-0.8H145v-0.8h2.4v-1.7h1v1.7h2.4v0.8h-2.4V1811.2z M154.8,1813H153v5.5h-1v-10.8h1v4.4h1.8V1813z"/>
		</g>
		<g class="st0">
			<path class="st5" d="M113.5,1827.6h2.2v0.8h-5.3v-0.8h2.2v-1.5h1L113.5,1827.6L113.5,1827.6z M115.3,1831.5c0,1.5-1,2.5-2.3,2.5
				s-2.3-1-2.3-2.5c0-1.4,1-2.4,2.3-2.4S115.3,1830.1,115.3,1831.5z M114.4,1831.5c0-0.9-0.6-1.6-1.4-1.6s-1.4,0.7-1.4,1.6
				c0,1,0.6,1.6,1.4,1.6C113.8,1833.2,114.4,1832.5,114.4,1831.5z M119.4,1825.7v10.8h-0.9v-5.4h-1.4v4.9h-0.9v-10h0.9v4.3h1.4v-4.5
				h0.9V1825.7z"/>
			<path class="st5" d="M131.1,1834.3v0.8h-9.8v-0.8h4.3v-2.6h1v2.6H131.1z M130.2,1831.8c-1.6-0.3-3.3-1.5-4-3
				c-0.7,1.5-2.4,2.7-4,3l-0.4-0.8c1.9-0.3,3.9-1.9,3.9-3.7v-0.8h1v0.8c0,1.8,2.1,3.4,3.9,3.7L130.2,1831.8z"/>
			<path class="st5" d="M144.8,1831.2v0.8h-4.3v2.2h-1v-2.2H135v-0.8H144.8z M136.2,1828.2c0-1.3,1.5-2.2,3.8-2.2s3.8,0.8,3.8,2.2
				c0,1.3-1.5,2.2-3.8,2.2S136.2,1829.5,136.2,1828.2z M137.3,1835.4h6.5v0.8h-7.4v-3.1h1v2.3H137.3z M137.2,1828.2
				c0,0.8,1.1,1.4,2.7,1.4c1.7,0,2.7-0.5,2.7-1.4s-1.1-1.4-2.7-1.4C138.3,1826.8,137.2,1827.3,137.2,1828.2z"/>
			<path class="st5" d="M155.9,1831.1v0.8h-9.7v-0.8h4.4v-1.2h-3.2v-3.6h7.3v0.8h-6.3v2h6.4v0.8h-3.2v1.2L155.9,1831.1L155.9,1831.1
				z M154.7,1834.6c0,1.2-1.4,1.9-3.7,1.9s-3.7-0.7-3.7-1.9s1.4-1.9,3.7-1.9C153.3,1832.6,154.7,1833.3,154.7,1834.6z M153.7,1834.6
				c0-0.8-1-1.2-2.7-1.2s-2.7,0.4-2.7,1.2c0,0.8,1,1.2,2.7,1.2C152.7,1835.7,153.7,1835.3,153.7,1834.6z"/>
		</g>
		<g class="st0">
			<path d="M50.4,1812.2v1h-9.8v-1h7.1c0.3-1.2,0.3-2.1,0.3-2.9h-6.1v-1h7.4v0.8c0,0.9,0,1.8-0.3,3.1H50.4z M41.8,1814.5h7.4v3.9
				h-7.4V1814.5z M43,1817.4h5v-1.9h-5V1817.4z"/>
			<path d="M59.1,1813.7v1.4c0.7,0.3,1.1,0.9,1.1,1.5c0,1.2-1.4,2-3.7,2s-3.7-0.7-3.7-2c0-0.7,0.4-1.2,1.2-1.5v-1.4h-2.4v-1h9.8v1
				H59.1z M52.7,1810c0-1.3,1.5-2.1,3.9-2.1s3.9,0.8,3.9,2.1c0,1.3-1.5,2-3.9,2S52.7,1811.2,52.7,1810z M54,1810
				c0,0.7,1,1.1,2.6,1.1s2.6-0.4,2.6-1.1s-1-1.1-2.6-1.1C54.9,1808.9,54,1809.3,54,1810z M59,1816.6c0-0.6-0.9-1-2.5-1
				s-2.5,0.3-2.5,1s0.9,1,2.5,1S59,1817.3,59,1816.6z M57.9,1813.7h-2.7v1.1c0.4-0.1,0.8-0.1,1.3-0.1s1,0,1.4,0.1V1813.7z"/>
		</g>
		<g class="st0">
			<path d="M44.6,1826.8c0,1.8,1.1,3.7,2.8,4.4l-0.7,1c-1.3-0.6-2.2-1.7-2.7-3.1c-0.5,1.5-1.5,2.8-2.7,3.4l-0.7-1
				c1.7-0.8,2.8-2.8,2.8-4.7v-1H41v-1h6v1h-2.4V1826.8z M49.5,1823.7v10.8h-1.2v-10.8H49.5z"/>
			<path d="M54.6,1829.6c-1,0-2,0.1-2.9,0.1l-0.2-1c2,0,4.7,0,6.9-0.3l0.1,0.9c-0.9,0.2-1.9,0.3-2.8,0.3v2.1h-1.2v-2.1H54.6z
				 M52.4,1826c0-1.2,1.1-1.9,2.7-1.9c1.6,0,2.7,0.8,2.7,1.9s-1.1,1.9-2.7,1.9S52.4,1827.2,52.4,1826z M60.9,1833.3v1h-7.8v-3.2h1.2
				v2.2H60.9z M53.6,1826c0,0.6,0.6,1,1.5,1s1.5-0.4,1.5-1s-0.6-1-1.5-1C54.2,1825,53.6,1825.4,53.6,1826z M59.4,1830.1v-6.4h1.2
				v8.2h-1.2v-1h-2.1v-0.9h2.1V1830.1z"/>
		</g>
		<g>
			<g class="st0">
				<path class="st5" d="M199.4,1872.1c0-1,0.7-1.6,1.5-1.6s1.5,0.6,1.5,1.6s-0.7,1.6-1.5,1.6C200.1,1873.7,199.4,1873,199.4,1872.1
					z"/>
			</g>
			<g class="st0">
				<path class="st5" d="M199.4,1890.1c0-1,0.7-1.6,1.5-1.6s1.5,0.6,1.5,1.6s-0.7,1.6-1.5,1.6C200.1,1891.7,199.4,1891,199.4,1890.1
					z"/>
			</g>
			<g class="st0">
				<path class="st5" d="M199.4,1960.6c0-1,0.7-1.6,1.5-1.6s1.5,0.6,1.5,1.6s-0.7,1.6-1.5,1.6
					C200.1,1962.2,199.4,1961.5,199.4,1960.6z"/>
			</g>
			<g class="st0">
				<path class="st5" d="M199.4,2069.2c0-1,0.7-1.6,1.5-1.6s1.5,0.6,1.5,1.6s-0.7,1.6-1.5,1.6
					C200.1,2070.8,199.4,2070.1,199.4,2069.2z"/>
			</g>
			<g class="st0">
				<path class="st5" d="M199.4,2087.2c0-1,0.7-1.6,1.5-1.6s1.5,0.6,1.5,1.6s-0.7,1.6-1.5,1.6
					C200.1,2088.8,199.4,2088.1,199.4,2087.2z"/>
			</g>
			<g class="st0">
				<path class="st5" d="M199.4,2010.1c0-1,0.7-1.6,1.5-1.6s1.5,0.6,1.5,1.6s-0.7,1.6-1.5,1.6C200.1,2011.7,199.4,2011,199.4,2010.1
					z"/>
			</g>
			<g class="st0">
				<path class="st5" d="M199.5,1733.1c0-1,0.7-1.6,1.5-1.6s1.5,0.6,1.5,1.6s-0.7,1.6-1.5,1.6S199.5,1734,199.5,1733.1z"/>
			</g>
			<g class="st0">
				<path class="st5" d="M215.6,1733.8c-1.2-0.4-2.2-1.3-2.7-2.4c-0.5,1.2-1.5,2.2-2.7,2.7l-0.5-0.8c1.6-0.6,2.7-2,2.7-3.5v-0.4H210
					v-0.8h5.9v0.8h-2.4v0.4c0,1.4,1.1,2.7,2.7,3.3L215.6,1733.8z M211.2,1734.8h7.2v3.7h-1v-2.9h-6.2V1734.8z M218.4,1727.7v6.5h-1
					v-6.5H218.4z"/>
				<path class="st5" d="M230.3,1734.8h-4.4v3.7h-1v-3.7h-4.4v-0.8h9.8L230.3,1734.8L230.3,1734.8z M229.1,1732.5h-7.3v-4.2h7.3
					V1732.5z M228.1,1729.1h-5.3v2.6h5.3V1729.1z"/>
				<path class="st5" d="M239.9,1732.8h-5v-4.4h5V1732.8z M240.2,1735.4c0,1,1.7,2.1,3.5,2.3l-0.3,0.8c-1.6-0.2-3.1-1-3.7-2
					c-0.6,1-2.1,1.7-3.8,2l-0.3-0.8c1.8-0.2,3.5-1.2,3.6-2.3h-3.1v-0.8h3.2v-1h1v1h3.2v0.8H240.2z M239,1729.2h-3.1v2.8h3.1V1729.2z
					 M243.1,1733.9h-1v-6.2h1V1733.9z"/>
				<path class="st5" d="M252,1735.3c1-0.1,2.1-0.1,3.1-0.3l0.1,0.7c-2.4,0.4-5,0.5-7,0.5l-0.1-0.8c0.9,0,1.9,0,2.9,0v-1.9
					c-1.4-0.2-2.4-1.2-2.4-2.5c0-1.5,1.2-2.5,2.9-2.5s2.9,1,2.9,2.5c0,1.4-1,2.3-2.4,2.5V1735.3z M251.5,1732.7
					c1.1,0,1.9-0.7,1.9-1.7s-0.8-1.7-1.9-1.7c-1.1,0-1.9,0.7-1.9,1.7S250.4,1732.7,251.5,1732.7z M256.8,1727.7v10.8h-1v-10.8H256.8
					z"/>
				<path class="st5" d="M264.5,1732.9v2h3.2v3.6h-1v-2.8h-6.5v-0.8h3.3v-2h-4.4v-0.8h7.2c0.3-1.3,0.3-2.2,0.3-3h-6.3v-0.8h7.3v0.8
					c0,0.8,0,1.8-0.3,3.1h1.5v0.8L264.5,1732.9L264.5,1732.9z"/>
				<path class="st5" d="M279,1727.7v10.8h-1v-5.9h-2.3c-0.1,2.1-1.2,3.4-2.7,3.4c-1.6,0-2.7-1.5-2.7-3.8s1.1-3.8,2.7-3.8
					c1.5,0,2.5,1.3,2.7,3.3h2.3v-4.1L279,1727.7L279,1727.7z M274.7,1732.3c0-1.7-0.7-2.9-1.7-2.9s-1.8,1.1-1.8,2.9s0.7,2.9,1.8,2.9
					C274,1735.2,274.7,1734.1,274.7,1732.3z"/>
				<path class="st5" d="M292.7,1727.7v6.3h-1v-1.5H289c-0.5,0.6-1.3,1-2.2,1c-1.6,0-2.8-1.1-2.8-2.6s1.2-2.6,2.8-2.6
					c0.9,0,1.7,0.4,2.2,1h2.7v-1.6L292.7,1727.7z M288.6,1730.9c0-1-0.8-1.7-1.8-1.7s-1.8,0.7-1.8,1.7s0.8,1.8,1.8,1.8
					C287.8,1732.7,288.6,1731.9,288.6,1730.9z M285.5,1734.7h7.2v3.8h-1v-3h-6.2V1734.7z M291.7,1731.7v-1.6h-2.3
					c0.1,0.3,0.1,0.5,0.1,0.8s0,0.6-0.1,0.8L291.7,1731.7L291.7,1731.7z"/>
				<path class="st5" d="M301.3,1733.3c-1.7,0.3-3.1,0.3-5.1,0.3h-0.9v-3h3.8v-1.4h-3.9v-0.8h4.8v2.9h-3.8v1.5
					c1.9,0,3.3-0.1,4.9-0.3L301.3,1733.3z M303.4,1736.5c0,1.2-1.4,2-3.5,2c-2.2,0-3.5-0.7-3.5-2c0-1.2,1.3-2,3.5-2
					C302,1734.6,303.4,1735.3,303.4,1736.5z M302.4,1736.5c0-0.8-1-1.2-2.6-1.2s-2.6,0.4-2.6,1.2c0,0.8,1,1.2,2.6,1.2
					S302.4,1737.3,302.4,1736.5z M303.2,1730.2v1.5h1.6v0.8h-1.6v1.8h-1v-6.5h1v1.7h1.6v0.8h-1.6V1730.2z"/>
				<path class="st5" d="M315,1729.7h-6.3v-0.8h2.7v-1.3h1v1.3h2.7v0.8H315z M311.8,1734.1c-1.5,0-2.6-0.7-2.6-1.9
					c0-1.2,1-1.9,2.6-1.9s2.6,0.7,2.6,1.9C314.4,1733.3,313.4,1734.1,311.8,1734.1z M317.1,1736.6c0,1.2-1.3,1.9-3.5,1.9
					s-3.5-0.7-3.5-1.9c0-1.2,1.3-1.9,3.5-1.9C315.8,1734.8,317.1,1735.4,317.1,1736.6z M311.8,1733.3c1,0,1.6-0.5,1.6-1.2
					s-0.7-1.2-1.6-1.2s-1.6,0.5-1.6,1.2C310.2,1732.9,310.8,1733.3,311.8,1733.3z M316.1,1736.6c0-0.7-1-1.1-2.5-1.1
					c-1.6,0-2.5,0.4-2.5,1.1s1,1.1,2.5,1.1C315.2,1737.7,316.1,1737.3,316.1,1736.6z M317,1730.4v1.5h1.6v0.8H317v2h-1v-6.9h1v1.9
					h1.6v0.8H317V1730.4z"/>
				<path class="st5" d="M325.4,1733.6c-1.2-0.4-2.1-1.3-2.6-2.4c-0.4,1.3-1.4,2.2-2.7,2.7l-0.5-0.8c1.6-0.6,2.7-2.1,2.7-3.7v-1.1h1
					v1.2c0,1.5,1.1,2.8,2.6,3.3L325.4,1733.6z M328.1,1736.5c0,1.2-1.4,2-3.5,2c-2.2,0-3.5-0.7-3.5-2s1.4-2,3.5-2
					C326.8,1734.6,328.1,1735.3,328.1,1736.5z M327.2,1736.5c0-0.8-1-1.2-2.6-1.2s-2.6,0.4-2.6,1.2c0,0.7,1,1.2,2.6,1.2
					S327.2,1737.3,327.2,1736.5z M329.6,1730.5v0.8H328v2.9h-1v-6.5h1v2.8L329.6,1730.5L329.6,1730.5z"/>
				<path class="st5" d="M340.4,1732.4v0.8h-9.7v-0.8H340.4z M331.8,1729.8c0-1.2,1.4-1.9,3.8-1.9s3.8,0.7,3.8,1.9
					c0,1.2-1.4,1.9-3.8,1.9C333.2,1731.6,331.8,1731,331.8,1729.8z M332.9,1737.6h6.6v0.8h-7.6v-2.6h6.3v-1h-6.3v-0.7h7.3v2.4h-6.3
					V1737.6z M332.8,1729.8c0,0.7,1,1.1,2.8,1.1s2.8-0.4,2.8-1.1s-1-1.1-2.8-1.1C333.8,1728.7,332.8,1729.1,332.8,1729.8z"/>
			</g>
			<g class="st0">
				<path class="st5" d="M216.7,1751.9c-1,0.2-2.1,0.3-3.1,0.4v3.9h-1v-3.8c-1.1,0-2.1,0.1-3,0.1l-0.1-0.8c2,0,4.7,0,7.1-0.4
					L216.7,1751.9z M210.3,1748.5c0-1.3,1.1-2.2,2.7-2.2c1.6,0,2.7,0.9,2.7,2.2c0,1.3-1.1,2.2-2.7,2.2
					C211.5,1750.7,210.3,1749.8,210.3,1748.5z M211.3,1748.5c0,0.8,0.7,1.4,1.8,1.4c1,0,1.8-0.6,1.8-1.4s-0.7-1.4-1.8-1.4
					S211.3,1747.6,211.3,1748.5z M218.4,1745.8v10.8h-1v-10.8H218.4z"/>
				<path class="st5" d="M227,1747.9h-6.3v-0.8h2.7v-1.3h1v1.3h2.7L227,1747.9L227,1747.9z M223.8,1752.4c-1.5,0-2.6-0.8-2.6-2
					s1-2,2.6-2c1.5,0,2.6,0.8,2.6,2C226.4,1751.7,225.3,1752.4,223.8,1752.4z M223.8,1751.7c1,0,1.6-0.5,1.6-1.2s-0.7-1.2-1.6-1.2
					s-1.6,0.5-1.6,1.2S222.8,1751.7,223.8,1751.7z M223.2,1755.5h6.2v0.8h-7.2v-3.1h1V1755.5z M230.5,1749.3v0.8h-1.6v3.7h-1v-8.1h1
					v3.5L230.5,1749.3L230.5,1749.3z"/>
				<path class="st5" d="M244.1,1754.3v0.8h-9.8v-0.8h4.4v-2.6h-3.2v-5h7.4v5h-3.2v2.6H244.1z M236.4,1750.9h5.5v-3.5h-5.5V1750.9z"
					/>
				<path class="st5" d="M249.8,1746.7h1v7.3h-5v-7.3h1v2.8h3.1v-2.8H249.8z M249.8,1750.3h-3.1v2.8h3.1V1750.3z M255.4,1750.8h-1.8
					v5.7h-1v-10.7h1v4.2h1.8V1750.8z"/>
				<path class="st5" d="M259.4,1750.9c-1.6,0-2.8-1-2.8-2.4s1.2-2.4,2.8-2.4s2.8,1,2.8,2.4C262.2,1749.9,261,1750.9,259.4,1750.9z
					 M259.4,1750.1c1.1,0,1.8-0.7,1.8-1.6s-0.8-1.6-1.8-1.6s-1.8,0.7-1.8,1.6S258.4,1750.1,259.4,1750.1z M265.6,1755.6v0.8h-7.3
					v-2.7h6v-1.1h-6v-0.8h7v2.6h-6v1.2H265.6z M265.2,1751.3h-1v-5.5h1V1751.3z"/>
				<path class="st5" d="M279.9,1754.2v0.8h-9.7v-0.8h2.4v-3.6h1v3.6h1.7v-3.6h1v3.6H279.9z M277.7,1747.6h-6.6v-0.8h7.6v1.2
					c0,1.4,0,2.8-0.4,4.8l-1-0.1c0.4-1.9,0.4-3.3,0.4-4.7V1747.6z"/>
				<path class="st5" d="M288.3,1751.7v1.4h1.4v3.4h-1v-2.6h-6.5v-0.8h1.5v-1.4h-2.6v-0.8h9.7v0.8H288.3z M282.2,1748.1
					c0-1.3,1.5-2.1,3.8-2.1s3.8,0.8,3.8,2.1c0,1.3-1.5,2.1-3.8,2.1C283.7,1750.1,282.2,1749.3,282.2,1748.1z M283.3,1748.1
					c0,0.8,1.1,1.3,2.8,1.3c1.7,0,2.8-0.5,2.8-1.3s-1.1-1.3-2.8-1.3C284.3,1746.8,283.3,1747.3,283.3,1748.1z M287.3,1751.7h-2.6
					v1.4h2.6V1751.7z"/>
				<path class="st5" d="M304.6,1750.5v0.8h-9.7v-0.8H304.6z M297.4,1746.8h-1.6v-0.8h7.9v0.8h-1.6v2.1h1.6v0.8h-7.8v-0.8h1.6v-2.1
					H297.4z M297.1,1755.6h6.6v0.7h-7.6v-2.5h6.3v-0.9h-6.3v-0.7h7.3v2.4h-6.3V1755.6z M301.1,1746.8h-2.7v2.1h2.7V1746.8z"/>
				<path class="st5" d="M311.2,1751.6c-1.4,0.3-2.5,0.3-4,0.3h-0.7v-3.1h3.1v-1.5h-3.1v-0.8h4v3h-3.1v1.6c1.4,0,2.5-0.1,3.7-0.3
					L311.2,1751.6z M311.9,1752.9c0,1.4,1.8,2.5,3.6,2.8l-0.4,0.8c-1.6-0.3-3.1-1.1-3.7-2.3c-0.7,1.2-2.1,2-3.7,2.3l-0.4-0.8
					c1.9-0.3,3.6-1.5,3.6-2.8v-0.3h1V1752.9z M312.6,1752.1h-0.9v-6.2h0.9v2.6h1.4v-2.8h0.9v7.3H314v-3.7h-1.4V1752.1z"/>
				<path class="st5" d="M326.7,1751.2v0.8H317v-0.8h4.4v-1.2H318v-0.8h1.6v-2.3H318v-0.8h7.9v0.8h-1.6v2.3h1.6v0.8h-3.4v1.2H326.7z
					 M318.2,1753h7.3v3.4h-7.3V1753z M319.1,1755.6h5.4v-1.8h-5.4V1755.6z M320.5,1749.1h2.7v-2.3h-2.7V1749.1z"/>
			</g>
			<g class="st0">
				<path class="st5" d="M212.7,1766.8c0,1.9,0.8,3.7,2.3,4.6l-0.6,0.7c-1-0.6-1.8-1.8-2.2-3.1c-0.4,1.5-1.2,2.7-2.2,3.4l-0.6-0.7
					c1.5-0.9,2.3-2.9,2.3-4.8v-1h-2v-0.8h4.9v0.8h-1.9V1766.8z M215.6,1764h0.9v10h-0.9v-5.5h-1.8v-0.8h1.8V1764z M218.7,1763.7
					v10.8h-0.9v-10.8H218.7z"/>
				<path class="st5" d="M230.3,1768.8v0.8h-9.7v-0.8h4v-2.1h1v2.1H230.3z M229.2,1772.5c0,1.2-1.5,2-3.8,2s-3.7-0.7-3.7-2
					c0-1.2,1.5-2,3.7-2S229.2,1771.3,229.2,1772.5z M228.1,1765.1h-6.4v-0.8h7.3v0.9c0,0.9,0,1.7-0.3,2.8l-1-0.1
					c0.3-1.1,0.3-1.9,0.3-2.7L228.1,1765.1L228.1,1765.1z M228.2,1772.5c0-0.8-1.1-1.2-2.8-1.2s-2.8,0.5-2.8,1.2s1.1,1.2,2.8,1.2
					C227.1,1773.7,228.2,1773.3,228.2,1772.5z"/>
				<path class="st5" d="M233.5,1769.3c0-0.5,0.4-0.9,0.8-0.9s0.8,0.3,0.8,0.9c0,0.5-0.4,0.8-0.8,0.8S233.5,1769.7,233.5,1769.3z"/>
				<path class="st5" d="M245.5,1770.2c-1,0.2-2.1,0.3-3.1,0.3v3.7h-1v-3.6c-1.1,0-2.1,0-3,0l-0.1-0.8c2.1,0,4.7,0,7.1-0.3
					L245.5,1770.2z M238.8,1768.3c1.5-0.4,2.6-1.3,2.6-2.5l0,0H239v-0.8h2.4v-1.2h1v1.2h2.4v0.8h-2.4l0,0c0,1.1,1,2,2.6,2.4
					l-0.4,0.8c-1.2-0.3-2.2-0.9-2.6-1.8c-0.5,0.9-1.4,1.7-2.7,2L238.8,1768.3z M247.2,1763.8v10.8h-1v-10.8H247.2z"/>
				<path class="st5" d="M258.3,1763.8v5.8h-1v-2.4h-2.2c-0.2,1.3-1.3,2.1-2.7,2.1c-1.6,0-2.8-1-2.8-2.5s1.2-2.5,2.8-2.5
					c1.5,0,2.5,0.8,2.7,2.1h2.2v-2.6H258.3z M254.2,1766.7c0-1-0.8-1.7-1.8-1.7s-1.8,0.7-1.8,1.7s0.8,1.7,1.8,1.7
					S254.2,1767.7,254.2,1766.7z M257.3,1770h1v4.3h-6.9v-4.3h1v1.4h4.9V1770z M257.3,1772.2h-4.9v1.4h4.9V1772.2z"/>
				<path class="st5" d="M268.6,1769.5h-5v-5.1h1v1.7h3v-1.7h1V1769.5z M264.5,1770.8h7v3.7h-1v-2.9h-6V1770.8z M267.6,1766.9h-3
					v1.8h3V1766.9z M273.1,1767.3h-1.6v2.9h-1v-6.5h1v2.8h1.6V1767.3z"/>
				<path class="st5" d="M280.6,1769.2c-1.7,0.3-3.1,0.3-5.1,0.3h-0.9v-3.1h3.8v-1.4h-3.9v-0.8h4.8v2.9h-3.9v1.5
					c1.9,0,3.3-0.1,4.9-0.3L280.6,1769.2z M275.7,1770.7h6.8v3.7h-6.8V1770.7z M276.7,1773.6h4.9v-2.1h-4.9V1773.6z M284.1,1767.3
					h-1.6v2.8h-1v-6.4h1v2.7h1.6V1767.3z"/>
				<path class="st5" d="M289.3,1771.5c1,0,2.1-0.1,3-0.3l0.1,0.7c-2.4,0.4-5,0.4-7,0.4l-0.1-0.8c0.9,0,1.9,0,3,0v-1.2
					c-1.3-0.2-2.1-0.9-2.1-2c0-1.2,1.1-2,2.6-2s2.6,0.8,2.6,2c0,1.1-0.8,1.8-2.1,2V1771.5z M292,1765.9h-6.5v-0.8h2.8v-1.3h1v1.3
					h2.8L292,1765.9L292,1765.9z M288.8,1769.7c1,0,1.6-0.5,1.6-1.2c0-0.8-0.7-1.2-1.6-1.2c-1,0-1.7,0.5-1.7,1.2
					C287.1,1769.2,287.8,1769.7,288.8,1769.7z M294,1763.7v10.8h-1v-10.8H294z"/>
				<path class="st5" d="M302.8,1767c0,1.8,1.3,3.7,2.9,4.4l-0.6,0.8c-1.2-0.6-2.3-1.8-2.8-3.3c-0.5,1.6-1.5,2.9-2.8,3.5l-0.6-0.8
					c1.5-0.7,2.9-2.8,2.9-4.6v-1.4h-2.5v-0.8h6v0.8h-2.5V1767z M307.7,1763.8v10.7h-1v-10.7H307.7z"/>
				<path class="st5" d="M313,1769.5c-1.1,0-2.1,0.1-3,0.1l-0.1-0.8c2,0,4.7,0,6.9-0.3l0.1,0.7c-0.9,0.1-1.9,0.3-2.9,0.3v2.1h-1
					V1769.5z M310.8,1766c0-1.1,1.1-1.9,2.7-1.9s2.7,0.7,2.7,1.9c0,1.2-1.1,1.9-2.7,1.9S310.8,1767.2,310.8,1766z M319.1,1773.5v0.8
					h-7.6v-3.1h1v2.3L319.1,1773.5L319.1,1773.5z M311.7,1766c0,0.7,0.7,1.2,1.7,1.2s1.7-0.5,1.7-1.2s-0.7-1.1-1.7-1.1
					S311.7,1765.4,311.7,1766z M317.8,1770.1v-6.4h1v8.2h-1v-1.1h-2.2v-0.7H317.8z"/>
			</g>
			<g class="st0">
				<path class="st5" d="M199.4,1814c0-1,0.7-1.6,1.5-1.6s1.5,0.6,1.5,1.6s-0.7,1.6-1.5,1.6C200.1,1815.6,199.4,1815,199.4,1814z"/>
			</g>
			<g class="st0">
				<path class="st5" d="M215.6,1809.6h-6v-0.8h2.6v-1.2h1v1.2h2.5v0.8H215.6z M212.6,1814c-1.4,0-2.4-0.8-2.4-1.9
					c0-1.2,1-1.9,2.4-1.9s2.4,0.8,2.4,1.9S214,1814,212.6,1814z M212.6,1813.3c0.9,0,1.5-0.5,1.5-1.2s-0.6-1.2-1.5-1.2
					s-1.5,0.5-1.5,1.2S211.7,1813.3,212.6,1813.3z M217.4,1814.6h1v3.8h-7v-3.8h1v1.1h5V1814.6z M217.4,1816.4h-5v1.1h5V1816.4z
					 M218.4,1807.8v6.3h-1v-0.9h-1.8v-0.8h1.8v-1.3h-1.8v-0.8h1.8v-2.5L218.4,1807.8L218.4,1807.8z"/>
				<path class="st5" d="M226.3,1813.6c-1.3,0.2-2.4,0.3-4.6,0.3H221v-3.2h3.6v-1.5H221v-0.8h4.6v3H222v1.6c2,0,3,0,4.3-0.3V1813.6z
					 M222.2,1814.9h7.2v3.6h-1v-2.8h-6.2V1814.9z M229.4,1807.8v6.6h-1v-2h-2.1v-0.8h2.1v-1.4h-2.1v-0.8h2.1v-1.6L229.4,1807.8
					L229.4,1807.8z"/>
				<path class="st5" d="M235.2,1810.6c0,1.9,1.2,3.8,2.7,4.6l-0.6,0.8c-1.1-0.6-2.1-1.9-2.6-3.3c-0.5,1.6-1.5,2.9-2.7,3.6l-0.6-0.8
					c1.5-0.8,2.8-2.9,2.8-4.8v-1.9h1L235.2,1810.6L235.2,1810.6z M241.7,1812.9h-1.8v5.6h-1v-10.7h1v4.4h1.8V1812.9z"/>
				<path class="st5" d="M251.4,1813.8c-1.2-0.4-2.2-1.3-2.7-2.4c-0.5,1.2-1.5,2.2-2.7,2.7l-0.5-0.8c1.6-0.6,2.7-2,2.7-3.5v-0.4
					h-2.5v-0.8h5.9v0.8h-2.4v0.4c0,1.4,1.1,2.7,2.7,3.3L251.4,1813.8z M247,1814.8h7.2v3.7h-1v-2.9H247V1814.8z M254.2,1807.7v6.5
					h-1v-6.5H254.2z"/>
				<path class="st5" d="M259.4,1813.5c-1.1,0-2.1,0.1-3,0.1l-0.1-0.8c2,0,4.7,0,6.9-0.3l0.1,0.7c-0.9,0.1-1.9,0.3-2.9,0.3v2.1h-1
					V1813.5z M257.2,1810c0-1.1,1.1-1.9,2.7-1.9s2.7,0.7,2.7,1.9c0,1.2-1.1,1.9-2.7,1.9S257.2,1811.2,257.2,1810z M265.4,1817.5v0.8
					h-7.6v-3.1h1v2.3L265.4,1817.5L265.4,1817.5z M258.1,1810c0,0.7,0.7,1.2,1.7,1.2s1.7-0.5,1.7-1.2s-0.7-1.1-1.7-1.1
					S258.1,1809.4,258.1,1810z M264.2,1814.1v-6.4h1v8.2h-1v-1.1H262v-0.7H264.2z"/>
				<path class="st5" d="M275.5,1813.3v1h3.1v2.4h-6.3v1h6.6v0.7h-7.6v-2.5h6.3v-0.9h-6.3v-0.7h3.2v-1h-4.4v-0.8h9.7v0.8H275.5z
					 M270.6,1811.3c2-0.1,3.6-0.8,3.8-1.9h-3.3v-0.7h3.4v-1h1v1h3.4v0.7h-3.3c0.2,1.1,1.8,1.7,3.8,1.9l-0.3,0.7
					c-1.8-0.1-3.4-0.7-4-1.7c-0.7,1-2.3,1.5-4.1,1.7L270.6,1811.3z"/>
				<path class="st5" d="M285.2,1815.4c1-0.1,2-0.1,3-0.3l0.1,0.7c-2.4,0.5-5,0.5-7,0.5l-0.1-0.8c0.9,0,1.9,0,3,0v-1.8H282v-5h5.6
					v0.8H283v1.3h4.3v0.8H283v1.3h4.6v0.8h-2.4V1815.4z M289.9,1807.7v10.8h-1v-10.8H289.9z"/>
				<path class="st5" d="M301.9,1812.7v0.8h-9.8v-0.8h7.2c0.3-1.5,0.3-2.5,0.3-3.5l0,0h-6.3v-0.8h7.3v0.8c0,0.9,0,2-0.3,3.5H301.9z
					 M294.4,1817.4h6.6v0.8h-7.5v-3.5h1v2.7H294.4z"/>
			</g>
			<g class="st0">
				<path class="st5" d="M219.2,1834.2v0.8h-9.7v-0.8h2.4v-3.6h1v3.6h1.7v-3.6h1v3.6H219.2z M217.1,1827.6h-6.6v-0.8h7.6v1.2
					c0,1.4,0,2.8-0.4,4.8l-1-0.1c0.4-1.9,0.4-3.3,0.4-4.7V1827.6z"/>
				<path class="st5" d="M230.3,1831.4v0.8h-9.7v-0.8h4.4v-1.1h-3.1v-4.3h7.3v0.8h-6.3v1h6v0.7h-6v1.1h6.3v0.8H226v1.1L230.3,1831.4
					L230.3,1831.4z M229.1,1834.8c0,1.1-1.3,1.7-3.7,1.7s-3.7-0.6-3.7-1.7s1.3-1.7,3.7-1.7S229.1,1833.6,229.1,1834.8z
					 M228.1,1834.8c0-0.6-1-1-2.7-1s-2.7,0.3-2.7,1c0,0.6,1,1,2.7,1C227.2,1835.7,228.1,1835.4,228.1,1834.8z"/>
				<path class="st5" d="M238.1,1829c0,1.8,1.3,3.7,2.9,4.4l-0.6,0.8c-1.2-0.6-2.3-1.8-2.8-3.3c-0.5,1.6-1.5,2.9-2.8,3.5l-0.6-0.8
					c1.5-0.7,2.9-2.8,2.9-4.6v-1.4h-2.5v-0.8h6v0.8h-2.5L238.1,1829L238.1,1829z M243.1,1825.8v10.7h-1v-10.7H243.1z"/>
				<path class="st5" d="M248.4,1831.5c-1.1,0-2.1,0.1-3,0.1l-0.1-0.8c2,0,4.7,0,6.9-0.3l0.1,0.7c-0.9,0.1-1.9,0.3-2.9,0.3v2.1h-1
					V1831.5z M246.1,1828c0-1.1,1.1-1.9,2.7-1.9c1.6,0,2.7,0.7,2.7,1.9c0,1.2-1.1,1.9-2.7,1.9C247.2,1829.9,246.1,1829.2,246.1,1828
					z M254.4,1835.5v0.8h-7.6v-3.1h1v2.3L254.4,1835.5L254.4,1835.5z M247.1,1828c0,0.7,0.7,1.2,1.7,1.2s1.7-0.5,1.7-1.2
					s-0.7-1.1-1.7-1.1S247.1,1827.4,247.1,1828z M253.1,1832.1v-6.4h1v8.2h-1v-1.1H251v-0.7H253.1z"/>
			</g>
			<g class="st0">
				<path class="st5" d="M219.3,1874.8h-4.4v4.6h-1v-4.6h-4.3v-0.8h7.1c0.3-1.5,0.3-2.7,0.3-3.7v-0.1h-6.3v-0.8h7.2v0.9
					c0,1,0,2.1-0.3,3.7h1.6L219.3,1874.8L219.3,1874.8z"/>
				<path class="st5" d="M220.9,1869.9h4.1v6.6h-4.1V1869.9z M221.9,1875.8h2.3v-5.1h-2.3V1875.8z M229.7,1868.7v10.7h-0.9v-5.7
					h-1.5v5.2h-0.9v-10h0.9v4h1.5v-4.3h0.9V1868.7z"/>
				<path class="st5" d="M237.3,1874.5c-1.2-0.4-2.1-1.3-2.6-2.4c-0.4,1.3-1.4,2.2-2.7,2.7l-0.5-0.8c1.6-0.6,2.7-2.1,2.7-3.7v-1.1h1
					v1.2c0,1.5,1.1,2.8,2.6,3.3L237.3,1874.5z M240.1,1877.5c0,1.2-1.4,2-3.5,2c-2.2,0-3.6-0.7-3.6-2s1.4-2,3.6-2
					C238.7,1875.5,240.1,1876.2,240.1,1877.5z M239.1,1877.5c0-0.8-1-1.2-2.6-1.2s-2.6,0.4-2.6,1.2c0,0.7,1,1.2,2.6,1.2
					S239.1,1878.2,239.1,1877.5z M241.5,1871.5v0.8h-1.6v2.9h-1v-6.5h1v2.8L241.5,1871.5L241.5,1871.5z"/>
				<path class="st5" d="M249,1873.8c-1.5,0.3-2.7,0.4-5,0.4h-0.8v-4.8h4.7v0.8h-3.8v3.2c2.1,0,3.3-0.1,4.7-0.4L249,1873.8z
					 M244.2,1875.4h6.8v3.9h-6.8V1875.4z M245.2,1878.5h4.8v-2.4h-4.8V1878.5z M252.6,1872.1H251v2.7h-1v-6.1h1v2.6h1.6V1872.1z"/>
				<path class="st5" d="M257.7,1876.5c1,0,2.1-0.1,3-0.3l0.1,0.7c-2.4,0.4-5,0.4-7,0.4l-0.1-0.8c0.9,0,1.9,0,3,0v-1.2
					c-1.3-0.2-2.1-0.9-2.1-2c0-1.2,1.1-2,2.6-2s2.6,0.8,2.6,2c0,1.1-0.8,1.8-2.1,2V1876.5z M260.5,1870.8H254v-0.8h2.8v-1.3h1v1.3
					h2.8L260.5,1870.8L260.5,1870.8z M257.2,1874.6c1,0,1.6-0.5,1.6-1.2c0-0.8-0.7-1.2-1.6-1.2c-1,0-1.7,0.5-1.7,1.2
					C255.6,1874.1,256.3,1874.6,257.2,1874.6z M262.4,1868.7v10.8h-1v-10.8H262.4z"/>
				<path class="st5" d="M273.2,1874.6c-1.2-0.4-2.2-1.2-2.6-2.2c-0.5,1.1-1.4,2-2.7,2.4l-0.5-0.8c1.6-0.5,2.7-1.7,2.7-3.2v-0.2
					h-2.4v-0.8h2.4v-1.3h1v1.3h2.4v0.8h-2.4v0.2c0,1.3,1,2.5,2.6,3L273.2,1874.6z M269,1875.6h6.8v3.7H269V1875.6z M270,1878.5h4.8
					v-2.2H270V1878.5z M277.4,1872.2h-1.6v2.8h-1v-6.4h1v2.7h1.6V1872.2z"/>
				<path class="st5" d="M284.2,1874.6c-1.2-0.5-2.1-1.4-2.6-2.5c-0.5,1.3-1.4,2.2-2.7,2.7l-0.5-0.8c1.6-0.6,2.7-2,2.7-3.7v-1.1h1
					v1.2c0,1.5,1.1,2.9,2.6,3.4L284.2,1874.6z M280.1,1875.6h7.2v3.8h-1v-3h-6.2V1875.6z M287.3,1868.7v6.3h-1v-3.3H284v-0.8h2.3
					v-2.2H287.3z"/>
			</g>
			<g class="st0">
				<path class="st5" d="M213.1,1891c0,1.7,1.2,3.6,2.8,4.4l-0.6,0.8c-1.2-0.6-2.2-1.9-2.7-3.3c-0.5,1.6-1.5,2.9-2.7,3.6l-0.6-0.8
					c1.5-0.8,2.8-2.8,2.8-4.6v-1.4h-2.5v-0.8h5.8v0.8H213L213.1,1891L213.1,1891z M219.6,1892.9h-1.8v5.6h-1v-10.7h1v4.3h1.8V1892.9
					z"/>
				<path class="st5" d="M223.7,1891c0,1.7,0.9,3.5,2.3,4.3l-0.6,0.7c-1-0.6-1.8-1.7-2.2-3c-0.4,1.4-1.1,2.6-2.2,3.2l-0.6-0.7
					c1.5-0.9,2.3-2.7,2.3-4.5v-0.5h-2v-0.8h2v-1.6h0.9v1.6h2v0.8h-2v0.5H223.7z M226.6,1887.9h0.9v9.9h-0.9v-5.1H225v-0.8h1.6
					V1887.9z M229.7,1887.7v10.7h-0.9v-10.7H229.7z"/>
				<path class="st5" d="M237.9,1890.6c0,1.9,1.2,3.8,2.7,4.6l-0.6,0.8c-1.1-0.6-2.1-1.9-2.6-3.3c-0.5,1.6-1.5,2.9-2.7,3.6l-0.6-0.8
					c1.5-0.8,2.8-2.9,2.8-4.8v-1.9h1L237.9,1890.6L237.9,1890.6z M244.3,1892.9h-1.8v5.6h-1v-10.7h1v4.4h1.8V1892.9z"/>
				<path class="st5" d="M254.2,1887.7v5.8h-1v-2.4H251c-0.2,1.3-1.3,2.1-2.7,2.1c-1.6,0-2.8-1-2.8-2.5s1.2-2.5,2.8-2.5
					c1.5,0,2.5,0.8,2.7,2.1h2.2v-2.6H254.2z M250.1,1890.7c0-1-0.8-1.7-1.8-1.7s-1.8,0.7-1.8,1.7s0.8,1.7,1.8,1.7
					S250.1,1891.7,250.1,1890.7z M253.2,1894h1v4.3h-6.9v-4.3h1v1.4h4.9V1894z M253.2,1896.1h-4.9v1.4h4.9V1896.1z"/>
				<path class="st5" d="M266.1,1892.3v0.8h-9.7v-0.8H266.1z M257.4,1889.7c0-1.2,1.4-1.9,3.8-1.9s3.8,0.7,3.8,1.9
					c0,1.2-1.4,1.9-3.8,1.9S257.4,1891,257.4,1889.7z M258.5,1897.6h6.6v0.8h-7.6v-2.6h6.3v-1h-6.3v-0.7h7.3v2.4h-6.3V1897.6z
					 M258.5,1889.7c0,0.7,1,1.1,2.8,1.1s2.8-0.4,2.8-1.1s-1-1.1-2.8-1.1S258.5,1889,258.5,1889.7z"/>
				<path class="st5" d="M279.8,1893.4v0.8h-9.7v-0.8h4.4v-1.1h-3.1v-4.3h7.3v0.8h-6.3v1h6v0.7h-6v1.1h6.3v0.8h-3.2v1.1
					L279.8,1893.4L279.8,1893.4z M278.6,1896.7c0,1.1-1.3,1.7-3.7,1.7c-2.3,0-3.7-0.6-3.7-1.7s1.3-1.7,3.7-1.7
					C277.3,1895,278.6,1895.6,278.6,1896.7z M277.7,1896.7c0-0.6-1-1-2.7-1s-2.7,0.3-2.7,1c0,0.6,1,1,2.7,1
					S277.7,1897.4,277.7,1896.7z"/>
				<path class="st5" d="M287.5,1889.8h-6.3v-0.8h2.7v-1.3h1v1.3h2.7v0.8H287.5z M284.3,1894.4c-1.5,0-2.6-0.8-2.6-2s1-2,2.6-2
					c1.5,0,2.6,0.8,2.6,2S285.9,1894.4,284.3,1894.4z M284.3,1893.6c1,0,1.6-0.5,1.6-1.2s-0.7-1.2-1.6-1.2s-1.6,0.5-1.6,1.2
					C282.7,1893.1,283.4,1893.6,284.3,1893.6z M283.8,1897.4h6.2v0.8h-7.2v-3.1h1V1897.4z M291.1,1891.2v0.8h-1.6v3.7h-1v-8.1h1v3.5
					L291.1,1891.2L291.1,1891.2z"/>
				<path class="st5" d="M300.2,1893.5v1.2c2,0.1,3.2,0.8,3.2,1.9c0,1.2-1.4,1.9-3.7,1.9c-2.3,0-3.7-0.7-3.7-1.9
					c0-1.1,1.2-1.8,3.2-1.9v-1.2h-4.4v-0.8h9.7v0.8H300.2z M295.4,1891.3c1.9-0.2,3.6-1.1,3.7-2.3h-3.3v-0.8h8v0.8h-3.3
					c0.1,1.2,1.8,2.1,3.7,2.3l-0.3,0.8c-1.8-0.2-3.4-1-4-2.2c-0.6,1.2-2.2,2-4,2.2L295.4,1891.3z M299.7,1895.4
					c-1.7,0-2.7,0.4-2.7,1.1s1,1.1,2.7,1.1s2.7-0.4,2.7-1.1S301.4,1895.4,299.7,1895.4z"/>
				<path class="st5" d="M315.7,1896.2v0.8h-9.8v-0.8h4.3v-2.6h1v2.6H315.7z M314.8,1893.8c-1.6-0.3-3.3-1.5-4-3
					c-0.7,1.5-2.4,2.7-4,3l-0.4-0.8c1.9-0.3,3.9-1.9,3.9-3.7v-0.8h1v0.8c0,1.8,2.1,3.4,3.9,3.7L314.8,1893.8z"/>
				<path class="st5" d="M322.6,1888.9c0,3.1-1.4,5.8-5,7.6l-0.5-0.8c2.9-1.4,4.3-3.4,4.5-6h-4v-0.8L322.6,1888.9L322.6,1888.9z
					 M325.8,1887.7v10.8h-1v-10.8H325.8z"/>
				<path class="st5" d="M336.8,1887.7v5.8h-1v-2.4h-2.2c-0.2,1.3-1.3,2.1-2.7,2.1c-1.6,0-2.8-1-2.8-2.5s1.2-2.5,2.8-2.5
					c1.5,0,2.5,0.8,2.7,2.1h2.2v-2.6H336.8z M332.8,1890.7c0-1-0.8-1.7-1.8-1.7s-1.8,0.7-1.8,1.7s0.8,1.7,1.8,1.7
					S332.8,1891.7,332.8,1890.7z M335.9,1894h1v4.3H330v-4.3h1v1.4h4.9V1894z M335.9,1896.1H331v1.4h4.9V1896.1z"/>
			</g>
			<g class="st0">
				<path class="st5" d="M209.6,1914.3c2,0,4.7,0,7-0.4l0.1,0.7c-2.4,0.4-5,0.5-7,0.5L209.6,1914.3z M215.9,1910
					c0,1.5-1.2,2.5-2.9,2.5s-2.9-1-2.9-2.5s1.2-2.5,2.9-2.5S215.9,1908.5,215.9,1910z M211.1,1910c0,1,0.8,1.7,1.9,1.7
					c1.1,0,1.9-0.7,1.9-1.7s-0.8-1.7-1.9-1.7C211.9,1908.3,211.1,1909,211.1,1910z M218.3,1906.7v10.8h-1v-10.8H218.3z"/>
				<path class="st5" d="M229.2,1912.8c-1.2-0.5-2.2-1.4-2.7-2.7c-0.5,1.3-1.4,2.4-2.7,2.9l-0.5-0.8c1.6-0.6,2.7-2.2,2.7-3.9v-1.1h1
					v1.1c0,1.6,1.1,3.1,2.7,3.7L229.2,1912.8z M232.4,1916.4v0.8h-7.2v-3.4h1v2.6H232.4z M232.1,1914.6h-1v-7.9h1V1914.6z"/>
				<path class="st5" d="M244,1912.9h-2.6v4.6h-1v-4.6h-2.7v4.6h-1v-4.6h-2.5v-0.8h7.1c0.3-1.7,0.3-2.9,0.3-3.9h-6.2v-0.8h7.2v0.8
					c0,1,0,2.2-0.3,3.9h1.7V1912.9z"/>
				<path class="st5" d="M250.7,1907.9c0,3.1-1.3,5.8-4.8,7.5l-0.5-0.8c2.9-1.4,4.2-3.5,4.4-6h-3.9v-0.8h4.8V1907.9z M254.2,1906.7
					v10.7h-1v-5.6h-2.5v-0.8h2.5v-4.3L254.2,1906.7L254.2,1906.7z"/>
				<path class="st5" d="M257.7,1914.1c1.2,0,2.4-0.1,3.7-0.3l0.1,0.8c-1.5,0.3-2.7,0.3-4,0.3h-0.7v-4h3v-2.2h-3.1v-0.8h4v3.8h-3.1
					v2.4H257.7z M265.5,1906.7v10.7h-0.9v-5.7H263v5.2h-0.9v-10h0.9v4h1.5v-4.2H265.5z"/>
				<path class="st5" d="M270.5,1907.9h4.1v6.6h-4.1V1907.9z M271.4,1913.8h2.3v-5.1h-2.3V1913.8z M279.2,1906.7v10.7h-0.9v-5.7
					h-1.5v5.2h-0.9v-10h0.9v4h1.5v-4.3h0.9V1906.7z"/>
				<path class="st5" d="M286.5,1912.2v1h3.1v2.4h-6.3v1h6.6v0.7h-7.6v-2.5h6.3v-0.9h-6.3v-0.7h3.2v-1h-4.4v-0.8h9.7v0.8H286.5z
					 M281.7,1910.2c2-0.1,3.6-0.8,3.8-1.9h-3.3v-0.7h3.4v-1h1v1h3.4v0.7h-3.3c0.2,1.1,1.8,1.7,3.8,1.9l-0.3,0.7
					c-1.8-0.1-3.4-0.7-4-1.7c-0.7,1-2.3,1.5-4.1,1.7L281.7,1910.2z"/>
				<path class="st5" d="M300.3,1911.8h-5v-4.7h1v1.5h3v-1.5h1V1911.8z M299.3,1909.4h-3v1.6h3V1909.4z M297.4,1916.6h6.2v0.8h-7.2
					v-2.7h5.8v-1.1h-5.9v-0.8h6.8v2.6h-5.8v1.2H297.4z M304.8,1909v0.8h-1.6v2.4h-1v-5.6h1v2.3L304.8,1909L304.8,1909z"/>
				<path class="st5" d="M310.8,1912.5c-1-0.4-1.7-1.2-2.1-2.1c-0.4,1-1.2,1.9-2.2,2.4l-0.5-0.8c1.4-0.6,2.2-2,2.2-3.2v-1.5h0.9v1.5
					c0,1.2,0.8,2.4,2.2,2.9L310.8,1912.5z M315,1915.5c0,1.2-1.4,1.9-3.6,1.9s-3.6-0.7-3.6-1.9c0-1.2,1.4-1.9,3.6-1.9
					C313.7,1913.6,315,1914.3,315,1915.5z M314.1,1915.5c0-0.7-1-1.2-2.6-1.2s-2.6,0.4-2.6,1.2c0,0.7,1,1.2,2.6,1.2
					S314.1,1916.3,314.1,1915.5z M312.7,1913h-0.9v-6.1h0.9v2.7h1.4v-2.9h0.9v6.6h-1v-3h-1.4v2.7H312.7z"/>
			</g>
			<g class="st0">
				<path class="st5" d="M215.2,1961.1c-1.2-0.4-2.1-1.3-2.6-2.4c-0.4,1.3-1.4,2.2-2.7,2.7l-0.5-0.8c1.6-0.6,2.7-2.1,2.7-3.7v-1.1h1
					v1.2c0,1.5,1.1,2.8,2.6,3.3L215.2,1961.1z M218,1964c0,1.2-1.4,2-3.5,2c-2.2,0-3.6-0.7-3.6-2s1.4-2,3.6-2
					C216.6,1962.1,218,1962.8,218,1964z M217,1964c0-0.8-1-1.2-2.6-1.2s-2.6,0.4-2.6,1.2c0,0.7,1,1.2,2.6,1.2S217,1964.8,217,1964z
					 M219.5,1958v0.8h-1.6v2.9h-1v-6.5h1v2.8L219.5,1958L219.5,1958z"/>
				<path class="st5" d="M225.4,1961c-1-0.4-1.7-1.2-2.1-2.1c-0.4,1-1.2,1.9-2.2,2.4l-0.5-0.8c1.4-0.6,2.2-2,2.2-3.2v-1.5h0.9v1.5
					c0,1.2,0.8,2.4,2.2,2.9L225.4,1961z M229.7,1964c0,1.2-1.4,1.9-3.6,1.9c-2.2,0-3.6-0.7-3.6-1.9c0-1.2,1.4-1.9,3.6-1.9
					S229.7,1962.8,229.7,1964z M228.7,1964c0-0.7-1-1.2-2.6-1.2s-2.6,0.4-2.6,1.2c0,0.7,1,1.2,2.6,1.2S228.7,1964.8,228.7,1964z
					 M227.3,1961.5h-0.9v-6.1h0.9v2.7h1.4v-2.9h0.9v6.6h-0.9v-3h-1.4V1961.5z"/>
				<path class="st5" d="M236.8,1957.6c-0.7,1.7-2.3,2.8-4.7,3.4l-0.4-0.8c2.6-0.6,4.1-1.9,4.3-3.6h-3.7v-0.8h4.8c0,0.4,0,0.7-0.1,1
					h2.4v-1.6h1v5.5h-1v-1.1h-2.8v-0.8h2.8v-1.3h-2.6V1957.6z M240.8,1965.1v0.8h-7.3v-2.8h5.9v-1.1h-5.9v-0.8h6.9v2.6h-5.9v1.2h6.3
					V1965.1z"/>
				<path class="st5" d="M245.8,1958.3c0,1.9,0.8,3.7,2.3,4.6l-0.6,0.7c-1-0.6-1.8-1.8-2.2-3.1c-0.4,1.5-1.2,2.7-2.2,3.4l-0.6-0.7
					c1.5-0.9,2.3-2.9,2.3-4.8v-1h-2v-0.8h4.9v0.8h-1.9V1958.3z M248.7,1955.5h0.9v10h-0.9v-5.5h-1.8v-0.8h1.8V1955.5z M251.8,1955.2
					v10.8h-0.9v-10.8H251.8z"/>
				<path class="st5" d="M260.2,1958.1c0,2,1.3,3.9,2.9,4.7l-0.6,0.8c-1.2-0.6-2.3-1.9-2.8-3.4c-0.5,1.6-1.5,3-2.8,3.6l-0.6-0.8
					c1.6-0.8,2.9-2.8,2.9-4.9v-1.9h1V1958.1z M265.2,1955.2v10.8h-1v-10.8H265.2z"/>
				<path class="st5" d="M277.2,1963.7v0.8h-9.8v-0.8H277.2z M276.2,1961.5c-1.6-0.4-3.3-1.5-4-3.1c-0.7,1.6-2.4,2.7-4,3.1l-0.4-0.8
					c1.9-0.4,3.9-2,3.9-3.8v-0.8h1v0.8c0,1.8,2,3.5,3.9,3.8L276.2,1961.5z"/>
				<path class="st5" d="M283.6,1960.8c-1.2,0.2-2.2,0.3-4,0.3h-0.7v-5.1h4.1v0.8h-3.1v1.3h2.7v0.8h-2.7v1.5c1.5,0,2.5-0.1,3.6-0.3
					L283.6,1960.8z M280.5,1962.2h7.1v3.6h-7.1V1962.2z M281.4,1965.1h5.1v-2.1h-5.1V1965.1z M284.5,1958.7h-1.4v-0.8h1.4v-2.5h0.9
					v6.2h-0.9V1958.7z M287.5,1955.2v6.5h-0.9v-6.5H287.5z"/>
				<path class="st5" d="M301.9,1960.7v0.8h-4.3v2.2h-1v-2.2h-4.5v-0.8H301.9z M293.3,1957.7c0-1.3,1.5-2.2,3.8-2.2s3.8,0.8,3.8,2.2
					c0,1.3-1.5,2.2-3.8,2.2C294.8,1959.8,293.3,1959,293.3,1957.7z M294.4,1964.9h6.5v0.8h-7.4v-3.1h1v2.3H294.4z M294.3,1957.7
					c0,0.8,1.1,1.4,2.7,1.4c1.7,0,2.7-0.5,2.7-1.4s-1.1-1.4-2.7-1.4C295.4,1956.3,294.3,1956.8,294.3,1957.7z"/>
				<path class="st5" d="M312.9,1960.6v0.8h-9.7v-0.8h2.4v-1.5c-0.9-0.3-1.3-0.9-1.3-1.6c0-1.3,1.5-2,3.8-2s3.8,0.7,3.8,2
					c0,0.7-0.5,1.3-1.3,1.6v1.5H312.9z M311.8,1964.1c0,1.2-1.4,1.9-3.7,1.9c-2.3,0-3.7-0.7-3.7-1.9s1.4-1.9,3.7-1.9
					S311.8,1962.8,311.8,1964.1z M308.1,1958.7c1.7,0,2.8-0.5,2.8-1.2c0-0.8-1.1-1.2-2.8-1.2c-1.7,0-2.8,0.5-2.8,1.2
					C305.3,1958.2,306.4,1958.7,308.1,1958.7z M310.8,1964.1c0-0.7-1-1.2-2.7-1.2s-2.7,0.4-2.7,1.2s1,1.2,2.7,1.2
					C309.8,1965.2,310.8,1964.8,310.8,1964.1z M306.6,1960.6h3v-1.3c-0.4,0.1-0.9,0.1-1.5,0.1c-0.5,0-1,0-1.5-0.1V1960.6z"/>
			</g>
			<g class="st0">
				<path class="st5" d="M215.6,2065.6h-6v-0.8h2.6v-1.2h1v1.2h2.5v0.8H215.6z M212.6,2070c-1.4,0-2.4-0.8-2.4-1.9
					c0-1.2,1-1.9,2.4-1.9s2.4,0.8,2.4,1.9S214,2070,212.6,2070z M212.6,2069.3c0.9,0,1.5-0.5,1.5-1.2s-0.6-1.2-1.5-1.2
					s-1.5,0.5-1.5,1.2S211.7,2069.3,212.6,2069.3z M217.4,2070.6h1v3.8h-7v-3.8h1v1.1h5V2070.6z M217.4,2072.4h-5v1.1h5V2072.4z
					 M218.4,2063.8v6.3h-1v-0.9h-1.8v-0.8h1.8v-1.3h-1.8v-0.8h1.8v-2.5H218.4z"/>
				<path class="st5" d="M226.3,2069.6c-1.3,0.2-2.4,0.3-4.6,0.3H221v-3.2h3.6v-1.5H221v-0.8h4.6v3H222v1.6c2,0,3,0,4.3-0.3V2069.6z
					 M222.2,2070.9h7.2v3.6h-1v-2.8h-6.2V2070.9z M229.4,2063.8v6.6h-1v-2h-2.1v-0.8h2.1v-1.4h-2.1v-0.8h2.1v-1.6H229.4z"/>
				<path class="st5" d="M235.2,2066.6c0,1.9,1.2,3.8,2.7,4.6l-0.6,0.8c-1.1-0.6-2.1-1.9-2.6-3.3c-0.5,1.6-1.5,2.9-2.7,3.6l-0.6-0.8
					c1.5-0.8,2.8-2.9,2.8-4.8v-1.9h1L235.2,2066.6L235.2,2066.6z M241.7,2068.9h-1.8v5.6h-1v-10.7h1v4.4h1.8V2068.9z"/>
				<path class="st5" d="M250.8,2069.4h-5v-5h1v1.6h3v-1.6h1V2069.4z M253.8,2072.5c0,1.3-1.4,2-3.5,2c-2.2,0-3.5-0.7-3.5-2
					s1.4-2,3.5-2C252.4,2070.5,253.8,2071.2,253.8,2072.5z M249.8,2066.8h-3v1.8h3V2066.8z M252.8,2072.5c0-0.8-1-1.2-2.6-1.2
					s-2.6,0.4-2.6,1.2s1,1.2,2.6,1.2S252.8,2073.3,252.8,2072.5z M255.3,2066.4v0.8h-1.6v3h-1v-6.5h1v2.7H255.3z"/>
				<path class="st5" d="M265.2,2063.7v6.3h-1v-1.5h-2.7c-0.5,0.6-1.3,1-2.2,1c-1.6,0-2.8-1.1-2.8-2.6s1.2-2.6,2.8-2.6
					c0.9,0,1.7,0.4,2.2,1h2.7v-1.6L265.2,2063.7z M261.1,2066.9c0-1-0.8-1.7-1.8-1.7s-1.8,0.7-1.8,1.7s0.8,1.8,1.8,1.8
					C260.4,2068.7,261.1,2067.9,261.1,2066.9z M258,2070.7h7.2v3.8h-1v-3H258V2070.7z M264.2,2067.7v-1.6h-2.3
					c0.1,0.3,0.1,0.5,0.1,0.8s0,0.6-0.1,0.8H264.2z"/>
				<path class="st5" d="M277.1,2069.1v0.8h-9.7v-0.8h2.4v-1.5c-0.9-0.3-1.3-0.9-1.3-1.6c0-1.3,1.5-2,3.8-2s3.8,0.7,3.8,2
					c0,0.7-0.5,1.3-1.3,1.6v1.5H277.1z M275.9,2072.6c0,1.2-1.4,1.9-3.7,1.9c-2.3,0-3.7-0.7-3.7-1.9s1.4-1.9,3.7-1.9
					C274.6,2070.7,275.9,2071.3,275.9,2072.6z M272.3,2067.2c1.7,0,2.8-0.5,2.8-1.2c0-0.8-1.1-1.2-2.8-1.2s-2.8,0.5-2.8,1.2
					S270.6,2067.2,272.3,2067.2z M275,2072.6c0-0.7-1-1.2-2.7-1.2s-2.7,0.4-2.7,1.2s1,1.2,2.7,1.2
					C273.9,2073.7,275,2073.3,275,2072.6z M270.8,2069.1h3v-1.3c-0.4,0.1-0.9,0.1-1.5,0.1c-0.5,0-1,0-1.5-0.1V2069.1z"/>
				<path class="st5" d="M283.8,2069.7v1.3h3.2v3.4h-7.3v-3.4h3.2v-1.3h-4.4v-0.8h9.7v0.8H283.8z M281,2064.9h-1.6v-0.8h7.9v0.8
					h-1.6v2.3h1.6v0.8h-7.8v-0.8h1.6v-2.3H281z M286,2071.8h-5.4v1.8h5.4V2071.8z M284.6,2064.9H282v2.3h2.7v-2.3H284.6z"/>
				<path class="st5" d="M296,2067c0,1.8,1.3,3.7,2.9,4.4l-0.6,0.8c-1.2-0.6-2.3-1.8-2.8-3.3c-0.5,1.6-1.5,2.9-2.8,3.5l-0.6-0.8
					c1.5-0.7,2.9-2.8,2.9-4.6v-1.4h-2.5v-0.8h6v0.8H296V2067z M301,2063.8v10.7h-1v-10.7H301z"/>
				<path class="st5" d="M306.3,2069.5c-1.1,0-2.1,0.1-3,0.1l-0.1-0.8c2,0,4.7,0,6.9-0.3l0.1,0.7c-0.9,0.1-1.9,0.3-2.9,0.3v2.1h-1
					V2069.5z M304,2066c0-1.1,1.1-1.9,2.7-1.9s2.7,0.7,2.7,1.9s-1.1,1.9-2.7,1.9S304,2067.2,304,2066z M312.3,2073.5v0.8h-7.6v-3.1
					h1v2.3H312.3z M304.9,2066c0,0.7,0.7,1.2,1.7,1.2s1.7-0.5,1.7-1.2s-0.7-1.1-1.7-1.1S304.9,2065.4,304.9,2066z M311,2070.1v-6.4
					h1v8.2h-1v-1.1h-2.2v-0.7H311z"/>
			</g>
			<g class="st0">
				<path class="st5" d="M213.4,2086c0,1.8,1.3,3.7,2.9,4.4l-0.6,0.8c-1.2-0.6-2.3-1.8-2.8-3.3c-0.5,1.6-1.5,2.9-2.8,3.5l-0.6-0.8
					c1.5-0.7,2.9-2.8,2.9-4.6v-1.4h-2.5v-0.8h6v0.8h-2.5L213.4,2086L213.4,2086z M218.3,2082.8v10.7h-1v-10.7H218.3z"/>
				<path class="st5" d="M229.4,2082.7v6.3h-1v-1.5h-2.7c-0.5,0.6-1.3,1-2.2,1c-1.6,0-2.8-1.1-2.8-2.6s1.2-2.6,2.8-2.6
					c0.9,0,1.7,0.4,2.2,1h2.7v-1.6L229.4,2082.7z M225.3,2085.9c0-1-0.8-1.7-1.8-1.7s-1.8,0.7-1.8,1.7s0.8,1.8,1.8,1.8
					S225.3,2086.9,225.3,2085.9z M222.2,2089.7h7.2v3.8h-1v-3h-6.2V2089.7z M228.4,2086.7v-1.6h-2.3c0.1,0.3,0.1,0.5,0.1,0.8
					s0,0.6-0.1,0.8H228.4z"/>
				<path class="st5" d="M235.2,2085.6c0,1.9,1.2,3.8,2.7,4.6l-0.6,0.8c-1.1-0.6-2.1-1.9-2.6-3.3c-0.5,1.6-1.5,2.9-2.7,3.6l-0.6-0.8
					c1.5-0.8,2.8-2.9,2.8-4.8v-1.9h1L235.2,2085.6L235.2,2085.6z M241.7,2087.9h-1.8v5.6h-1v-10.7h1v4.4h1.8V2087.9z"/>
				<path class="st5" d="M246.7,2090.5c1,0,2.1-0.1,3-0.3l0.1,0.7c-2.4,0.4-5,0.4-7,0.4l-0.1-0.8c0.9,0,1.9,0,3,0v-1.2
					c-1.3-0.2-2.1-0.9-2.1-2c0-1.2,1.1-2,2.6-2s2.6,0.8,2.6,2c0,1.1-0.8,1.8-2.1,2V2090.5z M249.5,2084.9H243v-0.8h2.8v-1.3h1v1.3
					h2.8v0.8H249.5z M246.2,2088.7c1,0,1.6-0.5,1.6-1.2c0-0.8-0.7-1.2-1.6-1.2c-1,0-1.7,0.5-1.7,1.2S245.2,2088.7,246.2,2088.7z
					 M251.4,2082.7v10.8h-1v-10.8H251.4z"/>
				<path class="st5" d="M266.1,2091.2v0.8h-9.7v-0.8h3.8v-2.8h1v2.8H266.1z M263.9,2086.4c0-0.6,0-1.1,0-1.6v-0.2h-6.4v-0.8h7.4v1
					c0,1.3,0,2.8-0.5,5l-1-0.1c0.2-1,0.3-1.8,0.4-2.5l-6.5,0.3l-0.1-0.8L263.9,2086.4z"/>
				<path class="st5" d="M277.2,2091.4v0.8h-9.8v-0.8h4.4v-2h-3.2v-3.3h6.4v-1.7h-6.4v-0.8h7.4v3.3h-6.4v1.7h6.6v0.8h-3.4v2H277.2z"
					/>
				<path class="st5" d="M279.9,2089.9c1.5,0,3.1-0.1,4.9-0.5l0.1,0.8c-1.8,0.4-3.5,0.5-5.1,0.5h-0.9v-7h1V2089.9z M288.5,2087.8
					h-1.7v5.6h-1v-10.8h1v4.3h1.7V2087.8z"/>
				<path class="st5" d="M301.9,2087.3v0.8h-9.8v-0.8h7.2c0.3-1.4,0.3-2.4,0.3-3.2h-6.3v-0.8h7.3v0.7c0,0.8,0,1.9-0.3,3.3H301.9z
					 M293.2,2089.7h7.5v3.9h-1v-3.1h-6.5V2089.7z"/>
				<path class="st5" d="M312.9,2088.3v0.8h-9.7v-0.8h4.4v-1.3h-3.1v-4h1v1.2h5.2v-1.2h1v4h-3.1v1.3H312.9z M304.3,2090.1h7.4v3.4
					h-1v-2.6h-6.5v-0.8H304.3z M305.5,2086.2h5.2v-1.2h-5.2V2086.2z"/>
			</g>
			<g class="st0">
				<path class="st5" d="M215.2,2102.9c0,3.1-1.4,5.8-5,7.6l-0.5-0.8c2.9-1.4,4.3-3.4,4.5-6h-4v-0.8H215.2z M218.3,2101.7v10.8h-1
					v-10.8H218.3z"/>
				<path class="st5" d="M230.3,2108.9h-4.4v3.6h-1v-3.6h-4.4v-0.8h9.8L230.3,2108.9L230.3,2108.9z M229.1,2106.8h-7.3v-4.7h1v1.5
					h5.3v-1.5h1V2106.8z M228.1,2104.4h-5.3v1.6h5.3V2104.4z"/>
				<path class="st5" d="M241.4,2106.3v0.8h-9.8v-0.8h7.2c0.3-1.3,0.3-2.3,0.3-3.2h-6.3v-0.8h7.3v0.8c0,0.8,0,1.8-0.3,3.2H241.4z
					 M232.8,2108.5h7.3v3.8h-7.3V2108.5z M233.8,2111.6h5.4v-2.2h-5.4V2111.6z"/>
				<path class="st5" d="M249.2,2105c0,1.8,1.3,3.7,2.9,4.4l-0.6,0.8c-1.2-0.6-2.3-1.8-2.8-3.3c-0.5,1.6-1.5,2.9-2.8,3.5l-0.6-0.8
					c1.5-0.7,2.9-2.8,2.9-4.6v-1.4h-2.5v-0.8h6v0.8h-2.5L249.2,2105L249.2,2105z M254.1,2101.8v10.7h-1v-10.7H254.1z"/>
				<path class="st5" d="M259.4,2107.5c-1.1,0-2.1,0.1-3,0.1l-0.1-0.8c2,0,4.7,0,6.9-0.3l0.1,0.7c-0.9,0.1-1.9,0.3-2.9,0.3v2.1h-1
					V2107.5z M257.2,2104c0-1.1,1.1-1.9,2.7-1.9s2.7,0.7,2.7,1.9s-1.1,1.9-2.7,1.9S257.2,2105.2,257.2,2104z M265.4,2111.5v0.8h-7.6
					v-3.1h1v2.3H265.4z M258.1,2104c0,0.7,0.7,1.2,1.7,1.2s1.7-0.5,1.7-1.2s-0.7-1.1-1.7-1.1S258.1,2103.4,258.1,2104z
					 M264.2,2108.1v-6.4h1v8.2h-1v-1.1H262v-0.7H264.2z"/>
			</g>
			<g class="st0">
				<path class="st5" d="M215.4,2010.8c-1.2-0.4-2.2-1.2-2.7-2.2c-0.5,1.1-1.4,2-2.7,2.5l-0.5-0.8c1.6-0.5,2.7-1.8,2.7-3.2v-0.2
					h-2.4v-0.8h2.4v-1.4h1v1.4h2.4v0.8h-2.4v0.2c0,1.3,1,2.5,2.6,3L215.4,2010.8z M218,2013.5c0,1.2-1.3,1.9-3.5,1.9
					s-3.6-0.7-3.6-1.9c0-1.2,1.3-1.9,3.6-1.9C216.6,2011.6,218,2012.3,218,2013.5z M217,2013.5c0-0.7-1-1.2-2.6-1.2
					s-2.6,0.4-2.6,1.2s1,1.2,2.6,1.2S217,2014.3,217,2013.5z M219.5,2007.5v0.8h-1.6v3h-1v-6.6h1v2.8L219.5,2007.5L219.5,2007.5z"/>
				<path class="st5" d="M227.2,2010.1c-1.8,0.3-3.2,0.3-5.2,0.3h-0.9v-3h3.9v-1.4h-3.9v-0.8h4.9v2.9h-3.9v1.5c1.9,0,3.3-0.1,5-0.3
					L227.2,2010.1z M228.4,2011.2h1v4.2h-7v-4.2h1v1.3h5V2011.2z M228.4,2013.2h-5v1.3h5V2013.2z M229.4,2004.8v5.9h-1v-5.9H229.4z"
					/>
				<path class="st5" d="M240,2005.9c0,3.1-1.4,5.8-5,7.6l-0.5-0.8c2.9-1.4,4.3-3.4,4.5-6h-4v-0.8L240,2005.9L240,2005.9z
					 M243.1,2004.7v10.8h-1v-10.8H243.1z"/>
				<path class="st5" d="M251.5,2010.2c-1.6,0.3-2.9,0.4-4.7,0.4H246v-5.3h1v4.5c1.7,0,2.9-0.1,4.4-0.4L251.5,2010.2z M247.3,2011.6
					h6.9v3.8h-6.9V2011.6z M248.2,2014.6h5v-2.2h-5V2014.6z M254.2,2004.7v6.3h-1v-2.4h-3v-0.8h3v-1.1h-3v-0.8h3v-1.2H254.2z"/>
				<path class="st5" d="M259.4,2009.9c-1.6,0-2.8-1-2.8-2.4s1.2-2.4,2.8-2.4s2.8,1,2.8,2.4C262.2,2008.9,261,2009.9,259.4,2009.9z
					 M259.4,2009.1c1.1,0,1.8-0.7,1.8-1.6s-0.8-1.6-1.8-1.6s-1.8,0.7-1.8,1.6S258.3,2009.1,259.4,2009.1z M265.6,2014.6v0.8h-7.3
					v-2.7h6v-1.1h-6v-0.8h7v2.6h-6v1.2H265.6z M265.2,2010.3h-1v-5.5h1V2010.3z"/>
				<path class="st5" d="M275.9,2011c-1.2-0.5-2.1-1.4-2.6-2.6c-0.5,1.3-1.4,2.3-2.7,2.8l-0.5-0.8c1.6-0.6,2.7-2.1,2.7-3.8v-1.3h1
					v1.4c0,1.5,1.1,2.9,2.6,3.5L275.9,2011z M279.2,2014.5v0.8H272v-3.4h1v2.6H279.2z M278,2008.1h-2.4v-0.8h2.4v-2.5h1v8h-1V2008.1
					z"/>
				<path class="st5" d="M286.5,2010.1v1.1h3.1v2.4h-6.3v1.1h6.6v0.8h-7.6v-2.6h6.3v-1h-6.3v-0.7h3.2v-1.1h-4.4v-0.8h9.7v0.8
					L286.5,2010.1L286.5,2010.1z M289.6,2008.4h-7.2v-3.3h7.2V2008.4z M288.6,2005.9h-5.3v1.7h5.3V2005.9z"/>
				<path class="st5" d="M292.2,2016.2c0.8-0.3,1.2-0.9,1.2-1.6h-0.1c-0.4,0-0.8-0.3-0.8-0.8s0.4-0.8,0.8-0.8c0.6,0,0.9,0.5,0.9,1.3
					c0,1.2-0.7,2.1-1.8,2.5L292.2,2016.2z"/>
			</g>
			<g class="st0">
				<path class="st5" d="M219.3,2027.7v0.8h-9.8v-0.8h7.2c0.3-1.5,0.3-2.5,0.3-3.5l0,0h-6.3v-0.8h7.3v0.8c0,0.9,0,2-0.3,3.5H219.3z
					 M211.8,2032.4h6.6v0.8h-7.5v-3.5h1v2.7H211.8z"/>
				<path class="st5" d="M230.3,2031.4v0.8h-9.8v-0.8h4.4v-2h-3.2v-3.3h6.4v-1.7h-6.4v-0.8h7.4v3.3h-6.4v1.7h6.6v0.8h-3.4v2H230.3z"
					/>
				<path class="st5" d="M235.2,2026c0,1.7,1.2,3.6,2.8,4.4l-0.6,0.8c-1.2-0.6-2.2-1.9-2.7-3.3c-0.5,1.6-1.5,2.9-2.7,3.6l-0.6-0.8
					c1.5-0.8,2.8-2.8,2.8-4.6v-1.4h-2.5v-0.8h5.8v0.8h-2.4L235.2,2026L235.2,2026z M241.7,2027.9h-1.8v5.6h-1v-10.7h1v4.3h1.8
					V2027.9z"/>
				<path class="st5" d="M242.7,2030.3c2,0,4.7,0,7-0.4l0.1,0.7c-2.4,0.4-5,0.5-7,0.5L242.7,2030.3z M249,2026.1
					c0,1.5-1.2,2.5-2.9,2.5s-2.9-1-2.9-2.5s1.2-2.5,2.9-2.5C247.8,2023.5,249,2024.6,249,2026.1z M244.2,2026.1c0,1,0.8,1.7,1.9,1.7
					c1.1,0,1.9-0.7,1.9-1.7s-0.8-1.7-1.9-1.7S244.2,2025.1,244.2,2026.1z M251.4,2022.7v10.8h-1v-10.8H251.4z"/>
				<path class="st5" d="M262.7,2027.2c-1.8,0.4-3.4,0.5-5,0.5h-0.8v-4.4h1v3.6c1.5,0,3-0.1,4.8-0.5V2027.2z M258.9,2032.6h6.2v0.8
					h-7.2v-2.8h5.8v-1.1h-5.9v-0.8h6.8v2.7h-5.8v1.2H258.9z M266.3,2025v0.8h-1.6v2.4h-1v-5.4h1v2.2H266.3z"/>
				<path class="st5" d="M275.9,2029c-1.2-0.5-2.1-1.4-2.6-2.6c-0.5,1.3-1.4,2.3-2.7,2.8l-0.5-0.8c1.6-0.6,2.7-2.1,2.7-3.8v-1.3h1
					v1.4c0,1.5,1.1,2.9,2.6,3.5L275.9,2029z M279.2,2032.5v0.8H272v-3.4h1v2.6H279.2z M278,2026.1h-2.4v-0.8h2.4v-2.5h1v8h-1V2026.1
					z"/>
				<path class="st5" d="M286.5,2028.1v1.1h3.1v2.4h-6.3v1.1h6.6v0.8h-7.6v-2.6h6.3v-1h-6.3v-0.7h3.2v-1.1h-4.4v-0.8h9.7v0.8
					L286.5,2028.1L286.5,2028.1z M289.6,2026.4h-7.2v-3.3h7.2V2026.4z M288.6,2023.9h-5.3v1.7h5.3V2023.9z"/>
			</g>
		</g>
	</g>
</g>
</svg>
