<?xml version="1.0" encoding="utf-8"?>
<!-- Generator: Adobe Illustrator 25.1.0, SVG Export Plug-In . SVG Version: 6.00 Build 0)  -->
<svg version="1.1" id="레이어_1" xmlns="http://www.w3.org/2000/svg" xmlns:xlink="http://www.w3.org/1999/xlink" x="0px"
	 y="0px" viewBox="0 0 921 309.6" style="enable-background:new 0 0 921 309.6;" xml:space="preserve">
<style type="text/css">
	.st0{enable-background:new    ;}
	.st1{fill:#E37E28;}
	.st2{fill:#FAFAFA;}
	.st3{fill:#FFFFFF;}
	.st4{fill:#555555;}
	.st5{fill:#94989E;}
	.st6{fill:#F5C297;}
</style>
<g id="그룹_5493" transform="translate(-739 -3081.5)">
	<g id="그룹_5492">
		<g class="st0">
			<path class="st1" d="M760,3099.3v2.5h-19.9v-2.5h7.4v-3.9h3.2v3.9H760z M757.7,3107.4c0,2.6-3.1,4.2-7.8,4.2
				c-4.8,0-7.8-1.6-7.8-4.2c0-2.6,3.1-4.2,7.8-4.2C754.7,3103.2,757.7,3104.8,757.7,3107.4z M753.9,3097.9c0.5-2,0.6-3.5,0.6-4.9
				h-12.1v-2.5h15.3v1.8c0,1.8,0,3.6-0.6,5.9L753.9,3097.9z M754.6,3107.4c0-1.2-1.7-1.8-4.7-1.8c-3,0-4.7,0.6-4.7,1.8
				c0,1.2,1.7,1.8,4.7,1.8C752.9,3109.2,754.6,3108.6,754.6,3107.4z"/>
			<path class="st1" d="M782.1,3098.1v2.5h-20v-2.5h14c0.4-2.1,0.5-3.7,0.5-5.2h-12.1v-2.5h15.2v1.8c0,1.7,0,3.5-0.5,6H782.1z
				 M776.6,3102h3.2v9.3h-15.2v-9.3h3.1v2.3h8.9V3102z M776.6,3106.8h-8.9v2h8.9V3106.8z"/>
			<path class="st1" d="M795.4,3101h-10.5v-9.9h10.5V3101z M801.8,3107.2c0,2.8-2.9,4.4-7.5,4.4c-4.6,0-7.5-1.6-7.5-4.4
				c0-2.7,2.9-4.4,7.5-4.4C798.9,3102.9,801.8,3104.5,801.8,3107.2z M792.3,3093.5h-4.3v4.9h4.3V3093.5z M798.7,3107.2
				c0-1.3-1.5-1.9-4.3-1.9s-4.3,0.6-4.3,1.9c0,1.3,1.5,1.9,4.3,1.9S798.7,3108.5,798.7,3107.2z M804.5,3094.4v2.6h-2.9v5.3h-3.2
				v-12.8h3.2v4.9H804.5z"/>
			<path class="st1" d="M831.7,3100.9v2.5h-20v-2.5h8.4v-1.4h-5.9v-9.5h15.2v2.4h-12.1v1.2h11.6v2.3h-11.6v1.2h12.2v2.4h-6.3v1.4
				H831.7z M829.3,3107.9c0,2.4-2.8,3.6-7.7,3.6c-4.8,0-7.7-1.3-7.7-3.6c0-2.4,2.8-3.6,7.7-3.6
				C826.5,3104.3,829.3,3105.6,829.3,3107.9z M826.1,3107.9c0-0.9-1.4-1.3-4.5-1.3c-3,0-4.5,0.4-4.5,1.3s1.4,1.3,4.5,1.3
				C824.7,3109.3,826.1,3108.9,826.1,3107.9z"/>
			<path class="st1" d="M846.8,3093.9h-13v-2.5h4.9v-2.1h3.2v2.1h4.9L846.8,3093.9z M840.3,3102.3c-3.2,0-5.4-1.6-5.4-3.9
				c0-2.4,2.2-3.9,5.4-3.9s5.4,1.6,5.4,3.9C845.7,3100.7,843.5,3102.3,840.3,3102.3z M848.1,3103.2h3.1v8.1h-14.4v-8.1h3.1v1.7h8.1
				V3103.2z M840.3,3100c1.4,0,2.4-0.6,2.4-1.6c0-1.1-1-1.6-2.4-1.6s-2.4,0.6-2.4,1.6C837.9,3099.4,838.9,3100,840.3,3100z
				 M848.1,3107.3H840v1.6h8.1V3107.3z M854.1,3097.4h-2.9v5.1H848v-12.9h3.2v5.3h2.9V3097.4z"/>
			<path class="st1" d="M874.8,3102.1c-4.6,0.8-9.7,0.9-13.5,1l-0.3-2.5c1.2,0,2.6,0,4,0v-4.3h3.1v4.2c2.2-0.1,4.4-0.3,6.5-0.6
				L874.8,3102.1z M870,3098.6c0.4-2.1,0.5-3.7,0.5-5h-8.2v-2.5h11.4v1.4c0,1.5,0,3.7-0.5,6.5L870,3098.6z M867.4,3108.7h12.3v2.5
				h-15.4v-6.6h3.2V3108.7z M881.6,3096.2v2.6H879v7.2h-3.2v-16.6h3.2v6.7H881.6z"/>
			<path class="st1" d="M887.8,3103.9c3.4,0,6.1-0.2,9.3-0.7l0.3,2.6c-3.6,0.6-6.8,0.8-10.8,0.8h-2v-9.1h7.2v-3.5h-7.2v-2.5H895v8.5
				h-7.2V3103.9z M901.8,3089.4v22.2h-3.2v-22.2H901.8z"/>
			<path class="st1" d="M931,3106.4v2.6h-20v-2.6H931z M915.5,3093.9h-3v-2.5h16.8v2.5h-3v6.6h2.9v2.5h-16.6v-2.5h2.9V3093.9z
				 M923.2,3093.9h-4.5v6.6h4.5V3093.9z"/>
			<path class="st1" d="M953,3106.5v2.6h-20v-2.6h8.4v-3.3h-6.1v-7.5h12.3v-2.4h-12.4v-2.5h15.5v7.4h-12.3v2.5h12.8v2.5h-6.7v3.3
				H953z"/>
			<path class="st1" d="M962.2,3095c0,3.6,1,7.2,4,9.2l-1.7,2.4c-1.9-1.2-3-3-3.7-5.3c-0.8,2.4-2.1,4.6-4.1,5.8l-1.9-2.4
				c3.2-2,4.4-5.9,4.4-9.7v-3.7h3V3095z M966.6,3089.8h3v20.8h-3v-11.1h-2.8v-2.6h2.8V3089.8z M974.1,3089.5v22.1h-3v-22.1H974.1z"
				/>
			<path class="st1" d="M997.2,3106.3v2.6h-20v-2.6H997.2z M995.2,3102.5c-3.8-0.8-6.7-2.9-8.1-5.7c-1.4,2.8-4.2,5-8.1,5.7l-1.3-2.7
				c5-0.8,7.7-4.3,7.7-7.5v-1.6h3.4v1.6c0,3.2,2.7,6.7,7.7,7.5L995.2,3102.5z"/>
		</g>
		<rect id="사각형_379" x="740" y="3146.5" class="st2" width="280" height="244.4"/>
		<rect id="사각형_383" x="1060" y="3146.7" class="st2" width="280" height="244.4"/>
		<rect id="사각형_385" x="1380" y="3146.5" class="st2" width="280" height="244.4"/>
		<rect id="사각형_381" x="740" y="3146.5" class="st1" width="280" height="117"/>
		<rect id="사각형_384" x="1060" y="3146.5" class="st1" width="280" height="117"/>
		<rect id="사각형_386" x="1380" y="3146.5" class="st1" width="280" height="117"/>
		<g class="st0">
			<path class="st3" d="M813,3216.3h-10v-1.6h4.1v-1.9h2.1v1.9h3.9V3216.3z M808,3223.6c-2.4,0-4.1-1.3-4.1-3.3c0-2,1.7-3.3,4.1-3.3
				c2.5,0,4.2,1.3,4.2,3.3C812.2,3222.3,810.5,3223.6,808,3223.6z M808,3222c1.3,0,2.2-0.7,2.2-1.7c0-1.1-0.9-1.7-2.2-1.7
				c-1.3,0-2.2,0.7-2.2,1.7C805.8,3221.4,806.7,3222,808,3222z M815.8,3224.4h2v6.4H806v-6.4h2v1.6h7.8V3224.4z M815.8,3227.6h-7.8
				v1.6h7.8V3227.6z M817.9,3213v10.7h-2.1v-1.5h-2.8v-1.7h2.8v-1.9h-2.7v-1.7h2.7v-4.1H817.9z"/>
			<path class="st3" d="M830.9,3223c-2.2,0.4-4,0.4-7.6,0.4H822v-5.6h5.8v-2.2H822v-1.7h7.8v5.4h-5.8v2.3c3,0,4.7-0.1,6.6-0.4
				L830.9,3223z M824.1,3225h12.2v6.1h-2.1v-4.4h-10.2V3225z M836.3,3213v11.1h-2.1v-3.1H831v-1.7h3.2v-2.1H831v-1.7h3.2v-2.6H836.3
				z"/>
			<path class="st3" d="M846,3217.4c0,3.2,1.7,6.5,4.4,7.8l-1.3,1.6c-1.9-1-3.4-3-4.2-5.3c-0.8,2.5-2.3,4.6-4.4,5.7l-1.3-1.7
				c2.8-1.4,4.6-4.8,4.6-8.1v-3h2.1V3217.4z M856.5,3221.8h-2.8v9.2h-2.1V3213h2.1v7.2h2.8V3221.8z"/>
			<path class="st3" d="M871.9,3214.9c0,5.2-2.2,9.9-8.1,12.9l-1.1-1.6c4.4-2.3,6.8-5.4,7.2-9.6h-6.3v-1.7H871.9z M879.3,3221.8
				h-2.7v9.2h-2.1V3213h2.1v7.1h2.7V3221.8z"/>
			<path class="st3" d="M887.7,3217.4c0,3.3,1.8,6.6,4.7,7.9l-1.2,1.6c-2.1-1-3.7-3-4.5-5.4c-0.8,2.6-2.4,4.8-4.6,5.8l-1.2-1.7
				c2.9-1.3,4.8-4.8,4.8-8.2v-3h2.1V3217.4z M895.9,3213v18.1h-2.1V3213H895.9z"/>
			<path class="st3" d="M909,3222.9c-1.9-0.7-3.3-2.1-4.1-3.8c-0.8,2-2.3,3.6-4.5,4.4l-1.1-1.7c2.9-1,4.5-3.4,4.5-6.1v-1.8h2.1v1.7
				c0,2.5,1.5,4.8,4.2,5.7L909,3222.9z M914.5,3227.6c0,2.2-2.3,3.5-6.1,3.5c-3.8,0-6.1-1.3-6.1-3.5c0-2.2,2.3-3.5,6.1-3.5
				C912.1,3224.1,914.5,3225.4,914.5,3227.6z M912.4,3227.6c0-1.2-1.5-1.8-4-1.8s-4,0.7-4,1.8c0,1.2,1.5,1.8,4,1.8
				S912.4,3228.8,912.4,3227.6z M912.3,3218.3h-3.7v-1.7h3.7v-3.6h2.1v10.7h-2.1V3218.3z"/>
			<path class="st3" d="M931.5,3214.2c0,4.7-3.1,8.1-8.4,9.6l-0.8-1.6c4.2-1.2,6.6-3.5,7-6.3h-6.2v-1.7H931.5z M936.6,3227.5
				c0,2.2-2.3,3.6-6,3.6c-3.6,0-6-1.4-6-3.6c0-2.2,2.4-3.6,6-3.6C934.3,3223.8,936.6,3225.2,936.6,3227.5z M934.6,3227.5
				c0-1.3-1.5-2-3.9-2c-2.4,0-3.9,0.7-3.9,2c0,1.2,1.5,2,3.9,2C933.1,3229.4,934.6,3228.7,934.6,3227.5z M939,3217.4v1.7h-2.6v4.5
				h-2.1V3213h2.1v4.5H939z"/>
			<path class="st3" d="M947.2,3226c1.5-0.1,3.1-0.2,4.5-0.4l0.2,1.5c-3.9,0.7-8,0.7-11.1,0.7l-0.3-1.7c1.4,0,3,0,4.7-0.1v-1.8
				c-2-0.3-3.3-1.6-3.3-3.3c0-2,1.8-3.4,4.3-3.4c2.6,0,4.3,1.3,4.3,3.4c0,1.7-1.3,3-3.3,3.3V3226z M951.6,3216.7h-10.7v-1.7h4.4v-2
				h2.1v2h4.3V3216.7z M946.2,3222.8c1.4,0,2.4-0.7,2.4-1.8c0-1.1-1-1.8-2.4-1.8s-2.4,0.7-2.4,1.8
				C943.8,3222.1,944.8,3222.8,946.2,3222.8z M957.4,3222.2h-2.6v8.8h-2.1V3213h2.1v7.6h2.6V3222.2z"/>
		</g>
		<g class="st0">
			<path class="st3" d="M1142.2,3216.3h-10v-1.6h4.1v-1.9h2.1v1.9h3.9V3216.3z M1137.2,3223.6c-2.4,0-4.1-1.3-4.1-3.3
				c0-2,1.7-3.3,4.1-3.3c2.5,0,4.2,1.3,4.2,3.3C1141.4,3222.3,1139.7,3223.6,1137.2,3223.6z M1137.2,3222c1.3,0,2.2-0.7,2.2-1.7
				c0-1.1-0.9-1.7-2.2-1.7c-1.3,0-2.2,0.7-2.2,1.7C1135,3221.4,1135.9,3222,1137.2,3222z M1145,3224.4h2v6.4h-11.9v-6.4h2v1.6h7.8
				V3224.4z M1145,3227.6h-7.8v1.6h7.8V3227.6z M1147.1,3213v10.7h-2.1v-1.5h-2.8v-1.7h2.8v-1.9h-2.7v-1.7h2.7v-4.1H1147.1z"/>
			<path class="st3" d="M1160.1,3223c-2.2,0.4-4,0.4-7.6,0.4h-1.3v-5.6h5.8v-2.2h-5.8v-1.7h7.8v5.4h-5.8v2.3c3,0,4.7-0.1,6.6-0.4
				L1160.1,3223z M1153.3,3225h12.2v6.1h-2.1v-4.4h-10.2V3225z M1165.5,3213v11.1h-2.1v-3.1h-3.2v-1.7h3.2v-2.1h-3.2v-1.7h3.2v-2.6
				H1165.5z"/>
			<path class="st3" d="M1175.2,3217.4c0,3.2,1.7,6.5,4.4,7.8l-1.3,1.6c-1.9-1-3.4-3-4.2-5.3c-0.8,2.5-2.3,4.6-4.4,5.7l-1.3-1.7
				c2.8-1.4,4.6-4.8,4.6-8.1v-3h2.1V3217.4z M1185.7,3221.8h-2.8v9.2h-2.1V3213h2.1v7.2h2.8V3221.8z"/>
			<path class="st3" d="M1208.1,3222.4v1.7h-16.3v-1.7h7.1v-1.5h-5v-7.5h12.3v1.6h-10.2v1.4h9.8v1.5h-9.8v1.4h10.4v1.6h-5.3v1.5
				H1208.1z M1206.2,3228.1c0,1.9-2.3,2.9-6.2,2.9c-3.9,0-6.2-1-6.2-2.9c0-1.9,2.3-2.9,6.2-2.9
				C1203.9,3225.2,1206.2,3226.2,1206.2,3228.1z M1204.1,3228.1c0-0.9-1.4-1.4-4.2-1.4c-2.7,0-4.1,0.5-4.1,1.4c0,1,1.4,1.4,4.1,1.4
				C1202.7,3229.5,1204.1,3229.1,1204.1,3228.1z"/>
			<path class="st3" d="M1220.9,3216.4h-10.7v-1.7h4.3v-1.9h2.1v1.9h4.3V3216.4z M1215.6,3223.4c-2.6,0-4.4-1.3-4.4-3.2
				c0-1.9,1.8-3.2,4.4-3.2c2.6,0,4.4,1.3,4.4,3.2C1219.9,3222.1,1218.2,3223.4,1215.6,3223.4z M1222.3,3224.3h2v6.6h-11.5v-6.6h2
				v1.7h7.5V3224.3z M1215.6,3221.9c1.4,0,2.4-0.6,2.4-1.7c0-1-1-1.6-2.4-1.6s-2.4,0.6-2.4,1.6
				C1213.2,3221.2,1214.1,3221.9,1215.6,3221.9z M1222.3,3227.5h-7.5v1.7h7.5V3227.5z M1226.9,3219.2h-2.6v4.3h-2.1V3213h2.1v4.5
				h2.6V3219.2z"/>
			<path class="st3" d="M1244.3,3223.1c-3.8,0.7-8,0.8-11.2,0.8l-0.2-1.7c1.1,0,2.3,0,3.6,0v-3.7h2v3.6c1.9-0.1,3.8-0.2,5.6-0.5
				L1244.3,3223.1z M1240.6,3220.5c0.4-1.9,0.4-3.4,0.4-4.5h-7.1v-1.7h9.1v1c0,1.2,0,3-0.4,5.3L1240.6,3220.5z M1237.7,3229h10.2
				v1.7h-12.3v-5.4h2.1V3229z M1249.7,3218.7v1.7h-2.4v6.1h-2.1V3213h2.1v5.7H1249.7z"/>
			<path class="st3" d="M1254.6,3225.1c2.9,0,5.4-0.2,8.2-0.6l0.2,1.7c-3.1,0.5-5.8,0.6-9,0.6h-1.5v-7.2h6.3v-3.4h-6.3v-1.7h8.4v6.7
				h-6.3V3225.1z M1266.4,3212.9v18.1h-2.1v-18.1H1266.4z"/>
		</g>
		<g class="st0">
			<path class="st3" d="M1444.8,3216.3h-10v-1.6h4.1v-1.9h2.1v1.9h3.9V3216.3z M1439.8,3223.6c-2.4,0-4.1-1.3-4.1-3.3
				c0-2,1.7-3.3,4.1-3.3c2.5,0,4.2,1.3,4.2,3.3C1444,3222.3,1442.3,3223.6,1439.8,3223.6z M1439.8,3222c1.3,0,2.2-0.7,2.2-1.7
				c0-1.1-0.9-1.7-2.2-1.7c-1.3,0-2.2,0.7-2.2,1.7C1437.6,3221.4,1438.5,3222,1439.8,3222z M1447.6,3224.4h2v6.4h-11.9v-6.4h2v1.6
				h7.8V3224.4z M1447.6,3227.6h-7.8v1.6h7.8V3227.6z M1449.7,3213v10.7h-2.1v-1.5h-2.8v-1.7h2.8v-1.9h-2.7v-1.7h2.7v-4.1H1449.7z"
				/>
			<path class="st3" d="M1462.7,3223c-2.2,0.4-4,0.4-7.6,0.4h-1.3v-5.6h5.8v-2.2h-5.8v-1.7h7.8v5.4h-5.8v2.3c3,0,4.7-0.1,6.6-0.4
				L1462.7,3223z M1455.9,3225h12.2v6.1h-2.1v-4.4h-10.2V3225z M1468.1,3213v11.1h-2.1v-3.1h-3.2v-1.7h3.2v-2.1h-3.2v-1.7h3.2v-2.6
				H1468.1z"/>
			<path class="st3" d="M1477.8,3217.4c0,3.2,1.7,6.5,4.4,7.8l-1.3,1.6c-1.9-1-3.4-3-4.2-5.3c-0.8,2.5-2.3,4.6-4.4,5.7l-1.3-1.7
				c2.8-1.4,4.6-4.8,4.6-8.1v-3h2.1V3217.4z M1488.3,3221.8h-2.8v9.2h-2.1V3213h2.1v7.2h2.8V3221.8z"/>
			<path class="st3" d="M1497,3225c2.1,0,3.7-0.1,5.6-0.5l0.2,1.7c-2.2,0.4-4,0.5-6.6,0.5h-1.2v-11.6h6.7v1.7h-4.7V3225z
				 M1509.8,3213v18.1h-2v-9.2h-2.1v8.4h-1.9v-16.8h1.9v6.8h2.1v-7.1H1509.8z"/>
			<path class="st3" d="M1529.1,3221.6v1.7h-16.3v-1.7H1529.1z M1527.4,3216.9c0,2.2-2.5,3.5-6.4,3.5c-3.9,0-6.4-1.3-6.4-3.5
				c0-2.2,2.5-3.5,6.4-3.5C1524.9,3213.4,1527.4,3214.7,1527.4,3216.9z M1527.2,3227.8c0,2.1-2.3,3.3-6.2,3.3
				c-3.9,0-6.2-1.2-6.2-3.3c0-2.1,2.3-3.3,6.2-3.3C1524.8,3224.5,1527.2,3225.7,1527.2,3227.8z M1516.7,3216.9
				c0,1.2,1.6,1.9,4.3,1.9s4.3-0.7,4.3-1.9c0-1.2-1.6-1.9-4.3-1.9S1516.7,3215.7,1516.7,3216.9z M1516.8,3227.8
				c0,1.1,1.5,1.7,4.1,1.7s4.1-0.6,4.1-1.7c0-1.1-1.5-1.7-4.1-1.7S1516.8,3226.7,1516.8,3227.8z"/>
			<path class="st3" d="M1536.6,3218.5c0,2.8,1.2,5.7,3.7,7l-1.1,1.5c-1.7-0.9-2.9-2.6-3.5-4.5c-0.6,2.1-1.8,3.9-3.5,4.9l-1.2-1.6
				c2.5-1.5,3.7-4.5,3.7-7.4v-0.6h-3.1v-1.7h3.1v-2.6h2v2.6h3.1v1.7h-3.1V3218.5z M1541,3213.3h1.9v16.8h-1.9v-8.5h-2.4v-1.7h2.4
				V3213.3z M1546.6,3213v18.1h-2V3213H1546.6z"/>
			<path class="st3" d="M1559.4,3213.4h1.9v16.7h-1.9v-6.1h-3v-1.7h3v-2.9h-2.6c-0.8,3-2.7,5.7-6.1,7.7l-1.2-1.5
				c3.7-2.3,5.5-5.2,5.8-8.9h-4.9v-1.7h7c0,0.9-0.1,1.8-0.2,2.7h2.3V3213.4z M1565.1,3213v18.1h-2V3213H1565.1z"/>
			<path class="st3" d="M1581.7,3214.2c0,4.7-3.1,8.1-8.4,9.6l-0.8-1.6c4.2-1.2,6.6-3.5,7-6.3h-6.2v-1.7H1581.7z M1586.8,3227.5
				c0,2.2-2.3,3.6-6,3.6c-3.6,0-6-1.4-6-3.6c0-2.2,2.4-3.6,6-3.6C1584.5,3223.8,1586.8,3225.2,1586.8,3227.5z M1584.8,3227.5
				c0-1.3-1.5-2-3.9-2c-2.4,0-3.9,0.7-3.9,2c0,1.2,1.5,2,3.9,2C1583.3,3229.4,1584.8,3228.7,1584.8,3227.5z M1589.2,3217.4v1.7h-2.6
				v4.5h-2.1V3213h2.1v4.5H1589.2z"/>
			<path class="st3" d="M1597.4,3226c1.5-0.1,3.1-0.2,4.5-0.4l0.2,1.5c-3.9,0.7-8,0.7-11.1,0.7l-0.3-1.7c1.4,0,3,0,4.7-0.1v-1.8
				c-2-0.3-3.3-1.6-3.3-3.3c0-2,1.8-3.4,4.3-3.4c2.6,0,4.3,1.3,4.3,3.4c0,1.7-1.3,3-3.3,3.3V3226z M1601.8,3216.7H1591v-1.7h4.4v-2
				h2.1v2h4.3V3216.7z M1596.4,3222.8c1.4,0,2.4-0.7,2.4-1.8c0-1.1-1-1.8-2.4-1.8c-1.4,0-2.4,0.7-2.4,1.8
				C1594,3222.1,1595,3222.8,1596.4,3222.8z M1607.6,3222.2h-2.6v8.8h-2.1V3213h2.1v7.6h2.6V3222.2z"/>
		</g>
		<g class="st0">
			<path class="st4" d="M790.7,3297.8c0-1.3,0.9-2.2,2-2.2c1.1,0,2,0.9,2,2.2c0,1.3-0.9,2.1-2,2.1
				C791.6,3299.9,790.7,3299.1,790.7,3297.8z"/>
			<path class="st4" d="M816.5,3301v1.1h-13v-1.1h3.4v-2.7c-1.1-0.4-1.6-1.2-1.6-2.2c0-1.7,1.8-2.7,4.7-2.7c2.9,0,4.7,1,4.7,2.7
				c0,1-0.6,1.7-1.6,2.2v2.7H816.5z M815.7,3292.5h-11.7v-1.1h5.2v-1.9h1.3v1.9h5.1V3292.5z M806.5,3296.1c0,1,1.3,1.6,3.4,1.6
				c2.1,0,3.3-0.6,3.3-1.6c0-1-1.3-1.7-3.3-1.7C807.8,3294.5,806.5,3295.1,806.5,3296.1z M808.2,3301h3.5v-2.3
				c-0.5,0.1-1.1,0.1-1.7,0.1c-0.7,0-1.2,0-1.8-0.1V3301z"/>
			<path class="st4" d="M827.5,3296.4v1.4h1.9v3.2H821v1.5h8.9v1h-10.1v-3.4h8.4v-1.3h-8.5v-1h2v-1.4h-3.5v-1.1h13v1.1H827.5z
				 M819.6,3292c0-1.6,1.9-2.5,5-2.5c3.2,0,5,0.9,5,2.5c0,1.6-1.9,2.5-5,2.5C821.5,3294.5,819.6,3293.6,819.6,3292z M820.9,3292
				c0,1,1.4,1.5,3.7,1.5c2.4,0,3.7-0.5,3.7-1.5c0-1-1.3-1.5-3.7-1.5C822.3,3290.5,820.9,3291,820.9,3292z M826.2,3296.4H823v1.4h3.3
				V3296.4z"/>
			<path class="st4" d="M840.7,3297.4c-1.6-0.6-2.8-1.8-3.5-3.2c-0.6,1.6-1.9,3-3.6,3.6l-0.7-1c2.1-0.8,3.6-2.7,3.6-4.7v-0.6h-3.2
				v-1.1h7.7v1.1h-3.2v0.6c0,1.8,1.4,3.6,3.5,4.4L840.7,3297.4z M835.1,3298.7h9.6v5h-1.3v-3.9h-8.3V3298.7z M844.7,3289.3v8.6h-1.3
				v-3.8h-2.8v-1.1h2.8v-3.7H844.7z"/>
			<path class="st4" d="M851.7,3297.4c-2.1,0-3.7-1.5-3.7-3.6c0-2.1,1.6-3.5,3.7-3.5c2.1,0,3.8,1.5,3.8,3.5
				C855.4,3295.9,853.8,3297.4,851.7,3297.4z M851.7,3296.3c1.4,0,2.5-1,2.5-2.4c0-1.4-1.1-2.4-2.5-2.4c-1.4,0-2.4,1-2.4,2.4
				C849.2,3295.3,850.3,3296.3,851.7,3296.3z M859.8,3302.3v1.1h-9.7v-4.6h1.3v3.5H859.8z M859.4,3299.8h-1.3v-10.5h1.3V3299.8z"/>
			<path class="st4" d="M866,3299.5c2.6,0,6.2,0,9.3-0.5l0.1,1c-3.2,0.6-6.7,0.6-9.3,0.6L866,3299.5z M874.4,3293.8
				c0,2-1.6,3.4-3.8,3.4c-2.2,0-3.8-1.4-3.8-3.4c0-2,1.6-3.4,3.8-3.4C872.8,3290.4,874.4,3291.7,874.4,3293.8z M868,3293.8
				c0,1.3,1.1,2.3,2.6,2.3c1.5,0,2.6-0.9,2.6-2.3c0-1.3-1.1-2.3-2.6-2.3C869.1,3291.5,868,3292.4,868,3293.8z M877.6,3289.3v14.4
				h-1.3v-14.4H877.6z"/>
			<path class="st4" d="M885.4,3293.2c0,2.5,1.6,5.1,3.6,6.1l-0.8,1c-1.5-0.8-2.8-2.5-3.5-4.5c-0.6,2.1-2,3.9-3.6,4.8l-0.8-1.1
				c2.1-1.1,3.7-3.8,3.7-6.4v-2.6h1.3V3293.2z M894,3296.2h-2.4v7.4h-1.3v-14.3h1.3v5.8h2.4V3296.2z"/>
			<path class="st4" d="M902.3,3292.4c-0.9,2.3-3.1,3.8-6.3,4.5l-0.5-1.1c3.5-0.8,5.5-2.5,5.7-4.8h-5v-1.1h6.4c0,0.5,0,0.9-0.1,1.4
				h3.2v-2.1h1.3v7.3h-1.3v-1.5h-3.7v-1h3.7v-1.7H902.3z M907.7,3302.5v1H898v-3.7h7.9v-1.5h-7.9v-1.1h9.3v3.5h-7.9v1.7H907.7z"/>
			<path class="st4" d="M917.9,3297.3c-1.6-0.6-2.8-1.8-3.5-3.2c-0.6,1.7-1.9,3-3.6,3.6l-0.7-1c2.1-0.8,3.6-2.7,3.6-4.8v-0.5h-3.2
				v-1.1h7.7v1.1H915v0.5c0,1.8,1.4,3.6,3.5,4.4L917.9,3297.3z M921.9,3301c0,1.7-1.8,2.7-4.8,2.7c-2.9,0-4.8-1-4.8-2.7
				c0-1.7,1.8-2.7,4.8-2.7C920.1,3298.3,921.9,3299.3,921.9,3301z M920.6,3301c0-1-1.3-1.7-3.5-1.7c-2.2,0-3.5,0.6-3.5,1.7
				c0,1,1.3,1.6,3.5,1.6C919.3,3302.7,920.6,3302.1,920.6,3301z M920.6,3293.1v-3.7h1.3v8.5h-1.3v-3.8h-2.8v-1.1H920.6z"/>
		</g>
		<g class="st0">
			<path class="st4" d="M790.7,3323.8c0-1.3,0.9-2.2,2-2.2c1.1,0,2,0.9,2,2.2c0,1.3-0.9,2.1-2,2.1
				C791.6,3325.9,790.7,3325.1,790.7,3323.8z"/>
			<path class="st4" d="M815.3,3315.3v7.7h-1.3v-3.2H811c-0.3,1.7-1.7,2.8-3.7,2.8c-2.1,0-3.7-1.3-3.7-3.3c0-2,1.6-3.3,3.7-3.3
				c1.9,0,3.4,1.1,3.6,2.8h2.9v-3.4H815.3z M809.8,3319.3c0-1.3-1-2.2-2.4-2.2c-1.4,0-2.4,0.9-2.4,2.2s1,2.2,2.4,2.2
				C808.8,3321.6,809.8,3320.6,809.8,3319.3z M814,3323.7h1.3v5.8h-9.2v-5.8h1.3v1.8h6.6V3323.7z M814,3326.6h-6.6v1.9h6.6V3326.6z"
				/>
			<path class="st4" d="M831.2,3324.7h-5.9v4.9H824v-4.9h-5.8v-1.1h13V3324.7z M829.5,3321.7h-9.7v-5.6h9.7V3321.7z M828.2,3317.2
				h-7.1v3.5h7.1V3317.2z"/>
			<path class="st4" d="M844.5,3322.4c-1.6-0.6-3-1.8-3.6-3.3c-0.6,1.6-2,3-3.6,3.6l-0.7-1c2.2-0.8,3.6-2.7,3.6-4.8v-1.1h1.3v1.1
				c0,2,1.5,3.8,3.6,4.5L844.5,3322.4z M848.7,3328.5v1H839v-3.6h8v-1.4h-8v-1h9.3v3.5h-8v1.5H848.7z M848.2,3322.8h-1.3v-7.4h1.3
				V3322.8z"/>
			<path class="st4" d="M858.4,3318.1h-7.3v-1h3v-1.6h1.3v1.6h3L858.4,3318.1z M854.8,3323.7c-1.8,0-3.1-1-3.1-2.5
				c0-1.5,1.3-2.4,3.1-2.4c1.8,0,3.1,1,3.1,2.4C857.8,3322.8,856.6,3323.7,854.8,3323.7z M854.8,3322.8c1.1,0,1.9-0.6,1.9-1.5
				c0-0.9-0.8-1.5-1.9-1.5c-1.1,0-1.9,0.6-1.9,1.5C852.9,3322.2,853.6,3322.8,854.8,3322.8z M863.4,3327.2c0,1.6-1.8,2.5-4.8,2.5
				s-4.8-0.9-4.8-2.5c0-1.6,1.8-2.5,4.8-2.5S863.4,3325.6,863.4,3327.2z M862.1,3327.2c0-1-1.3-1.5-3.5-1.5c-2.2,0-3.5,0.5-3.5,1.5
				c0,0.9,1.3,1.5,3.5,1.5C860.8,3328.7,862.1,3328.1,862.1,3327.2z M860.2,3323.9H859v-8.3h1.2v3.6h1.8v-3.9h1.3v9.1H862v-4.1h-1.8
				V3323.9z"/>
			<path class="st4" d="M882.5,3322.5v1.1h-13v-1.1h5.8v-2.2h1.3v2.2H882.5z M881.2,3321.1c-2.2-0.4-4.3-1.5-5.2-3.2
				c-0.9,1.6-3,2.8-5.2,3.2l-0.5-1.1c2.5-0.4,5-2,5-3.9v-0.6h1.3v0.6c0,1.9,2.5,3.5,5,3.9L881.2,3321.1z M870.9,3325h9.9v4.7h-1.3
				v-3.6h-8.6V3325z"/>
			<path class="st4" d="M897.2,3326.8v1.1h-13v-1.1h5.8v-3.7h-4.2v-6.6h9.7v1.1h-8.4v4.5h8.6v1.1h-4.4v3.7H897.2z"/>
			<path class="st4" d="M911,3318h-8.5v-1.1h3.6v-1.7h1.3v1.7h3.6V3318z M906.8,3323.8c-2,0-3.4-1-3.4-2.5c0-1.5,1.4-2.5,3.4-2.5
				s3.4,1,3.4,2.5C910.2,3322.8,908.8,3323.8,906.8,3323.8z M913.8,3327.2c0,1.6-1.8,2.5-4.7,2.5c-2.9,0-4.7-0.9-4.7-2.5
				c0-1.6,1.8-2.5,4.7-2.5C912,3324.7,913.8,3325.6,913.8,3327.2z M906.8,3322.8c1.3,0,2.2-0.6,2.2-1.6c0-0.9-0.9-1.5-2.2-1.5
				s-2.2,0.6-2.2,1.5C904.6,3322.2,905.5,3322.8,906.8,3322.8z M912.5,3327.2c0-0.9-1.3-1.5-3.4-1.5c-2.1,0-3.4,0.5-3.4,1.5
				s1.3,1.5,3.4,1.5C911.3,3328.7,912.5,3328.1,912.5,3327.2z M913.7,3318.9v2h2.1v1.1h-2.1v2.6h-1.3v-9.2h1.3v2.5h2.1v1.1H913.7z"
				/>
			<path class="st4" d="M924.8,3323.1c-1.6-0.6-2.8-1.8-3.4-3.2c-0.6,1.7-1.9,3-3.6,3.6l-0.7-1c2.2-0.8,3.6-2.7,3.6-4.9v-1.5h1.3
				v1.6c0,1.9,1.4,3.7,3.5,4.4L924.8,3323.1z M928.5,3327.1c0,1.7-1.8,2.6-4.7,2.6c-2.9,0-4.7-0.9-4.7-2.6c0-1.7,1.8-2.6,4.7-2.6
				C926.7,3324.4,928.5,3325.4,928.5,3327.1z M927.2,3327.1c0-1-1.3-1.6-3.4-1.6c-2.1,0-3.4,0.6-3.4,1.6c0,1,1.3,1.6,3.4,1.6
				C925.9,3328.6,927.2,3328.1,927.2,3327.1z M930.5,3319v1.1h-2.1v3.9h-1.3v-8.7h1.3v3.7H930.5z"/>
		</g>
		<g class="st0">
			<path class="st4" d="M1109.7,3297.8c0-1.3,0.9-2.2,2-2.2c1.1,0,2,0.9,2,2.2c0,1.3-0.9,2.1-2,2.1
				C1110.6,3299.9,1109.7,3299.1,1109.7,3297.8z"/>
			<path class="st4" d="M1130.1,3297.7c-1.6-0.6-2.8-1.9-3.4-3.4c-0.6,1.7-1.9,3.1-3.6,3.7l-0.7-1c2.1-0.8,3.6-2.8,3.6-5v-1.8h1.3
				v1.8c0,2,1.4,3.9,3.5,4.7L1130.1,3297.7z M1134.6,3302.3v1.1h-9.6v-4.5h1.3v3.4H1134.6z M1132.9,3293.8h-3.1v-1.1h3.1v-3.4h1.3
				v10.7h-1.3V3293.8z"/>
			<path class="st4" d="M1145,3297.3c-1.6-0.6-2.8-1.8-3.5-3.2c-0.6,1.7-1.9,3-3.6,3.6l-0.7-1c2.1-0.8,3.6-2.7,3.6-4.8v-0.5h-3.2
				v-1.1h7.7v1.1h-3.2v0.5c0,1.8,1.4,3.6,3.5,4.4L1145,3297.3z M1149,3301c0,1.7-1.8,2.7-4.8,2.7c-2.9,0-4.8-1-4.8-2.7
				c0-1.7,1.8-2.7,4.8-2.7C1147.2,3298.3,1149,3299.3,1149,3301z M1147.7,3301c0-1-1.3-1.7-3.5-1.7c-2.2,0-3.5,0.6-3.5,1.7
				c0,1,1.3,1.6,3.5,1.6C1146.4,3302.7,1147.7,3302.1,1147.7,3301z M1147.7,3293.1v-3.7h1.3v8.5h-1.3v-3.8h-2.8v-1.1H1147.7z"/>
			<path class="st4" d="M1151.9,3304.7c1-0.4,1.6-1.2,1.6-2.2c-0.1,0-0.1,0-0.2,0c-0.6,0-1.1-0.4-1.1-1c0-0.6,0.5-1,1.1-1
				c0.8,0,1.2,0.7,1.2,1.7c0,1.5-0.9,2.7-2.3,3.3L1151.9,3304.7z"/>
			<path class="st4" d="M1168.4,3296.8c-2.8,0.4-6,0.5-8.3,0.5l-0.1-1.1c0.5,0,1.2,0,1.8,0v-4.8h-1.4v-1.1h7.6v1.1h-1.4v4.6
				c0.6,0,1.3-0.1,1.9-0.2L1168.4,3296.8z M1171.8,3301.1c0,1.7-1.8,2.6-4.8,2.6c-3,0-4.8-0.9-4.8-2.6c0-1.6,1.8-2.6,4.8-2.6
				C1170,3298.5,1171.8,3299.4,1171.8,3301.1z M1163,3296.2c0.7,0,1.4,0,2.2-0.1v-4.7h-2.2V3296.2z M1170.5,3301.1
				c0-1-1.3-1.6-3.5-1.6c-2.2,0-3.5,0.6-3.5,1.6c0,1,1.3,1.6,3.5,1.6C1169.2,3302.6,1170.5,3302.1,1170.5,3301.1z M1170.4,3295.5
				h-2.4v-1.1h2.4v-1.5h-2.4v-1.1h2.4v-2.5h1.3v8.8h-1.3V3295.5z"/>
			<path class="st4" d="M1182,3290.9c0,4.1-1.9,7.8-6.5,10.1l-0.7-1c3.7-1.8,5.6-4.6,5.9-8h-5.3v-1.1H1182z M1188,3296.2h-2.3v7.4
				h-1.3v-14.4h1.3v5.8h2.3V3296.2z"/>
			<path class="st4" d="M1189.4,3304.7c1-0.4,1.6-1.2,1.6-2.2c-0.1,0-0.1,0-0.2,0c-0.6,0-1.1-0.4-1.1-1c0-0.6,0.5-1,1.1-1
				c0.8,0,1.2,0.7,1.2,1.7c0,1.5-0.9,2.7-2.3,3.3L1189.4,3304.7z"/>
			<path class="st4" d="M1206.4,3297.3c-3,0.5-6.4,0.6-9,0.6l-0.1-1.1c0.9,0,2,0,3,0v-3.1h1.3v3.1c1.6-0.1,3.2-0.2,4.7-0.4
				L1206.4,3297.3z M1203.6,3295.3c0.3-1.6,0.4-2.9,0.4-3.8h-5.9v-1.1h7.1v0.8c0,0.9,0,2.4-0.4,4.3L1203.6,3295.3z M1200.8,3302.3
				h8.2v1.1h-9.5v-4.2h1.3V3302.3z M1210.6,3294v1.1h-2v5.1h-1.3v-10.8h1.3v4.7H1210.6z"/>
			<path class="st4" d="M1214.2,3299.1c2.4,0,4.5-0.1,7-0.5l0.1,1.1c-2.6,0.4-4.8,0.5-7.2,0.5h-1.2v-5.5h5.3v-3h-5.3v-1.1h6.7v5.1
				h-5.3V3299.1z M1223.9,3289.3v14.4h-1.3v-14.4H1223.9z"/>
			<path class="st4" d="M1243.4,3296.2v1.1h-13v-1.1H1243.4z M1241.8,3301.1c0,1.7-1.9,2.6-4.9,2.6s-4.9-0.9-4.9-2.6
				c0-1.7,1.9-2.6,4.9-2.6S1241.8,3299.4,1241.8,3301.1z M1241.9,3294.8h-9.8v-4.9h9.7v1.1h-8.4v2.8h8.5V3294.8z M1240.5,3301.1
				c0-1-1.3-1.6-3.6-1.6s-3.6,0.6-3.6,1.6c0,1,1.3,1.6,3.6,1.6C1239.1,3302.6,1240.5,3302.1,1240.5,3301.1z"/>
			<path class="st4" d="M1261.7,3296.6v1.1h-5.7v2.9h-1.3v-2.9h-6v-1.1H1261.7z M1250.2,3292.6c0-1.8,2-2.9,5-2.9c3,0,5,1.1,5,2.9
				c0,1.8-2,2.9-5,2.9C1252.2,3295.5,1250.2,3294.4,1250.2,3292.6z M1251.7,3302.3h8.6v1.1h-9.9v-4.2h1.3V3302.3z M1251.5,3292.6
				c0,1.1,1.5,1.8,3.6,1.8c2.2,0,3.6-0.7,3.6-1.8c0-1.1-1.4-1.8-3.6-1.8C1253,3290.8,1251.5,3291.4,1251.5,3292.6z"/>
			<path class="st4" d="M1270.2,3295.8c-0.7,0.8-1.7,1.2-2.9,1.2c-2.1,0-3.7-1.4-3.7-3.4c0-2,1.6-3.4,3.7-3.4c1.2,0,2.2,0.5,2.9,1.2
				h3.7v-2.1h1.3v8.5h-1.3v-2H1270.2z M1267.4,3295.9c1.4,0,2.4-1,2.4-2.3c0-1.3-1-2.3-2.4-2.3c-1.4,0-2.4,1-2.4,2.3
				C1264.9,3294.9,1266,3295.9,1267.4,3295.9z M1275.3,3300.9c0,1.7-1.8,2.8-4.8,2.8c-2.9,0-4.8-1-4.8-2.8c0-1.7,1.8-2.8,4.8-2.8
				C1273.5,3298.2,1275.3,3299.2,1275.3,3300.9z M1274,3300.9c0-1.1-1.3-1.7-3.5-1.7c-2.2,0-3.5,0.6-3.5,1.7c0,1.1,1.3,1.7,3.5,1.7
				C1272.7,3302.6,1274,3302,1274,3300.9z M1270.9,3292.5c0.1,0.3,0.2,0.7,0.2,1.1c0,0.4-0.1,0.8-0.2,1.1h3.1v-2.2H1270.9z"/>
		</g>
		<g class="st0">
			<path class="st4" d="M1135.8,3326.8v1.1h-13v-1.1H1135.8z M1126.2,3317.8h-2.2v-1.1h10.6v1.1h-2.2v5h2.2v1.1H1124v-1.1h2.2
				V3317.8z M1131,3317.8h-3.6v5h3.6V3317.8z"/>
			<path class="st4" d="M1150.5,3326.8v1.1h-13v-1.1h5.8v-2.7h-4.2v-4.4h8.5v-2.2h-8.5v-1.1h9.8v4.4h-8.5v2.3h8.8v1.1h-4.6v2.7
				H1150.5z"/>
			<path class="st4" d="M1156.5,3319.4c0,2.3,1.1,4.7,3,5.9l-0.8,1c-1.4-0.8-2.3-2.4-2.8-4.1c-0.5,1.9-1.6,3.5-3,4.4l-0.8-1
				c2-1.2,3.2-3.7,3.2-6.2v-2.7h1.3V3319.4z M1160.3,3315.6h1.2v13.3h-1.2v-7.4h-2.4v-1.1h2.4V3315.6z M1164.4,3315.3v14.4h-1.2
				v-14.4H1164.4z"/>
			<path class="st4" d="M1179.9,3326.7v1.1h-13v-1.1H1179.9z M1178.7,3323.6c-2.2-0.5-4.4-2-5.3-4.1c-0.9,2.1-3.2,3.6-5.3,4.1
				l-0.6-1.1c2.5-0.5,5.2-2.7,5.2-5.1v-1.1h1.4v1.1c0,2.4,2.7,4.6,5.2,5.1L1178.7,3323.6z"/>
			<path class="st4" d="M1198.2,3322.9v1.1h-13v-1.1h5.8v-1.4h-4.1v-5.8h9.7v1h-8.4v1.3h8v1h-8v1.4h8.5v1h-4.3v1.4H1198.2z
				 M1196.6,3327.4c0,1.5-1.8,2.3-4.9,2.3c-3.1,0-4.9-0.8-4.9-2.3c0-1.5,1.8-2.3,4.9-2.3C1194.8,3325.1,1196.6,3325.9,1196.6,3327.4
				z M1195.3,3327.4c0-0.8-1.3-1.3-3.6-1.3c-2.3,0-3.6,0.5-3.6,1.3c0,0.9,1.3,1.3,3.6,1.3C1194,3328.7,1195.3,3328.2,1195.3,3327.4z
				"/>
			<path class="st4" d="M1208.5,3317.9h-8.5v-1.1h3.6v-1.6h1.3v1.6h3.6V3317.9z M1204.2,3323.6c-2,0-3.4-1-3.4-2.5
				c0-1.5,1.4-2.5,3.4-2.5s3.4,1,3.4,2.5C1207.7,3322.6,1206.3,3323.6,1204.2,3323.6z M1204.2,3322.6c1.3,0,2.2-0.6,2.2-1.5
				c0-0.9-0.9-1.5-2.2-1.5s-2.2,0.6-2.2,1.5C1202.1,3322,1202.9,3322.6,1204.2,3322.6z M1209.8,3324.3h1.3v5.2h-9v-5.2h1.3v1.5h6.4
				V3324.3z M1209.8,3326.9h-6.4v1.6h6.4V3326.9z M1213.2,3320.1h-2.1v3.6h-1.3v-8.3h1.3v3.6h2.1V3320.1z"/>
			<path class="st4" d="M1225.7,3322.1h-6.7v-5.9h6.7V3322.1z M1226.2,3325.6c0,1.4,2.2,2.8,4.7,3.1l-0.4,1
				c-2.2-0.3-4.1-1.3-4.9-2.6c-0.9,1.4-2.8,2.3-5,2.6l-0.4-1c2.4-0.3,4.7-1.6,4.8-3.1h-4.2v-1h4.2v-1.4h1.3v1.4h4.2v1H1226.2z
				 M1224.4,3317.3h-4.1v3.8h4.1V3317.3z M1230,3323.6h-1.3v-8.2h1.3V3323.6z"/>
			<path class="st4" d="M1249.6,3326.9v1.1h-13v-1.1h3.6v-3.4h-2.4v-1.1h2.2v-4.7h-2.2v-1.1h10.6v1.1h-2.2v4.7h2.2v1.1h-2.4v3.4
				H1249.6z M1241.3,3322.4h3.6v-4.7h-3.6V3322.4z M1241.5,3326.9h3.1v-3.4h-3.1V3326.9z"/>
			<path class="st4" d="M1264.3,3322.7v1.1h-5.7v2.9h-1.3v-2.9h-6v-1.1H1264.3z M1252.1,3320.6c2.5-0.3,4.9-1.8,4.9-3.5v0h-4.5v-1.1
				h10.6v1.1h-4.5v0c0,1.7,2.3,3.2,4.9,3.5l-0.5,1.1c-2.3-0.4-4.5-1.5-5.2-3.2c-0.8,1.7-2.9,2.8-5.2,3.2L1252.1,3320.6z
				 M1254.2,3328.3h8.6v1.1h-9.9v-4.1h1.3V3328.3z"/>
			<path class="st4" d="M1271,3325.8c1.3-0.1,2.6-0.2,3.9-0.4l0.1,1c-3.1,0.5-6.5,0.6-9,0.6l-0.2-1.1c1.2,0,2.5,0,3.9,0v-1.6
				c-1.6-0.2-2.7-1.2-2.7-2.6c0-1.6,1.4-2.7,3.4-2.7s3.4,1,3.4,2.7c0,1.4-1.1,2.4-2.7,2.6V3325.8z M1274.7,3318.1h-8.6v-1h3.6v-1.7
				h1.3v1.7h3.6V3318.1z M1270.4,3323.3c1.3,0,2.1-0.6,2.1-1.6s-0.9-1.6-2.1-1.6s-2.1,0.7-2.1,1.6S1269.1,3323.3,1270.4,3323.3z
				 M1279.3,3322.5h-2.2v7.2h-1.3v-14.4h1.3v6.1h2.2V3322.5z"/>
		</g>
		<g class="st0">
			<path class="st4" d="M1109.7,3349.8c0-1.3,0.9-2.2,2-2.2c1.1,0,2,0.9,2,2.2c0,1.3-0.9,2.1-2,2.1
				C1110.6,3351.9,1109.7,3351.1,1109.7,3349.8z"/>
			<path class="st4" d="M1130,3349.1c-1.6-0.6-2.8-1.8-3.4-3.2c-0.6,1.7-1.9,3-3.6,3.6l-0.7-1c2.2-0.8,3.6-2.7,3.6-4.9v-1.5h1.3v1.6
				c0,1.9,1.4,3.7,3.5,4.4L1130,3349.1z M1133.7,3353.1c0,1.7-1.8,2.6-4.7,2.6c-2.9,0-4.7-0.9-4.7-2.6c0-1.7,1.8-2.6,4.7-2.6
				C1131.9,3350.4,1133.7,3351.4,1133.7,3353.1z M1132.4,3353.1c0-1-1.3-1.6-3.4-1.6c-2.1,0-3.4,0.6-3.4,1.6c0,1,1.3,1.6,3.4,1.6
				C1131.1,3354.6,1132.4,3354.1,1132.4,3353.1z M1135.7,3345v1.1h-2.1v3.9h-1.3v-8.7h1.3v3.7H1135.7z"/>
			<path class="st4" d="M1142.2,3345.2c0,2.6,1.7,5.3,3.8,6.2l-0.8,1.1c-1.6-0.8-3-2.5-3.7-4.5c-0.7,2.2-2,4-3.7,4.8l-0.8-1.1
				c2.1-1,3.9-3.8,3.9-6.5v-2.6h1.3V3345.2z M1148.9,3341.3v14.4h-1.3v-14.4H1148.9z"/>
			<path class="st4" d="M1168.5,3352.8v1.1h-13v-1.1h5.8v-3.5h-4.3v-6.7h9.9v6.7h-4.3v3.5H1168.5z M1158.3,3348.2h7.3v-4.7h-7.3
				V3348.2z"/>
			<path class="st4" d="M1172.4,3350.9c2.2,0,4.4-0.2,6.8-0.7l0.1,1.1c-2.5,0.5-4.8,0.7-7,0.7h-1.2v-9.3h1.3V3350.9z M1181.9,3341.3
				v14.3h-1.3v-14.3H1181.9z"/>
			<path class="st4" d="M1186.9,3351.2c2.6,0,4.3-0.1,6.2-0.4l0.1,1.1c-2.1,0.4-3.8,0.4-6.6,0.4h-1.1v-9.6h6.6v1.1h-5.3v3h4.7v1.1
				h-4.7V3351.2z M1196.7,3341.3v14.4h-1.3v-7.9h-3v-1.1h3v-5.4H1196.7z"/>
			<path class="st4" d="M1208.5,3348.8c-2.4,0.4-4.3,0.5-7,0.5h-1.2v-4.1h5.2v-1.9h-5.2v-1.1h6.5v4h-5.2v2c2.5,0,4.4-0.1,6.7-0.4
				L1208.5,3348.8z M1211.5,3353.1c0,1.7-1.8,2.6-4.8,2.6c-3,0-4.8-0.9-4.8-2.6c0-1.6,1.8-2.6,4.8-2.6
				C1209.6,3350.5,1211.5,3351.4,1211.5,3353.1z M1210.2,3353.1c0-1-1.3-1.6-3.5-1.6c-2.2,0-3.5,0.6-3.5,1.6c0,1,1.3,1.6,3.5,1.6
				C1208.9,3354.6,1210.2,3354.1,1210.2,3353.1z M1211.4,3350.2h-1.3v-8.8h1.3V3350.2z"/>
			<path class="st4" d="M1225.4,3348.1h-6.7v-5.9h6.7V3348.1z M1225.8,3351.6c0,1.4,2.2,2.8,4.7,3.1l-0.4,1
				c-2.2-0.3-4.1-1.3-4.9-2.6c-0.9,1.4-2.8,2.3-5,2.6l-0.4-1c2.4-0.3,4.7-1.6,4.8-3.1h-4.2v-1h4.2v-1.4h1.3v1.4h4.2v1H1225.8z
				 M1224.1,3343.3h-4.1v3.8h4.1V3343.3z M1229.7,3349.6h-1.3v-8.2h1.3V3349.6z"/>
			<path class="st4" d="M1245.2,3349.3c-3,0.5-6.4,0.6-9,0.6l-0.1-1.1c0.9,0,2,0,3,0v-3.1h1.3v3.1c1.6-0.1,3.2-0.2,4.7-0.4
				L1245.2,3349.3z M1242.5,3347.3c0.3-1.6,0.4-2.9,0.4-3.8h-5.9v-1.1h7.1v0.8c0,0.9,0,2.4-0.4,4.3L1242.5,3347.3z M1239.6,3354.3
				h8.2v1.1h-9.5v-4.2h1.3V3354.3z M1249.5,3346v1.1h-2v5.1h-1.3v-10.8h1.3v4.7H1249.5z"/>
			<path class="st4" d="M1253.1,3351.1c2.4,0,4.5-0.1,7-0.5l0.1,1.1c-2.6,0.4-4.8,0.5-7.2,0.5h-1.2v-5.5h5.3v-3h-5.3v-1.1h6.7v5.1
				h-5.3V3351.1z M1262.7,3341.3v14.4h-1.3v-14.4H1262.7z"/>
		</g>
		<g class="st0">
			<path class="st4" d="M1429.7,3297.8c0-1.3,0.9-2.2,2-2.2c1.1,0,2,0.9,2,2.2c0,1.3-0.9,2.1-2,2.1
				C1430.6,3299.9,1429.7,3299.1,1429.7,3297.8z"/>
			<path class="st4" d="M1447.5,3293.2c0,2.6,1.7,5.3,3.8,6.2l-0.8,1.1c-1.6-0.8-3-2.5-3.7-4.5c-0.7,2.2-2,4-3.7,4.8l-0.8-1.1
				c2.1-1,3.9-3.8,3.9-6.5v-2.6h1.3V3293.2z M1454.2,3289.3v14.4h-1.3v-14.4H1454.2z"/>
			<path class="st4" d="M1464.9,3297.3c-1.6-0.5-2.9-1.7-3.5-3.1c-0.6,1.6-1.9,2.9-3.6,3.5l-0.7-1c2.2-0.8,3.6-2.6,3.6-4.7v-0.6
				h-3.2v-1.1h7.7v1.1h-3.2v0.6c0,1.9,1.4,3.6,3.5,4.3L1464.9,3297.3z M1468.5,3301c0,1.7-1.8,2.7-4.7,2.7c-2.9,0-4.7-1-4.7-2.7
				c0-1.7,1.8-2.6,4.7-2.6C1466.7,3298.4,1468.5,3299.3,1468.5,3301z M1467.1,3301c0-1-1.3-1.6-3.4-1.6c-2.1,0-3.4,0.6-3.4,1.6
				c0,1,1.3,1.6,3.4,1.6C1465.9,3302.6,1467.1,3302,1467.1,3301z M1470.4,3293v1.1h-2.1v3.9h-1.3v-8.7h1.3v3.6H1470.4z"/>
			<path class="st4" d="M1480.9,3298.3c-3,0.6-6.5,0.6-9,0.6l-0.1-1.1c1.1,0,2.4,0,3.8-0.1v-1.1c-1.6-0.2-2.7-1-2.7-2.2
				c0-1.4,1.3-2.2,3.4-2.2c2,0,3.3,0.8,3.3,2.2c0,1.2-1,2-2.7,2.2v1c1.3-0.1,2.7-0.2,3.9-0.4L1480.9,3298.3z M1480.4,3291.7h-8.2v-1
				h3.5v-1.5h1.3v1.5h3.5V3291.7z M1475.2,3302.3h8.3v1.1h-9.6v-3.6h1.3V3302.3z M1476.3,3295.8c1.3,0,2.1-0.5,2.1-1.3
				c0-0.8-0.8-1.3-2.1-1.3c-1.3,0-2.1,0.5-2.1,1.3C1474.2,3295.3,1475,3295.8,1476.3,3295.8z M1485.1,3294.3v1.1h-2.1v5.1h-1.3
				v-11.2h1.3v5H1485.1z"/>
			<path class="st4" d="M1493.5,3293c-0.9,2.3-3.1,4-6.2,4.9l-0.5-1c3.4-1,5.6-2.9,5.8-5.4h-5.1v-1.1h6.5c0,0.5-0.1,1.1-0.2,1.6h3.2
				v-2.6h1.3v8.6h-1.3v-1.9h-3.8v-1.1h3.8v-1.9H1493.5z M1498.5,3300.9c0,1.7-1.9,2.8-4.8,2.8s-4.8-1-4.8-2.8s1.9-2.8,4.8-2.8
				S1498.5,3299.1,1498.5,3300.9z M1497.2,3300.9c0-1.1-1.3-1.7-3.5-1.7s-3.5,0.7-3.5,1.7c0,1.1,1.3,1.7,3.5,1.7
				S1497.2,3301.9,1497.2,3300.9z"/>
			<path class="st4" d="M1512.1,3297.5h-6.5v-7.2h1.3v2.5h3.9v-2.5h1.3v1.7h3.3v-2.6h1.3v10.6h-1.3v-3.8h-3.3V3297.5z
				 M1510.8,3293.9h-3.9v2.6h3.9V3293.9z M1517.1,3302.3v1.1h-9.6v-4.5h1.3v3.4H1517.1z M1512.1,3293v2h3.3v-2H1512.1z"/>
			<path class="st4" d="M1524.7,3299.8c1.3-0.1,2.6-0.2,3.9-0.4l0.1,1c-3.1,0.5-6.5,0.6-9,0.6l-0.2-1.1c1.2,0,2.5,0,3.9,0v-1.6
				c-1.6-0.2-2.7-1.2-2.7-2.6c0-1.6,1.4-2.7,3.4-2.7c2,0,3.4,1,3.4,2.7c0,1.4-1.1,2.4-2.7,2.6V3299.8z M1528.3,3292.1h-8.6v-1h3.7
				v-1.7h1.3v1.7h3.6V3292.1z M1524,3297.3c1.3,0,2.1-0.6,2.1-1.6s-0.9-1.6-2.1-1.6c-1.3,0-2.1,0.7-2.1,1.6
				S1522.7,3297.3,1524,3297.3z M1532.9,3296.5h-2.2v7.2h-1.3v-14.4h1.3v6.1h2.2V3296.5z"/>
			<path class="st4" d="M1545.7,3297.3c-1.6-0.6-2.8-1.8-3.5-3.2c-0.6,1.7-1.9,3-3.6,3.6l-0.7-1c2.1-0.8,3.6-2.7,3.6-4.8v-0.5h-3.2
				v-1.1h7.7v1.1h-3.2v0.5c0,1.8,1.4,3.6,3.5,4.4L1545.7,3297.3z M1549.8,3301c0,1.7-1.8,2.7-4.8,2.7c-2.9,0-4.8-1-4.8-2.7
				c0-1.7,1.8-2.7,4.8-2.7C1548,3298.3,1549.8,3299.3,1549.8,3301z M1548.5,3301c0-1-1.3-1.7-3.5-1.7s-3.5,0.6-3.5,1.7
				c0,1,1.3,1.6,3.5,1.6S1548.5,3302.1,1548.5,3301z M1548.4,3293.1v-3.7h1.3v8.5h-1.3v-3.8h-2.8v-1.1H1548.4z"/>
			<path class="st4" d="M1565.7,3300.8v1.1h-13v-1.1h5.8v-3.1h-4.3v-7.3h1.3v2.6h7.3v-2.6h1.3v7.3h-4.3v3.1H1565.7z M1555.5,3296.6
				h7.3v-2.6h-7.3V3296.6z"/>
			<path class="st4" d="M1575.2,3293.4c0,2.5,1.1,5,3.1,6.1l-0.8,1c-1.4-0.8-2.4-2.4-2.9-4.2c-0.5,2-1.5,3.6-3,4.5l-0.8-1
				c2-1.2,3.1-3.8,3.1-6.5v-1.3h-2.7v-1.1h6.5v1.1h-2.6V3293.4z M1579,3289.6h1.2v13.3h-1.2v-7.4h-2.4v-1.1h2.4V3289.6z
				 M1583.1,3289.3v14.4h-1.3v-14.4H1583.1z"/>
			<path class="st4" d="M1598.6,3296v1.1h-12.9v-1.1h5.3v-2.8h1.3v2.8H1598.6z M1597.1,3301c0,1.6-2,2.6-5,2.6c-3.1,0-5-1-5-2.6
				c0-1.7,1.9-2.6,5-2.6C1595.2,3298.4,1597.1,3299.4,1597.1,3301z M1595.7,3291.1h-8.5v-1.1h9.8v1.2c0,1.2,0,2.3-0.4,3.8l-1.3-0.1
				c0.4-1.5,0.4-2.5,0.4-3.6V3291.1z M1595.8,3301c0-1-1.4-1.6-3.7-1.6c-2.2,0-3.7,0.6-3.7,1.6c0,1,1.4,1.6,3.7,1.6
				C1594.4,3302.6,1595.8,3302,1595.8,3301z"/>
		</g>
		<g class="st0">
			<path class="st4" d="M1429.7,3323.8c0-1.3,0.9-2.2,2-2.2c1.1,0,2,0.9,2,2.2c0,1.3-0.9,2.1-2,2.1
				C1430.6,3325.9,1429.7,3325.1,1429.7,3323.8z"/>
			<path class="st4" d="M1444.6,3325.1c2.4,0,4.5-0.1,7-0.5l0.1,1.1c-2.6,0.4-4.8,0.5-7.2,0.5h-1.2v-5.5h5.3v-3h-5.3v-1.1h6.7v5.1
				h-5.3V3325.1z M1454.2,3315.3v14.4h-1.3v-14.4H1454.2z"/>
			<path class="st4" d="M1470.2,3326.7v1.1h-13v-1.1H1470.2z M1468.9,3323.6c-2.2-0.5-4.4-2-5.3-4.1c-0.9,2.1-3.2,3.6-5.3,4.1
				l-0.6-1.1c2.5-0.5,5.2-2.7,5.2-5.1v-1.1h1.4v1.1c0,2.4,2.7,4.6,5.2,5.1L1468.9,3323.6z"/>
			<path class="st4" d="M1484.9,3326.6v1.1h-13v-1.1H1484.9z M1482,3320.8c0-0.8,0-1.5,0-2.2v-0.7h-8.6v-1.1h9.8v1.8
				c0,2.1,0,4.1-0.6,7l-1.3-0.1c0.3-1.4,0.5-2.6,0.6-3.7l-8.7,0.5l-0.2-1.1L1482,3320.8z"/>
			<path class="st4" d="M1492,3325.1c1.9,0,3.3-0.1,4.8-0.4l0.1,1.1c-1.7,0.4-3.2,0.4-5.3,0.4h-0.9v-9.1h5.3v1.1h-4V3325.1z
				 M1502.4,3315.3v14.4h-1.3v-7.5h-2v6.8h-1.2v-13.3h1.2v5.4h2v-5.8H1502.4z"/>
			<path class="st4" d="M1517.9,3322.3v1.1h-13v-1.1H1517.9z M1516.4,3318.4c0,1.7-1.9,2.7-5,2.7c-3.1,0-5-1-5-2.7
				c0-1.7,2-2.7,5-2.7C1514.5,3315.7,1516.4,3316.7,1516.4,3318.4z M1516.3,3327.1c0,1.6-1.8,2.6-4.9,2.6c-3.1,0-4.9-0.9-4.9-2.6
				c0-1.6,1.9-2.6,4.9-2.6C1514.5,3324.6,1516.3,3325.5,1516.3,3327.1z M1507.7,3318.4c0,1.1,1.4,1.7,3.7,1.7s3.7-0.6,3.7-1.7
				c0-1.1-1.4-1.7-3.7-1.7S1507.7,3317.4,1507.7,3318.4z M1507.8,3327.1c0,1,1.3,1.5,3.6,1.5s3.6-0.6,3.6-1.5c0-1-1.3-1.6-3.6-1.6
				S1507.8,3326.1,1507.8,3327.1z"/>
			<path class="st4" d="M1523.8,3319.7c0,2.3,1.2,4.7,3.1,5.7l-0.8,1c-1.4-0.8-2.4-2.2-2.9-4c-0.5,1.8-1.5,3.4-2.9,4.3l-0.8-1
				c1.9-1.2,3-3.7,3-6v-0.7h-2.7v-1.1h2.7v-2.1h1.3v2.1h2.6v1.1h-2.7V3319.7z M1527.7,3315.7h1.2v13.3h-1.2v-6.9h-2.2v-1.1h2.2
				V3315.7z M1531.8,3315.3v14.3h-1.3v-14.3H1531.8z"/>
			<path class="st4" d="M1542.4,3315.7h1.2v13.2h-1.2v-5h-2.6v-1.1h2.6v-2.5h-2.4c-0.7,2.4-2.2,4.6-4.9,6.2l-0.8-0.9
				c3.1-1.8,4.6-4.4,4.8-7.4h-4.2v-1.1h5.5c0,0.7-0.1,1.5-0.2,2.2h2.1V3315.7z M1546.5,3315.3v14.3h-1.2v-14.3H1546.5z"/>
			<path class="st4" d="M1565.6,3324.5h-5.9v5.2h-1.3v-5.2h-5.8v-1.1h13L1565.6,3324.5z M1564.5,3321.9c-2.2-0.4-4.4-1.6-5.3-3.4
				c-0.9,1.7-3.1,3-5.3,3.4l-0.5-1.1c2.6-0.4,5.1-2.1,5.1-4.2v-0.8h1.4v0.8c0,2,2.6,3.8,5.2,4.2L1564.5,3321.9z"/>
			<path class="st4" d="M1576.2,3322.4c-2.4,0.4-4.3,0.5-7,0.5h-1.2v-4h5.2v-1.8h-5.2v-1.1h6.5v3.9h-5.2v1.9c2.5,0,4.4-0.1,6.7-0.4
				L1576.2,3322.4z M1577.9,3323.9h1.3v5.6h-9.3v-5.6h1.3v1.7h6.7V3323.9z M1577.9,3326.7h-6.7v1.8h6.7V3326.7z M1579.1,3315.3v7.9
				h-1.3v-7.9H1579.1z"/>
			<path class="st4" d="M1590.8,3319.7c0,2.4,1.7,4.9,3.8,5.8l-0.7,1.1c-1.7-0.8-3.1-2.4-3.8-4.4c-0.7,2.1-2.1,3.9-3.7,4.7l-0.8-1.1
				c2.1-1,3.8-3.7,3.8-6.2v-1.8h-3.3v-1.1h8v1.1h-3.4V3319.7z M1597.4,3315.3v14.3h-1.3v-14.3H1597.4z"/>
			<path class="st4" d="M1604.5,3323c-1.4,0.1-2.8,0.1-4,0.1l-0.2-1.1c2.7,0,6.2,0,9.3-0.4l0.1,0.9c-1.3,0.2-2.6,0.3-3.9,0.4v2.8
				h-1.3V3323z M1601.4,3318.4c0-1.5,1.4-2.5,3.5-2.5c2.1,0,3.5,1,3.5,2.5c0,1.5-1.4,2.5-3.5,2.5
				C1602.9,3320.9,1601.4,3319.9,1601.4,3318.4z M1612.5,3328.3v1.1h-10.1v-4.2h1.3v3.1H1612.5z M1602.7,3318.4
				c0,0.9,0.9,1.5,2.3,1.5c1.4,0,2.3-0.6,2.3-1.5c0-0.9-0.9-1.5-2.3-1.5C1603.6,3316.9,1602.7,3317.5,1602.7,3318.4z M1610.8,3323.8
				v-8.5h1.3v10.9h-1.3v-1.5h-2.9v-1H1610.8z"/>
		</g>
		<g id="그룹_4162" transform="translate(1036.987 3270.533) rotate(-90)">
			<path id="패스_1794" class="st5" d="M7,8.1l7-8.1H0L7,8.1z"/>
		</g>
		<g id="그룹_5487" transform="translate(1356.987 3270.533) rotate(-90)">
			<path id="패스_1794-2" class="st5" d="M7,8.1l7-8.1H0L7,8.1z"/>
		</g>
		<g class="st0">
			<path class="st6" d="M856.1,3192.6l1.7-2c1.1,1,2.5,1.6,3.8,1.6c1.5,0,2.4-0.7,2.4-1.7c0-1.1-0.9-1.4-2.2-2l-2-0.8
				c-1.5-0.6-3-1.8-3-4c0-2.4,2.1-4.3,5.1-4.3c1.7,0,3.4,0.7,4.6,1.9l-1.5,1.9c-0.9-0.8-1.9-1.2-3.1-1.2c-1.3,0-2.1,0.6-2.1,1.6
				c0,1.1,1,1.4,2.3,1.9l1.9,0.8c1.8,0.7,3,1.9,3,4c0,2.4-2,4.5-5.4,4.5C859.5,3194.8,857.5,3194,856.1,3192.6z"/>
			<path class="st6" d="M872.2,3182.2h-4.2v-2.5h11.3v2.5h-4.2v12.3h-3V3182.2z"/>
			<path class="st6" d="M882,3179.7h9.1v2.5h-6.1v3.4h5.2v2.5h-5.2v4h6.3v2.5H882V3179.7z"/>
			<path class="st6" d="M894.4,3179.7h4.9c3.3,0,5.8,1.2,5.8,4.7c0,3.4-2.5,4.9-5.7,4.9h-2v5.3h-3V3179.7z M899.2,3186.9
				c2,0,3-0.9,3-2.6c0-1.7-1.1-2.3-3.1-2.3h-1.7v4.9H899.2z"/>
			<path class="st6" d="M912.5,3192.1h3.2v-9H913v-1.8c1.5-0.3,2.5-0.7,3.4-1.2h2.2v12h2.8v2.4h-8.9V3192.1z"/>
		</g>
		<g class="st0">
			<path class="st6" d="M1176.1,3192.6l1.7-2c1.1,1,2.5,1.6,3.8,1.6c1.5,0,2.4-0.7,2.4-1.7c0-1.1-0.9-1.4-2.2-2l-2-0.8
				c-1.5-0.6-3-1.8-3-4c0-2.4,2.1-4.3,5.1-4.3c1.7,0,3.4,0.7,4.6,1.9l-1.5,1.9c-0.9-0.8-1.9-1.2-3.1-1.2c-1.3,0-2.1,0.6-2.1,1.6
				c0,1.1,1,1.4,2.3,1.9l1.9,0.8c1.8,0.7,3,1.9,3,4c0,2.4-2,4.5-5.4,4.5C1179.5,3194.8,1177.5,3194,1176.1,3192.6z"/>
			<path class="st6" d="M1192.2,3182.2h-4.2v-2.5h11.3v2.5h-4.2v12.3h-3V3182.2z"/>
			<path class="st6" d="M1202,3179.7h9.1v2.5h-6.1v3.4h5.2v2.5h-5.2v4h6.3v2.5h-9.3V3179.7z"/>
			<path class="st6" d="M1214.4,3179.7h4.9c3.3,0,5.8,1.2,5.8,4.7c0,3.4-2.5,4.9-5.7,4.9h-2v5.3h-3V3179.7z M1219.2,3186.9
				c2,0,3-0.9,3-2.6c0-1.7-1.1-2.3-3.1-2.3h-1.7v4.9H1219.2z"/>
			<path class="st6" d="M1231.7,3192.8c3.9-3.7,6.4-6.2,6.4-8.3c0-1.5-0.8-2.3-2.2-2.3c-1.1,0-2,0.7-2.7,1.5l-1.6-1.6
				c1.4-1.5,2.7-2.3,4.7-2.3c2.8,0,4.7,1.8,4.7,4.5c0,2.5-2.3,5.1-5,7.9c0.7-0.1,1.7-0.2,2.4-0.2h3.2v2.5h-9.9V3192.8z"/>
		</g>
		<g class="st0">
			<path class="st6" d="M1496.1,3192.6l1.7-2c1.1,1,2.5,1.6,3.8,1.6c1.5,0,2.4-0.7,2.4-1.7c0-1.1-0.9-1.4-2.2-2l-2-0.8
				c-1.5-0.6-3-1.8-3-4c0-2.4,2.1-4.3,5.1-4.3c1.7,0,3.4,0.7,4.6,1.9l-1.5,1.9c-0.9-0.8-1.9-1.2-3.1-1.2c-1.3,0-2.1,0.6-2.1,1.6
				c0,1.1,1,1.4,2.3,1.9l1.9,0.8c1.8,0.7,3,1.9,3,4c0,2.4-2,4.5-5.4,4.5C1499.5,3194.8,1497.5,3194,1496.1,3192.6z"/>
			<path class="st6" d="M1512.2,3182.2h-4.2v-2.5h11.3v2.5h-4.2v12.3h-3V3182.2z"/>
			<path class="st6" d="M1522,3179.7h9.1v2.5h-6.1v3.4h5.2v2.5h-5.2v4h6.3v2.5h-9.3V3179.7z"/>
			<path class="st6" d="M1534.4,3179.7h4.9c3.3,0,5.8,1.2,5.8,4.7c0,3.4-2.5,4.9-5.7,4.9h-2v5.3h-3V3179.7z M1539.2,3186.9
				c2,0,3-0.9,3-2.6c0-1.7-1.1-2.3-3.1-2.3h-1.7v4.9H1539.2z"/>
			<path class="st6" d="M1551.4,3192.7l1.4-1.9c0.9,0.9,2,1.5,3.3,1.5c1.5,0,2.5-0.7,2.5-2c0-1.4-0.9-2.3-4.1-2.3v-2.1
				c2.7,0,3.6-0.9,3.6-2.1c0-1.1-0.7-1.8-2-1.8c-1.1,0-1.9,0.5-2.8,1.3l-1.5-1.8c1.3-1.1,2.7-1.8,4.4-1.8c2.9,0,4.8,1.4,4.8,3.9
				c0,1.6-0.9,2.6-2.5,3.3v0.1c1.7,0.4,2.9,1.7,2.9,3.6c0,2.6-2.4,4.2-5.2,4.2C1554,3194.8,1552.4,3193.9,1551.4,3192.7z"/>
		</g>
	</g>
</g>
</svg>
