<?xml version="1.0" encoding="utf-8"?>
<!-- Generator: Adobe Illustrator 25.1.0, SVG Export Plug-In . SVG Version: 6.00 Build 0)  -->
<svg version="1.1" id="레이어_1" xmlns="http://www.w3.org/2000/svg" xmlns:xlink="http://www.w3.org/1999/xlink" x="0px"
	 y="0px" viewBox="0 0 927.5 620.6" style="enable-background:new 0 0 927.5 620.6;" xml:space="preserve">
<style type="text/css">
	.st0{fill:#E37E28;}
	.st1{enable-background:new    ;}
	.st2{fill:#FFFFFF;}
	.st3{fill:none;stroke:#E37E28;}
	.st4{clip-path:url(#SVGID_2_);}
	.st5{clip-path:url(#SVGID_4_);}
	.st6{fill:none;}
	.st7{fill:#6F6F6F;}
</style>
<g id="그룹_5507" transform="translate(-738.5 -1203.5)">
	<path id="패스_3458" class="st0" d="M1259.8,1286.3L1666,1432H847L1259.8,1286.3z"/>
	<g class="st1">
		<path class="st2" d="M1158.1,1353.5v18.1h-2.1v-9.7h-3.5c-0.2,3.5-2.1,5.7-4.6,5.7c-2.7,0-4.6-2.5-4.6-6.4c0-3.9,1.9-6.4,4.6-6.4
			c2.4,0,4.3,2.1,4.5,5.4h3.5v-6.7H1158.1z M1150.6,1361.2c0-2.8-1.1-4.5-2.6-4.5c-1.5,0-2.6,1.7-2.6,4.5c0,2.9,1.1,4.5,2.6,4.5
			C1149.5,1365.7,1150.6,1364,1150.6,1361.2z"/>
		<path class="st2" d="M1164.2,1365.7c2.5,0,4.6-0.1,7.1-0.5l0.2,1.7c-2.7,0.4-5.1,0.5-7.9,0.5h-1.4v-7.3h5.9v-3.4h-5.9v-1.7h8v6.7
			h-5.9V1365.7z M1176.5,1353.4v18.1h-2.1v-7.5h-3.4v-1.7h3.4v-3.2h-3.3v-1.7h3.3v-4H1176.5z"/>
		<path class="st2" d="M1189.1,1363.5v1.8h5.2v6h-12.4v-6h5.2v-1.8h-7.1v-1.7h16.3v1.7H1189.1z M1181.6,1357.2
			c0-2.1,2.5-3.4,6.4-3.4s6.4,1.3,6.4,3.4c0,2.1-2.5,3.4-6.4,3.4S1181.6,1359.3,1181.6,1357.2z M1183.8,1357.2
			c0,1.2,1.6,1.8,4.3,1.8c2.7,0,4.3-0.7,4.3-1.8c0-1.2-1.6-1.8-4.3-1.8C1185.4,1355.4,1183.8,1356,1183.8,1357.2z M1192.2,1366.9
			h-8.3v2.8h8.3V1366.9z"/>
		<path class="st2" d="M1214.6,1362.8v1.7h-16.3v-1.7H1214.6z M1200,1357.7c0-2.3,2.5-3.7,6.4-3.7c3.9,0,6.4,1.4,6.4,3.7
			c0,2.3-2.5,3.7-6.4,3.7C1202.6,1361.4,1200,1360,1200,1357.7z M1202.4,1369.5h10.4v1.7h-12.5v-5.3h2.1V1369.5z M1202.2,1357.7
			c0,1.3,1.7,2,4.3,2c2.6,0,4.3-0.7,4.3-2c0-1.3-1.7-2-4.3-2C1203.8,1355.7,1202.2,1356.4,1202.2,1357.7z"/>
		<path class="st2" d="M1223.9,1365.3c2.4,0,5-0.2,7.8-0.8l0.2,1.7c-3.1,0.6-5.9,0.8-8.6,0.8h-1.5v-11.8h2.1V1365.3z M1237.9,1362.2
			h-2.7v9.3h-2.1v-18.1h2.1v7h2.7V1362.2z"/>
		<path class="st2" d="M1248.8,1362.1v1.6h5.2v4.4h-10.3v1.6h10.9v1.6h-12.9v-4.6h10.3v-1.4h-10.4v-1.6h5.2v-1.6h-7.1v-1.7h16.4v1.7
			H1248.8z M1254.1,1359.1h-12.4v-5.4h2v3.8h10.3V1359.1z"/>
		<path class="st2" d="M1274.3,1365.2h-7.2v6.4h-2.1v-6.4h-7.1v-1.7h16.3V1365.2z M1272.8,1361.8c-3-0.5-5.5-2-6.6-4.1
			c-1.2,2.1-3.7,3.6-6.7,4.1l-0.8-1.7c3.7-0.5,6.4-2.7,6.4-5.1v-1h2.2v1c0,2.3,2.7,4.6,6.4,5.1L1272.8,1361.8z"/>
		<path class="st2" d="M1292.8,1363.3v1.7h-16.4v-1.7h7.2v-1.6h-5.1v-4.7h10.2v-1.5h-10.2v-1.6h12.3v4.6h-10.2v1.6h10.6v1.6h-5.5
			v1.6H1292.8z M1278.2,1366.2h12.6v5.3h-2.1v-3.6h-10.5V1366.2z"/>
		<path class="st2" d="M1308.9,1363.6c-2-0.7-3.5-2-4.2-3.8c-0.8,1.9-2.3,3.4-4.4,4.1l-1.1-1.6c2.9-1,4.4-3.3,4.4-5.7v-0.3h-3.8
			v-1.7h9.7v1.7h-3.8v0.3c0,2.3,1.5,4.5,4.3,5.4L1308.9,1363.6z M1301.5,1365.2h11.9v6.3h-2.1v-4.6h-9.8V1365.2z M1316,1359.8h-2.6
			v4.6h-2.1v-10.9h2.1v4.6h2.6V1359.8z"/>
		<path class="st2" d="M1327.2,1361.2c0,3.9-1.9,6.4-4.6,6.4c-2.7,0-4.6-2.5-4.6-6.4c0-3.9,1.9-6.4,4.6-6.4
			C1325.2,1354.8,1327.2,1357.3,1327.2,1361.2z M1325.2,1361.2c0-2.8-1.1-4.5-2.7-4.5c-1.6,0-2.7,1.7-2.7,4.5c0,2.8,1.1,4.5,2.7,4.5
			C1324.1,1365.7,1325.2,1364,1325.2,1361.2z M1334.5,1362.2h-2.8v9.3h-2.1v-18.1h2.1v7.1h2.8V1362.2z"/>
		<path class="st2" d="M1342.8,1358.7c0,3,1.9,6.1,4.7,7.3l-1.1,1.6c-2.1-0.9-3.7-2.9-4.6-5.2c-0.8,2.5-2.4,4.7-4.5,5.7l-1.2-1.6
			c2.8-1.3,4.7-4.7,4.7-7.8v-1.7h-4v-1.7h10.1v1.7h-4V1358.7z M1351,1353.5v18.1h-2.1v-18.1H1351z"/>
		<path class="st2" d="M1370.8,1367.5v1.7h-16.3v-1.7h6.1v-6.4h2.1v6.4H1370.8z M1367,1356.8h-10.8v-1.7h12.9v1.8
			c0,2.2,0,4.7-0.7,8.5l-2.1-0.2c0.7-3.5,0.7-6.1,0.7-8.3V1356.8z"/>
	</g>
	<g class="st1">
		<path class="st2" d="M1167.8,1387.9c0,3.2,1.7,6.5,4.4,7.8l-1.3,1.6c-1.9-1-3.4-3-4.2-5.3c-0.8,2.5-2.3,4.6-4.4,5.7l-1.3-1.7
			c2.8-1.4,4.6-4.8,4.6-8.1v-3h2.1V1387.9z M1178.3,1392.3h-2.8v9.2h-2.1v-18.1h2.1v7.2h2.8V1392.3z"/>
		<path class="st2" d="M1190.6,1392.9c-2.7,0.5-5.1,0.6-8.5,0.6h-1.5v-5.3h6.1v-1.9h-6.2v-1.7h8.2v5.2h-6.1v2.1
			c3.1,0,5.3-0.1,7.8-0.6L1190.6,1392.9z M1194.2,1398.2c0,2.1-2.3,3.4-6,3.4c-3.7,0-6-1.2-6-3.4s2.3-3.4,6-3.4
			C1191.9,1394.8,1194.2,1396.1,1194.2,1398.2z M1192.2,1398.2c0-1.1-1.5-1.8-4-1.8c-2.6,0-4,0.6-4,1.8c0,1.2,1.4,1.8,4,1.8
			C1190.7,1400,1192.2,1399.3,1192.2,1398.2z M1196.6,1387.9v1.7h-2.6v4.8h-2.1v-10.9h2.1v4.4H1196.6z"/>
		<path class="st2" d="M1214.6,1392.8v1.7h-16.3v-1.7H1214.6z M1200,1387.7c0-2.3,2.5-3.7,6.4-3.7c3.9,0,6.4,1.4,6.4,3.7
			c0,2.3-2.5,3.7-6.4,3.7C1202.6,1391.4,1200,1390,1200,1387.7z M1202.4,1399.5h10.4v1.7h-12.5v-5.3h2.1V1399.5z M1202.2,1387.7
			c0,1.3,1.7,2,4.3,2c2.6,0,4.3-0.7,4.3-2c0-1.3-1.7-2-4.3-2C1203.8,1385.7,1202.2,1386.4,1202.2,1387.7z"/>
		<path class="st2" d="M1223.9,1395.3c2.4,0,5-0.2,7.8-0.8l0.2,1.7c-3.1,0.6-5.9,0.8-8.6,0.8h-1.5v-11.8h2.1V1395.3z M1237.9,1392.2
			h-2.7v9.3h-2.1v-18.1h2.1v7h2.7V1392.2z"/>
		<path class="st2" d="M1248.8,1392.1v1.6h5.2v4.4h-10.3v1.6h10.9v1.6h-12.9v-4.6h10.3v-1.4h-10.4v-1.6h5.2v-1.6h-7.1v-1.7h16.4v1.7
			H1248.8z M1254.1,1389.1h-12.4v-5.4h2v3.8h10.3V1389.1z"/>
		<path class="st2" d="M1274.3,1395.2h-7.2v6.4h-2.1v-6.4h-7.1v-1.7h16.3V1395.2z M1272.8,1391.8c-3-0.5-5.5-2-6.6-4.1
			c-1.2,2.1-3.7,3.6-6.7,4.1l-0.8-1.7c3.7-0.5,6.4-2.7,6.4-5.1v-1h2.2v1c0,2.3,2.7,4.6,6.4,5.1L1272.8,1391.8z"/>
		<path class="st2" d="M1292.8,1393.3v1.7h-16.4v-1.7h7.2v-1.6h-5.1v-4.7h10.2v-1.5h-10.2v-1.6h12.3v4.6h-10.2v1.6h10.6v1.6h-5.5
			v1.6H1292.8z M1278.2,1396.2h12.6v5.3h-2.1v-3.6h-10.5V1396.2z"/>
		<path class="st2" d="M1308.5,1385.3c0,5.4-1.7,10.1-8.1,13.4l-1.1-1.6c3.1-1.6,5-3.4,6-5.7l-5.6,0.5l-0.3-1.8l6.6-0.4
			c0.2-0.9,0.4-1.8,0.5-2.8h-6.1v-1.7H1308.5z M1314.3,1383.5v18.1h-2.1v-9.3h-3.8v-1.7h3.8v-7.1H1314.3z"/>
		<path class="st2" d="M1327.8,1394.2c-2.1-0.7-3.6-2.1-4.4-3.9c-0.8,1.9-2.3,3.5-4.5,4.2l-1.1-1.6c2.9-1,4.5-3.3,4.5-5.7v-0.7h-3.9
			v-1.7h9.9v1.7h-3.9v0.7c0,2.3,1.6,4.5,4.4,5.4L1327.8,1394.2z M1333.1,1399.5v1.7h-12.3v-5.8h2.1v4.1H1333.1z M1332.6,1396.6h-2.1
			v-13.1h2.1V1396.6z"/>
		<path class="st2" d="M1338.9,1395.4c2.9,0,5.1-0.1,7.6-0.6l0.2,1.7c-2.7,0.5-5.2,0.6-8.4,0.6h-1.5v-11.9h8.4v1.7h-6.3V1395.4z
			 M1352.9,1392.1h-2.8v9.4h-2.1v-18.1h2.1v7h2.8V1392.1z"/>
	</g>
	<g id="그룹_5029" transform="translate(739 1286.262)">
		<path id="패스_1715" class="st3" d="M95.3,0H0v145.7"/>
	</g>
	<g id="그룹_5039" transform="translate(739 1204)">
		<path id="패스_1715-2" class="st3" d="M95.3,0H0v70"/>
	</g>
	<g class="st1">
		<path class="st0" d="M760.4,1218.5l-3.7,9.7h-1.8l-3.7-9.7h1.7l2.9,8.1l2.9-8.1H760.4z"/>
		<path class="st0" d="M762,1219.2c-0.2-0.2-0.3-0.4-0.3-0.7s0.1-0.5,0.3-0.7c0.2-0.2,0.4-0.3,0.7-0.3c0.3,0,0.5,0.1,0.7,0.3
			c0.2,0.2,0.3,0.4,0.3,0.7s-0.1,0.5-0.3,0.7c-0.2,0.2-0.4,0.3-0.7,0.3C762.4,1219.5,762.2,1219.4,762,1219.2z M763.5,1220.5v7.7
			h-1.6v-7.7H763.5z"/>
		<path class="st0" d="M766.9,1228c-0.5-0.2-0.9-0.5-1.1-0.9c-0.3-0.4-0.4-0.8-0.4-1.3h1.7c0,0.3,0.2,0.6,0.5,0.8s0.6,0.3,1.1,0.3
			c0.4,0,0.8-0.1,1-0.3c0.2-0.2,0.4-0.4,0.4-0.7c0-0.3-0.1-0.5-0.4-0.6c-0.3-0.1-0.7-0.3-1.3-0.5c-0.6-0.2-1.1-0.3-1.4-0.5
			c-0.4-0.1-0.7-0.4-0.9-0.7c-0.3-0.3-0.4-0.7-0.4-1.2c0-0.4,0.1-0.8,0.4-1.1c0.2-0.3,0.6-0.6,1-0.8c0.5-0.2,1-0.3,1.6-0.3
			c0.9,0,1.6,0.2,2.1,0.7c0.5,0.4,0.8,1,0.9,1.8h-1.6c0-0.3-0.2-0.6-0.4-0.8c-0.3-0.2-0.6-0.3-1-0.3c-0.4,0-0.7,0.1-1,0.2
			c-0.2,0.2-0.3,0.4-0.3,0.6c0,0.2,0.1,0.4,0.2,0.5c0.1,0.1,0.3,0.2,0.5,0.3c0.2,0.1,0.5,0.2,1,0.3c0.6,0.1,1,0.3,1.4,0.5
			c0.4,0.2,0.7,0.4,0.9,0.7s0.4,0.7,0.4,1.2c0,0.4-0.1,0.8-0.4,1.2c-0.2,0.3-0.6,0.6-1,0.8c-0.4,0.2-1,0.3-1.6,0.3
			C767.9,1228.3,767.4,1228.2,766.9,1228z"/>
		<path class="st0" d="M773.4,1219.2c-0.2-0.2-0.3-0.4-0.3-0.7s0.1-0.5,0.3-0.7c0.2-0.2,0.4-0.3,0.7-0.3c0.3,0,0.5,0.1,0.7,0.3
			c0.2,0.2,0.3,0.4,0.3,0.7s-0.1,0.5-0.3,0.7c-0.2,0.2-0.4,0.3-0.7,0.3C773.9,1219.5,773.6,1219.4,773.4,1219.2z M775,1220.5v7.7
			h-1.6v-7.7H775z"/>
		<path class="st0" d="M778.6,1227.9c-0.6-0.3-1-0.8-1.4-1.4c-0.3-0.6-0.5-1.3-0.5-2.1c0-0.8,0.2-1.5,0.5-2.1
			c0.3-0.6,0.8-1.1,1.4-1.4c0.6-0.3,1.3-0.5,2-0.5s1.4,0.2,2,0.5c0.6,0.3,1.1,0.8,1.4,1.4c0.3,0.6,0.5,1.3,0.5,2.1s-0.2,1.5-0.5,2.1
			c-0.4,0.6-0.8,1.1-1.4,1.4s-1.3,0.5-2,0.5C779.8,1228.3,779.2,1228.2,778.6,1227.9z M781.7,1226.7c0.4-0.2,0.7-0.5,0.9-0.9
			c0.2-0.4,0.3-0.9,0.3-1.4c0-0.6-0.1-1-0.3-1.4c-0.2-0.4-0.5-0.7-0.9-0.9c-0.4-0.2-0.7-0.3-1.1-0.3s-0.8,0.1-1.1,0.3
			s-0.6,0.5-0.8,0.9c-0.2,0.4-0.3,0.9-0.3,1.4c0,0.8,0.2,1.5,0.6,1.9c0.4,0.5,1,0.7,1.6,0.7C781,1227,781.3,1226.9,781.7,1226.7z"/>
		<path class="st0" d="M791.8,1220.8c0.5,0.3,0.9,0.6,1.1,1.1c0.3,0.5,0.4,1.1,0.4,1.8v4.5h-1.6v-4.3c0-0.7-0.2-1.2-0.5-1.6
			c-0.3-0.4-0.8-0.6-1.4-0.6s-1.1,0.2-1.4,0.6c-0.4,0.4-0.5,0.9-0.5,1.6v4.3h-1.6v-7.7h1.6v0.9c0.3-0.3,0.6-0.6,1-0.7
			c0.4-0.2,0.8-0.3,1.3-0.3C790.8,1220.4,791.3,1220.5,791.8,1220.8z"/>
	</g>
	<g class="st1">
		<path class="st0" d="M758.3,1300.9v1.3h-2.6v8.4h-1.6v-8.4h-2.6v-1.3H758.3z"/>
		<path class="st0" d="M765.7,1303.1c0.5,0.3,0.8,0.6,1.1,1.1c0.3,0.5,0.4,1.1,0.4,1.8v4.5h-1.6v-4.3c0-0.7-0.2-1.2-0.5-1.6
			c-0.3-0.4-0.8-0.6-1.4-0.6s-1.1,0.2-1.4,0.6c-0.4,0.4-0.5,0.9-0.5,1.6v4.3h-1.6v-10.4h1.6v3.5c0.3-0.3,0.6-0.6,1-0.8
			c0.4-0.2,0.9-0.3,1.4-0.3C764.7,1302.8,765.2,1302.9,765.7,1303.1z"/>
		<path class="st0" d="M776.3,1307.3h-5.9c0,0.6,0.3,1.1,0.7,1.5c0.4,0.4,0.9,0.6,1.5,0.6c0.9,0,1.5-0.4,1.8-1.1h1.7
			c-0.2,0.7-0.7,1.3-1.3,1.7c-0.6,0.5-1.4,0.7-2.3,0.7c-0.7,0-1.4-0.2-2-0.5c-0.6-0.3-1-0.8-1.4-1.4c-0.3-0.6-0.5-1.3-0.5-2.1
			c0-0.8,0.2-1.5,0.5-2.1c0.3-0.6,0.8-1.1,1.4-1.4c0.6-0.3,1.3-0.5,2-0.5c0.7,0,1.4,0.2,1.9,0.5s1,0.8,1.3,1.3
			c0.3,0.6,0.5,1.2,0.5,2C776.4,1306.8,776.4,1307.1,776.3,1307.3z M774.7,1306.1c0-0.6-0.2-1.1-0.6-1.4c-0.4-0.4-0.9-0.5-1.5-0.5
			c-0.6,0-1,0.2-1.4,0.5c-0.4,0.3-0.6,0.8-0.7,1.4H774.7z"/>
		<path class="st0" d="M789.1,1303.1c0.5,0.3,0.9,0.6,1.1,1.1c0.3,0.5,0.4,1.1,0.4,1.8v4.5H789v-4.3c0-0.7-0.2-1.2-0.5-1.6
			c-0.3-0.4-0.8-0.6-1.4-0.6c-0.6,0-1.1,0.2-1.4,0.6c-0.4,0.4-0.5,0.9-0.5,1.6v4.3h-1.6v-4.3c0-0.7-0.2-1.2-0.5-1.6
			c-0.3-0.4-0.8-0.6-1.4-0.6s-1.1,0.2-1.4,0.6c-0.4,0.4-0.5,0.9-0.5,1.6v4.3h-1.6v-7.7h1.6v0.9c0.3-0.3,0.6-0.6,1-0.7
			c0.4-0.2,0.8-0.3,1.3-0.3c0.6,0,1.2,0.1,1.7,0.4c0.5,0.3,0.9,0.6,1.1,1.1c0.2-0.5,0.6-0.8,1.1-1.1s1-0.4,1.6-0.4
			C788,1302.8,788.6,1302.9,789.1,1303.1z"/>
		<path class="st0" d="M799.8,1307.3h-5.9c0,0.6,0.3,1.1,0.7,1.5c0.4,0.4,0.9,0.6,1.5,0.6c0.9,0,1.5-0.4,1.8-1.1h1.7
			c-0.2,0.7-0.7,1.3-1.3,1.7c-0.6,0.5-1.4,0.7-2.3,0.7c-0.7,0-1.4-0.2-2-0.5c-0.6-0.3-1-0.8-1.4-1.4c-0.3-0.6-0.5-1.3-0.5-2.1
			c0-0.8,0.2-1.5,0.5-2.1c0.3-0.6,0.8-1.1,1.4-1.4c0.6-0.3,1.3-0.5,2-0.5c0.7,0,1.4,0.2,1.9,0.5s1,0.8,1.3,1.3
			c0.3,0.6,0.5,1.2,0.5,2C799.8,1306.8,799.8,1307.1,799.8,1307.3z M798.2,1306.1c0-0.6-0.2-1.1-0.6-1.4c-0.4-0.4-0.9-0.5-1.5-0.5
			c-0.6,0-1,0.2-1.4,0.5c-0.4,0.3-0.6,0.8-0.7,1.4H798.2z"/>
	</g>
	<g class="st1">
		<path class="st0" d="M758.5,1463.8c-0.2,0.4-0.6,0.8-1.1,1.1c-0.5,0.3-1.2,0.4-2,0.4h-1.8v3.9H752v-9.7h3.4c0.7,0,1.4,0.1,1.9,0.4
			s0.9,0.6,1.2,1c0.3,0.4,0.4,0.9,0.4,1.5C758.9,1462.9,758.7,1463.4,758.5,1463.8z M756.8,1463.6c0.3-0.3,0.4-0.7,0.4-1.2
			c0-1.1-0.6-1.6-1.8-1.6h-1.8v3.2h1.8C756,1464,756.5,1463.8,756.8,1463.6z"/>
		<path class="st0" d="M763,1461.7c0.4-0.2,0.8-0.3,1.4-0.3v1.7H764c-0.6,0-1.1,0.2-1.4,0.5c-0.3,0.3-0.5,0.9-0.5,1.7v4.1h-1.6v-7.7
			h1.6v1.1C762.3,1462.2,762.7,1461.9,763,1461.7z"/>
		<path class="st0" d="M766.1,1460.2c-0.2-0.2-0.3-0.4-0.3-0.7s0.1-0.5,0.3-0.7c0.2-0.2,0.4-0.3,0.7-0.3c0.3,0,0.5,0.1,0.7,0.3
			c0.2,0.2,0.3,0.4,0.3,0.7s-0.1,0.5-0.3,0.7c-0.2,0.2-0.4,0.3-0.7,0.3C766.6,1460.5,766.3,1460.4,766.1,1460.2z M767.6,1461.5v7.7
			H766v-7.7H767.6z"/>
		<path class="st0" d="M775.4,1461.8c0.5,0.3,0.9,0.6,1.1,1.1c0.3,0.5,0.4,1.1,0.4,1.8v4.5h-1.6v-4.3c0-0.7-0.2-1.2-0.5-1.6
			c-0.3-0.4-0.8-0.6-1.4-0.6s-1.1,0.2-1.4,0.6c-0.4,0.4-0.5,0.9-0.5,1.6v4.3h-1.6v-7.7h1.6v0.9c0.3-0.3,0.6-0.6,1-0.7
			c0.4-0.2,0.8-0.3,1.3-0.3C774.4,1461.4,774.9,1461.5,775.4,1461.8z"/>
		<path class="st0" d="M779,1463.3c0.3-0.6,0.8-1.1,1.3-1.4c0.6-0.3,1.2-0.5,2-0.5c0.9,0,1.7,0.2,2.3,0.7c0.6,0.4,1,1.1,1.2,1.9
			h-1.7c-0.1-0.4-0.4-0.7-0.7-0.9s-0.7-0.3-1.2-0.3c-0.7,0-1.2,0.2-1.6,0.7s-0.6,1.1-0.6,1.9c0,0.8,0.2,1.5,0.6,1.9s0.9,0.7,1.6,0.7
			c0.9,0,1.5-0.4,1.8-1.2h1.7c-0.2,0.8-0.6,1.4-1.3,1.9c-0.6,0.5-1.4,0.7-2.3,0.7c-0.7,0-1.4-0.2-2-0.5s-1-0.8-1.3-1.4
			c-0.3-0.6-0.5-1.3-0.5-2.1C778.6,1464.6,778.7,1463.9,779,1463.3z"/>
		<path class="st0" d="M787.7,1460.2c-0.2-0.2-0.3-0.4-0.3-0.7s0.1-0.5,0.3-0.7c0.2-0.2,0.4-0.3,0.7-0.3c0.3,0,0.5,0.1,0.7,0.3
			c0.2,0.2,0.3,0.4,0.3,0.7s-0.1,0.5-0.3,0.7c-0.2,0.2-0.4,0.3-0.7,0.3C788.2,1460.5,787.9,1460.4,787.7,1460.2z M789.2,1461.5v7.7
			h-1.6v-7.7H789.2z"/>
		<path class="st0" d="M794.2,1461.7c0.5-0.2,1-0.4,1.6-0.4c0.7,0,1.3,0.2,1.8,0.5s1,0.8,1.3,1.4c0.3,0.6,0.5,1.3,0.5,2.1
			c0,0.8-0.2,1.5-0.5,2.1c-0.3,0.6-0.8,1.1-1.3,1.4s-1.2,0.5-1.8,0.5c-0.6,0-1.1-0.1-1.6-0.4c-0.5-0.2-0.8-0.5-1.1-0.9v4.8h-1.6
			v-11.4h1.6v1.1C793.3,1462.3,793.7,1462,794.2,1461.7z M797.4,1464c-0.2-0.4-0.5-0.7-0.9-0.9c-0.4-0.2-0.7-0.3-1.2-0.3
			c-0.4,0-0.8,0.1-1.1,0.3c-0.4,0.2-0.6,0.5-0.9,0.9c-0.2,0.4-0.3,0.9-0.3,1.4s0.1,1,0.3,1.4c0.2,0.4,0.5,0.7,0.9,0.9
			c0.4,0.2,0.7,0.3,1.1,0.3c0.4,0,0.8-0.1,1.2-0.3c0.4-0.2,0.6-0.5,0.9-0.9s0.3-0.9,0.3-1.4C797.8,1464.8,797.6,1464.3,797.4,1464z"
			/>
		<path class="st0" d="M802.7,1458.9v10.4h-1.6v-10.4H802.7z"/>
		<path class="st0" d="M812,1466h-5.9c0,0.6,0.3,1.1,0.7,1.5c0.4,0.4,0.9,0.6,1.5,0.6c0.9,0,1.5-0.4,1.8-1.1h1.7
			c-0.2,0.7-0.7,1.3-1.3,1.7c-0.6,0.5-1.4,0.7-2.3,0.7c-0.7,0-1.4-0.2-2-0.5c-0.6-0.3-1-0.8-1.4-1.4c-0.3-0.6-0.5-1.3-0.5-2.1
			c0-0.8,0.2-1.5,0.5-2.1c0.3-0.6,0.8-1.1,1.4-1.4c0.6-0.3,1.3-0.5,2-0.5c0.7,0,1.4,0.2,1.9,0.5s1,0.8,1.3,1.3
			c0.3,0.6,0.5,1.2,0.5,2C812,1465.5,812,1465.7,812,1466z M810.3,1464.7c0-0.6-0.2-1.1-0.6-1.4c-0.4-0.4-0.9-0.5-1.5-0.5
			c-0.6,0-1,0.2-1.4,0.5c-0.4,0.3-0.6,0.8-0.7,1.4H810.3z"/>
	</g>
	<g class="st1">
		<path class="st0" d="M753.5,1664.6c-0.5-0.2-0.9-0.6-1.2-1c-0.3-0.4-0.4-0.9-0.4-1.5h1.7c0,0.4,0.2,0.8,0.5,1
			c0.3,0.3,0.7,0.4,1.2,0.4c0.6,0,1-0.1,1.3-0.4c0.3-0.3,0.5-0.6,0.5-1c0-0.3-0.1-0.6-0.3-0.8c-0.2-0.2-0.4-0.4-0.7-0.5
			c-0.3-0.1-0.7-0.2-1.2-0.4c-0.6-0.2-1.2-0.3-1.5-0.5c-0.4-0.2-0.7-0.4-1-0.8c-0.3-0.4-0.4-0.8-0.4-1.5c0-0.6,0.1-1,0.4-1.5
			c0.3-0.4,0.7-0.7,1.2-1c0.5-0.2,1.1-0.3,1.8-0.3c0.9,0,1.7,0.2,2.3,0.7c0.6,0.5,0.9,1.1,1,1.9h-1.8c0-0.4-0.2-0.7-0.5-0.9
			c-0.3-0.3-0.7-0.4-1.2-0.4c-0.5,0-0.8,0.1-1.1,0.3c-0.3,0.2-0.4,0.6-0.4,1c0,0.3,0.1,0.5,0.3,0.7c0.2,0.2,0.4,0.3,0.7,0.5
			c0.3,0.1,0.7,0.2,1.1,0.4c0.6,0.2,1.2,0.4,1.6,0.5c0.4,0.2,0.8,0.5,1,0.8c0.3,0.4,0.4,0.9,0.4,1.5c0,0.5-0.1,1-0.4,1.4
			c-0.3,0.4-0.7,0.8-1.2,1.1c-0.5,0.3-1.1,0.4-1.8,0.4C754.6,1664.9,754,1664.8,753.5,1664.6z"/>
		<path class="st0" d="M767.7,1661.5h-5.9c0,0.6,0.3,1.1,0.7,1.5c0.4,0.4,0.9,0.6,1.5,0.6c0.9,0,1.5-0.4,1.8-1.1h1.7
			c-0.2,0.7-0.7,1.3-1.3,1.7c-0.6,0.5-1.4,0.7-2.3,0.7c-0.7,0-1.4-0.2-2-0.5c-0.6-0.3-1-0.8-1.4-1.4c-0.3-0.6-0.5-1.3-0.5-2.1
			c0-0.8,0.2-1.5,0.5-2.1c0.3-0.6,0.8-1.1,1.4-1.4c0.6-0.3,1.3-0.5,2-0.5c0.7,0,1.4,0.2,1.9,0.5s1,0.8,1.3,1.3
			c0.3,0.6,0.5,1.2,0.5,2C767.7,1661.1,767.7,1661.3,767.7,1661.5z M766,1660.3c0-0.6-0.2-1.1-0.6-1.4c-0.4-0.4-0.9-0.5-1.5-0.5
			c-0.6,0-1,0.2-1.4,0.5c-0.4,0.3-0.6,0.8-0.7,1.4H766z"/>
		<path class="st0" d="M769.4,1658.8c0.3-0.6,0.8-1.1,1.3-1.4c0.6-0.3,1.2-0.5,2-0.5c0.9,0,1.7,0.2,2.3,0.7c0.6,0.4,1,1.1,1.2,1.9
			h-1.7c-0.1-0.4-0.4-0.7-0.7-0.9s-0.7-0.3-1.2-0.3c-0.7,0-1.2,0.2-1.6,0.7s-0.6,1.1-0.6,1.9c0,0.8,0.2,1.5,0.6,1.9s0.9,0.7,1.6,0.7
			c0.9,0,1.5-0.4,1.8-1.2h1.7c-0.2,0.8-0.6,1.4-1.3,1.9c-0.6,0.5-1.4,0.7-2.3,0.7c-0.7,0-1.4-0.2-2-0.5s-1-0.8-1.3-1.4
			c-0.3-0.6-0.5-1.3-0.5-2.1C768.9,1660.1,769.1,1659.5,769.4,1658.8z"/>
		<path class="st0" d="M779.8,1658.4v4.3c0,0.3,0.1,0.5,0.2,0.6c0.1,0.1,0.4,0.2,0.7,0.2h1v1.3h-1.3c-0.7,0-1.3-0.2-1.7-0.5
			s-0.6-0.9-0.6-1.6v-4.3h-0.9v-1.3h0.9v-1.9h1.6v1.9h1.9v1.3H779.8z"/>
		<path class="st0" d="M783.4,1655.8c-0.2-0.2-0.3-0.4-0.3-0.7s0.1-0.5,0.3-0.7c0.2-0.2,0.4-0.3,0.7-0.3c0.3,0,0.5,0.1,0.7,0.3
			c0.2,0.2,0.3,0.4,0.3,0.7s-0.1,0.5-0.3,0.7c-0.2,0.2-0.4,0.3-0.7,0.3C783.8,1656.1,783.6,1656,783.4,1655.8z M784.9,1657.1v7.7
			h-1.6v-7.7H784.9z"/>
		<path class="st0" d="M788.5,1664.4c-0.6-0.3-1-0.8-1.4-1.4c-0.3-0.6-0.5-1.3-0.5-2.1c0-0.8,0.2-1.5,0.5-2.1
			c0.3-0.6,0.8-1.1,1.4-1.4c0.6-0.3,1.3-0.5,2-0.5s1.4,0.2,2,0.5c0.6,0.3,1.1,0.8,1.4,1.4c0.3,0.6,0.5,1.3,0.5,2.1s-0.2,1.5-0.5,2.1
			c-0.4,0.6-0.8,1.1-1.4,1.4s-1.3,0.5-2,0.5C789.8,1664.9,789.1,1664.8,788.5,1664.4z M791.6,1663.3c0.4-0.2,0.7-0.5,0.9-0.9
			c0.2-0.4,0.3-0.9,0.3-1.4c0-0.6-0.1-1-0.3-1.4c-0.2-0.4-0.5-0.7-0.9-0.9c-0.4-0.2-0.7-0.3-1.1-0.3s-0.8,0.1-1.1,0.3
			s-0.6,0.5-0.8,0.9c-0.2,0.4-0.3,0.9-0.3,1.4c0,0.8,0.2,1.5,0.6,1.9c0.4,0.5,1,0.7,1.6,0.7C790.9,1663.5,791.3,1663.4,791.6,1663.3
			z"/>
		<path class="st0" d="M801.7,1657.3c0.5,0.3,0.9,0.6,1.1,1.1c0.3,0.5,0.4,1.1,0.4,1.8v4.5h-1.6v-4.3c0-0.7-0.2-1.2-0.5-1.6
			c-0.3-0.4-0.8-0.6-1.4-0.6s-1.1,0.2-1.4,0.6c-0.4,0.4-0.5,0.9-0.5,1.6v4.3h-1.6v-7.7h1.6v0.9c0.3-0.3,0.6-0.6,1-0.7
			c0.4-0.2,0.8-0.3,1.3-0.3C800.7,1657,801.3,1657.1,801.7,1657.3z"/>
	</g>
	<path id="패스_2767" class="st3" d="M834.3,1445.3H739v171.1"/>
	<path id="패스_2768" class="st3" d="M834.3,1640.6H739v183.5"/>
	<rect id="사각형_388" x="847" y="1445" class="st2" width="195" height="182"/>
	<rect id="사각형_391" x="847" y="1640.6" class="st2" width="195" height="183"/>
	<g class="st1">
		<path class="st0" d="M929.6,1586.8c-1.9-0.6-3.2-1.9-4-3.5c-0.7,1.7-2.1,3.1-4,3.8l-1-1.4c2.6-0.9,4-3,4-5.2v-0.6h-3.5v-1.5h8.9
			v1.5h-3.5v0.6c0,2.1,1.5,4.1,4,4.9L929.6,1586.8z M934.4,1591.6v1.5h-11.1v-5.2h1.9v3.7H934.4z M933.9,1589H932v-11.8h1.9V1589z"
			/>
		<path class="st0" d="M946.4,1586.3c-1.8-0.6-3.1-1.9-3.8-3.5c-0.7,1.8-2.1,3.2-4,3.9l-1-1.5c2.5-0.9,4-3.1,4-5.3v-0.2h-3.4v-1.5
			h8.7v1.5h-3.4v0.2c0,2,1.4,4.1,3.8,4.9L946.4,1586.3z M951.2,1590.3c0,1.9-2.1,3.1-5.5,3.1c-3.4,0-5.5-1.1-5.5-3.1
			c0-1.9,2.1-3.1,5.5-3.1C949.1,1587.2,951.2,1588.4,951.2,1590.3z M949.3,1590.3c0-1.1-1.3-1.6-3.6-1.6c-2.3,0-3.6,0.6-3.6,1.6
			c0,1.1,1.3,1.6,3.6,1.6C948,1592,949.3,1591.4,949.3,1590.3z M949.3,1581.2v-4.1h1.9v9.7h-1.9v-4.1h-2.9v-1.5H949.3z"/>
		<path class="st0" d="M963.4,1586.1c-1.7-0.6-3-1.9-3.7-3.4c-0.7,1.8-2.1,3.2-4.1,3.9l-1-1.5c2.6-0.9,4-3.1,4-5.5v-1.6h1.9v1.5
			c0,2.3,1.4,4.3,3.8,5.1L963.4,1586.1z M968.3,1590.3c0,2-2.1,3.1-5.5,3.1c-3.4,0-5.5-1.2-5.5-3.1s2.1-3.1,5.5-3.1
			C966.2,1587.2,968.3,1588.3,968.3,1590.3z M966.5,1590.3c0-1.1-1.3-1.7-3.6-1.7s-3.6,0.6-3.6,1.7s1.3,1.7,3.6,1.7
			S966.5,1591.3,966.5,1590.3z M966.4,1581.9h-3.3v-1.5h3.3v-3.3h1.9v9.6h-1.9V1581.9z"/>
	</g>
	<g id="그룹_5038" transform="translate(898 1475)">
		<rect id="사각형_303" y="0" class="st2" width="93" height="92"/>
		<g id="그룹_4150" transform="translate(14.039 12.732)">
			<path id="패스_1768" class="st0" d="M50.5,68h1.5V44h-1.5V68z"/>
			<g>
				<defs>
					<rect id="SVGID_1_" x="0" y="0" width="63.7" height="68"/>
				</defs>
				<clipPath id="SVGID_2_">
					<use xlink:href="#SVGID_1_"  style="overflow:visible;"/>
				</clipPath>
				<g id="그룹_4145" class="st4">
					<g id="그룹_4143" transform="translate(45.09 0)">
						<path id="패스_1769" class="st0" d="M6.1,12.2C2.7,12.2,0,9.5,0,6.1C0,2.7,2.7,0,6.1,0c3.4,0,6.1,2.7,6.1,6.1
							C12.2,9.5,9.5,12.2,6.1,12.2 M6.1,1.5c-2.6,0-4.6,2.1-4.6,4.6c0,2.6,2.1,4.6,4.6,4.6c2.6,0,4.6-2.1,4.6-4.6
							C10.7,3.5,8.7,1.5,6.1,1.5"/>
					</g>
					<g id="그룹_4144" transform="translate(31.63 15.032)">
						<path id="패스_1770" class="st0" d="M26.3,53V24.7h4.3V8.2c0-3.7-3-6.8-6.8-6.8h-8.6c-2.3,0-4.5,1.1-5.8,2.9L1.2,16.8L0,16
							L8.2,3.5C9.9,1.3,12.5,0,15.3,0h8.6c4.6,0,8.2,3.7,8.2,8.2v17.9h-4.3V53H26.3z"/>
					</g>
				</g>
			</g>
			<path id="패스_1772" class="st0" d="M50.5,20.8h1.5v-1.5h-1.5V20.8z"/>
			<path id="패스_1773" class="st0" d="M50.5,25.1h1.5v-1.5h-1.5V25.1z"/>
			<path id="패스_1774" class="st0" d="M11.8,68h1.5V44h-1.5V68z"/>
			<g>
				<defs>
					<rect id="SVGID_3_" x="0" y="0" width="63.7" height="68"/>
				</defs>
				<clipPath id="SVGID_4_">
					<use xlink:href="#SVGID_3_"  style="overflow:visible;"/>
				</clipPath>
				<g id="그룹_4149" class="st5">
					<g id="그룹_4146" transform="translate(6.329 0)">
						<path id="패스_1775" class="st0" d="M6.1,12.2C2.7,12.2,0,9.5,0,6.1C0,2.7,2.7,0,6.1,0c3.4,0,6.1,2.7,6.1,6.1
							C12.2,9.5,9.5,12.2,6.1,12.2 M6.1,1.5c-2.6,0-4.6,2.1-4.6,4.6c0,2.6,2.1,4.6,4.6,4.6c2.6,0,4.6-2.1,4.6-4.6
							C10.7,3.5,8.7,1.5,6.1,1.5"/>
					</g>
					<g id="그룹_4147" transform="translate(-0.001 15.032)">
						<path id="패스_1776" class="st0" d="M4.3,53V26.2H0V8.2C0,3.7,3.6,0,8.1,0h8.6c2.8,0,5.5,1.3,7.2,3.5l11.6,16.9l-1.2,0.8
							L22.7,4.4c-1.4-1.8-3.6-2.9-6-2.9H8.1c-3.7,0-6.7,3-6.7,6.6c0,0,0,0.1,0,0.1v16.4h4.3V53L4.3,53z"/>
					</g>
					<g id="그룹_4148" transform="translate(19.323 26.84)">
						<path id="패스_1777" class="st0" d="M23.6,41.2V2.5L13.1,13.1c-0.1,0.1-0.3,0.2-0.5,0.2c-0.2,0-0.4-0.1-0.5-0.2L1.5,2.5
							v38.7H0V0.7c0-0.3,0.2-0.6,0.5-0.7C0.5,0,0.6,0,0.7,0c0.2,0,0.4,0.1,0.5,0.2l11.3,11.3L23.8,0.2C24,0.1,24.2,0,24.4,0
							c0.1,0,0.2,0,0.3,0.1c0.3,0.1,0.5,0.4,0.5,0.7v40.5H23.6z"/>
					</g>
				</g>
			</g>
		</g>
	</g>
	<g class="st1">
		<path class="st0" d="M927.3,1676.3c-0.6-0.3-1.1-0.6-1.4-1.1c-0.3-0.5-0.5-1-0.5-1.7h2c0,0.5,0.2,0.9,0.6,1.2
			c0.3,0.3,0.8,0.5,1.4,0.5c0.6,0,1.1-0.2,1.5-0.5s0.5-0.7,0.5-1.2c0-0.4-0.1-0.7-0.3-0.9c-0.2-0.2-0.5-0.4-0.8-0.5
			c-0.3-0.1-0.8-0.3-1.4-0.4c-0.7-0.2-1.3-0.4-1.8-0.6c-0.5-0.2-0.8-0.5-1.2-0.9s-0.5-1-0.5-1.7c0-0.6,0.2-1.2,0.5-1.7
			c0.3-0.5,0.8-0.8,1.3-1.1c0.6-0.3,1.2-0.4,2-0.4c1.1,0,2,0.3,2.6,0.8c0.7,0.5,1.1,1.3,1.1,2.2h-2c0-0.4-0.2-0.8-0.6-1
			s-0.8-0.4-1.4-0.4c-0.5,0-0.9,0.1-1.3,0.4s-0.5,0.7-0.5,1.2c0,0.3,0.1,0.6,0.3,0.8c0.2,0.2,0.5,0.4,0.8,0.5
			c0.3,0.1,0.8,0.3,1.3,0.4c0.7,0.2,1.3,0.4,1.8,0.6c0.5,0.2,0.9,0.5,1.2,0.9c0.3,0.4,0.5,1,0.5,1.7c0,0.6-0.2,1.1-0.5,1.6
			c-0.3,0.5-0.7,0.9-1.3,1.2c-0.6,0.3-1.3,0.5-2.1,0.5C928.6,1676.7,927.9,1676.6,927.3,1676.3z"/>
		<path class="st0" d="M936.9,1676.2c-0.7-0.4-1.2-0.9-1.6-1.6c-0.4-0.7-0.6-1.5-0.6-2.4c0-0.9,0.2-1.7,0.6-2.4
			c0.4-0.7,0.9-1.2,1.6-1.6c0.7-0.4,1.4-0.6,2.3-0.6c0.8,0,1.6,0.2,2.3,0.6c0.7,0.4,1.2,0.9,1.6,1.6s0.6,1.5,0.6,2.4
			c0,0.9-0.2,1.7-0.6,2.4c-0.4,0.7-1,1.2-1.7,1.6s-1.5,0.6-2.3,0.6C938.3,1676.7,937.6,1676.5,936.9,1676.2z M940.5,1674.8
			c0.4-0.2,0.7-0.6,1-1c0.3-0.4,0.4-1,0.4-1.6s-0.1-1.2-0.4-1.6s-0.6-0.8-1-1s-0.8-0.3-1.3-0.3s-0.9,0.1-1.3,0.3s-0.7,0.6-1,1
			c-0.2,0.4-0.4,1-0.4,1.6c0,0.9,0.2,1.7,0.7,2.2s1.1,0.8,1.8,0.8C939.6,1675.1,940.1,1675,940.5,1674.8z"/>
		<path class="st0" d="M947.4,1664.7v11.8h-1.8v-11.8H947.4z"/>
		<path class="st0" d="M949.7,1669.8c0.4-0.7,0.9-1.2,1.5-1.6c0.6-0.4,1.3-0.6,2.1-0.6c0.7,0,1.3,0.1,1.8,0.4c0.5,0.3,0.9,0.6,1.2,1
			v-1.3h1.8v8.8h-1.8v-1.3c-0.3,0.4-0.7,0.8-1.3,1c-0.5,0.3-1.1,0.4-1.8,0.4c-0.8,0-1.5-0.2-2.1-0.6c-0.6-0.4-1.1-0.9-1.5-1.6
			c-0.4-0.7-0.6-1.5-0.6-2.4C949.1,1671.3,949.3,1670.5,949.7,1669.8z M956,1670.6c-0.3-0.4-0.6-0.8-1-1c-0.4-0.2-0.8-0.4-1.3-0.4
			c-0.5,0-0.9,0.1-1.3,0.3c-0.4,0.2-0.7,0.6-1,1c-0.3,0.4-0.4,1-0.4,1.6c0,0.6,0.1,1.1,0.4,1.6c0.3,0.5,0.6,0.8,1,1s0.8,0.4,1.3,0.4
			c0.5,0,0.9-0.1,1.3-0.4c0.4-0.2,0.7-0.6,1-1c0.3-0.5,0.4-1,0.4-1.6S956.2,1671,956,1670.6z"/>
		<path class="st0" d="M963.5,1668c0.4-0.3,1-0.4,1.6-0.4v1.9h-0.5c-0.7,0-1.3,0.2-1.6,0.5c-0.4,0.4-0.6,1-0.6,1.9v4.6h-1.8v-8.8
			h1.8v1.3C962.7,1668.6,963,1668.3,963.5,1668z"/>
	</g>
	<path id="패스_2769" class="st6" d="M877.5,1694.4h134.2"/>
	<g class="st1">
		<path class="st7" d="M898.9,1718.6c1.8,0,3-0.1,4.3-0.3l0.1,1c-1.5,0.3-2.7,0.3-4.7,0.3h-0.8v-8h5v0.9h-3.9v2.4h3.7v0.9h-3.7
			V1718.6z M908,1710.1v12.6h-1.1v-6.6h-1.7v6h-1.1v-11.7h1.1v4.8h1.7v-5H908z"/>
		<path class="st7" d="M913.7,1716.7c-1.9,0-3.3-1.2-3.3-3c0-1.7,1.4-2.9,3.3-2.9c1.9,0,3.3,1.2,3.3,2.9
			C917,1715.5,915.6,1716.7,913.7,1716.7z M913.7,1715.8c1.2,0,2.2-0.8,2.2-2s-0.9-2-2.2-2c-1.3,0-2.2,0.8-2.2,2
			S912.4,1715.8,913.7,1715.8z M920.1,1720.3c0,1.5-1.6,2.4-4.1,2.4c-2.5,0-4.1-0.9-4.1-2.4c0-1.5,1.6-2.4,4.1-2.4
			C918.5,1717.9,920.1,1718.8,920.1,1720.3z M918.9,1720.3c0-0.9-1.1-1.4-3-1.4c-1.9,0-3,0.5-3,1.4c0,0.9,1.1,1.4,3,1.4
			C917.8,1721.7,918.9,1721.2,918.9,1720.3z M919.9,1712.9v1.7h1.8v1h-1.8v1.9h-1.1v-7.4h1.1v1.9h1.8v0.9H919.9z"/>
		<path class="st7" d="M930.9,1716.6c-2.6,0.4-5.6,0.5-7.8,0.5l-0.1-1c0.8,0,1.7,0,2.7,0v-2.5h1.1v2.5c1.4-0.1,2.8-0.2,4.1-0.3
			L930.9,1716.6z M928.5,1714.8c0.3-1.3,0.3-2.3,0.3-3.1h-5.1v-0.9h6.2v0.7c0,0.8,0,1.9-0.3,3.4L928.5,1714.8z M933,1720.3
			c0,1.5-1.6,2.3-4.2,2.3c-2.6,0-4.2-0.8-4.2-2.3c0-1.4,1.6-2.3,4.2-2.3C931.4,1718.1,933,1718.9,933,1720.3z M931.8,1720.3
			c0-0.9-1.1-1.4-3-1.4c-1.9,0-3,0.5-3,1.4c0,0.9,1.1,1.4,3,1.4C930.6,1721.7,931.8,1721.2,931.8,1720.3z M934.6,1713.5v1h-1.8v3.4
			h-1.1v-7.8h1.1v3.4H934.6z"/>
		<path class="st7" d="M945.4,1716.1h-5.8v-5.5h1.1v1.8h3.6v-1.8h1.1V1716.1z M944.3,1713.3h-3.6v1.9h3.6V1713.3z M942,1721.6h7.3
			v0.9h-8.4v-3.1h6.8v-1.3h-6.8v-0.9h8v3.1H942V1721.6z M950.7,1712.8v1h-1.9v2.8h-1.1v-6.5h1.1v2.7H950.7z"/>
		<path class="st7" d="M958.8,1717.4c-1.4-0.5-2.5-1.6-3-2.8c-0.5,1.4-1.7,2.6-3.2,3.1l-0.6-0.9c1.9-0.7,3.2-2.3,3.2-4.1v-0.6h-2.8
			v-0.9h6.7v0.9h-2.8v0.6c0,1.6,1.2,3.2,3.1,3.9L958.8,1717.4z M962.7,1721.4v0.9h-8.4v-3.9h1.2v2.9H962.7z M961.1,1713.5v-3.5h1.2
			v9.2h-1.2v-4.8h-2.5v-0.9H961.1z"/>
		<path class="st7" d="M972.2,1713.4c0,2.2,1.4,4.5,3.2,5.4l-0.7,0.9c-1.3-0.7-2.5-2.2-3-3.9c-0.5,1.8-1.7,3.4-3.1,4.2l-0.7-0.9
			c1.8-0.9,3.2-3.3,3.2-5.6v-2.3h1.1V1713.4z M979.7,1716.1h-2.1v6.5h-1.1v-12.6h1.1v5.1h2.1V1716.1z"/>
		<path class="st7" d="M991.2,1710.1v6.7H990v-2.8h-2.5c-0.2,1.5-1.5,2.5-3.2,2.5c-1.9,0-3.2-1.2-3.2-2.9c0-1.7,1.4-2.9,3.2-2.9
			c1.7,0,3,1,3.2,2.4h2.6v-3H991.2z M986.4,1713.5c0-1.1-0.9-1.9-2.1-1.9s-2.1,0.8-2.1,1.9c0,1.1,0.9,2,2.1,2
			S986.4,1714.7,986.4,1713.5z M990.1,1717.4h1.1v5h-8v-5h1.1v1.6h5.8V1717.4z M990.1,1719.9h-5.8v1.6h5.8V1719.9z"/>
	</g>
	<g class="st1">
		<path class="st7" d="M894.8,1732.1v7.4h-1.2v-1.8h-3.2c-0.6,0.7-1.5,1.1-2.6,1.1c-1.8,0-3.2-1.3-3.2-3c0-1.8,1.4-3,3.2-3
			c1.1,0,2,0.4,2.6,1.1h3.2v-1.8L894.8,1732.1z M890,1735.8c0-1.2-0.9-2-2.1-2c-1.2,0-2.1,0.9-2.1,2c0,1.2,0.9,2.1,2.1,2.1
			C889.1,1737.8,890,1737,890,1735.8z M886.4,1740.2h8.4v4.5h-1.2v-3.5h-7.2V1740.2z M893.6,1736.7v-1.9h-2.7
			c0.1,0.3,0.1,0.6,0.1,0.9c0,0.4-0.1,0.7-0.1,1H893.6z"/>
		<path class="st7" d="M904.8,1738.5c-2,0.3-3.6,0.4-6,0.4h-1v-3.6h4.5v-1.6h-4.5v-0.9h5.7v3.4H899v1.7c2.2,0,3.8-0.1,5.7-0.4
			L904.8,1738.5z M907.2,1742.3c0,1.5-1.6,2.3-4.1,2.3c-2.6,0-4.1-0.8-4.1-2.3s1.6-2.3,4.1-2.3
			C905.6,1740,907.2,1740.9,907.2,1742.3z M906,1742.3c0-0.9-1.1-1.4-3-1.4s-3,0.5-3,1.4s1.1,1.4,3,1.4S906,1743.2,906,1742.3z
			 M907,1735v1.7h1.9v1H907v2h-1.1v-7.6h1.1v1.9h1.9v1H907z"/>
		<path class="st7" d="M921.5,1737.5v0.9h-11.4v-0.9H921.5z M911.4,1734.5c0-1.4,1.7-2.2,4.4-2.2c2.8,0,4.4,0.8,4.4,2.2
			s-1.7,2.2-4.4,2.2C913.1,1736.6,911.4,1735.9,911.4,1734.5z M912.7,1743.6h7.8v0.9h-8.9v-3h7.4v-1.1h-7.4v-0.9h8.5v2.8h-7.4
			V1743.6z M912.6,1734.5c0,0.8,1.2,1.3,3.2,1.3s3.2-0.5,3.2-1.3c0-0.8-1.2-1.3-3.2-1.3S912.6,1733.6,912.6,1734.5z"/>
		<path class="st7" d="M934.1,1738.7c-2.7,0.5-5.6,0.5-7.8,0.5l-0.1-0.9c1,0,2.1,0,3.3,0v-0.8c-1.5-0.1-2.4-0.7-2.4-1.6
			c0-1,1.1-1.7,2.9-1.7c1.8,0,2.9,0.6,2.9,1.7c0,0.9-0.9,1.5-2.4,1.6v0.7c1.1-0.1,2.3-0.2,3.4-0.3L934.1,1738.7z M933.7,1733.8h-7.2
			v-0.8h3v-1.1h1.1v1.1h3V1733.8z M929,1743.7h7.5v0.8h-8.6v-2.7h7v-1h-7v-0.8h8.1v2.6h-7V1743.7z M930.1,1736.8
			c1.1,0,1.8-0.3,1.8-0.9s-0.7-0.9-1.8-0.9c-1.1,0-1.8,0.3-1.8,0.9S928.9,1736.8,930.1,1736.8z M937.8,1735.3v1h-1.8v3.2h-1.1v-7.4
			h1.1v3.2H937.8z"/>
		<path class="st7" d="M950.4,1738.3v0.9h-11.4v-0.9h2.8v-1.8c-1-0.4-1.5-1-1.5-1.9c0-1.5,1.7-2.3,4.4-2.3c2.7,0,4.4,0.9,4.4,2.3
			c0,0.8-0.6,1.5-1.5,1.9v1.8H950.4z M949,1742.4c0,1.4-1.6,2.2-4.3,2.2c-2.7,0-4.3-0.8-4.3-2.2c0-1.4,1.6-2.2,4.3-2.2
			C947.4,1740.1,949,1740.9,949,1742.4z M944.7,1736.1c2,0,3.2-0.5,3.2-1.4c0-0.9-1.2-1.4-3.2-1.4s-3.2,0.5-3.2,1.4
			C941.5,1735.5,942.7,1736.1,944.7,1736.1z M947.9,1742.4c0-0.9-1.2-1.3-3.1-1.3c-2,0-3.1,0.5-3.1,1.3s1.2,1.3,3.1,1.3
			C946.7,1743.7,947.9,1743.2,947.9,1742.4z M943,1738.3h3.5v-1.5c-0.5,0.1-1.1,0.1-1.8,0.1c-0.6,0-1.2-0.1-1.7-0.1V1738.3z"/>
		<path class="st7" d="M959.4,1734.5H952v-0.9h3.1v-1.5h1.1v1.5h3.1V1734.5z M955.7,1739.9c-1.8,0-3-0.9-3-2.3c0-1.4,1.2-2.3,3-2.3
			s3,0.9,3,2.3C958.7,1739,957.5,1739.9,955.7,1739.9z M955.7,1739c1.1,0,1.9-0.6,1.9-1.4c0-0.9-0.8-1.4-1.9-1.4s-1.9,0.6-1.9,1.4
			C953.8,1738.4,954.6,1739,955.7,1739z M955,1743.4h7.2v0.9h-8.4v-3.6h1.1V1743.4z M963.6,1736.2v1h-1.8v4.3h-1.1v-9.4h1.1v4.1
			H963.6z"/>
		<path class="st7" d="M974.9,1739.2c-1.4-0.5-2.5-1.7-3.1-3.1c-0.5,1.5-1.7,2.7-3.1,3.4l-0.6-0.9c1.9-0.7,3.2-2.5,3.2-4.5v-1.3h1.1
			v1.3c0,1.9,1.3,3.6,3.1,4.3L974.9,1739.2z M978.7,1743.4v0.9h-8.5v-3.9h1.1v3H978.7z M978.3,1741.3h-1.1v-9.2h1.1V1741.3z"/>
		<path class="st7" d="M984.6,1735.5c0,2.3,0.9,4.3,2.7,5.3l-0.7,0.9c-1.2-0.7-2.1-1.9-2.5-3.4c-0.4,1.7-1.3,3.1-2.6,3.8l-0.7-0.9
			c1.8-1,2.7-3.2,2.7-5.7v-1H981v-0.9h5.8v0.9h-2.3V1735.5z M991.6,1732v12.6h-1.1v-6.5h-1.7v5.9h-1.1v-11.7h1.1v4.8h1.7v-5.1H991.6
			z"/>
		<path class="st7" d="M999.4,1738.8c-1.2-0.5-2-1.4-2.5-2.4c-0.4,1.2-1.3,2.2-2.6,2.8l-0.6-0.9c1.6-0.7,2.6-2.4,2.6-3.8v-1.7h1.1
			v1.7c0,1.4,0.9,2.8,2.5,3.4L999.4,1738.8z M1004.4,1742.4c0,1.4-1.6,2.3-4.2,2.3c-2.6,0-4.2-0.8-4.2-2.3s1.6-2.3,4.2-2.3
			C1002.8,1740.1,1004.4,1740.9,1004.4,1742.4z M1003.3,1742.4c0-0.9-1.2-1.4-3.1-1.4c-1.9,0-3.1,0.5-3.1,1.4c0,0.9,1.2,1.4,3.1,1.4
			C1002.1,1743.7,1003.3,1743.2,1003.3,1742.4z M1001.6,1739.4h-1.1v-7.1h1.1v3.1h1.6v-3.4h1.1v7.7h-1.1v-3.4h-1.6V1739.4z"/>
	</g>
	<g class="st1">
		<path class="st7" d="M904.4,1754.3h1.1v11.7h-1.1v-6.1h-1.6c-0.1,2.5-1.1,4-2.7,4c-1.6,0-2.7-1.7-2.7-4.4c0-2.7,1.1-4.4,2.7-4.4
			c1.5,0,2.5,1.5,2.7,3.8h1.6V1754.3z M901.8,1759.5c0-2-0.6-3.3-1.6-3.3c-1,0-1.6,1.3-1.6,3.3c0,2.1,0.6,3.3,1.6,3.3
			C901.1,1762.8,901.8,1761.5,901.8,1759.5z M908,1754.1v12.6h-1.1v-12.6H908z"/>
		<path class="st7" d="M912,1762.6c1.9,0,3.6-0.1,5.4-0.5l0.2,1c-2,0.4-3.8,0.5-5.7,0.5h-1v-8.2h1.1V1762.6z M920.5,1754.1v12.6
			h-1.1v-7.5h-3.9v-1h3.9v-4.1H920.5z"/>
		<path class="st7" d="M927.5,1757.9c0,2.1,1.5,4.3,3.4,5.1l-0.6,0.9c-1.5-0.7-2.7-2.1-3.3-3.8c-0.6,1.8-1.8,3.4-3.2,4.1l-0.7-0.9
			c1.8-0.9,3.3-3.2,3.3-5.4v-1.6h-2.9v-1h7v1h-3V1757.9z M933.3,1754.1v12.6h-1.1v-12.6H933.3z"/>
		<path class="st7" d="M945.4,1760.1h-5.8v-5.5h1.1v1.8h3.6v-1.8h1.1V1760.1z M944.3,1757.3h-3.6v1.9h3.6V1757.3z M942,1765.6h7.3
			v0.9h-8.4v-3.1h6.8v-1.3h-6.8v-0.9h8v3.1H942V1765.6z M950.7,1756.8v1h-1.9v2.8h-1.1v-6.5h1.1v2.7H950.7z"/>
		<path class="st7" d="M958.8,1761.4c-1.4-0.5-2.5-1.6-3-2.8c-0.5,1.4-1.7,2.6-3.2,3.1l-0.6-0.9c1.9-0.7,3.2-2.3,3.2-4.1v-0.6h-2.8
			v-0.9h6.7v0.9h-2.8v0.6c0,1.6,1.2,3.2,3.1,3.9L958.8,1761.4z M962.7,1765.4v0.9h-8.4v-3.9h1.2v2.9H962.7z M961.1,1757.5v-3.5h1.2
			v9.2h-1.2v-4.8h-2.5v-0.9H961.1z"/>
		<path class="st7" d="M971.5,1760.8c-1.2,0.1-2.5,0.1-3.5,0.1l-0.2-1c2.3,0,5.4,0,8.1-0.4l0.1,0.8c-1.1,0.2-2.3,0.3-3.4,0.4v2.5
			h-1.1V1760.8z M968.9,1756.7c0-1.3,1.3-2.2,3.1-2.2s3.1,0.9,3.1,2.2c0,1.3-1.3,2.2-3.1,2.2S968.9,1758.1,968.9,1756.7z
			 M978.6,1765.4v0.9h-8.9v-3.7h1.1v2.7H978.6z M970,1756.7c0,0.8,0.8,1.3,2,1.3c1.2,0,2-0.5,2-1.3c0-0.8-0.8-1.3-2-1.3
			C970.8,1755.4,970,1755.9,970,1756.7z M977.1,1761.5v-7.4h1.1v9.6h-1.1v-1.3h-2.5v-0.9H977.1z"/>
		<path class="st7" d="M982.7,1762.6c2.1,0,3.9-0.1,6.1-0.4l0.1,0.9c-2.3,0.4-4.2,0.5-6.3,0.5h-1v-4.8h4.6v-2.6h-4.7v-0.9h5.8v4.5
			h-4.6V1762.6z M991.2,1754v12.6H990V1754H991.2z"/>
	</g>
	<g class="st1">
		<path class="st7" d="M912.8,1778.3h-7.4v-0.9h3.1v-1.4h1.1v1.4h3.1V1778.3z M909,1783.5c-1.8,0-3-0.9-3-2.3c0-1.4,1.2-2.3,3-2.3
			c1.8,0,3,0.9,3,2.3C912.1,1782.6,910.8,1783.5,909,1783.5z M906.9,1784.6h8.2v4h-1.1v-3.1h-7V1784.6z M909,1782.6
			c1.1,0,1.9-0.5,1.9-1.4c0-0.8-0.8-1.4-1.9-1.4s-1.9,0.5-1.9,1.4C907.1,1782.1,907.9,1782.6,909,1782.6z M916.9,1780.5h-1.9v3.4
			h-1.1v-7.8h1.1v3.5h1.9V1780.5z"/>
		<path class="st7" d="M929.5,1781.8v0.9h-11.4v-0.9H929.5z M928.5,1780.9c-1.9-0.3-3.8-1.3-4.6-2.7c-0.8,1.4-2.7,2.4-4.6,2.7
			l-0.4-0.9c2.3-0.3,4.5-1.6,4.5-3.2v-0.6h1.2v0.6c0,1.6,2.2,2.9,4.4,3.2L928.5,1780.9z M926.9,1783.6h1.1v4.9h-8.4v-4.9h1.1v1.5
			h6.2V1783.6z M926.9,1785.9h-6.2v1.6h6.2V1785.9z"/>
		<path class="st7" d="M937.7,1777.4c0,3.6-1.7,6.8-5.8,8.9l-0.6-0.9c3.4-1.6,5.1-4,5.3-7h-4.7v-0.9H937.7z M941.4,1776.1v12.6h-1.1
			v-12.6H941.4z"/>
		<path class="st7" d="M948.7,1785.2c1.2-0.1,2.4-0.1,3.6-0.3l0.1,0.9c-2.8,0.5-5.8,0.5-8.1,0.5l-0.2-1c1.1,0,2.3,0,3.5-0.1v-1.3
			c-1.5-0.2-2.5-1.1-2.5-2.3c0-1.4,1.2-2.3,3-2.3s3,0.9,3,2.3c0,1.2-1,2.1-2.4,2.3V1785.2z M951.9,1778.5h-7.6v-0.9h3.2v-1.5h1.1
			v1.5h3.2V1778.5z M948.1,1783c1.1,0,1.9-0.6,1.9-1.4c0-0.9-0.8-1.4-1.9-1.4c-1.1,0-1.9,0.6-1.9,1.4
			C946.2,1782.4,947,1783,948.1,1783z M954.2,1776.1v12.6H953v-12.6H954.2z"/>
		<path class="st7" d="M963.6,1779.6c0,2.2,0.9,4.4,2.7,5.4l-0.7,0.8c-1.2-0.7-2.1-2.1-2.5-3.7c-0.4,1.7-1.3,3.2-2.6,4l-0.7-0.9
			c1.8-1.1,2.7-3.3,2.7-5.6v-1.1h-2.4v-0.9h5.7v0.9h-2.2V1779.6z M967,1776.3h1.1v11.6H967v-6.5h-2.1v-0.9h2.1V1776.3z M970.6,1776
			v12.6h-1.1V1776H970.6z"/>
		<path class="st7" d="M984.2,1781.9v0.9h-11.3v-0.9h4.6v-2.4h1.1v2.4H984.2z M982.9,1786.3c0,1.4-1.7,2.3-4.4,2.3
			c-2.7,0-4.4-0.9-4.4-2.3c0-1.5,1.7-2.3,4.4-2.3C981.1,1784,982.9,1784.9,982.9,1786.3z M981.6,1777.6h-7.4v-0.9h8.6v1.1
			c0,1,0,2-0.4,3.3l-1.1-0.1c0.3-1.3,0.3-2.2,0.3-3.2V1777.6z M981.7,1786.3c0-0.9-1.3-1.4-3.2-1.4c-2,0-3.2,0.5-3.2,1.4
			c0,0.9,1.3,1.4,3.2,1.4C980.4,1787.7,981.7,1787.2,981.7,1786.3z"/>
	</g>
	<rect id="사각형_389" x="1057" y="1445" class="st2" width="195" height="182"/>
	<rect id="사각형_392" x="1057" y="1640.6" class="st2" width="195" height="183"/>
	<g class="st1">
		<path class="st0" d="M1145.2,1584.6v1.5h-14.7v-1.5h5.8v-3h1.9v3H1145.2z M1143.5,1590.3c0,1.9-2.2,3-5.7,3c-3.5,0-5.7-1.2-5.7-3
			c0-1.9,2.2-3,5.7-3C1141.3,1587.3,1143.5,1588.5,1143.5,1590.3z M1141.1,1583.4c0.4-1.6,0.4-2.8,0.4-4h-9.3v-1.5h11.2v1.4
			c0,1.3,0,2.6-0.5,4.3L1141.1,1583.4z M1141.6,1590.3c0-1-1.4-1.6-3.8-1.6c-2.4,0-3.9,0.6-3.9,1.6c0,1,1.5,1.6,3.9,1.6
			C1140.2,1592,1141.6,1591.4,1141.6,1590.3z"/>
		<path class="st0" d="M1156.4,1586.3c-1.8-0.6-3.1-1.9-3.8-3.5c-0.7,1.8-2.1,3.2-4,3.9l-1-1.5c2.5-0.9,4-3.1,4-5.3v-0.2h-3.4v-1.5
			h8.7v1.5h-3.4v0.2c0,2,1.4,4.1,3.8,4.9L1156.4,1586.3z M1161.2,1590.3c0,1.9-2.1,3.1-5.5,3.1c-3.4,0-5.5-1.1-5.5-3.1
			c0-1.9,2.1-3.1,5.5-3.1C1159.1,1587.2,1161.2,1588.4,1161.2,1590.3z M1159.3,1590.3c0-1.1-1.3-1.6-3.6-1.6c-2.3,0-3.6,0.6-3.6,1.6
			c0,1.1,1.3,1.6,3.6,1.6C1158,1592,1159.3,1591.4,1159.3,1590.3z M1159.3,1581.2v-4.1h1.9v9.7h-1.9v-4.1h-2.9v-1.5H1159.3z"/>
		<path class="st0" d="M1173.4,1586.1c-1.7-0.6-3-1.9-3.7-3.4c-0.7,1.8-2.1,3.2-4.1,3.9l-1-1.5c2.6-0.9,4-3.1,4-5.5v-1.6h1.9v1.5
			c0,2.3,1.4,4.3,3.8,5.1L1173.4,1586.1z M1178.3,1590.3c0,2-2.1,3.1-5.5,3.1c-3.4,0-5.5-1.2-5.5-3.1s2.1-3.1,5.5-3.1
			C1176.2,1587.2,1178.3,1588.3,1178.3,1590.3z M1176.5,1590.3c0-1.1-1.3-1.7-3.6-1.7s-3.6,0.6-3.6,1.7s1.3,1.7,3.6,1.7
			S1176.5,1591.3,1176.5,1590.3z M1176.4,1581.9h-3.3v-1.5h3.3v-3.3h1.9v9.6h-1.9V1581.9z"/>
	</g>
	<g id="그룹_5031" transform="translate(1109.431 1475)">
		<rect id="사각형_304" x="-0.4" y="0" class="st2" width="92" height="92"/>
		<path id="패스_1746" class="st0" d="M28.1,76.3v-0.6c0.2-3.2,2.8-5.7,6.1-5.7h8.7V29.4l-0.3-0.2c-1.8-1-3.1-2.7-3.6-4.8
			l-0.1-0.5H24.5l6.3,13.2c0,0.1,0.1,0.2,0.1,0.2v0.6h-1.4v-0.3l-6-12.8l-6,12.5l0,0.6h-1.4v-0.6c0-0.1,0-0.2,0.1-0.2l6.3-13.2h-3.4
			v-1.3h19.8l0.1-0.5c0.7-3.5,3.7-5.9,7.3-5.9c3.5-0.1,6.6,2.4,7.3,5.9l0.1,0.5h19.8v1.3h-3.3l6.3,13.2c0,0.1,0.1,0.2,0.1,0.2v0.6
			h-1.4v-0.3l-6-12.8l-6,12.5l0,0.6h-1.4v-0.6c0-0.1,0-0.2,0.1-0.2L68,23.9H53.6l-0.1,0.5c-0.4,2-1.7,3.8-3.6,4.8l-0.3,0.2V70h8.7
			c3.2,0,5.9,2.5,6.1,5.7v0.6L28.1,76.3z M34.2,71.2c-1.9,0-3.6,1.2-4.4,3l-0.4,0.9h33.6l-0.4-0.9c-0.7-1.8-2.4-2.9-4.3-3H34.2z
			 M44.3,70h4V29.9L47.5,30c-0.2,0-0.3,0.1-0.4,0.1c-0.3,0.1-0.5,0.1-0.8,0.1c-0.2,0-0.5-0.1-0.7-0.1c-0.2,0-0.3-0.1-0.5-0.1
			l-0.8-0.1L44.3,70z M46.3,17.5c-3.3-0.1-5.9,2.5-6,5.8c0.1,3.3,2.8,5.8,6,5.8c3.3,0.1,5.9-2.5,6-5.8C52.2,20,49.5,17.4,46.3,17.5
			 M69.1,52C63.4,52,59,47.8,59,42.4v-0.6h20.2v0.6c-0.1,5.4-4.5,9.7-9.9,9.6C69.2,52,69.1,52,69.1,52 M60.5,43.8
			c0.8,4.1,4.4,7,8.6,6.9c4.2,0.1,7.8-2.8,8.6-6.9l0.1-0.8H60.4L60.5,43.8z M23.5,52c-5.7,0-10.1-4.2-10.1-9.6v-0.6h20.2v0.6
			C33.5,47.8,29.1,52,23.5,52 M14.9,43.8c0.8,4.1,4.4,7,8.6,6.9c4.2,0.1,7.8-2.8,8.6-6.9l0.1-0.8H14.7L14.9,43.8z M46.3,25.1
			c-1.1,0-2-0.8-2-1.9c0-1.1,0.9-1.9,2-1.9c1.1,0,2,0.8,2,1.9C48.3,24.3,47.4,25.2,46.3,25.1"/>
	</g>
	<g class="st1">
		<path class="st0" d="M1126.7,1668.1c0.5-0.9,1.2-1.5,2.1-2c0.9-0.5,1.8-0.7,2.9-0.7c1.2,0,2.2,0.3,3.2,0.9c0.9,0.6,1.6,1.4,2,2.5
			h-2.2c-0.3-0.6-0.7-1-1.2-1.3c-0.5-0.3-1.1-0.4-1.8-0.4c-0.7,0-1.4,0.2-2,0.5c-0.6,0.3-1,0.8-1.4,1.4c-0.3,0.6-0.5,1.3-0.5,2.2
			s0.2,1.5,0.5,2.2c0.3,0.6,0.8,1.1,1.4,1.4c0.6,0.3,1.2,0.5,2,0.5c0.7,0,1.3-0.1,1.8-0.4c0.5-0.3,0.9-0.7,1.2-1.3h2.2
			c-0.4,1.1-1.1,1.9-2,2.5c-0.9,0.6-2,0.9-3.2,0.9c-1,0-2-0.2-2.9-0.7c-0.9-0.5-1.5-1.2-2.1-2c-0.5-0.9-0.8-1.8-0.8-2.9
			S1126.2,1668.9,1126.7,1668.1z"/>
		<path class="st0" d="M1146.9,1667.8v8.8h-1.8v-1c-0.3,0.4-0.7,0.6-1.1,0.9s-1,0.3-1.5,0.3c-0.7,0-1.3-0.1-1.9-0.4
			c-0.5-0.3-1-0.7-1.3-1.3c-0.3-0.6-0.5-1.2-0.5-2v-5.2h1.8v4.9c0,0.8,0.2,1.4,0.6,1.8c0.4,0.4,0.9,0.6,1.6,0.6
			c0.7,0,1.2-0.2,1.6-0.6c0.4-0.4,0.6-1,0.6-1.8v-4.9H1146.9z"/>
		<path class="st0" d="M1151.1,1664.7v11.8h-1.8v-11.8H1151.1z"/>
		<path class="st0" d="M1155.6,1669.3v4.9c0,0.3,0.1,0.6,0.2,0.7c0.2,0.1,0.4,0.2,0.8,0.2h1.1v1.5h-1.4c-0.8,0-1.5-0.2-1.9-0.6
			c-0.4-0.4-0.7-1-0.7-1.9v-4.9h-1v-1.5h1v-2.2h1.8v2.2h2.1v1.5H1155.6z"/>
		<path class="st0" d="M1167.4,1667.8v8.8h-1.8v-1c-0.3,0.4-0.7,0.6-1.1,0.9s-1,0.3-1.5,0.3c-0.7,0-1.3-0.1-1.9-0.4
			c-0.5-0.3-1-0.7-1.3-1.3c-0.3-0.6-0.5-1.2-0.5-2v-5.2h1.8v4.9c0,0.8,0.2,1.4,0.6,1.8c0.4,0.4,0.9,0.6,1.6,0.6
			c0.7,0,1.2-0.2,1.6-0.6c0.4-0.4,0.6-1,0.6-1.8v-4.9H1167.4z"/>
		<path class="st0" d="M1172.7,1668c0.4-0.3,1-0.4,1.6-0.4v1.9h-0.5c-0.7,0-1.3,0.2-1.6,0.5c-0.4,0.4-0.6,1-0.6,1.9v4.6h-1.8v-8.8
			h1.8v1.3C1171.9,1668.6,1172.3,1668.3,1172.7,1668z"/>
		<path class="st0" d="M1184,1672.9h-6.7c0.1,0.7,0.3,1.3,0.8,1.7c0.5,0.4,1,0.6,1.7,0.6c1,0,1.7-0.4,2.1-1.2h2
			c-0.3,0.8-0.7,1.5-1.4,2s-1.6,0.8-2.6,0.8c-0.8,0-1.6-0.2-2.3-0.6c-0.7-0.4-1.2-0.9-1.6-1.6c-0.4-0.7-0.6-1.5-0.6-2.4
			c0-0.9,0.2-1.7,0.6-2.4c0.4-0.7,0.9-1.2,1.6-1.6c0.7-0.4,1.4-0.6,2.3-0.6c0.8,0,1.6,0.2,2.2,0.5c0.7,0.4,1.2,0.9,1.5,1.5
			c0.4,0.7,0.5,1.4,0.5,2.3C1184.1,1672.3,1184,1672.6,1184,1672.9z M1182.2,1671.4c0-0.7-0.3-1.2-0.7-1.6c-0.5-0.4-1.1-0.6-1.7-0.6
			c-0.6,0-1.2,0.2-1.6,0.6c-0.4,0.4-0.7,0.9-0.8,1.6H1182.2z"/>
	</g>
	<path id="패스_2770" class="st6" d="M1087.5,1694.4h134.2"/>
	<g class="st1">
		<path class="st7" d="M1120.3,1716.5v0.9h-5v2.5h-1.1v-2.5h-5.2v-0.9H1120.3z M1111.4,1721.4h7.5v0.9h-8.7v-3.6h1.1V1721.4z
			 M1118.8,1715.1h-8.4v-4.4h8.4V1715.1z M1117.6,1711.6h-6.2v2.6h6.2V1711.6z"/>
		<path class="st7" d="M1126.2,1719.2c1.1-0.1,2.3-0.1,3.4-0.3l0.1,0.9c-2.7,0.5-5.6,0.5-7.8,0.5l-0.2-1c1,0,2.2,0,3.4,0v-1.4
			c-1.4-0.2-2.4-1.1-2.4-2.3c0-1.4,1.2-2.3,3-2.3s3,0.9,3,2.3c0,1.2-1,2.1-2.4,2.3V1719.2z M1129.3,1712.5h-7.5v-0.9h3.2v-1.5h1.1
			v1.5h3.2V1712.5z M1125.6,1717c1.1,0,1.9-0.6,1.9-1.4c0-0.9-0.8-1.4-1.9-1.4s-1.9,0.6-1.9,1.4
			C1123.7,1716.4,1124.5,1717,1125.6,1717z M1133.4,1716.4h-2v6.3h-1.1v-12.6h1.1v5.3h2V1716.4z"/>
		<path class="st7" d="M1138.3,1713.9c0,2,1,4.1,2.7,5l-0.7,0.9c-1.2-0.7-2.1-2-2.6-3.5c-0.4,1.6-1.3,3-2.5,3.7l-0.7-0.9
			c1.7-1,2.7-3.2,2.7-5.3v-0.6h-2.3v-1h2.3v-1.9h1.1v1.9h2.3v1h-2.3V1713.9z M1141.7,1710.4h1.1v11.6h-1.1v-6h-1.9v-1h1.9V1710.4z
			 M1145.3,1710.1v12.6h-1.1v-12.6H1145.3z"/>
		<path class="st7" d="M1154.8,1712.3h-7.3v-0.9h3.1v-1.4h1.1v1.4h3.1V1712.3z M1151.2,1717.4c-1.7,0-2.9-0.9-2.9-2.2
			s1.2-2.2,2.9-2.2c1.7,0,2.9,0.9,2.9,2.2S1152.9,1717.4,1151.2,1717.4z M1151.2,1716.6c1.1,0,1.8-0.6,1.8-1.4s-0.8-1.4-1.8-1.4
			s-1.8,0.6-1.8,1.4S1150.1,1716.6,1151.2,1716.6z M1149.7,1718.3h8.2v4.1h-8.2V1718.3z M1150.8,1721.5h5.9v-2.3h-5.9V1721.5z
			 M1157.9,1710.1v7.6h-1.2v-2.8h-2.1v-0.9h2.1v-3.8H1157.9z"/>
		<path class="st7" d="M1170.2,1711.4c0,3.6-1.7,6.8-5.8,8.9l-0.6-0.9c3.4-1.6,5.1-4,5.3-7h-4.7v-0.9H1170.2z M1173.8,1710.1v12.6
			h-1.1v-12.6H1173.8z"/>
		<path class="st7" d="M1181.1,1719.2c1.2-0.1,2.4-0.1,3.6-0.3l0.1,0.9c-2.8,0.5-5.8,0.5-8.1,0.5l-0.2-1c1.1,0,2.3,0,3.5-0.1v-1.3
			c-1.5-0.2-2.5-1.1-2.5-2.3c0-1.4,1.2-2.3,3-2.3s3,0.9,3,2.3c0,1.2-1,2.1-2.4,2.3V1719.2z M1184.4,1712.5h-7.6v-0.9h3.2v-1.5h1.1
			v1.5h3.2V1712.5z M1180.6,1717c1.1,0,1.9-0.6,1.9-1.4c0-0.9-0.8-1.4-1.9-1.4c-1.1,0-1.9,0.6-1.9,1.4
			C1178.6,1716.4,1179.4,1717,1180.6,1717z M1186.6,1710.1v12.6h-1.1v-12.6H1186.6z"/>
		<path class="st7" d="M1195.7,1711.4c0,3.6-1.6,6.8-5.7,8.8l-0.6-0.9c3.2-1.6,4.9-4,5.2-7h-4.6v-1H1195.7z M1201,1716.1h-2v6.5
			h-1.1v-12.6h1.1v5.1h2V1716.1z"/>
	</g>
	<g class="st1">
		<path class="st7" d="M1113.8,1740.4h-5.2v4.2h-1.1v-4.2h-5.1v-0.9h11.4V1740.4z M1112.4,1738h-8.5v-5.4h1.1v1.7h6.2v-1.7h1.1V1738
			z M1111.2,1735.2h-6.2v1.8h6.2V1735.2z"/>
		<path class="st7" d="M1126.7,1738.4v0.9h-11.4v-0.9h5.1v-1.9h1.1v1.9H1126.7z M1116,1736.3c2.2-0.3,4.2-1.4,4.3-2.8h-3.9v-0.9h9.3
			v0.9h-3.9c0.1,1.4,2.1,2.5,4.3,2.8l-0.4,0.9c-2.1-0.3-3.9-1.2-4.6-2.6c-0.7,1.4-2.6,2.3-4.6,2.6L1116,1736.3z M1116.6,1740.5h8.7
			v4.1h-1.1v-3.2h-7.6V1740.5z"/>
		<path class="st7" d="M1135.6,1734.5h-7.4v-0.9h3.1v-1.5h1.1v1.5h3.1V1734.5z M1131.9,1739.9c-1.8,0-3-0.9-3-2.3
			c0-1.4,1.2-2.3,3-2.3s3,0.9,3,2.3C1134.9,1739,1133.7,1739.9,1131.9,1739.9z M1131.9,1739c1.1,0,1.9-0.6,1.9-1.4
			c0-0.9-0.8-1.4-1.9-1.4s-1.9,0.6-1.9,1.4C1130,1738.4,1130.8,1739,1131.9,1739z M1131.3,1743.4h7.2v0.9h-8.4v-3.6h1.1V1743.4z
			 M1139.8,1736.2v1h-1.8v4.3h-1.1v-9.4h1.1v4.1H1139.8z"/>
		<path class="st7" d="M1148.7,1735.9c0,2.1,1.5,4.3,3.4,5.1l-0.6,0.9c-1.5-0.7-2.7-2.1-3.3-3.8c-0.6,1.8-1.8,3.4-3.2,4.1l-0.7-0.9
			c1.8-0.9,3.3-3.2,3.3-5.4v-1.6h-2.9v-1h7v1h-3V1735.9z M1154.5,1732.1v12.6h-1.1v-12.6H1154.5z"/>
		<path class="st7" d="M1167.4,1732.1v7.4h-1.2v-1.8h-3.2c-0.6,0.7-1.5,1.1-2.6,1.1c-1.8,0-3.2-1.3-3.2-3c0-1.8,1.4-3,3.2-3
			c1.1,0,2,0.4,2.6,1.1h3.2v-1.8L1167.4,1732.1z M1162.6,1735.8c0-1.2-0.9-2-2.1-2c-1.2,0-2.1,0.9-2.1,2c0,1.2,0.9,2.1,2.1,2.1
			C1161.7,1737.8,1162.6,1737,1162.6,1735.8z M1159,1740.2h8.4v4.5h-1.2v-3.5h-7.2V1740.2z M1166.3,1736.7v-1.9h-2.7
			c0.1,0.3,0.1,0.6,0.1,0.9c0,0.4-0.1,0.7-0.1,1H1166.3z"/>
		<path class="st7" d="M1174.2,1735.4c0,2.2,1.4,4.5,3.2,5.4l-0.7,0.9c-1.3-0.7-2.5-2.2-3-3.9c-0.5,1.8-1.7,3.4-3.1,4.2l-0.7-0.9
			c1.8-0.9,3.2-3.3,3.2-5.6v-2.3h1.1V1735.4z M1181.7,1738.1h-2.1v6.5h-1.1v-12.6h1.1v5.1h2.1V1738.1z"/>
		<path class="st7" d="M1187.6,1741.2c1.2-0.1,2.4-0.1,3.6-0.3l0.1,0.9c-2.8,0.5-5.8,0.5-8.1,0.5l-0.2-1c1.1,0,2.3,0,3.5-0.1v-1.3
			c-1.5-0.2-2.5-1.1-2.5-2.3c0-1.4,1.2-2.3,3-2.3s3,0.9,3,2.3c0,1.2-1,2.1-2.4,2.3V1741.2z M1190.8,1734.5h-7.6v-0.9h3.2v-1.5h1.1
			v1.5h3.2V1734.5z M1187,1739c1.1,0,1.9-0.6,1.9-1.4c0-0.9-0.8-1.4-1.9-1.4c-1.1,0-1.9,0.6-1.9,1.4
			C1185.1,1738.4,1185.9,1739,1187,1739z M1193.1,1732.1v12.6h-1.1v-12.6H1193.1z"/>
		<path class="st7" d="M1207.1,1737.9v0.9h-11.4v-0.9H1207.1z M1198.2,1743.6h7.8v0.8h-9v-2.8h7.5v-1.1h-7.5v-0.8h8.6v2.7h-7.5
			V1743.6z M1204.5,1733.2h-7.4v-0.8h8.5v2.6h-7.3v1.1h7.6v0.8h-8.7v-2.7h7.3V1733.2z"/>
	</g>
	<g class="st1">
		<path class="st7" d="M1096,1762.6c1.7,0,2.9-0.1,4.2-0.4l0.1,1c-1.5,0.3-2.8,0.4-4.7,0.4h-0.8v-7.9h4.7v0.9h-3.5V1762.6z
			 M1105.1,1754.1v12.6h-1.1v-6.6h-1.8v6h-1.1v-11.7h1.1v4.8h1.8v-5H1105.1z"/>
		<path class="st7" d="M1114,1760.9c-1.4-0.5-2.4-1.5-3-2.8c-0.5,1.5-1.6,2.6-3.1,3.2l-0.6-0.9c1.9-0.7,3.1-2.4,3.1-4.3v-1.3h1.1
			v1.4c0,1.7,1.2,3.3,3,3.9L1114,1760.9z M1117.2,1764.3c0,1.5-1.6,2.3-4.1,2.3c-2.6,0-4.1-0.8-4.1-2.3c0-1.5,1.6-2.3,4.1-2.3
			C1115.6,1762,1117.2,1762.9,1117.2,1764.3z M1116,1764.3c0-0.9-1.1-1.4-3-1.4c-1.9,0-3,0.5-3,1.4c0,0.9,1.1,1.4,3,1.4
			C1114.9,1765.7,1116,1765.2,1116,1764.3z M1118.9,1757.3v1h-1.9v3.4h-1.1v-7.6h1.1v3.2H1118.9z"/>
		<path class="st7" d="M1131.6,1764v1h-11.4v-1H1131.6z M1130.4,1758.3c0,2.1-2,3.5-4.6,3.5s-4.6-1.4-4.6-3.5c0-2.1,2-3.5,4.6-3.5
			S1130.4,1756.2,1130.4,1758.3z M1122.4,1758.3c0,1.5,1.5,2.5,3.5,2.5c2,0,3.5-1,3.5-2.5c0-1.5-1.5-2.5-3.5-2.5
			C1123.9,1755.8,1122.4,1756.8,1122.4,1758.3z"/>
		<path class="st7" d="M1144.5,1764.1v0.9H1133v-0.9h5.1v-2.4h-3.7v-3.9h7.5v-2h-7.5v-0.9h8.6v3.8h-7.4v2h7.7v0.9h-4v2.4H1144.5z"/>
		<path class="st7" d="M1160.5,1760.5v0.9h-5v2.5h-1.1v-2.5h-5.2v-0.9H1160.5z M1151.7,1765.4h7.5v0.9h-8.7v-3.6h1.1V1765.4z
			 M1159,1759.1h-8.4v-4.4h8.4V1759.1z M1157.8,1755.6h-6.2v2.6h6.2V1755.6z"/>
		<path class="st7" d="M1166.4,1763.2c1.1-0.1,2.3-0.1,3.4-0.3l0.1,0.9c-2.7,0.5-5.6,0.5-7.8,0.5l-0.2-1c1,0,2.2,0,3.4,0v-1.4
			c-1.4-0.2-2.4-1.1-2.4-2.3c0-1.4,1.2-2.3,3-2.3s3,0.9,3,2.3c0,1.2-1,2.1-2.4,2.3V1763.2z M1169.5,1756.5h-7.5v-0.9h3.2v-1.5h1.1
			v1.5h3.2V1756.5z M1165.8,1761c1.1,0,1.9-0.6,1.9-1.4c0-0.9-0.8-1.4-1.9-1.4s-1.9,0.6-1.9,1.4
			C1163.9,1760.4,1164.7,1761,1165.8,1761z M1173.6,1760.4h-2v6.3h-1.1v-12.6h1.1v5.3h2V1760.4z"/>
		<path class="st7" d="M1184.8,1760.8c-1.4-0.5-2.5-1.6-3-2.8c-0.5,1.4-1.7,2.6-3.2,3.1l-0.6-0.9c1.9-0.7,3.2-2.3,3.2-4.1v-0.3h-2.8
			v-0.9h6.7v0.9h-2.8v0.3c0,1.6,1.2,3.2,3.1,3.8L1184.8,1760.8z M1187.2,1761.5h1.1v5h-8v-5h1.1v1.6h5.8V1761.5z M1187.2,1763.9
			h-5.8v1.6h5.8V1763.9z M1188.3,1754.1v6.8h-1.1v-2.8h-2.5v-0.9h2.5v-3H1188.3z"/>
		<path class="st7" d="M1202.3,1759.8v0.9h-11.4v-0.9h8.5c0.4-1.7,0.4-3,0.4-4.1v0h-7.4v-0.9h8.5v1c0,1.1,0,2.4-0.3,4.1H1202.3z
			 M1193.5,1765.4h7.7v0.9h-8.8v-4.1h1.1V1765.4z"/>
		<path class="st7" d="M1210.5,1760.9c-1.4-0.5-2.4-1.5-3-2.8c-0.5,1.5-1.7,2.6-3.2,3.2l-0.6-0.9c1.9-0.7,3.2-2.4,3.2-4.3v-1.3h1.1
			v1.2c0,1.8,1.2,3.3,3.1,4L1210.5,1760.9z M1214.1,1764.2c0,1.5-1.6,2.4-4.2,2.4s-4.2-0.9-4.2-2.4c0-1.5,1.6-2.4,4.2-2.4
			S1214.1,1762.7,1214.1,1764.2z M1213,1764.2c0-0.9-1.1-1.5-3-1.5s-3,0.5-3,1.5c0,0.9,1.1,1.5,3,1.5S1213,1765.2,1213,1764.2z
			 M1212.9,1757.7h-2.7v-0.9h2.7v-2.7h1.2v7.4h-1.2V1757.7z"/>
	</g>
	<g class="st1">
		<path class="st7" d="M1150.6,1783.6c-2.7,0.5-5.7,0.5-7.9,0.5l-0.1-0.9c1,0,2.1,0,3.3,0v-0.9c-1.5-0.1-2.4-0.8-2.4-1.8
			c0-1.1,1.2-1.9,2.9-1.9c1.8,0,2.9,0.7,2.9,1.9c0,1-0.9,1.7-2.4,1.8v0.9c1.1-0.1,2.3-0.1,3.4-0.3L1150.6,1783.6z M1150.1,1778.1
			h-7.2v-0.9h3v-1.2h1.1v1.2h3V1778.1z M1144.1,1785.1h8.3v3.5h-1.1v-2.6h-7.1V1785.1z M1146.5,1781.5c1.1,0,1.8-0.4,1.8-1.1
			s-0.7-1.1-1.8-1.1c-1.1,0-1.8,0.4-1.8,1.1S1145.4,1781.5,1146.5,1781.5z M1154.2,1780.8h-1.8v3.7h-1.1v-8.4h1.1v3.8h1.8V1780.8z"
			/>
		<path class="st7" d="M1157.1,1784.6c1.7,0,2.9-0.1,4.2-0.4l0.1,1c-1.5,0.3-2.8,0.4-4.7,0.4h-0.8v-7.9h4.7v0.9h-3.5V1784.6z
			 M1166.2,1776.1v12.6h-1.1v-6.6h-1.8v6h-1.1v-11.7h1.1v4.8h1.8v-5H1166.2z"/>
	</g>
	<rect id="사각형_390" x="1264" y="1445" class="st2" width="195" height="182"/>
	<rect id="사각형_393" x="1264" y="1640.6" class="st2" width="195" height="183"/>
	<g class="st1">
		<path class="st0" d="M1343.5,1581.8c0,2.7,1.7,5.5,4.2,6.6l-1,1.5c-1.9-0.8-3.3-2.6-4.1-4.7c-0.7,2.3-2.2,4.2-4.1,5.1l-1.1-1.5
			c2.5-1.2,4.2-4.2,4.2-7v-1.5h-3.6v-1.5h9.1v1.5h-3.6V1581.8z M1350.9,1577.1v16.3h-1.9v-16.3H1350.9z"/>
		<path class="st0" d="M1369.4,1585.2v1.5h-14.7v-1.5h6.4v-2.3h1.9v2.3H1369.4z M1367.8,1583.7c-2.6-0.4-4.8-1.6-5.8-3.4
			c-1,1.7-3.2,3-5.8,3.4l-0.7-1.4c3.2-0.4,5.6-2.3,5.6-4.3v-0.6h1.9v0.6c0,2.1,2.3,3.9,5.6,4.3L1367.8,1583.7z M1356.3,1588.1h11.3
			v5.3h-1.9v-3.9h-9.4V1588.1z"/>
		<path class="st0" d="M1380.4,1586.1c-1.7-0.6-3-1.9-3.7-3.4c-0.7,1.8-2.1,3.2-4.1,3.9l-1-1.5c2.6-0.9,4-3.1,4-5.5v-1.6h1.9v1.5
			c0,2.3,1.4,4.3,3.8,5.1L1380.4,1586.1z M1385.3,1590.3c0,2-2.1,3.1-5.5,3.1c-3.4,0-5.5-1.2-5.5-3.1s2.1-3.1,5.5-3.1
			C1383.2,1587.2,1385.3,1588.3,1385.3,1590.3z M1383.5,1590.3c0-1.1-1.3-1.7-3.6-1.7s-3.6,0.6-3.6,1.7s1.3,1.7,3.6,1.7
			S1383.5,1591.3,1383.5,1590.3z M1383.4,1581.9h-3.3v-1.5h3.3v-3.3h1.9v9.6h-1.9V1581.9z"/>
	</g>
	<g id="그룹_5032" transform="translate(1316.861 1475)">
		<rect id="사각형_304-2" x="0.1" y="0" class="st2" width="92" height="92"/>
		<path id="패스_1747" class="st0" d="M77.5,79.3V62.4H55.7v2.1h-1.2v-3.4h24.2v18.1H77.5z M54.5,79.3V68.7H34.8v2.1h-1.2v-3.4
			h22.1v11.8H54.5z M33.6,79.3v-4.2H14v4.2h-1.2v-5.5h22.1v5.5L33.6,79.3z M24.8,62.4c-0.2,0-0.3-0.1-0.4-0.2l-3.1-3.2
			c-0.2-0.2-0.2-0.6,0-0.9l8.2-8.3l3.1-9.2l1-11l-4.2,1.1L23.2,37c-0.1,0.1-0.3,0.2-0.4,0.2c-0.2,0-0.3-0.1-0.4-0.2l-3.1-3.2
			c-0.2-0.2-0.2-0.6,0-0.9l7.3-7.4c0.1-0.1,0.2-0.1,0.3-0.2l11.1-3l0.3,1.2l-10.9,3l-6.8,6.8l2.3,2.3l5.8-5.9
			c0.1-0.1,0.2-0.1,0.3-0.2l7.9-2l0.3,1.2l-2.2,0.5l-1.1,11.4c0,0,0,0.1,0,0.1l-3.1,9.5c0,0.1-0.1,0.2-0.2,0.2l-7.9,8l2.3,2.3
			l10.9-9l3-10l1.2,0.4l-0.3,1.2l7.3,1.8c0.2,0,0.3,0.1,0.4,0.3l6,10l3.1-1.6l-4.9-10.8l-10.3-5.2c-0.3-0.1-0.4-0.4-0.3-0.7L43,30
			c0.1-0.2,0.3-0.4,0.5-0.4l9.1-1l6.8-6.8l-2.3-2.3l-5.8,5.9c-0.1,0.1-0.3,0.2-0.4,0.2h-6.9v-1.3h6.6l6.1-6.1
			c0.1-0.1,0.3-0.2,0.4-0.2c0.2,0,0.3,0.1,0.4,0.2l3.1,3.2c0.2,0.2,0.2,0.6,0,0.9l-7.3,7.4c-0.1,0.1-0.2,0.2-0.4,0.2l-8.9,1
			l-1.9,6.5l10,5c0.1,0.1,0.2,0.2,0.3,0.3l5.2,11.6c0.1,0.3,0,0.7-0.3,0.8l-4.2,2.1c-0.1,0-0.2,0.1-0.3,0.1c-0.2,0-0.4-0.1-0.5-0.3
			l-6.1-10.3l-7.2-1.8l-2.3,7.8c0,0.1-0.1,0.2-0.2,0.3l-11.5,9.5C25.1,62.4,25,62.4,24.8,62.4 M42.6,22.4c-2.7,0-4.8-2.2-4.8-4.8
			c0-2.7,2.1-4.8,4.8-4.8c2.7,0,4.8,2.2,4.8,4.8C47.4,20.2,45.2,22.4,42.6,22.4 M42.6,14c-2,0-3.6,1.6-3.6,3.6c0,2,1.6,3.6,3.6,3.6
			c2,0,3.6-1.6,3.6-3.6C46.1,15.6,44.5,14,42.6,14"/>
	</g>
	<g class="st1">
		<path class="st0" d="M1322,1676c-0.9-0.5-1.6-1.2-2.1-2c-0.5-0.9-0.8-1.8-0.8-2.9s0.3-2.1,0.8-2.9c0.5-0.9,1.2-1.5,2.1-2
			c0.9-0.5,1.8-0.7,2.9-0.7c1,0,2,0.2,2.9,0.7s1.6,1.2,2.1,2c0.5,0.9,0.8,1.8,0.8,2.9s-0.3,2.1-0.8,2.9c-0.5,0.9-1.2,1.5-2.1,2
			s-1.8,0.7-2.9,0.7C1323.9,1676.7,1322.9,1676.5,1322,1676z M1326.9,1674.6c0.6-0.3,1-0.8,1.4-1.4s0.5-1.3,0.5-2.2
			s-0.2-1.5-0.5-2.2c-0.3-0.6-0.8-1.1-1.4-1.4c-0.6-0.3-1.2-0.5-2-0.5c-0.7,0-1.4,0.2-2,0.5c-0.6,0.3-1,0.8-1.4,1.4
			c-0.3,0.6-0.5,1.3-0.5,2.2s0.2,1.5,0.5,2.2c0.3,0.6,0.8,1.1,1.4,1.4s1.2,0.5,2,0.5C1325.6,1675.1,1326.3,1674.9,1326.9,1674.6z"/>
		<path class="st0" d="M1332.5,1668.1c0.5-0.9,1.2-1.5,2.1-2c0.9-0.5,1.8-0.7,2.9-0.7c1.2,0,2.2,0.3,3.2,0.9c0.9,0.6,1.6,1.4,2,2.5
			h-2.2c-0.3-0.6-0.7-1-1.2-1.3c-0.5-0.3-1.1-0.4-1.8-0.4c-0.7,0-1.4,0.2-2,0.5c-0.6,0.3-1,0.8-1.4,1.4c-0.3,0.6-0.5,1.3-0.5,2.2
			s0.2,1.5,0.5,2.2c0.3,0.6,0.8,1.1,1.4,1.4s1.2,0.5,2,0.5c0.7,0,1.3-0.1,1.8-0.4s0.9-0.7,1.2-1.3h2.2c-0.4,1.1-1.1,1.9-2,2.5
			c-0.9,0.6-2,0.9-3.2,0.9c-1,0-2-0.2-2.9-0.7c-0.9-0.5-1.5-1.2-2.1-2c-0.5-0.9-0.8-1.8-0.8-2.9S1332,1668.9,1332.5,1668.1z"/>
		<path class="st0" d="M1346.6,1665.5v11.1h-1.8v-11.1H1346.6z"/>
		<path class="st0" d="M1359.7,1665.5v1.5h-4.7v3.3h3.7v1.5h-3.7v4.9h-1.8v-11.1H1359.7z"/>
		<path class="st0" d="M1361.3,1669.8c0.4-0.7,0.9-1.2,1.5-1.6c0.6-0.4,1.3-0.6,2.1-0.6c0.7,0,1.3,0.1,1.8,0.4
			c0.5,0.3,0.9,0.6,1.2,1v-1.3h1.8v8.8h-1.8v-1.3c-0.3,0.4-0.7,0.8-1.3,1c-0.5,0.3-1.1,0.4-1.8,0.4c-0.8,0-1.5-0.2-2.1-0.6
			c-0.6-0.4-1.1-0.9-1.5-1.6c-0.4-0.7-0.6-1.5-0.6-2.4C1360.7,1671.3,1360.9,1670.5,1361.3,1669.8z M1367.6,1670.6
			c-0.3-0.4-0.6-0.8-1-1c-0.4-0.2-0.8-0.4-1.3-0.4c-0.5,0-0.9,0.1-1.3,0.3s-0.7,0.6-1,1c-0.2,0.4-0.4,1-0.4,1.6
			c0,0.6,0.1,1.1,0.4,1.6c0.3,0.5,0.6,0.8,1,1c0.4,0.2,0.8,0.4,1.3,0.4c0.5,0,0.9-0.1,1.3-0.4s0.7-0.6,1-1c0.2-0.5,0.4-1,0.4-1.6
			S1367.8,1671,1367.6,1670.6z"/>
		<path class="st0" d="M1384.7,1668.1c0.5,0.3,1,0.7,1.3,1.3c0.3,0.6,0.5,1.2,0.5,2v5.2h-1.8v-4.9c0-0.8-0.2-1.4-0.6-1.8
			c-0.4-0.4-0.9-0.6-1.6-0.6s-1.2,0.2-1.6,0.6c-0.4,0.4-0.6,1-0.6,1.8v4.9h-1.8v-4.9c0-0.8-0.2-1.4-0.6-1.8
			c-0.4-0.4-0.9-0.6-1.6-0.6s-1.2,0.2-1.6,0.6c-0.4,0.4-0.6,1-0.6,1.8v4.9h-1.8v-8.8h1.8v1c0.3-0.4,0.7-0.6,1.1-0.8
			c0.5-0.2,0.9-0.3,1.5-0.3c0.7,0,1.3,0.1,1.9,0.4s1,0.7,1.3,1.3c0.3-0.5,0.7-1,1.2-1.3c0.6-0.3,1.2-0.5,1.8-0.5
			C1383.6,1667.6,1384.2,1667.8,1384.7,1668.1z"/>
		<path class="st0" d="M1388.9,1666.3c-0.2-0.2-0.3-0.5-0.3-0.8c0-0.3,0.1-0.6,0.3-0.8c0.2-0.2,0.5-0.3,0.8-0.3
			c0.3,0,0.6,0.1,0.8,0.3c0.2,0.2,0.3,0.5,0.3,0.8c0,0.3-0.1,0.6-0.3,0.8c-0.2,0.2-0.5,0.3-0.8,0.3
			C1389.4,1666.6,1389.1,1666.5,1388.9,1666.3z M1390.6,1667.8v8.8h-1.8v-8.8H1390.6z"/>
		<path class="st0" d="M1394.9,1664.7v11.8h-1.8v-11.8H1394.9z"/>
		<path class="st0" d="M1405.2,1667.8l-5.4,13h-1.9l1.8-4.3l-3.5-8.7h2l2.5,6.7l2.6-6.7H1405.2z"/>
	</g>
	<path id="패스_2771" class="st6" d="M1294.5,1694.4h134.2"/>
	<g class="st1">
		<path class="st7" d="M1301.2,1718.5c1.8,0,3.7-0.2,5.7-0.6l0.1,1c-2.1,0.4-4.1,0.6-6,0.6h-1v-8.2h1.1V1718.5z M1311.3,1716h-2v6.6
			h-1.1v-12.6h1.1v5h2V1716z"/>
		<path class="st7" d="M1318.7,1716.7v1.5h3.7v4.2h-8.5v-4.2h3.6v-1.5h-5.1v-0.9h11.4v0.9H1318.7z M1322.5,1714.4h-8.5v-4.1h1.1v3.2
			h7.4V1714.4z M1321.3,1719.1h-6.2v2.4h6.2V1719.1z"/>
		<path class="st7" d="M1339.9,1716.5v0.9h-5v2.5h-1.1v-2.5h-5.2v-0.9H1339.9z M1331.1,1721.4h7.5v0.9h-8.7v-3.6h1.1V1721.4z
			 M1338.4,1715.1h-8.4v-4.4h8.4V1715.1z M1337.2,1711.6h-6.2v2.6h6.2V1711.6z"/>
		<path class="st7" d="M1345.8,1719.2c1.1-0.1,2.3-0.1,3.4-0.3l0.1,0.9c-2.7,0.5-5.6,0.5-7.8,0.5l-0.2-1c1,0,2.2,0,3.4,0v-1.4
			c-1.4-0.2-2.4-1.1-2.4-2.3c0-1.4,1.2-2.3,3-2.3s3,0.9,3,2.3c0,1.2-1,2.1-2.4,2.3V1719.2z M1348.9,1712.5h-7.5v-0.9h3.2v-1.5h1.1
			v1.5h3.2V1712.5z M1345.2,1717c1.1,0,1.9-0.6,1.9-1.4c0-0.9-0.8-1.4-1.9-1.4c-1.1,0-1.9,0.6-1.9,1.4
			C1343.3,1716.4,1344.1,1717,1345.2,1717z M1353,1716.4h-2v6.3h-1.1v-12.6h1.1v5.3h2V1716.4z"/>
		<path class="st7" d="M1365.3,1717.6c-2.7,0.5-5.7,0.5-7.9,0.5l-0.1-0.9c1,0,2.1,0,3.3,0v-0.9c-1.5-0.1-2.4-0.8-2.4-1.8
			c0-1.1,1.2-1.9,2.9-1.9c1.8,0,2.9,0.7,2.9,1.9c0,1-0.9,1.7-2.4,1.8v0.9c1.1-0.1,2.3-0.1,3.4-0.3L1365.3,1717.6z M1364.8,1712.1
			h-7.2v-0.9h3v-1.2h1.1v1.2h3V1712.1z M1358.8,1719.1h8.3v3.5h-1.1v-2.6h-7.1V1719.1z M1361.2,1715.5c1.1,0,1.8-0.4,1.8-1.1
			s-0.7-1.1-1.8-1.1c-1.1,0-1.8,0.4-1.8,1.1S1360.1,1715.5,1361.2,1715.5z M1368.9,1714.8h-1.8v3.7h-1.1v-8.4h1.1v3.8h1.8V1714.8z"
			/>
		<path class="st7" d="M1377,1717.3c-1.4-0.5-2.5-1.6-3.1-2.9c-0.5,1.5-1.6,2.6-3.1,3.2l-0.6-0.9c1.9-0.7,3.1-2.4,3.1-4.3v-1.6h1.1
			v1.6c0,1.7,1.2,3.3,3.1,4L1377,1717.3z M1373.4,1721.4h7.2v0.9h-8.3v-3.9h1.1V1721.4z M1381.8,1713.9v1h-1.8v4.5h-1.1v-9.3h1.1
			v3.9H1381.8z"/>
		<path class="st7" d="M1394.5,1715.5v0.9h-11.4v-0.9H1394.5z M1384.4,1712.5c0-1.4,1.7-2.2,4.4-2.2c2.8,0,4.4,0.8,4.4,2.2
			s-1.7,2.2-4.4,2.2C1386,1714.6,1384.4,1713.9,1384.4,1712.5z M1385.7,1721.6h7.8v0.9h-8.9v-3h7.4v-1.1h-7.4v-0.9h8.5v2.8h-7.4
			V1721.6z M1385.6,1712.5c0,0.8,1.2,1.3,3.2,1.3c2.1,0,3.2-0.5,3.2-1.3c0-0.8-1.2-1.3-3.2-1.3
			C1386.7,1711.1,1385.6,1711.6,1385.6,1712.5z"/>
		<path class="st7" d="M1407.5,1717.3c-1.2,0.2-2.4,0.4-3.6,0.4v4.5h-1.1v-4.5c-1.2,0.1-2.4,0.1-3.5,0.1l-0.2-1c2.3,0,5.5,0,8.3-0.4
			L1407.5,1717.3z M1400.1,1713.2c0-1.5,1.3-2.6,3.2-2.6c1.9,0,3.2,1,3.2,2.6c0,1.5-1.3,2.6-3.2,2.6
			C1401.4,1715.8,1400.1,1714.8,1400.1,1713.2z M1401.2,1713.2c0,1,0.9,1.6,2.1,1.6c1.2,0,2.1-0.7,2.1-1.6s-0.9-1.6-2.1-1.6
			C1402,1711.6,1401.2,1712.3,1401.2,1713.2z M1409.5,1710.1v12.6h-1.1v-12.6H1409.5z"/>
		<path class="st7" d="M1419.5,1712.5h-7.4v-0.9h3.1v-1.5h1.1v1.5h3.1V1712.5z M1415.8,1717.9c-1.8,0-3-0.9-3-2.3
			c0-1.4,1.2-2.3,3-2.3c1.8,0,3,0.9,3,2.3C1418.8,1717,1417.5,1717.9,1415.8,1717.9z M1415.8,1717c1.1,0,1.9-0.6,1.9-1.4
			c0-0.9-0.8-1.4-1.9-1.4s-1.9,0.6-1.9,1.4C1413.9,1716.4,1414.6,1717,1415.8,1717z M1415.1,1721.4h7.2v0.9h-8.4v-3.6h1.1V1721.4z
			 M1423.6,1714.2v1h-1.8v4.3h-1.1v-9.4h1.1v4.1H1423.6z"/>
	</g>
	<g class="st1">
		<path class="st7" d="M1321.7,1738.4c0-3.3,1.8-5.3,4.4-5.3s4.4,2,4.4,5.3s-1.8,5.4-4.4,5.4S1321.7,1741.7,1321.7,1738.4z
			 M1329.1,1738.4c0-2.6-1.2-4.2-3.1-4.2c-1.8,0-3.1,1.6-3.1,4.2c0,2.6,1.2,4.2,3.1,4.2C1327.9,1742.6,1329.1,1741,1329.1,1738.4z"
			/>
		<path class="st7" d="M1332.1,1738.5c0-3.3,1.9-5.3,4.6-5.3c1.2,0,2.2,0.6,2.8,1.3l-0.7,0.8c-0.5-0.6-1.2-1-2.1-1
			c-1.9,0-3.2,1.6-3.2,4.2c0,2.6,1.2,4.2,3.2,4.2c1,0,1.7-0.4,2.4-1.1l0.7,0.8c-0.8,0.9-1.8,1.5-3.2,1.5
			C1334,1743.8,1332.1,1741.8,1332.1,1738.5z"/>
		<path class="st7" d="M1341.6,1733.3h1.3v10.3h-1.3V1733.3z"/>
	</g>
	<g class="st1">
		<path class="st7" d="M1355,1735.7c0,1.7-1.4,2.9-3.3,2.9c-1.9,0-3.3-1.2-3.3-2.9c0-1.7,1.4-2.9,3.3-2.9
			C1353.7,1732.7,1355,1733.9,1355,1735.7z M1349.6,1735.7c0,1.2,0.9,2,2.1,2c1.3,0,2.2-0.8,2.2-2c0-1.1-0.9-2-2.2-2
			C1350.5,1733.7,1349.6,1734.5,1349.6,1735.7z M1358.5,1739.9v4.5h-8.1v-4.5H1358.5z M1351.5,1740.8v2.7h5.9v-2.7H1351.5z
			 M1358.5,1732.1v7.2h-1.1v-7.2H1358.5z"/>
		<path class="st7" d="M1368.2,1739.1c-1.4-0.5-2.6-1.5-3.2-2.9c-0.5,1.4-1.7,2.5-3.2,3.1l-0.6-0.9c1.9-0.7,3.2-2.3,3.2-4.1v-0.5
			h-2.9v-0.9h6.9v0.9h-2.8v0.5c0,1.7,1.3,3.2,3.2,3.8L1368.2,1739.1z M1363,1740.3h8.4v4.3h-1.1v-3.4h-7.3V1740.3z M1371.4,1732.1
			v7.6h-1.1v-7.6H1371.4z"/>
		<path class="st7" d="M1377.5,1738.8c-1.2,0.1-2.5,0.1-3.5,0.1l-0.2-1c2.3,0,5.4,0,8.1-0.4l0.1,0.8c-1.1,0.2-2.3,0.3-3.4,0.4v2.5
			h-1.1V1738.8z M1374.9,1734.7c0-1.3,1.3-2.2,3.1-2.2s3.1,0.9,3.1,2.2c0,1.3-1.3,2.2-3.1,2.2S1374.9,1736.1,1374.9,1734.7z
			 M1384.6,1743.4v0.9h-8.9v-3.7h1.1v2.7H1384.6z M1376,1734.7c0,0.8,0.8,1.3,2,1.3s2-0.5,2-1.3c0-0.8-0.8-1.3-2-1.3
			S1376,1733.9,1376,1734.7z M1383.1,1739.5v-7.4h1.1v9.6h-1.1v-1.3h-2.5v-0.9H1383.1z"/>
		<path class="st7" d="M1396.5,1738h-5.9v-5.1h5.9V1738z M1396.9,1741c0,1.2,2,2.4,4.1,2.7l-0.4,0.9c-1.9-0.3-3.6-1.1-4.3-2.3
			c-0.8,1.2-2.5,2-4.4,2.3l-0.4-0.9c2.1-0.3,4.1-1.4,4.2-2.7h-3.7v-0.9h3.7v-1.2h1.2v1.2h3.7v0.9H1396.9z M1395.4,1733.8h-3.6v3.3
			h3.6V1733.8z M1400.3,1739.3h-1.1v-7.2h1.1V1739.3z"/>
	</g>
	<g class="st1">
		<path class="st7" d="M1322,1755.4c0,3.6-1.6,6.8-5.7,8.8l-0.6-0.9c3.2-1.6,4.9-4,5.2-7h-4.6v-1H1322z M1327.3,1760.1h-2v6.5h-1.1
			v-12.6h1.1v5.1h2V1760.1z"/>
		<path class="st7" d="M1339.9,1760.4v0.9h-11.4v-0.9h5.1v-1.9h1.1v1.9H1339.9z M1329.1,1758.3c2.2-0.3,4.2-1.4,4.3-2.8h-3.9v-0.9
			h9.3v0.9h-3.9c0.1,1.4,2.1,2.5,4.3,2.8l-0.4,0.9c-2.1-0.3-3.9-1.2-4.6-2.6c-0.7,1.4-2.6,2.3-4.6,2.6L1329.1,1758.3z
			 M1329.7,1762.5h8.7v4.1h-1.1v-3.2h-7.6V1762.5z"/>
		<path class="st7" d="M1348.2,1759.4c0,2.7-1.3,4.4-3.2,4.4s-3.2-1.7-3.2-4.4c0-2.7,1.3-4.4,3.2-4.4S1348.2,1756.7,1348.2,1759.4z
			 M1342.9,1759.4c0,2,0.9,3.4,2.1,3.4c1.2,0,2.1-1.3,2.1-3.4c0-2-0.9-3.3-2.1-3.3C1343.8,1756.1,1342.9,1757.4,1342.9,1759.4z
			 M1351.6,1754.1v12.6h-1.1v-12.6H1351.6z"/>
		<path class="st7" d="M1364.2,1761c-1.4-0.4-2.5-1.4-3.1-2.6c-0.5,1.3-1.7,2.3-3.2,2.8l-0.6-0.9c1.9-0.6,3.1-2,3.1-3.7v-0.2h-2.8
			v-0.9h2.8v-1.5h1.1v1.5h2.8v0.9h-2.8v0.2c0,1.5,1.2,2.9,3.1,3.5L1364.2,1761z M1359.2,1762.1h7.9v4.4h-7.9V1762.1z M1360.4,1765.5
			h5.6v-2.5h-5.6V1765.5z M1369,1758.2h-1.9v3.3h-1.1v-7.4h1.1v3.2h1.9V1758.2z"/>
		<path class="st7" d="M1380.6,1754.1v12.6h-1.1v-4.9h-3.1c-0.5,1.3-1.5,2-2.7,2c-1.8,0-3.1-1.7-3.1-4.4c0-2.7,1.3-4.4,3.1-4.4
			c1.2,0,2.1,0.7,2.6,1.8h3.2v-2.8H1380.6z M1375.7,1759.4c0-2-0.9-3.3-2-3.3c-1.2,0-2,1.3-2,3.3c0,2,0.8,3.4,2,3.4
			C1374.8,1762.8,1375.7,1761.5,1375.7,1759.4z M1379.5,1760.8v-3h-2.9c0.1,0.5,0.2,1,0.2,1.6c0,0.5-0.1,1-0.1,1.4H1379.5z"/>
		<path class="st7" d="M1387.4,1756.1h3.1v0.9h-7.4v-0.9h3.2v-1.9h1.1V1756.1z M1389.9,1760.9c0,1.7-1.3,2.9-3.1,2.9
			c-1.8,0-3-1.2-3-2.9c0-1.7,1.3-2.9,3-2.9C1388.6,1758,1389.9,1759.2,1389.9,1760.9z M1388.8,1760.9c0-1.1-0.8-1.9-2-1.9
			c-1.1,0-2,0.8-2,1.9c0,1.1,0.8,1.9,2,1.9C1388,1762.9,1388.8,1762.1,1388.8,1760.9z M1394.9,1760.2h-2.1v6.4h-1.1v-12.6h1.1v5.2
			h2.1V1760.2z"/>
		<path class="st7" d="M1407.4,1760.5v0.9H1396v-0.9H1407.4z M1398.6,1765.4h7.5v0.9h-8.7v-3.7h1.1V1765.4z M1406.1,1758.8h-8.5
			v-4.3h1.1v3.3h7.4V1758.8z"/>
	</g>
	<g class="st1">
		<path class="st7" d="M1333.4,1782.3v0.9H1322v-0.9h5.1v-1.3h-3.6v-4.6h1.1v1.4h6.1v-1.4h1.1v4.6h-3.6v1.3H1333.4z M1332,1786.4
			c0,1.4-1.6,2.2-4.3,2.2c-2.7,0-4.3-0.8-4.3-2.2c0-1.4,1.6-2.2,4.3-2.2C1330.4,1784.2,1332,1785,1332,1786.4z M1330.8,1786.4
			c0-0.8-1.1-1.3-3.1-1.3c-2,0-3.2,0.5-3.2,1.3c0,0.8,1.2,1.3,3.2,1.3C1329.7,1787.7,1330.8,1787.2,1330.8,1786.4z M1324.7,1780.1
			h6.1v-1.4h-6.1V1780.1z"/>
		<path class="st7" d="M1339.1,1779.4c0,2.2,1.4,4.5,3.2,5.4l-0.7,0.9c-1.3-0.7-2.5-2.2-3-3.9c-0.5,1.8-1.7,3.4-3.1,4.2l-0.7-0.9
			c1.8-0.9,3.2-3.3,3.2-5.6v-2.3h1.1V1779.4z M1346.7,1782.1h-2.1v6.5h-1.1v-12.6h1.1v5.1h2.1V1782.1z"/>
		<path class="st7" d="M1355.7,1782.7c-2.7,0.5-5.6,0.5-7.8,0.5l-0.1-0.9c1,0,2.1,0,3.3,0v-0.8c-1.5-0.1-2.4-0.7-2.4-1.6
			c0-1,1.1-1.7,2.9-1.7c1.8,0,2.9,0.6,2.9,1.7c0,0.9-0.9,1.5-2.4,1.6v0.7c1.1-0.1,2.3-0.2,3.4-0.3L1355.7,1782.7z M1355.3,1777.8
			h-7.2v-0.8h3v-1.1h1.1v1.1h3V1777.8z M1350.6,1787.7h7.5v0.8h-8.6v-2.7h7v-1h-7v-0.8h8.1v2.6h-7V1787.7z M1351.7,1780.8
			c1.1,0,1.8-0.3,1.8-0.9s-0.7-0.9-1.8-0.9c-1.1,0-1.8,0.3-1.8,0.9S1350.5,1780.8,1351.7,1780.8z M1359.4,1779.3v1h-1.8v3.2h-1.1
			v-7.4h1.1v3.2H1359.4z"/>
		<path class="st7" d="M1372,1782.3v0.9h-11.4v-0.9h5.1v-1.5h-3.7v-4.2h8.5v0.9h-7.4v2.3h7.5v0.9h-3.8v1.5H1372z M1370.6,1786.4
			c0,1.5-1.6,2.3-4.3,2.3c-2.7,0-4.3-0.8-4.3-2.3s1.6-2.3,4.3-2.3C1369,1784.1,1370.6,1784.9,1370.6,1786.4z M1369.5,1786.4
			c0-0.9-1.2-1.4-3.1-1.4c-2,0-3.2,0.5-3.2,1.4c0,0.9,1.2,1.4,3.2,1.4C1368.3,1787.7,1369.5,1787.2,1369.5,1786.4z"/>
		<path class="st7" d="M1388.1,1784.1h-5.1v4.6h-1.1v-4.6h-5.1v-1h11.3L1388.1,1784.1z M1387,1781.8c-1.9-0.3-3.8-1.4-4.7-2.9
			c-0.8,1.5-2.7,2.6-4.6,2.9l-0.5-0.9c2.3-0.3,4.5-1.8,4.5-3.6v-0.7h1.2v0.7c0,1.8,2.2,3.3,4.5,3.6L1387,1781.8z"/>
		<path class="st7" d="M1395.9,1778.5h-6.4v-0.9h2.6v-1.4h1.1v1.4h2.6L1395.9,1778.5z M1392.7,1783.4c-1.6,0-2.7-0.8-2.7-2.2
			c0-1.3,1.1-2.1,2.7-2.1c1.6,0,2.7,0.9,2.7,2.1C1395.4,1782.6,1394.3,1783.4,1392.7,1783.4z M1392.7,1782.6c1,0,1.7-0.5,1.7-1.3
			c0-0.8-0.7-1.3-1.7-1.3c-1,0-1.7,0.5-1.7,1.3C1391.1,1782.1,1391.7,1782.6,1392.7,1782.6z M1400.2,1786.4c0,1.4-1.6,2.2-4.2,2.2
			c-2.6,0-4.2-0.8-4.2-2.2c0-1.4,1.6-2.2,4.2-2.2C1398.7,1784.2,1400.2,1785,1400.2,1786.4z M1399.1,1786.4c0-0.8-1.1-1.3-3.1-1.3
			c-1.9,0-3.1,0.5-3.1,1.3c0,0.8,1.1,1.3,3.1,1.3C1397.9,1787.7,1399.1,1787.2,1399.1,1786.4z M1397.5,1783.6h-1.1v-7.3h1.1v3.2h1.6
			v-3.4h1.1v8h-1.1v-3.6h-1.6V1783.6z"/>
	</g>
	<path id="패스_2765" class="st2" d="M1471,1445.3h195v181.4h-195V1445.3z"/>
	<path id="패스_2766" class="st2" d="M1471,1640.3h195v183.8h-195V1640.3z"/>
	<g class="st1">
		<path class="st0" d="M1542.7,1586.3c-1.9-0.6-3.2-1.9-4-3.5c-0.7,1.7-2.1,3.1-4,3.8l-1-1.5c2.6-0.9,4-3,4-5.2v-0.3h-3.5v-1.5h8.9
			v1.5h-3.5v0.3c0,2.1,1.5,4.1,4,4.9L1542.7,1586.3z M1536.1,1587.8h11v5.6h-1.9v-4.1h-9.1V1587.8z M1547,1577.1v9.8h-1.9v-9.8H1547
			z"/>
		<path class="st0" d="M1555.2,1585.9c-1.5,0.1-3,0.1-4.3,0.1l-0.2-1.5c3,0,7-0.1,10.4-0.5l0.1,1.3c-1.4,0.2-2.8,0.4-4.2,0.5v3.1
			h-1.9V1585.9z M1551.9,1580.6c0-1.7,1.6-2.9,4-2.9c2.4,0,4,1.1,4,2.9s-1.6,2.9-4,2.9C1553.5,1583.5,1551.9,1582.3,1551.9,1580.6z
			 M1564.6,1591.6v1.5h-11.7v-4.8h1.9v3.3H1564.6z M1553.7,1580.6c0,0.9,0.9,1.5,2.3,1.5c1.3,0,2.3-0.6,2.3-1.5s-0.9-1.5-2.3-1.5
			C1554.6,1579.1,1553.7,1579.7,1553.7,1580.6z M1562.4,1586.7v-9.6h1.9v12.4h-1.9v-1.5h-3.2v-1.3H1562.4z"/>
		<path class="st0" d="M1581.3,1586.2c-1.9-0.5-3.2-1.7-3.9-3.1c-0.7,1.6-2.1,2.8-4,3.4l-0.9-1.5c2.5-0.7,3.9-2.6,3.9-4.6v-0.1h-3.4
			v-1.5h3.4v-1.8h1.9v1.8h3.4v1.5h-3.4v0.1c0,1.8,1.4,3.6,3.9,4.3L1581.3,1586.2z M1574.8,1587.4h10.4v5.8h-10.4V1587.4z
			 M1576.7,1591.7h6.7v-2.8h-6.7V1591.7z M1587.5,1582.6h-2.3v4.1h-1.9v-9.6h1.9v4h2.3V1582.6z"/>
		<path class="st0" d="M1603.2,1577.1v16.3h-1.9v-6.2h-3.7c-0.7,1.6-2,2.5-3.5,2.5c-2.4,0-4.1-2.2-4.1-5.7c0-3.5,1.7-5.7,4.1-5.7
			c1.5,0,2.7,0.8,3.4,2.3h3.8v-3.5H1603.2z M1596.4,1584c0-2.5-1-4.1-2.4-4.1c-1.4,0-2.4,1.5-2.4,4.1c0,2.6,1,4.1,2.4,4.1
			C1595.4,1588.1,1596.4,1586.6,1596.4,1584z M1601.3,1585.7v-3.6h-3.3c0.1,0.6,0.2,1.2,0.2,1.9c0,0.6-0.1,1.2-0.1,1.7H1601.3z"/>
	</g>
	<g id="그룹_5033" transform="translate(1522.292 1475)">
		<rect id="사각형_304-3" x="-0.3" y="0" class="st2" width="93" height="92"/>
		<g id="그룹_4142" transform="translate(18.07 13.428)">
			<path id="패스_1749" class="st0" d="M28,65.7h1.4V44.6H28V65.7z"/>
			<g id="그룹_4132" transform="translate(22.804)">
				<path id="패스_1750" class="st0" d="M5.9,11.8C2.6,11.8,0,9.2,0,5.9C0,2.6,2.6,0,5.9,0c3.3,0,5.9,2.6,5.9,5.9
					C11.8,9.2,9.2,11.8,5.9,11.8 M5.9,1.4c-2.5,0-4.5,2-4.5,4.5c0,2.5,2,4.5,4.5,4.5c2.5,0,4.5-2,4.5-4.5C10.4,3.4,8.4,1.4,5.9,1.4"
					/>
			</g>
			<g id="그룹_4133" transform="translate(16.584 14.512)">
				<path id="패스_1751" class="st0" d="M22.8,7.7V6.9c0-3-2.5-5.5-5.5-5.5H6.9c-3,0-5.5,2.5-5.5,5.5v0.7H0V6.9C0,3.1,3.1,0,6.9,0
					h10.4c3.8,0,6.9,3.1,6.9,6.9v0.7H22.8z"/>
			</g>
			<g id="그룹_4135" transform="translate(6.219 9.328)">
				<path id="패스_1754" class="st0" d="M4.9,9.7C2.2,9.7,0,7.5,0,4.9C0,2.2,2.2,0,4.9,0c2.7,0,4.9,2.2,4.9,4.9
					C9.7,7.5,7.5,9.7,4.9,9.7 M4.9,1.4C3,1.4,1.4,3,1.4,4.9c0,1.9,1.5,3.4,3.4,3.4c1.9,0,3.4-1.5,3.4-3.4C8.3,3,6.8,1.4,4.9,1.4"/>
			</g>
			<g id="그룹_4136" transform="translate(0 21.767)">
				<path id="패스_1755" class="st0" d="M16.6,43.9V22.8h4.1V5.9c0-2.5-2-4.5-4.5-4.5H5.9c-2.5,0-4.5,2-4.5,4.5v16.9h4.1v21.1H4.1
					V24.2H0V5.9C0,2.6,2.6,0,5.9,0h10.4c3.3,0,5.9,2.6,5.9,5.9v18.3H18v19.7H16.6z"/>
			</g>
			<g id="그룹_4138" transform="translate(41.461 9.328)">
				<path id="패스_1758" class="st0" d="M4.9,9.7C2.2,9.7,0,7.5,0,4.9C0,2.2,2.2,0,4.9,0c2.7,0,4.9,2.2,4.9,4.9
					C9.7,7.5,7.5,9.7,4.9,9.7 M4.9,1.4C3,1.4,1.4,3,1.4,4.9c0,1.9,1.5,3.4,3.4,3.4c1.9,0,3.4-1.5,3.4-3.4C8.3,3,6.8,1.4,4.9,1.4"/>
			</g>
			<g id="그룹_4139" transform="translate(35.241 21.767)">
				<path id="패스_1759" class="st0" d="M16.6,43.9V22.8h4.1V5.9c0-2.5-2-4.5-4.5-4.5H5.9c-2.5,0-4.5,2-4.5,4.5v16.9h4.1v21.1H4.1
					V24.2H0V5.9C0,2.6,2.6,0,5.9,0h10.4c3.3,0,5.9,2.6,5.9,5.9v18.3H18v19.7H16.6z"/>
			</g>
			<path id="패스_1761" class="st0" d="M28,20.1h1.4v-1.4H28V20.1z"/>
			<path id="패스_1762" class="st0" d="M28,24.2h1.4v-1.4H28V24.2z"/>
			<path id="패스_1763" class="st0" d="M45.6,27.3H47v-1.4h-1.4V27.3z"/>
			<path id="패스_1764" class="st0" d="M10.4,27.3h1.4v-1.4h-1.4V27.3z"/>
		</g>
	</g>
	<g class="st1">
		<path class="st0" d="M1522.3,1667.8c0.5-0.9,1.2-1.5,2.1-2s1.8-0.7,2.9-0.7c1.2,0,2.2,0.3,3.2,0.9c0.9,0.6,1.6,1.4,2,2.5h-2.2
			c-0.3-0.6-0.7-1-1.2-1.3c-0.5-0.3-1.1-0.4-1.8-0.4c-0.7,0-1.4,0.2-2,0.5c-0.6,0.3-1,0.8-1.4,1.4c-0.3,0.6-0.5,1.3-0.5,2.2
			s0.2,1.5,0.5,2.2c0.3,0.6,0.8,1.1,1.4,1.4c0.6,0.3,1.2,0.5,2,0.5c0.7,0,1.3-0.1,1.8-0.4c0.5-0.3,0.9-0.7,1.2-1.3h2.2
			c-0.4,1.1-1.1,1.9-2,2.5c-0.9,0.6-2,0.9-3.2,0.9c-1,0-2-0.2-2.9-0.7s-1.5-1.2-2.1-2c-0.5-0.9-0.8-1.8-0.8-2.9
			S1521.8,1668.7,1522.3,1667.8z"/>
		<path class="st0" d="M1536.1,1675.9c-0.7-0.4-1.2-0.9-1.6-1.6c-0.4-0.7-0.6-1.5-0.6-2.4c0-0.9,0.2-1.7,0.6-2.4s0.9-1.2,1.6-1.6
			c0.7-0.4,1.4-0.6,2.3-0.6c0.8,0,1.6,0.2,2.3,0.6c0.7,0.4,1.2,0.9,1.6,1.6s0.6,1.5,0.6,2.4c0,0.9-0.2,1.7-0.6,2.4s-1,1.2-1.7,1.6
			c-0.7,0.4-1.5,0.6-2.3,0.6C1537.5,1676.5,1536.8,1676.3,1536.1,1675.9z M1539.7,1674.5c0.4-0.2,0.7-0.6,1-1c0.3-0.4,0.4-1,0.4-1.6
			s-0.1-1.2-0.4-1.6c-0.2-0.4-0.6-0.8-1-1s-0.8-0.3-1.3-0.3c-0.5,0-0.9,0.1-1.3,0.3c-0.4,0.2-0.7,0.6-1,1c-0.2,0.4-0.4,1-0.4,1.6
			c0,0.9,0.2,1.7,0.7,2.2s1.1,0.8,1.8,0.8C1538.8,1674.9,1539.3,1674.8,1539.7,1674.5z"/>
		<path class="st0" d="M1557.3,1667.8c0.5,0.3,1,0.7,1.3,1.3c0.3,0.6,0.5,1.2,0.5,2v5.2h-1.8v-4.9c0-0.8-0.2-1.4-0.6-1.8
			c-0.4-0.4-0.9-0.6-1.6-0.6s-1.2,0.2-1.6,0.6c-0.4,0.4-0.6,1-0.6,1.8v4.9h-1.8v-4.9c0-0.8-0.2-1.4-0.6-1.8
			c-0.4-0.4-0.9-0.6-1.6-0.6s-1.2,0.2-1.6,0.6c-0.4,0.4-0.6,1-0.6,1.8v4.9h-1.8v-8.8h1.8v1c0.3-0.4,0.7-0.6,1.1-0.8
			c0.5-0.2,0.9-0.3,1.5-0.3c0.7,0,1.3,0.1,1.9,0.4s1,0.7,1.3,1.3c0.3-0.5,0.7-1,1.2-1.3c0.6-0.3,1.2-0.5,1.8-0.5
			C1556.1,1667.3,1556.7,1667.5,1557.3,1667.8z"/>
		<path class="st0" d="M1573.9,1667.8c0.5,0.3,1,0.7,1.3,1.3s0.5,1.2,0.5,2v5.2h-1.8v-4.9c0-0.8-0.2-1.4-0.6-1.8
			c-0.4-0.4-0.9-0.6-1.6-0.6s-1.2,0.2-1.6,0.6c-0.4,0.4-0.6,1-0.6,1.8v4.9h-1.8v-4.9c0-0.8-0.2-1.4-0.6-1.8
			c-0.4-0.4-0.9-0.6-1.6-0.6s-1.2,0.2-1.6,0.6c-0.4,0.4-0.6,1-0.6,1.8v4.9h-1.8v-8.8h1.8v1c0.3-0.4,0.7-0.6,1.1-0.8
			c0.5-0.2,0.9-0.3,1.5-0.3c0.7,0,1.3,0.1,1.9,0.4s1,0.7,1.3,1.3c0.3-0.5,0.7-1,1.2-1.3c0.6-0.3,1.2-0.5,1.8-0.5
			C1572.7,1667.3,1573.3,1667.5,1573.9,1667.8z"/>
		<path class="st0" d="M1586,1667.5v8.8h-1.8v-1c-0.3,0.4-0.7,0.6-1.1,0.9s-1,0.3-1.5,0.3c-0.7,0-1.3-0.1-1.9-0.4
			c-0.5-0.3-1-0.7-1.3-1.3c-0.3-0.6-0.5-1.2-0.5-2v-5.2h1.8v4.9c0,0.8,0.2,1.4,0.6,1.8c0.4,0.4,0.9,0.6,1.6,0.6
			c0.7,0,1.2-0.2,1.6-0.6c0.4-0.4,0.6-1,0.6-1.8v-4.9H1586z"/>
		<path class="st0" d="M1594.7,1667.8c0.5,0.3,1,0.7,1.3,1.3c0.3,0.6,0.5,1.2,0.5,2v5.2h-1.8v-4.9c0-0.8-0.2-1.4-0.6-1.8
			c-0.4-0.4-0.9-0.6-1.6-0.6s-1.2,0.2-1.6,0.6c-0.4,0.4-0.6,1-0.6,1.8v4.9h-1.8v-8.8h1.8v1c0.3-0.4,0.7-0.6,1.1-0.8
			c0.5-0.2,1-0.3,1.5-0.3C1593.5,1667.3,1594.1,1667.5,1594.7,1667.8z"/>
		<path class="st0" d="M1598.8,1666c-0.2-0.2-0.3-0.5-0.3-0.8c0-0.3,0.1-0.6,0.3-0.8c0.2-0.2,0.5-0.3,0.8-0.3c0.3,0,0.6,0.1,0.8,0.3
			c0.2,0.2,0.3,0.5,0.3,0.8c0,0.3-0.1,0.6-0.3,0.8c-0.2,0.2-0.5,0.3-0.8,0.3C1599.3,1666.3,1599.1,1666.2,1598.8,1666z
			 M1600.6,1667.5v8.8h-1.8v-8.8H1600.6z"/>
		<path class="st0" d="M1605.1,1669v4.9c0,0.3,0.1,0.6,0.2,0.7c0.2,0.1,0.4,0.2,0.8,0.2h1.1v1.5h-1.4c-0.8,0-1.5-0.2-1.9-0.6
			c-0.4-0.4-0.7-1-0.7-1.9v-4.9h-1v-1.5h1v-2.2h1.8v2.2h2.1v1.5H1605.1z"/>
		<path class="st0" d="M1616.9,1667.5l-5.4,13h-1.9l1.8-4.3l-3.5-8.7h2l2.5,6.7l2.6-6.7H1616.9z"/>
	</g>
	<path id="패스_2772" class="st6" d="M1501.5,1694.4h134.2"/>
	<g class="st1">
		<path class="st7" d="M1518.9,1713c0,2.2,1.4,4.5,3.2,5.4l-0.7,0.9c-1.3-0.7-2.5-2.2-3-3.9c-0.5,1.8-1.7,3.4-3.1,4.2l-0.7-0.9
			c1.8-0.9,3.2-3.3,3.2-5.6v-2.3h1.1V1713z M1526.4,1715.7h-2.1v6.5h-1.1v-12.6h1.1v5.1h2.1V1715.7z"/>
		<path class="st7" d="M1537.9,1709.7v6.7h-1.2v-2.8h-2.5c-0.2,1.5-1.5,2.5-3.2,2.5c-1.9,0-3.2-1.2-3.2-2.9c0-1.7,1.4-2.9,3.2-2.9
			c1.7,0,3,1,3.2,2.4h2.6v-3H1537.9z M1533.1,1713.1c0-1.1-0.9-1.9-2.1-1.9c-1.2,0-2.1,0.8-2.1,1.9c0,1.1,0.9,2,2.1,2
			C1532.2,1715.1,1533.1,1714.3,1533.1,1713.1z M1536.7,1717h1.1v5h-8v-5h1.1v1.6h5.8V1717z M1536.7,1719.5h-5.8v1.6h5.8V1719.5z"/>
		<path class="st7" d="M1547.1,1716.6c-1.4-0.5-2.5-1.5-3-2.7c-0.5,1.4-1.7,2.5-3.2,3.1l-0.6-0.9c1.9-0.7,3.2-2.3,3.2-4.1v-0.5h-2.8
			v-0.9h6.7v0.9h-2.8v0.5c0,1.6,1.2,3.1,3,3.7L1547.1,1716.6z M1550.3,1719.9c0,1.5-1.6,2.3-4.1,2.3c-2.6,0-4.1-0.9-4.1-2.3
			c0-1.5,1.6-2.3,4.1-2.3C1548.7,1717.6,1550.3,1718.4,1550.3,1719.9z M1549.1,1719.9c0-0.9-1.1-1.4-3-1.4c-1.9,0-3,0.5-3,1.4
			c0,0.9,1.1,1.4,3,1.4C1548,1721.3,1549.1,1720.8,1549.1,1719.9z M1552,1712.8v1h-1.9v3.4h-1.1v-7.6h1.1v3.2H1552z"/>
		<path class="st7" d="M1567.8,1717.7h-5.1v4.5h-1.1v-4.5h-5.1v-0.9h11.3L1567.8,1717.7z M1557.1,1714.8c2.2-0.3,4.4-1.8,4.4-3.4
			v-0.1h-4v-0.9h9.2v0.9h-3.9v0.1c0,1.7,2.2,3.1,4.4,3.4l-0.4,0.9c-1.9-0.3-3.8-1.4-4.6-2.9c-0.8,1.5-2.6,2.5-4.6,2.9L1557.1,1714.8
			z"/>
		<path class="st7" d="M1575.6,1716.8h-5.7v-6.3h1.1v2.2h3.4v-2.2h1.1v1.5h2.9v-2.3h1.2v9.3h-1.2v-3.3h-2.9V1716.8z M1574.5,1713.6
			h-3.4v2.3h3.4V1713.6z M1580,1721v0.9h-8.4v-3.9h1.1v3H1580z M1575.6,1712.9v1.8h2.9v-1.8H1575.6z"/>
		<path class="st7" d="M1589.8,1713.5c0,2.1,1.5,4.3,3.4,5.1l-0.6,0.9c-1.5-0.7-2.7-2.1-3.3-3.8c-0.6,1.8-1.8,3.4-3.2,4.1l-0.7-0.9
			c1.8-0.9,3.3-3.2,3.3-5.4v-1.6h-2.9v-1h7v1h-3V1713.5z M1595.6,1709.7v12.6h-1.1v-12.6H1595.6z"/>
		<path class="st7" d="M1608.6,1709.6v7.4h-1.2v-1.8h-3.2c-0.6,0.7-1.5,1.1-2.6,1.1c-1.8,0-3.2-1.3-3.2-3c0-1.8,1.4-3,3.2-3
			c1.1,0,2,0.4,2.6,1.1h3.2v-1.8L1608.6,1709.6z M1603.8,1713.3c0-1.2-0.9-2-2.1-2c-1.2,0-2.1,0.9-2.1,2c0,1.2,0.9,2.1,2.1,2.1
			C1602.9,1715.4,1603.8,1714.6,1603.8,1713.3z M1600.1,1717.7h8.4v4.5h-1.2v-3.5h-7.2V1717.7z M1607.4,1714.3v-1.9h-2.7
			c0.1,0.3,0.1,0.6,0.1,0.9c0,0.4-0.1,0.7-0.1,1H1607.4z"/>
		<path class="st7" d="M1614.8,1718.4c1.4-0.1,2.8-0.1,4-0.3l0.1,0.8c-2.6,0.4-5.6,0.5-7.8,0.5l-0.1-1c0.8,0,1.7,0,2.7,0v-3.9h1.1
			V1718.4z M1616.5,1716.6c0.3-2.1,0.4-3.6,0.4-4.6h-5.2v-0.9h6.3v0.7c0,1,0,2.6-0.3,5L1616.5,1716.6z M1622.7,1715.9h-2v6.3h-1.1
			v-12.6h1.1v5.3h2V1715.9z"/>
	</g>
	<g class="st1">
		<path class="st7" d="M1514.9,1738.4c-1.4-0.5-2.4-1.5-3-2.8c-0.5,1.5-1.6,2.6-3.1,3.2l-0.6-0.9c1.9-0.7,3.1-2.4,3.1-4.3v-1.3h1.1
			v1.4c0,1.7,1.2,3.3,3,3.9L1514.9,1738.4z M1518.1,1741.9c0,1.5-1.6,2.3-4.1,2.3c-2.6,0-4.1-0.8-4.1-2.3c0-1.5,1.6-2.3,4.1-2.3
			C1516.5,1739.6,1518.1,1740.4,1518.1,1741.9z M1516.9,1741.9c0-0.9-1.1-1.4-3-1.4c-1.9,0-3,0.5-3,1.4c0,0.9,1.1,1.4,3,1.4
			C1515.8,1743.3,1516.9,1742.8,1516.9,1741.9z M1519.8,1734.9v1h-1.9v3.4h-1.1v-7.6h1.1v3.2H1519.8z"/>
		<path class="st7" d="M1526.8,1738.4c-1.2-0.5-2-1.4-2.5-2.4c-0.4,1.2-1.3,2.2-2.6,2.8l-0.6-0.9c1.6-0.7,2.6-2.4,2.6-3.8v-1.7h1.1
			v1.7c0,1.4,0.9,2.8,2.5,3.4L1526.8,1738.4z M1531.7,1741.9c0,1.4-1.6,2.3-4.2,2.3c-2.6,0-4.2-0.8-4.2-2.3s1.6-2.3,4.2-2.3
			C1530.1,1739.7,1531.7,1740.5,1531.7,1741.9z M1530.6,1741.9c0-0.9-1.2-1.4-3.1-1.4c-1.9,0-3.1,0.5-3.1,1.4c0,0.9,1.2,1.4,3.1,1.4
			C1529.5,1743.3,1530.6,1742.8,1530.6,1741.9z M1529,1739h-1.1v-7.1h1.1v3.1h1.6v-3.4h1.1v7.7h-1.1v-3.4h-1.6V1739z"/>
		<path class="st7" d="M1545.3,1737.1v0.9H1534v-0.9H1545.3z M1535.2,1734c0-1.4,1.7-2.2,4.4-2.2c2.8,0,4.4,0.8,4.4,2.2
			s-1.7,2.2-4.4,2.2C1536.9,1736.2,1535.2,1735.4,1535.2,1734z M1536.5,1743.2h7.8v0.9h-8.9v-3h7.4v-1.1h-7.4v-0.9h8.5v2.8h-7.4
			V1743.2z M1536.4,1734c0,0.8,1.2,1.3,3.2,1.3c2.1,0,3.2-0.5,3.2-1.3c0-0.8-1.2-1.3-3.2-1.3
			C1537.6,1732.7,1536.4,1733.2,1536.4,1734z"/>
		<path class="st7" d="M1558.3,1738.9c-1.2,0.2-2.4,0.4-3.6,0.4v4.5h-1.1v-4.5c-1.2,0.1-2.4,0.1-3.5,0.1l-0.2-1c2.3,0,5.5,0,8.3-0.4
			L1558.3,1738.9z M1550.9,1734.8c0-1.5,1.3-2.6,3.2-2.6c1.9,0,3.2,1,3.2,2.6c0,1.5-1.3,2.6-3.2,2.6
			C1552.2,1737.4,1550.9,1736.3,1550.9,1734.8z M1552,1734.8c0,1,0.9,1.6,2.1,1.6c1.2,0,2.1-0.7,2.1-1.6s-0.9-1.6-2.1-1.6
			C1552.9,1733.2,1552,1733.8,1552,1734.8z M1560.3,1731.7v12.6h-1.1v-12.6H1560.3z"/>
		<path class="st7" d="M1566.5,1733.8h2.5v0.9h-6.2v-0.9h2.5v-1.8h1.1V1733.8z M1568.7,1738.4c0,1.7-1.1,2.9-2.7,2.9
			s-2.7-1.2-2.7-2.9c0-1.7,1.1-2.9,2.7-2.9S1568.7,1736.7,1568.7,1738.4z M1567.6,1738.4c0-1.1-0.7-1.9-1.7-1.9
			c-1,0-1.7,0.8-1.7,1.9c0,1.1,0.7,1.9,1.7,1.9C1566.9,1740.3,1567.6,1739.5,1567.6,1738.4z M1573.5,1731.6v12.6h-1.1v-6.3h-1.6v5.7
			h-1.1v-11.7h1.1v5h1.6v-5.3H1573.5z"/>
		<path class="st7" d="M1590.3,1741.6v0.9h-11.4v-0.9h5.1v-3.1h1.1v3.1H1590.3z M1589.2,1738.7c-1.9-0.4-3.9-1.7-4.7-3.5
			c-0.8,1.8-2.8,3.1-4.7,3.5l-0.5-1c2.2-0.4,4.6-2.2,4.6-4.3v-1h1.2v1c0,2.1,2.4,3.9,4.6,4.3L1589.2,1738.7z"/>
		<path class="st7" d="M1596.4,1740.4c1.2-0.1,2.5-0.2,3.6-0.3l0.1,0.9c-2.8,0.5-5.9,0.5-8.1,0.5l-0.1-1c1,0,2.2,0,3.4,0v-2.2
			c-1.6-0.2-2.8-1.3-2.8-2.9c0-1.8,1.4-2.9,3.3-2.9c2,0,3.4,1.2,3.4,2.9c0,1.6-1.1,2.7-2.8,2.9V1740.4z M1595.8,1737.4
			c1.3,0,2.3-0.8,2.3-2c0-1.2-0.9-2-2.3-2c-1.3,0-2.2,0.8-2.2,2C1593.6,1736.6,1594.5,1737.4,1595.8,1737.4z M1602,1731.6v12.6h-1.1
			v-12.6H1602z"/>
		<path class="st7" d="M1611.7,1732h1.1v11.6h-1.1v-4.3h-2.3v-0.9h2.3v-2.2h-2.1c-0.6,2.1-1.9,4-4.3,5.4l-0.7-0.8
			c2.7-1.6,4-3.9,4.2-6.5h-3.7v-0.9h4.8c0,0.6-0.1,1.3-0.2,1.9h1.9V1732z M1615.3,1731.6v12.6h-1.1v-12.6H1615.3z"/>
		<path class="st7" d="M1628.9,1738v0.9h-11.4v-0.9H1628.9z M1618.2,1736.3c2.3-0.2,4.3-1.2,4.4-2.5h-3.9v-0.9h3.9v-1.3h1.1v1.3h3.9
			v0.9h-3.9c0.1,1.4,2,2.3,4.4,2.5l-0.4,0.9c-2.1-0.2-3.9-1-4.7-2.2c-0.8,1.2-2.6,2-4.7,2.2L1618.2,1736.3z M1627.5,1742.1
			c0,1.4-1.6,2.1-4.3,2.1c-2.7,0-4.3-0.7-4.3-2.1s1.6-2.1,4.3-2.1C1625.9,1740,1627.5,1740.7,1627.5,1742.1z M1626.3,1742.1
			c0-0.8-1.1-1.2-3.1-1.2c-2,0-3.1,0.4-3.1,1.2s1.1,1.2,3.1,1.2C1625.2,1743.3,1626.3,1742.9,1626.3,1742.1z"/>
	</g>
	<g class="st1">
		<path class="st7" d="M1513.1,1756.9c-0.8,2-2.7,3.5-5.4,4.3l-0.5-0.9c3-0.9,4.9-2.6,5.1-4.7h-4.4v-0.9h5.7c0,0.5-0.1,0.9-0.1,1.4
			h2.8v-2.3h1.2v7.5h-1.2v-1.7h-3.3v-0.9h3.3v-1.7H1513.1z M1517.4,1763.7c0,1.5-1.6,2.4-4.2,2.4c-2.5,0-4.2-0.9-4.2-2.4
			c0-1.5,1.6-2.4,4.2-2.4C1515.8,1761.3,1517.4,1762.2,1517.4,1763.7z M1516.3,1763.7c0-0.9-1.2-1.5-3-1.5c-1.8,0-3,0.6-3,1.5
			c0,1,1.2,1.5,3,1.5C1515.1,1765.3,1516.3,1764.7,1516.3,1763.7z"/>
		<path class="st7" d="M1523.6,1757.2c0,2.2,0.9,4.4,2.7,5.4l-0.7,0.8c-1.2-0.7-2.1-2.1-2.5-3.7c-0.4,1.7-1.3,3.2-2.6,4l-0.7-0.9
			c1.8-1.1,2.7-3.3,2.7-5.6v-1.1h-2.4v-0.9h5.7v0.9h-2.2V1757.2z M1527,1753.9h1.1v11.6h-1.1v-6.5h-2.1v-0.9h2.1V1753.9z
			 M1530.6,1753.6v12.6h-1.1v-12.6H1530.6z"/>
		<path class="st7" d="M1539.6,1760.7c-1.4-0.5-2.5-1.5-3-2.8c-0.5,1.4-1.7,2.6-3.2,3.1l-0.6-0.9c1.9-0.7,3.2-2.3,3.2-4.1v-0.5h-2.8
			v-0.9h6.7v0.9h-2.8v0.5c0,1.6,1.2,3.2,3.1,3.8L1539.6,1760.7z M1534.7,1761.8h8.4v4.4h-1.2v-3.4h-7.2V1761.8z M1543.1,1753.6v7.5
			h-1.2v-3.3h-2.5v-0.9h2.5v-3.3H1543.1z"/>
		<path class="st7" d="M1549.3,1754h0.9l-4.2,13.6h-0.9L1549.3,1754z"/>
		<path class="st7" d="M1553,1754.7v3.3h3.6v-3.3h1.1v8.5h-5.9v-8.5H1553z M1553,1762.2h3.6v-3.3h-3.6V1762.2z M1561.4,1753.6v12.6
			h-1.1v-12.6H1561.4z"/>
		<path class="st7" d="M1570.1,1756.9c-0.8,2-2.7,3.5-5.4,4.3l-0.5-0.9c3-0.9,4.9-2.6,5.1-4.7h-4.4v-0.9h5.7c0,0.5-0.1,0.9-0.1,1.4
			h2.8v-2.3h1.2v7.5h-1.2v-1.7h-3.3v-0.9h3.3v-1.7H1570.1z M1574.4,1763.7c0,1.5-1.6,2.4-4.2,2.4c-2.5,0-4.2-0.9-4.2-2.4
			c0-1.5,1.6-2.4,4.2-2.4C1572.8,1761.3,1574.4,1762.2,1574.4,1763.7z M1573.3,1763.7c0-0.9-1.2-1.5-3-1.5c-1.8,0-3,0.6-3,1.5
			c0,1,1.2,1.5,3,1.5C1572.1,1765.3,1573.3,1764.7,1573.3,1763.7z"/>
		<path class="st7" d="M1580.6,1757.2c0,2.2,0.9,4.4,2.7,5.4l-0.7,0.8c-1.2-0.7-2.1-2.1-2.5-3.7c-0.4,1.7-1.3,3.2-2.6,4l-0.7-0.9
			c1.8-1.1,2.7-3.3,2.7-5.6v-1.1h-2.4v-0.9h5.7v0.9h-2.2V1757.2z M1584,1753.9h1.1v11.6h-1.1v-6.5h-2.1v-0.9h2.1V1753.9z
			 M1587.6,1753.6v12.6h-1.1v-12.6H1587.6z"/>
		<path class="st7" d="M1596.6,1760.7c-1.4-0.5-2.5-1.5-3-2.8c-0.5,1.4-1.7,2.6-3.2,3.1l-0.6-0.9c1.9-0.7,3.2-2.3,3.2-4.1v-0.5h-2.8
			v-0.9h6.7v0.9h-2.8v0.5c0,1.6,1.2,3.2,3.1,3.8L1596.6,1760.7z M1591.7,1761.8h8.4v4.4h-1.2v-3.4h-7.2V1761.8z M1600.2,1753.6v7.5
			h-1.2v-3.3h-2.5v-0.9h2.5v-3.3H1600.2z"/>
		<path class="st7" d="M1610.3,1757.5c0,2.1,1.5,4.3,3.4,5.1l-0.6,0.9c-1.5-0.7-2.7-2.1-3.3-3.8c-0.6,1.8-1.8,3.4-3.2,4.1l-0.7-0.9
			c1.8-0.9,3.3-3.2,3.3-5.4v-1.6h-2.9v-1h7v1h-3V1757.5z M1616.1,1753.7v12.6h-1.1v-12.6H1616.1z"/>
		<path class="st7" d="M1622.3,1760.3c-1.2,0.1-2.5,0.1-3.5,0.1l-0.2-1c2.3,0,5.4,0,8.1-0.4l0.1,0.8c-1.1,0.2-2.3,0.3-3.4,0.4v2.5
			h-1.1V1760.3z M1619.6,1756.3c0-1.3,1.3-2.2,3.1-2.2s3.1,0.9,3.1,2.2c0,1.3-1.3,2.2-3.1,2.2S1619.6,1757.7,1619.6,1756.3z
			 M1629.3,1765v0.9h-8.9v-3.7h1.1v2.7H1629.3z M1620.7,1756.3c0,0.8,0.8,1.3,2,1.3s2-0.5,2-1.3c0-0.8-0.8-1.3-2-1.3
			S1620.7,1755.5,1620.7,1756.3z M1627.8,1761.1v-7.4h1.1v9.6h-1.1v-1.3h-2.5v-0.9H1627.8z"/>
	</g>
	<path id="사각형_405" class="st2" d="M882,1204h749c19.3,0,35,15.7,35,35l0,0c0,19.3-15.7,35-35,35H882c-19.3,0-35-15.7-35-35
		l0,0C847,1219.7,862.7,1204,882,1204z"/>
	<g class="st1">
		<path class="st0" d="M1138.4,1243.3c2.7-0.1,5.5-0.3,8.5-0.9l0.3,2.5c-3.5,0.7-6.9,0.9-10,0.9h-1.8v-14h3V1243.3z M1154.3,1240.3
			h-3v10.6h-3v-21.2h3v8h3V1240.3z"/>
		<path class="st0" d="M1175.1,1243.7h-8.2v7.3h-3v-7.3h-8v-2.5h19.2V1243.7z M1173.1,1238.8h-14.8v-8.1h3v5.7h11.8V1238.8z"/>
		<path class="st0" d="M1196.2,1240.1v2.4h-19.2v-2.4H1196.2z M1182.3,1248.1h12v2.4h-15v-6.3h3.1V1248.1z M1194.1,1237.9h-14.7
			v-7.4h3v5h11.7V1237.9z"/>
		<path class="st0" d="M1211.2,1234.5c0,3.8,1.5,7.7,4.9,9.3l-1.8,2.4c-2.2-1.1-3.7-3.2-4.6-5.7c-0.9,2.7-2.5,4.9-4.9,6.1l-1.8-2.5
			c3.6-1.7,5.2-5.7,5.2-9.7v-3.1h3.1V1234.5z M1223.1,1240.5h-3.1v10.5h-3v-21.2h3v8.1h3.1V1240.5z"/>
		<path class="st0" d="M1233,1244.8c1.7-0.1,3.4-0.2,5.1-0.5l0.2,2.2c-4.6,0.9-9.5,0.9-13.3,0.9l-0.4-2.5c1.6,0,3.4,0,5.3,0v-1.8
			c-2.3-0.4-3.7-1.9-3.7-3.8c0-2.4,2.2-4,5.3-4c3.1,0,5.2,1.6,5.2,4c0,2-1.5,3.4-3.7,3.8V1244.8z M1237.8,1234.5h-12.7v-2.4h4.9
			v-2.3h3v2.3h4.8V1234.5z M1231.5,1241c1.4,0,2.4-0.6,2.4-1.7c0-1.1-0.9-1.7-2.4-1.7c-1.4,0-2.4,0.6-2.4,1.7
			C1229.1,1240.4,1230.1,1241,1231.5,1241z M1242.3,1229.8v21.2h-3v-21.2H1242.3z"/>
		<path class="st0" d="M1263.4,1234.1H1251v-2.4h4.7v-2h3.1v2h4.7V1234.1z M1257.2,1242.4c-3.1,0-5.2-1.5-5.2-3.8
			c0-2.3,2.1-3.8,5.2-3.8c3.1,0,5.2,1.5,5.2,3.8C1262.4,1240.8,1260.3,1242.4,1257.2,1242.4z M1253.9,1243.5h13.8v7.2h-13.8V1243.5z
			 M1257.2,1240.1c1.4,0,2.3-0.5,2.3-1.6c0-1-0.9-1.6-2.3-1.6c-1.4,0-2.3,0.5-2.3,1.6C1254.9,1239.6,1255.8,1240.1,1257.2,1240.1z
			 M1256.9,1248.4h7.8v-2.5h-7.8V1248.4z M1270.4,1237.5h-2.8v5.1h-3v-12.7h3v5.2h2.8V1237.5z"/>
		<path class="st0" d="M1277.3,1232.2c0,5.4-0.5,10.1-3.2,14.3l-2.3-1.3c2.1-3.3,2.7-6.5,2.9-10.6h-2.2v-2.5H1277.3z M1283.5,1230.3
			h2.8v19.8h-2.8v-9.9h-2c-0.4,2.6-1.2,5.1-2.7,7.4l-2.3-1.3c2.3-3.6,2.8-7.3,2.9-11.6h-1.5v-2.5h4.1c0,1.9,0,3.7-0.2,5.6h1.7
			V1230.3z M1290.5,1229.8v21.2h-2.9v-21.2H1290.5z"/>
		<path class="st0" d="M1300.9,1232.9h4.6v2.4h-12.3v-2.4h4.7v-2.8h3V1232.9z M1304.7,1241.6c0,3-2.3,5.1-5.3,5.1
			c-3.1,0-5.4-2.1-5.4-5.1c0-2.9,2.3-5,5.4-5C1302.5,1236.5,1304.7,1238.6,1304.7,1241.6z M1301.9,1241.6c0-1.6-1-2.6-2.5-2.6
			s-2.5,1-2.5,2.6s1.1,2.6,2.5,2.6S1301.9,1243.2,1301.9,1241.6z M1313,1240.6h-3v10.4h-3v-21.2h3v8.3h3V1240.6z"/>
		<path class="st0" d="M1333.6,1240.1v2.4h-19.2v-2.4H1333.6z M1319.7,1248.1h12v2.4h-15v-6.3h3.1V1248.1z M1331.5,1237.9h-14.7
			v-7.4h3v5h11.7V1237.9z"/>
	</g>
	<g class="st1">
		<path class="st0" d="M1341.1,1240.4c0-5.5,3.1-8.8,7.6-8.8s7.6,3.2,7.6,8.8s-3.1,8.9-7.6,8.9S1341.1,1245.9,1341.1,1240.4z
			 M1352.8,1240.4c0-3.7-1.6-5.8-4.1-5.8s-4.1,2.2-4.1,5.8c0,3.6,1.6,6,4.1,6S1352.8,1244.1,1352.8,1240.4z"/>
		<path class="st0" d="M1358.8,1240.6c0-5.6,3.6-8.9,7.9-8.9c2.2,0,3.9,1,5,2.2l-1.8,2.2c-0.9-0.8-1.9-1.4-3.1-1.4
			c-2.6,0-4.5,2.2-4.5,5.9c0,3.7,1.7,5.9,4.4,5.9c1.5,0,2.6-0.7,3.5-1.7l1.8,2.1c-1.4,1.6-3.2,2.5-5.4,2.5
			C1362.3,1249.3,1358.8,1246.2,1358.8,1240.6z"/>
		<path class="st0" d="M1374.8,1232h3.4v17h-3.4V1232z"/>
	</g>
</g>
</svg>
