<?xml version="1.0" encoding="utf-8"?>
<!-- Generator: Adobe Illustrator 25.1.0, SVG Export Plug-In . SVG Version: 6.00 Build 0)  -->
<svg version="1.1" id="레이어_1" xmlns="http://www.w3.org/2000/svg" xmlns:xlink="http://www.w3.org/1999/xlink" x="0px"
	 y="0px" viewBox="0 0 651.8 408" style="enable-background:new 0 0 651.8 408;" xml:space="preserve">
<style type="text/css">
	.st0{fill:#E37E28;}
	.st1{enable-background:new    ;}
	.st2{fill:#FFFFFF;}
	.st3{fill:none;stroke:#E37E28;}
	.st4{clip-path:url(#SVGID_2_);}
	.st5{clip-path:url(#SVGID_4_);}
	.st6{fill:none;stroke:#E37E28;stroke-width:0.5;}
	.st7{fill:#555555;}
</style>
<g id="그룹_5809" transform="translate(-2950.5 598.833)">
	<rect id="사각형_536" x="3026.1" y="-552.8" class="st0" width="576" height="78"/>
	<g class="st1">
		<path class="st2" d="M3237-533.1v14.5h-1.7v-7.8h-2.8c-0.2,2.8-1.7,4.5-3.6,4.5c-2.1,0-3.6-2-3.6-5.1c0-3.1,1.5-5.1,3.6-5.1
			c1.9,0,3.4,1.7,3.6,4.3h2.8v-5.4H3237z M3231-526.9c0-2.2-0.8-3.6-2.1-3.6c-1.2,0-2.1,1.4-2.1,3.6c0,2.3,0.8,3.6,2.1,3.6
			C3230.2-523.3,3231-524.6,3231-526.9z"/>
		<path class="st2" d="M3241.9-523.2c2,0,3.7-0.1,5.7-0.4l0.1,1.4c-2.2,0.4-4,0.4-6.3,0.4h-1.1v-5.9h4.7v-2.7h-4.8v-1.3h6.4v5.4
			h-4.7V-523.2z M3251.7-533.1v14.5h-1.6v-6h-2.7v-1.3h2.7v-2.6h-2.6v-1.3h2.6v-3.2H3251.7z"/>
		<path class="st2" d="M3261.8-525.1v1.5h4.1v4.8h-9.9v-4.8h4.1v-1.5h-5.7v-1.3h13.1v1.3H3261.8z M3255.8-530.1c0-1.7,2-2.8,5.2-2.8
			s5.2,1,5.2,2.8c0,1.7-2,2.7-5.2,2.7S3255.8-528.4,3255.8-530.1z M3257.5-530.1c0,0.9,1.3,1.5,3.5,1.5c2.1,0,3.4-0.5,3.4-1.5
			c0-0.9-1.3-1.5-3.4-1.5C3258.8-531.5,3257.5-531,3257.5-530.1z M3264.3-522.3h-6.7v2.2h6.7V-522.3z"/>
		<path class="st2" d="M3282.2-525.6v1.3h-13.1v-1.3H3282.2z M3270.6-529.7c0-1.8,2-2.9,5.2-2.9c3.1,0,5.2,1.1,5.2,2.9
			c0,1.8-2,2.9-5.2,2.9C3272.6-526.7,3270.6-527.8,3270.6-529.7z M3272.5-520.2h8.3v1.3h-10v-4.2h1.7V-520.2z M3272.2-529.7
			c0,1,1.3,1.6,3.5,1.6c2.1,0,3.4-0.6,3.4-1.6c0-1-1.3-1.6-3.4-1.6C3273.6-531.3,3272.2-530.7,3272.2-529.7z"/>
		<path class="st2" d="M3289.6-523.6c2,0,4-0.2,6.2-0.6l0.2,1.4c-2.4,0.5-4.7,0.6-6.9,0.6h-1.2v-9.4h1.6V-523.6z M3300.9-526.1h-2.2
			v7.5h-1.6v-14.5h1.6v5.6h2.2V-526.1z"/>
		<path class="st2" d="M3309.5-526.1v1.3h4.1v3.5h-8.2v1.3h8.7v1.3h-10.3v-3.7h8.2v-1.1h-8.3v-1.3h4.1v-1.3h-5.7v-1.3h13.1v1.3
			H3309.5z M3313.8-528.5h-9.9v-4.3h1.6v3h8.3V-528.5z"/>
		<path class="st2" d="M3330-523.7h-5.7v5.1h-1.6v-5.1h-5.7v-1.3h13.1V-523.7z M3328.8-526.4c-2.4-0.4-4.4-1.6-5.3-3.3
			c-0.9,1.7-2.9,2.9-5.3,3.3l-0.6-1.3c2.9-0.4,5.1-2.2,5.1-4.1v-0.8h1.7v0.8c0,1.9,2.2,3.7,5.1,4.1L3328.8-526.4z"/>
		<path class="st2" d="M3344.7-525.2v1.3h-13.1v-1.3h5.7v-1.3h-4v-3.7h8.1v-1.2h-8.2v-1.3h9.8v3.7h-8.2v1.3h8.5v1.3h-4.4v1.3H3344.7
			z M3333.1-522.9h10.1v4.2h-1.6v-2.9h-8.4V-522.9z"/>
		<path class="st2" d="M3357.6-524.9c-1.6-0.5-2.8-1.6-3.4-3c-0.6,1.5-1.8,2.7-3.5,3.3l-0.9-1.3c2.3-0.8,3.6-2.6,3.6-4.6v-0.3h-3.1
			v-1.3h7.8v1.3h-3v0.3c0,1.8,1.2,3.6,3.4,4.3L3357.6-524.9z M3351.8-523.6h9.5v5h-1.6v-3.7h-7.9V-523.6z M3363.3-528h-2v3.7h-1.6
			v-8.7h1.6v3.7h2V-528z"/>
		<path class="st2" d="M3372.3-526.9c0,3.1-1.6,5.1-3.7,5.1c-2.2,0-3.7-2-3.7-5.1s1.6-5.1,3.7-5.1
			C3370.7-532,3372.3-530,3372.3-526.9z M3370.7-526.9c0-2.3-0.9-3.6-2.1-3.6c-1.3,0-2.1,1.4-2.1,3.6s0.9,3.6,2.1,3.6
			C3369.8-523.3,3370.7-524.6,3370.7-526.9z M3378.1-526h-2.3v7.5h-1.6v-14.5h1.6v5.7h2.3V-526z"/>
		<path class="st2" d="M3384.7-528.9c0,2.4,1.5,4.9,3.7,5.9l-0.9,1.3c-1.7-0.7-3-2.3-3.6-4.2c-0.6,2-1.9,3.7-3.6,4.5l-0.9-1.3
			c2.2-1,3.7-3.7,3.7-6.2v-1.4h-3.2v-1.4h8.1v1.4h-3.2V-528.9z M3391.3-533.1v14.5h-1.7v-14.5H3391.3z"/>
		<path class="st2" d="M3407.2-521.8v1.4h-13.1v-1.4h4.9v-5.1h1.7v5.1H3407.2z M3404.1-530.4h-8.6v-1.3h10.3v1.4
			c0,1.8,0,3.8-0.6,6.8l-1.7-0.2C3404.1-526.5,3404.1-528.6,3404.1-530.4L3404.1-530.4z"/>
	</g>
	<g class="st1">
		<path class="st2" d="M3244.8-505.5c0,2.6,1.3,5.2,3.5,6.3l-1,1.3c-1.6-0.8-2.7-2.4-3.3-4.3c-0.6,2-1.8,3.7-3.5,4.5l-1-1.3
			c2.3-1.1,3.7-3.8,3.7-6.5v-2.4h1.6V-505.5z M3253.2-502h-2.3v7.4h-1.6v-14.5h1.6v5.7h2.3V-502z"/>
		<path class="st2" d="M3263-501.5c-2.2,0.4-4.1,0.5-6.8,0.5h-1.2v-4.2h4.9v-1.6h-4.9v-1.3h6.6v4.1h-4.9v1.6c2.5,0,4.2-0.1,6.2-0.5
			L3263-501.5z M3265.9-497.3c0,1.7-1.8,2.7-4.8,2.7c-3,0-4.8-1-4.8-2.7c0-1.7,1.8-2.7,4.8-2.7C3264.1-500,3265.9-499,3265.9-497.3z
			 M3264.3-497.3c0-0.9-1.2-1.4-3.2-1.4c-2,0-3.2,0.5-3.2,1.4c0,0.9,1.2,1.4,3.2,1.4C3263.1-495.9,3264.3-496.4,3264.3-497.3z
			 M3267.8-505.5v1.4h-2v3.8h-1.6v-8.7h1.6v3.5H3267.8z"/>
		<path class="st2" d="M3282.2-501.6v1.3h-13.1v-1.3H3282.2z M3270.6-505.7c0-1.8,2-2.9,5.2-2.9c3.1,0,5.2,1.1,5.2,2.9
			c0,1.8-2,2.9-5.2,2.9C3272.6-502.7,3270.6-503.8,3270.6-505.7z M3272.5-496.2h8.3v1.3h-10v-4.2h1.7V-496.2z M3272.2-505.7
			c0,1,1.3,1.6,3.5,1.6c2.1,0,3.4-0.6,3.4-1.6c0-1-1.3-1.6-3.4-1.6C3273.6-507.3,3272.2-506.7,3272.2-505.7z"/>
		<path class="st2" d="M3289.6-499.6c2,0,4-0.2,6.2-0.6l0.2,1.4c-2.4,0.5-4.7,0.6-6.9,0.6h-1.2v-9.4h1.6V-499.6z M3300.9-502.1h-2.2
			v7.5h-1.6v-14.5h1.6v5.6h2.2V-502.1z"/>
		<path class="st2" d="M3309.5-502.1v1.3h4.1v3.5h-8.2v1.3h8.7v1.3h-10.3v-3.7h8.2v-1.1h-8.3v-1.3h4.1v-1.3h-5.7v-1.3h13.1v1.3
			H3309.5z M3313.8-504.5h-9.9v-4.3h1.6v3h8.3V-504.5z"/>
		<path class="st2" d="M3330-499.7h-5.7v5.1h-1.6v-5.1h-5.7v-1.3h13.1V-499.7z M3328.8-502.4c-2.4-0.4-4.4-1.6-5.3-3.3
			c-0.9,1.7-2.9,2.9-5.3,3.3l-0.6-1.3c2.9-0.4,5.1-2.2,5.1-4.1v-0.8h1.7v0.8c0,1.9,2.2,3.7,5.1,4.1L3328.8-502.4z"/>
		<path class="st2" d="M3344.8-501.2v1.3h-13.1v-1.3h5.7v-1.3h-4v-3.7h8.1v-1.2h-8.2v-1.3h9.8v3.7h-8.2v1.3h8.5v1.3h-4.4v1.3H3344.8
			z M3333.1-498.9h10.1v4.2h-1.6v-2.9h-8.4V-498.9z"/>
		<path class="st2" d="M3357.3-507.6c0,4.3-1.3,8.1-6.5,10.7l-0.9-1.3c2.4-1.2,4-2.8,4.8-4.5l-4.5,0.4l-0.2-1.4l5.3-0.3
			c0.2-0.7,0.3-1.5,0.4-2.3h-4.9v-1.3H3357.3z M3361.9-509.1v14.5h-1.7v-7.4h-3v-1.4h3v-5.7H3361.9z"/>
		<path class="st2" d="M3372.8-500.5c-1.7-0.5-2.9-1.7-3.5-3.1c-0.6,1.5-1.9,2.8-3.6,3.3l-0.9-1.3c2.3-0.8,3.6-2.6,3.6-4.6v-0.5
			h-3.1v-1.3h7.9v1.3h-3.1v0.5c0,1.8,1.3,3.6,3.5,4.3L3372.8-500.5z M3377-496.2v1.3h-9.9v-4.6h1.7v3.3H3377z M3376.6-498.5h-1.6
			V-509h1.6V-498.5z"/>
		<path class="st2" d="M3381.6-499.5c2.3,0,4.1-0.1,6.1-0.5l0.2,1.4c-2.2,0.4-4.1,0.5-6.8,0.5h-1.2v-9.6h6.7v1.3h-5.1V-499.5z
			 M3392.9-502.1h-2.3v7.6h-1.6v-14.5h1.6v5.6h2.3V-502.1z"/>
	</g>
	<g id="그룹_5029" transform="translate(2951 -552.321)">
		<path id="패스_1715" class="st3" d="M67.6,0H0v77.5"/>
	</g>
	<g id="그룹_5039" transform="translate(2951 -597.665)">
		<path id="패스_1715-2" class="st3" d="M67.6,0H0v39.5"/>
	</g>
	<g class="st1">
		<path class="st0" d="M2965.6-585.5h1.4l-3.1,8.3h-1.6l-3.1-8.3h1.5l2.5,6.9L2965.6-585.5z"/>
		<path class="st0" d="M2968.2-585.5c0-0.5,0.4-0.9,0.9-0.9c0.5,0,0.9,0.4,0.9,0.9s-0.4,0.9-0.9,0.9
			C2968.6-584.6,2968.2-585,2968.2-585.5z M2968.3-583.7h1.4v6.6h-1.4V-583.7z"/>
		<path class="st0" d="M2974-577c-1.6,0-2.7-0.9-2.8-2.1h1.4c0,0.5,0.6,1,1.3,1c0.8,0,1.2-0.3,1.2-0.8c0-1.3-3.8-0.6-3.8-3
			c0-1.1,1-1.9,2.5-1.9c1.5,0,2.5,0.8,2.6,2.1h-1.4c0-0.6-0.5-1-1.2-1c-0.7,0-1.1,0.3-1.1,0.7c0,1.3,3.7,0.6,3.8,3
			C2976.6-577.9,2975.6-577,2974-577z"/>
		<path class="st0" d="M2978-585.5c0-0.5,0.4-0.9,0.9-0.9c0.5,0,0.9,0.4,0.9,0.9s-0.4,0.9-0.9,0.9C2978.4-584.6,2978-585,2978-585.5
			z M2978.2-583.7h1.4v6.6h-1.4V-583.7z"/>
		<path class="st0" d="M2984.3-577c-1.9,0-3.3-1.3-3.3-3.4c0-2.1,1.5-3.4,3.4-3.4c1.9,0,3.4,1.3,3.4,3.4
			C2987.7-578.4,2986.2-577,2984.3-577z M2984.3-578.2c1,0,2-0.7,2-2.2c0-1.5-1-2.2-2-2.2c-1,0-2,0.7-2,2.2
			C2982.4-578.9,2983.3-578.2,2984.3-578.2z"/>
		<path class="st0" d="M2993.9-580.8c0-1.2-0.7-1.8-1.7-1.8c-1,0-1.7,0.6-1.7,1.8v3.7h-1.4v-6.6h1.4v0.8c0.4-0.5,1.2-0.9,2-0.9
			c1.5,0,2.7,1,2.7,2.8v3.9h-1.4V-580.8z"/>
	</g>
	<g class="st1">
		<path class="st0" d="M2959.5-540h5.8v1.1h-2.2v7.2h-1.4v-7.2h-2.2V-540z"/>
		<path class="st0" d="M2966.8-540.6h1.4v3c0.5-0.6,1.2-0.9,2.1-0.9c1.5,0,2.6,1,2.6,2.8v3.9h-1.4v-3.7c0-1.2-0.7-1.8-1.7-1.8
			c-1,0-1.7,0.6-1.7,1.8v3.7h-1.4V-540.6z"/>
		<path class="st0" d="M2977.5-531.6c-1.9,0-3.3-1.3-3.3-3.4c0-2.1,1.3-3.4,3.3-3.4c1.9,0,3.2,1.3,3.2,3.3c0,0.2,0,0.4,0,0.7h-5
			c0.1,1.1,0.9,1.8,1.9,1.8c0.8,0,1.3-0.4,1.6-0.9h1.5C2980.2-532.5,2979.2-531.6,2977.5-531.6z M2975.7-535.6h3.7
			c0-1-0.8-1.7-1.8-1.7C2976.6-537.3,2975.8-536.6,2975.7-535.6z"/>
		<path class="st0" d="M2991.6-535.4c0-1.2-0.7-1.8-1.7-1.8c-1,0-1.7,0.6-1.7,1.8v3.7h-1.4v-3.7c0-1.2-0.7-1.8-1.7-1.8
			c-1,0-1.7,0.6-1.7,1.8v3.7h-1.4v-6.6h1.4v0.8c0.4-0.5,1.2-0.9,2-0.9c1,0,1.9,0.4,2.4,1.3c0.4-0.8,1.3-1.3,2.3-1.3
			c1.5,0,2.7,1,2.7,2.8v3.9h-1.4V-535.4z"/>
		<path class="st0" d="M2997.6-531.6c-1.9,0-3.3-1.3-3.3-3.4c0-2.1,1.3-3.4,3.3-3.4c1.9,0,3.2,1.3,3.2,3.3c0,0.2,0,0.4,0,0.7h-5
			c0.1,1.1,0.9,1.8,1.9,1.8c0.8,0,1.3-0.4,1.6-0.9h1.5C3000.3-532.5,2999.3-531.6,2997.6-531.6z M2995.8-535.6h3.7
			c0-1-0.8-1.7-1.8-1.7C2996.7-537.3,2995.9-536.6,2995.8-535.6z"/>
	</g>
	<g class="st1">
		<path class="st0" d="M2962.8-452.2h-1.5v3.4h-1.4v-8.3h2.9c2,0,3,1.1,3,2.5C2965.7-453.5,2964.9-452.2,2962.8-452.2z
			 M2962.8-453.3c1.1,0,1.5-0.5,1.5-1.4c0-0.9-0.5-1.4-1.5-1.4h-1.5v2.7H2962.8z"/>
		<path class="st0" d="M2968.5-448.8h-1.4v-6.6h1.4v1c0.4-0.7,1-1.1,2-1.1v1.4h-0.3c-1,0-1.6,0.4-1.6,1.8V-448.8z"/>
		<path class="st0" d="M2971.7-457.2c0-0.5,0.4-0.9,0.9-0.9c0.5,0,0.9,0.4,0.9,0.9s-0.4,0.9-0.9,0.9
			C2972.1-456.3,2971.7-456.7,2971.7-457.2z M2971.9-455.4h1.4v6.6h-1.4V-455.4z"/>
		<path class="st0" d="M2979.9-452.5c0-1.2-0.7-1.8-1.7-1.8c-1,0-1.7,0.6-1.7,1.8v3.7h-1.4v-6.6h1.4v0.8c0.4-0.5,1.2-0.9,2-0.9
			c1.5,0,2.7,1,2.7,2.8v3.9h-1.4V-452.5z"/>
		<path class="st0" d="M2985.9-455.5c1.6,0,2.7,0.8,3,2.2h-1.5c-0.2-0.6-0.8-1-1.6-1c-1.1,0-1.8,0.8-1.8,2.3c0,1.5,0.7,2.3,1.8,2.3
			c0.8,0,1.3-0.4,1.6-1h1.5c-0.4,1.3-1.4,2.2-3,2.2c-1.9,0-3.2-1.3-3.2-3.4C2982.6-454.2,2984-455.5,2985.9-455.5z"/>
		<path class="st0" d="M2990.2-457.2c0-0.5,0.4-0.9,0.9-0.9c0.5,0,0.9,0.4,0.9,0.9s-0.4,0.9-0.9,0.9
			C2990.6-456.3,2990.2-456.7,2990.2-457.2z M2990.4-455.4h1.4v6.6h-1.4V-455.4z"/>
		<path class="st0" d="M2997.4-455.5c1.7,0,3.1,1.3,3.1,3.4s-1.4,3.4-3.1,3.4c-1.1,0-1.9-0.6-2.3-1.1v4.1h-1.4v-9.8h1.4v1
			C2995.5-455,2996.3-455.5,2997.4-455.5z M2997.1-454.3c-1,0-2,0.8-2,2.2c0,1.4,1,2.2,2,2.2c1,0,2-0.8,2-2.3
			C2999.1-453.6,2998.1-454.3,2997.1-454.3z"/>
		<path class="st0" d="M3001.9-457.7h1.4v8.9h-1.4V-457.7z"/>
		<path class="st0" d="M3008.1-448.7c-1.9,0-3.3-1.3-3.3-3.4c0-2.1,1.3-3.4,3.3-3.4c1.9,0,3.2,1.3,3.2,3.3c0,0.2,0,0.4,0,0.7h-5
			c0.1,1.1,0.9,1.8,1.9,1.8c0.8,0,1.3-0.4,1.6-0.9h1.5C3010.7-449.6,3009.7-448.7,3008.1-448.7z M3006.2-452.7h3.7
			c0-1-0.8-1.7-1.8-1.7C3007.1-454.4,3006.3-453.7,3006.2-452.7z"/>
	</g>
	<g class="st1">
		<path class="st0" d="M2962.6-312c-1.7,0-3-0.9-3-2.4h1.5c0.1,0.7,0.5,1.2,1.5,1.2c1,0,1.5-0.5,1.5-1.2c0-2-4.4-0.7-4.4-3.8
			c0-1.5,1.2-2.4,2.9-2.4c1.6,0,2.7,0.8,2.8,2.3h-1.5c0-0.6-0.5-1.1-1.4-1.1c-0.8,0-1.4,0.4-1.4,1.2c0,1.9,4.4,0.7,4.4,3.8
			C2965.5-313.2,2964.5-312,2962.6-312z"/>
		<path class="st0" d="M2970.1-312c-1.9,0-3.3-1.3-3.3-3.4c0-2.1,1.3-3.4,3.3-3.4c1.9,0,3.2,1.3,3.2,3.3c0,0.2,0,0.4,0,0.7h-5
			c0.1,1.1,0.9,1.8,1.9,1.8c0.8,0,1.3-0.4,1.6-0.9h1.5C2972.8-312.9,2971.7-312,2970.1-312z M2968.2-316h3.7c0-1-0.8-1.7-1.8-1.7
			C2969.1-317.6,2968.4-317,2968.2-316z"/>
		<path class="st0" d="M2977.6-318.8c1.6,0,2.7,0.8,3,2.2h-1.5c-0.2-0.6-0.8-1-1.6-1c-1.1,0-1.8,0.8-1.8,2.3c0,1.5,0.7,2.3,1.8,2.3
			c0.8,0,1.3-0.4,1.6-1h1.5c-0.4,1.3-1.4,2.2-3,2.2c-1.9,0-3.2-1.3-3.2-3.4C2974.3-317.4,2975.7-318.8,2977.6-318.8z"/>
		<path class="st0" d="M2982.3-317.6h-0.8v-1.1h0.8v-1.6h1.4v1.6h1.6v1.1h-1.6v3.7c0,0.5,0.2,0.7,0.8,0.7h0.8v1.1h-1.1
			c-1.2,0-1.9-0.5-1.9-1.8V-317.6z"/>
		<path class="st0" d="M2986.5-320.4c0-0.5,0.4-0.9,0.9-0.9c0.5,0,0.9,0.4,0.9,0.9s-0.4,0.9-0.9,0.9
			C2986.9-319.5,2986.5-319.9,2986.5-320.4z M2986.7-318.7h1.4v6.6h-1.4V-318.7z"/>
		<path class="st0" d="M2992.8-312c-1.9,0-3.3-1.3-3.3-3.4c0-2.1,1.5-3.4,3.4-3.4c1.9,0,3.4,1.3,3.4,3.4
			C2996.3-313.3,2994.7-312,2992.8-312z M2992.8-313.1c1,0,2-0.7,2-2.2c0-1.5-1-2.2-2-2.2c-1,0-2,0.7-2,2.2
			C2990.9-313.9,2991.8-313.1,2992.8-313.1z"/>
		<path class="st0" d="M3002.4-315.8c0-1.2-0.7-1.8-1.7-1.8c-1,0-1.7,0.6-1.7,1.8v3.7h-1.4v-6.6h1.4v0.8c0.4-0.5,1.2-0.9,2-0.9
			c1.5,0,2.7,1,2.7,2.8v3.9h-1.4V-315.8z"/>
	</g>
	<path id="패스_2767" class="st3" d="M3018.6-469.1H2951v128.9"/>
	<path id="패스_2768" class="st3" d="M3018.6-332.6H2951v137"/>
	<rect id="사각형_388" x="3026" y="-469.1" class="st2" width="138.3" height="129.1"/>
	<g class="st1">
		<path class="st0" d="M3081.8-368.7c-1.5-0.5-2.5-1.5-3.1-2.7c-0.6,1.3-1.6,2.4-3.1,2.9l-0.8-1.1c2-0.7,3.1-2.3,3.1-4v-0.5h-2.7
			v-1.2h6.9v1.2h-2.7v0.5c0,1.6,1.1,3.2,3.1,3.8L3081.8-368.7z M3085.5-365v1.2h-8.6v-4h1.5v2.9H3085.5z M3085.1-367h-1.4v-9.2h1.4
			V-367z"/>
		<path class="st0" d="M3094.9-369.1c-1.4-0.5-2.4-1.5-2.9-2.7c-0.6,1.4-1.6,2.5-3.1,3l-0.7-1.1c2-0.7,3.1-2.4,3.1-4.1v-0.2h-2.7
			v-1.2h6.8v1.2h-2.6v0.2c0,1.6,1.1,3.2,3,3.8L3094.9-369.1z M3098.6-365.9c0,1.5-1.6,2.4-4.3,2.4c-2.6,0-4.3-0.9-4.3-2.4
			c0-1.5,1.6-2.4,4.3-2.4C3097-368.3,3098.6-367.4,3098.6-365.9z M3097.1-365.9c0-0.8-1-1.3-2.8-1.3c-1.8,0-2.8,0.4-2.8,1.3
			s1,1.3,2.8,1.3C3096.1-364.7,3097.1-365.1,3097.1-365.9z M3097.1-373v-3.2h1.4v7.5h-1.4v-3.2h-2.2v-1.2H3097.1z"/>
		<path class="st0" d="M3108.1-369.3c-1.4-0.5-2.3-1.4-2.9-2.7c-0.6,1.4-1.6,2.5-3.2,3.1l-0.8-1.2c2-0.7,3.1-2.4,3.1-4.2v-1.2h1.5
			v1.2c0,1.8,1.1,3.3,3,4L3108.1-369.3z M3111.9-366c0,1.5-1.6,2.4-4.3,2.4c-2.6,0-4.3-0.9-4.3-2.4s1.6-2.4,4.3-2.4
			C3110.3-368.4,3111.9-367.5,3111.9-366z M3110.5-366c0-0.8-1-1.3-2.8-1.3s-2.8,0.5-2.8,1.3s1,1.3,2.8,1.3S3110.5-365.2,3110.5-366
			z M3110.4-372.5h-2.6v-1.2h2.6v-2.5h1.4v7.5h-1.4V-372.5z"/>
	</g>
	<g id="그룹_5038" transform="translate(3062.172 -447.845)">
		<rect id="사각형_303" x="0" y="0" class="st2" width="66" height="65.3"/>
		<g id="그룹_4150" transform="translate(9.957 9.03)">
			<path id="패스_1768" class="st0" d="M35.8,48.2h1v-17h-1V48.2z"/>
			<g>
				<defs>
					<rect id="SVGID_1_" x="0" y="0" width="45.2" height="48.2"/>
				</defs>
				<clipPath id="SVGID_2_">
					<use xlink:href="#SVGID_1_"  style="overflow:visible;"/>
				</clipPath>
				<g id="그룹_4145" class="st4">
					<g id="그룹_4143" transform="translate(31.981 0)">
						<path id="패스_1769" class="st0" d="M4.3,8.7C1.9,8.7,0,6.7,0,4.3C0,1.9,1.9,0,4.3,0c2.4,0,4.3,1.9,4.3,4.3
							C8.6,6.7,6.7,8.6,4.3,8.7 M4.3,1C2.5,1,1,2.5,1,4.3c0,1.8,1.5,3.3,3.3,3.3c1.8,0,3.3-1.5,3.3-3.3C7.6,2.5,6.1,1,4.3,1"/>
					</g>
					<g id="그룹_4144" transform="translate(22.434 10.662)">
						<path id="패스_1770" class="st0" d="M18.7,37.6V17.5h3V5.8c0-2.7-2.2-4.8-4.8-4.8h-6.1C9.2,1,7.7,1.8,6.7,3.1l-5.8,8.9
							L0,11.4l5.8-8.9C7,0.9,8.9,0,10.8,0h6.1c3.2,0,5.8,2.6,5.8,5.8v12.7h-3v19H18.7z"/>
					</g>
				</g>
			</g>
			<path id="패스_1772" class="st0" d="M35.8,14.7h1v-1h-1V14.7z"/>
			<path id="패스_1773" class="st0" d="M35.8,17.8h1v-1h-1V17.8z"/>
			<path id="패스_1774" class="st0" d="M8.4,48.2h1v-17h-1V48.2z"/>
			<g>
				<defs>
					<rect id="SVGID_3_" x="0" y="0" width="45.2" height="48.2"/>
				</defs>
				<clipPath id="SVGID_4_">
					<use xlink:href="#SVGID_3_"  style="overflow:visible;"/>
				</clipPath>
				<g id="그룹_4149" class="st5">
					<g id="그룹_4146" transform="translate(4.489 0)">
						<path id="패스_1775" class="st0" d="M4.3,8.7C1.9,8.6,0,6.7,0,4.3C0,1.9,1.9,0,4.3,0c2.4,0,4.3,1.9,4.3,4.3
							C8.6,6.7,6.7,8.6,4.3,8.7 M4.3,1C2.5,1,1,2.5,1,4.3c0,1.8,1.5,3.3,3.3,3.3c1.8,0,3.3-1.5,3.3-3.3C7.6,2.5,6.1,1,4.3,1"/>
					</g>
					<g id="그룹_4147" transform="translate(0 10.662)">
						<path id="패스_1776" class="st0" d="M3,37.6v-19H0V5.8C0,2.6,2.6,0,5.8,0h6.1c2,0,3.9,0.9,5.1,2.5l8.2,12l-0.9,0.6l-8.2-12
							c-1-1.3-2.6-2.1-4.2-2.1H5.8C3.2,1,1,3.1,1,5.7c0,0,0,0.1,0,0.1v11.7h3v20.1H3z"/>
					</g>
					<g id="그룹_4148" transform="translate(13.705 19.036)">
						<path id="패스_1777" class="st0" d="M16.8,29.2V1.8L9.3,9.3C9.2,9.4,9,9.4,8.9,9.4c-0.1,0-0.3-0.1-0.4-0.2L1,1.8v27.4H0V0.5
							C0,0.3,0.1,0.1,0.3,0c0.1,0,0.1,0,0.2,0c0.1,0,0.3,0.1,0.4,0.2l8,8l8-8C17,0.1,17.1,0,17.3,0c0.1,0,0.1,0,0.2,0
							c0.2,0.1,0.3,0.3,0.3,0.5v28.7H16.8z"/>
					</g>
				</g>
			</g>
		</g>
	</g>
	<rect id="사각형_391" x="3026" y="-332.4" class="st2" width="138.3" height="141.6"/>
	<g class="st1">
		<path class="st0" d="M3081.2-303.8c-1.9,0-3.4-1.1-3.4-2.8h1.7c0.1,0.8,0.6,1.4,1.7,1.4c1.1,0,1.8-0.6,1.8-1.4
			c0-2.4-5.2-0.8-5.2-4.4c0-1.7,1.4-2.8,3.3-2.8c1.9,0,3.2,1,3.3,2.6h-1.8c-0.1-0.7-0.6-1.3-1.6-1.3c-0.9,0-1.6,0.4-1.6,1.4
			c0,2.2,5.2,0.8,5.2,4.4C3084.6-305.2,3083.4-303.8,3081.2-303.8z"/>
		<path class="st0" d="M3089.8-303.8c-2.2,0-3.9-1.6-3.9-4c0-2.4,1.7-4,3.9-4s3.9,1.6,3.9,4C3093.8-305.4,3092-303.8,3089.8-303.8z
			 M3089.8-305.2c1.2,0,2.4-0.9,2.4-2.6s-1.1-2.6-2.3-2.6c-1.2,0-2.3,0.8-2.3,2.6S3088.6-305.2,3089.8-305.2z"/>
		<path class="st0" d="M3095.4-314.3h1.6v10.4h-1.6V-314.3z"/>
		<path class="st0" d="M3102.2-311.8c1.3,0,2.2,0.6,2.7,1.2v-1.1h1.6v7.7h-1.6v-1.1c-0.5,0.7-1.4,1.3-2.7,1.3c-2,0-3.6-1.6-3.6-4
			C3098.6-310.2,3100.2-311.8,3102.2-311.8z M3102.6-310.4c-1.2,0-2.3,0.9-2.3,2.6c0,1.7,1.1,2.6,2.3,2.6c1.2,0,2.3-0.9,2.3-2.6
			C3104.9-309.4,3103.8-310.4,3102.6-310.4z"/>
		<path class="st0" d="M3110.2-303.9h-1.6v-7.7h1.6v1.1c0.4-0.8,1.2-1.2,2.3-1.2v1.7h-0.4c-1.2,0-1.9,0.5-1.9,2.1V-303.9z"/>
	</g>
	<path id="패스_2769" class="st6" d="M3047.6-290.8h95.2"/>
	<g class="st1">
		<path class="st7" d="M3056.1-270.6c1.6,0,2.5,0,3.7-0.3l0.1,0.8c-1.2,0.2-2.3,0.3-4,0.3h-0.7v-6.9h4.2v0.8h-3.3v2h3.1v0.8h-3.1
			V-270.6z M3063.8-277.9v10.8h-0.9v-5.6h-1.4v5.1h-0.9v-10h0.9v4.1h1.4v-4.3H3063.8z"/>
		<path class="st7" d="M3068.7-272.2c-1.6,0-2.8-1-2.8-2.5c0-1.5,1.2-2.5,2.8-2.5c1.6,0,2.8,1,2.8,2.5
			C3071.6-273.2,3070.4-272.2,3068.7-272.2z M3068.7-273c1.1,0,1.8-0.7,1.8-1.7c0-1-0.8-1.7-1.8-1.7c-1.1,0-1.8,0.7-1.8,1.7
			C3066.9-273.7,3067.7-273,3068.7-273z M3074.2-269.1c0,1.3-1.4,2-3.5,2c-2.2,0-3.6-0.7-3.6-2c0-1.3,1.4-2,3.6-2
			C3072.8-271.2,3074.2-270.4,3074.2-269.1z M3073.2-269.1c0-0.8-1-1.2-2.6-1.2c-1.6,0-2.6,0.5-2.6,1.2c0,0.8,1,1.2,2.6,1.2
			C3072.2-267.9,3073.2-268.4,3073.2-269.1z M3074.1-275.5v1.5h1.6v0.8h-1.6v1.7h-1v-6.4h1v1.6h1.6v0.8H3074.1z"/>
		<path class="st7" d="M3083.5-272.3c-2.2,0.3-4.8,0.4-6.7,0.4l-0.1-0.8c0.7,0,1.5,0,2.3,0v-2.1h1v2.1c1.2,0,2.4-0.1,3.5-0.3
			L3083.5-272.3z M3081.5-273.8c0.3-1.1,0.3-2,0.3-2.6h-4.4v-0.8h5.3v0.6c0,0.7,0,1.7-0.3,2.9L3081.5-273.8z M3085.3-269.1
			c0,1.2-1.4,2-3.6,2c-2.2,0-3.6-0.7-3.6-2c0-1.2,1.4-1.9,3.6-1.9C3083.9-271,3085.3-270.3,3085.3-269.1z M3084.3-269.1
			c0-0.7-1-1.2-2.6-1.2s-2.6,0.4-2.6,1.2c0,0.7,1,1.2,2.6,1.2S3084.3-268.3,3084.3-269.1z M3086.7-274.9v0.8h-1.5v3h-1v-6.7h1v3
			H3086.7z"/>
		<path class="st7" d="M3095.9-272.7h-5v-4.7h1v1.5h3v-1.5h1V-272.7z M3095-275.1h-3v1.6h3V-275.1z M3093-268h6.2v0.8h-7.2v-2.7h5.8
			v-1.1h-5.9v-0.8h6.8v2.6h-5.8V-268z M3100.4-275.6v0.8h-1.6v2.4h-1v-5.6h1v2.3H3100.4z"/>
		<path class="st7" d="M3107.4-271.6c-1.2-0.4-2.1-1.3-2.6-2.4c-0.5,1.2-1.5,2.2-2.7,2.7l-0.5-0.8c1.6-0.6,2.7-2,2.7-3.5v-0.5h-2.4
			v-0.8h5.7v0.8h-2.4v0.5c0,1.4,1.1,2.7,2.6,3.3L3107.4-271.6z M3110.7-268.2v0.8h-7.2v-3.3h1v2.5H3110.7z M3109.4-274.9v-3h1v7.9
			h-1v-4.1h-2.2v-0.8H3109.4z"/>
		<path class="st7" d="M3118.9-275c0,1.9,1.2,3.8,2.7,4.6l-0.6,0.8c-1.1-0.6-2.1-1.9-2.6-3.3c-0.5,1.6-1.5,2.9-2.7,3.6l-0.6-0.8
			c1.5-0.8,2.8-2.9,2.8-4.8v-1.9h1V-275z M3125.3-272.7h-1.8v5.6h-1v-10.7h1v4.4h1.8V-272.7z"/>
		<path class="st7" d="M3135.2-277.9v5.8h-1v-2.4h-2.2c-0.2,1.3-1.3,2.1-2.7,2.1c-1.6,0-2.8-1-2.8-2.5c0-1.5,1.2-2.5,2.8-2.5
			c1.5,0,2.5,0.8,2.7,2.1h2.2v-2.6H3135.2z M3131.1-274.9c0-1-0.8-1.7-1.8-1.7s-1.8,0.7-1.8,1.7s0.8,1.7,1.8,1.7
			S3131.1-273.9,3131.1-274.9z M3134.2-271.6h1v4.3h-6.9v-4.3h1v1.4h4.9V-271.6z M3134.2-269.4h-4.9v1.4h4.9V-269.4z"/>
	</g>
	<g class="st1">
		<path class="st7" d="M3052.5-259.9v6.3h-1v-1.5h-2.7c-0.5,0.6-1.3,1-2.2,1c-1.6,0-2.8-1.1-2.8-2.6c0-1.5,1.2-2.6,2.8-2.6
			c0.9,0,1.7,0.4,2.2,1h2.7v-1.6L3052.5-259.9z M3048.4-256.7c0-1-0.8-1.7-1.8-1.7c-1,0-1.8,0.7-1.8,1.7c0,1,0.8,1.8,1.8,1.8
			C3047.6-254.9,3048.4-255.7,3048.4-256.7z M3045.3-252.9h7.2v3.8h-1v-3h-6.2V-252.9z M3051.5-255.9v-1.6h-2.3
			c0.1,0.3,0.1,0.5,0.1,0.8c0,0.3,0,0.6-0.1,0.8H3051.5z"/>
		<path class="st7" d="M3061.1-254.3c-1.7,0.3-3.1,0.3-5.1,0.3h-0.9v-3h3.8v-1.4h-3.9v-0.8h4.8v2.9h-3.9v1.5c1.9,0,3.3-0.1,4.9-0.3
			L3061.1-254.3z M3063.2-251.1c0,1.2-1.4,2-3.5,2c-2.2,0-3.5-0.7-3.5-2c0-1.2,1.3-2,3.5-2C3061.8-253,3063.2-252.3,3063.2-251.1z
			 M3062.2-251.1c0-0.8-1-1.2-2.6-1.2c-1.6,0-2.6,0.4-2.6,1.2c0,0.8,1,1.2,2.6,1.2C3061.2-249.9,3062.2-250.3,3062.2-251.1z
			 M3063-257.4v1.5h1.6v0.8h-1.6v1.8h-1v-6.5h1v1.7h1.6v0.8H3063z"/>
		<path class="st7" d="M3075.5-255.2v0.8h-9.7v-0.8H3075.5z M3066.8-257.8c0-1.2,1.4-1.9,3.8-1.9c2.4,0,3.8,0.7,3.8,1.9
			c0,1.2-1.4,1.9-3.8,1.9C3068.2-256,3066.8-256.6,3066.8-257.8z M3067.9-250h6.6v0.8h-7.6v-2.6h6.3v-1h-6.3v-0.7h7.3v2.4h-6.3V-250
			z M3067.8-257.8c0,0.7,1,1.1,2.8,1.1c1.8,0,2.8-0.4,2.8-1.1s-1-1.1-2.8-1.1C3068.8-258.9,3067.8-258.5,3067.8-257.8z"/>
		<path class="st7" d="M3086.2-254.2c-2.3,0.4-4.8,0.4-6.7,0.4l-0.1-0.7c0.8,0,1.8,0,2.9,0v-0.7c-1.2-0.1-2-0.6-2-1.4
			c0-0.9,1-1.4,2.5-1.4c1.5,0,2.5,0.5,2.5,1.4c0,0.8-0.8,1.3-2,1.4v0.6c1,0,2-0.1,2.9-0.3L3086.2-254.2z M3085.9-258.3h-6.2v-0.7
			h2.6v-0.9h1v0.9h2.6V-258.3z M3081.8-249.9h6.4v0.7h-7.3v-2.3h6v-0.8h-6v-0.7h7v2.2h-6V-249.9z M3082.8-255.8c1,0,1.6-0.3,1.6-0.8
			c0-0.5-0.6-0.8-1.6-0.8c-1,0-1.6,0.3-1.6,0.8C3081.2-256.1,3081.8-255.8,3082.8-255.8z M3089.4-257.1v0.8h-1.6v2.8h-1v-6.4h1v2.7
			H3089.4z"/>
		<path class="st7" d="M3100.2-254.5v0.8h-9.7v-0.8h2.4v-1.5c-0.9-0.3-1.3-0.9-1.3-1.6c0-1.3,1.5-2,3.8-2c2.3,0,3.8,0.7,3.8,2
			c0,0.7-0.5,1.3-1.3,1.6v1.5H3100.2z M3099-251c0,1.2-1.4,1.9-3.7,1.9c-2.3,0-3.7-0.7-3.7-1.9s1.4-1.9,3.7-1.9
			C3097.7-253,3099-252.3,3099-251z M3095.4-256.4c1.7,0,2.8-0.5,2.8-1.2c0-0.8-1.1-1.2-2.8-1.2c-1.7,0-2.8,0.5-2.8,1.2
			C3092.6-256.9,3093.6-256.4,3095.4-256.4z M3098-251c0-0.7-1-1.2-2.7-1.2c-1.7,0-2.7,0.4-2.7,1.2s1,1.2,2.7,1.2
			C3097-249.9,3098-250.3,3098-251z M3093.9-254.5h3v-1.3c-0.4,0.1-0.9,0.1-1.5,0.1c-0.5,0-1,0-1.5-0.1V-254.5z"/>
		<path class="st7" d="M3107.9-257.8h-6.3v-0.8h2.7v-1.3h1v1.3h2.7V-257.8z M3104.7-253.2c-1.5,0-2.6-0.8-2.6-2c0-1.2,1-2,2.6-2
			s2.6,0.8,2.6,2C3107.3-254,3106.3-253.2,3104.7-253.2z M3104.7-253.9c1,0,1.6-0.5,1.6-1.2c0-0.7-0.7-1.2-1.6-1.2s-1.6,0.5-1.6,1.2
			C3103.1-254.4,3103.8-253.9,3104.7-253.9z M3104.2-250.2h6.2v0.8h-7.2v-3.1h1V-250.2z M3111.5-256.3v0.8h-1.6v3.7h-1v-8.1h1v3.5
			H3111.5z"/>
		<path class="st7" d="M3121.2-253.7c-1.2-0.5-2.2-1.4-2.7-2.7c-0.5,1.3-1.4,2.4-2.7,2.9l-0.5-0.8c1.6-0.6,2.7-2.2,2.7-3.9v-1.1h1
			v1.1c0,1.6,1.1,3.1,2.7,3.7L3121.2-253.7z M3124.4-250.2v0.8h-7.2v-3.4h1v2.6H3124.4z M3124.1-252h-1v-7.9h1V-252z"/>
		<path class="st7" d="M3129.5-257c0,2,0.8,3.7,2.3,4.5l-0.6,0.8c-1.1-0.6-1.8-1.6-2.2-2.9c-0.4,1.5-1.1,2.6-2.2,3.3l-0.6-0.7
			c1.5-0.9,2.3-2.7,2.3-4.9v-0.8h-2.1v-0.8h5v0.8h-2V-257z M3135.5-259.9v10.8h-0.9v-5.6h-1.4v5.1h-0.9v-10h0.9v4.1h1.4v-4.4H3135.5
			z"/>
		<path class="st7" d="M3142.2-254.1c-1-0.4-1.7-1.2-2.1-2.1c-0.4,1-1.2,1.9-2.2,2.4l-0.5-0.8c1.4-0.6,2.2-2,2.2-3.2v-1.5h0.9v1.5
			c0,1.2,0.8,2.4,2.2,2.9L3142.2-254.1z M3146.5-251.1c0,1.2-1.4,1.9-3.6,1.9c-2.2,0-3.6-0.7-3.6-1.9c0-1.2,1.4-1.9,3.6-1.9
			C3145.1-253,3146.5-252.3,3146.5-251.1z M3145.5-251.1c0-0.7-1-1.2-2.6-1.2c-1.6,0-2.6,0.4-2.6,1.2c0,0.7,1,1.2,2.6,1.2
			C3144.5-249.9,3145.5-250.3,3145.5-251.1z M3144.1-253.6h-0.9v-6.1h0.9v2.7h1.4v-2.9h0.9v6.6h-0.9v-3h-1.4V-253.6z"/>
	</g>
	<g class="st1">
		<path class="st7" d="M3060.8-241.6h0.9v10h-0.9v-5.2h-1.4c-0.1,2.1-1,3.4-2.3,3.4c-1.4,0-2.3-1.4-2.3-3.8c0-2.3,0.9-3.7,2.3-3.7
			c1.3,0,2.2,1.3,2.3,3.3h1.4V-241.6z M3058.5-237.2c0-1.7-0.6-2.8-1.4-2.8c-0.9,0-1.4,1.1-1.4,2.8c0,1.8,0.5,2.9,1.4,2.9
			C3058-234.4,3058.5-235.5,3058.5-237.2z M3063.8-241.9v10.8h-0.9v-10.8H3063.8z"/>
		<path class="st7" d="M3067.3-234.5c1.6,0,3.1-0.1,4.6-0.4l0.1,0.8c-1.7,0.3-3.2,0.4-4.9,0.4h-0.8v-7h1V-234.5z M3074.6-241.9v10.8
			h-1v-6.4h-3.3v-0.8h3.3v-3.5H3074.6z"/>
		<path class="st7" d="M3080.6-238.6c0,1.8,1.3,3.7,2.9,4.4l-0.6,0.8c-1.2-0.6-2.3-1.8-2.8-3.3c-0.5,1.6-1.5,2.9-2.8,3.5l-0.6-0.8
			c1.5-0.7,2.9-2.8,2.9-4.6v-1.4h-2.5v-0.8h6v0.8h-2.5V-238.6z M3085.6-241.9v10.7h-1v-10.7H3085.6z"/>
		<path class="st7" d="M3095.9-236.7h-5v-4.7h1v1.5h3v-1.5h1V-236.7z M3095-239.1h-3v1.6h3V-239.1z M3093-232h6.2v0.8h-7.2v-2.7h5.8
			v-1.1h-5.9v-0.8h6.8v2.6h-5.8V-232z M3100.4-239.6v0.8h-1.6v2.4h-1v-5.6h1v2.3H3100.4z"/>
		<path class="st7" d="M3107.4-235.6c-1.2-0.4-2.1-1.3-2.6-2.4c-0.5,1.2-1.5,2.2-2.7,2.7l-0.5-0.8c1.6-0.6,2.7-2,2.7-3.5v-0.5h-2.4
			v-0.8h5.7v0.8h-2.4v0.5c0,1.4,1.1,2.7,2.6,3.3L3107.4-235.6z M3110.7-232.2v0.8h-7.2v-3.3h1v2.5H3110.7z M3109.4-238.9v-3h1v7.9
			h-1v-4.1h-2.2v-0.8H3109.4z"/>
		<path class="st7" d="M3118.3-236.1c-1.1,0-2.1,0.1-3,0.1l-0.1-0.8c2,0,4.7,0,6.9-0.3l0.1,0.7c-0.9,0.1-1.9,0.3-2.9,0.3v2.1h-1
			V-236.1z M3116.1-239.6c0-1.1,1.1-1.9,2.7-1.9c1.6,0,2.7,0.7,2.7,1.9c0,1.2-1.1,1.9-2.7,1.9
			C3117.1-237.7,3116.1-238.4,3116.1-239.6z M3124.4-232.2v0.8h-7.6v-3.1h1v2.3H3124.4z M3117-239.6c0,0.7,0.7,1.2,1.7,1.2
			s1.7-0.5,1.7-1.2c0-0.7-0.7-1.1-1.7-1.1S3117-240.3,3117-239.6z M3123.1-235.5v-6.4h1v8.2h-1v-1.1h-2.2v-0.7H3123.1z"/>
		<path class="st7" d="M3127.9-234.5c1.8,0,3.3-0.1,5.2-0.4l0.1,0.8c-1.9,0.3-3.6,0.4-5.4,0.4h-0.9v-4.1h4v-2.2h-4v-0.8h5v3.8h-4
			V-234.5z M3135.1-241.9v10.8h-1v-10.8H3135.1z"/>
	</g>
	<g class="st1">
		<path class="st7" d="M3067.9-221.9h-6.3v-0.8h2.7v-1.2h1v1.2h2.7V-221.9z M3064.8-217.5c-1.5,0-2.6-0.8-2.6-1.9
			c0-1.2,1-1.9,2.6-1.9c1.5,0,2.6,0.8,2.6,1.9C3067.3-218.3,3066.3-217.5,3064.8-217.5z M3062.9-216.6h7v3.5h-1v-2.7h-6V-216.6z
			 M3064.8-218.3c1,0,1.6-0.5,1.6-1.2c0-0.7-0.7-1.2-1.6-1.2s-1.6,0.5-1.6,1.2C3063.1-218.7,3063.8-218.3,3064.8-218.3z
			 M3071.5-220.1h-1.6v2.9h-1v-6.7h1v3h1.6V-220.1z"/>
		<path class="st7" d="M3082.3-219v0.8h-9.7v-0.8H3082.3z M3081.4-219.7c-1.7-0.3-3.3-1.1-3.9-2.3c-0.7,1.2-2.3,2-4,2.3l-0.4-0.8
			c1.9-0.2,3.8-1.4,3.8-2.8v-0.5h1v0.5c0,1.3,1.9,2.5,3.8,2.8L3081.4-219.7z M3080.1-217.4h1v4.2h-7.2v-4.2h1v1.3h5.3V-217.4z
			 M3080.1-215.4h-5.3v1.4h5.3V-215.4z"/>
		<path class="st7" d="M3089.3-222.7c0,3.1-1.4,5.8-5,7.6l-0.5-0.8c2.9-1.4,4.3-3.4,4.5-6h-4v-0.8H3089.3z M3092.5-223.9v10.8h-1
			v-10.8H3092.5z"/>
		<path class="st7" d="M3098.7-216.1c1,0,2.1-0.1,3-0.3l0.1,0.7c-2.4,0.4-5,0.4-7,0.4l-0.1-0.8c0.9,0,1.9,0,3,0v-1.2
			c-1.3-0.2-2.1-0.9-2.1-2c0-1.2,1.1-2,2.6-2s2.6,0.8,2.6,2c0,1.1-0.8,1.8-2.1,2V-216.1z M3101.5-221.8h-6.5v-0.8h2.8v-1.3h1v1.3
			h2.8V-221.8z M3098.2-217.9c1,0,1.6-0.5,1.6-1.2c0-0.8-0.7-1.2-1.6-1.2c-1,0-1.7,0.5-1.7,1.2
			C3096.6-218.4,3097.3-217.9,3098.2-217.9z M3103.4-223.9v10.8h-1v-10.8H3103.4z"/>
		<path class="st7" d="M3111.6-220.8c0,1.9,0.8,3.7,2.3,4.6l-0.6,0.7c-1-0.6-1.8-1.8-2.2-3.1c-0.4,1.5-1.2,2.7-2.2,3.4l-0.6-0.7
			c1.5-0.9,2.3-2.9,2.3-4.8v-1h-2v-0.8h4.9v0.8h-1.9V-220.8z M3114.4-223.6h0.9v10h-0.9v-5.5h-1.8v-0.8h1.8V-223.6z M3117.5-223.9
			v10.8h-0.9v-10.8H3117.5z"/>
		<path class="st7" d="M3129.2-218.9v0.8h-9.7v-0.8h4v-2.1h1v2.1H3129.2z M3128-215.1c0,1.2-1.5,2-3.8,2c-2.3,0-3.7-0.7-3.7-2
			c0-1.2,1.5-2,3.7-2C3126.6-217.1,3128-216.3,3128-215.1z M3127-222.5h-6.4v-0.8h7.3v0.9c0,0.9,0,1.7-0.3,2.8l-1-0.1
			c0.3-1.1,0.3-1.9,0.3-2.7V-222.5z M3127-215.1c0-0.8-1.1-1.2-2.8-1.2c-1.7,0-2.8,0.5-2.8,1.2c0,0.7,1.1,1.2,2.8,1.2
			C3126-213.9,3127-214.3,3127-215.1z"/>
	</g>
	<rect id="사각형_389" x="3172" y="-469.1" class="st2" width="138.3" height="129.1"/>
	<g class="st1">
		<path class="st0" d="M3233.4-370.4v1.2H3222v-1.2h4.5v-2.3h1.5v2.3H3233.4z M3232-365.9c0,1.5-1.7,2.4-4.4,2.4
			c-2.7,0-4.5-0.9-4.5-2.4c0-1.5,1.7-2.4,4.5-2.4C3230.3-368.3,3232-367.4,3232-365.9z M3230.2-371.3c0.3-1.2,0.3-2.2,0.3-3.1h-7.3
			v-1.2h8.7v1.1c0,1,0,2.1-0.4,3.4L3230.2-371.3z M3230.6-365.9c0-0.8-1.1-1.2-3-1.2c-1.9,0-3,0.5-3,1.2c0,0.8,1.1,1.3,3,1.3
			C3229.5-364.7,3230.6-365.1,3230.6-365.9z"/>
		<path class="st0" d="M3242.1-369.1c-1.4-0.5-2.4-1.5-2.9-2.7c-0.6,1.4-1.6,2.5-3.1,3l-0.7-1.1c2-0.7,3.1-2.4,3.1-4.1v-0.2h-2.7
			v-1.2h6.8v1.2h-2.6v0.2c0,1.6,1.1,3.2,3,3.8L3242.1-369.1z M3245.8-365.9c0,1.5-1.6,2.4-4.3,2.4c-2.6,0-4.3-0.9-4.3-2.4
			c0-1.5,1.6-2.4,4.3-2.4C3244.2-368.3,3245.8-367.4,3245.8-365.9z M3244.4-365.9c0-0.8-1-1.3-2.8-1.3c-1.8,0-2.8,0.4-2.8,1.3
			s1,1.3,2.8,1.3C3243.3-364.7,3244.4-365.1,3244.4-365.9z M3244.3-373v-3.2h1.4v7.5h-1.4v-3.2h-2.2v-1.2H3244.3z"/>
		<path class="st0" d="M3255.3-369.3c-1.4-0.5-2.3-1.4-2.9-2.7c-0.6,1.4-1.6,2.5-3.2,3.1l-0.8-1.2c2-0.7,3.1-2.4,3.1-4.2v-1.2h1.5
			v1.2c0,1.8,1.1,3.3,3,4L3255.3-369.3z M3259.1-366c0,1.5-1.6,2.4-4.3,2.4c-2.6,0-4.3-0.9-4.3-2.4s1.6-2.4,4.3-2.4
			C3257.5-368.4,3259.1-367.5,3259.1-366z M3257.7-366c0-0.8-1-1.3-2.8-1.3s-2.8,0.5-2.8,1.3s1,1.3,2.8,1.3S3257.7-365.2,3257.7-366
			z M3257.6-372.5h-2.6v-1.2h2.6v-2.5h1.4v7.5h-1.4V-372.5z"/>
	</g>
	<g id="그룹_5031" transform="translate(3209 -447.845)">
		<rect id="사각형_304" y="0" class="st2" width="65.3" height="65.3"/>
		<path id="패스_1746" class="st0" d="M20.3,54.1v-0.4c0.1-2.3,2-4.1,4.3-4.1h6.2V20.8l-0.2-0.1c-1.3-0.7-2.2-1.9-2.5-3.4
			l-0.1-0.4H17.7l4.5,9.4c0,0.1,0,0.1,0,0.2v0.4h-1v-0.2l-4.3-9.1l-4.2,8.9l0,0.4h-1v-0.4c0-0.1,0-0.1,0-0.2l4.5-9.4h-2.4V16h14.1
			l0.1-0.4c0.5-2.5,2.7-4.2,5.2-4.2c2.5,0,4.7,1.7,5.2,4.2l0.1,0.4h14.1v0.9H50l4.5,9.4c0,0.1,0,0.1,0,0.2v0.4h-1v-0.2l-4.3-9.1
			l-4.2,8.9l0,0.4h-1v-0.4c0-0.1,0-0.1,0-0.2l4.5-9.4H38.3l-0.1,0.4c-0.3,1.4-1.2,2.7-2.5,3.4l-0.2,0.1v28.8h6.2
			c2.3,0,4.2,1.8,4.3,4.1v0.4H20.3z M24.6,50.5c-1.4,0-2.6,0.9-3.1,2.1l-0.3,0.6H45l-0.3-0.6c-0.5-1.2-1.7-2.1-3.1-2.1L24.6,50.5z
			 M31.7,49.6h2.8V21.2L34,21.3c-0.1,0-0.2,0-0.3,0.1c-0.2,0.1-0.4,0.1-0.6,0.1c-0.2,0-0.4,0-0.5-0.1c-0.1,0-0.2-0.1-0.4-0.1
			l-0.5-0.1V49.6z M33.1,12.4c-2.3,0-4.2,1.8-4.3,4.1c0.1,2.3,2,4.1,4.3,4.1c2.3,0,4.2-1.8,4.3-4.1C37.3,14.2,35.4,12.3,33.1,12.4
			 M49.3,36.9c-3.8,0.1-7-2.8-7.1-6.7c0,0,0-0.1,0-0.1v-0.4h14.3v0.4c-0.1,3.8-3.2,6.9-7,6.8C49.4,36.9,49.3,36.9,49.3,36.9
			 M43.2,31.1c0.6,2.9,3.1,5,6.1,4.9c3,0.1,5.5-2,6.1-4.9l0.1-0.5H43.1L43.2,31.1z M16.9,36.9c-3.8,0.1-7-2.8-7.1-6.7
			c0,0,0-0.1,0-0.1v-0.4h14.3v0.4c-0.1,3.8-3.2,6.9-7,6.8C17,36.9,17,36.9,16.9,36.9 M10.9,31.1c0.6,2.9,3.1,5,6.1,4.9
			c3,0.1,5.5-2,6.1-4.9l0.1-0.5H10.8L10.9,31.1z M33.1,17.8c-0.8,0-1.4-0.6-1.4-1.4c0-0.8,0.7-1.4,1.4-1.4c0.8,0,1.4,0.6,1.4,1.4
			C34.5,17.2,33.9,17.9,33.1,17.8"/>
	</g>
	<rect id="사각형_392" x="3172" y="-332.4" class="st2" width="138.3" height="141.6"/>
	<g class="st1">
		<path class="st0" d="M3220.7-313.8c2,0,3.8,1,4.5,2.9h-1.9c-0.5-1-1.4-1.5-2.6-1.5c-1.9,0-3.3,1.4-3.3,3.6s1.4,3.6,3.3,3.6
			c1.2,0,2.1-0.5,2.6-1.5h1.9c-0.7,1.9-2.5,2.9-4.5,2.9c-2.7,0-5-2-5-5C3215.7-311.7,3217.9-313.8,3220.7-313.8z"/>
		<path class="st0" d="M3234.1-303.9h-1.6v-0.9c-0.5,0.7-1.4,1-2.3,1c-1.8,0-3.2-1.1-3.2-3.3v-4.5h1.6v4.3c0,1.4,0.8,2.1,1.9,2.1
			c1.2,0,1.9-0.7,1.9-2.1v-4.3h1.6V-303.9z"/>
		<path class="st0" d="M3236.2-314.3h1.6v10.4h-1.6V-314.3z"/>
		<path class="st0" d="M3240.1-310.3h-0.9v-1.3h0.9v-1.9h1.6v1.9h1.9v1.3h-1.9v4.3c0,0.6,0.2,0.8,0.9,0.8h1v1.3h-1.3
			c-1.4,0-2.2-0.6-2.2-2.1V-310.3z"/>
		<path class="st0" d="M3252-303.9h-1.6v-0.9c-0.5,0.7-1.4,1-2.3,1c-1.8,0-3.2-1.1-3.2-3.3v-4.5h1.6v4.3c0,1.4,0.8,2.1,1.9,2.1
			c1.2,0,1.9-0.7,1.9-2.1v-4.3h1.6V-303.9z"/>
		<path class="st0" d="M3255.7-303.9h-1.6v-7.7h1.6v1.1c0.4-0.8,1.2-1.2,2.3-1.2v1.7h-0.4c-1.2,0-1.9,0.5-1.9,2.1V-303.9z"/>
		<path class="st0" d="M3262.8-303.8c-2.2,0-3.9-1.6-3.9-4c0-2.4,1.6-4,3.9-4c2.2,0,3.8,1.5,3.8,3.8c0,0.3,0,0.5-0.1,0.8h-5.9
			c0.1,1.3,1,2,2.2,2c1,0,1.5-0.5,1.8-1.1h1.7C3265.9-304.9,3264.7-303.8,3262.8-303.8z M3260.7-308.5h4.3c0-1.2-1-1.9-2.2-1.9
			C3261.7-310.4,3260.8-309.7,3260.7-308.5z"/>
	</g>
	<path id="패스_2770" class="st6" d="M3193.6-290.8h95.2"/>
	<g class="st1">
		<path class="st7" d="M3211.6-272.4v0.8h-4.3v2.2h-1v-2.2h-4.5v-0.8H3211.6z M3204-268.2h6.5v0.8h-7.4v-3.1h1V-268.2z
			 M3210.3-273.6h-7.2v-3.8h7.2V-273.6z M3209.3-276.6h-5.3v2.2h5.3V-276.6z"/>
		<path class="st7" d="M3216.6-270.1c1,0,2-0.1,2.9-0.3l0.1,0.7c-2.3,0.4-4.8,0.4-6.7,0.4l-0.1-0.8c0.9,0,1.9,0,2.9,0v-1.2
			c-1.2-0.2-2.1-0.9-2.1-2c0-1.2,1-2,2.5-2s2.5,0.8,2.5,2c0,1.1-0.8,1.8-2.1,2V-270.1z M3219.3-275.8h-6.4v-0.8h2.7v-1.3h1v1.3h2.7
			V-275.8z M3216.1-271.9c1,0,1.6-0.5,1.6-1.2s-0.6-1.2-1.6-1.2s-1.6,0.5-1.6,1.2S3215.2-271.9,3216.1-271.9z M3222.8-272.5h-1.7
			v5.4h-1v-10.8h1v4.6h1.7V-272.5z"/>
		<path class="st7" d="M3227-274.6c0,1.7,0.9,3.5,2.3,4.3l-0.6,0.7c-1-0.6-1.8-1.7-2.2-3c-0.4,1.4-1.1,2.6-2.2,3.2l-0.6-0.7
			c1.5-0.9,2.3-2.7,2.3-4.5v-0.5h-2v-0.8h2v-1.6h0.9v1.6h2v0.8h-2V-274.6z M3229.9-277.6h0.9v9.9h-0.9v-5.1h-1.6v-0.8h1.6V-277.6z
			 M3233-277.9v10.7h-0.9v-10.7H3233z"/>
		<path class="st7" d="M3241.2-276h-6.2v-0.8h2.6v-1.2h1v1.2h2.6V-276z M3238.1-271.6c-1.5,0-2.5-0.8-2.5-1.9s1-1.9,2.5-1.9
			c1.5,0,2.5,0.8,2.5,1.9S3239.5-271.6,3238.1-271.6z M3238.1-272.3c0.9,0,1.6-0.5,1.6-1.2c0-0.7-0.6-1.2-1.6-1.2
			c-0.9,0-1.6,0.5-1.6,1.2C3236.5-272.8,3237.2-272.3,3238.1-272.3z M3236.8-270.8h7v3.5h-7V-270.8z M3237.8-268h5.1v-2h-5.1V-268z
			 M3243.8-277.9v6.5h-1v-2.4h-1.8v-0.8h1.8v-3.3H3243.8z"/>
		<path class="st7" d="M3254.3-276.7c0,3.1-1.4,5.8-5,7.6l-0.5-0.8c2.9-1.4,4.3-3.4,4.5-6h-4v-0.8H3254.3z M3257.5-277.9v10.8h-1
			v-10.8H3257.5z"/>
		<path class="st7" d="M3263.8-270.1c1,0,2.1-0.1,3-0.3l0.1,0.7c-2.4,0.4-5,0.4-7,0.4l-0.1-0.8c0.9,0,1.9,0,3,0v-1.2
			c-1.3-0.2-2.1-0.9-2.1-2c0-1.2,1.1-2,2.6-2s2.6,0.8,2.6,2c0,1.1-0.8,1.8-2.1,2V-270.1z M3266.5-275.8h-6.5v-0.8h2.8v-1.3h1v1.3
			h2.8V-275.8z M3263.3-271.9c1,0,1.6-0.5,1.6-1.2c0-0.8-0.7-1.2-1.6-1.2c-1,0-1.7,0.5-1.7,1.2
			C3261.6-272.4,3262.3-271.9,3263.3-271.9z M3268.5-277.9v10.8h-1v-10.8H3268.5z"/>
		<path class="st7" d="M3276.2-276.7c0,3.1-1.4,5.8-4.9,7.6l-0.5-0.8c2.7-1.4,4.2-3.4,4.4-6h-3.9v-0.8H3276.2z M3280.7-272.7h-1.7
			v5.6h-1v-10.8h1v4.4h1.7V-272.7z"/>
	</g>
	<g class="st1">
		<path class="st7" d="M3206.1-252.7h-4.4v3.6h-1v-3.6h-4.4v-0.8h9.8V-252.7z M3204.8-254.8h-7.3v-4.7h1v1.5h5.3v-1.5h1V-254.8z
			 M3203.8-257.2h-5.3v1.6h5.3V-257.2z"/>
		<path class="st7" d="M3217.1-254.5v0.8h-9.8v-0.8h4.4v-1.6h1v1.6H3217.1z M3207.9-256.3c1.9-0.2,3.6-1.2,3.7-2.4h-3.3v-0.8h8v0.8
			h-3.3c0.1,1.2,1.8,2.2,3.7,2.4l-0.3,0.8c-1.8-0.2-3.4-1-4-2.2c-0.6,1.2-2.2,2-4,2.2L3207.9-256.3z M3208.4-252.6h7.4v3.5h-1v-2.7
			h-6.5V-252.6z"/>
		<path class="st7" d="M3224.8-257.8h-6.3v-0.8h2.7v-1.3h1v1.3h2.7V-257.8z M3221.6-253.2c-1.5,0-2.6-0.8-2.6-2c0-1.2,1-2,2.6-2
			s2.6,0.8,2.6,2C3224.2-254,3223.1-253.2,3221.6-253.2z M3221.6-253.9c1,0,1.6-0.5,1.6-1.2c0-0.7-0.7-1.2-1.6-1.2s-1.6,0.5-1.6,1.2
			C3220-254.4,3220.6-253.9,3221.6-253.9z M3221-250.2h6.2v0.8h-7.2v-3.1h1V-250.2z M3228.3-256.3v0.8h-1.6v3.7h-1v-8.1h1v3.5
			H3228.3z"/>
		<path class="st7" d="M3235.9-256.6c0,1.8,1.3,3.7,2.9,4.4l-0.6,0.8c-1.2-0.6-2.3-1.8-2.8-3.3c-0.5,1.6-1.5,2.9-2.8,3.5l-0.6-0.8
			c1.5-0.7,2.9-2.8,2.9-4.6v-1.4h-2.5v-0.8h6v0.8h-2.5V-256.6z M3240.9-259.9v10.7h-1v-10.7H3240.9z"/>
		<path class="st7" d="M3252-259.9v6.3h-1v-1.5h-2.7c-0.5,0.6-1.3,1-2.2,1c-1.6,0-2.8-1.1-2.8-2.6c0-1.5,1.2-2.6,2.8-2.6
			c0.9,0,1.7,0.4,2.2,1h2.7v-1.6L3252-259.9z M3247.9-256.7c0-1-0.8-1.7-1.8-1.7c-1,0-1.8,0.7-1.8,1.7c0,1,0.8,1.8,1.8,1.8
			C3247.1-254.9,3247.9-255.7,3247.9-256.7z M3244.8-252.9h7.2v3.8h-1v-3h-6.2V-252.9z M3251-255.9v-1.6h-2.3
			c0.1,0.3,0.1,0.5,0.1,0.8c0,0.3,0,0.6-0.1,0.8H3251z"/>
		<path class="st7" d="M3257.8-257c0,1.9,1.2,3.8,2.7,4.6l-0.6,0.8c-1.1-0.6-2.1-1.9-2.6-3.3c-0.5,1.6-1.5,2.9-2.7,3.6l-0.6-0.8
			c1.5-0.8,2.8-2.9,2.8-4.8v-1.9h1V-257z M3264.2-254.7h-1.8v5.6h-1v-10.7h1v4.4h1.8V-254.7z"/>
		<path class="st7" d="M3269.3-252.1c1,0,2.1-0.1,3-0.3l0.1,0.7c-2.4,0.4-5,0.4-7,0.4l-0.1-0.8c0.9,0,1.9,0,3,0v-1.2
			c-1.3-0.2-2.1-0.9-2.1-2c0-1.2,1.1-2,2.6-2s2.6,0.8,2.6,2c0,1.1-0.8,1.8-2.1,2V-252.1z M3272.1-257.8h-6.5v-0.8h2.8v-1.3h1v1.3
			h2.8V-257.8z M3268.8-253.9c1,0,1.6-0.5,1.6-1.2c0-0.8-0.7-1.2-1.6-1.2c-1,0-1.7,0.5-1.7,1.2
			C3267.1-254.4,3267.8-253.9,3268.8-253.9z M3274-259.9v10.8h-1v-10.8H3274z"/>
		<path class="st7" d="M3286-254.9v0.7h-9.8v-0.7H3286z M3278.4-250h6.7v0.7h-7.7v-2.4h6.4v-0.9h-6.4v-0.7h7.4v2.3h-6.4V-250z
			 M3283.8-258.9h-6.3v-0.7h7.3v2.2h-6.3v0.9h6.5v0.7h-7.4v-2.3h6.3V-258.9z"/>
	</g>
	<g class="st1">
		<path class="st7" d="M3208.7-234.6c1.4,0,2.5-0.1,3.6-0.3l0.1,0.8c-1.3,0.3-2.4,0.3-4,0.3h-0.7v-6.8h4v0.8h-3V-234.6z
			 M3216.5-241.9v10.8h-0.9v-5.6h-1.5v5.1h-0.9v-10h0.9v4.1h1.5v-4.3H3216.5z"/>
		<path class="st7" d="M3224.1-236c-1.2-0.4-2.1-1.3-2.6-2.4c-0.4,1.3-1.4,2.2-2.7,2.7l-0.5-0.8c1.6-0.6,2.7-2.1,2.7-3.7v-1.1h1v1.2
			c0,1.5,1.1,2.8,2.6,3.3L3224.1-236z M3226.8-233.1c0,1.2-1.4,2-3.5,2c-2.2,0-3.6-0.7-3.6-2c0-1.3,1.4-2,3.6-2
			C3225.5-235,3226.8-234.3,3226.8-233.1z M3225.9-233.1c0-0.8-1-1.2-2.6-1.2c-1.6,0-2.6,0.4-2.6,1.2c0,0.7,1,1.2,2.6,1.2
			C3224.9-231.9,3225.9-232.3,3225.9-233.1z M3228.3-239.1v0.8h-1.6v2.9h-1v-6.5h1v2.8H3228.3z"/>
		<path class="st7" d="M3239.2-233.4v0.8h-9.8v-0.8H3239.2z M3238.2-238.2c0,1.8-1.7,3-3.9,3c-2.2,0-3.9-1.2-3.9-3
			c0-1.8,1.7-3,3.9-3C3236.5-241.2,3238.2-240,3238.2-238.2z M3231.3-238.2c0,1.3,1.3,2.2,3,2.2c1.7,0,3-0.9,3-2.2
			c0-1.3-1.3-2.2-3-2.2C3232.6-240.4,3231.3-239.5,3231.3-238.2z"/>
		<path class="st7" d="M3250.2-233.2v0.8h-9.8v-0.8h4.4v-2h-3.2v-3.3h6.4v-1.7h-6.4v-0.8h7.4v3.3h-6.4v1.7h6.6v0.8h-3.4v2H3250.2z"
			/>
		<path class="st7" d="M3263.9-236.4v0.8h-4.3v2.2h-1v-2.2h-4.5v-0.8H3263.9z M3256.4-232.2h6.5v0.8h-7.4v-3.1h1V-232.2z
			 M3262.7-237.6h-7.2v-3.8h7.2V-237.6z M3261.7-240.6h-5.3v2.2h5.3V-240.6z"/>
		<path class="st7" d="M3269-234.1c1,0,2-0.1,2.9-0.3l0.1,0.7c-2.3,0.4-4.8,0.4-6.7,0.4l-0.1-0.8c0.9,0,1.9,0,2.9,0v-1.2
			c-1.2-0.2-2.1-0.9-2.1-2c0-1.2,1-2,2.5-2s2.5,0.8,2.5,2c0,1.1-0.8,1.8-2.1,2V-234.1z M3271.7-239.8h-6.4v-0.8h2.7v-1.3h1v1.3h2.7
			V-239.8z M3268.5-235.9c1,0,1.6-0.5,1.6-1.2s-0.6-1.2-1.6-1.2s-1.6,0.5-1.6,1.2S3267.6-235.9,3268.5-235.9z M3275.2-236.5h-1.7
			v5.4h-1v-10.8h1v4.6h1.7V-236.5z"/>
	</g>
	<g class="st1">
		<path class="st7" d="M3218.7-218.1c-1.2-0.4-2.1-1.3-2.6-2.4c-0.5,1.2-1.4,2.2-2.7,2.7l-0.5-0.8c1.6-0.6,2.7-2,2.7-3.5v-0.3h-2.4
			v-0.8h5.7v0.8h-2.4v0.3c0,1.4,1.1,2.7,2.6,3.3L3218.7-218.1z M3220.7-217.5h1v4.3h-6.9v-4.3h1v1.3h4.9V-217.5z M3220.7-215.4h-4.9
			v1.4h4.9V-215.4z M3221.7-223.9v5.8h-1v-2.4h-2.1v-0.8h2.1v-2.6H3221.7z"/>
		<path class="st7" d="M3233.7-218.9v0.8h-9.8v-0.8h7.2c0.3-1.5,0.3-2.5,0.3-3.5v0h-6.3v-0.8h7.3v0.8c0,0.9,0,2-0.3,3.5H3233.7z
			 M3226.2-214.2h6.6v0.8h-7.5v-3.5h1V-214.2z"/>
		<path class="st7" d="M3240.7-218c-1.2-0.4-2.1-1.3-2.6-2.4c-0.5,1.3-1.4,2.2-2.7,2.7l-0.5-0.8c1.7-0.6,2.7-2,2.7-3.7v-1.1h1v1.1
			c0,1.5,1,2.9,2.6,3.4L3240.7-218z M3243.8-215.2c0,1.3-1.4,2-3.6,2s-3.6-0.7-3.6-2c0-1.3,1.4-2,3.6-2S3243.8-216.4,3243.8-215.2z
			 M3242.9-215.2c0-0.8-1-1.3-2.6-1.3s-2.6,0.5-2.6,1.3c0,0.8,1,1.2,2.6,1.2S3242.9-214.4,3242.9-215.2z M3242.8-220.8h-2.3v-0.8
			h2.3v-2.3h1v6.4h-1V-220.8z"/>
		<path class="st7" d="M3255.5-217.4c-2.3,0.4-4.8,0.4-6.7,0.4l-0.1-0.8c0.9,0,1.8,0,2.9,0v-0.8c-1.2-0.1-2-0.7-2-1.6
			c0-1,1-1.6,2.5-1.6c1.5,0,2.5,0.6,2.5,1.6c0,0.9-0.8,1.5-2,1.6v0.7c1,0,2-0.1,2.9-0.3L3255.5-217.4z M3255.1-222.1h-6.2v-0.7h2.6
			v-1.1h1v1.1h2.6V-222.1z M3249.9-216.1h7.1v3h-1v-2.2h-6.1V-216.1z M3252-219.2c0.9,0,1.6-0.4,1.6-0.9c0-0.6-0.6-0.9-1.6-0.9
			c-1,0-1.6,0.3-1.6,0.9C3250.4-219.6,3251-219.2,3252-219.2z M3258.6-219.8h-1.6v3.1h-1v-7.2h1v3.2h1.6V-219.8z"/>
		<path class="st7" d="M3261.1-216.6c1.4,0,2.5-0.1,3.6-0.3l0.1,0.8c-1.3,0.3-2.4,0.3-4,0.3h-0.7v-6.8h4v0.8h-3V-216.6z
			 M3268.8-223.9v10.8h-0.9v-5.6h-1.5v5.1h-0.9v-10h0.9v4.1h1.5v-4.3H3268.8z"/>
	</g>
	<rect id="사각형_405" x="3026.1" y="-598.8" class="st2" width="576" height="40.6"/>
	<g class="st1">
		<path class="st0" d="M3233.8-576.6c2,0,4-0.2,6.2-0.6l0.2,1.4c-2.4,0.5-4.7,0.6-6.9,0.6h-1.2v-9.4h1.6V-576.6z M3245-579.1h-2.2
			v7.5h-1.6v-14.5h1.6v5.6h2.2V-579.1z"/>
		<path class="st0" d="M3259.4-576.7h-5.8v5.2h-1.7v-5.2h-5.7v-1.4h13.1V-576.7z M3258-580h-10v-5.3h1.6v4h8.3V-580z"/>
		<path class="st0" d="M3274.2-578.8v1.3H3261v-1.3H3274.2z M3264.3-573.2h8.5v1.3h-10.1v-4.3h1.6V-573.2z M3272.7-580.6h-9.9v-5
			h1.6v3.6h8.3V-580.6z"/>
		<path class="st0" d="M3284.4-582.5c0,2.6,1.3,5.2,3.5,6.3l-1,1.3c-1.6-0.8-2.7-2.4-3.3-4.3c-0.6,2-1.8,3.7-3.5,4.5l-1-1.3
			c2.3-1.1,3.7-3.8,3.7-6.5v-2.4h1.6V-582.5z M3292.8-579h-2.3v7.4h-1.6v-14.5h1.6v5.7h2.3V-579z"/>
		<path class="st0" d="M3299.7-575.7c1.3-0.1,2.6-0.2,3.8-0.3l0.1,1.2c-3.2,0.5-6.6,0.6-9.2,0.6l-0.2-1.4c1.2,0,2.5,0,3.8,0v-1.4
			c-1.6-0.3-2.7-1.2-2.7-2.6c0-1.6,1.4-2.7,3.5-2.7c2.1,0,3.5,1.1,3.5,2.7c0,1.4-1.1,2.4-2.7,2.6V-575.7z M3303.2-583h-8.7v-1.3h3.6
			v-1.6h1.6v1.6h3.5V-583z M3298.9-578.2c1.2,0,2-0.5,2-1.4c0-0.9-0.8-1.4-2-1.4c-1.2,0-2,0.5-2,1.4
			C3296.9-578.8,3297.7-578.2,3298.9-578.2z M3306-586.1v14.5h-1.7v-14.5H3306z"/>
		<path class="st0" d="M3321-583.3h-8.5v-1.3h3.4v-1.5h1.6v1.5h3.4V-583.3z M3316.7-577.5c-2.1,0-3.5-1-3.5-2.6
			c0-1.6,1.4-2.6,3.5-2.6c2.1,0,3.5,1,3.5,2.6C3320.2-578.6,3318.8-577.5,3316.7-577.5z M3314.5-576.6h9.2v4.8h-9.2V-576.6z
			 M3316.7-578.8c1.2,0,1.9-0.5,1.9-1.4c0-0.8-0.8-1.3-1.9-1.3c-1.2,0-1.9,0.5-1.9,1.3C3314.8-579.3,3315.5-578.8,3316.7-578.8z
			 M3316.1-573.1h6v-2.2h-6V-573.1z M3325.8-581h-2v3.6h-1.6v-8.7h1.6v3.7h2V-581z"/>
		<path class="st0" d="M3330.7-584.4c0,3.3-0.4,6.7-2.3,9.5l-1.3-0.7c1.6-2.3,2.1-4.7,2.2-7.5h-1.8v-1.3H3330.7z M3335.3-585.7h1.6
			v13.4h-1.6v-6.9h-1.7c-0.3,1.8-0.9,3.6-2,5.1l-1.3-0.7c1.8-2.5,2.1-5.5,2.2-8.3h-1.3v-1.3h2.7c0,1.2,0,2.6-0.2,3.9h1.6V-585.7z
			 M3339.6-586.1v14.5h-1.6v-14.5H3339.6z"/>
		<path class="st0" d="M3346.9-583.8h3.4v1.3h-8.5v-1.3h3.4v-2h1.6V-583.8z M3349.7-578.1c0,2-1.5,3.4-3.6,3.4
			c-2.1,0-3.6-1.4-3.6-3.4c0-2,1.5-3.4,3.6-3.4C3348.1-581.5,3349.7-580.1,3349.7-578.1z M3348.1-578.1c0-1.2-0.8-2-2-2s-2,0.8-2,2
			s0.8,2,2,2S3348.1-576.9,3348.1-578.1z M3355.3-578.9h-2.2v7.3h-1.7v-14.5h1.7v5.8h2.2V-578.9z"/>
		<path class="st0" d="M3369.7-578.8v1.3h-13.1v-1.3H3369.7z M3359.8-573.2h8.5v1.3h-10.1v-4.3h1.6V-573.2z M3368.2-580.6h-9.9v-5
			h1.6v3.6h8.3V-580.6z"/>
	</g>
	<g class="st1">
		<path class="st0" d="M3375-578.8c0-3.8,2.1-6.1,5.1-6.1s5.1,2.3,5.1,6.1s-2.1,6.1-5.1,6.1S3375-575,3375-578.8z M3383.4-578.8
			c0-2.8-1.3-4.5-3.2-4.5s-3.2,1.7-3.2,4.5c0,2.8,1.3,4.5,3.2,4.5S3383.4-576,3383.4-578.8z"/>
		<path class="st0" d="M3387.1-578.7c0-3.8,2.3-6.1,5.3-6.1c1.5,0,2.6,0.7,3.3,1.5l-1,1.2c-0.6-0.6-1.3-1.1-2.3-1.1
			c-2,0-3.4,1.7-3.4,4.5c0,2.8,1.3,4.5,3.4,4.5c1.1,0,1.9-0.5,2.6-1.2l1,1.2c-0.9,1.1-2.1,1.7-3.7,1.7
			C3389.3-572.6,3387.1-574.8,3387.1-578.7z"/>
		<path class="st0" d="M3398-584.6h1.9v11.8h-1.9V-584.6z"/>
	</g>
	<rect id="사각형_390" x="3318" y="-469.1" class="st2" width="138.3" height="129.1"/>
	<g class="st1">
		<path class="st0" d="M3371.4-372.6c0,2.1,1.3,4.3,3.3,5.1l-0.8,1.1c-1.5-0.6-2.6-2-3.2-3.7c-0.6,1.8-1.7,3.3-3.2,4l-0.8-1.1
			c2-0.9,3.3-3.3,3.3-5.4v-1.2h-2.8v-1.2h7.1v1.2h-2.8V-372.6z M3377.1-376.2v12.6h-1.5v-12.6H3377.1z"/>
		<path class="st0" d="M3391.5-370v1.2H3380v-1.2h5v-1.8h1.4v1.8H3391.5z M3390.3-371.1c-2-0.3-3.7-1.3-4.5-2.6
			c-0.8,1.3-2.5,2.3-4.5,2.6l-0.5-1.1c2.5-0.3,4.3-1.8,4.3-3.3v-0.5h1.5v0.5c0,1.6,1.8,3,4.3,3.3L3390.3-371.1z M3381.3-367.7h8.8
			v4.2h-1.4v-3h-7.3V-367.7z"/>
		<path class="st0" d="M3400.1-369.3c-1.4-0.5-2.3-1.4-2.9-2.7c-0.6,1.4-1.6,2.5-3.2,3.1l-0.8-1.2c2-0.7,3.1-2.4,3.1-4.2v-1.2h1.5
			v1.2c0,1.8,1,3.3,3,4L3400.1-369.3z M3403.9-366c0,1.5-1.6,2.4-4.3,2.4c-2.6,0-4.3-0.9-4.3-2.4s1.6-2.4,4.3-2.4
			C3402.3-368.4,3403.9-367.5,3403.9-366z M3402.5-366c0-0.8-1-1.3-2.8-1.3s-2.8,0.5-2.8,1.3s1,1.3,2.8,1.3S3402.5-365.2,3402.5-366
			z M3402.4-372.5h-2.6v-1.2h2.6v-2.5h1.4v7.5h-1.4V-372.5z"/>
	</g>
	<g id="그룹_5032" transform="translate(3355.59 -447.845)">
		<rect id="사각형_304-2" x="0" y="0" class="st2" width="65.3" height="65.3"/>
		<path id="패스_1747" class="st0" d="M54.8,56.2v-12H39.4v1.5h-0.9v-2.4h17.2v12.8H54.8z M38.6,56.2v-7.5H24.6v1.5h-0.9v-2.4
			h15.7v8.4H38.6z M23.7,56.2v-3H9.8v3H8.9v-3.9h15.7v3.9H23.7z M17.5,44.3c-0.1,0-0.2,0-0.3-0.1L15,41.9c-0.2-0.2-0.2-0.5,0-0.6
			l5.8-5.9l2.2-6.6l0.7-7.8l-3,0.8l-4.4,4.4c-0.1,0.1-0.2,0.1-0.3,0.1c-0.1,0-0.2,0-0.3-0.1L13.5,24c-0.2-0.2-0.2-0.5,0-0.6l5.2-5.2
			c0.1-0.1,0.1-0.1,0.2-0.1l7.9-2.2l0.2,0.9l-7.7,2.1l-4.8,4.8l1.6,1.6l4.1-4.2c0.1-0.1,0.1-0.1,0.2-0.1l5.6-1.4l0.2,0.9l-1.5,0.4
			l-0.8,8.1c0,0,0,0.1,0,0.1l-2.2,6.7c0,0.1-0.1,0.1-0.1,0.2l-5.6,5.7l1.6,1.6l7.7-6.4l2.1-7.1l0.8,0.3L28,30.9l5.2,1.3
			c0.1,0,0.2,0.1,0.3,0.2l4.2,7.1l2.2-1.1l-3.5-7.7L29.2,27c-0.2-0.1-0.3-0.3-0.2-0.5l1.5-5.2c0-0.2,0.2-0.3,0.4-0.3l6.5-0.7
			l4.8-4.8l-1.6-1.6L36.3,18c-0.1,0.1-0.2,0.1-0.3,0.1h-4.9v-0.9h4.7l4.3-4.4c0.1-0.1,0.2-0.1,0.3-0.1c0.1,0,0.2,0,0.3,0.1l2.2,2.2
			c0.2,0.2,0.2,0.5,0,0.6L37.8,21c-0.1,0.1-0.2,0.1-0.3,0.1l-6.3,0.7l-1.4,4.6L37,30c0.1,0,0.2,0.1,0.2,0.2l3.7,8.2
			c0.1,0.2,0,0.5-0.2,0.6l-3,1.5c-0.1,0-0.1,0-0.2,0c-0.2,0-0.3-0.1-0.4-0.2L32.8,33l-5.1-1.3l-1.6,5.5c0,0.1-0.1,0.2-0.1,0.2
			l-8.1,6.7C17.7,44.2,17.6,44.3,17.5,44.3 M30.1,15.9c-1.9,0-3.4-1.5-3.4-3.4c0-1.9,1.5-3.4,3.4-3.4c1.9,0,3.4,1.5,3.4,3.4
			C33.5,14.3,32,15.9,30.1,15.9 M30.1,9.9c-1.4,0-2.5,1.2-2.5,2.6c0,1.4,1.1,2.5,2.5,2.5c1.4,0,2.5-1.1,2.5-2.5
			C32.6,11.1,31.5,9.9,30.1,9.9"/>
	</g>
	<rect id="사각형_393" x="3318" y="-332.4" class="st2" width="138.3" height="141.2"/>
	<g class="st1">
		<path class="st0" d="M3354.5-303.8c-2.7,0-5-2.1-5-5c0-2.9,2.2-5,5-5c2.8,0,5,2.1,5,5C3359.5-305.9,3357.3-303.8,3354.5-303.8z
			 M3354.5-305.2c1.9,0,3.3-1.4,3.3-3.6s-1.4-3.6-3.3-3.6s-3.3,1.4-3.3,3.6S3352.6-305.2,3354.5-305.2z"/>
		<path class="st0" d="M3365.5-313.8c2,0,3.8,1,4.5,2.9h-1.9c-0.5-1-1.4-1.5-2.6-1.5c-1.9,0-3.3,1.4-3.3,3.6s1.4,3.6,3.3,3.6
			c1.2,0,2.1-0.5,2.6-1.5h1.9c-0.7,1.9-2.5,2.9-4.5,2.9c-2.7,0-5-2-5-5C3360.5-311.7,3362.7-313.8,3365.5-313.8z"/>
		<path class="st0" d="M3371.9-313.7h1.6v9.7h-1.6V-313.7z"/>
		<path class="st0" d="M3379.2-313.7h5.7v1.3h-4.1v2.9h3.2v1.3h-3.2v4.3h-1.6V-313.7z"/>
		<path class="st0" d="M3389.5-311.8c1.3,0,2.2,0.6,2.7,1.2v-1.1h1.6v7.7h-1.6v-1.1c-0.5,0.7-1.4,1.3-2.7,1.3c-2,0-3.6-1.6-3.6-4
			C3385.9-310.2,3387.5-311.8,3389.5-311.8z M3389.8-310.4c-1.2,0-2.3,0.9-2.3,2.6c0,1.7,1.1,2.6,2.3,2.6c1.2,0,2.3-0.9,2.3-2.6
			C3392.2-309.4,3391.1-310.4,3389.8-310.4z"/>
		<path class="st0" d="M3406.8-308.2c0-1.4-0.8-2.1-1.9-2.1c-1.2,0-1.9,0.7-1.9,2.1v4.3h-1.6v-4.3c0-1.4-0.8-2.1-1.9-2.1
			c-1.2,0-1.9,0.7-1.9,2.1v4.3h-1.6v-7.7h1.6v0.9c0.5-0.6,1.4-1,2.3-1c1.2,0,2.2,0.5,2.8,1.5c0.5-0.9,1.6-1.5,2.7-1.5
			c1.8,0,3.2,1.1,3.2,3.3v4.6h-1.6V-308.2z"/>
		<path class="st0" d="M3410.2-313.7c0-0.6,0.4-1,1-1c0.6,0,1,0.4,1,1s-0.4,1-1,1C3410.7-312.7,3410.2-313.1,3410.2-313.7z
			 M3410.4-311.6h1.6v7.7h-1.6V-311.6z"/>
		<path class="st0" d="M3414.1-314.3h1.6v10.4h-1.6V-314.3z"/>
		<path class="st0" d="M3423.1-311.6h1.7l-4.7,11.3h-1.7l1.6-3.8l-3-7.6h1.8l2.2,5.9L3423.1-311.6z"/>
	</g>
	<path id="패스_2771" class="st6" d="M3339.6-290.9h95.2"/>
	<g class="st1">
		<path class="st7" d="M3335.2-270.7c1.5,0,3.1-0.1,4.9-0.5l0.1,0.8c-1.8,0.4-3.5,0.5-5.1,0.5h-0.9v-7h1V-270.7z M3343.8-272.8h-1.7
			v5.6h-1v-10.8h1v4.3h1.7V-272.8z"/>
		<path class="st7" d="M3350.2-272.2v1.3h3.2v3.6h-7.3v-3.6h3.1v-1.3h-4.4v-0.8h9.7v0.8H3350.2z M3353.4-274.1h-7.3v-3.5h1v2.7h6.3
			V-274.1z M3352.4-270.1h-5.3v2.1h5.3V-270.1z"/>
		<path class="st7" d="M3368.3-272.4v0.8h-4.3v2.2h-1v-2.2h-4.5v-0.8H3368.3z M3360.8-268.2h6.5v0.8h-7.4v-3.1h1V-268.2z
			 M3367-273.6h-7.2v-3.8h7.2V-273.6z M3366.1-276.6h-5.3v2.2h5.3V-276.6z"/>
		<path class="st7" d="M3373.4-270.1c1,0,2-0.1,2.9-0.3l0.1,0.7c-2.3,0.4-4.8,0.4-6.7,0.4l-0.1-0.8c0.9,0,1.9,0,2.9,0v-1.2
			c-1.2-0.2-2.1-0.9-2.1-2c0-1.2,1-2,2.5-2s2.5,0.8,2.5,2c0,1.1-0.8,1.8-2.1,2V-270.1z M3376.1-275.8h-6.4v-0.8h2.7v-1.3h1v1.3h2.7
			V-275.8z M3372.9-271.9c1,0,1.6-0.5,1.6-1.2s-0.6-1.2-1.6-1.2c-1,0-1.6,0.5-1.6,1.2S3371.9-271.9,3372.9-271.9z M3379.6-272.5
			h-1.7v5.4h-1v-10.8h1v4.6h1.7V-272.5z"/>
		<path class="st7" d="M3390.1-271.4c-2.3,0.4-4.8,0.4-6.7,0.4l-0.1-0.8c0.9,0,1.8,0,2.9,0v-0.8c-1.2-0.1-2-0.7-2-1.6
			c0-1,1-1.6,2.5-1.6c1.5,0,2.5,0.6,2.5,1.6c0,0.9-0.8,1.5-2,1.6v0.7c1,0,2-0.1,2.9-0.3L3390.1-271.4z M3389.7-276.1h-6.2v-0.7h2.6
			v-1.1h1v1.1h2.6V-276.1z M3384.6-270.1h7.1v3h-1v-2.2h-6.1V-270.1z M3386.6-273.2c0.9,0,1.6-0.4,1.6-0.9c0-0.6-0.6-0.9-1.6-0.9
			c-1,0-1.6,0.3-1.6,0.9C3385-273.6,3385.7-273.2,3386.6-273.2z M3393.2-273.8h-1.6v3.1h-1v-7.2h1v3.2h1.6V-273.8z"/>
		<path class="st7" d="M3400.1-271.7c-1.2-0.4-2.1-1.3-2.6-2.5c-0.4,1.3-1.4,2.3-2.7,2.7l-0.5-0.8c1.6-0.6,2.7-2,2.7-3.7v-1.3h1v1.4
			c0,1.5,1.1,2.8,2.7,3.4L3400.1-271.7z M3397-268.2h6.2v0.8h-7.1v-3.3h1V-268.2z M3404.3-274.6v0.8h-1.6v3.8h-1v-8h1v3.3H3404.3z"
			/>
		<path class="st7" d="M3415.1-273.2v0.8h-9.7v-0.8H3415.1z M3406.5-275.8c0-1.2,1.4-1.9,3.8-1.9s3.8,0.7,3.8,1.9
			c0,1.2-1.4,1.9-3.8,1.9S3406.5-274.6,3406.5-275.8z M3407.6-268h6.6v0.8h-7.6v-2.6h6.3v-1h-6.3v-0.7h7.3v2.4h-6.3V-268z
			 M3407.5-275.8c0,0.7,1,1.1,2.8,1.1s2.8-0.4,2.8-1.1s-1-1.1-2.8-1.1S3407.5-276.5,3407.5-275.8z"/>
		<path class="st7" d="M3426.3-271.7c-1,0.2-2.1,0.3-3.1,0.4v3.9h-1v-3.8c-1.1,0-2.1,0.1-3,0.1l-0.1-0.8c2,0,4.7,0,7.1-0.4
			L3426.3-271.7z M3419.9-275.1c0-1.3,1.1-2.2,2.7-2.2c1.6,0,2.7,0.9,2.7,2.2c0,1.3-1.1,2.2-2.7,2.2
			C3421-272.9,3419.9-273.8,3419.9-275.1z M3420.8-275.1c0,0.8,0.7,1.4,1.8,1.4c1,0,1.8-0.6,1.8-1.4c0-0.8-0.7-1.4-1.8-1.4
			C3421.6-276.6,3420.8-276,3420.8-275.1z M3428-277.9v10.8h-1v-10.8H3428z"/>
		<path class="st7" d="M3436.5-275.8h-6.3v-0.8h2.7v-1.3h1v1.3h2.7V-275.8z M3433.4-271.2c-1.5,0-2.6-0.8-2.6-2c0-1.2,1-2,2.6-2
			c1.5,0,2.6,0.8,2.6,2C3435.9-272,3434.9-271.2,3433.4-271.2z M3433.4-271.9c1,0,1.6-0.5,1.6-1.2c0-0.7-0.7-1.2-1.6-1.2
			s-1.6,0.5-1.6,1.2C3431.7-272.4,3432.4-271.9,3433.4-271.9z M3432.8-268.2h6.2v0.8h-7.2v-3.1h1V-268.2z M3440.1-274.3v0.8h-1.6
			v3.7h-1v-8.1h1v3.5H3440.1z"/>
	</g>
	<g class="st1">
		<path class="st7" d="M3352.7-254.4c0-2.8,1.5-4.5,3.8-4.5s3.8,1.7,3.8,4.5s-1.5,4.6-3.8,4.6S3352.7-251.6,3352.7-254.4z
			 M3359.1-254.4c0-2.2-1-3.6-2.6-3.6c-1.6,0-2.6,1.4-2.6,3.6c0,2.2,1,3.6,2.6,3.6C3358.1-250.8,3359.1-252.2,3359.1-254.4z"/>
		<path class="st7" d="M3361.6-254.4c0-2.8,1.7-4.6,3.9-4.6c1.1,0,1.9,0.5,2.4,1.1l-0.6,0.7c-0.5-0.5-1-0.8-1.8-0.8
			c-1.7,0-2.8,1.4-2.8,3.6c0,2.2,1.1,3.6,2.7,3.6c0.8,0,1.5-0.4,2-1l0.6,0.7c-0.7,0.8-1.6,1.3-2.7,1.3
			C3363.3-249.8,3361.6-251.5,3361.6-254.4z"/>
		<path class="st7" d="M3369.8-258.8h1.1v8.8h-1.1V-258.8z"/>
	</g>
	<g class="st1">
		<path class="st7" d="M3381.3-256.8c0,1.5-1.2,2.5-2.8,2.5c-1.6,0-2.8-1-2.8-2.5s1.2-2.5,2.8-2.5
			C3380.1-259.3,3381.3-258.3,3381.3-256.8z M3376.7-256.8c0,1,0.8,1.7,1.8,1.7c1.1,0,1.9-0.7,1.9-1.7c0-1-0.8-1.7-1.9-1.7
			C3377.4-258.5,3376.7-257.8,3376.7-256.8z M3384.3-253.1v3.9h-7v-3.9H3384.3z M3378.3-252.4v2.3h5v-2.3H3378.3z M3384.3-259.9v6.2
			h-1v-6.2H3384.3z"/>
		<path class="st7" d="M3392.6-253.8c-1.2-0.4-2.2-1.3-2.7-2.4c-0.5,1.2-1.5,2.2-2.7,2.7l-0.5-0.8c1.6-0.6,2.7-2,2.7-3.5v-0.4h-2.5
			v-0.8h5.9v0.8h-2.4v0.4c0,1.4,1.1,2.7,2.7,3.3L3392.6-253.8z M3388.1-252.8h7.2v3.7h-1v-2.9h-6.2V-252.8z M3395.3-259.9v6.5h-1
			v-6.5H3395.3z"/>
		<path class="st7" d="M3400.6-254.1c-1.1,0-2.1,0.1-3,0.1l-0.1-0.8c2,0,4.7,0,6.9-0.3l0.1,0.7c-0.9,0.1-1.9,0.3-2.9,0.3v2.1h-1
			V-254.1z M3398.3-257.6c0-1.1,1.1-1.9,2.7-1.9s2.7,0.7,2.7,1.9c0,1.2-1.1,1.9-2.7,1.9S3398.3-256.4,3398.3-257.6z M3406.6-250.2
			v0.8h-7.6v-3.1h1v2.3H3406.6z M3399.3-257.6c0,0.7,0.7,1.2,1.7,1.2s1.7-0.5,1.7-1.2c0-0.7-0.7-1.1-1.7-1.1
			S3399.3-258.3,3399.3-257.6z M3405.3-253.5v-6.4h1v8.2h-1v-1.1h-2.2v-0.7H3405.3z"/>
		<path class="st7" d="M3416.8-254.8h-5v-4.4h5V-254.8z M3417.2-252.2c0,1,1.7,2.1,3.5,2.3l-0.3,0.8c-1.6-0.2-3.1-1-3.7-2
			c-0.6,1-2.1,1.7-3.8,2l-0.3-0.8c1.8-0.2,3.5-1.2,3.6-2.3h-3.1v-0.8h3.2v-1h1v1h3.2v0.8H3417.2z M3415.9-258.4h-3.1v2.8h3.1V-258.4
			z M3420.1-253.7h-1v-6.2h1V-253.7z"/>
	</g>
	<g class="st1">
		<path class="st7" d="M3353-240.7c0,3.1-1.4,5.8-4.9,7.6l-0.5-0.8c2.7-1.4,4.2-3.4,4.4-6h-3.9v-0.8H3353z M3357.5-236.7h-1.7v5.6
			h-1v-10.8h1v4.4h1.7V-236.7z"/>
		<path class="st7" d="M3368.3-236.5v0.8h-9.8v-0.8h4.4v-1.6h1v1.6H3368.3z M3359.1-238.3c1.9-0.2,3.6-1.2,3.7-2.4h-3.3v-0.8h8v0.8
			h-3.3c0.1,1.2,1.8,2.2,3.7,2.4l-0.3,0.8c-1.8-0.2-3.4-1-4-2.2c-0.6,1.2-2.2,2-4,2.2L3359.1-238.3z M3359.6-234.6h7.4v3.5h-1v-2.7
			h-6.5V-234.6z"/>
		<path class="st7" d="M3375.5-237.3c0,2.3-1.1,3.8-2.7,3.8c-1.6,0-2.7-1.5-2.7-3.8s1.1-3.8,2.7-3.8
			C3374.3-241,3375.5-239.6,3375.5-237.3z M3370.9-237.3c0,1.8,0.7,2.9,1.8,2.9c1,0,1.8-1.1,1.8-2.9c0-1.7-0.7-2.9-1.8-2.9
			C3371.7-240.2,3370.9-239,3370.9-237.3z M3378.4-241.9v10.8h-1v-10.8H3378.4z"/>
		<path class="st7" d="M3389.1-235.9c-1.2-0.4-2.2-1.2-2.6-2.2c-0.5,1.1-1.4,2-2.7,2.4l-0.5-0.8c1.6-0.5,2.7-1.7,2.7-3.2v-0.2h-2.4
			v-0.8h2.4v-1.3h1v1.3h2.4v0.8h-2.4v0.2c0,1.3,1,2.5,2.6,3L3389.1-235.9z M3384.9-235h6.8v3.7h-6.8V-235z M3385.9-232h4.8v-2.2
			h-4.8V-232z M3393.3-238.3h-1.6v2.8h-1v-6.4h1v2.7h1.6V-238.3z"/>
		<path class="st7" d="M3403.2-241.9v10.8h-1v-4.2h-2.7c-0.4,1.1-1.3,1.7-2.3,1.7c-1.6,0-2.7-1.5-2.7-3.8s1.1-3.8,2.7-3.8
			c1,0,1.8,0.6,2.2,1.6h2.8v-2.4H3403.2z M3399-237.3c0-1.7-0.7-2.9-1.8-2.9c-1,0-1.8,1.1-1.8,2.9c0,1.8,0.7,2.9,1.8,2.9
			C3398.3-234.4,3399-235.5,3399-237.3z M3402.2-236.1v-2.6h-2.5c0.1,0.4,0.2,0.9,0.2,1.4c0,0.4,0,0.9-0.1,1.2H3402.2z"/>
		<path class="st7" d="M3409-240.1h2.7v0.8h-6.3v-0.8h2.7v-1.6h1V-240.1z M3411.2-236c0,1.5-1.1,2.5-2.6,2.5c-1.5,0-2.6-1-2.6-2.5
			c0-1.5,1.1-2.5,2.6-2.5C3410.1-238.5,3411.2-237.4,3411.2-236z M3410.2-236c0-1-0.7-1.7-1.7-1.7c-1,0-1.7,0.7-1.7,1.7
			c0,1,0.7,1.7,1.7,1.7C3409.5-234.3,3410.2-235,3410.2-236z M3415.4-236.6h-1.8v5.5h-1v-10.7h1v4.4h1.8V-236.6z"/>
		<path class="st7" d="M3426.2-236.4v0.8h-9.8v-0.8H3426.2z M3418.7-232.2h6.5v0.8h-7.4v-3.1h1V-232.2z M3425.1-237.8h-7.3v-3.6h1
			v2.8h6.3V-237.8z"/>
	</g>
	<g class="st1">
		<path class="st7" d="M3362.8-218.5v0.8h-9.7v-0.8h4.4v-1.1h-3.1v-4h1v1.2h5.2v-1.2h1v4h-3.1v1.1H3362.8z M3361.6-215
			c0,1.2-1.4,1.9-3.7,1.9c-2.3,0-3.7-0.7-3.7-1.9c0-1.2,1.4-1.9,3.7-1.9C3360.2-216.9,3361.6-216.2,3361.6-215z M3360.6-215
			c0-0.7-1-1.1-2.7-1.1c-1.7,0-2.7,0.4-2.7,1.1c0,0.7,1,1.1,2.7,1.1C3359.6-213.9,3360.6-214.3,3360.6-215z M3355.3-220.4h5.2v-1.2
			h-5.2V-220.4z"/>
		<path class="st7" d="M3367.7-221c0,1.9,1.2,3.8,2.7,4.6l-0.6,0.8c-1.1-0.6-2.1-1.9-2.6-3.3c-0.5,1.6-1.5,2.9-2.7,3.6l-0.6-0.8
			c1.5-0.8,2.8-2.9,2.8-4.8v-1.9h1V-221z M3374.1-218.7h-1.8v5.6h-1v-10.7h1v4.4h1.8V-218.7z"/>
		<path class="st7" d="M3381.9-218.2c-2.3,0.4-4.8,0.4-6.7,0.4l-0.1-0.7c0.8,0,1.8,0,2.9,0v-0.7c-1.2-0.1-2-0.6-2-1.4
			c0-0.9,1-1.4,2.5-1.4c1.5,0,2.5,0.5,2.5,1.4c0,0.8-0.8,1.3-2,1.4v0.6c1,0,2-0.1,2.9-0.3L3381.9-218.2z M3381.5-222.3h-6.2v-0.7
			h2.6v-0.9h1v0.9h2.6V-222.3z M3377.5-213.9h6.4v0.7h-7.3v-2.3h6v-0.8h-6v-0.7h7v2.2h-6V-213.9z M3378.4-219.8c1,0,1.6-0.3,1.6-0.8
			c0-0.5-0.6-0.8-1.6-0.8c-1,0-1.6,0.3-1.6,0.8C3376.8-220.1,3377.4-219.8,3378.4-219.8z M3385-221.1v0.8h-1.6v2.8h-1v-6.4h1v2.7
			H3385z"/>
		<path class="st7" d="M3395.9-218.6v0.8h-9.7v-0.8h4.4v-1.2h-3.2v-3.6h7.3v0.8h-6.3v2h6.4v0.8h-3.2v1.2H3395.9z M3394.7-215.1
			c0,1.2-1.4,1.9-3.7,1.9c-2.3,0-3.7-0.7-3.7-1.9s1.4-1.9,3.7-1.9C3393.3-217,3394.7-216.3,3394.7-215.1z M3393.7-215.1
			c0-0.8-1-1.2-2.7-1.2c-1.7,0-2.7,0.4-2.7,1.2c0,0.8,1,1.2,2.7,1.2C3392.7-213.9,3393.7-214.3,3393.7-215.1z"/>
		<path class="st7" d="M3409.6-217h-4.4v3.9h-1v-3.9h-4.3v-0.8h9.7L3409.6-217z M3408.7-219c-1.7-0.3-3.3-1.2-4-2.5
			c-0.7,1.3-2.3,2.2-4,2.5l-0.4-0.8c2-0.3,3.9-1.6,3.9-3.1v-0.6h1v0.6c0,1.5,1.9,2.8,3.9,3.1L3408.7-219z"/>
		<path class="st7" d="M3416.3-221.8h-5.5v-0.8h2.3v-1.2h1v1.2h2.2L3416.3-221.8z M3413.6-217.6c-1.4,0-2.3-0.7-2.3-1.8
			c0-1.1,0.9-1.8,2.3-1.8c1.4,0,2.3,0.7,2.3,1.8C3415.9-218.3,3415-217.6,3413.6-217.6z M3413.6-218.3c0.8,0,1.4-0.4,1.4-1.1
			c0-0.7-0.6-1.1-1.4-1.1c-0.9,0-1.4,0.4-1.4,1.1C3412.2-218.7,3412.8-218.3,3413.6-218.3z M3420.1-215c0,1.2-1.4,1.9-3.6,1.9
			c-2.2,0-3.6-0.7-3.6-1.9c0-1.2,1.4-1.9,3.6-1.9C3418.7-216.9,3420.1-216.2,3420.1-215z M3419.1-215c0-0.7-1-1.1-2.6-1.1
			c-1.6,0-2.6,0.4-2.6,1.1c0,0.7,1,1.1,2.6,1.1C3418.1-213.9,3419.1-214.3,3419.1-215z M3417.7-217.5h-0.9v-6.2h0.9v2.7h1.4v-2.9
			h0.9v6.8h-0.9v-3.1h-1.4V-217.5z"/>
	</g>
	<path id="패스_2765" class="st2" d="M3464-468.9h138.3v128.6H3464V-468.9z"/>
	<g class="st1">
		<path class="st0" d="M3511.5-369.1c-1.5-0.5-2.5-1.4-3.1-2.7c-0.6,1.3-1.6,2.4-3.1,2.9l-0.8-1.1c2-0.7,3.1-2.3,3.1-4v-0.2h-2.7
			v-1.2h6.9v1.2h-2.7v0.2c0,1.6,1.1,3.2,3.1,3.8L3511.5-369.1z M3506.3-367.9h8.5v4.4h-1.4v-3.2h-7.1V-367.9z M3514.9-376.2v7.6
			h-1.4v-7.6H3514.9z"/>
		<path class="st0" d="M3521.2-369.4c-1.2,0.1-2.3,0.1-3.3,0.1l-0.2-1.2c2.3,0,5.4,0,8.1-0.4l0.1,1c-1.1,0.2-2.2,0.3-3.2,0.4v2.4
			h-1.4V-369.4z M3518.7-373.5c0-1.3,1.3-2.2,3.1-2.2c1.8,0,3.1,0.9,3.1,2.2s-1.3,2.2-3.1,2.2C3520-371.3,3518.7-372.2,3518.7-373.5
			z M3528.6-365v1.2h-9.1v-3.7h1.4v2.6H3528.6z M3520.1-373.5c0,0.7,0.7,1.2,1.8,1.2c1,0,1.8-0.4,1.8-1.2c0-0.7-0.7-1.2-1.8-1.2
			C3520.8-374.7,3520.1-374.2,3520.1-373.5z M3526.8-368.8v-7.4h1.4v9.6h-1.4v-1.2h-2.5v-1H3526.8z"/>
		<path class="st0" d="M3541.5-369.1c-1.4-0.4-2.5-1.3-3-2.4c-0.6,1.2-1.6,2.2-3.1,2.6l-0.7-1.1c1.9-0.6,3.1-2,3.1-3.5v-0.1h-2.7
			v-1.1h2.7v-1.4h1.5v1.4h2.6v1.1h-2.7v0.1c0,1.4,1.1,2.8,3,3.3L3541.5-369.1z M3536.5-368.2h8.1v4.5h-8.1V-368.2z M3537.9-364.9
			h5.2v-2.2h-5.2V-364.9z M3546.4-371.9h-1.8v3.2h-1.4v-7.5h1.4v3.1h1.8V-371.9z"/>
		<path class="st0" d="M3558.5-376.2v12.7h-1.5v-4.8h-2.9c-0.5,1.2-1.5,2-2.7,2c-1.9,0-3.2-1.7-3.2-4.5c0-2.7,1.3-4.5,3.2-4.5
			c1.1,0,2.1,0.7,2.7,1.8h3v-2.7H3558.5z M3553.3-370.8c0-2-0.7-3.2-1.8-3.2c-1.1,0-1.8,1.2-1.8,3.2c0,2,0.8,3.2,1.8,3.2
			C3552.5-367.7,3553.3-368.8,3553.3-370.8z M3557.1-369.5v-2.8h-2.6c0.1,0.5,0.2,0.9,0.2,1.5c0,0.5,0,0.9-0.1,1.3H3557.1z"/>
	</g>
	<g id="그룹_5033" transform="translate(3500.172 -447.845)">
		<rect id="사각형_304-3" x="0" y="0" class="st2" width="66" height="65.3"/>
		<g id="그룹_4142" transform="translate(13.023 9.523)">
			<path id="패스_1749" class="st0" d="M19.8,46.6h1v-15h-1V46.6z"/>
			<g id="그룹_4132" transform="translate(16.174)">
				<path id="패스_1750" class="st0" d="M4.2,8.4C1.9,8.4,0,6.5,0,4.2C0,1.9,1.9,0,4.2,0c2.3,0,4.2,1.9,4.2,4.2
					C8.4,6.5,6.5,8.4,4.2,8.4 M4.2,1C2.4,1,1,2.4,1,4.2c0,1.7,1.4,3.2,3.2,3.2c1.7,0,3.2-1.4,3.2-3.2C7.4,2.4,5.9,1,4.2,1"/>
			</g>
			<g id="그룹_4133" transform="translate(11.762 10.293)">
				<path id="패스_1751" class="st0" d="M16.2,5.4V4.9c0-2.2-1.7-3.9-3.9-3.9H4.9C2.8,1,1,2.8,1,4.9v0.5H0V4.9C0,2.2,2.2,0,4.9,0
					h7.4c2.7,0,4.9,2.2,4.9,4.9v0.5H16.2z"/>
			</g>
			<g id="그룹_4135" transform="translate(4.411 6.616)">
				<path id="패스_1754" class="st0" d="M3.4,6.9C1.5,6.9,0,5.4,0,3.4C0,1.5,1.5,0,3.4,0c1.9,0,3.4,1.5,3.4,3.5
					C6.9,5.4,5.4,6.9,3.4,6.9 M3.4,1C2.1,1,1,2.1,1,3.4c0,1.3,1.1,2.4,2.4,2.4c1.3,0,2.4-1.1,2.4-2.4C5.9,2.1,4.8,1,3.4,1"/>
			</g>
			<g id="그룹_4136" transform="translate(0 15.438)">
				<path id="패스_1755" class="st0" d="M11.8,31.2v-15h2.9v-12c0-1.7-1.4-3.2-3.2-3.2H4.2C2.4,1,1,2.4,1,4.2v12H4v15h-1v-14H0
					v-13C0,1.9,1.9,0,4.2,0h7.4c2.3,0,4.2,1.9,4.2,4.2v13h-2.9v14H11.8z"/>
			</g>
			<g id="그룹_4138" transform="translate(29.406 6.616)">
				<path id="패스_1758" class="st0" d="M3.4,6.9C1.5,6.9,0,5.4,0,3.4C0,1.5,1.5,0,3.4,0c1.9,0,3.4,1.5,3.4,3.5
					C6.9,5.4,5.4,6.9,3.4,6.9 M3.4,1C2.1,1,1,2.1,1,3.4c0,1.3,1.1,2.4,2.4,2.4c1.3,0,2.4-1.1,2.4-2.4C5.9,2.1,4.8,1,3.4,1"/>
			</g>
			<g id="그룹_4139" transform="translate(24.995 15.438)">
				<path id="패스_1759" class="st0" d="M11.8,31.2v-15h2.9v-12c0-1.7-1.4-3.2-3.2-3.2H4.2C2.4,1,1,2.4,1,4.2v12H4v15h-1v-14H0
					v-13C0,1.9,1.9,0,4.2,0h7.4c2.3,0,4.2,1.9,4.2,4.2v13h-2.9v14H11.8z"/>
			</g>
			<path id="패스_1761" class="st0" d="M19.8,14.2h1v-1h-1V14.2z"/>
			<path id="패스_1762" class="st0" d="M19.8,17.2h1v-1h-1V17.2z"/>
			<path id="패스_1763" class="st0" d="M32.3,19.4h1v-1h-1V19.4z"/>
			<path id="패스_1764" class="st0" d="M7.4,19.4h1v-1h-1V19.4z"/>
		</g>
	</g>
	<path id="패스_2766" class="st2" d="M3464-332.6h138.3v141.8H3464V-332.6z"/>
	<g class="st1">
		<path class="st0" d="M3496.4-314c2,0,3.8,1,4.5,2.9h-1.9c-0.5-1-1.4-1.5-2.6-1.5c-1.9,0-3.3,1.4-3.3,3.6s1.4,3.6,3.3,3.6
			c1.2,0,2.1-0.5,2.6-1.5h1.9c-0.7,1.9-2.5,2.9-4.5,2.9c-2.7,0-5-2-5-5C3491.4-311.9,3493.7-314,3496.4-314z"/>
		<path class="st0" d="M3506.2-304c-2.2,0-3.9-1.6-3.9-4c0-2.4,1.7-4,3.9-4s3.9,1.6,3.9,4C3510.2-305.6,3508.4-304,3506.2-304z
			 M3506.2-305.4c1.2,0,2.4-0.9,2.4-2.6s-1.1-2.6-2.3-2.6c-1.2,0-2.3,0.8-2.3,2.6S3504.9-305.4,3506.2-305.4z"/>
		<path class="st0" d="M3522.7-308.4c0-1.4-0.8-2.1-1.9-2.1c-1.2,0-1.9,0.7-1.9,2.1v4.3h-1.6v-4.3c0-1.4-0.8-2.1-1.9-2.1
			c-1.2,0-1.9,0.7-1.9,2.1v4.3h-1.6v-7.7h1.6v0.9c0.5-0.6,1.4-1,2.3-1c1.2,0,2.2,0.5,2.8,1.5c0.5-0.9,1.6-1.5,2.7-1.5
			c1.8,0,3.2,1.1,3.2,3.3v4.6h-1.6V-308.4z"/>
		<path class="st0" d="M3537.2-308.4c0-1.4-0.8-2.1-1.9-2.1c-1.2,0-1.9,0.7-1.9,2.1v4.3h-1.6v-4.3c0-1.4-0.8-2.1-1.9-2.1
			c-1.2,0-1.9,0.7-1.9,2.1v4.3h-1.6v-7.7h1.6v0.9c0.5-0.6,1.4-1,2.3-1c1.2,0,2.2,0.5,2.8,1.5c0.5-0.9,1.6-1.5,2.7-1.5
			c1.8,0,3.2,1.1,3.2,3.3v4.6h-1.6V-308.4z"/>
		<path class="st0" d="M3547.8-304.1h-1.6v-0.9c-0.5,0.7-1.4,1-2.3,1c-1.8,0-3.2-1.1-3.2-3.3v-4.5h1.6v4.3c0,1.4,0.8,2.1,1.9,2.1
			c1.2,0,1.9-0.7,1.9-2.1v-4.3h1.6V-304.1z"/>
		<path class="st0" d="M3555.4-308.4c0-1.4-0.8-2.1-1.9-2.1c-1.2,0-1.9,0.7-1.9,2.1v4.3h-1.6v-7.7h1.6v0.9c0.5-0.6,1.4-1,2.3-1
			c1.8,0,3.2,1.1,3.2,3.3v4.6h-1.6V-308.4z"/>
		<path class="st0" d="M3558.8-313.9c0-0.6,0.4-1,1-1c0.6,0,1,0.4,1,1s-0.4,1-1,1C3559.2-312.9,3558.8-313.3,3558.8-313.9z
			 M3559-311.8h1.6v7.7h-1.6V-311.8z"/>
		<path class="st0" d="M3562.9-310.5h-0.9v-1.3h0.9v-1.9h1.6v1.9h1.9v1.3h-1.9v4.3c0,0.6,0.2,0.8,0.9,0.8h1v1.3h-1.3
			c-1.4,0-2.2-0.6-2.2-2.1V-310.5z"/>
		<path class="st0" d="M3573.2-311.8h1.7l-4.7,11.3h-1.7l1.6-3.8l-3-7.6h1.8l2.2,5.9L3573.2-311.8z"/>
	</g>
	<path id="패스_2772" class="st6" d="M3485.6-290.9h95.2"/>
	<g class="st1">
		<path class="st7" d="M3490.8-275c0,1.9,1.2,3.8,2.7,4.6l-0.6,0.8c-1.1-0.6-2.1-1.9-2.6-3.3c-0.5,1.6-1.5,2.9-2.7,3.6l-0.6-0.8
			c1.5-0.8,2.8-2.9,2.8-4.8v-1.9h1V-275z M3497.3-272.7h-1.8v5.6h-1v-10.7h1v4.4h1.8V-272.7z"/>
		<path class="st7" d="M3507.1-277.9v5.8h-1v-2.4h-2.2c-0.2,1.3-1.3,2.1-2.7,2.1c-1.6,0-2.8-1-2.8-2.5c0-1.5,1.2-2.5,2.8-2.5
			c1.5,0,2.5,0.8,2.7,2.1h2.2v-2.6H3507.1z M3503-274.9c0-1-0.8-1.7-1.8-1.7s-1.8,0.7-1.8,1.7s0.8,1.7,1.8,1.7
			S3503-273.9,3503-274.9z M3506.1-271.6h1v4.3h-6.9v-4.3h1v1.4h4.9V-271.6z M3506.1-269.4h-4.9v1.4h4.9V-269.4z"/>
		<path class="st7" d="M3515.1-271.9c-1.2-0.4-2.1-1.2-2.6-2.3c-0.5,1.2-1.4,2.2-2.7,2.6l-0.5-0.8c1.6-0.6,2.7-2,2.7-3.5v-0.4h-2.4
			v-0.8h5.8v0.8h-2.4v0.4c0,1.4,1,2.7,2.6,3.2L3515.1-271.9z M3517.8-269.1c0,1.3-1.4,2-3.5,2c-2.2,0-3.5-0.7-3.5-2
			c0-1.2,1.3-2,3.5-2C3516.4-271.1,3517.8-270.4,3517.8-269.1z M3516.8-269.1c0-0.8-1-1.2-2.6-1.2c-1.6,0-2.6,0.4-2.6,1.2
			c0,0.8,1,1.2,2.6,1.2C3515.8-267.9,3516.8-268.3,3516.8-269.1z M3519.2-275.1v0.8h-1.6v3h-1v-6.5h1v2.7H3519.2z"/>
		<path class="st7" d="M3532.8-270.9h-4.4v3.8h-1v-3.8h-4.3v-0.8h9.7L3532.8-270.9z M3523.6-273.4c1.9-0.3,3.7-1.5,3.7-2.9v-0.1
			h-3.4v-0.8h7.9v0.8h-3.4v0.1c0,1.4,1.9,2.7,3.8,2.9l-0.4,0.8c-1.7-0.3-3.3-1.2-3.9-2.5c-0.7,1.3-2.2,2.2-3.9,2.5L3523.6-273.4z"/>
		<path class="st7" d="M3539.4-271.7h-4.8v-5.4h1v1.9h2.9v-1.9h1v1.3h2.5v-2h1v8h-1v-2.9h-2.5V-271.7z M3538.5-274.5h-2.9v1.9h2.9
			V-274.5z M3543.2-268.2v0.8h-7.2v-3.3h1v2.5H3543.2z M3539.4-275.1v1.5h2.5v-1.5H3539.4z"/>
		<path class="st7" d="M3551.6-274.6c0,1.8,1.3,3.7,2.9,4.4l-0.6,0.8c-1.2-0.6-2.3-1.8-2.8-3.3c-0.5,1.6-1.5,2.9-2.8,3.5l-0.6-0.8
			c1.5-0.7,2.9-2.8,2.9-4.6v-1.4h-2.5v-0.8h6v0.8h-2.5V-274.6z M3556.6-277.9v10.7h-1v-10.7H3556.6z"/>
		<path class="st7" d="M3567.7-277.9v6.3h-1v-1.5h-2.7c-0.5,0.6-1.3,1-2.2,1c-1.6,0-2.8-1.1-2.8-2.6c0-1.5,1.2-2.6,2.8-2.6
			c0.9,0,1.7,0.4,2.2,1h2.7v-1.6L3567.7-277.9z M3563.6-274.7c0-1-0.8-1.7-1.8-1.7c-1,0-1.8,0.7-1.8,1.7c0,1,0.8,1.8,1.8,1.8
			C3562.8-272.9,3563.6-273.7,3563.6-274.7z M3560.5-270.9h7.2v3.8h-1v-3h-6.2V-270.9z M3566.7-273.9v-1.6h-2.3
			c0.1,0.3,0.1,0.5,0.1,0.8c0,0.3,0,0.6-0.1,0.8H3566.7z"/>
		<path class="st7" d="M3573-270.3c1.2,0,2.4-0.1,3.5-0.3l0.1,0.7c-2.2,0.4-4.8,0.4-6.7,0.4l-0.1-0.8c0.7,0,1.5,0,2.3,0v-3.3h1
			V-270.3z M3574.5-271.9c0.3-1.8,0.3-3.1,0.3-4h-4.5v-0.8h5.4v0.6c0,0.9,0,2.3-0.3,4.3L3574.5-271.9z M3579.8-272.5h-1.7v5.4h-1
			v-10.8h1v4.5h1.7V-272.5z"/>
	</g>
	<g class="st1">
		<path class="st7" d="M3487.4-254c-1.2-0.4-2.1-1.3-2.6-2.4c-0.4,1.3-1.4,2.2-2.7,2.7l-0.5-0.8c1.6-0.6,2.7-2.1,2.7-3.7v-1.1h1v1.2
			c0,1.5,1.1,2.8,2.6,3.3L3487.4-254z M3490.2-251.1c0,1.2-1.4,2-3.5,2c-2.2,0-3.6-0.7-3.6-2c0-1.3,1.4-2,3.6-2
			C3488.8-253,3490.2-252.3,3490.2-251.1z M3489.2-251.1c0-0.8-1-1.2-2.6-1.2c-1.6,0-2.6,0.4-2.6,1.2c0,0.7,1,1.2,2.6,1.2
			C3488.2-249.9,3489.2-250.3,3489.2-251.1z M3491.6-257.1v0.8h-1.6v2.9h-1v-6.5h1v2.8H3491.6z"/>
		<path class="st7" d="M3497.6-254.1c-1-0.4-1.7-1.2-2.1-2.1c-0.4,1-1.2,1.9-2.2,2.4l-0.5-0.8c1.4-0.6,2.2-2,2.2-3.2v-1.5h0.9v1.5
			c0,1.2,0.8,2.4,2.2,2.9L3497.6-254.1z M3501.9-251.1c0,1.2-1.4,1.9-3.6,1.9c-2.2,0-3.6-0.7-3.6-1.9c0-1.2,1.4-1.9,3.6-1.9
			C3500.5-253,3501.9-252.3,3501.9-251.1z M3500.9-251.1c0-0.7-1-1.2-2.6-1.2c-1.6,0-2.6,0.4-2.6,1.2c0,0.7,1,1.2,2.6,1.2
			C3499.9-249.9,3500.9-250.3,3500.9-251.1z M3499.5-253.6h-0.9v-6.1h0.9v2.7h1.4v-2.9h0.9v6.6h-0.9v-3h-1.4V-253.6z"/>
		<path class="st7" d="M3513.5-255.2v0.8h-9.7v-0.8H3513.5z M3504.8-257.8c0-1.2,1.4-1.9,3.8-1.9s3.8,0.7,3.8,1.9
			c0,1.2-1.4,1.9-3.8,1.9S3504.8-256.6,3504.8-257.8z M3505.9-250h6.6v0.8h-7.6v-2.6h6.3v-1h-6.3v-0.7h7.3v2.4h-6.3V-250z
			 M3505.9-257.8c0,0.7,1,1.1,2.8,1.1s2.8-0.4,2.8-1.1s-1-1.1-2.8-1.1S3505.9-258.5,3505.9-257.8z"/>
		<path class="st7" d="M3524.6-253.7c-1,0.2-2.1,0.3-3.1,0.4v3.9h-1v-3.8c-1.1,0-2.1,0.1-3,0.1l-0.1-0.8c2,0,4.7,0,7.1-0.4
			L3524.6-253.7z M3518.3-257.1c0-1.3,1.1-2.2,2.7-2.2c1.6,0,2.7,0.9,2.7,2.2c0,1.3-1.1,2.2-2.7,2.2
			C3519.4-254.9,3518.3-255.8,3518.3-257.1z M3519.2-257.1c0,0.8,0.7,1.4,1.8,1.4c1,0,1.8-0.6,1.8-1.4c0-0.8-0.7-1.4-1.8-1.4
			C3520-258.6,3519.2-258,3519.2-257.1z M3526.3-259.9v10.8h-1v-10.8H3526.3z"/>
		<path class="st7" d="M3531.7-258h2.2v0.8h-5.3v-0.8h2.2v-1.5h1V-258z M3533.5-254.1c0,1.5-1,2.5-2.3,2.5c-1.3,0-2.3-1-2.3-2.5
			c0-1.4,1-2.4,2.3-2.4C3532.5-256.5,3533.5-255.5,3533.5-254.1z M3532.6-254.1c0-0.9-0.6-1.6-1.4-1.6c-0.8,0-1.4,0.7-1.4,1.6
			c0,1,0.6,1.6,1.4,1.6C3532-252.4,3532.6-253.1,3532.6-254.1z M3537.7-259.9v10.8h-0.9v-5.4h-1.4v4.9h-0.9v-10h0.9v4.3h1.4v-4.5
			H3537.7z"/>
		<path class="st7" d="M3552-251.3v0.8h-9.8v-0.8h4.3v-2.6h1v2.6H3552z M3551.1-253.8c-1.6-0.3-3.3-1.5-4-3c-0.7,1.5-2.4,2.7-4,3
			l-0.4-0.8c1.9-0.3,3.9-1.9,3.9-3.7v-0.8h1v0.8c0,1.8,2.1,3.4,3.9,3.7L3551.1-253.8z"/>
		<path class="st7" d="M3557.3-252.3c1-0.1,2.1-0.1,3.1-0.3l0.1,0.7c-2.4,0.4-5,0.5-7,0.5l-0.1-0.8c0.9,0,1.9,0,2.9,0v-1.9
			c-1.4-0.2-2.4-1.2-2.4-2.5c0-1.5,1.2-2.5,2.9-2.5c1.7,0,2.9,1,2.9,2.5c0,1.4-1,2.3-2.4,2.5V-252.3z M3556.8-255
			c1.1,0,1.9-0.7,1.9-1.7c0-1-0.8-1.7-1.9-1.7c-1.1,0-1.9,0.7-1.9,1.7C3554.9-255.6,3555.7-255,3556.8-255z M3562.1-259.9v10.8h-1
			v-10.8H3562.1z"/>
		<path class="st7" d="M3570.4-259.6h0.9v9.9h-0.9v-3.7h-1.9v-0.8h1.9v-1.9h-1.8c-0.5,1.8-1.7,3.4-3.7,4.6l-0.6-0.7
			c2.3-1.4,3.5-3.3,3.6-5.6h-3.2v-0.8h4.1c0,0.6,0,1.1-0.1,1.6h1.6V-259.6z M3573.5-259.9v10.7h-0.9v-10.7H3573.5z"/>
		<path class="st7" d="M3585.1-254.4v0.8h-9.7v-0.8H3585.1z M3576-255.9c2-0.2,3.7-1,3.8-2.2h-3.3v-0.8h3.4v-1.1h1v1.1h3.4v0.8h-3.3
			c0.1,1.2,1.7,2,3.8,2.2l-0.3,0.8c-1.8-0.2-3.3-0.8-4-1.9c-0.7,1.1-2.2,1.7-4,1.9L3576-255.9z M3583.9-250.9c0,1.2-1.4,1.8-3.7,1.8
			c-2.3,0-3.7-0.6-3.7-1.8c0-1.2,1.4-1.8,3.7-1.8C3582.6-252.7,3583.9-252.1,3583.9-250.9z M3582.9-250.9c0-0.7-1-1.1-2.7-1.1
			c-1.7,0-2.7,0.4-2.7,1.1c0,0.7,1,1,2.7,1C3581.9-249.9,3582.9-250.2,3582.9-250.9z"/>
	</g>
	<g class="st1">
		<path class="st7" d="M3485.9-239.1c-0.7,1.7-2.3,3-4.6,3.7l-0.4-0.8c2.6-0.8,4.2-2.2,4.3-4.1h-3.8v-0.8h4.9c0,0.4,0,0.8-0.1,1.2
			h2.4v-2h1v6.4h-1v-1.4h-2.8v-0.8h2.8v-1.4H3485.9z M3489.6-233.2c0,1.3-1.4,2.1-3.6,2.1c-2.2,0-3.6-0.8-3.6-2.1s1.4-2.1,3.6-2.1
			C3488.2-235.3,3489.6-234.5,3489.6-233.2z M3488.6-233.2c0-0.8-1-1.3-2.6-1.3c-1.6,0-2.6,0.5-2.6,1.3c0,0.8,1,1.3,2.6,1.3
			C3487.6-231.9,3488.6-232.4,3488.6-233.2z"/>
		<path class="st7" d="M3494.9-238.8c0,1.9,0.8,3.7,2.3,4.6l-0.6,0.7c-1-0.6-1.8-1.8-2.2-3.1c-0.4,1.5-1.2,2.7-2.2,3.4l-0.6-0.7
			c1.5-0.9,2.3-2.9,2.3-4.8v-1h-2v-0.8h4.9v0.8h-1.9V-238.8z M3497.8-241.6h0.9v10h-0.9v-5.5h-1.8v-0.8h1.8V-241.6z M3500.9-241.9
			v10.8h-0.9v-10.8H3500.9z"/>
		<path class="st7" d="M3508.6-235.8c-1.2-0.4-2.1-1.3-2.6-2.4c-0.5,1.2-1.4,2.2-2.7,2.7l-0.5-0.8c1.6-0.6,2.7-2,2.7-3.5v-0.4h-2.4
			v-0.8h5.7v0.8h-2.4v0.4c0,1.4,1.1,2.7,2.6,3.3L3508.6-235.8z M3504.4-234.8h7.2v3.7h-1v-3h-6.2V-234.8z M3511.6-241.9v6.4h-1v-2.8
			h-2.1v-0.8h2.1v-2.8H3511.6z"/>
		<path class="st7" d="M3516.9-241.5h0.8l-3.6,11.7h-0.8L3516.9-241.5z"/>
		<path class="st7" d="M3520.1-241v2.8h3.1v-2.8h1v7.3h-5.1v-7.3H3520.1z M3520.1-234.5h3.1v-2.8h-3.1V-234.5z M3527.3-241.9v10.8
			h-1v-10.8H3527.3z"/>
		<path class="st7" d="M3534.7-239.1c-0.7,1.7-2.3,3-4.6,3.7l-0.4-0.8c2.6-0.8,4.2-2.2,4.3-4.1h-3.8v-0.8h4.9c0,0.4,0,0.8-0.1,1.2
			h2.4v-2h1v6.4h-1v-1.4h-2.8v-0.8h2.8v-1.4H3534.7z M3538.5-233.2c0,1.3-1.4,2.1-3.6,2.1s-3.6-0.8-3.6-2.1s1.4-2.1,3.6-2.1
			S3538.5-234.5,3538.5-233.2z M3537.5-233.2c0-0.8-1-1.3-2.6-1.3c-1.6,0-2.6,0.5-2.6,1.3c0,0.8,1,1.3,2.6,1.3
			C3536.5-231.9,3537.5-232.4,3537.5-233.2z"/>
		<path class="st7" d="M3543.7-238.8c0,1.9,0.8,3.7,2.3,4.6l-0.6,0.7c-1-0.6-1.8-1.8-2.2-3.1c-0.4,1.5-1.2,2.7-2.2,3.4l-0.6-0.7
			c1.5-0.9,2.3-2.9,2.3-4.8v-1h-2v-0.8h4.9v0.8h-1.9V-238.8z M3546.6-241.6h0.9v10h-0.9v-5.5h-1.8v-0.8h1.8V-241.6z M3549.7-241.9
			v10.8h-0.9v-10.8H3549.7z"/>
		<path class="st7" d="M3557.5-235.8c-1.2-0.4-2.1-1.3-2.6-2.4c-0.5,1.2-1.4,2.2-2.7,2.7l-0.5-0.8c1.6-0.6,2.7-2,2.7-3.5v-0.4h-2.4
			v-0.8h5.7v0.8h-2.4v0.4c0,1.4,1.1,2.7,2.6,3.3L3557.5-235.8z M3553.3-234.8h7.2v3.7h-1v-3h-6.2V-234.8z M3560.5-241.9v6.4h-1v-2.8
			h-2.1v-0.8h2.1v-2.8H3560.5z"/>
		<path class="st7" d="M3569.2-238.6c0,1.8,1.3,3.7,2.9,4.4l-0.6,0.8c-1.2-0.6-2.3-1.8-2.8-3.3c-0.5,1.6-1.5,2.9-2.8,3.5l-0.6-0.8
			c1.5-0.7,2.9-2.8,2.9-4.6v-1.4h-2.5v-0.8h6v0.8h-2.5V-238.6z M3574.2-241.9v10.7h-1v-10.7H3574.2z"/>
		<path class="st7" d="M3579.5-236.1c-1.1,0-2.1,0.1-3,0.1l-0.1-0.8c2,0,4.7,0,6.9-0.3l0.1,0.7c-0.9,0.1-1.9,0.3-2.9,0.3v2.1h-1
			V-236.1z M3577.2-239.6c0-1.1,1.1-1.9,2.7-1.9c1.6,0,2.7,0.7,2.7,1.9c0,1.2-1.1,1.9-2.7,1.9
			C3578.3-237.7,3577.2-238.4,3577.2-239.6z M3585.5-232.2v0.8h-7.6v-3.1h1v2.3H3585.5z M3578.1-239.6c0,0.7,0.7,1.2,1.7,1.2
			s1.7-0.5,1.7-1.2c0-0.7-0.7-1.1-1.7-1.1S3578.1-240.3,3578.1-239.6z M3584.2-235.5v-6.4h1v8.2h-1v-1.1h-2.2v-0.7H3584.2z"/>
	</g>
</g>
</svg>
